<?xml version="1.0" encoding="utf-8"?>
<!-- Generator: Adobe Illustrator 28.3.0, SVG Export Plug-In . SVG Version: 6.00 Build 0)  -->
<svg version="1.1" id="Layer_1"
    xmlns="http://www.w3.org/2000/svg"
    xmlns:xlink="http://www.w3.org/1999/xlink" x="0px" y="0px" viewBox="0 0 1122 1122" style="enable-background:new 0 0 1122 1122;" xml:space="preserve">
    <path d="M1117.5,372.9c0-160.6-130.7-291.3-291.2-291.3C708.4,81.7,606.8,152,561,252.9C515.2,152,413.5,81.7,295.8,81.7
	C135.1,81.7,4.5,212.3,4.5,372.9c0,33.9,5.8,66.4,16.5,96.6c12.2,34.5,30.6,66,54,93.1c10,11.6,20.8,22.4,32.5,32.3l444.2,441.2
	c2.7,2.7,6.3,4.1,9.9,4.1c3.6,0,7.2-1.4,10-4.1l460.7-457.7l0-0.1c29.9-29.9,53.3-66.2,67.9-106.8
	C1111.4,440.8,1117.5,407.6,1117.5,372.9z"/>
</svg>
