<?xml version="1.0" encoding="UTF-8"?>
<svg id="Layer_1" data-name="Layer 1" xmlns="http://www.w3.org/2000/svg" viewBox="0 0 717.44 900">
  <path d="M455.62,900c-6.46-3.23-10.45-9.19-15.55-13.94-10.32-9.6-20.79-19.04-31.15-28.59-7.16-6.6-14.26-13.26-21.36-19.93-.69-.65-1.49-1.46-1.67-2.32-.2-.95-.06-2.33.54-2.95.46-.48,2.14-.46,2.77.02,7.88,5.97,15.86,11.83,23.42,18.19,10.72,9.02,21.16,18.38,31.62,27.69,3.73,3.32,7.11,7.02,10.82,10.36,2.9,2.62,3.88,2.32,4.81-1.41.56-2.24.86-4.61.87-6.92.11-17.45-1.95-34.73-4.24-51.99-1.52-11.42-3.07-22.84-4.14-34.31-1.08-11.57-.76-23.19.91-34.71.39-2.69,1.11-5.38,2.02-7.95.57-1.62,1.48-3.37,2.77-4.4.96-.78,3.01-1.05,4.11-.55.97.44,2,2.41,1.8,3.49-4.48,25.01-.96,49.77,2.07,74.56,1.89,15.51,3.88,31.01,5.49,46.55.53,5.09.38,10.33-.1,15.44-.55,5.82-2.86,10.91-8.57,13.68h-7.26Z" style="fill: #000; stroke-width: 0px;"/>
  <path d="M253.92,900c-6.67-3.72-8.47-10-8.69-16.96-.4-12.61.98-25.1,2.69-37.57,2.87-20.91,6.49-41.74,6.9-62.91.14-7.41.06-14.83-.21-22.23-.11-3.11-.9-6.2-1.5-9.27-.41-2.06-.42-3.97,1.74-4.98,2.09-.98,3.85-.07,5.02,1.69.92,1.39,1.79,2.95,2.16,4.55.96,4.15,1.95,8.33,2.37,12.56,1.52,15.32.47,30.56-1.59,45.78-2.77,20.52-5.86,41.01-6.51,61.75-.1,3.22-.21,6.46.02,9.66.17,2.3.81,4.58,1.4,6.82.38,1.42,1.46,1.69,2.62.82,1.35-1.01,2.75-2.02,3.89-3.24,14.36-15.35,31.07-28.08,46.76-41.94,2.88-2.54,6.25-4.53,9.38-6.8,2.21-1.61,4.44-3.19,6.56-4.91,1.17-.95,2.34-1.68,3.64-.58,1.42,1.19,1.01,2.7-.06,3.85-3.13,3.35-6.22,6.75-9.58,9.86-17.11,15.78-35.35,30.32-51.19,47.49-2.4,2.6-5.68,4.4-8.55,6.57h-7.26Z" style="fill: #000; stroke-width: 0px;"/>
  <path d="M402.37,414.94c-.65-20.91,1.22-41.72,2.75-62.53.55-7.54,2.28-14.99,2.87-22.53,1.4-17.89,5.59-35.33,8.1-53.03.29-2.01.74-3.77-2.25-4.22-.9-.13-1.77-1.7-2.27-2.79-.33-.7-.09-1.75.11-2.59,2.62-10.72,5.35-21.41,7.9-32.14.72-3.04,1.3-6.19,1.32-9.3.07-16.75.21-33.51-.2-50.26-.27-10.85-1.77-21.67-2.14-32.53-.47-13.95,2.02-27.6,5.59-41.06,1.69-6.36,6.57-8.77,12.62-6.17,3.77,1.62,6.55,4.43,8.72,7.78,16.56,25.63,20.97,52.86,9.2,81.5-4.63,11.28-10.86,21.93-16.8,32.62-3.1,5.57-5.01,11.06-4.92,17.56.35,27.93-3.57,55.47-8.73,82.81-2.32,12.33-5.58,24.53-9.26,36.53-5.4,17.6-7.64,35.5-7.71,53.85-.06,15.5,1.07,30.91,2.27,46.33.34,4.42.47,8.85.68,13.28.08,1.64-.15,3.22-2.14,3.47-1.98.24-2.75-1.24-2.94-2.84-.74-6.24-1.69-12.47-1.96-18.73-.49-11.67-.56-23.36-.8-35.04ZM433.01,106.47c-.3.9-.5,1.25-.53,1.63-.78,9.62-2.34,19.25-2.14,28.85.39,18.83,1.76,37.64,2.75,56.45.02.47.29.93.56,1.77.46-.79.74-1.17.92-1.59,4.34-10.26,7.89-20.75,10.23-31.67,3.41-15.9.56-31.05-5.03-45.92-1.34-3.56-3.58-6.59-6.75-9.53Z" style="fill: #000; stroke-width: 0px;"/>
  <path d="M298.98,141.05c-.57,8.11-.82,16.25-1.79,24.31-1.94,16.15-1.98,32.32-1.44,48.52.22,6.59.12,13.3,1.37,19.72,2.15,11.05,5.24,21.92,7.93,32.87.19.78.6,1.66.41,2.35-.35,1.24-.91,3.25-1.69,3.41-4.2.83-2.97,3.63-2.55,6.13,1.41,8.51,3.05,16.98,4.28,25.51,1.76,12.27,3.26,24.59,4.82,36.89,2.87,22.57,4.23,45.24,3.98,67.99-.17,15.79-.48,31.58-.94,47.36-.12,4.16-.97,8.31-1.58,12.46-.25,1.69-.94,3.28-3.06,2.98-1.98-.28-2.17-1.91-2.06-3.53.79-11.17,1.82-22.33,2.33-33.51.46-9.89.37-19.81.48-29.72.2-17.31-2.89-34.07-7.66-50.7-9.05-31.52-14.96-63.67-17.14-96.44-.57-8.6-.63-17.23-.73-25.85-.04-3.49-.82-6.64-2.49-9.69-5.67-10.4-11.71-20.63-16.75-31.32-14.01-29.72-11.21-58.49,6.04-86.11,2.24-3.59,5.01-6.74,8.93-8.62,6.28-3.01,11.48-.64,13.15,6.09,3.17,12.77,6.03,25.59,5.4,38.91.24,0,.49,0,.73,0ZM283.13,194.53c.21-.04.42-.08.63-.12.07-.85.14-1.69.19-2.54.59-9.81,1.13-19.62,1.79-29.43,1.2-17.79,2.06-35.56-1.13-53.25-.13-.74-.3-1.48-.57-2.8-3.67,3.5-6.18,7.09-7.49,11.37-1.65,5.39-3.39,10.79-4.41,16.32-.91,4.95-1.35,10.08-1.2,15.1.45,15.56,5.57,30,11.46,44.19.17.42.48.78.73,1.16Z" style="fill: #000; stroke-width: 0px;"/>
  <path d="M716.82,158.07c.78,24.34-10.43,43.12-27.06,59.57-16.97,16.8-34.97,32.44-53.11,47.93-7.83,6.68-15.98,13.01-24.17,19.27-3.51,2.68-7.46,4.77-11.23,7.1-.89.55-1.81,1.06-2.77,1.47-2.35.99-4.54.34-5.44-1.53-.87-1.81-.21-3.98,1.95-5.11,10.93-5.7,19.5-14.48,28.82-22.25,12.56-10.48,25.08-21.04,37.04-32.18,12.18-11.35,24.29-22.9,33.45-37.04,10.89-16.83,13.79-35.11,9.24-54.44-4.72-20.04-12.62-38.91-22.64-56.88-10.31-18.47-21.96-36.05-35.12-52.63-5.54-6.97-11.63-13.37-18.69-18.81-.7-.54-1.44-1.03-2.21-1.48-4.95-2.9-8.17-2.31-10.85,2.71-2.99,5.6-5.25,11.6-8.23,17.21-2.18,4.1-4.7,8.09-7.61,11.69-6.74,8.33-15.76,11.85-26.4,11.78-9.57-.06-18.9-1.83-28.29-3.38-4.67-.78-9.44-1.03-14.16-1.5-5.42-.54-9.8,1.75-12.76,5.94-3.04,4.31-5.68,9-7.81,13.82-4.99,11.27-9.55,22.73-14.38,34.07-.71,1.67-1.79,3.28-3.06,4.56-.69.7-2.32,1.12-3.2.78-.87-.33-1.79-1.73-1.86-2.72-.15-1.89-.02-3.92.55-5.72,1.48-4.68,3.06-9.35,4.95-13.87,2.62-6.24,5.51-12.36,8.38-18.5,3.45-7.4,8.34-13.79,14.29-19.33,3.84-3.58,8.53-5.77,13.8-5.58,9.4.33,18.79,1.32,28.19,1.63,5.85.19,11.77.07,17.56-.67,8.25-1.06,14.83-5.45,19.28-12.47,3.79-5.98,7.05-12.3,10.62-18.41,1.42-2.43,2.92-4.84,4.65-7.05,4.33-5.55,9.91-7.39,16.54-5,3.5,1.26,6.91,3.16,9.92,5.36,10.82,7.91,18.68,18.58,26.55,29.22,13.36,18.05,25.42,36.93,35.54,56.95,7.85,15.54,15.07,31.43,18.29,48.74,1.02,5.52,1.4,11.16,2.08,16.74-.21,0-.42,0-.63,0Z" style="fill: #000; stroke-width: 0px;"/>
  <path d="M.09,159.4c-.56-11.1,1.65-21.57,5.06-31.79,6.73-20.2,16.14-39.16,27.17-57.35,9.29-15.32,19.39-30.07,30.36-44.23,5.6-7.23,11.66-14.04,19.07-19.44,2.96-2.16,6.24-4.07,9.65-5.39,6.74-2.6,12.76-.96,16.96,4.86,3.43,4.74,6.16,10,9.15,15.05,1.56,2.63,2.99,5.34,4.53,7.99,6.07,10.38,15.35,15.46,27.15,15.68,6.5.12,13.01-.68,19.51-.99,6.67-.32,13.35-.77,20.02-.77,5.81,0,10.71,2.53,14.85,6.62,6.45,6.37,11.49,13.7,14.98,22.06,3.79,9.06,7.59,18.12,11.14,27.27.84,2.17.92,4.73.92,7.1,0,.94-1.01,2.37-1.89,2.69-.88.32-2.52-.12-3.19-.83-1.29-1.38-2.38-3.07-3.12-4.81-4.8-11.27-9.34-22.65-14.27-33.86-2-4.54-4.46-8.95-7.25-13.05-3.17-4.65-7.73-7.3-13.64-6.61-6.71.78-13.41,1.7-20.12,2.51-6.31.77-12.62,1.64-18.95,2.19-16.66,1.44-28.05-6.51-35.71-20.63-2.11-3.88-3.61-8.09-5.52-12.09-1.46-3.05-2.93-6.11-4.75-8.95-2.27-3.54-5.04-4.28-8.73-2.23-2.79,1.55-5.38,3.55-7.83,5.61-7.7,6.48-13.8,14.41-19.82,22.41-16.79,22.3-31.72,45.72-42.2,71.68-3.88,9.62-7.25,19.52-9.84,29.56-5.46,21.18-1.66,40.93,11.04,58.83,2.56,3.61,5.31,7.11,8.24,10.42,13.44,15.18,28.4,28.78,43.95,41.76,11.63,9.71,23.04,19.68,34.62,29.45,2.08,1.76,4.46,3.16,6.75,4.66,1.08.7,2.28,1.2,3.39,1.87,2.21,1.33,3.02,3.44,2.08,5.27-.95,1.86-3.16,2.57-5.46,1.45-2.24-1.09-4.33-2.48-6.48-3.74-11.46-6.71-21.63-15.1-31.57-23.86-18.08-15.93-36.69-31.28-53.46-48.63-5.35-5.54-10.35-11.52-14.8-17.8C3.63,187.37.08,173.76.09,159.4Z" style="fill: #000; stroke-width: 0px;"/>
  <path d="M476.97,519.77c.19,14.01.59,28.03.44,42.04-.05,4.84-.91,9.84-2.37,14.45-3.52,11.13-12.43,17.51-24.11,17.84-3.94.11-7.9-.05-11.84-.29-7.53-.46-8.43.18-9.01,7.59-1.61,20.68-9.61,39.1-20.02,56.66-.57.96-1.2,2.09-2.1,2.6-1.2.68-2.83,1.36-4.05,1.07-1.72-.4-1.97-2.27-1.51-3.84,1-3.39,1.99-6.81,3.3-10.09,3.84-9.57,8.14-18.97,11.66-28.65,2.64-7.25,4.35-14.84,6.51-22.26.34-1.16.74-2.31,1.24-3.4,1.72-3.76,4.65-5.45,8.8-5.61,5.22-.21,10.47-.49,15.63-1.27,8.25-1.25,12.87-5.85,14.45-14.1,1.73-9.04.98-18.13.28-27.22-1.88-24.52-3.47-49.06-1.38-73.65,1.42-16.71,5.74-32.66,13.17-47.73,7.81-15.85,16.87-30.98,25.76-46.24,5.66-9.71,10.09-20.13,15.08-30.24.53-1.08.96-2.23,1.61-3.24,1.22-1.88,3.34-2.54,5.02-1.6,1.97,1.1,2.25,2.94,1.56,4.82-.57,1.57-1.55,2.99-2.36,4.47-1.16,2.12-2.6,4.12-3.46,6.35-5.24,13.59-12.74,26.04-19.32,38.96-7.83,15.37-15.42,30.88-19.47,47.81-3.37,14.1-5.15,28.39-4.98,42.88.12,10.63.46,21.27.71,31.9.25,0,.51,0,.76-.01Z" style="fill: #000; stroke-width: 0px;"/>
  <path d="M240.12,518.35c1.33-16.41,2.05-32.83.49-49.26-1.81-19.06-6.73-37.26-15.19-54.42-7.02-14.23-14.44-28.27-21.6-42.43-1.63-3.23-2.88-6.65-4.45-9.92-1.77-3.7-3.71-7.31-5.55-10.98-.79-1.57-1.72-3.12-2.19-4.8-.47-1.68.18-3.24,1.9-4,1.66-.74,3.25-.38,4.35,1.04.83,1.06,1.53,2.29,2,3.56,5.05,13.6,12.54,25.92,19.75,38.41,7.77,13.46,15.46,27,22.38,40.91,9.1,18.27,12.34,38.02,12.89,58.32.57,20.99-.79,41.87-2.31,62.78-.49,6.73-.39,13.52-.26,20.27.05,2.61.71,5.29,1.52,7.79,1.86,5.72,5.77,9.59,11.77,10.61,5.38.91,10.86,1.48,16.31,1.66,5.72.19,8.69,1.88,10.53,7.33,1.16,3.43,2.32,6.89,3.12,10.41,3.1,13.7,8.88,26.39,14.38,39.2,1.65,3.84,2.96,7.83,4.27,11.8.65,1.95,1.05,4.18-1.38,5.25-2.35,1.03-3.92-.61-4.97-2.36-3.02-5.04-6.22-10.02-8.66-15.34-3.08-6.73-5.56-13.74-8.16-20.68-2.59-6.93-3.64-14.18-4.2-21.52-.61-8.05-1.39-8.6-9.47-8.16-4.81.26-9.72.55-14.47-.06-10.54-1.35-17.84-7.23-21.01-17.46-1.32-4.26-2.31-8.82-2.34-13.25-.1-14.9.3-29.8.51-44.7Z" style="fill: #000; stroke-width: 0px;"/>
  <path d="M169.98,845.89c.63-1.08,1.43-2.11,1.86-3.26,1.59-4.22,3.41-8.39,4.52-12.74,4.6-18,11.92-34.9,20.36-51.36,3.82-7.45,7.96-14.74,12.15-21.99,1.31-2.28,3.17-4.26,4.9-6.27,1.03-1.2,2.47-1.67,3.89-.63,1.42,1.03,1.34,2.51.61,3.91-.89,1.71-1.89,3.37-2.87,5.04-2.82,4.79-5.94,9.42-8.42,14.38-7.15,14.34-14.34,28.69-20.91,43.3-2.99,6.64-4.51,13.93-6.8,20.89-1.15,3.51-2.23,7.1-3.83,10.41-2.71,5.62-8.6,6.48-12.46,1.56-2.47-3.15-4.22-7.04-5.56-10.86-3.03-8.65-4.21-17.65-4.42-26.84-.66-28.74,3.45-56.95,9.82-84.82,8.56-37.42,15.79-75.08,22.46-112.86,2.77-15.71,6.29-31.3,8.84-47.05,1.67-10.31,2.28-20.8,3.23-31.23.15-1.63-.48-3.31-.66-4.98-.16-1.5-.39-3.02-.25-4.5.21-2.32,1.52-3.89,3.9-4.29,2.16-.36,4.3.81,5.11,3.17.64,1.87.96,3.91,1.09,5.9.7,11.39-.29,22.69-1.87,33.98-4.3,30.77-11.36,61-17.84,91.34-6.31,29.56-12.75,59.09-18.79,88.7-4.6,22.57-6.81,45.41-6.53,68.48.11,8.87,1.39,17.51,4.21,25.9.8,2.37,2.11,4.57,3.18,6.85.36-.04.71-.08,1.07-.12Z" style="fill: #000; stroke-width: 0px;"/>
  <path d="M547.97,846.04c1.03-2.11,2.31-4.15,3.06-6.36,2.86-8.37,4.23-16.99,4.38-25.86.44-25.93-2.65-51.49-7.98-76.79-8.03-38.16-16.24-76.29-24.55-114.4-4.83-22.14-8.99-44.4-11.63-66.9-.97-8.28-.65-16.72-.87-25.09-.03-1.2.17-2.41.39-3.6.68-3.63,2.88-5.67,5.71-5.36,2.73.3,4.96,3.09,4.2,6.59-3.05,14.1.28,27.83,2.69,41.42,7.09,39.98,14.8,79.86,22.55,119.73,4.13,21.27,9.15,42.37,13.21,63.66,3.92,20.56,5.5,41.38,4.64,62.32-.4,9.81-2.33,19.38-6.39,28.37-1.1,2.43-2.76,4.8-4.72,6.58-3.56,3.24-8.29,2.39-10.67-1.77-1.42-2.5-2.66-5.21-3.36-7.99-5.14-20.39-13.59-39.41-23.67-57.76-5.08-9.24-10.31-18.4-15.45-27.61-1.01-1.8-2.51-3.69-.27-5.6,1.39-1.19,3.3-.63,5.18,2.08,3.53,5.09,7.14,10.18,10.02,15.65,8.63,16.4,17,32.95,22.56,50.72,2.07,6.61,3.94,13.28,6.1,19.86.91,2.77,2.35,5.38,3.54,8.06.43.02.87.03,1.3.05Z" style="fill: #000; stroke-width: 0px;"/>
  <path d="M546.9,80.99c1.25,3.32,1.85,6.55,3.54,9.04,3.84,5.64,8.18,10.95,12.39,16.33,8.31,10.62,18.6,19.16,28.99,27.61,2.56,2.08,4.52,4.97,6.47,7.69,1.17,1.64,1.23,3.68-.04,5.47-1.34,1.89-3.44,2.43-5.39,1.73-3.07-1.1-6.41-2.17-8.83-4.2-6.27-5.28-12.59-10.65-17.99-16.78-7.86-8.94-15.19-18.39-22.25-27.98-5.88-8-8.23-17.23-6.99-27.22.35-2.87,1.25-5.42,4.2-6.54,3.12-1.19,5.65.16,7.92,2.2,3.66,3.27,7.21,6.67,11,9.78,1.51,1.24,3.44,2.19,5.34,2.74,12.44,3.57,25.09,5.87,38.07,6.17,3.5.08,6.3-1.06,8.51-3.71,1.86-2.23,3.67-4.49,5.54-6.71,5.05-6,11.87-6.9,17.88-1.83,3.85,3.25,7.55,6.88,10.56,10.9,8.52,11.36,16.24,23.28,21.96,36.34,3.9,8.91,6.45,18.15,6.3,28.08-.13,8.47-2.83,15.73-8.19,22.18-10.88,13.11-22.75,25.26-35.53,36.52-1.34,1.18-3.06,2.21-4.77,2.62-1.16.27-3.06-.29-3.81-1.17-.74-.88-1.02-2.93-.49-3.94,1.55-2.98,3.24-6.03,5.52-8.45,5.58-5.9,11.59-11.4,17.32-17.16,5.73-5.76,11.45-11.54,16.93-17.53,2.86-3.14,3.65-7.17,3.77-11.45.34-12.13-3.13-23.27-8.62-33.83-3.9-7.5-8.34-14.72-12.55-22.06-3.17-5.53-7.57-10-12.34-14.14-2.29-1.99-3.78-1.89-5.69.54-1.64,2.09-3.08,4.34-4.63,6.49-4.05,5.61-9.47,8.5-16.45,8.63-10.6.21-20.83-1.95-31.01-4.47-2.58-.64-5.13-1.39-7.71-2.05-6.04-1.55-11.44-4.32-16.11-8.47-.48-.43-.99-.82-1.5-1.2-.11-.08-.3-.04-1.34-.14Z" style="fill: #000; stroke-width: 0px;"/>
  <path d="M169.98,80.97c-4.91,2.93-8.89,6.23-13.47,7.87-13.54,4.85-27.5,8.05-41.99,8.56-8.72.31-15.25-3.2-19.89-10.49-.99-1.56-2.04-3.1-3.19-4.55-2.11-2.65-3.49-2.72-6.04-.53-4.86,4.18-9.21,8.79-12.42,14.39-5.8,10.13-12.31,19.89-16.39,30.92-2.93,7.92-4.79,16.02-4.51,24.57.14,4.28.92,8.33,3.8,11.45,5.73,6.2,11.77,12.1,17.68,18.14,6.3,6.44,12.65,12.83,18.83,19.38,1.4,1.48,2.48,3.45,3.14,5.38.43,1.25.36,3.34-.43,4.16-.88.92-2.95,1.39-4.26,1.07-1.69-.42-3.31-1.63-4.66-2.83-12.16-10.85-23.39-22.58-34.14-34.85-8.46-9.65-10.36-20.63-8.6-32.7,1.17-8.04,3.75-15.73,7.5-22.89,6.93-13.21,14.32-26.17,24.39-37.34,2.2-2.44,4.66-4.71,7.29-6.67,5.07-3.79,11.41-3.21,15.78,1.35,2.28,2.38,4.27,5.04,6.37,7.58,2.36,2.86,5.29,4.19,9.09,4.08,12.89-.37,25.53-2.44,37.8-6.26,3.47-1.08,6.57-3.66,9.55-5.93,2.48-1.89,4.5-4.38,6.81-6.5,2.24-2.05,4.79-3.41,7.92-2.19,3.04,1.18,3.92,3.83,4.25,6.77,1.14,10.08-1.44,19.25-7.23,27.43-10.59,14.96-21.95,29.29-35.96,41.27-2.85,2.44-6.15,4.41-9.43,6.25-3.45,1.95-7.08,1.55-8.73-.5-1.68-2.09-1.21-5.49,1.55-8.56,2.2-2.45,4.51-4.88,7.12-6.85,11.08-8.35,20.81-18.06,29.41-28.9,3.49-4.4,6.91-8.9,9.92-13.64,1.52-2.4,2.05-5.44,3.12-8.44Z" style="fill: #000; stroke-width: 0px;"/>
  <path d="M610.61,584.28c.19-.59.32-.8.31-1-.86-15.52-1.27-31.08-2.69-46.55-2.56-27.77-9.87-54.45-19.22-80.68-10.03-28.16-19.62-56.48-29.07-84.84-3.25-9.76-6.06-19.78-5.08-30.32.17-1.88.65-3.84,1.47-5.53,1.14-2.34,3.84-3.17,5.96-2.25,2.12.92,2.54,2.92,2.18,5.73-.43,3.3-.83,6.83-.15,10.02,1.99,9.37,4.05,18.77,6.93,27.89,7.94,25.12,16.18,50.15,24.56,75.13,5.23,15.59,10.58,31.13,14.17,47.21,5.01,22.46,8.93,45.08,8.64,68.2-.09,7.49-.64,14.97-1.09,22.45-.19,3.15-1.65,5.09-3.77,5.62-2.22.55-4.42-.56-6-3.49-2.29-4.25-4.22-8.7-6.52-12.95-11.36-20.94-24.51-40.7-39.3-59.39-7.94-10.04-15.97-20.09-22.99-30.76-5.1-7.75-8.67-16.52-12.81-24.88-.95-1.91-1-4.06,1.05-5.42,2.02-1.33,4.06-.54,5.42,1.08,2.43,2.88,5.05,5.76,6.75,9.07,7.62,14.84,17.26,28.36,27.05,41.75,14.22,19.43,26.42,40.09,37.93,61.18,1.81,3.32,3.3,6.81,4.95,10.22.37.76.79,1.49,1.33,2.51Z" style="fill: #000; stroke-width: 0px;"/>
  <path d="M106.5,583.76c.24-.39.52-.76.71-1.17,13.85-28.98,31.18-55.81,50.09-81.69,7.18-9.83,13.82-20.01,19.49-30.82,1.92-3.66,4.62-6.96,7.24-10.2.85-1.04,2.55-1.71,3.95-1.9,1.92-.27,3.45,1.53,3.34,3.58-.06,1.02-.37,2.07-.78,3.01-6.66,15.19-14.73,29.46-25.46,42.28-16.15,19.31-30.82,39.73-43.59,61.45-3.79,6.45-6.88,13.3-10.35,19.94-.97,1.85-1.94,3.75-3.27,5.34-2.68,3.21-6.8,2.29-8.08-1.68-.29-.91-.44-1.89-.52-2.84-2.19-25.88-.07-51.42,4.87-76.93,5.23-26.97,14.68-52.56,23.26-78.49,7.86-23.79,15.16-47.76,22.46-71.73,1.61-5.28,2.36-10.85,3.13-16.34.32-2.31-.22-4.78-.59-7.14-.35-2.19-.15-4.04,1.98-5.19,1.82-.98,4.38-.56,5.62,1.33.98,1.49,1.7,3.32,1.95,5.08.77,5.39.24,10.75-.91,16.08-3.56,16.52-9.34,32.34-14.86,48.25-8.76,25.28-17.95,50.42-26.03,75.91-9.06,28.59-13.18,58.08-13.43,88.1-.04,5.22-.44,10.44-.68,15.66.15.04.3.08.44.12Z" style="fill: #000; stroke-width: 0px;"/>
  <path d="M385.27,122.25c-.82,1.97-1.98,3.87-2.42,5.92-2.79,13.16-5.75,26.3-8.01,39.56-2.36,13.8-1.29,27.57,1.56,41.3,2.18,10.48,4.31,21.07,5.01,31.71.63,9.49-.72,19.11-1.24,28.66-.11,1.93-.46,3.84-.62,5.76-.15,1.75-.26,3.66-2.5,3.76-2.28.11-2.61-1.77-2.72-3.53-.41-6.91-1.02-13.83-1.14-20.75-.24-14.17-2.02-28.12-5.17-41.91-3.34-14.59-4.43-29.45-2.71-44.22,1.87-16.06,4.59-32.09,11.66-46.94.42-.87.82-1.75,1.26-2.61,2.86-5.54,7.58-6.9,12.84-3.5,5.03,3.24,7.74,8.01,7.75,13.98,0,4.25-.56,8.51-.91,12.76-1.44,17.27-.46,34.46,1.75,51.6.76,5.9,1.76,11.77,2.65,17.65.29,1.92-.2,3.58-1.95,4.57-2.03,1.15-4.3,1.07-5.85-.51-1.52-1.54-3.05-3.55-3.5-5.59-3.28-14.97-6.23-30.05-5.64-45.46.41-10.76,1.77-21.49,2.7-32.24.13-1.52.51-3.1.26-4.57-.31-1.86-1.14-3.64-1.74-5.45l-1.32.03Z" style="fill: #000; stroke-width: 0px;"/>
  <path d="M331.58,121.84c-2.69,2.29-3.23,4.57-2.94,7.08.7,6.16,1.55,12.3,2.21,18.47,1.73,16.3.94,32.51-2.06,48.62-.77,4.12-1.32,8.3-2.38,12.34-.62,2.33-1.77,4.68-3.24,6.6-1.59,2.07-4.68,2.28-6.61,1.08-1.93-1.2-2.11-3.04-1.6-6.01,1.12-6.5,2.02-13.04,2.78-19.6,2.12-18.37,3-36.76.56-55.2-.73-5.49-.54-11.04,3.24-15.66,1.21-1.48,2.6-2.91,4.18-3.95,5.34-3.55,9.95-2.18,13.02,3.42,5.64,10.28,7.75,21.61,10.28,32.86,4.68,20.82,4.29,41.62-.44,62.32-3.76,16.46-4.7,33.15-5.19,49.92-.12,4.02-.57,8.03-.92,12.04-.14,1.6-.84,2.89-2.66,2.81-1.7-.07-2.25-1.38-2.39-2.85-.7-7.37-1.41-14.75-2.04-22.13-1.28-14.92,1.64-29.42,4.91-43.8,4-17.63,3.91-35.14.12-52.73-2.04-9.45-3.96-18.93-6.09-28.36-.53-2.36-1.7-4.57-2.74-7.25Z" style="fill: #000; stroke-width: 0px;"/>
  <path d="M494.28,213.64c-.69,2.4-1.8,4.78-1.97,7.22-.3,4.24-.02,8.53.01,12.79,0,.88.32,1.98-.09,2.6-.77,1.17-1.87,2.73-3.01,2.89-1.13.16-2.56-1.09-3.68-1.96-.46-.36-.62-1.33-.63-2.02-.12-7.81-.51-15.63-.11-23.41.15-3.02,1.53-6.39,3.37-8.83,4.16-5.52,12.01-5.77,17.68-1.14,3.93,3.21,6.39,7.46,8.2,12.07,5.47,13.91,8,28.51,9.76,43.27,1.21,10.21,1.57,20.48-.53,30.58-4.54,21.82-20.2,40.18-44.44,44.61-6.76,1.23-13.39,1.66-20.16.84-1.74-.21-3.56-.49-3.76-2.65-.21-2.15,1.53-2.8,3.17-3.37,8.68-2.98,17.51-5.57,26.01-9,17.77-7.17,29.42-21.86,28.79-43.19-.59-19.96-5.16-38.91-14.59-56.6-.86-1.61-1.88-3.12-2.83-4.68l-1.18-.02Z" style="fill: #000; stroke-width: 0px;"/>
  <path d="M221.69,213.8c-.47.63-1,1.21-1.39,1.89-11.44,20.03-17.05,41.72-16.02,64.63.81,18,11.22,30.36,27.58,37.38,7.9,3.38,16.22,5.78,24.35,8.61,1.22.42,2.6.6,3.62,1.3.94.65,2.18,2,2.02,2.8-.2,1-1.6,2.38-2.62,2.51-4.06.51-8.24,1.14-12.27.72-9.57-1.01-18.93-3.02-27.29-8.28-16.92-10.64-25.6-26.26-26.97-45.84-1.49-21.44,2.48-42.24,9.17-62.52,1.32-4,3.48-7.81,5.78-11.36,2.63-4.07,6.49-6.72,11.57-6.98,5.36-.28,10.04,2.77,11.8,7.84.71,2.04,1.36,4.22,1.37,6.34.04,7.41-.12,14.82-.39,22.22-.1,2.88-1.93,4.5-4.2,4.3-2.2-.19-3.35-2.07-3.29-5.07.1-4.59.33-9.19.07-13.76-.13-2.28-1.23-4.51-1.88-6.77-.34.01-.68.02-1.01.04Z" style="fill: #000; stroke-width: 0px;"/>
  <path d="M384.12,538.9c.59-1.41,1.04-2.56,1.54-3.69,3.87-8.83,9.27-16.26,18.69-19.82,7.93-3,15.66-2.25,23.08,1.71,2.39,1.27,3.26,3.32,2.41,5.12-.79,1.69-2.65,2.03-5.32,1.3-2.55-.69-5.15-1.41-7.76-1.62-9.65-.78-16.29,3.81-20.73,12.09-4.53,8.46-6.27,17.6-6.19,27.05.12,15.38.63,30.76.87,46.14.06,3.7-.14,7.41-.51,11.09-.18,1.79-.73,3.69-1.64,5.23-2.08,3.52-6.42,3.55-8.4.01-1.39-2.49-2.56-5.24-3.14-8.02-1.9-8.98-3.45-18.03-5.19-27.04-2.09-10.83-2.59-21.7-1.53-32.7.59-6.15.29-12.39.82-18.56.49-5.67,1.31-11.34,2.5-16.9.41-1.91,2.24-3.61,3.68-5.17.48-.52,1.94-.64,2.63-.3.68.34,1.21,1.46,1.33,2.3.36,2.45.4,4.94.73,7.4.63,4.65,1.37,9.28,2.14,14.37ZM379.69,583.61c.21-.01.43-.02.64-.03v-17.89c-.21,0-.43,0-.64-.01v17.94Z" style="fill: #000; stroke-width: 0px;"/>
  <path d="M333.15,538.45c.81-7.06,1.6-14.13,2.48-21.19.11-.86.59-2.15,1.19-2.35.9-.3,2.28-.12,3.08.42,2.46,1.67,3.65,4.24,4.13,7.11,1.06,6.34,2.15,12.63,1.88,19.17-.25,5.92.57,11.89,1.06,17.83.76,9.3.09,18.51-1.6,27.66-1.74,9.42-3.46,18.85-5.45,28.22-.61,2.85-1.79,5.68-3.21,8.24-1.94,3.48-6.22,3.53-8.2.06-1.11-1.94-1.83-4.39-1.87-6.62-.14-8.77.12-17.54.11-26.32,0-12.72.14-25.44-.29-38.15-.22-6.55-2.45-12.77-5.59-18.61-5.5-10.23-14.15-14.12-26.25-11.15-.86.21-1.68.54-2.53.81-2.43.78-4.24.26-5.04-1.45-.82-1.74.05-3.65,2.26-4.98,10.13-6.06,24.06-4.27,32.85,4.25,4.36,4.23,7.33,9.36,9.61,14.93.3.73.62,1.45.93,2.18.15-.02.3-.05.45-.07ZM336.69,565.62v18.06c.2,0,.4,0,.61-.01.97-6.04.4-12.06-.61-18.04Z" style="fill: #000; stroke-width: 0px;"/>
  <path d="M329.89,723.89c.08-1.4.16-2.26.17-3.12.11-8.58-1.18-16.97-2.67-25.42-1.28-7.24-1.27-14.72-1.72-22.09-.11-1.72.62-3.27,2.59-3.53,1.95-.26,3.12,1.01,3.45,2.7.66,3.39.98,6.85,1.58,10.25.51,2.93,1.05,5.88,1.85,8.75,2.78,9.96,3.52,20.14,3.28,30.41-.06,2.49.46,4.28,2.85,5.79,3.81,2.4,4.83,6.47,4.82,10.77-.02,6.27-1.58,12.31-4.65,17.6-4.79,8.26-7.04,17.21-9.01,26.36-.73,3.37-1.9,6.67-3.12,9.9-1.58,4.18-4.8,6.19-8.52,5.66-3.61-.51-6.59-3.81-6.68-8.08-.06-2.7.2-5.55,1.05-8.08,1.33-3.95,3.1-7.77,5.02-11.48,2.18-4.22,4.9-8.16,7.02-12.4,1.19-2.39,2.02-5.11,2.3-7.75.47-4.39.25-8.85.53-13.27.16-2.52-.84-4.03-3.14-4.71-5.94-1.76-11.9-3.43-17.84-5.17-3.4-1-6.81-1.96-10.15-3.14-7.45-2.63-13.26-7.52-18.09-13.64-.83-1.05-1.52-2.31-1.93-3.58-.53-1.67-.02-3.22,1.58-4.17,1.62-.96,3.1-.49,4.44.65.3.26.6.56.79.91,4.88,9.28,13.4,13.38,22.95,15.69,6.87,1.66,13.87,2.76,21.25,4.19Z" style="fill: #000; stroke-width: 0px;"/>
  <path d="M387.04,723.66c2.65-.42,5.1-.72,7.52-1.2,5.29-1.05,10.57-2.16,15.85-3.29,6.25-1.35,11.39-4.82,16.23-8.76,1.33-1.08,2.22-2.72,3.25-4.14.61-.84,1-1.86,1.66-2.65,1.32-1.57,3.01-2.3,4.92-1.14,1.87,1.14,2.2,3.03,1.36,4.88-.69,1.51-1.78,2.86-2.83,4.18-6.68,8.44-15.82,12.67-25.98,15.23-5.93,1.49-11.84,3.09-17.67,4.92-4.31,1.35-4.49,1.79-4.4,6.23.35,18.41-.45,14.38,8.61,30.39,2.45,4.32,4.53,8.89,6.29,13.54.91,2.4,1.05,5.21,1.04,7.84-.02,4.3-2.8,7.57-6.48,8.23-3.7.66-7.24-1.17-8.64-5.4-2.12-6.41-3.57-13.04-5.52-19.5-1.22-4.05-2.79-8.01-4.31-11.96-1.97-5.1-4.38-10.05-5.96-15.26-.94-3.07-.93-6.52-.85-9.79.1-3.85,2.05-6.93,5.37-8.95,1.43-.86,1.92-1.94,1.95-3.55.18-8.61,0-17.23,1.85-25.75,1.69-7.78,2.94-15.66,4.39-23.49.12-.63.26-1.27.48-1.87.58-1.65,1.56-2.91,3.53-2.62,1.85.28,2.52,1.72,2.5,3.36-.05,7.56.35,15.16-1.58,22.6-2.16,8.32-2.9,16.82-2.78,25.4.01.78.11,1.56.18,2.56Z" style="fill: #000; stroke-width: 0px;"/>
  <path d="M123.54,229.65c-.12,4.76-.34,9.5,1.65,14.03,2.89,6.6,7.76,11.37,13.64,15.28,1.21.8,2.67,1.38,3.56,2.44.68.81,1.13,2.4.79,3.31-.24.64-2.24,1.3-3.01.95-8.63-3.85-16.73-8.3-21.05-17.48-4.04-8.59-3.88-17.48-2.6-26.52,3.21-22.68,14.22-41.74,27.93-59.47,6.36-8.23,13.13-16.07,21.65-22.29,7.36-5.39,15.07-8.74,24.33-6.32,7.75,2.03,13.89,6.13,16.38,14.18.62,2,.39,4.27.5,6.42.06,1.28-.06,2.56.02,3.83.13,2.05-.41,3.76-2.49,4.46-1.99.68-3.15-.59-4.52-1.92-3.43-3.33-6.76-7.02-10.81-9.41-4.38-2.59-9.44-1.11-14.08.45-5.76,1.92-10.63,5.45-15.14,9.34-16.15,13.94-28.08,30.84-34.35,51.34-1.7,5.55-2.07,11.5-3.06,17.27.22.04.44.07.66.11Z" style="fill: #000; stroke-width: 0px;"/>
  <path d="M601.18,231.43c.3,5.86-.92,11.37-3.37,16.67-3.02,6.53-8.07,10.95-14.28,14.23-1.99,1.05-3.98,2.13-6.01,3.1-1.48.71-3.08.95-4.01-.79-.92-1.74.27-2.81,1.55-3.82,3.95-3.14,8.14-6.05,11.73-9.57,4.75-4.65,6.52-10.63,6.74-17.32.77-23.75-9.65-42.98-24.33-60.38-6.01-7.13-12.65-13.77-20.78-18.68-4.92-2.97-10.13-4.85-15.96-4.9-3.67-.03-6.49,1.59-9,4.03-2.57,2.5-5.02,5.15-7.77,7.44-.92.77-2.9,1.25-3.83.77-1.09-.56-1.96-2.24-2.22-3.57-.39-2.01-.21-4.14-.18-6.22.1-6.2,2.95-11.07,7.9-14.5,8.82-6.13,18.35-7.33,27.71-1.68,5.6,3.38,11.03,7.44,15.56,12.14,13.69,14.19,24.86,30.25,32.8,48.37,4.83,11.02,7.3,22.66,7.74,34.68Z" style="fill: #000; stroke-width: 0px;"/>
  <path d="M519.83,713c-1.09-4.86-2.14-9.73-3.27-14.58-2.25-9.65-4.26-19.37-6.89-28.92-3.42-12.42-7.37-24.7-11.05-37.06-.97-3.24-1.79-6.53-2.65-9.8-.26-1.01-.47-2.05-.57-3.09-.35-3.44,1.22-5.93,3.89-6.24,2.54-.3,4.27,1.71,5.06,5.08,1.44,6.11,2.74,12.3,4.84,18.2,5.2,14.62,8.75,29.66,12.15,44.76,3.59,15.96,7.68,31.81,11.16,47.79.98,4.49.6,9.28.77,13.93.03.78-.23,1.6-.47,2.36-.63,2.03-1.9,3.42-4.16,3.39-2.38-.03-3.79-1.52-4.14-3.69-1.75-10.9-6.7-20.49-12.37-29.71-3.29-5.34-7.15-10.33-10.76-15.48-4.03-5.74-8.2-11.38-12.05-17.24-2.28-3.48-4.08-7.29-6.04-10.98-.74-1.38-.99-2.89.55-3.86,1.68-1.06,2.93-.05,3.85,1.33,9.88,14.81,22.07,27.97,31.14,43.36.15.25.39.46.59.68.14-.08.28-.15.42-.23Z" style="fill: #000; stroke-width: 0px;"/>
  <path d="M197.74,712.89c.24-.3.49-.6.71-.91,5.94-8.32,11.86-16.65,17.82-24.96,4.09-5.69,8.22-11.35,12.34-17.03.33-.46.57-1.16,1.01-1.32,1.09-.42,2.45-1.05,3.35-.7.61.24,1.14,2.18.83,3.04-.99,2.71-2.09,5.47-3.7,7.84-6.85,10.05-13.9,19.97-20.87,29.94-7.67,10.97-14.23,22.46-16.71,35.85-.51,2.75-2.07,4.19-4.22,4.21-2.18.02-4.2-1.58-4.32-4.37-.2-4.88-.64-9.94.37-14.64,3.64-16.93,8.25-33.66,11.7-50.63,3.53-17.35,9.2-34.05,14.13-50.98.99-3.4,1.76-6.86,2.55-10.31.71-3.13,2.51-4.88,4.94-4.63,2.48.26,4.45,2.68,3.85,5.75-1.04,5.36-2.24,10.75-3.98,15.92-8.39,24.86-14.1,50.42-19.97,75.94-.14.61-.19,1.23-.28,1.85l.46.14Z" style="fill: #000; stroke-width: 0px;"/>
  <path d="M567.82,458.91c-.22-.72-.4-1.44-.65-2.15-3.31-9.17-6.51-18.38-9.97-27.5-4.7-12.4-10.95-24.03-18.1-35.2-1.34-2.1-2.52-4.31-3.58-6.57-1.04-2.19-.46-4.29,1.22-5.38,1.68-1.1,3.79-.77,5.45.95.67.69,1.25,1.48,1.78,2.28,13.55,20.52,23.8,42.61,30.84,66.14,2.58,8.63,4.56,17.43,6.68,26.19.41,1.68.38,3.54.16,5.27-.26,2.08-1.58,3.54-3.76,3.87-2.07.31-3.7-.62-4.6-2.43-7.85-15.83-19.77-28.77-30.19-42.78-5.72-7.69-11.69-15.19-17.54-22.79-.29-.38-.74-.81-.74-1.22-.03-1.25.13-2.5.21-3.76,1.26.1,2.91-.28,3.7.37,3.2,2.68,6.46,5.41,9.11,8.61,9.46,11.41,18.68,23.02,28,34.55.49.6,1,1.19,1.5,1.78.16-.08.32-.17.48-.25Z" style="fill: #000; stroke-width: 0px;"/>
  <path d="M149.6,459.36c1.57-2.12,3.05-4.31,4.73-6.34,9.28-11.24,18.56-22.48,27.95-33.63,1.59-1.89,3.66-3.39,5.54-5.02,1.25-1.08,2.69-1.71,4.12-.44,1.35,1.21.85,2.65,0,3.94-1.15,1.75-2.31,3.5-3.58,5.16-11.92,15.53-23.97,30.96-35.74,46.59-3.22,4.28-5.72,9.12-8.41,13.79-1.51,2.63-3.26,3.88-5.48,3.38-2.24-.51-3.94-2.67-3.58-5.59.61-5.11,1.21-10.29,2.6-15.21,4.75-16.83,10.01-33.56,17.67-49.3,5.31-10.91,11.86-21.21,17.86-31.78.12-.21.27-.4.41-.6,1.92-2.65,4.32-3.52,6.36-2.3,2.04,1.22,2.41,3.63.83,6.65-1.19,2.28-2.53,4.48-3.88,6.67-7.01,11.33-13.28,23.03-17.87,35.57-3.15,8.62-6.25,17.27-9.36,25.91-.27.74-.47,1.5-.7,2.25.18.1.35.2.53.3Z" style="fill: #000; stroke-width: 0px;"/>
  <path d="M637.72,128.87c-6.34.83-9.58-2.97-12.35-7.13-5.19-7.79-3.73-5.83-12.59-5.62-.14,0-.27.15-.71.42.51.6.98,1.17,1.46,1.73,2.24,2.64,4.64,5.16,6.67,7.94,2.14,2.92,2.17,5.91.53,7.57-1.68,1.7-4.4,1.56-7.5-.69-6.37-4.61-11.28-10.58-15.06-17.4-2.63-4.75-.38-8.42,5.07-8.33,5.93.11,11.87.61,17.78,1.11,2.97.25,5.23,2.03,7.04,4.29,1.81,2.26,3.51,4.61,5.26,6.93,1.05,1.39,2.31,1.99,4.16,1.84,4.71-.38,6.88,1.64,7.04,6.4.31,9.14-2.22,17.56-6.99,25.25-4.25,6.84-8.81,13.48-13.3,20.16-.61.9-1.51,1.96-2.46,2.2-1.42.35-3.35.54-4.42-.17-.97-.64-1.62-2.65-1.44-3.92.23-1.65,1.27-3.27,2.24-4.71,4.68-6.94,9.69-13.66,14.08-20.78,2.24-3.64,3.53-7.89,5.01-11.95.52-1.44.32-3.14.48-5.15Z" style="fill: #000; stroke-width: 0px;"/>
  <path d="M105.27,116.2c-3.13-.17-5.63-.63-8.03-.32-1.26.16-2.53,1.52-3.46,2.62-1.91,2.27-3.49,4.82-5.41,7.09-1.9,2.24-4.36,3.59-7.43,3.35-1.55-.12-1.94.79-1.63,1.92,1.12,4.08,1.78,8.45,3.73,12.11,3.1,5.8,7.06,11.13,10.73,16.62,1.97,2.94,4.11,5.77,6.11,8.69.49.72.84,1.56,1.11,2.4.63,1.95.31,3.71-1.45,4.94-1.78,1.24-3.54.79-5.14-.42-.57-.43-1.11-.97-1.5-1.56-4.99-7.61-10.2-15.09-14.85-22.9-4.02-6.75-5.87-14.27-5.68-22.21.13-5.38,2.05-7.11,7.45-7.07,1.18,0,2.67-.7,3.48-1.57,1.8-1.94,3.26-4.18,4.85-6.32,2.68-3.62,6.22-5.33,10.78-5.4,4.89-.08,9.77-.76,14.66-.8,5.62-.05,7.84,3.53,5.1,8.48-3.77,6.82-8.7,12.79-15.11,17.35-2.99,2.13-5.71,2.25-7.33.67-1.67-1.63-1.66-4.66.45-7.57,1.98-2.73,4.31-5.2,6.49-7.78.51-.6,1.05-1.18,2.06-2.31Z" style="fill: #000; stroke-width: 0px;"/>
  <path d="M306.22,43.63c-3.05,1.33-5.98,2.15-8.4,3.75-10.94,7.24-22.8,13.12-32.72,21.87-2.44,2.16-4.59,4.67-6.73,7.14-1.29,1.48-2.65,2.47-4.59,1.63-1.9-.82-2.66-2.58-2.04-4.4.68-2.01,1.54-4.27,3.04-5.65,5.19-4.79,10.4-9.66,16.14-13.74,6.35-4.52,13.16-8.45,20.03-12.15,4.07-2.19,8.55-3.82,13.04-4.99,6.03-1.57,8.36.57,10.07,6.47,1.99,6.86,4.28,13.71,7.28,20.17,1.59,3.42,4.67,6.36,7.62,8.86,2.7,2.28,6.37,2.21,9.69,1.07,2.34-.8,4.49-2.15,6.73-3.24,1.48-.72,3.06-1.11,4.07.55,1.06,1.74.11,3.22-1.44,4.03-3.48,1.82-6.94,3.84-10.64,5.05-5.42,1.76-10.74.8-15.41-2.57-4.5-3.24-8.37-7.08-10.47-12.38-2.45-6.15-4.66-12.37-4.88-19.1-.02-.55-.17-1.09-.39-2.39Z" style="fill: #000; stroke-width: 0px;"/>
  <path d="M411.27,43.63c-1.41,5.98-2.5,11.23-3.89,16.4-1.68,6.22-5,11.43-9.98,15.64-6.43,5.44-13.46,6.61-21.16,3.32-2.58-1.1-5.01-2.57-7.43-4.01-1.51-.9-2.47-2.31-1.37-4.05,1.04-1.65,2.61-1.25,4.07-.49,1.57.82,3.13,1.67,4.69,2.5,3.96,2.09,10.54,1.89,14.41-2.41,2.96-3.3,5.55-6.67,6.93-10.9,1.95-5.96,3.94-11.91,5.82-17.89,1.12-3.57,2.97-5.14,6.67-5,1.75.07,3.56.32,5.21.88,3.2,1.08,6.47,2.14,9.42,3.73,11,5.92,21.81,12.22,31.33,20.41,2.9,2.5,5.43,5.49,7.79,8.51.95,1.22,1.47,3.16,1.35,4.7-.09,1.13-1.36,2.67-2.46,3.06-.97.35-2.96-.24-3.56-1.09-6.24-8.83-15.45-13.96-24.16-19.7-4.37-2.88-8.78-5.72-13.31-8.34-3.38-1.96-6.96-3.55-10.39-5.28Z" style="fill: #000; stroke-width: 0px;"/>
  <path d="M432.62,830.36c-.12-2.63-.07-5.29-.39-7.89-1.04-8.39-2.24-16.76-3.36-25.14-1.18-8.84-.94-17.67.21-26.49.15-1.18.43-2.4.9-3.49.95-2.22,2.99-3.19,5.09-2.61,2.06.57,2.98,2.17,2.87,4.68-.2,4.34-.71,8.71-.4,13.02.44,6,1.18,12.02,2.38,17.91,2.69,13.18,3.95,26.42,2.85,39.85-.08.96-.12,1.94-.31,2.88-1.03,5-6.01,6.85-9.97,3.63-1.23-1-2.17-2.36-3.19-3.6-3.78-4.59-7.55-9.19-11.31-13.8-.71-.87-1.67-1.68-2-2.69-.38-1.17-.72-2.93-.13-3.67.58-.73,2.67-1.08,3.55-.59,3.64,2,7.09,4.37,10.57,6.64.69.45,1.25,1.12,1.86,1.7.25-.11.51-.22.76-.34Z" style="fill: #000; stroke-width: 0px;"/>
  <path d="M284.56,830.62c3.22-2.3,6.09-4.45,9.07-6.43,1.33-.88,2.82-1.65,4.34-2.05.92-.24,2.51.02,2.98.66.56.77.6,2.3.24,3.27-.45,1.23-1.49,2.26-2.35,3.32-3.7,4.56-7.42,9.11-11.13,13.65-.92,1.12-1.76,2.32-2.8,3.32-1.81,1.73-4.01,2.44-6.46,1.61-2.48-.84-3.69-2.82-4.01-5.29-.3-2.31-.46-4.65-.55-6.98-.45-11.57.43-23.05,3.06-34.33,2.46-10.55,3.15-21.16,2.11-31.92-.25-2.59.72-4.15,2.77-4.71,2.18-.6,4.5.39,5.15,2.83.82,3.09,1.24,6.31,1.54,9.5,1.13,12-.84,23.78-2.52,35.59-.74,5.18-1.09,10.41-1.59,15.62-.07.69.08,1.41.14,2.36Z" style="fill: #000; stroke-width: 0px;"/>
  <path d="M498.78,263.2c-.32,2.18-.69,3.67-.72,5.16-.13,6.54.29,13,2.19,19.34.82,2.73,1.16,5.68,1.22,8.54.08,3.87-2.01,6.78-5.38,8.51-1.1.57-2.98.68-3.97.1-.84-.49-1.49-2.4-1.25-3.47.82-3.77.3-7.38-.68-10.97-2.64-9.65-1.9-19.36-.02-28.95,1.49-7.61,8.36-10.37,14.15-6.15,2.14,1.56,3.62,3.68,3.36,6.32-.15,1.47-1.06,3.21-2.19,4.16-1.44,1.22-3.2.43-4.59-.76-.52-.45-1.04-.9-2.11-1.84Z" style="fill: #000; stroke-width: 0px;"/>
  <path d="M218.01,263.34c-.95.82-1.46,1.58-2.14,1.77-1.45.42-3.27,1.17-4.39.63-1.13-.55-2.11-2.43-2.24-3.81-.35-3.77,2.72-7.2,6.82-8.19,4.03-.98,8.13.51,9.43,4.3,1.34,3.9,2.06,8.08,2.48,12.2.74,7.31.53,14.57-1.48,21.78-.79,2.83-.19,6.03-.44,9.04-.11,1.33-.37,3.24-1.24,3.75-1.02.61-3.01.45-4.17-.16-3.37-1.78-5.31-4.82-5.18-8.65.1-3.01.62-6.08,1.43-8.99,1.88-6.77,2.32-13.61,1.8-20.56-.07-.91-.39-1.79-.7-3.12Z" style="fill: #000; stroke-width: 0px;"/>
  <path d="M446.72,685.76c-1.13,3.43-2.05,6.56-3.19,9.6-.55,1.48-1.78,2.42-3.46,1.73-1.59-.66-1.46-2.09-1.2-3.52,1.8-9.93-1.59-17.82-9.43-23.98-1.17-.92-2-.67-2.89.32-1.97,2.23-4,4.41-5.93,6.67-1.35,1.57-2.84,2.85-4.98,1.79-2.03-1.01-2.02-2.97-1.53-4.85.96-3.65,1.87-7.32,3.11-10.87.59-1.7,1.69-3.32,2.88-4.7,4.18-4.83,11.03-4.13,14.2,1.39,3.11,5.43,6.33,10.82,9.1,16.43,1.53,3.09,2.21,6.6,3.3,10Z" style="fill: #000; stroke-width: 0px;"/>
  <path d="M270.9,685.74c-.16-3.82.97-7.31,2.83-10.6,2.96-5.25,5.92-10.5,8.9-15.74,3.11-5.46,10.02-6.53,13.95-1.65,2.34,2.9,3.62,6.73,5.06,10.27.78,1.9.94,4.07,1.31,6.13.32,1.79.04,3.46-1.81,4.3-1.85.84-3.27-.09-4.47-1.44-2.03-2.29-4.04-4.59-6.02-6.92-1.09-1.28-2.01-1.41-3.44-.28-7.89,6.24-10.88,14.23-9.23,24.13.16.98-.83,2.15-1.29,3.22-1.07-.5-2.76-.73-3.11-1.54-1.34-3.12-2.26-6.42-3.34-9.66.22-.07.43-.15.65-.22Z" style="fill: #000; stroke-width: 0px;"/>
</svg>