<?xml version="1.0" encoding="UTF-8"?>
<svg id="Layer_1" data-name="Layer 1" xmlns="http://www.w3.org/2000/svg" viewBox="0 0 606.51 900">
  <path d="M515.37,495.85c1.06.88,1.54,1.36,2.1,1.72,26.69,17,43,41.68,52.31,71.36,2.7,8.61,5.68,17.44,6.33,26.33,1.64,22.17-3.47,42.39-20.46,58.37-8.47,7.97-16.42,16.45-26.73,22.18-6.05,3.36-5.88,3.42-4.39,10.31,6.98,32.41,19.41,63,31.21,93.8,2.78,7.25,5.41,14.59,7.45,22.07,1.06,3.88,1.3,8.23.81,12.23-.75,6.11-4.22,7.73-10.24,6.95-9.65-1.25-19.37-2.32-29.08-2.76-23.02-1.04-46.06-1.65-69.09-2.45-4.33-.15-8.66-.4-12.98-.59-1.04-.04-2.09,0-3.66,0,.54,1.43.85,2.41,1.27,3.35,4.79,10.78,6.47,22.08,5.35,33.77-1.28,13.24-8.53,22.65-19.73,29.14-13.09,7.59-27.51,11.73-42.11,15.16-23.38,5.49-46.35,3.85-68.76-4.89-1.47-.57-2.88-1.27-4.3-1.96-4.73-2.28-9.49-2.4-14.26-.2-25.64,11.81-52.12,13.05-79.02,5.62-10.69-2.95-21.1-7-31.43-11.08-4.13-1.63-7.96-4.35-11.47-7.15-9.38-7.49-13.67-17.52-13.76-29.45-.08-10.18,1.49-20.01,5.78-29.33.35-.77.56-1.6.97-2.83-1.3-.07-2.23-.19-3.15-.16-26.47.94-52.95,1.71-79.41,2.95-11.39.54-22.73,2-34.08,3.2-3.04.32-5.17-.58-6.72-3.13-2.12-3.48-2.62-7.38-1.68-11.14,1.85-7.43,3.83-14.86,6.43-22.06,7.6-21.02,15.97-41.77,23.15-62.93,4.52-13.3,7.44-27.14,11.1-40.73.49-1.81-.04-2.97-1.76-3.82-14.91-7.37-26.09-19.24-36.93-31.35-8.51-9.52-11.64-21.49-13.55-33.82-1.64-10.59-.77-20.96,2.11-31.28,5.01-17.93,11.4-35.15,22.11-50.65,8.93-12.92,19.72-23.75,32.85-32.29.93-.61,1.81-1.3,2.5-2.64-.92-.1-1.84-.22-2.76-.29-13.82-1.14-27.52.23-41.27,1.49-4.59.42-9.47-.25-13.98-1.38-6.28-1.58-8.8-5.23-8.63-11.71.11-4.2.41-8.56,1.66-12.53,3.67-11.63,7.52-23.23,11.9-34.61,9.57-24.88,16.3-50.6,23.08-76.32.75-2.86,1.4-5.75,2.33-8.55.79-2.41.17-3.54-2.33-4.25-12.87-3.68-23.81-10.64-33.47-19.82-9.89-9.4-16.58-20.69-20.3-33.77-8.95-31.41-9.8-62.86,2.79-93.34,9.56-23.15,19.61-46.3,37.22-65.02,11.64-12.38,25.09-22.02,40.61-28.94,10.82-4.83,22.17-7.48,33.78-9.24,4.84-.73,9.74-1.13,14.62-1.53,1.77-.15,1.83-.89,1.53-2.33-2.32-11.08-4.78-22.14-6.82-33.27-2.53-13.78-2.07-27.64-.35-41.49.7-5.66,3.86-8.99,9.24-10.61,8.77-2.65,17.8-3.34,26.87-3.54,9.45-.21,18.91-.35,28.36-.05,15.79.5,31.48-.21,47.17-2,8.29-.95,16.7-.85,25.06-1.17,9.04-.35,18.13-.23,27.12-1.07,8.63-.81,17.1,0,25.63.71,3.72.31,7.48.6,11.21.47,15.29-.51,30.47.52,45.69,2.07,11.03,1.12,22.21.72,33.33.97,14.96.35,29.92.47,44.86,1.14,4.64.21,9.28,1.69,13.82,2.95,4.61,1.28,7.23,4.55,7.91,9.33,1.93,13.63,2.45,27.31.09,40.9-2,11.54-4.55,22.98-6.92,34.46-.32,1.53-.36,2.21,1.58,2.51,10.96,1.69,22.14,2.65,32.79,5.54,34.8,9.44,59.46,31.73,76.28,63.05,5.35,9.96,9.74,20.44,14.46,30.73,9.08,19.8,13.07,40.59,11.63,62.34-.82,12.31-2.73,24.48-6.25,36.33-7.83,26.37-25.62,43.19-50.86,52.8-1.1.42-2.23.82-3.38,1.06-2.12.43-2.64,1.5-2.09,3.6,8.74,33.25,17.38,66.51,30.65,98.36,3.17,7.6,5.16,15.7,7.38,23.66.86,3.09,1.09,6.42,1.13,9.64.12,8.22-3.26,12.37-11.51,13.27-5.52.6-11.21.7-16.72.11-12.28-1.31-24.55-1.75-36.86-.91-.55.04-1.1.19-2.35.41ZM41.82,476.8c3.2-.17,5.61-.21,8.01-.44,11.43-1.12,22.82-.84,34.17.86,5.26.79,10.53,1.47,15.79,2.3,16.34,2.57,32.97,3.98,48.93,8.05,25.16,6.41,49.9,14.53,74.75,22.14,3.37,1.03,6.5,3.15,9.43,5.2,1.07.75,2.03,3.05,1.64,4.13-.41,1.13-2.58,2.42-3.86,2.3-5.74-.53-11.64-.85-17.12-2.48-29.62-8.8-60.08-13.7-90.25-19.98-4.78-.99-9.35-.87-13.44,2.42-1.43,1.15-3.26,1.82-4.92,2.69-11.51,5.98-21.53,13.84-29.64,23.99-12.53,15.69-21.12,33.47-26.65,52.65-1.61,5.56-1.43,11.66-1.9,17.52-.13,1.57.36,3.19.57,4.79.76-.59,1.05-1.19,1.19-1.82,3.11-13.61,8.79-26.11,16.34-37.78,6.32-9.77,12.87-19.43,22.27-26.59,2.29-1.75,5.05-3.09,7.81-3.96,3.15-.99,6.04.75,6.95,3.44.89,2.63-.4,5.08-3.15,6.9-3.76,2.49-7.7,4.86-10.98,7.91-20.98,19.53-31,43.85-31.33,72.42-.08,6.64,4.17,10.15,8.65,14.82.21-1.79.41-2.8.44-3.8.38-16.09,4.12-31.4,10.84-45.98,3.87-8.39,8.79-16.13,16.05-22.02,2.71-2.2,5.85-4.03,9.07-5.39,1.37-.58,3.76.04,5.09.97.93.65,1.45,2.92,1.07,4.14-.44,1.41-1.85,2.79-3.19,3.61-7.71,4.7-13.58,11.11-17.63,19.07-9.43,18.52-12.03,38.15-8.82,58.59.21,1.32.62,2.9,1.5,3.78,4.18,4.2,9.28,7.05,15.24,9.92-.28-1.51-.33-2.36-.6-3.13-2.88-8.21-3.84-16.69-3.5-25.32.5-12.47,2.91-24.47,9.72-35.18,1.56-2.45,3.59-4.7,5.76-6.66,2.31-2.08,5.59-1.95,7.61-.21,2.02,1.73,2.45,4.46,1.1,7.29-.38.8-.92,1.51-1.36,2.28-1.99,3.51-4.34,6.86-5.89,10.56-7.18,17.12-5.87,34.25.63,51.24.74,1.94,1.79,4.53,3.38,5.21,3.48,1.49,7.4,1.94,11.14,2.81-.03-1.68-.42-2.55-.85-3.39-6.19-12.1-7.06-24.73-3.11-37.58,1.05-3.42,3.37-6.63,5.75-9.39,2.16-2.51,5.63-2.49,7.82-.89,2.17,1.58,2.93,4.31,1.63,7.48-6.25,15.25-4.22,30.12,2.06,44.75.6,1.4,2.25,2.55,3.67,3.36,1.95,1.11,4.29,1.53,6.2,2.68,3.91,2.35,4.08,6.19.09,8.37-7.98,4.38-16.22,8.41-25.8,5.89-7.7-2.02-15.36-4.25-23.03-6.41-1.3-.36-2.76-1.33-3.22.91-.49,2.38-.84,4.79-1.3,7.51,1.33.11,2.28.17,3.23.27,6.74.76,13.49,1.51,20.23,2.33,2.1.25,3.97,1.1,3.91,3.59-.06,2.49-1.96,3.27-4.07,3.41-7.74.52-15.5.95-23.24,1.47-.79.05-2.13.34-2.24.78-.97,3.74-1.72,7.53-2.58,11.53,1.25.05,1.83.09,2.4.1,11.51.21,23.03.29,34.53.7,5.01.18,10.02.85,14.96,1.71,1.25.22,3.04,2.01,3.08,3.12.03,1.13-1.76,2.36-2.84,3.45-.29.29-.93.24-1.41.34-16.58,3.63-33.3,4.91-50.2,2.93-2.11-.25-3.07.4-3.51,2.45-.95,4.43-2.08,8.82-3.12,13.23-.81,3.41-.68,3.57,2.79,3.43,20.49-.87,40.96-.48,61.41,1.16.78.06,1.77-.09,2.3.32,1.14.87,2.81,2.02,2.86,3.11.05,1.11-1.5,2.4-2.56,3.38-.5.47-1.48.42-2.25.6-16.42,3.69-33.06,5.21-49.87,4.73-5.31-.15-10.62-.62-15.93-.71-1.12-.02-2.92.68-3.25,1.52-1.27,3.19-2.16,6.54-2.95,9.89-.13.57.8,1.7,1.5,2.06.7.36,1.73.08,2.62.08,24.42.17,48.85.32,73.27.52,2.16.02,4.4,0,6.45.54,1.03.27,2.25,1.72,2.4,2.78.12.87-1.06,2.12-1.95,2.86-.59.5-1.67.47-2.54.59-26.43,3.56-53.01,3.95-79.62,3.87-7.99-.02-6.44-.5-8.97,6.38-1.1,2.99-.77,3.45,2.41,3.61,10.33.54,20.65,1.19,30.99,1.49,17.82.51,35.64.59,53.45,1.21,15.97.55,31.87-.07,47.82-.79,12.13-.55,24.35.88,36.53,1.53,2.34.13,3.9,2.16,2.89,3.76-1.66,2.62-2.79,5.92-6.73,6.34-10.27,1.08-20.51,2.37-30.78,3.4-5.58.56-11.2.78-16.8,1.14-2.19.14-2.7,1.17-1.3,2.8,1.78,2.08,3.56,4.25,5.68,5.95,6.35,5.09,13.8,7.88,21.65,9.72,10.1,2.38,20.32,2.19,30.57,1.47,2.1-.15,4.19.07,4.48,2.66.27,2.41-1.59,3.27-3.57,3.47-9.58.94-19.18,2.55-28.77,2.47-13.92-.12-27.15-3.47-38.18-12.78-.19-.16-.55-.13-1.58-.35,0,3.67-.05,7.16.05,10.64.02.56.61,1.29,1.13,1.62,4.57,2.89,9.01,6.07,13.83,8.48,13.16,6.57,27.24,7.46,41.54,5.59,6.43-.84,12.75-2.48,19.12-3.73,1.87-.37,3.68-.24,4.37,1.92.62,1.97-.55,3.22-2.22,3.96-17.65,7.91-35.83,12.65-55.38,9.35-.81-.14-1.63-.16-2.45-.24.86,1.2,1.89,1.85,3,2.35,9.13,4.11,18.68,6.91,28.59,8.14,4.14.51,8.51.53,12.6-.22,14.96-2.73,29.09-7.76,41.82-16.3.33-.22.66-.43,1-.63,1.68-.95,3.69-1.49,4.65.44.57,1.13.2,3.32-.6,4.41-1.56,2.11-3.74,3.76-5.63,5.63-.69.68-1.3,1.45-1.94,2.18.13.27.25.53.38.8,15.41-5.07,30.86-4.91,46.35-.42-2.36-2.88-4.72-5.33-7.08-7.79-1.41-1.47-2.3-3.16-.8-4.97,1.41-1.7,3.16-1.15,4.8-.17.51.3,1,.63,1.5.95,12.98,8.53,27.37,13.39,42.52,16.16,2.87.52,5.92.66,8.82.32,11.03-1.27,21.64-4.17,31.75-8.8.88-.4,1.67-1,3.07-1.86-1.13-.14-1.42-.25-1.69-.2-19.7,3.64-38.14-.84-56.04-8.74-.63-.28-1.5-.47-1.78-.97-.6-1.11-1.42-2.53-1.15-3.55.22-.83,1.87-1.75,2.93-1.8,1.62-.07,3.28.52,4.9.92,13.61,3.33,27.29,4.75,41.29,2.52,11.29-1.8,20.56-7.64,29.75-13.78.45-.3,1.01-.89,1.02-1.35.09-3.55.05-7.1.05-11.27-1.41.83-1.96,1.05-2.39,1.42-4.87,4.19-10.53,6.87-16.6,8.78-13.85,4.35-27.93,4.34-42.11,2.17-2.92-.45-5.89-.8-8.68-1.68-1.05-.33-2.36-2.15-2.24-3.14.12-.98,1.79-1.94,2.97-2.55.68-.35,1.73.02,2.62.04,5.51.09,11.04.43,16.53.19,10.36-.46,20.39-2.67,29.33-8.08,3.96-2.4,7.39-5.79,10.7-9.09,1.88-1.87,1.3-2.83-1.33-3.07-3.04-.28-6.09-.43-9.13-.7-11.66-1.04-23.32-2.09-34.98-3.16-3.84-.36-7.36-1.41-9.09-5.34-.48-1.09-1.29-2.59-.89-3.37.5-.99,2.04-1.97,3.19-2.04,14.81-.91,29.59-3.34,44.49-1.09,3.58.54,7.27.58,10.91.54,14.47-.16,28.94-.33,43.41-.71,22.34-.58,44.69-1.26,67.03-2.03,6.66-.23,6.55.42,4.34-6.41-.9-2.78-2.3-3.83-5.3-3.83-13.69,0-27.39.13-41.06-.52-14.05-.66-28.07-2.15-42.1-3.31-2.08-.17-4.14-.79-4.12-3.32.02-2.78,2.28-3.07,4.45-3.19.39-.02.79-.05,1.18-.05,18.41-.27,36.83-.58,55.24-.78,7.48-.08,14.97.09,22.45.14,3.73.03,3.93-.25,2.82-3.91-.6-1.98-1.39-3.93-1.72-5.96-.53-3.18-2.06-4.03-5.29-3.76-21.72,1.82-43.3.9-64.63-3.92-2.39-.54-5.38-.75-5.11-4.12.26-3.34,3.25-3.15,5.69-3.34,20.55-1.62,41.11-2.06,61.7-1.06,2.31.11,3.06-.56,2.46-2.88-1.21-4.67-2.34-9.37-3.39-14.08-.44-1.97-1.49-2.46-3.4-2.22-11.7,1.48-23.4,1.16-35.07-.32-5.56-.71-11.07-1.87-16.58-2.92-1.89-.36-3.63-1.56-3.09-3.58.34-1.26,2.06-2.21,3.27-3.16.4-.32,1.14-.22,1.73-.29,15.87-1.87,31.77-2.96,47.76-2.03.64.04,1.29-.13,2.3-.25-.77-3.77-1.39-7.35-2.31-10.84-.16-.62-1.57-1.23-2.44-1.3-7.74-.56-15.49-.96-23.24-1.48-2.1-.14-4.04-.9-4.15-3.36-.11-2.69,1.96-3.43,4.13-3.69,6.74-.81,13.49-1.54,20.23-2.3.92-.1,1.84-.21,3.01-.35-.36-2.29-.75-4.21-.94-6.15-.25-2.61-1.36-2.83-3.75-2.11-7.62,2.31-15.3,4.46-23.03,6.38-9.68,2.41-17.98-1.75-26.01-6.27-3.41-1.92-3.33-5.5-.04-7.65,2.1-1.37,4.7-1.95,6.96-3.12,1.22-.63,2.7-1.53,3.21-2.68,6.47-14.65,8.78-29.58,2.52-44.99-1.42-3.49-.71-6.4,1.64-7.98,2.27-1.53,5.82-1.36,8.07,1.28,2.24,2.63,4.36,5.73,5.34,8.98,3.97,13.17,3.17,26.07-3.48,38.36-.35.65-.58,1.37-1.21,2.9,3.91-.86,7.19-1.33,10.29-2.37,1.47-.49,3.13-1.81,3.77-3.19,5.51-11.88,7.47-24.4,6.19-37.44-1.01-10.27-4.93-19.38-10.75-27.8-2.36-3.42-2.09-6.88.29-8.83,2.36-1.93,6.03-1.63,8.76,1.29,2.32,2.5,4.56,5.26,6.09,8.28,9.23,18.35,10.63,37.45,4.95,57.13-.31,1.07-.54,2.16-.81,3.23.23.21.46.42.69.63,3.41-2.05,6.78-4.15,10.23-6.13,3.92-2.24,5.69-5.58,6.26-10.04,1.9-14.92.53-29.5-4.1-43.77-4.28-13.2-11.13-24.56-23.54-31.77-.42-.24-.82-.56-1.16-.9-1.51-1.51-2.26-3.27-1.31-5.34,1.01-2.21,2.98-3.01,5.15-2.42,2.05.55,4.07,1.5,5.89,2.63,6.76,4.2,11.76,10.15,15.77,16.91,9.82,16.54,14.48,34.59,15.32,53.71.05,1.19.25,2.38.4,3.75,4.81-2.81,8.54-8.57,8.57-13.07.13-25.13-7.46-47.47-24.15-66.48-5.02-5.72-10.41-11.05-17.2-14.7-3.68-1.98-5.11-4.59-3.97-7.5,1.16-2.93,4.51-4.21,8.29-2.96,1.57.52,3.14,1.27,4.46,2.24,2.52,1.87,5.12,3.75,7.24,6.04,15.63,16.9,27.29,36.07,33.02,58.57.27,1.07.58,2.12.88,3.18.73-.62,1-1.16.98-1.69-.2-5.78.48-11.79-.89-17.29-2.07-8.36-5.11-16.56-8.55-24.48-10.63-24.52-26.19-44.6-50.72-57.1-6.94-3.54-13.19-4.64-20.5-2.99-28.81,6.5-58.09,10.83-86.44,19.43-5.45,1.65-11.39,1.83-17.13,2.31-1.15.1-3.02-1.27-3.48-2.4-.38-.94.45-2.96,1.38-3.74,2.07-1.74,4.39-3.41,6.89-4.36,4.49-1.72,9.19-2.92,13.81-4.3,11.41-3.41,22.99-6.36,34.22-10.3,23.94-8.42,48.64-12.91,73.73-16.11,20.04-2.56,39.95-6.05,60.26-3.4.62.08,1.28-.2,2.46-.4-1.13-3.79-2.22-7.33-3.22-10.89-.55-1.96-1.71-2.67-3.72-2.42-9.21,1.12-18.27-.15-27.31-1.77-2.13-.38-4.23-.93-4.45-3.52-.25-2.8,1.87-3.78,4.07-4.21,7.61-1.46,15.24-2.88,22.9-4.07,2.22-.35,2.99-.94,2.26-3.18-1.1-3.37-2.13-6.77-3.01-10.2-.6-2.3-1.88-2.9-4.12-2.56-14.98,2.27-30.02,2.39-45.09,1.19-2.45-.19-5.37,0-5.79-3.27-.42-3.27,2.47-3.84,4.77-4.65,13.47-4.72,27.3-7.68,41.59-8.14,2.75-.09,3.48-1.03,2.67-3.62-.76-2.44-1.26-4.96-1.84-7.46-.93-3.93-.91-3.92-4.93-3.15-18.38,3.5-36.93,4.47-55.59,3.65-2.11-.09-4.04-.6-4.46-3.01-.41-2.4,1.21-3.59,3.19-4.34,3.31-1.26,6.62-2.56,9.98-3.66,14.25-4.66,28.94-6.7,43.89-7.02,4.12-.09,4.15-.07,3.29-3.91-.95-4.23-2.03-8.43-2.91-12.67-.45-2.18-1.19-2.89-3.59-2.2-21.74,6.27-44.08,9.41-66.43,12.53-2.05.29-4.15.24-4.94-2.11-.84-2.52.87-3.88,2.9-4.74,6.53-2.75,12.96-5.81,19.67-8.03,14.53-4.79,29.67-6.02,44.85-6.85,1.33-.07,2.66-.29,3.97-.44.06-.61.17-.91.11-1.17-.4-1.73-.82-3.45-1.27-5.16-.96-3.69-.98-3.75-4.56-2.68-16.7,5.01-33.83,7.42-51.19,8.42-2.43.14-4.9-.14-7.32-.47-1.88-.25-4.12-.93-3.92-3.19.13-1.43,1.47-3.17,2.76-3.98,2.36-1.48,5.08-2.37,7.93-3.64-1.41-1.84-2.97-3.4-3.89-5.27-.54-1.1-.55-3.13.14-3.97.68-.83,2.67-1.15,3.87-.85,1.76.45,3.5,1.43,4.94,2.58,5.8,4.63,12.22,5.36,19.19,3.55,1.52-.39,3.11-.49,4.66-.79.91-.18,1.81-.48,2.71-.72l.53-.93c-1.69-1.45-3.46-2.83-5.06-4.37-1.43-1.38-2.34-3.12-1.05-5.01,1.39-2.04,3.35-1.64,5.29-.79,3.79,1.66,7.48,3.6,11.4,4.88,2.51.82,5.55,1.45,7.99.82,5.87-1.54,11.55-3.85,17.28-5.92.81-.29,1.46-.99,2-1.37-3.59-2.31-6.92-4.36-10.14-6.58-1.85-1.28-3.43-2.99-2.32-5.47,1.05-2.36,3.25-2.05,5.38-1.89,4.7.36,9.43.98,14.12.79,10.77-.44,11.28-.88,17.44-9.77,1.3-1.87,2.44-3.86,3.29-5.2-4.87-1.76-9.38-3.24-13.76-5.03-1.94-.79-3.74-2.28-2.89-4.8.87-2.57,3.11-2.34,5.22-1.95,5.47.99,10.81.82,15.83-1.84,1.11-.59,2.6-1.28,2.97-2.27,1.88-5.09,3.44-10.29,5.12-15.46-.31-.21-.62-.42-.93-.63-.91.24-1.81.66-2.72.7-3.6.16-7.22.39-10.82.21-2.08-.1-4.27-.93-4.26-3.61,0-2.7,2.24-2.98,4.27-3.63,4.47-1.43,8.9-3.04,13.28-4.73,2.12-.82,3.09-2.58,3.09-4.91,0-5.02.1-10.04.11-15.06,0-.82-.26-1.64-.47-2.84-1.35.64-2.25,1.29-3.25,1.52-3.03.71-6.08,1.47-9.16,1.82-2,.23-4.07-.43-4.62-2.79-.56-2.4,1.07-3.56,2.99-4.44,4.94-2.28,8.36-6.23,11.04-10.77.81-1.38,1.08-3.45.78-5.05-1.03-5.31-2.41-10.56-3.7-15.81-.15-.6-.59-1.13-.89-1.69-.36-.26-.72-.51-1.08-.77-.6,1.02-1.03,2.22-1.83,3.04-3.55,3.65-7.91,5.8-12.95,6.52-2.14.3-4.34.39-5.17-2.15-.77-2.39.94-3.57,2.76-4.58,6.44-3.6,9.95-9.36,11.79-16.28,1.17-4.41-1.54-7.55-3.38-11.27-2.02,1.53-3.49,2.86-5.16,3.84-1.77,1.04-3.7,1.83-5.62,2.58-2.01.78-4.15,1.2-5.59-.95-1.36-2.05-.09-3.71,1.22-5.28,1.26-1.52,2.54-3.02,3.65-4.64,4.36-6.33,4.26-8.2-.82-13.85-2.46-2.73-5.06-5.33-7.63-8.02-1.6,3.88-2.77,7.35-4.5,10.51-.62,1.13-2.85,2.29-3.92,1.98-1.09-.31-1.72-2.4-2.43-3.77-.2-.37.06-.97.05-1.46-.12-4.91-.25-9.83-.4-14.74-.16-5.1-2.16-9.06-6.85-11.53-2.69-1.42-5.19-3.2-7.82-4.76-.6-.36-1.35-.47-2.15-.74-.18,3.77-.28,7.19-.53,10.6-.14,1.92-1.01,3.5-3.14,3.71-2.12.2-3.19-1.21-3.8-3.04-.9-2.71-1.73-5.45-2.71-8.13q-3.74-10.26-14.28-12.94c-1.92-.49-3.87-.85-6.07-1.33.44,4,.86,7.3,1.16,10.61.18,1.98-.14,3.91-2.46,4.42-2.27.5-3.33-1.05-4.21-2.87-1.41-2.92-2.76-5.9-4.5-8.63-3.82-5.98-11.47-8.44-18.74-6.13.27.71.55,1.4.79,2.11,1.26,3.72,2.61,7.41,3.73,11.17.63,2.11,1,4.55-1.65,5.59-2.74,1.07-3.59-1.32-4.9-3.07-3.29-4.38-6.55-8.84-10.31-12.8-3.57-3.76-12.47-4.11-16.91-1.44,3.03,4.43,6.15,8.81,9.06,13.33,1.29,2,3.19,4.51.51,6.56-2.76,2.11-4.46-.57-6.07-2.34-5.24-5.76-11.2-10.49-18.43-13.52-3.91-1.64-7.41.06-10.71,1.68-2.51,1.23-1.6,3.92-1.35,6.15.04.39,0,.79-.06,1.18-1.24,8.28-.61,16.52.61,24.72,1.82,12.2-.35,23.53-7.27,33.8-3.35,4.98-6.9,9.84-10.52,14.62-18.15,23.92-36.84,47.25-63.69,62.36-8.29,4.67-17,6.76-26.31,6.09-8.04-.57-15.41-3.12-22.36-7.63-9.7-6.29-19.47-12.49-27.29-21.04-10.03-10.96-19.75-22.22-29.17-33.71-5.98-7.3-11.66-14.94-16.52-23.01-3.08-5.1-5.28-11.1-6.3-16.98-.94-5.39.24-11.16.48-16.76.26-5.99.57-11.99.74-17.98.08-2.83.02-5.68-.25-8.49-.11-1.16-.69-2.87-1.54-3.26-3.62-1.66-7.26-3.41-11.53-1.47-7.42,3.39-13.49,8.42-18.86,14.43-1.32,1.47-2.92,2.65-4.88,1.27-1.93-1.36-1.59-3.32-.5-5,2.73-4.2,5.59-8.31,8.44-12.43.58-.85,1.35-1.57,2.65-3.05-4.06-.46-7.33-1.13-10.58-1.1-2,.02-4.33.66-5.92,1.83-5.06,3.71-9.04,8.46-11.93,14.08-.98,1.91-2.14,3.92-4.67,3.04-2.67-.93-2.46-3.34-1.8-5.5,1.14-3.75,2.47-7.45,3.73-11.17.27-.78.6-1.55,1-2.59-2.74,0-5.07.15-7.38-.03-5.53-.42-9.2,2.27-11.74,6.83-1.63,2.92-2.87,6.07-4.7,8.85-.75,1.14-2.65,2.22-3.9,2.1-.91-.09-2.22-2.2-2.27-3.44-.1-2.72.5-5.47.8-8.2.1-.91.17-1.82.32-3.35-4.16,1.1-7.72,2.17-11.35,2.96-3.54.77-5.69,2.81-6.86,6.18-1.58,4.56-3.29,9.07-4.96,13.59-.67,1.81-1.9,3.46-3.87,2.75-1.26-.46-2.27-2.14-2.95-3.49-.49-.98-.32-2.32-.35-3.5-.04-2.31-.01-4.61-.01-7.78-3.07,1.82-5.39,3.43-7.9,4.63-6.63,3.17-9.45,8.49-9.39,15.64.04,4.52.16,9.06-.15,13.56-.09,1.37-1.28,3.44-2.37,3.76-1.08.31-2.9-.96-4-1.97-.87-.8-1.24-2.21-1.69-3.41-.84-2.25-1.58-4.55-2.58-7.46-3.4,3.7-6.34,7.11-9.51,10.29-2.48,2.48-2.87,5.16-1.15,8,1.99,3.26,4.44,6.24,6.37,9.54.68,1.16,1.01,3.28.39,4.24-.61.95-2.61,1.24-4.04,1.37-.99.09-2.13-.44-3.06-.96-2.97-1.66-5.87-3.45-9.13-5.37-2.09,3.69-4.63,7.21-2.98,12.11,2.2,6.48,5.62,11.9,11.82,15.24,1.77.95,3.14,2.32,2.32,4.51-.81,2.17-2.76,2.29-4.72,2.04-5.27-.66-9.76-2.92-13.5-6.7-.79-.79-1.63-1.53-3.12-2.92-1.53,6.51-3.09,12.19-4.08,17.96-.34,2,.25,4.56,1.31,6.33,2.6,4.35,6.15,7.84,10.83,10.18,1.19.59,2.6,2.79,2.3,3.79-.37,1.27-2.4,2.96-3.65,2.91-3.46-.16-6.88-1.09-10.3-1.82-.89-.19-1.7-.76-2.94-1.34-.17,1.41-.39,2.36-.39,3.3.02,4.73.16,9.45.13,14.18-.02,2.68.98,4.68,3.48,5.59,4.5,1.65,9.06,3.17,13.62,4.65,1.8.58,3.45,1.24,3.5,3.41.05,2.18-1.5,3.33-3.37,3.44-3.88.21-7.78.11-11.68.05-.91-.01-1.82-.36-3.62-.75,1.41,5,2.36,9.41,3.97,13.56.73,1.9,2.48,3.79,4.26,4.84,5.11,2.99,10.74,2.73,16.39,1.72,1.87-.34,3.97-.08,4.26,2.03.18,1.31-.7,3.31-1.77,4.14-3.47,2.7-7.5,4.29-11.98,4.49-.9.04-1.8.2-2.7.31-.18.29-.37.59-.55.88,3.41,4.4,6.78,8.82,10.26,13.16.42.53,1.36.76,2.11.88,7.63,1.27,15.27,1.55,22.93.21,2.11-.37,4.31-.53,5.41,1.8,1.17,2.48-.41,4.21-2.23,5.49-3.26,2.28-6.66,4.36-10.11,6.6.28.23.65.74,1.14.92,6.29,2.24,12.52,4.67,18.93,6.5,2.06.59,4.71-.05,6.85-.8,3.89-1.37,7.6-3.24,11.38-4.92,1.89-.84,3.87-1.48,5.38.46,1.61,2.08.46,3.89-1.05,5.49-1.45,1.53-2.93,3.04-4.39,4.56.06.36.12.71.18,1.07,6.01.61,12.01,1.3,18.03,1.75,1.03.08,2.18-.81,3.2-1.38,3.09-1.73,6.14-3.54,9.23-5.28,1.68-.94,3.42-1.24,4.84.4,1.41,1.63.85,3.31-.3,4.85-1.1,1.46-2.24,2.89-3.41,4.4,3.2,1.54,6.18,2.77,8.9,4.42.95.58,1.84,2.31,1.68,3.36-.15,1.05-1.5,2.44-2.58,2.73-2.43.65-5.06,1.15-7.54.93-9.71-.85-19.44-1.63-29.05-3.17-8.04-1.29-15.91-3.66-23.89-5.41-.99-.22-2.92.15-3.14.73-.99,2.6-1.53,5.38-2.33,8.53,5.3.37,10.09.68,14.87,1.03,18.74,1.38,36.85,5.14,53.66,13.96,2.01,1.06,4.04,2.18,3.24,4.87-.77,2.57-3.03,2.46-5.16,2.16-22.34-3.15-44.67-6.33-66.42-12.57-2.1-.6-2.84-.02-3.26,1.93-.96,4.43-2.07,8.82-3.06,13.24-.79,3.51-.67,3.6,3.02,3.67,13.55.24,26.93,1.85,39.95,5.71,4.99,1.48,9.93,3.26,14.71,5.32,1.25.54,2.67,2.77,2.47,3.96-.2,1.18-2.32,2.09-3.68,2.97-.43.28-1.16.1-1.75.12-18.57.73-37.02-.29-55.27-3.94-2.46-.49-3.41.26-3.81,2.6-.45,2.62-1.18,5.18-1.81,7.77-.93,3.81-.89,3.91,2.89,4.07,11.98.5,23.67,2.62,35.11,6.19,2.82.88,5.73,1.64,8.32,2.99,1.17.61,2.34,2.58,2.24,3.83-.08,1.03-1.97,2.01-3.19,2.83-.5.34-1.34.17-2.03.23-15.17,1.23-30.31,1.08-45.38-1.18-2.3-.35-3.5.4-4.07,2.65-.72,2.86-1.63,5.68-2.48,8.51-1.38,4.58-1.33,4.16,3.32,4.86,7.47,1.11,14.87,2.72,22.24,4.41,1.2.28,2.4,1.92,2.95,3.21.29.7-.61,2.18-1.34,2.95-.61.64-1.73.9-2.68,1.07-9.03,1.7-18.09,2.85-27.31,1.97-1.1-.11-3.02.37-3.29,1.06-1.49,3.9-2.6,7.95-4.05,12.65ZM284.45,238.52c.31-.18.63-.37.94-.55.09-.94.18-1.88.28-2.82.88-7.92,1.69-15.84,2.67-23.75,1.03-8.3,3.13-16.57,3.13-24.85,0-11.58-1.24-23.18-2.45-34.72-1.39-13.21-2.45-26.55-5.24-39.49-3.78-17.54-6.01-35.11-5.83-53.02.11-11.42.21-22.85.44-34.27.05-2.51-.63-3.68-3.29-3.55-2.55.13-5.12.04-7.68-.03-2.1-.06-2.69.86-2.5,2.91,1.66,18.63,3.18,37.28,4.85,55.92,2.23,24.92,4.73,49.81,3.91,74.89-.28,8.55,0,17.13.31,25.69.51,13.87,1.79,27.75-1.57,41.47-.32,1.32-.41,2.75-.3,4.11.09,1.13.27,2.64,1.01,3.26,3.66,3.07,7.53,5.9,11.32,8.81ZM321.3,238.85c2.49-1.67,4.32-3.13,6.34-4.21,6.21-3.34,7.91-8.22,6.2-15-2.03-8.05-2.38-16.3-1.94-24.64.63-11.99.73-24.01,1.05-36.01.46-17.02.31-34.08,1.49-51.05,1.93-27.89,4.71-55.72,7.18-83.57.18-2.07-.45-2.95-2.53-2.9-2.66.07-5.32.14-7.97.05-2.38-.08-2.99,1-2.95,3.24.2,12.11.36,24.22.39,36.33.03,14.41-.86,28.72-4.04,42.85-1.75,7.77-3.45,15.6-4.44,23.49-1.78,14.16-2.92,28.4-4.5,42.59-1.31,11.75-.68,23.34,1.33,34.99,1.75,10.16,2.65,20.47,3.93,30.71.09.76.22,1.51.46,3.16ZM369.28,194.54c4.19-5.47,7.78-10.25,11.49-14.93,1.6-2.01,2.02-4.14,1.68-6.62-.75-5.46-1.56-10.93-2.02-16.42-1.87-22.16-1.73-44.28,2.16-66.25,1.39-7.85,3.56-15.56,4.84-23.42,1.95-11.95,3.21-24.01,5.19-35.94,1.45-8.73,1.76-8.68-7.24-7.88-.1,0-.23-.03-.29.02-.81.75-2.16,1.41-2.32,2.29-.74,4.06-1.19,8.18-1.69,12.28-1.85,15.39-4.62,30.57-9.62,45.3-1.13,3.33-2.09,6.87-2.24,10.35-.86,19.37-1.83,38.75-2,58.13-.12,13.57.95,27.16,1.5,40.73.02.45.2.9.55,2.37ZM236.67,193.76c.29-.16.57-.32.86-.48.08-.48.19-.95.23-1.43,1.92-26.55,1.56-53.12.82-79.69-.32-11.53-.69-23.04-4.95-34.02-1.31-3.38-2.27-6.96-2.89-10.53-2.14-12.31-4.04-24.67-6.07-37-1.26-7.7-1.29-7.62-9.06-7.83-2.58-.07-3.22.67-2.72,3.27,1.73,8.99,3.34,18,4.76,27.04,1.24,7.87,1.98,15.82,3.3,23.67,1.39,8.24,3.85,16.35,4.71,24.63,2.44,23.69,2.31,47.39-1.44,71-.24,1.51-.56,3.51.17,4.59,3.92,5.72,8.16,11.21,12.29,16.79ZM418.99,102.87c5.41-1.4,10.43-2.61,15.38-4.08.66-.2,1.23-1.65,1.35-2.58.52-4.2.56-8.47,1.3-12.62,3.66-20.55,3.49-41.35,4.46-62.09.03-.67-.51-1.79-1.05-1.99-3-1.14-4.84.24-4.85,3.46,0,1.08-.03,2.17-.04,3.25-.23,13.15-1.67,26.21-5.45,38.79-3.74,12.45-3.83,25.96-11.1,37.87ZM186.53,102.65c-1.73-5.48-3.62-10.89-5.12-16.41-1.55-5.69-2.75-11.47-4.04-17.23-1.38-6.14-3.14-12.24-3.94-18.46-1.19-9.35-1.71-18.79-2.43-28.2-.12-1.61-.15-2.84-2.27-2.97-3.47-.22-3.78-.01-3.54,3.6.05.78,0,1.57.04,2.36.62,13.46.99,26.95,1.98,40.39.65,8.92,2.32,17.75,3.31,26.65.69,6.19.53,6.19,6.47,7.7,3.38.86,6.74,1.81,9.55,2.57Z" style="fill: #000; stroke-width: 0px;"/>
  <path d="M287.94,339.3c-1.24,13.14-2.43,26.28-3.78,39.4-.27,2.62-.95,5.25-1.85,7.73-2.13,5.9-6.36,8.77-12.6,8.84-1.27.01-2.55-.15-3.83-.25-6.94-.56-13.88-1.54-20.83-1.61-16.24-.15-29.21-7.74-41.42-17.32-7.12-5.59-12.24-12.75-16.34-20.71-4.71-9.14-9.95-17.88-17.46-25.11-6.98-6.72-14.93-10.41-24.84-11.41-14.06-1.43-28.39-1.29-42.11-5.41-4.99-1.5-10.02-3-14.81-5.01-18.81-7.89-29.19-22.84-32.85-42.22-5.93-31.42.02-60.92,16.74-88.17,6.57-10.71,14.42-20.44,23.98-28.68,4.13-3.56,8.57-6.65,13.99-7.97,20.94-5.09,39.23-.52,54.95,14.55,11.97,11.48,21.55,24.65,28.32,39.67,8.62,19.14,20.87,35.5,35.31,50.59,12.38,12.93,23.94,26.65,35.78,40.08,4.6,5.22,8.93,10.69,13.51,15.93,7.15,8.18,9.18,18.09,9.85,28.47.18,2.84.03,5.71.03,8.57.09,0,.17.02.26.03ZM274.59,362.38c.26-.04.53-.09.79-.13.14-2.52.3-5.04.41-7.57.36-8.26,1.02-16.52.95-24.77-.06-6.86-1.82-13.54-5.97-19.16-3.74-5.06-7.94-9.77-11.99-14.6-2.4-2.86-4.98-5.58-7.36-8.47-5.48-6.66-10.66-13.59-16.4-20.02-5.3-5.94-11.16-11.39-16.81-17.02-14.01-13.97-25.4-29.77-33.63-47.81-1.72-3.76-3.46-7.53-5.52-11.1-8.42-14.57-18.82-27.43-33.06-36.76-5.01-3.29-10.52-5.3-16.56-5.77-2.17-.17-3.63.47-4.92,2.38-2.46,3.62-3.19,7.58-3.05,11.79.34,10.31,3.74,19.68,10.38,27.4,9.26,10.76,19.08,21.03,28.84,31.35,5.14,5.43,10.42,10.77,16.04,15.69,21.75,19.08,40.12,41.06,56.67,64.69,5.4,7.71,10.75,15.64,17.29,22.33,9.56,9.78,16.29,21.13,22.02,33.28.66,1.4,1.25,2.84,1.87,4.26Z" style="fill: #000; stroke-width: 0px;"/>
  <path d="M553.58,243.25c.05,12.48-1.36,23.45-5.4,34.01-6.07,15.84-17.06,26.61-32.93,32.6-13.53,5.11-27.6,7.01-41.93,7.85-6.17.36-12.36,1.02-18.45,2.11-9.77,1.74-16.85,8.05-22.69,15.47-4.54,5.77-8.74,11.99-11.94,18.57-7.91,16.28-20.98,26.79-36.67,34.62-7.75,3.87-16.15,4.73-24.71,4.96-5.68.15-11.38.63-16.99,1.48-10.9,1.63-17.5-2.04-18.8-12.99-2.05-17.28-3.4-34.69-3.95-52.08-.32-9.91,2.7-19.38,9.39-27.38,15.27-18.26,30.03-36.98,46.96-53.76,15.9-15.76,29.01-33.3,38.31-53.83,7.59-16.77,18.3-31.5,32.93-43.02,7.43-5.85,15.48-10.58,25-12.06,2.99-.47,6.1-.6,9.11-.37,4.99.38,9.98,1,14.91,1.83,5.51.93,10.06,3.96,14.18,7.56,16.26,14.21,28.17,31.5,35.8,51.69,5.36,14.16,7.6,28.91,7.86,42.74ZM331.37,362.39c4.37-7.92,8.08-16.04,13.04-23.3,5.9-8.63,12.92-16.49,19.38-24.74,4.91-6.28,9.86-12.54,14.53-19,10.63-14.71,21.94-28.87,34.75-41.71,13.71-13.75,28.03-26.88,41.79-40.58,6.76-6.73,13.01-13.99,19.2-21.25,5.87-6.88,9.41-14.99,10.78-23.95.73-4.81.85-9.66-1.51-14.16-2.46-4.67-3.19-4.99-8.42-4.24-8.63,1.23-15.72,5.62-22.1,11.18-12.55,10.95-22.55,23.89-29.39,39.15-7.39,16.49-16.9,31.6-29.32,44.77-6.55,6.95-13.44,13.58-20.1,20.42-3.02,3.1-6.01,6.26-8.75,9.6-4.86,5.91-9.44,12.05-14.28,17.97-4.74,5.79-9.76,11.35-14.45,17.17-1.57,1.95-2.72,4.32-3.71,6.64-2.45,5.7-3.43,11.72-3.16,17.9.39,9.05.92,18.09,1.41,27.14.02.35.22.7.32,1Z" style="fill: #000; stroke-width: 0px;"/>
  <path d="M362.51,749.64c-2.32-.36-6.38-1.22-10.48-1.55-2.57-.21-5.48-.28-7.76.7-8.05,3.44-16.11,3.66-24.2.79-4.52-1.6-8.97-3.58-13.13-5.96-2.66-1.52-4.4-1.51-7.17-.09-5.47,2.81-11.23,5.22-17.11,7.04-6.48,2.01-12.97,1-19.38-1.41-2.72-1.02-6.1-1.63-8.84-.98-11.61,2.77-22.19.62-32.96-4.2-7.25-3.25-11.69-8.37-15.12-14.92-3.31-6.32-5.52-13-6.79-20.06-.43-2.35-1.89-4.67-3.37-6.64-2.77-3.69-6.08-6.98-8.82-10.7-4.73-6.43-4.84-13.57-1.29-20.37,1.47-2.83,4.59-5.02,7.38-6.86,2.25-1.49,4.75-.3,6.75,1.43,11.53,9.93,24.26,12.14,38.48,6.39,8.1-3.28,16.29-6.45,24.65-8.97,10.96-3.29,21.65-.48,32.11,2.97,2.17.72,4.12,2.28,5.98,3.7,1.3,1,2.21,1.32,3.55.09,3.75-3.44,8.5-4.63,13.26-6.05,14.95-4.45,28.79-.93,42.42,5.11,3.78,1.67,7.61,3.27,11.52,4.57,11.98,3.99,22.76,1.09,32.46-6.38,6.18-4.76,12.13-3.72,15.73,3.52,3.36,6.76,3.72,13.75-.78,20.21-2.69,3.86-5.78,7.48-8.99,10.93-2.12,2.28-3.4,4.68-3.83,7.75-1.06,7.61-3.8,14.68-7.59,21.3-3.27,5.72-7.41,10.34-14,12.84-6.83,2.59-13.37,5.81-22.68,5.79ZM337.6,705c-.64.91-1.39,1.76-1.92,2.73-2.03,3.77-5.2,5.18-9.34,4.66-3.02-.38-6.03-.98-9.07-1.18-6.83-.44-11.12-3.44-11.5-10.72-.01-.19,0-.46-.12-.57-.73-.63-1.52-1.72-2.23-1.68-.88.05-2.07.88-2.48,1.69-.64,1.28-.77,2.83-1.05,4.28-.68,3.52-2.79,5.55-6.3,6.1-4.66.73-9.32,1.51-14,2.1-3.79.47-6.68-1.07-8.59-4.45-.59-1.03-1.4-1.94-2.12-2.9-.66,4.05-.78,7.89-4.94,10.9,3.23,0,5.59-.46,7.64.13,1.96.57,3.61,2.24,5.49,3.49,1.01-4.21,4.08-5.72,8.27-5.82,1.65-.04,3.29-.57,4.93-.85,5.61-.96,8.08.79,9.1,6.32.17.91.44,2.14,1.09,2.56,2.52,1.62,6.31-.34,6.82-3.36.69-4.12,2.93-6,7.12-5.71,1.95.13,3.86.83,5.81.94,4.37.24,8.34.94,9.58,6.62,2.59-5.93,7.48-4.31,12.03-4.53-3.54-2.88-3.47-6.8-4.24-10.77ZM390.46,708.05c-1.46.21-2.02.27-2.58.38-4.48.85-7.07-.35-9.46-4.16-.47-.74-1.81-1.79-2.14-1.61-1.07.6-2.5,1.62-2.63,2.63-.58,4.39-3.18,6.66-7.18,7.52-4.52.97-9.09,1.69-13.64,2.53-1.96.36-3.93.73-5.89,1.1,5.31,1.62,8.71,4.45,8.35,11.04,5.38-12.28,20.7-18.04,31.76-12.27,1.03-2.17,2.06-4.33,3.41-7.16ZM259.6,717.16c-.06-.24-.12-.47-.18-.71-.82-.18-1.64-.39-2.47-.54-5.8-1.07-11.63-2.05-17.41-3.24-3.45-.71-6.06-2.83-6.42-6.44-.27-2.7-1.65-3.47-4.14-3.92-2.22,5.66-6.31,7.82-13.15,5.31,1.62,3.26,2.71,5.45,3.83,7.7,9.62-6.38,26.4,0,31.48,11.99-.18-6.21,2.91-9.23,8.45-10.16ZM332.83,696.34c-2.44-1.91-11.63-4.04-16.4-3.87-2.29.08-3.51.74-2.97,3.35.29,1.42.18,2.93.19,4.4.01,1.67.65,2.44,2.47,2.44,3.13,0,6.26.33,9.39.39.79.02,1.85-.21,2.34-.74,1.76-1.89,3.34-3.97,4.98-5.97ZM272.96,696.13c1.37,1.16,2.49,1.68,2.91,2.55,2.22,4.62,5.93,4.39,10.26,4.02,6.96-.59,6.93-.29,7-7.64.02-1.65-.5-2.41-2.08-2.47-6.08-.24-11.83,1.17-18.09,3.54ZM396.2,688.33c-.22-.11-.44-.21-.66-.32-3.46,2.98-6.97,5.9-10.31,9.02-.59.55-.44,1.91-.69,3.2,3.54-1.84,6.44-3.32,9.3-4.87.38-.2.69-.72.82-1.16.56-1.94,1.04-3.91,1.54-5.87ZM211.17,688.21c-.27.15-.55.31-.82.46.77,2.22.93,5.12,2.47,6.51,2.36,2.13,5.66,3.23,9.01,5-.11-1.1.16-2.45-.37-2.95-3.33-3.11-6.84-6.04-10.29-9.02ZM227.91,722.83c4.58,2.73,9.24,3.94,14.45,4.63-2.23-4.53-8.94-6.64-14.45-4.63ZM364.2,727.47c5.16-.69,9.79-1.97,14.54-4.63-5.94-1.97-12.53.14-14.54,4.63ZM341.69,728c1.13.08,1.66.25,2.1.12.89-.27,1.74-.71,2.6-1.07-.72-.64-1.33-1.58-2.17-1.86-1.56-.51-3.25-.84-4.88-.82-.74,0-1.47,1.02-2.21,1.58.57.59,1.04,1.46,1.73,1.69,1.08.37,2.31.3,2.83.35ZM263.58,728.58c.07-.16.15-.32.22-.47,1.36-.14,2.76-.13,4.06-.49.61-.17,1.55-1.25,1.42-1.54-.3-.72-1.09-1.67-1.75-1.73-1.32-.11-2.76.11-4.02.57-1.22.44-2.27,1.35-3.39,2.05,1.15.54,2.31,1.07,3.46,1.61ZM252.34,705.86c.02.25.03.51.05.76,2.6.46,5.2.92,8.21,1.46-.22-1.89-.36-3.09-.54-4.59-2.81.86-5.26,1.62-7.72,2.38ZM345.97,708.12c3.11-.59,5.64-1.06,8.18-1.54l-.09-.8c-2.46-.73-4.92-1.45-7.71-2.28-.13,1.58-.23,2.79-.38,4.62ZM319.73,724.01c.11-.48.22-.97.33-1.45-1.71-.4-3.41-.82-5.13-1.15-.17-.03-.63.51-.63.79,0,.3.32.82.59.88,1.6.37,3.23.63,4.85.93ZM292.38,722.84c-.12-.47-.24-.94-.37-1.42-1.94.03-3.93-.11-5.35,1.6.09.34.18.67.26,1.01,1.82-.4,3.64-.8,5.45-1.19Z" style="fill: #000; stroke-width: 0px;"/>
  <path d="M402.99,416.23c17.54.23,31.38,6.84,40.52,21.95,1.46,2.42,2.53,5.13,3.38,7.84.66,2.11,1.66,2.73,3.81,2.6,7.96-.49,15.92-.86,23.89-1.18,9.6-.38,19.09.26,28.31,3.22.93.3,1.9.56,2.77,1.01,3.56,1.87,3.84,6.14.23,7.89-3.66,1.77-7.6,3.57-11.57,4-12.42,1.34-24.94,1.71-37.36,3.04-41.79,4.47-80.8,16.82-115.32,41.54-5.04,3.61-10.07,7.23-15.13,10.8-.96.68-2.01,1.5-3.09,1.65-1.34.18-3.18.19-4.02-.59-.84-.77-1.03-2.63-.92-3.96.14-1.62,1.27-3.19,1.29-4.78.07-5.22,2.8-8.66,6.53-11.97,8.56-7.59,18.59-12.87,28.29-18.68,1.84-1.1,2.22-2.22,2.29-4.41.47-14.12,1.39-28.38,9.23-40.67,8.51-13.36,21.53-19.03,36.88-19.3ZM437.59,449.53c-.78-1.42-1.22-2.39-1.8-3.26-8.24-12.4-19.38-19.1-34.71-18.35-17.64.86-30.02,12.25-33.59,31.19-.14.76.03,1.57.03,2.35,0,2.83,0,5.65-.04,8.48-.01.89-.14,1.78-.26,3.09,5.52-2.6,10.51-4.89,15.41-7.35.57-.29.82-1.52.93-2.35.2-1.42-.27-3.09.32-4.28,2.46-4.98,5.55-9.53,10.34-12.64,6.97-4.52,17.43-4.34,21.93,1.82,3.34,4.58,6.47,4.14,10.62,3.01.95-.26,1.93-.36,2.91-.51,2.48-.39,4.97-.76,7.9-1.21Z" style="fill: #000; stroke-width: 0px;"/>
  <path d="M137.81,447.6c6.09.33,12.19.59,18.28,1.01,1.89.13,2.84-.39,3.43-2.27,10.5-33.59,56.33-39.56,77.47-15.65,6.17,6.99,9.07,15.45,10.5,24.36,1.19,7.44,1.35,15.04,2.13,22.55.1.93.99,2.06,1.83,2.59,4.42,2.77,9.08,5.17,13.39,8.1,5.76,3.92,11.31,8.16,16.87,12.38,3.14,2.38,4.75,5.62,4.96,9.65.09,1.82,1.11,3.57,1.26,5.4.12,1.43.05,3.53-.82,4.22-1.02.8-3.32,1.02-4.49.4-3.55-1.88-7.07-3.98-10.16-6.54-24.9-20.64-54.1-32.17-84.83-40.64-18.17-5.01-36.71-6.88-55.44-7.73-6.58-.3-13.18-.85-19.69-1.81-3.62-.53-7.12-2.02-10.6-3.3-2.08-.77-3.95-2.06-3.79-4.7.17-2.83,2.19-4.21,4.63-4.65,7.24-1.31,14.48-2.65,21.78-3.49,4.37-.5,8.85-.09,13.27-.09v.22ZM239.03,472.96c0-4.95.62-9.6-.13-14.03-1.36-8.05-4.49-15.45-10.44-21.42-14.1-14.13-45.1-15.08-58.95,11-.12.22-.01.55-.01.98,5.46.98,10.84,2.01,16.26,2.85.69.11,1.84-.63,2.28-1.31,4.63-7.01,13.7-9.63,21.59-6.07,6.49,2.93,10.24,8.41,13.23,14.53.4.82.58,2.05.27,2.86-.92,2.43.21,3.41,2.27,4.13,1.39.48,2.71,1.18,4.04,1.82,3.15,1.52,6.3,3.06,9.6,4.67Z" style="fill: #000; stroke-width: 0px;"/>
  <path d="M376.45,596.44c-.41,5.5-.46,11.04-1.28,16.48-2.83,18.83-19.76,29.03-37.88,23.19-1.43-.46-3.72-.21-4.83.69-6.94,5.54-14.29,5.76-21.85,1.92-4.99-2.53-9.65-2.8-14.55-.02-1.52.86-3.31,1.25-4.99,1.82-5.87,2.01-11.09.46-15.81-3.13-2.26-1.72-4.31-2.01-7.08-1.06-15.06,5.16-32.27-3.24-35.55-18.81-4.48-21.24-4.74-42.56,7.06-62.16,2.53-4.2,5.6-8.08,8.48-12.07.57-.79,1.32-1.47,2.09-2.07,1.86-1.48,4.19-2.1,6-.65,1.43,1.14,2.94,3.35,2.84,4.99-.15,2.6-1.44,5.21-2.57,7.67-3.22,7.06-6.98,13.89-9.79,21.11-2.71,6.95-3.04,14.42-2.18,21.85.17,1.46.59,2.89.97,4.31.53,1.96,1.48,2.94,3.84,2.34,3.67-.94,7.09.33,9.25,3.22,2.13,2.84,3.71,6.19,5.03,9.52.76,1.91,1.53,2.67,3.37,1.95,2.55-1,5.06-2.1,7.56-3.23.89-.4,1.67-1.04,2.52-1.53,2.24-1.29,4.52-1.33,6.72.03,2.26,1.4,2.98,3.61,2.73,6.12-.2,1.95-.67,3.88-.93,5.83-.29,2.23.39,3.57,2.94,2.71,4.08-1.38,8.08-3,12.22-4.15,1.63-.45,3.62-.26,5.29.2,4.23,1.19,8.37,2.73,12.56,4.07,1.72.55,2.43-.39,2.33-1.98-.07-1.27-.3-2.54-.54-3.79-.62-3.27-1.2-6.61,2.05-8.87,3.35-2.33,6.26-.6,9.26,1.18,2.34,1.39,4.96,2.32,7.5,3.35,1.91.77,2.9.21,3.6-1.96.92-2.86,2.16-5.74,3.89-8.18,2.61-3.7,6.3-5.46,11.08-4.49.84.17,2.63-.79,2.79-1.5.81-3.52,1.61-7.11,1.69-10.7.3-13.09-4.75-24.58-11.19-35.6-1.14-1.95-2.38-3.88-3.21-5.97-1.42-3.55-.47-7,2.01-8.46,2.61-1.54,5.64-.7,8.27,2.44,12.95,15.45,19.72,33,18.25,53.41Z" style="fill: #000; stroke-width: 0px;"/>
  <path d="M281.25,812.72c-1.04,1.19-1.95,3.12-3.18,3.34-1.05.2-3.15-1.3-3.59-2.49-3.37-9.06-5.92-18.36-6.69-28.05-.1-1.27-.13-2.58.09-3.82.48-2.64,1.89-4.55,4.77-4.86,2.68-.29,4.81,1.29,5.67,4.14.2.65.34,1.34.38,2.03.57,9.73,1.12,19.45,1.67,29.18.29.18.58.36.87.54Z" style="fill: #000; stroke-width: 0px;"/>
  <path d="M338.8,785.3c-.61,9.22-3.28,18.88-6.82,28.3-.44,1.18-2.43,2.55-3.65,2.5-2.31-.09-2.62-2.23-2.47-4.26.65-9.32,1.28-18.65,1.94-27.97.33-4.7,2.42-7.2,5.84-7.05,3.37.15,5.28,2.94,5.17,8.48Z" style="fill: #000; stroke-width: 0px;"/>
  <path d="M311,793.69c0-4.04-.04-8.08.01-12.11.04-3.61,1.73-5.8,4.42-5.94,2.62-.13,4.59,1.69,5.05,5.12,1.28,9.37-.33,18.46-3.26,27.32-.35,1.07-2.46,2.38-3.49,2.18-1.06-.21-2.47-2.06-2.55-3.28-.31-4.41-.12-8.85-.12-13.29h-.06Z" style="fill: #000; stroke-width: 0px;"/>
  <path d="M295.41,793.87c0,4.23.03,8.47-.01,12.7-.02,1.92-.67,3.91-2.8,3.76-1.27-.09-3.12-1.51-3.51-2.72-2.58-8.02-3.96-16.25-3.33-24.72.08-1.08.23-2.16.5-3.21.69-2.73,2.62-4.28,5.05-4.02,2.73.29,3.96,2.18,4.11,4.63.21,3.43.09,6.89.11,10.33,0,1.08,0,2.17,0,3.25h-.11Z" style="fill: #000; stroke-width: 0px;"/>
  <path d="M161.48,420.11c.03,4.86-3.54,7.27-7.21,5.66-1.66-.73-3.31-1.87-4.48-3.24-3.05-3.58-5.88-7.34-8.69-11.11-1.2-1.61-1.78-3.78.1-4.96,1.17-.74,3.6-.78,4.73-.02,4.56,3.03,8.94,6.37,13.16,9.87,1.31,1.09,1.91,3.02,2.39,3.81Z" style="fill: #000; stroke-width: 0px;"/>
  <path d="M466.35,409.13c-.16.41-.29,1.35-.8,2.02-3.16,4.13-6.17,8.43-9.7,12.22-3.37,3.62-7.24,3.79-9.55,1.16-2.27-2.58-1.68-6.05,2.09-9.18,3.93-3.25,8.1-6.26,12.34-9.11,2.72-1.83,5.56-.44,5.63,2.89Z" style="fill: #000; stroke-width: 0px;"/>
  <path d="M447.54,393.9c-.28,1.12-.31,1.75-.58,2.25-2.69,4.89-5.22,9.88-8.22,14.57-1.93,3.02-5.1,3.64-7.37,2.18-2.32-1.49-3.07-4.67-.93-7.57,3.41-4.64,7.25-8.97,11.15-13.2.75-.82,2.76-1.01,3.97-.69.9.24,1.46,1.78,1.98,2.48Z" style="fill: #000; stroke-width: 0px;"/>
  <path d="M162.88,390.98c.47.24,1.56.47,2.15,1.14,3.74,4.26,7.61,8.44,10.97,12.99,2.25,3.06,1.54,6.28-.9,7.81-2.29,1.43-5.38.79-7.35-2.28-3-4.69-5.68-9.61-8.18-14.59-1.33-2.65.29-5.12,3.31-5.06Z" style="fill: #000; stroke-width: 0px;"/>
  <path d="M337.43,467.36c-2.8-.31-5.03-.26-7.05-.9-1.17-.37-2.64-1.77-2.77-2.85-.13-1.09.98-3.07,1.98-3.41,4.24-1.47,8.59-2.74,13-3.56,2.85-.53,5.08,1.36,5.53,3.73.49,2.57-.93,5.05-3.79,5.84-2.43.67-5,.85-6.91,1.16Z" style="fill: #000; stroke-width: 0px;"/>
  <path d="M269.1,467.37c-1.94-.32-4.5-.5-6.92-1.19-2.87-.82-4.31-3.34-3.81-5.82.48-2.35,2.73-4.25,5.54-3.73,4.4.82,8.74,2.09,12.97,3.56.99.34,2.09,2.32,1.96,3.41-.13,1.08-1.58,2.49-2.74,2.86-2.01.64-4.24.6-7.01.92Z" style="fill: #000; stroke-width: 0px;"/>
  <path d="M419.2,389.7c-.55,3.18-.9,6.41-1.7,9.53-.88,3.43-3.56,5.14-6.23,4.42-2.68-.72-4.25-3.54-3.21-6.92,1.27-4.1,2.91-8.12,4.79-11.98.5-1.03,2.58-1.96,3.76-1.78.95.14,1.88,1.94,2.34,3.19.39,1.03.08,2.32.08,3.5.05.01.1.03.16.04Z" style="fill: #000; stroke-width: 0px;"/>
  <path d="M187.27,388.67c.19-2.36-.44-5.15,2.71-5.86,3.08-.7,3.94,1.99,4.85,4.13,1.27,2.97,2.57,5.96,3.5,9.05,1.18,3.93-.24,7.01-3.2,7.71-2.81.67-5.46-1.33-6.31-5.16-.72-3.25-1.05-6.58-1.55-9.87Z" style="fill: #000; stroke-width: 0px;"/>
  <path d="M349.61,439.86c-3.46-1.29-7.01-2.41-10.33-3.99-.88-.42-1.6-2.32-1.45-3.4.13-.92,1.6-2.33,2.51-2.36,3.69-.11,7.44-.08,11.07.5,2.43.39,3.84,2.46,3.37,5.08-.48,2.63-2.51,3.55-5.17,4.17Z" style="fill: #000; stroke-width: 0px;"/>
  <path d="M261.2,429.67c1.95.12,3.54-.1,4.85.41,1.11.43,2.38,1.59,2.64,2.66.22.91-.63,2.79-1.46,3.13-3.43,1.39-6.96,2.67-10.58,3.38-2.42.48-4.45-1-4.89-3.65-.43-2.66,1.07-4.41,3.49-5.07,2.06-.57,4.26-.63,5.94-.86Z" style="fill: #000; stroke-width: 0px;"/>
  <path d="M235.01,414.14c.8-1.64,1.12-2.98,1.95-3.86,2.08-2.21,4.21-4.46,6.68-6.18,1.05-.73,3.38-.71,4.4,0,.77.54.95,3.01.4,4.14-1.42,2.89-3.28,5.6-5.2,8.21-1.28,1.74-3.37,2.42-5.26,1.28-1.26-.76-2-2.37-2.97-3.6Z" style="fill: #000; stroke-width: 0px;"/>
  <path d="M371.22,414.66c-.74.86-1.57,2.71-2.83,3.05-1.43.4-3.88,0-4.74-1.02-2.33-2.75-4.19-5.94-5.9-9.13-.45-.85-.06-2.63.61-3.45.56-.69,2.35-1.14,3.12-.75,3.93,1.97,7.16,4.83,9.21,8.82.26.5.26,1.14.54,2.48Z" style="fill: #000; stroke-width: 0px;"/>
  <path d="M223.28,401.72c0,4.13-2.47,7.31-5.72,7.36-2.8.04-5.06-2.34-5.1-5.4-.05-3.72,3.16-7.87,6.15-7.94,2.83-.07,4.68,2.3,4.67,5.98Z" style="fill: #000; stroke-width: 0px;"/>
  <path d="M394.1,403.62c.03,3.05-2.19,5.48-5,5.48-3.21,0-5.76-3.2-5.83-7.3-.06-3.67,1.77-6.09,4.58-6.06,3.02.03,6.22,4.06,6.25,7.88Z" style="fill: #000; stroke-width: 0px;"/>
  <path d="M154.49,176.26c0,5.12-2.93,9.5-7.2,10.76-4.22,1.25-8.88-.64-11.42-5.26-1.43-2.61-2.39-5.63-2.86-8.57-.59-3.74.81-7.09,4.16-9.15,3.49-2.15,7.17-1.88,10.69.06,3.95,2.18,6.63,7.22,6.64,12.16Z" style="fill: #000; stroke-width: 0px;"/>
  <path d="M172.53,200.53c.06,5.27-3.42,9.34-8.06,9.43-4.81.09-8.77-4.34-8.81-9.87-.04-4.94,3.44-8.71,8.04-8.71,4.83,0,8.78,4.09,8.84,9.15Z" style="fill: #000; stroke-width: 0px;"/>
  <path d="M251.64,313.72c-3.66-.03-6.56-2.82-6.51-6.25.05-3.42,3.05-6.34,6.52-6.33,3.42,0,6.26,2.78,6.31,6.15.05,3.57-2.79,6.46-6.32,6.43Z" style="fill: #000; stroke-width: 0px;"/>
  <path d="M235.25,280.75c3.41-.01,6.47,2.94,6.54,6.29.06,3.2-2.32,5.73-5.42,5.75-3.44.02-6.57-3.15-6.54-6.64.02-3.07,2.36-5.39,5.42-5.41Z" style="fill: #000; stroke-width: 0px;"/>
  <path d="M225.29,268.64c-.04,3.06-2.1,5.2-4.91,5.1-3.09-.11-6.13-3.6-6.01-6.9.1-2.9,2.31-5.15,5.03-5.12,3.16.04,5.93,3.29,5.89,6.92Z" style="fill: #000; stroke-width: 0px;"/>
  <path d="M187.9,226.85c-.06,2.8-2.36,5.02-5.15,4.99-2.95-.04-5.14-2.39-5.03-5.39.1-2.84,2.42-4.99,5.24-4.85,2.74.13,5,2.54,4.94,5.26Z" style="fill: #000; stroke-width: 0px;"/>
  <path d="M200.25,244.6c2.38.02,4.52,2.36,4.53,4.94,0,2.32-1.84,4.14-4.13,4.08-2.49-.07-4.57-2.32-4.53-4.89.04-2.28,1.9-4.15,4.13-4.12Z" style="fill: #000; stroke-width: 0px;"/>
  <path d="M265.17,321.31c2.45-.05,4.42,1.97,4.43,4.53,0,2.47-1.85,4.37-4.24,4.34-2.32-.03-4.19-1.95-4.28-4.4-.09-2.47,1.7-4.43,4.09-4.48Z" style="fill: #000; stroke-width: 0px;"/>
  <path d="M452.07,176.34c-.04-6.78,4.72-12.82,10.71-13.6,6.22-.81,11.33,3.42,10.84,9.66-.26,3.29-1.49,6.72-3.11,9.63-2.51,4.51-7.06,6.21-11.2,5.01-4.26-1.23-7.2-5.58-7.23-10.69Z" style="fill: #000; stroke-width: 0px;"/>
  <path d="M450.86,200.06c-.04,5.57-4.02,10.03-8.84,9.91-4.56-.12-8.02-4.11-8.01-9.26.01-5.24,4.09-9.44,9.05-9.33,4.49.1,7.83,3.82,7.8,8.68Z" style="fill: #000; stroke-width: 0px;"/>
  <path d="M354.85,301.14c3.46-.02,6.55,2.9,6.62,6.26.07,3.4-2.85,6.25-6.48,6.33-3.56.07-6.41-2.78-6.36-6.35.06-3.44,2.82-6.22,6.21-6.24Z" style="fill: #000; stroke-width: 0px;"/>
  <path d="M376.75,286.1c.04,3.43-3.14,6.68-6.55,6.69-3.14,0-5.5-2.46-5.48-5.7.03-3.33,3.12-6.34,6.51-6.35,3.04,0,5.49,2.37,5.52,5.36Z" style="fill: #000; stroke-width: 0px;"/>
  <path d="M381.23,268.2c.18-3.53,3.03-6.59,6.03-6.49,2.83.09,5.07,2.62,4.93,5.56-.16,3.38-3.42,6.62-6.49,6.47-2.74-.14-4.63-2.48-4.47-5.54Z" style="fill: #000; stroke-width: 0px;"/>
  <path d="M428.9,226.61c.02,2.9-2.3,5.24-5.18,5.23-2.78,0-5.02-2.21-5.08-5-.06-2.81,2.32-5.21,5.21-5.24,2.77-.03,5.04,2.22,5.06,5.01Z" style="fill: #000; stroke-width: 0px;"/>
  <path d="M405.73,253.61c-2.28,0-3.98-1.8-3.95-4.18.04-2.57,2.1-4.75,4.56-4.83,2.33-.07,4.22,1.9,4.14,4.33-.08,2.45-2.34,4.68-4.75,4.68Z" style="fill: #000; stroke-width: 0px;"/>
  <path d="M341.13,330.18c-2.41.02-4.24-1.87-4.21-4.36.02-2.48,1.81-4.41,4.16-4.5,2.4-.1,4.33,1.75,4.39,4.2.06,2.52-1.91,4.64-4.34,4.66Z" style="fill: #000; stroke-width: 0px;"/>
</svg>