<?xml version="1.0" encoding="UTF-8"?>
<svg id="Layer_1" data-name="Layer 1" xmlns="http://www.w3.org/2000/svg" viewBox="0 0 492 900">
  <path d="M415.76,345.2c1.37,4.06,3.36,8.44,4.26,13.04.88,4.5,1.05,9.23.82,13.83-.25,4.94-1.06,9.9-2.08,14.76-3.01,14.42-12.48,22.91-25.94,27.56-3.47,1.2-6.97,2.3-10.79,3.56.88.65,1.6,1.22,2.36,1.73,12.06,8.12,24.12,16.23,36.18,24.34,9.39,6.31,19.09,12.22,28.11,19.02,9.29,7,18.15,14.63,26.75,22.47,2.7,2.47,5.28,5.83,4.84,10.33-.28,2.84-1.33,5.01-3.87,6.2-3.56,1.66-7.29,2.96-10.83,4.66-4.99,2.39-9.92,4.92-14.8,7.52-7.01,3.73-13.94,7.64-20.96,11.35-1.51.8-2.01,1.41-1.16,3.1,3.05,6.1,5.67,12.43,8.99,18.37,3.19,5.7-1.45,14.22-8.16,14.71-8.38.62-16.71,2.08-25.02,3.42-4.18.68-8.27,1.87-12.38,2.92-1.41.36-1.73,1.33-1.26,2.8,1.62,5.03,3.25,10.06,4.59,15.17.88,3.32,1.36,6.76,1.87,10.17.59,4-3.73,8.82-8.02,8.91-4.56.1-9.12.02-14.36.02,0,3.46-.32,6.84.07,10.14.83,7.09,1.72,14.2,3.13,21.19,2.39,11.87,4.76,23.77,7.94,35.44,2.68,9.8,6.63,19.25,9.78,28.94,4.7,14.45,13.1,27.2,18.77,41.19,2.32,5.73,4.45,11.54,6.64,17.32,3.74,9.92,7.97,19.69,11.06,29.8,4.22,13.84,7.29,27.97,7.93,42.55.27,6.18.99,12.32,0,18.51-2.53,15.74-9.15,28.93-23.29,37.37-5.03,3-10.15,5.91-15.43,8.45-6.35,3.06-13.38,3.95-20.24,3.84-9.69-.15-19.45-.84-29.03-2.3-9.96-1.52-18.74-6.14-27.01-12.13-9.74-7.06-18.63-15.44-29.61-20.64-12.03-5.69-24.49-10.33-37.92-11.3-5.08-.37-10.22.1-15.33.23-4.64.12-9.39-.28-13.9.57-13.57,2.56-26.75,6.53-38.31,14.44-8.54,5.84-16.83,12.07-25.18,18.17-7.47,5.46-15.78,9.25-24.85,10.65-8.87,1.37-17.89,2.04-26.86,2.37-12.94.49-24.71-3.59-35.46-10.66-2.95-1.94-5.91-3.91-8.66-6.12-9.02-7.24-13.64-17.03-16.21-28.06-1.7-7.32-1.84-14.66-.98-22.05,1.03-8.77,1.77-17.61,3.45-26.26,1.51-7.78,3.71-15.48,6.32-22.97,4.55-13.04,9.51-25.94,14.58-38.79,2.6-6.57,5.42-13.11,8.86-19.27,4.88-8.75,8.59-17.95,12.11-27.27,5.53-14.66,10.29-29.56,13.42-44.91,2.45-12.02,4.46-24.13,6.32-36.26.6-3.91.09-8,.09-12.18-4.33,0-8.47,0-12.61,0-6.7-.02-10.04-4.4-9.19-10.96.99-7.71,3.16-15.04,5.75-22.31,1.09-3.07.71-3.37-2.52-4.02-4.31-.87-8.54-2.19-12.88-2.91-7.59-1.27-15.2-2.7-22.86-3.2-6.89-.45-11.47-9.16-8.2-14.86,3.38-5.9,5.98-12.24,8.97-18.37.57-1.17.75-1.93-.68-2.7-9.83-5.28-19.56-10.75-29.45-15.92-4.4-2.3-9.09-4.02-13.64-6.02-1.32-.58-2.68-1.09-3.94-1.79-3.98-2.22-5.47-7.74-2.76-11.47,2.57-3.54,5.21-7.23,8.54-9.99,9.22-7.63,18.77-14.86,28.29-22.12,4.14-3.17,8.45-6.13,12.79-9.03,6.8-4.55,13.72-8.94,20.54-13.46,8.5-5.63,16.96-11.32,25.43-17,.45-.3.84-.69,1.34-1.11-4.4-1.45-8.73-2.64-12.87-4.29-13.48-5.37-22.2-14.86-24.32-29.55-.9-6.26-1.6-12.59-1.74-18.91-.07-3.34,1.11-6.76,2.02-10.06.95-3.47,2.25-6.84,3.26-9.84-10.22-5.51-20.12-11.05-28.18-19.26-4.49-4.57-7.85-9.97-10.43-15.81-1.8-4.09-3.95-8.17-4.85-12.48-.92-4.42-.92-9.14-.61-13.68.47-6.8,1.4-13.58,2.46-20.31,1.15-7.26,5.09-13.45,8.21-19.58-5.71-3.15-11.5-6.08-17-9.49-2.39-1.48-4.36-3.75-6.21-5.94-5.54-6.55-8.71-14.43-11.76-22.3-3.56-9.2-5.6-18.77-6.25-28.63-.59-9.06-1.49-18.11-1.69-27.18-.18-7.94.33-15.91.73-23.85.24-4.72.79-9.44,1.35-14.14.48-4.01,2.32-7.13,6.26-8.77.56-.23.97-1.11,1.23-1.78,3.13-8.15,6.11-16.36,9.38-24.44,1.18-2.92,3.63-4.67,7.02-4.67.55,0,1.13-.11,1.65-.3,2.97-1.1,5.44-.2,7.36,2.08,4.4,5.22,8.89,10.4,11.49,16.85.26.65.66,1.23,1.2,2.22,2.73-4.66,5.33-8.95,7.77-13.34,2.17-3.91,3.64-8.31,8.17-10.36.38-.17.61-.72.89-1.11,2.64-3.62,6.98-3.94,9.8-.37,2.32,2.95,4.21,6.26,6.14,9.49,1.89,3.17,3.6,6.44,5.58,10.02,2.4-3.21,4.64-6.23,6.9-9.22,2.76-3.66,5.4-7.4,8.34-10.91,1.62-1.94,3.68-3.52,5.64-5.15,2.08-1.73,5.56-1.59,7.36.86,3.51,4.76,6.65,9.8,9.79,14.82,1.31,2.1,2.22,4.45,3.37,6.8,2.11-3.75,4.18-7.4,6.22-11.06,1.45-2.59,2.58-5.43,4.41-7.72,1.3-1.64,3.5-2.57,5.33-3.77.59-.39,1.3-.6,1.91-.97,2.9-1.76,5.95-1.49,7.59,1.4,3.56,6.26,6.74,12.73,10.05,19.13.69,1.34,1.27,2.74,2.06,4.47,3.47-4.85,6.73-9.38,9.98-13.93,2.62-3.66,4.75-7.84,7.98-10.85,3.29-3.06,4-6.4,4-10.4,0-2.79.1-5.58.3-8.37.23-3.21.82-6.41,1.26-9.57.36-2.57,3-4.77,4.44-7.25,3.59-6.16,7.05-12.4,10.6-18.58,1.15-2.01,2.16-4.19,3.71-5.85,2.81-3,6.66-2.42,9.05.93,2.26,3.18,4.84,6.14,6.88,9.45,1.84,2.98,3.14,6.3,4.77,9.65,1.73-3.13,3.42-6.24,5.18-9.31,1.52-2.65,3.11-5.25,4.7-7.86.29-.48.62-1.08,1.08-1.27,1.58-.64,3.31-1.76,4.82-1.54,3.72.52,8.37-1.73,10.83,3.31,1.41,2.88,3.22,5.55,4.81,8.34,1.55,2.71,3.06,5.45,4.63,8.25,1.95-3.92,3.59-7.97,5.89-11.61,2.07-3.28,4.68-6.29,7.4-9.07,2.02-2.07,5.72-1.61,7.71,1.02,1.91,2.53,3.09,5.59,4.75,8.32,3.92,6.43,7.86,12.84,11.94,19.16,1.44,2.24,2.77,4.34,1.93,7.13-.11.37-.26.88-.11,1.16,1.55,2.87,1.07,5.89,1.02,8.95-.05,3.27.42,6.57.96,9.81.2,1.17,1.21,2.24,1.97,3.26.91,1.22,2.02,2.28,2.91,3.51,5.49,7.62,10.94,15.27,16.7,23.32,1.05-2.6,1.79-4.89,2.87-7,2.63-5.14,5.35-10.24,8.17-15.28,2.38-4.26,4.65-4.09,9.18-2.64,6.67,2.15,8.63,7.59,11.33,12.84,1.83,3.54,3.97,6.92,5.73,9.97,3.35-5.72,6.81-11.68,10.34-17.6.65-1.09,1.54-2.06,2.43-2.98,3.29-3.44,5.82-2.83,9.45.05,7.45,5.9,11.64,14.25,17.44,21.38.6.74,1.23,1.45,1.96,2.29,3.27-5.68,6.39-11.17,9.61-16.61.77-1.3,1.77-2.52,2.88-3.54,2.79-2.55,6.59-2.07,8.88.89.61.79,1.42,1.47,2.26,2.02,3.37,2.17,4.77,5.74,6.61,9.02,2.59,4.6,5.25,9.16,8.05,14.04,1.61-2.98,2.82-5.8,4.53-8.27,2.59-3.76,5.44-7.36,8.34-10.89,1.84-2.23,4.28-2.99,7.17-2.01.97.33,2.06.28,3.08.46,3.1.54,4.92,2.67,6.1,5.33,1.98,4.48,3.89,8.99,5.62,13.58,1.32,3.51,2.28,7.15,3.45,10.72.15.45.59.98,1.02,1.15,4.76,1.85,6.29,5.86,6.59,10.37.76,11.7,1.86,23.42,1.74,35.12-.12,11.78-1.43,23.57-2.46,35.33-1.08,12.37-5.63,23.74-11.08,34.71-2.16,4.34-5.17,8.37-8.34,12.07-1.86,2.16-4.71,3.53-7.26,5.03-4.48,2.64-9.06,5.1-13.62,7.65.71,1.43,1.48,3.28,2.49,4.98,5.71,9.57,7.18,20.18,7.77,31.01.2,3.77.36,7.54.43,11.32.1,6-1.41,11.57-4.53,16.74-1.62,2.67-2.85,5.57-4.4,8.29-4.93,8.67-11.99,15.19-20.59,20.15-2.36,1.36-4.48,3.12-6.83,4.5-2.39,1.41-4.92,2.57-7.82,4.06ZM155.89,271.61c-2.57.27-5.14.62-7.72.8-8.76.61-17.52,1.21-26.29,1.72-2.62.15-5.26.02-8.06.02v5.03c1.63,0,3.15.09,4.65-.01,9-.6,18.02-1.84,27-1.65,5.27.11,7.14-3.67,10.41-5.91.3.12.59.33.89.34,5.98.11,11.97.35,17.94.23,4.83-.1,9.66-.64,14.49-.99-.01-.23-.03-.45-.04-.68-1.04,0-2.07-.03-3.11,0-10.06.36-20.12.73-30.18,1.1ZM336.22,271.61c-5.27-.22-10.54-.52-15.81-.62-5.83-.11-11.65-.02-17.48-.02.43-.06.89,0,1.35.05,5,.49,10,1.31,15.01,1.38,5.64.08,11.29-.5,16.94-.8,1.87,1.84,3.69,3.73,5.64,5.49.38.34,1.24.18,1.87.2,1.85.03,3.7-.05,5.55.07,9.24.59,18.49,1.23,27.73,1.84.45.03.91-.13,1.27-.19v-4.52c-.79-.05-1.42-.1-2.04-.12-4.48-.19-8.97-.28-13.45-.57-5.73-.37-11.45-.9-17.17-1.37-3.14-.26-6.27-.54-9.41-.82ZM91.87,391.91c.2.25.39.5.59.75.23.4.37.88.69,1.18,5.48,5.14,12.58,6.42,19.51,8.12.28.07.61-.08,1.04-.15-6.47-19.8-10.27-40.09-13.29-61.23-2.82,2.94-6.95.21-9.15,3.83-1.7,2.79-3.83,5.29-4.03,8.74,1.14.2,2.16.37,3.17.54,0,0,.08.13.08.13.22,1.02.43,2.04.65,3.06-.18.28-.35.55-.53.83-1.51,1.35-3.09,1.51-5.2-.37-.49,2.93-1.46,5.4-1.17,7.71.86,6.95,1.96,13.9,3.52,20.72.51,2.24,2.71,4.1,4.13,6.14ZM401.66,354c.12-.09.23-.18.33-.29.98-.2,1.97-.41,3.69-.76-1.97-3.47-3.75-6.64-5.6-9.77-.2-.33-.82-.5-1.27-.58-2.34-.4-4.69-.76-7.25-1.16-2.89,20.38-6.7,40.62-13.21,60.55,1.06-.06,1.96.03,2.77-.19,3.17-.86,6.53-1.4,9.41-2.86,3.26-1.65,6.09-4.15,9.1-6.28.19-.11.39-.22.58-.33,1.57-2.64,3.73-5.1,4.57-7.95,1.44-4.87,2.26-9.96,2.96-15.01.53-3.86.65-7.82-1.52-11.62-1.64,1.52-3.22,1.24-4.75-.02-.14-.27-.28-.55-.42-.82.2-.97.4-1.95.59-2.92ZM328.18,353.24c0-2.41-.11-4.49.02-6.55.41-6.66,1.14-13.31,1.29-19.97.17-7.3.09-14.63-.37-21.91-.3-4.69-1.49-9.32-2.27-13.98-.27-1.6-1.11-2.08-2.79-2.22-9.85-.78-19.68-1.79-29.53-2.64-3.83-.33-7.67-.48-11.5-.67-3.86-.19-7.72-.21-11.57-.5-5.24-.4-9.07-4.64-7.9-9.19.92-3.57.27-7.01.26-10.5-.06-14.54-.18-29.08-.28-43.63,0-.08.01-.16.02-.24.62-9.7,1.4-19.4,1.81-29.11.62-14.76-.24-29.57,1.97-44.29,2.1-14.06,5.49-27.74,10.96-40.86,1.63-3.92,3.21-8.36,7.1-10.38,3.68-1.92,3.83-4.25,3.8-7.84-.08-12.59.36-25.18.6-37.93-5.28,0-10.98.38-16.62-.1-7.14-.61-14.38-1.31-21.28-3.1-6.39-1.66-12.52-.35-18.26.99-8.11,1.9-16.14,2.5-24.33,2.57-2.46.02-4.93,0-7.39,0,.13,2.66.34,5.53.38,8.4.16,11.08.25,22.17.43,33.25.01.62.45,1.59.94,1.79,3.8,1.58,6.24,4.49,8,8.03,8.1,16.27,12.11,33.73,13.88,51.63,1.09,11.01.71,22.17,1.04,33.26.13,4.34.4,8.68.62,13.01.46,8.9,1.11,17.8,1.34,26.71.16,6.34-.3,12.69-.37,19.03-.07,6.74-.06,13.48.01,20.22.03,3.09.19,6.19.51,9.26.39,3.81-1.99,7.54-5.9,8.58-1.45.39-3.02.41-4.53.5-6.97.39-13.95.6-20.9,1.16-8.57.69-17.1,1.83-25.67,2.46-6.49.47-6.5.25-7.6,6.73-.04.24-.09.48-.1.72-.5,8.17-1.39,16.34-1.39,24.5,0,8.66.86,17.32,1.29,25.99.11,2.19.02,4.4.02,6.75,1.04-.13,1.59-.21,2.14-.26,8.11-.8,15.51-4.12,23.15-6.59,4.63-1.5,8.55-4.15,11.23-8.32,2.56-3.97,5.13-7.94,7.43-12.06,1.84-3.28,4.1-5.8,8.04-6.14,6.33-.54,10.86,4.6,10.17,11.38-.36,3.52-.64,7.04-.9,10.57-.49,6.65-.56,13.37-1.5,19.96-1.82,12.74-1.61,25.51-1.3,38.29.12,4.95.8,9.92,1.61,14.82.84,5.02-.17,8.32-4.72,10.73-3.02,1.6-4.04,3.05-3.6,6.86,1.02,8.83.99,17.79,1.36,26.7.06,1.42,0,2.85,0,4.69,5.92-2.79,11.84-1.95,17.67-2.01,6.83-.08,13.66-.09,20.49.03,6.54.11,13.19-1.01,19.65,1.84.24-5.03.47-9.81.7-14.6.26-5.54.13-11.13.94-16.59.52-3.51-.2-5.29-3.41-6.75-3.99-1.82-5.72-5.22-5.17-9.68.52-4.21,1.31-8.43,1.39-12.65.2-10.84.18-21.69,0-32.52-.07-4.24-.94-8.45-1.27-12.69-.71-8.97-1.24-17.96-1.98-26.94-.43-5.21,2.15-9.78,6.57-11.11,4.7-1.41,9.19.89,11.62,5.83,1.27,2.6,2.48,5.27,4.1,7.64,3.55,5.2,7.29,10.28,13.68,12.39,5.95,1.97,11.87,4.05,17.87,5.85,2.51.75,5.2.91,8.31,1.42ZM351.32,601.56c-7.61-1.2-14.91-2.37-22.21-3.51-1.32-.21-2.72-.72-3.18,1.34-1.02,4.46-2.58,8.84-3.1,13.35-.9,7.65-1.18,15.37-1.67,23.06-.04.6.29,1.22.43,1.83.37,1.55.99,3.09,1.05,4.65.09,2.47-.39,4.97-.29,7.44.19,4.32.44,8.66,1.03,12.94.81,5.96,1.37,12.04,3.08,17.76,3.15,10.55,5.81,21.19,7.29,32.06,1.16,8.48,1.31,17.09,2.18,25.61.71,6.99-.39,13.77-1.52,20.6-1.93,11.59-8,20.38-17.45,27.21-5.43,3.92-11.69,5.6-17.8,7.74-7.21,2.52-14.45,3.63-21.73-.14-3.62-1.87-7.85-2.75-11.15-5.03-5.68-3.9-11.74-6.26-18.52-6.39-3.96-.07-8.25-.08-11.85,1.29-6.54,2.49-12.68,6.05-19,9.13-4.74,2.31-9.7,4.56-15.01,3.2-7.44-1.9-15.2-3.53-21.95-6.99-11.69-6.01-19.81-15.56-21.95-29.08-.95-6.01-1.94-12.11-1.92-18.16.04-8.08.78-16.19,1.72-24.23.78-6.66,2.06-13.28,3.52-19.83,1.5-6.72,3.77-13.26,5.19-19.99,1.22-5.79,1.9-11.71,2.46-17.6.43-4.52.31-9.1.45-13.65.06-2.01-.37-4.23.35-5.97,1.58-3.85,1-7.72.95-11.6-.02-1.84-.41-3.68-.42-5.51-.03-8.04-1.92-15.75-4.02-23.44-.38-1.39-1-1.99-2.54-1.73-7.59,1.26-15.19,2.44-22.95,3.67.12,4.82-.39,9.56-3.52,13.79,6.22,5.49,7,12.93,6.35,20.23-.67,7.47-4.63,13.89-9.07,18.9,1.06,3.6,2.29,6.66,2.81,9.84.65,3.94.4,8.04,1.11,11.96,2.06,11.35-3.1,27.01-14.39,32.12-.12.05-.17.26-.12.18,3.53,10.32,4.42,20.58.69,30.78-3.79,10.36-10.98,17.77-20.98,21.89,13.29,18.1,18.55,36.85,7.6,57.76,6.78.03,10.64,1.97,13.96,4.93,6.31,5.62,14.12,9.65,18.66,17.4,1.58-3.72,2.99-7.29,4.59-10.77,3.98-8.64,9.45-15.86,18.74-19.44,8.66-3.34,16.98-3.59,24.59,2.54,5.17,4.16,10.2,8.5,15.43,12.87,8.45-14.35,21-22.58,38.67-22.61,17.76-.03,30.4,8.18,39.35,23.25,4.71-5.94,10.33-10.5,16.4-14.41,2.83-1.82,6.26-3.56,9.5-3.74,11.95-.67,21.79,3.89,28.22,14.19,3.5,5.62,6.09,11.81,8.87,17.32,2.14-2.21,4.56-4.85,7.14-7.33,1.44-1.39,3.18-2.46,4.71-3.76,6.1-5.21,11.94-10.89,20.75-10.38-10.97-21.13-5.7-39.88,7.6-57.85-10.11-4.14-17.22-11.53-21.01-21.82-3.77-10.27-2.85-20.6.62-30.62-2.35-1.82-5.07-3.3-6.94-5.5-5.2-6.12-8.07-13.3-7.84-21.45.11-3.99.71-7.97.91-11.97.26-5.24.55-10.45,3.92-14.8-5.12-5.66-8.89-12.04-9.6-19.45-.71-7.43.2-14.87,6.31-20.31-3.17-4.29-3.62-8.97-3.52-13.75ZM254.32,588.35c-.19,2.11-.52,4.17-.53,6.23-.06,9.88-.15,19.77,0,29.65.08,5.53.52,11.05.97,16.57.6,7.35,1.4,14.68,2.04,22.02,1.08,12.33,2.38,24.64,3.07,36.99.55,9.87.4,19.78.46,29.67.07,10.77.07,21.54-2.02,32.71,5,1.7,9.98,3.74,15.15,5.08,6,1.55,11.97.81,17.6-1.96,2.45-1.2,4.99-2.26,7.29-3.71,2.33-1.47,4.99-2.94,6.48-5.11,4.81-6.97,7.25-14.8,6.86-23.39-.14-2.97-.1-5.95-.27-8.92-.25-4.32-.52-8.65-.94-12.96-.64-6.62-1.43-13.23-2.1-19.85-.78-7.75-1.73-15.5-2.17-23.28-.39-7.04-.45-14.12-.17-21.17.29-7.12,1.04-14.24,1.87-21.32.74-6.36,1.7-12.71,2.89-19.01.69-3.66,1.99-7.2,3.05-10.9-5.27-.74-10.26-1.58-15.28-2.12-5.55-.6-5.6-.49-7.11,5.04-1.7,6.22-2.27,12.53-2.24,19.02.05,11.08-.28,22.17-.97,33.23-.39,6.29-1.54,12.58-2.83,18.77-.97,4.67-5.07,6.97-9.25,5.93-3.94-.99-5.98-4.95-5.43-9.52.95-7.87,2.14-15.78,2.23-23.68.15-13.64,1.05-27.33-1.32-40.91-.67-3.85-.97-7.75-1.44-11.72-5.44-.47-10.6-.92-15.92-1.38ZM178.21,595.71c.39,1.31.75,2.36,1.01,3.44,1.26,5.14,2.7,10.24,3.66,15.44.78,4.25,1.03,8.6,1.4,12.91.82,9.59,1.9,19.18,2.21,28.8.2,6.06-.75,12.16-1.29,18.24-.92,10.39-1.63,20.82-2.97,31.16-1.31,10.09-1.57,20.17-1.61,30.3-.03,6.42,2.03,12.18,4.77,17.75,1.97,4,5.03,6.98,9.47,8.43,2.04.66,3.86,1.97,5.82,2.88,1.59.74,3.2,1.51,4.89,1.96,10.23,2.76,19.26-.93,28.19-5.33-.3-1.71-.78-3.36-.84-5.02-.34-10.35-.77-20.71-.81-31.07-.05-13.66-.26-27.31,1.3-40.94,1.39-12.19,2.05-24.46,3.02-36.69.49-6.24,1.16-12.46,1.4-18.71.4-10.18.61-20.38.72-30.57.04-3.42-.46-6.84-.71-10.35-5.43.48-10.67.95-15.88,1.41-.85,6.2-1.99,12.13-2.41,18.12-.51,7.37-.5,14.77-.56,22.16-.09,12.21.29,24.39,2.34,36.47.78,4.55-1.86,8.42-5.88,9.14-4.29.77-7.83-1.79-8.95-6.46-.47-1.95-1.07-3.88-1.43-5.85-1.97-10.98-1.92-22.08-1.74-33.18.02-1.35-.08-2.71-.13-4.06-.14-3.61-.49-7.23-.38-10.84.21-7.01-1.09-13.69-3.45-20.25-.62-1.71-1.55-2.14-3.21-1.89-5.87.89-11.75,1.7-17.96,2.6ZM312.25,436.65c-.16,3.2-.51,6.32-.45,9.43.17,7.87.71,15.74.76,23.62.06,9.64-.23,19.29-.36,28.93-.07,5.06-.02,10.13-.21,15.19-.22,6.04-3.72,9.25-9.76,9.2-2.33-.02-4.66-.04-7-.05-5.15,0-10.3,0-15.45,0-5.85.01-11.83-.7-17.53.24-7.38,1.21-14.73,1.12-22.08,1.08-6.88-.04-13.75-1.09-20.64-1.49-3.11-.18-6.24.2-9.36.21-6.6.03-13.19-.06-19.79,0-6.73.07-10.14-3.12-10.29-9.9-.24-11.17-.59-22.34-.6-33.51,0-10.21.42-20.42.6-30.63.07-4.14.01-8.28.01-12.56-1.59,0-2.71.1-3.81-.02-2.01-.22-3.08.41-3.38,2.57-.42,3.02-1.19,5.98-1.72,8.99-1.18,6.63-2.49,13.25-3.41,19.92-.95,6.84-1,13.84-2.34,20.59-3.18,16.07-6.9,32.04-10.37,48.06-.69,3.17-1.25,6.37-1.92,9.76.99-.08,1.54-.11,2.09-.16,6.14-.6,12.31-1.04,18.43-1.83,5.95-.77,12-1.4,17.76-2.99,9.12-2.53,18.36-3.94,27.74-4.65,4.71-.36,9.42-.7,14.14-.92,6.16-.28,12.34-.73,18.5-.56,7.68.21,15.38.7,23.01,1.58,7.48.87,14.9,2.3,22.32,3.66,5.52,1.01,10.95,2.51,16.48,3.4,4.89.78,9.88,1.01,14.82,1.48,3.4.33,6.8.65,10.61,1.02-1.36-6.49-2.61-12.61-3.93-18.71-2.83-13.03-5.91-26.01-8.45-39.1-1.21-6.21-1.18-12.65-2.14-18.92-1.41-9.2-3.15-18.34-4.83-27.5-1.28-6.97-.03-5.52-6.99-5.62-.07,0-.14.05-.46.18ZM376.72,579.3c-11.61-48.93-24.53-97.03-42.02-144.06-.24.05-.95.22-1.75.4,1.01,4.71,2.04,9.17,2.92,13.65,3.47,17.65,6.79,35.33,10.37,52.96,2.87,14.09,5.92,28.14,9.13,42.16,1.12,4.9,1.21,9.38-1.15,14.01-1.37,2.7-3.06,4.75-5.94,5.01-7.11.65-14.31,1.69-21.38,1.21-11.44-.78-22.82-2.57-34.2-4.08-11.79-1.57-23.54-3.37-35.32-4.96-3.81-.52-7.72-1.27-11.5-.95-9.27.79-18.51,2.07-27.74,3.29-15.77,2.08-31.48,4.66-47.29,6.25-8.01.8-16.19-.23-24.29-.2-7.92.03-11.05-8.62-10.61-14.21.29-3.67,1.01-7.33,1.8-10.93,2.22-10.21,4.65-20.36,6.84-30.58,3.21-15,6.37-30,9.37-45.04,1.82-9.12,3.3-18.3,4.97-27.69-.62-.11-1.35-.23-1.5-.26-17.51,47.08-30.44,95.15-42.02,144.08,4.28-.42,8.11-.7,11.91-1.17,11.08-1.36,22.16-2.71,33.22-4.22,8.99-1.23,17.93-2.87,26.93-3.97,7.65-.94,15.36-1.39,23.05-2.01,5.51-.45,11.03-1.14,16.55-1.2,14.63-.17,29.27-.07,43.91-.04,1.52,0,3.05.16,4.57.32,5.98.64,11.97,1.26,17.94,1.97,10.93,1.29,21.91,2.23,32.76,4.04,14.43,2.4,28.84,4.82,43.48,5.61,2.22.12,4.43.39,7.02.63ZM347.61,433.41c17.48,37.78,28.41,77.88,38.36,118.72,3.45-1.1,6.32-2.02,9.19-2.93,3.11-.99,6.17-2.29,9.36-2.87,4.36-.8,8.81-1.06,13.39-1.57-4.64-9.73-9.09-19.15-13.63-28.54-2.17-4.48-4.58-8.83-6.73-13.32-3.74-7.81-7.36-15.68-11.04-23.53-.75-1.6-1.57-3.16-2.26-4.78-1.93-4.58-3.59-9.3-5.76-13.76-4.74-9.72-9.72-19.32-14.64-28.96-1.08-2.11-2.29-4.15-3.28-5.92-4.25,2.45-8.26,4.76-12.95,7.46ZM144.48,433.41c-4.7-2.72-8.76-5.07-13.1-7.58-1.56,3.23-3.12,6.65-4.84,9.99-3.99,7.77-8.24,15.42-12.03,23.28-3.87,8.01-7.28,16.24-10.96,24.35-3.78,8.33-7.51,16.68-11.48,24.92-3.87,8.03-8.05,15.9-12,23.89-2.01,4.07-3.82,8.25-5.99,12.95,11.36-.75,21.46,3.21,32.07,7.07,9.89-41.12,20.94-81.1,38.32-118.87ZM202.74,431.52c-3.22.98-5.95,1.91-8.73,2.62-1.44.37-1.76,1.14-1.56,2.43.22,1.42.59,2.86.59,4.28-.02,8.43-.24,16.86-.18,25.29.08,11.49.36,22.98.56,34.47,0,.29.14.57.18.74,1.74.17,3.35.56,4.92.43,7.27-.59,14.65-.72,21.76-2.17,8.86-1.81,17.74-1.61,26.63-1.95,11.19-.43,22.24,1.38,33.27,2.93,6.14.86,12.2,1.37,18.28.81.26-8.2.63-16.3.73-24.4.07-5.62-.42-11.24-.34-16.86.11-7.86.54-15.72.78-23.58.02-.69-.24-1.85-.65-2-3.05-1.08-6.17-1.96-9.95-3.11,0,5.45.09,10.34-.02,15.22-.22,10.35-.58,20.7-.81,31.05-.09,4.2-2.62,7.49-6.8,8.09-2.04.29-4.15.03-6.23.05-2.71.03-5.49-.3-8.1.21-6.82,1.33-13.24.52-19.52-2.36-.85-.39-2.19-.39-3.03,0-4.69,2.22-9.63,3.48-14.73,2.92-5.43-.6-10.78-1.63-16.25-.48-.75.16-1.6-.1-2.39-.22-4.68-.73-7.21-3.78-7.15-8.46.05-4.1.13-8.21,0-12.31-.36-10.18-.83-20.36-1.25-30.54-.04-.87,0-1.74,0-3.08ZM71.67,512.56c1.44-2.84,2.86-5.35,4.01-7.98,3.29-7.48,5.97-15.26,11.11-21.8.74-.94,1.31-2.02,1.85-3.1,3.7-7.37,7.06-14.94,11.15-22.09,4.02-7.02,8.88-13.54,13.16-20.41,1.83-2.93,3.11-6.21,4.64-9.33-.22-.14-.44-.29-.67-.43-29.96,19.06-58.92,39.49-85.91,62.32,13.68,7.58,28.01,13.58,40.65,22.81ZM419.85,512.01c13.83-7.54,27.45-14.97,41.08-22.41-26.85-22.67-55.78-43.14-85.98-61.98.26,1.43.59,2.76,1.25,3.9,3.18,5.47,6.44,10.9,9.68,16.34,4.1,6.87,8.69,13.51,12.2,20.67,3.68,7.51,7.35,14.96,12.15,21.83.5.71.83,1.56,1.18,2.37,2.88,6.58,5.75,13.17,8.43,19.29ZM393.95,325.18c6.69,1.44,13.38,1.77,20.23-.55,14.44-4.88,24.18-13.97,25.8-29.5,1.18-11.25-.48-22.44-4.95-33.04-1.84-4.37-4.15-8.31-8.31-10.93-.84-.53-1.6-1.44-2-2.35-.54-1.23-1.29-1.51-2.55-1.59-8.02-.56-16.02-1.3-23.71-3.86-2.27-.76-4.53-1.52-7.16-2.41.19,1.1.32,1.86.44,2.62.52,3.25,1.21,6.49,1.52,9.76,1.15,12.09,1.61,24.19,1.11,36.35-.49,11.79-.31,23.62-.43,35.49ZM98.27,325.27c.01-28.1-2.82-56.14,2.44-84.17-.75.19-1.29.26-1.79.45-8.34,3.13-16.92,5.01-25.85,5.35-2.58.1-5.49-.07-6.62,3.27-.18.53-.86.97-1.4,1.3-4.98,2.99-6.99,8.01-8.92,13.05-3.62,9.47-4.72,19.4-4.12,29.38.43,7.17,2.68,14.08,7.82,19.55,7.06,7.54,16.1,11.25,26.04,13.07,1.01.18,2.09.12,3.12,0,3.1-.37,6.19-.83,9.27-1.25ZM280.4,220.62c7.69.37,15.35.76,23.01,1.09,5.04.21,10.08.43,15.12.47,8.67.08,17.35,0,26.02.03,3.44.01,6.87.17,10.31.26,2.33.06,4.66.05,6.98.19,4.46.28,8.94.47,13.35,1.08,1.53.21,2.35.02,3.57-.9,1.39-1.05,3.3-2.02,4.97-1.98,2.58.06,5.15.91,7.69,1.58,2.32.61,4.55,1.83,6.9,2.07,7.13.72,14.31,1.01,21.45,1.64,5.59.49,11.15,1.23,16.73,1.82,1,.1,2.07.22,3.01-.05,2.39-.68,4.81-1.38,7.06-2.43,2.99-1.39,5.83-3.11,8.74-4.7-5.09-.24-9.94.39-14.79.34-8.89-.09-17.8-.25-26.65-1-10.71-.91-21.34-2.62-32.04-3.68-7.63-.76-15.3-1.1-22.96-1.48-8.48-.42-16.97-.73-25.45-.97-5.45-.15-10.91-.02-16.36-.14-11.08-.24-22.16-.56-33.25-.84-1.09-.03-2.19,0-3.42,0v7.59ZM37.08,220.28c-.1.25-.2.5-.29.75,3.58,1.73,7.1,3.58,10.75,5.15,2.2.95,4.61,2.14,6.87,2.03,5.34-.26,10.63-1.33,15.95-1.9,3.97-.43,7.96-.76,11.94-.85,6.43-.15,12.76-.61,18.77-3.18,1.25-.53,2.56-1.01,3.89-1.28,3.3-.69,6.36-.33,8.96,2.18.52.5,1.64.62,2.45.55,2.38-.21,4.75-.78,7.13-.89,4.16-.18,8.33-.06,12.5-.18,6.88-.2,13.76-.56,20.65-.72,6.64-.16,13.29-.12,19.93-.23,7.94-.13,15.88-.27,23.81-.49,3.81-.11,7.62-.4,11.27-.61v-7.58c-1.16,0-2.11-.03-3.06,0-7.86.26-15.73.58-23.59.79-10.18.26-20.36.39-30.53.67-9.77.26-19.54.58-29.3.98-5.11.21-10.22.5-15.31.99-8.72.85-17.42,1.88-26.13,2.86-4.43.5-8.85,1.31-13.3,1.52-6.57.31-13.15.32-19.73.23-4.54-.06-9.08-.51-13.62-.79ZM206.77,138.66c-.93-1.52.28-3.88-2.51-3.93-6.82-.13-13.64-.27-20.46-.42-7.14-.15-14.28-.32-21.42-.48-8.51-.19-17.02-.51-25.54-.53-10.05-.02-20.09.16-30.14.36-4.37.09-8.75.32-13.11.69-8.19.71-16.38,1.55-24.56,2.38-6.14.62-12.28,1.35-18.43,1.94-5.63.54-11.27,1.03-16.91,1.41-4.15.28-8.32.3-12.48.53-1.8.1-3.59.46-5.61.73.11,1.99.21,3.94.32,6.01,1.08,0,1.8-.04,2.51,0,12.81.75,25.47-1.36,38.21-1.93,3.51-.16,7.04-.2,10.54-.57,9.78-1.02,19.54-2.27,29.33-3.27,6.28-.64,12.58-1.06,18.88-1.49,9.97-.68,19.94-1.59,29.92-1.84,9.46-.24,18.95.28,28.42.38,6.44.07,12.88.01,19.31.01,4.41,0,8.82,0,13.71,0ZM476.22,141.1c-5.44-.33-10.85-.66-16.25-1-4.92-.31-9.86-.49-14.77-.98-8.69-.86-17.35-1.98-26.03-2.85-6.29-.63-12.6-1.04-18.9-1.5-7.79-.57-15.57-1.41-23.37-1.54-9.15-.15-18.3.33-27.46.54-7.7.18-15.4.4-23.1.52-12.37.19-24.74.32-37.1.44-3.33.03-3.67.38-3.35,4.06.38,0,.76,0,1.15,0,12.77-.2,25.54-.63,38.31-.56,14.2.07,28.39.54,42.58.95,4.15.12,8.28.62,12.42.98,6.92.61,13.83,1.25,20.74,1.88,4.3.39,8.6.79,12.9,1.2,7.8.74,15.59,1.53,23.39,2.24,6.3.57,12.61,1.24,18.93,1.48,6.56.26,13.13.06,19.91.06v-5.92ZM210.39,181.47c-.25-.13-.39-.27-.53-.27-15.64-.02-31.28-.22-46.91.02-12,.18-23.99.85-35.99,1.41-7.98.37-15.96.72-23.91,1.49-7.93.77-15.83,1.98-23.72,3.1-7.91,1.13-15.77,3-23.71,3.43-9.43.51-18.93-.15-28.41-.33-2.21-.04-4.42-.22-6.95-.35.8,2.93,1.55,5.69,2.34,8.58,1.63,0,3.15.11,4.66-.02,6.61-.58,13.22-1.19,19.82-1.86,8.44-.86,16.88-1.76,25.32-2.69,9.25-1.01,18.49-2.13,27.74-3.09,3.57-.37,7.19-.3,10.77-.61,4.19-.36,8.37-.97,12.56-1.37,4.21-.4,8.42-.67,12.64-1.02,7.71-.63,15.4-1.53,23.12-1.83,8.43-.32,16.9-.23,25.34-.01,4.68.12,9.34,1.01,14.03,1.28,3.9.22,7.82.05,11.8.05v-5.91ZM281.73,187.4c3.97,0,7.82.17,11.65-.04,5.41-.31,10.79-1.26,16.2-1.3,10.83-.09,21.67.17,32.51.45,4.22.11,8.43.6,12.64.98,6.5.59,12.99,1.29,19.49,1.86,4.43.39,8.88.6,13.31,1,5.03.46,10.05,1.03,15.08,1.58,7.81.85,15.62,1.71,23.43,2.59,4.69.53,9.38,1.16,14.07,1.67,5.8.64,11.6,1.28,17.42,1.78,3.97.34,7.96.44,11.98.64.81-3.04,1.54-5.79,2.33-8.77-3.88.34-7.36.86-10.84.92-7.72.14-15.45.05-23.17.04-.72,0-1.45.01-2.16-.1-4.96-.77-9.91-1.61-14.88-2.34-5.56-.81-11.13-1.55-16.7-2.27-7.96-1.03-15.92-2.19-23.91-2.96-6.28-.6-12.61-.7-18.92-1.02-6.07-.32-12.13-.7-18.2-.95-6.01-.24-12.02-.45-18.03-.47-4.56-.02-9.12.39-13.69.43-9.09.07-18.18.02-27.27.02-.77,0-1.55,0-2.34,0v6.25ZM476.18,128.17c-14.45-.7-28.45-1.28-42.44-2.12-6.75-.41-13.5-1.09-20.19-2.04-13.88-1.96-27.82-2.59-41.81-2.33-16.13.3-32.26.73-48.4.98-9.78.15-19.56-.02-29.34.09-4.44.05-4.62.42-5.36,5.32.82,0,1.61.02,2.41,0,5.13-.16,10.26-.36,15.39-.5,7.3-.19,14.59-.36,21.89-.49,8.67-.16,17.35-.3,26.02-.4,15.24-.18,30.46.34,45.64,1.84,2.46.24,4.94.33,7.4.57,6.01.59,12.02,1.29,18.03,1.83,4.67.42,9.36.58,14.02,1,8.5.75,17,1.6,25.5,2.41.47.05.94.19,1.42.22,3.3.24,6.6.46,9.82.68v-7.05ZM15.92,127.55v7.51c6.31-.26,12.53-.46,18.75-.8,3.34-.19,6.66-.57,9.98-.98,5.45-.67,10.88-1.5,16.33-2.13,2.29-.26,4.63-.08,6.94-.27,4.75-.4,9.49-.97,14.24-1.39,4.45-.39,8.91-.66,13.36-1.02,6.85-.55,13.69-1.46,20.55-1.62,8.99-.22,17.99.13,26.98.26,9.31.13,18.62.32,27.93.43,5.39.07,10.78.06,16.17.07,5.44.01,10.88,0,16.3,0-.25-3.26-1.1-4.53-3.69-4.84-2.37-.29-4.78-.52-7.16-.51-4.25.03-8.51.45-12.76.36-9.46-.19-18.91-.87-28.37-.84-18.97.06-37.94.17-56.89.85-10.28.37-20.51,2.04-30.77,2.98-8.1.75-16.21,1.52-24.34,1.86-7.7.31-15.43.07-23.56.07ZM281.74,175.36c.93,0,1.71,0,2.5,0,12.53-.16,25.06-.39,37.59-.45,5.37-.03,10.73.27,16.1.46,3.12.11,6.23.32,9.34.46,7.27.33,14.55.66,21.82.97,4.32.18,8.64.29,12.96.51,2.47.13,4.94.33,7.39.63,5.68.7,11.34,1.48,17.01,2.24,5.43.72,10.86,1.4,16.28,2.2,7.4,1.09,14.68,2.97,22.28,2.67,9.33-.37,18.67-.43,28.04-.62.24-1.52.43-2.7.64-4.04-.75-.24-1.41-.6-2.09-.66-5.64-.52-11.28-1.16-16.94-1.44-6.89-.34-13.8-.29-20.69-.57-5.03-.2-10.07-.52-15.08-1.03-13.14-1.34-26.26-2.92-39.4-4.19-6.2-.6-12.44-.75-18.67-1-9.04-.37-18.08-.72-27.13-.96-9.07-.24-18.14-.32-27.2-.51-4.56-.1-9.13-.36-13.69-.45-3.67-.08-7.33-.02-11.05-.02v5.79ZM210.26,175.35v-5.3c-6.1,0-11.94-.06-17.79.02-5.85.08-11.7.3-17.55.46-11.86.32-23.72.65-35.57.97-6.49.17-12.99.32-19.48.49-.24,0-.48,0-.72.02-6.28.58-12.55,1.17-18.83,1.76-6.55.61-13.09,1.25-19.64,1.84-8.04.73-16.08,1.59-24.14,2.11-6.4.41-12.83.3-19.24.58-4.23.18-8.45.56-12.66.97-2.07.2-4.11.66-6.28,1.02.28,1.6.49,2.77.68,3.88,1.34,0,2.52-.08,3.69.01,3.1.24,6.2.75,9.3.81,6.27.13,12.56.18,18.82-.02,3.56-.11,7.12-.7,10.66-1.24,6.28-.95,12.52-2.16,18.81-3.02,6.07-.83,12.17-1.37,18.26-2.01,6.18-.65,12.35-1.4,18.54-1.85,6.7-.49,13.41-.76,20.13-.98,7.54-.25,15.08-.4,22.62-.49,6.39-.08,12.78-.03,19.17-.03,10.37,0,20.73,0,31.21,0ZM475.78,117.62c-2.36-.17-4.59-.29-6.81-.51-7.12-.69-14.22-1.59-21.35-2.09-9.19-.65-18.41-1.02-27.61-1.47-10.83-.52-21.66-1.03-32.5-1.48-5.94-.25-11.9-.29-17.84-.6-8-.41-15.98-1.11-23.99-1.47-7.39-.33-14.79-.26-22.18-.54-7.78-.3-15.55-.84-23.33-1.21-.79-.04-1.78.15-2.36.62-2.5,2.03-3.95,4.75-4.73,7.9,6.02-.25,11.92-.53,17.83-.75,9.7-.35,19.4-1,29.09-.93,18.95.14,37.92-.9,56.84.89,2.55.24,5.15.07,7.69.42,9.01,1.22,17.97,2.81,27,3.82,7.45.83,14.96,1.21,22.46,1.49,6.35.24,12.71.05,19.06.05.85,0,1.71,0,2.71,0v-4.14ZM16.45,121.67c.73.05,1.05.09,1.36.09,12.58-.01,25.16.24,37.69-1.4,6.63-.86,13.31-1.29,19.96-2.03,9.3-1.04,18.59-3.08,27.89-3.09,19.35-.04,38.71-.9,58.09.6,12.45.96,25.01.5,37.51.67-.73-2.8-2.07-5.51-4.54-7.5-.6-.48-1.54-.81-2.31-.78-15.82.54-31.64,1.16-47.46,1.73-1.36.05-2.74-.26-4.08-.14-6.48.54-12.94,1.39-19.42,1.72-15.17.78-30.35,1.33-45.53,1.98-8.41.36-16.83.56-25.23,1.11-6.97.45-13.92,1.31-20.88,1.95-4.38.4-8.77.74-13.37,1.12.11,1.38.21,2.62.32,3.99ZM474.98,166.54c-4.56,0-8.82.09-13.07-.02-7.46-.2-14.93-.47-22.39-.8-5.29-.23-10.58-.66-15.87-.9-6.41-.28-12.83-.39-19.24-.69-3.76-.18-7.51-.71-11.27-.89-8.9-.42-17.81-.75-26.72-1.08-12.61-.47-25.22-.94-37.83-1.37-14.62-.51-29.25-.95-43.87-1.52-1.95-.08-2.67.52-2.52,2.39.05.62,0,1.24,0,1.88,5.54.25,10.88.54,16.23.71,6.65.22,13.31.34,19.96.49,7.54.17,15.08.27,22.62.5,8.08.25,16.15.59,24.23.96,10.97.5,21.94.99,32.9,1.63,5.6.33,11.19.99,16.78,1.49,6.53.58,13.06,1.19,19.59,1.7,3.35.26,6.72.34,10.08.48,9.89.4,19.79.79,29.81,1.19.16-1.36.37-3.02.55-4.69.04-.38,0-.78,0-1.45ZM209.81,163.61c.23-4.39.23-4.43-3.83-4.23-8.75.43-17.5,1.09-26.25,1.31-9.57.24-19.15-.16-28.72.16-12.2.41-24.39,1.29-36.59,1.9-7.86.39-15.73.6-23.58,1.01-3.28.17-6.54.8-9.82.92-5.05.18-10.14-.24-15.17.18-13.78,1.15-27.56,2.08-41.41,1.61-2.38-.08-4.77-.01-7.41-.01.24,2.4.45,4.45.67,6.7,3.58-.4,7.04-.95,10.51-1.15,7.35-.42,14.72-.88,22.08-.93,9.31-.07,18.54-.8,27.8-1.79,13.3-1.43,26.68-2.2,40.03-3.06,7.98-.52,15.99-.69,23.98-1,4.88-.19,9.77-.36,14.65-.48,7.46-.19,14.92-.35,22.38-.49,9.87-.18,19.75-.33,29.62-.5.31,0,.61-.08,1.04-.14ZM366.58,381.88c-4.37-.66-8.81-1.42-13.28-1.94-1.63-.19-3.34.39-4.98.26-5.07-.41-10.13-1-15.19-1.52-1.19-.12-2.38-.22-3.56-.37-4.02-.5-8.04-.97-12.05-1.54-7.28-1.03-14.53-2.19-21.82-3.18-3.13-.43-6.3-.58-9.57-.87v8.88c3.77,0,7.39-.18,10.98.04,6.81.41,13.61,1.23,20.42,1.52,7.78.34,15.57.23,23.35.44,7.69.21,15.37.53,23.05.9,1.7.08,2.6-.43,2.64-2.62ZM206.01,372.75c-1.35.09-2.39.07-3.41.24-4.26.69-8.48,1.57-12.75,2.14-8.31,1.1-16.61,2.51-24.96,2.93-8.74.44-17.34,2.17-26.15,1.99-4.37-.09-8.76,1.15-13.04,1.78-.24,3.08,1.58,2.74,3.17,2.59,1.9-.18,3.79-.65,5.69-.69,12.13-.24,24.27-.41,36.4-.54,2.57-.03,5.15.39,7.7.23,8.51-.52,17.01-1.22,25.52-1.85.62-.05,1.23-.11,1.83-.16v-8.66ZM279.53,240.33c3.72.25,7.14.67,10.56.67,5.77,0,11.54-.48,17.3-.4,23.1.31,46.23-1,69.55,1.02-.19-1.07-.35-1.98-.5-2.84-4.96-.38-9.73-.81-14.5-1.1-6.39-.39-12.78-.71-19.18-.97-5.77-.23-11.54-.45-17.31-.49-13.92-.09-27.84-.08-41.75-.11-1.34,0-2.68,0-4.17,0v4.23ZM212.64,240.53c.24-4.38.24-4.45-3.54-4.41-16.39.16-32.77.3-49.16.59-8.89.16-17.77.57-26.65.95-5.82.25-11.64.66-17.61,1.01-.17.96-.33,1.87-.5,2.86,32.56-2.35,64.95-.01,97.46-1ZM377.85,265.48c-1.22,0-2.26.06-3.29,0-10.7-.72-21.4-1.49-32.1-2.2-7.97-.53-15.94-1.06-23.92-1.44-5.92-.29-11.86-.34-17.78-.51-4.81-.14-9.61-.35-14.42-.48-2.47-.06-4.94-.01-7.52-.01-.09,1.64-.18,3.13-.28,4.98,3.21-.19,6.23-.52,9.24-.51,7.88.04,15.75.21,23.63.38,3.44.08,6.87.3,10.31.47,10.06.48,20.13.96,30.19,1.46,3.75.19,7.49.45,11.24.66,4.85.28,9.71.54,14.7.81v-3.6ZM114.25,269.27c1.57-.23,2.82-.51,4.09-.58,10.22-.55,20.45-1.02,30.67-1.58,7.97-.43,15.94-1.23,23.92-1.38,12.2-.22,24.41-.02,36.62,0,1.33,0,2.66,0,4.08,0-.15-1.92-.26-3.4-.39-5-1.16,0-2.12-.02-3.07,0-6.09.19-12.19.4-18.28.57-6.25.18-12.5.3-18.75.5-3.04.1-6.07.29-9.1.49-6.85.46-13.69.95-20.54,1.43-2.71.19-5.42.39-8.12.58-7,.49-14.01.98-21.12,1.47v3.48ZM376.08,228.92c-3.08-.21-5.96-.42-8.83-.59-7.85-.45-15.7-1.02-23.56-1.27-9.92-.31-19.85-.34-29.77-.53-6.33-.12-12.66-.36-19-.46-4.94-.08-9.89-.02-14.94-.02v4.33c.58.03.98.06,1.37.07,18.89.15,37.78.26,56.67.45,6.18.06,12.35.24,18.53.5,2.94.13,5.85.74,8.79.86,3.72.16,7.44.04,11.4.04-.18-.92-.38-1.99-.65-3.4ZM212.18,225.6c-1.88.28-3.61.72-5.34.76-5.6.14-11.2.09-16.8.2-4.88.1-9.76.37-14.65.45-7.54.13-15.08.12-22.63.25-8.35.14-16.69.28-25.03.62-3.89.16-7.76.77-11.78,1.18-.18,1.32-.34,2.45-.52,3.76.89,0,1.45.04,2,0,5.96-.47,11.91-1.13,17.88-1.39,10.49-.46,20.99-.86,31.49-.97,14.24-.15,28.49,0,42.73.01.86,0,1.72,0,2.63,0v-4.87ZM285.68,408.74c3.34.45,6.61,1.05,9.9,1.28,4.62.32,9.27.3,13.9.55,2.93.16,5.86.53,8.78.86,4.42.49,8.85.93,13.25,1.56,4.23.6,8.42,1.43,12.64,2.12.82.13,1.98.4,2.48-.01,2.11-1.73,4.03-3.7,6.19-5.75-6.7-.59-12.89-1.25-19.09-1.65-7.02-.46-14.06-.69-21.08-1.01-7.02-.32-14.05-.64-21.07-.97-1.95-.09-3.89-.25-5.9-.38v3.4ZM206.28,405.32c-5.22.46-10.28,1.1-15.37,1.31-5.45.23-10.94-.15-16.39.12-7.65.37-15.28,1.12-22.92,1.67-3.99.29-7.98.49-12.46.76,2.03,2,3.64,3.57,5.22,5.16,1.08,1.08,2.2,1.24,3.71.78,2.42-.73,4.91-1.3,7.42-1.64,3.7-.5,7.44-.71,11.16-1.1,5.77-.59,11.52-1.31,17.29-1.81,6.58-.58,13.19-.92,19.78-1.48,2.96-.25,2.95-.39,2.56-3.76ZM378.84,292.89c0-2.39-.03-4.31.01-6.22.03-1.39-.7-1.77-1.94-1.8-3.84-.11-7.68-.21-11.52-.44-3.82-.23-7.64-.64-11.46-.94-3.55-.28-7.11-.5-10.84-.77.24,1.78.47,3.03.58,4.3.17,2.09,1.05,2.81,3.33,2.89,6.52.22,13.03.77,19.53,1.36,4.01.37,8,1.04,12.31,1.62ZM113.14,292.8c2.45-.24,4.56-.44,6.67-.66,7.28-.77,14.53-1.81,21.83-2.24,6.36-.38,6.38-.08,7.27-6.37.02-.12-.11-.27-.31-.69-11.53.76-23.16,1.52-35.08,2.3-.12,2.46-.25,4.9-.39,7.66ZM246.06,14.21c-3.61,6.61-7.02,12.86-10.61,19.43h21.22c-3.6-6.59-7-12.81-10.61-19.43ZM147.11,75.23c-3.5,6.09-6.84,11.92-10.47,18.25h19.95c-3.14-6.04-6.22-11.98-9.48-18.25ZM355.46,93.43c-3.65-6.34-7-12.16-10.47-18.2-3.24,6.24-6.35,12.23-9.45,18.2h19.92ZM148.77,337.16c-.14-1.36-.31-3-.43-4.23-11.29.56-22.35,1.11-33.49,1.67.39,2.16.81,4.49,1.13,6.27,11.11-1.26,21.9-2.48,32.8-3.71ZM343.32,337.15c11.03,1.26,21.81,2.49,32.82,3.75.33-1.87.73-4.18,1.1-6.29-11.19-.56-22.22-1.1-33.42-1.66-.16,1.29-.34,2.87-.5,4.2ZM344.09,326.58c11.38,1.57,22.55,2.03,33.77,1.84.16-1.85.31-3.44.5-5.63h-33.6c-.14.77-.35,2.02-.67,3.79ZM147.45,322.79h-33.72c.23,2.25.4,3.89.58,5.64,11.34.1,22.46-.2,33.64-1.9-.21-1.57-.38-2.82-.5-3.74ZM413.65,95.55c6.46.87,12.51,1.68,18.92,2.54-3.26-5.75-6.31-11.13-9.64-16.99-3.23,5.02-6.19,9.64-9.28,14.44ZM69.17,81.09c-3.38,5.98-6.42,11.37-9.61,17.01,6.44-.87,12.46-1.68,18.9-2.56-3.09-4.81-6.06-9.43-9.3-14.46ZM121.26,366.84c1.92-.1,3.6-.05,5.24-.31,7.84-1.22,15.66-2.55,23.5-3.78,3.3-.52,4.02-2.37,2.35-4.64-10.95,1.39-21.56,2.74-32.19,4.08.36,1.52.73,3.07,1.1,4.64ZM371.96,362.19c-10.76-1.36-21.45-2.72-32.27-4.09-1.36,3.01-.83,4.19,2.57,4.64,4.01.54,8.05.9,12.04,1.53,5.47.87,10.91,1.92,16.47,2.91.45-1.88.84-3.5,1.19-4.99ZM155.36,371.84c-1.89-3.52-1.88-3.46-5.54-2.9-2.76.42-5.54.64-8.3,1.02-6.16.84-12.31,1.72-18.75,2.62.41,1.58.77,3,1.09,4.22,10.68-1.68,21.07-3.32,31.51-4.96ZM336.73,371.84c10.57,1.66,20.95,3.3,31.55,4.97.32-1.27.66-2.63,1.01-3.98-3.64-.67-7.05-1.43-10.5-1.91-5.45-.75-10.99-1-16.37-2.07-3-.59-4.53.19-5.68,2.99ZM379.02,313.4c-5.86.28-11.45.87-17.01.73-5.46-.14-10.9-1.02-16.42-1.59v3.77c10.96,1.95,21.86.59,32.92,1.11.17-1.36.32-2.51.51-4.02ZM113.59,317.43c11.11-.56,22.09.91,33.08-1.19,0-.63.02-1.1,0-1.57-.03-.55-.11-1.1-.23-2.27-11.01,1.74-22.01,2.3-33.35.74.21,1.76.34,2.91.5,4.29ZM294.64,415.45c10.66,6.1,35.28,6.44,39.19,3.28-13.17-1.1-26.18-2.19-39.19-3.28ZM197.54,416.22c-.02-.26-.04-.51-.06-.77-13.05,1.09-26.09,2.19-39.14,3.28.02.26.04.51.06.77,13.32,2.36,26.38,1.5,39.14-3.28ZM206.91,360.93c-5.06,2.67-9.68,5.1-13.78,7.27,4.06-.42,8.68-.89,13.5-1.39.09-1.91.18-3.79.28-5.88ZM298.99,368.19c-4.11-2.16-8.7-4.58-13.48-7.1v5.72c4.82.49,9.39.96,13.48,1.38Z" style="fill: #000; stroke-width: 0px;"/>
  <path d="M397.67,349.28c3.73-.95,4.98.34,4.32,4.43-.1.11-.21.2-.33.29-2.51.88-2.65.86-4.18-.23-.97,1.09-1.72,2.55-2.86,2.99-.7.27-2.44-.82-2.89-1.72-.38-.75.1-2.67.78-3.05,1.07-.6,2.62-.35,4.21-.47.15-.34.6-1.34,1.04-2.33l-.09.09Z" style="fill: #000; stroke-width: 0px;"/>
  <path d="M94.38,349.2c.44,1,.88,1.99,1.33,3.01,1.17-.94,2.68-1.76,3.91-.27.66.8,1.01,2.44.64,3.34-.33.8-2.12,1.77-2.79,1.49-1.12-.46-1.85-1.85-2.81-2.91-.92.89-2.5,1.18-4.19-.03,0,0-.08-.13-.08-.13.06-1.31-.37-3.06.31-3.79.68-.74,2.46-.45,3.76-.62l-.09-.09Z" style="fill: #000; stroke-width: 0px;"/>
  <path d="M399.65,392.67c-3.54,1.42-5.13.02-4.68-4.12l-.05.06c1.33-.86,2.66-1.92,4.33-.82,1.77,1.17,1.44,2.86.99,4.55-.19.11-.39.22-.58.33Z" style="fill: #000; stroke-width: 0px;"/>
  <path d="M97.14,388.55c.46,4.13-1.15,5.54-4.68,4.12-.2-.25-.39-.5-.59-.75-.6-1.54-.57-2.98.87-4.03,1.68-1.22,3.07-.17,4.44.72l-.05-.06Z" style="fill: #000; stroke-width: 0px;"/>
  <path d="M91.13,356.89c1.21-.27,2.52-.94,3.6-.67.68.17,1.55,1.85,1.37,2.64-.21.92-1.33,2-2.28,2.32-1.68.57-2.82-.82-3.21-3.45.18-.28.35-.55.53-.83Z" style="fill: #000; stroke-width: 0px;"/>
  <path d="M401.49,357.74c0,1.66-.51,3.18-2.31,3.42-.85.12-2.1-.41-2.68-1.07-1.01-1.14-.84-2.55.34-3.63,1.54-1.4,2.93-.77,4.22.45.14.27.28.55.42.82Z" style="fill: #000; stroke-width: 0px;"/>
  <path d="M412.8,305.87c-2.97-1.46-2.67-4.68-3.29-7.65-1.22-5.79-.88-11.5.38-17.16.53-2.39,1.47-4.81,2.78-6.86,1.23-1.94,3.19-3.41,5.09-5.36-.23-.84-.66-2.2-.97-3.6-.63-2.87.53-5.48,2.92-6.78,2.35-1.29,5.22-.89,7.29,1.24,3.48,3.57,5.16,8.16,6.38,12.8,3.53,13.47,1.34,25.98-7.34,37.04-2.81,3.58-5.92,6.95-9.15,10.15-2.8,2.76-6.3,2.82-8.65.64-2.32-2.16-2.5-6.07-.23-9.02,1.42-1.84,3.07-3.5,4.8-5.45ZM421.43,281.75c-2.18,3.39-2.53,8.39-.98,11.98,1.92-3.85.57-7.74.98-11.98Z" style="fill: #000; stroke-width: 0px;"/>
  <path d="M74.13,269.4c6.25,3.05,7.53,8.71,8.67,14.44,1.16,5.85.56,11.66-.6,17.4-.37,1.82-1.73,3.43-2.81,5.48.8.73,2.1,1.78,3.22,2.98.92.98,1.84,2.06,2.4,3.26,1.41,2.99.65,6.13-1.66,7.81-2.29,1.66-5.21,1.44-7.76-.68-8.45-7.02-14.48-15.85-17.35-26.35-2.24-8.17-1.38-16.6,1.62-24.62,1-2.68,2.32-5.31,3.87-7.72,2.21-3.45,5.51-4.48,8.43-3.07,2.96,1.43,3.96,4.46,2.8,8.52-.24.84-.53,1.66-.82,2.55ZM71.8,282.15c-.37.03-.74.05-1.12.08.49,3.86-1.03,7.92,1.07,11.62.33-.03.66-.06,1-.09-.32-3.87-.63-7.74-.95-11.61Z" style="fill: #000; stroke-width: 0px;"/>
  <path d="M397.76,349.19c-.76.21-1.65.78-2.24.55-1.14-.44-2.66-1.13-3.01-2.09-.36-.98.12-2.86.92-3.49.79-.63,2.75-.65,3.6-.07.83.57,1.01,2.22,1.25,3.44.1.53-.39,1.16-.61,1.75,0,0,.09-.09.09-.09Z" style="fill: #000; stroke-width: 0px;"/>
  <path d="M391.36,371.9c-1.61.02-3.25-1.56-3.28-3.16-.04-1.66,1.46-3.09,3.25-3.1,1.98-.02,2.89,1.09,2.98,2.95.09,1.92-1.17,3.29-2.94,3.31Z" style="fill: #000; stroke-width: 0px;"/>
  <path d="M399.6,386.41c-1.71-.08-2.54-1.38-2.69-3.09-.14-1.56,1.59-3.2,3.1-3.01,1.81.22,2.97,1.4,2.92,3.19-.04,1.77-1.07,2.96-3.33,2.92Z" style="fill: #000; stroke-width: 0px;"/>
  <path d="M392.82,358.14c1.54-.06,2.99,1.33,2.91,3.02-.08,1.67-.85,2.97-2.68,3.05-1.89.09-2.94-.97-3.07-2.87-.13-1.95.9-2.93,2.84-3.2Z" style="fill: #000; stroke-width: 0px;"/>
  <path d="M404.49,377.19c.11,1.45-.91,2.72-2.72,2.72-1.72,0-3.03-1.18-3.04-3.04-.01-1.83,1.11-2.95,2.98-3,1.85-.05,2.73,1.01,2.78,3.32Z" style="fill: #000; stroke-width: 0px;"/>
  <path d="M400.49,369.62c-.03-1.88,1.14-3.13,2.91-3.07,1.91.07,2.69,1.33,2.81,2.99.12,1.66-1.47,3.33-2.97,3.16-1.72-.21-2.73-1.25-2.74-3.08Z" style="fill: #000; stroke-width: 0px;"/>
  <path d="M400.95,361.9c.73-.54,1.66-1.71,2.79-1.96,1.78-.4,2.9.99,3.02,2.63.13,1.73-1.07,2.94-2.77,2.98-1.7.04-2.71-1.12-3.04-3.65Z" style="fill: #000; stroke-width: 0px;"/>
  <path d="M394.57,383.63c-2.56-.3-3.62-1.29-3.58-3.06.04-1.67,1.19-2.59,2.8-2.73,1.41-.12,3.23,1.67,2.8,2.95-.39,1.16-1.46,2.09-2.02,2.84Z" style="fill: #000; stroke-width: 0px;"/>
  <path d="M398.29,373.69c-.37,2.54-1.41,3.56-3.16,3.49-1.64-.07-2.69-1.14-2.66-2.81.04-1.84,1.39-2.92,3-2.67,1.12.17,2.07,1.43,2.82,1.99Z" style="fill: #000; stroke-width: 0px;"/>
  <path d="M394.97,388.55c-.24.31-.42.81-.73.91-1.1.37-2.66,1.2-3.26.77-.86-.61-1.46-2.25-1.32-3.34.1-.77,1.55-1.79,2.51-1.94,1.53-.23,2.45.9,2.62,2.49.04.4.08.79.12,1.18,0,0,.05-.07.05-.07Z" style="fill: #000; stroke-width: 0px;"/>
  <path d="M400.17,365.59c0,2.05-.83,3.03-2.64,2.98-1.8-.06-2.6-1.33-2.64-2.85-.04-1.63,1.02-2.76,2.74-2.68,1.68.07,2.64,1.06,2.53,2.56Z" style="fill: #000; stroke-width: 0px;"/>
  <path d="M390.49,384.48c-1.11.63-2.19,1.73-3.33,1.79-1.64.09-2.56-1.3-2.42-2.94.14-1.68,1.4-2.81,2.94-2.43,1.11.27,1.96,1.61,2.93,2.47-.04.37-.08.75-.12,1.12Z" style="fill: #000; stroke-width: 0px;"/>
  <path d="M386.44,376.3c.11-1.63,1.09-2.99,2.77-2.74.99.15,2.33,1.52,2.54,2.55.32,1.59-.79,2.92-2.6,3.01-1.74.08-2.58-1-2.71-2.81Z" style="fill: #000; stroke-width: 0px;"/>
  <path d="M383.52,394.6c1.79.14,2.63,1.14,2.64,2.82.01,1.75-1.04,2.74-2.69,2.7-1.64-.04-2.67-1.12-2.64-2.8.03-1.66,1.01-2.61,2.68-2.72Z" style="fill: #000; stroke-width: 0px;"/>
  <path d="M392.92,394.88c0,1.75-.86,2.74-2.62,2.67-1.68-.06-2.72-1.07-2.69-2.71.03-1.62,1.02-2.61,2.75-2.64,1.83-.03,2.56.98,2.56,2.68Z" style="fill: #000; stroke-width: 0px;"/>
  <path d="M383.2,390.09c-.05-1.66.74-2.61,2.37-2.69,1.67-.08,2.53.92,2.6,2.49.07,1.59-.83,2.65-2.4,2.7-1.56.05-2.48-.88-2.57-2.5Z" style="fill: #000; stroke-width: 0px;"/>
  <path d="M94.46,349.29c-.2-.51-.63-1.07-.55-1.53.24-1.29.32-3.07,1.15-3.65.87-.6,2.91-.47,3.77.2.76.59,1.02,2.46.75,3.58-.35,1.5-1.79,2.15-3.42,1.83-.61-.12-1.2-.35-1.8-.53,0,0,.09.09.09.09Z" style="fill: #000; stroke-width: 0px;"/>
  <path d="M100.07,365.64c2.42-.03,3.94,1.35,3.96,3,.02,1.59-1.58,3.22-3.19,3.25-1.79.04-3.08-1.3-3.04-3.21.03-1.88,1-2.92,2.27-3.05Z" style="fill: #000; stroke-width: 0px;"/>
  <path d="M91.25,386.37c-.91-.03-2.34-1.5-2.1-3.11.27-1.76,1.33-2.92,3.19-2.96,1.53-.04,3.15,1.76,2.88,3.25-.3,1.69-1.22,2.94-3.97,2.82Z" style="fill: #000; stroke-width: 0px;"/>
  <path d="M99.32,364.29c-2.07-.26-2.98-1.46-2.93-3.25.05-1.75,1.13-2.87,2.88-2.85,1.83.03,2.93,1.06,2.87,3.04-.06,1.93-1.15,2.83-2.82,3.05Z" style="fill: #000; stroke-width: 0px;"/>
  <path d="M88.59,366.55c2,.03,3.12,1.3,3.03,3.2-.09,1.82-1.12,2.83-2.86,2.94-1.53.1-3.04-1.63-2.86-3.27.19-1.66,1.04-2.85,2.68-2.87Z" style="fill: #000; stroke-width: 0px;"/>
  <path d="M90.44,373.82c1.81.21,2.97,1.2,2.95,3.06-.02,1.85-1.32,3.04-3.05,3.04-1.82,0-2.76-1.26-2.71-3.21.05-1.87.97-2.75,2.8-2.88Z" style="fill: #000; stroke-width: 0px;"/>
  <path d="M91.12,361.79c-.22,2.56-1.23,3.72-2.91,3.75-1.71.03-2.91-1.17-2.85-2.89.06-1.65,1.14-3.05,2.93-2.72,1.14.21,2.11,1.35,2.84,1.86Z" style="fill: #000; stroke-width: 0px;"/>
  <path d="M97.69,383.9c-.75-1.05-1.8-2-2.16-3.17-.4-1.31,1.43-3.05,2.85-2.89,1.61.17,2.65,1.11,2.76,2.79.11,1.56-1.29,2.89-3.45,3.27Z" style="fill: #000; stroke-width: 0px;"/>
  <path d="M93.87,373.54c.76-.52,1.77-1.72,2.9-1.84,1.61-.17,2.94.95,2.87,2.8-.06,1.64-1.12,2.7-2.79,2.68-1.75-.02-2.76-1.06-2.98-3.64Z" style="fill: #000; stroke-width: 0px;"/>
  <path d="M97.19,388.61c.04-.39-.06-.91.15-1.16.74-.9,1.52-2.31,2.4-2.4.89-.09,2.54,1.04,2.71,1.87.21,1.02-.47,2.71-1.32,3.31-.62.43-2.17-.39-3.27-.76-.31-.1-.49-.6-.73-.92,0,0,.05.06.05.06Z" style="fill: #000; stroke-width: 0px;"/>
  <path d="M105.92,397.47c.1-1.61.76-2.76,2.55-2.83,1.76-.07,2.72.96,2.8,2.6.08,1.67-.91,2.78-2.57,2.86-1.67.09-2.65-.89-2.78-2.64Z" style="fill: #000; stroke-width: 0px;"/>
  <path d="M105.69,375.5c-.1,2.47-.86,3.6-2.61,3.61-1.84,0-2.79-1.24-2.8-2.91-.01-1.63,1.09-2.94,2.69-2.66,1.13.2,2.07,1.46,2.72,1.96Z" style="fill: #000; stroke-width: 0px;"/>
  <path d="M95.15,368.97c-2.21-.41-3.11-1.17-3.21-2.86-.11-1.85.7-3,2.54-3.08,1.73-.07,2.9,1.1,2.68,2.68-.16,1.15-1.31,2.17-2.02,3.25Z" style="fill: #000; stroke-width: 0px;"/>
  <path d="M101.61,382.96c1.05-.73,2.04-1.97,3.15-2.08,1.54-.16,2.71,1.07,2.63,2.77-.08,1.61-1.09,2.93-2.74,2.63-1.12-.21-2.05-1.41-3.06-2.17,0-.38.02-.77.03-1.15Z" style="fill: #000; stroke-width: 0px;"/>
  <path d="M102.5,397.65c-2.58-.18-3.34-1.17-3.31-2.88.03-1.77.9-2.67,2.67-2.56,1.7.1,2.85,1.17,2.56,2.73-.21,1.12-1.42,2.05-1.93,2.72Z" style="fill: #000; stroke-width: 0px;"/>
  <path d="M109.35,390.61c-.98.67-1.91,1.78-2.97,1.92-1.54.2-2.43-.98-2.4-2.6.03-1.62.92-2.76,2.5-2.45,1.05.2,1.93,1.29,2.88,1.98,0,.38-.01.77-.02,1.15Z" style="fill: #000; stroke-width: 0px;"/>
</svg>