<?xml version="1.0" encoding="UTF-8"?>
<svg id="Layer_1" data-name="Layer 1" xmlns="http://www.w3.org/2000/svg" viewBox="0 0 432.15 900">
  <path d="M431.71,452.18c0,6.08.26,12.18-.06,18.25-.62,11.86-1.43,23.72-2.44,35.56-.65,7.53-1.81,15.01-2.75,22.52-.01.1-.13.24-.1.28,2.69,3.88-.22,7.63-.38,11.42-.46,10.43-1.46,20.83-2.26,31.24-.43,5.62-.68,11.26-1.33,16.85-.83,7.09-1.77,14.18-3.09,21.19-1.34,7.09-3.1,14.1-4.85,21.1-2.18,8.72-4.31,17.46-6.89,26.07-4.28,14.29-8.34,28.67-15.87,41.77-5.04,8.77-9.29,18.01-14.6,26.61-6.35,10.27-13.46,20.06-20.21,30.08-.79,1.18-1.37,2.5-2.02,3.77-4.18,8.2-7.85,16.7-12.65,24.52-6.53,10.64-13.7,20.91-21.02,31.04-4.01,5.55-8.89,10.48-13.37,15.69-3,3.49-5.75,7.23-9.04,10.42-7.9,7.64-15.77,15.35-24.17,22.41-7.36,6.18-15.44,11.5-23.2,17.19-2.73,2-5.51,3.93-8.22,5.96-4.68,3.51-9.55,6.53-15.26,8.2-2.18.64-4.19,2.13-6.02,3.57-5.23,4.1-9.77,1.48-14.41-1.15-2.02-1.14-4.19-2-6.21-3.14-4.07-2.29-8.26-4.44-12.1-7.08-7.43-5.1-14.71-10.44-21.95-15.81-5.6-4.14-11.45-8.06-16.48-12.82-8.69-8.21-17.98-15.82-25.11-25.66-4.19-5.79-9.58-10.69-14.03-16.31-3.88-4.9-7.01-10.38-10.81-15.35-8.44-11.03-16.07-22.71-21.37-35.42-5.04-12.09-13.87-21.43-20.25-32.45-2.82-4.87-5.87-9.61-8.54-14.56-5.04-9.35-10.13-18.69-14.72-28.27-2.81-5.87-4.84-12.12-7.01-18.27-1.87-5.3-3.59-10.66-5.13-16.07-3.07-10.81-6.33-21.58-8.83-32.52-2.04-8.93-3.3-18.06-4.49-27.16-1.31-10.03-2.16-20.13-3.17-30.2-.64-6.42-1.3-12.84-1.74-19.27-.16-2.33,1.06-5.04.25-6.99-2.27-5.47-.56-11.1-1.41-16.64-1.66-10.7-2.76-21.55-3.18-32.37C.4,470.23-.09,450.06.01,429.9c.06-11.76,1.16-23.56,2.49-35.27.91-7.99,3.02-15.84,4.6-23.75,1.08-5.41,1.96-10.87,3.31-16.21,1.84-7.23,3.94-14.39,6.14-21.52,2.16-7.02,4.43-14.02,6.95-20.92,2-5.47,4.37-10.82,6.71-16.16,2.86-6.53,5.63-13.11,8.88-19.45,1.95-3.8,4.49-7.36,7.21-10.67,2.44-2.97,4.67-5.82,5.55-9.72,3.12-13.84,9.07-26.5,16.8-38.33,3.08-4.71,6.26-9.35,9.46-13.98,4.43-6.41,8.78-12.89,13.43-19.14,3.73-5.01,8.11-9.55,11.73-14.64,3.45-4.84,6.06-10.27,9.42-15.18,5.97-8.72,11.74-17.65,18.47-25.76,12.34-14.88,25.38-29.17,37.99-43.82,9.14-10.62,17.32-21.97,24.66-33.92,6.58-10.7,12.13-21.9,15.73-33.95,1.23-4.11,1.9-8.41,2.45-12.68.32-2.5.76-4.55,3.65-4.81,2.43-.22,3.69,1.83,4.23,5.04.95,5.65,1.68,11.48,3.67,16.8,3.14,8.41,6.23,16.88,11.5,24.41,5.76,8.23,10.38,17.3,16.44,25.28,7.83,10.31,16.58,19.92,24.97,29.81,10.7,12.63,21.83,24.91,31.99,37.96,6.53,8.39,11.6,17.91,17.41,26.87,1.84,2.83,3.89,5.53,5.95,8.2,5.07,6.58,10.43,12.95,15.26,19.71,5.84,8.17,11.37,16.56,16.8,25.02,7.57,11.8,13.14,24.53,16.3,38.21.74,3.21,2.43,5.53,4.48,7.84,4.59,5.17,7.97,11.07,10.65,17.43,2.82,6.68,6.06,13.19,8.71,19.94,3.3,8.43,6.26,17.01,9.21,25.57,2.1,6.08,4.21,12.18,5.85,18.4,1.99,7.59,3.51,15.3,5.2,22.97,1.09,4.97,2.36,9.93,3.11,14.95,1.22,8.18,2.48,16.38,2.99,24.62.89,14.36,1.21,28.75,1.77,43.12-.15,0-.3.01-.44.02ZM216.12,20.65c-.46.32-.72.4-.77.55-3.55,11.3-8.43,22.03-14.06,32.42-6.88,12.69-14.64,24.87-24.16,35.71-10.26,11.68-19.55,24.04-28.52,36.71-6.99,9.88-14.29,19.54-21.65,29.15-4.05,5.29-8.6,10.19-12.73,15.42-2.14,2.72-4.08,5.65-5.72,8.7-1.98,3.7-3.48,7.65-5.29,11.45-7.08,14.84-11.4,30.53-14.27,46.65-.57,3.23-1.02,6.48-1.36,9.75-.91,8.98-2.09,17.96-2.48,26.96-.33,7.76-.07,15.58.56,23.32.62,7.65,2.4,15.2,3.03,22.85.87,10.74,3.79,20.97,6.94,31.15,3.27,10.57,7.31,20.92,10.2,31.58,3.72,13.69,9.92,26.32,15.62,39.15,4.7,10.59,10.61,20.63,15.78,31.02,5.63,11.32,11.05,22.74,16.52,34.14,5.42,11.3,10.6,22.72,16.23,33.91,5.31,10.55,10.9,20.97,16.68,31.27,9.66,17.2,15.28,35.82,19.81,54.85,1.74,7.29,3.11,14.68,4.93,21.95,1.13,4.51,2.79,8.88,4.46,14.1,2.18-6.99,4.36-12.99,5.91-19.15,2.18-8.66,3.92-17.43,5.81-26.17,3.25-15.08,8.91-29.28,15.88-42.96,8.06-15.83,16.71-31.36,24.63-47.26,9.39-18.84,18.28-37.93,27.38-56.91,1.6-3.33,3.04-6.74,4.72-10.04,4.23-8.32,9.04-16.38,12.73-24.93,4.95-11.49,9.26-23.27,13.47-35.06,3.78-10.62,7.13-21.4,10.51-32.16,1.51-4.79,3.04-9.64,3.85-14.58,1.76-10.83,2.81-21.78,4.62-32.6,2.56-15.29,1.81-30.52-.27-45.73-1.37-10.06-2.66-20.16-4.74-30.09-2.52-12.07-6.88-23.59-11.8-34.93-4.28-9.88-9.52-18.99-16.57-27.15-6.49-7.52-12.82-15.2-18.87-23.07-5-6.51-9.51-13.41-14.22-20.15-3.17-4.54-6.01-9.33-9.51-13.6-9.77-11.93-20.25-23.25-28.73-36.26-10.19-15.65-18.68-32.04-24.59-49.96ZM48.18,277.05c-.9,1.16-1.42,1.65-1.71,2.24-1.94,4.04-4.09,8-5.68,12.18-5.1,13.35-10.12,26.74-14.91,40.21-2.56,7.21-4.96,14.51-6.75,21.94-2.26,9.41-3.87,18.97-5.65,28.49-1.14,6.12-2.47,12.24-3.05,18.43-.94,10-1.74,20.04-1.85,30.08-.17,15.54-.04,31.1.6,46.62.49,11.95,1.58,23.91,3.08,35.78,1.52,12.05,3.34,24.12,5.96,35.97,4.7,21.27,11.43,41.99,19.06,62.38,4.81,12.87,11.26,24.97,18.01,36.96,7.97,14.14,16.54,27.85,26.27,40.81,5.48,7.3,11.35,14.32,17.15,21.37,2.86,3.48,5.8,6.93,9,10.1,4.44,4.38,9.03,8.62,13.78,12.67,8.42,7.18,16.65,14.64,25.6,21.1,10.19,7.36,20.85,14.14,31.73,20.45,9.1,5.28,18.92,9.31,28.21,14.28,6.02,3.22,11.62,3.36,17.55.03,5.88-3.31,11.77-6.67,17.92-9.43,9.92-4.47,19.5-9.47,28.31-15.86,9.61-6.98,19.26-13.91,28.71-21.1,4.06-3.09,7.79-6.64,11.45-10.21,7.39-7.2,14.87-14.34,21.85-21.93,5.47-5.95,10.43-12.4,15.3-18.86,8.81-11.7,17.41-23.55,24.34-36.52,4.92-9.22,10.57-18.09,14.85-27.6,5.02-11.16,9.3-22.7,13.16-34.31,4.65-13.95,9.19-28,12.55-42.3,3.63-15.4,6.55-31.02,7.65-46.89.71-10.22,2.25-20.42,2.28-30.63.06-20.16-.84-40.32-1.02-60.48-.11-12.49-2.44-24.66-4.6-36.83-1.82-10.24-4.51-20.35-7.28-30.39-2.9-10.53-5.94-21.06-9.69-31.3-3.82-10.42-8.54-20.51-12.96-30.7-.95-2.18-2.29-4.19-3.46-6.28-.08,4.85.64,9.44.66,14.03.04,8.12-.18,16.25-.59,24.36-.28,5.65-.79,11.33-1.69,16.91-1.26,7.86-2.79,15.68-4.54,23.45-1.72,7.65-3.3,15.4-5.93,22.75-4.71,13.17-9.83,26.23-15.41,39.06-4.24,9.74-9.3,19.13-14.29,28.52-2.83,5.32-6.31,10.28-9.4,15.47-4.49,7.54-8.69,15.26-13.38,22.68-5.4,8.54-11.28,16.78-16.81,25.24-4.99,7.64-9.9,15.33-14.64,23.12-7.18,11.8-14.2,23.71-21.26,35.58-4.45,7.48-9.03,14.89-13.28,22.49-5.54,9.93-10.78,20.03-16.21,30.02-3.33,6.13-7.08,12.05-10.09,18.32-3.05,6.36-5.34,13.08-8.16,19.55-.44,1.01-1.92,2.02-3.02,2.15-.94.11-2.52-.8-2.96-1.69-2.08-4.21-3.82-8.59-5.76-12.88-3.07-6.78-5.9-13.7-9.38-20.26-4.85-9.15-10.21-18.03-15.36-27.02-7.07-12.35-14.05-24.76-21.25-37.03-4.46-7.59-9.34-14.92-13.88-22.47-4.53-7.54-8.62-15.35-13.35-22.75-6.41-10.03-13.42-19.67-19.86-29.69-5.2-8.09-9.94-16.48-14.86-24.75-5.07-8.53-10.37-16.94-15.05-25.68-3.81-7.11-6.97-14.59-10.2-21.99-3.79-8.69-7.61-17.39-10.95-26.27-4.69-12.42-8.09-25.25-10.59-38.29-2.21-11.53-4.8-23.02-4.92-34.83-.11-9.85-.06-19.71.02-29.56.02-2.72.38-5.44.64-8.96ZM97.98,782.12l-.76.59c1.87,2.59,3.76,5.17,5.61,7.78,4.74,6.69,9.13,13.66,14.26,20.02,9.96,12.37,20.44,24.32,32.38,34.86,7.29,6.44,14.48,13.03,22.11,19.05,12.12,9.57,24.62,18.65,38.56,25.5,1.94.95,4.45,2.32,6.2,1.8,4.46-1.32,8.93-3.12,12.86-5.59,7.96-5.01,15.57-10.58,23.31-15.95,12.94-8.97,24.55-19.54,35.78-30.49,6.96-6.78,13.59-13.98,19.68-21.54,8.67-10.76,16.73-22.02,25.01-33.1.56-.75.72-1.8,1.07-2.71-4.05,3.19-7.57,6.75-11.29,10.08-6.05,5.42-11.85,11.22-18.44,15.89-9,6.37-18.57,11.94-28.02,17.66-10.57,6.4-21.94,10.91-34.02,13.6-5.26,1.17-10.47,2.73-15.79,3.48-5.09.71-10.37,1.26-15.43.69-7.65-.87-15.34-2.27-22.74-4.38-8.51-2.43-17.07-5.2-24.99-9.07-8.87-4.33-17-10.16-25.54-15.18-11.24-6.6-21.18-14.78-30.27-24.08-3.04-3.11-6.34-5.96-9.52-8.92Z" style="fill: #000; stroke-width: 0px;"/>
  <path d="M215.62,473.88c-3.08-1.3-6.43-2.18-9.18-3.98-7.08-4.65-14.16-9.27-18.72-16.92-2.38-3.99-6.13-7.14-8.95-10.9-7.17-9.56-14.59-18.91-20.05-29.7-3.55-7.02-8.08-13.54-9.95-21.35-.47-1.97-1.59-3.83-1.8-5.81-.14-1.31.42-3.14,1.35-3.98.83-.75,2.94-1.07,3.89-.53,5.4,3.04,10.26,1.42,14.79-1.57,5.13-3.38,8.9-8.09,12.21-13.3,6.08-9.59,13.78-17.58,24.11-22.73,1.74-.87,3.42-1.85,5.15-2.75,6.04-3.17,11.7-1.7,17.41,1.18,11.91,6,20.93,14.94,27.91,26.2,3.34,5.38,7.61,10.13,13.49,12.77,3.79,1.71,7.87,3.17,12.07.24.88-.61,3.13-.17,4.15.59.91.67,1.66,2.68,1.32,3.72-1.96,6.01-3.63,12.24-6.58,17.77-6.31,11.8-12.69,23.61-21.35,34-5.83,6.99-10.73,14.79-16.88,21.47-5.89,6.4-12.93,11.7-21.38,14.64-.85.3-1.82.27-2.73.4-.09.18-.18.36-.27.54ZM178.96,398.97c4.73,1.57,9.28,3.01,13.76,4.63,1.51.55,3.03,1.37,4.25,2.4,3.82,3.23,6.84,7.08,8.78,11.77,1.76,4.27,3.75,8.43,5.6,12.66,1.51,3.47,2.96,6.97,4.43,10.42,4.15-9.23,7.95-18.32,12.32-27.13,2.15-4.32,5.47-8.07,10.23-9.88,4.66-1.77,9.44-3.22,14.87-5.05-1.47-.5-2.2-.75-2.93-1-2.88-.98-6.12-1.42-8.57-3.06-6.74-4.49-13.2-9.41-19.67-14.31-4.98-3.77-7.31-3.79-12.26-.07-6.56,4.93-13.07,9.98-19.94,14.45-3.06,1.99-6.95,2.71-10.87,4.15Z" style="fill: #000; stroke-width: 0px;"/>
  <path d="M230.81,240.27c.94-18.25,3.87-33.01,10.25-47.03,1.56-3.43,2.39-7.2,3.82-10.7.67-1.65,1.7-3.38,3.05-4.48,5.61-4.58,12-7.36,19.36-5.97,5.3,1,9.3,4.5,11.94,9.03,3.3,5.66,5.38,11.68,6.01,18.48,1.2,13.04-3.37,24.52-7.61,36.29-3.11,8.66-5.16,17.6-5.71,26.93-.4,6.75-.95,13.71-5.66,19.4-5.2,6.28-14.71,7.29-20.86,1.97-6.24-5.4-9.95-12.37-11.38-20.32-1.58-8.74-2.42-17.62-3.21-23.61ZM241.69,217.52c3.61.99,6.61,1.39,9.21,2.64,3.77,1.8,7.17,4.37,10.89,6.3,1.84.96,4.01,1.5,6.08,1.7.93.09,2.53-.93,2.89-1.82,3.35-8.29,6.29-16.64,5.75-25.88-.38-6.54-2.4-12.21-6.84-16.97-3.78-4.05-13.21-3.55-16.46.82-.23.3-.23.76-.37,1.14-1.42,4.05-2.85,8.1-4.26,12.15-2.27,6.53-4.52,13.07-6.89,19.93ZM239.63,228.87c.24-.09.49-.17.73-.26v18.93c4.47-1.8,6.62-1.42,7.62,1.06,1.01,2.51-.41,3.91-6.96,6.75.35,1.41.71,2.85,1.12,4.49,2.59-.72,4.89-.72,5.83,2.01,1.11,3.24-1.78,4.11-4.17,5.81.91,1.07,1.62,2.73,2.59,2.91,5.43.97,6.31,2.48,3.65,7.07,3.65,3.44,7.64,2.68,10.74-2.15-2.34-.99-4.58-2.55-3.22-5.25.68-1.35,3.05-1.86,4.66-2.75.16.22.33.45.49.67v-3.32c-4.15-.56-6.26-2.29-5.82-4.94.58-3.47,3.28-2.96,5.76-2.6.28-1.88.53-3.56.76-5.11-1.84-.4-3.47-.59-4.98-1.14-1.91-.69-3.21-2.07-2.49-4.27.67-2.02,2.3-2.39,4.27-1.93,1.53.36,3.1.53,4.74.81.8-3.48,1.51-6.56,2.17-9.43-3.22-.68-6.25-1.33-8.69-1.85-2.33,2.36-4.3,4.91-6.8,6.74-3.2,2.34-6.06,1.65-7.94-1.94-1.71-3.25-2.74-6.86-4.07-10.32ZM248.35,234.1c2.87-3.18,2.78-4.17-.51-6.13.18,2.09.33,3.9.51,6.13Z" style="fill: #000; stroke-width: 0px;"/>
  <path d="M201.03,237.58c-.44,11.69-1.49,23.18-5.93,33.9-2.01,4.84-5.72,9.2-9.41,13.06-4.69,4.93-10.53,3.69-15.97.98-5.07-2.53-7.54-7.01-8.38-12.47-2.4-15.51-3.61-31.25-10.45-45.81-4.7-10.01-5.8-21.01-4.07-31.68,1.38-8.49,4.65-16.89,13.11-21.66,5.28-2.97,10.67-2.63,15.99-.57,6.81,2.63,11.5,7.15,12.92,14.79.62,3.36,2.7,6.43,3.69,9.75,2.1,7.04,4.21,14.1,5.76,21.28,1.31,6.06,1.85,12.28,2.72,18.43ZM189.41,217.78c-.77-3.11-1.21-5.75-2.07-8.26-2.4-6.98-5.31-13.8-7.33-20.89-1.17-4.11-3.64-6.04-7.23-7.3-3.27-1.15-6.39-1.23-9.31,1.05-5.3,4.14-7.62,9.91-8.26,16.26-.92,9.21,1.76,17.87,5.12,26.31,1.46,3.67,2.78,4.44,6.56,2.8,4.3-1.87,8.3-4.44,12.46-6.63,1.52-.8,3.1-1.52,4.72-2.06,1.62-.54,3.32-.81,5.35-1.29ZM190.53,255.09c-6.16-2.08-7.78-3.67-6.82-6.43.81-2.33,2.85-2.72,7.66-1.36v-16.94c-.75,1.98-1.93,5.84-3.67,9.41-1.32,2.7-4.42,3.51-6.84,1.75-2.82-2.05-5.19-4.73-7.71-7.09-2.53.53-5.48,1.14-8.56,1.78.32,1.35.62,2.86,1.02,4.33,1.29,4.83,1.29,4.68,6.32,4.35,1.2-.08,3.39,1.01,3.52,1.83.2,1.23-.64,3.24-1.69,3.93-1.51,1-3.61,1.11-5.49,1.61.22,1.57.45,3.27.72,5.22,2.63-.77,5.16-.98,5.78,2.48.14.8-.17,2.1-.74,2.52-1.54,1.13-3.34,1.9-5.31,2.96.14.61.36,1.58.58,2.55l.64-.66c1.45,1.01,4.08,1.99,4.11,3.04.06,1.91-1.43,3.87-2.44,6.2,3.03,4.02,6.65,4.56,10.05.94-2.77-4.39-1.68-6.46,3.48-6.94.71-.07,1.69-1.06,1.86-1.79.15-.63-.62-1.52-1.05-2.25-.77-1.34-1.97-2.58-2.23-4.01-.15-.8,1.04-2.3,1.97-2.71,1.07-.48,2.52-.11,3.95-.11.29-1.53.58-3,.89-4.61ZM183.74,228.14c-3.28,1.8-3.34,2.43-.43,6.21.17-2.37.28-4.07.43-6.21Z" style="fill: #000; stroke-width: 0px;"/>
  <path d="M128.78,277.6c-.71-13.76-1.35-27.52-2.18-41.27-.16-2.62-1.12-5.18-1.55-7.8-.37-2.23-.86-4.63,1.86-5.9,2.05-.96,5.34.13,6.62,2.39,5.42,9.56,9.82,19.46,11.16,30.58,1.08,8.91,2.9,17.73,4.03,26.64.64,5.08.48,10.26.83,15.38.81,11.7,4.51,22.44,10.99,32.21,1.53,2.31,3.29,4.47,4.81,6.78,1.38,2.1,1.43,4.12-.53,6.09-1.21,1.21-2.12,2.73-3.14,4.12-1.84,2.5-3.78,3.18-5.88,1.08-3.75-3.74-7.52-7.64-10.38-12.05-7.52-11.63-12.2-24.59-15.21-38.02-1.47-6.55-1.38-13.44-2-20.18.19-.01.38-.03.57-.04Z" style="fill: #000; stroke-width: 0px;"/>
  <path d="M306.53,226.59c-.67,6.09-1.34,12.18-2.01,18.27-.3,2.75-.8,5.49-.87,8.24-.3,10.9-.38,21.8-.72,32.7-.27,8.76-2.59,17.09-5.32,25.4-3.78,11.51-8.93,22.19-16.44,31.69-1.57,1.98-3.55,3.7-5.55,5.27-1.91,1.49-3.83,1.11-5.34-.89-1.42-1.87-3.33-3.52-4.18-5.61-.6-1.48-.43-4.04.52-5.26,8.94-11.59,14.51-24.38,15.52-39.13.75-10.95,1.73-21.89,3.04-32.78,1.66-13.72,5.33-26.91,12.58-38.84.84-1.38,2.61-2.61,4.19-3.05,3.2-.88,4.83.68,4.58,3.99Z" style="fill: #000; stroke-width: 0px;"/>
  <path d="M203.11,115.34c-.32,7.37-.71,14.73-.93,22.1-.15,4.91-.08,9.82-.11,14.73-.02,2.78.06,5.51-2.7,7.39-3.65,2.48-7.34,2.66-10.94.27-7.34-4.88-14.95-5.39-23-2.04-4.15,1.73-8.42,3.15-12.51,5-1.7.77-3.34,2.07-4.52,3.52-1.4,1.71-2.74,2.91-4.92,1.83-2.41-1.19-2.64-3.43-1.79-5.58,1.82-4.65,3.79-9.25,5.87-13.79,2.57-5.58,7.01-9.21,12.62-11.53,4.06-1.68,8.14-3.31,12.12-5.14,8.02-3.68,11.95-10.87,15.54-18.36,2.56-5.35,5.23-10.66,8.17-15.81.6-1.05,3.35-2.15,3.91-1.71,1.63,1.28,3.52,3.23,3.73,5.1.53,4.62.17,9.34.17,14.01h-.71Z" style="fill: #000; stroke-width: 0px;"/>
  <path d="M230.25,150.64c-.66-10.74-1.4-21.48-1.96-32.23-.3-5.85-.63-11.74-.24-17.57.11-1.72,2.34-3.86,4.13-4.74,1.89-.94,3.24,1,4.12,2.78,2.93,5.96,5.98,11.87,8.86,17.86,4.48,9.31,11.51,15.28,21.54,18.29,4.27,1.28,8.18,4.15,11.91,6.79,5.68,4.01,7.3,10.7,10.05,16.61.73,1.57,1.56,3.31,1.51,4.95-.05,1.6-.83,3.55-1.98,4.59-.66.59-3.45.15-3.96-.66-2.41-3.82-6.33-5.24-10.08-6.69-6.15-2.4-12.18-5.14-19.17-4.9-4.16.14-7.56,1.69-10.83,3.62-4.54,2.68-8.03,3-12.24-.08-.93-.68-1.57-2.14-1.78-3.35-.3-1.7-.08-3.49-.08-5.24.07,0,.14-.01.2-.02Z" style="fill: #000; stroke-width: 0px;"/>
  <path d="M222.26,318.91c-4.39,0-8.6-.24-12.77.09-2.58.2-4.14-.72-5.37-2.71-2.7-4.36-5.3-8.78-8.08-13.09-1.55-2.4-3.3-4.69-5.09-6.92-1.62-2.02-1.52-4.09.45-5.38,5.63-3.68,8.76-9.22,11.39-15.02,3.13-6.91,5.89-14,8.61-21.08.85-2.23,2.12-2.97,4.37-2.96,2.21,0,3.5.61,4.43,2.87,3.61,8.81,7.15,17.68,11.43,26.17,1.86,3.69,5.34,6.63,8.32,9.68,1.67,1.7,2.54,3.12,1.06,5.33-4.44,6.64-8.89,13.28-13.22,19.99-1.41,2.18-2.9,3.76-5.53,3.04ZM228.76,292.19c-4.5-9.06-8.84-17.77-12.93-26-4.08,8.2-8.45,16.98-12.95,26h25.88ZM210.73,311.08h10.33c-1.88-2.55-3.45-4.69-5.23-7.11-1.82,2.53-3.28,4.57-5.1,7.11ZM201.98,298.79c1.46,2.25,2.75,4.22,4.25,6.53,1.3-2.35,2.36-4.26,3.62-6.53h-7.87ZM221.7,298.87c1.44,2.35,2.55,4.18,3.89,6.37,1.43-2.36,2.59-4.29,3.85-6.37h-7.75Z" style="fill: #000; stroke-width: 0px;"/>
  <path d="M215.18,768.99c-.98,1.6-2.92,1.32-5.2.57-10.11-3.35-18.79-9.14-26.94-15.76-7.33-5.95-14.6-12.01-21.48-18.46-8.32-7.79-16.45-15.82-24.21-24.16-8.74-9.39-17.25-19.02-25.34-28.98-5.8-7.14-10.48-15.19-16.12-22.48-12.33-15.93-20.95-33.99-30.59-51.51-4.22-7.67-5.88-16.03-9.12-23.92-2.01-4.89-4.5-9.6-6.11-14.61-1.96-6.08-3.05-12.44-4.81-18.6-2.72-9.52-6.12-18.87-8.41-28.49-2.16-9.11-3.36-18.46-4.79-27.73-1.16-7.48-2.18-14.99-2.96-22.51-.28-2.7.42-5.49.52-8.24.44-12.72.65-25.46,1.32-38.17.31-5.9,1.21-11.81,2.38-17.61.52-2.58,2.21-4.99,3.69-7.27.43-.66,2.3-1.16,2.9-.77.94.59,1.78,1.95,1.91,3.08.49,4.06.04,8.34,1.12,12.21,1.8,6.46,4.29,12.76,6.87,18.97,3.99,9.62,8.23,19.15,12.51,28.65,2.84,6.31,5.84,12.55,8.96,18.73,3.9,7.75,7.94,15.44,12.01,23.1,5.52,10.41,11.74,20.34,19.31,29.45,4.71,5.66,8.65,11.95,13.06,17.87,4.53,6.07,9.23,12.01,13.81,18.04,4.28,5.64,8.64,11.23,12.74,17,8.02,11.29,15.93,22.66,23.78,34.08,4.3,6.26,8.47,12.62,12.55,19.03,1.97,3.09,3.49,6.47,5.4,9.61,7.18,11.82,14.6,23.51,21.59,35.45,2.49,4.25,6.17,6.74,10.03,9.1,6.83-2.3,9.91-8.1,13.3-13.78,5.36-8.97,11.06-17.75,16.55-26.64,4.84-7.84,9.42-15.86,14.43-23.59,7.7-11.88,15.33-23.83,23.64-35.28,9.4-12.96,19.62-25.31,29.27-38.09,5.49-7.27,10.56-14.86,15.8-22.32,5.29-7.54,10.95-14.85,15.7-22.72,5.1-8.45,9.36-17.41,13.91-26.19,3.66-7.08,7.33-14.17,10.75-21.38,2.71-5.71,5.02-11.6,7.53-17.4,2.55-5.9,5-11.85,7.74-17.66,3.63-7.72,5.76-15.73,5.52-24.3-.01-.52-.17-1.12.04-1.53.64-1.25,1.23-3.14,2.22-3.41.96-.27,2.75.87,3.56,1.87,3.67,4.53,4.24,10.21,4.55,15.63.92,15.99,1.17,32.03,2.02,48.03.53,9.99-.84,19.75-2.51,29.51-1.71,9.97-2.98,20.05-5.33,29.87-2.32,9.68-5.84,19.07-8.66,28.65-1.89,6.44-3.09,13.11-5.27,19.44-3.58,10.4-7.21,20.83-11.76,30.82-4.58,10.03-9.99,19.72-15.63,29.21-5.44,9.16-11.62,17.87-17.49,26.77-3.85,5.82-7.35,11.92-11.69,17.35-8.28,10.36-16.84,20.5-25.67,30.39-5.99,6.71-12.55,12.94-19.03,19.19-5.48,5.28-11.37,10.13-16.8,15.45-8.8,8.61-18.71,15.72-29.22,21.99-3.83,2.28-8.17,3.78-12.41,5.25-1.31.45-3.08-.4-5.39-.77Z" style="fill: #000; stroke-width: 0px;"/>
</svg>