<?xml version="1.0" encoding="UTF-8"?>
<svg id="Layer_1" data-name="Layer 1" xmlns="http://www.w3.org/2000/svg" viewBox="0 0 737.63 900">
  <path d="M600.78,236.49c0-1.37.02-2.74,0-4.11-.02-.74-.16-1.48-.18-2.22-.12-3.21,1.43-5.5,4.03-5.99,2.58-.49,4.7,1.22,5.88,4.2,1.32,3.36,2.58,6.87,4.59,9.81,1.85,2.71,4.35,5.3,7.14,6.99,5.92,3.58,8.81,8.39,9.27,15.33.85,12.83,2.93,25.47,8.32,37.32.38.85.89,1.64,1.94,2.32.12-.95.27-1.89.35-2.84.42-5.27.82-10.55,1.25-15.82.06-.74.15-1.49.35-2.2.62-2.27,1.99-3.83,4.42-4.1,2.54-.28,4.29,1,5.33,3.23.55,1.19.88,2.49,1.32,3.73,3.43,9.75,7.22,19.39,10.17,29.28,1.94,6.53,2.67,13.42,3.94,20.14.14.75.29,1.51.53,2.76,1.47-1.23,2.51-2.14,3.58-3,8.96-7.15,18.97-11.09,30.59-9.48,8.62,1.19,13.11,7.51,11.64,16.12-2.01,11.73-4.74,23.37-6.08,35.17-2.45,21.6-4.09,43.29-6.09,64.95-.54,5.85-1.16,11.68-1.72,17.53-.13,1.3-.19,2.6.18,4.14.38-.42.81-.81,1.14-1.28,3.98-5.68,7.91-11.4,11.94-17.05,2-2.8,4.44-3.72,6.77-2.83,2.26.86,3.44,2.88,3.18,6.38-1.26,16.97-1.69,33.97-4.13,50.89-1.52,10.56-1.03,21.42-1.38,32.15-.04,1.28.29,2.58.5,4.28.83-.58,1.34-.92,1.83-1.28,2.94-2.22,6.42-1.49,7.7,1.98.96,2.6,1.49,5.42,1.77,8.19,1.39,13.34.25,26.58-1.66,39.8-.55,3.83-.7,7.74-.7,11.62,0,5.58,1.57,10.77,4.76,15.41.7,1.02,1.35,2.08,2,3.14,2.92,4.75,3.28,9.62.61,14.6-.62,1.16-1.2,2.37-1.98,3.43-8.95,12.19-13.95,26.01-16.84,40.69-1.66,8.44-3.29,16.88-4.91,25.33-.15.79-.19,1.59-.33,2.88,1.18-.31,1.99-.52,2.81-.74,1.59-.43,3.16-1.08,4.78-1.25,4.56-.48,7.85,2.47,8.07,7.04.03.74.03,1.5-.09,2.23-2.85,17.44-1.82,34.96-1.18,52.48.49,13.63,1.31,27.27-.21,40.89-.35,3.11-.9,6.22-1.6,9.28-1.6,7.01-4.73,13.24-10.17,18.08-2.88,2.57-4.33,5.71-4.8,9.49-.44,3.52-.92,7.07-1.78,10.5-2.73,10.84-9.59,17.53-20.65,19.55-4.14.76-8.35,1.24-12.55,1.45-9.38.47-16.49,4.49-20.85,12.88-7.39,14.21-19.38,20.14-34.99,19.73-19.99-.53-40.03.29-59.96-1.93-6.55-.73-13.03-.38-19.51.71-13.5,2.28-27.02,1.66-40.54.16-10.04-1.11-17.1-6.41-21.73-15.28-4.13-7.91-6.76-16.35-8.76-24.98-2.72-11.76-5.2-23.57-7.74-35.38-2.32-10.77-7.49-19.88-15.66-27.29-1.53-1.39-3.15-2.73-4.45-4.31-2.8-3.41-6.31-5.08-10.7-5.36-2.98-.19-3.1-.24-2.39,2.59,2.52,10.05,3.4,20.21,1.63,30.49-.39,2.27-1,4.53-1.76,6.7-2.9,8.3-8.83,12.7-17.57,13.37-9.22.7-17.88-1.67-26.33-4.97-3.33-1.3-5.25-4.23-6.54-7.45-.72-1.79-1.72-2.63-3.69-2.55-2.87.12-5.77-.12-8.62.14-.98.09-2.35,1.03-2.71,1.91-2.09,5.2-5.87,7.95-11.19,9.57-6.63,2.01-13.22,3.57-20.18,3.44-10.13-.19-16.75-4.9-19.72-14.61-3.64-11.91-2.64-23.87.18-35.78.73-3.1.7-2.96-2.35-2.86-4.78.16-7.87,2.88-11.29,5.8-11.51,9.83-18.55,22.01-20.91,36.94-.34,2.12-.81,4.22-1.31,6.31-2.71,11.5-5.21,23.06-8.29,34.47-1.37,5.05-3.67,9.93-6.07,14.62-4.14,8.08-10.79,13.05-19.94,14.25-13.5,1.77-27.03,2.43-40.53.22-8.16-1.33-16.24-1.28-24.45-.58-9.13.78-18.32.98-27.49,1.17-11.07.23-22.15.36-33.22.2-12.86-.18-22.65-5.9-29.07-17.16-.33-.57-.75-1.1-1.05-1.68-4.72-9.14-12.37-13.3-22.51-13.62-4.03-.13-8.09-.68-12.04-1.49-10.26-2.11-16.87-8.36-19.66-18.45-.94-3.41-1.51-6.95-1.92-10.47-.5-4.29-2.03-7.85-5.3-10.83-7.97-7.28-10.78-17.02-11.35-27.26-.66-11.78-.47-23.62-.46-35.43,0-15.62.28-31.24.24-46.85,0-3.53-.79-7.06-1.21-10.59-.88-7.31,3.8-11.15,10.86-8.92,1.39.44,2.77.9,4.46,1.46,0-.98.11-1.62-.02-2.22-2.42-11.91-4.65-23.86-7.36-35.7-2.37-10.33-6.78-19.84-12.83-28.58-1.46-2.1-2.81-4.3-3.94-6.59-2.25-4.58-2.28-9.43.77-13.45,7.41-9.72,7.83-20.56,6.09-31.91-1.78-11.55-2.81-23.15-1.87-34.85.27-3.37.59-6.78,1.38-10.05,1.29-5.31,4.77-6.37,9.17-3.09.18.14.44.18.99.39.18-1.2.41-2.29.49-3.39,1.2-15.7-.81-31.18-3-46.68-.85-6.03-.92-12.18-1.32-18.28-.39-5.77-.76-11.55-1.11-17.33-.07-1.15-.11-2.32.02-3.47.22-2.02,1.17-3.63,3.19-4.35,1.99-.7,3.75-.14,5.28,1.22.55.49,1.07,1.05,1.49,1.65,4.02,5.75,8.02,11.52,12.04,17.28.3.43.7.8,1.51,1.72,0-1.24.05-1.84,0-2.44-2.39-26.02-4.53-52.06-7.3-78.04-1.31-12.31-3.82-24.48-5.77-36.72-.45-2.85-1.16-5.7-1.22-8.56-.14-6.21,3.52-10.86,9.72-12.39,8.9-2.2,17.28-.25,25.12,4.01,3.8,2.07,7.23,4.84,11.08,7.47.16-.72.42-1.47.47-2.22.65-9.84,3.26-19.19,6.68-28.39,2.86-7.67,5.48-15.42,8.14-23.16,1.19-3.47,3.16-5.16,5.95-4.87,2.7.28,4.42,2.39,4.75,6.06.5,5.52.9,11.04,1.36,16.56.06.79.18,1.57.27,2.35.21.06.42.12.63.19.44-.8.93-1.57,1.31-2.39,5.34-11.69,7.47-24.17,8.28-36.82.47-7.32,3.27-12.53,9.7-16.06,6.04-3.32,8.87-9.2,11.02-15.36,1.44-4.13,3.21-5.99,6.13-5.5,3.01.5,4.3,2.93,4.02,7.4-.1,1.62-.02,3.24.52,5.14.6-.69,1.23-1.35,1.79-2.07,1.77-2.29,3.93-3.9,6.76-4.77,1.16-.36,2.81-1.47,2.92-2.39.21-1.9-.26-4.03-2.4-5.02-.89-.41-1.86-.71-2.82-.95-7.75-1.91-12.84-6.85-15.98-14-3.08-7.01-4.29-14.44-4.29-22.01,0-29.81,9.37-56.12,30.44-77.57,13.19-13.42,29.25-21.16,48.45-21.18,8.5,0,16.54,2.02,24.07,5.99.63.33,1.29.6,2.52,1.16,0-1.48.05-2.49,0-3.49-.65-10.98-.46-21.91,3.73-32.26,7.89-19.48,21.48-32.44,42.88-35.43,10.03-1.4,18.73-5.62,27.38-10.4,5.85-3.24,11.79-6.43,18-8.84,4.3-1.67,9.1-2.21,13.73-2.78,4.42-.55,8.9-.6,13.36-.67,4.12-.07,8.25.15,12.38.18,5.6.04,11.21.03,16.81.01,4.45-.02,8.91-.15,13.36-.09,3.3.04,6.61.57,9.9.44,7.66-.3,14.76,1.6,21.49,5.05,6.62,3.4,13.17,6.93,19.7,10.48,5.5,2.99,11.21,5.36,17.47,6.02,32.57,3.44,49.33,31.29,49.74,56.64.07,4.21-.16,8.43-.31,12.64-.06,1.74.25,2.62,2.22,1.62,20.12-10.23,39.59-7.58,58.36,3.48,14.82,8.74,25.31,21.63,32.91,36.87,9.24,18.52,13.7,38.08,11.55,58.82-.5,4.79-1.77,9.61-3.4,14.16-2.81,7.87-8.28,13.26-16.65,15.19-2.91.67-4.91,2.09-4.95,5.23-.01.87.68,2.38,1.3,2.53,4.47,1.03,7.56,3.84,10.09,7.51.23-.1.45-.21.68-.31ZM682.07,505.43c-.26-.18-.52-.35-.78-.53-1.14.73-2.44,1.28-3.39,2.21-3.24,3.17-6.33,6.51-9.54,9.72-4.84,4.84-9.67,9.71-14.69,14.37-.88.82-2.97,1.26-3.96.77-1-.49-1.79-2.32-1.87-3.61-.26-4.22.98-8.19,3.05-11.85,4.56-8.07,10.42-15.09,17.63-20.93,3.58-2.9,7.59-5.12,12.28-5.5,2.4-.19,3.26-1.23,3.49-3.52,2.48-24.85,5.05-49.68,7.53-74.53.14-1.44-.29-2.94-.46-4.42-1.54.47-3.16.77-4.59,1.46-1.16.56-2.19,1.5-3.11,2.43-2.16,2.16-4.41,4.27-6.29,6.66-4.71,5.97-9.07,12.22-13.93,18.06-1.7,2.04-4.24,3.84-6.75,4.66-4.45,1.44-8.28-2.26-7.16-6.8.56-2.27,2.09-4.42,3.58-6.31,2.71-3.43,5.69-6.65,8.59-9.92,4.93-5.56,9.69-11.29,14.89-16.58,3.9-3.98,8.82-6.42,14.61-6.46,1.86-.01,2.31-1.07,2.52-2.67,2.26-17.29,4.57-34.58,6.86-51.87.35-2.62-.1-3.17-2.72-3.01-5.43.33-10.34,2.15-14.7,5.39-7.62,5.65-12.87,13.29-17.28,21.48-14.32,26.58-23.9,54.86-29.21,84.52-2.4,13.41-3.66,27.03-5.56,40.54-1.35,9.62-3.54,19.02-7.97,27.77-5.62,11.12-14.34,19.39-24.69,25.89-11.55,7.25-23.42,13.98-35.09,21.05-13.44,8.14-25.91,17.45-35.76,29.91-2.36,2.99-3.76,6.28-4.68,9.98-3.17,12.84-6.47,25.65-9.98,38.39-.79,2.87-2.41,5.61-4.08,8.11-1.36,2.03-3.7,2.78-6.19,2.12-2.41-.64-3.82-2.42-4.15-4.77-.36-2.52-.59-5.11-.43-7.64.91-14.04,4.89-27.26,10.58-40.07,1.65-3.72,2.97-7.79,3.42-11.81,1.22-10.84,2.26-21.72,2.73-32.61,1.86-42.83-4.83-84.16-23.41-123.04-7.3-15.28-15.91-29.93-23.92-44.86-3.4-6.34-7.07-12.56-8.62-19.7-2.01-9.27,1.55-16.22,10.34-19.67,3.36-1.32,6.95-2.14,10.48-2.96,8.13-1.88,16.38-3.32,24.43-5.48,27.44-7.35,46.74-24.16,57.72-50.44,5.04-12.05,8.02-24.67,10.4-37.45,1.48-7.96,2.9-15.94,4.55-23.87,1.64-7.88,5.95-13.28,14.33-14.83,3.83-.71,6.64-3.21,7.94-6.83,1.3-3.63,2.55-7.41,2.9-11.21,1.96-21.2-3.26-40.87-13.51-59.29-6.33-11.38-14.67-21.04-26.07-27.64-13.94-8.08-28.47-9.71-43.49-3.12-8.07,3.54-14.72,9.09-20.92,15.25-2.33,2.32-4.75,4.65-7.48,6.44-5.65,3.7-11.95,3.19-16.87-1.44-2.43-2.29-4.46-5.1-6.27-7.94-4.31-6.76-8.1-13.87-12.65-20.45-2.63-3.81-6.15-7.08-9.63-10.19-2.65-2.37-5.75-2.21-8.93-.22-8.07,5.05-13.05,4.7-20.62-1.1-2.69-2.06-5.27-4.27-8.05-6.2-2.72-1.88-3.8-1.5-6.26.77-4.36,4.02-8.93,7.82-13.3,11.83-2.91,2.67-6.11,5.22-8.32,8.42-2.58,3.75-5.5,5.77-10.05,5.31-1.07-.11-2.15-.08-3.22-.04-3.2.11-5.32-1.44-7.25-3.93-2.41-3.11-4.98-6.25-8.03-8.68-5.24-4.18-10.64-8.12-14.96-13.33-1.52-1.83-3.38-2.03-5.28-.69-2.36,1.66-4.68,3.4-6.92,5.23-6.99,5.72-13.22,8.91-23.06,2.03-2.26-1.58-4.77-1.65-6.99-.08-2.41,1.7-5.02,3.4-6.77,5.69-3.85,5.04-7.3,10.4-10.76,15.74-3.06,4.71-5.62,9.76-8.9,14.31-6.39,8.87-15.26,9.74-23.44,2.56-4.4-3.87-8.45-8.18-13.03-11.81-15.63-12.4-32.69-15.1-51.1-6.74-7.56,3.44-13.95,8.53-19.48,14.68-13.3,14.79-20.54,32.4-23.83,51.79-1.6,9.43-2.02,18.91.04,28.36,1.51,6.91,4.9,11.93,12.46,13.36,5.1.96,8.57,4.35,10.22,9.2,1.43,4.21,2.53,8.56,3.44,12.92,2.3,11.09,4.09,22.29,6.68,33.31,3.37,14.36,8.91,27.87,17.75,39.84,12.15,16.45,28.77,26.03,48.25,31.01,8.16,2.08,16.5,3.5,24.69,5.46,3.75.9,7.54,2.03,10.99,3.72,5.7,2.79,8.73,7.74,8.23,14.09-.31,3.88-1.12,7.99-2.83,11.44-4.96,9.99-10.31,19.79-15.82,29.49-14.63,25.75-26.32,52.63-32.38,81.76-6.5,31.24-6.81,62.7-3.65,94.32.77,7.69,2.12,15.12,5.54,22.22,4.62,9.59,7.35,19.85,8.74,30.4.55,4.16.7,8.41.57,12.6-.13,3.88-2.07,6.18-4.79,6.73-2.78.57-5.69-.92-7.39-4.27-1.34-2.64-2.48-5.44-3.26-8.29-2.84-10.36-6.15-20.66-8.02-31.21-1.6-9.02-5.83-15.99-12.13-22.12-.89-.87-1.75-1.76-2.63-2.63-10.14-9.92-22.07-17.32-34.15-24.56-10.78-6.45-21.69-12.71-32.11-19.71-14-9.39-22.73-22.72-26.14-39.25-1.69-8.16-3.09-16.43-3.88-24.73-3.33-34.84-12.34-68.11-27.01-99.85-4.73-10.23-10.04-20.14-17.86-28.45-5.52-5.86-12.05-9.77-20.3-10.21-2.52-.13-2.94.38-2.6,2.88,2.3,17.37,4.63,34.74,6.9,52.12.22,1.68.84,2.55,2.62,2.56,4.75.04,8.92,1.82,12.49,4.8,2.91,2.43,5.73,5.02,8.24,7.86,6.34,7.19,12.56,14.48,18.62,21.9,1.27,1.55,2.1,3.8,2.3,5.81.37,3.77-2.77,6.54-6.49,5.87-1.78-.32-3.66-1.18-5.06-2.32-1.84-1.49-3.37-3.4-4.83-5.29-3.94-5.1-7.52-10.51-11.74-15.36-3.16-3.64-6.85-6.93-10.75-9.76-2.78-2.02-4.01-.99-3.69,2.44.8,8.81,1.57,17.63,2.48,26.43,1.69,16.37,3.5,32.72,5.18,49.09.25,2.44,1.08,3.52,3.71,3.9,2.79.41,5.72,1.33,8.1,2.81,10.23,6.38,17.67,15.37,22.78,26.19,1.26,2.66,1.53,5.9,1.74,8.91.09,1.3-.78,3.1-1.81,3.94-1.49,1.21-3.17.15-4.41-1.06-4.37-4.27-8.74-8.55-13.03-12.9-3.42-3.47-6.66-7.12-10.11-10.55-1.1-1.09-2.63-1.74-4.51-2.94,0,1.54-.08,2.33.01,3.1.89,7.89,1.65,15.79,2.76,23.65,2.25,15.96,4.65,31.9,7.13,47.83.23,1.48,1.14,3.15,2.26,4.15,2.76,2.47,5.93,4.48,8.75,6.9,9.3,7.98,19.81,11.58,32.13,9.74,2.86-.43,6-.17,8.82.55,6.42,1.62,8.25,8.11,4.01,13.21-2.86,3.44-6.7,5.1-10.97,5.71-12.91,1.86-24.6-1.24-35.09-8.96-.81-.6-1.68-1.11-3.12-2.04.18,1.58.16,2.47.4,3.28,2.7,8.94,5.01,18.03,8.3,26.75,2.64,6.99,6,13.82,9.88,20.21,6.44,10.6,16.18,15.48,28.72,14.28,1.97-.19,3.96-.29,5.94-.37,10.16-.4,15.45,3.05,18.63,12.74,1.65,5.01,2.71,10.22,3.9,15.37,1,4.35,1.74,8.76,2.73,13.11.83,3.62,1.87,4.64,5.55,4.89,3.11.21,6.32.29,9.38-.22,4.8-.8,9.56-1.95,14.23-3.31,7.78-2.26,15.47-4.81,23.21-7.21,1.74-.54,3.51-.69,4.69,1.07,1.17,1.75.42,3.41-.76,4.76-2.45,2.79-4.73,5.83-7.6,8.11-11.85,9.39-25.35,13.61-40.51,11.99-2.46-.26-2.8.17-1.94,2.6.44,1.25.95,2.47,1.45,3.7,10.97,26.86,32.46,40.69,61.4,39.43,1.44-.06,2.95-.78,4.23-1.53,1.33-.78,2.35-2.05,3.62-2.95,4.38-3.11,8.89-6.04,13.2-9.24,15.05-11.17,25.65-25.4,29.86-43.96.48-2.09,1.1-4.16,1.66-6.23.47-1.74,1.11-3.45,3.22-3.59,2.11-.14,2.98,1.42,3.69,3.09,2.44,5.73,2.94,11.68,1.88,17.76-1.93,11.09-7.48,20.38-14.6,28.87-.64.77-1.16,1.64-1.73,2.46l.16.74c3.93-.74,7.08.73,10.34,2.53,3.92,2.17,8.14,4.07,12.46,5.22,7.03,1.88,7.95,1.25,12-4.87,3.93-5.94,6.1-12.62,8.23-19.33,1.32-4.17,2.72-8.34,4.44-12.35.47-1.09,2.23-2.29,3.35-2.25,1.12.05,2.77,1.4,3.13,2.52.88,2.71,1.55,5.62,1.59,8.46.13,8.84-2.83,16.87-7.22,24.43-.47.82-.92,1.65-1.68,3.02,1.42-.18,2.22-.21,2.97-.4,7.11-1.78,13.9-4.38,20.03-8.41,2.44-1.61,4.48-3.84,6.68-5.81,1.39-1.24,1.32-2.64.63-4.27-1.36-3.19-2.7-6.4-3.82-9.69-7.28-21.29-11.47-43.3-14.79-65.48-3.31-22.16-6.43-44.34-9.58-66.53-.74-5.23-1.55-10.48-1.83-15.74-.37-6.79,2.56-12.16,8.2-16.01,2.12-1.45,4.16-3.01,6.32-4.38,4.08-2.6,6.99-6.14,9.46-10.28,6.45-10.78,11.47-22.16,14.99-34.21,2.15-7.35,6.38-12.95,13.33-16.41,2.55-1.27,5.16-1.6,7.63-.34,5.71,2.91,10.63,6.7,12.78,13.15.81,2.43,1.86,4.79,2.58,7.24,2.58,8.86,6.51,17.13,10.74,25.3,3.85,7.42,8.57,13.9,16.06,18.03,1.29.71,2.45,1.68,3.65,2.56,4.96,3.64,7.46,8.58,7.33,14.7-.07,3.54-.35,7.1-.85,10.61-3.08,21.44-6.22,42.87-9.4,64.3-4.23,28.49-8.75,56.91-19.92,83.75-.36.86-.18,2.48.42,3.12,2.13,2.27,4.33,4.59,6.89,6.29,6.18,4.11,13.06,6.73,20.25,8.51.73.18,1.51.17,2.26.26.06-.52.15-.72.09-.83-.34-.66-.7-1.31-1.07-1.95-4.46-7.71-7.48-15.88-7.28-24.92.06-2.68.62-5.43,1.46-7.99.37-1.14,1.95-2.53,3.06-2.61,1.11-.08,2.57,1.14,3.44,2.16.87,1.03,1.29,2.48,1.74,3.81,1.93,5.72,3.71,11.49,5.72,17.18,1.88,5.33,4.39,10.39,8.31,14.54.96,1.02,2.68,1.97,3.98,1.89,5.57-.36,11.03-1.64,15.74-4.76,3.59-2.38,7.15-4.44,11.63-4.14.1,0,.21-.22.53-.57-.5-.72-1-1.53-1.6-2.26-5.77-6.92-10.52-14.43-13.23-23.09-2.53-8.06-2.89-16.12.66-23.98.53-1.18,2.22-2.48,3.41-2.51.98-.03,2.35,1.56,2.93,2.74.83,1.67,1.11,3.62,1.61,5.46,2.59,9.63,5.91,18.94,11.89,27.09,7.46,10.16,17.15,17.81,27.45,24.83,2.78,1.89,5.32,4.14,8.06,6.1.82.59,1.93,1.04,2.92,1.09,11.75.54,23.09-1.21,33.73-6.48,15.76-7.81,24.62-21.28,30.39-37.26.64-1.78-.16-2.04-1.82-2.03-5.02.03-10.15.46-15.04-.39-13.37-2.31-24.9-8.2-33.29-19.28-1.18-1.56-2.3-3.22-.93-5.17,1.29-1.84,3.18-1.48,4.97-.92,7.03,2.17,14.03,4.42,21.07,6.58,7.2,2.22,14.42,4.36,22.06,4.31,7.3-.04,8.07-.77,9.61-7.82,1.89-8.64,3.51-17.37,6.03-25.82,2.91-9.74,8.47-13.13,18.61-12.71,3.55.15,7.1.46,10.65.43,7.46-.06,14.06-2.58,19.02-8.2,3.2-3.63,6.18-7.6,8.5-11.83,7.28-13.22,11.15-27.72,14.95-42.21.15-.56.02-1.18.02-1.75-.52-.04-.73-.12-.83-.05-.55.36-1.08.75-1.6,1.15-9.33,7.06-19.84,10.4-31.53,9.79-5.21-.27-10.18-1.38-14.11-5.2-2.55-2.48-3.81-5.48-2.86-8.99.9-3.34,3.6-4.96,6.76-5.44,2.83-.42,5.81-.68,8.62-.29,11.55,1.63,21.57-1.51,30.42-8.94,2.91-2.44,5.85-4.88,8.96-7.04,1.85-1.28,2.93-2.72,3.24-4.95,3.05-22.19,6.16-44.38,9.23-66.57.32-2.34.5-4.7.74-7.05ZM285.92,786.95c-1.51-.37-2.34-.61-3.2-.78-5.56-1.14-10.81-2.94-15.35-6.57-.77-.62-2.54-.59-3.57-.17-5.57,2.29-11.1,4.72-16.54,7.3-.96.45-1.99,1.81-2.09,2.83-.73,7.69-2.94,14.92-6.39,21.77-7.77,15.43-19.47,26.38-36.69,30.02-20.91,4.41-41.13,1.5-60.38-7.7-8.28-3.96-14.18-10.44-17.9-18.85-1.04-2.34-2.12-4.69-2.87-7.13-4-12.99-12.53-21.88-24.61-27.68-7.45-3.58-14.9-7.16-22.27-10.9-10.41-5.29-17.37-13.5-20.62-24.8-1.16-4.05-2.44-8.07-3.83-12.05-2.78-7.93-7.98-13.84-15.44-17.67-3.3-1.69-6.77-3.07-10.18-4.55-.57-.25-1.22-.31-1.77-.45v75.88c1.06-.51,1.61-.68,2.04-1,6-4.45,12.84-5.55,19.81-3.75,7.89,2.04,15.62,4.79,23.29,7.59,2.22.81,4.17,2.64,5.92,4.34,1.97,1.92,3.12,4.44,1.97,7.22-1.15,2.79-3.85,3.53-6.43,3.2-3.9-.5-7.77-1.42-11.56-2.48-4.77-1.34-9.4-3.15-14.17-4.49-5.21-1.47-9.97-.38-14.11,3.23-1.05.92-2.43,1.5-3.36,2.51-.71.77-1.49,2.06-1.34,2.97.78,4.61,2.17,9.16,5.34,12.65,5.48,6.03,8.21,13.18,10.2,20.91,3.23,12.57,7.57,16.07,20.44,17.54.41.05.85.22,1.22.13,1.07-.28,2.22-.49,3.16-1.05,2.12-1.26,3.98-3.04,6.21-4.02,8.97-3.95,16.72-9.26,23.22-16.84,6.08-7.1,17.81-8.01,25.83-3.13,4.59,2.79,4.64,7.86-.11,10.38-2.06,1.1-4.5,1.78-6.83,2.01-4.28.43-7.66,2.24-10.67,5.19-4.95,4.85-10.65,8.62-17.07,11.28-.8.33-1.53.81-2.39,1.27.33.54.42.91.66,1.07,5.57,3.81,9.6,9.07,13.34,14.53,4.53,6.61,10.76,10.21,18.65,10.73,9.56.63,19.14,1.01,28.72,1.37.99.04,2.42-.52,2.95-1.28,1.93-2.78,3.84-5.63,5.25-8.68,6.19-13.36,17.18-20.03,31.09-22.72,1.59-.31,3.3-.23,4.93-.05,3.67.4,5.03,3.01,3.5,6.42-1.5,3.33-4.13,5.61-7.24,7.24-7.33,3.85-14,8.43-18.86,15.32-.95,1.34-2.42,2.32-3.64,3.47.09.27.18.54.28.81,2.99-.18,6.02-.14,8.97-.58,11.35-1.68,22.63-1.58,34.09-.47,10.06.97,20.29.36,30.44.24,7.33-.09,12.49-3.76,15.56-10.39.45-.97,1.05-1.9,1.35-2.92,2.81-9.58,5.86-19.11,8.28-28.79,2.38-9.54,4-19.26,6.15-28.86,2.46-10.95,7.84-20.29,16.08-27.95.71-.66,1.34-1.4,2.51-2.63ZM655.07,860.97c-1.24-.57-2.18-.89-3.01-1.4-4.76-2.95-9.88-5.48-14.12-9.04-4.61-3.87-9.03-7.47-15.38-7.51-.48,0-.97-.2-1.45-.33-3.99-1.09-6.6-3.57-6.75-6.4-.14-2.81,1.98-5.08,6.14-6.58,10.36-3.72,19.08-1.43,26.15,7.26,3.91,4.81,8.62,8.33,14.2,10.92,3.51,1.63,7.27,3.15,10.15,5.61,2.95,2.52,5.76,2.76,9.11,2,1.37-.31,2.76-.52,4.13-.85,5.45-1.3,9.4-4.48,11.4-9.72,1.41-3.7,2.54-7.51,3.55-11.34,1.38-5.3,3.91-9.88,7.26-14.22,2.48-3.21,4.46-6.94,5.97-10.72,2-5.01,1.5-4.89-2.43-8.46-5.48-4.98-11.5-5.69-18.2-3.45-4.7,1.57-9.34,3.35-14.1,4.73-2.9.84-5.96,1.35-8.97,1.56-2.51.18-5.06-.44-6.24-3.12-1.2-2.72-.15-5.27,1.76-7.01,2.33-2.13,4.98-4.23,7.88-5.37,6.29-2.48,12.76-4.58,19.29-6.36,3.29-.9,6.86-1.03,10.3-1.01,4.94.03,9.26,2.1,13.54,5.14,1.23-25.24-1.14-50.4.9-76.26-3.21,1.3-5.7,2.3-8.18,3.32-10.77,4.43-17.95,12.09-21.11,23.42-1.09,3.9-2.35,7.76-3.66,11.59-2.78,8.12-7.79,14.57-15.12,19.03-4.3,2.61-8.83,4.85-13.3,7.17-6.53,3.38-13.23,6.45-19.61,10.09-7.78,4.44-13.31,11.03-16.56,19.45-1.22,3.16-2.47,6.31-3.71,9.47-4.11,10.45-11.3,17.98-21.58,22.44-16.52,7.18-33.79,9.59-51.65,7.53-7.97-.92-15.55-3.34-22.26-7.84-15.83-10.61-24.22-25.77-26.69-44.43-.2-1.51-.23-2.83-2-3.57-5.71-2.4-11.32-5.02-17.04-7.4-.89-.37-2.45-.31-3.15.24-4.74,3.8-10.23,5.65-16.07,6.74-.68.13-1.34.38-2.48.71,1.05,1.17,1.73,2.06,2.54,2.81,7.84,7.31,13.15,16.16,15.56,26.58,2.57,11.11,4.7,22.32,7.16,33.46,2.14,9.69,4.56,19.31,8.94,28.31,3.09,6.37,7.96,9.86,15.1,10.37,11.07.78,22.15,1.09,33.17-.36,9.25-1.22,18.44-1.29,27.67.12,3.59.55,7.24.69,10.86.96.77.06,1.55-.08,3.01-.17-2-2.03-3.74-3.43-5.01-5.18-4.1-5.62-9.46-9.57-15.53-12.83-2.8-1.5-5.45-3.48-7.72-5.71-1.82-1.79-3.62-4.2-2.19-7.09,1.36-2.74,4.15-2.22,6.58-2.38.16-.01.33,0,.5.02,10.88,1.48,20.49,5.67,27.31,14.48,3.91,5.05,6.85,10.86,10.1,16.4.88,1.49,1.95,2.15,3.59,2.08,8.92-.39,17.83-.77,26.75-1.19,9.22-.44,16.39-4.35,21.48-12.23,3.23-5,7.04-9.61,12.08-13.01.37-.25.58-.72,1.14-1.44ZM651.32,762.98c-3.75-1.78-7.07-3.07-10.11-4.85-4.55-2.66-7.9-6.56-9.65-11.57-.4-1.14-.26-3.04.46-3.83.71-.78,2.51-.93,3.77-.78,1.43.17,2.8.96,4.19,1.48,7.2,2.68,14.32,5.57,21.61,7.97,6.25,2.06,6.87,1.57,9.8-4.49.43-.89.86-1.8,1.16-2.74,1.34-4.17,2.66-8.35,3.94-12.54,3.33-10.92,9.13-20.18,19.34-25.67,4.76-2.56,6.92-5.47,6-10.75-.25-1.45-.04-2.99-.04-4.64-.76.16-1.11.15-1.38.29-9.66,5.06-20.16,5.42-30.7,5.42-3.96,0-7.76-.77-10.78-3.64-4.24-4.03-3.3-8.62,2.32-9.96,4.31-1.02,8.8-1.66,13.22-1.72,7.88-.11,15.47-1.17,22.73-4.32,1.21-.52,2.47-1.04,3.76-1.26,2.65-.47,3.55-2.07,3.92-4.6,2.59-17.65,7.95-34.3,18.51-48.94,1.87-2.59,1.62-4.97.14-7.59-5.2-9.18-6.78-19.09-5.58-29.47.61-5.25,1.47-10.48,2.2-15.72.11-.78.12-1.58.17-2.37-1,1.92-1.61,3.81-1.9,5.76-3.24,21.14-11.85,40.3-21.64,59.04-3.45,6.6-8.51,9.77-16.07,9.06-2.47-.23-5.04.47-7.56.81-2.22.3-3.24,1.83-4.14,3.78-2.41,5.25-4.79,10.55-7.68,15.54-5.16,8.9-12.08,15.99-21.61,20.5-2.53,1.2-4.79,3.89-6.15,6.45-1.59,2.99-2.29,6.53-2.97,9.92-1.31,6.48-2.23,13.04-3.49,19.53-1.13,5.78-4.34,10.27-9.06,13.75-5.63,4.15-11.9,5.94-18.87,5.53-4.36-.26-4.34-.18-5.7,3.92-4.79,14.42-12.16,27.19-24.26,36.72-16,12.6-34.49,16.44-54.39,14.84-3.54-.28-7.05-.93-10.55-1.49-1.61-.26-2.23.24-1.8,1.84.68,2.55,1.22,5.16,2.11,7.64,5.94,16.49,16.56,28.16,34.24,31.94,15.41,3.3,30.59,1.67,45.47-3.27.79-.26,1.51-.77,2.57-1.33-.88-.76-1.4-1.26-1.96-1.7-5.67-4.39-10.07-9.86-12.88-16.41-1.13-2.64-1.69-5.74-1.65-8.62.05-4.16,3.6-5.78,6.95-3.3,2.37,1.75,4.37,4.01,6.46,6.11,4.25,4.26,8.3,8.73,12.72,12.81,3.51,3.25,4.05,3.19,6.23-1.07,2.4-4.69,4.43-9.6,6.26-14.55,4.21-11.39,11.45-20.26,21.85-26.41,5.75-3.4,11.81-6.3,17.72-9.44.83-.44,1.63-.95,2.76-1.62ZM151.39,827.54c.74.34,1.65.88,2.62,1.2,12.75,4.19,25.82,5.7,39.15,4.07,22.02-2.7,38.13-18.25,42.04-40.25.37-2.06-.26-2.47-2.19-2.13-3.33.59-6.69,1.14-10.06,1.42-16.02,1.35-31.36-.96-45.55-8.9-16.1-9.01-26.07-23.02-32.19-40.08-2.32-6.45-2.29-6.46-9.08-6.47-12.75-.01-23.16-8.29-25.85-20.68-.79-3.63-1.2-7.34-1.94-10.99-1.05-5.18-2.05-10.38-3.42-15.47-1.11-4.13-4.19-6.65-7.88-8.77-3.97-2.29-7.93-4.84-11.29-7.93-7.65-7.02-12.56-16.03-16.14-25.59-1.93-5.17-5.51-6.27-10.07-6.57-1.07-.07-2.15.04-3.22.14-6.66.61-11.59-2.05-14.72-7.92-1.36-2.55-2.41-5.26-3.66-7.86-1.29-2.68-2.46-5.44-4.03-7.95-4.01-6.45-6.97-13.34-8.83-20.68-2.27-8.98-4.38-17.99-6.57-26.99-.21-.85-.52-1.68-.78-2.52.14,4.41.8,8.64,1.44,12.88,1.81,11.87,1.4,23.48-4.72,34.22-1.9,3.33-1.65,6.03.51,9.12,5.52,7.9,10.14,16.35,12.72,25.67,2.09,7.56,3.5,15.3,5.38,22.92.31,1.27,1.2,2.97,2.25,3.38,9.5,3.74,19.16,6.85,29.6,6.14,1.23-.08,2.5-.03,3.71.2,3.23.64,6.52,1.17,9.63,2.2,2.92.97,3.75,3.36,2.59,6.21-1.61,3.94-4.87,5.96-8.84,6.29-11.29.96-22.48.59-33.05-4.28-.86-.4-1.77-.67-3.05-1.15,0,3.28.18,6.15-.06,8.98-.19,2.26.64,3.45,2.61,4.44,11.22,5.65,18.59,14.61,22.35,26.56,1.24,3.94,2.2,8,3.72,11.83,1.3,3.27,3.1,6.36,4.93,9.37.43.71,2.08,1.34,2.86,1.08,6.9-2.28,13.74-4.73,20.57-7.21,2.72-.99,5.35-2.21,8.03-3.28,1.67-.67,3.39-1.11,4.82.46,1.42,1.56.79,3.23.07,4.86-3.11,7.05-8.69,11.27-15.76,13.79-1.12.4-2.23.8-4.04,1.44,1.41.84,2.13,1.32,2.89,1.71,4.56,2.33,9.2,4.53,13.69,6.99,8.75,4.79,16.65,10.7,21.52,19.62,2.8,5.12,4.66,10.75,7.09,16.08,1.54,3.37,3.32,6.63,5.08,9.9.66,1.21,1.69,1.94,3.01.73,3.77-3.45,7.62-6.83,11.25-10.43,2.98-2.96,5.6-6.29,8.55-9.29,1.53-1.55,3.5-2.74,5.82-1.66,2.42,1.12,2.76,3.47,2.53,5.72-.23,2.27-.67,4.61-1.54,6.7-1.05,2.49-2.38,4.97-4.08,7.06-3.21,3.94-6.76,7.59-10.45,11.67ZM651.94,306.82c-.25.15-.47.21-.49.32-.19.88-.43,1.77-.49,2.66-1.67,22.35-11.13,41.45-25.74,57.84-6.41,7.19-14.36,13.26-22.38,18.7-11.47,7.77-20.87,17.46-29.56,28.03-2.2,2.68-4.45,5.35-6.33,8.24-1.54,2.38-3.23,4.47-5.9,5.41-2.39.84-2.78,2.19-2.31,4.53,2.89,14.59,5.46,29.25,8.48,43.82,4.69,22.58,5.07,44.95-2.22,67.11-.16.48-.07,1.04-.1,1.66.47-.09.74-.07.94-.19,10.03-6.07,20.19-11.96,30.04-18.32,6.44-4.16,11.67-9.72,15.56-16.42,1.46-2.52,1.31-2.96-1.31-3.96-4.7-1.8-8.48-4.79-11.23-8.99-1.34-2.04-3.2-4.22-1.42-6.77,1.73-2.48,4.36-1.41,6.63-.9,3.71.83,7.37,1.85,11.05,2.83,1.96.52,3.2.07,3.52-2.15.33-2.29.93-4.54,1.21-6.83,1.65-13.62,3.23-27.25,4.88-40.87.2-1.67-.46-2.42-1.99-2.82-3.49-.93-6.37-2.89-8.24-5.95-.66-1.08-1-3.07-.43-4,.57-.94,2.44-1.42,3.77-1.47,2.12-.08,4.27.34,6.41.59,2.07.24,3.3-.48,3.61-2.69.23-1.63.7-3.23,1.13-4.83,6.78-25.5,15.54-50.21,29.24-72.94.81-1.35,1.25-3.09,1.34-4.68.7-12.66-2.54-24.57-7.11-36.21-.11-.28-.37-.49-.55-.73ZM173.05,545.06c-.33-1.32-.51-2.18-.77-3.01-4.44-14.39-6.43-29.13-4.78-44.1,1.21-10.91,3.36-21.72,5.28-32.54,1.99-11.24,4.23-22.43,6.24-33.66.16-.9-.29-2.6-.9-2.85-3.9-1.61-5.99-4.81-8.48-7.98-9.8-12.48-19.91-24.64-33.45-33.56-14.97-9.86-28.3-21.55-36.62-37.95-.56-1.1-1.44-2.04-1.97-3.15-1.94-4.01-4.42-7.89-5.56-12.12-2.19-8.2-3.61-16.61-5.34-24.94-.17-.8-.32-1.6-.52-2.61-.5.4-.68.48-.73.61-4.77,11.76-8,23.83-7.34,36.66.08,1.51.54,3.16,1.34,4.43,7.5,11.97,13.14,24.83,18.18,37.98,5.01,13.06,9.25,26.37,12.31,40.04.45,2.01,1.46,2.83,3.46,2.59,2.22-.26,4.44-.68,6.65-.62,1.24.03,2.99.58,3.54,1.49.55.91.31,2.79-.3,3.83-1.76,3.03-4.49,5.11-7.91,5.98-2.21.57-2.6,1.72-2.26,3.8.69,4.24,1.14,8.52,1.68,12.79,1.4,11.15,2.73,22.31,4.23,33.45.43,3.22.95,3.41,4.16,2.63,4.26-1.02,8.47-2.26,12.77-3.04,1.31-.24,3.47.33,4.09,1.28.7,1.08.62,3.24,0,4.52-2.55,5.37-6.79,9.07-12.35,11.23-2.66,1.03-2.82,1.42-1.35,3.93,3.04,5.2,6.97,9.65,11.61,13.45,10.31,8.42,22.13,14.44,33.58,21.05.27.15.61.16,1.5.38ZM180.88,419.67c.24-1,.5-1.83.63-2.68,1.06-7.45,2.15-14.89,3.12-22.35,2.02-15.53,3.03-31.1,1.81-46.75-.1-1.34-.55-3.22-1.5-3.84-3.23-2.13-6.59-4.22-10.19-5.6-10.82-4.15-18.98-11.4-25.86-20.51-5.86-7.76-9.61-16.6-13.37-25.39-2.51-5.88-4.62-12.11-5.7-18.39-1.37-7.95-1.51-16.11-2.19-24.18-.08-.91-.2-1.81-.33-2.97-2.53,1.98-4.56,3.82-6.83,5.27-3.15,2.02-4.35,4.72-4.73,8.42-.91,8.87-1.83,17.79-3.66,26.5-1.31,6.24-3.87,12.26-6.32,18.19-1.5,3.65-3.85,6.91-7.26,9.27-.65.45-1,1.88-.87,2.78.49,3.6,1.3,7.16,1.85,10.75.33,2.18,1.47,3.02,3.62,3.25,8.13.87,16.24,1.92,24.37,2.85,1.81.21,3.53.53,4.16,2.5.61,1.94-.48,3.29-1.83,4.53-5.28,4.89-11.59,6-18.46,5.13-.87-.11-1.74-.21-2.86-.35.18.72.17,1.17.38,1.47,4.29,6.28,8.35,12.78,14.43,17.55,6.37,5,12.91,9.79,19.33,14.72,2.07,1.59,4.01,2.62,6.22.28.26-.27.74-.45,1.13-.47,5.67-.29,11.35-.68,17.03-.7,1.04,0,2.67,1.36,2.97,2.4.31,1.05-.31,2.95-1.19,3.66-2.08,1.69-4.5,2.99-6.88,4.28-1.11.6-2.44.79-4.03,1.28,4.47,4.67,9.02,8.78,12.76,13.52,3.76,4.77,6.72,10.16,10.22,15.58ZM629.22,346.1c-1.26.15-2.2.26-3.15.38-6.7.8-12.84-.38-18.03-5.02-1.4-1.26-2.72-2.58-2.04-4.67.69-2.09,2.53-2.31,4.41-2.52,8.21-.94,16.4-1.97,24.61-2.9,1.71-.19,2.74-.88,3.04-2.64.66-3.83,1.48-7.63,2.02-11.47.12-.86-.46-2-1.05-2.74-1.98-2.5-4.69-4.6-6.06-7.37-2.62-5.3-5.3-10.79-6.53-16.51-2.11-9.83-3.07-19.9-4.61-29.86-.31-1.99-.45-4.47-1.68-5.76-2.81-2.92-6.25-5.23-9.8-8.09-.11,1.32-.18,2.19-.25,3.07-.69,8.15-1.04,16.35-2.16,24.44-1.73,12.51-7.68,23.57-13.5,34.47-6.38,11.98-14.95,22.19-27.85,27.93-4.52,2.01-8.89,4.38-13.19,6.82-1,.57-1.94,2.06-2.07,3.22-.41,3.85-.53,7.74-.59,11.62-.33,20.01,2.67,39.72,5.61,59.43.08.56.44,1.08.67,1.62.27.09.54.18.81.26,3.88-12.22,13.26-20.22,22.17-29.2-1.42-.42-2.33-.54-3.08-.95-2.8-1.53-5.75-2.88-8.25-4.81-2.16-1.67-1.79-4.92.55-5.44,6.77-1.51,13.68-1.55,20.13,1.23,2.02.87,3.21,1.03,4.82-.18,6.14-4.63,12.29-9.22,18.44-13.83,6.74-5.06,11.4-11.9,16.02-18.77.25-.37.3-.88.57-1.72ZM334.98,65.27c4.95,0,8.86,3.1,12.28,7.17,2.44,2.9,4.94,5.78,7.57,8.51,4.06,4.21,8.28,8.26,12.37,12.44,1.33,1.37,2.37,1.24,3.45-.18.8-1.05,1.48-2.22,2.42-3.14,6.91-6.74,14.07-13.18,20.4-20.55,4.26-4.97,10.72-5.57,16.62-2.57,2.55,1.3,4.84,3.14,7.16,4.86,1.99,1.48,3.85,3.12,5.75,4.71,1.92,1.6,3.67,1.43,5.86.16,3.1-1.79,6.51-3.07,9.79-4.56,1.05-.48,2.11-.96,3.2-1.33,3.96-1.35,7.88-2.83,11.91-3.91,2.31-.61,4.06-1.52,5.29-3.63,2.63-4.49,5.36-8.92,8.13-13.32,1.4-2.22,1.94-4.53,1.42-7.09-.28-1.38-.69-2.75-.79-4.14-.14-1.93-1.19-2.74-2.96-3.04-3.01-.52-6.04-1.01-9.01-1.71-2.03-.47-2.97.21-3.73,2.09-2.29,5.68-6.37,9.46-12.26,11.43-7.29,2.44-14.42,5.35-21.76,7.61-4.45,1.37-9.14,2.47-13.76,2.62-4.85.16-9.53.49-14.12,2.05-1.48.5-3.03.85-4.57,1.14-7.13,1.36-14.26,3.36-21.58,2.11-6.83-1.16-13.56-2.93-20.36-4.29-2.57-.51-5.22-.94-7.82-.85-5.72.19-11.16-.71-16.5-2.75-6.49-2.47-12.97-5.01-19.61-6.99-6.91-2.07-11.83-5.96-14.57-12.68-.31-.75-1.75-1.58-2.55-1.48-3.44.43-6.85,1.13-10.23,1.88-.79.18-1.97.79-2.11,1.41-1.05,4.63-2.58,9.19.84,13.75,2.77,3.68,4.98,7.79,7.24,11.82,1.33,2.37,3.15,3.48,5.78,4.11,3.89.94,7.66,2.43,11.46,3.73,1.25.43,2.45.98,3.66,1.51,3.14,1.4,6.38,2.62,9.38,4.28,2.97,1.65,3.7,1.89,6.44-.22,3.01-2.32,5.86-4.85,8.9-7.13,3.02-2.27,6.4-3.79,10.99-3.84ZM22.9,455.77c-.34.68-.53.89-.52,1.09.53,8.57.88,17.15,1.68,25.69.53,5.67,1.93,11.25,2.55,16.91,1.72,15.85,2.53,31.67-2.87,47.11-.24.69-.22,1.83.2,2.29.37.4,1.57.39,2.22.12,3.96-1.65,7.83-3.55,11.83-5.08,1.11-.42,3.05-.36,3.75.34.67.67.77,2.81.19,3.7-3.26,5.02-7.35,9.19-13.37,10.82-1.63.44-2.16,1.12-1.75,2.79,1.84,7.47,3.63,14.94,5.36,22.43.41,1.79,1.3,2.33,3,1.83,2.85-.84,5.68-1.83,8.59-2.4,1.09-.21,2.85.21,3.45,1,.61.79.6,2.64.08,3.59-1.9,3.52-4.7,6.32-8.73,7.19-2.67.58-2.73,1.77-1.8,3.81,3.61,7.89,7.22,15.77,10.75,23.69,3.86,8.63,4.11,8.83,13.52,8.67.17,0,.33,0,.5,0,1.6.07,2.05-.61,1.57-2.14-.82-2.6-1.57-5.23-2.3-7.86-8.49-30.71-12.9-62.13-16.46-93.71-1.94-17.25-3.84-34.51-5.84-51.76-.12-1.06-.82-2.23-1.59-3-1.21-1.2-3.01-1.86-4.03-3.16-2.55-3.23-4.8-6.7-7.18-10.07-.87-1.23-1.77-2.45-2.82-3.9ZM715.18,455.43c-1.16,1.48-1.96,2.37-2.61,3.36-1.6,2.41-2.95,5.01-4.73,7.27-1.77,2.25-3.66,4.65-6.02,6.13-1.94,1.21-2.51,2.49-2.73,4.47-1.95,17.83-3.92,35.67-5.94,53.49-2.82,24.9-6.16,49.73-11.91,74.16-1.93,8.21-4.29,16.31-6.36,24.48-.19.74.07,2.2.51,2.38,4.85,1.98,10.86-.33,13.18-5.05,3.24-6.6,6.41-13.24,9.51-19.91,1.18-2.54,2.05-5.23,3.11-7.84.66-1.63.45-2.57-1.51-3-3.92-.86-6.88-3.29-8.87-6.66-.68-1.15-.93-3.08-.44-4.27.69-1.68,2.57-1.42,4.16-.95,2.62.77,5.24,1.51,7.85,2.29,1.76.53,2.76.08,3.2-1.86,1.71-7.5,3.52-14.97,5.33-22.44.32-1.34.12-2.21-1.39-2.59-5.77-1.47-9.75-5.35-13.2-9.93-1.1-1.46-2.01-3.03-.59-4.7,1.35-1.58,2.94-.89,4.52-.17,3.53,1.61,7.08,3.2,10.67,4.67.84.34,1.87.2,2.82.29-.01-1.09.17-2.23-.07-3.27-.73-3.22-1.87-6.35-2.41-9.6-2.23-13.34-1.88-26.75.33-40.02,2.11-12.67,3.47-25.36,3.72-38.19.01-.61-.05-1.22-.12-2.55ZM444.22,31.57c-.56-.44-1.09-1.01-1.74-1.34-4.18-2.16-8.42-4.21-12.58-6.41-1.38-.73-2.37-.77-3.47.44-4.58,5-10.47,7.28-17.05,8.2-4.58.64-9.31.95-13.63,2.41-9.41,3.16-19.12,2.22-28.7,2.93-4.08.3-8.23-.21-12.33-.56-2.79-.23-5.56-.74-8.31-1.26-5.83-1.11-11.61-2.53-17.48-3.41-6.83-1.02-12.92-3.25-17.83-8.33-.57-.59-2.17-.81-2.95-.45-4.42,2.05-8.71,4.38-13.09,6.51-1.37.66-1.62,1.36-.93,2.7,1.74,3.38,4.17,5.8,7.92,7,7.79,2.49,15.45,5.38,23.29,7.72,3.75,1.12,7.76,1.39,11.66,1.98,2.44.37,4.92.51,7.34.94,4.86.87,9.74,1.73,14.54,2.86,3.01.7,5.89,1.93,8.86,2.8.73.21,1.66.13,2.41-.12,2.25-.75,4.4-1.91,6.69-2.42,5.95-1.31,11.95-2.4,17.95-3.49,1.86-.34,3.79-.27,5.66-.58,4.53-.75,9.15-1.26,13.55-2.52,6.74-1.93,13.33-4.4,19.98-6.66,1.48-.5,2.99-.98,4.4-1.66,2.94-1.43,4.37-4.14,5.87-7.27ZM341.38,628.42c-3.41,1.29-6.66,2.42-9.81,3.79-.51.22-.8,1.56-.75,2.35.17,2.47.55,4.92.87,7.38,1.1,8.55,1.11,8.52,9.05,11.86,2.11.89,4.1,1.03,6.21.06,4.3-1.96,8.84-2.18,12.99-.14,6.12,3.01,11.83,2.98,17.93-.03,3.71-1.83,7.94-1.98,11.82-.21,3.29,1.5,6.19,1.19,9.17-.56,1.42-.83,3.07-1.34,4.36-2.33.95-.73,1.93-1.92,2.12-3.04.72-4.31,1.2-8.68,1.6-13.03.07-.81-.39-2.14-1.01-2.47-5.82-3.11-11.72-4.67-17.62-.09-.78.61-1.66,1.08-2.48,1.64-5.38,3.72-10.63,7.8-17.85,6.2-.08-.02-.17,0-.25.02-3.75.83-7-.4-10.07-2.42-2.97-1.95-5.85-4.05-8.93-5.8-2.25-1.28-4.77-2.09-7.36-3.19ZM317.09,18.82c4.32,3.41,8.56,5.12,13.31,5.95,6.74,1.18,13.43,2.67,20.14,4.01,1.7.34,3.41.66,5.13.85,4.17.45,8.35.84,12.53,1.21.64.06,1.31-.07,1.96-.14,3.03-.32,6.06-.61,9.08-1,3.26-.42,6.53-.84,9.76-1.44,5.19-.97,10.31-2.32,15.53-3.09,5.06-.75,9.91-1.83,14.15-4.85.55-.39,1.03-.89,1.84-1.6-5.67-2.96-10.79-5.99-17.03-5.9-11.22.17-22.4-1.1-33.66-.21-6.13.48-12.36-.42-18.54-.41-5.69,0-11.39.52-17.08.6-6.23.09-11.35,2.98-17.1,6.04ZM196.19,364.89c-.23.65-.38.87-.39,1.1-.22,6.27-.45,12.55-.58,18.82-.02.74.29,1.84.82,2.17,4.51,2.84,8.65,6.57,14.34,6.88,6.6.36,11.46,3.3,14.38,9.31.94,1.94,2.58,2.81,4.68,3.24,2.98.61,5.97,1.32,8.81,2.37,1.9.7,2.78.37,3.71-1.38,4.01-7.5,8.15-14.94,12.26-22.39,1.38-2.51,1.25-2.8-1.65-3.21-4.6-.65-9.05-1.6-13.14-4.09-1.72-1.05-3.96-1.54-6-1.68-4.52-.3-9.09-.02-13.61-.33-8.38-.57-16.1-2.89-21.98-9.4-.42-.47-.96-.83-1.65-1.42ZM541.65,364.7c-.79.69-1.19.97-1.51,1.33-4.86,5.44-11.02,8.46-18.17,9.15-5.74.56-11.53.51-17.3.82-1.7.09-3.71,0-5,.87-4.55,3.05-9.57,4.41-14.89,4.98-1.86.2-2.52.81-1.47,2.7,4.3,7.72,8.53,15.49,12.74,23.26.73,1.35,1.54,1.62,3.01,1.1,2.56-.91,5.16-1.85,7.83-2.23,3.26-.46,5.44-1.86,6.92-4.83,2.08-4.17,5.5-7.03,10.19-7.41,6.28-.52,11.54-3.11,16.57-6.61,1.5-1.04,2.02-2.11,1.94-3.88-.27-5.61-.39-11.23-.58-16.85-.02-.63-.14-1.25-.28-2.41ZM165.41,321.7c5.84,4.93,12.39,7.62,18.65,11.07.42-3.08-1.45-9.65-3.21-11.65-6.09-6.93-11.06-14.61-15.13-22.88-8.42-17.13-12.59-35.42-14.75-54.26-.15-1.34-.41-2.68-.63-4.14-2.54.6-4.17,1.59-5.47,3.58-1.83,2.81-4.15,5.29-6.19,7.98-.51.68-1.1,1.61-1.04,2.37.56,7.16,1.2,14.32,1.98,21.46.09.85,1.04,2.18,1.75,2.29,3.23.52,5.24,2.77,7.29,4.85.73.74,1.2,2.72.72,3.44-.58.89-2.24,1.27-3.49,1.47-.87.14-1.85-.37-2.92-.63,0,.56-.09.9.01,1.17,3.38,9.03,7.45,17.68,13.9,24.97.72.82,2.04,1.46,3.13,1.54,2.78.21,5.6-.11,8.37.12,1.11.09,2.77.88,3.03,1.72.27.86-.58,2.47-1.42,3.19-1.14.98-2.73,1.44-4.61,2.35ZM594.8,286.67c-1.4.29-2.61.8-3.76.68-1.01-.1-2.31-.68-2.82-1.47-.43-.68-.32-2.43.24-2.9,2.29-1.93,4.69-3.84,7.34-5.18,1.37-.69,2.21-1.28,2.34-2.72.66-7.07,1.35-14.14,1.89-21.22.06-.83-.59-1.82-1.14-2.56-2.01-2.7-4.27-5.23-6.13-8.02-1.31-1.95-2.93-2.94-5.27-3.32-.17.68-.36,1.21-.44,1.75-1.16,7.42-1.99,14.92-3.51,22.27-4.42,21.35-12.48,41.04-27.03,57.7-2.57,2.94-2.49,6.98-2.99,10.86,6.39-3.26,13.03-5.91,18.81-10.83-1.75-.82-3.09-1.4-4.39-2.08-1.43-.74-2.7-1.96-1.8-3.51.54-.92,2.18-1.53,3.38-1.65,2.52-.25,5.11.14,7.62-.16,1.39-.17,3.03-.88,3.94-1.9,6.29-7.1,10.17-15.59,13.52-24.34.13-.35.11-.76.19-1.4ZM338.01,600.2c-1.7,1.05-3.25,1.89-4.67,2.92-1.79,1.29-3.57,2.62-5.14,4.14-.65.63-1.13,1.84-1.05,2.73.22,2.54.77,5.06,1.17,7.59.26,1.69,1.03,2.01,2.58,1.25,7.82-3.83,15.26-2.7,22.26,2.05,3.07,2.08,5.95,4.46,8.86,6.77,5.84,4.63,7.89,4.63,13.66.05,2.97-2.36,5.92-4.79,9.07-6.9,7.03-4.72,14.49-5.77,22.27-1.9,1.69.84,2.24.19,2.49-1.37.37-2.37.71-4.74,1.17-7.09.35-1.82-.17-2.95-1.96-3.7-1.09-.46-2.07-1.35-2.92-2.22-4.27-4.42-6.92-4.92-12.18-1.71-3.1,1.89-6.03,4.06-8.92,6.26-4.56,3.48-9.35,5.96-15.33,4.62-.47-.11-1.01-.08-1.48.03-5.12,1.13-9.4-.74-13.41-3.67-3.14-2.29-6.22-4.68-9.5-6.73-2.05-1.28-4.44-2.01-6.95-3.11ZM193.29,333.29c.55,4.91,1.02,9.32,1.58,13.72.07.58.65,1.12,1.07,1.62,1.79,2.15,3.9,4.1,5.34,6.46,4.41,7.18,10.89,10.36,19.08,10.45,4.05.05,8.11-.26,12.15-.08,2.6.12,5.63.11,7.67,1.41,4.64,2.96,9.64,4.14,14.89,4.92,1.2.18,2.39.68,3.5,1.2,1.39.65,2.36.48,3.03-.97,1.04-2.25,2.25-4.43,3.15-6.73,1.54-3.91.88-5.29-3.09-6.81-1.62-.62-3.28-1.17-4.96-1.56-4.91-1.15-9.83-2.25-14.76-3.31-16.97-3.64-33.14-9.18-47.23-19.71-.24-.18-.57-.25-1.41-.61ZM544.41,333.81c-.23-.08-.47-.16-.7-.24-.48.29-.98.55-1.43.88-7.27,5.27-15.02,9.81-23.58,12.47-10.4,3.23-21.03,5.7-31.54,8.54-4.06,1.1-8.16,2.12-12.12,3.51-2.78.98-3.37,2.53-2.32,5.31,1.02,2.7,2.26,5.33,3.66,7.84.33.6,1.76,1,2.57.85,2.99-.56,5.93-1.34,8.87-2.12,1.9-.51,4.06-.73,5.57-1.82,4.29-3.09,8.98-3.79,14.09-3.66,4.86.13,9.75.04,14.59-.4,5.28-.49,9.48-3.2,12.59-7.52,1.35-1.88,2.34-4.19,4.08-5.58,3.89-3.13,4.75-7.21,4.9-11.78.07-2.1.5-4.19.76-6.28ZM328.94,588.49l.31.72c5.04-2.49,10.14-2.46,15.13-.32,2.64,1.13,5.22,2.53,7.58,4.16,3.6,2.48,7.03,5.23,10.46,7.94,5.96,4.71,6.91,4.66,12.99-.04,4.5-3.48,9.01-7.02,13.83-10.03,5.77-3.59,12.04-5,18.67-2.04.16.07.42-.07.84-.16-.29-.45-.46-.83-.73-1.1-4.5-4.47-8.98-8.96-13.56-13.34-.47-.45-1.63-.44-2.38-.27-2.47.55-4.94,1.16-7.35,1.95-1.99.65-4.16,1.23-5.77,2.47-6.52,5.06-13.45,5.09-20.02.15-1.8-1.35-4.24-1.92-6.44-2.67-2.16-.74-4.49-1.06-6.59-1.93-1.47-.61-2.18-.23-3.16.8-3.47,3.63-7.05,7.16-10.61,10.71-1.03,1.03-2.13,1.99-3.2,2.99ZM334.26,664.12c.52,3.55.85,6.46,1.42,9.33.13.68.96,1.35,1.62,1.77,2.87,1.8,5.78,3.54,8.7,5.25,3.07,1.8,6.26,2.25,9.76,1.23,3.84-1.12,7.64-.87,11.37.87.97.45,2.5.44,3.48-.01,3.39-1.56,6.93-2.12,10.39-1.04,4.81,1.5,8.93.32,12.94-2.2,1.68-1.05,3.38-2.08,5.05-3.15,3.35-2.15,5.12-7.59,3.75-11.73-.45.09-.94.12-1.38.29-5.03,1.93-9.9,1.81-14.94-.34-1.66-.71-4.21-.54-5.89.24-7.81,3.59-15.46,3.77-23.18-.06-2.39-1.19-4.73-1.06-7.14.12-3.82,1.88-7.81,1.88-11.84.67-1.09-.33-2.17-.66-4.12-1.24ZM283.8,75.94c-.48-.11-1.17-.32-1.88-.42-4.74-.65-8.22-3.1-10.75-7.13-2.45-3.91-5.04-7.75-7.68-11.54-2.73-3.93-4.38-8.12-3.87-12.99.05-.51-.12-1.05-.21-1.81-.66.34-1.13.48-1.48.77-6.64,5.43-11.11,12.35-13.8,20.45-.24.73-.18,1.64,0,2.41.51,2.16,1.21,4.27,1.72,6.43.7,2.99,2.24,5.38,4.36,7.61,5.1,5.38,11.22,9.14,17.97,11.96.63.26,1.89.12,2.29-.33,4.46-5.03,8.81-10.16,13.33-15.42ZM453.97,75.9c4.49,5.24,8.79,10.31,13.2,15.3.43.49,1.68.79,2.27.53,6.28-2.79,12.25-6,17.15-11.06,2.75-2.84,4.89-5.75,5.54-9.69.24-1.46.81-2.87,1.04-4.33.21-1.4.59-2.98.16-4.23-2.5-7.43-6.75-13.77-12.67-18.94-.64-.56-1.4-.99-2.44-1.71-.07,1.03-.18,1.57-.12,2.1.47,4.31-.72,8.19-3.07,11.75-3,4.55-6.06,9.07-9.08,13.61-2.33,3.51-5.56,5.57-9.72,6.2-.86.13-1.71.35-2.25.46ZM342.6,714.21c1.08-.75,1.48-.92,1.73-1.22,5.09-5.84,17.38-6.18,22.97-1.01,1.3,1.2,2.27.66,3.45-.24,6.48-4.9,16.1-4.52,22.23.81.51.45,1.09.81,2.09,1.54,1.71-7.48,3.2-14.44,3.95-21.64-1.71.33-2.98.87-4.25,1.4-4,1.65-8.2,2.55-12.33,1.1-4.43-1.56-8.93-1.58-13.45-1.57-3.68,0-7.53,0-11.02,1.01-5.74,1.66-11.06,1.37-16.37-1.15-.84-.4-1.73-.72-2.59-1.08-.25.15-.49.31-.74.46,1.41,7.01,2.81,14.03,4.33,21.58ZM175.82,503.95l.32.05c0,.91.1,1.83-.02,2.73-.35,2.59.55,3.66,3.32,3.76,3.87.14,7.29,1.87,9.67,4.92,2.07,2.64,3.78,5.6,5.41,8.55,1.04,1.88,2.31,3.05,4.45,3.53,2.57.57,5.1,1.39,7.61,2.21,2.55.82,2.74.71,2.95-2.04.53-7.01,1.05-14.01,1.67-21.01.35-3.9.47-4.14-3.36-4.57-8.98-1-15.92-4.76-20.38-13.01-1.19-2.21-3.91-3.65-6.06-5.27-1.77-1.33-2.79-.68-3.07,1.51-.8,6.22-1.68,12.44-2.53,18.66ZM561.53,503.47c.11-.02.22-.03.33-.05-.84-6.05-1.63-12.11-2.53-18.16-.37-2.49-.76-2.58-3.11-1.48-3.19,1.5-5.53,3.91-7.22,6.93-3.49,6.23-8.75,9.74-15.81,10.66-1.39.18-2.75.67-4.14.77-2.3.16-2.83,1.27-2.61,3.45.7,7.16,1.23,14.33,1.8,21.5.28,3.47.25,3.47,3.64,2.29.7-.24,1.4-.6,2.12-.67,5.75-.56,9.18-3.65,11.48-8.97,2.03-4.69,5.9-7.91,11.13-9.09,1.61-.37,3.89-.35,4.62-1.38.83-1.17.25-3.33.29-5.06,0-.25,0-.5,0-.74ZM414.42,804.85h0c0-.5-.03-.99,0-1.49.16-2.26-.51-3.64-3.16-3.53-1,.04-2.09-.49-3.05-.95-7.32-3.57-14.19-3.36-21.44.88-6.5,3.8-13.94,5.12-21.54,4.23-6.21-.72-12.13-2.44-17.52-5.75-3.42-2.1-7.16-2.63-10.99-1.65-3.1.8-6.08,2.08-9.15,3.02-4.2,1.3-4.21,1.25-4.15,5.74,0,.58.04,1.16.03,1.74,0,1.75.62,2.33,2.47,1.8,2.29-.66,4.71-1.52,7-1.36,5.08.34,10.12,1.26,15.17,1.96,2.6.36,5.22,1.17,7.8,1.06,3.96-.17,7.56.58,10.9,2.62,1.45.88,2.65.72,4.17.06,2.47-1.08,5.12-2.58,7.65-2.5,5.51.19,10.63-1.21,15.85-2.4,5.31-1.21,10.63-1.47,15.94.06,3.95,1.14,3.95,1.13,4.01-3.04,0-.17,0-.33,0-.5ZM112.87,683.8c1.18,3.21,2.45,5.85,3.1,8.63,1.7,7.31,3.62,14.63,4.53,22.06.96,7.82,10.81,14.23,17.57,13.18,1.84-.29,2.55-.75,2.23-2.81-1.48-9.55-2.73-19.13-4.22-28.67-.59-3.74-1.5-7.43-2.46-11.09-.5-1.9-1.96-3.26-4.01-3.09-5.48.47-10.94,1.15-16.74,1.79ZM624.9,683.84c-5.76-.67-11.05-1.35-16.37-1.87-2.12-.21-3.71.94-4.36,2.96-.76,2.35-1.51,4.73-1.89,7.16-1.69,11.01-3.2,22.05-4.87,33.06-.28,1.86.51,2.23,2.08,2.49,7.22,1.19,16.75-5.77,17.71-12.97,1.1-8.22,3.35-16.3,5.25-24.41.48-2.05,1.5-3.97,2.45-6.42ZM527.71,572.02c.99-.65,1.53-.95,2.02-1.33,7.64-5.89,15.3-11.76,22.87-17.74,1.09-.86,2.17-2.21,2.48-3.51,1.98-8.43,3.78-16.9,5.54-25.38.23-1.12-.13-2.36-.22-3.55-1.41.31-2.99.31-4.17,1.01-1.21.72-2.16,2.02-2.96,3.24-1.09,1.65-1.7,3.65-2.93,5.16-1.63,2-3.37,4.27-5.59,5.36-4.35,2.14-9.02,3.67-13.64,5.18-1.81.59-2.5,1.36-2.56,3.25-.24,8.59-.63,17.17-.95,25.75-.02.64.05,1.28.11,2.55ZM209.76,571.95c.23-.85.4-1.16.39-1.47-.33-9.25-.63-18.49-1.1-27.73-.04-.73-1.14-1.68-1.96-2.04-2.18-.96-4.44-1.83-6.75-2.41-7.54-1.9-12.93-6.09-15.97-13.46-.72-1.74-2.84-3.2-4.65-4.1-2.35-1.17-3.26-.39-2.75,2.26,1.59,8.26,3.38,16.48,5.04,24.73.56,2.78,2.14,4.53,4.42,6.21,7.24,5.33,14.25,10.96,21.35,16.48.55.43,1.11.86,1.97,1.54ZM550.22,441.48c-1.09-6.49-2.04-12.36-3.13-18.21-.09-.48-1.23-1.24-1.67-1.12-4.91,1.33-9.61,2.94-12.12,8.08-.98,2.01-2.51,4.02-4.31,5.3-4.69,3.34-9.64,6.34-14.57,9.33-1.29.79-1.77,1.46-1.24,2.94,1.13,3.19,2.17,6.42,3.15,9.65,1.77,5.8,1.7,5.65,7.67,4.13,3.92-1,6.57-3.03,8.18-6.78,3.09-7.19,8.1-11.97,16.43-12.3.63-.02,1.23-.79,1.6-1.04ZM187.52,441.47c.54.29,1.27,1.01,2.05,1.07,6.82.45,12.02,3.74,14.65,9.86,2.52,5.86,6.42,9.17,12.58,10.07.32.05.63.19.94.3,1.41.55,2.13,0,2.56-1.39,1.41-4.58,2.95-9.12,4.3-13.72.2-.67-.11-1.94-.62-2.28-4.32-2.88-8.86-5.44-13.09-8.45-2.29-1.63-4.79-3.58-6-5.99-2.64-5.25-7.12-7.31-12.25-8.77-1.22-.35-1.91-.05-2.12,1.24-.96,5.79-1.93,11.58-3.01,18.06ZM212.22,492.3c.39-.65,1.15-1.45,1.36-2.37,1.02-4.51,1.87-9.06,2.83-13.58.75-3.55.81-3.68-2.81-4.38-7.87-1.52-14.25-4.93-17.84-12.6-1.63-3.47-5.04-4.81-8.61-5.67-1.49-.36-2.1.23-2.39,1.64-1.06,5.18-2.15,10.35-3.32,15.5-.35,1.57.09,2.26,1.67,2.58,4.01.82,7.48,2.74,10.07,5.9,1.87,2.29,3.41,4.85,5,7.35,1.32,2.06,2.66,4.08,5.29,4.5,2.69.43,5.4.7,8.75,1.13ZM529.01,491.85c6,.57,9.71-2.42,11.96-7.69.03-.08.08-.14.12-.21,3.16-5.35,7.41-9.29,13.69-10.56,1.75-.35,1.77-1.36,1.46-2.74-1.1-5-2.23-10-3.21-15.03-.36-1.84-1.14-2.25-2.91-1.83-4.22,1-7.27,3.38-9.22,7.24-2.67,5.27-6.98,8.46-12.7,9.82-1.77.42-3.5.99-5.29,1.33-1.82.34-2.22,1.22-1.83,2.98,1.11,4.92,2.11,9.86,3.05,14.81.33,1.74,1.15,2.45,2.9,2.1.64-.13,1.31-.14,1.97-.21ZM193.99,398.59c-.46,3.45-.8,6.78-1.38,10.08-.38,2.15.38,2.87,2.46,3.24,8.49,1.51,14.99,5.75,18.69,13.87.7,1.53,2.23,2.8,3.62,3.87,2.81,2.16,5.84,4.03,8.68,6.16,2.12,1.59,2.25,1.65,3.27-.73,1.79-4.18,3.56-8.37,5.37-12.54,2.26-5.21,1.64-6.2-4.21-6.58-.16-.01-.33-.03-.5-.02-6.98.35-12.07-2.46-15.44-8.69-.71-1.31-2.54-2.58-4.01-2.79-5.5-.79-10.67-2.24-15.23-5.51-.24-.17-.61-.17-1.32-.36ZM543.75,398.27c-1.2.67-1.85.98-2.45,1.39-3.78,2.56-7.95,4.07-12.47,4.42-3.01.23-5.04,1.52-6.45,4.21-2.75,5.28-7.3,7.57-13.18,7.66-2.03.03-4.07.51-6.07.94-1.49.31-1.99,1.2-1.31,2.75,2.33,5.29,4.6,10.61,6.85,15.94.62,1.47,1.27,1.6,2.57.61,2.88-2.2,5.98-4.12,8.81-6.39,1.62-1.29,3.27-2.82,4.22-4.6,2.08-3.88,4.45-7.5,8.41-9.48,3.35-1.68,7.07-2.62,10.58-4,.76-.3,1.92-1.14,1.88-1.65-.29-3.76-.84-7.5-1.37-11.8ZM409.16,783.61c-.2-3.27-7.08-8.32-9.79-7.46-.3.1-.54.39-.85.49-1.83.57-3.71,1.7-5.48,1.55-5.66-.5-10.96.32-16.26,2.33-2.17.82-4.79.49-7.2.66-.48.04-.98.03-1.46,0-2.41-.18-5.02.15-7.19-.67-5.22-1.99-10.45-2.88-16.01-2.29-1.54.16-3.64-.01-4.67-.93-2.54-2.26-4.42-.61-6.49.42-2.1,1.04-4.67,1.58-5.15,4.48-.06.38,0,.78,0,1.34.63-.04,1.12.02,1.56-.11,6.26-1.81,12.28-.84,18.16,1.54,6.35,2.57,12.66,5.23,19.04,7.72.93.36,2.26.3,3.2-.07,6.38-2.5,12.69-5.14,19.04-7.71,5.9-2.39,11.92-3.28,18.17-1.45.38.11.79.09,1.4.16ZM353,764.96c.72.27.99.44,1.28.47,5.06.57,9.61,2.24,13.4,5.82.45.42,2.1.24,2.67-.27,3.54-3.14,7.65-4.83,12.27-5.45.58-.08,1.15-.31,2.09-.57-.82-.72-1.28-1.17-1.79-1.56-4.61-3.48-4.76-7.8-.38-11.55.31-.27.65-.52.96-.79,1.27-1.12,1.18-2.32-.34-2.89-2.81-1.06-5.67-2.29-8.6-2.64-3.83-.45-7.79-.47-11.61,0-2.93.36-5.77,1.66-8.57,2.76-1.49.59-1.24,1.75-.18,2.74.36.34.77.63,1.15.94,4.09,3.43,3.95,8-.33,11.26-.61.47-1.18.99-2.03,1.72ZM350.59,562.98c.79.21,1.32.47,1.85.46,6.28-.14,11.49,1.94,15.28,7.13.8,1.1,1.63.95,2.38-.07,3.75-5.08,8.86-7.2,15.06-7.04,1.81.05,2.13-.79,1.32-2.35-1.41-2.71-2.76-5.46-4.07-8.22-1.98-4.16-1.93-4.06-6.18-2.81-1.7.5-3.57.47-5.36.59-1.15.07-2.32.08-3.45-.08-2.65-.37-5.37-.6-7.89-1.4-1.63-.51-2.35-.44-3.06,1.13-1.61,3.53-3.36,7-5.04,10.5-.3.64-.51,1.32-.84,2.17ZM390.97,730.31c-.18-.56-.23-1.09-.49-1.48-1.3-2-2.59-4.01-4.02-5.93-2.65-3.57-6.03-4.09-9.66-1.59-4.67,3.21-11.18,3.23-15.82.04-3.67-2.52-7.2-1.94-9.84,1.7-.92,1.27-1.4,2.92-2.5,3.96-2.06,1.95-1.86,3.94-1.04,6.3.63,1.81,1.25,2.37,3.17,1.31,5.16-2.85,10.6-3.44,16.26-1.43.95.34,2.22.47,3.14.15,6.08-2.17,11.83-1.58,17.44,1.53.47.26,1.83-.15,2.08-.62.63-1.22.88-2.64,1.26-3.94ZM241.9,86.33c-.25,1.2-.42,1.73-.47,2.27-.37,4.6-.77,9.19-1.05,13.79-.05.85.18,1.83.6,2.56.91,1.57,1.93,3.09,3.1,4.48.71.84,1.7,1.52,2.68,2.03,1.74.9,3.65,1.5,5.36,2.45,2.5,1.39,3.29,1.42,4.9-1.07,2.56-3.95,4.93-8.02,7.36-12.06.19-.31.16-.75.34-1.66-9.87.09-16.19-6.25-22.82-12.79ZM496.07,86.12c-6.86,6.83-13.33,13.02-23.89,13.09,3.52,5.48,6.45,10.14,9.5,14.73.92,1.39,2.23.98,3.51.25,1.64-.93,3.39-1.67,5.04-2.58,1.25-.7,2.59-1.37,3.56-2.37,1.14-1.17,2.05-2.61,2.82-4.06.47-.88.74-2.02.68-3.02-.24-4.28-.63-8.54-.97-12.81-.06-.78-.12-1.55-.25-3.22ZM368.96,541.58c2.53-1.2,5.15-2.36,7.66-3.71.32-.17.3-1.4.09-2.03-.8-2.42-1.66-4.84-2.66-7.18-.95-2.22-3.14-3.33-5.19-3.05-1.8.24-3.97,1.48-4.98,2.96-1.45,2.11-2.06,4.82-2.87,7.33-.21.65-.07,1.95.32,2.16,2.39,1.26,4.9,2.3,7.62,3.52ZM404.85,819.05l-.08-.81c-5.38.74-10.76,1.46-16.13,2.25-1.82.27-1.9,1.45-.95,2.67.53.67,1.38,1.21,2.19,1.51,5.82,2.12,11.79,2.26,17.83,1.22,2.69-.46,4.1-2.25,4.81-4.75.39-1.36,0-2.09-1.49-2.08-2.06,0-4.13,0-6.19,0ZM333.42,818.25c-.02.27-.05.53-.07.8-2.14,0-4.28.01-6.42,0-1.6-.01-2.02.74-1.58,2.22.77,2.62,2.37,4.29,5.13,4.71,5.78.88,11.51.76,17.09-1.2.9-.32,1.83-.85,2.46-1.55,1.19-1.31.78-2.5-.99-2.77-5.19-.8-10.41-1.48-15.61-2.21Z" style="fill: #000; stroke-width: 0px;"/>
  <path d="M456.13,543.13c-.87-.55-2.74-1.34-4.06-2.67-7.01-7.01-13.81-14.23-20.83-21.24-5.66-5.66-11.48-11.17-17.31-16.67-2.75-2.6-6.08-3.82-9.94-3.75-4.96.09-9.41-1.64-13.45-4.42-2.92-2.02-6.03-3.89-8.55-6.34-4.39-4.28-9.72-4.48-15.21-4.31-4.33.13-8.12,1.51-11.38,4.63-2.37,2.27-5.23,4.03-7.95,5.91-4.03,2.77-8.46,4.62-13.42,4.52-4.25-.08-7.82,1.38-10.76,4.25-7.32,7.16-14.54,14.42-21.79,21.65-5.32,5.31-10.55,10.72-15.99,15.9-1.28,1.22-3.21,2.3-4.93,2.45-5.23.46-8.51-3.75-7.08-8.83,4.06-14.49,8.14-28.97,12.35-43.41,6.62-22.72,9.75-46.05,12.56-69.47,1.44-11.98,3.49-23.88,5.18-35.83.51-3.59.83-7.22,1.11-10.84.44-5.67,5.81-8.71,10.52-5.56,4.31,2.88,8.95,3.97,13.9,3.37,7.39-.89,12.6,2.01,16.44,8.17.92,1.49,2.43,2.66,3.82,3.8,3.39,2.76,6.91,5.37,10.32,8.12,3.3,2.67,7.13,2.93,11.13,2.77,5.16-.21,8.38-3.79,12.04-6.66,1.88-1.48,3.9-2.79,5.71-4.34,1.48-1.28,3-2.64,4.07-4.26,3.71-5.63,8.61-8.38,15.5-7.6,5.21.59,10.07-.42,14.62-3.46,4.45-2.98,9.62,0,10.35,5.38,3.76,28.01,7.37,56.04,11.5,84,2.8,19.02,8.78,37.31,14.03,55.76,1.9,6.68,3.83,13.35,5.65,20.05,1.39,5.12-1.78,9.05-8.13,8.94ZM433.37,475.16c.25-.15.5-.3.75-.45-5.96-26.96-7.33-54.54-10.83-81.96-5.91,1.62-10.36,3.78-12.84,9.59-4.31,10.1-13.91,13.92-24.32,10.69-4.45-1.38-8.96-2-13.65-.52-1.95.62-4.41.8-6.32.19-5.8-1.84-11.25-.89-16.73,1.03-3.34,1.17-6.62,1.03-9.93-.27-6.14-2.41-10.77-6.31-13.14-12.66-1.01-2.71-2.73-4.9-5.67-5.85-1.18-.38-2.32-.87-3.46-1.35-2.66-1.11-2.79-1.05-3.14,1.92-.49,4.27-.97,8.54-1.41,12.82-2.27,21.62-4.1,43.3-8.63,64.62-.12.58-.02,1.22-.02,2.33,1-.71,1.68-1.11,2.26-1.62,5.84-5.12,12.54-7.35,20.34-6.7,8.81.74,17.46-.08,25.88-3.14,10.79-3.91,21.75-3.95,32.55-.05,8.59,3.11,17.39,3.93,26.37,3.17,7.64-.65,14.16,1.68,19.9,6.58.65.56,1.35,1.07,2.02,1.61Z" style="fill: #000; stroke-width: 0px;"/>
  <path d="M485.17,158.65c1.23-2.45,2-4.37,3.08-6.08,8.33-13.24,18.93-24.06,32.87-31.56,17.13-9.21,33.91-2.77,42.58,6.61,4.79,5.18,8.89,11.06,12.82,16.95,3.52,5.28,4.91,11.44,4.45,17.76-.46,6.33-1.19,12.67-2.27,18.92-1.89,10.93-8.59,18.34-18.15,23.41-5.33,2.83-10.66,5.66-16.07,8.33-3.64,1.8-5.92,4.51-7.22,8.35-1.42,4.2-2.08,8.28-1.59,12.82,1.23,11.46.95,22.96-1.31,34.32-.67,3.38-1.78,6.71-2.99,9.95-.77,2.06-1.95,4.02-3.21,5.84-2.16,3.13-4.73,4.18-7.06,3.17-2.42-1.04-3.28-3.39-2.32-7.3,2.33-9.56,4.9-19.11,4.98-29.02.06-7.08.01-14.24-.92-21.24-1.23-9.29-5.56-17.19-12.95-23.29-8.69-7.18-16.49-15.25-23.61-24-4.88-6-9.24-12.3-12.2-19.47-2.35-5.68-5.71-10.59-10.21-14.76-1.51-1.4-3.11-2.8-4.25-4.49-.65-.98-.96-2.79-.47-3.74.4-.78,2.45-1.47,3.34-1.11,3.95,1.59,7.97,3.21,11.55,5.48,4.17,2.65,6.99,6.74,9.33,11.08.46.84.98,1.65,1.8,3.04ZM570,163.25c.09-5.42-1.36-10.32-3.95-15-4.32-7.79-10.42-13.83-17.92-18.51-5.94-3.7-12.18-4.28-18.72-1.49-8.37,3.58-15.33,8.98-21.33,15.8-6.52,7.42-10.72,16.27-15.52,24.74-.43.76-.02,2.5.62,3.28,4.74,5.72,9.4,11.54,14.54,16.89,6.8,7.08,14.65,13.16,20.21,21.42.79,1.17,1.55,1,2.33-.03,3.23-4.25,7.58-7.09,12.14-9.66,5.19-2.92,10.4-5.79,15.59-8.7,5.53-3.1,9.01-7.74,10.03-14.02.8-4.89,1.33-9.82,1.97-14.73Z" style="fill: #000; stroke-width: 0px;"/>
  <path d="M252.92,158.2c.71-1.26,1.34-2.4,1.99-3.52,4.38-7.65,10.61-13,19.17-15.46,1.74-.5,3.53-.88,4.63,1.02,1.02,1.75.01,3.15-1.2,4.4-1.61,1.66-3.18,3.37-4.85,4.97-3.69,3.55-6.46,7.69-8.44,12.41-6.24,14.83-17.02,26.24-28.21,37.33-2.11,2.09-4.32,4.11-6.67,5.93-10.66,8.23-14.81,19.54-15.45,32.47-.61,12.3.49,24.44,3.65,36.38.68,2.55,1.26,5.14,1.72,7.74.4,2.29-.18,4.37-2.44,5.45-2.23,1.07-4.42.47-5.78-1.41-1.91-2.65-3.76-5.45-5.03-8.44-2.89-6.77-4.01-14.03-4.14-21.31-.16-8.57.15-17.17.65-25.74.35-5.87-3.86-14.56-9.1-17.31-5.41-2.85-10.84-5.66-16.27-8.48-10.75-5.58-17.12-14.3-18.74-26.35-.66-4.91-1.27-9.84-1.62-14.78-.57-7.95,1.6-15.22,6.05-21.81,5.49-8.11,11.08-16.13,20.11-20.79,10.33-5.33,20.89-6.07,31.46-.88,16.42,8.05,28.72,20.35,37.06,36.62.19.37.38.73.61,1.07.08.12.27.17.81.49ZM199.84,125.94c-3.06,1.08-6.47,1.9-9.48,3.47-2.89,1.51-5.55,3.61-8.02,5.79-10.18,8.98-16.27,19.71-13.95,33.88.37,2.28.59,4.59.89,6.89.97,7.51,4.72,13.07,11.46,16.64,4.96,2.64,9.86,5.4,14.75,8.17,4.48,2.54,8.78,5.32,11.93,9.52,1.05,1.4,1.69.86,2.65-.23,4.37-4.95,8.58-10.07,13.33-14.63,7.58-7.29,15.11-14.58,21.17-23.24.87-1.25,1.38-2.29.49-3.81-2.5-4.28-4.75-8.71-7.31-12.96-7.14-11.88-16.27-21.69-29.38-27.07-2.56-1.05-5.36-1.53-8.54-2.41Z" style="fill: #000; stroke-width: 0px;"/>
  <path d="M343.12,285.1c-16.56-.89-30.85-5.17-43.85-12.99-15.89-9.56-22.08-28.1-16.02-46.86,3.95-12.21,10.45-23.18,17.87-33.59.62-.87,1.39-1.65,2.17-2.38,1.9-1.77,4.23-2.05,5.84-.75,1.64,1.32,1.75,3.46.41,5.84-3.53,6.26-7.14,12.49-10.49,18.85-3.56,6.75-6.53,13.76-7.45,21.44-.9,7.51.12,14.71,4.01,21.3,1.12,1.89,2.71,3.52,4.15,5.22,1.13,1.33,2.08,1.34,3.41-.09,7.33-7.87,19.19-9.16,28.29-3.03,5.25,3.54,9.71,7.97,13.14,13.33,1.03,1.62,2.15,2.81,4.13,3.21,1,.2,2.01.81,2.81,1.49,3.05,2.59,2.42,6.86-1.4,8.03-2.63.81-5.51.8-7.01,1Z" style="fill: #000; stroke-width: 0px;"/>
  <path d="M395.75,285.12c-2.38-.2-4.79-.22-7.14-.64-2.24-.4-4.06-1.66-4.3-4.17-.24-2.43,1.05-4.51,3.21-5.05,3.7-.92,5.23-3.81,7.44-6.34,3.24-3.71,6.72-7.37,10.65-10.3,9.29-6.94,21.18-5.68,29.21,2.72,1.27,1.33,2.06.87,3.07-.08,5.76-5.44,7.99-12.39,8.47-20.05.42-6.66-.82-13.13-3.67-19.06-4.36-9.08-9.23-17.91-13.89-26.84-.3-.58-.76-1.09-1.03-1.69-.82-1.81-.88-3.6.75-4.98,1.6-1.36,3.43-1.22,5.03,0,1.17.89,2.27,1.97,3.12,3.16,7.52,10.55,14.08,21.66,18.02,34.06,6.38,20.1-1.83,39.27-20.63,48.81-11.95,6.07-26.93,10.09-38.29,10.46Z" style="fill: #000; stroke-width: 0px;"/>
  <path d="M497.31,520.75c-1.35,10.64-2.69,21.29-4.05,31.93-.23,1.79-.96,3.37-3.06,3.16-2.12-.21-2.34-1.98-2.39-3.73-.35-11.81-.46-23.64-1.13-35.43-1.04-18.32-6.21-35.81-11.79-53.12-4.41-13.68-9.53-27.13-14.32-40.69-.63-1.79-1.3-3.58-1.71-5.43-.47-2.16.24-4.02,2.4-4.88,2.2-.88,3.88.16,5.05,2,.66,1.03,1.17,2.19,1.64,3.33,8.74,21.53,16.9,43.27,23.44,65.58,3.56,12.13,5.32,24.54,5.23,37.19.23.03.47.06.7.09Z" style="fill: #000; stroke-width: 0px;"/>
  <path d="M241.15,520.19c-.18-14.11,2.02-27.92,6.57-41.2,6.86-20,14.26-39.83,21.46-59.71.59-1.62,1.31-3.23,2.21-4.7,1.13-1.84,2.81-2.88,5.04-2.02,2.22.86,2.92,2.77,2.39,4.86-.73,2.87-1.81,5.66-2.79,8.46-4.75,13.66-9.61,27.28-14.26,40.97-8.56,25.22-12.37,51.19-11.88,77.8.05,2.64,0,5.29-.06,7.93-.04,1.72-.62,3.22-2.61,3.29-1.83.06-2.59-1.32-2.79-2.91-1.37-10.89-2.7-21.78-4.04-32.68.25-.03.5-.06.76-.09Z" style="fill: #000; stroke-width: 0px;"/>
  <path d="M573.88,591.98c1.26,1.02,2.75,1.63,3.06,2.61.34,1.11.08,3.2-.7,3.73-6.5,4.44-7.28,11.47-8.69,18.25-.52,2.51-.99,5.03-1.51,7.54-1.59,7.72-5,14.57-10.48,20.21-5.81,5.98-11.91,11.7-17.9,17.51-1.22,1.18-2.72,1.99-4.12.49-1.38-1.47-.5-2.89.67-4.13,5.04-5.36,10.14-10.66,15.08-16.1,5.29-5.82,8.58-12.68,10.23-20.37,1.18-5.49,2.15-11.07,3.92-16.38,1.19-3.59,3.4-6.91,5.58-10.06.97-1.41,3-2.08,4.87-3.29Z" style="fill: #000; stroke-width: 0px;"/>
  <path d="M163.56,592.02c1.8,1.03,3.34,1.65,4.56,2.66,3.16,2.62,4.95,6.22,6.03,10.07,1.34,4.77,2.52,9.6,3.43,14.46,1.76,9.45,5.74,17.71,12.34,24.7,4.31,4.57,8.63,9.12,12.93,13.7.62.66,1.38,1.33,1.63,2.13.23.75.15,2-.33,2.45-.58.54-1.75.64-2.64.6-.56-.03-1.15-.61-1.62-1.06-5.42-5.21-10.88-10.38-16.22-15.68-6.97-6.92-11.04-15.33-12.7-25-.77-4.47-1.78-8.91-2.92-13.31-.91-3.5-2.62-6.58-5.85-8.61-1.52-.96-2.4-2.56-1.6-4.26.51-1.09,1.82-1.8,2.97-2.87Z" style="fill: #000; stroke-width: 0px;"/>
  <path d="M293.38,649.53c.12,1.66,0,3.33-2,3.69-2.16.38-2.81-1.28-3.26-2.96-3.69-13.98-7.34-27.97-8.45-42.46-.11-1.39-.41-2.78-.67-4.15-.44-2.32-1.14-4.17-4.18-4.18-1.97,0-3.38-1.45-3.25-3.64.12-2.14,1.57-3.18,3.57-3.48,3.12-.45,6.49,1.22,8.02,4.28.95,1.9,1.72,3.97,2.1,6.05,2.67,14.62,5.22,29.26,7.79,43.9.17.97.23,1.97.34,2.96Z" style="fill: #000; stroke-width: 0px;"/>
  <path d="M443.79,650.39c1.59-8.94,3.06-17.23,4.55-25.52,1.25-6.99,2.44-13.99,3.82-20.96.48-2.41,1.21-4.83,2.25-7.04,1.5-3.23,4.33-4.67,7.87-4.54,2.21.08,3.75,1.56,3.85,3.47.1,1.94-1.26,3.7-3.5,3.72-2.63.03-3.49,1.48-3.82,3.63-.61,4.08-.91,8.22-1.75,12.25-2.45,11.8-5.08,23.55-7.68,35.32-.35,1.56-1.34,3.04-3.07,2.44-1.08-.38-1.76-1.88-2.52-2.77Z" style="fill: #000; stroke-width: 0px;"/>
  <path d="M282.35,302.54c0,.93.21,1.63-.04,2.06-.55.92-1.23,2.21-2.06,2.38-.82.17-1.98-.72-2.81-1.38-.44-.35-.53-1.18-.73-1.81-3.67-11.8-6.11-23.85-7.47-36.12-.4-3.61.72-5.79,3.07-6.12,2.38-.34,3.94,1.53,4.53,5.09,1.54,9.38,3.19,18.73,4.71,28.11.43,2.69.57,5.42.81,7.79Z" style="fill: #000; stroke-width: 0px;"/>
  <path d="M468.54,266.58c-1.3,12.96-3.89,25.66-7.88,38.06-.49,1.54-1.41,2.79-3.21,2.46-1.93-.35-2.4-1.93-2.18-3.62,1.01-7.79,2.01-15.57,3.16-23.34.7-4.74,1.67-9.44,2.52-14.16.01-.08.02-.16.04-.24.51-2.84,2.15-4.44,4.29-4.2,2.17.24,3.4,2.15,3.25,5.04Z" style="fill: #000; stroke-width: 0px;"/>
  <path d="M409.75,101.72c4.16.03,9.18,4.36,9.31,8.06.04,1.23-.86,3.22-1.82,3.58-1.27.49-3.34.2-4.51-.59-3.41-2.31-3.41-2.56-6,.94-3.63,4.92-7.08,9.97-10.62,14.96-.48.67-.9,1.57-1.56,1.87-.87.39-2.14.67-2.91.3-.64-.3-.84-1.6-1.14-2.48-.09-.26.08-.66.24-.94,3.98-7.13,7.85-14.34,12.05-21.34,1.55-2.59,4.14-4.27,6.97-4.36Z" style="fill: #000; stroke-width: 0px;"/>
  <path d="M328.52,101.63c1.12.63,3.33,1.36,4.82,2.83,2.03,2,3.77,4.41,5.18,6.9,2.85,5.03,5.41,10.22,8.08,15.35.78,1.5,1.18,3.13-.52,4.18-1.84,1.14-3.07-.09-4.1-1.54-3.86-5.47-7.66-10.98-11.62-16.37-2.2-2.99-2.33-2.89-4.94-.49-1.8,1.66-4.15,2-5.6.67-1.75-1.6-1.66-3.56-.56-5.42,1.85-3.15,4.15-5.81,9.26-6.11Z" style="fill: #000; stroke-width: 0px;"/>
  <path d="M364.02,141.05c0,4.13.03,8.27-.01,12.4-.02,1.81-.29,3.71-2.61,3.79-2.14.07-2.66-1.69-2.85-3.41-.87-7.89-1.71-15.77-2.49-23.67-.13-1.29-.01-2.67.28-3.93.42-1.83,1.57-3.15,3.6-3.2,2.13-.05,3.48,1.21,3.88,3.17.37,1.84.4,3.77.44,5.67.07,3.06.02,6.12.02,9.18-.09,0-.17,0-.26,0Z" style="fill: #000; stroke-width: 0px;"/>
  <path d="M373.46,140.94c0-3.88-.03-7.77.02-11.65.02-1.14-.08-2.56.53-3.36.9-1.19,2.26-2.45,3.64-2.78,1.78-.42,3.09,1.02,3.59,2.74.34,1.17.49,2.46.37,3.67-.82,8.3-1.7,16.6-2.62,24.89-.18,1.61-1.02,2.93-2.86,2.81-1.85-.12-2.43-1.56-2.45-3.18-.05-4.38-.02-8.76-.02-13.14-.07,0-.14,0-.21,0Z" style="fill: #000; stroke-width: 0px;"/>
  <path d="M319.52,132.26c2.3,1.35,4.93,2.11,6.35,3.86,4.5,5.56,8.62,11.43,12.67,17.33.5.72-.28,2.32-.47,3.51-1.19-.21-2.8,0-3.5-.69-2.44-2.44-4.56-5.2-6.82-7.82-1.72-2-3.45-3.99-5.19-5.97-1.35-1.54-2.7-2.43-4.89-1.11-1.67,1-3.62.77-4.8-1.07-1.15-1.78-.8-3.68.79-4.89,1.64-1.24,3.64-1.99,5.86-3.15Z" style="fill: #000; stroke-width: 0px;"/>
  <path d="M425.39,137.55c-.04,3.58-2.7,5.26-5.35,3.82-2.24-1.22-3.56-.46-4.9,1.09-3.51,4.06-6.99,8.13-10.49,12.19-.59.69-1.11,1.61-1.87,1.93-.95.4-2.55.76-3.07.28-.68-.63-1.04-2.27-.72-3.18.57-1.59,1.7-3,2.73-4.39,3.23-4.38,6.26-8.93,9.85-12.99,3.51-3.98,7.98-4.45,11.5-1.73,1.14.88,1.84,2.33,2.33,2.98Z" style="fill: #000; stroke-width: 0px;"/>
  <path d="M293.69,281.56c1.87.11,3.11,1.31,3.56,3.26.86,3.77,1.76,7.54,2.32,11.35.14.99-.93,2.16-1.44,3.25-1.08-.52-2.74-.76-3.14-1.6-1.76-3.71-3.3-7.53-4.62-11.42-.85-2.51.8-4.77,3.32-4.84Z" style="fill: #000; stroke-width: 0px;"/>
  <path d="M443.99,281.56c2.43.08,4.16,2.24,3.37,4.61-1.36,4.05-3.01,8.01-4.82,11.88-.36.77-2.19,1.51-2.98,1.23-.79-.28-1.68-1.94-1.54-2.85.62-3.98,1.53-7.91,2.48-11.83.44-1.82,1.69-2.98,3.49-3.03Z" style="fill: #000; stroke-width: 0px;"/>
  <path d="M519.81,173.46c.75-2.06,1.27-4.26,2.32-6.15.82-1.48.96-2.29-.33-3.56-6.64-6.58-6.26-16.78.74-22.78,10.21-8.75,22.45-4.44,25.13,8.99.53,2.64,1.09,3.62,4.14,3.34,5.65-.51,10.63,5.46,10.39,11.78-.23,5.87-5.26,10.31-11.24,9.52-2.34-.31-3.27.28-4.21,2.39-2.58,5.8-9.63,9.48-15.92,8.68-6.18-.79-10.64-5.86-11.02-12.21ZM532.48,159.38c3.21-.03,5.61-2.16,5.65-5,.04-3.09-3.08-6.19-6.22-6.18-3.53.02-5.75,2.22-5.73,5.68.02,3.25,2.63,5.54,6.3,5.5ZM537.97,171.6c-2.3,0-4.28-.25-6.13.13-.71.15-1.35,1.69-1.56,2.7-.08.41,1,1.45,1.67,1.56,2.15.37,4.85-1.51,6.02-4.39ZM550.56,168.26c1.12-1.18,2.37-1.89,2.4-2.66.08-1.84-1.66-2.16-3-2.01-.74.08-2.03,1.48-1.91,1.77.42.95,1.37,1.67,2.51,2.9Z" style="fill: #000; stroke-width: 0px;"/>
  <path d="M220.58,152.82c0,4.36-1.52,8.09-4.77,11.02-1.14,1.03-1.25,1.82-.38,3.14,2.82,4.27,2.84,8.77.21,13.09-2.67,4.38-6.87,6.15-11.86,5.59-5.98-.68-10.61-3.61-13.1-9.26-.74-1.67-1.47-2.16-3.32-1.87-4.27.68-7.9-.7-10.27-4.43-2.47-3.89-2.06-7.92.23-11.73,2.22-3.69,5.46-5.78,9.92-5.07,1.83.29,2.31-.38,2.53-1.99.6-4.51,2.68-8.29,5.97-11.41,4.98-4.73,10.74-5.17,16.41-1.3,6,4.1,8.45,8.23,8.44,14.22ZM205.31,159.38c3.68,0,6.25-2.31,6.23-5.57-.02-3.47-2.27-5.65-5.79-5.6-3,.04-6.1,3.05-6.16,6.01-.07,2.92,2.43,5.18,5.72,5.17ZM199.59,171.56c1.23,3.13,3.21,4.08,5.44,4.38.77.1,1.68-.8,2.53-1.24-.61-1.04-1.04-2.77-1.87-2.99-1.72-.47-3.66-.14-6.1-.14ZM186.94,168.33c1.23-1.32,2.15-2.09,2.71-3.06.11-.19-1.3-1.78-1.72-1.67-1.18.33-2.21,1.2-3.3,1.86.62.78,1.25,1.55,2.31,2.87Z" style="fill: #000; stroke-width: 0px;"/>
</svg>