<?xml version="1.0" encoding="UTF-8"?>
<svg id="Layer_1" data-name="Layer 1" xmlns="http://www.w3.org/2000/svg" viewBox="0 0 766.2 900">
  <path d="M514.35,854.73c-21.11,14.77-43.21,25.65-67.62,33.43,1.76.66,3.08.82,3.89,1.55,1.12,1.02,2.65,2.55,2.53,3.71-.13,1.36-1.69,3.48-2.91,3.69-14.36,2.46-28.24,2.77-40.02-8.25-3.24-3.03-7.77-4.73-11.79-6.87-2.97-1.58-6.09-2.88-9.13-4.33-2.3-1.1-7.7,1.48-9.23,4.21-8.01,14.31-21.83,21.57-37.13,16.53-3.1-1.02-6.34-1.58-9.5-2.45-3.84-1.05-4.62-2.25-5.04-6.17-.1-.91-1.15-2.27-1.99-2.46-14.33-3.29-27.12-10.41-40.06-16.84-12.48-6.2-24.03-13.94-33.88-24.4-8.31-8.84-16.96-17.84-28.23-23.3-5.61-2.72-11.32-5.22-17.04-7.7-6.45-2.79-13.1-3.56-20.09-2.24-14.85,2.8-29.72,1.52-44.56-.25-2.84-.34-5.64-.98-8.48-1.3-8.41-.93-16.44-3.1-24.02-6.95-8.47-4.3-17.55-7.65-25.41-12.85-18.81-12.44-35.31-27.48-47.06-47.11-1.35-2.25-2.99-4.32-4.5-6.48-.24.12-.48.25-.72.37.54,1.08,1.05,2.18,1.61,3.25,6.03,11.36,10.88,23.43,19.42,33.28,4.88,5.63,9.99,11.08,15.33,16.26,5.26,5.1,12.17,6.88,19.16,8.29,1.78.36,3.76.71,5.15,1.74,1.09.8,2.04,2.74,1.86,4.01-.15,1.03-1.98,2.48-3.19,2.6-11.88,1.24-23.06-.48-31.47-9.89-15.92-17.82-30.5-36.5-38.73-59.44-2.88-8.04-6.8-15.77-10.87-23.31-6.61-12.27-9.69-25.42-10.21-39.12-.73-19.3-.82-38.63,2.14-57.81,1.96-12.71,4.23-25.37,6.23-38.07.73-4.63.93-9.35,1.6-13.99,1.36-9.49,2.81-18.96,4.37-28.41.34-2.04,1.74-3.75,4.06-3.33,2.59.47,2.93-1.12,3.36-2.85,3.05-12.3,6.02-24.62,9.18-36.88,1.2-4.64,2.6-9.26,4.31-13.74,9.86-25.88,19.89-51.7,29.71-77.6,1.51-3.99,2.47-8.22,3.39-12.4,3.22-14.66,4.66-29.38,2.16-44.38-2.69-16.13-1.06-32.25,1.65-48.22,1.78-10.46,4.29-20.8,6.42-31.21,1.53-7.5,3.18-14.98,4.43-22.53,2.7-16.38,8.33-31.84,15-46.89,7.74-17.46,15.91-34.74,24.32-51.89,3.45-7.03,7.66-13.75,12.12-20.21,9.92-14.38,19.73-28.87,30.49-42.6,9.12-11.63,19.01-22.81,32.69-29.62,2.45-1.22,4.71-2.89,6.89-4.56,8.76-6.7,18.28-10.86,29.64-10.66,7.02.12,14.06-.85,21.09-1.34.2-.01.42,0,.61-.06,17.17-6,35.66-5.81,52.94-11.2,10.43-3.25,20.77-6.83,31.01-10.63,4.57-1.69,8.69-4.59,13.22-6.4,7.01-2.8,14.1-5.49,21.36-7.5,3.59-1,7.63-.38,11.46-.47.4-.01.83.2,1.21.13,11.95-2.45,22.2,3.04,32.66,7.19,5.59,2.21,10.77,5.43,16.31,7.76,15.6,6.57,31.8,11.2,48.49,14.02,6.54,1.1,13.12,1.96,19.66,3.06,2.61.44,5.31.88,7.7,1.93,4.14,1.81,8.38,2.19,12.83,2.4,8.47.39,17.02.64,25.32,2.16,5.15.94,10.12,3.71,14.76,6.38,6.89,3.97,13.55,8.38,20.08,12.94,10.59,7.4,18.69,17.3,26.66,27.3,12.75,16.01,24.04,33.05,35.17,50.19,2.11,3.24,3.88,6.73,5.53,10.23,7.57,16.08,14.89,32.28,22.6,48.3,6.55,13.61,11.03,27.92,15.08,42.39.63,2.25,1.03,4.1,4.06,4.46,1.37.17,3.12,2.09,3.64,3.59,4.84,13.89,9.5,27.84,11.08,42.6,1.69,15.85,3.97,31.65,5.28,47.52.97,11.8.65,23.69,1.14,35.53.73,17.51,2.2,35.03,8.19,51.6,5.31,14.68,11.97,28.86,17.88,43.32,4.25,10.4,8.25,20.9,12.3,31.37.61,1.58.82,3.67-1.28,4.01-1.13.18-3.04-1.01-3.72-2.12-1.86-3.03-3.23-6.37-4.86-9.55-.49-.96-1.16-1.83-2.25-2.5,1.65,6.49,3.19,13,4.96,19.45,5.35,19.43,9.8,39.09,12.45,59.05,4.12,31.12,7.04,62.38,6.99,93.82-.02,14.25-2.93,28.04-7.85,41.37-3.64,9.87-6.99,19.96-11.8,29.26-13.26,25.63-31.9,46.83-56.44,62.11-12.7,7.91-26.2,14.97-41.04,18.18-16.93,3.66-34.15,5.07-51.49,4.33-2.63-.11-4.22.12-5.01,3.33-.43,1.73-3.05,3.6-5.03,4.15-13.68,3.82-26.72,9.43-38.65,16.8-9.89,6.12-18.34,14.56-27.43,21.97-.79.64-1.45,1.68-2.33,1.91-1.28.33-3.11.62-3.97-.04-.99-.76-1.36-2.53-1.62-3.94-.16-.87.38-1.86.81-3.7ZM24.66,636.2c0,2.76.08,5.52-.01,8.28-.9,26,6.8,50.02,16.91,73.48.92,2.14,2.04,4.28,3.47,6.12,5.13,6.62,10.34,13.18,15.68,19.63,12.74,15.37,26.89,29.14,45.02,38.15,5.58,2.78,11.1,5.72,16.85,8.11,4.02,1.68,8.33,3.43,12.58,3.63,15.19.69,30.41.7,45.62,1.03,8.26.18,16.6-.14,24.76.9,11.94,1.52,22.29,7.73,31.83,14.46,10.56,7.45,19.98,16.5,29.92,24.82,3.83,3.2,7.53,6.62,11.64,9.42,11.23,7.65,24.01,12.16,36.31,17.68,13.15,5.9,26.86,8.32,40.99,9.4,1.5.11,3.09-.08,4.54-.5,5.79-1.69,11.55-3.47,17.28-5.34,1-.33,1.99-1.07,2.7-1.87,3.59-4.04,9.84-4.12,13.39-.23.91,1,2.22,1.79,3.5,2.25,3.07,1.12,6.2,2.09,9.35,2.94,3.83,1.03,7.77,2.84,11.55,2.58,8.43-.58,17.03-1.35,25.11-3.62,16.15-4.54,31.63-11.14,46.2-19.49,6.06-3.48,11.64-7.89,17.09-12.32,6.65-5.4,12.97-11.22,19.35-16.94,8.37-7.5,17.98-13.01,27.89-18.2,12.06-6.32,24.99-6.26,37.99-6.1,10.11.13,20.22.52,30.33.46,13.94-.09,27.49-2.01,39.76-9.43,7.59-4.59,15.83-8.25,22.93-13.47,13.99-10.28,25.55-23.09,36.24-36.79,6.01-7.71,11.66-15.32,15.25-24.58,7.58-19.57,13.32-39.35,13.77-60.62.58-27.29-1.77-54.34-5.06-81.33-1.91-15.62-8-30.19-12.64-45.11-10.38-33.38-20.42-66.86-33.32-99.41-5.45-13.75-9.6-27.87-7.79-43,.08-.7,0-1.44-.12-2.14-.38-2.19-2.16-2.33-3.76-2.11-.38.05-.87,1.87-.71,2.77.64,3.61-1.28,6.13-4.98,5.9-1.59-.1-3.17-.7-4.7-1.22-2.71-.9-5.31-2.27-8.08-2.82-15.43-3.05-30.86-6.14-46.36-8.8-21.97-3.78-43.94-7.34-65.02-15.03-5.12-1.86-10.73-2.58-16.18-3.25-9.23-1.13-18.51-1.79-27.76-2.69-2.9-.28-5.66-.76-7-4.04-.29-.71-1.88-1.32-2.82-1.26-11.01.66-21.99,1.53-32.62,4.87-7.03,2.21-14.14,4.11-21.6,1.39-2.1-.77-4.56-1.14-6.78-.92-7.89.79-14.15-1.65-18.24-8.59-2.5-4.23-6.11-6.86-10.35-9.19-4.05-2.22-7.72-5.24-11.29-8.22-2.89-2.42-5.33-5.36-8.05-7.97-1.67-1.6-2.44-3.33-2.26-5.72.07-.98-.73-2.36-1.57-3.01-3.24-2.5-6.46-.77-9.5.6-.86.39-1.35,1.84-1.78,2.9-.7,1.72-.69,4.1-1.9,5.18-9.42,8.44-19.02,16.7-28.72,24.83-.91.76-2.92.21-4.41.27-.98.04-2.15-.24-2.92.18-4.98,2.76-9.81,5.79-14.8,8.53-5.18,2.84-10.72,3.16-16.37,1.65-4.53-1.21-8.97-2.89-13.57-3.72-12.28-2.23-24.68-3.76-37.2-3.3-5.69.21-11.71-.89-16.8,3.08-.8.62-2.14.64-3.25.75-5.5.5-11,.95-16.5,1.4-12.03.98-24.02,2.02-35.43,6.52-31.43,12.39-64.24,20.5-96.31,30.91-1.53.5-3.26.96-4.79.73-2.75-.42-3.14.79-3.53,3.13-1.05,6.42-1.84,13-3.87,19.13-4.97,15.03-10.87,29.76-15.87,44.79-7.57,22.79-14.8,45.7-21.95,68.63-4.13,13.26-8.96,26.45-11.43,40.04-4.24,23.34-5.4,47.09-5.8,70.82ZM655.63,192.75c-.34-1.05-.57-2.11-1.02-3.06-4.77-10.06-9.06-20.38-14.47-30.07-9.56-17.12-19.33-34.16-29.93-50.65-6.15-9.57-13.83-18.2-21.25-26.88-9.52-11.12-19.85-21.36-32.99-28.45-5.87-3.16-11.85-4.62-18.41-4.85-15.69-.56-31.38.04-47.08-2.21-23.66-3.39-45.79-10.11-65.21-24.46-.49-.36-1.03-.69-1.59-.92-8.24-3.31-16.35-7.03-24.78-9.74-4.86-1.56-9.89-3.1-15.48-1.75-14.1,3.41-27.47,8.22-39.25,16.91-1.39,1.02-2.96,1.84-4.53,2.55-5.95,2.71-11.97,5.25-17.89,8.01-16.85,7.85-35.1,9.23-53.15,11.13-9.61,1.01-19.42.89-29.09.39-11.9-.61-21.59,4.48-30.41,11.15-15.59,11.81-28.27,26.71-39.58,42.46-9.86,13.74-18.23,28.59-26.78,43.23-8.24,14.11-16.45,28.28-22.1,43.72-.43,1.17-.74,2.38-1.12,3.59,5.56-.6,10.71-1.11,15.85-1.72,9.94-1.18,19.86-2.63,29.82-3.58,15.57-1.49,31.2-2.68,46.2-7.48,7.47-2.39,14.74-5.44,22.04-8.34.91-.36,2.16-1.75,2.05-2.5-.96-7.09,2.96-12.32,6.6-17.57,1.65-2.38,4.46-2.58,6.77-.81,1.78,1.36,2.97,1.12,4.48-.36,3.01-2.94,5.99-3.05,9.24-.41,1.34,1.09,2.49,2.42,3.66,3.69,7.76,8.44,12.73,18.4,16.26,29.24.8,2.47,2.54,4.96,4.52,6.66,5.16,4.44,11.54,6.16,18.23,6.11,23.09-.18,46.19-.1,69.25-1.07,8.66-.36,17.15-.42,25.82-.04,23.16,1.03,46.37.89,69.56,1.12,5.73.06,11.13-1.48,16.04-4.49,3.42-2.09,5.93-4.86,7.03-8.89.83-3.04,2.06-5.99,3.23-8.93,3.46-8.69,8.92-16.05,15.42-22.67,2.66-2.71,6.25-3.65,8.26-1.83,3.09,2.81,6.98,4.82,8.44,9.38.99,3.11,2.6,6.56,5.01,8.53,3.49,2.85,7.85,4.73,12.02,6.63,13.69,6.25,28.18,9.91,43.03,11.75,22.18,2.75,44.43,4.93,67.26,7.42ZM470.91,341.32c1.95-.85,3-1.44,4.12-1.77,2.97-.89,3.86-2.74,3.4-5.78-.53-3.42-.94-6.92-.85-10.37.38-14.8.78-29.6,1.53-44.38,1.15-22.65,2.72-45.27,6.78-67.64.15-.84.13-1.72.21-2.82-2.69.36-4.55,1.31-5.21,3.62-1.58,5.49-3.66,10.95-4.38,16.57-2.08,16.19-3.76,32.44-5.25,48.7-.96,10.46-1.76,20.97-1.81,31.47-.05,10.57.91,21.14,1.46,32.41ZM288.95,208.49c.13,1.32.18,2.38.36,3.42.48,2.82,1.19,5.61,1.51,8.45,4.21,38.18,8.42,76.36,5.78,114.88-.07,1.03.43,2.54,1.2,3.08,1.6,1.14,3.55,1.79,5.3,2.61.31-.45.49-.61.52-.78,2.61-16.75,2.44-33.59,1.25-50.41-1.05-14.76-2.61-29.49-3.96-44.23-1.02-11.12-3.17-22.02-6.52-32.69-.79-2.52-2.39-3.87-5.43-4.33ZM240.14,181.6c-3.28.55-4.79,2.22-5.57,4.76-2.07,6.74-4.5,13.38-6.19,20.21-2.34,9.51-4.75,19.07-6.02,28.75-2.17,16.54,1.41,33.01,1.79,49.54.33,14.5,9.26,25.95,15.2,38.4.46.96,2.96.94,4.51,1.37-.1-1.24-.18-2.48-.32-3.72-.03-.28-.26-.55-.41-.82-7.84-13.7-12.46-28.49-13.89-44.13-1.38-15.01-.73-30.1,1.7-44.96,2.49-15.22,5.92-30.29,8.91-45.43.24-1.21.19-2.47.29-4ZM536.14,181.2c-.44.25-.89.51-1.33.76.19,1.46.29,2.94.58,4.38,2.73,13.32,5.79,26.57,8.16,39.95,2.86,16.16,3.73,32.55,2.45,48.9-1.26,16.08-6.13,31.24-14.26,45.26-.63,1.09-1.02,2.33-1.54,3.52,3.82,1.4,4.76,1.17,6.29-1.81,2.38-4.63,4.39-9.47,6.99-13.97,3.85-6.67,6.42-13.73,7.17-21.34.66-6.7.89-13.45,1.17-20.18.42-9.99,1.61-20.05.89-29.97-1.28-17.63-6.82-34.42-12.64-51.02-.61-1.74-2.59-3-3.94-4.49ZM253.81,253.62c-1.89.58-4.58.35-4.55,3.59.08,8.27.14,16.55.49,24.81.18,4.19,2.3,6.17,6.47,6.92,1.1.2,2.24.21,3.35.34,7.47.84,16.25-5.83,16.64-13.31.42-8.15.12-16.34,0-24.51-.01-.68-1.08-1.94-1.61-1.91-3.15.13-6.29.51-9.42.91-1.95.25-2.8,1.37-2.48,3.42.36,2.32.59,4.66.81,6.99.14,1.41.63,3.05.11,4.21-.66,1.47-2.03,3.3-3.37,3.57-1.08.22-3.37-1.4-3.75-2.64-1.23-3.94-1.82-8.07-2.7-12.39ZM520.75,253.84c-.1.56-.19,1.14-.3,1.72-.66,3.59-1.03,7.28-2.13,10.73-.37,1.15-2.66,2.41-3.97,2.32-1.1-.08-2.39-1.92-2.98-3.25-.48-1.1-.13-2.6-.01-3.92.24-2.64.51-5.28.89-7.91.26-1.8-.46-2.77-2.17-3-2.62-.35-5.28-.43-7.87-.93-2.62-.5-3.42.37-3.39,2.97.1,7.46-.15,14.93.07,22.38.07,2.23.69,4.83,1.99,6.56,4.01,5.35,8.84,9.1,16.38,7.68,5.71-1.07,8.05-2.87,8.26-8.64.26-7.25.36-14.5.46-21.76.06-3.98-.78-4.74-5.24-4.96ZM251.49,299.91c2.12,8.57,3.92,16.21,5.98,23.77.26.93,1.83,1.81,2.97,2.15,6.66,1.98,13.36,3.81,20.05,5.67,1.01.28,2.04.49,3.36.81-.13-1.09-.16-1.68-.27-2.26-1.85-9.51-3.75-19.01-5.54-28.54-.63-3.33-.84-3.61-3.87-2.11-5.26,2.59-10.55,3.67-16.26,1.43-1.62-.63-3.53-.54-6.41-.92ZM491.22,332.12c.74,0,1.05.07,1.33,0,7.57-2.09,15.16-4.1,22.66-6.4,1.16-.36,2.38-1.94,2.74-3.2,1.54-5.39,2.8-10.87,4.08-16.33.43-1.83.64-3.72,1.06-6.19-2.46.34-4.46.26-6.17.91-5.61,2.13-10.8,1.12-15.93-1.47-3.11-1.57-3.45-1.38-3.8,1.99-1.03,9.76-2.51,19.43-5.72,28.75-.18.53-.15,1.14-.24,1.95ZM515.54,169.66c-.83,1.16-1.32,1.66-1.61,2.26-5.72,12.19-9.21,25.06-11.64,38.26-.35,1.92.45,2.53,2.25,2.68,5.18.41,10.37.87,15.53,1.46,2.23.26,2.65-.57,2.34-2.58-2.01-12.8-3.95-25.62-5.93-38.42-.16-1.03-.52-2.03-.94-3.66ZM260.14,170.18c-.44.05-.88.11-1.31.16-2.13,14.54-4.27,29.08-6.41,43.71,1,.17,1.4.32,1.78.29,5.59-.5,11.17-1.07,16.76-1.51,2.18-.17,2.08-1.46,1.79-3-2.38-12.78-5.77-25.26-11.21-37.12-.4-.87-.93-1.68-1.4-2.51ZM268.39,224.34c-5.02.87-10.07,1.6-15.03,2.71-1.19.27-2.77,1.69-3.01,2.82-.62,2.97-.64,6.08-.84,9.13-.1,1.51.53,2.25,2.21,2.04,5.46-.67,10.94-1.23,16.4-1.87,2.43-.29,6.23.1,6.95-1.19,1.09-1.95.13-5.11-.14-7.74-.66-6.44.19-5.85-6.55-5.91ZM507.25,224.39c-.02.14-.05.29-.07.43-1.02-.06-2.05-.04-3.06-.2-2.4-.38-3.64.4-3.73,3.01-.09,2.75-.42,5.5-.74,8.25-.27,2.28.34,3.16,2.94,3.28,6.72.33,13.43.98,20.1,1.82,2.48.31,3.19-.33,2.95-2.65-.26-2.54-.49-5.09-.61-7.64-.1-2.22-1.27-3.36-3.33-3.73-4.82-.87-9.64-1.71-14.45-2.57ZM83.13,379.81c.32.29.64.58.96.86,23.03-8.79,47.65-12.52,70.46-22.07-1.29-.22-2.49-.1-3.65.19-6.15,1.54-12.32,2.98-18.41,4.7-15.72,4.45-31.41,9-47.08,13.65-.94.28-1.53,1.75-2.28,2.67ZM9.59,673.68c-1.48,20.36,6.9,37.5,17.1,54.04-6.03-17.9-14.4-35.06-17.1-54.04ZM703.91,353.27c-.18-.02-.36-.04-.54-.06-.23,4.16-.46,8.32-.7,12.48.41.02.82.04,1.23.06v-12.48Z" style="fill: #000; stroke-width: 0px;"/>
  <path d="M419.48,658.54c-1.32-5.55-.02-7.26,5.01-8.19,10.15-1.86,20.29-3.79,30.4-5.86,7.51-1.54,14.86-1.89,22.45-.03,3.38.83,7.3.16,10.84-.54,4.59-.92,9.06-2.48,13.54-3.89,10.62-3.33,21.25-6.64,31.83-10.11,13.3-4.36,26.5-9.04,39.84-13.26,7.78-2.46,15.78-4.23,23.64-6.45,5.99-1.69,11.87-3.76,17.89-5.32,1.65-.43,3.9-.18,5.39.64,8.16,4.45,8.17,9.53,4.18,17.22-2.41,4.64-5.94,8.71-9.01,13.01-.83,1.16-1.94,2.13-2.71,3.32-10.46,16.29-24.52,28.91-40.39,39.69-1.96,1.33-3.83,2.56-3.88,5.42-.02.98-1.23,2.03-2.07,2.89-8.81,8.92-19.31,15.69-29.17,23.31-13.95,10.79-30.07,16.71-46.1,23.13-7.67,3.07-15,6.98-22.52,10.42-8.17,3.74-16.39,7.38-24.6,11.04-10.73,4.77-21.43,9.65-32.25,14.19-3.52,1.48-7.41,2.09-11.14,3.08-3.06.81-6.09,1.82-9.2,2.32-2.45.4-5.18.76-7.48.1-24.42-7.03-48.04-16.47-70.75-27.6-20.86-10.24-40.48-23.03-60.54-34.86-9.15-5.4-18.11-11.13-27.06-16.86-3.52-2.25-6.82-4.86-10.14-7.41-3.52-2.7-7.27-4.66-11.62-5.92-4.44-1.29-8.71-3.43-12.79-5.69-4.19-2.32-8.04-5.24-12.04-7.89-.6-.4-1.26-.73-1.75-1.23-8.99-9.35-18.25-18.52-23.39-30.78-.54-1.28-1.04-2.89-.72-4.13.76-2.91-.54-5.07-1.63-7.52-1.39-3.13-2.93-6.42-3.26-9.75-.72-7.1,6.74-11.84,13.44-9.56,7.33,2.49,14.93,4.22,22.47,6.07.95.23,2.23-.82,3.33-1.32,1.59-.73,3.25-2.28,4.72-2.11,5.53.68,11,1.86,16.48,2.97,1.99.4,3.89,1.39,5.89,1.66,8.77,1.16,16.27,4.91,23.31,10.17,3.44,2.56,7.65,4.14,11.63,5.9,2.42,1.07,5.06,1.58,6.38,4.33.34.69,1.38,1.18,2.2,1.48,5.85,2.15,11.66,4.46,17.62,6.27,5.46,1.66,11.08,2.8,16.65,4.09,12.05,2.77,24.06,5.7,36.17,8.17,14.61,2.97,29.26,5.89,43.99,8.15,10.92,1.67,22,1.43,32.97-.43,3.12-.53,6.28-.85,9.41-1.33,1.47-.23,2.91-.6,4.54-.95ZM160.1,614.95c.42,1.31.53,2.12.91,2.79,5.71,10.04,11.18,20.26,20.37,27.75,3.73,3.03,7.27,6.3,11.12,9.16,22.44,16.73,45.26,32.93,69.36,47.21,25.13,14.89,49.48,31.22,76.66,42.4,14.35,5.9,28.12,13.24,43.21,17.36,4.01,1.09,7.73,1.19,11.7-.06,20.73-6.53,40.77-15.08,59.76-25.32,28.94-15.6,57.17-32.6,85.09-50,15.92-9.92,30.64-21.77,45.85-32.83,11.84-8.61,21.34-19.29,28.13-32.31.95-1.82,1.77-3.71,2.94-6.17-1.32.37-1.8.48-2.26.64-11.3,4.21-22.46,8.82-33.92,12.54-16.33,5.3-32.94,9.7-49.3,14.91-17.82,5.67-35.45,11.94-53.23,17.73-9.32,3.04-18.73,5.69-28.61,6.64-12.5,1.21-24.95,2.96-37.4,4.62-7.35.98-14.68,3.18-22,3.12-8.16-.07-16.29-2.14-24.45-3.24-11.54-1.55-23.11-2.88-34.64-4.52-6.96-.99-14.08-1.67-20.75-3.73-19.52-6.03-38.8-12.85-58.27-19.06-24.53-7.83-49.18-15.3-73.72-23.09-5.42-1.72-10.62-4.17-16.56-6.54Z" style="fill: #000; stroke-width: 0px;"/>
  <path d="M521.51,516.3c-1.58-1.81-3.13-3.65-4.76-5.42-7.92-8.58-17.76-14.72-27.21-21.34-22.35-15.65-42.16-33.97-58.71-55.68-6.04-7.92-10.66-16.72-13.97-26.13-.65-1.85-1.09-4.12-.62-5.92.38-1.44,2.18-3.23,3.59-3.47,1.41-.25,3.72.82,4.57,2.05,1.45,2.1,2.64,3.66,5.45,4.2,1.5.28,2.79,2.47,3.86,4.01,4.24,6.12,8.04,12.57,12.63,18.42,2.57,3.28,6.28,5.72,9.61,8.36,3.66,2.9,7.45,5.65,11.25,8.37,3.96,2.84,7.95,5.63,12.01,8.32,3.9,2.58,7.92,4.98,11.85,7.52,2.06,1.33,3.85,3.28,6.07,4.1,9.24,3.41,16.48,9.82,23.95,15.77,6.45,5.14,13.08,10.41,18.16,16.8,5.71,7.18,7.18,16.12,4.34,25.25-.79,2.54-2.73,3.61-5.43,3.61-1.22,0-2.46.59-3.67.98-2.75.88-5.53,2.67-8.24,2.55-19.7-.87-39.38-2.07-59.07-3.31-2.07-.13-4.23-.87-6.1-1.82-3.15-1.61-4.54-4.65-3.65-7.33,1.06-3.2,3.74-3.92,6.64-3.78,8.06.39,16.12.74,24.15,1.48,8.95.82,17.87,2.07,26.81,3.08,1.99.22,4.01.22,6.01.33.16-.32.31-.64.47-.96ZM491.04,473.3c6.2,4.07,12.4,8.14,18.61,12.21-4.74-6.24-10.82-10.48-18.61-12.21Z" style="fill: #000; stroke-width: 0px;"/>
  <path d="M215.68,447.19c-1.89.24-3.78.59-5.69.69-3.7.2-5.67-1.38-5.91-5.02-.14-2.05-.99-2.64-2.84-2.63-5.42.04-10.83,0-16.25,0-.51,0-1.02.06-1.53.06-3.38.02-5.62-1.43-6.12-3.95-.49-2.48.91-5.08,4.17-5.94,5.5-1.45,11.1-2.74,16.74-3.32,4.42-.45,8.97.48,13.46.42,7.03-.1,14.06-.35,21.07-.86,5.29-.39,10.54-1.3,15.82-1.92,1-.12,2.06-.11,3.06.05,2.72.43,4.77,1.82,5.73,4.49.92,2.57.25,4.94-1.55,6.81-1.62,1.68-3.52,3.1-5.37,4.54-8.56,6.66-15.15,15.17-22.01,23.41-6.61,7.93-12.97,16.06-19.7,23.88-9.86,11.43-21.7,20.38-35.07,27.39-13.6,7.13-25.74,16.49-36.38,27.37-10,10.22-16.55,22.77-18.65,37.25-.99,6.87-1.93,13.75-3.11,20.59-.21,1.21-1.29,2.85-2.32,3.19-1.2.39-3.5.03-4.08-.84-1.43-2.11-2.64-4.61-3.06-7.11-2.37-14.07,1.21-27.14,7.05-39.82,6.43-13.98,15.64-25.57,27.38-35.66,10.36-8.9,21.61-16.04,33.66-22.2,3.05-1.56,6.29-3.01,6.15-7.45-.04-1.14,1.04-2.42,1.81-3.48,5.14-7.12,9.96-14.52,15.63-21.2,4.66-5.49,10.33-10.11,15.56-15.12.97-.93,1.95-1.85,2.93-2.78-.18-.27-.36-.55-.54-.82Z" style="fill: #000; stroke-width: 0px;"/>
  <path d="M541.95,439.49c5.53,6.07,10.69,11.7,15.81,17.37,6.22,6.9,12.42,13.83,18.6,20.78,9.29,10.44,20.16,18.77,32.75,24.85,15.38,7.43,28.04,18.58,38.99,31.23,11.5,13.29,19.02,29.11,21.14,46.86.67,5.59-.11,11.4-.65,17.07-.18,1.85-1.43,3.86-2.77,5.24-.83.85-2.93,1.17-4.13.76-1.03-.36-2.08-2-2.28-3.22-1.03-6.03-1.78-12.11-2.64-18.17-2.87-20.41-13.15-36.35-29.22-48.94-10.16-7.96-20.67-15.23-32.03-21.45-13.2-7.24-23.94-17.46-33.49-29.23-11.05-13.63-23.01-26.51-34.7-39.61-1.95-2.18-4.59-3.74-6.85-5.65-2.9-2.45-3.85-5.52-2.72-8.44,1.08-2.79,3.71-4.49,7.45-4.23,4.99.34,9.99.8,14.92,1.63,8.32,1.4,16.61,1.9,25.02,1.06,9.31-.93,18.59-.92,27.51,2.6.66.26,1.36.48,1.97.83,2.22,1.3,3.6,3.14,2.92,5.81-.65,2.53-2.66,3.65-5.1,3.6-10.11-.18-20.21-.55-30.32-.73-6.48-.12-12.97-.02-20.18-.02Z" style="fill: #000; stroke-width: 0px;"/>
  <path d="M253.17,516.99c2.8,0,4.71.18,6.58-.03,8.94-.98,17.85-2.25,26.8-3.07,8.03-.74,16.09-1.12,24.15-1.51,3.95-.19,6.37,1.38,7.02,4.13.62,2.62-.9,5.75-4.07,7.17-2.18.98-4.67,1.62-7.06,1.77-14.17.94-28.35,1.7-42.53,2.51-4.9.28-9.79.72-14.69.78-9.71.12-14.05-7.38-10.9-16.54,4.49-13.05,14.8-20.69,24.75-28.71,4.34-3.5,9.37-6.2,14.27-8.94,8.49-4.75,14.41-12.29,21.2-18.9,6.81-6.63,13.4-13.47,20.22-20.08,8.54-8.26,16.41-17.02,22.44-27.35.7-1.19,2.55-2.43,3.83-2.4,2.26.05,3.13-1.02,3.89-2.69.3-.65.57-1.31.89-1.95,1.12-2.24,2.85-3.58,5.42-2.98,2.68.63,3.91,2.67,3.68,5.27-.17,2-.75,4.02-1.47,5.91-5.71,14.93-14.84,27.65-25.54,39.36-17.2,18.83-36.96,34.55-57.9,49-6.75,4.65-12.47,10.78-18.63,16.28-.72.65-1.23,1.53-2.37,2.98Z" style="fill: #000; stroke-width: 0px;"/>
  <path d="M469.64,816.63c2.57-.31,5.14-.63,7.72-.91,2.23-.24,4.46-.56,6.7-.59,2.11-.02,3.9.87,4.21,3.2.31,2.3-1.09,3.63-3.16,4.25-6.98,2.1-14.03,3.91-21.39,2.75-3.09-.49-4.06.68-4.06,3.56,0,1.61-.11,3.4-.82,4.78-.72,1.41-2.08,2.63-3.42,3.55-1.7,1.16-3.81,1.72-5.48,2.92-2.66,1.91-5.52,2.75-8.66,2.18-2.3-.41-3.8-.03-4.99,2.2-1.67,3.11-4.67,4.87-8.06,4.81-5.89-.1-11.83-.46-17.64-1.42-2.49-.41-4.97-2.3-6.95-4.07-1.84-1.64-2.23-4.24-.79-6.48,1.09-1.7.38-2.9-.16-4.51-.84-2.52-1.76-5.36-1.37-7.87.73-4.67,5.67-6.31,9.44-3.43,1.34,1.02,2.46,2.44,3.41,3.86,1.38,2.08,3.43,2.88,5.54,2.35,1.25-.32,2.52-1.83,3.14-3.12,1.47-3.03,3.21-5.52,6.87-5.77,3.64-.25,5.88,1.85,7.61,4.74.7,1.16,1.41,2.31,2.12,3.46.24-.11.48-.22.73-.33-.47-1.63-.98-3.24-1.41-4.88-2.13-8.04,1.11-12.86,9.27-14.23,8.84-1.48,17.72-2.85,26.44-4.9,6.92-1.63,13.62-4.21,20.42-6.37,1.07-.34,2.24-1.08,3.2-.88,1.66.34,3.88.87,4.59,2.07.71,1.2.47,3.9-.46,4.92-1.79,1.95-4.27,3.34-6.64,4.67-2.38,1.34-4.89,2.54-7.48,3.4-4.81,1.61-9.7,2.96-14.57,4.35-1.31.38-2.69.53-4.04.78.05.31.1.62.15.94Z" style="fill: #000; stroke-width: 0px;"/>
  <path d="M681.25,667.66c4.59-3.86,7.66-3.39,10.85,1.31,9.84,14.5,7.91,39.38-3.99,50.75-3.87,3.7-8.45,5.74-13.91,5.12-2.14-.24-4.42-.66-4.72-3.47-.29-2.67,1.73-3.42,3.68-4.17,1.52-.59,3.07-1.12,4.56-1.78,4.69-2.07,7.68-7.38,7.24-13.43-.94,1.33-1.63,2.27-2.29,3.25-4.3,6.39-10.24,9.82-17.98,10.01-10.65.26-21.1-.47-30.44-6.36-3.76-2.37-7.44-5.01-8.16-9.79-.24-1.58.2-3.88,1.26-4.85.9-.83,3.3-.69,4.72-.15,4.57,1.74,8.97,3.94,13.5,5.81,5.26,2.17,10.7,3.07,16.47,2.78,4.31-.21,7.47-1.65,8.67-5.81.82-2.87,1.71-6.11,1.17-8.91-1.86-9.53-5.07-18.47-13.05-25-3.03-2.48-5.46-5.74-7.99-8.8-1.53-1.85-2.1-4.12-.45-6.21,1.75-2.2,4.14-2.01,6.43-.98,9.26,4.17,17.81,9.25,22.8,18.66.36.69.99,1.23,1.63,2.01Z" style="fill: #000; stroke-width: 0px;"/>
  <path d="M335.47,827.41c.92-1.54,1.8-3.11,2.78-4.61,1.67-2.56,3.94-4.16,7.14-3.94,3.22.23,5.12,2.21,6.42,4.99.78,1.67.93,3.96,3.55,4.06,2.68.11,4.75-.83,6.08-3.29.48-.88,1.2-1.65,1.92-2.36,1.98-1.94,4.32-2.85,6.98-1.65,2.83,1.28,4.45,3.87,3.76,6.7-.74,3.04-2.59,5.82-4.09,8.65-.48.91-1.37,1.6-2.47,2.84,1.71.31,2.92.25,3.79.76,1.37.82,3.34,1.89,3.53,3.1.19,1.24-1.14,3.47-2.36,4.01-2.44,1.09-5.25,1.77-7.93,1.82-3.86.08-7.75-.37-11.58-.9-3.59-.5-5.95-2.63-6.48-6.36-.39-2.71-1.52-3.14-3.97-1.94-2.54,1.24-5.25,2.34-8.01,2.91-4.4.91-8.31-.21-11.11-4.08-.45-.62-1.13-1.25-1.83-1.5-4.53-1.64-5.98-3.71-5.77-8.52.02-.51.08-1.02.16-1.52.34-2.18-.63-2.76-2.76-2.86-3.42-.16-6.91-.44-10.22-1.27-2.79-.7-4.54-2.84-5.15-5.91-.2-1-1.43-2.12-2.45-2.57-6.14-2.71-12.4-5.15-18.53-7.89-1.52-.68-3.16-1.89-3.92-3.3-.81-1.5-1.38-3.96-.67-5.19.72-1.24,3.32-2.29,4.81-1.99,4.48.9,8.78,2.63,13.22,3.8,6.78,1.79,13.58,3.49,20.42,5.02,6.46,1.45,13.03,2.42,19.45,4.02,4.75,1.18,7.21,5.1,6.63,10.02-.34,2.9-1.24,5.73-1.9,8.6.18.12.36.24.54.36Z" style="fill: #000; stroke-width: 0px;"/>
  <path d="M346.89,507.92c-2.67-3.11-4.8-5.84-7.19-8.32-3.7-3.86-8.48-3.58-13.2-2.86-2.66.41-5.18,1.1-7.58-.91-.39-.33-2.02.13-2.47.7-1.19,1.5-2.06,3.26-3.02,4.94-.81,1.42-1.23,3.33-2.42,4.18-1.49,1.06-3.81,2.03-5.36,1.59-1.35-.39-2.96-2.77-2.99-4.3-.06-2.99.37-6.23,1.52-8.97,4.3-10.29,11.37-17.77,22.9-19.52,11.65-1.77,21.85,1.21,29.93,10.25,7.4,8.27,9.36,18.46,10.1,28.95.45,6.32-3.64,9.67-9.99,8.69-5.8-.9-11.15.11-16.32,2.73-2.82,1.43-5.67,2.84-8.65,3.88-2.74.96-5.57.76-7.45-1.9-1.89-2.66-1.52-5.51.21-8.04,1.07-1.56,2.43-3.26,4.07-4.03,4.95-2.32,10.09-4.23,15.17-6.27.72-.29,1.49-.43,2.75-.78Z" style="fill: #000; stroke-width: 0px;"/>
  <path d="M135.17,712.39c5.14,3.87,4.78,6.73-1.11,9.51-5.01,2.36-10.33,3.4-15.8,2.85-5.78-.58-11.56-1.4-17.28-2.45-4.68-.86-7.54-5.27-4.42-9.63.42-.59.19-2.29-.36-2.83-9.43-9.16-9.58-19.95-5.78-31.49.67-2.04,1.57-4,2.21-6.04,4.12-13.15,14.01-20.41,26.02-25.49,2.11-.89,4.29-.9,5.88,1.07,1.57,1.95,1.27,4.14-.16,5.95-2.32,2.95-4.54,6.15-7.43,8.46-8.3,6.64-11.74,15.74-13.8,25.6-.44,2.11-.24,4.53.3,6.65,1.55,6.15,3.82,7.58,10.14,8.1,9.23.76,17.12-3.2,25.2-6.59,1.69-.71,3.24-1.77,4.95-2.43,3.06-1.18,6.09.85,5.35,3.97-.67,2.82-2.07,5.87-4.09,7.87-2.75,2.73-6.39,4.57-9.83,6.91Z" style="fill: #000; stroke-width: 0px;"/>
  <path d="M430.32,493.44c4.84,2.78,5.73,5.75,3.17,11.13-2.13,4.47-1.09,4.05,2.45,5.38,3.6,1.35,7,3.29,10.4,5.13,1.13.61,2.13,1.6,2.98,2.6,2.54,3,2.93,6.77,1.1,9.34-1.72,2.42-4.7,3.1-8.63,1.62-2.48-.93-4.85-2.17-7.19-3.4-5.33-2.81-10.87-3.82-16.88-2.89-6.16.95-10.19-2.4-9.75-8.63.72-10.26,2.68-20.16,9.62-28.51,9.69-11.66,28.18-15.11,40.81-6.81,7.93,5.21,13,12.59,14.01,22.33.39,3.71-.73,6.09-3.21,6.84-2.57.77-5.15-.62-6.64-4.09-2.7-6.3-6.41-11.52-12.88-14.51-4.83-2.23-13.12-1.66-16.84,1.62-.89.78-1.57,1.78-2.52,2.88Z" style="fill: #000; stroke-width: 0px;"/>
  <path d="M393.85,543.97c-4.3.2-8.61.5-12.92.59-7.32.14-12.48-3.3-14.41-9.52-.36-1.15-.56-2.4-.56-3.6,0-2.37,1.06-4.58,3.45-4.7,1.71-.08,4.51.88,5.09,2.17,2.59,5.75,6.87,6.11,12.18,5.13,2.12-.39,4.43.29,6.65.33,2.94.05,5.08-1.24,6.18-4.08.22-.56.54-1.1.9-1.59,1.34-1.81,3.11-2.7,5.33-2.03,2.22.68,3.17,2.41,3.3,4.65.29,5.04-3.42,10.5-8.56,12.18-2.1.69-4.37.9-6.56,1.33-.03-.29-.06-.57-.09-.86Z" style="fill: #000; stroke-width: 0px;"/>
  <path d="M481.46,125.8c-2.54,1.48-4.77,2.87-7.09,4.11-9.6,5.1-18.9,5.63-27.6-1.98-1.61-1.41-2.96-2.12-4.86.04-.79.9-3.23,1.2-4.48.69-6.13-2.51-11.87-5.73-16.29-10.9-.52-.61-1.8-.98-2.62-.83-4.9.85-9.56.49-13.97-1.99-.59-.33-1.41-.59-2.05-.47-7.69,1.36-15.43-2.14-23.13.28-1.2.38-2.65-.14-3.96,0-2.26.26-4.63.36-6.72,1.15-5.04,1.9-10.02,2.03-14.94,0-2.34-.97-3.42-.38-5.04,1.53-3.67,4.32-7.67,8.39-11.9,12.16-2.05,1.83-4.8,2.09-7.18-.36-.48-.5-2.21-.5-2.85-.03-11.09,8.2-21.29,4.23-31.14-2.37-4.3-2.88-8.18-6.4-13.22-9.52-.04,1.31-.54,2.85-.03,3.89,1.41,2.87.98,5.4-.76,7.77-2.82,3.86-6.77,6.19-11.25,7.56-2.38.72-4.6.18-5.39-2.56-.52-1.82-1.66-1.78-3.07-1.52-6.25,1.16-12.24-.03-18.02-2.26-7.46-2.88-11.7-8.48-13.35-16.3-2.1-9.97-.92-19.29,3.32-28.65,2.66-5.87,7.46-7.67,12.61-9.4,1.03-.35,3.4.68,3.78,1.62.58,1.45.48,3.66-.27,5.03-.93,1.71-2.67,3.1-4.3,4.29-7.35,5.31-7.85,21.22-4.65,26.74,1.19,2.05,3.46,3.78,5.64,4.89,11.04,5.63,28.89-1.08,29.46-15.8.04-.91.27-1.82.49-2.71.55-2.34,1.63-4.29,4.32-4.51,2.65-.21,4.1,1.48,5.1,3.66.34.74.62,1.52.81,2.31,2.3,9.9,15.37,19.91,25.66,19.54,1.39-.05,2.89-.39,4.11-1.03,7.14-3.76,13.23-8.53,15.59-16.79.47-1.65,1.22-3.26,2.06-4.77,3.56-6.46,10.58-7.44,15.87-2.22,1.23,1.22,2.24,2.66,3.48,3.87,4.03,3.94,8.03,3.92,11.87.01,4.37-4.45,9.16-3.69,11.62,2.01.88,2.04,2.17,2.41,3.86,1.6,4.47-2.15,8.83-2.03,13.29.06,1.75.82,2.95.25,3.78-1.76,2.25-5.46,7.28-6.3,11.45-2.08,4.08,4.13,8.22,4.1,12.29-.11,1.28-1.32,2.35-2.86,3.71-4.07,5.32-4.72,12.12-3.52,15.4,2.74,1.09,2.07,1.91,4.29,2.7,6.5,2.81,7.83,8.89,12.43,16.11,15.42,4.99,2.07,9.97-.18,14.34-2.6,3.62-2.01,7.06-4.61,9.94-7.58,1.92-1.98,2.72-5.06,4.01-7.66.04-.09.03-.2.05-.3.81-4.39,2.99-6.9,5.87-6.78,2.72.11,4.69,2.25,4.87,6.77.6,14.68,17.29,21.35,28.35,16.93,4.53-1.81,7.62-4.63,8.23-9.7,1.11-9.33.33-18.01-7.97-24.27-1.04-.79-1.98-1.81-2.69-2.91-1.17-1.78-1.27-3.72.34-5.34,1.59-1.6,3.55-1.64,5.33-.43,2.02,1.37,3.84,3.05,5.79,4.53,1.05.79,2.13,1.64,3.34,2.12,3.87,1.55,6.01,4.37,5.87,8.47-.28,8.04-.36,16.13-1.43,24.08-.83,6.15-4.86,10.8-10.5,13.55-6.27,3.06-12.92,4.43-19.94,3.38-.96-.14-2.12-.21-2.95.19-7.02,3.41-13.58,1.76-20.05-1.57-1.03-.53-2.24-1.25-3.27-1.11-4.66.63-4.86.59-5.75-4.2ZM432.16,115.18c.26-.28.52-.55.78-.83-.87-1.11-1.68-2.28-2.7-3.24-.12-.11-1.34.95-2.51,1.8,1.87.96,3.15,1.61,4.42,2.27Z" style="fill: #000; stroke-width: 0px;"/>
  <path d="M418.19,170.32c-2.4,1.46-4.25,3.53-5.7,3.28-3.06-.53-6.36-1.5-7.84-5.07-.37-.9-1.71-1.77-2.74-1.96-2.49-.46-5.06-.65-7.59-.68-1.06-.01-2.42.35-3.16,1.06-3.33,3.17-7.69,3.64-11.77,1.32-1.6-.91-3.52-1.36-5.35-1.76-2.89-.63-5.86-.88-8.72-1.59-1.79-.44-3.02-.28-4.34,1.14-10.82,11.7-24.08,8.7-33.76-1.12-1.5-1.52-2.58-3.8-3-5.9-.29-1.48.75-3.28,1.39-4.87.66-1.61,1.71-3.07,2.3-4.7,1.18-3.23,1.86-6.68,3.32-9.77,1.2-2.54,3.72-3.82,6.67-3.37,2.84.43,4.41,2.33,5.22,4.99.23.76.42,1.88.96,2.15,3.32,1.63,3.09,4.34,2.72,7.35-.26,2.16-.08,4.38.03,6.57.02.46.65,1.27.94,1.24.72-.07,1.77-.34,2.03-.86.72-1.44,1.15-3.04,1.6-4.6.96-3.35,2.72-5.98,6.3-6.86,3.34-.82,6.14.4,8.14,3.02,2.85,3.74,6.76,4,10.77,3.38,1.32-.2,2.89-1.58,3.53-2.84,1.64-3.21,3.82-5.3,7.55-5.26,3.62.05,5.57,2.27,7.24,5.27.75,1.36,2.62,2.7,4.13,2.91,3.94.55,7.47-.25,10.41-3.67,4.29-4.99,10.66-3.88,13.4,2.09.95,2.07,1.93,3.02,4.14,2.06.28-.12.59-.15.9-.19,4.23-.45,4.22-.45,4-4.72-.1-1.94-.28-3.89-.14-5.82.2-2.87,1.57-5.09,4.45-6,2.88-.91,5.25.17,7.11,2.35,5.02,5.88,5.03,16.16.1,24.55-3.76,6.4-12.54,10.4-19.76,8.81-2.24-.49-4.35-1.54-5.49-1.95Z" style="fill: #000; stroke-width: 0px;"/>
</svg>