<?xml version="1.0" encoding="UTF-8"?>
<svg id="Layer_1" data-name="Layer 1" xmlns="http://www.w3.org/2000/svg" viewBox="0 0 900 899.52">
  <path d="M267.04,2.13c30.6-.91,59.23,6.86,86.61,19.76,5.11,2.41,7.73,1.64,11.54-2.69C378.56,4.05,396.38-.41,415.85.39c10.23.42,20.09,2.65,29.15,7.7,3.82,2.13,7.28,1.2,11.11-.54,22.23-10.14,44.47-10.46,66.12,1.46,5.01,2.75,9.54,6.91,13.26,11.3,3.1,3.66,5.52,3.9,9.52,2.08,21.3-9.72,43.2-17.6,66.8-19.32,41.44-3.02,81.59,3.13,120.42,17.78,14.47,5.46,28.93,11.02,43.1,17.22,25.71,11.25,48.01,27.62,68.13,47.07,3.96,3.83,7.93,7.66,11.89,11.5,28.64,27.75,41.52,61.47,39.83,101.35-1.04,24.54-2.96,48.91-12.91,71.51-8.42,19.14-18.73,37.47-28.55,55.97-1.95,3.69-1.67,6.31.03,9.85,16.57,34.44,29.19,69.87,27.91,108.98-.88,27.03-6.58,52.9-17.39,77.6-2.31,5.29-5.81,10.16-9.35,14.77-2.4,3.12-2.63,5.5-.24,8.5,2.32,2.92,4.36,6.07,6.63,9.03,36.54,47.65,46.08,100.88,33.28,158.94-6.38,28.91-20.31,53.07-43.86,71.12-19.52,14.96-41.16,25.37-66.17,27.23-4.25.32-8.55.66-12.78.36-40.95-2.95-81.28-9.05-119.71-24.42-4.29-1.72-8.7-3.14-13.08-4.62-6.55-2.2-6.91-1.94-7.2,4.86-.77,17.96-13.51,31.63-31.32,33.45-2.62.27-5.39.28-7.95-.24-4.82-.98-6.04.76-5.31,5.34,2.52,15.82-1.15,30.44-9.45,43.91-13.25,21.51-33.82,28.82-57.77,28.83-20.42,0-35.52-10.15-46.86-26.32-3.47-4.94-6.77-7.66-13.37-6.95-7.86.85-15.9-.2-23.84.15-2.21.1-5.03,1.69-6.37,3.49-6.76,9.04-13.68,17.93-24.01,23.06-22.59,11.23-45.1,8.75-65.58-4.24-20.32-12.9-28.79-33.16-27.83-57.17.39-9.83.57-9.82-9.16-9.64-18.35.35-33.93-14.31-34.8-32.75-.38-8.16-.48-8.4-8.33-5.42-27.51,10.43-55.39,19.74-84.63,23.56-19.67,2.57-39.69,5.31-59.38,4.37-46.04-2.21-97.41-39.53-109.57-93.91-9.77-43.7-9.43-86.37,10.65-127.11,7.57-15.36,17.99-29.33,27.5-43.69,2.68-4.04,3.32-6.63-.26-10.58-3.39-3.74-6.11-8.38-8.11-13.05-21.81-51.03-24.25-102.66-3.91-154.75,4.52-11.58,9.62-22.96,14.85-34.25,1.79-3.86.18-6.27-1.64-9.23-19.16-31.34-35.28-63.9-38.96-101.17-2.9-29.42-3.66-58.58,9.51-86.38,6.16-13.01,13.76-24.7,23.54-35.3,34.3-37.2,75.7-62.59,123.41-79.37C196.82,10.35,231.25,3.34,267.04,2.13ZM811.54,498.91c5.91,4.94,11.15,9.1,16.13,13.54,3.42,3.05,5.37,1.98,6.49-1.84,3.59-12.27,8.24-24.37,10.33-36.89,4.14-24.85,3.51-50.01.99-75.03-1.56-15.5-7.6-29.54-15.83-42.67-1.29-2.06-2.52-3.92-5.47-2.08-10.39,6.48-21.22,12.32-31.22,19.34-39.84,27.94-84.02,41.59-132.52,39.27-52.56-2.51-95.98-24.07-128.74-65.89-2.34-2.99-4.3-6.22-1.18-9.51,3.4-3.58,6.76-1.46,9.88,1,5.86,4.63,11.49,9.63,17.7,13.73,61.82,40.82,126.13,52.97,195.42,18.49,23.04-11.47,43.18-25.71,60-45.15,32.94-38.07,50.4-81.3,45.32-132.26-.81-8.09-1.81-16.47-4.63-24-13.95-37.22-36.37-68.25-71.1-88.51-16.34-9.53-34.16-16.67-51.66-24.04-26.4-11.12-53.93-18.39-82.65-19.6-31.7-1.33-62.73,3.83-93.39,11.56-15,3.78-28.1,10.84-39.59,21.14-14.82,13.28-29.76,26.43-44.65,39.63-4.96,4.4-10.27,5.65-16.74,3.08-2.67-1.06-6.47-1.12-9.11-.05-6.74,2.74-12.11,1.07-17.17-3.41-15.43-13.66-30.87-27.32-46.3-40.98-10.03-8.88-21.45-15.37-34.47-18.48-13.65-3.26-27.39-6.25-41.22-8.6-22.68-3.85-45.54-5.81-68.53-2.94-36.28,4.54-69.89,17.62-102.77,32.81-8.19,3.79-16.14,8.3-23.72,13.21-31.87,20.66-53.43,50.02-65.16,85.4-9.57,28.88-8.26,59.17,1.17,88.29,8.53,26.32,22.88,49.33,41.11,70.43,22.59,26.15,51.47,42.72,82.85,53.54,46.98,16.2,93.72,10,138.64-10.53,18.44-8.43,34.55-20.42,50.07-33.29,2.82-2.34,6.03-3.68,9.06-.66,3.01,3.01,1.69,6.22-.56,9.1-22.44,28.73-50.57,49.22-85.89,59.3-54.1,15.44-105.47,6.86-154.38-18.77-17.72-9.28-34.24-20.88-51.11-31.74-3.55-2.28-5.15-1.7-7.13,1.55-8.06,13.23-14.74,27.21-15.32,42.79-.84,22.35-.81,44.77-.1,67.13.48,15.41,5.64,30,11.35,44.26.85,2.13,1.74,5.26,4.68,3.07,5.89-4.4,11.36-9.36,17.73-14.7-3.75-.81-6.52-1.19-9.15-2.01-13.16-4.11-18.17-21.28-8.99-30.63,3.02-3.08,6.63-4.27,10.68-2.46,4.16,1.85,5.34,5.47,4.82,9.74-.19,1.58-1.12,3.16-.97,4.66.21,2.15.64,4.54,1.8,6.29,2.22,3.37,5.01,6.36,8.09,10.15.71-.4,2.4-1.23,3.97-2.25,16.16-10.39,32.22-20.93,48.46-31.19,24.19-15.28,50.52-22.85,79.2-20.13,8.02.76,16.2,2.79,23.67,5.81,16.53,6.67,24.26,20.15,25.63,37.45.54,6.75-2.31,11.17-6.94,12.44-4.78,1.32-8.72-1.03-11.89-7.49-3.09-6.3-7.39-11.54-13.92-14.14-15.92-6.35-32.36-10.15-49.52-6.11-29.07,6.84-53.71,22.15-76.41,40.97-.98.81-1.59,2.06-2.78,3.65,2.76-.2,5.02-1.04,6.52-.32,2.99,1.45,6.74,3.21,7.95,5.87,1.1,2.41.17,6.82-1.51,9.17-2.48,3.48-6.13,6.42-9.87,8.59-1.69.98-6.18.35-6.96-.98-1.92-3.26-2.63-7.31-3.38-11.13-.29-1.48.65-3.2,1.21-5.61-8.75,8.43-16.76,16.15-25.7,24.76,2.75.12,3.94.27,5.12.21,4.83-.26,9.14.74,10.63,5.95,1.48,5.14-1.92,7.68-5.93,10-1.22.71-2.15,3.23-1.99,4.8.57,5.7-2.81,9.55-8.14,7.55-3.64-1.36-6.6-4.78-9.59-7.57-1.1-1.03-1.41-2.9-2.39-5.07-1.69,1.97-2.75,3.12-3.72,4.34-25.47,32.2-35.92,69.12-33.44,109.72,1.12,18.38,4.55,36.55,15.16,52.21,14.43,21.3,35.76,31.88,60.24,37.06,25.18,5.32,50.58,4.73,75.98,2.2,30.32-3.02,60.36-7.2,88.68-19.69,7.86-3.47,16.67-5.02,25.19-6.67,15.01-2.9,30.11-5.35,45.22-7.7,7.99-1.24,16.08-2.99,23.88.51,6.37-9.8,7.56-10.05,17.85-3.97,1.07.63,2.26,1.06,3.31,1.72,4.15,2.61,4.58,6.89,1.06,10.24-4.76,4.52-12.73,4.71-17.48.16-1.2-1.15-1.65-3.09-2.73-5.23-6.13,8.86-13.48,11-20.84,13.19-6.46,1.93-12.93,3.87-19.3,6.09-2.04.71-3.78,2.29-5.71,3.51,5.48,7.08,5.74,8.73,3.3,16.04-1.24,3.72-2.74,7.33-7.43,7.02-4.43-.29-6.31-3.79-7.19-7.55-.7-3-.69-6.17-1.04-9.75-1.16.54-2.04.73-2.62,1.25-4.17,3.71-6.67,16.68-4.03,21.59,2.5,4.64,7.02,5.45,11.78,6,4.21.48,5.91-1.94,7.77-5.06,3.36-5.64,6.69-11.41,10.88-16.42,3.23-3.86,7.43-7.16,11.77-9.76,4.52-2.7,10.21-1.06,13.6,2.73,3.22,3.61,3.6,8.69.66,13.37-1.41,2.24-3.3,4.18-5,6.23-9.64,11.57-15.08,24.9-16.13,39.89-1.19,16.9,8.74,27.88,25.67,28.66,11.29.52,22.29-1.69,31.9-7.24,11.32-6.53,21.86-14.45,32.47-22.14,3.85-2.79,7.42-3.99,11.82-2.06,4.41,1.94,6.47,5.44,6.44,10.14-.01,2.48-.65,4.99-.4,7.42.11,1.14,1.65,2.13,2.55,3.19.85-1.08,2.27-2.08,2.42-3.24.24-1.88-.46-3.85-.57-5.8-.29-4.99,1.15-9.13,5.99-11.5,4.81-2.36,8.72-1.02,12.68,2.28,6.27,5.23,12.59,10.51,19.41,14.96,13.81,9,28.8,14.89,45.67,13.9,16.34-.96,26.15-12.3,24.78-28.42-1.33-15.72-6.91-29.69-17.54-41.52-1.3-1.45-2.63-2.93-3.66-4.57-2.94-4.65-2.72-9.75.41-13.4,3.24-3.78,8.95-5.32,13.62-3.06,2.98,1.45,6.16,3.29,8.15,5.82,5.36,6.82,10.29,13.99,15.04,21.25,1.83,2.79,3.53,4.55,7.13,4.34,6.75-.39,11.43-3.07,12.7-7.79,1.78-6.59-1.72-17.89-6.41-20.63-.2-.12-.64.18-.69.2-.82,4.09-.95,8.34-2.64,11.84-1.08,2.22-4.47,4.48-6.86,4.52-1.95.03-4.73-2.85-5.77-5.08-2.72-5.88-4.33-12.05,3.25-17.02-2.41-1.66-3.93-3.22-5.78-3.88-6.01-2.16-12.09-4.17-18.24-5.9-8.07-2.27-16.08-4.52-22.15-12.64-1.09,1.6-1.72,2.95-2.72,3.91-4.94,4.71-12.64,5.18-17.35.39-1.68-1.71-2.84-6.98-1.99-7.62,4.53-3.39,9.7-5.99,14.85-8.44.98-.47,3.78.59,4.2,1.59,2.69,6.46,7.47,5.74,12.71,4.33.98-.26,2.13-.03,3.18.13,15.64,2.36,31.24,4.95,46.91,7.07,17.21,2.33,33.86,6.44,49.68,13.76,3.37,1.56,7.01,2.61,10.61,3.55,34.81,9.08,70.24,13.18,106.18,12.59,20.95-.35,41.55-3.29,60.71-12.46,20.24-9.68,35.95-24.07,42.46-46.09,15.71-53.08,5.99-101.6-27.6-145.45-.78-1.01-1.97-1.7-2.66-2.28-2.54,3.53-4.18,7.58-7.17,9.43-2.89,1.79-7.57,2.55-10.75,1.53-4.28-1.37-2.69-5.83-1.88-9.29.07-.29-.19-.66-.34-1.12-3.81-2.24-9.14-3.75-8.45-9.59,1.06-8.95,8.97-6.99,15.32-7.81-8.41-8.7-16.19-16.75-23.96-24.8-.6,2.3-.04,3.94.14,5.61.2,1.92.75,4.28-.09,5.73-1.58,2.74-3.66,5.79-6.32,7.05-1.41.67-4.51-2.07-6.77-3.39-1.05-.62-1.88-1.61-2.9-2.31-5.82-4.01-7.88-8.29-6.08-12.72,1.89-4.64,6.23-6.4,13.04-5.29.49.08,1,.01,2.38.01-1.42-1.68-2.24-3-3.38-3.94-21.69-18.04-45.09-34.03-72.9-39.66-26.34-5.33-52.89-5.51-69.16,22.93-3.15,5.51-10.67,5.57-13.93.52-1.7-2.64-2.73-6.38-2.48-9.5.84-10.49,4.04-20.24,11.78-27.9,11.48-11.37,26.03-14.62,41.47-15.52,28.07-1.62,53.39,6.61,76.82,21.46,15.48,9.8,30.79,19.87,46.19,29.78,1.72,1.11,3.59,1.99,4.99,2.76,2.04-3.11,3.23-6.26,5.49-8.09,3.69-2.99,4.93-5.99,3.61-10.63-1.82-6.42.12-10.83,4.79-12.48,4.75-1.68,9.87.85,12.67,6.26,5.31,10.26-.03,23.32-11.14,26.97-2.67.88-5.51,1.24-9.51,2.11ZM392.07,38.21c-.08.65-.16,1.3-.23,1.96,1.2.96,2.34,2.02,3.61,2.86,19.42,12.86,35.99,28.92,51.47,46.15,2.68,2.98,3.98,2.08,6.23-.37,15.56-16.9,31.81-33.05,51.13-45.75,1.38-.91,2.62-2.03,5.02-3.92-3.27-.96-5.17-1.71-7.14-2.07-10.45-1.9-20.65-.21-30.44,3.27-14.53,5.16-28.69,4.88-43.34.14-7.66-2.48-15.97-3.23-24.06-3.97-4-.36-8.16,1.07-12.25,1.7Z" style="fill: #000; stroke-width: 0px;"/>
  <path d="M576.91,691.79c-21.44-.29-42.04-4.72-61.81-12.85-20.37-8.38-40.56-17.22-60.96-25.53-2.58-1.05-6.35-.94-8.95.12-18.26,7.44-36.36,15.27-54.51,23-24.71,10.53-50.33,17.12-77.31,14.67-10.45-.95-21.08-3.84-30.82-7.81-20.76-8.47-30.38-27.05-25.1-48.89,2.28-9.45,6.58-18.94,12.07-26.98,10.22-14.99,22.34-28.62,37.55-38.97,12.62-8.58,26.37-11.84,41.63-8.66,3.06.64,6.69-1.02,9.96-1.97,1.65-.48,3.04-1.81,4.6-2.67,7.56-4.18,14.06-2.7,19.01,4.33,2.06,2.93,4.25,6.94,8.2,5.14,2.94-1.34,5.95-4.73,6.87-7.81,1.59-5.34,4.24-7.84,9.72-7.86,1.88,0,3.77-.85,5.65-1.33,8.24-2.09,15.8-1.11,22.56,4.52,9.71,8.1,19.56,8.12,29.25-.02,5.41-4.55,11.58-6.16,18.39-5.3,4.55.57,9.22,1.19,13.46,2.78,2.22.83,3.86,3.67,5.33,5.88,1.24,1.87,1.47,4.45,2.81,6.2,3.48,4.54,7.95,4.38,11.52-.11.55-.69.99-1.48,1.51-2.2,4.87-6.81,11.69-8.86,18.51-4.28,6.66,4.47,13.06,5.5,20.99,4.15,16.43-2.79,30.98,3.38,42.53,14.33,11.93,11.31,22.55,24.11,32.94,36.9,6.33,7.79,9.42,17.47,10.79,27.53,2.67,19.58-6.08,36.09-23.96,44.56-13.39,6.35-27.59,9.25-42.41,9.1ZM611.06,636.22c.55-7.5-2.84-14.53-8.7-20.51-11.8-12.04-25.63-20.58-41.84-25.64-8.75-2.73-17.23-6.61-25.42-10.77-3.67-1.86-5.62-2.01-8.7.84-10.92,10.1-26.25,8.79-35.84-2.68-1.14-1.36-2.22-2.79-3.53-3.98-3.63-3.29-7-4.59-11.6-.69-6.54,5.56-14.13,7.01-22.42,3.22-1.78-.82-4.58-.71-6.41.1-7.63,3.38-14.56,2.18-21.2-2.34-6.82-4.65-9.96-4.63-14.95,2.15-10.36,14.1-28.74,13.89-38.6,3.24-1-1.08-4.19-1.08-5.89-.4-9.02,3.64-17.66,8.39-26.87,11.37-16.32,5.28-30.29,13.88-42.14,26.15-5.9,6.11-8.37,13.36-8.25,21.81.1,7.33,3.22,11.76,10.12,14.52,19.06,7.64,39.29,7.7,59.21,9.85,2.05.22,4.22-.49,6.31-.93,18.38-3.84,35.94-10.06,52.8-18.28,9.96-4.85,19.94-8.84,31.13-3.88,1,.44,2.57.31,3.62-.15,9.76-4.23,18.75-1.47,27.75,2.59,8.75,3.95,17.48,7.99,26.47,11.32,18.3,6.77,36.86,12.28,56.74,7.26,2.05-.52,4.28-.27,6.35-.71,10.39-2.22,20.9-4.04,31.08-7.01,9.01-2.63,10.78-6.02,10.77-16.46Z" style="fill: #000; stroke-width: 0px;"/>
  <path d="M175.86,281.53c-31.59-1.34-63.31-14.05-86.98-43.05-21.48-26.31-23.42-58.02-5.76-87.02,14.68-24.11,35.14-42.35,60.17-55.22,5.36-2.76,11.77-4.03,17.83-4.67,3.55-.37,7.65,1.31,11.01,3.04,4.27,2.2,6.45,6.21,5.18,11.2-1.18,4.64-4.95,5.97-9.25,6.8-3.79.73-7.71,1.59-11.12,3.3-19.84,9.95-37.14,23.13-50,41.47-16.78,23.94-15.62,50.27,2.9,72.88,21.91,26.74,61.91,38.57,94.82,28.03,20.08-6.43,33.91-19.73,41.96-38.99,2.87-6.86,4.75-14.14,7.04-21.25.65-2.03.6-4.53,1.8-6.07,1.56-2,4.49-4.88,6.06-4.46,2.18.58,5.05,3.77,5.21,6,2.69,39.51-14,68.22-49.58,81.79-11.61,4.43-23.7,6.22-41.3,6.22Z" style="fill: #000; stroke-width: 0px;"/>
  <path d="M714,281.79c-5.4-.92-15.03-1.77-24.23-4.25-34.51-9.3-55.01-34.93-57.07-70.58-.26-4.43-.69-9,.11-13.29.45-2.41,3.08-5.89,5.05-6.12,1.97-.23,5.23,2.55,6.33,4.8,1.85,3.76,2.36,8.16,3.58,12.25,13.47,45.4,48.38,65.73,94.51,54.73,21.54-5.14,39.42-16.31,51.88-34.92,13.43-20.06,14.41-41.04,1.9-61.82-13.67-22.71-34.08-37.85-57.84-48.75-2.34-1.07-5.19-1.01-7.8-1.49-3.94-.72-7.81-2.53-7.9-6.68-.07-3.3,1.26-7.7,3.6-9.71,2.98-2.55,7.64-4.44,11.52-4.34,5.7.15,11.84,1.28,16.92,3.77,27.18,13.33,49.1,32.84,63.88,59.36,17.57,31.52,11.87,65.64-14.57,91.7-23.7,23.36-52.64,34.32-89.87,35.34Z" style="fill: #000; stroke-width: 0px;"/>
  <path d="M143.46,658.99c-11.65-.25-22.79-2.34-32.45-9.13-17.89-12.56-22.14-30.69-19.09-50.94,4-26.56,18.74-46.85,39.34-63.18,13.12-10.4,27.61-18.23,44.44-20.73,10.53-1.57,20.8-.54,29.3,6.5,3.28,2.71,6.22,6.63,7.57,10.59.93,2.73-.11,7.56-2.13,9.49-2.02,1.92-7.27,3-9.55,1.7-23.46-13.35-42.67-2.66-60.81,10.89-14.8,11.06-24.58,26.09-28.12,44.56-.86,4.49-1.1,9.22-.78,13.78.94,13.62,8.82,22.27,22.24,24.89,12.19,2.38,24.08.39,35.82-2.86,20.92-5.78,39.88-15.93,58.57-26.65,2-1.15,4.04-2.83,6.15-2.99,2.12-.16,5.12.69,6.3,2.22.97,1.25-.12,4.14-.42,6.29-.06.44-.63.84-1.04,1.18-24.03,19.93-49.4,37.37-81.05,42.82-4.71.81-9.52,1.06-14.29,1.56Z" style="fill: #000; stroke-width: 0px;"/>
  <path d="M757.47,658.81c-24.92-.67-45.62-8.86-64.81-21-10.49-6.64-20.23-14.46-30.25-21.84-3.17-2.34-5.94-5.35-2.98-9.39,2.73-3.73,6.18-2,9.54-.32,16.36,8.17,32.54,16.77,49.25,24.17,12.39,5.49,25.72,8.26,39.47,7.95,22.04-.49,33.31-13.43,30.78-35.32-3.56-30.78-32.82-60.86-63.54-65.28-8.33-1.2-16.27-.33-23.55,4.45-4.27,2.8-8.86,3.24-12.63-.79-3.72-3.97-2.94-8.57-.38-12.83,5.17-8.59,13.26-13.27,22.91-13.61,7.85-.28,16.25.16,23.58,2.69,32.08,11.04,55.24,32.21,68.38,63.76,4.08,9.8,5.79,20.14,5.32,30.79-1.07,24.15-15.81,41.1-39.61,45.36-4.35.78-8.82.94-11.47,1.21Z" style="fill: #000; stroke-width: 0px;"/>
  <path d="M510.03,517.88c-4.09-.6-8.18-1.16-12.26-1.79-4.01-.62-7.81-1.79-9.1-6.23-1.26-4.33,1.04-7.53,3.94-10.39,7.2-7.1,19.57-8.51,28.15-3.09,6.46,4.08,8.87,9.89,6.45,17.62,1.28.32,2.35.95,3.21.74,7.23-1.76,14.65-3.1,21.58-5.7,7.55-2.83,9.51-9.43,5.67-16.6-4.15-7.73-10.88-12.61-19-15.46-9.6-3.37-13.57-7.96-12.13-14.72,1.25-5.87,7.38-9.81,16.49-8.17,20.14,3.61,38.62,10.62,47.96,31.09,11.14,24.39-3.83,50.87-30.39,54.94-26.49,4.07-52.42,3.48-77.65-6.55-1.98-.79-4-1.48-5.91-2.39-3.28-1.56-6.38-4.12-4.48-7.75,1.14-2.19,4.84-4.15,7.46-4.25,7.79-.3,15.62.43,23.44.64,2.18.06,4.36-.33,6.54-.52l.02-1.43Z" style="fill: #000; stroke-width: 0px;"/>
  <path d="M372.08,514.79c-.65-12.14,2.33-17.26,11.08-20.37,9.35-3.33,20.66-.14,25.94,7.31,4.28,6.05,2.15,12.06-5.03,13.89-2.4.61-4.9.86-7.36,1.23-2.22.33-4.44.61-6.66.91-.02.46-.05.93-.07,1.39,1.94.23,3.89.71,5.83.66,7.64-.18,15.28-.52,22.91-.82,3.76-.15,7.45.18,8.52,4.56,1.08,4.38-1.96,6.7-5.45,7.97-19.78,7.25-39.76,13.5-61.32,10.68-5.99-.78-12.03-1.13-18.03-1.79-18.34-2.02-33.07-14.28-36.45-30.3-3.56-16.85,5-36.47,20.66-45.03,7.88-4.31,16.49-7.48,25.08-10.21,4.01-1.28,8.8-.73,13.14-.23,4.67.53,7.8,3.63,8.46,8.37.64,4.57-1.08,8.5-5.14,10.91-2.26,1.34-4.86,2.11-7.32,3.1-8.16,3.27-15.05,8.1-19.01,16.21-3.23,6.61-1.34,12.46,5.31,15.59,7.71,3.63,15.95,5.32,24.93,5.99Z" style="fill: #000; stroke-width: 0px;"/>
  <path d="M743.18,208.64c-12.54,6.86-24.19,8.1-36.1,3.13-11.82-4.93-19.43-13.92-24.17-27.43-3.19,4.58-5.62,7.9-7.88,11.34-1.95,2.97-3.31,6.44-5.69,8.98-1.72,1.83-5.07,3.84-7,3.31-2.27-.63-4.93-3.69-5.46-6.12-5.28-24.22,11.5-48.11,36.25-51.21,22.47-2.81,42.63,3.87,60.43,17.43,9.48,7.22,14.47,17.48,13.71,29.31-.61,9.46-2.81,18.91-5.16,28.14-1.57,6.17-6.11,8.77-10.96,8.01-4.53-.71-7.33-4.52-7.78-10.7-.16-2.13-.16-4.26-.19-6.4-.03-2.08,0-4.16,0-7.79ZM701.67,175.2c3.48,5.09,5.67,9.33,8.81,12.67,7.19,7.64,16.65,7.03,23.66-.8,2.5-2.8,2.22-4.96-1.15-5.98-7.75-2.34-15.6-4.38-23.47-6.28-1.88-.45-4.01.16-7.85.39Z" style="fill: #000; stroke-width: 0px;"/>
  <path d="M216.36,185.74c-4.25,12.1-11.88,21.06-23.66,26.01-11.93,5.01-23.59,3.72-35.61-2.81-.23,2.68-.41,4.51-.54,6.35-.27,3.71.33,7.78-1.02,11.04-1.19,2.86-4.17,5.76-7.06,6.93-3.78,1.53-7.7-.69-9.31-4.36-9.25-21.15-13.53-50.9,15.28-66.69,14.61-8.01,30.01-12.94,46.86-12.17,27.37,1.26,45.46,22.97,41.92,50.15-.49,3.72-1.56,7.13-5.8,7.97-4.24.83-6.47-1.96-8.41-5.16-3.56-5.85-7.21-11.66-10.83-17.48-.6.07-1.2.15-1.8.22ZM197.05,175.68c-8.61-1.97-26.23,1.83-31.73,6.11-2.66,2.07-1.24,3.56.28,5.2,4.37,4.7,9.51,7.72,16.08,5.65,8.16-2.57,11.93-9.23,15.36-16.97Z" style="fill: #000; stroke-width: 0px;"/>
  <path d="M588.81,163.12c-13.31-.12-27.43-5.32-41.12-11.94-2.97-1.43-5.3-4.3-3.33-7.26,1.27-1.91,4.99-3.48,7.34-3.17,9.31,1.22,18.46,3.69,27.78,4.85,10,1.25,19.95.09,29.16-4.37,8.53-4.13,15.51-9.85,15.29-20.47-.17-8.35-7.67-16.35-18.17-19.34-3.67-1.04-7.69-1.11-11.55-1.14-5.04-.05-9.28-1.3-11.14-6.41-1.85-5.09.51-9.03,4.32-12.17,5.46-4.49,11.97-5.52,18.64-4.28,17.79,3.3,30.47,13.35,36.93,30.3,6.17,16.18-.16,33.77-15.3,44.43-10.99,7.73-23.33,11.04-38.85,10.97Z" style="fill: #000; stroke-width: 0px;"/>
  <path d="M307.28,164.6c-8.98-2.52-18.41-4.03-26.84-7.78-15.28-6.79-25.56-18.4-25.78-36.01-.22-17.8,9.62-29.98,24.48-38.44,7.57-4.31,15.8-6.81,24.56-4.59,3.32.84,6.62,2.61,9.34,4.72,3.79,2.94,5.38,7.15,3.35,11.88-1.93,4.51-5.86,5.57-10.45,5.94-5.23.42-10.73.69-15.53,2.54-7.99,3.09-14.07,8.84-14.59,18.03-.52,9.09,5.27,14.75,12.53,18.94,9.08,5.24,19.13,6.83,29.36,5.91,8.63-.78,17.17-2.68,25.74-4.13,1.57-.27,3.1-.81,4.66-1.11,3.32-.63,6.71.09,7.13,3.61.26,2.18-1.43,5.87-3.29,6.82-13.86,7.1-28.36,12.31-44.26,12.21-.14.49-.28.97-.42,1.46Z" style="fill: #000; stroke-width: 0px;"/>
  <path d="M537.41,287.81c-11.89-.2-25-5.61-37.42-12.7-1.92-1.09-3.74-5.43-3.02-7.24.76-1.92,4.62-3.67,7.1-3.63,5.1.08,10.15,1.87,15.26,2.11,7.94.37,16.06,1.03,23.83-.2,14.21-2.26,20.82-12.26,18.74-26.62-1.62-11.14-7.26-20.26-14.81-28.36-1.92-2.06-3.93-4.19-5.25-6.63-2-3.7-1.8-7.61.98-10.99,2.79-3.39,6.61-4.35,10.59-2.95,2.95,1.04,6.1,2.45,8.27,4.6,15.18,14.96,23.59,32.93,21.5,54.54-2.21,22.93-19.94,38.22-45.77,38.07Z" style="fill: #000; stroke-width: 0px;"/>
  <path d="M370.36,267.64c6.79-.96,15.06-2.04,23.3-3.33,3.96-.62,7.86-.84,9.35,3.67,1.5,4.56-1.76,7.06-5.43,8.42-10.28,3.8-20.4,8.83-31.06,10.64-28.73,4.9-51.24-15.52-50.28-44.67.59-18.05,8.09-33.3,20.64-46.07,2.18-2.22,5.06-3.96,7.92-5.23,4.69-2.08,9.21-1.27,12.42,2.97,3.08,4.08,2.32,8.43-.42,12.39-1.5,2.17-3.45,4.05-5.25,6.01-6.34,6.95-11.09,14.77-13.16,24.03-3.77,16.84,3.85,27.95,20.87,30.34,3.16.44,6.37.48,11.1.82Z" style="fill: #000; stroke-width: 0px;"/>
  <path d="M736.91,730.44c-23.8-1.16-40.02-10.99-53.54-25.79-4.88-5.35-8.91-11.5-13.16-17.4-2.29-3.18-3.94-6.84-.16-9.97,3.52-2.91,6.49-.52,9.48,1.69,10.27,7.58,20.37,15.43,31.08,22.33,7.18,4.62,15.45,7.31,24.29,6.84,7.12-.38,11.27-4.35,11.03-10.39-.16-4.03-1.59-7.24-5.94-8.43-4.93-1.35-8.26-4.23-8.14-9.75.1-4.79,4.42-9.15,10.07-10.26,6.63-1.3,12.25.93,17.13,5.34,15.74,14.24,12.26,41.54-6.86,51.06-5.57,2.77-12.03,3.76-15.28,4.72Z" style="fill: #000; stroke-width: 0px;"/>
  <path d="M163.45,730.17c-11.21-.28-22.53-4.97-28.98-17.51-5.95-11.55-4.95-23.11,2.5-33.81,4.26-6.12,10.07-10.23,17.89-9.76,2.87.17,6.37,1.01,8.29,2.88,2.29,2.23,4.58,6.05,4.27,8.9-.3,2.81-3.35,6.18-6.08,7.7-5.98,3.33-8.25,5.89-7.42,11.16.81,5.15,4.78,8.8,11.3,8.27,6.43-.53,13.52-1.35,18.91-4.47,11.92-6.89,22.97-15.29,34.35-23.11,1.6-1.1,2.91-3,4.64-3.45,1.99-.53,5.09-.66,6.25.5,1.4,1.39,2.43,4.94,1.62,6.5-11.61,22.18-35.99,45.91-67.54,46.22Z" style="fill: #000; stroke-width: 0px;"/>
  <path d="M267.92,322.2c-.63,15.65-5.65,29.01-20.14,37-12.35,6.81-26.71,4.28-35.82-6.46-9.28-10.95-11.89-23.66-8-37.49,1.82-6.47,6.64-10.12,11.81-9.59,5.52.56,8.84,5.17,9.55,12.34.47,4.73.94,9.65,2.59,14.04,3.03,8.1,9.82,9.98,15.84,3.79,4.54-4.67,7.56-10.96,10.65-16.84,2.08-3.95,2.16-10.07,8.54-8.84,5.76,1.11,4.83,6.6,4.98,10.99.01.36,0,.71,0,1.07Z" style="fill: #000; stroke-width: 0px;"/>
  <path d="M698.41,327.96c-2.02,5.84-3.45,13.33-7.01,19.63-9.79,17.35-31.21,20.47-46.02,7.12-11.51-10.38-14.72-23.95-13.32-38.77.2-2.15,3.23-5.65,4.94-5.64,2.24,0,4.78,2.6,6.59,4.62,1.2,1.33,1.15,3.71,2.02,5.44,2.06,4.1,3.9,8.43,6.64,12.05,3.12,4.13,7.24,7.94,13.06,6.49,5.63-1.41,7.05-6.65,8.14-11.54.77-3.44.77-7.04,1.13-10.57.65-6.36,3.88-10.33,8.95-11.06,4.89-.7,9.62,2.29,11.67,8.15,1.39,3.96,1.91,8.23,3.19,14.07Z" style="fill: #000; stroke-width: 0px;"/>
  <path d="M759.77,334.54c-11.64-.33-22.4-5.71-31-15.18-4.4-4.84-8.11-10.32-11.89-15.69-2-2.84-2.47-6.17.63-8.62,3.13-2.48,5.93-.85,8.56,1.41,4.97,4.28,9.74,8.89,15.13,12.57,7.09,4.85,15.09,7.24,23.79,4.89,7.25-1.96,9.38-5.83,7.55-13.13-.43-1.72-.89-3.45-1.14-5.2-.76-5.52,1.49-10.15,5.75-12.06,4.41-1.98,9.93-.52,13.33,3.85,4.55,5.84,5.44,12.66,4.39,19.74-2.37,16.01-16.61,27.51-35.12,27.42Z" style="fill: #000; stroke-width: 0px;"/>
  <path d="M138.64,334.55c-20.28.14-36.05-15.76-33.7-34.84.61-4.92,3.47-9.93,6.42-14.09,2.53-3.56,7.12-3.83,11.23-1.99,3.96,1.78,5.9,5.16,5.81,9.41-.06,2.63-.64,5.28-1.26,7.85-1.76,7.29.39,11.06,7.72,13.07,6.71,1.84,13.34.92,19.1-2.52,6.05-3.61,11.46-8.29,17.1-12.58,1.41-1.07,2.42-3,3.95-3.49,2.13-.68,5.49-1.36,6.67-.27,1.49,1.39,2.57,5.23,1.69,6.87-8.7,16.2-23.07,32.18-44.72,32.57Z" style="fill: #000; stroke-width: 0px;"/>
  <path d="M319.31,340.61c-17.61,0-32.53-12.31-35.42-27.36-1.06-5.5,1-10.74,5.26-12.84,5.03-2.49,9.29-.69,13.1,2.79,3.4,3.1,6.48,6.64,10.2,9.28,5.66,4.01,10.04,2.48,12.52-3.99,1.07-2.79,1.05-6.09,2.45-8.65,1.3-2.38,3.61-5.28,5.9-5.72,1.97-.38,5.51,1.81,6.7,3.84,5.46,9.26,6.69,19.12,1.25,28.87-5.21,9.35-13.64,13.57-21.96,13.79Z" style="fill: #000; stroke-width: 0px;"/>
  <path d="M580.51,340.63c-8.52-.23-17.05-4.67-22.23-14.22-5.18-9.56-3.98-19.32,1.3-28.43,1.18-2.03,4.71-4.26,6.67-3.88,2.3.44,4.66,3.32,5.92,5.71,1.62,3.07,1.82,6.86,3.26,10.06,2.15,4.8,6.01,6.19,10.44,3.41,3.69-2.32,6.92-5.47,10.04-8.58,5.35-5.33,10.41-6.84,15.06-4.03,4.92,2.98,6.39,8.55,4.11,15.62-4.53,14.06-18.12,24.3-34.57,24.34Z" style="fill: #000; stroke-width: 0px;"/>
  <path d="M509.58,352.03c3.03,2.15,6.74,3.48,7.94,6,1.2,2.52,1.16,7.35-.52,9.25-10.34,11.79-7.16,24.39-2.32,36.61,2.97,7.49,8.01,14.18,12.36,21.08,2.01,3.2,3.86,6.25,1.04,9.69-2.61,3.18-5.97,2.42-9.29,1.12-9.07-3.56-16.43-9.29-21.36-17.73-8.8-15.06-10.76-31.18-5.74-47.82,1.33-4.42,4.13-8.73,7.28-12.14,2.46-2.65,6.51-3.82,10.61-6.06Z" style="fill: #000; stroke-width: 0px;"/>
  <path d="M410.59,385.14c-.05,25.09-10.66,42.74-28.86,50.23-3.57,1.47-7.26,2.89-10.23-.76-3.22-3.95-.68-7.28,1.77-10.48,7.19-9.41,13.3-19.4,15.2-31.32,1.42-8.92,1.63-17.52-5.36-25.02-1.84-1.97-2.39-7.3-1.02-9.53,1.56-2.54,5.92-4.54,9.12-4.63,5.87-.17,10.16,3.69,13.26,8.59,4.83,7.65,6.05,16.2,6.12,22.92Z" style="fill: #000; stroke-width: 0px;"/>
  <path d="M375.07,777.48c.16-6.15,2.21-13.25,6.81-19.44,3.52-4.74,8.58-6.1,12.55-3.68,3.88,2.36,4.61,6.78,2.54,12.36-1.34,3.62-2.61,7.41-3.01,11.22-.52,4.94,1.65,6.65,6.05,4.44,6.15-3.09,11.93-6.97,17.67-10.8,3.24-2.16,5.81-5.43,9.2-7.22,2.08-1.1,6.07-1.41,7.49-.15,1.41,1.24,1.83,5.74.67,7.39-7.56,10.81-15.75,21.22-27.93,27.31-17.05,8.54-32.16-.92-32.05-21.43Z" style="fill: #000; stroke-width: 0px;"/>
  <path d="M524.6,779.52c-.07,18.18-14.49,27.52-30.99,19.87-12.88-5.98-21.39-16.8-29.22-28.07-1.1-1.58-.4-6.18,1.06-7.3,1.54-1.18,5.58-.74,7.5.53,6.05,4,11.49,8.92,17.44,13.1,3.01,2.11,6.52,3.58,9.94,5.01,3.52,1.46,5.82-.06,5.41-3.83-.42-3.82-1.31-7.68-2.67-11.27-2.41-6.35-1.89-10.9,2.2-13.28,4.45-2.59,10.16-.97,13.3,5.14,3.17,6.17,5.02,13.01,7.45,19.56l-1.42.53Z" style="fill: #000; stroke-width: 0px;"/>
  <path d="M849.39,670.3c-.14,21.59-17.85,33.09-36.48,24.41-5.09-2.37-9.91-5.64-14.18-9.29-1.8-1.54-3.04-5.43-2.45-7.71.96-3.7,4.71-3.61,8.06-2.76,4.64,1.19,9.22,2.71,13.93,3.43,7.21,1.11,10.41-2.61,8.62-9.72-.55-2.19-1.71-4.26-2.81-6.27-3.19-5.81-2.82-11.24,1.13-14.57,4.15-3.49,10.97-3.07,15.59,1.26,6.41,5.99,8.23,13.85,8.57,21.21Z" style="fill: #000; stroke-width: 0px;"/>
  <path d="M50.42,669.34c.28-6.44,2.16-13.9,8.04-19.79,4.48-4.49,11.13-5.3,15.53-2.07,4.45,3.26,5.16,8.81,1.65,14.83-2.6,4.45-5.2,9.29-1.83,13.87,3.49,4.75,8.83,1.94,13.39,1.12,2.6-.47,5.11-1.49,7.67-2.24,3.28-.96,6.56-1.15,8.45,2.3,2.03,3.69.06,6.58-2.9,8.67-4.2,2.96-8.35,6.13-12.94,8.37-18.98,9.28-37.13-2.31-37.06-25.06Z" style="fill: #000; stroke-width: 0px;"/>
  <path d="M492.33,701.7c.37-2.43.32-5.01,1.18-7.25,2.36-6.16,9.6-7.43,14.37-2.73,6.15,6.06,6.2,20.33.12,29.4-6.62,9.87-18.57,13.45-28.99,8.71-9.86-4.49-14.81-14.31-12.39-24.44.85-3.57,2.59-7.03,6.38-6.59,2.57.3,4.85,3.2,7.23,4.98.25.18.28.64.44.95,1.88,3.48,4.03,7.97,8.43,6.3,2.4-.92,3.39-5.56,5.01-8.53-.59-.27-1.18-.54-1.77-.8Z" style="fill: #000; stroke-width: 0px;"/>
  <path d="M637.69,732.22c-14.37.02-29.36-12.41-31.78-26.84-.37-2.18.78-5.97,2.36-6.77,1.92-.97,5.31-.11,7.58.97,2.11,1.01,3.39,3.62,5.37,5.07,3.55,2.6,7.11,5.42,11.1,7.13,5.59,2.39,8.19.34,8.64-5.77.05-.71.05-1.42.16-2.12.73-4.8,2.88-8.45,8.13-9.16,4.62-.62,8.65,2.28,10.49,7.29,5.31,14.48-6.14,30.18-22.04,30.2Z" style="fill: #000; stroke-width: 0px;"/>
  <path d="M261.84,732.22c-15.24-.09-26.25-14.38-22.26-28.89,1.58-5.75,5.62-9.03,10.6-8.63,4.71.38,8.45,4.13,8.31,10.06-.21,9.08,5.76,9.35,11.2,6.06,4.5-2.72,8.47-6.38,12.41-9.92,2.8-2.52,5.5-4.99,9.31-2.54,3.51,2.25,2.91,5.74,1.82,9.12-4.72,14.59-17.7,24.82-31.4,24.74Z" style="fill: #000; stroke-width: 0px;"/>
  <path d="M406.96,701.52c-.01.18-.03.35-.04.53-.08,3.69-.98,8.23,3.85,9.26,4.4.94,6.49-2.95,8.08-6.37,1.65-3.55,3.35-7.01,8-6.32,4.73.71,5.97,4.57,6.51,8.61,1.2,8.99-2.18,16.03-9.64,20.97-7.87,5.21-17.96,4.9-25.55-.45-9.01-6.35-13.1-18.37-9.98-29.32,1.9-6.68,6.48-10.39,11.59-9.39,5.11,1.01,7.55,5.24,7.18,12.48Z" style="fill: #000; stroke-width: 0px;"/>
  <path d="M664.15,85.8c-4.04.52-8.12.7-9.92-3.93-1.73-4.46,1.14-7.48,4.23-10.03,7.77-6.39,16.45-7.11,25.52-3.36,9.29,3.84,14.85,10.79,15.95,20.9.57,5.2-2.2,9.63-6.63,10.97-5.27,1.6-9.15-.86-11.69-5.14-4.01-6.74-9.24-10.71-17.46-9.42Z" style="fill: #000; stroke-width: 0px;"/>
  <path d="M235.87,87.1c-7.52-2.17-12.8.24-16.42,6.2-.92,1.51-1.94,3-3.16,4.25-2.8,2.88-6.58,4.76-10.01,2.52-2.77-1.81-5.62-5.21-6.2-8.32-1.7-9.18,5.99-19.59,16.33-23.57,10.29-3.96,22-1.41,27.4,6.54,1.35,1.99,2.14,6.32.99,7.61-2.11,2.36-5.86,3.26-8.92,4.76Z" style="fill: #000; stroke-width: 0px;"/>
  <path d="M336.44,728.08c-5.25-1.9-10.79-3.25-15.68-5.83-5.37-2.83-7.04-8.89-4.9-13.72,1.96-4.43,6.99-7.08,12.64-5.01,8.3,3.05,15.66,1.06,23.15-2.11,3.75-1.59,7.63-2.65,10.74,1.05,3.07,3.65,1.5,7.38-.59,10.85-5.66,9.37-14.31,13.36-25.36,14.77Z" style="fill: #000; stroke-width: 0px;"/>
  <path d="M565.64,727.16c-14.39-.64-23.23-5.28-28.69-15.54-1.71-3.21-2.58-7.01.59-9.23,2.21-1.55,5.86-1.79,8.73-1.45,3.27.39,6.32,2.67,9.59,3.07,4.27.53,8.68.07,13.02-.06.86-.02,1.71-.49,2.57-.66,6-1.15,10.53.84,12.56,5.48,2.02,4.63.39,10.58-4.8,13.3-5.06,2.65-10.77,4.07-13.57,5.08Z" style="fill: #000; stroke-width: 0px;"/>
  <path d="M286.27,263.71c1.99-2.81,2.98-4.47,4.23-5.91,3.65-4.18,9.03-3.14,10.89,2.03,2.19,6.1-.52,15.85-5.54,19.96-5.57,4.55-13.34,4.93-19.79.46-8.34-5.78-12.2-14.09-12.12-24.12.04-4.72,2.47-8.28,7.3-9.17,4.64-.86,7.74,1.77,9.74,5.75,1.68,3.34,3.25,6.73,5.29,11Z" style="fill: #000; stroke-width: 0px;"/>
  <path d="M613.43,263.78c1.92-4,3.35-6.76,4.59-9.6,2.42-5.58,6.44-8.28,10.94-7.2,4.55,1.09,7.39,5.43,6.89,11.2-.77,8.88-4.28,16.46-11.7,21.77-6.38,4.56-14.25,4.52-19.84.17-5.43-4.22-8.32-13.88-6.07-20.3,1.81-5.15,7.26-6.18,10.89-2,1.24,1.43,2.23,3.07,4.3,5.96Z" style="fill: #000; stroke-width: 0px;"/>
  <path d="M827.82,608.13c-1.02-2.47-1.76-4.05-2.34-5.68-1.52-4.28-.75-8.14,2.73-11.08,3.5-2.96,7.51-2.88,11.45-.87,7.41,3.78,12.04,15.27,9.54,23.43-2.42,7.9-9.96,12.61-19.29,11.42-4.15-.53-8.45-1.64-12.13-3.55-2-1.04-3.97-4.35-3.87-6.54.09-1.85,2.9-4.13,5.02-5.18,2.41-1.2,5.4-1.25,8.87-1.94Z" style="fill: #000; stroke-width: 0px;"/>
  <path d="M110.51,745.56c-14.68-.84-25.87-13.69-22.66-26.92.72-2.98,2.41-5.97,4.4-8.32,2.63-3.11,6.43-3.88,10.19-1.97,3.61,1.83,4.64,5.13,4.14,9.03-1.07,8.29,1.26,11.14,9.71,11.78,2.48.19,5.19-.46,7.4.35,2.21.81,5.13,2.7,5.52,4.59.39,1.88-1.42,5.49-3.21,6.32-4.91,2.28-10.3,3.51-15.51,5.15Z" style="fill: #000; stroke-width: 0px;"/>
  <path d="M789.2,745.39c-4.74-1.34-9.53-2.52-14.2-4.08-3.26-1.09-5.67-3.33-4.99-7.16.68-3.86,3.73-4.73,7.19-4.92,3.52-.19,7.13-.18,10.53-.97,4.51-1.05,6.85-3.81,5.83-9-1.26-6.39.51-10.02,4.82-11.43,4.61-1.51,9.16.93,11.99,6.42,7.07,13.72-4.46,30.46-21.17,31.13Z" style="fill: #000; stroke-width: 0px;"/>
  <path d="M71.89,608.18c3.38.66,6.25.63,8.45,1.82,2.23,1.2,5.1,3.49,5.31,5.55.21,2.04-2.09,5.57-4.1,6.34-4.87,1.87-10.2,3.35-15.37,3.45-8.64.17-15.14-5.99-16.25-13.96-1.18-8.42,4.39-19.5,11.66-21.3,3.12-.77,7.91-.04,10.06,2,2.14,2.03,2.28,6.52,2.6,9.99.15,1.69-1.3,3.53-2.35,6.11Z" style="fill: #000; stroke-width: 0px;"/>
  <path d="M67.72,388.86c.65-7.86,4.45-15.45,13.25-19.33,3.19-1.4,7.37-1.8,10.8-1.13,7.49,1.46,10.16,10.05,5.14,15.8-1.81,2.07-4.4,3.51-6.78,5-3.72,2.33-6.63,4.37-1.83,8.74,1.22,1.11,1.65,4.78.74,6.13-1.12,1.66-4.04,2.99-6.15,2.95-8.72-.18-15.21-7.6-15.17-18.16Z" style="fill: #000; stroke-width: 0px;"/>
  <path d="M831.93,390.39c-.02,8.76-5.61,15.61-14.23,16.46-2.36.23-5.83-1.07-7.12-2.86-.96-1.34-.03-5.4,1.44-6.87,3.38-3.39,1.76-5.17-1.12-7.07-1.92-1.27-4.12-2.18-5.89-3.62-3.68-2.99-5.93-6.75-4.19-11.67,1.68-4.75,5.38-6.83,10.3-6.99,10.98-.36,20.85,10.35,20.83,22.61Z" style="fill: #000; stroke-width: 0px;"/>
  <path d="M471.86,241.86c0-11.52,5.7-19.87,14.23-22.31,4.95-1.42,9.69.05,11.62,3.86,2.31,4.57.73,8.42-3.1,11.17-3.64,2.61-4.11,5.95-3.32,9.83.63,3.12,2.02,6.21,2,9.31-.02,2.68-.81,6.54-2.63,7.69-1.88,1.18-6,.62-8.13-.75-7.19-4.62-10.5-11.72-10.66-18.8Z" style="fill: #000; stroke-width: 0px;"/>
  <path d="M427.85,242.25c-.34,6.53-3.29,13.32-9.84,17.75-2.39,1.61-6.48,2.4-9.12,1.53-3.76-1.24-3.36-5.32-2.51-8.77.63-2.58,1.36-5.14,1.92-7.74.91-4.24.54-7.86-3.54-10.75-3.62-2.56-5.23-6.45-2.79-10.74,2.45-4.3,6.49-5.22,11.06-4.11,8.87,2.15,15.12,11.24,14.82,22.83Z" style="fill: #000; stroke-width: 0px;"/>
  <path d="M802.57,407.81c-.04,12.42-9.3,21.05-20.84,19.76-2.19-.24-5.51-2.36-5.84-4.08-.4-2.11,1.57-4.85,2.96-7.05.67-1.07,2.39-1.44,3.55-2.24,2.36-1.64,2.88-3.51.48-5.59-.4-.35-.82-.68-1.21-1.04-5.78-5.32-6.71-10.66-2.64-15.18,3.98-4.42,11.73-4.43,16.83.07,4.85,4.28,6.47,9.97,6.71,15.35Z" style="fill: #000; stroke-width: 0px;"/>
  <path d="M116.86,428.84c-9.19-1.36-15.98-5.99-18.57-13.23-2.76-7.73-.3-18.08,5.49-23.1,5.52-4.79,13.97-4.5,17.6.6,3,4.21,2.03,9.49-2.52,13.78-4.98,4.7-4.98,5.26.71,8.71,3.12,1.89,6.05,4.36,4.17,8.01-1.19,2.31-4.51,3.53-6.88,5.24Z" style="fill: #000; stroke-width: 0px;"/>
  <path d="M374.1,833.75c-11.92-.59-21.55-11.32-20.15-22.91.62-5.15,4.13-8.92,8.72-9.35,4.68-.45,8.42,2.52,9.91,7.86,1.99,7.11,2.19,7.23,9.81,6.68,4.37-.31,9.6-1.71,11.15,4.19,1.5,5.7-3.53,7.67-7.45,9.5-3.8,1.77-7.98,2.72-11.99,4.03Z" style="fill: #000; stroke-width: 0px;"/>
  <path d="M517.11,816.01c7.77.62,7.88.54,10.05-6.96,1.43-4.93,5.14-7.87,9.58-7.59,4.58.29,8.23,4.01,8.92,9.09,1.7,12.42-9.02,23.85-21.58,22.27-4.76-.6-9.38-2.93-13.84-4.94-3.28-1.48-5.97-4.61-3.96-8.04,1.25-2.13,4.97-2.91,7.68-4.03.87-.36,2.09.11,3.15.21Z" style="fill: #000; stroke-width: 0px;"/>
  <path d="M429.19,177.74c-2.2,7.27-4.05,14.67-6.83,21.71-.74,1.88-4.7,4-6.52,3.52-1.84-.49-3.79-3.98-4.03-6.32-.5-4.9.62-9.98.05-14.86-.3-2.52-2.31-5.47-4.43-7.02-3.64-2.66-6.34-5.4-5.1-10.09,1.26-4.78,4.98-6.71,9.65-6.92,9.71-.44,16.27,7.6,17.2,19.99Z" style="fill: #000; stroke-width: 0px;"/>
  <path d="M470.11,176.12c2.28-4.73,3.92-10.06,7.1-14.2,3.51-4.58,9.29-5.63,14.53-3.13,2.48,1.18,5.05,4.36,5.49,6.98.39,2.33-1.43,6.56-3.43,7.49-6.16,2.89-6.53,7.83-6.41,13.29.07,3.37.91,6.84.35,10.08-.42,2.4-2.5,6.27-3.93,6.32-2.31.07-6.04-1.96-6.83-4-2.73-7.05-4.45-14.49-6.86-22.83Z" style="fill: #000; stroke-width: 0px;"/>
  <path d="M781.54,449.13c-1.12-2.17-2.81-4-2.87-5.88-.1-3.13-.17-7.26,1.65-9.18,1.82-1.93,6.24-2.83,9.02-2.15,9.38,2.28,15.2,15.17,11.57,24.23-3.47,8.67-13.5,12.03-22.9,7.03-2.52-1.34-5.09-4.62-5.54-7.36-.61-3.67,3-5.13,6.39-5.74.82-.15,1.58-.55,2.67-.95Z" style="fill: #000; stroke-width: 0px;"/>
  <path d="M821.33,451.85c-2.7-1.88-6.39-3.2-7.84-5.78-2-3.55.95-6.29,4.27-7.84,2.97-1.39,2.73-3.03,1.14-5.45-5.07-7.68-4.97-12.79.08-16.3,5.08-3.53,13.06-1.23,17.51,5.3,4.33,6.35,5.25,13.18,1.56,20.14-3.34,6.31-9.08,8.64-16.71,9.92Z" style="fill: #000; stroke-width: 0px;"/>
  <path d="M118.12,449.14c1.28.43,2.44.5,3.16,1.11,2.11,1.79,5.5,3.67,5.66,5.73.17,2.19-2.28,5.47-4.48,6.77-5.97,3.53-12.49,4.2-18.53-.11-5.27-3.76-7.17-9.24-5.99-15.47,1.37-7.22,5.23-13.09,12.46-15.22,2.67-.79,7.16.22,8.97,2.15,1.81,1.93,1.75,6.04,1.65,9.17-.06,1.87-1.76,3.69-2.9,5.88Z" style="fill: #000; stroke-width: 0px;"/>
  <path d="M78.78,436.22c2.1,1.31,3.96,1.93,4.95,3.23,1.29,1.69,2.82,4.07,2.52,5.87-.3,1.79-2.44,4-4.27,4.7-8.77,3.32-19.26-2.49-21.86-11.75-2.75-9.76,3.57-21.85,12.7-22.95,3.17-.38,7.9,1.07,9.67,3.4,1.77,2.33,1.31,6.89.73,10.29-.41,2.39-2.66,4.46-4.43,7.21Z" style="fill: #000; stroke-width: 0px;"/>
  <path d="M357.31,74.49c12.71.92,25.14,14.37,23.72,26.55-.22,1.91-2.03,4.64-3.65,5.11-1.94.57-5.04-.22-6.63-1.6-2.9-2.52-4.99-5.97-7.55-8.92-3.05-3.51-6.34-5.21-11.17-2.62-3.95,2.12-8.29,1.67-10.58-2.8-2.17-4.25-.67-8.32,3.29-10.58,3.9-2.22,8.36-3.48,12.57-5.16Z" style="fill: #000; stroke-width: 0px;"/>
  <path d="M542.44,74.29c4.45,1.97,9.2,3.47,13.26,6.06,3.6,2.3,4.76,6.37,2.36,10.34-2.3,3.81-6.33,4.49-9.84,2.54-5.8-3.23-9.38-.53-12.81,3.55-2.18,2.58-3.94,5.64-6.5,7.73-1.66,1.35-4.8,2.34-6.59,1.67-1.77-.67-3.65-3.56-3.79-5.6-.87-12.27,11.35-25.16,23.92-26.29Z" style="fill: #000; stroke-width: 0px;"/>
  <path d="M329.16,451.62c-2.97-2.1-6.89-3.61-8.69-6.45-2.5-3.94.49-7.4,3.8-9.9,3.65-2.77,5.32-6.04,5.33-10.88,0-2.63,2.18-6.5,4.43-7.56,2.51-1.18,6.69-.72,9.32.63,4.96,2.56,6.77,7.57,6.6,13.09-.33,10.8-9.46,19.84-20.78,21.08Z" style="fill: #000; stroke-width: 0px;"/>
  <path d="M549.81,428.19c0-3.61,1.99-8.19,6.77-11.18,6.37-3.99,13.79-.3,13.59,7.17-.14,5.1,1.78,8.43,5.49,11.31,3.16,2.45,5.29,5.48,3.72,9.65-1.54,4.11-5.18,5.04-9.1,5.19-10.85.41-20.37-9.02-20.47-22.14Z" style="fill: #000; stroke-width: 0px;"/>
  <path d="M812.54,281.75c-.59-.05-2.3.29-3.35-.39-2.19-1.4-5.08-3-5.76-5.14-1.09-3.39,1.76-5.28,4.93-6.34,8.17-2.72,8.15-2.76,7.21-11.42-.73-6.75,2.08-11.44,7.35-12.25,5.63-.86,10.14,2.81,11.47,9.34,2.92,14.25-6.71,26.24-21.85,26.19Z" style="fill: #000; stroke-width: 0px;"/>
  <path d="M86.93,281.76c-15.84,0-26-14.34-21.02-28.41,1.88-5.3,6.56-8.14,11.57-6.99,4.44,1.01,7.19,5.22,6.84,10.62-.09,1.4-.35,2.82-.71,4.18-1.22,4.59.67,7.12,5.13,8.07,1.04.22,2.37.26,3.01.92,1.7,1.76,4.55,4.08,4.25,5.68-.39,2.11-3.16,4.02-5.28,5.46-1.16.78-3.09.4-3.8.47Z" style="fill: #000; stroke-width: 0px;"/>
  <path d="M404.95,108.86c12.49.8,22.86,14.04,20.05,25.95-1.18,4.99-6.5,7.41-10.2,3.9-5.39-5.12-11.19-8.6-18.37-10.87-6.37-2.01-7.01-10.64-1.48-14.69,2.85-2.09,6.63-2.9,10-4.29Z" style="fill: #000; stroke-width: 0px;"/>
  <path d="M473.19,132.08c1.71-13.5,10.87-23,22.16-22.33,2.41.14,4.92.84,7.12,1.85,3.85,1.77,6.06,4.93,5.74,9.33-.32,4.49-3.1,7.33-7.3,7.98-5.83.9-9.82,4.27-14.04,7.94-2.06,1.79-6.07,3.31-8.24,2.47-2.39-.93-3.68-4.7-5.45-7.23Z" style="fill: #000; stroke-width: 0px;"/>
  <path d="M745.67,440.02c-.91-.59-4.14-1.57-5.11-3.62-.96-2.04.38-5.15.65-7.8.22-2.19,1.1-4.69.36-6.51-1.69-4.17-2.04-7.87,1.03-11.41,3.16-3.64,7.15-4.29,11.61-2.97,7.31,2.16,12.23,10.03,11.16,17.86-1.13,8.28-8.59,14.33-19.71,14.45Z" style="fill: #000; stroke-width: 0px;"/>
  <path d="M134.17,423.14c.07-7.51,5.46-14.86,12.65-15.49,3.39-.3,8.12,1.07,10.21,3.46,1.89,2.16,1.98,7,1.11,10.17-.85,3.12-1.53,5.15.63,8.09,3.22,4.4.87,9.41-4.37,10.49-10.02,2.07-20.32-6.45-20.23-16.71Z" style="fill: #000; stroke-width: 0px;"/>
  <path d="M374.82,384.88c-.1,8.48-7.31,18.68-15.63,20.96-2.45.67-6.35-.02-8.04-1.67-1.44-1.42-1.02-5.13-.75-7.76.16-1.63,1.99-3.05,2.32-4.71.47-2.39.97-5.17.18-7.32-1.33-3.61-2.41-7.41.67-9.84,2.62-2.07,6.62-3.64,9.87-3.42,6.93.45,11.46,6.61,11.38,13.76Z" style="fill: #000; stroke-width: 0px;"/>
  <path d="M524.86,384.85c.03-8.02,5.9-14.19,13.47-14.18,7.15.01,11.75,6.32,8.67,12.66-1.82,3.75-1.56,6.64.62,9.83.79,1.16,1.87,2.52,1.84,3.76-.06,2.64.06,5.99-1.43,7.69-1.3,1.49-4.93,1.97-7.17,1.42-8.22-2.01-16.03-12.76-16-21.18Z" style="fill: #000; stroke-width: 0px;"/>
  <path d="M450,811.09c-7.28.23-13.07-2.66-16.03-9.2-1.17-2.6-1.16-7.11.4-9.18,1.56-2.07,6.02-3.49,8.67-2.88,4.65,1.07,8.72,1.12,13.4.06,2.77-.62,7.31.94,9.04,3.13,1.53,1.92,1.29,6.54.07,9.13-2.96,6.27-8.61,9.11-15.56,8.94Z" style="fill: #000; stroke-width: 0px;"/>
  <path d="M215.24,500.12c-.09-9.21,8.84-16.81,17.93-15.2,4.39.78,7.58,3.26,8.75,7.59,1.21,4.48-.66,8.15-4.46,10.5-2.64,1.63-3.94,3.26-4,6.64-.07,4.4-4.43,6.51-8.61,4.78-5.33-2.21-9.56-8.49-9.62-14.3Z" style="fill: #000; stroke-width: 0px;"/>
  <path d="M684.42,500.91c-.27,5.77-3.73,10.44-9.5,13.36-4.3,2.18-8.68-.16-8.74-4.95-.04-3.22-1.33-4.7-3.76-6.22-4.03-2.53-5.62-6.38-4.34-11.01,1.29-4.68,4.89-6.81,9.47-7.28,8.92-.92,16.94,6.35,16.88,16.09Z" style="fill: #000; stroke-width: 0px;"/>
  <path d="M732.77,755.12c-7.11-.58-13.05-3.2-15.85-9.97-.91-2.19-.67-6.09.75-7.66,1.41-1.56,5.45-2.27,7.5-1.4,4.77,2.03,8.92,2.46,13.69.08,3.51-1.74,7.08-.71,9.36,2.71,2.27,3.4,1.6,6.82-.91,9.82-3.79,4.54-8.9,6.22-14.54,6.41Z" style="fill: #000; stroke-width: 0px;"/>
  <path d="M165.49,756.4c-4.43-2.6-9.22-4.75-13.16-7.95-2.93-2.38-3.16-6.35-.85-9.71,2.34-3.4,5.95-4.3,9.41-2.53,4.79,2.45,8.94,1.87,13.66-.21,1.94-.85,5.85-.26,7.1,1.2,1.45,1.69,1.88,5.32,1.17,7.62-1.92,6.21-9.24,10.37-16.54,10.24-.26.45-.52.9-.78,1.34Z" style="fill: #000; stroke-width: 0px;"/>
  <path d="M181.75,491.31c.2-4.54,2.78-8.34,7.51-10.58,4.69-2.22,9.4-2.02,13.66.99,5.06,3.58,5.29,9.66,1.12,14.38-1.51,1.71-2.71,3.97-3.31,6.17-1.05,3.87-3.3,5.34-7.05,4.58-6-1.22-12.03-8.78-11.93-15.55Z" style="fill: #000; stroke-width: 0px;"/>
  <path d="M606.39,469.37c-6.48.07-13.66-4.98-15.23-11.31-.49-1.96-.12-5.09,1.16-6.28,1.48-1.37,4.73-2.12,6.62-1.45,3.32,1.18,5.26.46,8.11-1.38,2.42-1.55,7-2.42,9.07-1.11,2.38,1.5,4.22,5.72,4.2,8.76-.03,7.08-6.76,12.7-13.93,12.77Z" style="fill: #000; stroke-width: 0px;"/>
  <path d="M717.9,492.01c.08,6.14-6.37,13.97-12.4,14.94-3.52.56-5.66-.83-6.64-4.45-.6-2.21-1.6-4.56-3.1-6.22-4.85-5.37-3.42-12.9,3.26-15.77,8.82-3.79,18.76,2.27,18.88,11.51Z" style="fill: #000; stroke-width: 0px;"/>
  <path d="M293.23,469.38c-7.06-.08-13.83-5.73-13.9-12.77-.03-3.02,1.83-7.23,4.2-8.74,2.06-1.31,6.64-.48,9.05,1.05,2.84,1.81,4.78,2.56,8.09,1.41,1.88-.66,5.12.1,6.59,1.47,1.28,1.2,1.64,4.31,1.16,6.28-1.53,6.32-8.69,11.37-15.18,11.3Z" style="fill: #000; stroke-width: 0px;"/>
  <path d="M704.27,675.89c-7.81-.51-13.37-4.73-17.58-10.67-1.04-1.46-1.08-4.96-.03-6.24,1.26-1.54,4.15-2.17,6.41-2.35,3.6-.28,7.33.67,10.86.13,6.68-1.01,11.39,1.16,12.48,6.56,1.11,5.48-2.57,10.71-8.56,12.1-1.2.28-2.45.33-3.57.47Z" style="fill: #000; stroke-width: 0px;"/>
  <path d="M193.77,675.96c-1.62-.73-4.82-1.54-7.22-3.4-3.53-2.73-4.56-6.74-2.72-11.01,1.8-4.17,5.37-5.25,9.61-5.14,4.51.12,9.04-.22,13.52.13,2.08.16,4.89.93,5.89,2.42,1,1.49,1.03,4.83,0,6.31-4.21,5.99-9.79,10.21-19.08,10.68Z" style="fill: #000; stroke-width: 0px;"/>
  <path d="M684.55,746.74c-4.92-2.01-9.26-3.18-12.87-5.5-1.71-1.1-3.02-4.58-2.63-6.63.33-1.71,3.2-3.46,5.29-4.18,4.26-1.48,8.77-2.2,13.13-3.38,3.92-1.06,7.48-.85,9.97,2.73,2.61,3.76,2.12,7.91-1.16,10.57-3.39,2.74-7.75,4.3-11.74,6.4Z" style="fill: #000; stroke-width: 0px;"/>
  <path d="M214.71,746.76c-3.97-2.19-8.11-3.79-11.38-6.48-3.14-2.58-3.43-6.59-1.26-10.22,2.28-3.82,5.89-4.1,9.83-3.09,4.57,1.16,9.27,1.95,13.69,3.53,2.04.73,4.62,2.69,5.02,4.52.41,1.85-.99,5.2-2.62,6.18-3.85,2.3-8.31,3.57-13.28,5.57Z" style="fill: #000; stroke-width: 0px;"/>
  <path d="M313.67,422.23c-1.15,11.03-11.67,18.1-20.88,14.08-4-1.75-6.15-4.8-5.54-9.26.61-4.51,3.82-5.87,7.91-6.39,1.89-.24,3.67-1.4,5.49-2.17,2.56-1.08,5.6-3.59,7.54-2.92,2.32.8,3.69,4.32,5.48,6.67Z" style="fill: #000; stroke-width: 0px;"/>
  <path d="M601.31,437.4c-8.63-.08-15.71-8.04-14.01-16.38.45-2.2,2.55-4.95,4.53-5.67,1.66-.6,4.31,1.28,6.41,2.29,1.78.86,3.29,2.71,5.09,2.98,6.46.95,9.47,3.25,9.35,7.91-.12,4.57-4.2,8.25-9.78,8.79-.53.05-1.06.05-1.6.07Z" style="fill: #000; stroke-width: 0px;"/>
  <path d="M741.78,491.01c7.17.11,12.15,3.78,13.97,8.75,1.91,5.2.62,9.87-2.96,13.81-3.12,3.44-7.22,2.48-9.55-1.57-1.16-2.02-2.84-3.86-4.63-5.38-3.18-2.7-5.14-6.14-3.09-9.77,1.6-2.83,4.94-4.67,6.25-5.83Z" style="fill: #000; stroke-width: 0px;"/>
  <path d="M143.05,505.9c.03-7.75,4.72-13.5,10.7-14.63,4.47-.84,8.28.43,10.23,4.72,1.95,4.3.37,7.84-3.22,10.76-1.68,1.37-3.32,3.05-4.35,4.93-2.51,4.63-7.03,5.5-10.1,1.29-1.8-2.47-2.63-5.65-3.27-7.08Z" style="fill: #000; stroke-width: 0px;"/>
  <path d="M335.19,401.11c-.1,8.76-7.73,15.24-15.3,12.67-2.66-.91-5.33-3.98-6.45-6.7-1.43-3.47,1.03-6.31,4.21-8.19,1.62-.96,3.1-2.15,4.68-3.18,2.31-1.5,5.56-4.69,6.79-4.05,2.52,1.31,4.04,4.64,5.81,7.25.43.64.21,1.72.25,2.18Z" style="fill: #000; stroke-width: 0px;"/>
  <path d="M577.07,414.34c-4.67-.12-8.45-2.08-10.83-6.27-2.55-4.49-2.55-9.19-.03-13.65,2.4-4.26,6.89-4.34,10.01-.58,1.4,1.69,2.93,3.49,4.79,4.51,3.83,2.09,6.24,4.8,5.21,9.31-1.06,4.65-4.56,6.42-9.15,6.68Z" style="fill: #000; stroke-width: 0px;"/>
  <path d="M470.7,737.99c.72-.16,2.94-.7,5.19-1.11,3.68-.67,7.47.12,8.35,3.81.67,2.81.04,6.97-1.72,9.13-5.29,6.46-17.08,4.45-20.9-3.07-2.62-5.15.69-9.04,9.08-8.76Z" style="fill: #000; stroke-width: 0px;"/>
  <path d="M426.49,755.07c-3.97-2.14-7.71-3.04-9.48-5.42-1.67-2.24-2.48-6.59-1.39-8.97.94-2.06,4.99-3.28,7.84-3.71,3.03-.45,6.25.52,9.4.79,5.25.45,8.06,5.56,4.57,9.5-2.84,3.2-7.09,5.15-10.94,7.8Z" style="fill: #000; stroke-width: 0px;"/>
  <path d="M263.96,437.57c-5.44-.06-9.2-3.02-9.61-7.19-.4-4.11,2.32-7.33,7.23-8.38,2.59-.56,5.27-1.47,7.82-1.25,2.21.19,5.17,1.19,6.22,2.83,1.06,1.67.96,4.94.02,6.85-2.36,4.84-6.8,6.99-11.69,7.14Z" style="fill: #000; stroke-width: 0px;"/>
  <path d="M635.53,437.56c-4.74-.1-9.14-2.33-11.54-7.11-.95-1.9-1.09-5.18-.03-6.84,1.04-1.65,4-2.65,6.21-2.85,2.56-.22,5.23.67,7.83,1.21,4.92,1.02,7.63,4.21,7.22,8.37-.42,4.33-3.95,7.15-9.69,7.23Z" style="fill: #000; stroke-width: 0px;"/>
  <path d="M236.17,657.25c-1.76-.86-4.91-1.77-7.27-3.67-3.52-2.82-4.62-6.86-1.97-10.87,2.73-4.12,6.65-4.16,10.75-2,1.41.74,2.73,1.67,4.19,2.28,3.31,1.37,6.21,3.17,5.71,7.27-.55,4.48-4.15,5.78-7.94,6.61-.69.15-1.4.16-3.47.39Z" style="fill: #000; stroke-width: 0px;"/>
  <path d="M661.39,657.45c-2.27-.89-4.72-1.3-6.41-2.66-1.47-1.19-2.98-3.48-2.91-5.23.26-6.76,6.94-6.84,11.1-9.07,2.1-1.13,6.5-.36,8.52,1.24,4.49,3.55,2.36,10.92-3.66,13.82-2.01.97-4.35,1.27-6.64,1.9Z" style="fill: #000; stroke-width: 0px;"/>
  <path d="M369.5,628.11c-.1-14.63,11.68-23.5,24.24-18.32,5.23,2.16,9.56,6.93,13.68,11.13,1.22,1.24,1.25,5.24.15,6.75-1.27,1.73-4.33,2.36-6.74,2.95-1.23.3-2.77-.44-4.1-.91-5.08-1.8-9.27-2.66-11.36,4.43-1.16,3.94-5.37,5.15-9.37,3.94-5.36-1.61-6.37-6.13-6.48-9.97Z" style="fill: #000; stroke-width: 0px;"/>
  <path d="M530.26,627.19c-.14,4.35-1.09,8.83-6.26,10.79-4.38,1.66-8.98-.36-10.55-5.43-1.42-4.57-3.87-4.79-7.59-3.67-2.54.77-5.13,1.62-7.75,1.84-5.28.44-8.36-3.76-6.66-8.68,3.88-11.24,21.13-17.3,30.92-10.82,5.52,3.65,7.71,9.06,7.9,15.98Z" style="fill: #000; stroke-width: 0px;"/>
  <path d="M337.93,625.07c8.33.11,15.01,3.67,20.44,9.8,2.28,2.57,3.97,5.98.94,8.39-1.74,1.38-5.77,1.46-7.97.42-9.61-4.56-12.68-3.97-18.82,5.06-2.58,3.79-6.06,5.62-10.5,4.09-4.22-1.46-5.73-5-5.62-9.29.28-10.35,9.81-18.52,21.51-18.45Z" style="fill: #000; stroke-width: 0px;"/>
  <path d="M561.92,625.08c10.84.02,19.74,6.95,21.11,16.54.68,4.79-.39,8.96-5.18,11.11-4.15,1.86-8.46-.25-11.42-5.21-4.12-6.92-9.44-8.42-16.52-4.65-.78.42-1.54,1.33-2.28,1.29-2.58-.12-6.31.32-7.41-1.12-1.16-1.53-.75-5.67.59-7.44,5.19-6.83,12.34-10.47,21.1-10.53Z" style="fill: #000; stroke-width: 0px;"/>
  <path d="M472.29,621.21c-8.35,0-17.32-6.14-17.36-11.87-.04-5.61,6.03-10.41,13.19-10.42,7.76-.02,14.57,5.85,14.57,12.57,0,5.62-4.4,9.73-10.4,9.73Z" style="fill: #000; stroke-width: 0px;"/>
  <path d="M427.05,622.62c-3.27-2.39-6.73-3.96-8.76-6.63-2.59-3.39-1.57-7.44.93-10.87,5.42-7.43,16.73-8.38,22.89-1.94,3.65,3.81,3.96,9.26-.21,12.11-4.26,2.91-9.31,4.67-14.86,7.33Z" style="fill: #000; stroke-width: 0px;"/>
</svg>