<?xml version="1.0" encoding="UTF-8"?>
<svg id="Layer_1" data-name="Layer 1" xmlns="http://www.w3.org/2000/svg" viewBox="0 0 580.19 900">
  <path d="M575.25,159.68c-1.15,16.84-3.4,33.51-10.28,49.22-.82,1.88-.15,3.07.91,4.56,7.36,10.34,12.82,21.58,14.09,34.35,1.9,19.13-8.73,38.32-25.99,47.31-2.89,1.51-4.2,3.39-4.7,6.55-2.68,16.96-6.88,33.69-7.16,51-.05,2.97-.67,5.92-.96,8.88-1.63,16.93-9.74,30.65-21.17,42.7-5.88,6.2-12.08,12.09-17.83,18.4-8.87,9.76-14.69,21.15-17.08,34.21-1.7,9.28-3.56,18.53-5.22,27.81-.21,1.16.34,2.48.65,3.7,1.95,7.67,5.04,15.26,5.57,23.02.45,6.61,2.39,12.02,5.11,17.86,5.35,11.5,10.41,23.24,14.16,35.33,5.74,18.49,10.52,37.31,12.75,56.62,3.05,26.49.73,52.78-3.47,78.95-2.18,13.6-5.41,26.96-12.37,38.99-3.32,5.72-7.57,10.92-11.6,16.21-3.8,4.98-6.17,10.13-6.85,16.68-1.56,15.06-9.19,27.47-19.32,38.46-7.68,8.33-16.66,13.99-28.29,14.88-1.46.11-3.3,1.55-4.11,2.89-9.98,16.44-23.04,30.14-37.94,42.04-16.61,13.27-35.25,14.77-54.83,7.62-2.7-.99-4.25-.55-6.25,1.36-4.08,3.9-8.17,7.94-12.82,11.07-22.39,15.09-48.48,12.02-68.39-6.14-2.05-1.87-3.84-4.06-6.03-5.75-.97-.75-2.83-1.23-3.91-.82-23.36,8.8-44.09,4.6-62.22-12.46-12.03-11.32-23.67-22.98-32.06-37.44-.65-1.12-2.27-2.29-3.5-2.36-15.33-.97-25.51-10.14-34.16-21.49-8.22-10.78-13.82-22.69-14.38-36.58-.08-1.88-.92-3.89-1.91-5.54-1.78-2.97-3.72-5.92-5.99-8.52-9.87-11.26-16.12-24.35-19.31-38.83-7.31-33.12-10.81-66.6-5.4-100.3,4.21-26.21,10.53-52.01,21.52-76.38,2.24-4.97,5.12-9.64,7.51-14.55.88-1.81,1.79-3.96,1.65-5.87-.79-10.14,2.46-19.4,5.6-28.73.56-1.67.71-3.65.42-5.39-1.31-8.04-2.93-16.02-4.25-24.05-2.68-16.29-10.39-29.86-22.02-41.37-4.24-4.19-8.37-8.49-12.59-12.69-14.55-14.48-22.32-32-22.88-52.49-.49-17.9-4.66-35.22-7.68-52.72-.23-1.36-1.3-3.03-2.47-3.71C1.08,280.65-6.99,255.23,6.26,227.25c2.36-4.99,5.67-9.53,8.33-14.39.6-1.09.79-2.87.34-4.01-8.47-21.89-12.16-44.34-8.4-67.75,1.55-9.6,2.34-19.35,5.98-28.51,9.17-23.1,24.42-40.92,46.17-53.03,2.11-1.18,2.94-2.62,3-4.96.15-5.85,1.62-11.37,4.62-16.46,5.67-9.63,14.57-13.19,25.15-9.69,13.06,4.32,23.38,12.14,29.9,24.47,1.44,2.73,3.46,4.45,6.33,5.47,20.06,7.12,40.54,10.92,61.72,6.6,13.91-2.84,26.95-8.21,38.97-15.91,2.44-1.56,3.79-3.39,3.24-6.37-.14-.77,0-1.59-.09-2.38-3.07-26.87,26.23-47.42,51.84-37.98,4.71,1.74,8.71,1.53,13.41-.02,18.53-6.11,34.98.02,46.61,15.84,3.07,4.18,4.66,9,4.93,14.17.2,3.76-.13,7.57.23,11.31.16,1.65,1.01,3.86,2.28,4.67,17.29,11.03,35.89,18.44,56.72,18.39,15.52-.04,30.67-2.69,45.1-8.6,2.28-.93,4.66-2.89,5.85-5.02,5.82-10.36,14.07-17.8,24.87-22.67,16.8-7.57,30.7-.46,34.27,17.73.44,2.24.75,4.52.83,6.79.08,2.26,1.07,3.55,3.02,4.65,22.83,12.88,38.91,31.6,47.2,56.48,4.68,14.03,5.37,28.84,6.56,43.6ZM120.98,82.36c-.71-1.23-1.04-1.91-1.47-2.51-6.14-8.65-12.15-17.41-18.53-25.89-2.77-3.69-6.1-7.05-9.6-10.06-1.66-1.43-4.28-2.09-6.55-2.37-3.51-.42-5.05.93-5.26,4.48-.33,5.44-.2,10.91-.45,16.36-.16,3.35-.44,6.73-1.08,10.02-.56,2.9-1.98,5.51-5.26,6.22-3.31.71-5.57-1.15-7.27-3.6-1.37-1.97-2.62-1.83-4.09-.38-5.16,5.08-10.36,10.11-15.42,15.28-15.49,15.82-21.76,35.95-24.77,56.97-1.62,11.27-.49,23,.02,34.49.55,12.52,5.69,23.45,13.47,33.13,2.48,3.09,5.31,5.9,7.93,8.88,5.78,6.58,11.33,13.2,13.81,21.97,2.33,8.23,1.7,16.35.32,24.49-.4,2.33-1.81,4.63-3.26,6.56-.7.93-2.67,1.54-3.85,1.29-1.03-.22-1.92-1.76-2.56-2.9-.4-.71-.22-1.74-.28-2.64-.43-6.43-.5-12.92-1.44-19.27-.5-3.38-1.92-6.98-3.98-9.69-4.13-5.44-8.97-10.34-13.56-15.43-.69-.76-1.58-1.33-3.14-2.61-2.03,5.73-4.12,10.75-5.58,15.94-3.48,12.41.54,22.96,9.65,31.28,7.21,6.59,14.09,13.34,20.1,21.04,4.25,5.44,6.95,11.58,8.54,18.19.28,1.18-.56,3.41-1.52,3.9-.97.49-2.92-.3-4.08-1.08-1.08-.72-1.66-2.19-2.52-3.28-.73-.92-1.56-1.77-2.34-2.64-.41.85-.32,1.31-.23,1.78,1.86,9.13,4,18.22,5.49,27.41,1.16,7.14,1.12,14.48,2.3,21.62,3.45,20.86,14.26,36.82,32.95,46.99,6.53,3.55,13.4,6.52,20.27,9.38,15.43,6.43,24.38,17.95,26.44,34.34,1.27,10.11,1.9,20.39,1.74,30.57-.37,24.2-4.44,48.04-8.28,71.88-.08.49-.08,1.15-.39,1.4-.99.82-2.18,2.13-3.17,2.03-.99-.1-2.1-1.54-2.64-2.64-.43-.88-.13-2.14-.09-3.23.78-21.94,1.58-43.88,2.35-65.82.04-1.22-.12-2.45-.2-3.78-.66.11-1.02.06-1.2.22-7.87,6.66-12.96,14.92-14.53,25.22-.27,1.79.46,2.38,2.24,2.61,5.87.76,8.12,5.65,4.94,10.68-1.27,2.01-2.91,3.78-4.22,5.77-3.63,5.51-7.45,10.92-10.69,16.65-2.82,5-5.16,10.3-7.37,15.62-10.66,25.66-14.95,52.62-16.2,80.2-.79,17.42-.12,34.72,2.57,51.99,2.71,17.41,8.91,33.32,18.74,47.87,9.72,14.4,16.82,30.03,20.56,46.96,2.07,9.4,8,14.96,15.62,19.5.83.5,1.89.62,3.44,1.09-.42-1.72-.66-2.75-.93-3.77-3.1-11.91-4.67-24-3.82-36.3.21-3.12.97-6.29,2.05-9.23,1.32-3.6,4.89-5.42,8.32-4.9,3.38.51,6.01,3.39,6.31,7.31.19,2.46.02,4.96-.08,7.44-.5,12.74.82,25.24,5.3,37.23,7.4,19.8,21.44,34.25,38.66,45.59,11.6,7.64,24.14,8.08,36.35.73,8-4.81,15.87-9.83,23.7-14.91,2.39-1.55,4.67-3.4,6.59-5.5,2.84-3.1,6.34-4.34,10.32-4.61,2.64-.18,6.77,2.34,7.24,4.39.7,3.08-1.66,4.27-3.57,5.89-1.75,1.49-3.35,3.29-4.59,5.22-1.87,2.92-3.41,6.05-5.02,9.13-1.84,3.51-3.8,6.99-5.28,10.66-.45,1.1.05,3.47.93,4.09,7.16,4.97,14.49,9.71,21.82,14.42,1.66,1.06,3.06,1.23,4.17-1.23,1.51-3.33,6.65-3.36,8.18-.05,1.17,2.53,2.61,2.47,4.41,1.31,7.25-4.66,14.46-9.4,21.65-14.16,1.65-1.09,2.08-2.73,1.11-4.44-5.18-9.19-7.91-19.93-17.11-26.6-2.77-2.01-2.29-4.96.66-6.8,4.18-2.61,10.27-2.4,13.69,1.31,4.81,5.24,10.85,8.65,16.69,12.37,5.94,3.79,11.93,7.54,18.13,10.87,8.95,4.81,18.32,5.04,27.57.86,3.95-1.78,7.83-3.94,11.3-6.53,27.63-20.61,41.45-47.74,38.53-82.64-.12-1.38-.11-2.79.05-4.16.43-3.77,2.89-6.59,6.13-7.2,3.45-.64,6.91,1.07,8.46,4.64.97,2.24,1.68,4.7,1.94,7.13,1.39,13.01-.37,25.76-3.53,38.37-.29,1.16-.42,2.37-.78,4.46,8.18-4.04,15.3-8.36,17.38-16.69,4.93-19.7,12.79-37.93,24.1-54.8,7.3-10.89,12.38-22.87,14.95-35.81,7.67-38.79,5.61-77.29-3.61-115.53-3.84-15.92-9.92-31.02-18.13-45.21-1.37-2.36-3.45-4.29-5-6.56-1.56-2.27-2.82-4.75-4.32-7.07-1.18-1.83-2.73-3.46-3.73-5.37-2.33-4.46-.17-9.08,4.73-9.59,3.13-.33,3.27-1.77,2.8-4.12-1.87-9.42-6.69-17.11-13.79-23.45-.38-.34-.99-.41-1.87-.75,0,3.49-.09,6.63.01,9.76.7,20.45,1.44,40.9,2.17,61.35.07,2.1-.11,4.25-2.67,4.59-2.57.34-3.39-1.62-3.72-3.73-3.74-23.65-7.5-47.3-8.23-71.3-.39-12.74-.09-25.44,3.31-37.86,3.14-11.47,9.9-19.99,20.62-25.26,2.85-1.4,5.75-2.7,8.63-4.04,5.22-2.43,10.59-4.59,15.64-7.33,19.33-10.49,30.29-26.91,33.61-48.52.68-4.41,1.05-8.88,1.35-13.34.76-11.24,2.5-22.3,5.8-33.1.27-.89.43-1.82.64-2.73-.24-.13-.47-.27-.71-.4-1.42,1.83-2.88,3.64-4.25,5.5-1.16,1.57-2.56,2.68-4.54,1.84-2.05-.87-2.33-2.82-1.56-4.55,2.47-5.6,4.54-11.51,7.9-16.55,5.56-8.36,12.8-15.3,20.41-21.93,7.91-6.91,12.75-15.85,10.97-26.66-1.07-6.47-3.91-12.65-6.01-18.94-.16-.48-.73-.82-1.3-1.43-.93.85-1.78,1.51-2.49,2.29-3.67,4.04-7.19,8.23-11,12.14-4.29,4.41-6.68,9.45-6.85,15.68-.17,6.04-.59,12.09-1.28,18.09-.17,1.44-1.62,3.4-2.9,3.82-1.08.35-3.16-.86-4.1-1.97-1.24-1.45-2.21-3.41-2.57-5.29-2.61-13.73-2.05-26.97,7.1-38.52,3.33-4.2,6.86-8.24,10.47-12.2,9.59-10.54,16.43-22.38,17.83-36.88,1.96-20.36.97-40.46-5.29-60.07-6.23-19.52-18.98-34.38-34.03-47.63-2.21-1.94-3.48-1.94-5.43.5-4.03,5.03-9.79,4.02-11.49-2.16-1.14-4.13-1.18-8.59-1.45-12.92-.32-5.05-.3-10.11-.57-15.16-.14-2.6-1.84-4.2-4.33-3.88-2.57.33-5.67.75-7.42,2.35-4.13,3.77-7.87,8.06-11.28,12.52-5.42,7.09-10.43,14.49-15.62,21.75-.84,1.17-1.7,2.33-3.07,4.21,1.9-.25,2.92-.43,3.94-.51,8.49-.69,16.99-1.41,25.49-2,1.99-.14,3.93.51,4.26,2.84.36,2.51-1.44,3.47-3.51,4.03-13.71,3.72-27.36,7.66-41.14,11.09-20.36,5.07-40.96,6.8-61.73,2.73-19.36-3.79-37.42-10.75-53.04-23.09-8.67-6.84-15.5-15.15-18.14-26.2-.54-2.27-.87-4.84-.33-7.03.39-1.58,2.15-3.35,3.72-4,2.16-.89,3.98.67,5.09,2.62.53.93.69,2.07,1.13,3.06,1.06,2.39,2.18,4.74,3.65,7.93.91-1.79,1.51-2.59,1.74-3.49,1.32-5.18,3-10.32,3.71-15.59,1.04-7.71-7.02-18.17-14.8-19.02-9.76-1.06-19.6-1.81-29.41-1.88-8.71-.06-17.45.89-26.15,1.63-2.2.19-4.59.82-6.43,1.98-9.48,6-11.88,11.78-9.54,22.69.79,3.67,2.05,7.24,3.17,10.84.21.68.77,1.25,1.73,2.75,1.52-3.73,2.76-6.69,3.92-9.67,1.11-2.84,3.16-4.36,5.54-4.01,2.36.35,4.04,2.45,4.19,5.42.06,1.28.14,2.67-.27,3.84-1.54,4.38-2.79,8.95-5.03,12.96-4.95,8.88-12.5,15.39-21.07,20.64-28.36,17.36-59.14,23.76-91.79,17.75-19.29-3.55-38.17-9.34-57.23-14.14-.56-.14-1.13-.42-1.6-.77-2.14-1.59-1.85-4.49.63-5.48.98-.39,2.15-.54,3.21-.46,7.81.55,15.62,1.18,23.42,1.82,1.43.12,2.85.4,4.9.71Z" style="fill: #000; stroke-width: 0px;"/>
  <path d="M413.68,701.31c-.81,14.97-3.33,25.42-7.47,35.54-1.69,4.14-3.18,8.25-6.62,11.44-3.58,3.33-7.83,2.95-9.56-1.61-7.56-19.91-23.22-28.83-43.06-32.17-13.8-2.32-27.67-4.28-41.41-6.92-4.57-.88-8.82-3.4-13.26-5.03-1.18-.43-2.95-.94-3.79-.4-8.57,5.54-18.43,6.62-28.09,8.27-9.39,1.61-18.88,2.67-28.28,4.24-13.82,2.31-26.19,7.59-34.95,19.08-2.73,3.58-4.81,7.75-6.69,11.87-2.59,5.67-6.37,6.38-10.73,1.99-2.78-2.79-4.15-6.15-5.59-9.66-4.03-9.82-6.62-19.94-7.57-30.53-.84-9.35,2.52-16.54,9.95-22.24,11.27-8.66,23.9-14.11,37.75-16.84,10.81-2.13,21.69-3.93,32.51-6.02,3.57-.69,6.81-1.82,9.7-4.64,1.66-1.62,5.39-1.82,8.04-1.5,3.06.37,5.93,2.13,8.95,3.09,5.17,1.64,10.31,3.89,15.61,4.41,4.13.4,8.57-1.15,12.71-2.37,3.3-.97,6.26-3.13,9.57-4.05,3.06-.85,6.38-.86,9.6-1,.86-.04,2.1.58,2.58,1.29,2.32,3.45,6.01,4.09,9.58,4.78,9.07,1.75,18.17,3.31,27.26,4.92,15.56,2.76,30.11,7.9,42.75,17.78,6.68,5.22,10.9,11.5,10.5,16.29Z" style="fill: #000; stroke-width: 0px;"/>
  <path d="M439.31,260.26c-.64,20.32-6.13,39.14-16.23,56.55-2.94,5.07-7.15,9.45-11.12,13.84-2.69,2.98-6.43,3.51-10.44,3.06-9.68-1.09-18.18-5.03-25.77-10.85-9.23-7.09-18.58-13.88-29.11-19.01-5.33-2.6-10.4-5.81-15.38-9.06-5.09-3.32-7.54-8.39-6.54-14.34.83-4.93,2.13-9.99,4.31-14.45,7.69-15.7,15.89-31.13,23.8-46.72,3-5.92,5.95-11.9,8.51-18.02,6.94-16.62,18.95-21.91,35.45-14.62,22.68,10.03,35.39,28.14,40.11,52.06,1.39,7.07,1.63,14.37,2.4,21.56ZM420.56,253.35c1.39,0,2.78.03,4.17,0,3.99-.1,4.17-.14,3.66-4.06-2.73-20.95-14.2-36.36-31.1-48.13-2.27-1.58-5.26-2.39-8.03-2.95-5.63-1.13-13.45,1.78-15.52,5.99-3.19,6.49-5.96,13.2-8.81,19.85-.27.64-.14,1.9.32,2.33,3.33,3.09,6.51,6.47,10.27,8.96,6.69,4.43,13.64,8.49,20.67,12.35,7.54,4.15,15.75,5.92,24.37,5.67ZM427.65,265.21c-1.66.1-2.72.25-3.78.21-5.14-.17-10.31-.18-15.42-.67-4.23-.41-4.21-.67-4.62,3.42-1.18,11.86-4.81,22.71-13.15,31.57-1.46,1.55-.89,2.45.49,3.59,4.05,3.36,8.03,6.8,11.99,10.26,3.32,2.9,3.68,2.99,5.91-.76,8-13.49,14.21-27.73,17.87-43.03.32-1.32.42-2.69.71-4.6ZM361.14,233.3c-2.02,3.67-4.47,7.73-6.56,11.96-4.84,9.77-9.52,19.63-14.26,29.46-.9,1.87-.64,3.13,1.63,3.79,3.81,1.11,7.58,2.35,11.31,3.71,2.68.98,3.85.07,4.82-2.52,4.05-10.81,8.49-21.43,16.86-29.84.44-.44.39-2.11-.07-2.59-4.47-4.7-9.08-9.27-13.73-13.97Z" style="fill: #000; stroke-width: 0px;"/>
  <path d="M141.31,260.1c-.45-20.67,4.25-38.89,16.85-54.58,7.85-9.77,17.74-16.79,29.7-20.54,12.83-4.02,23.59.17,28.75,12.18,9.79,22.77,22.77,43.89,33.3,66.26,2.6,5.51,5.05,11.02,5.51,17.2.51,6.82-2.71,11.88-8.56,15.39-14.01,8.41-28.93,15.33-41.57,26.02-7.52,6.36-16.36,10.42-26.36,11.64-4.48.55-8.17-.44-11.52-3.45-6.8-6.12-11.31-13.8-15.04-21.98-7.09-15.55-11.42-31.76-11.07-48.14ZM159.47,253.41c8.51.17,16.55-1.67,24.12-5.56,10.87-5.59,21.6-11.33,30.09-20.49,1.49-1.6,1.92-2.58,1.07-4.47-2.57-5.69-5.04-11.43-7.55-17.16-1.26-2.88-3.43-4.69-6.3-5.97-8.6-3.84-16.02-1.09-22.64,4.33-7.22,5.91-13.65,12.61-18.17,20.99-3.4,6.31-7.07,12.51-7.98,19.74-1.3,10.32-1.54,8.2,7.08,8.59.1,0,.2,0,.3,0ZM154.55,266.06c-.03-.27-.05-.54-.08-.81-2.65-.27-2.03,1.5-1.71,2.91,3.59,16.24,10.15,31.26,18.78,45.41,1.79,2.93,2.23,2.84,4.72.66,4.1-3.59,8.16-7.23,12.41-10.64,1.93-1.55,1.81-2.57.24-4.26-5.12-5.45-8.64-11.89-10.45-19.12-1.13-4.5-1.7-9.14-2.42-13.74-.23-1.48-.47-2.32-2.34-2.13-6.37.67-12.77,1.15-19.15,1.7ZM218.89,233.15c-4.66,4.77-9.02,9.33-13.51,13.75-1.28,1.26-1.29,1.9-.14,3.35,3.3,4.18,6.72,8.37,9.31,12.99,2.89,5.17,5,10.78,7.3,16.26,1.56,3.72,1.46,3.81,5.42,2.56,3.5-1.11,6.93-2.45,10.47-3.4,2.71-.73,3.02-2.01,1.87-4.31-5.67-11.35-11.27-22.73-16.93-34.08-1.27-2.54-2.67-5.01-3.79-7.12Z" style="fill: #000; stroke-width: 0px;"/>
  <path d="M357.31,468.46c-1.16,6.11-1.59,12.47-3.62,18.27-4.58,13.05-19.63,17.27-30.72,9.05-1.64-1.22-2.89-1.2-4.54-.11-8.13,5.36-16.92,6.37-26.25,3.91-1.35-.36-2.96-.37-4.31,0-9.23,2.48-17.92,1.44-25.99-3.77-1.68-1.09-3.01-1.39-4.81-.04-10.46,7.87-24.67,4.59-29.95-7.45-2.17-4.95-3.34-10.74-3.36-16.15-.12-23.02,6.31-44.24,19.16-63.43,2.65-3.96,5.07-8.07,7.91-11.89,3.18-4.27,6.54-5.34,9.6-3.58,3.11,1.78,4.05,5.79,1.85,10.38-3.35,6.97-7.08,13.75-10.59,20.64-1.76,3.45-4.03,6.79-4.95,10.47-2.84,11.24-5.16,22.6-7.61,33.94-.29,1.33-.14,2.78-.07,4.16.23,4.54,2.15,5.88,6.66,4.97,2.3-.46,2.89-1.43,2.77-3.87-.17-3.49-.15-7.25.98-10.48,1.88-5.38,8.06-6.06,11.22-1.33,1.93,2.89,3.4,6.3,4.17,9.68,1.29,5.63,4.51,9.09,10.34,9.91,9.9,1.39,19.79,1.38,29.68,0,6.02-.84,9-4.24,10.38-10.17.82-3.54,2.58-7.09,4.72-10.05,2.77-3.84,7.98-3.08,10.36,1.1,1.96,3.45,2.08,7.21,1.46,11.01-.32,1.92-.54,3.46,2.01,4.05,3.66.86,5.84.46,6.65-1.94.49-1.47.79-3.15.63-4.68-1.78-16.97-4.63-33.58-13.74-48.55-3.75-6.16-6.6-12.88-9.73-19.41-.62-1.29-.79-2.87-.85-4.34-.09-2.44.83-4.5,3.15-5.63,2.41-1.17,4.71-.67,6.67.98,1.36,1.14,2.59,2.48,3.65,3.9,13.18,17.76,22.11,37.35,25.36,59.35.54,3.63.78,7.3,1.15,10.95.2.06.4.11.59.17Z" style="fill: #000; stroke-width: 0px;"/>
  <path d="M460.45,167.19c.05,7.94-2.88,14.54-5.89,20.97-2.19,4.67-7.8,5.94-12.66,3.26-2.82-1.55-5.58-3.59-7.68-6-6.77-7.76-15.21-11.86-25.35-12.88-4.84-.49-9.63-1.55-14.47-1.83-4.43-.26-8.92-.09-13.33.38-5.52.59-11.06,1.34-16.45,2.64-4.67,1.12-9.26,2.79-13.64,4.77-4.45,2.01-8.67,4.39-13.76,4.32-8.04-.12-13.37-5.17-12.71-13.18.55-6.58,1.8-13.19,3.6-19.55,2.18-7.72,7.64-13.24,14.63-16.9,5.11-2.67,10.94-2.95,16.21-.76,7.07,2.94,14.23,2.95,21.34,1.55,18.01-3.53,35.38-.19,52.66,4.25,4.87,1.25,9.64,3.14,14.2,5.3,7.39,3.49,11.16,9.87,12.6,17.71.39,2.14.51,4.33.69,5.96Z" style="fill: #000; stroke-width: 0px;"/>
  <path d="M119.56,170.72c.29-10.75,2.19-18.22,8.43-23.92,1.37-1.25,2.94-2.48,4.64-3.16,21.48-8.6,43.47-13.71,66.82-9.67,7.26,1.25,14.35.96,21.65-1.49,10.83-3.63,18.77-.28,26.25,9.37,2.71,3.49,4.38,7.99,5.73,12.27,1.33,4.22,1.83,8.74,2.41,13.16,1.39,10.5-5.59,17.26-15.98,15.17-3.71-.75-7.13-2.86-10.74-4.18-4.53-1.65-9.04-3.48-13.71-4.59-5.29-1.26-10.73-2.01-16.15-2.6-4.21-.46-8.53-.75-12.74-.4-6.42.54-12.79,1.67-19.17,2.6-7.55,1.09-13.88,4.47-19.12,10.05-2.23,2.38-4.61,4.7-7.24,6.6-7.4,5.35-14.32,2.95-17.06-5.78-1.65-5.26-3.18-10.56-4.04-13.42Z" style="fill: #000; stroke-width: 0px;"/>
  <path d="M464.18,654.91c.14,19.46-.53,33.92-5.55,47.81-2.36,6.53-5.73,12.44-10.94,17.16-1.68,1.52-3.48,2.98-5.8,1.48-2.19-1.42-1.69-3.57-1.06-5.64,5.47-17.79,8.68-35.9,7.58-54.6-.73-12.42-2.09-24.74-5.65-36.73-2.63-8.89-7.25-16.29-15.46-21.08-.17-.1-.32-.23-.49-.34-4.63-3.24-6.12-6.15-5.01-9.8,1.07-3.53,5.13-6.37,9.83-6.52,10.31-.34,17.19,5.24,22.26,13.48,4.86,7.89,6.39,16.87,7.46,25.86,1.33,11.23,2.21,22.52,2.82,28.93Z" style="fill: #000; stroke-width: 0px;"/>
  <path d="M115.95,657.56c.49-12.82,1.59-27.96,4.81-42.87,1.55-7.16,4.08-13.91,9.05-19.5,4.62-5.19,10.25-8.54,17.34-8.54,2.29,0,4.81.57,6.83,1.63,5.67,2.97,6.17,8.95,1.34,13.18-.6.52-1.2,1.06-1.89,1.44-9.31,5.23-14.19,13.66-16.68,23.63-5.87,23.53-7.26,47.24-2.17,71.1,1.3,6.11,3.02,12.13,4.58,18.19.55,2.11.99,4.24-1.24,5.59-2.21,1.34-3.94.04-5.55-1.44-6.3-5.76-9.85-13.12-12.22-21.12-3.77-12.71-4.47-25.77-4.2-41.29Z" style="fill: #000; stroke-width: 0px;"/>
  <path d="M79.3,318.68c1.24-6.49,2.12-13.08,3.82-19.45,1.41-5.26,4.67-7.34,8.18-6.47,3.44.85,4.69,3.82,3.83,9.36-1.86,11.96-2.4,23.83.62,35.75,4.09,16.13,12.98,28.11,28.51,34.74,6.11,2.61,12.23,5.21,18.35,7.81.91.39,1.85.73,2.77,1.08,1.99.75,3.74,1.83,3.2,4.29-.53,2.45-2.62,2.87-4.69,2.63-4.32-.51-8.76-.73-12.9-1.94-10.67-3.13-20.39-8.32-29.06-15.29-13-10.46-18.71-24.79-21-40.79-.55-3.82-.69-7.7-1.02-11.55-.2-.06-.41-.11-.61-.17Z" style="fill: #000; stroke-width: 0px;"/>
  <path d="M500.06,316.79c-.51,18.03-3.3,33.25-13.55,45.63-12.6,15.22-29.15,23.92-48.95,25.98-2.39.25-5.44.72-6.18-2.58-.75-3.36,2.27-3.89,4.53-4.83,6.23-2.6,12.44-5.26,18.69-7.81,18.49-7.54,27.6-22.1,30.93-41.07,1.6-9.13,1.1-18.21-.23-27.3-.27-1.87-.64-3.73-.77-5.61-.21-3.1,1.38-5.62,3.86-6.37,2.6-.79,5.37.14,6.85,2.89,1.35,2.51,2.55,5.23,3.08,8.01.97,5.05,1.39,10.2,1.75,13.06Z" style="fill: #000; stroke-width: 0px;"/>
  <path d="M64.67,160.15c.56-10.52,2.07-20.67,6.75-30.15,2.55-5.15,5.79-9.8,10.86-12.74,2.1-1.22,4.53-2.04,6.91-2.52,2.31-.46,4.31.65,5.33,2.93.96,2.15.48,4.22-1.23,5.72-16.36,14.28-16.82,33.06-14.32,52.34.68,5.22,3.85,10.12,5.91,15.16.37.91.95,1.74,1.42,2.62.96,1.77,1.56,3.63-.25,5.14-1.82,1.52-3.53.6-5.08-.69-6.83-5.68-11.93-12.59-13.87-21.35-1.2-5.4-1.65-10.96-2.43-16.44Z" style="fill: #000; stroke-width: 0px;"/>
  <path d="M515.54,159.97c-1.05,6.23-1.68,12.57-3.26,18.67-2.08,8.04-7.17,14.28-13.56,19.48-1.5,1.22-3.16,1.93-4.85.53-1.69-1.4-1.35-3.19-.39-4.86,3.99-6.91,7.68-13.94,8.42-22.08,1.13-12.35-.1-24.39-5.12-35.87-1.94-4.44-4.79-8.19-8.64-11.19-3.04-2.37-3.86-5.01-2.51-7.42,1.33-2.38,4.13-3.16,7.65-2.08,4.75,1.45,8.36,4.5,11.29,8.37,6.39,8.45,8.92,18.27,9.91,28.6.25,2.57.28,5.15.41,7.73.21.04.42.08.64.12Z" style="fill: #000; stroke-width: 0px;"/>
  <path d="M375.94,623.9c-.05.37.15,1.69-.4,2.47-1.08,1.52-2.4,3.54-3.95,3.87-1.54.33-3.6-.92-5.18-1.9-.9-.56-1.18-2.04-1.91-2.95-2.9-3.62-5.45-7.66-8.9-10.65-6.65-5.78-14.64-5.51-21.45.08-2.14,1.76-4.03,3.81-6.05,5.73-2.52,2.39-4.88,5-7.64,7.06-1.19.9-3.62,1.4-4.75.77-1.13-.63-2.03-2.98-1.86-4.45.96-8.2,5.24-14.64,11.5-19.83,13.44-11.16,32.13-10.24,43.58,2.11,4.32,4.66,7.01,11.17,7.01,17.68Z" style="fill: #000; stroke-width: 0px;"/>
  <path d="M233.77,596.04c15.33.38,29.8,12.22,32.27,26.62.38,2.23.68,4.49-1.63,5.84-2.33,1.36-4.19.08-5.83-1.51-3.34-3.25-6.62-6.57-9.97-9.81-9.4-9.11-19.44-8.76-28.07,1.15-2.2,2.52-3.93,5.46-5.72,8.31-1.96,3.13-4.12,4.46-6.69,3.78-2.5-.65-3.97-3.02-4.06-6.57-.32-11.62,8.95-23.1,21.51-26.43,2.66-.71,5.45-.94,8.18-1.39Z" style="fill: #000; stroke-width: 0px;"/>
  <path d="M358.61,804.25c-5.71.02-10.68-2.16-15.15-5.46-8.14-5.99-14.98-13.29-20.98-21.39-1.3-1.75-2.21-3.67-.79-5.75,1.41-2.06,3.62-2.25,5.61-1.38,3.96,1.74,8.01,3.47,11.58,5.87,4.1,2.75,7.61,6.36,11.55,9.37,8.75,6.67,15.57,4.79,20-5.38.59-1.36.88-2.85,1.42-4.23.88-2.24,2.47-3.65,5.01-3.4,2.55.25,3.78,1.98,4.22,4.33,2.39,12.69-9.7,27.44-22.46,27.42Z" style="fill: #000; stroke-width: 0px;"/>
  <path d="M221.76,804.89c-4.53-.59-8.48-1.79-11.91-4.38-7.29-5.52-10.81-13.02-11.06-22.06-.09-3.46,1.6-5.61,4.19-5.96,2.63-.36,4.23,1.35,5.67,4.63,1.45,3.3,3.19,6.62,5.49,9.35,3.09,3.66,6.85,4.21,11,1.78,3.57-2.09,6.77-4.81,10.1-7.3,3.49-2.61,6.77-5.53,10.44-7.85,2.29-1.45,5.05-2.4,7.72-2.9,1.47-.28,3.84.37,4.63,1.46.78,1.08.74,3.69-.07,4.84-6.95,9.89-14.92,18.87-25.62,24.84-3.19,1.78-7.03,2.41-10.57,3.57Z" style="fill: #000; stroke-width: 0px;"/>
  <path d="M179.88,507.22c-.79-10.96-1.12-21.99-2.55-32.87-.78-5.9-3.3-11.59-5.29-17.29-1.12-3.22-.92-5.78,1.21-7.27,2.11-1.47,5.28-1.31,7.18,1.34,2.5,3.49,4.77,7.33,6.2,11.36,3.18,8.98,3.92,18.47,3.89,27.91-.03,9.7-.49,19.44-1.41,29.1-.38,4.04-2.35,7.94-3.77,11.85-.65,1.78-2.18,3.4-4.07,2.51-1.28-.6-2.67-2.56-2.72-3.96-.26-7.53-.13-15.08-.13-22.62.49-.02.98-.04,1.47-.06Z" style="fill: #000; stroke-width: 0px;"/>
  <path d="M401.71,506.06c0,6.94.02,13.89-.01,20.83,0,1.38.14,2.92-.4,4.11-.54,1.19-1.71,2.61-2.85,2.87-.97.22-2.78-.78-3.33-1.75-1.32-2.3-2.4-4.83-3.06-7.4-.96-3.74-1.78-7.56-2.1-11.39-1.2-14.19-1.16-28.4,1.4-42.45.95-5.21,2.96-10.26,4.84-15.25.7-1.86,2.24-3.52,3.71-4.94,2.23-2.16,5.07-2.33,7.02-.69,2.27,1.9,2.31,4.28,1.1,6.74-3.94,8.06-6.02,16.67-6.61,25.51-.52,7.9-.11,15.86-.11,23.8h.38Z" style="fill: #000; stroke-width: 0px;"/>
  <path d="M257.06,348.57c1.95.3,4.02.32,5.82,1.01,1.22.46,2.74,1.76,2.92,2.88.2,1.27-.56,3.22-1.57,4.05-1.88,1.54-4.22,2.56-6.44,3.64-1.87.91-3.81,1.7-5.78,2.38-16.48,5.71-26.64,17.69-33.09,33.34-1.9,4.61-3.98,6.25-6.92,5.22-2.7-.95-3.66-3.74-2.38-8.22,4.95-17.27,14.01-31.47,30.52-39.91,5.28-2.7,10.91-4.21,16.92-4.4Z" style="fill: #000; stroke-width: 0px;"/>
  <path d="M323.23,348.68c11.77.57,21.44,5.47,29.6,13.4,8.82,8.58,14.46,19.08,17.59,30.94.15.58.28,1.16.37,1.75.5,3.23-.65,5.66-3.01,6.37-2.55.77-4.73-.69-6.2-3.79-2.17-4.56-4.26-9.19-6.86-13.51-5.87-9.79-14.35-16.54-25.01-20.67-4.34-1.68-8.55-3.71-12.75-5.73-1.96-.94-3.54-2.42-3.01-4.92.52-2.46,2.57-3.11,4.71-3.41,1.57-.22,3.16-.31,4.56-.44Z" style="fill: #000; stroke-width: 0px;"/>
  <path d="M335.08,532.22c6.97.26,13.86,3.65,18.41,10.95,1.32,2.11,1.99,4.73,2.49,7.21.48,2.41-.57,4.54-2.84,5.73-2.29,1.2-4.44.64-6.36-.94-.92-.75-1.73-1.64-2.59-2.46-4.6-4.38-9.95-5.85-15.88-3.43-4.67,1.91-9.13,4.32-13.65,6.58-2.03,1.01-4.06,2-6.06.2-1.97-1.78-1.35-3.93-.55-6.06,4.04-10.67,14.21-17.79,27.02-17.78Z" style="fill: #000; stroke-width: 0px;"/>
  <path d="M247,532.22c11.23.13,21.47,7.57,25.1,18.22.71,2.07,1.06,4.14-.88,5.73-1.83,1.51-3.69.82-5.54-.14-4.14-2.14-8.24-4.36-12.49-6.27-6.73-3.02-12.76-1.74-17.95,3.51-.07.07-.14.14-.21.21-3.45,3.31-6.07,4.04-8.63,2.39-2.54-1.64-3.16-5.05-1.67-9.19,3.07-8.55,12.37-14.59,22.27-14.47Z" style="fill: #000; stroke-width: 0px;"/>
  <path d="M302.68,240.27c.39-7.28,1.28-14.34,4.44-20.94,2.91-6.07,7.17-10.71,13.95-12.48.86-.22,1.76-.41,2.64-.41,2.42.02,4.32,1.02,4.85,3.54.53,2.55-.81,4.55-3.11,5.06-7.21,1.61-9.64,7.08-11.24,13.25-2.52,9.72-2.42,19.68-2.5,29.61-.01,1.19.21,2.56-.31,3.5-.58,1.05-1.81,2.25-2.88,2.38-.87.1-1.99-1.21-2.85-2.05-.37-.36-.41-1.11-.48-1.69-.84-6.59-1.67-13.19-2.5-19.78Z" style="fill: #000; stroke-width: 0px;"/>
  <path d="M276.87,243.65c-.44,3.45-1.25,10.03-2.15,16.6-.27,1.98-1.12,3.82-3.51,3.65-2.42-.17-2.85-2.1-2.93-4.12-.28-7.43-.21-14.89-.96-22.27-.49-4.87-1.86-9.72-3.39-14.4-1.28-3.91-4.07-6.66-8.38-7.69-3.18-.76-4.72-3.1-4.17-5.55.57-2.56,3.13-3.94,6.41-3.31,5.8,1.12,10.07,4.48,13.19,9.37,4.79,7.48,5.92,15.86,5.89,27.7Z" style="fill: #000; stroke-width: 0px;"/>
  <path d="M290.12,814.49c-10.07,2.1-15.22-4.9-20.85-10.65-.92-.95-.86-3.63-.26-5.11.84-2.07,3.17-2.37,5.17-1.64,2.22.82,4.47,1.79,6.39,3.14,6.41,4.51,12.62,4.4,18.97-.08,1.69-1.19,3.63-2.08,5.55-2.86,2.3-.93,4.61-.78,6.09,1.5,1.4,2.17.64,4.27-1.04,5.94-2.25,2.24-4.58,4.41-7,6.46-3.87,3.3-8.35,4.49-13.03,3.28Z" style="fill: #000; stroke-width: 0px;"/>
  <path d="M470.97,214.69c7.2-.01,13.62,2.44,19.62,6.18,1.68,1.04,2.91,2.7,1.78,4.44-.73,1.12-2.83,2.23-4.07,2-10.02-1.85-19.77-.52-29.51,1.81-4.49,1.08-7.19.09-8.24-2.61-1.08-2.79.39-5.43,4.43-7.76,4.94-2.85,10.32-4.03,15.98-4.06Z" style="fill: #000; stroke-width: 0px;"/>
  <path d="M125.08,229.91c-3.06-.64-5.2-1.04-7.32-1.54-8.39-1.98-16.82-2.66-25.36-1.06-2.07.39-4.14.31-4.99-2.03-.85-2.33.69-3.69,2.5-4.78,10.31-6.17,21.08-7.86,32.4-3.1,1.98.83,3.82,2.1,5.52,3.44,1.89,1.5,2.68,3.82,1.38,5.84-.99,1.53-3,2.39-4.13,3.23Z" style="fill: #000; stroke-width: 0px;"/>
  <path d="M302.98,752.54c.74-7.08,2.38-12.6,6.85-16.93,5.14-4.97,13.51-6.38,19.96-3.33,2.87,1.36,4.5,3.85,3.95,6.32-.65,2.9-2.76,4.62-5.55,4.53-7.53-.23-12.46,3.82-16.68,9.32-.48.63-.9,1.47-1.55,1.78-1.49.71-3.34,1.89-4.61,1.49-1.23-.39-1.92-2.5-2.36-3.16Z" style="fill: #000; stroke-width: 0px;"/>
  <path d="M257.76,730.55c8.47.15,15.33,5.47,17.81,14.15.65,2.27,1.19,4.68,1.13,7-.04,1.42-1.02,3.52-2.13,3.99-1.1.46-3.25-.35-4.33-1.3-2.14-1.88-3.81-4.29-5.77-6.38-2.85-3.04-6.39-4.53-10.57-4.72-4.92-.22-7.28-1.87-7.6-5.03-.33-3.26,1.89-5.67,6.5-6.86,1.62-.42,3.31-.58,4.96-.85Z" style="fill: #000; stroke-width: 0px;"/>
  <path d="M472.46,257.76c-3.24.62-6.85,1.21-10.41,2.03-3.7.86-6.16.21-7.23-2.21-1.11-2.52.07-5.1,3.38-7.04,8.01-4.71,16.37-5.27,24.81-1.44,3.12,1.42,5.92,3.59,8.78,5.54,1.69,1.16,2.89,3.08,1.48,4.79-.87,1.05-3.05,1.46-4.61,1.39-2.04-.1-4.01-1.09-6.05-1.47-3.21-.6-6.45-1.02-10.15-1.59Z" style="fill: #000; stroke-width: 0px;"/>
  <path d="M125.47,254.57c.02,4.6-2.98,6.51-6.92,5.33-5.92-1.77-11.88-2.35-17.95-1.2-3.02.57-5.99,1.41-8.97,2.16-2.05.52-4.09.74-5.16-1.54-1-2.11.33-3.55,1.86-4.84,10.53-8.84,23.38-10.37,33.62-3.76,1.67,1.08,2.78,3.01,3.54,3.85Z" style="fill: #000; stroke-width: 0px;"/>
  <path d="M295.06,858.89c-3.36,0-6.72-.04-10.09,0-4.86.07-9.2-1.4-13-4.4-2.47-1.95-3.1-4.7-1.71-6.8,1.32-2,3.92-2.44,6.68-1.12.81.39,1.58.83,2.37,1.26,7.22,3.95,14.42,3.8,21.6-.1.44-.24.87-.48,1.31-.72,3.41-1.81,6.28-1.47,7.66.91,1.37,2.35.33,5.1-2.79,7.27-3.62,2.51-7.61,3.8-12.04,3.7Z" style="fill: #000; stroke-width: 0px;"/>
  <path d="M319.82,90.19c.8.27,2.49.6,3.93,1.38,2.04,1.11,3.27,2.96,2.89,5.41-.4,2.56-2.11,4.34-4.58,4.37-5.5.05-8.62,3.46-11.56,7.33-1.22,1.61-2.68,2.91-4.78,1.91-2.25-1.07-2.33-3.2-1.46-5.13,1.68-3.76,3.27-7.64,5.56-11.01,2.01-2.96,5.46-4.16,10-4.27Z" style="fill: #000; stroke-width: 0px;"/>
  <path d="M261.57,90.22c3.65.1,7.3,1.71,9.41,5.12,2.14,3.47,3.59,7.43,4.88,11.33.34,1.03-.75,3.33-1.75,3.78-1.01.45-3.01-.32-4.07-1.18-1.66-1.35-2.7-3.47-4.37-4.8-1.56-1.24-3.51-2.33-5.44-2.67-4.8-.84-7.13-2.52-6.92-5.73.21-3.32,3.52-5.81,8.26-5.85Z" style="fill: #000; stroke-width: 0px;"/>
  <path d="M167.79,668.23c.11-8.5,9.81-15.28,17.24-12.27,1.44.58,2.94,2.41,3.25,3.91.19.9-1.85,2.29-2.93,3.41-1.26,1.31-2.72,2.44-3.83,3.87-1.2,1.55-1.89,3.51-3.15,4.98-1.84,2.15-4.35,2.75-7.01,1.63-2.58-1.09-3.5-3.33-3.57-5.53Z" style="fill: #000; stroke-width: 0px;"/>
  <path d="M412.21,668.52c-.05,2.1-1.11,4.25-3.71,5.29-2.7,1.07-5.15.33-6.99-1.81-1.08-1.26-1.83-2.81-2.62-4.29-1.14-2.14-2.42-3.92-4.96-4.79-1.08-.37-2.42-2.22-2.31-3.25.13-1.26,1.43-2.86,2.64-3.46,7.49-3.65,18.05,3.31,17.94,12.31Z" style="fill: #000; stroke-width: 0px;"/>
  <path d="M349.77,651.2c-1.16,1.47-2.05,3.63-3.55,4.21-1.52.58-3.68-.26-5.48-.78-.74-.21-1.26-1.21-1.85-1.88-1.56-1.8-3.35-2.33-5.57-1.23-1.88.94-3.86,1.41-5.41-.5-1.54-1.89-.58-3.75.48-5.5,2.85-4.7,7.66-6.84,12.36-5.53,4.72,1.31,8.54,6.18,9.02,11.22Z" style="fill: #000; stroke-width: 0px;"/>
  <path d="M230.18,650.97c.79-5.53,5.24-10.51,10.24-11.24,5.12-.74,10.55,2.59,12.01,7.66.33,1.14.08,3.06-.68,3.73-.9.79-2.96,1.26-3.97.76-3.35-1.67-5.55-.71-7.7,2-1.49,1.88-3.8,3.11-6.03,1.72-1.62-1.02-2.6-3.05-3.87-4.63Z" style="fill: #000; stroke-width: 0px;"/>
  <path d="M381.03,654.41c.03,4.2-3.39,6.45-7.13,5.11-3.62-1.29-7.21-2.64-10.79-4.03-2.89-1.12-3.53-4.05-1.41-6.16,4.76-4.74,15.4-3.18,18.53,2.76.45.85.64,1.84.8,2.32Z" style="fill: #000; stroke-width: 0px;"/>
  <path d="M211.32,646.51c1.24.44,3.8,1,5.96,2.25,1.09.63,2.05,2.58,1.95,3.84-.09,1.08-1.61,2.41-2.81,2.95-3.23,1.47-6.62,2.58-9.95,3.82-2.45.91-4.74.8-6.46-1.41-1.71-2.2-1.33-4.5.2-6.61,2.4-3.31,5.8-4.67,11.11-4.85Z" style="fill: #000; stroke-width: 0px;"/>
  <path d="M215.87,331.39c1.78.8,3.16,1.17,4.24,1.95,4.23,3.11,6.62,7.57,8.18,12.41.34,1.06-.41,3.04-1.32,3.77-.76.61-2.92.52-3.73-.14-3.73-3.07-7.39-6.27-10.64-9.83-.97-1.06-1.1-3.65-.53-5.13.5-1.31,2.5-2.06,3.8-3.03Z" style="fill: #000; stroke-width: 0px;"/>
  <path d="M355.27,350.16c-2.91-.03-4.52-2.04-3.71-4.38,1.71-4.91,4.16-9.44,8.49-12.59,2.7-1.97,5.74-1.71,7.51.38,1.75,2.08,1.31,4.98-1.23,7.36-2.75,2.57-5.53,5.1-8.37,7.55-.93.81-2.11,1.32-2.69,1.67Z" style="fill: #000; stroke-width: 0px;"/>
  <path d="M307.74,640.34c1.94.67,4.01,1.1,5.77,2.09,1.95,1.09,2.94,3.05,2.07,5.33-.9,2.36-2.9,3.44-5.26,2.76-3.09-.88-5.72-.48-8.53,1.05-1.07.58-3.41.32-4.18-.49-.75-.8-.8-3.12-.17-4.2,2.2-3.8,5.56-6.11,10.3-6.53Z" style="fill: #000; stroke-width: 0px;"/>
  <path d="M271.39,640.65c5.79.22,9.16,2.61,11.31,6.58.53.97.43,3.05-.26,3.73-.82.81-2.96,1.31-3.87.8-3.05-1.71-5.96-2.12-9.35-1.21-2.04.55-3.97-.48-4.76-2.63-.81-2.21-.13-4.28,1.87-5.4,1.84-1.03,3.99-1.5,5.05-1.87Z" style="fill: #000; stroke-width: 0px;"/>
  <path d="M248.08,332.1c-.11,3.47-2.95,5.19-5.03,3.35-3.29-2.92-6.27-6.26-9.02-9.71-1.3-1.62-.93-3.84.67-5.43,1.61-1.6,3.66-1.78,5.45-.59,4.68,3.08,6.36,8.08,7.92,12.39Z" style="fill: #000; stroke-width: 0px;"/>
  <path d="M346.89,322.75c-.49,1.57-.52,2.73-1.11,3.4-2.8,3.18-5.64,6.34-8.75,9.21-.72.66-2.86.65-3.72.05-.86-.6-1.64-2.68-1.23-3.5,1.96-3.93,4.09-7.84,6.71-11.34.8-1.07,3.48-1.38,5.05-1,1.26.3,2.13,2.17,3.04,3.19Z" style="fill: #000; stroke-width: 0px;"/>
  <path d="M373.87,364.35c-2.49.1-4.19-1.79-3.39-3.96,1.69-4.62,4.19-8.8,8.46-11.53,2.02-1.28,4.28-1.22,5.96.69,1.78,2.01,1.61,4.43-.18,6.2-2.88,2.84-6.09,5.36-9.22,7.95-.5.41-1.26.51-1.63.65Z" style="fill: #000; stroke-width: 0px;"/>
  <path d="M209.6,361.2c-.04,2.59-2.67,4.23-4.83,2.62-3.47-2.58-6.82-5.43-9.74-8.61-.91-1-.96-3.86-.17-5.05.79-1.18,3.2-1.95,4.77-1.77,3.48.39,10.02,9.24,9.96,12.81Z" style="fill: #000; stroke-width: 0px;"/>
</svg>