<?xml version="1.0" encoding="UTF-8"?>
<svg id="Layer_1" data-name="Layer 1" xmlns="http://www.w3.org/2000/svg" viewBox="0 0 638.41 900">
  <path d="M630.24,207.47c.22,3.2.39,6.4.66,9.6.31,3.7-.9,6.77-3.82,9.02-1.72,1.32-1.9,2.67-1.31,4.7,1.32,4.53,2.14,9.2,3.48,13.72,2.26,7.59,4.59,15.17,7.25,22.63,1.38,3.88,2.23,7.66,1.79,11.76-1.31,12.19-2.58,24.33-7.26,35.89-1.57,3.89-1.88,8.43-2.05,12.71-.64,15.67-3.47,30.98-8,45.91-2.93,9.67-6.35,19.31-12.85,27.39-5.06,6.28-7.3,13.86-9.34,21.39-3.3,12.22-8.27,23.63-14.45,34.66-2.32,4.13-3.47,8.96-4.87,13.55-1.7,5.57-3.24,11.2-4.6,16.86-2.23,9.29-7.13,16.54-15.65,21.06-2.24,1.19-3.17,2.84-3.05,5.3.09,1.9-.21,3.85.08,5.71.87,5.73-.45,10.92-3.25,15.91-9.37,16.73-17.76,34.03-29.21,49.53-2.63,3.56-5.25,7.14-9.51,9-.42.18-1.02.65-1.03,1-.08,3.55-1.22,7.67.16,10.56,4.33,9.09,5.41,18.49,4.29,28.2-1.38,11.97-3.15,23.9-4.91,35.82-.63,4.26-1.89,8.43-2.49,12.7-.22,1.57.12,3.71,1.08,4.86,3.83,4.58,5.54,9.75,6.3,15.64,2.49,19.16.44,38.09-2.32,57-.86,5.92-2.41,11.75-3.64,17.62-.12.59-.34,1.2-.26,1.77.55,4.08-1.79,6.48-4.98,8.12-2.16,1.11-2.57,2.47-2.49,4.79.11,3.07-.4,6.19-.86,9.25-.46,3.07-1.28,6.09-1.76,9.16-.55,3.5-1.95,6.47-4.52,8.96-11.29,10.94-23.27,21-37.07,28.67-4.82,2.68-9.77,5.14-14.74,7.55-2.42,1.17-3.94,2.88-4.92,5.37-3.02,7.7-6.46,15.27-12.43,21.15-2.94,2.9-6.44,5.51-10.14,7.32-10.88,5.3-22.41,8.08-34.64,7.9-3.45-.05-6.97.78-10.36,1.63-7.65,1.92-14.84,1.72-21.66-2.85-3.71-2.49-7.73-4.54-11.7-6.64-.74-.39-1.87-.09-2.82,0-6.46.58-12.92,1.66-19.38,1.64-5.34-.01-10.67-1.37-16.02-1.97-.82-.09-1.81.57-2.6,1.07-10.76,6.74-21.49,13.19-35.09,8.14-2.82-1.05-6.13-1.11-9.21-1.07-12.68.16-24.41-3.42-35.62-8.92-6.08-2.98-10.17-8.16-13.48-13.85-2.42-4.15-4.52-8.52-6.37-12.96-1.25-2.98-3.1-4.88-5.95-6.37-7.29-3.81-14.43-7.9-21.59-11.94-11.43-6.43-20.55-15.71-30-24.56-1.6-1.49-2.86-3.76-3.4-5.89-1.35-5.34-2.22-10.81-3.22-16.23-.2-1.08-.33-2.24-.12-3.3.62-3.15-.3-5.22-3.33-6.71-2.75-1.35-4.39-3.78-4.05-7.14.06-.59,0-1.22-.18-1.79-5.61-18.77-6.36-38.17-7.09-57.52-.28-7.36.66-14.88,2.03-22.14.72-3.83,3.67-7.2,5.42-10.87.67-1.41,1.33-3.14,1.11-4.6-.98-6.65-2.41-13.23-3.43-19.87-1.36-8.83-2.48-17.7-3.72-26.56-1.47-10.56-.68-20.68,3.97-30.58,1.37-2.91.23-7.02.11-10.58-.01-.39-.84-.75-1.28-1.14-2.6-2.31-5.59-4.3-7.73-6.98-10.04-12.53-17.22-26.86-24.95-40.82-2.43-4.39-4.77-8.84-7.09-13.29-1.86-3.57-2.6-7.37-2.01-11.38.04-.3.04-.6.09-.9.98-6.32-.06-11.38-6.64-14.59-5.68-2.77-8.79-8.13-10.54-14.11-2.49-8.48-4.66-17.06-7.3-25.49-1.28-4.08-3.01-8.09-5.07-11.83-4.95-9.02-9.25-18.29-11.9-28.25-2.86-10.75-7.25-20.6-13.48-30.01-4.73-7.13-7.69-15.69-10.2-23.99-4.48-14.83-6.95-30.1-7.75-45.65-.26-5.12-1.51-10.35-3.24-15.2C1.93,299.5.94,287.42.03,275.3c-.15-2.02.36-4.28,1.2-6.14,4.65-10.34,7.4-21.22,9.71-32.25.21-.98.39-1.99.76-2.91,1.48-3.67,1.82-6.72-1.88-9.76-1.62-1.33-1.97-4.66-2.15-7.14-.25-3.27.36-6.6.36-9.91-.01-10.16,3.17-19.27,8.32-27.93,2.44-4.11,4.34-8.6,5.98-13.1,2.34-6.41,4.77-12.87,6.14-19.53,1.89-9.22,8.04-13.77,16.06-16.65,2.04-.73,3.24-1.54,3.62-3.74.21-1.23.87-2.52,1.67-3.49,7.22-8.74,14.03-17.79,23.5-24.45,12.97-9.13,25.63-18.69,38.37-28.15,2.9-2.15,5.66-4.5,8.33-6.94,9.7-8.88,19.49-17.68,28.9-26.85,4.25-4.15,8.86-6.21,14.62-5.24,5.1.86,8.85-.2,12.51-4.47,6.6-7.7,16.22-10.12,25.74-12.01,5.39-1.07,10.94-1.46,16.44-1.91,8.7-.71,17.41-1.44,26.13-1.74,9.11-.32,18.25-.27,27.37-.11,3.67.06,7.06-.36,10.59-1.51,9.92-3.23,19.95-6.12,29.99-8.94,1.63-.46,3.53.06,5.3.16.79.04,1.7.45,2.35.18,3.98-1.6,7.82-.34,11.51.74,8.86,2.61,17.59,5.63,26.41,8.37,1.97.61,4.13,1.16,6.14.99,13.38-1.14,26.66-.54,39.98,1.09,7.65.93,15.49.38,23.14,1.36,7.12.91,14.18,2.69,21.13,4.57,6.98,1.89,12.61,6.14,17.14,11.74,1.23,1.52,2.54,2.18,4.4,1.81,9-1.82,16.24.6,22.69,7.52,7.11,7.61,15.26,14.23,22.84,21.41,9.38,8.88,19.9,16.21,30.46,23.56,8.56,5.96,17.16,12.03,24.9,18.98,6.67,6,13,12.77,17.81,20.27,2.79,4.34,5.73,6.83,10.1,8.86,6.01,2.79,9.63,7.51,11.34,14.28,2.23,8.84,5.49,17.42,8.5,26.05.85,2.43,2.26,4.7,3.64,6.91,5.4,8.64,8.49,17.94,8.18,28.21ZM378,494.95c-.39.24-.79.47-1.18.71-.18,1.25-.41,2.49-.55,3.75-.53,5.02-1.08,10.03-4.16,14.29-3,4.14-7.63,3.94-9.28-.86-1.33-3.86-1.64-8.19-1.78-12.33-.19-5.51.43-11.04.34-16.55-.41-24.91-.93-49.81-1.45-74.72-.14-6.69,2.24-10.35,8.69-12.36,4.5-1.4,9.1-2.47,13.68-3.57,1.6-.39,2.59-.95,2.24-2.82-1.84-9.88-1.54-19.8-.43-29.72.22-1.94-.5-2.86-2.38-3.49-4.84-1.62-6.2-4.7-4.85-9.66.84-3.09,1.53-6.25,1.96-9.42,1.5-11.12,1.04-22.52,4.77-33.32.61-1.77-.65-2.22-2-2.66-2.96-.95-5.99-1.74-8.8-3.03-3.37-1.54-4.52-4.16-4.09-7.61,1.98-15.94,3.98-31.88,5.84-47.84.42-3.6,1.3-6.81,3.6-9.71.6-.76.52-2.68-.03-3.6-1.44-2.4-3.46-4.44-4.96-6.8-2.09-3.28-4.89-4.7-8.77-4.76-15.86-.24-31.71-.89-47.57-.9-14.45,0-28.9.64-43.35.95-3.26.07-5.74,1.28-7.57,4.08-1.59,2.43-3.46,4.69-5.31,6.94-1.26,1.54-1.23,2.71-.17,4.54,1.47,2.52,2.8,5.38,3.18,8.23,2.17,16.22,4.04,32.48,6.04,48.73.45,3.64-.69,6.26-4.17,7.84-2.72,1.24-5.63,2.09-8.52,2.9-2,.56-2.46,1.44-1.94,3.48,1.09,4.27,2.15,8.59,2.72,12.95,1.36,10.33,1.11,20.85,4.15,30.99,1.01,3.37-.96,6.38-4.55,7.43-2.65.77-3.18,2.11-2.91,4.59,1.03,9.52,1.33,19.04-.53,28.51-.37,1.88.27,2.71,2.16,3.14,4.6,1.05,9.21,2.09,13.69,3.54,6.94,2.25,8.97,5.83,8.87,13.15-.42,30.82-.65,61.65-1.06,92.47-.04,3.16-.59,6.37-1.38,9.44-.61,2.36-2.09,4.44-4.95,4.62-2.85.18-4.68-1.64-5.51-3.93-1.39-3.83-2.29-7.84-3.26-11.81-.41-1.69-.47-3.46-.69-5.19-.32-.17-.65-.34-.97-.52-2.61,2.23-5.46,4.24-7.72,6.78-1.19,1.33-1.95,3.61-1.88,5.42.53,12.54,1.23,25.07,2.11,37.58.23,3.25.96,6.57,2.11,9.62.5,1.32,2.63,2.85,4.02,2.86,8.51.04,17.03-.09,25.52-.64,4.63-.3,4.77-1.06,4.41-5.86-.35-4.6-.87-9.23-.65-13.81.29-5.91,5.28-8.77,10.48-6.11,3.54,1.81,6.88,1.76,10.45.59,6.2-2.03,12.46-2.14,18.66-.13,3.9,1.26,7.47,1.32,11.32-.6,4.79-2.39,9.4.41,10.15,5.75.21,1.48.21,3.01.12,4.51-.23,3.81-.53,7.61-.86,11.42-.2,2.37.58,3.61,3.14,4.16,8.98,1.92,18.01,1.29,27.01.72,1.42-.09,3.55-1.65,3.95-2.96,1.14-3.69,1.9-7.58,2.18-11.44.85-11.71,1.43-23.45,2.02-35.18.07-1.45.12-3.38-.71-4.31-2.66-3.02-5.73-5.67-8.64-8.47ZM263.39,601.54c-.43.49-.79.74-.93,1.08-2.67,6.31-7.59,8.45-14.11,7.7-.6-.07-1.22.04-1.8-.06-2.07-.33-3.09.45-3.55,2.58-.68,3.13-1.69,6.2-2.61,9.28-2.84,9.52-5.7,19.04-8.57,28.56-.57,1.9-.25,3.27,1.36,4.76,1.79,1.66,3.2,3.85,4.37,6.03,1.46,2.74,2.59,5.66,3.7,8.57.84,2.21,1.94,2.84,4.35,2.01,2.32-.8,4.89-1.17,7.35-1.19,5.9-.07,11.15,2.26,16.26,4.95,7.02,3.7,14.16,7.18,21.04,11.13,5.89,3.39,11.42,7.4,17.23,10.94,1.23.75,3,.91,4.51.88,3-.06,6.13-1.12,8.96-.54,5.85,1.21,10.03-.73,15.04-3.85,12.26-7.62,25.2-14.16,38.09-20.71,6.11-3.11,12.8-4.21,19.54-1.46,1.72.7,2.67.01,3.31-1.5.55-1.29,1.01-2.64,1.67-3.87,1.98-3.69,3.62-7.68,6.23-10.87,1.7-2.07,2.39-3.59,1.63-6.07-3.37-10.94-6.7-21.89-9.95-32.86-1.97-6.65-1.89-6.78-8.72-6.63-5.05.11-8.71-1.88-11.03-6.37-.43-.84-.99-1.62-1.78-2.89-.49.77-.71,1.1-.93,1.44-6.24,9.95-12.47,19.9-18.73,29.84-1.39,2.2-2.62,4.56-4.34,6.49-3.65,4.09-8.83,4.12-12.78.33-.87-.83-1.67-1.75-2.4-2.7-5.02-6.53-10.02-13.07-14.99-19.64-.47-.62-.63-1.47-1.05-2.51-5.94,7.7-11.04,14.28-16.1,20.89-7.32,9.56-13.6,8.99-19.79-1.43-6.1-10.27-12.59-20.3-18.92-30.42-.4-.64-.97-1.18-1.56-1.88ZM216.55,225.24h-.31c0-3.42.03-6.83-.01-10.24-.02-1.7-.82-2.29-2.55-1.82-3.39.92-6.87,1.54-10.22,2.6-10.24,3.23-20.51,6.39-30.61,10.02-6.12,2.2-7.2,4.02-6.76,9.82,1.45,19.13,3.08,38.24,4.61,57.36.16,2,.85,2.73,2.88,1.86,13.15-5.68,27.07-7.27,41.2-7.7,6.62-.2,9.57,2.81,9.5,9.43-.19,19.24,1.56,38.31,5.51,57.16,1.86,8.85-.09,11.99-8.93,13.71-.49.1-.99.17-1.48.27-12.7,2.52-25.41,4.96-38.09,7.58-7.56,1.56-7.47,1.67-6.56,9.4.28,2.33,1.17,3.24,3.6,3.33,20.26.8,40.51,1.69,60.76,2.62,4.03.18,4.08.24,3.85-3.77-.56-9.62-1.15-19.25-1.65-28.87-.23-4.42,1.28-8.18,4.24-11.55,1.13-1.28,1.71-3.32,1.9-5.09.23-2.16.03-4.44-.4-6.59-1.86-9.15-3.81-18.28-5.88-27.39-.94-4.13-1.32-8.11.78-12.01,2.1-3.88,5.31-6.65,9.23-8.32,3.15-1.35,3.93-3.31,3.27-6.38-2.07-9.61-4.12-19.23-6.12-28.86-.44-2.12-1.73-1.96-3.38-1.79-5.28.53-10.57,1.28-15.86,1.28-9.37,0-14.09-5.51-13.36-14.93.29-3.7.55-7.41.82-11.12ZM396.37,372.55s-.06,0-.1,0c-.28,5.22-.53,10.43-.85,15.65-.11,1.83.28,2.8,2.48,2.62,6-.5,12.02-.88,18.03-1.18,13.23-.66,26.46-1.47,39.71-1.79,8.64-.21,7.71,1.98,8.54-8.54.15-1.85-.68-2.74-2.48-3.09-13.88-2.76-27.75-5.56-41.62-8.37-2.16-.44-4.37-.77-6.44-1.49-4.73-1.64-6.65-5.06-5.58-9.89,4.45-20.1,6.22-40.46,6.18-61.01-.01-5.36,2.84-8.38,8.16-8.3,14.24.2,28.26,1.78,41.6,7.26,3.38,1.39,3.58,1.28,3.88-2.24,1.49-18.02,3.01-36.03,4.38-54.06.66-8.73-.29-10.01-8.48-13.18-.84-.33-1.68-.67-2.55-.93-11.83-3.54-23.67-7.01-35.48-10.62-2.82-.86-3.65.1-3.55,2.77.25,7.02.4,14.05.65,21.07.32,8.85-4.26,14.06-13.04,14.05-5.39,0-10.78-.76-16.16-1.24-1.41-.12-2.91-.67-3.36,1.38-2.07,9.51-4.08,19.04-6.2,28.54-.83,3.69.35,5.71,3.9,7.47,8.94,4.46,11.47,10.71,9.18,20.4-1.66,7.04-3.38,14.07-4.75,21.16-.82,4.22-1.22,8.55-1.4,12.84-.06,1.5.76,3.39,1.81,4.51,3.07,3.29,4.56,7.08,4.41,11.49-.17,4.92-.57,9.82-.86,14.74ZM535.78,283.26c4.76-3.88,8.88-7.32,13.09-10.65,5.93-4.71,10.34-10.6,13.84-17.26,1.43-2.72,1.91-5.47,1.06-8.42-3.42-11.86-6.34-23.9-10.4-35.54-5.15-14.78-11.27-29.22-16.88-43.84-2.16-5.62-2.01-5.61-6.91-2.25-4.33,2.98-8.83,5.75-14.29,5.82-2.52.03-3.4,1.18-4.17,3.35-2.15,6.04-4.48,12.03-6.96,17.94-.8,1.9-.74,2.98,1.28,3.69,6.22,2.16,8.85,6.91,10.06,13.09,2.55,12.99,3.02,26.12,3.1,39.28.02,2.79.71,3.7,3.66,3.87,9.32.54,14.11,5.91,14,15.26-.04,4.01-.32,8.02-.48,12.04-.04.94,0,1.88,0,3.62ZM102.63,283.1c0-2,.04-3.17,0-4.33-.14-3.81-.41-7.62-.44-11.44-.07-9.06,4.64-14.4,13.66-14.92,3.22-.19,3.98-1.23,4-4.27.09-13.26.55-26.49,3.25-39.56,1.21-5.86,3.83-10.31,9.68-12.35,2.36-.82,2.3-2.06,1.35-4.14-2.08-4.56-4.22-9.15-5.61-13.95-1.27-4.39-2.57-7.8-8.1-7.41-1.56.11-3.32-.81-4.8-1.61-2.9-1.58-5.71-3.34-8.49-5.13-3-1.94-3.17-1.91-4.38,1.33-1.9,5.08-3.69,10.21-5.83,15.18-9.07,21.08-16.68,42.64-21.78,65.03-.61,2.69-.84,5.98.14,8.44,5.17,12.94,16.43,20.33,27.34,29.13ZM494.86,189.02c.45-1.24.85-2.13,1.1-3.06,2.7-10.08,5.09-20.25,8.18-30.21,1.84-5.91-.02-9.61-4.32-13.6-12.91-12-27.04-22.4-41.17-32.83-2.9-2.14-2.84-1.98-4.96,1.06-4.59,6.56-9.33,13.02-14.19,19.38-1.17,1.54-2.91,2.85-4.67,3.67-1.81.84-2.27,1.98-2.28,3.74-.04,6.93-.05,13.85-.26,20.77-.07,2.41.85,2.85,3.07,3.21,12.17,1.98,24.32,4.12,36.43,6.43,3.88.74,7.6,3.24,7.57,7.18-.06,6.57,3.44,8.75,8.82,10.28,2.29.65,4.24,2.48,6.68,3.98ZM143.45,188.6c4.16-1.98,7.74-4.07,11.58-5.36,2.44-.82,3.38-1.68,3.37-4.3-.03-6.57,3.09-10.27,9.46-11.72,1.96-.45,3.95-.74,5.93-1.07,10.09-1.71,20.17-3.48,30.27-5.07,2.09-.33,1.99-1.53,1.98-2.97-.07-6.23-.26-12.46-.14-18.68.06-3.03-.1-5.5-3.53-6.66-1.14-.39-2.17-1.5-2.94-2.52-4.98-6.65-10.02-13.26-14.72-20.11-1.62-2.37-2.64-2.66-4.86-.89-4.16,3.32-8.67,6.19-12.78,9.57-10.53,8.68-20.91,17.53-31.36,26.31-2.24,1.88-2.87,4.18-2.12,7.02,2.96,11.16,5.83,22.34,8.77,33.51.27,1.03.72,2.01,1.07,2.95ZM166.85,74.47c-1.5-2.8-2.63-4.8-3.65-6.85-.91-1.82-1.92-1.71-3.23-.43-7.77,7.54-16.86,13.24-26.01,18.91-21.31,13.2-38.93,30.58-55.26,49.37-.78.9-1.19,2.98-.7,4,3.98,8.32,8.2,16.52,12.38,24.74.18.36.69.55,1.57,1.21.48-3.45.97-6.38,1.28-9.33.74-7.18,5.88-10.72,12.73-8.38,3.3,1.13,6.39,2.89,9.54,4.42,2.12,1.03,4.19,2.15,6.99,3.59-.25-1.93-.31-2.99-.54-4.02-1.03-4.69.39-8.45,4.03-11.54,9.81-8.29,19.6-16.61,29.3-25.03.77-.67,1.42-2.36,1.13-3.25-2.95-9.1-3.48-18.52-4.03-27.95-.32-5.46,1.87-8,7.3-8.6,2.15-.24,4.29-.52,7.17-.87ZM471.65,74.47c2.97.36,5.13.63,7.29.88,5.12.58,7.39,3.1,7.13,8.18-.49,9.53-1.02,19.06-4,28.26-.3.91.27,2.62,1.02,3.28,9.71,8.42,19.5,16.73,29.32,25.02,3.54,2.99,5.03,6.64,4.19,11.23-.22,1.18-.25,2.4-.44,4.39,2.66-1.4,4.56-2.47,6.51-3.41,3.43-1.65,6.79-3.58,10.39-4.73,6.51-2.08,11.36,1.37,12.16,8.16.31,2.59.63,5.18,1.03,7.76.09.58.49,1.12.75,1.68l.91.2c3.77-7.5,7.42-15.07,11.36-22.47,2.18-4.08,1.89-7.3-1.86-10.19-1.17-.9-2.03-2.22-3.03-3.34-15.88-17.77-33.57-33.36-53.93-45.94-7.56-4.67-14.39-10.53-21.55-15.85-.7-.52-1.4-1.04-2.49-1.86-1.56,2.87-2.96,5.45-4.75,8.75ZM69.3,320.19c.06.3.13.6.19.9,7.82-2.13,15.64-4.22,23.45-6.39,2.7-.75,5.3-2.14,8.04-2.44,3.09-.34,3.99-1.64,3.58-4.45-.13-.89-.17-1.81-.1-2.71.24-2.91-.67-4.8-3.66-5.97-2.17-.85-4.1-2.53-5.87-4.13-4.69-4.25-9.17-8.72-13.84-12.98-7.02-6.4-12.22-14-16.08-22.68-2.33-5.23-3.19-10.33-.95-15.71.74-1.78.2-2.77-1.42-3.62-3.46-1.82-6.91-3.69-10.27-5.7-4.31-2.57-8.7-1.68-10.76,2.87-2.36,5.2-4.4,10.57-6.13,16.01-.65,2.06-.52,4.66.06,6.79,3.04,11.19,6.99,22.1,13.44,31.78,5.46,8.2,11.09,16.24,14.77,25.45.98,2.45,2.8,3.62,5.54,2.97ZM568.98,321.03c.06-.28.11-.56.17-.84,2.73.62,4.38-.59,5.59-2.94,2.97-5.79,5.41-12,9.23-17.18,8.84-12,14.7-25.28,18.81-39.45.52-1.79,1.08-3.95.55-5.59-2.03-6.28-4.26-12.52-6.9-18.56-1.4-3.19-6.08-4.76-8.24-3.53-4,2.29-7.95,4.69-12.03,6.84-2.02,1.07-2.47,2.23-1.61,4.33,1.99,4.84,1.25,9.5-.68,14.3-6.97,17.37-21.16,28.41-34.73,39.99-.89.76-2.23.98-3.16,1.7-.78.6-1.69,1.52-1.81,2.4-.32,2.38-.4,4.81-.23,7.2.05.78,1.01,1.89,1.79,2.15,3.4,1.16,6.88,2.1,10.36,3.05,7.62,2.07,15.26,4.09,22.89,6.13ZM246.18,114.37c-2.65,0-6.17-.14-9.67.03-4.9.24-9.79.6-14.66,1.13-2.46.27-3.8,1.87-4.07,4.47-1.34,12.98-2.8,25.94-4.1,38.92-.13,1.25.56,2.59.87,3.89,1.2-.57,2.59-.91,3.57-1.74,7.68-6.48,13.56-14.47,18.95-22.86,3.16-4.91,6.56-5.75,11.77-3.14.71.36,1.44.75,2.21.93,8.93,2.11,17.1,5.71,24.08,11.84.57.5,2.29.57,2.78.1,2.64-2.46,5.84-3,9.19-3.16,5.61-.27,11.23-.5,16.85-.71,1.62-.06,2.91-.13,2.91-2.4.02-9.03.13-18.06.36-27.08.06-2.23-.75-3.19-2.89-3.16-5.81.08-11.68-.3-17.43.33-13.26,1.44-26.4,4.22-40.71,2.61ZM332.06,129.44c-.11,0-.23,0-.34,0,0,3.81.14,7.63-.05,11.44-.12,2.39.7,3.18,3.04,3.22,5.62.11,11.25.23,16.83.77,2.7.26,5.7.93,7.85,2.44,2.21,1.54,3.36,1.27,5.11-.25,5.78-5.03,12.46-8.36,19.9-10.21,1.74-.43,3.49-.99,5.11-1.76,5.49-2.61,8.73-1.79,11.98,3.27,5.39,8.39,11.29,16.36,18.96,22.85.93.78,2.21,1.14,3.33,1.7.33-1.29,1.04-2.61.92-3.85-.46-4.79-1.3-9.54-1.79-14.33-.83-8.19-1.54-16.39-2.23-24.58-.22-2.56-1.47-4.15-3.95-4.6-2.46-.45-4.95-.96-7.43-1-6.22-.1-12.45-.16-18.66.14-9.77.47-19.41-.38-29.1-1.56-8.83-1.07-17.77-1.33-26.67-1.67-3.64-.14-3.76.39-3.53,4.16.29,4.61.47,9.22.7,13.83ZM365.35,98.21v.08c1.61,0,3.22-.02,4.82,0,7.99.09,6.93,1.06,7.14-6.98.18-7.04.12-7.05-6.57-9.37-12.68-4.41-24.86-10.36-38.42-12.03-3.76-.46-7.39-1.84-11.12-2.62-1.31-.27-2.78-.23-4.1.05-3.43.71-6.84,1.59-10.23,2.48-7.94,2.09-15.93,4.01-23.77,6.43-6.42,1.98-12.61,4.68-18.97,6.85-2.19.75-3.07,1.93-3,4.15.09,2.61.11,5.22.02,7.83-.09,2.42.8,3.49,3.35,3.32,4.2-.29,8.43-.33,12.64-.54,10.61-.54,21.21-2.58,31.83-.72,2.94.52,5.81,1.95,8.46,3.41,1.51.84,2.29.69,3.7-.09,2.49-1.38,5.18-2.95,7.9-3.22,5.86-.58,11.81-.63,17.71-.45,6.21.2,12.41.92,18.62,1.41ZM241.9,802.78c-.5,1.5-.84,2.52-1.17,3.54-2.32,7.16-7.59,9.15-14.08,5.28-1.9-1.13-3.74-2.34-5.58-3.57-1.43-.96-2.51-1.03-3.31.8-1.9,4.31-3.87,8.6-5.84,12.88-.87,1.88-.54,3.36.99,4.84,8.32,8.06,14.1,17.82,17.62,28.73,1.69,5.24,3.86,7.38,9.69,7.3,7.37-.1,14.75,1.49,22.15,2.04,1.54.11,3.5-.77,4.72-1.82,2.96-2.54,5.74-5.34,8.31-8.27.99-1.13,1.64-2.89,1.73-4.41.25-4.4-.06-8.83.21-13.23.42-6.77.57-6.93-6.11-7.67-5.44-.6-9.5-3-12.92-7.28-5.11-6.4-10.64-12.46-16.39-19.14ZM396.52,802.72c-.79.75-1.17,1.05-1.48,1.41-4.14,4.9-8.6,9.57-12.32,14.78-4.69,6.57-10.52,10.58-18.71,10.82-.3,0-.59.14-.88.18-1.98.3-2.6,1.38-2.39,3.38.37,3.59,1.13,7.3.59,10.78-1.03,6.61,1.86,10.7,6.24,15.3,4.48,4.71,8.86,5.88,14.85,4.92,6.42-1.04,12.94-1.59,19.44-1.94,2.48-.13,3.74-.62,4.57-3.11,4.12-12.42,10.02-23.83,19.43-33.2.8-.8,1.1-2.87.67-3.98-1.7-4.39-3.83-8.6-5.69-12.93-.9-2.08-2.02-2.08-3.72-.94-2.33,1.55-4.67,3.17-7.2,4.35-5.08,2.38-9.62.43-11.69-4.8-.58-1.47-1.02-2.99-1.7-5.02ZM349.4,843.15c0-1.81.19-3.64-.09-5.41-.11-.72-1.2-1.81-1.88-1.83-6.96-.26-8.71-2.09-9.7-9.09-1.25-8.83-2.95-17.59-4.4-26.39-.28-1.69-1.1-2.25-2.81-2.39-7.49-.63-14.95-.63-22.44,0-1.84.15-2.69.74-2.99,2.57-1.44,8.9-3.1,17.77-4.42,26.69-.97,6.56-2.96,8.49-9.51,8.61-.72.01-1.99,1.07-2.02,1.7-.19,3.7-.19,7.42-.07,11.13.08,2.73,1.33,4.22,4.4,4.54,15.42,1.59,30.84,1.81,46.26.45,9.33-.83,9.83.87,9.67-10.56ZM299.08,156.29c-.04-.18-.08-.36-.12-.54-3.41,0-6.83.09-10.23-.04-1.95-.07-2.68.55-2.65,2.56.06,3.61-.06,7.22-.24,10.83-.08,1.63.53,2.27,2.08,2.67,5.51,1.43,7.46,3.81,7.79,9.53.26,4.51.4,9.03.49,13.54.04,1.93.71,2.67,2.73,2.45,13.5-1.47,27.02-1.48,40.52,0,2.25.24,2.78-.67,2.81-2.67.06-4.31.25-8.63.47-12.94.3-6.04,2.2-8.26,8.02-10.06.78-.24,1.72-1.54,1.75-2.38.12-3-.19-6.01-.19-9.02,0-4.48.04-4.29-4.29-4.49-9.17-.42-18.5.65-27.41-2.6-.8-.29-1.8-.19-2.67-.05-6.29,1.04-12.56,2.14-18.84,3.22ZM360.72,38.87c-.2,7.7-.45,15.09-.49,22.48,0,.67,1.32,1.66,2.21,1.97,4.35,1.52,8.75,2.96,13.19,4.21,1.09.31,2.88.24,3.55-.44,3.32-3.36,7.04-3.12,11.17-2.15,7.12,1.67,14.24,3.67,21.48,4.43,13.57,1.42,27.22,2.03,40.83,3.02,6.37.46,6.47.53,8.13-5.53.31-1.13-.22-2.95-1.03-3.82-2.19-2.33-5.12-4.02-7.07-6.51-5.13-6.55-11.52-8.42-19.83-9.13-22.58-1.91-45.04-5.33-67.55-8.14-1.37-.17-2.75-.24-4.6-.39ZM278.3,50.85s-.09,0-.13,0c-.13-2.81-.26-5.61-.38-8.42-.17-3.73-.17-3.74-4.02-3.26-8.37,1.04-16.72,2.18-25.09,3.13-17.54,1.98-35.09,3.83-52.62,5.84-1.27.15-2.65.91-3.62,1.79-4.66,4.26-9.15,8.71-13.8,12.98-1.3,1.19-1.62,2.26-1.08,3.94,1.97,6.07,1.91,6.09,8.19,5.54.8-.07,1.6-.13,2.4-.2,20.94-1.85,42.2-1.1,62.57-7.74,2.88-.94,5.63.14,8.11,2.13,1.02.82,2.95,1.19,4.24.86,4.36-1.13,8.59-2.76,12.92-4.02,1.8-.52,2.39-1.47,2.34-3.24-.09-3.11-.02-6.22-.02-9.33ZM67.86,230.95c.43-.66.78-1.03.94-1.47,6.06-16.37,12.12-32.74,18.1-49.14.29-.79.16-2.06-.3-2.76-3.7-5.6-7.48-11.14-11.35-16.61-.54-.76-1.69-1.5-2.58-1.52-4.47-.1-8.95.15-13.42.05-1.92-.04-2.87.51-3.49,2.39-5.32,16.2-10.68,32.38-16.17,48.52-.84,2.47-.19,3.49,1.97,4.67,5.45,2.98,10.73,6.26,16.05,9.47,3.41,2.06,6.75,4.21,10.25,6.4ZM570.38,231.04c1.14-.69,1.82-1.1,2.5-1.51,7.98-4.83,15.88-9.78,23.97-14.41,2.35-1.34,2.75-2.49,1.91-4.95-5.37-15.76-10.68-31.54-15.78-47.39-.92-2.85-2.24-3.45-4.97-3.2-3.56.33-7.23.54-10.74.04-2.36-.34-3.42.23-4.59,2.09-3.11,4.91-6.21,9.85-9.74,14.46-1.5,1.95-1.86,3.32-1,5.6,5.81,15.39,11.46,30.85,17.18,46.28.34.91.75,1.79,1.26,3.01ZM112.27,291.95c.1,0,.2,0,.29,0,0,4.52-.23,9.05.05,13.56.49,7.81,1.06,15.62,2.07,23.37.59,4.55,1.64,5.2,6.19,5.27,8.13.12,16.27-.07,24.4.05,2.75.04,3.36-.95,3.21-3.57-.86-15.04-1.61-30.08-2.24-45.13-.1-2.51-.97-3.19-3.37-3.35-4.9-.33-9.83-.72-14.63-1.68-5.38-1.08-7.96-4.47-8.47-9.95-.12-1.3-.26-2.63-.12-3.91.38-3.46-1.89-3.25-4.22-3.37-2.57-.13-3.25.96-3.22,3.39.12,8.44.04,16.88.04,25.31ZM526.55,292.73c-.13-.01-.26-.02-.4-.03,0-8.83.04-17.67-.06-26.5-.01-.95-.7-2.49-1.41-2.72-3.98-1.31-5.77.07-5.88,4.15-.02.6-.03,1.2-.07,1.81-.43,6.89-3.23,10.23-10.1,11.44-3.94.69-7.96,1.01-11.96,1.29-4.35.3-4.33.2-4.27,4.4.03,2.11.05,4.22-.07,6.32-.73,12.73-1.47,25.45-2.28,38.18-.12,1.87.01,3.13,2.37,3.12,8.63-.06,17.26-.05,25.89-.02,2.97.01,4.71-1.35,5.26-4.27.22-1.18.63-2.35.71-3.54.78-11.21,1.5-22.42,2.25-33.62ZM503.67,493.76c.38-.1.83-.19,1.27-.34,3.67-1.26,7.33-2.55,11.01-3.8,5.2-1.77,10.54-3.21,15.59-5.34,4.51-1.9,8.77-4.44,13-6.93,1.17-.69,2.23-2.11,2.64-3.41,1.07-3.44,1.73-7,2.59-10.5,2.88-11.69,5.72-23.38,8.69-35.04.59-2.31.19-3.33-2.35-3.47-3-.17-6.04-.38-8.95-1.07-3.28-.78-4.84.04-5.72,3.43-1.95,7.5-7.05,11.4-14.83,11.73-1,.04-2.01.23-3,.14-2.32-.21-3,.88-3.39,3.08-1.67,9.58-3.53,19.13-5.42,28.68-1,5.01-3.73,8.53-8.93,9.91-.88.23-2.03,1.48-2.1,2.33-.24,3.38-.1,6.79-.1,10.61ZM134.74,493.03c0-3.11.08-6.7-.07-10.28-.03-.65-.94-1.67-1.59-1.81-6.41-1.42-8.82-6.04-9.88-11.89-1.66-9.09-3.44-18.16-5.04-27.25-.32-1.8-.91-2.72-2.84-2.63-10.1.45-16.76-3.82-19.17-13.98-.16-.66-1.2-1.64-1.75-1.58-4.86.47-9.7,1.13-15.01,1.8.6,2.48,1.1,4.59,1.61,6.7,2.76,11.52,5.76,22.99,8.19,34.58,1.29,6.14,3.15,11.06,9.72,13.45,6.38,2.32,12.29,5.92,18.66,8.27,5.56,2.05,11.48,3.14,17.18,4.64ZM154.87,648.25h-.17c0,8.34.04,16.67-.03,25.01-.02,2.03.79,2.89,2.71,3.64,5.51,2.15,11.05,4.33,16.25,7.11,5.56,2.98,10.78,6.6,16.07,10.07,1.91,1.25,2.99,1.02,3.93-1.07,1.03-2.29,2.08-4.61,3.5-6.66,1.69-2.44,1.39-3.92-1.09-5.6-7.19-4.88-9.85-11.6-7.66-20.15,1.55-6.03,2.87-12.12,4.47-18.14.6-2.25.02-3.07-2.25-3.36-4.38-.55-8.77-1.14-13.09-2.07-5.91-1.27-10.38-4.48-13.03-10.16-.96-2.05-2.39-4.05-4.09-5.51-.94-.81-2.93-.69-4.37-.47-.51.08-1.09,1.72-1.1,2.65-.09,8.23-.05,16.47-.05,24.7ZM483.71,648.68s-.08,0-.12,0c0-8.23.05-16.45-.06-24.68-.01-1.1-.67-3.04-1.24-3.12-1.48-.21-3.49-.09-4.54.79-1.63,1.37-2.92,3.35-3.84,5.31-2.55,5.44-6.81,8.65-12.49,9.91-4.3.96-8.68,1.61-13.06,2.11-2.67.3-3.34,1.18-2.65,3.86,1.76,6.8,3.33,13.65,4.77,20.52,1.27,6.04-.79,11.07-5.34,15.13-1.2,1.07-2.42,2.11-3.72,3.05-1.4,1.02-1.6,2.05-.72,3.58,1.55,2.69,2.99,5.46,4.36,8.25.82,1.66,1.8,2,3.31.92.73-.53,1.52-.97,2.27-1.48,9.71-6.68,19.76-12.68,31.08-16.32.91-.29,1.89-2.04,1.91-3.12.16-8.23.09-16.46.09-24.69ZM183.51,763.79c.24.45.48.9.71,1.35.64-.94,1.62-1.79,1.85-2.82.91-4.11,1.46-8.3,2.4-12.4.5-2.2-.07-3.23-2.16-4.11-8.11-3.4-10.51-8.98-7.46-17.19,2.2-5.92,4.69-11.74,6.85-17.68.38-1.03.19-3.05-.51-3.57-4.34-3.24-8.86-6.23-13.41-9.16-.66-.42-2.13-.49-2.68-.04-5.25,4.18-10.47,8.41-15.48,12.88-1.1.98-1.83,2.93-1.86,4.46-.32,14.63-.38,29.26-.67,43.89-.08,4.19-.29,4.34,3.86,4.37,9.52.08,19.04.02,28.56.02ZM486,738.28h.33c0-5.33-.03-10.65.01-15.96.01-1.9.03-3.83.34-5.7.43-2.56-.36-4.54-2.29-6.13-4.4-3.64-8.98-7.08-13.17-10.95-2.39-2.21-4.09-1.96-6.46-.17-3.43,2.6-7.03,5.01-10.69,7.27-1.95,1.2-2.25,2.39-1.39,4.44,2.36,5.64,4.63,11.33,6.75,17.07,3.29,8.88,1.08,14.04-7.62,17.83-1.9.83-2.26,1.83-1.83,3.71.82,3.61,1.52,7.26,2.1,10.92.68,4.26.61,4.25,4.74,3.75,1.49-.18,3-.3,4.5-.32,7.62-.12,15.24-.25,22.87-.26,2.62,0,3.48-.92,3.25-3.6-.62-7.29-.97-14.61-1.43-21.92ZM419.42,555.88c2.09-.79,3.37-1.4,4.71-1.76,11.43-3.03,22.87-6.06,34.33-8.98,1.95-.5,2.97-1.28,2.95-3.4-.08-13.03.04-26.07-.19-39.1-.1-5.69-3.05-8.53-9.19-9.74-.17.74-.41,1.48-.5,2.23-.66,5.62-3.68,9.76-8.87,11.51-4.28,1.44-8.94,1.99-13.48,2.32-2.25.16-2.87.58-3.02,2.77-.43,6.3-.96,12.6-1.75,18.86-.5,3.99-2.38,7.4-5.7,9.92-.65.49-1.48,1.45-1.4,2.09.56,4.32,1.34,8.62,2.11,13.28ZM219.04,555.58c.73-4.41,1.5-8.72,2.09-13.05.08-.57-.65-1.45-1.24-1.88-3.75-2.74-5.57-6.59-6.1-11.01-.68-5.67-1.04-11.39-1.55-17.08-.1-1.15-.26-2.3-.41-3.6-6.02.54-11.56-.02-16.76-2.5-5.61-2.68-8.11-7.47-8.53-13.43-5.92.82-9.19,3.95-9.29,9.35-.24,12.94-.19,25.88-.33,38.83-.02,2.41.93,3.44,3.33,4.06,12.71,3.26,25.37,6.72,38.77,10.31ZM105.96,375.16c2.69-.59,7.26-1.63,11.85-2.57,4.07-.84,4.04-.78,3.49-4.94-.91-6.96-1.92-13.92-2.54-20.91-.18-1.98-.58-2.87-2.52-3.26-5.65-1.12-8.87-4.78-10.19-10.23-.42-1.75-.68-3.55-.9-5.34-.49-4.08-.61-4-4.63-2.73-7.63,2.41-15.32,4.65-23.04,6.74-1.91.52-2.37,1.14-2.09,3.06.96,6.45,1.66,12.94,2.57,19.4.7,4.96,1.46,9.92,2.39,14.85.46,2.44,1.87,4.13,4.67,4.32,6.31.43,12.61.96,20.93,1.61ZM533.88,324.11c-.47,2.99-.8,5.65-1.33,8.27-.8,3.96-2.26,8.38-6.22,9.33-6.4,1.55-6.75,5.62-7.03,10.83-.3,5.59-1.6,11.11-2.29,16.69-.12.94.51,2.76,1.05,2.87,5.68,1.11,11.39,2.52,17.13,2.71,6.08.21,12.19-.83,18.29-1.28,2.16-.16,3.68-1.18,4.19-3.25.79-3.2,1.56-6.43,2.01-9.7,1.2-8.54,2.15-17.12,3.36-25.66.28-1.99-.35-2.52-2.17-3.02-7.62-2.08-15.17-4.39-22.75-6.6-1.31-.38-2.63-.73-4.25-1.18ZM206.44,118.79c.45-.39.67-.49.73-.65.21-.56.43-1.13.53-1.71,1.01-5.75,4.52-9.27,9.91-11.02,3.53-1.14,7.08-2.33,10.71-3.01,6.6-1.23,13.29-2.02,19.91-3.17.96-.17,2.53-1.43,2.47-2.06-.65-6.75-1.57-13.46-2.44-20.44-5.04.95-9.6,2.15-14.25,2.63-22.65,2.32-45.32,4.49-67.99,6.58-2.38.22-2.9,1.01-2.51,3.16.83,4.64,1.51,9.31,2.3,13.96.12.71.47,1.39.92,2.64,2.67-2.91,4.97-5.39,7.26-7.89,7.55-8.23,13.96-7.76,20.18,1.49.39.58.77,1.18,1.13,1.78,3.09,5.05,6.17,10.1,9.28,15.14.55.89,1.23,1.69,1.86,2.56ZM431.94,119.2c.77-1.14,1.39-2,1.95-2.9,4.01-6.38,7.76-12.93,12.06-19.1,4.56-6.55,11.27-6.84,16.89-1.11,2.18,2.22,4.17,4.62,6.3,6.9.77.83,1.68,1.53,3.15,2.86,1.01-6.54,1.94-12.25,2.66-18,.06-.51-1.25-1.66-2.01-1.74-13.08-1.42-26.16-2.82-39.26-4.01-14.09-1.28-28.29-1.64-42.11-5.18-.34-.09-.75.08-1.35.16-.82,6.13-1.52,12.19-2.48,18.22-.46,2.88.49,3.75,3.34,4.19,8.62,1.32,17.22,2.86,25.77,4.63,7.68,1.59,13.31,5.58,14.35,14.1.02.17.23.32.74.99ZM278.99,745.92c-.3,3.31-.25,5.66-.75,7.88-1.6,7.14-3.45,14.22-5.11,21.34-1.06,4.53-.94,4.91,3.82,4.95,15.04.14,30.08,0,45.12.02,9.33,0,18.65.13,27.98.14,4.11,0,8.23.02,12.33-.21,3.82-.21,3.87-.54,3.22-4.19-1.74-9.8-6.47-18.97-5.74-29.95-.95,1.02-1.39,1.39-1.71,1.85-3.15,4.53-6.39,9-9.39,13.63-2.42,3.73-5.58,5.08-9.98,4.44-5.24-.76-10.55-1.56-15.83-1.55-7.19.01-14.48.2-21.55,1.38-6.51,1.09-10.18-1.29-13.25-6.61-2.52-4.37-5.77-8.32-9.16-13.11ZM204.44,195.61c.18.25.36.49.53.74,3-1.22,6.19-2.14,8.98-3.73,6.13-3.51,12.02-4.37,17.88.36,2.17,1.76,3.13.68,4.28-1.38,2.34-4.19,4.87-8.3,7.61-12.24,2.37-3.42,5.94-4.88,10.09-5.16,4.6-.31,9.2-.77,13.78-1.31,7.95-.94,7.99-.99,7.54-8.98-.05-.93-.7-2.09-1.45-2.67-5.14-3.98-10.33-7.91-15.61-11.71-2.67-1.92-5.47-3.72-8.4-5.19-.82-.41-2.88.14-3.43.92-5.65,8.03-12.54,14.88-19.84,21.35-7.35,6.52-13.45,14.05-18.24,22.63-1.2,2.14-2.48,4.24-3.73,6.36ZM433.98,196.62c-.24-1.22-.23-1.54-.36-1.78-6.05-10.72-13.09-20.57-22.25-29.01-6.82-6.29-12.73-13.58-18.92-20.54-1.22-1.37-2.31-1.93-3.84-.99-2.97,1.84-5.99,3.63-8.79,5.72-3.86,2.88-7.17,6.73-11.37,8.84-4.81,2.42-5.77,5.54-4.97,10.29.34,2.04.89,3.05,3.02,3.24,6.1.55,12.17,1.31,18.27,1.82,4.14.35,7.69,1.83,10.07,5.24,2.63,3.78,5.04,7.72,7.31,11.72,1.92,3.38,1.99,3.72,5.06,1.46,5.54-4.06,10.91-3.57,16.61-.46,3.03,1.65,6.35,2.8,10.17,4.44ZM145.33,401.3c2.2,4.44,4.28,8.53,6.27,12.67,2.13,4.43,4.09,8.95,6.25,13.36,1.56,3.19,4.22,5.16,7.77,5.5,6.69.63,13.39,1.12,20.09,1.57.84.06,1.74-.4,2.56-.75,6.82-2.9,13.6-5.88,20.46-8.7,1.58-.65,2.23-1.41,2.01-3.11-.44-3.39-1.02-6.79-1.04-10.18-.02-2.98-1.1-3.97-4.02-4.14-12.82-.75-25.62-1.75-38.43-2.58-4.59-.3-8.43-1.62-10.62-6.11-.28-.59-1.68-1.16-2.3-.96-2.94.95-5.79,2.17-9.01,3.42ZM452.9,434.56c6.2-.44,11.8-.86,17.41-1.21,5.7-.36,9.4-3.27,11.73-8.45,3.29-7.32,6.84-14.52,10.35-21.73.72-1.47.43-2.16-1.09-2.67-2.28-.76-4.48-1.83-6.8-2.41-.8-.2-2.37.37-2.74,1.05-1.89,3.55-4.87,5.33-8.69,5.66-8.38.73-16.78,1.33-25.17,1.93-5.41.38-10.82.7-16.23.97-2.01.1-2.76.99-2.87,2.99-.19,3.5-.49,7.02-1.04,10.48-.39,2.41.51,3.24,2.68,4.09,6.52,2.55,12.9,5.47,19.35,8.21,1.17.5,2.41.85,3.12,1.1ZM494.16,471.59c.01-.12.03-.23.04-.35,2.1-.15,4.2-.45,6.3-.41,3.1.06,4.49-1.4,4.89-4.39,1.19-8.95,2.47-17.88,3.81-26.81.3-1.96-.47-2.7-2.22-3.15-4.17-1.08-8.35-2.17-12.46-3.47-2.31-.73-3.5-.02-4.51,2.04-2.6,5.25-6.91,8.47-12.49,10.08-7.09,2.05-14.27,3.34-21.67,2.12-1.99-.33-3.04.1-3.2,2.29-.27,3.7-.63,7.4-1.06,11.08-.24,2.01.53,2.82,2.49,3.25,9.3,2.06,18.53,4.4,27.85,6.35,3.99.83,8.14.93,12.21,1.36ZM144.21,471.24c.01.11.03.23.04.34,3.98-.41,8.03-.47,11.92-1.29,9.52-1.99,18.95-4.38,28.45-6.47,1.95-.43,2.41-1.32,2.22-3.12-.4-3.69-.74-7.39-1-11.09-.15-2.12-1.13-2.72-3.17-2.37-6.35,1.1-12.56.14-18.78-1.27-7.03-1.59-12.59-4.96-15.99-11.59-.43-.85-2.25-1.54-3.3-1.4-2.56.35-5.06,1.22-7.57,1.91q-8.02,2.23-6.84,10.34c1.05,7.35,2.07,14.7,3.06,22.05.3,2.24,1.44,3.37,3.75,3.44,2.4.08,4.8.33,7.2.5ZM421.36,565.77c.09.7.22,1.97.4,3.23.98,7.05,2.11,14.09,2.93,21.16.73,6.32-2.16,10.96-7.72,13.72-3.3,1.64-6.87,2.78-10.39,3.91-1.77.57-2.21,1.34-1.65,3.06,1.35,4.1,2.57,8.24,3.87,12.35,1.15,3.65,1.14,3.58,4.76,2.15,11.28-4.46,20.46-12.13,30.09-19.19,4.57-3.35,5.51-6.71,4.36-11.95-2.31-10.48-4.1-21.07-5.95-31.65-.4-2.28-1.37-2.16-3.1-1.66-5.64,1.63-11.32,3.14-17.61,4.87ZM189.41,600.2c.58.86,1.18,2.38,2.28,3.28,4.83,3.92,9.59,7.98,14.78,11.36,5.85,3.82,12.07,7.11,18.27,10.35,3.6,1.88,3.74,1.64,4.94-2.11.86-2.67,1.7-5.35,2.52-8.04q1.93-6.36-4.49-8.42c-11.88-3.81-15.23-8.98-13.59-21.32.79-5.96,1.93-11.88,2.74-17.84.11-.84-.59-2.45-1.2-2.62-5.39-1.45-10.87-2.57-16.27-3.99-1.97-.52-2.62-.12-2.97,1.91-1.39,8.1-2.95,16.17-4.47,24.25-.78,4.14-1.59,8.27-2.54,13.19ZM143.46,271.13c3.29.63,3.3-1.19,3.38-2.98.48-11.03,1.08-22.06,1.41-33.09.29-9.4,3.64-16.73,12.59-20.89.79-.37,1.45-2.09,1.34-3.09-.45-4.18-1.36-8.32-1.82-12.5-.29-2.63-1.5-3.49-3.76-2.47-6.74,3.03-13.46,6.12-20.07,9.42-1.06.53-1.85,2.14-2.21,3.41-1.22,4.34-2.49,8.7-3.21,13.14-2.42,15.08-.83,30.26-.69,45.4,0,.85,1.58,2.25,2.6,2.44,3.65.65,7.37.89,10.43,1.22ZM508.18,247.97c.7-13.09.39-26.11-3.92-38.68-.44-1.29-1.01-2.93-2.04-3.54-6.6-3.98-13.13-8.15-20.83-9.83-2.04-.45-2.97.16-3.23,2.26-.49,3.98-.93,7.99-1.82,11.89-.55,2.42-.04,3.64,2.18,4.72,5.37,2.61,9.4,6.55,10.67,12.63.55,2.64.9,5.35,1.04,8.04.56,10.92,1.04,21.85,1.45,32.77.09,2.49,1,3.37,3.54,2.95,3.26-.54,6.57-.86,9.86-1.1,2.27-.17,3.14-1.22,3.12-3.45-.07-6.22-.02-12.44-.02-18.66ZM461.44,552.72c.17.24.33.48.5.72.66.15,1.31.37,1.97.45,10.25,1.28,20.5,2.62,30.76,3.8,9.77,1.12,9.76,1.03,14.03-7.87,4.73-9.87,8.72-20.19,14.49-29.41,4.11-6.56,3.53-11.1-1.21-16.29-1.23-1.34-2.24-2.04-4.08-1.65-3.92.84-7.86,1.75-11.84,2.17-3.04.31-3.61,1.7-3.73,4.46-.3,6.8-.68,13.63-1.66,20.36-.96,6.62-5.28,10.4-11.96,11.27-2.18.28-4.42.64-6.59.46-4.35-.36-8.66-1.06-13.36-1.67-.6,5.07-.22,11.11-7.32,13.21ZM169.71,539.08c-3.06.7-5.56,1.47-8.12,1.79-2.67.33-5.41.39-8.1.26-10.56-.51-14.94-4.26-16.37-14.72-.82-6.04-.86-12.2-1.08-18.31-.07-2.09-.74-3-2.89-3.3-4.17-.59-8.3-1.43-12.42-2.3-1.94-.41-3.49-.07-4.25,1.79-1.41,3.46-6.59,5.55-4.24,10.34,4.72,9.63,9.69,19.14,14.53,28.71,2.22,4.38,4.25,8.87,6.66,13.14.57,1.02,2.37,2,3.53,1.92,7.5-.55,15-1.26,22.46-2.18,5.72-.71,11.4-1.81,17.1-2.73-6.27-2.92-6.55-8.57-6.81-14.39ZM183.45,563.58c-1.8.26-2.99.35-4.14.62-4.98,1.18-9.92,2.54-14.93,3.57-2.8.57-4.77,1.52-5.52,4.61-.38,1.56-1.71,2.91-2.68,4.3-1.65,2.39-3.48,4.68-4.96,7.18-.44.75-.38,2.51.18,3.04,5.05,4.84,8.21,10.89,11.12,17.07,3.15,6.7,6.75,13.05,12.58,17.76,1.96,1.58,4.3,3.16,6.69,3.65,4.5.92,9.15,1.13,13.76,1.42.86.05,2.23-.72,2.55-1.47.3-.7-.21-2.11-.83-2.77-3.64-3.86-7.29-7.74-11.2-11.34-4.21-3.88-5.68-8.53-5.18-14.1.71-8,1.29-16.01,1.9-24.02.23-2.97.41-5.95.65-9.52ZM442.5,626.88c4.81-.43,8.74-.57,12.59-1.21,2.3-.38,4.98-1,6.6-2.49,4.17-3.83,8.63-7.52,11.03-12.96,1.45-3.3,3.07-6.56,4.93-9.64,2.53-4.19,4.96-8.56,8.19-12.18,2.21-2.48,2.06-3.95.41-6.35-2.7-3.94-5.06-8.12-7.68-12.11-.49-.75-1.5-1.38-2.38-1.61-5.73-1.46-11.48-2.87-17.26-4.15-3.92-.87-3.97-.75-3.69,3.14.76,10.51,1.58,21.01,2.32,31.52.27,3.84-.54,7.42-3.31,10.29-4.25,4.4-8.57,8.72-12.75,13.18-.7.75-1.45,2.23-1.15,2.93.39.91,1.81,1.39,2.18,1.64ZM211.36,499.46c-.22-2.7-.3-4.77-.57-6.81-.7-5.48,1.07-10.04,4.81-14.01,3.56-3.77,7.83-6.33,12.85-7.4,2.74-.58,3.08-1.77,2.31-4.21-1.03-3.25-1.9-6.57-2.46-9.93-.42-2.48-1.45-3.6-4-3.92-5.74-.72-9.2-4.15-10.44-9.76-.52-2.35-.83-4.74-1.28-7.11-.16-.82-.45-1.62-.85-3.02-4.69,2.13-9,3.99-13.19,6.08-.75.38-1.45,1.7-1.47,2.6-.32,14.94-.55,29.88-.74,44.83-.03,2.1-.04,4.27.46,6.28.32,1.28,1.38,2.99,2.49,3.35,3.75,1.24,7.68,1.97,12.08,3.02ZM427.1,499.41c4.22-.95,7.83-1.71,11.41-2.59,2.1-.52,3.19-2.03,3.29-4.17.11-2.6.2-5.21.17-7.81-.16-14.14-.32-28.28-.62-42.42-.02-1.13-.9-2.7-1.86-3.25-2.77-1.59-5.75-2.86-8.72-4.07-4.48-1.83-4.51-1.76-5.17,2.89-.14.99-.35,1.98-.49,2.97-.98,7.1-4.58,11.57-12.03,12.57-.99.13-2.23,1.54-2.58,2.62-.98,3.05-1.49,6.24-2.31,9.35-1.24,4.68-1.29,4.65,3.44,6.15,1.15.36,2.28.79,3.37,1.29,9.25,4.19,13.4,11.35,12.43,21.41-.14,1.46-.2,2.94-.34,5.06ZM475.64,791.8c-.24-4.77-.54-8.58-.58-12.39-.02-2.29-.96-2.96-3.13-2.81-4.91.33-9.83.42-14.73.79-.88.07-2.38.92-2.44,1.53-.66,6.76-5.5,10.27-10.45,13.59-4.41,2.96-9.08,5.53-13.54,8.42-.74.48-1.61,2.03-1.35,2.59,2.68,5.83,5.61,11.54,8.38,17.32.84,1.75,1.95,2.12,3.63,1.32,10.51-4.98,21.07-9.86,31.49-15.02,1.29-.64,2.46-2.74,2.6-4.27.36-3.98.12-8.02.12-11.07ZM162.81,791.6c0,3.06.06,6.98-.02,10.89-.05,2.41,1.01,4.04,3.1,5.03,10.15,4.8,20.32,9.53,30.45,14.38,2.56,1.23,3.75.36,4.82-2.04,2.28-5.13,4.62-10.25,7.33-15.15,1.23-2.22.75-2.97-1.17-4.16-5.88-3.63-11.7-7.37-17.39-11.3-3.31-2.29-5.47-5.48-6.08-9.67-.12-.86-1.58-2.08-2.51-2.17-4.99-.44-10.02-.51-15.02-.83-2.1-.13-2.83.65-2.87,2.73-.07,3.81-.38,7.62-.64,12.27ZM97.35,385.13c.44,2.14.74,3.69,1.06,5.23,2.35,11.1,4.55,22.23,7.13,33.28,1.36,5.8,2.09,6.52,7.94,5.47,9.06-1.63,17.97-4.1,26.94-6.25,1.76-.42,1.42-1.56.89-2.81-1.95-4.63-3.77-9.31-5.85-13.88-.46-1.02-1.65-2.21-2.67-2.39-4.4-.8-6.62-3.58-7.53-7.62-.79-3.52-1.31-7.1-1.96-10.66-.19-1.02-.44-2.03-.73-3.38-8.17,3.39-16.28,4.14-25.24,3ZM541.02,385.64c-.78-.16-1.17-.35-1.54-.31-7.49.79-14.82.19-21.91-2.53-1.94-.75-2.14.55-2.38,1.97-.69,4.05-1.31,8.12-2.24,12.12-.84,3.58-3.11,5.88-6.85,6.82-1.21.3-2.62,1.47-3.15,2.6-2.07,4.45-3.75,9.09-5.75,13.57-.96,2.15-.17,2.81,1.81,3.29,3.22.77,6.34,1.94,9.57,2.61,6.26,1.3,12.56,2.42,18.86,3.52,2.47.43,4.05-.8,4.69-3.18,1.01-3.77,2.1-7.53,2.92-11.35,2.04-9.59,3.95-19.22,5.97-29.13ZM204.86,750.39c-3.02-.87-3.99.57-4.42,3.44-.74,4.85-1.9,9.64-2.94,14.45-1.89,8.76-3.56,7.55,5.24,13.24,8.33,5.38,17.21,9.9,25.72,15,2.4,1.43,3.41,1.1,4.36-1.44,3.35-8.93,6.86-17.79,10.28-26.69,1.32-3.44,1.2-3.67-2.4-4.31-6.42-1.14-12.87-2.12-19.28-3.32-4.61-.86-8.73-2.86-10.86-7.26-1.28-2.64-2.92-3.65-5.7-3.11ZM433.48,749.71c-1.53.71-3.88,1.03-4.44,2.21-2.96,6.22-8.23,8.4-14.48,9.37-5.85.91-11.67,1.98-17.52,2.94-1.87.31-3.02.87-2.12,3.15,3.68,9.34,7.29,18.7,10.88,28.07.79,2.06,1.8,2.65,3.81,1.28,1.82-1.24,3.88-2.1,5.77-3.23,8.08-4.85,16.13-9.75,24.2-14.6,2.65-1.59,3.11-3.75,2.39-6.69-1.5-6.14-2.87-12.32-3.94-18.55-.48-2.79-1.45-4.05-4.56-3.95ZM565.97,417.8c4.17.21,5.32-.31,6.63-3.28,1.81-4.13,3.61-8.29,5.01-12.57,3.07-9.44,5.87-18.96,8.8-28.44.63-2.04-.17-3.01-2.2-3.27-4.18-.52-8.36-1.04-12.53-1.67-4.11-.62-4.16-.68-5,3.23-1.44,6.68-5.06,11.07-12.19,11.77-1.9.19-2.5,1.16-2.7,2.91-.25,2.18-.7,4.36-1.24,6.5-1.55,6.23-3.19,12.44-4.77,18.66-.33,1.28-.81,2.62,1.25,2.96,6.63,1.1,13.25,2.24,18.95,3.2ZM71.01,418.03c6.32-1.07,12.63-2.27,18.98-3.15,2.74-.38,3.23-1.36,2.56-3.93-2.07-7.85-4.08-15.72-5.74-23.67-.51-2.46-1.19-3.62-3.8-3.92-5.57-.64-9.03-3.98-10.62-9.29-.43-1.44-.54-3.01-1.17-4.34-.34-.72-1.52-1.58-2.23-1.5-4.68.49-9.33,1.3-14.01,1.83-2.74.31-3.69,1.45-2.85,4.16,2.74,8.8,5.29,17.67,8.17,26.43,1.53,4.66,3.54,9.16,5.4,13.71.95,2.31,2.48,3.91,5.31,3.68ZM262.74,576.59c-4.51-1.44-8.52-2.65-12.49-4-4.08-1.39-6.91-4.08-7.84-8.39-1.23-5.68-2.39-11.39-3.49-17.1-.3-1.58-.48-3.23-2.61-2.78-2.03.43-5.01-1.23-5.55,2.78-.64,4.77-1.73,9.47-2.7,14.19-1.87,9.14-3.91,18.25-5.64,27.41-.83,4.39-.37,5.38,3.83,6.34,7.6,1.74,15.32,2.92,23,4.33,2.72.5,4.38-.76,5.38-3.2,2.63-6.38,5.28-12.75,8.12-19.59ZM375.68,576.56c2.81,6.81,5.41,13.09,7.99,19.38,1.08,2.65,2.87,4,5.84,3.44,7.57-1.43,15.19-2.6,22.68-4.33,4.13-.95,4.64-2,3.86-6.06-2.76-14.27-5.65-28.52-8.6-42.76-.65-3.13-3.5-1.48-5.32-1.81-.66-.12-2.08,1.1-2.28,1.92-1.18,4.76-2.43,9.55-3.02,14.41-.85,7.01-4.56,11.06-11.25,12.79-3.18.82-6.29,1.9-9.9,3.01ZM335.62,545.06c-3.79-.33-7.4.03-10.48-1.08-4.18-1.51-7.83-1.48-11.95.04-2.44.9-5.35.61-8.05.69-1.78.05-2.29.73-1.93,2.43.79,3.73,1.63,7.46,2.17,11.23.34,2.35.75,4.95.11,7.13-1.19,4.04-.38,7.87-.23,11.86.27,7.21,6.15,8.7,10.75,10.98,3.95,1.96,12.92-1.81,15.6-5.45.35-.47.67-1.05.76-1.61.83-5.09,2.66-10.06.68-15.38-.72-1.93-.4-4.38-.08-6.52.69-4.64,1.69-9.24,2.65-14.31ZM602.8,316.78c0-2.95-.05-6.36.02-9.77.04-2.19-.33-3.84-2.91-4.47-2.47-.61-3.2.92-4.08,2.54-3.16,5.81-6.24,11.67-9.51,17.42-2.53,4.45-5.75,8.2-10.96,9.75-.76.23-1.64,1.26-1.81,2.06-1.44,6.77-2.65,13.58-4.1,20.34-.49,2.29.25,2.83,2.45,3.2,6.61,1.1,13.21,2.39,19.74,3.9,4.48,1.04,4.5,1.28,5.64-3.1,3.54-13.57,4.33-27.51,5.51-41.87ZM35.69,316.79c.21,3.1.22,6.23.67,9.3,1.67,11.39,3.47,22.77,5.24,34.15.34,2.19,1.41,2.54,3.6,2.03,7.11-1.67,14.28-3.14,21.47-4.43,2.08-.37,2.77-.93,2.34-3.04-1.42-6.87-2.69-13.78-4.11-20.65-.14-.67-.77-1.6-1.36-1.76-7.04-1.95-10.25-7.66-13.4-13.43-2.6-4.75-5.17-9.52-7.7-14.3-.88-1.66-1.84-2.68-4.02-2.08-2.2.61-2.8,1.91-2.75,3.97.08,3.41.02,6.82.03,10.23ZM239.82,441.94c.01.13.02.25.03.38,6.19-.57,12.38-1.12,18.56-1.72,1.92-.19,3.06-1.06,3.12-3.27.19-6.42.5-12.84.85-19.26.11-2.06-.54-3.12-2.73-3.43-11.01-1.54-21.99-3.26-33-4.79-5.82-.81-5.84-.69-5.29,5.1.75,7.79,1.54,15.58,2.25,23.38.24,2.63,1.62,3.67,4.16,3.63,4.01-.06,8.03-.02,12.05-.02ZM398.48,442.31c.01-.07.02-.14.03-.21,1.9,0,3.81.01,5.71,0,1.6-.01,3.21-.05,4.81-.1,5.22-.17,5.48-.24,6.04-5.3.89-8.07,1.45-16.18,2.36-24.25.31-2.72-.51-3.31-3.07-2.92-11.86,1.79-23.74,3.48-35.63,5.13-2.09.29-2.61,1.39-2.52,3.29.3,6.41.6,12.82.75,19.24.05,2.32,1.22,3.26,3.28,3.45,6.08.57,12.16,1.11,18.24,1.66ZM187.42,475.87c-.26-.32-.52-.65-.78-.97-.83.22-1.66.45-2.5.67-11.99,3.12-23.66,7.92-36.41,7.15-1.89-.12-2.06.95-2.03,2.47.17,10.23.24,20.46.44,30.68.08,3.8.25,7.63.73,11.39.5,3.9,1.57,5.02,5.49,4.9,4.37-.14,8.72-1.13,13.09-1.52,2.56-.23,2.94-1.3,2.71-3.71-.78-8.38-1.35-16.78-1.81-25.18-.21-3.8.81-7.36,3.4-10.32,1.78-2.04,3.3-4.38,5.34-6.1,3.18-2.66,6.72-4.89,10.07-7.35.82-.6,1.5-1.39,2.24-2.1ZM451.87,474.99l-.79.74c.74.76,1.34,1.85,2.24,2.23,11.53,4.85,19.16,16.03,18.73,28.36-.24,7.01-1.22,13.99-1.74,20.99-.07.97.47,2.8.94,2.87,5.13.82,10.29,1.53,15.46,1.94,2.81.23,4.51-1.47,4.77-4.32.32-3.49.71-6.99.78-10.5.23-10.63.26-21.27.51-31.91.05-2.22-.76-2.82-2.8-2.68-6.81.47-13.37-.93-19.87-2.78-6.06-1.72-12.16-3.31-18.24-4.96ZM322.61,600.51c7.29,9.32,12.4,19.51,20.58,27.6.46-.51.82-.75.96-1.08,4.91-11.33,12.41-21.03,21.05-29.48,5.8-5.67,5.9-10.66,2.73-16.97-.04-.09-.04-.23-.1-.28-.93-.66-1.84-1.8-2.82-1.87-4.19-.3-8.41-.19-12.61-.4-1.83-.09-2.76.52-3.28,2.27-.83,2.78-1.82,5.52-2.84,8.25-3.5,9.37-6.66,11.51-16.59,11.49-2.24,0-4.48.29-7.07.47ZM315.52,601.03c-.04-.34-.09-.68-.13-1.02-3.07,0-6.15.04-9.22,0-6.57-.09-11.04-3.12-13.17-9.44-1.12-3.33-2.44-6.6-3.45-9.96-.6-1.98-1.56-2.7-3.68-2.57-4.1.27-8.22.33-12.33.26-1.71-.03-2.57.47-3.04,2.12-.71,2.51-1.51,5.01-2.46,7.43-.8,2.03-.4,3.33,1.15,5.01,9.38,10.2,18.76,20.44,24.68,33.23.31.67.82,1.26,1.75,2.65,6.86-9.55,13.38-18.63,19.89-27.7ZM342.41,735.01c-2.12-1.54-4.53-2.49-5.63-4.26-2.37-3.77-3.97-8.02-6.11-11.94-.45-.82-2.06-1.7-2.89-1.5-5.69,1.35-11.29,1.33-16.98.03-.86-.2-2.25.68-2.96,1.46-.76.84-.75,2.41-1.53,3.21-3.77,3.88-2.87,11.59-10.43,12.24.21.74.24,1.26.48,1.66,2.19,3.7,4.48,7.34,6.6,11.08,1.07,1.88,2.52,2.58,4.49,1.97,7.9-2.42,15.76-2.4,23.69-.06,1.09.32,3.17-.16,3.7-.98,2.81-4.34,5.27-8.91,7.57-12.91ZM350.33,54.33c-.07-1.2-.27-2.41-.2-3.6.17-2.85-1.03-4.2-3.86-5.05-5.37-1.61-10.57-3.78-15.85-5.7-5.93-2.16-11.92-3.6-18.18-1.3-4.8,1.76-9.61,3.49-14.39,5.29-3.04,1.15-7.22,1.59-8.75,3.82-1.67,2.43-.77,6.57-1.16,9.95-.33,2.85.88,3.57,3.47,3.05,6.19-1.24,12.43-2.29,18.6-3.64,6.09-1.33,12.11-1.38,18.19-.03,5.19,1.16,10.39,2.33,15.63,3.16,7.56,1.19,6.76,1.6,6.49-5.94ZM290.38,822.57c.23-1.43.51-2.68.62-3.95.5-5.59.8-11.2,1.49-16.77.49-4.01.71-4-3.45-4.41-6.58-.66-13.18-1.23-19.75-1.97-7.06-.79-10.66-4.3-10.91-11.26-.16-4.27.39-8.59.93-12.85.26-2.05.08-3.21-2.18-3.67-1.96-.4-3.57-1.02-4.42,1.76-1.69,5.56-3.61,11.06-5.6,16.52-.87,2.37-.47,4.04,1.25,5.94,6.94,7.64,13.69,15.46,20.54,23.18.65.73,1.45,1.53,2.34,1.8,6.21,1.92,12.45,3.71,19.16,5.68ZM384.12,767.28c-4.23-.05-5.21,1.21-4.73,4.89.43,3.28.9,6.58.9,9.88-.02,9.04-3.59,12.75-12.55,13.58-6.6.61-13.2,1.24-19.77,2.02-.86.1-2.33,1.27-2.29,1.86.52,7,1.28,13.98,1.95,20.97.18,1.83.87,2.38,2.77,1.75,5.33-1.77,10.73-3.31,16.06-5.06,1.09-.36,2.22-1.05,2.98-1.9,7.15-8.01,14.28-16.05,21.25-24.21.8-.93,1.2-2.84.84-4.01-1.83-6.05-3.93-12.02-6.03-17.99-.28-.79-1.07-1.4-1.39-1.79ZM404.84,220.94s.09,0,.13,0c.12-2.4.2-4.81.36-7.21.12-1.77-.34-2.86-2.38-2.98-3.18-.19-4.76-2.25-6.13-4.99-2.87-5.71-6.05-11.28-9.29-16.79-.63-1.07-2.06-2.22-3.23-2.35-8.87-.95-17.77-1.62-26.65-2.45-1.97-.18-2.72.55-2.73,2.51-.02,3.11-.1,6.22-.37,9.32-.21,2.38.58,3.39,3.03,3.76,6.24.95,12.44,2.15,18.64,3.32,4.58.86,8.18,3.31,10.55,7.32,3.26,5.52,6.36,11.14,9.52,16.72.39.7.54,1.82,1.1,2.08,1.91.89,3.93,1.63,5.98,1.99.26.05,1.25-2.51,1.42-3.92.25-2.08.06-4.2.06-6.31ZM233.27,220.78c.14,0,.28,0,.42,0,0,2.11-.13,4.22.04,6.32.11,1.4.43,3.84,1.03,3.96,1.63.32,3.57-.05,5.17-.71.92-.38,1.49-1.78,2.07-2.81,3.27-5.75,6.43-11.57,9.77-17.27,2.3-3.93,5.88-6.28,10.34-7.13,6.3-1.2,12.61-2.4,18.94-3.38,2.29-.35,3.13-1.24,2.9-3.53-.27-2.69-.31-5.41-.38-8.12-.11-4.12-.11-4.18-4.36-3.81-8.19.71-16.39,1.39-24.56,2.28-1.21.13-2.79,1.01-3.39,2.02-3.34,5.57-6.63,11.19-9.52,17.01-1.42,2.86-2.96,4.99-6.3,5.16-1.69.08-2.24.88-2.19,2.5.09,2.5.02,5.01.02,7.52ZM405.17,683.42c.42-.12.89-.2,1.32-.39,5.67-2.51,11.35-5,16.99-7.57,4.28-1.95,8.62-3.8,12.73-6.07,4.6-2.53,4.83-3.3,3.07-8.19-3.41-9.43-7-18.79-10.45-28.2-.64-1.74-1.54-1.79-2.97-1.03-3.45,1.84-6.9,3.68-10.41,5.39-1.6.78-1.75,1.82-1.42,3.42.84,4.02,1.54,8.07,2.18,12.13.55,3.47-1.12,6.16-2.67,9.21-3.38,6.63-5.86,13.71-8.68,20.61-.05.12.16.34.32.68ZM234,683.64c-.59-1.96-.9-3.51-1.51-4.92-2.42-5.58-4.58-11.32-7.56-16.59-1.64-2.9-3.25-5.53-2.74-8.9.64-4.16,1.53-8.28,2.12-12.45.14-.98-.18-2.63-.85-3.02-3.63-2.13-7.4-4.03-11.22-5.8-.56-.26-2.17.4-2.4.98-3.61,9.25-7.16,18.53-10.55,27.86-1.96,5.39-1.88,6.25,3.39,8.79,10.07,4.86,20.41,9.19,31.32,14.05ZM276.03,742.37c-1.87-2.35-3.6-3.95-4.63-5.92-4.39-8.32-11.91-10.09-20.37-10.36-5.55-.18-10.87-1.45-16.01-3.75-3.14-1.4-6.6-2.07-9.87-3.06-.36.76-.6,1.03-.59,1.29.24,5.91.44,11.82.84,17.73.05.78.95,1.73,1.7,2.18,1.01.6,2.24.89,3.41,1.14,10.39,2.22,20.78,4.43,31.2,6.53.81.16,2.22-.25,2.61-.87,2.57-4.11,6.18-5.77,11.71-4.9ZM362.77,742.32c5.19-.73,8.75.78,11.32,4.79.49.76,2.5,1.01,3.69.8,5.32-.95,10.61-2.12,15.89-3.27,5.58-1.22,11.14-2.51,16.71-3.76,2.08-.47,2.92-1.7,2.93-3.87.02-3.81.32-7.61.45-11.42.06-1.95.01-3.9.01-6.22-1.76.42-3.34.64-4.8,1.18-8.39,3.07-16.81,5.94-25.89,6.06-.5,0-.99.17-1.49.19-5.2.21-9.42,1.89-12.04,6.86-1.14,2.16-3.18,3.85-4.78,5.78-.6.73-1.09,1.57-1.99,2.88ZM140.32,345.21c0-.13,0-.25,0-.38-2.3,0-4.61.05-6.91-.02-1.82-.05-2.4.57-2.24,2.5.87,10.18,1.57,20.38,2.35,30.56.31,4.09.67,8.19.99,12.28.16,2.03,1.16,2.59,3.04,1.89,3.19-1.19,6.46-2.19,9.57-3.55,6.69-2.91,6.66-2.98,5.81-10.3-.06-.5-.11-1-.16-1.5-.82-9.38-1.7-18.76-2.41-28.16-.19-2.55-1.17-3.58-3.74-3.38-2.09.16-4.2.03-6.31.03ZM485.17,383.14c-.24.13-.47.27-.71.4.81.96,1.43,2.3,2.47,2.82,3.31,1.66,6.72,3.17,10.19,4.45,6.69,2.47,6.74,2.39,7.29-4.77.99-13,1.91-26.01,2.95-39.01.15-1.93-.72-2.24-2.26-2.19-4.51.15-9.03.38-13.54.36-2.34-.01-3.15.95-3.34,3.17-.96,11.6-2.03,23.19-3.06,34.78ZM345.68,730.93c.19.13.39.26.58.4.88-.72,1.78-1.43,2.65-2.17,3.67-3.13,7.33-6.26,10.99-9.4,2.91-2.5,6.28-3.72,10.08-4.32,5.94-.94,11.82-2.28,17.71-3.52,1.72-.36,2.85-1.09,2.24-3.37-1.43-5.32-2.71-10.69-3.83-16.08-.52-2.5-1.76-3.03-3.82-2.05-3.08,1.46-6.19,2.9-9.09,4.66-7.82,4.73-15.49,9.71-23.34,14.39-2.09,1.25-2.44,2.67-2.48,4.9-.07,4.38-.56,8.76-.96,13.13-.1,1.15-.47,2.28-.72,3.42ZM292.43,731.44c0-1.31.08-1.72-.01-2.08-1.37-5.29-2.03-10.59-1.31-16.09.14-1.08-1.04-2.79-2.1-3.5-4.23-2.86-8.61-5.52-13.01-8.12-6.38-3.77-12.75-7.56-19.29-11.05-2.86-1.52-3.63-.82-4.24,2.34-.78,4.03-1.41,8.11-2.54,12.05-1.9,6.61-2.01,6.4,4.84,7.64,6.4,1.16,12.93,2.15,19.01,4.31,3.79,1.35,6.94,4.63,10.25,7.21,2.72,2.13,5.24,4.52,8.4,7.27ZM230.67,534.23c.38-.03,1.28-.07,2.17-.19,4.63-.59,4.61-.66,4.09-5.19-.7-6.07-1.25-12.16-1.92-18.24-.74-6.73.37-12.97,4.56-18.5.51-.68.91-2.02.58-2.67-1.21-2.41-2.66-4.7-4.21-6.92-.32-.46-1.5-.68-2.13-.5-3.08.87-6.2,1.71-9.13,2.97-3.82,1.65-4.46,3.21-4.2,7.35.4,6.4.68,12.81.99,19.21.26,5.3.27,10.63.79,15.91.54,5.48,2.31,6.79,8.41,6.77ZM408.05,534.19c5.82.12,7.56-1.35,8.2-7.12.29-2.59.4-5.21.52-7.81.39-8.72.65-17.46,1.14-26.17.29-5.09-.46-6.62-5.1-8.6-1.11-.47-2.26-.85-3.41-1.2q-5.99-1.8-9.32,3.29c-.33.5-.62,1.05-1.02,1.49-1.32,1.45-1.14,2.78.01,4.29,3.86,5.04,5.12,10.8,4.48,17.05-.62,6.09-1.17,12.19-1.86,18.28-.69,6.11-.7,6.17,5.45,6.5.3.02.6,0,.9,0ZM430.15,724.28h-.13c0,3.71.02,7.43,0,11.14-.02,2.05.86,2.71,2.83,2.09,4.02-1.27,8.09-2.37,12.08-3.73,3.74-1.27,3.94-1.72,2.49-5.49-2.66-6.91-5.34-13.73-9.63-19.97-3.53-5.13-5.73-11.2-8.28-16.97-1-2.25-2.02-2.81-4.33-1.89-4.37,1.75-8.78,3.51-13.31,4.76-5.11,1.42-5.18,1.18-4.35,6.46.02.1.03.2.04.3.06,2.47,1.39,3,3.62,2.6,2.27-.4,4.58-.73,6.87-.77,7.42-.15,11.73,3.85,12.08,11.23.16,3.41.03,6.83.03,10.24ZM208.49,724.51s-.1,0-.15,0c0-3.41-.13-6.83.03-10.24.35-7.65,4.81-11.74,12.49-11.44,2.4.09,4.78.72,7.17.76.95.02,2.65-.78,2.73-1.38.32-2.35.14-4.77.09-7.16,0-.11-.52-.21-.81-.3-5.53-1.73-11.12-3.31-16.58-5.24-2.43-.86-3.48-.45-4.55,1.96-2.58,5.86-4.91,11.97-8.47,17.2-4.38,6.43-6.96,13.51-9.78,20.57-.94,2.35-.12,3.62,2.12,4.31,4.22,1.29,8.46,2.54,12.66,3.9,2.38.78,3.1-.15,3.06-2.41-.06-3.51-.02-7.03-.02-10.54ZM465.47,209.38c.76-9.26,1.39-17.74,2.18-26.21.26-2.76-.74-4.17-3.49-4.44-9.28-.9-18.55-1.84-27.84-2.72-.61-.06-1.26.26-2.22.49.61,1.16,1.02,2.05,1.52,2.88,4.3,7.13,8.61,14.25,12.94,21.36.41.67.89,1.49,1.54,1.79,4.88,2.25,9.82,4.39,15.36,6.84ZM204.14,176.68c-.19-.42-.39-.84-.58-1.26-9.73,1.11-19.46,2.26-29.19,3.3-3,.32-3.81,1.91-3.56,4.69.7,7.99,1.28,16,1.92,24,.04.46.3.9.63,1.86,5.17-2.31,10.18-4.51,15.13-6.81.56-.26.93-1.03,1.29-1.62,4.23-6.93,8.46-13.87,12.66-20.82.64-1.07,1.14-2.23,1.7-3.34ZM425.04,354.19c1.32-.25,3.88,1.39,4.35-2.42,1.76-14.33,3.76-28.63,5.69-42.94,1.08-7.98,1.08-7.9-6.94-8.89-2.37-.29-2.87.56-3.1,2.68-.8,7.47-1.92,14.91-2.72,22.38-.96,8.97-1.77,17.95-2.47,26.94-.05.69,1.13,1.74,1.97,2.17.72.37,1.77.08,3.23.08ZM213.89,354.2c.9,0,1.8-.03,2.71,0,1.71.06,2.29-.71,2.11-2.41-1.05-9.86-1.99-19.73-3.06-29.59-.58-5.38-1.43-10.73-1.98-16.11-.67-6.64-.59-6.65-7.35-5.52-3.94.66-3.95.66-3.42,4.58,2.02,14.9,4.08,29.79,6.05,44.7.59,4.49.48,4.51,4.95,4.35ZM398.73,454.24c-.7-.26-1.06-.47-1.44-.51-6.05-.73-12.09-1.49-18.15-2.05-.58-.05-1.83,1.16-1.84,1.81-.17,6.51-.19,13.02-.12,19.52,0,.89.51,2.17,1.2,2.58,3.75,2.22,7.62,4.23,12.06,6.64,2.75-9.28,5.48-18.5,8.29-27.99ZM239.62,453.82c2.93,9.86,5.69,19.17,8.45,28.46,4.45-2.42,8.27-4.38,11.93-6.58.75-.45,1.31-1.84,1.33-2.81.1-6.43,0-12.85,0-19.28,0-2.01-.92-2.26-2.71-1.88-3.13.66-6.31,1.17-9.49,1.53-2.97.33-5.96.37-9.51.57ZM460.56,308.96c-.16.74-.34,1.3-.41,1.88-1.6,13.75-3.12,27.52-4.81,41.26-.82,6.62-.97,6.6,5.41,8.73,3.87,1.29,3.98,1.19,4.1-2.93.44-14.35.88-28.7,1.37-43.05.16-4.67-.35-5.32-5.66-5.89ZM183.92,357.86c-.07-.67-.08-.77-.09-.87-1.85-15.52-3.7-31.03-5.6-46.54-.07-.54-.64-1.34-1.12-1.46-2.3-.59-4.97,1.77-4.89,4.24.5,15.22,1.01,30.45,1.55,45.67.03.77.44,2.2.48,2.19,2.68-.48,5.36-.98,7.98-1.72.76-.21,1.31-1.15,1.7-1.51Z" style="fill: #000; stroke-width: 0px;"/>
</svg>