<?xml version="1.0" encoding="UTF-8"?>
<svg id="Layer_1" data-name="Layer 1" xmlns="http://www.w3.org/2000/svg" viewBox="0 0 647.68 900">
  <path d="M296.55,870.64c-.09-1.3-.12-2.23-.22-3.16-1.07-10.05-.65-19.84,3.74-29.28,3.69-7.91,3.62-16.26,1.65-24.7-3.01-12.93-9.17-23.82-19.86-31.94-.31-.24-.6-.5-.89-.76-1.9-1.67-4.38-3.2-3.15-6.26,1.18-2.92,4.02-3.58,6.8-3.74,4.59-.27,8.62,1.53,12.32,4.04,8.73,5.91,14.83,13.91,17.88,23.97,1.75,5.78,3.02,11.74,4.05,17.71,1.75,10.17.18,19.97-3.59,29.6-3.34,8.52-3.58,17.3-.2,26.01.99,2.55,1.9,5.14,2.63,7.77.52,1.9,1.64,2.85,3.5,2.96,1.66.1,3.32.12,4.98.07,2.09-.06,3.45-1.01,3.92-3.21.35-1.62.8-3.27,1.56-4.72,3.47-6.63,3.6-13.73,2.95-20.89-.22-2.39-.76-4.88-1.73-7.07-5.21-11.74-5.72-23.82-3.07-36.2,2.1-9.81,4.62-19.44,11.4-27.3,4.53-5.25,9.52-10.04,16.37-11.86,2.85-.76,6.26-.7,9.09.12,4.17,1.2,4.54,4.88,1.34,7.89-3.7,3.48-7.93,6.58-10.9,10.61-11.16,15.11-16.52,31.5-8.59,49.92,3.75,8.7,3.76,17.67,2.99,26.8-.09,1.11-.15,2.22-.26,3.85,1.1-.58,1.73-.8,2.21-1.19,9.87-7.98,20.77-14.3,32.21-19.68,2.53-1.19,3.18-2.46,2.36-5.22-3.09-10.45-3.21-21.01-.4-31.56,1.06-3.97,2.24-7.9,3.47-11.82,2.62-8.35,7.08-15.53,13.17-21.89,7.7-8.04,14.96-16.5,22.37-24.82.77-.86,1.25-1.98,1.93-2.93,1.55-2.18,3.58-3.46,6.29-2.54,2.64.9,3.95,3.11,3.59,5.74-.33,2.45-1.05,5-2.21,7.17-5.58,10.49-12.15,20.26-20.97,28.4-4.34,4.01-6.97,9.12-8.44,14.85-1.02,3.98-2.12,7.93-3.2,11.9-1.87,6.88-1.62,13.71.13,20.58.65,2.56,1.65,3.14,4.11,2.02,11.64-5.33,23.28-10.69,35.04-15.76,14.1-6.07,28.33-11.83,42.48-17.77,3.76-1.58,3.8-2.03,1.34-5.18-1.14-1.46-2.22-2.98-3.36-4.45-8.79-11.36-12.74-24-11.99-38.55,1.06-20.53,2.46-40.95,6.15-61.22,1.64-8.99,1.58-18.28,2.4-27.43.59-6.52.97-13.09,2.15-19.51,1.84-10.05,1.61-20,.43-30.07-.76-6.49-1.31-13.05-1.31-19.57.01-10.5-3.13-20.24-6.34-29.99-2.5-7.61-5.16-15.19-8.15-22.62-2.03-5.06-4.38-10.06-7.22-14.7-6.55-10.66-13.46-21.1-20.27-31.59-9.66-14.89-22.01-27.41-34.94-39.39-4.16-3.85-7.45-8.25-9.56-13.53-1.21-3.03-.91-5.55.99-6.96,2.01-1.49,5.19-1.33,7.06,1.29,8.19,11.49,20.81,18.38,29.82,28.89,8.89,10.37,17.09,21.33,25.48,32.11,2.58,3.31,4.63,7.03,7.2,10.35,7.38,9.51,13.19,19.87,17.35,31.14,4.73,12.81,11.96,24.71,14.37,38.37,1,5.66,1.62,11.4,2.25,17.12.64,5.83.86,11.7,1.64,17.51,1.49,11.04,1.25,21.99-.31,33.02-.94,6.65-1.37,13.43-1.35,20.14.05,12.67-1.6,25.1-3.49,37.61-1.89,12.53-2.52,25.26-3.53,37.91-.46,5.74-.55,11.52-.7,17.28-.13,5.02,1.14,9.73,3.84,13.94,3.32,5.18,6.83,10.24,10.25,15.36,1,1.5,2.3,2.14,4.01,1.31,13.28-6.4,27.35-11.24,39.25-20.32,3.03-2.31,3.07-2.39.45-4.98-7.62-7.51-11.35-17.13-14.89-26.95-5.91-16.37-5.53-33.07-4.24-50.11,1.04-13.71,1.06-27.58.36-41.32-1.08-21.08-3-42.11-4.94-63.13-.55-5.98-2.2-11.89-3.7-17.75-2.6-10.22-5.8-20.3-8.17-30.57-4.65-20.14-13.43-38.01-27.24-53.48-10.84-12.15-23.3-22.56-35.09-33.69-15.79-14.91-30.85-30.57-42.3-49.25-1.73-2.82-3.27-5.82-4.37-8.92-1.3-3.71-1.25-7.57,1.23-10.93,1.5-2.03,3.61-3.05,6.18-2.31,2.27.65,3.47,2.46,3.35,4.65-.28,4.81,2.1,8.46,4.79,11.96,15.97,20.77,33.32,40.17,55.01,55.29,13.01,9.07,24.08,20.19,33.81,32.71,6.52,8.38,10.69,17.94,14.72,27.6,8.28,19.82,13.9,40.56,18.81,61.34,4.14,17.54,6.44,35.61,8.21,53.58,2,20.31,3.56,40.74,2.31,61.2-.32,5.16-.76,10.39-1.96,15.39-3.38,14.13-.8,27.33,5.23,40.18,2.24,4.77,4.33,9.62,6.31,14.5.85,2.1,1.73,2.76,3.52,1.01,16.24-15.87,26.63-34.44,27.59-57.7.76-18.42-3.16-36.16-6.83-53.97-2.6-12.64-5.89-25.17-7.75-37.92-3.83-26.31-1.56-52.37,4.17-78.32,8.12-36.75,16.19-73.53,23.07-110.53,3.81-20.52,5.11-41.5,7.63-62.27,1.59-13.1,3.42-26.17,4.97-39.28,2.27-19.11,4.6-38.23,6.53-57.38,1.83-18.17.65-36.34-1.17-54.46-2.44-24.42-5.59-48.77-7.48-73.23-2-25.82-.76-51.6,4.9-77,1.23-5.52,3.06-10.91,4.6-16.36.24-.85.46-1.71.55-2.58,1.22-11.91-1.05-14.08-10.61-16.68-24.11-6.55-48.22-4.91-72.34-.11-4.89.97-9.8,1.82-14.68,2.83-3.54.73-7.06,1.53-10.54,2.5-7.24,2.02-14.45,4.15-21.66,6.28-2.15.64-4.31,1.31-6.37,2.18-7.1,3-14.22,5.95-21.21,9.21-2.79,1.3-5.19,3.43-7.85,5.04-4.24,2.56-8.59,4.94-12.81,7.53-2.38,1.46-4.89,2.9-6.85,4.84-3.38,3.35-6.98,6.15-11.36,8.13-1.91.87-3.69,2.62-4.86,4.41-2.9,4.45-6.33,8.11-11.18,10.48-1.4.68-2.6,2.09-3.48,3.43-1.6,2.45-3.08,5.02-4.26,7.69-2.06,4.63-4.91,8.36-9.65,10.57-1.17.55-2.32,1.97-2.72,3.22-2.02,6.42-3.81,12.92-5.63,19.41-.18.64-.21,1.38-.08,2.03.92,4.68-1.48,7.24-5.35,9.27-3.96,2.08-7.96,3.57-12.48,3.74-12.4.49-24.8,1.1-37.2,1.65-.39.02-.78-.02-1.17-.06-4.24-.44-6.73-2.28-7.17-5.3-.47-3.2,1.42-6.98,5.11-8.01,6.75-1.89,13.62-3.74,20.56-4.44,8.62-.87,17.36-.63,26.06-.7,1.94-.02,2.89-.48,3.12-2.47.69-6.02,1.5-12.02,2.24-18.03.67-5.49,3.09-9.74,8.11-12.5,1.31-.72,2.31-2.35,3.02-3.77,1.36-2.7,2.42-5.56,3.59-8.35,2.04-4.87,5.35-8.48,10.03-11.06,1.85-1.03,3.53-2.85,4.62-4.7,3.07-5.23,6.97-9.28,12.68-11.7,2.04-.87,3.82-2.71,5.29-4.47,3.59-4.32,7.88-7.47,13.09-9.6,2.48-1.01,4.89-2.55,6.89-4.33,5.49-4.89,11.52-8.55,18.59-10.82,4.12-1.32,7.77-4.04,11.73-5.93,3.69-1.76,7.43-3.5,11.29-4.82,6.65-2.27,13.36-4.41,20.15-6.23,25.13-6.73,50.55-11.76,76.72-9.46,9.08.8,18.19,2.86,26.92,5.54,5.44,1.67,10.51,5.14,15.2,8.55,5.77,4.21,8.14,10.47,7.27,17.59-1.01,8.33-2.55,16.59-3.53,24.92-.92,7.85-1.88,15.74-2.03,23.63-.65,34.44,3.17,68.52,9.04,102.4,3.83,22.08,7.41,44.24,6.11,66.75-.64,11.08-2.28,22.15-4.08,33.12-4.75,29-6.46,58.26-8.66,87.52-1.61,21.42-4.06,42.83-7.25,64.07-3.8,25.32-8.53,50.51-13.35,75.66-2.28,11.89-5.92,23.51-8.54,35.35-5.13,23.15-4.52,46.4-.66,69.68,3.63,21.89,8.27,43.63,9.56,65.86.8,13.77,1.75,27.54-1.89,41.12-4.98,18.56-13.89,34.96-26.46,49.48-12.15,14.03-25.73,26.32-42.42,34.67-11.97,5.99-24.12,11.69-36.48,16.83-27.98,11.64-56.14,22.82-84.2,34.28-6.4,2.61-12.6,5.7-19,8.3-2.48,1.01-5.44.87-7.88,1.92-8.25,3.56-16.51,7.15-24.51,11.23-10.19,5.19-19.94,11.26-30.23,16.21-8.11,3.91-16.72,6.45-26.02,3.44-7.29-2.36-13.84-6.18-20.59-9.64-13.48-6.9-27.02-13.69-40.62-20.34-2.3-1.12-5.04-1.34-7.57-2-1.03-.27-2.09-.49-3.06-.93-5.41-2.43-10.7-5.17-16.22-7.33-40.6-15.91-81.59-31-120.47-50.85-33.83-17.27-57.79-43.9-70.05-80.34-4.29-12.77-4.26-25.93-3.72-39.18.95-23.15,5.24-45.83,9.39-68.52,5.4-29.52,4.98-58.74-3.21-87.72-7.51-26.6-12.11-53.79-16.17-81.07-3.41-22.91-6.58-45.87-9.21-68.88-1.51-13.19-1.57-26.54-2.54-39.8-1.83-24.88-5.18-49.55-9.34-74.17-3.53-20.89-1.8-41.93,1.16-62.82,3.45-24.3,7.66-48.5,10.35-72.88,2.48-22.44,3.12-45.06,1.07-67.63-.52-5.72-2.02-11.35-2.79-17.06-.82-6.08-1.63-12.2-1.86-18.32-.22-5.92,2.62-10.73,7.12-14.51,5.54-4.65,11.81-7.91,18.81-9.86C59.57-1.76,83.38-1.03,107.31,3.6c13.63,2.64,27.08,5.69,40.31,10.15,9.3,3.14,18.62,5.8,26.85,11.31.08.05.17.1.26.13,9.7,3.12,18.56,7.7,25.94,14.88.68.66,1.62,1.15,2.53,1.46,6.62,2.24,11.77,6.37,16.05,11.82,1.04,1.32,2.62,2.44,4.19,3.09,5.2,2.16,8.8,5.87,11.83,10.53,1.63,2.51,4.04,4.7,6.52,6.41,3.32,2.29,6.08,4.9,7.8,8.53,1.01,2.12,2.01,4.25,2.82,6.45,1.42,3.83,3.17,7.17,7.07,9.27,3.14,1.69,4.68,4.96,5.18,8.49.92,6.48,1.78,12.96,2.48,19.47.28,2.63,1.31,3.35,3.96,3.2,13.23-.74,26.39-.13,39.35,2.94,2.18.52,4.37,1.13,6.43,2,3.72,1.56,5.86,5.03,5.34,8.25-.51,3.14-3.33,5.32-7.79,5.28-9.19-.07-18.38-.33-27.56-.73-4.78-.21-9.69-.28-14.26-1.49-4.22-1.12-8.22-3.41-11.98-5.73-1.21-.75-1.9-3.21-1.91-4.89-.05-8.62-3.27-16.41-6.09-24.29-.37-1.03-1.67-1.94-2.75-2.46-4-1.93-6.66-5-8.48-8.96-.93-2.04-2.07-3.99-3.07-6-1.7-3.41-4.25-5.77-7.52-7.9-3.24-2.11-5.9-5.32-8.34-8.41-1.93-2.44-4-4.28-6.76-5.8-3.45-1.9-6.38-4.71-9.62-7.01-2.75-1.95-5.58-3.79-8.43-5.59-4.03-2.54-8.07-5.07-12.18-7.46-3.6-2.09-7.23-4.13-10.98-5.94-4.83-2.33-9.73-4.55-14.7-6.56-3.87-1.57-7.88-2.84-11.87-4.09-5.87-1.84-11.76-3.63-17.68-5.3-3.94-1.11-7.93-2.1-11.94-2.93-8.04-1.66-16.07-3.44-24.17-4.69-16.4-2.53-32.89-3.32-49.38-.97-5.49.78-10.91,2.27-16.27,3.77-6.07,1.7-8.16,4.01-8,10.25.13,5.01.82,10.23,2.48,14.92,4.5,12.69,6.02,25.84,7.35,39.09,2.83,28.23.26,56.23-3.11,84.24-2.85,23.68-5.56,47.38-5.73,71.3-.09,11.98,1.2,23.78,2.73,35.63,2.17,16.86,3.54,33.82,5.55,50.71,3.57,30.09,6.51,60.29,11.3,90.19,4.36,27.3,10.78,54.27,16.36,81.36,3.69,17.9,8.38,35.65,11.06,53.69,3.74,25.22,2.63,50.42-3.38,75.43-4.11,17.09-7.52,34.4-10.16,51.78-1.94,12.74-2.37,25.85,1.77,38.38,4.93,14.93,12.29,28.53,24.24,39.2,2.73,2.44,3,2.27,4.35-.97,2.14-5.14,4.46-10.2,6.77-15.27,5.76-12.66,7.78-25.65,4.53-39.43-1.33-5.66-1.87-11.61-2-17.45-.52-24.28.73-48.51,3.98-72.56,2.11-15.67,4.29-31.49,8.45-46.7,5.74-20.98,11.11-42.14,20.27-62.11,7.81-17.05,19.43-30.9,33.39-42.92,8.73-7.52,18.51-13.82,27.17-21.41,15.03-13.18,28.35-28.04,40.21-44.16,2.4-3.26,4.26-6.64,4.24-10.99,0-1.55,1.53-3.95,2.91-4.44,1.57-.56,4.15.05,5.56,1.11,3.02,2.27,3.53,5.95,2.71,9.35-.82,3.36-2.04,6.82-3.92,9.69-4.77,7.26-9.56,14.58-15.14,21.22-11.96,14.22-24.77,27.67-39.06,39.64-11.36,9.51-21.57,20.19-30.63,31.89-10.84,14-17.3,30.02-21.04,47.29-1.94,8.96-4.2,17.92-7.2,26.58-3.78,10.9-4.46,22.2-5.73,33.44-3.12,27.53-4.31,55.16-3.61,82.86.19,7.62,1.03,15.21,1.44,22.83,1.08,19.87-4.4,38.08-14.3,55.08-1.55,2.66-3.83,4.92-5.95,7.21-2.18,2.36-2.38,2.96.48,4.63,7.83,4.58,15.71,9.08,23.73,13.33,4.74,2.51,9.81,4.4,14.65,6.74,2.34,1.13,3.98.97,5.46-1.32,3.08-4.76,6.33-9.41,9.45-14.14,3.05-4.63,4.56-9.79,4.28-15.3-.98-19.7-.77-39.5-4.9-58.96-2.4-11.32-2.99-22.84-2.82-34.43.08-5.64-.22-11.37-1.12-16.94-2.08-12.98-2.13-25.88-.08-38.84.56-3.56.86-7.19.92-10.8.26-14.7,3.69-28.59,9.85-41.93,4.14-8.96,7.51-18.27,11.65-27.23,2.28-4.94,5.21-9.63,8.26-14.16,6.22-9.24,12.7-18.32,19.11-27.43,10.49-14.92,23.49-27.43,37.44-39.05,3.11-2.59,5.54-5.98,8.29-8.99.85-.94,1.64-1.96,2.6-2.77,1.88-1.59,4.05-2.12,6.21-.66,2.19,1.48,2.36,3.7,1.54,6.03-1.83,5.16-4.77,9.6-8.72,13.4-4.65,4.48-9.19,9.06-13.88,13.49-9.89,9.34-17.74,20.29-25.18,31.57-5.7,8.65-11.25,17.4-16.78,26.17-1.82,2.89-3.72,5.81-4.96,8.96-6.03,15.27-12.07,30.56-15.81,46.61-.66,2.84-1.04,5.78-1.26,8.69-.78,10.22-1.7,20.44-2.05,30.68-.23,6.8.24,13.64.77,20.43.65,8.37,1.64,16.72,2.56,25.06,1.33,11.94,2.29,23.94,4.21,35.78,3.15,19.48,3.96,39.08,4.1,58.74.06,8.35-2.98,15.9-7.42,22.86-2.47,3.87-5.18,7.58-7.9,11.29-2.16,2.95-2.17,3.47,1.14,4.89,8.45,3.62,16.97,7.06,25.4,10.72,17.13,7.43,34.23,14.93,51.33,22.44,4.15,1.82,4.36,1.76,5.43-2.72,1.51-6.3,1.58-12.58-.04-18.87-.19-.76-.43-1.51-.56-2.28-2.19-12.56-7.79-23.13-17.47-31.68-7.24-6.39-10.9-15.43-15.7-23.57-1.02-1.72-1.2-4.12-1.21-6.21-.02-2.3,1.35-4.1,3.64-4.83,2.33-.74,4.19.21,5.73,1.96,9.15,10.41,18.35,20.78,27.41,31.26,2.23,2.57,4.5,5.29,5.94,8.32,8.28,17.5,13.51,35.5,7.52,54.97-.5,1.62-.3,2.83,1.39,3.63,12.16,5.72,23.72,12.43,34.19,20.92.2.16.54.16,1.44.39Z" style="fill: #000; stroke-width: 0px;"/>
  <path d="M411.93,316.36c-.78-11.71,1.84-22.62,3.51-33.62,1.79-11.78,3.62-23.56,5.79-35.28,2.15-11.62,4.88-23.13,7.14-34.73,3.24-16.69,6.27-33.42,9.42-50.13,1.52-8.05,3.25-16.06,4.63-24.12,1.95-11.38,6.24-21.74,12.79-31.21,2.11-3.05,3.9-6.35,6.16-9.28,2.95-3.84,6.11-7.55,9.39-11.12,4.29-4.67,8.75-9.19,13.18-13.72,9.14-9.34,20.6-15.03,32.23-20.45.18-.08.38-.12.55-.21,13.31-7.43,28.08-10.58,42.55-14.63,9.6-2.69,19.37-3.8,29.3-3.46,5.46.18,9.51,3.24,11.13,8.45,2.13,6.85,1.52,13.61-2.95,19.25-5.69,7.18-11.88,13.96-18.07,20.72-6.46,7.06-13.42,13.67-19.7,20.88-6.5,7.45-9.93,16.28-9.72,26.36.14,6.65-.55,13.37.22,19.93.78,6.63,2.4,13.27,4.55,19.59,4.07,11.98,7.91,23.89,8.29,36.73.29,9.61-.68,18.91-3.75,28.02-5.63,16.72-9.93,33.77-12.03,51.32-1.51,12.64-.71,25.1,2.55,37.51,2.63,10,4.86,20.16,6.38,30.38,2.46,16.59-.57,32.25-9.33,46.79-3.26,5.42-6.05,11.22-8.26,17.15-3.04,8.15-3.67,16.76-3.07,25.45.11,1.65.22,3.34,0,4.97-.98,7.21-8.28,10.78-14.57,7.16-1.09-.63-2.1-1.44-3.05-2.27-12.52-11.06-24.98-22.19-37.56-33.2-13.47-11.79-27.1-23.46-38.02-37.75-6.41-8.38-12.26-17.19-18.12-25.97-8.03-12.05-11.98-25.39-11.58-39.48ZM518.05,426.93c.29-.14.59-.27.88-.41.15-1.21.42-2.43.44-3.64.14-8.38,2.11-16.25,6.25-23.56,1.69-2.98,3.18-6.08,5.06-8.92,8.91-13.46,8.97-28.15,6.17-43.24-.28-1.49-1.02-2.99-1.87-4.27-3.21-4.78-6.3-9.69-9.91-14.17-21.59-26.83-47.74-48.56-76.2-67.68-1.64-1.1-2.65-.88-3.44.88-1.15,2.59-2.34,5.16-3.48,7.76-7.25,16.56-11.98,33.74-11.53,51.95.12,4.89,1.57,9.76,2.58,14.6.51,2.42,2.11,2.98,4.64,2.63,4.13-.56,8.44-1.2,12.52-.65,24.22,3.29,43.46,14.69,56.18,35.97,4.67,7.82,5.7,16.81,6.8,25.61.77,6.19.53,12.5-2.06,18.45-.29.68-.27,1.96.17,2.41,2.16,2.2,4.51,4.2,6.79,6.28ZM501.2,412.14c.51-1.35.85-1.87.88-2.4.5-9.11.03-18.54-4.49-26.28-9.68-16.59-24.6-26.96-43.41-31.27-2.53-.58-5.4.21-8.09.56-1.81.24-2.38,1.32-1.11,2.86,2.87,3.46,5.69,6.95,8.74,10.24.65.7,2.46,1.14,3.27.74,4.96-2.4,9.84-1.69,14.44.49,12.74,6.05,19.34,16.87,19.1,31.29-.02,1.15-.22,2.7.41,3.39,3.17,3.47,6.58,6.71,10.25,10.38Z" style="fill: #000; stroke-width: 0px;"/>
  <path d="M235.91,314.56c1.15,18.46-6.44,33.87-16.21,48.87-15.74,24.17-36.38,43.54-58.19,61.95-10.37,8.75-20.32,18.01-30.47,27.03-.87.78-1.77,1.55-2.75,2.18-7.09,4.49-14.98.43-15.31-7.97-.21-5.27.14-10.56-.23-15.81-.53-7.58-2.58-14.8-6.26-21.52-1.88-3.43-3.42-7.05-5.45-10.38-8.83-14.47-10.98-30.25-8.53-46.63,1.51-10.12,3.84-20.16,6.46-30.06,3.71-14,3.78-28,1.63-42.17-2.31-15.22-6-30.11-10.98-44.66-5.76-16.8-5.29-33.65-.7-50.51,1.74-6.4,4.1-12.64,6.28-18.92,2.3-6.62,3.61-13.36,3.35-20.42-.19-5.17-.13-10.36,0-15.54.25-9.76-2.95-18.4-9.2-25.64-6.43-7.46-13.59-14.29-20.25-21.56-6.12-6.69-12.25-13.39-17.92-20.46-4.42-5.51-5.23-12.12-3.31-18.93,1.59-5.64,5.76-8.89,11.59-9.05,10.43-.28,20.68.88,30.69,3.98,4.48,1.39,9.03,2.56,13.58,3.7,18.72,4.69,35.67,13.38,51.58,23.9,6.65,4.4,11.92,10.9,17.78,16.48,1.9,1.81,3.67,3.76,5.52,5.64,1.03,1.04,2.26,1.93,3.11,3.09,12.65,17.34,24.34,35.11,25.05,57.67.07,2.3.92,4.57,1.38,6.86,1.32,6.6,2.64,13.21,3.94,19.81,2.66,13.52,5.22,27.06,7.98,40.55,2.39,11.67,5.29,23.24,7.45,34.95,2.11,11.43,3.61,22.98,5.31,34.48,1.09,7.34,2.14,14.69,3.04,22.06.28,2.31.04,4.68.04,7.03ZM128.98,426.68c.31.1.62.2.93.3,2.32-2.19,5.09-4.08,6.74-6.69.73-1.15-.81-3.75-1.31-5.68-.02-.09-.05-.19-.07-.29-2.26-15.09-.18-29.55,7.76-42.62,7.32-12.05,17.72-21.09,30.73-26.73,11.87-5.14,24.05-8.95,37.27-6.02,1.9.42,2.91-.45,3.62-2.11,2.09-4.94,2.93-10.08,2.95-15.44.07-21.02-6.1-40.43-14.98-59.18-1.06-2.24-2.22-2.24-4.07-.86-5.17,3.85-10.32,7.76-15.69,11.32-23.29,15.46-42.54,35.25-60.38,56.48-4.42,5.25-9.24,11.08-11.01,17.45-3.4,12.23-3.68,24.97,2.09,36.98,1.6,3.34,3.46,6.58,5.38,9.75,5.72,9.43,9.85,19.33,9.55,30.63-.02.9.32,1.81.49,2.71ZM146.2,412.41c3.26-3.05,5.86-5.63,8.63-8.03,1.87-1.62,2.51-3.43,2.43-5.91-.37-11.78,4.09-21.42,13.68-28.32,5.98-4.3,12.51-6.9,20.01-3.42.77.36,2.45-.04,3.04-.69,3.09-3.39,5.98-6.96,8.9-10.5,1.14-1.38.67-2.53-.99-2.72-3.07-.35-6.41-1.23-9.22-.43-10.65,3.04-21.01,6.93-29.1,15-3.32,3.31-6.62,6.67-9.62,10.26-1.92,2.29-3.81,4.86-4.77,7.64-2.54,7.32-3.86,14.94-3.66,22.75.03,1.19.35,2.37.67,4.37Z" style="fill: #000; stroke-width: 0px;"/>
  <path d="M187.01,649.55c1.37-39.9,11.92-76.99,33.38-110.94,9.61-15.2,18.12-31.08,27.41-46.48,6.01-9.96,12.49-19.63,18.82-29.4,10.67-16.46,16.72-34.64,17.79-54.04.98-17.73.83-35.58.03-53.33-.44-9.67-2.62-19.41-5.18-28.8-3.85-14.13-8.05-28.24-13.4-41.85-3.76-9.56-9.69-18.27-14.67-27.35-3.63-6.62-7.08-13.29-7.66-21.04-1.02-13.56,5.01-23.81,15.11-32.04,9.63-7.84,20.75-12.9,32.65-16.11,6.97-1.88,14.13-3.08,21.23-4.48,3.5-.69,6.96-.9,10.16,1.37.61.43,1.94-.07,2.92-.26,2.35-.46,4.78-1.69,7-1.38,17.43,2.43,34.59,6.1,49.55,15.97,5.31,3.51,10.4,7.78,14.48,12.64,9.29,11.04,10.13,23.75,4.29,36.59-3.67,8.07-8.85,15.44-12.75,23.42-4.24,8.67-8.49,17.45-11.47,26.6-5.8,17.84-11.6,35.78-13.25,54.62-.76,8.65-.97,17.38-.83,26.06.19,12.01.37,24.07,1.59,35.99,1.73,16.86,7.18,32.75,16.73,46.81,15.58,22.92,28.23,47.59,43.06,70.94,10.97,17.28,20.51,35.18,26.58,54.71,7.24,23.28,11.52,47.11,10.27,71.64-.67,13.14-4.33,25.22-12.27,36.09-12.01,16.44-24.67,32.2-42.05,43.25-5.7,3.62-12.08,6.63-18.56,8.47-13.06,3.7-26.37,6.58-39.67,9.37-3.39.71-7.23.37-10.65-.41-3.75-.86-6.17-3.79-6.6-7.78-.43-3.89,1.44-6.82,4.66-8.83,1.65-1.03,3.4-2.03,5.24-2.59,10.84-3.29,21.49-7.27,32.85-8.67,16.69-2.05,29.72-11.07,40.95-22.76,6.68-6.96,12.31-14.92,18.51-22.35,6.49-7.79,8.63-17.01,8.63-26.8,0-28.52-5.19-56.05-16.88-82.13-4.07-9.07-9.08-17.73-13.99-26.4-11.37-20.07-23-40-34.42-60.05-6.53-11.46-13.56-22.71-19.08-34.65-7.66-16.59-11.1-34.41-10.99-52.73.1-15.64.1-31.31,1.16-46.9,1.27-18.84,7.45-36.72,12.2-54.88,4.6-17.6,13.14-33.18,22.99-48.22,1.87-2.85,3.48-5.9,4.89-9,2.89-6.36,2.29-12.68-1.38-18.5-1.9-3.02-4.25-5.94-6.95-8.24-8.66-7.36-18.28-13.07-29.54-15.57-6.11-1.35-12.25-2.57-18.32-4.06-2.7-.66-5.27-2.57-7.9-2.58-2.53-.01-5,1.92-7.6,2.61-9.43,2.52-19.12,4.26-28.3,7.47-8.12,2.83-15.3,7.86-21.49,13.98-9.03,8.93-10.31,18.5-4.01,29.5,2.33,4.07,4.8,8.07,7.39,11.98,8.23,12.42,14.18,25.82,18.11,40.2,5.23,19.15,11.73,38.1,12.58,58.07.82,19.12,1.25,38.35.06,57.42-1.41,22.64-10.29,43.06-22.01,62.47-16.07,26.61-31.5,53.6-46.93,80.59-11.77,20.58-19.55,42.66-22.62,66.21-1.43,10.93-2.43,21.95-2.84,32.96-.4,10.86,2.69,20.82,10.13,29.21,7.39,8.33,13.9,17.54,21.97,25.12,10.6,9.95,23.2,16.42,38.11,18.64,10.55,1.57,20.81,5.23,31.11,8.25,2.43.71,4.81,2.29,6.69,4.03,4.57,4.24,3.43,11.33-2.05,14.35-3.63,2-7.58,2.17-11.43,1.29-14.2-3.23-28.41-6.48-42.52-10.1-11.49-2.95-20.53-10.25-29.4-17.71-13.79-11.59-24.29-25.95-33.94-40.93-5.61-8.71-6.92-18.8-7.64-28.92-.23-3.21-.04-6.45-.04-9.68Z" style="fill: #000; stroke-width: 0px;"/>
  <path d="M54.41,350.16c1.19-18.1-.31-33.07-1.92-48.05-1.29-12.06-4.59-23.58-9.24-34.64-4.8-11.42-5.71-23.16-5.62-35.3.14-18.11,4.39-35.43,8.83-52.79,1.5-5.85,2.27-11.88,3.35-17.84.24-1.35.2-2.76.58-4.06,2.96-10.26,2.47-20.78,1.6-31.16-.45-5.31-2.8-10.46-4.33-15.66-.36-1.21-1.37-2.43-1.22-3.53.24-1.8.71-4.18,1.96-5.08,1.37-.99,4.02-1.25,5.62-.59,1.79.73,3.48,2.6,4.42,4.38,3.86,7.32,6.37,15.06,7.14,23.39,2.16,23.51-.25,46.58-5.57,69.51-3.7,15.97-5.49,32.22-3.21,48.62.63,4.51,1.62,9.11,3.3,13.32,9.73,24.4,13.17,49.76,12.2,75.85-.51,13.67-1.16,27.34-1.6,41.02-.09,2.8.49,5.63.74,8.44,1.7,18.65,8.87,35.98,12.96,54.04,3,13.24,5.23,26.65,7.69,40,.47,2.58.51,5.26.56,7.89.23,12.11.46,24.23.52,36.34.02,3.6-.28,7.24-.89,10.79-.23,1.33-1.56,3.08-2.75,3.44-.88.27-2.79-1.14-3.48-2.27-4.36-7.07-6.1-14.99-6.69-23.16-.66-8.97-1.13-17.95-1.61-26.93-.71-13.29-1.88-26.41-6.23-39.22-3.81-11.25-6.45-22.9-9.54-34.39-1.14-4.22-2.33-8.44-3.09-12.73-1.63-9.22-3.5-18.45-4.32-27.76-.72-8.25-.15-16.61-.15-21.91Z" style="fill: #000; stroke-width: 0px;"/>
  <path d="M577.11,348.4c-3.57-25.43-.73-50.35,5.91-74.93.58-2.16,1.2-4.38,2.19-6.37,6.69-13.46,7.92-27.88,6.33-42.38-1.47-13.37-4.53-26.56-6.68-39.86-3.28-20.23-5.23-40.59-1.81-60.96,1.06-6.34,4.17-12.34,6.42-18.47.32-.88,1.05-1.66,1.71-2.36,2.37-2.5,5.54-3.04,7.93-1.42,2.4,1.62,2.96,4.67,1.57,7.9-1.31,3.04-3,6.02-3.66,9.21-2.22,10.69-2.52,21.49-.82,32.31.29,1.83.9,3.63,1.05,5.47,1.16,14.23,5.51,27.78,8.72,41.57,4.25,18.26,5.65,36.71,2.87,55.3-.67,4.48-2.38,8.86-3.97,13.15-4.52,12.18-8.12,24.48-9.78,37.5-2.44,19.13-2.2,38.23-1.54,57.38.39,11.25-.7,22.42-3.44,33.15-2.33,9.17-3.84,18.51-6.41,27.59-3.07,10.89-7.33,21.5-9.7,32.52-2.24,10.44-2.84,21.25-3.9,31.93-1.18,11.95-1.67,23.99-3.28,35.88-.66,4.87-3.37,9.51-5.46,14.11-.46,1.01-2.38,2.09-3.41,1.91-1.02-.19-2.37-1.86-2.5-3-.51-4.55-.81-9.15-.79-13.73.02-9.96.04-19.94.53-29.88.38-7.89,1.03-15.81,2.32-23.59,1.64-9.92,3.74-19.79,6.21-29.54,2.77-10.98,6.66-21.7,9.16-32.74,2.36-10.43,4.4-21,4.25-31.83-.12-8.6-.02-17.19-.02-25.79Z" style="fill: #000; stroke-width: 0px;"/>
  <path d="M324.26,313.81c.2-1.87.58-3.75.58-5.62,0-14.09,3.26-27.54,8.22-40.59,1.4-3.7,3.45-7.24,5.71-10.5,4.01-5.76,8.42-11.25,12.65-16.86,2.55-3.38.9-10.08-3.35-12.52-1.72-.99-3.81-1.46-5.79-1.83-4.03-.76-6.59-2.79-7.11-5.97-.52-3.17,1.22-6.09,4.83-7.93,4.29-2.19,8.7-2.08,13.06-.29,2.78,1.14,5.67,2.25,8.1,3.95,1.54,1.08,2.28,3.27,3.48,4.88,3.47,4.67,4.82,9.95,4.85,15.68.03,5.85-1.72,11.06-5.91,15.16-13.42,13.12-19.25,29.66-21.06,47.76-1.61,16.02-2.02,32.16-3.66,48.18-2.06,20.12-4.78,40.17-7.37,60.23-.43,3.36-1.63,6.63-2.53,9.93-.72,2.62-2.57,3.87-5.22,3.84-2.53-.03-4.3-1.29-4.97-3.76-.92-3.39-2.09-6.76-2.54-10.22-2.03-15.7-3.72-31.44-5.78-47.13-1.87-14.26-2.91-28.54-3.17-42.95-.27-14.7-2.56-29.37-7.79-43.1-2.78-7.29-7.63-14.18-12.88-20.06-9.6-10.76-10.83-21.41-3.37-33.82,3.96-6.58,10.16-8.32,16.57-9.59,2.82-.56,6.28.87,9.13,2.11,2.92,1.27,4.1,4.1,3.62,7.35-.41,2.8-2.74,4.86-6.09,5.56-.48.1-.97.15-1.45.22-5.94.84-8.99,3.69-9.62,9.61-.17,1.64.36,3.88,1.44,5.05,17.81,19.25,25.75,42.24,26.19,68.14.03,1.7.29,3.39.44,5.08.27,0,.53,0,.8.01Z" style="fill: #000; stroke-width: 0px;"/>
  <path d="M347.64,712.83c-1.93.2-3.9.22-5.79.62-5.48,1.15-9.87-.98-10.9-6.45-1.34-7.15-2.54-14.36-1.29-21.81.88-5.23.85-10.64.99-15.98.21-8.1.13-16.2.34-24.29.07-2.58,1.53-4.46,4.23-4.91,2.71-.45,4.75.86,5.51,3.32.75,2.43,2.34,3.31,4.49,3.38,7.31.23,14.62.54,21.93.4,5.95-.11,11.88-1.04,17.83-1.22,10.85-.32,18.98,6.54,21.37,17.82,2.78,13.11-1.08,23.62-12.8,30.75-10.7,6.51-21.68,12.95-33.83,16.68-3.87,1.19-7.94,1.73-11.92,2.56-.05-.3-.11-.59-.16-.89ZM343.08,657.26c.08,1.21.17,2.54.26,3.86.58,8.65,1.11,17.3,1.76,25.94.18,2.32.63,4.63,1.14,6.9.39,1.73,1.63,2.76,3.47,2.36,4.26-.91,8.71-1.42,12.68-3.06,7.21-2.98,14.14-6.63,21.14-10.09,1.65-.81,3.19-1.9,4.66-3.02,6.06-4.63,7.23-8.36,5.07-15.8-1.44-4.96-3.42-6.75-8.54-6.72-7.31.04-14.63.64-21.94.61-6.4-.03-12.81-.62-19.71-.99Z" style="fill: #000; stroke-width: 0px;"/>
  <path d="M317.62,660.63c-.27,4.04-.69,7.65-.69,11.26,0,3.78-.14,7.71.78,11.32,2.02,7.99.59,15.79-.73,23.55-.94,5.56-5.51,7.95-10.99,6.69-1.13-.26-2.34-.55-3.47-.43-10.26,1.01-19.13-3.13-27.91-7.48-5.6-2.77-11.04-5.88-16.65-8.64-6.48-3.18-11.22-8.05-14.67-14.29-5.76-10.43-2.13-26.66,7.5-33.67,3.06-2.23,6.51-3.17,10.21-3.05,5.37.17,10.73.7,16.1.82,8.18.18,16.37.24,24.55.15,2.46-.03,4.62-.74,5.48-3.79.66-2.31,2.78-3.52,5.37-3.04,2.52.47,3.98,2.13,4.17,4.64.41,5.45.66,10.92.95,15.96ZM304.93,656.37c-12.25,3.15-23.85,1.7-35.45,1.13-2.63-.13-5.27.12-7.91.17-2.72.05-4.55,1.4-5.88,3.71-3.68,6.43-2.4,13.95,3.45,18.4,2.39,1.82,5.05,3.34,7.73,4.72,4.95,2.54,10,4.91,15.04,7.29,5.04,2.39,10.1,4.64,15.9,4.6,2.29-.02,3.61-.85,3.95-2.97.43-2.68.71-5.4.89-8.11.42-6.42.68-12.86,1.13-19.28.21-2.98.7-5.94,1.15-9.65Z" style="fill: #000; stroke-width: 0px;"/>
  <path d="M254.28,598.13c-1-16.59,3.09-32.22,9.55-47.25,6.98-16.24,14.67-32.18,21.63-48.43,3.07-7.16,5.15-14.74,7.62-22.15,1.95-5.85,3.91-11.65,7.97-16.52,3.41-4.09,6.65-3.83,8.92.97,4.46,9.44,3.61,19.09-.34,28.17-5.09,11.71-10.78,23.21-16.99,34.38-8.09,14.56-15.52,29.34-20.95,45.12-3.87,11.26-4.02,22.57-1.78,34.12.78,4.01,1.05,8.12,1.46,12.19.1.95-.07,1.96-.26,2.91-.81,3.93-3.4,6.36-6.87,6.52-3.62.16-6.62-2.08-7.45-6.13-.79-3.82-1.16-7.72-1.62-11.6-.24-2.03-.28-4.09-.42-6.14-.14-2.05-.31-4.09-.47-6.14Z" style="fill: #000; stroke-width: 0px;"/>
  <path d="M394,592.91c-.81,8.92-1.59,17.57-2.4,26.22-.1,1.06-.33,2.13-.62,3.16-1.07,3.77-3.96,6.03-7.43,5.86-3.4-.16-6.53-2.76-6.77-6.55-.26-4.05-.39-8.33.61-12.2,4.7-18.27.87-35.35-6.94-51.78-5.53-11.63-11.95-22.83-17.74-34.34-5.04-10.03-10.18-20.05-14.5-30.39-3.73-8.93-4.74-18.33-.67-27.66,2.34-5.36,5.59-5.67,9.35-1.15,3.93,4.71,6.13,10.22,7.78,15.95,6.24,21.58,15.44,41.96,25.36,62.02,5.72,11.57,9.79,23.64,12.24,36.26.95,4.86,1.19,9.86,1.73,14.62Z" style="fill: #000; stroke-width: 0px;"/>
  <path d="M401.15,192.95c-3.14-1.21-6.35-2.29-9.42-3.67-7.66-3.44-15.19-6.94-23.96-6.87-7.49.06-14.13-3.55-20.91-6.26-2.34-.93-3.49-3.14-3.03-5.79.47-2.71,2.48-3.81,4.92-4.35.28-.06.6-.16.87-.1,6.78,1.34,13.39-.73,20.09-.9,10.08-.25,19.38,3.24,28.48,7.1,4.47,1.9,5.7,1.47,6.29-3.45.68-5.72,1.25-11.46,1.88-17.18,1.74-15.82,7.57-30.03,16.97-42.82,3.18-4.33,6.21-8.79,9.66-12.9,1.56-1.86,3.8-3.35,6.02-4.42,2.16-1.04,4.5-.47,5.98,1.68,1.48,2.15.85,4.22-.54,6.24-3.63,5.32-7.29,10.62-10.76,16.04-6.41,10.02-10.08,20.86-9.7,32.94.2,6.34-.12,12.68-.09,19.03.06,11.21-7.23,21.4-17.59,24.36-1.58.45-3.25.6-4.88.89-.09.15-.18.3-.27.44Z" style="fill: #000; stroke-width: 0px;"/>
  <path d="M224.15,154.65c-.08-1.46-.29-2.93-.23-4.39.65-14.4-4.14-27.06-12.19-38.71-2.88-4.17-5.74-8.36-8.63-12.54-1.34-1.93-1.8-3.95-.4-6,1.4-2.05,3.68-2.73,5.7-1.74,2.46,1.21,4.93,2.85,6.72,4.9,17.55,20.05,27.37,43.26,28.11,70.09.04,1.55.25,3.13.61,4.64.55,2.3,2,2.81,4.23,2,6.23-2.25,12.47-4.5,18.78-6.52,5.99-1.92,12.09-1.77,18.27-.68,3.03.53,6.2.35,9.31.44.87.02,1.75-.19,2.63-.22,3.6-.13,6.26,1.56,6.81,4.29.57,2.85-.99,5.4-4.44,6.7-7.85,2.96-15.66,5.48-24.3,6.01-6,.37-12.5,2.61-17.58,5.87-14.31,9.19-29.09-1.39-32.21-13.77-1.05-4.17-.83-8.68-1.07-13.05-.13-2.44-.02-4.88-.02-7.33h-.07Z" style="fill: #000; stroke-width: 0px;"/>
  <path d="M358.97,588.37c.15,14.27-3.19,24.3-7.94,33.95-.99,2-2.68,3.16-5.02,2.73-2.44-.45-3.82-2.18-3.86-4.52-.04-2.71.29-5.44.67-8.14.88-6.37,2.34-12.69,2.74-19.08.71-11.41-3.75-21.82-7.28-32.37-3.78-11.29-7.44-22.63-11.11-33.96-.42-1.29-.9-2.75-.67-4.01.27-1.47.95-3.49,2.05-4.02,1.09-.52,3.45.01,4.35.95,2.9,3.01,5.71,6.21,7.96,9.71,8.01,12.42,12.55,26.19,15.05,40.68,1.23,7.11,2.42,14.22,3.07,18.08Z" style="fill: #000; stroke-width: 0px;"/>
  <path d="M288.69,589.91c2.62-20.08,6.2-42.03,18.83-61.27,1.97-3,4.49-5.65,6.82-8.41,1.29-1.53,3.21-2.67,4.84-1.32,1.17.97,2.11,3.2,1.89,4.68-.62,4.13-1.65,8.25-2.96,12.22-4.22,12.81-8.7,25.53-12.97,38.33-3.68,11.03-4.02,22.21-1.25,33.54.92,3.77,1.42,7.69,1.72,11.56.25,3.21-1.4,5.33-3.8,5.82-2.43.49-4.29-.93-5.72-3.95-4.37-9.2-7.29-18.75-7.41-31.2Z" style="fill: #000; stroke-width: 0px;"/>
</svg>