<?xml version="1.0" encoding="UTF-8"?>
<svg id="Layer_1" data-name="Layer 1" xmlns="http://www.w3.org/2000/svg" viewBox="0 0 645.53 900">
  <path d="M629.69,151.68c.01,15.61-3.15,30.43-8.88,45.02-7.04,17.93-9.02,36.67-5.16,55.77,1.96,9.68,7.08,17.85,12.59,25.82,3.52,5.09,7.09,10.16,10.38,15.4,9.31,14.84,8.91,29.75.58,45-6.37,11.66-16.05,18.81-28.36,22.89-6.5,2.16-12.27,5.64-17.11,10.36-2.17,2.12-3.88,5.11-4.8,8.02-5.33,16.91-2.61,33.29,4.31,49.11,1.73,3.96,4.89,7.31,7.49,10.87,2.19,3,4.69,5.78,6.74,8.87,6.95,10.53,8.92,21.86,4.65,33.91-6.17,17.39-13.01,34.46-24.76,49.04-8.95,11.11-11.3,24.33-12.16,38.03-.05.79.01,1.61.19,2.37,1.58,6.67,1.06,13.36.33,20.06-1.74,16.04-1.11,31.96,2.48,47.74,1.37,6.03,2.38,12.15,3.5,18.24,3.07,16.76-1.12,31.44-12.97,43.72-13.14,13.62-26.43,27.09-39.71,40.57-1.54,1.56-3.27,3.13-5.21,4.04-3.92,1.84-6.52,4.95-9.28,8.09-11.7,13.28-21.95,27.5-29.45,43.62-1.79,3.84-3.88,7.56-6.08,11.19-7.62,12.53-17.87,22.78-28.65,32.54-1.56,1.41-3.36,2.68-5.26,3.55-8.93,4.08-14.66,11.46-19.96,19.24-3.63,5.34-7.04,10.83-10.47,16.3-3.24,5.17-7.4,9.41-12.25,13.1-8.94,6.8-18.42,7.5-28.48,3-6.23-2.79-11.41-7.09-16.24-11.8-6.74-6.58-14.71-11.23-22.95-15.61-8.12-4.32-15.93-4.18-24.03.09-8.58,4.52-16.71,9.57-23.69,16.38-5.09,4.96-10.66,9.32-17.44,11.85-9.15,3.41-17.67,2.38-25.62-3.44-5.14-3.75-9.55-8.11-12.93-13.53-3.23-5.18-6.32-10.47-9.95-15.36-3.99-5.38-8.46-10.4-12.85-15.46-1.01-1.16-2.55-1.86-3.84-2.77-4.67-3.3-9.76-6.15-13.93-10-12.61-11.68-23.45-24.8-30.65-40.63-7.07-15.54-17.2-29.01-28.33-41.82-2.91-3.35-5.62-6.78-9.86-8.6-1.26-.54-2.4-1.52-3.41-2.5-7.52-7.35-15.06-14.7-22.47-22.17-4.61-4.65-9.02-9.48-13.47-14.28-3.36-3.63-6.87-7.17-9.88-11.08-8.94-11.62-10.93-24.86-8.36-38.99,1.28-7.05,2.64-14.09,4.11-21.1,3.07-14.61,3.28-29.33,1.8-44.1-.66-6.63-.28-13.17.06-19.82.7-13.85-1.69-27.38-10.42-38.66-11.27-14.56-18.6-31-25.07-48.02-5.59-14.68-3.42-27.91,5.98-40.21,1.45-1.9,2.96-3.75,4.47-5.6,12.33-14.98,15.58-32.2,13.81-51.19-1.42-15.24-10.93-22.66-23.75-26.97-16.68-5.6-27.39-16.69-32.9-33.08-3.63-10.81-2.63-21.42,2.92-31.3,3.76-6.69,8.1-13.09,12.58-19.33,7.75-10.8,13.48-22.48,14.02-35.84.63-15.9-.69-31.75-7.13-46.6-8.59-19.8-9.65-40.44-7.43-61.46.96-9.03,4.96-16.94,11.74-22.91,13.72-12.07,28.35-23.14,45.21-30.34,12.77-5.46,25.4-11.14,37.97-17.04,12.15-5.7,25.18-8.78,38.42-10.96,5.58-.92,11.16-1.95,16.69-3.15,7.68-1.67,13.93-5.52,19.04-11.69,5.85-7.06,11.8-14.2,18.63-20.25C217.37,6.67,232.9,2.08,249.27.22c10.16-1.15,18.8,3.08,27.06,8.36,3.42,2.19,6.78,4.49,10.36,6.39,6.01,3.2,12.1,6.26,18.29,9.09,2.51,1.14,5.33,1.84,8.08,2.14,3.86.42,7.77.28,11.66.37,7.44.17,14.46-.88,21.07-4.91,6.55-3.99,13.63-7.1,20.4-10.75,4.41-2.38,8.59-5.21,13.01-7.56,5.12-2.72,10.71-3.78,16.46-3.19,18.31,1.89,35.14,7.6,48.72,20.54,5.23,4.98,9.93,10.59,14.33,16.33,5.79,7.55,13.35,11.53,22.47,13.34,12.05,2.39,24.07,4.92,36.05,7.65,9.55,2.18,18.29,6.49,27.01,10.86,6.47,3.24,13.29,5.77,19.84,8.85,7.51,3.53,15.28,6.71,22.24,11.13,9.61,6.1,18.73,13.01,27.75,19.97,9.08,7.01,13.86,16.6,14.82,28.02.42,4.93.53,9.89.79,14.83ZM85.48,619.18c1.67,34.45,11.7,66.13,29.91,95.07,11.43,18.17,25.52,34.29,41.12,49.14,12.48,11.88,25.49,23.29,36.11,37.01,8.01,10.35,16.13,20.63,24.06,31.04,3.41,4.48,7.2,8.49,11.95,11.55,5.8,3.73,11.56,7.53,17.39,11.22,1.4.89,2.98,1.56,4.56,2.09,11.08,3.66,22.26,4.01,33.41.46,8.26-2.63,16.48-5.4,24.58-8.45,9.66-3.64,19.17-3.71,28.73.1,1.48.59,2.94,1.25,4.46,1.72,9.21,2.83,18.27,6.41,27.68,8.21,12.61,2.4,24.83.54,35.47-7.65,2.51-1.93,5.32-3.5,8.08-5.09,6.7-3.85,12.25-8.87,16.78-15.18,16.41-22.82,34.48-44.18,55.24-63.25,11.19-10.28,21.69-21.27,31.25-33.2,21.38-26.7,35.17-56.71,40.92-90.38,2.67-15.6,3.68-31.24-.15-46.92-.94-3.84-.88-8.18-.2-12.11,3.62-20.83,7.05-41.79,14.01-61.78,6.73-19.34,8.57-39.01,6.93-59.11-1.54-18.95-3.71-37.85-5.8-56.75-1.2-10.81-1.48-21.53,1.33-32.15,1.19-4.5,2.8-8.84,6.23-12.13,4.87-4.65,9.93-9.1,16.52-11.27,2.91-.96,5.14-2.75,6.52-5.49,1.99-3.95,3.96-7.91,5.83-11.91,2.38-5.1,3.24-10.5,2.32-16.06-1.27-7.68-2.97-15.29-4.09-22.99-1.83-12.51-3.56-25.04-4.93-37.6-2.03-18.73.92-37.03,5.25-55.21,2.99-12.54,3.51-25.16.52-37.87-2.3-9.78-7.01-17.15-16.63-21.47-11.24-5.05-19.92-13.34-26.29-23.96-2.87-4.78-5.62-9.63-8.58-14.35-14.53-23.15-35.1-36.29-62.67-38.13-4.72-.31-9.44-1.48-14.03-2.72-13.51-3.65-25.91-9.94-38.09-16.64-11.23-6.17-22.84-11.31-35.39-14.07-8.2-1.8-16.51-4.13-24.92-2.57-7.43,1.37-14.64,3.92-21.95,5.96-6.03,1.68-11.97,3.78-18.1,4.94-5.63,1.06-11.45,1.27-16.97-1.21-.63-.28-1.52-.06-2.27.06-3.37.55-6.73,1.57-10.11,1.64-9.37.2-18.05-2.69-26.69-6.14-8.71-3.48-17.79-6.29-27.34-5.5-13.76,1.14-27.09,4.37-39.62,10.28-8.63,4.07-17.03,8.65-25.55,12.97-14.97,7.58-30.63,12.29-47.5,14.07-17.58,1.85-32.68,9.88-44.61,23.34-6.14,6.93-11.34,14.48-15.72,22.61-7.36,13.66-17.65,24.28-31.9,30.74-6.9,3.13-10.74,8.56-13,15.55-4.68,14.46-4.15,28.98-.62,43.49,4.42,18.18,6.48,36.49,5.07,55.25-1.29,17.18-4.12,34.09-7.8,50.85-2.52,11.49-1.45,22.1,4.5,32.23.4.69.77,1.4,1.09,2.12,1.87,4.18,5.03,6.59,9.28,8.47,11.63,5.16,20.08,13.14,22.29,26.57,1.67,10.19,1.22,20.22.11,30.39-2.14,19.6-4.33,39.22-5.76,58.88-1.16,16.03-.53,32.11,4.96,47.48,7.15,20.02,10.4,40.96,15.08,61.56,1.65,7.27,2.16,14.62.63,22.11-1.35,6.64-1.96,13.43-2.89,20.15Z" style="fill: #000; stroke-width: 0px;"/>
  <path d="M115.2,616.01c0-6.28.37-12.58-.13-18.82-.33-4.08-1.9-8.06-2.93-12.08-2.03-7.91-4.77-15.45-9.22-22.46-4.21-6.64-6.29-14.37-6.94-22.13-1.15-13.67-4.49-26.87-7.52-40.13-5.34-23.41-3.95-46.32,3.52-69.07,3.22-9.82,6.03-19.81,8.48-29.85,2.28-9.35,1.12-18.37-5.26-26.07-7.56-9.13-14.92-18.45-23.04-27.06-7.07-7.51-10.73-16.18-12.57-26.08-2.89-15.59-2.52-31.14-.3-46.75.73-5.15,1.26-10.38,1.2-15.57-.23-18.14,1.79-36,5.21-53.79,3.67-19.09,12.2-35.55,25.69-49.39,8.62-8.84,15.12-18.81,18.98-30.59,2.56-7.82,7.57-14.14,13.68-19.59,3.58-3.2,7.69-5.54,12.39-6.31,7.66-1.25,15.4-2.01,23.09-3.07,2.69-.37,5.43-.72,7.99-1.55,7.49-2.42,14.91-5.06,22.35-7.65,9.65-3.36,18.7-7.91,25.43-15.77,10.35-12.08,23.9-16.79,39.1-18.2,1.94-.18,3.89-.23,5.82-.47,11.55-1.39,22.26.62,32.23,6.97,5.58,3.55,11.63,6.38,17.56,9.36,8.54,4.31,17.19,4.34,25.72-.05,7.71-3.97,15.37-8.04,22.98-12.17,5.74-3.12,11.77-4.64,18.33-4.41,9.48.32,18.9.82,28.15,3.22,8.52,2.21,16.08,6.04,21.96,12.68,8.58,9.69,19.25,15.95,31.45,19.9,7.24,2.34,14.36,5.03,21.59,7.38,1.89.61,4,.56,6.02.78,6.49.72,13.02,1.22,19.48,2.16,12.46,1.83,20.43,9.85,26.51,20.12,1.65,2.8,2.94,5.87,3.98,8.96,3.39,10.1,9.16,18.59,16.3,26.44,5.81,6.4,11.61,13.03,16.07,20.38,3.93,6.47,6.63,13.89,8.77,21.22,5.79,19.83,7.83,40.22,7.91,60.86.03,6.86.78,13.75,1.59,20.58,2.06,17.46,2.09,34.77-2.5,51.9-1.64,6.11-4.63,11.36-8.81,16.12-8.4,9.56-16.64,19.27-24.77,29.07-7.27,8.77-7.86,18.76-4.81,29.32,3.96,13.68,8.3,27.26,11.61,41.1,3.98,16.62,4.18,33.48.6,50.29-2.38,11.16-4.84,22.3-7.05,33.49-1.49,7.53-2.12,15.27-4.06,22.66-1.35,5.12-4.28,9.83-6.5,14.73-1.49,3.29-3.2,6.49-4.42,9.88-1.47,4.07-2.33,8.36-3.79,12.44-2.51,7.02-1.94,14.33-2.4,21.54-.22,3.35-.19,6.73,0,10.08.78,13.38-1.39,26.18-6.4,38.67-5.06,12.63-10.36,25.08-19.36,35.45-3.39,3.9-7.38,7.39-11.54,10.48-5.1,3.78-9.5,8.1-13.54,12.98-8.01,9.66-16.35,19.05-24.54,28.57-4.55,5.29-9.16,10.54-13.56,15.96-6.12,7.54-12.19,15.13-18.03,22.89-5.59,7.44-12.02,13.86-19.87,18.92-3.78,2.43-7.45,5.11-10.92,7.96-7.76,6.38-16.62,10.79-25.87,14.37-7.96,3.08-16.22,2.22-24.28.03-4.34-1.18-7.31-4.26-8.99-8.42-1.52-3.77-2.67-7.7-4.31-11.42-.98-2.22-2.44-4.26-3.94-6.18-1.11-1.42-2.8-1.38-3.91,0-1.46,1.84-2.88,3.81-3.82,5.95-1.53,3.47-2.61,7.14-3.95,10.7-2.19,5.81-6.41,9.14-12.5,10.23-10.16,1.83-19.75.83-29.04-4.21-7.41-4.02-14.7-8.06-21.14-13.59-2.67-2.29-5.73-4.15-8.7-6.06-7.71-4.95-13.81-11.48-19.32-18.73-6.24-8.23-12.74-16.27-19.3-24.25-6.17-7.51-12.56-14.85-18.86-22.25-7.28-8.54-14.53-17.12-21.93-25.56-1.85-2.11-3.98-4.12-6.33-5.61-12.56-7.98-20.9-19.47-27.1-32.64-5.77-12.26-11.39-24.68-12.69-38.36-.64-6.75-.11-13.61-.11-20.42-.29,0-.58,0-.87,0ZM572.93,239.95c-.22-.03-.44-.06-.66-.08.35-15.27-2.45-30.22-8.46-48.64-2.11-6.46-5.97-11.17-10.99-15.5-5.06-4.36-9.95-9.06-14.2-14.19-4.2-5.07-8.52-9.87-13.6-14.07-8.02-6.65-16.52-12.83-22.85-21.3-3.53-4.72-7.89-8.47-13.28-10.7-7.02-2.9-14.16-5.55-21.38-7.9-10.22-3.33-20.13-7.26-29.23-13.06-7.46-4.75-14.71-9.86-22.33-14.32-12.13-7.1-25.35-11-39.37-8.97-8.76,1.27-17.24,4.49-25.8,7.01-6.44,1.89-12.67,4.73-19.22,5.9-5.61,1-11.67,1.03-17.28.05-6.55-1.15-12.79-3.99-19.22-5.88-8.73-2.56-17.45-5.2-26.31-7.19-3.69-.83-7.77-.44-11.61,0-12.94,1.45-24.55,6.38-35.19,13.83-11.69,8.19-23.65,15.92-37.33,20.47-6.46,2.15-12.94,4.24-19.38,6.44-9.3,3.18-17.57,7.81-23.32,16.22-1.77,2.59-4.19,4.81-6.56,6.91-5.24,4.62-10.75,8.94-15.94,13.61-3.66,3.3-7.4,6.67-10.35,10.57-4.85,6.41-10.24,12.16-16.63,17.01-4.9,3.72-8.24,8.38-10.37,14.34-8.62,24.13-11.16,48.77-6.5,73.94,1.74,9.39,2.12,18.61.3,27.92-3.27,16.81-1.1,32.89,5.89,48.46,3.88,8.63,8.79,16.06,18.03,19.9,2.86,1.19,5.58,3.22,7.76,5.46,12.88,13.21,16.09,28.76,10.55,46.24-1.9,5.99-4.02,11.91-5.69,17.96-8.02,29.02-12.2,58.31-6.36,88.38,3,15.47,5.49,31.01,12.36,45.44,4.86,10.22,7.64,21.12,9.4,32.26.87,5.52,1.72,10.97,4.57,15.93,1.04,1.81,1.73,3.92,2.15,5.98,2.09,10.22,3.91,20.5,6.09,30.7.91,4.27,2.16,8.55,3.85,12.57,2.4,5.69,5.53,11.08,8.04,16.73,2.75,6.2,6.68,11.36,11.77,15.81,10.26,8.99,22.08,15.66,33.82,22.33,10.44,5.94,18.5,14.15,25.7,23.39,5.1,6.55,7.27,14.51,9.59,22.31,2.65,8.89,6.34,17.29,11.43,25.01,1.17,1.77,3.22,3.35,5.21,4.11,3.78,1.45,7.75,2.58,11.74,3.24,7.91,1.32,15.43,3.35,22.52,7.38,6.7,3.8,14.44,1.75,18.71-4.67,4.71-7.08,10.92-10.45,19.43-10.02,5.44.27,10.92.13,15.18,4.24,1.89,1.83,3.56,3.93,5.11,6.07,2.32,3.19,5.37,5.02,9.18,5.81,3.95.82,7.6-.01,10.95-2.06,5.38-3.28,11.19-5.1,17.41-6.04,4.27-.64,8.42-2.04,12.66-2.91,4.53-.93,7.27-3.69,9.57-7.59,5.56-9.4,8.78-19.67,12.11-29.94,5.35-16.48,16.72-28.03,30.97-37.07,8.66-5.5,17.6-10.56,26.19-16.16,10.5-6.85,19.04-15.41,23.39-27.64,1.56-4.38,4.38-8.3,6.18-12.61,1.55-3.71,2.79-7.61,3.61-11.55,2.14-10.21,3.8-20.52,6.02-30.71.78-3.58,2.65-6.91,3.93-10.39.75-2.05,1.62-4.14,1.93-6.28,1.85-12.84,4.55-25.47,9.99-37.31,5.25-11.43,8.16-23.47,10.91-35.68,5.91-26.19,6.14-52.36.46-78.46-2.95-13.54-6.89-26.91-11.25-40.07-5.55-16.74.67-42.8,21.47-51.64,4.46-1.89,7.83-5.13,10.4-9.17,5.78-9.07,9.32-19.06,11.42-29.53,2.01-10.05.91-20.09-.79-30.08-1.23-7.2-1.33-14.4-.26-21.66,1.41-9.61,2.51-19.26,3.75-28.9Z" style="fill: #000; stroke-width: 0px;"/>
  <path d="M555.06,231.11c-.36,3.77-.56,10.63-1.75,17.3-1.96,10.97-1.47,21.87-.09,32.77,1.69,13.29.95,26.49-.92,39.68-2.04,14.4-9.9,25.31-20.8,34.36-1.09.9-2.1,1.91-3.26,2.72-14.29,10.01-18.45,24.28-17.47,40.85.77,12.98,2.97,25.63,7.33,37.91,2.48,6.99,3.64,14.24,3.08,21.67-.92,12.21.69,24.23,2.82,36.16,1.04,5.81,2.89,11.42,2.65,17.48-.43,11.04-3.3,21.32-9.03,30.72-3.68,6.04-7.67,11.89-11.74,17.68-2.75,3.91-4.64,8.07-5.57,12.77-3.41,17.31-7.59,34.42-14.7,50.62-10.71,24.38-24.62,46.62-42.95,66.21-12.42,13.27-25.26,26.31-35.36,41.6-2.14,3.25-4.48,6.41-6.24,9.86-1.74,3.42-3.38,7.05-4.15,10.77-2.54,12.36-10.62,19.26-23.22,19.38-1.56.01-3.16.34-4.67.78-10.3,2.97-20,2.1-28.63-4.69-3.28-2.58-6.68-3.09-10.43-1.68-4.77,1.79-9.46,1.83-14.24,0-3.85-1.47-7.3-.8-10.66,1.81-8.49,6.62-18.03,7.46-28.16,4.65-1.85-.51-3.81-.83-5.72-.86-11.54-.18-20.15-7.23-22.17-18.6-.86-4.82-2.83-9-5.31-13.16-7.88-13.25-17.88-24.79-28.27-36.06-6.23-6.76-12.54-13.47-18.55-20.42-11.97-13.85-21.7-29.23-30.13-45.46-10.04-19.33-16.32-39.92-20.48-61.2-1.32-6.74-3.73-12.78-7.9-18.3-3.83-5.07-7.24-10.48-10.51-15.94-6.64-11.08-9.52-23.16-8.78-36.07.09-1.58.3-3.19.71-4.71,3.85-14.56,5.49-29.34,4.62-44.4-.44-7.62,1.08-14.98,3.63-22.12,5.09-14.26,7.36-29.01,6.85-44.07-.4-11.87-4.03-22.57-13.96-30.27-3.56-2.76-6.91-5.8-10.27-8.81-10.18-9.11-16.09-20.41-17.69-34.05-1.56-13.24-2.16-26.44-.2-39.69,1.74-11.77.53-23.44-1.06-35.14-1.96-14.42-1.63-28.82,2.9-42.81,1.32-4.09,3.03-8.2,5.36-11.79,9.37-14.42,20.58-26.9,35.18-36.63,13.51-9,28.58-13.78,43.28-19.8,11.45-4.69,22.75-9.77,33.97-14.99,2.97-1.38,5.37-3.98,8.09-5.95,5.51-3.99,10.85-8.27,16.64-11.82,13.14-8.06,26.84-8.42,40.83-2.07,7.4,3.36,14.76,6.88,22.38,9.65,4.51,1.64,9.47,2.48,14.27,2.73,6.5.34,13.05-.11,19.57-.46,11.09-.59,20.77-5.89,30.35-10.53,16.75-8.11,32.38-7.69,47.62,2.87,5.66,3.93,10.99,8.34,16.53,12.43,2.12,1.56,4.32,3.09,6.68,4.24,18.29,8.98,37.36,16.05,56.39,23.27,3.69,1.4,7.24,3.31,10.63,5.34,4.55,2.72,8.95,5.72,13.31,8.74,13.74,9.52,24.01,22.24,32.03,36.65,6.12,11,7.16,23.39,7.35,38.84ZM138.43,473.63c-.28.03-.56.06-.85.09.94,7.7,1.53,15.47,2.9,23.09,2.17,12.04,5.36,23.72,11.84,34.42,3.25,5.37,5.45,11.55,7.17,17.63,3.96,13.95,7.28,28.08,10.96,42.12,4.55,17.35,12.84,32.69,25.04,45.88,8.2,8.86,17.33,16.66,26.92,23.97,10.1,7.7,16.58,17.76,19.06,30.3.84,4.25,1.63,8.52,2.59,12.74.53,2.32,1.06,4.72,2.13,6.81,5.76,11.25,11.48,22.54,17.69,33.55,2.39,4.23,5.6,8.24,9.22,11.46,7.27,6.48,18.5,2.8,24.34-3.19,3.2-3.28,6.07-6.94,9.58-9.85,5.02-4.15,9.63-3.78,14.47.51,1.02.9,1.77,1.02,2.65-.04,3.21-3.88,8.95-4.73,14.11-.8,2.72,2.07,5.38,4.42,7.43,7.13,2.81,3.72,6.14,6.2,10.46,8.06,6.61,2.85,12.46,1.93,17.46-2.65,3.26-2.98,6.03-6.75,8.2-10.62,4.14-7.4,7.18-15.45,11.62-22.65,5.41-8.76,8.79-17.97,10.32-28.11,2.14-14.17,9.66-25.07,20.9-33.9,8.32-6.54,16.27-13.64,23.82-21.06,12.81-12.61,21.32-27.95,26.21-45.19,2.99-10.55,5.31-21.29,8-31.92,3.27-12.9,7.24-25.53,14.35-36.97,1.29-2.08,2.19-4.45,2.99-6.79,8.95-26.26,9.91-52.68,1.47-79.26-7.53-23.73-9.34-47.88-4.95-72.36,3.89-21.69,13.16-41.32,25.29-59.43,10.57-15.79,17.22-32.34,16.35-51.61-.97-21.65-7.94-40.45-24.83-54.84-2.89-2.46-5.84-4.89-8.44-7.63-5.28-5.57-10.7-11.07-15.43-17.09-8.02-10.22-17.04-19.12-28.7-25.12-8.25-4.25-16.39-8.74-24.71-12.85-10.46-5.17-20.98-10.23-31.62-15.02-6.94-3.13-13.98-2.42-20.78.9-1.27.62-2.56,1.2-3.84,1.82-6.47,3.13-13.27,4.33-20.39,3.25-9.71-1.47-19.37-3.29-29.11-4.48-4.85-.59-9.88-.55-14.75-.02-7.2.79-14.36,2.08-21.47,3.51-11.51,2.31-22.4,1.44-32.92-4.33-3.1-1.7-7.08-2.11-10.72-2.44-5.77-.51-10.9,2.12-15.89,4.55-10.5,5.1-20.88,10.43-31.28,15.73-4.33,2.21-8.45,4.89-12.91,6.79-14.27,6.08-25.5,15.76-34.36,28.31-5.88,8.33-13.06,15.5-20.92,21.72-11.24,8.9-19.32,19.84-23.44,33.33-7.69,25.18-5.74,49.38,9.86,71.42,7.62,10.77,13.41,22.49,18.67,34.48,14.18,32.3,14.59,65.43,4.78,98.87-3.64,12.4-6.16,24.88-6.53,37.8Z" style="fill: #000; stroke-width: 0px;"/>
  <path d="M258.28,530.26c2.12,0,4.25-.02,6.37,0,11.52.13,20.45-5.03,28.07-13.29,5.54-6.01,12.68-8.86,20.65-6.49,6.55,1.95,12.51,1.82,19.05-.02,8.43-2.37,15.48,1.03,21.34,7.38,6.99,7.58,15.45,12.34,26.05,12.37,9.74.03,19.46.1,29.05,2.16,6.86,1.47,13.18,3.94,18.54,8.64,5.41,4.74,8.45,10.63,8.78,17.8.16,3.44.3,6.94-.19,10.33-1.04,7.16-.97,14.25-.24,21.42.35,3.4.21,6.9-.12,10.31-.49,4.98-3.12,8.79-7.49,11.27-7.01,3.97-14.11,7.69-22.04,9.66-4.97,1.24-9.85,2.9-14.65,4.68-2,.74-3.93,2.06-5.5,3.53-3.1,2.89-5.82,6.19-8.9,9.11-7.75,7.32-17.23,8.63-27.2,6.93-5.39-.92-9.41-4.55-12.09-9.24-1.74-3.04-3.18-6.36-4.07-9.73-1.37-5.15-4.76-8.57-8.64-11.72-1.54-1.25-3.11-1.12-4.6.09-3.96,3.23-7.34,6.78-8.6,12.05-1.63,6.82-4.9,12.72-11.12,16.49-1.49.91-3.15,1.81-4.84,2.08-10.12,1.58-19.62.34-27.43-7.06-2.95-2.8-5.5-6.02-8.52-8.73-1.85-1.67-4.09-3.16-6.42-4-5.57-2.01-11.44-3.22-16.92-5.42-6.79-2.72-13.43-5.86-19.89-9.28-4.76-2.52-6.66-7.22-6.95-12.43-.18-3.34.18-6.71.18-10.07,0-5.9-.02-11.81-.15-17.71-.06-3.18-.45-6.35-.51-9.53-.23-12.03,5.71-20.29,16.08-25.66,6.72-3.48,14.12-4.52,21.51-5.33,3.77-.42,7.59-.5,11.38-.73,0,.04,0,.09,0,.13ZM398.07,593.78c0-.31.02-.63.03-.94-1.75-.55-3.51-1.08-5.25-1.65-12.95-4.28-25.28-9.6-34.96-19.74-4.52-4.74-5.13-4.63-9.92-.1-.19.18-.39.36-.59.53-3.51,3.08-6.85,3.18-10.47.19-2.18-1.8-4.3-3.67-6.37-5.6-5.01-4.67-10.21-4.71-15.28-.09-2.16,1.96-4.34,3.9-6.59,5.75-3.52,2.89-6.87,2.8-10.26-.17-.73-.64-1.42-1.33-2.1-2.03-2.55-2.65-3.93-2.73-6.7-.23-2.62,2.37-5.04,4.99-7.8,7.18-9.38,7.44-20.34,11.65-31.62,15.16-.86.27-1.69.59-2.54.89.01.3.02.59.03.89,2.55.42,5.1,1,7.67,1.22,6.94.59,12.02,3.85,15.09,10.11.86,1.74,1.45,3.61,2.28,5.36,2.56,5.39,5.97,10.03,11.67,12.47,2.35,1.01,4.42.67,5.53-1.88,2.4-5.57,4.71-11.17,7.02-16.77,1.61-3.9,2.68-8.11,4.83-11.69,3.84-6.39,9.87-8.71,17.29-7.66,2.4.34,4.93.39,7.33.03,7.73-1.16,14.14,1.49,17.96,8.35,1.86,3.35,3.09,7.11,4.23,10.8,1.86,6,3.74,11.95,7.24,17.26,1.22,1.85,2.72,2.59,4.7,1.74,1.77-.75,3.61-1.59,5.03-2.83,3.48-3.05,6.29-6.65,7.84-11.15,2.95-8.57,8.53-13.86,18.03-14.26,2.23-.09,4.43-.74,6.65-1.13ZM234.84,577.78c1.26.19,1.93.36,2.6.37,8.09.12,15.6-1.82,22.29-6.49,3.7-2.58,7.34-5.25,10.98-7.91,5.83-4.27,11.99-7.8,19.17-9.33,5.14-1.1,9.85-.76,13.82,3.14.29.28.75.39,1.33.68.81-1.25,1.56-2.42,2.34-3.58,6.64-9.94,17.4-12,26.5-4.81,2.29,1.81,3.99,4.44,5.72,6.86.95,1.33,1.65,1.7,2.88.51,3.69-3.58,8.12-3.89,12.86-2.9,5.97,1.25,11.44,3.64,16.41,7.18,4.68,3.34,9.34,6.7,14.04,10.01,6.59,4.64,13.98,6.69,21.98,6.62.83,0,1.65-.17,2.42-.25.04-.5.13-.71.06-.83-.3-.53-.61-1.07-.98-1.56-3.08-4.09-5.42-8.58-6.3-13.61-.86-4.93-3.78-7.32-8.29-8.88-6.64-2.3-13.52-2.51-20.37-3.28-10.76-1.21-19.73-5.42-26.27-14.56-2.73-3.82-6.62-6.82-10.04-10.14-2.14-2.08-4.77-2.65-7.62-1.9-5.08,1.33-10.12,1.33-15.2-.02-2.75-.73-5.34-.18-7.4,1.82-3.61,3.5-7.55,6.78-10.55,10.75-5.36,7.08-12.12,11.53-20.75,13.16-3.38.64-6.85.79-10.24,1.4-5.54,1-11.09,2.07-16.57,3.36-3.78.89-5.67,3.57-6.78,7.35-1.29,4.36-3.34,8.51-5.2,12.68-.59,1.33-1.65,2.45-2.84,4.14Z" style="fill: #000; stroke-width: 0px;"/>
  <path d="M355.37,481.11c-2.5-3.13-6.04-3.83-8.92-1.86-1.86,1.27-3.59,2.93-4.92,4.75-3.96,5.41-9.24,7-15.63,6.2-1.99-.25-4.06-.26-6.05,0-6.4.84-11.67-.81-15.66-6.16-1.35-1.81-3.06-3.48-4.91-4.77-2.84-1.98-6.31-1.35-8.98,1.62,1.48-.12,2.54-.14,3.57-.31,1.9-.31,3.94-.68,4.75,1.61.89,2.5-1.14,3.4-2.93,4.26-3.1,1.5-6.29,2.86-9.31,4.52-6.68,3.66-13.78,4.71-21.3,4.17-2.07-.15-4.53.24-6.27,1.27-12.2,7.25-24.17,5.23-36.2-.35-1.09-.51-2.57-.51-3.81-.34-7.63,1.07-14.68,3.92-21.47,7.39-7.42,3.8-14.64,3.36-21.85-.44-5.2-2.74-8.75-6.92-10.28-12.58-2.68-9.88-2.8-19.77.82-29.49,1.79-4.81,3.95-9.48,5.66-14.31,3.35-9.5,6.67-19.01,9.69-28.62,2.45-7.81,5.18-15.46,10.27-21.97,1.54-1.98,3.5-3.81,5.63-5.12,13.83-8.46,26.01-18.94,37.37-30.42,6.62-6.69,14.53-10.82,23.63-12.98,2.37-.56,4.69-1.58,6.83-2.77,4.43-2.47,7.1-6.28,8.72-11.19,1.31-3.95,3.18-7.9,5.64-11.24,3.38-4.6,9.71-3.32,11.84,2.03,1.39,3.49,1.71,7.14.2,10.62-2.82,6.5-4.62,13.31-6.82,20.01-3.28,10.02-8.92,18.72-18.68,23.85-2.55,1.34-5.35,2.42-8.16,3.05-6.55,1.46-13.21,2.46-19.78,3.87-2.65.57-5.25,1.56-7.73,2.67-6.29,2.83-12.4,6.05-18.75,8.73-10.22,4.3-15.09,12.56-17.64,22.71-3.17,12.6-6.43,25.17-9.43,37.81-1.04,4.36-1.85,8.87-1.98,13.34-.27,9.03,2.05,11.84,12.99,13.25,2.11.27,4.37-.43,6.54-.83,6.78-1.25,13.57-2.46,20.31-3.91,3.96-.85,8.16-1.51,11.67-3.36,7.92-4.17,14.32-1.92,20.23,3.6,2.18,2.04,4.58,3.11,7.49,3.58,2.19.36,4.26,1.59,6.45,1.8,1.2.11,2.89-.79,3.71-1.78,2.89-3.45,5.34-7.27,8.25-10.7,5.34-6.28,12.13-7.91,19.9-5.44,5.57,1.77,10.63,4.28,14.08,9.37.73,1.07,2.41,1.96,3.72,2.08,3.24.3,6.56.38,9.78,0,1.54-.18,3.36-1.3,4.31-2.56,4.86-6.44,11.62-9.05,19.23-9.88,4.74-.52,9.06,1.07,12.3,4.51,3.2,3.39,6.04,7.15,8.8,10.91,3.14,4.28,4.79,4.78,9.47,2.25.16-.08.32-.23.47-.23,6.04-.07,9.74-4.6,14.19-7.6,3.58-2.41,7.2-3.02,11.04-1.31,12.73,5.67,26.71,5.89,39.95,9.34,4.32,1.13,8.55-.37,12.1-2.77,1.61-1.09,3.1-3.5,3.22-5.39.29-4.62.27-9.4-.59-13.93-1.23-6.5-3.39-12.81-5.01-19.24-1.81-7.2-3.51-14.42-5.14-21.66-2.48-11.01-7.6-19.81-18.7-24.3-6.38-2.58-12.43-5.97-18.75-8.72-2.8-1.22-5.85-1.94-8.85-2.59-6.56-1.43-13.23-2.44-19.74-4.04-6.35-1.56-11.65-5.19-15.83-10.19-5.35-6.4-9.11-13.63-10.87-21.88-.62-2.9-1.66-5.75-2.82-8.49-2.09-4.92-4.58-9.82-2.42-15.26.79-1.98,2.37-3.94,4.11-5.18,2.48-1.77,5.59-1.34,7.39,1.12,2.26,3.08,4.65,6.43,5.63,10.03,2.55,9.4,8.57,14.39,17.78,16.44,8.21,1.83,15.16,5.99,21.36,11.74,8.28,7.7,16.82,15.14,25.45,22.45,3.35,2.84,7.18,5.16,10.95,7.46,4.34,2.65,7.92,6.06,10.21,10.53,2.37,4.63,4.97,9.33,6.24,14.31,3.71,14.56,9.12,28.47,14.97,42.23,4.19,9.86,4.96,19.89,3.25,30.41-2.57,15.82-20.63,22.95-32.39,16.62-6.94-3.73-14.28-6.64-22.19-7.75-1.1-.15-2.56-.41-3.32.13-5.26,3.73-11.52,3.71-17.44,5-6.84,1.49-12.73-1.08-18.46-4.19-2.44-1.32-4.82-1.86-7.6-1.57-7.22.76-14.07-.52-20.52-4-3.27-1.76-6.69-3.23-10.04-4.84-1.68-.81-3.26-1.85-2.48-4.03.7-1.98,2.48-1.98,4.24-1.71,1.19.19,2.39.35,4.21.61Z" style="fill: #000; stroke-width: 0px;"/>
  <path d="M265.96,222.51c-.5,5.83-.87,10.77-1.35,15.7-.65,6.7-3.06,12.77-7.43,17.86-5.56,6.49-6.82,13.39-4.47,21.7,2.06,7.27,3.2,14.9,3.88,22.44,1.09,12.1-3.22,21.95-13.69,28.83-5.82,3.82-11.2,8.33-17.1,11.99-6.43,4-13.61,6.33-21.18,7.25-9.85,1.2-15.83-3.39-17.07-13.26-.46-3.67-.5-7.41-.6-11.12-.14-5.15-1.51-9.96-3.81-14.51-2.8-5.54-7.64-6.97-13.07-3.99-1.78.98-3.53,2.05-5.39,2.85-7.86,3.38-15.54,2.46-21.44-3.45-9.57-9.57-16.17-21.26-19.42-34.43-2-8.1-.54-16.15,3.2-23.73,4.63-9.4,10.73-17.68,18.54-24.65,4.38-3.91,9.4-6.5,15.34-7.28,2.05-.27,4.04-1.16,6.02-1.9,3.23-1.2,6.4-2.54,9.62-3.75,4.87-1.84,9.76-3.63,14.65-5.45,11.43-4.25,22.75-8.83,34.34-12.6,4.58-1.49,9.77-1.82,14.63-1.61,16.05.7,25.96,15.39,25.8,27.1-.03,2.3,0,4.6,0,6ZM244.62,245.7c.87-2.11,1.6-3.95,2.39-5.76,3.21-7.38,4.48-15.09,3.62-23.08-.92-8.56-6.99-13.1-15.38-11.74-6.67,1.08-12.56,4.18-18.45,7.24-8.24,4.28-16.26,9.05-24.72,12.84-7.07,3.16-14.58,5.37-22,7.69-9.25,2.89-17.15,7.23-19.11,17.7-1.08,5.8-2.48,11.87-1.77,17.58.84,6.8,3.44,13.47,5.94,19.94,1.47,3.79,5.81,5.41,8.97,4.59,2.17-.56,2.86-1.43,2.17-3.95-2.04-7.44-1.99-14.95,1.52-22,3.29-6.63,10.21-12.15,19.82-8.65,1.24.45,3.17.36,4.26-.32,6.5-4.08,13.04-8.11,18.43-13.75,2.08-2.17,4.64-4.51,7.4-5.28,7.71-2.16,15.24-.56,22.28,3.04,1.58.81,2.8,2.34,4.63,3.92ZM216.18,254.25c-3.43,3.44-6.55,6.52-9.59,9.68-.42.44-.7,1.33-.57,1.92.48,2.33.63,4.92,1.82,6.86,3.8,6.2,4.39,13.08,4.47,19.94.1,8.55,2.1,16.63,4.68,24.64.2.62.74,1.59,1.13,1.6,3.53.05,7.07-.08,10.62-.15-1.66-3.28-3.62-5.88-4.29-8.78-1.47-6.39-1.51-12.91-.56-19.48.43-2.95.22-6.17-.49-9.08-1.46-5.99-3.53-11.83-5.19-17.78-.85-3.03-1.34-6.16-2.02-9.38ZM238.21,316.18c.24.08.47.15.71.23.44-.68,1.02-1.31,1.28-2.05,3.17-9.06,4.44-18.33,1.07-27.53-3.39-9.26-3.53-18.48-1.27-27.88.42-1.75-.08-2.91-1.18-4.29-3.34-4.18-8.48-3.32-13.1-5.32.09,1.45.09,2.46.22,3.46,1.25,9.54,2.47,19.09,3.81,28.61.3,2.16.77,4.38,1.62,6.37,1.72,4.05,3.77,7.96,5.66,11.94,1.76,3.71,2.17,7.6,1.56,11.65-.24,1.59-.27,3.21-.39,4.82ZM199.56,269.43c-4.77,3.43-9.13,3.4-13.69,1.6-1.83-.72-2.05.8-2.05,2.1.02,4.42-.02,8.84.24,13.25.06.92,1.22,1.9,2.06,2.62,2.32,1.98,5.23,3.47,7.02,5.83,3.66,4.83,6.78,10.08,10.06,15.19,1.87,2.93,4.38,5.12,7.4,6.9-1.86-8.59-2.64-17.36-7.19-25.08-2.86-4.86-4.25-9.98-3-15.75.4-1.86-.47-4-.86-6.67Z" style="fill: #000; stroke-width: 0px;"/>
  <path d="M522.51,263.52c.1,6.52-1.39,12.63-4.65,18.29-2.91,5.06-5.62,10.24-8.72,15.18-3.9,6.23-8.83,11.26-16.52,12.72-5.76,1.1-10.85-.55-15.65-3.51-2.63-1.62-5.39-3.08-8.47-1.85-1.85.74-3.92,1.91-4.97,3.5-3.29,4.96-4.68,10.62-4.87,16.58-.12,3.8-.15,7.63-.67,11.38-1.25,8.96-7.14,13.47-16.16,12.56-7.86-.79-15.09-3.55-22.04-7.22-8.13-4.29-15.16-10.14-21.96-16.14-8.01-7.06-10.06-16.66-8.58-26.91,1.14-7.86,2.71-15.68,4.44-23.44,1.31-5.86.59-11.29-3.25-15.77-6.93-8.07-9.87-17.39-10.14-27.81-.12-4.77-.69-9.54-.62-14.31.21-14.96,11.63-26.67,26.58-27.54,6.86-.4,13.29,1.17,19.66,3.58,15.28,5.8,30.64,11.39,45.96,17.08,1.82.68,3.57,1.56,5.4,2.2,2.98,1.03,5.95,2.19,9.02,2.83,5.18,1.09,9.67,3.41,13.57,6.87,8.73,7.75,15.65,16.9,19.94,27.76,1.72,4.36,2.29,9.17,3.38,13.78-.24.05-.47.11-.71.16ZM400.46,245.2c3.8-2.17,6.65-4.38,9.87-5.49,3.46-1.19,7.26-1.58,10.95-1.9,5.21-.45,9.81,1.15,13.27,5.27,5.1,6.08,11.96,9.87,18.33,14.3,1.81,1.26,3.68,1.34,5.78.6,6.15-2.15,11.54-.78,15.88,4.07,7.06,7.9,7.06,17.22,4.8,26.75-.56,2.37-.18,3.51,1.98,3.74,1.67.18,3.84.28,5.02-.61,2.1-1.58,4.21-3.65,5.28-6,4.6-10.03,6.07-20.41,4.09-31.53-2.01-11.29-8.12-18.35-18.93-21.06-15.28-3.83-29.19-10.6-42.8-18.27-7.45-4.2-14.93-8.54-23.59-9.98-7.45-1.24-10.82.4-14.07,7.21-.81,1.71-1.32,3.72-1.35,5.61-.06,3.79-.22,7.7.6,11.35,1.22,5.45,3.25,10.73,4.89,15.93ZM416.89,318.11c.05.32.09.65.14.97,3.32,0,6.65.09,9.96-.08.57-.03,1.36-1.04,1.59-1.75,2.64-8.09,4.58-16.28,4.74-24.91.13-6.68.73-13.41,4.38-19.45,1.1-1.82,1.49-4.17,1.74-6.33.13-1.08-.53-2.49-1.28-3.38-2.2-2.63-4.66-5.04-6.94-7.62-.43-.49-.46-1.34-.67-2.02-.36.31-.72.61-1.08.92-.18.67-.4,1.33-.54,2.01-1.77,8.57-3.37,17.17-6.86,25.31-.95,2.21-1.03,5.09-.66,7.52,1.56,10.13,2.45,20.06-4.54,28.81ZM406.76,316.46c.23-.07.46-.15.7-.22-.15-1.97-.42-3.94-.41-5.91.01-2.45-.23-5.07.52-7.32,1.51-4.5,3.68-8.78,5.46-13.2,1.04-2.59,2.26-5.21,2.68-7.92,1.52-9.77,2.74-19.58,4.04-29.39.12-.91.02-1.84.02-2.83-2.9.62-5.59,1.06-8.2,1.79-4.42,1.24-6.43,4.67-5.53,9.1,1.73,8.55,1.74,16.94-1.36,25.31-3.5,9.45-2.5,18.95.72,28.31.28.82.91,1.52,1.37,2.28ZM445.98,269.25c-.36,2.91-1.18,5.07-.74,6.95,1.31,5.58-.02,10.57-2.81,15.23-4.67,7.78-5.68,16.62-7.63,25.19-.02.1.18.25.65.88,2.23-2.32,4.68-4.36,6.49-6.86,3.35-4.63,6.35-9.51,9.43-14.33,2.1-3.29,4.76-5.85,8.39-7.43.83-.36,1.89-1.39,1.92-2.15.21-4.67.17-9.36.16-14.04,0-1.47-.82-2.18-2.26-1.61-4.47,1.77-8.78,1.81-13.6-1.83Z" style="fill: #000; stroke-width: 0px;"/>
</svg>