<?xml version="1.0" encoding="UTF-8"?>
<svg id="Layer_1" data-name="Layer 1" xmlns="http://www.w3.org/2000/svg" viewBox="0 0 633.47 900">
  <path d="M447.29,667.43c0,6.91-.48,13.85.11,20.71,1.01,11.91,2.22,23.84,4.18,35.62,2.32,13.97,7.92,26.98,13.39,39.96,5.05,11.97,9.72,24.08,11.96,36.94,3.69,21.15,4.35,42.21-3.58,62.67-7.17,18.49-19.76,31.6-39.71,35.3-18.14,3.36-35.34-.03-50.23-11.69-17.01-13.31-35.68-23.15-56.68-28.65-8.18-2.14-15.84-1.22-23.66.97-19.86,5.56-37.26,15.62-53.68,27.93-17.62,13.21-37.42,16.2-58.19,8.94-15.13-5.29-24.65-16.82-30.64-31.33-5.89-14.28-7.21-29.25-6.52-44.57.99-21.9,7.83-42.18,16.64-61.92,12.51-28.03,16.44-57.5,15.21-87.88-.04-1.05-.29-2.1-.51-3.61-3.28,2.71-6.1,5.19-9.08,7.47-24.67,18.91-52,24.34-81.81,15.39-25.49-7.65-48.27-20.37-67.89-38.45-14.99-13.81-22.82-31.29-25.3-51.34-2.46-19.87-1.14-39.65,1.4-59.4,3.48-27.09,11.12-53.26,17.73-79.66,5.54-22.12,10.56-44.35,13.47-67,2.51-19.53,2.7-39.08-.06-58.57-4.45-31.42-6.76-62.99-7.13-94.7-.24-20.78-.91-41.58-.27-62.34.86-28,6.66-55.08,18.09-80.83,16.31-36.78,44.27-60.14,82.41-71.78,5.98-1.82,12.15-3.02,18.23-4.5.27-.07.59,0,.82-.13,7.79-4.38,16.3-2.76,24.42-2.27,13.08.8,25.71-.92,38.33-3.98,18.89-4.59,37.81-9.09,56.79-13.27,17.15-3.78,33.31-.11,48.72,7.65,1.49.75,2.65,1.21,4.33.33,17.43-9.19,35.68-11.7,54.94-6.99,20.31,4.97,40.69,9.64,61.04,14.44,8.79,2.07,17.69,2.31,26.67,1.85,6.36-.33,12.74-.22,19.11-.29.45,0,.92.07,1.36.19,8.31,2.31,16.67,4.45,24.91,6.99,22.44,6.9,42.41,18,58.57,35.33,12.59,13.5,21.36,29.32,27.84,46.48,6.27,16.6,10.23,33.76,12.35,51.38,2.53,20.98,2.45,42,1.77,63.06-.25,7.94-.32,15.89-.73,23.82-1.06,20.55-2,41.11-3.51,61.62-.83,11.29-2.86,22.48-4.09,33.74-1.52,13.88-1.7,27.79-.46,41.74,3.05,34.37,12.16,67.48,20.32,100.82,4.24,17.32,8.18,34.75,11.25,52.3,3.21,18.29,4.31,36.85,3.01,55.44-1.26,17.86-5.59,34.76-16.74,49.31-7.67,10.01-17.17,18.03-27.6,24.98-17.17,11.43-35.35,20.75-55.57,25.54-29.12,6.9-55.03.04-78.12-18.56-2.21-1.78-4.33-3.65-6.49-5.48l-1.11.26ZM424.8,889.6c2.3-.14,4.63-.08,6.89-.44,10.9-1.75,18.7-8.23,24.94-16.85,8.45-11.66,11.21-25.16,11.94-39.16.99-19.07-2.75-37.34-10.58-54.7-11.41-25.26-20.28-51.15-21.22-79.21-.44-13.02-1.08-26.04,2.02-38.86.51-2.12-.24-3.68-1.57-5.29-15.49-18.72-26.05-39.92-31.63-63.57-5.1-21.62-5.16-43.38-1.54-65.22,4.28-25.85,12.83-50.39,22.83-74.49,4.7-11.33,9.58-22.62,13.63-34.19,6.25-17.85,1.36-33.04-13.12-44.83-6.76-5.5-14.19-10.29-21.71-14.75-15.77-9.34-32.95-15.59-50.11-21.82-13.97-5.08-28.33-7.89-43.25-7.22-9.23.41-18.36,1.85-27.09,4.76-11.31,3.78-22.56,7.84-33.53,12.5-15.47,6.58-30.66,13.9-43.77,24.67-16.14,13.25-21.79,27.4-14.69,47.74,4.27,12.25,9.65,24.12,14.55,36.15,11.63,28.6,21.37,57.71,23.52,88.82,1.42,20.57-.39,40.77-7.03,60.44-6.45,19.1-15.89,36.5-28.84,51.99-.8.95-.96,2.76-.83,4.11.64,6.67,1.89,13.3,2.18,19.98.68,15.81-.69,31.5-3.65,47.05-3,15.78-8.79,30.63-15.32,45.19-9.26,20.66-14.93,41.96-12.72,64.87,1.04,10.82,3.39,21.27,8.9,30.73,5.39,9.24,12.63,16.59,23.06,20.03,6.7,2.21,13.61,1.64,20.51.86,9.34-1.05,18.09-3.69,25.38-9.8,18.46-15.49,39.86-24.95,62.95-30.95,3.96-1.03,8.3-2.32,12.17-1.68,8,1.32,15.93,3.46,23.65,5.98,16.39,5.34,31.86,12.69,45.1,23.94,11.05,9.39,23.82,13.12,37.99,13.23ZM62.13,291.47c-1.15,1.06-1.89,1.73-2.63,2.4-3.79,3.51-7.05,8.15-11.51,10.25-5.35,2.52-5.57,5.59-4.89,10.44,1.31,9.3,2.06,18.68,3.05,28.02.18,1.7.59,3.05,2.49,3.88,1.03.45,1.7,2.04,2.21,3.25,1.23,2.94,1.85,6.21,3.47,8.91,6.14,10.23,11.13,10.77,19.82,6.99,8.5-3.7,14.61-10.15,20.39-17.07,3.9-4.67,5.08-9.89,3.66-15.79-.47-1.96-.87-4-.91-6-.05-2.45-1.04-3.39-3.47-3.56-10-.72-17.79-5.42-23.03-13.89-2.8-4.53-4.94-9.47-7.33-14.25-.48-.97-.76-2.03-1.32-3.58ZM571.52,291.65c-2.17,4.69-3.94,9.13-6.21,13.3-4.87,8.91-11.42,16.26-22.08,17.54-5.39.65-7.05,2.69-7.81,7.88-1.09,7.36-.86,13.91,4.58,19.51,2.57,2.65,5.06,5.38,7.68,7.97,4.62,4.56,10.12,7.57,16.35,9.4,4.07,1.2,7.34.14,10.39-2.61,4.36-3.93,6.68-8.91,8.1-14.48.35-1.39,1.22-3.08,2.37-3.74,1.73-.99,2.31-2.18,2.35-3.97.03-1.29.19-2.58.32-3.86,1.03-9.73,2.1-19.46,3.06-29.19.09-.94-.35-2.67-.87-2.81-5.77-1.54-9.01-6.25-13.01-10-1.72-1.61-3.43-3.25-5.22-4.95ZM493.15,249.1c.09,4.67.85,8.73,4.58,11.55,4.33,3.28,8.58,3.25,13.08-.05,4.01-2.94,8.46-2.5,12.87-.57,6.41,2.8,12.84,5.54,19.3,8.23,1.07.44,2.36.87,3.43.67,5.39-.98,10.84-7.72,11.53-13.18.7-5.54,1.76-11.08,3.16-16.48.55-2.11.68-3.08-1.28-4.44-7.27-5.04-12.25-11.67-13.2-20.79-.05-.5-.37-.96-.64-1.63-9.34,3.75-18.36,2.09-27.32-1.32-.2.68-.32,1.02-.4,1.36-2.72,10.5-5.28,21.05-8.2,31.49-1.86,6.67-6.81,8.88-13.36,6.52-1.1-.4-2.19-.83-3.54-1.35ZM87.14,212.33c-.39,1.98-.64,3.6-1.02,5.19-1.82,7.72-6.76,13.17-13,17.6-1.34.95-1.61,1.64-1.16,3.33,1.32,4.92,2.29,9.94,3.33,14.93.79,3.74-.23,8.1,3.9,10.65,1.48.92,2.86,2.02,4.23,3.11,2.69,2.13,5.35,2.11,8.44.65,5.66-2.68,11.5-4.98,17.21-7.55,5.3-2.39,10.25-2.26,15.16,1.14,1.58,1.09,3.77,2.1,5.56,1.92,6.52-.64,11.07-7.11,10.25-14.16-1.49.55-2.92,1.14-4.39,1.6-5.94,1.86-10.46-.46-12.34-6.37-.48-1.49-.72-3.05-1.13-4.57-2.53-9.5-5.07-18.99-7.67-28.72-8.9,3.42-17.83,5.03-27.38,1.25ZM562.6,665.21c.76-.07.96-.04,1.1-.11,14.5-7.7,28.19-16.53,39.26-28.86,8.46-9.43,13.49-20.59,15.91-32.98.36-1.85.2-2.9-2.12-3.07-7.88-.56-15.44-2.6-22.8-5.45-1.16-.45-2.5-.53-3.77-.58-3.47-.13-6.95-.07-10.42-.25-3.31-.17-6.61-.7-9.92-.8-7.11-.23-8.35,1.77-5.38,8.16,2.68,5.76,5.62,11.44,7.83,17.38,4.82,12.99,3.54,25.48-4.06,37.22-1.89,2.93-3.6,5.98-5.62,9.36ZM69.5,665.73c.31-.35.63-.7.94-1.06-2.04-3.37-4-6.78-6.13-10.09-5.47-8.49-6.86-17.83-5.47-27.59,1.1-7.76,4.64-14.73,8.08-21.7,1.26-2.56,2.38-5.19,3.42-7.84.8-2.05,0-3.61-2.17-3.85-2.82-.31-5.69-.4-8.52-.27-5.05.24-10.09.71-15.13,1.11-1.97.15-3.99.15-5.91.58-7.35,1.66-14.64,3.62-22.02,5.11-2.27.46-2.63,1.41-2.07,3.12,2,6.2,3.6,12.59,6.29,18.49,5.05,11.06,13.29,19.73,23.01,26.81,8.32,6.06,17.1,11.48,25.67,17.18ZM99.14,204.13c.83,0,2.05.16,3.22-.02,16.54-2.63,29.08-15.78,30.9-32.2.29-2.63-.26-3.76-3.13-4.1-7.29-.86-13.65-3.69-18.31-9.72-.45-.58-1.98-.94-2.67-.63-8.46,3.78-17.32,5.68-26.55,5.91-2.22.05-2.91.89-2.75,3.01.48,6.72-1.33,12.97-4.37,18.88-.75,1.47-.62,2.34.49,3.61,2.54,2.89,4.81,6.02,7.2,9.04.57.71,1.1,1.62,1.86,1.99,4.34,2.13,8.53,4.84,14.09,4.24ZM553.33,168.16c-.06-4.63-.06-4.55-4.72-4.83-7.69-.46-15.21-1.9-22.27-5.03-2.71-1.2-4.65-1.66-6.29,1.41-.57,1.07-1.81,1.81-2.83,2.6-4.2,3.24-9.01,4.92-14.23,5.61-1.39.18-3.29.07-3.03,2.31.73,6.4,1.53,12.77,5.66,18.15,5.28,6.88,12.29,11.23,20.24,14.27,4.95,1.89,10.04,2.34,15.1.72,4.89-1.57,9.13-4.04,11.59-9.02,1.02-2.08,2.91-3.81,4.66-5.41,1.4-1.27,1.4-2.27.59-3.81-2.79-5.3-4.39-10.93-4.47-16.96ZM405.49,217.05c-.46.82-.92,1.6-1.35,2.4-5.34,10.05-12.55,12.85-22.99,8.19-6.03-2.69-11.65-6.31-17.44-9.52-.76-.42-1.49-.91-1.57-.96-4.14,5.31-8.05,10.26-11.84,15.3-.44.58-.6,1.84-.28,2.46,2.42,4.65,2.62,9.71,2.98,14.75.35,4.89,2.22,8.92,7.14,10.4,6.56,1.97,13.29,3.37,19.91,5.16,6.36,1.72,10.46-1.11,14.03-6.06,4.91-6.79,8.73-14.09,10.89-22.15,1.38-5.13,1.9-10.5,3.31-15.62.8-2.9-.23-3.77-2.79-4.34ZM271.93,216.87c-.48.15-.77.18-.99.32-.62.4-1.21.85-1.82,1.26-6.59,4.48-13.44,8.49-21.18,10.65-6.87,1.92-12.38-.12-16.48-5.93-1.11-1.57-1.86-3.4-2.96-4.99-.34-.5-1.51-.99-1.89-.78-.83.47-1.99,1.42-1.98,2.15.04,2.06.57,4.12.96,6.17,2.4,12.71,6.86,24.53,14.87,34.86,2.66,3.43,5.92,5.87,10.37,4.98,7.28-1.46,14.53-3.17,21.69-5.16,5.09-1.41,7.48-5.17,7.83-10.51.34-5.21.47-10.54,3.2-15.32.27-.48-.25-1.68-.73-2.28-1.9-2.37-4.12-4.5-5.87-6.97-1.85-2.62-3.29-5.52-5.01-8.47ZM97.49,567.86c-2.09-3.07-3.94-5.67-5.67-8.34-6.36-9.82-12.51-19.72-11.9-32.12.08-1.63-.95-1.9-2.29-2.1-4.01-.6-8.01-1.27-11.99-2.03-1.58-.3-2.25-.09-2.55,1.73-1.65,9.94-5.55,18.19-16.38,21.1-.62.17-1.28,1.48-1.31,2.29-.24,4.87,1.27,8.9,5.34,12.04,4.21,3.24,6.64,7.66,6.38,13.16-.12,2.61-.53,5.2-.8,7.8,3.61.43,7.15.96,10.71,1.22.87.06,2-.54,2.67-1.2,4.6-4.48,10.17-7.29,16.11-9.44,3.62-1.31,7.27-2.56,11.69-4.11ZM535.97,567.87c3.02,1.05,5.51,1.91,8,2.78,7.15,2.5,14.19,5.2,19.66,10.8.58.59,1.64,1.09,2.44,1.04,3.71-.23,7.4-.67,11.27-1.04-.19-.77-.31-1.29-.45-1.81-2.04-7.58-.45-14.26,5.74-19.17,3.88-3.08,5.22-6.84,5.51-11.45.12-1.96-.47-2.82-2.37-3.28-5.96-1.46-10.17-5.22-12.54-10.77-1.36-3.19-2.16-6.64-3-10.03-.37-1.48-.87-2.01-2.43-1.71-4.07.78-8.14,1.52-12.24,2.08-1.72.23-1.96,1.03-2.08,2.54-.27,3.47-.43,7.03-1.31,10.36-2.33,8.76-7.08,16.34-12.27,23.66-1.3,1.83-2.46,3.76-3.92,6ZM161.21,311.06c-7.54-1.42-14.3-4.39-20.21-9.2-.49-.4-1.5-.63-2.05-.41-3.64,1.47-7.62,2.46-9.97,6.06-5.01,7.67-11.84,12.79-20.82,14.9-1.61.38-1.83,1.12-1.44,2.8,1.03,4.44,1.67,8.97,2.5,13.46.13.71.28,1.6.76,2.02,2.75,2.4,5.42,5.25,9.34,5.39,6.16.21,12.35-.18,18.5.12,5.25.26,9.05-1.67,11.2-6.32,4.13-8.94,8.04-17.98,12.02-26.99.2-.46.11-1.06.17-1.83ZM472.22,311.8c.1-.37-.03-.16.02-.02,3.42,10.32,7.4,20.41,13.15,29.68,2,3.23,5.05,4.84,9.09,4.7,4.97-.17,9.97-.07,14.94.18,4.33.22,8.29-.42,11.47-3.58,1.18-1.17,2.65-2.45,3.04-3.92,1.11-4.26,1.5-8.7,2.62-12.95.66-2.5-.09-3.19-2.3-3.8-2.56-.7-5.07-1.71-7.47-2.87-5.22-2.52-9.01-6.66-12.15-11.44-2.42-3.68-6.3-5.3-10.19-6.1-1.68-.34-3.88,1.84-5.83,2.89-.49.26-.92.62-1.43.84-4.87,2.09-9.75,4.17-14.96,6.39ZM184.48,649.28c-.1-.38-.21-.76-.31-1.14-8.36-2.81-16.63-5.97-25.12-8.33-11.63-3.23-22.64-.71-33.03,5.04-2.71,1.5-4.4,3.84-5.28,6.81-1.88,6.38,2.18,15.84,8.51,18.7,4.92,2.23,10.09,3.91,15.21,5.66.99.34,2.37.14,3.39-.26,8.69-3.36,16.57-8.14,23.59-14.23,4.5-3.9,8.7-8.15,13.04-12.25ZM448.96,648.04c.39.85.48,1.22.7,1.48,10.17,11.66,22.08,20.91,36.64,26.46.84.32,1.98.27,2.85,0,3.32-1.06,6.53-2.51,9.89-3.39,7.35-1.93,11.66-6.55,13.56-13.83,1.31-5.03.13-10.25-4.18-13.07-9.75-6.37-20.64-8.93-31.98-6.33-9.27,2.13-18.22,5.69-27.48,8.68ZM405.91,258.46c-.54.99-1.17,2.11-1.78,3.24-3.83,7.05-8.25,13.41-17,14.92-.57.1-1.28,1.25-1.38,1.98-.63,4.73-1.08,9.48-1.64,14.22-.17,1.43.06,2.19,1.78,2.31,5.84.41,10.8,3.28,14.9,7.02,5.43,4.96,10.98,8.55,18.74,8,4.66-.33,5.58-.79,6.95-5.3,2.57-8.45,5.25-16.88,8.08-25.25.65-1.92.15-2.54-1.47-3.33-4.14-2.01-8.41-3.9-12.21-6.45-5.15-3.45-9.91-7.48-14.96-11.37ZM227.08,258c-1.58,1.54-2.97,2.99-4.47,4.34-6.45,5.78-13.71,10.29-21.71,13.58-2.41.99-2.68,2-1.77,4.53,2.78,7.77,5.23,15.66,7.53,23.59,1.57,5.42,2.36,6.23,8.03,5.97.55-.03,1.11-.1,1.66-.05,6.12.61,10.55-2.72,14.86-6.34,1.46-1.22,2.81-2.62,4.41-3.62,4.11-2.59,8.23-5.28,13.51-5.01-.54-5.9-.99-11.47-1.63-17.02-.07-.59-1.22-1.35-1.97-1.51-6.47-1.32-10.76-5.4-14.03-10.82-1.51-2.51-2.95-5.08-4.42-7.64ZM316.36,212.89c-1.03,1.94-2.01,4-3.17,5.96-4.22,7.11-8.67,14.15-16.75,17.38-3.94,1.57-5.11,4.37-5.49,8.03-.15,1.46-.29,2.93-.48,4.39-.43,3.4-.61,6.74,3.16,8.54,1.89.91,3.8,2.07,5.82,2.38,9.37,1.48,18.75,2.23,28.26.91,4.89-.68,9.77-1,13.58-4.51.95-.87,1.78-2.44,1.78-3.68,0-3.12-.51-6.24-.84-9.35-.32-3.09-1.71-5.27-4.8-6.43-4.41-1.66-8.12-4.43-10.84-8.29-3.48-4.95-6.74-10.06-10.24-15.33ZM39.26,435.78c-3.34,13.48-6.61,26.59-9.75,39.72-.17.7.47,2.09,1.1,2.41,5.35,2.69,10.72,5.36,16.21,7.73,5.64,2.44,6.66,1.99,9.45-3.62,2.31-4.67,4.73-9.3,9.02-12.42,3.12-2.27,6.56-4.11,9.96-5.95,1.57-.85,1.66-1.52,1.08-3.2-1.84-5.38-3.69-10.8-4.81-16.36-.6-2.97-1.6-3.42-4.29-3.27-9.59.5-19.26,1.1-27.96-5.03ZM594.25,436.3c-3.47,1.32-6.63,3.2-9.96,3.62-6.09.77-12.29.82-18.45.85-2.52.01-3.48.29-4.02,3.24-.99,5.46-2.83,10.79-4.66,16.06-.64,1.84-.82,2.74,1.15,3.61,8.97,3.95,15.57,10.23,19.46,19.4,1.85,4.36,3.43,4.85,7.91,2.93,5.33-2.28,10.43-5.11,15.77-7.36,2.33-.98,2.74-2.06,2.17-4.37-2.99-11.99-5.82-24.02-8.72-36.04-.19-.77-.5-1.51-.64-1.94ZM338.64,155.48c-14.71,9.94-29.38,9.88-43.91.08-.23.43-.37.58-.39.74-.72,8.21-2.27,16.07-8.44,22.24-.48.48-.5,2.02-.1,2.69,3.56,5.97,8.9,9.38,15.83,9.47,2.56.03,5.5-.91,7.64-2.34,3.56-2.38,10.92-2.45,14.62-.27,2.61,1.54,5.98,2.65,8.95,2.52,6.21-.28,11.11-3.48,14.53-8.84.94-1.47.78-2.28-.25-3.78-2.37-3.45-4.69-7.07-6.18-10.95-1.33-3.46-1.52-7.35-2.3-11.56ZM95.98,399.35c0,2.2.04,3.67,0,5.14-.21,6.71-.07,13.45-.78,20.11-.75,7.02-3.99,12.69-11.42,14.73-2.04.56-2.1,1.9-1.75,3.39.63,2.68,1.26,5.38,2.25,7.94,2.49,6.48,6.32,12.27,12.91,14.81,9.86,3.8,18.46,2.75,20.08-9.66.55-4.2,1.45-8.36,1.93-12.57.13-1.12-.46-2.55-1.18-3.49-6.75-8.79-9.48-18.45-6.62-29.36.41-1.58.09-2.29-1.35-3.02-3.12-1.59-6.12-3.4-9.16-5.13-1.49-.85-2.96-1.73-4.91-2.88ZM537.35,399.45c-1.64.91-2.84,1.54-4.01,2.22-3.11,1.8-6.11,3.86-9.36,5.35-2.04.94-2.47,1.86-1.91,3.95,2.79,10.52-.07,19.79-6.42,28.3-.81,1.09-1.49,2.74-1.32,4.01.75,5.55,1.64,11.1,2.88,16.56.65,2.87,2.05,5.7,5.33,6.54,5.43,1.38,10.8,1.36,15.69-1.84,7.81-5.1,11.33-12.82,13.09-21.63.42-2.12,0-3.16-2.25-3.75-5.04-1.33-8.34-4.76-9.74-9.71-.95-3.35-1.73-6.84-1.9-10.31-.3-6.34-.09-12.7-.09-19.69ZM141.62,273.65c.55,3.63.89,7.3,1.69,10.87,2.01,8.99,15.26,18.15,28.29,14.77,6.13-1.59,12.33-2.93,18.53-4.22,1.92-.4,1.57-1.32,1.14-2.57-1.11-3.23-2.08-6.5-3.33-9.67-.28-.7-1.44-1.29-2.29-1.46-.95-.18-2,.18-3.01.31-6.97.84-12.25-1.8-15.68-7.96-3.32-5.95-4.21-12.52-4.81-19.17-.36-4.04-.79-8.07-1.37-12.08-.28-1.94-1.28-2.99-3.45-1.72-1.5.88-3.13,1.6-4.77,2.2-2.01.74-2.42,2-2.28,4.08.43,6.62-.8,12.96-5.19,18.13-2.18,2.57-3.65,5.04-3.46,8.5ZM441.5,294.83c7.98,1.62,15.68,3.24,23.4,4.72,8.9,1.7,15.89-2.15,21.6-8.38,5.69-6.22,5.03-14.14,4.57-21.84-.04-.67-.48-1.45-.97-1.95-5.84-5.89-7.46-13.15-7.08-21.13.04-.88-.35-2.25-.98-2.59-2.64-1.44-5.44-2.57-8.38-3.9-.59,1.64-1.26,2.8-1.41,4.03-.49,4.02-.8,8.06-1.17,12.09-.55,5.98-1.55,11.84-4.35,17.25-3.31,6.39-8.82,9.37-15.92,8.57-1.19-.13-2.39-.48-3.57-.41-.63.04-1.57.63-1.76,1.19-1.36,3.9-2.55,7.85-3.98,12.35ZM460.66,200.72c0,.82.22,2.21-.04,3.52-.72,3.67-1.27,7.45-2.61,10.91-.87,2.23-.32,3.36,1.29,4.33,3.39,2.03,6.79,4.09,10.35,5.79,9.22,4.42,18.52,8.67,27.8,12.97.39.18.83.27,1.22.4.28-.32.56-.49.63-.72,3.06-10.05,6.16-20.1,9.06-30.2.24-.84-.61-2.32-1.38-3.06-3.42-3.34-7.01-6.5-10.51-9.76-.58-.54-1.05-1.19-1.67-1.92-4.75,4.12-9.95,7.1-15.95,7.63-5.89.52-11.85.11-18.17.11ZM172.36,199.85c-12.5,2.92-24.01,1.69-33.34-6.34-4.6,3.99-8.87,7.6-12.99,11.36-.66.6-1.12,2.06-.87,2.89,2.41,8.29,5.01,16.52,7.51,24.78.6,1.99,1.07,4.01,1.68,6.33,1.21-.55,2.11-.95,3-1.37,6.09-2.86,12.2-5.68,18.26-8.6,5.72-2.76,11.49-5.43,17.03-8.51,3.86-2.14,3.63-2.4,2.05-6.33-.72-1.78-1.3-3.67-1.58-5.57-.41-2.71-.49-5.48-.74-8.65ZM347.99,80.76c.22.93.47,1.52.49,2.12.13,3.45.6,6.96.2,10.35-.42,3.64-.21,5.23,2.88,7.29,1.29.86,2.67,1.66,4.11,2.22,8.98,3.47,18.26,5.02,27.78,3.21,8.82-1.68,14.54-7.67,18.61-15.19,2.02-3.73,1.02-5.07-3.06-6.16-7.08-1.89-13.79-4.67-19.85-8.85-1.79-1.23-3.44-2.65-5.2-4.01-6.97,7.91-15.95,9.7-25.96,9.01ZM259.23,71.62c-1.4,1.19-2.46,2.21-3.64,3.08-6.62,4.89-14.04,8.02-21.98,10.06-3.29.84-3.86,1.5-2.63,4.58,3.17,7.93,8.8,13.67,17.02,16.06,9.4,2.74,18.79,1.24,27.83-2.01,2.86-1.03,5.53-2.85,7.92-4.76.9-.72,1.33-2.88,1-4.12-1.04-3.88-.99-7.64.07-11.46.18-.65.26-1.33.46-2.34-10.15.82-19.07-1.14-26.06-9.09ZM42.76,138.66c3.4,1.19,5.94,2.21,8.55,2.95,1.92.54,3.93.99,5.91.99,6.9.02,13.38-1.89,19.55-4.84,5.33-2.55,8.59-6.83,9.88-12.58,1.4-6.21.31-12.28-1.21-18.31-.41-1.65-1.34-1.54-2.71-1.07-3.74,1.28-7.48,2.64-11.33,3.52-4.45,1.01-9,1.16-13.28-.91-1.44-.7-2.75-1.69-4.88-3.02-3.57,11.34-7.01,22.24-10.49,33.27ZM579.39,105.36c-4.44,4.16-9.29,5.28-14.37,4.38-4.78-.84-9.49-2.26-14.1-3.8-2.14-.72-2.94-.11-3.27,1.75-.61,3.44-1.5,6.88-1.57,10.34-.16,7.4,1.58,14.4,8.46,18.35,11.22,6.45,22.97,8.96,35.43,2.2-2.35-11.12-5.69-22.14-10.57-33.23ZM164.83,30.75c-1.73.13-2.93.17-4.12.33-12.86,1.7-25.28,5.13-37.45,9.56-2.28.83-3.9,2.07-4.14,4.6-.29,3.01-.3,5.82,2.77,7.78,4.97,3.17,10.49,4.92,16.2,4.62,7.21-.38,14.42-1.5,21.51-2.89,5.48-1.07,10.14-4.2,14.49-7.72,4.51-3.65,6.21-8.16,5.11-13.94-.48-2.51-.77-3.23-2.86-2.05-2.62,1.48-5.03,1.26-7.68.3-1.35-.49-2.89-.46-3.83-.6ZM493.48,57.79c6.75-.02,13.01-1.72,17.5-4.37,2.58-1.52,3.74-3.7,3.48-6.68-.25-2.86-1.1-5.16-4.27-6.03-10.31-2.83-20.52-6.05-30.92-8.49-4.66-1.09-9.69-1.13-14.5-.8-2.84.19-5.41,1.19-8.2-.48-1.86-1.11-2.62-.31-2.36,1.88.13,1.08.27,2.23.05,3.28-.57,2.7-.29,5.31,1.71,7.16,3.21,2.97,6.46,6.08,10.18,8.29,8.72,5.18,18.73,5.3,27.33,6.25ZM118.82,66.04c-.11,1.51-.11,3.52-.43,5.49-1.4,8.65-6.71,14.79-13.17,20.12-2.95,2.43-6.07,4.65-9.31,7.12,2.96,3,6.06,5.21,9.93,5.54,5.31.45,10.7.92,15.98.49,9.05-.73,16.52-4.79,21.6-12.59,1.66-2.55,2.46-5.27,1.14-8.36-1.9-4.49-3.53-9.09-5.46-13.57-.38-.87-1.51-1.87-2.41-2-5.79-.85-11.62-1.47-17.87-2.23ZM514.42,66.07c-6.24.75-11.99,1.33-17.68,2.23-1.03.16-2.24,1.47-2.71,2.54-1.78,4.03-3.2,8.21-4.92,12.26-1.08,2.55-1.17,4.94.08,7.42,3.56,7.05,9.55,11.14,16.87,13.25,6.82,1.97,13.85,1.47,20.83.67,4.21-.48,7.57-2.49,10.14-5.29-5.37-4.84-10.8-9.27-15.65-14.25-5.1-5.23-6.86-12.05-6.95-18.84ZM278.68,39.88c6.08-.39,10.33-.46,14.52-.99,4.64-.58,9.32-1.36,13.2-4.33,3.54-2.71,4.47-6.74,1.49-9.88-3.95-4.17-8.38-8.09-14.09-9.77-10.38-3.05-20.49-.59-30.53,2-.98.25-2.05,1.07-2.58,1.94-1.78,2.9-3.57,5.84-4.92,8.95-2.46,5.65-.77,8.97,5.28,9.96,6.43,1.05,12.94,1.57,17.64,2.11ZM352.94,40.28c7.23-1.01,14.35-1.79,21.38-3.06,3.61-.65,5.17-2.87,3.98-6.26-1.59-4.53-4.16-8.72-6.47-12.97-.35-.65-1.51-1.02-2.36-1.21-4.41-.98-8.82-2-13.27-2.76-11.28-1.93-21.11,1-29.39,9.01-4.3,4.16-3.78,9.39,1.47,12.32,1.51.84,3.13,1.72,4.8,1.99,6.58,1.1,13.2,1.97,19.86,2.94ZM487.59,515.38c3.25,4.11,5.89,8.28,10.89,9.2,7.53,1.39,13.74-1.57,17.96-7.65,4.25-6.11,7.81-12.71,11.46-19.22.63-1.12.49-2.85.28-4.23-.66-4.28-1.65-8.5-2.25-12.79-.24-1.71-.88-2.24-2.47-2.65-3.1-.8-6.22-1.71-9.11-3.05-1.81-.84-2.59-.64-3.85.83-4.8,5.6-6.56,12.41-8.34,19.31-2.19,8.44-4.28,17.09-14.56,20.24ZM145.22,515.55c-8.63-5.01-10.16-6.94-13.01-16.6-.83-2.83-1.63-5.68-2.24-8.56-1.2-5.65-3.8-10.57-7.53-14.9-.52-.6-1.76-1.16-2.43-.95-3.58,1.09-7.13,2.34-10.6,3.73-.8.32-1.68,1.33-1.86,2.16-.9,4.22-1.73,8.47-2.25,12.75-.22,1.78-.01,3.85.73,5.44,1.67,3.58,3.74,6.99,5.75,10.4,2.66,4.52,5.02,9.36,9.58,12.32,9.8,6.36,17.89,4.63,23.86-5.8ZM407.45,346.08c.77.48,1.14.76,1.54.95,10.8,5.32,21.07,11.43,29.87,19.81.86.82,2.48,1.02,3.78,1.14,2.08.19,4.3-.33,6.27.18,4.89,1.27,8.61-.29,11.32-4.21,3.83-5.53,7.4-11.25,11.1-16.87,2.36-3.58,2.33-4.11-.75-7.65-.38.54-.77,1.02-1.09,1.55-4.27,6.9-10.44,9.54-18.4,8.3-5.96-.93-11.29-3.43-16.33-6.58-7.85-4.91-15.55-10-15.72-20.76,0-.04-.15-.09-.42-.24-1,9.29-5.16,17.12-11.16,24.4ZM214.79,321.56c-.46.42-.68.53-.7.66-.09.54-.1,1.1-.17,1.65-.58,4.07-1.38,8.23-4.68,10.94-7.28,5.99-14.87,11.55-24.28,13.91-9.67,2.42-16.09-.06-21.55-8.45-.19-.3-.43-.57-.66-.87-3.03,3.56-3.06,3.98-.81,7.41,1.16,1.77,2.16,3.66,3.37,5.4,3.2,4.61,6.32,9.28,9.77,13.69,1.78,2.27,4.42,2.94,7.48,2.46,2.77-.43,5.66-.08,8.47-.34,1.27-.12,2.65-.65,3.69-1.39,6.29-4.5,12.37-9.29,18.76-13.63,3.85-2.61,8.13-4.59,12.38-6.94-5.92-7.22-10.14-14.99-11.06-24.51ZM316.79,64.05c-.91,1.23-1.58,2.1-2.21,2.99-3.17,4.49-7.32,7.74-12.45,9.72-7.5,2.91-9.81,12.77-4.2,18.55,4.08,4.2,8.96,6.57,15.03,7.1,7.22.63,13.92,0,19.74-4.58,3.45-2.72,6.81-5.78,5.66-10.85-.8-3.51-1.02-7.86-4.99-9.31-7.06-2.58-12.62-6.72-16.58-13.63ZM378.46,48.71c.38,2.88,1.35,6,1.05,9-.5,5.1,1.96,7.92,5.96,10.15,6.3,3.51,12.87,6.1,20.03,7.36,13.45,2.37,25.34-6.73,26.24-20.45-16.34,1.61-31.01-2.47-43.18-12.76-3.64,2.41-6.96,4.6-10.12,6.7ZM451.01,382.9c-.04-.14.01.22.17.54,5.5,11.65,5.6,23.63,2.5,35.91-.58,2.29-3.09,5.02-.73,7.05,1.88,1.62,4.8,2.24,7.36,2.81,4.25.94,5.7-.05,8.13-3.76,3.48-5.31,7.09-10.54,10.84-15.66,2.7-3.68,4.53-7.64,4.76-12.17.06-1.3-.45-3.08-1.37-3.89-5.44-4.84-11.05-9.5-16.68-14.12-.73-.6-2.05-1.11-2.86-.86-3.99,1.2-7.89,2.67-12.13,4.15ZM182.26,382.97c-4.33-1.54-8.32-3.03-12.38-4.32-.66-.21-1.77.28-2.38.79-5.54,4.59-11.05,9.21-16.46,13.94-.88.77-1.87,2.28-1.68,3.22.68,3.47,1.18,7.22,2.94,10.17,4.17,7.02,8.97,13.68,13.66,20.38.71,1.01,2.26,2.05,3.4,2.03,2.67-.06,5.43-.44,7.98-1.26,4.43-1.42,4.38-1.6,3.08-6-3-10.2-4.04-20.47-1.03-30.85.84-2.9,2.02-5.7,2.88-8.11ZM200.9,54.74c1.85,4.09,3.39,7.89,5.26,11.53,2.09,4.06,5.17,7.12,9.83,8.21,13.6,3.17,25.06-1.94,35.82-9.43,1.02-.71,1.74-2.42,1.89-3.74.49-4.24.64-8.52.92-12.72-2.99-1.99-6.32-4.19-9.91-6.57-12.22,10.32-26.89,14.33-43.82,12.72ZM218.72,122.7c2.96,4.71,6.21,9.01,10.69,12.21,4.8,3.43,9.73,6.86,15.69,7.66,11.85,1.59,24.3-5.45,29.85-16.58-1.46-.32-2.89-.56-4.29-.95-3.94-1.1-7.99-2.27-10.37-5.84-1.28-1.92-2.58-2.49-4.71-2.46-7.4.12-14.53-1.06-20.93-5.07-1.33-.83-2.02-.35-3.07.53-3.85,3.25-7.84,6.35-11.78,9.51-.34.27-.65.59-1.08,1ZM414.36,123.2c-4.56-4-8.87-7.83-13.25-11.57-.42-.36-1.49-.51-1.92-.23-6.99,4.46-14.75,5.45-22.8,5.43-.88,0-2.22.49-2.57,1.16-1.98,3.83-5.62,5.17-9.27,6.47-1.95.69-4.03,1.06-6.71,1.74,3.18,3.46,5.82,6.78,8.92,9.59,7.45,6.78,16.28,9.03,25.78,5.57,9.41-3.43,16.88-9.65,21.82-18.16ZM38.76,240.22c.76,18.15,1.5,35.75,2.24,53.35.28.04.56.09.84.13,4.48-4.22,9-8.4,13.44-12.67,5.37-5.16,9.83-10.48,10.34-18.75.42-6.85-.15-13.37-1.56-19.94-.35-1.64-1.1-2.18-2.95-1.68-5.3,1.44-10.72,1.78-16.17.86-1.88-.32-3.74-.78-6.18-1.29ZM591.56,293.61c.27-.11.55-.22.82-.33.72-17.58,1.44-35.17,2.19-53.31-7.82,2.47-14.86,2.64-21.86.83-2.3-.6-3.11-.03-3.59,2.17-1.37,6.3-1.7,12.54-1.29,19.05.39,6.18,2.57,11.01,6.62,15.22,4.15,4.31,8.54,8.39,12.85,12.54,1.37,1.32,2.83,2.56,4.25,3.83ZM25.82,490.55c-.29.63-.65,1.17-.79,1.77-1.9,7.86-3.56,15.8-5.75,23.58-1.17,4.16-.81,6.7,3.38,9.06,6.12,3.44,11.41,8.31,18.69,9.59,2.3.4,4.38.29,5.79-1.39,1.5-1.79,2.86-3.89,3.61-6.09,2.72-7.97,2.25-16-.51-23.86-.38-1.08-1.9-2.04-3.1-2.49-3.27-1.23-6.82-1.79-9.93-3.29-3.87-1.87-7.41-4.43-11.4-6.87ZM607.49,490.35c-.74.38-1.1.5-1.38.72-6.09,4.82-12.72,8.42-20.51,9.73-.97.16-2.17,1.44-2.51,2.45-.9,2.68-1.67,5.47-1.98,8.27-.77,6.97-.36,13.9,3.7,19.88,1.17,1.72,3.86,3.35,5.86,3.35,2.77,0,5.78-1.15,8.27-2.54,4.81-2.68,9.25-6.02,14.02-8.78,1.82-1.05,2.28-2.11,1.83-3.97-2.17-8.95-4.3-17.92-6.47-26.87-.16-.68-.49-1.32-.83-2.23ZM41.79,147.62c-.34,1.5-.66,2.47-.75,3.46-.93,10.27-2.08,20.53-2.64,30.82-.42,7.71-1.35,7.3,6.59,8.56.27.04.51.25.78.28,8.83.85,15.92-.81,20.1-10.63,3.58-8.43,1.85-16.11-1.95-23.92-1.69-3.48-3.3-6.05-7.66-5.19-.59.12-1.28-.11-1.9-.27-4.08-1-8.16-2.02-12.56-3.12ZM591.8,147.53c-4.94,1.24-9.28,3.43-13.44,3.11-6.48-.5-8.05,3.43-9.96,7.88-2.21,5.16-3.96,10.34-2.54,16.05,1.3,5.25,2.99,10.36,7.75,13.54,5.64,3.76,11.78,3.13,18.06,1.82,2.7-.56,3.52-1.73,3.36-4.29-.48-7.64-.72-15.31-1.31-22.94-.38-4.93-1.23-9.83-1.92-15.18ZM99.23,512.13c-.21.29-.48.55-.6.86-1.46,4.09-3.62,7.62-7.37,10.08-.59.38-.99,1.6-.91,2.37.86,7.82,2.66,15.3,7,22.1,2.15,3.36,4.42,5.47,8.6,4.82.97-.15,2.01.16,3.02.22,5.51.29,11.02.77,16.52.79,4.54.01,6.61-1.61,7.43-5.51.57-2.68.6-5.48.93-8.21.24-1.98-.44-2.78-2.55-2.85-9.36-.32-16.78-4.58-22.53-11.77-3.31-4.14-6.34-8.51-9.56-12.89ZM534.15,511.96c-2.96,4.09-5.64,8.04-8.56,11.79-5.02,6.45-11.22,11.19-19.51,12.66-2.13.38-5.15.1-6.15,1.38-1.03,1.33-.13,4.18-.04,6.37.29,6.93,2.64,9.39,9.49,9.25,7.27-.16,14.54-.62,21.8-1.16,1.06-.08,2.29-1.13,2.99-2.06,5.4-7.22,8.2-15.44,8.72-24.4.06-1.02-.79-2.23-1.49-3.14-1.57-2.01-3.47-3.77-4.95-5.83-.99-1.37-1.49-3.1-2.29-4.85ZM165.52,128.57c2.79,3.57,5.42,7.23,8.37,10.62,1.92,2.21,4.16,4.19,6.49,5.97,5.47,4.2,11.57,7.19,18.48,7.96,7.63.85,16.49-4.79,19.57-12.29.32-.77-.06-2.12-.58-2.89-1.38-2.06-3.13-3.87-4.52-5.92-1.27-1.86-1.85-4.98-3.48-5.6-1.87-.72-4.55.8-6.9,1.17-8.18,1.28-16.33,1.95-24.15-1.74-2.37-1.12-4.85-3.6-6.93-3.27-2.18.34-3.96,3.31-5.91,5.13-.12.12-.17.31-.45.84ZM467.89,128.27c-1.82-1.72-3.61-3.19-5.13-4.9-1.18-1.33-1.98-1.17-3.48-.4-3.57,1.84-7.2,3.88-11.05,4.81-7.6,1.84-15.24.68-22.71-1.29-1.94-.51-2.67.02-3.61,1.71-1.83,3.28-3.95,6.42-6.25,9.39-1.09,1.41-1.28,2.4-.43,3.91,4.55,8.09,13.69,14.48,25.71,10.24,12.12-4.27,19.96-13.14,26.96-23.47ZM386.84,176.4c-2.97,1.85-5.5,4.12-8.45,5.1-4.95,1.64-7.08,4.41-7.62,9.71-.43,4.26-2.79,8.31-4.11,12.51-.29.92-.14,2.75.38,3.02,6.8,3.44,13.66,6.79,20.64,9.84.98.43,2.92-.54,4.02-1.39,1.03-.79,1.74-2.18,2.22-3.45,2.48-6.53,4.9-13.08,7.15-19.69.21-.63-.6-2.02-1.31-2.48-4.4-2.84-8.14-6.31-11.11-10.63-.61-.89-1.26-1.75-1.83-2.54ZM246.12,176.78c-3.22,5.26-7.73,9.89-13.43,13.33-.42.25-.7,1.37-.51,1.88,2.71,7.2,5.27,14.48,8.38,21.51,1.7,3.83,3.33,4.25,7.15,2.52,5.95-2.7,11.7-5.83,17.6-8.64,1.95-.93,2.31-1.86,1.36-3.83-2.66-5.5-4.81-11.17-4.98-17.43-.02-.78-.87-1.86-1.63-2.26-4.44-2.37-8.96-4.58-13.94-7.09ZM276.67,313.04c1.79,5.03,7.96,8.05,13.2,6.87,5.99-1.36,12.04-2.51,18.1-3.52,1.72-.29,2.44-.86,2.54-2.52.43-6.89,1.15-13.77,1.3-20.67.15-7.09-.23-14.2-.39-21.3,0-.15-.17-.3-.49-.83-3.44,0-7.12-.14-10.78.1-.92.06-2.3,1.24-2.52,2.14-.65,2.65-.88,5.41-1.16,8.14-.59,5.76-.74,11.6-1.75,17.28-1.89,10.56-7.7,15.02-18.05,14.31ZM322.16,271.04c0,3.62.04,6.72,0,9.83-.19,11.02-1.55,22.05.81,33.03.36,1.68.79,2.19,2.47,2.48,6.14,1.05,12.27,2.23,18.35,3.58,5.34,1.19,11.46-1.97,12.99-7.18-7.08,1.78-12.2-.82-15.56-7.01-.92-1.69-1.79-3.5-2.17-5.36-.76-3.79-1.29-7.63-1.69-11.47-.49-4.77-.68-9.57-1.15-14.35-.18-1.84-.58-3.69-3.24-3.58-3.49.13-7,.03-10.8.03ZM512.16,680.6c.61,0,1.22.02,1.82,0,9.75-.38,19.08-2.73,28.29-5.82,3.31-1.11,5.49-2.72,5.85-6.39.1-1.04.72-2.09,1.29-3.03,2.74-4.58,5.54-9.13,8.3-13.7.54-.9,1.01-1.85,1.6-2.93-5.84-2.39-11.5-3.59-17.38-2.92-8.52.98-14.88,6.41-16.81,14.35-2.01,8.23-5.21,15.57-12.96,20.45ZM153.64,92.96c-3.21,8.52-9.39,13.83-16.68,18.15-.83.49-1.38,1.87-1.58,2.93-.72,3.87-1.03,7.82-1.89,11.65-.42,1.86.05,2.57,1.68,2.92,3.81.82,7.58,1.03,11.4-.21,10.75-3.49,18.37-10.62,23.63-20.37,2.18-4.05,3.3-8.48,3.08-13.4-6.75,1.31-13.12,1.46-19.63-1.66ZM459.79,94.99c.38,2.32.6,4.39,1.07,6.41,1.98,8.57,7.19,15.11,13.84,20.4,6.61,5.26,13.95,8.94,22.92,6.96,1.92-.42,2.81-.85,2.2-3.26-.96-3.81-1.23-7.79-1.94-11.68-.18-.96-.71-2.22-1.47-2.67-7.31-4.32-13.49-9.66-16.58-17.72-3.34.71-6.43,1.69-9.58,1.94-3.26.25-6.58-.22-10.46-.4ZM74.14,649.03c1.51,2.52,3.02,4.84,4.34,7.26,2.45,4.49,5.02,8.95,7.1,13.61.99,2.22,2.08,3.75,4.44,4.39,6.48,1.74,12.9,3.76,19.43,5.25,3.66.83,7.51.82,11.27,1.18.1-.27.21-.55.31-.82-5.72-3.37-9.36-8.31-11.31-14.5-.75-2.38-1.21-4.85-2.03-7.19-.63-1.8-1.28-3.77-2.5-5.15-7.03-7.97-21.74-9.88-31.05-4.03ZM414.6,561.71c-.24.04-.48.08-.72.12,1.54,9.25,3.06,18.5,4.67,27.74.16.91.88,1.73,1.35,2.59.84-.48,1.81-.84,2.51-1.47,3.28-2.97,6.41-6.1,9.73-9.02,4.34-3.81,8.21-7.95,10.88-13.13,1.17-2.26,1.32-4.45-.27-6.5-2.72-3.49-5.47-6.96-8.37-10.31-.52-.6-1.86-.93-2.67-.74-3.94.94-7.87,1.96-11.72,3.23-6.13,2.01-5.56.67-5.39,7.49ZM213.56,592.55c.48-.88.92-1.39,1.07-1.97,2.69-10.6,4.11-21.38,4.21-32.31,0-.98-1.2-2.54-2.17-2.86-4.98-1.66-10.05-3.06-15.13-4.39-.79-.2-2.13.18-2.65.78-2.89,3.35-5.65,6.8-8.35,10.31-1.41,1.84-1.38,3.87-.35,5.98,2.6,5.33,6.54,9.55,10.91,13.44,3.24,2.88,6.39,5.84,9.61,8.74.85.77,1.79,1.44,2.85,2.29ZM372.9,326.86c.25.29.84,1.69,1.82,2.04,7.36,2.63,14.77,5.14,22.23,7.46,1.03.32,3.07-.25,3.58-1.07,2.61-4.22,5.11-8.54,7.16-13.05,1.35-2.98.31-4.28-2.68-5.91-3.15-1.7-6.14-3.69-9.19-5.58-3.36-2.08-6.65-4.27-10.07-6.25-2.82-1.64-5.42-1.76-7.43,1.5-.98,1.6-3.17,2.79-3.48,4.41-.95,5.05-1.26,10.22-1.94,16.44ZM235.02,336.65c.83-.08,1.02-.07,1.19-.13,7.67-2.56,15.36-5.06,22.97-7.79.69-.25,1.32-1.91,1.25-2.86-.28-3.57-1.43-7.16-1.19-10.68.37-5.58-3.53-8.31-6.59-11.67-.31-.35-1.42-.32-1.96-.06-3.61,1.76-7.24,3.5-10.7,5.52-3.79,2.22-7.3,4.93-11.13,7.07-3.63,2.02-4.57,3.35-2.77,7.23,1.88,4.07,4.26,7.91,6.61,11.74.53.87,1.81,1.28,2.33,1.62ZM437.87,185.02c-6.78,7.45-15.42,10.58-25.68,9.29-.41-.05-1.28,1.08-1.42,1.77-.47,2.33-.65,4.72-1.06,7.07-.3,1.7.17,2.79,1.79,3.53,2.68,1.22,5.25,2.67,7.93,3.91,7.23,3.34,14.69,4.63,22.52,2.35,3.61-1.05,5.94-3.27,6.35-7.14.34-3.2.65-6.4.8-9.62.03-.7-.46-1.61-1.01-2.11-3.24-2.97-6.57-5.84-10.22-9.05ZM195.36,185.01c-3.56,3.2-6.93,6.17-10.22,9.23-.53.5-.96,1.4-.96,2.12.01,2.11.28,4.21.43,6.31.33,4.7,1.6,9,6.81,10.16,3.63.81,7.48,1.22,11.19,1.03,7.38-.4,13.57-4.44,19.99-7.61.64-.32,1.02-1.85.95-2.79-.16-2.38-.75-4.73-.95-7.12-.14-1.65-.65-2.16-2.39-2.07-2.93.15-5.92.21-8.81-.21-6.47-.94-11.63-4.44-16.03-9.06ZM477.63,599.26c.3.66.43,1.1.68,1.46,4.37,6.19,5.7,13.04,4.6,20.47-.25,1.69-1,4.08-.2,4.96.97,1.07,3.33.86,5.08,1.23,5.15,1.1,10.29,2.21,15.78,3.39-3.91-5.9-8.29-11.54-5.96-18.98,2.39-7.64,9.63-8.88,16.35-11.37-3.58-4.7-7.54-8.37-12.52-10.96-2.71-1.41-5.18-1.28-7.79.43-3.85,2.52-7.86,4.8-11.82,7.14-1.32.78-2.71,1.44-4.2,2.22ZM129.87,630.67c6.12-1.21,12.02-2.54,17.98-3.49,3.48-.55,3.47-.26,2.88-3.79-1.36-8.11-.66-15.83,4.4-22.7.25-.34.32-.8.43-1.1-5.98-3.62-11.77-7.19-17.64-10.62-.87-.51-2.23-.71-3.19-.44-6.58,1.87-11.01,6.51-15.33,11.88,6.77,2.43,13.96,3.71,16.35,11.38,2.33,7.48-2.16,13.05-5.88,18.88ZM280.51,137.41c-7.79,9.88-17.66,14.62-29.2,15.33,0,3.57-.19,6.78.09,9.94.12,1.33.88,3,1.91,3.79,2.97,2.28,6.06,4.55,9.41,6.18,8.19,4,16.44.29,19.01-8.44,2.56-8.68,1.81-17.31-1.22-26.81ZM382.07,152.72c-11.64-.57-21.47-5.57-29.31-15.15-2.98,9.75-3.91,18.95-.51,28.11,2.21,5.95,7.29,9.19,13.39,8.49,6.18-.71,11.11-4.22,15.41-8.5.77-.77.92-2.37.97-3.6.14-2.92.04-5.84.04-9.36ZM428.87,482.17c8.78-2.06,16.73-3.96,24.69-5.79,2.18-.5,2.66-1.97,2.7-3.89.19-8.31.41-16.62.6-24.93.17-7.61.14-7.56-6.81-10.36-1.77-.71-2.6-.44-3.35,1.38-5.16,12.53-10.44,25.02-15.65,37.53-.73,1.74-1.29,3.55-2.19,6.05ZM204.29,482.11c-.5-1.61-.73-2.65-1.13-3.63-4.88-11.87-9.75-23.74-14.71-35.58-2.73-6.51-2.78-6.41-9.31-4.11-2.11.74-2.83,1.96-2.76,4.12.34,9.97.57,19.93.84,29.9.05,1.99.87,3.17,3,3.64,7.79,1.73,15.54,3.63,24.08,5.64ZM493.82,397.86c.64,8.56-2.98,14.86-7.57,20.83-1.33,1.73-2.38,3.73-3.26,5.74-.3.67,0,2.09.54,2.56,2.79,2.38,5.69,4.65,8.66,6.81,6.48,4.7,12.89,3.39,17.11-3.43,2.44-3.95,3.49-8.23,3.38-12.9-.14-6.44-1.65-11.64-8.68-13.98-3.4-1.13-6.4-3.48-10.18-5.61ZM139.13,398.1c-5.22,2.9-10.15,5.56-14.97,8.4-.95.56-1.85,1.72-2.14,2.78-2.11,7.54-2.08,14.88,2.53,21.68,4.19,6.17,10,7.43,16.13,3.2,3.25-2.25,6.35-4.74,9.39-7.27.47-.39.63-1.77.32-2.36-1.28-2.44-2.64-4.88-4.26-7.1-3.21-4.38-5.85-8.98-6.58-14.45-.2-1.51-.27-3.05-.42-4.87ZM157.56,133.87c.21.02.11-.02.04,0-.34.15-.68.3-.99.48-8.39,4.91-17.11,7.18-26.68,3.61-.65-.24-2.03.51-2.61,1.18-1.62,1.88-2.96,3.99-4.48,5.95-1.44,1.87-2.95,3.68-4.87,6.05,3.68,1.91,6.84,4.01,10.31,5.27,6.48,2.36,13.06,1.08,19.54-.47,6.85-1.64,13.22-4.31,18.82-8.61-3.02-4.5-5.92-8.81-9.06-13.47ZM475.7,133.97c-3.07,4.57-5.98,8.88-8.98,13.34,6.06,4.58,13.01,7.38,20.4,9.06,9.27,2.11,18.26,2.12,26.25-4.21,1.31-1.04,1.6-1.64.45-3.03-2.65-3.19-5.21-6.46-7.61-9.84-1.05-1.48-1.97-1.8-3.67-1.18-6.63,2.42-13.22,2.06-19.66-.73-2.52-1.09-4.98-2.36-7.18-3.41ZM479.65,557.78c3.25-1.92,6.35-3.68,9.36-5.59.54-.35,1-1.29,1-1.97,0-4.68-.02-9.37-.27-14.05-.06-1.16-.71-2.66-1.59-3.34-5.04-3.85-8.86-8.56-11.19-14.49-.33-.83-1.16-1.97-1.88-2.07-3.33-.47-6.7-.63-10.03-.89,0,3.11.31,5.91-.09,8.6-.4,2.69-1.58,5.25-2.25,7.91-.12.48.41,1.39.9,1.71,8.73,5.87,14.7,13.54,16.05,24.19ZM153.67,557.71c-.1.06.03.02.04-.03,1.48-10.59,7.37-18.21,15.99-24.07.49-.33.94-1.5.73-1.94-2.22-4.58-2.58-9.37-1.91-14.31.19-1.42-.32-2.1-1.82-1.95-2.66.26-5.35.33-7.97.8-.88.16-1.98,1.12-2.3,1.98-2.27,6.09-6.3,10.71-11.34,14.67-.89.7-1.48,2.26-1.53,3.45-.19,4.48-.14,8.97-.09,13.46,0,.81.21,2.01.75,2.36,3.05,1.96,6.22,3.72,9.45,5.59ZM189.86,544.66c-2.11-1.32-4-2.6-5.99-3.7-.56-.31-1.59-.38-2.09-.07-2.71,1.73-5.59,3.32-7.9,5.5-6.33,5.98-8.18,13.98-9.23,22.22-.08.66.16,1.54.57,2.06,3.24,4.12,6.49,8.23,9.89,12.21.67.78,2.25,1.58,3.04,1.31,1.95-.69,3.97-1.73,5.32-3.22.43-.48-1.12-2.79-1.81-4.24-.31-.66-.72-1.29-1.1-1.92-4.56-7.75-4.15-15.08,1.89-21.92,2.36-2.67,4.77-5.3,7.41-8.22ZM449.21,581.02c1.4.8,2.65,1.38,3.75,2.17,2.3,1.64,4.18,1.32,5.91-.87,3.03-3.82,6.16-7.56,9.14-11.42.49-.63.69-1.72.58-2.53-.4-2.82-.87-5.65-1.54-8.42-2.1-8.68-7.33-14.91-15.24-18.91-.59-.3-1.56-.46-2.08-.18-2.07,1.12-4.02,2.43-6.12,3.73,2.37,2.63,4.51,4.9,6.54,7.26,6.81,7.9,7.45,14.16,2.43,23.23-1.06,1.91-2.16,3.8-3.37,5.93ZM83.34,600.62c5.92-2.9,12.51-3.06,19.15-2.86,1.78.05,3.48.18,4.41-1.92.98-2.21.11-3.93-1.44-5.16-3.74-2.97-7.63-5.76-11.56-8.48-.57-.39-1.86-.24-2.56.13-3.4,1.84-6.75,3.79-10.02,5.85-.55.35-1.01,1.55-.85,2.21.79,3.26,1.79,6.47,2.87,10.22ZM550.06,600.54c1.09-3.74,2.12-7.04,2.96-10.4.13-.54-.45-1.57-.99-1.91-3.2-2.01-6.44-3.98-9.77-5.76-.83-.44-2.32-.6-3.04-.15-3.36,2.09-6.68,4.29-9.76,6.76-1.35,1.08-2.41,2.79-3.06,4.42-.91,2.27.63,4.27,3.1,4.24,7.09-.1,14.17-.2,20.57,2.79Z" style="fill: #000; stroke-width: 0px;"/>
  <path d="M232.48,787.58c-1.98-1.82-3.7-3.22-5.21-4.82-8.41-8.88-10.61-24.37-5.15-35.33,7.99-16.04,21.23-23.98,38.85-24.52,7.06-.22,14.16.73,21.24,1.09,9.85.5,19.7,1.01,29.55,1.38,6.34.24,12.72.62,19.03.24,9.21-.55,18.38-1.7,27.56-2.64,8.91-.91,17.74-.39,26.39,1.94,14.47,3.91,23.42,13.89,28.01,27.56,2.89,8.62,1.04,17.52-3.04,25.53-1.56,3.06-4.8,5.27-7.3,7.85-.5.51-1.11.91-2.6,2.11,1.14.65,2.15,1,2.87,1.67,11.53,10.78,11.82,25.71.73,36.97-2.85,2.9-5.73,5.77-8.65,8.6-4.46,4.32-9.8,6.49-16.03,6.44-9.04-.08-17.55-2.34-25.58-6.41-3.62-1.84-7.34-3.58-10.7-5.83-8.83-5.9-18.63-6.89-28.89-6.74-8.52.12-16.08,2.58-23.3,6.93-9.45,5.7-19.28,10.47-30.52,11.79-9.29,1.09-17.18-1.07-23.55-8.14-2.16-2.4-4.57-4.57-6.83-6.88-10.76-10.98-10.41-26.1.82-36.62.72-.68,1.44-1.36,2.3-2.16ZM275.01,789.73c-4.79.4-8.03.5-11.22.98-7.4,1.09-14.77,2.33-22.14,3.59-.96.16-1.93.66-2.73,1.25-7.85,5.75-9.01,16.73-2.4,23.85,2.7,2.9,5.73,5.49,8.67,8.17,2.61,2.38,5.71,3.19,9.23,2.83,7.25-.75,14.13-2.78,20.74-5.76,5.64-2.54,11.21-5.25,16.84-7.82,5.98-2.73,12.31-4.36,18.84-3.5,3.87.51,7.51.48,11.38,0,6.84-.86,13.39.95,19.61,3.84,4.86,2.26,9.68,4.6,14.55,6.83,7.18,3.28,14.61,5.93,22.55,6.3,2.51.12,5.59-.42,7.52-1.86,4.04-3.01,7.86-6.5,11.11-10.35,5.79-6.88,3.72-17.97-3.9-22.84-.89-.57-2.03-.86-3.1-1.03-3.55-.59-7.17-.85-10.67-1.63-12.23-2.75-24.46-3.59-36.81-.75-8.6,1.98-16.71.3-24.41-3.69-1.57-.81-2.76-.86-4.33-.03-7.68,4.05-15.76,5.47-24.41,3.78-5.42-1.06-10.94-1.58-14.92-2.13ZM316.73,731.55c-5.58,3.92-7.41,4.94-11.86,4.78-7.46-.26-14.91-.88-22.35-1.46-7.35-.57-14.68-1.84-22.02-1.79-13.04.09-22.55,6.57-28.92,17.86-4.14,7.35-3.31,17.59,2.02,24.08,3.78,4.59,7.91,5.77,13.24,3.21,4.81-2.32,9.66-4.73,14.03-7.77,8.67-6.02,17.9-10.6,28.08-13.44,16.65-4.64,33.53-4.16,50.19-1.23,11.54,2.02,22.28,6.98,32,14,4.82,3.49,10.34,6.08,15.71,8.72,3.65,1.8,7.45,1.42,10.63-1.37,5.7-5.01,8.54-15.83,5.48-22.84-4.5-10.32-11.75-17.83-23.23-20.33-7.52-1.64-15.03-1.15-22.59-.22-8.69,1.07-17.41,1.94-26.14,2.63-5.3.42-10.34-.59-14.28-4.82ZM268.07,777.93c32.29,5.14,64.63,5.16,97.07-.04-3.14-2.18-6.3-4.55-9.62-6.66-8.82-5.6-18.35-8.22-28.93-7.5-6.96.48-14.01.44-20.97-.05-14.91-1.04-26.7,5.55-37.55,14.25Z" style="fill: #000; stroke-width: 0px;"/>
  <path d="M266.42,463.26c.51-1,.81-2.2,1.56-2.96,4.95-4.96,10.75-8.45,17.85-9.24,2.19-.25,2.21-1.41,1.99-3.05-1.62-11.8-3.34-23.6-4.75-35.43-.95-7.97-1.44-16-2.12-24-.07-.83-.3-1.81.04-2.46.67-1.25,1.51-2.94,2.63-3.27.88-.26,2.83.98,3.34,2.02,1.4,2.89,2.69,5.94,3.33,9.08,2.62,12.84,5.66,25.64,7.29,38.62,2.37,18.76,4.2,37.63,5.24,56.52,1.06,19.25-2.83,37.72-12.65,54.58-1.93,3.32-4.26,6.53-6.94,9.27-6.01,6.13-13.35,5.18-17.86-2.1-4.24-6.86-5.65-14.65-6.42-22.47-1.54-15.53-2.57-31.11-4.02-46.65-2.14-22.93-5.26-45.71-12.66-67.66-1.38-4.11-3.07-8.12-4.75-12.12-1.47-3.5-1.55-3.45-4.73-1.6-3.59,2.09-7.17,4.21-10.82,6.2-3.06,1.67-5.72,1.36-7.3-.64-1.54-1.94-1.48-5.08,1.04-7.26,6.83-5.9,13.6-11.97,21.03-17.04,15.33-10.45,31.89-18.63,49.69-24.06,3.92-1.2,8.12-1.78,12.23-1.98,2.12-.1,4.58.84,6.41,2.04,3.15,2.06,2.83,6.03-.42,7.96-1.42.84-2.99,1.49-4.56,1.97-18.65,5.75-35.96,14.42-52.76,24.22-1.45.85-2.99,1.46-1.73,3.76,7.78,14.17,11.77,29.65,15.25,45.27,1.35,6.04,2.3,12.16,3.44,18.24.2,1.07.42,2.13.63,3.2l1.51,1.04ZM285.69,526.22c.34.05.68.1,1.02.14,1.09-4.64,2.39-9.25,3.22-13.94,2.85-16.11,1.33-32.22-.22-48.33-.21-2.22-1.31-2.21-3.03-1.63-8.07,2.73-13.17,8.98-18.03,15.4-1.05,1.39-1.5,3.6-1.43,5.41.35,9.23.82,18.45,1.53,27.66.68,8.83,1.56,17.65,2.63,26.44.33,2.69,1.52,5.3,2.55,7.86.19.48,2.01.93,2.17.72,1.86-2.5,3.87-4.99,5.11-7.8.45-1.02-1.05-2.9-1.65-4.39-.14-.34-.31-.68-.38-1.04-1.81-9.46-2.94-18.99-2.18-28.64.27-3.46,2.32-5.44,4.91-5.26,2.54.18,4.2,2.52,4.13,5.92-.1,4.99-.27,9.97-.37,14.96-.05,2.17,0,4.34,0,6.52Z" style="fill: #000; stroke-width: 0px;"/>
  <path d="M368.11,462.25c.2-.96.44-1.92.6-2.88,2.49-15.53,5.7-30.9,10.96-45.75,2.15-6.07,4.93-11.93,7.62-17.8.83-1.8.78-2.76-1-3.79-15.61-9.04-31.56-17.35-48.78-22.99-2.89-.95-5.82-1.88-8.55-3.19-4.11-1.97-4.33-6.34-.43-8.68,1.59-.96,3.63-1.64,5.46-1.63,3.2.02,6.52.24,9.56,1.15,25.93,7.68,49.31,20.16,69.84,37.85,1.6,1.38,3.06,2.96,4.4,4.6,1.97,2.42,2.06,4.95.47,6.83-1.58,1.87-4.09,2.26-6.83.77-3.89-2.12-7.78-4.27-11.5-6.67-2.31-1.49-3.27-.88-4.3,1.43-6.77,15.23-10.57,31.28-13.37,47.62-3.69,21.53-4.94,43.29-6.73,65.02-.7,8.45-1.91,16.89-3.5,25.21-.78,4.08-2.52,8.16-4.64,11.76-4.06,6.9-11.25,7.84-17.05,2.3-2.76-2.64-5.15-5.83-7.11-9.13-8.67-14.64-12.58-30.65-13.05-47.57-.5-18.07,1.33-36,3.85-53.84,2.11-14.89,4.78-29.71,7.5-44.51.8-4.32,2.6-8.46,4-12.66.63-1.88,1.74-3.45,4.01-2.99,2.29.46,2.69,2.41,2.51,4.34-1.23,12.86-2.44,25.73-3.84,38.57-.8,7.34-1.88,14.66-2.96,21.97-.35,2.33.24,3.24,2.71,3.58,6.75.91,12.32,4.29,17.04,9.08.76.77,1.1,1.93,1.64,2.91.49-.31.97-.61,1.46-.92ZM346.54,525.95c.14-.06.29-.13.43-.19,0-6.24,0-12.49,0-18.73,0-1.29-.17-2.6,0-3.87.31-2.32,1.56-4.04,4.01-4.3,2.49-.26,4.02,1.24,4.66,3.5.4,1.4.64,2.93.54,4.37-.54,7.64-1.09,15.27-1.9,22.88-.21,2.02-1.43,3.91-2.01,5.92-.31,1.07-.7,2.48-.26,3.33,1.17,2.28,2.69,4.4,4.2,6.49,1.27,1.77,2.58,1.42,3.15-.51,1.19-4.06,2.78-8.13,3.12-12.29,1.38-16.75,2.37-33.53,3.44-50.3.06-.97-.08-2.15-.61-2.92-4.78-7.01-10.09-13.48-18.37-16.63-3.09-1.17-3.32-1.02-3.63,2.17-.49,5.06-.99,10.11-1.33,15.18-.96,14.55-.68,29,3.6,43.12.28.94.64,1.85.96,2.78Z" style="fill: #000; stroke-width: 0px;"/>
  <path d="M288.9,684.17c-1.54-.29-3.29-.21-4.57-.94-4.86-2.75-9.7-5.59-14.3-8.75-3.4-2.33-6.25-5.47-9.66-7.79-5.28-3.6-8.25-8.4-7.58-14.71.51-4.9,1.6-9.84,3.16-14.52,4.94-14.8,10.24-29.48,15.37-44.22,1.1-3.15,3.22-4.92,5.75-4.6,2.57.33,4.59,2.58,4.51,5.8-.07,2.73-.38,5.6-1.33,8.14-4.32,11.59-9,23.05-13.33,34.64-1.71,4.56-3.04,9.28-4.19,14.01-.92,3.8.47,6.75,4.08,8.78,2.3,1.29,4.63,2.9,6.29,4.92,3.36,4.09,7.73,6.82,12.02,9.64,1.24.81,3.11.84,4.71.9,2.01.08,4.1-.5,6.04-.15,1.21.21,2.92,1.48,3.11,2.51.22,1.19-.64,3.32-1.66,3.85-2.54,1.33-5.44,1.99-8.19,2.92-.07-.14-.15-.29-.22-.43Z" style="fill: #000; stroke-width: 0px;"/>
  <path d="M380.33,652.36c.17,6.19-2.54,10.73-7.57,14.24-3.46,2.42-6.39,5.59-9.87,7.97-4.61,3.15-9.33,6.27-14.37,8.62-3.96,1.84-8.36,1.12-12.3-1.02-1.65-.89-2.87-2.16-2.43-4.22.44-2.07,2.11-2.63,3.96-2.83.37-.04.76-.12,1.1-.03,8.63,2.15,13.86-3.34,19.35-8.45,2.76-2.56,5.69-4.98,8.78-7.12,2.48-1.71,3.96-3.8,3.41-6.7-.83-4.33-1.65-8.73-3.18-12.83-3.76-10.03-8.01-19.88-11.88-29.87-1.46-3.78-2.62-7.7-3.55-11.65-.45-1.9-.32-4.05.04-6,.4-2.14,1.98-3.58,4.24-3.81,2.27-.23,3.93.92,4.92,2.91.57,1.15.86,2.43,1.29,3.64,4.81,13.68,9.71,27.33,14.38,41.06,1.77,5.2,3,10.58,4.47,15.89-.27.07-.53.14-.8.2Z" style="fill: #000; stroke-width: 0px;"/>
  <path d="M431.03,676.91c-.33,4.6-.66,9.21-.98,13.81-.14,2.01-.31,4.2-2.94,4.2-2.59,0-2.92-2.11-2.99-4.16-.26-7.66-.61-15.31-.7-22.97-.05-3.91-.78-7.53-2.96-10.77-3.4-5.05-6.98-9.98-10.28-15.09-3.69-5.72-7.24-11.55-10.66-17.44-.79-1.36-1.26-3.25-1.02-4.76.2-1.29,1.45-3.12,2.55-3.39,1.27-.31,2.96.72,4.33,1.42.53.27.79,1.22.99,1.92,2.39,8.15,7.07,14.97,12.34,21.46,2.44,3.01,4.86,6.04,7.24,9.1,4.33,5.57,6.28,11.83,5.51,18.91-.28,2.57-.32,5.16-.46,7.74h.03Z" style="fill: #000; stroke-width: 0px;"/>
  <path d="M201.96,676.8c-.12-2.49-.1-5-.39-7.47-.86-7.41,1.34-13.87,5.87-19.63,3.14-3.99,6.38-7.91,9.47-11.93,4.19-5.45,7.66-11.3,9.68-17.94.91-3.01,2.95-4.34,5.25-3.7,2.33.65,3.69,3.3,2.39,6.14-2.22,4.84-4.65,9.64-7.52,14.12-4.57,7.15-9.6,14-14.38,21.02-2.04,3-2.67,6.38-2.73,9.99-.13,7.57-.47,15.14-.74,22.7-.02.65.14,1.45-.18,1.9-.77,1.1-1.64,2.64-2.73,2.9-1.83.43-2.78-1.18-2.94-2.89-.3-3.12-.45-6.26-.66-9.4-.13-1.94-.25-3.87-.37-5.81,0,0-.02,0-.02,0Z" style="fill: #000; stroke-width: 0px;"/>
  <path d="M417.39,882.46c-9.93-.2-18.09-3.6-26.02-7.6-.92-.47-1.12-2.37-1.65-3.61,1.25-.51,2.62-1.65,3.72-1.42,3.87.81,7.61,2.2,11.45,3.15,13.42,3.33,24.56-.18,33.15-11.23,1.76-2.26,4.25-2.8,6.04-1.48,1.77,1.3,2.17,3.95.62,6.24-6.73,9.95-15.86,15.73-27.31,15.95Z" style="fill: #000; stroke-width: 0px;"/>
  <path d="M215.04,882.45c-10.91-.25-19.98-6.01-26.67-15.85-1.67-2.46-1.25-5.08.72-6.41,1.84-1.24,4.17-.61,6,1.71,8.26,10.5,18.92,14.28,31.9,11.32,3.95-.9,7.83-2.15,11.73-3.27,1.82-.52,3.64-.75,4.46,1.36.81,2.09-.61,3.26-2.33,4.06-7.82,3.61-15.71,6.97-25.81,7.07Z" style="fill: #000; stroke-width: 0px;"/>
  <path d="M199.24,400.58c.59-2.47.73-4.9,1.74-6.89,2.48-4.93,5.18-9.77,8.14-14.42,1.91-3.01,5-3.58,7.11-1.95,2.02,1.55,1.99,4.3.12,7.22-2.28,3.57-4.56,7.15-6.62,10.85-1.76,3.16-1.78,6.56-.43,9.91,1.2,3,2.48,5.97,3.73,8.94.72,1.71,1.2,3.53-.7,4.69-2,1.22-3.57.06-4.68-1.6-2.21-3.29-4.52-6.53-6.38-10.01-1.09-2.05-1.39-4.53-2.03-6.75Z" style="fill: #000; stroke-width: 0px;"/>
  <path d="M433.87,400.71c-.9,2.68-1.48,5.54-2.79,8-1.69,3.15-3.93,6.01-6.01,8.94-1.05,1.48-2.53,2.35-4.3,1.35-1.8-1.02-1.65-2.73-.96-4.39,1.16-2.81,2.36-5.62,3.59-8.4,1.8-4.1,1.61-8.13-.61-11.97-1.85-3.19-3.92-6.25-5.85-9.39-.62-1.01-1.55-2.12-1.53-3.17.03-1.42.43-3.31,1.41-4.12.97-.8,2.86-.73,4.32-.62.77.06,1.63.88,2.18,1.57,4.29,5.39,7.79,11.22,9.61,17.93.36,1.32.41,2.73.6,4.09.12.06.23.12.35.18Z" style="fill: #000; stroke-width: 0px;"/>
  <path d="M173.79,818.71c0-3.13-.15-6.27.04-9.4.19-3.08,1.99-4.87,4.33-4.75,2.42.12,4.06,2.26,3.86,5.42-.16,2.66-.45,5.34-.95,7.96-1.54,8.06-1,15.96,1.48,23.77.63,1.99,1.65,4.49-1.22,5.41-2.87.92-3.42-1.69-4.13-3.68-2.86-8-4.1-16.25-3.41-24.74Z" style="fill: #000; stroke-width: 0px;"/>
  <path d="M459.22,818.97c.61,8.49-.65,16.73-3.54,24.71-.25.69-.35,1.63-.85,2-.94.69-2.31,1.64-3.15,1.37-.85-.27-1.56-1.82-1.79-2.93-.19-.89.39-1.95.68-2.92,2.26-7.45,2.89-14.98,1.44-22.68-.54-2.89-.83-5.85-.99-8.78-.16-3,1.5-5.05,3.82-5.17,2.36-.12,4.19,1.69,4.35,4.72.17,3.22.04,6.45.04,9.67Z" style="fill: #000; stroke-width: 0px;"/>
  <path d="M412.46,785.45c.8-1.63,1.36-3.53,2.51-4.95,2.31-2.87,4.93-5.48,7.45-8.18,1.63-1.75,3.5-2.87,5.85-1.4,1.88,1.18,2.46,3.87.7,6.15-1.93,2.5-4.39,4.68-6.9,6.62-1.57,1.21-1.91,2.12-1.05,3.87,1.78,3.65,3.41,7.37,5.08,11.07.77,1.72,1.12,3.53-.81,4.64-1.92,1.1-3.39-.05-4.42-1.63-2.16-3.33-4.35-6.64-6.27-10.1-.96-1.73-1.36-3.78-2.15-6.08Z" style="fill: #000; stroke-width: 0px;"/>
  <path d="M220.5,785.46c-.81,2.35-1.22,4.49-2.23,6.3-1.93,3.46-4.15,6.76-6.34,10.07-.99,1.5-2.44,2.45-4.25,1.46-1.84-1.01-1.67-2.73-.94-4.37,1.61-3.63,3.19-7.28,4.98-10.82,1.05-2.09.9-3.26-1.23-4.71-2.45-1.68-4.67-3.9-6.47-6.28-1.76-2.34-1.25-4.97.64-6.16,2.34-1.47,4.23-.44,5.87,1.33,2.57,2.78,5.25,5.47,7.63,8.41,1.1,1.36,1.59,3.2,2.34,4.78Z" style="fill: #000; stroke-width: 0px;"/>
  <path d="M336.24,659.39c1.2.64,3.66,1.63,5.76,3.13,1.9,1.36,2.48,3.79,1.34,5.72-.86,1.46-2.84,3.21-4.3,3.19-3.86-.06-6.37,1.73-8.84,4.25-1.27,1.3-2.83,2.52-4.5,3.14-1.16.43-3.15.22-3.98-.56-.82-.77-.76-2.59-.86-3.97-.04-.55.49-1.17.82-1.72,1.58-2.69,3.19-5.35,4.76-8.04,1.87-3.21,4.64-4.92,9.8-5.13Z" style="fill: #000; stroke-width: 0px;"/>
  <path d="M312.46,675.33c-.03,3.4-2.88,5.01-5.56,3.35-2.25-1.4-4.1-3.43-6.3-4.92-1.35-.92-2.99-1.78-4.58-1.94-3.89-.39-6.06-1.56-6.67-4.23-.63-2.78,1.13-5.56,4.51-7.11,4.65-2.14,9.84-.71,12.39,3.47,1.81,2.97,3.56,5.98,5.27,9.01.49.86.74,1.86.93,2.37Z" style="fill: #000; stroke-width: 0px;"/>
  <path d="M398.34,698.62c.68.52,2.51,1.2,3.1,2.46,3.68,7.94,7.17,15.97,10.46,24.08.37.92-.54,3.14-1.42,3.57-.86.42-3.13-.3-3.64-1.19-4.4-7.58-8.65-15.24-12.68-23.02-1.48-2.85.42-5.8,4.19-5.9Z" style="fill: #000; stroke-width: 0px;"/>
  <path d="M234.39,698.56c3.26.22,4.77,1.35,4.8,3.64.02,1.31-.41,2.75-1.04,3.92-3.67,6.83-7.45,13.61-11.22,20.39-.99,1.79-2.27,3.48-4.58,2.33-2.13-1.05-1.79-3.04-1.01-4.85,3.17-7.37,6.28-14.77,9.68-22.04.72-1.55,2.54-2.58,3.37-3.39Z" style="fill: #000; stroke-width: 0px;"/>
  <path d="M309.76,832.47c-1.01,1.66-1.53,3.29-2.64,4.19-5.42,4.44-10.93,8.79-16.6,12.9-.91.66-3.15.43-4.1-.28-.63-.47-.61-3.06.08-3.82,4.85-5.31,9.83-10.52,15.07-15.43,1.12-1.05,3.6-1.16,5.3-.86,1.04.19,1.8,1.98,2.88,3.3Z" style="fill: #000; stroke-width: 0px;"/>
  <path d="M323.89,833.6c-.05-3.51,2.15-5.51,4.76-4.9,1.37.32,2.83,1.06,3.81,2.05,4.63,4.62,9.14,9.36,13.64,14.11,1.21,1.28,1.93,2.87.6,4.47-1.44,1.72-3.18,1.25-4.69.09-5.26-4.04-10.54-8.07-15.66-12.29-1.25-1.03-1.94-2.75-2.47-3.53Z" style="fill: #000; stroke-width: 0px;"/>
  <path d="M255.88,704.56c-.23.82-.33,2.1-.91,3.09-2.41,4.12-4.83,8.25-7.57,12.15-.63.89-2.78,1.55-3.73,1.15-.95-.4-2.02-2.46-1.77-3.47,1.27-5.07,2.78-10.1,4.57-15.01.89-2.45,3.13-3.68,5.84-3.03,2.38.57,3.28,2.46,3.56,5.12Z" style="fill: #000; stroke-width: 0px;"/>
  <path d="M376.83,703.61c1.03-1.23,1.95-2.99,3.4-3.91,1.81-1.14,3.83-.34,5.23,1.23.84.94,1.57,2.11,1.95,3.3,1.31,4.13,2.65,8.27,3.53,12.5.27,1.29-.48,3.42-1.5,4.2-1.68,1.28-3.35-.02-4.37-1.61-2.28-3.57-4.54-7.17-6.64-10.85-.71-1.24-.93-2.76-1.61-4.87Z" style="fill: #000; stroke-width: 0px;"/>
  <path d="M295.53,720.01c-1.13-.5-2.03-.75-2.77-1.24-4.44-2.97-8.86-5.97-13.25-9-1.78-1.23-2.9-2.87-2.45-5.16.58-2.94,3.98-4.2,6.85-2.13,3.41,2.47,6.51,5.39,9.64,8.22,1.43,1.29,2.83,2.7,3.87,4.29.55.84.61,2.31.3,3.3-.23.73-1.43,1.15-2.19,1.71Z" style="fill: #000; stroke-width: 0px;"/>
  <path d="M356.08,706.48c-.54.71-1.29,2.28-2.52,3.18-4.4,3.19-8.95,6.18-13.48,9.2-1.58,1.06-3.33,1.5-4.7-.23-1.28-1.62-.53-3.23.74-4.45,3.93-3.75,7.9-7.47,11.98-11.04.97-.85,2.44-1.39,3.74-1.54,2.43-.28,4.32,1.67,4.24,4.88Z" style="fill: #000; stroke-width: 0px;"/>
  <path d="M280.25,843.61c-.56.74-1.28,2.17-2.4,3.08-3.79,3.07-7.74,5.94-11.62,8.91-1.54,1.18-3.17,2.29-4.91.62-1.71-1.63-.99-3.53.34-4.93,3.52-3.72,7.13-7.38,10.88-10.85.9-.84,2.53-1.21,3.83-1.22,2.21-.01,3.53,1.34,3.88,4.39Z" style="fill: #000; stroke-width: 0px;"/>
  <path d="M356.48,838.7c1.61.65,2.77.96,3.78,1.54,4.98,2.89,8.64,7.14,11.58,11.97.58.96.42,2.98-.24,3.95-1.05,1.54-2.8,1-4.16-.03-4.25-3.21-8.5-6.43-12.7-9.71-1.59-1.24-2.46-3.03-1.47-4.86.65-1.2,2.13-1.94,3.21-2.86Z" style="fill: #000; stroke-width: 0px;"/>
  <path d="M310.17,711.14c-.15,1.66-1.11,2.82-3.12,2.81-2.67-.02-6.17-3.25-6.23-5.69-.06-2.17,1.38-3.72,3.5-3.78,2.55-.07,5.83,3.52,5.86,6.66Z" style="fill: #000; stroke-width: 0px;"/>
  <path d="M332.27,708.21c-.05,2.76-4.47,6.44-7.07,5.59-.98-.32-2.07-1.6-2.3-2.63-.5-2.28,2.6-6.17,4.92-6.63,2.37-.46,4.49,1.28,4.45,3.66Z" style="fill: #000; stroke-width: 0px;"/>
</svg>