<?xml version="1.0" encoding="UTF-8"?>
<svg id="Layer_1" data-name="Layer 1" xmlns="http://www.w3.org/2000/svg" viewBox="0 0 715.18 900">
  <path d="M147.66,175.12c.08-1.11.27-2.04.19-2.94-2.7-31.12.53-61.69,8.38-91.85,1.1-4.22,2.05-8.49,2.66-12.8.8-5.66,3.71-9.23,9.13-11.02,22.77-7.53,45.41-15.47,68.29-22.63,27.51-8.61,55.24-16.52,82.82-24.9,6.47-1.97,12.87-4.31,19.06-7.04,5.66-2.5,10.99-2.79,16.31.36,2.14,1.27,3.94,1.24,6.06,0,5.33-3.12,10.59-2.71,16.32-.39,8.73,3.54,17.72,6.48,26.72,9.31,45.75,14.41,91.48,28.88,137.34,42.9,9.86,3.02,15.01,8.12,16.49,18.71,2.28,16.4,6.61,32.52,9.15,48.89,2.51,16.21,1.85,32.62.81,48.97-.09,1.4-.01,2.81-.01,4.48.94-.14,1.57-.09,2.06-.33,23.39-11.57,46.16-8.75,68.78,2.51,27.32,13.59,46.91,34.51,60.16,61.8,14.67,30.2,20.59,61.73,14.3,94.97-3.13,16.53-8.79,32.25-18.66,46.15-.77,1.08-1.51,2.3-2.56,3.05-5.85,4.2-7.47,10.42-9.28,16.99-11.44,41.46-23.09,82.86-34.98,124.19-6.03,20.95-12.45,41.8-19.21,62.53-2.46,7.54-6.06,14.78-9.78,21.82-3.36,6.38-8.71,11.01-15.74,13.28-2.6.84-2.54,2.25-1.82,4.44,3.88,11.94,5.29,24.17,3.07,36.57-.86,4.83-2.5,9.64-4.54,14.12-5.96,13.12-16.25,20.24-30.8,20.42-3.82.05-5.05,1.55-6,5.03-12.18,44.71-19.66,90.43-29.4,135.66-2.77,12.87-6.96,25.44-10.53,38.14-.33,1.16-.9,2.25-1.4,3.35-6.95,15.51-16.37,21.29-33.31,19.96-21.12-1.66-41.65-6.53-61.82-12.72-13.76-4.22-27.12-9.7-40.71-14.48-2.09-.74-4.43-.81-6.65-1.14-1.54-.23-3.13-.22-4.64-.57-1.88-.44-3.77-.97-5.54-1.75-7.3-3.21-14.42-2.81-21.85-.04-3.84,1.43-8.21,1.42-12.32,2.19-1.64.31-3.28.83-4.82,1.49-29.78,12.82-60.79,21.23-92.8,26.08-4.65.71-9.4.99-14.11,1.07-11.77.22-20.4-5.08-26-15.41-5.55-10.23-8.8-21.29-11.2-32.55-6.01-28.2-11.39-56.53-17.51-84.7-4.8-22.13-10.34-44.11-15.47-66.17-.58-2.49-1.86-3.32-4.3-3.33-17.25-.03-28.03-9.05-33.89-24.7-5.7-15.22-4.38-30.51.16-45.67.99-3.32.55-4.64-2.77-5.79-7.5-2.6-12.57-8.23-15.99-15.1-3.34-6.7-6.61-13.57-8.77-20.7-11.85-39.19-23.53-78.44-34.91-117.77-7.24-25.02-13.82-50.22-20.81-75.31-.52-1.88-1.67-3.87-3.11-5.15-6.28-5.6-10.77-12.42-14.3-19.94-16.86-36-17.7-72.63-4.53-109.9,9.24-26.15,23.45-48.83,45.34-66.29,13.67-10.9,29.13-18.18,45.99-22.54,14.89-3.85,29.07-.9,42.89,4.88,1.01.42,2.01.85,3.02,1.24.21.08.47.04,1.33.09ZM537.92,740.55c.56-1.42.94-2.15,1.14-2.93,3.13-12.58,6.16-25.18,9.38-37.74.7-2.72-.56-3.34-2.72-3.94-14.08-3.93-23.45-13.58-30.54-25.77-1.3-2.23-2.13-5.01-2.23-7.58-.09-2.15.59-4.94,2.01-6.4,2.06-2.12,4.92-.85,6.89.88,3.81,3.35,7.83,6.6,10.97,10.53,8.95,11.21,20.79,15.2,34.6,15.15,9.38-.04,14.15-2.95,17.64-11.65,5.99-14.96,3.59-30.04.18-45.04-.21-.95-2.85-1.34-4.36-1.99-.29,1.19-.9,2.41-.83,3.57.34,5.05,1.53,10.13,1.24,15.13-.91,15.37-13.94,23.07-28.06,16.75-1.38-.62-2.81-2.88-2.77-4.34.03-1.15,2.13-2.67,3.61-3.24,1.74-.68,3.83-.41,5.73-.73,5.22-.9,7.46-3.14,6.89-8.4-.52-4.75-2.34-9.34-3.3-14.05-1.21-5.92-4.91-8.25-10.67-8.72-4.36-.36-4.33-.71-4.63,3.82-.55,8.31-5.6,15.06-12.87,16.56-1.58.33-4.05-.32-5.05-1.46-.82-.93-.76-3.79.09-4.86,3.86-4.84,3.54-10.2,2.34-15.59-.34-1.53-1.93-3.32-3.4-3.94-3.66-1.57-7.6-2.45-11.37-3.79-2.31-.82-3.2-.19-4.38,2.04-1.58,2.98-3.81,5.85-6.41,7.98-2.37,1.94-5.75,3.38-8.62.61-2.8-2.7-.76-5.33.8-7.81.13-.2.23-.43.34-.64,2.55-5.27,1.21-8.22-3.84-11.09-12-6.79-23.82-13.91-35.7-20.91-.52-.31-1-.69-1.47-1.07-1.87-1.51-3.21-3.64-1.6-5.61,1.02-1.25,3.41-1.68,5.25-1.86,1.33-.13,2.77.74,4.15,1.21,24.56,8.29,48.97,17.09,73.74,24.69,14.18,4.35,28.85,7.42,43.5,9.86,13.81,2.31,18.37-.84,23.88-13.81,2.79-6.57,5.22-13.31,7.41-20.11,18.23-56.64,34.82-113.77,50.13-171.26.29-1.09.39-2.23.67-3.94-3.53.97-6.37,1.95-9.28,2.48-2.98.54-5.68-.41-7.01-3.31-1.38-3-.41-5.7,1.98-7.86.98-.89,2.08-1.69,3.23-2.35,4.3-2.48,8.66-4.87,12.98-7.31,10.27-5.8,16.88-14.64,21.03-25.49.14-.35-.08-.84-.17-1.58-1.12.56-1.99.93-2.79,1.41-8.89,5.34-18.6,5.86-28.49,4.48-1.54-.22-3.65-2.23-4.01-3.76-.59-2.53,1.7-3.71,4.02-4.17,2.02-.4,4.06-.7,6.08-1.09,10.06-1.92,18.19-7.01,23.32-15.85,3.8-6.56,6.87-13.6,9.62-20.68,1.22-3.14,1.25-6.91,1.12-10.37-.5-13.47-4.08-26.29-8.82-38.82-.33-.88-.94-1.66-1.9-3.31-.48,2.09-.77,3.11-.94,4.15-2.04,12.71-7.67,23.64-16.29,33.1-.73.8-1.49,1.83-2.42,2.12-1.27.39-3.14.71-4.01.06-1.02-.76-1.62-2.57-1.7-3.97-.07-1.21.85-2.47,1.31-3.71,2.43-6.58,5.46-13.01,7.16-19.77,4.14-16.5,2.83-32.44-6.52-47.22-2.76-4.36-5.14-8.95-7.78-13.39-.67-1.12-1.54-2.18-2.5-3.07-7.47-6.93-16.17-11.89-25.48-15.85-.49-.21-1.08-.16-2.48-.34,1.12,1.7,1.79,2.77,2.52,3.8,13.37,18.98,16.36,40.29,13.88,62.75-.15,1.39-2.31,3.53-3.56,3.55-1.26.02-2.74-2.05-3.74-3.48-.54-.77-.27-2.12-.35-3.2-1.06-13.88-3.7-27.34-10.24-39.84-8.98-17.17-23.45-25.87-42.36-27.82-1.38-.14-2.89.24-4.25.69-8.8,2.89-16.07,7.81-20.93,15.92-1.06,1.77-2.25,3.45-3.41,5.15-1.44,2.1-3.14,4.07-5.95,2.69-2.76-1.35-2.42-3.92-1.65-6.36,1.01-3.24,1.46-6.89,3.29-9.58,5.44-8.01,4.89-16.8,5.34-25.88,1.67-33.96-2.79-67.22-9.56-100.32-.2-1-.67-2.5-1.36-2.74-3.91-1.36-7.93-2.41-12.47-3.73.2,2,.24,3.06.42,4.1,5.22,31.42,5.54,62.95,1.79,94.53-.55,4.65-1.74,9.3-3.28,13.72-.51,1.47-3.17,3.31-4.55,3.09-1.63-.26-3.77-2.33-4.22-4.01-.83-3.09-.68-6.47-.76-9.73-.4-16.71-.3-33.45-1.24-50.13-1.01-18.01-2.92-35.98-4.64-53.95-.13-1.35-1.72-3.25-3.03-3.69-9.31-3.1-18.72-5.89-28.11-8.74-.83-.25-1.76-.17-2.88-.26.17,1.17.22,1.88.38,2.58,6.64,29.25,6.7,58.62,1.66,88.09-.49,2.86-.73,6.44-4.8,5.92-3.78-.48-3.22-3.94-3.2-6.7.29-30.25-3.27-60.22-6.76-90.19-.35-2.97-1.56-4.44-4.46-5.23-8.06-2.2-16.05-4.68-24.07-7.03-.99-.29-2.03-.44-3.48-.74.13,1.5.18,2.54.31,3.57.84,7.22,2.05,14.41,2.48,21.65.8,13.72.55,27.41-4.17,40.58-.97,2.71-2.19,5.44-3.86,7.76-.77,1.07-3.08,1.87-4.32,1.51-1.23-.36-2.18-2.23-2.9-3.62-.39-.76-.07-1.9,0-2.87,1.66-23.93-.62-47.69-3.17-71.44-.15-1.35-1.48-3.16-2.73-3.72-7.51-3.37-15.16-6.44-22.77-9.57-.5-.21-1.12-.12-1.89-.19,0,1.14.01,2.08,0,3.02-.16,9.79-.27,19.58-.53,29.37-.06,2.47-1.13,4.63-3.98,4.8-2.64.16-3.98-1.65-4.4-3.99-2.27-12.87-4.57-25.74-6.61-38.64-.57-3.61-1.34-4.56-5.07-4.02-3.34.48-6.71,1.27-10.05,1.2-5.9-.12-11.79-.8-17.68-1.23-2.42-.18-4.24-.27-4.76,3.22-1.95,13.04-4.31,26.02-6.59,39.01-.42,2.41-1.56,4.55-4.42,4.45-3.08-.11-4.07-2.48-4.13-5.05-.24-9.43-.32-18.86-.42-28.29-.01-1.27.19-2.55.31-4.05-.91.1-1.41.05-1.83.22-7.72,3.2-15.49,6.29-23.08,9.78-1.37.63-2.67,2.82-2.84,4.41-2.51,23.75-4.69,47.52-3.15,71.45.16,2.54.04,5.1-2.93,5.91-3.13.85-4.9-1.27-5.73-3.8-2.06-6.3-4.56-12.59-5.55-19.09-2.42-15.93-1.4-31.9,1.31-47.76.23-1.36.33-2.75.56-4.71-1.76.45-2.9.7-4.02,1.03-7.79,2.28-15.55,4.68-23.38,6.8-2.98.81-4.41,2.22-4.76,5.39-3.35,30.23-7.13,60.42-6.75,90.92.01,1.08.16,2.36-.35,3.19-.69,1.12-1.93,2.61-2.96,2.63-1.25.03-2.7-1.13-3.75-2.12-.6-.57-.66-1.78-.82-2.73-5.04-29.46-5.05-58.84,1.35-88.12.24-1.11.37-2.25.56-3.45-.81-.1-1.19-.26-1.49-.17-10.08,3.05-20.19,6.05-30.2,9.33-1.06.35-2.05,2.25-2.26,3.56-.5,3.1-.4,6.28-.75,9.41-3.56,31.46-5.69,62.99-5.13,94.66.05,2.66-.1,5.33-.37,7.98-.28,2.77-1.11,5.46-4.41,5.83-3.32.37-4.76-2.03-5.52-4.73-.88-3.14-1.71-6.33-2.13-9.56-4.17-32.05-3.76-64.04,1.24-95.98.23-1.5.38-3.01.58-4.68-.9-.07-1.37-.2-1.81-.12-11.21,1.99-10.94,2.05-13.32,13.15-6.59,30.73-9.57,61.74-8.1,93.17.16,3.38.25,6.83-.24,10.16-.49,3.38.67,5.92,2.07,8.86,2.7,5.65,4.85,11.59,6.69,17.58.44,1.41-.8,4.41-2.04,4.97-1.21.55-3.86-.64-5.07-1.86-1.93-1.94-3.1-4.61-4.75-6.85-8.16-11.08-18.02-17.94-32.78-14.09-6.54,1.7-12.75,3.75-18.22,7.79-10.13,7.48-16.95,17.53-20.28,29.41-2.86,10.19-4.1,20.84-5.96,31.31-.41,2.32-1,4.46-3.74,4.54-2.73.08-3.75-1.91-3.97-4.29-2.07-22.74,1.03-44.27,14.95-63.23.5-.68.76-1.53,1.25-2.55-.88,0-1.27-.11-1.57.02-9.8,4.09-18.91,9.29-26.59,16.75-.77.74-1.38,1.68-1.92,2.61-2.36,4.04-4.88,8.01-6.94,12.21-2.76,5.62-5.93,11.21-7.54,17.19-4.1,15.25-1.26,30.03,4.66,44.36,1.25,3.02,2.92,5.91,3.8,9.02.4,1.42-.18,4.12-1.18,4.68-1.27.71-3.45-.08-5.2-.4-.49-.09-.87-.8-1.28-1.25-8.5-9.38-14.17-20.17-16.31-32.72-.22-1.31-.66-2.58-1.2-4.67-.8,1.39-1.21,1.86-1.36,2.39-2.84,10.5-5.92,20.95-8.39,31.54-2.41,10.32-.02,20.02,4.38,29.59,6.85,14.88,17.21,24.71,34.1,26.33.36.03.85-.02,1.06.19,1.33,1.35,2.59,2.76,3.87,4.15-1.39,1.28-2.66,3.48-4.21,3.7-9.89,1.39-19.6.89-28.47-4.53-.83-.51-1.77-.82-3.15-1.44.22,1.18.24,1.66.41,2.08,4.71,11.79,12.32,20.94,23.84,26.73,4.53,2.27,8.97,4.87,13,7.92,4.51,3.41,3.66,9.56-1.33,10.93-1.96.54-4.28.03-6.38-.34-1.95-.34-3.82-1.12-6.4-1.91.33,1.86.44,3.02.75,4.13,12.28,42.99,24.31,86.05,36.97,128.92,6.1,20.67,12.93,41.15,20.26,61.41,5.14,14.21,10.05,16.59,25,14.88,17.91-2.05,35.13-7.11,52.16-12.77,22.3-7.41,44.49-15.16,66.73-22.74,2.63-.9,5.45-1.57,6.96,1.61,1.38,2.9-.51,4.91-2.82,6.28-12.16,7.24-24.31,14.5-36.6,21.53-4.15,2.38-5.32,4.02-4.02,8.67.45,1.6,1.75,2.99,2.07,4.59.36,1.85.8,4.45-.16,5.59-.98,1.16-3.77,1.65-5.46,1.22-4.86-1.25-8.27-4.49-9.71-9.42-.66-2.26-1.8-2.87-4.02-2.1-4.01,1.38-8.09,2.53-12.1,3.92-.95.33-2.29,1.09-2.45,1.86-1.15,5.44-2.58,10.98,1,16.13,1.45,2.09,2.8,4.25.92,6.6-1.98,2.48-4.56,1.67-6.98.62-7.25-3.15-10.45-8.93-10.99-16.59-.09-1.23-1.11-3.3-1.94-3.42-5.71-.84-10.43,2.16-12.6,7.53-.41,1.01-.96,1.99-1.21,3.04-1.01,4.34-2.39,8.66-2.74,13.07-.37,4.71,1.79,6.83,6.45,7.67,1.9.35,3.99.07,5.73.76,1.58.63,3.92,2.2,3.9,3.32-.02,1.54-1.65,3.65-3.15,4.43-2.07,1.07-4.65,1.28-7.04,1.58-9.72,1.2-17.52-3.69-19.55-13.27-1.1-5.2-.55-10.78-.44-16.19.05-2.35.86-4.68,1.31-6.98-4.51-1.46-5.57-.91-6.32,3.18-.75,4.05-1.59,8.09-2.11,12.17-1.34,10.58-1.22,21.07,2.94,31.12,3.5,8.45,8.03,11.41,17.01,11.47,13.72.1,25.91-3.29,34.69-14.79,1.17-1.53,2.52-2.96,3.95-4.26,2.76-2.52,5.42-5.25,8.53-7.28,4.21-2.76,8.45-.32,7.93,4.65-.38,3.64-1.26,7.59-3.15,10.64-7.11,11.51-16.33,20.76-29.97,24.32-2.43.63-3.02,1.64-2.38,4.12,3.14,12.2,6.08,24.45,9.12,36.68.27,1.08.69,2.12,1.27,3.84,1.37-1.6,2.16-2.65,3.07-3.57,7.35-7.35,14.69-14.72,22.12-21.99,1.83-1.79,4.16-2.88,6.52-.99,2.4,1.92,1.61,4.28.3,6.54-7.17,12.32-15.62,23.66-26.13,33.34-1.91,1.76-2.69,3.38-2.07,6,2.23,9.43,4.25,18.91,6.39,28.37.25,1.09.7,2.13,1.31,3.95,1.31-1.72,2.04-2.79,2.88-3.76,5.22-6.04,10.43-12.1,15.72-18.07,1.6-1.8,3.65-3.14,6.08-1.57,2.55,1.65,2.17,4.09,1.09,6.47-5.35,11.72-11.54,22.92-19.39,33.2-1.2,1.57-1.88,4.32-1.45,6.21,2.65,11.7,5.67,23.31,8.6,34.94.28,1.09.78,2.13,1.51,4.1,1.09-1.97,1.65-3.11,2.33-4.19,6.07-9.61,12.14-19.21,18.26-28.79.64-1.01,1.42-2.17,2.43-2.64,1.3-.6,3.29-1.22,4.26-.63,1.15.7,1.84,2.6,2.14,4.1.21,1.05-.52,2.32-.93,3.45-5.57,15.19-13,29.47-21.15,43.4-.66,1.12-1.42,2.41-1.44,3.63-.14,6.82,8.73,13.92,15.48,12.41.83-.19,1.98-1.22,2.09-1.99,1.86-13.74,9.37-24.76,17.02-35.72,1.42-2.03,3.23-3.52,5.82-2.45,2.8,1.16,3.08,3.66,2.3,6.14-2.98,9.45-6.1,18.85-9.18,28.27-.31.94-.64,1.86-1.34,3.91,9.68-2.43,18.33-4.55,26.94-6.85.83-.22,1.53-1.47,2-2.39,7.11-13.91,14.16-27.84,21.26-41.75.43-.85.99-1.87,1.76-2.24,1.1-.54,2.74-1.11,3.62-.65,1.06.55,1.92,2.08,2.21,3.34.23,1.04-.38,2.35-.83,3.45-4.37,10.65-8.78,21.27-13.17,31.91-.47,1.15-.88,2.33-1.43,3.8,1.07,0,1.56.1,1.99-.01,8.19-2.2,16.4-4.35,24.53-6.75,1.3-.38,2.73-1.74,3.3-3.01,3.74-8.29,9.24-15.33,15.23-22.04,1.99-2.23,3.98-5.34,7.49-3.27,3.51,2.07,1.82,5.31.77,8.13-1.76,4.71-3.62,9.39-5.42,14.04,8.72-1.28,17.13-3.49,25.54-3.47,8.5.02,16.99,2.24,25.72,3.53-.45-1.11-.89-2.2-1.33-3.3-1.74-4.39-3.55-8.76-5.2-13.18-.82-2.2-.69-4.43,1.56-5.79,2.26-1.36,4.22-.34,5.81,1.4,6.49,7.07,12.57,14.4,16.74,23.19.81,1.71,2.78,3.44,4.58,4.01,7.39,2.33,14.92,4.22,22.41,6.23.84.23,1.75.2,3.2.34-.71-1.77-1.19-2.99-1.69-4.19-4.46-10.74-8.94-21.47-13.36-32.23-.93-2.25-1.31-4.71,1.31-6.06,2.65-1.37,4.42.34,5.56,2.54,7.08,13.65,14.18,27.3,21.05,41.06,1.08,2.16,2.14,3.57,4.51,4.12,6.97,1.59,13.9,3.32,20.86,4.95,1.09.26,2.24.26,4.06.46-.76-1.78-1.31-2.82-1.67-3.93-3.04-9.31-6.2-18.58-8.9-27.99-.45-1.57.68-4.42,2.02-5.47,2.15-1.69,4.35-.12,5.83,1.9,1.79,2.44,3.55,4.91,5.21,7.44,5.34,8.15,10.25,16.58,11.65,26.38.54,3.77,2.07,4.76,5.39,4.24,1.08-.17,2.18-.2,3.23-.47,6.98-1.8,10.62-10.63,7.34-16.85-5.93-11.24-11.64-22.6-17.28-33.99-1.66-3.35-3.04-6.9-4.01-10.51-.39-1.44.27-3.58,1.22-4.82.57-.75,2.73-.77,3.95-.38,1.13.36,2.2,1.54,2.89,2.61,6.38,9.84,12.67,19.73,18.98,29.61.66,1.04,1.24,2.13,2.09,3.6.64-.98,1.01-1.33,1.11-1.75,3.2-12.69,6.45-25.36,9.45-38.1.32-1.37-.43-3.39-1.37-4.58-7.98-10.18-14.17-21.4-19.61-33.06-1.13-2.42-2.05-4.97.59-6.88,2.68-1.94,4.9-.24,6.64,1.72,5.31,5.96,10.5,12.03,15.73,18.06.8.92,1.59,1.85,2.7,3.15.5-1.21.81-1.73.94-2.3,2.28-10.17,4.66-20.31,6.68-30.53.29-1.47-.78-3.75-1.96-4.88-10.32-9.88-18.91-21.09-26.15-33.36-1.3-2.2-2.36-4.53-.13-6.6,2.39-2.21,4.8-1.03,6.8.8,5.54,5.06,11.09,10.11,16.43,15.37,2.99,2.95,5.56,6.32,8.78,10.05Z" style="fill: #000; stroke-width: 0px;"/>
  <path d="M251.31,758.12c.95-6.3,2.21-13.93,3.18-21.6.18-1.46-.42-3.27-1.22-4.56-2.67-4.3-5.86-8.29-8.36-12.68-5.4-9.46-5.11-19.15-.59-28.93,10.52-22.7,36.99-37.28,61.82-33.86,2.53.35,3.39-.36,3.8-2.84,1.66-10.18,4.82-13.21,15.14-14.28,5.16-.53,10.38-.67,15.58-.72,11.37-.1,22.75-.14,34.12,0,5.8.07,11.62.33,17.38.98,7.97.9,11.94,4.8,12.9,12.81.45,3.77,1.78,4.38,5.35,3.86,25.37-3.68,54.2,14.35,62.26,38.68,2.3,6.95,2.6,13.97-.74,20.53-2.88,5.67-6.72,10.85-9.91,16.39-.85,1.48-1.48,3.6-1.13,5.19,2.55,11.59,3.39,23.26,1.87,35.01-.41,3.17-1.49,6.41-3,9.23-2.42,4.51-5.56,5.26-10.32,3.42-1.1-.43-2.34-.67-3.52-.71-15.85-.53-31.7-.99-47.54-1.53-4.23-.14-8.47-.37-12.68-.78-2.11-.21-2.98.32-3.41,2.51-2.22,11.52-9.4,16.79-21.22,15.98-2.89-.2-5.8,0-8.7.1-10.45.36-17.65-5.31-19.44-15.62-.42-2.4-1.16-3.26-3.73-2.98-4.56.5-9.17.63-13.77.79-15.48.53-30.97.99-46.46,1.53-1.18.04-2.4.34-3.5.78-4.32,1.73-7.2,1.13-9.62-2.79-1.43-2.32-2.59-5.02-3.02-7.69-.79-4.88-.96-9.86-1.51-16.26ZM269.66,756.69c-.31,0-.62,0-.93,0,0,3.63.21,7.28-.06,10.89-.26,3.35.85,4.27,4.13,3.71,12.85-2.17,25.76-2.09,38.75-1.38,8.67.47,17.4-.19,26.1-.35,2.78-.05,5.61-.45,8.32-.03,1.51.24,3.58,1.6,3.98,2.89.37,1.21-.71,3.59-1.89,4.41-2.34,1.63-2.04,3.65-1.2,5.4.67,1.39,2.33,3.1,3.67,3.22,4.69.39,9.46.43,14.14-.02,1.37-.13,2.98-2.12,3.7-3.63.78-1.65.93-3.58-1.41-4.97-1.15-.68-2.37-2.95-2.03-4.03.42-1.36,2.29-2.99,3.72-3.19,3.07-.44,6.26-.05,9.4.02,7.73.17,15.5.88,23.2.42,13.95-.82,27.83-1.09,41.65,1.3,2.72.47,3.74-.3,3.58-3.17-.43-7.62-.72-15.24-.92-22.87-.07-2.66-.66-4.08-3.75-4.55-5.16-.78-7.01-6.21-3.62-10.23,1.53-1.82,3.77-3.02,5.49-4.7,4.21-4.12,8.54-8.15,12.37-12.61,4.78-5.57,4.17-11.52.13-17.36-6.37-9.19-14.37-16.67-25.02-20.2-7.98-2.64-16.44-3.89-24.75-5.41-1.27-.23-3.37,1.05-4.23,2.25-2.17,3.03-4.39,5.62-8.52,4.93-3.21-.54-5.31-3.51-5.66-8.39-.27-3.85-.09-7.74,0-11.61.05-1.92-.27-3.38-2.57-3.54-9.65-.66-19.3-1.8-28.95-1.87-8.32-.06-16.64,1.21-24.97,1.65-3.41.18-4.53,1.33-4.35,4.88.23,4.55.1,9.24-.84,13.66-.42,2-3.01,4.61-4.93,4.92-2.12.34-4.67-1.55-6.92-2.67-.66-.33-.82-1.57-1.47-2.01-1.35-.91-2.98-2.38-4.3-2.2-6.7.94-13.46,1.89-19.97,3.68-12.91,3.54-22.76,11.49-30.16,22.57-3.73,5.58-4.03,11.21.32,16.44,3.53,4.24,7.51,8.13,11.44,12.01,1.8,1.77,4.44,2.84,5.83,4.83,1.3,1.87,2.39,4.8,1.85,6.8-.48,1.78-3.12,3.58-5.15,4.19-2.34.7-3.24,1.66-3.21,3.93.04,3.99.01,7.99.01,11.98Z" style="fill: #000; stroke-width: 0px;"/>
  <path d="M148.8,365.4c4.04-1.87,7.45-3.7,11.04-5.06,9.85-3.73,19.84-7.08,29.65-10.92,17.58-6.88,35.02-14.12,52.62-20.94,4.67-1.81,9.66-3.03,14.62-3.83,3.15-.51,6.48.54,7.49,4.29.96,3.57-1.31,5.88-4.06,7.34-5.87,3.12-11.87,6.03-17.93,8.78-2.72,1.23-3.41,2.42-2.38,5.49,6.08,18.09,9.58,36.77,12.02,55.66.26,2.02.56,4.03.9,6.5,1.66-.37,3.04-.57,4.36-.98,9.48-2.93,18.96-5.92,28.44-8.87,1.16-.36,2.42-1.06,3.49-.85,1.73.34,4.16.89,4.77,2.11.61,1.22-.09,4.05-1.21,4.99-3.49,2.95-7.29,5.64-11.27,7.89-13.92,7.85-29.03,12.78-44.34,16.96-18.57,5.08-37.24,9.79-55.97,14.24-17.38,4.13-26.25-.73-31.17-18.07-4.52-15.94-7.8-32.23-11.45-48.41-7.32-32.49-14.55-65-21.71-97.52-1.09-4.96-1.73-10.02-2.43-15.06-.27-1.9-.37-3.89-.12-5.79.39-3.01,2.04-5.23,5.2-5.76,3.15-.53,5.54.95,6.81,3.71,1.04,2.28,1.71,4.79,2.21,7.27,3.87,19.23,7.57,38.5,11.52,57.71,2.39,11.62,5.13,23.17,7.73,34.75.29,1.27.69,2.52,1.19,4.35ZM171.57,435.83c6.77-1.67,12.77-3.07,18.69-4.74.54-.15,1.12-2.24.8-3.1-6.56-17.47-10.17-35.55-11.5-54.11-.18-2.48-.95-3.11-3.4-2.4-7.08,2.05-14.2,3.99-21.36,5.76-2.44.6-3.18,1.56-2.53,4.02,3.59,13.56,6.99,27.17,10.65,40.71.91,3.36,2.23,6.69,3.94,9.71.99,1.74,3.13,2.82,4.7,4.15ZM227.02,352.92c-.42-.11-.7-.29-.88-.22-10.68,4.18-21.37,8.34-31.99,12.66-.67.27-1.29,1.98-1.1,2.83,1.17,5.05,2.66,10.03,3.88,15.07.55,2.27,1.32,3.21,3.68,1.83,8.36-4.91,17.39-7.79,27.05-8.61,2.28-.19,2.78-1.27,2.46-3.37-.91-6.09-1.67-12.21-2.52-18.31-.1-.68-.41-1.33-.6-1.89ZM214.48,424.15c-.61-3.82-1.47-7.24-1.63-10.68-.16-3.47,1.46-6.4,4.7-8,3.37-1.65,6.6-.95,9.58,1.14,3.23,2.27,4.93,5.49,5.97,9.25.28,1,1.85,2.5,2.6,2.37,2.78-.47,5.47-1.52,8.07-2.31-2.93-7.2-5.81-13.84-8.29-20.61-.95-2.58-1.95-3.57-4.69-2.64-9.28,3.12-18.62,6.06-27.86,9.3-.8.28-1.56,2.3-1.41,3.38.65,4.67,1.67,9.29,2.51,13.93,1.57,8.65,1.79,8.78,10.04,5.26.21-.09.35-.32.42-.38Z" style="fill: #000; stroke-width: 0px;"/>
  <path d="M566.32,365.22c.5-1.78,1.04-3.34,1.37-4.94,6.05-29.06,12.07-58.12,18.11-87.18.67-3.2,1.34-6.41,2.24-9.55,1.25-4.35,4.31-6.55,7.87-5.95,3.34.57,5.63,3.53,5.13,8.05-.87,7.81-1.87,15.66-3.55,23.33-7.14,32.67-14.52,65.28-21.86,97.9-3.06,13.59-6.03,27.2-9.47,40.7-1.15,4.51-3.23,8.9-5.55,12.96-3.59,6.3-9.38,9.26-16.67,9.05-1.93-.06-3.9-.13-5.78-.56-29.41-6.69-58.91-13.19-87.11-24.14-8.3-3.22-16.03-7.91-23.97-12.03-1.48-.77-2.74-1.99-4.07-3.04-1.97-1.56-3.25-3.5-1.89-5.97,1.25-2.28,3.45-2.41,5.74-1.72,6.38,1.92,12.76,3.82,19.13,5.79,5.2,1.6,10.37,3.28,16.02,5.06.33-1.52.7-2.74.86-3.99,2.54-20.24,6.28-40.22,12.75-59.61.75-2.25-.15-3.08-1.89-3.88-5.06-2.34-10.15-4.61-15.1-7.16-2.33-1.2-4.68-2.67-6.49-4.53-2.83-2.91-1.79-7.3,2.11-8.42,2.68-.77,5.81-.92,8.54-.38,3.76.75,7.38,2.3,10.98,3.71,20.42,7.96,40.82,15.94,61.2,23.99,9.79,3.87,19.51,7.9,29.27,11.85.53.22,1.1.35,2.06.64ZM542.34,435.53c3.81-.28,5.8-1.37,7.34-6.65,4.66-16.01,8.91-32.14,13.15-48.26.22-.83-.92-2.76-1.78-3.02-7.41-2.21-14.91-4.12-22.36-6.2-2-.56-2.96-.11-3.1,2.07-1.23,18.82-4.86,37.13-11.63,54.79-.29.76.52,2.76,1.17,2.94,5.69,1.6,11.46,2.92,17.2,4.33ZM488.04,352.15c-1.1,7.79-2.2,14.94-2.99,22.12-.07.64,1.76,2.05,2.81,2.16,9.41,1.03,18.26,3.72,26.42,8.51,2.38,1.4,3.37.99,3.97-1.69,1.05-4.72,2.13-9.46,3.65-14.04.89-2.7.05-3.69-2.31-4.55-5.23-1.91-10.41-3.96-15.58-6.02-5.15-2.05-10.27-4.17-15.96-6.49ZM471.4,415.95c2.5.76,5.1,1.75,7.79,2.23.81.14,2.23-.93,2.74-1.81.84-1.43,1-3.24,1.74-4.74,2.59-5.3,8-8.04,12.77-6.6,4.58,1.38,6.71,5.9,5.62,12.27-.38,2.23-1.13,4.39-1.82,6.99,2.25.7,4.42,1.32,6.55,2.03,2.09.69,3.12.05,3.5-2.19,1.06-6.2,2.21-12.39,3.47-18.56.5-2.44-.41-3.42-2.68-4.15-7.14-2.29-14.19-4.85-21.31-7.23-2.17-.73-4.41-1.38-6.67-1.68-.87-.12-2.44.58-2.75,1.31-3.01,7.1-5.81,14.29-8.95,22.13Z" style="fill: #000; stroke-width: 0px;"/>
  <path d="M309.24,554.11c1.84-2.48,3.3-4.52,4.83-6.5,5.26-6.79,10.48-13.63,15.88-20.31,1.65-2.05,3.7-3.84,5.8-5.46,4.08-3.14,8.55-3.06,11.56-.07,3,2.99,3.14,7.46.19,11.62-1.4,1.97-3.01,3.8-4.65,5.58-1.81,1.96-1.36,3.61.7,4.73,2,1.08,4.43,1.43,6.32,2.65,1.76,1.15,4.11,2.93,4.25,4.6.15,1.7-1.67,4.26-3.34,5.29-5.26,3.23-10.84,2.69-15.65-.97-2.89-2.19-4.25-1.49-6,1.09-2.52,3.7-5.2,7.31-8.02,10.79-1.42,1.76-3.11,3.46-5.02,4.64-5.74,3.54-10.62,2.22-13.61-3.77-7.78-15.58-15.35-31.27-23.17-46.83-.82-1.62-2.61-3.15-4.31-3.87-5.5-2.31-10.25-5.47-13.71-10.37-6.67-9.44-6.78-21.17.65-30.41,7.79-9.69,17.37-17.11,29.97-19.86,1.61-.35,3.5-1.95,4.22-3.46,7.03-14.75,13.85-29.6,20.7-44.43.96-2.09,1.48-4.48,2.82-6.26,1.02-1.36,3.09-2.83,4.55-2.69,1.48.13,3.71,1.98,4.01,3.41.85,3.96,1.65,8.22,1.08,12.16-2.89,20.03-11.29,37.73-24.26,53.14-2.41,2.86-6.47,4.58-10.08,6.1-5.79,2.44-11.86,4.21-17.77,6.39-2.03.75-4.03,1.69-5.88,2.81-3.29,1.99-5.6,4.73-5.11,8.89.49,4.17,2.61,7.35,6.64,8.78,3.18,1.13,6.52,1.82,9.78,2.74,2.1.59,4.23,1.12,6.25,1.9,4.23,1.64,5.49,4.71,4.13,9.01-.41,1.29-.7,2.99-.2,4.12,4.75,10.74,9.67,21.4,14.57,32.07.34.74.92,1.36,1.9,2.76Z" style="fill: #000; stroke-width: 0px;"/>
  <path d="M406.01,553.88c.87-1.28,1.52-2,1.9-2.83,4.86-10.55,9.72-21.11,14.45-31.72.47-1.07.35-2.63-.02-3.8-1.62-5.09-.23-8.15,4.91-9.73,4.28-1.31,8.65-2.32,12.97-3.51,3.27-.9,5.98-2.54,7.56-5.74,2.54-5.14,1.3-10.06-4.29-12.83-6.05-2.99-12.37-5.77-18.88-7.4-10.81-2.71-17.52-9.73-22.79-18.82-6.34-10.94-12.08-22.2-14.63-34.66-1.17-5.7-1-11.73-.96-17.61.02-2.69,1.41-5.34,4.69-5.6,3.08-.24,4.37,2.09,5.47,4.49,7.25,15.84,14.55,31.66,21.75,47.53,1.48,3.26,3.75,4.54,7.24,5.62,13.53,4.17,24.79,11.92,31.07,24.95,6.32,13.12-.8,28.81-15.11,34.44-3.38,1.33-5.12,3.34-6.57,6.54-2.93,6.5-6.47,12.73-9.65,19.12-3.71,7.46-7.31,14.99-10.95,22.49-.21.44-.37.89-.58,1.33-4.15,8.96-12.1,10.04-18.48,2.35-3.4-4.1-6.47-8.47-9.55-12.81-1.5-2.12-2.71-2.46-4.96-.75-5.05,3.84-10.73,4.63-16.29,1.31-1.68-1-3.53-3.57-3.4-5.27.13-1.66,2.5-3.43,4.25-4.59,1.66-1.1,3.9-1.3,5.71-2.24,3.08-1.59,3.26-2.97,1.07-5.63-1.54-1.87-3.22-3.64-4.58-5.63-2.63-3.85-2.41-8.28.32-11.01,2.86-2.85,7.31-3.45,10.92-.51,3.99,3.26,7.65,7.05,10.93,11.04,4.92,5.98,9.38,12.33,14.04,18.52.64.85,1.35,1.65,2.43,2.95Z" style="fill: #000; stroke-width: 0px;"/>
  <path d="M383.33,215.04c-.79-24.09-1.61-48.18-2.35-72.27-.09-2.89.05-5.82.41-8.7.47-3.84,2.81-6.18,5.89-6.34,3.2-.17,5.91,2.1,6.46,6.12,1.44,10.44,2.88,20.88,3.87,31.37,3.59,37.94,4.63,75.93,1.03,113.93-.64,6.73-1.95,13.41-3.11,20.09-.45,2.61-1.59,5.13-4.85,4.87-3.26-.26-3.91-2.91-4.04-5.57-.71-15.36-1.43-30.73-2.01-46.1-.47-12.47-.75-24.94-1.12-37.41-.06,0-.12,0-.18,0Z" style="fill: #000; stroke-width: 0px;"/>
  <path d="M332.13,207.89c-1.26,33.64-2.23,59.66-3.23,85.68-.08,2.17-.02,4.51-.82,6.45-.67,1.63-2.44,3.8-3.82,3.88-1.4.07-3.85-1.9-4.23-3.38-1.4-5.49-2.49-11.12-3.05-16.76-4.71-47.36-2.73-94.59,3.2-141.72.35-2.76.67-5.54,1.19-8.27.7-3.69,3.24-6.05,6.23-6.06,2.99,0,5.58,2.38,6.11,6.13.4,2.86.52,5.8.44,8.69-.7,24.33-1.48,48.66-2,65.37Z" style="fill: #000; stroke-width: 0px;"/>
  <path d="M105.85,505.95c.28-2.21.33-4.3.84-6.26.72-2.78,2.57-4.67,5.52-5.13,2.96-.46,5.41.76,6.77,3.26,1.3,2.41,2.32,5.1,2.86,7.78,2.29,11.4,4.23,22.87,6.55,34.27,1.03,5.09,2.39,10.15,4.09,15.05,1.61,4.63,3.79,6.15,8.63,5.36,9.07-1.49,18.03-3.58,27.03-5.46,2.82-.59,6.05-2.08,7.71,1.46,1.7,3.62-1.55,5.1-3.93,6.69-7.69,5.14-15.67,9.69-24.84,11.68-13.59,2.94-23.1-1.66-28.43-14.5-7.21-17.37-10.36-35.76-12.77-54.19Z" style="fill: #000; stroke-width: 0px;"/>
  <path d="M609.03,505.96c-1.98,18.36-5.27,36.46-12.24,53.63-5.54,13.64-15.51,18.3-29.86,14.78-9.58-2.34-17.92-7.28-25.81-12.94-1.26-.9-2.3-3.88-1.73-5.08.59-1.23,3.43-2.3,5.02-2,7.96,1.51,15.79,3.73,23.75,5.25,11.38,2.18,13.85.83,16.45-10.4,3-12.96,5.15-26.12,7.75-39.18.64-3.2,1.37-6.41,2.41-9.49,1.52-4.49,4.71-6.6,8.35-5.97,3.44.6,5.58,3.51,5.9,8.12.08,1.08.01,2.18.01,3.27Z" style="fill: #000; stroke-width: 0px;"/>
  <path d="M278.8,220.34c1.51-11.25,2.89-22.52,4.61-33.73.45-2.92,1.71-5.82,3.08-8.47,1.63-3.17,4.45-4.76,8.16-3.99,3.08.64,5.26,3.5,5.21,7.41-.07,5.8-.27,11.63-.8,17.4-1.76,18.92-3.69,37.83-5.56,56.74-.04.36-.09.72-.13,1.08-.29,2.57-1.02,4.94-4.07,5.16-3.05.22-4.26-2.05-4.81-4.52-1.39-6.25-2.93-12.5-3.79-18.83-.81-5.98-.85-12.06-1.22-18.1-.23-.05-.45-.09-.68-.14Z" style="fill: #000; stroke-width: 0px;"/>
  <path d="M435.45,220.85c.05,11.8-.97,23.46-4.35,34.83-.31,1.04-.39,2.35-1.07,3.05-1.24,1.27-3.05,3.22-4.25,2.99-1.52-.29-3.04-2.3-3.88-3.92-.73-1.41-.54-3.31-.69-4.99-1.97-21.94-3.95-43.88-5.86-65.82-.21-2.39-.56-5.05.24-7.18.81-2.13,2.69-4.7,4.64-5.29,1.95-.6,5.33.31,6.72,1.82,2.1,2.27,3.48,5.51,4.35,8.56,3.34,11.74,4.03,23.83,4.13,35.96Z" style="fill: #000; stroke-width: 0px;"/>
  <path d="M571.06,495.94c-1.43,8.83-3.56,18.76-8.66,27.74-3.15,5.54-8.2,7.67-14.47,6.63-6.38-1.05-11.44-4.54-15.62-9.23-.94-1.06-1.29-3.68-.63-4.86.65-1.18,3.01-2.16,4.47-1.98,3.57.43,7.09,1.47,10.57,2.49,2.77.81,3.96.13,4.25-2.88.52-5.41,1.29-10.8,2.17-16.17.37-2.24,1.09-4.48,1.99-6.57,2.03-4.72,5.9-6.96,9.96-6.05,3.8.85,6.09,4.54,5.96,10.88Z" style="fill: #000; stroke-width: 0px;"/>
  <path d="M165.08,530.59c-5.88-.05-10.07-2.49-12.58-7.25-4.75-9-7.32-18.71-8.36-28.78-.5-4.88,1.94-8.43,5.7-9.41,4.01-1.05,8.6,1.01,10.03,5.8,1.92,6.45,3.05,13.17,3.99,19.85.97,6.88.68,6.9,7.56,5.12,2.58-.67,5.16-1.58,7.77-1.73,1.42-.08,3.53.84,4.19,1.98.65,1.12.48,3.6-.37,4.58-4.82,5.55-10.71,9.41-17.93,9.84Z" style="fill: #000; stroke-width: 0px;"/>
  <path d="M476.6,221.4c-1.28,8.64-2.49,17.25-3.87,25.83-.42,2.58-1.43,5.18-4.65,5.17-3.45,0-4.4-2.72-4.64-5.49-1.4-15.91-2.81-31.82-3.96-47.75-.33-4.53,2.04-7.39,5.39-7.91,3.57-.55,6.87,1.46,7.82,6.01,1.65,7.9,2.63,15.95,3.92,24.14Z" style="fill: #000; stroke-width: 0px;"/>
  <path d="M255.94,211.33c-1.32,11.3-2.63,22.6-3.98,33.89-.14,1.2-.16,2.61-.81,3.5-1.05,1.43-2.64,3.54-3.89,3.47-1.55-.09-3.86-1.84-4.33-3.35-1.35-4.37-2.62-8.96-2.68-13.48-.14-10.86.3-21.73.8-32.58.12-2.57,1.17-5.21,2.25-7.61,1.3-2.9,3.75-4.48,7.06-3.88,3.34.61,5,3.06,5.17,6.18.25,4.59.06,9.2.06,13.79.12.02.23.04.35.06Z" style="fill: #000; stroke-width: 0px;"/>
  <path d="M80.48,425.03c0-4.12,1.86-6.87,4.9-7.72,2.97-.83,6.12.59,7.84,3.8.96,1.8,1.78,3.75,2.22,5.72,3.03,13.57,5.97,27.15,8.87,40.74.51,2.38.37,4.78-2.42,5.71-2.54.84-4.15-.69-5.23-2.78-7.11-13.69-12.61-27.98-15.86-43.09-.2-.94-.26-1.91-.32-2.38Z" style="fill: #000; stroke-width: 0px;"/>
  <path d="M634.61,425.79c-.27,1.34-.62,3.62-1.19,5.84-3.37,13.18-8.21,25.8-14.51,37.86-.55,1.06-1.18,2.17-2.04,2.96-2.4,2.17-5.78.91-6.26-2.29-.14-.93-.04-1.95.16-2.88,2.79-12.88,5.56-25.77,8.47-38.63.58-2.57,1.49-5.13,2.68-7.48,1.55-3.07,4.16-4.71,7.78-3.84,3.2.77,5.05,3.67,4.93,8.46Z" style="fill: #000; stroke-width: 0px;"/>
  <path d="M579.76,442.86c1.21-5.77,2.12-11.62,3.71-17.28,1.32-4.7,4.72-6.66,8.28-5.66,3.47.97,5.51,4.55,4.04,9.18-2.14,6.75-4.91,13.32-7.84,19.78-.58,1.27-3.29,2.55-4.63,2.22-1.32-.32-2.4-2.57-3.08-4.18-.47-1.13-.09-2.62-.09-3.94-.13-.04-.25-.07-.38-.11Z" style="fill: #000; stroke-width: 0px;"/>
  <path d="M134.87,444.21c0,.96.31,2.08-.07,2.86-.73,1.51-1.68,3.76-2.86,3.99-1.45.28-4.18-.8-4.71-2.01-2.99-6.81-5.85-13.73-8.02-20.83-1.29-4.21.99-7.54,4.3-8.36,3.32-.82,6.77.99,7.94,5.2,1.73,6.23,2.75,12.67,4.07,19.01-.22.05-.43.1-.65.15Z" style="fill: #000; stroke-width: 0px;"/>
  <path d="M215.08,239.82c-.28,4.21-.53,8.43-.86,12.64-.19,2.36-1.15,4.72-3.76,4.31-1.55-.24-3.79-2.19-4.03-3.65-1.29-7.95-2.32-15.97-2.9-24-.32-4.5,2.35-7.25,5.81-7.32,3.56-.07,5.93,2.82,6.03,7.53.07,3.49.01,6.99.01,10.49-.1,0-.2,0-.3,0Z" style="fill: #000; stroke-width: 0px;"/>
  <path d="M499.78,240.05c0-3.86-.12-7.72.03-11.57.17-4.08,2.47-6.63,5.7-6.68,3.27-.06,6.19,2.42,5.93,6.38-.56,8.51-1.67,16.99-2.96,25.42-.2,1.29-2.89,3.35-3.92,3.09-1.5-.39-3.32-2.43-3.6-4.01-.73-4.13-.69-8.4-.96-12.61-.08,0-.15,0-.23,0Z" style="fill: #000; stroke-width: 0px;"/>
  <path d="M335.09,693.26c7.6.63,14.45,1.36,21.31,1.68,2.85.13,5.74-.96,8.61-.94,14.48.08,29.05-1.57,43.36,2.36,3.23.89,6.71.84,10.08,1.25,6.36.77,9.67,3.4,10.28,9.76,1.02,10.67,2.55,21.51-2.24,31.8-.78,1.69-1.82,3.76-3.32,4.5-3.32,1.65-4.54,4.41-5.7,7.54-3.06,8.25-10.89,10.25-17.49,4.65-1.75-1.48-3.72-2.7-5.56-4.07-7.09-5.25-14.37-6.86-22.64-2.29-3.53,1.95-7.68,3.3-11.68,3.73-3.56.38-7.38-.56-10.94-1.49-3.37-.88-6.59-2.41-9.8-3.82-4.3-1.89-8.57-1.92-12.56.44-4.36,2.58-8.65,5.34-12.64,8.45-4.99,3.9-13.52,2.14-15.82-3.77-1.6-4.1-3.8-7.24-7.25-10.32-3.03-2.71-4.64-8.04-5.07-12.39-.71-7.29-.38-14.76.25-22.1.62-7.23,3.85-9.81,10.98-10.68,5.16-.63,10.26-1.73,15.43-2.29,7.67-.83,15.37-1.38,22.42-1.99ZM407.39,746.13c.42-.66.79-1.02.89-1.44,1.03-4.38,2.95-8.14,6.83-10.76.71-.48,1.16-1.85,1.17-2.81.05-5.56-.13-11.12-.09-16.68.01-2.07-.62-3.07-2.81-3.31-3-.33-5.94-1.14-8.94-1.49-11.51-1.35-23.04-2.61-34.57-3.87-.71-.08-1.48-.02-2.16.17-6.76,1.85-13.5,1.79-20.29.03-1.25-.32-2.64-.13-3.97-.08-14.06.49-27.95,2.29-41.7,5.25-2.11.45-2.86,1.27-2.78,3.35.15,3.99.46,8.01.12,11.97-.34,4.03-.57,7.59,3.63,9.96,1.13.63,1.83,2.24,2.43,3.53.89,1.91,1.51,3.95,2.34,6.19.79-.57,1.3-.88,1.73-1.26,12.99-11.43,28.05-13.14,43.29-5.22,3.41,1.77,7.26,1.67,10.75-.35,12.63-7.29,30.43-5.43,41.32,4.35.87.78,1.76,1.56,2.8,2.48Z" style="fill: #000; stroke-width: 0px;"/>
</svg>