<?xml version="1.0" encoding="UTF-8"?>
<svg id="Layer_1" data-name="Layer 1" xmlns="http://www.w3.org/2000/svg" viewBox="0 0 712.96 900">
  <path d="M712.88,317.76c0,4.43.21,11.86-.05,19.27-.34,9.76-2.52,19.21-6.51,28.13-8.2,18.33-18.19,35.64-30.06,51.85-.86,1.17-1.64,2.66-2.83,3.28-2.81,1.47-3.57,3.93-4.32,6.67-5.56,20.55-15.45,38.74-29.15,55.08-4.97,5.93-8.69,12.92-12.78,19.56-8.76,14.22-14.83,29.57-19.27,45.63-1.94,7.02-4.36,13.91-6.65,20.83-3.07,9.25-7.46,17.89-13.04,25.84-6.29,8.97-10.73,18.84-15.31,28.7-5.76,12.42-8.55,25.59-10.92,38.93-1.6,9-3.37,17.98-5.23,26.94-3.11,14.92-3.92,30.03-2.35,45.11,1.74,16.74,4.59,33.36,6.67,50.06,1.13,9.06,1.92,18.19,2.4,27.31.53,10.14-1.97,19.73-6.57,28.77-6.84,13.44-14.88,25.97-26.51,35.92-11.79,10.09-25.44,15.1-40.86,15.21-6.49.05-12.98-.46-19.48-.64-2.11-.06-4.25,0-6.35.22-.98.1-2.11.51-2.81,1.17-3.71,3.53-8.26,5.25-13.13,6.23-13.57,2.74-27.06,3.17-40.56-.77-9.68-2.82-19.56-4.98-29.71-5.24-3.15-.08-6.33.29-9.46.71-7.28.97-14.63,1.4-21.81.07-7.63-1.42-15.08-.85-22.52.44-6.79,1.18-13.53,2.71-20.18,4.52-13.72,3.73-27.33,2.81-40.95-.34-3.93-.91-7.44-2.7-10.51-5.4-.9-.79-2.28-1.24-3.5-1.41-1.96-.26-3.96-.25-5.95-.2-6.76.19-13.52.73-20.27.62-14.09-.24-26.8-4.67-37.89-13.49-11.65-9.27-19.78-21.25-26.83-34.15-6.15-11.24-8.91-23.12-8.34-35.92.51-11.56,2.43-22.93,3.99-34.35,1.92-14.05,3.94-28.1,5.41-42.2,1.27-12.19.17-24.42-1.46-36.5-1.15-8.51-3.44-16.87-5.14-25.31-1.3-6.5-2.58-13-3.66-19.54-1.62-9.77-5.27-18.84-9.13-27.87-4.28-10.01-9.15-19.67-15.4-28.64-7.43-10.67-11.92-22.69-15.78-35.01-3.53-11.24-6.95-22.55-11.1-33.56-4.17-11.05-10.49-21.06-16.62-31.16-4.42-7.29-9.8-13.77-14.9-20.51-9.89-13.05-16.58-27.68-21.18-43.32-.37-1.27-.93-2.51-1.15-3.8-.35-2.09-1.07-3.73-3.23-4.59-.78-.31-1.4-1.21-1.94-1.94-13.71-18.65-25.55-38.37-33.83-60.07-2.62-6.86-4.01-14.07-4.11-21.39-.14-9.54,0-19.09.48-28.62.5-10.19,1.32-20.38,2.36-30.53,1.05-10.28,2.46-20.53,3.86-30.77,1.2-8.8,2.54-17.58,3.94-26.34,4.13-25.8,14.37-48.99,30.46-69.51,6.12-7.8,13.04-14.98,19.58-22.44,5.24-5.97,10.53-11.9,15.68-17.95,3.27-3.84,6.32-7.83,11.19-9.91,1.11-.47,2.09-1.67,2.74-2.76,9.32-15.67,22.52-27.3,37.96-36.63,12.16-7.35,24.72-13.93,37.65-19.82,13.05-5.94,26.88-9.01,40.94-11.21,17.45-2.74,34.75-6.2,51.7-11.18,5.84-1.72,11.45-4.17,17.2-6.2,1.45-.51,3.21-1.22,4.53-.84,2.49.73,4.36-.02,6.36-1.2,8.18-4.81,16.81-8.58,26.2-10.17,4.94-.84,10.01-1.31,15.02-1.32,7.66-.02,14.54,2.67,20.65,7.28,5.62,4.24,10.03,4.3,15.51.13C370.51,2.61,377.77.1,385.86,0c11.5-.13,22.33,2.69,32.66,7.59,2.87,1.36,5.66,2.92,8.43,4.48,1.57.89,3.05,1.25,4.91.82,1.31-.3,2.96-.17,4.2.38,16.52,7.29,34.04,11.01,51.6,14.54,10.27,2.07,20.64,3.64,30.94,5.55,11.69,2.16,22.78,6.11,33.46,11.28,13.38,6.47,26.54,13.35,38.94,21.6,12.55,8.34,23.01,18.73,30.91,31.6,1.23,2,2.76,3.38,4.81,4.54,2.15,1.22,4.39,2.72,5.84,4.66,9.73,12.99,21.78,23.9,32.27,36.19,12.65,14.82,23.04,31.09,29.78,49.49,4.07,11.12,6.85,22.62,8.48,34.31,2.88,20.61,5.43,41.27,7.81,61.95.99,8.55,1.21,17.19,1.97,28.79ZM157.59,251.85c.11.25.21.5.32.74,5.39-.77,10.48-2.48,15.3-5.07,1.92-1.03,3.76-1.64,6.06-.98,1.2.34,2.8-.2,4.05-.73,2.56-1.08,5.01-2.41,7.5-3.66.82-.42,1.8-.74,2.38-1.39,3.38-3.77,7.83-5.82,12.31-7.84,10.15-4.57,20.33-9.08,30.47-13.7,2.29-1.04,4.61-2.15,6.6-3.65,4.53-3.44,9.02-6.96,13.25-10.77,6.63-5.98,13.72-11.27,21.51-15.64,9-5.04,18.62-7.61,28.97-7.2,17.92.72,33.43,7.57,47.3,18.58.9.72,1.79,1.46,2.62,2.14.64-.32,1.06-.41,1.32-.67,6.73-6.43,14.76-10.8,23.24-14.32,21.19-8.78,41.7-8.18,60.9,5.32,5.95,4.18,11.59,8.84,17.08,13.61,5.53,4.81,11.1,9.47,17.83,12.52,10.27,4.64,20.56,9.23,30.84,13.85,4.24,1.91,8.43,3.88,11.66,7.41.52.57,1.24,1,1.94,1.35,2.96,1.49,5.91,3.01,8.93,4.35,1.02.45,2.41.83,3.36.49,2.44-.87,4.32.15,6.44.99,4.29,1.71,8.69,3.16,13.07,4.64.73.25,1.59.11,2.38.14-1.05-1.19-2.21-1.77-3.31-2.46-6.72-4.24-13.87-7.95-20.05-12.88-12.12-9.67-23.78-19.92-35.46-30.12-10.49-9.16-20.61-18.73-31.15-27.83-10.99-9.49-23.71-15.94-37.58-20.21-20.79-6.4-42.18-8.03-63.74-7.76-5.42.07-10.82-.09-16.23-.07-9.41.04-18.82.63-28.22,1.23-11.03.71-21.79,3.08-32.42,6.03-17.22,4.78-32.07,13.68-45.31,25.59-17.84,16.05-35.23,32.61-53.89,47.75-8.58,6.97-17.49,13.35-27.3,18.45-1.02.53-2,1.16-2.99,1.74ZM467.52,60.84l.49-1.14c-1.45-1.07-2.86-2.19-4.35-3.2-13.51-9.17-26.55-18.9-38.38-30.22-10.86-10.39-24.45-13.94-39-14.44-6.96-.24-13.2,1.84-18.66,6.54-7.12,6.14-15.31,6.18-22.4.04-6.05-5.23-12.99-7.05-20.63-6.57-14.71.92-28.05,5.26-38.84,15.94-9.45,9.35-19.99,17.39-31.03,24.79-2.75,1.85-5.43,3.8-8.12,5.74-.66.48-1.19,1.15-1.79,1.73.1.26.2.52.31.77,2.85-.25,5.71-.47,8.55-.76,5.67-.57,11.32-1.43,17.04-.54,3.77.59,7.29,1.78,9.87,4.66,1.66,1.84,3.5,2.04,5.73,1.84,4.12-.38,8.32-.5,12.14,1.27,2.94,1.36,4.79.52,7.02-1.47,10.58-9.46,22.96-15.42,37.13-16.55,9.2-.73,18.55-.72,27.75.01,13.89,1.1,25.98,7.01,36.55,16.05.71.6,1.37,1.25,2.06,1.87,1.07.98,2.25,1.31,3.65.68,4.75-2.17,9.76-2.29,14.83-1.8,1.71.16,3.04-.26,4.26-1.55,3.17-3.33,7.24-5.04,11.75-5.09,5.28-.05,10.57.38,15.86.67,2.74.15,5.48.47,8.21.71ZM458.4,33.4c-.1.27-.21.54-.31.81.76.68,1.49,1.4,2.29,2.04,7.32,5.92,14.64,11.83,21.97,17.73,1.96,1.58,4.04,3.03,5.93,4.68,3.96,3.44,8.51,4.95,13.75,5.32,9.77.69,19.05,3.31,27.59,8.28,12.34,7.17,23.85,15.45,33.52,25.98,6.99,7.61,13.71,15.49,20.13,23.59,3.77,4.75,7,10,9.88,15.34,1.39,2.58,2.91,4.15,5.65,4.96,7.88,2.33,14.89,6.32,21.01,11.77,4.55,4.05,8.92,8.31,13.37,12.48.92.86,1.84,1.72,2.76,2.57.25-.14.5-.28.75-.41-.49-2.12-1.02-4.23-1.48-6.36-3.54-16.44-9.28-32.03-17.65-46.66-6.69-11.69-14.12-22.73-24.5-31.55-8.73-7.42-18.25-13.67-28.16-19.35-16.2-9.29-33.09-16.72-51.63-20.2-17.6-3.3-35.1-7.13-52.64-10.71-.74-.15-1.5-.2-2.25-.3ZM76.09,168.39c.32.16.64.32.96.48,1.29-1.28,2.58-2.56,3.86-3.85,10.06-10.12,20.48-19.7,34.8-23.53,1.64-.44,2.56-1.62,3.36-3.12,1.84-3.51,3.54-7.18,5.95-10.28,6.81-8.79,13.76-17.48,20.99-25.92,10.09-11.78,22.27-21.1,35.57-29.02,8.1-4.82,16.78-7.83,26.16-8.84,2.77-.3,5.54-.63,8.28-1.09,1.28-.21,2.66-.53,3.71-1.23,3.08-2.06,6.09-4.24,8.99-6.55,8.19-6.52,16.31-13.12,24.43-19.72.64-.52,1.12-1.24,2.2-2.46-1.7.24-2.59.32-3.46.5-15.97,3.29-31.9,6.79-47.91,9.83-13.36,2.53-26.48,5.79-38.6,12.01-10.13,5.2-20.15,10.68-29.82,16.68-13.18,8.17-24.62,18.35-33.19,31.5-11.61,17.83-20.35,36.85-24.64,57.78-.47,2.29-1.08,4.56-1.62,6.84ZM278.99,120.17c1.81-.2,3.09-.25,4.33-.49,7.93-1.57,15.85-3.19,23.77-4.79,3.12-.63,6.2-1.15,9.44-.38,1.26.3,2.84-.27,4.15-.77,3.46-1.32,6.79-3.02,10.29-4.22,7.6-2.61,15.34-4.15,23.43-2.51,1.51.31,3.19.18,4.73-.11,4.64-.88,9.23-.62,13.83.23,6.44,1.19,12.47,3.52,18.4,6.24,1.5.69,3.37,1.42,4.86,1.11,3.26-.68,6.32-.22,9.44.41,7.92,1.6,15.84,3.23,23.77,4.8,1.19.24,2.42.23,4.49.41-1.13-1.36-1.6-1.94-2.08-2.51-2.85-3.3-5.93-6.44-8.51-9.94-4.32-5.86-8.43-11.87-12.42-17.95-7.42-11.28-17.72-18.78-30.19-23.54-6.58-2.51-13.33-3.27-20.32-2.14-2.19.36-4.55.59-6.7.17-10.15-1.96-19.44.44-28.44,4.94-11.12,5.56-19.49,13.94-25.99,24.44-5.51,8.91-11.55,17.45-19.15,24.77-.35.33-.52.84-1.12,1.83ZM75.25,127.17c-.2-.13-.4-.26-.59-.4-.76.64-1.58,1.21-2.27,1.92-2.94,3.05-5.84,6.15-8.76,9.22-18.24,19.14-31.13,41.52-39.27,66.54-5.89,18.1-8.16,36.97-10.28,55.82-2.6,23.13-1.9,46.32-1.34,69.52.36,14.82,3.95,28.83,10.54,42.08,4.84,9.73,9.79,19.4,14.7,29.09.16.31.52.5,1.33,1.26.16-1.87.3-3.23.4-4.6.36-4.94,1.13-9.81,4.07-13.93,1.42-1.99,1.22-3.53,0-5.4-2.9-4.43-5.7-8.93-8.54-13.4-9.45-14.83-11.99-30.88-8.64-48.02.32-1.65.63-3.59.06-5.05-1.13-2.9-.95-5.71-.5-8.6,1.88-12.31,3.64-24.64,5.74-36.92,1.83-10.68,5.46-20.76,11.69-29.73,1.89-2.71,2.9-5.54,3.34-8.77,1.62-11.92,4.97-23.32,11.15-33.73,1.67-2.81,2.67-5.73,3.04-8.94.23-1.98.51-3.94.74-5.92,1.77-15.34,5.35-30.24,10.74-44.72.91-2.43,1.79-4.88,2.68-7.32ZM637.63,126.5c.36,1.52.47,2.39.77,3.2.99,2.74,2.08,5.45,3.06,8.19,5.47,15.32,8.52,31.15,10.27,47.28.28,2.56,1.04,5.27,2.32,7.48,6.47,11.19,10.3,23.22,11.94,35.98.35,2.7,1.24,5.06,2.81,7.3,4.38,6.23,7.65,13.03,9.67,20.37,4.51,16.42,6.32,33.3,8.4,50.13.17,1.39-.02,2.98-.54,4.28-.86,2.12-.63,4.14-.21,6.23,3.4,17.28.78,33.46-8.89,48.35-2.81,4.33-5.53,8.73-8.28,13.1-.86,1.37-1.72,2.71-.5,4.36,3.63,4.93,4.41,10.68,4.74,16.56.05.8.35,1.58.67,2.95.64-1.01.95-1.42,1.17-1.87,3.8-7.43,7.41-14.96,11.41-22.27,9.09-16.61,13.93-34.27,13.85-53.26-.05-12.06.24-24.12.14-36.18-.06-6.49-.29-13.01-1.03-19.44-1.58-13.81-3.29-27.62-5.43-41.36-1.92-12.32-5.2-24.32-10.02-35.89-10.18-24.47-25.25-45.53-44.19-63.93-.45-.44-1.02-.76-2.13-1.57ZM542.02,735.52c-.86.68-1.25.86-1.44,1.16-4.63,7.25-9.26,14.5-13.81,21.79-.6.97-1.22,2.25-1.09,3.3.54,4.34-1.15,8.08-2.85,11.81-1.6,3.49-3.43,6.88-5.16,10.31-3.54,7.02-4.14,14.73-5.23,22.33-1.53,10.66-4.02,21.06-8,31.1-6.5,16.37-17.26,28.08-34.91,32.44-.98.24-1.88.8-2.86,1.23.29,3.09.56,5.92.81,8.54,6.43-.13,12.51-.24,18.58-.37,1.86-.04,3.71-.08,5.56-.18,14.91-.78,27.52-6.44,37.17-17.98,3.81-4.56,7.41-9.34,10.74-14.26,8.21-12.11,11.85-25.5,11.45-40.19-.32-11.98-2.25-23.72-4.06-35.5-1.58-10.34-2.92-20.71-4.35-31.08-.18-1.29-.33-2.58-.56-4.46ZM170.85,735.22c-.27,2.01-.46,3.26-.6,4.52-.38,3.56-.59,7.14-1.13,10.68-1.45,9.57-2.99,19.13-4.59,28.67-1.95,11.67-3.11,23.39-2.5,35.25.3,5.73,1.15,11.38,3.27,16.72,5.77,14.54,14.32,27.16,26.34,37.3,5.81,4.9,12.52,8.02,19.99,9.27,4.69.79,9.47,1.2,14.22,1.49,4.5.27,9.02.1,13.53.21,1.93.05,3.85.34,5.96.54.24-3.21.45-6.06.68-9.17-2.04-.66-3.9-1.29-5.78-1.86-11.4-3.48-20.41-10.14-26.33-20.51-2.75-4.81-5.1-9.9-7.07-15.08-3.44-9.08-5.6-18.53-6.62-28.19-1.07-10.15-3.54-19.79-8.9-28.6-1.23-2.02-2.13-4.29-2.88-6.54-.7-2.12-1.4-4.37-1.35-6.55.05-2.43-.69-4.27-1.98-6.24-4.14-6.31-8.08-12.74-12.12-19.11-.47-.75-1.08-1.41-2.15-2.79ZM559.86,630.38c-.8.34-1.21.4-1.45.63-6.16,6.02-12.37,11.99-18.41,18.14-1.73,1.76-3.42,3.84-4.34,6.1-3.62,8.92-9.19,16.28-16.39,22.63-4.83,4.27-8.27,9.63-9.83,16.04-.57,2.32-1.24,4.61-1.95,6.88-2.33,7.49-4.92,14.88-9.92,21.1-1.65,2.05-2.01,4.03-1.55,6.6,1.4,7.85,2.38,15.77.66,23.7-.98,4.52-2.3,8.97-3.48,13.45-.33,1.26-.99,2.44.03,3.75,1.51,1.95,2.91,4,4.54,6.27.79-.76,1.59-1.4,2.25-2.17,2.44-2.8,4.9-5.57,7.23-8.46,8.39-10.43,16.97-20.76,22.89-32.86,9.96-20.36,16.02-42.02,20.72-64.11,1.87-8.81,3.83-17.6,5.87-26.37.86-3.68,2.02-7.3,3.14-11.33ZM152.84,630.15c.31,1.32.47,2.04.65,2.76,1.81,7.05,3.88,14.05,5.4,21.17,3.99,18.67,7.93,37.33,14.34,55.37,4.59,12.9,9.55,25.64,17.87,36.66,7.1,9.41,14.59,18.52,21.94,27.74.55.69,1.33,1.18,2.18,1.92,1.09-1.78,1.79-3.59,3.05-4.82,1.94-1.9,1.95-3.77,1.1-6.1-4.05-11.06-5.47-22.39-2.96-34,.9-4.18.58-7.74-2.61-10.92-1.27-1.27-2.21-3.04-2.86-4.74-2.53-6.68-5.02-13.37-7.26-20.15-1.46-4.43-2.81-8.86-5.99-12.42-2.21-2.46-4.38-4.98-6.82-7.2-5.59-5.09-9.87-11.05-12.72-18.03-1.37-3.36-3.31-6.31-5.92-8.85-5.89-5.73-11.73-11.5-17.61-17.24-.34-.34-.82-.54-1.79-1.16ZM258.05,873.61c-2.33,6.57.48,12.23,6.94,13.51,13,2.58,25.91,3.15,38.91-.84,15.41-4.74,31.22-7.3,47.47-5.97,3.29.27,6.64.28,9.93,0,16.25-1.35,32.07,1.2,47.48,5.94,13.01,4,25.89,3.42,38.91.89,5.09-.99,7.25-3.63,7.77-8.7.48-4.65-.22-5.33-4.92-4.84-1.19.12-2.37.28-3.56.37-7.07.55-13.99.08-20.8-2.23-4.75-1.62-9.71-2.64-14.53-4.06-3.93-1.16-7.85-2.37-11.66-3.86-1.49-.58-2.66-.79-4.12-.15-11.71,5.09-23.91,5.36-36.32,3.65-1.95-.27-3.99-.34-5.93-.06-12.68,1.8-25.11,1.52-37.11-3.65-.94-.4-2.3-.21-3.34.1-4.55,1.35-9.04,2.92-13.59,4.28-3.3.99-6.79,1.44-9.96,2.7-8.89,3.53-18.01,4.13-27.37,2.94-1.4-.18-2.85-.02-4.2-.02ZM264.92,71.91l-.17-.94c-.74,0-1.49-.05-2.23,0-14.28,1.18-28.57,2.24-42.92,1.81-3.31-.1-6.63.12-9.95.2-8.43.19-16.17,2.63-23.35,7.02-6.48,3.97-12.58,8.48-17.71,14.07-8.42,9.18-16.62,18.57-24.75,28.01-2.67,3.1-4.85,6.63-7.19,10-.46.66-.66,1.49-1.12,2.58,1.02-.15,1.55-.15,2.03-.32,6.89-2.38,13.77-4.78,20.66-7.17,1.38-.48,2.78-.87,4.15-1.36,1.72-.62,3.46-1.21,5.13-1.97,4.58-2.09,9.03-4.48,13.7-6.32,4.7-1.85,9.68-3.11,14.78-2.44,2.76.36,4.44-.58,6.14-2.58,8.69-10.19,18.88-18.68,30.63-25.05,9.08-4.93,18.56-9.11,27.87-13.62,1.41-.68,2.86-1.3,4.29-1.94ZM448.12,70.86c-.08.34-.16.68-.25,1.02,1.29.59,2.58,1.18,3.87,1.78,7.1,3.3,14.27,6.44,21.27,9.93,13.54,6.75,25.71,15.44,35.71,26.86,2.95,3.36,5.66,5.49,10.41,4.62,2.23-.4,4.79.22,7.04.9,4.31,1.29,8.67,2.62,12.7,4.55,5.24,2.51,10.32,5.24,15.97,6.89,6.73,1.98,13.29,4.55,19.95,6.8.63.21,1.39.03,2.12.03-.06-.5-.02-.79-.14-1-.54-.91-1.09-1.82-1.69-2.69-10.01-14.44-21.74-27.4-34.26-39.66-3.29-3.22-7.14-5.93-10.91-8.62-8.66-6.18-18.29-9.52-29.03-9.39-3.05.04-6.11-.21-9.15-.11-13.03.44-25.99-.63-38.95-1.57-1.56-.11-3.11-.24-4.66-.36ZM520.01,146.72c-.38-.81-.55-1.28-.81-1.69-2.69-4.25-5.54-8.4-8.08-12.74-5.98-10.24-13.73-18.85-23.44-25.61-16.13-11.22-33.94-19.1-52.45-25.41-3.93-1.34-8.33-1.32-12.53-1.78-.93-.1-1.93.41-3.29.73,2.76,5.34,5.34,10.25,7.85,15.19,4.41,8.69,10.45,15.9,18.8,21.1,2.12,1.32,4.47,2.73,5.84,4.7,2.18,3.12,5.14,4.29,8.5,5.2,2.3.62,4.55,1.43,6.8,2.24,11.42,4.11,22.47,8.88,31.21,17.71,1.14,1.15,2.46,1.39,4.01.93,4.94-1.47,9.95-1.35,14.99-.6.72.11,1.47.01,2.59.01ZM192.57,146.94c1.92-.2,3.21-.47,4.49-.43,4.09.11,8.22.01,12.23.63,2.49.38,4.21.19,6.04-1.63,5.03-5.01,10.91-8.9,17.46-11.59,7.23-2.97,14.63-5.49,21.95-8.25,1.34-.51,3.16-.83,3.83-1.85,2.65-4.06,6.73-6.32,10.49-8.98,4.15-2.93,8.18-6.1,10.79-10.44,4.56-7.59,8.69-15.45,12.98-23.2.11-.2.01-.51.01-1.26-1.34-.17-2.71-.48-4.09-.49-4.97-.05-9.76,1.02-14.39,2.73-14.44,5.36-28.48,11.66-41.75,19.5-10.49,6.2-19.75,13.92-26.66,24.06-4.53,6.65-8.61,13.61-13.37,21.19ZM505.89,411.91c.3,1.13.45,2.02.78,2.85,1.13,2.83,2.31,5.64,3.48,8.45,4.94,11.84,7.26,24.05,5.41,36.89-.69,4.76-1.78,9.4-4.35,13.52-4.73,7.58-10.87,13.65-19.19,17.26-2.67,1.16-5.33,2.37-8.04,3.44-7.99,3.15-10.16,10.85-14.12,17.06.45.48.53.64.63.65,2.23.24,4.46.43,6.68.71,12.22,1.54,23.74-1.12,34.82-6.01,6.75-2.97,11.86-7.83,15.45-14.33,3.7-6.69,5.87-13.9,7.26-21.34,2.36-12.64,1.93-25.33-.04-37.97-.84-5.38-2.61-10.52-5.16-15.37-1.07-2.03-2.49-3.17-4.9-3.45-5.52-.64-11.02-1.56-16.52-2.34-.61-.09-1.25-.01-2.18-.01ZM243.43,512.3c-2.13-3.78-3.76-6.49-5.21-9.29-1.83-3.55-4.5-6.23-8.06-7.96-3.1-1.5-6.31-2.77-9.44-4.22-10.05-4.67-17.7-11.9-21.48-22.34-3.64-10.07-3.74-20.68-1.09-30.99,1.97-7.66,5.16-15,7.8-22.49.33-.93.6-1.89,1.02-3.25-1.26.11-2.02.14-2.77.25-5.12.74-10.22,1.67-15.36,2.16-2.87.27-4.61,1.48-5.85,3.97-2.87,5.76-4.6,11.83-5.39,18.21-1.96,15.84-1.59,31.48,3.6,46.78,3.9,11.49,10.59,20.36,22.3,24.84,7.12,2.72,14.44,4.7,22.02,5.04,5.62.25,11.28-.42,17.9-.72ZM364.24,210.58c.68.55.86.83,1.07.85,11.1,1.26,21.48,4.56,30.86,10.78.7.46,2.22.53,2.87.07,5.82-3.99,12.09-3.44,18.39-1.88,8.3,2.05,16.02,5.49,23.17,10.21,1.31.87,2.7,1.68,4.15,2.27,2.31.94,4.69,1.72,7.07,2.48,2.77.88,5.53,1.93,8.37,2.42,8.67,1.5,17.42,1.5,26.17.78.86-.07,1.7-.34,3.4-.7-1.52-.96-2.3-1.59-3.18-1.97-3.04-1.31-6.08-2.64-9.2-3.76-10.4-3.75-19.34-9.68-27.38-17.23-4.91-4.61-10.25-8.8-15.68-12.81-5.81-4.29-12.32-7.3-19.56-8.39-18.19-2.73-34.03,2.62-48.01,14.18-.89.73-1.6,1.69-2.54,2.7ZM222.58,237.87c1.82.36,2.66.63,3.52.68,3.84.19,7.69.5,11.53.44,9.18-.15,18.33-.6,26.66-5.2.46-.25.99-.47,1.5-.49,2.66-.12,4.69-1.55,6.83-2.94,7.73-5.05,16.1-8.69,25.19-10.47,5.44-1.07,10.86-1.15,15.66,2.34,1.72,1.25,2.99.21,4.31-.65,8.5-5.54,17.85-8.63,27.88-9.85.86-.1,1.69-.36,3.23-.71-1.27-1.38-1.99-2.48-2.99-3.19-3.66-2.61-7.2-5.51-11.17-7.55-20.52-10.55-40.5-10.5-59.36,3.95-4.83,3.7-9.45,7.71-13.92,11.86-7.29,6.77-15.43,12.06-24.77,15.53-3.48,1.29-6.9,2.75-10.32,4.2-1.02.43-1.96,1.06-3.78,2.07ZM379.25,399.79c-2.97.17-6.02.18-9.03.56-2.87.36-6.03-1.25-8.79,1.1.28.76.5,1.38.74,1.98,4.14,10.41,6.93,21.17,7.72,32.36.96,13.62,1.86,27.24,2.36,40.88.62,16.97,6.68,32,15.5,46.15,5.33,8.55,13.29,12.2,23.16,12.1.82,0,1.64-.32,3.11-.63-1.55-1.4-2.6-2.36-3.66-3.3-6.36-5.65-11.12-12.42-14.07-20.41-1.47-3.98-2.67-8.05-4.14-12.02-5.84-15.72-7.68-31.87-5.52-48.49.41-3.15.77-6.32,1.37-9.44,1.58-8.3.92-16.33-2.27-24.18-2.18-5.37-4.21-10.8-6.48-16.66ZM298.91,533.67l.49.93c.5.11,1,.3,1.51.31,10.15.31,18.47-3.13,24.03-11.96,8.96-14.23,15.05-29.4,15.64-46.49.41-12.05,1.13-24.09,1.88-36.13.52-8.34,1.63-16.62,4.09-24.65,1.47-4.79,3.02-9.56,4.61-14.57-2.79-1.81-5.92-.46-8.84-.79-3.11-.35-6.27-.36-8.91-.49-1.81,4.67-3.58,8.79-5.02,13.03-1.53,4.5-2.99,9.05-4.04,13.68-1.33,5.83.19,11.6,1.09,17.35,2.21,14.14,2.66,28.28-1.01,42.23-1.99,7.55-4.61,14.93-7.08,22.35-3.17,9.54-8.71,17.5-16.51,23.88-.6.49-1.29.89-1.93,1.33ZM658.18,312.16c.51-.68.62-.77.64-.88.08-.38.2-.78.18-1.16-.92-14.46-3.76-28.34-11.97-40.67-9.09-13.65-21.3-23.83-35.35-31.96-8.2-4.75-16.86-8.36-26.3-9.81-1.45-.22-2.97-.03-4.48-.03,0,.83-.1,1.25.02,1.59.29.88.68,1.72,1.03,2.58,4.31,10.69,11.16,19.82,17.87,29.03.87,1.19,2.44,1.94,3.81,2.67,3.15,1.69,6.51,3.02,9.53,4.91,8.97,5.59,16.78,12.49,22.82,21.26,1.08,1.58,2.17,2.98,4.36,2.98,3.27,0,5.94,1.59,7.99,3.9,2.18,2.46,4.1,5.18,5.87,7.95,1.47,2.3,2.56,4.85,3.99,7.65ZM53.97,311.65c.29.06.57.13.86.19.8-1.63,1.48-3.34,2.43-4.87,2.02-3.25,4.03-6.54,6.36-9.56,1.79-2.33,4.25-4.38,7.25-4.5,3.44-.13,5.09-2.08,6.9-4.51,7.97-10.76,18.02-19.01,30.34-24.35,2.67-1.16,4.82-2.63,6.33-5.12.82-1.36,1.83-2.6,2.77-3.88,5.49-7.51,10.44-15.33,13.97-23.97.42-1.03.66-2.13,1.14-3.73-1.92.1-3.25,0-4.49.27-3.5.75-7.04,1.41-10.42,2.54-14.58,4.88-27.06,13.24-38.34,23.55-16.27,14.87-24.11,33.52-25.22,55.27-.05.89.09,1.79.13,2.68ZM166.45,260.83c-1.74.26-2.76.37-3.75.56-5.87,1.08-11.74,2.11-17.59,3.27-6.89,1.37-13.83,2.53-20.6,4.34-16.34,4.37-29.58,13.43-39.35,27.3-1.81,2.57-3.38,5.43-4.46,8.37-3.33,9.04-2.82,18.21-.18,27.34.23.8.64,1.55,1.2,2.87,1.01-1.66,1.69-2.75,2.34-3.85,14.01-23.73,33.27-40.63,60.76-46.93,1.35-.31,2.75-1.01,3.8-1.92,2.6-2.25,5.03-4.69,7.47-7.12,4.05-4.02,7.11-8.75,10.37-14.21ZM630.63,334.31c.6-.25.8-.27.83-.35,3.46-9.07,3.88-18.33,1.24-27.64-2.16-7.62-7.22-13.44-12.58-19.01-10.49-10.89-23.64-16.88-38.15-19.99-11.39-2.44-22.9-4.32-34.35-6.42-.21-.04-.47.17-.92.34.25.58.43,1.18.75,1.71,4.47,7.64,10.73,13.73,17.17,19.64.9.83,2.32,1.16,3.55,1.54,4.3,1.34,8.75,2.26,12.9,3.95,20.94,8.52,36.3,23.36,47.58,42.69.7,1.19,1.35,2.41,1.98,3.54ZM300.82,588.65c-.04.34-.07.68-.11,1.02,6.67,3.17,13.27,6.52,20.06,9.43,3.75,1.6,7.79,2.61,11.77,3.54,1.55.37,3.45.15,4.98-.4,4-1.44,8.03-1.84,12.13-.88,4.49,1.05,8.91,1.07,13.39.01,3.82-.9,7.69-.89,11.34.7,2.33,1.02,4.58,1.1,6.96.44,1.66-.46,3.35-.83,5-1.31,8.86-2.58,16.71-7.39,24.93-11.36.26-.12.36-.58.8-1.37-4.02-.8-7.75-1.64-11.5-2.29-13.9-2.41-27.64-5.31-39.76-13.12-3.5-2.25-6.82-1.36-10.07.65-9.04,5.58-18.91,8.88-29.35,10.66-5.49.94-10.94,2.1-16.4,3.2-1.4.28-2.78.71-4.16,1.07ZM288.66,857.55c-.66-.62-.82-.89-1.04-.96-1.01-.3-2.04-.58-3.07-.82-9.45-2.16-17.5-6.85-24.3-13.66-1.84-1.84-3.7-3.99-4.61-6.36-1.03-2.68-2.68-3.86-5.16-4.9-11.14-4.66-20.76-11.32-26.64-22.23-3.93-7.28-9.29-13.52-13.97-20.25-.31-.45-.91-.7-1.83-1.37.08,1.38.06,2.15.17,2.91.55,3.67,1.12,7.34,1.71,11,1.66,10.34,3,20.75,6.29,30.75,4.45,13.54,12.76,23.45,26.81,27.64,9.86,2.94,20.01,4.06,30.28,3.95,5.62-.06,10.3-2.9,15.36-5.72ZM424.56,856.79c0,.31,0,.62,0,.92,5.11,3.02,10.34,6.06,16.56,5.56,8.04-.65,16.14-1.32,24.05-2.83,16.6-3.17,26.68-13.72,31.61-29.56,4.19-13.48,5.41-27.53,7.82-41.35.11-.62-.23-1.31-.36-1.97l-.8-.24c-4.43,6.4-9.11,12.63-13.21,19.24-3.24,5.22-6.6,10.2-11.29,14.24-5.19,4.46-11.05,7.75-17.33,10.35-1.59.66-3.24,1.11-3.77,3.13-.87,3.33-3.12,5.78-5.52,8.11-6.82,6.59-14.73,11.21-24.02,13.37-1.25.29-2.48.68-3.72,1.03ZM59.97,218.84c5.8-1.94,11.07-3.6,16.26-5.51,1.14-.42,2.14-1.56,2.89-2.6,6.18-8.55,13.77-15.71,21.84-22.42,7.99-6.64,16.73-12.12,26-16.75,2.2-1.1,3.42-2.37,3.69-5.03.26-2.57,1.05-5.28,2.36-7.5,2.67-4.54,5.83-8.8,8.82-13.15.71-1.04,1.57-1.98,2.86-3.6-1.3.27-1.82.28-2.24.48-7.32,3.57-15.14,5.59-22.97,7.62-9.16,2.38-17.12,6.92-24.08,13.34-11.61,10.69-20.49,23.53-29.02,36.64-1.58,2.42-2.87,5.09-3.92,7.78-1.27,3.28-2.61,6.61-2.49,10.67ZM568.98,142.47c-.13.18-.26.36-.39.54,1.06,1.29,2.14,2.57,3.19,3.87,5.11,6.34,9.89,12.81,10.67,21.34.08.86.99,1.8,1.75,2.39,1.04.79,2.32,1.26,3.49,1.88,18.06,9.53,33.67,21.99,46.08,38.33,1.04,1.36,2.79,2.39,4.43,3.05,4.05,1.64,8.21,2.98,12.33,4.42.59.2,1.22.26,2.37.49-.22-1.74-.15-3.22-.63-4.5-1.62-4.32-2.93-8.88-5.28-12.79-6.75-11.26-14.55-21.8-23.36-31.57-9.5-10.53-20.87-17.73-34.9-20.84-5.78-1.28-11.29-3.75-16.93-5.67-.94-.32-1.89-.63-2.84-.95ZM303.85,247.18c1.24-.11,2.47-.21,3.71-.32,8.45-.72,16.9-1.52,25.36-2.12,5.21-.37,10.21.58,15.18,2.42,5.01,1.86,10.37.73,15.59.5.13,0,.25-.08.37-.14,5.67-2.78,11.72-3.2,17.87-2.71,8.19.65,16.37,1.46,24.56,2.18.83.07,1.67,0,3.18,0-.86-1.08-1.18-1.63-1.63-2.03-4.22-3.63-8.33-7.38-12.72-10.8-8.09-6.3-17.27-10.35-27.42-11.91-2.54-.39-5.22.17-7.84.24-2.34.07-4.78.46-7.02,0-2.93-.62-5.76-.91-8.64-.21-3.47.85-6.97,1.66-10.34,2.81-11.99,4.1-21.25,12.23-30.19,20.78-.13.12-.02.49-.02,1.28ZM202.2,158.76c-3.92-.92-7.03-.17-10.02.72-9.4,2.8-18.92,5.33-28.08,8.79-16.39,6.2-32.01,14.14-47.39,22.5-7.78,4.22-14,10.43-19.95,16.89-.48.52-.68,1.28-1.4,2.69,5.26-.75,9.83-1.29,14.37-2.06,11.33-1.93,22.29-6.09,34.04-5.67,1.22.04,2.8-.96,3.69-1.94,7.64-8.43,17.3-13.4,27.95-16.81,1.84-.59,3.83-1.42,5.18-2.73,6.56-6.37,12.93-12.93,19.34-19.45.72-.73,1.27-1.62,2.27-2.92ZM320.9,542.07c4.69,3.9,12.92,5.31,17.9,2.62,6.63-3.57,11.26-8.71,11.65-16.77.14-2.76.64-5.53,1.21-8.24.54-2.54,1.59-3.24,4.17-3.39,3.31-.19,4.69.7,5.33,3.95.59,2.98.92,6.02,1.28,9.04,1.36,11.4,12.3,18.85,23.35,15.84,2.22-.6,4.47-1.22,6.36-3.14-.76-.6-1.24-1.04-1.78-1.38-4.57-2.86-8.23-6.66-11.43-10.93-4.32-5.75-7.77-12-10.52-18.64-4.29-10.33-7.97-20.82-8.49-32.12-.73-15.89-1.29-31.79-1.95-47.68-.11-2.51-.33-5.02-.6-7.52-.08-.69-.52-1.34-.8-2.01-.3.02-.59.03-.89.05-.28,2.69-.71,5.37-.82,8.07-.55,13.64-1.23,27.28-1.46,40.93-.25,14.85-3.74,28.87-9.9,42.27-5.09,11.08-11.24,21.37-21.92,28.12-.3.19-.46.61-.69.92ZM511.46,158.1c-.19.39-.37.79-.56,1.18.81.98,1.55,2.03,2.44,2.93,5.76,5.86,11.59,11.65,17.31,17.55,2,2.06,4.22,3.44,7,4.28,10.57,3.2,20.13,8.2,27.55,16.63,1.47,1.67,3.24,2.16,5.31,2.15,7.89-.07,15.49,1.55,23.12,3.44,6.67,1.66,13.55,2.48,20.34,3.62.94.16,1.94.02,3.61.02-1.08-1.44-1.62-2.3-2.3-3.04-7.65-8.44-16.46-15.34-26.77-20.27-8.73-4.18-17.43-8.4-26.14-12.63-13.56-6.57-27.98-10.65-42.42-14.63-2.73-.75-5.65-.83-8.49-1.22ZM412.56,143.19c-.87-1.31-1.1-1.79-1.44-2.14-1.02-1.04-2.01-2.14-3.15-3.03-7.87-6.17-16.35-11.33-25.72-14.9-6.58-2.51-13.36-2.94-20.37-2.04-3.76.48-7.64.03-11.47,0-3.96-.03-8.05-.67-11.87.05-14.09,2.66-25.78,10.09-36.39,19.4-.6.52-.88,1.41-1.37,2.21.61.17.87.32,1.11.3.92-.09,1.84-.24,2.75-.37,12.49-1.86,25.06-3.65,37.64-1.86,9.4,1.34,18.53,1.42,27.94.03,12.7-1.87,25.41-.05,38.03,1.86,1.14.17,2.29.27,4.29.5ZM297.93,128.61c-.14-.28-.28-.55-.43-.83-2.25.46-4.5.9-6.74,1.38-15.82,3.39-31.53,7.11-46.79,12.6-10.87,3.91-20.04,10.03-27.52,18.85-4.88,5.75-10.13,11.18-15.2,16.78-.48.53-.83,1.2-1.49,2.19,1.24.07,2.01.26,2.72.13,4.95-.88,9.88-1.87,14.84-2.74,2.98-.53,6.02-.79,8.98-1.39,1.75-.35,3.74-.73,5.06-1.8,12.13-9.74,25.78-16.63,40.24-22.12,1.58-.6,3.23-1.38,4.47-2.5,5.91-5.31,11.69-10.75,17.5-16.18,1.51-1.41,2.92-2.92,4.37-4.38ZM414.45,127.97c1.36,1.49,2.08,2.4,2.92,3.18,5.89,5.52,11.74,11.1,17.77,16.47,1.93,1.72,4.21,3.26,6.6,4.2,14.14,5.55,27.65,12.17,39.46,21.87,1.61,1.33,3.37,1.84,5.46,1.98,2.88.18,5.75.71,8.61,1.22,5.08.9,10.14,1.93,15.22,2.84.68.12,1.43-.11,2.51-.22-.45-.79-.62-1.28-.94-1.63-5.79-6.37-11.66-12.66-17.39-19.08-6.48-7.27-14.19-12.68-23.35-16.01-2.62-.95-5.22-1.93-7.84-2.85-15.18-5.32-30.94-8.38-46.56-11.95-.48-.11-1.01-.01-2.46-.01ZM541.65,631.72c1.34-1.26,2.35-2.1,3.23-3.05,6.11-6.61,12.31-13.15,18.27-19.9,11.33-12.84,19.92-27.39,26.1-43.32,4.35-11.23,8.24-22.63,12.41-33.93,1.35-3.67,2.93-7.25,4.4-10.87-1.35.61-2.17,1.55-2.94,2.54-3.09,3.97-5.99,8.11-9.3,11.88-2.85,3.24-5.03,6.72-6.49,10.78-2.73,7.59-7.05,14.21-12.86,19.83-2.95,2.85-5.91,5.71-8.85,8.57-6.67,6.49-12.75,13.44-17.28,21.66-1.33,2.42-3.29,4.48-4.75,6.84-.87,1.4-1.84,3.03-1.92,4.6-.37,7.54-.45,15.09-.61,22.64,0,.35.22.7.58,1.73ZM107.21,520.28c-.17.11-.35.22-.52.33.2.57.37,1.15.59,1.71,1.9,4.8,3.85,9.58,5.69,14.4,4.78,12.49,9.05,25.19,14.36,37.45,9.6,22.18,25.77,39.59,42.55,56.46.31.31.85.4,1.39.63.2-.62.41-.98.4-1.34-.16-7.55-.28-15.1-.59-22.64-.06-1.35-.75-2.79-1.5-3.96-2.14-3.34-4.4-6.6-6.72-9.81-3.1-4.28-6.06-8.69-9.52-12.66-3.73-4.28-7.81-8.3-12.03-12.12-7.83-7.1-13.46-15.57-17.07-25.47-.75-2.06-2.03-4-3.36-5.76-3.67-4.85-7.49-9.59-11.27-14.36-.77-.98-1.61-1.9-2.41-2.85ZM196.49,616.17c.4-1.33.72-2.3.99-3.28,4.6-16.64,16.89-23.95,33.61-19.98.77.18,1.53.43,2.29.67,8.32,2.64,15.73,6.9,22.46,12.43,1.19.97,2.58,2.06,4.01,2.31,10.67,1.88,21.33,1.73,32-.27,5.46-1.03,10.97-1.76,16.45-2.66.81-.13,1.59-.42,3-.8-4.91-3.39-9.25-6.5-14.42-7.78-5.25-1.3-10.66-1.93-16-2.85-2.33-.4-4.67-.81-7-1.23-1.78-.32-3.55-.84-5.34-.97-4.34-.3-8.71-.37-13.05-.62-8.19-.49-16.37-1.13-24.57-1.54-7.94-.39-15.89-.44-23.82-.88-9.88-.55-18.89-3.86-27.16-9.23-.81-.53-1.71-.91-2.59-1.38-.19.44-.31.59-.27.67,3.34,8.1,5.56,16.53,7.71,25,1.52,6.01,5.97,9.67,11.73,12.4ZM516.3,616.19c6.34-3.15,10.48-7.43,12.23-14.11,1.84-7.02,4.19-13.92,6.31-20.87.28-.93.52-1.88.98-3.55-1.78,1.09-2.89,1.75-3.99,2.44-7.19,4.49-14.92,7.64-23.39,8.31-8.58.68-17.2.79-25.8,1.18-6.61.3-13.24.46-19.83,1.02-6.59.56-13.13,1.79-19.79,1.09-.89-.09-1.98-.08-2.7.34-3.01,1.78-6.35,1.75-9.64,1.97-9.84.68-19.06,3.19-27.15,9.07-.55.4-.97.97-1.84,1.86,1.61.22,2.63.35,3.64.51,4.45.66,8.99.97,13.33,2.07,9.41,2.38,18.92,2.25,28.46,1.75,4.38-.23,8.25-1.59,11.82-4.69,6.14-5.33,13.41-8.98,21.27-11.28,15.4-4.52,27.84,1.11,33.53,15.19.94,2.32,1.59,4.75,2.56,7.69ZM118.61,515.65c1.35-4.14,1.16-7.25-1.72-10.29-2.71-2.86-4.82-6.3-7.15-9.52-6.28-8.69-12.24-17.63-18.89-26.02-6.99-8.83-12.55-18.37-16.35-28.89-2.83-7.84-5.51-15.68-9.52-23.06-3.85-7.08-7.15-14.47-10.73-21.7-.36-.72-1-1.3-1.69-2.18-.49.84-.85,1.25-.99,1.73-1.68,5.53-2.4,11.2-1.4,16.88.92,5.2,2.1,10.39,3.66,15.43,6.18,19.87,15.61,37.9,30.37,52.89,10.97,11.14,21.83,22.39,32.75,33.57.35.36.83.59,1.66,1.16ZM660.71,394.25c-.4.02-.8.05-1.19.07-.76,1.37-1.59,2.71-2.28,4.11-4.3,8.67-8.61,17.33-12.82,26.04-1.32,2.73-2.51,5.55-3.4,8.45-4.29,13.96-10.46,26.89-20.12,38.03-2.42,2.79-4.43,5.95-6.61,8.96-6.29,8.7-12.38,17.56-18.96,26.04-2.53,3.25-2.22,6.03-1.04,9.71.93-.77,1.57-1.21,2.1-1.75,8.99-9.19,17.97-18.4,26.95-27.6,7.23-7.4,14.22-15.01,19.88-23.73,7.93-12.24,13.12-25.69,17.27-39.57,2.22-7.43,3.28-15.04,1.78-22.78-.39-2.01-1.03-3.98-1.56-5.96ZM309.46,545.4c-2.24-.22-3.49-.39-4.75-.45-7.19-.32-14.3-.87-20.55-5.06-.73-.49-1.73-.67-2.63-.82-5.94-.99-10.97-3.9-15.52-7.61-2.38-1.94-4.41-4.09-7.91-3.44-.8.15-1.77-.46-2.63-.79-5.42-2.09-11.02-2.64-16.79-2.31-4.62.27-9.25.21-13.88.34-.56.02-1.1.3-2.35.66,7.66,7.04,14.69,13.85,22.12,20.19,4.2,3.59,8.92,6.66,13.67,9.52,14.65,8.81,34.02,6.69,48.39-6.63.84-.77,1.43-1.8,2.83-3.59ZM404.36,545.23c-.17.38-.35.76-.52,1.14,1.33,1.38,2.58,2.87,4.03,4.12,1.5,1.29,3.13,2.45,4.81,3.5,12.86,8.04,26.24,9.48,40,2.57,4.12-2.07,8.19-4.5,11.67-7.48,8.45-7.21,16.54-14.83,24.76-22.3.25-.22.29-.66.54-1.24-.63-.13-1.1-.29-1.57-.3-4.49-.1-9-.01-13.48-.3-6.04-.38-11.89.21-17.58,2.33-1.33.5-2.85.95-4.22.8-1.86-.2-2.96.62-4.15,1.76-3.57,3.44-7.67,6.22-12.34,7.79-4.37,1.47-8.62,3.25-12.95,4.75-4.67,1.61-9.83,1.79-14.79,2.54-1.38.21-2.8.22-4.2.32ZM153.41,451.82c0,2.04-.02,3.19,0,4.34.17,6.88.43,13.77.49,20.65.07,7.88,1.29,15.56,3.44,23.11,5.9,20.76,21.06,31.66,39.69,33.89,6.65.79,13.36,1.04,20.17,1.55-.24-.39-.48-1-.9-1.42-6.28-6.09-12.66-12.13-20.37-16.39-11.39-6.29-18.58-15.84-22.8-27.92-.74-2.1-1.46-4.34-2.75-6.1-5.22-7.13-9.02-14.89-11.62-23.33-.87-2.83-2.03-5.71-5.35-8.38ZM559.53,452.78c-.3-.12-.6-.25-.89-.37-.53.51-1.23.93-1.55,1.55-1.21,2.34-2.52,4.67-3.39,7.15-2.33,6.64-4.74,13.22-9.08,18.88-2.36,3.08-3.94,6.5-5.23,10.17-4.08,11.64-11.04,20.99-22.05,27.08-7.84,4.33-14.35,10.39-20.74,16.57-.47.45-.66,1.18-.84,1.53,6.05-.43,11.97-.77,17.87-1.3,15.58-1.39,28.14-7.99,36.43-21.6,3.54-5.82,5.51-12.29,6.98-18.92,2.99-13.46,1.18-27.17,2.49-40.72ZM229.47,481.29c.22-.43.43-.66.44-.89.01-.66-.04-1.32-.11-1.97-1.79-16.56-1.45-33.02,1.73-49.43,1.76-9.09,3.01-18.28,4.46-27.44.13-.83.02-1.69.02-2.84-.95.29-1.48.36-1.92.59-3.85,2.07-7.74,4.07-11.5,6.3-1.18.7-2.23,1.87-2.95,3.05-4.32,7.05-7.12,14.78-9.64,22.6-3.21,9.99-4.61,20.18-1.86,30.51.73,2.75,1.98,5.55,3.68,7.81,3.99,5.27,9.26,9.04,15.48,11.39.69.26,1.48.23,2.16.33ZM483,481.36c.9-.12,1.7-.08,2.38-.34,6.2-2.38,11.48-6.12,15.51-11.36,1.58-2.05,2.82-4.54,3.54-7.02,1.74-6.04,2.12-12.28,1.19-18.51-1.89-12.72-6.43-24.54-12.66-35.72-.61-1.1-1.62-2.14-2.71-2.77-3.9-2.25-7.89-4.33-11.88-6.43-.39-.21-.95-.1-1.64-.15,0,.99-.1,1.78.02,2.53,1,6.55,1.75,13.15,3.11,19.62,4.05,19.34,5.73,38.76,2.95,58.43-.07.49.1,1.01.19,1.74ZM134.26,251.45c.68-.3,1.28-.47,1.78-.79,9.42-6.18,18.85-12.35,28.23-18.6,16.38-10.92,31.72-23.08,44.89-37.81.82-.92,1.59-1.9,2.38-2.84-.15-.26-.3-.51-.45-.77-1.26.11-2.55.11-3.78.35-6.9,1.35-13.85,2.51-20.65,4.24-6.28,1.6-12.48,3.6-18.55,5.87-5.97,2.24-10.73,6.31-14.32,11.59-2.08,3.06-4.07,6.22-5.73,9.52-4.7,9.35-9.21,18.79-13.78,28.2-.09.2-.01.48-.01,1.04ZM578.6,251.29c-.36-1.06-.47-1.56-.69-2.01-4.11-8.45-8.54-16.76-12.28-25.37-6.2-14.31-16.62-23.34-31.81-26.79-9.56-2.17-19.16-4.18-28.76-6.2-1.07-.22-2.22-.03-3.9-.03.71,1.09,1.04,1.78,1.53,2.31,7.76,8.36,15.81,16.4,24.77,23.52,15.69,12.49,32.77,22.95,49.43,34.02.31.21.73.24,1.7.54ZM461.7,248.91c2.18,1.25,3.86,2.22,5.55,3.17,10.98,6.14,21.86,12.43,31.34,20.85,1.6,1.42,3.85,2.38,5.96,2.88,13.31,3.17,26.86,4.62,40.5,5.41.81.05,1.64-.26,3.11-.51-3.95-5.23-7.24-10.2-11.15-14.63-8.02-9.07-18.15-14.52-30.3-15.67-5.65-.54-11.37-.89-17.04-.68-9.01.33-17.99.96-26.85-1.39-.09-.03-.23.11-1.12.57ZM164.6,281.05c1.71.12,2.36.23,3,.2,11.91-.71,23.73-2.04,35.48-4.21,5.62-1.04,10.59-2.88,14.72-7.04,2.21-2.23,4.91-4.05,7.6-5.72,6.97-4.33,14.05-8.47,21.08-12.69,1.42-.85,2.83-1.73,4.43-2.7-.56-.37-.67-.51-.77-.5-.52.03-1.05.03-1.55.16-6.75,1.76-13.59,1.66-20.51,1.43-7.26-.24-14.56-.07-21.8.45-8.64.62-16.42,3.86-23.38,9.08-5.37,4.02-9.64,9.02-13.36,14.54-1.45,2.14-2.96,4.23-4.92,7.02ZM138.43,381.86c-1.06,0-1.46-.07-1.82.01-6.32,1.41-12.65,2.82-18.95,4.3-.99.23-2.22.58-2.79,1.31-3.33,4.25-7.17,8.28-8.39,13.77-2.18,9.84-.74,18.8,7.36,25.64,4.94,4.17,10.08,8.13,15.34,11.9,4.54,3.25,9.05,6.45,12.46,10.96.41.55,1.11.88,2.18,1.7-.2-2.33-.47-4.02-.47-5.71.01-3.35-1.12-6.07-3.43-8.56-3.19-3.44-5.3-7.57-6.49-12.13-2.87-10.93-2.19-21.77,1.03-32.49,1.05-3.5,2.54-6.87,3.98-10.7ZM569.06,451.04c.82-.25,1.17-.25,1.29-.41,4.6-6.2,10.94-10.3,17.28-14.45,5.46-3.57,10.4-7.77,14.57-12.82,2.41-2.91,4.08-6.12,4.58-9.96,1.03-7.96-.16-15.31-5.48-21.65-.85-1.01-1.67-2.07-2.39-3.17-1.03-1.57-2.5-2.17-4.28-2.55-5.83-1.23-11.63-2.61-17.44-3.89-.8-.18-1.65-.11-2.88-.19.57,1.44.91,2.42,1.33,3.36,4.76,10.53,6.3,21.58,5.11,33-.7,6.71-2.65,13.18-7.36,18.12-4.05,4.25-4.05,9.16-4.31,14.61ZM483.65,577.55c1.65.4,2.37.74,3.08.72,7.54-.19,15.11-.12,22.61-.77,7.79-.68,14.97-3.56,21.14-8.43,14.29-11.29,25.04-25.35,32.39-42.01.39-.89.46-1.92.89-3.84-6.17,2.72-11.7,4.57-16.5,8.26-4.28,3.3-8.77,6.39-13.46,9.06-3,1.71-6.19,2.76-7.67,6.35-.57,1.38-2.06,2.38-3.16,3.53-9.8,10.29-21.33,18.17-34.05,24.4-1.5.74-2.97,1.53-5.28,2.72ZM149.85,523.62c-.24.21-.48.43-.72.64.36,1.19.59,2.44,1.09,3.57,7.25,16.12,17.76,29.77,31.51,40.86,5.67,4.57,12.28,7.33,19.49,8.51,8.29,1.35,16.64,1.49,25,1.06.58-.03,1.15-.37,2.56-.84-2.18-1.14-3.66-1.94-5.16-2.68-12.6-6.2-24.05-14.01-33.74-24.24-1.72-1.81-3.09-3.94-4.7-5.86-.74-.88-1.55-1.94-2.55-2.33-6.77-2.67-12.47-6.92-18.07-11.44-4.35-3.51-9.67-5.13-14.71-7.25ZM301.84,567.65c5.98,2.81,12.06,3.66,18.34,3.31,7.15-.4,13.84-2.37,19.97-6.11,4.77-2.91,9.85-4.54,15.51-4,1.05.1,2.12.05,3.18,0,4.1-.25,7.88.8,11.46,2.74,1.63.88,3.25,1.79,4.91,2.64,10.97,5.61,22.33,6.18,33.99,2.57.64-.2,1.18-.73,2.24-1.43-7.31-3.79-12.42-9.31-17.47-15.23-6.36,3.1-12.94,5.02-20.02,3.81-7.1-1.21-12.25-5.91-17.59-10.58-5.35,4.78-10.54,9.41-17.66,10.6-7.07,1.18-13.64-.79-20.01-3.85-4.94,6.06-10.13,11.48-16.84,15.55ZM114.65,480.88c-.2-1.52-.29-2.65-.51-3.77-.74-3.76-1.7-7.49-2.24-11.28-1.01-7.02-.76-14.01,1.58-20.79,1.16-3.35,1.1-3.2-1.32-5.65-6.66-6.76-13.44-13.4-19.14-21.08-3.93-5.29-8.59-10.04-12.97-14.99-.53-.6-1.37-.92-2.14-1.42-1.15,3.44-1.27,6.83-.72,12.04,1.05,9.93,4.22,19.23,9.6,27.51,8.51,13.08,17.61,25.78,26.49,38.62.19.27.62.37,1.38.8ZM634.87,401.24c-2.05,2.03-3.51,3.52-5.01,4.96-7.65,7.38-12.67,16.97-20.58,24.15-3.32,3.02-6.19,6.54-9.42,9.66-1.33,1.29-1.78,2.37-1.02,4.14,2.01,4.71,2.88,9.73,2.45,14.78-.49,5.79-1.59,11.53-2.43,17.28-.21,1.43-1.06,2.85-.23,4.85,1.12-1.43,1.96-2.42,2.72-3.47,3.09-4.31,6.22-8.58,9.2-12.96,5.36-7.88,10.9-15.66,15.84-23.81,5.41-8.94,8.73-18.71,9.34-29.26.18-3.16.4-6.32-.86-10.33ZM672.18,289.5c-.07-1.21-.05-1.99-.18-2.76-1.29-7.84-2.45-15.7-3.95-23.5-1.08-5.6-3.07-10.94-5.82-15.98-7.09-12.99-17.09-21.73-32.55-22.91-8.05-.62-16.08-1.6-24.12-2.4-.19-.02-.4.24-1.13.7,1.42.81,2.63,1.48,3.81,2.19,7.59,4.58,15.5,8.71,22.7,13.86,16.8,12.01,30.63,26.52,36.56,47.07.59,2.03,1.89,3.4,4.68,3.73ZM108.17,222.82c-.09-.24-.17-.48-.26-.73-.59-.03-1.18-.14-1.76-.09-5.01.46-10.05.79-15.03,1.47-5.9.8-11.79,1.74-17.62,2.96-4.47.94-8.43,3.15-11.75,6.36-7.68,7.43-13.55,16.08-15.94,26.55-2.15,9.41-3.51,19-5.18,28.52-.08.45.16.95.27,1.5,2.51-.14,3.69-1.59,4.38-3.58.56-1.63,1.01-3.29,1.6-4.91,4.28-11.84,11.66-21.59,20.55-30.31,10.8-10.59,23.43-18.55,36.73-25.55,1.35-.71,2.67-1.46,4.01-2.19ZM167.05,452.56c-.17-13.72,2.48-25.99,7.26-38.21-15.31-3.59-21.85-14.45-24.92-28.35-.69.45-1.12.59-1.31.88-.64,1-1.26,2.03-1.76,3.11-4.29,9.3-5.48,18.99-3.79,29.08.98,5.84,3.61,10.74,8.03,14.68,1.28,1.15,2.54,2.33,3.83,3.47,4.41,3.88,8.32,8.16,10.97,13.47.2.4.62.7,1.69,1.88ZM472.43,685.49c.75-.39,1.2-.47,1.41-.75,3.81-4.86,9.07-6.99,14.91-8.35,6.7-1.56,13.31-3.54,19.92-5.44,3.5-1.01,6.36-3.13,9.09-5.52,3.22-2.82,4.54-6.73,6.56-10.27,6.8-11.93,8.73-24.83,8.04-38.3-.04-.73-.27-1.45-.5-2.6-1.06.83-1.73,1.4-2.44,1.91-3.11,2.22-6.09,4.71-9.42,6.54-2.28,1.26-3.21,2.57-3.29,5.18-.42,12.76-5.46,23.59-14.3,32.69-8.23,8.48-18.21,13.99-29.57,17.08-1.36.37-2.72.75-4.66,1.29,1.62,2.5,2.93,4.51,4.25,6.55ZM244.51,678.96c-1.95-.56-3.25-.83-4.47-1.3-4.82-1.85-9.89-3.27-14.37-5.73-17.8-9.79-28.89-24.19-29.76-45.2-.07-1.66-.62-2.68-2.15-3.39-4.25-1.97-8.01-4.65-11.32-7.97-.37-.37-1.08-.4-1.95-.7-.26,8.31-.39,16.22,1.45,24.06,1.69,7.19,5.07,13.64,8.35,20.14.94,1.86,2.16,3.64,3.5,5.24,3.55,4.21,8.26,6.55,13.51,7.93,6.28,1.65,12.56,3.36,18.87,4.91,4.64,1.14,8.68,3.2,11.89,6.79.57.63,1.3,1.12,2.26,1.94,1.43-2.27,2.66-4.24,4.2-6.7ZM563.41,385.4c-3,14.89-9.92,25.42-24.84,29.03,1.14,3.47,2.2,6.44,3.09,9.47.9,3.05,1.78,6.12,2.38,9.23.6,3.12.76,6.32,1.24,9.46.46,3.01-.2,6.17.87,9,3.17-3.98,6.06-7.91,9.28-11.54,2.19-2.47,4.87-4.49,7.28-6.77,4.08-3.86,6.47-8.56,7.5-14.12,1.25-6.8.88-13.5-.6-20.14-1.03-4.6-2.55-9.12-6.2-13.62ZM430.67,685.76c1.8-1.38,3.04-2.11,4.01-3.12,2.94-3.05,5.87-6.12,8.63-9.33,2.62-3.06,5.24-5.98,9.35-7.03.74-.19,1.49-.64,2.08-1.15,5.7-4.88,12.34-8.2,18.9-11.68,1.47-.78,2.97-1.92,3.84-3.28,1.64-2.55,2.93-5.34,4.17-8.12,1.47-3.26-.06-5.89-2.1-8.34-2.01-2.41-4.35-1.28-6.57-.5-1.74.62-3.49,1.35-5.03,2.35-3.67,2.37-7.41,4.69-10.78,7.44-8.83,7.2-17.46,14.65-26.21,21.94-1.25,1.04-1.8,2.19-1.72,3.77.22,4.37.36,8.74.61,13.11.06,1.01.41,2,.82,3.94ZM281.89,685.6c.51-1.23.86-1.69.88-2.18.27-5.16.63-10.32.6-15.48,0-1.17-1.21-2.55-2.21-3.44-3.65-3.27-7.42-6.39-11.18-9.53-5.8-4.83-11.44-9.88-17.51-14.36-4.01-2.96-8.48-5.43-13.05-7.46-4.74-2.1-9.86,1.91-8.61,6.94,1.39,5.56,3.38,11.15,9.38,13.97,6.25,2.93,12.25,6.31,17.57,10.79.8.67,1.75,1.31,2.73,1.57,3.68,1,6.07,3.58,8.46,6.29,2.97,3.38,6.05,6.67,9.16,9.91.96,1,2.19,1.75,3.75,2.97ZM298.93,615.77c.34.5.43.79.63.92.68.41,1.36.83,2.09,1.13,9.01,3.84,18.36,6.12,28.2,5.78,10.05-.34,20.04-1.93,30.13-1.31,3.69.23,7.43.06,11.08.54,13.41,1.76,26.45.8,38.99-4.6,1.26-.54,2.45-1.24,4.3-2.19-1.38-.56-1.94-.91-2.55-1.02-6.53-1.1-13.05-2.35-19.62-3.14-2.83-.34-5.83,0-8.65.54-7.74,1.45-15.46,2.17-23.32,1.02-2.46-.36-5.06-.38-7.52-.01-8,1.18-15.84.39-23.71-1.05-3.08-.56-6.35-.74-9.45-.39-5.92.68-11.78,1.84-17.66,2.86-.98.17-1.91.59-2.95.92ZM411.85,825.71c-3.22-4.11-6.6-6.92-9.19-7.36-8.5-1.42-16.24-4.76-23.7-8.92-6.59-3.68-13.85-5.26-21.18-6.55-1.26-.22-2.64,0-3.93.2-8.46,1.34-16.44,4.02-23.9,8.31-5.79,3.33-12.03,5.6-18.64,6.64-4.57.72-7.04,4.12-10.59,7.09,1.56.71,2.46,1.29,3.43,1.53,11.29,2.71,21.94,1.29,31.35-5.75,4.12-3.08,8.09-6.55,11.4-10.46,3.67-4.34,8-4.71,12.87-3.8,1.49.28,3.11.94,4.23,1.93,3.26,2.89,6.35,5.99,9.42,9.09,8.39,8.5,18.78,10.99,30.26,9.98,2.56-.22,5.06-1.17,8.16-1.93ZM300.27,577.62c-2.98-1.86-5.4-3.19-7.63-4.8-2.06-1.49-4.19-1.95-6.71-1.82-8.96.46-17.72-.65-26.23-3.63-1.46-.51-3.13-.78-4.65-.63-6.52.62-12.51-1.05-17.69-4.76-5.98-4.28-12.57-7.35-18.93-10.87-4.75-2.63-9.77-4.08-15.18-4.18-.83-.02-1.66.17-2.92.31.89,1.12,1.35,1.95,2.04,2.51,4.6,3.77,8.98,7.88,13.94,11.12,10.71,7,22.47,11.89,34.57,15.95,7.69,2.58,15.52,4.42,23.59,5.46,8.88,1.14,17.03-.94,25.8-4.65ZM512.71,547.04c-5.94-.26-10.89.29-15.42,2.66-7.14,3.75-14.57,6.96-21.14,11.8-5.37,3.96-11.53,5.81-18.34,5.24-1.65-.14-3.45.18-5.03.72-7.88,2.7-16.03,4.28-24.24,3.48-6.72-.66-10.44,3.85-15.36,6.65,5.88,2.42,11.54,5.21,17.9,4.9,5.54-.27,11.17-.59,16.57-1.79,17.6-3.91,34.11-10.69,49.47-20.16,5.66-3.49,10.71-7.72,15.6-13.51ZM248.56,404.1c4.76-2.52,8.74-4.84,12.91-6.77,4.3-1.99,8.98-2.46,13.63-1.81,4.44.62,8.94,1.37,13.15,2.81,4.34,1.48,8.72,3.37,12.44,5.99,3.66,2.59,6.51,6.32,9.83,9.65,1.66-1.19,2.69-2.74,3.2-4.76,1.11-4.39,2.76-8.56,5.68-12.12.29-.35.31-.93.5-1.55-.71-.37-1.25-.74-1.85-.96-6.23-2.25-12.43-4.56-18.7-6.68-9.78-3.3-19.87-4.38-30.16-4.09-6.83.19-12.9,2.73-18.75,5.9-.81.44-1.75,1.52-1.8,2.35-.19,3.78-.08,7.58-.08,12.03ZM402.4,414.53c.98-1.21,1.52-1.77,1.94-2.41,5-7.68,12.63-11.43,20.98-14.18,12.59-4.14,24.56-3.68,35.57,4.5.21.16.42.35.66.45.78.3,1.58.57,2.69.96,0-4.13.13-7.82-.09-11.5-.06-.95-1.02-2.21-1.91-2.7-5.25-2.9-10.71-5.51-16.81-5.65-5.69-.14-11.43-.05-17.08.58-11.99,1.34-23.04,6.06-34.2,10.3-.45.17-.8.6-1.69,1.28,3.99,4.14,5.51,9.32,7.11,14.52.39,1.27,1.64,2.28,2.83,3.86ZM309.12,629.37c-.13.2-.26.39-.39.59,2.65,3.08,5.13,6.33,8.01,9.18,2.23,2.21,4.78,4.25,7.52,5.76,7.53,4.16,15.26,7.97,22.87,11.99,1.98,1.05,3.91,1.26,6.12.89,1.91-.32,3.98-.44,5.86-.07,2.5.48,4.63.16,6.86-1.03,7.37-3.92,14.78-7.74,22.22-11.52,6.86-3.49,10.98-9.67,15.97-15.52-.85-.11-1.24-.26-1.58-.2-4.3.74-8.63,1.4-12.88,2.35-1.45.32-3.07,1.1-4.02,2.19-6.5,7.39-14.93,10.9-24.38,12.06-11.41,1.39-22.04-1.08-30.64-8.93-3.92-3.58-7.78-5.94-13.11-6.18-2.82-.13-5.61-1.01-8.41-1.55ZM277.59,524.75c4.35,2.52,7.83,2.18,11.19.02,5.52-3.54,9.89-8.32,11.94-14.48,3.1-9.28,5.86-18.72,8.02-28.26,2.99-13.19,2.32-26.63,1.32-40.01-.06-.81-.43-1.6-.71-2.6-.65.44-1.05.58-1.26.87-.53.75-.96,1.58-1.46,2.36-4.3,6.75-5.44,14.6-7.55,22.09-.79,2.79-1.17,5.71-1.64,8.59-1.1,6.67-1.7,13.46-3.33,19.99-1.66,6.65-4.08,13.15-6.6,19.54-1.86,4.72-5.23,8.53-9.92,11.88ZM403.9,439.56c-.41.26-.58.31-.63.41-.16.35-.36.71-.4,1.08-1.51,16.99-1.39,33.89,3.32,50.46,1.81,6.36,3.62,12.75,5.95,18.93,2.29,6.08,6.47,10.91,12.01,14.41,3.36,2.12,6.83,2.47,10.56.05-.56-.66-.91-1.21-1.39-1.59-3.94-3.12-6.6-7.17-8.66-11.69-3.83-8.38-6.21-17.17-7.57-26.24-1.52-10.21-2.89-20.42-5.9-30.37-1.4-4.62-3.18-8.95-5.46-13.13-.47-.86-1.23-1.56-1.83-2.3ZM438.1,774.98c.27.52.34.9.52.96,6.09,2.13,12.14,4.42,18.33,6.23,1.9.56,4.22,0,6.28-.39,6.76-1.28,11.84-5.18,15.53-10.82,6.91-10.56,8.8-22.23,7.12-34.59-.06-.47-.39-.91-.77-1.76-2.24,1.8-4.09,3.76-6.35,4.98-3.01,1.63-4.64,4.12-6.14,6.99-7.08,13.5-17.64,22.97-32.35,27.54-.62.19-1.21.48-2.17.86ZM306.75,718.78c1.21-.54,1.92-.8,2.58-1.16,4.43-2.39,8.75-4.99,13.29-7.14,7.17-3.4,12.33-.24,12.94,7.65.09,1.23.22,2.46.34,3.79,4.61-1.35,10.48-4.34,12.15-6.08-4.74-1.42-5.89-2.1-9.3-6.26-2.1-2.55-3.97-5.29-6-7.9-.51-.65-1.24-1.13-2.1-1.89-.64,1.33-1.08,2.27-1.55,3.2-2.85,5.68-8.11,7.78-13.97,5.27-2.27-.97-4.58-2.3-6.32-4.02-3.56-3.53-6.75-7.42-10.07-11.19-.82-.93-1.54-1.93-2.68-3.37-.61,1.55-1,2.36-1.25,3.2-2.62,8.76-9.11,11.71-17.14,7.37-3.2-1.73-5.89-4.42-8.81-6.68-.87-.67-1.7-1.4-3.29-2.71-.66,11.5-1.65,21.98,4.94,31.51.84-.47,1.31-.69,1.73-.98,5.02-3.44,9.95-7.03,15.1-10.26,2.43-1.52,5.19-2.76,7.97-3.42,5.14-1.22,9.13,1.54,10.43,6.67.32,1.27.58,2.55,1,4.39ZM405.97,718.75c.47-1.88.8-3.4,1.23-4.89,1.27-4.44,4.71-6.97,9.25-6.28,2.43.37,4.97,1.19,7.05,2.47,5.53,3.38,10.84,7.12,16.25,10.72.74.49,1.49.96,2.2,1.41,5.34-5.53,8.02-24.95,4.2-30.64-1.06,1.02-2.09,2.02-3.12,3.01-3.08,2.97-6.4,5.58-10.55,6.91-6.53,2.08-11.99-.74-14.07-7.25-.42-1.31-.87-2.62-1.53-4.59-1.31,1.64-2.07,2.68-2.92,3.64-3.24,3.67-6.34,7.48-9.84,10.89-1.85,1.8-4.27,3.2-6.67,4.2-5.7,2.37-10.9.22-13.67-5.26-.51-1.01-1.04-2.02-1.9-3.7-1.85,2.48-3.26,4.48-4.78,6.4-3.47,4.37-6.45,9.36-12.81,10.63,4.01,1.89,8.02,3.79,11.85,5.59.45-.36.63-.42.64-.51.21-1.56.41-3.11.6-4.67.72-6.02,4.88-8.81,10.71-7.12,1.14.33,2.24.82,3.3,1.37,4.69,2.43,9.35,4.92,14.6,7.69ZM275.53,775.36c-1.9-.74-2.85-1.16-3.83-1.48-12.91-4.19-22.82-12.22-29.57-23.87-2.82-4.87-5.58-9.48-10.62-12.35-1.31-.74-2.4-1.87-3.8-2.99-1.57,2.94-1.29,5.64-1.33,8.2-.19,11.74,2.39,22.7,10.51,31.59,6.65,7.28,14.94,9.7,24.52,6.49,3.39-1.13,6.74-2.38,10.08-3.64,1.08-.41,2.09-1,4.05-1.96ZM122.92,448.03c-1.76,4.94-1.68,9.54-1.15,14.17,1.05,9.14,3.96,17.83,6.38,26.65,2.93,10.66,9.78,17.67,19.77,21.89.77.33,1.64.42,2.61.66,0-.74.12-1.16-.02-1.48-4.46-10.83-6.3-22.13-6.09-33.81.02-1.28-.08-2.8-.73-3.82-3.86-6.01-7.75-12.03-11.96-17.8-2.08-2.85-4.97-5.05-8.82-6.46ZM589.77,448.09c-1.02.44-1.87.71-2.62,1.16-3.82,2.3-6.79,5.49-9.22,9.19-2.47,3.77-4.74,7.68-7.35,11.34-1.63,2.28-2.4,4.57-2.33,7.36.27,11-1.6,21.64-5.69,31.88-.26.66-.29,1.41-.56,2.8,9.43-3.61,17.01-8.47,20.5-17.64,2.62-6.91,4.57-14.1,6.44-21.27,1.13-4.34,1.66-8.84,2.23-13.3.48-3.81.09-7.6-1.4-11.51ZM100.96,385.92c.07.08-.06-.22-.27-.3-1.36-.5-2.74-.96-4.12-1.43-8.63-2.97-15.2-8.31-17.93-17.19-1.25-4.09-1.29-8.58-1.66-12.91-.14-1.62-.06-3.11-1.34-4.38-.63-.63-1.06-1.52-1.41-2.36-2.77-6.75-5.27-13.58-5.96-20.93-.32-3.49-.77-6.97-1.16-10.51-.58.18-.94.18-1.04.34-.42.67-.82,1.36-1.11,2.09-4.02,9.87-4.68,20.08-2.75,30.45,4.02,21.54,15.19,38.71,32.27,52.21.17.13.49.07.76.1,1.88-4.99,3.76-9.99,5.71-15.17ZM646.54,315.88c-.3.04-.61.07-.91.11-.37,3.39-.76,6.78-1.09,10.18-.74,7.48-2.81,14.66-6.26,21.24-1.82,3.46-2.5,6.69-2.45,10.45.06,4.41-.98,8.68-3.02,12.65-3.68,7.15-9.68,11.4-17.13,13.92-1.42.48-3.17.38-4.11,1.84,1.21,2.53,2.52,4.84,3.44,7.3.94,2.52,1.49,5.17,2.36,8.29,2.92-2.7,5.26-5,7.75-7.13,8.3-7.11,14.59-15.68,18.96-25.68,5.32-12.19,8.72-24.75,7.04-38.22-.65-5.25-1.91-10.33-4.56-14.94ZM317.63,854.3c2.03.92,3.49,1.78,5.06,2.25,6.75,2.03,13.61,3.54,20.69,3.51,3.56-.01,7.11-.64,10.67-.65,3.29-.01,6.58.49,9.88.66,9.38.46,18.49-1,27.37-3.95,1.16-.38,2.21-1.1,3.87-1.94-1.78-1.03-2.84-1.87-4.04-2.29-5.73-2-11.4-4.35-17.29-5.68-5.5-1.24-11.26-1.79-16.91-1.82-5.65-.03-11.37.58-16.93,1.63-5.02.94-9.88,2.81-14.78,4.37-1.51.48-2.94,1.2-4.36,1.9-.92.45-1.75,1.08-3.24,2.02ZM66.87,396.05c3.01-2.98,2.65-5.41.73-8.43-6.14-9.64-11.15-19.87-14.28-30.9-1.24-4.36-2.9-8.41-5.28-12.32-2.61-4.3-4.37-9.08-4.54-14.25-.27-8.07-.5-16.15-.79-24.22-.03-.83-.3-1.65-.51-2.71-.64.49-1.02.67-1.23.96-.62.86-1.23,1.73-1.73,2.66-7.49,13.72-7.74,27.82-2.07,42.16,3.29,8.34,8.42,15.61,13.89,22.61,5.4,6.91,10.33,14.1,14.16,22.01.39.8,1,1.48,1.66,2.43ZM670.77,302.94c-.4,1.15-.62,1.49-.64,1.84-.3,7.28-.89,14.56-.79,21.84.11,7.48-2.24,14.03-6.03,20.26-.96,1.57-2.02,3.2-2.46,4.95-3.27,13.14-9.06,25.14-16.11,36.6-2.08,3.38-1.9,4.29,1.41,7.32.51-.78,1.11-1.49,1.5-2.3,3.64-7.56,8.37-14.41,13.39-21.09,3.5-4.65,6.94-9.38,9.96-14.34,7.38-12.11,10.42-25.12,7.15-39.22-1.29-5.58-3.37-10.79-7.4-15.85ZM234.53,808.81c0,.77-.07,1.06.02,1.29.19.49.43.97.72,1.41,4.18,6.41,9.9,10.62,17.51,11.99,4.17.75,8.41,1.19,12.55,2.08,10.74,2.33,20.5-.16,29.69-5.71.59-.36,1-1.01,1.49-1.52-.28-.3-.35-.45-.46-.48-3.92-1.31-7.81-2.59-10.06-6.57-.3-.53-1.9-.64-2.8-.47-2.08.4-4.07,1.19-6.14,1.66-13.92,3.2-27.6,3.42-40.74-3.25-.44-.22-.97-.24-1.78-.44ZM478.14,809.19c-16.9,7.94-33.75,6.43-50.13,1.19-2.17,2.02-3.71,3.88-5.65,5.14-1.88,1.23-4.15,1.84-6.4,2.79,6.17,5.27,16.61,8.8,24.73,7.98,6.72-.68,13.41-1.76,20.05-3.04,2.81-.54,5.59-1.75,8.11-3.16,4.35-2.43,7.24-6.3,9.3-10.91ZM444.1,619.03c-.12-.39-.25-.78-.37-1.16-3.87.36-7.94.08-11.54,1.25-3.81,1.23-7.29,3.68-10.72,5.89-6.32,4.07-11.23,9.66-15.62,15.65-4.35,5.93-9.81,10.31-16.57,13.14-1.95.81-3.87,1.71-5.77,2.64-1,.49-1.93,1.13-2.88,1.7,10.55-.8,20.43-3.58,29.3-9.13,13.01-8.13,23.45-19.23,34.18-29.97ZM331.96,657.79c-2.7-1.28-5.34-2.67-8.1-3.82-6.89-2.87-12.5-7.24-16.97-13.27-2.82-3.81-5.96-7.48-9.45-10.68-7.52-6.89-15.8-12.41-26.67-11.99-.69.03-1.38.2-2.41.35.59.8.83,1.26,1.19,1.6,8.53,7.92,16.95,15.96,25.65,23.68,5.07,4.5,11.01,7.8,17.39,10.18,6.17,2.3,12.46,4.16,19.36,3.95ZM229.38,784.02c-.31.14-.61.29-.92.43.44,1.47.69,3.03,1.35,4.39,4.63,9.47,12.64,14.14,22.8,14.94,13.28,1.06,26.14-1.42,38.65-5.83.62-.22,1.13-.76,2.17-1.48-1.87-.45-3.19-.61-4.39-1.08-3.56-1.39-7.21-2.63-10.54-4.46-1.92-1.06-3.51-1.51-5.57-.87-3.29,1.02-6.61,1.96-9.95,2.83-12.07,3.13-22.83.69-32.15-7.7-.47-.42-.98-.79-1.47-1.18ZM246.48,263.8c.12.25.25.5.37.75.61-.13,1.24-.21,1.83-.41,12.37-4.29,24.74-8.58,37.09-12.95,1.05-.37,2.06-1.16,2.84-1.99,4.87-5.21,9.67-10.49,14.47-15.76.58-.63,1.05-1.36,1.86-2.43-1.17-.26-1.91-.62-2.61-.55-3.14.32-6.36.44-9.4,1.23-9.16,2.39-17.08,7.13-23.72,13.82-6.09,6.14-12.83,11.42-20,16.2-.95.63-1.83,1.38-2.73,2.08ZM419.34,796.5c.86.67,1.21,1.1,1.66,1.26,13.26,4.75,26.9,7.45,40.97,5.79,9.46-1.11,16.91-5.96,21.08-14.93.62-1.33.81-2.86,1.21-4.32-.66-.11-.83-.2-.91-.15-.44.29-.88.57-1.27.92-9.67,8.73-20.78,11.11-33.25,7.55-3.19-.91-6.38-1.78-9.56-2.7-1.63-.47-3.08-.42-4.47.72-3.27,2.67-7.21,3.85-11.23,4.81-1.25.3-2.49.62-4.22,1.04ZM407.75,230.9c.53.88.72,1.36,1.04,1.71,5.16,5.66,10.32,11.32,15.55,16.92.68.73,1.66,1.31,2.62,1.65,12.23,4.31,24.47,8.56,36.72,12.8.79.27,1.65.33,2.48.49-.2-.93-.63-1.4-1.14-1.73-8.46-5.5-16.15-11.9-23.38-18.93-6.18-6.01-13.68-9.91-21.98-12.21-3.7-1.03-7.46-1.65-11.91-.7ZM381.32,833.84c-4.2-2.24-7.75-3.76-10.88-5.9-3.25-2.23-6.08-5.06-9.11-7.61-.71-.6-1.47-1.12-2.21-1.68-1.81-1.36-3.65-1.46-5.45-.02-1.75,1.4-3.56,2.76-5.15,4.34-3.81,3.78-8.22,6.62-13.1,8.78-1.15.51-2.27,1.08-3.92,1.87,1.34.9,2.1,1.62,3.01,1.98,4.87,1.94,9.9,2.53,15.16,2.03,4.18-.4,8.47-.64,12.62-.13,5.28.65,10.27.13,15.2-1.6,1.17-.41,2.22-1.17,3.82-2.04ZM190.07,129.56c-14.39.28-43.04,21.33-46.29,33.71.73-.14,1.36-.18,1.94-.39,7.61-2.7,15.23-5.38,22.8-8.17,1.33-.49,2.71-1.22,3.69-2.21,3.9-3.96,7.75-7.97,11.41-12.14,2.7-3.07,4.73-6.61,6.45-10.81ZM569.17,163.38c-4.94-13.73-35.44-35.57-46.19-33.44,1.2,3.73,3.27,6.99,5.73,9.88,3.77,4.43,7.8,8.66,11.91,12.78,1.14,1.15,2.9,1.8,4.49,2.38,6.84,2.51,13.72,4.91,20.59,7.34.96.34,1.94.6,3.48,1.06ZM165.95,580.41c.25-.17.51-.33.76-.5-.29-.68-.51-1.41-.87-2.05-3.08-5.4-6.2-10.77-9.27-16.17-.78-1.37-1.88-2.79-1.98-4.25-.18-2.71-1.51-4.67-2.97-6.75-6.68-9.47-12.53-19.31-13.86-31.18-.32-2.82-1.98-4.09-5.44-4.73-1.6,2.41-1.91,5.14-1.67,7.95.99,11.58,4.2,22.4,11.78,31.47,6.02,7.21,12.31,14.19,18.53,21.22,1.56,1.76,3.32,3.33,4.99,4.99ZM580.07,514.32c-3.19,1.39-4.98,3.12-5.38,6.55-.41,3.51-1.43,7-2.63,10.34-2.66,7.41-6.92,13.96-11.5,20.32-.9,1.25-1.51,2.74-2.12,4.18-.86,2.03-1.39,4.24-2.44,6.16-2.91,5.34-6.04,10.57-9.04,15.86-.41.72-.57,1.59-1.08,3.08,1.06-.76,1.55-.99,1.88-1.36,7.84-8.78,15.91-17.36,23.42-26.41,7.17-8.64,9.93-19.15,10.92-30.15.26-2.91.04-5.78-2.04-8.57ZM283.84,470.57c-14.46,3.9-27.62,4.08-40.07-4.27-.5,3.58-.76,6.63,1.2,9.22,1.82,2.41,3.83,4.73,6.01,6.82,1.29,1.24,2.98,2.25,4.67,2.87,7.31,2.65,14.87,2.28,22.4,1.23,1.21-.17,2.99-1.34,3.25-2.37,1.07-4.18,1.65-8.48,2.55-13.51ZM429.38,470.79c.1,1.5.08,2.66.27,3.78.43,2.62.94,5.22,1.43,7.82.58,3.05,1.27,3.82,4.34,4.23,2.36.32,4.76.32,7.13.53,5.12.46,10.04-.53,14.89-2,2.37-.72,4.17-2.22,5.63-4.21,1.01-1.38,1.93-2.96,3.26-3.96,3.75-2.82,2.98-6.51,2.93-10.91-12.77,8.77-25.99,8.18-39.88,4.72ZM212.91,685.34c2.68,8.24,5.07,15.77,7.58,23.26,1.9,5.66,5.53,10.17,9.93,14.09.61.54,1.45.81,2.16,1.19.27-.41.38-.51.39-.62.84-7.59,1.73-15.18,2.42-22.79.12-1.29-.42-2.81-1.09-3.99-4.54-8.06-12.43-9.84-21.41-11.14ZM480.31,723.82c.52-.24,1.18-.37,1.62-.76,4.31-3.83,8.07-8.11,10.02-13.63,2.2-6.25,4.19-12.57,6.25-18.86.52-1.58.95-3.18,1.64-5.47-3.7.87-6.72,1.71-9.79,2.29-5.94,1.13-9.07,5.65-12.3,10.03-.54.73-.58,2.08-.38,3.04,1.58,7.42,2.22,14.94,2.38,22.51,0,.21.27.42.57.85ZM379.58,784.12c-.25-.36-.4-.75-.69-.94-3-1.9-6.24-3.47-8.45-6.45-.4-.55-1.36-.77-2.11-.97-2.8-.77-5.59-1.7-8.45-2.14-2.3-.35-4.71-.25-7.04,0-1.82.2-3.55,1.05-5.36,1.41-2.9.57-5.53,1.31-7.44,3.95-.95,1.31-2.76,1.99-4.17,2.96-.92.64-1.83,1.29-3.02,2.13,5.26.98,10.08,1.61,14.75,2.82,5.93,1.53,11.69,1.51,17.62-.02,4.66-1.21,9.48-1.83,14.36-2.74ZM392.43,839.78c11.68,7.07,23.86,7.08,36.32,3.76,5.75-1.53,10.91-4.16,15.29-8.92-.97-.29-1.34-.52-1.69-.49-6.45.44-12.71-.42-18.74-2.76-1.37-.53-2.5-.34-3.68.59-4.35,3.43-9.53,4.56-14.88,4.91-2.9.19-5.83,0-8.74-.15-2.18-.12-3.63.5-3.86,3.08ZM269.27,834.71c8.66,11.73,37.1,14.52,51.05,4.97-.09-2.06-1.15-3.08-3.27-2.99-1.32.06-2.65.17-3.97.24-5.78.3-11.8.22-16.6-2.95-4.35-2.86-7.97-2.41-12.49-1.2-4.66,1.25-9.64,1.31-14.72,1.92ZM325.6,760.02c1.1,1.05,1.53,1.55,2.03,1.93,4.76,3.59,10.18,4.02,15.49,2.14,8.89-3.14,17.5-3.21,26.41-.08,2.86,1.01,6.27.88,9.38.64,3.03-.23,5.77-1.67,7.95-4.61-6.63-3.43-13.1-6.28-20.56-4.61-6.58,1.47-13.1,1.56-19.67.02-7.49-1.75-13.94,1.26-21.04,4.57ZM314.7,766.35c-2.87,1.22-6.28,2.6-9.62,4.15-1.42.66-2.73,1.6-3.96,2.57-3.11,2.47-6.14,5.02-9.19,7.56-.86.71-1.65,1.5-2.64,2.4,11.92,4.36,26.19,3.14,36.52-7.85-3.55-2.82-7.12-5.66-11.11-8.83ZM386.65,774.94c7.26,7.26,15.42,10.94,25.33,10.33,3.86-.24,7.77-.02,11.87-2.23-8.79-6.58-15.89-14.49-25.91-16.49-2.12,1.83-3.74,3.4-5.54,4.73-1.78,1.32-3.73,2.39-5.74,3.65ZM443.35,426.76c.08-6.23-4.36-11.29-9.9-11.31-5.64-.02-10.63,5.25-10.63,11.23,0,5.8,4.87,10.6,10.72,10.55,5.42-.04,9.75-4.66,9.82-10.47ZM289.92,426.64c-.06-6.14-4.9-11.25-10.6-11.2-5.5.04-10.01,5.22-9.91,11.36.1,5.77,4.5,10.42,9.89,10.43,5.9.02,10.68-4.75,10.63-10.59ZM417.61,807.73c-.02-.39-.04-.77-.05-1.16-.9-.46-1.75-1.11-2.7-1.36-5.61-1.49-11.23-2.97-16.88-4.29-3.34-.78-6.77-1.17-10.11-1.93-1.92-.44-3.81-1.12-4.8-3.16-.25-.51-.95-1.11-1.46-1.13-3.58-.14-7.15-.01-11.49,1.45,8.96,3.86,17,7.51,25.2,10.78,5.06,2.02,10.41,3.18,15.93,2.41,2.16-.3,4.25-1.05,6.37-1.6ZM294.35,806.66c3.02,2.38,5.77,2.65,8.55,2.81,7.1.4,13.6-1.92,19.98-4.58,5.87-2.44,11.63-5.16,17.41-7.79.49-.22.85-.73,1.84-1.63-3.74-.35-6.75-.66-9.77-.91-1.24-.1-2.13.32-3,1.43-.91,1.17-2.3,2.23-3.7,2.69-2.63.86-5.4,1.26-8.12,1.84-5.44,1.16-10.9,2.21-16.3,3.51-2.13.51-4.14,1.56-6.9,2.63ZM251.26,499.28c1.48,2.28,2.87,4.62,4.45,6.83,2.21,3.1,5.2,5.29,8.73,6.66,2.56.99,5.17,1.23,7.59-.5,2.99-2.14,5.93-8.72,5.77-12.84-14.86,3.42-11.49,3.17-26.54-.15ZM434.43,499.63c1.05,4.13,2.32,7.96,4.9,11.25,1.71,2.18,4.01,2.88,6.72,2.51,6.03-.83,13.42-8,14.79-14.4-4.22.91-8.4,2.44-12.63,2.56-4.37.11-8.77-1.15-13.79-1.91ZM339.27,632.24c.59.62.8,1.04,1.12,1.16,5.07,1.85,10.16,3.67,15.26,5.45.47.16,1.09.14,1.56-.02,4.87-1.66,9.73-3.33,14.56-5.09.6-.22,1.03-.94,1.67-1.56-11.49-1.66-22.6-1.74-34.17.06ZM432.58,730.2c-3.38-3.97-10.62-9.36-13.9-10.26.22,4.01.38,7.91.66,11.81.11,1.48,1.21,1.92,2.55,1.79,3.68-.36,7.28-.97,10.69-3.34ZM279.55,729.98c4.7,2.73,8.78,3.68,13.09,3.48,1.28-3.67,1.63-11.21.55-14.11-4.43,3.45-8.74,6.81-13.64,10.63ZM366.32,697.31c.39.08.78.16,1.16.23,2.17-3.19,4.33-6.37,6.99-10.27-4.78-.53-8.74-.97-13.56-1.5,2.02,4.3,3.72,7.92,5.41,11.54ZM395.15,693.51c3.68-2.14,9.53-9.42,10.81-13.3-.23-.1-.51-.33-.7-.27-1.38.43-2.76.88-4.12,1.39q-7.93,2.96-6.52,11.26c.04.24.25.45.52.92ZM318.13,693.86c.24-3.16.52-5.74.58-8.33.01-.66-.52-1.71-1.07-1.94-3.47-1.41-7.01-2.64-10.94-4.09,1.42,4.52,7.19,11.78,11.43,14.35ZM339.01,687.09c1.71,4.5,4.78,8.74,7.35,10.21,1.64-3.63,3.98-6.91,4.75-11.38-4.17.4-7.92.76-12.1,1.17ZM360.37,716.33c-1.28-2.1-2.5-4.1-3.81-6.26-2.01,2.11-3.52,3.69-5.22,5.48,3.46,2.21,6.61,1.98,9.04.78ZM322.9,724.77c-2.71,1.78-5.64,2.95-7.92,6.48,2.29-.31,3.82-.43,5.31-.75,3.36-.73,3.73-1.5,2.62-5.73ZM397.05,731.16c.11-.31.23-.63.34-.94-2.23-2.22-4.67-4.12-7.83-5.35-.55,4.59-.34,4.96,3.3,5.69,1.38.28,2.79.41,4.19.6Z" style="fill: #000; stroke-width: 0px;"/>
</svg>