<?xml version="1.0" encoding="UTF-8"?>
<svg id="Layer_1" data-name="Layer 1" xmlns="http://www.w3.org/2000/svg" viewBox="0 0 590.89 900">
  <path d="M142.17,707.55c-.48-33.67,4.99-66.74,9.72-99.89,4.3-30.14,8.79-60.27,12.59-90.47,3.03-24.02,4.59-48.2,4.43-72.44-.04-7.02-.3-14.03-2.54-20.76-.93-2.78-2.13-5.52-3.62-8.04-3.01-5.11-7.6-7.61-13.61-7.76-12.63-.31-24.63,2.48-36.26,7.1-16.85,6.7-33.64,13.56-50.51,20.2-5.01,1.97-10.21,3.49-15.35,5.15-7.36,2.39-14.96,2.9-22.53,1.84-10.59-1.48-18.23-7.08-21.92-17.44C.73,419.81,0,414.44,0,408.89c-.05-37.57,6.82-73.95,18.26-109.61,5.85-18.25,11.83-36.43,19.77-53.89,14.04-30.86,31.88-59.41,52.6-86.21,18.89-24.45,39.04-47.82,59.99-70.51,15.64-16.93,30.31-34.66,43.55-53.55,6.27-8.96,11.41-18.5,15.11-28.81.59-1.64,1.47-3.24,2.52-4.63,1.15-1.52,2.89-2.07,4.76-1.37,1.98.74,2.91,2.33,2.76,4.37-.1,1.32-.49,2.65-.94,3.9-9.19,25.33-23.68,47.39-41.31,67.6-18.41,21.1-36.98,42.07-54.81,63.65-17.95,21.71-35,44.14-48.81,68.86-13.06,23.39-24.42,47.54-33.98,72.57-8.81,23.07-15.32,46.77-21.16,70.73-3.34,13.71-6.79,27.37-7.71,41.47-.49,7.54-.59,15.22.24,22.71,1.14,10.29,6.6,14.36,16.92,14.62,6.9.17,13.44-1.23,19.73-3.79,16.25-6.61,32.42-13.42,48.66-20.05,12.82-5.23,25.76-10.16,39.62-11.94,3.84-.49,7.73-.71,11.6-.75,14.37-.14,24.12,6.98,29.93,19.75,4.37,9.6,5.58,19.94,6.06,30.35,1.04,22.63-.16,45.2-2.22,67.73-4.12,45.04-10.11,89.84-17.09,134.52-4.47,28.6-6.83,57.42-7.99,86.37-.54,13.43-3.01,26.79-4.64,40.18-.2,1.63-.96,3-2.84,2.97-1.9-.03-2.57-1.49-2.75-3.08-1.55-14.07-4.66-27.97-4.35-42.24.17-7.76.03-15.52.03-23.28.22,0,.44.02.65.03Z" style="fill: #000; stroke-width: 0px;"/>
  <path d="M407.12,471.27c.49-14.71-.47-28.92,2.24-42.96,1.37-7.09,3.29-13.97,7.39-20.04,5.99-8.85,14.24-13.67,25-14.01,10.23-.32,20.15,1.44,29.92,4.34,16.39,4.87,31.78,12.25,47.57,18.65,9.77,3.96,19.61,7.75,29.45,11.5,5.72,2.18,11.73,2.3,17.74,1.82,6.26-.51,10.71-3.76,12.48-9.81,1.05-3.59,1.58-7.43,1.74-11.18.69-16.32-1.67-32.33-5.67-48.09-4.42-17.41-8.52-34.94-13.87-52.07-14.47-46.32-34.37-90.19-62.24-130.08-20.27-29-43.14-55.97-66.6-82.44-10.46-11.8-20.92-23.63-30.71-35.99-11.51-14.54-20.98-30.39-27.14-48.04-.75-2.14-1.94-4.13-2.62-6.29-.92-2.9.08-5.3,2.29-6.24,2.11-.89,4.48-.05,5.87,2.59,1.29,2.44,2.02,5.17,3.15,7.7,4.61,10.36,10.41,19.97,17.01,29.23,17.3,24.26,37.85,45.7,57.54,67.92,23.72,26.78,46.6,54.29,66.11,84.39,21.21,32.71,37.33,67.76,48.27,105.2,5.32,18.22,11.25,36.28,13.99,55.14,2.75,18.95,5.48,37.94,4.74,57.17-.18,4.67-.83,9.44-2.13,13.92-3.38,11.66-12.72,18.36-24.84,19.2-10.94.76-21.13-1.98-31.08-5.83-18.25-7.07-36.37-14.46-54.56-21.68-11.07-4.39-22.48-7.21-34.48-7.14-9.16.05-14.17,3.4-17.76,11.86-3.34,7.87-3.86,16.2-3.91,24.58-.12,20.02.71,40.03,3.21,59.86,4.83,38.33,9.88,76.64,15.72,114.82,5.77,37.72,8.89,75.57,8.35,113.68-.14,9.9-1.86,19.78-2.91,29.67-.34,3.19-.84,6.36-1.27,9.53-.26,1.89-.54,3.98-3.03,3.91-2.28-.06-2.6-2.02-2.84-3.85-2.15-16.47-4.66-32.88-5-49.56-.62-30.51-4.7-60.71-9.46-90.8-6.8-43.02-12.01-86.22-15.74-129.6-.9-10.5-1.3-21.05-1.9-31.02Z" style="fill: #000; stroke-width: 0px;"/>
  <path d="M352.18,689.06c5.77,1.19,11.61,2.1,17.27,3.67,4.93,1.37,9.81,3.14,14.42,5.34,6.93,3.32,10.27,9.34,10.6,16.89.64,14.73-4.64,21.98-18.79,26.21-1.75.52-3.51,1-5.27,1.49,0,.23,0,.46,0,.7,3.26.33,6.52.85,9.79.95,8.43.26,16.86.36,25.29.49,3.12.05,5.32,1.7,5.62,4.34.29,2.5-1.38,4.66-4.28,5.45-.73.2-1.49.32-2.24.37-15.43.86-30.81,1.11-46.21-.97-10.76-1.45-21.65-1.96-32.48-2.93-1.84-.16-3.71-.36-5.47-.88-2.73-.82-4.32-3.13-4.25-5.64.07-2.6,1.64-4.91,4.42-5.51,3.7-.79,7.48-1.28,11.25-1.63,8.06-.77,16.14-1.31,24.21-2.05,6.84-.63,13.48-1.91,19.54-5.51,4.86-2.89,6.47-7.02,5.81-12.39-1.07-8.64-2-9.9-10.7-11.33-14.89-2.44-29.84-4.6-44.76-6.84-4.92-.74-9.85-1.42-14.78-2-4.53-.53-7.46-3.06-7.56-6.73-.1-3.68,2.62-6.64,7.04-7.28,23.7-3.42,47.42-6.75,71.13-10.16,3.69-.53,7.35-1.34,11.02-2.02.02-.36.03-.73.05-1.09-1.21-.3-2.41-.66-3.64-.89-11.84-2.27-23.77-4.17-35.51-6.87-14.01-3.23-27-9.12-38.84-17.31-8.17-5.65-13.73-13.38-16.67-22.88-2.76-8.93-1.4-17.3,4.56-24.54,4.28-5.2,9.04-10,13.61-14.95,3.77-4.09,7.65-8.08,11.36-12.23,7.86-8.8,11.38-19.39,12.26-30.95.6-7.98,1.01-15.98,1.48-23.97.1-1.77.27-3.54,2.41-3.88,2.16-.34,2.98,1.29,3.46,2.98,6.44,22.78,5.05,44.45-9.58,64.01-5.15,6.88-10.82,13.37-16.23,20.06-2.33,2.88-4.73,5.73-6.83,8.78-4.09,5.95-3.61,11.25,1.53,16.38,7.11,7.09,15.23,12.84,24.36,17.01,14.66,6.7,30.02,11.14,45.93,13.69,3.4.54,6.81,1.31,10.06,2.42,5.16,1.77,8.37,5.51,9.55,10.9,1.46,6.7-1.59,11.87-8.27,13.31-5.18,1.12-10.47,1.76-15.73,2.56-9.01,1.36-18.02,2.67-27.02,4.03-1.03.15-2.02.5-3.04.75.04.23.07.46.11.69Z" style="fill: #000; stroke-width: 0px;"/>
  <path d="M220.39,742.63c-.84-.23-1.68-.47-2.53-.69-5.59-1.46-11.05-3.25-15.27-7.46-1.36-1.35-2.62-2.89-3.57-4.55-7.04-12.33-1.89-27.71,10.97-33.42,8.12-3.6,16.76-5.07,25.37-6.71.99-.19,1.98-.41,2.96-.64.13-.03.23-.21.69-.65-1.2-.34-2.16-.73-3.16-.88-11.51-1.73-23.02-3.41-34.53-5.12-2.17-.32-4.34-.65-6.49-1.04-4.56-.8-8.58-2.53-9.87-7.46-1.37-5.21.09-9.86,3.83-13.72,2.95-3.05,6.85-4.18,10.85-5.04,9.23-1.99,18.58-3.53,27.65-6.08,11.94-3.36,23.72-7.41,34.01-14.65,4.54-3.19,8.93-6.66,12.99-10.44,5.78-5.38,6.38-11.06,1.61-17.3-6.19-8.1-12.75-15.93-19.31-23.74-11.89-14.15-17.73-30.37-16.48-48.83.44-6.43,2.06-12.78,3.18-19.16.11-.65.29-1.48.75-1.84.9-.72,2.07-1.67,3.04-1.58.79.07,1.9,1.44,2.07,2.38.38,2.14.17,4.37.37,6.55.82,8.89,1.47,17.8,2.64,26.65,1.09,8.31,4.65,15.73,10.22,21.96,6.79,7.6,13.95,14.88,20.91,22.33,1.55,1.66,2.99,3.43,4.43,5.2,7.79,9.51,8.05,19.84,3.08,30.59-4,8.67-10.29,15.3-18.49,20.22-12.85,7.71-26.52,13.32-41.24,16.19-9.93,1.94-19.91,3.64-29.86,5.48-1.02.19-2.01.54-3.01.81-.01.23-.03.46-.04.68.89.3,1.75.75,2.66.88,9.51,1.37,19.04,2.63,28.54,4.03,16.85,2.48,33.7,5.02,50.54,7.6,1.46.22,3,.71,4.25,1.49,4.43,2.74,4.2,8.94-.37,11.43-.87.48-1.87.83-2.85.98-16.1,2.38-32.2,4.7-48.3,7.08-4.92.73-9.86,1.4-14.72,2.42-6.17,1.29-7.08,2.46-8.03,8.68-.18,1.17-.36,2.34-.44,3.51-.31,4.48,1.24,7.94,5.12,10.53,5.08,3.39,10.75,4.94,16.63,5.59,10.98,1.2,22,2.02,33,3.04,1.84.17,3.7.43,5.49.87,3.22.8,5.04,3.01,5.03,5.83,0,2.84-1.78,4.97-5.06,5.8-1.46.37-2.99.47-4.5.61-12.5,1.16-25.03,2.1-37.5,3.51-13.91,1.57-27.79,1.1-41.69.35-.83-.05-1.68-.24-2.47-.51-2.59-.89-4.05-3.03-3.74-5.34.33-2.43,2.42-4.2,5.2-4.26,7.25-.16,14.5-.21,21.75-.44,3.96-.12,7.9-.5,11.85-.8.61-.05,1.21-.28,1.82-.42.02-.18.03-.35.05-.53Z" style="fill: #000; stroke-width: 0px;"/>
  <path d="M271.19,290.24c-1.3.71-1.93,1.06-2.57,1.39-5,2.61-10.18-.13-10.28-5.78-.05-2.86.62-5.89,1.63-8.59,1.94-5.21,4.36-10.24,6.56-15.35.39-.9.65-1.85.97-2.75-6.74-2.77-8.42-5.86-6.44-12.9,1.16-4.12,2.81-8.14,4.65-12.01,5.19-10.88,10.51-21.71,15.97-32.47,2.29-4.5,4.97-8.82,7.66-13.09,2.53-4.02,9.8-3.92,12.31.2,3.11,5.11,6.21,10.25,8.89,15.59,5.72,11.37,11.23,22.86,16.69,34.36,1.22,2.57,2.15,5.34,2.78,8.12,1.53,6.71-.15,9.71-6.65,12.16.27.83.48,1.71.83,2.52,2.05,4.72,4.28,9.37,6.13,14.16,1.08,2.8,1.85,5.78,2.29,8.74.43,2.92-.63,5.55-3.28,7.17-2.59,1.59-5.17,1.08-7.65-.41-.41-.25-.87-.42-1.89-.9.57,1.64.98,2.77,1.37,3.91,1.88,5.58,4.07,11.08,5.54,16.77,1.62,6.25-.89,9.01-7.34,8.96-.15,0-.29.13-.72.34.27.96.43,2.03.85,2.97,3.39,7.53,6.83,15.04,10.26,22.56.24.54.55,1.05.78,1.59,1.66,3.83.73,7.7-2.32,9.7-2.92,1.91-6.75,1.23-9.57-1.79-5.22-5.6-10.32-11.3-15.62-16.83-1.91-2-4.16-3.7-6.41-5.33-.55-.4-1.96-.35-2.49.08-7.79,6.34-15.35,12.9-21.15,21.26-2.62,3.79-6.89,4.69-10.21,2.67-3.23-1.96-4.07-6.15-2.14-10.36,3.62-7.89,7.21-15.79,10.78-23.71.4-.88.55-1.87.79-2.74-.4-.22-.56-.39-.68-.37-6.36.92-8.9-3.88-7.46-8.77,1.74-5.88,3.84-11.66,5.8-17.48.33-.99.71-1.95,1.32-3.6ZM317.08,269.22c-.24-1.18-.29-1.66-.43-2.11-1.99-6.6-5.03-12.64-9.09-18.25-2.04-2.83-3.87-6.01-4.93-9.31-1.76-5.49.8-8.61,6.46-8.77.12,0,.24-.21.51-.46-4.66-9.45-9.34-18.95-14.15-28.71-4.87,9.88-9.55,19.39-14.31,29.04,6.07.35,8.35,2.98,7.34,8.17-.25,1.31-.68,2.64-1.32,3.8-1.26,2.29-2.58,4.56-4.12,6.66-3.63,4.94-6.53,10.23-8.25,16.14-.31,1.06-.66,2.1-.99,3.15,1.46-.53,2.4-1.34,3.42-2.04,3.59-2.46,7.48-2.48,10.04-.11,2.63,2.42,2.87,5.68.74,9.72-1.81,3.43-3.62,6.85-5.38,10.31-.37.73-.51,1.58-.92,2.89.98-.46,1.36-.62,1.72-.82,2.76-1.47,5.53-1.68,8.08.31,2.63,2.05,3.25,4.95,2.34,7.99-.8,2.64-2,5.17-3.18,7.67-3.69,7.86-7.47,15.67-11.18,23.52-.4.85-.6,1.79-.94,2.81,3.99-2.32,7.68-4.45,11.35-6.61.28-.16.51-.45.68-.73.95-1.54,2.2-1.9,3.9-1.26.55.21,1.33.17,1.9-.04,1.6-.58,2.74-.18,3.73,1.18.42.58,1.13.97,1.76,1.36,2.71,1.68,5.44,3.32,8.17,4.98.57.35,1.14.69,1.71,1.03.03-1.5-.28-2.63-.78-3.67-3.71-7.76-7.51-15.47-11.15-23.26-1.24-2.65-2.54-5.41-2.98-8.25-.94-6,4.32-9.74,9.92-7.37.63.27,1.28.5,2.5.97-.61-1.54-.9-2.49-1.35-3.37-1.89-3.67-3.95-7.26-5.7-11-2.43-5.16,1.09-10.65,6.51-10.03,1.98.23,3.87,1.47,5.73,2.37.77.37,1.39,1.08,2.61,2.06Z" style="fill: #000; stroke-width: 0px;"/>
  <path d="M314.68,881.22c3.94,2.44,7.62,4.74,11.31,7.01,2.29,1.41,4.68,2.69,6.89,4.21,1.58,1.09,2.75,2.62,2.09,4.74-.66,2.1-2.5,2.93-4.37,2.78-3.15-.25-6.42-.56-9.36-1.62-7.61-2.75-15.01-6.07-22.61-8.84-1.88-.68-4.43-.69-6.3-.01-7.68,2.79-15.17,6.13-22.85,8.92-2.86,1.04-6.05,1.34-9.12,1.57-1.96.14-3.91-.64-4.5-2.93-.55-2.13.6-3.64,2.22-4.7,2.32-1.53,4.78-2.83,7.15-4.29,3.62-2.22,7.21-4.49,11.43-7.13-1-.63-1.46-.85-1.84-1.16-3.98-3.25-8.01-6.43-11.87-9.81-1.43-1.25-2.17-1.3-3.41.2-3.28,3.95-6.57,7.91-10.15,11.6-16.39,16.9-42.21,17.11-60.06,4.52-13.43-9.47-23.26-22.03-28.8-37.3-6.01-16.58-2.58-32.58,6.29-47.53.21-.36.49-.68.78-1,1.28-1.42,2.65-2.81,4.77-1.84,1.98.91,2.08,2.82,1.74,4.59-.45,2.39-1.03,4.79-1.86,7.08-3.01,8.27-3.72,16.82-2.74,25.44.45,3.95,1.45,8.13,3.37,11.55,6.14,10.93,13.57,20.92,23.66,28.68,8.23,6.34,17.72,8.27,27.71,7.35,8.08-.75,14.56-5.27,19.8-11.24,3.09-3.52,5.52-7.62,8.22-11.49.72-1.04,1.24-2.21,1.98-3.24,3.12-4.35,8.06-5.2,12.41-2.06,1.35.98,2.57,2.19,3.67,3.46,5.99,6.93,13.67,11.18,22.22,13.93,1.79.58,4.09.56,5.88-.01,8.65-2.76,16.4-7.08,22.35-14.16.49-.58,1.04-1.11,1.58-1.64,5.43-5.25,11.38-4.39,15.34,2.01,2.66,4.29,5.29,8.66,8.51,12.51,12.56,15.04,30.92,15.14,45.69,6.23,8.9-5.37,15-13.53,20.8-21.83,3.01-4.3,5.87-9.01,7.4-13.97,2.84-9.2,2.21-18.67-.42-27.95-.74-2.6-1.69-5.13-2.36-7.74-.4-1.53-.69-3.17-.61-4.73.15-2.86,2.88-4.11,5.06-2.27,1.38,1.17,2.6,2.7,3.44,4.3,10.15,19.3,11.38,38.47-.64,57.62-7.63,12.15-16.81,22.52-29.78,29.2-13.99,7.21-36.27,7.37-50.65-6.13-4.47-4.19-8.47-8.9-12.44-13.59-1.6-1.89-2.41-1.77-4.13-.21-3.61,3.28-7.49,6.25-11.26,9.36-.43.35-.81.77-1.63,1.55Z" style="fill: #000; stroke-width: 0px;"/>
  <path d="M267.61,94.44c-2.83-.73-5.48-1.22-8-2.1-2.77-.97-5.57-2.02-8.07-3.51-3.94-2.35-5.35-6.35-3.31-10.49,1.44-2.93,3.49-6.01,6.09-7.85,8.25-5.83,16.87-11.12,25.37-16.6,2.18-1.4,4.43-2.7,7-4.27-1.03-.69-1.65-1.24-2.38-1.59-7.84-3.72-15.63-7.54-23.57-11.02-2.06-.9-4.58-.97-6.89-.99-3.28-.02-6.56.41-9.85.54-2.67.11-4.51-1.34-4.76-3.53-.24-2.1,1.08-3.61,3.6-4.48.7-.24,1.54-.99,1.73-1.67.65-2.3,2.13-3.59,4.32-4.16,1.14-.29,2.32-.58,3.48-.58,10.95,0,21.9.1,32.86.06,8.25-.03,16.49-.31,24.74-.31,9.77,0,19.55.09,29.32.35,3.33.09,6.34,1.16,7.15,5.16.11.53,1.19.99,1.9,1.23,2.3.79,3.53,2.41,3.25,4.47-.28,2.05-1.95,3.5-4.32,3.43-3.54-.1-7.07-.49-10.6-.58-1.74-.05-3.7-.15-5.21.54-8.68,3.9-17.25,8.03-25.86,12.09-.36.17-.64.5-1.28,1.03,1.08.69,1.96,1.25,2.84,1.81,9.59,6.11,19.28,12.08,28.71,18.44,2.49,1.68,4.56,4.3,6.14,6.9,2.96,4.88,1.68,9.88-3.39,12.44-3.94,1.99-8.35,3.04-12.56,4.47-.85.29-1.75.44-2.49.62,2.15,4.4,4.03,8.69,6.28,12.78,4.79,8.7,9.74,17.31,14.69,25.92.87,1.51,1.64,2.99.06,4.29-1.59,1.31-2.99.32-4.18-.94-4.7-4.95-9.72-9.64-13.97-14.95-3.02-3.76-5.54-8.13-7.32-12.61-2.66-6.69-7.25-9.68-14.18-10.78-7.5-1.19-14.75-.79-22.09.67-4.66.93-8.16,3.28-9.8,7.8-3.92,10.8-11.53,18.87-19.5,26.7-1.2,1.18-2.35,2.42-3.56,3.59-1.15,1.12-2.68,1.73-3.74.37-.62-.8-.62-2.56-.18-3.57.76-1.75,2.25-3.16,3.16-4.86,4.77-8.9,9.44-17.86,14.18-26.78,1.29-2.44,2.7-4.81,4.24-7.53ZM295.36,85.44c0-.17.01-.33.02-.5,6.75,0,13.51.27,20.23-.09,5.19-.28,10.39-1.09,15.48-2.16,3.92-.82,4.21-2.03,1.28-4.66-2.99-2.69-6.21-5.22-9.63-7.31-8.42-5.14-16.99-10.03-25.57-14.89-.88-.5-2.51-.55-3.37-.07-8.59,4.85-17.18,9.71-25.57,14.89-3.69,2.28-7.07,5.14-10.34,8.02-2.09,1.84-1.77,2.82.82,3.69,2.07.69,4.22,1.42,6.37,1.55,10.09.62,20.19,1.03,30.28,1.52ZM313.81,34.78c-12.38-2.74-24.54-2.74-37.04-.47.53.45.8.76,1.14.94,5.37,2.81,10.72,5.66,16.16,8.33.8.4,2.15.24,3.02-.16,2.82-1.3,5.54-2.84,8.3-4.28,2.81-1.46,5.62-2.91,8.43-4.37Z" style="fill: #000; stroke-width: 0px;"/>
  <path d="M427.51,340.41c-14.38-1.03-28.76-2.02-43.13-3.11-2.34-.18-4.67-.73-6.97-1.23-15.69-3.44-25.16-13.62-30.34-28.29-3.79-10.73-5.47-21.92-6.75-33.16-1.72-15.17-3.51-30.31-3.57-45.63-.08-19.66,4.63-38.06,12.94-55.7,1.19-2.52,2.33-5.06,3.54-7.56.47-.98.95-2.01,1.68-2.8,1.41-1.53,3.18-2.02,4.98-.72,1.79,1.28,2.12,3.19.98,4.94-10.76,16.57-12.58,35.46-14.06,54.38-1.28,16.34.91,32.51,3.31,48.63,1.41,9.42,2.52,18.92,4.57,28.21,3.72,16.84,13.69,25.3,30.95,26.38,13.63.85,27.31,1.04,40.97,1.51.76.03,1.52.01,2.28.03,17.13.36,34.23.58,51.21-2.58,3.68-.69,7.58-.52,11.35-.3,4.94.29,8.84,2.64,11.2,7.14,1.93,3.69.52,6.43-3.63,6.71-6.9.47-13.89.22-20.7,1.21-16.89,2.45-33.82,1.97-50.8,1.96Z" style="fill: #000; stroke-width: 0px;"/>
  <path d="M161.14,339.46c-16.1.98-32.18,1.37-48.22-.99-6.31-.93-12.78-.73-19.18-1.08-2.33-.13-4.99.13-6.09-2.6-1.09-2.68.62-4.75,2.17-6.61,2.62-3.14,6.15-4.92,10.2-4.81,5.97.15,11.92.76,17.88,1.2,8.14.61,16.28,1.83,24.42,1.76,20.57-.17,41.14-.9,61.7-1.46,2.26-.06,4.54-.39,6.77-.81,13.05-2.49,21.61-10.12,24.71-23.03,2.04-8.5,3.2-17.23,4.49-25.89,2.48-16.6,4.75-33.19,4.3-50.08-.47-17.4-3.98-34.12-9.7-50.45-.71-2.01-2.17-3.76-3.3-5.62-.56-.93-1.64-1.84-1.62-2.75.02-1.36.42-3.32,1.34-3.89,1.07-.64,2.93-.22,4.36.12.64.15,1.18,1.17,1.55,1.9,9.11,17.89,16.07,36.49,16.99,56.75.41,9.15.16,18.41-.72,27.53-1.44,14.93-3.28,29.84-5.69,44.64-1.13,6.91-3.4,13.8-6.22,20.22-5.61,12.76-15.62,20.76-29.49,22.8-10.9,1.61-21.95,2.32-32.95,3.08-5.87.41-11.8.07-17.7.07Z" style="fill: #000; stroke-width: 0px;"/>
  <path d="M418.24,271.81c-.71-1.27-.94-1.88-1.33-2.35-7.73-9.36-15.21-18.94-23.3-27.99-5.83-6.52-12.46-12.32-18.72-18.46-1.32-1.3-2.75-2.53-3.85-4-2.27-3.05-2.22-6.61-.1-9.12,2.13-2.53,5.67-3.32,9-1.7,2.26,1.1,4.38,2.53,6.47,3.94,15.85,10.68,28.46,24.72,40.6,39.26,6.54,7.83,13.44,15.35,19.96,23.2,5.92,7.13,11.65,14.43,17.25,21.82,2.9,3.83,2.47,8.54-.5,11.61-2.93,3.02-7.78,3.81-11.3.87-9.92-8.28-22.03-11.89-33.69-16.48-4.63-1.82-9.24-3.78-14.01-5.15-4.91-1.4-10.03-2.04-15.01-3.23-3.66-.87-7.35-1.8-10.81-3.22-2.65-1.09-4.48-3.41-4.53-6.5-.05-3.18,2.08-5.05,4.56-6.5,4.63-2.7,9.69-3.25,14.93-2.71,7.2.74,14.03,2.83,20.67,5.64.93.4,1.96.57,3.7,1.07Z" style="fill: #000; stroke-width: 0px;"/>
  <path d="M173.41,271.78c1.06-.35,2.11-.75,3.19-1.05,6.47-1.84,12.88-3.93,19.43-5.4,4.92-1.1,9.95-.56,14.56,1.76,1.48.74,2.94,1.72,4.07,2.9,2.53,2.63,2.74,6.17.02,8.55-2.26,1.98-5.19,3.32-7.99,4.55-1.64.72-3.64.62-5.45.99-5.02,1.01-10.22,1.54-15,3.23-11.36,4.01-22.62,8.36-33.73,13.04-4.36,1.84-8.19,4.93-12.26,7.46-1.07.66-2.08,1.46-3.22,1.97-3.44,1.54-7.16.94-9.63-1.54-2.65-2.67-3.23-5.91-1.91-9.34.65-1.69,1.7-3.31,2.87-4.72,11.42-13.74,22.96-27.38,34.35-41.15,9.1-10.99,18.28-21.9,29.23-31.11,5.02-4.23,10.44-7.98,15.74-11.88,1.14-.84,2.46-1.5,3.78-2.02,3.36-1.33,6.77-.47,8.71,2.05,1.87,2.44,1.87,6.23-.28,8.97-1.34,1.71-2.96,3.24-4.61,4.67-12.91,11.23-24.13,24.01-34.52,37.56-2.1,2.74-4.36,5.37-6.52,8.07-.48.59-.85,1.27-1.27,1.91.14.18.29.37.43.55Z" style="fill: #000; stroke-width: 0px;"/>
  <path d="M51.88,352.95c.36-1.25.85-3.66,1.73-5.92,6.06-15.42,13.61-30.1,22-44.38,16.48-28.03,34.16-55.25,54.61-80.55,11.82-14.62,24.09-28.91,38.76-40.87,9.84-8.02,20.1-15.35,32.07-19.96,5.46-2.1,11.1-2.86,16.87-2.43,1.11.08,2.67,1.26,3.01,2.27.24.71-1,2.61-1.96,2.95-22.65,8.22-40.1,23.78-56.09,40.87-33.29,35.58-61.17,75.15-84.23,118.1-5.26,9.8-10.99,19.35-16.55,28.99-.81,1.41-1.12,2.54-.24,4.17.49.91.21,2.84-.49,3.6-.68.75-2.5,1.09-3.55.76-4.68-1.51-6-3.12-5.96-7.61Z" style="fill: #000; stroke-width: 0px;"/>
  <path d="M375.73,158.75c10.49-.17,19.55,4.21,28.14,9.49,16.54,10.15,30.39,23.39,43.24,37.86,26.07,29.35,47.55,61.89,67.55,95.5,8.08,13.58,15.32,27.58,21.32,42.2,1.24,3.02,2.28,6.2,2.85,9.4.7,3.97-3.33,7.95-7.38,7.77-2.42-.11-3.55-2.61-2.54-5.14.37-.93.56-2.38.09-3.15-15.12-25.35-27.91-52.05-44.76-76.39-18.89-27.29-38.46-54.03-62.08-77.52-11.89-11.82-25.04-22.1-39.71-30.29-3.13-1.75-6.67-2.76-10.04-4.07-1.71-.67-3.31-1.65-2.54-3.64.36-.93,1.94-1.54,3.09-1.97.81-.3,1.83-.06,2.76-.06Z" style="fill: #000; stroke-width: 0px;"/>
  <path d="M360.52,373.39c9.6.73,18.6,1.36,27.58,2.15,1.72.15,3.55.62,5.03,1.46,4.28,2.45,4.09,8.22-.33,10.4-1.61.79-3.53,1.18-5.35,1.31-9.5.67-19.01,1.17-28.51,1.77-5.8.37-11.63.56-17.39,1.27-7.45.92-8.71,3.63-4.57,9.81,2.14,3.19,4.83,6.05,7.45,8.89,5.43,5.88,11.23,11.43,16.41,17.52,5.41,6.36,9.01,13.81,10.95,22,1.33,5.62,1.23,11.25-.42,16.75-1.64,5.48-4.82,9.69-10.81,10.86-4.11.8-6.19-1.44-5.28-5.49.2-.9.43-1.83.85-2.64,3.63-7.01,2.2-13.99-.37-20.81-2.63-6.97-7.13-12.76-12.4-17.98-7.19-7.14-14.12-14.49-19.41-23.22-2.71-4.47-4.06-9.21-3.8-14.43.29-5.88,2.83-10.55,7.7-13.8,5.68-3.8,12.04-5.64,18.85-5.79,4.8-.11,9.61-.02,13.82-.02Z" style="fill: #000; stroke-width: 0px;"/>
  <path d="M230.42,373.4c4.49,0,9.3-.07,14.1.02,5.93.11,11.49,1.71,16.67,4.58,9.77,5.41,12.65,17.13,6.77,27.69-4.22,7.57-9.74,14.14-15.8,20.3-5.5,5.59-11.07,11.07-14.89,18.09-2.98,5.48-4.43,11.28-4.59,17.43-.04,1.71.53,3.47,1.01,5.15.52,1.86,1.41,3.63,1.85,5.5.94,4.03-1.23,6.2-5.34,5.44-4.22-.78-7.16-3.36-9.08-7.02-3.16-6.01-3.47-12.5-2.25-18.99,2.36-12.57,9.29-22.62,18.11-31.54,4.21-4.26,8.54-8.4,12.56-12.83,2.24-2.47,4.19-5.29,5.84-8.19,1.95-3.43.95-5.85-2.91-6.57-5.04-.93-10.17-1.44-15.29-1.78-10.93-.73-21.88-1.2-32.81-1.88-1.91-.12-3.88-.47-5.66-1.12-2.48-.91-4.01-2.84-4-5.59,0-2.74,1.53-4.62,4-5.61,1.31-.52,2.76-.83,4.16-.95,9.07-.75,18.15-1.41,27.56-2.13Z" style="fill: #000; stroke-width: 0px;"/>
  <path d="M277.29,446.91c2.91.38,7.91,1.19,12.94,1.61,3.49.29,7.05.25,10.55-.02,4.95-.38,9.87-1.24,14.82-1.62,5.11-.4,6.61,1.04,7.67,6.07.19.88,1.36,1.85,2.29,2.22,4.38,1.76,8.97,3.02,13.2,5.07,2.28,1.1,4.49,3.1,5.8,5.26,2.41,3.98-.05,8.39-4.7,8.91-1.79.2-3.7-.09-5.49-.49-12.17-2.68-24.31-5.51-36.5-8.1-1.97-.42-4.21-.11-6.24.31-10.15,2.08-20.27,4.29-30.39,6.5-1.97.43-3.88,1.16-5.85,1.6-4.65,1.02-8.45-.44-9.52-3.55-1.2-3.46.73-7.89,4.83-9.81,4.11-1.93,8.42-3.45,12.72-4.92,2.5-.85,4.52-1.44,4.49-4.91-.03-2.95,2.96-4.37,9.37-4.13Z" style="fill: #000; stroke-width: 0px;"/>
  <path d="M316.69,524.07c-9.35,0-18.71-.08-28.06.03-5.81.07-11.63.64-17.44.59-2.35-.02-4.85-.74-6.99-1.75-4.27-2.02-4.98-5.82-2.09-9.62,2.94-3.87,7.13-6.1,11.72-6.2,14.42-.33,28.85-.36,43.26,0,4.73.12,9.15,2.36,12.02,6.57,2.46,3.6,1.78,7.32-2.18,9.1-3.12,1.4-6.69,1.83-10.06,2.69-.06-.47-.12-.95-.18-1.42Z" style="fill: #000; stroke-width: 0px;"/>
</svg>