<?xml version="1.0" encoding="UTF-8"?>
<svg id="Layer_1" data-name="Layer 1" xmlns="http://www.w3.org/2000/svg" viewBox="0 0 514.05 900">
  <path d="M445.7,425.21c.75,1.34,1.23,2.42,1.9,3.38,7.46,10.65,15.63,20.7,24.92,29.82,18.56,18.21,23.77,41.19,23.09,66.07-.26,9.75-5.76,16.93-13.18,22.79-8.31,6.56-16.95,12.77-24.77,19.87-9.41,8.54-17.89,18.05-23.66,29.56-1.61,3.21-2.78,6.72-3.66,10.21-4.29,17.16-9.29,34.01-16.98,50.06-7.38,15.4-10.78,31.97-12.16,48.93-1.27,15.69-2.3,31.4-3.47,47.1-1.24,16.65-2.11,33.34-7.25,49.45-1.37,4.29-1.93,8.92-2.27,13.44-.93,12.3-5.02,23.42-11.64,33.73-5.86,9.12-12.4,17.61-20.78,24.62-3.43,2.87-6.5,6.19-9.53,9.49-6.26,6.81-13.9,11.01-23.04,12.22-10.96,1.46-21.92,3.06-32.93,3.84-10.4.74-20.26-2.07-29.42-7.04-2.61-1.41-4.91-1.45-7.54.01-13.09,7.29-27.22,8.26-41.71,6.41-7.1-.9-14.15-2.17-21.22-3.32-8.47-1.38-15.67-5.12-21.66-11.35-4.22-4.4-8.63-8.65-13.12-12.77-10.94-10.05-19.03-22.1-25.03-35.57-3.13-7.04-4.25-14.61-4.77-22.29-.23-3.3-.64-6.68-1.64-9.82-4.3-13.58-6.01-27.53-7.03-41.67-1.65-22.84-3.48-45.67-5.67-68.46-1.26-13.11-5.26-25.65-10.85-37.53-6.37-13.55-11.78-27.46-14.66-42.08-3.15-15.98-11.51-28.63-22.31-40.19-8.46-9.05-18.13-16.62-28.01-23.99-1.99-1.48-4.03-2.91-5.9-4.53-6.56-5.65-11.01-12.6-11.23-21.42-.45-18.1,1.76-35.85,11.75-51.41,4.85-7.55,11.09-14.35,17.4-20.79,7.35-7.49,13.15-16.09,19.47-24.33.48-.63.73-1.43,1.35-2.68-1.27.06-1.99-.04-2.64.14-13.22,3.65-26.68,2.74-40.11,2.17-7.7-.33-12.44-5.57-17.13-10.85-5.58-6.28-8.21-13.57-8.44-21.94-.62-22.78.09-45.49,5.24-67.75,1.85-8,5.29-15.7,8.66-23.25,6.64-14.89,12.62-30.14,22.27-43.49,3.8-5.26,7.82-10.36,11.53-15.68,1.84-2.65,3.51-5.5,4.73-8.48,5.38-13.15,12.99-25.03,20.42-37.05,4.8-7.76,8.93-15.95,13.02-24.12,3.87-7.74,7.53-15.61,10.89-23.59,9.8-23.27,19.32-46.66,29.12-69.93,7.78-18.48,18.91-34.9,32.15-49.84,11.84-13.36,27.03-21.45,44.28-25.34C229.54-.11,256.93-1.59,284.46,1.72c10.4,1.25,20.88,2.69,30.98,5.35,19.55,5.14,34.94,16.5,47.48,32.55,15.85,20.3,26.68,43.06,35.82,66.84,4.76,12.38,9.26,24.86,14.44,37.06,4.35,10.24,9.93,19.95,14.21,30.21,4.49,10.75,10.46,20.55,16.76,30.24,6.4,9.85,12.17,20.03,16.83,30.87,2.2,5.11,5.13,10.13,8.69,14.39,11.16,13.35,18.9,28.61,25.99,44.3,3.18,7.04,6.42,14.07,9.46,21.17,1.31,3.06,2.6,6.23,3.18,9.47,2.51,13.89,5.37,27.75,5.51,41.96.09,9.16.02,18.33.22,27.49.27,12.48-6.11,21.56-14.88,29.36-3.63,3.23-8.18,4.28-13.01,4.46-13.08.5-26.14,1-38.95-2.55-.24-.07-.53.1-1.5.3ZM21.25,375.46c.2.02.4.04.6.07,0,5.44-.21,10.89.05,16.32.33,6.7,3.79,13.95,13.22,12.99,3.68-.38,7.44.06,11.16-.07,9.16-.32,18.07-1.55,25.75-7.25,2.21-1.64,4.61-3.12,7.12-4.21,8.81-3.82,18.54-5.36,26.77-10.68.39-.25.89-.33,1.35-.46,6.98-1.92,13.01,2.8,12.82,10.05-.03,1.05-.27,2.16,0,3.13.98,3.44-.43,5.8-2.89,8.05-7.97,7.27-15.85,14.63-23.7,22.03-1.94,1.82-3.8,3.77-5.41,5.88-7.52,9.86-14.88,19.84-22.42,29.69-2.26,2.95-4.69,5.82-7.37,8.37-12.35,11.73-17.52,26.49-18.65,43.05-.16,2.4.47,4.34,2.2,5.92,6.83,6.22,13.39,12.78,20.59,18.54,21.53,17.24,37.56,38.34,46.8,64.45,5.69,16.09,11.02,32.33,17.2,48.24,12.28,31.63,16.21,64.42,15.06,98.07-.31,9.06-.47,18.14-.07,27.19.36,8.08,1.32,16.16,2.55,24.15.7,4.55,3.14,8.82,2.2,13.68-.12.61.16,1.32.37,1.95,5.32,15.97,13.6,30,26.73,40.89,4.11,3.41,8.06,7.01,11.98,10.64,2.56,2.37,5.46,3.75,8.91,4.12,6.45.7,12.88,1.71,19.35,2.13,6.64.42,13.34.62,19.98.29,5.08-.26,9.22-2.76,11.71-7.57,1.36-2.64,3.8-4.04,6.74-4.24,2.85-.19,5.71-.16,8.56-.19,4.24-.03,7.2,2.04,9.29,5.63,1.66,2.84,4.02,4.99,7.31,5.52,4.12.66,8.33,1.52,12.44,1.26,10.56-.68,21.12-1.7,31.6-3.11,2.8-.37,5.58-2.3,7.95-4.08,3.19-2.39,5.81-5.54,8.96-7.99,13.83-10.78,23.17-24.64,28.77-41.14.49-1.43,1.34-3.04,1.06-4.37-.86-4.11.67-7.68,1.75-11.43.84-2.92,1.7-5.94,1.86-8.94.64-12.19,1.19-24.39,1.44-36.59.19-9.44-.27-18.9-.16-28.34.28-25.44,5.07-50.05,13.72-73.97,5.42-14.98,10.91-29.94,15.82-45.09,9.65-29.81,26.71-54.16,51.69-73.14,6.57-4.99,12.24-11.16,18.31-16.8,1.89-1.76,2.56-3.94,2.13-6.5-.22-1.31-.3-2.65-.45-3.98-1.48-12.82-5.41-24.73-14.51-34.16-11.65-12.07-20.98-25.95-31.36-39.01-2.78-3.49-5.68-6.93-8.88-10.02-7.62-7.35-15.49-14.46-23.19-21.73-1-.95-2.33-2.31-2.3-3.45.1-3.94.02-8.12,1.32-11.75,2.09-5.86,9.08-7.13,15.34-3.85,3.93,2.06,8.19,3.5,12.3,5.23,5.43,2.28,10.98,4.33,16.27,6.92,5.79,2.83,10.84,7.41,17.62,7.84,8.56.55,17.13.98,25.7,1.05,1.94.02,4.33-1.21,5.73-2.63,2.8-2.85,4.27-6.61,4.28-10.65.03-8.02.2-16.06-.37-24.04-.92-12.94-2.31-25.85-3.68-38.75-.43-4.06-.91-8.25-2.32-12.03-4.78-12.77-9.69-25.51-15.16-38-2.73-6.23-6.72-11.92-10.25-17.79-2.26-3.76-5.22-7.17-6.97-11.14-5.09-11.55-13.13-21.01-21-30.56-6.46-7.83-12.83-15.66-17.12-24.93-4.69-10.14-9.63-20.17-13.8-30.52-8.32-20.62-16.56-41.28-24.12-62.18-6.42-17.77-15.37-33.94-26.28-49.32-13.16-18.55-30.95-28.69-53.09-31.88-2.03-.29-4.28-.27-6.23.3-3.93,1.14-7.74.87-11.59-.05-15.41-3.68-30.81-3.7-46.23-.08-4.04.95-8.04,1.37-12.15.07-1.59-.5-3.44-.59-5.1-.36-15.97,2.17-30.92,7.29-42.43,18.87-14.3,14.4-25.43,31.19-32.95,50.14-13.33,33.61-24.93,67.91-40.67,100.56-5.07,10.52-11.45,19.94-18.84,28.9-6.54,7.93-13.09,16.03-18.24,24.86-4.23,7.25-8.15,14.64-13.17,21.4-1.19,1.6-2.45,3.23-3.26,5.04-9.75,21.8-21.26,42.95-22.32,67.73-.54,12.65-2.44,25.24-3.72,37.86Z" style="fill: #000; stroke-width: 0px;"/>
  <path d="M183.34,733.88c0-10.31.35-20.63-.08-30.92-.62-14.58-1.94-29.13-2.72-43.71-.55-10.19-.42-20.43-1.13-30.61-.52-7.48-1.52-14.98-3.02-22.32-1.85-9.1-7.97-14.31-16.86-16.82-8.53-2.41-16.98-5.15-25.31-8.18-4.27-1.55-8.36-3.78-12.24-6.17-8.8-5.42-13.31-13.4-13.34-23.82-.03-11.39,2.75-21.7,10.99-30.09,2.2-2.24,4.16-4.73,6.13-7.18,1.74-2.15,1.39-2.85-1.29-3.74-6.42-2.13-12.91-4.11-19.17-6.63-4.94-1.98-8.97-5.44-11.98-9.91-4.86-7.24-5.74-14.99-1.88-22.82,4.68-9.5,11.72-16.93,21.42-21.48,8.86-4.15,18.09-4.58,27.35-1.52,6.7,2.21,13.32,4.7,19.89,7.28,10.33,4.06,16.58,11.91,19.86,22.28,1.58,5-.47,9.24-5.43,10.99-2.62.92-3.46,1.89-2.7,4.93,1.37,5.47-1.19,9.84-5.37,13.3-4.7,3.9-9.7,7.47-14.1,11.68-5.56,5.33-10.77,11.04-15.88,16.81-2.94,3.32-3.98,7.54-4.12,11.96-.11,3.71.64,5.48,4.3,6.46,6.61,1.77,13.36,3.02,20.08,4.4,7.09,1.45,14.23,2.69,21.3,4.26,2.36.52,3.62-.16,3.92-2.34,1.12-7.92,2.14-15.86,3.15-23.8.14-1.13-.05-2.31.12-3.43.88-5.72.61-10.92-2.44-16.38-2.88-5.16-2.67-11.23.69-16.71.77-1.26,1.16-2.81,1.52-4.27,1.96-8.14,8.55-12.44,16.76-10.75,1.86.38,3.66,1.08,5.49,1.61,3.57,1.04,7.09,2.37,10.73,3.03,12.29,2.23,24.62,4.25,36.94,6.29,1.3.21,2.69.23,3.98,0,8.17-1.4,16.33-2.92,24.5-4.36,2.54-.44,5.13-.58,7.64-1.13,4.93-1.06,9.83-2.27,14.72-3.49,2.49-.62,4.91-1.65,7.43-2.07,7.95-1.35,14.37,3.26,15.95,11.16.29,1.47.78,2.97,1.5,4.28,3.6,6.64,2.71,13.15-.8,19.37-1.4,2.49-1.93,4.75-1.53,7.56.51,3.58.33,7.25.77,10.84.92,7.47,2,14.92,3.13,22.36.3,1.99,1.48,2.77,3.72,2.33,9.72-1.92,19.5-3.57,29.21-5.5,4.29-.86,8.52-2.06,12.71-3.32,2.91-.87,4.14-3.02,4.04-6.14-.18-5.28-2.08-9.81-5.31-13.91-6.24-7.94-13.62-14.66-21.62-20.77-2.73-2.08-5.35-4.32-7.92-6.6-4.21-3.73-5.96-8.4-4.45-13.91.57-2.09-.28-2.7-1.89-3.34-6.9-2.74-8.46-6.86-5.75-13.79,4.18-10.67,11.74-17.61,22.5-21.28,4.7-1.6,9.35-3.32,13.99-5.08,22.06-8.36,41.65,3.1,51.22,22.1,5.04,9.99,2.31,20.74-6.4,27.82-3.28,2.67-7.06,4.94-10.96,6.58-4.99,2.1-10.32,3.41-15.51,5.02-2.86.89-3.16,1.59-1.25,3.91,3.15,3.84,6.61,7.43,9.53,11.43,7.87,10.79,9.25,22.96,5.8,35.45-2.42,8.77-9.53,14.03-17.58,17.35-9.24,3.81-18.6,7.71-28.28,9.96-14.03,3.26-20.21,12.32-22,25.49-.77,5.66-.94,11.4-1.27,17.11-1.12,19.72-2.33,39.43-3.21,59.16-.57,12.77-.54,25.57-.95,38.34-.49,15.17-1.05,30.33-1.84,45.48-.15,2.96-1.47,5.85-2.25,8.78-1.1,4.12-3.03,8.22-3.15,12.36-.26,9.76-4.75,17.64-10.12,25.08-5.81,8.05-14.33,11.38-24.03,10.82-9.7-.57-19.34-2.2-29.04-2.75-5.17-.29-10.41.77-15.62,1.12-8.08.54-16.19,1.6-24.24,1.3-9.76-.36-16.97-5.7-21.76-14.21-.33-.58-.62-1.2-1.03-1.72-4.55-5.89-6.33-12.59-6.8-19.98-.27-4.16-2.08-8.22-3.17-12.33-.73-2.74-1.91-5.47-2.06-8.24-.74-13.44-1.19-26.89-1.75-40.33-.14,0-.27,0-.41,0ZM249.69,673.86c0,1.03-.02,1.93,0,2.82.23,9.44.56,18.88.67,28.32.09,7.84-1.19,15.39-5.7,22.08-2.56,3.8-5.76,6.5-10.67,5.71-4.83-.78-7.2-4.29-7.97-8.67-1-5.7-1.93-11.48-2.04-17.25-.19-9.72.31-19.44.47-29.17.03-1.85-.18-4.19-2.39-4.2-1.36,0-2.82,1.71-4.05,2.85-.47.43-.45,1.41-.62,2.15-1.13,4.73-1.95,9.56-3.44,14.16-3.76,11.6-5.38,23.36-4.18,35.55,1.46,14.8,3.03,29.59,3.89,44.43.57,9.91,4.42,18.66,7.89,27.61.85,2.18,2.33,3.71,4.9,3.72,3.81.02,7.63.16,11.44.08,7.44-.16,14.87-.63,22.3-.63,8.96,0,17.92.33,26.88.59,2.9.08,4.69-1.27,5.71-3.84,1.79-4.52,3.71-9,5.29-13.59.89-2.59,1.5-5.35,1.76-8.08,1.56-15.93,2.96-31.88,4.46-47.82,1.09-11.6.62-23.02-2.85-34.28-1.87-6.09-3.02-12.4-4.63-18.58-.32-1.21-1.12-2.41-2-3.34-1.96-2.1-4.44-1.37-5.07,1.44-.23,1.01-.27,2.09-.25,3.13.2,10.01.8,20.03.51,30.03-.17,5.83-1.12,11.82-2.88,17.37-2.36,7.44-10.96,8.91-15.92,2.92-3.72-4.49-6.77-9.65-6.86-15.72-.19-12.2-.03-24.4-.03-36.6,0-1.06-.12-2.12-.19-3.13-2.68.65-4.96,1.63-7.24,1.63-2.27,0-4.53-1.02-7.21-1.69ZM204.82,582.83c.13,1.15.09,1.74.27,2.25,1.26,3.6,2.71,7.14,3.83,10.77,4.93,15.93,8.15,32.16,8.63,48.89.15,5.27.48,5.47,5.63,5.48.29,0,.57.01.86,0,5.7-.3,9.42,2.41,11.51,7.6.43,1.08.93,2.13,1.64,3.75,2.17-3.28,4.59-4.77,7.94-4.92,3.38-.14,6.74-.78,10.11-1.09,1.31-.12,2.65-.03,3.96.1,3,.3,5.98.89,8.98,1,3.04.11,5.63.81,7.5,3.38.29.4.81.62,1.39,1.06.7-1.64,1.26-3.04,1.9-4.41,1.97-4.2,5.25-6.42,9.94-6.45,1.15,0,2.29.01,3.44,0,3.58-.05,4.12-.49,4.28-4.12.93-20.26,4.53-39.97,12.05-58.89.5-1.26.6-2.68.98-4.47-1.31.17-2.12.25-2.93.37-7.82,1.17-15.63,2.42-23.46,3.47-3.78.51-7.37-.22-10.72-2.26-1.62-.98-3.5-1.53-5.75-2.48,1.27,2.95,2.12,5.24,3.21,7.4,7.92,15.75,13.27,32.7,22.27,47.95.53.89.89,1.91,1.18,2.91.94,3.24-.15,5.93-2.63,6.66-2.56.75-4.9-.8-5.88-4.05-.46-1.55-.65-3.17-1.01-4.75-.43-1.85-.57-3.87-1.42-5.52-5.4-10.48-10.96-20.88-16.46-31.31-.29.03-.58.06-.87.09-1.43,5.01-3.8,9.8-3.14,15.31.28,2.37.71,4.73.75,7.1.07,4.33-2.27,7.1-5.75,7.13-3.6.03-5.93-2.8-5.92-7.27,0-1.24-.07-2.54.27-3.7,1.78-6.11-.49-11.66-2.21-17.29-.14-.45-.54-.83-.85-1.28-3.26,5.55-6.48,10.83-9.5,16.23-3.98,7.15-8.27,14.19-9.24,22.59-.16,1.4-.6,2.82-1.2,4.1-1,2.12-2.77,3.21-5.14,2.62-2.44-.61-3.49-2.59-3.04-4.82.46-2.28,1.52-4.47,2.54-6.59,1.2-2.48,2.8-4.78,3.94-7.28,4.35-9.65,8.59-19.34,12.87-29.02,2.43-5.5,4.87-11.01,7.61-17.22-2.1.89-3.75,1.34-5.13,2.22-3.83,2.45-8,3.1-12.36,2.49-7.36-1.02-14.7-2.21-22.04-3.33-.8-.12-1.61-.22-2.83-.39ZM203.77,552.03s.09.01.13.02c-.19,3.91-.35,7.81-.58,11.72-.1,1.69.52,2.87,2.24,3.07,4.62.54,9.25,1.11,13.9,1.39,4.17.25,8.37.03,12.56.21,1.66.07,2.74-.39,2.75-2.04.02-3.67.19-7.4-.38-11-.49-3.09-.35-5.89,1.1-8.58,1.5-2.79,5.02-4.12,7.29-2.28,3.49,2.83,7.11,5.71,7.47,10.93.23,3.4,1.08,6.77,1.79,10.12.52,2.4,3.25,5.07,5.01,4.69,2.4-.51,4.4-1.76,4.93-4.52.5-2.62,1.6-5.24,1.54-7.83-.13-5.22,2.55-8.77,5.93-12.15,2.95-2.95,7.09-2.5,9.1,1.17,1.53,2.8,1.46,5.72.95,8.87-.55,3.41-.35,6.95-.3,10.44.02,1.77,1.12,2.33,2.93,2.16,3.03-.28,6.09-.23,9.13-.38,5.21-.27,10.44-.43,15.62-.97,3.94-.4,4.19-.75,3.91-4.72-.89-12.56-1.91-25.11-2.92-37.65-.28-3.48-.54-3.56-4.13-3.22-11.2,1.06-22.38,2.35-33.6,3.04-19.97,1.22-39.82-.85-59.64-3.01-3.68-.4-3.82-.33-4.19,3.46-.87,9.02-1.69,18.04-2.52,27.06ZM158.08,484.45c.04-.42.09-.83.13-1.25-2.13-2.3-5.02-3.15-8.04-3.32-7.6-.45-15.21-.71-22.82-.99-.95-.03-1.9.34-3.55.66,3.63,3.17,7.13,4.4,11.15,4.58,5.13.24,10.24.78,15.37.94,2.58.08,5.17-.4,7.76-.62ZM389.57,480.14c-.03-.29-.07-.58-.1-.87-1.17-.15-2.35-.45-3.51-.42-6.57.2-13.14.32-19.69.82-2.79.21-5.54,1.17-8.25,1.99-.81.25-1.42,1.17-2.12,1.78.08.29.16.59.24.88,2.31.29,4.63.88,6.92.8,5.8-.2,11.58-.7,17.37-1.1,3.52-.24,6.53-1.63,9.14-3.89ZM256.99,598.32c.87-1.98,1.37-3.13,1.99-4.53h-4.08c.66,1.44,1.19,2.57,2.09,4.53Z" style="fill: #000; stroke-width: 0px;"/>
  <path d="M457.82,364.62c.86,5.78-.16,10.91-3.84,15.48-1.09,1.35-1.47,3.28-2.11,4.98-2.53,6.71-7.76,9.82-14.5,7.37-5.77-2.1-11.24-5.2-16.55-8.36-23.79-14.18-48.02-27.49-73.21-39.08-16.56-7.62-31.53-17.86-45.56-29.46-3.13-2.59-6.37-5.04-9.52-7.6-.65-.53-1.34-1.17-1.68-1.9-4.22-9.04-10.05-17.43-11.65-27.53-1.24-7.81-2.33-15.66-3.06-23.54-1.58-17-3.19-34.02-4.17-51.06-.55-9.58.13-19.24.25-28.86.01-.95-.04-1.91-.1-2.86-.65-10.98-.96-21.92,1.76-32.73,1.2-4.8.7-9.56-.43-14.42-2.21-9.55-1.48-18.96,2.78-27.95,3.93-8.28,10.25-12.79,19.63-12.73,4.57.03,9.15-.19,13.72-.36,10.58-.41,19.24,4.09,27.07,10.61,9.06,7.54,14.82,17.39,18.97,28.2,5.67,14.78,8.52,30.29,11.13,45.83,1.04,6.21,2.14,12.42,2.89,18.67.76,6.29,2.91,11.96,6.06,17.42,12.84,22.23,25.59,44.51,38.28,66.83,5.47,9.62,10.42,19.54,16.11,29.03,3.47,5.78,7.94,10.96,11.88,16.47,5.59,7.8,10.25,16.02,12.28,25.59,1.56,7.34,4.73,14.37,3.57,21.99ZM366.91,273.58s.07,0,.11,0c0,1.53-.01,3.05,0,4.58.12,12.11-7.07,19.89-19.23,20.8-18.54,1.39-35.13-12.25-37.07-30.75-.53-5-.54-10.11-.27-15.14.55-10.21,1.51-7.18-6.5-13.76-.71-.58-1.78-.73-2.68-1.07-.12.9-.47,1.84-.33,2.69,2.32,13.34,4.6,26.7,7.11,40.01,1.7,9,6.32,16.55,13.78,21.72,10.26,7.1,20.64,14.16,31.61,20.05,16.97,9.12,34.47,17.25,50.68,27.76,6.31,4.09,13.08,7.54,19.06,12.06,3.29,2.49,6.67,4.23,10.4,5.59,2.81,1.02,4.55.31,4.71-2.55.18-3.27.55-6.97-.72-9.79-3.16-7.01-6.88-13.82-10.94-20.36-8.24-13.29-16.86-26.35-25.3-39.52-6.23-9.72-12.34-19.51-18.74-29.12-1.01-1.51-3.17-2.72-5.01-3.12-2.75-.59-5.69-.28-8.54-.47-2.02-.14-2.81.72-2.65,2.68.21,2.57.36,5.14.53,7.71ZM357.85,237.01c2.16-.29,2.51-1.26,1.11-3.62-5.9-9.89-10.66-20.24-13.42-31.49-4.6-18.72-9.32-37.4-14.03-56.09-.46-1.83-.81-3.88-1.89-5.31-2.28-3.02-3.33-6.34-4-9.97-.46-2.48-1.14-5.08-2.41-7.22-2.28-3.85-5.07-7.39-7.66-11.05-2.75-3.89-4.86-3.95-7.75-.19-.57.75-1.01,1.62-1.41,2.47-2,4.22-4.1,8.4-5.92,12.71-1.25,2.97-2.67,6.04-3.03,9.18-1.47,12.71-2.29,25.46-.64,38.26,1.13,8.7,1.83,17.45,3.02,26.14.24,1.76,1.5,3.74,2.89,4.91,4.6,3.86,9.56,7.29,14.22,11.09,8.12,6.62,16.78,12.33,26.7,15.86,4.66,1.66,9.48,2.9,14.22,4.33ZM352.36,271.18c.06,0,.11,0,.17,0,0-2.29.02-4.57,0-6.86-.02-2.08-1-3.18-3.09-3.8-7.03-2.08-14.02-4.3-20.97-6.62-2.09-.7-2.93-.15-2.86,1.92.12,3.62.14,7.25.53,10.84,1.12,10.26,10.52,17.88,20.83,17.08,3.4-.27,5.06-1.72,5.35-5.14.21-2.46.04-4.95.04-7.42Z" style="fill: #000; stroke-width: 0px;"/>
  <path d="M55.34,364.46c.92-5.62,1.45-11.35,2.84-16.85,3.36-13.34,9.24-25.49,18.13-36.12,7.77-9.29,13.08-20.13,18.95-30.62,14.21-25.4,28.5-50.76,42.92-76.04,3.46-6.07,5.73-12.32,6.74-19.27,2.72-18.6,5.64-37.18,11.15-55.24,3.41-11.17,8.23-21.64,16.08-30.39,7.64-8.51,16.69-15.07,28.59-15.71,7.21-.39,14.51-.14,21.71.47,6.8.58,11.46,4.86,14.65,10.7,4.88,8.94,6.16,18.62,3.76,28.32-1.78,7.16-1.05,13.91,0,20.92.84,5.62,1.31,11.36,1.29,17.05-.03,11.26-1.02,22.53-.68,33.77.8,26.63-2.69,52.9-6.01,79.18-1.08,8.49-4.65,16.33-8.55,24.12-3.14,6.27-7.81,10.44-12.7,14.82-10.42,9.35-21.75,17.49-34.01,24.13-12.24,6.63-25.12,12.06-37.38,18.66-17.31,9.31-34.29,19.23-51.43,28.85-3.99,2.24-7.91,4.7-12.1,6.47-8.61,3.64-14.32.88-17.43-7.93-.47-1.34-.96-2.76-1.78-3.89-4.55-6.24-3.94-7.43-4.72-15.43ZM203.91,257.68c-.13,2.83-.03,6.68-.52,10.45-3.02,23.67-24.09,33.07-39.9,30.43-10.48-1.75-16.59-9.17-16.48-19.78.05-4.29.36-8.58.61-12.87.11-1.95-.61-2.82-2.66-2.68-2.66.19-5.39-.11-7.98.39-1.79.34-3.84,1.29-4.99,2.64-2.22,2.59-3.94,5.62-5.76,8.53-9.79,15.6-19.49,31.26-29.34,46.82-4.28,6.77-8.89,13.34-13.21,20.09-1.69,2.64-2.54,5.91-4.54,8.24-3.86,4.52-4.47,9.52-3.54,15.01.63,3.71,2.27,4.66,5.6,2.8,5.87-3.28,11.56-6.9,17.38-10.28,14.76-8.58,29.29-17.62,44.41-25.54,16.16-8.46,32.49-16.53,47.22-27.44,8.66-6.42,14.46-14.54,16.33-25.3,1.85-10.62,3.77-21.23,5.65-31.85.38-2.16.81-4.32,1.03-6.5.09-.85-.32-1.74-.51-2.62-.74.3-1.57.49-2.21.94-1.71,1.21-3.28,2.63-5.03,3.79-1.92,1.28-2.46,2.97-2.25,5.17.28,2.85.4,5.71.66,9.56ZM218.93,155.77c-.24-.03-.47-.06-.71-.08-.28-4.76-.25-9.57-.91-14.28-.62-4.39-1.6-8.82-3.12-12.98-1.8-4.91-4.32-9.55-6.6-14.27-.53-1.1-1.25-2.16-2.1-3.03-2.59-2.67-4.32-2.57-6.52.43-2.48,3.39-4.99,6.77-7.16,10.36-1.4,2.31-2.34,4.92-3.24,7.48-1.04,2.94-1.73,6.01-2.75,8.96-.89,2.58-2.34,4.99-3,7.61-4.05,16.1-7.86,32.26-11.91,48.35-3.46,13.75-7.95,27.11-15.65,39.18-.46.71-.43,1.74-.63,2.62.98.11,2,.49,2.92.3,11.28-2.26,21.8-6.46,31.14-13.19,7.59-5.46,14.83-11.39,22.33-16.97,2.36-1.76,3.41-3.8,3.6-6.72.36-5.71,1.04-11.39,1.61-17.08.89-8.9,1.81-17.8,2.71-26.7ZM161.53,271.14c.06,0,.13,0,.19,0,0,2.57-.12,5.14.03,7.7.16,2.72,1.73,4.3,4.45,4.78,8.58,1.54,19.57-5.53,21.19-14.11.86-4.55.79-9.27,1.05-13.92.1-1.75-.69-2.34-2.52-1.74-7.14,2.33-14.31,4.61-21.5,6.77-1.98.59-2.87,1.7-2.88,3.66-.01,2.28,0,4.57,0,6.85Z" style="fill: #000; stroke-width: 0px;"/>
  <path d="M228.51,61.6c-6.58,0-13.19-.43-19.72.13-5.37.46-10.64,2.1-15.96,3.23-4.26.9-8.51,1.15-12.72-.31-4.47-1.55-5.22-4.79-1.62-7.87,2-1.72,4.29-3.24,6.68-4.34,10.75-4.94,21.49-9.93,32.42-14.46,9.77-4.05,19.73-4.21,29.35.77,2.52,1.31,4.79,3.11,7.15,4.73,2.13,1.46,4.11,1.6,6.23-.13,11.51-9.37,24.18-10.61,37.58-4.88,10.61,4.54,21.11,9.37,31.56,14.26,2.37,1.11,4.6,2.76,6.51,4.56,2.82,2.66,2.04,5.71-1.56,7.14-4.05,1.61-8.22,1.52-12.41.68-2.53-.51-4.99-1.37-7.53-1.73-4.69-.65-9.4-1.28-14.12-1.49-7.04-.31-14.11-.4-21.16-.28-5.49.09-5.73.53-6.28,5.91-1.23,12.05-2.32,24.13-3.77,36.15-.62,5.09-1.69,10.18-3.11,15.12-2.61,9.05-4.25,18.18-3.69,27.63.05.85.03,1.72-.06,2.57-.08.75-.15,1.57-.49,2.22-1.78,3.4-4.99,1.24-7.5,1.63-.7.11-2.27-1.92-2.51-3.14-.47-2.4-.57-4.97-.32-7.41.68-6.61-.54-12.96-2.53-19.15-4.44-13.79-4.51-28.21-6.34-42.38-.65-5.02-1.13-10.05-1.6-15.09-.25-2.63-1.52-3.95-4.21-4.03-2.77-.07-5.53-.3-8.29-.46v.42Z" style="fill: #000; stroke-width: 0px;"/>
  <path d="M382.21,417.73c.03,10-3.96,16.54-9.7,18.8-6.51,2.57-13.9.87-18.89-4.43-1.44-1.52-2.98-3.06-3.98-4.86-5.61-10.18-13.85-18.17-21.85-26.34-13.31-13.59-24.1-29.01-33.89-45.23-3.1-5.14-6.66-9.99-9.93-15.02-1.14-1.75-2.28-3.56-3-5.5-.98-2.65.88-4.59,3.63-3.98,1.01.22,2.01.62,2.95,1.06,11.87,5.65,23.56,11.44,34.03,19.69,19.17,15.1,37.31,31.18,52.77,50.15,4.44,5.45,7.91,11.24,7.85,15.66Z" style="fill: #000; stroke-width: 0px;"/>
  <path d="M148.9,437.73c-10.35.08-17.5-8.42-16.71-18.38.68-8.63,5.69-14.74,10.87-20.92,17.48-20.85,38.1-38.21,60.04-54.08,3.52-2.55,7.58-4.36,11.46-6.39,3.38-1.76,6.84-3.37,10.28-5.01,1.2-.57,2.41-1.35,3.69-1.5,1.28-.16,3.13-.1,3.82.68.69.79.46,2.6.26,3.9-.15.98-.83,1.92-1.4,2.8-7.97,12.34-15.82,24.75-23.98,36.96-7.12,10.66-15.57,20.27-24.65,29.32-6.3,6.28-12.16,12.86-16.8,20.55-3.28,5.44-7.46,10.23-14.2,11.65-1.12.24-2.25.36-2.67.42Z" style="fill: #000; stroke-width: 0px;"/>
  <path d="M331.91,445.53c-.64,9.79-9.84,15.27-18.15,10.62-1.64-.92-3.19-2.14-4.47-3.52-8.51-9.15-17.05-18.26-25.34-27.61-6.22-7.01-12.31-14.33-13.69-24.02-1.05-7.32-1.41-14.75-1.91-22.14-.14-2.13.37-4.31,2.81-5.11,2.41-.79,3.95.76,5.43,2.32.72.76,1.52,1.47,2.13,2.32,7.62,10.66,17.84,18.73,27.24,27.64,3.44,3.25,6.52,6.98,9.28,10.84,4.49,6.28,8.74,12.74,12.76,19.32,1.74,2.85,2.63,6.21,3.91,9.34Z" style="fill: #000; stroke-width: 0px;"/>
  <path d="M246.15,383.51c.64,17.97-6.51,32.59-18.84,45.18-7.47,7.63-14.56,15.63-21.86,23.43-1.16,1.24-2.43,2.46-3.85,3.38-4.35,2.82-9.07,3.42-13.47.5-4.5-2.99-6.14-7.72-4.74-12.82.99-3.6,2.9-7.03,4.87-10.25,3.23-5.28,6.54-10.57,10.38-15.42,4.06-5.13,8.53-10,13.25-14.53,8.73-8.39,17.79-16.44,24.97-26.29.61-.83,1.4-1.59,2.23-2.2,2.58-1.88,5.47-.9,6.19,2.23.51,2.22.6,4.53.87,6.8Z" style="fill: #000; stroke-width: 0px;"/>
  <path d="M263.88,289.03c0,8.55.05,17.11-.02,25.66-.04,4.79,1.02,9.17,3.42,13.38,3.49,6.12,5.64,12.74,5.59,19.87-.07,9.25-6.92,16.39-15.57,16.45-8.79.06-15.8-7.09-15.88-16.46-.06-7.22,2.16-13.91,5.6-20.18,2.03-3.7,2.94-7.54,3.11-11.74.36-8.86.45-17.68-.33-26.54-.35-4.01.57-8.14,1.03-12.2.11-1.01.55-2.04,1.05-2.94,1.11-2,2.78-3.98,5.11-3.41,1.89.46,4.19,1.92,4.97,3.57,1.3,2.76,1.67,6,2.17,9.09.29,1.76.05,3.61.05,5.42-.1,0-.2,0-.31,0Z" style="fill: #000; stroke-width: 0px;"/>
  <path d="M29.1,377.3c.23-1.1.38-3.25,1.14-5.17,3.04-7.68,3.82-15.76,4.06-23.86.35-11.98,5.19-22.24,11.85-31.69,4.88-6.91,10.59-13.24,15.94-19.82,1.13-1.39,2.5-2.67,4.39-1.58,2.04,1.18,1.45,3.02.76,4.81-4.58,11.81-9.12,23.63-13.7,35.44-1.9,4.88-2.83,9.92-1.98,15.1,1.37,8.39.28,16.6-1.93,24.62-.93,3.36-2.93,6.6-5.08,9.4-2.72,3.56-6.69,4.34-10.23,2.85-3.25-1.37-5.29-4.94-5.22-10.11Z" style="fill: #000; stroke-width: 0px;"/>
  <path d="M484.91,377.35c-.02,5.63-2.08,8.94-5.64,10.24-3.54,1.29-7.57.25-10.1-3.37-2.03-2.91-3.86-6.18-4.82-9.57-2.38-8.42-3.23-17.08-1.57-25.76.8-4.17-.19-7.98-1.53-11.71-1.6-4.48-3.78-8.74-5.51-13.18-3.24-8.34-6.41-16.72-9.41-25.14-.34-.97.2-3.06.91-3.39.98-.46,2.58.1,3.78.55.72.27,1.23,1.17,1.77,1.83,5.05,6.2,10.39,12.2,15.07,18.68,7.65,10.58,12.17,22.34,12.24,35.65.04,6.6,1.24,13.06,3.56,19.32.82,2.2.99,4.64,1.24,5.87Z" style="fill: #000; stroke-width: 0px;"/>
  <path d="M292.2,841.7c7.73.71,13.83-3.19,19.4-7.64,4.55-3.63,9.32-6.5,14.73-8.56,4.08-1.55,8.01-3.51,11.94-5.42,1.73-.84,3.39-1.57,5.01-.08,1.64,1.51.99,3.22.24,4.99-4.85,11.49-13.31,20.29-23.24,26.98-8.72,5.89-18.88,9.81-30.04,5.33-1.98-.79-4.28-.81-6.45-1.09-3.67-.47-6.22-2.41-6.72-5.23-.52-2.96,1.11-6.15,4.56-7.42,3.32-1.23,6.9-1.77,10.37-2.61.06.25.13.5.19.75Z" style="fill: #000; stroke-width: 0px;"/>
  <path d="M214.23,859.45c-7.21-1.4-14.54-2.92-20.33-7.32-7.64-5.8-15-12.16-19.94-20.69-1.43-2.47-2.92-4.96-3.94-7.61-.41-1.07-.03-2.97.74-3.79.66-.71,2.6-.93,3.61-.51,7.01,2.97,13.95,6.1,20.84,9.33,1.79.84,3.31,2.23,5,3.29,4.57,2.88,9.02,6.02,13.83,8.43,2.22,1.11,5.18.67,7.78,1.07,3.63.57,7.37.86,10.8,2.03,3.37,1.14,4.75,4.24,4.25,7.29-.46,2.82-2.8,4.63-6.39,5.22-3.28.54-6.53,1.28-9.79,1.94-2.14.43-4.29.87-6.47,1.31Z" style="fill: #000; stroke-width: 0px;"/>
  <path d="M359.49,632.04c-.56-9.49,2.75-18.13,6.73-26.33,3.8-7.83,13.28-8.78,18.51-2.46,3.18,3.85,3.03,8.42,1.43,12.76-1.37,3.73-3.2,7.36-5.28,10.76-2.32,3.8-3.89,7.72-4.8,12.11-1.26,6.04-3.68,11.87-4.7,17.93-.94,5.57-.75,11.35-.96,17.03-.06,1.76-.24,3.41-2.26,3.73-2.16.34-3.37-1.18-3.35-3.03.15-14.42-4.29-28.25-5.32-42.51Z" style="fill: #000; stroke-width: 0px;"/>
  <path d="M143.84,668.31c.1-7.04-1.15-13.85-3.5-20.47-.26-.72-.62-1.43-.72-2.17-1.33-9.94-6.04-18.52-10.58-27.22-1.27-2.44-1.86-5.45-1.96-8.23-.18-4.81,3.18-9.2,7.35-10.54,4.33-1.4,9.27.16,12.28,3.99.87,1.11,1.66,2.35,2.21,3.65,4.85,11.37,7.29,23.04,4.49,35.4-.97,4.27-1.82,8.59-2.45,12.92-.64,4.41-.95,8.88-1.38,13.32-.2,1.99-.02,4.1-.65,5.93-.39,1.13-1.99,1.84-3.04,2.74-.8-1.12-2.1-2.15-2.29-3.37-.3-1.93.13-3.98.25-5.98Z" style="fill: #000; stroke-width: 0px;"/>
  <path d="M78.72,524.96c-6.93-.26-12.81-1.49-17.35-6.25-3.96-4.15-4.79-10.2-2.15-14.8,2.71-4.73,8.3-7.43,13.8-5.36,6.82,2.57,13.49,5.8,19.73,9.56,2.58,1.55,4.36,5,5.67,7.96,1.57,3.54-.47,6.69-4.16,7.18-5.38.72-10.79,1.2-15.54,1.71Z" style="fill: #000; stroke-width: 0px;"/>
  <path d="M434.49,524.86c-4.04-.44-9.55-.92-15.02-1.67-3.44-.47-5.09-3.38-4.06-6.85,1.22-4.1,3.77-7.39,7.47-9.41,5.1-2.78,10.32-5.38,15.67-7.65,6.74-2.86,13.27-.87,16.32,4.53,3.24,5.72,1.27,13.3-4.5,17.12-4.36,2.89-9.24,3.99-15.88,3.93Z" style="fill: #000; stroke-width: 0px;"/>
  <path d="M248.48,443.78c.17,1.7.2,3.43.53,5.1,1.25,6.32-.03,12.33-2.21,18.18-2.11,5.67-7.22,8.57-12.58,7.39-5.12-1.12-8.36-5.95-7.65-12.07.79-6.83,4.15-12.34,9.46-16.7,2.13-1.75,4.05-3.75,6.28-5.36,1.25-.9,3.25-2.01,4.29-1.57,1.06.46,1.38,2.69,1.99,4.16.1.24.01.56.01.85-.04,0-.08,0-.12,0Z" style="fill: #000; stroke-width: 0px;"/>
  <path d="M287.73,462.52c.02,6.45-3.06,10.76-7.83,11.93-4.71,1.15-9.74-1.22-11.96-6.16-2.52-5.62-3.89-11.53-3.14-17.79.32-2.64.16-5.35.59-7.96.23-1.41.95-3.28,2.03-3.85.85-.45,2.79.49,3.89,1.29,2.29,1.68,4.29,3.75,6.52,5.52,5.81,4.63,9.13,10.6,9.9,17.02Z" style="fill: #000; stroke-width: 0px;"/>
  <path d="M345.84,269.17c.06,5.48-3.63,9.46-8.62,9.3-5.34-.18-8.71-4.77-7.19-9.86.3-1,.71-1.97,1.16-2.91,2.06-4.29,4.87-5.96,8.46-5.09,3.7.9,6.15,4.28,6.19,8.57Z" style="fill: #000; stroke-width: 0px;"/>
  <path d="M168.14,269.39c0-4.2,2.19-7.6,5.74-8.61,1.06-.3,2.28-.42,3.37-.25,3.77.6,7.63,6.98,7.07,11.5-.46,3.74-4.13,6.62-8.19,6.44-4.63-.2-7.97-4.01-7.98-9.09Z" style="fill: #000; stroke-width: 0px;"/>
</svg>