<?xml version="1.0" encoding="UTF-8"?>
<svg id="Layer_1" data-name="Layer 1" xmlns="http://www.w3.org/2000/svg" viewBox="0 0 736.13 900">
  <path d="M687.09,371.22c4,12.69,4.72,25.79,2.3,39.01-2.71,14.77-8.98,27.51-21.17,36.95-1.78,1.38-2.78,3.92-3.79,6.09-7.22,15.53-10.29,32.12-11.13,49.03-1.08,21.75-7.47,41.89-16.3,61.55-5.17,11.52-9.89,23.26-14.28,35.11-4.12,11.14-8.54,22.34-10.99,33.9-2.58,12.15-3.2,24.73-4.28,37.16-1.21,13.9-2,27.79-5.89,41.34-4.4,15.33-8.04,30.88-12.28,46.27-10.43,37.89-26.74,72.8-53.31,102.25-16.45,18.23-37.18,28.31-61.71,29.33-15.35.64-30.76-.36-46.15-.35-9.87,0-19.77.17-29.6.95-3.86.31-8.38,1.59-11.18,4.05-5.52,4.85-11.79,6.12-18.53,6.14-7.29.03-14.17-.86-20.28-6.15-3.08-2.67-8.22-4.03-12.46-4.1-17.99-.31-36-.05-54,.25-24.11.41-47.28-2.43-67.54-17.23-11.94-8.72-20.99-20.02-29.43-31.88-12.8-17.98-22.56-37.43-30.22-58.21-6.67-18.12-10.96-36.71-15.18-55.41-.76-3.37-2.22-6.58-3.41-9.85-5.99-16.35-6.85-33.51-8.01-50.63-1.2-17.7-2.71-35.3-9.52-52.03-7.16-17.59-13.24-35.65-20.88-53.02-9-20.5-14.48-41.59-15.67-63.95-.87-16.22-4.85-31.85-11.37-46.77-.61-1.41-1.62-2.84-2.82-3.76-15.11-11.59-21.5-27.66-22.33-45.89-.42-9.15,1.6-18.4,2.54-27.61.1-.97.37-1.93.59-3-.7-.35-1.17-.74-1.7-.83-21.47-3.7-32.22-18.16-37.46-37.79-3.49-13.07-3.32-26.48-2.25-39.87.33-4.05.88-8.1,1.69-12.08,1.88-9.3,5.49-17.76,13.56-24.15-1.21-.97-1.99-1.74-2.91-2.3-11.17-6.79-17.94-16.74-19.23-29.62-2.16-21.57,2.12-41.98,13.62-60.54,4.19-6.76,10.09-11.89,17.07-15.88,1.9-1.08,3.56-3.35,4.36-5.45,5.05-13.14,9.17-26.69,14.92-39.5,3.63-8.09,9.54-15.16,14.46-22.67,3.33-5.09,6.71-10.15,10.07-15.22,1.27-1.92.92-3.26-.95-4.78-5.71-4.63-9.63-10.71-11.1-17.8-1.44-6.93-2.15-14.08-2.41-21.16-.29-7.89,3.52-14.22,11.1-16.48,7.69-2.3,15.8-3.73,23.81-4.32,26.55-1.94,51.07,6.36,75.14,16.18,7.92,3.23,15.63,7.04,23.33,10.79,2.36,1.15,4.27,1.42,6.41-.24,8.59-6.67,18.75-9.78,29.05-12.42,13.93-3.57,27.93-6.89,41.87-10.45,17.67-4.51,35.35-3.93,53.19-.97,11.74,1.95,23.67,2.74,35.4,4.74,5.43.93,10.36,1.15,15.9.1,12.82-2.43,25.89-3.48,38.82-5.38,17.14-2.52,34.13-2.71,51.04,1.73,15.74,4.13,31.68,7.56,47.26,12.2,7.67,2.28,14.84,6.4,22.02,10.12,2.71,1.41,4.68,1.98,7.55.4,18.7-10.28,38.81-17.25,59.18-23.06,16.74-4.77,34.17-4.7,51.49-2.87,1.29.14,2.57.47,3.84.78,14.7,3.55,19.61,10.23,18.37,25.3-.74,9-1.57,18.03-7.11,25.71-1.19,1.65-2.34,3.34-3.72,4.83-4.66,5.03-4.78,5.05-1.23,11.25,1.72,3.02,3.49,6.12,5.82,8.65,10.14,11,16.98,23.88,22.03,37.79,3.27,9.01,6.13,18.16,9.38,27.17.64,1.76,1.9,3.83,3.46,4.65,11.96,6.3,19.59,16.27,24.38,28.54,5.23,13.39,8.08,27.32,7.72,41.75-.39,15.78-6.65,28.37-20.64,36.54-.37.22-.75.45-1.08.74-.21.18-.31.47-.61.95.22.36.41.93.8,1.25,6.33,5.25,9.86,12.21,11.59,20.02,4.15,18.7,4.48,37.51-.1,56.17-3.27,13.33-10.22,24.49-22.37,31.44-4.93,2.82-10.66,4.25-16.61,6.53ZM122.26,449.11c-.49.14-.97.29-1.46.43-.17,1.92-.62,3.87-.48,5.77,2.12,29.1,2.53,58.36,7.78,87.19,4.88,26.75,9.9,53.49,20.05,78.87,4.53,11.32,9.62,22.53,18.01,31.62,3.3,3.57,4.14,6.87,2.91,11.4-1.52,5.58-2.91,11.26-3.64,16.99-2.92,22.95-1.59,45.94,1.75,68.66,1.6,10.92,6.37,21.37,9.73,32.03,6.56,20.78,18.46,38.47,34.62,52.5,10.26,8.91,22.94,15.17,34.94,21.88,10.81,6.04,22.76,8.66,35.23,8.3,13.54-.39,26.97-1.5,40.11-5.1,10.37-2.84,20.25-1.24,29.27,4.53,4.51,2.88,9.03,5.97,12.8,9.72,3.32,3.3,5.12,2.93,8.31-.12,13.61-13.05,28.95-18.52,48.19-13.02,15.8,4.52,32.35,5.41,48.82,2.74,12.92-2.1,23.7-9.16,35.13-14.87,24.46-12.22,40.29-32.47,50.86-56.52,8.73-19.86,15.45-40.62,16.04-62.95.59-22.4,2.18-44.73-4.66-66.57-1.03-3.3.05-6.09,2.37-8.78,3.11-3.59,6.04-7.41,8.5-11.47,10.71-17.58,16.62-37.01,21.69-56.78,9.24-36.06,13.58-72.79,15.6-109.86.41-7.54.78-15.09,1.01-22.64.03-1.14-.82-2.31-1.26-3.46-1.01.43-2.07.77-3.03,1.31-.75.42-1.36,1.09-2.04,1.63-12.7,10.09-26.07,19.04-41.77,23.85-18.1,5.55-35.04,3.46-49.26-9.64-5.78-5.32-10.62-11.96-14.76-18.7-7.92-12.88-12.01-27.36-15.15-42.05-3.58-16.75-7.04-33.53-10.44-50.33-2.2-10.87-3.37-21.83-1.82-32.93.15-1.09.02-2.22.02-3.85-5.09.61-9.78,1.27-14.5,1.71-19.86,1.87-30.6-4.13-40.04-21.73-9.32-17.38-11.52-36.5-13.46-55.56-2.74-26.81,3.53-52.55,10.58-78.15,5.7-20.68,15.11-39.21,29.61-55.15,7.82-8.6,15.39-17.43,22.88-26.32,13.11-15.54,27.97-29.1,44.83-40.47,1.23-.83,2.31-1.89,4.1-3.37-6.43-1.91-11.95-3.53-17.45-5.19-15.85-4.79-31.54-10.24-47.59-14.22-18.91-4.68-38.36-2.93-57.62-2.62-13.61.22-27.22.81-40.83.91-9.27.07-18.56-.1-27.81-.72-18.8-1.27-37.45-1.02-55.69,4.37-18.39,5.43-36.72,11.05-55.07,16.62-.59.18-1.06.73-1.64,1.14.41.6.59,1.04.91,1.29,1.03.81,2.09,1.57,3.17,2.3,15.2,10.38,28.91,22.42,40.91,36.41,9.55,11.14,19.65,21.85,28.68,33.4,6.76,8.64,13.85,17.63,17.95,27.62,16.56,40.4,25.6,81.99,16.46,125.98-2.84,13.68-6.51,26.8-14.34,38.5-7.23,10.8-17.35,16.05-30.36,15.32-5.21-.29-10.4-1.05-15.6-1.58-1.39-.14-2.78-.23-4.51-.37,0,1.73,0,2.98,0,4.24,0,6.81.78,13.73-.15,20.41-1.38,9.89-4.07,19.59-6.04,29.41-2.79,13.96-5.01,28.04-8.25,41.89-3.63,15.52-9.44,30.25-19.3,43.05-14.67,19.04-34.7,25.44-57.7,18.38-15.55-4.77-28.82-13.6-41.43-23.58-1.56-1.23-3.12-2.46-4.67-3.69ZM496.53,344.98c1.75-1.05,2.91-1.58,3.88-2.35,14.79-11.74,30.27-22.71,44.17-35.43,26.52-24.28,48.13-52.75,66.49-83.65,19.7-33.16,34.3-68.51,45.26-105.46,3.5-11.78,2.86-22.41-4.53-32.53-3.2-4.39-5.75-9.26-8.98-14.54-2.93,3.19-4.97,6.09-7.68,8.09-1.5,1.12-4.78,1.68-6.03.78-1.24-.9-1.75-4.2-1.16-5.97,1.09-3.25,3.49-6.04,4.82-9.24.66-1.58.77-3.93.06-5.44-1.5-3.22-2.54-6.26-.5-9.48,2.14-3.38,5.44-3.85,9.18-3.63,1.49.09,3.53-.55,4.49-1.61,2.23-2.45,4.11-5.27,5.81-8.14.65-1.1,1.09-3.23.49-4.01-3.58-4.61-6.57-10.07-13.49-10.56-14.81-1.04-29.36.35-43.43,5.1-11.41,3.85-22.68,8.15-33.92,12.49-1,.39-1.9,2.55-1.85,3.85.15,4.19,1.07,8.36,1.15,12.55.63,34.51-10.14,65.04-33.49,90.49-11.37,12.39-23.67,24.03-36.37,35.05-17.55,15.22-35.7,29.76-53.95,44.15-8.59,6.78-13.2,14.03-10.57,25.62,3.02,13.32,4.55,26.96,12.33,38.73,8.09,12.24,19.04,15.05,31.88,7.86,6.08-3.41,12-7.11,18.01-10.63,3.1-1.82,6.4-2.59,9.25.19,2.99,2.91,2.05,6.14.38,9.58-3.77,7.77-6.71,15.75-4.73,24.71.81,3.67,1.04,7.48,1.52,11.23.49,3.83.96,7.66,1.53,12.15ZM93.54,71.41c-1.27,1.66-2.35,2.8-3.12,4.13-3.79,6.53-7.89,12.93-11.06,19.76-1.54,3.31-2.18,7.57-1.69,11.2,2.71,20.22,10.66,38.88,18.16,57.63,29.06,72.65,74.15,132.83,138.68,177.82,1.37.95,2.8,1.82,4.88,3.17,1.13-8.84,1.86-16.9,3.26-24.84,1.52-8.58-1.38-16.06-4.89-23.42-1.56-3.26-2.67-6.33.03-9.25,2.88-3.12,6.3-2.38,9.56-.5,5.53,3.21,10.98,6.55,16.51,9.76,14.71,8.54,25.94,5.8,34.55-8.75,8.86-14.96,10.75-31.75,11.93-48.63.1-1.49-.93-3.47-2.06-4.58-4.67-4.54-9.35-9.13-14.46-13.16-27.51-21.7-54.7-43.8-79.2-68.9-29.85-30.57-43.57-67-38.11-109.99.14-1.08-.98-3.05-1.97-3.44-9.18-3.64-18.45-7.04-27.7-10.47-16.04-5.95-32.58-8.36-49.66-7.1-6.9.51-9.83,6-13.51,10.54-.38.47-.54,1.6-.24,2.07,2.28,3.68,4.41,7.52,7.22,10.76.96,1.1,3.72.83,5.66.85,6.3.05,10.71,5.48,7.67,10.78-2.67,4.65-1.43,7.75,1.06,11.37,1.07,1.55,1.88,3.27,2.75,4.95,1.31,2.54,1.73,5.16-.95,7-2.68,1.84-4.97.49-6.89-1.61-2.03-2.23-4.03-4.48-6.42-7.16ZM670.39,127.98l-1.75-.04c-2.66,7.81-5.62,15.53-7.93,23.44-17.27,59.08-48.79,109.9-89.49,155.49-14.04,15.72-29.88,28.76-49.72,36.6-5.38,2.12-10.41,5.16-15.49,7.97-9.14,5.06-9.42,5.74-5.4,15.58,4.55,11.16,9.47,22.17,13.95,33.36,2.48,6.19,4.3,12.63,6.59,18.9,2.93,8.02,5.41,16.29,9.21,23.89,7.79,15.59,15.02,17.86,30.5,9.88,10.32-5.32,20.33-11.26,30.31-17.22,3.19-1.91,6.15-4.47,8.61-7.27,9.1-10.37,17.85-21.06,26.92-31.46,8.1-9.29,14.47-19.64,19.58-30.79,4-8.72,7.88-17.49,11.65-26.31,9.43-22.07,13.53-45.59,19.13-68.76,9-37.28,7.47-74.4.83-111.62-1.9-10.65-4.97-21.1-7.5-31.64ZM66.85,127.07c-.81,1.84-1.33,2.7-1.59,3.63-10.88,39.73-16.74,79.88-9.67,121.03,1.57,9.16,3.8,18.21,5.33,27.38,5.26,31.54,16,61.25,30.24,89.7,4.52,9.02,10.17,17.61,16.26,25.68,7.68,10.19,16.29,19.7,24.58,29.42,13.57,15.9,32.52,23.39,50.61,32.21.51.25,1.13.27,1.69.42,7.54,2.1,13.35-.09,17.54-6.8,5.41-8.67,9.94-17.66,12.52-27.66,1.88-7.29,4.27-14.48,7.01-21.49,4.4-11.22,9.33-22.22,13.92-33.36.93-2.26,1.32-4.75,2.07-7.1.91-2.85-.07-4.64-2.7-5.98-8.41-4.29-16.57-9.1-25.16-12.97-13.17-5.94-24.85-13.86-34.88-24.19-35.12-36.2-63.99-76.79-83.79-123.3-8.29-19.47-14.36-39.89-21.44-59.87-.71-1.99-1.49-3.95-2.55-6.76Z" style="fill: #000; stroke-width: 0px;"/>
  <path d="M478.83,751.2c-.12,10.06-1.73,12.41-11,15.75-9.07,3.27-16.67,8.82-23.39,15.57-5.94,5.97-11.56,12.26-17.44,18.29-12.97,13.32-28.9,17.2-46.75,13.94-4.19-.77-8.11-4.14-12.17-4.15-4.05,0-7.98,3.35-12.17,4.11-16.75,3.04-32.15.2-44.84-12.04-5.01-4.84-9.78-9.93-14.51-15.05-8.79-9.5-18.5-17.54-31.09-21.67-6.21-2.04-7.93-6.45-8.23-13.22-.68-15.39,5.02-28.21,13.96-40.24,19.02-25.58,44.41-34.63,75.37-29.97,6.59.99,13.2,2.67,19.79,2.63,7.62-.05,15.33-1.15,22.83-2.69,15.71-3.21,30.81-1.16,45.17,5.19,23.16,10.24,37.25,28.42,43.5,52.76.89,3.45.67,7.18.96,10.78ZM450.19,739.75c-.26-.73-.29-1.23-.56-1.47-9.7-8.77-20.02-16.44-33.5-18.24-7.2-.96-14.44-1.59-21.61-2.71-9.42-1.47-18.92-2.91-25.79-8.48-5.4,2.18-10.01,4.81-14.96,5.86-9.35,1.99-18.84,3.56-28.36,4.41-15.28,1.37-27.53,8.49-38.46,18.58-.46.42-.65,1.13-1.24,2.19,1.81,0,3.06.07,4.3-.01,15.49-1,29.67,2.63,42.29,11.87,2.81,2.06,5.67,4.07,8.64,5.88,5.68,3.47,11.65,4.26,18.37,3.16,5.63-.93,11.65-.93,17.28,0,6.87,1.14,12.99.3,18.76-3.32,3.69-2.31,7.22-4.88,10.81-7.34,10.14-6.95,21.43-10.16,33.64-10.37,3.31-.05,6.63,0,10.39,0Z" style="fill: #000; stroke-width: 0px;"/>
  <path d="M443.53,590.79c1.5-7.95,1.48-14.88-1.05-21.81-1.47-4.02.31-7.48,3.53-8.79,3.3-1.34,7.13.29,8.87,4.25,1.39,3.15,2.2,6.56,3.68,11.13,2.51-2.45,5.32-4.09,6.4-6.5,1.73-3.88,3.09-8.24,3.25-12.44.65-17.69-4.95-33.75-13.87-48.79-13.82-23.31-23.85-48.15-29.9-74.55-3.44-14.99-3.7-30.26-2.8-45.54.31-5.25,3.48-8.58,7.58-8.46,4.13.12,6.88,3.5,6.89,8.98,0,8.72-.15,17.44-.36,26.16-.2,8.55.83,16.89,4.6,24.63,10.68,21.93,20.94,44.09,32.48,65.57,8.09,15.06,14.91,30.15,15.82,47.48.76,14.47-4.12,26.67-14.82,36.18-3.65,3.24-8.83,4.71-13.15,7.25-1.79,1.05-3.66,2.51-4.64,4.26-2.61,4.66-4.17,9.99-7.21,14.31-9.03,12.83-22.83,13.62-33.71,2.37-.69-.72-1.19-1.63-2.27-3.14-1.24,2.03-2.07,3.11-2.62,4.33-3.7,8.22-10.22,13.68-17.85,17.89-7.22,3.99-14.34,3.14-20.87-1.71-2.53-1.88-4.4-1.86-6.95,0-7.71,5.65-15.59,5.4-23.51.18-6.68-4.4-12.33-9.68-15.57-17.18-.39-.89-1.02-1.68-3.03-3.7-.76,1.4-1.26,3.05-2.33,4.15-9.37,9.61-22.3,9.62-30.85-.74-3.96-4.8-6.09-11.09-9.22-16.6-.91-1.61-2.17-3.69-3.71-4.17-16.39-5.16-28.13-20.14-28.79-37.52-.68-17.99,5.19-34.08,13.51-49.83,12.13-22.97,23.29-46.46,34.73-69.79,3.73-7.6,4.61-15.83,4.44-24.22-.17-8.28-.29-16.57-.35-24.85-.01-1.72-.22-3.87.67-5.08,1.51-2.04,3.71-4.64,5.82-4.85,2.13-.2,4.99,1.81,6.62,3.66,1.24,1.41,1.26,4.06,1.44,6.18,2.59,32.08-5.73,61.98-18.71,90.81-4.52,10.05-9.84,19.76-15.18,29.41-8.11,14.65-13.04,30.1-12.77,46.97.1,6.44,1.61,12.43,7.05,16.65.75.58,1.74.84,2.96,1.41.96-3.19,1.68-6.12,2.73-8.93,1.84-4.89,5.5-7.03,9.3-5.69,3.56,1.25,4.47,4.96,3.58,9.99-1.16,6.57-1.6,13.26-1.69,20.37,8.41-5.18,16.7-5.08,25.67-1.61,0-2.45-.01-4,0-5.56.06-6.08,2.47-9.58,6.88-9.99,4.42-.41,9.22,3.34,10.43,8.28.34,1.4.26,2.9.57,4.31,2.17,10,5.12,19.73,11.55,27.93,4.56,5.82,5.83,5.75,12.17,2.02,1.81-1.07,4.31-1.06,6.51-1.33,1.26-.16,2.7.49,3.85.13,3.61-1.14,6.6-.16,9.26,2.21,2.99,2.66,5.95,2.48,8.27-.57,2.96-3.9,6.28-7.81,8.06-12.27,2.67-6.67,3.86-13.92,6.23-20.73,1.08-3.1,2.92-6.45,5.41-8.44,4.7-3.76,10.8-.93,11.8,5.06.44,2.66.34,5.4.52,8.69,8.63-2.87,16.84-3.43,24.67,2.2Z" style="fill: #000; stroke-width: 0px;"/>
  <path d="M180.18,639.94c-.84,1.05-1.77,3.33-3.04,3.54-1.56.26-3.67-.89-5.04-2.03-.97-.8-1.19-2.58-1.6-3.97-15.01-50.35-30.68-100.53-41.65-151.99-1.03-4.81.47-8.59,4.07-9.82,3.8-1.3,7.84.69,9.47,5.5,1.95,5.76,3.39,11.7,4.75,17.64,9.89,42.86,19.68,85.73,29.56,128.59.91,3.95,2.16,7.83,3.48,12.54Z" style="fill: #000; stroke-width: 0px;"/>
  <path d="M607.95,481.63c-2.56,11.26-4.37,21.13-7.07,30.76-11.74,41.93-23.74,83.79-35.66,125.66-.32,1.11-.51,2.56-1.29,3.17-1.45,1.13-3.57,2.7-4.9,2.32-1.3-.37-2.08-2.9-2.87-4.58-.25-.53.19-1.4.35-2.11,10.97-46.92,21.94-93.84,32.94-140.76.96-4.1,1.96-8.19,3.13-12.23.52-1.79,1.28-3.58,2.3-5.13,1.97-2.98,5.11-4.59,8.23-2.81,2.27,1.29,3.62,4.21,4.83,5.71Z" style="fill: #000; stroke-width: 0px;"/>
  <path d="M553.16,717.82c1,34.51-10.43,62.87-28.7,88.72-6.68,9.45-14.82,17.87-22.42,26.65-2.17,2.51-4.89,5.66-8.4,2.62-3.52-3.05-.75-6.06,1.4-8.66,23.38-28.27,36.91-61,43.2-96.83,1.34-7.63.71-15.61.94-23.43.04-1.3-.25-2.61-.2-3.91.16-3.76,1.81-6.62,5.77-7,3.96-.39,6.47,2.06,6.97,5.76.82,6.04,1.1,12.15,1.43,16.08Z" style="fill: #000; stroke-width: 0px;"/>
  <path d="M195.79,713.01c.79,6.91,1.08,13.93,2.46,20.72,6.82,33.64,19.34,64.79,41.25,91.68,1.28,1.57,2.96,3.1,3.49,4.93.48,1.65.27,4.41-.79,5.34-1.07.94-3.59.27-5.47.2-.35-.01-.7-.49-1.01-.79-25.19-24.98-43.74-53.78-50.93-89.06-2.91-14.27-2.21-28.63-.82-42.98.46-4.69,3.51-7.5,7.19-7.17,3.67.33,5.99,3.62,5.78,8.37-.13,2.9-.44,5.79-.67,8.69-.16.02-.33.04-.49.07Z" style="fill: #000; stroke-width: 0px;"/>
  <path d="M573.53,519.98c-.21,1.09-.41,2.83-.88,4.5-7.95,27.94-15.94,55.87-23.93,83.8-.12.42-.3.82-.44,1.23-1.04,3.07-2.46,6.06-6.37,4.98-3.71-1.02-3.47-4.31-2.78-7.23,7.01-29.7,14.05-59.38,21.18-89.05,1.06-4.42,4.26-6.7,7.72-6.19,3.32.5,5.51,3.42,5.49,7.96Z" style="fill: #000; stroke-width: 0px;"/>
  <path d="M197.33,610.89c-.84.89-2.16,3.45-3.54,3.48-1.8.04-4.62-1.51-5.29-3.1-2.59-6.14-4.82-12.48-6.61-18.91-6.33-22.67-12.46-45.39-18.58-68.12-.56-2.07-1.25-4.56-.59-6.37.8-2.18,2.77-5.09,4.64-5.43,2.12-.38,4.79,1.56,7.01,2.87.8.48,1.14,1.99,1.4,3.1,7,29.4,13.96,58.8,20.92,88.21.23.99.31,2.01.65,4.26Z" style="fill: #000; stroke-width: 0px;"/>
  <path d="M221.56,786.91c-.15-6.36,4.12-9.52,8.6-7.82,1.69.64,3.29,1.89,4.54,3.22,18.61,19.85,39.44,37.24,60.47,54.39,2.64,2.15,6.55,4.3,3.93,8.38-2.83,4.41-6.41,1.42-9.48-.32-23.5-13.33-45.23-28.92-62.63-49.88-2.34-2.82-4.16-6.09-5.43-7.97Z" style="fill: #000; stroke-width: 0px;"/>
  <path d="M440.25,847.64c-1.19-.84-2.93-1.46-3.51-2.65-.59-1.2-.46-3.16.13-4.43.62-1.35,2.07-2.38,3.3-3.37,21.44-17.38,42.62-35.05,61.5-55.29,3.39-3.63,7.57-4.24,10.46-1.93,3.03,2.43,3.17,6.78.03,10.94-11.86,15.7-26.58,28.38-42.73,39.39-8.03,5.47-16.49,10.31-24.78,15.39-1.21.74-2.61,1.17-4.39,1.95Z" style="fill: #000; stroke-width: 0px;"/>
  <path d="M509,623.61c2.45-18.86,4.87-37.73,7.39-56.58.28-2.13.53-4.75,1.85-6.14,1.68-1.77,4.65-3.72,6.67-3.36,1.99.35,3.96,3.26,5.05,5.48.71,1.44-.01,3.69-.33,5.53-3.68,21.33-7.4,42.65-11.11,63.98-.15.86-.25,1.73-.47,2.57-.71,2.63-2.31,5.01-5.11,4.03-1.64-.58-3.36-3.14-3.6-4.99-.45-3.4.17-6.94.35-10.42-.23-.03-.46-.06-.68-.1Z" style="fill: #000; stroke-width: 0px;"/>
  <path d="M225.82,618.43c.3,4.93.65,9.86.9,14.79.15,2.99-.48,5.8-4.07,6.08-3.28.26-4.46-2.21-4.94-5-3.95-22.75-7.94-45.5-11.8-68.27-.78-4.62,1.45-8.16,5.06-8.83,3.92-.73,7.33,1.91,8.11,7.21,2.64,17.95,5,35.94,7.47,53.91-.24.03-.48.07-.72.1Z" style="fill: #000; stroke-width: 0px;"/>
  <path d="M326.12,845.78c-1.9-.83-3.34-1.21-4.5-2.01-10.29-7.06-20.56-14.16-30.75-21.36-1.36-.96-2.57-2.44-3.3-3.95-2.24-4.66.97-9.53,6.12-9.16,2.07.15,4.24,1.04,6.06,2.11,11.3,6.61,20.5,15.68,28.93,25.54,1.16,1.35,1.43,4.04,1.07,5.91-.24,1.19-2.4,2-3.62,2.93Z" style="fill: #000; stroke-width: 0px;"/>
  <path d="M449.12,816.96c-.75,1.09-1.75,3.73-3.66,5.1-10.45,7.53-21.09,14.79-31.73,22.06-2.34,1.6-5.03,1.98-7.12-.35-2.14-2.39-1.23-4.93.66-7.04,8.63-9.63,17.73-18.76,29.01-25.33,1.93-1.12,4.27-1.95,6.48-2.09,3.73-.23,6.31,2.59,6.37,7.65Z" style="fill: #000; stroke-width: 0px;"/>
  <path d="M299.76,37.1c-1.47,3.66-2.54,6.98-4.09,10.06-3.61,7.15-8.62,13.08-16.09,16.49-3.49,1.6-7.05,2.02-10.17-.85-3.02-2.78-2.67-7.62.82-10.79,6.55-5.94,13.05-11.94,19.85-17.58,1.51-1.25,4.25-1.75,6.24-1.42,1.29.22,2.23,2.55,3.45,4.08Z" style="fill: #000; stroke-width: 0px;"/>
  <path d="M468.69,56.88c-.04,5.52-4.13,8.96-8.78,7.69-3.39-.92-6.77-2.69-9.58-4.83-6.55-5-10.43-11.99-13.04-19.69-.9-2.66-1.01-5.75,1.87-6.79,1.87-.68,5.05-.14,6.6,1.13,6.95,5.7,13.61,11.77,20.18,17.91,1.48,1.38,2.18,3.59,2.75,4.58Z" style="fill: #000; stroke-width: 0px;"/>
  <path d="M330.96,398.78c0,4.64.09,9.27-.03,13.91-.08,2.84-1.28,5.73-4.44,5.13-1.72-.33-4.05-3.03-4.26-4.88-1.35-11.8-2.21-23.65-3.19-35.48-.27-3.23.7-5.97,4.26-6.49,3.52-.52,5.63,1.81,6.05,4.92,1.03,7.58,1.63,15.22,2.41,22.84-.27.02-.54.04-.8.06Z" style="fill: #000; stroke-width: 0px;"/>
  <path d="M404.46,398.17c.38-5.92.69-11.85,1.19-17.77.17-1.99.31-4.39,1.45-5.8,1.34-1.67,3.97-3.64,5.64-3.33,1.66.3,2.98,3.19,4.13,5.13.42.71-.1,1.97-.19,2.98-.93,10.68-1.85,21.36-2.78,32.04-.06.72.17,1.68-.21,2.12-1.36,1.61-2.93,3.04-4.42,4.54-1.44-1.56-3.93-3.01-4.11-4.71-.55-5.01-.2-10.12-.2-15.19-.17,0-.34-.01-.51-.02Z" style="fill: #000; stroke-width: 0px;"/>
  <path d="M321.3,433.37c5.66-.07,8.79,3.64,7.54,7.87-3.08,10.44-6.5,20.79-10.18,31.03-.51,1.42-3.58,3.07-4.97,2.71-1.37-.36-3.21-3.31-2.96-4.81,1.74-10.59,3.74-21.16,6.22-31.61.55-2.3,3.36-4.06,4.36-5.19Z" style="fill: #000; stroke-width: 0px;"/>
  <path d="M413.19,433.34c3.17.17,5.37,2.22,6.05,5.47,2.16,10.36,4.24,20.75,5.93,31.2.25,1.54-1.76,3.45-2.73,5.19-1.83-1.04-4.76-1.67-5.3-3.17-3.6-9.95-6.85-20.04-9.86-30.19-1.35-4.56,1.48-8.42,5.91-8.49Z" style="fill: #000; stroke-width: 0px;"/>
  <path d="M427.63,91.99c-.11,6.51-6.01,10.45-10.73,7.47-6.3-3.97-11.92-9.11-17.48-14.13-1.03-.93-1.07-4.02-.34-5.52.63-1.28,3.11-2.54,4.6-2.36,8.05.98,15.62,3.47,21.35,9.6,1.48,1.58,2.1,3.96,2.59,4.93Z" style="fill: #000; stroke-width: 0px;"/>
  <path d="M315.36,101.09c-2.04-1.57-5.07-2.77-5.86-4.82-.89-2.31-.74-6.15.68-8,5.63-7.33,13.93-10.09,22.8-10.82,3.62-.3,6.3,3.86,4.28,6.63-5.16,7.05-11.59,12.83-19.95,16.04-.39.15-.86.1-1.29.14l-.66.84Z" style="fill: #000; stroke-width: 0px;"/>
  <path d="M391.02,146.67c-2.3-.23-4.77,0-6.84-.83-1.63-.65-3.59-2.43-3.85-3.97-.26-1.52,1.03-4.38,2.35-4.91,5.72-2.32,11.61-4.41,17.62-5.76,3.66-.82,6.93,1.18,7.84,5.2.9,4.01-1.18,6.98-4.79,8.16-3.92,1.28-8.12,1.72-12.2,2.53-.04-.14-.08-.28-.13-.43Z" style="fill: #000; stroke-width: 0px;"/>
  <path d="M344.35,147.05c-3.81-.75-7.73-1.18-11.41-2.34-4.02-1.27-5.91-4.95-5.06-8.48.79-3.3,4.19-5.94,8.05-5.03,5.88,1.39,11.65,3.41,17.25,5.71,1.33.55,2.62,3.38,2.38,4.93-.24,1.54-2.19,3.41-3.8,4.01-2.23.83-4.85.6-7.3.83-.04.13-.07.25-.11.38Z" style="fill: #000; stroke-width: 0px;"/>
  <path d="M307.52,492.68c-1.16,3.06-1.58,5.12-2.64,6.77-2.8,4.37-5.64,8.77-9,12.71-1.04,1.22-4.29,1.87-5.63,1.14-1.34-.73-2.53-3.8-2.09-5.35,1.67-5.82,3.8-11.54,6.23-17.1,1.38-3.16,4.48-5.16,7.82-3.64,2.23,1.01,3.68,3.72,5.3,5.47Z" style="fill: #000; stroke-width: 0px;"/>
  <path d="M448.73,509.22c-1.05,1.56-1.7,3.59-2.95,4.08-1.46.57-4.37.46-5.05-.5-4.05-5.72-8.01-11.58-11.22-17.79-1.44-2.78.11-6.08,3.29-7.62,3.2-1.55,6.52-.66,7.94,2.28,3.01,6.2,5.27,12.76,7.99,19.54Z" style="fill: #000; stroke-width: 0px;"/>
  <path d="M610.35,93.8c.11,6.94-6.13,14.81-11.94,16-3.69.76-7.01-.12-9.33-3.17-2.85-3.74-4.46-8.04-2.23-12.55,1.45-2.92,3.51-5.68,5.82-8,3.07-3.08,7.08-3.19,10.92-1.53,4.39,1.9,6.49,5.54,6.76,9.24Z" style="fill: #000; stroke-width: 0px;"/>
  <path d="M552.28,263.46c-4.22-.33-7.96-1.72-10.07-5.7-2.08-3.93-.87-7.54,1.54-10.96,4.61-6.53,11.84-8.52,17.7-4.77,5.59,3.57,6.79,10.37,2.48,15.37-3.01,3.49-6.79,5.83-11.65,6.06Z" style="fill: #000; stroke-width: 0px;"/>
  <path d="M537.92,191.98c-6.82.04-11.89-4.39-12.03-10.5-.15-6.85,5.1-12.18,11.98-12.15,6.71.03,11.98,4.86,12.11,11.09.14,6.46-5.14,11.51-12.06,11.55Z" style="fill: #000; stroke-width: 0px;"/>
  <path d="M608.11,176.97c-6.65-.11-11.91-4.9-11.88-10.82.03-6.22,6.23-12.09,12.62-11.95,6.4.15,11.39,5.51,11.16,12.01-.22,6.21-5.36,10.86-11.89,10.75Z" style="fill: #000; stroke-width: 0px;"/>
  <path d="M484.5,245.86c-.03,6.09-4.6,10.91-10.21,10.77-5.93-.15-9.82-5.58-9.78-13.63.03-5.61,3.47-9.04,8.94-8.93,6.02.13,11.08,5.52,11.06,11.79Z" style="fill: #000; stroke-width: 0px;"/>
  <path d="M125.61,95.08c-.03-4.79,2.98-9.16,7.43-10.8,4.39-1.61,8.84-.32,12.1,3.52,5.6,6.6,6.36,11.94,2.51,17.8-2.43,3.7-5.89,5.06-10.17,4.18-5.65-1.16-11.83-8.9-11.86-14.71Z" style="fill: #000; stroke-width: 0px;"/>
  <path d="M182.67,263.42c-4.82-.65-9.5-3.24-12.17-8.58-2.47-4.95-.32-10.55,4.8-13.24,4.22-2.22,8.51-2.03,12.36.64,4.03,2.8,7.18,6.46,7.11,11.76-.08,5.29-5.07,9.39-12.1,9.42Z" style="fill: #000; stroke-width: 0px;"/>
  <path d="M210.09,181c.09,6.18-4.76,10.79-11.55,10.98-6.92.2-12.33-4.59-12.54-11.1-.2-6.35,5.17-11.49,12.09-11.55,6.72-.06,11.9,4.98,11.99,11.66Z" style="fill: #000; stroke-width: 0px;"/>
  <path d="M127.76,176.97c-6.51.09-11.6-4.62-11.77-10.86-.17-6.47,4.88-11.82,11.27-11.91,6.37-.09,12.53,5.86,12.49,12.05-.04,5.91-5.32,10.64-11.99,10.73Z" style="fill: #000; stroke-width: 0px;"/>
  <path d="M271.52,243.33c-.34,8.52-4.39,13.62-10.56,13.28-5.43-.3-9.49-5.12-9.34-11.09.17-6.59,5.47-11.71,11.76-11.36,5.35.3,8.35,3.69,8.14,9.18Z" style="fill: #000; stroke-width: 0px;"/>
</svg>