<?xml version="1.0" encoding="UTF-8"?>
<svg id="Layer_1" data-name="Layer 1" xmlns="http://www.w3.org/2000/svg" viewBox="0 0 537.68 900">
  <path d="M444.07,655.24c.74,2.72,1.27,4.82,1.88,6.88,7.32,24.64,13.72,49.48,16.32,75.13,2.72,26.77,1.35,53.13-8.39,78.57-11.85,30.95-33.44,53.02-62.56,68.01-21.34,10.99-44.04,16.66-68.16,16.13-17.65-.39-34.34-4.91-50.38-12-2.89-1.28-5.3-1.28-8.16.04-67.08,30.98-137.88-3.26-166.89-45.56-14.2-20.7-21.23-43.73-23.09-68.53-2.16-28.72,2.52-56.69,9.53-84.37,2.57-10.15,5.57-20.19,8.36-30.28.32-1.17.56-2.36.96-4.08-1.88.18-3.21.4-4.54.42-7.45.09-15.04,1.07-22.32-.02-14.72-2.2-24.42-11.55-30.73-24.65-6.08-12.63-7.93-26.17-7.92-39.98,0-23.75,4.41-46.71,13.63-68.63,2.03-4.83,4.98-9.3,7.72-13.81,1.01-1.66,1.42-2.81-.4-4.02-17.22-11.48-27.03-28.32-33.46-47.32-10.01-29.59-13.26-59.91-7.99-90.88,1.57-9.23,4.96-17.74,12.16-24.23,2.05-1.85,1.17-3.69.14-5.59-6.47-11.88-11.43-24.37-14.76-37.49-8.01-31.53-5.89-62.81,2.52-93.86,11.78-43.5,32.71-82.42,59.85-118.14,12.91-17,26.92-33,43.94-46.09,7.16-5.5,14.83-10.14,23.65-12.52,9.08-2.45,17.81-1.98,25.8,3.49,2.28,1.56,3.43.47,4.85-1.21,4.15-4.91,8.05-10.12,12.74-14.48,9.91-9.24,21.98-12.67,35.38-11.21,7.49.81,13.91,4.07,18.85,9.8,2.01,2.34,3.02,1.84,5.09-.13,4.3-4.1,8.85-8.02,13.74-11.38,4.37-3,9.54-3.87,14.9-2.83,1.12.22,2.34.38,3.43.15,10.43-2.22,18.29,2.68,25.54,9.19,1.96,1.76,3.57,3.92,5.57,5.63.65.56,2.59.78,2.98.32,7.49-8.61,17.07-11.74,28.16-11.03,12.45.79,22.8,6.01,31.15,15.17,3.17,3.48,6.09,7.2,8.95,10.95,1.59,2.08,2.99,2.38,5.18.84,6.27-4.41,13.35-5.44,20.77-4.27,12.76,2.02,23.08,8.93,32.67,16.99,20.89,17.55,37.71,38.69,52.84,61.21,21.61,32.15,38.36,66.58,47.75,104.33,7.95,31.97,9.28,64.03-.74,95.79-3.3,10.48-8.23,20.45-12.69,30.54-1.26,2.84-1.36,4.66,1.1,6.9,7.49,6.8,10.45,16.01,11.67,25.56,4.84,38.01.48,74.66-17.72,108.93-5.63,10.6-13.4,19.52-23.45,26.29-1.44.97-3.21,1.83-1.55,4.01,6.61,8.67,10.35,18.69,13.4,28.98,7.02,23.64,10.59,47.67,6.71,72.27-1.05,6.64-2.91,13.33-5.52,19.52-8.4,19.98-24.14,29.28-45.73,27.72-3.99-.29-7.97-.74-12.73-1.19ZM308.36,884.13c31.53-.27,55.61-6.05,78.11-17.92,24.2-12.77,42.29-31.18,51.66-57.34,7.46-20.82,8.44-42.31,6.22-64.07-2.87-28.23-10.78-55.3-19.22-82.23-8.33-26.58-17.34-52.95-23.18-80.25-5.78-26.98-8.2-54.15-4.46-81.64,5.14-37.83,21.21-70.76,45.43-99.86,13.69-16.45,28.38-32.08,41.71-48.8,25.86-32.46,37.58-69.48,33.52-111.12-2.3-23.58-8.75-46.1-17.71-67.92-15.08-36.74-35.82-69.76-64.72-97.31-9.78-9.33-20.25-17.79-32.9-23.05-5.05-2.1-10.27-3.35-15.83-2.13-2.57.56-3.53,1.73-3.36,4.55.18,2.91-.05,6.07-1.08,8.74-.64,1.67-3.04,3.57-4.76,3.68-1.88.11-3.98-1.57-5.79-2.77-.75-.5-1.07-1.74-1.47-2.69-4.21-10.08-10.35-18.94-17.13-27.43-6.53-8.19-15.02-12.2-25.36-12.77-7.7-.43-13.71,2.35-17.89,8.86-2.11,3.29-4.07,6.69-6.22,9.96-1.56,2.38-3.11,5.39-6.66,4.23-3.81-1.24-2.8-4.7-2.84-7.64-.02-1.52.02-3.44-.82-4.49-5.78-7.17-12.56-13.22-21.36-16.39-2.05-.74-5.02-.91-6.84.05-5.24,2.77-10.38,5.9-15.05,9.55-4.58,3.57-8.95,7.62-7.48,14.68.25,1.19-1.45,3.63-2.73,4.06-1.29.44-3.44-.58-4.75-1.57-1.3-.99-2.07-2.72-3-4.17-2.04-3.2-3.9-6.53-6.09-9.62-2.76-3.89-6.44-6.69-11.33-7.18-10.46-1.05-20.12,1.06-27.5,9-4.52,4.86-8.61,10.22-12.24,15.78-3.51,5.37-6.17,11.29-9.22,16.96-1.36,2.52-3.34,4.16-6.36,3.84-3.04-.33-4.72-2.4-5.35-5.14-.48-2.1-.63-4.33-.53-6.48.21-4.55-.14-5.2-4.59-5.83-6.45-.91-12.3,1.2-17.93,3.97-13.19,6.49-24.3,15.84-34.38,26.32-38.75,40.28-63.66,87.99-74.82,142.67-9.3,45.57-.32,87.53,27.89,124.69,11.04,14.55,23.5,28.03,35.5,41.83,15.55,17.89,29.5,36.81,39.41,58.48,16.08,35.17,20.03,71.98,14.99,110.03-3.6,27.17-11.19,53.36-19.42,79.39-8.3,26.23-17.1,52.31-22.75,79.29-4.41,21.06-6.87,42.27-4.55,63.8,2.79,25.94,12.34,48.74,31.63,66.86,16.58,15.58,36.45,25.1,58.18,31.08,25.3,6.97,50.71,6.89,76.19,1.1,2.97-.68,5.89-2.29,8.83-2.27,3.3.02,6.55,1.61,9.89,2.13,12.14,1.89,24.3,3.62,30.51,4.53ZM40.79,469.48l-.76.99c2.36,3.62,4.76,7.21,7.08,10.86,1.56,2.44,3.73,3.41,6.6,3.67,12.22,1.12,24.09-.83,35.88-3.72,2.43-.6,4.79-.56,5.79,2.17.94,2.57-.84,4.05-2.84,5.23-6.69,3.95-13.71,7.04-21.46,8.23-.79.12-1.55.49-2.32.74,2.04,1.44,4.06,2.16,6.13,2.66,8.55,2.07,17.14,1.45,25.74.36,2.55-.32,5.14-.36,5.84,2.72.66,2.91-1.61,4-3.92,4.76-8.45,2.79-17.04,4.84-26.02,4.82-1.44,0-3.22.12-4.27.93-3.08,2.38-5.9,5.1-8.76,7.76-1.88,1.75-2.06,3.41.33,5.03,4.28,2.91,8.45,5.97,12.72,8.89,1.99,1.36,4,2.78,2.94,5.52-1.05,2.73-3.54,2.75-5.86,2.08-5.4-1.55-10.74-3.33-16.14-4.92-.99-.29-2.89-.46-3.06-.1-1.41,3.13-2.87,6.32-3.51,9.65-.22,1.14,1.87,2.71,2.89,4.09.55.74,1.01,1.55,1.65,2.2,3,3.08,5.71,6.58,9.16,9.05,3.31,2.37,7.37,3.7,11.13,5.42,2.15.99,3.95,2.28,3.26,4.94-.63,2.44-2.73,2.93-4.94,2.81-9.57-.55-18.78-2.19-26.16-9.09-.3-.28-.79-.37-2.09-.95-.56,5.36-1.14,10.29-1.51,15.23-.05.71.74,1.75,1.43,2.21,4.06,2.77,7.98,5.89,12.39,7.96,4.75,2.24,9.97,3.48,15,5.1,2.12.68,4,1.66,3.86,4.17-.14,2.74-2.29,3.55-4.61,3.75-8.85.76-17.48.06-25.56-4.08-.78-.4-1.62-.66-2.97-1.2-.08,6.64.65,12.69,2.64,18.56.2.59.82,1.24,1.4,1.46,4.16,1.57,8.27,3.69,12.58,4.33,4.1.61,8.45-.31,12.68-.67,2.33-.2,4.6-.19,5.31,2.52.7,2.7-1.23,3.94-3.37,4.85-5.99,2.53-12.16,4.25-18.75,4-.69-.03-1.4.24-2.5.44,4.21,5.65,9.19,9.62,15.55,10.98,6.02,1.29,12.27,1.52,18.42,2.21,1.7.19,3.55-.03,5.07.59,2.23.91,2.89-.05,3.44-1.86,1.38-4.51,2.82-9,4.22-13.51,7.59-24.4,15.07-48.82,19.27-74.11,8.33-50.29-.99-96.7-32.18-137.41-16.34-21.33-34.78-41.06-52.35-61.45-.5-.58-2.24-.91-2.75-.51-3.45,2.69-4.19,9.91-1.45,13.46,7.4,9.61,17.04,16.36,27.87,21.54,2.18,1.04,4.65,1.65,6.54,3.05,1.22.9,2.35,3,2.15,4.36-.15,1.04-2.36,2.14-3.83,2.51-1.35.34-2.95-.21-4.42-.46-11.26-1.95-21.19-6.77-30.07-13.89-1.02-.81-2.12-1.51-3.28-2.33-2.65,6.84-1.72,10.37,3.96,13.29,8.79,4.52,17.76,8.69,26.68,12.96,2.2,1.06,4.34,2.25,3.51,5.09-.84,2.86-3.41,2.98-5.71,2.34-8.51-2.35-16.97-4.87-25.44-7.35-1.02-.3-2.01-.71-3.73-1.32.3,3.12.67,5.49.71,7.86.07,3.26,1.46,5.34,4.54,6.57,8.76,3.49,17.46,7.13,26.19,10.68,2.24.91,4.43,1.94,4.05,4.82-.38,2.88-2.75,3.42-5.16,3.57-7.31.44-14.48-.26-21.4-2.84-1.1-.41-2.26-.64-4.44-1.24,1.47,4.74,2.55,8.56,3.91,12.29.26.7,1.56,1.25,2.47,1.44,11.02,2.32,22.06,4.53,33.08,6.85,2.19.46,3.93,1.73,3.67,4.26-.25,2.53-2.2,3.52-4.43,3.46-8.04-.21-16.07-.57-24.1-.91-1.21-.05-2.42-.27-3.63-.41ZM511.6,387.85c-1.27.95-2.28,1.65-3.23,2.41-9.53,7.67-20.24,12.68-32.42,14.37-1.02.14-2.21.52-3.05.15-1.25-.54-2.98-1.51-3.18-2.54-.23-1.24.67-2.97,1.59-4.06.73-.87,2.21-1.13,3.38-1.62,11.61-4.91,21.94-11.65,30.19-21.29,4.74-5.55,4.82-7.86,1.15-14.28-1.31-2.29-2.44-2.37-4.09-.32-3.83,4.74-7.68,9.47-11.67,14.08-12.73,14.69-26.22,28.79-38.18,44.08-29.14,37.25-41.04,79.71-36.06,126.84,2.34,22.2,7.81,43.71,14.13,65.03,3.53,11.92,7.27,23.77,11.05,35.62.33,1.03,1.62,2.5,2.45,2.5,3.98-.02,7.96-.54,11.95-.77,8.67-.5,16.93-2.17,23.62-8.25,1.54-1.4,2.84-3.06,4.9-5.31-2.24,0-3.4.21-4.46-.03-6.12-1.41-12.27-2.74-18.27-4.57-1.18-.36-2.61-3-2.31-4.19.29-1.16,2.55-2.17,4.11-2.56,1.35-.33,2.93.33,4.41.52,5.53.7,10.97.65,16.35-1.28,5.24-1.88,8.65-4.91,8.78-10.88.06-2.52.67-5.02.91-7.53.13-1.37.02-2.77.02-4.92-8.72,5.04-17.35,6.43-26.36,5.83-2.82-.19-6.37.23-6.76-3.7-.4-3.97,3.22-4.15,5.91-4.93,8.98-2.6,17.94-5.26,24.83-12.12.78-.78,1.96-1.82,1.9-2.67-.31-4.95-.93-9.87-1.49-15.26-1.33.66-1.8.78-2.11,1.07-6.71,6.22-14.98,8.25-23.76,8.9-2.92.22-6.58,1.2-7.44-2.86-.81-3.82,2.81-4.42,5.4-5.54,7.54-3.26,15.13-6.45,18.9-14.61.28-.6.81-1.22,1.38-1.51,3.27-1.63,3.17-4.08,1.89-6.94-.56-1.26-1.05-2.57-1.4-3.9-.8-3-2.13-3.62-5.25-2.38-5,1.98-10.27,3.3-15.47,4.75-2.32.65-4.8.74-5.89-2-1.08-2.72.82-4.18,2.84-5.55,4.47-3.03,8.87-6.17,13.31-9.26,1.83-1.28,2.03-2.76.38-4.26-2.37-2.17-5.06-4.04-7.2-6.4-1.8-1.99-3.75-2.81-6.32-2.78-8.98.12-17.58-1.93-26.03-4.72-2.3-.76-4.58-1.8-3.96-4.73.66-3.14,3.27-3.07,5.8-2.77.69.08,1.37.17,2.06.25,8.98,1.05,17.92,1.31,26.69-1.38,1.18-.36,2.3-.95,3.45-1.43-1.43-.96-2.72-1.04-3.86-1.49-6.93-2.7-13.86-5.4-20.71-8.3-2.07-.88-3.49-3.01-2.1-5.04.85-1.24,3.12-1.71,4.85-2.08,1.02-.22,2.22.44,3.34.7,11.15,2.62,22.39,4.23,33.88,2.95,1.33-.15,3.15-.3,3.83-1.17,3.36-4.26,6.41-8.76,9.57-13.17-.3-.33-.59-.67-.89-1-1.32.14-2.63.34-3.95.4-8.03.33-16.07.68-24.11.88-2.24.06-4.51-1.06-4.26-3.48.15-1.49,1.9-3.72,3.3-4.05,11.08-2.56,22.26-4.72,33.39-7.06.92-.19,2.28-.64,2.53-1.31,1.42-3.81,2.56-7.72,3.75-11.46-.85-.43-1.08-.65-1.25-.61-1,.25-2,.5-2.96.86-6.92,2.59-14.08,3.32-21.4,2.88-2.39-.14-4.81-.55-5.3-3.41-.53-3.1,1.81-4.15,4.19-5,1.08-.39,2.19-.73,3.25-1.17,7.96-3.33,15.93-6.62,23.84-10.06,1.17-.51,2.7-1.58,2.92-2.64.75-3.5.97-7.11,1.47-11.23-1.59.51-2.32.75-3.05.97-8.11,2.48-16.22,4.99-24.35,7.4-1.3.39-2.85.79-4.06.43-1.35-.39-3.18-1.44-3.48-2.56-.3-1.14.77-2.89,1.68-4.03.64-.8,2.02-1.01,3.05-1.51,8.28-4,16.64-7.86,24.82-12.06,6.37-3.28,7.25-6.13,4.69-13.86Z" style="fill: #000; stroke-width: 0px;"/>
  <path d="M351.89,132.62c-1.89,5.01-4.37,9.54-5.25,14.37-1.61,8.8-2.81,17.75-3.22,26.69-1.02,22.42-1.18,44.88-2.29,67.29-1.36,27.24-3.99,54.43-4.9,81.68-1.31,38.99-1.32,78.03-2.33,117.04-1.05,40.73-2.44,81.45-4.1,122.15-.51,12.51-2.34,24.97-3.74,37.44-.33,2.97.15,5.02,2.44,7.27,7.38,7.23,9.32,16.62,8.39,26.42-1.49,15.65-9.67,27.56-22.44,36.33-5.05,3.47-10.87,4.36-16.87,2.98-2.38-.55-4.02-.22-5.75,1.74-5.54,6.29-12.41,9.31-20.95,7.82-1.45-.25-3.01-.2-4.46.04-8.41,1.39-15.16-1.66-20.65-7.79-1.57-1.75-3.01-2.47-5.37-1.89-6.5,1.6-12.52.24-18.14-3.33-14.79-9.39-24.06-29.27-21.23-45.77,1.17-6.85,3.79-12.92,9.03-17.84,1.17-1.1,1.41-3.74,1.25-5.6-1.18-13.41-3.25-26.78-3.78-40.21-1.62-40.59-2.87-81.2-3.88-121.82-.91-36.71-.82-73.44-2.07-110.14-.95-27.94-3.57-55.82-4.95-83.75-1.18-24.02-1.45-48.09-2.56-72.12-.39-8.47-1.69-16.95-3.31-25.28-.89-4.59-3.32-8.89-5.06-13.32-.7-.29-1.4-.58-2.1-.86-.46,1.07-.72,2.29-1.41,3.17-6.92,8.71-12.42,18.24-16.9,28.41-1.12,2.55-.77,3.82,1.91,4.99,4.41,1.93,6.95,5.81,7.99,10.3,3.58,15.44.32,29.6-9.67,41.76-2.72,3.31-7.38,5.35-11.53,7.05-2.97,1.21-2.96,3.01-2.99,5.32-.04,2.59,1.88,2.41,3.59,2.63,8.25,1.09,14.07,5.96,18.66,12.47,6.61,9.38,9.43,19.91,8.68,31.32-.76,11.56-3.51,22.73-7.25,33.66-2.18,6.36-5.87,11.74-11.29,15.77-1.93,1.43-2.16,2.93-1.59,5.06,5.42,20.17,12.11,39.86,21.66,58.49.26.51.53,1.02.77,1.54.94,2.02,1.39,4.11-.76,5.56-2.31,1.56-4.4.4-5.63-1.57-3.83-6.13-8.11-12.11-11-18.67-19.93-45.27-30.76-92.52-29.16-142.19,1.11-34.37,7.84-67.48,24.91-97.76,4.31-7.64,10.01-14.56,15.53-21.44,1.63-2.03,4.7-3.45,7.34-3.99,4.75-.98,7.82,2.39,7.66,7.25-.05,1.44.31,3.34,1.24,4.31,7.24,7.57,11.25,16.74,13.78,26.7,4.14,16.26,6.07,32.86,6.5,49.55.85,32.68,1.63,65.37,1.59,98.05-.08,56.98-.84,113.95-1.27,170.93-.32,42.61,1.52,85.16,3.94,127.68.12,2.18.59,3.81,2.82,5.02,4.82,2.61,4.94,8.4.47,11.58-.28.2-.56.44-.88.54-8.1,2.59-8.7,8.97-7.86,15.89,1.12,9.26,5.22,17.09,12.03,23.47,4.33,4.07,9.28,5.29,14.96,3.18,3.99-1.48,7.98-2.98,12.05-4.22,2.6-.79,5.59-1.77,7.55,1.18,2.01,3.05-.25,5.12-2.13,7.2-.44.49-.74,1.1-1.09,1.63,5.09,5.38,18.71,5.4,24.03-.06-.62-.74-1.24-1.53-1.91-2.27-1.64-1.78-2.99-3.71-1.69-6.17,1.42-2.7,3.98-2.51,6.37-1.84,3.43.96,6.82,2.09,10.15,3.34,10.37,3.88,15.4,2.58,22.23-6.18,5.64-7.23,8.69-15.37,8.24-24.67-.22-4.5-1.92-7.74-6.34-9.73-7.43-3.34-7.72-8.58-1.31-13.49,1.12-.86,1.77-2.89,1.87-4.43,3.29-51.6,4.57-103.25,3.98-154.96-.59-51.79-1.01-103.59-.94-155.39.04-30.95.71-61.93,2.04-92.85.59-13.72,3.13-27.42,5.54-40.99,1.92-10.78,6.35-20.65,14.15-28.73.89-.92,1.34-2.66,1.31-4.01-.11-6.32,4.6-9.76,10.26-6.8,3.16,1.65,6.02,4.28,8.35,7.03,8.64,10.18,14.88,21.86,19.98,34.13,13.7,32.94,18.01,67.42,16.64,102.8-.88,22.76-4.49,45.11-10.33,67.1-5.72,21.5-12.72,42.56-23.11,62.33-1.76,3.34-4.07,6.4-6.29,9.47-1.48,2.05-3.44,3.86-6.08,2.02-2.42-1.68-1.56-3.99-.43-6.17,9.71-18.69,16.47-38.48,22.04-58.72.79-2.89-.14-4.38-2.1-6.48-3.63-3.89-7.46-8.08-9.51-12.87-5.05-11.8-7.75-24.34-8.32-37.21-.55-12.34,3.13-23.42,11.1-32.92,4.43-5.28,9.92-8.82,16.99-9.64,1.02-.12,2.73-1.45,2.69-2.14-.1-1.73-.66-4.63-1.66-4.92-16.69-4.87-20.91-18.52-23.24-33.16-.79-4.98-.19-10.34.66-15.38.88-5.29,3.98-9.44,9.07-11.91.81-.39,1.7-2.32,1.39-3.06-4.61-11.38-10.65-21.93-18.69-31.27-.2-.24-.58-.33-2.05-1.14Z" style="fill: #000; stroke-width: 0px;"/>
  <path d="M276.59,801.63c-.44-.04-1.4.02-2.26-.25-3.73-1.2-7.35-.89-11.16-.06-5.8,1.25-11.09-.72-15.25-4.7-4.72-4.52-9.26-9.3-13.28-14.43-4.77-6.08-10.48-10.58-17.64-13.35-1.39-.54-2.78-1.1-4.15-1.69-8.02-3.5-9.92-6.66-9.22-15.28.27-3.33,2.83-5.23,6.62-4.87,2.97.29,5.94.69,8.91.97,6.16.58,11.16-1.64,15.5-6.01,3.64-3.66,7.5-7.14,11.53-10.37,6.07-4.86,12.73-5.94,20.02-2.5,1.4.66,3.65.65,5.04-.01,7.3-3.47,13.9-2.26,20.03,2.5,3.17,2.46,6.55,4.87,9.06,7.94,6.47,7.92,14.64,9.75,24.16,7.93,1.24-.24,2.5-.49,3.75-.49,2.52,0,4.5,1.07,5.38,3.54,1.77,4.95-.96,12.45-5.57,14.94-2.62,1.42-5.41,2.53-8.18,3.66-6.76,2.76-12.24,7.04-16.78,12.83-3.89,4.96-8.24,9.59-12.7,14.05-3.59,3.59-8.12,5.6-13.83,5.65ZM268.79,776.89c8.15-.02,14.69-4.54,17.2-11.88,2.56-7.5-.37-15.72-6.82-18.61-2.6-1.17-5.39-2.46-8.15-2.64-11.53-.72-23.85,6.19-19.36,21.23,2.2,7.39,9.02,11.92,17.14,11.9Z" style="fill: #000; stroke-width: 0px;"/>
  <path d="M246.18,601.69c10.51-1.33,15.38,2.33,17.13,12.7,1.24,7.33.42,14.03-6.34,18.72-5.07,3.52-10.72,3.17-14.37-1.8-2.38-3.24-4.56-7.19-5.16-11.09-3.45-22.31-4.19-44.64,1.89-66.71.48-1.76,1.14-3.53,2.06-5.09,1.35-2.29,3.54-3.3,6.19-2.68,2.7.63,4.06,2.63,4.2,5.25.1,1.81-.17,3.68-.55,5.46-2.95,13.5-5.71,27.02-5.4,40.95.03,1.43.23,2.85.36,4.29Z" style="fill: #000; stroke-width: 0px;"/>
  <path d="M291.33,601.99c.13-1.9.27-3.24.3-4.58.3-13.46-2.16-26.57-5.1-39.61-.4-1.79-.73-3.62-.83-5.45-.2-3.46,1.53-6.16,4.26-6.64,3.32-.58,5.89.92,6.78,3.98,1.82,6.28,3.83,12.61,4.61,19.06,1.92,15.82,1.58,31.71-.5,47.51-.53,4.03-1.95,8.07-3.68,11.77-2.16,4.62-5.78,7.83-11.42,7.27-4.81-.48-10.16-5.38-11.36-10.4-1.47-6.17-.72-12.18,2.27-17.76,3.04-5.69,7.92-7.33,14.66-5.15Z" style="fill: #000; stroke-width: 0px;"/>
  <path d="M297.66,704.85c6.6.41,12.7,1.88,18.21,5.31,2.16,1.35,3.47,1.25,5.14-.9,4.45-5.72,11.49-7.81,17.5-5.59,5.9,2.18,9.39,8.08,9.21,15.53-.19,7.92-4.26,15.21-10.22,17.01-6.69,2.02-15.97,2.08-21.04-5.29-5.85-8.52-13.13-11.92-23.21-10.45-2.09.3-4.52-.67-6.57-1.57-2.48-1.09-4.26-3.4-3.53-6.07.57-2.08,2.1-4.68,3.91-5.48,3.26-1.45,7.04-1.73,10.6-2.5Z" style="fill: #000; stroke-width: 0px;"/>
  <path d="M239.84,720.56c-7.02-1.24-12.44,1.73-16.53,7.93-5.03,7.62-12.47,9.64-21.11,8.4-.11-.02-.23-.04-.34-.06-6.23-1.2-11.17-7.85-11.93-16.05-.74-8.07,2.61-14.42,8.97-16.99,6.03-2.44,13.37-.31,17.76,5.55,1.76,2.36,3.2,1.91,5.19.7,7.43-4.5,15.56-5.36,23.97-4.29,5.54.71,8.93,3.78,8.8,7.58-.13,3.9-4.08,6.93-9.51,7.21-1.6.08-3.22.01-5.28.01Z" style="fill: #000; stroke-width: 0px;"/>
  <path d="M32.12,233.25c.1-11.99,7.85-20.99,18.4-21.13,10.97-.14,21.91,11.24,21.75,22.63-.14,10.37-11.29,20.33-22.21,19.83-7.73-.35-14.11-5.62-16.56-13.91-.71-2.4-.94-4.95-1.39-7.43Z" style="fill: #000; stroke-width: 0px;"/>
  <path d="M505.34,232.82c-.09,11.43-6.51,20.08-16.03,21.56-7.84,1.22-17.57-3.86-21.7-11.34-3.78-6.84-2.67-15.39,2.85-21.85.52-.61,1.08-1.19,1.63-1.78,6.65-7.07,13.94-9.03,21.72-5.84,7.04,2.89,11.59,10.48,11.52,19.25Z" style="fill: #000; stroke-width: 0px;"/>
  <path d="M296.69,828.79c-6.16-.54-10.98-4.88-12.26-11.36-1.12-5.67,1.75-10.31,7.47-12.8,1.76-.77,3.27-2.33,4.63-3.78,2.27-2.41,4.03-5.37,6.53-7.49,6.57-5.57,13.33-10.95,20.21-16.13,3.56-2.68,7.41-5.1,11.41-7.04,1.62-.78,4.43-.67,5.95.26,2.28,1.4,1.61,4.08.52,6.24-3.87,7.64-9.71,13.75-16.16,19.11-6.56,5.45-11.47,11.58-14.15,19.87-1.22,3.79-4.51,7.11-7.43,10.06-1.62,1.63-4.43,2.08-6.7,3.06Z" style="fill: #000; stroke-width: 0px;"/>
  <path d="M239.79,828.24c-6.52-.72-10.28-6.04-13.11-12.36-1.08-2.41-1.36-5.29-2.84-7.36-2.78-3.88-6.09-7.39-9.3-10.94-5.53-6.12-11.32-12.01-16.65-18.3-1.99-2.35-4.11-5.64-1.31-8.72,2.91-3.2,6.04-.77,8.72.79,3.57,2.07,7.02,4.38,10.3,6.88,6.21,4.73,12.28,9.66,18.37,14.55,1.34,1.07,2.76,2.17,3.74,3.55,3,4.21,6.08,7.93,11.15,10.17,4.41,1.95,5.54,7.65,3.84,12.76-1.87,5.62-6.36,9.06-12.9,8.98Z" style="fill: #000; stroke-width: 0px;"/>
  <path d="M490.96,173.05c-.02,9.98-8.84,19.03-18.57,19.05-8.85.02-15.52-7.26-15.43-16.85.09-9.63,8.56-17.49,18.92-17.56,8.79-.05,15.09,6.36,15.07,15.36Z" style="fill: #000; stroke-width: 0px;"/>
  <path d="M80.73,175.38c.05,9.32-6.59,16.6-15.26,16.72-9.77.14-18.64-8.79-18.71-18.82-.07-8.97,5.99-15.5,14.47-15.6,10.75-.13,19.45,7.76,19.51,17.7Z" style="fill: #000; stroke-width: 0px;"/>
  <path d="M498.12,285.17c.03,10.07-8.09,18.87-17.59,19.05-10.42.2-17.99-9.29-15.06-19.32,1.81-6.21,4.98-11.63,11.53-14.16,10.98-4.25,21.08,2.64,21.12,14.44Z" style="fill: #000; stroke-width: 0px;"/>
  <path d="M56.2,304.22c-6.03-.25-11.2-3.85-14.43-10.14-3.22-6.26-3.38-12.65.66-18.66,4.69-6.98,15.3-8.07,22.34-2.32,4.34,3.55,6.99,8.26,7.78,13.79,1.33,9.35-5.74,17.32-16.35,17.32Z" style="fill: #000; stroke-width: 0px;"/>
  <path d="M130.53,787.25c9.72-.03,19.17,8.57,19.21,17.5.04,8.68-7.52,15.98-16.52,15.93-9.14-.05-17.04-8.46-17.06-18.16-.02-8.67,6.16-15.24,14.36-15.26Z" style="fill: #000; stroke-width: 0px;"/>
  <path d="M421.41,802.37c.07,9.71-7.75,18.18-16.9,18.31-9.02.13-16.52-7.01-16.61-15.81-.09-8.89,9.37-17.62,19.09-17.61,8.4,0,14.36,6.26,14.43,15.11Z" style="fill: #000; stroke-width: 0px;"/>
  <path d="M135.29,759.76c-.04,7.54-6.98,13.66-14.77,13.02-9.29-.77-17.01-12.78-13.8-21.48,1.92-5.22,6.78-8.41,12.31-8.1,7.83.44,16.29,9.06,16.25,16.56Z" style="fill: #000; stroke-width: 0px;"/>
  <path d="M419.38,743.19c5.87.02,10.85,4.09,12.06,9.85,1.27,6.05-2.15,13.37-8.13,17.43-4.66,3.17-10.2,3.16-15.2-.16-4.05-2.68-6.12-6.49-5.8-11.38.51-7.72,9.32-15.77,17.07-15.75Z" style="fill: #000; stroke-width: 0px;"/>
  <path d="M323.46,65.61c-8.16.06-14.4-7.18-12.18-15.36,1.27-4.68,4.2-9.1,7.12-13.1,2.18-2.99,5.96-3.15,9.5-2.05,6.62,2.05,11.65,9.96,10.65,16.68-1.23,8.23-7.27,13.76-15.09,13.82Z" style="fill: #000; stroke-width: 0px;"/>
  <path d="M226.67,52.49c.04,8.83-6.84,14.51-15.59,12.86-6.67-1.25-12.09-7.95-12.27-15.17-.16-6.36,5.35-13.74,11.41-15.28,4.04-1.02,8,.24,10.36,3.62,2.95,4.23,6.06,8.44,6.09,13.96Z" style="fill: #000; stroke-width: 0px;"/>
  <path d="M359.13,836.37c-.06-7.46,6.07-13.76,13.41-13.77,7.42-.02,13.33,5.82,13.46,13.31.14,7.85-6.28,15.07-13.48,15.16-7.25.1-13.32-6.58-13.39-14.7Z" style="fill: #000; stroke-width: 0px;"/>
  <path d="M178.39,836.17c.02,8.16-5.88,14.85-13.15,14.9-7.19.05-13.67-7.04-13.68-14.97,0-7.41,5.91-13.42,13.29-13.5,7.48-.08,13.53,5.97,13.54,13.56Z" style="fill: #000; stroke-width: 0px;"/>
  <path d="M427.31,712.95c-.04,8.08-6.79,15-14.55,14.94-7.15-.06-12.67-5.41-12.68-12.29-.01-8.24,6.81-15.25,14.76-15.15,7.03.09,12.51,5.58,12.48,12.5Z" style="fill: #000; stroke-width: 0px;"/>
  <path d="M122.91,700.44c7.87-.04,14.4,6.67,14.52,14.93.1,7.05-5.44,12.49-12.75,12.52-7.68.03-14.26-6.72-14.34-14.71-.07-7.15,5.4-12.7,12.57-12.74Z" style="fill: #000; stroke-width: 0px;"/>
  <path d="M452.92,116.77c7.67.21,14.06,6.44,13.84,13.48-.23,7.21-7.74,14.17-14.98,13.89-6.9-.27-12.48-6.23-12.36-13.2.14-7.81,6.39-14.37,13.5-14.17Z" style="fill: #000; stroke-width: 0px;"/>
  <path d="M98.18,131.12c-.02,7.1-5.88,13.02-12.88,13.02-7.36,0-14.37-7.05-14.34-14.42.03-6.92,6.77-13.03,14.29-12.96,6.94.06,12.94,6.73,12.93,14.36Z" style="fill: #000; stroke-width: 0px;"/>
  <path d="M470.85,333.27c.08,7.16-6.43,14.04-13.38,14.14-6.42.09-11.79-5.81-11.94-13.14-.16-7.61,5.07-13.5,12.1-13.66,7.13-.16,13.13,5.6,13.21,12.66Z" style="fill: #000; stroke-width: 0px;"/>
  <path d="M66.86,333.17c.15-7.26,5.9-12.72,13.22-12.55,7.01.16,12.13,6.06,11.94,13.75-.18,7.31-5.57,13.16-12.02,13.04-7.06-.13-13.3-6.89-13.15-14.24Z" style="fill: #000; stroke-width: 0px;"/>
  <path d="M417.81,668.7c.03,7.24-5.93,13.21-13.14,13.16-6.61-.05-11.77-5.01-11.85-11.4-.09-7.13,6.21-13.62,13.24-13.63,6.58-.01,11.72,5.19,11.75,11.87Z" style="fill: #000; stroke-width: 0px;"/>
  <path d="M132.61,681.86c-7.05-.08-12.89-6.03-12.86-13.08.03-6.77,5.42-12.09,12.07-11.94,6.94.16,13.06,6.56,12.96,13.57-.09,6.48-5.46,11.53-12.18,11.46Z" style="fill: #000; stroke-width: 0px;"/>
  <path d="M366.81,226.12c.06,6.4-4.24,11.41-9.91,11.56-5.85.15-10.99-5.19-11-11.43-.01-6.66,4.32-11.9,9.93-11.99,5.95-.1,10.92,5.27,10.99,11.87Z" style="fill: #000; stroke-width: 0px;"/>
  <path d="M170.69,225.87c.27-6.64,5.34-11.88,11.27-11.62,5.56.24,9.86,5.66,9.69,12.22-.15,6.15-5.53,11.47-11.3,11.19-5.63-.27-9.92-5.51-9.66-11.8Z" style="fill: #000; stroke-width: 0px;"/>
  <path d="M198.41,861.43c-6.01-.02-10.36-4.06-10.36-9.62,0-5.6,5.14-10.56,11-10.61,5.97-.05,10.92,4.52,10.94,10.1.01,5.85-4.92,10.17-11.58,10.14Z" style="fill: #000; stroke-width: 0px;"/>
  <path d="M338.87,861.42c-6.51-.09-11.36-4.4-11.31-10.05.05-5.56,5-10.19,10.9-10.18,5.97,0,11.11,5.1,11.02,10.92-.09,5.53-4.5,9.4-10.61,9.32Z" style="fill: #000; stroke-width: 0px;"/>
  <path d="M415.54,95.12c0-5.45,3.94-9.45,9.26-9.41,5.91.04,10.79,5.08,10.81,11.16.02,5.64-4.25,10.14-9.56,10.09-5.8-.06-10.52-5.38-10.52-11.83Z" style="fill: #000; stroke-width: 0px;"/>
  <path d="M122.06,95.02c.04,6.51-4.94,11.99-10.83,11.93-5.17-.05-9.23-4.43-9.27-10-.04-6.01,4.9-11.19,10.72-11.26,5.31-.06,9.34,3.94,9.37,9.33Z" style="fill: #000; stroke-width: 0px;"/>
  <path d="M150.95,631.1c.05,5.38-4.56,9.84-10.3,9.97-5.17.12-9.09-3.86-9.07-9.19.02-6.03,4.29-10.8,9.74-10.9,5.22-.09,9.57,4.49,9.62,10.12Z" style="fill: #000; stroke-width: 0px;"/>
  <path d="M396.95,641.07c-5.74-.06-10.3-4.44-10.3-9.9,0-5.63,4.28-10.21,9.53-10.19,5.58.02,9.86,4.92,9.77,11.17-.08,5.12-3.97,8.98-9,8.92Z" style="fill: #000; stroke-width: 0px;"/>
  <path d="M353.37,76.65c-5.45,0-9.99-4.4-10.08-9.76-.08-5.33,3.98-9.51,9.27-9.53,5.47-.03,10.1,4.62,10.11,10.13,0,5.03-4.18,9.15-9.3,9.15Z" style="fill: #000; stroke-width: 0px;"/>
  <path d="M185.02,57.38c5.16,0,9.2,4.05,9.2,9.21,0,5.57-4.57,10.11-10.13,10.07-5.13-.04-9.31-4.18-9.27-9.18.04-5.46,4.73-10.1,10.2-10.09Z" style="fill: #000; stroke-width: 0px;"/>
  <path d="M427.35,367.18c0-5.33,4.59-10.05,9.77-10.04,4.84,0,8.71,3.88,8.76,8.77.06,5.31-5.13,10.45-10.42,10.33-4.41-.1-8.11-4.22-8.11-9.06Z" style="fill: #000; stroke-width: 0px;"/>
  <path d="M100.48,357.15c5.15.01,9.74,4.75,9.76,10.06.01,4.87-3.99,9.12-8.52,9.04-5.21-.09-10.05-5.11-10-10.37.04-4.88,3.92-8.75,8.76-8.74Z" style="fill: #000; stroke-width: 0px;"/>
  <path d="M233.19,864.7c-4.52-.09-8.08-3.91-8.01-8.6.07-4.85,4.26-8.8,9.24-8.69,4.46.1,8.02,3.85,7.86,8.29-.19,4.91-4.41,9.09-9.08,9Z" style="fill: #000; stroke-width: 0px;"/>
  <path d="M312.31,856.19c.01,4.75-3.55,8.5-8.07,8.52-4.85.01-9.08-4.41-9-9.42.07-4.33,3.58-7.82,7.93-7.87,5-.05,9.13,3.91,9.14,8.77Z" style="fill: #000; stroke-width: 0px;"/>
  <path d="M423.79,398.94c-.03,4.73-3.57,8.14-8.39,8.07-5.02-.08-8.82-3.83-8.76-8.66.06-4.64,3.7-8.17,8.41-8.15,4.84.02,8.76,3.95,8.74,8.75Z" style="fill: #000; stroke-width: 0px;"/>
  <path d="M122.03,407c-4.81.05-8.31-3.4-8.28-8.15.03-4.77,4.03-8.69,8.84-8.66,4.67.03,8.29,3.63,8.31,8.27.02,4.83-3.78,8.49-8.87,8.55Z" style="fill: #000; stroke-width: 0px;"/>
  <path d="M372.84,529.9c-.05-4.38,3.45-7.87,7.88-7.84,4.43.02,7.89,3.46,7.92,7.86.03,4.34-3.55,7.93-7.88,7.91-4.33-.02-7.86-3.55-7.92-7.92Z" style="fill: #000; stroke-width: 0px;"/>
  <path d="M148.95,529.89c.06-4.44,3.5-7.84,7.94-7.84,4.47,0,7.83,3.38,7.83,7.9,0,4.28-3.6,7.85-7.97,7.88-4.37.03-7.86-3.51-7.81-7.94Z" style="fill: #000; stroke-width: 0px;"/>
  <path d="M381.45,596.97c-.04-4.44,3.39-7.91,7.79-7.88,4.24.03,7.57,3.42,7.58,7.72,0,4.33-3.56,7.94-7.85,7.94-4.2,0-7.48-3.4-7.52-7.78Z" style="fill: #000; stroke-width: 0px;"/>
  <path d="M156.07,597.09c-.06,4.36-3.43,7.75-7.59,7.66-4.38-.1-7.74-3.6-7.69-8.03.05-4.29,3.45-7.69,7.64-7.65,4.39.05,7.72,3.53,7.65,8.01Z" style="fill: #000; stroke-width: 0px;"/>
  <path d="M382.72,555.15c4.22.08,7.55,3.62,7.39,7.85-.16,4.16-3.51,7.44-7.53,7.38-4.02-.06-7.45-3.74-7.4-7.95.05-4.11,3.41-7.35,7.54-7.28Z" style="fill: #000; stroke-width: 0px;"/>
  <path d="M154.95,555.15c4.2,0,7.37,3.19,7.36,7.41,0,4.23-3.47,7.84-7.51,7.83-3.99-.01-7.31-3.39-7.38-7.53-.08-4.25,3.28-7.7,7.53-7.7Z" style="fill: #000; stroke-width: 0px;"/>
  <path d="M307.37,500.2c.02,4.58-2.85,7.92-6.81,7.94-3.94.02-7.59-3.74-7.63-7.84-.04-4.19,3.17-7.58,7.24-7.65,4.1-.07,7.19,3.17,7.2,7.56Z" style="fill: #000; stroke-width: 0px;"/>
  <path d="M402.42,432.66c-.12,4.24-3.89,7.81-8.13,7.7-3.87-.1-6.99-3.33-6.88-7.14.12-4.35,3.73-7.92,7.95-7.87,4.07.06,7.17,3.26,7.06,7.3Z" style="fill: #000; stroke-width: 0px;"/>
  <path d="M237.22,492.64c4.06,0,7.38,3.39,7.38,7.52,0,4.13-3.55,7.89-7.53,7.96-3.96.08-6.96-3.28-6.97-7.8,0-4.37,3.06-7.68,7.12-7.69Z" style="fill: #000; stroke-width: 0px;"/>
  <path d="M150.07,433.38c.03,3.85-3.12,6.99-6.99,6.99-4.28,0-7.95-3.63-7.97-7.85-.01-4.07,3.1-7.16,7.19-7.14,4.23.02,7.73,3.63,7.77,8Z" style="fill: #000; stroke-width: 0px;"/>
  <path d="M300.66,60.55c.04,4.23-3.09,7.31-7.43,7.3-3.95,0-7.04-3.01-7.08-6.88-.04-4.07,3.32-7.55,7.32-7.59,4.03-.04,7.15,3.07,7.19,7.17Z" style="fill: #000; stroke-width: 0px;"/>
  <path d="M244.28,67.86c-4.26,0-7.49-3.16-7.46-7.3.03-4,3.27-7.21,7.23-7.18,4.01.04,7.3,3.47,7.28,7.6-.01,3.87-3.1,6.87-7.06,6.88Z" style="fill: #000; stroke-width: 0px;"/>
  <path d="M249.15,525.93c-.07,4.02-3.08,7.16-6.87,7.18-3.97.02-7.01-3.41-6.96-7.84.05-4.01,3.11-7.06,6.99-6.97,3.86.09,6.91,3.5,6.83,7.63Z" style="fill: #000; stroke-width: 0px;"/>
  <path d="M288.35,525.78c-.03-4.09,3.14-7.47,6.99-7.48,3.85,0,6.91,3.17,6.87,7.12-.04,4.25-2.99,7.58-6.81,7.69-3.92.11-7.01-3.1-7.05-7.33Z" style="fill: #000; stroke-width: 0px;"/>
  <path d="M388.02,496.67c-.03,4.11-3.23,7.32-7.2,7.21-4-.11-7.08-3.37-7.02-7.46.05-3.84,3.2-6.98,7.07-7.04,3.95-.06,7.18,3.23,7.16,7.29Z" style="fill: #000; stroke-width: 0px;"/>
  <path d="M163.71,496.72c-.07,4.07-3.31,7.25-7.3,7.16-4.06-.09-7.03-3.32-6.9-7.49.13-3.98,3.2-7.02,7.07-6.99,4.03.03,7.19,3.28,7.12,7.32Z" style="fill: #000; stroke-width: 0px;"/>
  <path d="M386.15,459.23c3.82-.02,6.79,2.88,6.85,6.7.06,3.98-2.98,7.05-6.93,6.98-3.72-.06-6.79-3.21-6.73-6.89.07-3.84,3.01-6.77,6.8-6.79Z" style="fill: #000; stroke-width: 0px;"/>
  <path d="M158.15,466.07c0,3.75-3.01,6.8-6.77,6.85-3.86.06-6.99-3.15-6.89-7.05.1-3.78,3.14-6.7,6.93-6.65,3.8.06,6.74,3.04,6.73,6.85Z" style="fill: #000; stroke-width: 0px;"/>
  <path d="M308.59,474.43c.07,3.74-2.73,6.78-6.29,6.81-3.53.03-6.48-3-6.47-6.65,0-3.66,2.93-6.66,6.49-6.64,3.36.02,6.21,2.96,6.27,6.48Z" style="fill: #000; stroke-width: 0px;"/>
  <path d="M229,474.41c.06-3.61,2.78-6.44,6.22-6.47,3.54-.04,6.44,2.98,6.42,6.66-.03,3.72-2.87,6.65-6.45,6.64-3.55,0-6.25-2.99-6.18-6.83Z" style="fill: #000; stroke-width: 0px;"/>
  <path d="M310.59,446.91c-.03,3.63-2.8,6.42-6.3,6.35-3.41-.07-6.03-2.82-5.97-6.27.06-3.42,2.76-6.14,6.13-6.17,3.41-.03,6.17,2.71,6.14,6.09Z" style="fill: #000; stroke-width: 0px;"/>
  <path d="M239.25,446.99c.04,3.38-2.65,6.18-6.02,6.27-3.53.09-6.28-2.7-6.25-6.34.03-3.52,2.65-6.15,6.09-6.11,3.3.04,6.14,2.88,6.18,6.18Z" style="fill: #000; stroke-width: 0px;"/>
  <path d="M285.71,44.52c0,3.32-2.63,5.92-5.92,5.85-3.22-.06-5.75-2.75-5.73-6.1.01-3.17,2.55-5.86,5.55-5.89,3.37-.03,6.11,2.73,6.11,6.15Z" style="fill: #000; stroke-width: 0px;"/>
  <path d="M263.5,44.22c.03,3.3-2.53,6.05-5.73,6.15-3.36.11-5.93-2.39-5.94-5.79-.02-3.44,2.75-6.28,6.04-6.22,3.04.06,5.61,2.73,5.64,5.85Z" style="fill: #000; stroke-width: 0px;"/>
  <path d="M263.86,857.4c.06,3.34-2.48,5.93-5.77,5.9-3.24-.03-5.87-2.72-5.83-5.94.04-3.17,2.48-5.64,5.64-5.71,3.3-.07,5.9,2.43,5.96,5.75Z" style="fill: #000; stroke-width: 0px;"/>
  <path d="M285.21,857.4c.03,3.24-2.6,5.9-5.83,5.89-3.14,0-5.69-2.48-5.77-5.59-.09-3.31,2.39-5.95,5.68-6.05,3.33-.1,5.89,2.39,5.92,5.74Z" style="fill: #000; stroke-width: 0px;"/>
</svg>