<?xml version="1.0" encoding="utf-8"?><!-- Uploaded to: SVG Repo, www.svgrepo.com, Generator: SVG Repo Mixer Tools -->
<svg width="800px" height="800px" viewBox="0 0 64 64" xmlns="http://www.w3.org/2000/svg" xmlns:xlink="http://www.w3.org/1999/xlink" aria-hidden="true" role="img" class="iconify iconify--emojione-monotone" preserveAspectRatio="xMidYMid meet"><path d="M32 2C15.432 2 2 15.432 2 32s13.432 30 30 30c16.566 0 30-13.432 30-30S48.566 2 32 2zm0 57.5C16.836 59.5 4.5 47.164 4.5 32S16.836 4.5 32 4.5c15.163 0 27.5 12.336 27.5 27.5S47.163 59.5 32 59.5z" fill="#000000"></path><path d="M40 44H24c-1.504 0-1.504 4 0 4h16c1.504 0 1.504-4 0-4" fill="#000000"></path><path d="M27.128 28h-16c-1.504 0-1.504 4 0 4h16c1.504 0 1.504-4 0-4" fill="#000000"></path><path d="M52.872 28h-16c-1.504 0-1.504 4 0 4h16c1.504 0 1.504-4 0-4" fill="#000000"></path></svg>