<?xml version="1.0" encoding="UTF-8"?>
<svg id="Layer_1" data-name="Layer 1" xmlns="http://www.w3.org/2000/svg" viewBox="0 0 775.88 900">
  <path d="M127.07,463.13c-6.42-4.07-10.17-10.45-12.81-18.05-1.44,1.02-2.29,1.75-3.25,2.27-4.28,2.33-8.39,5.24-12.95,6.75-13.4,4.45-26.28-.74-33.82-13.19-6.58-10.87-8.54-23-8.94-35.41-1.2-37.41,9.74-70.92,32.76-100.47.79-1.02,1.44-2.15,2.49-3.73-1.85,0-3.04.05-4.23,0-5.91-.3-11.89-.19-17.72-1.06-6.88-1.03-12.73-4.52-17.32-9.86-4.56-5.3-6.93-11.43-6.07-18.46.35-2.84-.35-3.81-3.24-4.17-11.28-1.42-21.27-5.87-29.53-13.78-13.13-12.57-16.33-30.86-7.38-46.67,10.02-17.71,24.99-28.44,45.86-29.89,8-.55,16-1.24,23.95-2.27,8.35-1.09,16.19-3.94,23.53-8.1,14.76-8.38,30.41-14.13,47.34-16.17.79-.1,1.56-.42,2.41-1.35-1-.15-2-.44-3-.44-8.64,0-17.29-.15-25.93.11-12.24.37-24.43.43-36.26-3.29-11.68-3.67-21.9-9.85-29.84-19.24-7.4-8.75-10.75-19.05-9.35-30.52,1.07-8.78,6.15-14.61,14.55-17.47q3.49-1.19,1.51-4.43c-5.06-8.34-9.33-17.02-11.03-26.74-3.17-18.16,5.66-32.78,23.34-38.19,17.43-5.33,33.51-1.59,48.1,8.58,5.32,3.71,9.95,8.51,14.48,13.21,7.44,7.73,14.41,15.91,21.82,23.68,5.64,5.91,12.99,9.19,20.68,12.54.26-1.11.52-1.86.59-2.63.55-5.95,3.32-10.53,8.6-13.33,2.43-1.29,2.42-2.46.74-4.22-.43-.45-.76-.99-1.12-1.5-13.45-19.33-2.16-43.4,21.38-45.48,11.26-.99,21.47,2.65,30.24,9.1,9.79,7.2,18.77,15.52,27.9,23.58,4.53,3.99,8.63,8.47,12.88,12.77,9.51,9.62,20.65,16.83,32.87,22.48.82.38,1.69.64,3.48,1.3-.92-1.72-1.37-2.68-1.92-3.58-5.77-9.46-8.36-19.69-7.47-30.78.85-10.58,5.55-18.84,14.59-24.55,6.9-4.36,14.39-7.45,22.47-8.09,16.65-1.33,28.88,6.67,37.67,20.06,3.02,4.61,4.4,10.29,6.5,15.5.41,1.01.66,2.08.98,3.13.27.01.53.03.8.04.34-1.12.73-2.23,1.02-3.36,3.87-15.15,12.34-26.5,27.02-32.72.86-.37,1.71-.79,2.59-1.09,14.13-4.78,26.52.06,38.18,7.42,10.35,6.53,13.76,16.81,13.61,28.56-.12,8.96-2.54,17.28-7.14,24.97-.68,1.14-1.32,2.3-1.54,4.08,1.18-.43,2.39-.78,3.52-1.31,12.89-6.01,24.18-14.2,34.27-24.27,9.59-9.56,19.54-18.78,29.64-27.81,7.62-6.82,16.43-11.78,26.43-14.34,14.14-3.62,27.85,1.17,35.44,12.33,6.54,9.63,6.07,21.22-1.32,31.9-.65.94-1.59,1.76-1.97,2.79-.25.69,0,2.18.47,2.42,6.45,3.25,9.37,8.62,9.8,15.6.01.17.23.33.68.92,1.62-.74,3.36-1.55,5.11-2.33,7.83-3.52,14.42-8.56,20.02-15.14,6.48-7.61,13.13-15.12,20.15-22.24,14.86-15.08,32.44-23.36,54.1-19.45,4.83.87,9.73,2.71,13.96,5.18,11.08,6.46,16.16,16.53,15.4,29.33-.69,11.69-5.66,21.89-11.6,31.7-1.97,3.25-2,3.24,1.49,4.41,9.07,3.05,14.55,10.25,14.82,19.94.38,13.46-4.74,24.62-14.83,33.42-11.97,10.43-25.98,16.18-41.82,16.93-8.21.39-16.46-.11-24.69-.1-7.08,0-14.16.17-21.24.29-.57,0-1.14.24-1.83,1.06,1.2.29,2.38.68,3.59.85,13.54,1.9,26.76,5.32,38.53,12.26,16.43,9.69,34.07,13.72,52.86,14.02,18.5.29,32.71,8.95,43.67,23.25,15.87,20.72,10.49,46.97-12.06,60.11-6.58,3.83-13.61,6.3-21.18,7.17-1.94.22-3.15.76-2.78,3.09,1.86,11.76-6.13,23.35-18.2,27.86-7.38,2.75-15.05,3.15-22.82,2.52-1.2-.1-2.39-.15-4.43-.28,1.15,1.76,1.78,2.89,2.57,3.9,16.46,21.04,27.22,44.62,31.13,71.12,2.73,18.51,3.31,37.01-2.68,55.1-2.78,8.4-7.16,15.86-15.04,20.49-10.51,6.18-20.99,4.84-31.19-.95-2.69-1.53-5.18-3.42-8.38-5.57-2.49,7.49-6.32,13.82-13.24,18.34,1.57,1.37,2.74,2.47,3.98,3.47,9.99,8.09,19.89,16.32,26.57,27.55,11.01,18.51,15.63,38.31,10.97,59.71-1.64,7.54-4.91,14.43-10.05,20.26-10.53,11.97-23.79,15.02-38.9,11.41-7.82-1.87-14.83-5.5-21.22-10.35-.75-.57-1.5-1.13-2.27-1.66-.15-.11-.39-.09-1.03-.22-5.81,27.49-23.9,31.22-48.07,23.69.43,2.33.68,4.25,1.15,6.1,4.52,17.63,12.22,33.86,21.54,49.43,5.83,9.73,12.33,19.28,16.6,29.69,10.37,25.3,6.91,49.74-8.01,72.4-6.67,10.12-16.05,16.37-28.84,15.56-8.36-.53-15.31-4.43-21.57-9.73-.71-.6-1.44-1.18-2.19-1.74-.14-.1-.4-.04-1-.08-.28.97-.62,2.01-.88,3.07-1.82,7.41-4.81,14.22-10.12,19.83-5.16,5.45-11.3,7.64-18.71,5.35-.39-.12-.81-.19-1.22-.21-.18-.01-.37.15-.94.4.35,1.19.56,2.5,1.1,3.65,3.35,7.18,6.74,14.33,10.18,21.47,8.29,17.23,7.75,34.55-.08,51.64-2.12,4.63-5.41,8.97-8.97,12.67-9.59,9.95-21.78,10.73-33.06,2.68-1.33-.95-2.63-1.95-4.12-3.06-.58.8-1.05,1.32-1.37,1.92-4.91,9.18-15.46,15-25.76,13.46-3.54-.53-7.16-2.27-10.14-4.33-2.45-1.7-3.34-1.21-5.33.52-4.06,3.52-8.23,7.19-12.98,9.58-11.77,5.91-23.41.57-27.08-12.09-1.28-4.42-4.97-6.54-7.76-9.53-.29-.31-1.7-.1-2.12.33-3.11,3.13-6.47,5.83-7.84,10.58-2.98,10.27-13.14,15.26-23.32,12.08-6.77-2.12-12.16-6.33-16.84-11.5-1.37-1.51-2.39-1.93-4.09-.35-11.22,10.42-30.78,2.86-35.79-7.18-.55-1.09-1.17-2.15-1.95-3.57-1.15.83-2.07,1.44-2.94,2.11-12.4,9.57-25.33,8.52-35.94-2.99-4.81-5.22-8.35-11.25-10.36-18.03-4.63-15.54-4.54-30.81,3.1-45.59,3.3-6.39,6.29-12.94,9.34-19.45.73-1.56,1.16-3.26,1.91-5.43-1.37.18-2.16.2-2.89.4-6.79,1.9-12.59.07-17.49-4.76-5.67-5.58-8.84-12.55-10.75-20.17-.25-1.01-.54-2.01-.85-3-.05-.16-.3-.27-.72-.63-.65.46-1.38.96-2.09,1.49-2.17,1.62-4.23,3.41-6.51,4.86-14.2,9.04-30.64,7.18-41.01-6.06-19.47-24.88-22.5-52.31-9.49-81.1,3.54-7.84,8.43-15.1,12.99-22.44,10.09-16.21,18.29-33.23,23.13-51.77.42-1.61.68-3.26.96-4.91.06-.37-.1-.79-.19-1.4-23.53,7.36-41.53,3.68-47.63-24.21-1.23.83-2.23,1.44-3.17,2.15-8.41,6.35-17.68,10.69-28.26,11.63-16.05,1.43-28.23-5.08-36.37-18.84-8.07-13.64-8.72-28.47-6.1-43.66,3.76-21.79,14.98-39.06,32.09-52.75,3.09-2.47,6.08-5.06,9.1-7.62.13-.11.13-.38.32-1.06ZM425.48,626.87c-1.42.07-2.13.08-2.83.15-9.09.95-15.48-3.03-19.71-10.86-2.78-5.16-3.84-10.76-3.99-16.57-.34-12.85,3.54-24.66,8.86-36.12,6.46-13.94,16.84-24.73,28.04-34.85,9.67-8.73,18.66-18.14,23.72-30.31,4.31-10.36,8.13-21.01,10.99-31.85,1.72-6.5,1.39-13.6,1.5-20.43.03-1.76-1.33-4.05-2.77-5.24-12.39-10.34-19.76-23.48-22.6-39.28-.18-1.02-.55-2.01-.84-3.02-2.78,4.54-4.66,9.15-6.94,13.54-10.02,19.27-14,39.49-10.44,61.12.82,4.99.83,10.21.49,15.27-.59,8.74-2.87,17.09-8.02,24.36-7.66,10.81-20.07,13.46-31.54,6.97-.75-.43-2.36-.35-3,.18-7.65,6.29-20.3,3.75-27.37-2.69-5.13-4.67-7.9-10.65-9.86-17.12-3.19-10.54-2.58-21.15-1.13-31.92.82-6.13.96-12.5.32-18.66-1.36-13.25-4.56-26.05-11.35-37.76-1.98-3.41-3.28-7.2-4.91-10.81-.39-.87-.86-1.7-1.29-2.54-1.06,1.3-1.36,2.45-1.57,3.63-2.72,14.65-9.26,27.26-20.7,36.89-3.7,3.11-5.14,6.56-5.1,11.05.01,1.46-.1,2.93.07,4.38,2.47,21.41,8.92,41.49,22.14,58.67,6.24,8.11,14.1,15.03,21.56,22.14,15.1,14.41,25.07,31.61,28.97,52.16,1.85,9.71,1.62,19.32-2.84,28.45-3.89,7.96-10.72,11.89-19.5,11.28-.89-.06-1.79,0-2.62,0-.11.43-.26.66-.21.81.42,1.17.86,2.34,1.33,3.49,8.93,21.99,9.79,44.44,1.7,66.59-2.97,8.14-5.81,16.13-7.25,24.64-.31,1.85-.84,3.66-1.32,5.47-4.34,16.65-8.68,33.3-13.03,49.94-2.28,8.74-3.34,17.61-2.81,26.65.68,11.52,3.07,22.59,9.85,32.18,7.35,10.39,21.76,12.11,31.41,3.85,2.74-2.35,5.19-5.17,7.25-8.13.96-1.38,1.15-3.68.91-5.46-.56-4.12-1.85-8.14-2.28-12.26-.15-1.48.99-4,2.15-4.44,1.19-.45,3.41.74,4.66,1.81,1.66,1.44,2.81,3.47,4.43,5.57,1.73-2.28,2.95-4.4,4.66-5.98,1.06-.98,3.24-1.95,4.22-1.48,1.2.58,2.32,2.68,2.3,4.11-.04,2.99-.3,6.19-1.45,8.9-2.53,5.97-.24,10.2,3.93,14.11,1.06,1,2.05,2.09,3.15,3.04,7.13,6.14,16.13,7.11,24.47,2.75,4.95-2.59,8.14-6.75,10.5-11.63,6.35-13.19,8.08-27.18,6.01-41.5-1.21-8.32-3.52-16.5-5.53-24.69-4.03-16.4-8.41-32.72-12.2-49.17-1.17-5.09-1.88-10.13-4.73-14.7-1.57-2.51-2.53-5.52-3.26-8.43-5.28-21.23-4.82-42.14,3.9-62.52.44-1.02.84-2.06,1.5-3.69ZM281.13,306.22c-.22-.28-.44-.56-.66-.83-3.79,1.65-7.61,3.23-11.36,4.95-19.55,8.93-39.1,10.36-58.78.35-1.22-.62-3.08-.48-4.49-.13-8.56,2.16-14.69,7.66-19.39,14.85-8.23,12.61-11.66,26.44-9.83,41.42.81,6.62,1.93,13.21,3.23,19.75,4.87,24.36-1.8,45.81-16.31,65.27-5.1,6.84-11.38,12.15-19.95,14.24-1.35.33-2.65,1.25-3.73,2.17-5.85,5.03-11.54,10.24-17.44,15.21-13.06,11-20.96,24.93-23.97,41.68-2,11.15-2.29,22.19,2.29,32.89,5.82,13.6,17.3,19.83,31.18,16.73,9.55-2.14,17.46-7.16,24.16-14.23,2.25-2.37,3.34-5.08,3.81-8.33.84-5.76,1.83-11.53,3.34-17.14,1.02-3.77,4.21-5.42,7.4-4.86,3.02.53,5.17,2.99,5.14,6.89-.03,4.35-.45,8.73-1.05,13.05-1.09,7.91-1.39,15.8.29,23.64,1.65,7.72,5.38,11.01,13.25,11.87,9.98,1.08,18.18-2.69,25.08-9.61,17.79-17.85,22.19-39.99,19.86-64-.81-8.36-2.74-16.63-4.41-24.89-1.77-8.75-3.07-17.47-.84-26.33.09-.35-.08-.77-.16-1.47-1.13,0-2.14,0-3.16,0-14.88.07-24.56-7.86-26.86-22.58-2.58-16.52,2.63-30.67,15-41.69,11.73-10.46,20.66-22.74,27.5-36.8,4.93-10.16,11.13-19.55,18.9-27.86,5.98-6.4,11.79-12.95,17.67-19.44,1.44-1.59,2.88-3.17,4.32-4.76ZM547.78,459.35c2.43,9.46,1.44,18.29-.39,27.14-1.58,7.64-2.88,15.34-4.25,23.02-1.75,9.78-1.23,19.54.49,29.24,2.74,15.46,9.31,28.89,21.32,39.36,5.9,5.14,12.69,7.91,20.58,7.7,9.64-.26,14.65-3.98,15.66-13.51.81-7.58.08-15.34-.14-23.01-.12-4.26-.82-8.5-.81-12.75.01-3.45,2.18-5.76,5.04-6.32,2.82-.56,5.58.87,7.14,3.91.66,1.28,1.19,2.7,1.44,4.11.88,4.82,1.47,9.69,2.45,14.48.44,2.18,1.04,4.64,2.41,6.27,7.27,8.68,16.46,14.41,27.74,16.19,10.56,1.66,19.05-2.04,25.24-10.81,3.62-5.13,5.97-10.85,6.58-17.05,2.33-23.81-4.2-44.6-21.87-61.24-6.67-6.29-13.72-12.18-20.68-18.15-1.14-.98-2.67-1.68-4.13-2.08-5.6-1.52-10.48-4.33-14.29-8.59-15.46-17.24-24.37-37.06-22.3-60.67.78-8.91,2.69-17.72,4.06-26.58,2.45-15.8-.5-30.52-9.1-44.02-4.6-7.23-10.55-13-19.12-15.19-2-.51-4.61-.33-6.48.54-14.51,6.79-29.44,8.41-44.74,3.56-7.23-2.29-14.16-5.54-21.23-8.34-.97-.38-1.98-.66-2.97-.99.13,1.25.56,1.92,1.09,2.52,2.97,3.35,5.82,6.84,8.99,10,14.38,14.33,26.33,30.35,34.97,48.8,3.98,8.5,9.74,15.74,16.59,22.15,3.5,3.28,7.05,6.54,10.21,10.13,9.86,11.21,13.46,24.32,10.68,38.95-2.58,13.54-12.01,21.09-25.83,21.21-1.31.01-2.62,0-4.35,0ZM485.68,450.44c-.15,1.2-.32,1.8-.28,2.4.63,9.95-1.49,19.46-4.35,28.9-6.56,21.62-17.32,40.55-34.67,55.42-2.84,2.44-5.48,5.13-8.09,7.82-12,12.34-20.1,26.79-23.22,43.81-1.23,6.73-1.18,13.51.95,20.11,1.75,5.42,4.41,6.42,9.08,3.05,2.84-2.05,5.52-4.5,7.72-7.23,4.64-5.76,8.8-11.89,13.37-17.71,2.95-3.75,6.02-7.48,9.5-10.73,3.45-3.22,7.54-3.42,10.64-1.38,2.94,1.93,4.13,5.67,3.1,10.09-1.21,5.22-3.98,9.62-7.55,13.5-2.75,2.99-5.71,5.78-8.57,8.67-14.08,14.2-21.96,31.27-23.26,51.22-.77,11.87.12,23.61,5.35,34.55,4.22,8.83,9.5,11.02,18.89,8.21,8.62-2.58,16.22-7.13,23.16-12.72,15.31-12.34,25.89-27.47,26.48-47.89.19-6.53-.3-13.15-1.21-19.63-2.97-21.04-1.88-41.72,5.9-61.58,5.85-14.92,12.71-29.45,19.04-44.19,1.05-2.45,1.93-5.05,2.42-7.67,1.36-7.37,2.55-14.77,3.67-22.19.81-5.34,2.06-10.73,1.92-16.07-.19-7.4-2.65-13.96-9.94-17.88-3.43-1.85-6.29-4.76-9.4-7.2-.7-.55-1.38-1.13-2.34-1.92-6.92,11.28-16.74,12.38-28.3,8.22ZM262.29,442.65c-5.66,3.99-10.95,7.64-16.14,11.43-.96.7-1.59,1.9-2.24,2.96-4.9,8-4.06,16.49-2.37,25.17,1.67,8.58,2.89,17.25,4.43,25.86.38,2.12,1.05,4.25,1.92,6.23,6.1,13.93,12.66,27.68,18.36,41.78,7.55,18.69,10.16,38.19,7.7,58.3-.73,6-1.35,12.02-1.82,18.05-1.08,13.76,1.86,26.55,9.67,38.05,8.47,12.46,19.65,21.78,33.28,28.1,3.37,1.56,7.04,2.6,10.68,3.41,5.34,1.2,9.89-.64,12.63-5.33,2.18-3.73,4.25-7.78,5.21-11.95,6.69-29.24.39-55.17-20.53-77.11-2.73-2.87-5.7-5.52-8.39-8.42-4.02-4.34-7.24-9.18-8.3-15.15-.65-3.66.13-6.94,3.38-9.1,3.3-2.21,6.73-1.56,9.62.69,2.61,2.03,5.03,4.41,7.08,7,4.26,5.4,7.96,11.25,12.35,16.53,3.9,4.69,8.09,9.26,12.77,13.14,3.82,3.17,6.6,1.9,8.28-2.83,2.07-5.82,2.32-11.87,1.51-17.92-2.11-15.87-8.82-29.77-19.32-41.67-6.4-7.26-13.69-13.72-20.47-20.64-18.53-18.93-31.11-50.25-30.94-76.78,0-.5-.14-1-.28-1.95-11.32,3.99-21.35,3.25-28.07-7.84ZM579.79,299.89c.96.54,1.54.95,2.18,1.21,5.54,2.24,10.21,5.74,13.94,10.32,11.85,14.52,18.36,31.16,17.27,49.96-.62,10.66-2.9,21.25-4.85,31.79-2.37,12.8-.68,24.9,5.08,36.49,3.88,7.79,8.04,15.42,15.39,20.55,8.49,5.94,16.25,3.08,18.85-6.9,1.89-7.24,1.52-14.22-1.17-21.43-2.71-7.26-4.4-14.94-5.96-22.56-.74-3.59,1.52-6.32,4.53-7.34,2.97-1.01,5.99.09,8.15,3.07.73,1.01,1.49,2.07,1.89,3.23,2.51,7.27,5.91,14.41,7.12,21.9,1.41,8.73,6.22,14.09,13.15,18.25,11.05,6.61,20.78,3.7,26.46-7.8,1.15-2.32,2.35-4.77,2.77-7.28,1.21-7.17,2.83-14.4,2.87-21.62.17-31.75-9.77-60.46-27.52-86.57-6.62-9.74-13.32-19.55-22.97-26.64-7.8-5.73-14.45-12.57-20.78-19.8-2.47-2.82-5.13-5.48-7.6-8.3-6.42-7.31-14.39-10.92-24.13-9.99-2.03.19-4.12,1.09-5.91,2.13-5.91,3.45-11.7,7.12-17.54,10.69-.73.45-1.51.82-2.66,1.43,14,11.38,11.08,23.19,1.43,35.21ZM197.46,264.82c-.63-.54-.89-.9-1.24-1.04-7.38-2.84-13.97-6.94-19.9-12.17-.73-.64-1.84-1.11-2.81-1.18-9.09-.66-17.47.89-24.01,7.98-1.91,2.07-3.86,4.09-5.84,6.09-7.18,7.24-14.33,14.51-21.6,21.66-4.96,4.88-10.83,9.01-15,14.46-7.32,9.57-14.48,19.45-20.23,30-13.18,24.16-19.84,50.11-18.07,77.85.57,8.91,2.32,17.59,7.23,25.29,2.62,4.1,6.14,6.95,11.12,7.9,10.33,1.96,25.27-10.37,26.33-18.89.96-7.72,4.17-15.19,6.64-22.69.7-2.12,2.07-4.11,3.48-5.88,1.83-2.3,4.42-3.19,7.29-2.27,3,.96,4.52,3.27,4.74,6.34.1,1.44.09,2.97-.29,4.34-1.76,6.42-3.19,12.99-5.66,19.13-2.74,6.82-3.14,13.53-1.52,20.5,2.64,11.34,10.98,14.25,20.27,7.15.5-.38,1.02-.75,1.44-1.2,12.32-13.29,19.86-28.61,18.69-47.11-.45-7.24-2.03-14.45-3.6-21.56-4.93-22.38-1.97-43.31,10.89-62.53,4.72-7.06,10.58-12.87,18.65-16.08.53-.21.97-.67,1.72-1.21-4.38-5.35-7.97-10.91-8.08-17.98-.12-7.35,3.98-12.43,9.36-16.9ZM519.76,207.97c4.72.28,9.97-.65,15.17-2.2,1.98-.59,3.43-1.08,2.54-3.8-.37-1.13.46-2.79,1.05-4.06,2.2-4.71,4.99-9.2,6.73-14.07,6.62-18.58,18.37-32.47,36.17-41.14,20.16-9.81,40.93-14.53,63.29-8.54,5.9,1.58,12.09,2.29,18.19,2.86,15.45,1.45,29.94-1.4,42.6-10.91,8.03-6.04,13.16-13.92,13.84-24.17.47-7.01-2.88-10.65-9.85-10.02-4.47.4-8.86,2.01-13.2,3.37-4.76,1.49-9.32,3.65-14.13,4.87-4.02,1.02-7.59-1.27-8.84-4.71-1.21-3.33,0-7.08,3.49-9.15,2.57-1.53,5.51-2.41,8.25-3.66,2.73-1.25,5.91-2.08,8.01-4.03,9.84-9.18,16.62-20.36,19.42-33.57,2.51-11.84-2.82-19.38-14.73-21.78-11.04-2.22-21.48-.46-31.59,4.43-13.87,6.71-24.29,17.61-34.33,28.69-10.47,11.55-22.81,19.96-36.85,26.27-1.38.62-2.86,1.48-3.77,2.64-7.88,10.02-18.52,15.43-30.64,17.97-6.8,1.43-13.81,1.93-20.75,2.66-11.51,1.2-22.48,4.02-31.46,11.68-5.61,4.78-10.63,10.25-15.89,15.44-.47.46-.71,1.16-1.45,2.42,1.73-.38,2.79-.62,3.85-.86,3.66-.81,7.28-1.87,10.98-2.38,5.23-.72,9.88.87,13.82,4.46,9.71,8.84,11.24,20.85,3.54,31.46-2.4,3.31-5.82,5.88-8.8,8.76-.63.61-1.37,1.12-2.33,1.89,4.35,3.77,7.43,8.13,7.94,13.45.48,5.05-.12,10.19-.26,15.71ZM284.14,135.39c.23-.3.47-.59.7-.89-1.88-2.15-3.76-4.3-5.65-6.44-12.02-13.63-26.85-21.52-45.22-22.34-3.74-.17-7.49-.56-11.2-1.09-14.98-2.13-28.45-7.2-38.21-19.61-.96-1.22-2.68-1.93-4.16-2.62-13.27-6.13-25.26-13.9-35.21-24.9-9.28-10.26-18.85-20.37-30.99-27.48-11.3-6.62-23.29-9.46-36.32-6.69-11.48,2.44-16.57,9.94-14.36,21.51.6,3.15,1.37,6.42,2.85,9.22,3.29,6.25,6.84,12.39,10.72,18.28,3.59,5.47,8.73,9.06,15.2,10.82,2.75.75,5.44,2.16,7.8,3.79,2.93,2.03,3.74,5.62,2.56,8.64-1.2,3.08-4.08,4.91-7.71,4.72-1.34-.07-2.73-.28-3.97-.75-4.48-1.69-8.83-3.76-13.39-5.21-3.83-1.21-7.85-2.29-11.82-2.45-6.27-.26-9.21,2.98-9.05,9.27.25,9.71,4.78,17.38,12.01,23.48,8.27,6.98,17.98,10.87,28.68,12.16,11.32,1.36,22.55.33,33.5-2.53,16.27-4.26,32.14-3.29,48.03,1.89,25.15,8.19,43.9,22.98,52.35,49.01,1.27,3.93,3.66,7.48,5.31,11.3,1.04,2.42,1.67,5.01,2.84,8.62,3.06,1.92,13.82,3.68,17.59,2.3-3.14-11.99-2.71-17.87,6.56-28.96-.9-.67-1.89-1.23-2.67-2-2.94-2.92-6.26-5.59-8.63-8.93-6.11-8.62-5.91-17.76,0-26.22,5.93-8.49,12.72-10.8,23.82-8.05,2.7.67,5.37,1.43,8.06,2.14ZM225.76,200.24c-2.44-3.29-4.51-5.84-6.32-8.56-2.81-4.26-5.19-8.82-8.25-12.88-1.61-2.14-4-4.24-6.47-5.1-33.32-11.63-66.22-11.8-98.24,4.55-9.85,5.03-20.05,8.86-31.1,9.84-8.3.74-16.65.82-24.95,1.47-15.62,1.23-26.55,9.8-33.93,23.01-6.26,11.21-4.08,23.42,5.15,31.6,7.92,7.02,17.29,10.85,27.91,10.92,2.26.02,4.66-1.29,6.77-2.41,5.85-3.11,11.47-6.71,17.44-9.55,2.15-1.02,5.15-.97,7.59-.5,4.63.9,6.93,5.66,4.92,9.94-.89,1.89-2.35,3.93-4.11,4.93-5.12,2.94-10.38,5.71-15.83,7.94-6.4,2.61-9.26,9.03-6.15,15.22,3.07,6.09,8.39,8.41,14.84,8.7,9.71.44,18.84-1.53,27.25-6.56,7.33-4.39,13.54-10,18.99-16.56,4.92-5.93,9.83-11.9,15.1-17.51,7.09-7.55,15.69-12.32,26.34-12.69.57-.02,1.13-.33,1.9-.56-.24-1.18-.42-2.18-.64-3.17-1.02-4.5-1.01-9.04.92-13.2,5.46-11.77,13.99-20.18,27.12-22.78,9.96-1.98,19.71-.42,29.26,2.7,1.24.4,2.51.69,4.51,1.24ZM550.78,200c4.72-1.22,8.98-2.56,13.34-3.41,17.8-3.48,32.89.55,43.67,16.16,4.25,6.15,5.95,12.83,4.01,20.17-.64,2.42.06,3.13,2.46,3.22,7.66.3,14.6,2.94,20.27,8,5.03,4.49,9.68,9.46,14.08,14.59,6.38,7.43,12.27,15.26,20.4,21.01,10.58,7.49,22.15,10.94,35.08,9.23,5.71-.75,9.83-3.86,12.11-9.18,2.51-5.87-.26-11.95-6.23-14.2-3.6-1.36-7.27-2.66-10.63-4.49-2.89-1.57-5.61-3.63-7.99-5.91-2.41-2.31-3.15-5.43-1.62-8.63,1.51-3.15,4.3-4.6,7.66-4.39,2.35.15,4.89.53,6.94,1.6,5.24,2.73,10.39,5.7,15.28,9,2.38,1.61,4.59,2.6,7.46,2.45,9.69-.5,18.34-3.78,25.87-9.82,9.66-7.74,12.86-19.03,7.7-30.27-6.6-14.38-17.73-23.49-33.84-25.43-5.16-.62-10.4-.53-15.61-.7-14.37-.47-28.1-3.42-40.83-10.36-2.1-1.15-4.25-2.23-6.44-3.19-30.75-13.42-61.79-12.69-92.96-1.65-2.04.72-4.13,2.3-5.37,4.06-5.02,7.11-9.71,14.45-14.81,22.15ZM531.92,539.68c-.7.46-.96.53-1.03.69-1.98,4.7-3.85,9.46-5.93,14.11-9.79,21.88-13.15,44.5-9.4,68.37,1.42,9.06,1.46,18.54.62,27.7-1.45,15.77-9.47,28.69-20.22,39.98-1.49,1.57-1.76,2.69-.38,4.5,2.74,3.61,3.8,7.86,3.83,12.34.02,3.54-.12,7.09-.2,10.63-.25,11.27,1.14,22.28,5.65,32.71,3.41,7.91,7.83,15.22,14.21,21.12,3.66,3.39,6.29,3.1,8.9-1.15,1.62-2.63,2.99-5.55,3.77-8.52,2.18-8.34,3.38-16.7.05-25.17-1.53-3.89.41-7.81,3.78-9.15,3.47-1.38,7.18.11,9.22,3.78.55,1,.9,2.1,1.38,3.14,3.23,7.01,7.59,13.2,13.74,17.95,9.39,7.25,18.49,6.17,26.04-2.97,1.32-1.6,2.54-3.31,3.6-5.1,7.05-11.83,9.8-24.68,8.89-38.37-.86-12.99-5.93-24.42-13.05-35.05-10.67-15.92-19.84-32.58-25.4-51.03-3.05-10.12-5.58-20.3-4.68-31.04.1-1.25-.66-2.87-1.54-3.87-10.71-12.19-17.52-26.28-20.96-42.08-.24-1.08-.54-2.15-.88-3.53ZM244.18,539.5c-.39,1.42-.71,2.39-.92,3.38-3.42,15.91-10.26,30.1-20.98,42.42-.97,1.11-1.36,2.94-1.53,4.49-.71,6.61-.54,13.38-1.95,19.82-4.43,20.29-13.18,38.78-24.56,56.11-3.99,6.08-8.07,12.27-10.93,18.92-9.7,22.6-7.96,44.44,6.49,64.59,7.2,10.04,17.25,10.84,26.87,3.05,1.21-.98,2.37-2.04,3.45-3.17,4.65-4.88,8.21-10.44,10.77-16.71,1.77-4.31,6-6.12,9.62-4.56,3.58,1.53,5.12,5.5,3.58,9.82-3.73,10.5-1.86,20.62,2.43,30.37,3.34,7.58,6.94,7.97,12.49,1.82,8.59-9.51,14.49-20.57,16.23-33.24,1.23-8.92,1.03-18.05,1.25-27.1.12-4.88.42-9.75,3.43-13.71,2.06-2.71,1.21-4.17-.75-6.26-10.82-11.57-18.59-24.89-19.56-40.93-.6-9.91.38-19.96,1.24-29.9.85-9.78,1.69-19.5.44-29.31-2.21-17.33-9.56-32.95-16.01-48.87-.1-.24-.42-.4-1.11-1.03ZM432.21,340.46c-3.46,2.14-6.52,4.07-9.62,5.95-9.95,6.04-20.51,9.07-32.26,6.89-2.09-.39-4.37-.1-6.52.22-8.42,1.24-16.46.04-24.01-3.79-4.54-2.31-8.97-4.89-13.23-7.68-2.37-1.55-3.24-1.1-4.28,1.34-3.47,8.16-4.6,16.58-3.78,25.39,1.34,14.43,5.77,27.76,12.24,40.74,10.33,20.69,15.45,42.37,9.66,65.65-1.13,4.54-1.12,9.55-.7,14.26.67,7.4,3.46,14.2,8.7,19.66,3.86,4.03,8.69,4.13,11.96.11,1.12-1.38,1.38-3.76,1.38-5.69.01-4.25,1.21-5.56,5.3-5.02.41.05.83.13,1.23.11,5.23-.33,6.04.46,5.74,5.58-.34,5.78,5.37,9.71,10.53,7.03,1.87-.97,3.8-2.5,4.82-4.28,2.32-4.03,4.53-8.23,5.97-12.63,2.34-7.12,1.6-14.43-.15-21.62-1.89-7.76-2.88-15.55-1.68-23.55,2.26-15.14,5.76-29.83,13.41-43.35,7.18-12.68,9.99-26.66,10.81-41.08.47-8.41-1.49-16.29-5.53-24.26ZM458.56,39.3c.2-9.29-2.98-16.84-11.54-21.26-9.17-4.74-18.38-6.42-27.79-.13-9.24,6.18-15.38,14.53-18.69,25.03-1.51,4.8-3.84,8.96-7.7,12.26-3.16,2.71-6.69,2.69-9.81-.06-3.72-3.27-5.69-7.49-7.62-11.97-2.49-5.78-4.93-12-9.01-16.59-12.31-13.88-21.64-15.83-36.14-9.22-8.01,3.66-12.14,10.09-12.74,18.92-.74,10.86,2.84,20.44,9.13,28.91,6.94,9.34,14.26,18.43,21.86,27.25,7.1,8.24,13.04,17.06,16.59,27.35,4.95,14.38,9.86,28.79,14.51,43.27,2.8,8.71,4.13,17.67,2.07,26.82-.44,1.94.3,2.72,2.21,2.7,2.81-.04,5.61-.04,8.42,0,1.78.02,2.47-.7,2.07-2.5-2.15-9.69-.62-19.13,2.39-28.33,4.85-14.86,9.79-29.69,15.16-44.37,1.98-5.42,4.74-10.76,8.15-15.41,6.08-8.3,13.12-15.9,19.39-24.07,5.24-6.83,10.24-13.88,14.79-21.18,3.23-5.19,4.22-11.28,4.31-17.41ZM459.46,284.69c1.29-.14,2.2-.21,3.1-.35,8.97-1.33,18.03-1.57,26.62,1.43,9.72,3.39,19.08,7.79,28.66,11.59,5.31,2.11,10.62,4.48,16.16,5.68,10.83,2.34,21.13-.19,30.72-5.41,4.63-2.52,8.39-6.2,10.76-11.04,1.75-3.59,1.57-6.74-1.21-8.83-7.13-5.35-14.05-11.07-23.64-11.81-5.48-.42-10.9-1.75-16.31-2.87-3.38-.7-5.93-2.66-6.79-6.17-.73-2.97-.05-5.88,2.5-7.54,1.89-1.23,4.39-2.04,6.64-2.11,7.2-.22,14.08,1.5,20.51,4.75,3.48,1.76,7.02,2.23,10.88,2.02,12.83-.7,22.74-6.91,30.9-16.26,5.74-6.58,5.31-14.29-.72-20.54-5.34-5.54-11.78-8.82-19.51-9.51-7.15-.64-14.15.15-21.06,2-7.15,1.91-14.28,3.89-21.43,5.8-9.45,2.52-19,3.79-28.78,2.25-1.21-.19-2.55-.21-3.72.1-14.28,3.76-28.66,3.45-43.15,1.54-5.04-.66-10.18-.82-15.27-.8-2.45.01-4.89.97-7.95,1.64,16.25,18.98,22.67,40.44,22.09,64.44ZM338.37,220.25c-2.56-.61-4.72-1.58-6.88-1.56-5.72.04-11.48.17-17.14.88-14.09,1.77-28.06,1.94-41.93-1.63-1.46-.38-3.12-.27-4.64-.06-7.64,1.07-15.22.69-22.68-1.12-8.51-2.07-16.87-4.76-25.43-6.56-6.58-1.38-13.35-2.32-20.06-2.52-8.64-.26-16.01,3.37-21.97,9.65-5.95,6.27-6.29,14.1-.54,20.56,8.32,9.35,18.29,15.88,31.29,16.02,3.41.03,7.08-.62,10.21-1.94,6.73-2.85,13.57-4.75,20.87-4.85,5.05-.07,8.74,2.81,9.31,7.05.56,4.17-2.42,7.97-7.35,9-5.2,1.09-10.43,2.41-15.7,2.75-9.63.62-16.53,6.4-23.77,11.59-2.66,1.9-3.2,4.88-1.9,7.88.82,1.89,1.92,3.7,3.17,5.34,5.09,6.65,12.48,9.68,20.14,11.7,10.65,2.81,21.06,1.42,31.09-3.27,7.93-3.71,15.93-7.28,24.01-10.67,11.02-4.63,22.5-6.01,34.34-4.25,3.86.57,3.79.61,3.78-3.19-.07-21.82,6.06-41.51,20.19-58.44.45-.54.79-1.16,1.59-2.36ZM332.41,329.47c-5.98-8.33-9.78-17.98-12.46-28.11-.5-1.91-1.59-1.83-3.07-1.34-8.63,2.84-16.55,6.82-22.9,13.53-5.3,5.6-10.55,11.26-16.05,16.66-11.61,11.4-21.45,24.13-29.38,38.33-6.25,11.19-13.99,21.16-23.3,30.01-4.35,4.13-8.32,8.79-11.82,13.67-4.77,6.65-6.6,14.35-5.71,22.55,1.21,11.12,7.67,16.55,18.74,15.02,15.71-2.18,26.39-11.56,33.59-25.21,3.11-5.89,5.56-12.13,8.65-18.04,1.52-2.91,3.62-5.59,5.84-8.03,2.72-3,6.25-3.43,9.01-1.62,2.83,1.85,3.8,5.46,2.02,9.21-1.42,3-3.37,5.74-5.05,8.62-2.47,4.22-5.14,8.35-7.29,12.73-1.96,3.99-2.01,8.17,1.32,11.64,3.36,3.5,7.51,3.21,11.63,1.72,5.03-1.82,9.16-4.81,12.03-9.49,1.05-1.71,2.64-3.11,4.08-4.57,1.28-1.3,3.04-2.25,3.99-3.73,8.62-13.54,11.06-28.22,8.47-44.05-3.18-19.43,2.68-35.85,17.68-49.5ZM460.23,388.79c.05,14.06,3.46,24.74,9.69,34.56.65,1.03,1.6,1.88,2.48,2.75,1.8,1.79,3.98,3.31,5.4,5.35,2.46,3.52,5.42,6.28,9.24,8.2,5.88,2.96,11.04,2.84,14.3-.39,3.39-3.36,3.74-8.1.41-14.18-2.9-5.29-6.42-10.24-9.43-15.47-1.21-2.11-2.32-4.55-2.54-6.92-.49-5.24,4.68-8.42,9.35-5.96,1.08.57,2.2,1.35,2.91,2.31,2.14,2.93,4.37,5.84,6.06,9.04,3.83,7.27,6.69,15.14,11.15,21.97,7.16,10.97,17.22,18.41,30.72,19.84,10.76,1.15,17.1-4.17,18.27-14.94.98-9.02-1.33-17.26-6.77-24.41-3.45-4.54-7.35-8.81-11.47-12.75-8.35-8-15.44-16.9-21.15-26.95-7.28-12.82-15.48-24.97-25.84-35.56-6.34-6.48-12.7-12.95-18.84-19.61-6.67-7.24-14.67-12.2-23.96-15.31-2.64-.88-3.81-.68-4.59,2.31-2.38,9.12-5.74,17.86-11.3,25.6-1.09,1.51-.71,2.22.7,3.21,1.94,1.36,4.05,2.77,5.4,4.65,8.53,11.89,13.41,24.89,11.41,39.83-.68,5.05-1.26,10.12-1.59,12.86ZM409.42,161.14c.25.1.49.21.74.31.71-.85,1.45-1.68,2.13-2.56,7.15-9.17,16.21-15.35,27.45-18.61,10.04-2.91,20.2-2.62,30.4-2.15,2.53.12,3.88-.51,4.27-3.2.25-1.72.89-3.46,1.72-5,9.03-16.8,21.98-29.23,40.33-35.36,10.22-3.41,20.82-3.95,31.51-3.65,7.56.21,15.02-.67,21.92-4.08,7.5-3.7,13.15-9.19,15.69-17.34,1.47-4.73-.13-7.24-5.07-7.24-4.64,0-9.31.73-13.9,1.54-3.99.7-7.85,2.1-11.82,2.94-4.41.93-7.9-.83-8.97-4.23-1.05-3.32.57-6.73,4.66-8.43,4.31-1.8,8.75-3.45,13.3-4.47,6.92-1.56,12.29-5.32,16.21-10.9,1.95-2.77,3.47-6.35,3.76-9.69.96-10.87-8.17-18.55-19.6-16.77-10.47,1.63-19.64,6.34-27.53,13.27-8.14,7.14-16.16,14.46-23.8,22.13-16.26,16.31-34.38,29.92-56.33,37.26-7.82,2.61-13.76,6.61-19.22,12.36-5.27,5.55-10.34,11.12-13.61,18.16-6.38,13.78-11.08,28.1-13.98,43.01-.17.89-.19,1.81-.28,2.71ZM365.88,161.36c.3-.12.6-.25.9-.37-.83-3.89-1.55-7.8-2.52-11.65-5.64-22.34-13.48-43.5-32.22-58.62-1.88-1.51-4.09-2.73-6.34-3.63-3.96-1.58-8.17-2.55-12.08-4.22-19.73-8.46-36.54-21.06-51.56-36.31-7.3-7.42-15.05-14.43-22.93-21.24-8.19-7.07-17.64-11.9-28.54-13.21-7.01-.85-12.8,1.49-16.35,7.92-3.62,6.56-2.81,12.94,1.66,18.73,4.17,5.4,9.38,9.24,16.29,10.86,5.03,1.18,9.93,3.12,14.66,5.23,3.11,1.38,4.14,4.68,3.28,7.68-.82,2.85-3.62,4.67-7.09,4.47-1.24-.07-2.49-.31-3.69-.62-3.43-.87-6.8-2.11-10.28-2.67-4.7-.76-9.48-1.41-14.22-1.36-4.28.04-5.69,2.37-4.57,6.56.58,2.18,1.51,4.36,2.71,6.27,5.86,9.34,14.75,13.95,25.4,15.14,5.88.65,11.86.48,17.79.58,18.65.3,35.3,5.76,48.79,19.14,7.52,7.46,14.39,15.38,17.1,26.07.22.88,2.07,1.89,3.18,1.91,5.73.13,11.48-.39,17.19-.03,16.7,1.06,30.9,7.31,41.29,20.93.66.86,1.42,1.64,2.14,2.46ZM289.62,699.76c-.3.16-.61.31-.91.47.18,3.93.21,7.87.57,11.78,1.89,20.34-.92,39.71-11.41,57.61-.95,1.62-1,3.78-1.45,5.7-1.64,7.08-2.62,14.4-5.08,21.18-2.61,7.2-6.19,14.15-10.12,20.75-7.4,12.42-7.05,25.11-1.82,37.82,2.09,5.07,5.55,9.79,9.23,13.92,4.52,5.08,9.93,5.42,15.9,2.08,4.55-2.54,8.14-6.09,10.9-10.53,2.02-3.25,4.7-4.44,7.56-3.52,2.71.87,4.05,3.27,4.1,7,.03,2.38.07,4.8.47,7.14.86,5.07,3.86,8.12,9.02,9.05,5.18.93,9.25-.61,12.14-5.04,3.96-6.05,5.42-12.81,5.36-19.92,0-1.1-.69-2.48-1.5-3.24-11-10.27-15.35-23.6-17.22-37.92-1.9-14.59.37-28.9,4.08-43.01,4.37-16.63,8.81-33.25,13.22-49.87.96-3.61.8-3.35-2.83-3.73-5.13-.53-10.36-1.23-15.25-2.8-8.32-2.66-15.45-7.66-22.29-13.03-.86-.67-1.78-1.26-2.67-1.89ZM487.13,699.76c-6.67,4.25-12.65,8.43-18.97,12-6.79,3.83-14.17,6.08-22.12,5.83-3.41-.11-3.6.14-2.69,3.54,4.03,15.11,8.03,30.23,12.1,45.33,4.04,14.98,7.09,30.12,5.44,45.72-1.6,15.13-5.94,29.22-17.63,40.01-.75.7-1.35,1.98-1.36,3-.07,7.01,1.35,13.69,5.19,19.67,3.05,4.74,6.94,6.39,12.28,5.36,5.41-1.04,8.2-3.85,9.2-9.63.35-2.03.36-4.15.33-6.22-.04-3.91,1.31-6.45,4.07-7.33,2.96-.94,5.35.46,7.82,3.7,2.25,2.96,4.68,5.93,7.56,8.23,7.94,6.33,14.53,5.47,21.31-2.09,9.52-10.61,15.62-33.33,5.35-49.05-1.54-2.35-2.77-4.9-4.09-7.39-5.78-10.85-10.23-22.11-11.41-34.52-.28-2.91-1.22-5.94-2.57-8.55-5.58-10.78-9.76-22.02-10.27-34.19-.39-9.25.27-18.54.45-27.81.04-1.82,0-3.65,0-5.61ZM284.81,172.41c.05-.44.09-.87.14-1.31,3.02,0,6.05-.18,9.04.05,3.51.26,5.97,2.79,6.24,5.94.28,3.28-1.9,6.24-5.4,7.03-1.71.38-3.52.57-5.27.52-4.06-.1-8.11-.59-12.17-.54-2.09.03-4.43.42-6.21,1.43-4.18,2.39-5.93,6.23-5.26,11.11.66,4.78,3.29,8.24,7.94,8.9,6.76.97,13.65,1.52,20.47,1.45,9.78-.09,19.56-1.02,29.34-1.35,7.68-.26,14.84,1.64,21.38,5.86.86.56,2.84.36,3.74-.27,4.68-3.3,9.21-6.81,13.71-10.36.79-.62,1.72-1.92,1.58-2.72-1.16-6.54-1.64-13.42-4.08-19.49-7.22-18.01-21.47-26.95-40.44-28.9-2.28-.23-4.56-.53-6.85-.58-14.02-.29-27.81-1.64-41.14-6.62-6.4-2.39-10.98-.14-14.56,5.71-3.05,4.98-2.66,10.39,1.97,14.79,2.95,2.8,6.53,5.47,10.31,6.73,4.91,1.64,10.31,1.81,15.5,2.61ZM485.81,207.42c3.24-.32,9.63-.47,15.81-1.71,6.59-1.33,9.57-6.71,8.35-13.23-.98-5.23-6.16-8.74-12.14-8.43-4.88.25-9.78.52-14.66.34-4.71-.18-7.73-3.37-7.43-7.15.3-3.9,3.51-6.36,8.31-6.17,4.27.16,8.53.66,12.8.7,7.9.07,14.68-2.84,20.11-8.57,4.38-4.62,4.97-9.94,1.98-14.88-3.55-5.86-7.95-7.64-14.57-5.84-1.71.46-3.4,1-5.07,1.6-7.72,2.76-15.66,4.23-23.86,4.53-6.14.23-12.29.52-18.41,1.13-15.73,1.57-28.73,7.76-37.52,21.67-5.24,8.29-6.45,17.49-7.62,26.79-.1.78.69,1.96,1.41,2.52,4.66,3.67,9.38,7.29,14.2,10.75.77.55,2.51.68,3.26.18,7.35-4.94,15.54-6.42,24.16-6.01,9.26.44,18.52,1.06,30.9,1.78ZM387.99,859.33c4.27-1.01,6.86,1.22,9.24,4.1,1.52,1.84,3.03,3.81,4.95,5.16,4.09,2.88,6.88,6.53,8.46,11.27,1.15,3.45,3,4.33,6.26,2.71,3.52-1.76,6.79-4.03,10.13-6.13,3.88-2.44,6.1-5.54,4.26-10.4-.43-1.14-.49-2.47-.49-3.71,0-2.56-1.04-3.13-3.53-2.64-14.55,2.88-26.71-1.53-36.67-12.37-2.59-2.82-2.59-2.79-5.2.06-8.11,8.87-18.02,13.64-30.19,13.13-2.38-.1-4.76-.51-7.12-.94-1.64-.3-2.59-.03-2.81,1.83-.33,2.79-.9,5.56-1.16,8.35-.09.94.13,2.4.75,2.85,5.07,3.58,10.17,7.13,15.47,10.33,1.91,1.15,4.07.12,4.72-2.18,1.63-5.73,5.26-9.8,10-13.15,1.33-.94,2.35-2.36,3.36-3.68,2.47-3.23,5.18-5.86,9.57-4.6Z" style="fill: #000; stroke-width: 0px;"/>
  <path d="M434.36,821.52c0,6.85-4.35,11.93-10.16,11.87-6.64-.07-12.37-5.84-12.34-12.42.03-6.61,5.42-12.09,11.81-12.03,6.13.06,10.69,5.42,10.69,12.58Z" style="fill: #000; stroke-width: 0px;"/>
  <path d="M341.64,821.48c.02-7.19,4.84-12.63,11.11-12.54,6.29.09,11.4,5.52,11.39,12.09-.01,6.59-5.77,12.34-12.39,12.37-5.78.03-10.13-5.1-10.11-11.93Z" style="fill: #000; stroke-width: 0px;"/>
  <path d="M110,537.84c.1-11.25,8.19-19.93,18.33-19.6,1.23.04,2.5.23,3.68.59,9.91,3.07,17.69,15.84,15.72,26-1.38,7.12-5.54,12.03-12.51,14.27-7.11,2.28-13.41.61-18.67-4.59-4.6-4.55-6.63-10.23-6.56-16.68Z" style="fill: #000; stroke-width: 0px;"/>
  <path d="M204.96,561.87c-.05,3.46-1.81,7.18-6.01,9.35-3.58,1.85-7.18,1.38-10.24-1.15-4.04-3.34-5.39-7.83-4.4-12.91,1.06-5.4,5.73-8.99,10.7-8.52,5.73.54,9.88,5.59,9.94,13.22Z" style="fill: #000; stroke-width: 0px;"/>
  <path d="M666.16,538.31c-.24,6.87-2.58,12.87-7.89,17.39-6.62,5.63-15.89,5.82-22.86.69-6.94-5.11-9.48-14.61-5.89-23.05,2.43-5.72,6.52-10.21,11.85-13.34,6.79-3.99,16.06-1.37,20.93,5.65,2.63,3.79,3.98,8,3.86,12.66Z" style="fill: #000; stroke-width: 0px;"/>
  <path d="M571.1,560.71c.07-5.44,2.31-9.23,7.13-11.34.75-.33,1.58-.56,2.39-.68,5.47-.75,10.52,3.44,11.26,9.31.89,7.06-3.52,13.56-9.62,14.2-5.48.57-10.38-3.65-11.07-9.57-.08-.72-.08-1.45-.1-1.93Z" style="fill: #000; stroke-width: 0px;"/>
  <path d="M442.38,659.91c.81-13.11,8.11-20.21,20.25-19.71,7.37.31,13.49,4.66,15.79,11.66,2.67,8.12,1.17,15.71-4.14,22.32-4.8,5.98-12.73,7.48-20.48,4.34-7.52-3.04-11.93-10.24-11.41-18.61Z" style="fill: #000; stroke-width: 0px;"/>
  <path d="M422.09,581.54c.36-4.7,3.52-8.68,8.28-11.32,3.37-1.87,7.53.18,9.13,4.02,2.12,5.12-1.15,14.05-6.09,16.64-5.51,2.89-11.36-1.4-11.31-9.34Z" style="fill: #000; stroke-width: 0px;"/>
  <path d="M333.62,660.1c.54,9.81-5.45,17.53-15.14,19.54-9.18,1.9-16.98-2.45-20.36-11.79-2.73-7.53-2.76-15,2.69-21.52,4.89-5.85,12.84-7.69,20.51-5.08,7.6,2.59,11.74,8.14,12.19,16.36.04.83.08,1.66.12,2.49Z" style="fill: #000; stroke-width: 0px;"/>
  <path d="M353.95,581.79c-.02,5.04-2.29,8.58-5.67,9.64-3.49,1.1-7.38-.28-9.4-4.26-1.54-3.05-2.48-6.57-2.86-9.98-.33-3,1.3-5.65,4.29-6.98,2.91-1.3,5.41-.42,7.74,1.56,3.38,2.87,5.76,6.23,5.9,10.02Z" style="fill: #000; stroke-width: 0px;"/>
  <path d="M700.92,404.23c-1.42,3.99-2.17,7.86-4.06,11.06-5.54,9.35-18.59,9.6-24.94.77-5.39-7.51-4.2-20.08,2.52-26.5,6.38-6.1,16.83-4.83,21.87,3.12,2.15,3.39,3.07,7.56,4.61,11.55Z" style="fill: #000; stroke-width: 0px;"/>
  <path d="M638.92,425.54c-.04,6.19-4.51,11.12-10,11-4.99-.1-9.83-5.14-9.89-10.3-.08-6.45,4.52-11.87,10.02-11.83,5.56.03,9.9,4.93,9.86,11.13Z" style="fill: #000; stroke-width: 0px;"/>
  <path d="M107.65,403.07c-.16,7.44-1.98,12.3-6.32,15.94-6.72,5.64-16.54,4.28-21.73-2.9-5.56-7.7-4.53-19.51,2.29-26.11,7.3-7.07,18.73-5.09,22.89,4.16,1.51,3.36,2.29,7.04,2.87,8.91Z" style="fill: #000; stroke-width: 0px;"/>
  <path d="M137.08,425.43c.01-6.14,4.41-10.99,10.01-11.02,5.41-.04,9.94,5.46,9.85,11.95-.08,5.16-4.92,10.12-9.97,10.19-5.46.07-9.9-4.91-9.89-11.11Z" style="fill: #000; stroke-width: 0px;"/>
  <path d="M683.4,29.52c15.74-.62,23.25,11.5,21.76,23.41-.46,3.66-1.31,7.49-2.94,10.76-8.79,17.64-26.86,16.47-37.92,3.98-6.17-6.96-6.84-15.21-3.17-23.68,3.82-8.8,10.63-13.62,20.2-14.46.93-.08,1.87-.01,2.06-.01Z" style="fill: #000; stroke-width: 0px;"/>
  <path d="M695.06,121c-4.02,0-7.32-2.44-8.41-6.21-1.12-3.89.4-7.92,3.98-9.92,2.08-1.16,4.32-2.05,6.54-2.95,3.05-1.24,6.01-1.03,8.39,1.37,2.48,2.49,3.1,5.59,2.06,8.96-1.46,4.74-7.26,8.76-12.56,8.75Z" style="fill: #000; stroke-width: 0px;"/>
  <path d="M91.87,29.49c11.78-.09,20.1,5.56,23.85,16.51,2.8,8.15,1.51,15.83-4.39,22.16-5.97,6.4-13.37,10.19-22.41,8.28-8.56-1.81-13.64-7.83-16.34-15.75-3.17-9.31-3.05-18.32,4.41-25.9,3.77-3.83,8.02-5.25,14.87-5.3Z" style="fill: #000; stroke-width: 0px;"/>
  <path d="M80.66,121c-4.96-.1-10.5-3.79-11.99-8.14-1.15-3.36-.93-6.6,1.62-9.32,2.55-2.72,5.62-2.87,8.88-1.51,2.01.84,4.05,1.66,5.96,2.69,3.77,2.03,5.39,6.05,4.23,10.06-1.13,3.9-4.5,6.31-8.69,6.22Z" style="fill: #000; stroke-width: 0px;"/>
  <path d="M47.11,243.04c-11.34.03-19.63-5.78-21.77-13.99-2.13-8.17,1.89-17.27,9.5-21.54,5.34-3,10.73-2.73,15.37,1.25,2.82,2.42,5.58,5.09,7.67,8.13,3.82,5.56,4.18,11.71,1.02,17.75-2.82,5.39-7.38,8.31-11.8,8.41Z" style="fill: #000; stroke-width: 0px;"/>
  <path d="M81.25,282.42c-4.49,0-8.17-3.53-8.11-7.79.06-4.17,4.01-7.49,8.85-7.42,5,.08,8.62,3.14,8.55,7.24-.06,4.18-4.48,7.96-9.29,7.96Z" style="fill: #000; stroke-width: 0px;"/>
  <path d="M729.07,243.06c-4.59-.07-9.23-3.08-12.04-8.6-3.27-6.44-2.43-12.75,1.75-18.53,1.45-2,3.35-3.69,5.1-5.47,6.28-6.37,14.17-6.55,20.81-.5,6,5.47,8.14,13.89,5.35,21.06-2.77,7.13-10.57,12.01-20.97,12.05Z" style="fill: #000; stroke-width: 0px;"/>
  <path d="M694.59,282.41c-4.88-.07-9.12-3.88-9.05-8.13.07-4.14,3.68-7.07,8.71-7.06,4.79.01,8.86,3.56,8.7,7.58-.17,4.3-3.88,7.67-8.36,7.6Z" style="fill: #000; stroke-width: 0px;"/>
  <path d="M588.6,719.55c-.82,5.56-1.7,10.76-4.46,15.48-4.1,7.02-11.7,8.89-18.49,4.41-2.16-1.42-4.2-3.11-6.04-4.93-5.36-5.31-6.35-10.79-3.2-17.66,2.5-5.45,5.51-10.54,11.02-13.58,6.98-3.85,14.51-1.85,18,5.32,1.64,3.37,2.15,7.28,3.17,10.95Z" style="fill: #000; stroke-width: 0px;"/>
  <path d="M527.48,747.26c.02,5.69-3.9,10.06-8.97,10-4.36-.05-7.87-3.63-7.9-8.05-.04-5.45,4.58-10.69,9.4-10.68,4.27.01,7.45,3.73,7.47,8.73Z" style="fill: #000; stroke-width: 0px;"/>
  <path d="M187.88,719.52c.42-2.56.59-5.19,1.31-7.66,3.02-10.31,13.22-13.72,21.67-7.1,5.6,4.38,8.77,10.46,10.39,17.35.14.6.14,1.24.14,1.86,0,8.62-11.54,18.85-20.1,17.76-4.63-.59-8.09-3.27-9.74-7.42-1.86-4.66-2.87-9.66-4.25-14.51.19-.09.38-.19.57-.28Z" style="fill: #000; stroke-width: 0px;"/>
  <path d="M265.37,749.2c-.06,4.59-3.7,8.17-8.2,8.06-4.92-.12-8.74-4.52-8.68-10,.06-5.03,3.22-8.72,7.48-8.73,4.81-.01,9.47,5.28,9.4,10.66Z" style="fill: #000; stroke-width: 0px;"/>
  <path d="M379.04,490.09c.16,4.37-2.84,7.86-6.94,8.07-4.28.22-7.72-3.28-7.83-7.97-.12-4.7,3-8.59,7.07-8.82,4.4-.25,7.51,3.26,7.7,8.72Z" style="fill: #000; stroke-width: 0px;"/>
  <path d="M396.96,490.38c.17-5.58,3.08-9.13,7.39-9.03,4.23.1,7.49,4.02,7.37,8.85-.12,4.69-3.52,8.14-7.85,7.94-3.99-.18-7.04-3.61-6.91-7.77Z" style="fill: #000; stroke-width: 0px;"/>
  <path d="M448.35,42.12c-.76,3.3-1.12,6.34-2.17,9.12-3.73,9.88-12.91,14.52-22.54,11.64-9.88-2.95-15.8-12.61-13.73-22.59,1.02-4.89,3.22-9.24,6.71-12.86,9.29-9.64,23.22-7.45,28.9,4.7,1.46,3.13,1.93,6.73,2.82,9.97Z" style="fill: #000; stroke-width: 0px;"/>
  <path d="M327.96,42.57c.38-6.85,2.5-12.71,7.92-17.14,6.66-5.45,15.5-5.39,21.99.35,4.78,4.24,7.64,9.64,8.54,15.93,1.44,9.93-5.32,19.25-15.39,21.53-9.51,2.15-18.52-3.23-21.56-13.05-.76-2.46-1.02-5.08-1.51-7.63Z" style="fill: #000; stroke-width: 0px;"/>
  <path d="M568.84,245.47c-4.73-.23-9.18-2.72-11.99-7.78-2.97-5.34-1.73-10.5,1.2-15.38,3.63-6.04,11.56-9.54,17.95-7.95,5.81,1.44,9.42,5.22,10.55,11.06,1.83,9.39-7.18,20.08-17.72,20.04Z" style="fill: #000; stroke-width: 0px;"/>
  <path d="M548.08,272.95c5.93,0,10.72,4.74,10.76,10.65.03,5.88-5.46,11.07-11.65,11.04-5.82-.03-10.46-4.91-10.45-10.97,0-6.17,4.82-10.72,11.34-10.73Z" style="fill: #000; stroke-width: 0px;"/>
  <path d="M206.12,245.47c-8.61.02-16.87-8.7-16.8-17.73.06-7.65,6.27-13.74,14.08-13.82,8.74-.08,17.36,8.42,17.44,17.21.08,7.82-6.6,14.32-14.72,14.34Z" style="fill: #000; stroke-width: 0px;"/>
  <path d="M227.95,272.95c6.46-.02,11.31,4.52,11.42,10.7.1,5.85-4.72,10.88-10.51,10.97-6.16.09-11.69-5.11-11.71-11.01-.02-5.77,4.91-10.65,10.8-10.67Z" style="fill: #000; stroke-width: 0px;"/>
  <path d="M216.93,421.76c0-9.2,7.47-16.44,16.92-16.39,8.79.04,15.91,6.78,15.95,15.09.04,9.47-7.88,17.91-16.84,17.95-8.65.03-16.03-7.62-16.03-16.64Z" style="fill: #000; stroke-width: 0px;"/>
  <path d="M297.99,418.79c-.06,4.5-3.98,8.72-8.11,8.74-4.07.02-7.18-3.37-7.18-7.81,0-4.76,3.67-8.57,8.13-8.44,4.06.11,7.21,3.43,7.16,7.52Z" style="fill: #000; stroke-width: 0px;"/>
  <path d="M542.2,405.37c9.39-.06,17,7.26,17.02,16.35.02,8.89-7.53,16.71-16.09,16.67-8.79-.03-16.83-8.4-16.92-17.6-.08-8.43,7.12-15.37,15.99-15.43Z" style="fill: #000; stroke-width: 0px;"/>
  <path d="M493.39,419.79c-.05,4.35-3.3,7.79-7.32,7.75-4.22-.04-8.21-4.55-8.07-9.12.13-4.03,3.5-7.21,7.58-7.13,4.36.09,7.86,3.89,7.8,8.5Z" style="fill: #000; stroke-width: 0px;"/>
  <path d="M560.74,18.43c7.81,0,13.46,5.29,13.44,12.59-.03,7.63-5.67,13.26-13.26,13.23-7.77-.03-13.92-5.68-13.86-12.74.06-7.06,6.35-13.08,13.68-13.08Z" style="fill: #000; stroke-width: 0px;"/>
  <path d="M566.58,66.67c4.14-.05,7.44,3.25,7.51,7.51.08,4.55-4.14,8.91-8.64,8.95-3.8.03-6.85-3.25-6.85-7.37,0-4.93,3.6-9.04,7.98-9.09Z" style="fill: #000; stroke-width: 0px;"/>
  <path d="M201.9,31.17c-.07-7.36,5.45-12.65,13.28-12.74,7.37-.08,13.63,5.82,13.74,12.95.11,7.16-5.84,12.75-13.68,12.87-7.61.12-13.27-5.44-13.34-13.08Z" style="fill: #000; stroke-width: 0px;"/>
  <path d="M201.94,74.18c.02-4.25,3.35-7.59,7.49-7.52,4.41.08,8.01,4.16,8.02,9.1,0,4.04-3.13,7.39-6.89,7.38-4.53-.01-8.64-4.29-8.61-8.96Z" style="fill: #000; stroke-width: 0px;"/>
  <path d="M277.65,825.49c11.35-.07,19.05,11.29,15.07,20.94-1.88,4.56-5.14,8-9.68,9.66-2.35.86-5.49,1.07-7.82.27-10.5-3.63-13.86-18.85-6.17-26.81,2.6-2.69,5.78-3.99,8.6-4.06Z" style="fill: #000; stroke-width: 0px;"/>
  <path d="M327.56,861.08c-.16,5.31-3.71,9.12-8.35,8.95-4.69-.17-8.41-4.53-8.19-9.59.21-4.63,3.8-8.15,8.21-8.04,4.75.12,8.47,3.99,8.33,8.68Z" style="fill: #000; stroke-width: 0px;"/>
  <path d="M511.21,840.61c0,8.4-6.86,16.53-13.96,16.56-7.31.03-15.09-8.51-15.02-16.48.07-8.02,7.3-15.23,15.25-15.21,7.89.02,13.73,6.46,13.73,15.13Z" style="fill: #000; stroke-width: 0px;"/>
  <path d="M464.95,860.73c.04,5.17-3.73,9.31-8.47,9.3-4.58,0-7.95-3.79-7.98-8.96-.03-4.99,3.66-8.72,8.6-8.7,4.4.02,7.82,3.65,7.86,8.35Z" style="fill: #000; stroke-width: 0px;"/>
  <path d="M286.01,157.25c-.04,5.52-4.7,10.12-10.24,10.12-5.33,0-9.76-4.61-9.78-10.16-.03-5.57,4.37-10.09,9.79-10.07,5.55.02,10.26,4.68,10.22,10.11Z" style="fill: #000; stroke-width: 0px;"/>
  <path d="M510.01,157.18c-.01,5.56-4.41,10.16-9.74,10.19-5.52.03-10.24-4.61-10.28-10.09-.04-5.44,4.66-10.09,10.23-10.12,5.48-.03,9.81,4.4,9.8,10.02Z" style="fill: #000; stroke-width: 0px;"/>
  <path d="M417.99,864.31c3.63,0,6.54,2.9,6.53,6.51,0,3.74-3.02,6.73-6.74,6.7-3.62-.03-6.38-2.94-6.3-6.68.07-3.71,2.89-6.54,6.51-6.53Z" style="fill: #000; stroke-width: 0px;"/>
  <path d="M364.59,870.9c.05,3.63-2.86,6.63-6.42,6.62-3.72,0-6.7-3.03-6.68-6.77.02-3.63,2.94-6.49,6.57-6.46,3.54.04,6.48,3.01,6.52,6.6Z" style="fill: #000; stroke-width: 0px;"/>
</svg>