<?xml version="1.0" encoding="UTF-8"?>
<svg id="Layer_1" data-name="Layer 1" xmlns="http://www.w3.org/2000/svg" viewBox="0 0 549.27 900">
  <path d="M239.61,40.96c.05-.15.17-.31.15-.44-2.08-9.17,1.47-16.83,6.46-24.09,1.46-2.13,2.99-4.24,4.64-6.23,2.68-3.22,6.54-2.62,7.97,1.3.68,1.87,1.8,3.03,3.59,3.61,3.77,1.23,7.55,2.42,11.33,3.6.44.14.99.19,1.42.06,3.94-1.22,7.94-2.3,11.75-3.84,1.36-.55,2.63-2.08,3.29-3.47,1.74-3.66,5.55-4.64,7.87-1.43,3.49,4.83,6.78,9.85,9.69,15.06,2.34,4.19,2.73,8.93,1.9,13.71-.12.69-.15,1.4-.29,2.75,1.19-.86,2.01-1.29,2.62-1.93,3.78-3.94,5.12-8.78,4.59-14.08-.29-2.88-1.1-5.71-1.69-8.56-.16-.79-.47-1.56-.59-2.35-.33-2.29.3-4.2,2.49-5.29,1.93-.96,4.3-.31,5.8,1.68,1.41,1.87,2.67,3.86,4.03,5.77.45.63.98,1.2,1.97,2.41.15-1.74.24-2.74.31-3.73.22-2.9.32-5.82.67-8.71.35-2.96,1.5-5.56,4.66-6.49,3.05-.9,5.36.58,7.23,2.82,8.17,9.74,17.55,18.07,28.13,25.15,7.82,5.24,16.01,8.69,25.65,8,7.19-.52,8.18-1.67,6.48-8.69-.4-1.65-1.07-3.22-1.54-4.85-.74-2.55.19-4.85,2.25-5.78,2.07-.93,4.55-.2,5.85,2.08,9.14,16.04,18.03,32.21,23.69,49.91.26.8.57,1.58.85,2.37.27,0,.55,0,.82,0,.49-2.72,1.03-5.44,1.46-8.17.19-1.19.13-2.42.26-3.63.29-2.7,1.46-4.86,4.16-5.72,2.7-.86,5.09.03,6.68,2.24,5.79,8.07,13.64,14,21.01,20.42,2.19,1.91,4.54,3.67,6.98,5.24,5.89,3.77,11.62,2.09,16.84-1.33,4.7-3.08,4.81-8.07,4.08-13.1-.08-.56-.26-1.1-.36-1.66-.57-3.26.93-5.84,3.7-6.39,2.57-.51,4.87,1.35,5.78,4.36,1.37,4.55,2.73,9.12,4.42,13.56,3.55,9.31,7.28,18.59,8.6,28.52.7,5.24.56,10.59.81,16.05.38-.5,1.02-1.07,1.32-1.78,2.6-6.26,5.27-12.5,7.63-18.85,1.35-3.63,2.12-7.47,3.24-11.19.74-2.46,2.5-3.69,4.63-3.44,2.07.24,3.47,1.93,3.63,4.49.67,10.82,1.08,21.67,2.02,32.47,2.19,25.35-5.64,47.93-18.77,69.03-5.17,8.31-11.23,16.08-16.18,24.51-6.17,10.53-11.61,21.49-17.37,32.26-.75,1.4-.87,2.52.82,3.39,21.52,11.08,35.91,28.87,46.15,50.19,11.61,24.17,16.48,49.73,12.94,76.5-4.08,30.84-19.14,55.46-43.42,74.61-15.79,12.46-33.69,21.09-52.19,28.61-3.52,1.43-7.1,2.73-10.6,4.21-1.08.46-2.18,1.14-2.96,2-2.92,3.24-5.67,6.65-8.56,9.91-5.13,5.78-7.17,12.75-7.88,20.23-1.8,18.86.9,37.17,7.13,54.96,3.99,11.38,8.81,22.47,12.59,33.91,11.15,33.74,16.62,68.37,14.89,103.96-.62,12.88-3.53,25.24-11.11,35.95-2.77,3.91-6.14,7.58-9.87,10.57-7.19,5.76-15.68,5.9-23.57,1.17-.61-.37-1.24-.7-2.24-1.26-.14,1.2-.33,2.1-.35,3-.32,12.74,2.09,25.09,4.85,37.45,2.1,9.38,3.97,18.88,4.91,28.43,1.63,16.49-1.31,32.32-9.79,46.76-6.27,10.68-15.16,18.7-26.44,23.87-10.36,4.75-18.96,2.46-24.84-7.4-5.29-8.88-9.64-18.32-14.4-27.51-.43-.82-.87-1.64-1.54-2.9-.81,1.18-1.37,1.92-1.86,2.71-4.03,6.39-8.44,12.48-14.04,17.6-7.34,6.72-16,10.28-25.98,10.41-7.2.09-13.16-2.75-17.51-8.4-2.7-3.5-4.75-7.5-7.09-11.28-.45-.73-.9-1.45-1.61-2.59-.73,1.07-1.25,1.74-1.67,2.46-1.62,2.8-3.07,5.71-4.83,8.42-6.03,9.32-14.61,12.81-25.48,10.94-10.1-1.73-18.32-6.76-24.77-14.59-3.54-4.3-6.62-8.97-9.91-13.48-.42-.57-.82-1.14-1.51-2.1-.64,1.1-1.13,1.87-1.54,2.68-3.68,7.39-7.28,14.82-11.06,22.15-1.37,2.65-2.99,5.21-4.79,7.58-5.43,7.16-12.36,9.21-20.85,6.3-6.38-2.19-11.81-5.98-16.86-10.35-13.05-11.31-19.23-26.1-21.6-42.81-1.96-13.87.18-27.43,3.08-40.94,1.92-8.94,3.96-17.87,5.36-26.89.88-5.64.67-11.46.92-17.19.03-.61-.15-1.22-.29-2.24-.95.48-1.65.79-2.3,1.18-7.89,4.71-16.29,4.4-23.64-1.15-9.01-6.81-14.18-16.23-17.51-26.79-2.88-9.13-3.71-18.56-3.76-28.06-.19-33.32,5.03-65.8,15.84-97.32,3.73-10.87,8.29-21.44,12.06-32.29,6.31-18.11,9-36.74,6.97-55.93-.88-8.34-3.94-15.6-9.89-21.64-2.21-2.24-3.93-4.97-6.19-7.14-1.45-1.39-3.38-2.46-5.28-3.19-15.03-5.83-29.82-12.18-43.73-20.42-18.6-11.02-34.45-24.95-45.66-43.68C3.57,401.34-1.27,379.07.28,355.44c1.62-24.71,8.76-47.77,22.67-68.35,9.59-14.2,21.05-26.72,36.89-34.33,2.08-1,1.83-2.18,1.02-3.89-7.6-16.15-16.41-31.56-26.59-46.25-5.46-7.89-10.26-16.3-14.71-24.81-8.79-16.81-12.35-34.81-10.96-53.79.81-10.98,1.34-21.97,2.01-32.96.17-2.75,1.54-4.43,3.74-4.62,2.19-.2,3.84,1.16,4.64,3.78,2.07,6.81,3.96,13.69,6.32,20.4,1.37,3.9,3.53,7.53,5.33,11.29.25-.07.5-.15.74-.22.08-.41.27-.83.21-1.21-1.25-8.35-.14-16.53,2.39-24.45,2.53-7.93,5.62-15.68,8.38-23.54.96-2.73,1.76-5.54,2.43-8.36.83-3.51,3.2-5.54,6.04-4.9,2.8.63,4.16,3.27,3.48,6.75-.03.16-.08.31-.11.47-.97,5.33-.97,10.48,3.99,14.04,5.71,4.1,12.46,4.5,17.68.57,9.64-7.24,19.09-14.75,26.55-24.39,2.11-2.73,4.53-3.7,7.13-2.94,2.55.75,3.96,2.94,4.34,6.38.41,3.72.98,7.42,1.48,11.13.26,0,.53,0,.79,0,.23-.38.54-.73.67-1.14,4.64-14.92,11.56-28.81,19.16-42.4,1.5-2.68,2.96-5.39,4.48-8.06,1.53-2.69,3.93-3.71,6.23-2.7,2.28,1,2.99,3.47,2.08,6.47-.78,2.54-1.53,5.12-1.97,7.74-.51,3,.26,4.05,3.26,4.56,7.71,1.33,15.25.69,22.17-3.14,9.67-5.35,18.62-11.74,26.39-19.65,2.95-3,5.7-6.19,8.57-9.27.71-.77,1.44-1.55,2.27-2.19,3.54-2.7,8.07-1.52,9.43,2.72.8,2.5.9,5.23,1.2,7.88.23,2.07.27,4.16.4,6.25l.69.37c1.23-1.7,2.47-3.4,3.69-5.11.61-.86,1.11-1.8,1.76-2.61,1.54-1.92,3.9-2.55,5.85-1.54,2.17,1.13,2.83,3.07,2.38,5.33-.44,2.22-1.19,4.37-1.67,6.59-1.07,4.94-1.24,9.88,1.28,14.44,1.16,2.09,2.91,3.86,4.39,5.78.26-.19.51-.38.77-.57ZM169.47,197.09c-.28-.2-.55-.41-.83-.61-.38.71-.64,1.53-1.17,2.11-11.88,13.16-25.01,25.08-39.94,34.49-18.04,11.37-36.94,21.38-55.48,31.96-10.72,6.12-21.05,12.79-29.31,22.14-4.49,5.08-9.5,9.93-12.89,15.7-9.06,15.39-14.37,32.24-15.95,50.05-3.38,37.97,9.34,69.15,39.97,92.46,13.9,10.57,29.5,18.09,45.49,24.83,19.24,8.11,38.66,15.8,57.86,23.99,14.24,6.08,27.97,13.15,40.38,22.57,19.63,14.9,27.22,34.47,23.15,58.7-2.22,13.26-6.51,25.9-11.52,38.29-7.31,18.08-15.01,36.01-22.25,54.12-5.35,13.39-9.89,27.08-11.89,41.45-1.16,8.33-1.28,16.63,1.3,24.77,4.13,13.06,15.5,20.59,28.6,18.9,6.61-.85,12.32-3.8,17.53-7.83,7.86-6.08,13.86-13.8,19.07-22.15,12.07-19.34,20.06-40.4,25.99-62.3.6-2.22.32-4.86-.18-7.16-3.84-17.69-6.11-35.57-6.84-53.65-1.24-30.71,1.69-61.12,6.57-91.4.57-3.53.85-7.35.15-10.82-6.8-33.76-15.61-67-26.22-99.76-13.15-40.61-28.64-80.35-44.27-120.04-10.2-25.92-20.11-51.94-26.67-79.09-.14-.6-.44-1.16-.66-1.73ZM379.78,196.84c-.32.99-.59,1.64-.75,2.32-4.9,20.01-11.49,39.47-18.83,58.69-13.13,34.4-26.56,68.69-39.34,103.23-16.4,44.32-29.4,89.66-38.82,135.99-.65,3.18-.62,6.62-.23,9.86,1.55,12.85,3.7,25.64,5.02,38.51,3.75,36.63,2.82,73.07-5.24,109.16-.51,2.26-.34,4.9.27,7.16,4.44,16.45,10.29,32.4,18,47.61,5.84,11.52,12.55,22.48,21.9,31.58,5.05,4.91,10.71,8.89,17.52,10.99,13.61,4.19,26.97-1.84,32.31-15.01,1.67-4.13,2.57-8.71,3-13.16,1-10.46-1.16-20.63-3.9-30.67-5.02-18.41-12.6-35.87-19.99-53.4-6.86-16.26-14.18-32.35-18.81-49.43-1.98-7.31-3.51-14.84-4.22-22.37-1.87-19.91,5.68-36.03,20.92-48.73,10.22-8.52,21.62-15.2,33.73-20.49,20.83-9.1,41.91-17.65,62.87-26.47,15.08-6.34,29.96-13.1,43.64-22.2,17.52-11.65,31.38-26.46,39.44-46.18,9.5-23.24,9.73-46.97,3.37-70.97-3.02-11.4-6.78-22.7-13.68-32.26-8.21-11.37-18.05-21.4-30.07-28.99-5.4-3.41-10.7-6.99-16.21-10.19-6.71-3.9-13.46-7.78-20.44-11.18-26.79-13.07-50.34-30.43-70.38-52.52-.21-.23-.49-.39-1.1-.87ZM274.28,467.5c.22,0,.43.02.65.03.24-.78.54-1.54.72-2.33,5.67-25.29,12.5-50.26,20.46-74.93,12.34-38.24,27.08-75.58,42.43-112.68,17.54-42.4,30.26-86.08,37.19-131.44.13-.87.16-1.76.25-2.79-.56.18-.77.18-.85.28-.6.76-1.2,1.52-1.77,2.31-12.92,18.05-28.56,33.21-47.5,44.89-12.16,7.5-25.09,13.46-38.19,19.07-.91.39-1.76.9-3.02,1.55,3.4,2.09,6.37,3.87,9.3,5.72,2.53,1.6,5.04,3.23,7.51,4.93,1.24.85,1.93,2.08,1.08,3.56-.85,1.47-2.23,1.42-3.63.88-.6-.23-1.17-.55-1.76-.81-6.47-2.96-12.98-5.86-19.4-8.93-2.25-1.08-4.21-1.01-6.44.05-6.36,3.02-12.78,5.9-19.2,8.79-1.84.83-4.07,2.59-5.51-.08-1.41-2.63,1.24-3.63,2.93-4.72,4.22-2.72,8.5-5.33,12.76-7.99.64-.4,1.25-.85,2.32-1.57-3.28-1.44-6.05-2.72-8.86-3.88-32.61-13.53-60.52-33.12-80.76-62.61-.33-.48-.84-.82-1.27-1.23-.28,1.78-.07,3.33.18,4.88,5.86,35.04,13.75,69.56,26.66,102.76,9.98,25.64,20.19,51.2,30.23,76.81,17.54,44.75,32.46,90.32,42.81,137.31.16.74.45,1.45.68,2.17ZM242.2,132.78c2.68-3.1,4.84-5.69,7.09-8.2,6.18-6.87,14.05-9.13,23.02-8.4,1.52.12,3.07.12,4.6,0,9.07-.74,16.99,1.61,23.19,8.58,1.67,1.87,3.24,3.83,4.87,5.74.54.63,1.14,1.22,1.96,2.1,1.34-2.49,2.4-4.65,3.64-6.7,3.88-6.4,9.61-9.63,17.11-9.7,8.27-.07,14.28,3.96,18.97,10.42.57.78,1.22,1.5,2.18,2.67.31-1.32.6-2,.6-2.69.02-3.14.07-6.28-.09-9.41-.4-7.43-.64-14.89-1.45-22.28-2.4-21.98-8.03-42.94-20.61-61.54-.5-.75-1.07-1.45-1.86-2.5-.77,2.33-1.29,4.19-1.99,5.97-3.9,10.06-11.58,15.32-22.36,15.59-8.47.22-16.38-1.7-23.76-5.81-1.9-1.06-3.49-1.1-5.42-.04-6.84,3.78-14.15,5.8-22.04,5.85-13.14.08-21.62-6.12-25.21-18.74-.23-.8-.5-1.59-.89-2.81-13.3,18.25-19.09,38.67-22.06,60.13-2.45,17.67-2.96,34.6-.84,38,5.21-7.93,11.85-13.36,21.88-12.82,10.37.56,15.59,7.42,19.47,16.57ZM127.09,494.26c0,.53-.05.71,0,.84.24.51.48,1.02.76,1.51,3.77,6.51,6.22,13.51,7.63,20.88,3.4,17.74,2.88,35.36-2.84,52.52-4.19,12.58-8.94,24.99-13.87,37.3-13.47,33.63-18.81,68.53-16.73,104.62.51,8.78,2.35,17.33,6.44,25.24,2.59,5.02,5.85,9.53,10.77,12.56,4.25,2.62,8.05,2.51,11.91-.64,2.17-1.77,4.31-3.8,5.83-6.12,3.62-5.54,7.12-11.19,10.19-17.05,3.72-7.09,6.76-14.53,10.45-21.64,1.61-3.1,4.09-5.76,6.17-8.62.77-1.06,1.83-2.02,2.22-3.21,3.59-10.82,6.53-21.89,10.69-32.48,7.78-19.8,16.37-39.29,24.4-59,4.49-11.03,8.22-22.33,9.61-34.26,1.8-15.45-2.75-28.62-14.74-38.61-5.87-4.89-12.31-9.24-18.96-12.99-15.35-8.65-31.95-14.49-48.43-20.56-.42-.16-.9-.17-1.51-.28ZM422.26,494.19c-.94.2-1.42.24-1.85.41-13.94,5.67-28,11.05-41.75,17.14-10.61,4.69-20.47,10.82-28.66,19.25-7.94,8.17-11.95,17.94-11.89,29.36.05,9.01,1.75,17.79,4.9,26.14,5.87,15.59,12.1,31.06,18.5,46.45,8.21,19.73,16.81,39.3,21.81,60.2.16.67.51,1.47,1.03,1.84,3.74,2.61,5.85,6.47,7.79,10.36,4.18,8.4,8.01,16.98,12.26,25.35,3.26,6.43,7.05,12.59,12.49,17.49,4.77,4.3,9.33,4.45,14.47.61,4.18-3.12,7.12-7.26,9.46-11.85,3.69-7.26,5.55-15.05,6.13-23.09,2.26-31.21-1.28-61.79-11.17-91.47-4.19-12.58-9.48-24.79-14.16-37.21-5.27-13.99-9.67-28.2-9.89-43.34-.23-16.06,1.63-31.69,9.96-45.91.23-.39.3-.87.58-1.73ZM370.32,82.62c-2.98,3.79-15.68,63.44-14.76,68.63.15,0,.36.05.45-.03.37-.31.72-.65,1.04-1.01,7.72-8.87,14.76-18.23,20.73-28.38.57-.98,1.05-2.01,1.62-2.99,1.67-2.85,4.05-4.09,6.81-3.57,2.48.47,4.43,2.6,4.89,5.68.24,1.58.27,3.24.12,4.83-.62,6.36-1.27,12.72-2.05,19.06-.66,5.39-.75,5.38,4.72,6.01,10.58,1.21,19.94,9.89,21.06,19.8.27,2.4,1.13,2.61,3.24,2.33,9.22-1.26,18.07-.03,26.36,4.4,3.95,2.11,7.28,4.84,9,9.13.55,1.38,1.36,1.56,2.67,1.03,16.44-6.62,35.52,5.21,39.45,18.52.15.5.52.93.94,1.67.62-.74,1.1-1.25,1.5-1.81,9.24-12.75,16.95-26.37,23.85-40.53,7.03-14.42,9.71-29.57,9.07-45.45-.02-.62-.18-1.24-.31-2.07-.48.36-.65.43-.72.55-.42.78-.83,1.57-1.22,2.37-3.7,7.48-8.35,14.23-15.02,19.41-10.62,8.25-22.14,14.02-36.08,13.19-5.57-.33-11.15-.51-16.72-.87-10.04-.65-19.67-2.89-28.55-7.81-25.44-14.08-45.74-33.41-60.08-58.83-.61-1.09-1.29-2.14-2-3.29ZM179.27,82.23c-.73,1.02-1.1,1.44-1.36,1.91-12.87,23.44-30.81,42.08-53.5,56.11-5.2,3.22-10.66,6.25-16.38,8.37-13.29,4.94-27.38,4.3-41.27,4.73-2.78.09-5.7-.4-8.38-1.19-17.14-5.04-30.21-15.11-38.07-31.45-.45-.94-1.02-1.83-1.83-3.27-.22,1.01-.33,1.3-.34,1.6-.5,14.4,1.08,28.41,7.08,41.74,7.09,15.77,15.49,30.78,25.64,44.79.49.67,1.06,1.29,1.77,2.15.45-.87.77-1.33.93-1.85,4.07-13.21,22.89-24.91,39.33-18.35,1.46.58,2.21.24,2.81-1.19,1.69-4.09,4.88-6.77,8.67-8.83,8.5-4.61,17.58-5.84,27.05-4.5,1.86.26,2.65-.11,2.77-2.11.25-4.28,2.11-7.93,4.91-11.11,5.06-5.74,11.26-9.16,19.06-9.18,2.05,0,2.69-.74,2.32-2.79-.54-2.94-.94-5.92-1.21-8.9-.51-5.72-1.09-11.44-1.25-17.17-.09-3.47,2.07-5.88,4.84-6.46,2.9-.61,5.42.75,7.1,3.86,6.02,11.18,13.69,21.18,21.93,30.78.44.51.99.93,1.49,1.39.27-.11.53-.22.8-.32-4.61-22.79-7.76-45.89-14.93-68.78ZM162.75,718.11c-.23-.05-.46-.11-.69-.16-.33.7-.67,1.41-.99,2.11-3.53,7.81-7.08,15.6-10.55,23.43-.54,1.23-.95,2.61-1.02,3.95-.65,11.23-1.21,22.46-1.76,33.69-.04.87.16,1.75.29,3,.93-.72,1.42-1.13,1.94-1.49,2.92-2.03,7.58-1.22,9.56,1.65,2.1,3.06,1.41,6.69-1.64,8.7-3.18,2.1-7.17,1.21-9.32-2.07-.36-.55-.72-1.11-1.32-2.02-.33.99-.56,1.49-.66,2.02-1.3,6.92-2.58,13.84-3.86,20.76-2.29,12.38-2.72,24.71.07,37.11,3.63,16.12,12.2,28.56,26.59,36.82,6.02,3.46,8.04,2.89,11.58-3.06,9.29-15.61,17.56-31.72,23.59-48.9,2.94-8.37,6.87-16.22,11.46-23.79.83-1.37,1.37-3.17,1.33-4.76-.37-15.03.83-29.91,3.9-44.64.17-.82.22-1.67.38-2.99-1.8.69-3.13,1.19-4.45,1.72-16.26,6.48-33.5,2.53-44.18-10.21-6.85-8.17-9.5-17.88-10.08-28.3-.05-.86-.11-1.72-.16-2.58ZM387.14,718.13c-.21.04-.43.08-.64.12-.09,1-.2,2-.26,3-.78,12.31-4.39,23.51-14.05,31.75-12.47,10.64-26.52,11.67-41.41,5.71-.92-.37-1.87-.68-3.21-1.17.15,1.2.18,1.9.33,2.57,3.17,14.8,4.33,29.77,3.96,44.89-.04,1.67.5,3.57,1.37,5,4.45,7.37,8.37,14.96,11.22,23.11,6.12,17.5,14.56,33.89,24.01,49.78,3.24,5.45,5.31,6.11,10.86,2.98,9.82-5.54,17.7-13.07,22.45-23.46,5.83-12.75,7.9-26.21,6.15-40.06-1.35-10.67-3.52-21.23-5.35-31.84-.08-.45-.48-.84-.79-1.37-3.22,5-6.9,6.26-10.56,3.81-2.93-1.96-3.64-5.6-1.66-8.52,2.41-3.56,6.82-3.74,11.85-.17,0-1.44.05-2.6,0-3.76-.53-10.83-1.05-21.66-1.66-32.49-.08-1.5-.41-3.07-1.01-4.43-3.43-7.76-6.97-15.48-10.48-23.2-.34-.76-.72-1.5-1.08-2.24ZM310.82,834.51c-5.47-1.52-10.49-2.76-15.41-4.31-5.54-1.74-6.55-6.08-2.41-10.06,1.43-1.38,1.93-2.92,1.05-4.57-.89-1.67-2.08-3.23-3.36-4.64-1.84-2.04-4.07-3.73-5.78-5.87-2.19-2.75-1.04-5.58,2.34-6.46,1.01-.26,2.11-.42,3-.92,7.5-4.21,15.71-5.35,24.11-5.63,4.94-.16,4.91-.15,4.33-5.09-.23-1.91-.96-1.96-2.58-1.4-3.28,1.13-6.59,2.27-9.98,2.95-7.54,1.49-15.13,1.29-22.69-.03-3.19-.55-4.9-2.03-5.15-4.33-.3-2.76,1.29-4.36,3.55-5.5.87-.44,1.69-.95,2.57-1.38,2.65-1.3,4.14-3.47,4.16-6.35.03-3.38-.13-6.79-.58-10.14-.17-1.26-1.2-2.52-2.1-3.56-1.26-1.45-2.99-2.52-4.11-4.06-2.25-3.1-1.22-6.87,2.21-8.59,1.21-.61,2.56-1.02,3.89-1.33,4.8-1.13,9.63-2.17,14.44-3.29.96-.22,1.87-.64,3.05-1.04-2.31-3.11-4.28-5.97-6.5-8.62-.49-.59-1.86-.61-2.82-.61-2.33.01-4.68.43-7,.27-5.59-.38-7.67-2.83-7.82-8.4-.07-2.39-.42-4.79-.9-7.13-.64-3.18.2-5.55,3.09-6.84,1.63-.72,1.71-1.46,1.09-2.96-2.99-7.25-5.88-14.55-8.83-21.82-.24-.59-.64-1.11-1.11-1.9-.43.65-.66.88-.77,1.17-3.09,7.65-6.15,15.31-9.26,22.95-.52,1.27-.16,1.85,1.01,2.46,3.24,1.7,4.07,3.96,3.09,7.46-.41,1.46-.84,3-.81,4.49.21,8.37-2.1,10.78-10.48,10.69-.32,0-.68.07-.97-.04-4.41-1.57-7.09.44-9.13,4.18-.89,1.63-2.22,3.01-3.67,4.91,3,.68,5.35,1.19,7.69,1.75,4.25,1.02,8.56,1.84,12.71,3.16,4.94,1.56,6.08,6.31,2.63,10.17-1.01,1.13-2.36,1.96-3.45,3.03-.72.71-1.73,1.56-1.81,2.43-.37,4-.61,8.03-.61,12.05,0,2.33,1.43,4.07,3.49,5.2,1.14.62,2.27,1.24,3.4,1.87,2.14,1.19,3.64,2.83,3.2,5.45-.43,2.62-2.39,3.69-4.78,4.14-.8.15-1.59.3-2.39.4-10.51,1.32-20.83.93-30.78-3.23-.57-.24-1.89-.11-1.9,0-.27,1.82-.6,3.69-.39,5.48.05.44,1.99.9,3.07.94,7.8.3,15.5,1.01,22.7,4.45,1.88.9,3.87,1.58,5.85,2.23,2.8.92,3.86,3.4,2.33,5.93-.58.95-1.39,1.79-2.19,2.58-1.89,1.88-3.94,3.61-5.75,5.57-2.36,2.57-2.47,5.37-.51,7.32,4.1,4.05,3.18,8.39-2.32,10.1-4.39,1.37-8.9,2.38-13.36,3.56-.59.16-1.16.35-2.08.63,2.13,3.21,4.64,5.5,7.81,7.05,3.27,1.6,5.29,1.43,7.54-1.41,2.9-3.66,5.68-7.49,8-11.53,3.05-5.33,5.58-10.95,8.38-16.43,1.29-2.52,2.88-3.48,5.51-2.7,1.35.4,2.79,1.65,3.48,2.91,3.26,5.96,6.09,12.16,9.46,18.05,2.03,3.55,4.59,6.86,7.28,9.96,1,1.15,3.17,2.11,4.6,1.89,4.55-.72,7.58-3.87,10.41-7.65ZM220.36,823.17c-.61.95-.94,1.32-1.09,1.74-2.51,7.01-5.04,14.01-7.42,21.06-.29.86-.07,2.15.4,2.96,4.26,7.29,9.2,14.09,15.18,20.08,4.45,4.46,9.69,7.5,15.94,8.73,5.27,1.04,9.79-.06,13.37-4.25,3.05-3.56,6.31-6.96,9.1-10.72,3.72-5,13.94-5.01,17.48.02.51.73,1.08,1.41,1.67,2.08,2.77,3.16,5.5,6.36,8.35,9.45,2.84,3.07,6.45,4.13,10.58,3.67,6.44-.72,11.95-3.46,16.62-7.82,6.69-6.23,11.93-13.62,16.52-21.47.49-.83.48-2.24.16-3.2-2.22-6.59-4.58-13.14-6.93-19.69-.27-.77-.73-1.47-1.35-2.69-.54,1.23-.8,1.88-1.1,2.51-1.76,3.63-3.29,7.41-5.36,10.86-4.03,6.71-9.27,12.26-16.65,15.41-6.55,2.79-12.5,1.81-17.7-3.13-1.11-1.06-2.13-2.22-3.11-3.4-4.6-5.54-6.92-12.2-9.24-18.86-.29-.83-.7-1.61-1.33-3.03-.87,2.49-1.48,4.23-2.08,5.98-2.13,6.15-4.74,12.04-9.08,17.03-6.75,7.74-14.34,9.06-23.14,3.78-8.95-5.36-14.26-13.65-18.14-23.04-.49-1.17-.95-2.35-1.65-4.06ZM209.83,16.95c-.83.7-1.35,1.05-1.76,1.5-6.73,7.19-14.37,13.3-22.53,18.74-6.37,4.25-13.05,7.97-20.79,8.92-9.01,1.11-17.77.61-25.55-5.83-5.77,12.13-11.16,24.13-14.34,37.1.88-.23,1.5-.67,2.16-1.05,2.74-1.55,5.38-3.36,8.26-4.58,10.28-4.35,18.35-2.46,25.83,5.81.65.72,1.24,1.49,1.83,2.27.92,1.22,1.72,1.03,2.4-.19,3.89-6.9,8.17-13.6,10.05-21.45.9-3.78,3.55-5.83,6.65-5.42,3.09.41,5.09,3.13,5.1,6.94,0,1.94-.13,3.9.07,5.82.09.82.7,1.94,1.39,2.26,2.29,1.08,4.72,1.87,7.31,2.85.14-.35.46-.9.6-1.49,3.06-13.32,8.61-25.57,15.8-37.14.56-.9.53-2.4.3-3.52-.57-2.84-1.43-5.62-2.14-8.43-.23-.89-.36-1.81-.62-3.1ZM409.79,39.99c-3.24,3.55-6.99,4.91-11,5.73-8.94,1.82-17.57.89-25.76-3.18-11.88-5.89-22.03-14.1-31.32-23.46-.64-.65-1.31-1.27-2.38-2.3-.27,1.44-.38,2.29-.59,3.12-.68,2.74-1.18,5.54-2.16,8.18-.61,1.64-.55,2.83.36,4.27,7.2,11.36,12.65,23.49,15.66,36.64.15.66.49,1.27.7,1.79,2.31-.99,4.3-2.08,6.43-2.66,1.67-.45,2.31-1.3,2.33-2.86.02-2.18-.09-4.37.03-6.55.18-3.22,2.26-5.55,5.09-5.93,2.79-.38,5.57,1.37,6.32,4.51,1.83,7.69,5.81,14.35,9.65,21.1,1.75,3.08,1.8,3.05,4.02.29,7.24-9.01,15.59-11.35,26.3-7.07,2.98,1.19,5.69,3.04,8.51,4.6.67.37,1.3.82,1.95,1.23.19-.13.39-.27.58-.4-3.46-12.72-8.81-24.7-14.74-37.05ZM47.28,81.26c-4.12,9.48-7.24,18.98-6.91,29.23l1.27.87c.42-.79.64-1.85,1.29-2.32,2.92-2.1,5.77-4.47,9.02-5.89,3.72-1.63,7.47-.66,10.55,2.18,2.52,2.32,2.37,2.15,5.16.11,2.12-1.55,4.51-2.87,6.98-3.73,3.63-1.27,7.34-.77,10.28,1.8,1.85,1.61,3.17,1.7,5.27.48,5.48-3.18,11.1-3.92,16.57.23.21.16.58.11,1.36.25-.52-11.41-2.52-22.34-4.72-33.87-1.19,1.04-1.88,1.67-2.59,2.26-6.51,5.42-12.79,11.17-19.62,16.16-7.22,5.27-15.21,5.22-23.22,1.38-4.32-2.07-7.89-5-10.7-9.13ZM501.74,81.19c-1.16,1.44-2.08,2.77-3.18,3.93-8.1,8.62-20.73,10.62-30.46,3.93-7.02-4.83-13.25-10.81-19.83-16.27-.7-.58-1.39-1.17-2.51-2.1-2.15,11.52-4.19,22.45-4.67,33.91.85-.22,1.2-.22,1.43-.39,5.58-4.28,11.23-3.24,16.77-.05,1.81,1.04,3.05,1.23,4.65-.36,1.97-1.96,4.55-2.72,7.34-2.61,4.33.17,8.02,1.89,10.99,4.97,1.37,1.42,2.17,1.6,3.61.02,3.44-3.78,7.98-4.85,12.56-2.62,2.85,1.39,5.33,3.57,7.86,5.54.64.5.85,1.56,1.26,2.36,2.71-4.5-1.61-23.38-5.81-30.25ZM274.23,625.29c4.48-8.86,4.34-75.62-.06-81.9-3.41,27.29-3.83,54.23.06,81.9ZM254,779.99c-.24-.59-.49-1.15-.71-1.72-3.01-8.08-3.08-16.28-.69-24.47.51-1.75,0-1.98-1.39-2.46-4.11-1.41-8.14-3.02-12.22-4.49-.61-.22-1.35-.1-2.03-.13.38.64.61,1.53,1.17,1.88,1.77,1.12,3.82,1.83,5.43,3.12.81.64,1.38,2.31,1.15,3.29-.2.84-1.65,1.76-2.67,1.93-1.55.26-3.21-.13-4.82-.17-.76-.02-1.53.13-2.3.21-.03.24-.07.49-.1.73.67.33,1.33.69,2.02.99,1.7.74,3.57,1.23,5.07,2.26.87.59,1.66,2.12,1.52,3.08-.11.76-1.64,1.42-2.64,1.92-.56.28-1.32.14-2.66.23,1.69.97,2.79,1.61,3.89,2.24,1.61.93,3.12,2.02,2.59,4.16-.52,2.11-2.38,2.48-4.21,2.6-1.56.1-3.14.02-5.03.02,3.06,3.28,14.26,6.05,18.62,4.78ZM310.3,766.61c-.01-.16-.02-.31-.04-.47-.53-.05-1.14.06-1.58-.17-1.11-.58-2.66-1.08-3.1-2.04-.72-1.57.62-2.68,2.05-3.31,1.63-.72,3.3-1.33,4.93-2.04.64-.28,1.22-.72,1.83-1.09-.07-.25-.13-.5-.2-.75-.74,0-1.48-.03-2.22,0-1.37.08-2.74.26-4.11.29-1.64.04-3.42-.35-3.53-2.16-.07-1.17.79-2.78,1.75-3.54,1.55-1.23,3.57-1.85,5.3-2.87.46-.27.61-1.09.9-1.65-.6-.07-1.27-.37-1.78-.18-4.15,1.52-8.26,3.13-12.39,4.71-.65.25-1.31.45-1.84.63,2.74,9.66,2.77,18.95-1.16,28.53,6.66-.18,12.8-1.25,18.33-4.79-1.8-.41-3.54-.44-5.27-.58-1.7-.15-3.25-.73-3.68-2.6-.44-1.91.78-3.01,2.26-3.87,1.18-.69,2.38-1.36,3.57-2.04ZM295.97,802.22c1.17,1.29,1.78,1.92,2.34,2.58,3.52,4.16,5.75,8.83,5.18,14.41-.44,4.36-.57,4.37,3.73,5.75,1.77.57,3.57,1.04,5.37,1.51.69.18,1.41.22,2.12.32.04-.23.09-.46.13-.69-.8-.26-1.61-.48-2.39-.78-.9-.34-1.84-.66-2.67-1.15-2.36-1.39-2.45-3.89-.25-5.51.44-.33.93-.6,1.36-.87-.74-3.87-.02-4.78,3.94-5.16.96-.09,1.92-.2,2.89-.29-1.31-.95-2.73-1.16-3.83-1.88-.82-.53-1.69-1.74-1.66-2.62.03-.87,1.01-1.95,1.85-2.49.82-.53,2.04-.41,3.02-.75.72-.25,1.35-.78,2.01-1.19-.65-.35-1.28-.97-1.96-1.02-4.84-.31-9.68-.58-14.52-.7-1.97-.05-3.95.29-6.67.52ZM238.1,817.67l.81-.12c.73,1.37,2.22,2.9,1.99,4.08-.25,1.29-2,2.41-3.29,3.33-.9.64-2.12.83-3.19,1.22.11.32.21.64.32.97,3.68-1.23,7.38-2.43,11.03-3.76.32-.12.59-1.14.45-1.62-1.97-7.04.85-12.61,5.32-17.71.38-.44.69-.94,1.32-1.8-7.63-1.16-14.77-.41-21.89.27-.33.03-.83.64-.83.98,0,.32.51.83.88.93,1.17.31,2.52.19,3.53.74,1,.55,2.26,1.68,2.31,2.62.05.93-1.1,2.17-2.03,2.83-.96.68-2.29.83-3.46,1.21,1.8.66,3.6.69,5.25,1.21,2.36.73,2.25,2.63,1.51,4.62ZM250.55,28.77c.25.23.49.46.74.69,3.52-1.92,7.1-2.16,10.82-.92.74.25,1.76-.12,2.6-.37,2.63-.77,5.2-.55,7.5.84,1.67,1.01,3,1.08,4.68.05,2.38-1.46,4.99-1.61,7.73-.88,1.18.31,2.58.33,3.77.03,2.79-.7,5.44-.58,8.06.58.53.23,1.11.34,2.45.73-1.23-2.86-2.2-5.05-3.11-7.26-.65-1.58-1.45-1.79-2.95-.84-3.74,2.36-7.76,4-12.27,4.18-.71.03-1.49.19-2.08.55-2.62,1.58-5.17,1.64-7.78.02-.46-.29-1.06-.49-1.6-.51-4.85-.16-9.12-1.98-13.2-4.42-.47-.28-1.68-.26-1.82,0-1.27,2.46-2.38,5-3.53,7.52ZM289.06,714.04c-.21.12-.42.25-.64.37.18,2.14.28,4.29.61,6.4.08.49,1.19,1.32,1.36,1.22.77-.47,2.07-1.51,1.94-1.81-.92-2.14-2.14-4.14-3.27-6.19ZM259.94,722.03c.25-2.55.5-5.1.76-7.65-.21-.05-.42-.09-.62-.14-.83,1.44-1.67,2.87-2.49,4.32-1.48,2.61-.99,3.4,2.36,3.47Z" style="fill: #000; stroke-width: 0px;"/>
  <path d="M67.13,335.05c1.92-1.19,3.19-2.01,4.48-2.78,19.4-11.46,40.3-17,62.76-14.23,27.93,3.44,46.67,19.71,58.5,44.51,6.95,14.58,10.35,30.3,13.42,46.04,2.52,12.86,4.39,25.85,6.84,38.73,3.08,16.23,8.8,31.43,18.36,45.08,1.61,2.3,2.33,5.22,3.46,7.86.44,1.04.8,2.12,1.31,3.12.75,1.49,1.07,2.96-.28,4.23-1.35,1.28-2.85.9-4.24.03-6.25-3.89-12.42-7.91-18.74-11.69-13.39-8.02-26.51-16.6-40.39-23.66-11.12-5.66-23.16-9.57-34.89-13.99-16-6.04-31.31-13.32-44.38-24.55-19.07-16.39-33.22-35.95-38.39-61.12-1.7-8.29-1.67-16.65-.15-24.87,2-10.81,4.62-21.5,7.09-32.21.67-2.89,2.66-4.16,4.85-3.61,2.01.51,2.95,2.49,2.55,5.34-.67,4.73-1.35,9.45-1.99,14.18-.13.93-.09,1.87-.17,3.59ZM177.05,355.23c-.33.06-.67.12-1,.18,0,1.97-.21,3.96.04,5.89.72,5.62,1.62,11.21,2.46,16.82,1.49,10.03,2.55,20.09,1.17,30.22-1.03,7.58-3.89,14.36-9.47,19.77-6.92,6.71-15.28,7.38-23.15,1.8-5.61-3.98-9.66-9.27-12.38-15.58-.34-.79-.71-1.56-1.11-2.43-.6.25-.96.41-1.32.55-2.61,1.02-5.14,2.58-7.84,2.94-6.21.83-11.34-2.03-15.22-6.54-9.4-10.94-14.1-23.66-11.88-38.13.98-6.42,3.61-12.57,5.14-18.93.86-3.57,1.11-7.3,1.42-10.98.17-2.04-.94-2.62-2.96-2.01-10.42,3.16-20.53,6.98-29.51,13.34-1.04.74-2.22,1.45-3.45,1.74-2.37.57-2.94,2.08-3.05,4.26-.48,9.56,1.37,18.69,4.88,27.52,5.33,13.4,14.68,23.73,25.6,32.73,15.61,12.87,33.37,21.95,52.28,28.78,21.93,7.92,43.05,17.43,62.42,30.54.5.34,1.09.53,2.19,1.04-.37-1.35-.58-2.16-.81-2.97-2.99-10.5-6.49-20.89-8.87-31.53-3.73-16.66-6.6-33.51-10.03-50.24-2.31-11.29-5.38-22.37-11.32-32.4-1.3-2.2-2.82-4.27-4.24-6.4ZM167.58,376.15c-.38-3.15-.73-5.92-1.05-8.69-.7-6.02-.71-11.99,2.24-17.51,1-1.87.49-2.84-.99-4.03-5.95-4.8-12.68-7.99-19.98-10.1-5.59-1.62-5.74-1.63-6.53,4.17-1.48,10.74.62,21.25,2.35,31.77.23,1.39,1.07,1.6,2.3,1.38,6.65-1.23,13.01-.06,19.24,2.3.65.25,1.33.4,2.43.72ZM111.02,355.53c7.12-.65,13.41,1.14,19.83,4.48-.14-9.26-1.01-17.98,4.32-25.78-1.02-.25-1.41-.46-1.77-.42-6.51.63-13.02,1.27-19.53,1.94-1.68.17-1.64,1.38-1.58,2.71.15,3.06.38,6.14.19,9.19-.15,2.47-.88,4.9-1.45,7.88ZM128.57,389.71c.33-.03,1.3-.09,2.26-.23,3.45-.51,3.61-.65,3.18-4.19-.55-4.66-1.26-9.3-1.82-13.96-.18-1.51-.81-2.35-2.35-2.57-6.8-.97-13.59-1.96-20.39-2.99-1.39-.21-2.22.2-2.37,1.64-.32,3.3-.72,6.59-.86,9.89-.04.81.56,1.89,1.21,2.43,2.11,1.75,4.38,3.3,6.59,4.94,4.14,3.06,8.67,5,14.55,5.03ZM170.51,398.01s.07,0,.1-.01c-.31-3.22-.5-6.45-1.01-9.64-.14-.88-1.12-2.2-1.87-2.31-6.69-1.01-13.42-1.81-20.14-2.62-1.56-.19-2.25.47-2.39,2.2-.37,4.33-1.06,8.64-1.47,12.97-.08.86.27,2.13.89,2.62,5.6,4.43,12.09,6.03,19.12,5.35,6.88-.67,6.87-.76,6.78-7.57,0-.32,0-.65,0-.97ZM143.15,411.14c1.73,4.56,4.02,7.88,7.16,10.56,2.86,2.44,6.06,4.4,9.93,2.54,4.54-2.18,7-6.09,8.58-11.35-8.86,2.65-17.02,1.3-25.67-1.75ZM110.97,393.6c2,3.92,4.25,7.19,7.45,9.73,2.3,1.82,4.82,3.19,7.78,1.71,3.52-1.77,5.59-4.76,6.78-8.15-3.86.11-7.5.69-10.97.17-3.59-.54-7.02-2.15-11.03-3.45Z" style="fill: #000; stroke-width: 0px;"/>
  <path d="M134.49,292.86c.71-17.26,2.85-34.35,5.21-51.42.38-2.74,2.12-4.35,4.22-4.07,2.06.27,3.43,2.19,3.17,4.97-1.12,11.67-2.27,23.35-3.53,35.01-1.17,10.86-2.5,21.7-3.76,32.54-.09.8.03,1.77-.38,2.37-.66.95-1.67,1.65-2.54,2.45-.78-.89-2.1-1.71-2.24-2.69-.34-2.38-.14-4.84-.14-7.26,0-3.96,0-7.93,0-11.89Z" style="fill: #000; stroke-width: 0px;"/>
  <path d="M99.27,291.46c1.23-10.02,2.46-20.05,3.7-30.07.09-.72.25-1.45.54-2.11.76-1.71,2.05-2.75,4-2.48,1.84.26,2.78,1.56,3.09,3.29.14.78.12,1.62.02,2.42-1.77,14.77-3.54,29.54-5.35,44.31-.19,1.55-.87,2.94-2.66,2.92-1.96-.02-2.57-1.53-2.59-3.18-.06-5.01-.02-10.03-.02-15.04l-.72-.07Z" style="fill: #000; stroke-width: 0px;"/>
  <path d="M38.03,340.06c1.66-12.26,3.3-24.53,4.99-36.78.18-1.27.46-2.57.95-3.75.71-1.72,2.07-2.74,4.02-2.46,1.95.29,2.91,1.66,3.12,3.52.1.87.05,1.79-.1,2.66-2.67,15.38-5.36,30.77-8.06,46.14-.3,1.7-.96,3.33-3.07,2.98-2.04-.34-2.25-2.05-2.11-3.79.23-2.82.47-5.64.71-8.47-.15-.02-.3-.04-.46-.06Z" style="fill: #000; stroke-width: 0px;"/>
  <path d="M225.5,425.53c.52-7.42,1.04-14.84,1.55-22.26.19-2.76,1.45-4.38,3.51-4.47,2.18-.1,3.99,1.52,3.91,4.31-.21,7.18-.51,14.37-1.21,21.51-.56,5.78-1.76,11.5-2.68,17.25-.08.48-.04,1.1-.33,1.4-.82.85-1.7,2.09-2.69,2.22-1.61.22-2.38-1.22-2.38-2.74,0-3.48.13-6.95.18-10.43.03-2.26,0-4.53,0-6.79.04,0,.09,0,.13,0Z" style="fill: #000; stroke-width: 0px;"/>
  <path d="M196.73,320.63c-.7,8.38-1.41,16.76-2.11,25.14-.01.16-.02.32-.05.48-.24,1.61-.67,3.16-2.66,3.17-1.94,0-2.58-1.43-2.74-3.09-.46-4.59-1.1-9.17-1.26-13.77-.24-6.78-.14-13.58-.16-20.37,0-.72.08-1.46.25-2.16.51-2.07,1.71-3.55,3.95-3.67,2.35-.13,3.84,1.26,4.42,3.4.39,1.46.43,3.03.49,4.55.08,2.1.02,4.2.02,6.3h-.15Z" style="fill: #000; stroke-width: 0px;"/>
  <path d="M236.66,464.15c.32-5.57.61-11.14.98-16.7.19-2.9,1.77-4.71,3.91-4.7,2.16,0,3.79,1.74,4.01,4.66.71,9.42-.36,18.72-1.94,27.99-.35,2.07-.73,4.14-1.18,6.19-.32,1.49-1.29,2.8-2.81,2.3-1.01-.33-2.29-1.78-2.33-2.77-.22-5.65-.11-11.31-.11-16.96-.18,0-.35,0-.53,0Z" style="fill: #000; stroke-width: 0px;"/>
  <path d="M213.04,395.81c.57-7.26,1.13-14.52,1.72-21.78.06-.8.15-1.63.41-2.38.62-1.76,1.83-2.93,3.81-2.74,1.84.18,2.84,1.44,3.17,3.19.13.7.14,1.46.05,2.17-1.34,11.49-2.7,22.98-4.05,34.46-.06.48-.13.96-.24,1.44-.34,1.51-.93,2.92-2.77,2.8-1.98-.13-2.39-1.66-2.4-3.32-.01-4.61,0-9.22,0-13.83h.31Z" style="fill: #000; stroke-width: 0px;"/>
  <path d="M21.53,363.17c.35-6.61.68-13.22,1.07-19.83.14-2.41,1.6-3.98,3.65-4.12,2.11-.15,3.98,1.33,4.06,3.9.12,3.94.01,7.92-.39,11.83-.77,7.39-1.83,14.74-2.77,22.11-.06.48-.02,1.1-.3,1.4-.76.82-1.78,2.2-2.48,2.08-.95-.17-2.23-1.41-2.41-2.38-.41-2.11-.25-4.34-.27-6.51-.03-2.83,0-5.65,0-8.48-.05,0-.1,0-.15,0Z" style="fill: #000; stroke-width: 0px;"/>
  <path d="M187.35,287.92c-1.7,7.62-3.38,15.25-5.12,22.86-.35,1.53-1.27,2.72-3.03,2.57-1.75-.14-2.45-1.44-2.59-3.01-.71-7.98-1.06-15.95.67-23.86.12-.55.23-1.11.39-1.65.88-3.06,2.85-4.7,5.24-4.36,2.4.34,3.82,2.41,3.85,5.62,0,.56,0,1.13,0,1.69.2.05.39.09.59.14Z" style="fill: #000; stroke-width: 0px;"/>
  <path d="M166.5,267.85c.39-5,.77-10,1.16-15,.04-.48.09-.97.2-1.44.53-2.27,2.09-3.7,3.99-3.53,2.32.21,3.55,1.77,3.6,3.89.08,4.2.17,8.44-.31,12.6-.59,5.05-1.74,10.03-2.68,15.04-.32,1.7-1.05,3.29-3.06,3.14-2.17-.17-2.56-1.94-2.57-3.76-.02-3.64,0-7.28,0-10.92-.11,0-.21,0-.32-.01Z" style="fill: #000; stroke-width: 0px;"/>
  <path d="M33.46,386.73c.25-4.35.49-8.71.78-13.06.06-.96.21-1.94.5-2.86.59-1.87,1.83-3.09,3.9-3,2.19.09,3.33,1.5,3.7,3.52.19,1.02.25,2.11.11,3.14-1.06,7.92-2.16,15.84-3.32,23.75-.23,1.55-1.03,2.85-2.85,2.71-1.93-.15-2.48-1.61-2.5-3.28-.04-3.64-.01-7.27-.01-10.91-.1,0-.21,0-.31,0Z" style="fill: #000; stroke-width: 0px;"/>
  <path d="M150.69,282.61c.63-4.8,1.21-9.62,1.93-14.41.18-1.16.56-2.55,1.36-3.29.97-.88,2.57-1.75,3.72-1.57,1.15.19,2.38,1.52,3.02,2.66.53.95.53,2.4.31,3.54-1.32,6.73-2.74,13.45-4.21,20.15-.35,1.61-1.33,2.9-3.22,2.66-1.91-.24-2.38-1.75-2.41-3.4-.05-2.1-.01-4.21-.01-6.31-.16-.02-.32-.03-.49-.05Z" style="fill: #000; stroke-width: 0px;"/>
  <path d="M91.57,280.7c-1.45,7.12-2.82,14.26-4.46,21.33-.22.95-1.87,1.58-2.86,2.35-.77-1-2.25-2.04-2.21-3,.3-7.25.78-14.5,1.48-21.72.26-2.7,2.29-4.06,4.48-3.76,2.04.28,3.28,2.12,3.56,4.8Z" style="fill: #000; stroke-width: 0px;"/>
  <path d="M204,350.24c0-3.4-.05-6.79.02-10.19.06-2.95,1.57-4.75,3.78-4.72,2.09.03,3.91,1.8,3.72,4.54-.49,7.49-1.24,14.96-2.12,22.41-.11.89-1.66,1.61-2.54,2.41-.83-.94-2.31-1.83-2.39-2.83-.28-3.86-.11-7.75-.11-11.63h-.36Z" style="fill: #000; stroke-width: 0px;"/>
  <path d="M55.62,416.15c-.24,4.3-.38,7.36-.58,10.43-.1,1.57-.65,2.97-2.44,3.12-1.93.16-2.75-1.22-2.96-2.87-.84-6.64-1.69-13.29-2.34-19.95-.27-2.74,1.24-4.62,3.31-4.88,2.12-.27,4,1.39,4.32,4.27.41,3.68.53,7.4.69,9.89Z" style="fill: #000; stroke-width: 0px;"/>
  <path d="M161.63,302.38c.21-2.18.27-4.53.7-6.81.47-2.47,2.25-3.8,4.41-3.62,2.4.2,3.61,1.78,3.85,3.97.62,5.91-.73,11.55-2.77,17.02-.3.81-2.03,1.77-2.8,1.56-.97-.27-2.14-1.57-2.33-2.59-.58-3.08-.72-6.23-1.05-9.53Z" style="fill: #000; stroke-width: 0px;"/>
  <path d="M256.06,506.91c-.63,4.3-1.23,8.61-1.89,12.91-.25,1.63-.96,3.03-2.88,2.99-1.95-.05-2.58-1.53-2.66-3.16-.28-5.63-.57-11.27-.64-16.91-.04-2.75,1.6-4.49,3.71-4.57,2.14-.08,3.76,1.72,3.98,4.59.1,1.36.02,2.74.02,4.11.12.01.25.03.37.04Z" style="fill: #000; stroke-width: 0px;"/>
  <path d="M56.61,303.08c1.14-6.08,2.06-11.66,3.26-17.17.62-2.83,2.69-4.13,4.87-3.58,2.03.51,3.28,2.65,2.51,5.29-1.59,5.5-3.34,10.95-5.31,16.33-.33.91-2.16,1.94-3.1,1.77-.91-.16-1.56-1.78-2.24-2.65Z" style="fill: #000; stroke-width: 0px;"/>
  <path d="M71.79,442.84c0,1.86.27,3.78-.1,5.56-.21,1.04-1.35,2.47-2.24,2.61-.88.13-2.66-.97-2.87-1.82-1.24-5-2.33-10.05-3.05-15.15-.35-2.47,1.47-4.31,3.49-4.49,2.04-.18,3.86,1.32,4.21,3.86.43,3.12.57,6.27.84,9.42-.09,0-.18.01-.27.02Z" style="fill: #000; stroke-width: 0px;"/>
  <path d="M119.47,283.25c.23-2.2.37-4.7.77-7.17.43-2.6,2.09-4.07,4.12-3.97,2.05.1,3.81,1.82,3.54,4.41-.52,5.04-1.39,10.05-2.42,15.01-.18.87-1.89,2.05-2.79,1.97-.9-.08-2.18-1.46-2.41-2.46-.54-2.42-.56-4.96-.82-7.78Z" style="fill: #000; stroke-width: 0px;"/>
  <path d="M88,449.85c-.08,1.85.09,3.77-.35,5.53-.25,1.03-1.48,2.56-2.25,2.55-1.02-.01-2.64-1.14-2.91-2.1-1.05-3.71-1.82-7.52-2.41-11.34-.41-2.67,1.07-4.6,3.23-4.85,2.19-.25,3.83,1.22,4.34,3.93.08.4.15.8.15,1.2.02,1.69,0,3.39,0,5.08.06,0,.12,0,.19,0Z" style="fill: #000; stroke-width: 0px;"/>
  <path d="M110.13,464.44c-.63.78-1.3,2.4-2.2,2.54-.97.16-2.6-.81-3.18-1.75-1.37-2.26-2.39-4.75-3.36-7.22-.94-2.39-.11-4.63,1.77-5.37,1.98-.78,4.25.42,4.99,2.95.79,2.7,1.25,5.49,1.98,8.84Z" style="fill: #000; stroke-width: 0px;"/>
  <path d="M242.35,534.9c-.12,1.03-.07,2.79-.59,4.37-.32.96-1.45,2.18-2.32,2.27-.87.09-2.38-.89-2.72-1.75-.9-2.31-1.53-4.78-1.89-7.24-.41-2.82,1.12-4.81,3.39-4.96,2.22-.15,3.94,1.7,4.11,4.45.04.72,0,1.45,0,2.85Z" style="fill: #000; stroke-width: 0px;"/>
  <path d="M135.03,476.41c-.56.69-1.17,2.14-1.98,2.26-.98.15-2.61-.54-3.12-1.37-1.38-2.25-2.45-4.72-3.38-7.21-.86-2.28.16-4.4,2.08-4.96,1.83-.54,3.77.52,4.43,2.75.77,2.62,1.25,5.33,1.97,8.53Z" style="fill: #000; stroke-width: 0px;"/>
  <path d="M189.15,495.25c-.12,1.65.06,3.04-.38,4.2-.37.98-1.38,2.23-2.25,2.35-.86.12-2.41-.82-2.75-1.66-.95-2.38-1.62-4.92-2.05-7.45-.38-2.24,1.05-4.06,2.93-4.37,2.01-.33,3.81,1.04,4.24,3.42.23,1.26.2,2.57.26,3.51Z" style="fill: #000; stroke-width: 0px;"/>
  <path d="M152.87,477.17c0,1.21.29,2.51-.08,3.59-.34.99-1.29,2.28-2.15,2.43-.85.15-2.46-.75-2.79-1.56-.98-2.44-1.73-5.03-2.13-7.62-.35-2.26,1.18-3.97,3.11-4.16,1.92-.18,3.55,1.19,3.91,3.47.2,1.26.17,2.56.25,3.85-.04,0-.07,0-.11,0Z" style="fill: #000; stroke-width: 0px;"/>
  <path d="M171.54,484.03c-.08,1.31.12,2.47-.27,3.37-.4.92-1.29,2.06-2.13,2.22-.85.15-2.41-.56-2.75-1.3-.98-2.18-1.73-4.52-2.13-6.87-.35-2.11,1.14-3.85,2.92-4.1,1.82-.25,3.53.98,4.01,3.1.28,1.25.26,2.56.35,3.59Z" style="fill: #000; stroke-width: 0px;"/>
  <path d="M208.93,507.45c-.05,1.04.16,2.2-.22,3.1-.39.91-1.28,2.08-2.1,2.2-.81.12-2.27-.71-2.62-1.49-.84-1.88-1.4-3.95-1.71-5.99-.29-1.94.59-3.5,2.71-3.9,1.82-.34,3.49,1.06,3.8,3.19.14.94.02,1.92.02,2.89.04,0,.07,0,.1,0Z" style="fill: #000; stroke-width: 0px;"/>
  <path d="M226.08,520.49c-.05.52.12,1.46-.24,2.09-.61,1.07-1.42,2.5-2.41,2.75-.77.2-2.23-.96-2.86-1.88-.73-1.08-1.04-2.52-1.27-3.86-.42-2.35.88-4.26,2.88-4.53,1.98-.27,3.65,1.3,3.89,3.7.05.48,0,.96,0,1.72Z" style="fill: #000; stroke-width: 0px;"/>
  <path d="M481.85,334.73c0-1.44.11-2.46-.02-3.45-.63-4.73-1.34-9.45-2.01-14.18-.38-2.68.58-4.64,2.49-5.16,2.09-.57,4.06.68,4.85,3.31,3.52,11.64,6.19,23.46,7.7,35.55,2.17,17.42-2.05,33.51-10.45,48.53-14.14,25.27-34.94,43.26-61.61,54.36-10.75,4.47-21.76,8.33-32.65,12.47-16.83,6.4-32.05,15.78-47.14,25.4-8.12,5.17-16.28,10.28-24.43,15.4-.68.43-1.4,1.05-2.13,1.1-1.11.07-2.63.09-3.28-.56-.66-.66-.93-2.32-.59-3.27,1.9-5.46,4.07-10.72,7.42-15.61,9.22-13.46,13.79-28.79,16.75-44.68,3.26-17.5,6.33-35.04,10.02-52.44,2.72-12.85,6.65-25.45,13.59-36.74,17.35-28.23,42.69-40.43,75.56-36.7,15.98,1.81,30.9,6.91,44.39,15.88.32.22.69.36,1.55.8ZM415.54,411.8c-.43,1-.77,1.79-1.12,2.59-2.8,6.47-7,11.84-12.81,15.83-7.29,5-14.98,4.58-21.65-1.2-6.81-5.9-9.8-13.72-10.73-22.44-1.2-11.31.45-22.44,2.18-33.58.76-4.87,1.27-9.78,1.81-14.68.1-.95-.21-1.95-.43-3.66-1.15,1.47-2,2.24-2.49,3.21-2.98,5.9-6.85,11.58-8.62,17.84-3.74,13.21-6.75,26.66-9.37,40.15-3.98,20.51-7.76,41.05-14.94,60.76-.2.55-.21,1.18-.4,2.34,1.21-.72,1.96-1.14,2.67-1.6,13.66-8.9,27.83-16.84,43.02-22.87,10.45-4.15,21.05-7.96,31.38-12.39,19.05-8.19,36.54-18.81,50.81-34.16,12.97-13.95,19.87-30.29,19.42-49.53-.06-2.38-.71-4.03-3.27-4.63-1.07-.25-2.09-.89-3-1.54-9.03-6.43-19.19-10.33-29.71-13.46-2.19-.65-2.89,0-3.11,2.14-.48,4.66.85,8.95,2.19,13.3,1.64,5.33,3.62,10.65,4.42,16.12,2.23,15.13-2.43,28.39-12.8,39.42-6.1,6.49-14.81,7.99-22.21,2.63-.25-.18-.57-.27-1.25-.6ZM381.73,375.76c.63.07.8.13.94.09.54-.16,1.08-.34,1.61-.53,6.16-2.26,12.46-3.45,19.01-2.18,1.84.36,2.27-.65,2.45-2.11.88-7.29,2.08-14.57,2.54-21.89.26-4.12-.66-8.32-1.13-12.48-.16-1.45-1-2.05-2.56-1.67-8.68,2.1-16.69,5.55-23.61,11.32-1.18.98-1.51,1.87-.74,3.31,2.45,4.55,3.11,9.48,2.68,14.57-.25,2.98-.66,5.94-.98,8.91-.09.85-.14,1.7-.21,2.65ZM437.87,355.39c.06-.57.18-.9.1-1.17-1.56-5.36-1.96-10.79-1.08-16.32.23-1.41-.47-2.11-1.85-2.25-6.18-.62-12.36-1.28-18.55-1.87-.66-.06-1.36.17-2.58.33,5.37,7.96,4.6,16.68,4.45,25.91,6.41-3.4,12.73-5.06,19.51-4.63ZM443.14,375.55c-.34-2.64-.68-5.29-1.02-7.93-.17-1.31-.76-2.07-2.25-1.85-6.95,1.03-13.9,1.99-20.83,3.14-.74.12-1.75,1.26-1.87,2.05-.81,5.19-1.37,10.41-2.09,15.62-.24,1.76.47,2.46,2.14,2.76,5.98,1.09,11.41-.28,16.37-3.62,2.34-1.58,4.37-3.65,6.8-5.04,2.17-1.24,3.04-2.74,2.76-5.13ZM378.58,398.07s.09,0,.13.01c0,1.46.09,2.92-.02,4.36-.17,2.09.72,3.02,2.76,3.46,8.17,1.75,15.72.61,22.64-4.27,1.33-.94,1.67-1.76,1.39-3.39-.68-3.97-1.27-7.99-1.44-12-.1-2.33-.9-3.1-3.01-2.84-6.48.81-12.98,1.58-19.43,2.59-.81.13-1.88,1.5-2.03,2.43-.52,3.18-.69,6.42-.99,9.64ZM405.54,411.25c-8.27,3.03-16.44,4.24-25.28,1.66,1.68,5.06,3.99,8.87,8.21,11.1,1.27.67,2.99.92,4.43.74,4.96-.62,11.86-7.97,12.64-13.51ZM437.74,393.63c-6.88,3.37-13.79,5.26-21.81,2.47,1.63,4.44,3.74,7.56,7.55,9.11,1.09.45,2.65.48,3.75.05,5.37-2.07,8.25-6.54,10.51-11.63Z" style="fill: #000; stroke-width: 0px;"/>
  <path d="M414.64,292.1c0,6.07,0,12.13,0,18.2,0,.65.19,1.44-.11,1.91-.6.93-1.57,2.39-2.23,2.32-.96-.11-2.28-1.24-2.57-2.2-.59-1.99-.61-4.14-.84-6.23-2.25-20.75-4.5-41.49-6.73-62.24-.12-1.11-.17-2.28.03-3.38.31-1.74,1.41-3.26,3.22-3,1.28.19,2.46,1.43,3.56,2.34.35.29.38,1.04.45,1.6,2.35,16.83,4.48,33.68,5.22,50.69Z" style="fill: #000; stroke-width: 0px;"/>
  <path d="M449.16,292.89c0,4.2,0,8.41,0,12.61,0,.64.11,1.44-.21,1.9-.65.9-1.53,2.2-2.37,2.24-.83.04-2.01-1.12-2.5-2.04-.54-1.01-.51-2.35-.65-3.55-1.64-13.81-3.26-27.62-4.88-41.43-.06-.48-.08-.97-.08-1.45.02-2.48,1.3-4.19,3.29-4.4,1.89-.2,3.57,1.07,4.1,3.36.57,2.44,1.1,4.91,1.37,7.39.89,8.44,1.65,16.89,2.47,25.34-.18.01-.35.02-.53.04Z" style="fill: #000; stroke-width: 0px;"/>
  <path d="M511.36,348.57c.04,1.71-.06,3.51-2.13,3.81-2.22.32-2.83-1.43-3.14-3.21-2.67-15.3-5.33-30.6-7.98-45.9-.08-.48-.13-.96-.15-1.45-.1-2.59,1.13-4.42,3.18-4.76,1.99-.33,3.98,1.05,4.4,3.61,1.37,8.38,2.73,16.76,3.75,25.19.92,7.54,1.39,15.14,2.06,22.71Z" style="fill: #000; stroke-width: 0px;"/>
  <path d="M323.93,427.58c0,4.77,0,9.53,0,14.3,0,1.72-.19,3.43-2.28,3.66-2.09.23-2.71-1.35-3-3.07-2.12-12.27-4.3-24.53-4.14-37.05.02-1.21.08-2.44.36-3.6.48-1.92,1.72-3.16,3.83-2.99,2.12.17,3.1,1.66,3.3,3.59.38,3.78.64,7.57.89,11.36.3,4.6.53,9.2.8,13.8h.25Z" style="fill: #000; stroke-width: 0px;"/>
  <path d="M361.92,323.62c-.62,7.25-1.25,14.49-1.87,21.74-.04.48.04,1.1-.22,1.42-.8.96-1.63,2.33-2.66,2.56-1.59.36-2.39-1.1-2.53-2.6-.43-4.35-.84-8.69-1.14-13.05-.46-6.61-.84-13.23-1.18-19.85-.06-1.27.09-2.6.4-3.84.59-2.37,2.45-3.8,4.49-3.68,2.01.12,3.81,1.77,4.02,4.19.3,3.46.32,6.94.45,10.41.03.89,0,1.78,0,2.67l.25.03Z" style="fill: #000; stroke-width: 0px;"/>
  <path d="M311.98,464.4c0,5.25.03,10.5-.02,15.75-.01,1.74-.21,3.62-2.46,3.81-2.24.19-2.74-1.56-3.07-3.32-1.83-9.78-3.23-19.61-3.04-29.6.03-1.61.1-3.25.4-4.82.38-2,1.61-3.44,3.79-3.43,2.18.01,3.41,1.47,3.74,3.48.35,2.15.44,4.34.56,6.51.22,3.87.37,7.75.56,11.62-.15,0-.31,0-.46,0Z" style="fill: #000; stroke-width: 0px;"/>
  <path d="M336.36,397.97c0,3.4,0,6.79,0,10.19,0,.24.02.49.02.73,0,1.83.04,3.88-2.39,4.06-2.25.17-2.66-1.76-2.92-3.48-.83-5.52-1.72-11.04-2.37-16.58-.71-6.11-1.19-12.24-1.73-18.37-.08-.88-.29-2,.13-2.61.8-1.16,1.94-2.72,3.07-2.85,1.12-.12,2.62,1.14,3.55,2.17.6.66.6,1.97.68,3.01.63,7.9,1.22,15.81,1.82,23.72.05,0,.1,0,.15.01Z" style="fill: #000; stroke-width: 0px;"/>
  <path d="M527.33,363.19c0,4.68.01,9.36,0,14.05,0,1.65-.44,3.22-2.35,3.41-2.11.21-2.74-1.4-2.94-3.12-1.14-9.94-2.27-19.88-3.34-29.83-.16-1.51-.09-3.08.09-4.59.3-2.45,1.84-3.92,3.86-3.9,2.14.02,3.7,1.6,3.86,4.15.41,6.6.74,13.21,1.1,19.82-.1,0-.19,0-.29,0Z" style="fill: #000; stroke-width: 0px;"/>
  <path d="M373.32,298.84c-.35,4.85-.56,8.15-.84,11.45-.13,1.57-.78,2.9-2.53,3.06-1.73.16-2.76-.94-3.07-2.51-1.52-7.74-3.17-15.47-4.36-23.27-.65-4.28.99-6.73,3.67-7.11,2.78-.39,4.9,1.59,5.64,5.98.77,4.6,1.12,9.26,1.49,12.4Z" style="fill: #000; stroke-width: 0px;"/>
  <path d="M382.25,268.47c0,3.56.02,7.12,0,10.68-.01,1.66-.52,3.17-2.42,3.39-1.92.22-2.7-1.18-3.09-2.78-2.17-8.76-3.51-17.62-3.16-26.67.02-.57.03-1.14.15-1.69.45-1.99,1.47-3.48,3.71-3.52,2.11-.04,3.26,1.3,3.74,3.18.33,1.32.46,2.71.56,4.08.33,4.44.6,8.88.89,13.32-.12,0-.24,0-.36,0Z" style="fill: #000; stroke-width: 0px;"/>
  <path d="M515.3,386.72c0,3.63.02,7.27-.01,10.9-.02,1.67-.54,3.13-2.47,3.3-1.83.16-2.62-1.13-2.84-2.69-1.14-7.99-2.22-15.99-3.31-23.98-.03-.24-.01-.48-.01-.73,0-3.59,1.37-5.65,3.83-5.74,2.38-.09,4.03,1.73,4.32,5.15.39,4.58.6,9.18.89,13.77-.13,0-.26,0-.4.01Z" style="fill: #000; stroke-width: 0px;"/>
  <path d="M397.89,282.36c0,2.34.24,4.72-.11,7.01-.17,1.1-1.26,2.53-2.27,2.91-1.61.61-2.81-.72-3.13-2.25-1.51-7.17-2.98-14.36-4.3-21.57-.37-2,.3-3.91,2.35-4.89,2.4-1.16,4.88.31,5.79,3.45.45,1.55.81,3.14,1,4.74.42,3.53.72,7.07,1.06,10.6-.13,0-.26.01-.39.02Z" style="fill: #000; stroke-width: 0px;"/>
  <path d="M467.15,294.56c0,2.26.24,4.57-.1,6.78-.17,1.1-1.43,2.04-2.19,3.05-.99-.77-2.65-1.4-2.85-2.34-1.5-7.11-2.82-14.27-3.97-21.45-.42-2.61,1.03-4.42,3.09-4.77,2.08-.35,4.09,1.13,4.5,3.79.76,4.95,1.26,9.93,1.86,14.9-.12.01-.23.03-.35.04Z" style="fill: #000; stroke-width: 0px;"/>
  <path d="M344.77,350.73c0,3.47.02,6.95,0,10.42-.01,1.74-.45,3.4-2.52,3.5-1.95.1-2.61-1.44-2.77-3.06-.68-6.67-1.29-13.34-1.92-20.01-.02-.24,0-.48,0-.73.1-3.56,1.43-5.5,3.78-5.51,2.39,0,3.8,1.95,3.84,5.44.04,3.31,0,6.63,0,9.94-.14,0-.27,0-.41,0Z" style="fill: #000; stroke-width: 0px;"/>
  <path d="M493.52,416.68c.13-2.47.3-5.94.52-9.4.04-.72.17-1.45.38-2.14.61-1.98,1.89-3.29,4.06-3.1,2.19.19,3.29,1.77,3.34,3.82.06,2.58,0,5.18-.32,7.74-.54,4.41-1.29,8.79-2.01,13.17-.27,1.62-1.01,3.07-2.93,2.93-1.91-.14-2.42-1.63-2.51-3.3-.16-2.9-.31-5.81-.52-9.72Z" style="fill: #000; stroke-width: 0px;"/>
  <path d="M387.48,303.04c-.31,2.82-.45,5.92-1.09,8.91-.22,1.05-1.58,2.39-2.6,2.57-.79.14-2.52-1.17-2.71-2.08-1.07-5.12-1.93-10.29-2.6-15.48-.27-2.13.75-4,2.94-4.82,2.45-.91,4.82.7,5.51,3.64.13.55.19,1.12.23,1.68.11,1.78.2,3.55.31,5.58Z" style="fill: #000; stroke-width: 0px;"/>
  <path d="M301.33,508.89c-.27,3.54-.51,7.08-.82,10.62-.14,1.62-.64,3.16-2.56,3.3-2.04.15-2.85-1.32-3.04-3.07-.56-5.12-1.04-10.26-1.53-15.39-.05-.56.01-1.13.06-1.69.23-2.69,1.76-4.48,3.83-4.51,2.1-.02,3.72,1.74,3.87,4.44.12,2.09.02,4.19.02,6.29.05,0,.1,0,.15,0Z" style="fill: #000; stroke-width: 0px;"/>
  <path d="M492.47,303.08c-.68.86-1.25,2.27-2.26,2.71-1.63.72-2.76-.56-3.26-2.04-1.7-5.04-3.34-10.1-4.92-15.18-.3-.97-.57-2.23-.19-3.06.54-1.2,1.55-2.78,2.6-2.98,1.19-.23,2.73.73,3.93,1.48.56.35.84,1.38.98,2.14,1.04,5.46,2.02,10.93,3.11,16.93Z" style="fill: #000; stroke-width: 0px;"/>
  <path d="M477.11,442.05c.25-2.81.38-5.63.77-8.42.38-2.75,2.09-4.26,4.22-4.09,2.08.17,3.89,2.09,3.51,4.69-.72,4.99-1.81,9.94-3.04,14.84-.22.89-2.01,2.14-2.76,1.96-1-.24-2.2-1.64-2.4-2.71-.38-2.02-.11-4.17-.11-6.26h-.18Z" style="fill: #000; stroke-width: 0px;"/>
  <path d="M429.65,283.37c-.26,2.7-.26,5.17-.82,7.5-.26,1.07-1.59,2.56-2.5,2.61-.93.05-2.61-1.28-2.82-2.26-1-4.72-1.81-9.5-2.3-14.3-.29-2.82,1.29-4.59,3.39-4.79,2.17-.21,3.9,1.37,4.36,4.27.38,2.39.49,4.81.69,6.96Z" style="fill: #000; stroke-width: 0px;"/>
  <path d="M461.04,449.3c.14-1.73.19-3.91.53-6.05.4-2.49,2.23-3.88,4.35-3.6,1.96.26,3.48,2.04,3.12,4.47-.6,4.05-1.49,8.08-2.55,12.04-.23.84-1.86,1.97-2.62,1.82-.95-.19-2.13-1.45-2.38-2.45-.46-1.84-.32-3.84-.45-6.23Z" style="fill: #000; stroke-width: 0px;"/>
  <path d="M438.96,464.47c.75-3.37,1.23-6.17,2.03-8.86.76-2.57,2.98-3.73,4.99-2.94,1.91.76,2.74,2.96,1.78,5.35-1.03,2.54-2.11,5.09-3.51,7.43-.53.88-2.2,1.78-3.05,1.55-.97-.25-1.6-1.76-2.23-2.53Z" style="fill: #000; stroke-width: 0px;"/>
  <path d="M314.33,533.29c-.41,1.48-.9,4.05-1.89,6.41-.38.91-1.93,1.87-2.91,1.83-.8-.03-2.05-1.42-2.22-2.36-.43-2.45-.56-4.99-.45-7.48.12-2.65,2.01-4.31,4.17-4.09,2.06.21,3.41,2.07,3.3,5.69Z" style="fill: #000; stroke-width: 0px;"/>
  <path d="M414.08,476.27c.74-3.22,1.21-5.86,1.98-8.39.72-2.37,2.76-3.39,4.67-2.65,1.88.72,2.71,2.82,1.79,5.1-.93,2.32-1.88,4.67-3.22,6.76-.58.91-2.22,1.7-3.25,1.58-.81-.1-1.44-1.7-1.96-2.38Z" style="fill: #000; stroke-width: 0px;"/>
  <path d="M359.93,495.23c.12-1.15.08-2.64.46-4.01.54-1.98,1.93-3.23,4.12-2.87,2.06.34,3.22,1.93,2.92,3.82-.44,2.83-1.29,5.63-2.27,8.33-.26.71-1.72,1.5-2.47,1.36-.88-.16-1.96-1.16-2.27-2.04-.47-1.32-.34-2.85-.5-4.59Z" style="fill: #000; stroke-width: 0px;"/>
  <path d="M396.13,477.25c.1-1.41.09-2.79.32-4.13.38-2.14,2-3.43,3.84-3.27,1.94.17,3.53,1.9,3.15,4.12-.45,2.67-1.27,5.32-2.27,7.83-.3.76-1.83,1.54-2.66,1.42-.83-.13-1.81-1.27-2.12-2.18-.4-1.17-.2-2.54-.25-3.79Z" style="fill: #000; stroke-width: 0px;"/>
  <path d="M377.54,483.84c.13-.98.15-2.46.55-3.84.52-1.81,1.87-2.91,3.83-2.63,1.95.28,3.22,1.78,2.96,3.56-.38,2.59-1.28,5.14-2.29,7.57-.28.67-1.85,1.33-2.6,1.14-.88-.23-1.76-1.29-2.17-2.21-.4-.9-.2-2.06-.29-3.59Z" style="fill: #000; stroke-width: 0px;"/>
  <path d="M340.1,507.37c.11-1.05.08-2.37.43-3.58.5-1.73,1.8-2.69,3.67-2.41,1.78.27,2.83,1.62,2.61,3.24-.32,2.36-1.02,4.69-1.86,6.93-.24.65-1.6,1.36-2.3,1.23-.83-.15-1.81-1.04-2.17-1.85-.43-.97-.26-2.2-.38-3.56Z" style="fill: #000; stroke-width: 0px;"/>
  <path d="M329.86,519.88c-.35.94-.76,2.72-1.67,4.18-.47.76-1.87,1.39-2.77,1.3-.76-.08-1.83-1.19-2.02-2.01-.37-1.61-.42-3.36-.26-5.02.2-2.13,1.92-3.47,3.76-3.28,1.8.19,3.07,1.92,2.95,4.83Z" style="fill: #000; stroke-width: 0px;"/>
  <path d="M198.35,592.15c-.03,5.03-1.22,9.07-4.32,12.37-4.65,4.93-11.46,4.61-15.18-1.04-3.92-5.96-5.11-12.37-1.27-18.98.85-1.47,1.61-3,2.57-4.39,3.41-4.9,9.17-5.36,13.27-.99,3.57,3.8,4.71,8.56,4.92,13.04Z" style="fill: #000; stroke-width: 0px;"/>
  <path d="M161.81,624.34c-.04-8.6,7.58-14.62,15.33-11.77,2.16.8,4.52,2.64,5.53,4.64,1.53,3.02,2.23,6.55,2.78,9.95.51,3.13-.65,6.08-2.45,8.69-4.11,5.96-11.05,6.35-15.82.91-3.56-4.06-5.36-8.21-5.38-12.43Z" style="fill: #000; stroke-width: 0px;"/>
  <path d="M112.19,718.3c-.05-2,1.02-5,3.01-7.67,3.02-4.06,8.14-5.77,12.69-4.31,4.46,1.43,7.86,6.29,7.99,11.66.1,4.65-1.48,8.75-4.7,12.11-4.66,4.86-11.42,4.52-15.64-.75-2.26-2.81-3.27-6.09-3.35-11.04Z" style="fill: #000; stroke-width: 0px;"/>
  <path d="M141.47,532.08c-.04-8.41,6.43-12.64,13.46-9.52,6.49,2.88,10.81,10.79,9.27,17.26-1.1,4.6-3.85,7.9-8.6,8.85-4.65.93-7.91-1.52-10.34-5.21-2.4-3.65-3.61-7.72-3.79-11.38Z" style="fill: #000; stroke-width: 0px;"/>
  <path d="M157.15,611.79c-.04.37-.08,1.18-.22,1.97-.89,5.22-4.48,9.21-8.79,9.82-4.09.58-8.03-1.94-10.5-6.76-1.78-3.47-2.64-7.14-1.98-11.04.99-5.83,6.28-9.07,11.96-7.38,5.63,1.67,9.53,6.97,9.53,13.39Z" style="fill: #000; stroke-width: 0px;"/>
  <path d="M138.68,633.24c.03,4.75-2.57,8.87-6.57,10.41-3.95,1.52-8.34.26-11.53-3.44-2.84-3.3-4.45-7.13-4.35-11.54.15-6.61,5.94-10.79,12.27-8.93,5.43,1.59,10.14,7.84,10.18,13.5Z" style="fill: #000; stroke-width: 0px;"/>
  <path d="M153.89,568.19c.03-9.24,9.54-14.78,17.6-10.23,2.48,1.4,4.07,3.39,3.94,6.44-.04,1.04.08,2.1.26,3.13.63,3.46-.41,6.38-2.73,8.92-3.37,3.69-8.02,5.03-12.04,3.47-4.26-1.65-7.06-6.31-7.05-11.74Z" style="fill: #000; stroke-width: 0px;"/>
  <path d="M107.61,683.59c.18-1.01.32-2.8.83-4.48,1.25-4.11,4.01-6.56,8.38-6.91,4.26-.34,7.69,1.31,9.76,5.01,3.07,5.5,2.65,11.11-.75,16.29-3.05,4.66-9.29,5.18-13.57,1.39-3.14-2.79-4.55-6.38-4.66-11.31Z" style="fill: #000; stroke-width: 0px;"/>
  <path d="M195.64,545.98c-.14,3.25-1.69,6.59-5.32,8.64-3.51,1.98-6.94,1.54-10.31-.6-3.83-2.44-6.52-5.54-6.65-10.32-.13-4.73,2.52-8.45,7.04-9.9,7.39-2.37,15.19,3.44,15.24,12.18Z" style="fill: #000; stroke-width: 0px;"/>
  <path d="M154.85,691.66c.27,3.6-1.24,6.66-3.31,9.36-2.63,3.43-7.62,3.79-11.05.97-3.2-2.63-5.02-6.12-5.39-10.22-.5-5.51,4.05-10.61,9.62-11,5.43-.38,9.7,3.59,10.12,9.44.03.48,0,.97,0,1.45Z" style="fill: #000; stroke-width: 0px;"/>
  <path d="M133.58,583.09c-.04-4.99,2.75-9.5,6.57-10.62,4.01-1.17,8.8,1.06,11.48,5.38,1.95,3.15,2.47,6.47,1,9.96-1.86,4.42-6.38,6.99-10.7,6.15-4.71-.92-8.31-5.61-8.35-10.87Z" style="fill: #000; stroke-width: 0px;"/>
  <path d="M159.57,652.72c5.19.07,9.06,4.29,8.93,9.74-.14,5.71-5.04,10.64-10.52,10.57-5.34-.06-9.38-4.29-9.27-9.72.11-5.51,5.39-10.67,10.86-10.6Z" style="fill: #000; stroke-width: 0px;"/>
  <path d="M141.28,662.99c.04,4.81-3.46,8.91-7.66,8.99-4.47.08-8.38-4.15-8.46-9.15-.07-4.56,3.57-8.55,7.8-8.53,4.48.02,8.28,3.99,8.31,8.69Z" style="fill: #000; stroke-width: 0px;"/>
  <path d="M203.57,564.83c-.04,3.84-4.11,7.44-8.41,7.45-4.04,0-7.14-3.22-7.07-7.36.08-4.46,3.9-8.08,8.41-7.96,4.29.11,7.12,3.26,7.07,7.88Z" style="fill: #000; stroke-width: 0px;"/>
  <path d="M151.65,629.93c4.02,0,7.15,3.03,7.2,6.96.05,3.99-3.61,7.65-7.58,7.57-3.92-.08-6.99-3.21-7.02-7.17-.04-4.04,3.31-7.37,7.41-7.36Z" style="fill: #000; stroke-width: 0px;"/>
  <path d="M107.43,654.09c-.04-3.84,2.7-6.85,6.28-6.89,3.63-.05,6.54,2.97,6.63,6.89.1,4.09-2.72,7.47-6.27,7.51-3.59.05-6.6-3.35-6.64-7.51Z" style="fill: #000; stroke-width: 0px;"/>
  <path d="M169.43,593.54c-.04,3.3-2.79,6.04-6.04,6.04-3.26,0-5.88-2.73-5.89-6.14-.02-3.49,2.69-6.34,6-6.34,3.23,0,5.97,2.98,5.93,6.44Z" style="fill: #000; stroke-width: 0px;"/>
  <path d="M178.36,526.37c.01,3.09-2.45,5.52-5.55,5.48-3.59-.05-6.27-2.9-6.25-6.64.02-3.07,2.02-5.23,4.83-5.22,3.58,0,6.96,3.11,6.97,6.39Z" style="fill: #000; stroke-width: 0px;"/>
  <path d="M149.39,558.23c.05,3.14-2.26,5.59-5.35,5.68-3.18.1-5.98-2.51-6.06-5.63-.08-3.21,2.16-5.54,5.34-5.58,3.44-.04,6.02,2.3,6.07,5.52Z" style="fill: #000; stroke-width: 0px;"/>
  <path d="M147.39,517.05c-1.46-.62-2.98-1-4.19-1.84-2.47-1.71-2.94-5.05-1.26-7.26,1.67-2.2,5.09-2.7,7.35-.83,1.34,1.11,2.52,2.52,3.45,4,.99,1.56.6,3.24-1,4.21-1.27.76-2.79,1.12-4.36,1.72Z" style="fill: #000; stroke-width: 0px;"/>
  <path d="M130.89,608.07c.05,3.07-1.97,5.21-5.05,5.32-2.87.11-5.25-2.2-5.28-5.14-.04-2.89,2.28-5.22,5.21-5.23,2.8,0,5.07,2.23,5.12,5.05Z" style="fill: #000; stroke-width: 0px;"/>
  <path d="M167.72,554.04c-2.68.02-4.88-2.09-4.84-4.67.03-2.48,2.22-4.54,4.75-4.5,2.55.05,4.59,2.15,4.55,4.69-.04,2.49-1.99,4.45-4.46,4.47Z" style="fill: #000; stroke-width: 0px;"/>
  <path d="M350.79,592.74c.1-4.29,1.15-8.31,3.55-11.9,4.26-6.35,11.05-6.12,15.34.15,4.51,6.59,5.54,13.29,1.89,20.51-1.81,3.59-4.48,6.17-8.74,6.37-4.24.19-7.41-1.96-9.28-5.5-1.54-2.92-2.3-6.25-3.41-9.39.21-.08.42-.16.63-.24Z" style="fill: #000; stroke-width: 0px;"/>
  <path d="M387.51,623.67c-.56,6.78-3.27,11.56-7.78,15.2-2.89,2.34-6.31,2.42-9.58.57-4.05-2.3-6.08-5.97-6.42-10.53-.32-4.23.79-8.24,2.74-11.93,1.97-3.72,5.47-5.23,9.54-5.11,4.48.14,7.94,2.3,9.9,6.34.93,1.91,1.23,4.13,1.6,5.45Z" style="fill: #000; stroke-width: 0px;"/>
  <path d="M413.29,719.24c.04-6.92,3.94-12.21,9.2-13.23,5.69-1.1,11.18,2.25,13.51,8.23,2.13,5.5.64,12.42-3.52,16.37-3.8,3.61-9.18,3.92-13.25.61-4.02-3.27-5.69-7.71-5.94-11.99Z" style="fill: #000; stroke-width: 0px;"/>
  <path d="M408.34,531.75c-1.29,3.61-2.23,7.39-3.94,10.79-2.58,5.15-7.25,7.28-11.69,5.97-4.81-1.42-8.39-6.35-7.99-11.71.47-6.3,3.44-11.23,9.26-14.06,7.19-3.5,13.8.79,13.72,8.79.22.08.43.15.65.23Z" style="fill: #000; stroke-width: 0px;"/>
  <path d="M392.02,612.2c.02-7.88,5.62-14,12.2-14.19,4.47-.13,8.16,2.49,9.08,6.85,1.35,6.45-.52,12.08-5.34,16.51-3.81,3.5-9.11,2.99-12.54-.9-2.29-2.59-3.36-5.68-3.4-8.27Z" style="fill: #000; stroke-width: 0px;"/>
  <path d="M432.95,629.94c-.03,3.06-1.42,6.54-3.82,9.63-3.44,4.43-8.53,5.88-12.88,3.76-4.32-2.11-6.75-7.46-5.52-12.6,1.21-5.07,4.43-8.66,9.14-10.65,6.56-2.76,13.03,1.8,13.07,9.86Z" style="fill: #000; stroke-width: 0px;"/>
  <path d="M395.98,568.4c-1.15,2.78-1.92,5.82-3.55,8.28-2.54,3.84-7.35,4.82-11.7,3.02-4.74-1.97-7.86-6.68-7.4-11.16.13-1.29.42-2.58.36-3.86-.16-3.26,1.46-5.36,4.16-6.81,8.09-4.35,17.48,1.16,17.49,10.25.22.09.43.18.65.27Z" style="fill: #000; stroke-width: 0px;"/>
  <path d="M441.56,683.8c0,4.46-1.38,8.15-4.59,11.01-4.9,4.35-11.76,3.02-14.62-2.86-1.83-3.77-2.25-7.74-1.08-11.8,1.49-5.17,5.77-8.32,10.76-7.98,5.18.35,8.4,3.53,9.29,9.19.14.88.18,1.77.25,2.45Z" style="fill: #000; stroke-width: 0px;"/>
  <path d="M353.58,545.04c0-6.59,5.27-11.75,12-11.75,5.96,0,10.34,4.39,10.27,10.28-.07,6.17-6.33,12.34-12.46,12.29-5.52-.04-9.81-4.77-9.8-10.82Z" style="fill: #000; stroke-width: 0px;"/>
  <path d="M403.72,680.74c6.58-.05,11.9,6.38,10.01,12.65-.87,2.89-2.54,5.81-4.6,8.02-3.74,4.03-9.72,2.96-12.52-1.76-2.05-3.46-2.89-7.11-2.09-11.13.9-4.51,4.65-7.75,9.2-7.78Z" style="fill: #000; stroke-width: 0px;"/>
  <path d="M415.6,583.01c-.01,4.79-2.89,9.05-7.14,10.59-3.64,1.32-7.74.04-10.42-3.23-2.9-3.56-3.11-8.27-.56-12.45,2.64-4.31,7.42-6.6,11.45-5.47,3.8,1.06,6.67,5.62,6.66,10.57Z" style="fill: #000; stroke-width: 0px;"/>
  <path d="M400.55,663.45c.04,5.26-4.04,9.48-9.23,9.54-5.69.06-10.55-4.83-10.6-10.69-.05-5.38,3.72-9.48,8.83-9.58,5.62-.11,10.97,5.1,11.01,10.73Z" style="fill: #000; stroke-width: 0px;"/>
  <path d="M424,662.75c-.04,5.03-3.87,9.24-8.38,9.22-4.25-.02-7.72-4.04-7.7-8.92.02-4.83,3.92-8.86,8.47-8.76,4.17.1,7.64,3.95,7.6,8.45Z" style="fill: #000; stroke-width: 0px;"/>
  <path d="M345.57,564.69c.07-4.65,3.11-7.82,7.45-7.74,4.57.08,8.12,3.72,8.05,8.24-.06,4.03-3.09,7.08-7.03,7.09-4.35,0-8.52-3.73-8.47-7.59Z" style="fill: #000; stroke-width: 0px;"/>
  <path d="M397.45,629.94c4.12-.04,7.48,3.21,7.52,7.27.03,3.98-3.21,7.23-7.24,7.25-3.85.02-7.38-3.56-7.43-7.5-.04-3.86,3.14-6.98,7.15-7.02Z" style="fill: #000; stroke-width: 0px;"/>
  <path d="M428.82,654.22c.1-4.07,3.06-7.15,6.76-7.02,3.58.12,6.32,3.23,6.18,7-.16,4.17-3.22,7.5-6.8,7.4-3.46-.1-6.24-3.44-6.14-7.38Z" style="fill: #000; stroke-width: 0px;"/>
  <path d="M391.66,593.41c-.02,3.44-2.6,6.15-5.86,6.16-3.28.01-6.01-2.7-6.06-6.01-.05-3.46,2.67-6.43,5.91-6.46,3.33-.02,6.03,2.81,6.02,6.31Z" style="fill: #000; stroke-width: 0px;"/>
  <path d="M382.62,525.2c0,3.69-2.75,6.6-6.27,6.65-3.08.04-5.59-2.44-5.56-5.48.04-3.28,3.41-6.37,6.98-6.39,2.8,0,4.85,2.2,4.85,5.21Z" style="fill: #000; stroke-width: 0px;"/>
  <path d="M405.26,563.92c-3.1-.02-5.51-2.46-5.5-5.58,0-3.19,2.66-5.72,5.99-5.7,3.12.01,5.54,2.44,5.53,5.54,0,3.12-2.78,5.76-6.02,5.74Z" style="fill: #000; stroke-width: 0px;"/>
  <path d="M408.17,510.91c.01,2.53-1.67,4.63-4.36,5.45-2.59.79-6.21-.05-7.29-1.86-.41-.69-.6-1.71-.47-2.51.35-2.11,4.12-5.56,6.24-5.91,3.17-.52,5.88,1.7,5.89,4.83Z" style="fill: #000; stroke-width: 0px;"/>
  <path d="M418.25,608.31c-.04-2.95,2.23-5.28,5.13-5.29,2.81,0,5.11,2.2,5.2,5,.1,2.92-2.19,5.36-5.05,5.37-3.11.01-5.24-2.03-5.29-5.08Z" style="fill: #000; stroke-width: 0px;"/>
  <path d="M381.56,554.02c-2.47.05-4.51-1.86-4.62-4.31-.12-2.57,2.07-4.79,4.7-4.78,2.5.01,4.54,1.91,4.63,4.32.1,2.57-2.03,4.73-4.72,4.78Z" style="fill: #000; stroke-width: 0px;"/>
  <path d="M168.29,842.58c-.04,5.49-1.28,8.97-5.26,10.75-3.83,1.71-7.07.28-9.98-2.35-2.93-2.64-5.37-5.61-6.45-9.5-1.62-5.82,1.42-12.04,6.78-13.9,5.13-1.78,10.96.88,12.8,6.21,1.12,3.26,1.63,6.73,2.1,8.79Z" style="fill: #000; stroke-width: 0px;"/>
  <path d="M184.44,802.45c.1-4.4.98-8.03,4.22-10.64,2.54-2.05,5.46-2.64,8.42-1.26,4.11,1.91,7.2,5.02,8.63,9.37,1.95,5.91-1.95,12-8.58,13.76-6.02,1.59-10.96-1.63-12.29-8.08-.24-1.18-.31-2.4-.4-3.15Z" style="fill: #000; stroke-width: 0px;"/>
  <path d="M146.62,808.32c0-6.26,4.13-10.43,10.29-10.38,6.19.05,11.56,5.4,11.49,11.46-.07,6.02-5.46,11.42-11.34,11.37-5.7-.06-10.43-5.69-10.43-12.44Z" style="fill: #000; stroke-width: 0px;"/>
  <path d="M158.84,772.12c.46-8.65,8.94-14.16,16.25-10.4,3.03,1.56,4.91,4.09,4.93,7.51.02,4.25-1.37,8.15-4.37,11.24-3.94,4.06-10.75,3.48-13.92-1.33-1.37-2.08-1.95-4.66-2.9-7.02Z" style="fill: #000; stroke-width: 0px;"/>
  <path d="M195.97,777.11c.38-5.06,3.37-9.2,7.74-10.33,5.8-1.49,11.04,2.97,10.43,8.9-.16,1.61-.29,3.22-.62,4.8-.79,3.85-3.62,6.82-6.85,7.36-3.32.55-6.79-1.23-8.71-4.87-.95-1.81-1.35-3.9-2-5.87Z" style="fill: #000; stroke-width: 0px;"/>
  <path d="M167.99,877.1c-7-.2-10.99-4.54-10.04-11,.45-3.04,2.06-5.25,5.04-6.24,1.45-.48,2.95-.91,4.45-1.11,5.71-.75,9.76,2.71,10.02,8.42.25,5.74-3.89,10.09-9.47,9.93Z" style="fill: #000; stroke-width: 0px;"/>
  <path d="M202.55,826.92c0,6.25-3.51,10.6-8.58,10.61-4.72.02-8.62-4.14-8.67-9.25-.06-5.68,4.01-10.29,9.09-10.3,4.75-.01,8.16,3.73,8.16,8.94Z" style="fill: #000; stroke-width: 0px;"/>
  <path d="M177.27,812.34c3.87.03,7.01,3.39,7.02,7.5,0,3.97-2.97,7.08-6.77,7.05-3.9-.02-7.21-3.38-7.24-7.33-.03-3.9,3.22-7.25,6.99-7.22Z" style="fill: #000; stroke-width: 0px;"/>
  <path d="M178.5,848.92c-3.92-.2-7-3.59-6.74-7.43.26-3.84,3.52-6.68,7.39-6.45,3.93.23,7.05,3.63,6.81,7.41-.24,3.69-3.67,6.67-7.46,6.47Z" style="fill: #000; stroke-width: 0px;"/>
  <path d="M180.99,794.64c.06,3.72-3.01,6.92-6.66,6.92-4,0-7.49-3.3-7.49-7.08,0-3.64,2.95-6.54,6.67-6.59,3.96-.05,7.42,3.07,7.48,6.75Z" style="fill: #000; stroke-width: 0px;"/>
  <path d="M158.37,744.75c3.44.07,6.16,3.54,6.05,7.73-.09,3.34-2.47,5.78-5.6,5.74-3.61-.05-6.6-3.39-6.55-7.32.05-3.54,2.7-6.22,6.1-6.15Z" style="fill: #000; stroke-width: 0px;"/>
  <path d="M194.46,776.36c-.02,3.32-2.59,6.01-5.7,5.98-2.96-.03-5.19-2.53-5.2-5.83-.01-3.31,2.53-5.97,5.7-5.96,2.96.01,5.22,2.54,5.21,5.81Z" style="fill: #000; stroke-width: 0px;"/>
  <path d="M177.86,859.14c-.03-3.13,2.37-5.5,5.54-5.47,2.95.03,5.44,2.44,5.52,5.35.08,3.07-2.36,5.58-5.45,5.6-3.08.03-5.57-2.42-5.6-5.48Z" style="fill: #000; stroke-width: 0px;"/>
  <path d="M380.9,842.45c.43-1.88.93-5.35,2.04-8.62,1.71-5.04,7.14-7.77,12.1-6.49,5.16,1.33,8.78,6.84,7.83,12.4-1.04,6.17-4.72,10.7-10.15,13.46-5.95,3.02-11.89-1.76-11.82-10.76Z" style="fill: #000; stroke-width: 0px;"/>
  <path d="M364.78,802.05c-.07.72-.11,1.45-.21,2.17-.71,5.39-3.48,8.82-7.8,9.67-4.47.88-9.83-1.57-12.29-5.63-2.41-3.97-1.93-8.71,1.38-12.6,1.09-1.29,2.29-2.53,3.62-3.57,5.19-4.04,11.65-2.33,14.1,3.79.76,1.92.99,4.05,1.46,6.09-.08.02-.16.05-.25.07Z" style="fill: #000; stroke-width: 0px;"/>
  <path d="M380.79,809.4c-.06-6.01,5.36-11.44,11.48-11.51,6-.07,10.23,4.09,10.33,10.16.11,6.78-4.73,12.66-10.46,12.71-5.94.05-11.28-5.31-11.34-11.36Z" style="fill: #000; stroke-width: 0px;"/>
  <path d="M378.79,760.64c6.29-.03,10.98,4.65,11.05,11.04.07,6.32-4.26,11.38-9.79,11.42-5.96.05-10.98-6.11-10.93-13.41.03-5.18,4.15-9.03,9.67-9.05Z" style="fill: #000; stroke-width: 0px;"/>
  <path d="M353.31,776.75c-.45,3.41-1.54,6.19-3.81,8.5-3.99,4.07-9.54,3.5-12.49-1.37-2.05-3.4-2.38-7.26-1.81-11.01.51-3.39,3.02-5.48,6.4-6.16,3.89-.78,7.11.69,9.23,3.89,1.2,1.8,1.67,4.09,2.47,6.15Z" style="fill: #000; stroke-width: 0px;"/>
  <path d="M381.08,877.11c-5.19.12-9.25-3.78-9.4-9.04-.15-5.23,3.38-9.65,7.97-9.46,7.79.32,11.51,2.9,11.68,8.78.17,5.99-3.67,9.56-10.24,9.72Z" style="fill: #000; stroke-width: 0px;"/>
  <path d="M346.64,827.76c-.02-5.35,2.52-8.83,6.56-9.64,4.18-.84,8.38,1.57,9.86,5.99.6,1.78.83,3.83.62,5.69-.47,4.31-4.04,7.54-8.06,7.73-4.12.2-7.56-2.61-8.57-7.08-.25-1.1-.34-2.23-.4-2.7Z" style="fill: #000; stroke-width: 0px;"/>
  <path d="M371.97,812.34c3.7-.02,6.84,3.17,6.92,7.03.08,4.06-3.26,7.51-7.28,7.51-3.77,0-6.78-3.16-6.75-7.1.04-4.05,3.26-7.42,7.11-7.44Z" style="fill: #000; stroke-width: 0px;"/>
  <path d="M377.41,841.83c.02,3.91-3.17,7.11-7.09,7.1-3.87,0-7.08-3.1-7.09-6.82-.01-3.84,3.2-7.03,7.15-7.09,3.87-.06,7.01,2.98,7.04,6.82Z" style="fill: #000; stroke-width: 0px;"/>
  <path d="M382.33,794.46c-.04,3.93-3.61,7.2-7.73,7.09-3.56-.1-6.48-3.24-6.41-6.9.07-3.72,3.47-6.79,7.47-6.76,3.76.03,6.71,2.93,6.67,6.57Z" style="fill: #000; stroke-width: 0px;"/>
  <path d="M396.88,751.06c-.06,3.99-3.06,7.21-6.7,7.17-3.19-.03-5.54-2.68-5.45-6.14.1-4.12,2.83-7.35,6.23-7.34,3.41.01,5.98,2.75,5.92,6.31Z" style="fill: #000; stroke-width: 0px;"/>
  <path d="M365.64,776.42c0,3.41-2.3,5.9-5.41,5.86-3.04-.03-5.52-2.65-5.56-5.85-.03-3.26,2.22-5.83,5.16-5.88,3.17-.05,5.81,2.62,5.81,5.87Z" style="fill: #000; stroke-width: 0px;"/>
  <path d="M365.91,864.61c-3.12.06-5.61-2.35-5.61-5.43,0-3.06,2.46-5.49,5.58-5.51,2.93-.02,5.48,2.41,5.56,5.3.08,2.89-2.56,5.58-5.53,5.64Z" style="fill: #000; stroke-width: 0px;"/>
  <path d="M325.78,856.22c-3.34-.04-5.98-2.73-5.95-6.06.03-3.59,3.49-7.12,6.97-7.1,3.26.02,5.92,2.78,5.89,6.13-.03,3.78-3.26,7.08-6.91,7.03Z" style="fill: #000; stroke-width: 0px;"/>
  <path d="M229.32,850.02c.06,3.49-2.59,6.22-6.04,6.21-3.58,0-6.66-3.16-6.74-6.9-.07-3.4,2.47-6.2,5.71-6.28,3.51-.08,6.99,3.36,7.06,6.97Z" style="fill: #000; stroke-width: 0px;"/>
  <path d="M312.97,857.43c2.94,0,5.51,2.46,5.54,5.32.04,3.24-2.72,5.87-6.15,5.86-3.21,0-5.27-1.98-5.28-5.06-.01-3.41,2.6-6.12,5.89-6.12Z" style="fill: #000; stroke-width: 0px;"/>
  <path d="M236.76,868.61c-3.36,0-5.99-2.48-6.03-5.68-.04-3.09,2.38-5.5,5.53-5.51,3.28,0,5.88,2.75,5.81,6.17-.06,3.11-2.09,5.03-5.31,5.02Z" style="fill: #000; stroke-width: 0px;"/>
  <path d="M297.37,869.88c-3.25-.16-5.95-2.85-5.73-5.71.2-2.65,2.54-4.55,5.41-4.43,3.15.14,5.68,2.67,5.58,5.58-.1,2.66-2.44,4.7-5.26,4.56Z" style="fill: #000; stroke-width: 0px;"/>
  <path d="M252.43,859.74c2.89.03,5.09,2.09,5.07,4.76-.02,2.91-2.82,5.42-6.05,5.39-2.8-.02-5.02-2.22-4.93-4.9.09-2.87,2.81-5.29,5.91-5.25Z" style="fill: #000; stroke-width: 0px;"/>
  <path d="M287.38,853.67c-.01,2.64-2.27,4.78-5.06,4.8-2.74.02-4.79-2.01-4.75-4.7.04-2.74,2.22-4.82,5.02-4.8,2.73.01,4.81,2.05,4.8,4.71Z" style="fill: #000; stroke-width: 0px;"/>
  <path d="M266.71,858.47c-2.83-.09-4.93-2.2-4.89-4.92.04-2.67,2.13-4.63,4.88-4.58,2.78.04,4.91,2.2,4.87,4.93-.03,2.7-2.12,4.65-4.86,4.57Z" style="fill: #000; stroke-width: 0px;"/>
  <path d="M122.5,383.45c-4.14.03-6.85-2.41-6.86-6.2-.02-4.34,3.07-7.62,7.14-7.58,3.69.03,6.41,3,6.48,7.08.07,3.86-2.76,6.67-6.76,6.7Z" style="fill: #000; stroke-width: 0px;"/>
  <path d="M158.76,403.35c-4.51-.06-7.97-3.74-7.91-8.42.05-4.38,3.45-7.67,7.8-7.56,4.6.12,8.19,3.91,8.12,8.57-.06,4.19-3.6,7.47-8,7.41Z" style="fill: #000; stroke-width: 0px;"/>
  <path d="M426.87,383.45c-3.99.05-6.89-2.63-6.98-6.45-.09-4.05,2.71-7.25,6.43-7.33,4.13-.09,7.13,3.1,7.21,7.69.06,3.55-2.66,6.04-6.67,6.09Z" style="fill: #000; stroke-width: 0px;"/>
  <path d="M398.31,395c-.02,4.76-3.4,8.32-7.95,8.35-4.37.04-7.92-3.3-7.97-7.47-.05-4.7,3.8-8.58,8.46-8.51,4.27.06,7.48,3.34,7.46,7.63Z" style="fill: #000; stroke-width: 0px;"/>
</svg>