<?xml version="1.0" encoding="UTF-8"?>
<svg id="Layer_1" data-name="Layer 1" xmlns="http://www.w3.org/2000/svg" viewBox="0 0 685.75 900">
  <path d="M238.69,841.33c-.43,1.57-.74,2.37-.85,3.19-2.32,16.41-7.62,31.91-14.36,46.97-3.94,8.79-11.31,11.08-18.96,5.23-15.93-12.19-29.34-26.53-37.27-45.35-2.13-5.04-4.4-10.03-6.63-15.03-.2-.46-.54-.86-1-1.58-.53.81-.95,1.34-1.24,1.93-3.91,8.01-7.91,15.98-11.67,24.07-3.76,8.09-8.74,15.39-14.24,22.31-6.23,7.84-15.66,7.03-20.95-1.71-6.36-10.5-10.79-21.86-13.91-33.73-6.74-25.62-10.81-51.75-14.98-77.87-2.24-14.05-3.65-28.25-7.42-42.04-1.07-3.9-1.2-8.04-1.93-12.04-.95-5.15-1.86-10.32-3.19-15.38-1.88-7.16-3.13-14.36-3.02-21.78.1-7.46-.97-14.76-2.09-22.14-1.35-8.94-1.84-18.05-2.07-27.1-.44-18.07-.57-36.14,2.66-54.05,1.22-6.76,3.56-12.94,7.82-18.36,3.73-4.74,7.32-9.59,12.93-12.39,7.96-3.97,15.73-4.06,23.42.79,7.42,4.68,14.03,10.18,19.09,17.45,1.28,1.85,2.91,3.48,4.54,5.05,1.6,1.55,2.34,1.31,3.33-.68,4.37-8.74,8.59-17.58,13.17-26.21,10.86-20.46,23.77-39.48,39.14-56.9,12.31-13.95,24.77-27.86,34.91-43.55,3.41-5.28,6.2-11.08,8.51-16.93,1.46-3.69,1.78-7.92,2.13-11.95,1.12-13.07-1.9-25.2-8.01-36.82-8.04-15.3-19.2-28.01-31.95-39.31-17.68-15.66-35.66-31-53.71-46.23-23.99-20.25-48.78-39.44-74.86-56.97-12.98-8.72-25.77-17.75-38.34-27.05-8.71-6.44-16.36-14.08-22.2-23.35-5.61-8.9-7.48-18.14-2.92-28.08,2.28-4.95,5.75-8.99,10.06-12.19,3.05-2.26,4.73-5.05,5.39-8.69,2.28-12.66,7.14-24.43,12.52-36.01.95-2.05,1.9-4.14,2.53-6.31,3.73-12.86,11.12-23.75,18.76-34.45,4.37-6.11,7.56-12.54,8.45-20.06,1.05-8.85,2.29-17.67,3.31-26.53.16-1.38-.55-2.84-.65-4.28-.09-1.31-.38-3.07.31-3.84.8-.9,2.79-1.6,3.88-1.24,5.03,1.64,9.58,3.78,11.25,9.75,2.65,9.48,5.71,18.85,8.88,28.17,1.61,4.73,3.55,9.4,5.89,13.8,4.67,8.8,11.67,15.69,19.66,21.42,5.06,3.62,11.21,3.21,17.04,2.12,12.47-2.33,23.72-7.75,34.6-14.11,15.67-9.15,31.18-18.63,48.01-25.61,22.78-9.44,45.81-10.51,69.14-2.06,6.99,2.53,12.76,6.89,18.25,11.72,5.19,4.57,10.85,8.19,17.96,8.99,3.68.42,6.74-.61,9.38-3.24,5.69-5.66,9.05-11.95,8.26-20.48-.75-8.15-.67-16.43,1.59-24.48,1.24-4.41,4.09-6.12,8.3-4.46,1.22.48,2.47,2.09,2.8,3.41.96,3.77,1.81,7.64,2.04,11.51.32,5.45.25,10.95-.02,16.42-.44,9.02,4.48,15.05,11.03,20.04,1.48,1.13,4.01,1.33,6.03,1.25,5.22-.21,9.86-2.31,14.05-5.37,1.71-1.24,3.4-2.52,4.94-3.96,11.87-11.07,26.34-15.49,42.11-16.75,20.67-1.65,39.75,3.7,57.73,13.37,13.23,7.11,26.24,14.62,39.31,22.03,9.04,5.13,18.51,9.12,28.67,11.43,9.79,2.23,18,.31,25.52-7.04,8.87-8.68,15.2-18.59,18.99-30.26,2.77-8.55,5.44-17.13,8.16-25.7.38-1.19.8-2.37,1.15-3.57,1.6-5.47,6.39-6.94,10.98-8.43.99-.32,2.94.5,3.59,1.41.63.88.26,2.55.15,3.86-.09,1.06-.72,2.12-.63,3.14.52,5.68,1.14,11.35,1.83,17.02.38,3.1,1.12,6.17,1.42,9.28.8,8.38,4.44,15.38,9.27,22.18,7.47,10.51,14.53,21.3,18.31,33.92,1.65,5.51,4.24,10.77,6.76,15.97,3.82,7.89,6.15,16.23,7.92,24.73.89,4.24,2.48,7.62,6.08,10.35,6.79,5.16,11.13,11.97,12.1,20.67.78,6.99-1.63,13.08-5.15,18.87-6.29,10.35-15.02,18.46-24.66,25.48-13.08,9.53-26.48,18.64-39.86,27.76-25.11,17.12-49.07,35.75-72.25,55.37-17.61,14.91-35.17,29.89-52.45,45.18-12.65,11.2-23.83,23.72-31.73,38.89-3.94,7.56-7.28,15.34-8.16,23.84-.92,8.89-1,17.91,2.16,26.42,2.72,7.33,6.32,14.37,11.29,20.48,12.18,14.99,24.34,30.01,36.85,44.72,10.53,12.4,19.81,25.66,27.82,39.74,6.99,12.29,13.12,25.08,19.6,37.67,1.07,2.07,1.81,2.35,3.44.54,3.2-3.53,6.15-7.28,9.29-10.87,4.86-5.55,10.74-9.94,17.3-13.08,8.81-4.22,17.39-2.38,24.53,3.78,8.97,7.74,14.98,17.29,16.74,29.51,3.6,25.03,3.48,50.11.95,75.13-1.04,10.33-2.69,20.56-2.94,30.99-.14,5.64-1.71,11.25-2.77,16.85-.55,2.92-1.55,5.75-2.06,8.67-3.15,17.94-6.23,35.9-9.33,53.85-3.62,20.97-6.92,42-10.96,62.89-2.15,11.11-5.06,22.14-8.57,32.9-2.51,7.67-6.56,14.85-9.99,22.21-.55,1.19-1.38,2.29-2.22,3.3-4.7,5.66-11.92,6.24-17.41,1.33-1.44-1.29-2.66-2.86-3.83-4.42-6.18-8.23-11.3-17.04-15.3-26.57-2.57-6.12-5.91-11.91-8.92-17.83-.23-.44-.63-.8-1.22-1.53-.52,1.23-.9,2.13-1.29,3.03-5.27,11.95-10.2,24.05-18.25,34.57-7.39,9.67-16.28,17.77-25.96,24.97-6.88,5.12-14.18,2.85-17.74-4.94-6.92-15.16-12.31-30.79-14.67-47.36-.14-.97-.46-1.91-.7-2.86l-1.11-.8c-.36.77-.55,1.7-1.1,2.3-4.26,4.67-8.05,9.97-13,13.76-11.77,9.01-24.92,11.95-38.99,5.54-8.37-3.81-14.96-10.07-20.34-17.36-7.59-10.31-15.72-20.06-25.27-28.62-1.51-1.35-2.37-3.42-3.58-5.12-.28-.39-.73-.66-1.1-.99-.29.33-.6.65-.87,1-1.62,2.16-2.95,4.64-4.91,6.43-8.12,7.43-15.39,15.58-21.7,24.59-3.89,5.56-8.58,10.34-13.82,14.62-15.39,12.56-33.98,11.23-49.21-1.22-3.65-2.99-6.53-6.91-9.74-10.43-1.13-1.25-2.18-2.58-3.75-4.44ZM72.55,33.58c-.2.03-.4.06-.6.08-.19.79-.41,1.57-.56,2.37-.71,3.69-1.23,7.42-2.13,11.06-1.4,5.65-3.46,10.99-7.18,15.65-3.16,3.96-6.1,8.12-8.86,12.37-6.02,9.29-10.27,19.33-11.75,30.39-.85,6.35-1.47,12.74-2.27,19.1-.37,2.9-.08,3.22,2.79,2.38,20.2-5.94,40.89-9.48,61.8-11.17,18.23-1.48,36.56-1.6,54.85-2.37,1.44-.06,3.17-.14,4.23-.94,7.3-5.5,15.41-9.54,23.51-13.63,5.54-2.8,9.94-6.92,13.08-12.38,5.19-9.03,12.91-15.71,22.45-19.14,17.16-6.17,34.55-5.76,51.36,1.89,3.74,1.7,7.1,4.25,10.57,6.5,3.1,2,6.16,4.15,10.01,4.27,6.54.21,13.09.27,19.63.36,3.33.05,6.67.25,9.42,2.3,5.38,3.99,9.9,8.79,11.45,15.55,1.25,5.48,2.22,11.04,2.93,16.61.53,4.15.62,8.38.57,12.57-.04,3.13-1.76,5.56-4.19,7.55-4.91,4.02-10.43,5.12-16.53,3.7-5.63-1.31-11.26-2.64-16.89-3.94-15.3-3.51-30.86-5.14-46.45-6.52-28.16-2.49-56.37-2.99-84.65-2.37-27.74.61-55.32,2.64-82.75,6.74-16.21,2.42-32.21,5.7-47.34,12.3-6.42,2.8-12.58,6.02-17.52,11.12-4.61,4.76-5.12,9.63-1.36,15.05,2.49,3.59,5.2,7.08,8.2,10.25,10.9,11.51,23.17,21.45,35.89,30.87,15.02,11.13,30.26,22,44.86,33.66,22.63,18.05,44.86,36.59,67.14,55.07,12.58,10.43,25.22,20.82,37.3,31.81,16.18,14.73,28.29,32.32,34.81,53.45.67,2.16,1.22,2.34,3.17.95,4.64-3.32,9.26-6.68,13.86-10.07,21.41-15.76,44.77-28.4,67.43-42.17,2.92-1.77,5.84-3.47,9.45-1.99.33.14.82.13,1.15,0,3.43-1.42,6.23.16,9.04,1.81,8.56,5.03,17.13,10.06,25.7,15.09,19.25,11.31,37.79,23.66,55.64,37.06,2.35,1.77,2.86,1.59,3.67-1.18,3.11-10.63,8.31-20.24,14.35-29.43,9.08-13.83,20.99-25.06,33.49-35.62,16.5-13.92,33.31-27.47,50.04-41.11,22.37-18.24,44.27-37.07,67.69-54,14.64-10.58,29.5-20.89,42.9-33.1,7.19-6.55,14.24-13.2,19.65-21.35,3.7-5.56,3.19-10.23-1.42-15.04-3.96-4.13-8.78-7.02-13.89-9.47-12.81-6.14-26.41-9.74-40.33-12.17-26.78-4.68-53.78-7.31-80.96-8.19-37.19-1.21-74.31-.81-111.33,3.46-13.54,1.56-26.99,3.42-40.15,7.17-4.48,1.27-9.19,2.04-13.84,2.35-7,.48-14.43-4.36-15.55-10.09-.66-3.39-.67-7-.37-10.47.4-4.74,1.39-9.43,2.09-14.15.68-4.61,1.71-9.19,4.42-13.01,3.54-4.99,7.4-10.07,14.1-10.73,6.43-.64,12.95-1.04,19.38-.71,5.11.26,9.42-.98,13.41-3.85,9.14-6.57,18.72-11.39,30.43-12.17,9.74-.65,19.24-.71,28.57,2.1,10.23,3.08,18.22,9.43,24.46,18.03,1.64,2.27,2.98,4.77,4.74,6.93,3.9,4.79,9.26,7.52,14.65,10.32,5.82,3.02,11.46,6.41,16.97,9.97,2.15,1.39,4.12,2.21,6.68,2.18,18.87-.2,37.73.41,56.49,2.43,20.32,2.19,40.49,5.34,60.14,11.21,2.26.68,2.67.22,2.38-2.06-.54-4.27-.75-8.59-1.54-12.81-1.38-7.37-2.25-14.99-4.89-21.92-3.69-9.7-9.15-18.62-15.75-26.8-2.65-3.28-4.94-7.14-6.32-11.1-1.86-5.35-2.69-11.07-3.96-16.62-.18-.78-.37-1.56-.55-2.34-.91.71-1.28,1.45-1.59,2.21-5.61,14.04-12.37,27.38-23.34,38.16-2.78,2.74-5.15,5.95-8.16,8.39-8.07,6.53-17.41,7.02-27.17,5.06-13.54-2.72-26.26-7.66-38.43-14.09-13.97-7.39-27.86-14.93-41.84-22.28-17.71-9.31-36.43-11.21-55.87-7.15-9.91,2.07-18.81,5.92-25.84,13.74-2.96,3.29-6.92,5.91-10.84,8.08-13.53,7.49-26.65,4.62-35.77-7.47-1.96-2.6-1.99-2.6-3.9,0-8.14,11.1-19.93,14.35-32.62,9.01-5.94-2.5-11.09-6.14-15.41-10.88-3.78-4.13-8.26-7.11-13.44-9.17-11.9-4.74-24.27-5.79-36.9-5.01-12.39.77-23.58,5.29-34.36,11.05-11.59,6.19-23.12,12.5-34.72,18.68-12.83,6.82-26.12,12.41-40.45,15.35-10.72,2.2-21.08,1.89-29.24-6.16-6.65-6.56-12.98-13.68-18.14-21.43-4.89-7.35-8.07-15.85-12-23.84-.35-.72-.7-1.43-1.05-2.15ZM487.5,821.27c.23.05.47.09.7.14.53-.74,1.12-1.44,1.57-2.22,2.18-3.8,4.33-7.61,6.48-11.43,2.24-3.98,4.52-8.11,8.67-10.27,10.56-5.49,21.59-8.85,33.59-5.26,2.98.89,5.64.61,7.91-1.39,1.49-1.31,2.91-2.87,3.87-4.6,3.58-6.46,4.49-13.52,3.51-20.71-1.06-7.79-2.12-15.62-8.09-21.73-9.17-9.4-18.01-19.13-27.21-28.51-9.51-9.7-17.56-20.43-23.17-32.79-7.48-16.47-18.05-30.54-31.92-42.07-14.67-12.2-29.23-24.58-44.42-36.11-17.63-13.38-35.86-25.96-53.91-38.78-6.69-4.75-13.56-9.24-20.43-13.73-.81-.53-2.38-.76-3.15-.33-3.76,2.08-7.5,4.25-11,6.73-9.58,6.78-19.01,13.76-28.54,20.6-10.93,7.85-22.19,15.27-32.8,23.52-15.18,11.81-29.88,24.25-44.82,36.37-14.84,12.04-26.22,26.68-34.15,44.11-5.52,12.14-13.45,22.68-22.78,32.21-8.92,9.11-17.67,18.38-26.45,27.61-1.61,1.69-3.58,3.3-4.48,5.35-3.24,7.36-5.26,15.09-4.96,23.22.21,5.77,1.34,11.34,4.49,16.33,2.79,4.43,6.58,5.76,11.61,4.56,3.16-.76,6.49-1.51,9.67-1.28,4.65.35,9.27,1.4,13.83,2.48,8.77,2.08,15,7.29,18.9,15.5,1.84,3.87,4.22,7.49,6.39,11.21.33.56.81,1.03,1.51,1.92.37-1.11.59-1.74.79-2.38,1.35-4.24,2.39-8.62,4.15-12.7,1.75-4.06,4.03-7.94,6.41-11.68,1.86-2.92,4.6-5.01,8.32-4.95,7.13.12,13.55,2.32,19.53,6.3,8.21,5.47,16.77,10.35,26.11,13.71,7.03,2.53,13.69,1.51,20.03-2.14,3.73-2.14,7.24-4.71,11.09-6.59,9.04-4.39,18.56-7.33,28.57-8.81-1.66-.29-3.34-.54-5.03-.57-28.99-.45-57.8-3.01-86.49-7.16-11.66-1.68-23.11-4.05-33.98-8.75-2.5-1.08-5.05-2.18-7.69-2.75-7.68-1.66-9.65-4.49-7.17-11.97,5.61-16.9,13.66-32.31,26.75-44.87,12.76-12.25,26.78-22.86,41.36-32.73,19.5-13.2,39.25-26.02,59.88-37.45,7.73-4.28,15.23-8.96,22.91-13.34,2.86-1.63,5.76-1.05,7.18,1.05,1.46,2.15.84,4.95-1.76,7-6.26,4.94-12.41,10.06-18.93,14.64-7.94,5.57-16.2,10.67-24.35,15.93-1.4.91-2.19,1.88-1.62,3.66,2.57,8.05,5.08,16.12,7.64,24.17.23.73.71,1.38,1.26,2.44.64-1.26.99-2.03,1.41-2.77,2.41-4.24,7.3-4.61,10.22-.71.93,1.24,1.6,2.68,2.38,4.04.4.69.76,1.41,1.14,2.11.51-.66.6-1.17.6-1.68.06-7.5.05-15,.19-22.5.06-3.49,1.62-5.6,4.24-6.31,2.56-.69,5.42.53,7.04,3.47,1.47,2.66,2.91,5.43,3.7,8.33,1.35,4.95,4.95,8.26,7.98,11.99.29.36,1.65.44,1.89.14,2.84-3.49,6.28-6.52,7.78-11.03,1.11-3.32,2.55-6.56,4.22-9.63,1.55-2.85,4.39-3.94,6.9-3.24,2.54.7,4.08,2.71,4.16,6.11.18,7.34.19,14.69.26,22.03,0,.77,0,1.55,0,2.32,1.58-1.89,2.51-3.88,3.71-5.68,3.04-4.56,8.41-4.14,10.83.78.35.71.71,1.41,1.32,2.63.6-1.46,1.02-2.29,1.3-3.17,2.41-7.6,4.73-15.24,7.24-22.81.78-2.34.31-3.72-1.83-5.02-14.59-8.86-28.66-18.48-41.81-29.4-1.01-.84-2.31-1.69-2.72-2.82-.51-1.4-.66-3.21-.22-4.62.55-1.78,2.39-2.59,4.21-2.27,1.65.29,3.32.92,4.77,1.76,3.53,2.02,6.85,4.41,10.4,6.38,18.08,9.99,35.91,20.4,53.17,31.78,18.76,12.37,37.31,24.95,54.21,39.86,15.63,13.79,25.77,30.86,31.73,50.59,1.84,6.08.15,8.73-5.92,10.4-.45.12-.92.18-1.37.32-1.85.59-3.7,1.2-5.55,1.81-7.56,2.48-15.01,5.47-22.73,7.31-8.04,1.91-16.33,2.85-24.54,3.97-24.83,3.39-49.79,5.22-74.85,5.66-1.81.03-3.62.26-5.77.42,4.55,1.06,8.68,1.9,12.75,2.98,9.84,2.62,18.81,7.05,27.35,12.63,6.03,3.94,12.83,4.56,19.79,2.09,8.69-3.08,16.6-7.7,24.35-12.57,5.74-3.61,11.39-6.72,18.48-7.25,5.17-.39,8.57,1.23,11.44,5.12,5.12,6.94,7.8,14.92,9.99,23.12.23.87.5,1.74.75,2.61ZM139.39,724.57c1.17-1.3,2.4-2.48,3.42-3.83,5.81-7.66,11.67-15.29,17.33-23.06,4.74-6.49,9.79-12.78,13.15-20.21,4.83-10.7,11.68-20.15,18.86-29.35,14.18-18.19,31.38-33.11,50.32-46.11,22.26-15.28,44.85-30.05,68.42-43.24,9.82-5.49,19.88-10.55,29.9-15.66,1.06-.54,2.83-.55,3.91-.03,7.53,3.63,15.11,7.2,22.41,11.27,23.11,12.87,45.55,26.86,67.45,41.7,16.07,10.89,31.87,22.13,45.27,36.39,12.7,13.52,24.17,27.89,32.43,44.63,1.56,3.15,3,6.42,5.05,9.25,8.2,11.34,16.6,22.53,24.98,33.75,1.18,1.59,2.61,2.99,4.11,4.7,1.06-1.72,1.83-3.06,2.68-4.35,5.41-8.16,7.58-17.27,7.7-26.9.04-3.5-.63-7-.97-10.51-1-10.41-.68-20.93-3.14-31.24-3.34-13.99-6.19-28.1-9.39-42.13-.3-1.3-1.29-2.86-2.41-3.48-10.2-5.62-16.8-15.03-23.8-23.67-7.8-9.62-15.26-19.56-24.62-27.62-12.85-11.06-25.97-21.94-39.82-31.68-14.63-10.28-30.09-19.43-45.5-28.55-19.25-11.4-38.94-22.05-58.14-33.52-4.68-2.8-7.67-2.82-12.36,0-18.1,10.87-36.59,21.1-54.92,31.59-25.28,14.47-50.18,29.5-72.31,48.67-6.03,5.22-12.82,9.68-18.25,15.44-10.49,11.13-20.32,22.88-30.29,34.49-4.75,5.54-9.45,11.03-15.92,14.73-1.23.7-2.28,2.44-2.6,3.89-3.29,14.41-6.5,28.84-9.51,43.3-1.01,4.88-1.51,9.87-1.99,14.84-.63,6.54-1.15,13.09-1.46,19.65-.21,4.51-.43,9.1.16,13.54,1.12,8.47,4.16,16.3,9.84,23.3ZM359.36,808.2c.68.74.85,1.01,1.09,1.16,8,4.92,14.12,11.75,19.84,19.08,4.46,5.72,8.93,11.56,14.16,16.53,6.63,6.3,14.72,8.17,23.7,4.96,6-2.14,10.89-5.7,15.02-10.47,2.81-3.25,5.61-6.54,8.67-9.55,3.61-3.54,7.74-3.59,11.57-.31,1.4,1.2,2.87,2.66,3.51,4.31,1.55,3.97,3.12,8.05,3.81,12.23,2.14,13.04,5.41,25.71,10.81,37.8.3.67.7,1.3,1.17,2.16.71-.6,1.2-.96,1.62-1.38,3.94-3.92,7.78-7.94,11.82-11.74,6.45-6.08,11.66-13.11,15.89-20.81,4.89-8.91,9.43-18.01,14.13-27.03,1.91-3.66,4.17-7.02,8.85-7.02,4.68,0,7.4,3.12,9.35,6.84,2.94,5.61,5.85,11.26,8.33,17.07,4.66,10.91,10.22,21.29,16.88,31.09.67.99,1.46,1.9,2.42,3.15.63-.99,1.1-1.52,1.34-2.13,2.14-5.29,4.72-10.45,6.25-15.91,3.28-11.74,6.44-23.55,8.84-35.49,2.61-12.95,4.23-26.09,6.43-39.13,2.93-17.35,6-34.68,9.03-52.02,1.9-10.86,3.36-21.83,5.89-32.55,2.27-9.64,3.9-19.28,4.81-29.12.72-7.85,2.55-15.62,3.1-23.48.83-11.69.64-23.45,1.48-35.14.88-12.16-.98-24.04-2.67-35.96-.97-6.86-4.94-11.89-10.47-15.75-2.36-1.65-4.81-1.55-7.19.22-2.63,1.96-5.38,3.76-8,5.73-2.49,1.88-4.93,3.83-7.28,5.87-4.84,4.19-9.52,8.57-14.46,12.63-1.84,1.52-2.47,2.77-1.75,5.15,4.1,13.43,7.09,27.05,7.95,41.15.54,8.81,1.74,17.59,2.83,26.36,1.02,8.21,2.66,16.36,3.38,24.6,1.51,17.16-1.95,32.98-13.78,46.28-2.78,3.13-2.62,6.89-1.15,10.62,1.98,5.02,4.37,9.91,5.94,15.05,4.04,13.24,3.81,26.27-2.14,39.12-3.31,7.16-14.94,14.43-22.26,11.42-6.09-2.5-11.92-1.34-17.91.24-5.39,1.42-9.3,4.4-12.11,9.24-4.03,6.96-8.34,13.76-12.62,20.57-.99,1.57-2.13,3.13-3.5,4.37-4.7,4.27-10.79,3.12-13.72-2.49-.58-1.1-1.01-2.29-1.42-3.47-1.49-4.29-2.64-8.72-4.47-12.85-2.4-5.41-5.29-10.61-8.05-15.86-.72-1.38-1.95-1.77-3.36-.86-1.84,1.18-3.82,2.18-5.47,3.58-7.09,6.04-14.3,11.78-22.63,16.19-13.55,7.18-26.61,6.92-39.21-1.6-7.82-5.29-16.45-8.64-25.1-12.06-2.75-1.09-5.7-1.31-9.23-.59ZM326.46,808.34c-1.41-.25-2.23-.59-2.99-.49-2.47.33-5.04.47-7.34,1.32-9.32,3.46-18.14,7.85-26.61,13.22-9.78,6.2-20.67,6.93-31.49,2.49-9.94-4.07-18.56-10.28-26.55-17.42-1.96-1.75-4.29-3.1-6.47-4.6-1.77-1.22-2.99-.59-4.02,1.14-3.76,6.33-7.31,12.72-9.32,19.91-1.13,4.05-2.59,8.07-4.41,11.86-2.75,5.7-9.07,6.7-13.68,2.38-1.35-1.27-2.51-2.8-3.5-4.38-4.23-6.75-8.5-13.48-12.48-20.38-2.88-5-6.89-8.19-12.51-9.41-2.22-.48-4.41-1.34-6.64-1.42-2.91-.11-5.99-.12-8.74.69-9.28,2.73-19.36-1.35-23.91-9.92-4.47-8.42-5.85-17.39-5.33-26.8.54-9.76,4.22-18.55,8.11-27.29,2.16-4.86,1.87-9.2-1.94-13.17-6.58-6.87-9.58-15.45-11.54-24.51-2.88-13.31-.59-26.48,1.17-39.65,1.09-8.13,2.83-16.2,3.42-24.36,1.22-16.62,3.64-32.96,8.81-48.83.65-1.99.04-3.2-1.55-4.39-3-2.24-6.25-4.32-8.72-7.07-6.14-6.83-13.67-11.86-21.01-17.16-3.01-2.18-5.16-2.37-8.16-.15-4.63,3.42-8.6,7.68-9.49,13.51-1.51,9.87-3.67,19.7-3.28,29.8.22,5.63.14,11.26.18,16.9.08,12.14.62,24.24,2.98,36.2.62,3.14.91,6.35,1.31,9.53,1.06,8.37,1.82,16.8,3.23,25.11,1.63,9.63,4.03,19.12,5.72,28.74,4.29,24.42,8.72,48.82,12.43,73.33,3.48,23.01,7.59,45.84,14.75,68.02,1.46,4.52,3.61,8.82,5.49,13.2.25.59.73,1.08,1.26,1.84.69-.78,1.23-1.23,1.58-1.81,4.21-7.04,8.71-13.94,12.5-21.21,4.58-8.8,8.48-17.96,12.85-26.88,1.04-2.13,2.56-4.17,4.29-5.8,3.74-3.52,8.71-3.16,11.98.79,1.48,1.78,2.58,3.91,3.66,5.98,3.59,6.86,6.99,13.82,10.65,20.63,4.53,8.43,9.65,16.47,16.48,23.29,4.6,4.59,9.22,9.14,13.78,13.76,1.23,1.25,1.96,1.07,2.49-.49,2.75-8.14,5.8-16.19,8.14-24.45,1.72-6.07,2.43-12.43,3.73-18.63.88-4.19,2.56-8.05,5.69-11.12,3.84-3.76,8.4-3.94,12.31-.29,2.22,2.08,4.14,4.48,6.27,6.65,3.05,3.12,5.81,6.71,9.34,9.15,11.8,8.12,23.41,8.05,33.92-2.52,3.24-3.26,6.14-6.89,8.95-10.54,5.2-6.77,10.22-13.68,16.99-19.02,2.14-1.68,4.38-3.23,7.2-5.29ZM152.09,582.56c.33.24.67.47,1,.71,2.26-2.72,4.72-5.29,6.75-8.17,20.67-29.45,46.32-53.69,76.48-73.22,21.96-14.22,44.82-26.86,68.13-38.71,11.78-5.99,23.48-12.19,36.11-16.28,1.13-.37,2.55-.62,3.61-.26,4.52,1.52,9.08,3.01,13.39,5.03,31.06,14.56,61.37,30.55,90.15,49.25,16.27,10.57,32.03,21.89,45.62,35.95,12.2,12.62,23.98,25.55,33.82,40.16,1.43,2.12,3.4,3.86,5.16,5.75.25.27.72.34,1.74.79-1.14-2.58-1.96-4.58-2.89-6.53-10.02-21.19-21.64-41.46-34.67-60.94-11.85-17.73-24.88-34.48-40.32-49.25-1.52-1.46-3.05-2.95-4.76-4.17-5.72-4.09-11.49-8.12-17.3-12.09-9.89-6.75-19.97-13.17-30.81-18.36-19.96-9.56-40.22-18.55-58.91-30.57-.79-.51-2.53-.42-3.35.13-11.97,7.95-24.97,13.97-37.73,20.46-14.21,7.23-28.97,13.33-42.44,22.07-15.98,10.38-31.76,20.95-44.1,35.68-7.68,9.16-15.04,18.62-22.01,28.33-14.21,19.8-26.52,40.78-37.26,62.67-1.88,3.83-3.61,7.73-5.41,11.6ZM366.26,762.17c1.16-1.93,1.93-3.54,3-4.92,1.18-1.52,2.78-2.72,3.94-4.25,2.46-3.25,5.26-6.14,9.64-5.66,5.3.58,10.09,2.66,13.79,6.72.45.49.58,1.27.9,1.89.96,1.87,1.71,3.91,2.98,5.54,1.13,1.46,2.85,2.47,4.3,3.68.95-1.56,2.1-3.03,2.79-4.7,1.02-2.45,1.68-5.04,2.53-7.56.4-1.18.78-2.39,1.34-3.5,1.88-3.76,5.64-4.76,9.01-2.27,1.35,1,2.6,2.31,3.47,3.75,1.41,2.33,2.5,4.85,3.67,7.33.69,1.46,1.26,2.98,2.1,4.99.82-1.21,1.4-1.91,1.81-2.7,4.22-8.29,8.4-16.59,12.61-24.88.85-1.67,1.57-3.45,2.7-4.91,2.16-2.79,5.57-2.68,7.84-.02.54.63,1.19,1.22,1.9,1.64,3.14,1.85,6.44,3.45,9.48,5.46,6.13,4.05,12.11,8.31,18.19,12.44.77.52,1.73.77,2.6,1.15.17-.22.33-.44.5-.66-8.81-11.1-16.9-22.83-28.38-31.75-.99,1.65-1.7,3.25-2.76,4.54-2.46,2.99-7.01,3.59-11.48,1.69-1.41-.6-2.79-1.26-4.14-1.88-2.01,3.34-3.57,3.89-6.96,2.55-1.31-.52-2.58-1.13-3.82-1.79-1.37-.73-2.83-2.36-3.99-2.15-1.27.23-2.22,2.13-3.36,3.25-2.38,2.34-5.19,3.56-8.53,2.67-3.3-.88-4.94-3.38-5.7-6.55-.23-.97-.45-1.93-.68-2.94-.42.09-.68.07-.85.18-5.68,3.7-11.72,3.45-17.78,1.35-2.02-.7-3.68-1.02-5.78-.19-3.56,1.41-6.44-.77-6.52-4.59-.02-.88,0-1.76,0-2.64-.21-.04-.42-.08-.63-.11-.29.77-.52,1.56-.87,2.29-1.3,2.75-2.39,5.64-4.02,8.18-2.11,3.3-5.6,4.56-8.68,3.71-3.12-.87-5.07-3.41-5.38-7.47-.17-2.25.09-4.53.12-6.79.03-2.2,0-4.4,0-6.6-.19-.08-.38-.16-.56-.24-3.36,4.96-7.86,7.98-13.87,7.98-6,0-10.37-3.26-14.13-8.47,0,3.67.11,6.6-.03,9.52-.14,2.7-.09,5.55-.95,8.05-1.42,4.1-5.94,5.59-9.66,3.32-1.73-1.05-3.3-2.7-4.36-4.43-1.41-2.31-2.26-4.97-3.35-7.47-.25-.57-.53-1.12-.79-1.69-.48.74-.56,1.34-.55,1.94.04,5.19-2.65,6.97-7.61,5.22-.98-.35-2.23-.15-3.31.05-2.82.53-5.58,1.47-8.42,1.74-4.02.39-7.93-.33-11.39-3.24-.46,1.81-.71,3.11-1.12,4.35-1.85,5.73-7.78,7.64-12.58,3.98-1.22-.93-2.25-2.17-3.16-3.42-.88-1.21-1.59-1.41-2.87-.52-1.53,1.07-3.19,1.99-4.88,2.78-4.67,2.2-5.51,2.02-8.92-1.72-7.17,3.74-14.01,5.42-17.93-4.35-6.42,4.16-27.27,28.11-28.08,32.4,1-.46,1.88-.72,2.6-1.21,6.2-4.22,12.32-8.57,18.58-12.71,2.91-1.92,6.07-3.45,9.09-5.2.65-.38,1.29-.86,1.78-1.43,2.57-3.04,6.18-2.98,8.44.28.88,1.27,1.46,2.76,2.17,4.15,4.28,8.43,8.56,16.86,12.86,25.28.37.72.9,1.37,1.69,2.56.96-2.3,1.53-4.16,2.46-5.81,1.82-3.25,3.42-6.77,5.89-9.47,3.45-3.75,8.13-2.56,10.17,2.11.59,1.36.96,2.81,1.46,4.21,1.11,3.09,2.11,6.23,3.39,9.24.92,2.17,2.02,2.43,3.46.64,1.98-2.47,3.47-5.32,5.27-7.93,1.12-1.63,2.17-3.52,3.73-4.6,2.22-1.53,4.82-2.6,7.37-3.56,4.18-1.57,8.03-.88,11.19,2.45,2.3,2.43,4.54,4.9,6.74,7.43.54.62.78,1.51,1.16,2.28.27.57.53,1.14,1.01,2.16.47-1.17.72-1.8.98-2.43,2.01-4.83,3.87-9.73,6.07-14.47,1.96-4.22,6.23-4.66,9.29-1.16.87,1,1.55,2.19,2.49,3.1.62.6,1.53,1.13,2.37,1.23,3.87.44,7.55.27,9.46-4.01.09-.21.28-.37.44-.55,2.92-3.14,7.05-2.82,8.92,1,2.2,4.48,3.99,9.16,5.93,13.77.42.99.71,2.03,1.16,3.36ZM437.01,433.21c-.1-1.1-.05-1.58-.19-1.99-2.03-6.3-2.93-12.77-3.27-19.37-.08-1.6-1.35-3.52-2.65-4.61-16.38-13.77-34.5-25.13-52.05-37.27-12.15-8.41-24.54-16.51-34.92-27.19-1.03-1.06-1.67-.58-2.5.25-2.22,2.2-4.34,4.57-6.82,6.43-10.01,7.49-20.04,14.97-30.26,22.18-16.61,11.71-33.88,22.51-49.57,35.51-1.62,1.34-2.46,2.83-2.75,4.91-.86,6.17-1.92,12.32-2.89,18.48-.11.71-.2,1.43-.31,2.25.57,0,.84.08,1.01-.01.62-.34,1.2-.72,1.79-1.1,12.36-8.02,25.19-15.2,38.63-21.21,12.92-5.78,26.03-11.14,39.08-16.61,3.51-1.47,7.1-2.75,10.71-3.98,1.15-.39,2.53-.69,3.66-.42,3.26.78,6.55,1.61,9.64,2.89,7.72,3.2,15.24,6.91,23.02,9.97,20.45,8.04,39.99,17.83,58.4,29.84.55.36,1.18.58,2.25,1.09ZM186.13,113.12c.04.21.08.42.12.62.82.07,1.64.15,2.46.2,14.13.84,28.33,1.07,42.37,2.66,21.28,2.41,42.47,5.65,63.66,8.8,7.09,1.06,14.15,1.42,21.26,1.07,2.35-.12,4.69-1.01,6.96-1.77,1.65-.55,2.38-1.99,2.31-3.72-.23-5.78-.26-11.58-.81-17.33-.41-4.31-2.87-7.74-6.32-10.32-3.15-2.36-5.89-1.87-8.31,1.21-4.22,5.38-9.79,8.13-16.6,8.33-6.66.2-12.47-2.14-18.06-5.64-8.2-5.14-16.41-10.37-25.03-14.73-9.16-4.62-18.91-4.84-27.77.84-5.21,3.35-10,7.6-14.26,12.12-4.98,5.28-10.7,9.57-16.31,14.03-1.75,1.39-3.77,2.42-5.67,3.62ZM499.49,113.75c.05-.23.11-.45.16-.68-.79-.45-1.65-.83-2.37-1.38-5.52-4.21-11.16-8.27-16.46-12.75-4.52-3.82-8.42-8.39-12.99-12.15-3.08-2.53-6.61-5.01-10.36-6.13-7.6-2.26-15.43-1.99-22.55,2.01-8.24,4.63-16.25,9.65-24.39,14.45-2.48,1.46-4.97,3.05-7.65,4.03-9.01,3.29-20.13,2.58-27.45-7.05-1.99-2.62-4.65-3.03-7.45-1.1-4.07,2.8-6.6,6.71-7,11.67-.39,4.83-.48,9.68-.61,14.53-.12,4.25.86,5.52,4.98,6.69.9.25,1.84.53,2.76.53,5.46,0,10.98.38,16.37-.26,9.31-1.1,18.54-2.84,27.8-4.35,28.06-4.58,56.34-6.85,84.74-7.86.82-.03,1.64-.13,2.47-.19ZM342.68,777.45c5.23-.31,10.62-.58,16-.97,2.75-.2,4.64-3.25,3.52-5.79-2.22-5.08-4.6-10.1-6.93-15.13-.68-1.47-1.84-2.16-3.42-1.73-1.42.38-2.79.96-4.18,1.44-.73.25-1.52.8-2.18.67-3.21-.64-6.75.75-9.7-1.6-.5-.4-1.34-.37-2.02-.52-1.71-.38-2.88.31-3.59,1.86-2.28,4.97-4.61,9.92-6.8,14.94-1.14,2.62.79,5.67,3.68,5.89,5.14.38,10.3.64,15.63.96ZM292.58,711.42c-.09-.6-.07-.86-.17-1.05-4.78-8.79-8.02-18.12-9.67-27.99-.33-1.97-1.37-1.74-2.65-.91-6.02,3.92-12.04,7.84-18.08,11.73-1.19.77-1.45,1.66-.89,2.97,2.49,5.9,4.93,11.82,7.41,17.72.24.57.66,1.07,1.2,1.9.32-.79.55-1.13.6-1.49,1.13-7.39,6.61-9.08,11.9-4.45,2.87,2.5,6.56,2.45,10.34,1.57ZM392.82,711.42c1.01.18,1.75.35,2.49.43,3.62.38,6.68-.83,9.6-2.95,4.32-3.14,8.13-1.74,9.75,3.36.34,1.07.66,2.15,1.08,3.51.49-.52.76-.7.87-.95,2.68-6.34,5.39-12.66,7.91-19.06.25-.65-.43-2.14-1.11-2.6-5.76-3.9-11.6-7.68-17.46-11.43-2.44-1.56-2.7-1.43-3.21,1.49-1.59,9.17-4.56,17.86-8.97,26.05-.32.59-.55,1.24-.95,2.14ZM244.18,767.53c.09-.55.18-.73.13-.85-3.08-7.67-6.12-15.36-9.3-22.99-1.19-2.86-4.13-3.07-6.26-.82-1.6,1.68-3.29,3.39-5.24,4.59-4.11,2.54-8.42,4.77-12.66,7.1-1.32.73-2.68,1.39-4.44,2.3,12.18,6.25,24.92,8.39,37.77,10.67ZM440.96,767.62c13.34-2.38,26.09-4.47,38.28-10.84-2.81-1.36-5.09-2.36-7.27-3.54-5.61-3.04-11.42-5.76-15.69-10.82-1.91-2.27-4.89-1.01-6.09,2.11-2.67,6.91-5.49,13.75-8.25,20.62-.25.62-.5,1.25-.99,2.47ZM404.11,773.11c-2.13-1.72-4.17-2.87-5.53-4.58-1.88-2.35-3.4-5.03-4.77-7.73-1.24-2.44-2.92-4.14-5.64-4.35-2.7-.21-5.09.25-6.93,2.85-1.59,2.24-3.92,3.95-5.88,5.94-.69.69-1.48,1.43-1.8,2.31-.7,1.9-1.1,3.91-1.67,5.86-.46,1.58-.06,2.45,1.73,2.3,10.11-.86,20.21-1.71,30.49-2.58ZM281.07,772.74c.85.18,1.19.28,1.55.32,9.35.86,18.69,1.75,28.04,2.56,3.5.3,3.65.04,2.69-3.45-.27-.98-.61-1.95-.8-2.94-.39-2.03-1.43-3.41-3.15-4.66-1.92-1.39-3.69-3.21-5-5.18-1.7-2.55-4.05-3.07-6.68-2.97-2.72.11-4.67,1.6-5.82,4.09-2.31,5.01-4.9,9.8-10.83,12.24ZM452.08,713.75c-.27-.4-.58-1.26-1.19-1.7-4.8-3.5-9.66-6.9-14.48-10.37-1.38-.99-2.08-.46-2.58.94-.82,2.28-1.68,4.54-2.55,6.8-1.76,4.53-1.75,4.5,2.01,7.65,1.18.99,1.95,1.42,3.57.36,1.23-.81,3.25-.71,4.86-.54,1.35.14,2.62.96,3.93,1.47,5.38,2.08,5.6-.12,6.44-4.61ZM250.26,718.6c1.81-1.41,3.46-2.59,4.97-3.93.41-.36.69-1.32.51-1.81-1.31-3.6-2.7-7.16-4.2-10.68-.19-.44-1.43-.94-1.72-.74-5.26,3.65-10.58,7.24-15.53,11.28-.8.66-.22,3.53.38,5.13.26.7,2.21,1.16,3.33,1.05,1.42-.13,2.81-.89,4.17-1.48,2.86-1.25,5.59-1.56,8.11,1.18ZM417.71,758.55c-.25.03-.5.07-.75.1-1.58,4.76-2.38,9.91-6.74,13.42,4.24-.22,8.3-.7,12.34-1.3.32-.05.87-1.16.71-1.48-1.79-3.62-3.69-7.17-5.56-10.75ZM275.32,772.38c.14-.17.29-.33.43-.5-4.87-3.13-5.48-8.49-7.47-14.02-2.39,4.5-4.45,8.36-6.81,12.79,5,.63,9.42,1.18,13.85,1.74ZM358.68,793.28c-.02-.29-.04-.59-.07-.88h-31.86c0,.29,0,.59,0,.88h31.92Z" style="fill: #000; stroke-width: 0px;"/>
  <path d="M260.69,235.31c1.27.28,2.08.47,2.91.64,13,2.58,25.65,6.36,38,11.14,1.6.62,3.36,1.19,4.59,2.3,1.74,1.56,3.52,3.39,4.44,5.47,1.29,2.94-.45,5.89-3.65,6.28-2.13.26-4.48-.24-6.58-.88-7.46-2.28-14.72-5.46-22.31-7-12.17-2.46-24.49-4.72-36.85-5.56-20.78-1.42-41.59-.74-62.17,3.2-3.29.63-6.66.93-10.01,1.09-3.49.17-5.2-2.53-4.06-5.82.69-1.98,1.34-4.02,1.69-6.08.79-4.61,2.86-8.5,5.7-12.17,10.18-13.14,23.11-22.72,37.92-30.02,22.03-10.86,44-21.84,65.98-32.79,3.07-1.53,6.08-3.2,9.13-4.79.69-.36,1.4-.73,2.15-.91,1.85-.46,3.49-.06,4.41,1.74.94,1.84.23,3.44-1.29,4.54-8.79,6.36-17.58,12.72-26.47,18.93-1.73,1.21-2.06,2.09-1.4,4.15,1.13,3.54,2.09,7.24,2.34,10.93.44,6.31.31,12.66.36,19,.04,4.95-1.24,9.59-3.53,13.96-.39.74-.73,1.51-1.29,2.67ZM236.45,220c.82.12,1.66.17,2.46.36,3.78.91,7.59,1.74,11.32,2.84,1.65.48,2.89,1.78,2.47,3.75-.42,1.98-2.03,2.41-3.79,2.41-.86,0-1.72-.12-2.57-.17-5.3-.3-10.6-.6-15.9-.89-1.33-.07-2.67-.03-3.98-.22-5.09-.72-7.26-4.83-4.32-8.98,1.98-2.8,4.54-5.56,7.48-7.22,6.32-3.56,13.04-6.39,19.6-9.52,5.39-2.57,5.34-2.57,3.92-8.53-.42-1.77-1.02-2.2-2.7-1.24-16.79,9.55-33.72,18.85-50.36,28.64-7.19,4.23-13.96,9.26-19.26,15.92-.53.67-.97,1.42-1.46,2.13,1.51.22,2.65.08,3.74-.27,19.66-6.2,39.79-7.05,60.15-5.42q8.25.66,10.77-7.26c1.56-4.94,1.13-9.98.98-15.46-6.8,2.34-12.97,4.92-18.55,9.12Z" style="fill: #000; stroke-width: 0px;"/>
  <path d="M424.53,235.31c0-.48.06-.67,0-.78-4.21-6.94-4.75-14.6-4.45-22.44.16-4.06-.12-8.17.33-12.19.43-3.85,1.36-7.67,2.47-11.39.56-1.88.32-2.74-1.31-3.78-5.27-3.37-10.5-6.82-15.6-10.43-3.81-2.7-7.43-5.68-11.1-8.58-1.49-1.18-2.21-2.72-1.29-4.55.91-1.81,2.56-2.16,4.41-1.76.53.11,1.04.34,1.53.59,26.09,13.05,52.18,26.12,78.26,39.18,14.14,7.08,26.21,16.68,35.86,29.28,2.63,3.43,4.47,7.1,5.21,11.38.39,2.22,1.11,4.38,1.8,6.53,1.03,3.17-.72,5.86-4.1,5.64-4.05-.26-8.07-.92-12.1-1.42-7.6-.94-15.18-2.32-22.81-2.75-20.5-1.16-40.93-1.18-61.22,3.08-9.26,1.94-18.67,3.11-27.64,6.29-2.43.86-4.73,2.1-7.17,2.9-1.97.64-4.09,1.32-6.11,1.23-4.07-.19-5.93-3.67-4.3-7.42,1.09-2.51,2.98-4.3,5.46-5.22,7.55-2.78,15.09-5.65,22.77-8,6.49-1.98,13.19-3.29,19.8-4.91.44-.11.85-.3,1.31-.46ZM433.07,191.51c-.52,2.38-.86,4.28-1.36,6.14-.47,1.76.07,2.66,1.78,3.41,6.44,2.82,12.86,5.72,19.19,8.78,4.18,2.02,7.99,4.64,10.54,8.7,3.07,4.89,1.04,9.15-4.74,9.58-7.16.54-14.34.85-21.51,1.22-1.8.09-3.61-.19-4.12-2.28-.54-2.2.95-3.48,2.75-4.02,3.5-1.04,7.09-1.81,10.65-2.65.93-.22,1.89-.27,2.83-.4.03-.22.05-.44.08-.65-5.76-3.44-11.79-6.29-18.5-8.35-.62,7.17-.25,13.75,2.59,20.1,1.05,2.36,2.3,3.06,4.96,2.98,12.33-.4,24.73-1.29,37-.41,9.65.69,19.14,3.72,28.7,5.7.75.15,1.51.2,2.9.38-1.01-1.31-1.56-2.05-2.15-2.78-5.33-6.62-12.1-11.63-19.29-15.88-15.21-8.99-30.68-17.52-46.06-26.23-1.89-1.07-3.83-2.05-6.26-3.35Z" style="fill: #000; stroke-width: 0px;"/>
  <path d="M95.79,178.84c.61.86.99,1.49,1.46,2.05,9.61,11.12,19.32,22.15,28.8,33.38,3.04,3.61,5.61,7.66,8.12,11.67,1.54,2.46,1.17,5.03-.47,6.75-1.92,2.01-4.4,2.35-6.68,1.18-2.39-1.23-4.68-2.84-6.63-4.69-10.6-10.07-19.26-21.76-27.79-33.56-4.03-5.57-8.25-11.02-12.37-16.53-.42-.56-.8-1.16-1.16-1.76-3.43-5.81-.47-11.57,6.26-11.78,3.81-.12,7.74-.13,11.44.63,11.9,2.41,22.97.35,33.61-5.18,12.21-6.34,24.38-12.79,36.79-18.72,8.03-3.83,16.37-7.07,24.76-10.05,2.85-1.02,6.28-.65,9.43-.51,1.35.06,2.84.96,3.94,1.87,3.02,2.51,2.75,6.43-.63,8.42-1.79,1.05-3.84,1.87-5.88,2.25-12.47,2.31-23.79,7.67-35.04,13.15-9.14,4.45-18,9.46-27.16,13.87-12.34,5.94-25.3,9.07-39.12,7.32-.42-.05-.86.11-1.69.24Z" style="fill: #000; stroke-width: 0px;"/>
  <path d="M589.71,178.77c-.71-.09-1.09-.23-1.44-.18-16.15,2.04-30.76-2.71-44.84-10-9.93-5.14-19.85-10.31-29.95-15.11-8.26-3.92-16.72-7.45-25.85-9.02-1.98-.34-3.92-1.1-5.78-1.91-2.03-.88-3.55-2.37-3.6-4.78-.04-2.47,1.37-4.14,3.43-5.19,2.88-1.47,6-1.87,9.14-1.16,2.58.58,5.16,1.32,7.62,2.31,16.12,6.49,31.99,13.5,47.09,22.16,4.54,2.6,9.29,4.86,14.04,7.05,8.07,3.71,16.49,5.12,25.38,3.74,4.62-.71,9.32-.95,14-1.21,3.37-.19,6.44.66,8.21,3.9,1.83,3.37.63,6.4-1.41,9.17-6.77,9.19-13.37,18.53-20.48,27.45-6.42,8.06-13.34,15.73-20.25,23.38-1.72,1.91-4.13,3.33-6.47,4.5-2.53,1.27-5.12.57-6.66-1.24-1.74-2.04-1.57-4.26-.57-6.59,3.16-7.4,9.22-12.53,14.31-18.43,7.87-9.11,15.61-18.33,23.39-27.51.24-.28.35-.66.69-1.34Z" style="fill: #000; stroke-width: 0px;"/>
  <path d="M352.59,262.76c.93.68,2.37,1.46,3.48,2.59,3.5,3.57,7.03,7.12,10.25,10.93,10.25,12.12,20.42,24.3,30.5,36.56,4.52,5.5,8.72,11.25,13.07,16.88,1.35,1.75,1.99,3.66.52,5.59-1.46,1.92-3.56,1.95-5.52,1.02-1.89-.89-3.82-1.9-5.39-3.26-16.07-13.9-31.49-28.42-42.79-46.69-1.26-2.04-2.31-4.25-3.22-6.48-1.17-2.89-2.18-5.86-3.1-8.85-.53-1.7-.9-3.49-1.05-5.26-.14-1.71.85-2.77,3.25-3.04Z" style="fill: #000; stroke-width: 0px;"/>
  <path d="M336.23,266.4c-.02.23,0,.48-.08.7-2.27,6.3-3.71,13.08-7,18.79-9.77,16.94-23.89,30.24-38.34,43.13-2.61,2.33-5.46,4.42-8.32,6.46-.98.7-2.32,1.3-3.46,1.24-1.34-.08-3.19-.57-3.81-1.53-.69-1.06-.65-3.01-.18-4.3.57-1.55,1.88-2.85,2.97-4.18,12.35-15.05,24.68-30.12,37.11-45.11,4.23-5.11,8.73-10,13.14-14.96.93-1.05,1.89-2.18,3.08-2.85.96-.54,2.49-.9,3.38-.49.89.4,1.29,1.86,1.91,2.85-.14.09-.27.17-.41.26Z" style="fill: #000; stroke-width: 0px;"/>
  <path d="M340.83,168.52c-.44,6.67-2.56,12.91-5.4,18.85-5.25,10.98-11.61,21.31-19.96,30.24-2.41,2.58-5.41,4.76-8.49,6.49-1.74.97-4.26,1.08-6.32.8-3.48-.47-4.36-4.08-2.13-6.79,2.82-3.41,5.69-6.84,8.04-10.57,7.64-12.1,15.06-24.34,22.53-36.54.93-1.53,1.57-3.23,2.43-4.82,1.65-3.06,3.91-4.48,6.03-3.85,2.04.6,3.28,2.95,3.26,6.2Z" style="fill: #000; stroke-width: 0px;"/>
  <path d="M382.06,225.21c-2.84-.11-5.7-1.85-8.27-4.07-6.59-5.7-11.62-12.7-15.94-20.15-3.67-6.33-7-12.91-9.94-19.62-1.61-3.66-2.28-7.78-3.04-11.76-.66-3.49.8-6.53,2.96-7.25,2.27-.76,4.53.94,6.52,4.24,9.34,15.54,18.77,31.02,28.22,46.49.88,1.45,2.05,2.78,3.29,3.94,1.63,1.52,3.1,3.04,2.17,5.44-.91,2.37-3.04,2.69-5.97,2.74Z" style="fill: #000; stroke-width: 0px;"/>
  <path d="M255.19,336.34c-1.21-.42-3.31-.87-5.13-1.85-3.08-1.67-6.09-3.53-8.93-5.58-12.06-8.68-23.74-17.83-34.56-28.07-4.03-3.81-8.43-7.21-12.66-10.81-.48-.4-.96-.81-1.38-1.27-1.51-1.67-1.62-3.73-.3-5.06,1.25-1.26,3.19-1.23,4.89.12,3.07,2.42,6.09,4.89,9.18,7.28,12.05,9.33,24.03,18.74,36.21,27.89,4.36,3.28,9.2,5.91,13.82,8.83.66.42,1.35.79,2,1.21,1.64,1.08,3.12,2.34,2.45,4.56-.69,2.29-2.68,2.6-5.59,2.73Z" style="fill: #000; stroke-width: 0px;"/>
  <path d="M429.7,336.85c-2.3-.64-4.25-1-4.96-3.27-.62-1.99.51-3.41,2.11-4.25,15.31-8.01,27.8-19.89,41.46-30.16,6.68-5.02,13.3-10.13,19.93-15.22,1.93-1.48,3.98-1.54,5.23-.04,1.27,1.52.98,3.71-1,5.36-14.12,11.73-27.12,24.8-42.22,35.36-3.91,2.73-7.66,5.71-11.71,8.2-2.74,1.68-5.88,2.71-8.84,4.03Z" style="fill: #000; stroke-width: 0px;"/>
  <path d="M274.24,316.84c-5.54-1.05-9.91-2.99-13.69-5.94-8.94-6.97-17.67-14.21-26.56-21.23-5.52-4.35-11.18-8.52-16.8-12.74-1.57-1.18-2.62-2.56-1.99-4.58.66-2.11,2.43-3.13,4.39-2.63,2.45.62,5.01,1.49,7.03,2.94,7.68,5.52,15.16,11.3,22.71,17,8.29,6.26,16.56,12.55,24.84,18.83.68.52,1.38,1.04,2,1.62,1.27,1.18,2.38,2.73,1.35,4.32-.77,1.18-2.39,1.8-3.28,2.43Z" style="fill: #000; stroke-width: 0px;"/>
  <path d="M411.4,316.99c-1.08-.77-2.61-1.38-3.36-2.5-1.08-1.62-.03-3.22,1.31-4.29,2.8-2.25,5.72-4.34,8.57-6.53,10.77-8.3,21.5-16.67,32.32-24.91,3.48-2.65,7.12-5.11,10.85-7.39,1.53-.94,3.46-1.43,5.27-1.68,1.84-.25,3.38.7,3.98,2.6.6,1.89-.23,3.31-1.72,4.48-11.37,8.93-22.73,17.87-34.08,26.82-5.64,4.45-11,9.34-17.92,11.84-1.53.55-3.11.94-5.21,1.57Z" style="fill: #000; stroke-width: 0px;"/>
  <path d="M434.61,272.3c-.68.85-1.56,2.85-3.08,3.71-10.65,6.01-20.25,13.94-32.19,17.56-.37.11-.73.27-1.11.38-1.61.5-3.18.51-4.15-1.11-.99-1.64-.21-3.03,1.06-4.13,2.12-1.84,4.19-3.79,6.48-5.38,5.32-3.7,10.63-7.46,16.22-10.72,3.6-2.1,7.63-3.53,11.58-4.92,2.81-.99,5.26.91,5.18,4.61Z" style="fill: #000; stroke-width: 0px;"/>
  <path d="M256.16,267.47c2.4.95,6.1,1.94,9.3,3.78,8.69,4.98,17.12,10.39,24.59,17.14,1.28,1.16,2.41,2.44,1.45,4.26-1.01,1.92-2.82,1.91-4.5,1.18-4.94-2.14-9.96-4.15-14.68-6.7-5.78-3.11-11.33-6.65-16.88-10.17-1.53-.97-3.01-2.33-3.97-3.86-1.67-2.68.32-5.74,4.68-5.64Z" style="fill: #000; stroke-width: 0px;"/>
  <path d="M485.44,188.59c-1.91-.81-3.95-1.41-5.69-2.48-2.03-1.26-2.09-3.94-.13-5.35,5.05-3.63,9.35-8,13.19-12.86.72-.91,1.61-1.73,2.56-2.38,2.5-1.72,5.55-.49,6.22,2.42,1.85,8-7.6,20.15-15.75,20.25-.08,0-.16,0-.23,0-.06.14-.11.27-.17.41Z" style="fill: #000; stroke-width: 0px;"/>
  <path d="M199.76,188.61c-3.57-.58-6.58-1.63-8.93-4.25-3.74-4.17-6.48-8.81-6.91-14.55-.14-1.92.21-3.66,2.09-4.59,1.93-.96,3.68-.4,5.12,1.08,3.37,3.47,6.65,7.02,10.06,10.45,1.37,1.38,2.96,2.53,4.47,3.76,2.3,1.88,2.26,4.48-.33,5.93-1.72.96-3.71,1.47-5.57,2.18Z" style="fill: #000; stroke-width: 0px;"/>
  <path d="M291.63,260.85c.73.18,1.93.19,2.82.73,5.2,3.1,10.4,6.24,15.45,9.59,1.12.74,1.92,2.29,2.39,3.63,1,2.88-1.07,5.52-4.1,5.17-1.48-.17-3.03-.82-4.28-1.65-4.99-3.31-9.89-6.78-14.82-10.2-1.54-1.07-2.45-2.47-1.92-4.39.56-2.03,2.16-2.72,4.46-2.88Z" style="fill: #000; stroke-width: 0px;"/>
  <path d="M394,260.87c2.25.1,3.8.87,4.38,2.86.56,1.93-.39,3.33-1.91,4.39-4.85,3.38-9.68,6.8-14.61,10.07-1.32.87-2.93,1.58-4.48,1.78-3.01.37-5.06-2.28-4.11-5.16.38-1.15,1.03-2.34,1.89-3.17,4.79-4.6,10.53-7.72,16.59-10.28.77-.33,1.67-.36,2.24-.48Z" style="fill: #000; stroke-width: 0px;"/>
  <path d="M225.99,175.78c-1.18-.55-3.69-1.16-5.45-2.64-3.61-3.05-6.97-6.46-10.1-10.01-.75-.85-.66-3.04-.13-4.25.79-1.8,2.76-1.87,4.52-1.36,4.95,1.41,9.13,4.08,12.39,8.05,1.33,1.62,2.62,3.36,3.47,5.25,1.24,2.76-.53,5.07-4.7,4.97Z" style="fill: #000; stroke-width: 0px;"/>
  <path d="M458.82,175.81c-3.77,0-5.34-2.53-3.73-5.54,2.69-5.03,6.64-8.86,11.84-11.29,1.48-.69,3.07-1.48,4.63-1.52,1.28-.04,3.05.62,3.76,1.59.63.86.62,2.94-.02,3.84-3.58,5.09-7.74,9.64-13.65,12.14-1.06.45-2.24.62-2.82.78Z" style="fill: #000; stroke-width: 0px;"/>
  <path d="M169.42,201.45c-1.51-.7-3.67-1.33-5.37-2.58-4.77-3.52-8.65-7.88-11.02-13.43-.75-1.76-1.16-3.57.61-4.89,1.87-1.4,3.6-.52,5,.93,3.37,3.47,6.62,7.06,10.03,10.49,1.01,1.01,2.29,1.92,3.62,2.42,1.62.61,3.2,1.37,2.78,3.14-.31,1.27-1.67,2.38-2.76,3.34-.5.44-1.49.33-2.9.59Z" style="fill: #000; stroke-width: 0px;"/>
  <path d="M514.75,201.4c-.83-.39-2.33-.78-3.39-1.68-1.86-1.58-1.12-4.01,1.06-5.11,1.89-.96,3.78-2.11,5.3-3.57,3.21-3.08,6.14-6.44,9.24-9.64,1.21-1.25,2.85-2.19,4.38-1.12.92.64,1.71,2.34,1.59,3.45-.65,5.87-10.39,16.17-16.13,17.38-.46.1-.93.13-2.04.29Z" style="fill: #000; stroke-width: 0px;"/>
  <path d="M263.02,159.35c-2.78-.16-5.41-1.85-7.2-4.34-2.03-2.82-3.59-6.01-5.11-9.16-.87-1.8-.69-3.76,1.15-5.03,1.79-1.23,3.4-.42,4.93.73,2.06,1.55,4.32,2.87,6.16,4.64,1.93,1.86,3.9,3.92,5.05,6.28,1.66,3.44-.78,6.81-4.98,6.87Z" style="fill: #000; stroke-width: 0px;"/>
  <path d="M422.91,159.33c-4.35,0-6.88-3.17-5.43-6.49.99-2.27,2.69-4.38,4.5-6.12,2.18-2.09,4.8-3.71,7.25-5.51,1.35-.98,3.05-1.64,4.28-.38.94.96,1.85,2.87,1.53,4-1.54,5.49-4.01,10.52-9.3,13.48-1.06.59-2.31.84-2.83,1.02Z" style="fill: #000; stroke-width: 0px;"/>
  <path d="M144.78,656.9c.42-16.55,3.93-29.58,8.22-42.46.74-2.23,1.49-4.46,2.39-6.62,1.17-2.82,3.33-4.17,5.78-3.84,2.4.32,4.32,2.28,4.72,5.15.19,1.37.18,2.86-.17,4.18-1.72,6.5-3.33,13.04-5.47,19.4-4.94,14.69-5.88,29.52-2.49,44.63.76,3.37.27,4.99-1.54,5.75-1.82.77-4.23-.07-5.75-2.54-1.33-2.17-2.66-4.54-3.13-6.99-1.24-6.43-2.02-12.95-2.57-16.66Z" style="fill: #000; stroke-width: 0px;"/>
  <path d="M541.26,654.4c-1,6.47-1.83,12.98-3.08,19.4-.45,2.3-1.8,4.46-2.95,6.56-.5.91-1.4,1.9-2.33,2.19-1.29.4-3.08.69-4.08.08-.87-.52-1.4-2.41-1.29-3.61.31-3.18,1.15-6.3,1.61-9.46,1.87-12.72.13-25.05-3.88-37.19-1.96-5.93-3.58-11.97-5.16-18.02-.46-1.77-.51-3.74-.29-5.56.34-2.76,2.34-4.59,4.69-4.85,2.28-.25,4.43,1.01,5.56,3.51.83,1.85,1.45,3.79,2.12,5.71,4.04,11.62,7.22,23.45,8.3,35.76.16,1.79.19,3.59.28,5.38.16.03.33.06.49.09Z" style="fill: #000; stroke-width: 0px;"/>
  <path d="M412.85,548.04c-.29,3.03-.49,6.08-.91,9.1-.54,3.9-2.39,7.09-5.69,9.32-3.9,2.63-7.67.85-7.95-3.84-.12-2.01-.09-4.11.32-6.07,1.74-8.36.38-16.54-1.48-24.62-1.39-6.01-3.32-11.9-5.11-17.81-.42-1.4-1.18-2.72-1.92-3.99-1.55-2.67-1.62-4.54-.09-6.24,1.69-1.88,4.82-2.48,7.11-1.08,1.22.75,2.55,1.79,3.15,3.03,6.14,12.81,11.1,26.01,12.44,40.32.06.62,0,1.25,0,1.88.04,0,.08,0,.12.01Z" style="fill: #000; stroke-width: 0px;"/>
  <path d="M272.71,547.96c.29-2.47.2-6.02,1.17-9.25,2.94-9.8,6.23-19.5,9.54-29.18.64-1.88,1.81-3.66,3.08-5.21,1.89-2.3,4.75-2.82,7.22-1.7,2.79,1.27,3.57,3.83,2.32,6.62-5.77,12.89-9.45,26.32-9.75,40.5-.08,3.64.71,7.3,1.04,10.95.08.92.03,1.89-.14,2.8-.7,3.79-3.92,5.32-7.21,3.34-3.41-2.04-5.5-5.11-6.13-9.02-.48-2.93-.7-5.9-1.14-9.84Z" style="fill: #000; stroke-width: 0px;"/>
  <path d="M185.09,604.67c-.18-12.24,3.51-23.12,7.73-33.86,1.29-3.27,2.61-6.55,4.2-9.68.82-1.62,2.1-3.09,3.46-4.32,1.43-1.29,3.27-1.59,4.96-.32,1.68,1.27,1.78,3,1.17,4.87-1.31,4.01-2.41,8.11-3.98,12.02-4.39,10.94-5.15,22.5-6.12,34.04-.24,2.88-.28,5.78-.47,8.67-.22,3.22-1.47,5.05-3.59,5.37-2.06.32-3.7-.94-5.02-3.78-2-4.29-2.69-8.8-2.33-13.02Z" style="fill: #000; stroke-width: 0px;"/>
  <path d="M500.67,604.03c.13,4.52-.29,8.91-2.25,13.06-.13.28-.25.57-.38.86-1.26,2.63-2.98,3.85-4.96,3.51-2.03-.35-3.25-2.04-3.48-4.95-.18-2.26-.18-4.53-.4-6.79-.75-7.62-1.14-15.3-2.5-22.81-1.09-6.03-3.39-11.84-5.19-17.73-.82-2.69-1.75-5.35-2.61-8.02-.57-1.78-.44-3.45,1.16-4.65,1.59-1.19,3.32-1.02,4.79.12,1.2.94,2.52,2.04,3.14,3.37,5.33,11.42,10.2,23.02,12,35.63.4,2.78.46,5.6.68,8.4Z" style="fill: #000; stroke-width: 0px;"/>
  <path d="M227.32,564.34c.37-8.15,2.64-16.64,6.45-24.71,1.7-3.6,3.68-7.07,5.67-10.53,1.44-2.5,3.47-4.46,6.41-5.13,2.19-.5,4.26-.21,5.73,1.68,1.48,1.9.86,3.78-.22,5.67-2.57,4.47-5.11,8.96-7.59,13.47-5.98,10.87-6.87,22.4-4.29,34.35.41,1.89,1.23,4.06-1.07,5.22-2.44,1.23-3.72-.83-4.97-2.39-3.95-4.91-6.16-10.47-6.12-17.65Z" style="fill: #000; stroke-width: 0px;"/>
  <path d="M458.29,564.9c.01,7.16-2.53,13.05-7.08,18.16-1.11,1.25-2.37,2.22-4.08,1.38-1.74-.85-1.6-2.45-1.36-4.09.58-3.93,1.2-7.87,1.57-11.83,1.02-10.84-3.34-20.19-8.4-29.3-1.56-2.8-3.32-5.49-4.91-8.27-2.14-3.75-.05-7.21,4.3-7.14,3.1.05,5.48,1.72,7.02,4.13,7.26,11.36,12.43,23.49,12.93,36.97Z" style="fill: #000; stroke-width: 0px;"/>
  <path d="M371.79,517.21c-.26,2.41-.4,4.83-.82,7.21-.23,1.27-.79,2.56-1.49,3.66-2.11,3.29-5.67,3.38-7.83.15-.85-1.26-1.41-2.79-1.79-4.28-2.86-11.2-5.65-22.42-8.42-33.65-.37-1.5-.67-3.08-.65-4.61.04-2.37,1.19-4.18,3.48-5.11,2.28-.92,4.35-.43,6.06,1.21.94.9,1.93,1.96,2.38,3.14,2.69,7.09,5.45,14.16,7.72,21.38,1.08,3.44,1.15,7.21,1.68,10.83-.1.02-.2.05-.31.07Z" style="fill: #000; stroke-width: 0px;"/>
  <path d="M313.51,516c.77-3.9,1.3-8.51,2.64-12.86,1.84-5.97,4.2-11.77,6.54-17.57.62-1.53,1.77-2.97,3-4.1,1.59-1.46,3.64-1.8,5.7-.89,2.01.88,3.33,2.47,3.39,4.68.04,1.77-.2,3.59-.64,5.31-2.09,8.17-4.32,16.31-6.43,24.48-.66,2.57-1.09,5.2-1.68,7.79-.3,1.29-.6,2.61-1.13,3.81-.96,2.16-2.38,3.99-5.04,3.89-2.56-.1-4.01-1.93-4.56-4.11-.8-3.15-1.13-6.42-1.79-10.42Z" style="fill: #000; stroke-width: 0px;"/>
  <path d="M220.57,496.84c1.15-3.45,1.84-7.15,3.55-10.29,5.61-10.31,13.83-18.5,22.53-26.2.85-.75,1.97-1.31,3.06-1.68,3.69-1.23,6.86,1.61,5.76,5.32-.63,2.13-1.73,4.22-3.04,6.02-2.72,3.72-5.66,7.28-8.63,10.81-4.78,5.68-9.69,11.25-14.46,16.94-1.09,1.3-1.67,3.03-2.78,4.32-.72.83-2.01,1.69-2.96,1.61-.74-.07-1.63-1.48-1.95-2.47-.43-1.31-.37-2.78-.52-4.17l-.55-.22Z" style="fill: #000; stroke-width: 0px;"/>
  <path d="M464.41,497.33c-.17,1.3-.18,2.99-.66,4.53-.25.8-1.21,1.72-2.01,1.92-.68.17-1.96-.4-2.35-1.03-6.65-10.69-15.87-19.29-23.57-29.1-1.73-2.21-3.31-4.56-4.69-7-1.79-3.17-1.56-5.76.31-7.3,1.9-1.57,4.84-1.38,7.49.99,7.28,6.53,14.4,13.23,19.75,21.55,2.46,3.84,4.99,7.6,5.47,12.3.1.93.16,1.87.26,3.15Z" style="fill: #000; stroke-width: 0px;"/>
  <path d="M419.07,466.98c-.22,1.54-.27,2.49-.5,3.39-.51,1.94-1.61,3.43-3.71,3.77-2.11.35-3.57-.73-4.68-2.43-5.6-8.64-11.21-17.28-16.81-25.93-.42-.65-.85-1.33-1.12-2.05-1.11-3.07.99-5.97,4.2-5.46,1.77.28,3.72,1.03,5.05,2.19,6.64,5.79,12.48,12.28,15.89,20.56.85,2.06,1.23,4.32,1.68,5.97Z" style="fill: #000; stroke-width: 0px;"/>
  <path d="M266.67,466.91c.14-3.41,1.48-7.34,3.88-10.6,3.82-5.2,8.06-10.12,12.39-14.9,1.33-1.46,3.47-2.52,5.42-2.97,1.31-.31,3.47.35,4.28,1.35.8,1,.85,3.15.36,4.48-.71,1.92-2.23,3.54-3.37,5.31-4.46,6.87-9.01,13.69-13.34,20.64-1.97,3.16-3.57,4.47-5.92,3.86-2.32-.59-3.66-2.9-3.69-7.17Z" style="fill: #000; stroke-width: 0px;"/>
  <path d="M309.23,445.08c.09-4.66,1.89-8.77,4.28-12.54,2.16-3.4,4.59-6.74,7.42-9.58,1.49-1.49,4.05-2.46,6.21-2.61,3.4-.25,5.24,3.31,3.52,6.3-4.16,7.24-8.4,14.43-12.63,21.63-.43.73-.98,1.42-1.59,2.02-2.49,2.47-5.71,1.64-6.69-1.76-.32-1.11-.36-2.3-.52-3.45Z" style="fill: #000; stroke-width: 0px;"/>
  <path d="M376.26,445.06c0,.39.02.78,0,1.17-.18,2.99-1.36,4.96-3.34,5.35-2.64.53-4.1-1.2-5.23-3.13-2.48-4.25-4.79-8.59-7.25-12.86-1.56-2.7-3.19-5.36-4.91-7.96-1.24-1.86-1.77-3.73-.44-5.65,1.34-1.94,3.39-2.11,5.47-1.54,1.03.28,2.15.71,2.92,1.41,6.95,6.24,11.72,13.71,12.78,23.21Z" style="fill: #000; stroke-width: 0px;"/>
  <path d="M304.38,393.39c.5-1.36.91-3.62,2.06-5.39,2.77-4.23,5.8-8.3,8.91-12.28.86-1.1,2.32-2.08,3.65-2.34,1.33-.26,3.35.01,4.15.89.8.87.77,2.84.54,4.23-.19,1.14-1.21,2.14-1.86,3.21-2.72,4.46-5.44,8.93-8.18,13.38-.45.73-.93,1.45-1.48,2.1-1.36,1.6-2.88,3.06-5.21,2.1-2.24-.93-2.46-3.01-2.59-5.89Z" style="fill: #000; stroke-width: 0px;"/>
  <path d="M381.17,394.04c-.14,2.51-.53,4.45-2.68,5.28-2.22.86-3.87-.36-4.99-2.05-2.66-4.03-5.14-8.18-7.71-12.28-1.24-1.98-2.54-3.93-3.73-5.95-.94-1.59-1.18-3.26.14-4.78,1.39-1.6,3.14-1.56,4.92-.77.78.34,1.6.75,2.18,1.34,4.69,4.75,8.72,9.98,11.2,16.26.42,1.07.51,2.26.66,2.96Z" style="fill: #000; stroke-width: 0px;"/>
  <path d="M354.87,379.04c-.02,3.25-1.19,5.04-3.17,5.5-1.96.45-4.26-.52-4.9-3.02-1.3-5.1-2.21-10.33-2.93-15.55-.27-1.98,1.12-3.58,3.23-4,2.05-.4,3.76.61,4.27,2.45,1.39,5.02,2.44,10.13,3.49,14.62Z" style="fill: #000; stroke-width: 0px;"/>
  <path d="M342.02,367.38c-.87,4.28-1.7,8.56-2.62,12.82-.18.81-.65,1.59-1.12,2.3-1.08,1.62-2.57,2.53-4.59,2-1.92-.51-2.75-2.02-2.91-3.83-.1-1.14.06-2.34.29-3.47.78-3.66,1.66-7.3,2.47-10.95.65-2.92,2.41-4.59,4.63-4.35,2.35.25,3.71,2.32,3.84,5.49Z" style="fill: #000; stroke-width: 0px;"/>
  <path d="M415.23,410.34c-.64.81-1.3,2.41-2.39,2.8-1,.36-2.94-.2-3.64-1.04-2.6-3.1-4.94-6.43-7.19-9.8-.8-1.19-1.43-2.74-1.43-4.13,0-1.21.68-2.85,1.61-3.5.84-.58,2.79-.56,3.64.05,5.09,3.67,7.98,8.81,9.4,15.62Z" style="fill: #000; stroke-width: 0px;"/>
  <path d="M270.33,410.3c1.47-6.8,4.36-11.87,9.33-15.53.87-.64,2.92-.63,3.83-.02.92.61,1.59,2.38,1.48,3.55-.16,1.63-.9,3.34-1.82,4.73-2.02,3.05-4.17,6.05-6.57,8.8-.8.91-2.72,1.66-3.76,1.32-1.14-.37-1.84-2.07-2.48-2.86Z" style="fill: #000; stroke-width: 0px;"/>
  <path d="M238.12,99.01c-1.24-.12-2.5-.15-3.72-.39-1.83-.35-3.22-1.32-3.41-3.33-.2-2,.91-3.29,2.67-3.95,3.51-1.32,7.19-1.8,10.82-.89,1.19.3,2.73,1.67,2.93,2.78.21,1.11-.72,3.11-1.72,3.63-2.29,1.2-4.92,1.73-7.41,2.54l-.16-.37Z" style="fill: #000; stroke-width: 0px;"/>
  <path d="M447.57,99.29c-2.32-.61-4.7-1.05-6.94-1.89-1.78-.66-3-2.1-2.62-4.21.36-2,1.92-2.95,3.74-2.92,3.1.06,6.22.23,9.26.78,2.56.46,3.73,2.22,3.54,4.24-.18,1.98-1.63,3.16-4.33,3.48-.85.1-1.71.14-2.56.2-.03.1-.07.2-.1.3Z" style="fill: #000; stroke-width: 0px;"/>
</svg>