<?xml version="1.0" encoding="UTF-8"?>
<svg id="Layer_1" data-name="Layer 1" xmlns="http://www.w3.org/2000/svg" viewBox="0 0 899.09 900">
  <path d="M1.01,350.77c-.39-42.81,4.15-85.07,15.22-126.45,10.63-39.73,22.65-79,41.19-115.98,18.68-37.26,45.13-67.62,79.2-91.52C159.38.87,184.5-2.56,211.32,1.85c35.68,5.87,66.99,21.06,94.13,44.65,21.1,18.34,35.2,41.67,45.22,67.55,5.52,14.27,9.28,29,10.26,44.3,1.36,21.29-3.39,41.12-14.84,59.25-7.02,11.12-14.71,21.68-24.61,30.47-2.42,2.14-2.2,2.91,1.04,3.82,11.81,3.3,23.95,3.9,35.81,1.56,15.21-3,30.15-7.35,45.22-11.08,9.85-2.44,19.71-5.16,29.98-4.27,4.46.39,8.81,1.9,13.24,2.75,1.79.34,3.94.92,5.45.27,9.79-4.23,19.88-4.1,29.88-1.81,15.03,3.43,29.94,7.38,44.85,11.32,15.67,4.14,31.41,5.38,47.35,1.97,1.85-.4,3.56-1.48,5.33-2.25-1.12-1.33-2.16-2.75-3.38-3.99-15.82-16.02-28.59-33.96-34.55-56-3.98-14.71-4.25-29.65-1.42-44.62,7.26-38.42,24-72.05,53.13-98.34,29.48-26.6,64.37-42.26,104.12-46.74,25.77-2.91,48.65,3.69,69.44,18.96,34.52,25.37,60.74,57.34,78.9,96.22,11.09,23.73,19.76,48.28,27.52,73.2,9.05,29.09,17,58.51,20.66,88.8,2.34,19.37,3.38,38.92,4.45,58.43,1.81,32.9-.99,65.67-3.58,98.43-1.89,23.91-3.67,47.83-6.09,71.68-1.85,18.3-4.79,36.48-11.03,53.91-5.07,14.14-12.49,26.7-25.97,34.41-15.8,9.04-32.64,10.01-49.61,4.2-21.47-7.35-41.54-17.83-60.97-29.46-21.48-12.86-42.71-26.14-64.07-39.19-.9-.55-2.08-.64-3.13-.95-.01,1.1-.24,2.24,0,3.28,5.44,23.35,10.98,46.68,16.39,70.04.93,4,1.14,8.16,2.07,12.16.49,2.13,1.36,4.51,2.83,6.01,7.24,7.38,15.45,13.92,22.01,21.85,11.93,14.41,22.67,29.7,29.32,47.52,5.19,13.91,7.39,28.35,9.07,42.97,1.96,17,1.07,33.96-.21,50.94-.63,8.39-3.34,16.03-7.04,23.5-5.56,11.26-10.14,23.05-16.35,33.93-21.38,37.41-53.74,56.9-97.02,58.32-18.23.6-36.02-1.98-53.79-5.4-20.66-3.97-41.42-7.23-62.51-7.82-3.79-.11-7.57-.68-11.36-1.04-10.52-1.01-20.85-.38-31,2.94-7.53,2.47-15.14,4.45-23.31,3.2-3.58-.55-7.36.38-11.04.29-3.24-.08-6.69-.03-9.67-1.1-17.59-6.28-35.46-5.6-53.8-4.37-24.56,1.65-48.65,5.77-72.75,10.2-19.18,3.52-38.46,4.41-57.73,1.61-32.51-4.73-57.77-21.41-75.65-48.71-6.61-10.09-11.41-21.38-16.91-32.19-2.1-4.14-4.15-8.35-5.69-12.71-2.09-5.93-4.56-11.94-5.31-18.1-3.13-25.54-2.34-51.03,2.71-76.33,3.8-19.07,11.98-36.11,23.05-52.04,9.61-13.82,20.79-26.06,33.59-36.9,2.08-1.76,2.97-3.84,3.2-6.57.32-3.88.95-7.77,1.84-11.56,5.55-23.65,11.23-47.27,16.82-70.91.22-.95,0-2,0-3-1.05.26-2.25.29-3.14.83-21.36,13.05-42.6,26.32-64.06,39.21-19.6,11.76-39.85,22.36-61.56,29.66-17.11,5.76-34.04,4.65-49.85-4.65-12.65-7.44-19.85-19.33-24.82-32.66-6.5-17.46-9.63-35.74-11.38-54.15-2.99-31.55-5.45-63.15-7.72-94.76-1.48-20.64-2.23-41.32-3.31-61.99.34-.01.67-.02,1.01-.04ZM306.8,482.15c0,7.7-.29,18.49.14,29.24.19,4.75,1.26,9.67,2.98,14.1,2.74,7.06,8.97,8.6,15.12,4.28,2.06-1.45,3.91-3.23,5.68-5.02,9.88-10,16.62-21.99,22.3-34.74,2.39-5.37,5.28-10.61,8.64-15.43,6.07-8.7,16.25-7.6,20.33,2.21,1.97,4.73,3.27,9.85,4.08,14.92,2.55,16.07,4.65,32.2,7.06,48.29,1.61,10.72,4.46,21.08,9.72,30.66,5.48,9.99,12.4,17.91,24.59,19.92,16.04,2.65,31.94,2.87,47.83-.79,6.99-1.61,12.39-5.45,16.61-11.32,7.14-9.9,11.62-20.89,13.55-32.81,2.83-17.41,5.05-34.92,7.87-52.33.94-5.79,2.29-11.7,4.59-17.06,4-9.31,14.01-10.18,19.83-1.93,3.08,4.37,5.56,9.19,8.09,13.93,3.77,7.08,6.93,14.51,11.09,21.34,4.67,7.67,10.31,14.76,17.65,20.15,5.99,4.39,12.1,2.94,15.02-3.91,1.78-4.18,2.67-8.87,3.21-13.42.52-4.37.17-8.86.05-13.3-.73-26.43-.65-52.82,3.53-79.04,2.78-17.45,4.28-34.94,17.06-49.42,8.18-9.27,11.6-21.48,12.28-34.31.6-11.37,1.89-22.76,3.83-33.98,2.19-12.69,3.17-25.4,2.15-38.17-.43-5.34-2.53-10.57-4.1-15.79-.75-2.5-2.46-2.57-4.34-.89-2.44,2.18-4.96,4.27-7.37,6.48-8.42,7.74-17.16,15.1-27.42,20.31-15.11,7.68-31.34,8.53-47.67,6.26-19.45-2.71-38.78-6.24-58.14-9.51-10.39-1.75-20.97-2.62-30.9-6.69-1.36-.56-3.32,0-4.91.4-3.57.92-7.02,2.44-10.63,3.06-24.45,4.22-48.91,8.42-73.42,12.35-26.13,4.18-50.08-.34-70.34-18.62-5.18-4.67-10.43-9.25-15.73-13.78-2.65-2.26-3.51-2.14-4.89,1.11-1.47,3.47-3.2,7.13-3.4,10.79-.53,9.68-1.05,19.46-.19,29.08,1.58,17.66,4.15,35.22,6.33,52.83.94,7.6,2.42,15.01,7.04,21.43,3.31,4.6,6.41,9.35,9.61,14.04,5.05,7.39,7.75,15.68,9.22,24.41,4.33,25.67,7.63,51.43,6.38,80.63ZM233.19,313.93c.03.44.06.88.09,1.32,5.28,0,10.56-.06,15.84.02,3.77.05,3.8-.06,3.66-3.89-.55-15.3-1.34-30.6-1.35-45.9-.01-9.1,1.79-18.14,5.64-26.49,5.71-12.36,16.6-15.25,27.95-7.82,4.77,3.13,9.66,6.07,14.44,9.18,1.8,1.17,3.22,1.11,4.76-.45,10.89-11,20.92-22.67,28.48-36.29,5.76-10.39,9.03-21.35,8.11-33.38-2.11-27.38-11.05-52.52-26.13-75.25-26.24-39.55-63.91-62.74-109.35-74.13-16.96-4.25-33.26-1.86-49.06,5.56-17.61,8.26-32.72,19.76-45.39,34.38-15.69,18.11-27.5,38.74-37.66,60.31-15.99,33.95-28.13,69.22-36.43,105.88-5.4,23.87-9.08,47.93-11.13,72.29-.29,3.42.76,5.35,3.83,6.66,3.4,1.45,6.61,3.31,10,4.8,10.2,4.49,20.64,8.06,31.95,8.51,9.81.39,19.62,1.05,29.42,1.72,22.8,1.55,45.6,2.03,68.38-.31,21.32-2.19,42.64-4.48,63.95-6.72ZM765.94,322.65c19.09-1.04,38.19-1.88,57.26-3.24,7.74-.55,15.66-1.41,23.04-3.65,8.53-2.59,16.54-6.87,24.78-10.39,2.49-1.06,3.24-2.79,3.03-5.53-1.97-25.97-6.06-51.57-12.17-76.91-12.34-51.21-30.44-99.99-59.54-144.26-13.97-21.25-31.8-38.18-54.42-50.06-18.42-9.68-37.47-12.37-57.67-6.89-17.45,4.74-33.96,11.57-49.48,20.85-45.95,27.46-73.01,67.59-81.24,120.51-2.36,15.19.65,29.11,8.39,42.28,7.56,12.87,17.15,24.05,27.58,34.59,1.57,1.59,2.98,1.56,4.76.4,4.78-3.12,9.64-6.1,14.42-9.21,11.17-7.3,21.58-4.59,27.69,7.3.82,1.59,1.66,3.26,2,4.99,1.4,7.14,3.61,14.3,3.7,21.48.19,15.5-.72,31.02-1.25,46.53-.12,3.62.06,4.08,3.48,3.81,18.76-1.5,37.38.5,55.96,2.57,19.85,2.21,39.64,4.93,59.7,4.85ZM875.51,316.04c-1.61.59-2.06.64-2.37.88-13.47,10.47-29.14,15-45.76,16.93-16.68,1.94-33.36,3.86-50.05,5.75-1.93.22-3.12.62-2.93,3.04.49,6.42.93,12.86,1.06,19.29.41,21.44-3.17,41.82-15.75,59.93-14.89,21.44-38.86,29.2-61.19,22.31-24.94-7.69-44.16-23.15-53.87-48.47-1.45-3.77-1.56-3.52-4.45-.89-3.06,2.79-6.74,4.9-10.12,7.34-2.35,1.69-5.41,2.99-6.81,5.28-2.94,4.83-5.98,9.97-7.18,15.39-1.77,7.98-2.08,16.3-2.79,24.5-.46,5.36-.53,10.76-.75,16.14-.06,1.46.04,2.83,2.16,2.6,7.93-.87,14.57,2.21,21,6.48,23.24,15.41,46.24,31.21,69.98,45.81,26.62,16.38,53.83,31.82,81.01,47.25,9.06,5.14,18.58,9.73,28.34,13.32,16.57,6.09,29.9-.05,37.22-16.05,4.79-10.46,7.4-21.55,9.61-32.77,5.28-26.8,7.71-53.91,9.81-81.11,2.98-38.59,3.89-77.22,3.84-115.89,0-5.46,0-10.91,0-17.06ZM24.88,316.53c-.18,3.14-.45,5.85-.48,8.56-.42,38.78.18,77.53,3.11,116.23,2.2,29.09,4.29,58.16,9.97,86.84,2.55,12.87,5.27,25.69,11.34,37.48,6.01,11.66,16.13,17.12,29,14.87,5.64-.99,11.38-2.8,16.44-5.45,18.88-9.91,37.78-19.86,56.16-30.67,26.39-15.54,52.46-31.65,78.41-47.91,12.52-7.85,24.5-16.57,36.68-24.95,5.48-3.77,11.41-6.17,18.11-5.49,3.33.34,3.74-1.03,3.56-3.68-.59-8.96-1.28-17.92-1.6-26.89-.33-9.54-3.01-18.26-7.96-26.38-1.92-3.15-4.38-5.37-7.81-7.04-3.71-1.8-7.17-4.35-10.26-7.11-3.05-2.72-2.74-2.82-4.65,1-3.24,6.48-6.17,13.31-10.53,19-9.09,11.84-21.18,20.12-34.69,26.47-19.7,9.25-48.5,5.9-65.37-14-11.33-13.36-17.06-29-19.25-46.12-1.6-12.54-.99-25.1,0-37.64.16-2.03.43-3.73-2.45-4.04-15.54-1.71-31.05-3.67-46.6-5.28-17.81-1.85-34.75-6.04-49.32-17.13-.31-.23-.76-.28-1.8-.65ZM324.53,778.73c-.3,0-.59,0-.89,0-.34,1.22-.72,2.43-1.01,3.66-1.02,4.4-1.35,9.11-3.14,13.17-4.15,9.35-15.26,11.04-22.68,3.96-4.84-4.62-6.97-10.49-7.95-16.87-.41-2.71-1.78-3.95-4.46-3.76-6.52.45-13.09.6-19.56,1.48-8.89,1.21-17.67,3.23-26.56,4.43-10.39,1.41-20.87,1.85-31.25-.2-9.54-1.89-15.31-8.62-15.97-18.3-.19-2.73-.12-5.5.04-8.24.65-11.49,1.39-22.98,2.08-34.48.05-.85,0-1.71,0-2.56-.27-.07-.54-.14-.81-.2-.76,1.08-1.57,2.14-2.28,3.26-10.95,17.24-17.41,36.14-20.2,56.25-2.1,15.13-.15,29.75,7.83,43.14,2.16,3.63,4.45,7.18,6.79,10.7,8.01,12.04,17.53,22.47,30.7,29.1,2.35,1.19,3.35.86,3.89-1.81,1.31-6.52,2.74-13.03,4.27-19.5,1.79-7.6,3.38-15.29,5.72-22.73,2.36-7.5,7.87-10.54,15.35-9.83,6.39.61,12.84.74,19.22,1.42,13.18,1.4,27.12-.07,38.14,9.89.58.52,2.87.21,3.41-.48,4.47-5.63,11.98-6.05,17.24-.79,1.35,1.35,2.5,1.02,3.87-.04,8.32-6.48,14.77-6.13,21.77,1.81,4.33,4.9,9.5,7.83,15.65,9.6,6.19,1.77,11.58,4.84,15.9,9.89,2.43,2.84,5.69,5,8.64,7.38,1.53,1.23,2.87,1.15,3.73-.91,4.68-11.21,13.03-19.92,20.14-29.46,3.2-4.29,7.71-6.18,13.15-6.57,4.48-.32,9.02-1.12,13.3-2.45,7.66-2.38,15.09-2.31,22.73.06,4.09,1.27,8.41,2.1,12.68,2.38,5.41.35,10.02,2.08,13.27,6.34,7.22,9.46,15.56,18.18,20.26,29.37.9,2.15,2.18,2.5,3.89,1.15,2.98-2.35,6.24-4.49,8.7-7.31,3.83-4.39,8.36-7.64,13.82-9.11,7.84-2.11,14.07-6.18,19.52-12.18,5.46-6.01,12.86-6.06,18.94-.68,2.31,2.04,3.67,1.75,5.84-.11,4.92-4.22,11.15-3.83,15.23.97,1.96,2.3,3.58,2.3,5.5.41,4.62-4.52,10.41-6.28,16.58-7.16,1.99-.28,3.97-.62,5.97-.78,11.67-.93,23.34-1.87,35.01-2.67,6.16-.42,10.59,2.44,13.2,7.96.98,2.08,1.71,4.33,2.23,6.58,2.91,12.56,5.75,25.13,8.53,37.71.52,2.34,1.37,3.11,3.65,1.81,6.53-3.73,12.84-7.7,18.11-13.21,7.95-8.31,14.46-17.65,20.04-27.63,4.42-7.91,7.43-16.33,7.78-25.54,1.05-27.16-7.45-51.55-21.52-74.33-.39-.64-1.03-1.13-2.03-2.22,0,2.28-.08,3.82.01,5.34.71,12.13,1.66,24.24,2.12,36.38.53,13.92-6.33,21.65-20.12,23.1-15.85,1.67-31.37-.77-46.91-3.56-8.28-1.49-16.73-2.11-25.13-2.78-4.63-.37-4.65.32-5.92,4.67-1.32,4.5-2.84,9.13-5.29,13.06-3.43,5.51-8.89,8.13-15.54,6.76-6.32-1.3-9.61-5.84-11.12-11.74-.81-3.16-1.08-6.45-1.68-9.67-.21-1.13-.69-2.21-1.28-4.06-.7,1.33-1.09,1.83-1.23,2.39-3.68,15.08-15.07,23.99-26.38,32.95-.97.77-2.21,1.25-3.38,1.72-8.96,3.59-16.79.98-23.96-4.61-11.66-9.08-19.37-21.04-24.94-34.54-.5-1.23-.99-2.46-1.78-4.4-1.19,1.5-2.04,2.36-2.64,3.36-3.5,5.81-8.68,9.1-15.27,10.26-17.44,3.06-34.89,3.06-52.34.05-6.58-1.14-11.87-4.23-15.38-10.08-.61-1.01-1.46-1.87-2.6-3.29-.73,1.49-1.19,2.39-1.61,3.3-1.35,2.98-2.52,6.06-4.07,8.94-6.12,11.38-13.5,21.75-24.69,28.76-9.39,5.88-18.8,5.17-27.23-1.93-2.74-2.31-5.21-4.96-8-7.21-7.17-5.76-11.81-13.13-14.54-21.82-.33-1.04-.77-2.05-1.15-3.08ZM532.61,489.87c-.26.03-.52.05-.79.08-.21,1.08-.49,2.15-.63,3.24-1.88,15.2-3.36,30.46-5.71,45.59-1.93,12.39-3.64,25.04-7.63,36.84-10.59,31.27-37.78,37.57-65.87,28.85-1.06-.33-2.46-.88-3.26-.46-6.75,3.5-14.17,3.36-21.38,3.8-18.78,1.14-32.55-7.28-41.78-23.31-4.37-7.58-6.83-15.95-8.05-24.58-3.15-22.28-6.07-44.58-9.09-66.88-.16-1.16-.45-2.3-.68-3.45-.28-.01-.56-.02-.84-.03-.52,1.22-1,2.46-1.58,3.65-3.39,7.03-6.48,14.23-10.27,21.04-5.73,10.28-12.53,19.91-21.35,27.77-14.99,13.38-34.11,9.36-42.91-8.64-4.08-8.35-4.66-17.23-4.41-26.29.25-8.98.42-17.96.59-26.93.02-1.09-.14-2.19-.28-4.28-1.47,1.61-2.26,2.51-3.08,3.37-3.43,3.58-6.68,7.34-10.35,10.66-4.93,4.46-10.15,8.6-15.31,12.81-2.42,1.98-3.27,4.35-3.12,7.5.49,10.35,1.19,20.84-2,30.84-5.78,18.1-12.11,36.03-18.19,54.03-.37,1.08-.61,2.2-1.17,4.25,4.37-2.23,7.91-3.82,11.23-5.77,13.93-8.17,29.24-10.28,44.73-8.19,22.75,3.08,45.17,8.09,65.77,18.93,9.33,4.91,19.11,9.24,27.66,15.28,10.05,7.1,18.85,15.95,28.5,23.65,2.83,2.26,6.58,4.05,10.12,4.57,5.16.75,10.52.15,15.79.12,12.25-.06,24.51-.47,36.74-.04,6.43.22,11.56-1.49,15.99-5.93,19.39-19.46,42.18-33.61,67.66-43.69,14.05-5.56,28.73-8.6,43.44-11.52,19.22-3.81,37.84-2.64,55.22,7.51,2.86,1.67,5.91,3.02,9.63,4.91-.31-1.68-.36-2.58-.65-3.38-3.62-10.03-7.35-20.03-10.9-30.09-6.1-17.3-11.6-34.77-9.61-53.49.54-5.07-1.39-8.26-5.15-11.34-8.87-7.3-18.39-13.94-25.26-23.41-.25-.34-.82-.46-1.81-.97,0,1.84-.02,3.17,0,4.5.2,11.3.52,22.6.57,33.9.03,7.08-1.73,13.79-5.11,20.07-6.86,12.71-18.95,17.66-32.37,13.08-6.2-2.11-10.92-6.38-15.08-11.23-11.23-13.09-20.31-27.52-26.45-43.7-.43-1.12-1.02-2.18-1.54-3.27ZM681.9,764.27c6.62-.33,6.45-.35,6.38-6.92-.16-16.26-.15-32.52-.14-48.77,0-2.2.2-4.47.73-6.6.65-2.6-.2-4.37-1.92-6.25-10.09-11.03-21.83-19.93-34.98-26.95-13.42-7.16-27.43-12.05-43.01-10.94-13.49.96-26.48,3.63-37.62,11.71-11.25,8.16-21.12,17.88-29.43,29.05-2.29,3.08-4.56,6.61-5.41,10.27-3.19,13.64-10.79,23.13-24.09,27.84-2,.71-2.61,1.9-1.88,3.91.69,1.88,1.27,3.81,1.83,5.73,3.14,10.74,6.2,21.51,9.42,32.23,1.67,5.56,5.16,9.95,9.97,13.1,1.17.76,3.67,1.12,4.55.41,4.31-3.49,9.49-6.72,12.1-11.32,5.33-9.37,10.87-18.82,13.06-29.71,1.33-6.62,6.58-10.27,12.92-9.64,5.15.51,8.69,3.65,11.5,7.64,1.76,2.49,3.14,5.25,4.69,7.89,1,1.71,2.05,2.09,4.14,1.21,3.24-1.35,6.81-2.89,10.17-2.76,11.27.44,22.55,1.22,33.75,2.57,14.46,1.74,28.83,4.16,43.24,6.29ZM211.3,733.35h.03c0,8.45.05,16.89-.02,25.33-.04,4.79.22,5.43,4.88,4.97,11.45-1.14,22.93-2.22,34.28-4.03,15.04-2.4,30.04-4.97,45.33-4.25,2.85.13,5.94.93,8.38,2.34,2.86,1.66,3.98.91,5.43-1.58,2.07-3.54,4.17-7.16,6.89-10.18,3.61-4.01,8.41-5.75,13.81-3.96,5.17,1.72,7.4,5.85,8.4,10.97.54,2.77,1.42,5.52,2.54,8.11,1.8,4.16,4.11,8.11,5.87,12.29,3.04,7.22,7.62,13.06,14.09,17.51,3.7,2.54,4.82,2.63,8.36-.27,4.03-3.3,6.96-7.39,8.46-12.38,3.8-12.64,7.51-25.31,11.26-37.97.72-2.44-.84-3.08-2.69-3.75-12.53-4.58-19.94-13.64-23.17-26.43-.61-2.42-1.6-4.83-2.86-6.98-6.65-11.27-16.16-20.03-25.88-28.5-17.49-15.25-38.32-19.54-60.48-15.54-22.73,4.1-41.17,16.87-57.7,32.56-4.27,4.05-6.41,7.99-5.52,14.53,1.22,8.92.3,18.12.3,27.2ZM727.14,720.15c.27-.15.53-.29.8-.44-.03-.61-.04-1.22-.11-1.83-3.04-25.64-15.28-47.19-32.53-65.29-11.31-11.86-24.2-22.85-39.85-29.45-1.55-.65-3.07-1.46-4.44-2.42-7.37-5.15-15.65-7.18-24.5-7.48-10.56-.36-20.76,1.85-31.07,3.72-24.16,4.38-45.8,14.77-66.17,27.81-9.28,5.94-17.42,13.68-26.1,20.56-6.87,5.44-12.65,11.87-17,19.46-4.47,7.77-8.65,15.72-12.84,23.64-1.04,1.96-1.04,3.64,1.68,4.73,10.19,4.08,20.66,4.11,31.2,2.28,6.45-1.12,11.3-4.77,14.57-10.65,4.04-7.26,8.35-14.38,12.71-21.46,1.43-2.32,3.17-4.52,5.11-6.43,4.5-4.45,9.02-8.94,13.87-12.99,27.94-23.33,59.97-27.68,92.82-14.99,33.83,13.06,60.01,36.93,79.45,67.8.74,1.18,1.61,2.28,2.43,3.42ZM171.64,719.66c.28.17.56.33.84.5.71-.97,1.47-1.91,2.12-2.92,1.84-2.83,3.52-5.78,5.48-8.53,15.46-21.67,35.15-38.61,57.95-52.2,16.16-9.63,33.32-14.58,52.2-13.76,19.12.83,37.05,5.02,52.27,17.37,8.69,7.05,17.58,14,23.81,23.5,4.44,6.77,8.46,13.82,12.38,20.9,3.49,6.31,8.7,10.07,15.67,11.1,9.9,1.46,19.78,1.74,29.35-2.15,3.42-1.39,4.01-1.89,2.41-5.33-2.53-5.45-5.33-10.78-8.23-16.05-4.59-8.35-9.6-16.46-16.83-22.86-6.01-5.32-11.98-10.71-18.32-15.62-23.3-18.04-49.14-30.71-78.18-36.59-11.11-2.25-22.18-4.44-33.59-3.67-7.16.48-13.89,2.31-20.16,5.97-3.99,2.33-8.29,4.13-12.42,6.23-2.05,1.05-4.21,2.01-6.01,3.41-5.83,4.52-11.35,9.45-17.3,13.8-6.21,4.54-11.73,9.65-16.12,15.97-3.86,5.55-7.77,11.07-11.67,16.58-9.43,13.32-12.79,28.74-15.65,44.33ZM156.81,341c0-.07,0-.14,0-.21-3.8,0-7.61.14-11.4-.05-2.9-.15-4.04.75-4.31,3.84-1.7,19.11,3.23,36.93,10.81,54.06,3.72,8.42,9.66,15.41,18.76,18.82,15.92,5.97,30.23,2.53,42.1-8.95,10.54-10.18,20.18-21.31,26.35-34.95,1.91-4.22,4.08-8.38,6.61-12.25,5.12-7.83,6.04-16.98,8.63-25.61.06-.2.04-.42.06-.63.19-1.89-.62-2.77-2.55-2.62-5.47.43-10.95.83-16.42,1.26-2.01.16-2.38,1.05-2.24,3.16.22,3.37.32,7.02-.74,10.14-2.65,7.81-9.01,12.86-15.05,17.97-7.67,6.48-16.26,10.35-26.71,9.36-7.44-.71-12.71-3.96-15.82-10.8-2.77-6.09-3.91-12.44-3.57-19.11.22-4.32.07-4.36-4.07-4.06-3.47.26-6.95.4-10.43.59ZM743.07,340.78c0,.08,0,.16,0,.24-3.58-.2-7.17-.35-10.75-.61-4.09-.3-4.23-.25-4,3.72.38,6.66-.69,13.05-3.43,19.14-2.22,4.95-5.57,8.89-10.99,10.18-7.01,1.66-14.16,1.81-20.78-1.46-9.74-4.8-17.76-11.78-23.94-20.71-2.9-4.19-4.36-9-2.89-14.13.72-2.52-.17-3.3-2.44-3.46-5.27-.38-10.53-.77-15.79-1.21-2.52-.21-3.4,1.02-2.77,3.23,2.4,8.47,3.32,17.41,8.31,25.05,1.96,2.99,3.77,6.14,5.21,9.41,6.49,14.78,16.58,27.01,27.89,38.12,19.26,18.91,51,16.42,62.59-12.75,2.22-5.58,3.62-11.47,5.64-17.14,3.99-11.21,3.94-22.79,3.51-34.44-.09-2.5-1.31-3.25-3.64-3.19-3.9.11-7.81.03-11.72.03ZM358.21,859.61c.04-.38.08-.76.12-1.15-1.57-.7-3.08-1.63-4.73-2.05-7.81-1.98-14.54-5.65-19.59-12.07-1.33-1.69-2.91-2.33-5-1.42-3.99,1.75-7.74,1.05-11.58-.8-1.41-.68-3.59-.87-5-.28-9.25,3.92-18.69,1.37-24.8-6.66-1.07-1.41-3.17-2.73-4.87-2.84-10.43-.65-20.89-.89-31.33-1.37-2.84-.13-3.87,1.05-4.17,3.82-.84,7.93-2.88,15.56-6.57,22.7-1.75,3.38-3.41,6.8-5.07,10.22-1.63,3.33-1.42,3.8,2.25,4.75,2.45.63,4.92,1.3,7.42,1.66,17.01,2.41,33.95,1.47,50.75-1.74,19.92-3.8,39.78-7.86,59.67-11.83.86-.17,1.67-.62,2.5-.94ZM541.33,858.54c.02.3.04.61.06.91,1,.38,1.96.92,2.99,1.13,17.08,3.42,34.23,6.55,51.25,10.24,16.11,3.5,32.33,5.22,48.76,4.33,6.07-.33,12.07-1.86,18.1-2.86,2.61-.44,3-1.79,1.8-4.06-1.69-3.17-3.14-6.46-4.79-9.65-3.89-7.5-6.26-15.47-7.06-23.85-.3-3.07-1.71-3.89-4.53-3.76-10.23.48-20.47.68-30.69,1.36-1.87.12-4.15,1.6-5.34,3.14-5.98,7.73-15.68,10.26-24.66,6.4-1.46-.63-3.74-.32-5.25.38-3.65,1.69-7.22,2.38-10.99.76-2.22-.96-3.83-.32-5.28,1.45-5.15,6.28-11.76,10.13-19.64,12-1.64.39-3.15,1.37-4.72,2.08ZM484.9,745.31c-.51-.02-1.02-.04-1.52-.06-2.12-1.78-4.19-3.63-6.38-5.33-.98-.76-2.12-1.43-3.3-1.76-6.09-1.74-12.15-3.67-18.34-4.91-3.42-.69-7.2-.75-10.61-.07-6.5,1.31-12.87,3.33-19.27,5.12-.89.25-1.81.67-2.53,1.25-2.34,1.88-4.58,3.87-7.66,6.49,1.69,3.51,3.68,7.87,5.88,12.13,1.44,2.79,3.99,4.07,7.09,3.89,3.89-.23,7.76-1,11.64-.94,9.45.15,18.9.68,28.35.97,3.46.11,7.36.61,9.47-2.92,2.67-4.46,4.82-9.23,7.19-13.87ZM450.1,865.18c.98-.16,2.23-.32,3.46-.56,9.82-1.95,19.65-3.9,29.46-5.9,1.06-.22,2.07-.71,3.1-1.08-.5-.98-.85-2.09-1.53-2.91-4.27-5.09-8.7-10.05-12.91-15.18-1.59-1.93-3.33-2.76-5.77-2.4-10.74,1.56-21.46,1.44-32.22.08-1.55-.2-3.8.45-4.81,1.54-4.99,5.43-9.69,11.13-14.47,16.76-1.47,1.73-1.11,2.71,1.23,3.15,10.46,2,20.89,4.09,31.34,6.13.93.18,1.88.23,3.12.37ZM429.66,665.92c.2.73.24,1.26.48,1.67,6.63,11.47,11.2,23.59,11.86,36.98.1,1.99,1.28,3.02,3.33,3.01,2.74,0,5.49-.07,8.22.05,2.83.13,4.02-1.19,4.16-3.9.68-12.61,5.1-24.03,11.21-34.91.48-.86.87-1.77,1.42-2.9h-40.68ZM215.21,336.87c-.77-.49-1.04-.81-1.28-.79-7.78.55-15.55,1.08-23.31,1.78-.78.07-2.03,1.24-2.07,1.96-.26,4.38-.86,8.88-.14,13.14.94,5.59,5.18,7.2,9.86,3.9,7.26-5.12,12.08-12.44,16.95-19.99ZM697.11,336.75s0,.03,0,.05c-3.26-.27-6.52-.59-9.79-.77-.75-.04-1.67.25-2.22.72-.23.2.1,1.42.49,1.92,4.33,5.44,8.58,10.95,13.17,16.17,1.37,1.55,3.62,2.58,5.66,3.2,3.22.99,4.88-.11,6.25-3.18,2.24-5.04,1.2-10.19.34-15.26-.13-.79-1.81-1.72-2.87-1.86-3.66-.5-7.35-.69-11.04-1Z" style="fill: #000; stroke-width: 0px;"/>
  <path d="M450.28,373.55c.49-1.1,1.04-2.18,1.45-3.31,2.96-8.25,5.57-16.64,8.95-24.72,1.71-4.09,4.87-7.56,7.17-11.44.66-1.11,1.04-2.76.75-3.97-.47-2.02-1.49-3.94-2.44-5.83-3.32-6.62-4.97-13.66-5.62-20.99-.34-3.78-.9-7.55-1.46-11.31-.34-2.26-.26-4.36,2.11-5.39,2.22-.97,3.93.2,5.16,1.97,4.39,6.34,8.9,12.6,12.96,19.14,1.63,2.62,2.46,5.82,3.21,8.87,1.26,5.11,2.11,10.33,3.26,15.47.24,1.07.86,2.25,1.67,2.98,6.39,5.74,10.2,13.19,13.64,20.79,6.7,14.82,13.11,29.78,19.65,44.67.48,1.1,1.03,2.17,1.55,3.25.25-.07.5-.14.76-.22,0-1.81.14-3.64-.02-5.43-1.86-20.82-1.4-41.58,1.44-62.29.64-4.69,1.08-9.47,4.41-13.36.31-.36-.58-2.5-1.4-2.97-6.6-3.8-11.53-9.25-15.53-15.55-1.56-2.46-2.77-5.25-3.56-8.05-.88-3.13-.1-6.13,2.73-8.18,2.43-1.75,6.11-1.61,8.85.68,2.24,1.88,4.31,4.07,6.06,6.41,4,5.36,8.21,10.41,13.77,14.3,4.61,3.23,6.5,7.93,5.79,13.56-.28,2.19-.46,4.48-1.24,6.52-2.77,7.26-3.28,14.8-3.3,22.44-.04,19.97.02,39.93-.19,59.9-.04,4.06-.47,8.33-1.82,12.11-3.92,10.99-15.45,12.88-23,3.99-1.7-2-3.1-4.28-4.5-6.51-1.07-1.7-2.35-2.25-4.26-1.56-1.89.67-3.87,1.1-5.75,1.79-5.77,2.12-11.7,2.81-17.78,1.96-11.08-1.55-22.25-2.68-31.95-9.24-1.09-.74-3.67-.13-5.12.66-13.43,7.31-27.76,9.79-42.81,8.12-3.62-.4-7.17-1.79-10.63-3.06-2.73-1-4.24-.29-5.69,2.15-1.56,2.61-3.41,5.13-5.53,7.29-5.87,5.99-14.88,5.33-19.34-1.76-1.99-3.17-3.27-7.17-3.63-10.92-.64-6.6-.37-13.29-.41-19.95-.1-16.9,0-33.8-.34-50.7-.1-4.67-1.44-9.33-2.32-13.97-.33-1.76-.99-3.45-1.42-5.19-2.02-8.2.4-14.39,7.37-19.55,4.4-3.25,7.67-8.03,11.42-12.15,1.85-2.02,3.5-4.25,5.51-6.1,2.93-2.69,6.55-3.09,9.34-1.39,2.75,1.68,4.07,5.14,2.86,8.97-.88,2.78-2.17,5.52-3.76,7.96-3.88,6-8.54,11.3-14.97,14.74-2.26,1.21-2.54,2.26-.88,4.62,1.63,2.31,2.6,5.33,3.07,8.18,2.49,15.36,3.65,30.84,3.12,46.41-.26,7.6-.87,15.18-1.29,22.77-.04.78.1,1.57.88,2.59.49-.94,1.03-1.85,1.46-2.82,7.23-16.32,14.34-32.7,21.72-48.95,2.84-6.25,6.34-12.19,11.63-16.84.82-.72,1.5-1.87,1.75-2.93,1.11-4.72,1.79-9.55,3.12-14.2,1.23-4.32,2.58-8.76,4.78-12.62,3.23-5.67,7.24-10.9,10.96-16.29,1.32-1.91,2.95-3.61,5.52-2.57,2.75,1.11,2.57,3.52,2.13,5.94-.32,1.76-.69,3.54-.76,5.33-.46,10.7-2.65,20.94-7.85,30.41-1.52,2.77-.81,4.59,1.11,7.25,3.47,4.8,6.21,10.26,8.52,15.75,2.7,6.41,4.62,13.14,6.91,19.73.3.85.73,1.66,1.1,2.49.32.03.64.06.96.09ZM421.23,350.26c-.31-.08-.62-.17-.93-.25-1.46,2.48-3.23,4.82-4.33,7.45-5.2,12.45-10.25,24.97-15.27,37.5-3.18,7.91-3.14,8.18,5.35,9.07,8.51.89,16.81-.72,24.87-3.5,2.32-.8,3.17-2.22,1.84-4.63-4.39-7.99-6.4-16.68-7.65-25.63-.79-5.64-1.87-11.23-2.88-16.83-.2-1.08-.66-2.12-.99-3.17ZM478.76,349.64c-.58,1.53-1.03,2.34-1.19,3.21-.92,4.76-2.03,9.5-2.58,14.31-1.09,9.39-2.94,18.54-7.11,27.09-2.33,4.77-2.13,5.65,2.98,7.07,9.11,2.52,18.33,3.88,27.82,2.16,2.69-.49,3.08-1.38,2.16-3.76-3.37-8.76-6.38-17.66-9.97-26.33-2.86-6.9-6.34-13.55-9.62-20.27-.51-1.06-1.38-1.94-2.5-3.47Z" style="fill: #000; stroke-width: 0px;"/>
  <path d="M277.44,292.74c0-4.01-.06-8.02.02-12.03.1-5.14,2.62-8.58,6.58-9.17,4.37-.65,7.79,1.66,9.48,6.58.58,1.69,1.11,3.46,1.21,5.23,1.25,22.03,7.62,42.95,13.67,63.95.96,3.35,2.11,6.64,3.1,9.98,1.07,3.61.35,6.35-2.1,7.92-2.92,1.87-5.81,1.22-8.19-.88-5.98-5.25-10.26-11.86-13.08-19.18-6.49-16.83-11.28-34.08-10.68-52.39Z" style="fill: #000; stroke-width: 0px;"/>
  <path d="M622.11,293.45c.87,17.15-3.85,34.68-10.69,51.61-2.45,6.05-6.88,11.3-10.42,16.91-.28.44-.71.79-1.09,1.15-3.36,3.15-6.94,3.94-9.72,2.14-2.72-1.75-3.07-4.76-1.75-9.43,4.5-15.85,9.13-31.66,13.1-47.64,1.75-7.02,1.98-14.42,3-21.63.41-2.92.8-5.89,1.69-8.67,1.5-4.66,5.36-7.18,9.26-6.49,3.75.65,6.47,4.23,6.6,8.92.11,3.91.02,7.82.02,13.14Z" style="fill: #000; stroke-width: 0px;"/>
  <path d="M591.42,301.88c-1.13,11.12-3.99,23.6-10.64,34.94-1.31,2.24-3.37,4.04-5.02,6.09-2.17,2.69-4.38,5.35-6.4,8.15-1.21,1.68-2.45,3.16-4.63,2.14-2.23-1.04-1.69-2.98-1.26-4.95.65-2.96.99-5.99,1.49-8.99.88-5.29,1.59-10.63,2.72-15.87,1.82-8.46,3.99-16.84,5.88-25.29,1.58-7.07,4.96-10.54,10.07-10,5.06.53,7.86,4.8,7.81,13.77Z" style="fill: #000; stroke-width: 0px;"/>
  <path d="M334.06,338.64c.71,3.48,1.6,6.93,2.02,10.45.16,1.31-.8,2.75-1.25,4.13-1.44-.51-3.34-.61-4.24-1.61-3.15-3.5-6-7.27-8.88-11-1.48-1.91-3.05-3.82-4.12-5.96-5.58-11.17-8.95-22.96-9.32-35.51-.04-1.46.1-2.97.46-4.38.95-3.8,4.04-6.45,7.53-6.67,3.73-.23,6.87,1.75,8.47,5.41.42.96.73,1.98.97,3,2.51,10.57,5.05,21.12,7.46,31.71.77,3.38,1.15,6.84,1.72,10.27l-.83.16Z" style="fill: #000; stroke-width: 0px;"/>
  <path d="M37.62,293.53c1.27-28.62,5.8-56.71,13.12-84.37,8.27-31.24,19.34-61.42,34.18-90.16,2.11-9.78,9.84-16.46,13.92-25.18,1.54-3.29,4.09-6.14,6.36-9.05,1.08-1.39,2.41-3.03,3.96-3.51,2.03-.63,4.86-1.01,6.47-.04,1.6.96,2.7,3.66,2.94,5.72.2,1.77-.81,3.91-1.81,5.57-29.04,48.24-48.04,100.19-57.77,155.6-2.58,14.66-5.27,29.3-7.99,43.94-.48,2.58-1.16,5.16-2.09,7.62-1,2.65-2.93,4.51-6.03,4.11-2.94-.38-4.27-2.54-4.76-5.22-.31-1.65-.33-3.35-.48-5.03Z" style="fill: #000; stroke-width: 0px;"/>
  <path d="M73.5,262.23c1.64-9.11,2.72-18.6,5.11-27.75,6.39-24.41,12.89-48.81,20.21-72.95,6.35-20.95,15.83-40.72,25.41-60.37.77-1.58,1.86-3.11,3.12-4.34,2.39-2.36,6.29-2.72,8.79-1.1,2.42,1.56,3.29,4.43,2.15,7.9-1.18,3.61-2.33,7.26-3.89,10.72-14.68,32.68-25.59,66.59-33.61,101.48-3.03,13.16-6.67,26.19-9.78,39.33-1.38,5.84-2.13,11.83-3.21,17.75-.17.92-.54,1.82-.93,2.69-1.02,2.3-2.68,3.82-5.32,3.82-2.78,0-4.77-1.55-5.43-4.07-1.09-4.14-1.71-8.4-2.62-13.1Z" style="fill: #000; stroke-width: 0px;"/>
  <path d="M108.74,261.58c.69-15.94,3.67-30.69,9.44-44.79,6.8-16.61,13.88-33.09,20.77-49.67,2.71-6.53,5.2-13.15,7.84-19.72.63-1.56,1.33-3.12,2.2-4.55,1.85-3.04,4.42-4.2,6.8-3.09,2.94,1.37,3.35,3.95,2.67,6.71-1.55,6.36-2.74,12.87-5,18.97-5.71,15.43-11.66,30.79-18,45.97-6.72,16.09-13.83,32.01-15.86,49.58-.4,3.46-.67,6.94-1.13,10.39-.34,2.55-1.28,4.92-4.32,5.01-3.09.1-4.13-2.29-4.47-4.81-.49-3.55-.68-7.14-.94-10.01Z" style="fill: #000; stroke-width: 0px;"/>
  <path d="M139.45,251.22c-.19-10.57,3.63-20.17,7.76-29.51,6.02-13.61,12.72-26.92,19.23-40.31,1-2.06,2.19-4.33,3.93-5.66,1.53-1.17,4.07-1.84,5.95-1.51,2.52.43,3.58,2.91,3.31,5.44-.24,2.29-.67,4.63-1.48,6.78-2.95,7.8-6.2,15.48-9.13,23.28-4.42,11.75-8.62,23.59-13.02,35.35-1.63,4.35-3.46,8.62-5.38,12.85-.59,1.3-1.6,2.53-2.71,3.44-3.03,2.48-6.9,1.19-7.97-2.59-.34-1.2-.4-2.5-.47-3.76-.08-1.26-.02-2.53-.02-3.8Z" style="fill: #000; stroke-width: 0px;"/>
  <path d="M861.65,286.91c0,2.76.16,6.56-.04,10.35-.2,3.75-2.19,6.18-4.88,6.57-2.88.41-5.64-1.4-6.51-5.25-1.87-8.23-3.55-16.52-4.9-24.85-6.54-40.23-15.25-79.88-30.83-117.73-9.06-22-19.24-43.45-31.83-63.69-.39-.63-.75-1.28-1.04-1.96-1.57-3.7-.84-7.32,1.83-9.16,2.68-1.85,6.66-1.56,9.07,1.7,4.94,6.68,9.33,13.77,13.99,20.66,1.47,2.17,3.05,4.26,4.57,6.39.55.77,1.22,1.49,1.59,2.34,3.44,7.91,6.7,15.9,10.26,23.76,18.71,41.39,31.3,84.5,36.69,129.65.8,6.7,1.31,13.44,2.05,21.23Z" style="fill: #000; stroke-width: 0px;"/>
  <path d="M825.98,263.04c-.8,4-1.44,8.05-2.47,11.99-.69,2.64-2.6,4.38-5.54,4.37-2.94,0-4.87-1.78-5.51-4.42-1.25-5.11-2.09-10.33-3.15-15.49-1.46-7.13-2.71-14.32-4.49-21.38-4.2-16.59-8.7-33.09-13-49.65-6.38-24.61-15.52-48.23-25.55-71.53-1.84-4.26-3.4-8.65-4.92-13.04-1.29-3.74-.47-6.58,2.07-8.19,2.73-1.73,6.72-1.16,9.24,1.58,1.2,1.3,2.2,2.86,2.97,4.45,13.52,28,25.89,56.41,33.06,86.86,3.07,13.05,6.97,25.9,10.53,38.83,3.2,11.64,5.74,23.38,6.75,35.61Z" style="fill: #000; stroke-width: 0px;"/>
  <path d="M790.82,260.84c-.35,3.67-.58,7.36-1.08,11.01-.34,2.46-1.54,4.59-4.39,4.57-2.87-.02-3.95-2.21-4.28-4.67-.67-4.91-1.07-9.87-1.78-14.77-2.4-16.62-9.13-31.8-15.93-46.93-9.11-20.26-17.24-40.86-22.11-62.61-.25-1.12-.73-2.45-.36-3.4.6-1.55,1.54-3.61,2.83-4.07,1.45-.52,3.76.04,5.13.97,1.37.92,2.3,2.75,2.97,4.38,10.45,25.26,20.99,50.5,31.16,75.87,4.88,12.16,7.67,28.69,7.83,39.66Z" style="fill: #000; stroke-width: 0px;"/>
  <path d="M760.27,251.16c-.22,2.51-.14,5.1-.74,7.52-1.02,4.15-5.31,5.32-8.33,2.3-1.37-1.37-2.47-3.2-3.16-5.02-2.61-6.8-4.86-13.73-7.49-20.51-4.55-11.72-9.35-23.33-13.9-35.05-2.29-5.9-4.29-11.91-6.35-17.9-.37-1.07-.77-2.47-.38-3.39.77-1.81,1.75-4.1,3.28-4.83,1.39-.66,3.92.05,5.44.99,1.5.93,2.64,2.75,3.47,4.42,9.24,18.39,19.32,36.43,25.4,56.23,1.5,4.9,2.15,10.05,3.19,15.09-.14.05-.29.11-.43.16Z" style="fill: #000; stroke-width: 0px;"/>
  <path d="M272.95,508.49c.6-.39.96-.59,1.28-.84,3.96-3.03,8.04-1.8,9.1,3.06,1.74,7.94,1.16,15.96-.18,23.91-.38,2.26-1.74,4.17-4.4,4.32-2.79.16-4.26-1.67-5.04-4-.66-1.98-.93-4.08-1.9-6.26-.14,1-.32,1.99-.41,2.99-.48,5.57-.8,11.16-1.44,16.72-.27,2.37-1.01,4.74-1.85,6.99-.74,1.97-2.35,3.84-4.53,2.94-1.4-.58-2.82-2.6-3.06-4.15-.48-3.09-.35-6.32-.11-9.46.87-11.15,1.91-22.29,2.85-33.44.24-2.9.3-5.96,3.78-6.9,3.25-.87,4.68,1.6,5.89,4.14Z" style="fill: #000; stroke-width: 0px;"/>
  <path d="M627.31,529.02c-.61,2.22-1.05,4.5-1.87,6.63-.81,2.1-2.56,3.89-4.84,3.14-1.62-.53-3.7-2.26-4.01-3.78-1.68-8.21-2.26-16.57-.25-24.8,1.17-4.78,5.07-5.39,9.9-1.95.18-.1.45-.15.53-.3,1.13-2.32,2.55-4.34,5.53-3.65,3.02.7,3.61,3.18,3.83,5.86,1.01,12.21,2.11,24.41,3.05,36.62.21,2.72.18,5.54-.38,8.18-.28,1.33-1.85,3-3.12,3.3-1.07.25-3.22-.96-3.73-2.05-1.21-2.63-2.1-5.54-2.46-8.41-.79-6.26-1.17-12.58-1.71-18.88-.15.03-.3.06-.45.08Z" style="fill: #000; stroke-width: 0px;"/>
  <path d="M368.67,560.71c-.58,6.14-1.13,13.07-1.99,19.96-.15,1.21-1.38,2.94-2.44,3.23-1.23.34-3.57-.19-4.13-1.12-2.48-4.11-5.16-8.3-6.53-12.83-2.72-8.97-2.76-18.33-1.89-27.63.2-2.15.78-4.44,1.83-6.3,2.6-4.58,8.41-4.57,11.04-.02,1.03,1.78,1.7,3.9,1.98,5.95.82,5.95,1.37,11.93,2.11,18.76Z" style="fill: #000; stroke-width: 0px;"/>
  <path d="M530.98,560.88c.67-6.52,1.16-12.62,1.99-18.67.31-2.24,1.07-4.58,2.22-6.52,2.37-4,7.57-4.15,10.32-.38.96,1.32,1.77,2.99,1.98,4.58,1.58,12.07,1.41,24.04-3.42,35.47-1.09,2.58-2.64,5.09-4.48,7.19-.89,1.02-3.09,1.68-4.39,1.33-1.08-.29-2.28-2.22-2.44-3.54-.78-6.59-1.24-13.22-1.78-19.46Z" style="fill: #000; stroke-width: 0px;"/>
  <path d="M571.06,567.08c-1.63,5.74-3.08,11.56-5.01,17.2-.68,1.97-2.31,3.85-3.96,5.22-4.05,3.36-9.07,1.67-10.31-3.44-.51-2.1-.61-4.45-.27-6.58,1.3-8.01,2.68-16.03,4.47-23.94.41-1.8,2.42-4.14,4.06-4.49,1.67-.35,4.25,1,5.63,2.39,3.59,3.63,4.89,8.29,4.44,13.42l.93.23Z" style="fill: #000; stroke-width: 0px;"/>
  <path d="M329.43,566.55c-.41-5.13,1.02-9.75,4.59-13.36,1.3-1.32,3.82-2.49,5.44-2.14,1.6.35,3.6,2.5,3.99,4.2,1.82,7.9,3.25,15.89,4.57,23.89.37,2.23.25,4.69-.27,6.89-1.23,5.25-6.49,6.87-10.52,3.27-1.53-1.37-3.06-3.14-3.69-5.03-1.91-5.76-3.39-11.66-5.04-17.5.31-.07.61-.15.92-.22Z" style="fill: #000; stroke-width: 0px;"/>
</svg>