<?xml version="1.0" encoding="UTF-8"?>
<svg id="Layer_1" data-name="Layer 1" xmlns="http://www.w3.org/2000/svg" viewBox="0 0 629.03 900">
  <path d="M519.32,289.45c1.63.38,2.86.77,4.13.94,7.61,1.01,15.25,1.83,22.85,2.96,33.33,4.96,54.09,24.9,65.28,55.68,2.67,7.35,4.52,15.21,5.32,22.98,2.19,21.16-10.3,41.67-29.93,51.45-16.6,8.28-34.27,11.48-52.56,12.16-5.72.21-11.46.1-17.18-.09-2.35-.08-3.38.69-4.22,2.92-4.68,12.48-11.97,23.09-23.37,30.36-3.06,1.95-6.71,2.95-10,4.57-1.14.56-2.73,1.6-2.87,2.59-1.55,10.74-7.56,19.14-14.08,27.23-1.98,2.45-2.54,4.77-2.3,7.85.86,11.16-.53,22.1-4.58,32.57-.89,2.3-.39,3.44,1.49,4.83,14.05,10.39,25.47,23.04,33.13,38.9,4.33,8.97,7.3,18.36,7.69,28.28.5,12.68.87,25.4.33,38.06-.65,15.02-9.4,24.06-24.22,26.55-2.42.41-4.87.69-7.3,1-1.79.22-2.23,1.06-1.53,2.74,3,7.14,4.32,14.5,2.89,22.22-.45,2.43,1.29,2.84,3.06,3.32,8.39,2.31,16.89,4.29,25.12,7.09,13.53,4.61,26.16,11.1,35.54,22.21,6.25,7.4,11.97,15.33,17.2,23.48,4.96,7.73,6.7,16.68,6.9,25.83.19,8.26-3.37,14.92-10.87,18.14-17.55,7.52-35.76,13.17-54.81,15.3-10.53,1.18-20.78-1.32-30.85-4.33-4.32-1.29-8.65-2.54-12.94-3.91-1.79-.57-2.73-.12-3.66,1.57-5.71,10.29-14.38,16.38-26.27,16.29-6.71-.06-11.03,2.03-14.91,7.65-2.97,4.3-7.69,7.57-12.11,10.61-3,2.06-5.26,4.2-6.68,7.59-4.19,10.02-11.09,17.71-21.02,22.24-3.37,1.54-7.2,2.33-10.9,2.81-2.65.35-4.51,1.19-6.21,3.25-12.98,15.76-36.46,19.4-52.52,8-3.46-2.46-6.21-5.9-9.43-8.74-1.15-1.02-2.67-2.16-4.08-2.25-13.62-.82-23.54-7.91-29.97-19.23-4.03-7.09-8.3-13.07-15.39-17.47-4.15-2.58-7.07-7.27-10.25-11.25-1.49-1.86-3.01-2.83-5.38-2.86-3.27-.04-6.59-.03-9.81-.51-9.99-1.5-17.36-7-22.28-15.68-1.26-2.22-2.4-2.5-4.63-1.83-7.16,2.16-14.31,4.36-21.57,6.13-12.16,2.96-24.35,2.95-36.46-.52-9.75-2.8-19.5-5.56-29.22-8.47-2.83-.85-5.62-1.95-8.3-3.21-10.38-4.9-13.97-12.13-12.88-23.6,1.31-13.89,8.11-25.01,16.05-35.95,14.45-19.9,34.77-29.91,57.79-35.74,3.67-.93,7.35-1.87,11.04-2.69,2.09-.47,2.94-1.5,2.53-3.69-1.34-7.28-.19-14.31,2.67-21.04,1.12-2.64.28-3.43-2.25-3.75-3.55-.45-7.15-.84-10.58-1.79-10.55-2.93-17.6-9.88-19.03-20.67-2.48-18.76-2.58-37.71,1.86-56.2,4.75-19.8,16.53-35.44,31.78-48.57,2.25-1.94,4.59-3.78,6.99-5.52,1.58-1.14,1.95-2.28,1.23-4.16-4.28-11.19-5.54-22.79-4.65-34.71.13-1.79-.76-4.02-1.9-5.48-5.04-6.5-10.56-12.92-12.52-20.95-1.55-6.37-4.44-9.39-10.57-12.02-13.82-5.91-21.72-17.89-27.32-31.4-1.72-4.15-1.53-3.98-6.17-3.85-23.79.67-47.09-1.48-68.73-12.63-17.19-8.86-26.44-23.31-29.37-42.08-.47-2.99-.3-6.16.08-9.18,2.52-20.09,9.58-38.22,23.15-53.6,13.05-14.79,29.62-22.54,48.89-25.08,6.9-.91,13.82-1.74,20.72-2.64,1.39-.18,2.76-.51,4.85-.89-1.07-1.26-1.68-2.1-2.42-2.82-6.2-6.02-8.26-13.28-6.22-21.61.5-2.03.13-3.22-1.62-4.35-4.79-3.1-8.19-7.44-10.26-12.7-.96-2.44-2.48-3.29-5-3.67-31.88-4.91-56.81-20.64-73.77-48.28C3.04,184.87.76,172.16.12,159.11c-.98-20.04,4.09-38.7,12.33-56.78,8.47-18.56,18.8-35.89,31.77-51.66,5.98-7.27,12.95-13.4,20.83-18.48,15.09-9.74,30.65-18.7,47.7-24.52,38.97-13.29,75.88-9.15,110.19,14.17,3.18,2.16,5.38,2.25,9.01.49,11.04-5.35,22.55-7.16,34.3-1.67.65.3,2.22-.18,2.67-.8,4.46-6.26,10.61-10,17.58-12.89,9.49-3.93,17.2-2.68,24.46,4.52q3.27,3.24,6.43.12c7.44-7.35,15.07-8.6,24.71-4.59,6.97,2.9,13.08,6.71,17.53,12.97.41.57,1.91,1.04,2.44.74,9.1-5.07,18.51-3.28,27.84-1.23,2.83.62,5.62,2.01,8.09,3.57,2.21,1.4,3.72,1.03,5.84-.14,9.58-5.28,18.88-11.35,29.01-15.29,28.17-10.95,56.72-9.66,84.73.72,19.75,7.32,38.25,17.31,54.89,30.4,9.53,7.5,16.53,17.3,23.42,27.12,12.15,17.31,21.73,36.03,27.91,56.2,7.39,24.13,7.61,48.37-3.75,71.57-6.47,13.2-16.57,23.53-28.56,32-14.3,10.1-29.86,17.03-47.43,18.88-2.08.22-3.29,1.13-4.09,3.09-2.26,5.54-5.82,10.05-10.78,13.49-.83.58-1.61,2.26-1.38,3.19,2.19,9.12-.02,16.81-6.94,23.15-.49.45-.84,1.06-1.55,1.98ZM131.01,229.13c-.2-1.61-.61-2.66-.39-3.57.48-2.01.7-4.63,2.06-5.79,4.85-4.14,12.24-6.64,16.92,1.25,11.34,19.11,15.26,39.07,7.8,60.61-3.34,9.65-9.49,16.39-19.08,19.85-3.85,1.39-7.74,2.9-11.75,3.54-10.91,1.73-21.84,3.41-32.83,4.42-23.3,2.14-41.71,11.23-51.34,33.96-4.52,10.67-7.9,21.55-7.8,33.25.09,10.32,4.75,17.64,14.62,21.19,3.84,1.38,7.78,2.71,11.79,3.4,10.29,1.76,20.64,3.17,30.98,4.67,14.49,2.11,28.99,4.14,43.48,6.28,5.83.86,7.63-.48,8.47-6.17.38-2.6,1.06-5.25,2.11-7.65,1.86-4.22,5.59-6.17,9.32-5.37,3.78.81,6,3.69,6.33,8.35.25,3.58.28,7.17.64,10.73,2.74,27.05,24.84,49.36,55.47,45.95,14.78-1.64,28.02,2,39.91,10.82,12.04,8.94,18.82,20.84,19.95,35.83.18,2.44.52,3.7,3.42,2.63,2.89-1.06,5.7-.47,7.89,1.87,2.12,2.27,2.14,4.93,1.3,7.76-1.67,5.67-4.95,10.2-10.09,13.04-5.72,3.16-11.5,6.36-17.57,8.71-17.91,6.93-36.65,11.07-55.31,15.39-8.52,1.97-16.21,5.65-23.26,10.76-14.17,10.26-23.52,23.42-25.48,41.29-1.28,11.66-1.91,23.31-.43,34.94.71,5.53,2.37,10.97,3.87,16.37.8,2.85,3.15,4.11,6.09,4.32,9.09.65,18.18,1.27,27.26,2.06,8.96.77,17.93,1.55,26.84,2.71,2.87.37,4.54-.21,6.23-2.49,1.61-2.18,3.53-4.34,5.79-5.78,4.67-2.98,10.32-.23,11.12,5.27.3,2.08.13,4.33-.33,6.39-4.74,21.37-17.33,37-35.89,47.99-11.3,6.69-23.85,10.28-36.52,13.37-17.21,4.2-33.85,9.73-48.74,19.68-12.36,8.26-22.38,18.52-28.18,32.44-1.75,4.19-1.45,4.76,2.87,6.19,18.4,6.08,37.15,8.09,56.36,4.82,16.86-2.87,33.72-5.76,50.61-8.4,3.1-.49,4.39-1.51,5.18-4.67,1.87-7.47,3.86-15.03,13.53-16.49,4.4-.66,6.92.83,7.32,5.32.26,2.93.91,5.82,1.34,8.74.27,1.82.72,3.66.61,5.47-.59,9.15,3.65,16.86,7.23,24.76.26.58,2.23,1.13,2.52.83,2.45-2.5,5.49-4.34,6.68-8.15,1.92-6.2,5.92-11.19,11.1-15.13,9.77-7.43,21.43-6.58,30.02,2.16,4.03,4.1,6.68,8.98,8.42,14.46.48,1.52,1.97,2.81,3.21,3.97,1.4,1.31,3.47,2.08,4.45,3.6.86,1.34,1.29,3.71.66,5.03-.62,1.32-2.7,2.27-4.32,2.69-1.37.35-3.07-.09-4.51-.54-5.03-1.59-9.9-1.1-14.75.68-2.4.88-4.79,1.82-7.25,2.53-3.58,1.03-5.71.07-8.02-2.81-.81-1.02-2.19-1.63-3.38-2.29-.5-.27-1.2-.23-1.81-.25-5.66-.24-10.45,2.67-15.83,3.98.91,1.46,1.69,2.74,2.8,3.15,4.08,1.5,8.24,3.69,12.43,3.85,11.43.43,22.9-.09,34.35-.15,11.14-.06,22.29-.14,33.43.02,9.21.13,18.43.93,27.63.79,5.15-.08,10.34-1.25,15.41-2.37,2.84-.63,5.24-2.42,7.21-5.72-5.62-1.29-10.65-2.49-15.7-3.55-.95-.2-2.09,0-3.02.35-.99.37-2.08.95-2.71,1.76-2.9,3.71-4.85,4.43-9.23,2.97-1.94-.65-3.85-1.4-5.77-2.12-5.03-1.87-10.1-2.49-15.34-.8-1.43.46-3.14.87-4.51.52-1.62-.42-3.7-1.38-4.31-2.69-.62-1.33-.19-3.73.7-5.02,1.09-1.58,3.23-2.38,4.74-3.72,1.13-1.01,2.17-2.23,2.91-3.55,2.48-4.43,4.18-9.45,7.31-13.33,8.32-10.33,21.45-11.67,31.57-3.12,3.95,3.33,7.24,7.85,9.68,12.44,1.99,3.75,3.9,7.23,7.1,10.08,1.71,1.53,2.59,1.31,3.41-.57,1.6-3.66,3.21-7.31,4.7-11.01,3.5-8.69,2.31-18.12,4.1-27.1.73-3.67,1.51-5.93,4.1-6.38,4.16-.72,11.5,2.74,13.27,6.61,1.49,3.24,2.96,6.61,3.63,10.08.63,3.22,1.96,4.71,5.17,4.64.71-.02,1.42.16,2.13.28,17.48,2.9,34.94,5.91,52.44,8.67,17.79,2.81,35.11.25,52.11-5.18,4.82-1.54,5.12-2.11,3.12-6.79-3.17-7.42-7.54-14.09-13.22-19.83-13.61-13.74-30.27-22.19-48.58-27.73-13.71-4.15-27.72-7.52-41.08-12.58-22.23-8.41-37.25-24.44-44.95-47-1.23-3.61-1.86-7.62-1.82-11.44.06-6.03,6.11-9.23,11.21-6.03,2.34,1.47,4.3,3.76,5.99,6,1.59,2.1,3.15,2.64,5.75,2.23,6.46-1.02,12.96-1.84,19.47-2.38,11.63-.95,23.29-1.66,34.94-2.42,2.97-.2,5.13-1.53,6.09-4.34,1.15-3.38,2.43-6.79,3-10.29,2.6-16.03,2.21-32.05-.92-47.98-1.38-7.04-4.19-13.5-8.61-19.18-10.07-12.92-22.75-21.87-38.82-25.96-16.77-4.26-33.57-8.46-50.09-13.57-8.02-2.48-15.55-6.74-23.06-10.65-4.77-2.48-7.89-6.69-9.55-11.95-.97-3.09-1.53-6.05.91-8.65,2.47-2.62,5.54-2.85,8.78-1.63,2.05.77,2.54-.27,2.66-2.02.15-2.14.23-4.31.64-6.41,3.45-17.81,14.63-29.28,30.47-36.85,9.35-4.47,19.25-5.27,29.42-4.2,28.85,3.04,49.82-17.51,53.9-40.58.99-5.62,1.05-11.4,1.65-17.1.43-4.08,2.58-6.63,5.9-7.32,3.69-.76,7.27.64,9.02,4.25,1.36,2.8,2.3,5.92,2.82,9,.89,5.25,2.59,6.68,7.81,5.93,17.74-2.53,35.52-4.78,53.22-7.56,10.8-1.7,21.66-3.51,32.14-6.51,11.56-3.31,16.18-10.5,15.99-22.53-.26-16.14-5.61-30.71-14.49-44.04-5.9-8.87-14.18-14.55-24.22-17.95-9.33-3.15-18.96-4.2-28.69-4.85-12.22-.83-24.18-2.96-35.74-7.12-9.81-3.53-16.14-10.23-19.6-20.14-5.11-14.63-5.17-29.22-.04-43.67,2.24-6.31,5.67-12.21,8.81-18.17,1.64-3.12,4.68-4.48,8.09-3.68,6.3,1.48,11.35,3.62,9.64,11.69-.06.26.1.57.23,1.25,1.19-.21,2.39-.27,3.47-.65,10.14-3.58,20.37-6.92,30.35-10.91,15.75-6.3,30.69-14.15,43.69-25.28,14.83-12.7,23.56-28.23,22.03-48.34-.76-10.01-3.66-19.49-7.91-28.58-2.3-4.92-4.93-9.74-6.63-14.86-3.89-11.72-10.52-21.88-16.91-32.28-11.88-19.35-30.63-29.29-50.34-38.08-1.75-.78-3.73-1.13-5.63-1.48-15.77-2.87-31.66-4.51-47.69-3.19-7.01.58-14.23.96-20.91,2.94-16.99,5.05-32.86,12.69-46.87,23.75-10.05,7.93-20.03,15.94-29.86,24.14-3.83,3.19-7.14,7.01-10.68,10.54-1.52,1.51-2.89,3.22-4.57,4.52-2.38,1.84-5.14,2.03-7.81.59-2.7-1.46-3.3-3.92-3.01-6.82.56-5.57,2.33-10.65,6.23-14.72,3.96-4.13,8.22-7.98,12.21-12.09.76-.78,1.56-2.54,1.19-3.22-4.17-7.63-8.2-15.38-13.07-22.55-1.97-2.9-5.68-4.93-9-6.52-4.34-2.08-5.77-1.08-5.37,3.7.8,9.67,1.8,19.34,3.19,28.94.99,6.84,1.93,13.61.47,20.44-.95,4.47-3.07,8.28-7.25,10.55-3.73,2.02-7.38.63-8.44-3.48-.68-2.63-.51-5.47-.87-8.2-.75-5.66-1.58-11.31-2.46-16.95-.1-.65-.67-1.24-1.02-1.85-.41.02-.83.04-1.24.07-.87,5.49-1.84,10.97-2.55,16.48-.37,2.83-.11,5.74-.43,8.58-.29,2.64-1.33,5.02-4.14,5.96-2.78.93-5.02-.35-6.98-2.13-3.99-3.6-5.68-8.41-5.6-13.52.09-5.9,1.03-11.78,1.6-17.68.91-9.36,1.96-18.71,2.64-28.08.27-3.76-.9-4.35-4.47-3.27-4.93,1.49-8.85,4.43-11.45,8.78-3.99,6.67-7.72,13.51-11.34,20.39-.42.81.23,2.72,1,3.51,3.07,3.15,6.44,6,9.59,9.08,4.99,4.87,8.29,10.6,8.87,17.73.23,2.79-.29,5.13-2.73,6.69-2.38,1.52-4.98,1.51-7.28.05-1.78-1.12-3.24-2.77-4.78-4.25-4.63-4.46-9.04-9.17-13.89-13.38-6.1-5.3-12.66-10.07-18.83-15.29-27.13-22.98-57.61-36.43-93.98-33.78-18.36,1.34-36.65,2.61-52.55,13.5-6.31,4.32-13.71,7.47-19.04,12.74-12.98,12.85-23.04,27.9-29.43,45.22-1.7,4.61-3.52,9.19-5.7,13.58-4.12,8.3-7.6,16.78-9.44,25.9-3.74,18.58.68,34.89,13.44,48.95,6.67,7.35,14.47,13.3,22.88,18.45,18.49,11.32,38.64,18.78,59.21,25.24.84.26,1.75.31,3.21.56ZM232.13,528.56c-1.29-1.63-1.94-2.5-2.64-3.33-9.18-10.8-15.37-22.86-16.35-37.31-.58-8.57.97-6.86-8.5-8.5-2.13-.37-3.06.44-3.24,2.5-.96,11.24-.84,22.38,4.31,32.76,2.39,4.82,5.26,9.42,8.18,13.94.72,1.11,2.55,2.28,3.76,2.17,4.54-.41,9.04-1.34,14.49-2.23ZM396.47,528.45c4.41.79,8.04,1.27,11.57,2.13,3.13.76,5.31-.23,7.21-2.65,5.33-6.8,8.97-14.5,10.67-22.85,1.21-5.95,1.35-12.19,1.39-18.3.05-7.75-.19-7.64-7.85-6.7-2.82.35-3.89,1.57-3.94,4.33-.29,15.77-6.42,29.19-16.66,40.92-.65.74-1.21,1.57-2.4,3.12ZM376.89,513.44c-.14,2.14-.4,4.29-.36,6.43.02,1.02.29,2.35.97,3,2.28,2.17,5.96,2.04,8.3-.24,6.39-6.25,11.43-13.58,13.9-22.1,1.5-5.17,1.18-10.89,1.52-16.38.13-2.08-1.1-2.9-3.2-2.47-7.36,1.51-13.35,4.8-16.98,11.8-3.26,6.31-3.77,13.1-4.14,19.95ZM251.69,514.37c.09-.01.19-.02.28-.03-.55-4.45-.76-8.98-1.72-13.35-2.26-10.3-8.3-17.11-19.01-19.18-3.16-.61-3.72-.15-4.04,3.09-1.51,15.35,5.5,27.19,15.49,37.83,2.42,2.58,4.97,1.68,7.58.63,2.49-1,1.74-3.15,1.68-5.02-.04-1.33-.18-2.65-.27-3.98ZM486.44,269.51c.81-.28,1.19-.29,1.36-.48,5.08-6.13,7.4-13.33,7.97-21.14.05-.67-.93-1.79-1.66-2.06-3.03-1.1-4.46-.32-5.53,2.84-.63,1.83-1.22,3.7-1.6,5.59-1,5-.94,10.02-.53,15.25ZM141.21,269.63c.37-.09.74-.17,1.1-.26,0-2.07.24-4.17-.05-6.2-.75-5.22-1.59-10.43-2.7-15.58-.6-2.81-3.01-2.15-5.04-1.85-2.24.33-1.97,1.93-1.79,3.5.77,6.49,2.69,12.57,6.45,17.99.6.86,1.35,1.6,2.03,2.4ZM300.48,852.42c.63.59.92,1.09,1.19,1.07,1.44-.06,2.89-.21,4.31-.44.14-.02.14-.83.21-1.27-1.32-.05-2.64-.15-3.95-.11-.44.01-.88.36-1.76.75ZM322.19,851.24c-.03.4-.07.8-.1,1.21,2.35,1.98,3.86,1.96,5.99-.59-2.23-.23-4.06-.42-5.89-.61Z" style="fill: #000; stroke-width: 0px;"/>
  <path d="M395.52,609.92c-.82,14.5-7.05,27.39-23.18,29.98-1.38.22-3.1,1.79-3.66,3.14-5.53,13.34-16.19,20.81-29.17,25.4-7.52,2.66-15.01,1.56-21.88-2.52-2.43-1.44-4.32-1.38-6.77.04-9.21,5.35-18.64,4.86-27.88.13-10.26-5.24-18.92-12.15-23.3-23.38-.49-1.25-2.28-2.71-3.57-2.82-19.44-1.67-31.85-29.7-15.11-47.99,6.23-6.8,13.13-11.67,22.99-10.48,1.14.14,2.65-.93,3.66-1.82,10.41-9.23,22.67-12.18,36.22-10.77,1.41.15,2.98.34,4.14,1.05,4.29,2.63,8.11,1.32,12.65.09,14.6-3.96,27.95-.52,39.55,9.2,1.94,1.62,3.63,2.5,6.28,2.22,5.91-.63,11.11,1.57,15.59,5.27,7.7,6.36,12.88,14.19,13.44,23.25ZM314.65,647.76c1.18-.77,2.97-1.28,3.44-2.36,1.44-3.29,2.64-4.07,6.1-2.87,2.61.9,5.18,1.94,7.82,2.76,6.87,2.13,12.56-.03,17.11-5.26,4.36-5.02,6.06-10.64,2.72-16.99-.33-.63-.53-1.33-.76-2.01-.98-2.96-.78-5.74,1.67-7.9,2.49-2.19,5.59-2.51,8.3-.9,2.29,1.36,4.04,3.61,6.04,5.46.87.8,2.14,2.4,2.6,2.2,2.54-1.11,5.16-2.35,7.23-4.15,1.92-1.67,2.77-4.45,1.18-6.73-2.02-2.89-4.55-5.44-7.03-7.97-1.13-1.15-2.19-.86-3.12.75-2.79,4.81-7.21,4.89-10.42.27-1.52-2.19-2.8-4.54-4.35-6.7-6.03-8.38-14.71-11.42-24.55-11.6-4.17-.08-5.18,1.19-5.99,5.26-.7,3.53-3.14,4.79-6.63,3.7-1.13-.35-2.55-.31-3.7.03-3.37,1-5.77-.22-6.5-3.55-.96-4.39-2.01-5.64-6.41-5.47-9.7.38-18.29,3.4-24.16,11.78-1.7,2.43-3.14,5.06-4.95,7.4-2.56,3.33-6.86,3.3-9.15.12-2.29-3.17-2.62-3.22-5.6-.56-.91.82-1.77,1.71-2.57,2.64-4.98,5.75-3.61,11.25,3.45,14.31,2.15.93,3.58.61,4.93-1.42,1.17-1.76,2.59-3.47,4.25-4.76,3.15-2.45,7.14-2.49,9.71-.49,2.68,2.1,3.27,5.09,1.78,9.2-.38,1.06-1.03,2.05-1.25,3.13-.41,1.98-1.05,4.06-.78,6,1.08,7.97,10.05,17.9,21.49,14.17,2.72-.89,5.38-1.98,8.09-2.9,2.3-.78,4.79-.57,5.21,2.06.51,3.16,2.46,2.66,4.82,3.33Z" style="fill: #000; stroke-width: 0px;"/>
  <path d="M244.31,233.63c-9.47-1.29-17.05,1.15-22.03,9.26-2.02,3.3-3.55,6.9-5.29,10.37-.69,1.37-1.22,2.83-2.03,4.13-1.3,2.09-3.25,3.14-5.75,2.65-2.53-.5-4.11-2.36-4.11-4.74,0-2.9.34-5.96,1.31-8.67,1.06-2.99.97-5.55.6-8.72-.75-6.41-.84-13.17.36-19.49,5.42-28.38,36.16-48.62,63.51-42.06,15.36,3.68,24.83,13.52,28.63,28.88.26,1.03,1.38,2.02,2.33,2.67,1.5,1.03,3.53,1.46,4.72,2.72,1.01,1.08,1.81,3.17,1.45,4.45-.3,1.04-2.51,2.28-3.79,2.19-11.99-.81-22.48,3.86-32.84,8.81-7.25,3.46-13.07,8.76-17.18,15.78-.46.79-.98,1.57-1.56,2.28-1.73,2.14-3.81,3.48-6.68,2.39-2.43-.92-4.01-3.87-3.47-6.87.36-1.97,1.14-3.87,1.8-6.04Z" style="fill: #000; stroke-width: 0px;"/>
  <path d="M384.06,233.63c.44,1.21,1,2.2,1.13,3.24.25,2.08.82,4.36.27,6.27-1.22,4.24-5.95,5.07-8.98,1.79-.96-1.04-1.74-2.27-2.49-3.49-3.04-4.98-6.88-9.28-11.85-12.27-11.61-6.99-23.79-12.32-37.8-11.89-1.39.04-3.62-1.15-4.03-2.28-.43-1.17.74-3.06,1.52-4.46.4-.71,1.43-1.33,2.26-1.48,3.88-.7,4.68-3.47,5.66-6.82,5.24-18.02,23.51-29.36,43.11-26.92,28.74,3.57,52.35,28.23,49.03,59.33-.59,5.49-.65,10.35,1.2,15.58,1.67,4.73-.14,8.62-3.34,9.73-3.17,1.09-5.69-.92-7.99-5.88-1.93-4.16-3.87-8.38-6.36-12.21-4.94-7.58-12.41-9.33-21.34-8.21Z" style="fill: #000; stroke-width: 0px;"/>
  <path d="M553.77,142.2c-.22,10-4.6,20.33-13.09,28.81-7.88,7.88-17.48,10.41-28.24,7.75-4.04-1-7.94-2.68-11.77-4.37-2.02-.89-3.47-.9-5.33.4-2.15,1.5-4.53,2.84-7.01,3.64-3.23,1.04-6.05-.27-7.36-2.86-1.45-2.88-.64-5.48,1.53-7.54,2.81-2.68,5.91-5.05,8.78-7.67,5.75-5.26,8.19-11.28,4.69-18.97-1.51-3.33-.58-4.7,2.88-5.98.38-.14.84-.23,1.1-.5,3.09-3.24,6.68-6.17,9.05-9.87,1.76-2.75,2.87-6.59,2.61-9.81-.49-5.95-1.98-11.86-3.47-17.67-1.29-5.01-.71-8.27,2.49-9.62,3.31-1.4,7.07.18,9.14,4.66,1.61,3.48,2.52,7.32,3.44,11.07.48,1.97,1.26,2.89,3.33,3.3,16.27,3.18,27.19,16.57,27.24,35.24Z" style="fill: #000; stroke-width: 0px;"/>
  <path d="M74.67,142.23c0-18.52,10.88-31.92,27.17-35.23,2.17-.44,2.99-1.41,3.47-3.52.85-3.66,1.92-7.32,3.36-10.78.7-1.67,2.23-3.26,3.79-4.26,3.99-2.58,8.64.06,8.64,4.81,0,1.49-.59,2.98-.89,4.48-1.19,5.89-2.77,11.73-3.44,17.68-.63,5.63,1.83,10.32,6.34,13.92,1.65,1.32,2.93,3.09,4.48,4.56.7.66,1.56,1.29,2.46,1.57,2.44.75,3.18,2.37,2.76,4.71-.09.5-.21,1.01-.42,1.47-3.44,7.37-.97,13.31,4.52,18.46,2.16,2.03,4.47,3.89,6.7,5.86,1.07.95,2.25,1.82,3.1,2.95,1.52,2,1.98,4.31.78,6.63-1.27,2.46-3.58,3.77-6.12,3.06-2.88-.8-5.67-2.22-8.22-3.81-1.88-1.18-3.27-1.25-5.34-.46-5.03,1.94-10.12,4.03-15.38,5.02-8.51,1.59-16.28-.88-22.79-6.62-9.74-8.59-14.57-19.53-14.98-30.49Z" style="fill: #000; stroke-width: 0px;"/>
  <path d="M456.81,95.68c.1,1.31.2,2.22.24,3.13.1,2.45-.66,4.91-3.01,5.49-1.91.47-4.4-.03-6.22-.93-1.73-.85-2.92-2.8-4.37-4.24-8.51-8.42-18.19-13.49-30.66-11-2.06.41-4.37.48-6.38-.03-1.43-.36-3.3-1.8-3.57-3.06-.27-1.25.86-3.69,2-4.2,4.15-1.85,8.5-3.4,12.92-4.46,2.18-.52,3.09-1.14,3.41-3.34,1.2-8.25,3.91-15.92,9.8-22.09,9.62-10.09,25.04-13.04,38.27-7.43,12.36,5.25,19.63,17.23,19.11,31.55-.27,7.49-1.8,14.58-6.25,20.87-.64.9-.36,2.66-.12,3.94.58,3.09,1.72,6.11,2,9.21.31,3.32-1.82,5.96-4.45,6.53-2.65.57-5.23-1.09-6.66-4.27-1.51-3.35-2.75-6.87-4.67-9.97-2.44-3.94-6.13-6.13-11.37-5.73Z" style="fill: #000; stroke-width: 0px;"/>
  <path d="M171.5,95.59c-3.96-.18-7.36.83-9.48,3.76-2.3,3.18-4.14,6.77-5.73,10.39-1.96,4.46-4.27,6.56-7.42,5.86-3.31-.74-4.85-3.81-4.32-8.7.12-1.11.14-2.36.66-3.29,2.31-4.11,1.3-7.42-.94-11.5-7.67-13.99-4.64-33.24,6.1-42.89,17.51-15.72,45.74-8.97,54.08,13.06,1.37,3.61,2.09,7.48,2.84,11.28.37,1.84,1.19,2.31,2.94,2.76,4.41,1.13,8.81,2.49,12.98,4.3,1.25.54,2.38,2.84,2.42,4.37.06,2.23-2.05,3.18-4.12,3.3-2.03.12-4.14.21-6.11-.18-11.84-2.37-21.19,2.35-29.5,10.14-1.42,1.33-2.7,2.8-4.06,4.19-2.09,2.14-4.5,3.36-7.44,1.98-2.74-1.29-3.17-3.78-2.92-6.52.06-.68,0-1.37,0-2.31Z" style="fill: #000; stroke-width: 0px;"/>
  <path d="M348.53,426.81c-2.97,1.34-5.72,2.68-8.55,3.82-2.01.81-4.18,1.08-5.34-1.29-1.06-2.19.32-3.7,2.06-4.85,11.34-7.57,13.33-18.55,10.9-30.86-1.67-8.46-6.4-15.42-12.08-21.78-1.22-1.36-2.4-2.83-3.23-4.43-1.17-2.27-.94-4.59.82-6.57,1.75-1.98,4.04-2.58,6.41-1.67,1.66.63,3.5,1.57,4.56,2.92,10.54,13.41,17.45,28.15,14.09,45.71-1.15,5.99-1.77,11.21.06,17.48,3.78,12.91-8.45,25.92-21.88,23.77-5.16-.82-9.81-.12-14.68.65-7.28,1.15-14.44.73-21.54-1.39-1.42-.42-3.2-.02-4.73.37-15.1,3.82-28.91-9.22-25.42-24.08.16-.7.23-1.51.64-2.04,2.8-3.55,1.65-7.02.47-10.87-2.8-9.18-2.22-18.43.85-27.49,2.62-7.73,6.46-14.85,11.62-21.16,1.4-1.72,3.58-3.38,5.66-3.81,1.86-.38,4.43.5,6.03,1.7,2.03,1.52,2.18,4.23.92,6.46-1.15,2.02-2.73,3.81-4.24,5.6-6.65,7.82-11.62,16.42-11.97,26.98-.33,10.01,2.65,18.58,11.46,24.36,1.79,1.18,3.5,2.64,2.3,5.01-1.25,2.49-3.55,2.06-5.64,1.2-2.72-1.13-5.37-2.43-8.28-3.77-1.39,2.53-1.03,5.02.35,7.43,2.66,4.63,8.42,7.08,13.49,5.33,3.26-1.12,6.29-2.93,9.39-4.5,1.93-.98,4.15-2.54,5.81-.45.99,1.25.62,3.59.94,5.99h9.83c-.36-.87-.77-1.4-.76-1.94.02-1.34-.25-3.23.49-3.86.92-.78,2.96-1.07,4.11-.6,3.21,1.31,6.13,3.31,9.3,4.7,5.6,2.46,10.98,1.09,14.66-3.43,2.15-2.65,2.53-5.36,1.12-8.63Z" style="fill: #000; stroke-width: 0px;"/>
  <path d="M286.39,303.68c-7.17,10.25-16.09,16.78-28.31,17.61-12.33.83-21.37-5.66-29.72-14.46-.6,1.44-.98,2.33-1.34,3.23-1.29,3.28-3.47,4.83-6.18,4.39-2.74-.45-4.47-2.9-4.33-6.51.28-6.8,2.26-13.12,6.09-18.76,6.12-9.03,14.04-16.02,24.19-20.16,11.69-4.77,22.78-3.21,32.84,4.25,13.16,9.76,19.95,23.02,20.64,39.39.04.92.23,1.99-.16,2.73-.66,1.27-1.56,3.05-2.66,3.29-1.27.29-3.49-.42-4.19-1.45-2.05-3.03-3.56-6.41-5.24-9.68-.54-1.05-.93-2.18-1.64-3.87ZM270.48,302.75l.87.64c2.44-2.08,4.99-4.03,7.28-6.26,3.79-3.69,3.78-3.96.51-8.05-5.7-7.13-12.51-11.97-22.24-9.65-8.99,2.14-16.12,7.35-22.03,14.29-.52.61-.84,2.26-.47,2.63,2.7,2.64,5.61,5.07,7.95,7.13,2.34-3.21,3.67-6.83,6.19-8.11,4.04-2.05,8.83-3.24,13.38-3.53,4.69-.3,8.17,4.03,8.44,8.84.04.69.07,1.39.11,2.08Z" style="fill: #000; stroke-width: 0px;"/>
  <path d="M400.11,306.81c-8.49,8.91-17.6,15.46-30.09,14.46-12.07-.97-20.9-7.49-27.85-17.4-1.78,3.77-3.2,7.16-4.95,10.36-1.34,2.45-2.68,5.63-6.36,4.51-3.54-1.08-2.81-4.4-2.65-7.06.9-15.38,7.27-28.05,19.42-37.53,12.19-9.5,25.39-10.46,38.76-2.82,12.41,7.09,21.95,16.8,24.92,31.49.42,2.09.59,4.27.53,6.4-.07,2.57-1.32,4.59-4.01,5.14-2.8.57-4.75-.81-5.98-3.25-.58-1.16-.99-2.42-1.74-4.31ZM385.02,304.3c3-2.53,5.43-4.62,7.91-6.64,1.82-1.48,1.86-2.8.24-4.58-4.54-5-9.74-9.06-15.92-11.79-10.15-4.47-18.12-3.05-25.58,5.14-6.91,7.59-6.16,6.48.4,12.87,1.58,1.54,3.55,2.68,5.79,4.33.16-1.44.24-1.93.26-2.43.29-6.25,4.78-10.39,10.97-9.49,7.25,1.05,14.48,2.53,15.93,12.59Z" style="fill: #000; stroke-width: 0px;"/>
  <path d="M92.91,370.17c-.25,9.12-1.19,16.39-4.18,23.29-.41.95-.14,2.17-.38,3.21-.33,1.4-.46,3.31-1.39,3.96-.97.67-3.09.61-4.2-.02-2.19-1.25-4.13-3-5.97-4.76-2.44-2.33-4.62-4.94-7.02-7.31-2.45-2.42-5.23-3.52-8.91-2.95-1.79.28-4.5-.57-5.58-1.89-.95-1.17-.24-3.71-.19-5.64.03-.96.6-2.04.31-2.84-1.38-3.74-2.78-7.51-4.59-11.05-.87-1.7-2.48-3.24-4.11-4.29-3.36-2.17-4.82-4.59-3.84-7.47,1.04-3.09,4.98-5.55,8.27-3.82,4.73,2.5,7.99.56,12.03-1.32,13.31-6.19,25.76.21,28.74,14.54.68,3.29.81,6.69,1,8.37Z" style="fill: #000; stroke-width: 0px;"/>
  <path d="M557.61,345.05c3.09.04,7.55,1.44,11.5,4.2,1.82,1.27,3.23,1.23,5.31.33,2.1-.9,4.73-1.14,7.04-.87,2.33.27,3.97,2.08,4.32,4.6.34,2.49-.62,4.67-2.79,5.7-7.15,3.38-7.29,10.91-10.2,16.78-.29.59.35,1.71.7,2.53,1.87,4.3-.58,8.29-5.06,7.39-5.28-1.07-8.55,1.37-11.79,4.78-2.88,3.04-5.89,5.97-8.96,8.82-.94.87-2.22,1.53-3.45,1.88-2.54.71-4.33-1-4.44-3.6-.09-2.06-.31-4.18-.94-6.13-3.3-10.14-4.4-20.43-1.99-30.87,2.29-9.92,9.43-15.59,20.75-15.55Z" style="fill: #000; stroke-width: 0px;"/>
  <path d="M488.58,758.82c9.24.64,16.78,4.88,23.08,11.4,1.91,1.98,3.79,3.56,6.57,4.14,1.55.32,3.07,1.16,4.4,2.07,2.11,1.44,3.25,3.52,2.26,6.1-1.03,2.69-3.26,3.51-5.98,3.15-2.43-.32-4.86-1.03-7.28-.98-2.76.06-5.55.6-8.25,1.27-1.75.44-3.3,1.92-5.04,2.15-1.96.25-4.44.26-5.99-.73-6.02-3.84-12.09-6.82-19.55-5.5-2.41.43-4.96-.02-5.77-2.83-.84-2.9,1.11-4.74,3.44-5.77,2.17-.96,2.79-2.27,3.1-4.58.65-4.76,7.29-9.48,13.16-9.89.61-.04,1.23,0,1.84,0Z" style="fill: #000; stroke-width: 0px;"/>
  <path d="M153.72,781.92c-6.65-1.23-11.69,1.67-16.44,4.87-3,2.02-5.85,2.73-8.78.76-5.8-3.92-11.92-3.39-18.25-2.01-3.26.71-5.76-.47-6.69-2.87-.98-2.53.23-5.19,3.12-6.89.09-.05.17-.13.27-.14,5.83-1.14,9.53-5.45,13.8-9.03,5.25-4.4,11.33-7.32,18.33-7.79,6.4-.43,11.81,1.93,14.54,7.66,1.68,3.51,3.16,6.55,6.56,8.66.89.55,1.44,2.98.98,4.04-.53,1.21-2.25,2.18-3.65,2.66-1.28.44-2.83.09-3.79.09Z" style="fill: #000; stroke-width: 0px;"/>
  <path d="M438.9,626.71c2.52-4.66-.16-7.91-1.28-11.56-1.57-5.13-3.02-10.45-3.36-15.77-.48-7.32,3.54-11.82,10.54-13.75,1-.27,1.85-1.32,2.59-2.16.45-.5.52-1.32.83-1.96,1.43-2.9,3.9-4.2,6.41-3.39,2.41.78,3.61,3.08,3.16,6.24-.32,2.22-.72,4.44-1.08,6.65-.29,1.77.19,2.53,2.25,2.52,4.17-.02,6.09,2.74,5.2,6.65-1.24,5.45-2.42,10.92-3.36,16.42-.61,3.53-1.53,6.28-5.84,6.54-1.23.08-2.5,1.3-3.55,2.23-1.45,1.28-2.53,3.06-4.11,4.09-1.47.96-3.71,2.08-5.04,1.59-1.47-.55-2.29-2.85-3.37-4.34Z" style="fill: #000; stroke-width: 0px;"/>
  <path d="M171.89,593.31c-.38-2.82-.64-5.42-1.09-8-.66-3.79.31-6.3,2.95-7.19,2.7-.91,5.55.68,6.76,4.23.76,2.23,1.99,3.15,4.27,3.65,5.74,1.28,9.34,6.26,9.51,12.77.18,6.81-1.94,13.08-4.63,19.25-.8,1.82-.78,4.03-1,6.07-.11,1.1.43,2.38.05,3.33-.56,1.4-1.43,3.24-2.62,3.68-1.2.45-3.14-.26-4.4-1.04-1.35-.82-2.12-2.55-3.43-3.47-2.11-1.47-4.57-2.43-6.67-3.91-1.37-.97-2.98-2.31-3.39-3.79-.82-2.92-.8-6.07-1.31-9.1-.4-2.41-.82-4.88-1.66-7.15-2.43-6.57-1.05-8.87,6.65-9.35Z" style="fill: #000; stroke-width: 0px;"/>
  <path d="M438.11,166.29c-2.48-.24-4.71-.13-6.71-.77-1.19-.38-2.86-1.98-2.8-2.93.08-1.22,1.45-2.88,2.67-3.4,2.12-.9,4.69-.75,6.83-1.62,3.73-1.53,7.63-3.05,10.82-5.42,3.67-2.73,4.95-6.97,3.76-11.58-1.19-4.65-4.46-7.32-9-8.21-3.09-.6-6.3-.58-9.45-.86-1.63-.14-3.31-.08-4.86-.51-4.82-1.32-6.2-6.62-2.61-10.08,1.15-1.11,2.61-2.04,4.09-2.63,9.34-3.66,18.26-2.82,25.86,3.88,7.84,6.92,10.15,15.98,7.47,25.98-2.6,9.71-9.29,15.4-19.08,17.39-2.39.49-4.87.53-6.99.75Z" style="fill: #000; stroke-width: 0px;"/>
  <path d="M190.28,166.2c-23.81.41-32.24-21.95-23.83-37.47,6.22-11.49,21.23-15.97,32.68-9.73,3.55,1.94,5.05,4.54,4.38,7.62-.64,2.9-3,4.57-6.99,4.83-3.16.2-6.35.14-9.5.48-6.2.68-10.29,4.07-11.37,9.13-1.07,5.01,1.24,10.17,6.4,13.16,2.62,1.52,5.6,2.45,8.48,3.44,1.63.56,3.4.73,5.1,1.07,2.19.43,4.46.95,4.29,3.82-.18,2.85-2.53,3.12-4.72,3.33-1.63.16-3.27.21-4.9.31Z" style="fill: #000; stroke-width: 0px;"/>
  <path d="M480.86,364.23c14.62,1.23,26.57,5.95,34.05,18.69.62,1.05,1.12,2.2,1.47,3.37.71,2.35.4,4.57-1.73,6.04-2.24,1.54-4.5,1.07-6.5-.61-1.17-.99-2.15-2.2-3.35-3.16-7.72-6.21-16.53-9.75-26.43-10.42-5.95-.4-11.37,1.05-16.14,4.74-.16.13-.33.24-.5.36-1.63,1.16-3.69,1.95-4.92.19-.83-1.19-.98-3.59-.36-4.96,3.08-6.73,8.53-10.91,15.63-12.77,3.05-.8,6.23-1.06,8.76-1.47Z" style="fill: #000; stroke-width: 0px;"/>
  <path d="M147.62,364.4c9.69.32,18.4,3.42,23.75,12.86.4.71,1.04,1.48,1.01,2.2-.07,1.41-.12,3.23-.97,4.08-.71.7-2.56.27-3.91.24-.35,0-.71-.38-1.02-.64-6.31-5.11-13.58-5.89-21.21-4.43-9.23,1.77-17.52,5.53-24.26,12.31-2.35,2.37-5.1,2.83-7.17,1.43-2.06-1.4-2.66-4.13-1.4-7.22,2.58-6.31,7.19-10.87,12.87-14.41,6.67-4.16,14-6.17,22.33-6.41Z" style="fill: #000; stroke-width: 0px;"/>
  <path d="M386.71,724.27c9.14-.02,15.2,4.23,17.35,12.18.86,3.17.02,5.89-2.29,6.96-2.81,1.3-4.9.03-6.74-2.06-5.49-6.23-17.7-4.12-20.67,3.74-1.48,3.9-2.17,8.1-3.34,12.13-.73,2.51-1.13,5.71-4.65,5.59-3.55-.13-3.72-3.34-4.13-5.92-.4-2.52-.69-5.09-.68-7.63.07-15.15,9.98-24.95,25.16-24.98Z" style="fill: #000; stroke-width: 0px;"/>
  <path d="M267.21,749.87c-.54,3.22-.79,6.53-1.73,9.63-.41,1.35-2.2,3.09-3.43,3.15-1.22.06-3.21-1.52-3.69-2.81-1.35-3.63-2.29-7.44-3.03-11.25-1.94-9.89-9.81-11.42-16.92-10.5-1.69.22-3.42,1.72-4.73,3.03-2.66,2.67-4.98,3.53-7.24,2.16-2.28-1.38-2.95-4-1.87-7.38,2.19-6.91,7.02-10.65,14.1-11.46,16.53-1.9,28.4,8.8,28.56,25.44Z" style="fill: #000; stroke-width: 0px;"/>
  <path d="M234.96,130.99c.44-10.01,2.55-18.31,10.18-24.05,9.37-7.06,20.85-5.75,28.57,3.12,1.54,1.77,3.09,3.63,4.09,5.71.53,1.11.41,3.49-.34,4.03-.99.72-3.12.7-4.33.11-2.17-1.05-3.9-2.98-6.02-4.17-6.53-3.68-14.05-1.01-16.57,6.05-1.15,3.24-1.54,6.75-2.24,10.15-.37,1.8-.5,3.66-.99,5.43-.78,2.79-2.54,4.68-5.62,4.83-2.68.13-5.11-1.82-5.84-4.93-.56-2.37-.7-4.84-.89-6.29Z" style="fill: #000; stroke-width: 0px;"/>
  <path d="M393.51,130.26c-.17,1.83-.24,3.68-.54,5.49-.68,4.05-3.12,6.52-6.2,6.46-3.04-.06-5.29-2.39-5.99-6.34-.51-2.92-.83-5.88-1.38-8.8-.36-1.9-.83-3.82-1.55-5.61-2.63-6.53-9.75-9.25-16.01-6-2.34,1.21-4.25,3.23-6.59,4.45-1.14.6-3.24.78-4.1.12-.83-.64-1.3-3.02-.75-3.95,4.37-7.43,9.99-13.47,19.41-13.54,9.4-.07,16.44,4.44,20.31,12.86,2.09,4.54,2.75,9.73,4.06,14.63-.22.07-.45.15-.67.22Z" style="fill: #000; stroke-width: 0px;"/>
  <path d="M454.92,222.24c.35-8.69,2.32-17.45,8.33-24.87,8.38-10.35,23.11-12.21,32.79-4.13,1,.84,2.27,1.82,2.56,2.95.41,1.63.65,3.87-.16,5.1-.82,1.24-2.97,1.84-4.65,2.17-1.07.21-2.34-.55-3.5-.93-8.71-2.85-16.16-.85-21.36,6.69-2.73,3.96-4.32,8.72-6.28,13.18-.65,1.48-.48,3.37-1.31,4.69-.8,1.26-2.4,2.02-3.65,3-.92-1.19-2.12-2.27-2.68-3.61-.44-1.04-.09-2.42-.09-4.24Z" style="fill: #000; stroke-width: 0px;"/>
  <path d="M173.45,222.14c0,1.61.38,3.1-.1,4.23-.59,1.4-1.88,2.51-2.87,3.75-1.2-1.04-2.83-1.87-3.51-3.19-.91-1.77-1.02-3.93-1.6-5.89-1.55-5.25-3.78-10.16-7.68-14.14-4.93-5.04-10.84-6.68-17.67-4.91-.89.23-1.76.54-2.63.83-3.8,1.28-6.29.77-7.66-1.56-1.49-2.53-.57-5.4,2.55-7.96,9.85-8.09,24.35-6.35,32.82,3.97,6,7.31,7.95,15.97,8.34,24.87Z" style="fill: #000; stroke-width: 0px;"/>
  <path d="M115.81,346.53c-6.2-.01-11.6-2.25-16.39-6.03-2.2-1.74-3.3-4.07-1.98-6.77,1.35-2.76,3.9-3.07,6.6-2.4,1.59.39,3.11,1.02,4.69,1.46,10.13,2.82,19.64-3.01,21.72-13.39.5-2.48.81-5.11,3.9-5.5,3.26-.41,5.48,1.74,6.26,4.41.82,2.81,1.25,6.14.56,8.91-2.69,10.75-14.25,19.29-25.36,19.31Z" style="fill: #000; stroke-width: 0px;"/>
  <path d="M515.01,346.53c-13.21.01-24.59-8.36-27.72-18.86-1.3-4.35-1.19-8.66,2.36-11.95,1.17-1.09,3.46-1.96,4.84-1.56,1.34.39,2.39,2.43,3.18,3.94,1.54,2.96,2.36,6.37,4.27,9.03,4.19,5.82,10.07,7.75,17.06,5.85,1.87-.51,3.68-1.26,5.57-1.7,2.58-.6,5.02-.25,6.37,2.34,1.41,2.71.33,5.05-1.84,6.79-4.75,3.82-10.14,6.08-14.09,6.11Z" style="fill: #000; stroke-width: 0px;"/>
  <path d="M183.33,266.71c-2.38,16.45-8.46,30.11-23.1,38.66-.97.56-2.02,1.29-3.06,1.33-1.19.04-2.85-.26-3.48-1.07-.64-.81-.57-2.5-.25-3.65.27-.99,1.3-1.8,2.05-2.63,6.8-7.49,11.64-16.11,14.16-25.87.95-3.69,1.06-7.65,1.11-11.5.05-3.64,1-5.93,3.61-6.69,2.67-.78,5.51.57,6.85,3.81,1.04,2.5,1.48,5.26,2.11,7.62Z" style="fill: #000; stroke-width: 0px;"/>
  <path d="M444.82,266.91c1.1-3.12,1.89-6.39,3.38-9.31,1.14-2.24,3.51-3.12,6.09-2.19,2.44.88,3.55,2.87,3.37,5.3-1.11,15.33,6,27.37,15.2,38.61,1.53,1.86,4,3.66,1.91,6.31-2.18,2.77-4.66.86-6.84-.37-12.43-6.97-22.36-23.88-23.12-38.35Z" style="fill: #000; stroke-width: 0px;"/>
  <path d="M421.83,442.23c.3-9.21,2.01-16.29,6.87-22.27,4.57-5.63,10.4-8.87,17.84-8.47,1.49.08,3.36.29,4.32,1.21,1.33,1.28,2.81,3.36,2.67,4.95-.15,1.58-2.18,3.03-3.51,4.42-.35.37-1.16.4-1.76.41-7.82.12-11.95,4.76-13.76,11.72-1.33,5.13-2.06,10.42-3.01,15.65-.4,2.2-.85,4.43-3.58,4.64-2.7.21-3.76-1.84-4.31-4-.83-3.25-1.41-6.56-1.76-8.27Z" style="fill: #000; stroke-width: 0px;"/>
  <path d="M207.1,440.55c-.96,3.88-1.6,7.62-2.89,11.12-.46,1.25-2.58,2.74-3.79,2.62-1.21-.12-2.86-1.97-3.2-3.34-1-4.06-1.29-8.29-2.15-12.39-.58-2.78-1.41-5.57-2.56-8.17-2.11-4.78-5.86-7.49-11.19-7.82-.81-.05-1.65-.1-2.42-.32-2.36-.66-4.02-2.07-4.23-4.66-.21-2.59,1.15-4.75,3.47-5.14,3.33-.56,7-.96,10.19-.14,7.91,2.03,12.97,7.67,15.66,15.18,1.5,4.18,2.11,8.68,3.13,13.07Z" style="fill: #000; stroke-width: 0px;"/>
  <path d="M553.18,179.65c.38-9.63,2.61-16.29,8.13-21.49,4.1-3.86,9.01-5.72,14.64-4.2,1.89.51,3.75,1.65,5.26,2.93,2.04,1.72,2.63,4.15,1.49,6.68-1.1,2.44-3.26,3.25-5.8,3.2-6.92-.13-9.61,1.56-11.26,8.36-.92,3.8-.82,7.88-.98,11.83-.09,2.22.05,4.51-2.48,5.37-2.72.93-4.4-.96-5.32-3.02-1.68-3.75-2.94-7.69-3.68-9.67Z" style="fill: #000; stroke-width: 0px;"/>
  <path d="M64.73,184.32c-1.1-4.3-1.8-8.76-3.42-12.85-1.71-4.31-4.13-5.23-8.82-4.79-3.45.32-5.85-.85-6.89-3.36-1.03-2.51-.01-5.51,2.75-7.47,4.1-2.92,8.59-3.09,13.15-1.31,12.84,5.01,18.08,25.45,9.13,35.97-.93,1.09-3.34,2.11-4.33,1.64-1.26-.6-1.98-2.69-2.52-4.28-.34-.98.08-2.22.16-3.34.27-.07.53-.14.8-.21Z" style="fill: #000; stroke-width: 0px;"/>
  <path d="M189.74,338.66c-.3,7.3-2.66,14.33-6.98,20.6-.84,1.22-3.06,2.29-4.5,2.13-2.27-.25-2.68-2.54-2.45-4.61.46-4.17,1.12-8.32,1.51-12.49.23-2.53.28-5.11.1-7.65-.25-3.39-1.52-5.92-5.4-6.85-1.41-.34-3.24-2.61-3.25-4.01,0-1.44,1.68-3.51,3.14-4.23,4.54-2.22,10.56-.26,13.98,4.06,2.94,3.72,3.82,8.07,3.86,13.04Z" style="fill: #000; stroke-width: 0px;"/>
  <path d="M438.76,339.32c-.04-5.76.92-10.19,3.99-13.94,3.41-4.17,9.32-6,13.76-3.82,1.46.72,3.12,2.79,3.1,4.24-.01,1.4-1.83,3.69-3.23,4.01-4.09.95-5.29,3.73-5.34,7.17-.05,4.17.39,8.35.71,12.51.2,2.65.91,5.3.74,7.91-.09,1.43-1.3,3.55-2.47,3.92-1.16.36-3.49-.68-4.25-1.81-4.29-6.38-6.84-13.44-7.01-20.19Z" style="fill: #000; stroke-width: 0px;"/>
  <path d="M526.34,65.57c-11.93-.56-25.25-10.78-28.56-22.21-.31-1.07-.69-2.28-.46-3.29.24-1.07.98-2.52,1.85-2.83,1.02-.36,2.53.09,3.61.64.83.42,1.21,1.62,1.94,2.32,3.45,3.31,6.7,6.9,10.5,9.76,4.3,3.23,9.42,4.22,14.87,3.5,3.58-.47,6.13,1.16,6.81,3.85.71,2.79-.94,5.61-4.33,6.82-1.99.71-4.15.97-6.23,1.43Z" style="fill: #000; stroke-width: 0px;"/>
  <path d="M410.04,382.11c0-9.23,5.24-16.43,13.16-17.95,1.38-.26,2.86-.32,4.25-.14,2.56.33,4.41,1.76,4.85,4.4.46,2.74-1.05,4.75-3.44,5.49-6.76,2.08-8.14,7.16-7.75,13.23.26,4.07.89,8.12,1.39,12.18.27,2.18.12,4.29-2.31,5.04-2.48.76-3.68-1.03-4.68-2.95-3.49-6.71-5.48-13.65-5.47-19.29Z" style="fill: #000; stroke-width: 0px;"/>
  <path d="M562.95,89.21c-.14,2.84-.67,5.73-.33,8.51.81,6.71,3.85,12.44,8.67,17.21.8.79,1.94,1.42,2.36,2.37.56,1.28,1.12,3.03.64,4.15-.4.94-2.47,1.98-3.45,1.71-3.09-.87-6.53-1.71-8.91-3.68-8.65-7.19-12.08-16.77-10.85-27.88.23-2.1,1.45-4.25,2.71-6.03,1.4-1.99,3.68-2.56,6.06-1.69,2.44.9,3.28,2.9,3.11,5.34Z" style="fill: #000; stroke-width: 0px;"/>
  <path d="M218.81,382.54c-.67,7.23-3.15,13.7-6.6,19.79-.62,1.1-2.98,2.28-3.87,1.89-1.19-.52-2.4-2.53-2.42-3.91-.04-3.03.82-6.07,1.02-9.12.2-3.14.34-6.34-.01-9.46-.39-3.48-2.42-6.01-5.89-7.16-.48-.16-.97-.34-1.42-.56-2.32-1.11-3.86-2.81-3.5-5.53.38-2.86,2.43-4.13,5.07-4.53,6.1-.93,13.21,3.48,15.63,10,1.01,2.73,1.34,5.71,1.98,8.58Z" style="fill: #000; stroke-width: 0px;"/>
  <path d="M102.08,65.78c-2.6-.79-5.35-1.29-7.77-2.47-2.37-1.15-3.55-3.43-2.73-6.19.78-2.62,2.92-3.99,5.4-3.68,12.58,1.6,20.71-5.07,27.5-14.39,1.16-1.6,2.55-2.87,4.63-1.94,2.19.97,2.23,2.93,1.81,4.99-2.36,11.57-16.46,22.97-28.85,23.68Z" style="fill: #000; stroke-width: 0px;"/>
  <path d="M77.88,94.51c-.56,9.62-3.12,17.37-9.41,23.21-2.65,2.46-6.36,3.96-9.83,5.25-1.22.46-3.69-.54-4.63-1.67-1.35-1.62-.14-3.46,1.38-4.76,5.12-4.42,8.75-9.82,10-16.49.51-2.74.44-5.69.07-8.48-.53-4.07.54-6.95,3.52-7.86,2.91-.88,6.04.8,7.4,4.44.88,2.35,1.18,4.93,1.5,6.35Z" style="fill: #000; stroke-width: 0px;"/>
  <path d="M339.51,713.26c.89-10.21,8.82-18.36,19.12-19.41,6.37-.65,12.16,1.13,17.54,4.38,2.67,1.61,3.54,4.31,2.4,6.52-1.21,2.35-3.88,2.96-6.97,1.6-9.82-4.33-16.27-2.48-22.37,6.42-.52.76-1,1.54-1.49,2.32-1.14,1.83-2.65,3.74-4.86,2.57-1.48-.79-2.27-2.89-3.37-4.4Z" style="fill: #000; stroke-width: 0px;"/>
  <path d="M233.92,430.83c9.14.07,16.94,7.39,17.36,16.56.06,1.26-.91,3.36-1.85,3.66-1.18.38-3-.43-4.22-1.24-1.03-.68-1.57-2.1-2.38-3.16-3.3-4.3-6.68-5.68-11.8-3.93-3.22,1.1-6.26,2.92-9.12,4.82-3.18,2.11-5.83,2.53-7.75.55-1.89-1.95-1.67-4.88.59-7.79,4.46-5.75,12.1-9.53,19.16-9.48Z" style="fill: #000; stroke-width: 0px;"/>
  <path d="M415.5,444.18c-.1,3.79-2.72,5.91-5.68,5.06-1.32-.38-2.43-1.42-3.68-2.08-2.96-1.56-5.82-3.43-8.95-4.51-4.65-1.61-8.65-.17-11.58,3.9-.78,1.08-1.34,2.46-2.37,3.17-1.21.83-3.11,1.8-4.17,1.38-1.04-.42-2.06-2.56-1.97-3.87.65-9.53,8.63-16.7,18.16-16.35,7.84.29,14.1,3.85,18.79,10.08.82,1.09,1.16,2.54,1.45,3.21Z" style="fill: #000; stroke-width: 0px;"/>
  <path d="M265.66,693.72c12.16.05,20.87,7.05,22.27,16.6.21,1.4.46,2.98,0,4.24-.46,1.27-1.59,2.8-2.75,3.16-1,.31-2.74-.57-3.64-1.45-1.28-1.26-2.02-3.05-3.11-4.53-5.83-7.95-12.45-9.64-21.37-5.52-3.17,1.47-5.78,1.02-7.06-1.22-1.36-2.36-.4-5.18,2.55-6.96,4.54-2.74,9.47-4.3,13.11-4.32Z" style="fill: #000; stroke-width: 0px;"/>
  <path d="M460.93,768.12c-.64.87-1.37,2.81-2.66,3.34-1.43.58-3.51.2-5.08-.4-1.09-.41-1.7-1.95-2.64-2.87-2.9-2.83-5.59-5.97-8.85-8.32-3.41-2.45-7.51-3.14-11.69-1.57-1.96.74-4.27,1-5.07-1.14-.55-1.48-.16-3.89.76-5.25,3.14-4.61,7.92-5.79,13.23-5.24,9.11.95,19.51,10.16,21.62,19.11.12.49.16,1.01.37,2.33Z" style="fill: #000; stroke-width: 0px;"/>
  <path d="M192.71,746.56c4.13.12,8.33,1.94,10.75,6.55.59,1.12.54,3.25-.18,4.18-.7.92-2.86,1.61-3.96,1.22-7.42-2.63-12.97.53-17.93,5.47-1.87,1.86-3.27,4.19-5.04,6.17-1.61,1.81-3.65,2.76-6.04,1.58-2.52-1.25-3.16-3.58-2.38-6.01,2.93-9.09,12.29-19.18,24.78-19.15Z" style="fill: #000; stroke-width: 0px;"/>
  <path d="M280.22,161.86c-9.72.06-16.42-6.37-16.45-14.69-.01-2.82.94-5.11,3.78-6.02,2.81-.91,4.98.28,6.65,2.57.3.41.57.85.82,1.3,3.33,5.76,4.85,6.52,11.41,5.18,3-.61,5.95-1.52,8.9-2.36,2.08-.59,4.2-1.05,5.4,1.28,1.22,2.38-.43,3.83-2.23,5.02-5.93,3.94-12.02,7.48-18.27,7.73Z" style="fill: #000; stroke-width: 0px;"/>
  <path d="M348.14,161.85c-6.87-.4-13.4-4.18-19.49-8.78-.87-.66-1.42-3.18-.87-3.91.76-1.01,2.78-1.73,4.1-1.53,3.21.5,6.31,1.7,9.49,2.43,1.68.39,3.44.48,5.17.55,2.73.11,4.69-1.13,5.88-3.61.49-1.01,1-2.02,1.62-2.95,1.61-2.41,3.78-3.9,6.75-2.95,2.96.94,3.9,3.36,3.86,6.28-.13,8.3-6.87,14.62-16.52,14.47Z" style="fill: #000; stroke-width: 0px;"/>
  <path d="M191.8,639.93c9.46-.06,16.29,5.15,17.51,12.78.36,2.28.54,4.63-1.79,6.04-2.25,1.35-4.12.13-5.79-1.35-4.83-4.3-10.26-4.55-16.05-2.44-.77.28-1.5.67-2.28.89-2.41.68-4.75.64-6.38-1.58-1.66-2.26-1.39-4.68.17-6.86,3.77-5.25,9.24-7.11,14.63-7.48Z" style="fill: #000; stroke-width: 0px;"/>
  <path d="M437.15,640.01c4.65.24,9.66,1.96,13.39,6.42,2.25,2.69,2.58,5.75.86,7.85-2.03,2.47-4.65,2.36-7.26,1.23-6.6-2.88-12.61-2.48-18.29,2.38-1.11.95-3.75,1.36-4.89.69-1.18-.7-2.02-3.06-1.93-4.63.5-8.35,7.79-14.14,18.12-13.92Z" style="fill: #000; stroke-width: 0px;"/>
  <path d="M285.51,685.36c-12.39-.65-19.86-10.07-22.84-18.5-.85-2.41-.37-4.79,2.06-6.13,2.44-1.35,4.54-.37,6.29,1.53.62.67,1.15,1.43,1.67,2.19,4.36,6.34,10.34,10.02,17.96,11.08,1.11.16,2.38.08,3.29.61,1.29.76,3.18,1.96,3.21,3.01.03,1.31-1.3,3.34-2.53,3.85-2.88,1.18-6.05,1.63-9.1,2.37Z" style="fill: #000; stroke-width: 0px;"/>
  <path d="M342.71,685.36c-3.05-.76-6.21-1.26-9.11-2.42-1.18-.47-2.55-2.46-2.43-3.62.12-1.16,1.82-2.44,3.12-3.13,1.2-.63,2.78-.54,4.2-.78,7-1.15,12.64-4.5,16.77-10.33.83-1.17,1.66-2.36,2.68-3.34,1.69-1.63,3.72-2.26,5.87-.92,2.07,1.29,2.81,3.37,2.07,5.61-3.12,9.44-11.12,18.39-23.17,18.93Z" style="fill: #000; stroke-width: 0px;"/>
  <path d="M101.75,193.6c11.79.31,19.19,9.26,17.12,20.88-.35,1.95-1.16,3.95-3.31,3.65-1.35-.19-3.07-1.67-3.62-2.99-3.9-9.36-3.82-9.4-14.1-8.62-3.82.29-6.79-1.51-7.4-4.48-.68-3.3,1.18-6.18,5.01-7.29,2.04-.6,4.2-.77,6.3-1.13Z" style="fill: #000; stroke-width: 0px;"/>
  <path d="M509.32,211.92c0-16.75,14.31-20.31,24.34-16.98,3.01,1,4.91,3.96,4.52,6.56-.43,2.94-2.93,4.96-6.44,4.98-2.04.01-4.07-.35-6.11-.42-4.18-.14-5.88.96-7.55,4.87-.64,1.5-.87,3.26-1.78,4.55-.84,1.19-2.54,2.81-3.5,2.6-1.27-.29-2.4-2.04-3.18-3.4-.5-.89-.26-2.2-.31-2.74Z" style="fill: #000; stroke-width: 0px;"/>
  <path d="M410.11,587.55c-.82,1.09-1.58,3.09-2.86,3.52-1.43.48-3.51-.12-4.99-.87-1.03-.52-1.56-2.07-2.27-3.18-5.07-8-11.92-13.1-21.74-13.33-2.09-.05-4.06-.44-4.42-2.86-.39-2.6,1.54-3.55,3.63-4.14,7.78-2.22,14.77-.4,21.14,4.27,4.64,3.4,7.97,7.89,10.4,13.07.43.91.62,1.93,1.11,3.53Z" style="fill: #000; stroke-width: 0px;"/>
  <path d="M244.53,565.44c2.48.53,5.1.75,7.39,1.72,1.18.5,2.55,2.44,2.42,3.56-.13,1.09-2.06,2.77-3.23,2.79-11.11.26-18.51,5.98-23.73,15.3-1.45,2.59-4.09,3.53-6.21,2.43-2.48-1.29-3.18-3.55-2.23-6,4.27-10.94,14.54-19.48,25.58-19.81Z" style="fill: #000; stroke-width: 0px;"/>
  <path d="M221.59,622.33c-.31,5.15,2.21,9,5.82,12.28,1.28,1.16,3.03,1.89,4.08,3.2,1.02,1.28,2.27,3.4,1.83,4.53-.45,1.15-2.87,2.24-4.37,2.16-10.14-.55-17.96-9.94-17.13-20.22.09-1.12.27-2.24.52-3.33.83-3.71,2.92-5.66,5.64-5.32,2.71.34,3.92,2.58,3.61,6.7Z" style="fill: #000; stroke-width: 0px;"/>
  <path d="M416.8,625.66c-.15,9.83-7.5,18-17.15,18.93-2.06.2-4.03.02-4.84-2.22-.81-2.23.59-3.58,2.26-4.83,2.03-1.52,4.13-3.04,5.84-4.9,2.77-3.02,4.39-6.56,3.85-10.88-.44-3.51.99-5.75,3.58-6.13,2.51-.37,4.73,1.4,5.54,4.63.44,1.77.63,3.61.93,5.41Z" style="fill: #000; stroke-width: 0px;"/>
  <path d="M307.85,545.45c-.09,3.21-2.19,4.32-5.14,3.93-3.49-.46-7.08-.95-10.53-.58-2.28.24-4.44,1.9-6.57,3.08-2.91,1.62-5.61,1.49-7.22-.56-1.54-1.95-1.21-4.55.86-6.97,7.44-8.67,19.99-9.61,26.75-1.93.9,1.02,1.45,2.36,1.85,3.03Z" style="fill: #000; stroke-width: 0px;"/>
  <path d="M350.98,547.31c-.06,3.95-2.08,5.96-4.81,5.64-1.35-.16-2.78-.76-3.91-1.54-4.81-3.28-9.94-4.11-15.49-2.39-2.14.66-4.35,1.16-5.73-1.2-1.35-2.31.08-4.08,1.6-5.71,6.29-6.68,16.72-6.58,24.59.42,1.73,1.54,2.91,3.69,3.75,4.78Z" style="fill: #000; stroke-width: 0px;"/>
  <path d="M296.95,731.46c.94.19,2.3.28,3.52.74,3.47,1.31,4.28,5.26,1.2,7.19-5.46,3.42-8.94,8.23-11.7,13.85-1.38,2.83-4.02,3.89-6.34,2.87-2.75-1.2-3.36-3.63-2.59-6.17,1.15-3.8,2.37-7.65,4.16-11.17,2.28-4.47,6.23-6.92,11.74-7.32Z" style="fill: #000; stroke-width: 0px;"/>
  <path d="M332.24,730.78c2.8,1.52,5.99,2.59,8.31,4.65,4.66,4.15,6.06,10.13,6.92,16.02.2,1.39-1.37,3.61-2.74,4.54-1.86,1.26-4.02.33-5.41-1.46-.93-1.2-1.6-2.61-2.3-3.97-2.1-4.08-4.78-7.64-8.78-10.04-2.02-1.22-3.89-2.61-3.19-5.33.72-2.77,3.12-3.25,5.54-3.54.41-.05.82-.05,1.23-.07.14-.26.29-.52.43-.78Z" style="fill: #000; stroke-width: 0px;"/>
  <path d="M207.48,576.24c-2.7-1.05-5.56-1.84-8.07-3.24-2.21-1.23-3.17-3.51-2.08-6.08,1.11-2.63,3.46-3.26,5.87-2.51,5.09,1.58,8.84-.17,12.32-3.82.96-1.01,3.15-1.63,4.49-1.29,2.1.53,2.12,2.7,1.76,4.63-1.32,6.95-7.01,11.69-14.29,12.31Z" style="fill: #000; stroke-width: 0px;"/>
  <path d="M420.9,576.32c-7.32-.76-13.16-5.54-14.23-12.51-.22-1.41.52-3.75,1.58-4.36,1-.58,3.54.02,4.45.99,3.63,3.88,7.59,5.58,12.88,3.9,2.21-.7,4.32.1,5.41,2.37,1.13,2.36.5,4.72-1.57,5.95-2.63,1.57-5.66,2.47-8.51,3.65Z" style="fill: #000; stroke-width: 0px;"/>
  <path d="M301.58,622.79c-6.32-.5-11.31-3.4-14.33-9.29-1.53-2.98-.81-6.46,1.47-8.05,2.26-1.58,5.62-1.38,7.77,1.18,2.9,3.45,6.31,4.35,10.61,4.04,1.62-.12,4.22.94,4.79,2.19.67,1.45.13,4.02-.81,5.54-2.04,3.31-5.62,4.17-9.51,4.39Z" style="fill: #000; stroke-width: 0px;"/>
  <path d="M323.12,610.64c3.12.44,5.81-.7,8.14-3.32,2.8-3.14,6.16-3.65,8.68-1.68,2.51,1.95,2.8,5.37.76,8.91-3.57,6.19-11.45,9.68-17.86,7.52-2.11-.71-4.27-2.18-5.61-3.92-.98-1.27-1.36-3.85-.72-5.27.55-1.21,2.89-1.67,4.5-2.32.51-.21,1.21.03,2.13.08Z" style="fill: #000; stroke-width: 0px;"/>
</svg>