<?xml version="1.0" encoding="UTF-8"?>
<svg id="Layer_1" data-name="Layer 1" xmlns="http://www.w3.org/2000/svg" viewBox="0 0 733.03 900">
  <path d="M88.83,687.27c-5.86.67-11.72,1.46-17.6,2-12.25,1.13-24.38.5-36.22-3.14-26.67-8.2-39.91-30.75-33.36-57.87,5.3-21.93,16.5-40.87,31.36-57.73,20.57-23.33,46.13-39.2,74.57-51.22,16.57-7,32.57-15.35,48.74-23.27,2.97-1.45,5.5-3.78,8.29-5.63.98-.65,2.12-1.06,3.19-1.58-.33-.44-.66-.89-.99-1.33-.81-.47-1.59-1-2.43-1.42-9.1-4.57-13.41-12.19-13.86-22.11-.68-14.95,4.42-28.61,9.52-42.3,7.56-20.3,14.92-40.68,22.24-61.07,1.07-2.97,1.49-6.17,2.21-9.27-.28-.22-.55-.44-.83-.66-1.51.86-3.07,1.65-4.53,2.6-14.68,9.55-28.02,20.79-41.32,32.15-10.87,9.28-22.75,17.43-34.54,25.56-4.83,3.33-10.52,5.45-15.94,7.87-11.86,5.31-23.63,4.37-34.98-1.44-24.54-12.56-36.02-30.67-34.66-63.51,1.09-26.26,8.65-51.02,20.12-74.48,12.99-26.57,25.18-53.47,36.06-80.97,1.58-4,3.56-7.87,5.53-11.7,1.44-2.79,1.14-4.74-1.68-6.49-8.33-5.18-16.58-10.49-24.81-15.84-2.52-1.64-5.05-3.35-7.25-5.39-8.68-8.03-10.18-18.02-4.45-28.42,3.83-6.96,9.26-12.44,15.85-16.77,24.36-15.98,48.76-31.88,73.09-47.89,9.91-6.52,19.61-13.38,29.55-19.86,19.89-12.95,41.68-21.68,64.27-28.6,25.95-7.95,52.21-14.74,79.35-16.75,20.25-1.5,40.55-.85,60.6,3.11,1.56.31,3.28.42,4.81.09C386.42.12,404.34.06,422.25.29c21.43.27,42.16,5.31,62.78,10.44,25.39,6.32,50.34,14.13,73.43,26.73,9.36,5.11,18.28,11.04,27.25,16.82,20.32,13.07,40.62,26.2,60.81,39.47,10.73,7.05,21.25,14.42,31.79,21.75,6.22,4.32,11.07,9.91,14.44,16.73,4.59,9.28,3.26,18.66-4.22,25.79-3.24,3.08-7.18,5.47-10.94,7.96-7.55,5-15.17,9.89-22.8,14.77-2.11,1.35-2.47,2.95-1.49,5.22,8.93,20.58,17.61,41.26,26.76,61.74,6.33,14.18,13.73,27.89,19.83,42.16,10.18,23.82,16.81,48.54,15.56,74.76-.62,13.08-3.9,25.54-12.51,35.73-8.44,9.99-19.03,17.19-31.83,20.66-8.67,2.36-17.07,1.27-25.32-2.13-14.51-5.98-27.51-14.35-39.43-24.49-8.62-7.33-17.03-14.95-25.96-21.9-9.27-7.21-19.05-13.78-28.63-20.6-.73-.52-1.68-.74-3.19-1.39.21,1.65.21,2.68.49,3.63,2.05,6.81,3.87,13.7,6.31,20.37,6.79,18.52,14.08,36.87,20.68,55.45,2.73,7.68,4.41,15.76,6.13,23.75.74,3.42.66,7.11.44,10.64-.64,10.03-5.15,17.66-14.48,22.06-.66.31-1.27.72-2.4,1.36,1.27,1.21,2.23,2.29,3.35,3.16,10.43,8.06,22.36,13.4,34.3,18.7,11.14,4.95,22.33,9.8,33.43,14.86,31.95,14.55,58.6,35.55,77.7,65.28,8.61,13.4,15.37,27.76,17.85,43.75,3.52,22.7-7.86,42.51-29.29,50.88-15.63,6.1-31.82,6.26-48.18,4.14-3.6-.47-7.21-.91-11.7-1.48.91,1.69,1.27,2.77,1.95,3.56,22.07,25.75,40.14,54.25,57.46,83.28,6.16,10.32,10.73,21.14,12.31,33.11,3.8,28.75-13.79,44.4-36.5,48.2-13.68,2.29-26.59-1.42-39.2-6.19-19.83-7.51-38.65-17.06-56.91-27.86-10.64-6.29-21.89-11.62-33.09-16.9-11.81-5.57-23.88-10.56-35.84-15.79-1.15-.5-2.35-.89-3.89-1.47-.17,1.2-.42,2-.38,2.79,1.06,21.15-2.28,41.74-8.22,61.93-3.15,10.73-8.23,20.69-15.06,29.55-10.21,13.25-23.73,17.84-39.93,13.54-13.67-3.63-25.54-10.87-36.85-19.13-2.75-2.01-5.47-4.08-8.74-6.52-.36,1.66-.57,2.65-.78,3.64-.62,2.84-1.05,5.74-1.91,8.51-3.65,11.78-11.03,17.7-23.35,18.47-5.25.33-10.56.3-15.82-.03-11.3-.71-19.05-6.39-22.56-17.28-1.31-4.07-2.1-8.31-3.24-12.96-1.2.76-2.39,1.36-3.4,2.17-10.52,8.38-21.8,15.51-34.31,20.57-8.02,3.24-16.31,5.11-24.99,3.56-11.63-2.08-19.76-9.17-25.93-18.82-8.25-12.9-13.09-27.08-16.15-42.03-2.94-14.35-4.15-28.79-3.91-43.4.02-1.35,0-2.7,0-4.38-1.26.23-2.02.22-2.65.5-17.88,7.86-35.97,15.28-53.53,23.81-12.29,5.98-23.65,13.83-35.76,20.23-17.57,9.28-35.5,17.84-55.01,22.42-13.99,3.28-27.45,2.16-40.06-5.24-12-7.05-18.42-17.54-19.11-31.45-.64-12.84,2.29-25.03,8.53-36.09,15.06-26.7,31.06-52.83,50.26-76.84,3.64-4.55,7.33-9.06,10.97-13.61.69-.87,1.21-1.88,1.81-2.83l-.59-.81ZM630.02,724.85c.2-.21.4-.42.61-.63-.71-1.18-1.39-2.39-2.14-3.54-6.94-10.66-15.55-19.85-24.89-28.41-1.59-1.45-3.2-2.94-4.47-4.66-2.61-3.51-1.61-7.13,2.27-9.09.61-.31,1.16-.75,2.22-1.46-1.34-.75-2.2-1.31-3.13-1.74-18.14-8.5-36.96-14.9-56.44-19.7-9.23-2.28-17.99-6.53-26.81-10.25-1.43-.61-2.97-3.29-2.76-4.77.21-1.48,2.45-3.64,3.97-3.8,4.43-.45,9.11-.78,13.41.14,17.19,3.7,34.4,7.4,51.36,12.01,28.82,7.83,57.99,13.48,87.69,16.44,11.69,1.17,22.82-.42,32.86-7.11,6.15-4.1,9.73-9.73,8.96-17.15-.73-7.04-1.61-14.22-3.76-20.92-8.11-25.36-23.94-45.1-45.63-60.31-17.72-12.43-36.55-22.9-56.24-31.89-9.81-4.48-19.14-10.05-29.11-14.08-10.81-4.37-19.95-10.56-27.35-19.49-.87-1.04-2.04-2.39-3.2-2.53-4.95-.6-9.95-.81-14.93-1.16-.26.35-.52.71-.78,1.06,1.71,1.4,3.66,2.59,5.08,4.24,3.64,4.24,7.58,8.36,10.42,13.11,4.31,7.21.38,13.83-7.99,14.19-2.78.12-5.72.06-8.34-.72-6.39-1.91-12.7-4.1-18.9-6.55-3.49-1.38-6.83-3.29-9.92-5.42-1.04-.72-1.75-3.06-1.38-4.29.27-.9,2.53-1.44,3.97-1.65.96-.14,2.03.61,3.07.89,8.21,2.27,16.41,4.56,24.63,6.77,1.15.31,2.41.21,4.55.38-1.33-1.65-1.96-2.61-2.76-3.4-3.68-3.64-7.41-7.23-11.11-10.85-2.19-2.14-3.4-4.66-1.73-7.54,1.41-2.42.16-3.06-1.8-3.53-1.05-.25-2.11-.44-3.17-.65-10.21-2.02-20.44-.64-30.67-.2-12.52.54-24.84-.4-36.36-5.97-4.96-2.4-5.53-6.95-1.48-10.64,2.96-2.7,6.21-4.33,10.48-4.15,24.14,1.03,48.34.45,72.42,3.32,7.24.86,14.65.44,21.98.43,2.43,0,5.06-.66,5.56-3.5,1.05-5.89-.63-11.53-2-17.39-2.74,5.42-6.88,7.54-12.45,6.17-11.19-2.74-20.78-8.87-30.42-14.82-.95-.59-1.64-3.08-1.17-4.09.47-1.03,2.49-1.54,3.93-1.85.83-.18,1.86.43,2.77.74,6.63,2.3,13.24,4.64,19.87,6.92,1,.34,2.07.49,3.98.93-1.45-2.55-2.37-4.23-3.35-5.88-1.44-2.41-3.14-4.68-4.31-7.21-1.16-2.49-1.02-5.14,1.29-7.09,2.18-1.83,4.63-1.77,6.87-.15,1.2.86,2.3,2.02,3.06,3.28,2.33,3.88,4.48,7.86,6.69,11.81.55.98,1.08,1.97,1.61,2.95.27-.08.53-.16.8-.25-.11-.99-.15-1.99-.33-2.96-3.56-19.35-8.93-38.2-15.23-56.84-3.38-9.99-5.94-20.25-8.89-30.38-.87-2.97-2.01-5.88-2.67-8.9-.48-2.2-1.35-5.22-.33-6.66,2.17-3.05,2.16-6.15,2.29-9.47.16-4.2.42-8.4.82-12.59.16-1.69.58-3.44,1.27-4.98,1.11-2.46,3.14-3.84,5.96-3.56,2.7.27,4.25,1.99,4.87,4.51.38,1.56.59,3.18.72,4.79.43,5.48.84,10.97,1.14,16.46.14,2.54,1.32,3.68,3.82,4.37,5.48,1.5,11.24,2.69,16.2,5.31,20,10.52,38.76,23.04,56.6,36.91,9.91,7.7,20.1,14.67,31.63,19.98,11.91,5.49,27.01-2.84,30.7-11.85,2.66-6.5,4.06-13.18,4.26-20.14.5-18.3-1.12-36.37-4.93-54.32-4.08-19.23-9.5-38-19.54-54.95-10.5-17.73-19.42-36.07-25.93-55.61-1.03-3.08-1.78-3.18-4.77-1.64-2.87,1.48-5.76,2.99-8.79,4.07-5.27,1.88-9.48-1.57-8.81-7.06.65-5.32,1.95-10.55,5.56-14.62,4.91-5.54,9.7-11.43,15.53-15.87,9.6-7.29,20-13.53,30.05-20.24,1.11-.74,2.12-1.63,3.34-2.57-.88-.93-1.42-1.59-2.05-2.15-42.93-37.77-90.42-68.65-142.69-91.69-32.02-14.11-66.23-21.09-101.12-23.44-36.52-2.46-73.17-2.31-109.69-.33-43.39,2.35-85.37,11.9-124.33,31.66-41.3,20.95-80.33,45.58-115.68,75.71-3.82,3.26-7.61,6.56-11.99,10.34,1.08.67,1.63.99,2.16,1.34,7.41,4.84,14.72,9.83,22.23,14.49,9.73,6.03,18.53,13,25.18,22.45,3.19,4.54,4.99,9.52,5.49,15,.49,5.36-3.56,8.76-8.66,7.06-2.75-.91-5.39-2.22-7.94-3.61-4.27-2.34-4.49-2.32-6.09,2.22-5.53,15.7-11.59,31.15-20.4,45.37-7.65,12.35-14.02,25.33-18.26,39.21-7.31,23.96-11.68,48.43-11.4,73.58.09,8.22.59,16.4,3.74,24.16,4.6,11.32,17.98,18.41,28.41,14.18,7.64-3.1,15.2-6.85,22.02-11.45,17.43-11.75,34.2-24.48,51.7-36.14,9.81-6.53,19.76-13.27,31.93-15.18,4.95-.78,4.96-1,5.39-5.97.54-6.23.83-12.49,1.53-18.7.41-3.6,2.73-5.66,5.57-5.73,2.86-.07,5.18,1.86,6.14,5.23.35,1.24.64,2.53.72,3.81.33,5.27.5,10.56.87,15.82.09,1.33.35,2.92,1.15,3.88,2.5,2.97,2.06,5.86.58,9.03-.91,1.93-1.62,3.98-2.18,6.05-2.63,9.66-4.6,19.54-7.87,28.97-6.38,18.38-11.75,37.01-15.67,56.06-.5,2.45-.81,4.94-1.2,7.42,1.49-1.27,2.23-2.8,3.09-4.24,2.44-4.06,4.72-8.24,7.48-12.07,2-2.77,5.42-3.21,7.8-1.71,2.57,1.62,3.3,4.8,1.69,8.05-.81,1.64-1.89,3.14-2.84,4.7-1.47,2.42-2.92,4.84-4.38,7.26.21.23.42.45.63.68,1.19-.37,2.4-.71,3.57-1.12,7.04-2.44,14.06-4.92,21.1-7.32,1.99-.68,3.99-.59,5.03,1.57,1.06,2.2-.18,3.86-2.02,4.82-8.3,4.37-16.52,8.91-25.03,12.81-5.95,2.73-12.02,3.19-16.27-3.46-.09-.14-.39-.13-1.19-.38-.52,3.53-1.15,6.96-1.52,10.42-.83,7.93.47,9.59,8.36,9.71,6.46.1,13,.15,19.4-.63,24.07-2.92,48.28-2.31,72.42-3.32,4.56-.19,7.93,1.81,10.85,4.81,3.26,3.34,2.58,7.4-1.49,9.67-1.69.94-3.49,1.72-5.31,2.37-9.92,3.53-20.19,4.4-30.63,3.96-7.01-.3-14.02-.9-21.02-.81-4.71.06-9.42,1.02-14.1,1.74-1.48.23-3.15.75-1.82,2.99,1.86,3.14.82,5.78-1.6,8.11-3.35,3.21-6.74,6.38-10.03,9.64-1.17,1.16-2.11,2.54-3.16,3.82,2.18.44,4,.42,5.7-.06,8.31-2.32,16.59-4.74,24.87-7.15,2.13-.62,4.5-.86,5.16,1.59.34,1.26-.73,3.73-1.9,4.44-9.08,5.5-18.6,10.17-29.21,11.86-3.35.53-6.94.65-10.27.09-5.41-.92-8.08-5.76-6.39-11,.69-2.12,1.7-4.28,3.1-5.98,3.41-4.16,7.13-8.07,10.74-12.07.75-.83,1.54-1.61,2.97-3.1-4.7.3-8.41.76-12.1.7-3.09-.05-5.29.94-7.24,3.34-7.17,8.82-16.12,15.12-26.87,19.01-4.95,1.79-9.63,4.34-14.37,6.67-6.2,3.04-12.25,6.39-18.52,9.28-17.4,8-33.9,17.53-49.82,28.17-14.11,9.43-25.94,21.06-35.3,35.18-9.39,14.16-15.67,29.46-16.81,46.64-.6,9,3.32,15.28,10.89,19.73,9.63,5.66,20.1,7.14,30.94,5.94,13.72-1.52,27.53-2.83,41.06-5.45,15.98-3.1,31.69-7.54,47.54-11.31,16.9-4.02,33.78-8.13,50.76-11.76,4.29-.92,8.96-.42,13.4.02,1.35.13,3.38,2.16,3.53,3.49.17,1.52-1.13,3.5-2.32,4.79-1.12,1.2-2.86,1.97-4.46,2.55-8.01,2.89-15.89,6.37-24.12,8.33-19,4.52-37.23,11.01-54.87,19.28-1.01.47-1.94,1.1-3.26,1.87.9.63,1.28.97,1.73,1.2,4.7,2.39,5.52,6.22,2.01,10.15-1.79,2.01-3.82,3.81-5.79,5.64-8.65,8.03-16.53,16.73-22.98,26.66-.73,1.12-1.38,2.29-2.06,3.44.19.21.39.41.58.62,1.17-.66,2.35-1.29,3.49-1.99,12.45-7.57,24.88-15.16,37.34-22.72,1-.61,2.1-1.42,3.18-1.45,1.13-.03,2.74.45,3.28,1.28.55.83.29,2.44-.08,3.54-.28.81-1.24,1.47-2.03,2.01-14.22,9.57-28.44,19.15-42.73,28.62-1.95,1.3-4.19,2.29-6.42,3.03-6.21,2.04-10.82-2.14-9.05-8.45,1.04-3.69,2.74-7.28,4.65-10.62,7.56-13.16,16.77-25.1,27.55-35.81.95-.94,1.83-1.94,3.14-3.33-11.37,2.55-14.82,4.7-20.75,12.37-15.08,19.48-28.95,39.78-41.38,61.04-6.8,11.63-13.6,23.29-19.65,35.32-4.21,8.37-5.73,17.6-4.42,27.1.87,6.31,4.15,10.66,9.95,13.34,7.45,3.44,15.18,4.64,23.01,2.21,15.14-4.68,30.24-9.55,45.21-14.78,6.69-2.34,13.41-5.08,19.43-8.75,18.44-11.23,38.12-19.75,58.17-27.48,9.06-3.49,18.2-6.91,28.11-7.08,2.41-.04,2.71-1.53,2.87-3.42.91-11.12.69-22.2-1.1-33.23-.26-1.59-.86-3.36-.42-4.78.59-1.91,1.66-4.42,3.2-5.08,1.7-.73,4.76-.35,6.16.82,2.12,1.76,3.88,4.44,4.77,7.07,1.62,4.78,3.06,9.75,3.56,14.75,1.95,19.2,3.89,38.41,5.1,57.67,1.37,21.74,10.63,39.46,25.75,54.58,4.88,4.88,10.51,6.3,16.87,3.61,4.66-1.97,9.26-4.14,13.66-6.62,9.58-5.42,18.89-11.32,28.54-16.59,4.59-2.5,9.62-4.36,14.64-5.88,4.69-1.42,9.46-.53,13.78,1.86,6.44,3.56,7.1,10.13,1.35,14.74-2.07,1.66-4.74,2.55-6.96,4.05-1.25.84-2.8,2.08-3.07,3.37-1.1,5.27-.78,10.51,1.6,15.49,1.08,2.26,2.76,3.3,5.23,2.66,5.45-1.41,10.87-1.38,16.33-.02,2.42.61,4.12-.39,5.21-2.7,2.12-4.46,2.33-9.13,1.92-13.93-.22-2.52-1.34-4.13-3.71-5.16-2.26-.98-4.53-2.12-6.49-3.6-5.96-4.5-5.39-11.32,1.16-14.94,1.31-.72,2.76-1.25,4.2-1.65,5.57-1.52,11.1-.82,16.08,1.73,9.69,4.96,19.12,10.42,28.7,15.6,7.29,3.95,14.51,8.07,22,11.58,5.98,2.81,11.65,1.34,16.32-3.35,14.02-14.09,23.91-30.29,25.5-50.61.97-12.47,1.56-24.97,2.58-37.44,1.04-12.68,2.01-25.43,5.91-37.64.98-3.07,2.92-5.95,4.93-8.52,1.56-1.99,4.42-2.6,6.46-1.07,1.58,1.19,2.72,3.46,3.21,5.46.43,1.77-.24,3.83-.54,5.75-1.67,10.62-1.7,21.26-.83,31.95.19,2.33.96,3.3,3.46,3.58,4.7.52,9.49,1.07,13.96,2.49,20.91,6.67,41.49,14.44,60.34,25.72,22.99,13.75,48.08,21.77,73.48,29.16,4.47,1.3,9.48,2.11,14.03,1.51,18.49-2.4,22.92-10.31,21.72-25.7-.79-10.11-4.4-19.35-9.54-27.94-10.63-17.78-21.05-35.7-32.36-53.04-8.3-12.72-17.86-24.61-26.88-36.86-4.23-5.75-11.04-6.27-17.46-9.04.44,1.03.49,1.37.69,1.59.66.71,1.38,1.37,2.06,2.05,11.62,11.57,21.5,24.46,29.24,38.93,1.46,2.72,2.67,5.73,3.19,8.75.92,5.27-3.17,8.84-8.34,7.41-2.67-.74-5.28-1.96-7.65-3.41-8.55-5.24-17.09-10.53-25.44-16.09-6.01-4-11.72-8.46-17.54-12.74-1.77-1.3-3.21-3-1.77-5.19,1.55-2.36,3.71-1.56,5.71-.38,1.39.83,2.77,1.67,4.16,2.51,11.52,7.01,23.05,14.02,34.58,21.02.98.6,2,1.12,3,1.68Z" style="fill: #000; stroke-width: 0px;"/>
  <path d="M264.2,619.82c7.79-.07,16.11-1.84,23.99-5.84,8.98-4.55,16.62-10.79,23.59-17.94,7.08-7.25,14.22-14.44,21.23-21.76,5.84-6.1,10.39-6.83,17.44-2.37,4.74,3,9.37,6.16,14.17,9.04.95.57,2.78.67,3.68.12,4.9-2.94,9.61-6.18,14.42-9.25,6.62-4.23,11.59-3.53,17.02,2.05,8.88,9.11,17.67,18.32,26.85,27.12,10.43,10.01,22.53,17.03,37.27,18.5,2.24.22,4.53.3,6.78.13,9.45-.72,14.85,5.03,12.97,14.39-1.45,7.18-3.54,14.23-5.15,21.38-2.06,9.15-3.76,18.39-5.92,27.52-3.95,16.64-15.41,26.98-32.34,29.87-9.7,1.65-18.65-.53-27.33-4.55-4.99-2.31-9.92-4.76-14.9-7.1-5.03-2.37-10.28-2.48-15.79-2.22-10.2.47-20.46.63-30.64.04-6.46-.38-12.37.26-18.23,2.95-7.73,3.55-15.37,7.6-23.47,9.98-21.81,6.4-44.21-7.32-49.24-29.42-3.59-15.77-7.35-31.5-10.83-47.3-.56-2.55-.58-5.43-.01-7.97,1.3-5.84,5.57-8.01,14.45-7.36ZM434.99,648.11c-6.06-2.39-11.78-4.56-17.42-6.91-3.19-1.33-5.59-3.54-6.69-7.03-.59-1.87-1.72-2.85-3.94-1.59-1.35.77-3.02,1.14-4.59,1.3-8.05.8-15.93-.36-23.71-2.33-3.98-1.01-6.34-3.74-6.88-7.71-.43-3.18-.51-6.44-.38-9.65.08-1.87-.34-2.94-2.21-3.19-1.38-.18-2.78-.38-4.16-.28-2.48.18-3.76,1.15-3.41,4.14.35,2.95.02,6.03-.41,9-.6,4.12-3.08,7.07-7.22,7.74-6.68,1.09-13.43,1.94-20.18,2.44-2.57.19-5.39-.49-7.81-1.48-2.08-.85-3.26-.44-3.8,1.34-1.23,4-4.09,6.3-7.69,7.77-4.48,1.82-9.07,3.39-13.62,5.04-.95.35-1.94.59-3.33,1.02.76.43,1.01.66,1.3.71,5.38,1.03,9.88,3.08,11.44,9.04.14.55,1.85,1.19,2.58.97.82-.25,1.9-1.41,1.93-2.21.13-4.16,2.3-6.56,6.03-7.88,5.49-1.93,10.95-3.98,16.48-5.8,13.87-4.57,23.72.59,28.11,14.6.22.71.57,1.39,1.12,2.69.54-1.4.83-2.08,1.06-2.77,4.7-14.29,14.5-19.18,28.77-14.29,5.31,1.82,10.57,3.74,15.85,5.63,3.59,1.29,5.68,3.65,5.9,7.65.05.87,1.29,2.24,2.12,2.35.82.1,2.32-.91,2.63-1.76,1.51-4.17,4.56-6.41,8.61-7.6,1.11-.33,2.24-.59,3.51-.92ZM310.7,627.37c1.57-.39,2.86-.48,3.92-1.02,5.72-2.95,11.57-5.72,17-9.13,4.45-2.79,8.34-6.46,12.56-9.64,5.9-4.44,12.58-5.89,19.87-4.94,1.58.21,3.24.21,4.82,0,7.28-.94,13.96.49,19.87,4.93,3.45,2.59,6.79,5.31,10.18,7.98,6.05,4.78,12.51,8.82,19.98,11.02,1.11.33,2.27.5,3.93.86-.58-.79-.67-.99-.83-1.13-11.9-10.29-23.94-20.45-33.02-33.5-1.25-1.8-2.56-2.01-4.35-.83-5.23,3.44-10.89,5.12-17.2,3.91-.62-.12-1.31-.11-1.93,0-6.2,1.19-11.76-.47-16.89-3.84-1.95-1.28-3.12-.79-4.59.96-4.77,5.68-9.56,11.36-14.73,16.66-5.84,5.98-12.09,11.56-18.57,17.69ZM388.54,673.63c4.07.74,7.83,1.38,11.57,2.1,5.17,1,10.34,2.03,15.49,3.1,5.79,1.21,11.58,2.4,17.34,3.75,2.51.59,4.9,1.73,7.42,2.21,1.09.21,3.1-.34,3.42-1.09.47-1.1.07-2.8-.45-4.04-.38-.88-1.53-1.46-2.41-2.07-15.83-10.86-32.76-11.1-50.31-5.15-.66.22-1.24.7-2.06,1.18ZM343.9,673.21c-.91-.4-2-1.14-3.19-1.34-7.19-1.25-14.4-3.26-21.62-3.35-10.47-.13-19.91,4.02-28.41,10.14-1.76,1.26-2.52,2.9-1.4,5.04,1.14,2.18,2.85,1.27,4.5.89,16.64-3.78,33.28-7.56,50.12-11.37ZM379.94,662.28c9.46-1.75,18.87-3.49,28.27-5.23-.55-.74-1.11-1.06-1.69-1.13-6.53-.69-13.06-1.56-19.61-1.93-5.94-.33-7.48,1.63-6.97,8.28ZM323.73,657.1c1.75.37,2.62.57,3.51.73,6.65,1.2,13.3,2.39,19.94,3.58,1.48.27,2.95.73,4.43.73.58,0,1.63-1,1.66-1.59.25-4.51-1.71-6.8-6.23-6.55-6.96.39-13.89,1.24-20.83,1.95-.56.06-1.07.48-2.48,1.14ZM353,674.7c3.91,1.76,7.57,3.51,11.32,5.03,1.11.45,2.66.67,3.72.26,4.12-1.6,8.13-3.5,12.26-5.33-9.1-2.71-18.14-3.01-27.3.04ZM339.65,622.05c.1.36.2.73.31,1.09,2.11,0,4.23.12,6.34-.02,5.31-.35,6.47-2.71,3.69-8-3.47,2.33-6.9,4.63-10.33,6.93ZM382.29,614.67c-.3,2.16-.78,3.38-.54,4.43.29,1.26,1.02,3.23,1.85,3.39,3.03.6,6.19.58,9.29.79.12-.41.25-.81.37-1.22-3.43-2.31-6.87-4.62-10.98-7.39ZM297.78,661.46c-4.25-.92-10.02,1.46-11.88,4.79,3.98-1.6,7.56-3.05,11.88-4.79ZM445.94,648.62c4.93,4.74,6.41,4.84,7.2.66-2.43-.22-4.81-.44-7.2-.66ZM446.96,666.22c-2.46-3.82-8.37-5.96-10.95-4.45,3.7,1.5,7.32,2.98,10.95,4.45ZM279.92,649.25c1.29,4,3.11,3.8,7.66-.6-2.83.22-5.07.4-7.66.6Z" style="fill: #000; stroke-width: 0px;"/>
  <path d="M333.8,472.23c.54-1.71,1.03-3.44,1.64-5.13,1.6-4.43,4.16-6.44,7.67-6.12,3.31.31,5.93,3.02,6.53,7.43,1.21,8.89-.28,17.53-4,25.57-5.08,11-11.26,21.4-20.03,29.97-1.94,1.89-1.52,2.86.02,4.98,2.21,3.04,3.69,6.72,4.87,10.33.92,2.81,2.07,3.25,4.7,2.35,3.55-1.22,7.2-2.37,10.89-2.93,9.04-1.38,14.77,1.83,18.92,10.04.31.62.82,1.14,1.58,2.18.7-1.14,1.25-1.86,1.62-2.66,3.3-7.13,9.04-10.43,16.67-9.69,4.44.43,8.83,1.83,13.13,3.16,2.55.78,3.83.42,4.45-2.28.99-4.31,1.94-8.65,5.8-11.59,1.61-1.23.61-2.46-.48-3.5-8.14-7.81-13.79-17.37-18.97-27.23-4.25-8.1-6.06-16.82-5.68-25.94.09-2.2.61-4.55,1.6-6.49,2.47-4.83,8.25-5.08,11.27-.55,1.05,1.58,1.56,3.52,2.29,5.31.38.93.67,1.9,1,2.85l.86-.1c.11-1.1.31-2.2.33-3.3.19-9.85-1.5-19.3-5.8-28.26-5.44-11.34-7.37-23.41-6.72-35.88.21-3.96,1-7.9,1.64-11.83.19-1.15.66-2.3,1.22-3.32,1.25-2.26,3.18-3.6,5.85-3.15,2.83.47,4.4,2.44,4.53,5.16.16,3.44.06,6.91-.2,10.34-.81,10.53,1.49,20.29,6.41,29.62,3.01,5.71,5.68,11.64,8.1,17.62,4.42,10.92,5.17,22.2,2.32,33.65-1.4,5.65-3.09,11.23-4.34,16.92-.31,1.42.08,3.52,1,4.59,2.29,2.69,5.26,4.81,7.6,7.47,2.9,3.29,6.15,6.55,8.01,10.41,4.74,9.8,3.75,13.61-4.68,21.65-2.7,2.58-4.02,4.96-3.92,8.61.07,2.66-.22,5.43-.95,7.98-2.29,7.98-10.36,11.38-17.76,7.59-1.8-.92-3.34-2.35-5.05-3.46-3.25-2.1-6.47-4.26-9.83-6.16-1.91-1.07-3.86-.79-5.67.79-4.27,3.73-8.98,3.44-13.93,1.39-1.07-.44-2.65-.4-3.74.04-4.71,1.93-9.31,2.33-13.41-1.11-2.27-1.9-4.51-2.14-6.83-.81-3.16,1.82-6.15,3.96-9.18,6-1.52,1.02-2.89,2.3-4.49,3.15-7.91,4.21-16.34.48-18.36-8.26-.67-2.9-.33-6.04-.92-8.97-.4-1.96-1.61-3.77-2.48-5.63-.08-.18-.33-.27-.49-.41-9.13-8.43-11.68-13.4-3.11-26.4,2.96-4.49,7.47-8.02,11.5-11.74,2.78-2.58,3.75-5.05,2.21-8.81-1.46-3.56-1.99-7.5-3.09-11.22-4.56-15.37-2.55-30.09,4.35-44.32,1.69-3.49,3.29-7.04,5.16-10.44,5.14-9.34,7.32-19.28,6.56-29.91-.23-3.22-.41-6.47-.33-9.69.07-2.86,1.53-5.03,4.46-5.6,2.96-.57,5.31.93,6.15,3.59,1.2,3.77,2.16,7.7,2.51,11.63,1.19,13.56-.62,26.71-6.55,39.1-4.29,8.96-5.93,18.42-5.67,28.28.03,1.02.18,2.04.28,3.05.32.04.64.08.95.12Z" style="fill: #000; stroke-width: 0px;"/>
  <path d="M285.96,173.2c-4.1-3.03-7.9-5.77-11.61-8.61-.83-.64-1.7-1.55-1.98-2.5-.36-1.24-.67-3.02-.05-3.89.72-1,2.5-1.76,3.77-1.7,1.99.11,3.96.95,5.91,1.56,8.43,2.66,16.82,5.21,25.81,5.7,4.62.25,9.17,2.19,13.72,3.5,3.31.95,6.51,2.3,9.84,3.16,10.93,2.83,15.93,14.26,10.51,24.26-3.46,6.39-9.08,10.05-15.86,11.87-4.57,1.23-9.26,2.3-13.96,2.65-13.96,1.04-26.23,6.49-38.13,13.34-8.03,4.62-16.18,9.04-24.46,13.2-13.74,6.89-27.68,4.96-41.49.09-2.25-.79-4.49-2.31-6.12-4.07-7.27-7.85-11.3-17.37-14.1-27.6-2.1-7.66-4.75-15.17-7.37-22.68-1.74-4.98-3.88-9.82-5.76-14.75-.46-1.2-.69-2.5-.88-3.77-.34-2.34.2-4.73,2.61-5.25,1.83-.39,4.82-.16,5.81,1.03,8.24,9.95,20.3,12.2,31.52,16.08,1.99.69,4.42.1,7.14.1-.39-1.27-.86-2.22-.96-3.22-.3-2.96-.97-6.01-.55-8.89.61-4.19,4.37-5.39,7.79-2.87,1.04.76,1.92,1.73,2.89,2.58,4.67,4.15,9.26,8.41,14.06,12.41,3.1,2.59,6.95,1.95,11.04,2.12-2.08-4.18-4.03-7.73-5.64-11.44-1.11-2.57-3.02-5.61.14-7.93,2.97-2.18,5.27.38,7.44,2.02,6.2,4.66,12.31,9.44,18.49,14.12.72.54,1.78,1.07,2.59.96,2.64-.37,5.24-1.03,7.85-1.58ZM238.17,216.11c2.31-1,3.7-1.49,4.98-2.18,4.75-2.56,4.72-2.58,3.66-7.75-.19-.94-.31-1.93-.29-2.89.08-3.15,1.92-5.41,4.61-5.77,2.98-.39,5.29,1.27,6.16,4.48.26.98.44,1.98.73,3.26,2.78-1.25,5.19-2.18,7.43-3.42.69-.38,1.43-1.74,1.25-2.43-.84-3.33-.64-6.37,2.29-9.4-1.75,0-2.81-.14-3.82.02-7.54,1.18-15.01.63-22.56-.21-10.7-1.19-21.47-1.86-32.21-2.7-2.47-.19-5.04.1-5.97,2.79-1.98,5.71-.99,11.29,1.36,16.74.76-1.48,1.07-3.02,1.61-4.48,1.18-3.18,3.66-4.84,6.69-4.48,3.23.39,4.93,2.53,5.56,5.5.33,1.56.19,3.21.28,4.83.16,2.68.32,5.37.51,8.05.2,2.83,1.8,3.1,4.27,2.69,2.73-.46,2.51-1.84,2.07-3.91-.93-4.36-.46-8.62,1.95-12.47,1.5-2.4,3.68-3.77,6.57-2.73,2.73.99,3.55,3.28,3.32,6-.08.96-.42,1.91-.45,2.87-.07,2.29-.02,4.57-.02,7.61ZM276.97,198.06c1.79-.41,4.27-.52,6.22-1.6.92-.51.78-2.89,1.17-4.41.78-3.08,3.03-5.02,5.68-4.74,3.11.33,4.36,2.33,4.54,5.31.05.79.68,2.19,1.09,2.21,1.8.08,3.71,0,5.39-.58.55-.19.55-2.06.76-3.17.45-2.36,1.68-4.05,4.19-4.21,2.52-.17,3.98,1.36,4.66,3.66.29,1,.43,2.04.76,3.7,2.13-.69,4.62-.75,5.72-2.02,1.92-2.21,3.86-2.76,6.43-1.92.46-3.94-.57-5.97-4.21-6.44-4.88-.63-9.93-1.24-14.77-.65-8.1.99-16.09,2.93-24.13,4.48-2.46.47-4.91.98-6.76,1.35,1.14,3.16,2.11,5.87,3.25,9.02Z" style="fill: #000; stroke-width: 0px;"/>
  <path d="M477.55,177.11c4.72-.37,8.76.39,12.17-2.77,4.82-4.47,9.79-8.78,14.67-13.19,1.82-1.64,3.69-3.2,6.33-2.2,2.76,1.05,3.45,3.6,3.33,6.11-.15,3.17-.87,6.31-1.46,10.18,2.57-.2,5.28,0,7.73-.7,5.18-1.48,10.25-3.35,15.31-5.21,5.57-2.04,10.31-5.36,14.2-9.86,1.79-2.07,3.9-3.14,6.58-2,2.81,1.19,3.43,3.72,2.63,6.23-1.84,5.73-3.82,11.45-6.17,16.99-3.46,8.16-6.19,16.45-8.14,25.16-2.18,9.72-6.57,18.79-13.74,25.98-2.32,2.33-5.69,3.91-8.87,5.03-15.9,5.61-31.19,3.86-45.83-4.4-9.49-5.35-18.98-10.68-28.56-15.87-7.1-3.84-14.78-5.87-22.81-6.82-5.67-.68-11.33-1.66-16.88-2.94-6.13-1.42-11.45-4.41-15.29-9.63-7.39-10.06-3.46-24.57,9.81-27.01,2.83-.52,5.48-1.99,8.3-2.67,6.25-1.51,12.56-2.74,18.83-4.18,6.4-1.47,12.78-3.02,19.14-4.62,2.4-.61,4.7-1.83,7.12-2.08,1.55-.16,3.82.5,4.66,1.62.68.92.3,3.68-.62,4.55-3.17,3-6.76,5.56-10.24,8.21-.8.61-1.83.93-2.98,1.5,6,3.09,8.78,2.64,13.37-1,5.82-4.62,11.81-9.06,17.94-13.27,1.31-.9,4.08-1.22,5.17-.43,1.08.78,1.62,3.55,1.13,5.03-1.24,3.75-3.18,7.28-4.88,10.88-.44.92-1.02,1.77-1.94,3.36ZM474.92,205.24c.38-1.61.54-2.56.82-3.47.94-3.02,3.23-4.62,6.03-4.25,2.65.35,4.68,2.72,4.71,5.72.01,1.17,0,2.49-.51,3.49-1.65,3.3-.42,5.22,2.65,6.54,1.08.47,2.09,1.11,3.14,1.68,2.11,1.14,3.09.28,3.04-1.89-.06-2.47-.32-4.93-.52-7.39-.33-4.01,2.43-7.2,5.79-6.15,1.75.55,3.58,2.09,4.54,3.68,2.25,3.74,2.56,7.98,1.43,12.21-.56,2.09.09,2.83,2.15,3.31,2.74.63,4.22-.1,4.39-2.93.23-3.87.22-7.76.57-11.61.36-3.87,2.79-6.31,6.03-6.5,3.25-.19,5.83,1.98,6.8,5.72.3,1.14.56,2.28.84,3.42.47,0,.94-.01,1.41-.02.43-4.31,1.2-8.62,1.2-12.93,0-5.15-2.12-7.03-7.29-6.71-9.89.63-19.8,1.27-29.64,2.39-8.28.94-16.51,1.86-24.81.47-.9-.15-1.85-.02-3.34-.02,2.47,3.28,2.75,6.44,1.75,9.83-.14.49.39,1.54.88,1.79,2.47,1.25,5.02,2.32,7.93,3.63ZM455.95,197.98c1.23-3.26,2.25-5.95,3.32-8.79.01,0-.34-.31-.73-.38-10.47-1.98-20.9-4.27-31.44-5.75-4.47-.63-9.23.17-13.78.86-3.44.52-4.45,2.58-3.99,5.51,1.97.65,4.23.72,5.26,1.88,2.04,2.29,4.3,2.49,7.02,2.26.15-.49.31-.88.38-1.29.68-3.82,2.17-5.66,4.76-5.42,3.38.31,4.28,2.66,4.45,5.68.19,3.58,3.21,1.89,4.98,2.37,1.95.53,2.26-.8,2.26-2.46,0-2.65,1.21-4.63,4-5.08,2.7-.43,4.63.89,5.67,3.3.5,1.15.33,2.6.87,3.73.5,1.05,1.37,2.23,2.37,2.66,1.53.65,3.31.7,4.61.93Z" style="fill: #000; stroke-width: 0px;"/>
  <path d="M472.54,296.95c-1.51,3.75-.5,6.38,1.15,9.06,2.26,3.66,4.5,7.37,6.34,11.24.99,2.08,1.48,4.54,1.59,6.86.24,4.94-3.61,7.59-7.93,5.16-2.8-1.57-4.97-4.3-7.29-6.65-1.09-1.1-1.84-2.53-3.2-4.44-.53,1.43-1.09,2.17-1.02,2.86.5,5.2,1.17,10.48,5.54,14.05,11.78,9.62,13.5,22.45,11.82,36.36-.62,5.16-5.28,7.21-9.15,3.71-2.42-2.19-4.54-5.38-5.39-8.51-1.59-5.89-5.17-10.09-9.45-13.94-2.92-2.63-6.37-3.73-10.38-3.74-8.63-.03-17.26-.24-25.87-.62-9.05-.41-16.24-4.91-22.27-11.27-16.23-17.12-19.27-37.01-11.4-58.74,1.24-3.44,4.07-6.7,6.97-9.06,5.73-4.67,12.37-8.13,19.84-8.91,9.1-.95,18.27-1.89,27.39-1.7,11.06.22,19.66,5.63,25.76,15.03,1.01,1.56,2.97,2.8,4.76,3.53,6,2.44,10.96,6.04,14.18,11.72.89,1.58,1.63,3.32,2.02,5.08.67,3.04,1.6,6.46-1.59,8.6-3.3,2.22-5.58-.53-7.93-2.38-1.38-1.08-2.82-2.09-4.48-3.31ZM409.1,279.42c7.24.2,15.6-2.48,19.1,6.75,3.65,9.61.81,17.51-8.27,22.99,6.26,2.36,8.16,5.13,7.44,10.57-.63,4.74-3.71,8-8,8.46-4.3.46-9.42-2.44-10.6-6.42-2.24-7.6,3.5-9.54,8.95-11.76-6.5.25-12.3-.88-16.54-5.99-4.44-5.35-3.5-11.12-1.04-17.08-1.14,1.22-2.03,2.5-2.54,3.92-2.02,5.57-2.32,11.34-.1,16.79,2.26,5.55,5.19,10.85,8.05,16.14,1.87,3.45,5.11,5.19,8.97,5.64,7.18.84,14.36,1.64,21.55,2.35,1.3.13,2.64-.24,4.42-.42-2.72-7.59.24-13.46,4.26-19.07.5-.7.94-1.45,1.48-2.12,5.38-6.78,5.93-14.51,3.72-22.39-.82-2.93-2.79-5.96-5.09-7.98-7.76-6.84-27.09-7.13-35.5-.93-.07.05-.08.19-.25.57ZM419.07,293.65c-.03-.32.09-1.15-.2-1.79-.51-1.1-1.08-2.5-2.02-2.94-.61-.29-2.13.67-2.88,1.43-1.57,1.6-3.07,3.32-4.29,5.19-1.97,3.05-.4,5.74,3.28,5.93,3.79.19,6.1-2.59,6.1-7.81Z" style="fill: #000; stroke-width: 0px;"/>
  <path d="M269.43,318.79c-.92,1.28-1.67,2.74-2.79,3.8-2.62,2.47-5.11,5.33-8.22,6.95-3.73,1.94-7.42-.78-7.06-5.01.27-3.14,1.23-6.36,2.52-9.25,1.48-3.32,3.62-6.36,5.57-9.46,1.61-2.56,2.62-5.16,1.37-8.66-.93.45-1.79.72-2.49,1.23-1.74,1.27-3.32,2.77-5.11,3.97-3.53,2.37-7.06.61-7.31-3.65-.25-4.27,1.17-8.1,3.64-11.5,3.31-4.56,7.67-7.72,12.9-9.94,2.12-.9,4.24-2.57,5.57-4.45,4.54-6.44,10.24-11.55,17.96-12.93,17.34-3.1,34.36-2.16,50.31,6.47,7.12,3.85,11.07,9.78,13.06,17.57,4.67,18.27,1.85,34.85-10.19,49.62-8.09,9.93-18.09,15.66-31.37,15.08-7.2-.32-14.45.09-21.66.48-2.16.12-4.6.79-6.35,2.02-5.15,3.63-9.5,7.91-11.41,14.37-.97,3.28-2.85,6.54-5.13,9.08-1.27,1.41-4.3,2.01-6.37,1.74-2.65-.34-3.48-3.06-3.54-5.54-.1-4.85-.22-9.71.09-14.54.53-8.11,4.66-14.55,10.59-19.73,4.61-4.03,6.24-9.15,6.83-14.86.09-.86-.27-1.77-.42-2.66-.33-.06-.66-.12-1-.18ZM323.75,279.43c-.14-.4-.15-.65-.28-.77-.32-.28-.67-.56-1.06-.73-9.83-4.07-19.81-5.12-29.86-.97-4.68,1.93-8.21,5.26-9.49,10.35-2.03,8.06-1.68,15.73,3.59,22.77,4.63,6.18,9.1,12.56,5.89,21.26,1.38.21,2.32.56,3.22.46,8.25-.89,16.52-1.62,24.7-2.96,2.28-.37,4.71-2.26,6.26-4.12,4.51-5.45,7.54-11.78,9.37-18.64,1.47-5.49,1.1-10.91-1.02-16.17-.46-1.13-1.33-2.09-2.01-3.13,2.23,6.04,3.15,11.72-1.16,17.05-4.13,5.11-9.87,6.41-16.91,5.86,3.09,1.73,5.61,2.72,7.6,4.36,2.25,1.85,2.66,4.6,1.75,7.41-1.26,3.92-6.11,7.03-10.44,6.74-4.23-.29-7.38-3.29-8.22-7.84-1.03-5.56.73-8.41,7.13-11.29-.56-.45-1.02-.87-1.53-1.2-7.15-4.72-9.96-13.68-6.67-21.58,1.76-4.24,4.76-6.86,9.59-6.86,3.1,0,6.21,0,9.55,0ZM313.86,293.49c0,5.24,2.15,8.16,5.78,7.89,1.42-.11,3.26-.95,3.99-2.06.58-.89.14-2.93-.54-4.03-1.23-1.98-2.86-3.76-4.54-5.41-2.06-2.01-3.6-1.49-4.35,1.3-.25.92-.28,1.9-.34,2.31Z" style="fill: #000; stroke-width: 0px;"/>
  <path d="M540.26,616.43c-2.65-1.61-5.21-3.38-7.96-4.79-4.6-2.37-9.32-4.51-13.98-6.77-3.58-1.74-5.08-4.44-4.22-7.44.8-2.79,3.56-4.56,7.24-4.06,2.74.38,5.54,1.09,8.06,2.23,8.52,3.86,16.14,9.16,22.83,15.7,3.59,3.51,6.5,7.57,4.46,12.93-2.01,5.27-6.8,7.16-11.79,6.92-8.03-.38-16.16-1.07-24-2.77-13.97-3.03-27.13-8.59-40.01-14.77-2.03-.97-4.03-2.16-3.41-4.81.66-2.87,3.13-3.1,5.45-2.72,7.97,1.33,15.96,2.64,23.87,4.28,9.72,2.02,19.36,4.38,29.05,6.56,1.32.3,2.69.39,4.03.58.13-.36.25-.71.38-1.07Z" style="fill: #000; stroke-width: 0px;"/>
  <path d="M193.26,617.42c1.45-.19,2.92-.26,4.34-.58,12.1-2.74,24.16-5.65,36.3-8.24,5.58-1.19,11.28-1.82,16.94-2.58,2.08-.28,3.99.38,4.56,2.68.57,2.28-.83,3.65-2.73,4.56-16.88,8.13-34.2,15.06-52.93,17.52-4.85.64-9.99.72-14.78-.13-9.47-1.68-12.37-10.24-5.94-17.41,7.67-8.54,17.09-14.8,27.83-18.94,1.58-.61,3.35-.88,5.05-.99,3.69-.24,6.37,1.49,7.07,4.34.68,2.74-.76,5.35-3.94,7.02-1.14.6-2.38,1.03-3.53,1.62-5.27,2.72-10.53,5.45-15.77,8.23-1.01.54-1.89,1.33-2.83,2.01.12.3.23.6.35.9Z" style="fill: #000; stroke-width: 0px;"/>
  <path d="M389.6,817.59c-.23-3.28-.48-6.55-.67-9.83-.11-1.93-.34-3.89-.15-5.81.28-2.83,1.75-4.98,4.78-5.29,3.02-.31,4.98,1.47,5.77,4.18.75,2.57,1.19,5.26,1.46,7.94.4,4.07.73,8.17.74,12.25,0,4.21-.79,8.33-5.07,10.46-4.16,2.07-7.99.42-11.12-2.16-5.56-4.58-10.78-9.57-16.12-14.42-.86-.79-1.6-1.71-3.41-3.66-.7,1.29-1.04,2.56-1.86,3.35-4.55,4.43-9.1,8.88-13.9,13.04-1.99,1.73-4.46,3.1-6.94,4.05-4.96,1.89-9.37-.43-10.9-5.52-.52-1.73-.88-3.63-.76-5.41.39-5.91.85-11.82,1.63-17.69.59-4.46,3.12-6.78,6.26-6.48,3.24.31,5.1,3.23,4.89,7.88-.15,3.34-.47,6.67-.67,10.01-.06,1.04,0,2.08,0,3.83,1.43-.97,2.4-1.54,3.26-2.23,3.36-2.71,6.7-5.44,10.03-8.19,1.85-1.53,4.03-2.62,3.17-5.94-.54-2.1,1.83-3.34,4.29-2.88,1.28.24,2.68.37,3.93.09,3.09-.69,4.81.62,4.73,3.79-.02.89-.09,2.19.43,2.63,5,4.24,10.12,8.34,15.2,12.47.34-.15.67-.3,1.01-.45Z" style="fill: #000; stroke-width: 0px;"/>
  <path d="M619.24,603.01c-1.85-1.73-2.86-3-4.15-3.84-5.24-3.41-10.56-6.69-15.86-10-.73-.46-1.56-.76-2.29-1.21-2.77-1.73-3.87-4.41-2.84-6.82,1.04-2.44,3.65-3.52,6.87-2.8.73.16,1.46.4,2.15.7,8.69,3.83,16.4,9.08,23.06,15.85,1.05,1.06,1.94,2.33,2.69,3.63,3.18,5.53,1.59,11.53-4.24,14.13-3.16,1.4-6.91,2.48-10.28,2.22-8.35-.64-16.88-1.25-24.89-3.48-14.32-4-28.31-9.17-42.42-13.88-2.1-.7-3.85-2.01-3.11-4.51.8-2.73,3.14-2.59,5.35-2.09,14.2,3.23,28.36,6.71,42.62,9.66,7.16,1.48,14.5,2.09,21.77,2.96,1.51.18,3.09-.26,5.58-.51Z" style="fill: #000; stroke-width: 0px;"/>
  <path d="M114.71,603.32c3.28,0,6.63.42,9.83-.08,9.15-1.44,18.28-3.08,27.35-4.99,10.34-2.18,20.59-4.75,30.89-7.13.94-.22,2.02-.66,2.84-.4,1.2.39,2.93,1.17,3.14,2.08.27,1.14-.73,2.61-1.29,3.88-.14.31-.7.49-1.1.64-18.31,6.77-36.49,14.02-55.95,16.83-5.48.79-11.16.52-16.73.24-2.24-.11-4.59-1.24-6.59-2.42-4.22-2.5-5.73-7.31-3.76-11.8.85-1.93,2.08-3.82,3.54-5.34,6.43-6.68,14.01-11.79,22.45-15.58,4.51-2.02,8.05-1.27,9.4,1.68,1.41,3.08-.32,5.63-4.8,8.2-5.41,3.1-10.65,6.52-15.9,9.91-1.31.85-2.37,2.09-3.55,3.15.08.38.15.75.23,1.13Z" style="fill: #000; stroke-width: 0px;"/>
  <path d="M91.65,805.48c1.77-.66,3.63-1.17,5.31-2.02,13.46-6.85,26.89-13.75,40.32-20.65,2.21-1.13,4.37-2.34,6.59-3.47,1.95-.99,4.07-1.6,5.43.68s-.12,3.86-1.99,5.06c-4.17,2.69-8.26,5.52-12.56,7.99-11.69,6.71-23.4,13.38-35.25,19.78-3.17,1.71-6.83,2.81-10.4,3.39-7.82,1.27-12.64-4.46-9.97-11.9,1.18-3.28,3.09-6.45,5.28-9.18,8-9.92,17.81-17.82,28.6-24.53.18-.11.38-.21.56-.32,4.05-2.23,7.27-2.01,8.97.62,1.73,2.67.57,5.44-3.08,8.44-8.15,6.71-16.23,13.51-24.25,20.38-1.59,1.36-2.77,3.21-4.13,4.83.19.3.38.59.58.89Z" style="fill: #000; stroke-width: 0px;"/>
  <path d="M641.95,804.85c-.95-1.23-1.72-2.67-2.87-3.67-8.38-7.26-16.78-14.5-25.3-21.6-3.77-3.14-5.07-5.98-3.3-8.64,1.83-2.74,5.01-3.01,9.22-.44,11.31,6.91,21.55,15.14,29.64,25.71,2.17,2.84,3.96,6.27,4.87,9.7,1.65,6.21-2.65,11.23-9.07,10.35-4.61-.63-9.34-2.09-13.45-4.27-11.42-6.05-22.58-12.61-33.78-19.09-4.2-2.43-8.2-5.18-12.29-7.8-1.88-1.2-3.33-2.78-2.02-5.06,1.34-2.33,3.48-1.73,5.4-.72,12.42,6.5,24.8,13.09,37.24,19.54,3.92,2.03,8.01,3.75,12.04,5.55,1.02.46,2.14.7,3.22,1.03.14-.2.29-.4.43-.61Z" style="fill: #000; stroke-width: 0px;"/>
  <path d="M662.4,780.51c-2.02-2.69-3.84-5.57-6.09-8.05-6.48-7.13-14.5-12.16-23.1-16.35-2.13-1.04-4.3-2.04-6.3-3.31-2.91-1.84-4-4.81-3.02-7.47.98-2.66,3.73-4.23,7.15-3.7,1.99.31,4.03.92,5.83,1.82,12.66,6.34,23.47,14.96,31.48,26.7,2.32,3.41,4.19,7.38,5.22,11.36,2.1,8.14-3.88,13.55-11.79,10.7-3.9-1.4-7.76-3.47-10.99-6.05-9.01-7.18-17.69-14.78-26.49-22.23-.57-.48-1.35-1.08-1.43-1.7-.16-1.37-.41-3.14.28-4.07.55-.74,2.49-.76,3.73-.56.96.15,1.81,1.1,2.68,1.73,9.04,6.45,18.06,12.93,27.13,19.34,1.47,1.04,3.14,1.79,4.72,2.67.32-.28.65-.56.97-.85Z" style="fill: #000; stroke-width: 0px;"/>
  <path d="M71.53,781.37c1.83-1.05,3.76-1.95,5.47-3.16,8.79-6.24,17.51-12.56,26.27-18.83,2.06-1.47,4.35-3.92,6.69-1.03,2.27,2.8-.33,4.82-2.27,6.44-9.42,7.86-18.81,15.76-28.46,23.33-2.64,2.07-5.99,3.51-9.25,4.44-6.75,1.93-12.09-2.78-10.82-9.7.68-3.72,2.17-7.52,4.19-10.72,8.27-13.11,19.97-22.44,33.83-29.15,1.43-.69,3.05-1.12,4.63-1.35,3.42-.5,6.21.98,7.23,3.59,1.09,2.8-.05,5.85-3.09,7.72-1.83,1.12-3.8,2.02-5.74,2.96-8.6,4.16-16.67,9.11-23.19,16.19-2.36,2.56-4.31,5.51-6.44,8.28.32.33.63.67.95,1Z" style="fill: #000; stroke-width: 0px;"/>
  <path d="M454.67,835.6c-.44-2.46-.48-4.09-1.02-5.53-3.36-9.09-6.81-18.14-10.28-27.19-.73-1.91-1.78-3.7-2.47-5.62-1.12-3.15-.11-5.95,2.42-7.26,2.33-1.21,5.16-.46,7.1,2.13,1.16,1.54,2.15,3.24,2.99,4.98,5.83,12.12,10.16,24.74,12.24,38.06.33,2.12.47,4.31.34,6.44-.41,6.47-5.58,9.75-11.65,7.4-1.79-.7-3.54-1.63-5.13-2.72-11.29-7.74-21.3-16.87-29.52-27.87-.32-.43-.87-.86-.9-1.32-.13-1.68-.75-3.99.08-4.87.8-.85,3.21-.46,4.83-.17.95.17,1.77,1.17,2.62,1.83,8.09,6.3,16.16,12.61,24.25,18.9,1.06.83,2.22,1.53,4.1,2.81Z" style="fill: #000; stroke-width: 0px;"/>
  <path d="M278.27,835.67c1.79-1.23,2.76-1.84,3.65-2.53,8.42-6.56,16.83-13.13,25.26-19.69.93-.72,1.88-1.69,2.95-1.9,1.24-.24,3.13-.23,3.79.51.79.89.81,2.69.71,4.06-.06.84-.94,1.65-1.52,2.43-8.26,11.11-18.32,20.31-29.77,28.02-3.83,2.58-8.04,4.84-12.62,1.96-4.61-2.9-4.22-7.7-3.56-12.25,2.11-14.54,6.83-28.25,13.55-41.28.78-1.5,1.74-3.33,3.11-4,1.72-.85,4.39-1.48,5.84-.7,1.45.78,2.45,3.35,2.65,5.25.17,1.63-1.03,3.43-1.68,5.13-3.83,10.05-7.71,20.08-11.5,30.15-.46,1.22-.48,2.6-.87,4.86Z" style="fill: #000; stroke-width: 0px;"/>
  <path d="M90.72,370.77c4.53-2.06,9.09-4.06,13.57-6.21,1.84-.88,3.48-2.17,5.28-3.13,2.81-1.48,5.62-.34,7.78,3.15,1.56,2.5.25,4.25-1.69,5.8-9.76,7.77-21.14,12.42-32.63,16.79-3.65,1.39-7.53,1.28-10.59-1.73-3.17-3.12-3.18-7.05-1.77-10.84,1.27-3.4,2.85-6.78,4.83-9.81,5.8-8.9,12.91-16.69,21.14-23.44,2.79-2.29,6.1-2.47,8.25-.51,2.14,1.95,2.47,5.29.32,8.26-4.34,6.03-8.91,11.9-13.36,17.85-.67.9-1.2,1.9-1.8,2.85.22.32.44.64.66.97Z" style="fill: #000; stroke-width: 0px;"/>
  <path d="M643.43,370.61c-1.13-1.81-1.66-2.82-2.34-3.72-3.5-4.65-7.04-9.26-10.54-13.9-1.1-1.46-2.25-2.91-3.16-4.49-1.66-2.88-1.28-5.84.8-7.68,2.07-1.83,5.08-1.78,7.72.2,1.2.9,2.34,1.9,3.45,2.92,7.99,7.31,15.26,15.26,20.4,24.85,1.63,3.05,2.76,6.61,3.1,10.05.54,5.47-3.46,9.17-8.99,8.99-1.59-.05-3.28-.27-4.74-.86-10.87-4.43-21.81-8.75-31.22-16.04-2.99-2.32-3.74-4.24-2.34-6.44,2.43-3.8,5.07-4.46,8.68-2.56,5.04,2.65,10.18,5.11,15.31,7.59.9.43,1.94.56,3.87,1.09Z" style="fill: #000; stroke-width: 0px;"/>
  <path d="M269.08,778.31c1.87-1.29,3.02-2,4.07-2.83,8.41-6.56,16.8-13.16,25.22-19.72.84-.66,1.78-1.59,2.72-1.65,1.34-.08,3.15.11,3.96.96.66.68.2,2.5.11,3.8-.02.36-.45.72-.76,1.02-9.22,8.75-18.41,17.54-27.73,26.18-1.7,1.57-3.89,2.76-6.05,3.66-5.78,2.41-11.09-.23-12.31-6.4-.64-3.21-.64-6.68-.19-9.94,1.76-12.62,6.08-24.44,11.97-35.69,2.34-4.47,5.41-6.02,8.35-4.58,3.03,1.48,3.45,4.42,1.73,9.36-3.47,9.97-6.82,19.98-10.13,30-.51,1.56-.56,3.27-.96,5.83Z" style="fill: #000; stroke-width: 0px;"/>
  <path d="M228.85,73.34c14.7,2.06,27.98,8.58,41.89,13.09.82.27,1.89.34,2.38.91.97,1.12,2.49,2.83,2.18,3.73-.42,1.21-2.39,2.67-3.66,2.65-3.64-.08-7.29-.69-10.88-1.4-5.81-1.16-11.55-2.71-17.36-3.85-8.35-1.63-16.74-3.05-25.11-4.56-1.48-.27-3.02-.37-4.43-.86-4.45-1.53-5.92-6.02-3.24-9.91.85-1.22,1.88-2.45,3.1-3.26,9.05-6.02,18.15-11.95,27.27-17.87.89-.58,1.95-.93,2.96-1.3,3.61-1.33,6.66-.47,7.86,2.19,1.14,2.52-.12,5.24-3.33,7.17-5.26,3.17-10.53,6.33-15.77,9.54-1.42.87-2.74,1.89-4.11,2.85.09.3.17.59.26.89Z" style="fill: #000; stroke-width: 0px;"/>
  <path d="M593.32,740.91c-.67-.92-1.28-1.9-2.02-2.75-5.78-6.61-12.3-12.37-19.89-16.85-.65-.38-1.32-.74-1.92-1.19-2.61-1.93-3.58-4.64-2.4-7.01,1.41-2.83,3.93-3.77,6.79-2.96,2.45.69,4.93,1.7,7.05,3.09,8.49,5.54,15.62,12.55,21.13,21.07,2.69,4.16,4.92,8.75,1.73,13.55-3.09,4.66-8.07,4.48-12.87,3.77-10.48-1.55-20.1-5.64-29.39-10.52-5.43-2.85-10.67-6.08-15.97-9.19-1.97-1.15-3.76-2.69-2.43-5.19,1.32-2.48,3.56-1.81,5.68-.96,11.21,4.46,22.39,9,33.66,13.29,3.33,1.27,6.92,1.82,10.4,2.7.15-.29.3-.57.44-.86Z" style="fill: #000; stroke-width: 0px;"/>
  <path d="M463.89,777.54c-.43-2.17-.62-4.42-1.31-6.51-3.16-9.51-6.39-18.99-9.74-28.43-1.74-4.91-1.35-7.99,1.58-9.44,3.04-1.5,6.17.12,8.58,4.74,5.66,10.87,9.88,22.29,11.71,34.44.52,3.47.6,7.15.04,10.59-1.03,6.45-6.7,9.45-12.62,6.67-3.27-1.53-6.41-3.66-9.06-6.11-8.23-7.6-16.22-15.48-24.27-23.27-1.61-1.56-2.58-3.47-.89-5.42,1.71-1.97,3.76-1.18,5.49.16,8.87,6.86,17.7,13.76,26.55,20.64,1.01.78,2.03,1.53,3.05,2.3.3-.12.59-.25.89-.37Z" style="fill: #000; stroke-width: 0px;"/>
  <path d="M504.5,72.61c-1.07-.8-1.93-1.55-2.88-2.14-5.23-3.23-10.48-6.42-15.73-9.62-.74-.45-1.53-.81-2.23-1.31-2.32-1.67-3.55-3.81-2.43-6.69.93-2.37,3.55-3.35,6.6-2.52,1.14.31,2.32.67,3.3,1.3,9.41,6.05,18.81,12.12,28.14,18.29,1.3.86,2.4,2.21,3.25,3.55,2.38,3.72.94,7.89-3.2,9.48-1.09.42-2.29.58-3.45.8-10.58,2-21.16,3.99-31.74,5.99-6.88,1.3-13.76,2.63-20.65,3.88-1.15.21-2.5.43-3.49,0-1.05-.44-2.21-1.51-2.5-2.54-.24-.86.47-2.26,1.18-3.05.66-.73,1.83-1.09,2.84-1.41,13.95-4.44,27.24-10.97,41.88-13.23.26-.04.48-.34,1.1-.79Z" style="fill: #000; stroke-width: 0px;"/>
  <path d="M140.22,741.68c2.48-.57,5.07-.85,7.43-1.75,11.69-4.42,23.32-9,34.97-13.51,1.2-.47,2.44-1.27,3.63-1.21,1.21.06,2.94.71,3.41,1.63.47.92-.28,2.51-.61,3.78-.09.34-.6.6-.96.83-13,8.19-26.33,15.67-41.44,19.32-2.81.68-5.75,1.1-8.63,1.12-8.44.03-12.39-5.95-9.17-13.69.7-1.68,1.61-3.3,2.64-4.81,5.42-7.92,12.15-14.55,20.12-19.88,2.03-1.36,4.36-2.4,6.68-3.17,3.37-1.11,6.34.08,7.53,2.59,1.28,2.72,0,5.41-2.98,7.68-6.32,4.82-12.55,9.76-18.68,14.83-1.76,1.46-3.04,3.5-4.55,5.27.2.32.39.65.59.97Z" style="fill: #000; stroke-width: 0px;"/>
  <path d="M574.2,101.25c-1.6-1.24-2.45-1.99-3.38-2.61-6.72-4.5-13.46-8.95-20.17-13.46-1.15-.78-2.68-1.53-3.15-2.66-.72-1.71-1.44-4.15-.73-5.54.72-1.4,3.14-2.07,4.93-2.7.76-.26,1.89.29,2.77.66,11.67,4.95,22.62,11.14,32.27,19.43,1.62,1.39,3.18,2.96,4.41,4.69,4.06,5.68,1.6,11.69-5.32,12.67-5,.71-10.1.73-15.14,1.27-8.57.93-17.12,2.06-25.69,3-1.33.15-2.89.08-4.02-.51-.81-.43-1.73-2.17-1.44-2.84.57-1.33,1.71-2.82,2.99-3.38,8.65-3.74,17.68-6.2,27.06-7.31,1.24-.15,2.46-.39,4.6-.73Z" style="fill: #000; stroke-width: 0px;"/>
  <path d="M159.79,101.46c1.04.16,2.07.35,3.11.47,9.29,1.04,18.2,3.5,26.85,7.01,2.22.9,4.38,2.02,3.54,4.89-.79,2.68-3.15,2.47-5.38,2.24-13.09-1.37-26.18-2.72-39.26-4.08-3.58-.37-6.91-1.31-8.28-5.13-1.34-3.72.16-6.83,2.73-9.39,10.43-10.37,23.03-17.35,36.49-22.88,3.01-1.23,5.89-.04,6.91,2.43,1.23,2.99,0,5.3-2.46,6.97-7.23,4.9-14.52,9.72-21.77,14.59-.95.64-1.84,1.37-2.75,2.06.1.27.19.54.29.81Z" style="fill: #000; stroke-width: 0px;"/>
  <path d="M177.92,681.78c1.96.23,3.95.77,5.88.63,8.06-.59,16.11-1.39,24.16-2.09,2.6-.23,5.89-1.43,6.7,2.35.75,3.54-2.49,4.11-4.94,4.74-6.78,1.75-13.54,3.8-20.44,4.83-4.81.72-10,.69-14.73-.34-9.03-1.96-11.8-11.04-5.64-17.96,2.6-2.91,5.96-5.36,9.38-7.29,10.97-6.19,22.78-10.3,35.02-13.17.73-.17,1.48-.32,2.23-.4,3.21-.33,5.73,1.2,6.28,3.8.55,2.57-1.13,4.95-4.25,5.98-.82.27-1.67.42-2.5.66-11.03,3.16-21.69,7.25-31.67,12.97-2.05,1.18-3.87,2.76-5.8,4.16.1.37.21.74.31,1.11Z" style="fill: #000; stroke-width: 0px;"/>
  <path d="M425.39,67.16c-7.33-1.03-14.65-2.05-21.97-3.08-1.49-.21-3.29-.03-4.37-.82-1.5-1.1-3.37-2.93-3.39-4.47-.02-1.72,1.5-3.91,2.99-5.07,1.28-.99,3.47-1.12,5.25-1.12,12.94.03,25.15,3.38,36.92,8.5,2.69,1.17,4.66,3.2,4.67,6.41.01,3.21-1.99,5.07-4.61,6.46-13.32,7.07-26.62,14.15-39.94,21.22-.76.4-1.58,1.08-2.33,1.03-1.39-.1-3.27-.22-3.97-1.11-.7-.88-.77-3.08-.13-4.05,1.46-2.22,3.25-4.43,5.4-5.94,7.47-5.25,15.15-10.2,22.76-15.25.86-.57,1.84-.98,2.76-1.46,0-.42-.02-.84-.03-1.26Z" style="fill: #000; stroke-width: 0px;"/>
  <path d="M555.38,680.61c-1.99-1.41-3.88-2.98-5.98-4.19-9.98-5.7-20.64-9.78-31.68-12.93-.83-.24-1.69-.39-2.5-.67-3.09-1.05-4.73-3.51-4.07-6.07.65-2.55,3.26-4.26,6.4-3.6,14.99,3.17,29.34,8.08,42.12,16.73,2.34,1.58,4.42,3.87,5.94,6.26,3.48,5.48,1.58,11.97-4.32,14.69-2.57,1.18-5.57,1.85-8.4,1.98-11.21.52-21.74-2.87-32.2-6.31-1.16-.38-2.49-2.6-2.42-3.89.14-2.35,2.34-2.79,4.45-2.57,6.86.74,13.71,1.68,20.59,2.2,3.88.3,7.81-.06,11.71-.13.12-.51.24-1.02.36-1.53Z" style="fill: #000; stroke-width: 0px;"/>
  <path d="M307.61,68.45c1.09.57,2.18,1.16,3.28,1.72,9,4.55,17.43,9.93,24.52,17.19.9.92,2.14,1.79,2.5,2.91.5,1.56.94,3.72.22,4.89-.54.88-2.95.82-4.53.8-.87-.01-1.72-.81-2.58-1.27-12.84-6.83-25.67-13.67-38.52-20.48-2.69-1.43-5.01-3.14-5.06-6.52-.05-3.52,2.2-5.57,5.11-6.81,11.4-4.86,23.22-8.06,35.7-8.31,1.7-.03,3.47.16,5.11.62,2.63.73,4.35,2.51,4.24,5.39-.1,2.71-1.85,4.31-4.35,4.98-1.34.36-2.77.37-4.15.57-7.12,1-14.24,2.01-21.35,3.01-.05.44-.1.88-.15,1.32Z" style="fill: #000; stroke-width: 0px;"/>
  <path d="M339.52,758.1c.66-1.53,1.36-3.06,1.98-4.6,2.27-5.6,4.5-11.21,6.77-16.81.9-2.23,2.17-4.2,4.98-3.61,2.62.55,3.05,2.78,3.12,5.04.32,10.07-1.19,19.8-5.7,28.91-2.39,4.81-5.49,9.08-11.53,9.04-5.94-.04-8.9-4.32-11.09-9.08-4.45-9.67-7.19-19.86-8.6-30.4-.18-1.36-.38-3.09.28-4.1,1.14-1.76,2.7-3.67,4.53-4.45,2.36-1,4.76.33,6.04,2.57,1,1.74,1.59,3.76,2.13,5.71,1.68,6.13,3.24,12.3,4.89,18.45.3,1.11.82,2.16,1.24,3.24.32.03.64.05.95.08Z" style="fill: #000; stroke-width: 0px;"/>
  <path d="M393.99,758.93c.79-1.89,1.34-2.9,1.63-3.97,1.53-5.61,3.01-11.24,4.49-16.87.41-1.56.74-3.15,1.22-4.69,1.24-3.97,4.02-6.06,7.24-5.53,3.23.53,5.44,3.45,5,7.57-1.27,11.88-4.17,23.4-9.95,33.91-5.05,9.2-14.5,9.15-19.9.09-5.94-9.96-7.67-20.98-6.96-32.38.09-1.41,1.88-3.74,2.97-3.8,1.47-.07,3.78,1.31,4.42,2.67,2.87,6.15,5.27,12.51,7.85,18.79.47,1.14,1.05,2.24,1.97,4.2Z" style="fill: #000; stroke-width: 0px;"/>
  <path d="M212.36,134.95c2.79.56,4.75.98,6.72,1.35,9.6,1.82,18.91,4.43,27.35,9.56.92.56,2.1,1.03,2.58,1.88.63,1.11,1.17,2.68.83,3.79-.28.94-1.77,1.68-2.88,2.16-.71.31-1.71.07-2.54-.09-12.49-2.44-24.99-4.88-37.46-7.39-1.68-.34-3.34-.93-4.89-1.65-5.62-2.61-6.79-7.93-2.82-12.72.89-1.07,1.87-2.16,3.03-2.89,10.28-6.51,20.61-12.95,30.93-19.39.54-.34,1.17-.56,1.78-.77,3.24-1.12,6.13-.2,7.26,2.3,1.12,2.47-.14,5.13-3.14,6.94-7.84,4.74-15.66,9.52-23.46,14.32-.95.58-1.77,1.39-3.28,2.6Z" style="fill: #000; stroke-width: 0px;"/>
  <path d="M519.87,134.36c-.9-.71-1.73-1.52-2.7-2.12-7.53-4.64-15.08-9.23-22.61-13.87-1.09-.67-2.48-1.33-2.97-2.36-.69-1.42-1.34-3.52-.76-4.72.66-1.35,2.61-2.57,4.18-2.85,1.52-.27,3.49.37,4.88,1.23,10.21,6.23,20.32,12.61,30.45,18.95.45.28.84.68,1.24,1.04,2.86,2.52,5.22,5.33,4.23,9.5-.95,4.03-4.25,5.71-7.79,6.46-13.4,2.83-26.85,5.43-40.3,8.07-2.07.41-4.01-.05-4.82-2.25-.81-2.22.51-3.7,2.28-4.81,8.72-5.52,18.41-8.38,28.44-10.29,1.99-.38,3.97-.76,5.96-1.14.09-.28.19-.57.28-.85Z" style="fill: #000; stroke-width: 0px;"/>
  <path d="M644.21,318.53c-2.41-3.39-4.76-6.83-7.26-10.15-1.94-2.58-4.12-4.99-6.12-7.52-.73-.92-1.43-1.92-1.86-3-1.33-3.32-.52-6.47,1.94-8.12,2.61-1.75,5.99-1.36,8.45,1.39,7.61,8.52,13.77,18.01,17.3,28.93.92,2.85.92,6.2.58,9.23-.58,5.19-4.85,8.2-9.98,7.14-2.8-.58-5.74-1.55-8.05-3.16-6.09-4.24-11.88-8.91-17.78-13.42-.08-.06-.19-.14-.23-.23-1.45-3.7-3.08-7.29-5.59-10.46-.4-.5.3-2.75.94-2.99,1.33-.5,3.28-.75,4.42-.12,4.53,2.5,8.82,5.41,13.24,8.1,3,1.83,6.08,3.55,9.12,5.31l.89-.92Z" style="fill: #000; stroke-width: 0px;"/>
  <path d="M89.73,319.58c6.13-3.77,12.26-7.55,18.38-11.32,1.38-.85,2.68-2.11,4.16-2.4,1.44-.28,3.57-.04,4.47.88.67.68.38,3.25-.41,4.2-1.74,2.09-3.58,3.91-3.5,6.92.02.6-.67,1.38-1.24,1.81-6.33,4.82-12.62,9.71-19.12,14.29-1.86,1.31-4.33,1.99-6.62,2.45-5.31,1.06-9.7-1.91-10.14-7.27-.28-3.45-.09-7.22,1.04-10.45,3.51-10.08,9.24-18.97,16.34-26.91,1.26-1.41,3.37-2.81,5.1-2.83,1.83-.03,4.21,1.16,5.4,2.61,1.98,2.39,1.28,5.42-.39,7.85-1.83,2.66-4.09,5.01-6.04,7.58-2.89,3.81-5.67,7.71-8.49,11.56.35.34.7.69,1.06,1.03Z" style="fill: #000; stroke-width: 0px;"/>
  <path d="M589.68,226.93c-.95-1.89-1.42-3.18-2.18-4.29-3.58-5.25-7.29-10.42-10.83-15.69-1.31-1.95-2.54-4.03-3.31-6.23-.89-2.55-.09-4.95,2.22-6.55,2.3-1.6,4.99-1.68,6.91.18,9.85,9.56,17.28,20.73,20.2,34.27,1.3,6.03-2.96,10.63-9.22,10.57-4.37-.05-8.79-.85-13.08-1.82-8.62-1.95-17.17-4.24-25.74-6.39-2.3-.58-4.63-1.38-4.22-4.34.38-2.72,2.69-3.24,4.95-3.05,9.86.83,19.71,1.78,29.56,2.7,1.33.13,2.66.35,4.73.64Z" style="fill: #000; stroke-width: 0px;"/>
  <path d="M144.02,226.84c1.23-.17,2.45-.38,3.68-.5,9.64-.95,19.28-1.91,28.93-2.79,1.15-.11,2.53-.1,3.47.43,1,.56,2.13,1.76,2.24,2.78.11,1.02-.91,2.2-1.55,3.25-.19.3-.73.45-1.14.55-12.28,2.9-24.47,6.31-36.87,8.49-9.93,1.74-15.03-4.92-11.7-14.47,3.77-10.82,9.81-20.38,17.63-28.76,2.79-3,6.04-3.49,8.68-1.68,2.71,1.85,3.5,5.41,1.32,8.98-2.87,4.68-6.29,9.01-9.35,13.57-2.07,3.08-3.95,6.29-5.92,9.45.2.24.39.48.59.72Z" style="fill: #000; stroke-width: 0px;"/>
  <path d="M78.13,646.65c2.73-.44,5.56-.55,8.17-1.37,13.48-4.2,26.9-8.59,40.34-12.9,1.33-.43,2.7-1.2,4-1.11,1.2.09,2.9.87,3.32,1.82.43.95-.4,2.5-.8,3.75-.11.33-.63.57-1,.78-14.85,8.25-30,15.8-47.02,18.51-3.37.54-6.89.55-10.3.3-3.93-.3-7.38-1.9-8.88-5.96-1.45-3.92.06-7.27,2.66-10.08,6.51-7.04,14.52-11.82,23.61-14.74,3.66-1.18,6.64.15,7.61,2.91.93,2.65-.54,5.1-3.93,6.87-5.44,2.85-10.85,5.77-16.24,8.7-.7.38-1.25,1.05-1.86,1.59l.31.94Z" style="fill: #000; stroke-width: 0px;"/>
  <path d="M655.44,645.72c-1.1-.79-2.13-1.71-3.31-2.34-5.12-2.76-10.28-5.45-15.43-8.16-3.17-1.67-4.51-4.19-3.58-6.73.95-2.57,3.73-3.96,7.01-2.98,9.6,2.86,18.08,7.77,24.59,15.42,5.63,6.61,2.61,14.38-6.03,15.32-4.83.53-9.94.08-14.74-.87-15.42-3.04-29.3-10.06-42.92-17.59-1.84-1.02-3.23-2.49-2.24-4.72,1.07-2.41,3.21-2.2,5.28-1.48,10.19,3.51,20.33,7.2,30.58,10.51,5.22,1.68,10.64,2.74,15.99,3.98,1.43.33,2.95.31,4.43.46.12-.27.24-.54.37-.81Z" style="fill: #000; stroke-width: 0px;"/>
  <path d="M549.89,283.45c-1.33-1.75-2.68-3.5-3.99-5.27-2.18-2.93-4.57-5.75-6.46-8.86-1.96-3.23-1.41-6.3.89-8.23,2.2-1.84,5.73-1.94,8.32.44,2.75,2.53,5.31,5.39,7.42,8.47,3.21,4.7,6.41,9.5,8.8,14.64,3.97,8.5-1.01,15.05-10.36,13.98-8.28-.95-15.8-4.34-22.92-8.41-5.6-3.2-10.86-6.98-16.21-10.6-2.08-1.41-4.36-3.14-2.7-6.03,1.54-2.68,4.08-1.71,6.34-.84,8.95,3.45,17.89,6.92,26.84,10.36,1.14.44,2.33.73,3.5,1.09.18-.24.35-.48.53-.72Z" style="fill: #000; stroke-width: 0px;"/>
  <path d="M183.58,284.2c1.07-.33,2.17-.6,3.22-1,8.76-3.38,17.5-6.79,26.25-10.17,1.2-.46,2.5-1.14,3.69-1.04,1.23.11,2.91.78,3.43,1.73.51.95-.09,2.57-.38,3.85-.1.44-.69.8-1.11,1.13-10.16,8-21.05,14.73-33.54,18.45-3.06.91-6.35,1.5-9.53,1.47-6.25-.05-9.87-4.83-8.55-10.95.42-1.97,1.12-4.02,2.21-5.69,3.87-5.96,7.83-11.87,12.04-17.59,1.28-1.73,3.3-3.43,5.3-3.97,1.87-.5,4.81-.12,6.09,1.11,1.29,1.24,1.93,4.22,1.42,6.03-.73,2.57-2.66,4.86-4.28,7.12-2.16,3.01-4.52,5.87-6.79,8.8.18.24.36.47.54.71Z" style="fill: #000; stroke-width: 0px;"/>
  <path d="M445.69,136.31c-3.27-.97-6.55-1.92-9.8-2.93-1.32-.41-2.75-.77-3.87-1.53-3.35-2.28-3-6.91.63-8.71,1.13-.56,2.46-.88,3.72-.95,9.05-.54,17.57,1.43,25.51,5.75,1.55.84,2.97,2.2,4.03,3.63,2.65,3.59,1.89,8.19-1.62,10.92-.93.72-1.98,1.31-3.06,1.78-13.43,5.85-26.86,11.68-40.32,17.46-2.51,1.08-5.44,2.9-7.58-.22-2.21-3.22.54-5.45,2.55-7.45,6.24-6.21,14.13-9.75,22-13.29,2.61-1.17,5.26-2.27,7.9-3.4-.03-.35-.06-.7-.09-1.05Z" style="fill: #000; stroke-width: 0px;"/>
  <path d="M287.19,137.32c1.03.47,2.08.92,3.1,1.42,6.66,3.28,13.48,6.31,19.92,9.99,3.29,1.88,6.14,4.74,8.68,7.61.97,1.1,1.29,4.01.51,5.09-.77,1.07-3.57,1.63-5,1.1-5.04-1.86-9.85-4.35-14.8-6.48-8.51-3.67-17.04-7.31-25.61-10.84-4.12-1.7-8.22-3.48-8.39-8.69-.18-5.23,3.56-7.84,7.71-9.76,6.64-3.08,13.64-4.7,20.99-4.7.97,0,1.94.05,2.9.17,3.58.46,5.93,2.48,6.1,5.2.16,2.58-1.8,4.74-5.21,5.72-2.59.75-5.19,1.46-7.77,2.23-1.01.3-1.99.71-2.98,1.07-.05.29-.09.58-.14.87Z" style="fill: #000; stroke-width: 0px;"/>
  <path d="M638.8,264.68c-3.35-5.65-6.49-11.02-9.7-16.33-2.56-4.24-5.13-8.49-7.88-12.61-1.05-1.57-2.45-2.99-3.94-4.17-2.63-2.07-3.74-4.86-3.45-7.93.14-1.56,1.27-3.7,2.55-4.31,1.3-.61,3.86-.25,4.96.72,3.87,3.39,8.12,6.73,10.83,10.97,6.48,10.15,12.34,20.71,18.07,31.31,1.69,3.13,2.56,6.9,3.02,10.48.75,5.89-3.78,9.92-9.04,7.43-6.53-3.1-12.46-7.53-18.47-11.64-1.67-1.14-1.25-6.7.28-8.14,2.19-2.06,4.17-.7,6.11.56,1.9,1.23,3.8,2.45,5.71,3.67.08.05.21,0,.95,0Z" style="fill: #000; stroke-width: 0px;"/>
  <path d="M94.33,265.17c2.42-1.57,4.44-2.88,6.46-4.19,1.95-1.27,3.94-2.61,6.1-.49,1.62,1.6,1.78,7.11-.03,8.38-5.54,3.88-10.98,8.08-17.01,11.02-6.4,3.12-11.61-1.13-10.05-8.11,1.28-5.7,3.54-11.32,6.2-16.55,3.6-7.09,7.58-14.08,12.19-20.55,3.77-5.29,8.55-9.9,13.21-14.47,1.08-1.06,3.79-1.42,5.22-.84,1.25.51,2.34,2.77,2.47,4.35.26,3.23-.95,6.07-3.8,8.08-1.2.84-2.33,1.97-3.1,3.21-5.92,9.52-11.74,19.1-17.57,28.67-.15.24-.13.58-.3,1.49Z" style="fill: #000; stroke-width: 0px;"/>
  <path d="M145.69,549.43c2.61-.12,4.4-.06,6.14-.32,8.85-1.31,17.68-2.73,26.52-4.07,2.53-.39,5.56-1.3,6.58,2.1,1,3.36-1.99,4.33-4.32,5.42-8.43,3.94-17.11,7.23-26.4,8.35-3.92.47-8.02.66-11.89.04-7.88-1.25-11.04-7.71-7.77-14.98.62-1.37,1.26-2.82,2.25-3.91,5.71-6.28,11.43-12.56,17.39-18.59,1.41-1.43,3.68-2.28,5.7-2.75,2.86-.66,5.4.37,6.75,3.18,1.34,2.81.48,5.31-1.72,7.28-2.17,1.94-4.59,3.58-6.75,5.53-3.43,3.1-6.76,6.33-10.08,9.55-.72.7-1.24,1.62-2.4,3.16Z" style="fill: #000; stroke-width: 0px;"/>
  <path d="M587.23,549.48c-1.33-1.79-1.93-2.91-2.81-3.72-4.84-4.43-9.75-8.79-14.63-13.18-.96-.86-2.07-1.61-2.82-2.63-2.84-3.86-.54-9.25,4.22-9.19,2.58.03,5.8,1.01,7.58,2.75,6.21,6.08,11.93,12.65,17.78,19.09.71.78,1.15,1.82,1.62,2.79,3.76,7.73.39,14.88-8.15,15.61-5.79.5-11.93.01-17.56-1.41-7.36-1.85-14.4-5.02-21.55-7.72-2.05-.77-3.69-2.22-3-4.67.75-2.66,3.02-2.74,5.28-2.39,8.84,1.37,17.67,2.8,26.51,4.12,2.17.32,4.38.33,7.54.54Z" style="fill: #000; stroke-width: 0px;"/>
  <path d="M228.59,337.88c1.92-.9,3.81-1.91,5.78-2.67,3.62-1.4,7.22-2.93,10.97-3.8,1.36-.32,3.75.68,4.5,1.84.61.93-.35,3.1-1,4.54-.4.9-1.47,1.56-2.36,2.16-7.47,5.11-14.94,10.21-22.47,15.22-1.23.82-2.72,1.36-4.17,1.68-4.87,1.08-9.01-1.79-9.37-6.77-.18-2.41.17-4.98.83-7.32,2.89-10.34,7.28-20.05,12.99-29.14,2.86-4.55,6.32-6.08,9.51-4.48,3.4,1.71,4.24,5.48,2.08,10.55-2.07,4.86-4.39,9.6-6.59,14.41-.48,1.05-.9,2.12-1.35,3.18.22.2.44.41.65.61Z" style="fill: #000; stroke-width: 0px;"/>
  <path d="M505.01,337.26c-.47-1.15-.91-2.32-1.42-3.46-2.34-5.21-4.85-10.36-7.01-15.65-1.61-3.94-.55-7.27,2.28-8.86,2.95-1.65,6.43-.69,8.89,2.98,6.78,10.12,11.64,21.13,14.56,32.97.13.52.19,1.06.25,1.6.33,3.49-.1,6.77-3.27,8.92-3.14,2.13-6.51,1.71-9.48-.17-7.2-4.55-14.26-9.3-21.34-14.04-1.43-.95-2.7-2.14-3.99-3.29-1.64-1.46-3.03-3.46-1.37-5.29,1.03-1.13,3.55-1.87,5.02-1.44,4.54,1.31,8.89,3.26,13.31,4.98.98.38,1.92.87,2.87,1.3l.7-.57Z" style="fill: #000; stroke-width: 0px;"/>
  <path d="M130.41,277.05c1.3-.38,2.58-.83,3.9-1.13,6.7-1.55,13.39-3.15,20.12-4.54,2.33-.48,4.74-.08,5.53,2.66.74,2.57-1.01,4.09-3.04,5.06-8.24,3.96-16.47,7.94-24.83,11.64-2.41,1.06-5.2,1.52-7.85,1.71-8.37.61-13.75-5.82-11.08-13.74,1.44-4.3,3.84-8.45,6.56-12.11,2.86-3.84,6.4-7.27,10.04-10.42,3.52-3.05,7.56-2.92,9.93-.4,2.44,2.58,2.11,6.21-.99,9.88-2.95,3.5-5.97,6.95-8.96,10.42.22.32.44.64.66.96Z" style="fill: #000; stroke-width: 0px;"/>
  <path d="M603.34,276.25c-2.34-2.75-4.7-5.48-7-8.26-1.37-1.65-2.87-3.26-3.88-5.12-1.27-2.33-1.16-4.81.75-6.91,1.89-2.07,4.24-2.36,6.82-1.61.1.03.21.06.3.11,10.07,6.45,17.7,14.9,19.95,26.93,1.17,6.28-3.54,11.03-10.08,11.06-2.75.01-5.73-.31-8.22-1.39-8.88-3.84-17.61-8.03-26.36-12.17-1.98-.94-3.34-2.6-2.63-4.97.73-2.4,2.85-3,4.97-2.57,6.95,1.4,13.86,3,20.78,4.57,1.32.3,2.6.81,3.9,1.22.23-.3.47-.6.7-.9Z" style="fill: #000; stroke-width: 0px;"/>
  <path d="M39.71,631.16c3.08-.68,5.3-.94,7.36-1.66,9.48-3.29,18.91-6.7,28.36-10.07,1.12-.4,2.25-1.24,3.32-1.16,1.63.11,3.89.36,4.67,1.43,1.41,1.93-.08,3.72-2.02,4.62-10.66,4.94-21.28,9.97-32.07,14.61-2.99,1.28-6.48,1.8-9.77,1.89-6.61.18-10.62-4.72-9.58-11.24.25-1.58.69-3.19,1.38-4.63,4.96-10.37,12.85-17.71,23.45-22.09,1.47-.61,3.13-.9,4.72-1,3.21-.21,6,1.75,6.71,4.49.68,2.58-.67,5.54-3.46,7.01-2.29,1.2-4.74,2.07-7.08,3.19-5.31,2.52-10.24,5.59-13.79,10.44-.72.99-1.16,2.18-2.21,4.2Z" style="fill: #000; stroke-width: 0px;"/>
  <path d="M693.03,629.94c-1.51-1.99-2.67-4.5-4.62-5.87-4.71-3.33-9.79-6.15-14.75-9.12-1.38-.82-3.02-1.26-4.29-2.2-2.23-1.65-3.5-3.91-2.51-6.76,1.01-2.88,3.29-4.31,6.26-4.12,2.01.12,4.11.53,5.94,1.33,9.62,4.19,16.9,11,21.85,20.25.76,1.41,1.31,2.97,1.71,4.52,2.04,7.97-2.6,13.64-10.8,12.82-3.49-.35-7.09-1.17-10.3-2.57-9.97-4.35-19.78-9.05-29.63-13.66-1.98-.93-3.68-2.39-2.58-4.8,1.16-2.54,3.39-2.09,5.58-1.3,10.13,3.66,20.26,7.34,30.43,10.89,2.25.79,4.68,1.07,7.02,1.58.23-.33.46-.66.69-.99Z" style="fill: #000; stroke-width: 0px;"/>
  <path d="M662.86,584.9c-1.99-2.45-3.77-5.13-6.01-7.33-9.71-9.52-21.75-15.42-33.81-21.22-4.45-2.14-6.17-4.42-5.1-7.33,1.13-3.08,4.4-4.15,8.9-2.22,16.99,7.26,30.67,18.65,41.08,33.87,2.26,3.31,4.18,7.23,1.27,11.11-2.88,3.85-7.28,3.46-10.98,1.95-9.76-3.97-19.33-8.43-28.93-12.8-1.86-.85-2.73-2.61-1.72-4.59,1.02-2,2.89-2.06,4.77-1.36,7.98,2.97,15.95,6,23.93,8.97,1.89.7,3.82,1.29,5.73,1.93.29-.32.58-.65.87-.97Z" style="fill: #000; stroke-width: 0px;"/>
  <path d="M70.86,585.92c2.51-.87,5.05-1.69,7.54-2.62,6.86-2.57,13.71-5.19,20.56-7.77.9-.34,1.93-.98,2.75-.79,1.33.3,3.17.88,3.6,1.87.42.97-.26,2.99-1.14,3.83-1.36,1.29-3.27,2.05-5.02,2.86-6.84,3.17-13.62,6.49-20.61,9.29-3.02,1.21-6.48,1.78-9.75,1.77-4.61-.01-7.27-3.77-6.11-8.23.61-2.35,1.64-4.74,3.05-6.7,10.07-14.03,23.01-24.67,38.65-31.99,1.72-.8,3.68-1.3,5.57-1.5,2.35-.25,4.27.82,5.02,3.2.74,2.32-.1,4.27-2.04,5.65-.86.62-1.93.94-2.86,1.48-9.85,5.73-19.84,11.24-29.48,17.32-4.4,2.78-8,6.76-10.29,11.59.18.25.37.49.55.74Z" style="fill: #000; stroke-width: 0px;"/>
  <path d="M516.8,395.57c-1.86-2.86-3.72-5.72-5.57-8.58-.94-1.45-1.96-2.85-2.76-4.37-1.69-3.2-1.17-6.35,1.21-8.19,2.34-1.81,5.93-1.72,8.11,1.15,4.2,5.55,7.96,11.44,11.71,17.31.95,1.49,1.36,3.41,1.7,5.19,1.46,7.59-3.6,13.32-11.22,12.03-4.71-.79-9.5-2.32-13.74-4.5-6.97-3.59-13.55-7.95-20.24-12.07-1.93-1.19-3.56-2.87-2.37-5.33,1.26-2.61,3.65-2.32,5.91-1.49,7.7,2.8,15.37,5.66,23.05,8.49,1.16.43,2.34.82,3.5,1.24.24-.29.47-.59.71-.88Z" style="fill: #000; stroke-width: 0px;"/>
  <path d="M216.94,396.52c1.27-.48,2.54-.96,3.81-1.44,7.16-2.68,14.32-5.37,21.49-8.02,1-.37,2.14-.93,3.1-.75,1.35.25,3.28.83,3.69,1.79.48,1.15.11,3.54-.78,4.23-10.48,8.05-21.5,15.3-34.76,17.79-7.95,1.49-13.45-4.37-11.62-12.19,2.11-9.07,7.39-16.44,13.88-22.91,2.25-2.24,5.63-2.22,7.72-.54,2.16,1.74,2.85,4.75,1.25,7.64-1.87,3.38-4.16,6.54-6.22,9.82-.78,1.24-1.47,2.55-2.2,3.83.21.25.43.5.64.75Z" style="fill: #000; stroke-width: 0px;"/>
  <path d="M133.92,328.54c1.04-.45,2.09-.87,3.11-1.36,6.02-2.91,12.03-5.85,18.05-8.76,2.15-1.04,4.46-1.77,6.06.67,1.49,2.26.1,4.07-1.57,5.65-7.23,6.86-14.76,13.32-24.24,16.92-2.38.9-4.98,1.56-7.52,1.69-6.29.32-10.44-4.14-9.82-10.42.22-2.22.72-4.54,1.66-6.54,2.37-5.07,4.95-10.04,7.67-14.93.97-1.75,2.42-3.34,3.92-4.68,2.3-2.05,5.07-2.47,7.79-.86,2.7,1.59,3.37,4.33,2.53,7.06-.78,2.53-2.2,4.89-3.54,7.2-1.49,2.58-3.2,5.04-4.82,7.55.24.27.47.54.71.81Z" style="fill: #000; stroke-width: 0px;"/>
  <path d="M599.88,327.81c-1.62-2.5-3.33-4.95-4.83-7.52-1.35-2.31-2.75-4.67-3.62-7.18-.96-2.79-.09-5.42,2.44-7.11,2.41-1.62,5.33-1.58,7.23.37,7.8,7.98,13.19,17.36,13.77,28.73.25,4.88-3.89,8.57-8.96,8.18-3.88-.3-7.86-1.43-11.43-3.02-8.38-3.73-15.19-9.77-21.73-16.09-1.52-1.47-2.33-3.26-.95-5.2,1.37-1.92,3.34-1.78,5.24-.88,6.33,3.01,12.63,6.08,18.95,9.12,1.03.5,2.1.93,3.15,1.4.24-.26.49-.53.73-.79Z" style="fill: #000; stroke-width: 0px;"/>
  <path d="M527.04,558.29c-1.94-1.79-3.82-3.64-5.83-5.35-3.19-2.73-6.52-5.31-9.68-8.08-2.44-2.13-2.91-5.4-1.3-7.54,1.53-2.03,4.77-2.74,7.33-1.01,8.67,5.84,16.25,12.93,21.44,22.06,3.68,6.47-.12,12.51-7.56,12.17-4.35-.2-8.85-1.03-12.93-2.53-9.2-3.36-18.19-7.3-27.25-11.05-2.14-.89-3.91-2.35-2.93-4.95.99-2.62,3.31-2.37,5.5-1.76,9.76,2.72,19.51,5.48,29.27,8.21,1.08.3,2.19.5,3.28.75.22-.31.44-.63.66-.94Z" style="fill: #000; stroke-width: 0px;"/>
  <path d="M550.25,762.58c-4.83-4.71-9.66-9.42-14.5-14.11-.93-.9-2.02-1.66-2.81-2.66-1.61-2.04-2.06-4.34-.45-6.57,1.61-2.24,3.91-2.46,6.38-1.64.41.13.83.29,1.17.54,9.5,6.64,17.56,14.64,22.84,25.09,1.58,3.12,1.75,6.52-.66,9.46-2.43,2.97-5.86,3.49-9.15,2.37-5.08-1.73-10.2-3.61-14.85-6.23-6.57-3.69-12.74-8.08-19.05-12.23-1.91-1.25-3.57-2.96-2.15-5.35,1.43-2.4,3.65-1.68,5.71-.65,7.72,3.86,15.43,7.73,23.16,11.57,1.12.56,2.32.96,3.49,1.44.29-.34.57-.68.86-1.02Z" style="fill: #000; stroke-width: 0px;"/>
  <path d="M183.47,763.62c1.16-.47,2.35-.86,3.47-1.41,7.34-3.64,14.67-7.32,22.01-10.98.96-.48,1.97-1.3,2.93-1.26,1.35.06,3.27.39,3.85,1.3.57.89-.18,2.67-.47,4.03-.07.34-.57.64-.93.86-9.2,5.6-18.32,11.34-27.67,16.67-2.62,1.5-5.9,2.21-8.95,2.52-6.05.61-9.93-4.07-8.31-9.91.71-2.54,1.8-5.26,3.51-7.19,5.64-6.34,11.64-12.36,17.53-18.47.51-.53,1.21-.9,1.86-1.29,3.24-1.92,6.45-1.64,8.17.71,1.72,2.35.98,5.43-1.73,8.02-4.91,4.69-9.75,9.45-14.6,14.2-.44.43-.74,1.01-1.11,1.52.15.23.3.46.45.69Z" style="fill: #000; stroke-width: 0px;"/>
  <path d="M206.68,559.2c1.1-.24,2.21-.43,3.29-.74,9.45-2.65,18.89-5.34,28.35-7.98,1.13-.31,2.43-.73,3.46-.44,1.09.3,2.39,1.21,2.81,2.19.36.83-.29,2.19-.73,3.21-.22.52-.92.91-1.49,1.18-11.51,5.45-23.05,10.85-35.63,13.46-2.09.43-4.3.64-6.42.49-6.23-.43-9.31-5.55-6.83-11.3.8-1.86,1.82-3.77,3.2-5.21,5.21-5.43,10.61-10.69,15.97-15.99.53-.52,1.21-.9,1.85-1.3,3.34-2.05,6.67-1.73,8.39.79,1.66,2.44.84,5.37-2.12,7.9-4.18,3.57-8.34,7.16-12.47,10.79-.76.66-1.33,1.53-1.99,2.3.12.21.25.42.37.64Z" style="fill: #000; stroke-width: 0px;"/>
  <path d="M512.05,701.13c-5.32-3.04-10.64-6.07-15.95-9.12-1.4-.8-2.88-1.53-4.12-2.53-1.96-1.57-2.59-3.73-1.66-6.1.91-2.32,2.9-3.12,5.23-2.99,1.16.06,2.37.33,3.45.78,9.04,3.81,17.18,9.03,24.12,15.99,4.41,4.43,5.68,8.69,3.67,12.09-2.81,4.77-7.63,5.07-12.03,3.8-11.37-3.29-22.57-7.17-33.8-10.92-1.89-.63-3.11-2.21-2.36-4.33.81-2.3,2.79-2.45,4.84-1.96,8.29,1.96,16.57,3.96,24.87,5.92,1.09.26,2.22.35,3.33.52.13-.38.27-.76.4-1.14Z" style="fill: #000; stroke-width: 0px;"/>
  <path d="M221.42,702.5c5.75-1.33,11.51-2.63,17.26-3.99,3.67-.87,7.29-2.1,11.01-2.61,1.43-.2,3.77.74,4.45,1.89,1.19,2.04-.42,3.75-2.43,4.45-10.29,3.56-20.58,7.1-30.95,10.42-2.3.74-4.92.82-7.37.7-7.07-.35-10.14-6.25-6.55-12.38.7-1.2,1.57-2.35,2.54-3.34,7.04-7.19,15.36-12.51,24.57-16.47.78-.34,1.64-.58,2.48-.7,2.67-.37,5.05.18,6.2,2.9,1.21,2.86-.03,5.14-2.4,6.68-2.62,1.7-5.47,3.03-8.18,4.6-3.76,2.19-7.48,4.46-11.21,6.69.19.39.38.78.56,1.17Z" style="fill: #000; stroke-width: 0px;"/>
  <path d="M442.86,392.08c-1.12-2.06-1.79-3.49-2.63-4.81-2.91-4.53-5.98-8.97-8.8-13.55-1.28-2.09-2.38-4.36-3.12-6.69-.88-2.77-.12-5.38,2.23-7.26,2.38-1.9,5.04-1.91,7.55-.38,1.53.93,3.06,2.1,4.14,3.5,5.66,7.32,9.71,15.49,12.42,24.32.06.21.12.42.16.63.98,4.44,1.5,8.9-2.21,12.39-3.72,3.5-8.23,2.93-12.47,1.32-4.92-1.87-9.68-4.18-14.45-6.41-1.89-.88-3.27-2.41-2.41-4.65.93-2.41,3.01-2.44,5.17-1.87,3.44.91,6.86,1.85,10.31,2.74,1.1.28,2.23.4,4.1.73Z" style="fill: #000; stroke-width: 0px;"/>
  <path d="M291.11,392.09c3.91-1.02,7.82-2.05,11.73-3.06,2.49-.64,5.43-1.88,6.7,1.46,1.26,3.33-1.71,4.51-4.04,5.55-4.81,2.14-9.57,4.58-14.6,6-9.04,2.56-14.89-2.79-13.07-12.01,2.07-10.53,7.11-19.8,13.85-28.12.91-1.13,2.25-2.05,3.57-2.7,5.15-2.52,10.24.89,9.59,6.59-.27,2.36-1.35,4.77-2.59,6.84-3.11,5.16-6.54,10.13-9.8,15.21-.71,1.11-1.24,2.35-1.85,3.53.17.24.34.48.51.71Z" style="fill: #000; stroke-width: 0px;"/>
  <path d="M588.8,171.17c-2.05-3.49-3.62-5.93-4.96-8.49-2.79-5.31-2.27-10.13,1.21-12.62,3.57-2.56,8.42-1.39,12.51,3.15,4.42,4.9,7.36,10.63,8.79,17.04,2.3,10.36-4.41,17.03-14.57,13.99-5.5-1.64-10.66-4.55-15.75-7.3-1.17-.63-2.28-3.27-1.86-4.42.43-1.19,2.74-2.34,4.25-2.38,3.14-.09,6.3.57,10.38,1.03Z" style="fill: #000; stroke-width: 0px;"/>
  <path d="M144.46,171.02c2.54-.23,4.3-.37,6.06-.54,1.5-.14,3.1-.72,4.46-.36,1.46.39,3.33,1.39,3.82,2.6.41,1.01-.55,3.47-1.57,3.99-5.63,2.87-11.24,6.16-17.26,7.75-9.11,2.41-15.25-3.98-13.47-13.22,1.37-7.13,4.74-13.35,9.61-18.73.78-.87,1.73-1.63,2.73-2.25,2.98-1.84,6.07-2.21,9.1-.15,2.65,1.8,3.96,5.52,2.71,8.96-1.05,2.9-2.73,5.58-4.16,8.34-.51,1-1.1,1.96-2.03,3.61Z" style="fill: #000; stroke-width: 0px;"/>
  <path d="M479.81,581.72c-.76-1.1-1.34-2.38-2.3-3.27-3.39-3.13-6.87-6.17-10.38-9.17-2.72-2.32-3.49-5-1.92-7.32,1.58-2.34,4.55-3.05,7.48-1.28,7.88,4.75,13.85,11.33,17.25,19.9,2.33,5.88-.71,11.5-7.01,12.33-4.24.56-9.03.44-12.99-1-7.54-2.74-14.7-6.57-21.94-10.1-1.87-.91-3.03-2.65-1.94-4.83,1.06-2.14,3.05-2.13,5.05-1.57,7.05,1.98,14.07,4.06,21.15,5.94,2.32.62,4.76.77,7.14,1.13l.41-.77Z" style="fill: #000; stroke-width: 0px;"/>
  <path d="M253.55,582.47c1.78-.24,3.61-.3,5.33-.75,6.98-1.82,13.92-3.77,20.88-5.67,1.14-.31,2.36-1.01,3.41-.82,1.32.24,3.14.95,3.57,1.96.43,1-.17,3.12-1.06,3.88-1.94,1.65-4.3,2.83-6.57,4.07-6.83,3.74-13.82,7.19-21.67,8.03-2.92.31-6.07.1-8.9-.66-4.86-1.31-7.48-5.86-5.93-10.59,3.16-9.62,9.69-16.65,18.41-21.58,2.58-1.46,5.64-.47,6.81,1.75,1.45,2.73.44,4.99-1.7,6.88-3.54,3.13-7.15,6.18-10.64,9.37-.98.9-1.62,2.17-2.41,3.27.15.29.3.57.45.86Z" style="fill: #000; stroke-width: 0px;"/>
  <path d="M479.85,518.41c-3.57-3.8-7.11-7.62-10.72-11.37-1.27-1.32-2.87-2.33-4.04-3.71-1.84-2.17-2.29-4.69-.56-7.15,1.66-2.36,4.16-2.72,6.66-1.79,1.68.62,3.32,1.63,4.67,2.81,6.02,5.23,10.85,11.42,14.1,18.73,4.05,9.12-.53,15.84-10.38,14.21-8.02-1.32-15.82-4.15-23.61-6.64-1.16-.37-2.43-2.56-2.43-3.91,0-2.17,2.04-2.93,4.04-2.69,5.89.7,11.77,1.54,17.66,2.3,1.25.16,2.52.25,3.77.37.28-.39.56-.78.84-1.17Z" style="fill: #000; stroke-width: 0px;"/>
  <path d="M254.1,519.67c5.95-.81,11.9-1.62,17.86-2.41,1.38-.18,2.9-.64,4.14-.28,1.26.37,2.92,1.45,3.18,2.52.25,1.06-.72,3.26-1.68,3.64-8.8,3.48-17.61,7.28-27.3,7.2-6.62-.06-10.39-5.24-8.29-11.51,3.24-9.65,9.28-17.45,17.54-23.38,3.39-2.44,7.06-1.87,8.95.8,1.81,2.54.94,5.72-2.01,8.55-3.8,3.64-7.46,7.43-11.12,11.22-.77.8-1.23,1.89-1.83,2.84.18.27.37.54.55.8Z" style="fill: #000; stroke-width: 0px;"/>
  <path d="M247.38,263.12c3.4-.91,6.79-1.81,10.19-2.72,2.21-.6,4.48-.86,5.56,1.68,1.08,2.53-.59,4.05-2.62,5.17-5.47,3.02-10.92,6.08-16.46,8.98-1.69.89-3.6,1.54-5.48,1.86-5.16.88-8.86-2.9-8.05-8.09.18-1.16.47-2.36,1-3.39,4.13-8.04,8.17-16.14,12.59-24.03,2.54-4.54,6.19-5.81,9.25-4,3.13,1.85,3.54,5.28,1.05,10.02-2.45,4.65-5.03,9.23-7.55,13.83.17.23.34.46.51.7Z" style="fill: #000; stroke-width: 0px;"/>
  <path d="M486.44,263.29c-.86-1.75-1.33-2.78-1.87-3.77-2.21-4.07-4.55-8.08-6.63-12.22-1.83-3.64-1.12-7,1.52-8.66,2.65-1.66,6.43-.96,8.36,2.49,4.99,8.92,9.66,18.02,14.17,27.19,1.34,2.72.92,5.79-1.49,8.07-2.28,2.16-5.22,2.56-7.85,1.27-7.25-3.55-14.39-7.34-21.41-11.31-1-.56-1.89-3.13-1.42-4.02.61-1.15,2.7-2.24,4.04-2.12,2.86.27,5.64,1.35,8.46,2.08,1.09.29,2.2.53,4.11.99Z" style="fill: #000; stroke-width: 0px;"/>
  <path d="M481.7,435.03c-1.79-2.23-3.51-4.53-5.4-6.67-2.85-3.24-3.36-6.61-1.18-8.95,2.26-2.43,6.14-2.42,9.36.35,4.83,4.16,8.46,9.26,10.28,15.41,2.14,7.23-2.11,12.67-9.63,12.18-3.18-.21-6.5-.84-9.43-2.06-7.46-3.1-14.75-6.61-22.08-10.02-2.11-.98-3.79-2.57-2.64-5.1,1.06-2.33,3.21-2.12,5.33-1.47,7.02,2.13,14.05,4.25,21.08,6.34,1.2.36,2.45.59,3.67.88.21-.3.42-.6.63-.9Z" style="fill: #000; stroke-width: 0px;"/>
  <path d="M251.93,436.05c3.79-1.1,7.6-2.17,11.38-3.29,4.44-1.33,8.87-2.7,13.3-4.06,2.12-.65,4.23-.84,5.29,1.54,1.06,2.38-.4,3.98-2.42,4.9-8.13,3.7-16.24,7.47-24.51,10.85-2.61,1.07-5.69,1.39-8.55,1.37-5.95-.05-9.73-4.55-8.56-10.37,1.5-7.48,5.74-13.44,11.77-17.99,2.98-2.24,6.5-1.69,8.45.75,1.88,2.35,1.49,5.25-1.01,8.18-1.99,2.34-3.91,4.74-5.86,7.12.24.33.47.67.71,1Z" style="fill: #000; stroke-width: 0px;"/>
  <path d="M627.47,138.92c-1.46-3.05-2.55-5.31-3.65-7.58-1.08-2.22-2.42-4.36-3.21-6.68-.91-2.68-.28-5.26,2.33-6.75,2.55-1.45,5.31-1.01,7.05,1.22,5.03,6.44,8.2,13.72,7.74,22.06-.24,4.49-3.6,7.61-8.14,7.62-3.18.01-6.5-.44-9.52-1.42-7.07-2.3-13.99-5.02-20.96-7.62-2.05-.77-3.83-2.04-3.09-4.54.74-2.5,2.91-2.62,5.06-2.13,7.25,1.65,14.49,3.37,21.74,5.04,1.21.28,2.45.42,4.64.79Z" style="fill: #000; stroke-width: 0px;"/>
  <path d="M105.56,138.85c2.14-.34,3.48-.47,4.79-.77,6.61-1.52,13.21-3.1,19.82-4.64,1.05-.24,2.23-.74,3.15-.46,1.29.4,3.04,1.22,3.36,2.24.32,1.03-.54,3.31-1.46,3.71-9.77,4.21-19.43,8.98-30.23,9.93-6.33.56-10.27-3.54-9.92-9.89.37-6.84,3.06-12.95,6.78-18.59,2.05-3.1,5.45-4.03,8.11-2.52,2.55,1.44,3.47,4.62,2.05,7.98-.92,2.17-2.24,4.17-3.3,6.28-.99,1.98-1.89,4.01-3.16,6.73Z" style="fill: #000; stroke-width: 0px;"/>
  <path d="M392.91,133.69c-4.37-2.18-8.18-4.09-12-5.98-1.06-.52-2.22-.88-3.2-1.52-2.02-1.31-2.86-3.24-2.21-5.58.66-2.4,2.56-3.32,4.88-3.52.42-.04.87-.02,1.28.09,9.69,2.39,18.41,6.76,25.72,13.53,3.76,3.48,2.53,8.28-2.21,10.42-6.27,2.84-12.56,5.65-18.83,8.49-1.97.89-4.03,1.47-5.6-.49-1.7-2.11-.7-4.15.94-5.74,2.7-2.61,5.55-5.06,8.37-7.55.69-.61,1.48-1.12,2.85-2.15Z" style="fill: #000; stroke-width: 0px;"/>
  <path d="M340.38,133.38c3.93,3.6,7.29,6.58,10.54,9.68,1.73,1.65,3.01,3.73,1.28,6-1.75,2.3-4.02,1.32-6.16.34-5.98-2.73-11.97-5.46-17.98-8.13-5.11-2.27-6.37-7.14-2.25-10.84,7.25-6.5,15.76-10.93,25.27-13.19,3.08-.73,5.82.9,6.45,3.48.74,3.07-.98,4.93-3.5,6.17-4.43,2.16-8.9,4.23-13.66,6.48Z" style="fill: #000; stroke-width: 0px;"/>
  <path d="M343.92,237.18c3.29.42,6.13.74,8.97,1.16,2.26.33,4.36,1.12,4.4,3.84.05,2.71-1.98,3.64-4.24,4.02-4.24.72-8.47,1.73-12.74,1.92-6.72.3-10.31-4.48-8.11-10.84,3.4-9.84,8.75-18.7,15.05-26.95,2.05-2.69,5.27-3.11,7.41-1.41,2.09,1.65,2.22,4.35.54,7.3-3.3,5.79-6.52,11.63-9.75,17.47-.55,1-.93,2.09-1.54,3.5Z" style="fill: #000; stroke-width: 0px;"/>
  <path d="M388.95,237.16c-.44-1.14-.68-2.05-1.12-2.85-3.27-5.94-6.53-11.89-9.9-17.77-1.77-3.09-1.73-5.96.37-7.6,2.24-1.75,5.44-1.21,7.63,1.67,6.09,8.02,11.22,16.64,14.66,26.11,2.54,7-1.2,11.91-8.67,11.41-4.38-.3-8.77-1.15-13.01-2.28-1.35-.36-3.14-2.45-3.1-3.69.04-1.25,1.93-3.08,3.35-3.49,3.03-.88,6.29-1.01,9.8-1.5Z" style="fill: #000; stroke-width: 0px;"/>
  <path d="M297.41,241.81c4.41.41,7.81.74,11.22,1.05,2.26.21,4.52.66,4.64,3.46.12,2.79-2.08,3.65-4.32,3.85-5.02.45-10.07,1.03-15.09.89-4-.11-7.66-1.8-9.12-6.05-1.49-4.32.33-7.91,3.36-10.77,2-1.88,4.4-3.46,6.87-4.69,2.8-1.39,5.85-.44,7.13,1.84,1.47,2.61.82,4.99-1.18,7.06-.87.91-1.82,1.74-3.52,3.35Z" style="fill: #000; stroke-width: 0px;"/>
  <path d="M435.26,240.69c-1.12-.79-2.4-1.44-3.33-2.42-1.86-1.94-2.66-4.28-1.1-6.76,1.61-2.55,4.08-3.11,6.8-2.14,4.44,1.59,7.89,4.48,10.02,8.69,2.54,5.02.55,10.26-4.78,12.1-7.01,2.42-14.09,1.29-21-.64-1.01-.28-2.24-2.32-2.12-3.4.12-1.1,1.64-2.55,2.83-2.9,2.13-.63,4.48-.52,6.73-.77,1.77-.19,3.54-.45,5.31-.68.22-.36.43-.72.65-1.08Z" style="fill: #000; stroke-width: 0px;"/>
  <path d="M433.35,448.65c-.99-3.97-1.92-7.59-2.77-11.22-.44-1.88-1.01-3.79-1.06-5.7-.07-2.69,1.07-4.91,3.95-5.56,2.8-.63,5.23.51,6.05,3.12,2.46,7.84,4.32,15.89,3.44,24.14-.61,5.69-5.8,7.7-10.61,4.48-1.6-1.07-3.27-2.3-4.3-3.86-.88-1.32-1.58-3.46-1.12-4.81.71-2.08,2.86-1.83,4.71-1.02.37.16.78.2,1.72.44Z" style="fill: #000; stroke-width: 0px;"/>
  <path d="M299.55,448.78c1.44-.5,2.19-1.03,2.83-.92,1.27.23,2.88.49,3.58,1.36.59.73.6,2.86-.02,3.47-2.33,2.31-4.77,4.74-7.63,6.21-3.36,1.72-7.02-.36-8.03-4.13-.52-1.93-.73-4.08-.47-6.05.73-5.65,1.64-11.29,2.74-16.87.85-4.3,3.56-6.37,6.82-5.74,3.17.61,4.76,3.78,3.8,8.02-1.06,4.69-2.29,9.35-3.61,14.66Z" style="fill: #000; stroke-width: 0px;"/>
  <path d="M346.95,369.11c1.22,1.39,3.44,2.82,3.4,4.17-.05,1.58-1.76,3.59-3.3,4.55-5.48,3.4-10.87.43-11-6-.05-2.77.39-5.58.92-8.31.94-4.85,2.08-9.67,3.22-14.48.96-4.03,3.39-6.13,6.27-5.6,3.04.55,4.65,3.65,3.77,7.73-.93,4.31-2.09,8.57-3.12,12.85-.43,1.76-.79,3.54-1.19,5.31.34-.07.68-.14,1.02-.2Z" style="fill: #000; stroke-width: 0px;"/>
  <path d="M387.08,369.36c-.92-3.73-1.87-7.45-2.74-11.2-.68-2.93-1.47-5.86-1.83-8.83-.36-3.01,1.42-5.46,3.92-5.84,2.91-.45,5.08,1.02,5.67,3.66,1.81,7.96,3.42,15.96,4.77,24.01.48,2.84-.63,5.59-3.35,7.2-2.73,1.61-5.56,1.17-7.88-.64-1.45-1.14-3.03-3.04-3.11-4.67-.06-1.22,2.19-2.56,3.4-3.84l1.15.17Z" style="fill: #000; stroke-width: 0px;"/>
  <path d="M436.26,502.45c-.7-2.27-1.24-3.97-1.74-5.68-.85-2.88-1.91-5.73-2.44-8.67-.46-2.56.74-4.69,3.26-5.68,2.48-.97,5.02-.04,5.81,2.13,2.28,6.31,4.63,12.73,5.7,19.31.78,4.78-3.63,8.34-8.53,7.79-2.82-.32-5.66-1.33-8.21-2.61-1.08-.54-2.14-2.73-1.88-3.85.27-1.12,2.1-2.13,3.46-2.63,1.19-.44,2.67-.09,4.56-.09Z" style="fill: #000; stroke-width: 0px;"/>
  <path d="M296.66,502.43c1.87,0,3.16-.32,4.16.08,1.45.58,3.7,1.59,3.79,2.58.12,1.37-1.42,2.91-2.31,4.34-.14.23-.57.28-.87.4-4.28,1.77-8.71,3.46-12.77-.11-3.95-3.46-3.07-8-1.79-12.34,1.06-3.61,2.33-7.17,3.69-10.69,1.4-3.64,4.07-5.24,6.86-4.39,2.86.87,4.21,3.94,3.13,7.81-1.09,3.91-2.44,7.74-3.9,12.32Z" style="fill: #000; stroke-width: 0px;"/>
  <path d="M446.73,556.68c-.53,4.44-2.05,7.99-5.95,10.07-4.39,2.34-8.99,2.02-13.36.03-.94-.43-1.83-2.33-1.68-3.4.15-1.09,1.43-2.35,2.54-2.91,2.06-1.03,5.32-1,6.29-2.53.97-1.53-.33-4.44-.51-6.76-.22-2.85.78-5.2,3.66-6.1,2.74-.85,5.1.36,6.21,2.79,1.27,2.78,1.9,5.85,2.81,8.8Z" style="fill: #000; stroke-width: 0px;"/>
  <path d="M298.57,568.55c-7.42-.22-12.36-5.23-11.75-12.56.22-2.72,1.07-5.51,2.18-8.02,1.09-2.45,3.4-3.74,6.16-2.88,2.86.89,3.96,3.16,3.72,6.07-.19,2.32-1.43,5.22-.45,6.77.97,1.54,4.24,1.49,6.25,2.58,1.14.62,2.47,2.13,2.49,3.26.02,1.13-1.24,2.82-2.36,3.33-1.9.87-4.14,1.01-6.24,1.46Z" style="fill: #000; stroke-width: 0px;"/>
  <path d="M438.77,299.75c-4.1.08-7.52-2.97-7.57-6.75-.05-4.12,4.2-7.86,9-7.92,3.51-.04,5.81,2.36,5.94,6.19.16,4.7-3.04,8.39-7.37,8.48Z" style="fill: #000; stroke-width: 0px;"/>
  <path d="M294.29,299.75c-4.35-.01-7.62-3.64-7.52-8.35.07-3.82,2.34-6.26,5.86-6.31,4.73-.06,9.14,3.7,9.11,7.77-.03,3.88-3.29,6.9-7.45,6.88Z" style="fill: #000; stroke-width: 0px;"/>
</svg>