<?xml version="1.0" encoding="UTF-8"?>
<svg id="Layer_1" data-name="Layer 1" xmlns="http://www.w3.org/2000/svg" viewBox="0 0 554.18 900">
  <path d="M277.38,100.85c.35-1.01.62-1.71.84-2.42,11.25-35.24,32.89-62.09,65.24-80.09,16.01-8.91,33.81-12.45,51.48-16.18,12.78-2.7,25.63-2.77,38.49-.47,9.39,1.68,18.47,4.31,25.49,11.2,3.42,3.36,6.61,7.12,9.14,11.18,14.7,23.59,29.35,47.21,43.67,71.03,9.06,15.07,15.68,31.39,20.6,48.18,6.79,23.16,12.53,46.63,18.46,70.04,1.39,5.5,1.84,11.24,2.54,16.9,2.9,23.69-1.68,46.04-12.99,66.9-6.59,12.16-15.29,22.91-25.18,32.6-5.03,4.93-11.22,7.98-18.18,9.22-2.26.4-3.15,1.47-3.56,3.66-1.06,5.6-2.25,11.18-3.59,16.72-2.27,9.36-3.4,18.85-3.59,28.46-.31,15.52-.5,31.04-.87,46.56-.38,15.63,2.68,30.69,6.86,45.63,8.11,29.02,12.99,58.58,14.09,88.72.49,13.49-.82,26.9-2.28,40.29-1.87,17.16-3.99,34.3-5.48,51.5-1.84,21.19-7.38,41.42-14.71,61.26-5.73,15.52-11.76,30.95-16.94,46.66-4.49,13.6-7.67,27.63-12,41.28-4.07,12.82-8.65,25.5-13.42,38.08-7.67,20.22-22.25,33.38-42.74,39.83-22.36,7.03-45.1,12.2-68.72,12.43-6.06.06-12.02-.36-17.88-1.93-10.62-2.84-21.43-5.11-30.93-11.1-2.64-1.67-5.39-1.49-8.13-.01-2.93,1.58-5.8,3.35-8.89,4.51-16.22,6.12-32.74,9.75-50.36,8.16-21.3-1.92-41.98-6.41-62.04-13.49-18.83-6.64-31.8-19.77-38.96-38.44-6.69-17.46-13.23-34.99-17.88-53.11-5.73-22.37-13.31-44.09-21.69-65.59-6.62-16.98-12.79-34.18-15.29-52.34-1.83-13.33-2.97-26.75-4.42-40.14-1.65-15.27-3.54-30.53-4.9-45.83-2-22.49.45-44.77,3.94-66.96,2.51-15.98,6-31.75,10.49-47.29,4.5-15.59,6.44-31.43,5.83-47.66-.47-12.66-.6-25.34-.74-38.01-.13-11.54-1.46-22.9-4.29-34.09-1.24-4.91-2.18-9.9-3.16-14.87-.32-1.63-1.08-2.46-2.74-2.75-9.12-1.6-16.71-6.13-22.54-13.13-6.67-8.02-13.47-16.08-19-24.88-9.79-15.6-15.23-32.83-15.94-51.38-.17-4.58-.66-9.18-.44-13.74.22-4.4.92-8.83,1.86-13.14,3.26-14.92,6.45-29.87,10.16-44.68,4.98-19.9,10.71-39.58,18.65-58.58,5.95-14.25,13.49-27.57,21.61-40.64,11.33-18.22,22.54-36.53,33.79-54.8,6.9-11.2,16.52-18.74,29.56-21.28,6.28-1.22,12.66-2.08,19.04-2.58,8.41-.67,16.8.12,25.02,1.99,10.19,2.32,20.43,4.52,30.43,7.51,22.6,6.76,41.2,19.77,56.88,37.28,13.66,15.25,23.39,32.61,29.29,52.18.09.3.18.61.31.89.06.13.2.23.71.76ZM68.31,340.09c.77,3.29,1.49,6.1,2.08,8.95.31,1.48,1.05,2.08,2.56,2.23,2.28.22,4.58.52,6.78,1.14.96.27,2.21,1.29,2.38,2.15.17.87-.58,2.31-1.37,2.91-1.15.87-2.66,1.4-4.1,1.75-3.88.94-3.9.87-3.11,4.97.05.23.11.47.13.7.11,1.81,1.1,2.78,2.79,3.4,2,.74,4.04,1.54,5.77,2.74.98.68,2.06,2.37,1.83,3.29-.23.93-1.94,1.83-3.15,2.11-1.55.36-3.24.09-5.11.09.52,4.32.97,8.56,1.61,12.76.1.64,1.07,1.23,1.75,1.67,2.45,1.59,5,3.03,7.42,4.66,1.44.97,2.61,2.34,1.62,4.2-1,1.89-2.76,1.49-4.41,1-1.76-.53-3.51-1.11-5.62-1.78.24,4.79.66,9.12.62,13.45-.02,3.11.65,5.21,3.99,6.16,1.98.57,4.34,1.65,3.69,4.43-.62,2.68-3.06,2.35-5.09,2.26-1.56-.07-2.14.51-2.13,2.04.02,3.4,0,6.81-.11,10.21-.06,1.55.56,2.12,2.04,2.21,1.58.09,3.24.12,4.68.66,1.01.38,2.29,1.53,2.38,2.44.09.9-.95,2.4-1.87,2.8-1.77.78-3.78,1.13-5.73,1.37-1.48.18-2.06.76-2.18,2.2-.24,2.84-.55,5.68-.95,8.5-.22,1.52.32,2.33,1.7,2.94,1.29.57,2.67,1.24,3.58,2.25.79.87,1.58,2.48,1.28,3.41-.3.91-1.9,1.6-3.06,1.96-.92.29-2.04,0-3.05-.15-1.49-.23-2.19.36-2.44,1.83-.34,2.03-.71,4.06-1.24,6.05-.45,1.7.12,2.72,1.64,3.43,1.79.84,3.56,1.74,5.33,2.62,1.39.7,2.38,1.71,1.96,3.38-.42,1.66-1.79,2.2-3.32,2.07-1.96-.16-3.94-.39-5.84-.86-1.43-.35-2.06-.03-2.32,1.4-.56,3.04-1.15,6.07-1.82,9.08-.4,1.8.1,3.15,1.72,3.99,3.16,1.64,6.33,3.25,9.52,4.81,1.52.74,3.06,1.71,2.65,3.46-.29,1.26-1.39,2.69-2.53,3.33-3.67,2.05-7.63,2.08-11.45.41-2.15-.94-2.83-.24-3.1,1.82-.39,2.9-.85,5.8-1.44,8.67-.44,2.16.24,3.79,1.66,5.4,5.42,6.15,12.18,9.74,20.24,10.97,1.86.28,3.73.68,4.07,2.94.33,2.24-1.35,3.21-3,4.07-8.3,4.32-15.91,2.68-23.1-2.66-.71-.53-1.48-.98-2.57-1.7-.27,1.28-.52,2.09-.61,2.92-.78,6.61-1.49,13.22-2.33,19.82-.29,2.25.54,3.74,2.32,5.03,7.1,5.17,14.46,9.74,23.37,11.09.39.06.88.12,1.11.37.65.72,1.62,1.52,1.67,2.33.05.81-.73,1.82-1.41,2.48-.52.51-1.42.65-2.18.87-8.17,2.32-15.65.33-22.79-3.73-.71-.4-1.46-.73-2.6-1.29-.07,1.39-.2,2.3-.16,3.21.36,6.8.87,13.59,1.08,20.4.11,3.55,1.76,5.64,4.77,7.22,7.1,3.73,14.62,6.03,22.54,7.08,1.83.24,3.87.45,4.08,2.82.2,2.34-1.77,2.92-3.51,3.53-7.78,2.76-15.4,2.27-22.88-1.16-.76-.35-1.52-.67-2.61-1.14,0,1.23-.08,2.07.01,2.89.84,7.64,1.89,15.25,2.49,22.91.27,3.39,1.75,5.24,4.67,6.66,6.78,3.3,13.89,4.78,21.39,4.55,1.66-.05,3.31.18,3.83,2.07.56,2.03-.86,3.02-2.4,3.85-7.21,3.89-14.67,4.79-22.45,1.88-.64-.24-1.31-.38-2.35-.67.06,1.14,0,1.99.16,2.78,1.81,9,3.7,17.99,5.47,27,.45,2.3,1.69,3.5,3.87,4.26,7.73,2.7,15.51,2.86,23.4.95,1.61-.39,3.26-.46,4.18,1.27.91,1.69.04,3.01-1.16,4.22-6.27,6.3-13.72,8.85-22.52,7.18-.72-.14-1.47-.18-2.57-.3.33,1.24.48,2.09.77,2.88,3.44,9.62,6.84,19.25,10.44,28.81.41,1.1,1.79,2.22,2.95,2.58,8.96,2.72,18.23,3.06,27.51,3.36,1.78.06,3.62.18,4.31,2.23.72,2.12-.67,3.42-2.11,4.62-6.76,5.65-14.5,6.6-22.82,4.78-.94-.21-1.9-.32-3.11-.52.2.95.25,1.49.42,1.99,3.17,9.04,6.3,18.1,9.63,27.08.42,1.13,1.78,2.23,2.96,2.69,8.37,3.29,17,4.22,25.89,2.43,2.18-.44,4.73-1.51,6.27,1.05,1.57,2.6-.46,4.51-1.91,6.32-5.76,7.17-14.75,9.2-24.61,5.67-.93-.33-1.86-.65-3.1-1.09.05.94-.04,1.5.13,1.97,3.81,10.74,7.61,21.49,11.56,32.19.33.9,1.56,1.82,2.54,2.07,6.37,1.63,12.71,1.23,18.98-.71,2.5-.78,4.97-1.63,7.51-2.23,3.4-.79,5.67,1.64,4.27,4.79-1.03,2.32-2.52,4.63-4.35,6.38-4.41,4.23-10,5.54-16,5.38-.87-.02-1.74,0-3.07,0,.65.92.83,1.4,1.19,1.65,5.12,3.7,10.21,7.43,15.44,10.97.82.56,2.32.48,3.39.24,4.55-1.03,9.04-2.34,13.6-3.34,2.93-.64,5.93-1.1,8.92-1.26,1.13-.06,2.88.71,3.31,1.6.49,1.02.14,2.75-.42,3.89-.64,1.3-1.84,2.36-2.91,3.4-1.1,1.07-2.35,1.99-3.73,3.14.69.38,1.06.71,1.48.8,8.13,1.72,16.26,3.46,24.43,5.01.83.16,1.99-.77,2.83-1.42,1.04-.8,1.76-2.27,2.89-2.67,5.13-1.82,10.32-3.46,15.55-4.97,1.9-.55,4.1-.73,5.21,1.54,1.04,2.14-.48,3.6-1.82,4.96-1.11,1.12-2.31,2.17-3.55,3.15-.47.37-1.17.47-1.76.69.24.32.48.63.72.95.58.12,1.16.3,1.75.36,8.38.96,16.36-1.25,24.37-3.16.77-.18,1.55-1.27,1.9-2.11,2.21-5.38,5.74-9.84,9.8-13.88.7-.7,2.45-.99,3.39-.64.81.31,1.61,1.8,1.64,2.8.07,2.03-.39,4.08-.62,6.12-.07.64-.12,1.29-.18,1.94,5.85-1.33,11.37-3.59,16.9-3.58,5.5,0,11,2.28,16.71,3.6-.34-2.71-.86-5.27-.89-7.83-.01-1.05.79-2.7,1.63-3.03.98-.38,2.81,0,3.56.74,4.04,4.04,7.65,8.44,9.75,13.89.32.82,1.21,1.81,2.01,2,7.85,1.85,15.68,4.04,23.9,3.14.74-.08,1.47-.21,2.69-.38-2.17-1.99-3.97-3.59-5.7-5.26-1.31-1.27-2.3-2.78-1.31-4.65.94-1.77,2.68-1.7,4.39-1.53,5.85.58,11.22,2.7,16.48,5.14,1.01.47,2.04,1.39,2.54,2.37.85,1.68,2.01,2.06,3.68,1.71,7.75-1.62,15.5-3.22,23.25-4.86.62-.13,1.19-.51,2.17-.94-.98-.8-1.62-1.24-2.16-1.77-1.63-1.61-3.42-3.11-4.74-4.94-.65-.91-.91-2.74-.42-3.65.49-.92,2.09-1.49,3.29-1.7,1.28-.22,2.7.03,4,.32,6.18,1.38,12.32,2.91,18.51,4.24,1.22.26,2.87.3,3.82-.32,4.94-3.25,9.74-6.74,14.54-10.2.62-.45.99-1.23,1.8-2.28-1.46,0-2.33.12-3.16-.02-3.64-.63-7.4-.93-10.85-2.12-4.15-1.44-7.2-4.53-9.11-8.58-.77-1.63-1.3-3.33.08-4.89,1.29-1.46,2.97-1.27,4.63-.78,2.51.74,5,1.51,7.51,2.24,5.73,1.66,11.48,1.99,17.38.8,2.07-.42,3.23-1.26,3.91-3.19,3.61-10.23,7.28-20.44,10.9-30.66.24-.68.26-1.45.46-2.67-1.66.57-2.82.99-3.99,1.38-9.65,3.19-18.51.96-24.09-6.14-1.38-1.76-3.32-3.61-1.77-6.13,1.5-2.45,3.95-1.49,6.06-1.06,8.96,1.83,17.64.88,26.16-2.28,1.7-.63,2.7-1.62,3.3-3.38,2.92-8.54,5.96-17.04,8.95-25.56.3-.85.51-1.73.89-3.04-1.23.23-1.96.41-2.7.5-2.9.34-5.81.94-8.71.9-5.82-.08-11.05-2.09-15.27-6.17-.92-.89-1.74-2.78-1.41-3.84.33-1.03,2.11-2.02,3.39-2.22,2.64-.43,5.39-.14,8.05-.49,6.74-.87,13.45-1.94,20.18-2.91,1.67-.24,2.64-1.13,3.21-2.73,3.44-9.7,6.95-19.38,10.41-29.07.26-.74.29-1.57.49-2.66-1.27.21-2.12.36-2.96.5-8.75,1.46-16.07-1.3-22.22-7.52-1.14-1.15-2.02-2.68-.86-3.98.77-.86,2.41-1.03,3.7-1.32.56-.13,1.23.22,1.85.35,7.62,1.64,15.1,1.27,22.45-1.41,1.81-.66,2.93-1.69,3.31-3.62,1.86-9.24,3.78-18.46,5.64-27.69.15-.72.02-1.5.02-2.55-.96.27-1.63.42-2.27.66-7.34,2.73-14.47,2.1-21.4-1.36-1.81-.9-4.18-1.65-3.49-4.34.65-2.54,3.01-2.14,4.96-2.11,7.69.11,14.9-1.61,21.67-5.31,1.93-1.06,2.89-2.41,3.12-4.62.81-7.96,1.78-15.9,2.66-23.85.1-.91.01-1.84.01-2.71-.3-.1-.47-.22-.59-.18-.74.28-1.47.57-2.18.89-7.33,3.31-14.81,3.79-22.44,1.17-1.79-.61-3.96-1.08-3.79-3.56.18-2.68,2.52-2.66,4.46-2.93,8.32-1.17,16.22-3.55,23.51-7.83,2.1-1.23,3.21-2.9,3.33-5.35.37-7.27.81-14.54,1.2-21.82.04-.81-.13-1.63-.19-2.38-.48-.07-.66-.15-.78-.1-.64.31-1.27.64-1.88.99-7.39,4.17-15.12,6.03-23.5,3.43-1.6-.5-3.04-1.23-2.89-3.22.14-1.86,1.58-2.42,3.15-2.68,9.14-1.47,16.72-6.13,23.82-11.71.86-.68,1.69-2.15,1.6-3.17-.67-7.41-1.56-14.8-2.42-22.19-.17-1.43-.83-1.74-2.08-.81-1.65,1.22-3.32,2.47-5.13,3.41-6.71,3.49-13.43,3.41-19.88-.58-1.05-.65-2.16-2.48-1.97-3.53.19-1.06,1.91-1.92,3.08-2.69.55-.36,1.38-.3,2.08-.41,7.74-1.3,14.06-5.06,19.23-10.92,1.38-1.56,1.93-3.15,1.52-5.2-.55-2.8-.95-5.62-1.42-8.43-.48-2.89-.62-2.97-3.31-1.95-3.65,1.39-7.27,1.35-10.87-.21-1.67-.73-3.14-1.65-3.1-3.76.04-2.01,1.53-2.73,3.09-3.49,3.2-1.55,6.43-3.08,9.45-4.94.87-.54,1.6-2.24,1.48-3.3-.37-3.21-1.21-6.37-1.81-9.56-.27-1.45-.94-1.65-2.35-1.36-2.22.47-4.53.8-6.78.73-.86-.03-2.12-1.22-2.37-2.12-.21-.76.56-2.07,1.27-2.73.83-.78,2.07-1.11,3.13-1.64,6.11-3.04,4.98-2.18,3.92-7.73-.92-4.8-.97-4.79-5.73-4.79-.24,0-.53.09-.7-.02-1-.63-2.52-1.14-2.8-2.03-.29-.9.38-2.44,1.12-3.25.92-1.01,2.26-1.77,3.57-2.27,1.77-.68,2.16-1.75,1.88-3.49-.4-2.58-.68-5.18-.87-7.79-.12-1.61-.68-2.35-2.41-2.5-1.87-.16-3.81-.54-5.5-1.29-.94-.42-2.12-1.93-1.98-2.73.18-1,1.45-2.16,2.52-2.58,1.43-.56,3.1-.57,4.68-.65,1.54-.08,2.06-.79,2.01-2.26-.09-2.45-.1-4.91-.11-7.36-.02-4.33-.03-4.21-4.3-4.91-1.11-.18-2.66-1.23-2.9-2.17-.24-.93.63-2.54,1.5-3.29,1.16-.99,2.86-1.32,4.18-2.17.75-.48,1.63-1.41,1.69-2.19.4-5.05.61-10.12.85-15.18.02-.34-.19-.7-.33-1.18-2.09.67-4,1.56-5.98,1.82-1.19.16-2.96-.27-3.67-1.11-1.15-1.36-.2-2.93,1.13-3.84,2.54-1.74,5.2-3.29,7.78-4.97.69-.45,1.73-.99,1.83-1.6.66-4.26,1.1-8.55,1.62-12.88-1.99,0-3.69.25-5.26-.08-1.15-.24-2.59-1.02-3.09-1.98-.77-1.46.33-2.73,1.72-3.42,2.13-1.05,4.33-1.95,6.45-3.01.73-.37,1.67-.94,1.87-1.61.62-2.09.94-4.27,1.33-6.23-2.74-.83-5.24-1.31-7.46-2.39-.99-.48-1.97-2.2-1.89-3.28.06-.81,1.72-1.85,2.84-2.17,2.19-.62,4.53-.73,6.77-1.2.67-.14,1.63-.66,1.78-1.2.88-3.09,1.56-6.24,2.41-9.81-3,0-5.66.08-8.31-.02-2.6-.1-5.24-.15-7.76-.68-1.05-.22-2.44-1.53-2.61-2.53-.17-1.01.7-2.61,1.6-3.3,1.34-1.02,3.05-1.74,4.71-2.08,2.7-.56,5.5-.66,8.24-1.05,13.61-1.94,25.71-7.14,35.76-16.72.67-.64,1.19-1.44,1.88-2.29-.58-.14-.74-.23-.88-.21-.7.14-1.39.31-2.09.46-6.34,1.43-12.57,1.36-18.62-1.35-1.52-.68-2.95-1.48-2.7-3.43.26-1.96,1.81-2.39,3.49-2.56,11.84-1.19,22.52-5.64,32.61-11.68,1.41-.85,2.77-2.25,3.48-3.72,4.87-10.06,8.01-20.65,9.16-31.8.07-.63-.06-1.29-.1-1.92-3.5,2.5-6.61,5.08-10.06,7.1-5.28,3.1-11.01,3.85-16.94,1.92-1.7-.55-3.47-1.18-3.44-3.37.03-2.21,1.86-2.59,3.55-3.19,3.42-1.22,6.93-2.32,10.12-4.02,6.18-3.29,10.8-8.46,15.32-13.7,1.29-1.49,1.89-3.05,1.57-4.99-1.47-9.06-2.92-18.13-4.4-27.19-.1-.64-.43-1.24-.65-1.87-.43.16-.63.17-.71.28-.39.5-.75,1.01-1.11,1.53-2.53,3.61-5.53,6.72-9.41,8.9-3.77,2.12-7.86,3.02-12.12,2.53-1.09-.13-2.67-1.2-2.91-2.13-.24-.92.87-2.23,1.52-3.3.21-.35.79-.49,1.22-.71,10.38-5.32,15.76-14.31,18.39-25.26.27-1.11.24-2.41-.05-3.51-1.65-6.2-3.41-12.37-5.16-18.54-.13-.47-.49-.89-.74-1.32-.31.16-.51.19-.58.3-.44.75-.83,1.53-1.26,2.28-4.69,8.17-11.1,13.8-21.03,14.11-2.08.07-4.6.49-5.42-2.23-.79-2.63,1.49-3.57,3.23-4.59,10.18-5.95,16.06-14.79,17.83-26.4.21-1.4.77-2.99.33-4.19-1.92-5.18-4.14-10.25-6.27-15.36-.03-.08-.28-.07-.72-.17-.33.8-.69,1.64-1.04,2.48-3.53,8.61-8.59,16.09-16.56,21.17-2.29,1.46-4.99,2.39-7.61,3.18-.85.26-2.51-.42-2.98-1.18-.47-.76-.11-2.21.24-3.24.26-.76,1.11-1.31,1.67-1.98,3.34-4.01,6.97-7.82,9.94-12.09,5.24-7.53,8-15.97,7.54-25.27-.27-5.58-2.44-10.48-5.51-15.04-.36.18-.58.21-.62.32-.36.96-.71,1.92-1.02,2.9-2.03,6.28-5.36,11.63-10.99,15.32-3.33,2.19-7.02,3.4-10.98,3.27-1.09-.04-2.75-1-3.05-1.91-.29-.88.75-2.27,1.36-3.34.24-.42.9-.61,1.38-.89,5.78-3.51,9.94-8.43,11.97-14.85,1.47-4.66,2.43-9.5,3.31-14.31.26-1.41-.22-3.18-.91-4.51-2.42-4.63-5.06-9.14-7.65-13.69-.28-.49-.71-.89-1.38-1.72-.29,1.35-.45,2.19-.64,3.02-1.3,5.81-3.95,10.84-8.58,14.7-4.03,3.35-8.72,4.83-13.89,4.43-1.04-.08-2.5-1.26-2.79-2.22-.23-.76.93-2.08,1.69-2.94.48-.55,1.39-.71,2.1-1.06,5.49-2.66,9.38-6.89,11.1-12.68,1.07-3.59,1.23-7.45,1.82-11.19.2-1.24.18-2.63.77-3.65.84-1.45.79-2.6-.04-3.95-2.31-3.78-4.55-7.61-6.85-11.4-.33-.55-.82-1-1.59-1.91-.23,1.35-.27,2.13-.5,2.84-1.16,3.51-1.94,7.25-3.72,10.42-1.44,2.58-3.99,4.63-6.32,6.59-.68.57-2.67.47-3.39-.13-.71-.59-.82-2.21-.74-3.35.06-.96.74-1.9,1.18-2.83,4.33-9.06,4.41-18.06-.68-26.84-.8-1.38-2.25-2.91-3.69-3.29-5.26-1.39-10.64-2.34-15.98-3.41-.55-.11-1.17.08-2.01.15.29.6.39.98.61,1.26,7.77,9.95,8.3,21.02,5.11,32.67-.46,1.68-1.21,3.3-3.36,2.94-2.02-.34-2.07-2.06-2.16-3.7-.22-4.03-.21-8.1-.81-12.07-1.7-11.23-6.97-15.97-18.3-16.9-.47-.04-.98.04-1.42-.09-1.05-.31-2.24-.49-3.06-1.12-1.47-1.13-2.93-1.37-4.66-.92-1.61.41-3.26.65-4.89,1-1.4.31-2.79.67-4.91,1.19,1.23.97,1.85,1.4,2.39,1.91,2.66,2.46,5.65,4.67,7.87,7.48,4.46,5.64,7.37,12.02,6.91,19.48-.11,1.79-.49,3.61-2.6,4.06-2.15.46-3-1.16-3.94-2.71-2.33-3.85-4.57-7.79-7.21-11.42-3.14-4.32-7.58-6.93-12.85-7.93-6.39-1.21-12.72-1.12-19.02.85-1.45.45-3.38.37-4.77-.22-2.99-1.26-7.7-.3-9.94,2.49.08.13.13.34.24.38.59.22,1.19.41,1.79.57,11.05,3.07,16.75,11.33,20.47,21.38.34.92-.15,2.7-.89,3.33-.75.63-2.43.68-3.45.31-1.44-.52-2.77-1.53-3.93-2.58-1.94-1.75-3.71-3.68-5.53-5.55-3.52-3.62-7.79-5.27-12.83-5.11-4.93.16-9.46,1.7-13.97,3.5-2.31.92-4.82,1.34-7.21,2.08-.95.29-2.07.62-2.69,1.32-4.56,5.15-9.01,10.4-13.48,15.64-.33.38-.45.94-.9,1.92,1.24-.27,2.04-.44,2.83-.61,3.95-.82,7.87-1.83,11.85-2.41,4.2-.61,8.39-.16,12.38,1.42,5.59,2.21,9.33,7.13,9.15,12.39-.04,1.12-.88,2.8-1.78,3.15-.88.35-2.77-.29-3.41-1.12-3.26-4.28-7.73-5.79-12.63-4.88-5.8,1.07-11.46,2.91-17.12,4.65-2.94.9-5.67,2.48-8.6,3.39-1.86.58-3.06,1.49-3.73,3.25-2.68,7.03-5.46,14.02-8.05,21.08-1.83,5.01-1.21,10.15-.35,15.26.06.37.43.7.77,1.22,1.1-2.65,1.95-5.12,3.12-7.43,4.49-8.83,11.33-14.77,21.27-16.58,4.95-.9,9.62-.05,13.73,3.07,1.29.98,2.19,2.17,1.59,3.86-.62,1.72-2.11,2.07-3.7,1.85-10.87-1.53-20.42,4.9-24.32,16.56-2.97,8.86-3.54,17.96-2.64,27.22,1.03,10.55,1.86,21.12,2.94,31.67.53,5.18,1.21,10.36,2.22,15.46.82,4.16,1.41,8.25.7,12.47-.5,2.97-1.61,4.75-3.61,4.98-2.57.3-3.78-1.44-4.9-3.39-5.29-9.25-7.47-19.24-7.58-29.82-.16-15.53-2.14-30.8-7.02-45.61-.19-.57-.54-1.09-.82-1.63-.23.03-.46.07-.69.1-1.58,6.28-3.7,12.48-4.62,18.85-1.33,9.15-2.17,18.41-2.54,27.64-.44,10.87-2.25,21.24-7.9,30.7-1.11,1.87-2.38,3.52-4.81,3.12-2.57-.43-3.5-2.47-3.47-4.73.05-4.08-.09-8.26.75-12.21,1.25-5.92,1.98-11.82,2.33-17.85.56-9.63,1.55-19.24,2.58-28.83,1.12-10.32.54-20.43-3.29-30.15-3.64-9.24-12.11-15.91-23.33-14.56-.55.07-1.12.09-1.66,0-2.41-.39-3.4-2.77-1.81-4.61.86-.99,2.01-1.81,3.18-2.42,5.6-2.94,11.35-2.54,17.01-.24,9.11,3.7,14.71,10.68,17.95,19.76.3.83.66,1.64,1,2.46.27-.04.53-.08.8-.13.82-4.93,1.7-9.98.03-14.86-2.64-7.71-5.67-15.29-8.68-22.86-.38-.96-1.49-1.84-2.47-2.3-2.36-1.1-4.87-1.86-7.28-2.86-6.3-2.63-12.63-5.14-19.54-5.64-4.92-.36-9.21.77-12.46,4.92-.68.87-2.6,1.47-3.61,1.14-.83-.27-1.65-2.09-1.64-3.22.04-4.22,2.02-7.58,5.38-10.1,3.56-2.67,7.73-4.01,12.05-3.66,5.41.44,10.75,1.64,16.12,2.53.79.13,1.57.34,2.75.61-.32-.83-.37-1.25-.6-1.52-4.67-5.47-9.33-10.95-14.08-16.36-.51-.58-1.51-.8-2.32-1.04-2.47-.74-4.97-1.37-7.44-2.11-3.4-1.02-6.73-2.39-10.2-3.08-6.76-1.34-12.72.35-17.41,5.68-1.05,1.19-2.08,2.43-3.3,3.42-1.77,1.43-3.6,2.86-5.61,3.88-.82.42-2.5.14-3.2-.49-.69-.63-1.16-2.27-.83-3.14,3.74-9.92,9.3-18.2,20.21-21.38.86-.25,1.69-.57,2.54-.85.03-.24.06-.48.09-.72-1.81-.86-3.64-1.67-5.42-2.58-1.48-.75-2.68-.53-4.21.19-1.5.71-3.61,1.15-5.12.67-5.82-1.87-11.68-1.99-17.62-1.18-5.92.8-10.81,3.57-14.49,8.26-1.8,2.3-3.37,4.79-4.94,7.26-1.06,1.67-1.76,3.59-2.96,5.13-.67.86-2.17,1.81-3.04,1.6-1.02-.24-2.3-1.58-2.5-2.62-.38-2.05-.42-4.3-.01-6.34,1.85-9.18,6.69-16.47,14.38-21.85.71-.5,1.35-1.11,2.03-1.66-.05-.24-.1-.48-.14-.72-3.78-.71-7.54-1.45-11.33-2.08-.52-.09-1.14.46-1.73.66-1.67.58-3.33,1.5-5.04,1.64-11.26.91-16.56,5.44-18.41,16.55-.71,4.27-.67,8.67-.94,13.01-.1,1.54-.48,2.91-2.21,3.2-1.74.29-2.67-.85-3.1-2.32-3.43-11.69-2.92-22.84,4.68-32.98.3-.4.48-.89.78-1.46-.51-.16-.82-.37-1.08-.31-6.02,1.26-12.05,2.49-18.04,3.89-.79.18-1.58,1.09-2.02,1.87-4.57,8-5.81,16.33-2.25,25.07.78,1.91,1.68,3.77,2.33,5.72.78,2.34-.66,4.24-2.88,3.86-.89-.15-1.8-.64-2.52-1.2-5.27-4.06-7.73-9.67-8.74-16.06-.15-.93-.36-1.85-.54-2.78l-.69-.09c-2.76,4.69-5.54,9.37-8.25,14.09-.28.49-.28,1.24-.18,1.82.45,2.44,1.27,4.84,1.45,7.29.74,10.11,4.79,17.95,14.49,22.15,1.49.65,2.65,1.64,2.19,3.45-.45,1.79-1.95,2.09-3.56,2.1-4.15.02-8.01-.96-11.46-3.32-5.75-3.93-8.87-9.54-10.32-16.21-.17-.77-.36-1.54-.59-2.53-.54.43-.78.54-.89.73-2.89,5.09-5.81,10.18-8.62,15.32-.46.85-.68,2.01-.55,2.98,1.58,12.35,4.64,23.89,16.58,30.7.9.51,1.66,2.19,1.6,3.28-.09,1.65-1.72,2.31-3.22,2.04-2.86-.51-5.87-.87-8.45-2.06-7.24-3.34-11.15-9.57-13.49-16.94-.32-1-.63-2.01-1.1-3.52-4.19,6.24-6.41,12.39-5.96,19.4.51,7.87,2.99,15.11,7.52,21.48,3.24,4.57,7.09,8.7,10.7,13,1.11,1.32,2.3,2.66,1.22,4.42-1.16,1.89-3.12,1.63-4.67.8-3.59-1.94-7.36-3.76-10.46-6.35-5.75-4.81-9.53-11.15-12.23-18.13-.28-.73-.71-1.4-1.06-2.11-.25,0-.5.01-.75.02-2.06,5.28-4.14,10.56-6.14,15.87-.23.61-.06,1.42.04,2.11,1.74,12.33,7.46,22.08,18.46,28.39.41.24.96.42,1.17.78.67,1.14,1.72,2.37,1.69,3.54-.05,1.76-1.77,2.47-3.34,2.28-3.42-.42-7-.62-10.17-1.81-6.13-2.3-10.09-7.19-13.1-12.86-.38-.71-.81-1.38-1.41-2.38-.45.86-.74,1.24-.86,1.67-1.77,6.25-3.57,12.49-5.23,18.77-.29,1.1-.22,2.4.05,3.51,2.66,11.06,8.22,20,18.69,25.31.49.25,1.14.48,1.37.9.49.91,1.15,2.02.99,2.91-.14.77-1.23,1.51-2.05,1.99-.56.33-1.39.23-2.09.24-8.75.13-14.98-4.27-19.89-11.06-.57-.79-1.15-1.58-1.91-2.62-.4.72-.69,1.03-.75,1.37-1.57,9.68-3.17,19.36-4.59,29.07-.16,1.07.5,2.52,1.23,3.42,7.05,8.71,15.12,15.99,26.53,18.57,1.07.24,2.51,1.83,2.53,2.82.02,1-1.3,2.48-2.38,2.98-3.46,1.62-7.19,1.78-10.93,1.04-5.8-1.15-10.48-4.32-14.73-8.25-.59-.55-1.23-1.06-1.96-1.69-.22.57-.37.78-.37.99,0,.55.05,1.11.11,1.66,1.19,10.98,4.33,21.41,9.09,31.34.68,1.41,1.95,2.78,3.29,3.59,10.08,6.04,20.74,10.56,32.57,11.8,1.75.18,3.43.55,3.69,2.63.25,1.94-1.23,2.74-2.73,3.41-6.13,2.74-12.44,2.75-18.85,1.23-.78-.18-1.57-.31-2.87-.56.54.85.69,1.23.95,1.47,1.85,1.72,3.6,3.59,5.62,5.1,10.47,7.84,22.24,12.22,35.3,13.31,2.91.24,5.85,1.26,8.55,2.43,1.03.45,2.14,2.46,1.95,3.53-.19,1.07-1.86,2.43-3.06,2.66-2.69.51-5.5.44-8.26.52-2.33.07-4.67.01-7.33.01Z" style="fill: #000; stroke-width: 0px;"/>
  <path d="M189.35,484.78c2.92,3.62,4.56,3.74,6.79.46,2.98-4.38,5.71-8.93,8.63-13.35,2.14-3.23,4.35-6.41,6.64-9.54,1.05-1.44,2.43-2.76,4.42-1.76,1.83.92,1.68,2.7,1.36,4.39-1.88,9.71-6.12,18.26-12.64,25.69-.47.54-.92,1.09-1.39,1.63-4.52,5.18-9.29,6.15-15.22,2.67-11.99-7.04-18.65-17.81-20.94-31.31-.73-4.34-.84-8.84-.76-13.25.21-12.14-3.51-22.67-11.82-31.63-4.52-4.87-8.68-10.08-13-15.13-.61-.71-1.26-1.37-2.33-1.88.1.53.13,1.09.31,1.59,2.4,6.88,4.78,13.77,7.3,20.6.5,1.35,1.51,2.55,2.43,3.7.94,1.17,2.11,2.14,3.09,3.29,2.64,3.1,2.15,4.71-2.05,5.98.55,2.79,1.04,5.65,1.71,8.46.13.57.82,1.2,1.4,1.44,3.44,1.43,5.37,4.39,7.21,7.32.52.83.39,2.6-.19,3.4-.49.67-2.08.79-3.14.71-1.04-.08-2.03-.72-3.4-1.25,0,.95-.05,1.6,0,2.25.71,8.84,1.49,17.67,2.13,26.52.14,1.9.78,3.07,2.36,4.26,3.15,2.36,6.11,5.02,8.88,7.82.79.8,1.17,2.68.83,3.78-.53,1.68-2.32,1.71-3.86,1.21-2.24-.73-4.44-1.57-6.82-2.41-.1.37-.3.73-.26,1.07.65,5.27,1.26,10.54,2.05,15.78.15.98.89,2.01,1.64,2.72,4.36,4.12,9.91,5.78,15.51,7.33,1.88.52,4.3.71,4.17,3.36-.14,2.77-2.64,2.73-4.64,3.07-4.56.78-8.97.17-13.67-2.01.23,1.34.29,2.16.51,2.94,2.03,7.41,4.01,14.83,6.21,22.19.41,1.39,1.5,2.82,2.69,3.69,5.32,3.88,11.39,6.17,17.75,7.72.85.21,1.85.19,2.5.67.99.73,2.37,1.78,2.41,2.73.04.97-1.16,2.47-2.17,2.9-4.78,2.04-9.71,1.97-14.63.36-.75-.25-1.5-.49-2.26-.7-.12-.03-.28.1-.79.29.49,1.43.94,2.91,1.5,4.33,1.28,3.24,2.65,6.44,3.9,9.7.6,1.57,1.63,2.26,3.29,2.63,4.16.95,8.27,2.09,12.36,3.28,1.69.49,3.01,1.61,2.86,3.6-.16,2-1.69,2.83-3.4,3.11-2.63.43-5.3.64-8.33.99,2.67,5.82,5.34,11.65,8.14,17.76.37-.57.71-.89.8-1.26,4.2-17.13,10.82-33.44,17.15-49.83,9.2-23.81,16.97-48.05,23.4-72.76,3.13-12.02,7.38-23.74,10.96-35.64.81-2.7.93-5.6,1.38-8.41.26-1.63.61-3.26.81-4.9.21-1.7.48-3.42.41-5.12-.1-2.44.76-4.12,2.61-4.41,1.81-.28,3.34,1.12,4,3.29.58,1.92,1.46,3.75,2.15,5.64.43,1.18.99,2.39,1.09,3.61.75,8.91,1.4,17.83,2.06,26.75.06.86.19,1.86-.15,2.58-.5,1.04-1.28,2.47-2.17,2.65-.88.18-2.47-.71-2.99-1.58-1.21-2.02-1.97-4.31-2.91-6.49-.31-.71-.6-1.43-1.05-2.52-.42.73-.75,1.12-.89,1.57-.68,2.19-1.51,4.37-1.89,6.62-.27,1.6.05,3.31.22,4.96.09.85.46,1.68.62,2.53,1.21,6.14,2.37,12.28,3.6,18.42.35,1.75.59,3.5-1.49,4.16-1.92.61-2.85-.86-3.56-2.37-1.43-3.04-2.84-6.09-4.56-9.78-.47,1.43-.76,2.2-.97,2.99-1.95,7.43-3.97,14.84-5.76,22.31-.36,1.5-.16,3.33.35,4.81,1.48,4.35,3.25,8.59,4.89,12.88.28.74.75,1.53.68,2.25-.1,1.01-.37,2.46-1.05,2.83-.82.44-2.49.34-3.17-.24-1.66-1.42-2.98-3.25-4.41-4.94-.54-.63-.99-1.33-1.78-2.4-.49,1.25-.81,2.02-1.1,2.81-1.71,4.69-3.34,9.4-5.16,14.05-.81,2.08-.73,3.9.14,5.94,2.14,5.02,5.12,9.46,8.77,13.47.53.59,1.3,1.1,1.52,1.79.38,1.19.94,2.77.46,3.66-.49.91-2.17,1.7-3.29,1.65-4.75-.23-8.92-2.07-12.27-5.51-.65-.67-1.03-1.6-1.53-2.42-.29.16-.58.33-.87.49-.33.58-.75,1.13-.99,1.74-2.08,5.23-4.21,10.43-6.1,15.73-.37,1.04-.12,2.7.51,3.61,1.34,1.94,3.04,3.64,4.73,5.31,3.28,3.24,7.24,4.74,11.88,4.29.87-.08,1.8-.38,2.59-.16,1.13.31,2.76.79,3.05,1.6.34.97-.13,2.72-.9,3.52-4.92,5.14-12.66,6.54-19.05,3.34-2.42-1.22-4.47-3.2-6.68-4.84-.42-.31-.83-.66-1.42-1.13-.36.7-.74,1.2-.9,1.77-1.65,5.95-3.24,11.92-4.88,17.87-.46,1.68.02,2.93,1.1,4.33,4.47,5.81,10.36,8.92,17.55,9.78,1.71.2,3.45.57,3.71,2.65.28,2.23-1.45,2.94-3.12,3.6-6.89,2.71-13.47,2.32-19.66-2-.37-.26-.79-.46-1.55-.89-.1,1.34-.29,2.4-.23,3.45.19,3.24.48,6.47.74,9.7.12,1.5.98,2.2,2.39,2.84,4.73,2.14,9.6,2.52,14.64,1.88.69-.09,1.65-.26,2.08.1,2.25,1.83,3.61.11,5.35-.96,7.43-4.57,15.33-6.21,23.86-3.47,4.07,1.31,8.15,2.59,12.27,3.75,1.58.44,3.26.65,4.9.73,3.78.19,7.58.47,11.36.3,9.2-.41,18.47-.31,27.23-4.09,7.39-3.18,14.88-2.59,22.13.76,1.92.89,3.52,2.65,5.49,3.2,1.75.48,3.84-.46,5.72-.26,5.16.56,10.13.18,14.84-2.11.66-.32,1.57-.83,1.71-1.42,1.1-4.54,1.31-9.16.95-14.18-.87.41-1.43.6-1.91.92-6.37,4.23-13.04,4.37-19.94,1.53-1.47-.6-2.78-1.43-2.63-3.24.16-1.97,1.7-2.55,3.36-2.73,7.65-.82,13.92-4.07,18.4-10.44.5-.71,1.02-1.8.84-2.54-1.68-6.6-3.51-13.15-5.31-19.71-.07-.27-.36-.49-.73-.97-.87.79-1.66,1.5-2.45,2.23-7.25,6.71-16.77,7.03-24.13.82-1.28-1.08-2.36-2.26-1.57-4.06.74-1.68,2.27-1.88,3.84-1.59,8.89,1.6,14.29-3.51,19.04-9.86.38-.51.69-1.43.49-1.96-2.31-6.21-4.72-12.39-7.28-19.03-1.04.94-1.73,1.52-2.37,2.15-3.34,3.31-7.38,5.12-12.02,5.65-1.67.19-3.53,0-3.94-1.78-.28-1.22.16-3.08.99-4.01,4.13-4.56,7.92-9.33,9.97-15.18.55-1.57.59-3.62.08-5.2-1.83-5.63-4.01-11.15-6.18-17.06-.59.64-1.01,1.05-1.37,1.49-1.41,1.7-2.76,3.46-4.23,5.11-1.06,1.19-2.61,2.15-3.9.84-.77-.79-1.12-2.65-.77-3.75,1.12-3.62,2.44-7.22,4.06-10.64,1.94-4.09,2.15-7.99.75-12.35-1.93-6.02-3.26-12.24-4.87-18.37-.21-.81-.51-1.59-.99-3.04-1.58,3.37-2.84,6.15-4.17,8.89-.85,1.74-1.54,4.16-4.15,3.19-2.44-.9-1.47-3.12-1.11-4.96,1.07-5.44,2.11-10.88,3.24-16.31.33-1.61.93-3.16,1.37-4.76.16-.6.41-1.29.26-1.84-.87-3.27-1.85-6.52-3-10.5-.66,1.19-1.01,1.73-1.26,2.31-.93,2.1-1.8,4.22-2.74,6.32-.65,1.46-1.6,2.69-3.42,2.3-1.79-.39-2.3-1.86-2.22-3.47.31-6.48.64-12.96,1.06-19.44.18-2.84.42-5.7.96-8.49.37-1.88,1.32-3.65,1.99-5.48.38-1.03.76-2.06,1.07-3.11.22-.75.22-1.59.52-2.3.72-1.7,1.98-2.77,3.91-2.27,1.79.46,2.32,1.89,2.43,3.65.14,2.33.46,4.64.73,6.96.06.55.33,1.08.33,1.62,0,8.25,3.01,15.81,5.29,23.54,5.05,17.08,9.84,34.25,15.16,51.24,3.47,11.1,7.62,21.98,11.57,32.92,3.85,10.65,7.99,21.19,11.7,31.88,3.19,9.19,5.95,18.53,8.9,27.8.25.79.5,1.59.94,3,2.97-6.42,5.66-12.25,8.47-18.32-2.42-.13-4.45-.17-6.46-.37-1.01-.1-2.17-.24-2.94-.81-.99-.72-2.26-1.86-2.31-2.87-.05-1.02,1.02-2.69,1.99-3.05,3.53-1.34,7.16-2.65,10.87-3.23,3.49-.55,5.51-1.99,6.54-5.37.99-3.25,2.43-6.36,3.64-9.54.27-.71.43-1.46.8-2.73-1.27.37-2.05.58-2.82.84-4.82,1.6-9.64,1.67-14.45-.02-1.58-.56-2.96-1.4-2.79-3.34.16-1.82,1.58-2.45,3.12-2.78,6.95-1.49,13.61-3.79,19.41-7.98,1.36-.98,2.57-2.65,3.06-4.24,2.17-7.12,4.06-14.32,6.03-21.5.24-.87.34-1.79.59-3.13-1.31.47-2.18.78-3.04,1.08-4.18,1.45-8.44,1.43-12.64.35-1.04-.27-2.27-1.53-2.56-2.57-.45-1.61.93-2.51,2.41-2.97,3.17-.99,6.46-1.72,9.48-3.07,2.78-1.24,5.28-3.12,7.85-4.79.56-.36,1.19-1.02,1.28-1.62.92-5.84,1.72-11.69,2.64-18.07-2.71.99-4.74,1.77-6.81,2.46-1.63.55-3.39.9-4.5-.84-1.19-1.85-.1-3.37,1.26-4.58,2.96-2.61,6.04-5.09,8.99-7.72.75-.67,1.59-1.68,1.67-2.6.9-9.62,1.65-19.25,2.43-28.88.02-.22-.07-.45-.16-1.02-1.15.43-2.19,1.08-3.27,1.15-1.14.07-2.76-.05-3.35-.76-.58-.71-.59-2.56-.05-3.39,1.89-2.9,3.8-5.87,7.28-7.25.57-.22,1.2-.92,1.33-1.5.64-2.76,1.12-5.55,1.65-8.29-4.37-1.61-4.99-3.39-1.64-6.41,3.85-3.48,5.71-7.78,7.21-12.52,1.72-5.42,3.76-10.73,5.29-16.43-.47.42-.98.79-1.39,1.26-5.47,6.37-10.97,12.7-16.36,19.14-6.5,7.77-9.15,16.9-9.04,26.89.07,6.99-.05,13.95-2.15,20.7-3.17,10.19-8.94,18.48-17.96,24.34-7.31,4.75-12.11,3.85-17.82-2.72-6.32-7.27-10.7-15.47-12.87-24.84-.47-2.01-1.47-4.49,1.02-5.78,2.69-1.4,4.04,1.07,5.33,2.74,2.07,2.69,3.93,5.55,5.79,8.4,2.94,4.5,5.73,9.11,8.75,13.56,2.13,3.15,4.22,2.95,6.6-.61-5.24-2.22-8.56-6.32-10.9-11.32-.23-.5-.68-1.04-.62-1.52.14-1.16.16-2.77.89-3.31.72-.53,2.49-.35,3.37.2,1.93,1.21,3.47,3.04,5.4,4.25,2.32,1.46,4.83,2.63,7.35,3.74.57.25,1.87-.04,2.19-.52,2.26-3.38,3.62-7.14,4.3-11.03-2.91-.6-5.6-1.08-8.24-1.74-.79-.2-1.61-.76-2.13-1.4-1.39-1.72-.23-3.85,2.24-4.19,2.2-.3,4.4-.52,6.6-.77,1.77-.2,2.48-1.11,2.65-2.97.48-5.19,1.13-10.37,1.88-15.53.23-1.56-.26-2-1.66-2.45-2.09-.67-4.1-1.64-6.06-2.65-1.48-.76-2.67-1.96-1.91-3.83.7-1.71,2.23-1.73,3.83-1.54,2.28.27,4.57.53,6.85.56.83.01,2.06-.38,2.45-1,2.37-3.82,4.54-7.76,7-12.03-1.59-.25-3.1-.5-4.6-.74-1.65-.26-3.23-.74-3.46-2.66-.25-2.07,1.31-2.87,2.94-3.48,3.25-1.21,6.56-1.7,10.03-1.06.76.14,1.96.06,2.38-.42,2.7-3.07,5.24-6.29,8.13-9.83-1.06-.27-1.7-.41-2.32-.6-2.93-.93-5.89-1.8-8.78-2.84-1.51-.54-2.85-1.79-2.15-3.41.45-1.05,1.96-2.2,3.09-2.3,4.88-.43,9.8-.67,14.71-.63,3.18.02,5.67-.78,7.58-3.44,2.36-3.27,4.9-6.41,7.33-9.63.45-.6.74-1.32,1.33-2.39-1.24-.09-2.07-.05-2.87-.21-3.7-.75-7.42-1.47-11.08-2.37-1.61-.4-2.95-1.43-2.74-3.37.21-1.94,1.76-2.46,3.4-2.76,3.82-.69,7.68-1.22,11.44-2.12,3.3-.79,6.51-1.94,9.72-3.05.69-.24,1.43-.87,1.76-1.51,2.58-5.07,5.08-10.18,7.57-15.3.18-.37.09-.87.16-1.78-1.23.59-2.13,1.01-3.01,1.44-5.62,2.79-11.51,3.91-17.75,2.98-1.76-.26-3.62-.47-3.99-2.66-.37-2.19,1.26-3.04,2.91-3.77,2.9-1.28,5.78-2.6,8.71-3.8,6.23-2.55,11.66-6.36,16.8-10.63.69-.57,1.39-1.49,1.5-2.32.79-5.88,1.44-11.78,2.11-17.67.03-.29-.12-.6-.31-1.38-.92.88-1.63,1.53-2.3,2.21-5.38,5.51-11.68,9.21-19.52,9.73-1.95.13-3.95-.16-5.9-.42-1.72-.23-3.32-.9-3.47-2.96-.14-1.95,1.29-2.7,2.82-3.35,2.84-1.21,5.75-2.3,8.46-3.76,8.85-4.74,14.95-11.78,17.69-21.59,1.37-4.92.53-14.61-1.98-18.93-.47,1.04-.85,1.85-1.2,2.68-2.55,6.02-6.16,11.24-11.52,15.11-4.18,3.02-8.88,4.45-14.04,4.41-1.55-.01-2.92-.43-3.29-2.12-.38-1.71.75-2.65,2.17-3.23,11.71-4.78,16.57-14.47,18.9-26.07.44-2.19,1.44-4.27,2.12-6.41.18-.57.46-1.36.22-1.77-1.35-2.35-2.84-4.63-4.29-6.92-.25.06-.5.13-.76.19-.25.94-.52,1.88-.76,2.83-3.07,12.05-10.07,20.79-21.64,25.68-.51.22-1.03.41-1.55.59-1.44.49-2.89.62-3.83-.84-.93-1.46-.25-2.72.86-3.81,1.53-1.5,3.09-2.95,4.58-4.49,7.68-7.93,11.95-17.23,11.39-28.47-.03-.55-.11-1.14.03-1.66,1.36-4.73-2.44-6.42-4.85-8.93-.25.05-.5.1-.74.15,0,.88,0,1.76,0,2.64-.04,8.53-1.32,16.76-6.3,23.98-2.87,4.16-6.54,7.51-11.65,8.38-2.35.4-5.08.04-7.34-.79-2.82-1.03-2.97-4.15-.68-6.14.42-.36.88-.68,1.35-.97,7.74-4.7,11.18-11.84,11.56-20.62.13-3.07-.17-6.16-.33-9.24-.09-1.74-.6-3.49-.42-5.19.22-2.12-.48-3.2-2.44-3.93-1.77-.66-2.88-2.07-2.41-4.11.46-1.98,2.01-2.79,3.89-2.88,3.9-.19,7.52.88,10.93,2.72,7.31,3.95,12.97,9.8,18.45,15.88,10.47,11.61,19.29,24.16,22.28,39.93,1.18,6.22,2.47,12.43,3.33,18.7,3.03,22.11.88,43.81-6.03,64.97-1.83,5.59-4.61,10.95-7.49,16.11-4.28,7.67-9.42,14.88-13.5,22.64-6.26,11.92-11.63,24.27-15.54,37.21-3.89,12.85-6.66,25.9-7.56,39.3-.1,1.45.36,3.14,1.1,4.4,15.94,26.97,27.56,55.44,30.04,87.03.88,11.2.37,22.34-3.08,33.15-1.59,5-4.09,9.42-8.39,12.67-.49.37-.84,1.86-.54,2.21,7.88,9.04,9.87,20.17,11.27,31.49.9,7.28.49,14.57-.81,21.77-3.13,17.21-7.36,34.05-16.17,49.43-6.08,10.62-13.16,20.34-23.33,27.47-6.15,4.31-12.85,7.48-19.96,9.83-.86.29-1.71.62-2.96,1.07,4.89,4.19,8.31,8.96,11.05,14.27,8.15,15.79,10.14,32.34,6.09,49.6-1.7,7.27-5.24,13.62-10.64,18.77-9.99,9.54-21.44,15.95-35.74,15.87-8.84-.04-16.69-3.34-24.26-7.47-3.13-1.71-6.05-3.78-9.21-5.41-5.24-2.7-10.66-5-16.8-3.8-2.71.53-4.74,1.74-6.33,4.39-2.36,3.91-6.11,6.13-11,5.63-.94-.1-1.91-.2-2.84-.08-5.78.73-9.66-1.95-12.53-6.71-.57-.94-1.59-1.8-2.6-2.26-2.95-1.35-6.15-1.99-9.26-.94-4.17,1.41-8.31,3.01-12.28,4.89-6.21,2.94-12.11,6.6-18.45,9.2-9.66,3.95-19.55,3.38-29.22-.37-6.49-2.51-12.28-6.22-17.5-10.8-7.76-6.82-12.19-15.44-13.83-25.58-2.79-17.17.11-33.31,9.01-48.24,2.32-3.9,5.48-7.29,8.38-11.07-.15-.08-.63-.43-1.17-.6-20.29-6.12-34.36-19.45-44.38-37.75-9.8-17.89-14.8-37.17-17-57.24-1.22-11.16.47-22.13,4.18-32.75,1.55-4.45,3.63-8.62,6.86-12.11.91-.98,1.26-1.79-.06-2.69-4.69-3.23-7.13-7.99-8.74-13.22-3.66-11.87-3.85-24.02-2.63-36.25,2.48-24.89,10.79-47.95,22.27-69.98,2.45-4.7,5.24-9.22,7.77-13.88.54-.99,1.01-2.27.87-3.32-1.14-8.55-1.87-17.21-3.82-25.59-3.36-14.42-8.19-28.39-14.54-41.85-4.42-9.35-9.67-18.19-15.21-26.83-8.69-13.55-13.48-28.33-16.02-44.09-3.62-22.38-1.75-44.36,4.03-66.13,2.24-8.44,6.01-16.16,11.34-23.1,6.81-8.87,13.8-17.58,22.8-24.39,4.22-3.19,8.75-5.74,14.2-6.1.86-.06,1.75-.1,2.6.04,1.69.27,3,1.13,3.3,2.94.29,1.79-.51,3.29-2.13,3.83-2.39.8-2.73,2.31-2.66,4.54.07,2.27-.55,4.56-.6,6.85-.07,3.39-.15,6.82.22,10.18.81,7.34,4.33,13.13,10.6,17.18,1.87,1.2,4.05,2.41,3.26,5.16-.79,2.74-3.29,3.28-5.69,3.47-4.66.37-8.52-1.61-11.77-4.71-6.79-6.48-9.02-14.87-9.64-23.86-.15-2.19-.02-4.4-.02-6.65-3.09.56-6.19,4.51-5.92,7.12.13,1.26.21,2.53.17,3.79-.36,10.3,3.37,19.04,10.19,26.58,1.64,1.82,3.42,3.52,5.17,5.24,1.23,1.21,2.53,2.47,1.41,4.3-1.12,1.84-2.84,1.28-4.46.67-9.46-3.59-16.13-10.15-20.21-19.33-1.05-2.37-1.63-4.95-2.42-7.44-.22-.71-.41-1.43-.61-2.15-.25-.08-.5-.15-.75-.23-1.47,2.37-2.98,4.72-4.35,7.15-.23.4.12,1.18.32,1.75.65,1.91,1.67,3.75,1.99,5.71.99,6.04,3.02,11.63,6.45,16.71,2.87,4.24,6.61,7.44,11.34,9.44.29.12.58.26.87.39,1.48.62,2.79,1.48,2.41,3.32-.41,1.97-2.07,2.15-3.74,2.13-4.64-.05-8.91-1.3-12.77-3.89-5.79-3.89-9.56-9.37-12.27-15.68-.34-.78-.68-1.56-1.11-2.54-.37.35-.69.5-.77.74-3.24,9.46-3.15,18.53,2.67,27.17,4.15,6.17,9.52,10.75,16.25,13.8,2.09.95,4.35,1.59,6.3,2.75,1.05.62,2.3,2.1,2.23,3.1-.08,1-1.55,2.41-2.66,2.72-5.94,1.66-11.73.64-16.95-2.4-3.38-1.96-6.31-4.7-9.41-7.13-.59-.46-1.05-1.08-2.06-2.15-.09,1.42-.24,2.17-.16,2.88.6,5.27,1.15,10.55,1.97,15.78.2,1.25,1.16,2.6,2.16,3.47,6.15,5.38,13.22,9.23,20.81,12.18,1.7.66,3.48,1.29,4.91,2.34,1,.73,2.16,2.28,1.99,3.26-.17.99-1.76,2.23-2.92,2.47-6.69,1.39-13.05.09-19.1-2.97-.74-.38-1.5-.72-2.86-1.36.39,1.42.49,2.27.84,2.99,2.21,4.55,4.38,9.13,6.81,13.57.6,1.1,1.99,2.13,3.22,2.47,5.86,1.61,11.79,2.98,17.69,4.42.85.21,1.71.33,2.57.5,1.57.31,2.96.92,3.16,2.72.2,1.81-.98,2.9-2.52,3.28-3.74.94-7.52,1.69-11.3,2.46-.74.15-1.54.02-2.79.02.45.94.63,1.6,1.02,2.1,2.66,3.54,5.4,7.02,8.04,10.58,1.68,2.26,3.87,2.97,6.6,2.95,4.19-.04,8.39.19,12.59.34,1.03.04,2.19-.08,3.04.35,1.08.55,2.45,1.46,2.68,2.46.2.84-.82,2.54-1.71,2.94-2.8,1.25-5.78,2.09-8.71,3.05-.72.24-1.49.32-2.65.57.58.84.92,1.41,1.33,1.92.94,1.17,2.03,2.24,2.86,3.49,2.29,3.43,4.68,5.9,9.56,4.85,2.3-.49,5.1.77,7.51,1.65.91.33,2.04,1.96,1.89,2.8-.17,1.01-1.44,2.19-2.51,2.61-1.57.62-3.38.64-5.42.96.35.72.56,1.26.85,1.75,1.83,3.06,3.8,6.03,5.46,9.17.88,1.67,1.97,2.36,3.75,2.18,2.13-.21,4.26-.39,6.38-.64,1.62-.2,3.38-.07,3.64,1.7.16,1.08-.69,2.82-1.62,3.44-1.94,1.29-4.2,2.17-6.42,2.94-1.34.47-1.65,1.02-1.46,2.4.72,5.17,1.38,10.34,1.87,15.53.17,1.83.84,2.78,2.63,2.98,2.04.23,4.08.52,6.13.72,1.54.15,2.87.6,3.15,2.31.28,1.7-.78,2.78-2.24,3.19-2.64.73-5.34,1.23-8.36,1.91.02.28-.04.98.15,1.6.64,2.04,1.23,4.11,2.1,6.05,2.18,4.91,3.08,5.27,7.79,2.46,2.84-1.69,5.38-3.89,7.99-5.94,1.37-1.07,2.72-2.23,4.42-.91,1.65,1.28,1.08,2.95.36,4.54-2.33,5.11-5.61,9.35-11.14,11.73ZM406.53,487.1l-.61-.05c-.11.81-.26,1.61-.33,2.42-.44,4.81-.81,9.63-1.3,14.43-2.72,26.83-10.26,52.49-19.16,77.79-5.31,15.1-13.88,28.61-21.76,42.44-.23.4-.53.88-.92,1.06-1.75.8-1.49,2.12-1.18,3.6,1.69,7.95,1.97,15.99,1.88,24.1-.13,11.83-5.21,20.68-14.86,27.37-7.71,5.34-15.66,6.36-24.29,2.92-2.43-.97-4.81-2.06-7.28-2.89-.73-.24-1.85-.02-2.51.41-1.71,1.1-3.15,2.65-4.9,3.66-9.9,5.7-20.15,7.85-31.09,2.93-.72-.32-1.82,0-2.69.23-2.59.68-5.12,1.76-7.75,2.16-9.4,1.41-18.08-1.38-25.14-7.09-3.87-3.13-6.33-1.89-9.6-.54-1.39.57-2.76,1.21-4.18,1.7-7.51,2.56-14.69,2-21.32-2.55-2.54-1.74-4.93-3.73-7.24-5.76-4.57-4.01-7.3-9.1-8.27-15.11-1.53-9.48-1.11-18.94.41-28.38.45-2.83,1.97-5.87-1.6-7.87-7.71-13.65-16.14-26.96-21.44-41.8-10.54-29.48-18.73-59.53-20.51-91-.08-1.37-.3-2.72-.46-4.08-.19.02-.39.04-.58.06-.41,4.91-.29,9.78,1.11,14.56.48,1.63.65,3.24-1.07,4.19-1.72.95-3.22.05-4.11-1.33-1.65-2.57-3.05-5.31-4.5-8-.37-.69-.55-1.49-.82-2.24-.22,0-.45,0-.67,0-.72,1.81-1.37,3.66-2.2,5.43-1.05,2.23-.93,4.33-.12,6.65,2.5,7.22,6.13,13.72,11.59,19.13,1.21,1.2,2.09,2.59.84,4.18-1.16,1.48-2.67.97-4.08.22-4.76-2.52-8.84-5.84-12.01-10.23-.54-.74-1.11-1.46-2-2.62-.85,2.46-2.17,4.37-1.04,6.51,2.43,4.58,5.3,8.92,9.74,11.77,2.29,1.47,5.07,2.19,7.46,3.54,1,.57,2.23,1.95,2.15,2.85-.08.92-1.58,1.79-2.57,2.53-.38.29-1.07.19-1.62.23-6.58.51-12.09-1.85-16.83-6.29-.64-.6-1.34-1.15-2.53-2.16-.57,4.08-.95,7.52-1.56,10.92-.5,2.78.43,4.88,2.69,6.32,5.39,3.44,10.83,6.8,16.3,10.12,1.36.82,2.73,1.59,2.32,3.41-.44,1.96-2.07,2.16-3.76,2.06-5.33-.32-10.25-1.91-14.72-4.85-.76-.5-1.55-.96-2.33-1.43l-.66.29c.35,2.84.74,5.68,1.03,8.53.18,1.79.96,2.91,2.81,3.3,6.12,1.28,12.21,2.65,18.33,3.93,1.63.34,3.24.71,3.38,2.7.14,1.99-1.37,2.67-2.98,3.13-4.57,1.32-9.19,1.56-13.86.56-.78-.17-1.57-.25-2.35-.37-.14.33-.27.66-.41.99,1.82,1.08,3.55,2.41,5.49,3.17,2.42.94,5.05,1.33,7.54,2.11,3.69,1.17,4.82,4.63,2.43,7.67-1,1.28-2.36,2.35-3.75,3.22-1.98,1.23-2.69,2.86-2.74,5.13-.08,4.43,1.51,8.13,4.14,11.61.64.84.79,2.67.31,3.59-.78,1.49-2.54,1.32-3.75.37-2.4-1.89-4.65-3.98-6.93-6.03-.54-.48-.94-1.12-1.4-1.69-.28.01-.57.03-.85.04-.9,3.31-1.82,6.62-2.66,9.95-.12.48.15,1.09.3,1.62,2.34,8.2,6.92,14.69,14.41,18.98,1.46.84,2.76,1.93,1.87,3.8-.88,1.87-2.66,1.71-4.11.93-3.95-2.11-7.8-4.41-11.68-6.66-.56-.32-1.05-.77-1.57-1.16-.24.11-.48.22-.72.33.68,4.1,1.33,8.21,2.08,12.3.1.56.63,1.09,1.04,1.55,7.3,8.23,16.22,13.56,27.25,15.06,1.6.22,3.04.83,3.09,2.69.06,2-1.45,2.58-3.11,2.95-7.44,1.65-14.48.73-21.09-3.14-.63-.37-1.3-.68-2.53-1.31.35,1.38.46,2.14.73,2.83,1.29,3.4,2.69,6.77,3.93,10.19,1.15,3.2,3.37,5.15,6.41,6.58,8.11,3.84,16.67,5.99,25.51,7.16,1.67.22,3.22.74,3.43,2.68.2,1.94-1.25,2.73-2.79,3.35-5.43,2.2-11.03,2.73-16.79,1.67-.89-.16-1.77-.3-3.41-.58.96,1.37,1.38,2.22,2.02,2.83,3.36,3.23,6.64,6.58,10.25,9.52,1.47,1.2,3.66,1.96,5.59,2.1,8.65.62,17.25-.05,25.78-1.57,1.71-.3,3.47-.44,4.32,1.47.9,2.04-.43,3.41-2.01,4.26-3.89,2.08-7.87,3.99-11.81,5.96-.51.25-1.04.46-2.15.95,2.38,1.28,4.23,2.3,6.09,3.28,2.71,1.42,3.75,4.18,1.81,6.49-1.86,2.21-1.38,3.66.32,5.37.33.33.75.75.79,1.16.13,1.18.55,2.7,0,3.48-.55.79-2.2,1.28-3.26,1.13-1.59-.22-3.18-.95-4.61-1.76-1.45-.82-2.35-.53-3.13.8-.4.68-.81,1.37-1.29,1.99-1.13,1.47-1,2.7.5,3.85,3.58,2.74,7.1,5.56,10.7,8.27,1.38,1.04,2.92,2.05,2.05,4.01-.93,2.1-2.89,1.81-4.52,1.12-4.13-1.74-8.18-3.67-12.26-5.52-.47-.21-.94-.43-1.76-.8-.72,2.65-1.49,5.05-1.98,7.5-.14.68.35,1.71.88,2.26,3.41,3.57,7.03,6.8,12.05,8.1.97.25,2.15,1.8,2.22,2.82.06.84-1.2,2.21-2.18,2.61-3.56,1.49-7.24,1.51-10.89.12-.69-.26-1.4-.49-2.94-1.03.94,4.91,1.84,9.13,2.52,13.38.75,4.69,3.66,6.96,8.06,7.77,1.01.19,2.02.55,3.03.56,3.16.03,6.31-.04,9.47-.14,1.55-.05,3.17.2,3.38,1.84.14,1.08-.7,2.4-1.38,3.42-.45.67-1.34,1.11-2.12,1.48-2.54,1.2-5.11,2.32-7.73,3.5.09.19.14.51.3.58,4.14,1.94,8.28,3.9,12.47,5.73.49.21,1.45-.08,1.92-.47,4.41-3.62,9.59-5.45,15.1-6.24,4.71-.68,5.5-.01,7.19,4.69,3.14-1.5,6.5-2.62,9.28-4.56,5.15-3.58,10.75-5.45,16.84-6.63,8.49-1.64,15.47-.09,20.71,7.32,2.18,3.09,5.74,4.55,9.36,4.21,3.54-.33,6.68-2.11,8.93-5.27,4.02-5.63,9.72-7.63,16.46-6.73,7.28.97,14.25,2.64,20.36,7.19,2.64,1.97,5.99,2.97,9.07,4.43,1.57-4.55,2.33-5.2,6.78-4.68,5.63.66,10.87,2.51,15.4,6.12.65.52,2.01.72,2.77.41,3.73-1.53,7.36-3.28,11.02-4.96.49-.22.96-.48,1.44-.73-.13-.25-.27-.49-.4-.74-.73-.22-1.5-.33-2.17-.66-2.62-1.28-5.32-2.46-7.73-4.05-.86-.57-1.68-2.57-1.31-3.3.48-.95,2.13-1.4,3.37-1.82.61-.21,1.4.14,2.11.2,4.8.44,9.52.1,13.95-1.95,1.16-.54,2.56-1.41,3.02-2.48,2.25-5.28,3.39-10.84,3.42-16.61,0-.11-.19-.23-.28-.32-.19-.02-.37-.1-.5-.05-.52.18-1.03.4-1.55.59-3.64,1.4-7.34,1.36-10.9-.09-1.02-.42-2.16-1.8-2.24-2.82-.07-.84,1.3-1.85,2.13-2.68.3-.3.87-.36,1.33-.46,4.84-1.13,7.89-4.81,11.3-7.96.26-.24.52-.74.45-1.05-.6-2.78-1.28-5.54-1.82-7.81-5.13,2.1-9.68,4.02-14.29,5.8-1.67.64-3.6.95-4.52-1.15-.86-1.98.69-2.99,2.08-4,3.07-2.24,6.2-4.4,9.13-6.82,3.72-3.08,3.75-3.94.53-7.59-.47-.53-1.76-.72-2.53-.52-1.67.43-3.2,1.52-4.87,1.75-1.12.15-2.8-.38-3.44-1.21-.54-.71-.18-2.36.2-3.45.35-1,1.42-1.73,1.86-2.72.31-.69.42-1.85.03-2.39-2.86-3.99-2.33-6.21,2.07-8.38,1.55-.77,3-1.74,5.07-2.97-1.59-.5-2.46-.65-3.2-1.03-3.91-2.03-7.87-4-11.63-6.3-.85-.52-1.44-2.33-1.27-3.41.25-1.63,1.87-1.95,3.41-1.78.79.09,1.56.29,2.35.35,7.49.52,14.99,1.05,22.48,1.5,1.33.08,2.83.18,4-.33,6.57-2.85,10.9-8.23,15.21-13.75-1.17-.2-2.13-.05-3.1.12-5.93,1.02-11.72.47-17.18-2.08-.98-.46-2.11-2.03-2.02-2.97.09-.93,1.53-1.93,2.58-2.52.84-.47,2-.38,3.02-.53,8.29-1.19,16.28-3.36,23.78-7.15.92-.46,2-.82,2.66-1.54,4.46-4.89,5.57-11.24,7.9-17.24-.69-.06-.86-.13-.98-.07-.43.2-.85.42-1.25.67-6.24,3.76-12.96,4.96-20.1,3.62-1.95-.37-4.55-.31-4.5-3.18.05-2.71,2.55-2.65,4.44-2.96,7.36-1.21,13.89-4.18,19.73-8.82,5.3-4.21,9.1-9.14,8.83-16.33-.05-1.27.11-2.54.2-4.41-1.13.98-1.66,1.6-2.32,1.97-3.9,2.22-7.78,4.47-11.76,6.52-1.41.73-3.08.62-3.84-1.15-.7-1.63.3-2.75,1.63-3.51,7.3-4.17,12.03-10.3,14.51-18.34,1.48-4.79-1.16-8.39-2.66-12.44-.86.61-1.24,1.32-1.8,1.83-2.15,1.96-4.3,3.94-6.58,5.73-1.25.98-2.84,1.31-4.07-.11-1.13-1.32-.57-2.66.36-3.89.29-.38.57-.76.87-1.13,2.64-3.35,3.68-7.2,3.16-11.37-.15-1.25-1.06-2.55-1.95-3.52-1.05-1.15-2.61-1.82-3.68-2.95-3.35-3.53-2.32-7.29,2.31-8.66,2.35-.69,4.77-1.18,7.11-1.91,2.1-.65,4.04-1.64,5.05-3.84-.3-.15-.45-.29-.57-.27-.7.1-1.4.22-2.1.36-4.76.96-9.5.79-14.06-.81-1.09-.38-2.33-1.76-2.55-2.87-.32-1.63,1.2-2.38,2.74-2.64.62-.11,1.25-.19,1.88-.31,4.35-.85,8.76-1.48,13.03-2.63,7.61-2.06,6.19-.83,7.42-8.51.25-1.55.3-3.12.49-5.28-1.56,1.02-2.42,1.58-3.28,2.13-4.64,2.98-9.73,4.65-15.24,4.62-1.03,0-2.57-1.08-2.92-2.02-.27-.71.9-2.04,1.59-2.99.28-.39.99-.46,1.46-.74,4.54-2.73,9.04-5.51,13.6-8.21,3.95-2.35,5.49-5.59,4.35-10.17-.66-2.63-.91-5.35-1.45-8.66-1.2,1.11-1.87,1.74-2.54,2.35-5.13,4.7-11.08,7.05-18.05,5.91-1.12-.18-2.56-1.4-2.95-2.46-.56-1.58.83-2.62,2.32-3.01,7.89-2.03,12.84-7.46,16.63-14.26,1.35-2.41,1.12-4.62-.75-6.87-.14.07-.32.1-.41.21-.39.5-.76,1.01-1.13,1.52-3.37,4.64-7.62,8.28-12.82,10.67-.95.44-2.94.17-3.49-.53-.53-.68.11-2.34.35-3.55.06-.33.51-.58.79-.86,5.14-5.15,8.39-11.38,11.11-18.07,2.07-5.1-.8-8.72-2.59-12.84-.53.79-.66,1.67-1.07,2.38-1.69,2.91-3.32,5.88-5.3,8.59-.51.69-2.62,1.03-3.3.55-.82-.58-1.08-2.19-1.24-3.39-.1-.8.43-1.66.62-2.51.96-4.26,1.07-8.54.7-12.84ZM250.26,675.08c.55.41.77.69,1.03.76,5.06,1.31,10.08,2.74,15.42,1.84,3.16-.53,6.3-.43,9.25,1.18.56.3,1.52.46,2.01.19,3.71-2.11,7.62-1.63,11.58-1.2,4.98.54,9.61-.98,14.47-2.32-.35-.44-.45-.7-.63-.78-.65-.29-1.3-.6-1.98-.77-10.06-2.47-20.15-4.87-30.63-3.22-5.85.92-11.67,2.03-17.49,3.13-.95.18-1.84.71-3.03,1.2ZM210.23,671.89l-.3.65c1.57.95,3.11,1.96,4.74,2.8.33.17,1.35-.21,1.44-.52.51-1.67.82-3.4,1.24-5.28-2.57.85-4.85,1.6-7.13,2.36ZM337,669.6c.43,1.98.7,3.59,1.17,5.14.1.34,1.09.78,1.39.63,1.68-.87,3.27-1.9,5.45-3.21-3.06-.98-5.33-1.7-8.02-2.55Z" style="fill: #000; stroke-width: 0px;"/>
  <path d="M374.15,337.18c.41-4.51.87-8.41,1.1-12.33,1.49-25.37-5.9-47.66-23.31-66.4-1.61-1.73-3.43-3.27-5.21-4.85-2.01-1.78-2.69-3.83-1.75-5.64.96-1.86,3.39-2.85,5.81-1.63,3.07,1.55,6.21,3.3,8.68,5.64,16.63,15.76,25.6,35.3,27.83,58,.93,9.5.51,18.97-.91,28.42-3.02,20.08-12.77,35.87-29.8,47.04-3.7,2.43-7.54,4.66-11.35,6.91-1.55.92-3.31,1.59-4.75-.1-1.35-1.58-.52-3.18.55-4.53.99-1.25.86-2.36.6-3.9-.64-3.72-.91-7.53-1.03-11.32-.14-4.66-.37-9.37.16-13.98,1.04-9.03,5.72-16.17,12.79-21.73,5.31-4.18,11.07-4.12,17-1.4.98.45,1.94.96,3.6,1.79Z" style="fill: #000; stroke-width: 0px;"/>
  <path d="M166.91,320.11c-.24-24.7,7.6-46.45,24.42-64.72,2.08-2.26,4.49-4.23,6.86-6.2,1.14-.95,2.49-1.69,3.84-2.34,3.33-1.59,5.99-1.18,7.23.98,1.15,2,.23,3.96-2.47,6.44-14.41,13.27-23.4,29.54-26.6,48.9-1.7,10.31-1.55,20.66-.22,31,.37,2.87.5,2.92,2.98,1.65,7.6-3.9,13.96-2.92,20.19,2.96,7.11,6.72,11.03,14.91,10.79,24.69-.18,7.24-1.14,14.45-1.58,21.68-.06,1.02,1.04,2.06,1.27,3.16.26,1.28.67,3.08.04,3.84-.62.74-2.77,1.03-3.73.53-13.98-7.38-26.55-16.39-34.27-30.76-5.54-10.31-7.87-21.5-8.72-33.04-.21-2.91-.03-5.85-.03-8.78Z" style="fill: #000; stroke-width: 0px;"/>
  <path d="M322.94,421.13c-.1-.6-.18-1.21-.31-1.8-1.37-6.18-2.81-12.35-4.09-18.55-.36-1.73-1.11-2.72-2.79-3.41-7.42-3.06-12.92-8.48-17.44-14.92-.59-.84-.6-2.87.01-3.56.61-.69,2.61-.89,3.53-.41,3.85,2.02,7.52,4.38,11.26,6.61.73.43,1.47.84,2.62,1.5,0-1.09.06-1.75,0-2.39-.62-5.59-1.35-11.16-1.87-16.76-.18-1.88-.82-2.19-2.56-1.79-5.41,1.24-10.35-.1-14.91-3.11-1.33-.88-2.62-2.15-1.67-3.67.59-.95,2.26-1.68,3.46-1.7,4.11-.04,8.22.27,12.33.46,1.86.08,2.67-.62,2.61-2.65-.14-4.51-.04-9.02-.06-13.54,0-.53-.13-1.06-.24-1.84-.9.17-1.64.36-2.4.44-3.77.43-7.53.87-11.31,1.21-1.52.13-2.91-.37-3.3-2.07-.39-1.7.63-2.77,2.05-3.31,3.84-1.47,7.68-2.98,11.61-4.19,3.06-.94,4.75-2.45,5.08-5.89.4-4.08,1.52-8.08,2.33-12.12.15-.73.28-1.47.53-2.81-1.55.81-2.57,1.33-3.58,1.87-4.82,2.58-9.62,5.17-14.45,7.73-1.53.81-3.19,1.43-4.53-.2-1.34-1.63-.41-3.12.7-4.47,7.54-9.17,17.26-14.74,28.78-17.21,4.21-.9,6.62,1.86,5.61,6.23-1.48,6.4-3.32,12.73-4.48,19.19-3.07,17.08-2.29,34.23-.23,51.36,2.88,23.9,8.52,47.2,15.66,70.15.28.91.8,1.85.71,2.73-.12,1.14-.46,2.86-1.2,3.19-.93.41-2.84.07-3.51-.68-2.04-2.29-3.88-4.81-5.42-7.46-1.3-2.25-2.89-4-4.95-5.59-8.29-6.36-14.51-14.53-19.86-23.4-1.14-1.9-2.36-3.8-3.12-5.85-.38-1.03-.23-2.78.43-3.57,1.1-1.31,2.67-.65,3.73.49,4.36,4.7,8.67,9.45,13,14.18.57.62,1.14,1.24,1.71,1.85.17-.09.35-.18.52-.28Z" style="fill: #000; stroke-width: 0px;"/>
  <path d="M232.63,421.79c.36-.78.57-1.71,1.12-2.33,4.04-4.56,8.14-9.07,12.26-13.57,1.17-1.28,2.57-2.42,4.31-1.08,1.61,1.24.98,2.8.19,4.28-6.2,11.65-13.72,22.21-24.6,30.04-.92.66-1.53,1.77-2.2,2.74-1.88,2.73-3.66,5.54-5.61,8.22-1.01,1.4-2.4,2.55-4.25,1.5-1.83-1.04-1.42-2.72-.97-4.42,4.12-15.69,8.68-31.29,12.17-47.12,4.34-19.68,6.55-39.67,5.64-59.91-.49-10.98-2.45-21.7-5.46-32.24-.26-.91-.52-1.83-.74-2.75-1.17-4.98,1.39-7.61,6.33-6.43,10.44,2.51,19.45,7.47,26.65,15.54.53.59,1,1.22,1.49,1.85,1,1.27,1.62,2.65.51,4.1-1.22,1.58-2.81,1.19-4.29.41-4.97-2.63-9.9-5.32-14.85-7.98-.88-.47-1.78-.92-3.24-1.67.21,1.37.31,2.17.47,2.95.83,4.27,1.84,8.52,2.43,12.83.35,2.5,1.52,3.81,3.79,4.55,3.54,1.15,7.05,2.38,10.56,3.61.74.26,1.46.61,2.17.97,1.37.7,2.61,1.82,1.86,3.33-.48.95-2.01,1.99-3.04,1.95-3.78-.13-7.54-.68-11.31-1.1-.75-.08-1.49-.29-2.61-.51,0,1.63,0,2.94,0,4.25-.02,3.56.12,7.14-.12,10.68-.16,2.47.8,3.3,3.09,3.17,3.24-.18,6.48-.29,9.72-.44.87-.04,1.83-.36,2.59-.1,1.09.38,2.6.98,2.88,1.84.28.86-.41,2.55-1.21,3.17-4.35,3.32-9.34,4.75-14.75,3.61-2.44-.51-2.97.21-3.16,2.45-.44,5.2-1.15,10.39-1.73,15.58-.08.75-.1,1.51-.17,2.78,1.18-.63,1.93-.99,2.64-1.41,3.59-2.16,7.17-4.36,10.77-6.51,1.37-.82,2.87-1.23,4.12.14,1.24,1.37.7,2.81-.26,4.1-4.69,6.33-10.19,11.67-17.61,14.76-.83.34-1.81,1.23-2,2.04-1.64,6.85-3.12,13.74-4.63,20.62-.04.19.11.43.18.64.3.29.61.57.91.86Z" style="fill: #000; stroke-width: 0px;"/>
  <path d="M379.39,194.23c-1.76,2.1-3.19,4.66-5.35,6.2-2.77,1.98-6.07,3.26-9.23,4.63-1.4.61-2.92.27-3.63-1.31-.72-1.6.24-2.7,1.46-3.62,1.32-1.01,2.67-1.98,3.95-3.05,4.11-3.46,5.89-7.88,5.6-13.25-.09-1.68.37-3.4.52-5.1.06-.61.21-1.4-.09-1.81-1.5-2.09-3.13-4.09-4.71-6.12-.23.07-.46.14-.7.21-.2.79-.43,1.57-.6,2.36-1.48,6.89-5.64,11.16-12.5,12.77-1.6.37-3.27.62-4.18-1.16-.94-1.82.31-2.93,1.61-3.97,6.29-5.01,7.1-11.03,3.1-18-1.69-2.96-3.4-5.42-6.69-6.51-.3-.1-.59-.21-.9-.27-.14-.03-.3.06-.81.18.05.83.11,1.73.16,2.62.43,7.05-3.17,13.1-9.03,15.21-1.64.59-3.31.98-4.56-.63-1.17-1.51-.34-2.88.37-4.38.97-2.03,1.86-4.2,2.23-6.4.42-2.48-.55-4.82-2.82-6.11-3.19-1.81-4.63-4.91-6.24-7.86-1.53-2.81-.36-5.67,2.87-6.14,3.78-.55,7.77-.87,11.51-.29,22.77,3.54,44.58,24.88,48.63,47.49,2.1,11.75.55,22.91-6.78,32.76-4.96,6.67-11.79,10.4-19.79,12.19-1.51.34-2.99.27-3.58-1.4-.65-1.83.61-2.78,2.11-3.41,5.2-2.2,9.78-5.21,13.08-9.89.41-.58.79-1.18,1.15-1.8.11-.19.1-.44.23-1.08-.9.22-1.61.35-2.3.55-3.7,1.11-7.4,1.08-10.92-.45-1.03-.44-2.11-1.77-2.32-2.85-.31-1.62,1.14-2.36,2.61-2.84,5.17-1.69,10.34-3.4,15.47-5.21.7-.25,1.67-1.07,1.69-1.66.16-3.57.08-7.16.08-10.74-.23.04-.47.09-.7.13Z" style="fill: #000; stroke-width: 0px;"/>
  <path d="M208.16,155.87c-3.18,1.44-6.3,1.97-7.47,5.43-.32.95-.96,1.81-1.48,2.69-3.45,5.77-2.28,12.37,2.94,16.57.31.25.63.48.94.73,1.21.95,2.28,2.28,1.2,3.59-.71.87-2.46,1.47-3.61,1.29-6.66-1.01-11.31-5.63-12.83-12.35-.2-.91-.4-1.81-.6-2.72-.25-.12-.49-.25-.74-.37-1.65,2.21-3.31,4.42-4.94,6.64-.12.16-.09.46-.07.7.26,3.12.51,6.23.82,9.35.43,4.5,2.98,7.74,6.35,10.46,1.05.85,2.37,1.45,3.15,2.48.71.93,1.49,2.58,1.11,3.38-.39.81-2.26,1.54-3.28,1.33-5.57-1.13-10.11-3.99-13.17-8.92-.4-.65-.82-1.3-1.23-1.95-.22,0-.45,0-.67.01-.19,1.87-.35,3.75-.58,5.62-.49,3.92.38,6.91,4.74,8.08,3.58.96,7.08,2.23,10.63,3.33.83.26,1.87.18,2.5.66.92.7,2.06,1.7,2.18,2.69.1.82-.95,2.21-1.84,2.63-3.56,1.69-7.33,1.78-11.12.71-.73-.21-1.47-.41-2.89-.81.68,1.25,1.01,1.99,1.46,2.65,2.89,4.23,6.76,7.28,11.38,9.42.72.33,1.44.65,2.16.99,1.42.67,2.49,1.66,1.89,3.33-.6,1.66-2.07,1.73-3.59,1.39-10.61-2.38-18.71-8.14-23.31-18.1-6.36-13.78-5.17-27.62,1.49-40.8,8.7-17.2,23.17-27.69,41.45-33.08,4.21-1.24,8.58-1.45,12.93-.55,4.55.94,5.61,3.84,3.28,7.86-1.61,2.8-3.49,5.13-6.13,7.03-2.56,1.83-3,5.65-1.49,9.39.41,1.02,1,1.98,1.58,2.91.86,1.38,1.44,3.06.08,4.08-.99.74-2.85,1.02-4.06.66-6.09-1.83-9.93-8.39-9.31-15.41.07-.83.1-1.66.18-3Z" style="fill: #000; stroke-width: 0px;"/>
  <path d="M328.64,270.01c.41.78.7,1.7,1.28,2.38,2.55,3,5.16,5.97,7.81,8.89,1.07,1.18,2.1,2.34,1.06,3.95-1.02,1.57-2.54,1.32-4.03.71-7.09-2.93-12.48-7.68-15.82-14.66-2.71-5.68-4-11.72-4.1-17.94-.33-21.18,5.36-40.67,16.89-58.43,1.45-2.24,3.23-4.36,5.24-6.1,1.07-.93,3.1-1.48,4.42-1.14.99.26,1.75,2.13,2.25,3.43,2.05,5.36.67,10.74,0,16.15-.48,3.82-.46,7.71-.56,11.58-.04,1.51-.08,2.95-1.72,3.54-1.72.63-3.11-.25-3.72-1.72-1.32-3.18-2.39-6.46-3.49-9.73-.26-.77-.22-1.63-.67-2.49-1.67,3.54-4.16,6.64-3.54,10.97.95,6.6,2.69,12.82,6.52,18.41.58.84.52,2.71-.04,3.62-.89,1.44-2.59,1.08-3.79.15-2.53-1.97-4.95-4.09-7.73-6.4-.27,2.27-.69,4.41-.76,6.57-.36,12.21-1.66,8.77,6.86,16.85,3.19,3.03,7.01,5.4,10.59,8.02,1.28.94,2.42,1.94,1.92,3.7-.53,1.9-2.16,2.36-3.79,2.08-3.62-.64-7.19-1.53-11.09-2.38Z" style="fill: #000; stroke-width: 0px;"/>
  <path d="M229.15,235.2c-2.02,1.82-3.9,3.57-5.85,5.24-.71.61-1.54,1.31-2.41,1.46-.97.17-2.39.12-2.98-.47-.59-.59-.46-1.96-.52-3-.02-.33.32-.71.56-1.03,4.14-5.61,5.78-12.1,6.5-18.86.41-3.9-1.93-6.94-3.91-10.16-.15,1.14-.09,2.36-.48,3.41-1.16,3.16-2.33,6.33-3.86,9.32-.4.78-2.3,1.43-3.17,1.14-.85-.29-1.87-1.94-1.75-2.86.78-5.94-.35-11.7-1.4-17.45-.76-4.21.07-8.18,1-12.17.64-2.73,3.79-3.53,6.05-1.38,2.16,2.06,4.18,4.35,5.86,6.82,8.07,11.85,12.61,25.12,15.25,39.1,1.85,9.81,2.38,19.66,0,29.47-2.43,10.06-8.03,17.61-17.72,21.8-.58.25-1.22.72-1.76.63-1.08-.17-2.57-.37-3.02-1.1-.44-.72-.15-2.36.44-3.13,1.18-1.56,2.92-2.68,4.18-4.19,2.05-2.45,3.91-5.05,5.86-7.59-.2-.24-.41-.48-.61-.71-.73.31-1.44.71-2.2.9-2.97.72-5.94,1.61-8.96,1.94-1.09.12-2.79-.86-3.39-1.84-.91-1.5.27-2.84,1.63-3.71,5.95-3.83,11.52-8.12,16.24-13.42.78-.88,1.58-2.17,1.56-3.25-.08-4.66-.45-9.31-.74-13.97-.02-.28-.24-.54-.41-.92Z" style="fill: #000; stroke-width: 0px;"/>
  <path d="M249.89,725.41c2.39.44,5.12.64,7.64,1.48,6.07,2.02,12.03,4.4,18.08,6.5,1,.35,2.34.29,3.35-.06,5.9-2.06,11.69-4.43,17.62-6.38,8.65-2.83,16.94-1,24.85,2.83,6.08,2.94,11.09,7.1,14.7,13.05,1.8,2.97,4.47,5.58,7.21,7.78,6.54,5.26,11.32,11.62,14.08,19.58.9,2.6,2.18,5.11,3.59,7.47,2.5,4.18,3.19,8.79,3.23,13.46.02,1.8-.98,3.9-2.13,5.38-5.23,6.72-12.55,10.25-20.53,12.46-4.17,1.16-8.32.18-12.36-1.15-4.36-1.44-8.75-2.79-13.1-4.26-4.68-1.58-9.15-1.35-13.54,1.03-2.64,1.43-5.32,2.82-8.1,3.95-4.79,1.95-9.67,1.98-14.66.5-1.57-.46-3.51-.55-5.04-.07-5.49,1.73-10.79,1.41-15.98-.88-2.53-1.12-4.99-2.41-7.44-3.71-3.93-2.09-7.99-2.39-12.19-1.06-4.53,1.43-9.09,2.76-13.56,4.36-6.43,2.31-12.7,2.36-18.88-.74-5.1-2.56-10.26-4.99-13.93-9.64-1.99-2.53-3.02-5.08-2.67-8.49.5-4.78,1.95-9.05,4.33-13.17,1.42-2.45,2.43-5.15,3.45-7.81,2.26-5.91,5.79-10.9,10.61-14.94,4.57-3.84,8.49-8.13,11.95-13.07,5.28-7.54,13.26-11.3,22.05-13.34,2.3-.53,4.68-.68,7.36-1.05ZM299.73,785.53c2.37.11,4.74.16,7.11.36,5.5.46,10.33,2.94,15.15,5.32,5.16,2.54,10.65,3.62,16.3,3.76,5.85.15,8.22-2.49,7.69-8.34-.13-1.44-.7-2.96-1.46-4.21-4.04-6.63-8.12-13.23-12.38-19.72-1.28-1.94-2.93-3.87-4.86-5.12-7.29-4.71-15.06-7.83-24.02-5.59-.99.25-2.03.32-3.05.49-6.25,1.06-11.92-.24-17.13-3.91-1.06-.75-2.6-.92-3.95-1.12-1.24-.18-2.55-.19-3.78.01-1.5.25-3.16.48-4.37,1.3-4.89,3.3-10.16,4.68-16,3.83-2.51-.36-5.01-.9-7.53-1.04-10.63-.6-19.49,3.05-25.67,11.84-4.32,6.15-8.04,12.71-12.05,19.08-1.75,2.77-1.68,5.66-.78,8.68.7,2.34,2.08,3.57,4.58,3.7,6.53.33,12.75-.82,18.69-3.6,4.73-2.21,9.34-4.73,14.67-5.29,9.92-1.04,19.6-.41,28.77,4.03.75.37,1.93.5,2.66.17,6.81-3.06,13.81-5.1,21.38-4.64Z" style="fill: #000; stroke-width: 0px;"/>
</svg>