<?xml version="1.0" encoding="UTF-8"?>
<svg id="Layer_1" data-name="Layer 1" xmlns="http://www.w3.org/2000/svg" viewBox="0 0 627.63 900">
  <path d="M337.82,898.94c-6.09,0-12.18.12-18.26-.08-1.56-.05-3.19-.96-4.6-1.81-.96-.58-1.44-.72-2.4.02-1.06.81-2.42,1.73-3.66,1.75-14.43.28-28.88,1.63-43.28-.13-26.02-3.18-49.28-13.21-70.34-28.65-11.69-8.57-22.46-18.03-29.33-31.05-3.15-5.98-6.23-12.21-7.92-18.7-5.81-22.35-11.26-44.81-16.29-67.35-2.25-10.11-3.07-20.53-4.74-30.78-2.93-18.03-9.54-34.87-16.79-51.52-4.52-10.37-8.65-20.91-12.95-31.38-9.78-23.79-10.32-47.97-3.06-72.48,1.33-4.49,2.64-8.99,4.05-13.45.43-1.36.3-2.32-.78-3.33-21.95-20.39-39.02-44.28-51.93-71.31-10.13-21.21-20.62-42.23-28.59-64.39-11.74-32.62-16.2-66.27-15.12-100.82.9-28.84,4.39-57.43,7.51-86.06,2.09-19.2,3.25-38.43,1.27-57.72-1.51-14.75-5.25-29.01-9.1-43.27-4.17-15.46-8.28-30.92-10.45-46.82-1.03-7.52-1.51-15.07-.56-22.64,2.06-16.34,10.75-28.49,23.89-37.82,13.54-9.61,28.97-12.97,45.23-13.99,19.13-1.2,37.62,1.81,55.87,7.32,12.78,3.85,25.71,7.18,38.55,10.81,12.24,3.47,24.18,2.81,35.99-2,17.88-7.27,36.08-13.68,54.9-18.01,7.34-1.69,14.91-2.68,22.43-3.13,12.77-.76,23.7,3.65,32.44,13.25,3.84,4.21,4.15,4.25,7.94.03,10.36-11.55,23.56-14.51,38.29-13.1,12.2,1.17,23.97,4.33,35.53,8.18,12.73,4.25,25.36,8.82,37.93,13.49,10.52,3.91,21.13,4.69,31.95,1.75,17.47-4.75,34.87-9.79,52.39-14.37,23.02-6.01,46.17-6.37,69.2-.03,10.39,2.86,19.47,8.34,27.42,15.64,14.25,13.09,18.57,29.61,16.81,48.28-1.6,16.95-5.87,33.34-10.22,49.72-3.87,14.56-7.94,29.07-9.74,44.09-2.12,17.7-1.47,35.39.26,53.06,2.29,23.3,5.06,46.57,6.95,69.9,2.41,29.66,2.34,59.28-3.82,88.61-3.98,18.94-9.68,37.38-17.68,54.97-8.94,19.68-18.41,39.12-28.06,58.46-10.97,21.99-26.65,40.48-44.29,57.36-1.53,1.47-1.85,2.65-1.18,4.66,4,12.1,7.25,24.38,8.53,37.12,1.75,17.4-1.99,33.88-8.38,49.86-5.25,13.12-10.78,26.12-16.3,39.12-6.73,15.82-11.81,32.12-13.89,49.2-2.64,21.68-7.19,42.94-12.73,64.03-1.65,6.27-3.12,12.58-4.63,18.88-5.34,22.31-16.86,40.46-35.28,54.44-21.1,16.02-44.17,27.39-70.5,31.25-9.38,1.37-18.95,1.36-28.44,1.98l-.04-1.06ZM86.33,17.55c-1.39-.09-2.22-.2-3.05-.18-4.45.09-8.9.15-13.34.33-5.45.22-10.21,2.4-14.01,6.16-8.78,8.7-13.04,19.47-13.56,31.73-.42,10.2,2.77,19.54,7.22,28.53,5.05,10.2,11.75,19.32,18.68,28.29,1.02,1.32,1.76,2.78.43,4.21-1.37,1.48-2.88.76-4.18-.26-2.83-2.21-5.72-4.36-8.38-6.76-19.3-17.43-35.13-47.84-16.62-83.36.26-.49.34-1.07.7-2.22-1.46.65-2.38.98-3.22,1.46-17.18,9.72-25.87,24.17-24.31,44.17,1.42,18.27,6.08,35.68,14.75,51.89,7.8,14.59,17.64,27.43,31.94,36.33,1.58.98,3.69,1.94,2.51,4.27-1.17,2.32-3.21,1.19-4.95.57-10.05-3.61-18-10.15-25-18.01-.61-.69-1.34-1.27-2.5-2.36.18,1.3.22,1.83.33,2.34,2.62,12.17,3.88,24.5,4.36,36.93.1,2.55.93,5.26,2.1,7.56,4.84,9.53,11.64,17.51,19.92,24.26.97.79,2.12,1.48,2.77,2.48.5.77.81,2.32.38,2.89-.54.72-1.91.96-2.97,1.09-.6.07-1.29-.47-1.93-.77-7-3.31-13.15-7.78-18.36-13.52-.52-.57-1.15-1.05-2.08-1.9-.16,1.26-.29,1.93-.33,2.6-.31,4.52-.29,9.08-.98,13.54-1.22,7.8.52,15.02,3.34,22.16,5.97,15.14,15.38,27.97,26.42,39.73,1.01,1.08,2.24,2.07,2.88,3.35.43.84.36,2.4-.18,3.11-.44.58-1.91.49-2.92.48-.47,0-.95-.49-1.41-.78-12.2-7.9-22.13-17.98-29.5-30.54-.4-.68-.93-1.28-1.83-2.49-.27,1.56-.46,2.36-.54,3.18-.73,7.14-1.03,14.36-2.27,21.42-1.58,8.99.6,16.79,5.07,24.53,6.41,11.12,14.15,21.11,23.17,30.18,1.21,1.21,2.33,2.62.85,4.26-1.36,1.51-2.84.68-4.19-.25-9.49-6.59-18.09-14.12-24.77-23.64-.42-.61-.62-1.37-.92-2.07-.32.27-.64.53-.95.8-.09.44-.25.87-.25,1.31.07,9.13.02,18.27.33,27.39.07,2.15.95,4.5,2.12,6.34,2.73,4.26,5.51,8.59,8.9,12.31,6.77,7.44,13.95,14.5,20.98,21.7,1.17,1.2,2.21,2.47.94,4.06-1.29,1.6-2.79.85-4.16-.08-8.99-6.13-17.57-12.74-24.81-20.94-.38-.43-.89-.73-1.61-1.32,0,.99-.11,1.61.02,2.16,2.72,11.86,5.32,23.75,8.33,35.54.72,2.84,2.39,5.72,4.38,7.9,6.26,6.85,12.71,13.54,19.4,19.96,5.29,5.07,11.04,9.65,16.59,14.45,1.34,1.16,2.41,2.49,1.04,4.19-1.18,1.47-2.66.86-4.02.09-8.84-5.02-17.36-10.51-25.11-17.13-.61-.53-1.29-.98-1.93-1.47-.21,1.1,0,1.9.33,2.65,3.77,8.83,7.62,17.62,11.3,26.49,1.63,3.93,3.92,7.16,7.41,9.69,2.77,2.01,5.24,4.43,7.82,6.7,11.65,10.29,23.34,20.51,36.7,28.6,1.58.96,3.71,1.95,2.5,4.27-1.2,2.29-3.24,1.12-4.95.42-10.97-4.47-21.16-10.34-30.72-17.32-.7-.51-1.46-.93-2.19-1.39-.1,1.03.15,1.65.48,2.23,6.73,11.96,14.82,22.94,24.02,33.1.97,1.08,2.16,2.12,3.46,2.71,9.03,4.07,18.12,8.01,27.19,12.01.85.38,1.86.66,2.44,1.3.54.6.97,1.75.75,2.44-.22.69-1.25,1.3-2.04,1.55-.67.21-1.54-.07-2.28-.27-4.15-1.09-8.29-2.23-12.43-3.35-.74-.2-1.5-.34-2.38-.53,3.35,4.64,6.57,8.9,9.57,13.33,1.51,2.23,1.08,4.52-.59,5.65-1.61,1.1-3.61.67-5.37-1.3-.81-.91-1.41-2-2.1-3-.39.21-.77.42-1.16.64-.52,3.43-1.06,6.85-1.53,10.28-.06.41.15.99.44,1.29,2.13,2.17,2.4,5.01,2.88,7.77,1.68,9.54,4.52,18.71,9.67,26.95,3.26,5.21,7.13,10.04,10.73,15.04.89,1.23,1.46,2.56.18,3.79-1.27,1.22-2.61.71-3.76-.31-8.54-7.55-16.17-15.84-21.2-26.23-.31-.64-.67-1.27-1.31-2.45-.26,1.03-.43,1.38-.42,1.73.19,11.89,1.61,23.45,7.86,34.01,10.01,16.91,22.16,32.09,36.07,45.91.61.6,1.4,1.2,1.62,1.95.25.86.3,2.17-.2,2.75-.49.58-1.78.71-2.69.63-.69-.06-1.37-.69-1.98-1.17-5.62-4.47-11.21-8.96-16.82-13.44-.54-.43-1.1-.83-1.66-1.24-.19.81-.09,1.25.08,1.67,2.72,6.9,5.48,13.78,8.15,20.7,2.07,5.35,4.51,10.5,8.32,14.83,3.55,4.04,6.96,8.34,11.11,11.68,6.9,5.57,14.34,10.48,21.58,15.63,1.29.92,2.5,1.9,1.69,3.62-.81,1.73-2.34,1.55-3.84.94-10.16-4.15-19.86-9.12-28.32-16.24-.65-.55-1.4-.98-2.56-1.77.14,1.33.18,2.01.28,2.69,1.17,7.8,2.19,15.62,3.61,23.37.49,2.67,1.73,5.3,3.1,7.68,1.22,2.14,3.01,3.97,4.66,5.84,7.83,8.86,17.12,15.92,27.12,22.12,1.51.94,3.13,2.01,2.11,4.06-1.02,2.04-2.86,1.38-4.53.81-9.79-3.37-18.69-8.25-26.28-15.37-.47-.44-1.04-.78-2.13-1.58.26,1.5.34,2.32.54,3.11,2.25,8.77,4.36,17.58,6.87,26.28.7,2.42,2.17,4.9,3.97,6.66,9.1,8.95,19.62,15.9,31.14,21.34,1.56.73,3.07,1.64,2.47,3.67-.64,2.17-2.5,2.01-4.27,1.75-8.53-1.26-16.52-3.99-23.74-8.79-.53-.35-1.14-.59-2.28-1.17.35,1.27.48,1.92.71,2.54,5.36,14.67,14.1,26.87,26.54,36.38,2.31,1.76,4.44,3.72,7.7,3.25.62-.09,1.34.35,1.99.59,4.09,1.52,8.11,3.25,12.28,4.55,15.61,4.85,31.58,6.6,47.89,5.14,1.95-.17,4.47-.86,5.12,1.86.68,2.86-1.99,3.3-3.86,4.09-7.11,3.02-14.49,4.85-22.26,4.95-.75,0-1.49.23-2.24.35.74.84,1.44,1.13,2.16,1.37,8.77,2.88,17.79,3.97,27,3.72,6.08-.16,12.19-.57,18.25-.28,7.99.37,16.22.51,22.12,7.7,3.63-5.17,9.06-6.55,14.61-7.04,6.28-.56,12.62-.74,18.92-.52,11.38.41,22.64.14,33.57-3.52.84-.28,1.67-.61,2.51-.92-.03-.21-.05-.43-.08-.64-.86-.08-1.72-.22-2.59-.23-8.43-.07-16.34-2.34-23.99-5.67-1.37-.59-2.49-1.51-2.16-3.2.36-1.82,1.8-2.21,3.4-2.14,1.79.08,3.58.2,5.38.33,18.55,1.3,36.39-1.9,53.68-8.52,2.46-.94,4.7-2.39,7.55-2.1.8.08,1.77-.56,2.51-1.09,13.75-9.81,23.55-22.64,29.28-38.54.21-.59.28-1.23.52-2.33-1.06.52-1.63.73-2.12,1.05-7.02,4.66-14.74,7.44-23.04,8.68-1.9.28-4.19,1.08-5.06-1.41-.95-2.7,1.5-3.4,3.28-4.26,11.3-5.38,21.55-12.31,30.51-21.05,1.56-1.52,3.01-3.54,3.59-5.59,2.57-9.09,4.82-18.26,7.15-27.42.19-.74.18-1.54.26-2.31-2.16,1.18-3.79,2.6-5.45,3.98-7.01,5.81-15.04,9.74-23.62,12.6-1.54.51-3.05.53-3.82-1.16-.72-1.58.23-2.68,1.5-3.51,1.11-.73,2.24-1.42,3.36-2.13,11.14-7.11,21.27-15.38,29.07-26.15,1.62-2.24,2.73-5.12,3.24-7.85,1.46-7.82,2.49-15.73,3.68-23.6.1-.65.11-1.31.21-2.59-1.14.85-1.81,1.31-2.43,1.83-8.53,7.16-18.27,12.2-28.52,16.35-1.5.61-3.03.78-3.84-.93-.74-1.56.19-2.67,1.5-3.49.53-.33,1.08-.62,1.59-.99,6.65-4.77,13.62-9.16,19.86-14.42,7.83-6.62,14.71-14.22,18.6-24.02,3.17-7.98,6.38-15.94,9.56-23.91.15-.37.15-.8.32-1.73-.95.73-1.49,1.13-2.01,1.55-5.67,4.53-11.33,9.06-17,13.58-.55.43-1.16,1.05-1.77,1.08-.99.05-2.38.02-2.89-.59-.5-.6-.47-2.12-.05-2.92.58-1.13,1.7-2.01,2.64-2.94,13.03-12.93,24.42-27.14,33.88-42.89,3.65-6.07,6.68-12.37,7.53-19.49.61-5.11,1-10.24,1.45-15.37.06-.69-.11-1.41-.18-2.26-.47.25-.65.29-.73.4-.18.25-.34.52-.47.8-4.96,10.62-12.65,19.06-21.3,26.73-.35.31-.73.79-1.12.81-1.01.05-2.39.25-2.93-.3-.55-.55-.66-2.1-.29-2.9.6-1.31,1.71-2.4,2.65-3.54,9.24-11.16,15.5-23.74,18.05-38.08.57-3.2.71-6.57,3.17-9.14.24-.25.38-.75.33-1.09-.5-3.43-1.04-6.85-1.57-10.27-.34-.17-.68-.34-1.02-.51-.96,1.19-1.81,2.49-2.9,3.54-1.35,1.3-3.02,1.74-4.68.55-1.64-1.17-1.88-2.9-1.09-4.6.72-1.54,1.68-3,2.7-4.37,2.43-3.28,4.95-6.48,7.72-10.09-1.15.28-1.94.46-2.73.67-4.3,1.15-8.59,2.33-12.89,3.46-1.58.42-3.31.62-3.96-1.32-.7-2.08.92-2.89,2.52-3.53.29-.12.59-.22.87-.34,8.04-3.43,16.11-6.78,24.08-10.36,2.3-1.04,4.69-2.39,6.37-4.21,9.4-10.19,17.52-21.35,24.31-33.46.31-.55.5-1.16.74-1.74-1.12.15-1.82.6-2.49,1.09-9.51,6.91-19.61,12.78-30.51,17.23-.72.29-1.48.85-2.17.79-1.12-.11-2.74-.33-3.13-1.06-.39-.71.36-2.18.88-3.18.28-.54,1.14-.78,1.71-1.17,4.77-3.26,9.79-6.2,14.25-9.84,11.25-9.17,22.26-18.64,33.31-28.04,1.03-.88,1.95-2.09,2.49-3.33,4.5-10.21,8.9-20.47,13.32-30.72.25-.57.34-1.21.5-1.81-.98.15-1.56.51-2.07.94-7.79,6.69-16.37,12.23-25.29,17.28-1.5.85-3.14,1.59-4.36-.19-1.22-1.78.07-3.05,1.39-4.15,2.45-2.06,4.93-4.09,7.35-6.17,10.18-8.76,20.25-17.67,28.67-28.21,2-2.5,3.77-5.53,4.56-8.6,2.91-11.25,5.37-22.61,7.98-33.94.2-.86.2-1.76.3-2.64-.37-.28-.75-.56-1.12-.83-.38.76-.61,1.65-1.16,2.27-7.22,8.11-15.76,14.65-24.71,20.69-1.33.9-2.8,1.39-3.96-.11-1.16-1.49-.32-2.79.85-3.88,1.76-1.66,3.56-3.28,5.31-4.95,9.05-8.65,17.62-17.71,24.37-28.34,1.72-2.71,2.72-5.58,2.75-8.81.06-8.35.17-16.7.23-25.05,0-.76-.24-1.52-.36-2.28-.26-.11-.52-.22-.77-.33-.21.42-.39.86-.65,1.24-6.55,9.42-14.9,16.99-24.26,23.5-1.6,1.11-3.4,3.1-5.26.85-1.73-2.08.33-3.56,1.68-4.9,11.16-11.14,20.35-23.67,26.66-38.17.93-2.15,1.64-4.68,1.47-6.97-.74-10.12-1.83-20.21-2.82-30.31-.08-.8-.29-1.58-.59-3.11-.94,1.33-1.51,2.02-1.95,2.78-7.45,12.51-17.41,22.56-29.64,30.41-1.46.94-3.04,1.74-4.38.07-1.34-1.67-.18-3.04.99-4.29,1.97-2.11,3.96-4.2,5.88-6.36,10.57-11.9,19.36-24.91,24.21-40.23,1.14-3.6,2.05-7.46,2.03-11.2-.03-6.7-.84-13.39-1.34-20.09-.05-.62-.25-1.23-.45-2.22-.81.75-1.29,1.13-1.69,1.58-5.17,5.78-11.27,10.32-18.28,13.62-1.78.84-3.86,2.42-5.36-.04-1.43-2.33.83-3.49,2.3-4.66,8.4-6.71,15.3-14.66,20.51-24.09,1.75-3.16,2.64-6.45,2.71-10.05.24-11.98,1.7-23.82,4.22-35.53.12-.55.11-1.13.16-1.7-1.17.53-1.91,1.27-2.61,2.05-6.32,7.04-13.41,13.08-22.25,16.77-1.58.66-3.18,1.4-4.85,1.67-.86.14-2.41-.49-2.67-1.15-.32-.83.2-2.14.69-3.06.32-.61,1.22-.92,1.89-1.33,6.68-4.16,12.58-9.23,17.65-15.24,17.64-20.89,26.58-45.3,28.96-72.28,1.82-20.58-7.12-35.37-24.97-45.14-.69-.38-1.46-.6-2.85-1.15.58,1.3.81,1.93,1.12,2.52,20.19,38.71-.72,73.07-25.78,90.2-.82.56-2.75.5-3.51-.1-1.52-1.2-.68-2.78.32-4.13,3.44-4.64,7-9.2,10.27-13.95,6.4-9.31,11.91-19.12,14.44-30.26,3.6-15.83,0-30-10.32-42.5-3.59-4.34-8.34-7.04-13.74-7.79-5.45-.76-11.06-.43-16.6-.54-.55-.01-1.1.21-1.96.39.6.7.9,1.14,1.29,1.49,8.45,7.42,13.33,16.87,15.26,27.79,3.68,20.93-1.57,39.76-13.9,56.82-.96,1.32-2.18,2.21-3.78,1.29-1.62-.93-1.33-2.46-.74-3.94,1.42-3.55,2.92-7.08,4.22-10.67,4.11-11.3,7.04-22.84,6.67-34.98-.25-8.28-2.08-16.14-7.17-22.87-5.6-7.4-12.95-12.02-22.44-11.23-6.08.5-12.05,2.36-18.06,3.65-.53.11-1,.54-1.81,1,.89.8,1.52,1.35,2.12,1.92,8.06,7.57,12.63,16.76,12.72,27.94.05,6.23-2.44,11.52-6.57,16.09-1.02,1.13-2.26,1.82-3.73.99-1.49-.84-1.48-2.23-1.02-3.7.51-1.64,1.12-3.26,1.47-4.93,2.28-10.99-5.45-25.18-16.11-29.9-1.42-.63-2.92-1.66-3.75-2.93-1-1.51-1.96-1.65-3.5-1.3-6.62,1.53-13.25,2.97-19.87,4.46-.68.15-1.33.47-1.62.58,2.52,3.64,5.4,6.83,7.17,10.55,4.74,9.99,1.71,19.14-5.99,26.22-.73.67-2.61.85-3.48.37-.66-.35-.87-2.16-.71-3.23.18-1.27,1-2.43,1.51-3.66,2.85-6.96,1.54-13.24-3.48-18.63-2.04-2.19-4.52-4.12-7.12-5.62-4.86-2.81-9.69-5.75-15.61-6.19-2.74-.21-5.43-1.4-8.08-2.31-4.28-1.47-8.51-3.1-12.77-4.62-.8-.29-1.68-.36-3.02-.63.52,1.48.86,2.41,1.18,3.34,3.29,9.49.75,18.66-6.9,24.89-1.16.94-2.41,1.68-3.8.63-1.47-1.11-1.2-2.56-.41-3.99.26-.48.53-.95.8-1.43,3.08-5.38,2.87-10.74.5-16.39-2.72-6.5-8.35-10.03-13.45-14.14-.23-.19-.57-.25-.87-.33-8.23-2.13-16.47-4.26-24.71-6.36-.69-.17-1.43-.11-2.66-.2.63.98.9,1.5,1.26,1.96,3.74,4.76,6.18,10.1,7.31,16.04,1.37,7.16.41,13.98-3.04,20.43-.81,1.51-1.75,2.98-3.76,2.35-1.86-.58-1.95-2.22-1.77-3.87.06-.54.11-1.09.15-1.63.67-8.88-1.52-17.03-6.26-24.52-1.74-2.74-3.94-4.95-6.89-6.51-1.26-.67-2.52-2.01-2.99-3.33-.64-1.81-1.57-2.07-3.16-1.77-4.22.8-8.01,2.45-11.36,5.22-1.56,1.29-1.94,2.15-.39,3.9,5.88,6.64,6.73,14.71,5.89,23.1-.09.86-1.38,2.22-2.15,2.25-.95.04-2.21-.89-2.85-1.76-.7-.96-.72-2.38-1.24-3.5-2.16-4.65-4.34-9.29-6.65-13.87-.76-1.51-1.87-1.95-3.85-1.21-1.91.72-4.54.99-6.33.22-2.94-1.27-4.34-.02-5.35,2.13-2.37,5.07-4.55,10.23-6.73,15.39-.65,1.53-1.28,3.01-3.24,2.73-1.95-.28-2.29-1.86-2.38-3.52-.42-8.35.78-16.21,6.68-22.73.38-.42.32-1.88-.1-2.29-3.55-3.53-7.92-5.52-12.87-6.08-.7-.08-1.64.74-2.24,1.36-1.2,1.23-2.15,2.71-3.38,3.92-2.03,2-4.64,3.55-6.23,5.83-5.25,7.55-7.48,16.05-6.78,25.27.06.86.39,1.8.13,2.54-.35,1-1,2.35-1.82,2.61-.81.26-2.12-.47-2.97-1.09-.63-.46-.92-1.42-1.27-2.2-5.65-12.44-3.16-23.87,4.31-34.69.5-.73,1.01-1.45,1.93-2.76-1.51.16-2.33.16-3.11.35-5.84,1.41-11.62,3.16-17.52,4.21-5.44.97-9.74,3.92-13.96,6.97-8.73,6.3-11.17,17.58-6.16,27.1.25.48.68,1.02.63,1.48-.11.93-.22,2.18-.83,2.66-.62.49-1.85.32-2.79.21-.47-.05-.9-.58-1.31-.94-7.7-6.74-9.92-15.62-6.36-25.23.3-.81.47-1.67.88-3.13-2.44.85-4.26,1.46-6.07,2.13-8.05,2.99-16.04,6.17-24.67,7.16-.8.09-1.57.63-2.3,1.06-1.53.9-3.04,1.85-4.54,2.8-2.23,1.41-4.65,2.63-6.65,4.32-7.34,6.2-8.99,13.69-5.17,22.48.25.57.52,1.13.77,1.71.59,1.4.76,2.82-.65,3.79-1.39.97-2.8.47-3.75-.72-2.03-2.56-4.3-5.02-5.76-7.89-4.23-8.31-1.93-18.6,5.42-25.94.78-.78,1.52-1.62,2.32-2.48-.49-.34-.66-.54-.87-.58-7.31-1.65-14.61-3.34-21.94-4.86-.69-.14-1.68.66-2.39,1.21-1.14.88-2.01,2.25-3.27,2.84-13.5,6.36-19.96,20.72-15.55,34.84.48,1.52.67,3.02-.9,3.95-1.56.92-2.83.12-3.9-1.08-4.04-4.55-6.44-9.8-6.39-15.94.09-11.09,4.66-20.22,12.6-27.75.7-.67,1.74-.98,2.62-1.46l-.74-1.09c-.77-.29-1.51-.69-2.31-.87-4.33-.95-8.72-1.68-13.01-2.79-6.37-1.65-12.26-.51-17.8,2.71-8.86,5.15-13.37,13.29-15.21,23.09-1.81,9.63-.98,19.22,1.63,28.53,2.33,8.32,5.48,16.42,8.3,24.6.54,1.56,1.06,3.15-.66,4.17-1.72,1.02-2.92-.09-3.91-1.46-9.89-13.73-15.23-28.95-14.81-45.97.37-15.05,4.94-28.37,16.57-38.62.33-.29.53-.71,1.16-1.56Z" style="fill: #000; stroke-width: 0px;"/>
  <path d="M467.76,316.28c.2-2.35.41-4.7.6-7.06.06-.7,0-1.41.12-2.1.35-2.19,1.48-3.82,3.71-4.33,2.36-.54,4.32.46,5.27,2.53.82,1.79,1.43,3.9,1.34,5.83-.3,5.99-.8,11.99-1.56,17.93-.67,5.26-1.87,10.45-2.72,15.69-3.59,22.07-13.79,41.09-26.77,58.9-9.93,13.63-22.34,24.22-38.02,30.52-10.23,4.11-20.98,6.7-31.96,7.85-10.54,1.1-18.83-3.38-25.31-11.44-12.81-15.95-21.89-33.53-23.83-54.3-1.46-15.63-3.14-31.29-1.75-46.97.77-8.66,2.87-17.21,4.39-25.8,1.1-6.22,2.22-12.44,3.37-18.65,2.05-11.04,4-22.11,6.22-33.11,2.87-14.23,5.73-28.47,9.06-42.6,2.73-11.57,7.44-22.4,15.11-31.65,2.47-2.98,5.58-5.42,8.34-8.16,1.03-1.02,2.2-2.09,2.75-3.37,6.68-15.61,15.05-30.33,23.41-45.07,2.27-4.01,3.62-8.53,5.6-12.72,1.57-3.31,3.3-6.57,5.27-9.64,1.19-1.86,2.86-3.46,4.53-4.95,1.65-1.47,3.7-1.75,5.63-.45,1.91,1.28,1.97,3.11,1.83,5.35-1,15.35-7.03,29.75-8.34,45.04-.71,8.27-1.14,16.5.15,24.75.33,2.13,1.24,3.76,2.97,5.08,1.86,1.41,3.6,2.99,5.28,4.62,1.13,1.1,1.94,1.12,3.15.05,21.38-18.9,39.76-40.32,54.69-64.66,4.12-6.72,8.16-13.49,12.27-20.22.65-1.06,1.36-2.1,2.18-3.04,1.8-2.06,4.33-2.79,6.54-1.9,2.43.98,3.64,2.93,3.68,5.49.12,8.06-.21,16.08-2.02,23.98-2.78,12.14-8.1,23.28-13.83,34.21-9.53,18.18-19.29,36.24-28.92,54.37-4.4,8.28-8.43,16.66-10.05,26.1-.49,2.88-1.83,5.53-.71,8.5.13.35.29.69.55,1.33.89-.53,1.67-.96,2.42-1.45,10.6-6.81,19.16-15.96,28.23-24.53,9.58-9.06,19.18-18.11,28.87-27.04,2.22-2.05,4.78-3.77,7.36-5.38,2.36-1.48,4.91-.96,6.31.91,1.33,1.77,1.21,4.39-.77,6.16-10.11,9.08-16.64,20.77-23.73,32.07-10.73,17.1-19.57,35.19-27.92,53.52-3.03,6.65-4.6,13.6-5.54,20.91-.79,6.15.7,11.74,1.48,17.56.06.48.36.92.55,1.38.18-.01.36-.02.54-.04ZM459.66,346.96c2.02-3.48,3.3-6.84,2.11-10.65-.77-2.46-1.45-4.95-1.96-7.47-2.08-10.33-3.88-20.71-6.16-30.99-5.43-24.54-11.03-49.03-16.66-73.53-1.81-7.85-4.31-15.5-8.23-22.6-5.8-10.48-13.65-18.84-25.12-23.09-9.42-3.49-16.72-1.58-23.46,5.89-4.44,4.92-7.93,10.54-10.2,16.71-6.93,18.9-13.72,37.85-20.23,56.9-2.83,8.27-4.78,16.85-4.47,25.72.26,7.25-.79,14.29-2.56,21.3-1.37,5.44-2.82,10.94-3.33,16.49-1.51,16.66-1.57,33.38-.29,50.05,1,13.09,3.62,25.85,10.84,37.17,3.1,4.87,6.25,9.72,9.67,14.37,1.87,2.55,4.31,4.7,6.61,6.9.46.44,1.47.32,2.23.46.04-1,.24-2.02.06-2.98-.09-.5-.86-.86-1.27-1.33-1.69-1.94-3.64-3.71-4.99-5.87-5.59-8.9-9.52-18.4-10.25-29.06-.9-13.16.16-26.22,2.01-39.21,1.88-13.2,7.42-24.96,15.52-35.44,11.29-14.61,28.87-20.36,46.41-14.73,7.07,2.27,13.74,5.89,20.41,9.25,4.75,2.39,8.54,6.17,11.03,10.88,3.93,7.44,7.52,15.07,11.24,22.62.36.74.69,1.5,1.03,2.25ZM411.5,402.05c2.15-.34,4.34-.51,6.43-1.06,6.85-1.83,10.29-6.47,10.03-13.57-.23-6.02-2.24-11.45-6.04-16.14-3.19-3.95-7.39-5.61-12.42-4.97-.83.11-1.66.68-2.36,1.2-1.21.9-2.18,2.19-3.48,2.88-5.53,2.95-8.87,7.51-10.22,13.53-1.36,6.05.98,11.37,6.24,14.65,3.61,2.25,7.58,3.18,11.83,3.48ZM450.53,356.71c-.1-4.09-1.46-7.39-5.06-9.49-1.42-.83-2.76-.94-4.1.16-1.86,1.52-3.93,2.84-5.57,4.57-2.78,2.93-4.32,6.49-3.76,10.64.46,3.42,2.22,5.99,5.55,7.17,3.23,1.14,5.99-.01,8.31-2.26,3.07-2.96,4.45-6.68,4.63-10.8ZM384.11,417.37c1.09-.5,1.96-.89,2.82-1.29-.49-.89-.76-2.18-1.51-2.57-1.6-.85-3.41-1.36-5.19-1.74-.72-.15-1.58.42-2.38.66.31.94.34,2.33.99,2.72,1.6.98,3.48,1.5,5.28,2.22Z" style="fill: #000; stroke-width: 0px;"/>
  <path d="M160.75,316.15c.48-5.96,3.23-11.62,1.56-17.87-.61-2.3-.36-4.82-.74-7.2-1.34-8.21-5.11-15.53-8.53-22.98-9.43-20.55-20.6-40.12-32.86-59.1-4.05-6.26-8.67-12.02-14.06-17.17-.73-.69-1.46-1.45-1.95-2.31-.91-1.62-.89-3.32.29-4.84,1.23-1.58,2.95-2.18,4.8-1.48,1.51.57,3.04,1.35,4.24,2.41,8.83,7.79,17.68,15.56,26.33,23.56,7.73,7.15,15.07,14.73,22.86,21.83,4.13,3.77,8.84,6.91,13.3,10.31.41.31.93.49,1.73.9.6-2.94,2.13-5.55.08-8.35-.35-.48-.54-1.15-.61-1.75-.94-8.16-4.34-15.45-8.1-22.58-10.35-19.6-20.97-39.07-31.13-58.77-4.1-7.96-7.58-16.27-10.83-24.62-4.02-10.34-4.73-21.28-4.52-32.27.05-2.64,1.2-4.67,3.77-5.66,2.24-.86,4.79-.26,6.47,2,2.27,3.06,4.39,6.27,6.28,9.58,11.01,19.33,23.37,37.71,38.53,54.03,7.8,8.4,16.25,16.18,24.38,24.27,1.05,1.04,1.86,1.06,2.96.03,1.99-1.87,4.35-3.4,6.08-5.47,1.21-1.45,2.05-3.49,2.35-5.37,1.52-9.66,1.04-19.35-.65-28.91-1.6-9.06-3.92-17.99-5.71-27.03-.93-4.72-1.57-9.52-1.95-14.31-.1-1.26.94-3.25,2.01-3.8,1.29-.66,3.49-.7,4.75-.01,1.83,1,3.53,2.67,4.65,4.45,2.44,3.89,5.09,7.82,6.57,12.11,4.78,13.85,14.07,25.29,20,38.5,2.59,5.76,5.33,11.46,8.07,17.16.56,1.17,1.22,2.5,2.22,3.22,9.52,6.89,15.72,16.29,19.79,27.02,2.84,7.48,5.08,15.26,6.83,23.08,4.01,17.98,8.15,35.96,11.11,54.13,2.49,15.26,5.08,30.47,8.44,45.55.73,3.26,1.09,6.64,1.24,9.98.91,19.72,0,39.36-3.69,58.77-3.37,17.69-12.64,32.47-24.23,45.85-6.12,7.07-14.29,10.23-23.55,8.96-15.22-2.08-30.09-5.58-43.41-13.79-7.29-4.5-13.89-9.89-19.49-16.34-13.3-15.32-23.72-32.49-29.73-51.87-4.67-15.06-7.07-30.71-7.95-46.52-.12-2.15.1-4.4.6-6.49.73-3.02,3.06-4.62,5.58-4.29,2.43.31,4,2.31,4.24,5.4.21,2.68.41,5.37.61,8.05.32,0,.64,0,.96,0ZM167.25,346.82c.22.04.44.07.66.11.37-.82.71-1.65,1.1-2.46,3.33-6.88,6.55-13.82,10.05-20.61,2.54-4.93,6.18-9.01,10.94-11.96,7-4.33,14.32-8.03,22.26-10.24,17.18-4.78,31.79-.11,43.79,12.75,6.81,7.29,11.54,16.04,14.4,25.51,5.63,18.63,6.83,37.79,4.23,57-1.55,11.5-6.58,21.75-15.09,29.99-.33.32-.86.7-.87,1.06-.02.87.09,1.8.42,2.59.07.16,1.51.09,1.96-.3,1.78-1.5,3.69-2.97,5.06-4.81,3.58-4.82,7.01-9.76,10.31-14.77,5.27-7.99,8.48-16.79,10.26-26.2,2.89-15.31,2.45-30.77,2.41-46.22-.03-12.49-1.64-24.71-5.03-36.76-1.25-4.45-1.83-9.26-1.72-13.88.24-9.99-1.31-19.66-4.44-29.03-6.01-17.99-12.17-35.93-18.77-53.71-2.23-6-5.51-11.76-9.12-17.07-7.86-11.54-18.25-13.78-30.58-7.26-8.38,4.43-14.68,11.01-19.51,19.07-5.03,8.41-7.85,17.66-10.04,27.12-4.6,19.93-9.21,39.85-13.61,59.82-3.75,16.99-7.22,34.04-10.83,51.06-.71,3.36.67,6.24,1.75,9.2ZM215.69,402.36c3.37-.88,6.89-1.39,10.07-2.72,6.79-2.84,9.84-8.78,8.37-15.7-1.21-5.7-4.36-10.07-9.42-13.1-1.67-1-3.03-2.49-4.59-3.69-.53-.4-1.21-.75-1.85-.83-4.35-.58-8.22.49-11.39,3.62-3.44,3.4-5.39,7.63-6.53,12.24-2.97,11.93,2.9,19.48,15.34,20.18ZM177.04,355.97c-.04,5.11,2.3,10.02,5.72,12.5,4.17,3.02,9.3,1.88,11.71-2.65,1.79-3.38,1.42-6.77-.14-10.1-1.91-4.06-5.26-6.7-9.06-8.78-.71-.39-2.02-.22-2.82.17-3.84,1.89-5.28,5.27-5.41,8.87ZM243.36,417.48c1.96-.87,3.95-1.63,5.8-2.65.46-.25.72-1.37.61-2.01-.09-.5-1.01-1.33-1.36-1.24-2.21.55-4.42,1.2-6.51,2.1-.64.28-.89,1.47-1.32,2.24.82.45,1.63.9,2.78,1.54Z" style="fill: #000; stroke-width: 0px;"/>
  <path d="M313.83,838.22c-5.12.36-10.24.74-15.37,1.07-11.7.74-23.23-.15-34.54-3.44-11.93-3.46-20.07-11.26-25.68-22.07-5.79-11.17-8.78-23.22-10.59-35.53-2.17-14.82-3.65-29.75-5.72-44.59-1.65-11.82-3.62-23.61-5.68-35.37-1.85-10.55-5.98-20.33-10.59-29.93-2.7-5.63-5.11-11.39-7.83-17.01-.48-.99-1.76-2.01-2.84-2.24-6.99-1.49-13.74-3.58-20.07-6.94-1.1-.58-2.2-1.19-3.26-1.85-2.52-1.57-3.41-3.63-2.5-5.61.87-1.88,2.87-2.35,5.72-1.58,7.15,1.95,14.25,4.12,21.49,5.65,15.79,3.33,30.57.78,44-8.47,2.12-1.46,4.34-2.78,6.49-4.2,13.49-8.89,28.19-15.07,43.69-19.39,7.26-2.02,14.64-3.23,22.21-1.68.6.12,1.27.14,1.86.02,9.21-1.84,18.02.23,26.72,2.88,16.4,5,31.59,12.52,45.71,22.24,11.22,7.72,23.61,11.25,37.24,9.57,4.71-.58,9.42-1.41,14.04-2.5,4.7-1.1,9.3-2.66,13.95-4,.82-.24,1.79-.75,2.47-.51,1.3.45,2.93,1.08,3.5,2.14.5.93-.04,2.65-.58,3.81-.37.81-1.46,1.37-2.31,1.88-6.9,4.15-14.35,6.86-22.26,8.27-2,.36-3.08,1.25-3.83,3.17-1.53,3.92-3.15,7.84-5.12,11.55-8.29,15.55-13.33,32.08-15.53,49.54-2.41,19.13-4.86,38.25-7.47,57.35-1.82,13.32-4.26,26.53-9.77,38.94-1.11,2.49-2.38,4.92-3.74,7.28-5.76,10.04-14.21,16.63-25.45,19.55-12.3,3.2-24.72,4.14-37.37,2.49-3.6-.47-7.32-.07-10.98-.07,0-.15-.02-.3-.03-.45ZM308.65,613.52c-.84.04-1.3.02-1.74.09-15.67,2.54-30.77,7.05-44.76,14.56-8.85,4.75-17.19,10.43-25.79,15.66-1.15.7-.94,1.32-.32,2.26,1.15,1.76,2.29,3.55,3.22,5.42,7.11,14.29,11.64,29.41,14.41,45.11.95,5.37,1.95,10.77,3.59,15.95,2.42,7.63,7.68,12.71,15.51,14.93,5.7,1.62,11.39,3.31,17.11,4.88,1.8.49,3.66.8,5.51,1.02,2.73.33,5.02-.68,6.32-3.11,4.19-7.87,7.29-15.96,6.31-25.23-.7-6.65-.84-13.38-.93-20.08-.19-14.51-.21-29.02-.26-43.53-.03-9.24-1.41-18.56,1.82-27.94ZM319.18,613.57c.57,3.19,1.38,6.22,1.59,9.29.29,4.2.16,8.42.14,12.64-.1,17.17-.19,34.33-.35,51.5-.05,4.91.18,9.91-.65,14.71-1.59,9.25.55,17.65,4.41,25.86,2.6,5.54,4.88,6.86,10.77,5.37,7.26-1.83,14.45-3.94,21.61-6.15,5.32-1.64,9.28-5.2,11.74-10.14,1.45-2.91,2.59-6.04,3.36-9.19,1.19-4.92,1.93-9.96,2.87-14.94,2.7-14.27,7.16-27.97,13.6-40.99,1.16-2.35,2.6-4.55,3.71-6.5-22-16.02-45.5-28.28-72.81-31.47ZM323.03,807.09l.81.02c0,6.55.02,13.1-.01,19.65-.01,2.73.46,3.23,3.28,3.18,4.76-.08,9.52-.01,14.26-.27,5.13-.28,10.28-.61,15.36-1.38,11.33-1.71,19.05-8.39,24.01-18.46.45-.91.42-2.59-.14-3.38-5.86-8.28-11.84-16.48-19.5-23.25-6.92-6.11-14.58-10.62-24.01-11.64-8.94-.96-11.73.72-12.68,9.63-.92,8.58-.95,17.26-1.37,25.9ZM303.73,806.92c.1,0,.2,0,.3,0,0-6.01.19-12.02-.07-18.01-.17-3.87-.75-7.77-1.59-11.56-.98-4.41-3.41-6.09-7.91-6.01-7.93.13-15.17,2.41-21.73,6.95-10.81,7.48-18.44,17.83-25.92,28.33-.5.7-.53,2.18-.14,2.98,4.55,9.17,11.3,15.73,21.58,18.21,11,2.66,22.2,1.52,33.32,2.07,1.53.08,2.18-.81,2.18-2.37-.04-6.86-.02-13.72-.02-20.58Z" style="fill: #000; stroke-width: 0px;"/>
  <path d="M391.23,535.86c-.1,7.28-.4,13.04-2.65,18.5-2.42,5.88-6.43,9.49-12.86,11.08-5.24,1.29-10.47,3.4-15.1,6.15-6.94,4.12-13.34,9.13-19.98,13.76-1.09.76-2.17,1.54-3.3,2.22-4.16,2.5-8.62,3.07-13.31,1.89-1.13-.28-2.28-.57-3.37-.99-4.57-1.77-9.11-1.81-13.69-.02-7.63,2.98-14.4,1.52-20.78-3.57-3.89-3.1-8.3-5.54-12.43-8.35-2.05-1.39-3.97-2.96-5.95-4.45-.44-.33-.85-.73-1.34-.93-5.44-2.11-10.82-4.42-16.37-6.2-3.94-1.26-6.98-3.34-9.17-6.78-2.66-4.19-4.07-8.85-4.24-13.73-.75-20.8,2.41-40.78,13.15-59.03.91-1.54,1.92-3.04,3.03-4.44,1.59-2.01,3.48-2.5,5.08-1.5,1.6,1,1.91,2.89.84,5.22-2.17,4.76-4.65,9.4-6.47,14.28-5.15,13.85-8.34,28.12-8.1,43,.07,4.26.86,8.44,3.45,11.97.93,1.26,2.24,2.53,3.66,3.1,6.95,2.77,14.09,5.06,20.97,7.98,8.64,3.66,17.81,3.7,26.87,4.59,4.58.45,9.16.9,13.75,1.11,2.07.09,4.17-.48,6.26-.63,5.45-.41,10.89-1,16.35-1.07,9.94-.12,18.93-3.58,27.91-7.24,3.89-1.59,7.85-3.02,11.85-4.31,2.87-.92,4.53-2.92,5.76-5.45,1.96-4.04,2.52-8.39,2.35-12.78-.59-14.95-3.56-29.41-9.38-43.23-1.51-3.59-3.3-7.07-4.94-10.61-.36-.77-.97-1.64-.87-2.37.17-1.21.52-2.82,1.37-3.38.85-.56,2.62-.43,3.61.1,1.15.61,2.17,1.86,2.78,3.06,3.22,6.31,6.94,12.47,9.27,19.11,4,11.39,5.41,23.38,5.99,33.95ZM293.13,577.18c2.87,3.21,5.73,4.09,10.13,2.77,7.01-2.1,13.95-2.17,20.95-.01,1.18.36,2.45.56,3.68.57,2.67.02,4.74-1.28,6.81-3.33h-41.57Z" style="fill: #000; stroke-width: 0px;"/>
  <path d="M313.39,466.02c-2.78,3.89-6.92,5.92-11.42,7.06-8.51,2.16-12.46,7.95-13.64,16.18-.17,1.16-.25,2.34-.53,3.47-.47,1.92-1.64,3.25-3.73,3.27-1.99.02-3.08-1.27-3.71-3.02-.05-.15-.1-.3-.13-.45-2.37-9.19,3.55-22.02,12.26-25.82,5.56-2.43,11.27-4.68,17.12-6.24,2.97-.79,6.53-.42,9.58.37,4.73,1.22,9.27,3.2,13.87,4.95,10.11,3.84,16.55,15.76,14.32,26.39-.51,2.44-2.04,3.9-4.02,3.85-1.96-.05-3.31-1.61-3.8-4.07-.59-2.97-1.11-5.98-2.03-8.86-1.35-4.26-4.29-7.17-8.52-8.72-.51-.19-1.02-.38-1.53-.58-2.47-.95-5.08-1.65-7.38-2.91-2.28-1.25-4.26-3.05-6.7-4.85Z" style="fill: #000; stroke-width: 0px;"/>
  <path d="M510.98,363.36c-.31,1.5-.66,3.74-1.25,5.91-3.8,13.99-10.19,26.77-18.18,38.8-2.03,3.05-4.17,6.02-6.29,9.02-.95,1.34-2.12,2.59-3.87,1.6-1.89-1.07-1.29-2.72-.55-4.3,6.07-12.99,12.24-25.94,18.14-39.01,1.92-4.24,3.15-8.8,4.62-13.23.58-1.73,1.41-3.16,3.33-3.54,2.19-.44,4,1.39,4.04,4.76Z" style="fill: #000; stroke-width: 0px;"/>
  <path d="M119.89,358.51c2,.09,3.25,1.21,3.78,3,5.55,18.5,14.48,35.53,22.92,52.77.14.28.42.59.37.84-.21,1.19-.51,2.36-.78,3.54-1.17-.32-2.85-.26-3.42-1.02-11.84-15.91-21.6-32.87-25.87-52.51-.24-1.13-.37-2.34-.23-3.47.22-1.83,1.38-2.91,3.24-3.14Z" style="fill: #000; stroke-width: 0px;"/>
  <path d="M260.4,528.91c.46-1.95.7-3.99,1.44-5.82.96-2.38,3.23-3.51,5.46-3.07,2.39.47,3.5,2.16,3.89,4.41.15.84.21,1.71.2,2.56-.06,8.83,3.32,16.21,9.43,22.43,1.85,1.89,3.82,3.67,5.71,5.53,1.09,1.07,1.86,2.52.67,3.68-.75.73-2.46,1.16-3.48.85-13.66-4.06-22.86-16.36-23.31-30.57Z" style="fill: #000; stroke-width: 0px;"/>
  <path d="M367.31,528.85c-1.32,17.63-10.96,26-23.47,30.67-1.43.53-3.09.54-3.6-1.03-.32-.99.11-2.65.81-3.48,1.76-2.07,3.91-3.8,5.82-5.74,6.08-6.17,9.33-13.54,9.35-22.26,0-.86.04-1.72.17-2.56.33-2.17,1.36-3.86,3.63-4.38,2.35-.54,4.34.41,5.35,2.42.98,1.96,1.32,4.23,1.94,6.37Z" style="fill: #000; stroke-width: 0px;"/>
  <path d="M191.33,468.5c-.33-.13-1.03-.28-1.61-.64-11.56-7.02-22.79-14.48-32.45-24.06-1.16-1.15-2.23-2.41-3.22-3.71-1.65-2.15-1.7-4.28-.26-5.73,1.41-1.41,3.59-1.42,5.75.24,4.01,3.1,8.07,6.17,11.87,9.52,6.96,6.14,13.76,12.46,20.61,18.73.68.62,1.37,1.33,1.78,2.14.86,1.69-.24,3.43-2.46,3.5Z" style="fill: #000; stroke-width: 0px;"/>
  <path d="M436.33,468.47c-2.28.03-3.43-1.64-2.64-3.39.34-.75.94-1.45,1.57-2,10.62-9.31,21.22-18.62,31.91-27.85,2.75-2.38,5.08-2.48,6.64-.77,1.56,1.71,1.45,4.06-1.18,6.61-4.86,4.72-9.77,9.45-15.14,13.55-6.06,4.63-12.64,8.59-19.02,12.81-.76.5-1.66.8-2.15,1.03Z" style="fill: #000; stroke-width: 0px;"/>
  <path d="M131.88,328.14c-.1-2.47,1.01-4.14,2.91-4.4,2.01-.28,3.6,1.14,4.08,3.62,2.99,15.62,5.99,31.24,8.95,46.86.17.89.27,1.9,0,2.73-.53,1.69-2.52,2.03-3.76.72-.41-.44-.71-1.03-.92-1.6-5.65-15.37-9.27-31.22-11.23-47.47-.02-.15-.03-.31-.04-.47Z" style="fill: #000; stroke-width: 0px;"/>
  <path d="M495.69,328.57c-.71,4.44-1.17,9.77-2.45,14.89-2.69,10.8-5.81,21.5-8.76,32.24-.06.22-.15.44-.25.66-.61,1.41-1.65,2.68-3.16,1.88-.85-.46-1.66-2.17-1.5-3.15.83-4.99,2.07-9.92,3.01-14.9,2.05-10.8,4.01-21.61,5.98-32.42.48-2.65,1.98-4.23,3.99-4.03,1.85.18,3.1,1.8,3.13,4.84Z" style="fill: #000; stroke-width: 0px;"/>
  <path d="M159.06,458.77c.07,1.98-1.2,3.13-2.73,2.71-.71-.19-1.42-.67-1.95-1.2-8.96-9.15-17.73-18.46-24.63-29.33-1.71-2.7-3.19-5.54-4.75-8.33-.34-.61-.63-1.26-.83-1.93-.66-2.16.06-4.09,1.73-4.81,1.68-.72,3.64.02,4.68,2.03,6.36,12.27,15.08,22.9,23.4,33.82,1.32,1.74,2.72,3.42,4.03,5.17.5.67.83,1.46,1.05,1.87Z" style="fill: #000; stroke-width: 0px;"/>
  <path d="M499.43,415.62c3.19,0,4.75,2.19,3.99,4.67-.5,1.62-1.3,3.18-2.11,4.68-5.62,10.39-13.09,19.37-21.12,27.93-2.3,2.45-4.63,4.85-6.97,7.26-1.16,1.2-2.56,2.16-4.07.8-1.51-1.36-.64-2.82.36-4.14,6.31-8.34,12.75-16.59,18.86-25.07,3.09-4.29,5.53-9.04,8.4-13.49.77-1.2,2.06-2.07,2.65-2.64Z" style="fill: #000; stroke-width: 0px;"/>
  <path d="M441.28,438.85c-.58.74-1.32,2.29-2.55,3.13-4.17,2.88-8.37,5.76-12.81,8.17-6.98,3.8-14.17,7.23-21.28,10.79-.69.34-1.46.65-2.21.7-1.97.13-3.19-1.77-2.25-3.51.36-.66.97-1.21,1.57-1.69,10.21-8.17,21.12-15.25,32.89-20.96,1.07-.52,2.39-.82,3.57-.77,1.9.09,2.86,1.39,3.06,4.13Z" style="fill: #000; stroke-width: 0px;"/>
  <path d="M224.93,461.68c-.34-.1-.96-.21-1.51-.47-11.11-5.15-22.08-10.58-32.27-17.43-1.29-.87-2.56-1.81-3.64-2.91-1.31-1.33-1.72-3.02-.64-4.7,1.03-1.61,2.65-1.78,4.36-1.37.6.14,1.17.43,1.73.7,11.77,5.71,22.65,12.82,32.84,20.99.54.43,1.1.92,1.45,1.5,1.01,1.7-.08,3.61-2.31,3.7Z" style="fill: #000; stroke-width: 0px;"/>
  <path d="M307.53,206.76c0,5.38.01,10.77,0,16.15,0,1.64-.26,3.32-2.3,3.48-2.19.17-2.67-1.52-2.84-3.26-1.1-11.57-2.21-23.14-3.24-34.72-.12-1.37-.14-2.96.44-4.12.54-1.08,1.93-2.35,2.99-2.4,1.19-.05,2.66.96,3.59,1.92.66.68.8,2.01.87,3.08.44,6.61.8,13.23,1.18,19.85-.23,0-.46.01-.69.02Z" style="fill: #000; stroke-width: 0px;"/>
  <path d="M319.33,207.04c.37-6.68.64-13.38,1.15-20.05.28-3.72,1.9-5.43,4.37-5.27,2.38.15,3.88,2.17,3.57,5.87-1.01,12.02-2.21,24.03-3.39,36.04-.16,1.59-.87,3-2.77,2.81-1.84-.18-2.3-1.67-2.31-3.26-.02-5.37,0-10.75,0-16.12-.2,0-.41-.01-.61-.02Z" style="fill: #000; stroke-width: 0px;"/>
  <path d="M154.65,389.1c.79.68,2.37,1.52,3.2,2.83,2.87,4.55,5.52,9.24,8.19,13.92,2.98,5.22,5.88,10.48,8.81,15.73.34.61.91,1.26.89,1.87-.03.99-.18,2.38-.82,2.84-.64.46-2.2.35-2.91-.15-1.24-.87-2.16-2.22-3.18-3.4-7.01-8.15-12.83-17.09-17.47-26.79-.52-1.09-.95-2.37-.91-3.55.06-1.97,1.36-3.05,4.2-3.3Z" style="fill: #000; stroke-width: 0px;"/>
  <path d="M451.26,424.68c.39-.97.58-1.66.92-2.25,5.57-9.82,11.16-19.64,16.76-29.45.46-.81.99-1.6,1.62-2.28,1.34-1.47,3-2.04,4.83-1.05,1.9,1.03,2,2.81,1.54,4.69-.06.22-.15.44-.25.65-5.25,11.24-12.12,21.41-20.5,30.54-.68.75-2.17,1.05-3.26,1.01-.58-.02-1.12-1.22-1.65-1.85Z" style="fill: #000; stroke-width: 0px;"/>
  <path d="M332.67,130.6c-1.15,9.84-2.29,19.68-3.46,29.52-.19,1.59-.83,3.01-2.73,2.88-1.88-.13-2.38-1.61-2.34-3.21.26-11.62.56-23.24.88-34.85.03-1.16.25-2.34.53-3.47.47-1.93,1.62-3.32,3.76-3.12,2.15.2,3.03,1.76,3.06,3.78.05,2.81.01,5.62.01,8.43.1.02.19.03.29.05Z" style="fill: #000; stroke-width: 0px;"/>
  <path d="M303.35,143.86c0,5.07,0,10.14,0,15.22,0,.47.13,1.06-.1,1.38-.67.92-1.45,2.35-2.27,2.4-.82.05-2.15-1.15-2.5-2.09-.59-1.57-.68-3.35-.82-5.06-.87-10.96-1.74-21.92-2.52-32.89-.19-2.6,1.13-4.33,3.07-4.52,1.91-.19,3.62,1.26,3.87,3.86.71,7.21,1.22,14.45,1.82,21.67-.18.01-.36.02-.55.03Z" style="fill: #000; stroke-width: 0px;"/>
  <path d="M249.43,91.8c1-1.13,1.8-2.64,3.05-3.29,1.64-.84,3.17.21,4.16,1.68.47.7.86,1.52,1.05,2.33,2.53,11.17,5.07,22.34,7.42,33.55.2.95-.66,2.64-1.53,3.16-1.31.79-2.65-.2-3.08-1.61-3.54-11.47-7-22.96-10.48-34.45-.09-.29-.07-.62-.11-.93-.16-.15-.33-.3-.49-.45Z" style="fill: #000; stroke-width: 0px;"/>
  <path d="M362.01,127.06c1.35-6.74,2.47-12.88,3.83-18.97,1.12-5.02,2.49-9.98,3.81-14.95.26-.97.62-1.95,1.15-2.8.99-1.57,2.42-2.51,4.35-1.87,1.89.63,2.56,2.19,2.46,4.07-.04.77-.25,1.54-.48,2.28-3.21,10.51-6.43,21.02-9.65,31.52-.14.45-.19,1.06-.51,1.28-.92.67-2.03,1.72-2.91,1.59-.85-.12-1.5-1.54-2.05-2.16Z" style="fill: #000; stroke-width: 0px;"/>
  <path d="M348.89,103.85c.52-6.07,1.06-12.36,1.62-18.64.08-.93.26-1.86.5-2.76.61-2.23,2.42-3.51,4.26-3.1,1.77.4,2.88,2.15,2.61,4.39-.36,2.94-.88,5.86-1.26,8.8-.96,7.42-1.88,14.85-2.81,22.27-.05.39.03.91-.19,1.13-.8.8-1.7,1.5-2.57,2.24-.72-.88-2.01-1.72-2.07-2.63-.24-3.8-.1-7.63-.1-11.69Z" style="fill: #000; stroke-width: 0px;"/>
  <path d="M278.6,102.77c0,5.12,0,8.62,0,12.13,0,1.59-.32,3.12-2.24,3.23-1.93.12-2.44-1.39-2.64-2.94-1.37-10.42-2.73-20.85-4.05-31.28-.32-2.51.93-4.37,2.88-4.61,1.92-.23,3.76,1.2,4.05,3.68.83,7.11,1.46,14.24,2.01,19.78Z" style="fill: #000; stroke-width: 0px;"/>
  <path d="M326.02,75.93c0-3.98-.02-7.95.02-11.93,0-.93.13-1.88.36-2.77.48-1.84,1.63-3.07,3.63-3.04,2.14.03,3.15,1.47,3.58,3.39.13.6.16,1.25.12,1.86-.63,8.7-1.27,17.4-1.96,26.1-.13,1.61-.86,2.97-2.72,2.88-1.74-.08-2.31-1.43-2.41-2.94-.28-4.51-.5-9.03-.74-13.54.04,0,.09,0,.13,0Z" style="fill: #000; stroke-width: 0px;"/>
  <path d="M301.65,75.48c-.27,4.89-.5,9.09-.73,13.29-.1,1.71-.34,3.5-2.47,3.62-2.16.12-2.64-1.61-2.78-3.33-.65-8-1.27-16-1.85-24-.08-1.16-.04-2.35.15-3.49.33-1.96,1.44-3.37,3.56-3.38,2.09-.01,3.37,1.32,3.68,3.27.33,2.15.38,4.34.44,6.52.07,2.73.02,5.45.02,7.5Z" style="fill: #000; stroke-width: 0px;"/>
  <path d="M341.26,166.87c1.12-9.83,2.1-18.91,3.22-27.97.33-2.66,2.11-4.13,4.14-3.83,1.96.29,3.36,2.1,2.91,4.61-1.64,9.22-3.44,18.4-5.25,27.59-.28,1.42-1.35,2.65-2.82,2.06-1.03-.42-1.66-1.82-2.2-2.46Z" style="fill: #000; stroke-width: 0px;"/>
  <path d="M286.03,165.03c-.08,1.23.1,2.06-.21,2.59-.43.73-1.17,1.57-1.91,1.74-.62.14-1.58-.47-2.14-1.01-.45-.43-.62-1.24-.75-1.92-1.63-8.34-3.24-16.69-4.84-25.04-.09-.46-.16-.92-.2-1.39-.26-2.68.85-4.6,2.84-4.93,2.12-.35,3.94,1.19,4.27,3.95,1.06,8.83,2.01,17.67,2.95,26Z" style="fill: #000; stroke-width: 0px;"/>
</svg>