<?xml version="1.0" encoding="UTF-8"?>
<svg id="Layer_1" data-name="Layer 1" xmlns="http://www.w3.org/2000/svg" viewBox="0 0 609.98 900">
  <path d="M70.35,316.76c-4.63,2.93-8.42,5.78-12.59,7.89-10.96,5.54-22.39,5.16-33.5.82-8.17-3.19-13.08-10.26-16.38-18.05-2.26-5.34-4.01-11.09-4.83-16.82-5.19-36.45-4.31-72.61,7.03-107.97,7.13-22.22,17.98-42.42,34.93-58.78,17.37-16.77,38.43-23.78,62.35-21.47,25.75,2.49,41.93,19.61,43.77,45.56.58,8.17,0,16.23-2.7,24.05-.19.55-.21,1.15-.44,2.46,2.04-.42,3.71-.62,5.29-1.11,10.08-3.15,18.29-9.27,25.53-16.72,4.21-4.34,7.94-9.15,11.97-13.67,1.82-2.04,1.67-3.48-.03-5.8-4.49-6.11-9.07-12.28-12.55-18.98-8.32-16.02-8.44-32.69-1.45-49.17,3.36-7.91,7.68-15.44,11.95-22.93,3.71-6.52,9.22-11.41,15.34-15.79C229.37,12.14,258.21,3.83,288.67.87c34.87-3.39,68.14,3.19,99.54,18.74,5.69,2.82,10.95,6.5,16.39,9.82,7.33,4.48,13.41,10.33,17.49,17.88,4.53,8.39,9.24,16.8,12.55,25.69,6.01,16.16,4.57,32.23-3.9,47.31-3.4,6.06-7.74,11.61-11.8,17.28-1.09,1.52-1.7,2.65-.42,4.33,7.5,9.88,15.63,19.16,26.31,25.69,4.07,2.49,8.69,4.12,13.11,6.02,1.06.45,2.33.4,4.13.67-.4-1.59-.65-2.61-.92-3.63-4.05-15.03-3.6-29.8,3.46-43.85,8.08-16.08,22.2-23.25,39.42-24.58,27.09-2.09,49.56,7.63,67.25,28.15,17.17,19.92,27.52,43.26,33.13,68.73,6.94,31.5,7.18,63.22,1.88,94.98-1.57,9.39-5.28,17.88-11.86,25-3.98,4.31-8.7,6.94-14.45,8.21-14.5,3.21-27.29.2-38.41-9.72-.36-.32-.87-.47-1.62-.87-.59,1.19-1.17,2.23-1.63,3.32-6.57,15.59-7.25,31.99-6.2,48.5,1.09,17.12,4.7,33.76,11.14,49.74,1.02,2.53,2.35,3.71,5.13,4.43,3.78.98,7.68,2.58,10.8,4.9,17.2,12.79,27.77,29.44,30.22,51.22,2.31,20.57-.15,39.93-9.3,58.76-8.79,18.09-18.32,35.61-30.11,51.91-5.52,7.64-12.45,13.22-21.07,16.98-15.56,6.78-31.23,8.33-47.3,1.89-17.54-7.03-27.92-23.52-23.32-42.03.68-2.75-.76-2.82-2.79-2.84-12.67-.12-21.43,6.86-28.78,16.07-8.71,10.92-12.06,23.66-11.68,37.46.03,1.05,1,2.67,1.92,3,8.3,3.07,14.46,8.81,18.97,16.06,7.76,12.49,15.13,25.28,17.57,40.11,1.87,11.32.72,22.58-1.83,33.67-3.44,14.93-7.05,29.85-15.93,42.78-8.16,11.9-19.64,19-33.47,21.92-13.46,2.84-24.58-2.27-33.74-12.14-.82-.88-1.6-1.8-2.56-2.9-.6.67-1.08,1.04-1.34,1.53-6.54,12.58-7.17,25.77-3.73,39.27.32,1.25,1.75,2.47,2.96,3.22,10.62,6.56,18.11,15.71,22.53,27.32,2.98,7.85,2.5,15.71-.7,23.46-5.5,13.27-14.09,24.35-24.56,33.95-11.81,10.84-26.09,13.14-41.45,10.94-2.64-.38-5.26-1.15-7.9-1.28-4.47-.22-8.97-.34-13.43-.02-5.62.41-11.19,1.68-16.82,1.94-12.93.58-24.33-3.54-33.69-12.57-9.07-8.75-16.82-18.51-22.34-30-5.78-12.02-4.89-23.45,1.95-34.64,4.84-7.93,10.92-14.62,19.07-19.31,1.12-.64,2.28-1.95,2.59-3.16,3.36-13.19,2.78-26.08-3.46-38.42-.27-.54-.61-1.06-.97-1.55-.1-.14-.36-.17-.71-.33-.46.42-1.02.85-1.48,1.36-13.62,15.02-28.95,17.9-47.25,9.12-13.29-6.38-22.35-16.63-27.71-30.11-6.85-17.19-11.69-34.89-11.86-53.58-.09-9.61,1.83-18.82,6.08-27.45,3.58-7.28,7.09-14.63,11.26-21.57,4.73-7.87,11.06-14.27,19.99-17.6.92-.34,1.94-1.95,1.96-2.98.31-20-6.78-36.5-23.26-48.48-5.43-3.94-11.68-4.82-18.12-5.08-2.87-.12-2.15,1.73-1.8,3.34,2.1,9.48.82,18.4-4.53,26.59-3.5,5.36-8.16,9.55-13.81,12.48-9.89,5.12-20.43,7.75-31.56,6.31-12.08-1.57-23.45-5.38-33.1-13.15-2.61-2.1-4.96-4.66-7-7.32-15.71-20.44-27.7-42.99-37.16-66.9-6.13-15.48-5.57-31.55-3.76-47.75,2.32-20.76,13.04-36.41,29.03-48.97,3.84-3.02,8.08-5.22,13.05-5.9,1.08-.15,2.53-1.21,2.92-2.2,11.84-30.16,16.49-61,8.26-92.94-.91-3.52-2.48-6.86-3.77-10.36ZM406.22,123.05c.42.04.85.09,1.27.13.52-.69,1.12-1.33,1.54-2.07,2.09-3.66,4.14-7.34,6.19-11.02,2.87-5.16,4.39-10.68,3.75-16.58-.7-6.53-1.25-13.13-2.64-19.53-3.94-18.11-14.44-31.46-31.66-38.23-10.54-4.14-21.86-6.37-32.92-9.06-10.67-2.59-21.46-4.67-32.2-6.95-1.81-.38-3.63-.78-5.46-.94-2.67-.22-4.64-1.15-5.86-3.74-1.05-2.24-5.39-2.54-6.35-.37-1.47,3.31-4.03,3.98-7.18,4.25-2.03.17-4.01.83-6.01,1.3-6.8,1.58-13.53,3.56-20.41,4.66-12.92,2.07-25.64,4.73-38.08,8.89-19.98,6.69-32.06,20.37-36.69,40.75-1.04,4.59-1.26,9.37-2.19,14-2.68,13.34,4.43,23.56,10.61,34.1.12.21.52.26,1.18.57.45-1.02,1.14-1.96,1.25-2.97.65-5.69,1.31-11.39,1.68-17.11.29-4.52,3.7-8.23,8.92-9.14,2.95-.51,5.24,1.22,6.86,5.81.84,2.39,1.65,5.06,1.41,7.5-.63,6.4-1.17,12.93-2.95,19.06-3.44,11.86-10.46,22.05-16.88,32.45-9,14.57-22.02,23.88-38.54,28.32-23.03,6.19-43.26.31-61.24-14.56-4.09-3.38-4.94-7.43-2.95-10.25,2.05-2.9,5.36-3.24,10.3-.79,5.52,2.74,10.94,5.7,16.44,8.47,4.3,2.17,4.62,2.01,5.3-2.86,1.44-10.37-.37-20.3-4.69-29.74-3.01-6.58-8.36-10.59-15.54-11.14-9.3-.71-18.65-1.04-27.98-.94-7.78.08-14.86,3.03-21.27,7.4-10.93,7.46-20.01,16.77-26.89,28.06-13.37,21.95-19.63,45.94-20.25,71.54-.29,12.33-.5,24.67-1.45,36.96-.87,11.26,1.41,21.61,6.35,31.6,6.1,12.35,8.86,13.79,22.64,13.07,6.9-.36,11.88-3.09,15.51-8.93,1.38-2.23,1.68-3.73-.44-5.52-1.57-1.31-2.99-2.83-4.3-4.41-1.72-2.07-2.12-4.49-.79-6.9,1.34-2.43,3.67-3.43,6.28-2.87,1.84.4,3.79,1.2,5.21,2.4,2.82,2.37,5.53,4.95,7.88,7.77,9.26,11.13,14.26,24.26,16.63,38.32,6.64,39.27-.11,76.72-16.24,112.73-3.43,7.66-8.64,14.23-14.97,19.78-5.02,4.4-5.62,4.35-10.95.64-2.92-2.04-3.21-3.22-1.46-6.4,2.18-3.96,4.41-7.9,6.58-11.86.51-.92.85-1.94,1.37-3.15-.69.09-.93.06-1.07.16-.33.24-.64.51-.91.82-5.9,6.68-10.96,13.9-13.75,22.46-6.34,19.48-4.6,38.59,3.35,57.18,8.15,19.08,19.68,36.3,30.93,53.61,2.41,3.71,6.23,7.13,10.19,9.09,6.57,3.25,13.67,5.59,20.76,7.5,2.9.78,6.73.26,9.52-1.02,11.74-5.39,18.5-14.94,21.22-27.45.1-.45-.06-.95-.09-1.35-.4-.12-.6-.25-.78-.23-.5.07-1.02.16-1.49.33-6.57,2.31-12.55,5.63-17.58,10.52-3.05,2.97-5.9,3.59-8.52,1.84-2.58-1.72-3.52-5.39-1.56-8.86,1.74-3.09,3.88-6.1,6.4-8.58,13.39-13.17,29.69-18.77,48.29-17.55,22.21,1.46,37.88,12.28,45.23,33.55,2.83,8.19,4.61,16.85,5.9,25.44,2.29,15.21,1.31,30.35-3.24,45.15-1.11,3.59-2.22,4.36-5.8,3.91-3.95-.49-5.31-1.68-6.43-5.53-.32-1.09-.76-2.15-1.14-3.22-.32-.07-.64-.14-.95-.22-4.64,6.49-9.28,12.97-13.92,19.46-3.65,5.1-5.07,10.93-5.6,17.07-1.16,13.44.89,26.44,5.2,39.14,2.97,8.77,6.16,17.46,11.46,25.17,5.09,7.41,12.1,10.97,21.11,10.07,6.78-.67,12.41-4.11,17.78-7.99,1.42-1.03,1.22-2.11-.26-2.82-5.25-2.52-10.27-5.59-16.49-5.38-4.88.17-7.08-4-4.67-8.33,2.68-4.81,6.85-6.78,13.52-5.36,12.52,2.65,23.45,8.16,31.47,18.63,7.64,9.97,12.63,21.08,13.29,33.61.55,10.55.32,21.17-.25,31.73-.49,9.24-3.38,17.77-10.74,24.13-3.38,2.92-7.04,2.48-9.77-1.16-.4-.53-.8-1.05-1.36-1.78-.66.9-1.19,1.51-1.6,2.2-5.18,8.67-3.81,20.34,3.82,28.12,4.44,4.53,9.48,8.5,14.34,12.6,5.88,4.96,12.78,7.47,20.43,7.53,16.64.11,33.29.13,49.94-.01,7.06-.06,13.62-2.17,19.15-6.7,5.08-4.16,10.19-8.34,14.92-12.88,5.31-5.1,7.42-11.74,7.38-19.02-.02-4.54-2.1-8.28-4.86-12.21-.65,1.03-.9,1.47-1.18,1.88-2.74,3.97-6.82,4.68-10.08,1.16-2.82-3.04-5.42-6.48-7.25-10.18-3.15-6.37-3.68-13.41-3.71-20.46-.02-5.55.09-11.1-.12-16.65-.4-10.93,1.7-21.35,6.82-30.96,2.97-5.58,5.96-11.67,10.53-15.75,5.39-4.81,12.28-8.16,18.93-11.25,3.96-1.85,8.68-2.33,13.12-2.81,4.19-.45,7.19,2.03,9.19,5.61,2.38,4.26.09,8.47-4.76,8.32-6.11-.19-11.04,2.86-16.2,5.31-1.73.82-1.7,2-.19,3,2.57,1.69,5.12,3.46,7.86,4.85,12.66,6.43,24.77,3.41,31.87-8.85,10.65-18.38,16.66-38.18,15.74-59.7-.3-6.95-1.35-13.74-5.55-19.6-4.31-6.01-8.65-12-13.02-17.97-.49-.67-1.21-1.16-2.19-2.08-.65,2.13-1.03,3.7-1.61,5.2-1.2,3.11-3.77,4.42-7.8,4.2-2.95-.16-3.51-2.4-4.13-4.61-6.57-23.22-5.12-46.21,2.39-68.89,4.28-12.95,11.96-23.33,24.63-29.43,23.25-11.2,54.89-4.78,71.78,14.71,1.73,1.99,3.18,4.32,4.29,6.71,1.53,3.29.59,6.67-1.85,8.31-2.53,1.71-5.47,1.17-8.29-1.63-4.83-4.81-10.59-8.09-16.93-10.41-.91-.33-1.87-.49-3.3-.85.19,1.41.22,2.3.43,3.14,2.8,11.25,9.06,19.86,19.34,25.47,3.61,1.97,7.42,2.96,11.27,1.73,7.02-2.24,14.16-4.39,20.72-7.66,3.95-1.97,7.7-5.43,10.13-9.14,10.77-16.4,21.39-32.92,29.72-50.78,3.86-8.27,6.39-16.88,7.53-25.94,2.64-20.97-1.83-39.84-16.28-55.81-.67-.74-1.41-1.4-2.11-2.1-.09,1.53.32,2.57.85,3.55,2.21,4.06,4.56,8.05,6.62,12.19.62,1.25,1.03,3.14.53,4.31-1.85,4.33-7.28,5.69-10.94,2.82-8.97-7.03-15.04-16.24-19.41-26.61-9.46-22.48-14.84-45.96-16.09-70.28-.91-17.65.4-35.15,6.22-52.05,3.94-11.45,9.74-21.74,18.92-29.87,1.3-1.15,2.72-2.23,4.24-3.04,3.16-1.67,6.8-.88,8.61,1.64,1.71,2.38,1.33,5.51-1.08,8.14-1.45,1.59-3.12,3-4.48,4.67-.54.66-.99,2.09-.65,2.66,2.94,4.91,6.14,9.73,12.57,10.29,4.18.36,8.4.5,12.6.43,4.56-.07,8.05-2.32,10.34-6.24,7.05-12.04,11.38-24.66,9.98-39.01-1.04-10.72-1.27-21.55-1.31-32.33-.05-15.35-2.2-30.31-6.66-44.97-6.75-22.16-17.94-41.42-36.57-55.79-6.62-5.11-13.85-8.92-22.25-9.94-10.57-1.29-21.14-.87-31.65.73-7.18,1.1-12.31,5.1-15.16,11.71-4.15,9.61-5.99,19.63-4.26,30.1.6,3.59,1.09,3.89,4.4,2.23,6.24-3.14,12.39-6.47,18.68-9.51,3.62-1.75,6.97-1.04,8.69,1.35,1.72,2.39,1.48,5.92-1.36,8.69-2.99,2.92-6.31,5.6-9.81,7.87-33.38,21.61-74.2,8.46-91.25-19.58-4-6.58-7.95-13.21-11.62-19.98-4.64-8.56-7.97-17.61-8.53-27.46-.29-5.19-.03-10.38,3.01-14.83.92-1.35,2.89-2.9,4.3-2.83,4.47.23,10.24,3.41,9.87,9.67-.17,2.96-.11,5.99.28,8.92.47,3.5,1.4,6.93,2.13,10.39Z" style="fill: #000; stroke-width: 0px;"/>
  <path d="M279.58,635.11h50.42c.04-.64.24-1.26.09-1.78-4.11-14.35-3.23-28.89-1.65-43.45.79-7.25,1.63-14.5,2.52-21.73.24-1.93.6-3.87,1.14-5.74.9-3.09,3.33-4.76,6.18-4.46,2.73.29,4.81,2.62,4.84,5.84.02,2.45-.31,4.91-.53,7.36-1.21,13.81-2.53,27.61-3.59,41.42-.32,4.16,0,4.16,4.06,4.15,5.22-.02,9.65,2.22,13.37,5.55,3.42,3.06,6.73,6.39,9.43,10.09,9.55,13.1,8.16,26.53.37,39.86-7.1,12.14-18.38,18-31.65,20.94-7.43,1.64-15.05,3.21-22.03-.38-5.4-2.78-9.61-2.75-15.04-.05-3.79,1.89-8.82,2.14-13.2,1.82-8.32-.6-16.51-2.6-23.89-6.65-14.49-7.96-22.35-20.35-22.73-36.94-.29-12.55,11.36-28.82,23.21-33.06,2.17-.78,4.65-1.23,6.91-1.03,2.74.25,3.25-.91,3.12-3.1-.49-8.2-.85-16.41-1.54-24.59-.54-6.44-1.51-12.85-2.26-19.28-.2-1.73-.34-3.48-.38-5.22-.08-3.67,1.7-6.21,4.6-6.7,3.12-.52,5.82,1.34,6.61,5.03.88,4.11,1.56,8.28,2.02,12.46.91,8.27,1.58,16.57,2.39,24.85,1.02,10.42.5,20.73-2.1,30.9-.3,1.16-.43,2.37-.69,3.88ZM267.91,631.35c-.39-.2-.78-.4-1.17-.6-4.54,4.9-9.62,9.42-11.98,15.99-.53,1.48-.57,3.26-.4,4.86.91,8.63,5.09,15.05,13.08,18.78,8.13,3.8,16.25,7.11,24.38-.03.61-.54,1.36-.92,2.08-1.33,3.25-1.82,6.47-3.76,10.4-1.75.45.23,1.18-.17,1.77-.14,2.47.14,5.12-.18,7.34.64,2.84,1.05,5.22,3.26,8,4.56,2.36,1.1,5.11,2.52,7.49,2.23,8.08-.98,15.81-3.57,21.32-9.91,4.87-5.61,7.66-12.57,4.19-19.65-2.46-5.02-6.92-9.07-10.53-13.52-.24-.29-.82-.3-2.1-.72,1.52,4.02,2.56,7.44,4.06,10.64,3.17,6.75.51,10.35-6.38,11.08-4.97.53-10.23-.33-15.19-1.37-13.09-2.75-26.05-2.76-39.11.13-4.47.99-9.2,1.87-13.68,1.44-7.55-.73-11.03-4.09-7.14-12,1.47-2.98,2.41-6.21,3.59-9.33Z" style="fill: #000; stroke-width: 0px;"/>
  <path d="M241.78,465.8c-2.93-2.74-4.88-5.31-2.99-8.78,1.94-3.57,5.48-3.66,8.92-3.47,6.14.34,11.03,3.28,14.61,8.12,5.87,7.93,7.75,16.87,6,26.57-.13.7-.34,1.4-.57,2.08-1.91,5.7-4.46,6.44-9,2.35-2.54,2.74-2.51,5.87-1.61,9.14,2.41,8.77,10.97,11.3,17.66,5.21,1.82-1.66,3.42-3.56,5.24-5.22,1.81-1.66,3.62-3.38,5.67-4.71,4.15-2.69,7.76-.69,8.08,4.29.27,4.34.27,4.32,4.52,4.31,5.03,0,10.07-.08,15.1.1,2.25.08,3.01-.71,2.71-2.84-.09-.6-.05-1.23,0-1.85.34-4.58,3.92-6.62,7.77-4.18,2.32,1.47,4.32,3.45,6.4,5.27,2.54,2.23,4.8,4.85,7.57,6.74,4.18,2.84,9.47,1.64,12.64-2.38,3.51-4.44,3.73-10.43.45-13.75-.23.15-.51.27-.71.46-3.24,3.22-6.14,2.74-7.6-1.65-3.56-10.74-1.54-20.77,4.94-29.81,3.92-5.48,9.46-8.41,16.39-8.28,3.29.06,6.19.92,7.56,4.23,1.28,3.09-.37,5.31-2.59,7.25-.13.11-.13.37-.35,1.08,3.22,1.86,6.62,3.43,10.51,2.52,1.14-.27,2.33-1.69,2.89-2.88,2.11-4.46,1.71-9-.23-13.43-2.52-5.75-6.66-10.19-11.96-13.35-6.52-3.89-13.33-7.31-19.96-11.01-6.25-3.49-11.91-7.71-15.93-13.79-3.07-4.64-4.95-9.76-5.03-15.32-.02-1.57.94-3.95,2.14-4.51,1.18-.56,3.8.19,4.79,1.27,9.89,10.75,21.43,19.44,33.27,27.84,8.34,5.92,14.99,13.41,19.2,22.88,3.21,7.23,3.85,14.66,1.53,22.26-2.12,6.95-6.66,10.34-13.91,10.32-6.24-.02-11.98-1.64-16.86-5.73-.45-.37-1-.62-2.04-1.25-.89,2.15-1.9,4.04-2.37,6.05-.17.72.76,2.03,1.53,2.58,12.55,8.9,12.82,29.81.19,38.65-9.13,6.39-18.58,7.46-29.32,2.52-11.11-5.1-23.12-7.35-35.34-2.9-4.22,1.54-8.47,3.03-12.66,4.65-9.62,3.71-22.97.04-29.66-8.22-6.39-7.88-6.76-20.64-.73-29.48,1.14-1.67,2.51-3.47,4.22-4.4,3.12-1.69,3.02-3.74,1.62-6.34-.51-.96-1.07-1.9-1.75-3.1-1.04.75-1.77,1.26-2.48,1.79-5.53,4.15-11.81,5.68-18.6,5.02-5.28-.51-8.96-3.4-10.88-8.35-3.23-8.32-2.62-16.52,1.07-24.55,4.13-9.01,10.49-16.25,18.46-21.94,12.06-8.62,23.97-17.35,33.94-28.47.92-1.03,3.66-1.78,4.52-1.18,1.29.9,2.38,3.15,2.3,4.76-.6,10.98-6.2,19.24-15.11,25.19-5.11,3.41-10.75,6.01-16.04,9.16-4.85,2.88-9.78,5.68-14.25,9.08-4.49,3.42-7.56,8.1-8.74,13.79-.21,1-.42,2.04-.37,3.05.18,3.51.19,7.56,3.84,9.13,3.84,1.65,7.51-.38,11.42-2.6Z" style="fill: #000; stroke-width: 0px;"/>
  <path d="M141.81,331.35c.77-23.19,7.72-42.97,25.52-57.65,20.14-16.6,49.95-16.33,70.15.32,2.26,1.86,4.12,4.28,5.86,6.67,1.55,2.13,1.78,4.63.04,6.89-1.49,1.93-.04,3.27.8,4.71,6.8,11.6,11.24,23.97,12.25,37.46,2.17,28.99-20.01,57.82-47.87,62.22-32.36,5.12-60.89-16.29-65.69-49.35-.57-3.96-.76-7.97-1.06-11.26ZM153.36,328.51c.08,9.29,1.21,17.39,4.15,25.17,3.21,8.48,8.51,15.23,16.64,19.44,10.75,5.57,22.23,7.7,34.05,5.02,18.74-4.24,29.59-17.13,33.69-35.06,4.65-20.31-1.53-38.96-11.99-56.39-2.92-4.86-7.14-7.8-12.53-9.76-19.06-6.92-36.56-2.76-49.97,12.49-10.07,11.44-13.91,25.13-14.05,39.08Z" style="fill: #000; stroke-width: 0px;"/>
  <path d="M467.98,332.69c-.39,13.74-3.64,28.29-13.99,40.4-25.29,29.59-71.41,25.06-91.83-8.94-11.5-19.15-10.88-38.88-2.78-58.9,1.88-4.65,4.35-9.06,6.69-13.51.89-1.68.98-2.91.21-4.81-.7-1.73-.75-4.55.24-5.97,2.18-3.14,4.78-6.34,7.94-8.4,36.36-23.75,71.21-6.87,85.8,23.8,5.21,10.95,7.71,22.5,7.72,36.33ZM456.62,327.59c-.27-2.37-.54-6.8-1.33-11.13-.66-3.62-1.67-7.23-2.97-10.67-10.35-27.39-36.26-38.59-63.17-27.4-.47.2-1,.32-1.41.62-1.48,1.06-3.23,1.93-4.32,3.3-12.34,15.6-17.34,33.65-16.68,53.25.37,11.03,4.96,20.74,12.22,29.02,13.72,15.65,36.63,19.21,56.13,8.94,7.47-3.93,12.91-9.7,16.31-17.43,3.71-8.43,5.01-17.33,5.22-28.49Z" style="fill: #000; stroke-width: 0px;"/>
  <path d="M305.15,106.92c-8.08,0-16.23.64-24.22-.24-4.91-.54-9.82-2.93-14.28-5.34-7.06-3.8-11.38-10.04-12.67-18.01-.83-5.15-1.32-10.39-1.51-15.61-.29-8.12,2.78-15.14,9.36-19.8,5.72-4.06,11.89-7.83,18.39-10.38,22.62-8.85,44.13-5.46,64.33,7.46,9.37,5.99,13.87,14.59,12.93,25.82-.28,3.38-.59,6.75-.99,10.12-1.19,10.09-6.47,17.34-15.49,21.88-7.3,3.67-15.03,5.32-23.24,4.88-4.19-.23-8.4-.04-12.61-.04,0-.25,0-.49,0-.74ZM303.87,47.77c-6.32,1.44-13.88,2.56-21.03,4.92-13.46,4.44-16.98,11.71-13.53,25.47,1.24,4.94,4.14,8.31,8.95,9.66,3.63,1.02,7.43,1.54,11.18,2.01,5.04.63,9.95,1.42,14.26,4.42.57.4,1.88.45,2.43.06,4.59-3.17,9.83-3.93,15.17-4.55,3.35-.39,6.81-.71,9.95-1.84,2.59-.93,5.36-2.52,7.02-4.63,7.29-9.24,3.8-23.7-6.68-28.84-8.36-4.1-17.48-4.94-27.73-6.68Z" style="fill: #000; stroke-width: 0px;"/>
  <path d="M60.79,248.37c-7.98-.72-14.46-5.71-17.31-13.99-2.77-8.03-2.58-16.23-.61-24.32,1.33-5.47,3.27-10.81,5.17-16.12,2.47-6.9,6.94-12.36,13.08-16.3,3.4-2.18,6.93-4.5,10.74-5.66,6.97-2.12,15.88,5.9,15.25,13.09-.14,1.6.06,3.28.4,4.85,3.41,15.77,1.35,30.73-7.21,44.45-2.38,3.81-5.82,7.23-9.45,9.92-2.81,2.09-6.67,2.77-10.07,4.07ZM73.87,205.66c-.86-5.77-1.51-10.22-2.18-14.67-.36-2.38-1.77-2.76-3.39-1.31-2.03,1.82-4.43,3.66-5.51,6.03-1.77,3.86-2.91,8.09-3.77,12.28-1.49,7.3-1.77,14.67.56,21.92.93,2.89,1.93,3.31,4,1.1,2.35-2.51,4.98-5.21,6.06-8.33,2.03-5.83,3.04-12.02,4.23-17.01Z" style="fill: #000; stroke-width: 0px;"/>
  <path d="M520.54,202.93c.69-4.45,1.43-8.9,2.05-13.36.22-1.6.07-3.25.26-4.86.22-1.89.18-4,1.04-5.58,3.45-6.27,12.58-9.37,18.62-5.78,6.86,4.07,13.69,8.56,17.31,16.17,5.06,10.66,9.1,21.69,8.44,33.71-.24,4.53-1.15,9.26-2.9,13.41-4.66,11.02-16.74,14.26-26.7,7.59-5.56-3.72-9.13-9.08-11.96-14.99-3.86-8.09-5.85-17.27-6.17-26.32ZM552.57,217.59c-1.18-5.89-2.23-12.05-3.68-18.11-.96-3.99-3.3-7.28-6.79-9.59-2.57-1.7-3.26-1.45-3.95,1.52-2.24,9.71-2.03,19.34,1.04,28.86,1.39,4.29,3.67,8.01,7.22,10.87,2.29,1.84,3.17,1.7,3.83-1.08.95-3.96,1.51-8.02,2.32-12.47Z" style="fill: #000; stroke-width: 0px;"/>
  <path d="M310.96,867.52c-6.99-2.04-14.56,1.38-21.84-1.81-5.91-2.59-11.14-5.67-14.51-11.32-3.09-5.18-3.33-10.52-.53-15.85,3.12-5.93,7.6-10.29,14.16-12.52,3.26-1.11,6.35-2.86,9.32-4.65,5-3.01,9.76-3,14.81-.07,3.52,2.05,7.29,3.7,11.03,5.34,6.91,3.04,11.71,8.13,13.76,15.27,2.28,7.92-1.51,14.05-7.42,18.88-5.32,4.35-11.69,6.28-18.78,6.73ZM305.1,852.22c3.9-.91,7.72-1.73,11.48-2.72,2.13-.56,2.17-2.29,1.02-3.61-2.41-2.76-4.8-5.74-7.81-7.71-1.97-1.29-5.33-1.91-7.47-1.15-4.5,1.6-7.87,5.1-10.22,9.37-.81,1.47-.36,2.67,1.3,3.08,3.88.97,7.78,1.82,11.7,2.73Z" style="fill: #000; stroke-width: 0px;"/>
  <path d="M548.93,508.1c-.7,12.87-5.25,24.15-16.78,31.57-10.32,6.65-20.05,3.3-24.59-8.1-5.52-13.87-.33-31.27,11.49-40.49,9.47-7.38,28.6-4.61,29.56,12.66.07,1.33.19,2.66.32,4.36ZM533.43,509.28c-.05-1.09.08-1.86-.16-2.51-.46-1.26-1.12-2.45-1.69-3.67-1.09.77-2.54,1.31-3.19,2.35-2.12,3.39-4.3,6.82-5.8,10.5-1.37,3.36-2.03,7.05-2.66,10.65-.18,1.07.83,2.34,1.29,3.51,1.09-.5,2.39-.76,3.23-1.53,5.76-5.27,8.39-12.01,8.98-19.31Z" style="fill: #000; stroke-width: 0px;"/>
  <path d="M61.02,506.42c.39-1.98.72-5.38,1.77-8.55,2.03-6.13,6.56-9.15,12.95-10.29,7.77-1.38,13.71,1.41,18.69,6.87,9.71,10.66,12.94,22.94,8.02,36.75-4.22,11.86-14.29,15.26-24.84,8.36-11.33-7.41-15.95-18.56-16.6-33.13ZM90.46,526.23c-.64-2.64-.85-5.08-1.81-7.18-2.09-4.55-4.46-8.99-6.96-13.33-.65-1.13-2.21-1.74-3.36-2.59-.58,1.23-1.6,2.44-1.67,3.69-.41,8.34,2.5,15.49,8.38,21.37.94.93,2.44,1.3,3.68,1.93.6-1.34,1.19-2.68,1.73-3.89Z" style="fill: #000; stroke-width: 0px;"/>
  <path d="M223.59,696.02c-1.17,4.55-1.7,9.03-3.46,12.96-4.53,10.09-16.31,12.04-24.27,4.37-8.08-7.79-10.78-25.2-5.4-35.1,1.71-3.14,4.21-5.27,7.94-5.63,3.14-.31,6.38-1.26,9.4-.8,5.94.89,10,4.92,12.12,10.31,1.73,4.41,2.48,9.21,3.68,13.9ZM203.08,682.92c-4.08,5.33-3.11,16.5,1.57,21.44.77.81,2.46,1.84,3,1.53.93-.54,1.71-2.02,1.82-3.18.59-6.01-.81-11.64-3.93-16.81-.61-1.01-1.51-1.84-2.47-2.98Z" style="fill: #000; stroke-width: 0px;"/>
  <path d="M422.16,691.53c-.02,5.54-.85,11.15-3.85,16.09-1.62,2.67-3.66,5.3-6.1,7.2-7.4,5.76-17.68,3.74-21.81-4.66-5.31-10.8-4.82-21.77,1.95-31.89,3.32-4.97,8.18-7.34,14.58-6.57,11.22,1.35,14.51,5.1,15.22,19.84ZM407.03,683.22c-.41.25-.84.39-1.07.68-4.55,5.79-6.25,12.42-5.37,19.65.35,2.87,2.15,3.3,4.28,1.34,4.48-4.11,6.18-15.46,3.09-20.84-.19-.32-.58-.53-.93-.84Z" style="fill: #000; stroke-width: 0px;"/>
  <path d="M460.02,205.39c-5.43-.52-11.98-1.09-18.5-1.8-10.68-1.15-19.91-5.76-28-12.57-11.47-9.66-21.37-20.76-29.23-33.58-1.97-3.22-3.58-6.71-4.9-10.25-1.15-3.09.33-6.05,2.86-6.94,2.53-.89,4.94.79,6.46,3.83,7.91,15.82,17.45,30.46,30.99,42.13,3.88,3.35,8.44,5.35,13.41,6.64,12.02,3.13,24.09,3.85,36.34,1.56,3.11-.58,6.34-1.02,9.48-.83,1.61.1,3.71,1.38,4.54,2.76,1.22,2.01-.13,4.11-2.05,5.16-2.21,1.21-4.6,2.43-7.04,2.81-4.35.67-8.79.7-14.35,1.07Z" style="fill: #000; stroke-width: 0px;"/>
  <path d="M148.58,205.33c-4.5-.33-9.05-.35-13.47-1.1-2.52-.42-5.11-1.68-7.13-3.24-1.13-.87-1.88-3.36-1.49-4.75.33-1.19,2.45-2.42,3.92-2.64,2.28-.33,4.72-.03,7.02.39,12.89,2.31,25.67,2.52,38.46-.89,5.79-1.54,11.22-3.67,15.4-7.94,5.23-5.34,10.33-10.84,14.97-16.68,3.95-4.97,7.29-10.44,10.67-15.82,1.68-2.67,2.96-5.61,4.23-8.51,1.39-3.16,3.83-4.75,6.41-3.89,2.57.86,3.95,3.69,2.99,6.89-.7,2.34-1.68,4.65-2.88,6.78-8.44,14.93-19.72,27.48-32.87,38.38-11.25,9.32-24.73,11.97-38.81,12.66-2.46.12-4.93.02-7.39.02,0,.12-.01.24-.02.36Z" style="fill: #000; stroke-width: 0px;"/>
  <path d="M108.5,367.76c1.01,18.55-2.56,36.42-8.08,53.97-.9,2.87-1.61,6.01-4.86,7.51-1.79.83-3.8,2.29-5.28.4-.91-1.16-1.04-3.47-.63-5.03,1.78-6.75,3.97-13.39,5.85-20.11,6.76-24.27,6.12-48.55-.08-72.82-.05-.2-.11-.4-.16-.59-1.23-4.37-.42-7.01,2.39-7.78,2.75-.76,4.91,1.03,6.19,5.39,3.72,12.76,4.26,25.91,4.66,39.05Z" style="fill: #000; stroke-width: 0px;"/>
  <path d="M501.35,367.73c.25-12.24,1.03-24.43,3.93-36.38.46-1.89,1.02-3.8,1.89-5.52,1.07-2.1,2.93-3.26,5.37-2.4,2.3.82,2.85,2.77,2.68,5-.05.61-.2,1.22-.36,1.81-7.93,28.89-6.92,57.48,2.83,85.8,1.07,3.1,2.1,6.25,2.75,9.45.27,1.31-.06,3.5-.92,4.07-1.04.7-3.04.43-4.46.01-2.7-.78-3.97-3.06-4.82-5.6-5.68-16.95-9.38-34.24-8.91-52.25.03-1.33,0-2.67,0-4.01Z" style="fill: #000; stroke-width: 0px;"/>
  <path d="M337.67,178.94c-.46,6.14-.86,12.28-1.41,18.41-.24,2.62.75,3.95,3.32,4.57,5.98,1.44,12.01,2.79,17.84,4.73,4.23,1.41,8.23,3.6,12.22,5.67,1.93,1,3.12,2.82,2.37,5.15-.77,2.37-2.81,2.87-4.99,2.64-11.96-1.25-23.26-4.86-34.07-10.01-3.92-1.87-5.91-5.36-6.2-9.65-.67-10.09.07-20.1,2.31-29.97.72-3.14,2.93-4.83,5.42-4.26,2.98.68,3.7,2.95,3.59,5.64-.1,2.36-.28,4.71-.42,7.07.01,0,.02,0,.03,0Z" style="fill: #000; stroke-width: 0px;"/>
  <path d="M283.52,192.1c.08,14.55-1.52,17.17-15.31,21.69-7.58,2.49-15.42,4.15-23.17,6.12-1.07.27-2.38.51-3.34.14-1.41-.54-3.28-1.4-3.69-2.57-.41-1.18.26-3.48,1.26-4.26,2.47-1.93,5.24-3.76,8.18-4.75,6.8-2.28,13.75-4.1,20.68-5.98,5.68-1.55,5.73-1.47,5.34-7.21-.5-7.27-1.05-14.54-1.57-21.8-.07-.92-.18-1.85-.09-2.76.24-2.36,1.28-4.21,3.83-4.51,2.5-.3,4.25,1.08,4.87,3.37.83,3.06,1.45,6.2,1.84,9.35.54,4.37.79,8.79,1.16,13.18Z" style="fill: #000; stroke-width: 0px;"/>
  <path d="M336.87,348.72c-.45,6.11-.79,11.75-1.3,17.37-.29,3.24.83,5.44,3.72,7.08,6.59,3.72,11.16,9.28,14.06,16.24.39.95.74,1.92.99,2.91.86,3.39-.24,6.31-2.73,7.41-2.66,1.17-5.38-.18-7.59-3.05-3.48-4.53-6.99-9.11-11-13.15-4.27-4.3-6.98-9.06-7.4-15.11-.8-11.6.77-22.98,3.37-34.23.3-1.28,2.29-3.04,3.44-3,1.14.04,2.98,1.96,3.17,3.26.73,4.86.91,9.81,1.26,14.28Z" style="fill: #000; stroke-width: 0px;"/>
  <path d="M284.55,362.03c-.1,1.86-.17,4.63-.41,7.39-.47,5.47-3.08,9.79-6.87,13.73-4.09,4.26-7.78,8.94-11.42,13.6-2.26,2.89-5,4.18-7.62,2.93-2.51-1.19-3.64-4.05-2.6-7.45,2.32-7.64,6.64-14.02,13.58-18.04,4.34-2.52,5.33-5.69,5.06-10.38-.5-8.8-.39-17.63-.5-26.45-.01-.92-.08-2.01.37-2.72.84-1.35,1.83-3.16,3.12-3.54,2.11-.63,3.4,1.18,3.73,3.17,1.16,7.09,2.22,14.2,3.24,21.31.26,1.82.2,3.69.33,6.46Z" style="fill: #000; stroke-width: 0px;"/>
  <path d="M223.04,593.23c0,2.16.03,4.31,0,6.47-.04,1.89-.57,3.63-2.77,3.78-2.41.17-3.07-1.65-3.31-3.62-.72-5.9-1.03-11.88-2.18-17.7-3.22-16.36-12.6-28.26-27.25-36.04-1.98-1.05-4.12-1.83-6.25-2.56-3.42-1.18-5.12-3.44-4.31-6.02.85-2.72,3.88-4.11,7.17-2.52,5.25,2.53,10.55,5.15,15.28,8.52,15.41,10.97,22.47,26.46,23.32,45.07.07,1.54.14,3.08.21,4.62.04,0,.07,0,.11,0Z" style="fill: #000; stroke-width: 0px;"/>
  <path d="M386.45,593.58c.84-6.09,1.23-12.29,2.62-18.25,4.67-20.13,18.2-32.5,36.57-40.26,1.55-.65,3.9-.33,5.5.39,1.01.45,2.11,2.79,1.75,3.74-.6,1.6-2.1,3.51-3.64,4.01-7.42,2.4-13.6,6.63-19.31,11.75-10.68,9.58-14.63,22.23-16.4,35.87-.38,2.95-.44,5.94-.67,8.9-.15,2.02-.85,3.82-3.2,3.74-2.39-.08-2.86-1.96-2.86-3.98,0-1.95,0-3.9,0-5.85l-.36-.06Z" style="fill: #000; stroke-width: 0px;"/>
  <path d="M329.29,788.73c.34-18.37,4.62-33.02,14-46.02,2.7-3.74,5.47-7.45,8.44-10.98,1.42-1.69,3.18-3.41,5.16-4.21,1.33-.54,3.97-.02,4.8,1.01.82,1.02.51,3.44-.07,4.95-.5,1.3-2.06,2.22-3.2,3.25-15.81,14.41-22.4,32.4-21.02,53.59.29,4.37.21,8.79-.11,13.16-.08,1.12-1.72,2.12-2.65,3.17-1.17-1.08-3.15-2.01-3.38-3.26-1.03-5.63-1.57-11.36-1.98-14.66Z" style="fill: #000; stroke-width: 0px;"/>
  <path d="M280.8,786.94c-.65,5.18-1.26,10.37-1.96,15.55-.31,2.29-1.12,4.5-3.96,4.05-2.7-.42-2.47-2.75-2.47-4.88.02-11.13.81-22.25-1.76-33.33-2.91-12.55-9.82-22.41-18.76-31.19-1.24-1.22-2.97-2.21-3.64-3.68-.65-1.44-.92-3.91-.11-4.93.83-1.03,3.26-1.31,4.85-1.05,1.34.22,2.66,1.52,3.67,2.63,12.99,14.36,22.17,30.53,23.56,50.32.15,2.15.23,4.3.34,6.45.08.01.15.03.23.04Z" style="fill: #000; stroke-width: 0px;"/>
  <path d="M113.05,287.83c1.49-4.33,2.51-8.89,4.54-12.94,8.16-16.35,20.51-28.3,37.88-34.65.96-.35,2.02-1.01,2.91-.85,1.27.22,2.91.78,3.49,1.74.48.79-.06,2.56-.68,3.55-.6.97-1.86,1.56-2.88,2.24-5.03,3.36-10.21,6.53-15.1,10.09-10.61,7.72-16.59,18.51-19.82,31-.1.4-.17.8-.26,1.2-.88,3.76-2.71,5.55-5.34,5.2-2.61-.34-4.08-2.65-4.74-6.58Z" style="fill: #000; stroke-width: 0px;"/>
  <path d="M496.09,287.16c0,1.42.05,1.94,0,2.45-.26,2.48-1.35,4.44-4,4.75-2.85.34-4.31-1.51-5.05-3.99-.82-2.75-1.41-5.58-2.34-8.29-3.92-11.47-10.9-20.62-21.02-27.31-4.45-2.94-8.97-5.8-13.44-8.72-1.8-1.18-3.53-2.62-2.36-5.01,1.26-2.57,3.52-1.9,5.64-1.15,18.77,6.68,31.69,19.63,40,37.47.9,1.94,1.47,4.05,2.01,6.13.39,1.48.47,3.04.55,3.66Z" style="fill: #000; stroke-width: 0px;"/>
  <path d="M338.01,240.92c-6.84.6-13.68,1.18-20.52,1.8-2.12.19-4.25.33-5.35-1.94-1.17-2.42.31-4.09,1.97-5.59,4.49-4.04,9.93-6.09,15.79-5.84,6.82.29,13.62,1.38,20.38,2.44,2.95.46,4.54,2.83,4.14,5.23-.49,2.96-2.65,4.04-5.32,4.13-3.69.13-7.38.03-11.07.03l-.02-.25Z" style="fill: #000; stroke-width: 0px;"/>
  <path d="M274.2,229.17c8.87-.05,14.69.86,19.75,4.56.99.72,2.19,1.44,2.71,2.46.68,1.34,1.45,3.27.94,4.39-.5,1.11-2.55,2.2-3.89,2.15-11.08-.39-22.15-1.01-33.21-1.64-2.57-.15-4.59-1.27-5-4.11-.36-2.46,1.17-4.63,4.17-5.24,5.72-1.16,11.5-2.05,14.54-2.57Z" style="fill: #000; stroke-width: 0px;"/>
  <path d="M472.79,236.91c16.96.69,28.33,9.29,32.76,23.98.27.88.57,1.79.63,2.69.14,2.33-.53,4.37-2.95,5.19-2.44.83-4.21-.39-5.44-2.38-.8-1.3-1.29-2.8-2.02-4.15-3.62-6.74-8.93-11.71-15.83-15-2.69-1.28-5.49-2.41-7.94-4.07-1.09-.74-2.12-2.77-1.87-3.93.25-1.14,2.15-1.92,2.66-2.33Z" style="fill: #000; stroke-width: 0px;"/>
  <path d="M103.03,264.54c.92-9.46,9.82-20.94,19.7-24.48,4.12-1.47,8.52-2.3,12.86-2.92,1.31-.19,3.5.92,4.15,2.08,1.08,1.93-.51,3.41-2.3,4.32-2.74,1.39-5.5,2.76-8.25,4.13-7.58,3.75-12.93,9.6-16.35,17.29-.25.56-.5,1.14-.84,1.64-1.27,1.85-3.14,3.18-5.2,2.1-1.55-.81-2.52-2.73-3.75-4.16Z" style="fill: #000; stroke-width: 0px;"/>
  <path d="M293.46,760.36c-5.58.01-9.36-3.05-10.1-8.6-.86-6.39-1.1-12.86-1.65-19.29-.2-2.35-.52-4.68-.83-7.02-.44-3.27.64-5.43,3-5.85,2.38-.43,4.38,1.18,4.89,4.37,1.27,7.98,2.48,15.98,3.52,24,.31,2.42,1.14,3.76,3.68,3.98,2.29.19,4.78.58,4.96,3.54.18,3.08-2.39,3.74-4.67,4.41-1.07.32-2.21.38-2.79.47Z" style="fill: #000; stroke-width: 0px;"/>
  <path d="M316.78,760.64c-1.86-.53-3.9-.75-5.51-1.7-1.11-.65-2.3-2.38-2.2-3.51.1-1.12,1.74-2.15,2.8-3.11.32-.29.98-.3,1.48-.3,3.18,0,3.99-1.84,4.33-4.71.91-7.62,2.16-15.21,3.28-22.81.1-.71.24-1.43.52-2.08.84-1.99,2.44-3.55,4.5-2.65,1.37.6,3.1,2.64,3.02,3.93-.62,9.61-1.41,19.23-2.65,28.77-.66,5.11-4.64,7.95-9.58,8.17Z" style="fill: #000; stroke-width: 0px;"/>
  <path d="M472.55,309.53c.17-3.53,2.97-6.1,6.47-5.94,3.56.15,6.14,3.16,5.89,6.85-.25,3.6-3.29,6.44-6.68,6.24-3.31-.2-5.87-3.41-5.69-7.14Z" style="fill: #000; stroke-width: 0px;"/>
  <path d="M131.41,316.68c-3.36.08-6.32-2.89-6.46-6.49-.15-3.61,2.63-6.59,6.17-6.62,3.48-.03,6.2,2.66,6.26,6.19.06,3.71-2.63,6.84-5.96,6.91Z" style="fill: #000; stroke-width: 0px;"/>
  <path d="M500.57,184.47c0-3.45,2.86-6.28,6.25-6.2,3.45.09,6.2,2.9,6.18,6.33-.02,3.38-2.66,6.15-5.92,6.21-3.53.06-6.52-2.84-6.51-6.34Z" style="fill: #000; stroke-width: 0px;"/>
  <path d="M109.34,184.3c.08,3.54-2.76,6.47-6.33,6.51-3.28.04-6-2.67-6.06-6.03-.07-3.58,2.75-6.5,6.31-6.5,3.29,0,6.01,2.68,6.09,6.02Z" style="fill: #000; stroke-width: 0px;"/>
  <path d="M192.4,253.69c.05,3.18-2.62,5.81-5.88,5.81-3.24,0-5.82-2.59-5.83-5.85,0-3.29,2.54-5.85,5.82-5.83,3.13.01,5.84,2.71,5.89,5.88Z" style="fill: #000; stroke-width: 0px;"/>
  <path d="M423.41,247.79c3.29.03,5.84,2.61,5.82,5.86-.03,3.27-2.61,5.84-5.85,5.84-3.28,0-5.85-2.57-5.82-5.83.03-3.23,2.69-5.9,5.85-5.87Z" style="fill: #000; stroke-width: 0px;"/>
  <path d="M161.33,261.58c-.06-3.58,2.38-6.27,5.69-6.26,3.07,0,5.51,2.33,5.61,5.33.11,3.33-2.94,6.53-6.33,6.65-2.97.11-4.91-2.12-4.96-5.72Z" style="fill: #000; stroke-width: 0px;"/>
  <path d="M476.66,290.23c-.05,3.27-2.49,5.78-5.57,5.75-3.26-.04-5.96-2.9-5.89-6.24.07-3.17,2.63-5.64,5.76-5.56,3.18.08,5.75,2.82,5.7,6.06Z" style="fill: #000; stroke-width: 0px;"/>
  <path d="M448.52,261.49c-.02,3.64-1.93,5.89-4.93,5.81-3.32-.09-6.25-3.07-6.29-6.4-.04-3.18,2.48-5.64,5.7-5.57,3.24.07,5.54,2.64,5.52,6.16Z" style="fill: #000; stroke-width: 0px;"/>
  <path d="M138.87,295.97c-3.07.07-5.57-2.44-5.63-5.67-.06-3.27,2.47-6.03,5.63-6.12,3.12-.09,5.76,2.38,5.85,5.49.1,3.29-2.63,6.22-5.85,6.3Z" style="fill: #000; stroke-width: 0px;"/>
  <path d="M237.98,105.07c3.15-.03,5.8,2.43,5.89,5.47.09,3.13-2.35,5.6-5.6,5.66-3.39.06-6.02-2.18-6.08-5.19-.07-3.17,2.61-5.92,5.79-5.95Z" style="fill: #000; stroke-width: 0px;"/>
  <path d="M517.82,301.48c2.96.08,5.33,2.64,5.28,5.72-.05,3.16-2.82,5.89-5.96,5.88-2.97,0-5.27-2.52-5.23-5.71.04-3.23,2.8-5.97,5.91-5.89Z" style="fill: #000; stroke-width: 0px;"/>
  <path d="M377.65,111.07c-.08,3.02-2.71,5.24-6.1,5.14-3.22-.1-5.67-2.61-5.57-5.72.1-2.99,2.81-5.44,5.97-5.4,3.23.04,5.78,2.72,5.7,5.99Z" style="fill: #000; stroke-width: 0px;"/>
  <path d="M92.72,313.07c-3.1.02-5.87-2.68-5.95-5.82-.09-3.13,2.42-5.77,5.5-5.77,3.02,0,5.77,2.85,5.77,6,0,3.09-2.37,5.58-5.31,5.59Z" style="fill: #000; stroke-width: 0px;"/>
  <path d="M527.89,293.51c-2.96.02-5.21-2.3-5.18-5.33.03-3.38,2.81-6.23,6.01-6.16,2.9.07,5.19,2.4,5.27,5.38.08,3.18-2.83,6.1-6.1,6.11Z" style="fill: #000; stroke-width: 0px;"/>
  <path d="M87.16,288.34c-.06,3.04-2.35,5.26-5.32,5.16-3.16-.11-5.88-2.87-5.89-5.97,0-3.11,2.37-5.55,5.39-5.54,3.18.02,5.88,2.97,5.82,6.34Z" style="fill: #000; stroke-width: 0px;"/>
  <path d="M503.32,241.97c-3.04-.07-5.36-2.35-5.34-5.22.02-3.1,2.81-5.71,6.08-5.7,2.98.01,5.29,2.31,5.29,5.25,0,3.16-2.76,5.75-6.03,5.67Z" style="fill: #000; stroke-width: 0px;"/>
  <path d="M111.9,236.8c-.01,2.86-2.35,5.11-5.38,5.18-3.26.07-5.98-2.56-5.95-5.74.03-2.97,2.32-5.2,5.32-5.19,3.27.02,6.02,2.65,6.01,5.75Z" style="fill: #000; stroke-width: 0px;"/>
  <path d="M122.43,192.23c-.02,3.06-2.41,5.48-5.44,5.52-3.07.04-5.45-2.32-5.48-5.42-.03-3.23,2.43-5.75,5.58-5.7,3,.04,5.37,2.52,5.34,5.6Z" style="fill: #000; stroke-width: 0px;"/>
  <path d="M492.99,197.75c-3.15,0-5.63-2.59-5.54-5.75.09-3.03,2.61-5.44,5.6-5.37,3,.08,5.38,2.56,5.37,5.61,0,3.08-2.41,5.52-5.43,5.51Z" style="fill: #000; stroke-width: 0px;"/>
  <path d="M155.79,272.33c.05,3.21-2.37,5.87-5.39,5.91-2.96.04-5.35-2.43-5.35-5.53,0-3.08,2.32-5.6,5.25-5.72,3.02-.12,5.45,2.23,5.5,5.34Z" style="fill: #000; stroke-width: 0px;"/>
  <path d="M464.85,272.69c0,3.08-2.41,5.57-5.37,5.54-3.02-.03-5.48-2.7-5.41-5.89.06-2.99,2.29-5.29,5.2-5.37,3.01-.08,5.59,2.56,5.59,5.71Z" style="fill: #000; stroke-width: 0px;"/>
  <path d="M518.41,441.81c.21-2.99,2.36-5.03,5.19-4.91,3.13.13,5.41,2.98,5.14,6.42-.24,3.07-2.65,5.24-5.51,4.96-2.88-.28-5.05-3.18-4.83-6.46Z" style="fill: #000; stroke-width: 0px;"/>
  <path d="M91.48,442.24c0,3.33-2.34,6.04-5.26,6.06-2.85.02-5.09-2.36-5.12-5.41-.03-3.32,2.28-5.92,5.3-6,2.9-.08,5.07,2.21,5.08,5.35Z" style="fill: #000; stroke-width: 0px;"/>
  <path d="M391.26,612.07c2.97,0,5.31,2.32,5.26,5.21-.05,2.93-2.58,5.4-5.56,5.43-2.93.03-5.26-2.29-5.25-5.25,0-2.93,2.54-5.39,5.55-5.39Z" style="fill: #000; stroke-width: 0px;"/>
  <path d="M224.12,617.67c-.07,2.96-2.44,5.18-5.39,5.03-3.01-.14-5.38-2.66-5.31-5.63.07-2.94,2.42-5.12,5.42-5.01,3.05.11,5.35,2.55,5.28,5.6Z" style="fill: #000; stroke-width: 0px;"/>
  <path d="M450.71,533.36c.03,2.97-2.25,5.46-5.03,5.48-2.89.02-5.18-2.32-5.17-5.3.01-3.01,2.27-5.32,5.17-5.3,2.77.02,5,2.3,5.03,5.11Z" style="fill: #000; stroke-width: 0px;"/>
  <path d="M164.15,528.25c2.89-.03,5.2,2.27,5.23,5.25.04,2.96-2.25,5.35-5.13,5.35-2.83,0-5.05-2.39-5.04-5.43,0-2.9,2.14-5.13,4.93-5.17Z" style="fill: #000; stroke-width: 0px;"/>
  <path d="M391.88,641.46c-2.82,0-5-2.26-4.94-5.12.06-2.81,2.28-5.03,5.09-5.08,2.83-.05,5.09,2.15,5.11,4.98.02,2.92-2.3,5.22-5.26,5.23Z" style="fill: #000; stroke-width: 0px;"/>
  <path d="M292.04,777.35c-3.01-.03-5.19-1.94-5.14-4.5.05-2.51,2.16-4.33,4.99-4.29,3.54.05,6.64,2.23,6.64,4.66,0,2.51-2.61,4.16-6.5,4.12Z" style="fill: #000; stroke-width: 0px;"/>
  <path d="M317.86,777.35c-3.72.06-6.31-1.44-6.54-3.78-.24-2.44,2.28-4.5,6.02-4.93,2.9-.33,5.45,1.4,5.7,3.88.26,2.61-2.06,4.78-5.17,4.83Z" style="fill: #000; stroke-width: 0px;"/>
  <path d="M222.93,636.5c0,2.86-2.24,5.07-5.06,4.98-2.83-.08-5.01-2.28-5.07-5.09-.06-2.88,2.07-5.11,4.91-5.15,2.9-.04,5.22,2.3,5.22,5.25Z" style="fill: #000; stroke-width: 0px;"/>
  <path d="M148.25,533.58c0,2.82-2.26,5.05-5.08,4.99-2.72-.05-4.83-2.24-4.77-4.94.06-2.66,2.25-4.79,4.94-4.82,2.75-.03,4.9,2.06,4.9,4.77Z" style="fill: #000; stroke-width: 0px;"/>
  <path d="M466.64,538.57c-2.83,0-5.08-2.25-5.04-5.04.04-2.69,2.23-4.76,4.97-4.71,2.72.05,4.85,2.18,4.87,4.87.01,2.72-2.11,4.88-4.8,4.89Z" style="fill: #000; stroke-width: 0px;"/>
  <path d="M377.8,125.23c2.7.06,4.87,2.26,4.88,4.96,0,2.76-2.21,4.86-4.98,4.73-2.69-.13-4.8-2.42-4.71-5.11.08-2.64,2.18-4.63,4.82-4.58Z" style="fill: #000; stroke-width: 0px;"/>
  <path d="M232.09,125.21c2.6-.04,4.77,2.03,4.83,4.59.06,2.83-2.23,5.16-5.03,5.12-2.61-.04-4.67-2.12-4.67-4.74,0-2.66,2.22-4.93,4.88-4.97Z" style="fill: #000; stroke-width: 0px;"/>
  <path d="M77.64,464.61c-2.44.08-4.53-1.86-4.66-4.31-.15-2.65,1.8-4.79,4.41-4.84,2.58-.05,4.69,2.02,4.71,4.61.01,2.42-1.99,4.47-4.45,4.54Z" style="fill: #000; stroke-width: 0px;"/>
  <path d="M373.19,723.05c0,2.49-1.98,4.51-4.47,4.53-2.47.02-4.49-1.99-4.52-4.48-.02-2.42,2.04-4.52,4.48-4.56,2.44-.04,4.49,2.02,4.5,4.5Z" style="fill: #000; stroke-width: 0px;"/>
  <path d="M532.28,455.45c2.44-.07,4.51,1.86,4.64,4.33.13,2.57-1.91,4.78-4.46,4.83-2.41.05-4.54-1.94-4.67-4.34-.13-2.54,1.92-4.75,4.49-4.82Z" style="fill: #000; stroke-width: 0px;"/>
  <path d="M245.66,722.98c.06,2.45-1.93,4.54-4.39,4.6-2.52.06-4.49-1.85-4.56-4.4-.06-2.44,1.96-4.6,4.36-4.65,2.4-.05,4.53,2.01,4.59,4.44Z" style="fill: #000; stroke-width: 0px;"/>
  <path d="M228.31,719.78c-2.48-.07-4.39-2.14-4.26-4.63.12-2.37,2.04-4.21,4.39-4.21,2.49,0,4.46,1.99,4.42,4.48-.03,2.51-2.03,4.42-4.55,4.35Z" style="fill: #000; stroke-width: 0px;"/>
  <path d="M385.82,715.48c-.04,2.49-2.1,4.42-4.59,4.31-2.37-.11-4.21-2.01-4.23-4.37-.02-2.47,1.97-4.47,4.45-4.47,2.44,0,4.41,2.04,4.37,4.54Z" style="fill: #000; stroke-width: 0px;"/>
  <path d="M276.3,814.73c-.05,2.26-1.87,4.06-4.13,4.09-2.4.02-4.27-1.89-4.21-4.3.06-2.27,1.87-4.08,4.11-4.11,2.35-.02,4.28,1.94,4.23,4.32Z" style="fill: #000; stroke-width: 0px;"/>
  <path d="M266.65,823.62c2.41.07,4.22,2,4.11,4.38-.1,2.26-1.93,3.94-4.24,3.91-2.4-.03-4.23-1.98-4.09-4.37.13-2.32,1.93-3.99,4.22-3.92Z" style="fill: #000; stroke-width: 0px;"/>
  <path d="M341.9,814.75c-.08,2.4-2.08,4.22-4.45,4.06-2.24-.15-3.99-2.07-3.92-4.3.07-2.32,2.15-4.21,4.49-4.07,2.22.13,3.96,2.06,3.88,4.31Z" style="fill: #000; stroke-width: 0px;"/>
  <path d="M343.42,831.92c-2.26.07-4.23-1.72-4.34-3.94-.12-2.3,1.88-4.36,4.24-4.37,2.32-.01,4.09,1.75,4.12,4.09.03,2.3-1.74,4.15-4.01,4.22Z" style="fill: #000; stroke-width: 0px;"/>
  <path d="M165.46,325.4c.16-14.51,4.95-27.06,17.38-35.18,5.16-3.37,11.66-4.9,17.74-6.55,4.02-1.09,8.06.66,11.14,3.39,12.31,10.93,21.22,24,23.8,40.6,1.25,8.03-.2,15.83-4.19,22.96-6.51,11.64-16.35,18.17-29.91,17.52-14.32-.69-25.37-7.04-31.53-20.51-2.93-6.41-4.44-14.4-4.44-22.23ZM179.87,342.97c3.19-9.22,9.56-14.07,18.51-15.68,8.82-1.59,16.87.08,24.24,5.9-.11-3.13-.37-6.05-1.17-8.81-2.58-8.93-7.66-16.53-13.14-23.88-3.78-5.06-9.55-6.65-15.49-4.39-4.57,1.74-8.16,4.78-10.81,8.81-7.56,11.5-7.39,23.76-3.3,36.34.14.43.52.78,1.16,1.71Z" style="fill: #000; stroke-width: 0px;"/>
  <path d="M445.22,325.78c-1.34,6.29-2.08,12.79-4.13,18.84-5.54,16.42-21.99,25.91-39.24,23.21-15.17-2.37-27.23-16.57-27.6-33.3-.12-5.24.69-10.73,2.29-15.72,3.76-11.75,10.73-21.67,19.64-30.15,5.38-5.12,11.5-6.19,18.77-3.76,19.41,6.51,29.55,20.21,29.47,40.71.26.06.53.11.79.17ZM429.98,342.89c.63-.74.92-.94,1.01-1.2,4.52-13.33,4.58-26.22-4.09-38.09-3.04-4.16-7.11-7.19-12.29-8.16-3.69-.69-7.87-.81-10.41,2.14-7.62,8.84-13.99,18.5-16.53,30.17-.37,1.7-.37,3.49-.54,5.24.23.13.46.26.7.39,6.86-6.16,14.89-7.63,23.59-6.11,8.97,1.56,15.4,6.35,18.56,15.62Z" style="fill: #000; stroke-width: 0px;"/>
</svg>