<?xml version="1.0" encoding="UTF-8"?>
<svg id="Layer_1" data-name="Layer 1" xmlns="http://www.w3.org/2000/svg" viewBox="0 0 635.16 900">
  <path d="M596.89,358.6c.54,2.55,1.07,4.51,1.36,6.49,1.36,9.39-1.66,17.87-5.81,26-1.3,2.54-.88,3.86,1.17,5.6,8.81,7.47,16.27,16.09,21.92,26.23,7.32,13.13,7.86,27.45,7.24,41.92-1.81,42.69-11.07,83.86-25.77,123.85-5.29,14.39-11.01,28.63-16.96,42.76-2.28,5.41-5.61,10.41-8.72,15.43-2.42,3.91-5.96,6.71-10.5,7.83-6.1,1.5-12.2,3.35-18.41,4-10.61,1.1-21.29,1.47-31.96,1.93-2.58.11-3.72,1.05-3.98,3.49-1.03,9.64-2.73,19.27-3.01,28.93-.79,26.98-.69,53.98-1.55,80.95-.41,12.77-2.16,25.51-3.41,38.25-.36,3.67-1.26,7.28-1.57,10.95-.76,8.96-3.75,17.17-7.54,25.24-5.36,11.42-14.74,18.15-25.62,23.53-12.74,6.29-25.99,9.45-40.26,8.19-12.71-1.12-25.17.2-37.33,4.38-11.1,3.81-22.41,7.04-33.46,10.99-10.94,3.91-21.94,5.74-33.45,3.44-.94-.19-1.97-.27-2.89-.07-13.08,2.84-25.32-.24-37.6-4.62-12.42-4.43-25.11-8.13-37.74-11.95-10.21-3.09-20.74-2.77-31.22-2.06-20.06,1.37-37.52-5.54-52.99-17.48-10.02-7.73-15.01-19.24-17.22-31.3-3.74-20.42-6.66-40.98-6.71-61.88-.06-26.21-.58-52.42-1.35-78.62-.26-8.89-1.92-17.74-2.9-26.61-.3-2.68-1.56-3.62-4.37-3.75-11.73-.54-23.48-1.04-35.14-2.3-5.8-.63-11.64-2.35-17.05-4.6-3.28-1.36-6.35-4.23-8.46-7.18-3.37-4.7-6.33-9.83-8.64-15.13-15.58-35.78-28.64-72.41-35.99-110.86-4.06-21.21-6.43-42.58-6.9-64.21-.49-22.74,9.02-40.68,25.11-55.8,1.63-1.53,3.24-3.09,4.99-4.47,1.6-1.26,1.66-2.43.83-4.26-1.83-4.06-3.59-8.19-4.94-12.42-1.97-6.13-2.16-12.4-.28-18.65.16-.52.16-1.09.28-2.03-1.28.21-2.28.39-3.29.54-5.08.79-10.13,1.96-15.24,2.28C6.86,362.33-.1,356.15,0,343.41c.06-7.6.88-15.42,2.83-22.74,6.16-23.07,12.93-45.97,19.65-68.89,5.24-17.88,10.41-35.8,16.29-53.48,2.93-8.79,7.17-17.18,11.25-25.53,1.67-3.42,4.27-6.5,6.86-9.36,8.72-9.63,19.69-13.48,32.53-11.83,2.5.32,4.19-.28,6.25-1.88,8.38-6.53,12.63-15.68,16.19-25.14,5.02-13.35,9.54-26.89,14.12-40.4,7-20.67,17.72-38.84,35.13-52.47,4.18-3.27,8.72-6.21,13.42-8.7,14.08-7.46,28.37-14.6,43.91-18.51C236.6-.08,255.06-.74,273.68.91c10.83.96,21.7,2.02,32.55,1.93,19.77-.16,39.53-.25,59.29-2.1,25.4-2.37,50.2.78,73.61,11.81,11.33,5.34,22.94,10.14,33.05,17.71,17.89,13.39,29.11,31.46,36.36,52.28,5.04,14.48,10.02,28.98,15.21,43.41,1.34,3.73,3.34,7.22,5.05,10.81,2.79,5.84,7.27,10.25,12.2,14.24.77.62,2.19.82,3.22.67,17.52-2.53,30.41,4.61,39.7,19.07,7.1,11.05,11.44,23.36,15.25,35.8,8.5,27.76,16.97,55.52,24.97,83.42,4.01,13.98,7.18,28.21,10.25,42.43.98,4.56.89,9.5.46,14.19-.87,9.48-6.63,14.92-16.16,14.89-5.96-.02-11.92-1.35-17.87-2.11-1.13-.15-2.24-.43-3.93-.77ZM571.58,398.8c-.09,1.02-.24,1.59-.18,2.13.99,9.07-1.69,17.49-4.56,25.88-.62,1.81-1.74,3.2-3.86,2.69-2.14-.51-2.42-2.28-2.17-4.17.37-2.89.99-5.77,1.1-8.66.13-3.38.21-6.83-.36-10.14-1.58-9.09-9.36-15.25-18.51-14.96-3.01.09-6,.44-9.01.55-3.56.14-5.86-1.21-6.55-3.66-.68-2.43.65-4.84,3.74-6.5,5.32-2.84,11.01-4.25,17.04-4.41,10.61-.29,20.28,2.93,29.45,7.94,1.57.86,2.95,1.72,3.65-.98,1.43-5.55,3.2-11.01,4.43-16.6.64-2.88.55-5.95.54-8.93,0-2.24-1.34-3.41-3.63-3.76-10.26-1.54-20.47-3.59-30.78-4.67-10.35-1.08-20.78-.94-30.88,2.26-9.19,2.91-13.34,8.04-13.82,17.6-.25,5.12.23,10.28.34,15.42.19,8.73.84,17.48.4,26.18-.74,14.8-5.47,28.74-10.52,42.54-1.9,5.2-3.91,10.36-5.91,15.51-.7,1.81-1.98,3.05-4.04,2.34-1.9-.66-2.18-2.32-1.76-4.1.35-1.51.74-3.02,1.18-4.51,7.77-26.21,12.35-52.72,8.55-80.21-.7-5.11-.24-10.51.46-15.66,1.55-11.41,8-19.16,18.89-22.99,3.19-1.12,6.52-2.16,9.86-2.46,7.14-.63,14.34-1.28,21.48-.96,8.41.37,16.78,1.75,25.17,2.71,1.23.14,2.62.73,2.83-1.3,1.06-10.24,2.44-20.49.1-30.73-4.78-20.89-13.52-40.06-25.38-57.82-11.69-17.5-28.29-27.28-48.98-30.29-9.41-1.37-18.14.44-26.11,5.77-17.51,11.72-30.02,27.47-37.31,47.18-3.02,8.17-5.08,16.7-7.4,25.11-.15.53,1.02,1.91,1.81,2.14,4.46,1.33,8.97,2.56,13.51,3.59,15.71,3.58,31.45,7.05,47.17,10.59,2.15.48,4.97.75,4.49,3.82-.51,3.3-3.36,2.54-5.64,2.26-4.53-.55-9.05-1.18-13.57-1.76-27.57-3.55-54.97-7.89-81.51-16.56-4.55-1.48-9.42-2.05-14.19-2.74-4.3-.62-7.05-3.08-7.49-7.54-.16-1.63-.14-3.32.1-4.94,3.19-21.26,1.4-42.39-1.01-63.58-1.65-14.54-2.87-29.2-3.09-43.82-.21-13.74,3.99-26.47,13.68-36.8,11.77-12.54,21.37-14.1,36.31-5.74,7.11,3.98,14.02,8.34,21.02,12.52,1.25.75,2.55,1.41,3.79,2.17,13.51,8.25,27.83,12.15,43.68,8.55,12.19-2.78,24.43-5.38,36.64-8.09.42-.09.78-.47,1.23-.74-1.53-2.95-3.15-5.71-4.45-8.61-3.44-7.72-6.83-15.45-10.03-23.27-1.01-2.48-2.2-3.52-5.05-3.62-4.14-.14-8.3-.89-12.34-1.85-1.19-.28-1.99-2.17-2.98-3.32,1.17-.95,2.24-2.48,3.55-2.73,2.74-.52,5.6-.35,8.41-.51,1.01-.06,2.01-.24,3.28-.4-.37-1.19-.57-2.02-.87-2.81-1.96-5.17-4.07-10.3-5.87-15.53-.8-2.31-2.14-3.26-4.46-3.3-6.21-.11-12.42-.3-18.63-.43-1.98-.04-3.84-.39-4.17-2.71-.33-2.36,1.38-3.37,3.31-3.65,5.17-.75,10.37-1.32,15.56-1.91.98-.11,1.98-.02,3.97-.02-4.3-7.97-8.19-15.1-11.99-22.29-1.33-2.53-3.27-3.4-6.08-3.59-10.86-.74-21.27,1.2-31.48,4.66-2.02.69-4.23,1.21-5.29-1.26-1.06-2.48.89-3.68,2.74-4.71,8.05-4.44,16.39-8.03,25.74-8.64.53-.03,1.05-.29,2.09-.59-1.26-1.09-2.12-1.98-3.12-2.67-4.78-3.32-9.55-6.67-14.43-9.84-3.37-2.19-6.78-4.73-11.22-2.58-.4.19-.96.04-1.44.05-12.14.4-23.34,3.68-33.24,10.91-1.65,1.2-3.26,2.44-4.93,3.62-1.56,1.1-3.51,1.76-4.59-.08-.63-1.07-.51-3.42.27-4.38,6.2-7.62,13.41-14.04,22.78-17.6.92-.35,1.81-.8,2.71-1.21-1.13-.89-2.13-1.18-3.15-1.39-8.38-1.71-16.78-1.31-25.24-.61-5.35.44-10.04,2.06-13.99,5.69-6.72,6.17-13.43,12.35-20.1,18.56-1.56,1.45-3.15,3.01-5.31,1.48-2.33-1.65-1.36-3.82-.2-5.69,2.92-4.69,5.95-9.31,8.93-13.97.34-.53.64-1.08,1.18-2-1.25,0-2.07-.01-2.9,0-5.82.11-11.64.25-17.46.33-8.24.11-16.07-1.56-23-6.19-3.57-2.38-6.66-2.15-10.11.12-6.79,4.46-14.4,6.16-22.45,6.05-6.02-.08-12.03-.22-18.05-.33-.79-.01-1.59,0-2.47,0,3.3,5.3,6.42,10.19,9.39,15.16,1.22,2.04,2.99,4.49.3,6.47-2.7,1.98-4.35-.61-6.11-2.2-7.42-6.69-14.78-13.44-22.35-19.96-1.6-1.38-3.89-2.35-6-2.7-10.11-1.69-20.27-2.21-30.41-.15-.97.2-1.92.51-3.51.93,1.03.61,1.39.91,1.81,1.06,9.18,3.18,16.43,9.04,22.69,16.27,1.58,1.83,4.28,3.77,1.75,6.4-2.36,2.45-4.47.08-6.29-1.38-10.87-8.7-23.27-13.03-37.15-13.23-.86-.01-1.72-.38-2.58-.35-1.65.05-3.63-.28-4.88.49-6.67,4.14-13.15,8.59-19.72,12.89-.78.51-1.68.83-2.53,1.23l.91,1.04c.36.1.71.28,1.07.3,9.04.54,17.19,3.8,25,8.12,2.06,1.14,5.08,2.07,3.78,5.21-1.31,3.15-4.09,1.71-6.33.96-10.15-3.39-20.5-5.12-31.24-4.21-2.15.18-3.69.9-4.71,2.81-3.2,5.99-6.46,11.95-9.63,17.95-.79,1.5-1.36,3.12-2.15,4.95.98.06,1.54.08,2.1.13,5.29.55,10.6,1.02,15.87,1.7,2.15.28,4.53.98,4.15,3.85-.35,2.62-2.62,2.7-4.76,2.71-4.37,0-8.74,0-13.11.13-8.04.25-8.04.29-10.87,7.75-1.74,4.6-3.49,9.19-5.44,14.35,4.13.21,7.77.38,11.4.6,1.96.12,3.81.62,3.95,3,.12,2.16-1.43,3.11-3.29,3.41-4.11.66-8.23,1.42-12.38,1.69-2.26.15-3.44.78-4.31,2.94-2.81,6.93-5.78,13.79-8.83,20.62-1.8,4.04-3.85,7.96-6,12.39,2.89.61,5.6,1.16,8.31,1.76,12.2,2.7,24.16,6.38,36.75,7.54,8.92.82,17.34,0,25.22-3.93,8.76-4.36,17.21-9.37,25.77-14.12,5.26-2.92,10.38-6.11,15.75-8.81,8.19-4.12,16.13-3.32,23.64,2,6.98,4.94,12.26,11.27,15.86,19.01,3.83,8.26,5.67,17.06,5.31,26.05-.52,13.08-1.46,26.17-2.86,39.18-2.21,20.58-4.85,41.11-1.81,61.83.44,2.96.65,6.01.54,9-.19,4.98-3.31,7.7-8.2,8.06-3.26.24-6.6.57-9.7,1.54-15.96,4.98-32.02,9.56-48.56,12.15-17.17,2.69-34.39,5.02-51.59,7.47-2.04.29-4.16.15-4.53-2.4-.35-2.34,1.51-3.11,3.41-3.58.47-.12.95-.21,1.42-.31,11.47-2.52,22.97-4.96,34.41-7.59,8.61-1.98,17.16-4.21,25.73-6.36,1.42-.36,2.85-.57,2.11-2.85-1.25-3.87-2.21-7.84-3.23-11.79-6.47-25.17-19.84-45.56-41.66-60.08-7.24-4.82-15.2-6.84-23.82-5.88-18.1,2.01-33.51,9.43-45.57,23.27-7.47,8.57-12.84,18.47-17.76,28.63-10.08,20.84-17.59,42.17-13.16,65.94.42,2.26.85,2.94,3.22,2.53,5.35-.93,10.74-1.71,16.15-2.22,12.42-1.18,24.85-1.55,37.02,1.89,13.99,3.95,21.48,12.93,22.41,27.43.41,6.36.22,12.84-.43,19.19-1.83,17.88-.64,35.49,3.8,52.89,2.04,8,4.05,16,6.11,23.99.52,2.02.8,4.11-1.54,4.96-2.57.93-3.63-1.04-4.39-3.07-2.42-6.46-4.82-12.92-7.23-19.37-7.67-20.52-10.97-41.61-8.43-63.5.45-3.85.57-7.75.6-11.63.1-14.37-5-20.54-19.1-23.31-.38-.07-.76-.14-1.15-.2-19.19-2.99-37.93.13-56.57,4.3-.94.21-2.23,1.6-2.28,2.51-.19,3.15-.35,6.43.29,9.49,1.2,5.69,3.01,11.25,4.47,16.89.5,1.94,1.29,2.23,3.1,1.37,4.29-2.04,8.56-4.24,13.05-5.7,11.48-3.73,22.91-3.96,33.94,1.82,3.15,1.65,4.42,3.96,3.75,6.48-.65,2.47-2.92,3.82-6.51,3.69-3.01-.11-6-.45-9.01-.55-8.54-.28-16.11,5.2-18.18,13.56-.8,3.24-.91,6.73-.83,10.09.08,3.48.8,6.93,1.19,10.41.2,1.79-.26,3.4-2.23,3.88-1.98.48-3.16-.73-3.75-2.43-2.9-8.48-5.62-16.99-4.58-26.17.07-.59-.16-1.21-.3-2.14-1.17.59-2.1.9-2.85,1.45-5.69,4.2-11.37,8.42-17.01,12.69-4.59,3.48-5.96,8.36-4.25,13.52,1.93,5.85,4.37,11.62,7.36,16.99,2.72,4.88,6.6,9.11,9.68,13.82.71,1.08.79,3.33.12,4.38-1.13,1.78-3.11,1.2-4.6-.02-9.14-7.51-17.66-15.54-22.23-26.85-.23-.56-.68-1.04-1.03-1.54-.37.22-.58.28-.69.41-.18.22-.36.47-.45.74-3.91,12.15-5.02,24.38.12,36.42,4.27,10.01,11.67,17.54,20.39,23.84,1.75,1.26,3.35,2.79,1.92,5.07-1.33,2.11-3.42,1.59-5.18.58-4.78-2.76-9.49-5.64-14.23-8.48-.74-.45-1.46-.94-2.18-1.42-.24.16-.48.32-.71.48,1.15,6.96,2.34,13.92,3.43,20.89,1.02,6.54,4.13,11.92,9.18,16.07,3.06,2.51,6.31,4.87,9.75,6.81,3.45,1.95,7.23,3.3,10.87,4.9,1.74.76,3.13,1.86,2.63,3.96-.5,2.1-2.27,2.73-4.11,2.28-6.3-1.51-12.55-3.19-18.81-4.85-.97-.26-1.88-.78-3.39-1.42.24,1.54.31,2.47.53,3.37.91,3.68,2.17,7.29,2.74,11.02,1.05,6.91,4.92,11.64,10.2,15.92,9.23,7.47,18.99,12.1,31.13,8.52.09-.03.19-.03.29-.05,1.78-.23,3.43.01,4,1.98.57,1.95-.61,3.14-2.25,3.87-10.24,4.53-20.56,5.5-30.98.58-.92-.43-1.86-.81-3.19-1.39.1,1.07.04,1.64.21,2.15,2.43,7.17,4.78,14.38,7.43,21.47.59,1.59,2.05,3.08,3.48,4.1,8.76,6.21,18.55,9.15,29.32,8.69,2.12-.09,4.4.03,4.77,2.67.4,2.83-1.91,3.45-4.05,4-7.33,1.86-14.71,2.61-22.21,1.05-.6-.12-1.25-.02-2.77-.02,2.31,3.63,4.25,6.7,6.21,9.75,3.03,4.72,7.49,6.9,12.97,7.16,2.03.1,4.08.12,6.11,0,28-1.79,55.73.2,83.05,6.53,10.75,2.49,21.37,5.79,31.78,9.47,15.48,5.47,27.8,15.26,36.77,29.13,4.59,7.09,10.04,13.33,17.57,17.5,6.82,3.78,12.3,8.89,16.65,15.5,2.85,4.33,6.57,8.4,12.03,9.57,5.44,1.17,10.94,1.31,16.42-.4,2.46-.77,5.26-1.53,7.68-1.08,3.13.58,5.96.34,9.05.01,2.95-.32,6.07.87,9.12,1.42,14.2,2.57,20.2.08,27.69-10.5,3.85-5.44,8.25-10.06,14.01-13.29,7.71-4.31,14.02-10.07,18.7-17.55,10.26-16.43,25.22-26.54,43.3-32.58,31.56-10.54,64.01-14.94,97.21-14.18,5.72.13,11.46.63,17.17.47,8.94-.25,17.18-7.64,19.2-16.95-.8.04-1.54-.02-2.24.12-7.2,1.41-14.31.78-21.36-.99-2.25-.56-5.09-.87-4.66-4.07.42-3.2,3.28-2.78,5.57-2.71,10.47.31,19.98-2.57,28.46-8.64,1.63-1.17,3.16-2.99,3.87-4.84,2.51-6.52,4.66-13.18,6.9-19.8.28-.83.34-1.73.59-3.02-1.19.42-1.84.58-2.42.87-10.51,5.23-21.02,4.54-31.53.02-1.83-.79-3.37-1.91-2.62-4.17.69-2.11,2.52-2.14,4.36-1.81.95.17,1.9.38,2.85.59,7.52,1.6,14.57.3,20.87-3.99,4.32-2.94,8.43-6.23,12.33-9.7,1.64-1.46,2.96-3.66,3.62-5.78,1.78-5.74,3.14-11.62,4.63-17.45.17-.66.09-1.39.15-2.46-1.22.51-1.98.93-2.79,1.15-6.44,1.73-12.87,3.49-19.35,5.08-1.83.45-3.61-.15-4.14-2.25-.53-2.11.84-3.23,2.59-3.97,1.43-.6,2.96-1.02,4.32-1.75,4.68-2.54,9.55-4.82,13.89-7.86,6.59-4.63,10.85-10.96,11.96-19.21.8-5.96,1.92-11.89,2.85-17.83.12-.79.02-1.61.02-2.97-1.22.88-1.94,1.48-2.74,1.96-4.74,2.84-9.45,5.71-14.25,8.44-1.77,1-3.87,1.47-5.12-.75-1.21-2.15.22-3.6,1.85-4.9,2.74-2.17,5.52-4.3,8.1-6.64,15.3-13.89,18.71-31.06,13.75-50.48-.39-1.53-1.12-2.97-1.7-4.48-.61.3-.87.33-.94.47-.41.77-.79,1.55-1.14,2.34-4.78,10.84-13.1,18.66-22.13,25.84-.85.67-2.64.75-3.72.35-.72-.27-1.37-1.87-1.31-2.84.06-1.04.88-2.09,1.53-3.03,3.74-5.43,8.01-10.57,11.14-16.33,2.6-4.77,4.24-10.17,5.63-15.47,1.11-4.2-.39-8.17-3.91-10.93-5.8-4.53-11.73-8.9-17.65-13.28-.79-.59-1.82-.87-3-1.42ZM488.81,680.47c-1.69.59-2.76.92-3.8,1.33-9.07,3.53-18.5,4.28-28.08,3.4-1.3-.12-3.06-1.48-3.54-2.69-.76-1.9.83-3.18,2.6-3.89.72-.29,1.48-.49,2.2-.77,8.85-3.49,17.7-6.95,26.52-10.51,1.33-.54,2.62-1.34,3.68-2.29.62-.55.75-1.64,1.1-2.49-.79-.18-1.62-.6-2.37-.5-2.88.39-5.77.83-8.61,1.46-16.65,3.71-31.19,12.22-45.89,20.34-.62.34-1.31,1.75-1.08,2.28,3.15,7.29,2.43,14.85,1.79,22.41-.47,5.56,1.98,9.27,6.89,11.65,2.7,1.31,5.5,2.54,7.94,4.25,5.66,3.95,5.45,10.35-.27,13.97-3.94,2.49-7.88,4.98-11.81,7.48-7.65,4.86-14.03,10.96-18.71,18.82-2.38,4-5.07,7.82-7.61,11.73-12.57,19.33-30.29,30.41-53.17,33.4-13.02,1.7-25.62,1.54-36.86-6.57-1.82-1.31-3.42-.73-5.07.39-5.05,3.44-10.52,6.05-16.64,6.52-21.18,1.64-40.76-2.59-57.55-16.41-9.23-7.59-15.69-17.45-21.76-27.52-5.5-9.13-12.78-16.27-21.85-21.74-3.66-2.21-7.26-4.51-10.82-6.86-3.35-2.21-3.73-4.18-2.64-7.95,1.12-3.87,3.83-5.86,7.16-7.51,11.43-5.66,11.75-6.3,10.75-19.12-.43-5.48-.2-10.9,2.01-16.02.83-1.92.1-2.82-1.53-3.66-6.97-3.64-13.85-7.45-20.86-11-9.94-5.03-20.4-8.56-31.45-10.17-1.26-.18-2.56-.02-4.08-.02.35,2.94,2.31,3.97,4.22,4.75,9.44,3.84,18.92,7.56,28.4,11.29,1.97.77,4.03,1.54,3.69,4.14-.34,2.6-2.49,2.89-4.62,3.02-9.81.58-19.4-.3-28.54-4.22-.5-.22-1.07-.28-1.95-.5-.09,1.14-.26,2.07-.21,2.99.21,4.27.58,8.53.7,12.79.06,2.15,1.02,3.07,3,3.59,3.66.95,7.28,2.09,10.9,3.19,1.95.6,3.78,1.51,3.49,3.96-.26,2.21-2.02,3.01-3.99,3.13-3.28.21-6.59.54-9.85.29-2.46-.19-3.04.56-2.99,2.83.14,7.67.18,15.34.15,23.01,0,2.14.69,3.46,2.84,4.09,7.16,2.08,14.28,4.28,21.44,6.37,1.87.54,3.66,1.13,3.77,3.41.11,2.26-1.5,3.2-3.41,3.73-7.19,2.03-14.45,3.1-21.82,1-1.88-.54-2.78-.13-2.74,1.93.08,5.05.02,10.1.25,15.14.05,1.04.87,2.49,1.75,2.97,6.44,3.48,13.23,6.19,20.53,7.1,7.7.95,15.44,1.52,23.17,2.23,1.98.18,4.07.76,3.98,2.94-.05,1.38-1.58,2.76-2.59,4.02-.38.48-1.18.63-1.81.9-13.86,6.11-27.58,5.24-41.2-.82-.9-.4-1.85-.71-2.8-1.07-.25.67-.45.95-.43,1.21.47,6.97.9,13.95,1.52,20.91.08.85.96,1.95,1.77,2.37,10.37,5.32,21.34,8.93,32.87,10.42,9.9,1.28,19.88,1.98,29.84,2.89,2.05.19,4.08.47,4.34,2.95.28,2.69-1.79,3.37-3.89,3.8-1.81.37-3.62.72-5.44,1.01-18.65,2.99-36.96,2.41-54.61-5.16-.45-.19-1.03-.09-1.73-.14.09.72.07,1.21.22,1.65,3.6,10.77,10.24,18.4,21.76,20.91,2.56.56,5.14,1.11,7.75,1.32,14.61,1.21,29.26,1.96,43.82,3.58,11.57,1.28,23.04.9,34.58.2,8.04-.48,16.11-.61,24.16-.52,6.01.07,12.01.7,18.01,1.18,1.79.14,3.25,1.07,3.2,3.1-.05,2.04-1.56,2.77-3.35,2.96-1.25.14-2.52.15-3.78.21-8.53.38-17.07.76-25.6,1.16-.85.04-1.69.23-3.03.42,10.49,5.12,20.45,9.69,30.14,14.78,10.95,5.75,21.52,5.76,32.5.03,9.46-4.94,19.24-9.26,28.87-13.86.31-.15.54-.44,1.24-1.04-1.42-.16-2.33-.31-3.25-.35-8.92-.41-17.85-.76-26.77-1.21-2.34-.12-5.52.34-5.64-3.06-.13-3.44,3.06-3.34,5.4-3.38,13.57-.22,27.15-.4,40.73-.39,8.24,0,16.49.75,24.71.49,9.01-.29,18.01-1.26,26.99-2.11,11.1-1.05,22.26-1.85,33.27-3.54,11.52-1.78,18.25-9.53,21.96-20.18.25-.72.25-1.54.41-2.62-3.88,1.36-7.19,2.73-10.62,3.69-16.72,4.7-33.57,4.48-50.46,1.02-2.23-.46-4.8-.8-4.64-3.78.17-3.03,2.78-3,5.05-3.12.48-.02.97-.05,1.45-.07,20.65-1.1,41.07-3.17,59.9-12.84,1.72-.88,2.58-1.8,2.7-3.63.43-6.3.92-12.59,1.34-18.88.05-.71-.19-1.44-.29-2.07-.48-.08-.69-.18-.84-.12-.72.29-1.42.62-2.13.93-14.36,6.38-28.71,6.88-43.06-.05-1.81-.87-3.44-2.27-2.53-4.24.58-1.25,2.45-2.37,3.91-2.65,2.74-.52,5.61-.35,8.41-.55,12.09-.82,23.98-2.53,34.73-8.63,1.11-.63,2.28-2.21,2.35-3.42.31-4.94.18-9.9.26-14.85.03-1.95-.68-2.61-2.67-2.05-7.26,2.03-14.43,1.06-21.55-.88-1.99-.54-3.85-1.31-3.84-3.7.01-2.62,2.15-3.05,4.18-3.64,7.16-2.08,14.28-4.29,21.42-6.41,1.9-.56,2.56-1.81,2.56-3.69.02-7.87.04-15.73.18-23.59.04-2.34-.91-2.61-3.01-2.51-3.47.15-6.96-.1-10.43-.37-1.86-.15-3.71-1.17-3.39-3.21.2-1.3,1.55-2.87,2.79-3.48,2.33-1.13,4.96-1.66,7.46-2.42,8.2-2.47,6.71-.57,7.3-9.2.25-3.63.36-7.28.56-11.47ZM250.36,197.74c-.3-.02-.6-.03-.91-.05,0-4.07.01-8.15,0-12.22-.04-9.35-5.54-14.47-13.66-17.5-8.46-3.16-16.59-1.39-24.24,2.38-11.34,5.58-23.35,8.91-35.52,11.94-17.93,4.46-35.27,1.34-51.97-4.8-13.68-5.03-27.55-7.88-41.94-8.99-4.45-.34-8.19,1.05-11.46,4-7.11,6.44-13.7,13.41-17.39,22.36-5.21,12.64-10.27,25.37-14.59,38.33-9.06,27.17-17.87,54.42-26.16,81.83-2.56,8.46-3.71,17.48-4.37,26.33-.7,9.45,2.81,12.63,12.19,11.38,9.41-1.25,18.67-3.56,28-5.39,1.64-.32,1.9-1.21,1.54-2.75-.61-2.55-1.13-5.13-1.44-7.72-.25-2.03-1.32-2.58-3.18-3.04-6.58-1.63-13.1-3.48-19.62-5.34-2.06-.59-3.95-1.68-3.54-4.24.41-2.58,2.54-2.93,4.7-2.87,6.01.17,12.03.26,18.04.65,2.3.15,3.04-.53,3.31-2.76.48-3.94,1.25-7.86,2.03-11.76.32-1.6,0-2.32-1.65-3.03-5.7-2.43-11.29-5.12-16.88-7.78-1.93-.92-3.69-2.28-2.77-4.74.91-2.46,3.14-2.28,5.21-1.81,5.86,1.34,11.73,2.65,17.54,4.19,1.86.49,2.65.06,3.27-1.63,1.04-2.82,2.05-5.69,3.46-8.33,1.36-2.57.9-3.85-1.72-5.16-5.73-2.89-10.27-7.33-14.04-12.45-.77-1.05-1-3.47-.31-4.36.7-.9,2.83-.79,4.35-.9.59-.04,1.24.51,1.83.83,4.68,2.57,9.38,5.1,14.01,7.76,1.49.86,2.34.81,3.26-.77,2.57-4.45,5.24-8.86,7.98-13.2.94-1.48.56-2.25-.6-3.42-4.16-4.19-8.17-8.52-12.16-12.88-1.37-1.5-2.32-3.37-.71-5.23,1.74-2.01,3.73-1.09,5.49.1,4.35,2.92,8.79,5.74,12.9,8.97,2.24,1.76,3.34,1.47,5.11-.57,11.31-13.06,25.27-21.98,42.09-26.21,10.74-2.7,21.63-3.8,32.02.84,19.02,8.5,34.43,21.19,44.5,39.85,6.74,12.48,9.49,26.25,13.12,39.72.76,2.81,1.64,3.31,4.31,2.43,8.01-2.64,16.06-5.22,24.21-7.41,2.64-.71,3.48-1.42,2.93-4.19-2.86-14.4-3.19-28.84-1.34-43.46,1.97-15.59,3.21-31.28,4.77-46.93ZM598.79,321.37c3.25,0,6.36,0,9.47,0,2.17,0,4.25.33,4.66,2.92.37,2.4-1.33,3.55-3.3,4.12-6.61,1.89-13.22,3.78-19.89,5.45-1.75.44-2.75.99-3.01,2.87-.38,2.69-.91,5.36-1.52,8-.32,1.38-.18,2.27,1.36,2.58,9.32,1.85,18.59,4.17,27.99,5.43,9.59,1.28,13.06-1.85,12.33-11.49-.68-8.94-2.07-17.97-4.4-26.63-10.01-37.25-23.11-73.52-36-109.84-4.24-11.93-10.99-22.47-20.55-31.03-3.25-2.91-6.6-5.45-11.28-5.26-12.88.52-25.73,2.04-37.62,6.96-10.95,4.53-22.23,6.83-33.79,8.27-4.78.6-9.79,1.02-14.49.27-14.69-2.37-28.99-6.16-42.62-12.45-5.2-2.4-10.94-4.23-16.61-4.93-12.97-1.6-23.06,7.25-23.96,20.15-.07,1.06-.19,2.14-.13,3.2.73,12.78,1.11,25.6,2.32,38.33,1.82,19.22,5.11,38.34.86,57.67-1.18,5.37-.74,5.23,4.63,6.77,7.65,2.19,15.2,4.7,22.76,7.19,2.07.68,2.9.26,3.42-1.93,1.46-6.14,3.19-12.21,4.76-18.32,6.54-25.41,21.36-44.4,44-57.61,11-6.42,22.47-8.7,34.96-6.46,19.4,3.48,35.42,12.83,48.3,27.64,1.69,1.94,2.72,2.24,4.89.54,4.27-3.34,8.87-6.27,13.37-9.31,1.64-1.11,3.47-1.63,5.01.08,1.52,1.69.94,3.52-.39,4.99-4.02,4.45-8.05,8.9-12.28,13.16-1.31,1.32-1.49,2.14-.52,3.66,2.66,4.17,5.25,8.39,7.69,12.7,1.02,1.8,1.87,1.99,3.64.95,4.69-2.75,9.48-5.31,14.26-7.91,1.95-1.06,4.09-1.95,5.78.23,1.57,2.03.29,3.82-1.07,5.46-4,4.82-8.48,9.1-14.14,11.93-1.73.86-2.21,1.79-1.32,3.66,1.45,3.07,2.7,6.24,3.89,9.42.65,1.74,1.51,2.02,3.31,1.54,5.91-1.55,11.87-2.89,17.83-4.24,2.02-.46,4.05-.32,4.82,2.03.71,2.16-.68,3.54-2.45,4.39-5.67,2.73-11.34,5.46-17.1,7.98-1.57.69-2.06,1.33-1.73,3,.82,4.09,1.57,8.2,2.13,12.33.26,1.94,1.1,2.41,2.89,2.22,2.99-.31,6-.45,8.86-.66ZM197.99,732.72c.82.75,1.4,1.36,2.05,1.86,8.7,6.64,17.4,13.29,26.15,19.87,2.48,1.87,5.1,3.55,7.69,5.26,6.12,4.04,12.84,6.27,20.16,6.92,6.96.61,13.91,1.39,20.84,2.29,12.15,1.58,22.97,6.17,32.17,14.43,4.94,4.43,16.19,4.3,21.17-.15,8.42-7.52,18.26-12.08,29.35-13.83,6.23-.99,12.51-1.96,18.79-2.2,12.05-.47,22.47-4.8,31.79-12.16,2.74-2.16,5.38-4.47,8.17-6.57,2.93-2.21,6.04-4.2,8.99-6.39,3.93-2.93,7.78-5.96,12.05-9.24-7.35-4.07-14.15-8.13-22.37-5.71-5.09,1.5-10.05,3.57-14.88,5.79-7.03,3.23-14.18,5.86-21.98,6.27-5.14.27-10.2-.22-14.46-3.34-1.94-1.42-2.89-.96-4.31.51-4.24,4.42-9.53,6.45-15.62,6.78-9.53.51-18.07-2.59-25.99-6.48-15.29,6.37-30.18,12.04-44.29-2.18-6.47,5.22-13.9,5.71-21.39,4.06-5.63-1.25-11.08-3.45-16.52-5.46-4.36-1.61-8.53-3.75-12.89-5.35-9.08-3.33-16.81.34-24.69,5.05Z" style="fill: #000; stroke-width: 0px;"/>
  <path d="M394.1,648.36c-5.76.07-11.26-.96-16.47-3.34-6.96-3.18-14.26-5.69-20.26-10.73-.59-.5-2.5-.25-3.2.35-1.6,1.37-2.89,3.12-4.21,4.8-7.67,9.79-17.2,15.55-30.13,14.15-1.63-.18-3.31-.13-4.95.03-12.06,1.2-21.23-3.96-28.72-12.9-1.62-1.93-3.2-3.9-4.82-5.83-1.31-1.55-2.54-1.5-4.23-.26-20.5,14.98-42.21,18.16-65.34,6.42-4.5-2.28-8.91-4.76-13.34-7.17-5.76-3.14-10.78-7.17-15.23-12.04-6.22-6.8-12.85-13.24-19.05-20.07-7.04-7.76-12.39-16.65-16.44-26.31-2.25-5.35-3.57-10.87-2.98-16.74,1.16-11.55,8.65-18.07,18.31-22.62,7.23-3.41,14.97-4.2,22.76-2.36,2.75.65,5.41,2.08,7.83,3.61,1.81,1.15,2.44,3.28,1.6,5.45-.88,2.27-2.77,3.27-5.09,3.1-1.82-.13-3.62-.65-5.43-.99-7.49-1.42-14.5-.47-20.73,4.24-5.59,4.23-7.38,10.2-4.99,16.76,5.64,15.52,15.78,27.98,27.04,39.64,9.82,10.16,20.98,18.58,34.08,23.97,17.51,7.22,33.83,4.6,48.6-7.25,9.37-7.52,16.29-17.08,22.69-27.13,2.09-3.29,4.94-6.2,7.89-8.78,1.15-1.01,3.67-1.16,5.3-.72,2.19.59,3.07,2.93,2.5,5.01-1.12,4.08-2.05,8.42-4.21,11.95-3.72,6.11-8.23,11.75-12.58,17.46-2.47,3.24-2.68,3.17.23,6.24,2.92,3.08,5.53,6.76,9.05,8.92,7.51,4.59,16.07,4.43,24.53,3.4,4.39-.54,9.07-.59,12.51-3.96,3.46-3.38,6.75-6.94,9.93-10.59.37-.42-.25-2.08-.83-2.87-4.28-5.88-8.99-11.48-12.89-17.6-2.24-3.51-3.41-7.77-4.71-11.8-.75-2.31-.31-4.71,2.08-6.14,2.41-1.45,4.64-.59,6.35,1.15,2.57,2.6,5.25,5.23,7.19,8.28,6.19,9.7,12.82,18.98,21.75,26.41,15.34,12.77,32.26,15.5,50.54,7.56,18.65-8.1,32.87-21.78,45.36-37.46,6.16-7.73,11.18-16.1,14.65-25.37,2.58-6.92.67-13.03-5.36-17.4-6.24-4.53-13.18-5.31-20.54-3.89-1.71.33-3.42.8-5.15.94-2.32.19-4.23-.7-5.14-3-.91-2.3-.18-4.46,1.71-5.69,2.23-1.46,4.74-2.83,7.32-3.38,13.86-2.95,25.92.91,35.51,11.13,7.03,7.49,7.61,16.83,4.53,26.25-3.94,12.08-10.61,22.66-19.21,31.97-6.78,7.35-13.28,15.09-20.86,21.54-15.73,13.41-33.54,22.69-54.77,23.63Z" style="fill: #000; stroke-width: 0px;"/>
  <path d="M282.64,101.41c-.41,4.05-.48,8.16-1.31,12.13-1.68,8.08-9.3,10.62-15.8,5.48-.83-.66-1.6-1.41-2.32-2.2-8.41-9.28-19.53-12.32-30.79-6.9-8.95,4.31-17.4,9.79-25.62,15.42-10.73,7.35-21.13,15.15-32.91,20.83-13.02,6.28-26.38,7.36-40.18,2.98-2.8-.89-4.64-2.75-5.61-5.47-.83-2.33-.2-4.23,2.01-5.43,14.13-7.67,26.25-17.89,37.33-29.41,9.35-9.72,18.55-19.62,29.85-27.19,12.25-8.2,25.48-14.44,39.39-19.23,7.19-2.48,14.58-3.18,22.09-1.48,9.26,2.09,15.81,7.48,19.59,16.23,3.34,7.75,4.11,15.91,4.26,24.25Z" style="fill: #000; stroke-width: 0px;"/>
  <path d="M352.49,100.89c.19-7.15.76-14.19,3.15-20.97,4.35-12.32,13.35-19.04,26.39-19.81,7.64-.45,14.79,1.51,21.84,4.19,22.89,8.69,42.92,21.54,59.35,39.89,10.66,11.91,22.64,22.37,36.18,30.95,1.63,1.04,3.36,1.92,5.07,2.83,2.68,1.44,3.78,3.75,2.14,6.25-1.29,1.97-3.28,4.09-5.41,4.81-13.72,4.64-27.34,3.78-40.06-3.07-9.54-5.13-18.57-11.23-27.72-17.08-8.17-5.22-16.08-10.86-24.33-15.96-3.34-2.06-7.14-3.67-10.94-4.62-10.08-2.52-18.74.36-25.82,7.97-.86.92-1.7,1.88-2.67,2.67-6.54,5.27-14.34,2.62-15.93-5.62-.79-4.07-.85-8.29-1.24-12.44Z" style="fill: #000; stroke-width: 0px;"/>
  <path d="M375.29,496.96c.3-15.01,2.44-29.63,8.28-43.55,4.34-10.34,11.02-18.86,19.86-25.77,4.71-3.68,10.2-5.52,15.69-7.46,7.79-2.75,8.18-3.52,2.92-9.93-8.99-10.96-18.31-21.63-27.46-32.46-10.04-11.88-19.23-24.4-27.38-37.66-.1-.17-.21-.33-.31-.49-1.12-1.86-2.54-3.94-.22-5.67,2.29-1.7,3.9.11,5.37,1.78,9.75,11.07,19.43,22.21,29.32,33.16,8.92,9.87,18.18,19.42,27.07,29.31,3.08,3.44,5.96,7.24,8.09,11.32,4.2,8.04.95,15.45-7.72,18.15-3.68,1.14-7.57,1.66-11.39,2.32-2.16.38-3.67,1.33-4.83,3.27-1.19,1.97-2.61,3.92-4.3,5.46-12.56,11.42-18.33,26.02-19.92,42.5-2.27,23.56.92,46.14,13.03,66.9,3.7,6.35,8.43,11.87,14.8,15.78,6.93,4.26,14.17,4.75,21.35,1,4.02-2.09,7.72-4.84,11.39-7.52,3.68-2.7,6.54-3.15,8.87-.95,2.34,2.22,2.22,5.75-.31,9.28-9.45,13.21-28.44,18.41-43.32,11.84-8.89-3.93-15.61-10.42-21.11-18.25-9.86-14.01-14.66-29.88-16.65-46.7-.62-5.2-.77-10.45-1.14-15.68Z" style="fill: #000; stroke-width: 0px;"/>
  <path d="M248.2,494.28c-1.14-8.15-1.92-16.37-3.51-24.43-2.24-11.32-7.69-21.04-15.99-29.19-2.54-2.49-4.46-5.6-6.88-8.22-.97-1.05-2.43-1.91-3.82-2.26-3.29-.82-6.71-1.11-10-1.93-10.55-2.65-14.48-11.04-8.58-20.15,4.44-6.87,10.15-12.96,15.62-19.1,15.5-17.39,31.16-34.62,46.76-51.92.91-1.01,1.67-2.33,2.81-2.89,1.03-.52,2.85-.7,3.63-.12.78.58,1.05,2.36.89,3.52-.17,1.16-1.14,2.21-1.79,3.29-12.21,20.21-27.52,38.01-42.98,55.72-4.59,5.26-8.95,10.73-13.16,16.3-2.65,3.5-2.2,4.48,1.81,6.17,1.07.45,2.16.9,3.27,1.22,17.94,5.27,29.42,17.69,35.68,34.54,11.77,31.68,10.5,63.25-3.7,94-5.04,10.91-12.4,20.16-22.94,26.47-15.97,9.56-36.59,5.42-47.7-9.58-.57-.77-1.06-1.64-1.43-2.53-1.17-2.8-.59-5.54,1.54-7.1,2.36-1.71,4.75-1.4,7.01.24,2.36,1.71,4.61,3.56,7.01,5.21,12.49,8.64,23.23,7.72,33.93-3.06,9.38-9.45,14.4-21.28,17.83-33.89,2.69-9.89,3.88-20,3.96-30.24.24-.03.47-.07.71-.1Z" style="fill: #000; stroke-width: 0px;"/>
  <path d="M518.37,276.28c-.93,13.26-6.47,26.2-21.62,33.03-10.93,4.94-25.56,1.97-34.08-6.47-5.49-5.44-7.45-12.16-6.62-19.7,1.01-9.18,5-17.03,11.17-23.84,1.36-1.5,2.67-3.08,3.75-4.79,9.94-15.7,30.36-16.32,41.17-1.17,4.37,6.13,6.23,13.07,6.22,22.94ZM503.69,275.55c-.15-6.59-1.86-12.28-7.7-15.88-4.37-2.7-10.47-2.4-13.2.72-2.99,3.44-5.93,6.94-8.61,10.62-3.23,4.42-5.71,9.26-6.22,14.86-.35,3.79.66,7.11,3.56,9.73,6.18,5.6,16.79,5.77,23,.21,6.05-5.42,8.72-12.43,9.17-20.26Z" style="fill: #000; stroke-width: 0px;"/>
  <path d="M116.82,273.14c.07-8.82,2.77-17.44,10.05-24.06,11.84-10.77,28.51-8.35,37.11,5.17,1.19,1.86,2.64,3.58,4.1,5.24,6.82,7.76,11.12,16.58,11.14,27.08.02,7.44-3.07,13.51-8.91,18.14-15.16,12.02-36.65,8.18-47.08-8.42-4.29-6.83-6.34-14.31-6.41-23.16ZM131.48,275.56c.27,7.15,2.75,13.93,8.23,19.4,6.05,6.05,16.07,6.6,22.93,1.44,3.7-2.79,5.31-6.6,4.38-10.98-.79-3.73-1.99-7.57-3.92-10.82-2.6-4.38-5.96-8.34-9.21-12.3-4.55-5.55-11.65-5.87-16.98-.92-3.97,3.68-5.28,8.44-5.42,14.19Z" style="fill: #000; stroke-width: 0px;"/>
  <path d="M96.26,318.2c-9.87-.06-16-6.34-15.87-15.18.11-8.15,5.23-15.89,12.25-18.55,6.17-2.33,11.19-.66,14.69,4.87.47.74.92,1.5,1.49,2.14,4.68,5.31,5.02,11.16,1.94,17.27-3.18,6.31-8.62,9.16-14.49,9.44ZM98.23,307.81c3.08-.03,5.34-2.29,5.36-5.33.02-2.53-2.26-5.43-4.31-5.5-2.42-.09-5.74,4.09-5.72,7.2.01,2.25,1.84,3.67,4.67,3.64Z" style="fill: #000; stroke-width: 0px;"/>
  <path d="M554.72,303.26c0,8.71-6.07,14.83-14.79,14.93-9.93.11-18.1-8.05-17.42-17.76.17-2.4,1.25-4.84,2.34-7.04,1.06-2.14,2.59-4.08,4.08-5.99,2.82-3.63,6.73-4.39,10.98-3.62,8.37,1.52,14.81,10.07,14.81,19.48ZM541.59,304.12c0-3.11-3.32-7.23-5.74-7.15-2.05.06-4.32,2.89-4.36,5.43-.05,3.17,2.27,5.45,5.5,5.42,2.88-.03,4.6-1.41,4.6-3.7Z" style="fill: #000; stroke-width: 0px;"/>
</svg>