<?xml version="1.0" encoding="UTF-8"?>
<svg id="Layer_1" data-name="Layer 1" xmlns="http://www.w3.org/2000/svg" viewBox="0 0 635.16 900">
  <path d="M596.89,358.6c.54,2.55,1.07,4.51,1.36,6.49,1.36,9.39-1.66,17.87-5.81,26-1.3,2.54-.88,3.86,1.17,5.6,8.81,7.47,16.27,16.09,21.92,26.23,7.32,13.13,7.86,27.45,7.24,41.92-1.81,42.69-11.07,83.86-25.77,123.85-5.29,14.39-11.01,28.63-16.96,42.76-2.28,5.41-5.61,10.41-8.72,15.43-2.42,3.91-5.96,6.71-10.5,7.83-6.1,1.5-12.2,3.35-18.41,4-10.61,1.1-21.29,1.47-31.96,1.93-2.58.11-3.72,1.05-3.98,3.49-1.03,9.64-2.73,19.27-3.01,28.93-.79,26.98-.69,53.98-1.55,80.95-.41,12.77-2.16,25.51-3.41,38.25-.36,3.67-1.26,7.28-1.57,10.95-.76,8.96-3.75,17.17-7.54,25.24-5.36,11.42-14.74,18.15-25.62,23.53-12.74,6.29-25.99,9.45-40.26,8.19-12.71-1.12-25.17.2-37.33,4.38-11.1,3.81-22.41,7.04-33.46,10.99-10.94,3.91-21.94,5.74-33.45,3.44-.94-.19-1.97-.27-2.89-.07-13.08,2.84-25.32-.24-37.6-4.62-12.42-4.43-25.11-8.13-37.74-11.95-10.21-3.09-20.74-2.77-31.22-2.06-20.06,1.37-37.52-5.54-52.99-17.48-10.02-7.73-15.01-19.24-17.22-31.3-3.74-20.42-6.66-40.98-6.71-61.88-.06-26.21-.58-52.42-1.35-78.62-.26-8.89-1.92-17.74-2.9-26.61-.3-2.68-1.56-3.62-4.37-3.75-11.73-.54-23.48-1.04-35.14-2.3-5.8-.63-11.64-2.35-17.05-4.6-3.28-1.36-6.35-4.23-8.46-7.18-3.37-4.7-6.33-9.83-8.64-15.13-15.58-35.78-28.64-72.41-35.99-110.86-4.06-21.21-6.43-42.58-6.9-64.21-.49-22.74,9.02-40.68,25.11-55.8,1.63-1.53,3.24-3.09,4.99-4.47,1.6-1.26,1.66-2.43.83-4.26-1.83-4.06-3.59-8.19-4.94-12.42-1.97-6.13-2.16-12.4-.28-18.65.16-.52.16-1.09.28-2.03-1.28.21-2.28.39-3.29.54-5.08.79-10.13,1.96-15.24,2.28C6.86,362.33-.1,356.15,0,343.41c.06-7.6.88-15.42,2.83-22.74,6.16-23.07,12.93-45.97,19.65-68.89,5.24-17.88,10.41-35.8,16.29-53.48,2.93-8.79,7.17-17.18,11.25-25.53,1.67-3.42,4.27-6.5,6.86-9.36,8.72-9.63,19.69-13.48,32.53-11.83,2.5.32,4.19-.28,6.25-1.88,8.38-6.53,12.63-15.68,16.19-25.14,5.02-13.35,9.54-26.89,14.12-40.4,7-20.67,17.72-38.84,35.13-52.47,4.18-3.27,8.72-6.21,13.42-8.7,14.08-7.46,28.37-14.6,43.91-18.51C236.6-.08,255.06-.74,273.68.91c10.83.96,21.7,2.02,32.55,1.93,19.77-.16,39.53-.25,59.29-2.1,25.4-2.37,50.2.78,73.61,11.81,11.33,5.34,22.94,10.14,33.05,17.71,17.89,13.39,29.11,31.46,36.36,52.28,5.04,14.48,10.02,28.98,15.21,43.41,1.34,3.73,3.34,7.22,5.05,10.81,2.79,5.84,7.27,10.25,12.2,14.24.77.62,2.19.82,3.22.67,17.52-2.53,30.41,4.61,39.7,19.07,7.1,11.05,11.44,23.36,15.25,35.8,8.5,27.76,16.97,55.52,24.97,83.42,4.01,13.98,7.18,28.21,10.25,42.43.98,4.56.89,9.5.46,14.19-.87,9.48-6.63,14.92-16.16,14.89-5.96-.02-11.92-1.35-17.87-2.11-1.13-.15-2.24-.43-3.93-.77ZM571.58,398.8c-.09,1.02-.24,1.59-.18,2.13.99,9.07-1.69,17.49-4.56,25.88-.62,1.81-1.74,3.2-3.86,2.69-2.14-.51-2.42-2.28-2.17-4.17.37-2.89.99-5.77,1.1-8.66.13-3.38.21-6.83-.36-10.14-1.58-9.09-9.36-15.25-18.51-14.96-3.01.09-6,.44-9.01.55-3.56.14-5.86-1.21-6.55-3.66-.68-2.43.65-4.84,3.74-6.5,5.32-2.84,11.01-4.25,17.04-4.41,10.61-.29,20.28,2.93,29.45,7.94,1.57.86,2.95,1.72,3.65-.98,1.43-5.55,3.2-11.01,4.43-16.6.64-2.88.55-5.95.54-8.93,0-2.24-1.34-3.41-3.63-3.76-10.26-1.54-20.47-3.59-30.78-4.67-10.35-1.08-20.78-.94-30.88,2.26-9.19,2.91-13.34,8.04-13.82,17.6-.25,5.12.23,10.28.34,15.42.19,8.73.84,17.48.4,26.18-.74,14.8-5.47,28.74-10.52,42.54-1.9,5.2-3.91,10.36-5.91,15.51-.7,1.81-1.98,3.05-4.04,2.34-1.9-.66-2.18-2.32-1.76-4.1.35-1.51.74-3.02,1.18-4.51,7.77-26.21,12.35-52.72,8.55-80.21-.7-5.11-.24-10.51.46-15.66,1.55-11.41,8-19.16,18.89-22.99,3.19-1.12,6.52-2.16,9.86-2.46,7.14-.63,14.34-1.28,21.48-.96,8.41.37,16.78,1.75,25.17,2.71,1.23.14,2.62.73,2.83-1.3,1.06-10.24,2.44-20.49.1-30.73-4.78-20.89-13.52-40.06-25.38-57.82-11.69-17.5-28.29-27.28-48.98-30.29-9.41-1.37-18.14.44-26.11,5.77-17.51,11.72-30.02,27.47-37.31,47.18-3.02,8.17-5.08,16.7-7.4,25.11-.15.53,1.02,1.91,1.81,2.14,4.46,1.33,8.97,2.56,13.51,3.59,15.71,3.58,31.45,7.05,47.17,10.59,2.15.48,4.97.75,4.49,3.82-.51,3.3-3.36,2.54-5.64,2.26-4.53-.55-9.05-1.18-13.57-1.76-27.57-3.55-54.97-7.89-81.51-16.56-4.55-1.48-9.42-2.05-14.19-2.74-4.3-.62-7.05-3.08-7.49-7.54-.16-1.63-.14-3.32.1-4.94,3.19-21.26,1.4-42.39-1.01-63.58-1.65-14.54-2.87-29.2-3.09-43.82-.21-13.74,3.99-26.47,13.68-36.8,11.77-12.54,21.37-14.1,36.31-5.74,7.11,3.98,14.02,8.34,21.02,12.52,1.25.75,2.55,1.41,3.79,2.17,13.51,8.25,27.83,12.15,43.68,8.55,12.19-2.78,24.43-5.38,36.64-8.09.42-.09.78-.47,1.23-.74-1.53-2.95-3.15-5.71-4.45-8.61-3.44-7.72-6.83-15.45-10.03-23.27-1.01-2.48-2.2-3.52-5.05-3.62-4.14-.14-8.3-.89-12.34-1.85-1.19-.28-1.99-2.17-2.98-3.32,1.17-.95,2.24-2.48,3.55-2.73,2.74-.52,5.6-.35,8.41-.51,1.01-.06,2.01-.24,3.28-.4-.37-1.19-.57-2.02-.87-2.81-1.96-5.17-4.07-10.3-5.87-15.53-.8-2.31-2.14-3.26-4.46-3.3-6.21-.11-12.42-.3-18.63-.43-1.98-.04-3.84-.39-4.17-2.71-.33-2.36,1.38-3.37,3.31-3.65,5.17-.75,10.37-1.32,15.56-1.91.98-.11,1.98-.02,3.97-.02-4.3-7.97-8.19-15.1-11.99-22.29-1.33-2.53-3.27-3.4-6.08-3.59-10.86-.74-21.27,1.2-31.48,4.66-2.02.69-4.23,1.21-5.29-1.26-1.06-2.48.89-3.68,2.74-4.71,8.05-4.44,16.39-8.03,25.74-8.64.53-.03,1.05-.29,2.09-.59-1.26-1.09-2.12-1.98-3.12-2.67-4.78-3.32-9.55-6.67-14.43-9.84-3.37-2.19-6.78-4.73-11.22-2.58-.4.19-.96.04-1.44.05-12.14.4-23.34,3.68-33.24,10.91-1.65,1.2-3.26,2.44-4.93,3.62-1.56,1.1-3.51,1.76-4.59-.08-.63-1.07-.51-3.42.27-4.38,6.2-7.62,13.41-14.04,22.78-17.6.92-.35,1.81-.8,2.71-1.21-1.13-.89-2.13-1.18-3.15-1.39-8.38-1.71-16.78-1.31-25.24-.61-5.35.44-10.04,2.06-13.99,5.69-6.72,6.17-13.43,12.35-20.1,18.56-1.56,1.45-3.15,3.01-5.31,1.48-2.33-1.65-1.36-3.82-.2-5.69,2.92-4.69,5.95-9.31,8.93-13.97.34-.53.64-1.08,1.18-2-1.25,0-2.07-.01-2.9,0-5.82.11-11.64.25-17.46.33-8.24.11-16.07-1.56-23-6.19-3.57-2.38-6.66-2.15-10.11.12-6.79,4.46-14.4,6.16-22.45,6.05-6.02-.08-12.03-.22-18.05-.33-.79-.01-1.59,0-2.47,0,3.3,5.3,6.42,10.19,9.39,15.16,1.22,2.04,2.99,4.49.3,6.47-2.7,1.98-4.35-.61-6.11-2.2-7.42-6.69-14.78-13.44-22.35-19.96-1.6-1.38-3.89-2.35-6-2.7-10.11-1.69-20.27-2.21-30.41-.15-.97.2-1.92.51-3.51.93,1.03.61,1.39.91,1.81,1.06,9.18,3.18,16.43,9.04,22.69,16.27,1.58,1.83,4.28,3.77,1.75,6.4-2.36,2.45-4.47.08-6.29-1.38-10.87-8.7-23.27-13.03-37.15-13.23-.86-.01-1.72-.38-2.58-.35-1.65.05-3.63-.28-4.88.49-6.67,4.14-13.15,8.59-19.72,12.89-.78.51-1.68.83-2.53,1.23l.91,1.04c.36.1.71.28,1.07.3,9.04.54,17.19,3.8,25,8.12,2.06,1.14,5.08,2.07,3.78,5.21-1.31,3.15-4.09,1.71-6.33.96-10.15-3.39-20.5-5.12-31.24-4.21-2.15.18-3.69.9-4.71,2.81-3.2,5.99-6.46,11.95-9.63,17.95-.79,1.5-1.36,3.12-2.15,4.95.98.06,1.54.08,2.1.13,5.29.55,10.6,1.02,15.87,1.7,2.15.28,4.53.98,4.15,3.85-.35,2.62-2.62,2.7-4.76,2.71-4.37,0-8.74,0-13.11.13-8.04.25-8.04.29-10.87,7.75-1.74,4.6-3.49,9.19-5.44,14.35,4.13.21,7.77.38,11.4.6,1.96.12,3.81.62,3.95,3,.12,2.16-1.43,3.11-3.29,3.41-4.11.66-8.23,1.42-12.38,1.69-2.26.15-3.44.78-4.31,2.94-2.81,6.93-5.78,13.79-8.83,20.62-1.8,4.04-3.85,7.96-6,12.39,2.89.61,5.6,1.16,8.31,1.76,12.2,2.7,24.16,6.38,36.75,7.54,8.92.82,17.34,0,25.22-3.93,8.76-4.36,17.21-9.37,25.77-14.12,5.26-2.92,10.38-6.11,15.75-8.81,8.19-4.12,16.13-3.32,23.64,2,6.98,4.94,12.26,11.27,15.86,19.01,3.83,8.26,5.67,17.06,5.31,26.05-.52,13.08-1.46,26.17-2.86,39.18-2.21,20.58-4.85,41.11-1.81,61.83.44,2.96.65,6.01.54,9-.19,4.98-3.31,7.7-8.2,8.06-3.26.24-6.6.57-9.7,1.54-15.96,4.98-32.02,9.56-48.56,12.15-17.17,2.69-34.39,5.02-51.59,7.47-2.04.29-4.16.15-4.53-2.4-.35-2.34,1.51-3.11,3.41-3.58.47-.12.95-.21,1.42-.31,11.47-2.52,22.97-4.96,34.41-7.59,8.61-1.98,17.16-4.21,25.73-6.36,1.42-.36,2.85-.57,2.11-2.85-1.25-3.87-2.21-7.84-3.23-11.79-6.47-25.17-19.84-45.56-41.66-60.08-7.24-4.82-15.2-6.84-23.82-5.88-18.1,2.01-33.51,9.43-45.57,23.27-7.47,8.57-12.84,18.47-17.76,28.63-10.08,20.84-17.59,42.17-13.16,65.94.42,2.26.85,2.94,3.22,2.53,5.35-.93,10.74-1.71,16.15-2.22,12.42-1.18,24.85-1.55,37.02,1.89,13.99,3.95,21.48,12.93,22.41,27.43.41,6.36.22,12.84-.43,19.19-1.83,17.88-.64,35.49,3.8,52.89,2.04,8,4.05,16,6.11,23.99.52,2.02.8,4.11-1.54,4.96-2.57.93-3.63-1.04-4.39-3.07-2.42-6.46-4.82-12.92-7.23-19.37-7.67-20.52-10.97-41.61-8.43-63.5.45-3.85.57-7.75.6-11.63.1-14.37-5-20.54-19.1-23.31-.38-.07-.76-.14-1.15-.2-19.19-2.99-37.93.13-56.57,4.3-.94.21-2.23,1.6-2.28,2.51-.19,3.15-.35,6.43.29,9.49,1.2,5.69,3.01,11.25,4.47,16.89.5,1.94,1.29,2.23,3.1,1.37,4.29-2.04,8.56-4.24,13.05-5.7,11.48-3.73,22.91-3.96,33.94,1.82,3.15,1.65,4.42,3.96,3.75,6.48-.65,2.47-2.92,3.82-6.51,3.69-3.01-.11-6-.45-9.01-.55-8.54-.28-16.11,5.2-18.18,13.56-.8,3.24-.91,6.73-.83,10.09.08,3.48.8,6.93,1.19,10.41.2,1.79-.26,3.4-2.23,3.88-1.98.48-3.16-.73-3.75-2.43-2.9-8.48-5.62-16.99-4.58-26.17.07-.59-.16-1.21-.3-2.14-1.17.59-2.1.9-2.85,1.45-5.69,4.2-11.37,8.42-17.01,12.69-4.59,3.48-5.96,8.36-4.25,13.52,1.93,5.85,4.37,11.62,7.36,16.99,2.72,4.88,6.6,9.11,9.68,13.82.71,1.08.79,3.33.12,4.38-1.13,1.78-3.11,1.2-4.6-.02-9.14-7.51-17.66-15.54-22.23-26.85-.23-.56-.68-1.04-1.03-1.54-.37.22-.58.28-.69.41-.18.22-.36.47-.45.74-3.91,12.15-5.02,24.38.12,36.42,4.27,10.01,11.67,17.54,20.39,23.84,1.75,1.26,3.35,2.79,1.92,5.07-1.33,2.11-3.42,1.59-5.18.58-4.78-2.76-9.49-5.64-14.23-8.48-.74-.45-1.46-.94-2.18-1.42-.24.16-.48.32-.71.48,1.15,6.96,2.34,13.92,3.43,20.89,1.02,6.54,4.13,11.92,9.18,16.07,3.06,2.51,6.31,4.87,9.75,6.81,3.45,1.95,7.23,3.3,10.87,4.9,1.74.76,3.13,1.86,2.63,3.96-.5,2.1-2.27,2.73-4.11,2.28-6.3-1.51-12.55-3.19-18.81-4.85-.97-.26-1.88-.78-3.39-1.42.24,1.54.31,2.47.53,3.37.91,3.68,2.17,7.29,2.74,11.02,1.05,6.91,4.92,11.64,10.2,15.92,9.23,7.47,18.99,12.1,31.13,8.52.09-.03.19-.03.29-.05,1.78-.23,3.43.01,4,1.98.57,1.95-.61,3.14-2.25,3.87-10.24,4.53-20.56,5.5-30.98.58-.92-.43-1.86-.81-3.19-1.39.1,1.07.04,1.64.21,2.15,2.43,7.17,4.78,14.38,7.43,21.47.59,1.59,2.05,3.08,3.48,4.1,8.76,6.21,18.55,9.15,29.32,8.69,2.12-.09,4.4.03,4.77,2.67.4,2.83-1.91,3.45-4.05,4-7.33,1.86-14.71,2.61-22.21,1.05-.6-.12-1.25-.02-2.77-.02,2.31,3.63,4.25,6.7,6.21,9.75,3.03,4.72,7.49,6.9,12.97,7.16,2.03.1,4.08.12,6.11,0,28-1.79,55.73.2,83.05,6.53,10.75,2.49,21.37,5.79,31.78,9.47,15.48,5.47,27.8,15.26,36.77,29.13,4.59,7.09,10.04,13.33,17.57,17.5,6.82,3.78,12.3,8.89,16.65,15.5,2.85,4.33,6.57,8.4,12.03,9.57,5.44,1.17,10.94,1.31,16.42-.4,2.46-.77,5.26-1.53,7.68-1.08,3.13.58,5.96.34,9.05.01,2.95-.32,6.07.87,9.12,1.42,14.2,2.57,20.2.08,27.69-10.5,3.85-5.44,8.25-10.06,14.01-13.29,7.71-4.31,14.02-10.07,18.7-17.55,10.26-16.43,25.22-26.54,43.3-32.58,31.56-10.54,64.01-14.94,97.21-14.18,5.72.13,11.46.63,17.17.47,8.94-.25,17.18-7.64,19.2-16.95-.8.04-1.54-.02-2.24.12-7.2,1.41-14.31.78-21.36-.99-2.25-.56-5.09-.87-4.66-4.07.42-3.2,3.28-2.78,5.57-2.71,10.47.31,19.98-2.57,28.46-8.64,1.63-1.17,3.16-2.99,3.87-4.84,2.51-6.52,4.66-13.18,6.9-19.8.28-.83.34-1.73.59-3.02-1.19.42-1.84.58-2.42.87-10.51,5.23-21.02,4.54-31.53.02-1.83-.79-3.37-1.91-2.62-4.17.69-2.11,2.52-2.14,4.36-1.81.95.17,1.9.38,2.85.59,7.52,1.6,14.57.3,20.87-3.99,4.32-2.94,8.43-6.23,12.33-9.7,1.64-1.46,2.96-3.66,3.62-5.78,1.78-5.74,3.14-11.62,4.63-17.45.17-.66.09-1.39.15-2.46-1.22.51-1.98.93-2.79,1.15-6.44,1.73-12.87,3.49-19.35,5.08-1.83.45-3.61-.15-4.14-2.25-.53-2.11.84-3.23,2.59-3.97,1.43-.6,2.96-1.02,4.32-1.75,4.68-2.54,9.55-4.82,13.89-7.86,6.59-4.63,10.85-10.96,11.96-19.21.8-5.96,1.92-11.89,2.85-17.83.12-.79.02-1.61.02-2.97-1.22.88-1.94,1.48-2.74,1.96-4.74,2.84-9.45,5.71-14.25,8.44-1.77,1-3.87,1.47-5.12-.75-1.21-2.15.22-3.6,1.85-4.9,2.74-2.17,5.52-4.3,8.1-6.64,15.3-13.89,18.71-31.06,13.75-50.48-.39-1.53-1.12-2.97-1.7-4.48-.61.3-.87.33-.94.47-.41.77-.79,1.55-1.14,2.34-4.78,10.84-13.1,18.66-22.13,25.84-.85.67-2.64.75-3.72.35-.72-.27-1.37-1.87-1.31-2.84.06-1.04.88-2.09,1.53-3.03,3.74-5.43,8.01-10.57,11.14-16.33,2.6-4.77,4.24-10.17,5.63-15.47,1.11-4.2-.39-8.17-3.91-10.93-5.8-4.53-11.73-8.9-17.65-13.28-.79-.59-1.82-.87-3-1.42ZM488.81,680.47c-1.69.59-2.76.92-3.8,1.33-9.07,3.53-18.5,4.28-28.08,3.4-1.3-.12-3.06-1.48-3.54-2.69-.76-1.9.83-3.18,2.6-3.89.72-.29,1.48-.49,2.2-.77,8.85-3.49,17.7-6.95,26.52-10.51,1.33-.54,2.62-1.34,3.68-2.29.62-.55.75-1.64,1.1-2.49-.79-.18-1.62-.6-2.37-.5-2.88.39-5.77.83-8.61,1.46-16.65,3.71-31.19,12.22-45.89,20.34-.62.34-1.31,1.75-1.08,2.28,3.15,7.29,2.43,14.85,1.79,22.41-.47,5.56,1.98,9.27,6.89,11.65,2.7,1.31,5.5,2.54,7.94,4.25,5.66,3.95,5.45,10.35-.27,13.97-3.94,2.49-7.88,4.98-11.81,7.48-7.65,4.86-14.03,10.96-18.71,18.82-2.38,4-5.07,7.82-7.61,11.73-12.57,19.33-30.29,30.41-53.17,33.4-13.02,1.7-25.62,1.54-36.86-6.57-1.82-1.31-3.42-.73-5.07.39-5.05,3.44-10.52,6.05-16.64,6.52-21.18,1.64-40.76-2.59-57.55-16.41-9.23-7.59-15.69-17.45-21.76-27.52-5.5-9.13-12.78-16.27-21.85-21.74-3.66-2.21-7.26-4.51-10.82-6.86-3.35-2.21-3.73-4.18-2.64-7.95,1.12-3.87,3.83-5.86,7.16-7.51,11.43-5.66,11.75-6.3,10.75-19.12-.43-5.48-.2-10.9,2.01-16.02.83-1.92.1-2.82-1.53-3.66-6.97-3.64-13.85-7.45-20.86-11-9.94-5.03-20.4-8.56-31.45-10.17-1.26-.18-2.56-.02-4.08-.02.35,2.94,2.31,3.97,4.22,4.75,9.44,3.84,18.92,7.56,28.4,11.29,1.97.77,4.03,1.54,3.69,4.14-.34,2.6-2.49,2.89-4.62,3.02-9.81.58-19.4-.3-28.54-4.22-.5-.22-1.07-.28-1.95-.5-.09,1.14-.26,2.07-.21,2.99.21,4.27.58,8.53.7,12.79.06,2.15,1.02,3.07,3,3.59,3.66.95,7.28,2.09,10.9,3.19,1.95.6,3.78,1.51,3.49,3.96-.26,2.21-2.02,3.01-3.99,3.13-3.28.21-6.59.54-9.85.29-2.46-.19-3.04.56-2.99,2.83.14,7.67.18,15.34.15,23.01,0,2.14.69,3.46,2.84,4.09,7.16,2.08,14.28,4.28,21.44,6.37,1.87.54,3.66,1.13,3.77,3.41.11,2.26-1.5,3.2-3.41,3.73-7.19,2.03-14.45,3.1-21.82,1-1.88-.54-2.78-.13-2.74,1.93.08,5.05.02,10.1.25,15.14.05,1.04.87,2.49,1.75,2.97,6.44,3.48,13.23,6.19,20.53,7.1,7.7.95,15.44,1.52,23.17,2.23,1.98.18,4.07.76,3.98,2.94-.05,1.38-1.58,2.76-2.59,4.02-.38.48-1.18.63-1.81.9-13.86,6.11-27.58,5.24-41.2-.82-.9-.4-1.85-.71-2.8-1.07-.25.67-.45.95-.43,1.21.47,6.97.9,13.95,1.52,20.91.08.85.96,1.95,1.77,2.37,10.37,5.32,21.34,8.93,32.87,10.42,9.9,1.28,19.88,1.98,29.84,2.89,2.05.19,4.08.47,4.34,2.95.28,2.69-1.79,3.37-3.89,3.8-1.81.37-3.62.72-5.44,1.01-18.65,2.99-36.96,2.41-54.61-5.16-.45-.19-1.03-.09-1.73-.14.09.72.07,1.21.22,1.65,3.6,10.77,10.24,18.4,21.76,20.91,2.56.56,5.14,1.11,7.75,1.32,14.61,1.21,29.26,1.96,43.82,3.58,11.57,1.28,23.04.9,34.58.2,8.04-.48,16.11-.61,24.16-.52,6.01.07,12.01.7,18.01,1.18,1.79.14,3.25,1.07,3.2,3.1-.05,2.04-1.56,2.77-3.35,2.96-1.25.14-2.52.15-3.78.21-8.53.38-17.07.76-25.6,1.16-.85.04-1.69.23-3.03.42,10.49,5.12,20.45,9.69,30.14,14.78,10.95,5.75,21.52,5.76,32.5.03,9.46-4.94,19.24-9.26,28.87-13.86.31-.15.54-.44,1.24-1.04-1.42-.16-2.33-.31-3.25-.35-8.92-.41-17.85-.76-26.77-1.21-2.34-.12-5.52.34-5.64-3.06-.13-3.44,3.06-3.34,5.4-3.38,13.57-.22,27.15-.4,40.73-.39,8.24,0,16.49.75,24.71.49,9.01-.29,18.01-1.26,26.99-2.11,11.1-1.05,22.26-1.85,33.27-3.54,11.52-1.78,18.25-9.53,21.96-20.18.25-.72.25-1.54.41-2.62-3.88,1.36-7.19,2.73-10.62,3.69-16.72,4.7-33.57,4.48-50.46,1.02-2.23-.46-4.8-.8-4.64-3.78.17-3.03,2.78-3,5.05-3.12.48-.02.97-.05,1.45-.07,20.65-1.1,41.07-3.17,59.9-12.84,1.72-.88,2.58-1.8,2.7-3.63.43-6.3.92-12.59,1.34-18.88.05-.71-.19-1.44-.29-2.07-.48-.08-.69-.18-.84-.12-.72.29-1.42.62-2.13.93-14.36,6.38-28.71,6.88-43.06-.05-1.81-.87-3.44-2.27-2.53-4.24.58-1.25,2.45-2.37,3.91-2.65,2.74-.52,5.61-.35,8.41-.55,12.09-.82,23.98-2.53,34.73-8.63,1.11-.63,2.28-2.21,2.35-3.42.31-4.94.18-9.9.26-14.85.03-1.95-.68-2.61-2.67-2.05-7.26,2.03-14.43,1.06-21.55-.88-1.99-.54-3.85-1.31-3.84-3.7.01-2.62,2.15-3.05,4.18-3.64,7.16-2.08,14.28-4.29,21.42-6.41,1.9-.56,2.56-1.81,2.56-3.69.02-7.87.04-15.73.18-23.59.04-2.34-.91-2.61-3.01-2.51-3.47.15-6.96-.1-10.43-.37-1.86-.15-3.71-1.17-3.39-3.21.2-1.3,1.55-2.87,2.79-3.48,2.33-1.13,4.96-1.66,7.46-2.42,8.2-2.47,6.71-.57,7.3-9.2.25-3.63.36-7.28.56-11.47ZM250.36,197.74c-.3-.02-.6-.03-.91-.05,0-4.07.01-8.15,0-12.22-.04-9.35-5.54-14.47-13.66-17.5-8.46-3.16-16.59-1.39-24.24,2.38-11.34,5.58-23.35,8.91-35.52,11.94-17.93,4.46-35.27,1.34-51.97-4.8-13.68-5.03-27.55-7.88-41.94-8.99-4.45-.34-8.19,1.05-11.46,4-7.11,6.44-13.7,13.41-17.39,22.36-5.21,12.64-10.27,25.37-14.59,38.33-9.06,27.17-17.87,54.42-26.16,81.83-2.56,8.46-3.71,17.48-4.37,26.33-.7,9.45,2.81,12.63,12.19,11.38,9.41-1.25,18.67-3.56,28-5.39,1.64-.32,1.9-1.21,1.54-2.75-.61-2.55-1.13-5.13-1.44-7.72-.25-2.03-1.32-2.58-3.18-3.04-6.58-1.63-13.1-3.48-19.62-5.34-2.06-.59-3.95-1.68-3.54-4.24.41-2.58,2.54-2.93,4.7-2.87,6.01.17,12.03.26,18.04.65,2.3.15,3.04-.53,3.31-2.76.48-3.94,1.25-7.86,2.03-11.76.32-1.6,0-2.32-1.65-3.03-5.7-2.43-11.29-5.12-16.88-7.78-1.93-.92-3.69-2.28-2.77-4.74.91-2.46,3.14-2.28,5.21-1.81,5.86,1.34,11.73,2.65,17.54,4.19,1.86.49,2.65.06,3.27-1.63,1.04-2.82,2.05-5.69,3.46-8.33,1.36-2.57.9-3.85-1.72-5.16-5.73-2.89-10.27-7.33-14.04-12.45-.77-1.05-1-3.47-.31-4.36.7-.9,2.83-.79,4.35-.9.59-.04,1.24.51,1.83.83,4.68,2.57,9.38,5.1,14.01,7.76,1.49.86,2.34.81,3.26-.77,2.57-4.45,5.24-8.86,7.98-13.2.94-1.48.56-2.25-.6-3.42-4.16-4.19-8.17-8.52-12.16-12.88-1.37-1.5-2.32-3.37-.71-5.23,1.74-2.01,3.73-1.09,5.49.1,4.35,2.92,8.79,5.74,12.9,8.97,2.24,1.76,3.34,1.47,5.11-.57,11.31-13.06,25.27-21.98,42.09-26.21,10.74-2.7,21.63-3.8,32.02.84,19.02,8.5,34.43,21.19,44.5,39.85,6.74,12.48,9.49,26.25,13.12,39.72.76,2.81,1.64,3.31,4.31,2.43,8.01-2.64,16.06-5.22,24.21-7.41,2.64-.71,3.48-1.42,2.93-4.19-2.86-14.4-3.19-28.84-1.34-43.46,1.97-15.59,3.21-31.28,4.77-46.93ZM598.79,321.37c3.25,0,6.36,0,9.47,0,2.17,0,4.25.33,4.66,2.92.37,2.4-1.33,3.55-3.3,4.12-6.61,1.89-13.22,3.78-19.89,5.45-1.75.44-2.75.99-3.01,2.87-.38,2.69-.91,5.36-1.52,8-.32,1.38-.18,2.27,1.36,2.58,9.32,1.85,18.59,4.17,27.99,5.43,9.59,1.28,13.06-1.85,12.33-11.49-.68-8.94-2.07-17.97-4.4-26.63-10.01-37.25-23.11-73.52-36-109.84-4.24-11.93-10.99-22.47-20.55-31.03-3.25-2.91-6.6-5.45-11.28-5.26-12.88.52-25.73,2.04-37.62,6.96-10.95,4.53-22.23,6.83-33.79,8.27-4.78.6-9.79,1.02-14.49.27-14.69-2.37-28.99-6.16-42.62-12.45-5.2-2.4-10.94-4.23-16.61-4.93-12.97-1.6-23.06,7.25-23.96,20.15-.07,1.06-.19,2.14-.13,3.2.73,12.78,1.11,25.6,2.32,38.33,1.82,19.22,5.11,38.34.86,57.67-1.18,5.37-.74,5.23,4.63,6.77,7.65,2.19,15.2,4.7,22.76,7.19,2.07.68,2.9.26,3.42-1.93,1.46-6.14,3.19-12.21,4.76-18.32,6.54-25.41,21.36-44.4,44-57.61,11-6.42,22.47-8.7,34.96-6.46,19.4,3.48,35.42,12.83,48.3,27.64,1.69,1.94,2.72,2.24,4.89.54,4.27-3.34,8.87-6.27,13.37-9.31,1.64-1.11,3.47-1.63,5.01.08,1.52,1.69.94,3.52-.39,4.99-4.02,4.45-8.05,8.9-12.28,13.16-1.31,1.32-1.49,2.14-.52,3.66,2.66,4.17,5.25,8.39,7.69,12.7,1.02,1.8,1.87,1.99,3.64.95,4.69-2.75,9.48-5.31,14.26-7.91,1.95-1.06,4.09-1.95,5.78.23,1.57,2.03.29,3.82-1.07,5.46-4,4.82-8.48,9.1-14.14,11.93-1.73.86-2.21,1.79-1.32,3.66,1.45,3.07,2.7,6.24,3.89,9.42.65,1.74,1.51,2.02,3.31,1.54,5.91-1.55,11.87-2.89,17.83-4.24,2.02-.46,4.05-.32,4.82,2.03.71,2.16-.68,3.54-2.45,4.39-5.67,2.73-11.34,5.46-17.1,7.98-1.57.69-2.06,1.33-1.73,3,.82,4.09,1.57,8.2,2.13,12.33.26,1.94,1.1,2.41,2.89,2.22,2.99-.31,6-.45,8.86-.66ZM197.99,732.72c.82.75,1.4,1.36,2.05,1.86,8.7,6.64,17.4,13.29,26.15,19.87,2.48,1.87,5.1,3.55,7.69,5.26,6.12,4.04,12.84,6.27,20.16,6.92,6.96.61,13.91,1.39,20.84,2.29,12.15,1.58,22.97,6.17,32.17,14.43,4.94,4.43,16.19,4.3,21.17-.15,8.42-7.52,18.26-12.08,29.35-13.83,6.23-.99,12.51-1.96,18.79-2.2,12.05-.47,22.47-4.8,31.79-12.16,2.74-2.16,5.38-4.47,8.17-6.57,2.93-2.21,6.04-4.2,8.99-6.39,3.93-2.93,7.78-5.96,12.05-9.24-7.35-4.07-14.15-8.13-22.37-5.71-5.09,1.5-10.05,3.57-14.88,5.79-7.03,3.23-14.18,5.86-21.98,6.27-5.14.27-10.2-.22-14.46-3.34-1.94-1.42-2.89-.96-4.31.51-4.24,4.42-9.53,6.45-15.62,6.78-9.53.51-18.07-2.59-25.99-6.48-15.29,6.37-30.18,12.04-44.29-2.18-6.47,5.22-13.9,5.71-21.39,4.06-5.63-1.25-11.08-3.45-16.52-5.46-4.36-1.61-8.53-3.75-12.89-5.35-9.08-3.33-16.81.34-24.69,5.05Z" style="fill: #000; stroke-width: 0px;"/>
  <path d="M571.58,398.8c1.18.55,2.21.83,3,1.42,5.92,4.38,11.85,8.75,17.65,13.28,3.52,2.75,5.02,6.73,3.91,10.93-1.4,5.3-3.03,10.69-5.63,15.47-3.14,5.76-7.4,10.9-11.14,16.33-.65.94-1.47,1.99-1.53,3.03-.05.97.59,2.57,1.31,2.84,1.08.4,2.87.32,3.72-.35,9.03-7.17,17.35-15,22.13-25.84.35-.79.74-1.57,1.14-2.34.07-.13.33-.17.94-.47.58,1.51,1.31,2.95,1.7,4.48,4.96,19.42,1.55,36.59-13.75,50.48-2.58,2.34-5.37,4.47-8.1,6.64-1.63,1.29-3.06,2.75-1.85,4.9,1.25,2.21,3.35,1.75,5.12.75,4.8-2.73,9.52-5.6,14.25-8.44.8-.48,1.52-1.08,2.74-1.96,0,1.36.11,2.19-.02,2.97-.94,5.95-2.05,11.87-2.85,17.83-1.11,8.24-5.37,14.58-11.96,19.21-4.33,3.04-9.21,5.32-13.89,7.86-1.36.73-2.88,1.15-4.32,1.75-1.75.73-3.12,1.86-2.59,3.97.53,2.09,2.31,2.7,4.14,2.25,6.47-1.59,12.91-3.35,19.35-5.08.81-.22,1.57-.64,2.79-1.15-.06,1.07.02,1.8-.15,2.46-1.49,5.83-2.85,11.71-4.63,17.45-.66,2.12-1.98,4.32-3.62,5.78-3.9,3.48-8.02,6.77-12.33,9.7-6.3,4.29-13.35,5.59-20.87,3.99-.95-.2-1.9-.41-2.85-.59-1.84-.33-3.67-.3-4.36,1.81-.74,2.26.79,3.39,2.62,4.17,10.51,4.52,21.02,5.21,31.53-.02.59-.29,1.24-.45,2.42-.87-.24,1.29-.31,2.19-.59,3.02-2.25,6.62-4.39,13.28-6.9,19.8-.71,1.85-2.24,3.67-3.87,4.84-8.48,6.07-17.99,8.95-28.46,8.64-2.29-.07-5.15-.49-5.57,2.71-.42,3.2,2.42,3.5,4.66,4.07,7.05,1.77,14.15,2.39,21.36.99.7-.14,1.44-.08,2.24-.12-2.02,9.31-10.27,16.7-19.2,16.95-5.71.16-11.44-.34-17.17-.47-33.2-.76-65.65,3.64-97.21,14.18-18.08,6.04-33.04,16.15-43.3,32.58-4.67,7.49-10.98,13.24-18.7,17.55-5.77,3.22-10.17,7.85-14.01,13.29-7.49,10.58-13.49,13.07-27.69,10.5-3.04-.55-6.16-1.73-9.12-1.42-3.09.33-5.92.57-9.05-.01-2.42-.45-5.22.31-7.68,1.08-5.48,1.71-10.98,1.57-16.42.4-5.46-1.17-9.18-5.25-12.03-9.57-4.35-6.61-9.82-11.72-16.65-15.5-7.53-4.17-12.98-10.41-17.57-17.5-8.97-13.87-21.3-23.66-36.77-29.13-10.41-3.68-21.03-6.98-31.78-9.47-27.32-6.33-55.05-8.32-83.05-6.53-2.03.13-4.08.1-6.11,0-5.48-.26-9.94-2.45-12.97-7.16-1.96-3.05-3.9-6.12-6.21-9.75,1.52,0,2.17-.11,2.77.02,7.5,1.56,14.88.8,22.21-1.05,2.14-.54,4.46-1.16,4.05-4-.38-2.64-2.66-2.76-4.77-2.67-10.77.46-20.56-2.48-29.32-8.69-1.43-1.01-2.89-2.51-3.48-4.1-2.65-7.09-5-14.3-7.43-21.47-.17-.5-.12-1.08-.21-2.15,1.34.58,2.28.95,3.19,1.39,10.42,4.92,20.74,3.95,30.98-.58,1.65-.73,2.83-1.92,2.25-3.87-.58-1.97-2.22-2.22-4-1.98-.1.01-.19.02-.29.05-12.14,3.58-21.91-1.05-31.13-8.52-5.28-4.27-9.15-9.01-10.2-15.92-.57-3.73-1.83-7.34-2.74-11.02-.22-.89-.29-1.82-.53-3.37,1.51.64,2.42,1.16,3.39,1.42,6.26,1.66,12.52,3.34,18.81,4.85,1.84.44,3.61-.19,4.11-2.28.5-2.1-.89-3.2-2.63-3.96-3.64-1.6-7.43-2.95-10.87-4.9-3.44-1.94-6.69-4.3-9.75-6.81-5.05-4.15-8.15-9.53-9.18-16.07-1.09-6.97-2.28-13.93-3.43-20.89.24-.16.48-.32.71-.48.73.47,1.44.97,2.18,1.42,4.73,2.84,9.44,5.73,14.23,8.48,1.76,1.02,3.86,1.54,5.18-.58,1.43-2.29-.17-3.81-1.92-5.07-8.72-6.31-16.12-13.83-20.39-23.84-5.13-12.04-4.02-24.27-.12-36.42.09-.27.26-.52.45-.74.11-.14.31-.2.69-.41.34.5.8.97,1.03,1.54,4.56,11.31,13.09,19.34,22.23,26.85,1.48,1.22,3.47,1.8,4.6.02.67-1.05.58-3.3-.12-4.38-3.07-4.71-6.96-8.93-9.68-13.82-2.99-5.37-5.43-11.14-7.36-16.99-1.71-5.17-.34-10.04,4.25-13.52,5.64-4.28,11.32-8.49,17.01-12.69.75-.56,1.68-.87,2.85-1.45.14.93.37,1.55.3,2.14-1.04,9.18,1.68,17.69,4.58,26.17.58,1.71,1.77,2.92,3.75,2.43,1.97-.48,2.43-2.09,2.23-3.88-.38-3.47-1.1-6.93-1.19-10.41-.08-3.36.03-6.85.83-10.09,2.06-8.36,9.64-13.84,18.18-13.56,3.01.1,6,.44,9.01.55,3.59.13,5.86-1.22,6.51-3.69.67-2.52-.6-4.83-3.75-6.48-11.02-5.78-22.46-5.55-33.94-1.82-4.5,1.46-8.76,3.66-13.05,5.7-1.81.86-2.6.57-3.1-1.37-1.46-5.64-3.27-11.2-4.47-16.89-.64-3.06-.48-6.33-.29-9.49.05-.91,1.35-2.3,2.28-2.51,18.64-4.17,37.38-7.28,56.57-4.3.38.06.77.12,1.15.2,14.1,2.76,19.2,8.94,19.1,23.31-.03,3.88-.16,7.78-.6,11.63-2.54,21.89.76,42.98,8.43,63.5,2.41,6.46,4.82,12.92,7.23,19.37.76,2.03,1.83,4,4.39,3.07,2.34-.85,2.06-2.94,1.54-4.96-2.06-7.99-4.08-15.99-6.11-23.99-4.43-17.4-5.62-35.01-3.8-52.89.65-6.35.83-12.82.43-19.19-.93-14.5-8.42-23.48-22.41-27.43-12.17-3.43-24.6-3.06-37.02-1.89-5.41.51-10.8,1.3-16.15,2.22-2.37.41-2.8-.27-3.22-2.53-4.43-23.77,3.08-45.11,13.16-65.94,4.92-10.16,10.29-20.06,17.76-28.63,12.06-13.84,27.47-21.26,45.57-23.27,8.62-.96,16.59,1.06,23.82,5.88,21.82,14.52,35.18,34.91,41.66,60.08,1.01,3.95,1.98,7.91,3.23,11.79.73,2.28-.69,2.49-2.11,2.85-8.57,2.14-17.12,4.37-25.73,6.36-11.45,2.64-22.94,5.07-34.41,7.59-.47.1-.95.2-1.42.31-1.9.47-3.76,1.24-3.41,3.58.38,2.55,2.49,2.69,4.53,2.4,17.2-2.46,34.43-4.78,51.59-7.47,16.53-2.59,32.6-7.18,48.56-12.15,3.1-.97,6.44-1.3,9.7-1.54,4.88-.36,8.01-3.08,8.2-8.06.11-2.99-.1-6.03-.54-9-3.04-20.73-.41-41.25,1.81-61.83,1.4-13.02,2.34-26.1,2.86-39.18.36-8.99-1.47-17.79-5.31-26.05-3.59-7.74-8.88-14.07-15.86-19.01-7.51-5.32-15.44-6.11-23.64-2-5.37,2.7-10.49,5.89-15.75,8.81-8.57,4.76-17.01,9.76-25.77,14.12-7.88,3.92-16.31,4.75-25.22,3.93-12.59-1.16-24.54-4.83-36.75-7.54-2.71-.6-5.42-1.15-8.31-1.76,2.15-4.42,4.2-8.35,6-12.39,3.04-6.83,6.02-13.69,8.83-20.62.87-2.15,2.05-2.78,4.31-2.94,4.15-.28,8.26-1.03,12.38-1.69,1.86-.3,3.41-1.25,3.29-3.41-.14-2.38-1.98-2.88-3.95-3-3.63-.22-7.26-.38-11.4-.6,1.95-5.15,3.7-9.75,5.44-14.35,2.83-7.46,2.83-7.5,10.87-7.75,4.37-.14,8.74-.12,13.11-.13,2.14,0,4.41-.09,4.76-2.71.38-2.87-2-3.57-4.15-3.85-5.28-.68-10.58-1.15-15.87-1.7-.56-.06-1.11-.07-2.1-.13.79-1.83,1.36-3.45,2.15-4.95,3.18-6,6.43-11.96,9.63-17.95,1.02-1.9,2.56-2.62,4.71-2.81,10.74-.9,21.09.83,31.24,4.21,2.24.75,5.02,2.2,6.33-.96,1.3-3.14-1.72-4.07-3.78-5.21-7.8-4.32-15.96-7.58-25-8.12-.36-.02-.71-.2-1.07-.3l-.91-1.04c.85-.41,1.75-.72,2.53-1.23,6.57-4.31,13.05-8.75,19.72-12.89,1.25-.78,3.23-.44,4.88-.49.86-.03,1.72.34,2.58.35,13.89.2,26.28,4.53,37.15,13.23,1.83,1.46,3.93,3.83,6.29,1.38,2.53-2.63-.16-4.57-1.75-6.4-6.26-7.23-13.52-13.1-22.69-16.27-.42-.14-.78-.45-1.81-1.06,1.59-.42,2.54-.73,3.51-.93,10.14-2.06,20.3-1.54,30.41.15,2.11.35,4.4,1.32,6,2.7,7.56,6.52,14.93,13.27,22.35,19.96,1.76,1.59,3.41,4.18,6.11,2.2,2.7-1.98.92-4.43-.3-6.47-2.97-4.98-6.1-9.86-9.39-15.16.88,0,1.68-.01,2.47,0,6.02.11,12.03.25,18.05.33,8.05.11,15.66-1.59,22.45-6.05,3.45-2.27,6.55-2.5,10.11-.12,6.92,4.62,14.75,6.29,23,6.19,5.82-.08,11.64-.22,17.46-.33.83-.02,1.65,0,2.9,0-.54.92-.85,1.48-1.18,2-2.98,4.65-6.01,9.28-8.93,13.97-1.16,1.87-2.13,4.04.2,5.69,2.15,1.52,3.75-.03,5.31-1.48,6.68-6.21,13.39-12.39,20.1-18.56,3.95-3.63,8.64-5.24,13.99-5.69,8.45-.7,16.86-1.1,25.24.61,1.02.21,2.02.5,3.15,1.39-.9.41-1.79.86-2.71,1.21-9.37,3.56-16.58,9.98-22.78,17.6-.78.96-.91,3.3-.27,4.38,1.09,1.84,3.04,1.18,4.59.08,1.66-1.18,3.28-2.42,4.93-3.62,9.9-7.24,21.1-10.51,33.24-10.91.49-.02,1.05.14,1.44-.05,4.44-2.15,7.85.39,11.22,2.58,4.89,3.16,9.65,6.52,14.43,9.84,1,.69,1.86,1.58,3.12,2.67-1.04.3-1.56.55-2.09.59-9.34.61-17.68,4.2-25.74,8.64-1.85,1.02-3.8,2.23-2.74,4.71,1.06,2.47,3.27,1.95,5.29,1.26,10.21-3.47,20.62-5.4,31.48-4.66,2.81.19,4.75,1.07,6.08,3.59,3.79,7.19,7.69,14.32,11.99,22.29-2,0-3-.1-3.97.02-5.19.59-10.39,1.16-15.56,1.91-1.93.28-3.64,1.29-3.31,3.65.33,2.33,2.19,2.67,4.17,2.71,6.21.13,12.42.32,18.63.43,2.33.04,3.67.99,4.46,3.3,1.81,5.23,3.91,10.35,5.87,15.53.3.79.5,1.62.87,2.81-1.27.16-2.27.35-3.28.4-2.81.16-5.68-.01-8.41.51-1.31.25-2.37,1.78-3.55,2.73.98,1.15,1.79,3.04,2.98,3.32,4.04.96,8.2,1.72,12.34,1.85,2.85.09,4.04,1.14,5.05,3.62,3.19,7.82,6.59,15.56,10.03,23.27,1.29,2.9,2.91,5.66,4.45,8.61-.44.28-.81.65-1.23.74-12.21,2.71-24.44,5.31-36.64,8.09-15.85,3.61-30.18-.3-43.68-8.55-1.24-.76-2.54-1.43-3.79-2.17-7-4.18-13.91-8.54-21.02-12.52-14.94-8.36-24.54-6.8-36.31,5.74-9.69,10.33-13.89,23.05-13.68,36.8.22,14.62,1.44,29.28,3.09,43.82,2.41,21.2,4.2,42.33,1.01,63.58-.24,1.62-.26,3.31-.1,4.94.44,4.46,3.19,6.92,7.49,7.54,4.77.69,9.64,1.26,14.19,2.74,26.55,8.67,53.94,13.01,81.51,16.56,4.53.58,9.04,1.21,13.57,1.76,2.28.28,5.13,1.04,5.64-2.26.48-3.07-2.34-3.33-4.49-3.82-15.72-3.54-31.46-7.01-47.17-10.59-4.54-1.03-9.04-2.26-13.51-3.59-.78-.23-1.95-1.61-1.81-2.14,2.33-8.41,4.38-16.94,7.4-25.11,7.29-19.7,19.8-35.46,37.31-47.18,7.97-5.33,16.7-7.14,26.11-5.77,20.69,3.01,37.29,12.8,48.98,30.29,11.86,17.75,20.61,36.93,25.38,57.82,2.34,10.24.96,20.49-.1,30.73-.21,2.03-1.6,1.44-2.83,1.3-8.39-.96-16.76-2.34-25.17-2.71-7.14-.32-14.34.32-21.48.96-3.34.3-6.67,1.34-9.86,2.46-10.89,3.83-17.34,11.58-18.89,22.99-.7,5.16-1.17,10.55-.46,15.66,3.79,27.49-.79,54-8.55,80.21-.44,1.49-.83,2.99-1.18,4.51-.42,1.78-.14,3.44,1.76,4.1,2.06.71,3.34-.52,4.04-2.34,2-5.16,4.01-10.32,5.91-15.51,5.06-13.8,9.78-27.74,10.52-42.54.44-8.7-.22-17.45-.4-26.18-.11-5.14-.59-10.3-.34-15.42.47-9.56,4.63-14.69,13.82-17.6,10.1-3.2,20.54-3.34,30.88-2.26,10.31,1.08,20.52,3.12,30.78,4.67,2.29.34,3.63,1.52,3.63,3.76,0,2.98.09,6.05-.54,8.93-1.23,5.59-3,11.05-4.43,16.6-.7,2.7-2.07,1.84-3.65.98-9.18-5.01-18.84-8.22-29.45-7.94-6.03.16-11.72,1.57-17.04,4.41-3.09,1.65-4.42,4.06-3.74,6.5.69,2.45,2.99,3.8,6.55,3.66,3.01-.12,6-.46,9.01-.55,9.15-.28,16.93,5.88,18.51,14.96.57,3.31.49,6.76.36,10.14-.11,2.9-.73,5.77-1.1,8.66-.24,1.89.03,3.65,2.17,4.17,2.12.51,3.24-.88,3.86-2.69,2.87-8.39,5.55-16.81,4.56-25.88-.06-.54.09-1.11.18-2.13ZM394.1,648.36c21.23-.95,39.04-10.23,54.77-23.63,7.57-6.45,14.07-14.2,20.86-21.54,8.6-9.31,15.27-19.89,19.21-31.97,3.07-9.42,2.49-18.76-4.53-26.25-9.59-10.22-21.65-14.08-35.51-11.13-2.57.55-5.08,1.92-7.32,3.38-1.89,1.23-2.61,3.39-1.71,5.69.91,2.29,2.82,3.18,5.14,3,1.73-.14,3.43-.61,5.15-.94,7.36-1.42,14.29-.64,20.54,3.89,6.03,4.37,7.94,10.48,5.36,17.4-3.46,9.27-8.49,17.64-14.65,25.37-12.49,15.68-26.71,29.35-45.36,37.46-18.28,7.94-35.2,5.21-50.54-7.56-8.93-7.44-15.56-16.71-21.75-26.41-1.95-3.05-4.63-5.68-7.19-8.28-1.72-1.74-3.95-2.6-6.35-1.15-2.38,1.43-2.82,3.83-2.08,6.14,1.3,4.03,2.47,8.29,4.71,11.8,3.9,6.12,8.61,11.72,12.89,17.6.57.79,1.19,2.45.83,2.87-3.17,3.65-6.47,7.21-9.93,10.59-3.44,3.37-8.12,3.43-12.51,3.96-8.47,1.03-17.02,1.19-24.53-3.4-3.52-2.15-6.13-5.83-9.05-8.92-2.91-3.07-2.7-3-.23-6.24,4.35-5.71,8.86-11.35,12.58-17.46,2.15-3.53,3.09-7.88,4.21-11.95.57-2.08-.31-4.42-2.5-5.01-1.63-.44-4.15-.29-5.3.72-2.95,2.58-5.8,5.49-7.89,8.78-6.4,10.05-13.32,19.62-22.69,27.13-14.76,11.85-31.09,14.46-48.6,7.25-13.1-5.4-24.27-13.81-34.08-23.97-11.26-11.67-21.41-24.13-27.04-39.64-2.38-6.56-.6-12.54,4.99-16.76,6.24-4.71,13.24-5.66,20.73-4.24,1.81.34,3.61.86,5.43.99,2.32.16,4.21-.83,5.09-3.1.84-2.17.21-4.3-1.6-5.45-2.41-1.53-5.08-2.96-7.83-3.61-7.79-1.84-15.53-1.05-22.76,2.36-9.65,4.55-17.15,11.07-18.31,22.62-.59,5.87.73,11.39,2.98,16.74,4.05,9.66,9.4,18.56,16.44,26.31,6.2,6.83,12.82,13.26,19.05,20.07,4.45,4.86,9.47,8.9,15.23,12.04,4.43,2.42,8.84,4.89,13.34,7.17,23.13,11.73,44.84,8.56,65.34-6.42,1.7-1.24,2.93-1.29,4.23.26,1.63,1.93,3.2,3.9,4.82,5.83,7.49,8.94,16.67,14.1,28.72,12.9,1.63-.16,3.32-.21,4.95-.03,12.93,1.39,22.46-4.36,30.13-14.15,1.31-1.68,2.61-3.43,4.21-4.8.7-.6,2.6-.85,3.2-.35,6,5.04,13.31,7.55,20.26,10.73,5.21,2.38,10.71,3.41,16.47,3.34ZM282.64,101.41c-.15-8.34-.92-16.51-4.26-24.25-3.77-8.74-10.32-14.13-19.59-16.23-7.5-1.69-14.9-.99-22.09,1.48-13.91,4.79-27.14,11.02-39.39,19.23-11.3,7.57-20.5,17.47-29.85,27.19-11.09,11.53-23.2,21.75-37.33,29.41-2.21,1.2-2.85,3.1-2.01,5.43.97,2.72,2.81,4.58,5.61,5.47,13.79,4.38,27.15,3.31,40.18-2.98,11.78-5.68,22.18-13.48,32.91-20.83,8.22-5.63,16.67-11.12,25.62-15.42,11.26-5.42,22.38-2.38,30.79,6.9.71.79,1.49,1.54,2.32,2.2,6.5,5.15,14.12,2.61,15.8-5.48.82-3.96.89-8.08,1.31-12.13ZM352.49,100.89c.39,4.15.45,8.36,1.24,12.44,1.59,8.24,9.38,10.9,15.93,5.62.97-.79,1.82-1.74,2.67-2.67,7.09-7.61,15.75-10.48,25.82-7.97,3.8.95,7.6,2.56,10.94,4.62,8.25,5.1,16.16,10.74,24.33,15.96,9.15,5.84,18.18,11.94,27.72,17.08,12.73,6.85,26.34,7.71,40.06,3.07,2.13-.72,4.11-2.84,5.41-4.81,1.64-2.5.54-4.81-2.14-6.25-1.71-.91-3.44-1.8-5.07-2.83-13.54-8.58-25.52-19.04-36.18-30.95-16.43-18.35-36.46-31.2-59.35-39.89-7.05-2.68-14.2-4.64-21.84-4.19-13.04.76-22.04,7.49-26.39,19.81-2.4,6.78-2.96,13.82-3.15,20.97ZM375.29,496.96c.37,5.23.52,10.48,1.14,15.68,1.99,16.82,6.79,32.69,16.65,46.7,5.5,7.82,12.22,14.32,21.11,18.25,14.88,6.58,33.87,1.38,43.32-11.84,2.53-3.53,2.64-7.06.31-9.28-2.33-2.21-5.19-1.75-8.87.95-3.67,2.69-7.38,5.43-11.39,7.52-7.18,3.74-14.42,3.25-21.35-1-6.37-3.91-11.1-9.43-14.8-15.78-12.11-20.76-15.29-43.34-13.03-66.9,1.59-16.48,7.36-31.08,19.92-42.5,1.7-1.54,3.11-3.49,4.3-5.46,1.17-1.94,2.67-2.89,4.83-3.27,3.82-.67,7.71-1.18,11.39-2.32,8.67-2.69,11.92-10.1,7.72-18.15-2.13-4.08-5.01-7.88-8.09-11.32-8.88-9.9-18.15-19.45-27.07-29.31-9.89-10.95-19.57-22.09-29.32-33.16-1.48-1.68-3.09-3.48-5.37-1.78-2.32,1.73-.9,3.81.22,5.67.1.17.21.33.31.49,8.15,13.26,17.33,25.78,27.38,37.66,9.15,10.82,18.47,21.5,27.46,32.46,5.26,6.41,4.88,7.18-2.92,9.93-5.49,1.94-10.98,3.77-15.69,7.46-8.85,6.91-15.53,15.43-19.86,25.77-5.84,13.92-7.98,28.54-8.28,43.55ZM248.2,494.28c-.24.03-.47.07-.71.1-.08,10.24-1.27,20.35-3.96,30.24-3.43,12.61-8.45,24.44-17.83,33.89-10.7,10.78-21.44,11.7-33.93,3.06-2.39-1.65-4.65-3.51-7.01-5.21-2.26-1.64-4.65-1.95-7.01-.24-2.14,1.55-2.71,4.29-1.54,7.1.37.89.85,1.75,1.43,2.53,11.11,15,31.73,19.14,47.7,9.58,10.54-6.31,17.9-15.56,22.94-26.47,14.2-30.75,15.47-62.32,3.7-94-6.26-16.85-17.74-29.27-35.68-34.54-1.11-.33-2.2-.77-3.27-1.22-4.01-1.69-4.46-2.67-1.81-6.17,4.21-5.57,8.57-11.05,13.16-16.3,15.46-17.71,30.77-35.52,42.98-55.72.65-1.08,1.62-2.13,1.79-3.29.17-1.16-.11-2.94-.89-3.52-.78-.59-2.6-.4-3.63.12-1.13.57-1.9,1.89-2.81,2.89-15.6,17.29-31.27,34.53-46.76,51.92-5.47,6.14-11.18,12.23-15.62,19.1-5.89,9.11-1.96,17.5,8.58,20.15,3.29.83,6.71,1.11,10,1.93,1.39.35,2.85,1.21,3.82,2.26,2.42,2.63,4.34,5.73,6.88,8.22,8.3,8.14,13.75,17.87,15.99,29.19,1.59,8.06,2.37,16.28,3.51,24.43ZM518.37,276.28c.02-9.87-1.84-16.81-6.22-22.94-10.81-15.15-31.23-14.53-41.17,1.17-1.08,1.71-2.39,3.29-3.75,4.79-6.17,6.81-10.16,14.65-11.17,23.84-.83,7.54,1.12,14.26,6.62,19.7,8.52,8.45,23.15,11.41,34.08,6.47,15.15-6.84,20.69-19.78,21.62-33.03ZM116.82,273.14c.06,8.85,2.11,16.33,6.41,23.16,10.44,16.59,31.93,20.43,47.08,8.42,5.84-4.63,8.92-10.71,8.91-18.14-.02-10.5-4.32-19.32-11.14-27.08-1.46-1.66-2.92-3.38-4.1-5.24-8.6-13.52-25.27-15.94-37.11-5.17-7.28,6.62-9.98,15.25-10.05,24.06ZM96.26,318.2c5.88-.28,11.31-3.13,14.49-9.44,3.08-6.11,2.74-11.95-1.94-17.27-.57-.65-1.03-1.41-1.49-2.14-3.5-5.53-8.53-7.2-14.69-4.87-7.02,2.65-12.13,10.4-12.25,18.55-.12,8.84,6.01,15.11,15.87,15.18ZM554.72,303.26c0-9.41-6.44-17.96-14.81-19.48-4.26-.77-8.16,0-10.98,3.62-1.48,1.91-3.01,3.84-4.08,5.99-1.09,2.21-2.18,4.64-2.34,7.04-.67,9.71,7.5,17.87,17.42,17.76,8.72-.1,14.79-6.22,14.79-14.93Z" style="fill: #fff; stroke-width: 0px;"/>
  <path d="M488.81,680.47c-.2,4.2-.32,7.84-.56,11.47-.59,8.63.9,6.72-7.3,9.2-2.51.76-5.13,1.29-7.46,2.42-1.24.6-2.59,2.17-2.79,3.48-.32,2.04,1.53,3.06,3.39,3.21,3.47.28,6.97.52,10.43.37,2.1-.09,3.05.18,3.01,2.51-.14,7.86-.17,15.73-.18,23.59,0,1.89-.66,3.13-2.56,3.69-7.15,2.12-14.27,4.33-21.42,6.41-2.04.59-4.17,1.02-4.18,3.64-.01,2.39,1.85,3.16,3.84,3.7,7.12,1.93,14.28,2.91,21.55.88,1.99-.56,2.7.1,2.67,2.05-.08,4.95.05,9.91-.26,14.85-.08,1.21-1.24,2.79-2.35,3.42-10.75,6.11-22.64,7.81-34.73,8.63-2.81.19-5.67.02-8.41.55-1.46.28-3.33,1.4-3.91,2.65-.91,1.97.72,3.37,2.53,4.24,14.35,6.93,28.7,6.42,43.06.05.71-.31,1.41-.64,2.13-.93.15-.06.37.05.84.12.09.64.33,1.36.29,2.07-.42,6.3-.91,12.59-1.34,18.88-.13,1.83-.98,2.75-2.7,3.63-18.83,9.67-39.25,11.74-59.9,12.84-.48.03-.97.05-1.45.07-2.27.11-4.88.08-5.05,3.12-.17,2.98,2.41,3.32,4.64,3.78,16.9,3.47,33.74,3.68,50.46-1.02,3.43-.96,6.74-2.33,10.62-3.69-.16,1.09-.16,1.9-.41,2.62-3.71,10.65-10.44,18.4-21.96,20.18-11.01,1.7-22.16,2.5-33.27,3.54-8.99.85-17.98,1.82-26.99,2.11-8.22.26-16.47-.48-24.71-.49-13.58,0-27.15.17-40.73.39-2.33.04-5.53-.06-5.4,3.38.13,3.4,3.31,2.95,5.64,3.06,8.92.45,17.84.8,26.77,1.21.92.04,1.83.19,3.25.35-.7.6-.94.9-1.24,1.04-9.63,4.61-19.41,8.92-28.87,13.86-10.97,5.73-21.55,5.72-32.5-.03-9.69-5.1-19.66-9.67-30.14-14.78,1.34-.19,2.18-.38,3.03-.42,8.53-.4,17.07-.77,25.6-1.16,1.26-.06,2.53-.08,3.78-.21,1.79-.19,3.3-.92,3.35-2.96.05-2.03-1.41-2.96-3.2-3.1-6-.48-12-1.11-18.01-1.18-8.05-.09-16.12.04-24.16.52-11.54.7-23.01,1.08-34.58-.2-14.56-1.61-29.21-2.36-43.82-3.58-2.6-.22-5.19-.77-7.75-1.32-11.52-2.51-18.16-10.14-21.76-20.91-.15-.43-.13-.92-.22-1.65.7.05,1.28-.06,1.73.14,17.65,7.58,35.96,8.15,54.61,5.16,1.82-.29,3.63-.64,5.44-1.01,2.1-.43,4.17-1.11,3.89-3.8-.26-2.48-2.29-2.76-4.34-2.95-9.95-.91-19.93-1.6-29.84-2.89-11.54-1.5-22.51-5.1-32.87-10.42-.8-.41-1.69-1.52-1.77-2.37-.61-6.96-1.05-13.94-1.52-20.91-.02-.26.18-.54.43-1.21.96.36,1.9.67,2.8,1.07,13.62,6.05,27.34,6.92,41.2.82.62-.27,1.42-.42,1.81-.9,1.02-1.26,2.54-2.64,2.59-4.02.09-2.18-2-2.76-3.98-2.94-7.73-.71-15.47-1.28-23.17-2.23-7.3-.9-14.09-3.62-20.53-7.1-.89-.48-1.71-1.93-1.75-2.97-.23-5.04-.17-10.09-.25-15.14-.03-2.06.86-2.47,2.74-1.93,7.37,2.1,14.62,1.03,21.82-1,1.9-.54,3.52-1.47,3.41-3.73-.11-2.28-1.89-2.86-3.77-3.41-7.16-2.08-14.28-4.28-21.44-6.37-2.14-.62-2.84-1.95-2.84-4.09.02-7.67-.01-15.34-.15-23.01-.04-2.26.53-3.01,2.99-2.83,3.26.25,6.57-.08,9.85-.29,1.97-.13,3.73-.92,3.99-3.13.29-2.44-1.54-3.36-3.49-3.96-3.62-1.11-7.24-2.24-10.9-3.19-1.98-.51-2.94-1.44-3-3.59-.12-4.27-.49-8.53-.7-12.79-.05-.92.12-1.85.21-2.99.88.22,1.45.28,1.95.5,9.14,3.93,18.73,4.8,28.54,4.22,2.13-.13,4.29-.42,4.62-3.02.34-2.59-1.72-3.37-3.69-4.14-9.48-3.73-18.96-7.45-28.4-11.29-1.9-.77-3.87-1.81-4.22-4.75,1.51,0,2.82-.16,4.08.02,11.06,1.6,21.51,5.14,31.45,10.17,7.01,3.55,13.89,7.36,20.86,11,1.62.85,2.35,1.74,1.53,3.66-2.21,5.13-2.44,10.55-2.01,16.02,1,12.82.67,13.46-10.75,19.12-3.33,1.65-6.04,3.64-7.16,7.51-1.09,3.76-.71,5.74,2.64,7.95,3.56,2.35,7.16,4.66,10.82,6.86,9.06,5.47,16.34,12.61,21.85,21.74,6.07,10.07,12.53,19.92,21.76,27.52,16.79,13.82,36.37,18.05,57.55,16.41,6.13-.47,11.6-3.09,16.64-6.52,1.65-1.13,3.26-1.71,5.07-.39,11.23,8.11,23.84,8.27,36.86,6.57,22.88-2.99,40.59-14.07,53.17-33.4,2.54-3.91,5.23-7.73,7.61-11.73,4.68-7.85,11.06-13.95,18.71-18.82,3.93-2.5,7.87-4.99,11.81-7.48,5.72-3.62,5.94-10.01.27-13.97-2.45-1.71-5.24-2.94-7.94-4.25-4.91-2.37-7.36-6.09-6.89-11.65.64-7.56,1.36-15.12-1.79-22.41-.23-.53.46-1.93,1.08-2.28,14.7-8.12,29.24-16.63,45.89-20.34,2.84-.63,5.72-1.07,8.61-1.46.75-.1,1.58.32,2.37.5-.35.85-.48,1.94-1.1,2.49-1.07.95-2.36,1.75-3.68,2.29-8.82,3.55-17.67,7.02-26.52,10.51-.72.28-1.48.48-2.2.77-1.77.71-3.36,1.99-2.6,3.89.48,1.21,2.24,2.58,3.54,2.69,9.57.88,19.01.13,28.08-3.4,1.04-.41,2.11-.74,3.8-1.33Z" style="fill: #fff; stroke-width: 0px;"/>
  <path d="M250.36,197.74c-1.56,15.65-2.8,31.33-4.77,46.93-1.84,14.61-1.52,29.06,1.34,43.46.55,2.77-.28,3.48-2.93,4.19-8.14,2.2-16.19,4.77-24.21,7.41-2.68.88-3.56.38-4.31-2.43-3.63-13.47-6.38-27.24-13.12-39.72-10.07-18.65-25.49-31.35-44.5-39.85-10.39-4.64-21.28-3.55-32.02-.84-16.82,4.23-30.78,13.15-42.09,26.21-1.77,2.04-2.86,2.33-5.11.57-4.11-3.23-8.55-6.05-12.9-8.97-1.76-1.19-3.76-2.1-5.49-.1-1.61,1.86-.66,3.73.71,5.23,3.98,4.36,8,8.69,12.16,12.88,1.16,1.17,1.54,1.94.6,3.42-2.75,4.35-5.41,8.75-7.98,13.2-.92,1.59-1.77,1.63-3.26.77-4.63-2.66-9.33-5.19-14.01-7.76-.59-.33-1.24-.87-1.83-.83-1.52.11-3.65,0-4.35.9-.69.89-.47,3.31.31,4.36,3.77,5.12,8.3,9.56,14.04,12.45,2.61,1.32,3.08,2.6,1.72,5.16-1.41,2.64-2.41,5.51-3.46,8.33-.63,1.69-1.41,2.13-3.27,1.63-5.81-1.54-11.68-2.85-17.54-4.19-2.07-.47-4.3-.65-5.21,1.81-.91,2.46.84,3.82,2.77,4.74,5.59,2.66,11.19,5.35,16.88,7.78,1.65.7,1.97,1.42,1.65,3.03-.77,3.9-1.55,7.81-2.03,11.76-.27,2.22-1.01,2.9-3.31,2.76-6-.39-12.02-.48-18.04-.65-2.15-.06-4.28.29-4.7,2.87-.41,2.57,1.48,3.66,3.54,4.24,6.52,1.86,13.04,3.72,19.62,5.34,1.86.46,2.93,1.01,3.18,3.04.32,2.6.84,5.18,1.44,7.72.37,1.53.11,2.43-1.54,2.75-9.33,1.83-18.59,4.14-28,5.39-9.38,1.25-12.9-1.93-12.19-11.38.66-8.85,1.81-17.88,4.37-26.33,8.29-27.41,17.11-54.66,26.16-81.83,4.32-12.96,9.38-25.7,14.59-38.33,3.69-8.95,10.27-15.93,17.39-22.36,3.26-2.95,7.01-4.35,11.46-4,14.39,1.11,28.27,3.96,41.94,8.99,16.7,6.14,34.05,9.26,51.97,4.8,12.18-3.03,24.18-6.36,35.52-11.94,7.65-3.77,15.78-5.54,24.24-2.38,8.12,3.03,13.62,8.15,13.66,17.5.02,4.07,0,8.15,0,12.22.3.02.6.03.91.05Z" style="fill: #fff; stroke-width: 0px;"/>
  <path d="M598.79,321.37c-2.86.2-5.87.34-8.86.66-1.79.19-2.63-.28-2.89-2.22-.56-4.13-1.31-8.24-2.13-12.33-.33-1.67.15-2.31,1.73-3,5.76-2.52,11.43-5.25,17.1-7.98,1.77-.85,3.16-2.23,2.45-4.39-.77-2.35-2.8-2.48-4.82-2.03-5.96,1.35-11.92,2.69-17.83,4.24-1.8.47-2.66.2-3.31-1.54-1.19-3.18-2.44-6.35-3.89-9.42-.88-1.87-.41-2.8,1.32-3.66,5.67-2.83,10.14-7.11,14.14-11.93,1.36-1.64,2.64-3.43,1.07-5.46-1.68-2.18-3.83-1.29-5.78-.23-4.77,2.6-9.57,5.16-14.26,7.91-1.76,1.04-2.62.85-3.64-.95-2.44-4.31-5.03-8.53-7.69-12.7-.97-1.52-.79-2.34.52-3.66,4.23-4.25,8.26-8.71,12.28-13.16,1.33-1.47,1.92-3.3.39-4.99-1.54-1.71-3.37-1.19-5.01-.08-4.5,3.05-9.09,5.98-13.37,9.31-2.17,1.7-3.2,1.4-4.89-.54-12.87-14.81-28.9-24.17-48.3-27.64-12.49-2.24-23.96.05-34.96,6.46-22.64,13.21-37.45,32.2-44,57.61-1.57,6.11-3.31,12.18-4.76,18.32-.52,2.19-1.35,2.61-3.42,1.93-7.56-2.49-15.12-5-22.76-7.19-5.37-1.54-5.81-1.4-4.63-6.77,4.24-19.32.96-38.45-.86-57.67-1.21-12.74-1.59-25.55-2.32-38.33-.06-1.06.06-2.13.13-3.2.9-12.9,10.99-21.75,23.96-20.15,5.67.7,11.41,2.52,16.61,4.93,13.62,6.3,27.93,10.09,42.62,12.45,4.7.76,9.71.33,14.49-.27,11.56-1.44,22.84-3.74,33.79-8.27,11.89-4.92,24.74-6.45,37.62-6.96,4.68-.19,8.03,2.36,11.28,5.26,9.56,8.56,16.31,19.1,20.55,31.03,12.9,36.31,25.99,72.58,36,109.84,2.33,8.66,3.72,17.68,4.4,26.63.73,9.65-2.75,12.78-12.33,11.49-9.4-1.26-18.66-3.58-27.99-5.43-1.55-.31-1.68-1.2-1.36-2.58.61-2.64,1.14-5.32,1.52-8,.27-1.88,1.26-2.43,3.01-2.87,6.67-1.67,13.28-3.56,19.89-5.45,1.98-.57,3.68-1.71,3.3-4.12-.4-2.59-2.49-2.92-4.66-2.92-3.11,0-6.21,0-9.47,0Z" style="fill: #fff; stroke-width: 0px;"/>
  <path d="M197.99,732.72c7.87-4.7,15.61-8.38,24.69-5.05,4.36,1.6,8.53,3.74,12.89,5.35,5.44,2.01,10.88,4.21,16.52,5.46,7.49,1.65,14.91,1.16,21.39-4.06,14.11,14.23,29,8.56,44.29,2.18,7.92,3.89,16.46,6.99,25.99,6.48,6.09-.33,11.38-2.36,15.62-6.78,1.41-1.47,2.37-1.93,4.31-.51,4.26,3.12,9.33,3.62,14.46,3.34,7.8-.42,14.95-3.04,21.98-6.27,4.83-2.22,9.79-4.29,14.88-5.79,8.22-2.42,15.02,1.64,22.37,5.71-4.27,3.28-8.12,6.31-12.05,9.24-2.95,2.19-6.05,4.18-8.99,6.39-2.79,2.1-5.42,4.41-8.17,6.57-9.33,7.36-19.74,11.7-31.79,12.16-6.28.24-12.56,1.21-18.79,2.2-11.09,1.76-20.93,6.31-29.35,13.83-4.98,4.45-16.23,4.58-21.17.15-9.2-8.25-20.02-12.85-32.17-14.43-6.93-.9-13.88-1.68-20.84-2.29-7.32-.64-14.04-2.88-20.16-6.92-2.59-1.71-5.21-3.4-7.69-5.26-8.75-6.58-17.44-13.23-26.15-19.87-.66-.5-1.23-1.11-2.05-1.86Z" style="fill: #fff; stroke-width: 0px;"/>
  <path d="M394.1,648.36c-5.76.07-11.26-.96-16.47-3.34-6.96-3.18-14.26-5.69-20.26-10.73-.59-.5-2.5-.25-3.2.35-1.6,1.37-2.89,3.12-4.21,4.8-7.67,9.79-17.2,15.55-30.13,14.15-1.63-.18-3.31-.13-4.95.03-12.06,1.2-21.23-3.96-28.72-12.9-1.62-1.93-3.2-3.9-4.82-5.83-1.31-1.55-2.54-1.5-4.23-.26-20.5,14.98-42.21,18.16-65.34,6.42-4.5-2.28-8.91-4.76-13.34-7.17-5.76-3.14-10.78-7.17-15.23-12.04-6.22-6.8-12.85-13.24-19.05-20.07-7.04-7.76-12.39-16.65-16.44-26.31-2.25-5.35-3.57-10.87-2.98-16.74,1.16-11.55,8.65-18.07,18.31-22.62,7.23-3.41,14.97-4.2,22.76-2.36,2.75.65,5.41,2.08,7.83,3.61,1.81,1.15,2.44,3.28,1.6,5.45-.88,2.27-2.77,3.27-5.09,3.1-1.82-.13-3.62-.65-5.43-.99-7.49-1.42-14.5-.47-20.73,4.24-5.59,4.23-7.38,10.2-4.99,16.76,5.64,15.52,15.78,27.98,27.04,39.64,9.82,10.16,20.98,18.58,34.08,23.97,17.51,7.22,33.83,4.6,48.6-7.25,9.37-7.52,16.29-17.08,22.69-27.13,2.09-3.29,4.94-6.2,7.89-8.78,1.15-1.01,3.67-1.16,5.3-.72,2.19.59,3.07,2.93,2.5,5.01-1.12,4.08-2.05,8.42-4.21,11.95-3.72,6.11-8.23,11.75-12.58,17.46-2.47,3.24-2.68,3.17.23,6.24,2.92,3.08,5.53,6.76,9.05,8.92,7.51,4.59,16.07,4.43,24.53,3.4,4.39-.54,9.07-.59,12.51-3.96,3.46-3.38,6.75-6.94,9.93-10.59.37-.42-.25-2.08-.83-2.87-4.28-5.88-8.99-11.48-12.89-17.6-2.24-3.51-3.41-7.77-4.71-11.8-.75-2.31-.31-4.71,2.08-6.14,2.41-1.45,4.64-.59,6.35,1.15,2.57,2.6,5.25,5.23,7.19,8.28,6.19,9.7,12.82,18.98,21.75,26.41,15.34,12.77,32.26,15.5,50.54,7.56,18.65-8.1,32.87-21.78,45.36-37.46,6.16-7.73,11.18-16.1,14.65-25.37,2.58-6.92.67-13.03-5.36-17.4-6.24-4.53-13.18-5.31-20.54-3.89-1.71.33-3.42.8-5.15.94-2.32.19-4.23-.7-5.14-3-.91-2.3-.18-4.46,1.71-5.69,2.23-1.46,4.74-2.83,7.32-3.38,13.86-2.95,25.92.91,35.51,11.13,7.03,7.49,7.61,16.83,4.53,26.25-3.94,12.08-10.61,22.66-19.21,31.97-6.78,7.35-13.28,15.09-20.86,21.54-15.73,13.41-33.54,22.69-54.77,23.63Z" style="fill: #000; stroke-width: 0px;"/>
  <path d="M282.64,101.41c-.41,4.05-.48,8.16-1.31,12.13-1.68,8.08-9.3,10.62-15.8,5.48-.83-.66-1.6-1.41-2.32-2.2-8.41-9.28-19.53-12.32-30.79-6.9-8.95,4.31-17.4,9.79-25.62,15.42-10.73,7.35-21.13,15.15-32.91,20.83-13.02,6.28-26.38,7.36-40.18,2.98-2.8-.89-4.64-2.75-5.61-5.47-.83-2.33-.2-4.23,2.01-5.43,14.13-7.67,26.25-17.89,37.33-29.41,9.35-9.72,18.55-19.62,29.85-27.19,12.25-8.2,25.48-14.44,39.39-19.23,7.19-2.48,14.58-3.18,22.09-1.48,9.26,2.09,15.81,7.48,19.59,16.23,3.34,7.75,4.11,15.91,4.26,24.25Z" style="fill: #000; stroke-width: 0px;"/>
  <path d="M352.49,100.89c.19-7.15.76-14.19,3.15-20.97,4.35-12.32,13.35-19.04,26.39-19.81,7.64-.45,14.79,1.51,21.84,4.19,22.89,8.69,42.92,21.54,59.35,39.89,10.66,11.91,22.64,22.37,36.18,30.95,1.63,1.04,3.36,1.92,5.07,2.83,2.68,1.44,3.78,3.75,2.14,6.25-1.29,1.97-3.28,4.09-5.41,4.81-13.72,4.64-27.34,3.78-40.06-3.07-9.54-5.13-18.57-11.23-27.72-17.08-8.17-5.22-16.08-10.86-24.33-15.96-3.34-2.06-7.14-3.67-10.94-4.62-10.08-2.52-18.74.36-25.82,7.97-.86.92-1.7,1.88-2.67,2.67-6.54,5.27-14.34,2.62-15.93-5.62-.79-4.07-.85-8.29-1.24-12.44Z" style="fill: #000; stroke-width: 0px;"/>
  <path d="M375.29,496.96c.3-15.01,2.44-29.63,8.28-43.55,4.34-10.34,11.02-18.86,19.86-25.77,4.71-3.68,10.2-5.52,15.69-7.46,7.79-2.75,8.18-3.52,2.92-9.93-8.99-10.96-18.31-21.63-27.46-32.46-10.04-11.88-19.23-24.4-27.38-37.66-.1-.17-.21-.33-.31-.49-1.12-1.86-2.54-3.94-.22-5.67,2.29-1.7,3.9.11,5.37,1.78,9.75,11.07,19.43,22.21,29.32,33.16,8.92,9.87,18.18,19.42,27.07,29.31,3.08,3.44,5.96,7.24,8.09,11.32,4.2,8.04.95,15.45-7.72,18.15-3.68,1.14-7.57,1.66-11.39,2.32-2.16.38-3.67,1.33-4.83,3.27-1.19,1.97-2.61,3.92-4.3,5.46-12.56,11.42-18.33,26.02-19.92,42.5-2.27,23.56.92,46.14,13.03,66.9,3.7,6.35,8.43,11.87,14.8,15.78,6.93,4.26,14.17,4.75,21.35,1,4.02-2.09,7.72-4.84,11.39-7.52,3.68-2.7,6.54-3.15,8.87-.95,2.34,2.22,2.22,5.75-.31,9.28-9.45,13.21-28.44,18.41-43.32,11.84-8.89-3.93-15.61-10.42-21.11-18.25-9.86-14.01-14.66-29.88-16.65-46.7-.62-5.2-.77-10.45-1.14-15.68Z" style="fill: #000; stroke-width: 0px;"/>
  <path d="M248.2,494.28c-1.14-8.15-1.92-16.37-3.51-24.43-2.24-11.32-7.69-21.04-15.99-29.19-2.54-2.49-4.46-5.6-6.88-8.22-.97-1.05-2.43-1.91-3.82-2.26-3.29-.82-6.71-1.11-10-1.93-10.55-2.65-14.48-11.04-8.58-20.15,4.44-6.87,10.15-12.96,15.62-19.1,15.5-17.39,31.16-34.62,46.76-51.92.91-1.01,1.67-2.33,2.81-2.89,1.03-.52,2.85-.7,3.63-.12.78.58,1.05,2.36.89,3.52-.17,1.16-1.14,2.21-1.79,3.29-12.21,20.21-27.52,38.01-42.98,55.72-4.59,5.26-8.95,10.73-13.16,16.3-2.65,3.5-2.2,4.48,1.81,6.17,1.07.45,2.16.9,3.27,1.22,17.94,5.27,29.42,17.69,35.68,34.54,11.77,31.68,10.5,63.25-3.7,94-5.04,10.91-12.4,20.16-22.94,26.47-15.97,9.56-36.59,5.42-47.7-9.58-.57-.77-1.06-1.64-1.43-2.53-1.17-2.8-.59-5.54,1.54-7.1,2.36-1.71,4.75-1.4,7.01.24,2.36,1.71,4.61,3.56,7.01,5.21,12.49,8.64,23.23,7.72,33.93-3.06,9.38-9.45,14.4-21.28,17.83-33.89,2.69-9.89,3.88-20,3.96-30.24.24-.03.47-.07.71-.1Z" style="fill: #000; stroke-width: 0px;"/>
  <path d="M518.37,276.28c-.93,13.26-6.47,26.2-21.62,33.03-10.93,4.94-25.56,1.97-34.08-6.47-5.49-5.44-7.45-12.16-6.62-19.7,1.01-9.18,5-17.03,11.17-23.84,1.36-1.5,2.67-3.08,3.75-4.79,9.94-15.7,30.36-16.32,41.17-1.17,4.37,6.13,6.23,13.07,6.22,22.94ZM503.69,275.55c-.15-6.59-1.86-12.28-7.7-15.88-4.37-2.7-10.47-2.4-13.2.72-2.99,3.44-5.93,6.94-8.61,10.62-3.23,4.42-5.71,9.26-6.22,14.86-.35,3.79.66,7.11,3.56,9.73,6.18,5.6,16.79,5.77,23,.21,6.05-5.42,8.72-12.43,9.17-20.26Z" style="fill: #000; stroke-width: 0px;"/>
  <path d="M116.82,273.14c.07-8.82,2.77-17.44,10.05-24.06,11.84-10.77,28.51-8.35,37.11,5.17,1.19,1.86,2.64,3.58,4.1,5.24,6.82,7.76,11.12,16.58,11.14,27.08.02,7.44-3.07,13.51-8.91,18.14-15.16,12.02-36.65,8.18-47.08-8.42-4.29-6.83-6.34-14.31-6.41-23.16ZM131.48,275.56c.27,7.15,2.75,13.93,8.23,19.4,6.05,6.05,16.07,6.6,22.93,1.44,3.7-2.79,5.31-6.6,4.38-10.98-.79-3.73-1.99-7.57-3.92-10.82-2.6-4.38-5.96-8.34-9.21-12.3-4.55-5.55-11.65-5.87-16.98-.92-3.97,3.68-5.28,8.44-5.42,14.19Z" style="fill: #000; stroke-width: 0px;"/>
  <path d="M96.26,318.2c-9.87-.06-16-6.34-15.87-15.18.11-8.15,5.23-15.89,12.25-18.55,6.17-2.33,11.19-.66,14.69,4.87.47.74.92,1.5,1.49,2.14,4.68,5.31,5.02,11.16,1.94,17.27-3.18,6.31-8.62,9.16-14.49,9.44ZM98.23,307.81c3.08-.03,5.34-2.29,5.36-5.33.02-2.53-2.26-5.43-4.31-5.5-2.42-.09-5.74,4.09-5.72,7.2.01,2.25,1.84,3.67,4.67,3.64Z" style="fill: #000; stroke-width: 0px;"/>
  <path d="M554.72,303.26c0,8.71-6.07,14.83-14.79,14.93-9.93.11-18.1-8.05-17.42-17.76.17-2.4,1.25-4.84,2.34-7.04,1.06-2.14,2.59-4.08,4.08-5.99,2.82-3.63,6.73-4.39,10.98-3.62,8.37,1.52,14.81,10.07,14.81,19.48ZM541.59,304.12c0-3.11-3.32-7.23-5.74-7.15-2.05.06-4.32,2.89-4.36,5.43-.05,3.17,2.27,5.45,5.5,5.42,2.88-.03,4.6-1.41,4.6-3.7Z" style="fill: #000; stroke-width: 0px;"/>
  <path d="M503.69,275.55c-.45,7.82-3.12,14.84-9.17,20.26-6.21,5.56-16.82,5.39-23-.21-2.89-2.62-3.9-5.94-3.56-9.73.51-5.6,2.99-10.44,6.22-14.86,2.69-3.68,5.62-7.18,8.61-10.62,2.72-3.13,8.83-3.42,13.2-.72,5.84,3.6,7.55,9.29,7.7,15.88Z" style="fill: #fff; stroke-width: 0px;"/>
  <path d="M131.48,275.56c.14-5.75,1.45-10.51,5.42-14.19,5.34-4.95,12.43-4.64,16.98.92,3.25,3.96,6.61,7.92,9.21,12.3,1.93,3.25,3.13,7.09,3.92,10.82.93,4.38-.69,8.2-4.38,10.98-6.85,5.17-16.88,4.61-22.93-1.44-5.48-5.48-7.96-12.26-8.23-19.4Z" style="fill: #fff; stroke-width: 0px;"/>
  <path d="M98.23,307.81c-2.84.03-4.66-1.39-4.67-3.64-.01-3.12,3.3-7.29,5.72-7.2,2.06.07,4.33,2.97,4.31,5.5-.02,3.05-2.29,5.3-5.36,5.33Z" style="fill: #fff; stroke-width: 0px;"/>
  <path d="M541.59,304.12c0,2.28-1.72,3.67-4.6,3.7-3.24.03-5.55-2.24-5.5-5.42.04-2.54,2.31-5.36,4.36-5.43,2.43-.08,5.74,4.04,5.74,7.15Z" style="fill: #fff; stroke-width: 0px;"/>
</svg>