<?xml version="1.0" encoding="UTF-8"?>
<svg id="Layer_1" data-name="Layer 1" xmlns="http://www.w3.org/2000/svg" viewBox="0 0 756.29 900">
  <path d="M128.22,465.16c-1.54.83-2.39,1.25-3.19,1.72-11.93,7-24.58,12.39-38.31,14.22-20.21,2.69-38.35-2.87-53.89-16.05-3.21-2.72-5.69-6.54-7.84-10.24-7-12.05-10.76-25.36-14.26-38.74-4.6-17.57-3.87-35.41-2.39-53.24,1.33-16.07,4.83-31.77,8.81-47.37,3.88-15.21,12.49-27.78,22.37-39.59,3.54-4.23,7.29-8.3,11.08-12.31,1.7-1.8,1.65-3.18-.24-4.65-1.55-1.21-3.04-2.52-4.63-3.68-9.69-7.05-16.28-16.71-22.9-26.46C8.05,207,2.22,182.48.36,156.8c-1-13.81.1-27.54,3.54-41.1,5.63-22.24,19.52-37.71,39-48.61,19.72-11.03,40.77-13.37,62.73-8.49,6.45,1.43,13.06,2.39,19.31,4.44,18.82,6.18,35.98,15.13,48.33,31.36.47.61.77,1.35,1.45,2.58.96-1.64,1.46-2.22,1.67-2.9,8.27-26.66,25.28-46.92,46.58-64.13,14.11-11.4,29.99-18.94,47.43-23.94,32.16-9.23,63.77-6.83,95.25,2.84,3.19.98,6.15,2.72,9.35,3.66,1.85.54,4.28.89,5.9.14,14.91-6.91,30.76-9.64,46.9-11.53,28.21-3.31,55.5.79,80.64,13.39,33.68,16.89,58.72,42.54,71.15,79.05.19.56.4,1.11.67,1.63.12.24.41.4,1.62,1.53.55-1.01.98-2.12,1.67-3.03,7.39-9.67,17.05-16.36,27.62-22.27,16.9-9.44,35.38-13.07,54.09-14.88,20.58-1.99,39.55,3.96,56.66,15.81,21.11,14.62,30.9,35.39,33.51,60.24,2.86,27.22-1.46,53.55-12.28,78.38-7.73,17.74-18.52,33.89-34.61,45.75-6.35,4.68-5.18,3.91-.81,9.22,7.19,8.75,14.52,17.42,21.09,26.62,8.51,11.93,11.23,26.14,14.27,40.14,4.76,21.91,7.3,44.05,5.14,66.42-1.72,17.77-6.88,34.72-14.71,50.88-3.28,6.78-6.81,13.17-13.04,17.6-18.7,13.31-39.14,17.82-61.41,11.26-10.21-3.01-20.22-6.75-29.18-12.75-.46-.3-1.03-.44-2.18-.91.48,1.62.74,2.7,1.11,3.74,5.87,16.43,12.78,32.58,17.38,49.36,5.85,21.37,11.07,43.07,14.35,64.95,5.66,37.82-1.65,73.84-19.64,107.58-11.8,22.14-27.89,41-45.33,58.88-17.35,17.78-36.21,33.77-56.24,48.36-9.71,7.08-20.21,13.08-29.96,20.12-10.39,7.5-20.23,15.74-30.47,23.45-4.08,3.07-8.42,5.92-12.97,8.24-5.12,2.61-9.09,6.24-12.04,11.02-2.38,3.85-4.75,7.74-6.73,11.8-10.45,21.43-27.69,30.41-53.23,26.37-6.58-1.04-11.74-4.47-14.61-10.78-.26-.57-.76-1.03-1.37-1.84-.59.92-1.05,1.51-1.37,2.18-2.73,5.66-7.31,9.12-13.36,10.21-25.54,4.59-43.55-4.21-54.1-25.65-1.43-2.92-2.9-5.83-4.56-8.62-3.88-6.53-8.84-11.72-15.76-15.5-7.3-3.99-14.19-8.98-20.58-14.34-12.74-10.68-26.4-20.01-40.26-29.09-24.02-15.74-45.98-33.96-66.06-54.47-12.64-12.91-24.87-26.13-35.08-41.15-31.49-46.33-40.49-96.57-26.68-150.9,2.53-9.94,4.99-19.91,6.95-29.97,2.9-14.92,8.37-28.96,13.81-43.04,2.28-5.89,4.42-11.83,6.59-17.75.28-.76.37-1.59.72-3.16ZM237.33,235.11c-12.6.44-25.21.77-37.81,1.36-6.25.29-12.23,1.85-17.81,4.92-20.71,11.42-36.74,47.09-15.38,71.98,5.84,6.8,10.52,14.2,13.84,22.8,8.92,23.14,9.91,45.86-2.03,68.02-6.67,12.39-14.6,24.1-21.94,36.13-2.36,3.87-5.15,7.57-6.85,11.72-9.53,23.1-17.43,46.82-23.18,71.09-4.93,20.8-8.23,41.99-11.89,63.08-4.04,23.25-3.66,46.38,3.68,69.05,3.07,9.46,5.18,19.51,9.85,28.13,13.74,25.31,31.68,47.29,55.33,64.24,5.53,3.96,10.91,8.14,16.14,12.5,16.29,13.57,32.35,27.41,48.72,40.87,16.93,13.92,34.2,27.36,54.46,36.35,6.14,2.73,9.59,7.9,11.62,14.22,4.02,12.51,12.63,20.94,24.25,26.49,7.43,3.55,14.89,3.5,22.14-.61,4.03-2.29,7.91-4.83,11.93-7.14,3.68-2.11,7.51-2.06,11.17,0,4.38,2.46,8.58,5.25,13.01,7.63,6.39,3.43,13.07,3.6,19.7.72,11.82-5.12,20.98-13.19,25.09-25.64,2.82-8.55,8.2-13.77,16.02-17.82,9.95-5.15,19.97-10.55,28.83-17.33,18.94-14.49,37.13-29.97,55.67-44.99,11.95-9.68,23.9-19.36,35.99-28.86,19.9-15.65,35.57-34.88,48.25-56.64,2.42-4.15,4.56-8.55,6.11-13.09,2.84-8.3,5.26-16.75,7.63-25.2,4.18-14.88,5.61-30.09,3.99-45.44-4.95-46.88-15.06-92.6-31.21-136.95-4.01-11.01-9.11-21.28-15.81-30.96-6.55-9.46-12.23-19.56-18-29.54-9.29-16.05-11.83-33.41-8.33-51.45,2.68-13.79,6.92-27.11,16.57-37.99,2.08-2.35,3.72-5.09,5.61-7.62,6-8.01,7.75-17.11,6.94-26.87-.67-8.1-3.12-15.68-7.29-22.62-8.35-13.89-20.09-22.68-36.8-23.27-12.21-.43-24.43-.68-36.65-.67-31.73.03-63.15-3.86-94.63-7.09-4.57-.47-9.48-1.23-13.78-.12-9.4,2.44-18.46,6.19-27.78,8.99-2.75.83-6.13.98-8.86.19-5.84-1.69-11.39-4.36-17.16-6.34-7.21-2.48-14.5-4.15-22.33-3.18-12.62,1.56-25.29,2.62-37.94,3.92-19.62,2.01-39.23,4.23-59.04,3.04ZM519.18,222.17c6.91.22,16.61.06,26.21.98,9.38.9,19.01,1.81,27.91,4.63,21.61,6.86,37.94,31.06,38.18,55.23.19,19.41-8.19,35.26-20.74,49.53-11.02,12.53-14.72,27.11-8.76,43.14,5.55,14.91,12.66,29.13,21.2,42.58,8.71,13.73,19.31,25.51,34.72,31.92,5.45,2.27,11.13,3.98,16.67,6.03,14.19,5.23,28.42,5.35,43.02,1.43,8.33-2.23,14.64-6.62,18.33-14.13,3.11-6.33,5.8-13,7.61-19.81,6.25-23.54,5.77-47.45,2.79-71.4-1.68-13.55-4.16-26.95-9.55-39.58-7.88-18.47-19.16-34.42-35.69-46.26-3.65-2.61-3.76-6.31-2.89-10.12.75-3.3,3.17-4.91,6.41-5.82,1.89-.53,3.91-1.58,5.24-3,16.31-17.34,28.8-37.01,35.91-59.87,5.24-16.84,8.24-33.94,5.59-51.62-4.62-30.88-25.14-51.67-55.95-56.22-15.27-2.26-30.14.6-44.47,5.76-25.4,9.16-40.03,27.3-43.01,54.2-1.01,9.06-5.94,15.69-11.1,22.38-2.42,3.14-5.92,4.38-9.79,2.87-3.99-1.56-5.38-5.05-5.55-9.01-.08-1.84.3-3.73.7-5.55.48-2.21,1.19-4.38,1.83-6.55,1.65-5.58,2.18-11.24.87-16.95-1.52-6.63-2.92-13.31-4.85-19.82-6.17-20.94-16.92-38.61-35.61-51.01-28.63-19-59.96-29.19-94.28-29.94-4.52-.1-9.24.86-13.59,2.23-6.29,1.97-12.25,4.93-18.47,7.16-13.28,4.76-26.67,4.78-39.96.03-6.03-2.16-11.81-5.07-17.91-6.97-4.54-1.42-9.44-2.56-14.14-2.45-30.35.75-58.66,8.66-85.02,24.06-16.95,9.89-30.58,22.49-38.8,40.52-5.15,11.29-8.24,23.21-10.77,35.3-1.3,6.22-1,12.32.87,18.41.96,3.1,1.82,6.27,2.33,9.47.74,4.65-1.67,9.41-5.23,11.03-3.52,1.6-7.84.57-10.71-3.39-5-6.91-9.55-13.77-10.61-22.95-2.78-24.04-15.69-41.29-37.93-51.1-13.63-6.01-28.09-9.06-42.95-8.29-25.39,1.33-44.82,12.66-56.2,36.09-7.37,15.17-8.61,31.25-6.33,47.7,4.54,32.77,19.02,60.71,41.61,84.61,1.27,1.35,3.2,2.38,5.01,2.85,3.35.87,5.8,2.38,6.57,5.94.88,4.03.46,7.56-3.23,10.26-17.44,12.73-29.7,29.61-36.62,49.78-10.75,31.33-12.79,63.67-7.84,96.39,1.73,11.46,4.74,22.62,11.06,32.56,3.07,4.84,7.01,8.86,12.61,10.71,14.89,4.9,29.87,6.27,45,.96,3.91-1.37,7.95-2.36,11.83-3.8,12.46-4.64,23.71-11.08,32.28-21.63,14.82-18.23,24.99-38.96,32.6-60.99,1.26-3.66,1.28-8.02.84-11.95-1.2-10.93-5.5-20.28-13.07-28.75-14.19-15.89-21.66-34.5-17.91-56.33,4.49-26.17,24.56-45.4,50.73-49.07,16.38-2.3,32.83-2.36,49.31-2.13,8.18.11,16.4.3,24.53-.39,19.65-1.65,39.26-3.85,58.89-5.73,16.53-1.58,32.12,1.97,47.06,8.93,1.08.5,2.77.66,3.8.17,16.63-7.93,33.91-10.56,52.33-8.75,28.03,2.76,55.98,7.3,87.07,5.49Z" style="fill: #000; stroke-width: 0px;"/>
  <path d="M228.32,336.02c-.74-2.31-1.27-4.71-2.25-6.91-2.76-6.21-5.56-12.42-8.61-18.49-4.86-9.7-9.98-19.26-14.84-28.96-1.03-2.07-1.84-4.44-1.99-6.72-.34-5.29,3.64-7.89,8.34-5.5,6.36,3.23,12.85,6.31,18.81,10.18,11.88,7.7,23.76,15.47,35.01,24.04,7.8,5.94,14.44,13.37,21.77,19.95,8.79,7.9,17.51,15.91,26.7,23.34,17.06,13.8,26.59,31.8,30.53,53.02,1.63,8.8-.19,17.36-2.15,25.99-2.52,11.11-7.69,20.92-12.86,30.87-7.4,14.26-14.22,28.81-21.45,43.15-5.52,10.94-11.87,21.36-20.04,30.59-14.44,16.32-32.61,25.2-54.17,27.07-16.47,1.43-32.59-.11-47.52-7.89-21.43-11.16-34.4-28.42-37.14-52.78-.97-8.61.87-16.64,5.26-24.13,8.82-15.04,17.55-30.13,26.37-45.17,3.54-6.04,5.57-12.66,6.67-19.44,2.06-12.63,6.12-24.63,10.41-36.61,1.48-4.14,2.42-8.52,3.17-12.87,1.18-6.82-.6-13.14-4.34-18.87-3.93-6.02-8.04-11.93-12.07-17.9-.83-1.22-1.73-2.41-2.4-3.72-1.75-3.43-1.12-7.07,1.46-9.15,2.52-2.03,6.43-1.91,9.32.26,10.11,7.56,20.21,15.15,30.36,22.66,2.19,1.62,4.57,2.99,6.87,4.47.26-.16.53-.33.79-.49ZM314.16,438.31c.48-.63.72-.83.82-1.09,5.88-16.14,7.4-32.4.82-48.71-2.04-5.07-4.03-10.37-7.22-14.71-3.64-4.95-8.75-8.78-12.92-13.36-15.34-16.84-30.82-33.53-48.83-47.63-1.88-1.48-3.73-3-6.17-4.96.15,1.24.11,1.65.26,1.96,9.01,19.23,10.6,39.58,9.11,60.38-.24,3.32-1.89,5.89-5.11,7.33-3.09,1.38-5.33-.08-7.44-1.99-1.09-.98-2.09-2.08-3.01-3.23-5.56-7.03-11.1-14.08-16.6-21.16-.58-.74-.83-1.74-1.24-2.62-.39.33-.78.67-1.17,1,0,.76-.07,1.53.01,2.28,1.07,9.49.64,18.96-1.62,28.18-1.91,7.79-4.77,15.35-7.22,23.01-.96,3.01-1.94,6.01-2.94,9.09.65.09.86.19,1.02.13,11.96-4.31,24.37-5.95,37-6.72,14.56-.88,28.55,1.35,41.56,7.85,11.95,5.96,22.97,13.36,30.89,24.96ZM244.14,489.66c-.49-13.02-8.91-24.03-19.85-28.98-3.15-1.42-6.43-1.03-9.52.6-5.73,3.01-9.49,7.79-11.96,13.62-3.85,9.11-5.33,18.57-3.61,28.4,1.13,6.45,3.06,12.58,8.17,17.12,4.12,3.66,8.72,5.27,14.27,3.31,5.46-1.93,9.74-5.25,13.2-9.84,5.43-7.21,8.89-15.13,9.3-24.24ZM271.95,499.56c.67-5.3-4.56-12.47-8.89-12.53-10.4-.15-17.3,5.04-17.08,12.91.23,8.11,5.75,12.58,12.54,12.84,6.99.26,13.93-6.91,13.42-13.22ZM183.96,505.22c5.81,0,10.35-7.63,9.63-13.76-.5-4.25-2.72-7.64-5.08-11.01-2.34-3.35-4.61-3.72-8.19-1.85-6.2,3.24-9.5,16.17-5.34,22.2,1.79,2.59,4.08,4.5,8.98,4.42Z" style="fill: #000; stroke-width: 0px;"/>
  <path d="M528.56,336.82c3.29-2.22,6.61-4.38,9.85-6.66,7.54-5.31,15.06-10.64,22.54-16.03,1.42-1.03,2.67-2.32,3.92-3.56,3.2-3.18,7.41-3.82,10.38-1.54,2.97,2.29,3.51,6.52.97,10.39-2.98,4.52-6.47,8.71-9.31,13.32-3.04,4.92-6.2,9.93-8.17,15.31-2.45,6.7-.6,13.65,1.38,20.27,3.19,10.64,6.82,21.14,9.98,31.78,2.33,7.85,3.64,16.05,6.47,23.71,2.05,5.54,5.85,10.43,8.84,15.62,5.75,9.99,11.07,20.25,17.32,29.91,8.28,12.8,9.01,26.11,4.63,40.18-6.17,19.82-19.18,33.86-38.03,41.61-27.53,11.32-54.84,9.78-80.7-5.46-14.3-8.43-24.36-21.24-32.12-35.64-8.03-14.93-15.3-30.26-22.92-45.41-3.76-7.48-7.84-14.82-11.28-22.45-9.01-19.92-11.28-39.94-2.42-60.9,6.4-15.14,16.34-26.89,28.74-37.17,9.32-7.74,18.66-15.55,27.14-24.18,15.61-15.9,33.36-28.82,52.45-40.04,6.24-3.67,12.67-7.03,19.1-10.36,4.72-2.44,8.5-.17,8.22,5.08-.14,2.55-.98,5.23-2.14,7.54-6.23,12.42-12.8,24.67-18.96,37.13-2.67,5.41-4.63,11.17-6.91,16.77.34.26.68.52,1.02.78ZM515.56,308.12c-1.1.78-1.93,1.25-2.63,1.88-10.24,9.09-20.8,17.85-30.6,27.39-10.65,10.38-20.52,21.56-30.88,32.23-3.82,3.94-7.06,8.1-8.96,13.31-3.43,9.42-6.5,18.97-6.33,29.09.14,8.5,2.54,16.66,5.31,24.67.14.39.53.7.89,1.17.51-.55.87-.87,1.16-1.25,9.14-11.9,21.18-19.95,34.86-25.55,19.67-8.06,39.91-6.55,60.14-2.6,4.76.93,9.39,2.52,14.41,3.9-2.29-6.96-4.13-13.8-6.76-20.32-5.23-12.95-6.33-26.36-5.4-40.09.06-.83.09-1.67.16-3.02-.87.65-1.38.91-1.72,1.32-2.89,3.49-5.75,7-8.6,10.53-4.01,4.97-7.78,10.16-12.06,14.89-3.24,3.58-6.76,3.35-9.84-.36-1.23-1.48-2.15-3.65-2.27-5.55-.85-14.4-.55-28.76,3.14-42.81,1.62-6.15,3.84-12.14,5.98-18.82ZM536.86,459.8c-1.5.55-4.13,1.01-6.13,2.38-2.95,2-5.47,4.63-8.14,7.02-5.38,4.82-7.94,11.01-8.55,18.08-.7,8.11,1.63,15.48,5.9,22.25,3.98,6.31,8.73,11.88,16.21,14.24,5.95,1.88,12.25-.35,16.05-5.19,5.8-7.39,7.08-15.86,6.88-24.95-.18-8.22-2.2-15.81-6.29-22.84-3.36-5.78-7.81-10.3-15.91-10.99ZM485.62,499.11c-.09,6.65,6.78,13.83,13.46,13.77,7.44-.06,12.75-6.34,12.98-13.05.26-7.64-6.71-12.65-16.87-12.85-3.66-.07-9.51,7.33-9.57,12.12ZM563.73,492.46c.81,2.46,1.29,4.77,2.31,6.81,2.07,4.1,6.84,6.68,10.63,5.91,2.77-.56,7.21-3.94,7.8-9,.62-5.25-.58-10.07-3.18-14.48-2.89-4.9-9.39-5.55-11.93-1.42-.96,1.57-1.95,3.15-2.7,4.82-1.07,2.36-1.93,4.82-2.93,7.36Z" style="fill: #000; stroke-width: 0px;"/>
  <path d="M316.61,673.63c3.36.41,9.34,1.03,15.28,1.9,5.42.79,10.26-.13,14.86-3.31,8.93-6.16,18.59-7.65,28.99-3.92,1.51.54,3.57.34,5.14-.19,9.52-3.24,18.67-2.37,26.89,3.21,5.81,3.94,11.68,4.94,18.47,4.06,7-.91,14.14-1.58,21.17-1.31,9.68.37,18.18,4.24,24.95,11.38,7.15,7.54,8.91,17.03,8.87,26.83-.02,5.59-4.04,9.63-7.65,13.63-1.53,1.7-2.94,3.72-3.71,5.84-2.56,6.99-6.5,12.88-12.85,16.85-3.75,2.34-7.63,4.58-11.7,6.28-10.74,4.49-21.41,4.19-31.55-1.8-5.99-3.53-11.24-3.49-16.81,1.13-5.26,4.37-11.28,6.06-17.73,1.83-.62-.41-2.02-.29-2.68.14-5.36,3.52-10.5,2.5-15.56-.57-1.34-.82-2.63-1.76-3.84-2.75-3.62-2.96-7.54-3.02-11.69-1.39-.37.14-.72.33-1.07.51-17.84,8.98-33.33,7.14-48.68-5.81-4.66-3.93-7.54-8.99-9.64-14.65-.76-2.04-2-4.1-3.55-5.61-6.69-6.53-8.74-13.77-6.98-23.31,3.93-21.3,22.39-29.05,41.07-28.96ZM323.47,702.96c-9.87-.24-16.14,2.18-20.8,8.22-1.37,1.77-1.24,3.1.96,3.79,4.58,1.45,9.12,3.19,13.82,4.08,7.16,1.35,13.92-.95,20.37-3.74,12.35-5.35,25.13-6.22,38.28-4.48,1.44.19,2.95.09,4.41-.08,12.1-1.38,24.02-1.14,35.47,3.75,2.08.89,4.26,1.54,6.38,2.37,10.09,3.94,19.9,3.02,29.51-1.63,2.97-1.44,3.13-1.97,1.1-4.52-4.69-5.88-11-8.21-18.3-7.77-5.11.31-10.2,1.01-15.27,1.75-7.88,1.15-15.09-.18-22.25-3.93-12.71-6.66-25.86-6.61-38.55.11-6.96,3.68-14.01,4.97-21.68,3.84-5.26-.77-10.55-1.38-13.43-1.76Z" style="fill: #000; stroke-width: 0px;"/>
  <path d="M319.7,563.88c2.57-1.91,5.12-3.84,7.71-5.72,1.12-.81,2.22-1.88,3.48-2.17,1.26-.29,3.22-.21,3.93.57.7.77.76,2.95.15,3.93-1.38,2.24-3.23,4.22-5.07,6.14-3.41,3.56-6.82,7.14-10.49,10.42-2.06,1.84-2.95,3.81-2.69,6.46.21,2.19.35,4.39.52,6.59l.78.18c.63-.69,1.25-1.4,1.9-2.07,4.88-5.01,9.75-10.03,14.68-15,1.48-1.49,3.29-2.51,5.23-.9,1.96,1.63,1.19,3.59.02,5.31-5.66,8.31-11.33,16.61-17.07,24.86-1.76,2.52-1.64,5.97.75,7.79.54.41,1.78.15,2.6-.09,3.38-1.01,6.67-2.42,10.1-3.14,5.03-1.06,9.85-.08,14.05,3,1.71,1.25,3.02,1.09,3.76-.76,1-2.52,2.28-5.15,2.36-7.76.17-5.91,4.48-8.55,9.46-9.7,2.56-.59,4.77,1.12,5.26,4.01.36,2.1.17,4.31.12,6.46-.11,4.34,2.81,7.71,6.77,7.73,4.07.01,7.06-3.54,6.85-7.95-.1-2.24-.25-4.56.2-6.72.55-2.64,2.63-4.2,5.3-3.49,5.85,1.55,8.98,4.03,9.35,9.82.18,2.71,1.54,5.38,2.58,7.98.6,1.49,1.77,1.55,3.13.6,7.74-5.45,15.65-3.96,23.61-.54,1.23.53,2.65,2.25,3.79.22,1.12-1.99,3.09-3.84,1.06-6.66-5.76-8-11.29-16.16-16.91-24.25-.34-.49-.66-.98-.96-1.49-1.08-1.82-1.74-3.77.22-5.31,1.83-1.44,3.6-.5,5.01.91,5.01,5.02,9.96,10.1,14.93,15.16.64.66,1.24,1.37,1.97,2.19,2.38-5.63,1.39-10.36-2.41-14.16-4.53-4.53-8.92-9.2-13.35-13.82-.54-.57-1.3-1.17-1.42-1.85-.23-1.34-.64-3.35.03-3.97.88-.8,3.12-1.15,4.13-.58,3.15,1.79,6,4.12,8.97,6.23.76.54,1.52,1.07,3,2.12-.35-1.79-.41-2.76-.74-3.62-1.74-4.6-3.48-9.21-5.33-13.76-2.02-4.96-1.15-9.07,2.46-10.93,3.45-1.78,7.88-.17,10.42,4.23,4.69,8.1,8.25,16.73,8.83,26.13.84,13.51.53,27.04-2.86,40.26-1,3.88-2.41,7.75-4.23,11.32-8.81,17.2-28.04,21.9-43.84,10.74-2.87-2.02-5.35-4.63-7.81-7.17-1.37-1.41-2.3-1.61-3.97-.44-7.61,5.33-16.24,5.39-23.73.16-1.86-1.3-2.8-1.07-4.42.49-3.24,3.12-6.55,6.39-10.4,8.62-15.32,8.87-32.14,3.95-40.69-11.58-4.77-8.67-6.39-18.17-7.18-27.86-.39-4.81-.41-9.65-.66-14.48-.64-12.06,2.4-23.27,7.9-33.87,1.03-1.98,2.43-3.86,4.01-5.41,2.15-2.11,5.58-2.35,8-1.03,2.36,1.29,3.86,4.39,3.19,7.38-.47,2.09-1.48,4.05-2.24,6.07-1.7,4.54-3.39,9.08-5.09,13.63.33.19.66.38.99.57Z" style="fill: #000; stroke-width: 0px;"/>
  <path d="M283.77,249.2c18.96-2.48,37.09.06,54.84,5.78,4.1,1.32,8.23,2.85,11.96,4.96,6.79,3.83,10.22,10.04,9.28,17.78-1.47,12.13-4.82,23.78-11.66,34.1-5.87,8.84-13.42,11.7-23.76,9.42-7.97-1.76-15.29-5.05-20.96-10.92-13.15-13.61-27.89-25.21-43.32-36.05-3.68-2.58-6.81-5.95-10.12-9.04-.92-.86-1.71-1.93-2.34-3.03-3.4-5.99-1.83-10.23,4.9-11.18,7.87-1.11,15.87-1.29,23.82-1.78,2.55-.16,5.12-.02,7.37-.02Z" style="fill: #000; stroke-width: 0px;"/>
  <path d="M471.98,249.44c6.5,0,13.02-.24,19.51.08,4.69.24,9.41.96,14,1.97,3.8.83,5.3,3.51,4.01,7.16-.95,2.69-2.35,5.59-4.4,7.47-5.29,4.84-10.84,9.47-16.68,13.62-11.53,8.19-22.45,17.03-32.23,27.28-6.54,6.85-14.23,11.78-23.56,14-11.23,2.67-18.86-.11-25.18-9.84-6.52-10.03-9.77-21.34-11.13-33.07-1.08-9.32,3.09-16.43,12.55-19.85,10.14-3.67,20.68-6.77,31.3-8.45,10.42-1.65,21.17-1.22,31.78-1.7l.04,1.34Z" style="fill: #000; stroke-width: 0px;"/>
  <path d="M222.53,604.66c1.67-.12,3.43-.62,4.99-.26,1.41.32,3.25,1.33,3.68,2.49.34.9-.87,3.15-1.94,3.68-3.25,1.59-6.71,2.85-10.2,3.8-2.13.58-3.26,1.5-3.54,3.66-.22,1.76-.62,3.49-.96,5.23-.38,1.96-.67,3.64,1.47,5.15,1.81,1.28,1.5,3.71-.21,4.86-3.1,2.09-3.37,5.07-3.6,8.24-.1,1.37.05,2.92-.54,4.06-.59,1.14-1.93,2.58-2.98,2.61-1.06.03-2.47-1.32-3.17-2.42-.94-1.47-.92-4.1-2.09-4.71-1.15-.6-3.27.87-5.01,1.14-4.86.75-9.73,1.49-14.63,1.96-2.28.22-2.95,1.05-2.43,3.18.41,1.72,1.04,3.5.93,5.21-.08,1.23-1,3.06-1.96,3.39-.98.34-3.04-.49-3.64-1.43-1.45-2.31-2.47-4.93-3.39-7.52-.69-1.93-1.7-2.77-3.81-2.95-6.97-.6-13.93-1.31-20.86-2.26-2.65-.37-3.38.5-3.3,2.89.06,1.57-.09,3.15-.13,4.73-.06,2.12-.5,4.14-3.05,4.27-2.38.12-3.09-1.72-3.36-3.73-.34-2.54-.78-5.08-.94-7.63-.12-2-1.06-2.88-2.89-3.52-2.49-.87-4.97-1.92-7.21-3.3-2.29-1.42-3.3-3.78-2.15-6.42,1.18-2.71,3.59-3.1,6.24-2.63.58.1,1.15.26,1.74.36,3.27.58,3.28.33,3.76-2.94,1.25-8.57,2.56-17.13,4.25-25.62.51-2.58.23-3.9-2.26-4.68-.73-.23-1.44-.68-2.03-1.18-1.74-1.46-2.58-3.29-1.57-5.5.96-2.1,2.84-2.61,4.96-2.34.86.11,1.75.39,2.52.8,1.83.97,2.79.35,3.73-1.37,1.17-2.14,2.5-4.27,4.13-6.07,2.17-2.41,5.31-2.8,7.5-1.39,2.23,1.43,2.92,4.31,1.76,7.42-.14.37-.31.73-.47,1.09-2.68,5.96-2.69,5.98,3.36,8.08,3.26,1.13,6.57,2.12,9.81,3.28,1.9.68,2.83.11,3.6-1.74,1.17-2.81,2.48-5.6,4.11-8.16.9-1.4,2.43-2.87,3.95-3.27,1.43-.38,3.55.17,4.78,1.09,1.86,1.39,1.63,3.66.76,5.7-1.08,2.54-2.22,5.05-3.36,7.56-.8,1.76-.38,2.76,1.62,3.14,4.65.87,9.29,1.81,13.92,2.76,1.89.39,2.85-.27,3.48-2.16,1.09-3.26,2.36-6.48,3.82-9.59.69-1.47,1.88-2.79,3.09-3.9,2.6-2.38,5.76-2.65,8.11-.93,2.23,1.63,2.74,4.43,1.44,7.77-.86,2.2-1.76,4.39-2.51,6.63-1.08,3.25-.82,3.53,2.67,3.37ZM158.95,628.69s0,.03,0,.05c2.76.14,5.52.21,8.27.43,2.1.17,2.94-.54,3.11-2.77.42-5.39,1.05-10.78,1.79-16.14.26-1.89-.09-2.89-1.96-3.6-4.7-1.78-9.35-3.7-13.97-5.67-1.72-.74-2.8-.6-3.28,1.39-1.86,7.65-3.75,15.3-5.64,22.95-.47,1.92.3,2.74,2.23,2.82,3.15.12,6.3.35,9.44.54ZM191.87,629.7c2.16-.14,5.52-.21,8.82-.69.84-.12,2.03-1.47,2.12-2.36.31-3.02.13-6.09.28-9.13.09-1.81-.8-2.33-2.4-2.62-5.12-.96-10.22-2-15.31-3.14-1.65-.37-2.67-.26-2.94,1.66-.63,4.58-1.31,9.15-1.97,13.72-.29,1.98.69,2.63,2.54,2.58,2.56-.07,5.11-.02,8.85-.02Z" style="fill: #000; stroke-width: 0px;"/>
  <path d="M529.2,604.35c1.87.12,3.74.24,5.61.37,1.8.12,2.35-.71,1.76-2.34-.87-2.41-1.72-4.83-2.68-7.2-1.55-3.82-1.06-6.8,1.52-8.5,2.53-1.67,6.52-1.17,8.66,2.02,2.43,3.62,4.3,7.72,5.81,11.83.96,2.63,2.09,3.41,4.71,2.81,4.32-.99,8.69-1.81,13.04-2.65,1.78-.35,2.34-1.24,1.6-2.93-1-2.25-1.92-4.54-2.99-6.76-1.56-3.24-1.26-5.95.95-7.44,2.27-1.53,5.43-.89,7.44,2.06,1.86,2.75,3.39,5.78,4.67,8.85.9,2.17,1.98,2.58,4.05,1.82,4.26-1.55,8.56-3,12.88-4.38,1.96-.62,2.58-1.54,1.57-3.45-.79-1.48-1.48-3.01-2.11-4.56-1.18-2.93-.54-5.65,1.6-7.19,2.12-1.53,5.05-1.38,7.28.86,1.64,1.64,3.07,3.63,4.13,5.7,1.15,2.25,2.32,3.34,4.75,1.82.48-.3,1.11-.43,1.69-.51,2.24-.29,4.21.21,5.14,2.49.9,2.22.26,4.69-1.78,5.35-5.65,1.81-3.9,5.31-3.13,9.26,1.44,7.44,2.42,14.97,3.27,22.5.29,2.56,1.12,3.34,3.5,2.71.86-.23,1.73-.44,2.61-.53,2.43-.24,4.64.28,5.65,2.76.97,2.36.33,4.66-1.72,6.06-2.09,1.42-4.41,2.73-6.82,3.37-2.83.75-3.83,2.25-3.88,4.98-.03,1.96-.42,3.92-.71,5.87-.31,2.11-.75,4.42-3.5,4.29-2.72-.13-3.01-2.39-3.07-4.58-.04-1.68-.14-3.35-.12-5.03.02-1.91-.69-2.56-2.7-2.31-7.24.89-14.49,1.66-21.76,2.33-1.89.17-2.76,1.01-3.37,2.69-.92,2.49-2.01,4.93-3.14,7.33-.8,1.69-2.4,2.91-4.02,1.87-1.08-.69-1.79-2.64-1.86-4.06-.12-2.37,1.37-5.4.36-6.97-.82-1.27-4.36-.68-6.66-1.09-4.36-.78-8.74-1.51-13.02-2.62-2.13-.55-3.06-.39-3.38,1.95-.31,2.31-.57,5.22-3.76,5.1-3.4-.13-3.22-3.16-3.43-5.59-.33-3.6-.15-7.19-3.85-9.66-1.83-1.22-1.69-3.64.34-5.03,1.54-1.05,1.45-2.23,1.37-3.8-.3-6.05-2.07-10.61-9.2-11.09-1.77-.12-3.48-1.31-5.18-2.1-1.82-.85-3.26-2.1-2.63-4.36.64-2.27,2.55-2.48,4.53-2.33ZM596.52,628.78s0-.02,0-.03c3.34-.21,6.69-.45,10.03-.61,1.7-.08,2.66-.73,2.21-2.56-1.9-7.84-3.82-15.69-5.75-23.52-.36-1.47-1.23-1.83-2.66-1.24-5.01,2.08-10.07,4.02-15.02,6.22-.75.33-1.47,1.82-1.4,2.71.48,5.69,1.27,11.34,1.78,17.03.18,1.97,1.04,2.54,2.84,2.41,2.65-.19,5.31-.27,7.97-.4ZM563.92,629.69c3.92,0,6.58-.03,9.24,0,1.75.02,2.61-.72,2.36-2.51-.64-4.59-1.32-9.17-1.96-13.76-.26-1.88-1.26-2.06-2.94-1.68-5.09,1.15-10.21,2.19-15.34,3.15-1.65.31-2.41.96-2.33,2.71.13,2.95.16,5.92.11,8.87-.03,1.72.63,2.55,2.37,2.65,3.25.17,6.49.42,8.49.55Z" style="fill: #000; stroke-width: 0px;"/>
  <path d="M161.57,680.72c.85.63,2.6,1.56,3.85,2.95,5.62,6.21,11.05,12.61,16.65,18.85,11.11,12.38,23.85,22.99,36.67,33.49,26.78,21.93,53.65,43.75,80.48,65.61.92.75,1.81,1.53,2.7,2.3,1.59,1.39,2.92,3.02,1.39,5.07-1.52,2.05-3.49,1.21-5.29.18-1.03-.59-2.03-1.21-3.06-1.81-18.13-10.52-35.13-22.65-51.15-36.17-20.79-17.55-41.76-34.92-62.32-52.73-8.72-7.55-16.42-16.23-22.61-26.08-1.09-1.74-2.16-3.59-2.74-5.53-1-3.36,1.21-6.24,5.42-6.12Z" style="fill: #000; stroke-width: 0px;"/>
  <path d="M455.61,810.2c-3.05-.11-4.39-2.34-3.17-4.43.58-.99,1.51-1.81,2.42-2.54,18.21-14.64,36.63-29.02,54.6-43.95,18.8-15.62,37.47-31.42,55.58-47.83,8.8-7.97,16.17-17.5,24.2-26.32.99-1.09,1.93-2.27,3.06-3.2,1.75-1.43,3.78-1.8,5.75-.46,2.05,1.4,2.72,3.55,1.72,5.73-1.31,2.85-2.86,5.63-4.64,8.21-7.17,10.36-15.89,19.4-25.37,27.58-16.42,14.16-33.3,27.78-49.83,41.82-19.13,16.25-39.05,31.35-60.94,43.73-1.26.71-2.6,1.29-3.37,1.66Z" style="fill: #000; stroke-width: 0px;"/>
  <path d="M391.14,479.33c.77-14.06,1.43-26.37,2.14-38.67.06-1.06.09-2.41.72-3.09,1.05-1.13,2.58-2.51,3.88-2.49,1.32.02,2.85,1.42,3.82,2.6.64.78.62,2.25.62,3.4.13,24.68-1.15,49.27-4.61,73.72-.14.97-.19,2.12-.75,2.81-.66.83-1.84,1.74-2.77,1.71-.91-.03-2.02-1.05-2.6-1.92-.49-.73-.45-1.89-.45-2.86-.03-12.32-.02-24.64-.02-35.21Z" style="fill: #000; stroke-width: 0px;"/>
  <path d="M364.78,478.1c0,12.1,0,24.03,0,35.95,0,.79.22,1.75-.15,2.33-.73,1.13-1.84,2.89-2.7,2.85-1.17-.06-2.91-1.4-3.25-2.53-.78-2.61-.88-5.43-1.24-8.16-2.92-22.33-3.81-44.78-3.8-67.27,0-.98-.18-2.24.33-2.87,1.09-1.34,2.43-2.94,3.95-3.35,2.12-.57,3.66,1.06,4.37,3.12.28.83.4,1.73.45,2.61.69,12.5,1.36,25,2.03,37.34Z" style="fill: #000; stroke-width: 0px;"/>
  <path d="M351.47,842.53c1.75-1.64,3.5-3.27,5.24-4.91.93-.87,1.73-2.05,2.83-2.54,1.03-.46,2.75-.68,3.5-.12.88.66,1.72,2.5,1.41,3.45-2.32,7.09-6.2,13.04-13.58,15.75-5.12,1.88-9.99-.69-11.19-6.02-.61-2.73-.4-5.66-.45-8.51-.07-3.84.31-7.71-.1-11.5-.66-6.03-3.35-11.04-8.61-14.5-2.78-1.83-3.52-4.34-2.3-6.54,1.26-2.28,3.98-2.94,7.04-1.62,5.22,2.26,8.76,6.28,11.36,11.19,3.52,6.66,4.31,13.86,4.1,21.25-.04,1.42,0,2.84,0,4.26.25.12.5.24.75.36Z" style="fill: #000; stroke-width: 0px;"/>
  <path d="M405.27,842.08c0-2.54-.05-5.07,0-7.61.24-9.45,2.36-18.24,9.55-24.97,1.9-1.78,4.28-3.16,6.65-4.27,2.34-1.1,4.7-.62,6.21,1.77,1.25,1.97.69,4.64-1.7,6.21-7.67,5.04-9.69,12.52-9.49,21.04.08,3.45.43,6.89.4,10.34-.04,3.69-1.07,7.09-4.56,9.05-3.72,2.08-7.27,1.04-10.6-1.07-4.96-3.15-8.07-7.8-9.94-13.21-.43-1.24.12-3.67,1.06-4.3.93-.62,3.28-.14,4.37.7,2.6,2,4.82,4.49,7.2,6.79.28-.15.57-.31.85-.46Z" style="fill: #000; stroke-width: 0px;"/>
  <path d="M713.59,371.52c-.95,16.44-2.63,32.6-9.94,47.57-4,8.19-9.53,15.18-17.11,20.41-10.61,7.33-22.85,7.43-33.51.19-2.19-1.49-4.22-3.24-6.26-4.94-1.6-1.34-2.8-3-1.62-5.15,1.18-2.15,3.17-1.94,5.2-1.34,2.55.76,5.1,1.55,7.68,2.18,16.29,3.98,28.9-1.67,36.11-16.9,6.94-14.67,9.36-30.44,7.78-46.45-2.1-21.42-9.85-41.1-21.1-59.4-1.23-2.01-2.87-3.76-4.24-5.69-1.55-2.18-2.14-4.48-.32-6.81,1.56-1.99,4.38-2.48,6.96-.74,2.33,1.57,4.62,3.46,6.32,5.67,2.44,3.19,4.81,6.6,6.34,10.28,6.95,16.63,14.55,33.08,17.02,51.2.45,3.31.48,6.68.7,9.91Z" style="fill: #000; stroke-width: 0px;"/>
  <path d="M42.71,377.16c-.38-13.44.75-22.36,3.74-30.88,4.07-11.62,8.3-23.21,13.13-34.53,2.16-5.07,5.86-9.5,9.07-14.08.92-1.31,2.46-2.27,3.88-3.13,2.82-1.7,5.6-1.37,7.25.64,1.56,1.9,1.34,4.5-.5,7.07-2.41,3.36-5.11,6.58-7.06,10.19-8.62,15.98-15.32,32.73-17.75,50.81-2.25,16.73.24,33.04,6.64,48.67,1.18,2.88,2.87,5.65,4.78,8.12,7.27,9.4,16.76,13.47,28.61,11.1,3.76-.75,7.44-1.89,11.15-2.91,2.04-.56,4.02-.78,5.2,1.36,1.1,2-.02,3.54-1.43,4.95-13.82,13.79-31.42,13.96-45.47.42-7.95-7.66-13.06-16.98-16.12-27.49-3.29-11.33-4.81-22.94-5.11-30.33Z" style="fill: #000; stroke-width: 0px;"/>
  <path d="M708.14,158.59c-.62,23.55-6.51,45.83-20.53,65.56-4.65,6.54-10.69,11.56-17.93,15.09-1.96.96-3.98,1.72-5.64-.3-1.68-2.04-.47-3.86.86-5.57,4.49-5.75,9.33-11.27,13.4-17.3,15.38-22.77,22.94-47.69,19.25-75.33-1.96-14.72-9.22-26.46-21.27-35.19-3.18-2.31-6.61-3.82-10.72-3.53-2.56.18-4.74-.84-5.54-3.5-.83-2.76.51-4.8,2.73-6.3,4.01-2.7,8.31-2.86,12.71-1.09,6.34,2.55,10.9,7.34,15.23,12.38,10.74,12.5,15.11,27.47,16.65,43.49.36,3.73.52,7.48.79,11.6Z" style="fill: #000; stroke-width: 0px;"/>
  <path d="M57.31,153.71c1.1,25.05,8.62,47.78,24.24,67.6,3.24,4.1,6.47,8.21,9.7,12.31,1.31,1.66,2.19,3.48.64,5.35-1.55,1.87-3.5,1.31-5.39.39-8.27-4.05-14.93-10-19.86-17.7-14.75-23.1-20.72-48.34-17.92-75.63,1.69-16.47,6.48-31.73,18.05-44.07,3.53-3.76,7.66-7.13,12-9.91,4.58-2.93,9.72-3.07,14.51.18,2.23,1.52,3.53,3.59,2.67,6.31-.82,2.6-2.98,3.67-5.57,3.48-4.11-.31-7.52,1.24-10.71,3.54-13.99,10.11-20.76,24.12-22.02,41.05-.18,2.36-.23,4.73-.34,7.09Z" style="fill: #000; stroke-width: 0px;"/>
  <path d="M363.1,61c-.77-.22-2.28-.43-3.57-1.08-18.05-9.21-36.93-8.39-55.64-3.42-10,2.66-19.39,7.6-29.05,11.52-.91.37-1.78.84-2.67,1.27-1.81.88-3.68,1.28-5.11-.49-1.55-1.92-.56-3.67.77-5.31,11.92-14.73,27.35-22.87,46.2-24.43,12.9-1.07,25.83-1.29,38.5,1.85,4.24,1.05,8.37,2.93,12.19,5.09,2.16,1.22,4.12,3.5,5.22,5.76,2.17,4.49-1.16,9.16-6.84,9.25Z" style="fill: #000; stroke-width: 0px;"/>
  <path d="M385.02,54.12c1-1.85,1.58-4.23,3.1-5.42,3.04-2.4,6.41-4.59,9.97-6.09,7.83-3.32,16.26-3.81,24.65-4.06,13.66-.4,27.2.17,40.11,5.46,10.41,4.27,18.6,11.33,25.62,19.93,1.22,1.49,1.77,3.18.41,4.85-1.46,1.79-3.28,1.34-5.11.53-8.1-3.6-16.07-7.53-24.33-10.7-13.88-5.31-28.37-6.37-43.08-4.87-6.54.67-12.66,2.75-18.6,5.55-1.97.93-4.32,1.47-6.49,1.44-3.4-.04-5.69-2.89-6.24-6.61Z" style="fill: #000; stroke-width: 0px;"/>
  <path d="M604.66,365.86c.3-11.16,4.96-20.4,13.97-27.23,10.73-8.14,26.32-6.02,34.86,4.45,1.76,2.16,2.44,4.56.8,7.08-1.66,2.53-4.17,2.85-6.81,2.02-1.96-.62-3.83-1.55-5.73-2.38-11.91-5.16-23.71,2.5-23.84,15.63-.03,3.12.69,6.25,1.14,9.36.54,3.7,1.27,7.38,1.74,11.09.3,2.37.47,4.97-2.34,6.07-2.79,1.09-4.42-.97-5.92-2.8-5.48-6.7-7.56-14.58-7.87-23.29Z" style="fill: #000; stroke-width: 0px;"/>
  <path d="M151.34,366.4c-.17,7.5-2.03,14.94-6.86,21.45-.82,1.1-1.65,2.38-2.78,3.01-1.25.7-3.12,1.38-4.23.91-1.1-.47-2.24-2.38-2.24-3.65,0-3.23.57-6.46,1.05-9.67.52-3.41,1.38-6.77,1.78-10.19.93-7.95-2.55-13.95-8.76-18.54-3.04-2.25-6.54-2.84-10.12-1.66-3.08,1.01-5.98,2.61-9.08,3.5-1.97.57-4.39.96-6.22.33-3.8-1.31-3.98-6.12-.67-9.56,11.12-11.55,27.19-11.65,38.31-.12,6.35,6.59,9.76,14.47,9.83,24.19Z" style="fill: #000; stroke-width: 0px;"/>
  <path d="M257.74,193.68c.07-3.2,1.4-7.04,3.94-10.27,10.4-13.22,24.03-19.86,40.9-18.78,3.63.23,7.29,2.19,10.63,3.93,1.67.87,2.9,2.92,3.88,4.69,1.39,2.51,1.3,5.19-.82,7.39-2.15,2.24-4.98,2.5-7.32.88-11.48-7.99-28.58-.81-36.64,8.03-4.48,4.91-4.92,8.3-1.74,14.16.33.61.93,1.23.9,1.83-.05,1.28-.02,3.01-.79,3.68-.78.68-2.69.79-3.74.32-5.22-2.32-9.26-9.07-9.21-15.85Z" style="fill: #000; stroke-width: 0px;"/>
  <path d="M455.56,164.01c16.13,1.14,28.13,6.6,37.31,17.5,2.21,2.63,3.88,6.02,4.84,9.34,2.09,7.22-1.88,15.44-8.65,18.62-1.08.51-3.07.31-3.96-.41-.73-.58-.51-2.42-.57-3.71-.02-.42.42-.87.65-1.3,3.57-6.58,3.14-10.01-2.19-15.28-5.7-5.63-12.5-9.21-20.46-10.45-4.84-.76-9.42.06-13.74,2.38-.87.46-1.74.95-2.67,1.26-4.85,1.63-8.88-1.96-7.77-6.97.8-3.61,3.12-6.36,6.39-7.7,4.03-1.65,8.36-2.55,10.82-3.27Z" style="fill: #000; stroke-width: 0px;"/>
  <path d="M555.41,179.18c-9.11-.5-15.93-3.59-22.45-7.36-8.5-4.92-16-10.94-19.94-20.33-2.97-7.07-3.31-14.24.57-21.1,1.13-2,2.88-3.76,4.67-5.23,1.98-1.62,4.41-1.83,6.53-.05,2.02,1.7,1.94,3.89,1.12,6.23-.78,2.21-1.76,4.44-2,6.74-.58,5.61,1.84,10.22,5.75,14.01,8.59,8.33,18.96,13.7,30.07,17.79.83.31,1.88.37,2.46.93.92.9,2.09,2.11,2.1,3.2.02,1.09-1.02,2.78-2.01,3.19-2.6,1.07-5.42,1.58-6.88,1.97Z" style="fill: #000; stroke-width: 0px;"/>
  <path d="M245.27,140.28c-.15,8.89-3.41,15.53-8.74,21.13-7.87,8.27-17.52,13.67-28.46,16.77-4.36,1.24-8.77,1.29-13.1-.29-1.85-.67-3.5-1.6-3.47-3.88.03-2.28,1.69-3.13,3.58-3.75,10.13-3.31,19.45-8.23,27.71-14.94,2.85-2.32,5.39-5.26,7.35-8.37,2.86-4.52,2.89-9.51.55-14.43-1.68-3.52-1.46-5.92.6-7.53,2.19-1.71,5.25-1.26,8,1.31,4.32,4.03,5.83,9.22,5.98,13.98Z" style="fill: #000; stroke-width: 0px;"/>
  <path d="M689.69,361.22c.09,18.49-14.57,28.76-30.43,22.88-7.69-2.85-13.2-8.48-18.13-14.71-.71-.9-.68-3.34.04-4.17.73-.84,2.97-1.14,4.15-.68,3.75,1.47,7.19,3.79,10.98,5.07,3.77,1.28,7.81,2.28,11.75,2.37,6.02.14,9.6-3.49,9.85-9.53.29-7.03-1.14-13.72-5.59-19.46-1.89-2.44-1.99-5-.31-6.71,1.69-1.71,4.39-1.88,6.75-.06,1.53,1.18,2.97,2.65,4.03,4.26,4.45,6.74,6.67,14.22,6.91,20.72Z" style="fill: #000; stroke-width: 0px;"/>
  <path d="M87.98,385.7c-12.72-.06-21.71-9.42-21.64-22.76.05-8.19,2.46-15.76,6.97-22.58,1.11-1.68,2.68-3.18,4.33-4.36,2.11-1.52,4.52-1.64,6.42.48,1.82,2.03,1.38,4.3-.18,6.21-3.95,4.81-5.1,10.56-5.79,16.48-.15,1.26-.06,2.57.09,3.83.69,5.73,3.98,9.09,9.78,9,3.66-.06,7.44-.88,10.93-2.06,3.8-1.29,7.33-3.37,10.96-5.14,1.8-.88,3.63-1.44,5.11.35,1.47,1.78.84,3.65-.61,5.05-3.96,3.81-7.83,7.79-12.16,11.13-4.05,3.12-9,4.38-14.18,4.37Z" style="fill: #000; stroke-width: 0px;"/>
  <path d="M377.49,95.63c-10.64-1.69-20.34-5.55-27.55-14.09-1.81-2.14-2.74-5.19-3.55-7.97-.73-2.54.16-4.98,2.71-6.26,2.58-1.29,4.98-.43,6.59,1.7,5.03,6.62,11.98,10.46,19.41,13.51,1.69.69,4.14.7,5.82,0,7.33-3.01,14.25-6.73,19.19-13.3,1.68-2.23,4.1-3.23,6.8-1.89,2.69,1.34,3.5,3.92,2.65,6.54-.96,2.94-2.01,6.19-4.02,8.38-7.42,8.07-16.94,12.14-28.05,13.38Z" style="fill: #000; stroke-width: 0px;"/>
  <path d="M621.22,422.87c-.14-6.48.73-12.77,3.96-18.54,5.86-10.46,16.65-14.64,28-10.78,7.3,2.49,13.25,6.91,17.85,13.06,3.2,4.27,3.37,7.98.78,10.42-2.48,2.35-5.32,1.86-9.81-1.26-3.87-2.69-7.76-5.46-11.96-7.55-7.93-3.95-13.39-1.83-16.87,6.32-1.66,3.88-2.78,7.99-4.17,11.99-.35,1.02-.51,2.27-1.2,2.98-1.06,1.09-2.63,2.6-3.75,2.43-1.09-.17-2.35-2.11-2.71-3.48-.47-1.75-.11-3.71-.11-5.58Z" style="fill: #000; stroke-width: 0px;"/>
  <path d="M134.75,422.61c0,1.87.06,3.75-.02,5.62-.07,1.91-.73,3.6-2.87,3.92-2.15.32-3.25-1.14-3.88-2.93-1.12-3.16-2.05-6.38-3.22-9.52-1.03-2.76-1.99-5.6-3.48-8.12-2.83-4.82-6.92-6.56-12.08-4.51-4.52,1.8-8.67,4.57-12.92,7.02-1.7.98-3.15,2.39-4.83,3.41-2.29,1.39-4.72,1.52-6.91-.22-2.23-1.76-2.43-4.18-1.64-6.71.32-1.02.81-2.04,1.42-2.91,5.71-8.08,13.3-13.47,23.09-15.2,11.52-2.03,22.14,5.11,25.7,17.32,1.2,4.12,1.49,8.5,2.2,12.76-.19.02-.39.05-.58.07Z" style="fill: #000; stroke-width: 0px;"/>
  <path d="M486.25,98.74c-8.54-.51-17.76-3.45-24.22-12.24-.52-.71-.98-1.48-1.41-2.25-.97-1.75-1.62-3.85.23-5.06,1.21-.79,3.36-.85,4.82-.39,3.08.98,5.89,2.84,8.98,3.75,4.5,1.33,9.12,2.72,13.76,3.05,7.76.55,13.4-3.58,16.12-10.9.82-2.21,1.29-4.54,1.96-6.81.98-3.33,3.27-5.28,6-5.17,2.75.11,4.93,2.16,5.72,5.53.99,4.19.28,8.23-1.28,12.15-4.49,11.25-15.82,18.44-30.68,18.34Z" style="fill: #000; stroke-width: 0px;"/>
  <path d="M116.97,295.07c-.11,9.2-3.18,17.18-10.1,23.41-3.45,3.11-7.45,5.18-12.27,5.08-2.69-.06-4.85-1.13-5.74-3.81-.91-2.71.34-4.79,2.39-6.48,2.35-1.94,4.98-3.6,7.05-5.8,9.46-10.04,5.68-25.06-7.33-29.6-.56-.19-1.28-.22-1.65-.6-1.04-1.05-2.74-2.27-2.7-3.36.05-1.3,1.37-3.15,2.61-3.71,6.33-2.85,12.54-2.37,18.08,2.02,6.38,5.04,8.89,12.08,9.66,19.9.1.98.01,1.97.01,2.95Z" style="fill: #000; stroke-width: 0px;"/>
  <path d="M638.91,294.86c.38-8.22,2.37-15.65,8.38-21.37,5.35-5.1,11.64-6.27,18.6-3.74,1.96.71,4.04,1.82,3.5,4.05-.35,1.46-2.04,3.12-3.52,3.68-4.08,1.54-7.67,3.51-10.09,7.29-5.57,8.69-4.05,17.81,4.3,25.05,1.48,1.28,3.2,2.3,4.75,3.5,2.14,1.66,3.2,3.83,2.29,6.49-.91,2.66-3.08,3.69-5.78,3.76-4.05.12-7.55-1.47-10.63-3.87-8.14-6.33-11.5-14.97-11.81-24.84Z" style="fill: #000; stroke-width: 0px;"/>
  <path d="M269.88,98.75c-15.57-.01-27.21-7.65-31.05-19.5-1.06-3.26-1.19-6.98-1.02-10.45.18-3.66,2.8-5.97,5.76-6.09,2.77-.12,5.06,1.94,6.06,5.49.57,1.99,1,4.03,1.69,5.97,2.86,8.02,8.79,12.3,17.23,11.4,5.02-.53,9.92-2.34,14.8-3.81,2.25-.67,4.34-1.87,6.48-2.89,1.89-.91,3.8-1.47,5.42.33,1.61,1.78,1.1,3.86-.2,5.43-2.43,2.93-4.8,6.08-7.82,8.31-5.71,4.22-12.45,5.78-17.37,5.81Z" style="fill: #000; stroke-width: 0px;"/>
  <path d="M141.1,193.69c-.19,8.72-2.07,15.58-6.83,21.37-1.66,2.02-3.71,3.88-5.93,5.23-1.13.69-3.43.63-4.49-.11-.88-.62-1.22-2.86-.89-4.15.8-3.14,2.24-6.1,3.22-9.2,2.3-7.31,2.11-14.56-.83-21.7-2.38-5.77-6.11-10.3-11.78-13.11-.88-.43-1.76-.94-2.48-1.59-1.89-1.7-2.87-3.79-2.02-6.35.84-2.51,2.73-3.81,5.31-4.04,4.12-.37,7.83.95,11.12,3.28,10.92,7.71,14.82,18.93,15.59,30.37Z" style="fill: #000; stroke-width: 0px;"/>
  <path d="M639.54,159.99c4.33.02,6.79,1.63,7.52,4.36.71,2.68-.61,5.37-3.53,7.14-13.3,8.1-18.18,21.05-13.5,35.97.89,2.82,2.24,5.51,2.89,8.38.32,1.39,0,3.8-.91,4.39-1.13.73-3.56.66-4.75-.11-7.15-4.68-10.71-11.76-11.8-19.98-1.6-12.09,1.73-22.9,9.68-32.13,3.98-4.62,8.97-7.68,14.4-8Z" style="fill: #000; stroke-width: 0px;"/>
  <path d="M128.02,246.43c.06,9.67-1.51,15.83-4.43,21.66-.94,1.88-2.17,3.48-4.53,3-2.39-.49-2.84-2.5-2.91-4.57-.12-3.94-.3-7.89-.26-11.83.16-15.38-6.55-27.3-18.32-36.7-1-.8-2.09-1.51-2.97-2.44-1.67-1.77-2.45-3.87-1.38-6.23,1.12-2.47,3.34-3.6,5.83-3.02,2.63.61,5.42,1.49,7.58,3.03,13.78,9.82,20.49,23.51,21.37,37.1Z" style="fill: #000; stroke-width: 0px;"/>
  <path d="M627.98,249.52c.67-15.62,6.94-28.54,19.01-38.49,2.37-1.96,5.34-3.36,8.25-4.46,3.26-1.23,6.21.01,7.44,2.46,1.24,2.47.46,5.42-2.37,7.51-5.62,4.15-10.38,9.05-14.03,15.03-4,6.56-5.97,13.68-6.11,21.34-.09,4.53-.19,9.07-.35,13.6-.07,2.06-.55,4.07-2.93,4.57-2.37.5-3.57-1.12-4.5-3-2.88-5.84-4.45-11.99-4.41-18.57Z" style="fill: #000; stroke-width: 0px;"/>
  <path d="M140.53,232.8c.23-6.87,3.08-12.64,7.26-17.8,5.3-6.53,11.75-11.63,19.52-14.96,4.16-1.78,8.46-2.65,12.99-1.95,5.2.8,9.14,4.34,10.16,9.06.8,3.71-1.75,6.29-5.24,4.9-4.35-1.74-8.32-.98-12.28.86-7.47,3.46-13.86,8.36-18.58,15.14-1.53,2.2-2.56,4.88-3.25,7.5-1.02,3.84-2.51,5.8-5.26,5.73-2.85-.06-4.72-2.28-5.19-6.16-.09-.78-.1-1.57-.15-2.3Z" style="fill: #000; stroke-width: 0px;"/>
  <path d="M579.56,197.87c.52.05,1.84,0,3.06.34,14.99,4.14,25.97,13.07,31.56,27.73,1.26,3.3.92,7.35.69,11.02-.16,2.52-2.1,4.26-4.87,4.27-2.86.01-4.38-1.89-4.73-4.42-.82-6.06-4.28-10.5-8.48-14.51-4.68-4.46-9.87-8.16-16.04-10.34-3.17-1.12-6.27-1.22-9.55-.13-1.36.45-3.72.31-4.52-.56-.95-1.04-1.25-3.29-.88-4.8,1.28-5.35,6.45-8.59,13.76-8.6Z" style="fill: #000; stroke-width: 0px;"/>
  <path d="M679.14,161.55c-.43,8.72-3.9,16.44-10.98,22.3-6.61,5.48-14.07,6.12-21.98,3.2-1.89-.7-3.5-1.71-3.17-4.01.34-2.33,2.23-2.84,4.21-2.86,8.67-.08,14.22-4.5,17.27-12.37,2.5-6.46,1.39-12.19-3.72-17-.93-.88-1.94-1.68-2.84-2.59-1.86-1.88-2.91-4.06-1.7-6.67,1.25-2.7,3.72-3.82,6.37-3.1,2.77.76,5.68,1.9,7.87,3.69,5.92,4.82,8.57,11.38,8.67,19.41Z" style="fill: #000; stroke-width: 0px;"/>
  <path d="M76.89,161.63c.19-8.27,2.84-14.87,8.83-19.57,2.41-1.89,5.71-2.88,8.76-3.66,2.24-.57,4.19.87,5.25,3.01,1.09,2.19.55,4.27-.95,6.04-.95,1.12-2.13,2.04-3.21,3.04-4.86,4.54-6.61,9.96-4.36,16.33,2.36,6.69,6.33,11.79,13.88,12.98,1.36.21,2.86-.03,4.08.47,1.39.57,3.18,1.49,3.66,2.7.77,1.94-.87,3.22-2.67,3.91-8.2,3.18-15.9,2.46-22.69-3.36-6.88-5.9-10.17-13.6-10.6-21.91Z" style="fill: #000; stroke-width: 0px;"/>
  <path d="M448.09,205.71c-9.59-.25-20-2.6-29.37-8.35-2.88-1.77-5.43-4.23-7.73-6.74-1.25-1.36-1.93-3.43-2.35-5.3-.51-2.26.3-4.35,2.47-5.53,2.18-1.17,4.29-.71,5.98.96,13.58,13.47,30.15,15.83,48.13,13.04,1.85-.29,3.68-.67,5.52-1.01,2.12-.4,4.34-.68,5.23,1.88.88,2.51-1.01,3.73-2.84,4.85-7.28,4.46-15.27,6.16-25.04,6.19Z" style="fill: #000; stroke-width: 0px;"/>
  <path d="M308.23,205.71c-9.72-.02-17.36-1.6-24.41-5.6-.77-.44-1.81-.76-2.19-1.44-.74-1.33-1.76-3.06-1.4-4.25.27-.91,2.52-1.83,3.8-1.73,3.42.26,6.8,1.15,10.21,1.66,12.53,1.9,24.39-.38,35.49-6.29,2.98-1.58,5.6-3.97,8.09-6.3,2.56-2.4,5.1-3.25,7.36-1.82,2.26,1.44,3.4,4.56,1.66,7.33-2.04,3.25-4.53,6.58-7.61,8.77-9.71,6.89-20.93,9.36-31,9.67Z" style="fill: #000; stroke-width: 0px;"/>
  <path d="M555.38,119.42c-.12,12.42-4.88,20.81-11.17,28.48-.73.89-2.99,1.32-4.1.87-.9-.36-1.39-2.32-1.59-3.65-.14-.98.48-2.08.78-3.12,1.12-3.88,2.24-7.76,3.37-11.63,4.45-15.26-4.01-26.44-13.18-32.96-.56-.4-1.18-.72-1.72-1.14-2.3-1.79-3.17-4.56-2-6.77,1.36-2.58,3.69-3.1,6.31-2.56,1.14.24,2.31.66,3.28,1.29,12.04,7.85,19.05,18.74,20.02,31.18Z" style="fill: #000; stroke-width: 0px;"/>
  <path d="M200.71,118.76c.99-12,8.09-22.75,19.99-30.59.33-.21.7-.35,1.07-.51,3.7-1.61,6.96-.96,8.38,1.68,1.45,2.68.25,5.57-3.25,7.84-11.99,7.76-16.81,19.54-13.49,33.38,1.06,4.4,2.48,8.72,3.73,13.07.6,2.1.96,4.27-1.47,5.39-2.25,1.04-3.67-.49-4.91-2.16-5.7-7.64-10.14-15.77-10.04-28.1Z" style="fill: #000; stroke-width: 0px;"/>
  <path d="M655.85,131.27c-8.9-.36-16.61-4.07-21.89-12.09-3.69-5.6-3.56-12.5.45-16.74,1.1-1.16,3.34-2.12,4.77-1.82,1.23.26,2.62,2.3,2.98,3.79,2.06,8.54,9.38,13.51,18.17,11.9,2.51-.46,4.93-1.38,7.41-1.98,3.29-.8,5.89.15,7.25,2.5,1.3,2.25.81,5.31-1.45,7.57-4.71,4.71-10.56,6.66-17.68,6.86Z" style="fill: #000; stroke-width: 0px;"/>
  <path d="M101,131.26c-7.49-.09-13.19-1.93-17.9-6.3-2.81-2.6-3.51-5.69-2.04-8.19,1.42-2.42,4.26-3.26,7.87-2.3,2.28.61,4.53,1.43,6.84,1.85,8.8,1.61,16.04-3.36,18.08-11.97.35-1.48,1.74-3.41,3.03-3.76,1.31-.35,3.48.59,4.56,1.68,4.16,4.16,4.38,11.31.64,16.97-5.24,7.92-12.88,11.56-21.07,12.02Z" style="fill: #000; stroke-width: 0px;"/>
  <path d="M130.92,133.72c7.56.32,12.94,3.69,17.21,8.7,8.56,10.04,12.99,21.93,14.8,34.88.3,2.15.14,4.34-2.4,5.07-2.37.68-3.66-.96-4.61-2.79-2.87-5.5-5.54-11.12-8.59-16.51-2.22-3.93-4.69-7.77-7.49-11.3-3-3.78-6.93-6.36-12.01-6.81-2.76-.24-4.94-1.52-5.36-4.58-.34-2.53,1.39-4.79,4.49-5.81,1.48-.49,3.06-.67,3.96-.85Z" style="fill: #000; stroke-width: 0px;"/>
  <path d="M592.86,177.85c2.32-13.71,6.65-26.55,16.45-36.91,3.54-3.74,7.86-6.48,13.06-6.88,2.72-.21,5.64.45,8.26,1.33,2.19.74,3.22,2.89,2.84,5.31-.36,2.32-1.93,3.83-4.15,4.03-8.43.74-13.45,6.15-17.37,12.75-3.61,6.09-6.68,12.5-10.01,18.77-.69,1.3-1.22,2.83-2.26,3.78-1.17,1.07-2.88,2.31-4.27,2.21-2.23-.16-2.59-2.33-2.56-4.39Z" style="fill: #000; stroke-width: 0px;"/>
  <path d="M330.1,144.29c.09-5.8,1.12-11.11,4.34-15.68,1.06-1.5,2.77-2.92,4.48-3.5,3.19-1.07,6.12,1.69,5.92,5.37-.11,2.05-.72,4.06-1.06,6.1-1.92,11.52,2,19.94,12.07,25.9.93.55,2.14.86,2.77,1.65.96,1.2,2.28,2.87,2.05,4.06-.23,1.19-2.07,2.71-3.4,2.95-8.37,1.48-15.35-1.2-20.65-7.88-4.45-5.61-6.35-12.14-6.5-18.96Z" style="fill: #000; stroke-width: 0px;"/>
  <path d="M425.99,143.09c-.32,9.39-2.77,16.99-9.14,22.93-5.11,4.78-11.27,6.36-18.03,5.12-1.4-.26-3.24-1.84-3.57-3.14-.27-1.08,1.35-2.66,2.18-4,.14-.22.51-.28.76-.43,13.04-7.36,16.71-15.78,13.33-30.51-.13-.57-.28-1.15-.35-1.73-.3-2.56.34-4.79,2.8-5.96,2.61-1.24,5.13-.39,6.51,1.84,1.88,3.05,3.37,6.41,4.57,9.79.77,2.17.72,4.64.92,6.09Z" style="fill: #000; stroke-width: 0px;"/>
  <path d="M369.79,123.65c-.21,8.25-4.77,15.55-13.03,20.51-1.17.7-3.34.74-4.56.12-1.83-.93-1.48-2.92-.77-4.72,1.47-3.74,3.16-7.44,4.21-11.31,1.65-6.12.24-11.7-4.17-16.39-.54-.57-1.08-1.15-1.56-1.77-1.73-2.2-2.42-4.63-.69-7.06,1.74-2.44,4.28-2.54,6.92-1.7,8.13,2.6,13.7,11.09,13.66,22.32Z" style="fill: #000; stroke-width: 0px;"/>
  <path d="M401.62,100.89c4.84-.07,7.37,3.7,5.55,7.49-.58,1.22-1.51,2.31-2.44,3.31-4.76,5.06-6.01,10.99-4.11,17.53.98,3.39,2.41,6.65,3.75,9.93.76,1.86,1.24,3.66-.47,5.15-1.72,1.5-3.47.75-5.16-.3-11.3-7-15.73-21.12-10.13-32.43,2.22-4.49,5.61-7.81,10.23-9.81,1.07-.46,2.23-.7,2.78-.87Z" style="fill: #000; stroke-width: 0px;"/>
  <path d="M486.41,134.24c.83-9.89,5.41-19.34,14.99-25.91,2.04-1.4,4.61-2.23,7.05-2.79,2.25-.51,4.3.5,5.44,2.67,1.17,2.22.48,4.24-1.08,5.97-.71.79-1.66,1.37-2.51,2.04-9.95,7.75-15.12,17.38-12.31,30.37.28,1.31-.51,3.85-1.42,4.19-1.25.47-3.56-.13-4.58-1.12-3.84-3.72-5.55-8.5-5.59-15.4Z" style="fill: #000; stroke-width: 0px;"/>
  <path d="M269.58,135.59c.02,5.25-1.68,9.84-5.2,13.75-1.33,1.48-2.83,2.67-4.88,1.7-2.1-1-2.01-2.92-1.56-4.86,2.93-12.75-2.33-22.23-12.06-29.82-3.9-3.04-5.17-5.51-3.71-8.24,1.55-2.88,5-3.43,9.48-1.5,9.7,4.18,17.92,17.47,17.93,28.97Z" style="fill: #000; stroke-width: 0px;"/>
  <path d="M446.17,138.66c.54-12.27,9.99-23.19,22.04-25.03,3.67-.56,6.22.49,7.3,3,1.08,2.5.19,5.34-2.98,7.24-9.16,5.49-14.21,13.65-16.31,23.9-.42,2.06-1.37,4.21-3.68,3.81-1.47-.25-3.3-1.85-3.87-3.28-1.22-3.06-1.72-6.41-2.51-9.64Z" style="fill: #000; stroke-width: 0px;"/>
  <path d="M309.83,138.57c-.76,3.14-1.42,6.3-2.3,9.41-.59,2.09-1.75,3.92-4.29,3.72-2.4-.19-2.96-2.14-3.59-4.11-1.25-3.93-2.45-7.91-4.16-11.64-2.28-4.99-6.47-8.33-10.97-11.32-4.05-2.69-5.24-5.36-3.91-8.19,1.24-2.65,4.19-3.51,8.59-2.52,11.7,2.64,20.15,12.91,20.64,24.65Z" style="fill: #000; stroke-width: 0px;"/>
  <path d="M332.38,74c-.14.56-.28,1.87-.79,3.01-2.23,5.05-1.63,9.96.37,14.89,1.11,2.73,2.39,5.46,2.98,8.31.33,1.58-.03,4.09-1.08,4.97-1.05.87-3.63.82-5.07.16-11.35-5.24-16.35-21.39-9.95-32.1,1.21-2.02,3.05-3.98,5.06-5.15,3.93-2.28,8.4.65,8.47,5.91Z" style="fill: #000; stroke-width: 0px;"/>
  <path d="M440.07,85.54c-.5,7.51-4.17,14.85-12.28,19.59-1.84,1.08-3.85,1.81-5.79.26-1.96-1.57-1.63-3.66-.9-5.69,1.03-2.87,2.14-5.72,3.27-8.55,1.87-4.68,2.23-9.36.12-14.06-.2-.45-.35-.92-.48-1.4-.91-3.25,0-5.99,2.48-7.53,2.27-1.4,5.17-.98,7.63,1.12,3.64,3.1,5.94,8.74,5.95,16.26Z" style="fill: #000; stroke-width: 0px;"/>
  <path d="M378.43,201.84c-8.35-.16-14.49-3.8-18.99-10.24-2.16-3.09-1.85-6.28.33-8.04,2.1-1.7,4.91-1.22,7.79.99,10.21,7.85,10.66,7.91,21-.07,2.88-2.22,5.74-2.62,7.77-.83,2.06,1.82,2.38,4.85.35,7.83-4.44,6.5-10.61,10.07-18.24,10.36Z" style="fill: #000; stroke-width: 0px;"/>
  <path d="M536.67,186.73c2.16.7,6.13,1.74,9.89,3.31,2.56,1.07,3.52,3.79,2.6,5.89-1.07,2.45-3.23,3.38-5.6,2.71-8.21-2.34-14.58,1.13-20.57,6.08-1.21,1-2.23,2.36-3.6,3.03-1.45.71-3.57,1.51-4.73.93-1.19-.59-2.39-2.97-2.13-4.27.61-2.98,1.54-6.23,3.36-8.58,4.66-6.03,11.26-8.67,20.78-9.09Z" style="fill: #000; stroke-width: 0px;"/>
  <path d="M219.75,186.73c9.07.48,15.26,3.11,20.11,8.54,2.43,2.73,4.06,5.93,3.63,9.67-.16,1.37-1.08,3.32-2.16,3.75-1.23.5-3.3.02-4.51-.78-2.77-1.84-5.13-4.3-7.86-6.21-4.71-3.29-9.85-4.74-15.66-3.22-3.34.87-5.83-.39-6.58-2.85-.7-2.29.55-4.91,3.52-6.03,3.63-1.37,7.45-2.26,9.53-2.87Z" style="fill: #000; stroke-width: 0px;"/>
</svg>