<?xml version="1.0" encoding="UTF-8"?>
<svg id="Layer_1" data-name="Layer 1" xmlns="http://www.w3.org/2000/svg" viewBox="0 0 652.42 900">
  <path d="M326.56.45c31.74.34,63.49.93,95.23.93,20.67,0,41.31.07,61.92,1.77,37.43,3.08,70.11,16.96,97.85,42.46,12.94,11.89,24.72,24.77,31.99,40.84,4.38,9.69,7.24,20.14,10.04,30.46,5.76,21.26,9.99,42.88,12.73,64.72,3.59,28.58,7.72,57.05,12.7,85.43,1.93,10.99,2.37,22.25,3.21,33.4.61,7.98-.45,15.88-2.63,23.57-4.87,17.2-9.06,34.7-17.85,50.46-3.89,6.97-8.48,13.65-13.45,19.89-11.67,14.66-21.1,30.33-24.03,49.17-4.21,27.03-13.46,52.8-19.47,79.38-3.71,16.41-7.32,32.87-10.08,49.46-2.67,16.07-7.05,31.51-13.49,46.43-11.78,27.31-27.12,52.64-42.01,78.31-14.42,24.86-26.96,50.87-39.4,76.82-9.54,19.91-17.51,40.55-26.4,60.78-4.94,11.24-10.81,22.05-18.95,31.32-3.8,4.33-8.29,8.21-12.97,11.58-7.75,5.59-15.87,10.57-25.1,13.65-14.26,4.75-28.86,7.73-43.82,8.31-22.88.9-45.76.8-68.08-5.48-8.84-2.49-17.2-6.09-25.35-10.52-18.96-10.29-30.39-26.8-38.96-45.65-9.46-20.8-18.16-41.95-27.43-62.84-4.69-10.57-9.64-21.05-14.95-31.32-8.83-17.07-17.84-34.06-27.19-50.85-6.93-12.44-15.09-24.22-21.7-36.82-11.51-21.93-23.04-43.98-28.58-68.4-3.07-13.51-4.8-27.33-7.92-40.83-5.03-21.8-10.79-43.42-16.06-65.17-3.01-12.45-6.1-24.9-8.34-37.5-3.18-17.86-10.9-33.53-22.38-47.17-12.01-14.27-20.38-30.2-25.69-47.92-1.45-4.86-3.02-9.68-4.65-14.48C-.04,318.86-.87,302.77.73,286.21c2.08-21.57,6.82-42.69,9.79-64.09,2.71-19.52,4.85-39.12,7.97-58.57,3.61-22.49,8.65-44.7,15.6-66.44,4.58-14.32,12.75-26.51,22.6-37.6,21.18-23.84,46.72-41.17,77.46-50.22,12.49-3.68,25.42-5.24,38.42-6.42,24.36-2.21,48.75-1.21,73.12-1.38,18.74-.13,37.48-.14,56.22-.4,8.22-.11,16.43-.72,24.64-1.1,0,.15,0,.3.01.45ZM241.61,14.1c-10.76,0-18.34-.33-25.87.06-21,1.09-42.01,2.19-62.98,3.85-11.02.87-21.62,4.02-31.51,9.17-6.45,3.35-12.9,6.71-19.26,10.23-8.48,4.7-16.39,10.19-23.26,17.12-2.34,2.36-5.25,4.12-7.82,6.26-2.62,2.18-5.49,4.19-7.62,6.78-9.16,11.15-17.13,23.03-21.31,37.07-7.71,25.88-14.34,51.9-16.88,78.98-2.77,29.61-7.08,59.07-10.69,88.6-1.68,13.73-2.31,27.53-.34,41.22,2.37,16.44,8.56,31.71,15.8,46.56,3.14,6.45,6.85,12.69,9.27,19.4,3.19,8.85,7.72,16.75,13.24,24.29,8.07,11.01,13.7,23.16,15.85,36.82.77,4.9,2.26,9.68,3.52,14.49,2.68,10.17,5.56,20.3,8.08,30.51,1.31,5.28,1.89,10.74,3.04,16.06,3.64,16.82,7.47,33.61,11.07,50.44,3.42,16,6.48,32.13,12.91,47.26,5.65,13.29,11.46,26.57,18.26,39.28,7.11,13.3,15.44,25.96,23.32,38.84,11.76,19.23,22.43,38.93,28.98,60.68,2.25,7.48,5.35,14.74,8.4,21.95,4.18,9.86,8.83,19.52,13.01,29.38,9.36,22.08,20.09,43.45,33.92,63.07,9.04,12.83,20.08,23.63,35.53,28.75,3.99,1.32,8,2.61,12,3.92,14.57,4.81,29.62,7.1,44.88,7.25,19.92.2,39.08-4.21,57.81-10.81,9.49-3.35,17.54-8.68,24.78-15.61,8.46-8.11,14.84-17.71,20.81-27.66,12.19-20.32,21.9-41.84,30.92-63.71,4.74-11.49,10.53-22.61,14.32-34.4,6.76-21.04,16.08-40.78,27.83-59.34,13.32-21.03,26.21-42.18,36.2-65.12,6.36-14.61,12.68-29.08,16-44.73,3.62-17.02,7.3-34.03,11.01-51.04,3.38-15.51,6.66-31.04,10.31-46.48,3.21-13.59,6.82-27.08,10.34-40.59.84-3.23,1.88-6.43,3.1-9.54,4.04-10.25,10.53-19.05,16.81-27.97,1.48-2.09,2.76-4.36,3.84-6.69,4.41-9.54,8.43-19.27,13.08-28.69,12.14-24.57,19.36-50.12,16.3-77.82-2.33-21.11-4.79-42.2-7.29-63.28-2.02-17-4.28-33.98-6.25-50.99-2.19-18.92-7.96-36.98-12.63-55.33-4.61-18.12-13.81-33.48-25.66-47.53-.97-1.15-2.28-2.02-3.48-2.95-3.55-2.74-7.4-5.16-10.62-8.24-6.12-5.88-12.82-10.91-20.19-15.05-6.67-3.75-13.44-7.32-20.2-10.89-7.31-3.87-15.02-6.64-23.15-8.31-17.14-3.51-34.55-4.35-51.93-4.94-29.63-.99-59.28-1.53-88.92-1.9-15-.19-30.01.56-45.02.58-9.27.01-18.54-.91-27.8-.77-19.03.3-38.05,1.03-53.87,1.5Z" style="fill: #000; stroke-width: 0px;"/>
  <path d="M301.45,111.38c-3.71.49-6.53.93-9.36,1.21-15.66,1.54-31.09-.66-46.6-2.42-18.88-2.14-37.21-7.01-55.84-10.31-18.86-3.34-37.86-3.92-56.65,1.13-14.92,4.01-27.89,11.44-38.96,22.19-9.5,9.22-17.99,19.27-25.48,30.22-3.54,5.17-7.81,9.85-11.88,14.65-2.64,3.12-6.28,3.17-9.76,2.05-1.16-.37-2.37-2.2-2.57-3.52-.26-1.7.34-3.59.78-5.34,1.18-4.63,2.23-9.32,3.78-13.84,5.8-16.9,9.28-34.57,16.94-50.86,7.83-16.65,18.21-31.2,33.69-41.64.79-.53,1.59-1.08,2.31-1.7,21.67-18.93,47.88-24.78,75.58-25.69,18.73-.61,37.5-.17,56.24-.44,24.87-.36,49.73-.85,74.59-1.5,6.57-.17,13.11-1.16,19.67-1.72,1.13-.1,2.29.03,3.43.11,10,.72,19.99,1.93,30,2.09,37.78.63,75.56.79,113.34,1.4,20.43.33,40.52,3.8,58.38,13.85,28.99,16.32,50.44,39.51,59.88,72.36,4.38,15.26,9.01,30.45,13.46,45.69.64,2.19,1.08,4.47,1.32,6.74.27,2.47-.98,3.85-3.52,4.33-3.56.68-6.72.17-9.14-2.65-3.6-4.19-7.42-8.26-10.51-12.81-6.75-9.93-14.27-19.15-22.52-27.86-19.77-20.87-44.2-29.99-72.64-29.68-15.62.17-30.82,2.72-45.93,6.37-19.95,4.81-40.31,7.05-60.7,8.93-9.93.92-19.88.68-29.74-1.11-.45-.08-.94-.01-1.44-.01-.15.27-.43.55-.39.75,1.76,7.97,2,16.29,6.47,23.61,5.32,8.73,9.86,17.94,15.25,26.62,6.12,9.86,6.34,20.41,4.97,31.33-1.26,10.04-4.11,19.57-8.2,28.86-4.15,9.44-7.69,19.17-11.07,28.92-1.16,3.35-1.25,7.14-1.42,10.75-1.39,29.62-2.69,59.25-4,88.88-.61,13.79,2.19,26.7,10.49,37.97,12.41,16.85,9.99,33.86.9,50.98-2.28,4.3-5.28,8.23-7.45,12.58-1.4,2.81-2.7,6.09-2.65,9.14.28,15.28-1.04,30.37-3.85,45.38-.38,2.05.24,4.63,1.22,6.54,6.27,12.15,12.9,24.11,19.18,36.25,11.61,22.46,19.13,46.11,19.54,71.6.18,11.14-.85,22.22-5.9,32.46-6.72,13.62-21.95,19.09-35.99,13.39-4.02-1.63-8.49-2.1-12.68-3.36-2.88-.86-5.6-2.23-8.44-3.24-.87-.31-2.27-.62-2.77-.18-3.17,2.76-7.11,3.06-10.93,3.89-3.71.81-7.47,1.67-10.98,3.08-13.33,5.36-28.45.01-35.07-12.79-5.68-10.97-6.69-22.9-6.28-34.93.91-26.76,9.09-51.4,22.1-74.65,5.97-10.68,11.47-21.63,17.02-32.53.76-1.5,1.1-3.57.79-5.22-2.81-14.91-4.38-29.9-3.72-45.09.17-3.89-1.05-7.28-3.12-10.53-2.72-4.27-5.48-8.56-7.73-13.08-2.08-4.17-3.79-8.58-5.15-13.04-3.7-12.05-2.19-23.46,5.02-33.95,5.47-7.96,10.14-16.37,11.26-26.1.75-6.52.94-13.18.67-19.74-1.14-28.68-2.49-57.35-3.91-86.01-.18-3.58-.8-7.29-2.02-10.65-3.61-9.87-7.37-19.71-11.54-29.35-5.42-12.53-7.79-25.57-7.77-39.11.01-7.01,2.65-13.19,6.14-19.16,5.69-9.74,11.12-19.63,16.66-29.45.19-.33.41-.67.49-1.03,1.54-6.47,3.06-12.94,4.73-20.03ZM355.54,622.14c-.11-.02-.22-.05-.33-.07-.2-3.14-.21-6.32-.66-9.42-.44-3-1.09-6.03-2.1-8.88-1.01-2.85-2.78-3.15-4.6-.76-1.66,2.17-3.12,4.62-4.07,7.17-4.6,12.32-6.6,25.08-5.87,38.25.1,1.81.79,2.47,2.58,2.61,2.75.22,5.51.55,8.19,1.19,1.85.44,2.35-.08,2.59-1.8.5-3.49,1.27-6.95,1.79-10.44.89-5.94,1.67-11.89,2.49-17.84ZM314.08,641.26c.29-10.59-2.21-20.69-5.62-30.59-.83-2.41-2.12-4.72-3.55-6.84-.7-1.04-2.22-2.13-3.34-2.11-.81.02-2.06,1.75-2.28,2.89-.92,4.57-1.75,9.19-2.18,13.83-1.03,11.04,2.25,21.62,3.84,32.38.08.57,1.39,1.41,2.07,1.35,2.94-.25,5.84-.88,8.78-1.17,1.72-.17,2.33-.95,2.3-2.57-.05-2.39-.01-4.78-.01-7.17Z" style="fill: #000; stroke-width: 0px;"/>
  <path d="M169.87,547.99c-2.6,29.6,3.68,57.72,14.74,84.89,4.97,12.2,10.68,24.15,16.71,35.86,6.98,13.54,16.89,25.03,27.46,35.88,8.28,8.5,15.41,17.6,20.28,28.6,6.23,14.08,12.92,27.97,19.92,41.68,11.54,22.6,28.94,38.96,52.87,48.04,2.84,1.08,5.49,1.13,8.34.03,19.03-7.32,34.46-19.18,45.85-36.17,8.03-11.98,13.64-25.21,19.83-38.14,3.51-7.33,6.9-14.73,10.38-22.07,3.66-7.73,9.22-14.11,15.22-20.01,17.99-17.73,31.26-38.48,41.13-61.64,6.62-15.54,12.13-31.38,16.11-47.79,3.64-15.03,3.98-30.27,3.72-45.62-.21-12.8-.8-25.72.62-38.38,1.17-10.42,4.65-20.67,7.88-30.75,1.79-5.58,6.05-10.01,10.87-13.44,19.17-13.62,36.35-29.53,53.12-45.93,1.71-1.67,3.4-3.39,5.32-4.79,4.81-3.51,9.21-1.67,9.78,4.23.27,2.78-.09,5.72-.67,8.48-4.11,19.56-8.58,39.05-12.48,58.65-3.97,19.98-7.43,40.05-11.11,60.09-.35,1.88-.83,3.75-1.04,5.64-2.13,19.76-9.05,37.96-18.74,55.06-14.8,26.13-29.85,52.12-45.21,77.93-8.3,13.96-14.76,28.73-21.18,43.57-10.37,23.97-20.44,48.08-31.61,71.68-6.19,13.08-13.86,25.56-21.78,37.7-8.74,13.4-21.49,22.93-36.03,28.88-12.01,4.91-24.82,8.48-38.11,8.79-12.95.31-25.49-1.61-38.15-4.82-17.2-4.35-30.77-13.73-42.67-26.08-8.15-8.46-13.58-18.92-19.4-29.04-9.1-15.82-15.41-32.9-22.65-49.56-8.27-19.04-16.38-38.16-25.14-56.97-10.55-22.68-24.52-43.46-37.17-64.98-11.24-19.13-22.58-38.23-31-58.85-3.7-9.07-6.04-18.5-7.79-28.15-3.16-17.51-7.42-34.84-10-52.42-3.9-26.55-9.41-52.72-15.79-78.75-.69-2.83-.42-6.11.23-9,.81-3.61,4.19-4.94,7.43-3.13,2.21,1.24,4.13,3.06,6.04,4.77,14.74,13.21,29.43,26.47,44.18,39.67,1.78,1.59,3.68,3.09,5.72,4.31,9.25,5.54,14.85,13.65,18.09,23.86,5.59,17.6,6.86,35.61,6.04,53.89-.06,1.43-.13,2.87-.19,4.3Z" style="fill: #000; stroke-width: 0px;"/>
  <path d="M568.86,253.39c1.13,23.3-4.24,44.99-15.74,65.25-9.81,17.28-20.23,34.15-35.13,47.58-15.89,14.32-33.2,26.79-52.04,36.99-4.66,2.52-9.82,4.34-14.95,5.74-16.13,4.4-30,.2-40.97-12.35-16.73-19.16-23.34-41.72-20.49-66.82,1.57-13.86,4.53-27.56,6.49-41.39,3.68-26.04,7.39-52.09,10.47-78.21,1.71-14.52,2.4-29.18,3.08-43.79.31-6.77,2.93-11.46,8.9-14.48,5.01-2.53,9.71-5.83,15.61-6.08.45-.02.92-.27,1.33-.49,13.91-7.64,28.96-9.49,44.49-8.46,18.33,1.22,35.63,5.93,51.23,15.94,15.42,9.9,25.52,23.73,30.09,41.49,4.98,19.37,6.73,39.18,7.63,59.07ZM536.86,274.92c.45-.74.69-.97.73-1.22.13-.85.22-1.7.28-2.56,1.12-15.69.81-31.35-1.13-46.97-.25-1.99-.26-4.07,2.07-4.76,2.48-.74,3.6,1.11,4.47,3.04,8.57,19.12,10.74,38.73,4.49,58.98-.27.86-.53,2.19-.09,2.71,1.87,2.22,4,4.21,6.16,6.41.53-.74.86-1.01.94-1.34.65-2.69,1.46-5.37,1.85-8.1,4.07-28.76,1.33-57.06-6.31-84.92-2.9-10.55-9.04-19.27-17.15-26.69-20.62-18.88-64.87-28.37-96.29-9.48-4.41,2.65-9.16,4.71-13.64,7.24-.75.42-1.27,1.82-1.32,2.79-.17,3.43.08,6.89-.14,10.32-.84,13.36-1.83,26.7-2.64,40.06-.06.98.53,2.6,1.26,2.94,5.55,2.53,11.24,4.58,17.42,5.12,3.44.3,3.59.41,3.24-3.17-.76-7.9-1.54-15.8-2.33-23.7-.2-1.94,0-3.74,1.98-4.63,2.04-.92,3.45.27,4.67,1.77,3.2,3.94,5.76,8.35,6.05,13.4.3,5.29-.06,10.67-.7,15.93-.32,2.64.32,3.5,2.67,4.22,4.57,1.4,9.03,3.15,13.54,4.73.85.3,1.72.51,2.87.85,0-1.28.09-2.12-.01-2.94-.79-5.97-1.59-11.94-2.44-17.91-.33-2.37-1.09-4.72-1.04-7.07.02-1.36.95-3.28,2.04-3.85.9-.47,2.76.47,3.97,1.17.84.48,1.34,1.59,1.93,2.46,6.31,9.48,10.22,19.48,6.73,31.1-.18.59.06,1.79.46,1.99,3.98,1.96,8.04,3.77,12.61,5.86.12-1.81.29-2.91.24-4-.51-11.46-1.04-22.91-1.62-34.37-.1-2-.17-3.97,1.94-4.95,2.24-1.04,3.95.18,5.2,1.87,1.76,2.37,3.71,4.72,4.85,7.4,5.11,12,5.14,24.13.3,36.28-.33.82-.48,2.46-.08,2.71,3.36,2.09,6.87,3.95,10.78,6.14.26-1.65.54-2.74.6-3.83.63-11.93,1.23-23.86,1.81-35.8.1-2.15.04-4.46,2.65-5.12,2.73-.7,3.89,1.39,4.98,3.37,2.99,5.45,4.72,11.27,5.15,17.48.68,9.75-.57,19.27-3.4,28.62-.31,1.04-.37,2.82.24,3.35,2.85,2.49,5.97,4.66,9.18,7.08ZM519,288.74c.05-.86.12-1.72.14-2.58.11-4.12-.74-7.71-4.62-10.1-2.76-1.7-5.14-4.01-7.91-5.67-17.18-10.29-34.99-19.27-54.24-25.09-.99-.3-2.4-.3-3.25.18-6.25,3.53-11.44,8.12-15,14.56-6.74,12.22-11.46,25.24-15.33,38.56-1.93,6.67-2.89,13.62-4.26,20.44-.45,2.23.36,3.77,2.36,5,3.08,1.91,6.07,4,8.96,6.19,16.86,12.77,34.2,24.78,52.86,34.84,2.4,1.29,4.07,1.28,6.21-.27,6.22-4.52,11.35-10.06,14.94-16.79,3.36-6.31,6.4-12.84,9-19.5,5.01-12.82,10.08-25.68,10.14-39.79ZM404.16,330.21c-.16.29-.38.52-.42.78-.24,1.8-.52,3.6-.64,5.41-1.36,20.6,4.6,38.73,18.65,53.96,7.06,7.65,16.02,10.14,26.15,8.1,3.45-.69,7.07-1.44,10.1-3.09,7.96-4.33,15.64-9.15,23.42-13.82.41-.25.63-.82,1.05-1.41-2.08-1.22-4-2.27-5.84-3.45-1.57-1.01-2.54-.75-3.86.69-4.48,4.84-10,7.98-16.58,8.94-2.3.34-5.15,1.05-6.2-1.95-1.08-3.11,1.77-3.92,3.76-5.18,3.84-2.42,7.61-4.94,11.98-7.8-1.64-.94-2.56-1.37-3.39-1.94-3.26-2.26-5.94-1.98-9.52.23-4.03,2.48-8.97,3.6-13.63,4.87-1.11.3-3.42-.82-3.85-1.84-.41-.99.67-2.87,1.52-4.03.69-.93,2.03-1.38,3.08-2.05,2.38-1.53,4.77-3.06,7.76-4.98-3.01-1.94-5.4-3.62-7.94-5-.55-.3-1.74.33-2.53.74-3.48,1.78-6.89,3.7-10.39,5.44-1.66.82-3.77.94-4.5-.93-.5-1.27-.13-3.44.71-4.57,1.62-2.2,3.75-4.08,5.87-5.85,1.57-1.31,1.49-2.19-.04-3.32-1.46-1.08-2.74-2.44-4.31-3.31-.73-.41-2.2-.32-2.89.16-2.34,1.65-4.47,3.59-6.7,5.39-1.55,1.25-3.26,2.4-5.13.79-1.99-1.72-1.06-3.68.12-5.4,1.39-2.05,3.04-3.93,4.35-6.03.37-.58.15-2.32-.14-2.41-4.06-1.25-6.91-4.01-9.49-7.17-.03-.04-.18.01-.55.05ZM529.59,289.51c-.36.41-.57.54-.59.69-.06.66-.12,1.33-.08,1.98.47,7.56-.63,14.89-3.25,21.99-3.18,8.61-6.36,17.23-9.57,25.84-4.64,12.46-11.9,23.07-22.27,31.48-.29.24-.5.58-.74.87,3.87-2.27,7.37-4.91,10.76-7.68,18.63-15.19,32.63-34.01,43.42-55.36,1.08-2.14.95-3.49-1.01-5.13-4.92-4.1-9.59-8.5-14.37-12.76-.74-.66-1.54-1.28-2.3-1.91ZM435.33,238.99c-1.35-.62-2.15-1.15-3.03-1.36-3.88-.89-7.78-1.67-11.67-2.51-3.58-.77-3.75-.81-4.29,2.87-2.06,14.25-4,28.52-5.96,42.79-.09.65.08,1.34.12,2.01,5.94-15.81,10.49-32.18,24.82-43.81Z" style="fill: #000; stroke-width: 0px;"/>
  <path d="M83.28,248.82c.38-11.66,2.39-28.82,5.45-45.9,5.52-30.73,23.84-50.15,52.85-59.97,19.57-6.63,39.56-8.58,59.89-3.63,1.95.47,3.97.92,5.73,1.82,9,4.57,19.32,5.87,27.87,11.63,4.53,3.05,6.92,6.71,7.28,12.17,1.1,16.89,2.02,33.81,3.83,50.63,1.54,14.34,4.3,28.55,6.38,42.84,3.2,21.95,6.13,43.94,9.44,65.87,3.64,24.09-.93,46.24-15.02,66.23-2.19,3.11-4.77,6-7.48,8.67-9.94,9.81-21.95,13.61-35.51,10.34-7.07-1.71-14.21-4.22-20.54-7.76-18.14-10.17-35.41-21.9-50.26-36.47-21.56-21.15-37.19-46.3-46.16-75.28-3.56-11.51-4.14-23.51-3.77-41.2ZM210.7,228.84c1.43-.15,2.18-.19,2.92-.31,5.52-.95,11-1.72,16.2-4.34,2.71-1.37,3.31-2.33,3.12-5.16-1.07-15.45-2.01-30.91-2.68-46.38-.14-3.28-.18-5.81-4.08-6.44-.89-.14-1.67-.91-2.51-1.35-6.18-3.24-12.14-7.02-18.58-9.61-21.24-8.54-42.62-6.9-63.61.9-22.29,8.29-36.63,23.96-41.96,47.49-3.12,13.76-4.73,27.71-5.61,41.76-.87,14.09-.62,28.12,2.81,41.92.26,1.05.71,2.05,1.07,3.08.4.24.79.48,1.19.71,1.48-1.85,3.14-3.59,4.37-5.6.69-1.13,1.24-2.87.89-4.05-6.07-20.28-4.02-39.9,4.48-59.04.23-.52.4-1.25.82-1.48,1.16-.63,2.56-1.6,3.64-1.37.88.19,1.75,1.83,2.05,2.97.3,1.13-.06,2.46-.2,3.69-1.72,15.06-1.86,30.16-.8,45.27.07,1.06.39,2.09.69,3.69,3.14-2.36,5.73-4.43,8.45-6.31,1.72-1.19,1.84-2.46,1.39-4.41-1.31-5.67-2.71-11.37-3.36-17.14-1.14-10.05-.11-19.88,4.93-28.95,1.1-1.98,2.23-4.08,4.97-3.33,2.55.7,2.62,2.99,2.66,5.15.01.67,0,1.34.03,2.01.61,11.26,1.21,22.53,1.85,33.79.06,1.09.36,2.17.64,3.8,3.88-2.19,7.37-4.09,10.76-6.17.37-.23.39-1.61.09-2.23-2.94-6.22-3.78-12.83-3.62-19.58.2-8.38,1.95-16.35,7.27-23.13,1.56-1.99,3.14-4.61,6.27-3.31,3.05,1.27,2.02,4.14,1.92,6.55-.47,11.18-.95,22.35-1.4,33.53-.04.89.2,1.79.37,3.17,3.99-1.79,7.5-3.45,11.09-4.93,1.92-.79,2.16-1.79,1.66-3.77-3.24-12.67,1.52-23.26,9.12-32.94.65-.82,2.72-1.18,3.8-.8.91.32,1.52,1.96,1.91,3.13.25.74-.12,1.69-.24,2.54-1.05,7.58-2.12,15.16-3.16,22.74-.13.97-.1,1.97-.17,3.48,5.01-1.79,9.47-3.44,13.96-4.98,5.56-1.91,5.54-1.87,4.58-7.77-1.54-9.42-.57-18.32,5.57-26.12,1.22-1.55,2.52-3.11,4.76-2.32,2.39.85,2.39,2.94,2.18,5.04-.48,4.76-.97,9.52-1.42,14.28-.38,4.06-.71,8.14-1.09,12.64ZM132.88,289.55c.54,4.03.75,8.38,1.75,12.53,3.8,15.77,9.41,30.91,17.1,45.2,3.94,7.33,9.31,13.56,16.43,18.04,1.04.65,3.07.8,4.1.21,14.33-8.05,28.67-16.09,41.68-26.26,6.32-4.94,12.84-9.68,19.59-14,3.46-2.22,4.41-4.58,3.84-8.48-2.65-17.88-8.92-34.56-16.34-50.88-3.74-8.23-8.62-15.62-17.11-19.73-1.37-.66-3.3-1.04-4.71-.64-16.46,4.72-31.69,12.31-46.55,20.64-5.31,2.98-10.14,6.8-15.28,10.1-3.57,2.3-4.66,5.6-4.5,9.58.05,1.14,0,2.29,0,3.69ZM169.02,380.42c3.19,2.21,5.8,4.08,8.47,5.85,7.84,5.19,15.91,9.9,25.25,11.97,11.62,2.57,21.47-.44,29.17-9.52,13.89-16.37,19.26-35.33,16.65-56.59-.09-.7-.39-1.37-.54-1.88-3.83,2.86-7.49,5.58-11.08,8.27,1.85,2.67,3.75,5.29,5.5,8.01,1.01,1.56,1.39,3.59-.4,4.56-1.11.6-3.05.24-4.37-.3-1.36-.55-2.43-1.82-3.62-2.78-5.59-4.52-5.54-4.47-10.98.22-1.57,1.36-1.3,2.09.14,3.31,2.04,1.72,3.89,3.67,5.73,5.61,1.34,1.41,2.3,3.37.64,4.8-1.02.88-3.31,1.25-4.56.73-3.51-1.44-6.77-3.5-10.16-5.25-.79-.41-1.98-1.04-2.54-.74-2.55,1.37-4.95,3.03-7.98,4.96,3.79,2.43,6.98,4.48,10.17,6.51,1.72,1.1,3.17,2.43,2.22,4.67-.88,2.06-2.73,2.07-4.65,1.73-5.45-.94-10.5-2.81-15.04-6.04-.81-.57-2.07-1.34-2.77-1.08-2.51.93-4.88,2.26-7.72,3.64,1.29,1.06,1.96,1.73,2.74,2.23,3.61,2.33,7.34,4.5,10.82,7.01,1.04.75,2.21,2.72,1.88,3.61-.41,1.14-2.18,2.05-3.55,2.49-1.08.35-2.46-.03-3.67-.28-6.19-1.26-11.36-4.35-15.73-8.88-.6-.62-1.94-1.29-2.53-1.02-2.39,1.09-4.61,2.53-7.48,4.18ZM158.54,372.62c.12-.15.23-.3.35-.45-.66-.61-1.3-1.23-1.98-1.82-8.02-6.89-14.57-14.95-18.53-24.81-4.21-10.46-8.11-21.05-12.07-31.61-2.62-6.99-3.64-14.24-3.19-21.69.05-.79-.08-1.59-.16-3.04-1.31,1.06-2.12,1.66-2.87,2.33-4.78,4.26-9.45,8.65-14.36,12.76-1.84,1.54-2.1,2.76-1.06,4.84,12.03,24.09,28.36,44.62,50.06,60.73,1.26.94,2.55,1.84,3.82,2.76ZM241.39,283.55c.33-.67.49-.84.47-.99-1.61-15.29-2.65-30.66-6.25-45.69-.5-2.07-1.26-2.72-3.36-2-1.32.45-2.81.46-4.23.55-3.96.25-7.42,1.86-11.37,3.52,14.5,11.71,19.05,28.21,24.73,44.61Z" style="fill: #000; stroke-width: 0px;"/>
  <path d="M521.51,419.99c0,7.57-.33,13.05.09,18.47.42,5.44-1.88,9.18-6,12.16-3.64,2.63-7.25,5.33-11.09,7.65-6.17,3.72-11.26,8.48-15.47,14.3-11.78,16.28-18.35,34.18-18.27,54.52.09,20.75-.3,41.52-.76,62.27-.42,18.79-5.74,36.36-14.02,53.12-6.48,13.12-12.73,26.36-21.03,38.49-4.53,6.62-9.21,12.99-17.17,15.85-.18.06-.36.16-.5.28-1.49,1.27-3.06,2.67-5.08,1.27-2.2-1.52-1.52-3.77-.84-5.76,3.66-10.67,6.64-21.65,11.27-31.88,9.04-19.96,11.85-40.56,9.31-62.16-2.65-22.61-5.38-45.22-7.35-67.89-1.1-12.64-1.41-25.44-.83-38.11.81-17.87,9.61-32.39,21.84-44.92,3.66-3.76,7.68-7.19,11.71-10.56,6.65-5.55,13.52-10.75,19.87-16.75,8.92-8.43,19.11-15.53,28.71-23.25,1.93-1.55,3.5-3.65,5.59-4.87,1.54-.9,3.96-1.49,5.46-.89,1.35.54,2.66,2.82,2.81,4.45.82,8.76,1.28,17.55,1.72,24.22Z" style="fill: #000; stroke-width: 0px;"/>
  <path d="M228.75,508.88c-.05,17.66-2.78,35.07-4.71,52.56-1.78,16.16-3.07,32.37-4.57,48.56-1.4,15.11,1.57,29.43,7.15,43.46,4.84,12.16,9.03,24.58,13.45,36.91.55,1.52.93,3.14,1.09,4.75.3,2.9-2.15,4.67-4.62,3.38-6.47-3.39-12.7-7.15-16.67-13.56-5.28-8.53-10.91-16.9-15.47-25.82-6.73-13.18-13.7-26.27-17.76-40.69-3.63-12.86-4.76-25.91-4.91-39.16-.22-19.51-.34-39.03-.81-58.54-.49-20.33-9.11-37.56-21.81-52.82-3.4-4.08-8.34-6.89-12.63-10.21-4.22-3.27-8.48-6.48-12.79-9.64-2.52-1.85-3.25-4.42-3.17-7.3.37-12.81.78-25.61,1.2-38.42.07-2.1-.08-4.29.47-6.27.49-1.78,1.46-4.09,2.87-4.75,1.41-.66,4.12-.16,5.43.88,12.04,9.56,24.52,18.68,35.6,29.28,8.12,7.78,17.43,13.92,25.64,21.5,17.55,16.19,28.04,35.39,27.03,59.88-.08,2.01-.01,4.02-.01,6.03Z" style="fill: #000; stroke-width: 0px;"/>
  <path d="M26.43,286.64c.33-11.28,1.84-22.32,4.37-33.27,3.06-13.23,5.49-26.61,8.88-39.74,2.07-8.01,5.38-15.71,8.25-23.5.58-1.58,1.56-3.08,2.6-4.43,1.65-2.13,3.77-2.67,6.37-1.6,6.11,2.52,7.07,3.47,6.63,10.03-.86,12.78-2.55,25.52-3.01,38.3-.47,13.07-.12,26.18.37,39.25.16,4.31,1.67,8.62,2.92,12.82,4.59,15.36,10.88,29.99,19.15,43.77,3.78,6.31,7.09,12.9,10.52,19.42,4.13,7.86,9.42,14.81,15.79,21,3.43,3.33,6.88,6.7,9.8,10.45,2.31,2.97,3.94,6.5,5.68,9.87,1.03,1.99.81,3.96-.64,5.91-.73.98-.9,2.47-1.04,3.76-.78,7.12-1.38,14.27-2.23,21.38-.25,2.06-.9,4.13-1.75,6.03-1.51,3.39-4.99,4-7.77,1.56-.43-.38-.8-1.01-1.28-1.11-5.96-1.24-9.61-5.77-13.48-9.78-12.33-12.79-24.5-25.74-36.67-38.68-1.5-1.59-2.84-3.38-4.03-5.22-13.1-20.37-24.92-41.32-27.91-65.95-.82-6.72-1.03-13.52-1.53-20.28Z" style="fill: #000; stroke-width: 0px;"/>
  <path d="M592.71,249.45c-1.02-11.95-2.25-25.65-3.34-39.36-.47-5.91-.78-11.83-.94-17.76-.13-4.83,2.25-7.29,7.83-8.64,2.79-.68,5.32.73,7.09,4.95,2.96,7.04,6.26,14.07,8.04,21.44,4.58,18.95,9.14,37.96,12.35,57.18,4.04,24.24,1.86,48.35-8.31,70.86-8.01,17.72-16.97,35.16-31.36,49-4.67,4.5-8.63,9.73-13.18,14.37-7.17,7.29-14.5,14.41-21.91,21.45-1.39,1.33-3.44,1.97-5.17,2.93-1.06.59-2.22,1.07-3.15,1.82-2.91,2.36-6.3,1.78-7.75-1.68-.91-2.18-1.58-4.55-1.86-6.89-.81-6.74-1.31-13.51-2.08-20.25-.17-1.54-1.05-2.98-1.4-4.52-.34-1.5-1.04-3.35-.49-4.55,1.73-3.79,3.63-7.61,6.12-10.92,2.74-3.64,6.1-6.86,9.4-10.04,6.46-6.23,11.77-13.29,16.01-21.2,5.56-10.37,11.35-20.6,16.89-30.98,6.7-12.56,11.6-25.9,14.66-39.72,1.84-8.32,1.66-17.08,2.55-27.5Z" style="fill: #000; stroke-width: 0px;"/>
  <path d="M255.68,717.54c-.71-12.26,4.56-21.81,13.57-29.4,4.59-3.86,9.67-7.16,14.69-10.47,3.74-2.47,7.92-3.14,12.37-2.01,1.34.34,2.88.35,4.24.06,8.05-1.69,16.07-2.12,24.12.07.88.24,1.94.21,2.82-.03,7.95-2.16,15.87-1.68,23.85-.11,1.63.32,3.43.18,5.08-.13,3.41-.65,6.75-.59,9.77,1.12,8.35,4.71,16.25,10.01,22.53,17.47,7.36,8.75,8.76,19.03,7.34,29.73-2.18,16.37-7.96,31.29-18.24,44.56-6.66,8.59-12.48,17.88-18.06,27.23-6.98,11.69-17.3,14.72-29.91,13.22-2.52-.3-5.14-.29-7.66,0-12.49,1.46-22.67-1.56-29.77-13.01-6.94-11.19-14.86-21.78-22.08-32.8-9.04-13.81-13.93-29.04-14.65-45.5ZM326.16,697.92c-13.88-.47-26.86,3.56-39.67,8.1-2.84,1.01-5.43,3.57-7.42,6-4.22,5.17-4.54,11.42-3.48,17.74,1.51,9.05,4.76,17.49,9.31,25.45,4.51,7.88,9.13,15.7,13.37,23.72,2.2,4.15,5.29,6.42,9.87,6.72,7.94.53,15.78,2.52,23.85,1.15,4.7-.8,9.55-.74,14.2-1.71,2.2-.46,4.88-1.98,5.97-3.84,6.46-10.94,12.76-21.99,18.6-33.27,3.48-6.71,5.51-14.05,6.09-21.69.72-9.39-4.26-19.32-15.13-21.7-2.7-.59-5.37-1.4-7.97-2.36-8.93-3.29-18.28-3.86-27.61-4.3Z" style="fill: #000; stroke-width: 0px;"/>
  <path d="M243.79,575.74c1.66-15.68,3.59-31.34,4.89-47.05.9-10.95,1.26-21.97,1.28-32.96.02-10.14-3.55-19.46-9.5-27.51-7.61-10.3-15.91-20.08-25.75-28.43-3.16-2.68-3.27-6.61.1-9.04,1.93-1.39,4.47-1.96,6.8-2.73,2.34-.77,4.76-1.29,7.13-1.98,5.84-1.68,10.62-5.09,15.03-9.16,1.17-1.08,2.64-1.93,4.09-2.61,5.97-2.8,10.24-1.72,13.88,3.72,1.85,2.77,3.44,5.75,4.79,8.8,5.11,11.54,9.9,23.23,15.16,34.71,4.69,10.24,5.29,20.29,1.95,31.2-3.11,10.14-7.04,19.75-12.03,29.06-7.08,13.2-12.18,27.25-15.82,41.76-1.43,5.7-1.64,11.71-2.39,17.58-.13,1.04-.05,2.12-.29,3.13-.54,2.3-1.97,3.78-4.44,3.67-2.48-.11-3.87-1.74-4.06-4.07-.22-2.66-.05-5.35-.05-8.03-.26-.02-.51-.05-.77-.07Z" style="fill: #000; stroke-width: 0px;"/>
  <path d="M397.85,412.21c4.44.71,8,2.25,10.77,4.98,4.62,4.57,10.18,7.37,16.15,9.52,1.78.64,3.76.71,5.56,1.3,2.41.79,5.06,1.41,7.03,2.87,3.2,2.36,3.01,6.27-.02,8.86-9.66,8.25-17.87,17.85-25.41,27.97-6.41,8.6-9.93,18.5-9.92,29.41.02,15.61,1.17,31.11,3.11,46.62,1.6,12.78,1.68,25.74,2.4,38.63.04.75-.06,1.54-.27,2.27-.59,2.05-1.95,3.31-4.15,3.29-2.19-.02-3.51-1.31-4.12-3.35-.14-.45-.23-.94-.22-1.41.2-15.08-4.55-29.05-10.06-42.74-3.53-8.76-7.61-17.34-12.04-25.68-5.05-9.52-7.65-19.79-10.19-30.07-1.6-6.49-.35-12.97,2.27-19.08,5.99-13.98,12.01-27.94,18.18-41.84,1.23-2.76,2.9-5.46,4.93-7.68,1.55-1.7,3.97-2.6,6-3.85Z" style="fill: #000; stroke-width: 0px;"/>
  <path d="M183.54,108.36c5.79.97,12.2,1.61,18.36,3.18,8.98,2.3,17.79,5.24,26.65,7.99,3.77,1.17,7,6.22,6.48,9.78-.41,2.8-1.91,4.14-4.69,3.8-2.17-.26-4.44-.52-6.43-1.36-6.01-2.53-12.27-3.47-18.71-3.91-7.25-.49-14.48-1.2-21.7-2-6.25-.7-12.39-.47-18.51,1-11.07,2.66-22.26,3.44-33.61,1.99-2.52-.32-5.14.05-7.71.22-2.29.15-4.31-.23-5.19-2.59-.91-2.45.17-4.42,2.33-5.53,2.71-1.39,5.53-2.64,8.42-3.6,17.42-5.78,35.66-6.53,54.3-8.99Z" style="fill: #000; stroke-width: 0px;"/>
  <path d="M529.01,128.57c-4.94.29-9.88.6-14.82.88-9.14.51-18.16-.39-27.04-2.57-6.51-1.6-13.03-1.66-19.65-.92-7.79.87-15.64,1.2-23.41,2.2-4.89.63-9.68,2.01-14.51,3.11-2.42.55-4.78,1.39-7.22,1.76-4.29.65-6.89-2.87-5.05-6.89,1.53-3.34,3.53-6.13,7.58-7.17,6.38-1.64,12.66-3.73,18.93-5.78,12.78-4.17,25.77-5.4,39.08-3.24,12.26,1.99,24.78,2.51,36.69,6.41,4.07,1.33,8.05,3,11.92,4.83,1.95.92,3.05,3.05,1.96,5.08-.77,1.44-2.55,2.34-3.88,3.48-.2-.4-.39-.79-.59-1.19Z" style="fill: #000; stroke-width: 0px;"/>
  <path d="M232.85,629.22c1.36-6.63,2.7-13.93,4.44-21.14.51-2.13,1.98-4.12,3.34-5.94,1.59-2.13,3.89-2.2,6.22-1.25,2.9,1.19,4.56,3.99,4.13,7.12-1.43,10.28-.74,20.47,2.17,30.36,2.85,9.68,5.5,19.48,11.24,28.08,3.03,4.54.38,10.98-4.84,12.75-2.45.83-4.7.17-6.27-1.67-2.66-3.1-5.64-6.16-7.38-9.76-3.89-8.07-7.37-16.37-10.45-24.79-1.48-4.05-1.66-8.56-2.6-13.76Z" style="fill: #000; stroke-width: 0px;"/>
  <path d="M419.04,629.77c-.77,4.47-.88,8.82-2.31,12.68-3.2,8.67-6.77,17.24-10.77,25.58-1.73,3.6-4.65,6.76-7.5,9.66-2.84,2.89-6.28,2.4-9.05-.61-4.16-4.53-4.15-6.47-1.3-11.69,9.7-17.79,15.32-36.56,12.96-57.12-.43-3.76,1.5-6.78,4.91-7.68,2.5-.66,4.69-.08,5.9,2.27,1.51,2.94,3.18,5.93,3.93,9.1,1.41,5.92,2.2,11.98,3.22,17.81Z" style="fill: #000; stroke-width: 0px;"/>
  <path d="M365.01,286.33c-.6-11.99,2.85-22.86,9.05-32.97,2.02-3.3,4.11-4.59,6.66-3.51,5.48,2.34,6.89,3.44,6.25,7.85-2.08,14.4-3.54,28.82-3.5,43.41.02,8.04-3.1,15.53-6.34,22.8-.56,1.25-2.62,2.6-3.91,2.54-1.29-.07-2.55-1.8-3.71-2.93-.35-.34-.39-1.07-.47-1.63-1.65-11.82-3.28-23.64-4.92-35.46.29-.03.58-.06.88-.09Z" style="fill: #000; stroke-width: 0px;"/>
  <path d="M287.85,286.97c-1.65,11.72-3.28,23.45-4.98,35.17-.34,2.3-1.36,4.32-4.05,4.49-2.71.17-3.7-1.8-4.61-3.95-3.98-9.46-5.91-19.19-6.04-29.55-.13-10.28-1.69-20.55-2.63-30.82-.1-1.14-.29-2.28-.4-3.42-.55-5.34,1.42-8.13,6.65-9.22,2.93-.61,4.61,1.16,6,3.42,6.4,10.35,9.9,21.49,9.18,33.8.3.03.59.05.89.08Z" style="fill: #000; stroke-width: 0px;"/>
  <path d="M369.63,123.72c.19,0,.39-.01.57.03,9.74,2.44,19.35.83,28.97-.85,2.54-.44,5.05-.31,6.73,2.04,1.75,2.44,1,4.9-.22,7.3-.26.51-.47,1.08-.84,1.5-5.03,5.66-5.46,12.36-4.44,19.41.11.76.15,1.52.23,2.28.76,6.96-1.28,9.56-8.37,9.77-1.54.05-3.98-1.28-4.56-2.61-2.6-5.96-7.4-10.14-11.23-15.11-3.72-4.82-7.15-9.88-10.32-15.08-.97-1.59-1.18-4.12-.71-5.96.34-1.33,2.38-2.21,3.67-3.3.16.19.33.39.49.58Z" style="fill: #000; stroke-width: 0px;"/>
  <path d="M251.08,159.72c.36-5.08.61-8.9.89-12.72.3-3.99-.77-7.52-3.14-10.77-1.23-1.69-2.32-3.54-3.11-5.46-1.91-4.65.83-8.41,5.87-7.98,3.52.31,7.01.95,10.5,1.55,5.92,1,11.8.97,17.68-.29,2.28-.49,4.65-.85,6.33,1.35,1.7,2.23,1.16,4.72-.11,6.77-3.06,4.94-6.21,9.86-9.73,14.48-4.04,5.29-9.26,9.65-11.94,16.03-1.05,2.5-3.39,3.21-6.06,2.32-1-.33-1.99-.67-3-.96-3.13-.89-4.21-2.32-4.17-4.31Z" style="fill: #000; stroke-width: 0px;"/>
  <path d="M79.59,184.68c-4.67-.39-7.2-4.05-6.41-8.91,1.58-9.66,6.37-17.71,12.06-25.4,4.57-6.18,10.16-11.14,16.79-14.97,3.44-1.99,6.13-1.91,8.08.3,2.76,3.13,3.21,6.63.76,9.63-6.99,8.58-12.25,18.23-17.88,27.68-2.18,3.67-5.66,6.61-8.81,9.61-1.15,1.09-3.05,1.39-4.6,2.05Z" style="fill: #000; stroke-width: 0px;"/>
  <path d="M579.03,177.63c-.02,5.48-5.19,8.35-10.12,5.72-4.33-2.31-7.45-5.94-9.92-10.12-1.36-2.3-2.45-4.78-3.92-7.01-4.51-6.86-9.08-13.68-13.74-20.45-2.21-3.21-2.42-5.53-.35-8.7,2.16-3.32,4.9-4.1,8.34-2.03,15.72,9.47,25.66,23.13,29.54,41.12.12.56.13,1.14.16,1.47Z" style="fill: #000; stroke-width: 0px;"/>
  <path d="M285.91,358.66c.08,7.7-2.28,14.63-6.31,21.12-2.16,3.48-3.93,7.2-5.91,10.8-1.86,3.4-4.55,4.87-7.36,4.09-2.94-.82-4.93-3.66-4.38-7.46.5-3.45,1.44-6.92,2.76-10.14,3.66-8.95,7.03-17.96,8.5-27.56.46-2.99,2.48-4.17,5.14-4.51,2.6-.33,4.99.47,5.82,3.09,1.08,3.4,1.64,6.97,2.42,10.47-.23.04-.46.08-.69.11Z" style="fill: #000; stroke-width: 0px;"/>
  <path d="M365.5,357.86c.7-3.14,1.21-6.34,2.15-9.41.84-2.76,3.13-3.73,5.9-3.49,3.07.26,4.78,1.77,5.26,4.74,1.54,9.42,4.81,18.28,8.37,27.08,1.38,3.41,2.34,7.08,2.84,10.72.51,3.72-1.47,6.38-4.38,7.16-2.77.75-5.42-.64-7.22-3.89-2.7-4.85-5.37-9.7-8.01-14.58-3.04-5.64-4.23-10.69-4.91-18.33Z" style="fill: #000; stroke-width: 0px;"/>
  <path d="M585.52,248.63c-.48,7.43-.7,12.68-1.22,17.91-.19,1.95-.74,4.06-1.77,5.68-.77,1.2-2.65,2.44-3.92,2.34-.98-.08-2.45-2.17-2.56-3.47-.27-3.21.04-6.48.25-9.72.28-4.58.75-9.14,1.01-13.72.73-12.76-2.07-25.06-4.87-37.38-.78-3.42-1.22-6.96-1.39-10.47-.16-3.35,1.79-5.51,4.44-5.68,2.66-.17,4.82,1.67,5.19,5.03,1.04,9.4,1.9,18.82,2.82,28.23.76,7.78,1.49,15.57,2.03,21.24Z" style="fill: #000; stroke-width: 0px;"/>
  <path d="M81.21,201.48c-.36,2.26-.63,4.54-1.09,6.78-1.54,7.49-3.87,14.89-4.53,22.45-.8,9.18-.3,18.49-.21,27.73.04,3.91.52,7.81.68,11.72.08,2.11-.37,4.22-2.88,4.61-2.49.39-3.76-1.46-4.21-3.48-.84-3.8-1.62-7.67-1.89-11.54-.91-13.03.34-25.96,2.04-38.88.88-6.72,1.34-13.5,2-20.25.08-.85.19-1.72.43-2.54.79-2.75,2.76-4.25,5.21-3.94,2.72.35,3.86,2.23,4.21,4.72.12.84.02,1.72.02,2.58.08,0,.15.02.23.03Z" style="fill: #000; stroke-width: 0px;"/>
  <path d="M581.84,289.64c-1.67,4.96-2.85,10.16-5.12,14.83-4.38,9.02-9.25,17.82-14.18,26.56-1.91,3.39-4.51,6.39-6.86,9.51-1.18,1.57-2.77,2.64-4.68,1.35-1.8-1.21-1.33-3-.47-4.62,4.5-8.43,8.8-16.98,13.61-25.24,3.44-5.9,5.87-11.97,6.54-18.78.18-1.89.59-3.8,1.22-5.58.92-2.61,3.21-3.84,5.63-3.34,2.25.46,3.7,2.44,4.31,5.3Z" style="fill: #000; stroke-width: 0px;"/>
  <path d="M70.75,290.23c0-3.43,1.5-5.5,3.86-5.92,2.43-.43,4.74.8,5.55,3.47.79,2.63,1.2,5.4,1.58,8.14.69,5,2.42,9.56,4.89,13.96,5,8.92,9.75,17.97,14.59,26.97.95,1.77,1.73,3.73-.37,5.09-2.09,1.35-3.53-.19-4.84-1.7-7.23-8.34-11.81-18.28-16.7-27.99-2.99-5.94-5.25-12.25-7.74-18.43-.53-1.31-.64-2.78-.81-3.59Z" style="fill: #000; stroke-width: 0px;"/>
  <path d="M396.35,207.88c0,2.58-.1,5.16.02,7.74.27,5.91-1.35,11.33-4.11,16.47-1.59,2.97-3.75,4.3-6.08,3.69-2.79-.73-5.42-4.28-5.01-7.18.43-3.11,1-6.23,1.78-9.27,2.02-7.86,4.21-15.67,6.31-23.51.55-2.07,1.36-3.99,3.91-3.77,2.52.22,3.16,2.18,3.18,4.36.04,3.82.01,7.64.01,11.46,0,0,0,0-.01,0Z" style="fill: #000; stroke-width: 0px;"/>
  <path d="M255.61,207.72c0-3.82-.05-7.64.02-11.46.03-2.05.69-3.93,3.05-4.18,2.53-.27,3.42,1.53,3.99,3.63,2.05,7.65,4.2,15.27,6.19,22.94.81,3.13,1.4,6.33,1.89,9.53.47,3.05-1.47,6.22-4.26,7.38-2.27.95-4.8-.01-6.24-2.62-2.66-4.81-4.61-9.86-4.57-15.49.03-3.25,0-6.49,0-9.74-.03,0-.05,0-.08,0Z" style="fill: #000; stroke-width: 0px;"/>
  <path d="M108.71,347.51c1.46,1.06,2.93,1.71,3.79,2.83,4.11,5.28,8.14,10.62,11.96,16.1.67.96.71,3.1.08,4.04-1.1,1.62-3,1.1-4.24-.18-4.78-4.94-9.59-9.85-14.06-15.06-.99-1.15-.98-3.54-.71-5.25.14-.89,1.87-1.52,3.18-2.48Z" style="fill: #000; stroke-width: 0px;"/>
  <path d="M542.49,348.09c4.02.02,5.74,3.36,3.91,6.31-1.39,2.25-3.11,4.35-4.93,6.28-3.01,3.18-6.2,6.19-9.35,9.23-1.4,1.36-3.08,2.28-4.77.65-1.56-1.5-.76-3.13.35-4.61,3.83-5.1,7.58-10.27,11.52-15.28.98-1.25,2.55-2.04,3.27-2.59Z" style="fill: #000; stroke-width: 0px;"/>
  <path d="M466.3,268.19c21.95-1.8,39.7,22.44,35.85,41-1.21,5.85-2.96,11.65-5.15,17.21-1.9,4.81-5.66,8.37-10.42,10.64-22.07,10.5-45.46.6-52.22-19.35-5.52-16.31,1.61-37.19,15.79-46.13,4.88-3.08,10.31-3.17,16.15-3.37Z" style="fill: #000; stroke-width: 0px;"/>
  <path d="M187.99,268.25c11.1-1.08,19.5,5.49,25.64,15.86,10.52,17.74,6.82,39.57-8.49,50.46-11.77,8.37-29.27,8.98-41.55,1.43-4.21-2.59-7.15-6.3-9.21-10.72-3.01-6.49-4.72-13.34-4.88-20.5-.45-20.06,16.4-36.77,38.48-36.52Z" style="fill: #000; stroke-width: 0px;"/>
  <path d="M297.08,733.84c.87-4.58,1.49-9.23,2.65-13.74,2.9-11.31,14.22-17.37,24.45-15.59,1.2.21,2.51.21,3.71,0,10.78-1.81,21.63,4.79,24.7,16.12,3.08,11.35,2.74,22.45-2.56,32.98-3.38,6.73-7.56,13.06-11.52,19.48-2,3.24-5.23,3.81-8.8,3.53-2.45-.19-4.94-.19-7.39.01-3.95.33-7.18-.64-9.33-4.22-3.19-5.33-6.54-10.57-9.6-15.97-3.93-6.96-5.93-14.48-6.32-22.61Z" style="fill: #000; stroke-width: 0px;"/>
</svg>