<?xml version="1.0" encoding="UTF-8"?>
<svg id="Layer_1" data-name="Layer 1" xmlns="http://www.w3.org/2000/svg" viewBox="0 0 408.42 840.98">
  <path d="M164.04,94.32c.61-1.25,1.28-2.47,1.83-3.75,2.02-4.65,4.84-8.6,9.43-11.04,2.33-1.24,3.07-3.22,2.94-5.75-.24-4.7-2.01-8.98-3.6-13.29-3.56-9.71-6.77-19.5-7.97-29.83-.75-6.45-1.27-12.91.55-19.29,2.11-7.43,7.24-11.66,14.96-11.35,14.72.59,29.41.56,44.12,0,7.87-.3,13.01,4,15.12,11.6,1.65,5.95,1.26,11.98.61,17.99-1.01,9.33-3.55,18.3-6.77,27.09-1.4,3.81-2.8,7.63-3.93,11.53-.64,2.18-.83,4.52-1.04,6.8-.13,1.48.38,2.97,1.76,3.68,6.06,3.12,9.35,8.44,11.78,14.49.14.36.5.62,1.32,1.59.15-1.8.34-2.92.32-4.03-.13-5.71-.34-11.41-.47-17.12-.03-1.31-.07-2.66.17-3.93.81-4.18,5.12-6.35,8.83-4.27,1.65.93,3.24,2.38,4.23,3.99,3.27,5.32,6.29,10.8,9.33,16.27,2.55,4.61,4.98,9.29,7.47,13.92,8.67,16.1,21.54,27.9,37.73,36.06,8.42,4.24,17.2,7.77,25.79,11.68,4.99,2.27,10.26,4.15,14.82,7.11,5.49,3.56,10.66,7.77,15.44,12.25,10.27,9.63,17.29,21.54,22.45,34.51,2.92,7.33,5.75,14.77,7.64,22.41,2.04,8.29,3.24,16.82,4.26,25.31,2.28,18.96,1.36,37.92-.83,56.85-1.89,16.38-4.64,32.6-8.78,48.57-.74,2.86-1.11,5.82-1.64,8.73-1.6,8.76-5.46,16.43-11.42,23-2.14,2.36-2.97,4.87-2.96,8.04,0,6.8,1.81,13.22,3.45,19.72,3.06,12.13,6.13,24.26,8.82,36.48,2.77,12.56,6.25,24.91,10.28,37.11,5.66,17.13,8.93,34.69,8.3,52.76-.78,22.6-6.54,43.78-19.37,62.71-4.76,7.03-10.54,13.2-16.74,18.97-1.79,1.66-2.51,3.39-2.26,5.8,1.34,12.55,2.74,25.1,3.86,37.67,1.64,18.5,2.59,37,.49,55.56-2.6,23.04-8.84,44.95-19.19,65.71-5.86,11.75-14.54,20.76-25.76,27.47-11.11,6.64-23,11.36-35.52,14.58-18.35,4.71-37.02,7.43-55.84,9.25-8.74.84-17.49,1.68-26.22,2.68-7.27.83-14.52.31-21.7-.5-17.35-1.95-34.72-3.87-51.97-6.51-16.96-2.59-33.69-6.47-49.16-14.26-5.66-2.85-11.16-6.14-16.39-9.73-10.57-7.26-17.13-17.73-22.22-29.24-5.66-12.78-10.32-25.89-13.08-39.62-3.85-19.16-5.14-38.49-3.96-57.99.9-14.8,2.42-29.54,4.3-44.24.49-3.8.47-7.67.82-11.49.19-2.06-.59-3.51-2.01-4.93-3.79-3.81-7.61-7.6-11.13-11.65-9.6-11.04-15.84-23.89-20-37.83-6.66-22.32-6.85-44.84-1.6-67.38,2.34-10.03,5.78-19.79,8.49-29.74,2.65-9.74,5.03-19.55,7.47-29.34,2.94-11.82,5.74-23.67,8.76-35.47,1.45-5.67,2.49-11.34,2.5-17.21,0-2.66-.63-4.85-2.5-6.87-7.42-8-11.25-17.63-12.79-28.35-.62-4.33-1.9-8.56-2.83-12.85-5.87-26.79-9.39-53.85-8.61-81.34.29-10.21,1.64-20.32,3.37-30.41,2.63-15.29,7.74-29.69,14.81-43.42,6.79-13.19,16.18-24.13,28.37-32.76,6.9-4.89,14.64-7.88,22.18-11.39,8.35-3.89,16.91-7.39,25.07-11.64,15.91-8.3,28.07-20.52,36.47-36.43,3.89-7.37,7.78-14.75,11.76-22.08,1.31-2.41,2.76-4.75,4.37-6.96.95-1.3,2.18-2.53,3.55-3.35,3.9-2.35,8.5-.15,9.28,4.34.2,1.18.16,2.41.12,3.61-.18,5.6-.42,11.19-.59,16.79-.04,1.27.11,2.54.17,3.82l.93.18ZM122.81,660.99c.33-.92.72-1.68.88-2.49.96-5.03,2.8-9.76,5.66-13.94,3.77-5.52,7.93-10.76,11.93-16.12.19-.26.44-.58.72-.66.8-.23,1.87-.74,2.38-.42.68.44,1.1,1.51,1.32,2.38.14.56-.26,1.26-.45,1.88-1.31,4.37-3.64,8.21-6.19,11.93-2.51,3.66-4.54,7.55-5.25,11.96-.71,4.44-1.26,8.91-1.78,13.37-.18,1.5.4,2.75,2.12,3.42.32-.82.69-1.49.86-2.21,1.81-7.87,5.21-15.12,8.76-22.31,3.64-7.37,7.29-14.73,10.95-22.09.29-.58.62-1.19,1.06-1.65,1.26-1.32,3.04-.94,3.65.79.21.6.31,1.31.23,1.94-.32,2.83-.53,5.69-1.15,8.46-1.06,4.77-3.65,8.9-5.95,13.14-1.98,3.66-4.13,7.32-5.41,11.24-3.22,9.82-2.91,20.14-3.53,30.32-.06.92.25,1.89,1.7,2.35.08-1.33.15-2.39.2-3.46.51-10.53,2.52-20.69,7.6-30.06,1.78-3.28,4.01-6.34,5.47-9.75,4.35-10.18,8.45-20.47,12.57-30.75.52-1.3.65-2.78.81-4.19.4-3.41,1.36-4.95,3.46-5.29,2.05-.33,3.67,1.04,4.95,3.98,1.4,3.22,2.86,6.41,4.4,9.57.53,1.1,1.36,2.06,2.05,3.08.8-1.03,1.01-1.84,1.11-2.67.28-2.29.44-4.59.81-6.87.22-1.35.89-2.61,2.5-2.61,1.6,0,2.24,1.14,2.45,2.59.3,2.06.63,4.12.91,6.19.22,1.7.38,3.4.56,4.99,1.77.39,2.29-.41,2.54-1.66.35-1.72.77-3.42,1.19-5.13.95-3.85,1.96-4.27,5.36-2.28,3.19-1.97,4.32-1.53,5.23,2.09.45,1.81.9,3.62,1.28,5.45.27,1.32.88,1.96,2.64,1.39.08-.93.12-1.99.25-3.04.36-2.83.75-5.66,1.16-8.48.18-1.23.94-2.01,2.18-2.1,1.28-.09,2.1.7,2.39,1.86.34,1.38.48,2.8.69,4.21.29,1.98.57,3.96.85,5.94.26.04.52.08.77.12.64-.96,1.41-1.86,1.91-2.89,1.53-3.16,2.94-6.37,4.43-9.55.46-.98.86-2.07,1.57-2.86,2.01-2.26,5.28-1.61,6.37,1.22.31.8.31,1.72.5,2.57.45,2.03.77,4.1,1.42,6.06.97,2.91,2.16,5.75,3.31,8.6,3.6,8.96,6.71,18.14,11.9,26.37,6.58,10.43,9.33,21.92,9.82,34.08.04,1.04.14,2.07.25,3.58,2.01-1.34,1.79-2.91,1.69-4.36-.39-5.8-.62-11.63-1.33-17.4-.52-4.22-1.29-8.51-2.71-12.49-1.42-3.99-3.71-7.69-5.78-11.43-2.13-3.85-4.3-7.69-5.25-12.02-.61-2.77-.83-5.63-1.09-8.47-.12-1.36.25-2.72,1.86-3.08,1.44-.32,2.21.67,2.79,1.8.25.49.48.99.72,1.48,2.62,5.31,5.17,10.65,7.88,15.92,4.62,8.99,9.26,17.95,11.59,27.9.15.66.6,1.25.99,2.03,1.79-1.25,2.17-2.69,1.82-4.47-.27-1.4-.61-2.81-.65-4.22-.25-8.25-2.65-15.74-7.74-22.31-.47-.6-.9-1.26-1.22-1.95-1.38-2.98-2.83-5.94-4-9-.73-1.9.61-3.72,2.28-3.32.86.2,1.75.91,2.33,1.63,3.09,3.85,6.18,7.71,9.09,11.69,4.05,5.55,7.14,11.57,8.44,18.41.13.69.56,1.32.9,2.09.61-.25,1.05-.35,1.39-.58,6.42-4.35,13.54-7.23,20.79-9.83,21.49-7.72,40.64-19.17,56.76-35.47,8.94-9.03,16.76-18.85,22.14-30.46.27-.58.32-1.27.48-1.9-1.23.71-1.97,1.62-2.65,2.58-7.01,10-15.35,18.6-26.02,24.76-.76.44-1.5,1.07-2.31,1.18-.88.12-2.08.02-2.68-.51-.9-.79-.69-2.07.08-2.99.91-1.09,1.94-2.09,2.95-3.08,14.85-14.49,25.99-31.65,35.66-49.84,2.48-4.66,4.52-9.56,4.69-14.96.22-7.26-.23-14.49-1.56-21.64-.11-.59-.45-1.13-1.01-2.46-.94,3.01-1.65,5.27-2.36,7.54-6.43,20.54-16.53,39.16-29.47,56.29-.46.61-.87,1.42-1.49,1.7-.78.36-2.03.65-2.6.27-.59-.4-.97-1.7-.82-2.49.22-1.14,1-2.17,1.55-3.24,4.83-9.35,9.91-18.58,14.43-28.08,7.87-16.57,13.52-33.83,14.11-52.38.09-2.79-.26-5.74-1.13-8.38-8.08-24.44-14.36-49.3-17.91-74.82-.11-.8-.4-1.58-.71-2.75-.68.65-1.11.96-1.41,1.36-.79,1.05-1.47,2.18-2.3,3.2-.78.96-1.98,1.3-2.93.58-.67-.51-1.14-1.56-1.27-2.44-.12-.8.38-1.69.54-2.54.24-1.24.42-2.49.65-3.9-.74.08-1.09.04-1.36.17-2.26,1.1-3.29,3.09-3.96,5.38-1.41,4.8-3.92,9.03-6.83,13.05-.86,1.19-1.98,1.88-3.38,1.1-1.29-.71-1.2-1.98-.76-3.2.52-1.44,1.18-2.85,1.58-4.32.29-1.06,1.39-2.09.34-3.53-3.96,1.51-8.04,2.49-10.15,7.01-1.08,2.3-3.18,4.16-4.95,6.1-.91,1-2.17,1.65-3.54.76-1.36-.88-1.29-2.12-.71-3.49.35-.84.5-1.76.79-2.82-3.78.72-4.23.99-5.5,3.92-2.15,4.98-4.93,9.55-8.57,13.58-.87.96-1.96,1.9-3.46,1.03-1.44-.83-1.38-2.2-1-3.49.59-1.99,1.39-3.92,2.04-5.9.35-1.08.59-2.19.9-3.41-2.78-.2-3.27,1.7-4.15,3.15-2.37,3.94-4.71,7.91-7.14,11.82-.77,1.23-1.99,1.85-3.39,1.05-1.24-.71-1.28-1.94-.84-3.19.48-1.34.98-2.68,1.46-4.02.6-1.7,1.18-3.41,1.98-5.72-2,.48-3.33.85-4.68,1.12-1.98.39-3.42,1.4-4.17,3.31-.24.61-.52,1.22-.89,1.76-2.06,2.97-4.11,5.94-6.25,8.85-.84,1.13-2.08,1.74-3.47.96-1.4-.79-1.38-2.13-.96-3.48.46-1.46,1.01-2.9,1.43-4.37.21-.76.21-1.57.35-2.71-2.38.62-4.28,1.14-6.19,1.59-1.85.44-3.01,1.56-3.92,3.21-2.07,3.74-4.26,7.41-6.44,11.1-.5.84-1.07,1.66-1.71,2.4-.71.81-1.76,1.28-2.61.49-.62-.59-.93-1.61-1.13-2.5-.11-.45.3-1.03.5-1.54.88-2.25,1.79-4.48,2.64-6.74.4-1.05.69-2.15,1.19-3.73-3.01.41-5.37.81-7.75,1.03-2.6.24-3.95,1.65-5.09,3.95-2.73,5.49-5.78,10.82-8.76,16.18-.47.85-1.08,1.72-1.85,2.28-.62.45-1.79.85-2.32.56-.7-.39-1.29-1.43-1.43-2.28-.15-.91.16-1.96.47-2.88,1.4-4.16,2.88-8.28,4.3-12.43.23-.67.26-1.4.45-2.44-3.04.17-5.75.35-8.46.47-3.67.16-3.65.15-4.84,3.64-4.05,11.87-8.94,23.36-15.68,34-.58.92-1.16,1.9-1.96,2.61-.48.43-1.55.72-2.06.48-.66-.32-1.39-1.22-1.43-1.92-.07-1.16.22-2.41.64-3.51,4-10.44,8.07-20.86,12.1-31.29.34-.87.56-1.78,1-3.19-2.65-.06-4.81-.16-6.96-.14-2.79.03-2.85.17-3.57,2.81-.6,2.22-1.17,4.47-2.04,6.59-.76,1.86-1.34,3.63-1.24,5.7.11,2.35-.74,3.03-3.19,3.13-.44.02-.88.03-1.32,0-2.29-.13-2.92-.74-3.05-2.96-.07-1.09.11-2.25-.19-3.27-1.02-3.46-2.17-6.89-3.37-10.29-.22-.62-.91-1.47-1.45-1.53-2.79-.3-5.6-.35-8.78.11.45,1.34.72,2.25,1.06,3.13,4.02,10.44,8.06,20.87,12.05,31.32.38,1.01.7,2.14.63,3.19-.05.73-.65,1.76-1.28,2.03-.62.27-1.75-.04-2.34-.49-.75-.57-1.23-1.52-1.75-2.35-6.73-10.75-11.71-22.31-15.75-34.3-1.09-3.24-1.21-3.33-4.63-3.48-1.54-.07-3.07-.17-4.6-.26-1.26-.07-2.51-.15-4.2-.24.38,1.36.56,2.18.83,2.97,1.33,3.95,2.71,7.88,4.01,11.84.34,1.03.63,2.16.52,3.21-.07.73-.71,1.72-1.35,1.99-.62.27-1.7-.03-2.35-.44-.7-.44-1.25-1.23-1.67-1.99-3.02-5.46-5.99-10.95-8.97-16.43-.72-1.32-1-3.11-2.74-3.47-3.17-.67-6.39-1.14-9.98-1.76.24,1.17.29,1.81.51,2.38.73,1.95,1.53,3.88,2.29,5.82.43,1.13.86,2.26,1.23,3.41.41,1.28.18,2.46-1.07,3.13-1.37.74-2.3-.21-3.09-1.14-.56-.66-.98-1.45-1.42-2.21-2.03-3.51-4.03-7.04-6.09-10.53-.55-.93-1.11-2.07-1.98-2.54-2.48-1.34-5.24-1.89-8.52-2.35.44,1.49.74,2.51,1.05,3.53.41,1.37,1.06,2.72,1.15,4.1.06.92-.42,2.34-1.11,2.73-.71.39-2.03-.05-2.95-.44-.64-.27-1.13-1.03-1.55-1.66-1.83-2.73-4.01-5.31-5.31-8.28-1.82-4.18-5.19-4.77-9.36-5.33.31,1.17.48,1.99.75,2.76.83,2.38,1.74,4.74,2.53,7.13.37,1.13.18,2.27-.94,2.88-1.24.67-2.35.23-3.19-.84-.54-.69-1.07-1.4-1.51-2.15-2.11-3.59-4.22-7.18-6.26-10.8-.78-1.38-1.52-2.6-3.77-2.12.42,1.35.76,2.48,1.13,3.59.63,1.87,1.34,3.72,1.92,5.6.41,1.33.38,2.66-1.02,3.47-1.48.86-2.51-.12-3.47-1.02-.63-.6-1.23-1.28-1.67-2.02-2.3-3.85-4.66-7.67-6.78-11.61-1.21-2.26-2.59-3.92-5.65-3.95.28,1.05.44,1.89.74,2.67.55,1.44.81,2.89-.75,3.78-1.52.87-2.76-.02-3.72-1.17-1.74-2.1-3.83-4.06-5.02-6.45-2.17-4.36-6.27-4.88-10.51-6.66.28,1.28.36,1.9.56,2.48.72,2.07,1.52,4.11,2.23,6.19.38,1.14.21,2.23-.97,2.82-1.13.57-2.16.14-2.96-.73-.52-.56-.93-1.22-1.36-1.86-2.64-3.94-4.82-8.1-6.14-12.68-.68-2.36-2.08-3.96-5.07-4.89.28,1.66.49,2.9.71,4.13.18.97.63,1.97.49,2.89-.13.85-.72,2-1.42,2.28-.7.29-1.92-.11-2.63-.61-.77-.53-1.21-1.53-1.81-2.32-.5-.65-1.02-1.29-1.94-2.43-.32,1.54-.55,2.45-.68,3.38-.25,1.74-.36,3.5-.65,5.23-4,23.64-9.62,46.87-17.38,69.57-.8,2.34-1.19,4.96-1.09,7.42.44,11.59,2.73,22.85,6.45,33.85,4.13,12.21,9.68,23.77,15.71,35.12,2.52,4.75,5.06,9.48,7.5,14.27.92,1.81.65,3.2-.55,3.73-1.54.69-2.46-.37-3.36-1.36-.15-.16-.23-.38-.36-.55-9.44-12.6-17.64-25.94-23.61-40.54-2.57-6.28-4.58-12.79-6.91-19.17-.44-1.21-.32-2.8-1.95-3.68-1.44,5.93-1.67,11.73-2.07,17.52-.47,6.76.78,13.11,3.87,19.11,9.91,19.22,21.69,37.12,37.23,52.34.86.84,1.79,1.68,2.4,2.69,1.04,1.73-.07,3.51-2.01,3.3-.84-.09-1.68-.49-2.43-.93-1.51-.88-2.96-1.87-4.43-2.83-8.97-5.85-16-13.63-22.15-22.28-.7-.99-1.46-1.94-2.19-2.9-.21.14-.42.28-.63.42.35.87.66,1.76,1.06,2.61,3.7,7.79,8.51,14.84,14.12,21.36,16.75,19.47,37.23,33.56,61.31,42.48,8.24,3.05,16.51,6.03,23.86,11.02.33.23.78.3,1.43.53ZM318.35,657.13c-2.25.81-3.97,1.46-5.72,2.04-1.73.57-2.18,1.61-2.11,3.48.2,5.04.24,10.1,0,15.14-.51,11-2.65,21.78-5.03,32.5-.12.53-.19,1.2-.54,1.53-.67.63-1.49,1.41-2.31,1.49-1.2.11-1.98-.84-2.11-2.08-.1-.98-.1-1.97-.11-2.96-.01-13.51.12-27.01,1.48-40.47.12-1.17.02-2.36.02-3.7-2.61.31-4.32,1.94-6.27,3.05-1.5.86-1.93,2.08-1.92,3.83.02,3.39,0,6.83-.55,10.17-1.06,6.49-2.49,12.93-3.79,19.38-.2.96-.36,2.03-.89,2.8-.49.71-1.4,1.43-2.22,1.55-1.28.19-1.95-.87-2.13-2.04-.15-.97-.14-1.97-.12-2.95.11-5.49.26-10.98.38-16.47.02-1.03-.06-2.06-.1-3.25-.6.27-.85.31-.97.45-.41.51-.81,1.04-1.15,1.6-4.77,7.91-9.04,16.06-12.37,24.7-1.26,3.27-2.53,6.63-4.44,9.52-6.58,9.98-16.12,15.31-27.93,16.38-8.09.74-16.22,1.12-24.34,1.51-2.28.11-4.58-.33-6.87-.44-1.41-.07-2.83-.03-4.24.04-2.3.11-4.6.51-6.88.4-7.9-.38-15.82-.68-23.68-1.48-15.09-1.54-26.19-8.81-31.8-23.36-3.56-9.24-7.78-18.15-13.01-26.56-.59-.96-1.27-1.86-1.91-2.79-.25.09-.5.18-.75.28,0,1.04-.02,2.09,0,3.13.1,4.83.22,9.66.32,14.49.03,1.43.06,2.86-.03,4.28-.08,1.27-.55,2.41-2.03,2.6-1.46.19-2.27-.67-2.61-1.97-.56-2.12-1.08-4.25-1.55-6.39-1.88-8.58-3.92-17.13-3.46-26.03.04-.8-.17-1.93-.71-2.38-2.13-1.82-4.45-3.42-7.56-4.26,0,1.02-.06,1.76,0,2.48,1.41,14.01,1.7,28.05,1.57,42.11,0,.88.2,1.87-.13,2.6-.41.89-1.16,1.92-2.01,2.25-1.17.45-2.02-.58-2.51-1.62-.28-.58-.38-1.25-.51-1.89-.59-2.79-1.15-5.59-1.73-8.38-2.53-12.31-3.82-24.72-3.37-37.3.05-1.3,0-2.6,0-4.17-2.39-.93-4.79-1.85-7.74-2.99.08,1.7.09,2.75.18,3.79,1.28,16.31,2.58,32.62,3.85,48.92.08.98.25,2.06-.08,2.93-.3.8-1.14,1.8-1.87,1.92-.73.12-1.87-.57-2.36-1.24-.69-.94-.98-2.19-1.37-3.33-4.17-12.37-6.26-25.11-6.74-38.12-.19-5.26-.1-10.54-.23-15.8-.02-1.02-.14-2.5-.79-2.97-2.06-1.49-4.34-2.7-7.09-3.46-.07,1.26-.19,2.12-.16,2.98.21,5.6.35,11.2.69,16.78.88,14.25,1.85,28.49,2.78,42.73.04.65.22,1.43-.06,1.94-.43.79-1.12,1.86-1.82,1.96-.69.1-1.66-.73-2.28-1.37-.4-.42-.42-1.22-.58-1.86-2.95-11.87-4.57-23.94-4.85-36.15-.19-8.56-.02-17.13-.03-25.69,0-6.47.62-4.69-4.42-7.96-1.08-.7-2.06-2.09-3.88-1.45-.07.89-.21,1.75-.21,2.61-.01,5.71-.18,11.43.05,17.13.69,17,1.53,34,2.31,51,.05,1.09.16,2.2.06,3.28-.11,1.16-.69,2.3-1.98,2.19-.82-.07-1.8-.73-2.31-1.41-.63-.85-.97-1.98-1.2-3.04-.94-4.29-2.09-8.55-2.62-12.89-2.11-17.35-3.25-34.76-3.02-52.25.05-3.51.2-7.03.47-10.53.26-3.42-.23-4.28-4.07-5.69-.13.74-.36,1.46-.38,2.17-.56,19.42-1.33,38.85-1.55,58.27-.1,8.65.94,17.31,1.4,25.96.13,2.4,1,4.43,2.29,6.4,4.22,6.42,8.42,12.85,12.51,19.35,6.66,10.61,13.93,20.74,22.28,30.14,14.19,15.99,29.74,30.44,47.23,42.77,2.37,1.67,4.82,3.05,7.7,3.53,3.25.54,6.49,1.21,9.76,1.58,14.51,1.67,29.03,3.29,43.56,4.82,3.38.36,6.8.34,10.2.44,8.36.26,16.68-.39,24.99-1.27,14.53-1.54,29.09-2.79,43.48-5.4,2.75-.5,5.3-1.41,7.55-3.08,10.92-8.12,21.87-16.19,31.48-25.9,10.82-10.92,21.62-21.88,30.33-34.61,7.55-11.04,14.67-22.38,21.9-33.63.74-1.16,1.3-2.59,1.44-3.95.58-5.79,1.24-11.58,1.39-17.39.57-22.73.02-45.45-1.43-68.15-.05-.71-.31-1.41-.48-2.16-3.97,1.8-4.36,2.5-3.96,6.24.23,2.18.36,4.38.42,6.57.46,18.37-.7,36.66-2.91,54.88-.62,5.09-2,10.11-3.27,15.09-.68,2.66-1.71,3.41-3.1,3.18-1.39-.23-2.02-1.47-1.88-4.04.37-6.69.93-13.37,1.14-20.06.52-16.57.89-33.14,1.3-49.71.02-.91-.22-1.82-.41-3.28-2.7,1.7-4.98,2.98-7.06,4.54-.63.47-.93,1.69-.95,2.57-.09,2.96,0,5.93.06,8.89.33,15.17,0,30.31-2.75,45.29-.71,3.88-1.68,7.72-2.5,11.58-.3,1.42-.95,2.51-2.54,2.53-1.28.02-2.01-1.24-2.03-3.24,0-.22.02-.44.04-.66.33-5.04.71-10.08.99-15.12.83-14.69,1.63-29.38,2.43-44.06.06-1.04-.05-2.08-.1-3.67-1.68.81-2.8,1.5-4.01,1.9-3.26,1.06-3.99,3.15-3.88,6.51.56,17.67-1.13,35.09-6.86,51.96-.39,1.14-.81,2.28-1.3,3.38-.49,1.09-1.37,1.76-2.62,1.51-1.26-.25-1.78-1.23-1.87-2.4-.07-.87-.02-1.76.05-2.63,1.31-16.42,2.63-32.83,3.94-49.24.07-.85,0-1.71,0-3.23ZM21.13,331.94c.06,1.22.02,1.76.12,2.28,1.75,9.39,3.52,18.77,5.28,28.15.82,4.38,2.25,8.48,5.26,11.89,8.68,9.85,18.07,18.77,29.91,24.92,10.09,5.24,20.68,9.18,31.34,12.9,18.36,6.41,37.09,11.54,56.11,15.65,15.09,3.26,30.33,4.94,45.71,5.63,2.79.12,5.41.65,7.89,2.02.73.4,2.06.53,2.71.13,3.06-1.88,6.41-1.98,9.83-2.23,8.65-.63,17.35-.99,25.91-2.29,16.73-2.55,33.16-6.46,49.46-11.11,15.34-4.38,30.34-9.6,45.14-15.5,15.84-6.31,29.06-16.19,40.04-29.17,2.58-3.05,4.65-6.32,5.41-10.37,1.94-10.35,4.02-20.68,6.01-31.02.09-.46-.14-.97-.27-1.76-.72.45-1.21.67-1.6,1-5.14,4.38-10.96,7.64-16.96,10.66-8.77,4.43-18.01,7.55-27.48,10.02-11.69,3.05-23.39,6.16-35.43,7.43-9.06.96-18.16,1.65-27.26,2.01-18,.71-36,1.09-54,1.67-4.06.13-8.1.62-12.16.78-4.38.17-8.78.3-13.15.15-5.92-.2-11.83-.84-17.76-1.03-14.27-.46-28.55-.66-42.81-1.2-10.31-.39-20.62-1.08-30.92-1.79-3.72-.26-7.43-.82-11.1-1.49-12.43-2.28-24.73-5.12-36.8-8.86-13.08-4.05-25.5-9.5-36.27-18.19-.48-.39-1.07-.65-2.16-1.31ZM15.03,258.48c-.21.03-.43.06-.64.1-.09,1.02-.26,2.05-.25,3.07.03,7.68-.02,15.36.17,23.04.27,10.41,3.29,20.07,8.34,29.15,2.78,4.99,6.55,9.01,11.35,12.13,6.98,4.53,14.51,7.82,22.55,9.8,9.27,2.28,18.61,4.31,27.96,6.23,11.3,2.32,22.66,4.09,34.23,4.63,16.45.76,32.84,2.67,49.33,2.69.55,0,1.09.09,1.64.15,7.97.83,15.93,1.8,23.92,2.42,4.03.31,8.13-.35,12.16-.02,6.31.52,12.48-.3,18.71-.96,7.53-.79,15.09-1.34,22.65-1.81,17.31-1.07,34.63-2.03,51.95-3.06,1.53-.09,3.07-.26,4.58-.55,14.77-2.84,29.57-5.5,44.28-8.65,9.7-2.08,18.91-5.69,27.21-11.34,3.78-2.57,6.98-5.67,9.4-9.55,5.19-8.33,8.58-17.42,9.29-27.16.68-9.39.35-18.86.42-28.3,0-.65-.35-1.31-.68-2.45-1.98,3.28-3.5,6.19-5.39,8.85-9.63,13.51-23.02,21.69-38.56,26.64-9.58,3.05-19.58,3.91-29.5,5.03-22.08,2.48-44.26,3.01-66.46,2.85-11.09-.08-22.17-.66-33.15-2.44-11.93-1.93-23.85-1.61-35.73.5-1.4.25-2.82.44-4.24.56-11.93,1.08-23.88,1.48-35.87,1.4-22.32-.14-44.57-1.24-66.71-4.1-10.16-1.31-20.16-3.24-29.49-7.74-13.67-6.59-25.18-15.53-32.25-29.36-.32-.63-.79-1.18-1.19-1.76ZM362.04,173.25c-.23.13-.47.26-.7.4.19,1.36.43,2.72.56,4.09,2.16,21.65-4.31,39.56-22.5,52.55-13.47,9.62-28.71,14.41-44.82,17.07-10.22,1.69-20.55,1.94-30.85,2.53-8.68.49-17.33.35-25.97-.95-4.55-.69-9.17-1.09-13.77-1.3-11.96-.55-23.92-.95-35.89-.11-4.38.31-8.76.55-13.13.94-5.03.45-10.04,1.45-15.07,1.5-19.69.19-39.32-.48-58.58-5.2-13.08-3.21-25.06-8.69-35.63-17.1-5.39-4.29-9.87-9.35-13.09-15.46-5.87-11.17-7.53-23.04-5.89-35.46.15-1.1.8-2.27-.26-3.67-1,.96-1.92,1.71-2.68,2.6-12.44,14.45-20.72,30.85-23.67,49.83-2.35,15.09,4.86,39.3,24.6,49.9,10.3,5.54,21.27,8.04,32.75,9.06,18.95,1.69,37.96,1.88,56.96,1.9,15.93.02,31.84-.35,47.73-1.73,7.98-.69,16.01-1.18,24.01-1.08,8.55.1,17.09,1.05,25.64,1.54,34.04,1.94,68.07,1.96,102.06-.91,6.24-.53,12.41-1.63,18.37-3.68,14.55-5.01,25.85-13.56,32.1-28.17,4.78-11.16,5.62-22.57,2.85-34.15-1.42-5.93-3.92-11.64-6.34-17.27-3.96-9.23-9.23-17.69-16.06-25.12-.84-.91-1.83-1.69-2.75-2.53ZM86.54,150.07c-6.87,3.03-13.46,5.98-20.1,8.83-2.41,1.03-3.76,2.79-4.7,5.16-3.24,8.14-3.96,16.62-3.45,25.24.42,7.04,2.75,13.51,6.42,19.51,5,8.17,12.42,13.52,20.86,17.58,12.68,6.11,26.29,8.44,40.18,9.34,7.34.48,14.7.85,22.06.88,6.58.03,13.16-.39,19.73-.76,6.24-.35,12.47-1.16,18.71-1.27,12.07-.21,24.15-.14,36.22-.02,4.71.05,9.44.34,14.12.87,7.65.87,15.29,1.59,23,1.27,8.01-.33,16.03-.49,24.03-1.02,12.45-.82,24.66-2.95,36.21-7.88,8.16-3.48,15.74-7.97,21.2-15.16,11.83-15.57,11.43-32.51,5.08-49.98-.59-1.62-1.84-2.71-3.39-3.41-4-1.81-7.98-3.66-12.01-5.39-2.89-1.25-5.86-2.33-8.95-3.55-.48.94-.84,1.59-1.14,2.26-1.77,3.88-3.25,7.93-5.33,11.63-5.57,9.95-13.12,18.36-21.16,26.37-10.76,10.71-23.52,17.73-38.2,21.67-14.63,3.92-29.51,4.61-44.45,3.94-5.16-.23-10.22-.03-15.35.11-13.4.37-26.78,0-39.96-3.14-13.24-3.16-25.41-8.37-35.9-17.17-6.33-5.31-12.01-11.28-17.22-17.66-6.48-7.94-12.32-16.28-15.4-26.23-.15-.5-.51-.93-1.13-2ZM127.61,126.25c-.54.08-.79.05-.95.16-.54.38-1.06.78-1.55,1.21-7.61,6.73-16.09,12.15-25.13,16.73-3.05,1.55-3.08,1.63-1.64,4.72,5.02,10.75,11.99,20.12,20.14,28.7,8.76,9.21,19.2,15.59,31.37,19.16,6.99,2.05,14.2,2.77,21.4,3.62,16.94,1.99,33.9,3.01,50.94,1.47,7-.63,13.99-1.35,20.97-2.12,12.85-1.41,25.06-4.88,35.64-12.54,13.98-10.12,24.22-23.41,31.62-38.93,1.07-2.25.88-2.7-1.4-3.83-9.49-4.69-18.28-10.44-26.24-17.43-.47-.42-1.04-.73-1.8-1.25-.54,1.01-1.07,1.82-1.43,2.69-2.33,5.63-5.52,10.76-9.61,15.24-12.14,13.31-26.55,21.51-45.31,20.86-13.59-.47-27.21-.18-40.82-.04-5.97.06-11.94,0-17.57-2.05-16.93-6.18-29.72-17.05-37.23-33.68-.43-.96-.97-1.88-1.41-2.71ZM151.91,94.51c-.32-.16-.64-.32-.95-.48-.22.49-.4,1.01-.66,1.48-4.48,7.96-9.58,15.49-15.59,22.39-1.15,1.32-1.06,2.5-.19,3.86,1.77,2.78,3.37,5.67,5.26,8.36,10.31,14.7,24.24,22.53,42.44,22.05,5.6-.15,11.18-.57,16.78-.74,3.73-.11,7.47-.06,11.2.05,6.47.19,12.95.68,19.42.63,3.7-.03,7.57-.3,11.05-1.44,11.43-3.74,21.27-9.89,27.88-20.34,1.76-2.78,3.45-5.6,5.23-8.37,1.02-1.59,1.04-2.87-.3-4.41-5.84-6.74-10.79-14.11-15.19-21.86-.28-.49-.82-.84-1.7-1.71-.21,1.61-.3,2.65-.5,3.68-.49,2.58-.69,5.27-1.62,7.68-2.08,5.38-7.38,6.78-12.09,3.42-1.06-.76-2.02-1.69-2.92-2.65-.59-.63-.97-1.45-1.47-2.21-1.02.74-1.54.98-1.87,1.38-1.86,2.31-4.35,3.69-7.06,4.65-3.71,1.32-7.48,2.49-11.22,3.74-.93.31-2.11.43-2.73,1.07-2.92,3-6.75,3.19-10.42,3.15-3.2-.04-6.74.48-9.5-1.85-1.94-1.64-4.26-2.12-6.55-2.87-6.12-1.98-12.53-3.45-17.13-8.53-.12-.13-.4-.11-.72-.18-1.47,1.36-2.88,2.92-4.53,4.15-4.81,3.6-10.12,2.22-12.29-3.37-.93-2.41-1.11-5.11-1.6-7.69-.19-1.01-.31-2.04-.46-3.05ZM227.1,723.08c.93.09,1.56.22,2.19.21,1.32-.03,2.67.04,3.93-.27.69-.17,1.43-.91,1.75-1.58.36-.75.36-1.71.38-2.58.25-11.31.03-22.61-2.19-33.76-1.34-6.74-3.39-13.03-8.81-17.92-3.81-3.43-6.8-4.58-11.59-2.9-1.22.43-1.8,1.15-1.78,2.41.04,1.65.07,3.29.1,4.94.15,8.89.43,17.77.39,26.66-.03,7.13-.48,14.25-.71,21.38-.04,1.14.08,2.29.11,3.31h6.42c.59-7.32,1.38-14.29,1.66-21.29.26-6.57-.04-13.15-.05-19.73,0-1.97-.06-3.96.22-5.9.2-1.43,1.06-2.67,2.68-3,1.57-.32,2.9.25,3.71,1.55.87,1.38,1.74,2.85,2.14,4.4,1.97,7.69,3.18,15.5,2.32,23.46-.6,5.56-1.42,11.1-2.17,16.64-.17,1.26-.44,2.51-.69,3.97ZM181.3,723.05c-.53-3.39-1.06-6.5-1.51-9.63-1.34-9.25-2.53-18.51-.41-27.8.78-3.4,1.69-6.79,2.87-10.07.6-1.67,2.1-2.83,4.18-2.52,1.61.23,2.82,1.56,3.03,3.82.2,2.17.04,4.38.05,6.57,0,6.46-.17,12.93.07,19.39.23,6.46.87,12.9,1.36,19.35.02.29.28.56.45.88h5.93c.2-.48.35-.67.35-.87.02-1.09.05-2.19,0-3.28-.84-16.77-1.21-33.54-.24-50.32.04-.76.16-1.58-.05-2.29-.19-.66-.65-1.58-1.19-1.74-3.4-1.04-6.98-1.99-9.99.76-4.04,3.7-8.02,7.52-9.29,13.21-.55,2.46-1.26,4.89-1.75,7.36-2.14,10.72-2.26,21.57-2.09,32.44.02.98-.02,2.03.3,2.93.25.71.97,1.69,1.57,1.75,2.02.22,4.07.08,6.37.08ZM357.99,745.04c-.28-.14-.57-.28-.85-.43-.53.64-1.12,1.24-1.59,1.93-2.14,3.18-4.29,6.37-6.37,9.6-8.28,12.89-17.92,24.66-29.06,35.17-8.38,7.91-17.36,15.12-26.85,21.68-1.02.7-1.95,1.52-3.17,2.49.77.23.98.37,1.17.34.86-.16,1.73-.32,2.57-.57,11.13-3.26,21.66-7.84,31.41-14.16,7.23-4.68,13.05-10.69,17.36-18.14,4.97-8.57,8.97-17.58,12.09-26.98,1.2-3.61,2.19-7.29,3.28-10.94ZM117.5,816.19c.17-.32.35-.65.52-.97-1.73-1.28-3.44-2.59-5.19-3.83-19.58-13.88-36.63-30.29-50.23-50.15-3.34-4.88-6.52-9.87-9.81-14.79-.42-.63-1.04-1.12-1.56-1.68-.26,1.39-.13,2.46.16,3.49,3.49,12.41,8.34,24.26,14.91,35.38,4.21,7.12,9.87,12.84,16.79,17.35,6.64,4.33,13.66,7.95,21.09,10.7,4.4,1.62,8.88,3.02,13.32,4.52ZM164.39,720.78c-.93-18.74-.21-36.92,8.45-54.05-1.65-1.55-3.29-2.85-4.64-4.41-1.31-1.51-2.33-3.28-3.66-5.22-3.5,4.95-6.3,9.73-7.86,15.16-1.77,6.16-2.47,12.49-2.35,18.86.12,6.46.57,12.92.89,19.38.22,4.47,4.01,8.87,9.17,10.28ZM235.85,667.35c3.21,6.21,5.23,12.91,6.62,19.79,2.02,10.06,2.1,20.25,1.71,30.46-.04,1.02,0,2.05,0,3.64,3.88-1.88,6.54-4.17,8.51-7.25.33-.52.42-1.25.44-1.9.35-7.77.96-15.55.93-23.32-.04-10.71-2.41-20.87-8.81-29.77-.41-.57-.96-1.05-1.36-1.48-2.69,3.29-5.23,6.39-8.04,9.83ZM178.21,658.7c3.02-1.92,5.77-3.87,8.71-5.48,3.16-1.73,6.59-.77,10.37.04.12-5.64.25-10.82,0-16.38-1.43.08-2.53-.04-3.53.23-4.48,1.22-8.24-.2-11.52-3.13-1.54-1.38-2.82-3.04-4.23-4.57-.48-.53-.98-1.04-1.53-1.61-.38.44-.68.65-.77.93-1.65,5-3.32,9.99-4.88,15.01-.28.89-.37,2.03-.07,2.88.95,2.67,1.96,5.35,3.29,7.85.95,1.79,2.32,3.44,4.14,4.22ZM229.77,659.03c4.17-2.57,5.82-6.35,7.31-10.27.9-2.37.82-4.62-.06-7.01-1.42-3.91-2.6-7.91-3.91-11.86-.23-.68-.62-1.3-1.18-2.46-1.04,1.37-1.75,2.43-2.58,3.37-4,4.57-8.41,8.02-15.12,6.23-2.61-.7-3.18-.09-3.22,2.53-.05,3.84,0,7.68.05,11.52,0,.61.27,1.21.51,2.19,7.49-2.72,13.09.55,18.2,5.76ZM186.12,86.17c2.96,2.35,5.65,4.56,8.44,6.65,1.21.91,2.58,1.63,3.94,2.31,1.85.92,3.76,2.38,5.64,2.39,1.88,0,3.77-1.49,5.66-2.32,4.77-2.12,8.26-5.93,12.51-9.05-1.41-2.41-2.66-4.55-3.93-6.71-.73.13-1.28.17-1.78.33-3.61,1.19-7.23,1.62-10.99.67-1.01-.26-2.2-.17-3.24.08-3.31.8-6.51.47-9.72-.49-.81-.24-1.66-.36-2.6-.56-1.29,2.19-2.49,4.23-3.94,6.69ZM224.36,35.04c-1.21.61-1.87.9-2.5,1.27-5.1,2.99-10.48,4.32-16.37,2.82-.81-.21-1.76-.2-2.57,0-5.76,1.45-11.05.23-16.08-2.67-.71-.41-1.47-.73-2.72-1.35.45,5.03.86,9.25,5.15,12.22,7.56,5.23,15.73,4.49,24,2.89,1.76-.34,3.38-1.49,5.01-2.36,4.92-2.61,5.89-7.16,6.06-12.83Z" style="fill: #000; stroke-width: 0px;"/>
  <path d="M366.19,523.58c-.03,11.55-1.17,22.82-6.38,33.13-3.25,6.43-6.93,12.76-11.25,18.52-6,8-14.14,13.81-23.06,18.19-7.86,3.86-15.94,7.38-24.19,10.29-10.46,3.68-21.45,5.13-32.46,3.32-13.17-2.16-22.96-9.39-28.89-21.52-3.06-6.25-4.68-12.97-6.64-19.6-3.24-10.97-4.24-22.2-3.71-33.54.54-11.49,1.1-23,2.32-34.43,1.79-16.77,11.95-26.72,27.54-31.74,5.48-1.77,11.15-2.34,16.88-2.57,12.26-.49,24.2-2.72,35.86-6.5,6.03-1.96,11.29-5.35,16.26-9.18,1.27-.98,2.31-2.35,3.24-3.69,2.33-3.35,5.44-5.68,9.07-7.39,3.32-1.57,7.41.42,8.21,3.99.07.32.11.65.14.98.72,9.15,3.38,17.84,6.06,26.56,2.77,9.01,5.27,18.12,7.58,27.26,2.32,9.19,2.99,18.62,3.43,27.92ZM332.1,512.71c-1.94,2.4-2.49,4.96-2.59,7.56-.15,3.72-.1,7.46.04,11.19.25,6.99-.71,13.79-2.77,20.45-2.49,8.06-8.23,13.54-14.57,18.59-4.65,3.7-9.65,6.61-15.75,6.73-4.04.08-8.04.22-12.08.75-3.31.43-6.48,1.03-9.54,2.31-1.42.59-2.79,1.29-4.24,1.79-2.07.72-4.13.84-5.76-1-1.6-1.8-1.48-3.8-.5-5.83.9-1.88,1.87-3.72,2.76-5.61,1.86-3.91,2.53-7.97.98-12.13-2.88-7.74-2.62-15.51-.32-23.27,2.04-6.87,5.79-12.26,13.18-14.3,1.35-.37,2.62-1.13,3.85-1.84,5.4-3.15,11.29-4.72,17.41-5.75,4.11-.69,8.2-1.55,12.23-2.59,2.69-.69,5.37-1.59,8.3-3.47-1.6-.82-2.69-1.5-3.86-1.95-9.64-3.73-19.67-3.96-29.51-1.8-16.81,3.69-31.22,11.91-42.99,24.68-2.83,3.07-4.22,6.2-3.95,10.31.76,11.63,2.03,23.19,4.88,34.5,1.04,4.11,2.55,8.22,4.59,11.93,5.02,9.09,12.76,14.3,23.37,14.66,7.51.25,15-.36,22.16-2.6,6.69-2.08,13.24-4.68,19.7-7.41,18.52-7.82,30.3-21.86,36.88-40.59.87-2.48,1.21-4.83-.48-7.19-.74-1.04-.97-2.44-1.54-3.62-4.15-8.58-9.45-16.3-16.89-22.4-.9-.74-1.91-1.35-2.99-2.11ZM243.36,512.62c1.03-.81,1.81-1.36,2.53-1.98,18.21-15.86,39.44-21.84,63.23-18.96,4.31.52,8.71,1.59,12.69,3.3,13.16,5.67,24.33,13.9,31.8,26.49.49.83.69,2.1,2.09,2.27.14-.45.3-.75.31-1.05.01-.99,0-1.97-.06-2.96-.82-13.64-3.33-26.95-7.23-40.05-2.79-9.34-5.69-18.67-7.16-28.36-.07-.46-.38-.88-.63-1.42-1.86,2.35-3.25,4.82-5.27,6.52-5.38,4.52-11.2,8.49-17.79,11.08-8.73,3.43-17.89,5.22-27.14,6.49-6.85.94-13.75,1.51-20.57,2.57-8.62,1.34-16.02,5.27-21.92,11.71-1.5,1.64-2.72,3.77-3.38,5.89-1.72,5.48-1.97,11.21-2.01,16.92,0,.3.2.6.53,1.52ZM312.26,546.06c-.29-1.52-.53-4.06-1.28-6.44-1.9-6.02-6.96-12.59-16.52-11.63-1.63.16-3.26.44-4.86.8-2.46.55-4.86,1.37-7.34,1.81-1.95.34-3.28,1.34-4,3.03-.98,2.31-1.97,4.67-2.54,7.1-2.29,9.76.05,18.02,9.42,24.65,6.51,4.6,15.18,3.54,20.75-2.17,4.37-4.48,6.09-10.02,6.36-17.13Z" style="fill: #000; stroke-width: 0px;"/>
  <path d="M178.79,540.25c.53,9.07-1.53,18.28-4.15,27.38-1.61,5.58-3.22,11.22-5.59,16.5-6.88,15.34-19.19,22.97-35.82,23.48-12.48.38-24.44-2.27-35.78-7.51-6.57-3.03-13.27-5.87-19.51-9.48-16.58-9.59-26.68-24.46-32.52-42.3-3.28-10.02-3.53-20.48-2.86-30.97.88-13.79,4.06-27.09,8.11-40.23,2.23-7.23,4.5-14.46,6.38-21.78,1.12-4.34,1.58-8.85,2.22-13.29.71-4.95,4.6-7.04,9.06-4.79,2.88,1.45,5.64,3.12,7.45,5.82,4.24,6.32,10.58,9.84,17.23,12.74,8.2,3.58,16.96,5.34,25.79,6.54,5.43.74,10.92,1.06,16.4,1.42,9.15.59,17.77,2.85,25.53,7.86,9.15,5.91,14.25,14.44,15.72,25.12.7,5.1,1.02,10.26,1.37,15.39.41,6.02.72,12.04.96,18.06.13,3.18.02,6.36.02,10.05ZM85.85,506.66c1.56.68,2.71,1.22,3.89,1.69,5.23,2.11,10.73,3.18,16.27,4.01,6.24.93,12.22,2.6,17.73,5.8,1.51.88,3.14,1.58,4.79,2.14,4.62,1.56,8.01,4.5,10.08,8.89,4.15,8.79,5.27,17.9,2.05,27.18-1.67,4.81-1.32,9.24.85,13.68.87,1.77,1.76,3.54,2.62,5.31,1,2.06.99,4.05-.63,5.8-1.56,1.68-3.61,1.81-5.47.94-5.33-2.5-10.8-4.26-16.73-4.4-1.84-.04-3.68-.48-5.51-.41-5.65.24-11.04-.64-15.63-4.05-4.03-3-7.9-6.26-11.56-9.71-3.49-3.28-5.65-7.48-7.08-12.08-2.01-6.46-2.85-13.05-2.64-19.81.12-3.73.2-7.47.07-11.19-.1-2.71-.77-5.33-2.57-7.8-1.06.72-1.95,1.17-2.63,1.83-2.68,2.58-5.51,5.05-7.89,7.89-4.51,5.41-7.96,11.48-10.91,17.93-1.4,3.06-1.35,5.62-.26,8.46,5.02,13.03,12.08,24.51,23.86,32.7,7.48,5.21,15.82,8.51,24.16,11.89,9.5,3.85,19.44,5.38,29.64,5.28,10.73-.1,18.6-5.18,24.03-14.21,1.29-2.15,2.27-4.51,3.15-6.87,3.13-8.41,4.18-17.26,5.24-26.08.64-5.33.88-10.71,1.27-16.06.19-2.68-.93-4.8-2.69-6.81-9.68-11.11-21.66-18.72-35.46-23.68-11.39-4.09-22.95-4.64-34.67-1.84-2.49.59-5.02,1.33-7.37,3.55ZM52.51,523.62c.28.04.57.08.85.11.3-.44.65-.86.9-1.33,6.43-11.57,16.34-19.44,27.78-25.43,13.12-6.87,27.32-7.27,41.5-4.97,14.92,2.42,28.28,8.66,39.53,19,.57.52,1.33.82,2.25,1.38.17-1.03.38-1.57.34-2.09-.43-4.7-.77-9.4-1.4-14.07-.51-3.84-2.59-6.89-5.43-9.53-5.88-5.47-12.74-8.98-20.65-10.17-9.45-1.41-18.96-2.38-28.39-3.86-12.53-1.98-24.24-6.09-34.37-14.05-2.72-2.13-5.16-4.41-6.74-7.53-.26-.51-.71-.93-1.19-1.54-.26.57-.48.85-.52,1.15-1.47,10.15-4.54,19.9-7.43,29.68-3.85,13.01-6.29,26.25-7.01,39.8-.06,1.14,0,2.29,0,3.43ZM133.49,545.18c-.41-1.79-1.08-5.33-2.08-8.78-.96-3.33-2.76-5.99-6.77-6.08-.53-.01-1.04-.35-1.57-.46-3.43-.66-6.85-1.58-10.32-1.87-5.5-.46-9.71,2.07-12.81,6.54-5.99,8.66-4.51,22.15,3.22,29.28,5.12,4.72,12.99,5.91,18.92,2.3,7.06-4.29,11.37-10.48,11.41-20.93Z" style="fill: #000; stroke-width: 0px;"/>
  <path d="M204.62,743.86c3.2-2.21,7.01-2.9,11.06-2.55,3.51.3,6.58,1.59,9.21,3.95.98.88,1.97,1.77,3.07,2.47,1.83,1.17,3.93,1.18,5.46-.32,6.47-6.33,14.14-6.75,22.38-4.88,3.68.83,7.23,1.95,10.38,4.02,1.77,1.16,3.15.95,4.74-.29,1.28-1.01,2.72-1.87,4.2-2.57,5.21-2.47,10.27-2.18,14.86,1.41,1.97,1.54,3.68,3.43,5.35,5.31,1.67,1.88,3.12,3.96,4.68,5.93,1.14,1.43,1.12,2.81.51,4.58-2.65,7.62-7.37,13.86-12.55,19.88-2.71,3.15-5.28,6.39-6.92,10.34-2.05,4.93-5.84,6.26-10.71,4.05-2.08-.94-4.08-2.09-6.21-3.2-3.23,2.13-6.03,4.5-8.08,7.72-.88,1.39-1.73,2.82-2.78,4.06-2.74,3.23-6.34,3.87-10.06,1.91-.77-.41-1.57-.85-2.2-1.44-2.33-2.19-4.61-1.94-7.07-.2-2.23,1.58-4.64,2.92-6.87,4.52-4.92,3.52-9.66,3.52-14.53-.18-1.98-1.51-4.34-2.53-6.5-3.8-1.26-.74-2.49-.68-3.74,0-1.72.95-3.47,1.85-5.18,2.83-.95.55-1.83,1.2-2.73,1.83-3.74,2.6-7.55,2.66-11.41.27-1.68-1.04-3.3-2.16-4.97-3.22-1.39-.88-2.82-1.69-4.18-2.61-2.06-1.4-4-1.53-5.96.22-.73.65-1.59,1.17-2.45,1.65-3.84,2.13-7.46,1.49-10.31-1.88-.91-1.08-1.64-2.32-2.4-3.53-2.15-3.4-5-6.04-8.52-8.15-2,1.04-3.9,2.11-5.87,3.04-5.06,2.39-8.84,1.16-10.98-3.94-1.87-4.46-5.07-7.89-7.93-11.62-2.53-3.3-5.23-6.51-7.41-10.03-1.83-2.95-3.12-6.25-4.41-9.5-.33-.84-.07-2.29.49-3.04,2.34-3.17,4.71-6.36,7.41-9.21,6.36-6.74,13.17-7.36,20.94-2.22.46.3.94.58,1.35.94,1.46,1.31,2.83,1.13,4.45.12,5.56-3.45,11.77-4.67,18.21-5.01,4.87-.26,9.05,1.41,12.77,4.39,4.4,3.53,5.52,3.61,9.8-.26,4.34-3.92,9.34-5.19,14.95-4.09,2.11.41,4.11,1.38,6.67,2.26ZM127.49,765.9c3.04,3.76,6.37,5.86,9.97,7.44,5.42,2.38,10.94,4.52,16.45,6.69,6.71,2.64,13.72,2.69,20.73,1.89,3.74-.43,7.43-.72,11.13.07,3.97.85,7.91,1.8,11.86,2.74,3.54.85,7.03,1.54,10.7.55,4.34-1.16,8.71-2.24,13.13-3.03,3-.54,6.18-1.06,9.13-.62,4.83.73,9.61.8,14.41.38,2.81-.25,5.69-.69,8.34-1.6,5.18-1.78,10.32-3.75,15.3-6.02,3.36-1.53,6.47-3.65,9.6-5.64.92-.58,1.56-1.6,2.72-2.84-5.4-1.16-10.06-2.39-14.79-3.15-10.46-1.68-20.99-1.68-31.52-.56-6.65.71-13.29,1.57-19.94,2.37-3.07.37-6.09.5-9.11-.56-.94-.33-2.12,0-3.18.08-2.38.2-4.78.72-7.14.59-3.61-.2-7.19-.83-10.78-1.31-13.86-1.86-27.75-2.86-41.66-.69-4.95.77-9.82,2.04-15.36,3.21Z" style="fill: #000; stroke-width: 0px;"/>
  <path d="M204.3,423.27c-3.13-.19-6.19-.38-9.25-.56-8.25-.5-13.45-4.35-15.33-12.39-2.17-9.26-.83-18.19,5-25.94,4.51-5.99,10.55-9.12,18.32-8.01.86.12,1.76.08,2.62-.03,6.79-.92,12.29,1.59,16.77,6.48,6.03,6.59,7.59,14.66,7.01,23.25-.16,2.36-.78,4.78-1.65,7-2.24,5.72-6.61,8.89-12.7,9.52-3.6.37-7.22.48-10.78.71Z" style="fill: #000; stroke-width: 0px;"/>
  <path d="M281.59,398.09c-.13,2.43-.14,4.74-.39,7.03-.4,3.69-2.21,6.6-5.28,8.73-4.23,2.93-8.84,4.81-14,5.31-4.65.45-8.27-1.19-10.31-5.44-1.12-2.34-2.09-4.87-2.5-7.42-.97-5.9-.87-11.82,1.15-17.56,1.17-3.35,3.34-5.86,6.55-7.49,1.26-.64,2.52-1.39,3.54-2.35,2.44-2.31,5.31-2.7,8.27-1.8,6.61,2,11.05,6.22,12.24,13.24.44,2.59.5,5.24.73,7.74Z" style="fill: #000; stroke-width: 0px;"/>
  <path d="M126.81,398.12c.25-2.42.37-5.39.88-8.3,1.09-6.21,6.53-11.67,12.66-12.86,2.94-.57,5.66-.19,7.91,2.11.75.76,1.72,1.39,2.7,1.83,4.22,1.92,6.8,5.22,7.81,9.62,1.56,6.84,1.78,13.71-.6,20.45-.47,1.33-1.15,2.61-1.91,3.81-1.91,3.03-4.73,4.54-8.31,4.43-6.26-.18-11.78-2.43-16.63-6.32-2.63-2.11-3.85-5.03-4.17-8.31-.19-1.96-.21-3.94-.34-6.46Z" style="fill: #000; stroke-width: 0px;"/>
  <path d="M91.46,369.96c1.4.08,2.61.09,3.8.22,2.49.26,4.31,1.31,5.06,3.94.31,1.1,1.11,2.1,1.84,3.04,4.54,5.88,5.38,12.33,2.88,19.21-1.12,3.07-3.29,5.4-6.25,6.92-3.63,1.87-7.18,1.77-10.57-.54-2.26-1.54-4.43-3.21-6.65-4.8-2.46-1.77-3.88-4.16-4.13-7.16-.4-4.86.05-9.65,1.77-14.23,1.34-3.59,4.13-5.58,7.85-6.24,1.5-.26,3.05-.26,4.39-.36Z" style="fill: #000; stroke-width: 0px;"/>
  <path d="M316.21,370.01c9.51.03,13.22,3.21,14.4,12.02.36,2.7.45,5.46.4,8.19-.06,3.39-1.7,6.04-4.49,7.99-1.97,1.38-3.91,2.8-5.86,4.22-3.79,2.77-7.7,2.84-11.68.49-5.13-3.02-7.84-9.53-6.73-16.32.59-3.6,1.64-7.03,4.31-9.76.66-.68,1.26-1.6,1.48-2.5.72-2.99,2.82-3.98,5.55-4.2,1.09-.09,2.19-.1,2.63-.12Z" style="fill: #000; stroke-width: 0px;"/>
  <path d="M348.9,368.25c-.06-5.04,2.79-8.48,6.61-11.07,1.39-.94,3.59-1.18,5.35-.99,4.47.46,7.31,3.26,8.81,7.39,1.46,3.99.67,7.66-2.35,10.58-1.79,1.73-3.89,3.23-6.07,4.44-2.86,1.59-5.76,1.16-8.24-1.02-2.8-2.45-4.08-5.63-4.11-9.33Z" style="fill: #000; stroke-width: 0px;"/>
  <path d="M59.49,367.61c0,4.27-1.26,7.34-3.89,9.78-2.55,2.38-5.77,2.79-8.77,1.04-1.79-1.04-3.54-2.22-5.09-3.59-3.14-2.76-4.37-6.34-3.27-10.39,1.14-4.18,3.8-7.14,8.18-8.15,3.22-.74,6.09-.02,8.38,2.49,2.48,2.71,4.82,5.47,4.46,8.82Z" style="fill: #000; stroke-width: 0px;"/>
  <path d="M204.11,341.24c-5.59-.12-10.52-2.21-14.73-5.69-4.28-3.54-5.14-8.51-4.49-13.77.24-1.95.71-3.89,1.29-5.77,1.65-5.42,5.23-8.76,10.59-10.81,6.66-2.55,12.72-1.37,18.64,1.77,1.59.84,3.15,2.16,4.14,3.64,3.55,5.31,4.9,11.22,3.75,17.55-.75,4.12-3.06,7.26-6.77,9.23-3.88,2.06-7.79,4.12-12.42,3.85Z" style="fill: #000; stroke-width: 0px;"/>
  <path d="M136.77,321.99c.14-4.43,1.87-8.14,4.82-11.29,2.52-2.68,5.74-3.71,9.31-3.03,8.88,1.7,14.44,7.01,15.58,16.3.57,4.59-.96,8.46-4.72,11.27-3.09,2.31-6.31,4.39-10.35,4.67-4.8.34-8.34-1.6-10.44-5.91-1.3-2.66-2.45-5.39-3.5-8.16-.46-1.2-.49-2.57-.71-3.86Z" style="fill: #000; stroke-width: 0px;"/>
  <path d="M271.54,323.05c-1.04,4.38-2.61,9.77-6.39,14.05-3.15,3.57-7.52,3.6-11.58,2.03-2.9-1.12-5.72-2.89-8.05-4.97-4.66-4.17-4.35-9.55-2.46-14.91,2.43-6.92,7.78-10.39,14.73-11.61,3.32-.59,6.3.41,8.77,2.78,2.95,2.83,4.95,7.41,4.98,12.64Z" style="fill: #000; stroke-width: 0px;"/>
  <path d="M292.4,322.14c.57-2.45.92-4.85,1.69-7.11,1.79-5.3,6.41-8.11,12.07-7.58,4.94.46,8.22,3.72,9.32,9.16.48,2.36,1.05,4.7,1.65,7.03,1.12,4.32-.18,7.54-4.11,9.68-3.12,1.71-6.42,2.8-10.07,2.54-4.27-.31-7.28-2.44-8.74-6.4-.86-2.33-1.22-4.85-1.81-7.33Z" style="fill: #000; stroke-width: 0px;"/>
  <path d="M116.14,321.94c-.71,2.76-1.1,5.4-2.07,7.8-2.06,5.1-7.19,7.28-13.18,5.74-1.89-.49-3.75-1.27-5.48-2.18-3.81-2-5.17-5.19-4.21-9.36.62-2.67,1.26-5.33,1.89-7.99,1.19-5.03,4.47-8.08,9.18-8.52,5.17-.48,9.62,1.8,11.54,6.38,1.09,2.59,1.57,5.42,2.32,8.12Z" style="fill: #000; stroke-width: 0px;"/>
  <path d="M334.38,316.91c-.13-2.96,1.33-6.09,3.69-8.81,2.72-3.13,6.29-3.37,9.95-2.32,3.62,1.03,6.14,3.3,6.7,7.26.81,5.7-1.6,10.26-5.36,14.19-1.68,1.75-4.03,2.13-6.43,1.51-4.92-1.26-8.56-5.99-8.55-11.82Z" style="fill: #000; stroke-width: 0px;"/>
  <path d="M74.03,316.96c.03,5.63-3.14,9.99-8.05,11.6-2.75.9-5.33.42-7.25-1.67-3.02-3.28-5.12-7.07-5.17-11.72-.05-4.68,2.32-8.03,6.67-9.4,4.68-1.47,8.47-.17,11.22,3.72,1.7,2.4,2.67,5,2.59,7.46Z" style="fill: #000; stroke-width: 0px;"/>
  <path d="M24.5,302.33c.21-1.73.28-3.5.67-5.19.93-4.01,4.67-5.87,8.32-4.03,3.22,1.62,6.3,3.47,7.72,7.16,2.03,5.27-.44,11.5-5.61,13.77-2.87,1.26-6.14.36-8.06-2.49-1.85-2.75-3.1-5.77-3.04-9.21Z" style="fill: #000; stroke-width: 0px;"/>
  <path d="M383.88,301.86c.26,3.57-1.05,6.7-2.93,9.56-2.3,3.51-6.32,4.11-9.72,1.67-6.49-4.64-6.38-13.4.24-17.92.99-.67,1.98-1.36,3.05-1.9,4.16-2.09,7.98-.23,8.88,4.34.28,1.39.32,2.82.47,4.23Z" style="fill: #000; stroke-width: 0px;"/>
  <path d="M204.16,277.85c-3.62-.56-7.24-.9-10.74-1.72-3.36-.78-5.54-3.18-6.22-6.55-1.23-6.04.57-11.24,4.93-15.56.46-.46.99-.96,1.58-1.16,4.53-1.51,9.02-3.43,13.98-1.95.52.16,1.06.34,1.6.37,6.96.43,10.18,5,11.79,11.01.58,2.15.58,4.6.25,6.82-.55,3.65-2.81,6.25-6.47,7.07-3.51.79-7.12,1.13-10.7,1.67Z" style="fill: #000; stroke-width: 0px;"/>
  <path d="M262.1,268.79c.02,4.72-2.5,7.85-7.13,8.92-1.82.42-3.61.95-5.43,1.34-3.34.71-6.31.03-8.78-2.46-.92-.93-1.95-1.77-2.84-2.73-3.08-3.33-3.63-7.81-1-11.46,1.58-2.18,3.66-4.06,5.75-5.79,1.03-.85,2.56-1.3,3.93-1.48,7.57-.97,15.47,6.05,15.5,13.66Z" style="fill: #000; stroke-width: 0px;"/>
  <path d="M160.56,255.03c5.08-.71,13.01,7.47,12.58,12.32-.03.33,0,.66-.04.99-.5,5.65-7.66,11.62-13.25,10.83-2.7-.38-5.4-1.04-7.98-1.93-4.36-1.5-6.42-6.08-5.25-11.1,1.4-6.04,7.75-11.1,13.94-11.11Z" style="fill: #000; stroke-width: 0px;"/>
  <path d="M80.28,273.67c-4.83-.09-8.09-1.69-10.11-5.22-2.27-3.97-1.89-8.04.29-11.93,1.76-3.13,4.41-5.48,7.46-7.28,3.3-1.96,6.95-1.48,9.71,1.2,4.07,3.96,6.46,8.61,5.06,14.48-.95,3.96-3.49,6.53-7.39,7.65-1.89.54-3.84.84-5.02,1.09Z" style="fill: #000; stroke-width: 0px;"/>
  <path d="M327.5,273.59c-1.16-.28-3.47-.61-5.6-1.43-4.33-1.66-7.01-6.34-6.55-11.13.46-4.74,2.76-8.51,6.48-11.39,2.25-1.75,4.92-2.16,7.46-.91,5.22,2.58,9.25,6.34,10.27,12.41,1.16,6.92-3.93,12.66-12.07,12.45Z" style="fill: #000; stroke-width: 0px;"/>
  <path d="M38.93,244.5c.11-4.09.85-7.48,3.22-10.32,3.47-4.17,9.2-4.88,13.2-1.55.98.82,1.91,1.89,2.42,3.05,1.15,2.59,2.13,5.27,3,7.96,1.84,5.7-2.45,11.95-8.82,13-6.24,1.03-11.32-2.49-12.56-8.73-.25-1.29-.35-2.6-.45-3.41Z" style="fill: #000; stroke-width: 0px;"/>
  <path d="M369.53,244.22c-.18,5.07-1.63,9.37-6.53,11.72-3.96,1.9-9.39.77-12.74-2.61-3.32-3.35-3.84-7.26-1.68-11.75.61-1.27,1.04-2.64,1.41-4.01,1-3.79,3.49-6.09,7.23-6.84,3.79-.75,6.9.77,9.3,3.69,2.35,2.86,3,6.27,3.03,9.8Z" style="fill: #000; stroke-width: 0px;"/>
  <path d="M277.53,266.49c.64-1.75,1-3.5,1.87-4.94,1.05-1.77,2.48-3.32,3.83-4.91,1.26-1.49,2.96-2.21,4.89-2.4,5.82-.57,14.57,5.13,13.86,13.45-.41,4.79-3.36,8.13-8.12,8.93-2.16.36-4.32.71-6.48,1-3.66.5-6-.61-7.46-3.93-1-2.27-1.57-4.72-2.38-7.21Z" style="fill: #000; stroke-width: 0px;"/>
  <path d="M130.93,266.27c-.46,3.34-1.58,6.18-3.22,8.8-1.35,2.15-3.46,2.97-5.95,2.64-2.71-.36-5.43-.68-8.09-1.27-5.98-1.32-9.06-8.28-6.27-14.15,2.06-4.34,5.63-6.93,10.29-7.89,3.25-.67,6.07.23,8.17,2.94.94,1.21,2.09,2.3,2.81,3.62.92,1.67,1.52,3.53,2.25,5.31Z" style="fill: #000; stroke-width: 0px;"/>
  <path d="M44.69,219.17c-.11,3.82-4.64,8.68-8.41,8.85-1.04.05-2.23-.19-3.15-.68-4.64-2.48-6.48-9.13-3.91-13.72,2.33-4.16,7.19-5.11,10.86-2,2.34,1.98,4.69,4.04,4.6,7.54Z" style="fill: #000; stroke-width: 0px;"/>
  <path d="M380.46,217.86c-.13,4.29-1.94,7.16-4.92,9.33-1.41,1.03-3.11,1.24-4.7.57-2.89-1.22-5.33-3.07-6.55-6.08-.96-2.37-.79-4.74.89-6.8.9-1.1,1.85-2.17,2.92-3.09,4.2-3.6,9.72-2.15,11.63,3.04.41,1.11.56,2.32.72,3.02Z" style="fill: #000; stroke-width: 0px;"/>
  <path d="M306.21,219.82c-5.67.35-8.69-1.92-9.67-7.5-.94-5.31-.49-10.25,3.98-14.11,2.39-2.06,5.03-2.59,7.96-1.83,5.74,1.48,10.48,7.81,10.36,13.74-.1,4.88-2.62,8.04-7.42,9.06-1.7.37-3.47.43-5.21.63Z" style="fill: #000; stroke-width: 0px;"/>
  <path d="M102.16,219.75c-1.45-.11-2.54-.16-3.63-.28-8.6-.97-9.91-7.8-8.43-13.03,1.33-4.71,4.55-7.97,9.06-9.75,3.17-1.25,6.18-.8,8.85,1.61,4.71,4.26,5.76,13.6,2.03,18.66-2.11,2.85-5.02,3.25-7.88,2.8Z" style="fill: #000; stroke-width: 0px;"/>
  <path d="M87.2,178.16c-.57,2.32-.94,4.72-1.76,6.95-1.17,3.17-3.74,4.44-7.08,3.87-.65-.11-1.28-.41-1.92-.42-8.71-.22-12.58-11.78-8.75-19.11,2.37-4.53,7.2-5.65,10.83-4.06,5.87,2.57,8.45,6.15,8.68,12.78Z" style="fill: #000; stroke-width: 0px;"/>
  <path d="M321.19,177.93c.27-8.24,4.67-11.42,10.56-13.07,3.31-.93,6.04.51,8.09,3.12,3.83,4.89,2.93,14-1.8,18.07-3,2.58-6.75,3.07-10.49,2.95-2.22-.07-3.85-1.68-4.53-3.8-.76-2.37-1.23-4.84-1.82-7.26Z" style="fill: #000; stroke-width: 0px;"/>
  <path d="M138.18,229.95c-3,.02-5.89-.35-8.48-2.05-3.54-2.32-4.7-6.96-2.65-10.67,2.07-3.74,6.61-5.17,10.48-3.02,3.52,1.95,6.1,5.01,7.98,8.48,1.77,3.27-.29,6.68-4.06,7.24-1.07.16-2.18.02-3.27.02Z" style="fill: #000; stroke-width: 0px;"/>
  <path d="M269.78,230.01c-1.09-.05-2.2.05-3.25-.18-3.54-.77-5.3-4.1-3.55-7.28,1.85-3.36,4.41-6.29,7.76-8.25,3.85-2.26,8.4-.93,10.53,2.77,2.21,3.83,1.06,8.48-2.67,10.9-2.71,1.76-5.72,2.02-8.82,2.04Z" style="fill: #000; stroke-width: 0px;"/>
  <path d="M204.88,231.52c-4.9.05-7.89-2.45-7.74-5.99.15-3.63,3.54-6.35,7.66-5.95,1.26.12,2.58.59,3.68,1.22,2.08,1.19,3.01,3.14,2.78,5.55-.25,2.48-1.78,3.94-4.05,4.67-.93.3-1.92.41-2.32.5Z" style="fill: #000; stroke-width: 0px;"/>
  <path d="M237.72,220.16c1.18.55,3.06,1.02,4.43,2.13,2.79,2.25,2.21,6.42-1.08,7.82-1.65.7-3.62.98-5.43.92-2.78-.1-4.82-2.28-5-4.78-.19-2.59,1.42-4.77,4.16-5.56.73-.21,1.5-.28,2.92-.53Z" style="fill: #000; stroke-width: 0px;"/>
  <path d="M171.98,220.31c.72.22,1.94.41,2.98.95,1.89.98,2.92,2.65,2.83,4.82-.09,2.18-1.3,3.7-3.28,4.51-2.75,1.12-5.45.62-7.86-.87-2.51-1.55-2.79-4.96-.78-7.15,1.51-1.64,3.5-2.16,6.11-2.27Z" style="fill: #000; stroke-width: 0px;"/>
  <path d="M204.31,169.02c.55-.05,1.1-.06,1.64-.14,3.78-.56,6.7,1.05,8.81,3.95,3.42,4.7,4.35,10,2.72,15.59-1.21,4.16-4.25,6.74-8.44,7.33-3.21.46-6.6.49-9.79-.03-4.3-.7-7.28-3.44-8.42-7.79-1.38-5.27-.45-10.24,2.59-14.71,2.17-3.2,5.2-4.95,9.26-4.33.54.08,1.09.09,1.64.13Z" style="fill: #000; stroke-width: 0px;"/>
  <path d="M259.82,162.71c.19.02.53,0,.84.09,5.16,1.42,8.73,4.75,11.18,9.39,2.4,4.55-4.71,14.44-10.09,14.01-3.73-.3-6.41-1.9-7.81-5.43-1.67-4.22-1.58-8.6-.96-12.96.45-3.16,3.3-5.14,6.84-5.09Z" style="fill: #000; stroke-width: 0px;"/>
  <path d="M156.21,172.46c-.61,2.86-1.06,5.77-1.86,8.58-1.47,5.18-9.11,6.8-12.75,3.17-1.9-1.9-3.44-4.24-4.76-6.6-1.49-2.65-.94-5.54.99-7.68,2.1-2.33,4.57-4.41,7.19-6.14,1.32-.87,3.35-1.05,5.02-.94,3.06.2,5.19,2.5,5.55,5.56.15,1.3.03,2.62.03,3.94l.59.1Z" style="fill: #000; stroke-width: 0px;"/>
  <path d="M244.1,181.39c.09,1.42.21,2.3.18,3.17-.11,4.01-2.84,7.08-6.78,7.69-4.44.69-8.02-.7-9.96-4.1-2.11-3.69-1.81-7.33.7-10.78.84-1.15,1.6-2.37,2.55-3.42,2.02-2.23,4.56-3,7.46-2.15,2.96.87,5,2.73,5.56,5.87.25,1.4.23,2.84.29,3.71Z" style="fill: #000; stroke-width: 0px;"/>
  <path d="M164.3,181.85c.06-.99.09-1.97.18-2.95.34-3.72,2.33-6.15,5.79-7.12,3.08-.86,5.86.16,8.03,3.03.86,1.13,1.71,2.28,2.47,3.48,2.35,3.7,1.87,8.41-1.11,11.52-2.66,2.77-8.17,3.46-11.6,1.46-2.48-1.45-3.72-3.65-3.92-6.46-.07-.98-.01-1.97-.01-2.95.06,0,.11,0,.17,0Z" style="fill: #000; stroke-width: 0px;"/>
  <path d="M132.12,155.66c.05,5.71-4.84,9.1-10.18,6.98-4.3-1.71-6.5-5.23-7.01-9.61-.6-5.13,4.68-8.97,9.79-7.38,3.74,1.16,7.38,6.08,7.41,10.02Z" style="fill: #000; stroke-width: 0px;"/>
  <path d="M283.49,163.15c-5.77.38-8.6-5.79-6.55-10.46.97-2.21,2.76-4.25,4.62-5.85,2.64-2.28,6.54-2.07,9.18-.06,2.6,1.98,3.45,5.19,2.28,8.58-1.67,4.86-5.19,7.73-9.52,7.79Z" style="fill: #000; stroke-width: 0px;"/>
  <path d="M219.51,134.85c-.06.53-.11,1.63-.32,2.7-1.2,6.27-7.22,9.48-13,6.79-1.44-.67-2.42-.75-3.91-.05-5.8,2.73-11.74-.39-13.02-6.69-.89-4.37-.22-8.52,2.17-12.3,2.63-4.17,6.13-5.33,10.71-3.57,1.43.55,2.65.58,4.09.02,4.64-1.79,8.03-.64,10.74,3.5,1.79,2.74,2.56,5.78,2.52,9.61Z" style="fill: #000; stroke-width: 0px;"/>
  <path d="M227.62,132.7c.66-2.11,1.07-4.04,1.86-5.81,1.54-3.45,5.31-5.21,9-4.38,1.95.44,3.56,1.59,3.96,3.53.36,1.75.53,3.78-.01,5.43-1.23,3.76-4.21,6.37-7.23,8.7-1.95,1.51-4.77.67-5.85-1.63-.86-1.83-1.18-3.91-1.72-5.85Z" style="fill: #000; stroke-width: 0px;"/>
  <path d="M180.83,132.78c-.58,2.09-.85,3.85-1.56,5.4-1.27,2.77-4.29,3.64-6.52,1.66-2.35-2.08-4.59-4.45-6.26-7.08-2.28-3.59-1.05-8.12,2.14-9.77,3.25-1.68,8.2-.21,9.95,3.26,1.06,2.1,1.57,4.47,2.26,6.54Z" style="fill: #000; stroke-width: 0px;"/>
  <path d="M262.65,123.64c-.02,5.3-6.02,10.37-11.24,9.5-3.04-.51-4.57-2.27-4.66-5.38-.13-4.89,3.91-9.65,8.79-10.35,3.98-.57,7.12,2.19,7.11,6.23Z" style="fill: #000; stroke-width: 0px;"/>
  <path d="M161.62,127.32c0,3.9-2.24,6.06-6.17,5.93-4.46-.15-9.12-4.44-9.62-8.87-.47-4.14,2.59-7.37,6.65-7.03,4.82.4,9.14,5.12,9.14,9.97Z" style="fill: #000; stroke-width: 0px;"/>
  <path d="M301.34,552.81c0,5.69-4.53,10.44-10.07,10.54-5.48.1-10.19-4.91-10.16-10.8.03-5.39,4.69-10.24,9.95-10.34,5.65-.1,10.28,4.67,10.28,10.6Z" style="fill: #000; stroke-width: 0px;"/>
  <path d="M127.27,552.64c-.02,5.85-4.42,10.62-9.88,10.69-5.59.07-10.39-4.84-10.35-10.61.03-5.69,4.61-10.45,10.1-10.5,5.46-.05,10.15,4.77,10.12,10.42Z" style="fill: #000; stroke-width: 0px;"/>
  <path d="M237.66,776.44c-8.18.84-16.37,1.68-24.55,2.53-.11.01-.22.04-.33.04-6.1-.05-12.24.28-18.3-.25-10.6-.92-21.15-2.43-31.84-1.97-2.49.11-5.03-.36-7.5-.83-2.6-.5-3.8-1.95-3.68-3.89.12-1.83,1.35-3.16,3.86-3.32,5.91-.36,11.86-.89,17.75-.57,6.78.37,13.63,1.05,20.23,2.55,7.35,1.67,14.35,1.73,21.72.02,6.59-1.53,13.45-2.19,20.23-2.56,5.89-.32,11.84.19,17.75.54,2.63.16,4,1.63,4.02,3.53.01,1.77-1.2,3.25-3.58,3.65-2.91.49-5.87.69-8.81.86-2.3.13-4.61.03-6.91.03-.01-.12-.02-.24-.03-.36Z" style="fill: #000; stroke-width: 0px;"/>
</svg>