<?xml version="1.0" encoding="UTF-8"?>
<svg id="Layer_1" data-name="Layer 1" xmlns="http://www.w3.org/2000/svg" viewBox="0 0 803.57 900">
  <path d="M158.93,220.49c.62-1.2,1.36-2.36,1.84-3.61,8.33-21.75,21.36-40.35,37.89-56.6.45-.44.87-.91,1.33-1.33,19.64-17.87,34.9-38.85,45.49-63.26,2.74-6.31,6.36-12.24,9.33-18.46,10.48-21.98,27.96-35.49,51.14-41.63,13.61-3.6,27.51-6.12,41.25-9.26,14.75-3.38,28.12-9.31,39.03-20.34,7.63-7.72,22.79-8.09,30.29-.5,12.36,12.52,27.67,18.31,44.35,21.96,14.97,3.27,30.02,6.52,44.64,11.04,18.3,5.66,31.91,17.67,40.83,34.72,6.1,11.66,12.29,23.29,17.99,35.16,7.35,15.31,17.25,28.68,29.19,40.66,6.86,6.88,13.65,13.84,20.24,20.98,12.37,13.39,21.61,28.78,28.39,45.67.67,1.67,1.47,3.28,3.4,4.92.61-1.64,1.3-3.25,1.8-4.93,6.25-20.88,15.64-40.02,31.62-55.28,13.96-13.33,30.15-22.01,50.01-21.6,18.58.39,32.19,9.61,40.89,25.57,12.68,23.27,17.03,49.1,20.52,74.87,2.9,21.4,3.64,43.09,5.83,64.6,1.62,15.89,4.19,31.69,6.08,47.56,2.95,24.74.6,49.18-5.51,73.19-4.06,15.96-12.13,29.56-27.16,37.89-9.68,5.36-20.15,8.41-31.13,7.54-15.9-1.26-31.73-3.51-47.58-5.38-2.95-.35-5.86-1.16-8.81-1.33-5.31-.31-5.15.25-4.95,5.45.47,12.32.73,24.68.3,37-.16,4.7-2.7,9.28-3.63,14.02-.39,1.97-.18,5.14,1.07,6.16,6.44,5.26,9.33,12.41,11.89,19.89,5.61,16.33,7.43,33.26,8.43,50.38,2.54,43.26,1.24,86.52-1.59,129.66-1.2,18.34-5.42,36.57-9.26,54.63-4.54,21.4-16.61,32-38.17,35.1-14.4,2.07-28.83,3.87-43.22,6.01-1.53.23-3.66,1.66-4.12,3-10.74,31.57-36.24,43.42-65.97,49.66-18.34,3.85-36.15,1.5-53.64-4.68-6.06-2.14-12.2-4.03-18.33-5.95-6.7-2.1-13.26-1.5-19.79,1-3.17,1.21-4.26,2.73-3.47,6.34,2.69,12.26-2.14,22.84-12.17,27.21-6.56,2.86-13.09,1.84-19.74-.2-2.57-.78-5.79-.78-8.35.02-8.69,2.74-17.1,3.38-24.48-2.84-7.58-6.39-9.44-14.94-7.26-24.32.78-3.38-.23-4.9-3.2-6.08-6.65-2.62-13.35-3.3-20.22-1.1-9.1,2.91-18.09,6.27-27.32,8.69-33.13,8.68-63.34,1.84-90.66-18.28-9.37-6.9-15.07-16.7-18.8-27.58-1.26-3.67-3.22-5.03-7.17-5.16-6.39-.21-12.78-1.09-19.12-2.01-7.28-1.05-14.5-2.6-21.78-3.67-21.41-3.17-33.93-13.72-38.26-35.02-4.34-21.31-8.83-42.84-10.15-64.46-2.05-33.6-2.1-67.36-1.75-101.04.21-20.3.92-40.8,6.71-60.59,1.32-4.51,2.24-9.27,4.38-13.38,2.69-5.17,6.57-9.71,9.65-14.7,1.08-1.76,2.37-4.46,1.75-6.02-6.66-16.83-5.63-34.14-3.63-51.51.63-5.43.42-6.18-5.11-5.6-5.75.6-11.4,2.14-17.14,2.83-12.28,1.47-24.57,3.45-36.9,3.81-30.22.87-51.08-14.11-59.53-43.14C.24,402.09-1.49,376.65,1.2,350.94c3.47-33.19,6.66-66.4,10.15-99.59,2.66-25.33,7.55-50.25,16.31-74.22,3.25-8.9,7.15-17.48,14.39-24.41,12.63-12.09,27.27-16.27,44.07-12.97,23.49,4.61,40.02,19.16,52.95,38.41,7.75,11.54,13.09,24.24,16.96,37.57.46,1.59,1.05,3.14,1.58,4.71.44.02.88.03,1.32.05ZM152.96,500.48c-.28.88-.53,1.31-.55,1.75-.28,7.61-.63,15.22-.7,22.83-.01,1.28.91,2.96,1.94,3.81,11.09,9.09,18.8,20.47,23.56,33.93,5.84,16.5,9.49,33.47,10.66,50.93,1.05,15.74.09,31.32-4.69,46.51-1.5,4.76-3.99,8.88-8.8,10.24-2.63.75-6.61.44-8.52-1.15-1.63-1.35-1.7-5.26-1.52-7.97.27-4,2.21-8,1.98-11.92-1.02-18.13-1.62-36.36-4.18-54.29-1.88-13.21-6.31-26.09-10.1-38.98-1.37-4.66-4.75-8.36-10.57-10.81-1.56,5.65-3.48,10.92-4.44,16.36-7.39,41.84-7.18,83.87-3.38,126.05.87,9.62,3.98,17.23,11.19,23.76,7.94,7.19,16.7,10.29,27.17,8.14,4.9-1.01,9.67-2.8,14.6-3.51,2.1-.3,5.39.61,6.46,2.15,1.04,1.51.86,5.26-.35,6.72-10.2,12.19-26.59,24.18-47.64,16.08-.69-.26-1.47-.3-2.35-.47-.29.77-.77,1.39-.67,1.88,2.88,13.46,5.69,26.93,8.91,40.31.39,1.63,2.88,3.5,4.7,3.91,12.98,2.95,26.05,5.49,39.06,8.3,3.48.75,4.48-.53,5.3-3.83,1.11-4.46,2.47-9.25,5.15-12.83,4.92-6.57,14.16-4.55,16.53,3.32,1.12,3.71,1.64,7.69,1.8,11.57.38,9.47,3.21,18.15,7.68,26.39,5.27,9.73,15.54,15.04,26.41,12.78,5.12-1.07,10.46-2.84,14.78-5.68,10.33-6.78,20.14-14.34,30.1-21.66,2.71-1.99,5.5-3.49,8.5-1.03,3.01,2.47,2.35,5.68.51,8.49-5.57,8.5-11.31,16.89-16.97,25.32-.8,1.19-1.56,2.4-2.79,4.3,2.3.3,3.62.62,4.96.63,9.71.14,19.43.16,29.14.34,4.06.07,8.12.48,12.19.67,5.89.27,11.82,1.03,17.66.58,12.32-.96,23.85,5.16,29.49,16.11,2.27,4.4,4.9,8.64,7.62,12.78,2.42,3.7,12.61,5.43,15.64,2.26,3.31-3.46,6.58-7.41,8.39-11.75,5.62-13.54,17.51-20.89,31.93-19.24,4.29.49,8.7.22,13.04-.02,5.46-.3,10.89-1.19,16.34-1.36,9.71-.3,19.43-.24,29.14-.39,1.27-.02,2.54-.42,4.66-.79-1.37-1.86-2.2-2.92-2.96-4.03-5.66-8.25-11.36-16.47-16.91-24.8-1.9-2.85-3.17-6.2-.03-8.95,3.33-2.92,6.3-.89,9.22,1.31,8.51,6.41,16.8,13.18,25.78,18.85,5.72,3.61,12.29,6.5,18.86,7.97,10.23,2.29,19.06-1.58,24.85-10.37,5.12-7.78,8.34-16.45,8.87-25.97.24-4.37.84-8.74,1.59-13.05.72-4.2,3.19-7.2,7.46-8.16,4.28-.96,8.1.62,10.16,4.25,2.11,3.72,3.61,7.94,4.56,12.13.76,3.34,1.84,4.56,5.31,3.81,12.25-2.63,24.51-5.22,36.82-7.53,4.44-.83,7.08-2.96,8-7.32,2.53-11.95,5.09-23.89,7.56-35.85.22-1.09-.11-2.29-.18-3.37-5.08.98-9.63,2.37-14.24,2.64-14.78.84-25.53-7.03-35.13-17.07-2.23-2.33-3.52-5-1.73-8.06,1.84-3.14,4.8-2.94,7.9-2.14,5,1.29,9.98,2.82,15.07,3.61,17.26,2.69,33.96-10.23,36.18-27.51,3.9-30.44,4.27-60.99,2.01-91.52-1.12-15.11-3.84-30.12-6.1-45.13-.52-3.43-2.13-6.69-3.24-10.02-.54-.18-1.08-.36-1.63-.54-2.58,2.95-5.95,5.53-7.57,8.94-3,6.33-5.57,12.99-7.27,19.78-5.66,22.6-8.15,45.67-8.38,68.93-.06,6.31,1.8,12.61,2.29,18.96.2,2.56-.07,6.21-1.66,7.56-1.83,1.55-5.96,2.29-8.01,1.25-3.24-1.65-6.49-4.62-8.06-7.85-2.22-4.56-3.3-9.8-4.17-14.86-5.17-30.02-.42-59,9.84-87.29,4.58-12.65,12.28-23.17,22.66-31.78,1.14-.95,1.75-3.14,1.74-4.75-.03-6.22-.42-12.43-.65-18.65-.06-1.51,0-3.03,0-4.48-.68-.12-1.01-.28-1.28-.2-1.04.32-2.09.66-3.09,1.08-11.73,4.93-23.34,4-34.63-1.18-1.93-.89-3.89-3.81-4.07-5.94-.28-3.32,2.77-4.46,5.81-4.85,4.2-.53,8.43-.91,12.56-1.77,7.48-1.55,14.27-4.53,19.9-9.95,3.64-3.51,4.74-7.19,2.26-11.77-1.87-3.44-3.83-6.85-5.39-10.44-5.43-12.45,2.8-24.1,16.29-23.04,28.53,2.24,56.68-.65,84.53-6.61,18.76-4.01,23.4-7.59,28.4-29.96.48-2.13.79-4.35.79-6.53-.02-17.55,1.18-35.23-.51-52.62-3.43-35.39-8.39-70.63-12.85-105.92-1.12-8.86-2.16-17.79-4.27-26.43-2.92-11.96-8.48-22.62-19.2-29.68-7.25-4.78-23.11-5.29-29.21-.74-21.33,15.86-37.69,35.34-41.09,62.68-4.06,32.64-7.69,65.36-10.35,98.14-1.17,14.41-2.18,28.69-5.88,42.7-1.51,5.73-4.8,9.1-9.71,9.32-4.97.23-9.31-3.08-10.87-8.65-.67-2.38-1.09-4.95-.98-7.41.38-9.08,1.13-18.14,1.53-27.21.23-5.08.04-10.19.04-15.5-1.58.14-2.24.06-2.78.27-17.6,6.66-33.89,2.25-49.76-5.83-2.87-1.46-5.16-3.47-3.92-7.01,1.15-3.29,4.05-3.54,7.05-3.04,3.71.61,7.4,1.36,11.13,1.86,11.99,1.59,23.42.22,33.98-6.23,3.39-2.07,5.22-4.59,5.18-8.71-.11-10.97.2-21.94.01-32.91-.4-22.93-7.41-43.41-23.13-60.52-.88-.96-1.93-1.76-3.46-3.14-.7,2.25-1.18,3.69-1.59,5.15-2.22,7.82-5.55,15.19-11.75,20.53-3.95,3.4-8.75,5.92-13.45,8.29-2.87,1.45-6.32,1.49-8.39-1.78-1.9-3.01-.49-5.69,1.56-8.12,1.31-1.56,2.64-3.11,3.86-4.74,6.09-8.23,10.03-17.3,10.93-27.61.57-6.54-1.51-11.67-6.31-16.37-12.31-12.08-24.07-24.69-32.87-39.71-.35-.6-1.06-1-2.01-1.85-1.67,3.03-3.07,5.78-4.67,8.41-7.71,12.77-19.61,18.02-33.97,18.17-1.97.02-4.98-2.29-5.61-4.17-.47-1.38,1.85-4.12,3.47-5.68,1.26-1.21,3.39-1.52,5.11-2.28,21.91-9.6,27.19-30.82,20.15-51.59-.99-2.91-3.32-5.86-5.83-7.66-5.71-4.1-11.7-7.92-17.97-11.09-15.13-7.65-23.19-6.13-34.7,6.2-5.34,5.72-10.06,12.04-15.54,17.62-1.59,1.62-5.51,2.84-7.17,1.97-1.67-.88-2.83-4.73-2.49-7.02.68-4.43,2.33-8.77,4-12.99,6.05-15.33,15.63-27.08,32.5-31.2.19-.05.28-.49.64-1.18-1.73-.44-3.33-.98-4.96-1.22-17.33-2.58-34.66-5.17-52.01-7.62-4.88-.69-9.02.84-11.58,5.38-1.38,2.45-2.8,4.91-3.92,7.49-1.46,3.37-3.82,5.41-7.49,5.45-3.66.04-6.15-1.89-7.58-5.29-.85-2.02-1.8-4.01-2.86-5.92-3.68-6.63-7.87-8.2-15.26-6.56-6.25,1.39-12.6,2.43-18.95,3.3-9.93,1.37-19.9,2.43-29.84,3.7-1.72.22-3.4.83-6.09,1.52,1.58.89,2.05,1.32,2.59,1.44,22.86,5.24,32.5,29.8,35.25,45.18.31,1.76-1.26,4.88-2.81,5.65-1.56.78-4.5-.07-6.27-1.15-1.91-1.16-3.15-3.42-4.7-5.19-4.87-5.52-9.62-11.16-14.67-16.51-7.39-7.84-16.35-9.69-26.17-5.41-5.86,2.56-11.28,6.11-17.04,8.91-13.58,6.61-15.74,19.04-15,31.82.97,16.9,10.85,27.84,26.63,33.58,3.13,1.14,5.99,2.84,5.03,6.76-.95,3.84-4.27,4.11-7.57,3.9-15.86-1.02-27.7-8.13-34.6-22.79-.6-1.27-1.55-2.37-2.61-3.96-10.43,17.01-23.54,30.65-36.67,44.34-2.41,2.52-3.78,6.96-3.91,10.57-.47,12.67,4.94,23.38,12.59,33.11,1.16,1.48,2.75,2.81,3.33,4.49.61,1.75,1,4.36.11,5.63-1.03,1.48-3.49,2.35-5.46,2.65-1.55.24-3.36-.6-4.93-1.26-12.28-5.09-18.87-14.98-22.74-27.15-.59-1.85-1.17-3.7-1.88-5.96-1.24.9-1.96,1.25-2.45,1.8-10.4,11.82-18.48,24.83-21.63,40.58-3.69,18.5-2.55,37.16-2.11,55.78.05,2.23,2.39,5.08,4.46,6.48,10.72,7.21,22.73,8.35,35.2,6.53,3.72-.54,7.42-1.75,11.12-1.7,2.04.03,5.23,1.64,5.75,3.23.53,1.61-1.04,5.13-2.67,6.03-15.58,8.54-31.83,13.28-49.56,6.95-.94-.33-2-.33-3.71-.59,0,5.58-.18,10.72.04,15.84.39,9.23,1.34,18.45,1.36,27.68,0,3.56-1.35,7.39-3.02,10.61-1.85,3.57-5.53,5.02-9.63,4.5-4.13-.53-7.23-2.93-8.1-6.89-2.25-10.23-4.84-20.49-5.86-30.88-3.21-32.74-5.6-65.56-8.62-98.32-2.76-29.99-14.96-54.95-39.45-73.49-11.63-8.8-27.5-8.71-38.08,1.45-9.17,8.81-14.18,19.88-15.92,32.3-4.95,35.39-10.67,70.71-14.1,106.25-2.34,24.25-2.26,48.84-1.61,73.24.61,23.16,9.18,31.82,31.25,36.06,27.34,5.25,54.84,8.33,82.72,5.92,6.68-.58,11.36,2.22,14.98,7.68,4.97,7.5,1.77,14.06-1.96,20.63-6.41,11.3-5.43,15.59,5.99,21.91,4.19,2.32,8.93,3.79,13.58,5.06,3.74,1.03,7.72,1.24,11.61,1.7,3.17.38,6.02,1.23,6.49,4.91.46,3.65-2.06,5.27-4.99,6.48-11.2,4.63-22.46,5.37-33.83.61-1.24-.52-2.55-.85-3.89-1.29ZM401.47,38.38c6.81-5.31,6.76-7.54-.08-12.14-6.13,5.87-6.14,6.42.08,12.14Z" style="fill: #000; stroke-width: 0px;"/>
  <path d="M555.68,379c0,16.75.64,33.54-.25,50.24-.49,9.27-2.95,18.56-5.56,27.55-4.54,15.65-15.19,24.88-31.56,26.89-14.76,1.81-29.51,3.68-44.32,4.9-5.84.48-11.9-.3-17.69-1.41-2.16-.41-5.34-3.4-5.34-5.23,0-2.28,2.55-4.8,4.45-6.77.94-.98,2.92-.93,4.4-1.43,12.9-4.33,25.79-8.71,38.71-12.99,3.48-1.15,2.16-3.5,1.76-5.74-4.19-23.75-9.39-47.38-12.3-71.29-4.04-33.3-2.52-66.68,4.09-99.64,1.62-8.09,4.28-16.05,7.24-23.77,1.63-4.27,4.45-8.31,7.52-11.73,2.2-2.45,2.88-4.19,1.02-6.82-3.88-5.48-7.35-11.32-11.74-16.37-4.89-5.61-10.37-5.93-15.46-.53-3.74,3.97-6.91,9.03-8.65,14.17-2.44,7.21-3.29,14.95-4.87,22.45-.97,4.59-1.8,9.24-3.13,13.73-1.05,3.55-3.5,6.09-7.61,5.66-3.8-.4-5.89-3.07-6.38-6.57-3.05-21.49.26-41.76,13.79-59.19,12.91-16.63,34.16-17.78,49.54-3.4,8.98,8.4,16.05,18.37,19.07,30.27,7.35,28.99,14.89,57.99,20.48,87.34,3.09,16.18,2.41,33.07,3.42,49.64-.21.01-.42.02-.64.03ZM515.3,456.85c1.16-1.8,1.65-2.26,1.78-2.81,2.89-12.18,5.78-24.36,8.52-36.58.32-1.42-.22-3.07-.53-4.58-1.94-9.5-4.35-18.92-5.81-28.48-4.09-26.82-.17-53.78-1.01-80.67-.18-5.8,1.13-11.16,4.75-15.87.63-.82,1.34-2.12,1.12-2.96-1.95-7.3-4.11-14.54-6.21-21.8-.51.04-1.02.07-1.52.11-.78,1.46-1.82,2.84-2.31,4.39-2.25,7.15-5.07,14.23-6.37,21.56-6.53,36.86-4.06,74.02-2.12,111.02.82,15.5,5.28,30.8,8.06,46.2.55,3.04.97,6.09,1.65,10.47Z" style="fill: #000; stroke-width: 0px;"/>
  <path d="M247.01,381.41c-2.03-47.22,10.82-91.93,22.91-136.74,3.51-13,10.49-24.13,20.4-33.24,15.34-14.1,36.44-12.79,49.19,3.71,13.48,17.44,16.95,37.67,13.72,59.19-.56,3.69-2.72,6.46-6.82,6.61-3.87.14-6.22-2.33-7.13-5.71-1.41-5.28-2.28-10.71-3.45-16.06-1.6-7.34-2.93-14.75-5-21.95-1.72-5.96-5.1-11.1-10.71-14.36-3.97-2.3-8.25-2.58-11.19.97-5.15,6.23-9.71,12.97-14.26,19.67-.54.79.23,2.84.9,4.02,3.45,6.05,8.06,11.63,10.45,18.06,7.52,20.18,9.24,41.48,10.67,62.79,2.42,36.15-2.17,71.63-9.73,106.87-1.48,6.89-2.69,13.84-4.27,20.71-.68,2.95.18,4.17,3.02,5.09,13.55,4.37,27.02,8.97,40.53,13.47,3.5,1.17,6.44,2.98,6.32,7.13-.12,4.11-3.22,5.69-6.68,5.95-6.84.5-13.76,1.21-20.56.7-12.16-.91-24.26-2.73-36.39-4.05-20.37-2.22-31.3-10.65-36.22-30.51-3.03-12.22-4.51-24.94-5.5-37.53-.9-11.52-.19-23.17-.19-34.77ZM286.95,456.72c1.01-1.59,1.38-1.94,1.46-2.34,3.04-16.47,7.68-32.84,8.71-49.43,1.81-29.18,1.84-58.5,1.77-87.76-.04-16.8-2.93-33.38-9.43-49.08-.72-1.73-1.81-3.3-2.73-4.94-.44.05-.89.1-1.33.15-2.09,6.84-4.33,13.64-6.15,20.55-.35,1.34.94,3.1,1.45,4.68,1.41,4.39,3.75,8.72,4.03,13.18.71,11.23.22,22.53.71,33.78.9,20.72,1.6,41.61-3.83,61.66-4.13,15.24-3.26,29.49,1.2,44.06.32,1.05.51,2.13.79,3.19,1.01,3.72,2.03,7.44,3.36,12.3Z" style="fill: #000; stroke-width: 0px;"/>
  <path d="M430.98,729.54c-5.63-.39-11.05-1.64-16.22-.94-9.45,1.27-18.78.04-28.15.06-7.66.02-15.32.68-22.99.87-12.53.3-22.36-5.01-29.95-14.79-14.43-18.56-17.66-39.73-13.93-62.25,1.3-7.84,3.67-15.55,6.05-23.16,5.93-18.94,24.3-25.73,40.62-14.37,6.38,4.44,11.26,11.11,16.55,17,2.7,3.01,4.54,6.79,7.25,9.79,7.45,8.23,16.03,8.08,23.33-.35,2.45-2.83,4.12-6.34,6.63-9.09,5.54-6.09,10.63-13.01,17.28-17.59,16.11-11.09,34.3-4.04,40.2,14.64,5.86,18.55,9.9,37.25,5.5,56.8-2.56,11.39-7.58,21.52-15.09,30.41-7.18,8.5-16.33,12.94-27.53,12.98-3.29.01-6.57,0-9.56,0ZM401.24,693.43c10.04-2.19,19.65-4.45,27.7-10.48,8.48-6.35,16.61-13.18,24.89-19.8,1.95-1.56,4.03-3,5.83-4.72,3.54-3.36,3.82-8.61.78-11.22-2.91-2.5-6.87-1.55-10.16,2.32-2.73,3.22-5.4,6.5-8.34,9.52-16.5,16.96-42.18,21.81-63.16,12.1-10.19-4.72-18.33-11.86-25.1-20.69-3.74-4.88-7.85-6-11-3.03-3.11,2.94-2.42,8.16,1.86,11.83,2.6,2.23,5.61,3.98,8.31,6.1,6.26,4.91,12.89,9.46,18.57,14.98,8.52,8.28,19.44,9.98,29.82,13.07ZM434.86,698.21c5.43,4.64,12.33,5.94,16.48,3.55,7.03-4.06,8.74-7.73,6.86-16.25-7.85,4.27-15.46,8.41-23.34,12.7ZM345.15,685.57c-2.07,8.13-.53,11.6,6.45,15.95,4.3,2.69,11.25,1.52,16.9-3.26-7.89-4.29-15.51-8.43-23.34-12.69Z" style="fill: #000; stroke-width: 0px;"/>
  <path d="M77.02,382.84c-.52,5.91-.95,11.32-1.5,16.73-.27,2.64-.23,5.52-1.32,7.82-.92,1.94-3.26,4.41-4.98,4.41-1.75,0-4.62-2.46-5.05-4.29-1.36-5.91-2.6-12.05-2.51-18.08.59-42.43,1.33-84.85,2.5-127.27.22-7.89,1.94-15.9,4.17-23.51,1.48-5.08,4.4-10.13,7.87-14.16,6.6-7.64,17.05-8.57,25.01-2.38,10.77,8.39,17.54,19.45,19.55,33.13.27,1.84.26,3.78,0,5.62-.55,3.87-2.41,6.91-6.6,7.5-4.01.56-6.31-1.94-8.1-5.18-2.94-5.34-5.89-10.67-9.05-15.88-1.07-1.76-2.79-3.12-4.97-5.49-1.5,3.42-3.12,5.82-3.6,8.43-1.72,9.37-3.64,18.77-4.42,28.24-2.07,24.97-3.47,49.99-5.43,74.97-.39,4.98,1.15,8.03,5.52,10.13,7.97,3.83,15.96,7.11,25.19,6.15,2.06-.21,5.43,1.16,6.24,2.77.95,1.9.53,5.32-.63,7.3-4.27,7.25-14.1,10.37-24.24,7.84-4.35-1.08-8.5-2.97-13.64-4.81Z" style="fill: #000; stroke-width: 0px;"/>
  <path d="M726.19,382.58c-3.58,1.52-6.25,2.82-9.03,3.79-7.66,2.67-15.36,3.44-22.7-.88-2.23-1.32-4.61-3.12-5.78-5.3-1.17-2.19-1.94-5.63-.99-7.61.81-1.67,4.41-3,6.64-2.81,9.91.84,18.44-2.7,26.74-7.34,2.95-1.65,3.94-4.06,3.7-7.43-2.05-28.12-3.79-56.27-6.12-84.37-.64-7.73-2.87-15.35-4.57-22.97-.38-1.71-1.61-3.23-4.37-6.08-1.02,1.73-2.04,3.45-3.05,5.18-3.14,5.41-6.32,10.79-9.37,16.25-1.89,3.37-4.22,6.1-8.47,5.27-4.33-.84-6.02-4.09-6.37-8.22-1.11-13.2,10.83-34.1,22.79-39.85,8.58-4.12,18.37-1.98,23.99,6.66,3.58,5.5,6.39,12.04,7.51,18.47,2.09,12,3.48,24.23,3.77,36.4.81,34.3,1.04,68.61,1.17,102.92.03,7.15-1.2,14.33-2.11,21.46-.39,3.08-1.84,5.96-5.54,5.95-4-.02-5.15-3.09-5.53-6.4-.64-5.6-1.1-11.22-1.65-16.83-.18-1.82-.38-3.64-.66-6.26Z" style="fill: #000; stroke-width: 0px;"/>
  <path d="M377.13,528.08c2.23-10.13,10.13-9.94,20.81-8.98,2.39.21,4.82.03,7.23.13,5.09.21,10.42-.34,15.16,1.07,2.67.8,4.37,4.87,6.62,7.62.22-.94.84-2.6.93-4.29.27-5.01.29-10.03.47-15.04.07-1.87.14-3.78.5-5.61,1.02-5.04,4.34-8.17,8.75-8.48,4.6-.32,9.23,2.43,9.81,7.63.93,8.32,1.35,16.88.48,25.17-.67,6.4-3.2,12.75-5.72,18.78-4.29,10.27-13.68,13.84-24.03,9.52-5.48-2.29-10.66-5.61-16.96-4.32-4.51.92-9.24,1.52-13.39,3.34-13.22,5.79-22.37,2.25-27.91-11.06-4.94-11.88-6.42-24.16-5.08-36.85.21-2,.63-4.07,1.41-5.92,1.73-4.12,4.84-6.59,9.5-6.26,4.66.33,7.73,3.15,8.44,7.54.82,5.07.7,10.28,1.03,15.43.22,3.53.5,7.06.75,10.59l1.2-.02Z" style="fill: #000; stroke-width: 0px;"/>
  <path d="M600.02,542.65c1.33,1.15,4.31,2.76,5.79,5.26,1.79,3.02.3,6.49-2.65,8.14-8.63,4.81-12.02,13.13-14.38,21.74-3.39,12.37-5.86,25-8.71,37.52-.17.76-.23,1.55-.4,2.32-.71,3.25-1.82,6.37-5.94,5.86-3.74-.47-4.42-3.52-4.46-6.7-.22-15.22-.36-30.43,3.5-45.33,2.11-8.14,5.3-15.76,11.36-21.85,3.87-3.89,8.45-6.44,15.9-6.96Z" style="fill: #000; stroke-width: 0px;"/>
  <path d="M233.85,603.65c0,4.69.08,9.38-.03,14.07-.08,3.11-1.34,5.64-4.83,5.82-3.26.17-4.63-2.12-5.23-4.97-2.45-11.62-4.63-23.31-7.45-34.85-1.4-5.73-3.45-11.44-6.18-16.64-1.94-3.7-5.23-6.86-8.42-9.69-3.1-2.75-6.01-5.22-4.29-9.82,1.4-3.75,5.4-5.46,10.23-4.43,7.2,1.53,12.19,6.12,16.07,12.06,5.62,8.6,7.93,18.33,9.09,28.34.77,6.67,1.03,13.4,1.52,20.1-.15,0-.3.01-.45.02Z" style="fill: #000; stroke-width: 0px;"/>
  <path d="M556.34,549.1c2,1.52,5.05,2.65,5.5,4.44.67,2.69.49,6.52-1.02,8.67-7.72,10.96-12.29,23.18-15.68,35.95-1.36,5.14-2.1,10.49-3.9,15.45-.72,1.98-3.48,4.24-5.45,4.39-1.44.11-4.3-2.91-4.51-4.77-2.14-18.75-1.03-36.99,10.87-52.87,2.14-2.86,4.69-5.49,7.4-7.81,1.69-1.44,4.05-2.11,6.79-3.46Z" style="fill: #000; stroke-width: 0px;"/>
  <path d="M272.9,601.16c-.21,3.59-.35,7.19-.64,10.78-.26,3.18-1.3,6.12-4.98,6.36-3.66.25-5.02-2.46-5.79-5.61-1.95-7.9-3.25-16.06-6.17-23.58-3.54-9.11-8.3-17.78-12.89-26.44-2.28-4.29-2.71-8.2-.09-10.79,2.77-2.73,7.25-2.75,11.11.43,9.98,8.21,15.62,19.04,17.93,31.58,1.05,5.66,1.28,11.48,1.88,17.23-.12.02-.24.03-.36.05Z" style="fill: #000; stroke-width: 0px;"/>
  <path d="M715.23,317.67c0,7.82.05,15.64-.02,23.46-.03,3.58-.53,7.35-4.96,7.84-4.17.46-5.38-2.98-6.33-6.26-4.49-15.48-6.74-31.17-4.3-47.28.28-1.85.65-3.73,1.33-5.46,1.49-3.82,4.13-6.32,8.54-5.91,3.81.35,6.74,3.75,6.83,8.28.16,8.44.05,16.89.05,25.33-.37,0-.75,0-1.12,0Z" style="fill: #000; stroke-width: 0px;"/>
  <path d="M86.95,317.01c0-7.04-.01-14.07,0-21.11,0-1.71-.11-3.47.22-5.13.68-3.51,2.67-6.09,6.36-6.66,3.92-.61,6.8,1.43,8.28,4.81,1.17,2.67,1.81,5.68,2.16,8.6,1.9,15.97-.37,31.51-5.22,46.74-.94,2.94-2.65,5.22-6.03,4.75-3.37-.46-4.56-3.16-4.59-6.19-.1-8.6-.04-17.2-.04-25.8-.38,0-.77,0-1.15,0Z" style="fill: #000; stroke-width: 0px;"/>
  <path d="M401.35,810.99c-4.64-.49-9.65-.05-13.82-1.71-4.56-1.82-8.84-5.11-12.33-8.65-3.17-3.22-2.5-8.14.38-10.56,3.47-2.92,6.94-2.06,10.28.38.25.18.48.41.72.6,11.4,9.09,18.55,9.09,30.06,0,4.41-3.48,8.42-3.72,11.34-.68,2.83,2.95,2.64,7.45-.61,11.51-4.25,5.31-9.9,8.05-16.6,8.55-3.11.23-6.25.04-9.37.04-.02.17-.04.34-.05.51Z" style="fill: #000; stroke-width: 0px;"/>
  <path d="M721.28,187.35c11.55.29,23.28,8.5,27.24,18.45,1.71,4.31.71,8.55-2.69,10.34-3.94,2.07-7.25.7-10.06-2.37-1.79-1.96-3.46-4.05-5.35-5.9-5.9-5.76-12.64-7.88-20.56-4.45-.86.37-1.87,1.03-2.64.85-2.1-.5-5.09-.83-5.89-2.26-.81-1.45-.16-4.89,1.13-6.14,5.42-5.23,11.92-8.53,18.82-8.51Z" style="fill: #000; stroke-width: 0px;"/>
  <path d="M81.57,187.36c7.6.14,13.96,3.38,19.19,8.56,1.27,1.26,1.88,4.71,1.05,6.14-.83,1.42-3.82,1.71-5.93,2.18-.78.17-1.77-.5-2.63-.86-7.51-3.22-14.06-1.48-19.79,3.97-2.25,2.14-4.17,4.64-6.37,6.85-2.95,2.96-6.46,4.1-10.13,1.6-3.47-2.36-3.72-5.92-2.36-9.64,3.73-10.19,16.12-18.8,26.98-18.79Z" style="fill: #000; stroke-width: 0px;"/>
  <path d="M400.88,612.89c-3.1,4.05-7.27,2.73-11.53.39-3.02-1.65-6.19-3.03-9.1-4.85-4.5-2.82-5.83-7.27-3.47-10.69,2.38-3.46,7.21-4.07,11.21-.84,4.72,3.8,9.08,8.05,13.68,12.19,3.38-3.14,7.16-6.76,11.07-10.22,1.5-1.33,3.19-2.64,5.02-3.37,3.33-1.33,6.63-.96,8.75,2.27,2.11,3.22,1.52,6.91-1.41,8.83-5.19,3.38-10.79,6.29-16.55,8.54-1.82.71-4.71-1.31-7.67-2.26Z" style="fill: #000; stroke-width: 0px;"/>
  <path d="M516.64,666.38c-1.45,6.54-2.55,13.19-4.55,19.55-.6,1.9-3.67,3.03-5.61,4.51-1.44-1.96-3.83-3.79-4.15-5.92-.97-6.63-1.07-13.38-1.67-20.06-.52-5.8,1.75-9.93,6.06-10.61,4.46-.71,8.31,2.93,9.09,8.65.17,1.23.16,2.49.24,3.74.2.05.39.1.59.14Z" style="fill: #000; stroke-width: 0px;"/>
  <path d="M399.39,769.37c-.53.75-1.32,3.02-2.81,3.66-1.52.65-3.88.05-5.58-.68-1.31-.56-2.03-2.35-3.24-3.3-3.64-2.86-7.18-5.94-11.16-8.25-4.6-2.68-6.95-6.19-5.6-10.05,1.4-3.99,5.92-5.73,11.04-4.25,8.23,2.38,17.07,13.44,17.35,22.88Z" style="fill: #000; stroke-width: 0px;"/>
  <path d="M750.31,379.6c0-4.37.09-8.75-.02-13.12-.13-5.18,2.37-8.82,6.26-8.83,4.05,0,7.04,3.92,6.5,9.12-.95,9.17-2.12,18.32-3.25,27.47-.4,3.18-1.58,6.14-5.41,5.72-3.81-.42-4.19-3.6-4.17-6.76.03-4.53,0-9.06,0-13.59h.1Z" style="fill: #000; stroke-width: 0px;"/>
  <path d="M432.57,754.92c-1.09,1.14-2.94,3.47-5.18,5.32-4.28,3.54-8.96,6.6-13.13,10.25-2.5,2.18-4.72,4.56-8.11,2.45-3.12-1.93-2.64-4.99-1.58-7.98,3.13-8.78,7.9-16.1,17.52-18.69,5.69-1.53,10.52,1.75,10.48,8.65Z" style="fill: #000; stroke-width: 0px;"/>
  <path d="M286.76,667.25c.59-3.22.75-5.76,1.56-8.07,1.25-3.59,3.98-5.73,7.89-5.29,3.95.45,6.43,3.3,6.32,7-.25,8.55-.97,17.11-2.01,25.61-.18,1.45-3.05,3.74-4.44,3.58-1.83-.21-4.44-2.16-4.95-3.88-1.89-6.4-3.05-13.01-4.36-18.95Z" style="fill: #000; stroke-width: 0px;"/>
  <path d="M52.93,367.58c0,7.05,0,15.64,0,24.23,0,.94.39,2.1-.03,2.77-1.21,1.93-2.43,4.73-4.2,5.23-3.02.86-4.79-1.72-5.18-4.66-1.02-7.75-1.92-15.52-2.83-23.28-.24-2.02-.49-4.05-.53-6.07-.08-4.76,2.77-8.25,6.53-8.17,3.78.08,6.45,3.65,6.24,9.94Z" style="fill: #000; stroke-width: 0px;"/>
  <path d="M608,750.29c-.13,4.94-4.2,8.82-9.18,8.74-4.98-.08-8.96-4.16-8.84-9.05.12-4.84,4.26-8.77,9.22-8.75,4.93.02,8.92,4.13,8.79,9.07Z" style="fill: #000; stroke-width: 0px;"/>
  <path d="M204.34,759.02c-5.05.01-8.92-3.8-8.97-8.85-.05-5.04,3.86-9,8.83-8.97,4.94.04,9.01,4.03,9.05,8.89.04,4.96-3.91,8.91-8.91,8.93Z" style="fill: #000; stroke-width: 0px;"/>
  <path d="M485.36,500.99c4.89-.08,8.82,3.63,8.84,8.33.02,4.53-3.76,8.32-8.32,8.34-4.51.02-8.29-3.65-8.46-8.21-.18-4.84,3.14-8.37,7.95-8.45Z" style="fill: #000; stroke-width: 0px;"/>
  <path d="M325.88,509.04c0,4.8-3.81,8.64-8.55,8.61-4.62-.03-8.23-3.74-8.18-8.39.05-4.64,3.58-8.15,8.34-8.27,4.8-.12,8.38,3.32,8.39,8.05Z" style="fill: #000; stroke-width: 0px;"/>
  <path d="M476.51,518.6c-.11,3.94-3.42,7.11-7.31,7-4.41-.12-8.7-6.06-8.53-11.79.11-3.66,2.76-6.13,6.37-5.93,4.49.24,9.6,6.02,9.46,10.72Z" style="fill: #000; stroke-width: 0px;"/>
  <path d="M173.42,758.2c4.61.08,8.2,4.17,8.02,9.11-.17,4.6-3.71,8.17-7.99,8.05-4.4-.12-7.88-4.36-7.74-9.44.12-4.4,3.51-7.79,7.71-7.72Z" style="fill: #000; stroke-width: 0px;"/>
  <path d="M637.52,766.11c.05,5.09-3.53,9.29-7.91,9.29-4.26,0-7.71-3.64-7.82-8.25-.13-4.89,3.61-8.97,8.2-8.95,4.17.02,7.49,3.5,7.53,7.91Z" style="fill: #000; stroke-width: 0px;"/>
  <path d="M538.76,675.99c-1.13,6.47-3.87,10.64-8.21,13.42-3.3,2.11-7.52-.47-7.1-4.43.4-3.79,1.43-7.85,3.41-11.02,1.1-1.76,4.89-2.94,7.15-2.55,1.96.34,3.48,3.25,4.75,4.58Z" style="fill: #000; stroke-width: 0px;"/>
  <path d="M326.75,517.76c.49-4.99,5.9-10.2,10.26-9.88,3.63.26,5.81,3.19,5.41,7.27-.61,6.23-4.7,10.85-9.24,10.42-3.82-.36-6.8-3.98-6.43-7.81Z" style="fill: #000; stroke-width: 0px;"/>
  <path d="M280.41,685.11c-1.09,1.46-1.95,3.58-3.47,4.32-1.36.65-4.18.43-5.09-.57-2.57-2.82-5.03-6-6.51-9.48-1.4-3.3,0-6.62,3.59-8.08,3.68-1.5,6.61.24,8.16,3.47,1.46,3.05,2.12,6.48,3.32,10.34Z" style="fill: #000; stroke-width: 0px;"/>
  <path d="M516.83,504.42c.13,4.38-3.73,7.97-8.64,8.05-4.46.06-7.86-2.91-7.9-6.92-.05-4.45,4.08-8.1,9.19-8.12,4.02-.02,7.23,3.03,7.35,6.99Z" style="fill: #000; stroke-width: 0px;"/>
  <path d="M302.92,505.3c.07,4.19-3.03,7.12-7.56,7.16-5,.04-8.8-3.27-8.86-7.74-.05-4.01,2.96-7.13,7.01-7.27,4.97-.18,9.34,3.47,9.41,7.85Z" style="fill: #000; stroke-width: 0px;"/>
  <path d="M153.21,601.31c-.02,4.2-3.61,7.89-7.7,7.91-4.04.02-7.13-3.37-7.07-7.74.06-4.34,3.62-7.82,7.84-7.66,3.82.14,6.95,3.52,6.93,7.49Z" style="fill: #000; stroke-width: 0px;"/>
  <path d="M657.19,593.88c4.24-.06,7.64,3.46,7.59,7.85-.05,4.18-2.98,7.4-6.83,7.5-4.07.1-7.77-3.48-7.94-7.68-.17-4.17,3.05-7.61,7.18-7.66Z" style="fill: #000; stroke-width: 0px;"/>
  <path d="M157.78,691.98c.06,4.16-3.22,7.5-7.35,7.49-4.1-.02-7.41-3.32-7.47-7.45-.06-4.16,3.21-7.5,7.34-7.49,4.06,0,7.41,3.36,7.47,7.46Z" style="fill: #000; stroke-width: 0px;"/>
  <path d="M653.03,684.54c4.18.07,7.36,3.4,7.23,7.58-.13,4.13-3.49,7.39-7.57,7.34-4.08-.05-7.37-3.49-7.27-7.59.1-4.06,3.57-7.39,7.61-7.33Z" style="fill: #000; stroke-width: 0px;"/>
  <path d="M304.29,128.81c.06,4.1-3.21,7.45-7.32,7.49-4.15.04-7.4-3.21-7.36-7.38.04-3.86,3.2-7.13,7.06-7.3,4.01-.18,7.55,3.17,7.62,7.2Z" style="fill: #000; stroke-width: 0px;"/>
  <path d="M513.57,128.99c.04,4.1-2.93,7.19-7,7.3-4.19.11-7.55-3.14-7.55-7.31,0-3.93,3.18-7.25,7.07-7.38,4.12-.14,7.45,3.15,7.49,7.4Z" style="fill: #000; stroke-width: 0px;"/>
  <path d="M572.29,725.23c3.79-.08,7.21,3.17,7.35,6.99.15,4.02-3.25,7.48-7.33,7.47-3.91-.01-7.04-3.21-7.05-7.19-.01-3.91,3.15-7.19,7.02-7.27Z" style="fill: #000; stroke-width: 0px;"/>
  <path d="M237.96,732.51c.01,3.94-3.11,7.14-7.03,7.2-3.91.06-7.1-3.04-7.21-7.01-.11-4.17,3.17-7.54,7.24-7.44,3.92.09,6.98,3.26,6.99,7.26Z" style="fill: #000; stroke-width: 0px;"/>
  <path d="M485.49,115.27c-3.81-.05-6.8-3.09-6.78-6.86.03-3.91,3.27-7.18,7.11-7.16,3.69.02,6.71,3.12,6.75,6.92.04,3.96-3.15,7.16-7.08,7.11Z" style="fill: #000; stroke-width: 0px;"/>
  <path d="M317.62,101.24c3.84.11,6.98,3.47,6.89,7.38-.09,3.77-3.18,6.7-6.99,6.64-3.89-.06-7.03-3.41-6.85-7.33.17-3.83,3.26-6.8,6.96-6.69Z" style="fill: #000; stroke-width: 0px;"/>
  <path d="M473.48,141.53c-3.58.06-6.54-2.76-6.68-6.38-.14-3.62,2.6-6.58,6.25-6.75,3.79-.18,6.98,2.83,6.95,6.56-.03,3.56-2.94,6.5-6.52,6.56Z" style="fill: #000; stroke-width: 0px;"/>
  <path d="M336.4,135.05c-.06,3.65-3.02,6.56-6.63,6.49-3.62-.07-6.47-3.03-6.43-6.7.04-3.7,2.93-6.51,6.62-6.44,3.69.08,6.5,2.97,6.44,6.65Z" style="fill: #000; stroke-width: 0px;"/>
  <path d="M147.88,655.62c3.51.34,6.19,3.68,5.81,7.21-.38,3.52-3.67,6.16-7.23,5.79-3.56-.36-6.22-3.66-5.81-7.18.41-3.53,3.68-6.17,7.23-5.82Z" style="fill: #000; stroke-width: 0px;"/>
  <path d="M153.74,630.71c0,3.57-2.99,6.5-6.58,6.45-3.61-.06-6.56-2.99-6.56-6.53,0-3.57,2.96-6.45,6.6-6.42,3.65.03,6.53,2.9,6.54,6.5Z" style="fill: #000; stroke-width: 0px;"/>
  <path d="M656.29,624.2c3.6.11,6.45,3.13,6.31,6.7-.14,3.56-3.14,6.33-6.79,6.25-3.58-.07-6.42-3.1-6.3-6.7.13-3.58,3.14-6.36,6.77-6.25Z" style="fill: #000; stroke-width: 0px;"/>
  <path d="M655.97,655.62c3.59-.06,6.55,2.82,6.61,6.41.06,3.61-2.77,6.54-6.39,6.62-3.62.08-6.55-2.75-6.6-6.38-.05-3.62,2.81-6.6,6.37-6.65Z" style="fill: #000; stroke-width: 0px;"/>
</svg>