<?xml version="1.0" encoding="UTF-8"?>
<svg id="Layer_1" data-name="Layer 1" xmlns="http://www.w3.org/2000/svg" viewBox="0 0 711.72 900">
  <path d="M560.42,686.31c.28,1.96.42,3.07.59,4.18,2.67,16.53,3.75,33.1.95,49.71-2.79,16.56-8.81,31.95-18.3,45.76-4.5,6.55-7.72,12.8-3.85,20.66,3.83,27.13-1.38,51.69-20.96,71.95-13.72,14.19-30.18,17.36-48.34,9.74-8.55-3.59-16.25-8.51-23.33-14.49-4.64-3.92-9.6-7.46-14.38-11.2-1.72-1.34-2.35-.08-3.09,1.13-5.65,9.27-12.64,17.46-21.2,24.07-12.86,9.93-27.8,13.95-43.68,11.47-6.39-.99-12.02-.69-18.32.07-18.32,2.22-35.07-2.6-48.38-15.99-5.83-5.86-10.75-12.64-15.88-19.16-2.13-2.71-1.8-2.7-4.55-.68-11.1,8.17-21.08,17.92-33.9,23.67-10.98,4.93-22.08,7.14-33.77,2.83-8.9-3.28-15.8-9.2-21.7-16.47-10.6-13.06-16.37-27.96-17.26-44.75-.53-10.09-.48-20.11,2.74-29.9.49-1.48-.35-3.79-1.27-5.28-6.73-10.87-13.39-21.72-17.78-33.86-8.14-22.55-7.92-45.55-4.27-68.8.2-1.3.44-2.6.78-4.62-1.45.59-2.32.83-3.09,1.27-8.12,4.62-16.92,6.87-26.08,8.44-13,2.22-25.92,4.17-39.2,3.93-12.63-.23-23.58-3.92-33.51-11.77-8.89-7.04-17.26-14.37-22.58-24.59-9.3-17.84-9.13-36.25-3.13-54.95.63-1.97,1.23-3.82-.59-5.31-15.95-13.06-19.54-31.64-22.31-50.46-3.69-25.07,5.91-45.46,23.12-62.9,2.63-2.67,5.95-4.64,8.75-7.16.91-.83,1.69-2.41,1.64-3.61-1.03-23.75,5.05-45.21,20.29-63.76.55-.67,1.1-1.35,1.66-2.02,3.2-3.86,3.14-3.82.2-7.86-16.45-22.61-19.99-46.64-7.13-72.04,5.04-9.96,12.85-17.86,21.4-24.98,2.69-2.24,2.75-2.61.42-5.33-7.23-8.4-12.87-17.77-15.94-28.41-5.84-20.23-3.25-39.37,9.28-56.54,3.48-4.77,8.58-8.34,12.77-12.63,1.2-1.23,2.34-2.95,2.59-4.59,3.59-23.46,14.57-42.86,31.99-58.74,2.05-1.87,2.52-3.16.55-5.43-4.97-5.73-6.96-12.62-7.05-20.12-.11-10.15,2.47-19.5,8.08-28.02,7.98-12.12,17.72-22.34,30.07-30.2,10.19-6.48,19.62-14.18,29.87-20.56C209.61,15.42,249.24,3.5,291.91,1.63c5.6-.24,11.2-.75,16.79-1.29,8.08-.78,16.05-.22,23.94,1.58,6.23,1.42,10.02,5.16,10.97,11.59.12.84.37,1.65.49,2.15,4-1.74,7.72-4.17,11.73-4.88,4.44-.78,7.76,2.75,11.35,6.07.35-1.42.65-2.34.81-3.3,1.08-6.43,4.59-10.16,10.96-11.63,7.9-1.83,15.86-2.35,23.94-1.58,15.21,1.45,30.52,2.22,45.63,4.38,38.7,5.53,73.59,20.61,105.15,43.59,8.29,6.04,17.05,11.48,24.94,17.98,11.33,9.34,20.57,20.57,25.37,34.72,1.53,4.5,2.05,9.47,2.31,14.26.45,8.2-1.85,15.74-7.32,22.05-1.57,1.82-1.36,2.97.33,4.57,9.83,9.31,18.95,19.34,24.1,32.01,3.44,8.46,5.55,17.47,8.01,26.31.65,2.33,1.45,4.18,3.27,5.88,5,4.69,10.26,9.24,14.49,14.58,6.51,8.22,8.36,18.36,9.72,28.51,2.62,19.46-4.64,35.85-15.89,50.99-.86,1.16-1.8,2.28-2.8,3.33-1.72,1.82-1.33,3.06.44,4.82,5.69,5.64,11.86,11,16.53,17.42,15.52,21.36,17.08,44.22,5.38,67.85-2.35,4.74-5.5,9.1-8.5,13.48-1.48,2.16-.95,3.71.54,5.41,7.53,8.6,13.58,18.08,17.28,28.99,4.18,12.33,6.45,24.91,5.29,37.96-.2,2.23,1.18,3.07,2.6,4.09,15.81,11.3,25.75,26.61,30.32,45.33,3.38,13.84.99,27.53-2.49,41.03-1.09,4.21-2.73,8.27-4.05,12.42-2.26,7.1-6.1,13.12-11.87,17.9-.89.74-1.65,1.64-2.51,2.41-1.81,1.6-2.2,3.35-1.3,5.7,4.59,12.08,5.2,24.61,3.18,37.2-2.47,15.39-10.49,27.7-22.41,37.56-3.06,2.53-6.24,4.9-9.41,7.29-8.06,6.08-17.15,8.9-27.24,9.49-18.42,1.08-36.26-2.39-54.04-6.24-4.73-1.03-9.12-3.65-13.66-5.56-1.04-.44-2.06-.94-3.86-1.76ZM269.95,31.06c1.56.63,2.39,1.02,3.25,1.31,10.14,3.43,19.72,8.02,28.65,13.92,8.72,5.76,16.58,12.42,21.62,21.85,1,1.87,1.61,3.84.15,5.73-1.47,1.92-3.52,1.77-5.57,1.15-1.57-.48-3.21-.87-4.66-1.61-6.29-3.2-12.7-6.22-18.75-9.83-17.68-10.57-36.33-18.57-56.58-22.72-3.68-.75-7-.52-10.46.86-12.49,4.99-24.96,10.06-37.59,14.67-12.54,4.58-24.42,10.34-35.27,18.1-5.35,3.83-10.87,7.82-13.68,13.97-4.64,10.15-6.62,20.98-6.54,32.16,0,.86.23,1.73.33,2.59.31,2.55,1.85,3.41,4.08,2.53,2.51-.99,5-2.14,7.27-3.58,11-6.94,22.25-13.06,35.06-16.37,18.86-4.87,35.95-1.55,52.15,8.73,6.37,4.04,11.31,9.43,15.51,15.46,4.24,6.08,8.21,12.4,11.75,18.91,1.4,2.58,1.53,5.93,1.89,8.97.39,3.25.26,6.57.54,9.84,2.2,25.97-3.46,49.3-22.04,68.7-8.23,8.6-17.63,14.51-29.25,17.26-11.9,2.82-23.87,3.38-36.03,3.07-24.84-.63-46.94-8.77-66.87-23.35-3.43-2.51-6.97-4.9-10.65-7.01-3.77-2.16-7.71-1.81-11.22.72-1.37.99-2.31,2.57-3.46,3.87-7.66,8.71-10.36,19.13-10,30.4.09,2.96,1.23,6.13,2.7,8.75,4.77,8.48,11.95,14.62,20.29,19.47,13.18,7.67,27.71,11.38,42.51,14.09,16.18,2.96,32.43,5.58,48.65,8.35,2.09.36,4.26.9,4.14,3.56-.13,2.84-2.42,3.11-4.66,3.18-3.58.12-7.16.3-10.74.37-24.11.5-48-.71-71.12-8.61-1.5-.51-3.99.03-5.27,1.04-10.49,8.24-20.81,16.71-31.18,25.11-4.6,3.73-5.68,9.11-6.45,14.47-.47,3.29,2.12,5.3,5.34,4.56,1.97-.46,3.92-1.11,5.79-1.88,19.25-7.91,39.2-11.18,59.94-9.02,6.92.72,13.96,1.26,20.64,3.03,12.59,3.33,23.15,10.58,32.77,19.19,7.03,6.29,12.15,13.8,13.64,23.33.68,4.38,1.18,8.81,1.39,13.24.65,13.38.7,26.83-3.15,39.77-6.8,22.86-18.99,42.53-37.11,58.18-4.39,3.8-9.61,6.89-14.9,9.34-6.47,3.01-13.32,5.28-20.16,7.37-10.16,3.12-20.77,4.98-31.23,3.41-18.63-2.81-36.66-8.02-53.16-17.6-3.91-2.27-5.38-1.59-7.32,2.52-2.1,4.45-4.28,8.86-6.52,13.23-3.4,6.66-6.8,13.34-7.45,20.93-1.34,15.56,1.72,29.73,12.54,41.8,5.64,6.29,7.46,6.72,14.48,1.87,6.28-4.33,12.81-8.33,19.4-12.16,2.8-1.63,5.62-.73,6.98,1.4,1.38,2.15.84,4.72-1.64,6.95-2.45,2.2-4.97,4.32-7.52,6.39-7.97,6.48-16.01,12.9-21.28,21.98-6.56,11.32-7.8,22.98-1.68,34.88,4.09,7.96,9.89,14.51,17.16,19.77,4.31,3.12,8.95,4.87,14.32,4.73,4.74-.12,9.49-.28,14.21-.07,3.82.17,5.76-1.55,7.64-4.76,4.58-7.83,9.39-15.57,14.76-22.87,2.36-3.21,6.19-5.43,9.58-7.76,5.09-3.5,10.14-7.17,15.62-9.95,13.67-6.91,27.8-12.73,42.78-16.26,11.7-2.76,23.65-2.22,35.5-3.11,14.13-1.07,27.02,2.27,39.39,8.68,1.86.97,4.01,1.38,6,2.11,2.07.76,4.33,1.26,6.11,2.47,2.93,1.99,5.64,4.34,8.25,6.74,3.19,2.94,4.54,3.16,7.96.54,1.07-.82,2.08-1.75,2.96-2.76,5.13-5.9,9.72-12.22,16-17.13,8.96-7.01,19.39-9.48,30.27-10.49,5.97-.55,11.69,1.22,16.95,4.22,4.78,2.73,9.86,3.31,14.7.63,8.95-4.97,18.04-5.57,28.03-3.48,13.59,2.85,23.81,10.1,32.07,20.83,2.17,2.82,4.54,5.57,7.19,7.93,3.48,3.09,5.44,2.81,8.58-.68,4.19-4.65,9.04-8.04,15.36-9.18,1.86-.34,3.65-1.27,5.38-2.11,10.01-4.84,20.26-8.76,31.63-8.51,7.26.16,14.51.34,21.77.63,12.47.51,24.53,3.01,36.3,7.22,16.95,6.05,33.08,13.62,47.53,24.46,2.06,1.55,4.09,3.39,5.49,5.52,5.36,8.14,10.42,16.49,15.72,24.68.64.99,2.05,2.06,3.13,2.09,7.05.2,14.12.33,21.17,0,2.48-.11,5.31-1.05,7.26-2.54,4.95-3.81,10.09-7.64,14.1-12.36,13.34-15.74,13.65-32.68,1.02-48.92-3.76-4.83-8.51-8.93-13.04-13.12-3.9-3.61-8.17-6.82-12.18-10.32-2.72-2.37-3.25-4.9-1.77-7.14,1.43-2.18,4.08-2.65,7.31-1.26.89.38,1.77.8,2.59,1.3,3.23,1.96,6.47,3.89,9.63,5.95,3.65,2.37,7.12,5.02,10.85,7.24,3.05,1.81,5.24,1.48,7.58-1.05,7.61-8.21,13.07-17.3,15.26-28.73,3.92-20.49-7.09-36.15-15.31-52.83-1.01-2.05-2.77-1.92-4.69-.81-12.6,7.22-25.98,12.51-40.21,15.45-6.42,1.32-12.92,3.08-19.4,3.17-16.35.24-31.74-4.58-46.47-11.27-5.38-2.44-10.56-5.8-15.02-9.68-17.2-14.97-28.8-33.74-35.93-55.31-1.18-3.56-2-7.29-2.54-11.01-1.73-12.02-1.86-24.09-1.12-36.21.74-12.17,5.06-22.59,14.12-30.82,14.04-12.77,29.94-21.05,49.4-22.63,20.89-1.7,41.14-.42,60.78,7.27,3.06,1.2,6.15,2.37,9.31,3.25,3.54.99,6.26-1.07,5.75-4.62-.78-5.36-1.92-10.71-6.53-14.44-9.99-8.1-20.02-16.16-29.88-24.41-2.6-2.17-4.97-2.31-8-1.28-4.3,1.47-8.68,2.74-13.11,3.75-22.49,5.14-45.32,5.11-68.19,4.1-.57-.03-1.3-.02-1.67-.35-.81-.73-1.97-1.65-2-2.52-.03-1.02.8-2.3,1.64-3.03.72-.62,1.97-.71,3.01-.88,11.74-1.99,23.48-3.92,35.22-5.92,15.56-2.65,31.12-5.36,45.77-11.59,11.32-4.81,21.3-11.42,28.48-21.7,2.73-3.91,4.58-8.14,4.48-12.95-.25-11.28-3.24-21.52-11.13-30.05-4.64-5.02-9.26-6.2-15.17-2.68-4.14,2.47-7.95,5.5-11.93,8.26-10.9,7.56-22.58,13.84-35.37,17.16-20.56,5.34-41.39,5.94-62.43,1.85-20.82-4.05-34.57-17.23-44.24-34.57-9.03-16.19-12-34.23-9.54-52.89.34-2.58.51-5.21.44-7.81-.13-4.58,1.02-8.75,3.02-12.85,3.64-7.47,8.75-13.86,13.85-20.34,6.38-8.09,14.51-13.63,23.84-17.46,24.01-9.84,46.07-3.7,67.27,8.67,4.18,2.44,8.25,5.06,12.5,7.37,5.74,3.12,7.41,2.16,7.66-4.34.35-8.93-1.92-17.46-4.21-25.98-1.31-4.88-3.94-8.96-7.57-12.5-7.94-7.75-17.11-13.82-27.17-18.11-18.77-8-37.86-15.28-56.9-22.64-1.99-.77-4.61-.49-6.82-.07-21.49,4.07-41.03,12.95-59.73,24.09-6.61,3.94-13.86,6.81-20.89,10.01-1.98.9-4.25,1.06-5.87-.93-1.61-1.98-1.05-4.17.27-5.92,3.3-4.39,6.37-9.08,10.32-12.81,11.3-10.69,24.94-17.53,39.48-22.7.96-.34,1.9-.75,3.67-1.45-1.67-.64-2.51-1.07-3.39-1.27-9.8-2.27-19.62-4.45-29.42-6.75-10.76-2.53-19.43,1.01-26.48,9.09-3.19,3.66-7.27,5.26-11.86,4.99-3.52-.2-7.14-.94-10.43-2.19-3.03-1.15-5.49-1.19-8.54.02-9.17,3.64-17.38,3.35-24.63-5.01-5.34-6.16-12.84-9.06-21.27-7.32-10.89,2.25-21.73,4.78-32.58,7.22-.81.18-1.56.6-3.1,1.2ZM173.38,738.01c.11,1.22.12,1.79.22,2.33,2.33,12.21,5.99,23.99,11.38,35.23,1.78,3.72,1.59,3.79,5.37,2.44,3.78-1.35,7.51-1.58,10.51,1.59,3.08,3.26,2.72,7.09.99,10.83-1.38,2.98-3.34,5.73-4.45,8.8-1.93,5.32-4.58,10.77-4.8,16.24-.34,8.43.47,17.05,1.96,25.38,2.63,14.72,12.31,23.2,26.49,26.8,5,1.27,9.85.52,14.27-2.16,6.52-3.95,12.16-8.88,16.45-15.28,2.69-4.02,5.56-7.92,8.19-11.98,2.15-3.32,4.19-6.73,5.97-10.26.4-.79-.14-2.69-.89-3.32-5.51-4.6-6.13-10.64-.82-15.46,5.73-5.2,11.97-9.76,19.26-12.76,9.66-3.99,19.72-3.75,29.75-2.81,4.32.4,7.27-.65,10.23-3.77,4.76-5.03,10.45-9.28,17.14-11.03,7.51-1.97,15.15-2.86,23.21-1.64,8.94,1.35,16.44,5.1,22.47,11.09,4.59,4.56,8.95,5.86,15.15,5.1,16.89-2.08,31.75,2.9,44.39,14.33,1.28,1.16,2.54,2.42,3.5,3.84,2.7,4,2.09,9.51-1.87,12.18-2.89,1.95-2.37,3.75-1.14,6.05.78,1.45,1.57,2.9,2.48,4.26,4.1,6.1,8.06,12.32,12.43,18.22,4.24,5.73,9.54,10.53,15.99,13.61,2.95,1.41,6.57,2.47,9.74,2.15,12.86-1.31,23.38-7.4,27.81-19.74,6.35-17.67,7.95-35.71-2.45-52.92-1.34-2.22-2.6-4.59-3.35-7.05-2.16-7.01,3.1-12.53,10.25-10.87,1.85.43,3.62,1.21,5.53,1.86,6.71-12.93,10.99-26.51,13.65-41.38-9.15,3.01-17.56,5.81-26,8.54-6.07,1.96-12.06,4.61-18.29,5.54-10.3,1.55-20.8,1.76-31.05-.82-9.87-2.49-19.13-6.24-25.94-14.36-1.36-1.62-2.99-2.08-5.18-1.54-3.59.87-5.57,3.59-7.99,5.95-4.41,4.28-8.56,9.08-13.67,12.33-9.93,6.31-21.06,6.58-32.23,3.65-3.69-.97-7.34-2.37-10.73-4.12-2.26-1.17-4.17-1.7-6.54-.73-3.17,1.3-6.47,1.39-9.63.06-2.73-1.15-4.97-.68-7.29,1.04-1.45,1.07-3.17,1.97-4.91,2.43-11.75,3.11-23.34,4.88-35.09-.86-6.55-3.21-10.98-8.39-15.83-13.32-1.56-1.58-2.87-3.54-4.69-4.71-4.26-2.73-6.85-2.76-9.04.03-4.74,6.04-11.32,9.42-18.25,11.86-5.52,1.94-11.37,3.28-17.18,4-5.13.64-10.41.17-15.62-.03-2.59-.1-5.26-.39-7.74-1.11-5.66-1.65-11.23-3.63-16.83-5.47-8.24-2.7-16.48-5.39-25.27-8.26ZM126.68,367.45c-.02-.41-.05-.81-.07-1.22-13.76,1.33-27.53,2.57-41.28,4.05-6.56.7-12.43,3.4-17.94,7.04-2.3,1.52-2.53,2.68-.84,4.77,4.63,5.74,10.08,10.63,16.62,13.84,11.37,5.57,23.03,10.54,34.57,15.76,1.59.72,3.37,1.18,4.7,2.22,1,.78,2.11,2.42,1.92,3.44-.22,1.19-1.71,2.26-2.85,3.11-.62.46-1.67.34-2.54.45-12.49,1.59-24.48-.22-36.05-5.19-1.13-.49-3.11-.61-3.93.05-10.19,8.22-19.3,17.35-23.7,30.15-1.26,3.66-2.74,7.25-3.84,10.96-4.09,13.75-4.29,9.5,2.88,21.91,4.42,7.65,11.36,11.65,19.8,11.79,8.45.14,17.19-.1,25.31-2.13,11.78-2.95,23.24-7.35,34.62-11.7,10.46-4,18.78-11.06,25.21-20.26,8.91-12.75,14.04-26.58,14.44-42.45.28-10.89-1.19-21.06-6.15-30.6-5.01-9.63-12.61-15.85-24.05-15.99-5.61-.07-11.22-.01-16.83-.01ZM585.32,366.25l-.07,1.27c-6.09,0-12.19-.12-18.28.03-6.69.17-12.33,2.83-17,7.67-7.34,7.61-11.05,17.11-11.77,27.2-1.14,15.86.55,31.39,8.86,45.74,8.07,13.95,18.66,24.58,34.01,30.04,7.11,2.53,14.32,4.8,21.36,7.51,10.68,4.12,21.75,5.4,33.06,5.12,9.53-.24,17.26-3.89,22.16-12.49,1.34-2.35,3.02-4.56,4.03-7.04.75-1.84,1.32-4.17.86-6.02-1.32-5.34-3.24-10.54-4.84-15.81-4.12-13.61-12.93-23.78-23.6-32.69-2.13-1.78-3.81-1.89-6.22-.83-11.73,5.14-23.99,6.57-36.65,4.8-2-.28-3.93-.83-4.26-3.21-.34-2.37,1.29-3.47,3.17-4.28,2.49-1.07,5.02-2.05,7.48-3.18,10.72-4.91,21.56-9.59,32.09-14.88,6.25-3.14,11.38-7.98,15.71-13.57,1.32-1.7,1.1-2.69-.71-3.93-5.6-3.85-11.62-6.69-18.4-7.42-13.65-1.47-27.32-2.71-40.98-4.05ZM194.97,236.08c17.64,1.51,28.14-7.96,33.45-21.05,4.38-10.78,7.66-21.95,9.03-33.55.48-4.07.94-8.6-.33-12.33-2.91-8.51-7.31-16.43-13.31-23.27-1.5-1.71-3.45-3.18-5.47-4.22-4.47-2.29-9.02-4.47-13.7-6.26-5.58-2.13-11.45-3.03-17.4-1.98-16.32,2.89-30.89,9.8-44.26,19.45-1.49,1.08-1.43,2.13-.26,3.34,1.88,1.95,3.63,4.05,5.67,5.82,5.26,4.56,10.65,8.97,15.99,13.45,1.43,1.2,2.53,2.62,1.44,4.51-1.07,1.87-2.8,1.86-4.57,1.04-9.77-4.56-19.17-9.7-26.99-17.31-3.52-3.42-4.87-3.43-8.23.24-2.94,3.21-5.61,6.67-8.6,9.83-8.04,8.5-11.65,19.24-15.38,29.93-.86,2.47.24,3.9,2.45,5.11,4.83,2.65,9.67,5.32,14.24,8.39,13.08,8.78,28.01,12.75,43.04,15.77,10.84,2.17,22.11,2.14,33.2,3.1ZM518.99,235.88c8.47-.73,19.55-1.66,30.63-2.67,1.82-.17,3.66-.51,5.41-1.04,7.77-2.39,15.57-4.71,23.23-7.41,3.81-1.34,7.47-3.22,10.99-5.21,6.22-3.53,12.26-7.38,18.43-11.01,1.75-1.03,2.56-2.3,1.97-4.29-2.85-9.6-6.46-18.89-12.5-26.96-3.41-4.56-7.43-8.66-11.23-12.92-.82-.92-1.86-1.67-2.85-2.43-1.67-1.28-3.08-.98-4.56.56-7.94,8.22-17.76,13.62-27.97,18.41-1.8.84-3.65,1.16-4.85-.87-1.1-1.88-.05-3.33,1.4-4.51,1.42-1.17,2.94-2.22,4.31-3.44,5.57-4.94,11.19-9.83,16.6-14.94,2.73-2.57,2.49-2.99-.65-5.19-10.54-7.4-21.91-12.97-34.31-16.65-10.01-2.97-19.54-2.57-29.24,1.17-10.46,4.03-18.91,10.03-23.51,20.64-.96,2.21-2.27,4.27-3.51,6.35-2.68,4.51-3.47,9.34-2.99,14.52,1.19,12.85,4.67,25.14,9.45,37.02,6.11,15.19,16.68,21.65,35.77,20.89ZM123.71,661.67l.45.91c.98-.22,1.98-.4,2.95-.66,8.7-2.29,17.33-4.88,26.11-6.78,5.23-1.13,10.71-1.71,16.04-1.53,3.67.12,6.35-.81,9.34-2.7,11.82-7.47,24.71-11.9,38.78-12.41,4.13-.15,8.11.72,11.59,3.11,3.09,2.11,3.09,5.61-.1,7.58-1.71,1.06-3.61,1.96-5.55,2.43-4.79,1.17-9.67,1.92-14.46,3.07-7.03,1.68-14.15,3.18-20.99,5.47-6.04,2.02-9.69,6.73-11.43,12.96-3.94,14.09-5.32,28.5-5.81,43.04-.08,2.39,1.16,3.05,3.31,3.43,8.18,1.44,16.49,2.48,24.43,4.78,14.81,4.3,29.74,4.49,44.83,2.85,1.85-.2,3.9-.89,5.37-2,7.98-6.04,15.07-12.83,17.18-23.23,1.1-5.4,2.44-10.78,3.12-16.24,1.9-15.09-2.6-27.81-13.87-38.4-14.32-13.46-32-17.73-50.59-18.79-19.41-1.1-37.69,4.78-55.46,11.94-10.63,4.28-17.69,13.11-25.24,21.19ZM587.49,662.57c.14-.31.28-.62.42-.93-7.14-7.83-13.92-16.3-23.99-20.51-8.35-3.49-17.15-5.97-25.84-8.59-15.28-4.6-30.67-5.36-46.45-2.04-14.02,2.95-26.48,8.32-36.71,18.54-9.78,9.77-13.64,21.62-12.28,35.12.63,6.23,2.23,12.37,3.5,18.53,1.85,9,8.03,14.99,14.5,20.8,4.49,4.03,10.02,4.18,15.55,4.43,1.16.05,2.32.19,3.48.21,9.98.19,19.89-.32,29.68-2.59,9.21-2.13,18.46-4.17,27.76-5.87,2.87-.53,4.01-1.38,3.92-4.35-.41-13.2-2.04-26.2-4.86-39.12-2.12-9.72-7.93-15.57-17.22-17.98-6.82-1.77-13.84-2.75-20.71-4.35-4.97-1.16-9.92-2.53-14.69-4.32-1.43-.54-2.97-2.78-3.04-4.31-.06-1.35,1.57-3.25,2.95-4.11,4.65-2.9,9.93-3.14,15.18-2.45,13.24,1.74,25.57,5.98,36.65,13.64,1.35.93,3.37,1.13,5.1,1.22,3.16.16,6.48-.61,9.5.05,11.61,2.56,23.13,5.54,34.68,8.36.96.23,1.94.41,2.92.61ZM397.49,716.03c-.47-1.55-.76-2.46-1.01-3.37-3.61-12.92-3.77-25.26,5.85-36.07.57-.64.65-2.24.28-3.1-4.53-10.66-4.69-21.4-.91-32.29.2-.56.19-1.2.34-2.16-2.12.65-3.85,1.21-5.6,1.72-8.95,2.57-17.28,1.97-24.23-5.01-1.45-1.45-2.47-.82-3.74.1-3.4,2.47-7,4.46-11.34,4.8-4.91.38-9.23-1.2-12.99-4.11-2.34-1.8-3.67-1.6-6.09.21-3.07,2.3-6.83,4.02-10.55,5-4.98,1.31-9.97-.15-14.8-1.73-1.01-.33-2.06-.53-3.31-.85.11.8.1,1.1.19,1.36,4.18,11.12,3.99,22.12-.63,33.09-.39.91.11,2.68.83,3.5,3.73,4.29,6.08,9.18,7.02,14.75,1.18,7.01.47,13.89-1.62,20.65-.3.97-.57,1.95-.84,2.86.49.25.65.37.83.41.18.04.39.06.57,0,7.68-2.34,14.69-1.04,21.18,3.69.59.43,2.26.08,2.97-.49,3.67-2.9,7.76-3.65,12.29-3.22,2.38.23,4.81.22,7.19,0,4.31-.39,8.4.04,11.75,2.96,1.78,1.55,2.98,1.28,4.76.03,5.61-3.95,11.81-5.11,18.51-3.35.81.21,1.64.32,3.1.6ZM324.22,881.19c-.36-1.51-.57-2.39-.77-3.28-.58-2.54-1.37-5.06-1.71-7.64-1.15-8.69.08-16.86,6.22-23.59.91-1,3.09-1.76,4.25-1.37,1.14.39,2.34,2.33,2.46,3.69.31,3.55-.17,7.16.06,10.72.45,7.03,1.15,14.04,1.79,21.05.19,2.08,1.36,2.95,3.51,2.93,10.53-.06,21.06-.05,31.59,0,2,0,3.1-.79,3.39-2.74.59-3.92,1.54-7.82,1.7-11.76.26-6.66-.13-13.35.11-20.01.05-1.41,1.32-3.42,2.54-3.94,1.04-.44,3.45.43,4.16,1.46,2.16,3.14,4.32,6.47,5.53,10.04,2.33,6.93,1.23,13.96-.81,20.84-.29.96-.49,1.95-.87,3.53,1.59-.4,2.62-.53,3.55-.91,12.36-5.01,21.73-13.45,28.61-24.82,1.2-1.98.96-3.24-.71-4.71-7.12-6.25-14.08-12.69-21.29-18.83-2.77-2.36-6.02-4.2-9.14-6.13-.93-.58-2.25-1.06-3.26-.88-4.82.88-9.59,2.04-14.39,3.03-3.85.8-7.69,1.82-11.58,2.17-7.5.67-14.65-.66-21.84-3.33-5.94-2.2-12.57-3.58-18.34,1.46-8.95,7.81-18,15.53-26.9,23.4-.57.51-.72,2.26-.3,3,6.68,11.87,16.33,20.45,28.95,25.64.92.38,1.94.53,3.53.95ZM332.96,800.02c8.64,4.24,16.57,9.75,26.63,8.06,6.94-1.17,12.78-4.97,19.02-8.11-5.76-8.42-14.97-8.15-22.87-10.75-7.87,2.65-17.1,2.35-22.78,10.8ZM412.94,686c-5.05,1.62-6.54,13.2-3.12,23.01,2.65,7.59,8.28,12.71,13.78,11.91-6.12-10.89-9.42-22.58-10.65-34.91ZM288.06,720.83c5.7,1.03,11.59-4.72,14.17-13.28,2.87-9.49,1.4-19.31-3.58-21.45-1.26,12.28-4.49,23.91-10.6,34.73ZM404.16,626.76c-1.84-1.33-2.84-2.22-3.98-2.83-6.89-3.73-14.18-3.08-21.49-1.77-.48.09-1.2,1.44-1.06,2.01,1.03,4.14,4.98,7.61,9.04,7.93,6.18.5,11.29-2.5,17.48-5.34ZM308.19,625.78c.05.42.09.84.14,1.27,4.42,2.42,8.95,4.65,14.11,5.09,5.44.47,9.83-2.57,11.41-7.83.18-.59-.59-2.07-1.11-2.17-5.71-1.11-11.51-1.71-17.16.1-2.57.82-4.93,2.34-7.38,3.54ZM413.31,668.17c.36-1.75.57-2.66.74-3.58,1.36-7.48,3.79-14.59,7.31-21.34.73-1.39,2.04-2.84.04-4.31-2.27-1.67-4.66-1.74-6.28.08-1.01,1.14-1.94,2.47-2.48,3.88-2.97,7.71-2.57,15.54-.55,23.39.11.42.49.77,1.22,1.88ZM298.35,668.05c.66-1.12,1.06-1.55,1.19-2.05,1.92-7.43,2.31-14.88-.32-22.21-.66-1.85-1.85-3.63-3.18-5.09-1.83-2-3.96-.86-5.8.24-1.95,1.16-.84,2.63-.12,3.99,3.62,6.88,6.1,14.15,7.48,21.81.16.88.39,1.76.74,3.31ZM333.75,733.3c-.73-.94-1.25-1.73-1.89-2.4-5.79-6.11-18.96-4.68-24.7,2.66,5.59,3.5,18.02,3.49,26.59-.26ZM377.48,733.7c9.48,1.86,18.21,4.46,27.82-.43-5.83-2.99-10.68-6.5-16.84-6.5-4.62,0-7.88,2.62-10.97,6.93ZM355.78,631.74c3.52-1.83,7.07-3.35,10.23-5.44,1.61-1.06.51-3.51-1.55-4.09-2.31-.64-4.59-1.43-6.92-1.97-1.07-.25-2.29-.28-3.36-.03-2.43.55-4.8,1.34-7.2,2.02-1.96.56-2.95,3.15-1.34,4.19,3.12,2.02,6.58,3.49,10.14,5.32ZM355.74,734.87c3.1-.88,6.17-1.47,8.98-2.68,1.01-.44,1.74-2.31,1.91-3.61.08-.62-1.36-1.69-2.3-2.13-5.76-2.68-11.58-2.42-17.32.08-.87.38-2.2,1.43-2.1,1.97.22,1.33.85,3.23,1.85,3.66,2.89,1.25,6.05,1.88,8.99,2.72Z" style="fill: #000; stroke-width: 0px;"/>
  <path d="M299.97,556.7c2.34-.93,4.32-1.59,6.2-2.47,7.96-3.76,15.84-7.71,23.87-11.32,2.68-1.2,5.71-2.1,8.61-2.22,7.26-.29,10.8,5.86,7.36,12.29-.54,1.01-1.18,1.97-2.1,3.48,3.27.88,5.83,3.15,9.43,1.48,1.19-.55,3.06-.79,4.12-.23,3.75,1.97,6.64-.19,10.21-1.24-.86-1.51-1.55-2.62-2.15-3.79-3.21-6.3.16-12.2,7.2-11.98,3.18.1,6.5,1.11,9.44,2.42,7.87,3.49,15.56,7.39,23.34,11.07,1.88.89,3.86,1.58,6.1,2.49.23-2.57.43-4.25-2.67-4.22-1.15.01-2.62-1.11-3.44-2.13-6.56-8.17-8.48-17.82-8.62-28-.05-3.48.02-6.97-.21-10.44-.9-13.63-4.94-26.42-11.05-38.53-3.74-7.4-8.14-14.47-12.09-21.77-1.88-3.48-3.54-7.09-5.06-10.74-1.09-2.62-.75-5.22,1.66-7.07,2.38-1.83,5.01-1.57,7.3.06,1.7,1.21,3.27,2.76,4.54,4.43,8.38,11.07,15.59,22.84,21.48,35.43,3.84,8.2,5.25,16.94,6.39,25.81.56,4.4,1.55,8.76,2.64,13.07,1.98,7.8,5.99,14.32,12.16,19.67,6.34,5.49,10.79,12.41,13.12,20.52,4.06,14.1-4.63,25.82-19.33,26.32-6.58.22-12.6-1.68-18.4-4.55-4.25-2.1-8.43-4.37-12.79-6.21-1.36-.57-3.36-.38-4.82.16-4.25,1.57-8.25,3.92-12.58,5.14-3.54,1-7.4.86-11.13,1.14-1.34.1-2.74-.29-4.05-.07-8.95,1.5-16.8-1.74-24.38-5.78-2.5-1.33-4.51-1.48-7.02-.17-5.14,2.69-10.38,5.2-15.66,7.61-4.93,2.26-10.17,3.06-15.58,2.65-13.6-1.03-21.72-12.41-18.18-25.61,2.08-7.75,5.9-14.78,12-19.86,9.25-7.72,13.28-17.8,15.29-29.12.14-.76.32-1.52.36-2.29.99-19.47,9.38-36.12,19.86-51.96,2.62-3.95,5.33-7.85,8.16-11.65,1.26-1.69,2.8-3.23,4.45-4.53,2.37-1.86,5.63-1.87,7.56-.24,2.31,1.95,2.72,4.58,1.59,7.13-1.96,4.4-3.96,8.84-6.52,12.9-11.6,18.41-20.31,37.83-21.77,59.89-.25,3.76,0,7.55-.17,11.31-.42,9.38-2.65,18.18-8.78,25.59-.77.93-2.15,1.83-3.29,1.9-2.52.15-2.79,1.5-2.59,4.22Z" style="fill: #000; stroke-width: 0px;"/>
  <path d="M336.58,383.64c2.19,21.06-7.69,37.34-20.49,52.34-7.83,9.17-18.28,13.57-30.1,14.42-20.53,1.48-40.05-2.43-58.42-11.83-1.45-.74-2.84-1.69-4.06-2.77-2.09-1.84-3.33-4.16-2.11-6.97,1.2-2.77,3.73-3.7,6.48-3.37,3.83.45,7.63,1.26,11.43,1.97,3.85.72,3.86.75,3.92-3.18.48-29.77,10.18-56.53,26.76-80.95,4.01-5.9,8.58-11.43,13.08-16.98,1.55-1.91,1.04-2.98-.78-3.8-6.61-2.97-13.3-5.76-19.88-8.78-5.97-2.74-11.9-5.57-17.7-8.63-1.05-.56-2.17-2.7-1.87-3.69.36-1.22,2.18-2.82,3.38-2.83,5.76-.05,11.55.18,17.29.71,3.25.3,6.44,1.31,9.62,2.14,33.7,8.85,54.23,30.65,62.46,64.18,1.43,5.84,1.25,12.08,1.81,18.14l-.81-.12ZM277.14,432.77c2.84-.21,5.93-.34,9-.67,11.53-1.24,19.74-7.05,24.73-17.63,4.72-10.01,7.87-20.41,8.57-31.46.44-7.03-.35-14.01-3.24-20.47-4.42-9.89-10.68-18.59-18.05-26.53-1.74-1.87-2.75-1.42-3.92.6-1.83,3.18-3.8,6.3-5.84,9.35-8.75,13.06-16.78,26.49-21.8,41.51-1.41,4.23-1.38,4.3,2.94,4,8.41-.58,16.41.73,23.68,5.26,2.33,1.45,5.48,2.59,4.61,6.19-.83,3.41-4.08,3.09-6.7,3.39-8.77,1.01-17.38-.28-25.93-2.1-2.47-.52-3.76.01-4.31,2.68-1.46,7.01-3.1,13.98-4.77,20.95-.45,1.89.07,2.69,1.98,2.89,6.26.63,12.5,1.34,19.03,2.05Z" style="fill: #000; stroke-width: 0px;"/>
  <path d="M374.78,384.14c-1.57-39.84,28.13-76.12,65.94-83.26,7.22-1.36,14.3-3.59,21.77-2.73,2.51.29,5.7-.15,6.29,3.33.56,3.3-2.43,4.1-4.63,5.1-8.97,4.07-18.01,7.99-27,12.03-2.64,1.19-5.21,2.55-7.78,3.89-2.01,1.05-2.18,2.21-.58,4.06,19.6,22.74,33.24,48.42,37.86,78.38,1,6.48,1.22,13.09,1.66,19.65.24,3.58.11,3.58,3.72,2.89,3.42-.65,6.83-1.35,10.27-1.9,3.9-.61,6.86.71,7.9,3.33,1.06,2.68.11,6.05-3.4,7.82-6.7,3.38-13.53,6.75-20.67,9.01-14.72,4.66-29.88,6.5-45.28,4-11.7-1.9-21.16-7.7-28.25-17.24-2.08-2.79-4.05-5.67-6.13-8.46-9.23-12.37-12.5-26.42-11.7-39.88ZM432.5,432.98c8.46-.91,14.62-1.6,20.78-2.22,2.01-.2,2.63-1.01,2.14-3.06-1.67-6.97-3.27-13.95-4.72-20.96-.52-2.53-1.73-3.04-4.09-2.58-4.37.85-8.76,1.82-13.18,2.06-5.29.28-10.63.06-15.9-.43-1.42-.13-3.42-1.81-3.8-3.15-.32-1.15,1.24-2.89,2.08-4.29.27-.45.93-.66,1.42-.98,7.9-5.1,16.6-6.64,25.84-5.8,3.14.28,3.45-.03,2.35-2.89-2.04-5.33-3.72-10.9-6.5-15.83-7.03-12.46-14.6-24.62-21.95-36.9-1.03-1.72-2.14-1.32-3.23-.09-2.11,2.4-4.37,4.69-6.26,7.25-5.91,8.03-12.15,15.99-14.08,26.09-3.64,19.13,1.45,36.42,11.87,52.4,2.8,4.29,6.83,7.25,11.8,8.43,5.79,1.38,11.7,2.26,15.43,2.96Z" style="fill: #000; stroke-width: 0px;"/>
  <path d="M229.2,574.07c-.67-1.32-.98-2.09-1.42-2.77-11.97-18.5-13.53-37.88-4.9-58.12,1.25-2.94,2.63-5.82,3.97-8.71.94-2.04,2.16-4.02,4.78-3.06,2.67.98,2.03,3.33,1.63,5.47-1.12,5.89-2.41,11.76-3.26,17.69-2.45,17.08,1.63,32.64,11.28,46.84,1.79,2.64,3.58,5.28,5.33,7.94,2.25,3.43,1.05,6.08-3.13,6.35-5.01.33-10.06.49-15.08.39-18.1-.36-36.18-.46-54.21,1.64-6.63.77-13.27,1.51-19.92,2.1-2.39.21-4.84.13-7.22-.19-2.52-.34-4.22-1.92-4.6-4.55-.37-2.59.72-4.62,2.97-5.8,1.87-.98,3.88-1.8,5.91-2.35,24.48-6.49,49.19-7.96,74.18-3.42,1,.18,2.01.3,3.68.55Z" style="fill: #000; stroke-width: 0px;"/>
  <path d="M482.95,574c1-.14,2.01-.25,3.01-.44,24.49-4.52,48.75-3.1,72.8,2.95,2.42.61,4.8,1.54,7.05,2.62,2.48,1.19,3.83,3.33,3.3,6.17-.5,2.72-2.5,4.12-5.08,4.48-1.9.26-3.89.39-5.78.13-28.85-4.05-57.86-4.24-86.9-4.02-2.61.02-5.79.65-7.28-2.34-1.48-2.94,1.39-4.81,2.6-6.94,2.24-3.94,5.1-7.53,7.37-11.46,8.75-15.12,9.81-31.32,6.37-48.08-.76-3.7-1.6-7.38-2.4-11.07-.42-1.95-.31-3.83,1.86-4.6,2.15-.77,3.64.49,4.36,2.35,3.01,7.83,6.75,15.51,8.66,23.62,3.68,15.61-.36,30.1-8.8,43.48-.46.73-.88,1.49-1.28,2.26-.07.13.05.37.13.9Z" style="fill: #000; stroke-width: 0px;"/>
  <path d="M274.68,269.89c-5.33.1-8.13-3.96-6.03-7.96,1.13-2.15,2.98-4.06,4.85-5.66,7.27-6.23,15.59-10.76,24.42-14.36,1.73-.7,2.77-1.53,2.41-3.63-3.02-17.53-1.39-34.97,1.71-52.26,2.59-14.47,5.98-28.79,9.04-43.18.45-2.11,1.26-4.2,3.89-3.72,2.61.48,2.6,2.71,2.41,4.85-1.78,19.56-3.86,39.1-5.18,58.69-.69,10.2-.09,20.5.06,30.75.06,3.91.25,3.91,4.06,3.59,5.94-.5,11.81-.43,17.3,2.38,2.04,1.05,3.98,2.25,3.83,4.93-.14,2.54-2.05,3.64-4.12,4.34-9.81,3.31-19.71,6.35-29.44,9.87-8.37,3.02-16.55,6.56-24.82,9.83-1.69.67-3.44,1.21-4.38,1.54Z" style="fill: #000; stroke-width: 0px;"/>
  <path d="M400.5,209.76c-2.03-21-4.06-41.99-6.08-62.99-.13-1.35-.66-2.81-.31-4.01.4-1.37,1.59-2.5,2.44-3.74,1.2.91,2.41,1.82,3.59,2.75.12.09.11.36.15.55,5.15,21.66,10.35,43.32,12,65.62.74,9.97.84,19.93-.98,29.81-.41,2.24.35,3.36,2.42,4.17,8.33,3.29,16.1,7.61,23.07,13.26,1.94,1.57,3.77,3.35,5.35,5.28,1.86,2.26,1.9,5.34.35,7.27-1.8,2.23-4.24,2.73-6.81,1.77-3.8-1.42-7.46-3.26-11.28-4.62-12.76-4.54-25.56-8.94-38.34-13.42-3.01-1.06-6.12-1.96-8.93-3.42-1.32-.68-2.79-2.47-2.85-3.82-.06-1.35,1.23-3.28,2.49-4.09,5.58-3.57,11.89-3.68,18.24-3.18,4.1.32,4.26.33,4.32-3.91.12-7.74.03-15.48.03-23.22.38-.02.75-.05,1.13-.07Z" style="fill: #000; stroke-width: 0px;"/>
  <path d="M659.57,627.77c-1.19,4.13-1.89,8.48-3.67,12.33-3.38,7.32-11.14,11.01-19.04,9.47-1.32-.26-3.15-1.69-3.36-2.83-.2-1.1,1.39-2.54,2.23-3.8.14-.2.51-.26.78-.36,10.04-3.55,11.29-10.38,7.74-19.18-.97-2.41-2.31-4.67-3.45-7.01-.72-1.47-1.54-2.92-2.03-4.48-1.03-3.27-.07-6.4,2.27-8.08,2.45-1.75,5.67-1.87,8.36.32,1.97,1.61,3.7,3.69,5.01,5.88,2.9,4.88,4.4,11.56,4.42,17.52.25.07.49.14.74.21Z" style="fill: #000; stroke-width: 0px;"/>
  <path d="M52.17,627.89c.69-6.32,1.88-12.29,4.97-17.68,1.32-2.29,3.16-4.41,5.17-6.14,2.46-2.11,5.68-1.98,8.1-.28,2.44,1.72,3.55,4.6,2.53,7.71-.75,2.27-2.05,4.36-3.01,6.57-1.37,3.19-3.02,6.32-3.89,9.64-1.72,6.54.66,11.08,6.75,13.95.87.41,1.78.76,2.67,1.13,1.75.74,3.35,2.04,2.59,3.9-.53,1.29-2.29,2.68-3.69,2.92-8.43,1.44-16.24-2.88-19.38-10.87-1.36-3.45-1.89-7.23-2.79-10.86Z" style="fill: #000; stroke-width: 0px;"/>
  <path d="M28.34,541.64c.21-4.28.68-9.2,3.39-13.54,2.89-4.63,8.55-5.55,11.68-1.59,1.34,1.7,1.97,4.42,1.91,6.65-.08,3.04-1.12,6.06-1.79,9.08-1.66,7.53-.19,13.82,6.9,18.01,1.71,1.01,3.07,2.75,1.79,4.54-.79,1.1-2.92,1.92-4.34,1.78-12.14-1.22-19.56-10.55-19.54-24.92Z" style="fill: #000; stroke-width: 0px;"/>
  <path d="M683.25,542.36c0,5.22-1.04,10.16-3.79,14.67-3.79,6.23-9.65,9.01-16.63,9.59-1.21.1-3.22-.96-3.62-1.97-.4-1.01.35-3.34,1.3-3.89,9.11-5.29,9.24-13.19,6.82-21.98-.51-1.86-.95-3.76-1.19-5.66-.5-3.94,1.56-7.5,4.86-8.65,3.25-1.13,7.48.29,9,3.94,1.82,4.37,2.75,9.12,4.07,13.7-.27.08-.55.16-.82.24Z" style="fill: #000; stroke-width: 0px;"/>
  <path d="M586.14,283.36c-2.32,0-4.64.04-6.96-.01-1.91-.05-3.79-.83-3.63-2.87.1-1.26,1.47-3.06,2.67-3.48,4.92-1.72,10-2.94,14.99-4.47,2.86-.88,5.71-1.84,8.44-3.03,3.72-1.62,6.12-4.56,7.72-8.27,2.16-5.02,5.43-6.91,9.03-5.39,3.42,1.44,4.71,5.63,3.05,10.33-2.42,6.84-7.43,11.15-13.98,13.82-6.84,2.79-14.06,3.33-21.34,3.36Z" style="fill: #000; stroke-width: 0px;"/>
  <path d="M125.34,283.31c-7.09,0-14.12-.51-20.8-3.13-6.48-2.53-11.6-6.63-14.1-13.31-.72-1.92-1.01-4.17-.85-6.22.19-2.44,1.73-4.34,4.24-4.99,2.56-.66,4.81.06,6.47,2.18.65.83,1.27,1.75,1.62,2.73,2.01,5.58,6.16,8.78,11.61,10.47,5.72,1.77,11.5,3.36,17.25,5.05,1.02.3,2.28.4,2.96,1.07.99.97,2.17,2.42,2.09,3.58-.07.92-1.81,2.29-2.96,2.46-2.45.38-5.01.12-7.52.12Z" style="fill: #000; stroke-width: 0px;"/>
  <path d="M234.5,836.53c1.25-.1,2.58-.51,3.74-.23,1.56.39,3.84.98,4.26,2.08.5,1.31-.14,3.69-1.16,4.83-5.82,6.53-16.25,7.36-23.47,1.68-9.47-7.45-11.88-17.72-10.43-29.13.37-2.91,1.46-5.82,2.68-8.52,1.61-3.56,4.62-4.95,7.43-3.97,2.85.99,4.02,3.85,3.17,7.78-.45,2.08-1.35,4.15-1.34,6.22.02,3.91-.11,8.01,1,11.68,1.92,6.33,5.97,8.15,14.12,7.58Z" style="fill: #000; stroke-width: 0px;"/>
  <path d="M477.1,836.54c10.12.68,15.47-4.13,15.48-14.36,0-3.33-.92-6.67-1.43-10.01-.2-1.33-.92-2.84-.52-3.95.63-1.76,1.68-4.02,3.16-4.65,1.48-.63,3.81.21,5.54.94.99.42,1.67,1.82,2.26,2.91,5.97,11.01,2.91,28.12-6.45,36.37-7.2,6.34-17.35,6.41-24.32.18-1.65-1.48-3.12-3.13-2.1-5.51.97-2.27,3.08-2.35,5.2-2.18,1.06.09,2.12.17,3.18.25Z" style="fill: #000; stroke-width: 0px;"/>
</svg>