<?xml version="1.0" encoding="UTF-8"?>
<svg id="Layer_1" data-name="Layer 1" xmlns="http://www.w3.org/2000/svg" viewBox="0 0 739.42 900">
  <path d="M546.47,849.68c-5.83,0-11.67.03-17.5-.01-3.37-.03-5.38,1.39-6.36,4.75-.76,2.63-2.03,5.14-3.28,7.6-6.13,12.04-16,17.89-29.5,17.4-7.67-.28-15.37-1.34-23-.98-8.04.39-16.22.4-22.39,7.98-3.12,3.84-8.67,6.46-13.62,7.92-19.23,5.67-38.78,6.94-58.78,3.82-6.92-1.08-14.33.61-21.47,1.4-15.82,1.75-30.92-1.96-45.77-6.45-4.38-1.33-7.84-5.59-11.85-8.3-2.53-1.72-5.17-3.43-8.01-4.51-6.62-2.5-13.51-2.1-20.44-1.34-3.96.44-7.98.35-11.98.42-16.42.27-26.86-2.02-35.74-24.69-1.32-3.38-3.05-5.07-6.63-5.04-9.22.08-18.44-.21-27.65.18-13.81.59-23.43-5.08-29.78-17.44-4.38-8.53-8.37-17-10.16-26.55-.86-4.57-3.01-9.01-5.15-13.22-4.06-7.99-7.74-16-8.48-25.13-.18-2.18-1.54-4.28-2.44-6.39-2.7-6.34-5.82-12.52-8.07-19.01-5.39-15.53-10.23-31.25-15.6-46.79-1.64-4.76-3.87-9.43-6.54-13.69-7.5-11.95-6.89-23.92-.63-35.91,1.89-3.61,1.93-6.67.66-10.47-2.43-7.27-4.06-14.8-6.31-22.12-1.99-6.45-4.17-12.85-6.64-19.12-5.06-12.88-4.13-24.87,4.14-36.24,3.63-4.98,2.78-6.21-2.74-8.48-9.79-4.02-19.48-8.3-29.06-12.81-8.01-3.77-11.88-10.54-11.92-19.27-.03-5.83.43-11.67.92-17.48.24-2.9-.43-4.7-3.49-5.4-1.93-.44-3.71-1.55-5.64-2-10.8-2.49-15.65-9.94-17.34-20.25-4.34-26.38-8.75-52.76-13.16-79.13-1.24-7.43-2.88-14.8-3.79-22.27-.84-6.83-1.42-13.75-1.25-20.61.18-7.27,3.55-13.41,9.71-17.49,3.25-2.16,3.65-4.48,3.09-8.14-2.47-16.25-4.61-32.56-6.75-48.86-.82-6.24.7-11.95,3.15-17.85,2.05-4.92,2.59-10.75,2.56-16.18-.06-11.91.6-23.6,4.06-35.11,1.12-3.73,1.2-7.91,1.09-11.86-.42-15.16,5.85-26.46,19.09-33.75,10.5-5.78,21.07-11.42,31.74-16.88,3.65-1.87,5.15-4.29,4.9-8.38-.3-4.9-.31-9.85-.01-14.75,1.05-17.05,10.66-29.7,26.81-34.88,28.01-8.98,56.4-16.19,85.89-18.48,4.87-.38,9.98-2.11,14.29-4.47,11.44-6.27,22.63-13.02,33.66-19.99,8.17-5.16,16.06-10.79,23.85-16.53,10.83-7.98,17.73-8.42,29.11-1.5,1.03.63,3.13.88,3.97.26,13.39-9.85,29.04-14.55,44.48-19.63,25.85-8.5,51.57-6.9,76.87,2.23,12.96,4.68,26.31,8.68,37.43,17.45.78.61,2.92.3,3.95-.34,10.85-6.76,17.96-6.2,28.41.94,12.53,8.56,25.52,16.46,38.31,24.64,5.57,3.56,11.28,6.9,16.7,10.67,5.6,3.89,11.64,6.08,18.42,6.53,29.2,1.97,57.26,9.36,84.99,18.22,16.04,5.12,25.64,17.56,26.79,34.39.34,5.05.34,10.16.02,15.21-.26,4.13,1.28,6.59,4.91,8.38,7.03,3.46,13.96,7.13,20.87,10.82,4.33,2.32,8.61,4.76,12.82,7.3,11.35,6.84,16.67,16.96,17.2,30.2.3,7.43,2.21,14.79,3.05,22.22.87,7.77,1.65,15.57,1.88,23.38.24,8.31.35,16.36,4.23,24.21,1.9,3.84,2.03,9.06,1.52,13.49-1.89,16.48-4.27,32.92-6.73,49.33-.49,3.29-.12,5.49,2.81,7.41,6.65,4.37,10.02,10.85,10.23,18.66.16,5.8.01,11.72-.92,17.43-5.29,32.46-10.86,64.87-16.33,97.29-.28,1.67-.6,3.33-.83,5-1.55,11.17-6.52,19.43-18.43,21.93-1.64.34-3.13,1.33-4.77,1.7-3.04.67-3.8,2.45-3.51,5.38.51,5.35.9,10.73,1.01,16.1.2,9.87-4,17.26-13.16,21.34-9.81,4.37-19.66,8.66-29.62,12.67-3.07,1.24-3.83,2.73-2.48,5.52.53,1.1,1.15,2.18,1.87,3.17,7.66,10.61,8.44,21.9,4.25,34.15-5.16,15.09-9.79,30.36-14.39,45.63-.53,1.77.03,4.3.95,6.02,6.93,12.95,6.47,24.94-.28,38.51-7.88,15.85-13.05,33.08-18.91,49.88-3.59,10.28-5.83,21.05-12.07,30.28-.83,1.22-1.38,2.84-1.48,4.31-.65,9.62-4.62,18.01-8.98,26.38-2.24,4.3-4.08,9.03-4.93,13.78-2.2,12.31-8.04,22.84-15.02,32.85-4.13,5.93-10.25,8.78-17.35,9.14-5.82.29-11.67.06-17.51.06,0,.08,0,.17,0,.25ZM111.13,651.3c-1.44,14.28.99,24.21,3.47,34.27,5.76,23.38,13.06,46.11,24.55,67.38,1.38,2.54,2.27,5.37,3.22,8.12,2.53,7.36,4.88,14.77,7.46,22.12,1.27,3.62,2.63,7.24,4.36,10.66,5.18,10.25,10.56,20.39,15.85,30.58,2.47,4.76,6.51,6.41,11.7,6.71,11.18.64,22.34,1.62,33.5,2.5,8.97.71,14.54,5.47,17.49,13.98,4.92,14.19,7.55,15.69,22.32,14.54,10.48-.81,21.06-3.44,31.32,1.35.92.43,2.12.32,3.19.37,6.85.33,12.08,3.36,15.35,9.42,2,3.69,5,5.71,9.08,6.28,2.89.4,5.78,1.07,8.67,1.1,15.92.17,31.85.19,47.77.25.46,0,.92-.1,1.38-.11,7.64-.08,15.27-.11,22.91-.25,9.66-.17,19.32-.25,28.97-.72,4.83-.24,8.66-2.46,11.05-7.12,2.19-4.25,5.81-7.34,10.64-8.14,11.1-1.83,21.99-5.92,33.57-2.97,2.93.75,6.11.61,9.18.74,10.35.44,12.85-1.15,16.93-10.62.43-.99.86-1.98,1.15-3.01,2.71-9.88,9.3-14.73,19.4-15.35,10.72-.66,21.41-1.67,32.14-2.26,5-.28,8.87-1.92,11.4-6.43,4.05-7.22,8.71-14.15,12.22-21.61,4.5-9.58,8.14-19.57,12.11-29.4.98-2.41,1.89-4.85,2.71-7.32,1.77-5.34,3.14-10.85,5.26-16.05,3.02-7.39,7.22-14.33,9.76-21.86,5.1-15.12,9.19-30.58,14.15-45.75,3.73-11.4,3.72-22.93,3.01-34.65-.23-3.78-.1-7.73.73-11.41,3.5-15.59,7.14-31.16,11.09-46.64,2.25-8.82,1.03-16.74-2.78-24.99-2.27-4.91-2.84-10.89-2.98-16.42-.16-5.95,3.67-9.76,9.29-11.86,8.32-3.11,16.56-6.44,24.82-9.71,6.23-2.46,9.46-6.78,9.38-13.77-.07-6.6.24-13.23.93-19.79.72-6.91,4.07-10.51,10.57-11.6,8.77-1.47,13.73-5.86,15.18-15.12,5.16-32.95,10.88-65.81,16.2-98.73.73-4.51.78-9.23.38-13.78-.24-2.73-1.27-6-3.11-7.88-7.1-7.23-8.37-15.53-6.62-25.1,2.74-14.97,5.12-30,7.27-45.06.54-3.79.18-7.94-.75-11.68-2.61-10.53-6.54-20.8-8.42-31.44-2.02-11.44-2.47-23.18-3.29-34.81-.66-9.43-4.35-16.83-12.77-21.57-3.48-1.96-6.88-4.07-10.36-6.01-7.65-4.27-15.31-8.52-23.01-12.69-7.75-4.2-11.64-10.62-11.69-19.45-.02-4.15-.18-8.3-.42-12.44-.82-14.62-7.43-22.84-21.32-26.9-25.17-7.36-50.96-11.35-76.89-14.75-5.79-.76-12.11-2.36-16.83-5.57-19.57-13.28-38.76-27.15-57.82-41.17-7.87-5.79-8.13-6.31-16.44-.95-5.07,3.27-9.88,3.6-15,.07-2.37-1.64-5.13-2.76-7.79-3.93-23.14-10.13-47.47-13.31-72.52-12.65-24.65.65-48.06,5.78-69.97,17.53-2.77,1.49-7.02.72-10.48.22-1.94-.28-3.68-2.11-5.44-3.34-3.33-2.31-6.49-2.19-9.78.21-16.88,12.31-34.05,24.25-50.63,36.95-10.49,8.03-21.74,12.56-34.93,13.86-24.04,2.38-47.73,7.04-70.93,13.92-11.79,3.5-18.67,11.89-19.71,24.25-.4,4.74-.7,9.52-.66,14.28.08,9.06-3.85,15.59-11.73,19.9-3.77,2.07-7.49,4.24-11.23,6.37-8.01,4.55-16.11,8.96-24.01,13.7-5.52,3.31-9.17,8.24-10.02,14.77-1.32,10.2-3.44,20.44-3.38,30.64.08,12.97-3.5,25.03-7.73,36.74-2.58,7.13-2.84,13.51-1.64,20.57,2.54,15,4.86,30.04,7.22,45.07.92,5.85.5,11.88-3.83,16.04-7.61,7.32-7.35,16.14-6.11,25.25,1.1,8.06,2.8,16.05,4.12,24.08,4.19,25.48,8.5,50.94,12.4,76.46,1.31,8.55,6.23,12.47,14.12,13.98,7.47,1.43,10.66,4.66,11.45,12.33.66,6.41.88,12.88.88,19.33,0,6.47,2.74,10.93,8.64,13.34,8.23,3.35,16.45,6.73,24.81,9.73,5.98,2.15,10.15,5.93,10.02,12.29-.11,5.52-.8,11.46-3.04,16.4-3.67,8.1-5.05,15.92-2.79,24.56,2.22,8.47,4.34,17,5.82,25.62,2.26,13.21,9.12,25.79,6.29,35.98Z" style="fill: #000; stroke-width: 0px;"/>
  <path d="M624.54,528.34c-.02.13-.15,1.17-.35,2.2-1.84,9.94-3.79,19.86-5.46,29.83-.26,1.58.15,4.24,1.21,4.93,5.61,3.67,7.24,8.9,6.95,15.11-.99,20.8-5.99,40.68-13.76,59.94-.65,1.61-.65,4.5.36,5.61,5.34,5.92,6.15,12.73,4.15,19.86-2.83,10.05-5.98,20.02-9.49,29.86-7.09,19.89-15.81,39.03-27.44,56.74-1.71,2.6-2.07,4.68-.23,7.5,3.08,4.76,2.68,9.84.35,14.96-4.72,10.34-9.34,20.72-13.83,31.15-5.57,12.94-10.18,16.18-24.31,15.93-11.06-.2-22.12-.65-33.16-1.28-2.78-.16-4.1.46-4.18,3.25,0,.31-.08.61-.12.91-2.01,14.56-6.54,19.17-21.26,20.22-6.08.43-12.25-.53-18.38-.86-8.28-.44-16.56-.88-24.83-1.33-3.67-.2-5.43,1.22-6,5.16-1.47,10.31-6.62,15.19-16.93,16.33-11.14,1.24-22.3,2.39-33.48,3.16-4.2.29-8.47-.6-12.72-.94-1.06-.09-2.24-.47-3.18-.16-9.76,3.25-19.53.28-29.27,0-5.81-.16-11.59-1.29-17.38-2-10.54-1.29-15.73-6.03-17.29-16.55-.55-3.68-2.14-5.19-5.63-5.01-8.43.43-16.86,1.01-25.29,1.32-7.49.28-15.12,1.16-22.47.19-11.81-1.57-15.9-6.41-16.88-18.24-.37-4.48-1.56-5.76-6.36-5.37-11.17.9-22.41.84-33.62,1.23-10.32.36-17.13-4.33-21.13-13.83-4.82-11.46-9.99-22.78-15.05-34.14-2.08-4.68-2.23-9.39.5-13.7,1.96-3.1,1.6-5.42-.27-8.35-16.37-25.61-27.36-53.58-35.87-82.61-2.53-8.63-3.08-16.95,3.98-24.14.75-.77.48-3.16-.06-4.49-7.59-18.65-12.45-37.94-13.92-58.05-.52-7.13.47-13.5,7.32-17.64.87-.52,1.36-2.63,1.14-3.84-1.83-10.4-3.96-20.76-5.78-31.17-.4-2.3-1.05-2.78-3.45-2.93-8.55-.53-17.23-.79-25.55-2.58-11.95-2.57-16.93-11.14-15.87-23.24.82-9.32.67-18.72,1-28.09.09-2.62-1.06-3.61-3.66-4.24-6.26-1.51-12.48-3.27-18.56-5.4-5.77-2.02-9.29-6.4-8.96-12.62,1.15-21.76-3.67-42.79-7.27-63.99-1.38-8.16-2.08-16.47-2.59-24.74-.52-8.28,2.31-12.59,10.07-15.65,3.24-1.28,3.06-3.14,2.56-5.77-3.45-18.27-6.93-36.54-10.15-54.85-.93-5.28-1.69-10.75-1.31-16.04.27-3.67,2.66-7.17,4.03-10.78.71-1.85,1.96-3.84,1.77-5.64-1.85-17.89-.24-35.62,2.44-53.27,1.01-6.68,4.92-12.24,10.64-15.57,12.72-7.39,25.72-14.34,38.83-21.02,3.27-1.67,4.93-3.3,5.43-6.98,1.72-12.63,3.82-25.2,5.75-37.8.91-5.97,4.53-9.83,10.01-11.55,7.16-2.25,14.46-4.2,21.81-5.74,12.17-2.55,24.37-5.1,36.67-6.81,9.84-1.37,19.84-1.56,29.79-2.07,1.75-.09,3.91.34,5.26,1.36,3.34,2.52,5.4,1.11,8.37-.98,8.41-5.89,17.17-11.27,25.9-16.7,9.5-5.91,19.11-11.63,28.66-17.45,2.49-1.51,4.81-3.38,7.45-4.55,5.1-2.27,9.84-1.23,13.25,3.06,1.85,2.33,3.16,2.63,5.63.95,11.3-7.73,23.94-12.45,37.07-16.02,9.78-2.66,19.58-5.26,29.31-8.06,6.19-1.78,12.25-2.35,18.58-.52,12.09,3.51,24.51,6.07,36.34,10.28,10.93,3.89,21.31,9.32,31.83,14.3,2.19,1.04,3.43,1.75,5.38-.57,4.22-5.01,8.99-5.73,14.84-2.9.41.2.86.38,1.21.67,14.02,11.79,30.86,18.89,46.49,28.02,5.14,3.01,9.66,7.07,14.56,10.5,1.12.78,3.15,1.78,3.92,1.3,7.59-4.62,15.9-2.34,23.9-2.84,1.06-.07,2.15.13,3.21.33,19.32,3.6,38.65,7.2,57.96,10.86,2.26.43,4.46,1.16,6.66,1.86,12.05,3.84,13.8,6.76,15.21,19.32,1.3,11.59,3.64,23.07,5.86,34.53.28,1.47,2.48,2.86,4.1,3.72,12.06,6.42,24.34,12.42,36.24,19.09,8.98,5.03,14.26,12.97,15.03,23.47,1.19,16.22,3.8,32.4,1.18,48.72-.2,1.27.39,3.23,1.33,4.04,4.35,3.74,5.41,8.54,4.66,13.79-2.29,15.96-4.66,31.92-7.23,47.84-1.15,7.13-2.76,14.18-4.33,21.23-.61,2.72,0,4.14,2.73,5.27,7.81,3.23,10.86,7.63,9.84,16.21-1.96,16.46-4.92,32.81-6.88,49.27-1.41,11.87-2.23,23.84-2.65,35.79-.34,9.59-2.69,13.76-11.85,16.76-5.25,1.72-10.59,3.21-15.99,4.37-2.75.59-3.57,1.88-3.48,4.39.33,9.36.25,18.76,1.03,28.09,1,12.06-3.77,20.36-15.58,23.01-9.19,2.06-18.73,2.56-28.98,3.86ZM282.04,187.96c0,.05,0,.1,0,.15-11.37,0-22.75.2-34.11-.04-33.79-.72-51.87,20.56-60.68,44.68-1.01,2.75-.61,6.02-.84,9.04-.4,5.17-.24,10.45-1.3,15.48-1.21,5.73-6.04,7.58-11.43,5.34-1.51-.63-3.23-1.31-4.78-1.16-8.21.82-16.37,2.05-24.58,2.86-14.56,1.45-25.41,13.11-25.35,27.72.02,4.44.11,8.98.96,13.32,6.01,30.44,11.67,60.98,18.67,91.2,2.7,11.66,8.15,22.79,13.18,33.79,4.89,10.67,13.71,16.23,25.58,17.91,8.29,1.17,16.4,3.89,24.46,6.35,7.3,2.23,11.33,7.6,12.47,15.12.39,2.58.66,5.18.99,7.77,1.46,11.59,2.81,23.19,4.43,34.75,1.63,11.72,3.58,23.4,5.28,35.11,1.21,8.32-.21,15.99-8.04,20.5-5.92,3.4-8.08,8.31-7.71,14.51.56,9.34.74,18.82,2.56,27.94,9,45.05,18.38,90.03,27.92,134.97,1.15,5.44,3.74,10.69,6.37,15.66,2.33,4.4,6.57,6.48,11.69,5.57,20.7-3.68,41.38-1.93,62,.52,5.66.67,11.1,3.14,16.67,4.71,2.48.7,5,1.65,7.53,1.76,12.53.55,25.08,1.33,37.61,1.07,7.39-.16,14.79-1.87,22.1-3.34,4.31-.87,8.35-3.37,12.66-3.86,21.53-2.44,43.11-4.79,64.75-.89,5.1.92,9.5-.83,11.87-5.2,2.82-5.2,5.55-10.74,6.77-16.46,9.49-44.48,18.84-89,27.66-133.62,2.01-10.16,1.99-20.74,2.54-31.15.23-4.26-1.1-8.33-5.28-10.58-9.41-5.06-11.59-13.17-10.21-23.05,3.51-25.26,6.88-50.55,10.32-75.82,1.09-8.05,5.21-13.82,13.12-16.17,7.93-2.36,15.89-5.08,24.03-6.17,12.12-1.62,20.92-7.45,25.85-18.25,5.02-11,10.24-22.17,13.12-33.83,6.15-24.9,11.1-50.1,15.99-75.29,1.92-9.91,2.64-20.09,3.36-30.18.39-5.57-.79-11.13-4.96-15.38-6.81-6.92-14.7-11.23-24.85-11.27-6.22-.03-12.42-1.58-18.65-2.19-2-.2-4.25,0-6.11.74-5.68,2.22-10.45.32-11.62-5.69-.95-4.9-.78-10.02-1.12-15.04-.2-3.03.26-6.31-.74-9.06-8.79-24.1-26.81-45.23-60.17-44.76-17.67.25-35.38-.79-53,.09-22.78,1.15-44.27-3.33-65.34-11.32-2.31-.88-5.53-.87-7.85,0-21.09,7.93-42.58,12.97-65.34,11.2-6.11-.47-12.29-.07-18.43-.07ZM425.17,111.31c3.35-1.28,7.09,2.05,8.58-2.7,2.84-9.09,5.68-18.18,8.6-27.25.77-2.39.62-4.2-1.95-5.27-15.41-6.48-30.75-13.1-46.23-19.38-6.67-2.7-13.56-4.93-20.49-6.89-2.56-.73-5.66-.65-8.24.06-5.01,1.38-9.71,3.98-14.76,5.17-17.98,4.25-34.32,12.41-50.77,20.41-3.38,1.64-3.9,3.53-2.73,6.92,2.81,8.13,5.5,16.31,7.78,24.6.93,3.38,2.31,4.55,5.73,4.03,16.07-2.45,32.13-5.06,48.27-7.01,6.92-.84,14.13-.98,21.02-.07,15.35,2.03,30.59,4.93,45.2,7.36ZM77.78,349.52c-6.47,2.79-11.23,5.34-16.29,6.88-4.81,1.46-9.93,2-14.95,2.7-3.82.53-5.46,2.52-4.93,6.26.59,4.1,1.09,8.24,2.01,12.27,5.11,22.46,11.76,44.64,11.81,67.99,0,1.04.74,2.71,1.54,3,4.23,1.57,8.59,2.8,13.21,4.24.19-1.54.37-2.28.37-3.01-.13-12.32,2.87-15.5,15.11-16.15,3.31-.18,6.6-.54,10.41-.87-.51-2.59-.92-4.5-1.26-6.42-1.2-6.84-4.39-13.69.19-20.51.35-.52.22-1.54,0-2.23-5.69-17.97-11.43-35.94-17.23-54.16ZM663.3,349.43c-.64.14-1.29.27-1.93.4-5.73,17.93-11.48,35.85-17.12,53.81-.32,1.02.28,2.33.42,3.51.45,3.83,1.44,7.71,1.18,11.49-.32,4.63-1.69,9.19-2.72,14.3,5.24.38,9.83.52,14.36,1.08,8.12,1,11.63,5.26,11.34,13.3-.06,1.63,0,3.26,0,5.21,1.35-.22,2.24-.27,3.08-.52,3.24-.94,6.56-1.73,9.64-3.05,1.07-.46,2.24-2.26,2.24-3.46.05-22.53,6.24-43.98,11.25-65.65,1.1-4.77,1.79-9.65,2.52-14.5.51-3.38-.73-5.65-4.45-6.16-10.49-1.44-21.05-2.67-29.82-9.78ZM260.46,137.31c1.49.24,2.52.46,3.57.56,7.95.71,11.19,3.77,12.2,11.7.33,2.59.65,5.2.62,7.8-.04,3.39,1.46,4.53,4.76,4.55,24.6.16,49.15.1,73.03-7.18,2.76-.84,3.65-1.87,3.47-4.77-.48-7.5-.69-15.03-.79-22.54-.08-6.19-1.16-7.17-7.32-6.53-12.52,1.3-25.04,2.67-37.58,3.61-15.62,1.17-31.27,1.86-46.9,2.96-1.6.11-3.96,1.28-4.46,2.56-.84,2.13-.46,4.73-.6,7.28ZM478.44,137.25c1.12-8.96.54-9.49-7.92-10.04-23.88-1.54-47.76-3.21-71.63-4.91-4.12-.29-8.2-1.15-12.32-1.49-3.16-.26-4.64,1.23-4.68,4.66-.09,8.43-.61,16.85-.68,25.28-.01,1.22,1.35,3.34,2.36,3.54,15.46,2.99,30.53,8.35,46.66,7.43,7.49-.43,15.03.07,22.55.13,10.53.08,9.07.8,9.83-8.85.91-11.53,3.11-13.83,14.6-15.26.43-.05.83-.33,1.22-.49ZM682.66,227.93s-.1,0-.15,0c0-7.52-.2-15.05.09-22.56.14-3.78-.79-6.78-4.01-8.63-7.56-4.34-14.94-9.2-22.94-12.53-15.71-6.55-31.78-12.22-47.72-18.21-2.87-1.08-5.77-2.15-8.72-2.95-5.16-1.4-8.82,1.67-8.48,6.94.08,1.22.36,2.45.34,3.67-.05,3.55,1.59,4.4,5.1,4.63,7.44.48,14.99,1.12,22.21,2.89,7.53,1.84,10.43,6.4,10.54,14.26.08,6.13-.03,12.3-.61,18.4-.37,3.93,1.06,4.69,4.57,4.66,6.59-.06,13.22-.08,19.76.6,8.46.88,12.52,5.04,13.85,13.51.62,3.93.77,7.94.98,11.92.59,11.31.56,11.25,11.91,10.92,2.57-.08,3.42-.9,3.36-3.56-.19-7.97-.07-15.96-.07-23.94ZM110.26,204c0-1.73-.03-4.5,0-7.26.12-9.41,2.91-13.84,11.98-16.03,6.78-1.64,13.92-1.73,20.89-2.62,1.53-.2,4.25-.72,4.31-1.32.41-3.85,1.43-8.34-.08-11.51-1.74-3.64-6.16-2.8-9.91-1.38-17.93,6.8-36.06,13.12-53.82,20.32-7.89,3.2-15.16,7.97-22.59,12.24-3.5,2.01-4.49,5.25-4.38,9.4.36,13.19.45,26.4.31,39.6-.11,10.4-.35,10.25,10.31,9.55,3.25-.21,4.22-1.53,4.31-4.49.14-5.06.36-10.13.83-15.18,1.05-11.35,5.51-15.79,16.96-16.59,5.81-.41,11.66-.35,17.49-.27,3.13.05,4.55-.83,4.05-4.24-.44-3.03-.41-6.12-.65-10.22ZM182.02,507.87c3.19-.44,6.38-.82,9.56-1.32,3.36-.53,4.6-2.34,3.95-5.85-1.1-5.88-1.96-11.81-2.69-17.75-.42-3.39-2-5.11-5.37-5.84-5.69-1.24-11.46-2.44-16.9-4.43-18.37-6.72-33.63-17.03-40.56-36.6-1.79-5.06-4.23-9.88-6.13-14.9-2.73-7.18-2.63-7.2-9.84-5.5-1.19.28-2.41.7-3.61.69-4.29-.03-4.76,2.15-3.61,5.63,2.64,8,5,16.1,7.81,24.04,3.32,9.4,7.97,18.44,10.24,28.06,2.08,8.82,7.23,12.19,15.13,13.34,2.27.33,4.64.8,6.86.46,12.7-1.97,20.55,4.63,25.78,14.97,2.23,4.42,4.78,6.03,9.39,4.99ZM592.33,488.37c3.18-.63,7.97-1.52,12.73-2.52,4.53-.95,6.75-3.83,8.16-8.28,2.99-9.5,6.71-18.77,10.01-28.19,3.04-8.68,6.13-17.35,8.78-26.15,1.75-5.82,1.42-5.89-4.74-7.12-1.8-.36-3.65-.71-5.33-1.41-2.78-1.17-4.07-.39-5.1,2.45-2.37,6.48-5.31,12.76-7.67,19.24-7.51,20.56-23.86,30.8-43.36,37.29-4.79,1.6-9.92,2.19-14.69,3.84-1.77.61-3.85,2.72-4.24,4.49-1.38,6.29-2.01,12.73-3.09,19.09-.56,3.3.77,5.04,3.92,5.45,3.8.5,7.63.75,11.42,1.28,3.31.46,5.16-.59,6.85-3.77,5.18-9.75,11.61-18.11,26.36-15.69ZM533.36,133.16c2.51.21,4.3.44,6.1.49,8.13.24,16.26.31,24.38.69,7.79.36,14.61,2.99,20.02,8.99.96,1.07,3.34,1.17,5.07,1.17,4.8,0,9.84-1.3,14.34-.23,6.95,1.65,13.54,4.83,20.28,7.37,1.19.45,2.38.88,4.42,1.63-.95-8.05-2.34-15.15-2.45-22.27-.1-6.3-2.9-8.94-8.59-10.31-17.59-4.23-35.08-8.92-52.69-13.07-6.53-1.54-13.31-2.07-19.98-3.01-2.72-.38-4.38.86-5,3.55-1.88,8.04-3.79,16.08-5.9,25ZM111.48,153.44c2.14-.92,3.46-1.55,4.83-2.06,6.6-2.47,13.06-5.58,19.87-7.14,4.51-1.03,9.53.3,14.33.3,1.72,0,4.03-.27,5.05-1.37,5.35-5.79,12-8.45,19.63-8.81,8.27-.39,16.56-.46,24.84-.73,1.75-.06,3.5-.39,5.74-.65-1.94-8.3-3.86-16-5.51-23.76-.8-3.77-2.84-5.14-6.53-4.6-5.16.75-10.43.98-15.47,2.2-19.23,4.65-38.36,9.68-57.57,14.41-4.53,1.12-6.6,3.45-6.81,8.27-.28,6.27-1.36,12.5-2.06,18.75-.16,1.44-.19,2.9-.33,5.2ZM447.94,110.57c1.44.7,1.71.94,1.99.95,8.75.16,17.5.16,26.23.46,16.13.55,18.48,2.8,19.33,18.91.21,3.99,1.18,5.76,5.42,4.52,2.04-.6,4.25-.63,6.36-1.01,4.42-.79,10.23-.22,12.85-2.84,2.77-2.76,2.78-8.54,3.38-13.08.21-1.61-.91-4-2.21-5.1-3.51-2.94-7.44-5.39-11.21-8.02-15.74-10.94-31.47-21.88-47.23-32.81-.34-.24-.85-.23-2.21-.57-4.24,12.85-8.46,25.68-12.72,38.58ZM278.23,70.88c-16.34,11.42-31.54,22.03-46.72,32.66-4.64,3.25-9.27,6.54-13.82,9.92-1,.75-2.46,2.12-2.31,2.96.91,5.28,1.41,10.91,3.8,15.51.97,1.87,6.35,1.47,9.72,2.07,1.06.19,2.13.28,3.2.42q10.94,1.42,12.08-9.3c.03-.31.04-.61.08-.92,1.02-7.84,4.78-11.55,12.65-11.87,9.51-.38,19.03-.42,28.55-.63,1.64-.04,3.27-.15,6.08-.29-4.46-13.58-8.68-26.44-13.3-40.55ZM171.96,740.47c1.89-3.13,2.9-5.18,4.26-6.96,3.59-4.72,2.88-8.97.62-14.38-5.84-13.98-10.79-28.35-15.78-42.68-1.97-5.66-.87-10.89,4.31-14.81.9-.68,1.8-2.45,1.54-3.4-1.69-6.16-3.69-12.23-5.88-19.23-7.04,5.21-13.44,10.1-20.02,14.75-3.4,2.41-4.37,5.28-3.06,9.14,3.79,11.18,6.71,22.74,11.51,33.47,6.56,14.64,14.54,28.65,22.51,44.11ZM578.3,638.82c-2.23,7.19-4.24,13.27-5.92,19.44-.26.95.65,2.72,1.55,3.4,5.19,3.93,6.22,9.2,4.26,14.83-5.03,14.47-10.22,28.89-15.85,43.13-2.79,7.05-1.3,14.55,5.36,19.57,4.36-8.11,8.63-16.22,13.07-24.24,9.11-16.47,16.28-33.71,20.46-52.1.47-2.06.72-5.42-.44-6.41-7.06-6-14.55-11.49-22.5-17.62ZM488.38,153.18v-.34c-3.08,0-6.16.21-9.2-.05-5-.42-3.67,3.58-4.21,6-.65,2.9,1.56,3.2,3.75,3.1,18.61-.89,36.69,2.71,54.6,6.99,6.13,1.47,12.83,3.61,17.47,7.57,6.06,5.16,11.44,7.81,18.91,4.27.4-.19.9-.17,1.36-.19,2.61-.14,3.37-1.47,2.94-3.98-.67-3.93-1.05-7.91-1.65-11.85-1.38-8.94-3.01-10.64-11.91-11.69-19.24-2.28-38.49-3.6-57.82-.83-4.69.67-9.48.69-14.22,1.01ZM211.36,150.1c-11.63,1.07-22.96,1.92-34.25,3.21-6.71.77-8.59,2.79-9.74,9.11-.66,3.62-1.05,7.3-1.56,10.95-.89,6.35-.88,6.31,5.6,7.65,1.95.4,3.81,1.46,5.75,1.56,1.73.09,4.12-.14,5.16-1.24,6.4-6.74,14.22-10.59,23.15-12.5,18.04-3.85,36.06-7.76,54.7-6.95,2.15.09,4.78.08,4.07-3.27-.53-2.5.54-6.19-4.43-5.85-5.34.37-10.76.3-16.11-.05-10.87-.71-21.72-1.74-32.35-2.62ZM148.19,194.17c-4.12.25-10.99.66-17.88,1.07-2.76.16-4.11,1.44-4.07,4.37.06,4.44-.33,8.9-.12,13.33.06,1.25,1.43,3.38,2.4,3.5,9.65,1.23,14.49,7.48,16.81,16.06,1.24,4.56,3.39,5.58,7.6,3.9,1.96-.78,4.17-1.13,6.29-1.26,3.58-.24,4.56-1.98,5.22-5.48,1.87-9.89,4.16-19.73,6.94-29.4,1.15-3.99.15-5.03-3.42-5.18-5.67-.24-11.33-.52-19.79-.9ZM100.41,298.66c-4.98.5-9.37,1.33-13.75,1.26-4.46-.06-5.33,1.52-4.87,5.73,1.84,17.11,6.51,33.4,13.42,49.1,5.96,13.54,10.65,27.46,12.97,42.12.71,4.5,2.37,5.46,7.03,4.27,4.22-1.07,1.76-3.99,1.28-5.94-7.01-28.5-12.88-57.18-14.84-86.55-.22-3.3-.8-6.58-1.23-10ZM567.53,196.01c2.41,9.57,4.74,18.45,6.84,27.38.8,3.39-.05,7.94,1.9,10.09,1.96,2.15,6.6,1.65,9.85,2.87,4.54,1.7,6.63.36,7.9-4.25,2.33-8.47,7.26-14.45,16.69-15.67.97-.13,2.31-2.26,2.37-3.52.23-4.29-.2-8.6-.06-12.9.11-3.39-1.42-4.81-4.6-4.82-12.58-.03-25.16-.07-37.75-.02-1.14,0-2.28.6-3.15.84ZM638.99,298.7c-.27,1.4-.53,2.28-.59,3.18-2.2,32.31-8.01,64.01-16.11,95.32-.5,1.92-.84,3.92,2.03,3.96,2.65.03,5.95,1.58,6.63-3.2,2.19-15.49,7.34-30.1,13.58-44.39,6.5-14.87,11.05-30.31,12.64-46.53.21-2.09.24-4.2.36-6.5-6.35-.63-12.24-1.22-18.54-1.84ZM70.5,269.23c-8.35.57-15.8,1.15-23.25,1.55-2.75.15-3.44,1.47-2.97,3.89.98,4.96,1.77,9.97,2.95,14.89,3.93,16.4,8.11,32.75,11.96,49.17,1.17,5,1.24,5.33,6.21,3.59,1.16-.4,2.25-1.01,3.41-1.37,3.47-1.07,3.84-3,3.24-6.59-2.15-12.83-3.74-25.75-5.35-38.66-.23-1.87.05-4.32,1.12-5.73,4.96-6.6,1.83-13.84,2.68-20.73ZM668.78,269.25c1.02,7.02-2.26,14.47,2.87,21.16.98,1.28,1.1,3.58.9,5.32-1.37,11.87-2.56,23.77-4.55,35.54-1.47,8.65-1.89,8.71,6.73,11.35.44.13.88.26,1.32.4,2.25.72,3.21-.02,3.77-2.43,3.36-14.49,6.96-28.92,10.35-43.4,1.71-7.31,3.16-14.69,4.7-22.05.5-2.37.33-4.2-2.89-4.36-7.46-.38-14.91-.97-23.21-1.54ZM509,805.62c12.36.84,24.02,1.37,35.61,2.56,5.15.53,7.56-1.32,9.22-5.91,3.71-10.25,7.92-20.32,11.57-30.59.63-1.77.17-4.62-.91-6.18-4.13-5.91-8.71-11.51-13.18-17.19-.6-.76-1.51-1.28-2.56-2.14-1.76,2.79-3.14,5.36-4.89,7.65-1.96,2.55-2.07,4.8-1.22,8.02.91,3.48.89,7.71-.23,11.12-2.28,6.98-5.56,13.64-8.43,20.43-2.25,5.34-6.16,8.76-11.85,9.94-4.05.84-8.15,1.43-13.13,2.29ZM230.39,805.57c-4.11-.63-6.97-1.15-9.85-1.5-8.11-.98-13.49-5.14-16.28-12.97-2-5.64-4.48-11.11-6.97-16.56-2.09-4.59-2.61-9.08-.52-13.79.47-1.07,1.06-2.66.61-3.46-2.11-3.79-4.57-7.4-7.3-11.7-5.89,7.62-11.28,14.48-16.5,21.46-.6.81-.72,2.46-.35,3.45,4.36,11.48,8.86,22.92,13.33,34.36,1.04,2.66,2.97,3.59,5.82,3.38,12.24-.93,24.5-1.73,37.99-2.67ZM197.65,522.21c-8.64,1.25-16.22,2.31-23.78,3.46-7.27,1.11-7.46,1.19-6.18,8.25,2.55,14.03,5.31,28.01,8.13,41.99.19.94,1.62,2.26,2.53,2.31,6.01.36,7.5-.93,8.34-6.82,1.32-9.24,4.25-17.56,12.3-23.29,1.07-.76,2.14-2.63,1.99-3.83-.92-7.39-2.19-14.75-3.34-22.07ZM541.72,522.2c-1.17,7.24-2.45,14.18-3.28,21.17-.18,1.52.77,3.86,1.98,4.74,8.33,6.04,11.57,14.73,12.24,24.31.42,6.01,4.48,5.36,7.98,5.82,4.27.56,2.61-3.24,3.18-5.21.76-2.65,1.06-5.42,1.59-8.13,2.2-11.3,4.4-22.61,6.63-33.91.55-2.76-.16-4.35-3.25-4.77-8.79-1.2-17.56-2.59-27.06-4.01ZM89.44,260.14c.1,0,.19,0,.29,0-.36,6.44-.35,12.93-1.19,19.3-.64,4.85,1.88,5.25,5.46,5.66,3.98.45,5.11-1.23,5.05-4.94-.17-11.1,4.81-19.53,14.11-25.31,5.86-3.64,12.07-6.7,17.99-10.25,1.15-.69,2.54-2.53,2.38-3.62-1.16-7.75-4.73-10.01-12.54-8.91-9.11,1.28-18.23,2.45-27.39,3.3-3.2.3-4.26,1.4-4.2,4.49.14,6.75.04,13.51.04,20.27ZM649.52,258.17c.11,0,.22,0,.33-.01,0-6.14-.07-12.29.03-18.43.05-2.8-.83-4.03-3.89-4.32-9.15-.87-18.29-1.98-27.39-3.27-7.86-1.12-8.93-.53-12.27,6.77-1.42,3.11-.74,4.56,2.21,6.09,6.26,3.24,12.48,6.63,18.41,10.43,8.95,5.73,13.42,14.16,13.32,24.81-.03,3.4.78,5.33,4.65,4.84,3.27-.41,6.46-.18,5.88-5.32-.8-7.16-.89-14.4-1.29-21.6ZM596.91,632.36c2.07-7.67,4.03-14.73,5.89-21.82,2.38-9.06,4.66-18.14,7.03-27.21.82-3.14-.19-4.76-3.45-5.66-4.87-1.34-9.66-3.08-14.37-4.92-8.6-3.36-8.65-3.47-11.12,5.65-.41,1.53-.4,4.26.51,4.9,6.98,4.96,6.5,11.65,4.86,18.68-1.39,5.99-3.03,11.92-4.29,17.93-.29,1.4-.01,3.83.9,4.42,4.33,2.83,8.97,5.19,14.06,8.02ZM142.15,632.56c4.48-2.57,8.29-5.12,12.4-7,3.09-1.41,3.56-3.22,2.79-6.18-1.74-6.68-3.44-13.38-4.87-20.14-1.29-6.07-.54-11.56,5.06-15.61.96-.69,1.28-2.9,1.13-4.34-.22-2.1-1.27-4.1-1.7-6.2-.63-3.14-2.15-3.48-4.94-2.35-5.68,2.31-11.41,4.53-17.24,6.42-6.14,1.99-6.51,1.89-4.91,8.23,2.99,11.9,6.41,23.7,9.58,35.55.97,3.64,1.71,7.34,2.69,11.6ZM138.69,560.03c4.02-1.15,7.33-2.36,10.75-3,3.29-.62,4.22-2.09,3.72-5.39-1.09-7.29-1.86-14.63-2.65-21.96-.62-5.81-.25-11.33,4.4-15.79,1.19-1.14,2.55-3.37,2.18-4.61-.78-2.64-2.7-4.25-6.13-4.45-7.12-.4-14.19-1.59-21.28-2.49-1-.13-1.98-.44-3.94-.9,2.6,20.13,9.42,38.63,12.95,58.59ZM600.38,559.95c4.25-17.95,8.38-35.23,12.38-52.53.41-1.77.06-3.72.06-6.03-3.3,1.06-5.85,2.34-8.5,2.63-5.46.59-11.01.34-16.44,1.1-2.01.28-3.97,2.21-5.53,3.81-.57.58-.4,3.02.25,3.49,7.2,5.21,6.72,12.52,5.84,20.01-.78,6.55-1.67,13.09-2.18,19.66-.11,1.43.82,3.86,1.88,4.29,3.79,1.51,7.84,2.36,12.24,3.58ZM112.51,504.16c.17-2.1.56-3.77.38-5.37-.72-6.36-1.13-12.81-2.58-19.01-2.3-9.83-5.29-19.5-8.16-29.18-.36-1.21-1.88-3.06-2.74-2.99-5.25.42-10.46,1.3-15.69,2.03-.06.69-.23,1.18-.11,1.58,4.2,14.64,7.44,29.42,7.58,44.76.01,1.23,1.59,3.17,2.81,3.53,5.84,1.72,11.81,3.01,18.51,4.65ZM626.53,504.28c6.25-1.57,11.66-3.15,17.16-4.21,3.39-.66,4.23-2.35,4.68-5.58,1.79-12.87,3.97-25.69,6.06-38.52.33-2.06.9-4.09,1.44-6.49-4.72-.48-9.07-.4-13.1-1.5-3.87-1.05-5.31.21-6.19,3.63-3.3,12.75-6.98,25.4-9.88,38.24-1.01,4.45-.16,9.32-.16,14.44ZM245.35,805.43c.94,5.28,1.86,9.31,2.34,13.39,1.19,10.02,1.11,10.04,11.47,9.19,12.97-1.06,25.92-2.25,38.9-3.13,3.14-.21,3.47-1.89,3.4-4.21-.07-2.4,2.06-5.35-2.59-6.39-4.08-.92-7.89-3.04-11.83-4.61-2.21-.88-4.38-2.27-6.66-2.47-8.84-.79-17.72-1.24-26.59-1.74-2.69-.15-5.39-.02-8.46-.02ZM493.51,805.98c-1.25-.17-2.58-.56-3.88-.5-10.87.53-21.73,1.12-32.59,1.78-1.16.07-2.31.71-3.42,1.2-4.56,1.99-8.97,4.46-13.69,5.93-4.92,1.53-1.72,4.76-2.09,7.17-.38,2.5,1.01,3.33,3.61,3.33,4.27,0,8.54.55,12.81.89,10.39.82,20.78,1.71,31.18,2.43,2.18.15,4.84.52,5.32-2.86.89-6.33,1.8-12.65,2.75-19.37ZM209.68,742.78c3.25-1.35,3.53-3.73,2.86-6.49-1.08-4.47-2.25-8.93-3.28-13.41-3.95-17.19-7.89-34.38-11.74-51.6-.79-3.52-2.03-4.36-5.26-2.17-2.9,1.96-6.08,3.66-9.35,4.87-3.3,1.23-4.37,2.85-3.03,6.19,2.86,7.11,5.15,14.48,8.44,21.37,6.28,13.14,13.09,26.03,19.7,39.01.39.77,1.04,1.41,1.65,2.22ZM528,742.79c.65-.09,1.31-.18,1.96-.27.55-.89,1.16-1.74,1.63-2.67,4.43-8.76,9.08-17.42,13.2-26.33,5.08-10.98,9.72-22.16,14.58-33.24,1.41-3.21.54-5.01-2.88-6.25-3.29-1.19-6.48-2.87-9.38-4.82-3.33-2.25-4.48-1.14-5.25,2.26-4.96,21.69-10.07,43.35-14.91,65.06-.43,1.91.67,4.17,1.06,6.26ZM356.71,788.69c-10.03-.34-10.24-.13-8.68,9.6.39,2.41.78,4.9,1.73,7.12.66,1.54,2.04,3.37,3.5,3.84,4.94,1.6,10,3.24,15.13,3.79,14.48,1.54,21.84-4.8,23.56-19.09.48-3.98-.87-5.29-4.55-5.28-10.23.04-20.46.02-30.69.02ZM317.44,817.25c1.58,9,3.22,16.94,4.28,24.95.52,3.88,1.94,5.76,5.94,6.03,6.9.46,13.76,1.4,20.66,1.89,11.16.8,9.35,1.85,9.8-8.84.16-3.71-.74-5.87-4.74-7.01-7.96-2.26-14.49-6.63-18.03-14.59-.44-.99-1.63-2.28-2.51-2.32-5.3-.22-10.61-.11-15.4-.11ZM421.76,817.25c-4.71,0-10-.14-15.27.12-.99.05-2.26,1.54-2.78,2.65-2.95,6.37-7.96,10.35-14.27,13.02-8.61,3.65-8.6,3.69-8.23,13.2.01.31.03.61.02.92-.11,2.56,1.09,3.63,3.65,3.38,9.47-.89,18.97-1.6,28.41-2.75,1.44-.18,3.49-2.21,3.79-3.68,1.76-8.64,3.08-17.37,4.69-26.87ZM182.95,654.23c9.11-1.31,9.63-2.36,8.55-10.44-2.27-17.01-4.18-34.06-6.26-51.09-.08-.69-.4-1.35-.65-2.16-4.22,1.81-8.03,3.74-12.04,5.08-2.96.99-3.29,2.45-2.53,5.17,1.89,6.8,3.61,13.64,5.25,20.51,2.6,10.87,5.08,21.77,7.67,32.94ZM554.58,590.61c-.62,8.02-.86,15.67-1.86,23.22-1.45,10.96-3.36,21.85-5.25,32.75-.56,3.22-.03,5.4,3.42,6.32,1.58.42,3.09,1.14,4.58,1.7.52-.61.98-.9,1.07-1.29,4.34-17.9,8.68-35.81,12.87-53.75.23-.97-.51-2.88-1.32-3.27-4.26-2.03-8.68-3.7-13.52-5.69ZM519.3,760.85c-1.21,2.61-2.32,4.94-3.37,7.3-5.03,11.29-13.57,18.02-25.88,19.61-3.94.51-7.95.47-11.93.63-4.14.16-8.3.08-12.42.49-1.21.12-2.29,1.54-3.43,2.36,1.15.65,2.24,1.46,3.47,1.9.82.29,1.83.12,2.74.03,12.21-1.22,24.4-3.17,36.63-3.48,10.4-.27,17.82-2.99,19.87-14.16.03-.15.13-.28.19-.42,3.39-7.45,2.4-10.08-5.88-14.24ZM220.1,761.06c-7.54,2.8-9.34,6.7-6.45,13.21,1.25,2.81,2.64,5.58,3.57,8.49,1.25,3.91,3.72,5.49,7.76,5.88,12.38,1.21,24.73,2.81,37.1,4.09,3.96.41,7.98.42,11.97.37.99-.01,1.96-.95,2.94-1.46-.85-.92-1.55-2.15-2.6-2.67-1.02-.5-2.41-.33-3.63-.36-5.99-.15-12-.04-17.97-.44-13.52-.9-23.65-7.04-29.27-19.76-1.1-2.49-2.29-4.94-3.42-7.37ZM311.89,799.81c0-.05,0-.11,0-.16,3.68,0,7.37.12,11.05-.03,4.08-.16,5.08-1.8,2.74-5.09-.92-1.3-3.2-2.13-4.94-2.27-6.42-.52-12.87-.72-19.32-.91-1.9-.06-4.8-1.27-4.72,2.36.06,2.84.6,5.53,4.61,5.47,3.52-.05,7.05.39,10.57.62ZM412.49,798.93c9.31,0,18.39.18,27.43-.25,1-.05,1.97-3.55,2.56-5.56.07-.24-2.41-1.78-3.69-1.76-6.41.1-12.83.84-19.23.72-4.67-.09-6.84,1.7-7.07,6.86Z" style="fill: #000; stroke-width: 0px;"/>
  <path d="M369.48,579.33c3.52-5.74,8-6.18,12.79-5.48,4.86.71,9.7,1.61,14.55,2.39,17.87,2.88,35.75,5.7,53.6,8.66,6.06,1.01,12.02,2.65,18.09,3.51,13.6,1.92,19.71,10.77,21.83,23.23.85,5.01,1.6,9.56,5.4,13.7,4.46,4.85,1,12.87-6.53,14.23-6.19,1.11-7.58,4.34-8.72,9.61-4.52,20.93-17.62,31.7-39.04,30.19-18.95-1.33-37.8-4.44-56.61-7.33-9.98-1.53-19.73-1.64-29.7-.11-18.36,2.81-36.77,5.31-55.22,7.49-7.82.93-15.45-.16-22.77-4.03-11.89-6.28-17.59-16.21-19.09-29.08-.43-3.67-1.97-5.43-5.96-6.12-10.57-1.83-13.07-9.69-6.19-17.88,1.12-1.33,1.72-3.21,2.17-4.93.5-1.92.46-3.97.82-5.93,2.25-12.26,8.14-20.98,21.54-22.99,10.02-1.5,19.94-3.64,29.93-5.33,16.33-2.77,32.68-5.42,49.02-8.12,1.97-.33,3.92-.81,5.9-1.02,5.26-.55,10.64-1.38,14.17,5.34ZM437.88,656.14c.02-.19.04-.37.07-.56,3.22.15,6.44.31,9.67.43,10.56.41,12.6-1.19,14.95-11.68.2-.9.28-1.83.5-2.72.79-3.22-.31-4.75-3.73-5.29-5.3-.83-10.56-2.01-15.77-3.31-19.37-4.82-39.01-6.67-58.92-5.66-5.46.28-10.92,1.26-16.36,1.2-11.6-.13-23.2-1.2-34.79-1.03-16.67.25-32.83,4.24-49,8.01-9.4,2.19-10.16,3.2-6.65,12.49.49,1.29,1.19,2.5,1.69,3.78,1.21,3.12,3.42,4.58,6.79,4.31,14.98-1.21,29.99-2.07,44.92-3.69,18.92-2.06,37.73-4.8,56.86-2.13,16.55,2.3,33.19,3.92,49.8,5.84ZM356.49,594.45c-.85.11-1.48.08-2.03.28-12.6,4.47-25.74,5.55-38.95,6.59-12.86,1.01-25.67,2.66-38.45,4.43-3.02.42-6.51,1.79-8.51,3.92-1.64,1.75-1.4,5.27-1.99,8,2.01.05,4.14.57,6.02.08,24.71-6.4,49.96-8.45,75.32-9.59,13.26-.6,11.07,1.5,9.38-12.11-.05-.42-.39-.81-.79-1.62ZM473,615.24c.35-.28.69-.57,1.04-.85-2.06-2.37-3.78-5.26-6.3-6.96-2.16-1.45-5.19-1.88-7.9-2.19-13.59-1.51-27.22-2.63-40.78-4.29-9.74-1.19-19.49-2.58-29.06-4.68-7.79-1.72-7.68-2.25-8.89,5.9-.84,5.66-.83,5.5,4.86,5.88,16.4,1.1,32.85,1.81,49.16,3.69,11.26,1.29,22.32,4.23,33.46,6.51,2.61.53,4.76.73,4.42-2.99Z" style="fill: #000; stroke-width: 0px;"/>
  <path d="M295.12,485.2c1.82-12.13,3.56-27.24,6.42-42.14,5.46-28.51,11.53-56.9,17.38-85.33.34-1.65.83-3.29,1.44-4.85,1.9-4.82,5.59-7.36,9.77-6.83,4.05.51,7.69,4.07,7.88,8.97.17,4.54-.45,9.18-1.22,13.68-6.45,37.7-13.2,75.35-19.39,113.09-1.23,7.49-.5,15.3-.67,22.96-.12,5.38,2.68,8.67,7.86,8.87,7.29.28,14.66.2,21.92-.49,7.46-.72,14.65-2.43,22.34-.49,4.02,1.02,8.75-1.16,13.09-.89,7.03.43,14.01,1.68,21.02,2.58,1.22.16,2.44.35,3.66.41,12.01.59,16.68-2.84,16.13-14.7-.73-15.76-2.3-31.58-4.87-47.14-4.72-28.64-10.45-57.12-15.7-85.68-.63-3.46-1.2-7-1.16-10.5.06-5.94,3.54-10.12,8.23-10.68,4.57-.54,8.66,2.35,10.08,8.26,4.29,17.76,8.68,35.52,12.21,53.45,4.07,20.65,7.87,41.39,10.57,62.25,1.4,10.85.63,22.06.03,33.06-.8,14.82-8.89,24.15-23.34,27.69-3.33.81-5.06,2.27-6.04,5.79-3.98,14.29-21.72,23.32-37.61,19.9-3.58-.77-7.61-.73-11.19.03-16.39,3.48-32.83-5.7-37.98-21.4-.48-1.45-2.07-2.88-3.51-3.6-2.3-1.16-4.93-1.67-7.38-2.56-9.86-3.59-15.56-10.74-17.23-20.97-1.06-6.51-1.61-13.1-2.75-22.76ZM346.02,530.08c7.92,6.68,40.87,6.54,46.74.02-3.92,0-7.9.95-11.16-.19-8.08-2.81-15.67-3-23.78-.03-3.32,1.21-7.45.2-11.81.2Z" style="fill: #000; stroke-width: 0px;"/>
  <path d="M227.37,396.9c-11.78-.7-22.07-1.05-32.3-1.99-17.61-1.61-28.94-11.27-33.55-28.22-3.55-13.04-6.33-26.28-9.44-39.44-.5-2.09-.65-4.33-1.48-6.27-3.37-7.85-.25-14.18,4.96-19.55,1.89-1.95,5.36-3,8.22-3.26,18.36-1.66,36.73-3.23,55.12-4.32,13.42-.79,26.5-2.96,39.48-6.47,6.74-1.82,13.85-3,20.82-3.12,8.28-.14,14.88,5.86,15.1,13.89.57,20.99,3.09,42.08-1.65,62.94-.85,3.74-1.82,7.47-2.97,11.12-3.78,11.96-11.85,19.45-24.3,21.08-13.08,1.71-26.27,2.53-38,3.61ZM186.66,376.73c-.62-7.16-1.16-13.49-1.73-19.82-.83-9.28,1.81-13.26,10.55-16.31,13.43-4.69,27.18-7.58,41.41-8.42,11.96-.7,23.88-1.92,35.83-2.74,3.11-.21,4.03-1.52,3.53-4.42-.63-3.63-1.22-7.28-1.63-10.94-.37-3.33-1.87-4.43-5.24-3.87-33.31,5.56-66.9,5.73-100.53,5.05-.4,0-.81.34-1.56.67,1.68,10.08,3.12,20.23,5.14,30.27,1.42,7.05,3.36,14.03,5.59,20.87,1.25,3.84,3.49,7.4,8.63,9.65ZM278.12,349.28c-7.83.79-14.8,1.76-21.8,2.15-16.85.93-33.79.53-50.32,4.95-3.48.93-4.59,2.16-4.07,5.59.44,2.87.43,5.82.48,8.73.16,10.11,1.17,11.06,11.37,9.49,1.12-.17,2.69-1.9,2.87-3.08,1.65-10.81,5.84-15.24,16.76-16.82,4.25-.61,8.6-.52,12.83-1.21,15.22-2.47,16.86-1.31,17.9,14.29.26,3.98,2.02,4.43,5,2.91,1.46-.75,3.12-1.7,3.95-3.02,4.6-7.33,4.59-15.56,5.02-24Z" style="fill: #000; stroke-width: 0px;"/>
  <path d="M513.49,396.97c-13-1.13-25.72-1.94-38.36-3.42-13.43-1.58-22-9.35-25.93-22.27-4.34-14.27-5.68-28.89-5.26-43.73.25-8.75.51-17.5.75-26.25.3-10.78,6.6-17.2,17.39-17.27,3.65-.02,7.51.16,10.93,1.28,23.38,7.71,47.63,8.55,71.88,9.81,10.72.56,21.42,1.86,32.09,3.17,7.83.96,14.37,10.14,12.68,17.86-3.51,16.05-7.13,32.09-11.2,48.01-1.35,5.27-3.75,10.44-6.52,15.16-5.46,9.28-14.39,13.82-24.71,15.04-11.26,1.34-22.62,1.79-33.74,2.61ZM572.99,315.26c-6.31.42-11.03,1.14-15.73.99-20.87-.68-41.73-1.51-62.58-2.5-5.5-.26-11-1.09-16.45-2.01-12.87-2.18-12.85-2.26-14.79,10.84-.98,6.65-.96,6.41,5.68,6.94,24.44,1.96,49.12,2.14,72.7,10.4,11.19,3.93,13.64,7.35,12.31,19.01-.63,5.56-.97,11.16-1.52,17.68,5.49-2.4,7.95-6.28,8.95-10.43,4.02-16.65,7.54-33.41,11.42-50.94ZM473.04,377.96c.52-.41,1.04-.82,1.56-1.23.26-3.48.34-6.99.83-10.43.82-5.74,4.66-9.11,10.07-8.56,7.47.75,14.96,1.61,22.34,2.96,9.64,1.77,13.4,6.36,14.73,16.17.17,1.27,2.06,3.32,3.06,3.27,3.73-.18,7.43-1.07,11.12-1.77.11-.02.07-.86.09-1.32.19-5.53.57-11.06.43-16.57-.03-1.29-1.69-3.44-2.86-3.64-10.43-1.75-20.88-3.53-31.4-4.56-10.84-1.06-21.77-1.24-32.65-1.94-2.83-.18-5.63-.85-9.01-1.38-.09,8.47.19,16.34,4.21,23.27,1.46,2.52,4.93,3.86,7.49,5.74Z" style="fill: #000; stroke-width: 0px;"/>
  <path d="M217.2,441.46c-14.64.01-28.07-3.15-41.29-7.33-4.67-1.48-6.96-5.01-6.45-8.9.51-3.83,3.7-6.75,8.65-6.67,6.26.1,12.52.9,18.77,1.53,10.36,1.05,20.69,2.56,31.07,3.22,11.42.73,15.91,4.81,17.09,16.21,3.97,38.5,7.8,77.01,12.29,115.45,1.36,11.66-1.38,20.02-12.16,25.58-4.43,2.29-7.99,6.21-12.29,8.81-1.88,1.14-5.09,1.71-6.85.84-1.18-.59-1.82-4.56-1.08-6.33,3.14-7.47,7.62-14.18,15.28-17.74,3.46-1.61,4.19-3.69,3.74-7.22-4.42-35.02-8.72-70.06-13.05-105.1-.36-2.9-.92-5.78-1.03-8.69-.14-3.5-1.85-4.47-5.06-4.09-2.74.32-5.51.33-7.63.45Z" style="fill: #000; stroke-width: 0px;"/>
  <path d="M521.65,441.39c-.31,0-.61,0-.92,0-10.74-.25-10.69-.24-12.18,10.67-3.15,23.14-6.53,46.25-9.49,69.42-1.59,12.49-2.41,25.07-3.81,37.59-.37,3.34.14,5.36,3.5,6.9,7.85,3.61,12.39,10.45,15.55,18.1.72,1.74-.06,5.39-1.41,6.31-1.38.94-4.74.27-6.49-.85-5.28-3.38-9.97-7.69-15.32-10.94-7.48-4.54-10.43-10.82-9.51-19.35,3.15-29.34,6.23-58.69,9.33-88.03,1.15-10.85,2.3-21.7,3.41-32.56,1.05-10.28,5.73-14.43,16.06-15.29,11.76-.98,23.46-2.6,35.2-3.82,5.18-.54,10.4-1.07,15.6-1.01,4.99.05,8.05,2.84,8.59,6.77.53,3.88-1.78,7.35-6.5,8.85-13.52,4.32-27.27,7.46-41.6,7.23Z" style="fill: #000; stroke-width: 0px;"/>
  <path d="M296.53,208.02c9.5-1.03,17.85,11.9,14.73,21.19-1.28,3.82-3.12,7.2-7.34,8.15-4.15.94-8-.63-10.13-4.01-3.01-4.76-6.98-5.14-11.88-4.74-18.07,1.48-36.15,2.86-54.25,4.01-4.47.28-5.38,2.11-4.78,6.16.93,6.22,1.52,12.5,2,18.78.17,2.26-.09,4.65-.69,6.83-.91,3.36-3.14,5.59-6.84,5.91-3.67.32-6.78-1.26-7.78-4.54-3.5-11.43-7.51-22.89-6.69-35.1.48-7.11,4.7-11.86,11.45-14.17,1.88-.64,3.85-1.17,5.82-1.36,24.01-2.28,48.03-4.49,76.37-7.12Z" style="fill: #000; stroke-width: 0px;"/>
  <path d="M460.92,228.87c-2.45-.14-4.99-.71-7.34-.28-2.2.4-4.31,1.71-6.27,2.92-1.13.7-1.81,2.08-2.83,3-6.08,5.44-13.3,3.56-16.06-4.15-3.57-9.99,3.88-21.36,14.76-21.7,7.18-.22,14.42.51,21.61,1.16,16.98,1.52,33.95,3.22,50.91,4.92,2.74.27,5.5.71,8.15,1.44,7.89,2.19,13.39,8.07,12.52,16.06-1.21,11.07-3.85,22.01-6.44,32.87-.93,3.89-4.48,5.85-8.72,5.09-4.24-.76-6.57-3.87-6.55-7.82.03-6.88.56-13.79,1.35-20.63,1.03-8.9,1.21-8.7-7.76-9.27-15.79-1-31.57-2.24-47.35-3.39,0-.07.01-.15.02-.22Z" style="fill: #000; stroke-width: 0px;"/>
  <path d="M369.44,719.33c-4.61,0-9.22.08-13.82-.02-3.55-.08-4.82,1.13-4.4,4.96.63,5.77.87,11.64.6,17.44-.26,5.47-3.61,9-7.8,9.48-4.44.5-8.43-2.3-9.73-8-1.93-8.51-3.85-17.12-4.6-25.79-.86-10.07,3.94-15.8,13.99-16.14,17.44-.59,34.93-.54,52.38.03,9.33.31,14.5,6.3,13.63,15.61-.87,9.27-3.01,18.45-5.09,27.56-.96,4.19-4.17,6.83-8.79,6.79-4.03-.04-7.68-3.2-8.05-8.07-.47-6.07-.24-12.25.33-18.33.38-4.09-.74-5.7-4.84-5.56-4.6.16-9.21.04-13.82.04Z" style="fill: #000; stroke-width: 0px;"/>
  <path d="M441.45,754.95c-4.43-.45-8.9-.66-13.26-1.43-2.66-.47-5.7-1.23-7.61-2.93-2.17-1.94-4.7-5.23-4.44-7.65.26-2.42,3.45-5.79,5.94-6.43,4.93-1.27,10.28-1.15,15.45-1.21,7.35-.1,14.75.7,22.05.12,10.75-.85,19.26-5.62,22.21-16.87,2.84-10.82,5.28-21.75,7.72-32.67,2.28-10.2,4.25-20.46,6.51-30.66.59-2.67,1.55-5.33,2.76-7.79,1.74-3.52,4.78-5.29,8.74-4.41,4.04.9,5.82,3.95,5.72,7.86-.07,2.73-.57,5.51-1.27,8.16-4.55,17.38-9.46,34.67-13.77,52.1-5.7,23.07-20.13,36.99-42.97,42.57-1.49.36-3.03.61-4.55.66-3.07.1-6.14.03-9.21.03,0,.18-.02.36-.03.55Z" style="fill: #000; stroke-width: 0px;"/>
  <path d="M297.7,754.58c-16.41,1.15-30-5.27-41.99-15.72-7.75-6.75-11.3-16.02-13.95-25.52-5.21-18.61-10.02-37.34-14.9-56.04-.61-2.35-1-4.87-.86-7.27.2-3.46,1.94-6.18,5.6-7.02,3.53-.81,6.6.34,8.28,3.49,1.57,2.94,2.84,6.17,3.53,9.43,2.75,13.06,5.02,26.23,7.89,39.27,1.84,8.37,4.28,16.61,6.68,24.84,2.82,9.7,10.47,13.87,19.57,15.08,6.93.92,14.06.3,21.1.42,5.94.11,11.93-.07,17.82.59,3.62.4,6.61,2.69,6.99,6.88.38,4.17-2.16,7.09-5.57,8.13-6.52,1.98-13.31,3.08-19.99,4.55-.06-.37-.12-.74-.18-1.11Z" style="fill: #000; stroke-width: 0px;"/>
  <path d="M357.49,195.1c14.9.76,31.16,1.19,47.33,2.54,12.74,1.07,18.21,14.95,10.05,25.08-1.61,2-5.22,3.3-7.9,3.29-3.66,0-6.25-3.04-6.57-6.66-.38-4.24-2.6-4.93-6.24-5.53-7.53-1.24-14.94-3.26-22.42-4.83-1.41-.3-3-.25-4.42.05-7.64,1.58-15.21,3.48-22.88,4.87-3.04.55-5.01,1.05-5.46,4.73-.58,4.72-3.88,7.7-7.78,7.73-4.45.04-7.21-2.56-8.44-6.55-.9-2.9-1.53-5.99-1.62-9.02-.22-7.2,3.97-11.97,11.61-13.04,7.75-1.09,15.56-1.71,24.73-2.68Z" style="fill: #000; stroke-width: 0px;"/>
</svg>