<?xml version="1.0" encoding="UTF-8"?>
<svg id="Layer_1" data-name="Layer 1" xmlns="http://www.w3.org/2000/svg" viewBox="0 0 725.8 900">
  <path d="M445.75,890.87c-11.59,0-23.17.02-34.76-.01-4.32-.01-8.1,1.05-11.22,4.34-3.15,3.33-7.24,4.73-11.81,4.73-.74,0-1.49.08-2.23.02-15.27-1.16-30.54-1.12-45.81,0-5.96.43-11.09-1.41-15.23-5.84-2.54-2.72-5.92-3.23-9.38-3.21-13.39.06-26.78.14-40.17.33-30.52.43-60.47-3.34-89.62-12.51-11.64-3.66-19.29-11.39-21.3-23.82-.4-2.47.15-5.09-.11-7.6-.19-1.91-.43-4.19-1.56-5.58-18.11-22.45-32.27-47.37-46.15-72.53-15.78-28.61-22.28-59.57-24.57-91.65-1.43-20.05-1.48-40.17.47-60.21.63-6.43,2-12.8,3.25-19.15.4-2.02.09-3.41-1.39-4.82-23.73-22.65-40.63-50.13-55.14-79.15-8.11-16.22-14.19-33.37-15.64-51.6-.79-9.91.23-19.96.15-29.94-.02-2.52-.61-5.31-1.81-7.5-3.09-5.61-4.95-11.43-5.44-17.82-1.24-16.23-2.78-32.44-8.1-47.97-1.48-4.31-3.6-8.4-5.28-12.64-1.01-2.56-2.01-5.17-2.55-7.86-1.36-6.71.85-12.21,6.48-16.1,2.09-1.44,2.64-2.94,2.1-5.36-5.79-25.81-7.01-51.72-1.54-77.78,1.35-6.45,2.45-12.95,3.64-19.43,4.64-25.36,16.44-47.42,31.32-68.08,17.39-24.15,38.63-44.06,64.68-58.62,3.87-2.16,8.21-3.45,12.2-5.41,1.47-.72,3.13-1.97,3.73-3.39,3.42-7.99,7.73-15.43,13.47-21.91,10.09-11.38,19.97-23.32,33.83-30.17,31.48-15.55,64.36-25.65,100.11-22.5,8.74.77,17.27,2.49,24.81,7.38,1.85,1.2,3,.34,4.46-.84C312.1,6.64,326.03.18,342.19.07c5.22-.04,10.42,1.78,15.68,2.4,3.29.39,6.89.92,9.93,0,12.9-3.89,25.36-3.2,37.69,2.1,7.54,3.25,15.01,6.59,21,12.44,1.39,1.35,2.7,1.33,4.27.33,7.28-4.65,15.49-6.28,23.9-7.18,20.74-2.21,41,.64,60.76,6.72,11.25,3.46,22.22,7.89,33.19,12.22,8.38,3.31,15.78,8.34,22.27,14.6,9.48,9.15,19.26,18.07,26.03,29.59,2.15,3.65,3.72,7.63,5.8,11.33.76,1.35,2.03,2.7,3.4,3.39,5.86,2.94,12.19,5.09,17.74,8.51,39.37,24.32,67.27,58.37,84.68,101.13,1.2,2.95,2.35,5.96,3.05,9.06,6.17,27.17,12.7,54.34,9.6,82.56-1.04,9.48-2.84,18.88-4.44,28.29-.39,2.3.07,3.84,2.07,5.13,6.26,4.04,7.97,10.02,6.48,16.95-.68,3.18-1.92,6.32-3.37,9.26-4.55,9.26-7.45,19.02-8.92,29.16-1.4,9.67-2.44,19.4-3.41,29.12-.64,6.46-2.4,12.44-5.65,18.1-1.15,2-2.04,4.66-1.77,6.87,4.2,34.24-5.34,65.26-21.91,94.63-4.91,8.7-10.25,17.15-15.39,25.72-8.93,14.87-20.34,27.75-32.5,39.99-2.04,2.05-2.7,3.87-1.93,6.74,3.56,13.15,3.96,26.66,4.29,40.17.75,30.64-1.35,60.95-9.29,90.73-4.63,17.36-12.81,33.03-21.28,48.65-11.07,20.41-23.44,39.96-37.38,58.53-1.08,1.44-2.54,2.65-3.39,4.21-.88,1.6-1.93,3.59-1.69,5.23,1.91,12.89-5.08,27.18-22.15,32.21-19,5.6-38.27,10.02-58.12,11.13-11.88.66-23.77,1-35.66,1.49,0-.23-.01-.47-.02-.7ZM84.78,131.32c-1.2,1.05-2.06,1.62-2.7,2.39-7.16,8.7-14.38,17.35-21.29,26.24-.97,1.24-1.04,4.01-.36,5.55,2.98,6.68,6.04,13.39,9.74,19.69,7.55,12.86,16.79,24.11,31.59,29.25.67.23,1.32.73,1.8,1.26,1.62,1.78,1.12,4.37-1.11,5.26-1.04.41-2.28.46-3.42.41-9.75-.44-17.76-4.66-24.51-11.49-9.59-9.7-15.92-21.44-21.07-33.9-.45-1.08-1.09-2.08-1.81-3.44-.82,1.04-1.32,1.58-1.7,2.19-7.09,11.29-13.02,23.13-17.59,35.68-1.48,4.06-.76,6.93,2.05,10.06,10.23,11.45,22.43,19.76,37.17,24.26,2.34.71,4.81,1.22,6.9,2.4,1.22.69,2.62,2.63,2.45,3.8-.17,1.18-2.1,2.2-3.41,3.07-.53.35-1.45.12-2.19.15-18.04.65-32.46-6.99-44.73-19.56-.83-.85-1.77-1.58-2.93-2.59-.39,1.12-.69,1.69-.78,2.29-1.71,11.02-4.08,21.99-4.89,33.08-.85,11.54-2.09,9.82,9.42,13.36,10.34,3.18,20.97,3.03,31.63,2.24,2.15-.16,4.24.12,4.81,2.6.53,2.3-1.01,3.54-2.97,4.25-12.96,4.74-26.03,6.09-39.29,1.19-.77-.28-1.58-.45-2.57-.72-.07.74-.27,1.28-.15,1.74,2.1,8.11,4.16,16.23,6.47,24.28.25.87,2.04,1.79,3.15,1.84,28.88,1.28,57.09-2.25,84.29-12.34,4.85-1.8,9.57-4.1,14.06-6.67,4.19-2.39,4.28-3.5,2.81-8.16-5.26-16.72-15.03-30.86-25.51-44.61-1.74-2.28-3.56-4.55-4.86-7.08-2.52-4.9,1.11-9.99,6.61-9.53,3.77.31,7.19,1.68,9.5,4.64,5.47,7.02,11.42,13.81,15.89,21.45,22.81,39.04,31.73,81.48,29.54,126.41-1.25,25.64-10.96,47.58-29.21,65.73-1.84,1.83-2.96,4.35-4.51,6.48-1.29,1.78-2.47,3.75-4.11,5.13-2.04,1.72-6.37,1.3-8.52-.94-1.03-1.07-1.81-3.42-1.35-4.71,2.15-5.96,4.5-11.89,7.3-17.58,3.51-7.15,7.55-14.04,11.29-21.08.82-1.54,1.59-3.39-1.03-4.03-6.6-1.6-13.18-4.04-19.86-4.42-13.24-.76-26.55-.53-39.83-.38-10.68.12-21.15,1.82-31.27,5.48-2.32.84-3.67,2.13-3.71,4.53-.1,5.19-.36,10.4-.05,15.57.62,10.39.75,10.43,11.2,11.27,15.41,1.23,29.17-3.26,41.64-12.15,1.87-1.33,3.86-2.72,6.03-.86,2.27,1.95,1.54,4.51.03,6.32-3.23,3.87-6.3,8.23-10.39,10.97-13.22,8.88-27.96,11.37-43.59,8.42-4.1-.77-4.36-.6-3.99,3.66,1.17,13.52,5.88,26.07,10.63,38.6.78,2.05,2.33,2.81,4.28,2.46,5.94-1.07,12.1-1.59,17.71-3.62,8.16-2.95,15.93-7.02,23.85-10.63,3.48-1.59,6.84-3.48,10.43-4.74,1.26-.44,3.67.15,4.42,1.13.74.97.23,3.07-.1,4.6-.18.83-1.1,1.53-1.74,2.24-12.48,13.76-27.84,22.07-46.32,24.52-1.18.16-2.33.49-3.45.73.09.67.05.92.15,1.08,8.34,13.19,16.7,26.38,25.06,39.56,1.11,1.74,2.61,1.65,4.14.69,4.77-2.99,9.73-5.73,14.22-9.1,7.74-5.8,15.17-11.99,22.74-18.01,1.68-1.33,3.54-2.31,5.47-.7,1.93,1.61,1.43,3.58.22,5.45-8.73,13.46-19.73,24.44-34.34,31.48-.91.44-1.77.99-2.69,1.51.31.71.39,1.18.66,1.46,6.84,7.11,13.71,14.19,20.55,21.29,2.46,2.56,4.68,2.46,7.36.05,7.67-6.89,15.51-13.59,23.29-20.34,1.65-1.43,3.5-2.32,5.42-.65,1.77,1.55,1.3,3.45.2,5.21-5.66,9.07-11.97,17.58-20.98,23.7-.73.5-1.34,1.19-2.38,2.13,3.72,2.69,7.26,4.87,10.34,7.58,3.72,3.26,7.22,6.81,10.5,10.51,2.06,2.32,1.56,4.6-.66,6.76-3.53,3.45-7.87,3.91-11.77,1.63-7.12-4.15-13.87-8.96-20.72-13.56-1.63-1.09-3.09-2.43-5.27-4.17-.31,2.13-.66,3.41-.67,4.7-.1,11.58-.18,23.17-.2,34.75-.01,5.53.2,5.69,5.8,6.53,12.14,1.81,23.68-.82,35.03-4.76,6.43-2.23,12.81-4.58,19.22-6.85,2.21-.78,4.52-1.27,5.95,1.18,1.45,2.47-.26,4.19-1.89,5.8-.53.52-1.05,1.06-1.63,1.53-17.26,14.19-36.57,20.34-58.78,14.9-2.46-.6-3.39-.06-3.05,2.55,1.43,10.95,2.87,21.9,4.17,32.87.4,3.37,2.14,4.4,5.35,4.34,8.8-.16,17.03-2.58,24.83-6.37,9.75-4.74,19.3-9.87,28.94-14.84,2.03-1.04,4.15-1.64,5.75.48,1.6,2.12.44,3.97-1.1,5.66-9.09,9.97-19.74,17.73-32.28,22.81-7.47,3.03-15.22,4.68-23.34,4.3-4.09-.19-4.25.05-3.12,4.07,4.42,15.63,11.25,30.26,18.36,44.79.98,2,2.35,2.67,4.37,2.03,4.05-1.28,8.34-2.12,12.06-4.06,10.63-5.53,21.04-11.5,31.51-17.34,1.79-1,3.59-1.74,5.25-.09,1.67,1.66,1.14,3.52-.2,5.16-11.03,13.47-24.1,23.94-41.44,28.1-3.41.81-3.54,1.13-1.77,4.21,5.81,10.14,11.48,20.38,17.49,30.4,3.27,5.45,7.14,10.54,10.7,15.81,1.67,2.47,2.87,2.06,4.43-.25,5.17-7.67,11.76-13.95,19.46-19.07,11.29-7.5,23.66-12.54,36.82-15.53,20.37-4.62,40.49-4.23,60.17,3.53,2.94,1.16,6.21,1.65,8.96,3.13,2.49,1.33,4.88,3.29,6.58,5.54,1.48,1.95,2,4.65,2.8,7.07,2.37,7.16,4.3,14.5,7.1,21.49,3.03,7.57,5.85,15.53,10.56,22.02,5.1,7.02,12.27,12.55,18.58,18.68.46.45,1.33.65,2.02.67,2.97.06,5.96-.23,8.91.04,5.67.52,9.79-1.5,14.35-5.18,11.11-8.96,18.58-19.99,23-33.34,3.01-9.08,5.97-18.17,8.92-27.27,1.78-5.5,4.59-9.84,11.05-10.36.93-.07,1.86-.48,2.72-.88,16.19-7.54,33.3-9.66,50.78-7.29,27.8,3.77,52.71,13.46,69.78,37.45,1.16,1.63,2.18,1.87,3.46.22,1.05-1.34,2.31-2.54,3.18-3.99,8.75-14.57,17.43-29.18,26.13-43.78,1.27-2.13,0-2.79-1.85-3.21-17.3-3.91-30.35-14.26-41.51-27.44-1.43-1.69-2.8-3.59-1.04-5.67,1.88-2.22,3.99-1.07,5.98.18,4.96,3.1,9.86,6.3,14.93,9.19,8.79,5.01,17.93,9.3,27.81,11.78,1.84.46,3.56.72,4.65-1.43,7.52-14.93,14.39-30.11,19-46.24.78-2.74-.22-3.25-2.78-3.25-4.13,0-8.35.02-12.36-.78-18-3.61-32.36-13.47-44.62-26.74-1.4-1.52-2.09-3.35-.62-5.18,1.44-1.8,3.35-1.61,5.21-.66,3.98,2.03,7.87,4.22,11.9,6.15,8.91,4.25,17.68,8.89,26.89,12.37,5.23,1.98,11.2,2.06,16.86,2.83,2.16.29,3.66-.76,3.97-3.14,1.47-11.27,2.96-22.53,4.44-33.8.33-2.51-.34-3.44-3.18-2.74-22.59,5.57-42.15-.83-59.49-15.5-1.98-1.67-4.68-3.51-2.95-6.59,1.85-3.29,4.82-1.66,7.4-.82,10.1,3.3,20.09,6.95,30.29,9.88,8.14,2.34,16.57,2.51,24.96.86,2.23-.44,3.68-1.3,3.66-3.92-.13-12.33-.15-24.66-.27-36.99-.01-1.28-.39-2.56-.74-4.64-2.98,2.4-5.22,4.49-7.72,6.17-5.89,3.95-11.78,7.95-17.97,11.4-2.12,1.18-5.23,1.37-7.7.94-6.11-1.05-7.59-5.72-4.09-10.7,4.04-5.76,9.98-9.14,15.39-13.22,1.4-1.06,2.75-2.17,4.28-3.39-.74-.78-1.09-1.33-1.59-1.66-8.39-5.61-14.62-13.22-20.03-21.58-.81-1.24-1.91-2.48-2.15-3.85-.22-1.26.12-3.2.98-3.9.85-.69,2.7-.41,4.03-.13.83.18,1.5,1.12,2.22,1.75,7.64,6.6,15.32,13.16,22.9,19.83,2.15,1.89,4.04,2.06,6.07,0,6.64-6.71,13.33-13.36,19.9-20.13,2.7-2.78,2.53-3.11-1.03-4.84-14.48-7.04-25.38-17.98-34.1-31.3-1.21-1.84-1.73-3.82.19-5.45,1.77-1.5,3.6-.8,5.21.5,1.91,1.53,3.7,3.21,5.67,4.65,10.31,7.48,20.65,14.92,31,22.34,2.22,1.59,4.02,1.28,5.56-1.17,7.98-12.67,16.04-25.3,24.04-37.96.3-.48.33-1.14.55-1.98-1.01-.22-1.8-.48-2.6-.56-15.46-1.51-28.78-7.95-40.51-17.83-3.15-2.65-5.97-5.77-8.53-9-.81-1.02-.95-3.54-.24-4.55.71-.99,2.9-1.26,4.42-1.22,1.28.04,2.57.93,3.81,1.53,6.6,3.2,13.14,6.52,19.78,9.64,7.92,3.72,16.08,6.74,24.87,7.67,6.85.72,6.92.66,9.34-5.62.76-1.98,1.52-3.97,2.18-5.99,3.23-9.9,6.71-19.74,7.2-30.31.12-2.55-.49-3.45-3.24-2.84-13.47,2.99-26.42,1.14-38.82-4.75-6.75-3.21-12.5-7.66-16.2-14.35-1.18-2.13-2.21-4.41.03-6.37,2.15-1.88,4.04-.3,6.06.78,6.07,3.24,12.01,6.9,18.41,9.29,9.94,3.72,20.35,4.32,30.73,1.55,1.3-.35,3.27-1.74,3.31-2.72.34-7.72.43-15.47.2-23.19-.04-1.33-1.74-3.37-3.07-3.77-6.08-1.85-12.24-4.17-18.49-4.61-23.81-1.69-47.72-4.17-71.18,3.16-3.79,1.19-4.28,1.57-2.34,5.21,4.04,7.6,8.45,15.02,12.26,22.73,2.43,4.91,4.18,10.17,6.02,15.36.87,2.45-.24,4.33-2.66,5.39-4.97,2.18-8.32.83-11.04-4.12-1.52-2.76-3.14-5.6-5.31-7.83-15.41-15.81-25.48-34.3-27.79-56.42-4.73-45.23,3.66-88.06,24.58-128.39,5.29-10.21,11.3-20.07,19.7-28.07,2.32-2.21,5.67-3.57,8.77-4.68,2.8-1.01,5.49.09,7.27,2.64,1.73,2.48,1.41,5.1-.14,7.49-1.67,2.58-3.54,5.04-5.39,7.5-10.25,13.64-19.76,27.68-24.87,44.24-.95,3.07-.42,5.3,2.3,6.76,4.38,2.35,8.73,4.9,13.37,6.64,27.66,10.39,56.36,14.2,85.8,12.99,1.9-.08,2.97-.74,3.46-2.54,1.92-6.96,3.91-13.89,5.78-20.86.37-1.38.31-2.87.47-4.59-.92.19-1.44.22-1.91.4-12.02,4.7-24.11,4.34-36.24.5-1.52-.48-3.27-.68-4.47-1.59-1.18-.9-2.6-2.68-2.4-3.82.19-1.11,2.18-2.28,3.59-2.69,1.45-.42,3.15.03,4.74.14,11.69.8,23.13-.24,34.21-4.38,2.53-.95,3.57-2.26,3.61-5.11.22-13.53-2.63-26.62-5.21-39.76-.11-.56-.53-1.06-.8-1.59-.43-.35-.86-.69-1.3-1.04-.59,1.14-.95,2.51-1.81,3.39-9,9.29-19.43,16.26-32.39,18.5-4.67.81-9.52.86-14.27.73-1.3-.04-3.25-1.8-3.58-3.11-.25-1,1.38-2.76,2.54-3.75.9-.76,2.35-.9,3.58-1.25,16.54-4.65,30.45-13.35,41.49-26.6,1.98-2.37,2.51-4.63,1.48-7.6-4.53-13.14-10.68-25.47-18.14-37.17-.44-.69-.67-1.52-.99-2.29-1.56,1.73-1.91,2.72-2.39,3.63-4.26,8.06-8.25,16.3-12.92,24.12-3.72,6.22-8.83,11.42-14.89,15.56-5.51,3.77-11.62,5.65-18.25,5.97-2.24.11-4.47-.15-5.01-2.82-.5-2.45,1.19-3.64,3.23-4.43.99-.38,2.05-.67,2.94-1.23,4.38-2.77,9.21-5.07,12.97-8.53,11.9-10.95,19.43-24.87,25.18-39.78.56-1.45.12-3.97-.85-5.22-6.25-8.06-12.79-15.9-19.21-23.82-1.19-1.46-2.27-3.01-3.4-4.52-.42.25-.84.51-1.26.76-.37,1.16-.79,2.3-1.11,3.47-3.81,14.07-9.47,27.3-17.93,39.24-5.47,7.73-12.06,14.27-20.34,19.01-2.07,1.19-4.32,2.63-6.29.24-1.98-2.4-.17-4.31,1.48-6.08,1.52-1.63,3.04-3.27,4.5-4.96,14.48-16.85,23.64-36.19,27.26-58.15.41-2.5-.04-4.27-2.27-5.69-6.27-3.99-12.49-8.07-18.69-12.19-1.97-1.31-3.1-1.14-4.68.91-1.2,1.54-3.52,2.79-5.48,3.02-3.51.42-5.54-2.38-6.73-6.72-1.5-5.49-3.49-10.86-5.4-16.24-.38-1.07-1.37-1.93-2.47-3.43-.72,1.73-1.1,2.8-1.6,3.81-3.31,6.65-6.24,13.52-10.06,19.86-5.03,8.36-12.06,14.81-21.25,18.58-2.4.98-5.21,2.85-7.17-.16-2.13-3.28.97-4.95,3.04-6.65,14.15-11.65,21.86-27.14,26.36-44.48.36-1.38-.11-3.65-1.07-4.6-7.78-7.69-15.53-15.46-25.05-21.1-2.88-1.71-3.2-1.57-3.99,1.71-2.08,8.73-5.06,17.13-9.59,24.91-4.45,7.64-10.35,13.72-18.65,17.18-2.12.89-4.41,1.81-6.03-.57-1.66-2.44.09-4.17,1.83-5.7,12.45-10.94,18.67-25.29,22.43-40.99.5-2.08.03-3.42-2.17-4.18-13.37-4.62-26.73-9.2-40.75-11.55-2.71-.45-3.61.14-4.11,3-1.09,6.25-2.36,12.54-4.32,18.56-2.33,7.14-7.05,12.79-13.19,17.18-1.75,1.25-3.65,2.12-5.45.27-1.66-1.7-1.03-3.57.27-5.18,7.64-9.46,9.86-20.73,11.13-32.39.35-3.21-.91-4.29-3.85-4.15-8.91.41-17.81.89-26.72,1.18-3.32.11-3.99,1.35-3.46,4.57,1.55,9.38-1.14,18.14-4.99,26.54-.51,1.12-2.74,2.16-4.01,1.99-.94-.12-1.91-2.19-2.3-3.55-.32-1.14.28-2.5.32-3.77.14-4.98.38-9.97.19-14.94-.06-1.46-1.43-2.87-2.2-4.31-1.22.69-2.68,1.16-3.62,2.13-3.33,3.42-6.34,7.18-9.8,10.46-1.15,1.09-3.49,1.83-4.96,1.45-2.27-.58-2.77-3.09-1.86-5.04,2.13-4.58,4.61-8.99,7.01-13.44.48-.88,1.23-1.61,2.17-2.81-8.25-3.9-16.38-5.79-25.05-4.79-.57.07-1.52,1.48-1.41,2.12,2.08,13.07-1.16,25.34-5.41,37.47-.28.8-.42,1.87-1.01,2.29-1.17.84-2.71,1.94-3.9,1.74-.92-.16-1.81-2.05-2.18-3.33-.29-1.03.21-2.29.4-3.44,1.72-10.28,3.48-20.57,2.32-31.06-.49-4.41-2.96-6.26-7.2-4.84-6.01,2.02-11.77,2.02-17.78-.03-4.31-1.47-6.94.51-7.3,5.07-.27,3.38-.53,6.83-.2,10.18.76,7.71,1.9,15.39,2.87,23.08.26,2.07-.03,4.25-2.38,4.45-1.26.11-3.43-1.15-3.87-2.3-4.68-12.2-8.22-24.67-6.23-37.94.45-3.01-.48-3.66-3.19-3.77-7.16-.28-13.95,1.15-20.51,3.86-.81.34-1.52.91-2.51,1.53.92,1.14,1.72,1.87,2.22,2.77,2.21,3.96,4.49,7.89,6.42,11.98,1.02,2.16,1.25,4.75-1.29,6.24-2.63,1.55-4.36-.34-5.99-2.11-3.31-3.59-6.55-7.26-9.96-10.76-1.98-2.03-3.51-1.65-4.44,1.03-.51,1.48-.77,3.13-.72,4.69.16,5.09.48,10.18.79,15.26.12,2.06-.07,4-2.4,4.6-2.28.59-3.57-.87-4.37-2.8-3.65-8.75-6.07-17.72-4.34-27.32.35-1.95-.3-2.85-2.19-2.94-9.65-.46-19.29-.92-28.94-1.34-2.5-.11-3.32,1.19-3.07,3.62,1.22,11.75,3.37,23.17,11.03,32.76,1.28,1.6,1.99,3.48.39,5.2-1.74,1.88-3.91,1.34-5.39-.2-3.8-3.94-7.92-7.75-10.87-12.3-4.46-6.89-6.03-14.95-6.68-23.07-.26-3.19-1.45-4.11-4.42-3.27-13.37,3.81-26.75,7.6-40.14,11.37-2.48.7-3.01,2.19-2.43,4.59,3.83,15.69,10.16,29.98,22.6,40.9,1.72,1.51,3.02,3.3,1.49,5.52-1.43,2.07-3.5,1.5-5.47.7-6.69-2.72-12.03-7.13-16.2-12.98-6.22-8.71-9.81-18.56-12.38-28.83-.95-3.79-1.47-4.22-4.51-1.8-7.73,6.13-15.12,12.68-22.82,18.83-3.22,2.57-3.48,5.29-2.37,8.97,5.09,16.96,13.06,32.06,27.29,43.23,1.71,1.34,2.96,3.03,1.7,5.21-1.36,2.35-3.67,2.16-5.6,1.02-5-2.95-10.38-5.55-14.65-9.36-8.92-7.95-14.02-18.56-18.25-29.57-.43-1.13-.98-2.21-1.47-3.31l-1.17-.22c-1.69,3.69-3.62,7.29-5,11.08-1.08,2.97-1.43,6.2-2.23,9.29-.74,2.86-2.31,5.06-5.44,5.59-2.95.5-5.27-.68-6.7-3.24-1.16-2.06-2.46-1.93-4.17-.82-6.13,4.02-12.24,8.07-18.46,11.96-2.54,1.59-3.46,3.55-2.69,6.41,1.99,7.38,3.5,14.92,6.03,22.11,5.48,15.57,14.53,29.01,25.88,40.94,1.55,1.63,2.89,3.48,1.27,5.62-1.75,2.31-4.04,1.5-5.95.11-4.27-3.13-8.86-5.99-12.56-9.71-13.43-13.49-20.85-30.32-25.93-48.35-.36-1.28-.77-2.55-1.34-4.39ZM700.68,335.22c-14.88.48-28.66,1-42.45,1.29-2.95.06-4.36,1.13-5.24,3.89-3.91,12.28-6.57,24.82-8.02,37.62-.46,4.03-.43,4.12,3.59,4.44,13.17,1.08,25.63,4.73,37.54,10.38,3.95,1.88,4.14,1.79,4.6-2.53,1.93-18.1,1.88-36.59,10.68-53.33.27-.51-.64-1.63-.7-1.75ZM24.31,335.1c-.15.58-.28.81-.23.98.17.61.36,1.22.62,1.79,4.63,10.03,7.57,20.5,8.41,31.56.55,7.2,1.38,14.39,2.15,21.58.35,3.29.85,3.55,3.78,2.13,12.28-5.94,25.17-9.7,38.8-10.69,2.43-.18,3.34-.98,3.03-3.55-1.55-13.02-4.15-25.8-8.1-38.32-.91-2.89-2.36-3.99-5.45-4.08-13.49-.38-26.97-1.04-40.45-1.58-.89-.04-1.79.12-2.56.18ZM146.04,362.78c-.18-.01-.36-.02-.54-.04,0-1.8.19-3.63-.03-5.41-1.36-11.16-2.79-22.31-4.23-33.46-.22-1.66-.62-3.28-3-2.45-9.52,3.31-19.03,6.63-28.57,9.86-2.13.72-2.46,1.85-1.83,3.87,1.14,3.64,2.51,7.3,2.95,11.06,1.17,10.1,2,20.25,2.73,30.4.2,2.7.82,4.01,3.8,4.16,7.73.38,15,2.75,22.02,5.89,3.54,1.58,4.21,1.31,4.65-2.65.79-7.06,1.37-14.14,2.04-21.22ZM579.49,360.15c.88,9.31,1.48,16.71,2.32,24.08.46,4.01.93,3.82,4.66,2.6,7.03-2.29,14.16-4.33,21.36-5.99,4.15-.95,4.26-.55,4.28-4.95.09-13.87,1.22-27.59,5.79-40.81.88-2.53-.21-3.34-2.4-4.07-9.25-3.09-18.48-6.27-27.67-9.56-2.23-.8-2.96.11-3.22,2.01-1.8,12.81-3.58,25.62-5.12,36.68ZM284.27,870.73c-.84-1.46-1.14-2.12-1.55-2.69-10.21-14.05-16.73-29.68-19.99-46.69-.43-2.25-1.49-2.82-3.54-2.29-4.62,1.2-9.23,2.43-13.89,3.49-2.95.67-3.69,2.29-3.07,5.1,2.94,13.43,8.02,25.95,16.16,37.07,5.88,8.04,6,7.96,15.89,7.07,3.12-.28,6.22-.66,10-1.06ZM441.44,870.78c4.28.42,7.97.48,11.52,1.2,5.86,1.18,9.74-.62,13.32-5.61,8.58-11.95,14.35-24.96,17.36-39.29.5-2.4-.17-3.84-2.7-4.44-4.75-1.11-9.47-2.37-14.2-3.59-2.22-.57-3.27.14-3.71,2.51-3.15,16.83-9.66,32.24-19.71,46.14-.53.73-.95,1.55-1.88,3.09ZM482.07,871.05c1.33-.07,2.25.02,3.11-.18,7.54-1.78,15.16-3.28,22.56-5.51,7.41-2.23,14.58-5.27,21.89-7.83,4.65-1.63,4.7-1.77,1.66-5.51-7.75-9.52-18.57-14.68-28.93-20.48-2.15-1.2-2.45.67-2.85,2.12-3.48,12.81-8.37,24.96-16.51,35.6-.3.39-.46.88-.93,1.79ZM242.96,871.51c.17-.36.34-.72.51-1.08-1.44-2.06-2.98-4.06-4.3-6.2-5.84-9.47-10.15-19.61-12.86-30.4-.63-2.52-1.57-3.25-3.94-1.8-2.99,1.83-6.07,3.52-9.13,5.21-7.51,4.14-14.32,9.15-19.67,15.95-1.04,1.32-2.18,2.68.44,3.59,10.02,3.52,19.96,7.32,30.09,10.49,6.13,1.91,12.56,2.84,18.85,4.22ZM410.95,870.94c4.81.73,6.96-.07,9.55-3.25,1.14-1.4,2.43-2.68,3.49-4.13,9.74-13.49,14.93-29.19,21.32-44.29.92-2.17-.58-2.64-2.31-2.46-4.43.45-8.85,1.03-13.27,1.48-2.22.23-2.9,1.36-3.09,3.55-.5,5.68-.44,11.64-2.22,16.94-3.27,9.71-7.7,19.02-11.67,28.49-.51,1.22-1.16,2.38-1.79,3.68ZM314.87,871.27c-.56-1.22-.9-2.07-1.33-2.88-7.77-14.86-14.97-29.89-14.67-47.29.02-.9-1.63-2.45-2.69-2.65-4.28-.78-8.62-1.25-12.96-1.61-3.07-.26-3.6.41-2.44,3.24,2.97,7.28,6.03,14.53,9.22,21.71,4.14,9.32,8.3,18.61,15.4,26.28,2.69,2.91,5.63,3.19,9.46,3.21Z" style="fill: #000; stroke-width: 0px;"/>
  <path d="M411.87,750.63c-2.97,0-5.95.1-8.92-.02-5.46-.22-10.49,1.02-15.29,3.67-5.37,2.97-11.1,4.82-17.35,4.64-2.75-.08-5.07-.6-5.85-3.77-.13-.54-1.06-1.3-1.51-1.24-.67.1-1.61.74-1.78,1.34-.9,3.09-3.21,3.63-5.95,3.68-5.91.12-11.4-1.47-16.46-4.35-5.67-3.23-11.68-4.2-18.09-3.98-6.58.23-13.18.39-19.75.07-10.94-.54-19.96-5.55-27.53-13.18-3.74-3.76-7.17-7.85-10.54-11.95-8.28-10.04-11.4-21.38-9.63-34.46.89-6.6,1.23-13.41.02-20.23-3.7-20.77,6.86-39.2,27.44-48.83,9.34-4.37,19.32-5.55,29.4-6.54,5.59-.55,11.13-1.61,16.69-2.45,2.44-.37,3.69-1.81,4.73-4.1,5.03-11.1,13.16-18.12,25.87-18.54,4.23-.14,8.49-.29,12.69.07,11.52.98,19.12,7.66,23.79,17.74,1.38,2.98,3.01,4.7,6.13,5.1,7.48.97,14.94,2.07,22.43,2.84,14.38,1.49,27.29,6.17,37.77,16.54,10.68,10.56,15.15,23.14,12.29,38.02-1.34,6.99-.9,14.02.05,20.86,1.3,9.38.02,18.16-4.45,26.21-5.09,9.16-12.22,16.9-20.19,23.64-10.39,8.79-22.9,10.58-36.04,9.22ZM326.6,651.69c1.02.75,1.31,1.07,1.66,1.2,10.31,3.75,12.63,7.95,10.53,18.86-.17.89.18,1.86.18,2.8,0,2.26.11,4.55-.18,6.78-.57,4.4-1.45,8.76-2.06,13.15-.22,1.57.35,2.69,2.39,2.25,6.63-1.43,12.95-.09,18.86,2.84,3.5,1.74,6.5,1.61,9.95-.07,5.63-2.75,11.65-4.12,17.94-2.91,2.6.5,3.43-.5,3.09-2.78-.65-4.28-1.58-8.53-2.16-12.82-.29-2.12-.06-4.31-.08-6.47-.02-1.34.18-2.75-.16-4.01-2.17-8.07,1.66-14.97,9.68-17.3.81-.24,1.59-.58,2.39-.87.03-.28.06-.56.09-.84-14.86-3.31-27.43-10.1-35.92-23.94-8.38,14.04-21.06,20.52-36.21,24.12ZM298.9,661.17c-.85-.12-1.25-.29-1.61-.22-10.68,2.21-18.72,8.06-23.28,17.98-2.61,5.68-2.24,11.28,2.69,16.09,4.83,4.72,9.93,8.96,16.17,11.68,4.66,2.03,5.34,1.67,6.18-3.42.17-1.04.26-2.12.26-3.17-.01-4.03-.29-8.08-.05-12.09.19-3.28-.73-5.73-2.9-8.28-4.35-5.09-3.89-11.17.59-16.17.6-.67,1.14-1.39,1.96-2.39ZM427.06,661.43c.67.83,1.21,1.55,1.81,2.22,4.23,4.78,5,10.52,1,15.36-2.82,3.41-3.76,6.88-3.56,10.99.25,5.07.44,10.14.82,15.2.21,2.83,1.88,3.1,4.27,2.13,7.02-2.85,12.81-7.35,18.04-12.77,3.85-3.99,4.42-8.49,3.04-13.52-2.61-9.56-14.45-19.35-24.28-20.07-.26-.02-.54.21-1.14.46ZM417.22,707.35c-.68-5.91-1.21-10.83-1.85-15.73-.07-.56-.73-1.42-1.23-1.5-4.65-.78-9.31-1.41-13.95-2.08-.44,4.15-.96,8.52-1.32,12.9-.04.53.62,1.49,1.13,1.64,5.64,1.64,11.31,3.16,17.22,4.78ZM325.51,688.03c-4.56.66-9.14,1.24-13.68,2.1-.66.13-1.37,1.6-1.53,2.53-.49,2.92-.65,5.89-1.07,8.83-.24,1.71-.73,3.38-1.33,6.03,6.45-1.76,12.06-3.22,17.61-4.87.6-.18,1.31-1.44,1.26-2.15-.31-4.19-.83-8.37-1.26-12.47Z" style="fill: #000; stroke-width: 0px;"/>
  <path d="M328.08,514.79c1.31-.8,2.18-1.37,3.07-1.88,1.47-.84,2.89-1.85,4.46-2.44,3.09-1.15,6.41-2.5,9.33.09,2.75,2.44,1.32,5.61.54,8.38-4.78,16.97-14.99,29.41-31.37,36.27-14.75,6.18-29.38,1.77-38.49-11.37-7.41-10.68-10.07-22.9-10.4-35.62-.34-13.47,2.75-26.38,7.84-38.79.95-2.32,2.32-4.57,3.91-6.52,2.16-2.64,5.15-3.78,8.57-2.73,2.88.88,4.93,3.82,4.69,7.59-.23,3.68-1.17,7.32-1.85,10.96-1.67,8.97-3.92,17.87-4.91,26.9-.98,8.99.89,17.83,5.19,25.92,3.81,7.18,10.78,8.9,17.06,4.23,1.13-.84,2.32-2.58,2.28-3.86-.67-20.8,6.23-39.77,14.32-58.35,9.91-22.77,14.62-46.82,17.99-71.17,2.65-19.19-3.23-36.4-14.21-51.91-2.51-3.54-6.11-6.6-9.79-8.97-6.86-4.42-14.13-8.22-21.28-12.18-1.03-.57-2.34-.64-3.52-.94-.02,1.32-.28,2.69,0,3.94.93,4.36,2.13,8.67,3.07,13.03.58,2.69,1.06,5.43,1.24,8.17.18,2.75-1.05,5.04-3.66,6.19-2.64,1.16-5.29.8-7.46-1.12-1.33-1.18-2.46-2.64-3.45-4.14-7.09-10.78-9.66-22.99-11.23-35.54-4.35-34.73,5.89-64.87,29.55-90.17,11.39-12.18,25.39-21.25,41.27-26.97,2.09-.75,4.28-1.27,6.46-1.72,4.79-1.01,7.41,1.77,6.19,6.56-1.49,5.86-4.54,10.83-9.38,14.42-4,2.97-8.17,5.8-12.56,8.11-16.73,8.82-27.81,22.31-34.15,39.98-3.75,10.45-6.67,21.08-7.5,32.19-.42,5.52-.37,5.51,4.84,7.1,15.36,4.7,29.67,11.81,41.14,22.95,18.5,17.99,25.61,40.68,23.25,66.2-.71,7.69-2.65,15.28-4.28,22.85-2.12,9.85-3.98,19.81-6.92,29.42-2.31,7.55-6.06,14.66-9.21,21.95-5.69,13.19-8.44,27.16-10.99,41.18-.07.37.14.79.35,1.79Z" style="fill: #000; stroke-width: 0px;"/>
  <path d="M397.75,514.39c0-1.1.17-2.03-.03-2.88-2.31-9.93-4.39-19.93-7.16-29.74-1.4-4.94-4.09-9.52-6.19-14.27-3.09-6.99-6.13-13.9-7.25-21.65-.97-6.7-3.36-13.17-4.78-19.82-2.15-10.07-5.05-20.14-5.78-30.34-1.84-25.97,5.95-48.92,25.76-66.43,11.38-10.06,24.98-16.9,39.71-21.08,3.3-.94,4.37-2.5,4.05-5.9-1.49-15.86-5.73-30.89-13.07-45.04-5.85-11.28-14.59-19.67-25.45-26.14-6.27-3.74-12.66-7.55-18.06-12.38-3.35-3-5.41-7.77-7.2-12.1-1.86-4.51,1.24-7.76,5.96-6.5,5.11,1.36,10.34,2.74,15.06,5.06,31.18,15.3,51.81,39.71,60.27,73.42,5.58,22.23,4.06,44.57-4.04,66.17-1.58,4.22-4.17,8.12-6.69,11.91-2.3,3.46-6.04,4.48-9.18,3.16-2.96-1.24-4.51-4.39-3.66-8.65,1.29-6.46,2.97-12.84,4.39-19.27.24-1.07.02-2.24.02-3.36-1.16.24-2.46.22-3.46.76-6.45,3.48-12.87,7.02-19.24,10.64-9.26,5.27-15.16,13.43-19.46,22.95-6.51,14.42-9.29,29.33-6.04,45.05,2.97,14.36,5.14,28.94,9.13,43,3.7,13.04,9.04,25.65,14.22,38.22,5.27,12.8,7.71,26.07,7.86,39.78.05,4,1.08,6.71,4.94,8.24,4.09,1.62,8.05,1.8,11.29-1.37,1.92-1.87,3.49-4.32,4.59-6.79,4.62-10.34,5.26-21.21,3.24-32.19-1.32-7.2-3.36-14.27-4.91-21.44-.6-2.78-1.03-5.66-1.03-8.5,0-2.9,1.32-5.42,4.21-6.59,2.95-1.19,5.75-.5,7.99,1.6,1.44,1.35,2.79,3.01,3.59,4.8,9.72,21.76,12.76,43.97,4.19,66.89-.37.99-.78,1.98-1.22,2.94-9.59,20.98-29.73,27.27-49.46,15.34-13.11-7.93-21.38-19.52-25.08-34.35-1.69-6.79,1.53-9.88,8.26-7.73,3.26,1.04,6.26,2.92,9.68,4.56Z" style="fill: #000; stroke-width: 0px;"/>
  <path d="M223.3,638.82c.43-20.96,15.7-38.73,36.31-41.07,10.59-1.2,20.66-3.78,30.39-7.96.49-.21.99-.4,1.49-.57,1.99-.71,4.21-.76,4.84,1.43.38,1.31-.38,3.72-1.47,4.57-7.59,5.98-15.9,10.62-25.59,12.31-2.2.38-4.39.82-6.59,1.19-11.92,2.01-19.46,9.05-22.85,20.45-1.2,4.04-1.59,8.33-2.25,12.52-.31,1.99-.31,4.03-.61,6.02-.53,3.54-2.52,5.66-5.31,5.86-2.83.2-5.33-1.46-6.31-4.82-.94-3.23-1.39-6.61-2.06-9.93Z" style="fill: #000; stroke-width: 0px;"/>
  <path d="M502.43,638.83c-.67,3.31-1.11,6.69-2.08,9.91-1.04,3.46-3.48,5.07-6.28,4.82-2.84-.26-4.93-2.53-5.39-6.19-.39-3.05-.18-6.23-.91-9.18-1.34-5.42-2.61-10.98-4.95-16-3.11-6.66-8.91-10.7-16.04-12.59-2.77-.73-5.6-1.27-8.43-1.69-10.27-1.54-19.12-6.18-27.3-12.33-1.74-1.31-3.1-2.89-1.82-5.12,1.27-2.21,3.36-1.94,5.34-1.07,10.69,4.7,21.88,7.12,33.46,8.69,19.42,2.64,33.94,20.55,34.39,40.76Z" style="fill: #000; stroke-width: 0px;"/>
  <path d="M305.28,780.1c-11.21,0-21.12-3.9-29.52-11.05-7.01-5.97-13.4-12.66-20.05-19.04-1.68-1.61-3.3-3.3-4.95-4.94-1.75-1.74-2.61-3.77-1.25-6.02,1.43-2.38,3.88-2.83,6.13-1.64,2.39,1.27,4.62,3,6.61,4.86,4.11,3.84,7.91,8,12.02,11.83,10.16,9.48,22.26,14.16,36.14,14.34,4.88.06,9.77.2,14.65.3,2.37.05,4.69.43,5.03,3.27.32,2.67-1.76,3.71-3.92,4.22-6.89,1.63-13.8,3.14-20.7,4.71-.07-.28-.13-.56-.2-.85Z" style="fill: #000; stroke-width: 0px;"/>
  <path d="M419.78,780.94c-7-1.63-14.01-3.23-20.99-4.93-2.02-.49-3.57-1.76-3.28-4.05.31-2.49,2.31-3.12,4.47-3.19,3.82-.11,7.65-.32,11.47-.18,19.53.73,34.84-7.66,47.6-21.74,2.14-2.36,4.33-4.69,6.71-6.79,1.4-1.23,3.15-2.58,4.87-2.79,1.71-.2,4,.49,5.27,1.65,1.68,1.53,1.09,3.87-.43,5.46-8.94,9.35-17.42,19.2-28.12,26.7-8.23,5.77-17.23,9.1-27.38,9l-.2.85Z" style="fill: #000; stroke-width: 0px;"/>
  <path d="M477.96,283.44c.05,1.65-.27,3.74-2.93,3.95-2.49.2-3.14-1.79-3.43-3.79-1.17-8.1-2.1-16.23-3.48-24.29-2.93-17.06-10.91-31.44-23.86-42.9-5.24-4.64-10.95-8.74-16.45-13.08-.75-.59-1.59-1.09-2.26-1.76-1.68-1.68-2.43-3.96-.9-5.72,1.12-1.3,3.52-2.5,5.05-2.2,2.72.52,5.44,1.89,7.76,3.48,15.39,10.56,25.98,24.9,32.38,42.34,5.14,14.01,6.71,28.72,8.12,43.97Z" style="fill: #000; stroke-width: 0px;"/>
  <path d="M247.64,283.71c1.54-16.74,3.25-32.5,9.34-47.35,6.57-16.02,16.75-29.26,31.07-39.13,1.99-1.37,4.23-2.47,6.48-3.36,2.87-1.14,5.52-.19,6.66,2.02,1.14,2.2.33,4.84-2.14,6.66-1.97,1.45-4.01,2.79-6.02,4.18-22.66,15.67-35.28,37.16-37.57,64.68-.33,4.02-.92,8.02-1.42,12.03-.27,2.14-.97,4.22-3.61,3.94-2.63-.28-2.86-2.44-2.79-3.66Z" style="fill: #000; stroke-width: 0px;"/>
  <path d="M491.46,239.51c-.26,2.93-.44,5.91-.81,8.85-.26,2.04-1.29,4.1-3.54,3.59-1.3-.3-3.08-2.27-3.16-3.58-1.06-17.09-8.79-31.29-18.72-44.61-.82-1.1-1.63-2.28-2.07-3.56-.92-2.68-.81-5.35,1.64-7.24,2.5-1.93,5.23-1.72,7.69.05,1.44,1.04,2.81,2.33,3.83,3.78,9,12.81,14.3,26.94,15.15,42.71Z" style="fill: #000; stroke-width: 0px;"/>
  <path d="M234.24,240.24c.48-15.86,5.99-30.14,15-43.19,1.12-1.63,2.64-3.11,4.28-4.21,2.37-1.59,5.05-1.78,7.42.15,2.48,2.03,2.85,4.74,1.52,7.49-.96,1.99-2.3,3.82-3.61,5.61-9.18,12.56-16.1,26.02-17.01,41.95-.12,2.04-.91,3.94-3.28,4.03-2.56.09-3.4-1.86-3.65-4.02-.3-2.53-.45-5.08-.67-7.8Z" style="fill: #000; stroke-width: 0px;"/>
  <path d="M580.99,464.68c-.13,5.23-4.2,7.46-7.8,5.26-1.24-.76-2.32-1.86-3.27-2.99-9.2-11.01-17.56-22.61-24.19-35.38-.53-1.03-1.23-2.14-1.23-3.22,0-1.14.42-2.7,1.23-3.3.81-.6,2.35-.41,3.53-.26.64.08,1.25.76,1.78,1.27,10.31,10.01,19.64,20.83,27.24,33.07,1.26,2.03,2.11,4.31,2.71,5.56Z" style="fill: #000; stroke-width: 0px;"/>
  <path d="M181.67,427.34c-.63,1.58-1,2.8-1.58,3.91-6.68,12.99-15.09,24.82-24.53,35.92-3.2,3.76-6.2,4.6-8.73,2.78-2.66-1.91-2.89-4.88-.38-9.12,7.71-13.07,17.55-24.45,28.45-34.93,1.01-.97,3.03-1.3,4.52-1.17.83.07,1.52,1.7,2.25,2.6Z" style="fill: #000; stroke-width: 0px;"/>
  <path d="M293.68,392.73c-1.65,12.62-3.29,25.25-5,37.87-.15,1.12-.63,2.26-1.2,3.25-1.35,2.35-3.38,3.63-6.12,2.72-2.77-.92-3.55-3.19-3.22-5.87,1.1-9.06,2.25-18.12,3.39-27.17.74-5.9,1.51-11.79,2.24-17.69.33-2.73,1.31-4.75,4.53-4.54,3.27.22,5.01,2.04,5.06,5.32.02,1.06-.06,2.12-.1,3.18-.04.95-.09,1.91-.13,2.86.18.02.37.05.55.07Z" style="fill: #000; stroke-width: 0px;"/>
  <path d="M447.82,432.6c-.83.97-1.83,2.94-3.44,3.83-2.19,1.22-4.39.1-5.76-1.95-.75-1.12-1.45-2.45-1.6-3.75-1.64-14.44-3.18-28.89-4.73-43.34-.25-2.38.22-4.4,2.73-5.5,3.35-1.47,6.15-.48,6.6,2.86,2.11,15.56,4.05,31.15,6.19,47.85Z" style="fill: #000; stroke-width: 0px;"/>
  <path d="M592.79,226.19c.04,8.19-7.68,14.51-15.48,12.65-3.33-.8-5.73-2.78-7-5.95-2.18-5.44,1.46-14.8,6.7-17.43,7.37-3.71,15.73,1.98,15.78,10.73Z" style="fill: #000; stroke-width: 0px;"/>
  <path d="M132.95,226.85c.14-6.61,3.87-11.35,9.12-12.38,5.11-1,9.91,1.95,12.18,7.49.24.59.46,1.19.66,1.79,2.47,7.3.25,13-5.79,14.88-6.47,2.01-13.6-1.86-15.6-8.53-.39-1.31-.48-2.7-.57-3.25Z" style="fill: #000; stroke-width: 0px;"/>
  <path d="M161.8,487.66c-3.84.02-6.1-2.1-5.64-4.86.27-1.65,1.13-3.55,2.35-4.66,6.18-5.65,12.55-11.11,18.9-16.57,1.64-1.41,3.62-2.18,5.45-.46,1.89,1.77,1.11,3.78-.31,5.4-5.54,6.29-11.09,12.56-16.81,18.68-1.22,1.31-3.12,1.98-3.94,2.47Z" style="fill: #000; stroke-width: 0px;"/>
  <path d="M569.67,481.95c0,4.92-3.99,7.11-7.55,4.89-2.05-1.27-3.93-2.95-5.54-4.75-4.55-5.05-8.95-10.23-13.35-15.4-1.4-1.64-2.26-3.58-.53-5.44,1.75-1.88,3.77-1.16,5.41.24,6.45,5.52,12.89,11.05,19.19,16.74,1.25,1.13,1.89,2.93,2.37,3.71Z" style="fill: #000; stroke-width: 0px;"/>
  <path d="M167.95,191.66c-.06,5.39-4.3,9.97-9.16,9.89-4.72-.08-8.9-5.17-8.76-10.69.12-4.92,4.17-8.72,9.14-8.6,4.98.13,8.84,4.26,8.78,9.39Z" style="fill: #000; stroke-width: 0px;"/>
  <path d="M566.64,201.56c-4.85-.07-8.95-4.85-8.82-10.27.13-5.17,4.16-9.14,9.19-9.04,4.85.09,8.65,3.96,8.64,8.82,0,5.68-4.2,10.56-9.02,10.49Z" style="fill: #000; stroke-width: 0px;"/>
  <path d="M171.82,235.9c-4.88.03-9.16-4.17-9.22-9.04-.05-4.17,3.04-7.48,6.98-7.48,4.31,0,9.34,5.15,9.4,9.63.06,3.86-3.07,6.86-7.17,6.89Z" style="fill: #000; stroke-width: 0px;"/>
  <path d="M553.94,235.9c-3.99.01-7.18-2.87-7.25-6.55-.09-4.63,5.03-9.98,9.52-9.95,3.84.03,6.84,3.22,6.88,7.32.05,4.88-4.22,9.17-9.15,9.19Z" style="fill: #000; stroke-width: 0px;"/>
</svg>