<?xml version="1.0" encoding="UTF-8"?>
<svg id="Layer_1" data-name="Layer 1" xmlns="http://www.w3.org/2000/svg" viewBox="0 0 610.02 900">
  <path d="M304.87,885.1c-1.56,2.06-2.96,3.93-4.38,5.78-3.68,4.78-8.56,7.24-14.55,7.74-15.53,1.3-31.09,1.75-46.62.61-8.37-.61-16.67-2.32-24.98-3.7-3.38-.56-6.25-2.39-8.38-5.06-7.13-8.96-16.53-14.12-27.46-16.83-6.07-1.51-11.33-4.56-16.3-8.33-5.99-4.55-12.41-8.55-18.27-13.25-4.59-3.68-7.47-8.46-8.94-14.55-1.28-5.29-4.1-10.49-7.29-14.98-5.57-7.84-11.8-15.22-18.01-22.58-8.44-10-16.5-20.25-21.95-32.24-4.33-9.54-7.09-19.46-6.18-30.15.59-6.91-1.71-13.44-3-20.1-1.35-6.98-2.37-14.02-3.87-20.97-.64-2.94-1.89-5.83-3.28-8.52-5.64-10.91-10.66-22.03-12.88-34.2-1.21-6.61-.71-13.24.26-19.85,1.14-7.76,2.05-15.56,3.52-23.25.69-3.6,1.97-7.28,3.84-10.41,3.33-5.58,4.57-11.64,5.87-17.84,2.41-11.54,3.5-23.65,8.92-34.17,4.45-8.64,6.39-17.92,9.42-26.88,2.98-8.78,1.07-17.31-5.47-24.57-2.09-2.32-3.36-5.49-4.64-8.42-3.46-7.94-6.65-16-10.1-23.94-2.3-5.3-5.88-9.59-10.62-13.02-7.4-5.35-13.63-11.96-19.31-19.08-3.21-4.03-4.28-8.86-4.74-13.82-.48-5.16-.77-10.34-1.14-15.51-.16-2.2-.19-4.33,1.29-6.26.44-.58.47-1.77.23-2.54-1.3-4.13-2.88-8.16-6.92-10.47-9.78-5.59-15.12-14.45-18.93-24.7-3.79-10.2-6.78-20.42-5.74-31.48.56-5.92,1.41-11.7,3.89-17.18,2.25-4.99,1.77-9.65-1.17-14.49-2.53-4.17-5.06-8.8-5.8-13.5-1.17-7.44-1.39-15.15-1.01-22.69.46-9.37,2.38-18.59,5.63-27.48,2.35-6.43,6.22-11.63,11.54-15.9,1.43-1.15,2.62-2.88,3.33-4.59,1.8-4.32,3.4-8.73,4.84-13.18,2.9-8.92,8.51-16.11,14.47-23.07,2.63-3.07,5.78-5.7,8.35-8.81,1.87-2.26,3.55-4.84,4.66-7.55,1.59-3.88,2.63-7.99,3.8-12.03,2.06-7.14,6.19-12.89,11.53-17.94,4.88-4.62,9.61-9.41,14.33-14.2,4.56-4.63,6.56-10.45,7.73-16.72.64-3.39,1.58-6.82,3.01-9.95,4.04-8.76,8.13-17.58,14.29-25.07,3.15-3.83,7.06-7.13,10.95-10.25,7.51-6.02,14.79-12.51,22.99-17.45,19.97-12.02,40.75-22.51,63.63-28.02,2.14-.52,4.48-.17,6.73-.23,2.45-.07,4.97.21,7.34-.28,10.05-2.08,19.98-4.93,30.11-6.43,6.96-1.03,14.11-.5,21.16,1.34,5.66,1.48,11.6,1.89,17.42,2.75,5.18.77,10.35,1.71,15.56,2.16,2.67.23,5.42-.42,8.12-.76,7.22-.91,14.44-1.77,21.63-2.86,3.89-.59,7.68-1.81,11.57-2.39,7.49-1.1,15.03-.88,22.42.7,8.22,1.76,16.33,3.99,24.51,5.93,1.22.29,2.62.45,3.81.16,5.35-1.28,10.35.13,15.41,1.59,16.24,4.68,31.13,12.41,46.14,19.95,13.09,6.58,23.9,16.22,35.46,24.91,7.68,5.78,12.86,13.36,17.3,21.61,1.61,2.99,3.07,6.06,4.67,9.06,2.58,4.82,4.27,9.93,5.06,15.34.99,6.78,4.47,12.25,9.21,16.99,4.13,4.12,8.23,8.29,12.56,12.18,6.69,6.01,10.54,13.55,12.69,22.12.59,2.33,1.36,4.62,2.09,6.92,1.12,3.54,3.16,6.42,5.71,9.15,5.01,5.37,9.83,10.92,14.5,16.59,6.1,7.4,8.41,16.62,11.65,25.37,1.11,3.01,2.33,5.67,5.03,7.7,8.03,6.05,11.46,14.89,13.43,24.24,1.61,7.6,2.56,15.37,3.35,23.1.34,3.39-.45,6.9-.74,10.36-.15,1.84-.37,3.67-.49,5.51-.39,6.11-3.16,11.32-6.39,16.27-2.65,4.05-2.93,8.43-1.27,12.5,5.96,14.6,6.02,29.17.72,43.87-1.58,4.4-3.25,8.77-5.1,13.06-3.03,7.03-7.85,12.65-14.39,16.64-4.34,2.65-7.06,6.34-8.23,11.18-.27,1.11.09,2.42.34,3.6.25,1.17,1.14,2.33,1.04,3.42-.78,8.26-1.54,16.52-2.71,24.73-.71,4.96-4.33,8.5-7.66,11.85-5.17,5.22-10.49,10.38-16.25,14.91-5.71,4.5-8.76,10.53-11.53,16.82-2.99,6.79-5.45,13.81-8.47,20.58-1.32,2.96-3.22,5.75-5.29,8.26-2.74,3.31-3.94,7.17-4.85,11.18-1.19,5.26-.39,10.31,1.48,15.38,1.91,5.18,3.22,10.57,4.81,15.87.21.69.34,1.46.74,2.03,5.16,7.34,6.72,15.92,8.54,24.42,1.61,7.52,3.03,15.1,4.91,22.55.87,3.47,2.39,6.84,4.07,10.02,3.27,6.16,4.86,12.72,5.62,19.58.55,4.95,1.15,9.9,1.99,14.8,1.89,11.08,1.1,21.92-3.04,32.37-2.82,7.13-5.72,14.29-9.36,21.01-2.47,4.57-3.22,9.34-4.2,14.19-1.67,8.34-3.51,16.65-5.08,25-.65,3.47-1.34,7.07-1.1,10.55,1.11,16.25-4.75,30.22-13.25,43.52-6.94,10.85-15.55,20.32-24.05,29.88-6.71,7.55-11.44,16.26-15.72,25.29-.27.58-.54,1.21-.6,1.83-.8,8.13-6.27,13.15-12.18,17.62-6.64,5.02-13.46,9.86-20.55,14.21-3.73,2.29-8.11,3.68-12.36,4.91-9.65,2.79-18.17,7.19-24.56,15.22-3.34,4.2-7.87,6.27-13.2,6.93-7.55.93-15.05,2.7-22.61,2.99-12.28.46-24.61,1.51-36.91-.28-2.47-.36-5.02-.27-7.53-.32-7.13-.15-12.52-3.42-16.56-9.16-.98-1.39-1.96-2.77-3.11-4.41ZM252.02,84.57c-16.39-.46-31.59,3.05-46.76,7.07-10.3,2.73-19.68,6.83-28.11,13.61-10.46,8.41-18.36,18.39-23,30.99-1.79,4.86-3.7,9.69-5.67,14.48-3.1,7.57-5.5,15.32-6.49,23.47-1.31,10.76-6.31,19.45-14.17,26.9-5.74,5.44-10.95,11.48-16,17.59-4.54,5.5-8.67,11.42-10.25,18.56-3.64,16.52-4.54,33.16-2.4,50.01,1.53,12.06,6.14,23.19,9.54,34.7,6.06,20.49,19.13,35.34,37.32,45.95,5.69,3.32,11.36,6.6,15.72,11.67,10.5,12.22,18.56,25.98,22.68,41.48,4.53,17.04,7.74,34.44,11.32,51.73,2.61,12.6,1.95,25.12-1.56,37.53-4.37,15.47-10.42,30.24-17.22,44.79-7.88,16.87-15.3,33.96-22.75,51.03-3.67,8.4-5.03,17.28-3.65,26.39,1.32,8.7,6.83,15.09,13.31,20.22,8.55,6.77,17.6,12.83,24.93,21.1,8.48,9.57,15.16,19.99,17.68,32.7,1.66,8.36,3.18,16.75,4.87,25.1,2.11,10.44,7.14,19.64,12.3,28.79,1.72,3.05,4.07,5.17,7.2,6.56,1.33.59,2.63,1.24,3.95,1.87,3.45,1.65,6.85,1.48,9.83-.89,5.64-4.48,11.21-9.03,15.74-14.75,3.41-4.3,7.06-8.47,11.04-12.24,4.47-4.24,10.01-6.48,16.28-6.7,5.64-.19,10.5,1.35,14.36,5.71,1.31,1.48,4.44,1.29,5.67-.12,4.67-5.39,10.76-6.29,17.3-5.28,8.45,1.3,14.63,6.46,19.68,12.86,5.5,6.97,11.24,13.62,18.32,19,1.59,1.21,3.34,2.36,5.19,3.02,4.19,1.48,13.81-2.83,16.71-7.35,8.01-12.49,13.46-25.91,15.42-40.74,1.18-8.9,2.64-17.82,6.26-26.15,6.46-14.86,17.42-26.01,30.04-35.68,5.12-3.93,10.64-7.26,14.89-12.33,5.04-6.02,8.08-12.5,7.9-20.54-.15-6.66-1.06-13.11-3.61-19.24-5.36-12.87-10.56-25.82-16.4-38.48-7.26-15.74-14.85-31.26-20.71-47.66-6.48-18.13-8.24-36.2-3.9-54.95,2.54-10.98,4.96-21.99,7.08-33.05,2.49-12.97,7.19-25.04,13.75-36.46,7.05-12.29,15.77-22.58,28.68-29.53,14.49-7.8,25.92-19.38,32.45-34.74,4.32-10.16,7.84-20.75,10.79-31.4,4.82-17.43,4.7-35.24,2.49-53.11-1.32-10.73-4.54-20.61-11.72-28.83-5.85-6.7-11.82-13.33-18.11-19.62-6.93-6.92-11.19-14.98-12.5-24.67-.42-3.12-.62-6.36-1.63-9.3-3.38-9.79-7.06-19.48-10.66-29.2-4.25-11.48-10.83-21.2-20.46-29.03-7.77-6.32-15.72-11.94-25.57-14.4-4.16-1.04-8.31-2.17-12.45-3.29-24.12-6.52-48.28-7.32-72.55-.8-3.96,1.07-7.59,2.61-10.85,5.19-6.75,5.34-10.92,5.09-17.87-.15-2.53-1.91-5.51-3.53-8.53-4.4-11.65-3.37-23.55-5.34-35.17-5.04ZM506.2,463.97c-.16-6.54-1.95-11.31-7.47-14.43-5.87-3.32-10.01-8.41-12.61-14.67-1.81-4.37-1.76-4.33-6.49-3.55-1.4.23-1.88.75-1.82,2.21.34,8.13-3.55,13.55-10.96,16.53-1.71.69-2.08,1.33-1.08,2.99,4.59,7.55,5.9,15.87,5.19,24.52-.37,4.44-.8,9.25-4.2,12.39-3.14,2.9-3.52,5.34-2.76,9.54,1.64,9.12-.16,17.91-6.32,25.33-1.06,1.28-.64,1.78.64,2.53,2.5,1.47,4.79,3.32,7.3,4.77,2.1,1.22,2.77,4.95,5.63,4.18,2.28-.61,4.15-2.71,6.24-4.11,8.08-5.4,13.41-12.51,14.49-22.47.66-6.11,1.03-11.87-5.61-15.35-2.1-1.1-2.75-3.36-2.24-5.73.52-2.39,2.16-3.73,4.48-4.26,1.94-.45,4.19-.36,5.8-1.34,7.38-4.45,11.29-11.13,11.78-19.1ZM117.37,507c.5,7.18,2.57,15.6,10.18,21.55,3.19,2.49,6.5,4.82,9.71,7.28,1.45,1.11,2.38.75,3.72-.42,3.15-2.75,6.39-5.46,9.9-7.71,1.94-1.24,1.77-1.88.6-3.44-6.55-8.73-7.82-18.39-4.92-28.78.2-.7-.17-1.99-.72-2.39-3.78-2.76-5.66-6.58-6.5-11.03-1.91-10.07-.76-19.71,4.37-28.67,1.13-1.98.79-2.64-1.26-3.43-7.24-2.82-10.85-8.52-10.71-16.26.01-.73-.43-2.03-.85-2.12-2-.39-4.06-.46-6.11-.59-.06,0-.14.59-.24.89-2.44,7.85-7.23,13.86-14.26,18.06-3.65,2.18-5.86,5.27-6.48,9.45-.65,4.33-.36,8.62,1.62,12.57,3.18,6.31,7.16,11.76,15.11,12.37,2.77.21,4.46,1.93,4.97,4.57.51,2.58-.59,4.73-2.85,5.93-4.24,2.24-5.5,5.86-5.3,12.18ZM295.18,752.48c-5.87-.73-10.52,1.58-14.14,6-3.28,4.01-6.45,8.12-9.39,12.38-.81,1.17-1.15,3.14-.81,4.53.82,3.36,1.99,6.66,3.36,9.84,1.62,3.76,4,7.04,7.51,9.33,3.25,2.12,5.23,1.39,7.42-1.83,1.93-2.84,4.28-5.47,6.82-7.79,2.24-2.04,15.36-2.1,17.62-.06,2.61,2.34,5.03,5.01,7.02,7.89,2.09,3.03,3.87,3.84,7.02,1.99.9-.53,1.74-1.19,2.5-1.9,5.28-4.96,7.34-11.52,8.87-18.29.23-1.04-.14-2.52-.78-3.4-3.36-4.56-6.76-9.11-10.41-13.44-2.88-3.41-6.59-5.4-11.29-5.16-4.36.23-8.73.38-13.09.38-2.74,0-5.49-.31-8.23-.48ZM448.63,726.13c-3.95,8.8-11.13,12.24-20.02,11.87-4.07-.17-8.14-1.83-12.07-3.2-2.92-1.02-2.83-1.28-3.7,1.8-.68,2.41-1.26,4.87-2.21,7.18-4.42,10.72-9.69,20.99-16.44,30.46-1.11,1.56-1.41,2.99-.41,4.69,1.48,2.5,2.76,5.14,4.36,7.56,2.77,4.21,6.26,7.62,11.31,9,3.54.96,6.65.4,9.28-2.4,5.86-6.24,5.94-16.35,1.4-21.4-1.97-2.19-2.74-4.85-1.14-7.62,1.66-2.85,4.35-3.36,7.38-2.83,2.46.43,4.9,1.06,7.38,1.23,5.2.35,9.86-1.07,13.08-5.43,5.45-7.38,6.92-16.08,7.83-24.91.08-.76-.62-1.82-1.27-2.39-1.44-1.28-3.07-2.34-4.77-3.6ZM161.02,726.07c-1.82,1.36-3.53,2.44-4.97,3.81-.67.64-1.24,1.88-1.13,2.76.89,7.32,2.28,14.54,5.76,21.15,2.57,4.87,6.33,8.29,12.09,8.49,2.94.1,5.97-.18,8.85-.81,3.88-.84,6.96-.37,8.65,1.98,1.72,2.39,1.7,5.59-.75,8.28-4.8,5.28-4.04,15.53,1.42,21.38,2.55,2.73,5.69,3.39,9.08,2.46,1.99-.55,3.95-1.53,5.64-2.72,5.4-3.78,8-9.64,10.77-15.32.29-.59-.07-1.73-.48-2.4-2.38-3.95-5.07-7.73-7.26-11.78-4.62-8.54-9.66-16.9-11.97-26.5-.8-3.31-.87-3.26-3.93-1.82-7.62,3.57-15.32,4.61-23.14.6-4.03-2.07-7.01-5.13-8.63-9.55ZM398.31,842.26c1.37-.28,2.33-.4,3.25-.67,10.79-3.09,18.64-12.56,19.79-23.99.09-.87-.33-1.87-.74-2.7-1.18-2.38-2.6-4.66-3.68-7.08-.58-1.29-1.33-1.45-2.59-1.59-3.35-.36-6.7-.86-9.98-1.6-1.53-.35-2.07-.34-2.46,1.37-3.73,16.08-18.67,24.81-31.33,21.8-.79-.19-2.26.52-2.71,1.24-1.98,3.2-4.54,5.62-7.87,7.38-.73.39-1.4,1.71-1.37,2.58.07,1.99.47,3.99.96,5.93,1.81,7.15,6.05,13.86,16.39,12.16,5.45-.89,10.66-3.83,9.32-10.75-.62-3.2,1.3-6.04,3.98-6.29,1.96-.19,4.03.59,6.02,1.08,1.13.27,2.19.82,3.01,1.14ZM224.32,847.67c-.55,3.76,1.27,6.48,5.06,8,1.04.42,2.09.84,3.17,1.15,6.66,1.92,12.86-.63,15.66-6.98,1.45-3.27,1.88-6.99,2.91-10.46.48-1.63-.11-2.37-1.51-3-3.19-1.44-5.79-3.64-7.43-6.75-.99-1.88-2.25-2.18-4.18-1.79-5.27,1.05-10.35.26-15.12-2.16-8.01-4.07-12.93-10.63-15.07-19.28-.46-1.86-1.02-2.21-2.96-1.69-3.09.83-6.31,1.22-9.51,1.54-1.36.14-2.13.33-2.71,1.75-.91,2.23-2.27,4.27-3.31,6.45-.5,1.05-1.07,2.28-.95,3.36,1.32,12.47,9.76,20.66,20.2,23.9,2.06.64,4.03.53,6.06-.59,1.42-.79,3.2-1.34,4.8-1.29,3.56.13,5.09,2.66,4.91,7.84ZM495.8,416.88c-1.46,2.79-2.83,5.33-4.1,7.91-.25.52-.35,1.35-.12,1.84,2.67,5.54,5.22,11.3,10.72,14.65,2.55,1.55,5.58,2.4,8.49,3.22,1.54.43,3.4.52,4.91.07,6.36-1.9,9.96-9.53,8.04-16.61-1.4-5.18,1.97-8.95,7.08-7.61,2.95.77,5.24-.03,7.4-1.78,6.98-5.65,11.16-21.2,7.92-29.55-.25-.66-.96-1.39-1.61-1.6-4.1-1.34-8.25-2.54-12.75-3.89.37-.28.17-.21.13-.09-1.7,5.58-5.22,9.54-10.39,12.23-.76.4-1.18,1.94-1.28,3-.21,2.15.1,4.36-.14,6.5-.69,6.08-4.97,10.96-10.72,12.46-4.61,1.21-9.14.61-13.6-.76ZM77.59,383.44c-4.05,1.34-7.74,2.73-11.54,3.73-1.67.44-2.66,1.05-2.76,2.76-.19,3.13-.61,6.29-.42,9.4.35,5.88,1.9,11.48,5.62,16.19,2.44,3.08,5.28,5.94,9.78,5.02,6.15-1.26,9.12,1.88,7.48,7.97-1.45,5.37.49,9.89,4.12,13.68,2.06,2.15,4.93,3.54,7.93,2.73,5.59-1.51,11.33-3.09,14.71-8.44,1.94-3.07,3.64-6.29,5.35-9.5.3-.55.35-1.49.09-2.04-1.27-2.68-2.68-5.28-3.97-7.77-2.99.38-6.02,1.06-9.05,1.08-8.09.04-13.45-4.22-15.18-11.96-.48-2.18-.59-4.52-.37-6.74.22-2.25-.26-3.5-2.4-4.57-4.29-2.14-7.27-5.6-8.81-10.22-.17-.52-.44-1.01-.57-1.31ZM554.32,315.06c-.23.62-.43,1.04-.54,1.49-1.55,6.43-4.28,12.02-10.43,15.38-.55.3-.91,1.83-.67,2.56,1.19,3.64,1.47,7.34.61,11.02-1.37,5.92-5.07,9.8-10.9,11.64-1.06.33-2.34.32-1.88,2.33.99,4.3,1.53,8.71,2.41,13.04.18.88.87,1.99,1.63,2.36,2.23,1.09,4.61,1.91,6.95,2.76,2.94,1.07,5.86,1.13,8.61-.57,6.06-3.74,9.22-9.36,10.27-16.27.33-2.14-.18-4.05-1.45-5.94-2.3-3.41-.78-6.74,3.26-7.71.63-.15,1.25-.33,1.89-.4,3.44-.35,6.1-1.96,8.02-4.82,4.44-6.61,3.78-16.18-1.34-22.46-1.92-2.36-3.74-3.72-7.13-3.02-2.23.47-4.77-.46-7.16-.81-.69-.1-1.36-.37-2.15-.59ZM55.39,315.35c-3.06.44-6.1,1.57-8.89,1.12-3.79-.61-5.83.82-8.07,3.49-7.37,8.8-3.91,26.74,8.42,27.17,4.95.17,6.19,4.44,3.4,8.72-.62.94-1.06,2.22-1.03,3.33.18,6.3,2.91,11.47,7.44,15.74,3.97,3.74,8.43,4.39,13.37,2.06,1.46-.69,2.97-1.3,4.5-1.79,1.56-.5,1.98-1.55,2.21-3.07.63-4.15,1.38-8.28,2.28-12.37.31-1.4.16-1.96-1.25-2.49-2.02-.75-4.12-1.59-5.82-2.88-5.7-4.3-7.57-11.6-5.05-19.32.59-1.81.31-2.76-1.4-3.68-4.12-2.22-6.63-5.86-8.24-10.16-.73-1.95-1.27-3.97-1.88-5.89ZM102.59,348.06c-2.11,3.72-4.84,6.59-8.63,7.79-3.53,1.12-5.54,2.68-5.61,6.72-.09,5.3-1,10.59-1.13,15.9-.09,3.69,1.85,6.44,5.5,7.73,1.06.38,2.11.8,3.18,1.15,4.95,1.64,6.46,5.18,4.1,9.84-1.58,3.11-1.52,6.22-.21,9.34.8,1.9,2.17,3.35,4.32,3.39,2.66.05,5.34-.09,7.97-.43.74-.1,1.61-1.07,1.98-1.86,1.44-3.05,2.66-6.2,4.04-9.27.89-1.99,2.16-3.84,2.84-5.89,1.87-5.6,3.47-11.3,5.27-16.92.64-2,.18-3.34-1.51-4.58-6.58-4.81-12.22-10.61-17.29-16.96-1.55-1.94-3.13-3.86-4.83-5.96ZM507.06,347.94c-.97,1.2-1.69,2.06-2.37,2.94-5.8,7.54-12.11,14.59-19.83,20.24-1.65,1.21-2.08,2.54-1.42,4.39.3.83.43,1.73.72,2.57,2.38,6.93,3.72,14.21,7.53,20.66,1.62,2.74,2.74,5.82,3.78,8.85.46,1.36.92,2.06,2.39,2.09,2.26.04,4.52.27,6.78.31,2.91.04,4.56-1.1,5.45-3.85.98-3.02.97-5.99-.5-8.95-2.37-4.77-.89-8.08,4.19-9.79.84-.28,1.69-.55,2.53-.84,3.78-1.26,5.72-3.82,6.2-7.83.82-6.84-.93-13.37-2-19.99-.1-.63-1.12-1.36-1.86-1.61-4.83-1.62-9.04-4.01-11.6-9.18ZM170.57,446.65c-3.71,1.39-6.94,2.46-10.04,3.81-1.28.56-2.58,1.5-3.4,2.61-5.13,6.94-8.51,14.46-7.73,23.42.51,5.87,2.37,7.92,8.21,8.33,3.81.26,6.08,1.97,6.56,4.96.49,3.05-1.21,5.62-4.69,7.06-3.62,1.5-4.58,3.59-4.09,7.45,1.31,10.36,8.4,15.91,16.82,20.72.3-.73.62-1.37.83-2.04,1.1-3.47,2.04-7,3.29-10.42,3.02-8.26,3.14-16.39.76-24.95-2.8-10.1-5.36-20.32-5.65-30.93-.09-3.28-.55-6.55-.86-10ZM546.8,277.5c5.01,4.61,7.27,10.4,7.96,16.83.39,3.61.38,7.26.46,10.9.03,1.43.32,2.23,1.96,1.71.45-.14.96-.11,1.45-.14,8.18-.54,14.03-6.65,13.88-14.85-.12-6.22-1.69-12.01-6.33-16.58-1.57-1.54-2.17-3.49-1.41-5.57.75-2.05,2.33-3.23,4.6-3.37.96-.06,1.92-.27,2.87-.46,3.77-.76,6.54-2.62,7.51-6.61,1.85-7.57-1.88-21.77-13.34-26-2.08-.77-3.85-.92-6.03-.03-2.41.99-5.15,1.21-7.75,1.7-.72.13-1.48.02-2.55.02,8.14,10.76,9.26,30.48-3.28,42.47ZM439.02,446.68c-.23,2.77-.46,5.25-.65,7.73-.36,4.75-.31,9.58-1.16,14.24-1.13,6.23-2.65,12.43-4.53,18.49-2.61,8.43-2.38,16.6.66,24.83,1.28,3.48,2.18,7.1,3.27,10.65.23.74.53,1.46.92,2.53,2.34-1.59,4.39-2.98,6.43-4.38,5.58-3.79,9.07-8.91,10.1-15.64.59-3.85.5-7.1-4.46-8.58-.53-.16-1.02-.5-1.48-.82-1.86-1.27-3.02-2.98-2.81-5.3.22-2.5,1.67-4.2,3.96-5.08,1.03-.39,2.2-.46,3.32-.56,5.28-.51,6.86-2.1,7.55-7.34,1.26-9.62-2.56-17.57-8.07-24.97-.51-.69-1.27-1.35-2.06-1.66-3.51-1.4-7.07-2.68-11-4.14ZM54.32,307.12c0-2.85-.17-5.66.03-8.44.53-7.46,1.98-14.62,7.56-20.24.35-.35.17-1.82-.27-2.29-7.78-8.28-9.71-18.14-7.43-28.88.88-4.16,2.91-8.07,4.33-11.89-2.48-.46-5.69-.4-8.24-1.67-3.73-1.87-6.75-.9-9.8.94-7.92,4.78-10.88,12.29-11.01,21.11-.07,4.73,1.68,8.56,6.8,9.87,1.24.32,2.51.64,3.78.74,2.24.17,3.99,1.12,4.7,3.23.71,2.11.34,4.25-1.39,5.82-3.35,3.05-4.65,7.09-5.76,11.26-2.52,9.52,3.3,19.2,11.96,20,1.43.13,2.87.27,4.72.44ZM505.78,621.14c-.18,8.59-3.74,14.93-9.41,20.21-1.25,1.17-1.81,2.16-1.21,3.98,3.31,9.88.97,25.25-9.8,31.25-.59.33-.96,1.76-.83,2.58.39,2.46,1.14,4.86,1.63,7.31.29,1.45,1.08,2.13,2.5,2.08,1.69-.05,3.38-.21,5.08-.24,4.92-.07,9.12-1.95,12.81-5.06,6.26-5.26,7.68-12.46,8-20.11.12-2.86-.61-5.07-3.09-6.9-3.48-2.58-3.3-6.53.11-9.21.76-.6,1.62-1.06,2.44-1.58,5.6-3.54,8.49-9.05,7.34-14.41-1.62-7.56-5.98-13.38-12.13-17.84-.69-.5-2.45.14-3.53.63-.46.21-.7,1.44-.64,2.17.15,1.92.52,3.83.71,5.12ZM119.77,688.44c2.6.38,3.45-.41,3.73-2.37.31-2.23.94-4.43,1.62-6.59.44-1.4.16-2.22-1.04-3.06-9.5-6.7-13.51-18.8-9.85-30.11.73-2.25.39-3.59-1.3-5.25-7.08-6.93-10.76-15.09-8.29-25.24.14-.59-.22-1.78-.63-1.94-1.21-.45-3.05-1.17-3.78-.63-5.63,4.21-9.78,9.56-11.66,16.49-.96,3.55-.86,7.02,1.5,9.9,1.92,2.33,4.11,4.62,6.61,6.26,4.71,3.11,5.16,7.2.96,10.87-1.1.96-2.04,2.55-2.28,3.97-.35,2.11-.11,4.34.08,6.5.64,7.08,3.39,13.04,9.34,17.31,4.73,3.4,10.1,4.01,14.98,3.87ZM462.34,752.43c1.22,1.01,2.78,1.94,3.84,3.26,3.69,4.59,8.62,4.6,13.67,3.8,4.93-.78,5.97-4.89,6.95-8.91.13-.55.33-1.15.23-1.68-.27-1.45-.31-3.12-1.09-4.26-3.08-4.48-2.23-9.02,2.92-10.42,7.95-2.16,14.37-13.72,13.07-22.73-.69-4.77-3.15-8.77-6.1-12.22-1.14-1.33-4.35-.89-6.61-1.26-.08-.01-.16,0-.24-.01-1.62-.21-2.24.42-2.41,2.13-.48,4.93-2.37,9.17-6.45,12.33-.72.56-1.28,1.98-1.15,2.89,1.46,9.87-4.52,17.65-13.2,17.89-.53.01-1.42.85-1.49,1.38-.72,5.91-1.32,11.83-1.95,17.79ZM147.28,752.35c-.63-5.82-1.23-11.76-2-17.68-.08-.57-1.2-1.35-1.92-1.44-4.22-.55-7.82-2.1-10.24-5.76-2.3-3.47-2.96-7.32-2.47-11.39.18-1.52.16-2.81-1.33-3.82-3.25-2.22-4.91-5.53-5.82-9.25-1.21-4.93-1.19-5-6.34-4.86-1.22.03-2.97.27-3.53,1.07-2.79,4.04-5.74,8.12-6,13.31-.47,9.76,4.39,17.63,13.26,21.6,4.91,2.2,5.96,6.02,2.9,10.39-.45.65-.94,1.36-1.1,2.12-.91,4.33,2.01,10.83,5.47,12.34,5.05,2.2,12.38.61,15.39-3.17,1.05-1.33,2.51-2.33,3.76-3.46ZM315.58,834.67c6.04.04,9.69-2.72,11.93-7.63,1.19-2.61,1.35-4.88-.04-7.58-1.36-2.62-1.87-5.65-2.95-8.43-.35-.91-1.2-2.16-1.97-2.28-7.37-1.09-11.97-5.62-15.4-11.81-.52-.94-1.44-1.65-2.18-2.47-.87.79-1.77,1.55-2.58,2.39-.32.33-.43.87-.68,1.28-3.29,5.43-7.66,9.44-14.19,10.41-1.67.25-2.18,1.17-2.6,2.67-.82,2.94-1.96,5.79-2.93,8.69-.3.91-.66,1.84-.72,2.77-.26,3.92,2.95,9.08,6.64,10.84,4.32,2.06,8.07,1.5,11.72-2.17,3.39-3.4,6.22-4.06,10.16-.27,1.88,1.81,4.53,2.83,5.81,3.59ZM458.63,760.05s-.41.52-.73,1.06c-4.77,7.79-11.87,11.69-20.82,12.48-3.65.32-3.47.29-3.37,3.97.26,9.63-1.41,18.57-9.5,25.1-.48.39-.72,1.61-.49,2.23,1.32,3.6,3.09,6.94,6.48,9.08,3.53,2.24,7.26,3.18,11.17,1.12,3.7-1.95,5.04-5.35,5.04-9.31,0-1.6-.38-3.21-.71-4.79-1.06-5.05.72-8.05,5.55-9.74,2.03-.71,4-1.74,5.83-2.88,7.42-4.63,9.54-11.88,9.56-20.06,0-.61-.49-1.36-.97-1.81-2.28-2.18-4.64-4.27-7.03-6.45ZM150.68,759.7c-1.52,1.8-2.63,4.11-4.45,5.07-3.32,1.75-3.42,4.27-3.01,7.26.11.8.29,1.59.39,2.4.86,7.12,7.1,14.54,13.96,16.55,5.75,1.68,7.59,4.76,6.2,10.56-.71,2.98-.83,5.9.32,8.8,1.72,4.3,6.24,6.5,10.8,5.56,5.94-1.22,8.85-5.41,11.01-10.53.53-1.25.24-1.91-.64-2.92-2.36-2.72-4.91-5.44-6.56-8.59-2.68-5.12-3.05-10.86-2.8-16.59.15-3.44.15-3.4-3.15-3.66-9.16-.72-16.4-4.65-21.17-12.7-.27-.46-.63-.87-.88-1.21ZM486.34,594.98c6.33,2.07,8.93,3.93,12.92,8.91.43.54,1.33,1.14,1.9,1.05,3.49-.58,9.5-6.79,9.95-10.55.76-6.4-.36-12.59-2.99-18.48-.77-1.71-2.08-2.63-4.07-2.36-2.21.3-4.06-.35-5.11-2.42-1.1-2.19-.17-4.05,1.16-5.83.67-.89,1.59-1.8,1.75-2.81.96-6.08-.23-11.63-4.75-16.12-4.49-4.46-10.09-5.22-15.61-2.25-1.28.69-2.74,1.07-3.96,1.83-.82.51-1.93,1.46-1.92,2.21.02,1.44-.3,3.25,1.92,3.96,1.97.63,4.08,1.45,5.59,2.79,8.28,7.35,10.23,17.08,9.52,27.53-.33,4.79-2.76,8.88-6.3,12.54ZM122.99,595.11c-1.32-1.95-2.58-3.55-3.56-5.3-4.41-7.94-2.88-15.98-.22-24,2.21-6.66,6.07-11.77,13.14-13.83,2.04-.59,1.74-2.43,1.66-3.84-.04-.74-.96-1.64-1.71-2.08-1.88-1.1-3.86-2.02-5.85-2.91-1.08-.48-2.27-1.08-3.4-1.05-5.45.12-9.8,2.39-12.85,7.03-3.53,5.38-3.42,11.64-.12,16.9.83,1.33.99,3.78.31,5.15-.6,1.21-2.76,2.16-4.3,2.28-1.85.14-3.49.31-4.3,2.01-2.9,6.1-4.37,12.55-3.07,19.25,1.01,5.17,5.24,7.75,9.51,10,.46.24,1.71-.26,2.11-.78,3.22-4.28,7.22-7.38,12.64-8.84ZM134.28,665.63s.46.04.8-.14c3.11-1.64,6.31-3.16,9.28-5.03,2.7-1.69,2.62-1.88.77-4.46-10.74-14.91-14.9-31.26-10.88-49.42.32-1.47,1-3.04-.89-4.07-1.69-.92-3.29-1.81-4.99.07-.44.49-1.28.66-1.97.89-6.85,2.29-12.83,10.01-12.97,17.2-.12,6.33,3.02,10.94,8.45,13.95,6.53,3.63,7.3,6.66,3.26,12.81-.84,1.27-1.58,3.11-1.33,4.5.56,3.14,1.47,6.3,2.81,9.18,1.33,2.86,3.97,4.41,7.66,4.51ZM496.24,622.58c-.05-8.53-5.81-16.59-12.9-19.05-.91-.32-1.94-.61-2.61-1.24-1.74-1.63-3.13-.46-4.59.35-1.46.8-1.26,2.06-.88,3.39.25.85.37,1.74.52,2.62,2.21,12.96,1.09,25.5-5.16,37.26-2.01,3.78-4.48,7.3-6.63,11.02-.38.65-.52,2.16-.16,2.41,2.9,2.03,5.81,4.16,8.99,5.67,3.21,1.53,6.39.61,8.89-1.94,4.41-4.5,5.06-12.04,1.62-17.31-2.41-3.69-1.61-7.43,2.14-9.83.82-.52,1.71-.92,2.56-1.39,5.09-2.82,7.64-7.24,8.18-11.95ZM60.27,227.26c1.02-3.37,1.53-6.4,2.82-9.04,4.51-9.28,11.4-15.61,22.16-16.67,1.65-.16,1.57-1.15,1.53-2.4-.15-4.28-.7-8.64-.12-12.83.55-3.94.48-6.79-3.36-9.07-1.79-1.06-3.24-1.96-5.3-1.47-1.49.36-3.03.61-4.48,1.1-6.46,2.19-8.85,7.28-6.61,13.68.77,2.21.98,4.52-.86,6.37-1.96,1.96-4.32,1.98-6.76.99-.97-.4-1.91-.9-2.89-1.27-1.98-.75-3.42-.27-4.29,1.81-2.47,5.91-3.88,12.02-3.31,18.44.26,2.87,1.26,5.65,3.98,7.13,2.38,1.29,4.97,2.17,7.5,3.24ZM548.99,227.25c1.98-.69,3.64-1.26,5.3-1.86,4.18-1.53,6.27-4.56,6.62-8.97.4-5.03-.58-9.83-2.1-14.56-2.28-7.11-3.58-6.45-8.27-4.05-2.36,1.2-4.94,1.25-6.99-.83-2.01-2.03-1.46-4.36-.65-6.8.51-1.54.82-3.32.61-4.9-.54-4.11-2.86-6.97-6.93-8.21-4.03-1.23-8.1-2.93-11.49,1.38-.38.49-1.22.64-1.53,1.15-.49.77-1,1.71-1,2.58.05,5.64.41,11.28.28,16.92-.05,1.96.52,2.25,2.17,2.53,2.44.41,5.01.83,7.19,1.91,9.64,4.79,15.39,12.52,16.79,23.72ZM439.46,678.28c-.7.83-1.31,1.45-1.8,2.16-3.24,4.65-6.47,9.31-9.67,13.99-5.17,7.57-8.69,15.89-11.01,24.73-.28,1.08-.12,2.97.59,3.51,5.38,4.1,11.95,6.94,18.92,3.89,4.27-1.87,5.08-4.87,2.26-8.67-1.45-1.95-2.23-4.02-.92-6.3,1.26-2.19,3.39-2.22,5.57-1.88.71.11,1.41.3,2.08.53,2.11.72,4.3.08,5.11-1.9,1.66-4.08,2.57-8.55.36-12.46-3.36-5.95-7.46-11.49-11.49-17.59ZM170.05,678.49c-3.28,4.87-6.3,9.56-9.53,14.09-2.23,3.12-3.15,6.42-2.89,10.23.45,6.52,2.18,7.98,8.48,6.91,2.25-.38,4.46-.38,5.72,2,1.11,2.09.6,4.05-.75,5.88-3.16,4.26-2.12,7.36,2.9,9.24,6.21,2.32,11.52.18,16.74-2.98,1.95-1.18,2.76-2.58,1.94-4.82-1.59-4.33-2.94-8.76-4.71-13.01-4.09-9.83-11.04-17.89-16.85-26.65-.24-.37-.7-.59-1.05-.87ZM62.72,253.82c.93,3.76,1.48,7.19,2.66,10.4,1.25,3.4,3.31,6.42,7.4,6.87,1.57.17,3.2-.24,4.81-.23,1.78.01,2.37-.73,2.34-2.51-.05-3.64.07-7.28.19-10.92.51-14.67,5.01-28.08,12.84-40.42,1.56-2.46.94-4.12-2.03-4.5-2.06-.26-4.2-.08-6.29.09-6.7.57-12.6,5.54-14.4,11.98-.83,2.98-1.07,5.57,2.25,7.5,1.88,1.1,2.55,3.31,1.91,5.59-.67,2.35-2.51,3.43-4.74,3.47-1.95.03-3.18.94-3.75,2.51-1.22,3.37-2.17,6.84-3.2,10.17ZM529.89,262.84c0,1.95-.09,3.9.05,5.83.05.69.45,1.7.99,1.96,3.66,1.79,9.2.51,11.38-2.84,4.98-7.68,5.35-15.76,1.46-24.04-.78-1.66-1.95-2.54-3.96-2.63-2.9-.13-4.74-2.05-4.8-4.52-.06-2.15.97-3.8,2.75-4.82,2.27-1.3,2.39-3.18,2-5.41-.73-4.09-2.78-7.39-5.89-10.07-4.4-3.79-9.68-4.35-15.11-3.79-3.01.31-3.61,2.09-1.95,4.64,9.07,13.88,13.23,29.16,13.09,45.67ZM394.47,42.97c-3.69.06-5.9-1.99-5.96-4.92-.02-1.04,0-2.15.34-3.13.6-1.77-.1-3.03-1.36-4.05-.8-.65-1.76-1.2-2.74-1.5-6.8-2.09-12.51.77-18.03,4.2-.52.33-.53,1.57-.67,2.41-.43,2.58-.86,5.17-1.16,7.77-.1.84-.02,1.9.41,2.56,1.46,2.21,3.66,1.06,5.56.88,7.61-.75,14.66.31,20.53,5.78.55.51,1.74.96,2.33.71,6.1-2.55,12.34-2.14,18.64-1.2.5.07,1.38-.3,1.58-.71,1.33-2.79,1.86-5.71.53-8.65-1.2-2.67-3.56-3.99-6.29-3.64-3.49.44-6.91,1.44-10.33,2.3-1.39.35-2.71.95-3.39,1.2ZM243.06,37.53c.48-3.61.52-3.68-2.69-5.4-1.92-1.02-3.92-1.97-5.98-2.64-3.47-1.13-7.01-1.24-10.46.21-2.2.92-3.63,2.39-3.05,5.05.15.71.2,1.44.24,2.17.25,4.45-3.27,7.14-7.5,5.7-.84-.29-1.59-.83-2.44-1.07-2.63-.75-5.26-1.74-7.95-2.02-6.63-.7-9.96,3.41-8.46,9.96.51,2.2,1.28,3.31,3.94,2.87,5.45-.91,10.98-1.17,16.24,1.05,1.53.65,2.49.4,3.64-.7,3.2-3.05,7.08-4.93,11.47-5.24,3.76-.27,7.55-.04,11.33.11,2.82.11,4.13-1.69,3.16-4.25-.7-1.85-1.02-3.85-1.51-5.78ZM121.84,141.44c-.51-2.24-1.51-4.53-1.43-6.78.15-4.14-.81-7.12-5.28-8.07-.52-.11-.92-.69-1.43-.89-.66-.25-1.41-.53-2.07-.44-5.44.75-9.86,5.75-9.82,11.29,0,1.15.6,2.6,1.43,3.38,2.04,1.91,2.77,4.15,1.73,6.57-1.05,2.46-3.41,2.99-5.95,2.78-1.04-.09-2.18-.24-3.14.07-1.41.45-2.99,1.01-4,2.02-4.58,4.56-5.61,13.55-2.48,19.23.85,1.55,1.39,1.62,2.88.46,2.25-1.75,4.75-3.51,7.42-4.26,2.19-.62,2.78-1.43,3.05-3.46,1.04-7.82,4.91-14.02,11.48-18.34,2.32-1.52,5.06-2.39,7.6-3.55ZM519.12,172.31c.64-1.05,1.6-1.99,1.77-3.06.49-2.99,1.19-6.1.86-9.05-.88-7.79-4.55-10.85-12.2-10.91-2.18-.02-4.04-.68-4.98-2.78-1.01-2.28-.39-4.48,1.39-5.96,2.24-1.86,2.1-4,1.55-6.36-1.16-4.96-4.44-7.76-9.28-8.8-.78-.17-1.76.08-2.52.42-1.62.71-3.19,1.54-4.71,2.45-.61.37-1.38,1.02-1.47,1.62-.55,3.87-.93,7.76-1.4,11.93-.13-.07.2.18.57.28,10.17,2.86,15.89,9.88,17.9,19.91.61,3.06,1.48,4.83,4.71,5.07.84.06,1.73.52,2.43,1.03,1.75,1.26,3.4,2.64,5.38,4.21ZM135.8,141.79c.6-1.39,1.16-2.64,1.67-3.9,5.69-14.06,12.97-27.03,25.22-36.56,1.45-1.13,1.77-2.11.59-3.8-1.1-1.56-1.53-3.57-2.49-5.24-.44-.77-1.49-1.71-2.23-1.69-2.58.07-5.19.31-7.7.88-4.91,1.12-9.02,9.4-4.47,13.88,2.3,2.26,2.66,4.37,1.56,6.55-1.1,2.17-3.31,3.04-6.49,2.55-4.11-.63-5.98.07-7.54,3.97-1.64,4.1-2.92,8.39-3.83,12.71-.81,3.88.7,8.75,5.7,10.65ZM473.87,141.64c3.47-1.02,5.55-3.84,5.71-7.64.21-5.24-1.37-10.07-3.45-14.77-2.05-4.61-3.44-5.29-8.51-4.65-2.4.3-4.56-.2-5.9-2.45-1.14-1.92-.8-4.69,1.21-6.43,3.31-2.87,2.62-6.7,1.08-9.72-2.1-4.1-5.85-4.95-9.97-5.29-4.42-.36-4.41-.45-6,3.56-.24.6-.53,1.18-.82,1.76-1.78,3.56-1.86,3.65,1.09,6.22,9.44,8.24,16.44,18.21,21.34,29.7,1.39,3.25,2.82,6.49,4.22,9.72ZM355.77,40.08c.44-3.64-.87-8.81-2.75-11.4-2.38-3.27-4.92-4.15-8.89-3.07-3.54.96-6.39,2.86-8.75,5.73-2.88,3.51-6.84,3.17-9.2-.67-.87-1.41-1.93-1.7-3.42-1.68-5.79.07-9.9,6.56-9.91,14.06.07.04.15.11.21.1.31-.03.63-.05.94-.14,6.92-1.91,13.55-1.15,19.98,2.02.67.33,1.93-.1,2.72-.54,2.03-1.15,3.83-2.73,5.92-3.72,4.17-1.97,8.59-1.87,13.14-.7ZM297.82,43.11c-1.49-3.74-2.43-7.22-4.18-10.22-2.72-4.66-7.46-4.93-11.03-1.06-2.57,2.78-6.3,2.57-8.73-.8-2.41-3.34-5.8-4.91-9.58-5.64-1.54-.3-3.46,0-4.88.69-3.72,1.81-6.66,9.67-5.38,13.97,7.36-1.99,13.83-.25,19.5,4.85.45.41,1.72.36,2.36.03,4.14-2.1,8.53-3.05,13.12-2.87,2.62.1,5.22.6,8.8,1.04ZM347.96,66.7c10.68-.93,22.96-1.15,35.15,1.48.64.14,1.73-.13,2.08-.6,2.18-2.96.3-8.83-3.26-9.67-2.64-.62-5.49-.96-8.16-.67-2.92.32-5.76,1.48-8.62,2.33-3.8,1.12-6.92-.41-7.64-3.78-.88-4.1-3.87-5.82-8.02-4.42-1.75.59-3.4,1.52-5.05,2.37q-4.76,2.44-4.22,7.82.55,5.58,7.76,5.15ZM223.83,63.91c.04,4.33.47,4.57,4.61,3.95,4.71-.71,9.47-1.51,14.22-1.54,7.93-.05,15.86.45,23.78.79,1.47.06,2.59-.02,2.77-1.81.25-2.58.62-5.15.77-7.73.04-.66-.4-1.69-.93-1.97-2.71-1.45-5.47-2.84-8.31-4.01-4.39-1.8-7.35-.26-8.65,4.28-.68,2.35-2.52,4.04-4.9,4-1.49-.02-3.06-.4-4.44-.99-4.32-1.85-8.76-2.21-13.33-1.49-4.06.64-5.62,2.46-5.58,6.52ZM122.01,120.55c.87-2.08,1.59-3.95,2.42-5.77,2-4.39,4.74-8.06,9.49-9.89.63-.24,1.19-1.62,1.17-2.46-.1-4.81,1.21-9.15,4.12-12.93,1.56-2.03,3.43-3.82,5.24-5.79-.87-1.06-1.64-2.21-2.64-3.13-.52-.48-1.49-.88-2.14-.75-5.29,1.03-9.96,3.33-13.68,7.3-1.39,1.49-1.69,2.98.24,4.41,1.99,1.47,2.59,3.55,1.71,5.82-.94,2.41-3.07,2.98-5.41,2.7-2.65-.32-4.41.99-4.94,3.29-.71,3.1-1.26,6.35-1.12,9.5.16,3.42,2.13,6.1,5.54,7.69ZM465.24,83.76c.11.23.14.42.25.51,5.94,4.79,9.36,10.77,8.98,18.64-.03.66.67,1.73,1.28,1.98,5.23,2.1,8.04,6.31,10.1,11.21.61,1.46,1.18,2.94,1.81,4.51,2.68-1.18,4.36-2.98,5.05-5.5,1.12-4.1.84-8.16-.78-12.12-.87-2.13-2.38-3.18-4.73-2.93-2.46.26-4.66-.28-5.6-2.79-.91-2.41.02-4.47,2.05-5.96,1.68-1.23,1.66-2.7.21-3.79-3.07-2.3-6.14-4.76-9.58-6.4-5.02-2.4-5.46-2.03-8.93,2.25-.05.06-.05.15-.11.38ZM337.39,832.24c-2.1,5.04-5.32,8.84-9.94,11.43-.44.25-.8,1.34-.63,1.86,1.08,3.29,2.18,6.59,3.56,9.76,1.02,2.34,3.04,3.45,5.68,3.34,5.57-.22,9.31-3.64,12.96-7.28,2.19-2.18,3.14-4.5,1.88-7.59-.47-1.14-.32-2.55-.32-3.84,0-1.33-.49-2.01-1.86-2.36-1.95-.51-3.88-1.18-5.69-2.04-1.87-.88-3.6-2.07-5.64-3.27ZM273.7,858.64c2.55.14,4.77-.97,5.86-3.71,1.19-3,2.26-6.06,3.15-9.16.19-.65-.41-1.96-1.02-2.33-3.92-2.4-6.95-5.54-8.79-9.77-.6-1.37-1.33-1.27-2.45-.51-1.53,1.04-3.1,2.27-4.83,2.74-4.41,1.17-7.2,2.94-7.13,8.34.03,2.68.02,4.79,1.92,6.68,1.26,1.26,2.45,2.61,3.82,3.72,2.66,2.16,5.54,3.94,9.49,4.01ZM158.51,61.78c-5.38-.25-7.47.94-8.8,4.91-1.4,4.18.23,10.02,3.58,12.83,1.97,1.66,5.27.86,5.51-1.45.94-8.92,8.6-15.99,19.45-15.38,3.77.21,5.94-.44,7.49-3.93.94-2.11.64-5.08-1.57-5.52-4.34-.86-8.76-1.34-13.17-1.72-2.26-.19-3.24,1.12-3.11,3.54.19,3.63-1.88,5.95-5.49,6.52-1.27.2-2.58.14-3.87.19ZM451.05,61.72c-.24,0-.49,0-.73,0-6.38.18-8.15-1.42-8.58-7.87-.11-1.72-1.27-2.31-2.6-2.26-3.45.13-6.95.2-10.33.84-6.28,1.18-6.78,2.47-3.76,7.93.04.07.09.14.12.21.66,2.08,1.96,2.44,4.11,2.17,10.84-1.33,20.22,4.93,21.5,14.84.12.9,1,2.13,1.8,2.42,1.36.48,3.06.79,4.14-.87.88-1.35,1.9-2.64,2.64-4.07,3.63-7.09-.43-13.59-8.31-13.35Z" style="fill: #000; stroke-width: 0px;"/>
  <path d="M238.18,689.24c.19-4.13.36-8.26.6-12.39.08-1.44-.16-2.52-1.7-3.06-6.48-2.26-11.78-6.43-16.98-10.71-4-3.3-8.05-6.58-11.75-10.2-5.55-5.44-11.92-9.43-19.2-12.03-7.73-2.76-14.48-7.2-21.04-12.01-3.72-2.73-5.02-6.37-3.73-10.69,1.84-6.15,4.05-12.16,8.5-17.04.38-.41.65-.93.96-1.4,2.97-4.53,5.81-9.15,8.94-13.57,5.87-8.29,12.44-15.95,20.24-22.55,5.71-4.83,11.89-8.48,19.01-10.96,8.01-2.8,15.81-6.32,23.47-10,2.37-1.14,4.29-3.61,5.88-5.85,2.52-3.55,5.39-7.17,6.65-11.22,2.3-7.37,3.55-15.07,5.16-22.65.25-1.17.23-2.43.14-3.64-.56-7,3.05-11.43,8.8-14.67,2.74-1.54,5.36-3.29,8-5,3.26-2.11,6.94-1.05,8.44,2.53.37.89.62,1.85.78,2.8,2.86,16.95,5.72,33.89,8.51,50.85.59,3.59.9,7.24,1.33,10.86.19,1.63,3.84,5.55,5.35,5.73,1.21.15,5.38-3.65,5.62-5.13,3.27-20.57,6.52-41.14,9.83-61.71.23-1.42.61-2.89,1.27-4.15,1.49-2.85,4.76-3.73,7.5-2.07,3.59,2.18,7.09,4.5,10.65,6.73,4.49,2.81,6.77,6.75,6.69,12.14-.14,9.44,1.84,18.6,5.26,27.27,1.98,5.03,5.32,9.61,8.53,14.04,1.38,1.89,3.83,3.26,6.07,4.22,8.49,3.63,17.05,7.11,25.66,10.43,7.15,2.75,12.65,7.75,18.27,12.66,9.14,7.99,15.86,17.96,22.76,27.75,3.71,5.26,6.75,11,9.88,16.64,1.16,2.1,1.85,4.5,2.48,6.84,1.3,4.79,0,8.05-4,11.02-6.53,4.86-13.31,9.34-21.09,11.9-9.27,3.04-16.02,9.54-23.14,15.7-5.69,4.92-11.76,9.4-17.79,13.9-1.72,1.29-3.8,2.21-5.85,2.91-2.12.73-2.53,1.94-2.49,4.02.16,8.34.2,16.69.1,25.03-.06,5.45-1.91,10.48-4.27,15.34-1.13,2.33-2.21,4.69-3.24,7.06-1.34,3.06-3.71,4.56-6.44,4-2.76-.56-4.44-3.07-4.37-6.45.06-3.16.46-6.37-.03-9.45-.35-2.25-1.36-4.94-3-6.35-5.4-4.62-10.99-9.13-17-12.9-3.08-1.94-7.18-2.31-10.86-3.18-.79-.19-1.84.44-2.69.85-2.91,1.42-5.76,2.96-8.69,4.35-3.66,1.74-7.39,1.7-11.04-.05-2.77-1.33-5.55-2.67-8.23-4.18-1.58-.89-3.01-.98-4.83-.72-11.1,1.59-18.54,9.18-26.31,16.09-1.61,1.43-2.45,4.18-2.81,6.45-.45,2.84-.1,5.81,0,8.73.12,3.62-1.42,6.18-4.2,6.8-2.89.65-5.42-1.08-6.79-4.56-.62-1.58-1.28-3.16-2.09-4.65-3.64-6.69-5.5-13.82-5.47-21.45.01-3,0-6,0-9-.07,0-.13,0-.2,0ZM408.68,620.5c-.1-.23-.2-.45-.3-.68-.76.13-1.52.28-2.28.39-15.76,2.3-28.63,11.38-42.48,18.13-8.44,4.11-16.63,8.72-25.04,12.9-3.96,1.97-8.3,2.14-12.61,1.14-6.23-1.46-12.41-3.12-18.66-4.49-1.75-.38-3.72-.35-5.48.03-5.46,1.19-10.88,2.56-16.27,4.03-6.36,1.74-12.35.92-18.13-2.11-11.83-6.2-23.82-12.12-35.45-18.68-9.14-5.16-18.63-9.07-28.93-10.98-.74-.14-1.51-.12-2.26-.17-.1.29-.21.58-.31.87,5.26,3.75,10.4,7.69,15.82,11.19,5.85,3.79,10.87,8.34,15.35,13.68,2.84,3.38,6.13,6.51,9.66,9.15,14.86,11.11,32.25,17,49.73,21.93,11.46,3.23,23.62,3,34.86-2.76.43-.22.9-.38,1.37-.48,10.27-2.15,19.68-6.52,28.88-11.34,8.81-4.61,17.02-10.04,23.11-18.19,3.48-4.66,8.04-8.16,12.87-11.37,4.79-3.18,9.39-6.64,14.05-10.01.89-.65,1.66-1.45,2.49-2.19ZM200.16,589.8c.1.18.2.36.31.54.76-.13,1.52-.26,2.28-.39,2.95-.51,5.9-1.1,8.86-1.51,12.81-1.8,23.79,1.28,31.96,11.96.81,1.06,1.96,2.04,3.17,2.57,5.34,2.31,10.73,4.49,16.14,6.62,6.55,2.58,13.19,4.9,19.67,7.62,5,2.1,9.79,4.69,14.72,6.97.99.46,2.17.69,3.27.73,2.74.1,5.5.11,8.24,0,1.1-.04,2.27-.28,3.27-.74,4.86-2.24,9.59-4.77,14.51-6.84,6.48-2.73,13.11-5.11,19.66-7.67,5.19-2.03,10.43-3.96,15.51-6.24,1.83-.83,3.53-2.35,4.82-3.93,6.41-7.79,14.56-11.83,24.63-11.4,5.16.22,10.28,1.21,15.42,1.85.79.1,1.59.17,2.89.31-.63-.85-.8-1.23-1.09-1.47-6.13-5.14-12.81-9.43-20.39-12.06-1.76-.61-4.12-.45-5.89.2-2.85,1.05-5.52,2.69-8.13,4.29-4.34,2.65-8.23,6.09-13.42,7.16-.59.12-1.21.57-1.6,1.05-3.01,3.72-7.22,4.94-11.63,6.01-6.98,1.7-14.23,2.38-20.83,5.62-5.48,2.7-11.36,2.95-17.36,2.46-2.89-.24-5.84-.26-8.72,0-6.43.57-12.55-.19-18.54-2.75-3.54-1.52-7.36-2.41-11.11-3.39-3.92-1.03-7.91-1.77-11.84-2.73-3.13-.77-5.87-2.24-8.07-4.7-.67-.75-1.64-1.29-2.56-1.75-2.87-1.45-5.86-2.67-8.66-4.24-3.81-2.13-7.43-4.6-11.26-6.7-2.7-1.48-5.59-1.31-8.45-.09-6.54,2.77-12.53,6.44-18.07,10.87-.64.51-1.14,1.19-1.71,1.79ZM407.56,608.94c-.02-.23-.04-.46-.06-.69-.38-.05-.76-.17-1.13-.13-5.89.51-11.86.61-17.65,1.68-6.92,1.28-13.66,3.35-19.34,7.98-1.58,1.29-3.66,2.18-5.65,2.71-5.77,1.54-11.57,3.03-17.44,4.14-11.4,2.16-21.87,7.09-32.83,10.55-.34.11-.61.44-1.2.87,3.12,1.54,6.2,2.65,8.82,4.44,5.18,3.55,10.02,2.98,15.23.06,13.55-7.59,27.22-14.98,40.82-22.48,6.73-3.71,13.72-6.57,21.43-7.5,3.03-.36,6.01-1.08,9.01-1.63ZM202.06,608.39c-.01.18-.02.36-.04.54,1.89.38,3.78.76,5.66,1.16,4.51.96,9.22,1.4,13.47,3.03,6.55,2.52,12.91,5.65,19.13,8.92,6.08,3.2,11.84,7,17.84,10.36,5.87,3.28,11.84,6.38,17.81,9.47,2.51,1.3,5.24,2.01,7.96.74,4.32-2.02,8.56-4.21,12.83-6.34.08-.04.05-.29.1-.59-.45-.22-.93-.51-1.43-.69-5.64-2.05-11.2-4.34-16.94-6.06-6.35-1.9-12.8-3.57-19.31-4.81-8.04-1.53-15.86-3.33-22.36-8.7-.43-.36-.93-.65-1.44-.89-10.35-4.9-21.41-6.18-32.67-6.38-.2,0-.41.17-.61.26Z" style="fill: #000; stroke-width: 0px;"/>
  <path d="M250.35,416.48c-.16-1.68-.4-3.35-.47-5.03-.14-3.17,1-5.22,3.17-5.98,2.09-.72,4.45-.07,5.97,2.59,2.03,3.55,3.6,7.39,5.12,11.2,1,2.5,1.56,5.17,2.32,7.76l.66-.06c.84-4.89,1.7-9.78,2.52-14.68.36-2.16.55-4.35.95-6.5.65-3.44,3.02-4.54,6.06-2.89,3.95,2.14,4.41,3.06,3.72,7.6-.27,1.74-.6,3.47-1.05,6.09,2.95-.83,5.46-1.28,7.74-2.25,2.52-1.07,4.82-2.64,7.24-3.96,2.25-1.23,4.25-.54,4.55,1.97.3,2.51.11,5.13-.23,7.65-.33,2.47-1.25,4.86-1.67,7.33-.21,1.23-.04,2.58.2,3.83.32,1.7,1.18,2.49,3.11,1.69,2.79-1.15,5.68-1.08,8.58-.15,2.52.81,3.62.32,3.56-2.36-.08-3.27-1.02-6.51-1.44-9.78-.33-2.53-.78-5.12-.57-7.64.26-3.11,2.25-3.87,4.99-2.35,2.33,1.3,4.6,2.77,7.05,3.8,2.23.94,4.67,1.39,7.61,2.22-.47-2.79-.86-4.74-1.11-6.71-.55-4.31,1.06-6.64,5.21-7.68,2.06-.52,3.94.65,4.49,3.02.44,1.89.61,3.84.92,5.76.87,5.33,1.76,10.66,3.23,16.14.26-.66.55-1.32.77-1.99,1.32-4.08,2.45-8.25,4.02-12.24.84-2.14,2.28-4.1,3.71-5.94,1.22-1.57,3.04-2.17,5.03-1.47,1.97.7,2.99,2.25,3.1,4.26.12,2.23.03,4.47.03,7.47,1.26-1.56,2.45-2.63,3.13-3.96,2.48-4.92,3.62-9.97,2.9-15.7-.85-6.8-.7-13.74-.71-20.63,0-4.13,2.32-6.97,6.09-8.6.97-.42,1.96-.76,2.95-1.13,1.81-.67,2.74-2.03,2.03-3.81-1.88-4.71-3.48-9.65-6.1-13.94-4.69-7.67-10-14.96-15.16-22.33-1.1-1.57-2.54-2.96-4.04-4.18-10.49-8.53-13-19.64-10.65-32.38,1-5.41,1.88-10.85,2.97-16.24.45-2.21,1.06-4.48,2.13-6.42.63-1.15,2.3-2.37,3.52-2.39,1.34-.02,3.19.97,3.95,2.1,2.2,3.3,3.21,6.95,2.14,11.07-2.42,9.3.23,18.16,2.79,26.98.35,1.2,1.14,2.35,1.96,3.33,4.13,5,8.2,10.06,12.55,14.86,7.89,8.72,13.93,18.67,20.09,28.61,5.17,8.35,4.68,16.88,1.78,25.47-2.69,7.95-4.56,16.05-6,24.28-.27,1.57-.5,3.31-.1,4.8,3.42,12.89,3.15,26.02,2.91,39.17-.02,1.21.11,2.56-.36,3.6-.61,1.35-1.57,3.2-2.71,3.47-1.15.28-2.87-.89-4.03-1.82-.96-.77-1.5-2.09-2.19-3.19-3.82-6.03-7.65-12.04-11.42-18.1-.87-1.4-1.57-1.82-2.99-.59-3.76,3.25-7.95,5.22-13.16,4.36-.71-.12-2.01.76-2.37,1.49-1.83,3.79-3.56,7.63-5.07,11.56-1.16,3-2.58,4.64-4.86,4.77-2.3.13-4.7-1.39-5.49-4.36-1.13-4.21-1.77-8.55-2.51-12.86-.64-3.71-.57-3.73-4.25-4.08-1.83-.17-4.21-1.07-5.33-.26-1.15.84-1.12,3.36-1.48,5.17-.67,3.37-1.52,6.53-4.33,8.98-5.08,4.44-7.97,4.72-13.35.63-.46.37-.95.76-1.43,1.17-2.03,1.71-4.41,2.31-6.82,1.35-4.24-1.69-7.48-4.52-8.64-9.16-.55-2.2-1-4.43-1.36-6.67-.24-1.51-.85-2.08-2.44-1.8-1.91.33-3.89.28-5.77.69-.69.15-1.58,1.06-1.72,1.75-.65,3.26-.95,6.58-1.6,9.84-.44,2.2-1.03,4.43-1.95,6.47-.96,2.13-2.81,3.43-5.3,3.08-2.36-.33-3.46-2.04-4.28-4.15-1.53-3.92-3.27-7.76-4.9-11.64-.69-1.64-1.7-2.28-3.61-1.96-4.5.77-8.23-1.17-11.65-3.83-2.42-1.88-2.37-1.88-4.06.79-4.02,6.38-8.05,12.75-12.13,19.09-1.22,1.9-2.47,4.16-5.27,3.42-2.68-.7-2.75-3.18-2.82-5.36-.43-13.55-.81-27.09,2.8-40.36.37-1.37.52-2.96.22-4.32-1.63-7.35-3.5-14.64-5.17-21.98-1.21-5.28-2.47-10.57-3.23-15.92-.3-2.11.27-4.59,1.16-6.57,5.78-12.8,13.57-24.31,22.82-34.86,4.38-5,8.58-10.15,12.82-15.28.66-.8,1.31-1.73,1.6-2.71,2.62-8.72,5.21-17.5,3.07-26.73-.93-4.04-.55-7.8,1.68-11.18.82-1.24,2.46-2.34,3.92-2.67,1.92-.44,3.44.94,4.06,2.78.87,2.6,1.61,5.25,2.17,7.93.84,4.04,1.49,8.12,2.19,12.19.41,2.39.9,4.79,1.14,7.2,1.06,10.76-2.35,19.71-10.61,26.9-2.65,2.3-4.85,5.2-6.91,8.07-4.26,5.92-8.56,11.85-12.3,18.1-2.63,4.4-4.57,9.27-6.41,14.09-1.05,2.74-.22,3.73,2.53,4.81,6.75,2.64,8.42,4.83,8.27,11.98-.14,6.96-.51,13.92-1,20.86-.38,5.38,1.63,9.98,4.12,14.49.47.85.95,1.7,1.42,2.55.38-.3.76-.59,1.14-.89Z" style="fill: #000; stroke-width: 0px;"/>
  <path d="M147.53,318.47c0,3.92,0,7.84.01,11.77,0,.56.17,1.12.21,1.69.21,2.64-.86,4.62-2.88,5.36-2.12.77-4.38-.05-5.79-2.39-6.77-11.29-11.97-23.19-13.91-36.33-.08-.56-.16-1.12-.28-1.68-.03-.13-.19-.24-.77-.91-1.1,2.85-2.1,5.39-3.04,7.96-.22.6-.21,1.28-.36,1.91-.48,1.92-1.59,3.26-3.67,3.3-2.19.04-3.53-1.33-3.9-3.34-2.59-14.27-2.3-28.4,2.37-42.28.29-.87.6-1.74.46-2.83-.52.48-1.02.98-1.56,1.44-1.92,1.65-4.59,1.98-6.55.75-2.17-1.37-2.89-3.41-2.46-5.88.12-.71.33-1.43.61-2.1,5.91-14.14,14.12-26.58,26.24-36.25,4.75-3.79,9.03-8.18,13.92-11.76,11.6-8.48,24.56-14.14,38.61-17.14,7.37-1.57,14.79-2.94,22.25-3.97,3.23-.45,6.63-.04,9.9.4,4.42.59,7.33,2.95,8.22,7.65,2.79,14.63,5.8,29.22,8.56,43.86.53,2.84.48,5.82.39,8.73-.21,6.83-3.64,11.12-10.37,12.51-3.62.74-7.39.9-11.11,1.04-8.74.32-16.25,7.48-16.34,16.28-.04,4.09.84,8.2,1.35,12.29.8,6.42,1.67,12.83,2.43,19.26.34,2.86-.49,5.48-2.33,7.71-4.48,5.42-6.64,11.62-6.49,18.64.14,6.56.34,13.12.36,19.68,0,2.31-.09,4.75-.8,6.91-1.14,3.47-4.15,4.58-7.42,2.99-1.66-.81-3.26-1.85-4.65-3.06-13-11.31-22.79-24.98-29.6-40.79-.22-.5-.5-.97-.75-1.45-.29.01-.58.03-.86.04ZM186.45,305.7c-.35-1.16-.39-1.76-.68-2.2-3-4.71-4.82-9.88-6.11-15.28-.19-.8-1.42-1.73-2.31-1.93-4.11-.91-7.78-2.71-10.31-6-2.69-3.51-5.26-7.24-7.16-11.22-4.18-8.77-3.72-17.64.84-26.2,6.41-12.05,20.11-15.99,31-8.97,3.84,2.48,6.67,5.9,8.76,9.92.74,1.42,1.49,1.73,3.08,1.22,3.61-1.17,7.3-2.14,10.99-3.01,1.68-.39,2.38-1.16,2.16-2.85-1.62-12.46-3.24-24.91-4.82-37.37-.29-2.29-1.52-2.96-3.69-2.66-6.34.9-12.7,1.64-19.03,2.6-1.9.29-3.91.76-5.53,1.71-7.96,4.68-16.09,9.15-23.62,14.45-12.22,8.61-19.2,20.7-20.95,35.58-1.22,10.44.31,20.66,2.79,30.83.96,3.95,2.83,6.8,6.38,8.23,5.16,2.09,10.43,3.98,15.78,5.5,6.79,1.92,13.68,3.46,19.9,6.98.57.33,1.31.36,2.52.67Z" style="fill: #000; stroke-width: 0px;"/>
  <path d="M493.15,260.41c2.9,8.11,4.44,16.4,4.49,24.85.04,6.7-.83,13.4-1.42,20.09-.19,2.14-1.46,3.62-3.76,3.78-1.98.14-3.31-1.4-3.99-3.83-.85-3.04-1.97-6.01-2.98-9.01-.27.07-.55.13-.82.2-.15.59-.34,1.18-.43,1.78-1.92,13.14-7.08,25.06-13.81,36.37-1.51,2.54-3.64,3.42-5.9,2.65-2.09-.72-3.04-2.7-2.91-5.56.17-3.72.2-7.44.24-11.17,0-.75-.21-1.49-.42-2.9-.63,1.11-.94,1.56-1.15,2.05-6.7,15.68-16.33,29.26-29.15,40.52-1.68,1.47-3.64,2.73-5.67,3.67-2.87,1.32-5.71.23-6.71-2.78-.75-2.23-.9-4.74-.91-7.12-.03-7.37.18-14.73.22-22.1.04-6.11-2.33-11.37-6.1-16.04-2.05-2.54-3.01-5.37-2.58-8.59,1-7.46,2.08-14.9,3.1-22.36.29-2.09.53-4.18.72-6.28.69-7.48-3.13-12.75-8.79-16.8-1.64-1.18-4.07-1.48-6.19-1.74-3.77-.47-7.63-.33-11.37-.94-7.62-1.22-11.53-5.81-11.55-13.53,0-3.79.34-7.62.97-11.36,1.8-10.79,3.76-21.55,5.8-32.3.66-3.49,1.63-6.94,2.74-10.32.96-2.93,3.34-4.77,6.29-5.14,4.23-.52,8.61-1.14,12.77-.59,15.96,2.11,31.73,5.23,46.1,12.96,5.54,2.98,11.07,6.22,15.95,10.16,7.17,5.79,13.95,12.11,20.54,18.56,7.84,7.68,12.51,17.47,16.89,27.36,1.46,3.3.69,6.25-1.74,7.82-2.4,1.55-5.1.93-7.76-1.76-.22-.22-.47-.4-.71-.6ZM422.92,305.6c1.14-.16,1.67-.09,2.05-.31,7.86-4.52,16.67-6.15,25.29-8.4,4.97-1.3,9.8-3.02,13.81-6.33,1.18-.97,2.32-2.41,2.72-3.84,2.44-8.68,4.04-17.49,3.95-26.59-.15-16.3-6.22-29.78-18.71-40.27-8.19-6.87-17.72-11.63-27-16.77-.97-.54-2.11-.89-3.22-1.05-6.81-1-13.64-1.88-20.45-2.89-2.46-.36-3.6.57-3.9,3.01-1.54,12.3-3.14,24.59-4.73,36.88-.23,1.79.47,2.69,2.29,3,2.31.39,4.6.96,6.87,1.54,1.94.5,4.15,2,5.67,1.47,1.53-.54,2.34-3.07,3.49-4.71,8.66-12.46,25.51-13.25,34.91-1.59,3.21,3.98,5.2,8.58,5.97,13.66,1.69,11.12-2.88,20.09-9.82,28.17-2.61,3.04-6,4.95-9.99,5.59-1.63.26-2.16,1.15-2.68,2.62-1.67,4.71-3.58,9.33-5.4,13.99-.31.79-.63,1.57-1.13,2.83Z" style="fill: #000; stroke-width: 0px;"/>
  <path d="M152.61,171.57c.29-2.81.54-5.71.91-8.6,1.06-8.26,4.96-14.92,11.22-20.38,10.17-8.87,22.05-13.94,35.28-15.61,9.87-1.24,19.83-2.03,29.78-2.41,18.28-.7,36.35-2.71,54.18-6.87,1.34-.31,2.64-.79,3.96-1.19,2.79-.83,5.24-.18,6.57,1.75,1.34,1.94,1.28,4.61-.57,6.77-2.93,3.43-5.48,7.03-6.64,11.46-.22.86-.57,1.74-.55,2.61.1,5.74-2.54,10.27-6.15,14.4-.85.98-1.67,1.99-2.58,2.91-3.04,3.04-4.7,6.68-5.28,10.95-1.49,11.01-3.06,22.01-6.61,32.6-.49,1.46-.92,2.95-1.51,4.37-.78,1.89-2.19,3.07-4.34,2.82-2.15-.24-3.21-1.7-3.6-3.72-.06-.32-.11-.64-.11-.97.02-10.47-3.76-19.98-7.38-29.55-1.38-3.64-3.67-5.96-7.44-7.36-9.16-3.42-18.27-4.52-27.84-1.71-8.7,2.56-17.56,4.6-26.35,6.86-8.79,2.27-16.98,5.86-24.51,10.97-1.66,1.13-3.48,2.11-5.36,2.81-2.21.83-3.97-.35-4.2-2.63-.35-3.38-.57-6.77-.86-10.28Z" style="fill: #000; stroke-width: 0px;"/>
  <path d="M456.72,171.92c-.26,2.8-.51,6.52-.96,10.21-.26,2.11-2.08,3.16-4.18,2.34-1.87-.73-3.69-1.71-5.35-2.84-7.32-4.98-15.26-8.55-23.82-10.74-11.07-2.83-22.1-5.85-33.25-8.28-8.78-1.91-17.02.94-24.91,4.58-1.25.58-2.33,2.1-2.9,3.44-4.01,9.4-7.99,18.83-8.39,29.27-.04,1.13-.12,2.27-.29,3.39-.31,2.01-1.3,3.54-3.46,3.85-2.26.33-3.8-.86-4.52-2.88-1.14-3.21-2.35-6.43-3.03-9.74-1.75-8.4-3.42-16.83-4.73-25.31-.8-5.24-2.46-9.79-6.28-13.6-2.05-2.04-3.92-4.38-5.33-6.89-1.28-2.28-2.38-4.93-2.55-7.49-.37-5.62-2.48-10.32-6.02-14.53-.47-.56-.96-1.1-1.39-1.69-1.69-2.31-1.86-4.84-.47-6.77,1.35-1.87,3.63-2.48,6.35-1.77,4.23,1.09,8.44,2.36,12.73,3.17,17.24,3.24,34.65,4.78,52.19,5.15,11.61.25,23.14,1.39,34.36,4.62,9.19,2.65,17.26,7.29,24.47,13.55,6.88,5.96,10.35,13.55,11.19,22.47.17,1.86.31,3.71.54,6.5Z" style="fill: #000; stroke-width: 0px;"/>
</svg>