<?xml version="1.0" encoding="UTF-8"?>
<svg id="Layer_1" data-name="Layer 1" xmlns="http://www.w3.org/2000/svg" viewBox="0 0 729.36 900">
  <path d="M657.59,479.58c20.12,11.02,34.64,28.47,47.97,46.89,9.23,12.75,17.26,26.48,20.23,42.21,1.93,10.24,2.98,20.74,3.35,31.17.96,27.35-1.19,54.49-8.15,81.06-6.29,24.01-18.03,44.9-36.7,61.58-1.67,1.49-1.94,2.5.17,4.01,5.05,3.62,7.22,9.07,8.21,14.92,5.19,30.7-2.79,57.32-25.35,79.06-17.71,17.07-39.64,25.77-63.34,30.52-28.16,5.64-56.53,5.38-84.88,2.12-18.96-2.18-37.82-5.28-56.74-7.85-1.46-.2-3.71.07-4.49,1.02-4.63,5.65-10.64,9.3-17.05,12.37-13.74,6.58-27.49,13.15-42.34,16.93-27.81,7.07-55.24,5.71-82-4.66-10.74-4.16-21.14-9.22-31.58-14.12-5.11-2.4-9.58-5.78-13.33-10.16-.93-1.09-3.31-1.56-4.9-1.35-20.66,2.71-41.25,6.11-61.96,8.3-28.48,3.02-56.96,2.72-85.07-3.77-19.62-4.53-37.94-12.02-53.4-25.26-25.1-21.49-35.11-48.77-30.1-81.41.6-3.94,2.38-7.74,3.94-11.47.68-1.63,2.05-3.08,3.37-4.31,3.26-3.03,3.3-2.94.03-5.96-18.32-16.9-29.49-37.93-35.86-61.8-4.84-18.12-6.63-36.67-7.38-55.27-.54-13.43-.03-26.95.67-40.39.92-17.45,7.45-33.13,16.39-47.97,10.15-16.86,22.77-31.63,37.4-44.65,4.66-4.15,10.21-7.32,15.44-10.79,1.22-.81,1.76-1.29,1.3-2.91-4.47-15.7-6.11-31.78-5.81-48.03.44-23.37,5.13-46.23,8.64-69.23,3.75-24.54,7.3-49.11,10.3-73.75,2.2-18.06.64-36.2-.21-54.33-1.01-21.39-1.02-42.83-1.43-64.25-.05-2.62.12-5.24.18-7.85.43-18.06,9.6-30.44,25.23-38.5,11.9-6.13,24.8-8.85,37.94-10.54,22.97-2.96,46.01-3.47,69.09-1.49,2.01.17,3.18-.47,4.33-2.1,14.95-21.23,34.35-36.99,58.36-46.93,3.01-1.25,4.3-2.88,5.15-6.11,4.23-15.95,11.08-30.35,25.2-40.26,5.17-3.63,10.32-7.09,16.21-9.58,12.05-5.11,24.5-5.25,37.17-4.05,1.72.16,3.48.2,5.19.03,12.97-1.31,25.71-1.09,37.97,4.3,16.6,7.3,29.11,18.68,36.1,35.59,2.13,5.16,3.35,10.7,5.3,15.95.52,1.39,1.99,2.84,3.38,3.43,12.93,5.51,25.12,12.26,35.74,21.53,9,7.86,17.5,16.24,24.01,26.39,1.26,1.97,2.85,1.87,4.77,1.72,26.7-2,53.31-1.43,79.71,3.42,10.64,1.96,20.94,5.06,30.29,10.72,13.83,8.37,21.66,20.47,21.53,36.85-.13,17.45-1.69,34.92-1.1,52.34.76,22.71-2.66,45.29-.84,68.02,2.09,26.06,6.33,51.77,10.47,77.53,2.91,18.09,5.64,36.22,7.99,54.4,2.12,16.36,1.39,32.73-1.39,48.99-1,5.89-2.2,11.75-3.32,17.74ZM431.82,858.32c0-.32,0-.65,0-.97-1.19-.5-2.37-1.04-3.58-1.5-15.67-5.97-31.37-11.86-46.99-17.97-2.07-.81-3.9-2.49-5.51-4.1-.7-.71-1.03-2.47-.65-3.39.38-.92,1.78-1.59,2.87-2,.73-.28,1.72.02,2.57.17,11.74,2.04,23.49,3.96,35.19,6.21,6.94,1.34,13.78,3.19,20.66,4.84,5,1.19,9.92,2.92,14.98,3.56,25,3.16,50.01,6.33,75.08,8.92,22.93,2.37,45.9,2,68.77-1.35,20.9-3.07,40.61-8.83,57.38-22.69,12.93-10.69,22.41-23.01,24.08-40.24,1.09-11.28-1.18-21.99-5.46-32.36-.7-1.69-1.76-1.6-3-.81-2.05,1.29-3.98,2.78-6.09,3.96-3.82,2.14-7.28,2.07-9.19.05-1.97-2.09-1.82-5.74.98-9.34,2-2.57,4.42-4.89,6.95-6.96,4.72-3.86,10.44-6.77,14.36-11.29,11.99-13.83,21.68-29.31,25.76-47.33,3.31-14.63,5.22-29.59,7.32-44.46.87-6.11,1.06-12.4.8-18.57-.83-19.35-4.65-38.28-8.49-57.21-5.52-27.2-19.72-49.02-40.68-66.75-1.77-1.5-3.8-2.67-5.71-4-1.37-.95-2.28-.66-2.86.94-.8,2.19-1.49,4.44-2.59,6.48-1.55,2.88-3.27,5.7-5.21,8.32-1.31,1.77-3.29,2.9-5.63,1.86-2.33-1.03-2.67-3.21-2.5-5.42.15-1.82.3-3.74.97-5.41,2.95-7.38,6.21-14.63,9.09-22.03,1.14-2.94,2.21-6.16,2.22-9.26.03-9,.34-18.12-.94-26.99-4-27.74-8.7-55.38-13.1-83.06-3.87-24.36-6.95-48.78-6.09-73.53.11-3.29.39-6.6.23-9.88-.44-9.19-1.54-18.36-1.5-27.54.04-11.04.08-22.21,1.75-33.08,2.74-17.81,1.43-35.61,1.66-53.42.03-2.09-.3-4.39-1.19-6.24-1.26-2.62-2.73-5.55-4.95-7.22-4.15-3.12-8.7-5.87-13.43-8.03-25.6-11.66-52.84-14.63-80.47-13.28-21.47,1.05-42.86,3.91-64.29,5.95-2.22.21-4.45.42-6.67.37-3.65-.07-5.88-1.64-6.48-4.29-.64-2.81.71-5.24,4.05-6.93,1.46-.74,3.02-1.39,4.61-1.73,9.57-2.06,19.16-4.03,28.75-5.99,2.04-.42,4.11-.7,6.83-1.15-1.26-1.36-1.97-2.24-2.79-3-21.38-19.8-46-33.88-74.2-41.34-15.73-4.16-31.53-8.19-47.9-9.09-3.19-.18-5.31-2.15-5.26-4.42.06-2.37,2.5-4.32,5.62-4.42.77-.03,1.55.09,2.32.13,3.48.18,6.97.28,10.45.55,14.88,1.15,29.75,2.36,44.62,3.54.8.06,1.62,0,3.13,0-2.88-5.96-4.97-11.78-8.27-16.8-7.17-10.9-15.94-20.08-29.68-22.51-6.39-1.13-12.74-2.65-19.18-3.37-16.75-1.86-33.09.58-48.99,5.85-3.09,1.02-5.78,3.43-8.49,5.41-10.38,7.59-15.83,18.62-20.63,30.07-.16.38-.02.88-.02,1.67,2.11-.33,3.98-.77,5.87-.9,17.88-1.25,35.77-2.47,53.66-3.6,1.25-.08,2.72.44,3.8,1.12,2.97,1.88,2.69,5.36-.49,6.91-.93.46-2.02.67-3.06.81-6.52.89-13.11,1.39-19.55,2.65-23.57,4.58-46.76,10.21-67.72,22.78-12.27,7.36-24.26,14.96-34.5,25.06-.78.77-1.48,1.62-2.49,2.74,1.37.33,2.2.56,3.04.73,10.07,2.01,20.17,3.92,30.21,6.09,2.79.6,5.53,1.77,8.08,3.09,2.22,1.15,3.31,3.35,2.75,5.91-.59,2.7-2.6,4.15-5.22,4.32-2.59.17-5.23.02-7.83-.25-13.98-1.45-27.96-2.96-41.94-4.49-23.16-2.54-46.23-2.5-69.27,1.57-15.84,2.8-30.79,7.66-44.52,16.2-5.54,3.44-8.3,8.22-8.68,14.55-.14,2.32-.16,4.65-.18,6.97-.05,4.95-.2,9.89-.05,14.83.26,8.52.14,17.1,1.2,25.52,1.94,15.44,2.91,30.89,2.27,46.43-.37,9.19-1.56,18.4-1.13,27.54.79,16.76-.13,33.41-2.4,49.92-3.99,29.01-8.72,57.92-13.31,86.85-2.58,16.29-5.82,32.51-4.59,49.12.26,3.52,1.06,7.12,2.3,10.43,2.07,5.53,4.91,10.77,7,16.3,1.42,3.76,2.29,7.77,3.03,11.74.38,2.05-.38,4.5-2.67,4.87-1.61.26-3.83-.5-5.12-1.58-1.72-1.45-3.01-3.54-4.09-5.56-1.36-2.56-2.35-5.31-3.43-8.02-1.44-3.61-1.64-3.85-4.82-1.47-14.3,10.75-26.01,23.74-34.26,39.74-5.06,9.82-8.74,20.12-10.65,30.98-2.8,15.95-5.7,31.89-7.86,47.92-2.45,18.22,1.52,36.11,3.8,54.09,2.95,23.23,12.47,43.46,26.71,61.68,2.17,2.78,5.03,5.07,7.79,7.31,3.9,3.18,8.12,5.99,11.98,9.21,1.9,1.59,3.53,3.62,4.89,5.7,2.13,3.26,2.06,6.48.23,8.37-1.85,1.91-4.95,2.08-8.41.3-1.63-.84-3.13-1.93-4.68-2.93-.73-.47-1.43-1.01-2.18-1.45-1.35-.79-2.43-.66-2.9,1.03-1.76,6.43-4.15,12.77-5.11,19.32-2.1,14.42.73,28.13,10.11,39.45,12.44,14.99,27.89,25.91,46.98,31.24,20.73,5.79,41.9,7.82,63.32,7.85,31.52.04,62.71-4.26,93.79-8.62,19.8-2.78,39.18-8.48,58.81-12.6,7.95-1.67,16.04-2.74,24.1-3.8,1.27-.17,3.32.9,3.93,2,.48.86-.34,2.99-1.24,3.94-1.42,1.5-3.23,2.88-5.15,3.62-15.63,6.09-31.32,12.01-46.98,18-1.09.42-2.14.96-3.96,1.79,1.61.84,2.39,1.37,3.25,1.67,7.31,2.58,14.49,5.69,21.99,7.55,19.11,4.74,38.23,8.57,58.3,5.5,16.6-2.53,32.75-6.15,48.27-12.52,1.21-.5,2.37-1.12,3.56-1.69Z" style="fill: #000; stroke-width: 0px;"/>
  <path d="M393.12,706.09c-3.74-.39-8.38-.72-12.97-1.4-10.34-1.52-20.67-1.67-30.99,0-14.47,2.34-29.01,1.58-43.03-1.78-15.13-3.63-28.1-11.84-38.05-24.22-.3-.38-.55-.85-.93-1.11-4.81-3.28-4.32-7.46-2.65-12.32,3.63-10.56,10.14-18.56,19.68-24.3,14.52-8.74,30.31-13.93,46.97-16.18,6.52-.88,13.33-.28,19.95.29,9.6.82,19.08.86,28.68-.34,6.09-.76,12.46-.76,18.53.11,15.95,2.3,31.07,7.27,45.16,15.33,11.33,6.48,18.63,15.79,21.94,28.37.8,3.05.3,5.46-2.1,7.59-1.29,1.14-2.3,2.6-3.42,3.93-1,1.19-1.81,2.58-2.98,3.56-12.95,10.82-26.64,20.1-44.31,21.06-6.19.33-12.37.9-19.48,1.42ZM286.99,665.1c5.17,0,9.71-.06,14.25.01,8.89.14,17.3,2.27,25.07,6.58,9.79,5.44,19.79,7.32,31.01,4.5,5.13-1.29,10.95.11,16.45.4,1.33.07,2.63.74,3.96.86,7.71.74,15.03-.67,21.95-4.15,2.6-1.3,5.14-2.73,7.79-3.92,9.85-4.42,20.31-4.62,30.83-4.28,1.06.03,2.12-.09,3.92-.18-1.16-.99-1.61-1.51-2.17-1.82-16.93-9.39-34.28-16.67-54.45-13.91-6.01.82-12.3-.48-18.47-.82-1.25-.07-2.59-.54-3.73-.24-8.93,2.32-17.87,1.26-26.89.69-17.94-1.13-33.41,6.28-48.45,14.89-.28.16-.44.56-1.06,1.39Z" style="fill: #000; stroke-width: 0px;"/>
  <path d="M485.9,247.76c20.59-.09,38.16,6.44,54.77,15.55,8.93,4.9,15.23,12.83,19.46,22.17,2.06,4.56,3.14,9.39,2.26,14.45-1.85,10.52-11.82,16.16-21.19,11.1-6.66-3.59-12.41-8.85-18.6-13.31-5.64-4.07-11.21-8.27-17.05-12.05-4.01-2.59-8.78-3.28-13.47-2.74-15.39,1.77-28.07,7.79-36.15,22.04-8.03,14.17-20.8,22.33-36.74,24.81-5.07.79-10.63-.32-15.76-1.5-5.96-1.38-8.66-7.07-5.84-12.51,2.18-4.2,5.59-7.79,8.72-11.43,1.62-1.89,3.78-3.32,5.75-4.9,4.2-3.39,7.56-7.31,9.95-12.29,1.73-3.61,4.31-6.93,7-9.93,10.31-11.47,22.21-20.79,36.94-26.01,2.55-.9,5.16-1.78,7.82-2.18,4.4-.67,8.85-.94,12.12-1.27Z" style="fill: #000; stroke-width: 0px;"/>
  <path d="M241.97,247.45c14.35-.16,27.13,4.57,38.42,12.74,7.48,5.41,14.1,12.08,20.81,18.49,2.4,2.29,4.4,5.29,5.73,8.34,2.34,5.38,6.16,9.3,10.54,12.92,2.99,2.47,5.85,5.09,8.66,7.76,1.18,1.12,2.19,2.47,3.11,3.83,6.03,8.81,3.14,15.72-7.27,17.78-9.52,1.88-18.42.59-26.98-4.13-9.91-5.46-18.32-12.29-23.5-22.62-2.89-5.76-7.67-9.78-13.11-12.88-8.59-4.89-17.77-7.83-27.82-6.35-2.54.37-5.25,1.11-7.36,2.49-5.82,3.8-11.41,7.98-17.01,12.11-5.46,4.02-10.65,8.41-16.28,12.16-5.08,3.39-10.75,4.05-16.22.67-5.47-3.39-7.97-8.72-7.13-14.9.65-4.8,1.96-9.79,4.24-14.02,4.93-9.13,12.13-16.37,21.59-20.94,10.68-5.16,21.78-9.31,33.43-11.65,5.29-1.06,10.75-1.23,16.14-1.8Z" style="fill: #000; stroke-width: 0px;"/>
  <path d="M333.68,425.95c.36,4.54.81,9.07,1.04,13.62.26,5.2.47,10.42.4,15.63-.09,6.49-.36,12.99-.78,19.47-.76,11.53-3.82,22.54-8.1,33.22-3.54,8.84-7.3,17.61-6.85,27.43.07,1.54.09,3.17.63,4.57.37.99,1.57,1.67,2.4,2.49.8-.82,2-1.51,2.31-2.48.75-2.29.77-4.84,1.64-7.06,1.14-2.93,2.39-5.99,4.33-8.39,2.88-3.56,7.51-2.93,9.52,1.22,1.46,3.01,2.14,6.41,3.16,9.63.87,2.77,1.47,5.65,2.62,8.3,1.34,3.08,3.05,3.54,6,2.12,3.36-1.62,6.73-1.3,10.21-.4,1.4.36,3.06.37,4.46,0,3.8-1,7.45-1.27,10.98.8,1.77,1.04,3.33.55,4.27-1.03,1.07-1.8,1.94-3.78,2.56-5.79,1.17-3.8,1.99-7.7,3.16-11.49.86-2.79,2.4-5.22,5.68-5.54,3.12-.3,5.12,1.69,6.53,4.09,1.16,1.98,2,4.18,2.7,6.38.62,1.93.79,3.99,1.28,5.97.4,1.61.45,4.1,2.83,3.5,1.17-.3,2.67-2.49,2.63-3.78-.16-5.48-.36-11.05-1.49-16.38-1.02-4.79-3.17-9.35-5.01-13.94-5.43-13.56-8.65-27.53-8.52-42.22.03-3.68-.49-7.35-.51-11.03-.02-4.92.13-9.85.35-14.76.27-5.9.68-11.8,1.04-17.7.24-3.9,2.43-6.21,5.64-6,3.07.2,5.01,2.65,4.78,6.45-.16,2.6-.53,5.22-1.1,7.76-1.71,7.57-.71,15.05.63,22.51,2.37,13.2,5.5,26.08,11.97,38.1,6.13,11.39,10.39,23.61,12.14,36.55,1.1,8.1-.23,15.86-3.92,23.17-6.11,12.1-19.71,14.91-29.97,6.03-2.1-1.82-3.35-1.8-5.65-.29-6.97,4.55-14.58,6.59-22.97,4.67-1.36-.31-2.91-.35-4.26-.04-8.59,1.97-16.35-.11-23.48-4.86-1.95-1.3-3.09-1.47-4.94.18-10.34,9.18-23.8,6.72-30.24-5.5-5.43-10.29-5.64-21.16-2.33-31.97,2.83-9.24,5.72-18.66,10.14-27.19,6.83-13.18,10.14-27.15,12.7-41.51,1.37-7.68,1.14-15.21-.41-22.8-.4-1.98-.62-4.05-.55-6.06.1-3.01,2.19-5.08,4.86-5.21,2.74-.13,4.92,1.66,5.41,4.64.26,1.62.22,3.28.31,4.93-.08,0-.17.01-.25.02Z" style="fill: #000; stroke-width: 0px;"/>
  <path d="M287.46,475.16c-.18,9.09-3.24,19.48-7.26,29.63-8.4,21.22-20.03,40.69-32.66,59.59-18.67,27.95-39.9,53.94-61.19,79.89-1.32,1.6-2.95,2.93-4.94,1.29-1.96-1.62-.97-3.49.23-5.15,11.51-15.85,23.18-31.59,34.5-47.58,17.22-24.31,33.78-49.06,47.17-75.75,5.75-11.47,10.95-23.17,12.94-36,2.37-15.2-2.47-25.43-15.73-33.22-8.45-4.97-17.7-7.86-27.14-10.2-20.97-5.2-42.38-7.44-63.82-9.53-14.28-1.39-28.57-2.68-42.84-4.23-2.83-.31-5.7-1.25-8.29-2.46-2.85-1.34-3.9-4.46-3.03-7.14.86-2.66,3.53-4.21,6.68-4.02,9.09.55,18.18,1.09,27.27,1.56,27.05,1.39,54.01,3.52,80.43,9.97,13.91,3.4,27.43,7.88,39.24,16.34,11.99,8.59,18.58,20.06,18.42,37Z" style="fill: #000; stroke-width: 0px;"/>
  <path d="M608.35,410.27c2,.08,4.13,1.23,5.13,3.9,1.01,2.7.23,5.17-2.08,6.67-1.9,1.23-4.17,2.27-6.38,2.55-10.67,1.34-21.37,2.54-32.08,3.53-25.78,2.39-51.61,4.49-76.86,10.64-9.92,2.42-19.6,5.51-28.45,10.79-11.98,7.14-17.01,17.56-15.13,31.38,1.4,10.31,5.03,19.91,9.32,29.28,10.9,23.81,24.77,45.92,39.65,67.36,14.7,21.19,29.97,41.99,44.99,62.96.28.39.59.77.87,1.16,1.18,1.69,2.15,3.55.09,5.12-2.04,1.55-3.61.2-4.93-1.41-23.77-29.05-47.51-58.13-67.64-89.92-11.17-17.65-21.43-35.79-28.32-55.62-3.32-9.58-5.67-19.36-4.87-29.64,1.01-12.99,7.42-22.83,17.68-30.41,9.34-6.9,19.96-11.1,30.99-14.37,20.09-5.96,40.74-8.86,61.55-10.47,15.85-1.23,31.75-1.75,47.63-2.63,2.7-.15,5.39-.52,8.85-.86Z" style="fill: #000; stroke-width: 0px;"/>
  <path d="M205.55,156.49c23.15-.2,45.77,3.5,68.08,9.37,2,.53,3.94,1.37,3.38,3.86-.61,2.7-2.9,2.44-4.97,2.07-20.75-3.73-41.63-6.06-62.74-5.95-17.01.09-33.92,1.19-50.46,5.48-4.01,1.04-7.93,2.55-11.75,4.18-5.25,2.24-7.9,6.48-7.86,12.16.02,3.48.48,6.95.74,10.42.09,1.16.59,2.53.13,3.42-.76,1.5-1.88,3.23-3.3,3.87-1.97.88-4.08-.36-4.7-2.34-2.4-7.69-3.37-15.56-1.08-23.46,1.9-6.53,6.53-11,12.64-13.19,7.89-2.83,16.01-5.5,24.26-6.8,12.41-1.95,25.02-2.65,37.55-3.87.02.27.05.53.07.8Z" style="fill: #000; stroke-width: 0px;"/>
  <path d="M518.04,165.27c-20.28.55-40.3,2.85-60.2,6.33-3.98.7-5.88.14-6.02-2.02-.22-3.29,2.51-3.45,4.71-4.04,33.19-8.84,66.82-11.79,100.88-6.61,8.57,1.3,17.16,3.41,25.32,6.32,12.59,4.5,17.26,12.62,16.26,25.94-.25,3.28-.78,6.55-1.4,9.78-.63,3.26-2.86,5.02-5.36,4.54-2.49-.47-3.83-2.88-3.46-6.17.36-3.27.79-6.55,1-9.83.48-7.31-2.85-12.16-9.6-14.93-8.88-3.64-18.18-5.62-27.64-6.61-11.46-1.2-22.98-1.84-34.48-2.72Z" style="fill: #000; stroke-width: 0px;"/>
  <path d="M417.69,397.96c-.65-.57-2.45-1.43-2.47-2.34-.04-1.33.84-3.36,1.93-3.93,4.29-2.23,8.68-4.42,13.28-5.87,10.43-3.3,20.85-6.92,31.55-9.02,21.81-4.28,43.37-9.42,64.65-15.79,1.57-.47,3.2-.9,4.82-.99,2.25-.13,4.03.87,4.53,3.23.49,2.33-.67,3.91-2.72,4.89-.52.25-1.09.39-1.65.54-29.2,7.86-58.38,15.79-87.6,23.54-7.58,2.01-15.3,3.49-22.96,5.2-.85.19-1.72.27-3.35.52Z" style="fill: #000; stroke-width: 0px;"/>
  <path d="M198.68,360.03c1.84.5,4.4,1.08,6.89,1.87,21.57,6.83,43.71,11.26,65.84,15.78,13.33,2.72,26.21,7.01,38.49,12.95.87.42,1.98.7,2.51,1.4.74.98,1.7,2.56,1.36,3.41-.41,1.04-2,2.1-3.19,2.23-1.77.19-3.67-.26-5.44-.72-14.63-3.79-29.24-7.64-43.86-11.47-21.28-5.58-42.55-11.17-63.83-16.74-3.22-.84-5.04-2.92-4.58-5.37.41-2.13,2.51-3.53,5.8-3.33Z" style="fill: #000; stroke-width: 0px;"/>
  <path d="M613.58,834.3c-18.42-.88-35.2-6.94-50.2-17.33-9.52-6.6-18.16-14.46-27.17-21.8-1.69-1.37-2.96-3.16-1.42-5.26,1.56-2.12,3.56-1.23,5.46-.21,14.49,7.83,28.9,15.82,43.52,23.41,10.43,5.42,21.38,9.61,33.03,11.78,3.52.66,5.43,2.73,5.18,5.25-.25,2.55-2.54,4.12-6.07,4.17-.78,0-1.55,0-2.33,0Z" style="fill: #000; stroke-width: 0px;"/>
  <path d="M115.38,834.17c-1.45,0-2.94.2-4.34-.05-2.16-.39-3.74-1.63-3.96-4.02-.22-2.38,1.11-3.8,3.15-4.69.35-.15.73-.28,1.11-.35,18.71-3.4,35.22-12.24,51.72-21.06,8.37-4.48,16.58-9.25,24.87-13.87.93-.52,1.91-1.27,2.87-1.28,1.12-.01,2.68.35,3.25,1.14.57.78.24,2.29.14,3.47-.03.4-.52.8-.86,1.13-14.27,13.55-29.4,25.85-47.99,33.14-9.63,3.78-19.57,6.18-29.95,6.45Z" style="fill: #000; stroke-width: 0px;"/>
  <path d="M420.84,601.77c12.67.19,23.6,4.65,32.98,13.16,13.76,12.48,24,27.3,30.06,44.91.94,2.74,1.62,5.59,2.13,8.44.6,3.36-.57,5.65-2.94,6.57-2.36.92-4.92.01-6.68-2.71-1.47-2.27-2.81-4.66-3.86-7.14-1.71-4.01-3.2-8.11-4.66-12.21-4.13-11.62-10.87-21.53-19.32-30.43-7.14-7.52-15.66-12.22-25.89-13.85-1.34-.21-2.86-.16-3.95-.8-1.24-.73-2.85-2.03-2.97-3.22-.21-2.12,1.73-2.72,3.65-2.71.48,0,.97,0,1.45,0Z" style="fill: #000; stroke-width: 0px;"/>
  <path d="M242.21,670.47c1.18-4.3,1.93-7.91,3.16-11.37,6.46-18.24,17.24-33.5,31.96-46.05,9.23-7.87,20.05-11.07,31.96-11.28,1.9-.03,3.68.34,3.95,2.52.3,2.34-1.43,3.16-3.4,3.55-1.14.22-2.28.45-3.43.63-10.35,1.62-18.92,6.41-26.15,14-9.19,9.65-15.94,20.65-20.26,33.25-1.75,5.11-4.21,9.98-6.44,14.92-.47,1.03-1.15,2.3-2.08,2.73-1.72.8-3.96,1.85-5.47,1.33-1.61-.56-2.62-2.83-3.8-4.23Z" style="fill: #000; stroke-width: 0px;"/>
  <path d="M611.66,602.83c-.71-.63-2.6-1.54-2.71-2.62-.12-1.18,1.12-3.08,2.29-3.69,3.84-2.04,8.05-3.38,11.87-5.45,19.89-10.76,33.03-27.39,41.35-48.12.29-.72.46-1.49.81-2.17,1.07-2.06,2.69-3.42,5.12-2.98,2.55.46,3.81,2.3,3.88,4.76.05,1.62-.13,3.34-.63,4.87-7.81,23.85-22.31,41.84-45.85,51.71-3.1,1.3-6.5,1.88-9.8,2.67-1.78.43-3.63.6-6.34,1.02Z" style="fill: #000; stroke-width: 0px;"/>
  <path d="M54.63,544.29c.05-4.05,1.59-6.16,3.94-6.53,2.36-.37,4.48,1.14,5.56,4.14,5.31,14.72,14.05,27.14,25.42,37.77,7.39,6.91,15.98,11.92,25.37,15.61.81.32,1.62.65,2.43.98,1.85.76,3.37,1.9,2.77,4.13-.61,2.22-2.53,2.42-4.49,2.19-10.83-1.24-20.74-4.92-29.46-11.49-13.83-10.42-23.85-23.73-29.78-40.03-.92-2.53-1.35-5.23-1.74-6.77Z" style="fill: #000; stroke-width: 0px;"/>
  <path d="M643.92,792.43c-25.51-1.83-44.52-12.04-55.9-34.46-.39-.77-1.02-1.63-.94-2.39.12-1.14.46-2.69,1.26-3.2.8-.51,2.5-.31,3.39.24,1.18.73,1.99,2.07,2.9,3.2,13.35,16.76,30.99,24.87,52.15,25.82,1.83.08,3.67-.15,5.51-.23,3.23-.14,5.42,1.18,5.89,3.54.5,2.47-1.06,4.94-4.21,5.72-3.64.9-7.39,1.31-10.06,1.76Z" style="fill: #000; stroke-width: 0px;"/>
  <path d="M80.47,781.69c21.1-.65,39.07-7.99,52.74-24.59.99-1.2,1.93-2.43,2.93-3.61,1.23-1.47,2.76-2.39,4.55-1.18,1.77,1.2,1.65,3.07.64,4.67-3.13,4.99-5.8,10.43-9.71,14.74-13.46,14.86-30.61,21.2-50.52,20.19-2.38-.12-4.79-.77-7.05-1.57-2.4-.85-3.86-2.75-3.26-5.45.57-2.57,2.59-3.49,5.05-3.48,1.55,0,3.09.18,4.64.28Z" style="fill: #000; stroke-width: 0px;"/>
  <path d="M71.98,667.34c-6.04-.83-12.1-1.57-18.11-2.54-3.18-.51-4.9-2.6-4.65-5.01.28-2.61,2.44-4.04,5.82-3.97,7.25.15,14.55.82,21.75.26,13.62-1.06,25.4-7.25,36.62-14.61,1.7-1.12,3.3-2.55,5.17-3.19,1.17-.4,3.19-.04,4.01.79.59.59.34,3.04-.41,3.79-13.9,13.84-29.37,24.52-50.2,24.48Z" style="fill: #000; stroke-width: 0px;"/>
  <path d="M656.92,666.97c-13.2.16-25.04-3.94-35.59-11.67-4.76-3.49-9.14-7.5-13.65-11.32-1.64-1.39-3.07-3.1-1.32-5.21,1.6-1.93,3.44-.92,5.22.11,7.05,4.07,13.91,8.52,21.24,12.01,11.77,5.61,24.41,6.61,37.28,5.32,1.54-.16,3.09-.37,4.64-.38,2.48-.01,4.36,1.03,4.92,3.62.49,2.23-1.01,4.54-3.71,5.11-4.17.88-8.4,1.45-12.63,2.02-2.11.28-4.26.27-6.39.39Z" style="fill: #000; stroke-width: 0px;"/>
  <path d="M344.41,720.76c5.15.23,9.61,2.27,12.13,7.47,1.97,4.05,4.49,5.4,8.99,4.68.86-.14,1.73-.35,2.58-.3,1.96.1,3.04-.73,3.58-2.62,2.84-9.91,16.65-12.65,25.12-4.34,1.09,1.07,1.5,3.61,1.14,5.23-.53,2.32-2.82,2.97-5.14,2.81-2.6-.18-5.2-.55-7.8-.54-2.89,0-5.4.98-7.42,3.33-2.85,3.33-6.62,3.96-10.59,2.45-1.87-.71-3.39-.63-5.22.04-3.51,1.28-7.18,1.15-9.69-1.8-3.78-4.45-8.51-4.4-13.53-3.87-.77.08-1.52.31-2.29.38-2.3.21-4.34-.38-5.34-2.63-1.03-2.32-.28-4.39,1.63-5.97,3.31-2.75,7.11-4.28,11.84-4.32Z" style="fill: #000; stroke-width: 0px;"/>
  <path d="M450.5,197.57c11.84-1.08,23.68-2.14,35.52-3.24,3.01-.28,5.2.86,5.79,3.17.61,2.43-.83,5.01-3.87,5.52-6.47,1.09-13.04,2.56-19.54,2.42-14.01-.3-28-1.52-42-2.36-.38-.02-.77-.11-1.15-.19-1.78-.38-3.46-1.38-2.88-3.23.37-1.18,2.1-2.13,3.42-2.76.87-.41,2.09-.08,3.16-.08,7.17,0,14.33,0,21.5,0,.02.25.04.5.06.75Z" style="fill: #000; stroke-width: 0px;"/>
  <path d="M268.13,206.22c-7.56-.75-15.75-1.54-23.93-2.38-1.15-.12-2.29-.44-3.39-.81-2.81-.94-4.25-3.1-3.72-5.43.54-2.36,2.71-3.62,5.71-3.26,4.91.59,9.79,1.61,14.71,1.75,14.53.42,29.08.51,43.62.72,2.32.03,5.2-.36,5.44,2.86.24,3.29-2.74,3.3-5,3.52-10.9,1.04-21.81,1.99-33.44,3.03Z" style="fill: #000; stroke-width: 0px;"/>
  <path d="M427.81,101.32c-.1,3.5-3.6,5.02-7.16,3.16-8.3-4.35-16.62-8.68-24.95-12.99-2.4-1.25-5.01-2.18-7.2-3.72-1.08-.76-2.1-2.67-1.93-3.89.26-1.92,2.27-2.26,3.98-1.71,11.24,3.6,22.55,7.03,32.72,13.27,3.49,2.14,4.6,3.69,4.54,5.89Z" style="fill: #000; stroke-width: 0px;"/>
  <path d="M305.99,105.29c-4.02-.02-6.03-3.15-4.32-6.08.83-1.43,2.27-2.65,3.7-3.55,10.21-6.41,21.65-9.86,33-13.51,1.72-.55,3.42-.15,4.07,1.77.72,2.09-.66,3.29-2.32,4.11-7.72,3.85-15.48,7.62-23.18,11.51-2.76,1.4-5.38,3.08-8.1,4.56-1.08.59-2.28.96-2.86,1.19Z" style="fill: #000; stroke-width: 0px;"/>
  <path d="M325.57,118.44c-2.37-.05-4.15-.91-4.69-3.24-.56-2.43.59-4.41,2.77-5.16,4.47-1.53,9-3.08,13.64-3.84,4.25-.7,8.69-.57,13.02-.34,1.2.06,2.3,1.81,3.45,2.78-.99,1.13-1.79,2.93-3.01,3.28-7.9,2.27-15.89,4.23-23.86,6.29-.47.12-.95.16-1.32.23Z" style="fill: #000; stroke-width: 0px;"/>
  <path d="M384.49,104.75c6.19,1.42,12.39,2.81,18.57,4.29,1.01.24,2.02.75,2.88,1.34,1.86,1.27,2.75,3.1,1.91,5.29-.83,2.19-2.69,3.07-4.93,2.66-1.89-.35-3.69-1.15-5.57-1.62-6.11-1.52-12.23-2.99-18.35-4.45-1.98-.47-4-1.06-3.84-3.54.17-2.67,2.35-3,4.49-3.06,1.55-.04,3.1,0,4.65,0,.06-.3.12-.61.19-.91Z" style="fill: #000; stroke-width: 0px;"/>
  <path d="M499.31,346.93c-.17,2.29-.25,5.38-.65,8.44-.44,3.37-2.61,5.33-5.24,5.06-2.5-.25-4.57-2.53-4.2-5.68.69-5.83,1.74-11.63,2.99-17.36.24-1.09,2.32-2.68,3.22-2.49,1.21.26,2.7,1.87,3.02,3.16.64,2.59.56,5.36.85,8.86Z" style="fill: #000; stroke-width: 0px;"/>
  <path d="M229.74,346.29c.17-2.6.3-5.2.53-7.8.16-1.87.9-3.48,2.99-3.72,2.11-.24,3.27,1.17,3.62,3.01,1.05,5.49,2.16,10.97,2.81,16.51.41,3.52-1.64,5.98-4.29,6.17-2.6.19-4.73-2.03-5.22-5.5-.16-1.15-.27-2.3-.3-3.46-.05-1.74-.01-3.47-.01-5.21-.04,0-.09,0-.13,0Z" style="fill: #000; stroke-width: 0px;"/>
  <path d="M474.36,354.13c-.34,3.47-.54,6.96-1.05,10.4-.49,3.29-2.6,5.08-5.16,4.78-2.54-.3-4.47-2.67-3.92-5.83.92-5.32,2.16-10.61,3.68-15.79.32-1.11,2.42-2.37,3.65-2.31.92.04,2.19,1.97,2.51,3.26.43,1.73.11,3.65.11,5.49l.19.02Z" style="fill: #000; stroke-width: 0px;"/>
  <path d="M254.76,354.7c0-2.13-.29-4.32.11-6.37.23-1.18,1.55-2.91,2.48-2.98,1.17-.09,3.25,1.05,3.53,2.06,1.54,5.47,2.87,11.03,3.81,16.64.48,2.85-1.52,4.98-3.88,5.27-2.45.3-4.64-1.46-5.12-4.5-.53-3.34-.74-6.73-1.09-10.1.05,0,.1-.01.15-.02Z" style="fill: #000; stroke-width: 0px;"/>
  <path d="M204.33,337.16c-.03-.39-.06-.77-.08-1.16-.09-2.04,0-4.11,2.54-4.51,2.31-.37,3.21,1.35,3.79,3.23,1.42,4.63,2.88,9.26,4.22,13.91.91,3.16-.2,5.78-2.6,6.54-2.51.79-5.13-.88-5.84-4.22-.96-4.54-1.57-9.16-2.33-13.74.1-.02.2-.03.3-.05Z" style="fill: #000; stroke-width: 0px;"/>
  <path d="M524.63,338.62c-.51,3.34-1.03,7.08-1.66,10.81-.19,1.13-.54,2.29-1.07,3.3-1.05,1.99-2.77,3.11-5.04,2.44-2.24-.66-3.5-2.61-2.96-4.73,1.47-5.81,3.25-11.56,5.15-17.24.28-.84,2.1-1.84,2.94-1.64,1.03.24,2.15,1.54,2.55,2.63.44,1.19.1,2.67.1,4.44Z" style="fill: #000; stroke-width: 0px;"/>
  <path d="M450.83,361.57c-.55,3.13-.87,6.32-1.72,9.36-.85,3.03-3.43,4.39-6,3.67-2.37-.66-3.73-3.05-2.98-6.12,1.06-4.32,2.26-8.62,3.83-12.77.43-1.14,2.44-2.38,3.66-2.32.95.05,2.21,1.92,2.59,3.2.45,1.51.11,3.26.11,4.9.17.02.34.04.51.06Z" style="fill: #000; stroke-width: 0px;"/>
  <path d="M278.38,361.09c.09-1.64-.15-3.39.36-4.89.4-1.17,1.64-2.69,2.68-2.84,1.04-.15,2.98.97,3.33,1.96,1.64,4.54,3.04,9.18,4.17,13.88.63,2.64-.98,4.98-3.2,5.44-2.66.55-4.82-.55-5.58-3.02-1.03-3.38-1.48-6.94-2.18-10.42.14-.03.27-.07.41-.1Z" style="fill: #000; stroke-width: 0px;"/>
  <path d="M419,376.28c.36-2.39.4-4.89,1.2-7.12.45-1.24,2.09-2.68,3.32-2.8.9-.09,2.51,1.67,2.89,2.88.77,2.47.96,5.12,1.3,7.71.46,3.47-1.07,5.94-3.71,6.16-2.71.22-4.76-2.15-4.88-5.65-.01-.39,0-.77,0-1.16-.04,0-.09-.01-.13-.02Z" style="fill: #000; stroke-width: 0px;"/>
  <path d="M309.76,376.46c0,.58.05,1.16,0,1.74-.3,3.03-2.26,5.06-4.69,4.89-2.55-.17-4.26-2.61-3.9-5.76.29-2.59.72-5.17,1.14-7.74.3-1.87,1.17-3.41,3.28-3.42,2.12,0,2.99,1.55,3.32,3.4.4,2.28.69,4.58,1.03,6.87-.05,0-.11.01-.16.02Z" style="fill: #000; stroke-width: 0px;"/>
  <path d="M384.1,132.68c1.06.09,2.15.04,3.16.29,2.12.53,3.45,1.9,3.14,4.19-.31,2.27-1.99,3.41-4.12,3.23-1.79-.15-3.71-.62-5.22-1.53-1.1-.67-2.39-2.42-2.21-3.44.18-1.03,2.01-1.87,3.24-2.59.51-.29,1.33-.05,2-.05,0-.03,0-.07,0-.1Z" style="fill: #000; stroke-width: 0px;"/>
  <path d="M344.74,132.77c.58,0,1.28-.21,1.72.04,1.31.74,2.52,1.67,3.77,2.52-.85,1.25-1.48,2.78-2.62,3.65-1.08.83-2.67,1.11-4.08,1.39-2.53.5-4.73-.94-5.08-3.13-.35-2.18,1.33-4.09,3.98-4.43.76-.1,1.54-.02,2.32-.02v-.02Z" style="fill: #000; stroke-width: 0px;"/>
</svg>