<?xml version="1.0" encoding="UTF-8"?>
<svg id="Layer_1" data-name="Layer 1" xmlns="http://www.w3.org/2000/svg" viewBox="0 0 501.7 900">
  <path d="M146.31,0c21.24.12,41.69,3.69,61.26,11.92,2.72,1.14,5.36,2.49,7.92,3.95,1.51.85,2.8.9,4.25.07,2.35-1.35,4.91-2.41,7.07-4.02,7.32-5.46,15.64-6.65,24.46-6.66,8.7-.01,16.77,1.57,23.93,6.85,2.1,1.55,4.49,2.79,6.9,3.8,1.14.48,2.9.55,3.94,0,18.71-9.93,38.86-14.34,59.81-15.29,15.12-.68,30.22.05,44.75,4.89,19.69,6.56,38.03,15.76,54.08,29.07,6.3,5.22,11.74,11.25,15.03,18.96,2.18,5.1,2.76,10.46,3.01,15.9.52,11.37-1.2,22.42-4.41,33.31-.47,1.58-.64,3.6-.07,5.08,3.76,9.67,4.58,19.8,5.48,30.01,1.67,19.03-2.94,37.11-7.58,55.2-1.67,6.52-5.12,12.16-10.21,16.74-.8.72-1.22,1.98-1.54,3.07-.51,1.74-.66,3.6-1.19,5.33-.49,1.6.13,2.12,1.55,2.06,8.28-.31,16.59-.29,24.83-1.07,7.46-.71,14.77-2.49,21.71-5.6,1.55-.69,3.4-1.05,5.1-1,4.49.12,6.78,4.74,4.28,8.47-.69,1.03-1.71,1.89-2.72,2.64-8.53,6.31-17.91,11.01-27.87,14.63-1.36.5-2.84,1.91-3.38,3.26-3.58,8.95-8.12,17.34-13.99,24.98-1.43,1.86-1.82,3.52-.64,5.68.57,1.04.7,2.49.57,3.7-.92,8.8-1.79,17.6-3,26.36-2.41,17.45-7.76,34.04-15.42,49.87-1.01,2.08-1.35,3.95-.45,6.16.48,1.2.59,2.69.42,3.99-.65,4.89-1.11,9.86-2.32,14.62-3.16,12.45-6.59,24.83-10.09,37.19-5.82,20.54-8.8,41.51-9.5,62.8-.79,23.63-3.35,47.1-5.61,70.61-2.12,22.04-6.23,43.74-10.14,65.49-.19,1.07-.06,2.2.01,3.3.3,4.28.91,8.57.9,12.85-.02,6.45.27,12.86.56,19.31,1.17,25.96-.53,51.37-14.41,74.69-11.6,19.48-23.01,39.07-36.66,57.18-5.49,7.28-12.34,13.54-18.49,20.34-.86.94-1.84,2.28-1.83,3.42.08,9.14-2.58,17.57-6.96,25.36-5.97,10.64-12.3,21.08-18.76,31.42-3.49,5.58-8.29,10.07-13.51,14.11-6.63,5.13-13.04,10.54-19.78,15.5-3.09,2.28-6.77,3.75-10.14,5.67-.65.37-1.33,1.02-1.57,1.7-.75,2.11-1.7,2.55-3.8,1.75-.74-.28-1.77-.29-2.51,0-2.11.81-3.09.39-3.78-1.73-.21-.63-.77-1.47-1.32-1.62-4.55-1.18-8.17-3.9-11.74-6.75-5.93-4.72-11.8-9.52-17.84-14.1-6.97-5.29-12.68-11.67-17.15-19.14-5.41-9.03-10.84-18.06-15.88-27.3-4.2-7.7-6.87-15.96-6.73-24.93.02-.98-.55-2.27-1.28-2.93-20.51-18.66-34.21-42.35-48.43-65.63-5.95-9.74-11.26-19.81-15.47-30.48-4.85-12.28-6.43-24.95-6.31-37.99.05-5.65-.18-11.3-.07-16.95.06-3.01.82-6.01.87-9.02.09-6.3-1.05-12.78.09-18.86,1.6-8.54-.43-16.48-1.91-24.53-7.6-41.37-11.34-83.13-13.21-125.1-.93-20.74-4.42-41.06-10.01-61.05-3.74-13.37-7.27-26.79-10.71-40.24-.78-3.06-.88-6.31-1.16-9.48-.1-1.08-.07-2.35.39-3.28,1.27-2.53.58-4.69-.55-7.04-9.99-20.74-15.79-42.57-16.79-65.63-.13-3-1.1-5.97-1.3-8.98-.12-1.82.21-3.78.82-5.51.54-1.53.6-2.71-.38-3.99-6.2-8.1-11.13-16.9-14.89-26.39-.45-1.14-1.82-2.29-3.01-2.71-9.84-3.49-19.09-8.09-27.52-14.28-1.32-.97-2.7-2.11-3.49-3.49-2.09-3.64.2-7.75,4.39-7.93,1.62-.07,3.39.24,4.89.86,13.77,5.74,28.19,7.23,42.92,6.88,1.74-.04,3.48-.21,5.23-.32-.23-1.64-.67-3.28-.63-4.91.06-3.06-1.38-5.11-3.52-7.17-3.92-3.77-6.76-8.45-7.98-13.71-2.9-12.5-6.24-24.99-7.78-37.68-1.65-13.55-.49-27.25,2.59-40.67.37-1.63.68-3.35,1.46-4.8,2.06-3.82,1.64-7.48.42-11.5-3.48-11.51-4.37-23.33-3.27-35.3.8-8.67,4.52-16.01,10.27-22.45,8.36-9.37,18.63-16.22,29.52-22.18,13.83-7.57,28.05-14.34,43.77-16.96,7.69-1.28,15.5-1.8,23.26-2.66ZM451.31,121.46c-.6.69-.91.94-1.09,1.25-2.37,4.34-4.94,8.59-7.04,13.06-6.17,13.1-14.18,24.75-25.56,33.91-1.54,1.24-2.96,2.72-4.12,4.32-2.35,3.23-5.39,5.36-9.12,6.66-1.6.56-3.15.93-4.36-.61-1.22-1.56-.32-2.92.47-4.38,1.78-3.27,3.33-6.66,5.06-9.95,1.85-3.5,3.67-7.03,5.75-10.4,1.46-2.36,3.34-4.46,5.01-6.7.92-1.23.71-2.17-.77-2.82-9.57-4.19-18.87-9.24-28.77-12.4-15.78-5.05-31.89-9.18-48.01-13.05-11.46-2.75-23.13-4.68-34.78-6.51-6.68-1.05-13.51-1.12-20.26-1.74-4.06-.38-4.04-.48-4.13,3.55-.11,5.22-1.04,10.13-4.95,14.06-2.8,2.8-5.86,4.97-9.96,3.6-4.22-1.41-4.99-5.16-5.37-9.04-.58-5.86-.57-11.89-2.02-17.54-3.2-12.43-3.52-24.9-2.22-37.53,1.37-13.27,4.63-25.93,12.32-37.08,2.06-2.99,4.66-5.61,7.41-8.88-3.63-2.08-7.19-4.12-10.87-6.24-1.59,5.66-5.28,6.65-9.32,3.01-.82-.74-1.6-1.58-2.23-2.49-1.11-1.59-2-1.42-3.13.01-.93,1.18-1.98,2.34-3.19,3.2-3.87,2.77-6.95,1.58-8.08-2.97-.03-.12-.23-.19-.66-.54-2.76,1.57-5.65,3.23-8.55,4.86-1.61.9-1.61,1.65-.34,3.09,2.87,3.29,6.05,6.51,8.09,10.3,11.58,21.53,13.3,44.41,8.72,68.09-1.12,5.77-1.72,11.65-2.51,17.48-.26,1.89-.23,3.84-.6,5.71-1.37,6.92-7.75,9.19-13.19,4.68-2.88-2.39-5.14-5.31-5.83-9.09-.5-2.73-.73-5.52-.93-8.3-.11-1.45-.57-2.31-2.14-2.17-10.09.93-20.25,1.37-30.24,2.94-10.78,1.69-21.42,4.3-32.07,6.76-23.43,5.41-46.7,11.31-68.16,22.69-5.39,2.86-5.42,2.58-1.82,7.57,2.65,3.67,5.58,7.29,7.39,11.37,2.01,4.5,3.36,9.25,6.38,13.3.58.77.57,2.67,0,3.42-.57.76-2.32,1.27-3.29.98-3.22-.93-6.16-2.42-8.54-5.01-3.44-3.76-7.02-7.4-10.74-10.88-6.24-5.84-11.4-12.47-15.43-19.98-3.96-7.38-7.9-14.78-11.86-22.16-.24-.45-.59-.83-1.3-1.79-.35,1.71-.69,2.81-.78,3.94-1.25,15.68-.31,31.11,5.57,45.92,3.73,9.41,7.62,18.77,11.23,28.22.89,2.32,1.79,5.14,1.24,7.38-.83,3.42-.91,6.68-.74,10.1.16,3.28-.03,3.3,3.2,3.26,16.04-.19,32.07-.44,48.11-.56,15.58-.11,31.11-.58,46.42-3.96,3.64-.8,7.15-.18,10.4,1.69,5.54,3.2,7.04,9.46,3.58,14.82-1.83,2.83-4.17,5.23-7.47,6.04-6.1,1.49-12.24,3.3-18.45,3.75-9.69.71-19.45.39-29.18.53-.88.01-1.77.14-3.22.27,1.19,1.28,1.93,2.08,2.67,2.89,3.66,4,7.42,7.91,10.9,12.06.95,1.13,1.62,3.06,1.39,4.46-.34,2.09-2.62,2.25-4.32,2.13-4.11-.31-8.29-.55-12.28-1.5-4.69-1.11-9.21-2.94-13.97-4.51.15,2.05.26,4.14,2.49,5.58,5.9,3.8,11.74,7.69,17.58,11.58.99.66,2.16,1.3,2.72,2.26.57.98.99,2.61.54,3.47-.5.97-2,1.84-3.15,1.95-1.33.14-2.84-.38-4.11-.97-3.58-1.67-7.08-3.52-11.22-5.61.68.76.87,1.09,1.15,1.28,3.78,2.52,7.58,5,11.36,7.53,1.92,1.28,3.91,2.48,5.66,3.96,2.78,2.36,3.67,5.97.33,8.33-.21.15-.27.52-.7,1.39,6.46,2.31,12.72,4.62,19.03,6.78,6.71,2.3,13.51,4.36,20.21,6.69,3.5,1.22,6.57,3.13,8.86,6.25,5.78,7.88,2.03,16.96-7.59,18.39-4.33.64-8.16-.84-12.11-2.11-14.68-4.73-29.16-9.93-42.69-17.46-.39-.22-.86-.28-1.57-.51-.3,3.26.72,5.85,2.75,7.98,4.79,5.03,9.71,9.92,14.5,14.94,2.31,2.42,4.62,4.88,6.55,7.6.71,1,.8,2.96.33,4.15-.66,1.69-2.51,1.73-4.17,1.29-.77-.2-1.57-.43-2.23-.85-3.07-1.98-6.1-4.02-9.13-6.05-.68-.45-1.32-.97-1.97-1.45-.21.13-.43.27-.64.4,1.5,4.9,1.72,10.12,4.26,14.75.19.34.46.66.74.94,4.79,4.8,9.58,9.59,14.37,14.38.85.85,2.01,1.54,2.48,2.55.57,1.24,1.15,3.09.62,4.06-.54.97-2.7,1.93-3.7,1.58-2.41-.82-4.61-2.33-6.79-3.73-1.15-.74-2.07-1.85-3.09-2.8-.19.11-.37.21-.56.32.59,2.27,1.28,4.53,1.75,6.83.84,4.08,2.94,7.31,5.99,10.1,2.11,1.93,4.09,4.05,5.85,6.31,1.24,1.6,2.34,3.48,2.9,5.41.85,2.91-1.48,5.01-4.44,4.32-.74-.17-1.45-.43-2.72-.81.66,1.53,1.07,2.62,1.59,3.65.95,1.91,1.39,3.68-.3,5.52-.34.37-.17,1.71.24,2.22,6.11,7.67,12.36,15.23,18.44,22.93,1.91,2.42,3.8,4.99,5,7.8,2.09,4.89.34,10.18-3.63,12.74-3.99,2.57-9.49,1.94-13.19-1.74-2.19-2.19-4.09-4.68-6.12-7.03-.7-.8-1.43-1.58-2.62-2.88-.17,1.6-.35,2.5-.36,3.4-.01,5.9.32,11.83-.05,17.71-.37,5.97,1.18,11.09,4.72,15.83,2.66,3.58,5.02,7.39,7.47,11.12.83,1.27,1.32,2.7,0,3.92-1.39,1.29-2.9.79-4.08-.32-1.9-1.8-3.66-3.74-5.45-5.66-.66-.71-1.2-1.51-2.1-2.65-.15.94-.24,1.24-.24,1.54.11,6.62.18,13.24.4,19.86.04,1.13.53,2.35,1.14,3.32,1.98,3.18,4.12,6.26,6.18,9.39,1.28,1.95,1.17,3.99-.33,5.19-1.74,1.39-3.43.89-5.02-.34-.53-.41-1.02-.87-2.15-1.85,0,6.15-.02,11.61.03,17.08,0,.6.32,1.25.64,1.78,3.3,5.46,6.58,10.93,9.97,16.33,1.45,2.31,1.49,4.34-.22,5.5-1.7,1.17-3.74.45-5.15-1.85-.58-.95-1.07-1.96-1.62-2.93-1.17-2.06-2.36-4.11-3.81-6.62-.2,1-.37,1.44-.37,1.87-.02,4.79-.04,9.58.02,14.36.01,1.01.23,2.09.65,3.01,4.55,9.93,9.13,19.85,13.77,29.74,1.21,2.59,1.19,4.22-.4,5.06-1.58.84-3.12-.03-4.4-2.52-.33-.64-.64-1.29-.93-1.94-2.32-5.25-4.63-10.51-6.96-15.76-.32-.72-.73-1.4-1.1-2.1-.55,2.42-.66,4.66-.52,6.87.22,3.56.18,7.23,1.05,10.64,1.02,3.99,2.8,7.8,4.45,11.61,2.06,4.76,4.34,9.42,6.5,14.13.79,1.72,1.11,3.52-.81,4.65-1.9,1.12-3.42.06-4.49-1.5-1.3-1.91-2.41-3.94-3.6-5.92-.77-1.28-1.54-2.57-2.3-3.85.4,3.4,1.25,6.57,1.54,9.8.77,8.44-5.98,14.04-13.66,11.51-3.13-1.03-5.22-3.27-6.85-6.03-.44-.75-.94-1.47-1.59-2.49-.94,3.05,2.33,10.45,4.67,11.42.36.15.78.17,1.17.19,2.43.08,3.82,1.49,4.47,3.66.76,2.52,1.44,5.07,2,7.64.95,4.44,3.4,8.12,5.6,12.05,3.65-3.72,6.72-3.38,7.79.73,2.31,8.79,4.58,17.6,6.72,26.44.6,2.46.9,5.05.88,7.57-.01,1.09-1.06,2.91-1.89,3.06-1.06.2-2.68-.68-3.49-1.59-1.01-1.15-1.59-2.76-2.06-4.27-.81-2.59-1.3-5.27-2.09-7.86-.32-1.07-1.07-2-1.62-3-.23.13-.46.26-.69.39,1.49,5.84,2.96,11.68,6.8,16.59,3.44,4.4,6.85,8.82,10.31,13.2,1.01,1.29,1.79,2.65.48,4.05-1.31,1.4-2.77.74-4.09-.18-1.01-.71-2.01-1.44-3.01-2.16-.22.17-.44.34-.66.51.71,1.09,1.17,2.72,2.18,3.18,9.19,4.22,18.36,8.55,27.77,12.26,21.06,8.31,37.09,22.38,46.91,42.58,5.9,12.14,9.83,25.25,14.36,38.02,1.72,4.85,1.93,10.03.96,15.14-.4,2.13-1.42,3.98-3.83,4.39-2.37.4-4.06-.87-5.11-2.79-1.33-2.44-2.59-4.96-3.54-7.58-4.52-12.53-8.87-25.12-13.39-37.65-7.63-21.16-22.18-35.53-43.01-43.79-5.55-2.2-10.91-4.86-16.35-7.31-.75-.34-1.49-.68-2.23-1.03-.02.93.23,1.49.58,1.96,5.29,7,10.23,14.31,15.98,20.91,6.95,7.99,14.74,15.25,21.86,23.11,4.65,5.12,8.95,10.6,12.99,16.21,1.55,2.16,2.2,5.08,2.81,7.76.54,2.39-.26,4.64-2.56,5.97-2.17,1.27-4.37.92-6.31-.47-1.74-1.24-3.33-2.71-4.91-4.15-.97-.89-1.81-1.92-2.7-2.89-.17.1-.34.21-.5.31.39.91.7,1.86,1.2,2.71,5.84,9.98,11.73,19.93,17.57,29.91,3.61,6.18,8,11.73,13.28,16.55,6.36,5.82,12.7,11.65,19.17,17.34,3.11,2.73,6.53,5.1,9.74,7.72,1.46,1.19,2.67,1.35,4.19.08,4.89-4.09,9.93-8,14.77-12.14,12.27-10.51,24.1-21.35,31.56-36.17,4.01-7.96,9-15.42,13.52-23.12.46-.79.69-1.73,1.02-2.6-.18-.09-.37-.18-.55-.27-.83.94-1.58,1.98-2.52,2.78-1.8,1.55-3.56,3.25-5.62,4.37-4.1,2.22-8.5-.6-8.05-5.23.24-2.47.82-5.24,2.2-7.2,4.02-5.72,7.98-11.67,12.94-16.52,13.96-13.66,26.87-28.15,38.04-44.18.52-.74,1.02-1.5,1.52-2.25-.14-.17-.28-.33-.41-.5-.68.29-1.36.57-2.04.87-5.82,2.59-11.57,5.33-17.45,7.77-20.42,8.46-34.74,22.73-42.18,43.7-2.75,7.74-5.53,15.47-8.35,23.19-2.44,6.66-4.85,13.34-7.49,19.92-1.49,3.71-3.87,5.21-6.38,4.67-2.33-.5-4.08-2.86-3.89-6.68.23-4.82.41-9.83,1.84-14.37,3.26-10.34,6.85-20.61,11.04-30.61,9.68-23.06,26.34-39.17,49.64-48.4,5.92-2.35,11.74-4.97,17.58-7.52,3.07-1.34,6.01-2.97,9.12-4.19,2.04-.8,2.86-2.03,2.67-4.41-1.31.93-2.36,2.02-3.63,2.48-1.1.39-2.46.05-3.7.04.07-1.23.05-2.48.26-3.69.08-.47.69-.85,1.03-1.29,3.72-4.88,7.56-9.69,11.12-14.68,3.05-4.27,4.04-9.36,4.82-14.5-1,1.1-1.62,2.37-2.08,3.69-1.31,3.75-2.37,7.59-3.93,11.23-.41.95-2.28,1.85-3.43,1.79-1.8-.1-2.29-1.89-2.07-3.48.5-3.54,1.01-7.1,1.84-10.58,1.71-7.14,3.66-14.21,5.44-21.33.53-2.13.81-4.69,3.33-4.97,1.56-.17,3.29,1.09,5.31,1.85-.21.24.14,0,.27-.32,1.79-4.32,3.62-8.63,5.29-13,.74-1.93,1.07-4.01,1.71-5.98.68-2.07,2.06-3.34,4.38-3.47.67-.04,1.6-.22,1.93-.68,1.51-2.15,2.97-4.35,4.17-6.67.46-.89.16-2.18.21-3.28-.22-.04-.43-.08-.65-.11-.79,1.16-1.55,2.36-2.39,3.49-2.94,3.96-8.4,5.86-12.5,4.39-4.23-1.52-7.13-5.94-6.8-11.03.18-2.84.95-5.65,1.5-8.46.19-.98.51-1.93.77-2.89-.19-.08-.39-.17-.58-.25-.98,1.78-1.89,3.61-2.94,5.34-1.32,2.18-2.53,4.48-4.22,6.33-.69.76-2.79,1.01-3.74.52-.76-.4-.97-2.25-1.03-3.48-.04-.78.64-1.6,1.01-2.39,1.56-3.32,3.18-6.62,4.69-9.96,4.23-9.36,7.97-18.83,6.64-29.45-.1-.8-.11-1.62-.17-2.43-.84.73-1.24,1.49-1.59,2.28-2.46,5.54-4.89,11.09-7.37,16.62-.45,1.01-.94,2.17-1.77,2.78-.76.56-2.22.92-2.96.55-.73-.37-1.17-1.73-1.31-2.72-.1-.68.48-1.48.82-2.2,3.53-7.5,6.88-15.1,10.66-22.47,3.15-6.16,4.46-12.52,3.88-19.37-.19-2.17-.03-4.36-.03-6.54-.21-.05-.43-.09-.64-.14-.44.71-.91,1.4-1.33,2.13-1.38,2.43-2.67,4.91-4.13,7.29-1.26,2.04-3.27,2.58-4.88,1.52-1.62-1.07-1.84-3.09-.52-5.07.26-.4.59-.75.86-1.15,6.26-9.21,12.54-18.42,9.94-30.52-.07-.31,0-.64-.01-.96-.04-.81-.1-1.63-.17-2.76-.61.48-.86.65-1.08.86-2.29,2.1-4.33,2.45-5.89.99-1.57-1.46-1.33-3.46.44-6.01,2.09-3.01,4.08-6.1,5.98-9.23.5-.83.7-1.96.73-2.95.17-6.06.26-12.12.37-18.19.01-.75,0-1.5,0-2.24-.2-.07-.39-.14-.59-.21-.9,1.17-1.71,2.42-2.71,3.49-1.46,1.57-2.98,3.08-4.59,4.5-1.15,1.01-2.58,1.49-3.91.34-1.35-1.17-.95-2.58-.15-3.91.62-1.03,1.28-2.02,1.94-3.02,2.88-4.41,5.88-8.74,8.58-13.25.93-1.56,1.53-3.56,1.58-5.37.21-7.66.16-15.32.17-22.98,0-.91-.21-1.81-.4-3.32-.97,1.09-1.53,1.72-2.08,2.35-2.13,2.47-4.1,5.12-6.43,7.39-3.88,3.76-9.54,4.28-13.42,1.56-4.05-2.84-5.47-8.26-3.17-13.29,1.01-2.22,2.49-4.27,4.02-6.19,6.31-7.92,12.72-15.77,19.1-23.63.71-.88,1.28-1.68.13-2.64-1.57-1.31-1.43-2.88-.67-4.55.6-1.32,1.15-2.67,1.93-4.48-1.12.37-1.64.72-2.13.67-1.42-.14-3.3.03-4.1-.8-.81-.83-.98-2.82-.65-4.1.43-1.63,1.46-3.21,2.56-4.52,2.1-2.5,4.26-5,6.71-7.14,5.08-4.44,5.42-10.7,6.86-16.62-1.48,1.01-2.6,2.38-4.02,3.29-2.1,1.35-4.33,2.65-6.69,3.37-.94.29-2.85-.76-3.44-1.73-.51-.85-.05-2.57.47-3.67.48-1.02,1.6-1.74,2.45-2.58,4.8-4.78,9.67-9.5,14.36-14.39,1.17-1.21,2.06-2.88,2.56-4.5,1.01-3.27,1.68-6.65,2.45-9.99.13-.55.07-1.14.13-2.37-1.33,1.11-2.1,1.89-3,2.48-3.06,2-6.08,4.07-9.27,5.84-1.83,1.02-4.07,1.57-5.67-.49-1.64-2.1-.3-3.89,1.03-5.57.25-.31.51-.61.79-.9,5.7-5.91,11.44-11.8,17.09-17.76,1.58-1.67,3.12-3.44,4.27-5.41.79-1.35.88-3.12,1.28-4.7-1.33-.07-1.94.08-2.48.38-14.37,8.04-29.93,13.11-45.46,18.27-3.42,1.14-6.87,1.45-10.37.57-4.19-1.06-7.08-3.55-8.2-7.84-1.36-5.2,1.71-11.54,7.32-14.54,2.94-1.58,6.06-2.89,9.23-3.94,7.27-2.42,14.65-4.48,21.91-6.92,4.05-1.36,7.94-3.17,12.13-4.88-.56-.65-.78-.97-1.06-1.23-2.66-2.49-2.9-4.76-.33-7.36,1.66-1.68,3.69-3.02,5.66-4.35,3.96-2.67,8.01-5.22,12-7.85.72-.48,1.35-1.1,2.02-1.65-4.3,1.99-8.37,4.17-12.56,6.14-3.24,1.52-5.85,1-6.81-1.03-.99-2.09.3-4.04,3.41-6.02,5.92-3.76,11.72-7.71,17.59-11.55,2.11-1.38,2.33-3.39,2.23-5.8-.69.26-1.21.4-1.69.64-6.13,3.09-12.69,4.75-19.46,5.58-2.26.28-4.63.12-6.9-.18-2.48-.33-3.4-2.44-2.22-4.65.48-.91,1.1-1.77,1.8-2.53,3.55-3.88,7.15-7.72,10.72-11.59.65-.71,1.23-1.48,2.2-2.66-1.57-.07-2.51-.15-3.44-.15-7.18,0-14.36.09-21.55.01-7.45-.08-14.8-.98-21.99-2.99-4.67-1.31-8.74-3.46-11.3-7.82-3.17-5.42-1.22-11.83,4.41-14.62,3.93-1.95,7.98-1.95,12.14-1.05,9.63,2.07,19.36,3.12,29.21,3.29,8.77.15,17.55.53,26.32.64,12.61.16,25.21.19,37.82.21.66,0,1.86-.54,1.89-.89.2-3,1-6.32.05-8.97-1.71-4.76-.37-8.69,1.34-12.89,3.83-9.46,7.63-18.93,11.25-28.47,5.39-14.21,5.81-28.99,4.66-43.91-.07-.95-.43-1.89-.75-3.26ZM58.74,75.9c.17,9.08,1.27,17.98,4.37,26.57.86,2.38,1.19,2.55,3.01.85,5.19-4.87,11.3-8.29,17.69-11.26,11.55-5.36,23.65-9.18,35.88-12.52,26.49-7.22,53.23-13.33,80.36-17.61,7.23-1.14,14.52-1.89,21.81-2.55,3.42-.31,3.79-.48,2.85-3.79-2.73-9.63-9.09-16.31-17.43-21.31-9.93-5.96-20.91-8.92-32.18-11.09-14.92-2.88-29.99-4.15-44.98-1.73-24.35,3.94-45,16.07-64.12,31.03-5,3.92-7.25,9.39-7.26,15.75,0,2.55,0,5.1,0,7.66ZM355.18,20.58c-.01-.23-.02-.46-.03-.69-8.23.89-16.51,1.5-24.69,2.74-12.76,1.94-25.2,5.13-36.36,11.97-8.31,5.09-14.52,11.91-17.09,21.58-.7,2.62-.29,3.07,2.39,3.2,4.22.19,8.49.16,12.63.86,23.83,4.05,47.6,8.36,71.05,14.37,16.94,4.34,33.86,8.66,50.06,15.34,8.06,3.32,15.85,7.18,22.33,13.22,2.16,2.01,2.34,1.89,3.4-.95,3.78-10.15,3.89-20.77,4.35-31.38.38-8.7-2.76-15.64-9.97-20.5-7.13-4.81-14.23-9.72-21.69-13.99-17.41-9.98-35.75-16.99-56.37-15.75ZM433.42,115.62c-.66-.44-1.28-1-2-1.33-17.01-7.62-35.01-12.33-52.74-17.81-2.07-.64-3.02-.04-3.85,1.85-1.6,3.64-3.27,7.26-5.23,10.71-.99,1.74-.7,2.38,1.04,2.87,17.88,5.04,34.79,12.46,51.22,21.04,1.91,1,3.05.72,3.97-1.26,2.23-4.76,4.57-9.48,6.86-14.21.24-.5.41-1.03.74-1.86ZM133.12,110.82c-.37-.69-.56-1.03-.73-1.37-1.72-3.41-3.55-6.77-5.12-10.24-1.5-3.29-1.56-3.5-4.95-2.46-17.37,5.36-34.97,9.99-51.68,17.34-2.13.94-2.37,1.83-1.39,3.75,2.25,4.4,4.34,8.89,6.5,13.33,1.4,2.88,1.69,2.93,4.54,1.56,7.83-3.76,15.54-7.84,23.58-11.12,8.77-3.58,17.86-6.39,26.8-9.56.83-.29,1.58-.78,2.45-1.22ZM225.57,82.6s-.06,0-.1,0c.04-.64.06-1.27.13-1.91.24-1.99-.72-2.92-2.62-2.7-6.08.73-12.17,1.49-18.22,2.42-.65.1-1.65,1.38-1.61,2.05.24,3.81.65,7.62,1.24,11.39.1.67,1.31,1.7,1.99,1.68,5.01-.14,10.02-.51,15.03-.77,2.02-.11,3-1.13,3.19-3.13.28-3.01.64-6.02.97-9.03ZM276.42,82.82s-.04,0-.05,0c.31,2.85.69,5.69.9,8.54.18,2.34,1.33,3.36,3.65,3.46,4.77.19,9.53.48,14.29.79,1.57.1,2.13-.63,2.27-2.06.35-3.64.85-7.27,1.07-10.92.04-.73-.82-2.1-1.42-2.19-6.12-.94-12.27-1.72-18.43-2.46-1.66-.2-2.52.75-2.44,2.45.04.79.11,1.59.17,2.38ZM159.38,93.2c.12-.02.24-.03.36-.05,0-.72-.01-1.44,0-2.15.07-2.98-.16-3.21-3.13-2.58-5.31,1.12-10.59,2.34-15.9,3.45-1.85.39-2.15,1.19-1.27,2.85,1.85,3.53,3.62,7.11,5.29,10.72.67,1.45,1.51,1.86,3.01,1.42,3.75-1.11,7.5-2.2,11.28-3.2,1.84-.49,2.11-1.44,1.65-3.2-.62-2.37-.87-4.83-1.28-7.26ZM342.43,93c-.44,2.58-.76,5.18-1.36,7.72-.38,1.59.02,2.42,1.56,2.85,3.83,1.07,7.66,2.17,11.48,3.3,1.39.41,2.22.02,2.85-1.32,1.65-3.53,3.41-7.02,5.14-10.51,1.15-2.31,1.03-2.68-1.43-3.25-4.5-1.04-9.01-2.03-13.53-3-5.88-1.26-5.28-1.23-4.71,4.22ZM62.08,281.61c-.3.17-.61.34-.91.5,1.43,4.47,1.76,9.34,4.78,13.24,4.78,6.18,9.71,12.25,14.6,18.36.36.45.85.79,1.28,1.18-.3-4.9.45-9.73-3.35-13.81-4.11-4.41-7.55-9.46-11.37-14.15-1.54-1.89-3.34-3.56-5.02-5.33ZM440.06,282c-.23-.14-.47-.28-.7-.42-.41.59-.77,1.21-1.23,1.76-5.17,6.25-10.24,12.59-15.58,18.7-3.38,3.86-2.42,8.39-2.85,12.81.78-.43,1.32-.97,1.79-1.56,4.47-5.61,8.79-11.34,13.42-16.81,3.39-4,4.04-8.9,5.35-13.62.07-.25-.13-.57-.2-.86ZM388.87,469.07c8.01-12.4,9.23-26.79,11.91-40.78-.53.36-.89.79-1.11,1.27-2.05,4.41-4.13,8.81-6.07,13.27-.39.88-.39,2.02-.29,3.01.22,2.3-.39,4-2.58,5.14-.8.42-1.75,1.5-1.78,2.3-.16,5.27-.08,10.56-.08,15.79ZM101.46,428.67c-.18.1-.37.19-.55.29,2.95,13.69,4.03,27.91,11.85,40.1,0-5.26.08-10.63-.09-15.99-.02-.77-1.09-1.76-1.91-2.21-2.07-1.13-2.58-2.77-2.45-4.98.07-1.28-.16-2.68-.65-3.86-1.54-3.67-3.26-7.27-4.93-10.89-.39-.84-.84-1.64-1.27-2.45ZM120.73,469.79c-2.8,8.75.25,25.97,5.48,31.16,0-1.06,0-1.91,0-2.76-.04-4.22-.48-8.49-.05-12.66.65-6.14-3.12-10.42-5.43-15.74ZM427.81,321.23l-.53-.41c-2.59,2.9-5.1,5.87-7.79,8.66-2.3,2.38-3.72,5.05-4.32,8.33-.71,3.84-1.8,7.6-2.71,11.41-.17.72-.29,1.45-.44,2.18.3.12.6.23.9.35,6.91-9.19,10.69-19.96,14.9-30.51ZM380.57,470.05c-1.66,3.8-4.26,7.47-4.78,11.42-.82,6.27-.25,12.72-.25,19.09,0,.09.22.19.19.17,6.83-9.22,6.98-19.67,4.83-30.68ZM74.83,321.22c-.38.23-.76.46-1.13.69,4.29,8.96,8.54,17.94,12.9,26.87.55,1.13,1.7,1.98,2.57,2.95.37-1.03.25-1.77.07-2.5-.8-3.33-1.99-6.62-2.37-10-.92-8.26-7.79-12.18-12.04-18.01ZM450.97,241.24c-4.65.91-8.87,1.14-12.58,2.62-4.24,1.7-8.06,4.47-12.01,6.88-1.78,1.08-2.72,2.75-2.74,5.11.71-.18,1.27-.23,1.74-.46,3.95-1.91,7.83-3.96,11.84-5.74,3.25-1.44,6.63-2.56,9.97-3.79,1.85-.68,2.94-1.97,3.79-4.64ZM50.91,241.97c1.01,2.15,2.14,3.65,4.47,4.04,1.31.22,2.62.62,3.82,1.18,5.47,2.57,10.89,5.24,16.34,7.84.77.37,1.64.51,2.65.81-1.07-6.49-19.34-15.75-27.28-13.87ZM375.12,589.05c3.42-4.68,8.13-23.19,6.61-29.08-.63.37-.82,1.14-1.16,1.84-4.23,8.64-7.48,17.47-5.45,27.24ZM375.46,532.11c3.2-9.21,7.83-17.49,6.35-27.24-6.33,7.89-8.29,16.8-6.35,27.24ZM126.2,532.22c1.93-10.65-.06-19.56-6.45-27.37-1.28,9.77,3.16,18.07,6.45,27.37ZM375.39,463.94c.26.03.53.06.79.09,1.36-4.18,4.27-7.84,3.97-12.57-.28-4.31-.63-8.62-.99-13.4-3.03,2.47-4.16,4.87-3.99,8.03.22,4.14.17,8.29.22,12.43.02,1.8,0,3.61,0,5.41ZM122.92,438.29c-2.89,6.73-.91,22.31,3.48,25.82,0-7.01.04-13.75-.02-20.5-.02-2.44-1.63-3.92-3.46-5.32ZM126.47,589.31c2.05-10.63-1.24-19.79-6.7-28.42.7,9.76,2.11,19.36,6.7,28.42ZM380.17,255.2c.84-.36,2.08-.83,3.26-1.41,4.35-2.16,8.68-4.35,13.01-6.54.57-.29,1.36-.44,1.65-.9.46-.72.83-1.68.77-2.5-.04-.62-.85-1.71-1.25-1.68-2.07.17-4.74-.06-6.05,1.12-4.12,3.71-7.72,7.99-11.39,11.91ZM122.18,255.5c-3.81-3.97-7.29-7.54-10.69-11.19-1.65-1.76-3.55-2.54-5.95-2.35-1.33.1-2.56.08-2.85,1.81-.27,1.58.33,2.45,1.78,3.15,4.79,2.31,9.52,4.77,14.28,7.14.97.48,2.01.85,3.43,1.44ZM92.26,318.62c-.71,6.61,4.83,17.5,9.62,19.2-.02-7.79-2.76-13.33-9.62-19.2ZM409.44,318.98c-5.61,3.2-9.93,11.77-9.47,18.8,5.12-2.54,10.11-12.43,9.47-18.8ZM108,368.04c.27-.22.54-.44.81-.66-1.97-6.91-1.89-14.82-9.87-19.28,1.41,5.08,2.38,9.93,4.16,14.46.84,2.14,3.22,3.67,4.9,5.48ZM393.3,367.56c2.55-1.78,5.22-3.3,6.02-6.63.88-3.62,1.94-7.2,2.91-10.81.16-.61.24-1.24.38-2.02-7.9,4.44-7.62,12.37-9.32,19.45ZM191.48,90.99c-.18-2.31-.31-4.22-.48-6.13-.11-1.2-.42-2.25-1.97-2.13-1.46.11-2.78.46-2.74,2.29.07,3.26.16,6.52.35,9.78.09,1.53.74,2.52,2.6,2.31,1.73-.2,2.34-1.06,2.26-2.69-.06-1.27-.01-2.55-.01-3.43ZM310.33,90.46s-.05,0-.08,0c0,1.51,0,3.03,0,4.54.01,1.55,1.03,2.27,2.33,2.03.87-.16,2.22-1.02,2.29-1.67.36-3.55.46-7.14.48-10.71,0-1.72-1.56-2.06-2.78-1.85-.7.12-1.62,1.18-1.77,1.95-.37,1.86-.34,3.8-.48,5.71ZM375.11,562.01c4.27-8.08,3.47-16.53,4.97-25.25-5.5,7.95-6.01,16.15-4.97,25.25ZM121.9,537.73c1.18,8,.37,16.37,4.63,24.33,1.04-8.94.65-17.09-4.63-24.33ZM121.24,685.87c-.26-5.17-2.77-10.76-5.89-13.39-.4,5.71,2.66,9.6,5.89,13.39ZM386.36,671.99c-3.49,4.39-5.69,8.64-5.84,13.77,3.13-3.84,6.31-7.65,5.84-13.77ZM93.53,397.3c-.35.14-.7.27-1.05.41.85,2.83,1.63,5.7,2.61,8.48.23.64,1.17,1.02,1.79,1.52.58-1,1.9-2.41,1.61-2.94-1.42-2.62-3.27-5-4.96-7.46ZM175.73,85.14l-.86.02c-2.36,2.53-1.5,11.64,1.62,13.45-.26-4.66-.51-9.07-.76-13.48ZM325.2,98.74c3.33-1.99,4.07-11.71.83-14.01-.29,4.84-.55,9.29-.83,14.01ZM409.19,397.92c-.31-.12-.62-.24-.92-.35-1.62,2.31-3.33,4.57-4.85,6.94-1.04,1.62.34,2.59,1.46,3.21,1.53.85,1.58-.72,1.9-1.58.52-1.41.95-2.85,1.37-4.29.38-1.3.7-2.62,1.04-3.93ZM402.38,257.23c3-2.53,7.04-4.02,8.26-8.26-3.01,2.52-8.13,2.88-8.26,8.26ZM91.38,249.01c.2,2.6,4.01,6.31,8.13,8.3-.23-5.43-5.34-5.72-8.13-8.3ZM388.65,497.38c1.84-3.85,3.56-7.71,3.43-12.08-2.66,3.59-4.55,7.41-3.43,12.08ZM110.17,485.98c-.33.1-.66.2-.99.3,1.12,3.75,2.23,7.51,3.35,11.26.23-.07.46-.14.7-.21.76-4.28-.6-7.97-3.06-11.35ZM376.79,706.06c-.25-.14-.5-.28-.76-.41-3.41,2.99-4.36,7.2-5.58,11.27.23.12.46.23.69.35,1.88-3.73,3.76-7.47,5.64-11.2ZM130.32,716.79c.26-.1.51-.2.77-.3-1.12-3.81-2.06-7.71-5.16-10.54-.26.13-.52.26-.78.38,1.72,3.48,3.45,6.97,5.17,10.45ZM391.85,385.16c-.2-.15-.4-.3-.61-.44-2.1,1.86-4.24,3.69-5.03,6.46.24.17.47.34.71.51,1.64-2.18,3.29-4.35,4.93-6.53ZM114.68,391.34c.32-.25.64-.51.96-.76-1.61-1.89-3.22-3.79-4.83-5.68-.21.17-.41.34-.62.51,1.5,1.98,3,3.96,4.5,5.94ZM111.44,422c-.35.09-.7.17-1.05.26.65,1.75,1.31,3.5,1.96,5.25.34-.13.68-.25,1.02-.38-.65-1.71-1.29-3.42-1.94-5.13ZM390.95,423.15c-.31-.13-.62-.27-.93-.4-.52,1.43-1.04,2.87-1.56,4.3.31.11.62.22.93.33.52-1.41,1.04-2.82,1.56-4.23Z" style="fill: #000; stroke-width: 0px;"/>
  <path d="M305.68,175.79c.13,18.46-15.58,29.95-32.7,28.1-3.33-.36-6.26-1.89-8.62-4.32-1.2-1.24-2.48-1.46-4.12-1.11-6.24,1.32-12.49,1.23-18.77.09-1.15-.21-2.83.12-3.65.87-4.77,4.39-10.38,5.38-16.49,4.46-19.66-2.96-28.54-19.03-23.65-37.83.85-3.27,3.28-5.14,6.14-5.1,2.9.05,5.33,2.16,6,5.55.56,2.81.57,5.75,1.32,8.5.76,2.79,1.67,5.77,3.39,8,1.42,1.86,3.96,3.17,6.27,3.96,3.08,1.07,4.01.32,5.08-2.84,1.28-3.78,3.54-6.55,7.74-6.78,4.02-.22,7,1.81,9.04,5.22,3.06,5.13,8.93,6.58,13.92,3.26.93-.62,1.45-1.84,2.25-2.71,1.43-1.56,2.68-3.48,4.44-4.51,5.1-2.97,10.28-.89,12.38,4.64,1.67,4.38,3.71,5.16,7.96,2.96,3.47-1.8,5.57-4.73,6.51-8.46.49-1.93.7-3.92,1.02-5.89.3-1.89.46-3.81.88-5.67.72-3.16,2.99-5.15,5.73-5.23,2.76-.09,5.4,1.69,6.16,4.73.83,3.3,1.2,6.73,1.77,10.1Z" style="fill: #000; stroke-width: 0px;"/>
  <path d="M210.2,629.96c-.98,4.33-1.81,8.71-3.03,12.97-.32,1.12-1.79,2.54-2.86,2.65-1.07.12-2.96-.94-3.37-1.95-2.19-5.35-4.76-10.71-5.85-16.33-2.27-11.65-3.74-23.46-5.44-35.21-3.21-22.11-13.66-40.59-28.49-56.86-1.44-1.58-3.22-2.84-4.87-4.21-1.7-1.41-2.65-3.1-1.59-5.23,1.05-2.11,3.18-2.89,5.07-1.92,3.71,1.92,7.68,3.8,10.6,6.66,16.48,16.14,28.34,35.05,32.77,58,2.36,12.21,4.24,24.51,6.29,36.78.25,1.49.23,3.02.33,4.53.14.04.29.08.43.12Z" style="fill: #000; stroke-width: 0px;"/>
  <path d="M291.77,630.33c.43-3.54.66-6.24,1.11-8.91,2.53-14.85,4.15-29.9,8.73-44.34,5.69-17.97,16.13-32.99,29.26-46.25,2.05-2.07,4.58-3.71,7.04-5.33,1.3-.85,2.88-1.39,4.4-1.77,1.97-.49,3.69.19,4.64,2.06.97,1.92.36,3.69-1.24,4.9-8.52,6.45-14.22,15.25-19.89,24.02-8.3,12.84-12.46,27.16-14.5,42.21-1.41,10.35-2.74,20.73-4.72,30.99-.97,5.02-3.21,9.81-5.11,14.61-.69,1.74-1.87,3.52-4.25,3.22-2.25-.29-2.84-2.2-3.24-3.98-.89-4.04-1.6-8.11-2.23-11.42Z" style="fill: #000; stroke-width: 0px;"/>
  <path d="M225.41,718.59c.29,6.36-.42,12.63-2.2,18.71-.63,2.15-1.83,4.24-3.22,6.02-1.65,2.12-4.15,2.58-6.75,1.92-2.59-.66-4.24-2.48-4.55-5-.26-2.16-.03-4.44.35-6.6,1.47-8.31,1.85-16.64.64-24.99-1.08-7.46-5.32-12.53-12.36-15.11-2.98-1.09-6.16-1.64-9.18-2.65-3.23-1.08-6.43-2.31-9.54-3.71-1.07-.49-2.32-1.57-2.59-2.61-.35-1.36-.28-3.35.52-4.33.69-.85,2.66-.94,4.05-.89,1.78.06,3.54.73,5.32.89,8.21.7,16.35,1.4,23.74,5.71,8.52,4.97,13.55,12.18,14.81,21.94.46,3.56.64,7.15.95,10.72Z" style="fill: #000; stroke-width: 0px;"/>
  <path d="M276.39,719.53c.22-3.18.43-6.36.66-9.54,1.15-15.67,11.66-24.72,25.07-27.94,4.09-.98,8.36-1.16,12.54-1.75,2.26-.32,4.49-.94,6.75-1.05,1.29-.06,3.06.23,3.8,1.08.75.85.96,2.74.57,3.89-.41,1.2-1.64,2.49-2.83,3-3.64,1.56-7.43,2.78-11.16,4.11-3.51,1.25-7.17,2.21-10.53,3.79-4.58,2.15-7.37,6.01-8.57,10.93-2.18,9.01-1.42,18.04-.07,27.07.29,1.96.71,3.95.65,5.91-.09,2.85-1.55,5.03-4.31,6.04-2.84,1.03-5.48.39-7.35-1.94-1.26-1.58-2.52-3.45-2.91-5.37-1.2-5.99-1.98-12.06-2.93-18.1.2-.04.4-.08.6-.11Z" style="fill: #000; stroke-width: 0px;"/>
  <path d="M233.44,532.58c0,2.39.26,4.82-.07,7.15-.33,2.31-.92,4.73-2.05,6.74-1.48,2.63-4.82,2.57-6.18-.13-1.11-2.21-1.76-4.79-2.01-7.27-.91-9.28-1.63-18.58-2.32-27.88-1.33-17.72-8.53-33.07-19.1-46.97-3.8-5-8.23-9.52-12.35-14.28-.73-.84-1.47-1.7-2.03-2.65-1.04-1.74-1.2-3.57.49-4.97,1.7-1.42,3.48-.95,4.95.47,3.77,3.66,7.79,7.13,11.16,11.14,11.38,13.51,21.07,28.05,26.1,45.24,2.45,8.37,4.39,25.58,3.41,33.4Z" style="fill: #000; stroke-width: 0px;"/>
  <path d="M268.29,532.57c-1.02-22.67,4.34-43.59,17.21-62.5,6.77-9.95,14.23-19.22,23.27-27.2,1.54-1.36,3.17-1.9,4.98-.65,1.52,1.05,1.89,3.39.5,5.16-2.26,2.88-4.77,5.57-7.21,8.3-10.33,11.54-18.77,24.22-23.12,39.25-2.79,9.64-3.48,19.6-4.05,29.58-.32,5.65-.89,11.29-1.56,16.91-.2,1.69-.86,3.44-1.74,4.9-1.63,2.71-4.83,2.75-6.37-.02-1.01-1.82-1.58-4.01-1.83-6.09-.31-2.51-.07-5.09-.07-7.64Z" style="fill: #000; stroke-width: 0px;"/>
  <path d="M268.98,310.33c1.04-19.86,4.87-38.74,18.95-54.04,4.52-4.91,10.03-8.35,16.14-10.85,1.58-.65,3.39-.95,5.11-1,2.71-.07,4.77,1.54,5.25,3.68.51,2.28-.54,4.23-3.21,5.49-4.99,2.35-9.19,5.72-12.88,9.74-9.67,10.56-13.86,23.38-15.59,37.3-.68,5.51-1.89,10.97-3.06,16.41-.32,1.5-1.11,3.03-2.09,4.22-2.47,2.99-6.1,2.35-7.54-1.27-.46-1.16-.64-2.46-.76-3.72-.19-1.98-.21-3.98-.31-5.97Z" style="fill: #000; stroke-width: 0px;"/>
  <path d="M232.71,310.79c-.08,1.83-.05,3.68-.28,5.49-.19,1.48-.44,3.04-1.1,4.35-1.47,2.96-4.65,3.41-6.88.99-.94-1.02-1.83-2.33-2.14-3.65-1.17-4.95-2.47-9.92-3.02-14.97-1.33-12.23-4.27-23.86-11.41-34.1-4.54-6.52-10.15-11.84-17.41-15.3-2.61-1.24-3.74-3.3-3.23-5.5.5-2.14,2.58-3.84,5.27-3.63,2.25.17,4.58.73,6.66,1.62,8.93,3.81,15.77,10.12,20.96,18.25,7.79,12.21,13.65,33.83,12.58,46.44Z" style="fill: #000; stroke-width: 0px;"/>
  <path d="M230.41,407.78c0,2.15.28,4.35-.11,6.43-.21,1.15-1.34,2.65-2.4,3.01-1.71.59-2.76-.88-3.19-2.46-1.51-5.61-3.09-11.21-4.39-16.88-2.46-10.67-6.1-20.89-12.75-29.65-3.73-4.91-8.36-9.13-12.59-13.65-.33-.35-.71-.64-1.03-1-1.35-1.54-1.83-3.27-.52-4.99,1.35-1.78,3.3-1.72,4.94-.62,3.16,2.14,6.47,4.21,9.13,6.89,9.88,9.92,16.34,21.95,20.19,35.3,1.64,5.69,2.35,11.66,3.48,17.5-.25.04-.51.08-.76.12Z" style="fill: #000; stroke-width: 0px;"/>
  <path d="M270.98,408.41c.96-19.68,8.27-35.72,19.81-49.87,3.3-4.05,7.93-7.05,12.12-10.33,1.96-1.54,4.17-1.16,5.37.38,1.2,1.54.88,3.51-.91,5.35-.95.97-1.88,1.97-2.91,2.83-12.35,10.33-18.77,24.07-22.66,39.28-1.52,5.94-3.05,11.88-4.59,17.82-.16.61-.27,1.39-.69,1.75-.84.71-1.97,1.71-2.83,1.59-.87-.12-2.08-1.38-2.24-2.29-.43-2.49-.38-5.06-.47-6.5Z" style="fill: #000; stroke-width: 0px;"/>
</svg>