<?xml version="1.0" encoding="UTF-8"?>
<svg id="Layer_1" data-name="Layer 1" xmlns="http://www.w3.org/2000/svg" viewBox="0 0 526.9 900">
  <path d="M124.79,764.05c.44-13.48,2-27.62,8.28-40.88.44-.92-.06-2.63-.68-3.63-2.17-3.5-5.25-6.58-6.8-10.31-4.85-11.68-6.39-24.08-5.41-36.58.36-4.64-.09-8.55-1.62-12.88-2.61-7.38-2.54-15.15-.96-22.82.41-1.99.28-3.12-2.08-3.38-16.63-1.85-30.61-9.51-42.73-20.54-22.63-20.61-40.93-44.59-53.32-72.67-11.31-25.64-11.62-52.23-5.56-79.28,5.57-24.86,18.64-44.89,37.9-61.12,2.48-2.09,2.6-3.26.76-6.04-5.11-7.71-4.09-15.95-.47-23.93,1.01-2.22,1.33-3.88.14-6.1-2.2-4.12-2.79-8.73-1.64-13.17,1.62-6.25,3.91-12.33,5.79-18.52.33-1.09.55-2.77-.03-3.51-7.97-10.29-7.78-21.34-3.21-32.77.85-2.12.5-3.15-1.49-4.16C9.3,270.29-4.04,225.88,1.01,190.29c4.31-30.36,18.11-56.31,37.32-79.68,7.44-9.05,15.53-17.54,25.8-23.36,5.11-2.9,10.83-4.76,16.39-6.8,3.04-1.11,4.73-3.01,6.16-5.88,6.07-12.2,11.83-24.61,18.81-36.28,13.16-22.02,33.53-32.33,58.76-33.29,6.43-.24,12.97.48,19.35,1.49,10.53,1.66,21.24,3.03,31.34,6.23,7.2,2.28,12.37,1.71,18.33-2.72,6.94-5.15,15.32-7.67,23.8-9.35,9.48-1.88,18.42.61,26.96,4.35,5.1,2.24,9.95,5.16,14.64,8.2,2.66,1.72,4.82,2.02,7.91,1.11,19.15-5.67,38.62-10.13,58.71-9.12,25.34,1.28,44.99,13,57.65,35.18,6.48,11.34,11.83,23.32,17.87,34.92.94,1.8,2.6,4.05,4.34,4.48,20.94,5.3,34.98,19.7,47.54,35.91,16.69,21.54,28.91,45.28,32.92,72.55,4.36,29.63-2.06,56.71-20.9,80.32-7.85,9.84-17.9,17.21-29.05,23-2.39,1.24-2.7,2.37-1.74,4.88,4.29,11.23,4.42,22.11-3.36,32.19-.62.8-.35,2.6,0,3.78,1.84,6.2,4.13,12.28,5.68,18.55,1.16,4.68.19,9.36-1.89,13.82-.54,1.16-.46,3,.07,4.2,4,9.07,5.28,17.95-1.19,26.5-1.43,1.89.07,2.67,1.15,3.76,6.02,6.1,12.4,11.89,17.92,18.42,15.14,17.92,21.31,39.45,23.86,62.26,3.02,27.06-2.54,52.35-16.23,75.82-12.32,21.13-26.95,40.49-45.23,56.87-12.37,11.08-26.33,19.15-43.23,20.96-2.22.24-2.61,1.15-2.22,3.28,1.73,9.61,1.57,19.05-2.98,28.03-.45.89-.52,2.13-.36,3.15,2.58,16.02.06,31.3-6.78,45.91-.86,1.83-2.32,3.56-3.9,4.83-1.93,1.55-1.97,2.85-1.13,5.06,14.6,38.69,9.48,75-13.88,108.78-7.56,10.93-17.95,18.67-30.64,23.06-2.04.71-3.51,1.74-3.74,4.07-.06.63-.39,1.26-.67,1.85-5.16,11.14-22.34,20.55-34.53,18.78-2.17-.32-3.23.57-4.33,2.11-7.39,10.31-17.7,15.87-30.07,16.99-8.35.76-16.88.76-25.23.03-12.5-1.09-22.95-6.63-30.37-17.08-1.36-1.91-2.76-2.43-5.01-1.93-4.67,1.04-9.22.25-13.54-1.64-7.3-3.19-13.38-8-18.38-14.18-.89-1.1-2-2.35-2.17-3.64-.52-3.85-3.18-4.99-6.3-6.19-15.39-5.91-26.24-17.03-34.43-30.95-10.67-18.14-15.92-37.82-16.01-59.79ZM68.65,410.51c-.32-.29-.65-.57-.97-.86-3.05,2.61-6.19,5.13-9.15,7.84-19.83,18.16-28.87,40.84-27.73,67.54.47,11.16,4.38,21.52,9.09,31.54,8.62,18.3,15.94,37.33,28.83,53.28,5.44,6.73,10.64,14.05,17.39,19.24,19.36,14.86,41.42,21.96,66.1,19.45,4.12-.42,7.85.6,11,3.45,2.48,2.24,3.14,4.78.98,7.24-2.41,2.75-5.17,5.41-8.27,7.28-2.53,1.53-2.78,2.51-1.63,5.1,5.44,12.26,10.82,24.55,15.85,36.98,4,9.88,5.05,20.29,3.52,30.83-1.64,11.32-3.5,22.61-5.5,33.88-.43,2.41-1.53,4.86-2.91,6.9-2,2.95-6.02,3.69-8.43,1.62-2.96-2.53-6.33-5.02-5.73-9.75.07-.53-.3-1.11-.47-1.67-.33-.04-.67-.08-1-.11-1.68,6.55-3.74,13.03-4.98,19.66-4.12,21.95-.28,42.68,11.77,61.37,10.53,16.33,27.07,25.03,44.59,31.99.51.2,1.2-.04,2.16-.1-.28-2.06-.53-3.88-.78-5.69-.58-4.12-.45-8.15,1.79-11.83,3.7-6.07,11.05-6.09,14.22.23,1.53,3.05,2.38,6.63,2.7,10.05,1.2,12.63,3.01,24.96,11.75,35.05,5.73,6.61,12.6,10.24,21.65,9.64,6.24-.42,12.53.06,18.8-.05,2.7-.05,5.56-.09,8.05-.96,13.44-4.71,19.21-15.74,22.35-28.5,1.25-5.09,1.35-10.46,2.09-15.69.33-2.38.62-4.85,1.47-7.06,2.04-5.29,5.16-7.55,9.11-7.12,4.16.45,7.48,4.22,8.27,9.48.18,1.19.24,2.42.17,3.62-.1,1.86-.31,3.73-.57,5.58-.54,3.76-.05,4.17,3.59,2.75,1.84-.72,3.68-1.48,5.47-2.32,12.94-6.12,25.56-13.06,34.13-24.78,19.28-26.34,20.43-55.11,9.68-85.06-.1-.27-.41-.46-.84-.91-.24.79-.64,1.4-.56,1.96.52,3.98-1.63,6.65-4.27,9.15-3.29,3.13-7.71,2.9-10.15-.96-1.31-2.08-2.17-4.59-2.66-7.02-1.48-7.33-2.71-14.72-3.96-22.1-2.5-14.72-3.33-29.38,2.62-43.56,4.98-11.86,10.1-23.66,15.33-35.41,1.11-2.5,1.05-3.62-1.56-5.17-3.12-1.85-5.88-4.5-8.34-7.22-2.23-2.46-1.65-4.97.87-7.21,3.24-2.89,7.07-4.12,11.3-3.5,7.85,1.15,15.59.39,23.32-.88,20.77-3.41,38.76-12.21,52.65-28.26,19.48-22.51,31.5-49.3,41.57-76.82,8.58-23.44,3.66-46.05-8.79-67.08-5.71-9.65-13.78-17.39-22.51-24.38-.69-.55-1.55-.89-2.32-1.33-.07,1.5.34,2.48.91,3.34,3.49,5.21,7.19,10.29,10.46,15.63,1.86,3.04,3.68,6.36,4.39,9.79,1,4.8-2.87,8.24-7.41,6.43-3.72-1.48-7.36-4.01-10.14-6.92-22.27-23.41-31.95-51.64-31.23-83.68.4-17.89,4.08-35.16,9.96-51.99,1.03-2.94.55-4.09-2.57-4.77-3.42-.75-6.79-1.91-10-3.32-21.46-9.39-33.82-27.45-44.27-47.16-2.15-4.06.54-7.93,5.09-7.36,3.45.43,7.15,1.65,9.99,3.6,5.05,3.47,9.98,7.35,14.18,11.8,12.11,12.82,27.74,16.56,44.3,17.36,5.26.25,11.15-1.06,15.87-3.42,14.58-7.31,25.77-17.98,29.56-34.72.49-2.14,1.23-4.23,1.8-6.35,3.33-12.44,2.28-24.99.01-37.35-4.31-23.46-10.93-46.02-27.04-64.68-7.04-8.16-13.31-17-22.29-23.27-.92-.64-1.91-1.17-3.3-2.02-.3,1.92-.3,3.27-.74,4.46-1.68,4.49-3.2,9.08-5.4,13.31-1.52,2.92-4.53,3.47-7.8,2.39-3.06-1.01-5.53-2.07-6.11-5.93-1.14-7.59-2.48-15.18-4.28-22.64-3.47-14.4-10.76-27.15-18.07-39.84-2.96-5.14-7.29-9.02-12.26-12.26-13.11-8.54-27.63-10.29-42.78-8.98-16.33,1.41-32.02,5.75-47.63,10.48-2.63.8-5.24,1.72-7.92,2.31-2.67.58-5.48-.06-6.53-2.6-.76-1.84-.31-4.36.14-6.45.3-1.36,1.58-2.51,2.66-4.11-1.3-.66-2.3-1.25-3.36-1.71-14.91-6.58-29.9-7.75-45.02-.7-.4.18-.83.28-1.25.42q-4.38,1.43-1.91,5.34c1.48,2.35,2.39,4.83.52,7.37-1.85,2.51-4.46,3.02-7.38,2.31-.96-.23-1.89-.6-2.84-.86-11.04-3-22.01-6.29-33.14-8.89-12.7-2.96-25.63-4.54-38.65-2.42-17.14,2.78-30.83,10.68-38.64,26.98-2.47,5.16-5.29,10.15-7.86,15.26-6.36,12.66-8.86,26.41-11.03,40.21-.65,4.16-1.43,5.39-6.32,6.77-3.54,1-6.24.4-7.88-2.92-2.11-4.27-3.48-8.92-5.08-13.43-.38-1.06-.4-2.25-.67-3.97-1.52.99-2.55,1.55-3.47,2.27-13.55,10.58-24.42,23.76-32.66,38.54-12.81,22.98-19.27,48.19-17.96,74.53,1.02,20.47,8.03,38.57,27.13,50.03,8.65,5.19,17.35,7.77,27.27,6.33,13.79-2,26.97-5.23,37.25-15.77,4.52-4.62,9.62-8.73,14.8-12.63,2.54-1.92,5.74-3.36,8.84-3.99,2-.4,4.93.47,6.47,1.86,2.12,1.9,1.09,4.78-.28,7.01-4.22,6.83-8.21,13.84-12.94,20.31-10.23,13.97-23.24,24.25-40.39,28.57-3.92.99-3.87.98-2.54,4.9,5.62,16.56,9.28,33.51,9.75,51.05.86,32.01-8.52,60.33-30.66,83.9-2.65,2.82-5.97,5.14-9.3,7.15-2.17,1.3-4.94,1.29-7.12-.65-2.29-2.04-2.42-4.73-1.43-7.3,1.02-2.64,2.4-5.18,3.93-7.56,3.4-5.27,7.02-10.39,10.51-15.6.64-.95,1.1-2.03,1.64-3.05ZM80.76,351.78c-.51-7.9-.45-15.89-1.69-23.67-1.43-8.96-3.87-17.78-6.17-26.58-.9-3.44-4.43-4.58-6.6-2.65-6.27,5.57-7.62,12.58-3.57,19.97,1.41,2.58,3.35,4.88,5.15,7.23,1,1.3,2.29,2.38,3.31,3.67,2.27,2.87,1.29,5.43-2.18,6.43-1.23.35-2.54,1.23-3.29,2.25-1.42,1.94-2.54,4.11-3.63,6.27-3.48,6.9-2.85,13.36,2.21,19.32.99,1.17,1.91,2.43,2.68,3.75,1.22,2.1.82,3.97-1.05,5.58-5.22,4.51-6.52,11.01-3.19,16.84.42.74,1.89,1.19,2.89,1.21,2.4.05,4.86-.66,7.18-.3,2.91.45,3.9-.6,4.5-3.24,2.67-11.89,3.5-23.92,3.44-36.07ZM466.42,310.82c.14-4.06-1.82-7.24-4.45-9.99-1.15-1.21-3.12-2.8-4.31-2.51-1.52.37-3.23,2.24-3.8,3.84-1.79,5.07-3.77,10.23-4.43,15.51-1.42,11.45-2.37,22.97-2.93,34.49-.59,12.02.49,23.97,3.18,35.75.55,2.43,1.51,3.55,4.29,3.18,2.34-.31,4.79.25,7.2.28.89.01,2.12-.07,2.61-.63,3.52-4,2.45-13.41-1.77-16.67-3.57-2.76-3.81-4.28-1.16-7.92.9-1.25,1.94-2.4,2.83-3.65,3.05-4.29,4.33-9.04,2.42-14.04-1.44-3.77-3.52-7.31-5.53-10.83-.44-.77-1.71-1.24-2.69-1.48-3.69-.91-4.65-3.61-2.15-6.58,1.63-1.94,3.49-3.68,5.07-5.65,3.06-3.84,5.47-8,5.61-13.1ZM150.42,689.51c-.12,0-.24-.01-.36-.02-.71-8.44-1.36-16.88-2.15-25.31-.97-10.39-3.2-20.45-8.84-29.43-.69-1.1-2.44-2.54-3.31-2.32-1.66.43-3.19,1.79-4.47,3.06-.71.7-.83,2-1.19,3.03-3.17,9.21-3.78,18.28,1.52,27,1.36,2.24,1.22,4.24-.29,6.43-.97,1.4-1.78,3.11-2.04,4.77-2,12.7,2.77,23.74,8.8,34.4.33.57,2.31.79,3.13.39,2.35-1.16,4.4-2.92,6.75-4.07,1.88-.92,2.53-2.06,2.48-4.1-.13-4.61-.04-9.23-.04-13.85ZM376.57,688.78c0,3.04.32,7.36-.09,11.6-.38,3.96.23,6.8,4.45,8.1,1.31.4,2.59,1.32,3.58,2.31,2.38,2.37,3.91,1.59,5.29-1,4.18-7.83,7.22-16.06,8.19-24.91.53-4.84.06-9.56-2.91-13.88-.83-1.21-.29-3.7.21-5.43.7-2.4,2.29-4.54,2.91-6.95,2.15-8.36.46-16.39-2.97-24.05-.52-1.15-2.6-1.97-4.07-2.18-.91-.13-2.43.92-2.99,1.85-4.05,6.75-7.12,13.92-8.04,21.81-1.23,10.48-2.28,20.97-3.54,32.74ZM194.85,860.3c2.62,5.44,12.28,11.48,17.58,10.8-1.6-3.28-3.09-6.52-4.78-9.66-.33-.6-1.44-1.07-2.2-1.1-3.48-.12-6.96-.05-10.59-.05ZM314.37,871.35c6.53-.2,16.03-6.49,17.63-11.5-3.65.16-7.24.25-10.81.53-.73.06-1.72.68-2.06,1.32-1.63,3.05-3.08,6.2-4.76,9.64Z" style="fill: #000; stroke-width: 0px;"/>
  <path d="M128.02,209.68c-1.68-1.54-3.17-2.68-4.38-4.07-2.17-2.49-2.23-5.59-.34-7.46,1.81-1.78,4.53-1.62,7.23.21,2.81,1.91,5.58,3.96,8.61,5.44,8.97,4.41,17.91,3.91,26.52-1.08,11.9-6.89,19.91-17.08,24.89-29.8.73-1.87.44-3.07-1.35-4.09-1.32-.75-2.59-1.71-3.65-2.8-1.86-1.89-2.56-4.17-1.07-6.6,1.5-2.45,3.87-2.72,6.39-1.99,1.25.37,2.42,1.03,3.62,1.58,17.21,7.89,36.19-2.24,39.3-20.97,1.18-7.11.28-14.02-1.83-20.84-.74-2.38-2.06-5.3,1.3-6.52,3.32-1.21,4.49,1.73,5.17,4.14,1.92,6.85,4.47,13.69,5.15,20.69,2.25,23.14-16.44,41.16-39.59,38.64-3.06-.33-4.09.19-4.57,3.41-2.79,18.48-21.7,37.88-40.02,41.36-7.13,1.36-14.08.66-20.62-2.49-2.59-1.25-4.32-.85-6.48.86-10.42,8.23-21.93,14.3-35.14,16.59-3.34.58-6.79.86-10.17.78-10.35-.24-18.39-4.76-23.68-13.75-6.39-10.85-8.03-22.72-6.93-35.03,1.03-11.58,4.63-22.42,10.97-32.17,1.73-2.66,4.35-4.93,7.01-6.72,2.38-1.6,5.23-1.08,7.06,1.39,1.86,2.52,1.18,5.13-.87,7.18-13.51,13.49-16.47,38.55-7.85,56.79,3.84,8.12,8.98,11.26,17.93,10.36,4.34-.44,8.74-1.34,12.85-2.79,7.77-2.75,15.34-6.04,22.99-9.12.38-.15.68-.49,1.58-1.16Z" style="fill: #000; stroke-width: 0px;"/>
  <path d="M398.27,209.94c12.95,5.54,24.49,11.38,37.49,12.82,9.36,1.04,14.94-2.11,18.61-10.82,7.59-18,6.25-35.44-4.22-52.02-.98-1.55-2.48-2.78-3.71-4.17-1.91-2.16-2.84-4.5-1.08-7.18,1.52-2.3,4.57-3.11,7.35-1.51,2.04,1.17,4.18,2.73,5.42,4.66,13.12,20.39,17.09,42.05,7.64,65.01-5.16,12.55-15.12,18.53-28.7,17.99-13.98-.55-26.49-5.67-37.52-13.9-5.37-4-9.61-5.46-16.39-2.79-9.86,3.88-19.88,1.36-28.73-4.19-14.12-8.86-24.65-20.56-27.25-37.8-.35-2.33-1.62-2.11-3.27-1.91-9.71,1.19-18.62-.99-26.55-6.71-12.37-8.91-16.03-21.43-13.75-35.82.97-6.12,3.37-12.03,5.26-17.99.68-2.14,2.15-3.89,4.69-2.94,2.54.96,2.31,3.2,1.63,5.32-2.18,6.79-3.25,13.67-2.33,20.82,2.5,19.52,22.07,30.35,39.9,22.06,1.48-.69,3.12-1.72,4.59-1.58,1.76.17,4.12,1.01,4.91,2.33.79,1.33.29,3.72-.26,5.46-.34,1.09-1.73,1.92-2.78,2.7-3.85,2.84-3.92,2.83-2,7.33,4.71,11.02,11.93,20,22.08,26.45,11.75,7.47,23.89,6.85,35.07-1.61.26-.2.53-.4.78-.6,3.72-2.97,6.71-3.28,8.7-.9,1.97,2.35,1.28,5.37-2.06,8.63-.85.84-1.86,1.51-3.52,2.84Z" style="fill: #000; stroke-width: 0px;"/>
  <path d="M244.84,650.38c1.67-.91,3.61-1.54,4.97-2.79,7.44-6.9,20.05-6.95,27.29.21,1.58,1.56,3.07,2.01,5.24,1.84,8.84-.69,18.71,5.93,21.67,14.33.15.41.37.84.37,1.26-.1,5.36.42,10.83-.51,16.05-1.13,6.31-4.28,12-8.71,16.79-4.02,4.35-8.76,6.01-14.6,3.75-.93-.36-2.61.02-3.4.7-8.16,6.9-19.4,6.93-27.38.1-.85-.72-2.65-1.1-3.67-.72-5.42,2-10.01.71-13.87-3.26-5.28-5.43-8.7-12.07-9.77-19.45-.72-4.91-.67-10.25.52-15.04,2.09-8.45,12.63-15.12,21.86-13.77ZM233.29,683.49c.74,1.55,1.25,2.83,1.92,4.02,3.6,6.38,5.34,6.87,11.77,3.36,3.42-1.87,4.56-1.61,7.24,1.64,5.24,6.35,13,6.49,18.13.32,3.21-3.85,3.82-3.96,8.26-1.5,5.91,3.27,12.23-.81,12.12-7.5-19.56,7.02-39.12,7.06-59.45-.34ZM289.06,662.04c.09-.27.19-.54.28-.8-1.86-.63-3.7-1.72-5.58-1.77-2.34-.06-4.78.48-7.04,1.2-2.89.93-4.79.18-5.67-2.64-1.06-3.39-3.97-4.36-6.7-4.17-2.74.19-6.27,1.01-7.88,2.9-3.63,4.25-3.23,4.58-8.67,3.09-3.73-1.02-7.2-.75-10.67,2.19h51.94ZM245.25,675.06c12.33,3.07,23.97,3.09,36.3.02-12.29-4.04-23.9-3.93-36.3-.02Z" style="fill: #000; stroke-width: 0px;"/>
  <path d="M223.79,484.72c-.65-4-1.23-7.67-1.84-11.33-.4-2.39-.03-4.56,2.45-5.49,2.59-.96,4.48.31,5.68,2.63,7.23,14.02,3.55,31.87-8.68,41.63-1.04.83-2.66,1.73-3.8,1.51-2.9-.55-3.99,1.15-5.09,3.13-4.3,7.74.03,15.54,8.78,15.02,9.41-.56,9.65-.98,15.13,7.59,2.93,4.58,7.69,6.39,13.23,5.66,3.87-.51,7.62-1.56,11.02,2.1.92.98,4.81.35,6.46-.79,2.09-1.45,3.91-2.21,6.33-1.79,1.08.19,2.18.28,3.27.44,6.65.94,11.76-1.61,14.94-7.36,2.6-4.71,5.81-7.29,11.4-5.85,1.14.29,2.41.13,3.62.1,4.88-.12,7.22-1.69,8.58-5.73,1.36-4.03.09-9.63-2.76-11.93-.47-.38-1.25-.77-1.75-.64-3.23.86-5.16-1.12-7.18-3.04-8.59-8.15-11.77-18.09-9.67-29.68.57-3.13,1.45-6.21,2.4-9.25.99-3.16,3.47-4.66,5.92-3.86,2.32.76,2.72,3.17,2.48,6.38-.5,6.52-.67,13.09-.43,19.63.12,3.16,1.55,5.55,5.93,5.28,2.35-.15,5.23,1.67,7.23,3.37,10,8.52,11.47,24.49,3.56,34.98-.88,1.16-1.17,2.75-1.76,4.13-1.59,3.69-2.64,7.76-4.91,10.96-3.93,5.54-10.65,6.72-17.52,3.54-2.64-1.22-4.81-1.3-7.49-.23-4.54,1.82-9.29,1.67-13.89,0-2.16-.78-4-.41-6.23-.02-3.97.69-8.17.04-12.28-.09-1.45-.04-3.05-.62-4.31-.19-5.66,1.95-11.16,1.96-16.77-.21-1.25-.48-3.07-.35-4.32.19-11.88,5.18-22.1-.56-23.9-13.43-.24-1.74-.99-3.62-2.05-5.01-7.98-10.51-5.75-27.84,4.96-35.52,2.08-1.49,5.06-1.67,7.53-2.69,1.34-.55,3.27-1.38,3.56-2.45,1.05-3.88,1.52-7.91,2.17-11.71ZM224.88,546.48c-1.5-4.79-1.85-5.03-4.89-3.64.55,2.47,1.78,3.95,4.89,3.64ZM306.92,542.78c-3.23-1.14-4.03-.47-4.68,3.72,2.75.35,3.94-1.16,4.68-3.72Z" style="fill: #000; stroke-width: 0px;"/>
  <path d="M278.53,257.34c.16-1.64.22-3.3.5-4.91,2.14-12.28,13.18-16.93,23.61-10.14,1.65,1.08,4.01,1.6,6.02,1.52,15.71-.59,27.65,5.9,36.03,19,1.3,2.02,2.36,2.55,4.69,2.25,2.78-.36,5.76-.36,8.48.26,13.05,2.94,23.79,16.67,23.92,30.02.02,1.69.54,3.47,1.21,5.05,5.36,12.65-1.45,23.76-15.18,24.33-10.9.46-20.1-3.78-28.24-10.82-1.52-1.32-3.75-2.42-5.71-2.52-10.3-.54-19.91-3.09-26.27-11.61-3.98-5.33-8.71-9.07-14.19-12.58-9.48-6.09-14.73-17.51-14.88-29.83ZM313.15,254.68c-.11.27-.33.56-.33.86-.05,2.6-.7,4.92-3.52,5.68-2.89.78-4.73-.9-6.37-3.05-1.4-1.83-2.76-3.81-4.57-5.16-1.72-1.28-4.35-2.91-5.92-2.39-1.59.53-2.97,3.37-3.42,5.42-2.36,10.83,1.57,18.05,12.02,23.09,4.35,2.1,8.67,4.27,12.9,6.61,2.61,1.45,3.79,3.59,2.05,6.6-.34.59-.39,1.87,0,2.28,4.16,4.33,9.21,6.83,14.98,6.88,1.02-1.67,2.1-3.78,3.42-3.94,1.43-.18,3.31,1.2,4.6,2.34,4.11,3.62,7.79,7.77,12.11,11.1,5.11,3.95,11.17,5.68,17.69,4.85,6.24-.79,8.84-7.04,5.04-12.05-1.11-1.46-2.64-2.61-4.04-3.83-2.87-2.5-2.97-4.94-.63-7.98.63-.82,1.01-2.57.56-3.37-3.37-5.96-8.1-10.4-14.99-11.96-5.61-1.27-6.25-.86-8.43,4.31-.13.3-.26.61-.42.9-1.25,2.27-3.14,3.43-5.72,2.88-2.54-.53-3.47-2.51-3.66-4.87-.07-.87.07-1.75.14-2.63.86-11.71-11.53-23.66-23.5-22.57Z" style="fill: #000; stroke-width: 0px;"/>
  <path d="M248.22,258.56c-.91,14.39-7.14,26.16-21.62,32.68-1.29.58-2.52,1.79-3.25,3.02-5.8,9.74-14.12,15.63-25.52,16.44-5.21.37-9.44,1.77-13.55,5.37-6.8,5.95-15.17,8.83-24.33,8.69-14.51-.22-21.61-11.33-15.99-24.72.7-1.66,1.22-3.63,1.06-5.39-1.34-14.76,18.6-33.73,33.5-29.6.84.23,2.52-.63,3.05-1.46,8.93-14.08,21.42-21.02,38.28-19.49,1,.09,2.26-.22,3.06-.81,5.45-3.99,11.27-5.87,17.53-2.35,6.46,3.63,7.72,10,7.78,17.63ZM213.66,253.93c-3.03.83-5.74,1.31-8.25,2.3-10.98,4.3-15.28,10.91-15.02,22.68.01.55.14,1.25-.13,1.61-1.13,1.47-2.24,3.77-3.65,4-1.63.27-3.73-1.08-5.31-2.19-.82-.58-1.15-2.11-1.34-3.28-.39-2.38-1.78-2.96-3.96-2.87-8.81.38-14.67,5.26-18.93,12.46-.45.75-.24,2.42.33,3.16,2.83,3.73,2.71,5.66-.88,8.53-.77.62-1.54,1.25-2.25,1.92-2.75,2.59-3.7,5.73-2.39,9.3,1.31,3.56,4.43,4.31,7.77,4.44,7.44.28,13.8-2.55,19.26-7.33,3.38-2.96,6.36-6.37,9.49-9.6,1.61-1.65,3.46-2.72,5.45-.96.96.85,1.31,2.4,2.02,3.81,5.63-.52,10.49-2.84,14.53-6.83.53-.52.86-1.79.61-2.47-1.46-3.99-1.31-5.16,2.39-7.2,5-2.75,10.23-5.1,15.28-7.78,8.44-4.47,12.23-15.63,8.42-24.43-1.4-3.24-3.67-4.06-6.54-1.91-2.17,1.63-4.07,3.69-5.82,5.78-1.86,2.21-3.39,4.87-6.83,4.23-3.63-.67-3.65-3.89-4.23-7.39Z" style="fill: #000; stroke-width: 0px;"/>
  <path d="M370.76,572.38c-1.31-.82-2.9-1.37-3.75-2.48-1.01-1.32-2.23-3.46-1.78-4.63.45-1.16,2.96-2.33,4.41-2.16,5.34.62,10.62,1.84,15.93,2.72,2.6.43,5.24.66,7.87.91,12.84,1.19,23.75-2.93,32.23-12.59,15.65-17.83,27.1-37.88,31.42-61.54.19-1.05.25-2.12.46-3.94-1.69.8-2.79,1.36-3.93,1.86-2.68,1.18-5.28,1.13-7.16-1.32-1.87-2.44-1.44-5.18.56-7.25,3.04-3.16,6.4-6.03,9.67-8.96,3.75-3.37,4.28-4.87.72-8.43-4.15-4.15-8.99-7.63-13.69-11.18-1.97-1.49-4.46-2.56-3.53-5.56.88-2.87,3.51-3.03,6-2.95,10.24.33,23.9,11.94,25.97,22.04.84,4.11-.17,7.79-2.35,11.33-.94,1.53-1.9,3.39-1.91,5.1-.19,22.61-8.13,42.65-20.45,61.11-4.93,7.38-10.31,14.6-16.39,21.03-12.87,13.61-28.54,18.53-46.85,12.64-2.23-.72-3.1.21-4.18,1.89-4.7,7.37-14.49,10.89-23.22,8.51-8.15-2.23-13.73-9.37-14.26-18.23-.14-2.41-.07-4.8,2.6-5.84,2.52-.98,4.07.69,5.62,2.38,2.15,2.34,4.22,4.85,6.73,6.75,4.24,3.22,9.85,2.62,13.28-1.22Z" style="fill: #000; stroke-width: 0px;"/>
  <path d="M156.03,572.38c3.75,3.88,9.28,4.4,13.44,1.16,2.49-1.93,4.55-4.44,6.68-6.8,1.56-1.73,3.15-3.29,5.65-2.23,2.43,1.04,2.63,3.27,2.5,5.59-.49,9.15-5.95,16.21-14.33,18.49-8.6,2.34-18.5-1.26-23.16-8.66-1.25-1.98-2.41-2.32-4.57-1.65-16.23,5.09-31.15,2.11-43.11-9.73-22.95-22.71-38.25-49.5-39.98-82.64-.16-3.15-.7-5.94-2.53-8.66-2.93-4.35-3.01-9.24-.72-13.86,4.41-8.9,11.48-14.94,20.99-17.86,2.02-.62,4.42-.72,6.48-.28,1.29.27,2.9,1.83,3.23,3.1.28,1.09-.77,2.93-1.77,3.83-1.53,1.36-3.72,1.98-5.3,3.3-3.6,3.02-7.29,6.02-10.41,9.51-3.07,3.43-2.69,4.64.71,7.68,2.95,2.64,5.97,5.2,8.82,7.95,3.05,2.94,3.64,6.07,1.87,8.49-1.8,2.47-4.69,2.71-8.62.75-.65-.33-1.34-.58-2.59-1.11.17,1.63.21,2.79.42,3.91,4.6,24.28,16.24,44.95,32.86,62.9,7.58,8.18,17.3,12.16,28.5,11.2,7.98-.68,15.88-2.2,23.82-3.35.87-.13,1.85-.65,2.57-.4,1.53.53,3.7,1.15,4.14,2.29.43,1.14-.64,3.2-1.6,4.43-.88,1.13-2.49,1.69-4.01,2.65Z" style="fill: #000; stroke-width: 0px;"/>
  <path d="M197.04,418.22c-3.68-1.02-7.32-2.17-11.05-2.99-1.12-.25-2.87,0-3.6.75-10.28,10.51-27.21,8.89-35.27-3.63-1.36-2.11-2.65-2.89-5.2-2.88-12.18,0-22.21-13.71-19.69-26.52.35-1.77-.06-3.7.3-5.47.35-1.7.81-4.03,2.01-4.72,1.38-.79,3.69-.35,5.46.08,1.02.25,1.85,1.49,2.65,2.38,16.04,17.77,35.54,23.42,58.53,16.67,5.48-1.61,10.85-3.58,16.29-5.35,3.24-1.05,6.5-2.06,9.77-3.02,2.37-.69,4.97-1.4,6.53,1.24,1.66,2.82-.25,4.92-2.33,6.43-2.58,1.88-3.23,4.05-3.14,7.26.29,10.43-9.57,19.19-21.25,19.77ZM154.67,406.03c3.71,7.43,14.64,9.21,18.77,3.29-6.16-1.08-12.33-2.16-18.77-3.29ZM192.19,406.99c6.21,2.91,14.41-.4,14.48-5.56-4.75,1.83-9.48,3.64-14.48,5.56ZM144.05,400.65c-3.87-2.94-7.44-5.64-11.24-8.53,1.07,5.38,6.17,9.34,11.24,8.53Z" style="fill: #000; stroke-width: 0px;"/>
  <path d="M308.27,397.55c1.07-2.81-.46-4.26-2.25-5.77-2.06-1.74-4.8-3.58-3.08-6.81,1.72-3.23,4.76-2.04,7.35-1.23,7.86,2.48,15.63,5.27,23.55,7.55,4.84,1.39,9.85,2.36,14.85,2.97,18.18,2.21,32.47-5.44,44.67-18.12,1.14-1.18,2.16-2.77,3.56-3.34,1.56-.63,3.9-.97,5.17-.21,1.25.75,1.9,2.97,2.24,4.66.42,2.09.06,4.32.35,6.44,1.92,14.43-9.65,26.92-21.21,25.93-1.06-.09-2.65,1.24-3.35,2.33-5.88,9.15-17.33,13.31-27.39,9.61-2.03-.75-4.45-1.65-5.62-3.26-3-4.14-6.07-3.23-10.16-1.87-12.44,4.13-25.12-2.49-28.01-14.19-.39-1.58-.48-3.24-.68-4.69ZM352.58,409.47c3.88,2.85,7.42,3.99,11.49,2.97,3.56-.89,6.3-2.89,8.46-6.44-6.8,1.18-12.89,2.24-19.96,3.47ZM334.89,407.02c-5.42-2.04-10.18-3.84-15.32-5.78,2.24,5.95,8.67,8.39,15.32,5.78ZM394.22,392.06c-4.14,3.1-7.67,5.74-11.41,8.53,4.56,1.03,9.45-2.49,11.41-8.53Z" style="fill: #000; stroke-width: 0px;"/>
  <path d="M293.78,805.39c-1.65,2.82-3.35,4.99-4.26,7.46-1.52,4.11-2.41,8.45-3.79,12.62-.82,2.48-1.62,5.21-3.26,7.1-1.41,1.63-3.93,2.86-6.1,3.12-3.01.36-4.37-2.8-3.06-5.58,1.38-2.92,2.56-5.97,3.53-9.05,1.59-5.02,2.66-10.21,4.48-15.14,1.67-4.52,4.65-8.23,9.27-10.26,5.33-2.34,8.76-.98,11.44,4.19.5.97,1.93,1.78,3.06,2.03,5.11,1.15,11.18-1.71,13.85-7.29,2.34-4.89,5.47-7.1,10.93-7.06,7.48.05,12.16-4.21,13.83-11.33,1.02-4.34,1.24-8.88,1.78-13.33.17-1.41-.25-3.11.41-4.19.94-1.54,2.48-3.42,4.02-3.67,1.55-.26,3.51,1.11,5.07,2.12.69.44,1.07,1.7,1.18,2.63,1.16,10.54.14,20.73-6.06,29.69-4.48,6.49-11,8.92-18.74,7.62-2.45-.41-3.61.29-5,2.32-4.49,6.55-10.23,11.53-18.63,12.17-5.35.41-9.9-1.46-13.97-6.17Z" style="fill: #000; stroke-width: 0px;"/>
  <path d="M233.04,805.94c-12.16,9.04-24.45,6.45-32.69-6.64-1.25-1.98-2.36-2.63-4.73-2.26-9.31,1.46-16.65-2.4-20.92-10.84-3.99-7.9-4.93-16.35-4.27-25.06.06-.76.24-1.53.48-2.26.94-2.92,3.24-4.54,5.95-4.11,2.99.47,4.25,2.57,4.46,5.34.26,3.5.17,7.04.56,10.52.27,2.38.97,4.74,1.73,7.03,2,6.07,6.21,9.42,12.64,9.88,1.21.09,2.41.32,3.62.3,3.14-.07,4.9,1.62,6.57,4.13,1.97,2.96,4.36,5.71,6.91,8.2,2.39,2.32,5.63,2.45,8.71,1.65,1.09-.28,2.37-1.28,2.84-2.29,1.99-4.31,4.83-5.82,9.5-4.55,4.8,1.3,8.25,4.53,10.06,8.89,2.22,5.34,3.56,11.05,5.39,16.56,1.09,3.28,2.53,6.46,3.56,9.76.38,1.23.58,3.2-.1,3.9-.97,1-2.89,1.72-4.28,1.55-3.54-.42-5.5-3.11-6.61-6.23-1.18-3.31-1.91-6.77-2.98-10.12-.97-3.03-1.96-6.08-3.25-8.98-.72-1.61-2.08-2.93-3.14-4.38Z" style="fill: #000; stroke-width: 0px;"/>
  <path d="M346.8,50.19c15.48.19,31.76,7.83,42.75,25.3,3.33,5.3,5.19,11.14,5.59,17.41.08,1.2.08,2.43-.07,3.62-.42,3.24-2.59,5.42-5.3,5.27-3.23-.18-4.22-2.43-5.02-5.2-1.39-4.81-2.37-9.97-4.87-14.17-9.57-16.08-24.6-21.67-42.63-20.76-7.8.39-15.16,2.47-22.23,5.69-2,.91-4.01,1.81-6.02,2.7-2.05.9-4.17,1.32-5.63-.83-1.44-2.12-.5-4.14,1.29-5.51,3.73-2.86,7.38-5.96,11.49-8.17,7.17-3.86,15.87-5.35,30.64-5.35Z" style="fill: #000; stroke-width: 0px;"/>
  <path d="M184.85,50.15c13.1.3,25.23,2.65,35.19,11.58.98.88,2.31,1.66,2.76,2.78.58,1.45,1.07,3.54.42,4.69-.52.94-2.95,1.53-4.23,1.18-2.83-.78-5.49-2.23-8.19-3.45-11.71-5.27-23.89-6.75-36.45-4.15-14.59,3.02-24.51,11.89-30.32,25.41-1.15,2.67-1.41,5.73-2.01,8.63-.6,2.87-1.96,4.94-5.19,4.99-2.62.04-5.04-2.02-4.91-5.17.19-4.56.35-9.42,2-13.56,8.05-20.2,23.71-30.37,44.94-32.64,2.07-.22,4.17-.2,6-.28Z" style="fill: #000; stroke-width: 0px;"/>
  <path d="M209.02,734.91c3.39,1.37,7,2.4,10.11,4.24,2.15,1.28,3.46,1.32,5.51,0,6.88-4.43,14.47-5.76,22.42-3.91,2.83.66,5.55,2.04,8.14,3.42,2.17,1.16,4.16,2.91,3.19,5.8-.96,2.87-3.51,3-6.02,2.78-2.19-.19-4.36-.54-6.55-.76-1.75-.17-3.51-.38-5.25-.33-6.27.17-11.58,2.26-15.2,7.72-1.59,2.4-3.85,3.78-6.76,2.82-2.83-.94-3.36-3.33-3.48-6.09-.05-1.06-1.13-2.57-2.13-3-3.5-1.52-6.98-.97-9.84,1.59-1.95,1.74-3.36,4.11-5.38,5.73-1.18.95-3.38,1.71-4.6,1.23-1.23-.48-1.97-2.54-2.6-4.04-.3-.69.07-1.73.29-2.57,1.88-7.36,10.19-13.81,18.15-14.64Z" style="fill: #000; stroke-width: 0px;"/>
  <path d="M288.84,734.49c3.27.02,8.73,1.51,13.6,4.78,1.77,1.19,3.01,1.4,4.93.02,10.21-7.33,24.21-2.67,28.28,9.29.38,1.13.9,2.5.58,3.51-.48,1.53-1.36,3.55-2.59,4.04-1.22.48-3.4-.27-4.61-1.2-1.7-1.3-2.61-3.73-4.38-4.83-2.4-1.49-5.24-2.84-7.99-3.07-3.83-.32-4.47,1.1-5.18,4.87-.33,1.75-1.76,3.88-3.3,4.69-2.36,1.25-4.48-.32-6.36-2.14-2.56-2.47-5.08-5.56-8.22-6.67-3.87-1.36-8.36-1.14-12.59-1.25-2.72-.07-5.49.86-8.18.62-1.55-.14-3.79-1.44-4.22-2.72-.43-1.27.58-3.62,1.71-4.72,3.54-3.44,9.67-5.22,18.53-5.21Z" style="fill: #000; stroke-width: 0px;"/>
  <path d="M84.9,174.46c.55-2.68.91-5.42,1.71-8.03.78-2.54,2.68-4.16,5.5-3.67,3.01.53,4.05,2.8,3.97,5.61-.07,2.3-.6,4.61-.43,6.88.29,3.89,2.81,5.63,6.4,4.18,2.69-1.09,5.59-2.55,7.41-4.69,4.61-5.4,8.69-11.26,12.94-16.97.72-.96.97-2.42,1.86-3.07,1.27-.93,3.23-2.13,4.35-1.72,1.15.41,2.53,2.8,2.29,4.02-.84,4.16-1.9,8.41-3.71,12.22-3.77,7.92-9.49,14.4-17.39,18.34-3.41,1.7-7.53,2.76-11.32,2.73-8.09-.06-13.44-6.86-13.58-15.84Z" style="fill: #000; stroke-width: 0px;"/>
  <path d="M441.84,174.55c0,11.8-9.64,19.14-20.66,14.83-14.48-5.66-22.58-16.98-25.3-32.11-.24-1.33,1.17-3.91,2.34-4.29,1.19-.38,3.58.83,4.47,2.06,3.09,4.26,5.39,9.12,8.7,13.18,3.08,3.77,6.83,7.15,10.78,10,1.71,1.23,5.21,1.66,6.91.7,1.45-.81,1.62-4.11,2.08-6.36.21-1.02-.25-2.17-.37-3.26-.39-3.39,1.03-5.95,3.62-6.54,2.68-.61,5.26,1.23,6.14,4.66.6,2.33.86,4.74,1.28,7.12Z" style="fill: #000; stroke-width: 0px;"/>
  <path d="M161.05,144.51c-2.52-.73-6.71-1.61-10.63-3.15-3.8-1.5-5.24-4.6-4.27-7.51.96-2.87,3.96-4.28,7.99-3.28,11.4,2.8,20.89-.64,28.64-8.96,2.54-2.73,4.21-6.33,5.96-9.7,1.01-1.96,1.79-3.92,4.35-3.75,2.55.17,3.4,2.13,3.83,4.3.89,4.51.19,8.86-2.18,12.71-7.3,11.88-17.97,18.29-33.69,19.35Z" style="fill: #000; stroke-width: 0px;"/>
  <path d="M365.58,144.52c-15.59-1.16-26.19-7.54-33.42-19.34-2.37-3.86-3.17-8.17-2.27-12.71.44-2.21,1.31-4.13,3.82-4.32,2.56-.19,3.5,1.72,4.31,3.79,4.18,10.74,12.18,17.1,23.34,19.14,3.55.65,7.43-.05,11.1-.55,4.29-.59,7.09.27,8.13,3.11,1.09,2.98-.41,6.28-4.32,7.8-3.93,1.53-8.14,2.37-10.69,3.08Z" style="fill: #000; stroke-width: 0px;"/>
  <path d="M325.71,639c-.27,1.62-.07,3.24-.78,4.12-1.14,1.4-2.88,3.15-4.38,3.17-1.5.02-3.05-1.87-4.49-3.04-.35-.28-.44-1.02-.45-1.55-.25-10.42-6.93-16.67-14.5-22.29-4.2-3.12-8.89-4.15-14.03-2.7-1.48.41-3.06,1.06-4.49.85-1.88-.27-4.22-.8-5.35-2.09-1.65-1.91-.36-4.16,1.24-5.86,2.82-2.99,6.3-4.96,10.38-5.16,3.12-.16,6.52-.15,9.39.89,12.43,4.53,21.07,13.21,25.82,25.55,1.01,2.61,1.15,5.56,1.64,8.11Z" style="fill: #000; stroke-width: 0px;"/>
  <path d="M234.3,604.19c5.9-.03,10.32,1.59,13.9,5.27,1.63,1.68,2.69,3.64,1.54,5.95-1.16,2.35-3.35,2.6-5.68,2.22-.65-.11-1.32-.17-1.94-.39-7.75-2.76-14.25-.39-20,4.9-5.32,4.9-10.32,10.01-10.7,17.89-.04.87-.15,1.77-.4,2.6-.71,2.31-2.19,3.89-4.73,3.87-2.71-.02-4.44-1.72-4.68-4.24-.26-2.7-.15-5.52.34-8.18,2.3-12.56,16.48-26.9,28.92-29.44,1.39-.28,2.83-.37,3.44-.44Z" style="fill: #000; stroke-width: 0px;"/>
</svg>