<?xml version="1.0" encoding="UTF-8"?>
<svg id="Layer_1" data-name="Layer 1" xmlns="http://www.w3.org/2000/svg" viewBox="0 0 634.53 900">
  <path d="M634.25,251.5c.98,20.97-.54,41.7-7.01,61.81-3.48,10.83-9,20.73-14.32,30.74-8.96,16.85-19.22,32.88-29.65,48.84-8.4,12.85-16.3,26.12-23.39,39.73-7.38,14.18-13.9,28.85-20.05,43.62-2.37,5.71-3.02,12.23-3.86,18.45-1.94,14.48-3.67,29-5.18,43.53-.79,7.58-.92,15.23-1.34,22.84-.19,3.48-.12,7-.59,10.44-1.34,9.86-1.42,19.72-1,29.65.46,11.02.38,22.07.31,33.11-.04,7.26-1.98,14.19-4.76,20.85-7.05,16.9-10.08,34.76-10.04,52.78.04,22.31,1.03,44.61,4.62,66.81,3.36,20.78,3.98,41.94.45,62.87-2.78,16.45-7.83,32.31-15.66,47.07-2.65,5-6.72,9.27-10.3,13.74-1.46,1.82-3.68,2-5.7.96-1.66-.85-3.26-1.94-4.61-3.21-9.43-8.9-20.62-15.16-31.77-21.52-4.25-2.43-8.31-5.19-12.58-7.57-11.56-6.45-22.63-13.61-35.95-16.76-11.58-2.74-22.62-7.75-33.96-11.55-6.05-2.02-12.18-3.91-18.41-5.29-6.62-1.46-13.39-2.26-20.1-3.31-9.9-1.55-19.75-.9-29.57.78-5.11.88-10.3,1.42-15.34,2.59-5.67,1.31-11.33,2.84-16.78,4.84-13.1,4.81-25.85,10.58-39.63,13.38-6.44,1.31-12.21,4.21-17.85,7.62-11.77,7.11-23.86,13.68-35.62,20.8-8.13,4.92-16.38,9.78-23.08,16.72-.58.6-1.3,1.09-2.01,1.56-3.58,2.36-5.91,1.57-8.8-1.48-12.8-13.55-17.35-30.87-22.15-48.03-3.95-14.1-4.61-28.57-4.4-43.19.27-19.23,3.21-38.14,5.77-57.11.32-2.33.59-4.69.61-7.05.12-13.76.74-27.55.03-41.26-.53-10.21-2.53-20.39-4.47-30.46-.95-4.95-3.07-9.71-4.95-14.43-3.65-9.18-5.17-18.6-4.87-28.5.45-14.61.97-29.26.39-43.84-.71-17.79-2.36-35.54-3.95-53.28-1.14-12.67-2.91-25.29-4.29-37.94-1.05-9.7-4.05-18.8-8.33-27.48-3.71-7.53-8.32-14.68-11.38-22.45-3.8-9.67-9.25-18.34-14.5-27.12-9.87-16.51-20.44-32.6-30.29-49.12-6.95-11.66-13.42-23.63-19.66-35.69-9.27-17.92-13.42-37.26-14-57.28-.96-33.19.39-66.33,8.05-98.73,3.67-15.53,9.65-30.56,15.14-45.62,3.74-10.26,8.09-20.34,12.77-30.21,6.44-13.57,14.49-26.19,23.76-38.08,9.63-12.36,20.73-23.38,30.93-35.19C100.48,13.81,112.8,7.54,125.03.74c1.42-.79,3.51-.87,5.19-.62,14.55,2.18,29.1,4.37,43.59,6.87,4.99.86,9.85,2.55,14.71,4.04,4.06,1.24,7.98,2.95,12.06,4.08,15.46,4.27,28.9,12.29,41.62,21.78,11.53,8.6,24.44,14.58,38,19.14,2.88.97,6.12,1.08,9.21,1.22,9.04.39,18.09.87,27.13.81,11.02-.07,22.21.37,33.01-1.35,8.28-1.32,16.17-5.41,24.06-8.7,11.07-4.62,20.22-12.41,30.09-18.99,7.91-5.27,16.32-9.41,25.38-12.28,6.38-2.02,12.61-4.58,19.04-6.4,6.15-1.74,12.43-3.08,18.73-4.19,11.98-2.1,24.02-3.85,36.01-5.9,3.26-.56,6.02-.14,8.87,1.64,3.67,2.29,7.58,4.21,11.45,6.17,10.71,5.41,18.18,14.53,26.19,22.99,5.45,5.75,10.7,11.69,15.82,17.73,10.91,12.88,20.75,26.44,28.94,41.33,9.06,16.49,14.95,34.17,21.96,51.46,10.63,26.24,14.93,53.73,17.3,81.64.8,9.38.61,18.85.87,28.28ZM508.96,265.68c-.32.41-.63.82-.95,1.23.3-.55.72-1.06.88-1.64,4.23-15.17,8.91-30.24,12.49-45.56,3.42-14.63,5.22-29.57,3.33-44.67-4.13-32.95-21.51-58.86-44.67-81.15-9.17-8.83-20.29-15.63-30.54-23.33-5.88-4.42-11.79-8.8-17.72-13.17-1.02-.76-2.32-1.96-3.36-.24-3.58,5.93-9.21,9.63-14.53,13.68-13.35,10.17-27.66,18.49-44.35,21.7-25.81,4.96-51.82,6.52-78.01,3.74-11.35-1.21-22.7-2.29-33.74-5.52-16.68-4.89-30.54-14.59-43.88-25.2-2.55-2.03-4.92-4.46-6.78-7.13-1.56-2.24-2.65-2.39-4.68-.84-7.06,5.36-13.98,10.96-21.36,15.85-19.29,12.79-36.24,27.73-49.42,47.11-17.15,25.22-25.57,52.21-21.4,82.86,2.9,21.36,9.23,41.79,15.47,62.27.14.47.56.87.43.67,2.39-2.04,4.68-4.14,7.12-6.05,2.34-1.82,2.75-3.87,1.4-6.43-.39-.74-.61-1.58-.87-2.39-12.61-38-8.49-75.18,5.51-111.86.66-1.73,1.83-3.07,3.85-2.49,2.16.62,2.34,2.41,2.02,4.36-1.11,6.8-2.24,13.59-3.27,20.4-4.29,28.52-3.26,56.82,3.74,84.85.74,2.98,1.13,3.2,3.73,1.52,2.85-1.84,5.6-3.87,8.52-5.58,2.38-1.39,2.91-2.98,2.02-5.61-8.88-26.05-8.46-52.08.47-78.03.75-2.17,1.18-5.2,4.41-4.39,3.21.81,2.22,3.69,1.81,5.96-4.28,23.82-3.11,47.35,3.7,70.59.9,3.07,1.12,3.19,4.09,1.71,2.53-1.26,5-2.7,7.64-3.7,2.73-1.04,3.09-2.6,2.5-5.28-2.53-11.58-3.66-23.29-2.75-35.15.97-12.66,5.7-23.75,13.94-33.37,1.3-1.52,2.76-2.85,4.84-1.67,2.05,1.17,1.74,3.1,1.11,5.01-.8,2.42-1.53,4.86-2.35,7.27-5.8,17.19-6.79,34.71-3.68,52.53.61,3.52.85,3.65,4.17,2.15,3.18-1.44,6.38-2.84,9.58-4.23,3.81-1.66,3.82-1.64,2.78-5.6-5.87-22.41.45-40.72,18.9-54.78,1.66-1.27,3.44-2.41,5.28-.59,1.71,1.69.68,3.45-.37,5.12-2.61,4.15-5.34,8.24-7.72,12.52-6.08,10.91-7.83,22.71-6.77,35.04.22,2.54,1.15,2.93,3.47,2.07,4.69-1.73,9.43-3.35,14.24-4.7,2.4-.67,3.11-1.72,2.86-4.18-.89-8.99.41-17.7,4.14-25.98,3.44-7.63,8.68-13.65,16.13-17.62,1.95-1.04,4.06-2.23,5.9-.09,1.74,2.02.35,3.87-.88,5.6-1.09,1.54-2.21,3.06-3.23,4.65-5.89,9.15-10.13,18.96-11.52,29.85-.52,4.1-.24,4.33,3.68,3.58,4.73-.9,9.45-1.86,14.2-2.56,2.3-.34,3.44-1.41,4.09-3.59,2.68-9.04,5.52-18.04,8.24-27.08,1.41-4.7,2.67-9.44,4.04-14.15.54-1.87,1.59-3.37,3.8-3.01,2.04.33,2.56,2,2.67,3.82.03.47.03.94.05,1.41.56,12.9-1.42,25.39-5.87,37.5-1.13,3.09-.98,3.27,2.16,3.23,2.83-.04,5.67-.22,8.49-.06,2.5.14,3.73-.87,4.56-3.18,2.79-7.82,5.99-15.5,8.56-23.38,1.41-4.33,4.57-3.66,7.67-3.78,2.72-.11,3.41,1.98,4.15,3.92,2.93,7.77,5.86,15.53,8.68,23.34.78,2.16,1.93,3.21,4.34,3.08,2.91-.16,5.85.03,8.77.05,3,.02,3.21-.23,2.17-3.06-4.42-12.01-6.47-24.41-6.02-37.21.08-2.31-.41-5.2,2.82-5.65,3.25-.45,3.53,2.48,4.2,4.69,3.96,13.09,7.95,26.18,11.8,39.31.72,2.45,2.01,3.53,4.52,3.82,3.55.42,7.07,1.19,10.59,1.84,2.19.41,4.37.87,7.19,1.44-.25-2.68-.3-4.81-.66-6.89-2.07-12.09-7.45-22.68-14.75-32.4-1.19-1.59-2.12-3.31-.57-5.12,1.53-1.79,3.39-1.21,5.16-.31,5.14,2.6,9.51,6.14,12.83,10.87,7,9.95,9.3,21.12,8.24,33.06-.22,2.46.46,3.53,2.85,4.21,4.72,1.33,9.34,2.99,13.98,4.56,3.27,1.11,3.42,1.01,3.75-2.47,1.36-14.14-1.77-27.18-9.41-39.15-1.88-2.94-4.02-5.74-5.62-8.82-.57-1.11-.38-3.28.38-4.2.56-.67,3.03-.64,3.96.04,10.56,7.63,18.46,17.19,21.17,30.34,1.8,8.71,1.05,17.29-1.43,25.74-.7,2.41-.12,3.65,2.2,4.56,3.77,1.48,7.47,3.17,11.15,4.88,1.89.88,3,.74,3.34-1.59,1.44-9.73,2.44-19.47,1.56-29.32-.96-10.81-4.09-21.09-7.55-31.29-.64-1.9-1.01-3.82,1.04-5.02,2.07-1.21,3.55.09,4.85,1.61,7.65,8.89,12.47,19.05,13.79,30.78,1.44,12.9.15,25.63-2.55,38.24-.48,2.25-.02,3.56,2.09,4.51,2.93,1.31,5.8,2.74,8.62,4.27,1.93,1.05,3,.68,3.45-1.47,1.83-8.96,4.1-17.85,5.4-26.89,2.18-15.18.72-30.31-1.86-45.35-.35-2.06-.51-4.22,2.03-4.86,2.37-.6,3.29,1.22,3.97,3.12,6.53,18.35,9.19,37.2,6.33,56.53-1.15,7.8-3.52,15.42-5.42,23.1-.43,1.73-.9,3.27.99,4.49,3.41,2.19,6.79,4.44,10.15,6.71,1.77,1.19,2.69.77,3.13-1.31,2.96-14.04,5.87-28.08,6.3-42.5.61-20.48-1.69-40.69-5.39-60.79-.25-1.39-.69-2.86-.44-4.18.19-.99,1.18-2.24,2.09-2.56.77-.27,2.09.44,2.91,1.05.61.45.88,1.42,1.18,2.21,14.26,37.71,18.17,75.78,4.05,114.51-.37,1.02-.45,2.85.16,3.39,2.95,2.62,6.18,4.93,9.31,7.35ZM337.86,615.03c1.06-7.33,2.17-14.2,3-21.12.36-3.04.87-4.27,4.7-4.41,10-.35,19.51,1.24,28.87,4.51,10.33,3.6,20.66,7.18,31,10.74,4.1,1.41,6.01,4.87,4.93,9.49-1.18,5.05-2.42,10.09-3.87,15.07-.63,2.13-.13,2.96,1.9,3.75,5,1.95,9.95,4.04,14.78,6.38,3.63,1.76,3.97,1.9,4.05-2.25.22-10.65.24-21.32.17-31.97-.14-20.66-2.82-41-7.5-61.12-4.17-17.91-7.95-35.91-11.92-53.87-1.65-7.46-3.38-14.9-5.01-22.36-4.38-19.99-8.69-40-13.17-59.97-.36-1.6-1.42-3.35-2.68-4.41-12.27-10.41-25.99-17.98-41.44-23.01-23.67-7.7-46.47-4.94-68.72,4.24-8.61,3.55-16.22,9.52-24.25,14.43-5.34,3.27-9.1,7.56-8.86,14.32.01.37-.12.74-.21,1.11-4.2,18.58-8.49,37.15-12.58,55.76-4.56,20.73-8.97,41.48-13.41,62.24-2.57,11.99-5.42,23.93-7.5,36-3.74,21.68-2.9,43.63-2.99,65.51,0,1.6.22,3.2.39,4.79.19,1.87,1.02,2.05,2.68,1.27,5.28-2.47,10.59-4.91,16-7.09,2.1-.84,2.38-1.78,1.8-3.81-1.43-5.08-2.71-10.21-3.86-15.36-.98-4.38.89-7.72,4.75-9.06,9.89-3.42,19.83-6.69,29.65-10.3,11.05-4.06,22.35-5.86,34.32-4.73,1.23,8.27,2.49,16.68,3.76,25.26,13.87-3.59,27.38-3.52,41.23-.02ZM260.49,217.3c1.83,4.05,3.52,7.51,4.98,11.06,10.11,24.61,11.18,50.22,8.39,76.26-.26,2.43-1.44,3.98-3.63,4.94-2.85,1.25-5.68,2.55-8.48,3.89-11.57,5.51-23.61,10.18-34.01,17.87-7.05,5.21-13.82,10.8-20.79,16.11-3.22,2.45-6.52,4.84-10,6.88-3.22,1.88-6.2.83-8.02-2.13-2.93-4.73-5.85-9.46-8.94-14.08-7.5-11.21-13.45-23.18-17.51-36.02-3.22-10.16-5.99-20.46-8.98-30.69-.25-.85-.66-1.66-1.15-2.87-2.53,1.67-4.66,3.19-6.91,4.51-1.73,1.01-2.34,2.22-1.77,4.2,2.85,9.87,5.14,19.93,8.52,29.62,8.72,25.01,22.1,47.52,38.36,68.3,9.47,12.1,19.46,23.79,29.24,35.65.34.41.85.67,1.34,1.05.36-.34.67-.56.89-.85,7.36-9.65,16.15-17.85,26.76-23.61,18-9.78,36.3-19.19,56.88-22.27,6.99-1.04,14.36-1.31,21.33-.33,10.52,1.48,20.88,4.22,30.6,8.88,7.82,3.76,15.86,7.08,23.51,11.17,5.62,3,11.11,6.49,16.01,10.54,5.91,4.87,11.15,10.57,16.85,16.07-.01,0,.49-.26.82-.67,9.84-11.93,19.95-23.66,29.43-35.86,21.5-27.66,37.68-58.01,45.42-92.47,2.14-9.54,3.3-6.7-5.41-12.79-1.83-1.28-2.58-.62-3.12,1.33-2.41,8.63-4.94,17.23-7.4,25.84-4.45,15.56-11.3,29.97-20.55,43.25-2.47,3.55-4.84,7.21-6.97,10.98-2.43,4.29-5.28,5.41-9.48,2.78-3.67-2.29-7.23-4.83-10.53-7.61-12.96-10.93-26.51-20.89-42.23-27.62-6.59-2.82-13.01-6.01-19.54-8.97-2.27-1.03-3.66-2.53-3.75-5.13-.35-9.99-1.08-19.97-1.05-29.96.07-19.78,5.11-38.4,14.12-55.97.15-.29.07-.7.13-1.37-37.81-8.88-75.46-8.88-113.35.07ZM154.89,527.23c5.61-2.08,10.68-4.08,15.82-5.85,10.16-3.48,20.75-4.7,31.39-5.48,2.42-.18,3.44-1.21,3.92-3.52,1.64-7.94,3.24-15.9,5.22-23.75,5.48-21.76,11.15-43.47,16.74-65.2.24-.93.38-1.89.65-3.22-.86.28-1.23.33-1.53.51-6.21,3.75-8.15,3.77-13.32-1.44-8.9-8.96-17.6-18.12-26.23-27.34-1.76-1.89-3.04-2.13-4.91-.5-2.97,2.6-6.29,4.87-8.96,7.75-9.05,9.76-17.2,20.23-24.56,31.35-3.2,4.83-3.85,8.9-1.97,14.73,7.27,22.66,9.6,46.06,8.33,69.82-.21,3.93-.38,7.87-.58,12.13ZM479.43,527.29c0-1.47.05-2.65,0-3.82-.7-13.01-1.3-26.02.2-39.02,1.75-15.21,3.93-30.32,9.39-44.76.4-1.07-.08-2.79-.71-3.89-7.85-13.77-17.62-26.1-28.48-37.58-2.57-2.71-5.78-4.82-8.69-7.21-1.35-1.11-2.38-.92-3.61.4-6.94,7.46-13.93,14.88-20.97,22.23-2.54,2.65-5.19,5.22-7.99,7.61-3.21,2.74-6.39,2.75-9.87.44-.7-.47-1.45-.87-2.93-1.75.51,2.15.79,3.41,1.1,4.67,6.95,28.02,13.87,56.04,20.88,84.04,1.98,7.9-.06,6.98,8.82,7.64,14.29,1.06,27.9,4.45,40.93,10.36.49.22,1.02.35,1.92.65ZM205.6,760.88l.76.39c.77-.63,1.55-1.25,2.31-1.88,14.59-12.04,30.77-20.54,50.05-21.53,7.8-.4,15.65-.01,23.47-.02,5.56,0,11.11-.2,16.67-.08,4.4.1,8.8.62,13.2.81,3.36.15,6.74.2,10.1.09,4.96-.17,9.92-.66,14.88-.79,4.42-.12,8.86.15,13.28.1,5.75-.07,11.5-.3,17.25-.44,22.68-.55,41.92,7.94,58.89,22.41.63.54,1.38.93,2.64,1.77-.18-1.71-.2-2.64-.39-3.53-2.61-12.56-5.47-25.07-7.79-37.69-1.16-6.31-4.74-10.39-9.63-13.96-11.02-8.04-22.03-9.9-34.38-2.3-7.33,4.52-15.58,7.59-23.55,11.02-11.73,5.05-23.13,4.33-34.1-2.49-.99-.62-3.04-.62-4.03,0-11.17,6.98-22.77,7.54-34.62,2.27-9.38-4.17-18.61-8.7-27.87-13.17-6.06-2.92-12.39-4.14-18.55-1.13-5.37,2.62-10.48,5.94-15.26,9.54-2.05,1.55-3.7,4.42-4.3,6.98-3.15,13.6-5.92,27.28-8.8,40.94-.19.88-.19,1.81-.27,2.71ZM40.83,269.93c1.93-1.08,2.93-1.57,3.87-2.18,14.37-9.28,29.23-17.63,45.03-24.23,3.3-1.38,6.66-2.69,10.11-3.57,2.36-.6,2.67-1.59,2.29-3.76-1.7-9.66-3.4-19.32-4.82-29.02-4.44-30.22-1.61-59.3,13.99-86.27,1.07-1.85.52-2.88-1.2-3.45-4.8-1.6-9.55-3.64-14.5-4.47-5.64-.95-11.48-.61-17.2-1.15-2.88-.27-4.44.68-5.79,3.2-6.5,12.14-10.68,25.12-14.7,38.22-10.86,35.3-17.22,71.28-17.09,108.3,0,2.5,0,5.01,0,8.38ZM593.31,269.89c.15-2.43.42-4.1.33-5.74-.85-15.82-.99-31.73-2.84-47.43-2.98-25.17-9.5-49.67-17.45-73.7-3.27-9.89-8.04-19.28-12.12-28.91-.76-1.79-2.01-2.45-4.01-2.31-4.89.35-9.8.47-14.7.69-5.92.26-11.55,1.67-16.89,4.28-3.51,1.71-3.52,1.79-1.69,5.18,9.94,18.35,15.27,37.83,15.14,58.82-.11,18.7-3.01,37.02-6.62,55.27-.46,2.3-.15,3.46,2.38,3.95,2.38.47,4.73,1.33,6.97,2.31,13.5,5.87,26.89,11.96,39.22,20.13,3.76,2.49,7.7,4.69,12.28,7.46ZM147.33,839.24c1.06-1.31,1.59-1.9,2.05-2.53,2.71-3.74,5.46-7.46,8.09-11.26,6.75-9.75,15.9-16.82,25.79-22.98,2.32-1.44,3.16-2.79,3.31-5.45,1.77-31.17,6.24-61.95,14.93-91.95,5.01-17.28,11.33-34.18,17.05-51.26.36-1.06.58-2.17.86-3.26-1.54.22-2.45.84-3.41,1.39-2.2,1.27-4.33,2.71-6.66,3.71-5.41,2.32-10.5.55-13.15-4.7-1.13-2.23-1.7-4.78-2.24-7.24-.41-1.86-1.12-2.39-2.91-1.68-8.46,3.35-16.61,7.24-23.36,13.51-.81.76-1.35,2.25-1.34,3.39.17,13.29.71,26.58.67,39.87-.03,11.4-2.3,22.47-6.09,33.25-.99,2.81-1.5,5.84-1.9,8.81-2.25,16.72-4.04,33.52-6.69,50.18-2.33,14.64-4.7,29.23-5.01,44.08-.02,1.07,0,2.15,0,4.12ZM486.97,839.21c.18-1.11.31-1.47.29-1.81-.53-8-.63-16.05-1.71-23.98-2.37-17.47-5.44-34.85-7.84-52.31-1.86-13.52-2.32-27.26-7.37-40.19-.41-1.04-.52-2.2-.73-3.31-3.58-19.2-2.36-38.53-1.42-57.83.1-2.12-.36-3.49-1.96-4.87-6.02-5.18-12.96-8.72-20.17-11.83q-4.7-2.03-5.84,2.99c-.1.46-.22.92-.34,1.37-2.36,8.41-8.84,11.31-16.58,7.35-1.84-.94-3.55-2.14-5.33-3.21-.76-.46-1.54-.88-3.05-1.75.42,1.67.57,2.56.86,3.39,1.31,3.84,2.57,7.69,4.01,11.48,16.44,43.27,26.14,87.96,28.33,134.25.04.91.84,2.11,1.64,2.59,11.1,6.69,21.01,14.67,28.42,25.47,2.71,3.95,5.59,7.78,8.79,12.2ZM135.55,436.57c.81-1.23,1.12-1.71,1.44-2.17,4.31-6.3,8.76-12.5,12.89-18.92,7.59-11.8,16.43-22.35,28.46-29.87,2.14-1.34,1.94-2.42.51-4.21-18.04-22.69-32.41-47.48-42.53-74.68-.69-1.85-1.61-2.32-3.41-1.54-16.18,6.99-30.72,16.47-43.52,28.6-1.36,1.29-1.7,2.58-.97,4.28,4.38,10.11,8.65,20.27,13.14,30.33,2.69,6.02,5.75,11.88,8.56,17.85,4.78,10.15,9.31,20.43,14.3,30.48,3.21,6.48,7.06,12.64,11.13,19.84ZM498.82,436.17c1.08-1.69,1.86-2.75,2.48-3.9,5.09-9.46,10.42-18.82,15.16-28.45,5.62-11.41,10.32-23.29,16.19-34.57,5.25-10.09,9.52-20.51,13.37-31.16.63-1.73.44-3.01-.93-4.3-12.81-12.12-27.32-21.61-43.51-28.59-1.87-.81-2.75-.2-3.34,1.62-.75,2.33-1.6,4.64-2.56,6.89-10.28,24.16-23.18,46.79-39.63,67.32-2.29,2.86-2.33,3,.83,5.06,10.38,6.76,18.59,15.61,25.33,25.91,3.92,6,7.8,12.03,11.79,17.98,1.34,2,2.96,3.82,4.81,6.17ZM154.97,652.93c1.18-.69,1.59-.9,1.96-1.16,10.32-7.01,20.7-13.9,33.36-16.01,1.94-.32,2.24-1.46,2.1-3.26-1.7-21.92.03-43.74,2.97-65.42,1.82-13.43,4.91-26.7,7.41-40.04.21-1.14.25-2.32.38-3.55-.76-.06-1.14-.18-1.49-.11-11.74,2.31-23.57,4.3-34.7,9-2.58,1.09-5.29,1.92-4.03,5.69.11.32-.08.74-.15,1.11-1.7,8.89-3.26,17.81-5.13,26.66-4.96,23.52-5.91,47.3-4.79,71.2.24,5.12,1.33,10.21,2.11,15.89ZM479.23,652.53c.27-1.1.58-1.97.68-2.88.73-6.46,1.84-12.91,2.03-19.39.75-24.91-1.32-49.58-6.91-73.92-1.29-5.6-3.2-11.32-3.03-16.93.18-5.91-3.38-6.99-7.23-8.02-10.55-2.84-21.19-5.35-31.8-7.96-.4-.1-.87.12-1.56.23.15,1.26.25,2.36.42,3.45,3.43,21.4,9.09,42.43,9.87,64.28.49,13.76,1.94,27.49.45,41.26-.25,2.31.85,3,2.79,3.3,7.11,1.1,13.53,4.04,19.65,7.67,4.77,2.83,9.47,5.77,14.62,8.91ZM129.66,282.21c-4.4,2.24-8.07,1.9-10.65-1.91-2.79-4.12-5.73-8.27-7.7-12.8-2.7-6.2-4.6-12.75-6.74-19.19-.47-1.41-.74-2.54-2.61-1.84-6.88,2.57-13.94,4.74-20.64,7.72-11.16,4.97-21.4,11.52-30.97,19.15-2.22,1.77-3.97,3.07-1.69,5.91.38.47.41,1.24.54,1.89,4.09,19.27,12.83,36.38,24.36,52.17.57.79,1.29,1.47,1.51,1.71,5.21-4.99,9.84-10.12,15.17-14.38,12.38-9.88,25.96-17.81,40.9-23.29.68-.25,1.66-1.33,1.56-1.84-.86-4.32-1.93-8.6-3.04-13.32ZM558.65,335.58c.65-.49.9-.63,1.08-.83.38-.42.75-.85,1.07-1.31,9.78-13.87,18.41-28.3,22.51-45.01.87-3.56,1.83-7.13,3.17-10.53.61-1.55.6-2.22-.68-3.24-15.27-12.14-31.85-21.84-50.71-27.33-4.88-1.42-4.23-2.12-5.66,3.13-2.83,10.44-6.66,20.42-13.32,29.13-3,3.93-5.26,4.74-9.98,3.17-.34-.11-.72-.1-1.3-.18-.95,3.99-1.8,7.93-2.86,11.8-.53,1.95.21,2.61,1.92,3.28,9.78,3.79,19.24,8.22,27.95,14.14,9.91,6.74,19.97,13.28,26.78,23.77ZM77.66,103.75c1.45,0,2.34.01,3.24,0,3.86-.05,7.73-.27,11.59-.14,7.72.26,14.92,2.36,21.11,7.08,2.23,1.7,3.29,1.35,4.86-.82,7.91-10.96,16.66-21.13,27.25-29.69,13.82-11.18,28.51-21.03,43.9-29.88,1.59-.91,3.11-1.93,4.98-3.1-1-.83-1.51-1.36-2.11-1.75-11.21-7.11-23.39-11.74-36.41-14.14-1.35-.25-2.87-.22-4.18.15-5.22,1.45-10.07,3.67-14.27,7.22-3.31,2.8-6.67,5.55-10.15,8.14-19.7,14.68-35.45,32.89-48.12,53.85-.51.85-.95,1.74-1.7,3.1ZM440.35,46.7c.27.51.33.85.53.98,2.46,1.57,4.91,3.17,7.43,4.64,26.27,15.44,51,32.68,68.53,58.36,1.3,1.9,2.39,1.14,3.71.17,5.44-4.01,11.55-6.46,18.27-6.94,4.87-.34,9.79-.13,14.68-.16.95,0,1.91,0,3.01,0-.19-.79-.21-1.09-.33-1.33-.3-.59-.65-1.15-.98-1.72-15.41-26.57-37.36-46.88-61.94-64.66-1.06-.77-2.23-1.46-3.44-1.94-3.91-1.53-7.64-3.68-12.18-2.75-12.21,2.51-23.72,6.79-34.39,13.27-1.01.62-1.94,1.38-2.9,2.07ZM230.32,659.91c.22.19.45.39.67.58.89-.45,1.81-.87,2.68-1.37,8.05-4.65,16.47-8.35,25.66-10.15,18.21-3.57,36.38-2.96,54.56.23,1.74.31,3.57.44,5.32.24,5.24-.6,10.45-1.59,15.7-2.09,23.55-2.26,46.37-.37,67.15,12.43.51.31,1.15.42,1.96.71,0-.73.1-1.2-.02-1.61-1.53-5.45-2.99-10.92-4.72-16.3-.33-1.03-1.63-2.1-2.72-2.49-5.23-1.88-10.49-3.71-15.84-5.22-17.77-5.02-35.6-9.86-53.38-14.86-2.76-.78-5.39-1.46-8.29-.66-1.22.34-2.62-.05-3.92.03-2.66.17-5.43.04-7.96.73-8.18,2.23-16.24,4.89-24.4,7.18-13.34,3.74-26.7,7.43-40.1,10.93-5.03,1.31-8.5,3.62-8.82,9.27-.07,1.28-.69,2.54-1.06,3.81-.82,2.87-1.65,5.74-2.47,8.6ZM247.46,269.15c.16-.05.33-.1.49-.15-.05-.69-.09-1.39-.16-2.08-1.56-13.7-6.21-26.17-14.51-37.26-2.35-3.13-2.35-3.26-5.96-1.74-16.11,6.79-31.58,14.83-46.74,23.51-2.44,1.39-3.4,3.02-2.91,5.7,2.31,12.7,4.09,25.53,7.06,38.08,2.81,11.9,8.49,22.75,15.01,33.11,1.48,2.35,2.75,2.62,4.87,1.02,1.27-.96,2.72-1.72,4.18-2.37,13.68-6.12,27.39-12.19,41.07-18.33.92-.41,2.37-1.3,2.34-1.9-.26-4.83-.82-9.64-1.28-14.46-.99,1.17-1.36,2.39-1.75,3.6-4.25,12.97-16.83,21.96-29.84,21.33-14.47-.7-26.31-9.98-29.02-23.82-3.03-15.44-.86-30.47,6.13-44.6,4.19-8.47,11.78-11.22,20.74-10.75,2.79.15,5.37,1.01,6.65,3.99.26.61,1.01,1.18,1.66,1.41,10.18,3.74,15.95,11.62,20.01,21.13.65,1.52,1.31,3.04,1.96,4.57ZM384.18,292.43c-.2.02-.39.03-.59.05-.43,3.97-.7,7.97-1.35,11.9-.42,2.54.46,3.52,2.75,4.53,14.9,6.61,29.74,13.36,44.52,20.23,3.44,1.6,3.31,1.89,5.42-1.29,14.49-21.83,19.25-46.64,21.87-72.07.13-1.22-1.01-3.04-2.1-3.83-2.51-1.81-5.29-3.29-8.07-4.66-13.35-6.61-26.73-13.13-40.1-19.69-1.64-.8-3.08-1.17-4.42.72-6.98,9.88-12.77,20.27-14.37,32.53-.36,2.73-.93,5.43-1.4,8.15,1.35-1.43,2.04-3.04,2.74-4.65,4.07-9.39,9.8-17.2,19.88-20.89.58-.21,1.31-.64,1.53-1.16,1.69-3.96,5.18-4.4,8.73-4.36,10.05.1,16.94,4.95,20.65,14.28,4.36,10.96,6.02,22.39,5.43,34.1-.43,8.41-2.65,16.44-9.32,22.09-21.86,18.54-45.44,5.47-51.04-13.76-.22-.75-.5-1.48-.76-2.23ZM132.16,445.86c-.46-.8-.72-1.28-1.01-1.74-3.55-5.65-7.48-11.11-10.58-17-5.45-10.34-10.38-20.94-15.54-31.42-.6-1.23-1-2.91-2.98-2.01-3.42,1.54-7.07,2.76-10.14,4.83-4.72,3.19-6.59,8.16-5.19,12.42,4.98,15.05,10.45,29.9,18.01,43.89.5.93,1.1,1.8,1.79,2.92,6.87-8.06,16.15-9.96,25.63-11.88ZM502.53,445.92c9.39,1.82,18.7,3.85,25.38,11.72.52-.75.88-1.18,1.14-1.67,7.99-14.51,13.78-29.94,18.76-45.68.54-1.7.24-4.03-.49-5.71-2.9-6.73-9-9.27-15.54-10.99-.49-.13-1.51.59-1.84,1.17-1.07,1.88-1.92,3.88-2.89,5.82-7.48,15.09-13.74,30.85-24.26,44.27-.16.2-.14.53-.27,1.07ZM100.42,386.82c-2.71-5.62-5.27-10.65-7.59-15.8-3.03-6.7-6.15-13.37-8.7-20.25-2.24-6.04-1.92-6.16-8.07-5.51-.09.01-.19.03-.28.03-6.57-.01-11.59,3.51-16.34,7.42-2.63,2.17-2.8,4.49-1.46,7.64,1.14,2.69,2.21,5.41,3.22,8.15,3.99,10.82,8.2,21.52,15.27,30.81.59.78,1.26,1.51,2.25,2.7,4.23-9.63,12.33-13.13,21.7-15.19ZM534.07,386.81c9.39,2.07,17.5,5.67,21.75,15.25,1.07-1.38,1.81-2.11,2.3-2.98,3.78-6.83,7.78-13.55,11.16-20.57,2.61-5.42,4.29-11.27,6.61-16.84,2.17-5.23,1.68-7.44-2.95-10.78-5.23-3.78-11.05-5.75-17.5-6.34-2.77-.25-3.6.97-4.38,3.12-2.16,5.91-4.22,11.88-6.74,17.64-3.1,7.07-6.63,13.95-10.25,21.5ZM141.52,605.15c.12-1.54.2-2.65.3-3.76.58-6.38.77-12.83,1.83-19.13,1.85-11.06,4.26-22.02,6.37-33.04.2-1.05.4-2.46-.11-3.23-2.25-3.42-4.8-3.93-8.46-1.9-6.64,3.67-11.64,9.22-16.52,14.86-.69.8-1.02,2.02-1.23,3.09-2.72,14.48-4.22,29.1-4.72,43.83-.03.78.1,1.57.18,2.85,7.13-4.05,14.41-4.82,22.36-3.57ZM492.93,605.25c8.04-1.5,15.27-.43,22.33,3.35.09-1.12.25-1.84.19-2.54-1.07-11.72-2.58-23.43-3.13-35.17-.44-9.58-5.24-16.17-12.26-21.74-2.28-1.81-4.71-3.43-7.12-5.07-.69-.47-1.51-.78-2.32-1.02-3.1-.91-6.89,2.49-6.29,5.66.92,4.91,2.04,9.78,2.85,14.71,1.81,11.05,3.53,22.12,5.18,33.19.4,2.68.37,5.42.56,8.63ZM144.89,495.18c1.06-7.92-3.77-39.74-6.7-44.98-3.72,1.25-7.58,2.21-11.14,3.84-4.26,1.95-8.28,4.44-12.37,6.75-1.97,1.11-2.46,2.73-2.05,5.02,1.1,6.12,1.94,12.28,2.89,18.43.82,5.28,1.65,10.56,2.56,16.38,8.38-5.43,17.22-7.21,26.81-5.43ZM496.2,450.27c-3.58,7.11-8.26,40.98-6.11,44.83,9.3-1.68,18.02.2,26.29,5.46.25-1.46.42-2.37.56-3.28,1.59-10.34,3.05-20.69,4.83-30.99.48-2.79-.28-4.36-2.45-5.91-7-5.04-15.01-7.66-23.12-10.1ZM185.88,810.11c-.61.18-1.01.2-1.29.39-10.44,7.19-18.24,16.82-25.08,27.32-.32.49-.06,1.9.41,2.29,5.61,4.56,8.26,10.88,10.56,17.42.39,1.09.79,2.18,1.34,3.69,5.71-5.55,12.39-7.59,19.5-8.64.83-.12,1.63-.46,2.42-.76,2.21-.83,2.94-2.11,2.1-4.59-2.6-7.74-3.87-15.73-3.66-23.92.04-1.64-.2-2.84-1.95-3.6-2.7-1.18-3.62-3.68-4.05-6.4-.15-1-.2-2.01-.32-3.18ZM449.41,809.72c-.64.74-.73.8-.75.88-.08.36-.2.73-.21,1.1-.14,3.72-1.29,6.75-4.95,8.54-.74.36-1.04,2.01-1.2,3.11-1.07,7.33-1.74,14.74-3.16,22.01-1.03,5.31-.85,6.21,4.61,7.36.92.19,1.86.32,2.78.49,5.47,1.02,10.48,3.02,14.71,6.75.38.34.87.54,1.27.78.29-.31.48-.43.54-.59.33-.88.62-1.78.94-2.66,2.34-6.52,4.96-12.83,10.54-17.42.48-.4.53-2.11.1-2.72-3.56-4.98-6.93-10.16-11.05-14.65-4.29-4.66-9.35-8.62-14.18-12.98ZM145.68,658.38c-1.05-4.23-2.35-8.65-3.23-13.17-2.03-10.35-2-20.82-1.35-31.29.13-2.15-.53-2.84-2.66-2.71-5.21.32-9.94,1.9-14.36,4.66-2.49,1.55-3.56,3.44-3.49,6.48.42,16.46,3.93,32.34,8.63,48.02.13.42.44.78.69,1.21,2.4-2.58,4.5-5.3,7.06-7.45,2.56-2.15,5.59-3.72,8.72-5.75ZM489.17,658.65c2.69,1.73,5.73,3.3,8.29,5.44,2.6,2.18,4.73,4.92,7.36,7.74,1.07-3.76,2.08-7.08,2.96-10.43,3.45-13.08,5.93-26.31,6.07-39.9.02-2.21-.72-3.72-2.53-4.97-4.62-3.21-9.68-4.95-15.29-5.31-2.15-.14-2.71.54-2.68,2.69.09,7.54.45,15.13-.26,22.6-.71,7.45-2.57,14.8-3.92,22.15ZM585.76,307.02c-4.66,12.38-12.12,22.48-19.94,32.59,8.29,2.7,15.34,6.62,20.09,14.13,8.22-7.76,14.93-16.17,19.98-25.85.33-.63.09-1.85-.31-2.54-3.76-6.31-9.81-10.49-14.8-15.66-1.16-1.2-3.08-1.67-5.01-2.66ZM48.83,307.3c-4.07,1.01-6.88,3.25-9.19,6.23-.69.89-1.28,2.04-2.2,2.53-3.78,2-5.71,5.63-8.22,8.77-1.03,1.28-1.08,2.35-.29,3.82,4.81,8.85,10.99,16.64,18.12,23.7.43.43,1,.72,1.73,1.23,4.59-7.57,11.8-11.25,19.83-14.03-7.85-10.12-15.24-20.19-19.78-32.24ZM514.43,550.07c.1-.52.31-1.14.32-1.75.18-11.78.38-23.56.43-35.34,0-1.04-.71-2.44-1.54-3.06-6.29-4.7-13.31-7.74-21.12-8.94-2.55-.39-3.31.43-3.11,3.02.57,7.61,1.49,15.26,1.18,22.85-.26,6.36,1.36,9.98,7.61,12.61,5.77,2.43,10.69,6.88,16.24,10.61ZM120.01,550.84c6.92-6.19,14.07-10.97,22.03-14.55.81-.37,1.46-1.95,1.52-3,.57-9.79.92-19.59,1.53-29.37.17-2.75-.88-3.28-3.25-2.91-7.81,1.21-14.83,4.27-21.1,9-.82.61-1.44,2.04-1.44,3.1.03,11.31.19,22.63.34,33.94.01,1.09.21,2.17.38,3.8ZM151.01,720.6c.09-.42.36-1.22.42-2.04,1.12-14.94,2.24-29.87,3.29-44.81.13-1.86.32-3.94-.39-5.53-.37-.82-2.66-.77-4.08-1.11-.09-.02-.19-.05-.26-.1-1.93-1.36-3.63-.6-5.1.75-3.05,2.8-6.11,5.61-8.94,8.62-.85.9-1.31,2.54-1.29,3.82.17,8.39.5,16.77.84,25.15.17,4.05.42,8.1.82,12.13.07.72,1.02,1.86,1.67,1.94,4.16.52,8.34.79,13.02,1.19ZM483.49,720.85c3.91-.53,7.45-1.5,10.93-1.33,3.15.16,3.92-.9,4-3.66.28-9.79,0-19.67,1.25-29.34.95-7.33-1.7-12.02-6.94-16.21-2.9-2.33-5.21-4.86-9.88-3.14-2.66.98-3.38,1.73-3.22,4.2.97,14.47,1.86,28.94,2.86,43.4.15,2.11.68,4.2,1,6.08ZM11.17,285.88c5.91-4.8,12.67-6.52,19.37-8.4,1.77-.5,1.76-1.8,1.7-3.36-.26-6.87-.51-13.75-.5-20.62,0-4.71.45-9.42.69-14.12.06-1.24.24-2.51-1.59-2.7-6.09-.63-11.92.03-16.93,3.84-1.09.83-2.09,2.36-2.27,3.68-1.79,13.58-2.7,27.2-.46,41.67ZM623.22,285.76c.22-.92.33-1.28.38-1.64,1.87-13.39,1.05-26.74-.8-40.04-.2-1.44-1.53-3.06-2.78-3.96-4.58-3.28-9.89-3.86-15.38-3.59-2.32.11-2.65,1.15-2.61,3.24.18,11.49.28,22.98.18,34.47-.02,2.21.76,3.14,2.62,3.59,6.45,1.53,12.7,3.54,18.4,7.93ZM16.25,185.19c7.4-2.64,14.3-3.88,21.45-3.6.61.02,1.63-1.16,1.84-1.96,3.23-12.01,6.32-24.05,9.55-36.06.55-2.03-.02-2.94-1.99-2.89-4.03.1-8.06.3-12.08.51-3.48.18-5.73,1.94-6.83,5.3-3.33,10.2-6.76,20.36-10.06,30.57-.77,2.39-1.15,4.9-1.89,8.13ZM618.16,185.12c-.58-2.64-.83-4.59-1.43-6.44-3.61-11.1-7.23-22.19-11.05-33.22-.49-1.4-2.01-3.25-3.27-3.44-4.98-.77-10.05-1.01-15.1-1.33-1.78-.11-2.45.74-1.93,2.69,3.25,12.11,6.38,24.25,9.65,36.35.21.77,1.28,1.89,1.92,1.86,7.07-.29,13.87,1,21.22,3.52ZM371.27,73.5c-1.06-2.73-2.09-5.25-3.01-7.8-.64-1.78-1.61-2.05-3.48-1.62-4.49,1.02-9.04,2.18-13.61,2.38-13.05.59-26.12.86-39.18,1.02-6.88.09-13.79.01-20.63-.56-7.39-.62-14.71-1.97-22.08-2.87-.86-.11-2.34.39-2.66,1.04-1.31,2.66-2.29,5.49-3.38,8.26,6.22,2.42,100.01,2.55,108.03.16ZM431.62,843.41c1.6-8.13,3.08-15.86,2.75-23.8-.03-.73-1.09-1.73-1.9-2.05-9.36-3.74-18.75-7.38-28.15-11.02-1.09-.42-2.24-.7-3.48-1.09-.22.77-.46,1.2-.45,1.63.21,7.75.07,15.44-2.11,22.99-.17.6,1.08,2.24,1.85,2.38,2.57.47,5.22.59,7.84.65,8.37.18,15.66,2.93,21.7,8.81.45.44,1,.78,1.94,1.49ZM202.94,843.9c8.08-9.02,17.72-11.27,28.32-10.88.92.03,1.87-.17,2.79-.35,1.91-.37,2.43-1.32,2.14-3.41-.9-6.5-1.47-13.04-2.11-19.57-.13-1.27-.02-2.56-.02-4.29-1.41.39-2.3.56-3.14.89-9.75,3.76-19.51,7.49-29.19,11.41-.87.35-1.76,2.01-1.71,3.03.2,4.51.64,9.01,1.18,13.49.36,2.94,1.04,5.85,1.74,9.68ZM36.98,190.64c-4.26-.6-10.82.79-17.92,3.57-1.81.71-2.65,1.75-2.9,3.68-1.3,9.91-2.72,19.8-4.07,29.7-.15,1.08-.16,2.17-.26,3.74,6.9-3.06,13.68-3.26,20.11-2.4,1.71-12.96,3.37-25.54,5.05-38.29ZM597.47,190.14c1.74,13.26,3.4,25.9,5.1,38.81,6.55-.94,13.3-.58,20.07,2.34-.1-1.47-.11-2.39-.23-3.3-1-7.66-1.92-15.34-3.06-22.98-1.64-10.99-1.7-11.04-12.73-13.54-2.97-.67-6.04-.89-9.16-1.33ZM68.27,97.19c-2.06-.41-3.69-.83-5.35-1.04-7.91-.98-14.59.69-18.42,8.58-4.15,8.54-8.38,17.04-12.55,25.57-.31.63-.38,1.36-.66,2.43,1.45-.17,2.55-.45,3.63-.4,4.75.25,9.54.31,14.22,1.04,2.15.33,2.93.2,3.64-1.89,3.8-11.16,8.18-22.07,14.46-32.12.34-.54.55-1.16,1.02-2.19ZM566.53,97.28c.06.54.02.76.11.91,6.63,10.73,11.4,22.31,15.45,34.21.5,1.47,1.32,1.55,2.6,1.08,5-1.85,10.16-1.83,15.36-1.1.95.13,1.92.19,3.52.35-5.18-12.13-9.7-23.82-17.87-33.58-.69-.83-1.7-1.62-2.71-1.93-5.44-1.68-10.9-1.79-16.45.05ZM71.58,91.54c8.6-10.73,17.02-21.25,25.65-32.02-1.74-.68-3.51-1.79-5.39-2.01-3.63-.44-7.31-.37-10.97-.53-3.69-.16-6.61,1.21-8.65,4.31-5.65,8.57-11.29,17.14-16.92,25.72-.07.11.04.35.12.81,5.97-.94,11.58.04,16.17,3.73ZM579.11,87.79c.14-.24.29-.49.43-.73-4.46-6.96-8.71-14.06-13.43-20.84-6.55-9.41-8.73-10.35-20.07-9.27-3.07.29-6.04,1.53-8.98,2.31,8.88,11.08,17.32,21.6,25.92,32.33,4.57-3.92,10.17-4.6,16.13-3.81ZM550.39,48.17c-.16-.62-.15-.84-.25-.97-6.38-7.77-13.77-14.45-21.87-20.37-.73-.53-1.76-1.01-2.61-.94-7.95.64-15.9,1.41-23.84,2.16-.09,0-.15.29-.19.37,10.28,8.82,20.53,17.61,30.94,26.54,4.7-5.03,10.96-6.44,17.83-6.79ZM133.2,28.13c-1.18-.3-2.13-.66-3.1-.76-5.43-.58-10.88-1.06-16.31-1.64-4.18-.45-7.75.58-10.82,3.62-1.93,1.91-4.39,3.29-6.35,5.18-4.36,4.21-8.55,8.59-12.82,12.9.1.27.2.54.3.81,6.86.16,13.16,1.71,17.78,6.75,10.5-9.01,20.76-17.81,31.32-26.87ZM142.82,885.36c2.88-3.23,4.97-6.6,7.96-8.63,3.49-2.37,7.72-3.73,11.75-5.22,1.93-.71,2.23-1.34,1.43-3.22-1.62-3.8-2.92-7.73-4.37-11.6-.69-1.85-1.28-3.76-2.17-5.52-1.78-3.55-5.79-3.95-8.39-1.09-2.13,2.34-4.55,4.41-6.7,6.73-2.42,2.61-4.87,5.22-6.92,8.12-.79,1.12-1.14,3.3-.6,4.5,2.44,5.38,5.27,10.59,8,15.94ZM491.15,885.33c.35-.38.67-.6.83-.91,2.55-4.83,5.25-9.59,7.48-14.57.61-1.36.41-3.86-.48-4.99-2.77-3.5-6.06-6.6-9.16-9.84-1.09-1.14-2.42-2.11-3.32-3.38-1.37-1.92-2.72-3.7-5.39-3.41-2.73.3-3.96,2.2-4.8,4.57-1.76,4.96-3.51,9.92-5.44,14.82-1.26,3.21-1.43,3.31,2.04,4.08,7.6,1.68,13.46,5.66,17.27,12.53.21.39.59.68.96,1.11ZM326.5,809.94c11.54-1.68,22.01-.35,32.47,4.55,1.01-4.47,2.11-8.53,2.83-12.67.95-5.49.82-5.52-4.64-6.42-9.29-1.52-18.57-3.05-27.87-4.54-1.12-.18-2.73-.83-2.76,1.19-.09,5.81-.03,11.62-.03,17.89ZM307.98,809.91c0-6.15.06-11.88-.1-17.6-.02-.52-1.56-1.54-2.26-1.43-10.43,1.58-20.84,3.28-31.23,5.07-.77.13-1.96,1.23-1.95,1.86.08,5.66,1.38,11.08,3.48,16.49,10.22-4.77,20.64-5.99,32.06-4.4ZM142.21,772.79c.06-.16.27-.58.34-1.03,2.2-13.68,4.36-27.37,6.59-41.05.27-1.66-.45-2.35-1.88-2.42-2.81-.14-5.62-.18-8.43-.22-1.72-.03-2.44.96-2.73,2.59-1.67,9.18-3.5,18.34-5.08,27.53-.73,4.23-1.03,8.54-1.52,12.72,4.45.66,8.49,1.26,12.72,1.88ZM504.85,770.91c-.07-1.01-.07-2.12-.25-3.21-1.77-10.87-3.46-21.76-5.41-32.6-1.35-7.49-2.63-8.22-10.32-7.13-.37.05-.74.16-1.11.19-2,.17-2.69,1.07-2.34,3.18,1.99,12.08,3.85,24.19,5.78,36.28.29,1.83.66,3.64.95,5.19,4.27-.64,8.22-1.23,12.7-1.91ZM612.23,317.59c2.8-6.95,5.36-13.38,7.98-19.78.88-2.15.27-3.65-1.69-4.69-5.32-2.82-10.64-5.63-15.98-8.4-.46-.24-1.1-.27-1.64-.23q-6.74.47-9.37,6.83c-1.04,2.52-2.06,5.06-3.04,7.61-.25.65-.32,1.36-.5,2.15,12.01-.73,16.78,8.87,24.23,16.5ZM46.87,301.2c-1.74-4.36-3.22-8.22-4.82-12.02-.75-1.77-.75-4.23-3.82-4.06-2.12.12-4.6-1-6.33-.24-5.5,2.43-10.72,5.48-16.05,8.3-1.87.99-2.48,2.41-1.62,4.44,2.58,6.07,5.12,12.16,7.69,18.23.18.43.42.84.8,1.6,1.45-1.8,2.37-3.08,3.44-4.24,5.51-6,10.38-13.08,20.72-12.02ZM268.06,820.95c-3.09-7.39-5.01-14.44-5-21.91,0-.47-1.49-1.47-2.1-1.34-6.16,1.35-12.3,2.81-18.39,4.44-.68.18-1.57,1.66-1.46,2.4,1.07,6.89,2.33,13.75,3.57,20.61.12.69.47,1.33.88,2.45,6.77-4.59,14.23-5.98,22.5-6.64ZM389.01,827.67c.38-1.05.6-1.46.68-1.91,1.27-7.13,2.58-14.26,3.69-21.42.11-.69-.89-2.1-1.61-2.3-5.9-1.58-11.86-2.96-17.8-4.38-1.97-.47-2.51.38-2.73,2.35-.5,4.56-1.24,9.11-2.16,13.61-.48,2.35-1.53,4.58-2.51,7.37,8.03.6,15.58,1.95,22.43,6.67ZM377.2,72.97c15.01-5.35,27.53-14.72,40.12-24.66-2.79-2.17-5.01-3.73-7.03-5.53-1.36-1.21-2.46-1.33-4-.34-3.48,2.25-7.01,4.44-10.61,6.48-6.31,3.57-12.73,6.96-19.03,10.57-.82.47-1.75,1.82-1.64,2.62.47,3.4,1.32,6.75,2.18,10.86ZM217.17,48.38c12.79,9.72,25.15,19.34,40.15,24.51.74-3.72,1.19-6.95,2.07-10.07.49-1.73.13-2.49-1.37-3.33-10.08-5.68-20.09-11.48-30.17-17.16-.72-.41-2.12-.47-2.76-.03-2.48,1.68-4.77,3.63-7.91,6.08ZM373.65,304.3c.86-9.06,1.59-17.95,2.57-26.82,1.83-16.59,5.03-32.81,13.53-47.51,1.04-1.79,2.05-3.6,3.12-5.38.78-1.29.48-2.12-.94-2.58-.9-.29-1.81-.54-2.68-.91-1.99-.84-3.16-.2-3.91,1.8-.86,2.29-1.91,4.51-2.92,6.75-1.62,3.58-3.92,7-4.81,10.75-4.63,19.6-6.08,39.64-7.49,59.67-.25,3.54.03,3.76,3.52,4.22ZM260.09,304.33c4.05-.35,4.64-.8,4.31-4.12-1.61-15.95-3.18-31.9-5.08-47.81-.62-5.21-1.79-10.45-3.51-15.4-1.69-4.85-4.48-9.31-6.63-14.02-.86-1.9-1.87-2.72-3.91-1.82-.86.38-1.78.63-2.67.93-1.46.47-1.65,1.34-.9,2.59,1.02,1.7,2,3.42,2.96,5.15,12.37,22.36,14.29,46.98,15.54,71.75.05.9-.07,1.82-.11,2.76ZM442.18,337.59c5.25-8.06,10.55-15.69,14-24.46,6.12-15.59,10.31-31.73,14.23-47.96.15-.64.29-1.3.28-1.95-.01-1.44-2.97-4.42-4.15-3.87-.85.4-1.38,1.94-1.64,3.07-2.07,9-3.97,18.05-6.06,27.05-3.57,15.36-10.29,29.32-19.33,42.16-1.64,2.33-1.36,3.57.88,4.84.48.27.94.59,1.78,1.13ZM192.19,337.34c4.74-2.16,4.8-2.5,2.12-6.44-8.82-12.99-15.46-26.98-18.95-42.36-2.04-9.01-3.93-18.06-5.91-27.08-.17-.77-.49-1.5-.74-2.25-4.43,1.55-5.35,2.64-4.61,5.75,3.88,16.44,8.17,32.75,14.37,48.51,3.41,8.67,8.7,16.2,13.72,23.88ZM496.81,812.92c0,1.93-.05,3.13,0,4.33.48,9.79,1.07,19.58,1.45,29.37.18,4.5,1.18,6.22,5.58,8.08.07-.06.17-.11.2-.19,4.32-11.91,5.31-24.24,4.54-36.78-.03-.56-.45-1.44-.88-1.57-3.45-1.11-6.94-2.08-10.9-3.24ZM129.99,854.71c.49.16.99.32,1.48.48,1.6-2.02,4.4-3.94,4.59-6.08.92-10.7,1.16-21.46,1.62-32.2.05-1.09,0-2.19,0-3.96-3.58,1.01-6.61,1.92-9.68,2.69-1.7.42-2.28,1.41-2.22,3.05.21,6.12-.04,12.3.66,18.36.69,5.94,2.32,11.78,3.54,17.66ZM496.35,806.43c3.85,0,7.21.09,10.57-.07.68-.03,1.92-1.01,1.89-1.49-.47-8.08-1.06-16.15-1.76-24.21-.05-.56-1.15-1.48-1.75-1.46-3.1.08-6.19.47-9.28.62-1.99.09-2.9.7-2.51,2.93.58,3.34.88,6.73,1.28,10.09.53,4.47,1.03,8.95,1.56,13.59ZM127.99,779.25c-.06.06-.29.19-.3.34-.69,8.5-1.39,17.01-1.96,25.52-.03.41,1.04,1.29,1.59,1.29,3.52-.03,7.04-.25,10.71-.41.02-.05.2-.29.23-.56.92-7.75,1.78-15.51,2.75-23.26.25-1.98-.89-2.21-2.31-2.3-3.46-.21-6.92-.41-10.71-.63ZM467.65,24.84c-2.54-5.2-2.94-5.44-8.21-4.6-1.95.31-3.94.6-5.8,1.24-7.47,2.59-14.91,5.28-22.33,8.03-3.06,1.13-6.04,2.5-9.31,3.86,2.85,2.43,5.36,4.67,8.01,6.73.44.34,1.63.15,2.22-.2,10.41-6.26,21.56-10.76,33.16-14.22.7-.21,1.36-.5,2.25-.83ZM212.52,33.36c-5.18-2.13-9.94-4.37-14.9-6.05-7.65-2.59-15.36-5.08-23.19-7.07-4.69-1.19-5.75-.13-7.38,4.63.3.16.6.4.93.5,12.08,3.5,23.69,8.11,34.48,14.68.51.31,1.59.4,2,.08,2.63-2.07,5.16-4.29,8.07-6.76ZM517.04,18.6c.12-.32.24-.64.36-.95-1.96-1.36-3.98-2.66-5.88-4.11-1.92-1.47-3.91-1.92-6.33-1.53-7.8,1.27-15.63,2.34-23.44,3.55-1.71.27-3.39.8-5.16,1.23.24.45.29.72.42.76,4.9,1.61,9.79,3.22,14.71,4.76.46.14,1.07-.2,1.61-.32,4.91-1.13,9.78-2.48,14.74-3.29,2.91-.48,5.97-.09,8.96-.09ZM117.16,17.69c.06.27.13.54.19.81.98,0,1.97-.08,2.94.01,5.59.57,11.56.15,16.67,2.06,5.06,1.89,9.24,1.05,13.79-.32,1.62-.49,3.22-1.04,4.79-1.66.82-.33,1.55-.88,2.9-1.66-1.66-.43-2.63-.77-3.63-.92-8.36-1.33-16.74-2.49-25.07-3.97-5.76-1.03-8.65,3.25-12.58,5.65ZM323.49,196.6c-2.09-7.14-4.09-14.01-6.26-21.43-2.17,7.44-4.18,14.36-6.24,21.43h12.5ZM419.29,257.91c-.44-1.52-.72-3.12-1.41-4.51-.26-.53-1.75-1.08-2.17-.81-2.8,1.76-4.94,4.23-5.08,7.66-.05,1.09,1.03,2.69,2.05,3.28,3.47,2.03,6.41-.61,6.61-5.61ZM214.9,257.71c.45,5.17,3.32,7.72,6.89,5.9,2.68-1.37,2.99-4.4.35-7.71-1.18-1.48-3.09-2.38-4.67-3.55-.86,1.79-1.71,3.57-2.57,5.36ZM315.87,802.34c.06,0,.13,0,.19,0,0,3.85-.05,7.7.06,11.55.02.6.79,1.17,1.21,1.76.36-.56,1.03-1.11,1.04-1.67.13-7.51.2-15.03.15-22.54,0-.74-.89-1.48-1.37-2.22-.42.8-1.18,1.6-1.22,2.42-.14,3.57-.06,7.14-.06,10.71Z" style="fill: #000; stroke-width: 0px;"/>
  <path d="M380.84,470.13c-1.53-.37-2.37-.53-3.17-.78-18.51-5.9-37.08-11.63-55.47-17.87-3.6-1.22-6.23-1.24-9.85-.02-18.4,6.24-36.96,11.96-55.48,17.85-.8.26-1.74.69-2.46.49-1.15-.33-2.74-.9-3.1-1.79-.36-.89.5-2.32.96-3.46.15-.36.73-.57,1.14-.8,15.39-8.54,31.31-15.83,48.35-20.44,3.17-.86,6.57-1.99,9.69-1.6,3.97.5,7.71.38,11.66.01,3.42-.32,7.08.87,10.51,1.82,16.64,4.61,32.22,11.75,47.26,20.14,1.57.88,3.06,2.03,2.37,3.97-.39,1.09-1.74,1.82-2.43,2.49Z" style="fill: #000; stroke-width: 0px;"/>
  <path d="M317.28,392.64c7.08.46,13.58,2.61,19.73,5.45,9.15,4.22,18.04,8.99,27.02,13.58,1.77.91,3.34,2.25,2.24,4.48-1.07,2.18-3.06,1.75-4.95,1.11-13.2-4.51-26.42-8.99-39.6-13.57-2.99-1.04-5.77-1.1-8.79-.05-12.91,4.5-25.87,8.86-38.81,13.25-2.11.72-4.62,2.06-5.94-.8-1.32-2.88,1.33-3.91,3.27-5.01,10.75-6.12,21.59-12.07,33.49-15.69,4.02-1.22,8.23-1.85,12.35-2.74Z" style="fill: #000; stroke-width: 0px;"/>
  <path d="M313.51,463.16c6.48-.59,12.6.75,18.44,3.31,8.7,3.82,17.33,7.82,25.97,11.79,1.8.83,3.39,2.11,2.54,4.39-.85,2.26-2.84,2.15-4.79,1.66-12.54-3.17-24.84-7.02-36.62-12.44-1.01-.46-2.6-.46-3.6,0-11.77,5.44-24.08,9.26-36.62,12.43-1.94.49-3.96.63-4.83-1.59-.89-2.24.71-3.47,2.47-4.43,10.62-5.79,21.6-10.73,33.22-14.17,1.26-.37,2.55-.63,3.82-.95Z" style="fill: #000; stroke-width: 0px;"/>
  <path d="M328.32,559.69c.55.1,1.3.18,2.03.37,21.1,5.46,41.2,13.34,59.85,24.74,1.93,1.18,3.74,2.55,5.56,3.88,1.7,1.24,3.66,2.62,2.3,5.05-1.38,2.45-3.52,1.42-5.47.57-6.99-3.06-13.91-6.3-21-9.11-13.83-5.49-27.76-10.73-41.65-16.08-1.32-.51-2.68-.93-3.93-1.58-1.92-1.01-3.05-2.61-2.46-4.87.6-2.28,2.4-2.97,4.77-2.96Z" style="fill: #000; stroke-width: 0px;"/>
  <path d="M311.04,563.58c-.15,2.7-1.9,3.83-4.05,4.63-8.75,3.23-17.58,6.28-26.22,9.77-12.93,5.22-25.73,10.76-38.58,16.17-.35.15-.68.31-1.03.46-1.76.76-3.59,1.16-4.77-.78-1.18-1.95-.05-3.49,1.54-4.55,4.39-2.93,8.68-6.04,13.3-8.55,16.55-9,33.98-15.83,52.24-20.48,1.26-.32,2.61-.55,3.9-.45,2.27.18,3.53,1.57,3.69,3.79Z" style="fill: #000; stroke-width: 0px;"/>
  <path d="M309.11,538.74c1.26,1.08,3.21,1.96,3.58,3.29.38,1.36-.38,3.5-1.38,4.68-1.08,1.27-2.93,2.04-4.59,2.63-11.27,3.99-22.56,7.89-33.86,11.78-1.71.59-3.48.59-4.44-1.28-.97-1.89.03-3.33,1.62-4.26,11.67-6.79,23.68-12.81,36.9-16.05.55-.13,1.11-.18,1.67-.26.16-.18.33-.36.49-.53Z" style="fill: #000; stroke-width: 0px;"/>
  <path d="M325.64,538.75c5.43,1.8,10.34,2.99,14.87,5.02,7.82,3.5,15.42,7.5,23.09,11.34,1.87.94,3.54,2.3,2.43,4.67-1.03,2.2-3.06,1.83-4.94,1.19-10.88-3.75-21.76-7.48-32.6-11.32-1.84-.65-3.62-1.64-5.23-2.76-1.68-1.16-2.66-3.1-1.54-4.92.86-1.39,2.64-2.21,3.92-3.21Z" style="fill: #000; stroke-width: 0px;"/>
  <path d="M271.9,517.23c-.37.04-.75.09-1.12.12-1.91.17-3.82-.02-4.24-2.26-.47-2.44,1.39-3.34,3.34-3.71,10.36-1.97,20.73-3.88,31.09-5.8,2.41-.44,4.83-.78,7.24-1.22,3.16-.58,5.42.46,5.92,2.79.49,2.29-1.1,4.6-4.15,5.09-8.46,1.36-16.95,2.51-25.44,3.65-4.2.56-8.43.91-12.64,1.36,0,0,0-.02,0-.02Z" style="fill: #000; stroke-width: 0px;"/>
  <path d="M364.87,517.84c-13.84-1.88-26.89-3.65-39.94-5.43-.46-.06-.92-.21-1.36-.37-2.39-.87-3.72-2.93-3.22-4.95.51-2.05,2.56-3.24,5.16-2.84,6.79,1.04,13.58,2.02,20.34,3.24,6.02,1.09,11.98,2.46,17.96,3.71.46.1.92.21,1.37.34,1.67.5,3.26,1.51,2.64,3.33-.43,1.26-2.05,2.11-2.96,2.97Z" style="fill: #000; stroke-width: 0px;"/>
  <path d="M309.63,416.49c2.57.07,4.62.92,5.13,3.59.54,2.79-1.06,4.58-3.5,5.39-7.23,2.41-14.51,4.69-21.8,6.93-2.88.89-5.79,1.81-8.75,2.17-1.22.15-3.18-.84-3.76-1.89-.41-.75.55-3.07,1.53-3.65,9.17-5.45,18.63-10.31,29.27-12.3.65-.12,1.31-.17,1.88-.24Z" style="fill: #000; stroke-width: 0px;"/>
  <path d="M325.37,416.43c2.07.49,4.88.75,7.34,1.81,7.67,3.3,15.23,6.86,22.79,10.41,1.74.82,2.94,2.28,2.05,4.35-.82,1.9-2.58,2.11-4.33,1.58-10-2.99-20-5.98-29.95-9.11-2.42-.76-4.07-2.55-3.56-5.35.49-2.68,2.58-3.48,5.66-3.69Z" style="fill: #000; stroke-width: 0px;"/>
  <path d="M344.93,500.69c-2.09-.5-3.67-.77-5.19-1.25-5.27-1.69-10.58-3.29-15.76-5.25-3.25-1.23-4.46-3.95-3.49-6.44.97-2.48,3.75-3.68,6.95-2.23,6.23,2.83,12.33,5.96,18.34,9.24.97.53,1.66,2.48,1.57,3.71-.06.86-1.68,1.6-2.42,2.23Z" style="fill: #000; stroke-width: 0px;"/>
  <path d="M314.25,490.53c-.66.72-1.63,2.7-3.11,3.24-6.79,2.44-13.71,4.58-20.65,6.54-.93.26-3.07-.85-3.3-1.7-.3-1.09.39-3.25,1.3-3.74,6.28-3.38,12.62-6.68,19.16-9.51,3.51-1.52,6.74.85,6.6,5.17Z" style="fill: #000; stroke-width: 0px;"/>
  <path d="M325.46,524.01c6.71.58,13.21,1.91,19.22,5.12,1.75.94,3.42,2.06,2.73,4.33-.74,2.44-2.84,2.39-4.9,2.04-6.03-1-12.06-2.02-18.09-2.99-3.47-.56-5.33-2.35-5.02-4.91.31-2.56,2.48-3.84,6.06-3.58Z" style="fill: #000; stroke-width: 0px;"/>
  <path d="M309.88,523.95c2.95-.04,4.97,1.36,5.25,3.65.29,2.38-1.45,4.3-4.5,4.82-6.22,1.05-12.45,2.06-18.68,3.09-2.08.34-4.16.39-4.91-2.05-.7-2.29.98-3.39,2.73-4.32,6.29-3.34,13.09-4.65,20.1-5.18Z" style="fill: #000; stroke-width: 0px;"/>
</svg>