<?xml version="1.0" encoding="UTF-8"?>
<svg id="Layer_1" data-name="Layer 1" xmlns="http://www.w3.org/2000/svg" viewBox="0 0 814.23 900">
  <path d="M153.59,229.29c-3.92,2.9-7.06,5.12-10.07,7.49-11.49,9.03-23.55,17.04-37.1,22.79-17.53,7.43-34.29,6.41-51.07-2.53-22.49-11.98-38.38-29.44-46.62-53.65-9.72-28.53-12.81-57.24-1.46-86.09,8.16-20.74,21.32-37.92,38.55-51.93,23.66-19.24,50.89-30.03,81.12-33.27,20.46-2.19,38.45,3.57,54.07,17.12,6.31,5.48,12.86,10.86,19.94,15.25,21.81,13.55,44.61,15.32,67.42,2.82,13.58-7.43,26.36-16.3,39.7-24.19,5.92-3.5,10.22-7.79,13.67-13.98,3.8-6.83,9.28-12.9,14.79-18.55C343.53,3.41,352.62.03,362.66,0c7.84-.02,15.69.68,23.53.84,5.42.11,10.84-.16,16.26-.22,3.12-.03,6.25-.02,9.37.02,5.32.07,10.64.29,15.96.24,9.62-.08,19.25-.76,28.84-.34,7.62.33,14.26,3.98,20.03,8.97,7.78,6.73,13.92,14.71,18.5,23.97,1.13,2.29,3.13,4.47,5.27,5.88,11.39,7.46,22.91,14.74,34.48,21.91,10.01,6.21,20.39,11.75,32.25,13.5,19.7,2.91,37.06-2.95,52.71-14.67,4.11-3.07,8.18-6.23,11.97-9.68,17.49-15.99,38.04-21.3,61.14-17.7,32.22,5.02,60.92,17.61,84.36,40.68,32.46,31.96,43.81,70.17,32.82,114.68-3.85,15.61-9.46,30.45-19.53,43.2-11.47,14.52-26.3,24.48-43.59,30.78-12.68,4.62-25.13,2.87-37.44-1.86-15.07-5.78-28.05-14.92-40.61-24.79-2.45-1.93-5.02-3.71-7.97-5.87-.56,1.71-1.12,2.91-1.33,4.18-2.31,13.45-2.41,26.9.22,40.32,1.64,8.37,5.38,15.78,10.15,22.8,7.78,11.44,18.01,20.66,27.29,30.75,11.06,12.02,22.15,24.04,32.8,36.42,13.3,15.45,21.1,33.19,20.15,54.01-.87,18.99-6.9,35.87-21.88,48.34-12.57,10.47-27.41,15.66-43.8,14.93-11.28-.5-19.72-6.94-26.69-15.42-.73-.89-1.44-1.79-2.18-2.67-.06-.07-.19-.09-.75-.33-.34.89-.79,1.73-1,2.64-3.44,14.58-9.16,28.33-18.6,39.86-13.08,15.97-15.36,34-12.47,53.31,2.08,13.87,5.23,27.58,7.36,41.45,2.55,16.64,3.32,33.38-.24,50.03-3.63,16.96-10.76,32.19-23.22,44.49-9.06,8.94-20.06,13.56-32.93,13.03-12.85-.52-22.68-6.26-28.87-17.61-2.14-3.93-3.52-8.27-5.23-12.43-.41-1-.77-2.03-1.42-3.77-.75,1.4-1.23,2.05-1.47,2.78-6.33,18.88-15.28,36.49-25.76,53.38-16.84,27.14-21.91,56.72-17.74,88.1,1.48,11.15,2.04,22.3,1.06,33.54-1.22,13.86-7.42,24.63-18.99,32.4-8.93,5.99-18.29,11.05-28.62,14.15-9.22,2.77-17.83,2.17-26.63-2.65-8.49-4.66-18-4.49-26.58.22-7.67,4.21-15.38,5.28-23.62,3.1-13.37-3.53-25.32-9.92-36.02-18.62-9.39-7.64-13.22-18-14.24-29.74-1.1-12.73.58-25.27,1.83-37.9,2.74-27.58-1.69-53.94-15.79-78.14-8.71-14.94-17.74-29.69-23.94-45.93-1.61-4.21-3.12-8.45-4.7-12.67-.17-.45-.52-.83-1.19-1.86-.62,1.52-1.05,2.49-1.42,3.49-1.06,2.85-1.92,5.78-3.16,8.54-7.66,17.08-23.28,24.79-41.76,20.74-11.6-2.55-20.57-9.13-27.75-18.31-12.78-16.33-18.87-35.11-19.75-55.65-.87-20.26,2.38-40.11,6.73-59.8,2.82-12.77,4.37-25.59,2.93-38.68-.9-8.2-3.57-15.67-8.47-22.36-6.64-9.05-13.03-18.29-17.16-28.82-2.21-5.64-3.88-11.5-5.78-17.26-.32-.96-.58-1.94-1.06-3.58-1.11,1.3-1.84,2.11-2.52,2.95-11.27,14.18-25.67,19.7-43.18,14.37-8.55-2.6-17.32-5.69-24.71-10.53-8.09-5.3-14.22-13.27-18.18-22.44-11.42-26.43-9.1-51.73,7.69-75.01,7.93-11,17.39-20.93,26.51-31.03,9.4-10.42,19.07-20.61,28.9-30.62,19.76-20.12,25.26-44.41,21.47-71.54-.39-2.76-1.01-5.48-1.7-9.21ZM461.53,875.75c.27-.12,1.03-.37,1.69-.76,9.67-5.66,14.93-13.94,15.63-25.28.81-13.27-.69-26.31-2.66-39.4-1.21-8.02-1.99-16.3-1.42-24.36,1.69-23.97,9.54-45.97,22.71-66.15,15.55-23.83,26.81-49.46,32.16-77.61,1.77-9.29,2-18.7,4.92-27.99,4.56-14.47,10.29-28.34,16.46-42.09,4.95-11.04,8.23-22.49,8.06-34.63-.16-11.62-.95-23.23-1.45-34.84-.06-1.36-.42-2.84,0-4.04.4-1.12,1.5-2.39,2.57-2.74.92-.3,2.39.37,3.33,1.03.78.55,1.21,1.67,1.69,2.6,12.38,23.91,14.3,48.56,4.88,73.87-4.09,10.99-8.72,21.79-12.89,32.75-8.14,21.39-9.37,43.25-3.89,65.47.3,1.24.86,2.41,1.29,3.61,1-1.28,1.39-2.47,1.48-3.67.94-12.73,1.84-25.47,2.71-38.21.16-2.37.1-4.94,3.12-5.36,3.01-.42,3.85,2.03,4.48,4.3,1.47,5.35,3.15,10.67,4.18,16.11,2.65,13.98.84,27.33-6.67,39.65-1.09,1.78.04,2.49,1.23,3.21,4.12,2.48,8.64,3.26,13.3,2.45,1.1-.19,2.53-1.6,2.84-2.72,4.48-16.04,7.48-32.34,5.71-49.04-1.27-11.96-3.44-23.83-5.28-35.72-.36-2.35-1.02-4.85,1.75-5.98,2.98-1.23,4.3,1.16,5.57,3.27.11.18.21.36.31.55,13.19,23.08,15.93,47.54,9.6,73.19-.25,1.01-.41,2.04-.62,3.06.31.12.61.25.92.37,1.21-1.64,2.54-3.21,3.61-4.93,13.12-21.23,17.06-44.18,12.07-68.52-3.16-15.44-5.41-30.95-6.4-46.66-1.35-21.48,2.71-41.45,15.95-59.05,6.4-8.51,11.05-18.04,14.36-28.17,3.86-11.82,7.02-23.89,5.59-36.39-1.21-10.54-2.12-20.99-1.23-31.59,1.19-14.26-3.32-26.62-12.95-37.16-1.06-1.16-2.34-2.29-2.88-3.68-.45-1.16-.47-3.14.24-3.92.72-.8,2.57-.72,3.92-.73.62,0,1.26.68,1.87,1.08,15.72,10.13,23.6,24.47,23.32,43.25-.1,6.49-.17,12.99-.08,19.49.18,13.73,4.16,26.21,12.67,37.09,1.5,1.92,3.28,3.61,5.2,5.69.69-1.22,1.12-1.8,1.38-2.44,5.12-12.52,8.04-25.51,6.09-39-1.82-12.63-4.58-25.13-6.94-37.68-.42-2.26-.75-4.61,2.01-5.54,2.54-.85,3.95.97,4.83,2.97,3.46,7.85,7.45,15.54,10.08,23.66,6.8,21.01,5.7,41.52-5.73,60.94-.28.48-.29,1.13-.48,1.97,3.04,0,5.99.6,8.57-.12,5.91-1.65,11.67-3.9,17.45-6.01,4.09-1.49,5.31-4.47,5.85-8.87,2.92-23.85.37-46.83-9.49-68.87-.25-.56-.61-1.28-.46-1.79.37-1.21.73-2.85,1.64-3.36.9-.51,2.57-.11,3.69.39.85.38,1.41,1.49,2.03,2.33,12.45,16.94,17.42,36,16.07,56.84-.07,1.05,0,2.11,0,3.85.77-.95,1.08-1.22,1.25-1.57.61-1.22,1.24-2.43,1.74-3.7,9.38-23.99,5.89-46.23-10.13-66.13-7.66-9.51-16.6-18-24.99-26.92-11.84-12.58-24.73-24.19-34.87-38.31-17.72-24.66-19.77-51.82-12.62-80.36,1.1-4.4,1.47-4.37-2.43-6.45-30.96-16.46-63.32-29.26-97.57-36.99-19.82-4.47-39.85-7-60.19-4.46-14.47,1.8-27.97,6.22-39.56,15.49-2.05,1.64-4.43,2.2-6.6.28-2.26-2-2.3-4.77-.52-6.79,2.94-3.34,5.99-6.91,9.73-9.17,13.25-8.01,27.53-13.56,43.17-14.05,9.7-.3,19.52-.05,29.14,1.13,30.02,3.68,58.73,12.55,86.96,23.13,26.92,10.09,52.52,22.51,74.85,41.07,9.23,7.67,19.87,13.22,31.46,16.72,8.26,2.5,16.5,2.76,24.7-.2,30.13-10.84,44.54-34.52,51.97-63.84.16-.63-.46-1.97-1.02-2.19-1.98-.77-4.1-1.19-6.44-1.81-.68,3.14-1.34,6.3-2.07,9.44-.49,2.13-1.22,4.34-3.96,3.95-2.77-.39-2.84-2.67-2.62-4.88.36-3.65.84-7.29,1.05-10.95.07-1.12-.2-2.76-.95-3.35-2.28-1.76-4.88-3.12-7.81-4.93-.27,1.63-.49,2.71-.61,3.81-.48,4.37-.78,8.78-1.49,13.11-.2,1.2-1.39,2.53-2.5,3.18-.61.36-2.04-.46-3-.96-2.66-1.38-5.27-2.87-8.28-4.52-.3,1.72-.48,2.62-.61,3.53-.8,5.39-1.57,10.78-2.4,16.17-.32,2.08-1.54,3.93-3.71,3.21-1.22-.41-1.93-2.5-2.74-3.9-.22-.38.03-1.02.06-1.55.32-5.12.68-10.25.96-15.37.32-5.79-.27-6.52-6.71-8.38-.18,1.02-.38,1.99-.51,2.97-.6,4.25-1,8.54-1.83,12.75-1.17,5.96-2.6,11.87-4.02,17.77-.48,1.99-1.71,3.53-4.03,3.05-2.13-.44-2.6-2.2-2.52-4.14.03-.73.11-1.46.17-2.19.93-11.38,1.87-22.76,2.78-34.15.28-3.53-.82-4.9-4.6-5.75-.27,1.11-.26,2.43-.89,3.27-.79,1.05-2.26,2.51-3.16,2.34-1.16-.22-2.36-1.73-2.95-2.97-.5-1.03-.23-2.47-.16-3.72.18-3.11.09-5.9-2.96-8.02-1.83-1.28-2.07-4.19.13-4.97,3.47-1.23,3.06-3.61,3.17-6.16.16-3.87.36-7.75.58-11.62.14-2.41.27-4.82.56-7.21.39-3.13,2.52-5.15,5.05-5,2.56.15,4.42,2.33,4.55,5.49.06,1.46-.12,2.93-.15,4.39-.03,1.1,0,2.21,0,3.31.25-.27.51-.55.76-.82,5.83,2.26,11.66,4.51,18.14,7.01,0-6.82.18-13.18-.11-19.52-.08-1.86-1.07-4.06-2.36-5.42-3.53-3.71-7.42-7.08-11.23-10.53-1.73-1.57-3.27-3.28-1.97-5.68,1.37-2.53,3.86-2.48,6.07-1.49,3.14,1.39,6.08,3.22,9.15,4.77,1.37.69,2.85,1.66,4.28,1.65,3.37-.02,4.97,1.64,5.74,4.65.58,2.25,2,3.67,4.61,4.36-.18-3.16-.47-5.96-.46-8.77.01-2.19,1.18-4.19,3.41-4.19,1.58,0,3.39,1.12,4.66,2.24.78.69.88,2.3,1,3.53.42,4.06,1.16,8.16.96,12.21-.3,6.03,4.19,8.29,8.16,12.28,0-1.72.05-2.52,0-3.3-.17-2.4-.76-4.86-.43-7.18.21-1.46,1.56-3.52,2.79-3.86,1.24-.34,3.27.82,4.41,1.89.96.9,1.4,2.59,1.62,4,.79,4.96,1.88,9.94,1.94,14.92.08,6.21,4.78,8.71,8.08,12.63.41-.58.62-.74.62-.91.05-.83.07-1.67.05-2.51-.36-12.32-2.86-24.24-8.41-35.21-22.44-44.31-59.31-67.49-108.07-72.57-16.41-1.71-30.77,3.56-42.8,15.02-3.49,3.32-7.14,6.48-10.85,9.55-18.5,15.27-39.56,22.88-63.69,20.79-13.66-1.18-26-6.57-37.57-13.48-15.73-9.4-31.11-19.39-46.68-29.06-9.83-6.11-20-11.47-31.55-13.64-2.1-.4-3.95-1.41-3.66-3.91.29-2.44,2.27-3.02,4.42-3.12,7.51-.36,14.85.56,22,2.91,1.05.34,2.12.6,3.27.92.03-.58.08-.79.04-.98-.05-.2-.16-.4-.29-.55-6.94-7.75-14.92-13.48-25.92-13.43-8.59.04-17.18.06-25.77-.04-6.52-.08-13.1-.15-18.18-5.67-4.88,5.26-11.08,5.61-17.32,5.66-8.69.07-17.39.09-26.09.02-11.35-.09-19.64,5.64-26.66,13.83-.15.18-.08.55-.16,1.26,1.29-.39,2.36-.69,3.42-1.04,7.15-2.32,14.49-3.3,22-2.9,2.14.11,4.09.72,4.33,3.21.23,2.34-1.47,3.39-3.46,3.76-13.17,2.48-24.4,9.19-35.57,16.11-16.02,9.93-31.75,20.4-48.23,29.51-31.22,17.27-61.63,14.08-90.48-6.09-6.58-4.6-12.44-10.26-18.48-15.6-11.03-9.75-23.96-14.1-38.5-13.18-36.96,2.34-67.74,17.71-92.29,45.26-15.42,17.31-24.78,37.47-26.12,60.93-.09,1.5-.01,3.02-.01,4.52l.9.25c3.07-3.62,7.46-6.02,7.73-11.96.28-5.91,1.58-11.8,2.73-17.63.47-2.4,2.16-4.27,4.98-3.74,2.89.54,3.31,2.86,3.13,5.35-.15,2.09-.4,4.17-.53,6.26-.05.73.14,1.48.25,2.53,4.86-3.64,8.53-7.2,8.08-13.62-.28-3.91.51-7.93,1.06-11.87.44-3.11,2.51-4.8,5.02-4.53,2.48.26,3.93,2.33,3.83,5.58-.04,1.46-.24,2.92-.31,4.39-.05,1.07,0,2.14,0,3.21.36.14.71.29,1.07.43,1.16-1.72,2.64-3.31,3.41-5.19.97-2.33,2.11-3.88,4.82-4.26,1.88-.26,3.72-1.08,5.47-1.87,3.5-1.59,6.84-3.62,10.46-4.84,1.17-.4,3.73.78,4.31,1.92.57,1.12-.14,3.43-1.05,4.65-1.41,1.9-3.31,3.55-5.29,4.89-7.71,5.22-10.69,12.27-9.2,21.48.5,3.11.08,6.38.08,9.91,6.77-1.65,11.79-6.47,18.7-6.12.07-.8.18-1.6.19-2.41.02-2.2-.23-4.42.03-6.58.29-2.41,1.83-4.06,4.38-4.18,2.56-.11,4.07,1.44,4.74,3.79.29.99.38,2.06.44,3.1.36,6.38.62,12.77,1.07,19.14.07,1.05.65,2.52,1.45,2.98,3.64,2.08,3.81,3.89.84,6.97-1.09,1.13-1.71,2.95-1.99,4.55-.36,2.04.16,4.25-.31,6.24-.27,1.16-1.75,2.84-2.67,2.83-1.18-.02-2.56-1.32-3.43-2.41-.68-.86-.71-2.23-1.04-3.43-3.54,1.23-4.77,3.31-4.39,6.82.77,7.08,1.17,14.2,1.74,21.3.36,4.49.76,8.98,1.14,13.47.18,2.22.05,4.47-2.65,4.92-2.71.45-3.5-1.71-4.11-3.82-.06-.2-.11-.4-.15-.61-1.72-9.05-3.45-18.1-5.14-27.15-.3-1.61-.44-3.26-.66-4.91-6.1,1.38-7.19,2.71-6.88,8.18.32,5.65.71,11.29,1.01,16.94.11,2.06-.49,3.95-2.84,4.17-2.33.22-3.31-1.49-3.64-3.53-.55-3.41-1.01-6.84-1.52-10.26-.42-2.85-.85-5.7-1.4-9.36-3.2,1.81-5.95,3.13-8.43,4.85-2.02,1.4-4.13,1.17-5.1-1.15-.39-.94-.48-2.03-.59-3.06-.54-4.84-1.05-9.68-1.63-15.09-2.23,1.3-3.85,2.43-5.62,3.22-2.98,1.32-3.84,3.39-3.26,6.54.57,3.08.68,6.25.98,9.37.21,2.21.15,4.49-2.6,4.9-2.76.41-3.45-1.81-3.96-3.94-.39-1.63-.68-3.28-1.06-4.92-.37-1.58-.79-3.15-1.19-4.73-1.81.68-3.25,1.58-4.74,1.68-2.64.18-2.98,1.44-2.28,3.53,1.95,5.86,3.67,11.82,5.95,17.55,7.51,18.83,19.96,33.21,38.37,42.26,11.53,5.67,23.14,6.68,35.29,2.25,10.64-3.89,20.21-9.59,29.28-16.28,8.01-5.9,15.82-12.16,24.28-17.34,20.57-12.59,43-21.19,65.72-28.99,25.12-8.62,50.7-15.36,77.22-18.24,22.78-2.47,44.35.96,64.18,12.71,4.29,2.55,7.87,6.45,11.38,10.11,1.85,1.93,1.88,4.75-.34,6.8-2.25,2.08-4.72,1.52-6.82-.27-6.68-5.69-14.52-9.14-22.73-11.77-17.55-5.63-35.52-5.38-53.54-3.18-26.71,3.25-52.34,10.74-77.11,20.96-15.18,6.26-29.85,13.76-44.77,20.64-2.42,1.11-2.88,2.48-1.84,4.95,1.05,2.49,1.81,5.16,2.26,7.83,5.04,29.77.74,57.39-20.05,80.58-12.37,13.79-25.7,26.73-38.34,40.28-6.77,7.26-13.69,14.54-19.37,22.63-13.73,19.57-15.25,40.72-6.11,62.71.48,1.15,1.22,2.19,1.83,3.28.55-1.71.62-3.15.54-4.58-1.19-20.43,4.05-39,16.08-55.61.49-.68.89-1.64,1.56-1.92,1.24-.52,2.95-1.22,3.92-.74.96.47,1.52,2.26,1.73,3.56.15.91-.59,1.96-.88,2.96-2.91,9.93-6.33,19.75-8.59,29.83-3.08,13.79-.86,27.76.15,41.65.07.97.91,2.21,1.75,2.75,7.99,5.06,16.54,8.58,26.19,8.66,1.15,0,2.31-.33,3.64-.53-.32-.85-.4-1.27-.61-1.62-11.6-19.74-12.53-40.56-5.54-61.86,2.66-8.11,6.67-15.79,10.17-23.62.84-1.87,2.65-3.28,4.54-2.08,1.15.73,1.58,2.81,1.99,4.38.21.82-.32,1.82-.51,2.75-1.65,8-3.34,16-4.93,24.01-3.38,17.05-2.58,33.78,4.19,49.99.41.99.93,1.94,1.93,4.02,1.68-2.11,2.82-3.58,4-5.03,9.13-11.14,13.53-23.98,13.7-38.3.08-6.49,0-12.99-.08-19.49-.24-18.32,7.1-32.64,22.43-42.79,2.07-1.37,4.3-3.54,6.63-.96,2.35,2.6-.01,4.68-1.68,6.47-10.46,11.21-15.21,24.36-13.8,39.68.87,9.43.28,18.77-1.04,28.16-.71,5.01-.51,10.27.08,15.32,2.19,18.53,8.19,35.82,19.32,50.87,12.86,17.4,17.48,36.85,16.34,58.03-.84,15.72-2.86,31.27-6.15,46.69-5.43,25.44-1.53,49.36,12.71,71.35.8,1.24,1.88,2.29,2.83,3.43.24-.13.49-.27.73-.4-.25-1.18-.47-2.37-.76-3.54-5.49-22.35-3.79-44.08,5.78-65.08,1.52-3.33,3.29-6.57,5.26-9.65,1.77-2.76,5.25-2.59,6.19.19.41,1.2.25,2.69.03,3.99-.98,5.78-2.1,11.54-3.14,17.32-4.08,22.67-2.95,45.08,3.51,67.19.37,1.25,1.7,2.92,2.81,3.13,4.88.92,9.58.05,13.86-2.63,1.43-.9,1.57-1.74.64-3.32-11.16-18.88-8.48-38.2-1.47-57.55.38-1.05,2.55-2.21,3.65-2.02,1.12.2,2.18,1.9,2.85,3.16.44.83.1,2.06.18,3.1.92,12.32,1.84,24.64,2.8,36.95.1,1.29.45,2.55.69,3.83.3.03.59.05.89.08.39-1.1.87-2.18,1.15-3.3,5.34-21.2,4.72-42.2-2.7-62.8-3.98-11.03-8.6-21.83-12.89-32.75-10.2-25.95-9.2-51.4,3.39-76.34.52-1.02.9-2.33,1.75-2.92,1.08-.76,2.71-1.45,3.85-1.18.97.24,1.97,1.79,2.28,2.95.37,1.35.04,2.9-.05,4.37-.44,7.43-.95,14.85-1.34,22.27-.89,16.81,1.49,32.99,8.91,48.31,3.51,7.25,6.93,14.61,9.58,22.21,3.39,9.73,6.43,19.65,8.78,29.68,2.59,11.09,3.61,22.56,6.42,33.59,5.7,22.36,16.55,42.45,28.75,61.89,18.45,29.41,26.82,60.88,19.61,95.66-2.41,11.63-2.59,23.5-1.46,35.37,1.03,10.84,7.14,18.03,16.15,23.25.38.22.91.18,1.94.36-.64-1.5-1.07-2.52-1.52-3.53-6.53-14.67-5.8-29.11,1.34-43.36.96-1.92,2.44-3.73,4.58-2.76,1.36.62,2.53,2.61,2.91,4.2.58,2.41.38,4.99.53,7.5.89,14.67,3.66,28.88,10.14,42.21,2.59,5.33,3.65,5.87,9.5,4.78.92-.17,1.84-.41,2.74-.69,4.72-1.5,4.78-1.56,2.86-5.98-5.19-11.94-4-23.75.81-35.41.5-1.22,2.66-2.75,3.68-2.52,1.31.29,2.42,2.12,3.3,3.5.44.7.11,1.85.26,2.78,1.46,9.62,2.95,19.23,4.4,28.85.37,2.45,1.66,3.32,4.14,3.08,2.38-.23,4.82-.2,7.21,0,2.46.21,3.75-.67,4.11-3.13,1.42-9.73,2.9-19.44,4.34-29.16.17-1.14-.03-2.45.49-3.38.6-1.08,1.74-2.47,2.74-2.55,1.18-.09,2.62.89,3.62,1.77.71.62.92,1.84,1.28,2.82,4.4,11.8,4.86,23.52-.81,35.08-.83,1.69-.62,2.92,1.29,3.35,3.14.71,6.3,1.55,9.49,1.72,1.25.06,3.31-1.26,3.77-2.43,3.17-8.18,6.84-16.3,8.73-24.8,1.98-8.93,2.05-18.28,3.24-27.41.2-1.54,1.53-3.52,2.89-4.2,1.95-.97,3.5.67,4.44,2.48,4.34,8.35,7.08,17.21,5.85,26.62-.9,6.86-3.04,13.56-4.65,20.48ZM730.49,142.7c-.57,4.79-1.19,9.01-1.48,13.24-.05.77,1.08,1.96,1.94,2.35.63.29,2.05-.14,2.52-.73,1.53-1.91,3.25-3,5.68-2.14,2.4.85,3.11,2.9,3.27,5.23.3,4.23,1.72,5.77,7.05,7.05,0-3.87.1-7.6-.08-11.31-.04-.86-.86-1.94-1.63-2.45-5.54-3.7-11.17-7.29-17.28-11.24ZM64.79,167.69c5.32-1.31,6.75-2.83,7.02-7.06.15-2.36.94-4.39,3.31-5.22,2.42-.85,4.18.29,5.66,2.24.42.55,1.72.99,2.26.73.89-.42,2.16-1.5,2.11-2.23-.27-4.32-.88-8.63-1.43-13.48-5.27,3.41-9.98,6.46-14.69,9.52-1.05.68-2.16,1.3-3.12,2.1-.52.43-1.06,1.18-1.08,1.8-.1,3.81-.05,7.63-.05,11.59ZM781.99,161.74c2.28-7.09-.83-13.33-8.36-16.3,0,3.46-.05,6.65.04,9.83.02.64.43,1.5.95,1.85,2.37,1.6,4.85,3.06,7.37,4.62ZM760.18,131.94c-.11,1.14-.27,2.12-.3,3.1-.1,3.46-.16,6.91-.23,10.37-.08,3.91,1.02,5.09,5.25,5.61,2.05-9.43.48-16.27-4.72-19.07ZM40.12,145.18c-8.18,5.7-10.01,9.52-7.93,16.54,2.63-1.63,5.17-3.16,7.63-4.8.42-.28.72-1.09.7-1.65-.07-3.2-.24-6.39-.41-10.09ZM49.28,151.41c5.33-1.94,5.32-1.97,5.25-6.96-.06-4.1-.01-8.2-.01-12.3l-1.32-.39c-1.31,1.63-3.55,3.15-3.74,4.9-.52,4.78-.18,9.65-.18,14.76ZM55.28,161.91c-.29-.17-.58-.34-.88-.51-1.73,1.48-4.58,2.74-4.94,4.5-.77,3.74-.23,7.76-.23,11.66.46.21.92.42,1.38.63,1.87-1.6,5.01-2.99,5.33-4.85.62-3.67-.34-7.6-.65-11.42ZM758.95,161.79c-.26,2.97-.53,5.66-.74,8.35-.38,4.85.99,6.46,6.76,7.35,0-2.77-.04-5.44,0-8.12.1-4.94-.49-5.76-6.03-7.59ZM792.08,162.34c-1.46,5.57.08,8.14,6.45,11.13,2.25-4.93.7-7.67-6.45-11.13ZM15.77,173.47c6.8-3.46,8.06-5.66,6.12-11.41-1.61,1.3-3.11,2.5-4.59,3.71-3.17,2.6-3.4,3.81-1.53,7.69Z" style="fill: #000; stroke-width: 0px;"/>
  <path d="M407.12,529.94c1.42-1.32,2.59-2.7,4.03-3.67,6.13-4.15,12.78-5.38,19.65-2.24,4.46,2.04,8.9,2.57,13.72,2.27,8.18-.51,16.17-1.66,24.15-3.68,15.94-4.03,27.16,1.05,35.54,15.2,8.65,14.61,9.61,29.73,2.52,45.09-2.65,5.74-6.27,11.08-9.78,16.38-2.71,4.09-7.12,4.46-11.55,3.91-3.24-.4-5.39-2.32-6.04-5.55-.66-3.28-1.1-6.6-1.6-9.92-.95-6.34-4.44-10.61-10.58-12.33-3.7-1.04-7.56-1.59-11.38-2.09-2.58-.33-5.23-.2-7.84-.26-8.42-.2-15.58-3.15-20.79-9.94-2.97-3.88-6.54-6.08-11.54-6.62-2.88-.31-5.59-2.98-8.38-2.98-2.78,0-5.51,2.66-8.38,2.94-5.25.52-8.91,2.91-12.04,6.95-4.93,6.36-11.68,9.31-19.65,9.61-2.83.11-5.68-.07-8.47.31-4.13.56-8.3,1.16-12.28,2.34-5.61,1.67-8.84,5.76-9.81,11.55-.43,2.58-.69,5.19-1.12,7.77-.59,3.5-1.39,7.02-5.51,7.93-4.33.96-8.65.94-11.92-2.72-6.48-7.23-10.76-15.72-13.36-25-4.73-16.87-.25-31.7,10.81-44.73,6.4-7.53,14.92-10.08,24.61-8.91,1.87.22,3.78.45,5.55,1.04,8.87,2.97,18.08,3.44,27.28,3.78,2.53.09,5.28-.34,7.63-1.28,11.37-4.54,17.16-3.62,26.53,4.84Z" style="fill: #000; stroke-width: 0px;"/>
  <path d="M340.64,440.94c.94-14.49,4.04-26.39,8.78-37.89.55-1.33,1.28-2.91,2.4-3.58,1.35-.82,3.53-1.5,4.76-.95,1.24.56,2.06,2.63,2.47,4.2.28,1.07-.49,2.4-.77,3.62-2.32,10.09-5,20.12-6.77,30.3-.69,3.94.29,8.32,1.18,12.35.76,3.47,6.13,5.83,9.47,4.62.54-.2.95-1.14,1.16-1.81.33-1.08.1-2.45.69-3.3,3.99-5.79,8.63-10.9,15.87-12.53,6.71-1.51,12.11.77,16.39,6.07,1.3,1.61,2.64,3.35,4.33,4.47,5.55,3.68,11.61,2.59,15.9-2.59.6-.73,1.16-1.49,1.76-2.21,5.3-6.34,12.58-7.92,20.06-4.38,5,2.37,8.46,6.43,11.66,10.74.53.71.93,1.8.82,2.63-.41,3.05,1.23,3.24,3.55,2.97,5.34-.62,7.3-1.87,7.89-7.2.56-5.03.7-10.31-.21-15.25-1.57-8.52-4.11-16.87-6.24-25.29-.23-.91-.9-1.93-.67-2.7.5-1.67,1.06-3.67,2.3-4.68,1.75-1.43,3.81-.47,5.3,1.12.64.67,1.19,1.49,1.55,2.34,5.37,12.63,9.04,25.66,9.03,39.52,0,.94-.15,1.88-.25,2.82-1.64,14.23-8.68,20.14-22.97,19.28q-4.14-.25-4.05,4.02c.42,20.16-14.92,39.56-34.8,42.5-13.37,1.98-24.5-3.69-32.57-14.35-6.69-8.82-11.26-18.68-10.31-30.25.16-1.95-.71-2.18-2.42-2.15-3.44.07-6.92.11-10.31-.35-6.01-.82-10.34-4.24-12.2-10-1.46-4.53-2.15-9.31-2.77-12.11ZM385.79,448.1c-.78,3.4-1.71,7.22-2.54,11.07-2.65,12.26,1.48,22.57,9.77,31.28,7.19,7.56,18.89,8.16,26.75,1.3,8.2-7.16,12.63-16.48,11.89-27.51-.38-5.64-2.05-11.19-3.29-17.57-4.14,4.3-7.3,9.36-13.04,9.98-5.43.58-11.3,1.26-16.37-.2-4.83-1.4-8.88-5.5-13.16-8.34Z" style="fill: #000; stroke-width: 0px;"/>
  <path d="M275.82,245.61c5.8.71,10.94,2.09,15.42,5.63,2.54,2.01,5.23,3.84,7.83,5.78,5.07,3.79,10.46,4.15,16.34,1.99,4.9-1.79,9.88-3.49,14.96-4.63,7.09-1.59,14.18-.97,20.99,1.7,4.89,1.93,9.08,4.78,11.44,9.72,3.58,7.53.53,13.81-7.5,15.77-20.1,4.9-40.22,9.75-60.26,14.9-7.14,1.84-13.57,1.03-18.51-4.37-6.55-7.17-13.91-7.17-21.98-3.78-3.56,1.49-6.92,3.44-10.42,5.07-2.36,1.09-4.73,2.3-7.23,2.89-3.1.73-4.85-1.24-5.1-4.29-1.29-15.16,7.01-25.46,17.63-34.35,3.97-3.32,8.59-6.06,13.29-8.23,4.09-1.88,8.73-2.58,13.12-3.8Z" style="fill: #000; stroke-width: 0px;"/>
  <path d="M476.66,252.87c5.76,1.41,11.54,2.76,17.27,4.26,2.01.53,3.93,1.44,5.89,2.17,5.19,1.92,10.08,1.39,14.62-1.83,2.65-1.88,5.34-3.7,7.87-5.73,7.16-5.74,15.42-7.03,23.73-4.29,17.69,5.83,30.58,17.12,36.03,35.46.98,3.3.45,7.19,0,10.74-.3,2.47-2.69,3.3-4.89,2.63-2.67-.8-5.15-2.22-7.76-3.26-5.6-2.25-11.14-4.68-16.86-6.58-4.41-1.46-8.43-.1-11.81,3.18-1.57,1.53-3.31,2.89-5.04,4.25-4.22,3.32-8.99,4.38-14.2,3.07-8.52-2.16-17-4.45-25.52-6.61-3.55-.9-7.15-1.56-10.71-2.41-4.26-1.03-8.5-2.19-12.76-3.23-3.96-.96-7.93-1.88-11.91-2.74-4.27-.92-8.64-1.77-10.04-6.77-1.45-5.19.04-9.79,3.73-13.57,5.27-5.39,12.09-7.24,19.34-7.89.93-.08,1.88-.01,2.82-.01.06-.28.12-.55.18-.83Z" style="fill: #000; stroke-width: 0px;"/>
  <path d="M233.28,431.43c0-6.05.12-11.17-.09-16.27-.05-1.19-1.02-2.46-1.82-3.49-1.55-1.98-3.37-3.73-4.91-5.71-1.66-2.13-2.38-4.53-.6-6.94,1.72-2.31,4.06-2.24,6.52-1.3.47.18.97.29,1.95.57.22-2.02.43-3.84.61-5.67.37-3.8,2.53-6.14,5.54-5.97,3.15.18,5.02,2.86,4.78,6.85-.22,3.66-.67,7.32-.57,10.97.04,1.57.86,3.44,1.94,4.6,2.32,2.5,5.04,4.64,7.79,7.1.55-.89.94-1.46,1.26-2.07,1.11-2.16,2.76-3.49,5.28-3.08,2.64.42,4,2.3,4.28,4.77.29,2.59-.06,5.28.4,7.83.37,2.03,1.1,4.31,2.44,5.79,5.21,5.74,10.72,11.2,16.13,16.75.85.87,1.75,1.68,3.3,3.17.09-1.95.2-3.02.18-4.08-.1-4.92-.28-9.84-.33-14.77-.02-1.34-.16-3.01.53-3.97,1.06-1.47,2.79-3.36,4.26-3.38,1.65-.02,3.82,1.48,4.87,2.96.98,1.38,1.03,3.59,1.08,5.44.22,8.58.39,17.17.35,25.76-.01,2.71.71,4.76,2.59,6.73,7.25,7.56,14.37,15.25,21.52,22.89.86.92,2.03,1.76,2.4,2.86.41,1.23.63,3.26-.06,3.94-.85.83-2.72.81-4.14.79-.71,0-1.43-.79-2.09-1.3-5.97-4.61-11.92-9.24-17.88-13.86-.79-.62-1.59-1.23-2.95-2.28-.18,1.87-.26,3.06-.42,4.24-.44,3.2-.81,6.42-1.41,9.59-.61,3.21-2.7,4.11-5.52,2.42-2.23-1.33-4.34-2.88-6.86-4.57-.26,1.08-.52,1.81-.59,2.57-.39,3.75-.73,7.51-1.09,11.26-.22,2.31-.68,4.66-3.59,4.63-2.9-.03-3.34-2.46-3.55-4.71-.59-6.26-1.14-12.52-1.66-18.78-.2-2.45-5.36-8.41-7.7-8.66-.53-.06-1.13.37-1.66.64-2.62,1.28-4.97.52-5.1-2.31-.21-4.52-3.02-6.86-6.06-9.32-2.67-2.16-5.23-4.46-8.19-6.99-.21,1.04-.45,1.68-.44,2.32.02,2.41.12,4.82.18,7.23.06,2.21-.12,4.49-2.87,4.78-2.71.29-3.49-1.83-3.83-4.05-.81-5.28-1.4-10.6-2.47-15.83-.41-2-1.51-4.12-2.91-5.59-3.68-3.86-7.71-7.39-11.59-11.06-.61-.57-1.26-1.13-1.75-1.8-1.49-2.01-2.06-4.21-.43-6.37,1.73-2.3,4.16-2.4,6.49-1.21,1.94.99,3.64,2.44,5.43,3.71.82.58,1.61,1.19,3.06,2.26ZM265.98,447.14c-2.27,11.14-.08,17.3,7.28,21.39.26-.25.6-.49.83-.81,1.41-1.96,3.45-3.41,5.58-2.15,1.64.97,2.85,3.08,3.63,4.95.6,1.45.27,3.29.31,4.96.09,3.88,2.37,6.81,6.45,8.03-.26-3.7-.25-7.39-.89-10.95-.37-2.09-1.37-4.41-2.82-5.9-5.76-5.9-11.81-11.52-17.76-17.24-.71-.68-1.48-1.31-2.6-2.28ZM243.77,425.51c0,5-.02,9.73.03,14.47,0,.47.3,1.06.64,1.4,3.53,3.46,7.11,6.89,10.87,10.51,2.22-10.53-2.65-21.72-11.54-26.38Z" style="fill: #000; stroke-width: 0px;"/>
  <path d="M530.77,488.58c-2.48,1.67-4.43,3.04-6.43,4.33-3.47,2.24-5.56,1.47-6.27-2.48-.75-4.17-1.25-8.39-1.92-13.05-1.03.75-1.85,1.32-2.63,1.92-5.97,4.61-11.92,9.23-17.9,13.81-.9.69-1.92,1.53-2.97,1.66-1.1.13-2.68-.16-3.34-.9-.65-.74-.77-2.37-.46-3.41.33-1.11,1.37-2.06,2.23-2.97,7.45-7.94,15.01-15.79,22.31-23.86,1.32-1.46,2.18-3.84,2.26-5.83.36-8.89.19-17.8.53-26.69.23-5.87,2.22-8.37,5.68-8.24,3.48.13,5.12,2.86,5.04,8.64-.06,4.5-.25,9-.37,13.5-.03,1.11,0,2.22,0,4.23,1.37-1.15,2.16-1.7,2.83-2.38,5.71-5.84,11.48-11.63,17.01-17.63,1.22-1.33,1.88-3.41,2.2-5.26.4-2.24.1-4.6.24-6.89.16-2.78,1-5.31,4.07-6,3.1-.7,4.92,1.06,5.99,3.8.14.36.47.64.99,1.32,3.1-2.83,6.18-5.45,8.98-8.34.72-.75.82-2.34.79-3.53-.11-3.66-.42-7.32-.68-10.97-.26-3.75,1.57-6.45,4.58-6.72,3.04-.28,5.27,1.99,5.71,5.77.21,1.84.43,3.68.68,5.82,1.1-.33,1.87-.56,2.63-.79,2.18-.65,4.19-.45,5.7,1.43,1.6,1.99,1.41,4.2.1,6.14-1.4,2.07-3.02,4.04-4.81,5.78-2.05,1.99-2.79,4.22-2.67,7.04.17,4.23.04,8.48.04,13.52,2.12-1.57,3.57-2.68,5.07-3.73,1.11-.78,2.21-1.63,3.43-2.2,2.41-1.12,4.77-1,6.5,1.26,1.65,2.16,1.16,4.47-.47,6.34-1.85,2.12-3.81,4.26-6.08,5.89-7.66,5.48-11.71,12.68-11.67,22.21,0,2.37-.69,4.76-1.17,7.12-.39,1.94-1.48,3.35-3.65,3.13-2.19-.23-2.87-1.88-2.89-3.84-.03-3.29,0-6.58,0-10.7-4.76,4.16-9.09,7.72-13.1,11.61-.94.91-.81,2.94-1.15,4.46-.72,3.2-2.48,4.06-5.47,2.67-.46-.21-.95-.57-1.41-.54-2.05.1-7.55,6.08-7.74,8.28-.51,5.95-1.04,11.89-1.56,17.83-.06.73-.15,1.46-.27,2.18-.35,2.13-1.18,3.99-3.7,3.87-2.3-.12-3.08-1.89-3.28-3.94-.38-3.86-.73-7.71-1.11-11.57-.08-.82-.22-1.63-.42-3.12ZM548.76,447.09c-1.26.82-1.73,1.03-2.09,1.37-6.65,6.37-13.3,12.74-19.91,19.15-.65.63-1.36,1.51-1.46,2.34-.51,4.52-.84,9.06-1.3,14.28,3.86-2.75,7.26-4.72,6.68-9.64-.21-1.83,0-3.81.51-5.59,1.15-4.09,5.32-5.02,8.31-1.99.49.5.93,1.06,1.94,2.2,2.57-3.02,6.05-5.47,7.04-8.69,1.2-3.89.28-8.43.28-13.44ZM570.41,425.88c-.29-.14-.59-.29-.88-.43-2.01,2.02-3.83,4.28-6.05,6.02-6.94,5.44-3.73,13.08-4.75,19.92,3.97-3.15,7.49-6.51,10.97-9.92.35-.34.69-.91.69-1.37.05-4.74.03-9.48.03-14.22Z" style="fill: #000; stroke-width: 0px;"/>
  <path d="M348.08,332.03c.48,8.15-2.07,15.22-7.28,21.48-3.75,4.5-7.22,9.23-10.82,13.86-5.78,7.45-13.43,10.24-22.51,8.38-8.8-1.8-14.45-7.79-15.94-16.3-1.65-9.39-6.4-15.47-14.65-19.66-7.27-3.69-14.27-7.92-21.38-11.92-2.34-1.32-4.34-2.81-4.66-5.86-.11-.99-1.22-1.87-1.88-2.8-1.37-1.94-1.91-3.99-.56-6.14,1.32-2.09,3.33-2.76,5.7-2.46.52.06,1.06.14,1.52.35,8.9,4.09,18.4,3.56,27.8,3.39,3.19-.06,6.51-.64,9.51-1.7,7.3-2.59,14.77-3.83,22.46-4.08,5.13-.16,10.26-.23,15.38-.49,6.65-.34,11.6,2.54,14.05,8.49,1.99,4.84,2.85,10.14,4.21,15.24-.32.07-.64.14-.95.21ZM335.34,337.84c.29-.09.57-.19.86-.28.66-5.14,1.36-10.36-.93-15.29-.65-1.41-2.66-3.1-4.04-3.1-6.99.03-14.12-.14-20.94,1.14-8.88,1.66-17.52,4.61-26.25,7.03-.11.03-.15.35-.3.74,3.43,2.44,7.14,4.63,10.28,7.45,2.27,2.04,3.26,1.73,5.15-.39,9.79-11.02,24.64-10.76,34.18.43.65.77,1.33,1.51,1.99,2.27Z" style="fill: #000; stroke-width: 0px;"/>
  <path d="M466.07,332.51c0-6.94.94-12.98,4.62-18.3,2.68-3.88,6.33-6.2,11.08-6.05,8.68.26,17.36.55,26.01,1.26,3.81.31,7.59,1.47,11.29,2.58,12.61,3.81,25.12,3.52,37.62-.4,1.19-.37,2.39-.83,3.62-.99,2.38-.32,4.76.42,5.46,2.69.54,1.74,0,3.95-.53,5.83-.49,1.73-1.43,3.41-2.48,4.89-.93,1.32-2.11,2.63-3.48,3.44-8.65,5.1-17.32,10.18-26.11,15.02-5.38,2.96-8.39,7.31-9.43,13.28-.41,2.36-1.05,4.72-1.94,6.94-5.94,14.88-24.77,18.66-35.55,6.8-5.89-6.48-11.03-13.68-16.16-20.81-3.55-4.94-4.14-10.87-4.03-16.16ZM530.95,327.61c-3.82-.95-7.35-1.29-10.4-2.69-11.88-5.47-24.49-5.89-37.17-5.82-1.31,0-3.21.93-3.82,2-2.96,5.28-2.38,10.92-1.21,17.46,1.25-1.49,1.94-2.34,2.66-3.16,7.79-8.87,18.93-10.92,28.51-5,2.36,1.45,4.2,3.72,6.38,5.49.69.56,2.07,1.29,2.48,1,4.09-2.85,8.03-5.89,12.56-9.28Z" style="fill: #000; stroke-width: 0px;"/>
  <path d="M444.21,786.54c-3.95,3.67-7.6,7.08-11.29,10.46-.69.63-1.45,1.52-2.26,1.61-1.41.17-3.28.3-4.21-.47-.75-.62-.54-2.58-.47-3.93.03-.63.72-1.25,1.17-1.82,7.93-10.02,12.1-21.69,14.8-33.99.19-.86.17-1.95-.2-2.72-.81-1.69-1.88-3.26-2.89-4.86-.43-.68-.96-1.3-1.76-2.38-1.64,3.31-3.07,6.27-4.57,9.19-.67,1.3-1.22,2.84-2.28,3.71-1.06.87-2.95,1.72-4.01,1.32-1.06-.39-2.17-2.35-2.15-3.59.05-2.58.62-5.21,1.39-7.7,1.42-4.59,2.98-9.16,4.79-13.61,1.97-4.85,3.05-10.71,2.51-17.39-2.73,3.46-5.15,6.54-7.58,9.6-1.11,1.39-2.04,3.07-3.44,4.05-1.09.76-3.39,1.33-4.07.74-.94-.82-1.6-3.13-1.1-4.23,1.62-3.61,3.7-7.04,5.83-10.4,2.97-4.69,6.12-9.26,9.24-13.86.58-.85,1.25-1.97,2.11-2.26,6.27-2.09,5.02-8.13,7.18-12.36l-.67-.49c-1.9,2.05-3.79,4.1-5.69,6.14-1.49,1.6-3.2,3.22-5.37,1.48-2.32-1.86-1.03-3.94.34-5.79,3.75-5.04,7.63-10,11.26-15.12,5.87-8.28,11.53-16.7,17.38-25,2.35-3.33,4.74-6.67,7.51-9.64,2.77-2.97,6.36-3.13,8.7-.97,2.32,2.14,2.14,5.43-.39,8.76-16.19,21.36-25.05,45.78-29.9,71.85-1.67,8.95.71,16.98,4.97,25,10.75,20.26,8.93,40.36-2.51,59.79-3.08,5.23-7.55,9.22-13.06,11.93-2.06,1.01-4.27,1.99-5.95-.29-1.68-2.28-.18-4.13,1.49-5.73,6.79-6.53,11.67-14.22,14.24-23.32.33-1.18.57-2.38.88-3.72Z" style="fill: #000; stroke-width: 0px;"/>
  <path d="M373.27,691.71c.98,3.06,1.9,6.14,2.97,9.16.26.72.92,1.65,1.58,1.82,3.17.86,4.67,3.38,6.24,5.86,4.15,6.54,8.29,13.09,12.41,19.64.44.71,1.13,1.5,1.09,2.22-.09,1.51-.15,3.72-1.06,4.28-.94.58-3.4.06-4.28-.86-2.74-2.86-5.04-6.14-7.51-9.26-.9-1.13-1.79-2.27-2.69-3.4-.39.09-.77.18-1.16.27.68,4.69.91,9.5,2.14,14.05,1.91,7.04,4.51,13.89,6.78,20.83.23.69.52,1.55.29,2.15-.57,1.52-1.12,3.77-2.24,4.17-1.12.4-3.5-.69-4.29-1.84-1.93-2.83-3.27-6.07-4.83-9.15-.46-.91-.88-1.84-1.65-3.44-2.39,4.24-5.81,6.9-4.38,12.39,3.05,11.7,7.21,22.74,14.72,32.34,1.32,1.69,2.11,3.61.31,5.36-1.94,1.89-3.95.91-5.58-.59-3.9-3.59-7.7-7.29-12-11.38.24,1.37.34,2.41.61,3.41,2.44,9.01,7.14,16.69,13.74,23.26,1.77,1.76,4.18,3.64,1.98,6.37-2.1,2.61-4.6.93-6.78-.28-9.05-4.98-14.54-12.99-17.64-22.45-5.58-17.06-6.03-34.01,3.64-50,4.89-8.09,5.92-16.69,4.08-25.72-5.17-25.41-13.81-49.37-29.81-70.2-2.41-3.13-2.41-6.39-.11-8.51,2.26-2.08,5.68-1.93,8.46.84,2.28,2.27,4.58,4.72,6.13,7.5,7.67,13.69,17.79,25.61,27,38.18,1.3,1.77,2.66,3.51,3.86,5.35,1.07,1.64,1.45,3.7-.5,4.64-1.13.55-3.36.17-4.38-.66-2.38-1.97-4.32-4.46-6.44-6.74-.24.13-.48.26-.72.39Z" style="fill: #000; stroke-width: 0px;"/>
  <path d="M397.99,572.86c6,2.29,12.48.77,18.98.43,3.09-.16,6.26.44,9.35.94,9.33,1.5,15.61,6.85,18.74,15.67,1.18,3.33,3.11,5.59,6.22,7.03,1.14.53,2.27,1.11,3.3,1.81,2.81,1.91,2.76,4.73,0,6.62-1.26.86-2.26,2.2-3.61,2.83-2.39,1.1-5.01,2.7-7.43,2.52-6.07-.44-10.25,1.84-13.41,6.8-1,1.57-2.44,2.86-3.71,4.25-4.75,5.22-10.97,6.58-17.62,6.32-4.22-.16-8.5-.55-12.59-1.54-2.69-.65-5.34-2.22-7.51-3.99-2.32-1.88-4.26-4.34-6.01-6.8-2.55-3.56-5.71-5.31-10.15-4.92-1.85.16-4.07.32-5.55-.52-3.18-1.81-6.24-4.02-8.88-6.55-1.6-1.53-.73-4.02,1.18-4.74,6.47-2.46,9.33-7.66,12.05-13.53,2.78-6,8.13-9.5,14.64-10.83,3.78-.78,7.64-1.17,12-1.81ZM407.14,619.05c3.39-1.09,6.69-2.46,10.12-3.16,2.6-.53,3.96-1.83,4.96-4.12,2.62-6,6.04-11.26,12.81-13.35.46-.14.97-1.78.69-2.36-1.46-3.05-3.76-5.21-7.23-5.93-14.2-2.96-28.39-2.89-42.6-.04-3.45.69-5.86,2.73-7.31,5.82-.3.63.08,2.3.47,2.42,7.3,2.22,10.59,8.09,13.45,14.41.38.83.9,1.96,1.62,2.21,4.21,1.47,8.5,2.71,13.01,4.1Z" style="fill: #000; stroke-width: 0px;"/>
</svg>