<?xml version="1.0" encoding="UTF-8"?>
<svg id="Layer_1" data-name="Layer 1" xmlns="http://www.w3.org/2000/svg" viewBox="0 0 783.94 900">
  <path d="M333.66,27.97c1.21-2.27,2.14-3.93,2.99-5.63,10.01-19.81,31.29-27.44,51.63-18.74,2.06.88,5.14.91,7.19.04,21.32-9,42.52-.94,52.47,20.17.56,1.19,1.24,2.33,1.99,3.73,1.05-.57,2-.8,2.51-1.41,12.95-15.33,30.6-21.17,49.51-23.06,22.66-2.26,44.79.75,65.42,11.27,9.52,4.85,19.15,9.53,28.34,14.95,20.47,12.09,32.88,30.05,37.1,53.5.62,3.44,1.94,4.8,5.64,4.67,31.95-1.19,60.38,7.87,83.81,30.14,8.6,8.17,16.66,16.99,24.33,26.04,11.12,13.11,19.38,27.91,23.78,44.69,3.93,14.99,8.41,29.87,11.66,45,1.74,8.13,2.08,16.73,1.84,25.08-.51,17.3-1.33,34.62-2.91,51.85-3.22,34.92-19.8,60.8-52.88,74.61-10.94,4.57-22,9.12-33.4,12.29-16.78,4.66-33.64,1.91-49.79-3.43-9.22-3.05-14.83-1.67-20.64,6.55-5.1,7.22-12.68,12.73-19.38,18.75-2.16,1.94-3,3.16-1.07,5.87,15.31,21.42,25.82,45.11,32.88,70.41,7.37,26.42,14.07,52.96,15.59,80.53.82,14.8.52,29.5-3.01,43.98-5.67,23.26-11.01,46.71-21.38,68.41-5.28,11.05-12.56,21.13-18.73,31.77-1.27,2.19-2.29,4.9-2.3,7.37-.03,25.89-5.2,50.71-19.95,72.08-22.76,32.97-54.03,51.67-95.22,50.83-3.51-.07-4.61,1.46-5.62,4.37-5.21,15.06-13.3,28.27-27.59,36.15-20.52,11.31-41.36,13.44-61.76-.68-3.05-2.11-5.87-2.85-9.01-.33-26.05,20.89-73.24,8.77-87.56-29.58-2.91-7.79-6.27-9.94-14.56-9.99-44.59-.28-86.93-33.14-101.47-77.84-4.83-14.85-7.52-30.05-7.12-45.75.05-1.81-.37-4.1-1.48-5.4-11.87-14.04-19.91-30.24-25.4-47.52-6.14-19.34-11.71-38.93-16.24-58.7-4.84-21.14-2.88-42.66.66-63.78,5.76-34.36,13.54-68.27,29.64-99.58,4.67-9.07,10.17-17.73,15.64-26.36,1.77-2.8,1.45-4.04-.88-6.29-8.42-8.12-16.61-16.48-24.63-25-2.15-2.28-3.98-3.18-7.03-2.29-5.64,1.63-11.39,2.85-17.05,4.39-20.11,5.45-39.65,3.76-58.7-4.48-6.49-2.81-13.03-5.52-19.46-8.46-28.7-13.1-44.38-36.26-48.24-66.74-2.83-22.34-4.44-45.09-3.62-67.55.58-15.98,5.59-31.91,9.58-47.62,3.74-14.7,8.01-29.36,16.48-42.33,12.29-18.82,26.98-35.66,44.73-49.27,21.52-16.5,46.55-23.44,73.68-22.21,3.82.17,5.69-.57,6.46-4.71,4.45-24.11,17.48-42.38,38.8-54.34,11.66-6.54,23.49-13.13,35.94-17.87,25.28-9.62,51.23-11.48,77.38-2.74,10.63,3.55,20.04,8.93,27.43,17.53.66.77,1.5,1.37,2.97,2.7ZM238.26,183.88c-1.33-1.69-2.5-3.38-3.87-4.88-7.21-7.91-16.51-12.42-26.33-16.07-2.74-1.02-4.96-2.73-4.14-6.03.84-3.36,3.61-3.76,6.5-3.16,24,4.98,41.58,17.95,51.1,41.02,9.19,22.26,10.72,45.38,6.65,68.78-9.07,52.17-37.59,90.33-84.46,114.84-4.96,2.59-5,2.85-1.18,6.86,12.03,12.61,26.49,21.8,42.21,28.85,21.62,9.69,44.52,12.39,68.02,10.53,29.55-2.34,56.89-11.09,81.39-28.12,3.24-2.25,3.87-3.82,1.36-7.46-5.62-8.15-11.19-16.47-15.54-25.33-11.43-23.3-15.44-48.64-19.01-74.04-.08-.59-.24-1.37.05-1.77,1.06-1.48,2.18-3.86,3.48-4,1.61-.17,3.71,1.26,5.05,2.56.94.92.99,2.77,1.38,4.22,3.02,11.03,5.72,22.16,9.1,33.08,6.1,19.74,14.98,38.07,28.63,53.85,2.35,2.72,3.97,2.9,6.4.07,8.6-10.03,16.18-20.86,20.63-33.23,6.3-17.52,11.35-35.5,16.9-53.29,1.09-3.51,1.21-8.41,6.52-7.37,4.98.98,3.73,5.39,3.17,8.93-1.27,8.03-2.45,16.08-3.96,24.06-4.93,26.01-13,50.75-29.6,71.96-3.52,4.5-3.54,4.56,1.25,7.9,23.15,16.15,49.02,24.78,76.93,27.6,43.3,4.38,81.29-7.32,113.01-37.69,5.63-5.39,5.42-5.24-1.32-8.99-56.53-31.38-85.39-79.22-84.62-144.11.21-17.73,4.49-34.76,14.22-50.06,8.89-13.98,21.34-23.08,37.18-27.63,3.03-.87,6.12-1.96,9.21-2.06,1.66-.05,4.51,1.55,4.78,2.84.35,1.66-.99,4.05-2.27,5.57-.94,1.12-3.02,1.22-4.46,2.02-6.41,3.57-12.99,6.92-19.07,10.99-3.2,2.14-5.52,5.61-8.46,8.71,8.97,3.73,9.92,3.11,15.95-2.61,4.85-4.6,10.45-8.5,16.14-12.04,1.54-.96,5.51-.29,6.69,1.08,1.18,1.37.98,4.88.07,6.85-1.28,2.78-3.75,5.02-5.73,7.48-1.34,1.67-2.71,3.31-4.49,5.47,4.16,1.31,7.46,2.28,10.7,3.4,2.66.93,3.8-.14,4.56-2.65.91-3.02,2.17-5.93,3.4-8.84,1.24-2.93,2.99-5.54,6.7-4.68,3.46.81,3.98,3.75,3.9,6.78-.09,3.46-.14,6.93-.44,10.37-.58,6.58,1.91,9.53,9.35,10.25-.14-1.82-.3-3.57-.42-5.32-.32-4.95-.79-9.9-.88-14.85-.06-3.54.42-7.28,4.8-8.12,4.11-.78,5.87,2.34,7.27,5.45,1.11,2.46,2.33,4.96,2.89,7.57,1.55,7.35,3.44,14.73,3.96,22.19.5,7.17,5.3,9.67,10.96,13.49-.39-2.52-.48-4-.87-5.4-1.4-5.08-2.99-10.1-4.34-15.19-2-7.56-4.12-15.11-5.56-22.79-.36-1.95,1.15-5.44,2.77-6.22,1.61-.77,4.86.42,6.61,1.76,2.05,1.58,3.31,4.22,4.84,6.45,9.07,13.16,13.46,28.11,16.76,43.53,4.79,22.32,3.28,44.97,3.8,67.51.18,7.94-.46,15.96-1.46,23.86-2.06,16.2-8.45,31-15.66,45.47-1.26,2.53-2.47,5.09,1.9,5.38,11.09.75,22.33,2.72,33.27,1.7,24.72-2.31,45.6-12.49,58.12-35.2,4.76-8.64,9.16-17.78,11.82-27.22,12.69-45.08,6.16-88.54-12.57-130.69-1.76-3.96-3.9-7.94-6.67-11.22-10.59-12.51-20.57-25.75-32.52-36.84-21-19.48-46.13-24.83-73.84-16.78-2.74.8-5.39,1.96-8.16,2.64-5.59,1.36-9.34-1.95-9.58-7.6-.24-5.67-.62-11.41-1.75-16.95-3.09-15.22-11.63-26.64-25.5-33.71-11.53-5.88-23.15-11.6-34.95-16.9-6-2.7-12.38-4.81-18.79-6.31-15.22-3.56-30.56-5.55-45.84,0-9.79,3.56-17.29,10.17-20.26,19.87-3.98,12.99-9.38,25.82-8.6,39.93.23,4.23-1.26,7.81-5.87,9-3.84.99-7.18-1.16-9.39-6-3.64-7.96-5.52-16.39-4.24-25.06,1.14-7.71,3.35-15.25,4.87-22.91.33-1.66.38-4-.54-5.18-2.93-3.79-6.06-7.55-9.69-10.65-4.39-3.75-9.19-7.12-14.19-10.01-1.93-1.12-4.9-.45-7.92-.63,2.88,6.96,5.33,12.76,7.68,18.61,1.16,2.89,1.3,5.85-1.9,7.45-3.25,1.63-5.34-.47-7.08-3.02-2.88-4.23-5.63-8.56-8.74-12.61-4.24-5.52-4.9-5.54-9.17,0-3.39,4.41-6.12,9.34-9.69,13.58-1.19,1.42-4.6,2.47-6.04,1.76-1.44-.71-2.08-3.8-2.31-5.93-.16-1.48.89-3.14,1.54-4.66,2.05-4.79,4.16-9.55,6.76-15.49-3.48.36-6.28.06-8.52,1.03-3.53,1.53-7.11,3.47-9.91,6.05-4.97,4.57-9.48,9.66-13.91,14.77-.79.91-.59,3.03-.28,4.47,1.57,7.34,3.79,14.58,4.89,21.98,1.45,9.76-.37,19.21-5.03,28-1.78,3.37-4.62,5.23-8.54,4.45-3.77-.75-6.01-3.57-5.73-7.12.9-11.46-3.19-21.93-5.77-32.72-4.75-19.83-15.39-29.75-35.79-31.83-18.7-1.91-36.55,2.19-53.56,9.88-10.42,4.71-20.65,9.86-30.92,14.88-21.63,10.58-29.82,28.96-29.82,51.95,0,5.35-3.71,8.82-9.07,7.7-2.93-.61-5.73-1.8-8.6-2.71-18.33-5.78-36.45-4.84-53.64,3.46-8,3.86-16.02,8.88-22.14,15.21-14.39,14.88-29.88,29.26-38.42,48.65-13.17,29.9-19.77,61.2-17.5,94.08,1.25,18.19,4.79,35.83,12.81,52.31,6.62,13.59,14.97,26.11,28.56,33.5,15.59,8.48,32.4,12.92,50.42,11.02,4.94-.52,9.88-1.05,14.81-1.61,6.99-.79,7.18-.95,3.88-7.3-11.86-22.81-17.54-46.96-16.53-72.7.43-10.98.48-21.97.58-32.96.17-17.8,3.24-35.17,9.53-51.71,3.49-9.18,8.98-17.63,13.83-26.25,1.67-2.97,4.37-5.42,8.21-3.6,3.61,1.71,3.28,5.14,2.5,8.3-1.97,7.88-4.09,15.72-6.19,23.57-1.52,5.71-3.1,11.41-4.84,17.83,8.54-3.94,10.5-6.7,11.42-14.14,1.27-10.31,2.52-20.66,7.34-30.11,1.37-2.69,3.22-4.95,6.63-4.36,3.65.63,4.8,3.53,4.78,6.72-.04,5.4-.44,10.8-.69,16.2-.09,1.86-.2,3.71-.31,5.73,8.64-1.99,9.86-3.65,9.18-11.29-.31-3.44-.41-6.91-.47-10.37-.06-2.95.92-5.98,4.12-5.95,2.03.02,4.74,1.82,5.9,3.63,1.91,2.98,2.7,6.67,4.22,9.93.54,1.15,2.07,2.87,2.78,2.71,3.99-.89,7.86-2.28,12.35-3.68-3.72-4.46-6.86-8.07-9.82-11.82-2.01-2.53-3.02-5.42-.55-8.2,2.31-2.6,5.4-2.22,7.83-.5,5.37,3.8,10.83,7.6,15.54,12.14,5.51,5.3,7.11,5.98,15.2,2.28ZM181.39,696.13c.58-.07,1.16-.14,1.75-.21.65-1.49,1.29-2.98,1.94-4.47,4.5-10.28,10-19.94,18.09-27.85,2.11-2.07,4.61-3.99,7.29-5.18,3.7-1.64,7.46-1.05,10.25,2.26,2.86,3.39,2.28,7.01.09,10.45-.87,1.37-2.36,2.33-3.31,3.65-3.04,4.21-6.96,8.12-8.76,12.83-6.11,16-8.75,32.73-5.27,49.67,4.85,23.67,16.47,43.45,36.42,57.72,6.49,4.64,13,9.34,19.96,13.18,8.79,4.84,18.04,8.88,27.13,13.16,3.16,1.48,4.87.47,4.71-3.24-.08-1.95-.02-3.92.19-5.86.59-5.69,3.59-9.11,8.05-9.29,4.33-.18,7.55,2.72,8.78,8.1.57,2.49.74,5.07,1.31,7.56,4.3,18.6,13.34,34.42,28,46.78,6.82,5.75,14.75,7.18,23.34,4.92,2.91-.77,5.75-2.12,8.69-2.39,6.21-.57,12.47-.63,18.72-.83,1.34-.04,2.79.64,4.01.31,9.95-2.7,19.34-.36,28.78,2.62,9.72,3.06,18.53.94,25.98-5.95,14.14-13.06,23.34-28.93,26.68-48.03.41-2.37.73-4.79,1.48-7.05,1.25-3.78,3.89-6.12,8.05-6,4.19.12,6.62,2.66,7.61,6.52.52,2.02.71,4.15.77,6.25.22,7.2.28,7.47,7.13,4.77,6.7-2.65,13.4-5.48,19.63-9.05,7.95-4.56,15.6-9.69,23.09-15,26.42-18.74,40.5-44.36,39.47-76.82-.54-17.17-2.32-34.89-17.45-47.14-.56-.45-.96-1.17-1.3-1.83-1.79-3.48-2.08-6.98.51-10.16,2.49-3.07,6.02-3.68,9.43-2.31,2.71,1.08,5.31,2.87,7.45,4.89,8.58,8.11,14.22,18.21,18.92,28.9.61,1.39,1.33,2.73,2.49,5.1,1.26-3.11,2.11-5.02,2.81-6.97,6.94-19.12,9.5-39.2,12.34-59.14,3.4-23.8,2.17-47.78.81-71.7-1.32-23.31-2.8-46.57-9.05-69.27-5.08-18.45-11.97-35.95-23.49-51.44-2.79-3.74-5.2-4.41-9.8-2.84-11.65,3.97-23.48,7.64-35.49,10.28-14.94,3.28-29.98.13-44.95-1.14-1.54-.13-3.08-.23-5.32-.39,1,2.46,1.68,4.1,2.34,5.75,5.56,13.82,11.42,27.54,16.61,41.5,6.15,16.52,9.54,33.59,7.87,51.37-1.62,17.34-5.77,33.86-16.21,48.2-12.88,17.69-31.23,22.75-50.85,13.9-3.31-1.5-4.12.18-5.48,2.37-9.92,16.08-30.55,24.17-48.69,19.34-1.92-.51-4.21-.51-6.13-.01-18.28,4.79-38.71-3.16-48.64-19.35-1.79-2.93-3.07-3.5-6.32-1.96-14.59,6.93-28.42,5.11-41.05-4.83-9.03-7.1-14.63-16.73-18.52-27.33-8.65-23.53-9.87-47.53-2-71.34,5.85-17.69,13.26-34.87,19.98-52.27.61-1.59,1.26-3.17,2.15-5.42-2.51.23-4.15.28-5.74.55-28.2,4.8-55.49,1.87-81.71-9.77-3.13-1.39-5-.36-6.91,2.08-10.56,13.48-17.41,28.77-22.35,45.05-6.77,22.35-8.97,45.34-10.7,68.54-3.05,40.96-2.03,81.55,7.44,121.66,1.88,7.97,4.61,15.74,6.94,23.6ZM438.27,580.15c-.19.77-.39,1.54-.58,2.32,6.05,2.86,11.92,6.24,18.2,8.45,12.03,4.23,22.29,1.26,30.19-8.84,3.65-4.67,6.75-10.03,8.94-15.54,5.5-13.84,6.75-28.44,4.72-43.09-3.95-28.57-13.25-55.26-30.14-78.91-1.46-2.04-4.39-3.89-6.86-4.22-25.51-3.45-48.02-13.27-66.99-30.8-2.81-2.6-4.98-2.44-7.72.07-19.02,17.46-41.51,27.3-67.03,30.75-2.57.35-5.77,2.41-7.07,4.62-6.15,10.48-12.63,20.91-17.33,32.07-8.33,19.79-14.12,40.39-13.19,62.23.65,15.13,3.73,29.62,13.37,41.88,11.92,15.16,36.51,15.05,49.73-1.13-4.25.55-7.59.83-10.86,1.44-4.14.78-7.99.6-10.36-3.37-2.48-4.15-.76-7.83,2.11-11.1,6.01-6.86,15.96-9.19,25.26-5.97,6.83,2.37,12.23,6.7,15.75,12.88,5.4,9.49,9.46,19.39,7.57,30.83-.97,5.9.04,7.02,5.94,7.25,6.6.26,13.23.26,19.83.01,5.78-.22,6.99-1.64,6.08-7.24-2.04-12.62,2.62-23.33,9.41-33.33,1.97-2.9,4.88-5.38,7.83-7.35,10-6.69,22.79-5.76,30.39,1.86,4.05,4.06,5.28,8.58,3.07,12.15-2.73,4.38-6.83,4.11-11.22,3.19-2.96-.62-6.03-.75-9.05-1.1ZM216.66,211.91c.45,1.43.46,1.78.65,1.97.41.43.87.83,1.35,1.18,9.3,6.62,14.08,15.95,15.5,26.98,2.01,15.51.15,30.72-5.64,45.21-7.66,19.18-25.83,25-43.55,14.3-2.56-1.55-5-3.37-7.23-5.37-11.01-9.87-18.34-22.17-23.49-35.89-.56-1.5-1.17-2.98-2.36-5.97-3.93,4.26-7.35,7.59-10.26,11.32-1.27,1.62-2.17,4.08-2.1,6.12,1.14,30.84,8.34,60.07,23.32,87.25,1.99,3.61,3.84,4.09,7.46,2.28,45.95-23,73.45-59.55,81.15-110.54,2.32-15.33,1.5-30.64-2.96-45.59-.44-1.46-2.67-3.8-3.34-3.57-9.6,3.23-19.07,6.83-28.51,10.32ZM632,255.89c-.42.26-.8.35-.89.57-.6,1.38-1.15,2.78-1.69,4.18-5.93,15.27-14.1,29.04-27.55,38.9-19.02,13.93-39.38,7.75-47.43-14.33-4.7-12.9-6.4-26.33-5.21-40.01,1.08-12.37,5.73-23.01,16.24-30.45.56-.4.95-1.04,2.24-2.49-9.28-3.54-17.95-6.75-26.55-10.16-3.49-1.38-5.56-.59-6.02,3.18-1.33,10.87-4.18,21.83-3.58,32.6,3.14,56.68,31.23,97.3,81.4,123.16,4.2,2.17,6.26,1.39,8.47-2.68,14.77-27.13,21.92-56.23,22.91-86.96.05-1.44-.11-3.34-.98-4.27-3.63-3.91-7.57-7.54-11.36-11.23ZM565.08,259.08c.14,7.61,1.48,16.33,6.43,24.07,3.83,5.99,9.13,8.16,15.49,5.08,4.86-2.35,9.55-5.82,13.15-9.84,8.14-9.07,13.05-20.09,16.85-31.62,1.06-3.21.03-5.15-2.61-6.76-10.91-6.64-21.83-13.27-32.68-20.01-2.64-1.64-3.96-.59-5.45,1.6-7.43,10.9-11.02,22.95-11.18,37.47ZM218.63,257.62c-.06-13.15-3.7-25.16-11.2-36.01-1.54-2.23-2.91-3.12-5.48-1.52-10.84,6.73-21.73,13.39-32.65,20-2.97,1.8-3.78,4.16-2.3,7.22,4.38,9.02,8.17,18.43,13.48,26.87,3.23,5.13,8.32,9.57,13.5,12.86,8.04,5.1,15.01,2.57,19.49-5.87,3.9-7.34,5.18-15.31,5.16-23.54Z" style="fill: #000; stroke-width: 0px;"/>
  <path d="M326.58,217.46c.51-12.69,3.61-21.6,8.2-29.98,3.9-7.11,8.65-13.78,12.26-21.03,5.01-10.05,9.41-20.41,13.83-30.75,1.47-3.45,3.22-6.2,7.22-6.44,4.11-.25,7.18,1.87,8.31,5.61.97,3.2,1.95,7.1.98,10.05-2.47,7.48-5.39,14.97-9.33,21.76-4.51,7.76-10.47,14.67-15.49,22.16-2.74,4.1-5.13,8.5-7.17,12.99-4.7,10.39-3.88,20.19,2.81,29.83,3.15,4.54,4.72,10.22,6.76,15.48.5,1.3.53,3.18-.06,4.4-.77,1.6-2.21,3.73-3.63,3.95-1.66.26-4.34-.76-5.31-2.13-5.09-7.22-10.23-14.49-14.46-22.23-2.73-5-3.94-10.83-4.92-13.67Z" style="fill: #000; stroke-width: 0px;"/>
  <path d="M458.01,214.62c-.96,9.04-4.95,16.17-9.82,23.04-3.38,4.77-6.24,9.92-9.8,14.54-1.32,1.72-4.32,3.62-5.97,3.19-1.68-.43-3.54-3.56-3.71-5.64-.24-3.02.7-6.25,1.66-9.22.77-2.39,2-4.8,3.59-6.73,10.8-13.14,8.72-26.49.58-39.72-4.25-6.9-9.43-13.23-13.86-20.04-4.1-6.29-8.53-12.54-11.37-19.4-2.16-5.2-2.78-11.33-2.75-17.05.03-5,4.31-8.32,8.52-8.36,4.01-.04,6.08,2.69,8.24,7.62,5.12,11.68,10.64,23.19,16.36,34.59,3.84,7.65,8.86,14.75,12.27,22.57,2.84,6.51,4.12,13.71,6.09,20.6Z" style="fill: #000; stroke-width: 0px;"/>
  <path d="M642.46,122.61c12.52.91,23.02,5.99,32.92,12.48,15.29,10.01,26.3,23.82,33.52,40.4,5.27,12.1,9.43,24.69,13.98,37.09,1.04,2.84,1.29,6.05-2.23,7.25-3.79,1.29-5.19-1.69-6.44-4.63-4.17-9.81-7.86-19.88-12.78-29.31-13.61-26.14-35.49-41.33-64.29-46.81-4.95-.94-7.7-3.5-7.87-7.32-.18-4.07,2.45-7.17,7.36-8.36,2.02-.49,4.15-.57,5.82-.78Z" style="fill: #000; stroke-width: 0px;"/>
  <path d="M154.6,131.31c.01,3.96-2.91,6.9-7.97,7.76-11.72,1.99-22.56,6.33-32.73,12.37-15.69,9.31-26.38,23.1-34.23,39.2-3.55,7.29-6.36,14.93-9.49,22.42-.46,1.11-.77,2.29-1.26,3.38-1.14,2.56-2.91,4.51-5.93,3.42-2.99-1.08-3.14-3.7-2.5-6.42.03-.15.07-.29.11-.44,5.48-17.05,11.05-34.08,20.54-49.46,10.96-17.77,26.03-30.78,45.76-37.66,6.05-2.11,12.91-2.55,19.39-2.52,5.09.02,8.29,4.02,8.31,7.95Z" style="fill: #000; stroke-width: 0px;"/>
  <path d="M275.26,414.47c-9.27-2.57-18.76-4.79-27.96-7.89-8.24-2.78-16.2-6.43-24.2-9.91-2.45-1.06-4.77-2.6-6.83-4.31-3.21-2.66-4.45-6.18-2.4-10.06,2.04-3.86,5.59-4.88,9.64-3.76,2.45.68,4.89,1.59,7.13,2.77,16.21,8.55,33.44,13.41,51.71,14.68,2.09.15,4.17.57,6.23,1.02,3.12.69,6.35,2.23,6.01,5.63-.25,2.55-2.12,6-4.26,7.07-4.43,2.22-9.52,3.12-15.07,4.77Z" style="fill: #000; stroke-width: 0px;"/>
  <path d="M507.47,414.39c-5.04-1.69-10.3-2.94-15-5.3-1.83-.92-3.59-4.54-3.24-6.56.35-2.02,3.09-4.4,5.29-5.16,3.63-1.26,7.65-1.52,11.53-1.88,15.32-1.4,29.81-5.58,43.55-12.5,3.08-1.55,6.26-2.99,9.51-4.11,4.9-1.68,9.06-.17,10.92,3.58,1.82,3.69.4,7.9-3.71,10.95-.72.54-1.47,1.07-2.27,1.48-15.36,7.74-31.22,14.18-48.13,17.69-2.63.55-5.37.58-8.07.85-.13.32-.26.64-.38.97Z" style="fill: #000; stroke-width: 0px;"/>
  <path d="M240.98,61.2c.96.78,3.01,1.67,3.56,3.14.49,1.28-.31,3.48-1.24,4.77-.89,1.24-2.64,1.92-4.08,2.7-15.25,8.2-24.71,21.12-30.24,37.19-2.39,6.93-5.14,9.58-9.58,8.52-4.44-1.06-6.08-5.51-4.41-12.44,5.62-23.23,21.12-36.63,43.29-43.34.57-.17,1.17-.24,2.7-.53Z" style="fill: #000; stroke-width: 0px;"/>
  <path d="M589.57,109.69c-.27,4.18-1.7,7.24-5.81,7.86-4.28.64-6.55-2.02-8.12-5.67-2.66-6.19-5-12.58-8.33-18.4-5.33-9.3-12.97-16.5-22.55-21.5-.8-.42-1.57-.88-2.37-1.31-2.61-1.4-4.58-3.36-3.3-6.49,1.41-3.44,4.45-3.21,7.3-2.14,4.36,1.62,8.77,3.21,12.92,5.3,15.73,7.95,25.37,20.76,29.48,37.82.38,1.6.57,3.25.79,4.53Z" style="fill: #000; stroke-width: 0px;"/>
  <path d="M461.94,386.5c3.1.7,7.13,1.27,10.91,2.55,4.67,1.58,7.01,5.74,6.12,9.73-.85,3.82-4.53,6.6-9.12,6.54-7.32-.1-13.33-3.35-18.19-8.57-3.14-3.37-1.75-7.86,2.68-9.2,2.11-.64,4.42-.64,7.6-1.05Z" style="fill: #000; stroke-width: 0px;"/>
  <path d="M321.19,386.65c5.77.42,10.52-.34,12.09,4.62,1.58,4.98-2.49,7.65-5.99,9.38-4.32,2.14-9.11,3.83-13.86,4.48-4.43.61-7.87-2.69-8.54-6.45-.74-4.14,1.33-8.07,5.75-9.56,3.94-1.32,8.13-1.93,10.55-2.48Z" style="fill: #000; stroke-width: 0px;"/>
  <path d="M44.84,257.02c.64-2.76.94-5.17,1.78-7.37,1.48-3.88,5.31-6.02,8.92-5.18,4.11.96,6.45,4.04,6,7.86-.84,7.11-2.38,14.16-4.11,21.11-.33,1.32-3.08,3.13-4.32,2.87-1.82-.39-4.21-2.15-4.74-3.83-1.61-5.11-2.45-10.46-3.54-15.46Z" style="fill: #000; stroke-width: 0px;"/>
  <path d="M738.96,256.86c-1.17,5.24-2,10.61-3.7,15.67-.58,1.73-3.47,3.87-5.12,3.72-1.67-.15-3.95-2.64-4.5-4.54-1.46-5.01-2.13-10.25-3.11-15.39-1.24-6.51,1.27-11.32,6.23-11.97,4.92-.64,8.93,3.4,9.57,9.69.09.89.01,1.79.01,2.69.21.04.42.08.62.12Z" style="fill: #000; stroke-width: 0px;"/>
  <path d="M511.01,66.23c-4.92,0-9.87.3-14.75-.15-1.88-.17-4.52-1.71-5.12-3.28-.61-1.58.29-4.48,1.54-5.92,4.85-5.6,16.52-7.09,22.92-3.22,2.92,1.76,4.76,4.33,3.76,7.87-1.16,4.09-4.38,5.39-8.35,4.7Z" style="fill: #000; stroke-width: 0px;"/>
  <path d="M282.27,65.93c-2.38.22-5.81.62-9.25.84-4.67.3-7.96-1.82-8.67-5.42-.76-3.86,1.58-7.36,6.11-8.68,6.66-1.94,13.1-1.6,18.91,2.65,2.52,1.85,4.69,4.09,3.38,7.58-1.24,3.31-4.16,3.49-7.16,3.25-.75-.06-1.5-.1-3.32-.22Z" style="fill: #000; stroke-width: 0px;"/>
  <path d="M353.95,392.96c-4.27.11-7.79-3.26-7.9-7.58-.11-4.29,3.21-7.92,7.41-8.12,4.29-.21,7.9,3.06,8.12,7.34.23,4.45-3.24,8.24-7.64,8.36Z" style="fill: #000; stroke-width: 0px;"/>
  <path d="M437.67,385.05c.03,4.34-3.33,7.85-7.55,7.91-4.46.06-7.93-3.47-7.9-8.03.03-4.33,3.45-7.72,7.74-7.66,4.27.06,7.68,3.51,7.71,7.78Z" style="fill: #000; stroke-width: 0px;"/>
  <path d="M75.64,323.03c.11,4.19-2.79,7.41-6.72,7.49-4.29.08-8.26-3.88-8.39-8.36-.11-4.08,2.84-7.33,6.79-7.47,4.31-.15,8.2,3.76,8.32,8.35Z" style="fill: #000; stroke-width: 0px;"/>
  <path d="M715.09,330.51c-3.88.12-6.99-3.06-7.03-7.19-.04-4.54,3.75-8.59,8.06-8.62,3.81-.02,6.85,2.87,7.07,6.71.26,4.64-3.58,8.96-8.1,9.1Z" style="fill: #000; stroke-width: 0px;"/>
  <path d="M477.92,74.68c3.13-.13,5.83,2.36,5.78,5.54-.05,3.29-1.73,5.46-5.08,5.68-3.55.24-5.62-1.74-6.01-5.23-.34-3.13,2.19-5.86,5.31-5.99Z" style="fill: #000; stroke-width: 0px;"/>
  <path d="M305.84,85.99c-3.6-.08-6.18-2.75-5.89-5.87.29-3.26,2.16-5.19,5.5-5.34,3.18-.14,5.82,2.45,5.64,5.62-.2,3.5-2.19,5.38-5.24,5.59Z" style="fill: #000; stroke-width: 0px;"/>
  <path d="M279.98,732.52c1.23-5.7,1.83-11.62,3.79-17.06,5.17-14.33,18.41-22.5,33.6-21.3,2.78.22,5.04.2,6.11-3,6.69-19.93,40.54-32.31,61.85-16.65,6.45,4.74,6.73,4.74,13.43-.1,19.75-14.25,49.35-5.01,58.47,11.03,3.75,6.59,7.26,8.82,14.92,8.95,12.93.22,22.26,7.78,27.38,19.67,9.67,22.45-.77,53.01-22.02,65.03-2.59,1.47-5.43,2.76-8.31,3.39-4.08.9-6.31,3.25-8.34,6.76-9.95,17.14-24.59,26.44-44.84,25.62-7.86-.32-15.12-2.61-21.08-8.03-1.82-1.65-3.31-2.02-5.5-.38-16.58,12.37-38.73,11.39-54.59-2.94-4.81-4.35-8.23-10.23-12.44-15.28-1.57-1.88-3.35-4.49-5.41-4.9-20.73-4.15-36.67-29.09-37-50.82ZM392.11,786.49l.06-1.05c6.16,0,12.36.43,18.49-.09,14.76-1.24,27.26-6.28,33.32-21.36,1.53-3.82,4.82-5.7,8.89-5.98,15.53-1.07,28.64-21.42,24.58-39-.43-1.85-3.05-4.45-4.74-4.51-6.14-.24-11.65,1.23-15.55,7.1-2.76,4.16-6.63,7.74-10.5,10.97-4.98,4.15-10.95,4.29-16.52,1.36-1.8-.95-3.58-3.92-3.57-5.96.02-6.94,2.27-13.07,7.61-18.12,5.89-5.58,4.42-10.49-3.55-12.38-10.27-2.44-20.52-1.73-30.88.32-5.1,1.01-10.73.97-15.85-.02-10.82-2.09-21.51-2.91-32.16.17-6.3,1.82-7.38,6.09-3.24,10.8.69.79,1.4,1.58,2.19,2.28,5.36,4.7,6.45,11.09,6.46,17.63,0,1.79-1.71,4.36-3.35,5.23-5.22,2.78-10.91,3.08-15.74-.75-4.07-3.23-8.16-6.81-11.05-11.06-3.03-4.44-6.77-6.63-11.71-7.45-6.38-1.06-9.2.99-9.56,7.36-.43,7.51.84,14.83,4.85,21.26,4.92,7.9,11.22,14.1,21.31,14.92,4.11.33,6.9,2.96,8.42,6.68,4.37,10.72,12.62,16.95,23.61,18.89,9.27,1.64,18.79,1.89,28.2,2.76Z" style="fill: #000; stroke-width: 0px;"/>
  <path d="M595.57,592.94c-.03,13.67-3.04,26.6-8.76,38.94-2.3,4.96-5.83,7.34-9.61,6.42-4.07-.99-6.17-4.89-5.37-10.54,1.7-12.06,4.12-24.05,5.14-36.16,1.02-12.11.7-24.34.96-36.52.03-1.35-.43-2.91.09-4.02.98-2.1,2.1-4.97,3.89-5.68,3-1.19,5.05,1.3,5.76,4.19,2.16,8.75,4.41,17.5,6.11,26.35,1.07,5.58,1.22,11.34,1.79,17.03Z" style="fill: #000; stroke-width: 0px;"/>
  <path d="M204.53,571.22c2.27,17.42,4.55,34.83,6.79,52.25.34,2.68,1.22,5.57.54,8.01-.67,2.44-2.62,5.69-4.66,6.27-2.29.64-5.48-1-7.94-2.28-1.23-.64-1.81-2.67-2.51-4.15-8.29-17.62-9.95-36.14-6.82-55.11,1.47-8.88,3.88-17.61,5.97-26.38.68-2.87,2.38-5.11,5.67-4.66,3.33.45,4.15,3.11,4.16,6.04.03,6.62,0,13.24,0,19.85-.4.06-.8.11-1.21.17Z" style="fill: #000; stroke-width: 0px;"/>
  <path d="M282.4,802.75c-13.61-1.94-24.1-6.66-32.31-15.36-4.91-5.2-8.95-11.25-13.19-17.05-1.71-2.33-2.23-5.15.22-7.37,2.45-2.22,4.88-1.11,7.35.5,12.55,8.21,25.18,16.31,37.78,24.45,1.01.65,2.12,1.16,3.06,1.89,2.74,2.11,4.6,5.11,2.79,8.18-1.37,2.34-4.39,3.71-5.71,4.76Z" style="fill: #000; stroke-width: 0px;"/>
  <path d="M501.55,803.46c-2.07-1.85-5.21-3.38-5.88-5.65-.63-2.12,1.08-5.17,2.3-7.53.59-1.15,2.43-1.64,3.69-2.45,12.58-8.15,25.08-16.42,37.8-24.35,1.78-1.11,5.11-1.39,6.78-.42,1.18.69,1.78,4.66.93,6.24-9.29,17.18-22.52,29.52-42.51,33-.74.13-1.49.16-2.24.24-.29.31-.58.62-.87.92Z" style="fill: #000; stroke-width: 0px;"/>
  <path d="M587.01,512.39c-.05,5.2-1.46,8.57-5.74,9.73-4.19,1.14-8.18-.5-9.31-4.37-3.1-10.61-5.52-21.44-7.77-32.27-.28-1.37,1.66-3.98,3.19-4.7,1.3-.62,4.26.03,5.19,1.17,7.5,9.22,12.98,19.47,14.45,30.44Z" style="fill: #000; stroke-width: 0px;"/>
  <path d="M196.74,512.27c1.68-10.98,6.97-21.16,14.35-30.28.93-1.15,3.86-1.83,5.17-1.22,1.55.71,3.42,3.15,3.29,4.68-.96,11.09-2.51,22.14-7.59,32.26-2,3.98-6.18,5.66-9.84,4.35-4.18-1.49-5.37-4.9-5.38-9.79Z" style="fill: #000; stroke-width: 0px;"/>
  <path d="M360.01,844.86c-3.35-1.61-7.6-3.05-11.14-5.52-3.06-2.14-3.68-5.83-1.87-9.36,1.72-3.36,4.96-5.03,8.31-3.89,7.38,2.49,13.43.08,19.69-3.42,1.81-1.01,5.58-1.01,6.88.2,1.54,1.45,2.3,4.92,1.79,7.14-1.45,6.22-6.32,9.73-11.99,11.89-3.32,1.26-6.92,1.8-11.66,2.97Z" style="fill: #000; stroke-width: 0px;"/>
  <path d="M422.32,844.73c-7.09-.94-13.33-2.99-18.16-7.97-1.91-1.97-3.65-4.63-4.19-7.24-.44-2.1.38-5.33,1.88-6.69,1.29-1.17,4.41-.8,6.58-.38,1.83.36,3.41,1.85,5.17,2.7,4.04,1.96,8.13,2.71,12.66,1.35,5.15-1.55,9.1.13,10.76,3.93,1.7,3.89.03,8.61-4.58,10.97-3.12,1.6-6.72,2.26-10.11,3.34Z" style="fill: #000; stroke-width: 0px;"/>
  <path d="M428.02,639.58c5.16,2.12,10.59,3.76,15.4,6.49,4.24,2.4,5.03,7.17,2.83,10.51-2.19,3.32-6.79,4.18-10.78,1.21-7.57-5.61-15.28-5.22-23.34-1.6-.68.31-1.45.9-2.07.78-2.03-.38-5.27-.55-5.71-1.7-.64-1.69,0-5,1.35-6.13,6.23-5.22,13.56-8.17,21.81-8.39.17-.39.34-.79.51-1.18Z" style="fill: #000; stroke-width: 0px;"/>
  <path d="M355.52,639.75c8.55,1.1,15.62,4.17,22.07,8.87,2.28,1.66,3.55,3.91,2,6.62-1.57,2.74-4.13,2.56-6.73,1.51-1.81-.73-3.6-1.52-5.46-2.11-6.55-2.11-12.63-1.41-18.4,2.68-4.7,3.33-9.25,2.81-11.52-.8-2.26-3.61-1.05-8.56,3.64-11.09,4.51-2.43,9.58-3.83,14.4-5.69Z" style="fill: #000; stroke-width: 0px;"/>
  <path d="M508.48,678.84c-1.58,2.16-2.75,5.36-4.86,6.21-2.34.93-6.25.68-8.21-.77-3.86-2.87-7.17-4.64-12.24-3.16-4.06,1.19-6.94-2.53-5.79-6.55,1.76-6.18,9.63-10.64,17.06-9.65,7.02.93,13.09,7.06,14.04,13.93Z" style="fill: #000; stroke-width: 0px;"/>
  <path d="M306.54,675.75c-.02,3.96-2.86,6.47-6.49,5.34-4.52-1.41-7.7-.17-11.01,2.83-2.86,2.59-6.45,3.48-9.88.79-3.26-2.56-3.7-6.03-2.4-9.78,2.04-5.87,7.67-9.93,14.15-10.14,6.64-.22,11.57,2.72,14.8,8.48.5.89.66,1.97.83,2.49Z" style="fill: #000; stroke-width: 0px;"/>
  <path d="M215.02,725.16c1.57-1.82,2.92-4.76,4.76-5.12,1.5-.29,4.04,2.22,5.31,4.05,1.49,2.16,2.6,4.86,2.96,7.45.35,2.57.13,5.58-.97,7.85-.56,1.16-4.29,2.16-5.34,1.44-2.09-1.45-3.88-3.95-4.75-6.38-.93-2.59-.66-5.62-.92-8.45-.35-.28-.7-.56-1.05-.84Z" style="fill: #000; stroke-width: 0px;"/>
  <path d="M567.57,726.45c-.29,2.98-.4,6-.92,8.94-.73,4.12-4.31,6.69-7.67,5.79-3.42-.91-5.17-4.82-3.8-8.81.92-2.68,2.14-5.27,3.09-7.94.97-2.71,2.26-5.26,5.61-4.66,3.61.65,3.91,3.63,3.68,6.67Z" style="fill: #000; stroke-width: 0px;"/>
  <path d="M562.3,469.71c-4.21.05-7.65-3.21-7.63-7.24.02-4.02,3.44-7.25,7.66-7.25,4.03,0,7.23,3.05,7.35,7,.12,4.04-3.23,7.44-7.38,7.49Z" style="fill: #000; stroke-width: 0px;"/>
  <path d="M229.04,462.49c0,4.03-3.43,7.28-7.64,7.22-4.1-.05-7.49-3.51-7.37-7.53.12-3.91,3.37-6.97,7.4-6.95,4.27.02,7.6,3.19,7.61,7.26Z" style="fill: #000; stroke-width: 0px;"/>
  <path d="M229.67,697.99c-.08,3.75-3.33,6.8-7.03,6.59-3.66-.2-6.77-3.5-6.69-7.11.08-3.72,3.27-6.67,7.09-6.52,3.8.14,6.72,3.24,6.64,7.03Z" style="fill: #000; stroke-width: 0px;"/>
  <path d="M560.93,704.58c-3.66.07-6.65-2.76-6.81-6.43-.17-3.89,2.65-6.98,6.55-7.17,3.89-.19,7.06,2.76,7.08,6.58.02,3.77-3.07,6.95-6.82,7.02Z" style="fill: #000; stroke-width: 0px;"/>
  <path d="M307.86,525.52c.63-13.35,5.49-23.64,11.41-33.47.86-1.43,4.29-2.79,5.51-2.17,1.6.81,3.4,3.92,3.01,5.53-2.85,11.88-2.28,23.84-1.77,35.85.25,5.86-2.4,9.57-6.67,10.32-4.19.73-8.14-2.05-9.8-7.46-1-3.26-1.34-6.72-1.69-8.61Z" style="fill: #000; stroke-width: 0px;"/>
  <path d="M458.92,520.6c-.85-7.28-1.7-14.55-2.58-21.83-.16-1.34-.95-2.81-.59-3.95.56-1.83,1.49-4.34,2.91-4.9,1.4-.56,4.57.37,5.34,1.63,6.85,11.23,12.82,22.89,11.53,36.67-.26,2.78-1.19,5.58-2.29,8.17-1.65,3.84-4.81,5.9-9.03,5.08-4.27-.83-6.2-4.08-6.41-8.19-.21-4.19-.05-8.4-.05-12.6.39-.03.78-.06,1.17-.09Z" style="fill: #000; stroke-width: 0px;"/>
  <path d="M339.72,468.37c.07,5.18-5.33,11.38-9.53,11.37-3.53,0-6.11-2.65-6.17-6.31-.06-4.53,5.17-9.93,9.84-9.99,3.55-.05,5.54,1.8,5.85,4.94Z" style="fill: #000; stroke-width: 0px;"/>
  <path d="M449.53,463.4c4.65-.04,10.15,5.29,10.13,9.82-.02,3.75-2.55,6.46-6.07,6.49-4.13.04-9.37-5.72-9.58-10.53-.14-3.35,2.14-5.75,5.52-5.78Z" style="fill: #000; stroke-width: 0px;"/>
  <path d="M353.98,452.76c-1.36.92-3.17,2.9-5.34,3.44-2.84.7-5.55-2.3-5.24-5.22.33-3.13,2.22-4.85,5.39-4.78,3.19.07,4.86,1.9,5.19,6.56Z" style="fill: #000; stroke-width: 0px;"/>
  <path d="M434.12,457.13c-1.44-1.9-3.69-3.63-4.13-5.74-.63-3.01,1.53-5.07,4.73-5.18,3.34-.12,5.84,1.72,5.39,5.03-.29,2.09-2.53,3.92-3.89,5.86-.7.01-1.4.02-2.1.03Z" style="fill: #000; stroke-width: 0px;"/>
  <path d="M577.92,261.41c0-7.56,4.75-13.21,11.19-13.32,6.72-.11,12.71,6.44,12.6,13.79-.1,7.25-5.59,13.12-12.18,13.04-6.56-.08-11.61-5.97-11.61-13.51Z" style="fill: #000; stroke-width: 0px;"/>
  <path d="M205.81,261.64c-.15,7.58-5.27,13.33-11.83,13.27-6.6-.06-11.92-6.01-11.86-13.28.06-7.37,6.16-13.83,12.8-13.57,6.36.25,11.04,6.09,10.9,13.57Z" style="fill: #000; stroke-width: 0px;"/>
  <path d="M391.13,743.98c0,2.13-.01,4.25,0,6.38.05,6.58-1.63,12.52-6.46,17.26-5.66,5.56-12.99,6.37-19.81,2.04-2.78-1.77-5.39-3.86-7.92-5.99-3.62-3.04-7.34-5.41-12.28-6.09-5.01-.68-7.45-3.9-7.17-7.78.27-3.8,3.25-6.3,8.16-7,7.44-1.07,13.46,1.93,19.16,6.26,2.18,1.66,4.79,2.75,7.2,4.09.22-2.86.81-5.76.6-8.59-.76-10.52,4.04-16.55,14.6-17.79,2.08-.25,4.21-.34,6.3-.26,13.55.54,18.93,6.96,17.24,20.43-.15,1.19-.35,2.4-.27,3.59.16,2.65,1.38,3.65,3.8,1.97,2.84-1.98,5.59-4.09,8.44-6.05,5.1-3.51,10.75-4.6,16.79-3.4,3.72.74,6.46,2.81,6.7,6.86.23,4.08-2.2,6.89-5.96,7.31-6.94.77-11.78,4.93-16.72,9.07-5.85,4.91-12.19,8.31-19.79,4.58-8.23-4.04-10.88-11.59-11.27-20.19-.1-2.22-.02-4.45-.02-6.67-.44,0-.88-.02-1.32-.03Z" style="fill: #000; stroke-width: 0px;"/>
</svg>