<?xml version="1.0" encoding="UTF-8"?>
<svg id="Layer_1" data-name="Layer 1" xmlns="http://www.w3.org/2000/svg" viewBox="0 0 596.97 900">
  <path d="M68.56,38.35c3.84.05,5.59,3.03,4.33,6.17-.97,2.42-2.08,4.81-3.41,7.05-13.37,22.55-21.85,47.16-30.84,71.62-9.23,25.11-16.55,50.71-21.79,76.89-1.67,8.36-2.82,16.93-3.15,25.45-.92,23.07-1.23,46.17,3.91,68.89,3.6,15.94,7.85,31.72,16.35,45.9,13.77,22.95,32.68,40.68,56.17,53.33,14.5,7.82,29.47,14.76,44.16,22.24,9.07,4.61,18.16,9.22,26.97,14.28,22.54,12.95,35.78,33.02,41.51,57.81,7.37,31.87,7.52,63.94-.26,95.9-2.19,9.02-3.76,18.18-6.05,27.17-3.66,14.39-7.66,28.7-11.57,43.04-1.21,4.43-2.59,8.81-3.87,13.22-.54,1.86-1.36,3.63-3.67,3.02-2.34-.62-1.99-2.59-1.68-4.46,2.2-13.33,4.23-26.68,6.58-39.98,1.83-10.38,4.42-20.63,6.02-31.04,3.62-23.4,7.93-46.73,7.53-70.59-.21-12.38-.85-24.67-4.15-36.69-5.87-21.43-17.92-38.33-37.46-49.13-11.25-6.21-23.04-11.48-34.76-16.78-17.6-7.96-34.93-16.46-50.87-27.37-17.65-12.07-32.39-27.25-44.31-45.01-7.72-11.5-11.98-24.61-16.01-37.69-4.77-15.47-7.62-31.37-8.04-47.58-.74-28.18.46-56.28,7.29-83.77,5.11-20.55,11.33-40.81,19.33-60.46,9.03-22.2,18-44.44,30.23-65.16,2.75-4.65,5.53-9.29,8.5-13.8.8-1.22,2.35-1.95,3.02-2.47Z" style="fill: #000; stroke-width: 0px;"/>
  <path d="M596.76,245.9c1.38,30.71-4.36,60.11-16.29,88.34-7.71,18.25-20.55,32.66-34.74,46.04-16.5,15.55-36.22,26.04-56.38,35.79-12.4,6-25.12,11.34-37.6,17.19-10.12,4.74-19.23,11.13-27.16,18.95-10.98,10.83-16.8,24.6-20.42,39.32-3.52,14.32-3.7,28.96-2.83,43.55.67,11.31,2.24,22.57,3.4,33.85,1.84,17.78,5.65,35.21,9.07,52.72,2.5,12.81,4,25.81,5.99,38.72.3,1.95.82,3.88,1.27,5.81.43,1.83.41,3.61-1.74,4.16-2.15.55-3.07-1-3.58-2.79-2.64-9.27-5.02-18.62-7.94-27.8-7.04-22.12-11.34-44.91-15.9-67.58-5.36-26.63-4.32-53.49,1.12-80.06,4.17-20.34,12.95-38.4,28.96-52.24,11.01-9.52,23.89-16.07,36.9-22.33,17.45-8.4,35.22-16.16,51.89-26.13,24.13-14.44,43.73-33.36,56.1-58.82,8.69-17.89,13.39-37.14,15.31-56.91,3.36-34.55,1.31-68.66-8.15-102.32-5.54-19.73-11.84-39.14-18.97-58.32-2.14-5.74-4.19-11.52-6.16-17.32-4.71-13.89-11.23-26.92-18.25-39.74-2.34-4.27-4.52-8.62-6.63-13-1.25-2.59-.52-5.1,1.48-6.17,2.04-1.09,4.49-.25,5.9,2.25,6.75,11.9,14.18,23.49,20.03,35.83,16.79,35.4,30.95,71.83,39.46,110.22,4.3,19.37,5.26,39.08,5.85,58.81Z" style="fill: #000; stroke-width: 0px;"/>
  <path d="M229.66,686.37c.41,1.92.7,3.87,1.24,5.75,6.49,22.61,13.58,45.04,22.47,66.83,6.39,15.67,12.85,31.42,22.14,45.66,6.78,10.4,14.42,20.24,21.66,30.33.31.44.49.97.91,1.82,2.33-2.91,4.09-5.15,5.89-7.37,21.87-26.92,35.77-57.99,46.94-90.44,4.78-13.88,9.14-27.91,13.59-41.9,1.11-3.48,1.84-7.08,2.75-10.62-.25-.12-.51-.23-.76-.35-.42.57-.88,1.12-1.26,1.71-6.89,10.56-13.23,21.53-20.8,31.58-8.88,11.78-18.76,22.81-28.36,34.04-1.78,2.08-4.13,3.78-6.49,5.19-1.03.62-2.75.07-4.16.06.05-1.33-.3-2.84.22-3.96,7.15-15.4,17.81-28.52,27.64-42.18,6.05-8.41,11.87-16.99,17.94-25.38,3.59-4.96,7.5-9.69,11.19-14.57,1.24-1.64,2.34-3.4,3.36-5.18,1.35-2.36,3.58-3.02,5.93-1.64,1.61.94,3.28,1.79,4.9,2.72,2.33,1.34,3.06,3.54,2.79,6.01-.99,9.04-1.42,18.21-3.27,27.08-4.9,23.48-11.07,46.64-19.87,69.01-9.21,23.41-21.93,44.4-41.85,60.39-2.81,2.26-5.73,4.38-8.48,6.7-1.78,1.5-3.4,3.19-5,4.89-1.69,1.8-3.35,1.8-5.06.06-2-2.05-3.95-4.24-6.25-5.91-21.79-15.81-36.91-36.66-47.01-61.42-10.33-25.29-17.48-51.51-22.69-78.27-1.29-6.61-1.69-13.4-2.44-20.12-.15-1.34-.46-2.87.03-4.01.73-1.69,1.92-3.28,3.24-4.58,1.04-1.02,2.64-1.44,3.89-2.27,2.45-1.63,4.78-1.18,6.25,1.16,1.52,2.43,3.16,4.79,4.85,7.1,8.42,11.58,16.86,23.15,25.32,34.7,4.95,6.76,10.24,13.29,14.81,20.3,5.55,8.51,10.55,17.38,15.64,26.18.45.77.26,2.63-.34,3.12-.76.62-2.57.88-3.35.39-2.49-1.56-5.1-3.22-6.99-5.43-9.77-11.44-19.77-22.72-28.82-34.72-7.36-9.75-13.5-20.43-20.19-30.69-.47-.72-.96-1.41-1.45-2.12-.23.12-.46.24-.69.36Z" style="fill: #000; stroke-width: 0px;"/>
  <path d="M109.12,150.88c26.63.73,53.05,3.04,78.57,11.43,11.77,3.87,22.54,9.52,31.38,18.47,13.89,14.07,16.31,32.15,6.26,49.23-6.72,11.43-15.48,21.27-25.15,30.24-18.34,17.01-38.06,32.31-59.23,45.6-10.81,6.79-22.32,12.46-33.56,18.54-3.22,1.74-5.45,1.44-6.56-.39-1.09-1.81-.37-3.9,2.63-6.06,14.47-10.41,28.91-20.87,43.53-31.05,18.15-12.64,35.36-26.46,51.39-41.65,6.21-5.88,11.58-12.89,16.27-20.08,8.54-13.12,6.52-25.91-4.56-36.94-9.12-9.08-20.53-13.78-32.48-17.53-13.57-4.26-27.6-6.11-41.67-7.62-7.34-.79-14.7-1.43-22.07-1.9-14.22-.92-28.23.9-42.16,3.62-.71.14-1.56.52-2.11.27-1.45-.67-3.23-1.32-4.01-2.53-1.07-1.68-.2-3.67,1.52-4.64,2.02-1.13,4.23-2.01,6.45-2.68,11.59-3.49,23.45-4.77,35.55-4.3Z" style="fill: #000; stroke-width: 0px;"/>
  <path d="M487.68,150.91c11.34-.4,22.52.55,33.46,3.69,2.42.69,4.84,1.43,7.15,2.42,2.63,1.13,3.68,3.22,3.04,5.33-.65,2.12-2.66,3.06-5.54,2.57-3.73-.63-7.46-1.27-11.18-1.93-18.41-3.29-36.79-2.04-55.18.17-16.22,1.95-32.33,4.28-47.75,10.04-9.57,3.57-18.35,8.28-25.59,15.67-10.16,10.37-11.95,22.74-4.63,35.28,5.96,10.21,13.98,18.64,22.72,26.58,23.3,21.16,49.3,38.66,75.2,56.35,5.12,3.5,9.81,7.62,14.67,11.49.63.5,1.42,1.11,1.58,1.79.28,1.21.58,2.78.04,3.73-.46.82-2.08,1.33-3.19,1.33-1.18,0-2.41-.65-3.53-1.2-22.2-10.78-43.14-23.62-62.38-39.09-10.59-8.52-21.12-17.14-31.24-26.21-8.67-7.77-16.03-16.8-22.46-26.55-12.58-19.09-8.82-40.45,8.6-55.09,11.27-9.48,24.52-14.71,38.51-18.21,22.21-5.55,44.86-7.86,67.71-8.14Z" style="fill: #000; stroke-width: 0px;"/>
  <path d="M298.4,594.6c-.76,1.47-1.08,2.28-1.56,2.99-3.03,4.45-5.57,9.37-9.24,13.21-8.23,8.61-22.21,9.09-31.56,1.66-5.14-4.08-8.98-9.2-10.83-15.5-1.36-4.64-2.48-9.44-2.96-14.24-1.38-13.62-2.4-27.28-3.51-40.93-.16-1.97-.16-3.96-.01-5.93.16-2.27,1.32-3.96,3.66-4.46,2.31-.49,4.22.45,5.2,2.48,1.08,2.24,2.18,4.63,2.46,7.05,1.11,9.48,1.83,19.01,2.84,28.5.88,8.29,2.97,16.28,6.27,23.97,2.42,5.63,7.02,8.49,12.56,10.19,2.9.89,5.11-.55,6.98-2.52,6.88-7.26,10.51-15.95,11.72-25.86.54-4.42,1.75-8.79,2.99-13.09.68-2.38,1.69-5.07,4.81-5.16,3.3-.1,4.35,2.66,5.12,5.13,1.22,3.93,2.53,7.93,2.93,11.99.85,8.48,3.72,16.07,8.44,23.09,6.74,10.04,13.6,7.58,21.18-.69,1.57-1.71,2.55-4.21,3.16-6.52,1.8-6.77,3.73-13.56,4.75-20.47,1.34-9.08,1.77-18.29,2.77-27.42.26-2.38.97-4.78,1.91-6.98,1.28-3.02,3.47-4.2,5.87-3.72,2.38.48,3.94,2.45,3.81,5.78-.21,5.57-.75,11.14-1.18,16.7-.71,8.98-1.43,17.96-2.17,26.94-.83,10.11-2.99,19.64-9.78,27.79-9.66,11.6-29.03,12.61-38.69-.84-2.3-3.21-4.23-6.69-6.3-10.05-.46-.74-.82-1.55-1.62-3.06Z" style="fill: #000; stroke-width: 0px;"/>
  <path d="M377.8,43.74c-1.8,3.58-3.02,6.37-4.54,8.99-6.57,11.39-12.99,22.87-19.9,34.04-6.01,9.7-14.97,16.46-24.44,22.54-1.27.82-2.72,1.45-4.17,1.89-6.13,1.86-11.65-.47-12.2-9.34-.06-.99.9-2.66,1.73-2.92,1-.31,2.72.18,3.52.96,3.97,3.83,3.94,3.96,8.35.37,4.54-3.69,9.7-6.92,13.28-11.4,5.47-6.85,10.18-14.4,14.56-22.03,4.97-8.67,9.21-17.75,13.76-26.65.57-1.12,1.08-2.28,1.71-3.37,3-5.22,8.38-6.49,12.62-2.24,4.03,4.04,7.67,8.65,10.65,13.51,3.85,6.28,6.57,13.25,10.37,19.56,3.83,6.38,8.12,12.54,12.7,18.41,3.48,4.47,7.47,4.62,12.05,1.18,1.78-1.34,3.33-3.03,4.8-4.72,9.15-10.51,14.81-22.87,19.35-35.93,4.7-13.52,9.99-26.83,15.08-40.2.54-1.41,1.31-2.79,2.21-4,1.63-2.19,4.15-2.93,6.19-1.95,2.4,1.15,3.19,3.31,2.61,5.66-1.31,5.32-2.5,10.74-4.48,15.83-5.44,14.01-11.28,27.87-16.94,41.8-4.82,11.87-12.68,21.55-22.15,29.92-2.46,2.17-5.82,3.62-9.01,4.57-5.14,1.52-9.78-.15-13.67-3.79-7.05-6.6-12.39-14.49-16.98-22.92-3.06-5.62-5.85-11.39-9.12-16.88-2.17-3.64-4.98-6.9-7.91-10.87Z" style="fill: #000; stroke-width: 0px;"/>
  <path d="M219.17,44.02c-1.93,2.26-3.8,3.97-5.08,6.05-3.26,5.28-6.44,10.63-9.33,16.12-4.24,8.08-8.73,15.97-14.75,22.89-1.65,1.9-3.34,3.8-5.23,5.45-5.59,4.88-12.33,5.56-18.75,1.81-2.23-1.3-4.35-2.94-6.18-4.77-8.76-8.71-16.14-18.33-20.65-30.05-5.66-14.7-11.79-29.21-17.52-43.89-1.4-3.58-2.13-7.44-2.9-11.23-.63-3.06.51-5.2,2.75-6.07,2.18-.85,4.72-.03,6.27,2.44,1.19,1.88,2.09,3.98,2.88,6.08,6.28,16.59,12.45,33.21,18.75,49.79,3.73,9.83,9.83,18.19,16.65,26.05,1.16,1.33,2.65,2.47,4.17,3.38,3.96,2.36,7.01,1.97,10.2-1.35,7.52-7.84,12.44-17.34,17.39-26.9,3.67-7.08,8.12-13.77,12.35-20.56.98-1.58,2.4-2.93,3.78-4.21,5.03-4.66,10.6-3.69,13.73,2.41,3.62,7.05,6.94,14.26,10.75,21.21,4.63,8.45,9.5,16.76,14.55,24.97,1.72,2.8,4.02,5.37,6.48,7.56,4.17,3.7,8.62,7.1,13.06,10.48,2.81,2.13,3.39,1.92,5.65-.95.33-.42.62-1.04,1.06-1.2,1.03-.37,2.33-.97,3.17-.63.84.35,1.77,1.74,1.75,2.66-.11,6.38-3.62,11.81-11.61,9.77-1.8-.46-3.59-1.29-5.15-2.3-9.91-6.42-19.1-13.72-25.21-24.03-7.24-12.24-14.08-24.72-21.07-37.1-.61-1.07-1.11-2.2-1.95-3.88Z" style="fill: #000; stroke-width: 0px;"/>
  <path d="M179.26,774.07c.44-10.17.87-20.35,1.34-30.52.07-1.62.24-3.24.47-4.84.47-3.15,2.28-5,4.74-4.97,2.46.03,4.29,1.86,4.67,5.05.36,3.04.63,6.11.63,9.16.02,11.08-.12,22.17-.15,33.25-.02,7.39-.43,14.82.21,22.15.54,6.13,1.45,12.53,3.79,18.15,4.5,10.78,9.33,21.57,15.49,31.45,7.83,12.56,20.11,20.35,33.99,24.94,12.3,4.06,25.02,6.85,37.46,10.54,4.1,1.21,7.94,3.36,11.79,5.28,1.64.82,3.04,2.27,2.19,4.39-.85,2.11-2.76,2.03-4.62,1.72-16.89-2.86-33.83-5.62-50.13-10.95-7.64-2.5-15.05-6.04-22.12-9.91-10.5-5.75-17.83-14.75-23.14-25.39-3.66-7.34-7.49-14.6-10.86-22.07-4.38-9.72-6.68-19.97-6.67-30.68,0-8.92,0-17.83,0-26.75h.92Z" style="fill: #000; stroke-width: 0px;"/>
  <path d="M417.88,774.54c0,11.88.73,23.82-.27,35.62-.63,7.38-3.2,14.81-6.1,21.72-3.79,9.03-8.67,17.6-13.24,26.3-5.06,9.64-12.9,16.56-22.19,21.95-8.47,4.92-17.47,8.63-27.04,10.7-14.35,3.1-28.75,5.97-43.13,8.92-.7.14-1.53.4-2.12.16-1.08-.44-2.55-1.02-2.87-1.9-.33-.89.19-2.57.94-3.28,1.34-1.27,3.01-2.38,4.75-3.01,6.26-2.26,12.54-4.48,18.92-6.36,9.16-2.69,18.65-4.41,27.58-7.71,15.95-5.89,29.39-15.31,37.25-31.06,5.59-11.18,12-22.06,14.25-34.61.65-3.62,1.19-7.32,1.2-10.98.05-17.12-.15-34.24-.16-51.36,0-3.6.26-7.21.65-10.78.35-3.24,2.17-5.05,4.61-5.12,2.5-.07,4.55,1.84,4.79,5.19.58,7.99.89,16.01,1.32,24.01.21,3.87.45,7.74.67,11.6.06,0,.12,0,.18,0Z" style="fill: #000; stroke-width: 0px;"/>
  <path d="M431.5,211.85c-.96,1.73-1.54,2.79-2.13,3.85-2.17,3.94-4.27,7.93-6.56,11.8-.95,1.6-2.18,3.12-3.56,4.37-2.1,1.92-4.63,2.84-7.48,1.75-2.81-1.08-3.91-3.51-3.97-6.23-.12-5.29.04-10.59.14-15.89.03-1.67.24-3.33-.26-5.21-1.79,2.62-3.56,5.25-5.38,7.85-.72,1.03-1.44,2.09-2.32,2.97-1.49,1.51-3.18,2.95-5.45,1.56-2.1-1.29-1.85-3.37-1.24-5.32.82-2.57,1.7-5.14,2.78-7.61,2.02-4.62,4.12-9.21,6.32-13.74,1.81-3.71,4.45-5.39,7.57-5.01,3.67.45,5.33,3.07,6.34,6.23,2.03,6.37,1.22,12.84.51,19.29-.23,2.08-.57,4.16-.86,6.23.26.08.53.17.79.25,2.38-4.58,4.78-9.15,7.11-13.76,1.63-3.21,3.08-6.51,4.74-9.71,1.6-3.09,3.89-4.44,6.38-4.03,2.53.42,3.99,2.31,4.63,5.91,1.63,9.1,3.27,18.21,5.54,27.46.3-.84.66-1.65.89-2.51,3.1-11.38,6.16-22.77,9.27-34.15.4-1.47.83-2.96,1.5-4.33,1.2-2.47,3.58-3.53,5.77-2.79,2.21.76,3.34,2.96,2.72,5.77-1.05,4.75-2.23,9.47-3.35,14.2-3.25,13.75-6.35,27.55-9.85,41.24-.96,3.77-2.84,7.4-4.83,10.78-2.18,3.7-5.59,4.94-8.93,4.03-3.34-.91-5.41-3.63-5.48-8.09-.08-5.12.12-10.26.45-15.38.4-6.32.56-12.6-1.03-18.79-.19-.73-.39-1.47-.79-3.01Z" style="fill: #000; stroke-width: 0px;"/>
  <path d="M152.24,224.69c1.52-8.32,3.05-16.63,4.57-24.95.24-1.33.35-2.69.69-3.99.56-2.15,1.83-3.74,4.12-4.18,2.27-.44,4.24.37,5.39,2.27,1.77,2.92,3.28,6,4.82,9.04,2.72,5.37,5.39,10.77,8.08,16.16.24-.04.48-.09.72-.13-.07-1.14-.11-2.28-.21-3.41-.39-4.84-1.11-9.68-1.07-14.52.03-3.16.89-6.4,1.87-9.45.84-2.63,2.94-4.31,5.86-4.52,2.91-.21,5.31,1.09,6.47,3.6,3.47,7.51,6.72,15.13,9.88,22.77.81,1.96.87,4.23-1.47,5.44-2.19,1.14-3.93-.12-5.18-1.71-2.17-2.75-4.09-5.7-6.1-8.57-.51-.72-.96-1.48-2.14-2.13.07,1.41.16,2.82.19,4.23.11,5.48.32,10.95.25,16.43-.04,2.92-1.09,5.57-4.19,6.63-3.09,1.06-5.83,0-7.79-2.35-2.01-2.39-3.69-5.09-5.28-7.79-2.13-3.61-4.03-7.34-6.03-11.02-.35.03-.7.06-1.05.09-.49,4.49-1.37,8.97-1.39,13.46-.04,6.66.57,13.31.81,19.98.06,1.78-.02,3.64-.43,5.36-1.45,6.05-7.95,8.11-12.31,3.67-2.14-2.18-3.83-5.07-4.9-7.95-2.03-5.47-3.76-11.1-5.11-16.78-3.4-14.28-6.51-28.63-9.75-42.95-.71-3.13.27-5.48,2.65-6.28,2.35-.79,4.73.46,6.02,3.28.52,1.14.85,2.37,1.18,3.58,3.08,11.3,6.13,22.6,9.2,33.9.27.99.61,1.97.92,2.95l.71-.16Z" style="fill: #000; stroke-width: 0px;"/>
  <path d="M429.91,603.86c.05-25.17,4.32-49.63,12.8-73.33,7.24-20.24,17.73-38.78,29.54-56.64,6.91-10.44,13.51-21.08,20.29-31.6,1.56-2.42,3.35-4.69,4.88-7.13,1.28-2.04,2.15-4.36,3.55-6.3.96-1.34,2.38-2.7,3.88-3.16.89-.28,2.72.89,3.4,1.9,1.17,1.75.33,3.53-.89,5.19-2.16,2.94-4.36,5.9-6.16,9.06-10.83,19.02-21.44,38.17-32.33,57.15-16.52,28.78-26.51,59.64-30.15,92.6-.96,8.68-2.08,17.34-3.11,26.01-.21,1.76-.79,3.32-2.82,3.32-2.22,0-2.82-1.69-2.84-3.55-.06-4.5-.02-9.01-.02-13.51Z" style="fill: #000; stroke-width: 0px;"/>
  <path d="M166.79,603.4c0,4.5.02,9.01,0,13.51-.01,1.9-.3,3.88-2.66,3.99-2.54.12-2.89-1.91-3.07-3.91-2.26-24.8-5.61-49.42-13.08-73.27-5.9-18.85-15.18-36.15-24.91-53.25-9.89-17.37-19.52-34.89-29.32-52.32-.87-1.55-2.12-2.88-3.22-4.29-.61-.78-1.41-1.43-1.9-2.26-1.26-2.16-.63-4.55,1.35-5.62,1.86-1.01,4.08-.28,5.35,1.72,12.27,19.37,24.6,38.71,36.82,58.12,18.27,29.04,29.74,60.52,33.55,94.7.52,4.65,1.04,9.31,1.35,13.98.2,2.96.04,5.94.04,8.91-.09,0-.19,0-.28,0Z" style="fill: #000; stroke-width: 0px;"/>
  <path d="M131.1,762.7c1.04-33.16,4.26-62.66,11.78-91.59,1.86-7.15,3.82-14.26,5.76-21.39.19-.69.47-1.37.82-2,.97-1.74,2.4-2.79,4.45-2.12,2.07.68,2.64,2.42,2.25,4.36-.82,4.06-1.82,8.09-2.7,12.14-2.99,13.72-6.49,27.36-8.81,41.2-3.74,22.37-4.7,45-3.73,67.65.95,22.08,7.17,42.73,18.62,61.72,2.23,3.7,4.44,7.42,6.58,11.18,1.02,1.8,2.36,3.92.04,5.53-2.29,1.6-3.82-.33-5.19-1.91-16.81-19.36-26.93-41.64-29.04-67.32-.57-6.9-.66-13.85-.82-17.44Z" style="fill: #000; stroke-width: 0px;"/>
  <path d="M465.59,764.14c.38,12.71-1.39,27.14-5.68,41.23-4.92,16.14-13.77,30.04-24.71,42.71-.29.34-.6.84-.97.91-1.23.23-2.86.83-3.63.29-.76-.54-1.21-2.48-.85-3.46.79-2.17,2.1-4.17,3.34-6.15,6.36-10.19,11.95-20.72,15.81-32.17,4.45-13.18,6.86-26.67,7.13-40.55.67-34.96-2.71-69.44-12.27-103.2-1.23-4.33-2.09-8.76-3.08-13.15-.47-2.1-.27-4.03,2.02-4.99,1.87-.78,3.99.27,4.81,2.74,1.62,4.86,3.09,9.78,4.42,14.73,8.69,32.45,13.13,65.48,13.66,101.05Z" style="fill: #000; stroke-width: 0px;"/>
  <path d="M557.71,227.95c0,16.52.54,30.78-.13,44.97-.85,18.09-5.51,35.38-13.54,51.69-1.66,3.38-3.21,4.5-4.82,3.43-2.57-1.7-1.11-3.79-.28-5.74,7.64-18.1,11.41-37.1,11.37-56.62-.04-18.36-1.46-36.71-2.21-55.07-.4-9.72-.66-19.45-.97-29.17-.02-.72,0-1.46.17-2.15.45-1.81,1.48-3.15,3.49-3.2,2.13-.06,3.42,1.2,3.75,3.19.44,2.66.78,5.36.93,8.05.83,14.3,1.59,28.61,2.25,40.62Z" style="fill: #000; stroke-width: 0px;"/>
  <path d="M38.47,234.59c1.36-20.83,2.43-37.19,3.5-53.55.04-.54.07-1.08.19-1.61.45-1.94,1.51-3.35,3.65-3.33,2.27.02,3.4,1.5,3.69,3.59.19,1.42.22,2.88.14,4.31-.85,16.19-1.71,32.38-2.61,48.56-1.1,19.73-1.55,39.44,1.8,59.03,1.83,10.7,4.98,21.02,9.11,31.05.31.75.89,1.57.77,2.26-.19,1.11-.6,2.7-1.39,3.06-.79.36-2.58-.19-3.18-.95-1.21-1.52-1.99-3.4-2.82-5.2-8.91-19.32-12.58-39.76-12.84-60.89-.13-10.27-.02-20.53-.02-26.34Z" style="fill: #000; stroke-width: 0px;"/>
  <path d="M94.68,358.38c.63.32,1.95.74,2.98,1.54,19.74,15.46,41.9,26.61,64.61,36.92,10.41,4.72,20.42,10.31,30.59,15.55,8.01,4.13,15.99,8.28,23.95,12.51,1.98,1.05,4,2.2,5.61,3.71.81.76,1.35,2.69.95,3.65-.7,1.71-2.46,1.5-3.94.62-2.71-1.61-5.26-3.56-8.11-4.85-13.03-5.92-26.05-11.88-39.25-17.4-18.72-7.83-37.44-15.59-54.39-26.96-8.22-5.52-16.42-11.08-24.59-16.69-1.08-.74-2.13-1.75-2.76-2.88-1.55-2.81.46-5.83,4.34-5.73Z" style="fill: #000; stroke-width: 0px;"/>
  <path d="M502.17,358.34c3.97.08,5.83,3.32,4.13,6-.74,1.17-1.9,2.18-3.07,2.97-10.23,6.88-20.39,13.88-30.8,20.48-15.82,10.03-33.25,16.75-50.45,23.92-10.38,4.32-20.74,8.72-30.97,13.39-4.56,2.08-8.81,4.88-13.15,7.43-1.6.94-3.25,1.7-4.53-.11-1.28-1.8-.19-3.34,1.41-4.28,5.44-3.17,10.86-6.39,16.44-9.31,11.72-6.14,23.52-12.13,35.32-18.13,3.69-1.88,7.42-3.68,11.2-5.36,16.33-7.22,32.17-15.38,47.11-25.18,4.81-3.16,9.34-6.75,14.05-10.06,1.21-.85,2.63-1.4,3.31-1.75Z" style="fill: #000; stroke-width: 0px;"/>
  <path d="M297.06,323.49c-.56.62-1.27,2.08-2.12,2.18-1.07.11-2.8-.61-3.29-1.5-1.59-2.91-3.02-5.97-4.03-9.13-4.29-13.46-8.69-26.89-12.52-40.48-4.68-16.64-10.68-32.69-19.33-47.68-.62-1.08-1.51-2-2.25-3.02-1.55-2.12-1.37-4.48.43-5.74,1.79-1.26,4.17-.61,5.53,1.6,11.88,19.35,21.94,39.46,26.97,61.84,2.29,10.18,5.49,20.15,8.16,30.24.96,3.65,1.57,7.39,2.46,11.68Z" style="fill: #000; stroke-width: 0px;"/>
  <path d="M344.66,220.44c-.58,1.45-.8,2.45-1.33,3.23-8.46,12.5-14.2,26.24-18.52,40.6-3.37,11.21-6.18,22.58-9.72,33.73-2.67,8.39-6.1,16.53-9.21,24.78-.19.5-.36,1.19-.75,1.4-1.16.62-2.54,1.59-3.6,1.36-.74-.16-1.61-2.11-1.53-3.19.17-2.49.74-4.99,1.41-7.41,5.24-18.81,10.05-37.77,15.99-56.36,4.03-12.61,10.91-24.07,17.9-35.34.8-1.3,1.26-2.95,2.35-3.89,1.09-.93,2.83-1.67,4.18-1.53,1.03.1,1.91,1.71,2.82,2.62Z" style="fill: #000; stroke-width: 0px;"/>
  <path d="M94.85,49.37c-.49,1.73-.78,2.86-1.12,3.97-3.71,12.26-8.67,24.02-14.11,35.61-9.37,19.95-15.62,41.02-21.5,62.19-.38,1.38-.79,2.78-1.36,4.09-.66,1.53-1.81,2.61-3.61,2.01-1.79-.6-2.1-2.14-1.71-3.77,2.39-9.88,4.56-19.83,7.29-29.62,5.42-19.46,12.94-38.17,20.67-56.8,1.59-3.82,2.94-7.74,4.57-11.55,1.13-2.64,2.43-5.22,3.89-7.69.95-1.6,2.72-2.43,4.42-1.47,1.15.65,1.84,2.12,2.57,3.03Z" style="fill: #000; stroke-width: 0px;"/>
  <path d="M506.43,46c.59.46,1.94,1.11,2.69,2.18,1.23,1.75,2.26,3.71,3.04,5.71,8.81,22.67,18.89,44.87,25.38,68.38,2.82,10.24,5.16,20.62,7.68,30.94.41,1.7.26,3.39-1.69,4.02-1.96.63-3.04-.67-3.7-2.28-.48-1.16-.86-2.37-1.19-3.59-6.71-24.92-14.9-49.29-26.04-72.66-4.09-8.58-6.81-17.82-10.01-26.81-1.15-3.24.35-5.84,3.84-5.89Z" style="fill: #000; stroke-width: 0px;"/>
  <path d="M419.59,63.78c.37-1.05.77-2.09,1.09-3.16,4.54-14.83,9.29-29.57,17.4-42.96,1.12-1.85,2.23-3.72,3.54-5.42,1.28-1.66,3.12-2.32,5.02-1.15,1.94,1.2,1.85,3.07,1.11,5.03-4.98,13.22-9.86,26.48-14.95,39.65-1.84,4.76-4.09,9.37-6.34,13.96-.65,1.32-1.82,2.49-2.99,3.43-4.03,3.23-8.98,1.78-10.4-3.33-1.53-5.54-2.5-11.24-3.72-16.88-.44-2.02-.89-4.05-1.33-6.07-.4-1.82-.31-3.58,1.71-4.29,2.2-.77,3.51.67,4.08,2.51,1.52,4.89,2.86,9.84,4.24,14.78.35,1.26.59,2.55.87,3.83.22.02.44.04.66.06Z" style="fill: #000; stroke-width: 0px;"/>
  <path d="M177.76,63.76c.56-2.43,1.02-4.89,1.69-7.29,1.06-3.81,2.18-7.61,3.45-11.36.61-1.81,1.87-3.3,4.08-2.53,2.02.7,2.11,2.48,1.73,4.29-1.5,7.14-2.99,14.28-4.54,21.41-.66,3.04-1.88,5.8-5.34,6.42-3.44.62-6.06-1.11-7.74-3.86-2.11-3.43-4.2-6.97-5.61-10.72-4.85-12.89-9.39-25.91-14.09-38.86-.58-1.6-1.4-3.12-2.16-4.64-1.18-2.37-.89-4.47.83-5.54,1.7-1.06,4.09-.61,5.37,1.58,3.58,6.14,7.5,12.17,10.2,18.7,4.02,9.72,7.12,19.82,10.61,29.76.32.9.65,1.79.97,2.68l.56-.04Z" style="fill: #000; stroke-width: 0px;"/>
  <path d="M311.78,230.04c2.5-11.23,4.53-22.12,7.39-32.8,4.87-18.19,10.49-36.15,18.81-53.14.51-1.05.82-2.46,1.68-3.02,1.21-.8,2.94-1.51,4.26-1.26,1.88.35,2.44,2.2,2.13,4.1-.1.61-.32,1.22-.58,1.79-6.49,14.14-10.25,29.19-14.74,44.01-4.09,13.52-8.41,26.97-12.65,40.44-.54,1.71-1.47,3.46-3.56,2.82-1.05-.32-1.74-1.82-2.74-2.95Z" style="fill: #000; stroke-width: 0px;"/>
  <path d="M284.45,230.8c-.58.59-1.46,2.18-2.28,2.15-1.12-.04-2.75-1.08-3.18-2.11-1.7-4.06-3.18-8.23-4.45-12.44-3.97-13.19-7.59-26.48-11.76-39.6-3.51-11.05-7.6-21.92-11.43-32.87-.24-.68-.77-1.47-.6-2.03.45-1.43.87-3.21,1.94-4.01,1.53-1.16,3.4-.38,4.44,1.21,1.02,1.57,1.72,3.35,2.52,5.06,10.8,23.15,17.74,47.52,22.95,72.43.79,3.78,1.18,7.65,1.86,12.22Z" style="fill: #000; stroke-width: 0px;"/>
  <path d="M274.25,560.46c1.06,2.13,2.08,3.85,2.78,5.68,1.84,4.84,1.67,9.5-1.5,13.86-1.69,2.33-3.16,4.82-4.81,7.19-1.12,1.61-2.65,2.53-4.65,1.79-2.02-.75-2.78-2.58-2.27-4.39.72-2.54,1.82-5.04,3.15-7.34,1.41-2.43,2.6-4.87,1.93-7.64-.37-1.53-1.22-3.21-2.37-4.24-3.37-2.98-3.64-6.4-.2-9.38,1.42-1.23,3.12-2.12,4.7-3.16.8-.53,1.62-1.03,3.31-2.09-3.97-2.02-7.26-3.73-10.58-5.39-1.67-.83-3.59-1.31-5.01-2.44-1.8-1.44-2.34-3.61-1.4-5.88.9-2.2,2.75-3.32,4.95-2.97,3.34.54,6.8,1.1,9.84,2.48,3.57,1.62,6.9,3.92,10.05,6.29,5.63,4.24,5.06,10.84-1.09,14.3-2.17,1.22-4.49,2.19-6.84,3.32Z" style="fill: #000; stroke-width: 0px;"/>
  <path d="M322.61,560.51c-2-.94-3.86-1.78-5.69-2.69-7.88-3.94-8.43-11.02-1.05-15.87,3.96-2.61,8.18-4.86,12.46-6.9,1.79-.85,4.02-.9,6.07-1.02,2.48-.14,4.38.96,5.2,3.44.76,2.29-.21,5.01-2.46,6.3-1.3.75-2.89.98-4.25,1.64-3.26,1.59-6.47,3.29-10.43,5.33,2.24,1.39,3.71,2.18,5.04,3.16,1.5,1.11,3.11,2.21,4.26,3.65,1.92,2.41,1.45,5.2-.84,7.21-3.62,3.18-4.24,7-1.79,11.22.68,1.17,1.5,2.25,2.12,3.45.62,1.19,1.24,2.42,1.57,3.71.72,2.8-.13,5.11-2.05,5.81-2.58.94-4.07-.65-5.32-2.54-1.69-2.55-3.4-5.09-4.99-7.7-3.18-5.23-1.98-10.37.56-15.41.43-.86.97-1.67,1.62-2.77Z" style="fill: #000; stroke-width: 0px;"/>
  <path d="M313.99,73.85c.72-.47,1.05-.61,1.28-.84,5.83-6.26,11.61-12.57,17.5-18.76,1.33-1.4,2.96-2.66,4.68-3.51,1.88-.92,3.77-.28,4.93,1.57,1.13,1.81.46,3.41-.83,4.91-5.5,6.41-11.07,12.78-16.42,19.31-3.94,4.8-7.54,6.61-11.7,5.32-3.73-1.16-5.82-5-5.98-11.1-.03-1.35-.24-2.85.27-4,.54-1.2,1.7-2.66,2.85-2.93,1.74-.41,2.68,1.17,2.86,2.86.24,2.23.36,4.46.56,7.18Z" style="fill: #000; stroke-width: 0px;"/>
  <path d="M282.74,73.94c.17-2.49.29-4.53.44-6.56.14-1.83.65-3.55,2.81-3.65,2.34-.11,3.21,1.69,3.11,3.6-.18,3.37-.17,6.92-1.27,10.02-1.77,4.98-7.45,6.43-11.82,3.38-1.66-1.16-3.07-2.76-4.38-4.34-4.26-5.12-8.38-10.35-12.63-15.47-1.02-1.24-2.31-2.25-3.47-3.37-1.58-1.52-2.36-3.31-1.09-5.31,1.32-2.1,3.43-2.38,5.45-1.28,1.54.84,2.93,2.07,4.16,3.35,6.11,6.34,12.14,12.74,18.69,19.65Z" style="fill: #000; stroke-width: 0px;"/>
</svg>