<?xml version="1.0" encoding="UTF-8"?>
<svg id="Layer_1" data-name="Layer 1" xmlns="http://www.w3.org/2000/svg" viewBox="0 0 900 872.52">
  <path d="M137.07,514.56c-3.05,1.52-6.1,3.03-9.14,4.56-30.11,15.21-57.83,34.19-84.98,54.06-9.23,6.76-18.43,13.57-27.69,20.29-1.72,1.25-3.59,2.43-5.57,3.15-3.24,1.16-6.33.56-8.42-2.38-1.99-2.8-1.51-5.8.47-8.38,1.38-1.79,3.12-3.34,4.88-4.79,28.72-23.71,58.48-45.95,91.15-64.06,1.36-.76,2.96-3.09,2.74-4.41-4.25-25.15-2.19-50.2.78-75.25,4.68-39.46,15.77-77.24,29.21-114.5,16.36-45.34,32.45-90.79,48.05-136.4,5.31-15.53,8.77-31.69,13.1-47.55,3.72-13.66,6.73-27.56,11.36-40.9,8.56-24.67,10.5-49.66,6.39-75.29-.66-4.09-1.34-8.17-2.11-12.24-.76-4-.25-7.46,3.71-9.56,3.33-1.76,8-1.01,10.36,2.52,2,2.99,3.58,6.6,4.21,10.13,4.66,25.81,6.32,51.56-.57,77.42-7.14,26.81-12.78,54.02-20.3,80.72-6.2,22-14.2,43.5-21.39,65.22-.47,1.42-.84,2.87-1.47,5.03,1.71-.64,2.66-.84,3.45-1.31,18.39-10.97,38.58-17.25,59.1-22.63,3.17-.83,4.37-2.16,4.42-5.54.43-29.6,1.06-59.21,1.61-88.81.54-29.25-2.54-57.99-12.24-85.76-2.38-6.82-5.29-13.44-7.96-20.16-1.24-3.13-1.03-5.95,2.07-7.89,2.73-1.71,6.27-.68,8.16,2.32.68,1.08,1.13,2.29,1.68,3.44,6.18-2.15,7.56-2.01,9.7,4.07,3.56,10.08,6.6,20.38,9.33,30.72,4.22,16.02,8.19,32.11,11.85,48.27,1.03,4.53.79,9.38.81,14.09.02,5.54-.88,6.34-7.1,6.9.35,3.56.7,7.13,1.09,11.03,1.13-.25,1.88-.22,2.4-.56,9.39-6.1,20-7.34,30.8-7.77,5.34-.21,10.2,1.28,14.35,4.72,1.91,1.58,3.57,2.17,6.16.97,3.54-1.63,6.09.39,8.31,3.33,8.4,11.14,9.17,24.03,8.93,37.2-.02,1.28-.15,2.56-.15,3.85,0,.38.27.77.59,1.58,1.31-.66,2.52-1.26,3.72-1.89,8.83-4.64,17.21-3.23,24.28,3.75,3.5,3.45,7.53,6.36,11.03,9.8,1.67,1.64,2.96,3.83,3.9,6.01,1.94,4.51,3.52,9.18,5.64,14.81,1.6-2.25,2.61-3.55,3.48-4.93,6.5-10.22,14.22-19.39,23.88-26.76,8.94-6.82,19.05-9.85,29.8-5.66,4.82,1.88,8.26,2.14,12.8-.42,2.71-1.52,6.68-1.33,10.02-1.06,7.19.58,13.47,3.69,18.92,8.37,2.88,2.47,5.11,5.26,8.76.34,2.23-3,6.04-1.38,8.35.97,5.1,5.19,9.9,10.68,14.8,16.07.93,1.02,1.73,2.15,3.01,3.75.63-1.64,1.17-2.6,1.37-3.63,1.3-6.71,4.93-12.08,9.38-17.07,5.37-6.02,11.85-8.28,19.68-6.26,2.43.63,4.07.38,6.03-1.62,1.39-1.42,4.31-2.2,6.36-1.92,2.53.35,3.22-.3,3.87-2.48,2.27-7.67,4.41-15.39,7.15-22.89,5.54-15.13,14.04-20.32,30.03-18.59,3.65.39,6.22.3,8.42-3.51,2.12-3.68,6.46-3.3,10.13-2.13,2.95.94,5.69,2.5,9.14,4.06.46-2.12,1.04-4.09,1.3-6.11,3.31-25.71,7.71-51.2,15.68-75.94,2.76-8.56,5.79-17.04,8.81-25.51,1.33-3.73,5.04-5.43,8.25-4.03,3.02,1.32,4.37,5.21,2.52,8.43-7.42,12.95-10.56,27.36-14,41.59-6.81,28.24-6.54,56.99-5.55,85.79.77,22.3.99,44.62,1.34,66.93.05,2.88.44,4.8,3.74,5.65,21.25,5.46,42.05,12.14,61.02,23.54.33.2.8.18,2.02.44-.48-1.8-.76-3.21-1.22-4.56-4.35-12.57-9.31-24.97-12.96-37.74-6.63-23.22-12.49-46.67-18.67-70.03-3.04-11.48-5.79-23.04-9.17-34.41-7.1-23.86-6.88-47.99-3.29-72.28.73-4.94,1.41-10.01,3.17-14.62,1.11-2.91,3.79-5.71,6.5-7.33,1.72-1.03,6.27-.66,7,.58,3.25,5.52,9.31,9.31,9.06,17.13-.54,16.57-1.16,33.23.06,49.72,1.04,14.04,4.3,27.96,7.16,41.81,3.55,17.2,7.58,34.31,11.62,51.41,3.48,14.73,6.31,29.72,11.14,44.01,6.3,18.66,13.67,37.03,21.69,55.03,11.07,24.85,20.68,50.18,29.05,76.05,9.77,30.2,20.17,60.19,30.58,90.18,3.01,8.67,4.61,17.33,4.02,26.49-.83,12.97-1.38,25.97-2.08,38.95-.05.99-.05,2.16-.56,2.91-.8,1.17-2.02,2.05-3.06,3.05-.92-1.09-2.28-2.05-2.67-3.31-.48-1.58-.16-3.4-.21-5.11-.36-13.14-.51-26.29-1.24-39.41-.21-3.77-2.11-7.45-3.24-11.18-.49.09-.98.18-1.47.27.08,1.45.12,2.91.26,4.36,2.1,21.67,3.85,43.38.21,65.03-.84,4.96.24,7.23,4.62,9.63,32.36,17.76,61.66,39.93,89.97,63.47,5.59,4.65,6.88,9.16,3.93,12.71-2.92,3.51-7.51,3.19-13.43-1.03-22.49-16.01-44.58-32.6-67.57-47.85-16.04-10.65-33.28-19.5-50.01-29.11-1.4-.81-2.98-1.3-4.48-1.94-.27.3-.53.61-.8.91,1.2,1.63,2.07,3.73,3.65,4.82,15.22,10.48,18.9,26.66,21.13,43.3,1.13,8.46.98,17.11,1.15,25.68.27,13.44.47,26.89.39,40.33-.04,5.98-.32,12.05-1.36,17.93-5.03,28.46-10.1,56.97-20.93,83.95-3.55,8.86-8.51,17.14-12.56,25.81-3.93,8.4-8.1,16.75-11.14,25.49-6.34,18.21-14.19,35.4-29.33,48.09-5.89,4.93-12.18,9.49-18.71,13.54-7.52,4.66-15.55,8.5-23.28,12.83-10.68,5.98-22.45,8.47-34.28,10.58-10.24,1.83-20.53,3.43-30.87,4.48-3.16.32-6.67-1.25-9.79-2.51-2.64-1.06-4.23-3.82-2.66-6.28.99-1.55,4.12-2.96,5.9-2.58,7.8,1.67,15.35.82,22.96-.82,5.87-1.26,11.76-2.45,17.67-3.53,11.54-2.1,22.24-6.17,32.17-12.51,4.8-3.06,10.05-5.45,15.18-7.97,18.53-9.07,33.45-21.84,42.26-40.93.63-1.36,1.16-2.75.91-4.64-2.77,2.99-5.29,6.26-8.35,8.91-6.79,5.88-13.4,12.12-20.89,16.98-11.35,7.38-22.86,14.96-35.26,20.18-15.46,6.51-31.17,13.75-48.27,14.47-17.57.73-35.12-.63-52.13-6.02-18.26-5.79-36.74-10.87-54.19-19.03-4.57-2.14-9.84-3.08-14.89-3.86-10.6-1.64-21.27-2.74-31.9-4.2-4.09-.56-7.46.51-10.85,2.82-8.98,6.11-17.91,12.34-27.28,17.81-18.27,10.66-38.5,15.06-59.28,17.35-31.2,3.45-62.52,2.99-93.83,2.89-28.15-.09-50.71-11.73-68.65-33.22-4.8-5.75-10.71-10.56-16.06-15.86-5.98-5.93-12.41-11.51-17.76-17.97-25.36-30.61-42.86-65.09-50.26-104.4-2.28-12.09-5.11-24.08-7.01-36.22-1.27-8.15-1.78-16.48-1.9-24.73-.38-26.76,3.48-53.04,9.87-78.97,2.54-10.31,7.72-19.33,13.61-28.02.92-1.35,1.79-2.74,2.68-4.11-.32-.31-.65-.63-.97-.94ZM641.92,447.78c0-1.33.11-2.03-.02-2.68-3.12-16-5.97-32.06-9.46-47.98-7.77-35.41-11.39-71.17-9.61-107.38.96-19.57,2.71-39.1,3.88-58.65.14-2.35-.66-5.01-1.79-7.11-1.71-3.17-1.75-5.68.45-8.67,1.57-2.13,3.12-4.84,3.26-7.37,1-18.42,1.71-36.86,2.28-55.3.06-1.88-.96-4.16-2.21-5.64-6.78-8.03-16.28-9.45-25.99-10.07-6.7-.43-8.6.98-10.56,7.42-1.66,5.47-2.68,11.22-5.02,16.38-4.06,8.96-5.67,18.21-5.7,27.92-.03,10.44-.11,20.89-.49,31.32-.23,6.47-3.57,10.18-8.28,10.11-4.58-.07-7.52-3.59-8.03-9.89-.28-3.42-.15-6.87-.45-10.28-.73-8.29-4.2-15.43-9.89-21.38-2.42-2.53-5.56-4.66-9.1-2-4.32,3.25-7.52,7.21-7.94,13.11-.39,5.4-1.81,10.71-2.32,16.11-.77,8.05-1.15,16.14-1.74,24.81,4.55-2.51,6.63-.11,8.03,3.28,1.91,4.62,4.09,9.19,5.38,13.98,6.68,24.85,13.88,49.59,19.35,74.71,3.54,16.26,4.46,33.09,6.34,49.69.16,1.4-1.33,2.99-2.06,4.49-.98-1.46-2.61-2.82-2.84-4.38-1.01-6.93-1.44-13.94-2.43-20.87-1.06-7.41-2.5-14.76-3.78-22.14-.26,9.7.53,19.26.18,28.77-.47,12.84-1.91,25.63-2.75,38.46-.31,4.67-2.02,7.62-5.4,8.11-3.53.52-6.8-1.92-7.48-6.65-.95-6.61-1.93-13.36-1.63-19.99,2.06-45.07-4.43-88.34-25.34-128.92-12.5-24.25-26.54-47.42-44.6-67.99-2.63-2.99-5.33-5.87-10.49-6.19,0,4.8-.3,9.32.08,13.79.45,5.4,1.74,10.74,2.1,16.14.11,1.7-1.57,3.53-2.43,5.29-1.84-.95-3.96-1.6-5.44-2.95-1.03-.94-1.19-2.85-1.72-4.33-1.86-5.18-3.71-10.37-6.01-16.79-1.12,2.44-1.78,3.64-2.24,4.91-1.87,5.1-3.64,10.24-5.52,15.33-.96,2.61-2.54,4.8-5.71,3.82-3.15-.98-3.04-3.59-2.6-6.36.95-6.07,1.85-12.16,2.45-18.28.34-3.44.06-6.94.06-10.42-.63-.32-1.25-.63-1.88-.95-2.81,2.17-6.17,3.89-8.36,6.57-33.81,41.31-60.24,86.11-67.65,140.29-2.4,17.52-3.71,34.91-3.05,52.57.31,8.21-.54,16.51-1.49,24.69-.53,4.56-3.77,6.81-7.23,6.41-3.46-.4-5.34-3.27-5.49-7.99-.16-4.86-.09-9.77-.84-14.54-2.93-18.68-3.04-37.32.07-55.96,1.67-10.02,3.98-19.95,5.1-30.03,2.07-18.76,7.92-36.31,16.09-53.12,3.39-6.97,6.4-13.66,4.12-21.61-.42-1.45.12-3.15-.07-4.7-1.28-10.47-1.92-21.1-4.33-31.31-.9-3.82-5.43-7.94-9.29-9.58-3.96-1.68-7.07,2.73-9.43,5.99-4.55,6.29-7.17,13.28-7.26,21.16-.04,3.42-.13,6.89-.69,10.25-.72,4.29-3.82,6.86-7.62,6.79-4.19-.08-6.61-2.52-7.56-6.36-.55-2.2-.75-4.52-.8-6.79-.12-5.15-.5-10.34.02-15.44,2.14-20.98-5.79-39.88-11.78-59.2-.97-3.12-3.02-5.23-6.52-5.29-8.41-.15-16.69.84-23.96,5.35-3.51,2.17-7.68,4.57-7.57,9.62.21,9.29.66,18.58,1.19,27.86.07,1.17,1.12,3.19,1.89,3.28,6.57.77,6.71,5.43,6.93,10.4.92,20.71,1.72,41.44,3.04,62.12,1.62,25.26,4.23,50.49,1.06,75.81-1.9,15.16-4.18,30.27-5.82,45.46-2.2,20.33-3.96,40.7-5.87,61.06-.15,1.59-.02,3.22-.02,5.27,1.87-.46,3.09-.74,4.3-1.05,25.34-6.51,50.55-13.62,76.07-19.32,16-3.57,32.44-5.21,48.74-7.31,3.69-.48,7.76.2,11.38,1.29,5.09,1.53,7.6,5.9,7.01,10.49-.58,4.48-4.29,7.88-9.64,8.17-21.13,1.14-41.64,5.99-62.02,11.03-30.41,7.51-60.56,16.02-90.82,24.11-5.25,5.51-12.62,2.99-18.79,4.97-7.9,2.54-15.79,5.12-23.57,7.97-15.98,5.87-31.91,11.85-47.77,18.01-1.87.73-3.76,2.56-4.68,4.37-4.18,8.25-8.02,16.67-11.99,25.02-2.88,6.05-6.73,11.83-8.5,18.19-6.16,22.18-8.58,44.97-8,67.95.66,26.33,3.52,52.3,9.68,78.14,6.9,28.94,17.74,55.55,36.47,78.64,6.36,7.84,12.89,16.25,21.11,21.75,31.58,21.12,65.15,36.97,104.87,31.91,1.13-.14,2.31.03,3.42-.2,6.13-1.23,12.42-1.96,18.31-3.92,14.52-4.83,28.77-10.43,43.28-15.27,4.52-1.51,7.94-3.61,10.14-7.8,8.23-15.7,16.45-31.4,24.79-47.05,2.61-4.9,5.12-9.97,8.49-14.34,5.65-7.32,13.29-6.11,17.09,2.3,2.12,4.69,4.08,9.45,6.19,14.14,3.73,8.33,7.49,16.63,11.28,24.93.38.83,1.01,1.55,1.68,2.57.57-.78.99-1.18,1.21-1.66,5.89-13.15,11.82-26.28,17.6-39.48,3.84-8.76,11.44-10.37,17.2-2.86,4.04,5.26,6.89,11.45,10.07,17.34,8.14,15.1,16.04,30.33,24.36,45.33,1.32,2.38,4.05,4.53,6.62,5.58,7.4,3.03,15.12,5.25,22.58,8.13,18.59,7.19,37.35,13.33,57.6,13.75,7.8.16,15.38.09,22.87-2.38,8.28-2.74,16.69-5.07,25.01-7.7,18.51-5.86,35.32-15.02,49.9-27.75,12.49-10.9,21.67-24.66,30.37-38.68,17.09-27.55,23.14-58.79,28.08-89.93,4.59-28.96,5.17-58.42.64-87.67-2.43-15.72-4.87-31.5-14.53-44.84-1.65-2.28-4.11-4.17-6.55-5.65-2.67-1.62-3.62-3.24-2.42-6.29.55-1.4.4-3.24.08-4.77-.44-2.08-1.64-4.02-1.99-6.1-.55-3.28-2.46-4.9-5.41-5.93-4.05-1.41-7.98-3.15-12.02-4.61-18.15-6.59-36.43-12.83-54.42-19.82-7.89-3.06-16.24-2.61-24.36-5.98-14.55-6.04-30.39-8.97-45.72-13.12-29.83-8.08-59.74-15.85-90.3-20.69-5.35-.85-10.81-1.04-16.21-1.61-5.07-.54-8.72-3.74-9.33-8.04-.64-4.45,1.7-8.63,6.52-10.39,2.89-1.06,6.13-1.64,9.2-1.59,5.85.09,11.74.42,17.53,1.28,41.7,6.21,82.5,16.16,122.49,29.49,1.56.52,3.15.98,5.14,1.6ZM786.41,507.98c.15-2.08.34-3.34.32-4.6-.49-28.38-2.72-56.57-9.1-84.31-8.22-35.77-20.67-70.23-32.88-104.74-.83-2.34-3.45-4.49-5.76-5.8-27.6-15.68-57.5-25.29-88.09-33.08-3.14-.8-4.55-.2-4.75,3.16-.57,9.71-1.04,19.43-1.95,29.11-2.75,29.14-3.33,58.23,1.08,87.28,2.75,18.09,5.32,36.22,8.25,54.28.26,1.6,2.34,3.54,4.01,4.18,12.16,4.63,24.44,8.95,36.67,13.4,30.29,11.04,59.39,24.75,88.1,39.32,1.1.56,2.26,1.01,4.09,1.82ZM113.34,508.29c2.42-1.17,3.67-1.79,4.93-2.38,19-8.96,37.72-18.6,57.07-26.7,21.87-9.16,44.34-16.89,66.47-25.45,1.91-.74,4.33-2.81,4.66-4.61,2.27-12.36,4.26-24.78,5.94-37.24,3.75-27.9,7.84-55.76,4.97-84.11-1.64-16.2-2.2-32.51-3.21-48.77-.2-3.17-1.13-4.58-4.8-3.64-30.41,7.81-60.1,17.44-87.74,32.71-3.5,1.94-5.79,4.27-7.05,8.05-5.59,16.67-11.37,33.28-17.03,49.92-14.92,43.88-24.03,88.81-24.19,135.33,0,1.94,0,3.89,0,6.89ZM694.44,246.59c-.87,2.48-1.41,4.38-2.2,6.17-1.5,3.37-4.13,5.12-7.87,4.55-3.59-.55-5.46-3.04-5.92-6.43-.28-2.09-.29-4.34.18-6.38.6-2.61-.3-3.64-2.69-4.26-7.05-1.81-14.1-3.67-21.09-5.69-3.31-.96-4.31.25-4.52,3.41-.4,5.98-.92,11.97-1.75,17.91-.53,3.8.79,4.79,4.48,5.24,24.62,3,48.67,8.34,71.47,18.45,2.56,1.14,5.12,2.26,7.69,3.38.42-.28.84-.57,1.26-.85-2.65-6.64-5.21-13.31-8.03-19.87-.42-.98-1.98-1.56-3.11-2.14-5.97-3.06-11.95-6.11-17.98-9.06-3.15-1.54-6.4-2.87-9.92-4.44ZM205.91,247.05c-1.06.21-1.82.2-2.42.49-9.12,4.43-18.22,8.88-27.3,13.37-.62.31-1.36.79-1.6,1.37-2.63,6.51-5.17,13.06-7.73,19.59,1.19.46,1.48.7,1.69.64.95-.28,1.91-.57,2.8-.99,24.28-11.51,50.09-17.34,76.59-20.49,3.29-.39,4.1-1.68,3.77-4.65-.71-6.39-1.31-12.78-1.86-19.19-.22-2.6-1.24-3.52-3.9-2.77-6.73,1.89-13.48,3.78-20.29,5.36-3.6.83-5.2,2.21-4.01,6.14.51,1.68.23,3.71-.12,5.51-.61,3.21-2.52,5.47-5.91,5.93-3.54.49-6.14-1.07-7.6-4.29-.82-1.8-1.33-3.73-2.13-6.02ZM442.27,818.96c-.09-.44-.17-.89-.26-1.33-6.31.69-12.67,1.11-18.93,2.14-11.39,1.86-23.45,2.29-33.91,6.55-18.99,7.74-38.46,13.69-57.91,19.9-1.1.35-2.11.95-3.17,1.43l.48,1.43c40.25-.88,79.19-6.87,113.7-30.12ZM495.78,799.69c-6.36-10.36-12.45-20.29-18.63-30.35-7.89,7.18-9,17.17-13.74,26.34,11.03,1.37,21.23,2.63,32.37,4.02ZM423.59,768.52c-6.83,11.13-12.9,21.04-19.16,31.25,7.22-.92,13.55-1.74,19.88-2.52,2.97-.37,5.95-.67,8.93-.99,2.78-.3,3.24-1.52,2.07-4.05-1.62-3.48-2.62-7.26-4.32-10.7-2.05-4.15-4.57-8.07-7.4-13ZM259.73,847.62c.12-.43.25-.86.37-1.3-9.99-3.49-19.98-6.98-29.97-10.46,8.39,8.03,18.63,10.9,29.6,11.76ZM690.12,69.3v-35.82c-1.6,11.98-1.97,23.93,0,35.82ZM260.05,435.5c-.73,3.91-1.46,7.81-2.32,12.39,3.96-2.03,4.4-4.59,2.32-12.39Z" style="fill: #000; stroke-width: 0px;"/>
  <path d="M450.21,677.8c-4.41,1.16-8.84,2.28-13.23,3.48-2.82.77-5.82,1.26-8.39,2.57-13.69,7.01-28.07,7.79-42.57,4.12-20.29-5.14-36.92-16.69-50.88-31.98-14.95-16.36-29.23-33.2-40.83-52.31-8.74-14.39-19.06-27.83-29.05-41.42-4.53-6.16-5.73-12.51-4.13-19.78,1.34-6.11,6.38-8.7,11.96-5.96,11.92,5.85,23.76,11.9,35.87,17.33,4.74,2.12,10.09,3.84,15.21,3.97,18.57.5,37.25,1.35,55.61-2.22,11.21-2.18,22.16-5.64,33.27-8.36,7.77-1.9,15.58-3.71,23.44-5.2,6.5-1.24,11.09,1,12.06,5.26,1,4.41-2.06,7.99-8.62,9.89-11.12,3.22-22.28,6.3-33.39,9.58-3,.89-5.95,2.08-8.75,3.47-14.65,7.29-30.14,10.63-46.48,10.02-9.29-.35-18.58-.67-27.85-1.29-9.81-.66-19.15-3.25-27.89-7.85-1.22-.64-2.49-1.2-4.94-2.38,1.01,2.18,1.41,3.28,2.01,4.27,5.35,8.79,10.84,17.5,16.08,26.35,6.46,10.9,14.04,20.85,23.66,29.18,2.7,2.33,5.3,4.85,7.56,7.6,15.21,18.46,34.91,29.1,58.09,33.94,5.4,1.13,10.57,1.9,16.04.23,4.61-1.4,9.09-.37,13.8,1.01,4.4,1.28,9.43.35,14.18.49,2.15.06,4.3.34,6.44.57.79.08,1.95.7,2.29.38,2.87-2.71,5.83-1.22,8.88-.57,4.66.99,9.1.61,13.84-.87,4.26-1.33,9.15-.69,13.77-.79,4.22-.09,8.6.74,12.64-.12,17.5-3.72,34.5-9.04,47.79-21.79,19.59-18.8,39.56-37.34,51.48-62.53,2.06-4.36,5.21-8.2,7.82-12.29.79-1.24,1.47-2.54,2.64-4.57-1.55.38-2.12.39-2.56.64-12.1,7.05-25.42,9.33-39.13,9.83-14.42.52-28.89,1.93-43.15-1.63-4.71-1.18-9.7-1.99-13.93-4.19-15.82-8.21-33.59-10.29-50-16.55-2.25-.86-4.93-1.48-6.46-3.1-1.56-1.65-2.96-4.61-2.57-6.63.39-2,2.83-4.47,4.87-5.08,2.85-.85,6.28-.73,9.25-.06,13.52,3.08,27.04,6.22,40.41,9.88,12.22,3.34,24.53,5.51,37.22,5.51,10.58,0,21.2.67,31.73-.01,5.83-.38,11.74-2.37,17.23-4.59,9.01-3.63,17.73-7.98,26.52-12.12,2.31-1.09,4.5-2.47,6.68-3.82,6.37-3.95,11.88-1.41,13.34,5.83,1.42,7.03.07,13.04-4.08,18.98-13.92,19.92-26.79,40.61-41.42,59.98-14.26,18.9-28.96,37.75-48.77,51.51-17.75,12.32-36.98,19.27-58.99,15.21-1.96-.36-3.98-.69-5.82-1.42-7.62-3.03-14.88-6.94-23.43-7.24-2.28-.08-4.49-2.1-6.74-3.23.13.3.25.59.38.89Z" style="fill: #000; stroke-width: 0px;"/>
  <path d="M281.6,749.47c7.73-8.14,13.69-16.84,16.49-27.48,1.65-6.26,3.44-8.42,7.05-8.18,3.51.23,6.06,3.78,7.06,9.12.61,3.24,1.88,6.35,2.6,9.58.33,1.47.52,3.25,0,4.6-2.77,7.28-6.05,14.17-14.08,17.31-1.74.68-3.15,2.4-4.53,3.82-13.85,14.23-30.33,12.71-41.47-3.81-4.46-6.61-7.67-13.7-9-21.61-.42-2.51-1.12-4.97-1.69-7.45-.61-.46-1.22-.91-1.83-1.37-.47,1.18-.76,2.47-1.43,3.52-7.93,12.38-26.87,9.06-33.73-1.23-7.02-10.51-10.87-21.4-10.11-34.56,1.17-20.27,6-39.85,8.87-59.79,1.55-10.78,1.32-21.38-2.42-31.74-1.17-3.24-.95-6.34,2.1-8.44,3.19-2.2,6.61-1.57,8.96,1.1,2.86,3.25,5.05,7.11,7.76,11.04,5.68-.23,6.51.67,6.75,7.33.47,13.37-.5,26.54-4.28,39.48-2.95,10.08-4.12,20.38-3.52,30.95.43,7.55.14,15.16-.3,22.72-.32,5.45,2.23,8.91,6.3,11.82,2.03,1.46,3.62,1.52,4.75-1.01,3.66-8.22,7.59-16.32,10.88-24.68,2.09-5.31,3.93-7.72,7.53-7.28,4.1.49,5.84,3.86,6.7,9.08,3.28,20.05,8.5,39.43,22.39,55.22.46.52,1.05.93,2.23,1.94Z" style="fill: #000; stroke-width: 0px;"/>
  <path d="M694.28,609.44c5.89-2.33,8.19.78,9.85,4.76,8.56,20.44,11.04,41.63,7.28,63.45-2.42,14.06-5.27,28.04-8.08,42.03-.5,2.49-1.46,4.99-2.74,7.18-.7,1.21-2.5,1.78-3.8,2.64-.42-1.36-.97-2.7-1.2-4.1-.13-.75.28-1.6.7-3.57-1.29,1.74-1.88,2.52-2.45,3.3-6.4,8.92-14.68,12.16-25.47,9.51-2.88-.71-3.64.45-4.75,2.62-2.86,5.56-5.78,11.13-9.19,16.36-2.01,3.08-5.1,4.94-8.83,1.06-1.3,1.57-2.34,2.86-3.43,4.13-9.26,10.87-23.96,12.13-34.66,2.75-7.97-6.99-13.74-15.67-17.85-25.4-2.29-5.43-2.71-11.11-.78-16.77,1.07-3.13,2.9-5.71,6.72-5.56,3.69.15,5.14,2.81,5.81,5.91,2.14,9.92,7.24,18.29,13.6,25.95,5.82,7.02,10.33,6.91,15.68-.63,7.11-10.02,10.73-21.42,11.74-33.59.56-6.69.51-13.42.75-20.13.16-4.34,2.58-7.43,6.28-8.05,3.49-.59,5.57,1.59,7.51,6.11,4.28,9.95,8.78,19.82,13.55,29.54,2.21,4.5,4.76,4.66,8.18.82,4.55-5.1,6.14-11.33,6.88-18.07,2.13-19.24-1.8-37.86-5-56.59-1.93-11.29-3.65-22.58-2.54-34.11.61-6.37,1.7-12.5,6.5-17.26,2.73-2.71,5.89-4.42,9.6-2.22,3.8,2.24,3.51,5.79,2.35,9.48-.8,2.52-1.36,5.12-2.23,8.46ZM703.03,686.49c5.37-25.25,1.48-49.35-8.76-72.64-2.04,24.81,7.96,48.16,8.76,72.64Z" style="fill: #000; stroke-width: 0px;"/>
  <path d="M493,347.92c-1.59-16.16-3.63-36.35-5.54-56.56-.47-4.98-.76-10-.7-14.99.07-5.81,3.1-9.46,7.58-9.87,4.37-.41,8.44,2.71,9.73,7.99.9,3.65,1.06,7.17,6.32,7.5,1.34.08,3.26,3.62,3.56,5.76,1.43,10.32,3.14,20.7,3.34,31.08.24,12.84-.76,25.71-1.61,38.54-.13,1.96-2.3,3.77-3.49,5.67-.77,1.22-1.72,2.4-2.2,3.73-1.92,5.37-3.52,10.86-5.57,16.17-1.21,3.13-3.57,5.45-7.32,4.5-3.83-.97-4.17-4.13-4.14-7.5.08-9.29.03-18.59.03-32.01Z" style="fill: #000; stroke-width: 0px;"/>
  <path d="M409.78,316.32c-.36,3.77-.92,7.53-1.05,11.3-.61,17.72-1.12,35.44-1.64,53.16-.09,3.06-.74,5.85-4.15,6.67-3.54.86-5.73-1.24-7.16-4.13-3.98-8.06-5.88-16.57-6.46-25.58-1.76-27.36,2.76-54.2,6.27-81.13.22-1.67.76-3.39,1.55-4.87,1.89-3.55,4.78-5.78,9.03-5.18,4.09.58,6.13,3.42,6.92,7.22.35,1.66.31,3.4.45,5.11.11,1.28-.26,2.95.41,3.76,4.89,5.88,3.1,12.79,3.02,19.31-.13,10.57-.85,21.14-1.34,31.71-.06,1.29.18,2.74-.35,3.81-.65,1.3-1.96,2.26-2.98,3.37-.65-1.26-1.85-2.53-1.86-3.79-.02-5,.38-10,.52-15,.05-1.91-.17-3.82-.27-5.74-.3,0-.61,0-.91-.01Z" style="fill: #000; stroke-width: 0px;"/>
  <path d="M462.89,330.76c.84-12.07,1.64-24.14,2.55-36.2.24-3.13,1.15-6.18,4.96-6.46,3.74-.28,5.44,2.49,5.99,5.55,1.05,5.88,2.08,11.82,2.37,17.77.9,18.67,1.5,37.36,2.1,56.05.1,3.26.17,6.7-.76,9.74-.59,1.94-2.9,4.34-4.73,4.63-1.84.29-4.93-1.27-5.9-2.93-1.73-2.98-2.92-6.59-3.21-10.03-1.06-12.65-1.66-25.35-2.43-38.02-.31-.03-.62-.06-.94-.09Z" style="fill: #000; stroke-width: 0px;"/>
  <path d="M419.7,360.11c.9-18.42,1.75-36.84,2.76-55.25.21-3.84,1.04-7.64,1.62-11.45.45-2.95,1.74-5.29,5.09-5.33,3.64-.05,4.97,2.5,5.26,5.6.83,9.1,2.22,18.22,2.09,27.31-.24,15.28-1.38,30.55-2.39,45.81-.23,3.51-1.16,7.06-2.35,10.38-1.11,3.1-3.43,5.47-7.17,4.88-3.56-.56-4.95-3.39-5.11-6.55-.25-5.13-.07-10.28-.07-15.42.09,0,.18,0,.27.01Z" style="fill: #000; stroke-width: 0px;"/>
  <path d="M437.03,354.05c.65-15.56,1.29-31.12,1.95-46.68.12-2.86.6-5.91,4.13-5.91,3.55,0,4.17,3.04,4.02,5.92-.5,9.4-.95,18.81-1.76,28.19-.94,10.96-2.15,21.89-3.45,32.81-.18,1.53-1.58,2.91-2.42,4.36-.91-1.37-2.51-2.7-2.61-4.13-.33-4.84-.13-9.71-.13-14.57.09,0,.18,0,.27,0Z" style="fill: #000; stroke-width: 0px;"/>
</svg>