<?xml version="1.0" encoding="UTF-8"?>
<svg id="Layer_1" data-name="Layer 1" xmlns="http://www.w3.org/2000/svg" viewBox="0 0 891.72 900">
  <path d="M70.23,602.45c0-7.72-.32-15.45.15-23.14.2-3.25,2.11-6.39,3.13-9.61.29-.92.64-2.25.21-2.89-9.7-14.47-14.39-30.91-18.57-47.5-3.8-15.06-7.05-30.25-10.66-45.35-.3-1.23-1.23-2.8-2.29-3.3-16.97-7.92-25.67-22.74-33.39-38.73C1.21,416.21-.75,399.74.24,382.63c2.02-34.94,11.58-67.19,34.22-94.62,4.12-4.99,9.02-9.34,13.58-13.97.46-.46,1.04-.94,1.64-1.09,5.96-1.55,6.53-6.75,8.35-11.46,5.13-13.31,9.07-27.03,16.93-39.33,7.59-11.88,17.65-21.76,25.22-33.51,7.18-11.15,16.53-19.59,27.83-26.25,7.11-4.19,13.79-9.12,20.92-13.27,12.13-7.08,25.77-9.84,39.3-12.69,9.82-2.07,19.73-3.46,29.85-2.13,1.26.16,3.12-1.24,4.08-2.42,6.13-7.5,11.46-15.75,18.22-22.61,13.98-14.19,29.14-27,47.79-34.96,10.7-4.56,21.6-8.17,33.29-9.05,1.4-.11,3.1-.76,4.05-1.74,9.92-10.36,19.38-21.18,29.61-31.22,17-16.69,37.51-27.24,60.92-31.53,9.01-1.65,18.24-.47,27.22,1.78,1.54.39,3.35.61,4.83.2,17.92-4.97,34.94-1.99,51.75,5.07,20.42,8.58,36.67,22.42,51.04,38.86,5.08,5.81,10.37,11.43,15.71,17,.89.92,2.51,1.49,3.84,1.59,13.61,1.05,26.16,5.5,38.32,11.43,13.33,6.5,24.65,15.59,35.55,25.55,9.86,9.01,18.49,18.85,25.81,29.96.71,1.08,2.47,2.29,3.58,2.15,16.59-2.09,32.26,2.47,48.05,6.27,14.95,3.59,27.65,11.63,39.96,20.35,7.25,5.13,14.71,10.13,21.18,16.15,4.74,4.4,7.96,10.42,11.99,15.62,5.59,7.21,11.48,14.2,16.94,21.51,11.48,15.38,17.67,33.24,23.46,51.24,1.04,3.23,2.77,5.03,5.68,6.94,4.99,3.28,9.62,7.43,13.56,11.94,13.78,15.78,23.84,33.82,29.99,53.82,2.54,8.28,4.01,16.99,5.04,25.62,1.26,10.55,1.85,21.21,2.17,31.84.37,12.38-2.69,24.16-8.27,35.18-3.77,7.45-7.7,14.86-12.12,21.94-4.99,7.99-12.94,12.74-20.85,17.46-1.38.83-2.7,2.56-3.1,4.11-5.64,21.87-10.64,43.91-16.85,65.61-2.53,8.85-7.51,17.01-11.55,25.4-.89,1.84-.91,3.11-.21,5.09,1.49,4.18,2.93,8.56,3.23,12.94.65,9.35,1.05,18.77.7,28.13-.84,22.56-4.41,44.55-15.43,64.74-7.96,14.58-17.99,27.51-30.72,38.19-8.77,7.35-17.58,14.72-26.9,21.34-8.85,6.29-19.2,9.22-30.05,9.85-7.92.46-15.87.52-23.8.76-.11,0-.23.03-.33-.01-5.63-2.31-9.49.35-13.75,3.93-11.01,9.27-24.04,14.94-37.57,19.58-1.47.5-3.32,2.15-3.59,3.53-2.29,11.9-8.09,22.13-15.11,31.65-9.43,12.8-19.6,25.06-32.87,34.16-8.81,6.03-17.56,12.38-27.1,17.04-10.9,5.32-22.67,8.87-33.99,13.34-1.55.61-2.86,2.04-4.06,3.31-1.64,1.74-2.76,4.13-4.64,5.47-13.14,9.34-27.4,16.5-43.03,20.56-3.97,1.03-8.3.87-12.47.9-14.34.1-28.69.22-43.03-.03-5.46-.09-11.15-.36-16.29-1.96-13.01-4.04-25.25-10.02-36.49-17.75-2.93-2.02-4.84-5.49-7.36-8.16-.92-.97-2.14-1.9-3.39-2.29-17.55-5.38-34.53-11.8-49.69-22.62-9.52-6.79-19.59-12.75-27.57-21.52-10.58-11.63-20.9-23.45-27.34-38-1.9-4.29-3.12-8.92-4.3-13.49-.55-2.15-1.32-3.36-3.55-4.09-13.92-4.57-27.26-10.43-38.57-19.94-3.99-3.35-7.46-4.42-12.9-3.96-15.2,1.29-30.42.56-44.96-5.13-8.6-3.37-15.48-9.21-22.52-14.91-9.71-7.84-19.48-15.58-27.65-25.12-15.09-17.64-25.38-37.55-29.36-60.6-2.17-12.55-3.48-25.13-2.96-37.88.3,0,.6,0,.89,0ZM664.65,717.55c-2.65-1.74-4.94-3.71-3.36-6.86,1.52-3.06,4.45-3.07,7.47-2.46,5.34,1.09,10.68,2.27,16.08,3.03,4.02.57,8.12.49,12.18.81,9.79.77,19.59,1.21,29.03-2.1,16.66-5.83,29.31-17.12,40.44-30.37,7.86-9.37,13.12-20.35,19.09-30.89,5.76-10.17,8.65-20.95,7.9-32.64-.49-7.6-.42-15.3-1.7-22.77-1.51-8.87-3.79-17.68-6.52-26.26-1.77-5.55-1-10.18,3.34-14,3.85-3.39,7.51-7.14,10.6-11.22,6.06-8,8.01-17.76,10.6-27.2,5.28-19.25,7.31-38.74,4.35-58.6-.62-4.18.58-6.19,4.35-8.33,4.11-2.34,8.42-4.44,12.21-7.23,12.27-9.05,24.08-18.39,30.08-33.39,6.36-15.92,8.21-32.04,5.19-48.82-2.98-16.53-10.7-30.68-21.85-43.03-9.69-10.72-20.38-20.27-33.54-26.58-3.25-1.56-4.88-3.78-5.76-7.07-2.19-8.2-4.21-16.47-6.87-24.52-12.84-38.91-37.92-66.68-75.85-82.56-19.01-7.96-38.43-11.41-58.76-5.45-4.81,1.41-8.22-.21-9.53-4.98-2.87-10.37-8.75-18.75-16.36-26.01-7.26-6.92-14.12-14.53-22.33-20.1-12.66-8.58-26.96-14.12-42.07-17.16-2.78-.56-5.77-1.14-8.5-.72-7.89,1.24-12.93-1.93-16.87-8.63-10.46-17.8-23.96-32.67-40.76-45.04-17.57-12.94-35.91-17.54-56.95-11.5-2.59.74-5.61.23-8.4-.03-2.29-.21-4.52-.96-6.79-1.39-12.46-2.39-24.57-1.94-35.98,4.41-11.33,6.31-21.71,13.98-31.13,22.81-9.79,9.19-17.16,20.39-24.09,31.8-3.72,6.12-8.7,8.65-15.8,7.59-2.45-.36-5.09-.1-7.54.38-13.76,2.69-26.69,7.74-38.86,14.64-4.1,2.33-8.22,4.87-11.69,8.01-6.3,5.7-12.17,11.88-18.13,17.95-5.94,6.06-10.4,13.03-12.71,21.31-1.8,6.46-4.79,8.19-11.27,6.46-9.82-2.62-19.87-4-29.84-2.29-19.9,3.43-38.51,10.39-54.74,22.81-9.64,7.38-19.19,14.85-26.59,24.68-15.19,20.19-24.05,43.09-29.31,67.57-.66,3.08-2.08,5.51-5.21,6.7-1.23.47-2.39,1.12-3.54,1.76-12.28,6.87-22.61,16.03-31.81,26.63-17.26,19.9-24.5,42.85-21.07,68.96,2.66,20.29,11.58,37.2,28.52,49.26,6.36,4.52,13,8.65,19.63,12.79,4,2.49,5.07,4.71,4.2,9.24-.6,3.12-1.07,6.29-1.23,9.46-.83,16.82,1.43,33.3,5.94,49.48,2.65,9.51,4.89,19.28,11.22,27.19,3.48,4.34,7.77,8.03,11.66,12.05,2.88,2.98,3.49,6.71,2.23,9.97-1.9,4.91-3.88,9.84-5.16,14.93-3.21,12.79-3.82,25.91-4.1,39.04-.15,7.1.86,14.08,3.85,20.56,9.32,20.21,19.92,39.61,37.24,54.32,6.88,5.85,14.21,11.08,22.6,14.65,14.66,6.24,29.89,3.66,44.94,2.71,5.95-.37,11.78-2.3,17.7-3.36,2.41-.43,4.79.18,5.92,2.59,1.07,2.27.12,4.18-1.68,5.89-.6.57-1,2.28-.61,2.82,2.78,3.83,5.24,8.15,8.82,11.08,11.63,9.53,23.98,17.89,39.66,19.32,3.89.36,6.12,3.93,5.85,7.79-.2,2.85-.19,5.88.54,8.61,3.78,14.15,11.55,26.14,21.46,36.66,6.04,6.41,12.69,12.28,19.36,18.04,6.51,5.62,13.42,10.85,21.77,13.48,9.18,2.89,18.42,5.64,27.73,8.07,4.36,1.14,8.63,1.86,10.68,6.57.19.44.79.77,1.27,1.01,3.93,1.96,7.7,4.4,11.83,5.71,13.12,4.16,26.13,8.99,40.2,8.89,8.49-.06,17.17.98,25.41-.49,11.69-2.09,23.15-5.72,34.5-9.35,4.88-1.56,9.94-3.73,12.67-8.92.52-.99,2.07-1.66,3.28-2.03,7.33-2.29,14.62-4.75,22.06-6.58,7.83-1.93,15.6-3.86,22.33-8.56,12.09-8.44,23.13-18.12,32.76-29.26,8.29-9.58,14.92-20.28,18.23-32.68.72-2.7,1.19-5.68.83-8.4-.63-4.78,1.69-8.16,6.57-8.63,2.39-.23,4.93-.33,7.09-1.24,6.37-2.66,12.7-5.46,18.82-8.65,9.58-5,17.24-12.12,22.63-22.11Z" style="fill: #000; stroke-width: 0px;"/>
  <path d="M106.01,604.59c-.11-18.08,2.88-32,10.02-44.85,1.4-2.51,1.37-4.28-.57-6.45-15.74-17.57-24.39-38.53-28.4-61.46-2.81-16.07-2.36-32.15,2.96-47.8.98-2.89-.76-3.12-2.61-3.69-18.38-5.59-31.92-16.67-39.3-34.71-3.59-8.78-5.48-17.96-5.87-27.41-1.62-38.87,20.44-72.64,56.77-86.91,1.93-.76,2.94-1.52,2.3-3.85-3.18-11.61-1.29-22.81,3.26-33.66,7.92-18.88,20.87-33.98,36.27-47.07,17.29-14.7,36.68-25.33,59.3-29.3,11.89-2.09,23.75-1.86,35.56.63,1.8.38,3.18.58,3.74-1.79,4.23-18.15,15.43-31.61,29.71-42.64,21.3-16.44,45.59-24.38,72.53-23.76,3.46.08,5.33-.47,6.37-4.25,1.04-3.76,3.02-7.38,5.16-10.69,10.23-15.84,22.85-29.47,38.28-40.4,9.78-6.93,20.57-10.68,32.62-11.69,13.91-1.16,27.7-1.15,41.64-.19,14.74,1.01,27.47,6.11,38.83,15.16,14.29,11.39,26.55,24.61,35.76,40.49,1.48,2.56,2.75,5.34,3.52,8.19.77,2.86,2.18,3.47,4.96,3.4,28.66-.81,54.19,7.87,76.39,25.97,10.67,8.7,19.22,19.17,24.43,32.1.7,1.74,1.34,3.52,1.79,5.34,1.37,5.54.48,5.5,6.68,4.33,15.85-2.98,31.57-2.07,46.78,3.14,34.73,11.88,60.98,34.22,78.75,66.22,3.63,6.53,5.94,14.11,7.29,21.49,1.07,5.89-.03,12.25-.62,18.35-.23,2.32-.29,3.55,2.21,4.5,19.67,7.43,35.05,20.36,45.18,38.6,15.45,27.83,16.6,56.45,1.03,84.76-7.35,13.36-19.64,20.9-33.9,25.44-4.1,1.3-3.94,1.26-2.75,5.37,5.17,17.81,5.11,35.72.88,53.72-4.67,19.9-12.78,38.08-26.51,53.46-2.13,2.39-2.44,4.34-.8,7.3,8.88,16.01,11.38,33.31,9.4,51.32-2.49,22.65-10.79,42.93-25.34,60.56-17.57,21.29-40.23,29.26-67.29,25.59-11.02-1.5-21.59-4.56-31.75-9.09-3.28-1.46-3.55-1.29-4.3,2.32-5.44,26.19-25.67,45.46-52.22,49.74-2.09.34-3.99.54-3.34,3.57,2.71,12.54-.14,24.32-6.15,35.16-14.23,25.66-35.82,42.47-63.87,50.78-4.99,1.48-10.48,1.19-15.71,1.97-1.55.23-3.21,1.04-4.4,2.07-3.55,3.09-6.48,7.05-10.38,9.53-11.42,7.26-23.91,11.65-37.54,12.91-13.5,1.25-26.91,1.09-40.3-.85-12.14-1.76-23.16-6.55-33.24-13.35-3.21-2.16-5.58-5.56-8.42-8.3-.88-.85-2.07-2-3.11-1.99-24.7.21-43.84-11.96-61.31-27.62-10.51-9.42-18.6-20.68-23.36-34.1-2.97-8.37-4.19-16.94-2.35-25.74.52-2.49-.05-3.67-2.73-3.98-27.66-3.21-48.27-26.08-52.77-50.31-.55-2.95-1.83-2.95-4.13-1.91-11.57,5.24-23.66,8.5-36.33,9.67-27.35,2.54-49.02-7.69-65.44-29.33-15.09-19.89-22.72-42.49-23.27-64ZM628.93,209.63c.07.36.15.73.22,1.09,2.04.71,4.05,1.53,6.12,2.12,15.5,4.43,29.5,11.89,42.35,21.44,12.77,9.49,22.05,21.57,23.72,37.92,2.14,20.98-4.71,40.2-13.42,58.71-3.99,8.48-10.23,15.73-17.33,22.01-1.97,1.74-1.91,2.86.34,4.21,9.39,5.67,18.88,11.01,29.78,13.37,3.74.81,7.43,2.15,10.94,3.7,3.07,1.36,4.52,5.5,3.51,8.47-.89,2.63-3.12,3.49-7.27,2.78-.33-.06-.65-.13-.97-.2-19.74-4.47-38.58-11.14-55.75-22.15-28.01-17.97-48.45-42.11-59.14-73.77-7.68-22.74-7.51-45.47,3.94-67.23,9.07-17.25,22.95-29.51,40.56-37.59,2.69-1.23,3.58-2.73,2.41-5.38-2.13-4.84-3.83-9.95-6.55-14.43-20.13-33.08-62.67-49.33-100.77-38.83-15.86,4.37-29.12,13.03-40.98,24.14-1.78,1.67-3.85,3.1-6.1,1.05-2.07-1.88-1.02-3.99.22-5.98,9.83-15.78,23.64-26.31,41.47-31.58,5.02-1.48,5.15-1.56,2.69-6.11-9.03-16.72-21.6-30.33-36.85-41.54-8.57-6.3-18-10.15-28.75-10.73-4.84-.26-9.64-1.24-14.46-1.82-1.63-.19-3.32-.35-4.94-.17-6.91.78-13.9,1.27-20.69,2.71-5.65,1.2-11.53,2.74-16.47,5.58-19.03,10.93-33.36,26.65-44.02,45.73-2.65,4.75-2.48,4.86,2.61,6.37,17.83,5.28,31.62,15.84,41.39,31.67,1.24,2.01,2.14,4.12.02,5.97-2.18,1.9-4.11.51-5.85-1.01-2.25-1.96-4.45-3.98-6.73-5.9-31.39-26.41-75.99-28.8-109.95-5.7-14.51,9.87-25.64,22.61-31.33,39.54-1.54,4.59-1.36,4.71,2.95,6.76,15.56,7.38,28.24,18.09,37.2,32.87,13.8,22.75,15.16,47.2,6.38,71.53-19.8,54.82-61.22,84.35-116.72,96.3-5.26,1.13-7.99-2.18-6.06-7.21.73-1.92,2.68-3.81,4.56-4.75,2.92-1.46,6.21-2.35,9.43-3.03,11.02-2.33,20.61-7.74,30.09-13.47,2.06-1.25,2.32-2.3.42-3.97-13.28-11.71-21.07-26.8-25.93-43.49-2.06-7.08-3.68-14.34-4.78-21.63-3.48-23.07,5.81-40.74,24.08-54.13,12.73-9.33,26.54-16.7,41.83-21.01,2.07-.58,4.07-1.41,6.1-2.12.07-.38.14-.75.21-1.13-2.43-1.34-4.75-2.96-7.31-3.96-12.54-4.91-25.14-9.69-37.75-14.42-1.73-.65-3.64-.87-5.49-1.13-9.58-1.35-19-.36-28.16,2.52-27.99,8.79-48.43,26.7-62.12,52.41-6.26,11.76-9.32,24.3-7.58,37.73.64,4.97.66,4.81,5.64,5.19,5.72.43,11.44,1.05,17.12,1.85,3.28.46,5.23,2.98,4.92,5.65-.29,2.5-2.61,4.38-5.72,4.51-1.43.06-2.88.04-4.3-.08-9.22-.78-18.17,1.22-26.53,4.42-36.87,14.07-55.93,52.36-45.61,90.49,4.45,16.42,14.67,27.35,30.8,32.8,11.41,3.85,23.23,5.82,35.17,5.92,27.16.22,54.32-.19,81.48-.37.69,0,1.38-.3,2.79-.63-1.53-1.03-2.51-1.66-3.45-2.34-3.47-2.53-6.99-5-10.38-7.64-1.79-1.4-3.18-3.25-2.24-5.74.96-2.55,3.23-2.53,5.52-2.66,5.89-.33,11.38,1.1,16.73,3.38,14.3,6.08,25.19,16.04,32.18,29.79,12.47,24.52,13.66,48.91-2.93,72.32-8.63,12.17-20.15,20.97-33.59,27.28-19.92,9.34-41.11,14.09-62.78,16.86-3.94.5-8.15-.13-12.08-.96-2.48-.53-3.88-.23-4.65,2.05-2.38,7.09-5.64,14.05-6.83,21.34-3.43,20.98,1.05,40.88,10.46,59.72,11.67,23.35,30.11,34.86,56.68,31.71,11.08-1.31,22.15-2.67,33.23-3.94,8.11-.93,8.07-.9,10.2-8.54.74-2.65,1.71-5.26,2.78-7.79.86-2.02,1.9-4,3.12-5.83,1.54-2.32,3.82-3.46,6.59-2.5,2.81.97,3.68,3.3,3.53,6.08-.05.88-.26,1.75-.31,2.63-.4,6.49-1.31,13.01-1.08,19.48,1.09,30.28,26.13,50.06,55.78,44.35,1.08-.21,2.18-.39,3.24-.67,24.3-6.17,46.87-16.37,68.19-29.42,18.3-11.2,32.55-25.72,37.82-47.38.53-2.19,1.74-4.02,4.32-3.73,2.79.31,3.33,2.51,3.43,4.88.72,16.97-4.1,32.02-15.3,44.96-10,11.54-22.37,19.92-35.58,27.25-4.01,2.22-4.14,2.73-1.53,6.59,7.42,11,16.77,20.25,27,28.54,3.42,2.78,7.69,4.87,11.91,6.23,8.81,2.84,17.94,3.17,27.2,2.27,5.56-.54,11.22-.21,16.83-.14,4.07.05,8.16.65,12.21.45,9.23-.46,18.43-1.69,25.99-7.6,11.01-8.61,20.79-18.49,28.68-30.11,2.3-3.39,1.92-3.86-1.56-6.14-8.77-5.73-17.74-11.22-25.98-17.65-9.51-7.42-16.84-16.86-21.33-28.25-3.38-8.59-4.28-17.55-4.04-26.69.06-2.26.74-4.29,3.35-4.59,2.39-.28,3.57,1.35,4.27,3.39.29.84.54,1.68.78,2.53,4.37,15.47,13.41,27.62,26.08,37.35,14.14,10.86,29.89,18.8,46.13,25.84,11.97,5.19,24.18,9.77,37.06,12.21,23.78,4.52,42.71-5.82,51.78-28.24,4.11-10.15,4.24-20.67,2.91-31.33-.27-2.19-.74-4.36-.95-6.56-.28-2.85.42-5.43,3.38-6.5,2.88-1.04,5.17.21,6.86,2.62.57.81,1.18,1.65,1.51,2.56,1.85,5.18,3.75,10.35,5.36,15.61.59,1.93,1.27,3.06,3.43,3.3,13.61,1.5,27.19,3.29,40.82,4.61,20.3,1.97,37.05-4.51,48.77-21.77,13.47-19.82,19.11-41.81,17.26-65.67-.7-9.03-3.4-17.54-7.58-25.58-.8-1.54-1.56-3.03-3.75-2.13-5.01,2.06-10.2,1.75-15.35.93-6.87-1.08-13.76-2.16-20.55-3.63-17.23-3.75-34.07-8.78-49.2-18.14-15.85-9.81-28.75-22.67-33.66-41.07-7.36-27.56.15-51.74,20.5-71.41,9.68-9.35,21.41-15.75,35.65-15.01,1.58.08,3.88,1.25,4.41,2.52.54,1.28-.18,3.89-1.29,4.9-3.31,3.03-7.07,5.58-10.68,8.29-1.07.81-2.22,1.52-3.97,2.71,1.65.27,2.39.48,3.13.49,25.07.29,50.14.88,75.2.72,14.04-.09,28-1.77,41.44-6.34,15.45-5.25,25.61-15.58,30.24-31.29,2.85-9.67,3.59-19.51,2.79-29.52-3.01-37.53-34.99-64.7-68.35-66.75-3.3-.2-6.62.05-9.94.02-3.6-.03-6.09-1.87-6.33-4.57-.26-2.89,1.89-5.27,5.63-5.73,5.81-.72,11.63-1.48,17.46-1.66,3.21-.1,4.16-1.35,4.56-4.21,1.27-8.93.78-17.77-2.36-26.16-13.21-35.24-37.9-57.89-74.67-66.73-9.32-2.24-18.87-2.27-28.09,1.03-5.82,2.08-11.53,4.45-17.31,6.66-6.4,2.45-12.85,4.76-19.19,7.33-2.34.95-4.44,2.49-6.65,3.76ZM121.72,550.14c1.3-1.61,1.98-2.61,2.81-3.46,6.48-6.61,12.88-13.31,19.56-19.72,2.72-2.61,5.98-2.52,8.13-.61,2.13,1.89,2.31,5.01.22,8.15-2.26,3.4-4.73,6.66-7.07,10.01-.56.81-.97,1.72-1.45,2.59,1.91.25,3.24-.19,4.59-.54,18.51-4.9,35.3-13.93,52.42-22.09,10.31-4.92,19.58-11.52,27.4-20.02,5.45-5.92,9.37-12.51,10.45-20.63,1.78-13.4-1.7-25.37-9.62-36.19-3.83-5.23-8.28-7.24-15.24-6.38-36.11,4.45-72.34,7.05-108.7,2.93-1.92-.22-2.96.43-3.44,2.2-1.2,4.47-2.79,8.89-3.52,13.44-4.59,28.71,1.19,55.32,16.63,79.88,2.1,3.34,4.32,6.59,6.84,10.44ZM770.16,549.68c.33-.56.62-1.16.99-1.7,8.99-12.85,16.33-26.45,20.05-41.86,4.72-19.61,5.34-39.08-.96-58.5-.91-2.79-2.17-3.63-5.25-3.34-9.44.88-18.92,1.65-28.4,1.8-27.64.43-55.16-1.55-82.57-5.1-2.87-.37-5.09.21-7.27,2.13-5.47,4.82-9.16,10.86-11.44,17.58-4.92,14.5-4.77,28.65,5.74,40.89,4.49,5.23,9.58,10.3,15.31,14.03,21.38,13.93,44.58,24.14,68.95,31.66.66.2,1.4.14,2.85.26-1-1.53-1.6-2.52-2.27-3.46-2.36-3.33-4.83-6.59-7.09-9.99-1.69-2.54-1.89-5.28.47-7.56,2.4-2.33,5.12-1.83,7.54-.03,2.47,1.84,4.91,3.79,7.06,5.99,5.32,5.42,10.46,11.02,16.3,17.21ZM306.23,748.84c-.18,6.13,1.41,12.73,4.34,19.04,4.64,10.01,11.62,18.21,19.8,25.45,10.65,9.44,22.05,17.79,35.79,22.19,17.15,5.49,32.57-.17,42.2-15.35,2-3.15,3.55-6.61,5.05-10.04,1.66-3.77,1.34-4.22-2.67-5.02-12.28-2.43-23.47-7.1-32.46-16.09-6.4-6.4-12.94-12.7-18.83-19.56-4.13-4.82-7.42-10.4-10.78-15.83-2.23-3.6-2.51-3.79-6.52-2.58-9.51,2.86-19.01,5.79-28.64,8.17-7.28,1.8-7.12-.1-7.26,9.64ZM585.43,750.74c-.18-11.95-.12-10.09-7.4-11.48-1.3-.25-2.62-.47-3.88-.84-8.35-2.48-16.7-4.97-25.02-7.53-2.02-.62-4.05-1.23-5.17,1.15-5.22,11.09-13.33,19.96-21.83,28.5-7.62,7.66-15,15.77-25.43,19.72-5.44,2.06-11.14,3.48-16.78,4.98-2.14.57-3.16,1.33-2.32,3.63,8.63,23.74,28.16,34.95,51.75,25.2,18.43-7.62,33.56-19.82,45.54-35.76,6.65-8.85,10.62-18.79,10.54-27.57ZM287.12,261.8c0-.88.01-1.77,0-2.65-.23-12.84-3.94-24.57-11.48-34.98-.72-1-2.68-2.14-3.56-1.83-7.58,2.73-15.06,5.71-22.49,8.83-.74.31-1.56,2.26-1.26,2.99,3.9,9.24,3.52,18.8,2.26,28.38-2.89,21.93-9.58,42.19-26.39,57.79-.89.82-1.59,1.85-2.48,2.67-1.95,1.79-2.16,3.6-.61,5.82,3.17,4.51,6.09,9.21,9.33,13.66,3.84,5.27,3.19,7.32,9.22.69,11.12-12.23,22.31-24.52,32.15-37.76,9.43-12.69,15.68-27.15,15.3-43.6ZM618.46,221.89c-.32-.3-.65-.59-.97-.89-.58,1.05-1.09,2.15-1.75,3.15-12.78,19.27-14.75,39.75-6.72,61.28,5.26,14.1,14.09,25.93,24.04,36.98,6.94,7.7,14.02,15.27,21.02,22.9,2.04,2.22,3.66,2.24,5.43-.48,3.3-5.09,6.72-10.12,10.34-14.98,2.24-3.01,1.69-5.07-.71-7.74-5.23-5.81-10.79-11.51-14.93-18.07-8.34-13.21-11.7-28.25-13.5-43.61-1.02-8.72-1.23-17.45,2.43-25.73,1.13-2.55-.19-3.32-2.16-4.08-6.9-2.66-13.77-5.38-20.66-8.08-.61-.24-1.25-.43-1.87-.65ZM499.32,829.5c-4.41-2.62-8.38-4.58-11.91-7.15-10.83-7.88-17.54-18.76-21.81-31.26-.76-2.22-1.48-3.97-4.43-3.93-10.26.13-20.53.09-30.79,0-2.25-.02-3.51.85-4.1,2.97-.39,1.38-.89,2.73-1.43,4.06-6.03,14.96-15.25,27.05-30.41,33.79-.66.29-1.23.8-2.15,1.42.93.84,1.56,1.61,2.36,2.1,9.5,5.73,19.3,11.03,30.47,12.29,8.18.92,16.52.42,24.75,1,16.67,1.18,31.54-3.96,45.57-12.35,1.28-.77,2.4-1.81,3.89-2.95Z" style="fill: #000; stroke-width: 0px;"/>
  <path d="M397.49,464.49c9.75-.05,18.2,3.34,25.61,9.44,3.66,3.02,7.15,6.24,10.7,9.4,2.59,2.31,5.27,3.13,8.8,1.83,1.9-.7,4.48-.65,6.4.04,3.39,1.22,6.02.53,8.53-1.69,3.06-2.71,6.11-5.42,9.17-8.13,12.48-11.02,26.77-13.43,42.36-8.44,14.91,4.77,26.78,13.51,33.53,28.05,1.69,3.65,2.21,7.83,3.57,11.66.69,1.95,1.69,4.11,3.21,5.38,7.2,6,10.03,12.55,7.2,18.91-2.06,4.62-4.37,9.21-7.18,13.4-9.47,14.06-22.81,22.87-39,27.36-5.62,1.56-11.38,2.83-17.16,3.58-16.96,2.19-29.88-4.7-39.3-18.55-1.54-2.26-3.19-2.47-5.65-2.84-6.6-.98-10.06,2.23-13.88,7.12-8.78,11.26-20.83,16.12-35.1,14.37-17.97-2.21-34.68-7.55-48.24-20.4-7.21-6.83-12.2-15.08-16.1-24.04-2.64-6.08-.4-12.58,6.35-17.93,2.79-2.21,3.96-4.68,4.46-8,1.32-8.83,5.67-16.29,11.69-22.62,10.85-11.38,24.35-17.19,40.03-17.88ZM365.56,504.05c.69.39.87.57,1.07.59.54.06,1.1.1,1.64.05,6.65-.6,12.92.97,19.14,3.12,7.51,2.6,15.19,4.73,22.58,7.62,7.25,2.83,14.12,2.37,21.27-.2,8.08-2.91,16.41-3.38,24.79-1.24,3.32.85,6.53,2.14,9.88,2.77,2.88.55,6.09,1.23,8.78.49,9.25-2.55,18.41-5.5,27.46-8.7,6.94-2.45,13.85-4.53,21.32-3.89.7.06,1.43-.17,2.79-.35-1.54-3.32-3.11-6.2-4.23-9.24-4.55-12.3-25.82-17.72-36.69-7.11-2.29,2.24-4.65,4.41-7.03,6.55-4.34,3.91-9.29,6.68-14.97,8.19-3.58.95-7.09,2.18-10.67,3.15-1.13.3-2.4.28-3.59.17-5.45-.5-11.17.6-16.21-2.54-.08-.05-.22-.02-.33-.03-6.09-.65-11.58-2.88-16.38-6.62-2.87-2.23-5.54-4.74-8.13-7.29-7.16-7.05-15.36-8.65-24.99-5.95-10.6,2.97-13.89,11.6-17.51,20.45ZM353.86,527.38c1.66,5.01,5.51,10.34,10.09,13.61,9.31,6.64,19.65,10.99,30.88,13.02,13.63,2.46,23.41-1.79,32.59-16.63.29-.48.21-1.19.31-1.86-5.8-.53-11.38-1.38-16.96-1.47-7.65-.12-14.83-1.83-20.94-6.27-11.98-8.7-23.79-5.04-35.97-.4ZM463.73,535.53c2.98,9.88,15.42,19.05,25.89,19.04,12.8-.02,24.05-5.1,34.85-11.35,5.08-2.94,8.94-7.12,11.79-12.27,2.02-3.66,2.03-3.73-1.87-4.77-1.49-.4-2.99-.82-4.42-1.39-10.12-4-19.53-2.98-28.6,3.25-6.03,4.14-12.94,5.87-20.36,6-5.68.1-11.35.95-17.29,1.49ZM445.68,528.79c-1.91.48-3.4,1.01-2.69,3.57.55,1.99.49,4.15.99,6.16.24.94,1.17,1.71,1.79,2.56.62-.83,1.58-1.58,1.81-2.51.51-2.12.51-4.36,1-6.49.61-2.68-1.13-2.92-2.9-3.29Z" style="fill: #000; stroke-width: 0px;"/>
  <path d="M351.56,367.71c.18-14.38,5.51-27.22,11.65-39.79,3.54-7.24,7.33-14.36,11.05-21.52,5.11-9.81,6.6-20.04,3.82-30.82-.38-1.49-.65-3.04-.67-4.57-.04-3.13,1.21-5.63,4.27-6.82,3.15-1.22,6.08-.48,8.04,2.14,1.9,2.53,3.52,5.38,4.73,8.3,5.91,14.26,4.86,28.55-.59,42.64-2.78,7.2-5.99,14.25-9.15,21.31-4.67,10.41-5.55,21.3-4.19,32.45.74,6.05,2.8,11.6,7.46,15.85,4.4,4.01,6.85,3.92,10.9-.39,4.38-4.66,8.74-9.33,13.08-14.03,2.06-2.23,3.94-2.34,6.29-.26,4.64,4.11,5.4,8.22,2.84,15.34-1.17,3.26-.59,4.75,2.63,5.77.99.31,2.42.12,3.34-.4,6.26-3.5,11.1-3.25,16.75,1.37,1.57,1.28,2.45,1.09,3.91-.08,5.7-4.56,10.45-4.9,16.71-1.14,2.23,1.34,3.76.22,5.42-.87,1.78-1.16,1.5-2.67.8-4.37-2.29-5.58-2.81-10.91,2.29-15.45,2.58-2.3,4.4-2.17,6.76.37,4.8,5.17,9.74,10.22,14.59,15.36,2.04,2.16,4.23,2.07,6.58.68,4.98-2.94,7.81-7.53,9.07-12.95,2.8-12.03,2.23-23.93-2.49-35.44-2.68-6.54-5.74-12.92-8.46-19.44-4.96-11.95-7.76-24.31-4.67-37.18,1.27-5.29,3.57-10.41,5.94-15.35,1.98-4.14,5.76-5.55,9.31-4.34,3.53,1.2,5.04,4.46,4.35,9.29-.64,4.47-1.68,8.93-1.76,13.41-.14,7.31,2.26,14.05,5.57,20.57,5.75,11.32,11.73,22.57,16.61,34.26,7.45,17.86,7.97,36.23.2,54.17-9.49,21.91-34.73,26.6-51.79,9.82-2.45-2.41-3.95-2.43-6.9-.76-9.35,5.3-19.05,7.85-29.02,1.16-.54-.36-1.78-.32-2.34.05-10.14,6.76-19.88,3.93-29.29-1.47-2.66-1.53-4.02-1.35-6.12.74-14.22,14.18-35.31,13.63-47.22-1.27-5.9-7.38-8.18-16.32-9.54-25.46-.53-3.59-.54-7.26-.79-10.89Z" style="fill: #000; stroke-width: 0px;"/>
</svg>