<?xml version="1.0" encoding="UTF-8"?>
<svg id="Layer_1" data-name="Layer 1" xmlns="http://www.w3.org/2000/svg" viewBox="0 0 649.73 900">
  <path d="M324.78,3.43c2.4-3.75,5.5-3.54,8.91-3.2,5,.5,10.05.74,15.07.65,48.28-.92,93.16,10.86,134.36,36.13,13.26,8.13,26.52,16.32,38.05,26.94,20.93,19.28,31.11,43.02,30.28,71.53-.06,2.21.72,5.16,2.23,6.59,11.72,11.13,20.97,24.11,29.67,37.62,22.68,35.23,40.07,73.03,54.26,112.29,12.6,34.86,15.58,70.8,7.98,107.21-4.37,20.95-12.09,40.78-26.76,56.8-6.8,7.43-15.44,13.18-23.3,19.63-11.25,9.24-24.29,14.65-38.41,17.6-3.07.64-4.06,1.91-3.35,5.1,6,26.94.91,52.16-12.9,75.61-7.32,12.43-15.56,24.33-23.75,36.21-3.88,5.63-8.81,10.45-15.2,13.43-3.01,1.4-1.22,2.94-.13,4.45,14.56,20.37,27.3,41.91,38.1,64.41,14.74,30.7,19.33,63.39,11.15,96.61-12.6,51.21-60.15,103.06-128.31,106.87-17.98,1-34.47-3.08-49.27-13.39-2.82-1.96-4.53-1.52-7.23.57-10.67,8.27-22.68,14.03-36.03,16.38-10.62,1.86-20.48-1.56-29.74-6.32-6.42-3.31-12.32-7.6-18.58-11.24-1.08-.63-3.03-.71-4.14-.15-3.5,1.75-6.73,4.01-10.16,5.91-16.73,9.29-34.72,9.88-52.95,6.93-45.58-7.38-79.02-32.25-102.2-71.74-22.63-38.56-21.29-78.57-7.42-119.3,5.78-16.98,15.77-31.89,24.77-47.24,5.83-9.93,12.41-19.42,18.75-29.05,1.11-1.68,1.28-2.71-.74-3.65-6.61-3.06-11.72-8.06-15.62-13.95-9.38-14.18-19.27-28.15-27.18-43.15-11.07-21-14.35-43.67-9.3-67.2,1.08-5.05,1.06-5.24-4.1-6.23-17.12-3.3-31.01-12.68-44.83-22.67-25.41-18.36-37.16-44.59-43.06-73.92-7.08-35.17-3.81-69.96,8.16-103.63,15.51-43.62,35.2-85.32,61.54-123.56,6.56-9.53,14.9-17.82,22.24-26.84,1.36-1.67,2.65-4.1,2.58-6.13-1.1-32.78,12.08-58.76,37.61-78.6C174.66,27.57,218,7.75,267.26,2.38c10.76-1.17,21.67-1.04,32.51-1.51,5.69-.25,11.4-.3,17.07-.81,3.16-.28,5.75.17,7.92,3.36ZM103.47,162.54c-1.25,1.8-2.34,3.19-3.24,4.69-8.97,15.12-17.9,30.26-26.86,45.39-19.37,32.72-33.98,67.33-41.69,104.69-5.62,27.26-7.16,54.72-1.95,82.12,4.12,21.68,13.62,41.09,31.49,54.76,27.93,21.37,58.83,23.91,91.19,11.43,18.43-7.11,33.86-19.1,48.99-31.46q6.04-4.93,10.86,1.03c.14.17.3.33.48.47,3.75,2.9,3.49,6.55,1.63,10.24-1.14,2.28-2.46,4.62-4.23,6.41-19.17,19.3-40.44,35.07-68.21,39.61-6.85,1.12-13.68,2.4-20.56,3.32-2.8.37-3.92,1.57-3.95,4.27-.09,7.27-.68,14.56-.33,21.81.98,20.69,6.16,40.16,17.21,57.97,6.98,11.26,14.27,22.22,22.96,32.25,2.09,2.41,3.16,2.62,5.48.48,9.32-8.67,20.58-13.05,33.18-13.58,3.63-.15,7.67.7,10.94,2.29,5.23,2.54,5.13,9.56.14,12.61-1.47.9-3.34,1.16-5.03,1.7-3.4,1.07-7.02,1.68-10.17,3.25-9.68,4.84-18.62,10.9-25.8,19.06-14.47,16.44-24.94,35.56-34.79,54.9-9.14,17.96-11.52,37.77-13.15,57.63-.98,11.99-.38,23.71,4.24,35.01,1.78,4.35,2.96,8.99,5.09,13.15,2.41,4.73,5.32,9.25,8.46,13.54,4.82,6.58,9.89,12.97,15.09,19.26,3.04,3.68,6.13,7.53,9.88,10.4,13.86,10.59,29.19,18.87,45,26.02,22.57,10.2,45.02,9.88,66.37-3.86,8.28-5.33,16.17-11.28,24.47-16.58,7.05-4.5,14.36-8.64,21.71-12.63,4.17-2.27,8.72-2.11,12.97,0,5.2,2.59,10.49,5.1,15.34,8.26,10.6,6.9,20.82,14.4,31.43,21.28,18.88,12.24,39.3,13.57,59.89,5.91,17.34-6.45,33.23-16.06,48.56-26.47,5.57-3.78,9.87-8.62,13.65-14.16,3.71-5.43,7.71-10.76,12.21-15.54,4.95-5.26,8.69-11.01,11.07-17.79,3.7-10.55,8.69-20.77,8.55-32.29-.09-7.16-.38-14.33-1.07-21.46-1.98-20.69-6.38-40.74-17.07-58.91-6.13-10.42-12.32-20.82-18.87-30.99-3.38-5.25-7.09-10.46-11.49-14.83-10.72-10.64-22.28-20.13-37.99-22.6-3.8-.6-6.41-3.86-6.59-7.13-.18-3.37,1.64-6.56,5.4-7.61,3.47-.97,7.26-1.5,10.85-1.28,12.4.74,23.23,5.47,32.35,13.94,1.72,1.6,2.9,1.63,4.3-.36,1.35-1.91,3.01-3.61,4.52-5.41,11.36-13.57,20.96-28.36,27.69-44.68,8.13-19.72,9.84-40.55,8.34-61.73-.26-3.68-1.79-4.67-5.27-5.29-12.22-2.17-24.82-3.51-36.4-7.62-20-7.09-36.79-19.75-51.36-35.19-1.37-1.45-2.51-3.17-3.49-4.92-2.99-5.34-2.73-7.23,1.22-11.94.42-.51.73-1.12,1.07-1.69,2.05-3.45,4.24-3.93,7.41-1.57,1.17.87,2.25,1.85,3.38,2.76,13.78,11.16,27.89,21.82,44.22,29.09,23.3,10.38,47.09,12.15,71.3,3.57,29.81-10.56,46.46-32.96,54.28-62.43,6-22.6,5.34-45.75,2.57-68.78-4.47-37.2-17.51-71.71-34.35-104.84-6.68-13.15-14.83-25.57-22.31-38.31-5.56-9.46-11.13-18.91-16.67-28.39-1.18-2.02-2.12-2.48-3.94-.4-4.36,4.97-10.7,3.72-12.3-2.71-1.13-4.56-1.81-9.61-1.1-14.2,3.05-19.92-1.46-38.1-11.87-54.92-13.75-22.22-33.77-37.16-57.44-47.31-19.77-8.48-40.75-12.92-61.79-16.85-20.91-3.9-41.87-7.7-62.94-10.51-8.95-1.2-18.28-.16-27.38.6-6.55.54-12.97,2.48-19.49,3.48-26.35,4.05-52.66,8.15-78.42,15.33-26.78,7.46-50.71,19.59-69.42,40.67-18.1,20.39-27.09,43.68-22.67,71.35.63,3.92-.26,8.29-1.28,12.23-1.68,6.46-8.09,7.71-12.61,2.79-.44-.48-.95-.9-1.9-1.8Z" style="fill: #000; stroke-width: 0px;"/>
  <path d="M254.72,688.14c1.08-1.25,2.2-2.62,3.38-3.93,13.67-15.22,30.41-22.44,51.01-19.56,4.76.66,9.51,1.87,14.28,1.95,4.64.08,9.33-.79,13.95-1.57,23.34-3.96,42.01,3.9,56.66,22.12.27.34.64.59,1.14,1.03.73-.56,1.45-1.04,2.09-1.62,9.19-8.22,19.39-9.65,30.42-4.15,7.91,3.94,13.98,9.97,19.1,17.07,17.15,23.77,21.24,50.31,16.62,78.65-.84,5.18-2.23,10.28-3.47,15.4-1.74,7.18-5.69,13.12-10.81,18.29-5.94,6.01-13.25,8.35-21.5,6.87-8.01-1.44-15.62-4.11-21.84-9.68-1.74-1.56-2.72-1.2-4,.54-7.55,10.31-17.99,13.17-30.04,11.01-12.05-2.15-22.15-8.31-31.02-16.5-2.24-2.06-4.28-2.98-7.19-1.76-5.75,2.4-11.56,2.43-17.32.02-2.87-1.2-4.95-.38-7.2,1.71-8.6,7.97-18.4,13.99-30.02,16.33-12.51,2.53-23.39-.2-31.25-11.04-1.24-1.71-2.26-1.74-3.79-.36-6.39,5.76-14.21,8.45-22.47,9.82-7.62,1.26-14.46-.91-20.09-6.28-5.61-5.35-9.64-11.66-11.75-19.24-6.98-25.08-7.7-49.97,2.27-74.47,4.21-10.35,9.91-19.98,18.18-27.56,4.45-4.08,9.74-7.67,15.26-10.07,9.42-4.09,18.43-2.21,26.22,4.68.75.67,1.5,1.35,2.27,1.99.16.13.41.15.92.32ZM227.13,800.2c7.58-2.51,12.39-6.57,15.11-13.14,1.58-3.81,3.3-7.61,5.41-11.13,2.6-4.33,6.47-5.52,10.24-3.74,3.54,1.68,4.34,4.72,3.14,9.84-.84,3.56-1.62,7.25-1.6,10.88.03,5.17,1.72,6.1,5.76,3.04,5.78-4.38,11.16-9.29,16.68-14.01,1.66-1.42,3.42-2.41,5.42-.93,2,1.48,1.89,3.67.62,5.41-3.95,5.38-8.09,10.62-12.21,15.88-.64.81-1.52,1.44-2.28,2.15.17.28.35.55.52.83,8.47-.94,16.28-4.17,21.86-10.56,4.55-5.21,7.51-11.82,11.12-17.84.92-1.53,1.3-3.5,2.5-4.72,1.16-1.19,3.15-2.43,4.57-2.22,1.05.16,2.22,2.51,2.51,4.04.32,1.68-.55,3.55-.44,5.3.07,1.02.85,2.19,1.65,2.93,1.42,1.32,3.27,2.19,4.63,3.56,1.86,1.87,3.35,1.88,5-.15.76-.94,1.58-2.32,2.56-2.51,4.28-.81,4.2-3.43,3.24-6.65-.19-.63-.17-1.33-.21-2-.12-2.19.37-4.15,2.74-4.78,2.37-.62,3.78.85,4.77,2.79,1.26,2.5,2.31,5.13,3.76,7.51,3.14,5.14,5.82,10.77,9.9,15.06,5.54,5.84,12.84,9.25,21.08,10.03.23.02.5-.31,1.09-.71-1.06-.92-2.11-1.58-2.83-2.5-4.03-5.18-8.15-10.32-11.83-15.75-.73-1.08-.26-4.13.72-4.89.97-.76,3.39-.03,5,.54,1.06.37,1.75,1.69,2.7,2.46,5.11,4.16,10.13,8.46,15.44,12.35,2.88,2.11,4.46,1.42,4.54-2.17.09-4.16-.56-8.42-1.45-12.51-1.08-5-.3-8.09,3.29-9.76,3.66-1.71,7.42-.59,10,3.62,2.15,3.5,3.92,7.28,5.48,11.09,2.72,6.66,7.48,10.82,15.03,13.21-2.17-3.85-4.01-6.99-5.73-10.18-1.19-2.21-2.47-4.7.16-6.63,2.7-1.98,4.47.22,6.28,1.96,3.05,2.95,5.99,6.08,9.36,8.64,5.38,4.09,10.64,2.27,11.59-4.45,1.43-10.17,2.01-20.46,2.82-30.71.14-1.79-.39-3.63-.72-6.32-1.19,1.46-1.74,2.24-2.4,2.93-2.64,2.72-5.24,5.49-8.01,8.09-1.71,1.6-3.88,2.77-6,.88-2.32-2.06-1.07-4.28.39-6.27,4.41-6.01,6.94-12.78,7.86-20.13.66-5.22,1.24-10.46,1.46-15.71.44-10.49-4.74-18.1-12.93-24-.28-.2-.77-.11-1.63-.2,2.53,9.41,1.83,18.48-.36,27.49-.62,2.55-.84,5.93-4.55,5.54-3.79-.4-3.18-3.73-3.12-6.36.21-8.42-.9-16.56-5.01-24.05-.82-1.5-1.31-3.88-4.09-2.8-4.56,1.76-5.5,3.2-5.06,6.48.7,5.09,1.2,10.21,1.47,15.34.16,3.07-3.29,6.97-6.02,7.2-3.8.33-4.41-2.48-5.2-5.32-2.11-7.62-5.44-14.68-10.15-21.06-.7-.95-1.01-2.19-1.5-3.29-.42.43-.85.86-1.27,1.28-1.26,4.51-2.46,9.02-3.79,13.51-.69,2.34-1.72,4.71-4.72,4.27-3.01-.44-3.08-2.99-3.3-5.44-.56-6.34-1-12.72-2.02-18.99-.9-5.49-4.73-7.62-11-6.59.28,1.06.67,2.08.79,3.12.63,5.2,1.31,10.39,1.71,15.61.18,2.36-.64,4.61-3.46,4.95-2.65.32-3.69-1.63-4.41-3.77-.65-1.91-1.16-3.88-2-5.7-2.76-5.96-4.03-13.06-11.46-15.61-.29-.1-.54-.41-.73-.68-1.39-1.97-3.09-1.81-5.02-.89-3.87,1.86-7.8,1.89-11.64-.05-2-1.01-3.54-.82-5.03.95-.68.81-1.89,1.16-2.74,1.86-1.5,1.24-3.46,2.31-4.26,3.93-2.62,5.3-4.85,10.8-7.13,16.27-.88,2.11-1.92,4-4.52,3.67-2.6-.33-3.54-2.41-3.36-4.68.41-5.22,1.07-10.41,1.69-15.61.14-1.14.53-2.25.82-3.42-6.53-.83-9.73,1.23-11.04,6.81-.51,2.18-1.01,4.38-1.21,6.6-.38,4.35-.29,8.75-.93,13.05-.25,1.66-1.64,3.89-3.07,4.45-2.38.94-3.78-1.14-4.54-3.33-.37-1.06-.79-2.1-1.07-3.18-.98-3.75-1.92-7.5-2.89-11.34-.52.2-.91.23-1.1.43-.69.73-1.36,1.49-1.95,2.3-4.8,6.59-8.16,13.87-10.27,21.74-.99,3.67-3.63,5.27-6.36,3.62-2.77-1.68-4.92-4-4.54-7.63.54-5.11,1.25-10.2,1.67-15.32.09-1.06-.5-2.64-1.32-3.22-5.4-3.85-6.22-3.57-8.97,2.4-.37.81-.71,1.64-1.04,2.48-2.78,6.91-3.21,14.14-3,21.47.06,2.16-.48,4.18-2.98,4.57-2.51.4-3.67-1.35-4.21-3.45-2.24-8.76-3.4-17.59-1.5-26.6.2-.94.28-1.9.44-2.96-.64.03-1.04-.08-1.27.08-7.15,4.8-12.49,11.39-12.79,19.94-.51,14.26.46,28.55,9.53,40.75,1.31,1.77,1.77,3.78-.09,5.45-1.84,1.65-3.89,1.06-5.47-.41-2.94-2.73-5.7-5.66-8.53-8.51-.63-.64-1.22-1.31-2.21-2.39-.33,1.34-.57,1.96-.63,2.6-1.1,11.61.59,23.02,2.63,34.39.15.86.56,1.71.98,2.49,1.93,3.56,5.37,4.71,8.76,2.56,2.62-1.67,4.99-3.77,7.32-5.85,1.91-1.71,3.43-3.91,5.47-5.43,1.03-.77,3.33-1.17,4.16-.54,1.03.78,1.4,2.76,1.52,4.27.08.98-.74,2.07-1.28,3.05-1.65,3.01-3.35,5.98-5.47,9.75Z" style="fill: #000; stroke-width: 0px;"/>
  <path d="M189.62,218.18c-4.53.93-9.14,1.58-13.55,2.9-2.96.88-5.62,2.73-8.43,4.12-1.7.85-3.38,1.79-5.15,2.45-4.43,1.65-8.97.71-11.11-2.15-2.12-2.83-1.72-6.91,1.21-10.9,4.21-5.74,10.12-9.13,16.71-11.29,10.98-3.6,22.39-3.95,33.58-2.1,11.27,1.87,20.75,7.76,27.41,17.35,17.3,24.91,24.39,52.13,17.77,82.18-3.85,17.49-8.14,34.89-12.27,52.33-.54,2.28-1.42,4.49-1.95,6.77-.92,3.95-3.59,5.67-7.34,6.3-3.18.53-5.08-1.01-4.73-4.25,2.04-18.75,1.05-37.85,6.64-56.19.35-1.14.34-2.39.03-3.78-19.62,22.37-39,44.8-44.33,76.02,1.59.18,2.88.5,4.15.45,4.92-.19,9.84-.73,14.75-.64,1.74.03,4.2,1.07,4.96,2.43.77,1.37.47,4.16-.51,5.48-1.74,2.34-4.22,4.21-6.63,5.94-1.31.93-3.09,1.43-4.72,1.66-29.42,4.07-51.8-4.88-63.86-29.45-9.25-18.85-14.49-38.52-10.36-59.47,1.73-8.77,5.53-17.21,9.05-25.51,1.14-2.69,4.07-5.09,6.76-6.53,4.35-2.33,9.36.3,10.33,5.18.51,2.54.36,5.37-.18,7.92-1.2,5.69-2.87,11.29-4.28,16.93-.4,1.59-.59,3.24-.24,5.38.87-.65,1.88-1.17,2.59-1.97,11.22-12.52,21.08-25.84,25.81-42.36,4-13.95,10.16-27.02,16.74-39.91.64-1.26,1.21-2.56,1.82-3.84-.23-.48-.45-.96-.68-1.43ZM188.22,335.61c.94-1.03,1.27-1.33,1.52-1.68,9.21-12.64,18.45-25.26,27.53-37.99.81-1.14,1.21-3.28.72-4.52-2.49-6.33-4.91-12.76-8.17-18.71-4.56-8.34-11.71-13.93-20.78-17.05-3.04-1.05-4.35-.27-5.17,2.87-4.03,15.35-9.55,30.05-19.11,42.96-.59.8-.62,2.71-.07,3.57,4.34,6.9,8.62,13.86,13.47,20.4,2.74,3.7,6.51,6.63,10.06,10.14ZM184.88,342.38c-5.7-4.84-11.25-8.87-15.94-13.73-4.69-4.85-8.52-10.53-13.39-16.69-.71,1.06-1.2,2.3-2.1,3.06-3.23,2.74-6.45,5.54-9.96,7.87-2.09,1.39-2.85,2.85-2.66,5.23.82,10.26,3.2,20.13,7.62,29.43,4.77,10.04,12.64,16.33,23.55,18.73,3.85.85,4.01.77,4.21-3.09.5-9.87,3.05-19.2,7.39-28.06.53-1.09,1.03-2.2,1.29-2.76ZM224.3,287.05c.44.15.89.29,1.33.44,1.48-2.61,4.19-5.22,4.21-7.84.05-9.25-.21-18.59-1.47-27.74-2.18-15.92-12.03-25.66-26.94-30.76-2.37-.81-3.48-.17-4.34,2.01-2.48,6.23-5.09,12.41-7.61,18.63-.31.77-.37,1.64-.61,2.75,10.95.65,17.95,7.06,23.23,15.47,3.25,5.17,5.69,10.87,8.24,16.45,1.56,3.42,2.65,7.05,3.95,10.59Z" style="fill: #000; stroke-width: 0px;"/>
  <path d="M458.79,218.82c1.03,2.15,1.61,3.45,2.27,4.71,7.22,13.83,13.3,28.13,17.9,43.06,4.84,15.73,14.84,28.21,25.68,40.12.49.53,1.21.85,2.55,1.77-.23-1.76-.26-2.79-.51-3.78-1.38-5.54-2.89-11.05-4.18-16.61-.65-2.81-1.25-5.71-1.3-8.57-.05-3.35,1.53-6.07,4.82-7.42,3.25-1.34,6.47-.69,8.73,1.66,2.42,2.53,4.55,5.56,6.08,8.71,12.14,25.06,10.34,50.1-.47,75.05-4.09,9.44-9.16,18.19-17.22,24.91-9.77,8.14-21.34,11.1-33.67,11.6-5.01.2-10.08-.03-15.05-.65-4.9-.61-9.38-2.77-11.99-7.19-.99-1.68-1.52-4.51-.76-6.1.65-1.36,3.44-2.3,5.3-2.34,4.8-.1,9.61.43,14.41.64,1.19.05,2.4-.2,4.02-.36-5.07-31.19-24.59-53.53-43.61-76.16l-.85.26c.06.9.02,1.83.19,2.71,1.47,7.59,3.26,15.12,4.37,22.76.83,5.74.78,11.6,1.13,17.41.33,5.34.53,10.7,1.06,16.02.42,4.2-1.33,5.75-5.44,4.96-4.04-.78-5.88-3.28-6.76-6.93-3.08-12.73-6.19-25.46-9.24-38.2-1.54-6.42-3.02-12.87-4.47-19.31-6.76-30.03.08-57.28,17.08-82.37,6.54-9.65,15.85-15.92,27.13-17.79,13.34-2.22,26.9-2,39.5,4.08,3.74,1.81,6.95,4.8,10.23,7.47,1.16.94,1.98,2.44,2.64,3.84,3.24,6.79-.33,12.26-7.77,11.41-3.1-.36-6.21-1.8-9-3.33-5.77-3.15-11.62-5.82-18.32-6.01-1.2-.03-2.4,0-4.47,0ZM460.74,335.3c1.34-.96,2.46-1.67,3.47-2.5,7.38-6.08,12.27-14.1,17.56-21.89,3.54-5.22,4.76-9.78-.32-14.56-.63-.59-.98-1.49-1.46-2.25-6.95-10.89-10.8-23.04-14.31-35.33-1.19-4.17-1.45-4.36-5.58-2.94-8.57,2.95-15.5,8.24-19.93,16.1-3.39,6.01-5.78,12.57-8.62,18.88-.99,2.19-.4,3.85,1.08,5.77,7.63,9.92,15.11,19.97,22.55,30.04,1.97,2.67,3.6,5.6,5.56,8.67ZM492.85,312.88c-.23.29-.69.76-1.04,1.31-6.76,10.59-14.67,20.04-25.84,26.34-.63.35-1.1,2.17-.76,2.86,4.86,9.76,7.84,19.99,8.13,30.94.06,2.1.88,2.7,2.95,2.28,9.04-1.85,16.72-5.94,21.83-13.8,7.01-10.79,9.88-22.93,10.69-35.62.07-1.06-.46-2.58-1.25-3.21-4.7-3.72-9.55-7.25-14.71-11.1ZM425.15,287.27c.51-1.41.81-2.48,1.26-3.47,3.66-8.02,6.79-16.36,11.2-23.95,4.87-8.39,12.06-14.41,22.39-15.32.17-.01.31-.29.91-.89-2.97-7.07-5.98-14.4-9.21-21.62-.29-.64-2.15-1.16-3.01-.88-13.58,4.37-23.77,12.59-26.56,27.1-1.82,9.49-1.75,19.33-2.65,29-.42,4.5,1.8,7.36,5.66,10.04Z" style="fill: #000; stroke-width: 0px;"/>
  <path d="M295.75,469.78c-.23,17.12-2.99,33-9.23,48.26-2.94,7.19-2.18,14.74-.52,22.13.4,1.78,1.55,3.48,2.67,4.99,3.2,4.29,5.01,4.51,9.55,1.59,2.63-1.69,5.2-3.57,8.02-4.87,5.14-2.36,8.51-.47,10.23,4.86.44,1.38,2.07,2.98,3.43,3.32,2.55.63,5.32.59,7.98.49,3.01-.11,5.15-1.2,5.7-4.83.6-3.93,4.24-5.84,8.27-4.31,3.3,1.25,6.33,3.28,9.34,5.18,4.9,3.09,6.74,2.97,10.01-1.75,1.43-2.06,2.73-4.53,3.08-6.96,1.05-7.34,1.15-14.58-1.72-21.79-7.95-19.94-10.9-40.68-7.39-61.93,1.26-7.64,4.4-14.98,6.78-22.43.36-1.13,1.12-2.23,1.96-3.09,2.14-2.2,4.77-2.97,7.66-1.63,2.96,1.37,3.9,3.95,3.31,7-4.07,21.05-1.81,41.97,1.7,62.77,3.79,22.47,14.88,40.32,34.89,52.07,2.32,1.36,4.59,2.79,6.86,4.23,3.73,2.36,5.4,7.57,3.71,11.47-1.66,3.86-5.86,5.96-10.37,4.67-9.52-2.72-17.72-7.97-25.39-14.08-3.96-3.16-3.99-3.21-5.72,1.56-2.09,5.75-4.97,11.01-9.41,15.32-7.7,7.47-17.03,7.79-24.81.35-3.05-2.92-5.77-3.67-9.55-1.91-7.98,3.7-16.07,3.65-24.05-.04-3.62-1.67-6.29-1.09-9.26,1.78-7.95,7.7-17.78,7.65-25.16-.6-3.79-4.23-6.52-9.56-9.04-14.73-2.31-4.73-1.66-4.55-5.88-1.79-7.09,4.63-14.51,8.78-21.85,13.01-1.32.76-2.95,1.09-4.48,1.34-4.21.69-8.19-1.53-9.54-5.18-1.41-3.78.18-8.9,3.47-11.01,3.11-1.99,6.25-3.94,9.41-5.86,17.5-10.69,27.51-26.65,31.8-46.29,4.14-18.91,5.39-38.12,4.12-57.46-.17-2.66-.67-5.33-1.28-7.94-1.04-4.41,0-7.48,3.23-8.84,3.38-1.41,7.15.14,9.02,4.27,4.94,10.9,7.97,22.32,8.46,34.34.07,1.68,0,3.36,0,4.31Z" style="fill: #000; stroke-width: 0px;"/>
  <path d="M275.06,173.15c-.58,5.33-.72,10.77-1.9,15.97-.78,3.46-2.66,6.87-4.76,9.78-2.56,3.55-8.69,3.26-11.48-.38-3.12-4.08-5.96-8.39-8.72-12.73-5.87-9.23-12.53-17.75-21.44-24.27-16-11.71-33.8-16.5-53.53-13.7-3.32.47-6.66,1-10,1.12-5.8.21-9.14-4.62-6.31-9.68,2.26-4.04,5.24-7.83,8.53-11.1,5.38-5.36,11.17-10.34,16.98-15.25,6.67-5.63,14.29-9.67,22.71-11.96,19.57-5.31,36.06-.13,49.24,15.2,13.43,15.63,20.44,35.54,20.69,57Z" style="fill: #000; stroke-width: 0px;"/>
  <path d="M374.65,172.77c.21-21.7,6.99-41.01,21.25-57.37,13.02-14.94,29.41-19.63,48.55-14.44,11.79,3.19,21.35,10.1,30.11,18.29,3.84,3.59,7.91,6.97,11.49,10.8,2.57,2.74,4.92,5.87,6.63,9.2,2.65,5.16-.59,9.89-6.38,9.68-3.23-.12-6.45-.66-9.67-1.06-28.53-3.6-51.39,6.5-68.91,28.92-5.23,6.69-9.68,13.98-14.46,21.01-2.19,3.21-5.21,4.25-8.77,3-1.57-.55-3.19-1.66-4.2-2.97-2.93-3.78-4.48-8.16-4.72-13-.2-4.02-.6-8.03-.91-12.05Z" style="fill: #000; stroke-width: 0px;"/>
  <path d="M309,266.4c-1.11,25.4-5.99,50.2-12.35,74.72-2.61,10.07-6,19.93-9.05,29.88-.26.86-.53,1.72-.9,2.53-.87,1.9-2.41,3.5-4.41,2.51-1.24-.61-2-2.6-2.51-4.13-.32-.95.22-2.19.39-3.29,4.65-29.52,9.49-59.02,13.83-88.59,1.21-8.26,1.3-16.74,1.16-25.11-.08-4.48-1.19-9.14-2.79-13.36-2.79-7.34-9.35-10.49-17.09-9.04-.44.08-.87.2-1.31.28-3.72.63-6.31-.58-7.16-3.32-.83-2.7.65-5.34,3.9-6.94,11.13-5.48,25.13-1,32.08,10.33,4.28,6.98,5.69,14.78,6.18,22.78.22,3.57.04,7.16.04,10.74Z" style="fill: #000; stroke-width: 0px;"/>
  <path d="M353.72,266.47c2.24,15.62,4.67,33.47,7.39,51.29,2.62,17.16,5.56,34.27,8.31,51.42.43,2.69,1.52,6.09-2.39,6.95-3.61.79-4.24-2.53-5.09-5.04-11.29-33.47-19.2-67.68-21.26-103.02-.46-7.85.51-15.88,1.7-23.69,1.11-7.34,4.62-13.84,10.65-18.53,7.47-5.82,15.77-7.15,24.68-3.78,1.33.5,2.99,1.19,3.59,2.29.88,1.6,1.64,3.89,1.12,5.44-.46,1.38-2.64,2.38-4.26,3.1-.89.4-2.2-.03-3.29-.24-8.88-1.69-15.36,1.97-18.39,10.55-.7,2-1.33,4.08-1.54,6.18-.5,4.89-.72,9.81-1.22,17.08Z" style="fill: #000; stroke-width: 0px;"/>
  <path d="M211.64,629.46c3.61-.05,5.94,1.12,6.93,4.02,1.12,3.27-.64,5.52-3.1,7.46-4.82,3.8-10.02,7.23-14.3,11.57-19.55,19.79-32.05,43.72-40.01,70.15-2.48,8.24-4.43,16.65-6.62,24.98-.23.86-.23,2-.78,2.52-1.04.97-2.68,2.44-3.57,2.15-1.19-.39-2.68-2.25-2.67-3.47.02-3.21.77-6.42,1.26-9.63,4.12-26.94,11.92-52.57,26.81-75.69,6.57-10.2,13.92-19.78,23.33-27.57,3.9-3.23,8.03-6.12,12.74-6.48Z" style="fill: #000; stroke-width: 0px;"/>
  <path d="M437.77,628.67c3.52,1.81,7.31,3.25,10.51,5.51,7.86,5.53,14.01,12.84,19.68,20.53,16.7,22.64,26.35,48.2,31.24,75.72.92,5.18,1.81,10.37,2.6,15.57.38,2.51,1.22,5.66-2.31,6.39-3.54.73-3.89-2.46-4.61-4.94-3.84-13.22-6.96-26.7-11.73-39.57-8.62-23.29-21.51-44.03-40.34-60.65-2.84-2.5-6.18-4.42-9.23-6.7-2.36-1.76-3.51-4.14-2.56-7.07.97-2.97,3.36-4,6.73-4.79Z" style="fill: #000; stroke-width: 0px;"/>
  <path d="M583.81,381.49c-.11,16.3-3.2,30.49-7.09,44.56-.62,2.23-1.71,4.18-4.38,3.59-2.63-.58-2.81-2.78-2.54-5.09,1.05-8.89,2.44-17.76,2.98-26.69,1.04-17.25-1.5-33.95-9.02-49.7-3.47-7.27-8.24-13.56-13.99-19.15-1.03-1-2.38-2.11-2.64-3.36-.37-1.81-.57-4.38.42-5.56,1.1-1.32,3.64-1.97,5.53-1.93,1.6.03,3.28,1.3,4.74,2.3,10.82,7.42,17.26,17.96,21.23,30.2,3.42,10.54,4.75,21.4,4.77,30.84Z" style="fill: #000; stroke-width: 0px;"/>
  <path d="M96.74,317.87c4.8-.04,7.36,3.27,6.17,6.83-.41,1.22-1.18,2.47-2.12,3.35-15.3,14.24-21.6,32.52-23.71,52.68-1.5,14.28.23,28.39,2.4,42.46.1.66.25,1.32.31,1.99.17,2.08-.31,3.94-2.57,4.47-2.29.54-3.65-.91-4.22-2.91-7.09-24.68-10.53-49.52-2.84-74.75,3.88-12.75,10.36-23.79,21.58-31.52,1.8-1.24,3.89-2.04,5.02-2.61Z" style="fill: #000; stroke-width: 0px;"/>
  <path d="M496.2,784.51c-.58,2-.82,3.1-1.21,4.13-12.19,32.27-35.5,51.57-68.92,59.07-2.09.47-4.21.5-5.13-1.87-.98-2.51.57-4,2.67-5.01,5.03-2.43,10.13-4.75,15.1-7.3,20.06-10.25,34.35-26.14,44.7-45.88,1.04-1.97,1.91-4.28,3.53-5.62,1.41-1.16,3.99-1.96,5.64-1.48,1.58.47,2.62,2.78,3.62,3.95Z" style="fill: #000; stroke-width: 0px;"/>
  <path d="M160.08,780.09c.93.91,2.95,2.3,4.16,4.2,3.57,5.55,6.6,11.45,10.23,16.96,11.06,16.8,26.57,28.25,44.67,36.48,2.34,1.07,4.7,2.11,7,3.26,1.97.98,3.65,2.66,2.35,4.74-.75,1.2-3.26,2.27-4.64,1.95-26.46-6.04-48.27-18.87-61.73-43.4-2.9-5.29-5.44-10.8-7.77-16.37-1.75-4.18.55-7.91,5.72-7.82Z" style="fill: #000; stroke-width: 0px;"/>
  <path d="M248.92,55.5c17.83.22,32.91,10.45,39.54,28.34,2.72,7.33,3.4,15.43,4.81,23.22.4,2.2-.28,4.44-2.94,4.9-2.62.45-3.71-1.4-4.55-3.55-2.66-6.77-4.88-13.77-8.2-20.2-8.87-17.14-23.74-23.18-42.28-17.78-.86.25-1.72.52-2.61.63-2.69.32-4.97-.41-6.09-3.07-1.11-2.64-.31-5.2,2.02-6.46,3.6-1.95,7.45-3.55,11.36-4.76,2.84-.88,5.95-.88,8.94-1.27Z" style="fill: #000; stroke-width: 0px;"/>
  <path d="M356.3,104.96c.97-13.73,4.85-27.26,15.76-37.92,11.46-11.21,30-14.57,44.64-8.05,1.72.76,3.79,1.59,4.72,3.03,1.07,1.66,1.94,4.42,1.25,5.97-.68,1.53-3.33,2.43-5.3,3.03-1.11.34-2.59-.44-3.87-.82-16.83-4.91-31.55.61-40.2,15.82-3.57,6.28-5.88,13.27-8.74,19.95-.4.92-.66,1.9-1,2.85-.76,2.09-2.06,3.63-4.47,3.13-2.44-.5-2.92-2.5-2.88-4.67,0-.45.04-.89.1-2.31Z" style="fill: #000; stroke-width: 0px;"/>
  <path d="M261.37,462.31c-.9,19.04-4.42,37.36-13.63,54.28-5.13,9.43-12.13,17.14-21.2,22.92-.84.54-1.77,1.35-2.65,1.33-1.32-.03-3.02-.32-3.82-1.18-.67-.73-.67-2.57-.27-3.67.48-1.29,1.66-2.35,2.61-3.44,19.37-22.2,28.7-48.17,29.03-77.5,0-.78-.05-1.57,0-2.35.2-3.46,2.13-5.71,4.89-5.75,2.86-.04,4.95,2.38,5.03,5.98.07,3.13.01,6.26.01,9.39Z" style="fill: #000; stroke-width: 0px;"/>
  <path d="M398.11,459.39c1.63,27.68,10.68,52.41,29.17,73.38,1.81,2.05,4.61,4.24,1.96,7.14-2.59,2.84-5.11.38-7.39-1.14-12.75-8.46-20.51-20.65-25.75-34.69-4.34-11.63-6.58-23.69-7.32-36.04-.27-4.47-.43-8.94-.6-13.41-.19-4.86,1.67-7.67,4.99-7.67,3.18,0,4.99,2.71,4.95,7.39-.01,1.68,0,3.36,0,5.03Z" style="fill: #000; stroke-width: 0px;"/>
  <path d="M450.55,78.45c-.78,0-1.57.04-2.34,0-2.53-.16-4.6-1.08-5.45-3.67-.82-2.51-.28-5.08,1.89-6.26,2.84-1.54,6.11-3.05,9.24-3.15,9.09-.27,16.91,3.73,24.11,8.89,10.37,7.44,17.7,17.37,22.56,29.04,2.7,6.49,4.72,13.26,6.98,19.93.77,2.28.92,4.67-1.9,5.57-2.58.83-3.8-1.07-4.75-3.15-2.72-5.88-5.2-11.91-8.31-17.58-6.9-12.56-16.79-22.01-30.33-27.19-3.7-1.42-7.68-2.13-11.53-3.16-.06.24-.11.49-.17.73Z" style="fill: #000; stroke-width: 0px;"/>
  <path d="M198.81,77.78c-3.65.94-7.41,1.58-10.93,2.89-12.98,4.84-22.83,13.57-29.74,25.44-3.42,5.87-6.06,12.21-9.05,18.33-.49,1-.72,2.38-1.52,2.92-1.15.78-2.89,1.53-4.04,1.18-.93-.28-1.56-2.15-1.93-3.43-.22-.75.28-1.73.53-2.59,3.47-11.85,7.55-23.44,14.9-33.57,6.92-9.53,15.47-17.15,26.64-21.2,4.12-1.49,8.68-2.25,13.07-2.34,2.65-.06,5.54,1.45,7.96,2.88,2.27,1.34,3.02,3.88,2.09,6.52-.94,2.69-3.13,3.63-5.81,3.66-.67,0-1.34-.06-2.01-.1-.05-.2-.1-.4-.15-.59Z" style="fill: #000; stroke-width: 0px;"/>
  <path d="M552.69,277.81c1.86.79,5.67,1.88,8.93,3.88,12.85,7.89,21.77,19.29,27.01,33.24,3.17,8.43,4.97,17.38,7.27,26.12.58,2.2.3,4.49-2.42,5.07-2.5.53-3.55-1.3-4.22-3.37-1.61-5-2.99-10.09-4.91-14.97-6.46-16.51-17.8-28.72-33.33-37.14-.88-.48-1.81-.87-2.75-1.22-4.18-1.57-5.91-3.89-5.21-7.03.67-2.98,3.62-4.78,9.62-4.58Z" style="fill: #000; stroke-width: 0px;"/>
  <path d="M97.65,277.76c5.51.05,8.25,1.81,8.91,4.71.6,2.66-.95,5.18-4.05,6.52-17.73,7.7-29.92,20.82-37.26,38.53-1.96,4.74-3.29,9.74-4.85,14.64-.72,2.25-1.56,4.57-4.45,3.93-2.9-.64-2.78-3.08-2.31-5.43,2.74-13.9,6.24-27.52,14.4-39.44,5.89-8.61,12.91-16.06,22.31-20.86,2.73-1.39,5.82-2.09,7.31-2.61Z" style="fill: #000; stroke-width: 0px;"/>
  <path d="M129.4,513.61c-.07-4.37,1.67-6.91,4.48-7.28,2.93-.39,5.12,1.63,6.14,5.41,3.96,14.57,7.4,29.32,12.16,43.62,3.05,9.17,8.07,17.68,12.21,26.48.52,1.11,1.53,2.18,1.56,3.29.03,1.38-.32,3.41-1.24,4-.92.59-2.78-.19-4.18-.54-.44-.11-.75-.79-1.08-1.24-14.48-20.07-24.72-42.01-29.13-66.49-.48-2.64-.69-5.33-.92-7.24Z" style="fill: #000; stroke-width: 0px;"/>
  <path d="M520.09,514.31c-1.18,13.55-5.11,27.48-11.45,40.49-5.37,11.01-12.08,21.37-18.23,31.99-.49.85-1.16,1.87-1.99,2.18-1.13.43-2.8.77-3.67.23-.86-.54-1.25-2.18-1.41-3.39-.1-.77.48-1.7.93-2.46,12.75-21.56,19.96-45.1,24.82-69.48.13-.66.26-1.32.42-1.97.97-4.03,3.3-6.09,6.3-5.59,2.82.47,4.43,3.09,4.28,8Z" style="fill: #000; stroke-width: 0px;"/>
  <path d="M108.42,378.57c-.61,4.42-1.47,8.83-1.77,13.28-1.36,19.91,2.74,38.5,13.75,55.37,1.48,2.27,3.92,4.98.59,7.27-3.1,2.14-4.78-.96-6.46-2.95-16.32-19.36-21.26-41.95-18.56-66.58.37-3.34,1.73-6.7,3.21-9.76,1.11-2.29,3.82-3.3,6.07-2.06,1.76.97,2.84,3.18,4.22,4.84-.34.2-.69.4-1.03.6Z" style="fill: #000; stroke-width: 0px;"/>
  <path d="M543.76,398.41c-.85-5.96-1.58-11.95-2.58-17.89-.65-3.87.36-6.66,3.17-7.55,2.86-.91,5.93.46,7.14,4.01,1.28,3.77,2.28,7.78,2.55,11.74,1.6,23.47-3.67,44.92-19.32,63.16-.36.42-.71.86-1.08,1.28-1.45,1.64-3.17,2.78-5.26,1.34-2.11-1.46-1.6-3.46-.51-5.37.5-.87,1.04-1.72,1.59-2.57,9.54-14.61,13.73-30.74,14.29-48.16Z" style="fill: #000; stroke-width: 0px;"/>
  <path d="M497.68,513.3c-1.61,18.93-8.95,36.87-19.99,53.42-2.05,3.07-4.29,6-6.46,8.99-1.52,2.09-3.28,4.15-6.07,2.38-2.59-1.65-1.5-4.06-.53-6.29,4.69-10.76,9.78-21.37,13.88-32.35,3.4-9.08,5.62-18.6,8.36-27.93.09-.32.14-.66.22-.98,1.01-4,3.31-5.92,6.44-5.38,2.83.49,4.38,3.1,4.14,8.14Z" style="fill: #000; stroke-width: 0px;"/>
  <path d="M151.81,512.42c.07-.81-.22-2.39.4-3.4.92-1.49,2.37-3.42,3.81-3.61,1.61-.22,3.59,1.07,5.13,2.12.76.52,1.07,1.93,1.29,3,4.42,21.06,12.58,40.76,21.8,60.07,1.17,2.44,3.39,5.35.14,7.45-3.47,2.25-5.16-1.08-6.87-3.35-12.69-16.75-21.75-35.12-24.98-56.09-.29-1.88-.45-3.77-.73-6.2Z" style="fill: #000; stroke-width: 0px;"/>
  <path d="M522.54,409.04c-.27,6.82-3.15,12.31-7.14,17.28-8.66,10.77-20.45,16.01-33.62,18.53-1.3.25-3.56-.91-4.3-2.09-1.18-1.87.15-3.62,2-4.65,3.12-1.75,6.33-3.34,9.4-5.18,7.19-4.29,13.55-9.6,18.07-16.71,1.86-2.93,3.16-6.38,3.99-9.77.95-3.83,2.22-5.88,5.13-6.06,2.96-.18,5.28,1.9,6.09,5.58.24,1.08.29,2.21.39,3.08Z" style="fill: #000; stroke-width: 0px;"/>
  <path d="M132.25,400.29c3.79.26,5.62,1.82,5.93,4.36,1.31,11,8.62,17.91,16.6,24.14,4.37,3.41,9.45,5.91,14.26,8.74,2.01,1.19,4.15,2.4,3.17,5.12-1.03,2.85-3.48,2.59-5.94,2.03-11.44-2.62-21.86-7.15-30-15.96-4.08-4.42-7.58-9.31-8.54-15.3-.52-3.26-.02-6.85.85-10.07.39-1.46,2.81-2.38,3.68-3.06Z" style="fill: #000; stroke-width: 0px;"/>
  <path d="M234.45,460.13c-.53,9.98-4.08,19.71-8.79,29.07-4.8,9.56-11.07,18.11-18.32,25.96-1.69,1.83-3.64,3.53-6.02,1.54-2.21-1.84-1.06-4.04.28-5.99,7.45-10.81,14.02-22.1,18.72-34.4,2.36-6.17,4.57-12.36,4.4-19.16-.08-3.28,2.09-5.41,4.77-5.4,2.58.01,4.65,2.25,4.93,5.39.07.78.01,1.56.01,2.97Z" style="fill: #000; stroke-width: 0px;"/>
  <path d="M414.94,459.62c.12-1.33.08-2.48.34-3.55.65-2.67,2.25-4.48,5.18-4.26,2.78.21,4.29,2.19,4.3,4.76.08,12.45,5.49,23.19,10.93,33.83,3.45,6.75,7.78,13.06,11.7,19.57.63,1.05,1.58,2.09,1.7,3.21.12,1.17-.22,2.87-1.02,3.52-.81.65-2.44.43-3.69.32-.56-.05-1.13-.7-1.58-1.18-13.01-14.02-22.79-29.83-26.8-48.79-.53-2.51-.73-5.09-1.06-7.43Z" style="fill: #000; stroke-width: 0px;"/>
  <path d="M427.65,647.3c.94.46,3.05.96,4.43,2.25,4.96,4.63,10.25,9.09,14.33,14.44,5.4,7.08,9.8,14.92,14.58,22.47,1.28,2.01,2,4.3-.34,5.97-2.36,1.69-4.12.08-5.76-1.64-10.09-10.6-20.23-21.15-30.3-31.77-1.28-1.35-2.56-2.91-3.18-4.61-1.34-3.64,1.32-7.06,6.23-7.11Z" style="fill: #000; stroke-width: 0px;"/>
  <path d="M187.11,689.95c.49-1.34.69-2.23,1.12-2.99,5.97-10.51,12.08-20.94,20.51-29.72,2.99-3.12,6.4-5.92,9.92-8.43,3.38-2.41,6.74-1.91,8.71.64,1.85,2.4,1.49,5.56-1.31,8.45-8.46,8.76-17.02,17.41-25.49,26.16-2.41,2.49-4.47,5.32-7.01,7.65-.94.86-2.88,1.18-4.18.89-.95-.21-1.59-1.81-2.27-2.66Z" style="fill: #000; stroke-width: 0px;"/>
  <path d="M335.02,102.72c1.02-5.76,1.9-12.42,3.5-18.9.69-2.79,2.57-5.45,4.45-7.72,1.71-2.06,4.35-2.29,6.74-.82,2.3,1.41,3.1,3.79,2.21,6.16-5.09,13.59-4.67,27.95-6.12,42.04-.28,2.69.15,6.29-3.72,6.5-4.11.22-4.06-3.51-4.45-6.29-.93-6.64-1.68-13.31-2.62-20.97Z" style="fill: #000; stroke-width: 0px;"/>
  <path d="M314.25,105.62c-.76,5.69-1.67,12.9-2.7,20.09-.34,2.35-1.3,4.54-4.18,4.32-2.87-.22-3.3-2.55-3.52-4.91-.98-10.59-1.85-21.19-3.08-31.75-.41-3.51-1.64-6.94-2.73-10.34-1.11-3.47-.58-6.32,1.81-7.82,2.48-1.55,5.91-.91,7.95,2.1,1.66,2.46,2.87,5.3,3.84,8.13.87,2.52,1.3,5.22,1.63,7.88.44,3.55.59,7.13.99,12.3Z" style="fill: #000; stroke-width: 0px;"/>
  <path d="M206.77,558.2c-.02,3.37-2.69,4.97-5.17,3.5-.84-.49-1.53-1.3-2.14-2.08-9.83-12.51-17.23-26.43-23.74-40.86-1.58-3.51-.84-6.56,1.7-8.04,2.61-1.52,5.96-.54,7.96,2.83,2.62,4.42,5.05,8.98,7.27,13.62,4.44,9.3,8.69,18.69,12.99,28.05.51,1.11.87,2.28,1.14,2.98Z" style="fill: #000; stroke-width: 0px;"/>
  <path d="M468.46,510.1c5.23-.12,7.47,4.12,5.4,8.62-2.67,5.79-5.22,11.69-8.47,17.16-4.86,8.16-10.26,16.01-15.5,23.94-1.25,1.89-3.03,3.3-5.38,1.97-2.34-1.33-2.07-3.54-1.09-5.61,6.07-12.86,12.16-25.71,18.3-38.53.82-1.71,1.76-3.45,3.02-4.82,1.22-1.32,2.93-2.17,3.71-2.73Z" style="fill: #000; stroke-width: 0px;"/>
  <path d="M598.16,395.6c-.57-7.79-1.07-15.59-1.73-23.37-.29-3.47.93-6.07,3.54-6.77,2.96-.8,6.14.84,6.69,4.49.85,5.7,1.59,11.6,1.04,17.29-.81,8.32-2.78,16.53-4.3,24.78-.42,2.27-1.49,4.25-4.16,3.9-2.71-.35-3.08-2.56-2.9-4.86.39-5.13.8-10.27,1.2-15.4.21-.02.41-.03.62-.05Z" style="fill: #000; stroke-width: 0px;"/>
  <path d="M346,59c-7.27,0-12.07-2.68-15.84-7.11-.87-1.03-1.32-3.53-.67-4.45.79-1.12,3.28-2.17,4.43-1.72,7.48,2.94,13.5-.04,19.47-4,2.13-1.41,4.39-3.04,6.79-3.48,1.85-.34,4.44.49,5.94,1.72,2.01,1.65,1.83,4.49.24,6.45-5.59,6.89-12.28,12.05-20.37,12.6Z" style="fill: #000; stroke-width: 0px;"/>
  <path d="M40.73,382.93c.85-5.2,1.26-9.45,2.31-13.53.83-3.23,3.69-4.66,6.44-3.96,2.6.65,4.21,3.06,3.6,6.35-2.2,11.94-1.08,23.87-.2,35.81.13,1.78.5,3.66.09,5.33-.28,1.15-1.62,2.67-2.67,2.84-1.06.17-2.41-1.04-3.53-1.8-.38-.26-.5-.99-.6-1.53-1.88-10.1-3.73-20.2-5.44-29.5Z" style="fill: #000; stroke-width: 0px;"/>
  <path d="M303.26,58.97c-7.9-.63-14.58-5.67-19.88-12.59-1.06-1.38-.78-4.63.09-6.43,1.18-2.42,4.08-2.82,6.5-1.68,3.12,1.46,6.09,3.28,9,5.13,4.97,3.15,10.02,4.55,15.9,2.48,1.43-.5,4.41.36,5.05,1.5.66,1.18-.13,3.94-1.22,5.19-3.68,4.18-8.43,6.53-15.44,6.39Z" style="fill: #000; stroke-width: 0px;"/>
  <path d="M400.25,629.23c-11.13-2.72-17.09,3.06-22.27,10.36-1.44,2.03-3.07,3.92-5.79,2.5-2.53-1.32-2.01-3.71-1.36-5.94,1.72-5.88,4.08-11.42,8.86-15.54,5.05-4.36,10.88-6.32,17.44-4.62,2.27.59,4.77,1.88,6.2,3.64,1.18,1.44,1.72,4.32,1.11,6.04-.6,1.66-3.04,2.65-4.19,3.56Z" style="fill: #000; stroke-width: 0px;"/>
  <path d="M255.37,615.29c8.84.48,14.48,3.71,18.18,9.63,2.27,3.64,3.67,7.85,5.24,11.89.83,2.12.66,4.38-1.78,5.44-2.23.97-3.77-.36-5.11-2.08-1.85-2.38-3.63-4.86-5.79-6.93-3.89-3.74-8.48-5.62-14.07-4.54-3.68.71-6.28-.62-7.24-3.28-.95-2.64.07-5.79,3.11-7.39,2.79-1.46,5.95-2.2,7.46-2.74Z" style="fill: #000; stroke-width: 0px;"/>
  <path d="M162.42,157.65c2.9.02,6.99,1.66,9.93,4.76,5.12,5.42,9.73,11.32,14.41,17.14,1.29,1.6,1.5,4.03-.58,4.94-1.3.57-3.69-.02-4.95-.95-2.76-2.05-5-4.8-7.67-7-3.78-3.11-8.04-5.2-13.12-5.36-5.32-.16-8.46-2.77-8.41-6.68.05-3.99,3.72-6.85,10.39-6.84Z" style="fill: #000; stroke-width: 0px;"/>
  <path d="M489.43,157.61c.69.14,2.03.28,3.29.7,3.33,1.1,5.03,3.59,4.75,6.83-.29,3.42-2.5,5.72-5.58,5.72-10.21,0-17.02,5.83-23.43,12.62-1.49,1.58-3.28,2.64-5.29,1.04-1.99-1.58-1.57-3.69-.22-5.38,4.31-5.39,8.52-10.91,13.25-15.91,3.26-3.44,7.6-5.48,13.22-5.62Z" style="fill: #000; stroke-width: 0px;"/>
  <path d="M443.91,460.8c.84.53,3.05,1.19,4.02,2.66,5.89,8.96,11.59,18.06,17.07,27.27.63,1.05-.01,3.87-.99,4.58-.99.72-3.87.46-4.67-.46-7-8.11-13.99-16.26-20.39-24.83-3.14-4.21-.67-9.11,4.97-9.22Z" style="fill: #000; stroke-width: 0px;"/>
  <path d="M212.51,465.6c-.94,2.3-1.22,3.97-2.15,5.11-6.54,8.07-13.12,16.11-19.96,23.92-.88,1-3.9,1.38-4.9.65-.99-.73-1.51-3.71-.82-4.88,5.28-8.95,10.84-17.75,16.48-26.49,1.62-2.51,4.32-4.06,7.23-2.69,1.72.81,2.83,2.94,4.12,4.37Z" style="fill: #000; stroke-width: 0px;"/>
  <path d="M314.96,327.5c1.92,2.34,3.65,3.66,4.2,5.37.49,1.51-.08,3.53-.63,5.17-3.42,10.29-6.97,20.54-10.49,30.81-.33.95-.47,2.19-1.15,2.74-1.1.89-2.77,2.02-3.83,1.72-1.04-.3-1.63-2.23-2.38-3.47-.09-.15,0-.44.05-.66,3.03-12.15,5.94-24.33,9.23-36.41.47-1.74,2.76-2.99,4.98-5.26Z" style="fill: #000; stroke-width: 0px;"/>
  <path d="M335.09,328.98c2.44.08,4.1,1.69,4.73,4.15,3.03,11.92,5.96,23.86,8.85,35.82.49,2.02-.02,4.25-2.32,4.4-1.32.09-3.58-1.26-4.01-2.46-4.18-11.56-8.16-23.2-11.96-34.9-1.26-3.86,1-7.02,4.73-7.01Z" style="fill: #000; stroke-width: 0px;"/>
  <path d="M101.94,222.14c-4.55-.01-6.81-3.94-4.77-7.48,1.08-1.88,2.74-3.52,4.39-4.98,7.29-6.39,16.01-10.05,25.16-12.8,2.1-.63,4.15-.48,5.12,1.81.98,2.3-.48,3.71-2.27,4.95-8.24,5.7-16.42,11.48-24.67,17.16-1.06.73-2.39,1.08-2.97,1.34Z" style="fill: #000; stroke-width: 0px;"/>
  <path d="M520.55,196.41c1.21.24,1.65.3,2.08.43,9.27,2.78,18.09,6.46,25.47,12.94,1.42,1.24,2.82,2.59,3.88,4.13,1.52,2.19,1.83,4.65-.23,6.74-2.17,2.21-4.66,1.88-7,.26-8.43-5.82-16.88-11.61-25.16-17.63-1.14-.83-1.94-2.98-1.82-4.43.08-1,2.04-1.83,2.78-2.44Z" style="fill: #000; stroke-width: 0px;"/>
  <path d="M349.43,638.99c.9-10.1,2.75-18.71,9.67-25.12,2.22-2.05,5.13-3.56,7.98-4.65,2.76-1.05,5.39.01,6.67,2.9,1.27,2.86,0,5.3-2.47,6.52-7.43,3.69-10.85,10.3-13.56,17.54-.39,1.04-.45,2.39-1.16,3.1-1.21,1.2-2.89,2.86-4.22,2.72-1.24-.12-2.28-2.32-2.9-3.03Z" style="fill: #000; stroke-width: 0px;"/>
  <path d="M300.66,638.11c-1.16,1.39-2.06,3.44-3.54,4.01-2.28.89-3.56-1.1-4.38-3.11-1.39-3.41-2.62-6.92-4.28-10.2-2.05-4.05-4.97-7.38-9.15-9.52-3.42-1.74-4.67-4.69-3.46-7.38,1.25-2.78,4.51-3.78,8.14-2.33,6.21,2.48,10.3,7.22,12.57,13.27,1.75,4.67,2.63,9.66,4.09,15.25Z" style="fill: #000; stroke-width: 0px;"/>
  <path d="M47.41,302.31c1.28-9.12,2.84-17.04,7.72-23.76,1.41-1.94,3.29-3.68,5.3-5.01,2.19-1.46,4.78-1.41,6.81.56,2.14,2.08,2.11,4.68.71,7.1-4.37,7.52-8.76,15.04-13.42,22.39-.75,1.18-3.14,2.33-4.3,1.98-1.36-.41-2.2-2.5-2.8-3.26Z" style="fill: #000; stroke-width: 0px;"/>
  <path d="M602.14,302.62c-.67.75-1.62,2.76-2.88,2.98-1.31.24-3.48-.87-4.3-2.06-1.88-2.74-3.01-5.98-4.73-8.86-2.52-4.21-5.23-8.31-7.95-12.4-1.99-3-2.12-5.94-.15-7.99,2.06-2.15,5.3-2.25,8.24-.06,1.32.99,2.53,2.22,3.54,3.54,5.37,7.03,6.92,15.38,8.24,24.84Z" style="fill: #000; stroke-width: 0px;"/>
  <path d="M568.59,261.52c-1.28,1.56-2.22,3.78-3.57,4.06-1.75.37-4.21-.29-5.69-1.4-2.09-1.57-3.36-4.17-5.33-5.95-4.63-4.19-9.45-8.17-14.23-12.18-1.8-1.51-3.6-3.14-2.05-5.61,1.56-2.48,3.83-1.65,5.92-.54,8.01,4.27,15.84,8.81,21.64,16.02,1.22,1.51,2.01,3.37,3.3,5.61Z" style="fill: #000; stroke-width: 0px;"/>
  <path d="M87.43,266.09c-4.64.05-6.89-3.46-5.22-6.91,1-2.07,2.36-4.26,4.16-5.59,6.63-4.89,13.43-9.58,20.39-13.99,1.08-.69,3.89-.1,4.91.91,1.59,1.58.43,3.57-1.17,4.89-3.45,2.85-7.1,5.48-10.38,8.51-3.19,2.95-5.95,6.36-9.03,9.43-1.28,1.27-2.89,2.2-3.65,2.76Z" style="fill: #000; stroke-width: 0px;"/>
  <path d="M354.63,601.28c-.45.75-1.09,2.49-2.29,3.67-4.54,4.46-9.23,8.76-13.92,13.07-1.68,1.55-3.98,2.63-5.59.66-.97-1.19-1.27-4.02-.51-5.33,2.88-4.99,6.1-9.83,9.66-14.37,1.41-1.79,3.88-3.07,6.12-3.81,3.41-1.12,6.64,1.65,6.53,6.11Z" style="fill: #000; stroke-width: 0px;"/>
  <path d="M318.64,615.86c-.91,1.26-1.49,2.94-2.42,3.16-1.43.34-3.49.18-4.58-.67-3.42-2.69-6.53-5.79-9.72-8.77-1.72-1.6-3.45-3.2-5.04-4.93-2.23-2.44-2.53-5.55-.91-7.67,1.72-2.25,5.21-3.09,7.82-.88,3.62,3.06,6.86,6.66,9.76,10.42,2.07,2.69,3.32,6.02,5.09,9.35Z" style="fill: #000; stroke-width: 0px;"/>
  <path d="M501.12,184.33c-2.12.11-4.31.57-6.34.21-1.39-.25-3.54-1.6-3.6-2.57-.08-1.34,1.2-3.61,2.4-4.02,7.56-2.63,15.31-4.26,23.36-2.35.87.21,1.74.45,2.56.79,3.04,1.27,4.59,4.02,3.77,6.62-.82,2.59-3.61,3.76-6.92,3.16-5.03-.91-10.08-1.67-15.12-2.49l-.11.65Z" style="fill: #000; stroke-width: 0px;"/>
  <path d="M147.81,183.74c-4.71.76-9.44,1.38-14.11,2.31-3.74.74-6.59-.33-7.43-3.21-.79-2.71.87-5.5,4.23-6.61,8.85-2.91,17.45-1.11,25.86,1.91,1.04.38,2.31,2.65,2.01,3.59-.38,1.21-2.12,2.56-3.46,2.78-2.26.38-4.66-.08-7-.18-.03-.2-.07-.39-.1-.59Z" style="fill: #000; stroke-width: 0px;"/>
  <path d="M323.5,224.47c-.52.72-1.1,2.34-2.04,2.59-1.29.34-3.19.08-4.23-.71-2.03-1.53-3.46-3.85-5.48-5.39-3.1-2.35-6.41-4.45-9.77-6.42-3.52-2.07-5.03-4.84-3.72-7.57,1.34-2.78,4.48-3.57,8.2-2.03,8.04,3.33,13.04,9.58,16.47,17.3.22.5.28,1.07.58,2.24Z" style="fill: #000; stroke-width: 0px;"/>
  <path d="M347.57,204.01c.85.66,2.99,1.5,3.47,2.91.55,1.59-.16,3.77-.79,5.52-.31.86-1.6,1.53-2.59,1.97-5.61,2.51-10.15,6.36-14.27,10.85-1.02,1.11-2.78,2.18-4.19,2.17-2.45,0-3.32-1.97-2.91-4.29,1.24-7,12.02-17.7,18.96-18.89.44-.08.89-.1,2.31-.24Z" style="fill: #000; stroke-width: 0px;"/>
  <path d="M565.09,441.5c-.91,1.9-1.86,5.26-3.86,7.79-3.02,3.82-6.69,7.13-10.23,10.5-1.56,1.49-3.64,2.06-5.44.38-1.82-1.7-1-3.57.06-5.46,3.17-5.6,6.29-11.23,9.3-16.92,1.5-2.84,3.86-4.39,6.4-3.61,2.92.9,3.83,3.16,3.77,7.32Z" style="fill: #000; stroke-width: 0px;"/>
  <path d="M89.86,432.88c1.91,1.99,3.69,3.28,4.72,5.03,3.2,5.44,6.12,11.06,9.15,16.61.21.39.68.77.66,1.14-.09,1.54.19,3.52-.65,4.47-.68.77-3.22.95-4.15.29-6.64-4.7-12.49-10.19-14.7-18.41-.43-1.6-.38-3.71.34-5.12.74-1.45,2.59-2.32,4.63-4Z" style="fill: #000; stroke-width: 0px;"/>
  <path d="M405.11,38.86c8.36.93,15.11,2.73,21.04,6.87.91.63,1.83,1.33,2.51,2.19,1.64,2.04,2.01,4.31.19,6.4-1.92,2.21-4.28,2.02-6.7.79-5.86-2.99-11.8-5.82-17.52-9.04-1.35-.76-2.95-2.99-2.7-4.2.28-1.39,2.48-2.4,3.18-3Z" style="fill: #000; stroke-width: 0px;"/>
  <path d="M83.88,227.2c1.34,1.02,3.4,1.79,3.86,3.12.57,1.64.51,4.3-.49,5.54-4.33,5.39-9.01,10.52-13.8,15.51-.82.86-3.13,1.21-4.16.67-1.01-.53-2.05-2.77-1.7-3.8,2.45-7.25,5.64-14.16,11.87-19.06,1.08-.85,2.58-1.18,4.42-1.98Z" style="fill: #000; stroke-width: 0px;"/>
  <path d="M582.08,249.9c-.36.44-1.05,2.11-1.96,2.23-1.43.2-3.4-.19-4.44-1.12-2.05-1.84-3.55-4.28-5.41-6.36-2.45-2.74-5.1-5.31-7.54-8.07-1.89-2.14-2.39-4.63-.57-7.03,1.65-2.17,4-2.25,6.37-1.3,4.69,1.89,13.68,15.71,13.55,21.64Z" style="fill: #000; stroke-width: 0px;"/>
  <path d="M263.58,849.46c-2.88-.19-4.73-1.3-5.29-3.81-.59-2.67.74-4.61,3.05-5.72,3.01-1.45,6.18-2.58,9.2-4,3.53-1.66,6.89-3.74,10.52-5.12,1.28-.48,3.88.11,4.52,1.09.64.98.13,3.85-.84,4.55-5.95,4.29-12.16,8.23-18.34,12.19-.89.57-2.11.62-2.83.81Z" style="fill: #000; stroke-width: 0px;"/>
  <path d="M223.61,56.35c-1.08-.94-3.22-1.92-3.39-3.17-.26-1.93.19-4.84,1.5-5.9,2.98-2.41,6.51-4.38,10.12-5.71,3.73-1.37,7.79-2.04,11.76-2.43,1.29-.13,3.62,1.39,3.92,2.56.3,1.16-1,3.46-2.22,4.15-5.93,3.33-12.06,6.3-18.15,9.35-.88.44-1.89.62-3.54,1.14Z" style="fill: #000; stroke-width: 0px;"/>
  <path d="M391.35,843.43c-.07,4.53-2.94,6.67-6.43,5.77-2.02-.52-4.03-1.42-5.78-2.56-4.68-3.04-9.24-6.25-13.79-9.49-1.87-1.34-3.09-3.2-1.58-5.44,1.39-2.08,3.43-1.64,5.4-.72,6.17,2.88,12.42,5.6,18.46,8.72,1.75.9,2.93,2.91,3.72,3.72Z" style="fill: #000; stroke-width: 0px;"/>
  <path d="M195.12,429.14c-7.28-2.35-14.15-4.32-20.82-6.81-3.27-1.22-4.34-4.58-3.09-7.16,1.24-2.56,4.28-3.32,7.61-1.85,5.84,2.57,11.74,5.02,17.43,7.88,1.36.68,2.87,2.84,2.76,4.2-.1,1.24-2.3,2.31-3.89,3.74Z" style="fill: #000; stroke-width: 0px;"/>
  <path d="M454.35,429.14c-1.59-1.41-3.62-2.37-3.8-3.59-.19-1.29,1.05-3.54,2.27-4.14,6.11-3.02,12.39-5.71,18.67-8.38,2.93-1.24,5.84-.15,6.9,2.28,1.11,2.51.09,5.8-3,6.95-6.77,2.52-13.74,4.53-21.05,6.89Z" style="fill: #000; stroke-width: 0px;"/>
  <path d="M152.27,458.8c-6.38-1.86-12.28-3.43-18.08-5.35-2.59-.86-4.28-2.93-4.03-5.92.27-3.31,3.78-5.17,7.48-3.74,5.52,2.13,10.95,4.52,16.39,6.85,2,.86,3.77,2.42,2.71,4.61-.71,1.46-2.77,2.27-4.47,3.55Z" style="fill: #000; stroke-width: 0px;"/>
  <path d="M496.93,458.9c-1.7-1.48-3.89-2.48-4.07-3.77-.19-1.34,1.21-3.66,2.53-4.31,5.31-2.6,10.82-4.79,16.33-6.98,3.15-1.25,6.07-.22,7.27,2.25,1.22,2.5.1,5.9-3.21,7.1-6.03,2.19-12.29,3.76-18.85,5.71Z" style="fill: #000; stroke-width: 0px;"/>
  <path d="M456.11,61.65c-2.68-.13-5.36-.13-8.02-.41-3.38-.36-5.56-2.46-5.65-5.15-.09-2.8,2.17-5.15,5.6-5.6,6.24-.82,12.03.77,17.24,4.08,1.2.76,2.32,3.11,2,4.36-.31,1.25-2.36,2.59-3.84,2.89-2.36.48-4.88.13-7.33.13,0-.1,0-.19,0-.29Z" style="fill: #000; stroke-width: 0px;"/>
  <path d="M193.53,61.95c-2.34,0-4.76.35-7-.12-1.62-.34-3.87-1.52-4.26-2.8-.37-1.24.87-3.74,2.14-4.54,5-3.18,10.59-4.7,16.6-4.06,3.69.39,6.08,2.61,6.07,5.53-.02,2.92-2.4,5.09-6.18,5.34-2.44.17-4.91.03-7.36.03,0,.21,0,.42,0,.62Z" style="fill: #000; stroke-width: 0px;"/>
  <path d="M432.46,183.82c.88-3.55,1.54-7.18,2.7-10.64,1.18-3.53,4.17-5.08,6.96-4.15,2.79.93,4.09,3.98,2.92,7.54-1.18,3.6-2.63,7.11-4,10.65-.87,2.23-2.2,4.08-4.93,3.55-2.75-.53-3.18-2.79-3.19-5.16,0-.56,0-1.12,0-1.67-.15-.04-.31-.08-.46-.11Z" style="fill: #000; stroke-width: 0px;"/>
  <path d="M464.18,165.02c-.65,1.73-.86,2.88-1.45,3.77-2.58,3.92-5.26,7.78-7.94,11.63-1.31,1.87-2.98,3.28-5.37,2.05-2.17-1.11-2.5-3.3-1.6-5.24,2.19-4.73,4.39-9.52,7.24-13.85.88-1.34,3.91-1.89,5.85-1.71,1.22.11,2.26,2.25,3.26,3.35Z" style="fill: #000; stroke-width: 0px;"/>
  <path d="M191.27,161.15c.73.48,2.73,1.1,3.5,2.43,2.6,4.51,4.98,9.19,6.92,14.01.49,1.23-.56,4.05-1.7,4.67-1.08.58-3.86-.24-4.75-1.36-3.19-4.01-6.07-8.3-8.72-12.69-1.98-3.27.16-6.98,4.75-7.06Z" style="fill: #000; stroke-width: 0px;"/>
  <path d="M216.64,184.12c-.05,1,.22,2.17-.21,2.97-.73,1.35-1.77,3.32-2.9,3.48-1.35.19-3.72-.87-4.28-2.04-2-4.21-3.64-8.63-4.99-13.09-.82-2.7.3-5.11,3.06-6.32,2.39-1.05,5.49.14,6.57,3.04,1.42,3.82,2.24,7.86,3.31,11.8-.19.05-.37.11-.56.16Z" style="fill: #000; stroke-width: 0px;"/>
  <path d="M199.38,96.58c-1.19-.08-2.79.02-4.28-.34-2.75-.68-4.61-2.41-4.53-5.43.08-2.94,1.83-4.87,4.63-5.4,4.74-.9,8.9.72,12.26,3.98,2.29,2.22,1.12,5.72-2.05,6.53-1.82.47-3.76.43-6.03.67Z" style="fill: #000; stroke-width: 0px;"/>
  <path d="M449.87,96.53c-2.16-.19-3.96,0-5.46-.59-1.29-.5-2.86-1.73-3.17-2.93-.31-1.2.39-3.58,1.33-4.03,3.34-1.6,6.89-3.13,10.51-3.66,3.27-.48,5.92,2.56,5.94,5.52.02,2.97-2.48,5.39-5.95,5.66-1.22.1-2.46.02-3.2.02Z" style="fill: #000; stroke-width: 0px;"/>
  <path d="M416.69,188.99c.29-1.81.34-2.94.67-3.99.86-2.71,2.64-4.49,5.64-4.24,2.82.23,4.86,2.19,4.74,4.77-.17,3.81-1.1,7.64-2.16,11.34-.28.97-2.3,2.11-3.4,1.99-1.29-.13-3.03-1.3-3.52-2.46-1.07-2.52-1.46-5.32-1.98-7.41Z" style="fill: #000; stroke-width: 0px;"/>
  <path d="M232.92,188.77c-.57,2.37-.81,4.9-1.85,7.04-.65,1.35-2.49,2.91-3.81,2.92-1.31.01-3.23-1.55-3.81-2.88-1.05-2.4-1.51-5.12-1.82-7.76-.49-4.1,1.74-7.18,5-7.38,3.27-.2,5.74,2.52,5.99,6.65.03.44,0,.89,0,1.34.1.02.2.05.3.07Z" style="fill: #000; stroke-width: 0px;"/>
  <path d="M420.27,84.78c0,4.39-2.66,6.39-6.29,5.74-2.94-.53-5.93-1.04-8.74-1.99-1.26-.43-2.84-1.79-3.05-2.95-.21-1.15.78-3.22,1.84-3.78,4.2-2.22,8.78-2.82,13.13-.56,1.54.8,2.47,2.78,3.11,3.55Z" style="fill: #000; stroke-width: 0px;"/>
  <path d="M238.2,79.64c2.21.56,4.57.73,6.45,1.77,1.29.72,2.64,2.64,2.63,4.01,0,1.09-1.86,2.67-3.2,3.15-2.7.97-5.61,1.41-8.46,1.95-3.01.57-5.59-.76-6.2-3.23-.73-2.95.57-5.11,3.23-6.24,1.71-.73,3.64-.94,5.55-1.4Z" style="fill: #000; stroke-width: 0px;"/>
  <path d="M549.94,195.94c-2.03-1-5.17-2.2-7.91-4.01-1.93-1.27-2.19-3.61-.95-5.72,1.25-2.13,3.59-3.01,5.48-1.9,2.89,1.7,5.71,3.89,7.81,6.47,1.84,2.26-.29,5.25-4.42,5.16Z" style="fill: #000; stroke-width: 0px;"/>
  <path d="M99.16,195.99c-3.93-.08-5.82-3.06-3.93-5.39,1.98-2.45,4.56-4.6,7.29-6.17,2.16-1.25,4.76-.48,6.03,1.98,1.33,2.57.49,4.98-1.95,6.34-2.61,1.45-5.48,2.41-7.44,3.25Z" style="fill: #000; stroke-width: 0px;"/>
  <path d="M357.46,720.63c.64-.96,1.07-2.09,1.89-2.7,1.41-1.06,3.39-2.78,4.54-2.4,1.44.47,2.92,2.64,3.26,4.31.61,3.03.4,6.24.52,9.37.09,2.28.84,3.64,3.51,2.93,1.06-.28,2.38-.49,3.31-.09,1.6.69,3.64,1.58,4.29,2.95,1.01,2.15-.71,3.76-2.74,4.62-3.83,1.62-6.8,4.12-8.82,7.97,1.78,1.25,3.74,2.14,4.94,3.63,1.04,1.29,1.95,3.49,1.54,4.88-.34,1.14-2.65,2.25-4.18,2.38-3.66.31-7.38.23-11.05-.06-2.49-.19-3.98.78-4.54,2.95-.66,2.58-.98,5.25-1.34,7.89-.18,1.32.24,2.84-.26,3.98-.6,1.37-1.87,3.37-2.9,3.41-1.35.05-3.58-1.29-3.99-2.51-1.16-3.46-1.84-7.14-2.2-10.79-.23-2.3-.94-3.19-3.22-3.13-1.67.05-3.38-.05-5.01-.39-2.17-.46-3.8-.02-5.43,1.6-2.6,2.57-6.42,3.01-8.79.66-2.31-2.29-4.6-2.52-7.56-2.1-6.15.86-6.12.72-7.13,6.7-.37,2.2-.97,4.37-1.56,6.53-.61,2.23-1.81,4.02-4.45,3.63-2.5-.37-2.93-2.4-3.05-4.55-.17-2.9-.17-5.84-.67-8.69-.76-4.3-1.95-5.11-6.23-5.07-3.35.03-6.74.31-10.05-.07-1.61-.19-3.79-1.3-4.4-2.61-.5-1.09.56-3.38,1.58-4.57,1.26-1.47,3.2-2.35,5.17-3.72-1.79-3.12-4.12-5.52-7.25-7.16-.89-.47-2.09-.65-2.65-1.36-.89-1.13-2.06-2.71-1.84-3.87.22-1.17,1.82-2.51,3.1-2.94,1.5-.5,3.34-.3,4.97-.01,2.12.37,2.95-.51,3.05-2.41.17-3.13.27-6.26.42-9.39.11-2.23.57-4.36,3.08-5.02,2.51-.67,4.14.81,5.08,2.87,1.19,2.58,2.45,2.62,4.56.94,5.82-4.64,12.84-7.68,17.78-13.58.79-.94,3.65-1.29,4.65-.61,1.02.7,1.13,3.01,1.23,4.64.06.89-.83,1.81-1.08,2.78-.14.55-.07,1.42.28,1.79,2.28,2.44,11.54,2.48,13.86.04.39-.41.37-1.42.23-2.08-.18-.86-1.01-1.68-.96-2.47.12-1.64.18-4.18,1.1-4.64,1.28-.62,4.06-.29,4.93.72,5.24,6.08,12.54,9.27,18.73,13.98.43.32.98.48,1.76.86ZM337.2,745.29c.04.2.07.39.11.59,4.48-.82,8.97-1.56,13.42-2.51,2.39-.51,2.84-2.01,1.22-3.89-1.74-2.02-3.28-4.4-5.43-5.86-4.55-3.09-9.37-5.93-15.17-2.53-.78.46-1.94.32-2.93.33-2.43.03-4.86.07-7.28-.04-1.3-.06-2.57-.46-3.87-.65-2.02-.3-4.14-1.05-6.07-.73-6.1,1-10.44,4.73-13.8,9.8-1.24,1.88-.75,3.09,1.2,3.45,4.48.82,8.99,1.79,13.51,1.96,8.35.31,16.71.09,25.07.09Z" style="fill: #000; stroke-width: 0px;"/>
  <path d="M178.9,299.95c.45-10.27,7.43-14.17,16.64-14.52,5.91-.22,12.34,6.75,12.36,12.82.02,8.12-7.81,16.1-15.82,16.11-7.43,0-13.24-6.35-13.18-14.41ZM194.7,294.82c-2.63.16-3.65,2.14-3.71,4.71-.06,2.38.59,4.55,3.49,4.78,2.35.18,4.96-2.5,5-4.93.04-2.31-2.13-4.54-4.78-4.56Z" style="fill: #000; stroke-width: 0px;"/>
  <path d="M470.66,299.99c.05,8.1-5.73,14.39-13.23,14.37-7.87-.01-15.67-7.81-15.82-15.81-.11-6.21,6.4-13.38,12.42-13.12,9.2.4,16.2,4.2,16.63,14.56ZM450.08,299.37c.03,2.52,2.54,5.12,4.97,4.95,2.91-.21,3.6-2.34,3.53-4.76-.07-2.59-1.05-4.63-4.07-4.72-2.37-.07-4.46,2.12-4.43,4.53Z" style="fill: #000; stroke-width: 0px;"/>
</svg>