<?xml version="1.0" encoding="UTF-8"?>
<svg id="Layer_1" data-name="Layer 1" xmlns="http://www.w3.org/2000/svg" viewBox="0 0 679.19 900">
  <path d="M42.15,717.57c1.41-23.87,2.62-44.78,3.91-65.69.11-1.75-.49-2.36-2.07-2.26-3.7.24-7.4.67-11.11.74-4.29.08-8.61.1-12.88-.29-8.56-.8-14.11-5.56-15.94-13.92-1.42-6.5-2.37-13.12-3.04-19.74-2.09-20.7-.62-41.32,1.37-61.96,2.42-24.98,5.09-49.91,10.15-74.53.77-3.72,1.84-7.38,2.54-11.11,2.63-13.95,11.52-23.08,23.32-29.61,7.59-4.2,15.74-7.39,23.55-11.21,3.85-1.88,7.54-4.13,11.24-6.31,1.23-.72,2.01-1.81,1.28-3.41-4.84-10.57-5.45-21.75-4.24-33.04,1.53-14.36,3.53-28.66,5.33-42.99.76-6.03,1.37-12.09,2.3-18.1,1.58-10.13,5.88-19.16,11.69-27.51,2.19-3.15,2.24-3.12-1.13-5.21-7.27-4.52-13.98-9.72-20.07-15.78-9.74-9.7-15.17-21.39-15.49-35.04-.41-17.49-.21-35.08,3.41-52.23,4.32-20.46,13.72-37.93,33.2-48.19,5.67-2.99,11.26-6.17,17.06-8.9,15.88-7.47,32.62-12.51,49.5-17.13,1.22-.33,2.44-.68,3.66-1.01,1.35-.37,1.75-1.11,1.16-2.45-4.34-9.75-5.64-20.12-6.12-30.63-.17-3.78-.08-7.62.35-11.38,1.11-9.8,5.85-17.36,14.69-22.01,3.58-1.88,7.31-3.49,11.07-5,9.32-3.73,18.77-7.17,28.04-11.01,33.47-13.85,67.93-24.28,103.86-29.21,9.56-1.31,19.37-.82,29.05-1.31,10.61-.54,21.1.45,31.53,2.23,33.79,5.76,66.39,15.56,97.99,28.8,8.71,3.65,17.62,6.86,26.41,10.33,3.29,1.3,6.57,2.68,9.77,4.2,10.51,4.98,16.1,13.44,16.72,24.95.73,13.53-.47,26.86-5.82,39.51-.95,2.24,0,2.78,1.85,3.28,15.42,4.15,30.75,8.6,45.49,14.85,12.87,5.46,25.35,11.61,36.12,20.72,6.72,5.68,11.17,12.83,14.81,20.84,7,15.39,8.7,31.63,9.12,48.18.16,6.33.51,12.66.58,18.99.18,17.34-6.65,31.54-19.86,42.57-5.36,4.48-11.19,8.41-16.92,12.43-1.66,1.16-2.16,1.91-.82,3.73,7.43,10.07,11.79,21.32,13.27,33.79,2.07,17.53,4.6,35,6.61,52.54,1.24,10.79,1.29,21.6-2.34,32.09-.19.56-.38,1.12-.6,1.67-1.83,4.72-1.96,4.94,2.54,7.53,4.52,2.61,9.31,4.76,14.03,7.02,4.26,2.05,8.54,4.08,12.89,5.94,7.44,3.17,13.6,8.13,19.39,13.6,4.51,4.27,7.09,9.74,8.41,15.64,2.68,11.94,5.41,23.9,7.37,35.97,4.51,27.87,7.29,55.94,8.61,84.14.66,14.12-.08,28.21-2.15,42.2-.54,3.65-1.47,7.29-2.62,10.81-1.98,6.04-6.32,9.63-12.52,10.95-6.53,1.39-13.08,1.15-19.66.35-2.34-.29-4.71-.27-7.07-.38-1.64-.08-2.08.6-2,2.31,1.66,34.67,3.35,69.34,4.79,104.02.51,12.28-.63,24.46-4.04,36.37-3.74,13.06-9.29,25.04-20.01,33.95-9.44,7.85-20.24,12.64-32.43,14.47-9.77,1.47-19.44,3.6-29.23,4.86-19.56,2.52-39.24,2.98-58.92,1.94-16.78-.89-33.54-2.11-50.3-3.25-3.62-.24-7.23-.65-10.83-1.13-2.02-.27-3.1.22-2.97,2.44.24,4.12-.11,8.35.74,12.34,2.5,11.7-3.14,28.45-18.46,34.65-12.41,5.03-25.15,7.18-38.3,7.37-11.81.17-23.63-.49-35.45-.51-10.55,0-21.11.66-31.65.5-10.14-.16-20.27-1.04-29.96-4.43-3.5-1.23-6.97-2.61-10.32-4.19-11.32-5.32-18.15-18.19-16.61-30.65.59-4.76.94-9.56,1.07-14.36.09-3.4-.17-3.35-3.48-3.11-21.39,1.55-42.76,3.52-64.17,4.47-26.99,1.2-53.82-.65-80.38-6.19-8.97-1.87-17.83-3.6-26.01-7.98-15.9-8.52-25.07-22.1-29.99-39.05-3.11-10.71-4.79-21.6-4.64-32.74.21-15.71.55-31.41.78-44.16ZM611.42,795.18c.27.06.54.11.81.17.28-.39.62-.76.84-1.18,4.44-8.44,8.19-17.2,8.68-26.81.71-13.99.96-28.01,1.2-42.02.17-10.55.13-21.12-.04-31.67-.22-13.34-.69-26.67-.99-40-.04-2.01-.95-2.38-2.71-2.19-4.28.45-8.59.66-12.87,1.18-4.14.51-7.36-.64-10.01-3.98-2.49-3.13-2.94-6.06.02-8.72,2.17-1.95,5-3.4,7.78-4.37,3.68-1.28,3.78-.99,3.86-4.87,0-.42,0-.84.03-1.27,1.72-37.1.89-74-8.44-110.25-.41-1.57-.31-3.19,1.58-3.74,2.02-.59,2.92.84,3.5,2.45,8.63,23.95,15.04,48.45,16.39,73.96.68,12.79.09,25.65.12,38.48,0,1.04.16,2.93.49,2.98,1.86.33,3.82.42,5.67.11.52-.09,1.04-1.76,1.11-2.75.61-8.26,1.07-16.52,1.65-24.78,2.16-30.71.25-61.11-6.63-91.16-1.96-8.56-4.05-17.09-6.06-25.65-.41-1.76-.86-3.76,1.43-4.5,2.29-.73,3.09,1.09,3.72,2.83.89,2.46,1.85,4.9,2.6,7.41,13.42,44.81,19.38,90.41,14.4,137.15-.18,1.67.22,2.6,2.01,2.74,1.94.15,3.87.37,5.79.61,1.87.23,2.59-.6,2.64-2.43.06-2.45.25-4.89.45-7.33,1.56-19.68,1.49-39.33-1.07-58.93-3.96-30.26-9.65-60.21-16.02-90.03-.41-1.94-1.41-4.4,1.37-5.13,2.8-.73,3.12,1.9,3.64,3.82,8.4,31.37,14.21,63.28,19.23,95.33,1.18,7.52,1.89,15.12,2.88,23.16,0-5.47.27-10.46-.05-15.41-1.37-21.15-2.98-42.29-4.37-63.44-1.14-17.32-3.62-34.42-7.64-51.31-1.08-4.54-3.47-7.72-7.49-9.94-13.67-7.56-27.32-15.16-40.94-22.8-1.92-1.07-3.41-.92-4.99.61-4.71,4.55-10.36,7.5-16.59,9.41-10.53,3.23-21.36,4.88-32.27,3.62-12.23-1.41-24.36-3.65-36.5-5.74-22.95-3.96-45.01-11.41-67.39-17.59-4.79-1.32-9.59-2.83-14.09-4.9-3.54-1.64-6.73-4.12-9.8-6.58-.94-.75-1.63-2.93-1.21-3.96.47-1.17,2.24-2.32,3.58-2.52,2.98-.44,6.06-.37,9.09-.34,1.89.01,2.6-.56,2.24-2.54-4.06-22.76-2.88-45.62-1.12-68.47.35-4.6,1.19-9.24,2.47-13.67,1.63-5.66,5.71-8.18,11.58-7.59,2.83.28,5.7.93,8.35,1.94,7.87,3,16,4.77,24.32,5.89,10.19,1.38,20.14,3.65,29.08,9.03,11.5,6.91,19.58,16.5,21.33,30.12.9,6.98.82,14.17.43,21.22-.71,13.02-3.02,25.83-6.51,38.4-.39,1.39-.2,2.28,1.39,2.61,3.14.65,6.28,1.33,9.41,2.05,1.47.34,2.1-.28,2.57-1.64,5.69-16.55,9.55-33.45,10.04-51.02.06-2.11.04-4.28.56-6.29.27-1.05,1.53-2.36,2.54-2.56.83-.16,2.05,1.03,2.91,1.82.44.4.47,1.24.68,1.88,6.38,20.09,5.62,39.62-4.63,58.38-.82,1.5-.42,2.27,1.19,2.37,4.63.29,9.26.54,13.89.74,2.05.09,2.97-1.09,3.36-3.04.91-4.56,1.9-9.09,2.94-13.62,3.02-13.15,3.95-26.45,1.65-39.75-1.51-8.71-3.96-17.26-6.05-25.86-.44-1.8-1.03-3.71,1.19-4.54,2.21-.83,3.16.92,3.91,2.62,1.66,3.79,3.42,7.54,4.91,11.4,7.9,20.51,11.49,41.47,6.32,63.3-.14.57-.02,1.2-.02,1.93.62-.13.89-.13,1.09-.24.29-.16.58-.36.81-.6,6.08-6.12,10.41-13.12,10.56-22.04.07-4.3-.07-8.61-.33-12.91-.79-13.14-1.29-26.32-2.66-39.4-.98-9.38-3.04-18.65-4.84-27.93-.94-4.84-3.59-8.85-7.07-12.36-1.56-1.57-2.91-1.89-4.89-.78-3.16,1.77-6.39,3.5-9.75,4.85-2.86,1.15-5.9,2.14-8.94,2.46-3.44.36-6.53-2.74-6.21-6.19.18-2.02,1.13-4.4,2.54-5.8,4.01-3.97,8.47-7.47,12.65-11.28.99-.9,2.14-2.21,2.22-3.41.43-6.15.73-12.31.72-18.47-.02-16.02-4.15-31.26-9.48-46.19-2.61-7.31-5.62-14.49-8.44-21.72-.64-1.65-.71-3.26,1.07-4.18,1.65-.85,2.93.05,3.91,1.37,1.41,1.9,2.79,3.82,4.16,5.75,15.15,21.52,23.9,45.11,23.23,71.75-.02.61.19,1.23.33,2,.65-.19,1.11-.21,1.4-.44,2.99-2.35,6.03-4.63,8.86-7.16.72-.65.98-2.09,1.02-3.19.22-5.23.08-10.47.45-15.68.88-12.23,1.57-24.44-.05-36.67-2.2-16.53-7.88-31.92-15.08-46.83-.88-1.81-2.2-3.94.24-5.35,2.41-1.4,3.66.75,4.82,2.4,16.21,23.11,23.85,48.97,24.58,77.03.03.99.11,1.98.2,3.44.62-.68.85-.83.93-1.04.23-.63.43-1.28.6-1.93,2.22-8.55,1.39-17.1-.06-25.64-1.1-6.49-2.16-12.99-3.41-19.45-.74-3.85-1.11-8.01-2.89-11.38-2.53-4.8-5.8-9.35-9.46-13.37-11.15-12.25-25.11-20.32-40.53-26.02-5.39-1.99-10.76-4.03-16.15-6.01-8.51-3.12-16.79-6.68-24.16-12.09-.78-.57-2.23-.62-3.25-.39-4.52,1.05-7.9-1.2-7.94-5.86-.02-2.83.42-5.74,1.17-8.48.69-2.51,0-3.88-2.1-5.21-8.33-5.32-16.56-10.78-24.84-16.18-1.52-.99-2.77-2.2-1.88-4.15.84-1.85,2.55-1.72,4.17-1.24,9.02,2.69,17.72,6.11,25.55,11.48.79.54,1.67.97,2.5,1.46.22-.15.44-.3.66-.44-.48-1.35-.8-2.78-1.48-4.03-5.96-11.02-14.56-19.36-25.66-25.15-1.35-.7-2.89-1.19-3.97-2.19-.78-.72-1.43-2.22-1.23-3.17.16-.79,1.6-1.51,2.61-1.85.81-.27,1.83.03,2.75.15,9.34,1.21,17.4,5.2,24.43,11.38.72.63,1.49,1.22,2.24,1.83.19-.13.37-.25.56-.38-.24-.74-.45-1.5-.72-2.23-1.99-5.27-5.67-8.93-10.81-11.12-12.36-5.25-24.58-10.85-37.13-15.58-12.07-4.56-24.6-7.91-36.73-12.34-11.39-4.16-22.98-7.3-34.85-9.68-15.39-3.09-30.67-6.71-46-10.06-.87-.19-1.85-.14-2.73.06-11.27,2.55-22.53,5.18-33.81,7.74-11.85,2.68-23.87,4.76-35.54,8.1-13.7,3.92-27.22,8.58-40.6,13.53-13.13,4.86-26.01,10.43-38.95,15.82-3.49,1.46-6.92,3.17-10.13,5.16-3.73,2.31-5.36,6.21-6.54,10.34,1.06-.29,1.86-.79,2.57-1.4,6.05-5.24,12.86-8.98,20.75-10.59,1.65-.34,3.33-.57,5.01-.76,1.71-.2,3.34.05,3.86,2.01.47,1.78-.65,2.84-2.12,3.58-.9.46-1.81.92-2.71,1.38-11.37,5.86-20.15,14.37-26.21,25.64-.62,1.15-.84,2.52-1.24,3.78.23.14.46.27.69.41.76-.46,1.55-.87,2.29-1.37,7.83-5.36,16.51-8.82,25.54-11.51,1.64-.49,3.31-.56,4.17,1.26.86,1.82-.26,3.03-1.69,4-.42.28-.85.55-1.27.83-7.91,5.19-15.79,10.42-23.75,15.53-2.01,1.29-2.62,2.6-2,5.01.74,2.91,1.26,5.99,1.18,8.98-.13,4.5-3.63,6.59-8,5.51-1.11-.27-2.6.08-3.65.64-5.82,3.04-11.37,6.69-17.38,9.27-9.7,4.15-19.84,7.26-29.52,11.45-13.61,5.89-25.88,13.89-35.56,25.39-4.66,5.54-8.81,11.37-9.99,18.77-1.34,8.42-2.68,16.83-4,25.25-1.25,7.98-1.79,15.96.33,23.89.23.88.67,1.71,1.01,2.56.54-.57.65-.98.64-1.39-.46-17.69,3.59-34.53,9.6-50.99,3.82-10.46,8.83-20.27,15.67-29.12,1.12-1.46,2.43-2.24,4.11-1.21,1.61.98,1.43,2.52.74,4.04-.63,1.38-1.28,2.76-1.94,4.13-11.21,23.23-16.53,47.57-14.19,73.46.7,7.8.54,15.68.92,23.52.05,1.03.72,2.29,1.51,2.99,2.52,2.24,5.21,4.29,7.88,6.36.53.41,1.23.58,2.32,1.08,0-1.36.02-2.17,0-2.99-.65-29.15,10.11-54.24,27.45-76.95.65-.86,2.6-1.41,3.66-1.11,1.76.5,1.73,2.29,1.16,3.85-.7,1.9-1.5,3.77-2.26,5.64-5.77,14.19-10.78,28.6-13.78,43.67-2.47,12.41-1.89,24.89-1.14,37.37.06,1.07,1.03,2.28,1.89,3.08,1.86,1.71,4,3.11,5.89,4.79,2.53,2.23,5.04,4.51,7.37,6.94,2.67,2.79,3.04,5.95,1.35,8.8-1.64,2.76-4.3,3.71-8.2,2.78-1.39-.33-2.78-.76-4.07-1.37-3.97-1.87-7.93-3.77-11.81-5.82-1.78-.94-3.03-.76-4.51.61-4.76,4.4-6.98,10.03-8.36,16.16-5.67,25.31-6.27,51.07-6.69,76.83-.15,8.93,4.5,15.9,10.63,21.97.36.36.94.5,1.92.99-.21-1.46-.29-2.43-.5-3.36-1.77-8.05-2.48-16.18-2.03-24.42.95-17.5,6.2-33.81,13.61-49.53.18-.38.33-.92.64-1.06.99-.46,2.25-1.29,3.04-1,.77.29,1.52,1.8,1.5,2.75-.03,1.47-.7,2.93-1.15,4.38-4.79,15.47-7.66,31.27-5.76,47.46,1.17,9.95,3.57,19.76,5.43,29.63.34,1.78,1.52,2.59,3.27,2.51,4.63-.22,9.26-.47,13.89-.77.53-.03,1.04-.41,1.68-.67-.25-.69-.38-1.26-.65-1.76-10.18-18.99-10.86-38.69-4.45-58.94.54-1.7,1.2-3.34,3.32-3.19,2.28.16,2.71,1.95,2.83,3.84.02.34.07.67.08,1.01.65,18.88,4.1,37.24,10.37,55.07.53,1.52,1.22,2.06,2.76,1.7,2.96-.69,5.92-1.38,8.91-1.94,1.78-.34,2.15-1.17,1.67-2.85-.84-2.92-1.6-5.87-2.22-8.84-3.15-15-5.4-30.08-4.58-45.5.8-15.05,8.02-26.2,20.43-34.25,8.46-5.49,17.97-8.14,27.83-9.54,9.73-1.38,19.3-3.21,28.52-6.77,2.55-.98,5.41-1.41,8.16-1.55,5-.25,8.67,2.23,10.28,6.99,1.04,3.1,1.82,6.36,2.13,9.61,2.37,24.35,3.6,48.7-.56,73-.35,2.05.21,2.77,2.3,2.69,2.61-.1,5.24-.02,7.85.12,1.96.11,4.02.34,4.82,2.56.86,2.35-.75,3.84-2.22,5.23-1.1,1.04-2.27,2.1-3.61,2.76-3.84,1.91-7.64,4.12-11.71,5.34-29.62,8.83-59.24,17.66-89.79,22.91-14.47,2.49-28.9,4.32-43.54,1.61-10.2-1.89-19.85-4.94-27.5-12.43-1.34-1.31-2.71-1.1-4.15-.26-4.6,2.67-9.17,5.4-13.82,7.98-8.87,4.9-17.75,9.78-26.71,14.53-4.56,2.42-7.48,5.81-8.38,11.01-1.83,10.56-4.62,21.02-5.6,31.65-2.48,26.82-4.2,53.72-6.14,80.59-.27,3.77-.04,7.58-.04,11.38.53-1.3.75-2.62.92-3.94,4.72-36.57,11.61-72.72,20.86-108.41.23-.9.31-2.01.89-2.59.72-.73,1.95-1.48,2.84-1.36.69.09,1.37,1.46,1.71,2.39.23.63-.11,1.49-.26,2.23-3.39,17.41-6.88,34.8-10.18,52.22-6.24,32.98-10.16,66.12-6.8,99.77.77,7.75.55,7.72,8.29,6.67,2.05-.28,2.7-1.08,2.45-3.15-.61-5.03-1.19-10.07-1.46-15.13-1.39-26.11.96-51.99,5.24-77.72,2.9-17.44,6.86-34.63,13.05-51.24.67-1.8,1.43-3.79,3.86-2.97,2.26.76,1.75,2.79,1.35,4.54-.85,3.7-1.72,7.4-2.66,11.09-7.81,30.62-12.08,61.65-10.49,93.32.6,11.89,1.41,23.78,2.09,35.67.26,4.58.22,4.51,4.82,4.62,2.3.06,2.91-.85,2.73-3.05-.36-4.37-.58-8.77-.71-13.15-1.02-33.97,5.05-66.75,16.59-98.61.68-1.87,1.14-4.44,3.91-3.55,2.73.88,1.66,3.3,1.19,5.2-4.12,16.78-6.47,33.83-7.79,51.04-1.55,20.18-.63,40.35-.06,60.53.05,1.87.8,2.67,2.66,2.96,3.76.58,7.18,1.98,9.49,5.24,1.34,1.89,2.19,4.13.86,6.16-2.3,3.52-5.02,6.62-9.97,6.07-4.78-.53-9.6-.77-14.38-1.27-1.79-.18-2.65.18-2.73,2.18-.29,7.76-.96,15.52-1.03,23.28-.13,15.46-.01,30.91.1,46.37.09,12.24.24,24.49.53,36.73.28,11.86,3.39,23.01,9.05,33.44.36.66.83,1.25,1.24,1.88.58-.88.66-1.53.65-2.17-.2-12.66-.73-25.33-.54-37.99.4-26.35,4.62-52.12,12.77-77.21.55-1.71,1.27-3.41,3.44-2.88,2.2.54,2.04,2.41,1.63,4.14-1.08,4.61-2.13,9.22-3.31,13.8-4.84,18.73-8.11,37.64-7.29,57.09.88,20.91,4.48,41.47,8.03,62.02.23,1.35,1.48,3.01,2.71,3.63,4.67,2.34,9.51,4.33,14.31,6.41.55.24,1.21.25,1.81.37.08-.42.16-.59.13-.74-.09-.41-.2-.82-.35-1.21-9.33-24.84-12.24-50.62-11.14-76.97.4-9.63.95-19.25,3.85-28.55.62-1.98.99-4.61,3.85-4.14,2.9.48,2.35,3.08,2.21,5.15-1.26,19.55-.76,39.07,2.57,58.36,2.84,16.46,6.69,32.75,10.07,49.12.49,2.37,1.72,3.63,4.2,3.96,4.43.59,8.83,1.47,13.26,2.09,2.61.37,2.92-.11,1.89-2.6-9.59-23.16-12.54-47.39-11.54-72.23.26-6.52,1.27-12.95,3.83-19.04.7-1.67,1.72-3.04,3.75-2.76,1.88.26,2.58,1.72,2.82,3.44.35,2.51.85,5.01,1.01,7.53,1.82,28.5,6.4,56.54,13.74,84.14.57,2.14,1.42,3.17,3.72,3.19,5.15.05,10.3.32,15.45.43,2.95.06,3.03-.27,2.17-3.06-2.35-7.66-5.03-15.26-6.76-23.07-3.56-16.03-4.09-32.15.65-48.13.53-1.8,1.2-3.59,3.49-3.22,2.29.37,2.29,2.31,2.29,4.17-.02,5.99-.14,11.99.06,17.98.63,18.57,6.25,36.04,12.09,53.44.31.93,1.92,1.95,2.97,2,5.82.27,11.65.25,17.48.31.63,0,1.26-.19,1.88-.3.04-.45.15-.73.07-.93-.31-.78-.67-1.55-1.04-2.3-8.92-17.92-12.36-36.71-8.88-56.58.23-1.33.19-2.8.78-3.95.5-.96,1.73-2.13,2.65-2.13.92,0,1.98,1.19,2.72,2.08.42.51.36,1.44.46,2.2,2.44,18.81,6.05,37.36,12.52,55.25,2.88,7.96.95,6.66,9.55,7.02,2.56.11,5.13.02,8.09.02-.54-1.7-.89-2.89-1.29-4.06-6.17-18.13-7.93-36.41-1.94-54.97.23-.72.29-1.67.79-2.1.87-.74,2.07-1.66,3.02-1.56.74.08,1.48,1.55,1.9,2.53.26.61-.13,1.48-.15,2.24-.12,4.8-.63,9.64-.25,14.4,1.15,14.42,6.09,28.02,9.62,41.92.14.57.75,1.44,1.16,1.45,3.13.12,6.27.07,9.68.07-.35-1.15-.47-1.73-.7-2.26-5.35-12.3-7.43-25.22-7.23-38.56.01-.84-.14-1.84.26-2.48.56-.92,1.48-2.09,2.38-2.21.89-.12,2.15.74,2.85,1.52.68.77.93,1.97,1.25,3.01,4,13.08,8.02,26.16,11.91,39.27.55,1.85,1.3,3.02,3.32,3.15,2.35.16,4.69.41,7.04.59,1.8.14,3.53.53,3.67,2.68.14,2.17-1.48,2.82-3.3,3.06-2.76.37-5.53.71-8.29,1.05-1.2.15-2.1.41-1.9,2,.54,4.27.83,8.58,1.47,12.83.73,4.9,2.08,9.63,5.73,13.26,1.36,1.35,3.03,2.39,4.56,3.57.6-1.22.69-1.95.58-2.65-1.44-9.05.18-17.85,2.39-26.56.27-1.05,1.91-2.46,2.87-2.42.93.04,2,1.61,2.6,2.73.44.81.17,1.99.32,2.99,1.2,8.09,2.1,16.25,3.75,24.25,1.67,8.07.21,7.23,9.78,8.68,2.55.39,2.86,0,2.17-2.57-1.63-6.01-2.43-12.13-1.78-18.32.47-4.43,1.44-8.82,2.31-13.2.32-1.62,1.51-3.02,3.21-2.48,1.1.35,1.89,1.81,2.7,2.87.27.35.13.99.22,1.48,1.58,8.89,2.94,17.83,4.82,26.66,1.83,8.61,1.12,6.65,8.8,7.2,2.65.19,2.78-.28,2.56-2.89-.38-4.44-.55-8.9-.67-13.36-.05-1.87.54-3.67,2.73-3.98,2.17-.31,3.19,1.25,3.79,3.04,1.62,4.79,3.29,9.58,4.72,14.43.53,1.79,1.31,2.49,3.17,2.43,3.46-.11,6.93-.14,10.38,0,2.03.08,2.73-.79,3.27-2.63,1.39-4.78,3.02-9.49,4.6-14.21.6-1.78,1.58-3.36,3.76-3.07,2.19.29,2.81,2.07,2.76,3.95-.11,4.54-.23,9.09-.65,13.61-.19,2.04.2,2.9,2.29,2.73,1.26-.1,2.54-.26,3.79-.17,2.65.2,4.07-.85,4.54-3.54,1.76-9.89,3.64-19.75,5.47-29.63.17-.91.02-2.01.49-2.71.64-.95,1.7-2.16,2.63-2.2.94-.04,2,1.13,2.86,1.93.37.35.38,1.09.54,1.66,2.72,10.07,3.14,20.15.32,30.28-.73,2.62-.33,3.04,2.38,2.67,1.76-.24,3.49-.64,5.24-.88,1.85-.25,2.88-1.32,3.22-3.07,1.39-7.21,2.87-14.4,4.09-21.64.57-3.4.43-6.93,1-10.33.19-1.11,1.57-2.73,2.49-2.79.95-.06,2.63,1.34,2.9,2.38,2.25,8.69,3.95,17.48,2.52,26.54-.13.83-.02,1.71-.02,2.58.48,0,.65.04.8,0,.24-.07.48-.18.69-.31,4.77-2.89,7.65-7.2,8.62-12.58.98-5.47,1.46-11.04,2.21-16.56.21-1.55-.64-1.89-1.87-2.04-2.6-.3-5.2-.64-7.79-.97-1.92-.24-3.99-.59-3.9-3.05.1-2.63,2.31-2.7,4.31-2.82,2.02-.13,4.03-.33,6.04-.46,2.25-.15,3.21-1.35,3.85-3.54,3.98-13.53,8.15-27,12.28-40.49.55-1.79,1.43-3.47,3.67-3.08,2.21.38,2.46,2.23,2.51,4.11.37,13.44-1.64,26.44-6.98,38.84-.31.72-.48,1.5-.88,2.77,3.09,0,5.69-.05,8.29.02,1.64.04,2.41-.67,2.81-2.24,2.06-7.93,4.29-15.82,6.3-23.76,2.69-10.62,4.41-21.35,2.72-32.35-.29-1.91-.58-4.01,1.86-4.55,2.47-.55,3.02,1.57,3.61,3.36.11.32.2.65.3.97,5.89,18.59,4.06,36.86-2.2,54.96-.35,1-.63,2.02-.93,3.02.46.26.67.48.88.48,3.38-.01,6.76-.23,10.12-.04,3.05.17,4.41-1.09,5.45-3.93,6.9-18.83,11-38.29,13.43-58.14.11-.92.12-1.98.6-2.68.56-.81,1.61-1.83,2.41-1.79.94.04,2.01.97,2.7,1.78.49.57.47,1.59.63,2.41,4,20.7.74,40.32-8.77,59.02-.4.78-.66,1.63-1.03,2.56.61.21.92.41,1.22.41,6.33-.05,12.67-.04,18.99-.3.89-.04,2.14-1.29,2.52-2.25,1.23-3.14,2.07-6.43,3.17-9.62,6.85-19.96,10.12-40.43,8.84-61.56-.04-.59-.19-1.33.09-1.74.61-.9,1.36-2.08,2.25-2.3.75-.18,1.94.68,2.65,1.38.54.54.67,1.52.91,2.33,2.18,7.43,3.23,15.01,3.25,22.75.03,16.61-3.49,32.52-9.42,47.96-1.02,2.64-.82,3.03,1.92,2.98,5.4-.11,10.8-.34,16.21-.46,1.69-.04,2.65-.73,3.03-2.42,2.71-11.94,6.12-23.77,8.04-35.84,2.51-15.83,3.85-31.84,5.71-47.77.36-3.1.58-6.25,1.29-9.27.26-1.14,1.63-2.64,2.67-2.8,1.02-.15,2.36,1.09,3.37,1.94.52.44.65,1.35.92,2.06,2.95,7.71,3.54,15.8,3.6,23.93.18,22.77-2.93,44.98-11.84,66.13-.96,2.28-.6,2.78,1.87,2.42,4.51-.65,9-1.49,13.51-2.13,2.23-.32,3.33-1.5,3.91-3.65,6.37-23.8,11.33-47.88,12.59-72.52.62-12.12.03-24.3-.03-36.46,0-1.79.09-3.59,2.23-3.97,2.1-.38,3.03,1.19,3.5,2.92.85,3.09,1.9,6.17,2.33,9.33,4.48,32.8,2.63,65.06-8.74,96.44-.33.9-.56,1.83-.89,2.92.71,0,1.07.1,1.34-.01,4.89-2.09,9.77-4.19,14.64-6.31,2.14-.93,3.08-2.63,3.43-4.92,1.72-11.44,3.7-22.85,5.29-34.31,2.76-19.91,3.93-39.91.2-59.81-2.33-12.44-5.48-24.73-8.24-37.09-.22-.98-.51-2.06-.3-2.98.18-.76.96-1.71,1.66-1.92.7-.2,1.81.22,2.44.74.59.48.89,1.42,1.12,2.21,1.41,4.69,2.86,9.37,4.12,14.1,8.56,32.11,9.93,64.84,8.4,97.81-.08,1.71-.16,3.42-.23,5.13ZM460.22,387.31c0,6.4-.05,11.63.05,16.85.02,1.07.32,2.75,1.01,3.08,2.8,1.35,5.03.95,6-1,1.34-2.7,2.67-5.48,3.45-8.38,2.74-10.2,2.48-20.53.73-30.85-.9-5.28-1.02-5.27-6.16-6.51-1.92-.46-2.83-.05-3,2.03-.68,8.64-1.44,17.28-2.07,24.78ZM218.78,386.72c-.62-7.13-1.33-15.68-2.13-24.23-.07-.73-.48-1.77-1.04-2.06-1.68-.87-7.06,1.61-7.43,3.4-2.61,12.74-3.05,25.43,1.31,37.93.58,1.66,1.45,3.23,2.33,4.76,1.49,2.59,3.77,1.03,5.7.85,1.97-.19,1.24-1.83,1.24-2.99.02-5.39,0-10.79,0-17.65ZM661.12,603.33c-.09.01-.19.03-.28.04-.27,10.35-.55,20.7-.82,31.05l.91.19c.41-.93,1.05-1.84,1.17-2.81.29-2.33.56-4.71.44-7.05-.37-7.15-.93-14.29-1.42-21.43ZM17.76,634.53l1.28-.29-.92-26.92c-.48,1.67-.68,3.34-.76,5.01-.29,5.54-.67,11.08-.75,16.63-.03,1.85.74,3.71,1.15,5.57Z" style="fill: #000; stroke-width: 0px;"/>
  <path d="M177.66,635.5c0-1.23.08-1.74-.01-2.21-3.36-16.31-1.96-32.44,1.74-48.49.7-3.04,1.45-6.08,2.23-9.11.48-1.88.86-4.25,3.48-3.8,2.8.47,2.22,2.93,2.06,4.93-.42,5.39-.99,10.77-1.28,16.16-.86,15.94,1.69,31.49,5.62,46.86.25.99,1.23,2.37,2.07,2.54,5.62,1.11,11.3,1.95,16.96,2.84.29.05.62-.18,1.22-.37-.4-1.24-.75-2.42-1.16-3.58-5.77-16.07-7.25-32.39-2.88-49.05.13-.49.26-.98.39-1.47.45-1.68,1.27-3.09,3.25-2.91,2.14.2,2.64,1.88,2.69,3.68.55,17.61,4.53,34.63,9.02,51.55.91,3.43.92,3.3,4.54,2.91,1.97-.21,4.01.38,6.01.3,4.8-.21,9.6-.57,14.39-.95,2.28-.18,1.86-1.62,1.32-3.12-3.34-9.3-5.14-18.87-5.17-28.78-.03-12.37,3.44-23.82,8.76-34.83.76-1.58,1.92-2.76,3.79-2.09,2,.71,2.06,2.46,1.69,4.24-4.17,19.76-2.77,39.31,2.13,58.73,1,3.94.96,3.85,4.92,3.46,6.8-.67,13.62-1.28,20.44-1.76,2.2-.15,3.03-.79,2.52-3.1-2.52-11.47-.83-22.68,2.27-33.78.46-1.66,1.27-3.14,3.24-2.91,2.12.25,2.55,1.95,2.54,3.78-.05,11.03,1.16,21.91,3.76,32.64.57,2.37,1.66,3.37,4.11,3.5,4.8.25,9.59.78,14.39,1.19,2.98.26,3.24-.02,3.54-3.09.56-5.72,1.17-11.43,1.77-17.14.08-.76-.02-1.67.38-2.22.72-1,1.73-2.42,2.65-2.45.9-.02,2.34,1.34,2.64,2.36.62,2.07.7,4.32.88,6.51.4,4.71.83,9.43,1.02,14.15.09,2.28,1,3.24,3.18,3.24,3.12,0,6.24,0,9.36.03,2.3.02,3.19-1.04,3.31-3.4.29-5.99.86-11.96,1.34-17.93.07-.84-.03-1.84.39-2.47.67-1.02,1.7-2.45,2.61-2.48.9-.03,2.35,1.32,2.67,2.34.65,2.06.74,4.31.98,6.49.48,4.45.99,8.9,1.33,13.36.16,2.13.94,3.02,3.16,2.79,5.21-.53,10.43-.98,15.65-1.33,2.18-.15,2.77-1.49,3.2-3.26,2.45-9.97,3.72-20.09,3.71-30.36,0-1.1-.26-2.31.13-3.26.45-1.11,1.47-2.77,2.26-2.77,1.06,0,2.14,1.32,3.19,2.1.11.08.12.31.17.47,3.16,11.09,4.9,22.28,2.45,33.76-.46,2.14.04,3.08,2.39,3.25,7.24.53,14.47,1.21,21.69,1.94,1.95.2,2.94-.34,3.45-2.31,4.94-19.22,6.73-38.58,2.69-58.21-.24-1.15-.63-2.41-.38-3.49.23-.99,1.06-2.22,1.94-2.55.73-.28,1.98.44,2.85.97.5.31.73,1.1,1.03,1.7,10.21,20.28,11.12,41.11,3.63,62.42-1.17,3.34-1.15,3.63,2.45,3.84,5.36.3,10.75.2,16.12.31,1.26.03,2.54.1,3.76.37,1.81.39,2.9-.09,3.4-1.97,4.45-16.76,8.55-33.57,9.12-51.02.02-.59.05-1.18.1-1.77.12-1.71.58-3.31,2.56-3.54,2.12-.24,3,1.29,3.4,3.05.81,3.54,1.72,7.07,2.22,10.66,1.95,13.86-.03,27.27-4.88,40.32-1.29,3.48-1.12,3.76,2.65,3.2,4.42-.66,8.82-1.52,13.24-2.21,2.13-.33,3.13-1.49,3.67-3.56,5.36-20.43,6.85-41.1,4.05-62.06-.27-2.04-1.02-4.71,1.84-5.29,3.09-.63,3.23,2.29,3.78,4.33,3.87,14.42,6.63,29,5.61,44.03-.27,4.03-.98,8.04-1.49,12.06-.11.87-.23,1.73-.34,2.6.19.12.38.23.57.35.96-.74,1.99-1.4,2.86-2.23,6.81-6.43,9.15-14.8,10.11-23.71,1.44-13.38-.04-26.66-1.74-39.9-1.91-14.91-4.04-29.79-5.95-44.7-.38-3-.39-6.08-.24-9.1.1-1.99.38-4.18,1.34-5.84.75-1.29,2.71-2.67,4.07-2.61,1.36.07,2.93,1.67,3.84,2.99.75,1.09.67,2.74.96,4.15,4.12,20.02,8.35,40.02,12.32,60.06,2.63,13.24,3.6,26.65,2.21,40.09-1.28,12.34-6.34,23.21-14.27,32.73-8.4,10.09-19.72,13.85-32.29,14.49-7.16.37-14.34.19-21.52.21-3.37.01-3.64.17-3.46,3.6.69,13.16,1.55,26.3,2.13,39.46.44,9.98.31,20.01-2.8,29.63-5.38,16.65-15.68,28.99-33.25,32.93-10.31,2.31-21.06,3.16-31.65,3.48-11.53.34-23.12-.5-34.66-1.18-17.49-1.03-34.95-.47-52.4.77-16.83,1.2-33.54.43-50.26-2-13.69-2-23.33-9.57-31.02-20.33-5.84-8.17-8.38-17.63-8.71-27.42-.38-11.2.2-22.44.55-33.65.23-7.42.77-14.84,1.26-22.26.16-2.37-.82-3.06-3.09-3.08-8.44-.06-16.89.06-25.3-.52-17.53-1.19-29.18-10.91-37-26.14-6.42-12.5-7.8-25.84-6.54-39.46.98-10.65,2.6-21.28,4.57-31.81,3.26-17.43,7.04-34.76,10.58-52.14.62-3.03,2.09-4.71,4.35-4.86,2.16-.14,4.23,1.49,4.74,4.44.54,3.13.99,6.42.65,9.54-1.44,13.09-3.15,26.15-4.86,39.21-1.92,14.66-4.01,29.3-3.35,44.15.28,6.36,1.17,12.61,3.59,18.57,1.71,4.22,4.21,7.89,7.68,10.86.6.52,1.3.91,2.46,1.72ZM442.31,692.36c-.15,0-.3,0-.46,0,0-1.6-.04-3.21,0-4.81.23-7.51.5-15.01.73-22.52.12-3.78.09-3.83-3.55-3.91-11.13-.24-22.26-.38-33.39-.7-2.52-.07-3.14.88-3.15,3.24-.03,8.11-.07,16.22-.46,24.31-.3,6.06-.84,12.14-1.83,18.11-1.3,7.85-5.93,13.35-13.42,16.15-7.11,2.66-14.25,5.3-21.49,7.57-13.2,4.13-26.84,2.52-40.25,2.01-12.64-.49-24.15-6.04-35.64-10.94-4.96-2.12-8.22-6.23-9.73-11.42-.96-3.3-1.83-6.74-2.01-10.15-.59-11.46-.87-22.94-1.21-34.42-.13-4.47-.07-4.52-4.43-4.38-3.71.12-7.41.44-11.12.5-6.91.1-13.83.03-20.75.12-3.85.05-3.82.14-3.72,3.99.23,8.68.68,17.37.59,26.05-.1,9.62-.78,19.23-1.03,28.85-.13,5.08,1.52,9.79,3.77,14.31,2.19,4.4,5.54,7.49,10.26,8.8,5.28,1.47,10.64,2.63,15.96,3.97,2.61.66,5.18,1.48,7.79,2.13,2.84.71,5.68,1.71,8.57,1.91,13.27.94,26.5.1,39.68-1.4,10.19-1.16,20.33-1.41,30.57-.55,12.1,1.02,24.24,1.73,36.37,2.16,4.75.17,9.6-.45,14.29-1.33,5.19-.97,10.26-2.62,15.37-4.01,3.66-.99,7.34-1.94,10.96-3.07,4.32-1.36,7.4-4.24,9.52-8.23,2.58-4.86,4.12-10.03,4.01-15.54-.17-8.94-.54-17.88-.83-26.83ZM330.38,680.62c-.24,10.83.27,21.63,3.02,32.18,1.55,5.97,1.63,5.88,7.75,5.96,1.88.03,2.86-.69,3.29-2.38.91-3.6,2.02-7.16,2.65-10.81,2.31-13.57,2.03-27.26,1.52-40.95-.07-1.84-.91-2.23-2.55-2.2-4.3.08-8.62.14-12.92-.03-2.19-.09-2.81.75-2.78,2.77.07,5.15.02,10.3.02,15.45Z" style="fill: #000; stroke-width: 0px;"/>
  <path d="M177.78,221.85c4.97-2.54,8.97-4.51,10.88-9.89,4.11-11.56,11.14-21.56,18.84-31.05.68-.84,1.45-1.8,2.4-2.21.95-.41,2.49-.63,3.17-.12.68.51,1.01,2.12.78,3.07-.37,1.52-1.39,2.87-2.04,4.34-1.87,4.24-3.85,8.45-5.48,12.79-.77,2.05-.85,4.37-.84,6.8,5.83-3.99,13.22-5.63,15.81-13.55,1.64-5,4.27-9.75,6.96-14.32,4.23-7.21,8.85-14.18,13.36-21.22.86-1.34,1.77-2.77,3-3.73.99-.77,2.76-1.5,3.69-1.1.93.4,1.85,2.29,1.72,3.41-.43,3.76-1.17,7.51-2.07,11.19-1.91,7.76-3.08,15.59-2.36,23.59.25,2.76.42,5.64,1.34,8.21,5.39,15.11,10.74,30.24,16.7,45.13,1.57,3.92,1.91,7.57,1.45,11.41-.52,4.38-2.53,8.25-5.98,11.13-1.33,1.11-2.9,2.07-4.52,2.68-2.68,1.01-4.9.29-7.05-1.87-4.28-4.3-8.86-8.3-13.4-12.33-.45-.39-1.62-.34-2.27-.06-9.32,3.96-18.58,8.05-27.9,11.99-5.7,2.41-9.43,6.39-10.74,12.51-.17.82-.46,1.69-.32,2.47.53,2.92-.9,4.81-3.25,5.97-9.2,4.54-18.68,8.42-29.02,9.22-2.7.21-5.7-.82-8.21-2.01-1.23-.59-2.25-2.82-2.33-4.37-.2-3.52-.04-7.11.47-10.6,1.34-9.11,2.76-18.21,4.53-27.24.85-4.35,2.57-8.54,3.9-12.79.45-1.45.91-2.9,1.39-4.33,2.91-8.63,5.62-17.34,8.8-25.87,2.27-6.08,4.82-12.11,7.87-17.83,2.92-5.48,6.61-10.55,10.04-15.74.99-1.5,2.49-2.58,4.29-1.34,1.8,1.24,1.17,2.96.28,4.51-7,12.27-10.87,25.6-13.4,39.39-.19,1.04-.27,2.11-.47,3.75Z" style="fill: #000; stroke-width: 0px;"/>
  <path d="M473.9,205.35c-.43-2.27-.51-4.68-1.34-6.79-1.96-4.93-4.28-9.73-6.46-14.57-.41-.92-1.11-1.82-1.18-2.77-.07-.88.25-2.15.88-2.64.62-.48,2.03-.55,2.74-.15,1.21.68,2.28,1.75,3.17,2.85,8.31,10.21,15.34,21.19,20,33.59.49,1.29,1.69,2.5,2.85,3.32,1.88,1.33,4.01,2.32,6.61,3.77-.19-1.66-.24-2.64-.41-3.59-2.5-13.88-6.4-27.29-13.48-39.61-.9-1.56-1.54-3.28.22-4.53,1.91-1.35,3.28.01,4.49,1.44,4.85,5.71,8.7,11.99,11.47,18.98,3.83,9.65,8.38,19.03,11.8,28.81,6.41,18.34,11.4,37.09,13.29,56.53.32,3.27.5,6.57.41,9.85-.09,3.24-1.38,4.33-4.37,5.41-3.81,1.38-7.52,1.11-11.42.41-8-1.43-15.32-4.69-22.66-7.9-2.93-1.28-4.56-3.21-4.58-7.01-.02-4.38-1.66-8.79-5.64-11.37-3.23-2.1-6.79-3.72-10.32-5.3-7.08-3.18-14.28-6.08-21.33-9.32-2.24-1.03-3.59-1.01-5.44.87-4.14,4.2-8.61,8.06-12.99,12.03-1.89,1.71-4.92,1.77-7.8-.06-6.25-3.97-9.05-9.86-8.72-17.16.12-2.56.79-4.98,1.81-7.52,5.24-13.08,9.91-26.4,14.9-39.58,4.13-10.91,4.02-21.96,1.51-33.15-1-4.45-1.94-8.91-2.89-13.37-.14-.66-.43-1.43-.23-1.99.43-1.17.9-2.7,1.83-3.2.78-.42,2.39.17,3.35.77.96.59,1.71,1.65,2.31,2.65,6.65,10.96,13.25,21.95,19.85,32.94.39.65.76,1.36.91,2.08,1.84,8.86,9.56,11.55,15.97,15.62.29-.11.59-.22.88-.33Z" style="fill: #000; stroke-width: 0px;"/>
  <path d="M399.2,516.54c-.25-2.36-.39-4.27-.66-6.16-2.61-18-6.47-35.72-11.52-53.19-.68-2.35-1.35-4.72-1.81-7.12-.5-2.63.65-4.73,2.66-5.39,2.05-.68,4.37.23,5.36,2.68,1.51,3.74,3.09,7.56,3.84,11.5,2.84,15.01,5.34,30.09,7.99,45.14,1.45,8.22,3.07,16.41,4.36,24.65.45,2.88.28,5.88.15,8.82-.07,1.67.42,2.39,2.07,2.33.25-.01.51.01.76.02,13.34.42,17.94-3.55,19.13-16.87,1.06-11.78-.46-23.44-2.09-35.08-1.27-9.03-2.74-18.03-4-27.07-.38-2.75-.53-5.56-.44-8.33.1-3.2,2-5.27,4.56-5.52,2.78-.27,5.11,1.38,5.63,4.69,3.17,20.17,8.07,40.13,8.05,60.7,0,5.79-.45,11.69-1.63,17.34-2.76,13.19-10.64,20.03-24,21.7-9.89,1.24-19.75.46-29.56-.78-14.49-1.83-28.94-3.97-43.41-5.99-1.87-.26-3.63-.85-3.59-3.14.04-2.14,1.76-2.7,3.5-2.97,2.92-.46,5.84-.95,8.78-1.21,1.97-.17,2.49-1.01,2.47-2.91-.05-3.88-.1-7.79.35-11.63.71-6.02,4.06-9.24,10.12-9.8,10.09-.93,20.07-.24,29.83,2.7.85.26,1.71.49,3.08.88Z" style="fill: #000; stroke-width: 0px;"/>
  <path d="M279.88,516.16c4.97-1.01,9.54-2.33,14.19-2.78,5.78-.57,11.64-.77,17.43-.5,7.64.35,11.04,4.02,11.56,11.7.22,3.2.25,6.42.07,9.62-.13,2.23.67,2.96,2.8,3.14,2.94.24,5.86.76,8.77,1.24,1.69.28,3.18,1.02,3.15,3.02-.03,1.98-1.51,2.75-3.21,2.97-18.76,2.42-37.49,5.06-56.29,7.04-6.38.67-13.02.16-19.42-.73-11.41-1.6-18.37-8.59-21.25-19.68-2.64-10.14-2.63-20.48-1.3-30.72,2.09-16.16,4.79-32.24,7.31-48.34.54-3.43,2.75-5.34,5.52-5.2,2.74.14,4.98,2.37,4.82,5.8-.27,5.64-.99,11.26-1.69,16.86-1.6,12.9-3.59,25.77-4.81,38.7-.57,6.08-.24,12.35.59,18.42,1.28,9.38,5.59,12.78,14.99,13.09,6.14.21,6.02.21,6.08-5.98.02-2.58.59-5.17,1.01-7.74,1.47-8.99,2.96-17.98,4.5-26.96,2.18-12.73,4.26-25.49,6.72-38.17.88-4.52,2.57-8.91,4.21-13.24.47-1.24,1.87-2.48,3.13-3.01,2.5-1.03,5.12,1.05,5.06,3.96-.04,1.83-.49,3.68-1,5.45-5.46,18.85-9.86,37.92-12.53,57.38-.21,1.54-.26,3.1-.39,4.65Z" style="fill: #000; stroke-width: 0px;"/>
  <path d="M410.32,222.31c-.06,13.37-.99,27.94-5.71,41.97-1.42,4.22-3.5,8.22-5.38,12.27-.69,1.5-1.95,2.47-3.7,1.81-1.75-.66-1.97-2.2-1.61-3.81,5.88-26.38,4.4-52.92,1.52-79.44-3.58-33.02-11.02-65.26-20.25-97.12-.92-3.16-1.8-6.34-2.55-9.55-.28-1.2-.52-2.66-.07-3.71.5-1.18,1.68-2.61,2.78-2.83,1.23-.25,2.82.55,4.04,1.26.69.4,1.06,1.49,1.38,2.35,11.08,30.09,20.54,60.64,25.67,92.38,2.31,14.28,3.75,28.64,3.87,44.42Z" style="fill: #000; stroke-width: 0px;"/>
  <path d="M268.52,218.85c.77-27.81,5.48-54.99,13.06-81.63,4.92-17.28,10.94-34.25,16.47-51.36.13-.4.28-.8.46-1.18,1.09-2.33,3.25-3.52,5.28-2.9,2.04.62,3.25,2.75,2.82,5.32-.31,1.83-.84,3.62-1.28,5.42-5.11,20.56-10.78,41.01-15.21,61.72-6.05,28.3-9.37,56.99-8.9,86.01.18,11.25,1.08,22.44,3.59,33.44.17.73.47,1.61.23,2.23-.36.93-.99,2.07-1.8,2.42-.69.3-2.01-.15-2.69-.71-.8-.66-1.27-1.76-1.78-2.73-5.77-11.06-8.18-23.03-9.21-35.31-.58-6.89-.7-13.82-1.03-20.74Z" style="fill: #000; stroke-width: 0px;"/>
  <path d="M382.2,239.49c-.96,13.3-1.92,26.6-2.9,39.89-.15,2.02-.45,4.22-3.08,4.07-2.44-.14-2.55-2.27-2.65-4.2-.84-17.37-1.41-34.75-2.58-52.1-1.93-28.66-5.77-57.1-10.93-85.36-.21-1.15-.64-2.52-.23-3.47.57-1.33,1.68-3.04,2.85-3.31,1.17-.27,2.79.9,4.05,1.7.52.33.71,1.31.91,2.03,9.13,32.95,14.82,66.38,14.56,100.73Z" style="fill: #000; stroke-width: 0px;"/>
  <path d="M296.83,239.71c-.29-34.44,5.4-67.95,14.5-100.99.81-2.94,2.8-4.39,5.03-3.89,2.13.48,3.25,2.52,2.77,5.49-.99,6.17-2.13,12.31-3.13,18.47-6.43,39.65-9.58,79.59-10.68,119.72-.06,2.09.24,4.49-2.66,4.97-1.89.31-2.87-1.28-3.12-4.88-.92-12.96-1.81-25.93-2.71-38.89Z" style="fill: #000; stroke-width: 0px;"/>
</svg>