<?xml version="1.0" encoding="UTF-8"?>
<svg id="Layer_1" data-name="Layer 1" xmlns="http://www.w3.org/2000/svg" viewBox="0 0 684.28 900">
  <path d="M598.79,475.49c.29,14.12-3.7,27.06-8.04,39.9-3.23,9.54-7.23,18.76-13.29,26.91-1.46,1.97-3.04,3.92-4.87,5.53-1.89,1.66-2.12,3.07-1.02,5.35,6.4,13.26,7.41,27.1,3.84,41.29-1.92,7.64-5.07,14.69-10.68,20.41-3.97,4.05-8.62,6.82-14.41,7.18-1.8.11-2.18.85-1.97,2.54.26,2.15.47,4.37.22,6.5-1.09,9.31-9.37,14.58-18.02,10.99-3.61-1.5-6.62-4.55-9.74-7.08-1.29-1.04-2.17-2.58-3.88-3.79,0,.94-.1,1.9.01,2.83,2.95,23.35,1.58,46.76.78,70.14-.76,22.11-4.71,43.76-12.07,64.61-9.19,26.03-25.47,46.94-48.77,61.75-12.63,8.03-23.27,17.77-32.24,29.58-5.93,7.8-12.67,14.84-20.25,21.05-7.71,6.31-16.45,10.45-26.23,12.29-7.54,1.42-15.12,2.62-22.66,4.05-2.59.49-5.07,1.76-7.67,2.02-3.71.38-7.59.71-11.22.08-9.78-1.68-19.45-4.04-29.22-5.84-10.79-1.99-20.32-6.42-28.75-13.44-8.88-7.39-16.16-16.23-23.27-25.23-7.29-9.23-15.84-16.99-26.02-23.04-16.29-9.68-28.94-23.23-39.18-38.95-9.37-14.39-14.49-30.54-18.19-47.23-4.13-18.7-5.66-37.6-6.16-56.7-.49-18.69-.72-37.32,1.37-55.93.07-.62,0-1.25-.56-2.18-.62.73-1.27,1.44-1.87,2.19-2.8,3.52-5.86,6.72-10.11,8.51-10.32,4.34-19.49-2.05-19.34-13.49.03-1.87.86-4.3-.02-5.46-.87-1.14-3.45-.92-5.25-1.42-5.84-1.62-10.41-5.18-13.66-10.1-10.96-16.59-12.71-34.54-5.92-52.95,2.21-6,2.26-9.56-2.36-14.57-8.33-9.04-12.41-20.73-16.11-32.33-3.63-11.38-7.09-22.84-6.69-35.01,0-.25-.18-.51-.31-.84-.38,0-.77-.09-1.1.01-11.15,3.35-20.49-.28-28.86-7.52-16.37-14.17-23-38.74-15.71-59.13,1.38-3.87,3.6-7.49,5.76-11.03,1.07-1.77.81-2.46-.77-3.58-6.71-4.76-13.89-9.06-19.84-14.65-15.34-14.42-21.11-32.71-18.85-53.42,1.37-12.54,8.61-21.14,20.05-26.26,1.81-.81,3.63-1.58,5.44-2.39.06-.03.08-.16.21-.43-.28-.35-.58-.81-.96-1.18-8.72-8.17-15.64-17.77-21.79-27.92-5.1-8.42-7.93-17.66-8.41-27.47-1.08-22.03,2.91-42.86,15.65-61.37,4.24-6.16,9.64-11.18,16.08-15.04,5.28-3.17,10.91-5.3,17.16-5.35,1.64-.01,2.43-.39,2.12-2.32-4.94-29.82,6.21-53.8,27.16-74.12,8.21-7.96,17.29-14.77,27.72-19.61.86-.4,1.73-.78,2.61-1.13,16.93-6.9,30.81-1.93,39.58,14.18.53.97,1.1,1.92,2.01,3.49.77-1.74,1.31-2.88,1.79-4.05,6.96-16.89,15.92-32.55,29.25-45.27,11.3-10.78,24.49-18.48,39.69-22.36,4-1.02,8.23-1.55,12.35-1.57,13.38-.04,22.3,7.84,24.38,21.09.18,1.17.38,2.33.68,4.12,1.29-1.2,2.11-1.93,2.9-2.7,6.65-6.45,14.03-11.91,22.44-15.82,13.19-6.14,26.73-11.37,41.4-12.55,4.58-.37,9.24.29,13.86.49,1.6.07,3.27.48,4.8.18,11.82-2.34,23.21-.29,34.44,3.22,14.83,4.64,29.06,10.52,40.89,21.03,1.06.94,2.17,1.85,3.12,2.9.88.98,1.57,2.13,2.34,3.21l1.08-.54c.19-.83.44-1.65.56-2.5,2.13-14.6,11.33-22.57,26.08-22.17,12.49.33,23.54,5.3,34.12,11.47,17.28,10.08,29.22,25.04,38.42,42.41,2.88,5.43,5.19,11.16,7.76,16.75.31.66.64,1.31,1.16,2.38.65-.86,1.1-1.39,1.46-1.97,1.32-2.08,2.48-4.27,3.93-6.25,7.96-10.88,18.58-14.61,31.49-10.82,12.09,3.55,22.1,10.73,31.4,18.93,13.68,12.07,24.39,26.18,29.32,44.1,2.99,10.85,3.79,21.81,1.68,32.93-.14.73-.15,1.47-.24,2.3.43.2.75.47,1.08.48,14.53.39,24.91,8.24,33.35,19.08,10.24,13.13,14.47,28.61,16.32,44.84,1.62,14.16.86,28.11-5.77,41.07-6.13,11.98-14.19,22.6-23.82,32.02-.45.45-.87.93-1.47,1.58.64.37,1.07.72,1.56.89,20.07,7.01,26.62,21.69,24.67,41.47-1.96,19.81-11.08,35.58-27.43,47.04-3.8,2.66-7.7,5.18-11.63,7.66-1.57.99-1.84,1.82-.67,3.37,14.15,18.76,12.07,53.76-12.99,72.67-7.6,5.73-16.03,8-25.44,5.23-.44-.13-.92-.14-1.78-.27ZM315.03,230.86c-.23-.2-.47-.39-.7-.59-1.03.76-2.14,1.44-3.08,2.3-5.92,5.41-8.34,12.37-8.29,20.15.04,5.86.83,11.71,1.05,17.58.17,4.43.12,8.89-.13,13.32-.13,2.38-1.66,4.04-4.15,4.38-2.51.34-4.17-.99-5.18-3.15-.59-1.28-1.1-2.63-1.46-4-.88-3.39-1.66-6.81-2.47-10.22-1.14-4.82-6.96-9.89-11.77-10.25-1.6-.12-2.65.19-2.98,2.14-.28,1.62-.96,3.28-1.87,4.65-3.49,5.25-5.99,10.97-6.1,17.21-.12,7.06.68,14.13,1.18,21.19.14,1.98.43,4.02-1.97,4.69-2.36.67-3.36-1.09-4.16-2.94-3.43-7.94-5.37-16.17-4.89-24.88.04-.7,0-1.4,0-2.1-.23-.05-.45-.09-.68-.14-.42,1.29-1.05,2.55-1.22,3.87-1.08,8.35-2.13,16.7-3.05,25.06-.81,7.43-1.33,14.9-2.17,22.33-.3,2.66-1.93,4.66-4.81,4.79-2.91.14-4.52-1.8-5.22-4.37-.76-2.83-1.47-5.71-1.8-8.61-1.47-12.64-.51-25.16,2.2-37.57.77-3.54.69-3.68-2.98-3.82-2.08-.08-4.17-.09-6.25-.05-4.76.1-5.75,1.01-5.19,5.81.44,3.74,1.69,7.39,2.17,11.13.17,1.34-.47,3.35-1.46,4.08-.79.59-3.1.18-4-.62-4.42-3.9-7.24-8.72-7.23-14.85,0-.91,0-1.83,0-3.32-2.48.71-4.51,1.35-6.57,1.86-3.45.87-5.92,2.44-5.54,6.58.08.89-.39,1.84-.68,2.74-1.15,3.54-.88,7.02,1.07,10.13,1.65,2.62,3.67,5.03,5.66,7.42,1.27,1.51,2.67,2.97,1.4,5-1.36,2.16-3.37,1.65-5.32.84-8.55-3.6-13.29-10.32-15.62-19.03-.24-.88-.45-1.77-.7-2.75-.64.13-1.1.09-1.34.3-3.83,3.38-7.66,6.75-11.4,10.22-.57.53-.98,1.49-1.03,2.28-.38,6.43-.38,12.92,4.65,17.8,3.99,3.87,8.41,7.29,12.67,10.88.79.67,1.95,1.03,2.49,1.84.62.92,1.31,2.41.96,3.23-.41.97-1.81,1.76-2.94,2.12-.9.29-2.05-.11-3.06-.34-10.12-2.27-17.38-8.45-22.94-16.92-.6-.91-1.23-1.81-2.18-3.2-.66,1.31-1.19,2.06-1.44,2.9-1.09,3.63-2.42,7.22-3.02,10.94-.33,2.05.09,4.58,1.07,6.42,4.81,9.1,12.36,15.45,21.34,20.21,2.18,1.15,4.53,2.05,6.5,3.48,1.04.75,2.09,2.51,1.91,3.63-.18,1.12-1.76,2.68-2.91,2.85-2.85.44-5.88.62-8.71.16-6.64-1.1-12.1-4.71-17.13-9.03-.94-.81-1.97-1.52-3.3-2.54-.14,1.23-.33,1.87-.27,2.49.63,5.84,1.18,11.69,2.06,17.5.19,1.25,1.43,2.76,2.59,3.38,6.77,3.6,13.64,7.01,20.52,10.39,1.85.91,3.93,1.63,3.47,4.15-.49,2.7-2.8,2.66-4.95,2.66-5.4,0-10.52-1.17-15.4-3.46-.89-.42-1.82-.76-2.72-1.14-.25.16-.51.33-.76.49,1.01,4.37,1.97,8.75,3.1,13.09.18.69,1.11,1.24,1.77,1.75,5.57,4.31,12.12,6.09,18.91,7.25,1.99.34,3.77,1.09,3.81,3.48.04,2.22-1.61,3.04-3.44,3.57-5.1,1.5-10.23,1.87-15.42.46-.87-.24-1.76-.35-2.65-.53-.82,4.91-.23,5.91,3.44,8.13,2.16,1.31,3.98,3.18,6.05,4.66,1.27.91,2.7,1.59,4.08,2.33,4.05,2.18,8.17,4.23,12.13,6.56,1.62.96,2.77,2.91,1.44,4.58-.85,1.07-2.82,1.59-4.33,1.7-1.68.12-3.42-.5-5.13-.8-.23.24-.46.48-.68.71.94,1.64,1.67,3.46,2.86,4.89,2.24,2.68,4.93,5.01,7.06,7.77.73.94.92,3.14.3,4.04-.6.89-2.54,1.12-3.9,1.15-1.12.02-2.25-.68-3.54-1.11-.56,5.81-.55,11.04,3.91,15.27,2.12,2.01,4.07,4.28,5.7,6.7.69,1.02.94,3.36.3,3.98-.87.84-2.86,1.01-4.22.72-1.4-.29-2.61-1.47-3.9-2.27-.81-.5-1.62-1.02-2.5-1.58-1.54,4.3-1.17,7.78,1.72,10.94,2.04,2.23,3.8,4.72,5.74,7.05,1.27,1.53,2.45,3.13,1.03,5.07-1.38,1.89-3.34,1.53-5.15.69-2.12-.97-4.16-2.11-6.56-3.34-.24,2.15-.41,4.01-.65,5.86-.3,2.22.32,3.74,2.18,5.34,4.14,3.59,7.96,7.57,11.69,11.59.77.83,1.15,2.84.67,3.78-.48.93-2.22,1.54-3.47,1.67-1.24.12-2.61-.4-3.84-.88-2.35-.9-4.63-1.97-7.39-3.17.35,4.19-.55,7.86,2.31,11.56,4.29,5.55,9.17,10.32,14.73,14.48,1.66,1.25,3.27,2.67,2.07,4.96-1.18,2.27-3.33,1.83-5.27,1.21-2.32-.74-4.58-1.67-7.16-2.64-1.7,4.95-3.44,9.74-4.93,14.6-.23.74.51,1.93,1.07,2.72,3.77,5.34,7.73,10.55,11.35,15.98.72,1.08.9,3.54.19,4.3-.88.94-3.25,1.46-4.43.93-3.34-1.47-6.45-3.51-9.57-5.44-1.15-.71-2.08-1.76-3.85-3.29-1.17,6.13-2.25,11.47-3.15,16.84-.13.81.49,1.8.91,2.63,3.65,7.28,7.33,14.55,11.02,21.81.87,1.71,1.46,3.48-.28,4.9-1.77,1.44-3.46.55-4.79-.83-2.56-2.66-5.01-5.42-7.5-8.14-.52-.57-1.05-1.14-1.74-1.87-1.17,4.32-.93,5.07,1.17,7.99,4.09,5.69,8.07,11.47,12.09,17.22,1.13,1.62,1.62,3.35-.02,4.87-1.54,1.42-3.22.81-4.67-.26-2.13-1.57-4.2-3.24-6.27-4.9-1.04-.83-2.02-1.72-3.06-2.61,0,5.29-.05,10.19.05,15.09.02.77.57,1.61,1.07,2.27,3.7,4.92,7.45,9.8,11.19,14.69,1.24,1.61,2.14,3.35.53,5.11-1.63,1.78-3.46.94-5.15-.12-2.04-1.28-4.07-2.59-6.82-4.34.21,3.91.11,7.11.63,10.22.32,1.91,1.22,3.96,2.47,5.42,2.64,3.09,5.84,5.7,8.46,8.8.9,1.06,1.4,3.25.93,4.49-.77,2.01-2.87,1.75-4.68,1.01-1.7-.69-3.39-1.41-5.63-2.35.66,3.51.11,6.56,2.85,8.88,5.13,4.35,10.12,8.85,15.13,13.35,1.73,1.55,4.17,3.16,2.32,5.88-1.83,2.69-4.25,1.03-6.36.08-2.88-1.29-5.7-2.72-9.28-4.44.72,2.93,1.33,5.09,1.76,7.28.56,2.86,2.02,4.81,4.51,6.5,5.56,3.77,10.92,7.86,16.17,12.06.99.79,1.69,2.85,1.42,4.08-.43,1.98-2.43,2.08-4.23,1.66-.92-.22-1.83-.48-2.73-.77-2.39-.76-4.78-1.54-7.16-2.31-.21.2-.42.4-.64.59,1.76,3.49,3.56,6.96,5.26,10.48,1.44,2.97,3.66,5.04,6.71,6.21,7.96,3.05,15.92,6.08,23.88,9.12.62.24,1.46.23,1.85.66.88.97,2.29,2.3,2.11,3.19-.23,1.12-1.8,2.73-2.87,2.78-3.95.21-7.93-.09-11.89-.29-1.28-.06-2.55-.4-4.72-.77,1.08,1.42,1.56,2.19,2.17,2.82,2.84,2.92,5.53,6.04,8.66,8.61,1.95,1.6,4.5,2.62,6.94,3.41,7.01,2.28,14.11,4.28,21.15,6.48,1.87.59,3.19,1.92,2.63,4.08-.53,2.03-2.28,2.3-4.09,2.27-1.24-.02-2.49,0-3.73,0-.13.3-.26.6-.39.9,3.02,2.16,5.75,5.27,9.12,6.28,8.42,2.54,15.7,7.05,22.98,11.65.99.63,1.1,2.66,1.62,4.04-1.39.5-2.84,1.51-4.16,1.37-2.32-.25-4.55-1.24-6.83-1.88-.63-.18-1.31-.2-1.97-.3-.15.24-.31.49-.46.73,1.94,1.99,3.71,4.2,5.87,5.91,2.06,1.62,4.63,2.57,6.81,4.05,5.91,4.02,12.37,6.65,19.43,7.57,6.47.85,13,1.3,19.5,1.92,1.99.19,3.99.54,4.02,3.05.03,2.27-1.74,2.98-3.65,3.22-4.79.61-9.58,1.2-14.38,1.72-1.34.15-2.7.02-4.06.02-.04.32-.08.64-.12.96,1.45.52,2.86,1.19,4.35,1.53,7.74,1.78,15.5,3.48,23.26,5.2.64.14,1.32.13,1.97.23,3.25.5,6.51,1.01,9.76,1.53.93.15,1.88.62,2.76.49,4.84-.72,9.69-1.44,14.48-2.42,6.76-1.37,13.49-2.93,20.21-4.49,2.31-.54,4.57-1.31,6.85-1.97-.04-.28-.09-.55-.13-.83-.89-.06-1.79-.09-2.68-.18-5.36-.59-10.73-1.16-16.08-1.81-1.9-.23-3.67-.98-3.6-3.26.07-2.31,1.9-2.82,3.82-2.96,4.06-.3,8.13-.53,12.19-.87,10.67-.88,20.7-3.6,29.4-10.21,1.19-.9,2.61-1.55,3.98-2.17,3.03-1.37,4.29-4.19,5.93-6.84-3.21.52-6.14,1.61-9.17,2.12-1.19.2-3.26-.56-3.71-1.49-.44-.89.26-3.2,1.17-3.78,7.09-4.55,14.11-9.37,22.45-11.39,4.42-1.07,6.59-4.6,10.37-7.66-2.02,0-3.11-.04-4.2,0-2.01.08-4.01-.1-4.51-2.45-.5-2.34,1.2-3.48,3.11-4.06,7.05-2.16,14.13-4.23,21.2-6.33,1.35-.4,3.08-.41,4-1.27,4.32-4.07,8.42-8.38,12.59-12.62.05-.05-.12-.32-.28-.73-1.23.2-2.5.52-3.79.59-3.77.21-7.57.55-11.32.33-1.23-.07-2.97-1.45-3.41-2.63-.71-1.91.95-3.04,2.68-3.67.53-.19,1.1-.3,1.63-.5,7.53-2.84,15.04-5.75,22.6-8.51,8.18-2.98,9.46-10.82,12.69-17.44-1.11-.08-1.98.13-2.84.39-2.44.75-4.87,1.58-7.32,2.29-1.77.51-3.5.41-4.41-1.49-.89-1.87.05-3.31,1.53-4.41,5.24-3.9,10.26-8.19,15.84-11.55,5.45-3.29,4.87-8.61,6.59-14.04-4.12,1.93-7.5,3.55-10.91,5.09-1.75.79-3.6,1.07-4.84-.8-1.25-1.87-.27-3.46,1.17-4.75,5.14-4.63,10.14-9.44,15.54-13.73,3.26-2.59,3.25-5.75,3.62-9.66-2.24.96-3.95,1.7-5.67,2.42-1.7.71-3.4.87-4.62-.79-1.34-1.82-.47-3.43.87-4.81,2.17-2.25,4.15-4.79,6.64-6.61,6.24-4.54,4.41-10.97,4.96-17.7-2.76,1.74-4.88,3.08-7,4.4-1.63,1.01-3.39,1.66-4.91.02-1.62-1.75-.76-3.48.48-5.1,2.76-3.61,5.18-7.55,8.32-10.8,3.78-3.91,4.67-8.41,4.49-13.47-.09-2.49-.02-4.98-.02-7.97-3.54,2.8-6.53,5.23-9.59,7.56-1.5,1.14-3.26,1.92-4.9.36-1.77-1.67-.96-3.46.2-5.11,4.15-5.88,8.21-11.83,12.53-17.6,1.8-2.4,1.29-4.6.73-7.29-3.25,3.46-6.17,6.66-9.19,9.76-1.37,1.41-3.08,2.57-5,1.04-1.89-1.51-1.12-3.35-.18-5.13,2.65-5.03,4.95-10.27,7.98-15.06,4.09-6.47,4.43-13.02,1.98-20.01-.6-1.71-.95-3.52-1.55-5.79-1.26,1.13-1.88,1.86-2.66,2.34-3.53,2.17-7,4.47-10.71,6.26-1.07.52-3.47-.02-4.18-.93-.7-.9-.6-3.24.11-4.3,3.7-5.5,7.73-10.77,11.59-16.16.51-.72,1.17-1.81.96-2.49-1.53-4.93-3.26-9.8-4.95-14.77-2.74,1.02-5.01,1.95-7.34,2.7-1.97.64-4.11.95-5.24-1.32-1.15-2.32.55-3.69,2.19-4.92,5.65-4.21,10.63-9.01,14.88-14.73,2.7-3.63,1.81-7.18,1.99-10.9-3.72,1.31-7.03,2.72-10.48,3.55-1.23.29-3.26-.45-4.11-1.43-1.31-1.51-.23-3.17,1.1-4.45,4.16-4,8.32-8.01,12.44-12.05.44-.43.94-1.1.93-1.65-.07-2.77-.31-5.54-.5-8.54-2.71,1.36-4.85,2.56-7.1,3.51-1.74.74-3.93,1-4.7-1.03-.48-1.25.04-3.32.84-4.53,1.82-2.75,4-5.28,6.21-7.75,2.83-3.16,2.76-6.6,1.42-10.59-1.68,1.07-3.23,2.09-4.82,3.06-1.9,1.16-3.99,2.48-5.85.24-1.77-2.13-.1-3.86,1.27-5.47,2.15-2.53,4.22-5.12,6.47-7.55,3.57-3.86,2.19-8.42,2.42-13.14-1.25.4-2.04.63-2.82.92-1.78.65-3.59,1.07-4.9-.73-1.4-1.92-.45-3.6.93-5.08,2.2-2.35,4.43-4.68,6.67-6.99,1.49-1.53,2.55-3.19,2.01-5.59-2.2.37-4.25,1.01-6.27.93-1.17-.05-2.78-1.01-3.29-2.02-.44-.86.07-2.62.75-3.54.93-1.25,2.31-2.27,3.7-3.05,6.59-3.7,13.78-6.25,19.68-11.33,2.91-2.51,4.15-3.76,3.1-8.22-.98.24-1.96.46-2.94.72-5.3,1.38-10.58,1.02-15.66-.81-1.26-.45-2.69-2.31-2.75-3.59-.05-.97,1.87-2.14,3.07-3.02.55-.4,1.49-.23,2.2-.46,4.49-1.44,9.09-2.66,13.42-4.5,2.25-.95,4.97-2.63,5.8-4.67,1.63-4.02,2.09-8.52,3.2-13.6-1.63.7-2.46,1.01-3.26,1.4-5.48,2.66-11.27,3.91-17.35,3.63-3.04-.14-4.63-2.66-3.04-4.75.64-.84,1.77-1.36,2.76-1.87,6.93-3.51,13.92-6.88,20.77-10.52,1.23-.65,2.51-2.26,2.72-3.59.88-5.61,1.39-11.28,1.98-16.93.08-.76-.13-1.55-.27-2.99-1.29,1.07-2.06,1.69-2.82,2.34-5.33,4.55-11.05,8.45-18.15,9.46-2.75.39-5.67.16-8.43-.3-1.08-.18-2.61-1.71-2.7-2.74-.11-1.19.92-2.69,1.85-3.69.79-.85,2.13-1.18,3.23-1.72,8.7-4.28,16.36-9.74,22.25-17.66,3.67-4.93,4.92-9.82,2.62-15.59-1.13-2.83-1.99-5.78-3.24-9.49-1.12,1.69-1.67,2.52-2.22,3.35-5.56,8.59-12.83,14.91-23.05,17.23-2.26.51-4.98,1.5-6.21-1.49-1.18-2.87,1.4-3.93,3.27-5.16,5.75-3.75,11.2-7.84,14.94-13.75,4.8-7.59,3.67-16.1-2.9-22.05-1.89-1.72-3.9-3.31-5.9-4.9-.55-.43-1.26-.66-2.18-1.12-.32,1.09-.46,1.91-.79,2.65-1.72,3.77-3.16,7.71-5.33,11.2-2.38,3.86-6.13,6.39-10.37,8.1-1.94.78-3.96,1.36-5.35-.76-1.31-2-.08-3.58,1.34-4.98.61-.6,1.16-1.25,1.79-1.82,7.05-6.34,5.93-14.13,3.9-22.07-.11-.42-.46-.95-.84-1.1-3.42-1.37-6.88-2.66-10.85-4.18,0,1.82-.02,2.64,0,3.47.17,6.28-2.78,11.13-7.28,15.08-.9.79-3.08,1.11-4.03.56-.94-.55-1.3-2.45-1.49-3.82-.13-.95.57-1.98.76-3,.6-3.25,1.39-6.5,1.61-9.78.22-3.32-.83-4.21-4.13-4.32-2.46-.08-4.93-.07-7.39,0-3.65.11-3.66.21-2.88,3.86,2.76,12.88,3.8,25.87,1.96,38.98-.39,2.79-.94,5.7-2.17,8.19-.74,1.5-2.87,3.05-4.47,3.16-1.42.1-3.16-1.58-4.4-2.83-.69-.7-.84-2.1-.94-3.21-.61-6.6-1.01-13.22-1.72-19.81-.95-8.84-2.08-17.65-3.23-26.47-.15-1.15-.82-2.24-1.43-3.81-.32.82-.44.99-.45,1.17-.03.57-.04,1.14-.01,1.7.46,8.62-1.55,16.73-4.97,24.57-.81,1.87-1.87,3.56-4.2,2.86-2.36-.72-2.19-2.79-1.87-4.74.21-1.31.48-2.61.69-3.92,2.04-12.63,1.41-24.78-6.39-35.66-.58-.81-1.02-1.91-1.06-2.89-.09-2.61-1.56-2.9-3.64-2.55-5.1.86-10.03,5.7-11.22,10.81-.97,4.15-2,8.29-3.3,12.34-1.07,3.32-3.27,4.75-5.8,4.38-2.43-.35-4.17-2.24-4.23-5.6-.1-5.2.2-10.4.41-15.6.21-5.01.82-10.03.73-15.03-.13-7.81-2.86-14.64-8.96-19.84-.73-.62-1.6-1.08-2.49-1.66-.21.58-.37.78-.32.91.34.88.71,1.75,1.08,2.62,4.92,11.59,6.16,23.21.29,34.87-1.04,2.07-1.95,4.85-5.03,3.94-3.17-.93-2.22-3.75-1.91-6.03,1.77-13-2.07-24.33-10.15-34.41-.37-.47-.93-.78-1.71-1.43-1.13,4.56-2.09,8.78-3.25,12.94-.6,2.15-1.16,4.58-2.57,6.13-.86.95-3.34.29-5.01.67-2.93.67-4.28-.73-4.91-3.3-1.12-4.51-2.21-9.02-3.32-13.53-.21-.86-.48-1.71-.81-2.91-.72.6-1.12.83-1.4,1.17-7.99,9.85-11.99,20.96-10.57,33.76.15,1.32.59,2.71.3,3.93-.26,1.12-1.15,2.62-2.09,2.91-.95.3-2.38-.53-3.44-1.15-.57-.33-.85-1.22-1.2-1.89-6.28-11.98-5.07-23.95.08-35.9.4-.92.83-1.82,1.25-2.73ZM395.22,251.13c.66.05.85.11,1.03.07.27-.06.55-.15.8-.28,9.33-4.89,18.14-3.34,26.55,2.27,6.08,4.06,10.25,9.79,13.47,16.22.98,1.96,2.02,2.07,4.04,1.63,4.69-1.01,9.47-2.12,14.23-2.18,13.44-.17,25.71,4.33,37.21,10.89,24.8,14.15,41.11,34.37,44.27,63.59.58,5.33,2.01,10.26,4.86,14.68,3.63,5.65,7.36,11.27,11.54,16.51,2.43,3.05,5.53,5.82,8.85,7.86,7.81,4.8,18.31,2.14,22.25-5.5,4.27-8.3,2.5-16.9,1.01-25.92-1.43.6-2.36,1-3.3,1.39-2.01.84-3.97,1.82-6.03,2.5-3.12,1.01-5.68.17-7.04-2.06-1.37-2.26-.85-5.2,1.8-7.32,2.42-1.94,5.12-3.57,7.82-5.11,2.96-1.69,6.09-3.07,9.1-4.68,6.78-3.63,11.71-9.03,14.41-16.22,7.03-18.74,6.4-37.21-4.03-54.43-9.99-16.49-22.96-23.74-41.38-19.68-2.89.64-5.23,1.64-7.45,3.66-3.83,3.49-7.88,6.78-12.08,9.81-1.99,1.44-4.47,1.11-6.12-1-1.54-1.97-1.2-4.1.22-6.05.61-.84,1.29-1.64,2.01-2.39,5.94-6.12,11.95-12.17,17.84-18.33,7.63-7.98,14.58-16.49,18.82-26.84,13.36-32.57-10.87-61.92-33.65-67-16.03-3.58-30.5,1.28-43.84,10.22-2.27,1.52-3,3.28-3.05,6.1-.1,4.98-.85,9.98-1.68,14.91-.45,2.67-2.75,4.06-4.95,3.71-2.21-.36-3.56-2.37-3.44-5.14.02-.47.1-.94.16-1.41,1.05-8.84-.04-17.38-3.51-25.61-4.03-9.58-9.35-18.37-15.66-26.62-12.75-16.65-29.61-22.1-49.82-18.58-4.89.85-9.53,2.42-13.38,5.82-1.97,1.73-2.51,3.38-1.3,5.93,2.55,5.38,3.9,11.08,3.02,17.11-.46,3.19-2.07,4.88-4.55,4.89-2.49.01-3.94-1.74-4.45-4.95-.36-2.33-.7-4.73-1.57-6.89-4.66-11.69-11.46-22-20.8-30.49-2.34-2.13-5.14-3.97-8.05-5.21-4.43-1.89-8.83-2.34-13.54.45-2.05,1.21-5.56.2-8.35-.17-1.97-.27-3.84-1.59-5.8-1.7-5.3-.3-9.79,2.02-13.68,5.38-10.56,9.11-17.95,20.44-22.84,33.43-.59,1.57-.77,3.31-1,5-.46,3.43-1.98,5.23-4.53,5.16-2.51-.07-4.14-1.95-4.52-5.27-.62-5.32.49-10.37,2.44-15.28,2.04-5.13,1.82-5.92-2.75-9.01-1.01-.69-2.08-1.39-3.22-1.78-17.31-5.81-33.79-5.07-48.63,6.7-7.3,5.79-12.57,13.37-17.35,21.25-7.82,12.89-13.46,26.36-10.94,41.97.13.79-.09,1.72-.4,2.49-1.15,2.91-4.65,3.58-6.67,1.18-.81-.96-1.46-2.31-1.61-3.55-.6-4.78-1.16-9.58-1.33-14.38-.08-2.12-.6-3.57-2.27-4.81-10.88-8.07-23.15-11.96-36.63-11.93-3.18,0-6.45.55-9.51,1.43-22.71,6.54-44.84,35.09-32.3,66.25,3.7,9.19,9.5,17.03,16.2,24.2,7.05,7.55,14.35,14.85,21.44,22.36,2.7,2.87,3,5.58,1.31,7.6-1.79,2.14-4.49,2.11-7.96-.12-.8-.51-1.59-1.05-2.29-1.68-2.89-2.59-5.71-5.26-8.64-7.81-1.05-.91-2.22-1.96-3.5-2.29-13.52-3.49-26.03-2.2-36.22,8.45-17.46,18.24-20.44,39.61-13.09,62.99,2.72,8.65,8.47,14.87,16.57,18.95,3.81,1.92,7.64,3.79,11.33,5.93,1.94,1.13,3.73,2.62,5.28,4.24,1.63,1.71,1.89,3.95.72,6.08-1.19,2.16-3.29,3.04-5.57,2.45-2.54-.65-4.96-1.81-7.42-2.77-1.01-.39-2-.83-3.42-1.43-1.46,8.62-2.91,16.73.44,24.76,2.07,4.94,6.02,7.68,11.2,8.66,6.77,1.29,12.31-1.23,16.98-5.9,6.41-6.42,11.45-13.85,15.82-21.77,2.27-4.12,3.65-8.44,4.12-13.17.94-9.5,3.17-18.76,7.81-27.16,14.72-26.65,37.51-42.03,67.29-47.18,6.87-1.19,13.84-.73,20.47,1.75,2.31.87,3.37.3,4.41-1.81,3.33-6.73,7.79-12.58,14.27-16.6,8.01-4.98,16.36-6.25,25.1-1.85.56.28,1.19.41,2.14.73.29-1.47.57-2.72.77-3.98,4.07-25.13,26.13-38.47,50.24-30.45,1.32.44,3.04.47,4.36.04,24.8-8.08,46.84,5.53,50.58,31.32.13.91.32,1.81.49,2.79ZM295.33,93.4c.67-.85,1.32-1.63,1.92-2.44,4.36-5.9,9.14-11.38,15.21-15.6,8.82-6.12,18.02-7.51,27.84-2.37.9.47,2.48.51,3.37.04,10.27-5.42,20.03-3.98,28.68,3.03,5.38,4.36,9.76,9.96,14.57,15.02.68.72,1.26,1.53,1.79,2.18,16.65-15.84,35.75-13.07,55.9-8.3-1.16-1.24-2.01-1.93-2.61-2.8-2.48-3.64-5.03-7.26-7.26-11.05-.99-1.69-.98-3.79.96-5.08,1.99-1.32,3.57-.18,5.01,1.23,1.22,1.19,2.37,2.49,3.73,3.5,3.87,2.87,7.67,5.88,11.79,8.35,3.82,2.29,6.18,2.29,8.33-2.1,1.17-2.39,3.41-3.62,6.17-3,2.9.65,4.11,2.84,4.44,5.59.11.93.08,1.9-.06,2.83-1.02,6.71-6.8,11.16-13.87,10.73-1.04-.06-2.09-.13-3.13-.2-.09.23-.19.46-.28.69,6.92,6.17,12.76,13.26,17.25,21.3,4.48,8.05,8.45,16.39,12.69,24.7.17-.12.57-.34.9-.64,12.85-11.76,28.29-15.75,45.06-13.43,30.63,4.24,53.56,35.13,50.07,66.4-1.56,14.03-7.61,26.06-16.15,37.02-.76.98-1.41,2.06-2.34,3.44,1.32.08,2.06.18,2.8.16,6.32-.19,12.22,1.35,17.73,4.36,10.42,5.68,18.15,14.03,23.1,24.72,9.51,20.53,9.57,41.66,2.81,62.93-2.88,9.08-8.63,16.19-16.91,21.02-2.31,1.35-2.37,2.64-1.7,5.04,1.53,5.54,3.19,11.17,3.66,16.86.97,11.85-4.89,21.56-14.88,26.16-10.91,5.03-23.45,3.33-31.67-4.92-4.04-4.06-7.23-8.97-10.8-13.49-.59-.74-1.19-1.47-1.78-2.2-.24.08-.48.17-.71.25-.41,3.92-.86,7.84-1.19,11.77-.06.7.29,1.5.64,2.15,6.56,12,8.27,24.89,6.61,38.27-.47,3.79-1.86,7.46-2.92,11.53,7.24,1.01,11.96,5.72,15.61,11.99,2.42-2.01,4.43-3.87,6.62-5.46,7.38-5.34,15.4-4.96,22,1.27,2.45,2.31,4.67,5.03,6.37,7.93,2.19,3.74,3.68,7.88,5.62,11.77.48.97,1.44,2.15,2.38,2.36,8.23,1.87,15.85.72,22.22-5.29,10.66-10.07,15.9-22.45,15.39-37.12-.27-7.67-2.65-14.68-7.63-20.7-1.36-1.65-2.73-2.39-4.91-1.62-1.4.49-2.97.67-4.47.65-3.52-.04-6.13-2.18-6.58-5.13-.45-2.98,1.4-5.62,4.96-6.62,9.06-2.52,17.2-6.93,24.99-12.04,14.91-9.77,23.15-23.61,24.94-41.32,1.28-12.64-2.79-22.74-13.87-29.56-2.34-1.44-4.57-3.09-7.03-4.29-1.19-.58-2.87-.71-4.17-.38-2.48.62-4.55.53-5.93-1.84-1.15-1.98-.02-4.08,2.33-5.98,3.6-2.89,7.36-5.72,10.32-9.2,4.71-5.55,9.09-11.43,13.1-17.51,2.85-4.31,5.53-8.96,7.15-13.83,6.54-19.71,4.09-38.98-4.52-57.49-6.61-14.22-17.79-23.55-32.76-28.37-2.29-.74-3.38-.28-4.47,1.82-1.07,2.08-2.52,4.02-4.1,5.75-2.02,2.23-4.66,2.56-6.64,1.21-2.04-1.39-2.59-3.81-1.43-6.61.62-1.49,1.53-2.87,1.98-4.4,1.68-5.7,4.09-11.36,4.65-17.18,1.58-16.28-3.57-30.89-13.2-43.9-8.56-11.56-19.18-20.99-31.57-28.25-4.27-2.5-9.06-4.25-13.8-5.77-3.86-1.24-7.56.07-10.41,2.99-2.04,2.09-3.91,4.38-5.64,6.73-3.37,4.58-6.51,9.33-9.89,13.89-3.84,5.18-6.66,4.94-9.88-.69-.28-.49-.5-1.02-.68-1.56-4.11-12.02-10.37-22.93-17.25-33.53-10.49-16.15-24.42-28.18-42.45-35.04-5.59-2.13-11.62-3.36-17.56-4.24-4.96-.73-9.1,1.74-11.69,6.09-2.17,3.65-4.06,7.49-5.84,11.36-.43.94.04,2.31.14,3.48.26,2.97.86,5.96.72,8.91-.13,2.56-1.86,4.47-4.63,4.54-2.84.08-3.9-1.98-4.83-4.39-1.01-2.59-2.06-5.45-3.93-7.39-20.34-21.01-45.08-30.21-74.27-27.16-2.15.22-4.36.33-6.5.08-28.42-3.31-52.64,5.55-73.17,25.15-2.83,2.7-5.14,5.76-5.9,9.83-.44,2.33-2.06,3.95-4.59,3.88-2.49-.07-4.27-1.71-4.47-4.02-.25-2.94-.09-6.02.53-8.9.4-1.87.72-3.4-.27-5.12-.71-1.23-1.18-2.59-1.79-3.87-5.86-12.34-11.13-14.89-24.29-11.18-14.59,4.11-27.59,11.26-38.15,22.18-13.36,13.81-22.71,30.23-29.7,48.05-.61,1.56-1.38,3.11-2.34,4.49-2.6,3.72-5.14,3.8-7.83.13-3.75-5.12-7.3-10.39-11-15.55-7.68-10.69-13.18-12.13-24.89-5.99-15.28,8.01-28.25,18.95-37.82,33.3-13.03,19.53-16.51,40.28-5.37,62.09.09.17.16.34.24.52,1.33,3.1.82,5.74-1.36,7.11-2.16,1.36-4.9.81-7.04-1.75-1.51-1.8-2.79-3.82-3.94-5.88-.84-1.51-1.68-1.98-3.4-1.44-9.12,2.87-17.24,7.39-23.78,14.44-12.47,13.45-16.91,29.94-17.72,47.72-.59,12.73,1.94,24.79,9.14,35.46,7.34,10.88,14.12,22.32,25.65,29.63,1.84,1.17,2.63,3.09,1.63,5.21-.98,2.1-3.03,3.01-4.98,2.09-2.86-1.35-4.89-.17-7.05,1.26-1.98,1.3-3.97,2.58-5.96,3.87-10.22,6.6-14.08,16.19-13.08,28.02,1.5,17.72,9.4,31.76,24.21,41.74,7.97,5.36,16.35,9.93,25.68,12.55,3.75,1.05,5.56,3.7,5.02,6.85-.52,2.98-3.37,5.07-7.01,4.96-1.4-.05-2.85-.27-4.18-.73-1.93-.66-3.23-.08-4.47,1.4-3.69,4.38-6.14,9.36-7.11,14.98-2.75,16,1.91,29.76,12.91,41.5,6.14,6.56,13.66,8.81,22.48,7.29,2.23-.38,3.4-1.24,4.16-3.47,2.42-7.16,5.91-13.76,11.57-18.98,6.55-6.03,14.51-6.58,21.81-1.46,1.7,1.19,3.19,2.67,4.8,3.99.62.51,1.27.96,2.18,1.64,3.62-6.5,8.54-10.93,15.76-12.06-.19-.81-.23-1.09-.33-1.35-6.11-15.66-4.17-31.11,2.61-45.79,2.81-6.07.42-11.11.35-16.73-.97.58-1.51,1.29-2.05,1.99-3.41,4.41-6.46,9.18-10.31,13.17-8.25,8.53-20.76,10.54-31.81,5.7-10.23-4.49-16.2-13.96-15.35-26.13.42-6.05,2.34-12.02,3.85-17.96.48-1.91.3-2.88-1.44-3.89-9.42-5.45-15.26-13.71-18.34-24.01-3.5-11.69-4.41-23.65-3.12-35.74,1.6-15,6.67-28.6,17.38-39.59,8.51-8.73,18.48-14.45,31.17-14,.49.02.99-.26,1.74-.47-2.75-3.94-5.48-7.55-7.9-11.36-16.25-25.61-13.92-55.23,5.98-76.88,21.49-23.38,55.06-25.42,78.82-4.8.34.3.77.49,1.42.89,6.64-17.65,15.54-33.72,30.12-47.09-2.44.14-3.92.3-5.39.29-7.29-.05-13.15-6.12-12.72-13.16.17-2.76,1.23-5.02,4.07-5.89,2.88-.87,4.94.49,6.57,2.75.28.38.52.79.74,1.21,1.28,2.53,3.27,2.99,5.71,1.91,1.55-.69,3.22-1.3,4.54-2.33,4.32-3.37,8.55-6.87,12.74-10.41,1.53-1.29,3.02-2.56,5.02-1.25,1.95,1.27,1.98,3.4,1.01,5.08-2.21,3.81-4.74,7.43-7.21,11.08-.6.89-1.47,1.59-2.22,2.37.93.35,1.56.31,2.14.11,9.59-3.29,19.45-4.07,29.46-2.83,8.75,1.08,16.91,3.54,22.71,10.86.21.27.61.38,1.15.71ZM564.1,554.39c-2.82,1.42-5.27,2.9-7.91,3.89-2.26.85-4.71,1.41-7.11,1.57-2.15.15-4.14-1.23-4.29-3.37-.12-1.62.82-3.52,1.79-4.96.67-1,2.18-1.43,3.31-2.11,6.92-4.13,14.02-8.08,18.92-14.75,11.38-15.48,18.41-32.9,21.5-51.75,1.75-10.64-1.8-20.26-9.13-28.22-5.39-5.86-9.39-5.94-15.39-.66-3.13,2.75-6.09,5.69-9.15,8.52-3.42,3.16-7.38,4.91-12.12,4.66-1.82-.09-3.5-.52-3.92-2.56-.43-2.1,1.02-3.01,2.7-3.76,1.45-.65,2.95-1.34,4.15-2.35.6-.5,1.06-1.95.77-2.62-2.68-6.31-7.45-10.14-14.25-11.27-.82-.14-1.97.18-2.6.72-3.13,2.65-6.82,3.09-10.46,2.17-4.21-1.07-7.49.31-9.87,3.31-2.43,3.06-4.74,6.49-6,10.14-1.58,4.61-2.24,9.57-2.94,14.43-1.78,12.33.2,24.53,1.63,36.74,1.49,12.82,1.93,25.69,1.6,38.57-.16,6.23-1.09,12.44-1.58,18.66-.13,1.66-.19,3.44.25,5.02,1.97,7.12,4.17,14.18,6.2,21.29.62,2.16,1.27,4.05,3.61,5.06.86.37,1.61,1.67,1.85,2.69,2.51,10.28,8.58,18.7,14.21,27.33.66,1.01,1.56,1.93,2.5,2.69,3.11,2.53,6.55,1.6,7.42-2.31.62-2.81.6-5.83.37-8.72-.1-1.23-1.26-2.59-2.29-3.47-1.79-1.52-4.02-2.52-5.78-4.07-1.8-1.59-2.21-3.82-.93-5.95,1.32-2.18,3.46-2.56,5.74-1.72,1.77.65,3.42,1.63,5.17,2.33,6.42,2.56,11.72,1.46,16.05-3.92,2.22-2.76,4.11-5.97,5.37-9.28,5.06-13.3,5.04-26.86,1.34-40.49-.12-.43-.4-.82-.75-1.51ZM119.95,554.37c-.33.62-.58.92-.67,1.27-3.97,14.63-3.83,29.08,2.31,43.11,1.33,3.05,3.44,5.92,5.75,8.34,3.73,3.92,8.5,4.76,13.61,2.87,2.04-.76,3.94-1.86,5.97-2.65,2.36-.92,4.58-.6,6,1.68,1.43,2.29.74,4.51-1.14,6.13-1.7,1.47-3.77,2.52-5.61,3.84-.81.58-2.07,1.37-2.08,2.08-.06,3.64-.23,7.38.5,10.91.62,3.01,3.75,3.78,6.36,2.02,1.23-.83,2.37-1.94,3.21-3.17,2.31-3.35,4.74-6.68,6.56-10.3,2.78-5.55,5.03-11.37,7.62-17.02.52-1.14,1.53-2.06,2.32-3.08.98-1.28,2.42-2.41,2.88-3.85,2.33-7.31,4.44-14.69,6.54-22.07.35-1.24.59-2.66.38-3.9-2.89-17.16-1.97-34.37-.85-51.58.33-4.99.7-10.01,1.49-14.94,2.38-14.8,2.11-29.44-2.23-43.87-1.31-4.34-3.77-8.05-7.42-10.88-2.27-1.76-4.67-2.31-7.68-1.95-2.97.36-6.65.48-8.98-.96-3.39-2.09-6.09-1.6-9.28-.42-3.98,1.47-6.56,4.35-8.61,7.88-1.99,3.42-1.75,4.38,1.72,6.18.59.3,1.21.54,1.83.76,1.81.67,3.41,1.63,2.96,3.86-.44,2.21-2.32,2.49-4.21,2.55-4.63.17-8.48-1.62-11.81-4.71-3.33-3.09-6.56-6.31-10.04-9.23-5.16-4.34-8.93-4.21-13.68.65-8.02,8.22-11.6,18.21-9.88,29.59,2.13,14.1,7.51,27.17,14.12,39.72,4.46,8.48,10.02,16.09,18.38,21.23,3.47,2.13,6.97,4.21,10.43,6.36,2.22,1.38,3.5,3.33,2.58,5.98-.87,2.51-3.09,3.49-5.48,3.05-2.66-.49-5.25-1.47-7.78-2.47-2.07-.82-4-1.99-6.07-3.04ZM152.55,409.29c-.47.75-.77,1.03-.83,1.35-1.21,6.38-1.82,12.81-.05,19.14.59,2.1,1.93,4.09,3.33,5.81.66.81,2.25.86,3.42,1.26.11-1.12.53-2.32.29-3.36-1.68-7.19-3.49-14.36-5.28-21.52-.19-.77-.49-1.51-.88-2.68ZM531.92,409.24c-.53.84-.79,1.11-.87,1.42-2,7.96-4.01,15.92-5.92,23.91-.16.67.15,1.86.63,2.15.55.33,1.96.2,2.27-.24,1.66-2.33,4.07-4.7,4.39-7.28.69-5.55.29-11.23.27-16.86,0-.86-.41-1.71-.77-3.1Z" style="fill: #000; stroke-width: 0px;"/>
  <path d="M419.15,751.96c-.01,10.68-4.41,17.95-13.93,21.9-1.13.47-2.23,1.04-3.29,1.66-2.49,1.45-3.65,3.18-2.96,6.49,2.5,11.95-5.64,21.33-17.84,20.84-2.73-.11-5.44-.71-8.17-1.01-6.19-.69-12.09.04-17.41,3.62-9.01,6.06-18.07,6.05-27.08,0-5.42-3.64-11.4-4.33-17.69-3.57-2.72.33-5.44.89-8.17.97-11.79.35-19.65-8.77-17.68-20.37.76-4.48.34-5.37-3.79-7.55-1.76-.93-3.61-1.68-5.36-2.61-4.45-2.37-7.67-5.92-9.28-10.69-2.5-7.42-2.13-14.81,1.3-21.84,3.66-7.51,10.9-10.33,19.77-7.66,3.01.9,4.67.53,6.57-2.12,4.22-5.91,10.54-8.49,17.55-8.32,8.88.21,17.73,1.26,26.6,1.86,2.53.17,5.09.18,7.61,0,8.12-.61,16.21-1.66,24.33-1.95,8.59-.31,16.01,2.47,21.13,9.99.51.75,2.38,1.27,3.3.95,13.13-4.47,22.68,2.13,24.27,16.3.14,1.22.17,2.46.22,3.15ZM388.87,767.6c1.69.8,2.3,3.22,4.51,1.57,3.03-2.26,6.01-4.58,9.12-6.72,4.34-3,5.83-7.06,4.8-12.1-.51-2.51-.95-5.36-3.89-6.09-3.26-.81-6.49-.08-8.96,2.31-4.01,3.87-7.89,3.18-10.05-1.99-.47-1.13-.74-2.36-1.31-3.44-2.82-5.29-7.05-8.28-13.27-8-8.6.39-17.21,1.05-25.81,1.04-9.64-.02-19.29-.75-28.93-1-7.87-.21-12.4,3.05-15,10.44-2.15,6.11-5.93,6.99-10.69,2.69-2.38-2.15-5.44-2.77-8.52-2.08-2.86.64-3.42,3.3-3.95,5.72-1.25,5.7.27,9.39,5.08,12.74,2.56,1.78,5.19,3.49,7.6,5.45,2.65,2.16,2.94,2.22,4.58,0-.77-2.71-2.23-5.03-1.82-6.95,1.3-6.25,4.64-8.47,11.16-8.23,3.76.14,7.4.02,10.52-2.47,5.76-4.58,12.25-5.26,19.08-3.22,5.97,1.78,11.81,1.78,17.8.04,5.7-1.66,11.58-2.08,16.65,1.66,4.56,3.36,9.43,4.69,14.92,3.9,5.82-.83,6.9,3.99,8.96,7.48,1.7,2.87-.25,5-2.57,7.25ZM382.43,773.14c-.44.39-1.06.81-1.51,1.36-6.04,7.5-13.74,9.49-22.88,7.12-5.04-1.31-6.06-.91-9,3.46-1.95,2.9-4.25,4.54-7.98,4.29-3.42-.24-4.82-2.66-6.46-4.94-2.42-3.38-3.63-3.89-7.69-3.03-.74.16-1.47.37-2.21.53-8.16,1.79-15.18-.05-20.77-6.5-.72-.84-1.52-1.6-2.29-2.4-3.41,2.46-4.82,5.8-6.38,9.28-2.51,5.6.49,11.37,6.67,11.58,2.54.09,5.1-.24,7.65-.4,8.87-.56,17.45-.17,24.49,6.42,1.7,1.59,3.78,2.47,6.25,1.22.77-.39,2.02-.52,2.74-.16,3.4,1.71,5.62-.39,8.24-1.97,3.19-1.93,6.53-4.09,10.07-4.82,4.47-.91,9.21-.52,13.83-.58,2.55-.03,5.12.41,7.65.22,4.66-.35,8.19-4.98,6.68-9.31-1.45-4.16-2.63-8.73-7.13-11.37ZM342.09,779.77c3.62-6.74,9.16-8.3,15.69-7.43,1.87.25,3.68.89,5.53,1.28,3.02.64,6.09.44,8.24-1.83,2.28-2.42,3.99-5.37,6.35-8.64-7.01.12-11.94-3.47-17.22-6.41-1.75-.97-4.53-1.01-6.55-.44-8.07,2.27-16.01,2.42-24.04-.06-3.17-.98-6.13-.41-8.86,1.61-4.02,2.98-8.44,5.06-13.57,5.27-.31.01-.61.33-1.04.58,1.22,1.73,2.39,3.32,3.49,4.96,3.34,5.01,6.33,6.18,12.04,4.61,7.79-2.14,14.89-1.99,19.95,6.5Z" style="fill: #000; stroke-width: 0px;"/>
  <path d="M468.91,457.52c-.66,15.32-3.33,30.18-7.85,44.75-2.33,7.5-4.02,15.2-6.35,22.69-6.11,19.59-18.56,31.81-39.47,33.24-4.2.29-7.68-1.63-10.7-3.97-5.8-4.5-11.43-9.26-16.78-14.28-5.48-5.15-8.67-11.77-11.39-18.77-5.9-15.15-6.96-30.55-3.62-46.35,1.2-5.68,2.95-11.16,6.71-15.82.55-.68.52-2.13.28-3.1-.5-2.01-1.32-3.95-2.03-5.91-5.41-14.87-2.92-29.5,1.33-44.07.26-.9.72-1.75,1.13-2.6,5.85-11.89,18.34-14.95,28.66-6.6,3.54,2.86,6.22,6.8,9.12,10.4,1.03,1.28,1.67,1.79,3.15.67,12.03-9.04,23.83-4.84,32.02,3.27,7.68,7.61,11.92,17.05,13.72,27.54,1.07,6.23,1.41,12.59,2.07,18.89ZM395.72,462.9c-5.34-.26-9.4,2.29-11.35,7.4-4.07,10.64-5.62,21.65-3.04,32.89.93,4.04,2.75,7.86,4.02,11.83,2.36,7.4,6.4,13.68,12.13,18.9,1.25,1.14,2.53,2.35,3.44,3.75,4.04,6.24,12.63,10.35,19.83,8.48,10.08-2.62,17.05-9.5,21.05-18.8,2.36-5.48,3.01-11.7,4.51-17.56,1.97-7.71,4.06-15.39,5.95-23.11.31-1.25.32-3.08-.38-3.98-2.36-3.05-4.83-6.13-7.75-8.62-13.49-11.55-28.4-17.74-46.35-11.46-.87.3-1.85.26-2.07.29ZM454.98,470.42c.34-1.01.57-1.42.62-1.86,1.28-10.8,1.38-21.55-1.6-32.13-1.84-6.55-4.69-12.61-9.51-17.55-6.69-6.85-12.87-7.2-20.2-.99-.98.83-1.53,2.49-1.72,3.84-.4,2.89-.26,5.85-.67,8.73-.37,2.58-1.59,4.75-4.64,4.88-2.34.1-4.04-1.64-4.71-4.82-.63-2.96-1.07-5.97-1.72-8.92-1.5-6.83-4.99-12.48-10.64-16.6-3.7-2.7-6.85-2.17-9.63,1.45-1.25,1.64-2.3,3.49-3.1,5.39-5.55,13.15-5.33,26.54-1.53,40.07.44,1.56,1.23,1.59,2.67,1.63,2.04.06,4.33.39,6.02,1.43,1.51.93,2.52,1.11,4.1.52,3.36-1.26,6.72-2.82,10.22-3.35,17.39-2.65,31.75,3.46,43.78,15.83.64.66,1.25,1.35,2.27,2.46Z" style="fill: #000; stroke-width: 0px;"/>
  <path d="M309.53,431.73c.1,8.57-2.14,15.72-4.81,22.73-.86,2.28-.76,3.83.76,5.9,5.07,6.89,6.21,15.12,7.28,23.33,2.01,15.36-1.3,29.85-7.63,43.67-3.84,8.38-9.7,15.3-17.68,20.25-1.66,1.03-2.97,2.61-4.45,3.94-5.28,4.75-10.93,7.33-18.55,6.25-18.62-2.63-30.47-16.64-35.2-33.25-2.38-8.38-4.64-16.79-7.05-25.16-5.65-19.61-8.49-39.48-5.13-59.82,1.83-11.1,6.12-21.14,14.47-28.99,6.64-6.24,14.31-9.72,23.6-6.82,2.57.81,5.04,2.2,7.29,3.72,1.83,1.24,2.62,1.24,3.99-.69,2.34-3.3,4.82-6.65,7.87-9.26,11.15-9.58,24.69-6.29,30.29,7.27,3.67,8.89,4.22,18.41,4.95,26.93ZM304.11,494.83c-.47-9.62-1.34-17.14-4.24-24.26-2-4.89-6.13-7.87-10.18-7.82-1.67.02-3.4-.16-5-.6-6.75-1.85-13.53-2.95-20.46-1.2-11.56,2.91-21.04,9.25-29.18,17.8-3.04,3.19-3.96,6.49-2.64,11,2.63,8.98,4.83,18.11,6.73,27.28,1.8,8.7,5.28,16.21,11.84,22.39,7.22,6.8,16.35,8.84,25.34,4.73,2.07-.94,3.9-2.64,5.52-4.3,2.09-2.15,3.69-4.77,5.79-6.9,10.99-11.15,14.54-25.28,16.49-38.13ZM229.17,470.35c1.45-1.57,2.5-2.76,3.6-3.9,13.97-14.44,34.17-18.61,52.73-11,.94.39,2.66.46,3.24-.11,1.99-1.98,4.21-2.51,6.76-1.87,1.81.46,2.38-.42,2.69-1.93.71-3.43,1.67-6.83,2.14-10.29,1.51-11.26.18-22.17-5.14-32.32-3.53-6.74-8.23-7.35-13.61-2.07-4.37,4.29-7.33,9.38-8.48,15.46-.54,2.89-1.06,5.78-1.69,8.64-.53,2.41-1.81,4.3-4.52,4.34-2.88.04-4.28-1.97-4.64-4.49-.43-2.98-.38-6.02-.69-9.02-.12-1.14-.3-2.65-1.05-3.3-7.44-6.43-13.2-6.84-20.05-.44-4.6,4.3-7.51,9.72-9.5,15.64-3.83,11.4-3.86,23.09-2.45,34.86.05.43.3.85.64,1.8Z" style="fill: #000; stroke-width: 0px;"/>
  <path d="M439.33,372.58c-1.58.91-3.22,1.64-4.6,2.7-8.24,6.37-16.55,6.57-26.05,2.2-7.03-3.23-14.81-3.13-19.62,3.4-1.39,1.88-3.2,3.5-5.01,5.02-4.89,4.11-10.46,4.84-15.29,2.17-5.1-2.82-7.91-8.56-6.71-14.76.59-3.03.29-5.56-.89-8.41-3.84-9.27.18-17.37,9.88-19.68,11.36-2.71,22.71-3.08,33.69,1.92.69.31,1.51.54,2,1.06,3.95,4.22,8.32,2.72,12.83,1.19,7.7-2.62,15.43-5.18,23.21-7.56,5.97-1.83,12.12-1.97,18.3-1.21,5.17.63,8.85,2.73,10.07,8.33,1,4.58,3.15,8.93,3.89,13.53,1.5,9.33-3.17,16.38-12.73,20.36-7.64,3.19-15.57,1.02-21.06-5.91-.83-1.04-1.13-2.5-1.93-4.36Z" style="fill: #000; stroke-width: 0px;"/>
  <path d="M244.39,372.23c-1.08,6.13-8.04,11.55-14.43,12.04-11.73.9-22.05-9.69-21.14-21.38.48-6.21,3.16-11.65,5.32-17.27,1.14-2.97,4.02-4.15,7.04-4.69,6.23-1.11,12.51-1.23,18.6.54,8.17,2.37,16.24,5.13,24.34,7.74,1.08.35,2.12.87,3.21,1.13,3.38.78,6.34.89,9.5-1.66,4.26-3.45,9.77-4.86,15.19-4.92,6.68-.08,13.49.07,20.03,1.29,10.82,2.02,14.97,10.72,10.48,20.79-.98,2.21-1.24,4.14-.71,6.52,1.34,5.96-.21,11.14-5.24,14.87-4.66,3.46-10.62,3.3-15.55-.59-2.66-2.09-5-4.63-7.32-7.12-2.51-2.68-5.46-3.93-9.12-3.71-4.07.25-7.99.61-11.78,2.58-7.17,3.72-14.26,3.03-20.98-1.48-2.31-1.55-4.71-2.97-7.43-4.68Z" style="fill: #000; stroke-width: 0px;"/>
  <path d="M380.68,630.54c-.82-.35-1.08-.56-1.32-.55-2.32.12-4.43-.27-5.5-2.62-1.15-2.52,0-4.58,1.55-6.51,2.18-2.74,4.43-5.43,6.49-8.26,2.89-3.97,3.26-8.19.7-12.51-6.36-10.76-12.71-21.52-19.1-32.26-2.52-4.23-5.16-8.39-7.7-12.61-1-1.66-1.53-3.48.43-4.76,1.83-1.2,3.26-.07,4.37,1.37,10.36,13.41,21.27,26.43,29.31,41.49,3.38,6.33,6.26,12.75,3.71,20.01-1.25,3.54-1.46,6.78-.6,10.45,1.35,5.77-.02,11.29-3.09,16.35-3.98,6.56-9.78,11.03-16.75,13.95-6.08,2.55-11.75.74-16.83-5.28-1.41-1.67-2.63-1.92-4.79-1.75-2.48.19-5.17-.57-7.56-1.48-1.45-.55-2.38-.98-3.81.02-2.52,1.76-5.35,2.1-8.42,1.54-1.03-.19-2.63.32-3.31,1.09-7.26,8.11-13.62,9.04-22.77,3.16-5.1-3.28-9.48-7.23-12.29-12.72-2.84-5.56-3.33-11.34-1.87-17.4.37-1.56.45-3.49-.13-4.92-2.82-6.92-2.47-13.67,1.31-19.95,5.51-9.16,11.23-18.2,17.24-27.03,3.99-5.86,8.63-11.28,12.99-16.89.52-.67,1.05-1.54,1.76-1.79.96-.34,2.38-.58,3.09-.11.72.48,1.18,1.92,1.11,2.89-.08,1.04-.84,2.08-1.42,3.04-8.01,13.3-16.22,26.5-24.02,39.92-5.54,9.54-5.01,12.27,2.22,20.79,1.16,1.37,2.61,2.63,3.33,4.22.79,1.77,1.48,3.95,1.16,5.76-.41,2.31-2.73,2.88-4.98,2.85-.36,0-.71.16-1.37.32.48,2.89,1.89,5.17,4.03,6.92.47.38,2.07.15,2.55-.37,4.07-4.35,8.72-5.17,14.22-3.06,1.11.43,2.73-.46,4.12-.75,1.39-.29,3-1.15,4.11-.72.86.33,1.47,2.24,1.54,3.48.1,1.83.93,2.28,2.49,2.27,3.49-.02,6.98-.02,10.47,0,1.62.01,2.29-.56,2.34-2.36.03-1.22.7-3.01,1.61-3.45.96-.46,2.79.02,3.81.72,1.86,1.26,3.41,1.39,5.52.55,4.66-1.84,8.91-.9,12.5,2.69,2.09,2.09,2.87,2.09,4.59-.4,1.14-1.64,1.96-3.5,2.98-5.35Z" style="fill: #000; stroke-width: 0px;"/>
  <path d="M451.13,674.69c-.11-23.13-2.76-45.93-8.73-68.31-.36-1.37-.74-2.77-.81-4.17-.13-2.58.86-4.73,3.43-5.63,2.51-.88,4.9-.13,6.27,2.06,1.43,2.3,2.58,4.86,3.34,7.46,3.74,12.83,4.84,26.05,5.35,39.32.64,16.53-.8,32.94-3.18,49.28-.03.19-.05.38-.08.56-.32,1.94-1.07,3.63-3.38,3.38-2.13-.23-2.62-1.93-2.58-3.79.1-4.45.27-8.9.37-13.35.05-2.27,0-4.55,0-6.82Z" style="fill: #000; stroke-width: 0px;"/>
  <path d="M223.86,660.43c.23-20.44,1-34.44,4.08-48.19.89-3.95,2.12-7.87,3.65-11.62,1.55-3.77,4.69-5.15,7.69-4,2.66,1.02,3.71,3.91,2.96,7.75-2.52,13.01-5.44,25.96-7.38,39.05-2.39,16.15-2.32,32.48-1.67,48.79.03.76.03,1.52.05,2.27.04,2.04-.28,4.02-2.77,4.17-2.3.14-3.01-1.66-3.2-3.59-1.36-13.66-2.69-27.31-3.41-34.64Z" style="fill: #000; stroke-width: 0px;"/>
  <path d="M424.54,646.39c0-9.84-.06-19.69.03-29.53.04-4.73,1.73-7.12,4.7-7.27,2.84-.15,4.64,1.89,5.45,6.46,3.6,20.28,3.99,40.49-1.24,60.59-.21.82-.27,1.86-.8,2.38-.86.85-2.12,1.94-3.1,1.84-.98-.11-2.02-1.43-2.64-2.45-.44-.72-.26-1.84-.3-2.78-.45-9.74-.9-19.49-1.34-29.23-.25,0-.5,0-.76,0Z" style="fill: #000; stroke-width: 0px;"/>
  <path d="M258.82,646.36c-.45,9.46-.9,18.92-1.35,28.38-.04.76-.08,1.51-.13,2.27-.13,1.91-.59,3.73-2.84,3.98-2.42.27-3.32-1.51-3.73-3.48-1.04-4.91-2.24-9.8-2.9-14.76-2.11-15.91-1.23-31.75,1.62-47.51.12-.65.26-1.31.49-1.92.82-2.23,2.27-3.82,4.79-3.7,2.69.12,4.02,1.96,4.46,4.4.3,1.67.36,3.39.37,5.09.03,9.09.02,18.17.02,27.26-.26,0-.53,0-.79,0Z" style="fill: #000; stroke-width: 0px;"/>
  <path d="M419.47,637.95c-1.11,9.29-2.19,18.58-3.34,27.87-.24,1.93-1.11,3.58-3.37,3.45-2.09-.12-2.9-1.74-2.91-3.58-.06-10.19-.22-20.39.04-30.58.12-4.6,2.22-6.68,5.17-6.44,2.83.23,4.16,2.48,4.11,6.96,0,.76,0,1.51,0,2.27.1.01.2.03.3.04Z" style="fill: #000; stroke-width: 0px;"/>
  <path d="M275.16,649.58c-.41,6.73-.69,11.26-.97,15.79-.12,1.94-.66,3.71-2.9,3.88-2.47.19-3.21-1.67-3.43-3.68-1.03-9.68-2-19.36-2.97-29.04-.07-.66-.04-1.32-.03-1.98.05-3.52,1.52-5.62,4.09-5.86,2.67-.25,4.74,1.65,5.09,5.27.58,5.91.86,11.86,1.11,15.62Z" style="fill: #000; stroke-width: 0px;"/>
  <path d="M337.51,105.84c3.01,0,6.03-.12,9.03.04,2.16.11,4.36.36,6.43.94,11.65,3.26,28.02,18.86,28.87,35.63.02.38.07.76.09,1.13.1,3.41-1.19,5.49-3.66,5.9-2.52.42-4.17-1.19-5.52-4.26-2.27-5.18-4.62-10.36-7.44-15.25-5.02-8.68-13.71-12.79-22.32-16.84-.69-.32-1.83,0-2.65.33-15,5.97-24.65,16.8-29.29,32.23-.87,2.88-2.88,4.18-5.23,3.81-2.28-.36-3.91-2.37-3.64-5.31.31-3.37.62-6.88,1.78-10.02,4.39-11.91,12.5-20.67,23.94-26.13,2.92-1.39,6.3-1.83,9.47-2.71l.14.5Z" style="fill: #000; stroke-width: 0px;"/>
  <path d="M532.63,204.71c-.95,3.41-1.65,7.56-3.23,11.34-3.61,8.65-8.93,16.25-15.77,22.69-1.83,1.72-4.02,3.17-6.26,4.33-2.48,1.29-5.03.55-6.32-1.44-1.45-2.24-.93-4.36.71-6.25,2.91-3.36,6.14-6.48,8.77-10.04,3.3-4.48,6.34-9.18,9.1-14.01,2.06-3.61,2.58-7.71,1.57-11.85-1.27-5.25-4.54-8.65-9.76-10.03-4.78-1.26-8.23,1.1-11.19,4.47-1.12,1.28-2.16,2.64-3.15,4.02-1.23,1.7-2.62,3.37-4.88,2.09-2.23-1.26-1.56-3.37-.85-5.31,3.75-10.22,10.06-15.3,18.67-15.02,9.36.3,18.24,7.16,20.99,16.44.75,2.51.98,5.18,1.6,8.56Z" style="fill: #000; stroke-width: 0px;"/>
  <path d="M151.57,203.83c.34-11.76,7.9-21.32,19.05-23.7,7.58-1.62,14.55,1.19,18.64,7.76,1.44,2.31,2.47,4.89,3.57,7.4.77,1.77.95,3.68-1.03,4.75-2.13,1.16-3.52-.24-4.73-1.88-1.18-1.6-2.34-3.23-3.69-4.68-6.4-6.91-16.45-4.92-19.86,3.93-1.86,4.81-1.23,9.54.94,14.06,4.08,8.46,10.04,15.57,16.4,22.37.65.69,1.38,1.32,1.9,2.1,1.25,1.87,1.64,3.88.16,5.81-1.43,1.86-3.47,2.48-5.58,1.58-1.89-.8-3.79-1.84-5.31-3.2-8.5-7.57-14.83-16.69-18.62-27.45-.99-2.82-1.25-5.89-1.84-8.85Z" style="fill: #000; stroke-width: 0px;"/>
  <path d="M227.83,169.41c.17-14.29,3.83-25.5,11.74-35.2,3.1-3.8,6.81-6.83,11.57-8.38,9.66-3.14,19.69,2.47,21.62,14.76.17,1.08-.79,2.94-1.74,3.41-.96.48-2.8.04-3.82-.65-1.77-1.21-3.13-3.02-4.8-4.4-4.64-3.84-8.26-3.73-12.47.58-5.75,5.9-8.91,13.13-9.97,21.22-.76,5.81-1.13,11.68-1.67,17.52-.07.75-.08,1.52-.21,2.26-.44,2.43-1.55,4.42-4.3,4.48-2.7.06-4.2-1.72-4.58-4.2-.66-4.39-1.08-8.82-1.38-11.42Z" style="fill: #000; stroke-width: 0px;"/>
  <path d="M456.45,167.77c-.48,4.13-.88,8.28-1.46,12.39-.45,3.11-2.28,4.92-4.6,4.91-2.4-.01-4.19-2.07-4.49-5.3-.54-5.84-.93-11.7-1.54-17.54-.83-7.92-3.64-15.07-8.78-21.2-5.12-6.1-9.25-6.35-15.13-1.03-1.19,1.08-2.16,2.51-3.52,3.27-1.17.65-3.08,1.18-4.04.64-.95-.54-1.68-2.54-1.53-3.77,1.59-12.61,14.34-18.91,25.38-12.64,4.91,2.79,8.45,6.96,11.4,11.66,5.48,8.73,8.11,18.28,8.32,28.61Z" style="fill: #000; stroke-width: 0px;"/>
  <path d="M559.47,192.71c-.08,6.82-1.96,14.14-5.7,20.85-2.47,4.45-5.43,8.64-8.37,12.81-1.43,2.03-3.63,2.76-6.05,1.67-2.12-.96-3.06-3.4-2.12-6.13,1.46-4.2,3.28-8.27,4.75-12.47,1.44-4.1,2.87-8.23,3.89-12.45,2.33-9.56-.42-17.62-8-23.87-2.99-2.46-6.23-4.61-9.4-6.84-1.63-1.15-3.26-2.37-2.29-4.59,1.05-2.4,3.21-2.11,5.13-1.31,4.8,1.97,9.84,3.6,14.22,6.27,9.27,5.64,13.77,14.29,13.92,26.07Z" style="fill: #000; stroke-width: 0px;"/>
  <path d="M124.68,193.01c.08-12.74,5.28-21.71,15.53-27.45,4.09-2.29,8.69-3.67,13.09-5.37,1.72-.66,3.5-.54,4.44,1.32,1.03,2.04-.25,3.35-1.81,4.5-3.58,2.63-7.32,5.08-10.66,7.99-6.73,5.85-9.3,13.44-7.13,22.03,1.75,6.95,4.44,13.66,6.73,20.46.66,1.97,1.56,3.88,2.07,5.88.59,2.29.11,4.44-2.17,5.61-2.24,1.15-4.38.51-5.88-1.35-8.15-10.09-13.88-21.2-14.2-33.63Z" style="fill: #000; stroke-width: 0px;"/>
  <path d="M368.9,188.87c-.27,1.68-.36,3.4-.84,5.02-.62,2.07-2.1,3.38-4.39,3.39-2.28,0-3.7-1.27-4.44-3.33-.29-.8-.46-1.65-.58-2.49-1.32-9.62-7.5-15.41-15.57-19.64-.65-.34-1.84-.14-2.55.24-8.36,4.38-14.05,10.74-15.32,20.49-.41,3.13-2.32,4.76-4.76,4.75-2.48-.01-4.2-1.7-4.8-4.73-2.53-12.67,7.77-26.46,20.61-27.39,3.92-.28,7.9-.27,11.81.04,11.46.93,20.65,11.57,20.82,23.66Z" style="fill: #000; stroke-width: 0px;"/>
  <path d="M480.59,237.21c-.17,7.02-4.15,14.25-10.31,20.43-1.98,1.99-4.78,2.17-6.43.62-1.99-1.86-1.74-4.03-.59-6.24,1.62-3.1,3.54-6.08,4.81-9.31,3.55-9.01-1.12-20.87-9.74-25.37-3.47-1.81-7.09-1.8-10.79-.96-1.38.31-2.79.97-4.14.87-1.34-.1-3.44-.67-3.73-1.54-.39-1.14.21-3.35,1.17-4.09,6.3-4.9,13.36-6.57,21.08-3.82,10.64,3.79,18.69,15.69,18.67,29.42Z" style="fill: #000; stroke-width: 0px;"/>
  <path d="M203.42,234.24c1.04-11.18,6.2-20.6,17.37-25.84,7.96-3.74,15.56-2.06,22.35,3.17.96.74,1.69,3.07,1.22,4.04-.47.97-2.54,1.48-3.96,1.59-1.35.11-2.76-.54-4.14-.87-6.49-1.56-11.76.44-15.91,5.53-5.9,7.23-7.66,15.08-3.19,23.71,1.17,2.26,2.53,4.43,3.74,6.68,1.14,2.11,1.23,4.2-.66,5.96-1.63,1.52-4.31,1.49-6.2-.35-6.4-6.23-10.41-13.64-10.64-23.61Z" style="fill: #000; stroke-width: 0px;"/>
  <path d="M277.28,206.13c.27,2.15.53,4.31.82,6.46.4,2.98-.61,5.12-2.77,5.87-2.24.78-4.55-.42-5.97-3.1-5.29-9.98-2.83-26.47,5.15-34.56,6.12-6.21,14.43-7.35,21.73-2.58,2.8,1.83,5.13,4.43,7.56,6.79,1.38,1.34,2.09,3.09.77,4.85-1.34,1.79-3.12,1.33-4.88.55-2.5-1.12-4.95-2.41-7.55-3.24-4.95-1.6-8.4-.21-11.11,4.23-2.75,4.51-3.57,9.52-3.74,14.73Z" style="fill: #000; stroke-width: 0px;"/>
  <path d="M417.98,203.25c-.95,3.53-1.87,7.86-3.32,12-1,2.85-3.57,3.96-5.84,3.26-2.24-.7-3.39-3.05-2.81-6.08,1.21-6.29.86-12.45-1.56-18.4-2.88-7.08-7.46-9.01-14.5-6.21-2.02.8-3.94,1.85-5.92,2.73-1.67.75-3.65,1.08-4.5-.75-.54-1.16.16-2.91.36-4.39.03-.24.34-.44.52-.66,5.34-6.08,11.42-10.9,20.13-9.01,8.9,1.93,13.15,8.7,15.53,16.8.92,3.14,1.18,6.48,1.9,10.7Z" style="fill: #000; stroke-width: 0px;"/>
  <path d="M557.92,282.83c14.24.23,23.91,13.39,19.33,26.81-3.2,9.38-9.02,16.48-19.32,18.44-2.68.51-5.65.13-8.38-.39-2.32-.44-3.7-2.29-3.51-4.83.19-2.44,1.83-3.61,4.06-4.1.64-.14,1.31-.2,1.97-.23,8.13-.29,13.1-4.77,15.8-12.09,2.21-6,.39-11.33-5.37-14.11-2.96-1.43-6.48-1.79-9.79-2.38-1.9-.34-3.72-.59-3.87-2.9-.13-2.08,1.37-3,3.19-3.35,1.94-.37,3.92-.6,5.87-.89Z" style="fill: #000; stroke-width: 0px;"/>
  <path d="M126.59,282.84c1.86.3,3.75.53,5.59.94,1.83.4,3.5,1.54,2.89,3.46-.36,1.14-2.11,2.2-3.44,2.58-2.61.74-5.51.59-8.03,1.51-7.64,2.78-10.15,9.3-6.76,16.74,2.93,6.43,7.75,10.13,14.94,10.48.85.04,1.71.1,2.53.31,2.1.55,3.61,1.8,3.78,4.07.17,2.26-1.02,4.12-3.09,4.57-2.81.6-5.85,1.07-8.64.64-11.83-1.85-21.99-15.61-20.65-27.55,1.11-9.92,10.4-17.75,20.88-17.75Z" style="fill: #000; stroke-width: 0px;"/>
  <path d="M216.73,190.17c-.16,12.11-8.64,22.82-18.99,25.38-.37.09-.74.17-1.11.24-3.99.7-6.73-.37-7.75-3.02-1.01-2.64.19-5.3,4-7.18,8.63-4.25,12.25-11.14,11.57-20.54-.03-.38,0-.76-.01-1.14-.03-2.33-.04-4.76,2.68-5.66,2.61-.87,4.28.88,5.81,2.62,2.69,3.06,3.81,6.7,3.8,9.31Z" style="fill: #000; stroke-width: 0px;"/>
  <path d="M259.57,216.51c-.2,6.3-2.4,12.84-7.06,18.43-2.44,2.93-5.44,5.02-9.48,4.96-2.5-.03-4.45-1.08-5.36-3.47-.92-2.41-.24-4.73,1.8-6.08,7.67-5.06,8.53-12.41,7.35-20.56-.35-2.44-.93-4.9-.81-7.32.07-1.46.98-3.57,2.1-4.09,1.14-.52,3.42.09,4.5,1.02,4.87,4.21,6.92,9.8,6.96,17.11Z" style="fill: #000; stroke-width: 0px;"/>
  <path d="M490.72,216.04c-11.54-.2-22.38-11.46-23.19-23.06-.09-1.31-.09-2.66.06-3.96.4-3.72,1.88-7.04,4.82-9.33,1.22-.95,3.44-1.61,4.76-1.15,1.14.41,2.06,2.52,2.34,4.02.43,2.3.18,4.71.3,7.07.33,6.24,3.17,10.97,8.55,14.18,1.54.92,3.12,1.8,4.59,2.83,2.15,1.51,3.12,3.62,2.19,6.17-.9,2.47-3,3.23-4.43,3.23Z" style="fill: #000; stroke-width: 0px;"/>
  <path d="M438.33,201.61c-.5,4.04-.92,7.14-1.27,10.24-.81,7.32.61,13.72,7.2,18.18,2.18,1.48,3.25,3.75,2.16,6.46-1.07,2.67-3.34,3.68-5.96,3.35-1.9-.24-3.93-.89-5.52-1.94-11-7.26-13.75-26.79-5.29-36.79.49-.58.94-1.37,1.57-1.6,1.57-.58,3.44-1.54,4.8-1.11,1.17.37,1.81,2.45,2.3,3.2Z" style="fill: #000; stroke-width: 0px;"/>
  <path d="M354.87,147.18c-1.46-.76-4.21-1.96-6.72-3.53-7.17-4.47-4.7-4.9-12.13,0-2.1,1.38-4.45,2.53-6.84,3.3-2.54.82-4.97.01-6.45-2.34-1.45-2.31-1.1-4.71.4-6.93.42-.62.93-1.19,1.46-1.73,8.59-8.7,26.41-8.68,34.96.07.91.93,1.76,2.03,2.26,3.21,1.73,4.09-1.01,8.02-6.94,7.95Z" style="fill: #000; stroke-width: 0px;"/>
  <path d="M503.95,266.95c-6.37-.03-13.48-5.06-15.4-11.14-.52-1.66-.8-3.61-.46-5.27.28-1.37,1.41-3.23,2.57-3.59,1.3-.4,3.3.26,4.53,1.13,1.9,1.35,3.29,3.39,5.09,4.9,2.76,2.31,4.1,2.03,6.31-.83,1.32-1.71,2.55-3.56,4.14-5,1.87-1.69,4.24-2.16,6.57-.8,2.17,1.26,3.06,3.3,2.83,5.77-.65,6.96-9.29,14.85-16.18,14.82Z" style="fill: #000; stroke-width: 0px;"/>
  <path d="M179.23,266.95c-4.25-.12-8.04-2.62-10.93-6.49-1.56-2.1-2.93-4.42-3.92-6.84-1.16-2.84-.13-5.62,2.06-7.04,2.34-1.52,5.26-1.24,7.5,1.02,1.45,1.46,2.59,3.24,3.86,4.88,1.9,2.45,3.26,2.73,5.7.78,1.69-1.35,3.18-2.96,4.64-4.56,1.44-1.56,3-2.74,5.2-1.94,2.32.84,2.82,2.88,2.9,5.06.25,7.48-8.01,15.18-17.01,15.13Z" style="fill: #000; stroke-width: 0px;"/>
  <path d="M271.73,165.24c-4.2-.14-8.28-2.02-11.44-5.81-1.96-2.36-2.21-5.01-.76-7.06,1.43-2.02,3.99-2.57,6.92-1.49,8.46,3.11,12.61,1.04,15.58-7.47.42-1.2,1.95-2.8,2.96-2.81,1.24,0,3.3,1.27,3.58,2.36.75,2.92,1.47,6.19.9,9.06-1.5,7.66-9.23,13.33-17.75,13.21Z" style="fill: #000; stroke-width: 0px;"/>
  <path d="M560.15,256.19c7.59.5,11.85,3.36,14.36,8.71,1.08,2.3,1.18,4.71-.99,6.47-2.18,1.76-4.42,1.06-6.53-.4-4.54-3.14-7.56-3.09-11.67.64-2.51,2.28-4.67,4.94-6.96,7.45-1.34,1.47-2.8,2.79-4.9,1.71-2.07-1.06-1.99-3.02-1.6-4.97,1.37-6.79,4.75-12.43,10.49-16.26,2.72-1.82,6.1-2.65,7.81-3.37Z" style="fill: #000; stroke-width: 0px;"/>
  <path d="M123.87,256.23c1.53.57,4.48,1.16,6.89,2.65,6.34,3.92,10.1,9.79,11.44,17.15.36,1.95.32,3.9-1.85,4.84-2.03.88-3.38-.37-4.64-1.77-2.28-2.52-4.43-5.19-6.92-7.48-4.08-3.74-7.18-3.8-11.67-.67-2.1,1.47-4.26,2.14-6.52.44-1.91-1.44-2.27-4.02-.93-6.71,2.62-5.29,6.91-8.08,14.21-8.45Z" style="fill: #000; stroke-width: 0px;"/>
  <path d="M412.22,165.26c-9.21-.06-17.12-6.73-17.96-14.87-.25-2.42.32-5.09,1.18-7.4.42-1.15,2.34-2.38,3.58-2.38,1.01,0,2.14,1.7,3,2.81.49.63.48,1.62.8,2.4,2.21,5.52,7.7,7.89,13.23,5.75,4.52-1.75,7.07-1.45,8.66,1.02,1.67,2.59.62,5.83-2.88,8.86-2.99,2.59-6.51,3.76-9.61,3.81Z" style="fill: #000; stroke-width: 0px;"/>
  <path d="M600.66,300.5c-.18,8.85-4.46,15.91-10.04,22.3-.67.76-2.87,1.08-3.69.56-.82-.52-1.33-2.49-1.06-3.59.55-2.17,1.8-4.15,2.65-6.26,1.87-4.57,2.84-9.35,1.56-14.16-.76-2.84-2.25-5.54-3.72-8.13-1.2-2.12-2.15-4.11-.53-6.3,1.69-2.28,4.22-2.52,6.35-1.19,2.16,1.36,4.49,3.17,5.57,5.36,1.71,3.47,2.45,7.43,3.6,11.18l-.7.22Z" style="fill: #000; stroke-width: 0px;"/>
  <path d="M83.4,299.94c.1-4.66,1.14-9.25,4.32-13.03,1.17-1.39,2.83-2.53,4.48-3.32,2.24-1.06,4.53-.73,6.08,1.43,1.5,2.07.96,4.16-.52,6.01-4.83,6.04-5.19,12.82-3.13,19.87.87,2.98,2.54,5.72,3.41,8.7.33,1.14-.19,3.11-1.06,3.84-.63.53-2.97.1-3.65-.68-5.63-6.48-9.85-13.66-9.94-22.81Z" style="fill: #000; stroke-width: 0px;"/>
  <path d="M136.59,350.09c-.71,7.25-4,13.68-10.76,18.07-1.24.8-2.75,1.3-4.2,1.62-2.55.56-4.79-.12-5.97-2.63-1.23-2.61.17-4.43,2.06-6.17,2.07-1.9,4.13-3.88,5.8-6.12,2.11-2.84,2.42-6.09.88-9.42-.96-2.07-1.53-4.24.52-5.99,2.14-1.83,4.48-1.21,6.61.06,3.73,2.21,4.89,5.82,5.06,10.57Z" style="fill: #000; stroke-width: 0px;"/>
  <path d="M547.57,350.45c.1-5.31,1.39-9.13,5.61-11.27,2.03-1.03,4.22-1.36,6.09.39,1.73,1.62,1.31,3.54.57,5.52-2.09,5.63-.2,10.98,5.23,15.06,3.65,2.74,4.6,4.97,3.17,7.45-1.48,2.56-4.9,3.25-8.64,1.27-7.69-4.07-11.21-10.87-12.04-18.42Z" style="fill: #000; stroke-width: 0px;"/>
  <path d="M212.35,149.77c.66-8.84,3.59-15.21,9.37-20.12,1.12-.95,2.66-1.97,3.99-1.95,1.9.04,4.14.56,5.59,1.69,1.85,1.44,1.81,3.88.72,6-.55,1.08-1.32,2.08-2.12,3-4.43,5.04-7.38,10.68-7.9,17.54-.11,1.37-1.59,3.6-2.6,3.7-1.36.13-3.51-1.08-4.2-2.34-1.46-2.66-2.2-5.73-2.85-7.53Z" style="fill: #000; stroke-width: 0px;"/>
  <path d="M471.73,149.95c-.71,1.81-1.7,5.05-3.29,7.96-.58,1.05-2.73,1.94-3.94,1.72-1.01-.18-2.36-2.07-2.42-3.27-.36-7.31-3.61-13.2-8.3-18.53-.85-.97-1.62-2.15-1.99-3.37-1.28-4.25,2.21-7.94,6.51-6.84,1.51.38,3.08,1.14,4.25,2.15,5.63,4.89,8.58,11.14,9.18,20.18Z" style="fill: #000; stroke-width: 0px;"/>
  <path d="M148.16,287.51c0-8.49,10.55-18.12,18.96-17.27,3.47.35,6.4,1.94,8.43,4.7.72.98.94,3.01.4,4.04-.43.82-2.36,1.03-3.65,1.13-.87.06-1.78-.57-2.68-.85-3.9-1.25-7.02.09-9.74,2.88-2.56,2.62-3.5,5.52-1.92,9.04.5,1.11,1.14,2.39.98,3.5-.18,1.34-.83,3.17-1.84,3.7-1,.52-3.01.1-4.05-.64-2.66-1.89-4.89-7.05-4.89-10.21Z" style="fill: #000; stroke-width: 0px;"/>
  <path d="M535.88,288.85c-.08,2.92-2.2,6.19-5,8.93-.82.8-2.96,1.04-4.06.55-.94-.42-1.62-2.22-1.74-3.47-.11-1.22.53-2.57,1.05-3.78,1.48-3.41.64-6.26-1.83-8.83-2.6-2.71-5.61-4.18-9.44-3.14-1,.27-1.99.99-2.95.94-1.37-.08-3.33-.27-3.91-1.16-.58-.89-.26-3.07.51-4.01,2.86-3.51,6.69-5.22,11.31-4.57,7.86,1.1,16.12,10.02,16.06,18.53Z" style="fill: #000; stroke-width: 0px;"/>
  <path d="M399.17,216.23c-1.17,1.43-2.13,3.36-3.7,4.32-1.96,1.2-4.12.23-5.59-1.47-1.42-1.64-2.66-3.45-3.86-5.27-1.88-2.85-4.36-4.68-7.79-5.15-2.08-.29-3.99-.97-4.35-3.37-.35-2.35,1.28-3.58,3.04-4.68,7.51-4.72,15.82-2.41,19.41,5.7,1.29,2.9,1.78,6.14,2.83,9.93Z" style="fill: #000; stroke-width: 0px;"/>
  <path d="M299.69,197.48c2.94,1.35,6.02,2.49,8.75,4.17.98.61,1.76,2.68,1.5,3.84-.25,1.14-1.84,2.65-3,2.81-4.81.67-7.76,3.53-10.18,7.38-.95,1.5-2.05,3.01-3.41,4.12-2.9,2.37-6.69,1.07-7.62-2.44-1.65-6.2,3.46-16.2,9.47-18.4,1.31-.48,2.74-.64,4.12-.94.12-.18.24-.36.37-.55Z" style="fill: #000; stroke-width: 0px;"/>
  <path d="M433.95,115.94c-.65-.12-1.33-.15-1.95-.37-4.21-1.45-8.4-1.06-12.59.05-1.19.31-2.39.95-3.56.91-1.48-.06-3.64-.22-4.22-1.14-.7-1.11-.57-3.37.12-4.62,3.52-6.36,11.89-9.28,19.34-6.67,2.41.84,4.85,2.33,6.57,4.17.99,1.05,1.16,3.65.6,5.13-.5,1.32-2.53,2.06-3.88,3.06-.15-.18-.29-.35-.44-.53Z" style="fill: #000; stroke-width: 0px;"/>
  <path d="M258.42,103.19c5.83.06,10.69,2.27,13.76,7.4.76,1.27.91,3.68.18,4.83-.59.93-3.08,1.35-4.45.99-5.56-1.49-11.01-2.57-16.73-.69-2.23.73-4.42-.06-5.53-2.34-1.07-2.2-.51-4.27,1.28-5.92,3.22-2.98,7.12-4.18,11.5-4.27Z" style="fill: #000; stroke-width: 0px;"/>
  <path d="M182.8,161.72c-.06.43-.1,1.39-.32,2.3-.49,2.08-1.22,4.08-3.63,4.6-2.32.51-3.6-1.06-4.95-2.6-1.62-1.84-3.39-3.54-5.1-5.3-.92-.94-1.97-1.78-2.78-2.82-1.94-2.47-2.05-5.72-.42-7.9,1.65-2.2,4.69-3,7.71-2.01,5.34,1.74,9.52,7.56,9.5,13.72Z" style="fill: #000; stroke-width: 0px;"/>
  <path d="M501.01,161.36c.25-5.8,4.63-11.77,10.05-13.41,3.02-.91,5.99-.02,7.62,2.29,1.6,2.25,1.48,5.48-.69,7.87-2.98,3.28-6.13,6.43-9.33,9.49-2.07,1.97-4.93,1.45-6.15-1.12-.75-1.59-1.01-3.4-1.49-5.11Z" style="fill: #000; stroke-width: 0px;"/>
  <path d="M306.94,169.88c-3.71-.12-6.8-1.3-9.11-4.13-1.56-1.92-2-4.1-.86-6.36,1.12-2.22,3.17-2.88,5.5-2.69,4.78.39,9.57.78,14.34,1.28,3.2.33,4.47,3.36,2.32,5.79-3.25,3.67-7.26,6.01-12.2,6.11Z" style="fill: #000; stroke-width: 0px;"/>
  <path d="M371.27,158.33c2.88-.45,5.76-.84,8.62-1.38,3.69-.7,6.1.1,7.35,2.62,1.26,2.53.35,5.36-2.46,7.7-3.86,3.2-9.6,3.54-14.61.65-1.78-1.02-3.55-2.28-4.86-3.82-.83-.97-1.42-2.92-.98-3.96.44-1.04,2.21-1.7,3.53-2.14,1.02-.34,2.24-.07,3.37-.07.02.13.03.26.05.4Z" style="fill: #000; stroke-width: 0px;"/>
  <path d="M248.12,172.63c.1-.45.21-1.7.64-2.82.77-2.01,2.36-3.6,4.49-3.14,1.62.35,3.68,1.53,4.35,2.92,1.74,3.63,2.97,7.54,4.09,11.42.3,1.04-.15,2.86-.93,3.51-.9.75-2.67,1.06-3.85.75-5.26-1.39-8.84-6.4-8.79-12.64Z" style="fill: #000; stroke-width: 0px;"/>
  <path d="M435.96,173.51c0,5.37-3.45,10.25-8.65,11.69-1.25.35-3.36.1-4.06-.73-.81-.96-.93-2.98-.59-4.34.69-2.73,2.08-5.27,2.85-7.99,1.16-4.09,3.01-5.98,5.94-5.55,2.83.42,4.52,3,4.52,6.92Z" style="fill: #000; stroke-width: 0px;"/>
  <path d="M536.76,298.34c.97-1.3,1.64-3.12,2.68-3.37,1.22-.29,3.28.38,4.08,1.37,1.77,2.18,3.41,3.76,6.51,3.64,2.11-.08,3.74,1.34,4.18,3.59.45,2.33-.64,4.05-2.53,5.27-3.83,2.47-9.48,1.3-11.98-2.83-1.33-2.19-1.89-4.84-2.94-7.67Z" style="fill: #000; stroke-width: 0px;"/>
  <path d="M135.94,310.07c-.7-.25-2.29-.6-3.66-1.36-2.01-1.12-2.84-3.03-2.33-5.31.5-2.21,2.18-3.54,4.28-3.48,2.85.09,4.4-1.28,6.06-3.31.87-1.07,3.13-2.05,4.18-1.63,1.09.44,2.1,2.63,2.08,4.03-.1,6.58-4.28,11.14-10.61,11.06Z" style="fill: #000; stroke-width: 0px;"/>
  <path d="M406.45,240.53c-1.47-.95-3.45-1.59-4.3-2.93-1.27-2.02.37-3.67,1.92-5.05,1.83-1.64,3.6-3.34,5.41-5,2.36-2.15,5.2-2.54,7.21-1.02,2.11,1.6,2.6,4.65,1.04,7.47-2.35,4.26-6.26,5.78-11.28,6.52Z" style="fill: #000; stroke-width: 0px;"/>
  <path d="M277.27,240.58c-5.13-.91-9.02-2.64-11.15-7.15-1.29-2.73-.69-5.39,1.34-6.89,2-1.47,4.71-1.17,6.97.85,1.82,1.63,3.56,3.37,5.38,5,1.61,1.44,3.4,3.13,2.04,5.24-.89,1.39-3.01,1.99-4.58,2.94Z" style="fill: #000; stroke-width: 0px;"/>
  <path d="M453.41,66.54c1.05-4.48,1.6-9.15,3.26-13.4,2.58-6.62,8.91-9.18,15.64-6.89,2.04.69,4.08,1.65,5.81,2.91,8.32,6.04,14.94,13.56,17.7,23.63,1.04,3.78.82,8.04.46,12.01-.31,3.49-2.73,5.35-5.34,5.24-2.62-.11-4.52-2.16-4.84-5.73-.95-10.46-6.49-18.37-13.76-25.37-.07-.07-.14-.13-.21-.19-4.69-3.97-6.98-3.47-9.22,2.28-1.12,2.9-1.84,5.96-2.63,8.98-.52,1.96-1.21,3.85-3.62,3.57-2.44-.29-2.65-2.34-2.65-4.34,0-.85,0-1.7,0-2.56l-.61-.15Z" style="fill: #000; stroke-width: 0px;"/>
  <path d="M229.99,66.24c0,1.04,0,2.08,0,3.12-.02,2.01-.3,4.01-2.77,4.22-2.25.19-3.01-1.54-3.44-3.43-.33-1.48-.63-2.97-1.07-4.41-.61-1.99-1.21-4-2.06-5.88-1.94-4.27-3.85-4.7-7.68-1.88-.76.56-1.49,1.18-2.15,1.84-6.91,6.95-12.02,14.81-12.9,24.91-.27,3.09-2.24,5.11-4.64,5.3-2.42.19-4.52-1.49-5.38-4.55-1.53-5.42-.86-10.74,1.34-15.82,3.82-8.81,9.74-15.95,17.81-21.2,1.49-.97,3.17-1.73,4.86-2.28,6.64-2.18,12.88.31,15.45,6.79,1.64,4.14,2.18,8.72,3.22,13.11l-.58.14Z" style="fill: #000; stroke-width: 0px;"/>
  <path d="M600.67,137.73c-.51,2.09-1.13,5.34-2.11,8.47-.96,3.08-3.32,4.6-5.64,4.08-2.39-.53-3.83-2.74-3.5-6.03.95-9.47-1.56-18.01-6.62-25.9-.97-1.51-2.12-2.9-3.3-4.26-2.97-3.42-6.7-4.43-11.04-3.21-1.64.46-3.27.96-4.89,1.5-1.85.61-3.66.74-4.83-1.09-1.25-1.96-.23-3.58,1.17-5.05,5.46-5.73,13.48-7.25,20.55-3.49,2.63,1.4,5.16,3.28,7.19,5.45,7.45,7.95,12.37,17.15,13.03,29.52Z" style="fill: #000; stroke-width: 0px;"/>
  <path d="M83.28,137.13c1.66-14.37,7.38-25.75,18.89-33.57,7.25-4.93,16.13-3.49,21.99,2.71,1.4,1.48,2.37,3.1,1.08,5.05-1.21,1.82-3.01,1.67-4.83,1.03-.45-.16-.9-.31-1.34-.45-8.78-2.87-12.46-1.65-17.51,6.06-5.06,7.74-7.76,16.16-6.93,25.52.05.56.1,1.13.08,1.7-.06,2.5-.94,4.56-3.61,5.07-2.63.5-4.52-.96-5.29-3.3-1.11-3.38-1.8-6.91-2.53-9.83Z" style="fill: #000; stroke-width: 0px;"/>
  <path d="M164.62,102.75c1.14-3.66,2-7.44,3.5-10.95,1.27-2.97,4.38-4.16,7.06-3.47,2.75.72,4.54,3.13,4.61,6.43.03,1.32-.17,2.64-.3,3.96-.54,5.41.54,6.31,5.59,4.08,3.45-1.52,6.68-3.55,9.99-5.37.91-.5,1.74-1.36,2.7-1.52,1.2-.2,2.84-.28,3.65.38.8.65,1.37,2.49,1.04,3.47-3.37,10.11-14.29,19.29-24.38,18.54-7.63-.57-12.77-6.68-13.46-15.55Z" style="fill: #000; stroke-width: 0px;"/>
  <path d="M518.84,102.87c.02,12-9.54,18.56-20.7,14.1-7.69-3.07-12.97-8.72-16.21-16.23-.52-1.2-.29-3.65.53-4.26,1.02-.76,3.27-.75,4.55-.15,4.35,2.05,8.4,4.76,12.78,6.73,4.17,1.88,5.21.91,4.91-3.7-.1-1.6-.33-3.21-.29-4.81.09-3.18,1.82-5.48,4.49-6.19,2.58-.7,5.7.36,6.94,3.14,1.58,3.56,2.51,7.41,3.72,11.14-.24.08-.48.15-.72.23Z" style="fill: #000; stroke-width: 0px;"/>
  <path d="M356.74,43.27c.93-9.76,7.11-14.89,16.01-12.48,12.07,3.27,20.89,10.81,26.15,22.24.89,1.93,1.24,4.18,1.48,6.32.34,3.1-.99,5.22-3.29,5.91-2.31.69-4.51-.39-6-3.14-3.74-6.87-8.84-12.5-15.25-16.95-1.39-.97-2.89-1.81-4.42-2.55-4.01-1.92-5.12-1.59-7.39,2.16-.98,1.63-2.23,3.41-4.17,2.46-1.36-.67-2.1-2.61-3.12-3.98Z" style="fill: #000; stroke-width: 0px;"/>
  <path d="M327.27,43.29c-1.03,1.37-1.78,3.3-3.14,3.96-1.95.94-3.18-.87-4.15-2.49-2.21-3.69-3.27-4.09-7.12-2.21-8.34,4.09-14.46,10.54-19.22,18.4-.44.73-.77,1.54-1.29,2.2-1.37,1.74-3.06,2.92-5.4,2.14-2.25-.75-3.59-2.62-3.24-4.8.54-3.41,1.13-7.03,2.73-10.01,5.04-9.38,12.9-15.78,22.98-19.18,2.43-.82,5.25-1.09,7.8-.79,5.95.69,9.22,5.24,10.04,12.78Z" style="fill: #000; stroke-width: 0px;"/>
  <path d="M649.3,345.44c-.27,6.98-2.53,13.16-9.52,16.29-7.26,3.25-13.73.62-19.59-3.8-.9-.68-1.51-2.91-1.06-3.86.45-.97,2.37-1.71,3.66-1.74,2.24-.05,4.49.71,6.75.79,6.11.2,8.75-2.84,7.72-8.91-.8-4.68-2.56-8.89-6.49-11.94-2.09-1.62-3.35-3.75-2.09-6.45,1.22-2.61,3.58-3.22,6.22-2.92,3.96.45,6.78,2.78,9.05,5.84,3.62,4.89,5.15,10.49,5.37,16.71Z" style="fill: #000; stroke-width: 0px;"/>
  <path d="M34.84,345.03c.25-6.33,1.93-12.06,5.86-16.97,2.18-2.73,4.89-4.76,8.51-5.17,2.64-.3,4.99.31,6.19,2.94,1.22,2.69,0,4.8-2.09,6.45-4.23,3.34-6.04,7.94-6.57,13.06-.54,5.14,1.83,7.73,6.97,7.75,2.34,0,4.7-.76,7.03-.68,1.48.06,3.45.64,4.26,1.7,1.23,1.6-.06,3.23-1.57,4.26-6.25,4.27-12.89,6.77-20.17,2.83-6.36-3.44-8.31-9.45-8.42-16.17Z" style="fill: #000; stroke-width: 0px;"/>
  <path d="M647.74,234.23c-.22,6.12-2.38,12.36-6.91,17.7-.49.58-1.01,1.13-1.57,1.64-3.13,2.84-6.21,3.34-8.36,1.38-2-1.82-1.63-4.33.33-8,1.81-3.39,3.61-6.96,4.4-10.67,1.91-8.95-3.81-16.43-12.87-17.58-.47-.06-1.07.08-1.39-.16-1.19-.89-3.08-1.81-3.2-2.89-.11-1.04,1.4-2.89,2.59-3.36,8.93-3.46,18.73.11,23.65,8.35,2.35,3.93,3.36,8.21,3.33,13.59Z" style="fill: #000; stroke-width: 0px;"/>
  <path d="M57.48,211.01c1.46.31,3.96.57,6.21,1.45,1.03.4,2.24,2.08,2.18,3.1-.07,1.01-1.55,2.05-2.59,2.83-.53.39-1.46.25-2.21.35-8.28,1.06-13.99,7.82-12.74,16.09.62,4.08,2.77,7.94,4.3,11.87.37.95,1.14,1.75,1.54,2.7.84,1.99.88,4.23-1.02,5.37-1.41.85-3.47.91-5.21.81-.98-.05-1.98-1.03-2.83-1.77-8.89-7.75-11.45-22.91-5.49-33.03,3.75-6.36,9.42-9.63,17.84-9.76Z" style="fill: #000; stroke-width: 0px;"/>
  <path d="M596.46,216.41c.3-6.32,1.75-12.07,6.41-16.6,3.06-2.98,6.75-4.71,11.04-4.06,1.43.22,3.28,1.46,3.79,2.71.44,1.08-.4,3.07-1.26,4.22-1.86,2.48-4.31,4.52-6.12,7.04-2.64,3.68-3.6,7.89-2.53,12.4.84,3.52,2.67,5.13,6.24,5.61.56.08,1.13.11,1.69.2,2.36.39,4.12,1.6,4.58,4.02.47,2.51-.69,4.39-2.83,5.7-4.04,2.47-10.26,1.91-13.81-2.11-2.42-2.73-4.19-6.25-5.5-9.69-1.12-2.94-1.16-6.28-1.68-9.45Z" style="fill: #000; stroke-width: 0px;"/>
  <path d="M87.96,217.07c-1.17,4.32-2.06,9.18-3.84,13.69-1.79,4.55-5.54,7.37-10.51,8.17-3.04.49-5.9-.08-8.2-2.24-3.06-2.86-1.98-7.3,2.01-8.52.36-.11.74-.18,1.11-.24,6.6-1.17,8.77-4.03,8.08-10.74-.56-5.43-3.7-9.41-7.47-13.01-1.77-1.69-4.16-3.24-2.75-6.15,1.45-2.98,4.38-2.68,7-2.23,6.19,1.07,10.11,5.06,12.21,10.7,1.17,3.14,1.5,6.58,2.37,10.58Z" style="fill: #000; stroke-width: 0px;"/>
  <path d="M573.21,411.64c6.68-.05,12.18,4.51,12.97,10.74.38,2.98-.52,5.48-2.99,7.19-2.45,1.7-5.16,1.53-7.45-.17-2.41-1.79-4.39-1.42-6.71.07-2.94,1.89-5.96,3.7-9.11,5.18-3.18,1.49-6.15-.4-5.83-3.67.9-9.27,9.24-19.27,19.12-19.33Z" style="fill: #000; stroke-width: 0px;"/>
  <path d="M564.12,133.06c-10.25-.9-17.41-4.4-22.03-12.08-2.25-3.74-2.64-7.82.07-11.5.93-1.26,2.96-2.56,4.33-2.41,1.31.15,3.02,1.95,3.5,3.38,2.03,5.95,6.71,7.59,12.17,8.1,2.16.2,4.35-.07,6.53,0,3.38.09,5.76,1.74,6.46,4.54.74,2.96-.43,5.45-2.95,6.77-2.94,1.54-6.2,2.48-8.08,3.2Z" style="fill: #000; stroke-width: 0px;"/>
  <path d="M111.64,411.63c5.06.19,9.84,2.79,13.19,7.46,2.05,2.86,3.39,6.28,4.75,9.58.81,1.96.86,4.17-1.12,5.7-1.88,1.46-3.8.75-5.58-.26-2.72-1.54-5.42-3.1-8.04-4.8-2.13-1.38-4-1.65-6.23-.04-2.38,1.72-5.1,2.03-7.7.25-2.67-1.83-3.27-4.5-2.83-7.52.87-5.96,6.28-10.35,13.56-10.37Z" style="fill: #000; stroke-width: 0px;"/>
  <path d="M122.05,132.85c-4.3-.15-7.87-.89-10.82-3.45-2.04-1.77-2.92-3.96-2.11-6.61.82-2.68,2.88-3.94,5.53-4.18,1.78-.16,3.62.22,5.38-.04,2.96-.43,5.97-.9,8.79-1.86,2.73-.93,4.1-3.34,5.18-6.04.59-1.47,2.09-3.45,3.33-3.57,1.48-.14,3.54,1.13,4.61,2.41,2.67,3.19,2.42,8.28-.46,12.48-4.78,6.96-11.62,10.3-19.41,10.85Z" style="fill: #000; stroke-width: 0px;"/>
  <path d="M50.99,288.55c-7.79-.18-14.97-6.15-16.32-12.93-.44-2.23.11-4.2,1.95-5.58,1.88-1.41,3.97-1.25,5.86-.02,1.5.97,2.77,2.29,4.21,3.36,3.23,2.39,5.55,2.38,8.28-.53,2.19-2.33,4-5.02,5.91-7.6,1.13-1.53,2.32-2.93,4.44-2.16,2.1.77,2.39,2.64,1.95,4.49-.9,3.86-1.58,7.85-3.12,11.46-2.54,5.97-7.33,9.23-13.15,9.52Z" style="fill: #000; stroke-width: 0px;"/>
  <path d="M633.27,288.53c-5.11-.2-9.79-2.63-12.2-7.65-2.09-4.36-3.18-9.24-4.27-14-.25-1.08,1-3.17,2.09-3.69.86-.41,2.88.55,3.76,1.49,1.85,2,3.16,4.49,4.93,6.58,4.1,4.84,6.68,4.97,11.44.83.71-.62,1.39-1.3,2.17-1.83,1.95-1.31,4.05-1.72,6.12-.33,2.04,1.37,2.54,3.43,2.09,5.77-1.32,6.75-8.67,12.81-16.13,12.83Z" style="fill: #000; stroke-width: 0px;"/>
  <path d="M621.02,431.77c0,8.27-6.46,15.02-14.81,14.66-3.76-.16-7.53-1.62-11.13-2.93-.96-.35-2.03-2.57-1.74-3.53.3-.97,2.18-1.9,3.45-2.02,2.13-.21,4.33.38,6.5.36,4.08-.04,6.85-1.83,7.67-4.69.81-2.83-.56-6.02-3.7-8.28-1.22-.88-2.66-1.46-3.91-2.29-1.89-1.26-3.04-2.96-2.18-5.31.91-2.46,2.96-3.04,5.33-2.69,7.63,1.11,14.52,9.07,14.53,16.72Z" style="fill: #000; stroke-width: 0px;"/>
  <path d="M81.87,438.38c1.98-.18,3.98-.64,5.92-.44,1.08.11,2.52,1.09,2.92,2.04.33.77-.32,2.47-1.08,3.12-5.06,4.38-15.57,4.52-20.81.46-6.53-5.06-7.69-14.17-2.64-21.06,2.6-3.55,6.12-5.88,10.28-7.21,2.94-.94,5.33-.06,6.34,2.16,1,2.22-.06,4.42-2.79,6.03-1.54.91-3.14,1.79-4.45,2.97-2.16,1.95-3.34,4.42-2.34,7.38,1.01,2.99,3.5,4.04,6.38,4.4.75.1,1.51.09,2.27.14Z" style="fill: #000; stroke-width: 0px;"/>
  <path d="M667.45,240.69c-.3,10.5-6.6,16.15-14.87,18.84-1.04.34-3.19-.27-3.61-1.08-.53-1.01-.32-3.31.47-3.96,6.87-5.72,8.15-12.49,4.79-20.58-.96-2.31-.42-4.75,2-6.2,2.38-1.42,4.63-.74,6.5.99,3.58,3.31,4.53,7.71,4.73,11.99Z" style="fill: #000; stroke-width: 0px;"/>
  <path d="M16.71,239.92c.03-2.88.92-6.52,3.25-9.69,2.23-3.03,5.32-4.02,7.86-2.59,2.35,1.33,3.06,4.05,1.68,7.55-2.78,7.06-1.7,13.15,4.15,18.22,1.56,1.35,3.04,2.95,1.54,5.1-1.46,2.09-3.49,1.32-5.39.52-8.54-3.58-13.09-9.87-13.09-19.12Z" style="fill: #000; stroke-width: 0px;"/>
  <path d="M70.63,332.96c-.02,2.5-.75,5.58-3.11,8.06-2.35,2.46-5.96,3.11-8.23,1.51-2.17-1.52-2.5-3.93-.91-7.39,1.77-3.86.82-7.48-1.2-10.8-1.41-2.31-3.37-4.3-5.16-6.36-1.2-1.37-2.15-2.79-1.08-4.56,1.12-1.87,2.89-1.8,4.77-1.28,8.38,2.34,14.87,11.01,14.93,20.82Z" style="fill: #000; stroke-width: 0px;"/>
  <path d="M613.5,332.8c.14-9.57,6.13-17.83,14.27-20.48,1.99-.65,4.03-1.08,5.31,1.09,1.2,2.03-.16,3.49-1.44,5.01-1.88,2.23-3.87,4.46-5.27,6.99-1.79,3.24-2.24,6.77-.4,10.34,1.17,2.26,1.33,4.64-.86,6.47-2.19,1.83-4.64,1.52-6.88.12-3.8-2.38-4.69-6.19-4.74-9.53Z" style="fill: #000; stroke-width: 0px;"/>
  <path d="M321.1,67.2c-2.92-.98-5.68-1.64-8.17-2.84-2.1-1.01-3.13-3.06-2.53-5.48.6-2.43,2.46-3.45,4.82-3.7.56-.06,1.13-.06,1.7-.05,6.09.1,11.02-2.19,14.73-7.07,1.27-1.66,2.8-2.99,5.06-2.1,2.21.86,2.56,2.87,2.52,4.94-.12,6.11-3.25,10.45-8.49,13.08-2.97,1.49-6.35,2.15-9.64,3.22Z" style="fill: #000; stroke-width: 0px;"/>
  <path d="M78.33,387.48c-.08.86.08,1.75-.27,2.33-.73,1.21-1.56,2.89-2.66,3.17-1.11.29-3.09-.51-3.82-1.48-1.86-2.47-3.31-5.26-4.77-8.01-1.23-2.3-2.3-3.93-5.61-3.23-4.1.86-6.99-2.84-6.01-6.95,1.11-4.69,6.25-7.74,11.05-6.2,1.97.64,4.04,1.86,5.39,3.4,4.24,4.83,6.39,10.62,6.7,16.97Z" style="fill: #000; stroke-width: 0px;"/>
  <path d="M363.78,66.65c-7.12-.3-12.72-2.55-16.6-8.14-1.97-2.83-2.79-6.02-2.22-9.43.56-3.41,3.78-4.47,6.36-2.19.49.43.91.96,1.32,1.48,3.6,4.52,8.29,6.7,14.04,6.77,4.51.05,6.67,1.36,7.07,4.12.43,2.97-1.66,5.45-5.76,6.62-1.53.44-3.14.58-4.22.77Z" style="fill: #000; stroke-width: 0px;"/>
  <path d="M605.75,386.63c.56-5.91,2.63-11.82,7.15-16.6,4.11-4.34,10.39-4.4,14.11-.36,2.1,2.28,2.75,5.52,1.45,7.85-1.51,2.72-3.95,3.39-6.79,2.65-1.76-.46-2.66.36-3.42,1.71-1.47,2.64-2.87,5.32-4.45,7.89-1.18,1.93-2.49,4.16-5.28,3.33-2.91-.86-2.7-3.51-2.77-6.47Z" style="fill: #000; stroke-width: 0px;"/>
  <path d="M421.53,66.26c.01,11.22-11.24,15.24-19.84,11.75-2.65-1.07-2.87-4.2-.57-6.01,1.32-1.04,2.87-1.84,4.4-2.56,3.11-1.45,4.23-3.83,3.72-7.15-.21-1.4-.37-2.82-.35-4.23.03-2.14.89-3.9,3.02-4.69,2.22-.82,4.08-.06,5.62,1.6,2.2,2.35,3.98,7.42,3.99,11.28Z" style="fill: #000; stroke-width: 0px;"/>
  <path d="M276.75,79.22c-9.8-.09-15.65-7.03-13.81-15.89.56-2.71,1.84-5.36,3.24-7.78,1.21-2.1,3.38-3.11,5.88-2.21,2.49.9,3.72,3.08,3.12,5.42-1.65,6.46.92,10.21,6.76,12.67,1.17.49,2.44,2.77,2.23,3.97-.21,1.24-2.03,2.49-3.43,3.14-1.4.65-3.14.55-3.98.68Z" style="fill: #000; stroke-width: 0px;"/>
  <path d="M598.63,174.51c-2.52-.05-5.61-1.33-7.71-4.08-2.17-2.84-4.08-5.93-5.63-9.14-.52-1.08-.03-3.34.84-4.17.7-.67,2.69-.05,4.09.12.41.05.76.53,1.15.81q5.29,3.87,10.43.17c2.27-1.63,4.67-2.09,7.17-.61,2.32,1.38,3.24,3.97,2.6,6.96-1.21,5.68-6.34,9.96-12.93,9.94Z" style="fill: #000; stroke-width: 0px;"/>
  <path d="M84.51,174.52c-5.88.02-11.49-4.98-12.04-10.74-.24-2.53.37-4.75,2.64-6.15,2.35-1.45,4.7-1.05,6.94.38.16.1.32.2.47.32q4.92,3.62,9.93-.08c.83-.61,1.68-1.28,2.63-1.63,2.28-.83,4.23.67,4.18,3.07-.13,6.23-8.66,14.81-14.74,14.83Z" style="fill: #000; stroke-width: 0px;"/>
  <path d="M49.84,198.33c-1.38.65-2.98,1.05-4.09,2.01-2.28,1.98-4.3,4.26-6.42,6.41-2.39,2.42-4.93,3.08-7.1,1.75-2.62-1.61-2.82-4.12-2.15-6.76,1.41-5.53,4.2-10.17,9.31-13.01,5.79-3.22,12.23-1.49,14.77,4.06.62,1.35.77,3.47.12,4.69-.55,1.04-2.57,1.31-3.94,1.92-.16-.36-.33-.71-.49-1.07Z" style="fill: #000; stroke-width: 0px;"/>
  <path d="M633.7,199.47c-1.41-.69-3.47-1.05-4.05-2.17-.63-1.21-.31-3.36.36-4.72,2.52-5.1,8.43-6.9,13.91-4.26,6.25,3.01,9.28,8.44,10.34,15.04.35,2.2-.52,4.17-2.64,5.23-2.34,1.17-4.47.46-6.24-1.25-2.31-2.24-4.4-4.72-6.81-6.84-1.17-1.03-2.86-1.48-4.31-2.19-.19.39-.38.77-.57,1.16Z" style="fill: #000; stroke-width: 0px;"/>
  <path d="M565.71,82.34c3.12.11,6.5,1.4,9.11,4.31,1.7,1.91,2.45,4.14.93,6.5-1.5,2.33-3.78,2.63-6.28,1.89-.54-.16-1.08-.37-1.59-.6-3.45-1.55-6.44-.99-8.98,1.86-.5.56-1.01,1.32-1.65,1.51-1.1.32-2.55.71-3.41.25-.86-.47-1.64-1.93-1.67-2.97-.16-6.57,6.17-12.76,13.55-12.75Z" style="fill: #000; stroke-width: 0px;"/>
  <path d="M132.09,95.61c-.5.7-.99,2.06-1.91,2.47-.92.41-2.35.1-3.41-.3-.81-.31-1.41-1.21-2.06-1.9-2.2-2.34-4.8-2.84-7.76-1.74-.44.16-.87.36-1.32.53-3.42,1.27-5.94.74-7.34-1.53-1.41-2.29-.69-5.33,2.01-7.51,4.23-3.43,8.97-4.43,14.04-2.11,4.89,2.24,6.64,6.69,7.74,12.09Z" style="fill: #000; stroke-width: 0px;"/>
  <path d="M86.96,117.73c-.52,1.4-.83,2.38-1.25,3.32-2.35,5.25-4.72,10.5-7.09,15.74-1.28,2.82-3.4,4.09-5.74,3.42-2.33-.66-3.71-2.94-3.12-5.9.41-2.1.98-4.35,2.15-6.08,2.84-4.2,5.96-8.23,9.23-12.1.69-.82,2.59-1.12,3.76-.87.86.18,1.43,1.66,2.06,2.47Z" style="fill: #000; stroke-width: 0px;"/>
  <path d="M614.46,134.95c-.08,2.72-.94,4.67-3.42,5.27-2.48.61-4.26-.66-5.28-2.82-2.72-5.82-5.45-11.64-7.88-17.58-.48-1.17-.09-3.32.76-4.21.61-.64,3.16-.5,3.93.24,4.86,4.67,9.21,9.77,11.33,16.37.31.98.43,2.03.57,2.73Z" style="fill: #000; stroke-width: 0px;"/>
  <path d="M341.94,37.43c-3.3-1.22-6.42-2.01-9.15-3.5-2.57-1.4-3.13-4.25-1.93-6.35,1.15-1.99,3.68-2.87,6.23-1.53,3.44,1.8,6.53,1.71,9.95-.02,2.56-1.3,5.07-.39,6.19,1.65,1.12,2.04.63,4.81-1.83,6.14-2.9,1.56-6.18,2.41-9.46,3.62Z" style="fill: #000; stroke-width: 0px;"/>
  <path d="M591,407.63c-2.13-.55-4.9-.94-7.33-2.05-1.26-.57-2.6-2.43-2.64-3.74-.03-1.1,1.6-2.8,2.85-3.25,3.36-1.2,6.88-2.06,10.4-2.69,3.78-.68,6.69,1.18,7.27,4.2.56,2.93-1.55,5.74-5.19,6.68-1.54.4-3.15.51-5.36.86Z" style="fill: #000; stroke-width: 0px;"/>
  <path d="M560.45,408.69c-.69,2.02-.95,4.39-2.2,5.97-1.04,1.31-3.35,2.47-4.91,2.27-1.38-.18-3.06-2.13-3.62-3.66-1.25-3.41-2.05-7.02-2.68-10.61-.23-1.29.16-3.15,1.01-4.03.75-.78,2.64-1.01,3.84-.72,4.79,1.18,8.15,5.75,8.55,10.78Z" style="fill: #000; stroke-width: 0px;"/>
  <path d="M123.74,408.8c.3-5.01,3.37-9.44,8.11-10.8,1.27-.36,3.25-.18,4.13.62.87.79,1.23,2.74,1.01,4.04-.59,3.52-1.62,6.96-2.47,10.43-.51,2.09-1.6,3.69-3.85,4.04-2.34.37-4.17-.69-5.13-2.74-.83-1.76-1.22-3.73-1.8-5.6Z" style="fill: #000; stroke-width: 0px;"/>
  <path d="M92.57,407.8c-2.48-.64-4.66-.96-6.63-1.76-2.62-1.07-3.89-3.72-3.25-6.25.67-2.67,2.74-4.28,5.21-3.91,4.54.67,9.1,1.69,13.42,3.22,2.83,1,2.62,4.9-.32,6.21-2.71,1.21-5.72,1.72-8.42,2.49Z" style="fill: #000; stroke-width: 0px;"/>
  <path d="M552.51,514.77c3.05-5.06,5.92-9.59,8.49-14.27.73-1.32.84-3.12.82-4.69-.06-4.61-1.63-6.05-6.24-6.03-2.94.02-5.87.13-8.81.09-1.58-.02-2.44.44-2.66,2.16-.34,2.68-1.6,4.8-4.63,4.8-2.9,0-3.99-2.12-4.61-4.59-1.04-4.14-3.58-7.29-6.83-9.86-2.56-2.02-4.52-1.42-5.25,1.76-.87,3.77-1.31,7.64-1.86,11.48-.3,2.08-.69,4.17-3.24,4.28-2.37.09-3.06-1.82-3.51-3.77-1.2-5.15-1.64-10.3-.07-15.45,2.45-8.03,10.06-11.52,17.55-7.74,2.72,1.37,5.15,3.52,7.31,5.71,1.59,1.62,3.03,2.05,5.22,1.83,4.04-.4,8.13-.62,12.18-.44,7.51.34,11.6,3.99,13.2,11.35,1.79,8.23-.82,15.42-5.84,21.75-2.32,2.93-5.45,5.22-8.06,7.94-1.03,1.07-2.09,2.46-2.34,3.85-.86,4.75-3.8,7.85-7.33,10.76-3.12,2.58-6.13,5.35-8.82,8.36-.93,1.04-.84,3.06-1.09,4.65-.1.63.2,1.31.21,1.97.12,6.92,2.51,12.9,7.08,18.11,3.55,4.05,5.42,8.83,5.51,14.28.1,5.83-1.55,10.77-7.23,13.35-5.71,2.59-11,1.24-15.55-2.75-2.09-1.84-3.8-3.5-7.02-3.3-2.84.18-4.85-2.02-5.85-4.68-2.77-7.36-2.32-14.9-.83-22.4.19-.96,2.21-2.44,2.95-2.22,1.11.33,2.45,1.85,2.63,3.03.6,4.11.72,8.29,1.09,12.44.09.98.42,1.94.71,3.22.79-.59,1.19-1.11,1.67-1.22,1.56-.34,3.56-1.21,4.64-.58,1.24.72,2.23,2.77,2.36,4.33.28,3.29,3.35,5.92,7.57,5.83,2.88-.06,4.69-2.2,4.11-5.83-.37-2.32-1.4-4.73-2.75-6.68-3.97-5.75-6.5-12-8.86-18.59-3.97-11.07,1.28-18.42,8.18-25.59.98-1.02,2.17-1.83,3.28-2.71,4.21-3.36,5.12-6.22,3.65-11.47-.05-.18-.12-.36-.17-.54-1.01-3.43-.51-5.47,1.59-6.45,2.12-1,3.95-.13,6,2.83.21.3.47.56,1.44,1.68Z" style="fill: #000; stroke-width: 0px;"/>
  <path d="M517,537.1c.22-7.13.29-14.27,3.4-20.88,1.07-2.27,2.56-4.42,4.2-6.32,1.47-1.7,3.61-2.18,5.67-.91,2.19,1.35,2.38,3.47,1.74,5.76-.1.36-.24.72-.42,1.05-5.58,10.59-7.07,22.06-7.3,33.8-.04,2.25.2,5.07-2.97,5.19-3.18.12-3.16-2.8-3.38-4.98-.43-4.23-.63-8.48-.93-12.73Z" style="fill: #000; stroke-width: 0px;"/>
  <path d="M131.97,514.36c.76-1.06,1.22-1.75,1.72-2.4,1.42-1.88,3.27-2.71,5.46-1.59,2.11,1.08,2.26,3.05,1.82,5.17-.42,2.02-1.23,4.15-.94,6.09.31,2.07,1.42,4.21,2.73,5.9,1.3,1.68,3.3,2.81,4.97,4.21,6.06,5.04,8.51,11.89,9.64,19.38.09.63,0,1.35-.23,1.95-3.26,8.33-5.51,17.14-11.63,24.08-.31.35-.5.8-.71,1.23-1.59,3.27-1.23,7.53.76,9.02,1.89,1.42,7.34.39,9.48-1.91.43-.46.63-1.37.55-2.02-.29-2.21-.13-4.24,1.95-5.51,2.13-1.31,3.98-.42,5.7.99.19.16.5.18,1.22.42.32-2.22.72-4.31.9-6.42.26-3.02.13-6.09.66-9.05.21-1.14,1.67-2.61,2.79-2.84.78-.16,2.62,1.39,2.83,2.41,1.45,7.12,1.82,14.3-.5,21.34-1.39,4.21-3.81,5.64-8.36,5.76-1.05.03-2.29.74-3.06,1.52-2.89,2.93-6.15,5.05-10.31,5.49-7.12.76-12.95-3.64-14-10.72-.82-5.54.17-10.76,3.36-15.46,1.12-1.65,2.25-3.29,3.54-4.8,3.49-4.08,4.89-8.89,5.29-14.12.1-1.32.48-2.64.41-3.94-.08-1.43-.07-3.24-.89-4.17-2.55-2.89-5.29-5.67-8.3-8.07-4.14-3.29-7.59-6.78-8.2-12.4-.12-1.06-1.38-2.17-2.37-2.92-5.74-4.31-10.17-9.61-12.75-16.36-1.82-4.75-2.05-9.6-.68-14.51,1.71-6.14,5.3-9.47,11.66-9.92,4.6-.32,9.26.01,13.88.34,1.89.13,3.09-.28,4.49-1.58,2.46-2.3,5.03-4.73,8.01-6.18,7.2-3.5,14.53-.08,17.01,7.53,1.86,5.71,1.36,11.45-.44,17.04-.36,1.1-2.17,2.49-3.21,2.4-1.04-.08-2.53-1.71-2.8-2.89-.81-3.69-.97-7.51-1.74-11.21-.32-1.51-1.38-3.81-2.42-4-1.39-.25-3.6.81-4.54,2.02-2.17,2.78-3.99,5.89-5.55,9.06-1.07,2.19-2,4.21-4.75,4.1-2.71-.1-4.09-1.93-4.36-4.42-.24-2.14-1.3-2.59-3.21-2.54-3.22.09-6.44-.01-9.66-.08-2.75-.06-4.29,1.37-4.67,3.96-.23,1.57-.39,3.27-.04,4.78,1.44,6.19,5.57,10.75,9.51,15.84Z" style="fill: #000; stroke-width: 0px;"/>
  <path d="M167.07,537.06c-.36,4.55-.69,9.26-1.15,13.96-.19,1.96-.81,3.96-3.31,3.81-2.49-.15-2.76-2.21-2.88-4.17-.24-4.06-.4-8.13-.71-12.18-.5-6.67-2.17-13.05-4.93-19.14-.59-1.29-1.22-2.57-1.74-3.88-1.13-2.83-.56-5.45,1.51-6.53,2.51-1.31,4.61-.35,6.31,1.59,3.5,3.97,5.2,8.78,5.89,13.91.55,4.11.67,8.29,1,12.63Z" style="fill: #000; stroke-width: 0px;"/>
  <path d="M435.55,503.86c-.15,5.23-1.71,11.19-5.59,16.4-5.78,7.76-14.45,9.64-22.89,4.95-5.37-2.99-9.36-7.35-12.2-12.76-4.3-8.21-3.19-16.28,3.13-23.05,2.07-2.21,4.14-4.44,6.43-6.41,3.63-3.13,7.99-3.77,12.56-2.88,11.31,2.19,18.53,11.03,18.55,23.74ZM399.96,507.72c3.1-5.43,7.18-8.17,13.13-6.59,5.66,1.5,8.47,5.54,9.1,11.5,3.75-4.73,3.71-14.07.23-18.17-3.49-4.12-11.78-5.85-15.96-3.35-4.66,2.79-8.28,11.42-6.5,16.61ZM402.73,512.61c2.36,3.45,5.66,5.62,8.81,5.76.1-1.93.51-3.92.2-5.8-.19-1.18-1.25-2.63-2.31-3.13-.87-.41-2.42.2-3.48.72-1.14.56-2.07,1.55-3.22,2.45Z" style="fill: #000; stroke-width: 0px;"/>
  <path d="M248.58,504.26c-.11-12.94,6.96-21.83,18.3-24.08,5.51-1.1,10.51-.1,14.38,4.51,1.57,1.88,3.56,3.4,5.2,5.22,5.72,6.33,6.84,13.91,3.16,21.58-2.91,6.05-7.22,10.86-13.21,14.01-8.07,4.25-16.45,2.4-22-4.86-4-5.23-5.71-11.24-5.83-16.39ZM261.98,512.81c.52-6.41,3.54-10.3,9.25-11.74,5.93-1.49,9.94,1.44,12.86,6.72,1.76-5.31-2.06-14.3-6.69-16.78-4.26-2.28-12.04-.67-15.53,3.22-3.68,4.1-3.83,13.41.11,18.58ZM281.66,513.17c-.12-.29-.24-.57-.36-.86-2.68-.38-3.88-5.21-7.48-2.52-3.17,2.37-.79,5.74-1.43,8.61.31.25.61.49.92.74,2.78-1.99,5.56-3.98,8.35-5.97Z" style="fill: #000; stroke-width: 0px;"/>
</svg>