<?xml version="1.0" encoding="UTF-8"?>
<svg id="Layer_1" data-name="Layer 1" xmlns="http://www.w3.org/2000/svg" viewBox="0 0 788.01 900">
  <path d="M461.06,899.79c-21.89,1.07-43.52-2.25-65.27-3.68-2.08-.14-4.2.13-6.3.3-12.27.98-24.52,2.53-36.81,2.86-17.74.46-35.55.8-53.26-.18-26.89-1.48-53.21-6.71-78.42-16.42-15.99-6.16-31.65-13.16-47.59-19.47-4.35-1.72-9.26-1.96-13.71-3.46-4.8-1.61-9.52-3.63-14.01-5.97-5.29-2.76-10.29-6.07-15.42-9.14-.38-.23-.79-.41-1.13-.68-10.35-8.01-20.8-15.85-29.97-25.31-9.37-9.68-16.45-20.99-24.36-31.75-10.88-14.79-20.58-30.24-29.01-46.5-9.07-17.49-18.33-34.88-26.82-52.64-3.84-8.03-6.04-16.85-8.9-25.33-1.23-3.66-2.21-7.41-3.39-11.09-5.38-16.77-7.69-33.91-6.26-51.5.64-7.79,1.01-15.62,2.1-23.34,1.58-11.18,5.24-21.67,12.07-30.88,1.15-1.55,2.13-3.23,3.02-4.94,5.33-10.22,12.74-18.92,19.98-27.78,17.73-21.71,40.12-37.48,64.42-50.81,4.69-2.57,9.61-4.74,14.39-7.16,3.46-1.75,6.05-4.41,7.9-7.84,8.1-14.98,11.48-31.29,13.39-47.97,1.6-13.97,2.77-28,4.24-41.99.32-3.02-.21-5.65-1.69-8.3-4.44-7.94-7.9-16.36-9.74-25.23-1.33-6.4-1.96-13.08-1.86-19.62.17-12.47.72-24.96,1.8-37.38.94-10.8,3.95-21.19,8.78-30.99,2.48-5.04,4.35-10.47,7.42-15.11,8.14-12.31,17.93-23.04,31.72-29.31,2.04-.93,2.97-2.18,3.12-4.56.4-6.22,1.18-12.41,1.82-18.61,1.05-10.22-.05-20.37-1.06-30.51-1.59-15.91-.11-31.57,3.11-47.16,2.16-10.49,3.95-21.07,5.74-31.63,1.42-8.38,4.87-15.99,9.02-23.23,3-5.23,6.64-10.13,10.37-14.88,5.78-7.35,14.19-10.1,22.9-11.87,10.79-2.19,21.5-.98,32.14,1.41.96.22,2.24-.18,3.15-.68,4-2.21,7.86-4.66,11.87-6.84,4.56-2.48,9.48-3.24,14.57-2.08,5.46,1.24,10.87,2.72,16.32,4.01,5.6,1.32,9.33,5.41,13.52,8.86.87.72,2.04,1.39,3.13,1.47,5.37.42,10.75.61,15.28,4.15.37.29,1.37.18,1.82-.13,8.14-5.62,16.88-4.31,25.63-2.2,7.87,1.9,13.69,6.66,18.56,13.07,4.12,5.44,4.71,5.42,8.84.12,4.8-6.16,10.34-10.81,17.98-13.07,6.68-1.98,13.36-2.2,20.08-1.01,2.06.37,3.89,1.94,5.88,2.84.67.3,1.8.61,2.23.28,4.32-3.32,9.42-3.55,14.52-4.05,1.41-.14,3.07-.82,4.04-1.81,6.85-6.98,15.56-9.66,24.77-11.81,8.88-2.07,16.88-.99,24.47,3.92,1.7,1.1,3.5,2.06,5.09,3.29,2.1,1.63,4.15,1.85,6.82,1.4,6.39-1.06,12.88-2.14,19.33-2.16,17.89-.06,32.19,6.72,41.3,22.89,4.76,8.45,9.56,16.86,11.47,26.48,1.95,9.82,3.66,19.69,5.36,29.56,1.45,8.39,3.24,16.77,3.94,25.24.65,7.94.58,16.02-.09,23.96-1.14,13.34-1.84,26.65-.67,40,.37,4.28.97,8.56,1.72,12.79.15.86,1.39,1.65,2.27,2.24,5.24,3.5,10.93,6.46,15.7,10.51,8.63,7.32,15.85,15.98,20.55,26.43,2.66,5.91,5.12,11.93,7.44,17.99,3.4,8.85,4.78,18.1,5.14,27.56.29,7.81,1.32,15.61,1.45,23.42.2,12.84.07,25.72-5.31,37.8-2.39,5.37-4.88,10.7-7.19,16.1-.56,1.31-.94,2.85-.85,4.25.32,4.82.84,9.64,1.35,14.45,1.97,18.44,2.69,37.09,7.64,55.05,2.27,8.24,5.85,16.18,9.55,23.92,1.31,2.73,4.43,5.13,7.29,6.5,25.38,12.2,49.14,26.78,68.79,47.21,12.02,12.49,23.26,25.68,31.35,41.23,3.07,5.9,6.83,11.48,9.47,17.56,2.58,5.94,4.05,12.29,4.34,18.92.27,6.3,1.01,12.61,1.88,18.86,1.48,10.61.37,21.12-1.35,31.52-1.26,7.68-3.49,15.22-5.5,22.76-1.58,5.94-3.62,11.77-5.21,17.71-2.66,9.93-6.93,19.18-11.7,28.2-11.18,21.15-22.23,42.36-33.83,63.27-4.41,7.96-10.16,15.19-15.36,22.7-4.9,7.08-9.72,14.23-14.87,21.13-6.98,9.33-15.1,17.6-24.15,24.95-3.14,2.55-6.18,5.22-9.41,7.65-3.29,2.48-6.66,4.9-10.17,7.05-6.14,3.77-12.16,7.91-18.71,10.78-6.03,2.64-12.71,3.79-19.11,5.6-.76.21-1.56.3-2.29.59-13.05,5.24-26.25,10.16-39.09,15.87-10.17,4.52-20.48,8.39-31.21,11.28-15.66,4.21-31.63,6.93-47.67,8.94-10.16,1.27-20.54.84-30.83,1.15-1.93.06-3.87,0-5.8,0ZM17.79,565.73c.16.2.33.4.49.6,1.22-.38,2.46-.7,3.64-1.17,7.79-3.1,15.79-4.95,24.21-3.85,5.13.67,10.06,2.53,12.7,7.09,3.92,6.78,6.13,14.33,5.3,22.24-.72,6.89-1.61,13.89-3.59,20.49-3.78,12.58-8.41,24.89-12.64,37.33-1.98,5.82-4.34,11.56-5.65,17.53-2.15,9.75-3.65,19.65-5.28,29.52-.66,3.98-.46,7.88,2.61,11.1.89.93,1.4,2.22,2.08,3.35,1.48,2.46,3.3,3.39,5.97,2.36,3.92-1.52,7.7-3.4,11.52-5.17,6.2-2.88,12.17-6.47,18.62-8.55,9.38-3.03,19.52-1.7,24.8,10.45,2.59,5.96,4.22,12.08,5.53,18.35,3.21,15.32,1.25,30.62-.18,45.93-.73,7.87-1.28,15.76-1.58,23.66-.14,3.75.25,7.56.84,11.27.73,4.61,2.01,5.06,6.28,3.28,7.51-3.14,13.62-8.34,19.84-13.35,6.16-4.97,12.92-8.76,20.41-11.3,8.01-2.72,15.58-1.89,22.7,2.76.73.48,1.5.92,2.29,1.31,12.82,6.33,20.37,16.89,23.2,30.56,1.52,7.34,1.04,15.08,2.33,22.49,1.29,7.39,3.59,14.61,5.63,21.86.28,1,1.44,2.07,2.46,2.49,4.39,1.81,8.89,3.34,13.31,5.07,1.72.67,2.73.12,3.81-1.24,2.65-3.36,3.89-7.22,4.6-11.36,1.13-6.58,2-13.23,3.67-19.67.92-3.53,2.63-7.28,5.09-9.9,4.97-5.3,11.06-9.3,18.43-10.64,2.48-.45,5.06-.28,7.59-.48,11.68-.9,22.04,1.9,30.7,10.26,5.06,4.88,8.47,10.76,11.29,16.99,3.01,6.67,5.48,13.58,8.17,20.4,3.21,8.14,9.53,13.03,17.12,16.7,2.98,1.44,5.78.84,7.79-1.22,2.08-2.13,3.73-4.85,4.95-7.58,1.05-2.36,1.18-5.12,1.81-7.68,1.82-7.47,4.03-14.82,8.59-21.13,4.21-5.84,9.08-11.07,16.31-13.17,9.84-2.86,19.82-3.91,29.95-1.6,5.14,1.17,10.33,2.19,14.56,5.73,7.15,5.98,12.16,13.37,14.69,22.36,1.33,4.73,2.63,9.49,3.62,14.31.71,3.48,2.54,6.22,4.97,8.5,2.28,2.14,5,2.92,8.24,1.5,9.75-4.24,16.12-11.56,19.15-21.55,2.95-9.73,6.88-18.94,12.7-27.24,4.27-6.09,9.99-11.06,16.95-13.38,9.5-3.17,19.63-3.91,29.3-.71,9.05,2.99,17.01,8.11,19.92,18.01,1.6,5.45,2.41,11.15,3.34,16.77.9,5.48,1.48,10.97,5.07,15.6,1.32,1.7,2.53,2.08,4.47,1.29,3.58-1.46,7.18-2.93,10.88-4.03,2.97-.88,4.45-2.78,5.43-5.51,3.91-10.87,5.67-22.13,5.86-33.6.16-9.87,3.28-18.71,8.93-26.54,5.82-8.06,14.23-13.02,23.25-16.71,3.13-1.28,6.93-1.69,10.32-1.38,8.14.74,15.37,4.32,21.99,8.94,5.69,3.97,10.99,8.5,16.68,12.47,2.93,2.04,6.27,3.53,9.54,5.03,2.83,1.3,4.04.68,4.75-2.4.61-2.64,1.24-5.39,1.12-8.06-.5-11.58-.78-23.2-2.08-34.71-1.36-12.04-2.08-24-.23-36,1.29-8.35,3.03-16.59,7.33-24.06,2.35-4.08,5.14-7.53,10.04-8.63,4.46-1,8.98-1.31,13.28.3,4.91,1.85,9.66,4.14,14.44,6.34,5.41,2.5,10.71,5.26,16.19,7.62,2.32,1,4.44.04,5.78-2.3.96-1.68,2.24-3.2,3.02-4.95.82-1.85,1.88-3.96,1.69-5.84-.8-8.02-1.68-16.07-3.16-23.99-2.43-12.97-6.89-25.34-11.88-37.55-5.16-12.64-8.79-25.69-11.1-39.21-1.54-9.06-1.09-17.52,2.13-26.11,2.27-6.05,6.6-9.28,12.39-10.63,9.07-2.12,17.79-.05,26.3,3.21,1.39.53,2.84.91,4.8,1.53-.54-1.44-.72-2.22-1.11-2.88-7.02-11.77-13.11-24.25-21.34-35.11-12.4-16.36-27.11-30.61-44.65-41.79-18.6-11.85-38.15-21.43-59.38-27.48-3.89-1.11-7.76-2.28-11.61-3.51-6.28-2-12.53-4.08-18.8-6.1-.27-.09-.63.11-.92.16-.12,3.48,1.07,5.86,4.53,6.87,2.44.71,4.78,1.74,7.17,2.62,5.52,2.05,11.16,3.81,16.52,6.2,16.84,7.49,30.92,18.75,42.86,32.67,4.52,5.27,8.81,10.65,9.42,18.27.72,8.91-4.75,20.25-14.95,21.72-13.33,1.93-26.63,1.2-39.95-.31-3.78-.43-7.67-.13-11.49.11-.68.04-1.78,1.46-1.81,2.27-.12,3.95-.25,7.94.22,11.84.52,4.35.4,9.05,4.34,12.31,3.18,2.64,6.17,5.49,9.3,8.19,10.62,9.17,22.6,16.73,32,27.36,6.18,6.99,11.47,14.3,13.62,23.69,2.33,10.14-3.46,18.18-12.25,20.36-12,2.97-23.77,2.45-35.18-3.09-7.99-3.88-16.25-7.2-25.21-8.19-.79-.09-2.19.17-2.39.65-1.27,3.07-3.28,6.28-3.18,9.38.29,9.11.91,18.28,2.43,27.25,1.71,10.12,3.33,20.16,3.48,30.48.1,6.67-4.29,12.71-10.54,15.15-6.99,2.74-14.3,3.43-21.39,1.15-9.33-3.01-18.43-6.76-27.58-10.3-3.02-1.17-6.06-2.41-8.83-4.05-3.77-2.24-7.71-3.72-12.05-4.17-7.44-.77-14.42,1.86-21.61,2.97-1.04.16-2.14.94-2.89,1.73-2.34,2.49-4.77,4.96-6.73,7.74-4.44,6.28-6.16,13.71-8.4,20.91-1.56,5.03-4.23,9.23-9.17,11.64-6.99,3.42-13.83,1.54-19.52-2.25-14.08-9.37-24.9-21.86-32.13-37.28-.97-2.07-1.75-4.25-2.9-6.21-2.04-3.47-6.44-3.56-8.84-.44-3.26,4.25-6.65,8.41-9.99,12.61-3.29,4.14-7.66,5.8-12.87,6.21-8.68.68-15.7-1.76-20.7-9.28-2.38-3.58-5.2-6.87-7.94-10.2-.59-.72-1.62-1.46-2.49-1.52-3.59-.25-5.3.73-6.56,4.08-4.85,12.89-13.08,23.46-22.77,32.93-5.71,5.59-11.78,10.73-20.08,12.43-6.81,1.4-12.5-.54-16.73-6.02-3.14-4.07-4.01-8.93-5.42-13.6-2.48-8.23-6.19-15.71-12.76-21.44-1.32-1.16-3.12-1.97-4.84-2.44-3.04-.83-6.19-1.29-9.3-1.89-6.05-1.18-12.07-1.4-17.88,1.04-2.41,1.01-4.58,2.59-6.98,3.61-7.58,3.23-15.18,6.43-22.86,9.44-9.89,3.89-19.82,6.86-30.67,3.35-6.25-2.02-12.53-7.46-12.54-13.03-.01-7.26.07-14.63,1.27-21.76,1.96-11.67,4.25-23.24,4.64-35.15.15-4.67-1.16-8.62-2.97-12.61-.29-.65-1.62-1.32-2.34-1.2-6.59,1.11-13.08,2.52-19.2,5.46-4.9,2.35-9.9,4.74-15.12,6.09-9.33,2.41-18.85,2.22-28.11-.62-5.25-1.61-12.23-8.28-11-15.31.87-4.97,1.82-10.15,4.01-14.6,3.95-8.02,10.07-14.64,16.67-20.59,6.25-5.64,13.08-10.64,19.6-15.99,4.76-3.9,9.56-7.77,14.07-11.94,1.86-1.72,3.95-4.07,4.31-6.37.92-6.05.92-12.24,1.33-18.36.11-1.66-.67-2.52-2.23-2.59-3.23-.15-6.54-.7-9.67-.2-12.16,1.98-24.37,1.89-36.57,1.26-3.66-.19-7.73-1.07-10.77-2.97-10.85-6.77-11.69-22.39-5.07-30.65,5.36-6.69,11.06-13.19,17.27-19.08,11.28-10.71,24.43-18.65,39.05-24.06,5.44-2.01,10.96-3.79,16.37-5.85,3.44-1.31,3.96-2.45,3.81-6.74-.78.2-1.52.34-2.23.58-7.59,2.5-15.08,5.39-22.8,7.45-18.38,4.89-35.92,11.76-52.4,21.27-11.36,6.55-22.61,13.29-32.23,22.35-10.9,10.25-21.84,20.54-29.98,33.21-5.84,9.09-10.96,18.64-16.37,28.01-.6,1.04-.97,2.22-1.45,3.33ZM459.31,683.81c1.63.32,2.91.65,4.2.81,10.9,1.38,21.79,2.84,32.71,4.02,5.58.6,11.23.7,16.84.99,1.52.08,2.64-.25,2.97-2.14,2.49-14.32,6.52-28.28,7.51-42.99,1.29-19.27.07-38.31-1.77-57.39-1.8-18.7-6.24-36.92-10.59-55.12-3.96-16.58-8.46-33.02-12.56-49.57-5.75-23.19-12.01-46.27-15.83-69.89-3.38-20.88-6.5-41.81-9.8-62.71-.23-1.47-.8-3.05-1.67-4.25-9.24-12.66-16.99-26-19.87-41.7-1.84-10.01-3.92-19.97-3.83-30.22.02-2,.16-4.13-.43-5.99-1.6-5.02-3.39-9.99-5.4-14.85-4.85-11.73-7.41-24.01-8.86-36.54-2.72-23.67-5.21-47.36-7.99-71.02-.65-5.57-1.68-11.17-3.28-16.53-2.19-7.32-6.2-13.43-14.24-15.58-2.86-.77-4.22,0-5.5,2.49-.36.69-1.35,1.06-2.05,1.58-.47-.83-1.33-1.66-1.35-2.5-.05-3.22,2.92-6.09,6.6-5.66,3.31.38,6.99,1.13,9.62,2.98,5.85,4.13,10.24,9.79,11.66,17.02,2.13,10.86,4.06,21.77,5.74,32.71,3.33,21.63,3.51,43.62,7.86,65.17,2.14,10.61,5.46,20.76,8.99,31.42.52-1.36.9-2.23,1.19-3.13,3.49-10.73,8.56-20.43,17.99-27.22,1.37-.98,1.01-1.92.58-3.17-2.93-8.65-6.02-17.26-8.61-26.02-2.84-9.6-5.67-19.25-7.64-29.05-3.05-15.16-5.34-30.47-7.98-45.71-2.02-11.67-6.14-22.31-14.79-30.85-3.57-3.53-7.52-5.9-12.67-5.05-5.07.83-10.12,1.9-12.08,7.77-.2.59-1.29.88-1.97,1.31-.43-.7-1.32-1.48-1.21-2.08.35-1.93.56-4.25,1.74-5.62,5.03-5.79,18.2-8.89,25.11-3.13,7.83,6.51,14.36,14.17,17.43,24.01,2.4,7.7,4.13,15.64,5.65,23.57,2.26,11.83,3.49,23.88,6.2,35.59,3.51,15.14,8.03,30.05,12.17,45.04.88,3.18,2.02,6.29,3.03,9.43.59-.1.88-.08,1.08-.2,5.22-2.9,10.46-5.76,15.6-8.8.52-.31.7-1.72.55-2.53-1.15-6.03-2.87-11.98-3.56-18.05-.9-8.03-.7-16.17-1.56-24.21-1.09-10.13-3.19-20.16-4.14-30.3-2.16-23.05-11.55-43.13-24.78-61.6-5.86-8.18-13.65-13.86-24.21-14.78-5.89-.51-11.68-.74-16.69,3.03-2.77,2.08-5.26,4.53-7.96,6.71-.81.65-2.28,1.57-2.77,1.27-.84-.51-1.72-2.01-1.55-2.89.34-1.72,1.05-3.6,2.2-4.89,5.8-6.48,13.41-8.96,21.88-9.46,5.48-.32,10.61.93,14.83,2.8,5.09-4.24,9.72-8.19,14.47-11.99,1.05-.84,2.5-1.28,3.84-1.63,1.94-.5,3.94-.75,5.73-1.08.7-1.65.98-3.51,2.04-4.61,3.28-3.37,6.4-7.31,10.42-9.48,9.5-5.13,19.92-7.77,30.77-8.19,5.37-.21,10.76-.04,16.37-.04-1.03-.94-1.94-2-3.06-2.77-4.04-2.81-8.25-5.38-12.21-8.3-12.54-9.27-29.6-3.48-38.51,6.92-2.75,3.2-5.24,6.63-8.13,9.69-.9.95-2.86,1.58-4.1,1.3-.76-.17-1.27-2.32-1.51-3.64-.25-1.43-.06-2.94-.06-4.59-1.86.62-3.56,1.33-5.33,1.74-6.13,1.43-9.85,5.7-12.99,10.73-.97,1.56-1.86,3.21-3.06,4.59-1.31,1.51-3.1,2.06-4.99.96-1.83-1.06-1.95-2.81-1.5-4.63.21-.84.57-1.67,1.02-2.42,1.96-3.26,3.98-6.48,6.23-10.14-2.47-.43-5.08-1.19-7.72-1.28-7.8-.24-14.83,2.02-20.21,7.87-3.38,3.68-6.26,7.82-9.41,11.71-3.74,4.62-8.9,4.6-12.71-.03-1.45-1.76-2.76-3.64-4.25-5.38-2.61-3.07-4.87-6.69-8.07-8.96-6.18-4.39-13.31-6.32-21.01-4.84-1.47.28-2.87.88-4.58,1.41.67.71,1.02.98,1.25,1.34,2.16,3.38,4.44,6.69,6.37,10.19,1,1.82.66,3.91-1.29,5.13-2.09,1.31-3.92.4-5.36-1.27-.85-.99-1.62-2.11-2.19-3.28-3.86-7.93-10.58-11.73-19.1-13.26.06,1.34.12,2.65.19,3.96.1,1.66.53,3.82-1.57,4.17-1.32.22-2.91-.92-4.33-1.57-.43-.2-.67-.79-1.01-1.2-5.26-6.33-9.94-13.21-17.91-16.73-8.4-3.7-16.75-4.81-24.98.06-5.06,2.99-9.86,6.44-14.72,9.76-1.14.78-2.06,1.9-3.56,3.31,1.15-.07,1.49-.07,1.83-.11,15.27-1.77,30.01.27,43.96,6.75,6.32,2.94,11.56,7.28,13.9,14.3.17.5,1.12.95,1.76,1.03,3.61.5,7.09,1.17,9.96,3.7,4.1,3.6,8.3,7.09,12.7,10.84,4.39-2.08,9.49-3.16,14.88-2.85,8.46.48,16.06,2.96,21.9,9.43.96,1.06,1.88,2.49,2.05,3.85.16,1.25-.29,3.2-1.18,3.84-1.58,1.14-2.58-.59-3.49-1.78-3.81-4.97-9-8.1-14.97-9.12-6.57-1.12-13.17.06-19.35,2.66-5.41,2.28-9.57,6.36-13.1,10.83-10.87,13.77-18.2,29.46-22.88,46.26-2.03,7.3-2.59,15.05-3.54,22.62-1.53,12.2-3.08,24.4-4.15,36.65-.72,8.23-.77,16.51-3.02,24.54-.68,2.42-1.32,4.85-1.96,7.18,5.94,3.37,11.69,6.64,17.75,10.08,1.99-6.48,3.98-12.48,5.67-18.56,3.23-11.6,6.81-23.13,9.3-34.89,3.46-16.33,6.12-32.83,9.01-49.28,2.16-12.34,7.86-22.63,16.4-31.83,8.65-9.33,20.94-7.11,28.1-1.54,2.24,1.75,3.01,4.08,2.87,6.73-.04.76-.91,1.47-1.4,2.2-.65-.49-1.48-.86-1.9-1.49-.72-1.08-.89-2.65-1.8-3.45-4.07-3.6-13.27-6.76-19.55-1.88-6.36,4.94-11.45,11.25-13.96,18.83-2.78,8.39-4.66,17.14-6.23,25.85-2.89,16.08-4.66,32.33-9.16,48.15-3.97,13.96-7.67,27.97-12.95,41.51-.6,1.54-.49,2.49.93,3.52,9.01,6.54,13.89,15.87,17.4,26.1.41,1.2.8,2.41,1.27,3.82.32-.46.46-.59.52-.74,7.2-19.06,11.05-38.86,12.68-59.1,1.76-21.84,4.58-43.53,8.47-65.09,1.41-7.84,4.95-14.37,10.7-19.8,3.25-3.07,7.21-4.34,11.52-4.5,3.73-.14,6.69,2.4,6.75,5.62.02.85-.8,1.72-1.23,2.58-.74-.55-1.87-.95-2.15-1.67-.86-2.29-2.61-3.07-4.59-2.44-2.61.84-5.39,1.83-7.47,3.52-4.64,3.77-7.23,8.94-8.49,14.81-4.22,19.65-5.62,39.67-7.94,59.57-1.48,12.66-2.63,25.36-4.48,37.97-1.9,12.96-7.32,24.91-11.69,37.15-.41,1.14-.86,2.32-.97,3.5-.65,7.51-.87,15.07-1.91,22.52-.99,7.1-2.31,14.23-4.37,21.07-3.64,12.06-10.21,22.68-17.69,32.76-.79,1.06-1.33,2.47-1.51,3.78-.87,6.26-1.35,12.58-2.37,18.82-3.1,18.89-5.82,37.88-9.75,56.6-5.26,25.01-11.39,49.85-17.4,74.7-4.4,18.19-9.45,36.23-13.75,54.44-5.06,21.47-7.23,43.38-7.83,65.38-.33,12,.18,24.13,1.6,36.04,1.28,10.77,4.28,21.33,6.66,31.96.17.77,1.36,1.62,2.23,1.85,1.24.33,2.63.25,3.93.13,12.17-1.14,24.34-2.24,36.49-3.53,4.59-.49,9.13-1.42,13.93-2.18-.42-1.48-.61-2.61-1.05-3.63-4.1-9.67-5.19-19.97-6.39-30.26-1.29-11.12.06-22.14,1.35-33.13,1.93-16.34,3.17-32.72,3.02-49.18,0-1.03-.4-2.37-1.1-3.02-6.04-5.61-8.29-12.85-9.42-20.69-1.21-8.37,1.25-16.26,3.17-24.16,2.32-9.54,6.86-18.23,11.68-26.74.51-.89,1.1-1.86,1.2-2.84,1.05-9.6,2.02-19.2,2.97-28.81.91-9.17,1.75-18.35,2.65-27.53,2.2-22.42,6.43-44.51,10.88-66.57,2.27-11.27,4.65-22.53,6.43-33.89,2.56-16.4,4.81-32.87,6.85-49.34,2.32-18.75,4.43-37.53,6.31-56.32,1.2-12.05,1.72-24.18,2.74-36.25.69-8.14,3.54-15.72,6.74-23.16,1.63-3.78,4.67-6.02,8.72-6.3,1.51-.1,3.16.97,4.61,1.75.34.18.16,1.33.22,2.04-.63-.03-1.27-.02-1.89-.09-1.22-.14-2.48-.62-3.64-.43-3.25.53-5.04,3.01-5.89,5.81-1.98,6.54-4.47,13.09-5.18,19.8-1.77,16.86-2.58,33.82-3.96,50.72-.83,10.16-1.83,20.31-3.06,30.43-1.04,8.63-2.63,17.2-3.77,25.82-2.54,19.07-3.93,38.31-8.16,57.14-.14.64-.16,1.41.06,2.01,1.41,3.74,3.15,7.37,4.32,11.18,4.51,14.67,6.62,29.63,4.87,45-.97,8.56-1.93,17.12-2.79,25.69-1.02,10.21-4,19.71-9.28,28.59-3.63,6.1-6.79,12.5-9.87,18.9-2.62,5.46-4.87,11.09-7.22,16.68-3.42,8.17-7.1,16.26-10.07,24.59-2.73,7.66-2.4,15.63.17,23.34.74,2.23,2.05,4.83,3.91,6.02,4.31,2.76,9.39,3.7,14.63,4.16.66-2.45,1.11-4.87,1.97-7.14,2.8-7.46,7.12-13.77,14.63-17.13,1.88-.84,2.39-1.69,2.47-3.61.36-8.87.43-17.79,1.47-26.58,1.78-15.01,4.4-29.92,6.3-44.92,1.8-14.21,3.12-28.48,4.66-42.72,2.13-19.61,3.34-39.23,2.21-58.97-.41-7.09-.3-14.27.31-21.34.82-9.6,2.33-19.15,3.59-28.72.63-4.78,4.68-7.75,9.54-7.3,2.34.22,4.74.23,7.09.01,5.06-.47,8.93,2.45,9.63,7.47.25,1.83.61,3.64.83,5.47,1.04,8.62,2.46,17.22,2.93,25.88.45,8.32-.03,16.69-.21,25.03-.37,16.64.4,33.22,2.27,49.76,1.64,14.5,2.84,29.05,4.67,43.52,1.9,15,4.63,29.89,6.41,44.91,1.13,9.5,1.14,19.12,1.76,28.68.07,1.01.63,2.56,1.38,2.88,8.33,3.54,12.92,10.21,15.78,18.37.74,2.12,1.22,4.33,1.89,6.73,3.46-.81,6.73-1.5,9.94-2.35,4.36-1.16,7.39-3.71,8.69-8.25,2.25-7.82,2.44-15.64.04-23.41-1.43-4.61-2.98-9.22-4.9-13.64-4.05-9.35-8.21-18.65-12.63-27.82-3.35-6.95-7.47-13.54-10.71-20.54-2.71-5.86-5.6-11.9-6.74-18.17-2.09-11.48-2.85-23.19-4.36-34.78-1.09-8.39-.14-16.62.71-24.96.84-8.22,3.2-15.99,5.28-23.87.55-2.09,1.79-3.99,2.63-6.01.34-.82.77-1.78.65-2.6-2.22-15.39-4.6-30.75-6.78-46.14-2.1-14.79-4.31-29.57-5.92-44.41-2.15-19.83-4.58-39.65-4.87-59.64-.16-10.59-1.81-21-5.47-31-.83-2.27-1.96-4.52-3.37-6.48-1.74-2.42-4.75-2.84-7.39-1.61-.47.22-1.48.25-1.6.03-.27-.52-.42-1.42-.13-1.84,1.18-1.74,2.85-2.36,5.02-2.04,5.72.83,8.17,4.9,10.03,9.68,3.44,8.82,5.47,17.97,6.26,27.38,1.13,13.57,1.99,27.16,3.22,40.71,1.21,13.39,2.59,26.77,4.15,40.13.77,6.54,2.28,12.98,3.18,19.51,2.97,21.57,4.95,43.27,9.92,64.57,3.47,14.87,5.99,29.99,8.4,45.08,2.08,13,3.48,26.12,5.05,39.2.72,6.01,1.12,12.07,1.7,18.1.73,7.6,1.47,15.21,2.25,22.8.11,1.09.22,2.3.75,3.21,6.84,11.6,11.94,23.83,14.41,37.16,2.45,13.25,1.17,25.39-8.86,35.46-.54.54-.87,1.55-.87,2.34.07,6.86-.08,13.74.45,20.56,1.06,13.58,2.6,27.12,3.8,40.68,1.58,17.71-.08,35.06-6.31,51.84-.36.97-.55,2-.92,3.37ZM415.8,562.9c-5.61,6.23-12.53,9.05-21.22,6.54-.68-.2-1.55.03-2.28.25-6.83,2.01-15.24-.66-19.74-6.16-.41-.5-1.67-.78-2.3-.54-4.61,1.72-9.08,3.84-13.74,5.38-6.51,2.15-13.16,4.01-20.13,3.11-2.63-.34-5.18-1.29-8.07-2.04,0,2.35.1,4.71-.02,7.06-.49,9.82-.85,19.65-1.61,29.45-.83,10.69-2.42,21.32-3.03,32.02-.84,14.89,1.98,29.35,6.48,43.51.52,1.63,1.31,1.81,2.69,1.48,4.44-1.07,8.95-1.94,13.33-3.21,12.51-3.64,25.31-5.55,38.28-5.28,6.39.14,12.74.09,19.12.02,7.78-.09,15.65.75,23.34,2.04,8.3,1.39,16.43,3.82,24.65,5.71,4.98,1.15,5.08,1.11,6.69-3.78,3.47-10.57,5.57-21.46,5.64-32.55.06-8.67-.83-17.36-1.65-26.01-1.51-15.74-3.79-31.43-2.98-47.32.05-1.08-.09-2.16-.15-3.52-7.25,3.8-14.38,3.1-21.39,1.04-7.31-2.15-14.48-4.75-21.9-7.21ZM216.2,359.58c5.67-.56,11.43-.69,17-1.76,12.46-2.38,24.4-6.34,35.68-12.37,8.14-4.36,14.91-9.55,19.9-17.7,8.86-14.47,15.02-29.81,17.73-46.48,1.1-6.76,1.79-13.92-2.58-19.9-3.81-5.23-7.79-10.61-12.72-14.68-8.78-7.26-18.25-13.7-27.57-20.29-8.99-6.36-18.45-11.9-29.04-15.28-7.63-2.43-15.12-3.23-22.34,1.3-.89.56-1.92.87-2.85,1.36-7.36,3.92-15.02,7.38-22,11.88-11.14,7.18-18.55,17.92-26.02,28.67-9.91,14.26-12.22,30.07-10.91,46.68.79,10,3.17,19.7,8.24,28.66,4.63,8.18,10.69,15,17.79,21.01,1.3,1.1,2.86,2.07,4.47,2.61,11.4,3.88,23.12,5.91,35.22,6.29ZM571.34,359.22c9.32.17,18.42-1.31,27.39-3.54,3.8-.95,8.03-1.75,11.02-4.01,4.79-3.61,9.11-8.05,12.91-12.72,8.25-10.13,12.44-21.98,14.23-34.93,1.68-12.13.2-23.94-3.18-35.39-1.72-5.83-5.6-11.09-8.91-16.35-6.36-10.11-13.82-19.35-23.81-26.12-9.78-6.62-20.46-11.62-31.32-16.18-1.85-.78-4.13-.86-6.19-.76-9.83.49-18.8,4.13-26.89,9.25-12.39,7.83-24.31,16.41-36.33,24.81-6.57,4.59-11.65,10.72-16.06,17.31-1.65,2.47-3.08,5.6-3.2,8.48-.23,5.66-.1,11.48.98,17.02,3.37,17.23,10.51,32.94,20.74,47.19,1.84,2.57,4.29,4.89,6.9,6.68,3.75,2.57,7.85,4.66,11.9,6.77,15.62,8.11,32.23,12.3,49.82,12.48ZM476.77,352.29c.59,5.94.8,11.4,1.74,16.73,2.34,13.31,5.09,26.55,7.52,39.85,3.86,21.2,9.14,42.05,14.71,62.85,3.14,11.71,5.92,23.52,8.86,35.28,4.88,19.52,10.42,38.91,14.38,58.62,2.65,13.21,3.03,26.88,4.48,40.33,2.47,22.93-.23,45.43-5.66,67.69-1.19,4.89-2.46,9.76-3.92,15.52,6.96-1.8,13.85-2.64,19.86-5.37,8.68-3.95,16.78-9.18,25.01-14.08,3.15-1.87,6.13-4.13,8.85-6.58,3.86-3.46,7.49-7.18,11.03-10.97.95-1.02,1.73-2.74,1.66-4.09-.75-15.7-4.56-30.79-10.25-45.34-11.46-29.3-23.59-58.35-34.78-87.75-5.46-14.34-9.88-29.13-13.94-43.95-4.55-16.59-8.12-33.44-12.2-50.16-3.63-14.86-6.9-29.77-7.35-45.14-.02-.61-.31-1.44-.76-1.77-2.11-1.56-4.24-3.12-6.51-4.44-8.13-4.73-16.14-9.61-22.72-17.23ZM311.27,353.19c-.31-.12-.61-.25-.92-.37-7.26,8.85-17.59,13.54-26.73,19.82-2.2,1.51-2.87,2.87-2.96,5.38-.15,4.64-.38,9.36-1.32,13.89-3.01,14.51-6.31,28.97-9.61,43.42-3.03,13.27-5.96,26.57-9.35,39.75-7.82,30.39-20.34,59.13-31.55,88.33-7.15,18.61-16.04,36.53-21.59,55.77-2.75,9.52-4.28,19.21-4.94,29.05-.07,1.02.27,2.44.96,3.09,7.84,7.39,14.66,15.96,24.58,20.94,3.05,1.53,5.84,3.58,8.74,5.42,9.59,6.11,20.03,9.72,31.35,10.75.21.02.43-.19.72-.33-.68-2.13-1.53-4.17-1.97-6.29-2.39-11.5-5.96-22.77-6.69-34.61-.46-7.45-1.59-14.87-1.72-22.32-.12-7.19.64-14.39,1.03-21.59.82-15.12,1.98-30.24,5.64-44.95,7.85-31.54,16.39-62.91,24.1-94.49,5.81-23.79,11.04-47.73,15.99-71.72,2.65-12.86,4.18-25.95,6.21-38.94ZM421.88,536.16c-.26-1.7-.56-3.16-.7-4.62-.96-9.89-1.68-19.8-2.86-29.66-1.89-15.7-4.48-31.33-6.05-47.06-2.06-20.63-3.59-41.33-4.98-62.02-.63-9.37-.43-18.8-.56-28.2-.12-8.96.2-17.94-.37-26.87-.55-8.65-2.01-17.24-3.01-25.87-.63-5.42-3.51-6.77-8.32-3.96-.66.39-1.95.11-2.77-.26-4.54-2-7.38-1.15-7.85,3.05-.7,6.27-1.72,12.52-2.23,18.81-.72,9.01-1.33,18.04-1.57,27.07-.23,8.87.4,17.76.05,26.62-.43,10.7-1.49,21.38-2.28,32.07-1.01,13.58-1.66,27.21-3.13,40.74-2.09,19.3-4.84,38.54-7.17,57.82-.9,7.39-1.43,14.81-2.15,22.37,6.75,1.09,13.46,2.3,18.3,7.98,4.54,5.34,7.91,11.06,7.36,18.73,1.6-.07,3.1-.14,4.39-.2-.44-7.71,2.98-13.32,7.46-18.59,4.77-5.62,11.41-6.8,18.45-7.95ZM259.24,191.82c0-1.4.02-1.91,0-2.42-.44-9.65-.9-19.3-1.33-28.95-1.26-28.5,5.69-55.22,17.8-80.75,8.35-17.6,22.44-28.54,41.1-34.5-.39-.67-.76-1.52-1.32-2.22-4.54-5.62-10.53-9.14-17.19-11.64-9.17-3.44-18.61-3.84-28.28-2.8-12.07,1.3-21.79,6.67-28.96,16.29-4.79,6.42-7.22,14.1-9.1,21.77-2.19,8.95-3.81,18.04-5.46,27.11-2.38,13.05-4.98,26.08-6.66,39.22-1.04,8.14-1.01,16.5-.61,24.72.38,7.84,1.43,15.6-1.7,23.13-.08.2.04.49.12,1.16,14.59-.9,28.45,1.79,41.61,9.88ZM470.49,45.39c2.17.53,3.97.69,5.52,1.39,11.81,5.39,22.76,11.96,30.1,23.14,12.87,19.6,19.2,41.7,22.37,64.49,1.88,13.48.9,27.37.96,41.08.02,5.15-.67,10.31-1.09,16.3,13.05-8.06,27.05-10.75,41.2-9.91-.6-5.3-1.42-10.12-1.62-14.97-.15-3.66.64-7.35.73-11.03.37-14.29-.64-28.45-3.53-42.49-2.2-10.68-4.13-21.41-6.02-32.14-1.98-11.23-4.97-22.14-10.1-32.35-4.3-8.56-11.42-14.13-20.16-17.67-7.65-3.1-15.76-3.66-23.86-3.12-12.32.83-23.54,4.57-32.16,14.04-.84.92-1.47,2.02-2.35,3.24ZM277.91,375.9c-.76.15-1.1.18-1.42.28-6.47,1.9-12.93,3.85-19.42,5.69-1.41.4-2.11,1.06-2.09,2.53.01.79,0,1.59-.13,2.37-2.61,16.55-5.95,32.91-11.01,48.94-6.34,20.09-12.29,40.3-23.33,58.5-.27.45-.49.93-.69,1.42-6.68,16.2-16.6,30.7-24.23,46.4-2.84,5.83-6.35,11.36-8.76,17.35-4.17,10.36-6.94,21.16-7.94,32.33-.17,1.89-.34,3.88.05,5.71,3.14,14.98,8.76,29.07,15.72,42.66.54,1.06,1.17,2.07,1.76,3.1.74-1.74.97-3.36,1.09-4.98.96-13.11,4.55-25.66,9.28-37.77,7.2-18.41,14.82-36.67,22.86-54.72,7.27-16.32,13.98-32.87,19.35-49.85,6.35-20.08,11.5-40.54,17.09-60.85,3.93-14.29,8.49-28.44,10.3-43.22.64-5.2,1.01-10.44,1.53-15.88ZM590.58,643.15c.22.06.43.11.65.17.48-.8,1.02-1.57,1.43-2.4,5.42-11.14,10.81-22.29,13.83-34.42,1.54-6.21,2.86-12.16,1.8-18.85-1.81-11.37-4.78-22.35-9.28-32.81-3.63-8.43-8.48-16.35-12.85-24.46-4.37-8.1-8.95-16.09-13.22-24.24-4.88-9.32-9.86-18.6-14.19-28.17-8.55-18.92-14.54-38.77-19.54-58.87-2.87-11.53-4.52-23.37-6.59-35.09-.29-1.65-1.23-1.89-2.43-2.21-3.98-1.04-7.97-2.05-11.93-3.19-2.76-.79-5.46-1.77-8.79-2.87.95,7.96,1.26,15.65,2.88,23.05,2.8,12.85,6.25,25.56,9.72,38.25,5.43,19.9,10.55,39.92,16.85,59.55,5.09,15.86,11.18,31.42,18.07,46.67,7.45,16.49,13.58,33.56,20.87,50.13,5.71,12.99,9.59,26.4,11.84,40.33.5,3.11.61,6.27.9,9.41ZM293.71,213.27c.95-5.64,2.04-10.33,2.46-15.09.68-7.7.58-15.48,1.41-23.16,1.09-10.13,2.76-20.19,4.2-30.28,1.01-7.04,1.59-14.18,3.18-21.09,2.9-12.59,8.57-24.14,14.85-35.37,3.9-6.97,7.81-13.98,13.84-19.46,1.81-1.65,3.61-3.3,5.96-5.45-3.91-3.32-7.63-6.46-11.34-9.63-2.82-2.41-6.08-2.83-9.65-2.48-9.95.99-18.15,5.84-25.67,11.9-7.5,6.05-12.29,14.2-15.93,22.97-8.9,21.44-14.94,43.54-14.52,67,.23,12.91.73,25.82,1.24,38.72.04.96.97,2.13,1.82,2.77,3.28,2.49,6.63,4.91,10.08,7.17,5.76,3.77,11.62,7.4,18.06,11.47ZM448.32,63.71c2,1.82,3.7,3.34,5.38,4.89,7.45,6.88,12.12,15.71,16.68,24.51,5.82,11.24,11.3,22.69,13.29,35.39,1.02,6.51,1.83,13.05,2.64,19.6,1.42,11.59,2.8,23.19,4.13,34.79,1.06,9.24,1.99,18.5,3.01,27.75.07.64.39,1.26.62,2,.63-.31,1.02-.51,1.41-.69,8.69-4.16,16.17-10.2,24.16-15.45,3.46-2.28,4.71-4.81,4.75-8.72.13-12.39.66-24.78.7-37.17.04-10.04-1.06-19.95-3.48-29.77-3.36-13.69-7.08-27.2-13.47-39.85-4.36-8.62-9.98-16.19-18.27-21.37-6.18-3.87-12.45-7.77-20.05-8.13-2.49-.12-5.38-.44-7.45.6-5.42,2.74-9.95,6.81-14.05,11.64ZM564.46,386.3c-9.57.7-19.55-.11-29.52-3.33.1,1.51.07,2.47.25,3.39,2.41,11.84,4.51,23.76,7.39,35.49,2.04,8.32,5.11,16.4,7.8,24.56,5.02,15.26,10.61,30.26,18.53,44.34,3.73,6.63,6.12,14,9.68,20.74,5.99,11.31,12.31,22.45,18.72,33.54,3.09,5.34,6.01,10.69,7.73,16.66,2.22,7.66,5.14,15.14,5.19,23.28,0,.62.35,1.23.54,1.85.25,0,.51,0,.76,0,1.07-8.34,2.65-16.66,3.05-25.03.32-6.61-.7-13.31-1.33-19.95-1.75-18.38-3.58-36.74-5.47-55.1-.18-1.79-.66-3.72-1.59-5.22-4.96-8.07-10.11-16.02-15.19-24.01-.61-.96-1.28-1.91-1.74-2.95-3.6-8.2-7.5-16.29-10.61-24.68-3.38-9.12-6-18.52-8.99-27.79-1.63-5.07-3.33-10.12-5.2-15.78ZM176.64,586.09c.17-.02.34-.03.51-.04.08-.49.2-.97.23-1.46.54-11.24,4.21-21.71,8.64-31.81,3.58-8.16,8.36-15.81,12.71-23.62,3.59-6.44,7.54-12.68,10.97-19.2,4.57-8.69,8.79-17.55,13.16-26.35.39-.78.82-1.55,1.13-2.37,4.12-10.64,8.33-21.24,12.27-31.94,2.27-6.17,4.08-12.5,6.16-18.74,3.83-11.5,6.69-23.23,8.37-35.24.55-3.95,1.31-7.88,2.07-12.41-10.28,3.39-20.37,3.97-30.38,3.42-.51,2.64-.79,4.83-1.38,6.94-.61,2.19-1.56,4.28-2.31,6.44-.69,1.99-1.36,3.98-1.96,6-6.06,20.29-12.34,40.46-24.83,58.04-3.75,5.28-6.77,11.09-9.95,16.75-1,1.79-1.82,3.84-2.08,5.86-1.19,9.42-2.23,18.86-3.17,28.31-.98,9.8-1.24,19.7-2.78,29.4-2.22,13.95-.27,27.51,2.21,41.12.06.32.27.62.41.92ZM193.31,184.6c5.23-.82,10.39-1.72,15.59-2.38,1.83-.23,2.77-.99,3.42-2.66,2.33-5.96,1.57-12.09,1.35-18.24-.32-9.11-1.28-18.31-.41-27.33,1.17-12.03,3.55-23.98,5.95-35.85,2.66-13.15,4.54-26.49,9.32-39.19,4.41-11.73,10.98-21.9,19.68-30.84,3.82-3.93,7.33-8.15,10.95-12.22-1.26-.27-3.37-1.14-5.46-1.08-5.86.15-11.81.15-17.55,1.2-9.03,1.65-17.81,4.45-24.44,11.33-6.22,6.45-10.23,14.41-12.67,22.85-5.3,18.28-8.08,37.09-8.91,56.09-.49,11.03-.16,22.13.38,33.17.57,11.57,1.89,23.1,2.74,34.66.26,3.47.04,6.98.04,10.5ZM527.38,16.5c3.15,3.01,6,5.73,8.85,8.46,10.85,10.37,19.41,22.27,23.67,36.82,2.34,7.99,4.35,16.11,5.98,24.28,3.05,15.34,6.38,30.67,8.27,46.17,1.18,9.66-.09,19.61-.17,29.43-.04,4.73-.31,9.51.31,14.17.73,5.57,1.33,5.75,6.84,6.65.26.04.51.12.77.16,4.11.67,8.22,1.34,12.53,2.04,0-.82.03-1.42,0-2.02-.77-11.99.65-23.88,1.98-35.74,1.38-12.26,2.05-24.54,1.45-36.85-.73-15.03-2.91-29.89-5.59-44.7-2.09-11.55-5.53-22.5-11.94-32.38-2.73-4.21-5.94-8.1-10.49-10.54-8.9-4.77-18.51-7.09-28.51-7.8-4.61-.33-9.28-.39-13.94,1.87ZM545.35,853.1c.47-4.6-.36-9.92-3.01-15.05-3.2-6.19-10.95-11.26-17.86-10.83-3.93.25-7.85.9-11.75,1.55-9.85,1.65-18.06,6.08-24,14.33-7.05,9.8-11.69,20.75-15.54,32.09-1.04,3.05-1.65,6.01-.61,9.2.88,2.71,2.33,4.02,5.14,3.84,5.09-.32,10.17-.95,15.26-1.11,15.86-.5,31.28-3.35,46.34-8.23,1-.32,2.2-1.33,2.5-2.28,2.34-7.3,4.2-14.71,3.53-23.52ZM307.03,888.63c2.05-.46,4.67-.33,6.22-1.56,2.56-2.01,3.04-5.47,2.14-8.45-3.69-12.22-8.38-24.02-15.9-34.48-4.01-5.58-8.68-10.51-15.34-12.78-7.68-2.62-15.6-4.26-23.77-4.24-.87,0-1.86-.12-2.61.22-8.09,3.66-14.04,9.47-15.21,18.48-1.33,10.27-.53,20.55,3.02,30.42.36,1.01,1.36,2.23,2.31,2.51,6.15,1.82,12.28,4.02,18.59,4.96,13.37,2,26.85,3.3,40.54,4.92ZM670.6,821.81c-5.63-3.07-8.98-7.22-12.29-11.48-6.65-8.54-14.41-15.43-25.37-18.26-7.66-1.98-14.81-2.05-21.49,2.37-3.71,2.46-7.17,5.36-10.54,8.3-8.15,7.11-11.62,16.06-10.21,26.86.55,4.18.74,8.42,1.49,12.56.94,5.17,2.28,10.27,3.48,15.39.47,2.03,1.56,2.3,3.48,1.47,6.46-2.77,13.02-5.3,19.49-8.05,4.04-1.72,8.09-3.45,11.93-5.55,8.11-4.41,16.13-8.98,24.09-13.65,5.21-3.05,10.24-6.4,15.93-9.98ZM117.05,821.63c2.53,1.7,4.42,3.12,6.44,4.31,11,6.44,22,12.86,33.06,19.18,3.2,1.83,6.51,3.5,9.9,4.93,6.39,2.71,12.89,5.14,19.3,7.79,5.61,2.32,6.22,2.35,7.23-3.56,1.7-9.94,3.02-19.96,4.06-29.99.51-4.98-1.05-9.8-3.91-13.96-5.17-7.51-11.83-13.4-19.99-17.54-5.13-2.61-10.58-2.69-15.95-1.41-9.62,2.29-17.83,6.91-24.35,14.71-4.57,5.47-8.18,12.02-15.79,15.53ZM172.25,467.45c-.9-.12-1.25-.23-1.57-.19-8.41,1.03-16.79,2.41-24.22,6.71-9.03,5.23-17.97,10.67-26.64,16.48-4.91,3.29-9.41,7.29-13.73,11.36-4.28,4.02-6.58,9.51-7.69,15.05-1.54,7.73,3.2,15.44,13.07,16.17,8.34.61,16.67.22,24.79-2.3,3.77-1.17,7.7-1.85,11.44-3.09,4.74-1.56,9.4-3.38,14.01-5.28.85-.35,1.68-1.55,1.9-2.51.54-2.39.67-4.86,1.07-7.29,2.06-12.37,4.15-24.74,6.22-37.11.43-2.58.86-5.15,1.34-8ZM615.52,467.21c.38,2.68.64,5,1.06,7.3,1.67,9.06,3.52,18.09,5.06,27.17.98,5.79,1.47,11.67,2.33,17.48.16,1.09.78,2.48,1.63,3.01,2,1.23,4.2,2.25,6.45,2.95,5.36,1.66,10.88,2.83,16.19,4.66,8.9,3.06,18.02,3.82,27.29,3.32,9.78-.52,15.29-7.93,13.63-16.2-1.53-7.59-5.48-14.29-11.62-19.27-10.87-8.82-22.55-16.44-34.92-23.02-8.29-4.41-17.16-6.53-27.1-7.4ZM758.8,683.5c.55-.92.84-1.23.94-1.6,2.28-7.93,4.94-15.78,6.74-23.82,5.41-24.29,6.75-49.04,7.3-73.83.04-1.75-.76-3.85-1.87-5.24-3.67-4.61-8.87-7.23-14.27-9.05-7.43-2.51-14.34.23-21.01,3.37-.78.37-1.44,1.34-1.81,2.18-2.71,6.26-4.93,12.81-4.09,19.64.8,6.46,2.36,12.91,4.34,19.13,2.92,9.17,6.14,18.29,9.91,27.14,5.21,12.22,10.9,24.21,12.61,37.58.17,1.33.68,2.62,1.19,4.51ZM28.42,682.76l.68.09c.41-1.77.88-3.53,1.2-5.31,1.55-8.5,3.66-16.81,7.36-24.68,7.43-15.82,13.73-32.04,18.01-49.05,2.42-9.6,1.08-18.61-2.53-27.49-.52-1.29-1.62-2.85-2.8-3.26-4.44-1.55-8.96-3.34-13.57-3.82-8.34-.87-14.61,4.03-20.57,9.08-1.95,1.65-2.46,3.92-2.35,6.44.48,10.44.6,20.91,1.4,31.32,1.7,22.23,5.61,44.07,12.55,65.31.16.48.42.92.64,1.38ZM568.84,386.3c.13,1.48.04,2.57.34,3.54,1.48,4.77,3.31,9.43,4.55,14.26,3.3,12.81,8.11,25.04,13.7,36.97,2.64,5.63,5.68,11.06,8.64,16.53,1.08,1.99,2.57,3.76,3.71,5.73,1.53,2.67,2.9,5.43,4.34,8.15.42-.6.43-1.03.35-1.44-1.98-9.73-3.92-19.46-5.99-29.17-.65-3.05-.26-5.34,1.77-6.62,2.35-1.48,4.5-.7,6.61.71,1.45.97,2.94,2.03,4.57,2.55,8.7,2.78,17.45,5.41,26.19,8.07.37.11.79.05,1.34.08-10.48-20.78-21.47-41.13-23.37-64.76-15.35,4.29-30.79,5.41-46.74,5.42ZM218.9,386.3c-16.11-.02-31.57-1.14-46.92-5.44-1.86,23.56-12.83,43.92-23.44,64.92,1.19-.24,1.94-.34,2.65-.55,4.28-1.31,8.64-2.43,12.82-4.02,6.11-2.32,12.91-2.83,18.32-7.09,1.58-1.24,3.73-1.04,5.41.37,1.91,1.61,2.07,3.7,1.58,6.01-1.95,9.2-3.85,18.41-5.75,27.62-.18.88-.27,1.79-.4,2.68,1.53-1.65,2.36-3.57,3.44-5.32,2.71-4.4,6.05-8.49,8.22-13.14,4.99-10.65,9.74-21.43,14-32.39,3.46-8.9,6.1-18.11,8.99-27.22.6-1.89.68-3.94,1.09-6.43ZM393.66,886.47c.02-.28.04-.56.05-.84,3.69,0,7.43.4,11.04-.09,5.36-.73,11.29-.46,15.03-5.52,1.75-2.37,3.49-4.89,4.56-7.61,2.36-6.03,3.5-12.27-.83-17.98-2.74-3.62-5.75-7.05-8.88-10.34-2.45-2.58-5.78-3.34-9.29-3.84-7.62-1.08-15.17-1.18-22.81-.04-3.79.57-7.22,1.53-9.97,4.22-2.19,2.15-4.56,4.23-6.26,6.74-2,2.94-4.26,6.16-4.8,9.51-1,6.24,1.11,12.23,4.67,17.39,2.16,3.13,4.89,5.9,9.23,6.29,6.1.55,12.17,1.4,18.25,2.12ZM694.25,793.47c.27.05.54.1.81.15,1.53-2.44,3.13-4.83,4.58-7.31,6.6-11.3,13-22.73,19.8-33.91,4.29-7.05,9.15-13.75,13.78-20.59,1.02-1.51,1.3-2.92.29-4.63-5.75-9.73-14.03-16.32-24.7-19.85-6.15-2.03-14.19.62-16.96,6.47-2.51,5.3-4.33,11.18-5.14,16.98-.86,6.19-.27,12.59-.15,18.9.25,12.61,1.93,25.02,5.39,37.16.64,2.25,1.52,4.43,2.29,6.64ZM92.99,793.94c.5-1.03.8-1.47.93-1.95,1.8-6.52,3.62-13.03,5.33-19.57.37-1.43.35-2.96.44-4.45.5-8.15.73-16.33,1.52-24.46.9-9.31-.34-18.17-3.88-26.81-2.27-5.55-6.66-8.39-12.04-10.08-1.12-.35-2.5-.5-3.62-.19-11.95,3.3-21.39,10.04-27.57,20.93-.55.97-.46,2.81.1,3.81,2.12,3.74,4.5,7.35,6.89,10.93,3.95,5.92,8.27,11.62,11.93,17.71,5.39,8.96,10.31,18.21,15.49,27.3,1.28,2.24,2.81,4.34,4.45,6.85ZM110.58,629.53c.6,2.09-.13,4.42,2.41,5.6,6.48,3.03,13.26,5.01,20.4,3.68,4.32-.8,8.42-2.75,12.64-4.1,9.13-2.93,17.13-7.58,23.47-14.9,1.98-2.28,2.75-4.73,1.9-7.75-2.23-7.95-4.39-15.92-6.47-23.91-.41-1.56-1.22-2.05-2.63-1.77-2.06.41-4.14.81-6.15,1.4-10.52,3.11-20.28,7.9-29.48,13.83-5.32,3.43-9.84,7.66-12.02,13.86-.84,2.4-1.77,4.77-2.49,7.21-.66,2.24-1.08,4.56-1.6,6.84ZM676.75,629.74c-.13-1.13-.09-2.3-.41-3.37-1.02-3.44-2.05-6.88-3.32-10.23-.83-2.18-1.88-4.34-3.19-6.27-3.62-5.33-9.2-8.23-14.48-11.58-8.12-5.15-17.08-8.19-26.08-11.19-1.24-.41-2.58-.48-3.88-.71-1.47-.25-2.22.31-2.61,1.82-2.15,8.16-4.37,16.3-6.61,24.43-.69,2.51-.23,4.85,1.5,6.61,2.89,2.93,5.95,5.72,9.14,8.33,5.96,4.89,13.53,6.57,20.38,9.59,8.37,3.69,17,2.22,25.39-1.06,3.12-1.22,4.57-3.04,4.18-6.38ZM234.49,692.19c-8.03-5.1-16.3-9.52-23.6-15.2-7.32-5.7-13.67-12.64-20.51-19.09-.93,3.48-1.68,6.8-2.72,10.02-1.05,3.26-2.43,6.4-3.59,9.62-.89,2.46-2.08,4.9-2.43,7.45-.68,5.04-1,10.14-1.23,15.22-.31,7.07,3.91,12.11,10.97,12.52,4.04.23,8.16-.59,12.23-.99,5.97-.59,11.43-2.49,16.21-6.26,5.29-4.17,11-7.86,14.65-13.3ZM552.57,691.64c5.65,7.37,12.76,12.34,20.13,16.97,1.23.77,2.69,1.34,4.12,1.61,5.5,1.03,11.01,2.25,16.57,2.72,4.9.41,9.62-.82,11.95-5.87.99-2.14,1.87-4.66,1.74-6.94-.39-6.47-.52-13.13-2.26-19.29-2.11-7.46-6.1-14.38-7.16-22.23-.03-.2-.3-.37-.83-1-12.26,14.47-26.53,26.24-44.25,34.02ZM434.46,697.01c1.4,2.93,2.36,5.26,3.58,7.45,6.28,11.23,14.94,20.28,25.56,27.49,4.4,2.99,8.92,5.61,14.47,5.6,2.57,0,4.39-1.21,5.34-3.51.97-2.34,1.52-4.85,2.56-7.15,2.7-6,2.55-12.3,2.13-18.61-.27-3.99-2.13-5.75-6.14-6.26-2.44-.31-4.91-.32-7.35-.56-10.12-1-20.25-2-30.37-3.07-3.02-.32-6.01-.84-9.79-1.38ZM353,697.21c-1.87.17-2.91.21-3.94.38-4.86.76-9.69,1.83-14.57,2.28-9.35.87-18.74,1.32-28.1,2.08-4.96.4-6.46,2.25-6.97,7.18-.92,8.83,1.34,17.01,4.79,24.97,1,2.3,2.81,3.45,5.39,3.45,5.07,0,9.32-2.23,13.38-4.91,11.18-7.37,20.19-16.81,26.78-28.49,1.14-2.03,1.98-4.22,3.24-6.95ZM450.85,481.24l.41-.15c-.07-.66-.13-1.32-.2-1.99-.85-8.29-1.73-16.57-2.55-24.86-.52-5.24-.76-10.52-1.48-15.73-2.51-18.18-5.09-36.35-7.82-54.5-1.05-6.98-2.57-13.9-3.88-20.84-.25-.04-.49-.09-.74-.13-.62,2.02-1.72,4.02-1.79,6.05-.43,11.49-.95,22.99-.77,34.48.17,10.78,1.1,21.56,1.83,32.33.2,2.96.65,5.94,1.38,8.81,2.52,9.8,6.4,19.08,11.2,27.98,1.52,2.82,2.95,5.7,4.42,8.55ZM353.22,363.08c-.31.05-.62.09-.94.14-.12.47-.27.92-.35,1.4-2.64,15.59-5.53,31.14-7.84,46.78-1.94,13.12-3.31,26.32-4.78,39.5-1.05,9.42-1.85,18.86-2.76,28.29-.07.69-.16,1.39-.25,2.08,4.09-7.15,7.94-14.34,11.06-21.82,3.91-9.4,7.23-19.01,6.52-29.53-.24-3.57-.04-7.24.49-10.79,2.34-15.77,1.5-31.58.82-47.38-.12-2.91-1.3-5.78-1.98-8.67ZM650.47,447.36c-.08-.42-.1-.86-.25-1.24-6.99-17.36-10.82-35.63-15.53-53.65-1.77-6.77-2.58-13.64-1.88-20.64.07-.66,0-1.33,0-2.48-4.88,3.4-9.4,6.5-13.84,9.72-.39.28-.4,1.3-.34,1.95.8,9.14,2.81,17.95,6.14,26.55,4.74,12.23,10.29,24.02,16.8,35.4,2.26,3.95,3.97,4.96,8.9,4.4ZM155.2,369.65c-.26,5.58.21,11.07-.9,16.23-4.16,19.43-8.9,38.74-15.7,57.47-.47,1.29-.99,2.57-1.5,3.91,3.83.63,6.88-.3,7.9-2.28,4.05-7.89,8.4-15.64,12.07-23.7,5.75-12.63,11.02-25.48,11.8-39.62.05-.91.11-2.3-.41-2.69-4.35-3.22-8.84-6.25-13.25-9.32ZM372.95,693.31c3.9,4.65,7.43,9,11.11,13.23,5.56,6.4,14.05,6.31,19.65-.13,3.4-3.91,6.79-7.82,10.18-11.73.27-.31.47-.69.91-1.34-14.07-3.67-27.82-3.7-41.84-.03ZM388.2,562.02c.2-.27.41-.53.61-.8-2.33-4.69-4.46-9.5-7.1-14-.95-1.62-3-2.92-4.83-3.62-5.58-2.13-11.06-1.25-16.6.82-6.99,2.62-12.6,10.22-12.47,18.05,1.65-.14,3.42.08,4.88-.49,6.58-2.57,13.07-5.34,19.58-8.08,1.37-.58,2.6-1.6,4.01-1.94.94-.23,2.37.06,3.04.69.48.46.32,1.96,0,2.82-.38,1.02-1.25,1.85-2.22,3.21,3.89,1.17,7.51,2.25,11.12,3.34ZM439.75,562.7c.2-.29.4-.59.59-.88-.74-2.31-1.31-4.7-2.26-6.93-2.66-6.21-7.23-9.89-13.96-11.61-4.39-1.12-8.48-1.09-12.59.11-1.97.57-4.33,1.73-5.31,3.36-2.83,4.67-5.06,9.71-7.52,14.61.2.23.39.46.59.69,3.66-1.1,7.32-2.19,11.32-3.39-.98-1.27-1.81-1.95-2.09-2.8-.34-1.04-.68-2.65-.15-3.25.58-.65,2.16-.61,3.28-.51.81.07,1.56.75,2.37,1.1,6.31,2.75,12.58,5.6,18.96,8.16,2.1.84,4.5.92,6.77,1.34Z" style="fill: #000; stroke-width: 0px;"/>
  <path d="M249.52,302.22c6.98,7.64,6.66,21.26,1.18,26.92-4.96,5.12-10.78,8.98-18.46,6.78-2.19-.63-4.17-2.15-6.12-3.44-1.13-.75-1.93-.97-3.28-.32-11.73,5.62-24.76-1.53-27.02-14.39-3.31-18.77,10.83-40.25,25.01-45.74,9.61-3.72,23.96-.22,29.5,8.47,3.61,5.65,5.57,12.88-.81,21.73ZM246.31,298.78c4.06-7.71,1.92-17.77-7.2-20.8-3.63-1.21-7.14-1.3-10.86-.91-5.04.53-9.37,2.42-13.44,5.41-7.54,5.55-11.35,13.43-14.2,21.91-2.82,8.38-.33,16.22,6.78,21.44,4.21,3.09,8.83,4.14,13.59,1.46-.69-3.08-1.6-6.02-1.97-9.03-1.04-8.51,1-15.75,9.21-20.04,3.44-1.8,6.97-3.51,11.02-2.11,2.38.82,4.72,1.77,7.07,2.67ZM235.03,305.61c-5.18.3-9.38,1.86-9.39,8.48,0,4.2.54,8.82,4.3,10.7,5.69,2.85,11.75,2.58,14.13-5.45,1.91-6.44-2.8-13.56-9.04-13.73Z" style="fill: #000; stroke-width: 0px;"/>
  <path d="M538.11,302.18c-5.28-6.83-5.28-14.03-1.25-21.05,3.39-5.9,9.31-8.52,15.73-10.1,9.2-2.27,16.84,1.07,23.5,6.9,7.86,6.88,12.98,15.61,15.28,25.82,1.26,5.62,1.26,11.33-.41,16.91-3.4,11.35-15.3,16.28-25.89,11.64-1.68-.73-2.64-.45-3.97.43-1.88,1.24-3.83,2.5-5.93,3.27-8.14,2.99-21.85-6.03-22.12-16.21-.17-6.5.62-12.4,5.06-17.61ZM567.12,327.67c1.03.26,2.81,1.14,4.55,1.08,10.16-.35,18.71-11.51,15.99-21.34-1.46-5.26-3.94-10.27-6.29-15.24-2.69-5.68-7.4-9.67-12.89-12.27-3.7-1.75-7.98-2.73-12.08-3.06-5.67-.46-10.97,1.02-14.59,6.07-3.75,5.21-2.65,10.53-.8,15.71,3.47-1.04,6.69-2.72,9.97-2.84,7.01-.25,17.94,6.21,17.71,17-.1,4.76-.97,9.5-1.55,14.88ZM552.92,305.32c-1.66.47-3.57.56-4.94,1.47-5.18,3.43-6.29,11.78-2.44,16.7,2.81,3.59,11.12,3.74,13.64.12,2.09-3.01,3.23-6.39,2.74-10.17-.67-5.18-3.65-7.82-9-8.12Z" style="fill: #000; stroke-width: 0px;"/>
</svg>