<?xml version="1.0" encoding="UTF-8"?>
<svg id="Layer_1" data-name="Layer 1" xmlns="http://www.w3.org/2000/svg" viewBox="0 0 662.45 900">
  <path d="M92.72,444.21c.17-.9.47-1.81.49-2.71.29-21.12.45-42.23-2.38-63.24-.45-3.36-1.69-5.41-5.12-6.05-4.88-.91-9.69-2.35-14.6-2.87-9.22-.98-15.84-5.28-19.73-13.75-1.53-3.35-3.05-6.71-4.8-9.94-7.37-13.6-14.7-27.21-22.28-40.69-7.71-13.71-15.28-27.52-19.9-42.59-6.07-19.77-6.66-39.63,3.41-58.42,11.08-20.67,27.87-33.39,51.87-35.95,14.96-1.6,29.89-3.28,44.27,2.36,14.29,5.61,28.29,11.97,42.41,18.02.69.3,1.33.72,2.03,1.02,3.1,1.33,3.79,1.02,4.49-2.2,1.94-8.88,3.82-17.77,5.76-26.65,3.46-15.84,11.87-27.25,27.94-32.45,13.55-4.39,27.41-7.2,41.4-9.61,12.09-2.08,24.17-4.42,34.66-11.27,8.6-5.62,16.93-11.67,25.37-17.54.31-.22.5-.62.92-1.18-.97-.41-1.71-.79-2.5-1.03-7.09-2.12-12.03-6.67-15.09-13.32-4.5-9.79-6.83-20.06-6.66-30.85.1-6.21,1.79-11.99,5.25-17.16C281.88,8.27,298.86-.07,320.1.28c3.69.06,7.36,1.84,11.97,3.07,5.57-4.33,13.11-3.6,20.68-2.53,15.33,2.17,27.67,9.51,37.2,21.65,5.73,7.3,8.32,15.57,7.74,24.85-.55,8.84-2.51,17.33-6.01,25.48-3.17,7.38-8.3,12.58-16.17,14.81-.67.19-1.29.59-2.72,1.28.94.52,1.44.74,1.88,1.04,6.01,4.25,12.01,8.52,18.02,12.76,9.77,6.9,20.44,11.59,32.23,13.96,15.27,3.06,30.47,6.49,45.68,9.84,2.21.49,4.31,1.44,6.47,2.13,15.23,4.85,23.07,16.08,26.53,30.96,2.06,8.85,3.84,17.77,5.76,26.65.99,4.58,1.37,4.59,5.81,2.62,12.85-5.72,25.74-11.36,38.67-16.89,15.72-6.73,31.99-5.54,48.57-4.1,39.22,3.41,65.39,41.79,59.11,79.86-2.23,13.48-6.97,25.94-13.23,37.84-7.3,13.88-15.43,27.32-22.92,41.11-4.43,8.17-8.32,16.64-12.44,24.98-.82,1.65-1.61,3.31-2.42,4.96-3.7,7.54-9.81,11.43-18.08,12.58-5.54.77-10.99,2.22-16.49,3.33-2.75.56-3.82,2.3-4.2,5-2.63,18.62-2.87,37.33-2.57,56.08.05,3.24.2,6.48.35,9.72.01.27.32.52.81,1.28.83-.99,1.52-1.81,2.2-2.64,3.14-3.85,5.97-8.01,9.46-11.5,8.62-8.63,21.25-5.71,25.89,7.1.8,2.2,1.02,4.66,1.23,7.02,1.03,11.87,1.83,23.75,2.98,35.61.99,10.16-.91,20.07-1.87,30.08-.4,4.19-.66,8.42-.72,12.63-.27,17.53-.68,35.07-.52,52.6.06,6.33,1.29,12.7,2.45,18.96,1.65,8.94,3.78,17.79,5.61,26.7,1.28,6.25,1.39,12.47-1.1,18.53-4.15,10.08-13.4,14.94-23.95,12.07-4.45-1.21-8.56-3.64-12.96-5.1-3.86-1.28-7.9-2.03-11.88-2.9-2.25-.49-3.5.48-3.6,2.88-.31,7.23-.76,14.45-.97,21.68-.26,9.42-.06,18.85-.56,28.25-.81,15.1-.14,30.15,2.21,45.02,1.48,9.36,4.63,18.45,6.9,27.7,4.85,19.78,5.49,39.78.72,59.54-4.12,17.07-12.09,32.53-24.61,45.09-13.31,13.35-29.9,19.85-48.52,21.52-3.43.31-6.84.92-10.26,1.38-6.21.83-12.39,1.97-18.63,2.41-8.31.57-16.66.88-24.98.76-6.79-.09-13.58-.89-20.36-1.53-5.49-.52-10.95-1.5-16.45-1.88-10.59-.73-21.02-2.03-31.44-4.46-8.89-2.07-18.25-2.14-27.38-3.25-3.83-.47-7.58-1.6-11.41-2.02-6.78-.74-13.41-.15-20.19,1.33-7.77,1.7-15.91,1.67-23.86,2.65-4.39.54-8.69,1.7-13.06,2.41-6.18,1.01-12.37,2.01-18.59,2.75-6.98.83-14.12.78-20.98,2.15-14.44,2.88-28.92,1.39-43.39,1.32-9.02-.04-17.94-.83-26.66-3.34-1.34-.39-2.77-.53-4.17-.6-30.6-1.72-52.79-16.14-67.15-43.34-13.69-25.93-14.47-53-8.83-80.9.66-3.29,1.35-6.6,2.41-9.77,7.19-21.55,7.68-43.77,7.03-66.16-.31-10.7.14-21.42-.08-32.12-.12-5.72-.94-11.43-1.43-17.14-.17-1.94-1.31-2.71-3.1-2.35-3.79.75-7.65,1.35-11.31,2.52-3.48,1.12-6.71,3.01-10.13,4.37-14.69,5.84-28.12-2.27-29.46-18.06-.37-4.35.24-8.87,1.02-13.2,1.47-8.2,3.31-16.34,5.16-24.47,2.4-10.56,2.32-21.19,1.96-31.95-.54-16.33-.18-32.69-.42-49.04-.06-4.31-1.19-8.59-1.36-12.9-.33-8.52-.72-17.07-.36-25.58.42-10.05,1.59-20.07,2.44-30.11.44-5.11,1.25-9.97,4.99-14.06,6.21-6.8,15.1-7.72,21.77-1.34,3.64,3.48,6.53,7.75,9.74,11.69.72.89,1.33,1.87,1.99,2.8.32-.06.65-.12.97-.18ZM413.05,879.17c19.95-2.01,41.51-3.95,63-6.46,10.38-1.21,20.12-4.97,29.5-9.66,24.32-12.18,39.41-31.22,43.75-58.34,2.42-15.17.92-30.24-1.33-45.28-2.04-13.69-4.25-27.3-3.12-41.32.94-11.63.24-23.39.84-35.06,1.03-19.89,3.3-39.74,3.62-59.63.52-32.25.04-64.52-.29-96.78-.3-29.36-.13-58.69,2.7-87.95,1.86-19.29,3.59-38.59,5.29-57.9.38-4.32-.14-4.83-4.43-4.48-12.51,1.01-25.02,2.19-37.53,3.27-1.92.16-2.05.98-1.91,2.78.43,5.57.61,11.16.64,16.74.01,3.12-.56,6.24-.72,9.37-.32,6.36-.37,12.74-.86,19.08-.42,5.48-4.75,9.35-10.17,8.61-3.03-.41-6.15-1.99-8.67-3.82-3.39-2.46-6.46-5.47-9.29-8.58-11.39-12.55-26.16-18.46-42.24-21.88-12.43-2.64-24.55-1.95-36.2,3.5-6.37,2.98-12.73,6-19.07,9.04-5.56,2.67-10.99,5.64-16.66,8.04-5.95,2.53-10.49.79-13.22-4.98-4.32-9.15-7.8-18.61-8.09-28.89-.08-2.68-1.15-3.7-3.68-3.69-8.96.01-17.92.02-26.89-.05-2.94-.02-4.13,1.04-4.24,4.19-.35,10.15-3.79,19.52-8.14,28.54-2.7,5.61-7.14,7.15-13.01,5.02-1.32-.48-2.61-1.06-3.87-1.69-6.86-3.46-13.55-7.33-20.6-10.34-8.32-3.56-16.74-8.13-25.49-9.2-22.45-2.76-42.88,3.35-60.13,18.52-4.15,3.64-7.99,7.63-12.1,11.31-1.75,1.57-3.69,3.1-5.8,4.09-6.32,2.96-13.42-.4-14.35-6.9-.74-5.23-.87-10.55-1.18-15.84-.25-4.31-.15-8.65-.56-12.94-.56-5.84-1.24-11.65.62-17.38.73-2.24-.66-2.54-2.38-2.7-8.19-.78-16.37-1.67-24.56-2.41-4.42-.4-8.86-.53-13.28-.9-2.72-.23-3.77.89-3.58,3.56.25,3.46.21,6.93.55,10.38,1.8,18.65,3.78,37.27,5.49,55.93,2.75,30.03,2.34,60.14,1.89,90.25-.47,32.36-2.25,64.69.36,97.08,1.82,22.54,2.3,45.18,3.4,67.78.99,20.14.8,40.15-2.78,60.16-1.89,10.58-2.4,21.57-2.09,32.34.69,24.14,9.53,44.74,29.21,59.71,10.98,8.35,23.1,14.77,36.67,17.48,11.54,2.3,23.29,3.73,35.02,4.83,16.47,1.54,32.94,4.09,49.56,2.33,14.84-1.57,29.61-3.46,44.63-3.04,7.34.2,14.68-.55,21.97.96,1.24.26,2.61.22,3.87.01,15.09-2.52,30.22-.31,45.33-.5,2.46-.03,4.91.78,7.39,1.03,8.5.87,17.01,1.67,27.21,2.66ZM235.22,274.4c0-.45,0-.89,0-1.34,7.79,0,15.58.12,23.37-.02,16.23-.29,32.47-.64,48.7-1.11,9.4-.27,18.8-1.27,28.19-1.15,12,.16,23.98,1.31,35.98,1.69,23.8.76,47.62.94,71.41,1.99,39.36,1.74,78.53,2.2,117.17-7.67,15.45-3.94,30.94-7.52,45.4-14.38,14.07-6.67,24.64-17.02,31.66-30.98,1.46-2.9,1.62-5.58-.19-8.26-2.35-3.49-4.72-6.98-7.19-10.39-9.58-13.17-29.67-15.68-41.43-10.4-11.35,5.1-22.92,9.73-34.14,15.1-8.41,4.03-17.06,6.92-26.25,8.05-6.13.76-11.88,2.42-17.16,5.55-7.49,4.44-15.81,6.26-24.11,8.38-17.16,4.38-34.8,4.09-52.23,5.6-20.88,1.81-41.73-.48-62.53-2.61-8.28-.85-16.59-1.43-24.9-1.95-8.18-.51-16.4-1.37-24.55-1.03-10.89.47-21.74,1.89-32.6,3.02-20.47,2.12-40.96,3.93-61.57,2.71-7.99-.47-15.95-1.59-23.95-1.84-13.43-.42-26.43-3.13-39.28-6.68-4.02-1.11-7.91-2.89-11.64-4.81-6.21-3.19-12.54-5.65-19.58-6.46-9.09-1.04-17.6-4.1-25.91-8.05-11.53-5.47-23.13-10.94-35.12-15.25-14.15-5.07-27.34-2.59-38.1,8.62-2.61,2.72-4.66,5.95-7.03,8.91-4.11,5.14-3.92,9.99-.45,15.69,9.21,15.14,22.35,25.13,38.8,30.95,29.46,10.42,59.81,17.31,90.99,18.58,26.02,1.06,52.14-.23,78.22-.48ZM642.09,234.02c-.28-.09-.55-.19-.83-.28-.61.84-1.28,1.66-1.83,2.54-4.67,7.39-10.33,13.89-17.39,19.11-8.09,5.98-17.11,10.18-26.46,13.68-28.15,10.54-57.39,15.62-87.32,16.87-49.41,2.07-98.69-1.64-147.99-3.89-19.28-.88-38.42-1.39-57.7.02-21.69,1.58-43.46,2.42-65.2,2.92-28.34.64-56.72,1.33-85.05.7-29.39-.66-58.06-6.35-85.69-16.66-18.15-6.77-34.16-16.39-44.34-33.68-.32-.54-.98-.89-2.34-2.08,0,6.47-.56,12.02.1,17.42,2.56,21.03,10.66,38.7,30.96,48.53,10.32,5,21.15,8.63,32.4,10.28,18.83,2.76,37.75,5.09,56.71,6.85,38.38,3.55,76.79,6.69,115.41,5.27,18.17-.67,36.4-.32,54.5-1.76,14.18-1.14,28.13-.74,42.3-.04,29.93,1.48,59.99,2.87,89.89,1.68,39.12-1.56,78.17-5.37,117.2-8.8,17.84-1.57,35.3-5.53,51.64-13.33,8.67-4.14,16.28-9.63,21.04-18.18,4.47-8.05,8.96-16.28,9.87-25.59.7-7.12.14-14.36.14-21.54ZM622.32,304.71c-1.21.52-1.74.65-2.17.94-14.28,9.42-30.23,14.51-46.88,17.35-31.21,5.31-62.77,7.98-94.35,8.8-37.31.98-74.68.31-112.02-.1-9.69-.11-19.46-1.32-28.98-3.15-4.72-.91-8.72-1.2-13.47,0-6.97,1.77-14.3,2.7-21.51,2.89-20.12.54-40.27.16-60.39.78-48.83,1.52-97.39-1.59-145.75-7.95-19.46-2.56-38.18-7.81-54.85-18.78-.38-.25-.9-.29-1.51-.48.04.62,0,.95.09,1.23,4.22,12.15,10.71,22.88,19.85,32,8.12,8.11,17.55,13.25,29.28,13.54,3.57.09,7.13.44,10.68.8,12.81,1.29,25.59,3.29,38.43,3.82,22.5.94,44.95,2.13,67.38,4.37,22.17,2.21,44.47,3.16,66.71,4.73,17.78,1.25,35.46,3.85,53.41,2.59,9.02-.63,18.16.66,27.2.19,19.13-.99,38.22-2.66,57.33-3.89,37.26-2.38,74.33-7.09,111.71-8.04,17.48-.44,34.89-3.31,52.35-4.79,9.25-.78,17.01-4.32,23.91-10.43,11.06-9.78,18.56-21.77,23.53-36.44ZM415.06,226.74c9.74-.65,24.48-1.06,39.07-2.79,13.18-1.57,26.2-4.52,39.25-7.05,1.33-.26,3.43-1.74,3.45-2.69.12-6.99.62-14.13-.6-20.94-1.36-7.62-4.47-14.91-6.64-22.4-.78-2.67-1.89-2.77-4.2-1.68-5.19,2.44-10.42,4.82-15.79,6.83-29.05,10.88-59.41,11.7-89.74,10.02-28.02-1.55-55.99-3.29-83.96-.74-22.78,2.08-45.43,1.33-68.08-.86-17.76-1.72-34.5-7.19-50.46-15.06-2.84-1.4-3.9-.92-4.73,2.07-1.67,6.05-3.52,12.06-5.58,17.99-2,5.75-2.68,11.61-2.16,17.6.88,10.27-1.55,8.7,9.69,11.38,36.86,8.79,74.17,9.25,111.7,5.75,20.26-1.89,40.55-3.52,60.93-2.11,20.95,1.46,41.89,2.89,67.84,4.67ZM330.92,175.28c15.34.44,30.48.97,45.62,1.28,5.94.12,11.9-.05,17.84-.39,7.78-.44,15.53-1.5,23.31-1.73,22.22-.66,43.08-6.83,63.43-15.2,3.49-1.44,3.58-1.88,1.52-5.17-4-6.41-9.92-9.99-17.23-10.93-5.56-.72-11.22-.7-16.84-.92-20.61-.79-40.42-4.48-58.29-15.57-.79-.49-2.48-.12-3.47.39-8.14,4.23-16.11,8.8-24.33,12.86-8.74,4.32-18.07,4.77-27.61,3.23-2.39-.39-4.95-.4-7.34-.01-9.42,1.52-18.65,1.16-27.31-3.1-8.33-4.09-16.4-8.7-24.65-12.95-1.05-.54-2.86-.8-3.74-.26-15.82,9.72-33.24,13.85-51.53,14.98-7.67.47-15.38.45-23,1.31-7.41.84-13.48,4.45-17.48,11.06-2.03,3.36-2.02,3.7,1.58,5.14,19.07,7.61,38.43,13.97,59.23,14.81,14.8.6,29.58,2.2,44.38,2.39,15.35.2,30.71-.77,45.89-1.22ZM381.96,119.07c-3.97-4.88-7.42-9.02-10.76-13.25-4.1-5.2-7.88-10.56-9.54-17.17-.26-1.04-1.77-2.47-2.77-2.53-11.32-.68-22.65-1.4-33.98-1.55-6.57-.08-13.14.99-19.73,1.27-3.01.13-4.49,1.21-5.01,4.24-.34,1.97-1.18,4.01-2.32,5.66-3.72,5.43-7.63,10.73-11.54,16.02-1.71,2.31-3.62,4.49-5.93,7.33,15.25,7.93,30.13,14.61,47.16,15.45,19.74.97,36.94-6.21,54.42-15.48ZM74.91,506.46l-.55-.09c-.12,1.7-.3,3.39-.35,5.09-.18,6.38-.31,12.77-.46,19.15-.37,16.33-.16,32.71-1.32,48.98-.78,10.96-3.59,21.76-5.25,32.67-.56,3.71-.77,7.58-.4,11.3.51,5.17,5.57,8.85,9.86,7.31,5.9-2.12,11.87-3.23,18.13-3.02.78.03,2.27-1.01,2.27-1.55,0-3.06-.36-6.12-.64-9.74-1.74.74-2.8,1.2-3.86,1.65-3.28,1.4-6.47,3.12-9.87,4.11-4.93,1.44-8.33-2.28-7.17-7.14.84-3.53,1.3-7.17,1.69-10.79.71-6.66,1.18-13.35,1.89-20.01.26-2.46,1.04-4.98,4.14-4.88,2.88.09,3.58,2.49,3.79,4.86.56,6.35,1.02,12.71,1.5,19.07.08,1.03.01,2.07.01,3.07,7.24.64,7.15.63,6.95-5.95-.69-22.72-1.72-45.44-1.69-68.16.01-6.77-4.67-9.36-7.56-13.77-.43,1.16-.4,2.21-.43,3.24-.17,5.08-.3,10.17-.56,15.25-.11,2.17-.75,4.28-3.44,4.28-2.69,0-3.21-2.13-3.52-4.27-.09-.64-.14-1.29-.2-1.94-.99-9.57-1.97-19.15-2.96-28.72ZM576.84,518.7c-.3-.05-.59-.1-.89-.14-2.84,4.28-8.21,7.24-6.74,13.81.25,1.13-.03,2.37-.07,3.56-.7,22.51-1.34,45.01-2.16,67.52-.15,4.19,2.74,2.9,4.8,3.28,2.76.5,2.2-1.47,2.3-3.05.44-6.47.88-12.94,1.43-19.4.2-2.38.96-4.72,3.86-4.77,2.92-.05,3.75,2.31,4.01,4.66.74,6.55,1.25,13.13,1.98,19.68.43,3.83.87,7.69,1.72,11.43,1.04,4.54-2.05,8.22-6.67,7.2-2.5-.55-4.86-1.78-7.25-2.79-2.13-.9-4.21-1.93-6.91-3.18-.3,3.36-.49,5.91-.76,8.46-.24,2.29.82,2.79,2.99,3.05,5.65.67,11.28,1.6,16.85,2.79,2.55.54,4.64.35,6.74-1.11,2.97-2.06,4.22-5.07,3.96-8.43-.44-5.7-.93-11.45-2.09-17.04-3.08-14.89-4.97-29.86-4.96-45.11.01-16.78-.44-33.56-.71-50.34-.01-.9-.16-1.79-.24-2.69-.83,1.31-.95,2.64-1.09,3.97-.91,9.05-1.81,18.1-2.76,27.14-.23,2.18-.92,4.26-3.58,4.19-2.64-.07-3.23-2.15-3.37-4.36-.15-2.27-.35-4.54-.39-6.81-.06-3.84-.02-7.68-.02-11.51ZM74.42,498.12c5.72-3.92,6.47-3.92,11.11.81,1.94,1.98,3.47,4.37,5.21,6.56.46.58.99,1.11,1.48,1.66.39-.14.78-.27,1.17-.41-.58-5.07-.11-10.56-1.96-15.11-3.43-8.48-8.19-16.43-12.43-24.58-.5-.96-1.2-1.81-1.81-2.71l-.99.25c-1.94,10.96-1.82,22.03-1.77,33.52ZM586.44,464.93c-.41-.1-.83-.21-1.24-.31-.62.94-1.32,1.83-1.84,2.82-4.2,8.04-8.49,16.03-12.49,24.17-2.4,4.89-1.07,10.11-.7,15.28,1.32-1.33,2.13-2.84,3.16-4.17,1.12-1.44,2.39-2.77,3.69-4.06,4.4-4.36,5.44-4.44,10.89-.51.1-11.39.17-22.35-1.47-33.22Z" style="fill: #000; stroke-width: 0px;"/>
  <path d="M413.05,879.17c-10.21-.99-18.71-1.79-27.21-2.66-2.47-.25-4.93-1.06-7.39-1.03-15.11.19-30.25-2.03-45.33.5-1.26.21-2.63.25-3.87-.01-7.29-1.51-14.64-.76-21.97-.96-15.02-.42-29.79,1.47-44.63,3.04-16.62,1.75-33.09-.79-49.56-2.33-11.72-1.1-23.48-2.54-35.02-4.83-13.56-2.7-25.69-9.13-36.67-17.48-19.68-14.97-28.52-35.58-29.21-59.71-.31-10.77.2-21.76,2.09-32.34,3.57-20.01,3.76-40.02,2.78-60.16-1.11-22.6-1.59-45.24-3.4-67.78-2.61-32.38-.83-64.72-.36-97.08.44-30.11.86-60.22-1.89-90.25-1.71-18.65-3.69-37.28-5.49-55.93-.33-3.45-.3-6.92-.55-10.38-.19-2.67.86-3.79,3.58-3.56,4.42.38,8.86.5,13.28.9,8.19.74,16.37,1.63,24.56,2.41,1.72.16,3.11.46,2.38,2.7-1.86,5.74-1.18,11.54-.62,17.38.41,4.29.31,8.63.56,12.94.3,5.29.43,10.61,1.18,15.84.93,6.51,8.03,9.86,14.35,6.9,2.11-.99,4.04-2.52,5.8-4.09,4.11-3.68,7.95-7.67,12.1-11.31,17.26-15.17,37.68-21.28,60.13-18.52,8.75,1.08,17.17,5.64,25.49,9.2,7.05,3.02,13.74,6.88,20.6,10.34,1.25.63,2.55,1.21,3.87,1.69,5.87,2.13,10.31.59,13.01-5.02,4.34-9.02,7.78-18.39,8.14-28.54.11-3.15,1.31-4.22,4.24-4.19,8.96.07,17.92.07,26.89.05,2.53,0,3.61,1.02,3.68,3.69.29,10.28,3.77,19.74,8.09,28.89,2.73,5.77,7.27,7.5,13.22,4.98,5.67-2.41,11.1-5.37,16.66-8.04,6.34-3.05,12.69-6.07,19.07-9.04,11.65-5.44,23.77-6.13,36.2-3.5,16.09,3.41,30.85,9.33,42.24,21.88,2.83,3.12,5.9,6.12,9.29,8.58,2.52,1.83,5.64,3.41,8.67,3.82,5.42.74,9.75-3.13,10.17-8.61.49-6.34.54-12.72.86-19.08.16-3.13.74-6.25.72-9.37-.02-5.58-.21-11.18-.64-16.74-.14-1.8,0-2.62,1.91-2.78,12.51-1.07,25.01-2.25,37.53-3.27,4.29-.35,4.81.17,4.43,4.48-1.69,19.31-3.42,38.61-5.29,57.9-2.83,29.26-3,58.59-2.7,87.95.33,32.26.81,64.53.29,96.78-.32,19.89-2.59,39.74-3.62,59.63-.6,11.67.1,23.43-.84,35.06-1.13,14.02,1.08,27.62,3.12,41.32,2.24,15.04,3.75,30.11,1.33,45.28-4.34,27.12-19.42,46.16-43.75,58.34-9.38,4.7-19.12,8.45-29.5,9.66-21.49,2.51-43.05,4.45-63,6.46ZM239.86,651.33l-.62,1.1c.64,3.7,1.37,7.39,1.88,11.11.32,2.34.14,4.79-2.59,5.65-2.79.88-4.05-1.22-5.26-3.24-2.06-3.43-4.19-6.82-6.26-10.25-1.79-2.95-4.16-3.59-7.12-1.84-2.88,1.7-5.73,3.45-8.56,5.22-2.21,1.38-2.2,2.65-.6,4.91,2.27,3.21,3.9,6.91,5.51,10.54.92,2.07.9,4.43-1.59,5.6-2.29,1.08-3.85-.35-5.24-2.06-1.5-1.84-2.99-3.73-4.71-5.35-2.4-2.25-3.58-2.06-4.78.91-1.41,3.5-2.86,7.07-3.54,10.75-1.86,10.04-1.54,19.93,4.49,28.73,4.09,5.97,6.38,5.9,9.53-.51,2.47-5.03,4.23-10.41,6.29-15.64.81-2.04,1.93-3.8,4.45-3.44,2.51.36,3.49,2.37,3.26,4.53-.53,5.01-1.39,9.99-2.18,14.98-.18,1.16-.59,2.28-.9,3.42.25.16.5.32.75.48,2.54-1.6,5.07-3.2,7.61-4.81,5.19-3.3,7.32-8.03,6.65-14.1-.39-3.55-.7-7.11-1.08-10.66-.24-2.25-.34-4.54,2.23-5.49,2.74-1.01,4.33.83,5.38,2.97,1.47,3,3.46,6.02,3.87,9.2.79,6.15,4.73,8.14,9.84,9.58,17.58,4.95,33.52,1.52,48.45-8.67,4.69-3.2,9.93-5.77,15.24-7.78,4.04-1.53,8.73-2.81,12.89-2.29,8.75,1.09,16.67,4.88,24.18,9.73,5.41,3.5,11.28,6.47,17.29,8.81,11.93,4.64,23.86,2.48,35.59-1.34,2.8-.91,4.1-2.97,4.9-5.88,1.12-4.02,2.89-7.88,4.59-11.71.88-1.99,2.52-3.42,4.94-2.68,2.46.75,2.7,2.84,2.49,5.02-.35,3.66-.81,7.32-1.05,10.99-.58,8.72,6.05,17.01,15.23,18.73-.46-1.38-1.03-2.55-1.22-3.76-.8-5.09-1.72-10.18-2.03-15.31-.08-1.26,1.83-3.51,3.1-3.72,1.23-.21,3.38,1.3,4.09,2.62,1.48,2.73,2.13,5.9,3.4,8.76,1.57,3.55,3.41,6.98,5.17,10.44,1.4,2.75,3.34,2.61,5.02.49,2.06-2.6,4.38-5.24,5.52-8.27,4.43-11.77,3.2-23.37-2.04-34.67-1.02-2.2-2.44-2.4-4.02-.87-2.01,1.95-3.85,4.08-5.68,6.21-1.4,1.62-2.98,2.71-5.07,1.61-2.09-1.09-2.43-3.17-1.57-5.07,1.72-3.81,3.46-7.68,5.79-11.11,1.47-2.17,1.49-3.39-.56-4.69-2.92-1.84-5.87-3.62-8.84-5.39-3.05-1.81-5.32-.78-7.07,2.03-1.82,2.94-3.65,5.89-5.5,8.81-1.45,2.3-2.43,5.75-6.11,4.45-3.51-1.24-2.64-4.59-2.26-7.31.44-3.16,1.2-6.28,1.83-9.45-.58-.16-.89-.33-1.18-.32-10.51.47-15.37,4.54-17.53,14.67-.34,1.59-.6,3.19-.9,4.79-.36,1.91-.38,3.99-1.18,5.69-.64,1.36-2.31,3.21-3.38,3.13-1.38-.11-3.24-1.7-3.78-3.09-.88-2.26-.86-4.87-1.22-7.33-.16-1.08-.32-2.17-.48-3.25-.32-.13-.64-.26-.96-.39-3.27,3.42-6.59,6.8-9.79,10.28-3.18,3.47-6.94,4.47-11.47,3.34-6.4-1.6-12.25-4.37-17.42-8.42-7.16-5.6-14.53-9.8-24.28-8.86-4.63.44-9.02.84-12.99,3.27-2.95,1.81-5.55,4.22-8.59,5.81-5.61,2.95-11.32,5.77-17.2,8.11-4.19,1.67-8.05.23-11.16-3.13-2.5-2.7-5.08-5.33-7.68-7.93-.84-.84-1.88-1.49-3.19-2.51-.5,3.65-.86,6.64-1.34,9.61-.38,2.34-1.11,4.66-4.02,4.67-2.94.01-3.54-2.31-4-4.66-.92-4.67-1.69-9.39-2.98-13.96-.58-2.07-1.8-4.7-3.5-5.58-4.14-2.13-8.73-3.38-13.13-4.98ZM330.97,772.46c1.26,1.28,2.07,2.14,2.91,2.96,8.67,8.34,22.72,6.2,28.09-4.57,1.58-3.17,3.43-4.11,6.73-4.1,9.41,0,18.83-.07,28.23-.53,7.59-.37,13.66-4.01,16.8-11,4.17-9.26,8.09-18.69,11.34-28.3,2.8-8.28-1.85-13.75-10.69-13.68-5.84.04-11.69.05-17.53.25-6.27.21-12.53.51-18.78.97-8.94.66-17.87,1.6-26.81,2.24-6.31.46-12.48,1.21-18.19,4.23-.91.48-2.46.62-3.31.17-6.93-3.72-14.43-4.17-22.05-4.49-6.58-.27-13.13-1.24-19.71-1.57-13.92-.7-27.85-1.44-41.79-1.67-6.73-.11-10.37,4.89-9.39,11.57.19,1.28.47,2.57.94,3.77,3.08,7.86,6.18,15.71,9.36,23.53,3.68,9.04,10.41,13.92,20.2,14.19,9.09.25,18.18.33,27.27.35,2.68,0,4.23.82,5.47,3.44,5.47,11.62,20.2,13.83,29.06,4.54.59-.62,1.08-1.33,1.86-2.3ZM276.74,591.35c-.14-1.98-.27-3.02-.28-4.05-.09-7.26,2.49-13.62,7.03-19.11,4.34-5.25,8.8-10.43,13.55-15.31,12.21-12.55,15.28-28.5,17.02-44.93.13-1.2-1.4-3.22-2.61-3.68-.84-.32-2.98,1.1-3.6,2.25-1.22,2.25-1.92,4.82-2.62,7.32-3.34,12.01-9.74,22.05-18.87,30.53-4.75,4.41-9.22,9.16-13.47,14.06-6.16,7.09-10.46,15.18-10.96,24.79-.18,3.44.14,6.91.42,10.36.17,2.06-.5,3.08-2.59,3.17-1.08.05-2.16.21-3.22.37-10.45,1.61-16.05,8.35-14.67,18.84,1.99,15.22,10.19,27.8,26.5,31.66,6.63,1.57,13.24,3.27,19.84,4.98,16.24,4.2,31.72-1.38,41.44-15.01.43-.61.63-1.38,1.01-2.27,1.23,1.34,1.71,1.77,2.08,2.28,9.93,13.69,25.11,19.18,41.46,15.01,6.19-1.58,12.36-3.24,18.6-4.6,15.04-3.28,23.47-13.07,27.12-27.47,3.47-13.72-2.44-22.08-16.49-23.69-.11-.01-.22-.03-.32-.03-2.52-.02-3.36-1.13-2.96-3.71,1.99-12.66-1.43-23.91-9.71-33.51-5.43-6.3-11.38-12.17-17.23-18.09-6.58-6.65-11.67-14.18-14.55-23.14-1.13-3.5-2.37-6.97-3.55-10.46-.73-2.15-1.66-4.36-4.41-3.77-2.99.65-2.77,3.21-2.42,5.53.59,3.85,1.29,7.69,1.9,11.54,1.98,12.44,7.18,23.25,15.91,32.42,4.77,5.01,9.3,10.27,13.64,15.66,4.43,5.49,6.54,11.91,6.22,19.03-.03.77-.32,1.53-.61,2.83-1.48-1.1-2.51-1.83-3.5-2.61-2.34-1.81-4.8-2.5-7.47-.72-2.43,1.62-3.63,4.85-2.37,7.77.92,2.13,2.24,4.31,3.95,5.81,5.29,4.67,10.88,8.95,18.29,9.83,2.14.25,4.21,1.02,6.33,1.43,2.1.4,2.85,1.27,1.69,3.34-3.09,5.53-7.08,9.95-13.13,12.48-8.69,3.64-17.8,5.23-27,6.79-6.85,1.16-12.34-.78-17.24-5.32-1.19-1.1-2.44-2.16-3.55-3.33-2.43-2.56-5.14-2.85-8.28-1.44-.88.4-2.22.8-2.9.42-4-2.25-7.03-1.25-10.09,1.94-2.29,2.39-5.03,4.52-7.92,6.11-2.16,1.19-4.95,2.05-7.37,1.86-10.82-.84-21.46-2.7-31.51-7.15-4.72-2.09-8.43-5.15-11.19-9.51-3.42-5.41-3.53-5.68,2.69-6.73,8.64-1.44,16.16-4.95,22.17-11.23,1.87-1.96,3.36-4.91,3.64-7.56.2-1.83-1.6-4.34-3.2-5.77-1.86-1.67-4.3-.83-6.29.6-1.2.86-2.38,1.76-4.33,3.2ZM440.14,417.05c-2.72.37-7.78.88-12.77,1.75-17.36,3.02-32.65,9.95-45.38,22.63-6.38,6.36-14.07,11.39-21.16,17.04-2.19,1.75-4.82,3.21-6.37,5.43-1.19,1.7-1.53,4.43-1.28,6.6.27,2.43,2.78,2.66,4.89,2.82,9.36.7,17.81,4.59,26.27,8.04,16.44,6.71,32.86,12.99,51.13,10.8.85-.1,1.73-.02,2.6-.04,14.99-.44,28.87-4.82,41.13-13.21,8.2-5.61,16.68-7.5,26.36-6.75,3.33.26,6.94-1.12,10.18-2.4,2.52-.99,3.03-4.02,1.29-6.38-1.59-2.15-3.5-4.14-5.56-5.84-9.34-7.7-18.7-15.38-28.23-22.85-12-9.41-24.9-16.92-43.1-17.64ZM231.67,492.92c16.55,1.11,30.97-5.73,45.73-11.32,8.67-3.28,17.12-7.38,26.55-8.25,2.2-.2,4.47-.32,5.33-2.86.92-2.7.3-5.25-1.71-7.18-1.86-1.79-4.04-3.23-6.08-4.84-6.94-5.49-14.51-10.36-20.68-16.61-16.54-16.73-36.91-23.45-59.67-24.61-3.31-.17-6.77.14-9.99.92-12.89,3.13-23.91,9.79-34.01,18.25-8.12,6.8-16.5,13.28-24.68,20-2.49,2.04-4.97,4.21-6.97,6.71-2.18,2.73-1.22,5.82,1.95,7.19,3.38,1.47,6.78,2.46,10.67,1.96,8.79-1.13,16.92.66,24.2,6.13,7.73,5.8,16.71,9.29,25.96,11.48,7.61,1.8,15.58,2.08,23.39,3.03ZM536.19,777.87c0-3.68.15-7.36-.03-11.03-.27-5.51-.7-11.02-1.2-16.51-.28-3.15-2.37-5.09-4.96-4.95-2.6.15-4.36,2.36-4.31,5.51.02.97.18,1.94.31,2.9,1.79,13.09,3.38,26.18,2.79,39.45-.78,17.57-6.8,33.14-17.5,46.99-6.51,8.43-15.06,12.8-25.73,12.89-2.38.02-4.76-.14-7.14-.18-2.11-.04-4.07.47-4.36,2.9-.29,2.42,1.4,3.5,3.53,3.82,3.63.55,7.27,1.2,10.93,1.42,13.47.8,24.23-4.44,32.39-15.09,6.77-8.83,11.02-18.82,13.36-29.65,2.74-12.7,2.54-25.59,1.9-38.48ZM125.4,780.62c.21,0,.41.01.62.02,0,7.04-.33,14.09.07,21.1.94,16.7,5.61,32.22,16.31,45.41,12.04,14.85,27.21,15.97,43.19,12.21,1.11-.26,2.59-2.38,2.46-3.46-.13-1.09-1.92-2.41-3.23-2.82-1.46-.45-3.21,0-4.83.06-9.82.33-18.98-1.72-25.62-9.42-4.42-5.12-8.35-10.8-11.67-16.7-9.08-16.11-10.35-33.74-8.81-51.72.67-7.76,1.82-15.48,2.68-23.23.42-3.8-1.22-6.4-4.03-6.68-2.87-.29-4.99,1.96-5.24,5.73-.66,9.83-1.26,19.66-1.89,29.49ZM133.45,463.7c.1,0,.19-.02.29-.03-1.49-14.32-2.79-28.67-4.51-42.96-1.4-11.6-3.22-23.16-5.07-34.7-.63-3.93-3.52-6.02-6.45-5.43-2.97.6-4.43,3.49-3.91,7.49,1.69,12.99,3.09,26.03,5.1,38.97,2.43,15.61,5.36,31.15,8.1,46.71.4,2.25,1.17,4.51,3.97,4.22,3.02-.32,3.16-2.8,3.03-5.2-.16-3.03-.36-6.05-.54-9.08ZM527.99,464.31l.82.1c-.14,2.37-.28,4.75-.42,7.12-.16,2.59-.8,5.77,2.7,6.34,3.83.62,3.94-2.87,4.5-5.44,5.82-26.33,9.1-53.05,12.27-79.79.28-2.36.77-4.71.78-7.07.01-2.5-1.31-4.37-3.88-4.94-2.57-.57-4.52.63-5.62,2.84-.76,1.52-1.23,3.25-1.45,4.94-3.28,25.3-6.49,50.6-9.71,75.9ZM308.6,833.85c.77-.69,2.63-1.58,2.67-2.56.06-1.4-.83-3.51-1.97-4.15-3.76-2.12-7.79-3.75-11.75-5.5-19.58-8.65-38.41-18.5-54.08-33.48-2.5-2.39-5.71-2.36-7.52-.28-1.79,2.06-1.4,5.13,1.13,7.5,2.53,2.36,5.2,4.57,7.77,6.89,17.41,15.71,37.45,26.3,60.52,30.94.85.17,1.69.34,3.22.64ZM353.76,833.82c1.44-.28,2.18-.42,2.92-.56,27.14-5.09,49.24-19.3,68.77-38.1,2.55-2.45,2.77-5.47.78-7.47-1.93-1.95-4.85-1.63-7.57.57-6.04,4.89-11.95,9.97-18.28,14.46-13.22,9.38-28.17,15.53-42.84,22.18-1.67.76-3.59,1.27-4.9,2.44-1.01.9-1.84,2.77-1.63,4.02.18,1.05,1.98,1.82,2.74,2.45ZM248.81,510.25c-.89.83-2.85,2.03-3.95,3.78-11.32,18.05-24.27,34.73-40.26,48.94-9.46,8.4-18.86,16.87-28.29,25.3-1.78,1.59-3.64,3.41-1.55,5.72,2.07,2.29,4.11.62,5.91-.9,1.9-1.6,3.78-3.24,5.68-4.83,24.19-20.28,46.8-42.08,65.35-67.8.94-1.3,1.93-2.67,2.41-4.17,1.01-3.1-1.01-5.92-5.3-6.04ZM407.42,514.86c1.01,1.87,1.68,3.47,2.65,4.84,20.22,28.39,45.55,51.78,72.18,73.91.57.48,1.26,1.11,1.92,1.13,1.1.04,2.66,0,3.2-.66.65-.81.78-2.4.51-3.5-.22-.92-1.26-1.7-2.06-2.41-6.29-5.63-12.51-11.35-18.94-16.82-19.6-16.71-36.49-35.72-49.69-57.9-.54-.9-1.33-2.02-2.21-2.26-1.55-.41-3.49-.72-4.83-.11-1.2.55-1.8,2.4-2.74,3.79ZM213.35,523.58c-1.19-1.4-2.05-3.14-3.45-3.91-2.25-1.23-4.52-.28-6.04,1.67-2.39,3.07-4.37,6.46-6.88,9.41-10.78,12.67-21.68,25.23-32.56,37.81-1.59,1.84-3.63,3.78-1.33,6.1,2.32,2.34,4.34.32,6.12-1.3,4.48-4.06,8.98-8.12,13.39-12.25,10.44-9.77,20.39-19.97,28.07-32.14.96-1.52,1.61-3.22,2.67-5.4ZM449.64,524.34c.08.37.07,1.1.39,1.62,1.61,2.69,3.17,5.41,4.99,7.96,11.04,15.46,25.27,27.84,39.21,40.49.32.29.71.71,1.06.7,1.31-.02,3.05.26,3.79-.45.74-.71.85-2.58.53-3.74-.32-1.14-1.49-2.07-2.38-3.01-13.58-14.29-26.58-29.06-37.78-45.34-.72-1.04-1.67-2.06-2.75-2.68-3.36-1.92-7.1.35-7.05,4.44ZM535.15,658.9c-.05-1.32-.96-3.39-3.85-3.86-2.54-.41-4.84,1.4-5.44,4.47-3.56,18.39-4.47,36.94-3.14,55.61.15,2.13.91,3.96,3.32,4.07,2.42.11,3.46-1.66,3.67-3.76,1.81-18.41,3.55-36.82,5.44-56.54ZM139.66,698.76c.48-.04.96-.07,1.44-.11-1.5-12.88-2.94-25.77-4.54-38.64-.44-3.54-2.86-5.43-5.64-4.96-2.78.47-4.16,2.98-3.64,6.58.49,3.43,1.11,6.84,1.42,10.28,1.3,14.23,2.49,28.47,3.75,42.7.2,2.3.88,4.56,3.62,4.57,3.03.02,3.54-2.45,3.57-4.84.08-5.19.02-10.39.02-15.58ZM355.75,863.54c6.9-.18,12.68-4.2,17.17-10.32,1.44-1.97,1.55-4.35-.25-6.29-1.9-2.06-4.23-1.87-6.54-.68-.66.34-1.26.84-1.82,1.34-3.88,3.36-8.44,4.73-13.5,4.49-2.7-.13-5.4-.73-8.07-.54-1.47.1-3.76,1.16-4.04,2.23-.36,1.34.49,3.74,1.64,4.6,4.2,3.17,9,5.11,15.41,5.16ZM309.99,863.6c2.28-.91,6.68-2.53,10.95-4.44,2.17-.97,3.88-2.7,2.86-5.41-.96-2.56-3.26-2.56-5.48-2.21-7.97,1.23-15.45.79-21.88-5.05-1.97-1.79-4.71-1.73-6.74.45-1.92,2.06-1.7,4.49-.12,6.54,4.53,5.9,10.2,9.9,20.4,10.12Z" style="fill: #fff; stroke-width: 0px;"/>
  <path d="M235.22,274.4c-26.08.25-52.2,1.54-78.22.48-31.17-1.27-61.53-8.16-90.99-18.58-16.45-5.82-29.59-15.81-38.8-30.95-3.47-5.7-3.67-10.55.45-15.69,2.36-2.95,4.42-6.19,7.03-8.91,10.76-11.21,23.96-13.69,38.1-8.62,11.99,4.3,23.59,9.77,35.12,15.25,8.31,3.94,16.82,7.01,25.91,8.05,7.05.8,13.37,3.26,19.58,6.46,3.73,1.91,7.62,3.7,11.64,4.81,12.85,3.55,25.85,6.26,39.28,6.68,7.99.25,15.96,1.37,23.95,1.84,20.61,1.22,41.1-.58,61.57-2.71,10.86-1.12,21.71-2.55,32.6-3.02,8.15-.35,16.37.51,24.55,1.03,8.31.52,16.62,1.1,24.9,1.95,20.8,2.14,41.65,4.42,62.53,2.61,17.43-1.51,35.07-1.23,52.23-5.6,8.3-2.12,16.62-3.94,24.11-8.38,5.28-3.13,11.02-4.79,17.16-5.55,9.19-1.13,17.84-4.03,26.25-8.05,11.22-5.37,22.79-10,34.14-15.1,11.76-5.29,31.85-2.77,41.43,10.4,2.48,3.41,4.84,6.9,7.19,10.39,1.81,2.69,1.65,5.37.19,8.26-7.03,13.96-17.59,24.31-31.66,30.98-14.47,6.86-29.95,10.43-45.4,14.38-38.65,9.87-77.81,9.4-117.17,7.67-23.79-1.05-47.61-1.23-71.41-1.99-12-.38-23.98-1.53-35.98-1.69-9.39-.12-18.79.88-28.19,1.15-16.23.47-32.46.82-48.7,1.11-7.79.14-15.58.02-23.37.02,0,.45,0,.89,0,1.34ZM84.94,221.61c-.04-3.44-2.22-8.96-7.43-12.56-3.58-2.47-7.71-4.44-11.88-5.74-15.01-4.69-28.45,6.84-26.52,22.49,1.3,10.52,7.55,16.45,18.11,17.21,1.4.1,2.85.13,4.17.55,11.47,3.66,23.56-6.46,23.54-21.96ZM623.41,223.05c-.03-13.17-10.62-23.05-22.96-20.57-5.36,1.08-10.73,3.53-15.36,6.5-7.46,4.79-9.61,15.32-5.8,23.84,3.82,8.54,12.09,12.74,21.22,10.83,1.48-.31,2.99-.61,4.49-.62,11.91-.07,18.47-9.39,18.41-19.98ZM536.26,264.33c2.7-.64,6.65-1.35,10.45-2.51,7.66-2.34,11.88-7.84,12.65-15.65.79-7.97-2.22-14.55-9.05-18.86-6.58-4.15-13.55-4.05-19.83.47-3.71,2.67-7.11,6.07-9.85,9.74-4.03,5.39-4.85,11.59-1.5,17.74,3.37,6.2,9,8.76,17.13,9.07ZM125.65,264.38c8.76-.47,14.28-3.04,17.6-9.09,3.22-5.86,2.81-12-1.06-17.19-3.11-4.17-6.95-8.13-11.27-10.97-8.68-5.72-20.23-2.16-25.36,7.1-5.33,9.61-2.42,21.75,6.84,26.12,4.7,2.22,10.04,3.09,13.25,4.04ZM351.08,248.93c.01-8.85-7.44-15.16-16.14-13.89-2.5.37-5.15.32-7.66-.02-7.95-1.07-15.03,4.27-15.83,12.16-.86,8.51,4.66,15.55,12.77,15.96,4.49.23,9.02.23,13.51.02,7.9-.38,13.34-6.3,13.35-14.23ZM184.83,266.77c1.49,0,3.32.37,4.92-.09,2.31-.66,4.95-1.41,6.55-3.01,5.34-5.32,4.41-16.7-1.64-21.24-2.46-1.85-5.34-3.32-8.25-4.35-6.09-2.15-13.26.69-16.96,6.32-3.81,5.79-3.27,12.85,1.27,17.99,3.75,4.24,8.52,5.21,14.09,4.38ZM477.43,266.81v.15c.76,0,1.51-.03,2.27,0,7.88.31,13.96-4.15,15.48-11.37,1.5-7.1-2.61-14.42-9.65-17.16-6.94-2.71-12.74.02-18.02,4.15-4.54,3.56-5.53,8.39-4.35,13.99,1.65,7.8,4.14,10.1,12,10.23.76.01,1.51,0,2.27,0ZM382.92,266.05c8.86,0,16.2-6.4,16.1-14.05-.08-6.69-4.99-11.22-12.1-11.18-9.31.06-15.73,5.7-15.66,13.76.06,7.05,4.55,11.46,11.66,11.47ZM278.41,266.04c9.33.08,14.41-6.33,12.44-14.5-1.64-6.8-7.77-10.94-15.82-10.71-4.85.14-8.66,2.01-10.59,6.64-2.03,4.86-1.15,9.4,2.39,13.24,3.33,3.61,7.76,4.93,11.58,5.33ZM231.38,243.04c-6.76.1-10.64,2.78-11.7,7.61-1.06,4.81,1.6,9.54,6.88,11.89,1.85.83,3.86,1.5,5.86,1.77,4.81.65,9.39-1.87,11.32-5.91,1.75-3.67.83-8.58-2.27-11.7-2.97-2.99-6.84-3.46-10.09-3.66ZM431.5,242.78c-2.21.47-4.48.75-6.61,1.46-4.51,1.5-7.5,6.22-7.15,10.87.34,4.53,3.84,8.54,8.8,8.95,2.98.24,6.25-.39,9.07-1.48,5.58-2.16,8.19-7.07,7.08-12.03-1.06-4.75-5.03-7.42-11.18-7.75Z" style="fill: #fff; stroke-width: 0px;"/>
  <path d="M642.09,234.02c0,7.18.56,14.42-.14,21.54-.91,9.31-5.4,17.54-9.87,25.59-4.76,8.55-12.37,14.04-21.04,18.18-16.34,7.8-33.8,11.76-51.64,13.33-39.03,3.43-78.08,7.24-117.2,8.8-29.9,1.19-59.96-.2-89.89-1.68-14.17-.7-28.12-1.09-42.3.04-18.1,1.45-36.33,1.1-54.5,1.76-38.62,1.42-77.04-1.73-115.41-5.27-18.95-1.75-37.87-4.09-56.71-6.85-11.25-1.65-22.08-5.28-32.4-10.28-20.3-9.83-28.39-27.5-30.96-48.53-.66-5.4-.1-10.95-.1-17.42,1.36,1.19,2.02,1.54,2.34,2.08,10.18,17.29,26.18,26.91,44.34,33.68,27.64,10.31,56.31,16,85.69,16.66,28.33.63,56.71-.06,85.05-.7,21.75-.49,43.51-1.34,65.2-2.92,19.28-1.41,38.42-.89,57.7-.02,49.3,2.25,98.58,5.96,147.99,3.89,29.93-1.25,59.17-6.34,87.32-16.87,9.35-3.5,18.38-7.7,26.46-13.68,7.06-5.22,12.72-11.71,17.39-19.11.56-.88,1.22-1.69,1.83-2.54.28.09.55.19.83.28ZM86.68,301.48c3.05-.08,6.17-1.33,7.93-4.77,1.79-3.5,1.24-6.92-.99-10.08-1.25-1.76-2.68-3.39-3.88-5.18-2.98-4.45-7.74-6.21-12.31-4.45-4.79,1.84-7.43,6.8-6.43,12.09,1.31,6.94,7.94,12.4,15.68,12.39ZM575.32,301.47c9.08.05,16.42-7.01,16.29-14.8-.08-4.59-2.91-8.54-7.06-9.86-3.94-1.26-8.49.15-11.04,3.47-1.64,2.14-3.26,4.29-4.81,6.5-2.14,3.06-2.65,6.4-.98,9.8,1.7,3.46,4.76,4.82,7.61,4.89ZM628.36,274.14c.2-6.73-5.47-11.3-11.55-9.13-2.94,1.05-5.81,2.4-8.53,3.93-4.23,2.39-6.21,7.37-4.94,11.66,1.26,4.26,6,8.23,9.87,8.25,7.46.05,14.93-7.21,15.16-14.71ZM34.07,273.69c-.06,5.94,3.52,10.9,10,13.86,6.01,2.74,11.44.62,14.47-5.64,2.29-4.73.02-10.76-5.15-13.43-2.11-1.09-4.31-2-6.48-2.98-6.58-2.95-12.77,1-12.84,8.19ZM269.66,311.56c.49-.05,1.47-.1,2.42-.27,8.58-1.5,11.64-7.95,7.29-15.5-.91-1.58-1.95-3.13-3.14-4.52-3.38-3.92-8.32-4.79-12.93-2.43-4.8,2.46-7.24,8.01-5.93,13.48,1.32,5.52,6.09,9.24,12.29,9.23ZM405.36,299.38c.09-6.33-4.92-11.73-10.94-11.78-6.13-.05-13.38,7.65-13.47,14.32-.07,5.59,4.8,9.52,11.97,9.64,7,.12,12.33-5.09,12.43-12.17ZM207.24,301.61c-.02-6.95-4.23-11.17-11.07-11.09-6.65.08-11.9,5.38-11.89,12.01,0,6.03,4.64,10.72,10.62,10.75,7.22.04,12.37-4.83,12.35-11.67ZM455.15,301.71c.02,6.73,5,11.49,12.12,11.57,6.17.07,10.85-4.61,10.84-10.85-.01-6.77-5.37-11.96-12.29-11.91-6.6.04-10.69,4.33-10.67,11.19ZM230.84,290.72c-2.39.87-4.96,1.42-7.12,2.68-4.44,2.58-5.58,7.6-2.69,11.7,3.18,4.51,7.65,6.98,13.26,6.71,7.69-.37,11.85-8.81,7.58-15.23-2.56-3.85-6.35-5.32-11.03-5.86ZM431.76,290.79c-2.56.73-4.96,1.06-7.03,2.07-4.72,2.31-6.98,7.64-5.5,12.21,1.57,4.84,6.39,7.52,11.89,6.59,4.01-.68,7.27-2.73,9.76-5.86,3.4-4.27,2.43-9.8-2.3-12.47-2.09-1.18-4.55-1.71-6.83-2.53ZM331.07,287.78c-7.07,0-10.94,3.4-10.96,9.64-.02,6.33,4.45,10.87,10.69,10.88,6.9,0,11.39-4.22,11.44-10.77.05-6.37-3.81-9.74-11.17-9.75ZM362.2,311.5c5.52.03,9.75-4.02,9.86-9.47.14-6.73-4.95-13.37-10.26-13.39-4.91-.02-11,6.51-11.04,11.84-.04,5.69,5.45,10.98,11.44,11.02ZM299.99,311.5c6,.04,11.59-5.18,11.62-10.84.03-5.36-5.86-11.9-10.83-12.02-5.28-.14-10.52,6.47-10.46,13.21.04,5.49,4.19,9.62,9.68,9.65ZM540.34,307.76c2.77-.83,5.72-1.31,8.27-2.58,5.13-2.55,6.52-8.65,3.46-13.65-3.05-4.99-8.9-6.17-13.7-2.7-1.4,1.01-2.68,2.18-4.01,3.29-3.08,2.56-4.74,5.66-3.33,9.72,1.15,3.3,4.87,5.44,9.31,5.92ZM122.01,307.64c4.4-.36,8.13-2.47,9.29-5.75,1.42-4.03-.21-7.16-3.22-9.77-1.22-1.06-2.48-2.08-3.73-3.12-3.18-2.64-6.66-3.03-10.25-1.05-3.64,2.01-5.35,5.27-5.28,9.38.07,4.14,2.32,6.95,6.04,8.42,2.28.9,4.77,1.27,7.16,1.88ZM161.32,310.78c5.17.11,9.57-3.51,10.29-8.13.73-4.68-2.06-9.04-7.08-10.08-3.11-.64-6.44-.61-9.64-.37-3.13.23-5.41,2.12-6.43,5.2-1.04,3.17-.25,6.02,1.96,8.42,3.02,3.28,6.94,4.65,10.89,4.96ZM502.42,291.86c-.85.11-2.61.16-4.27.57-5.24,1.31-8.08,5.37-7.34,10.24.76,4.94,5.4,8.77,10.49,7.98,3-.47,6.07-1.63,8.68-3.19,3.75-2.23,5.06-6.15,4.05-9.77-.95-3.41-4.03-5.53-8.48-5.82-.75-.05-1.51,0-3.14,0Z" style="fill: #fff; stroke-width: 0px;"/>
  <path d="M622.32,304.71c-4.97,14.67-12.46,26.66-23.53,36.44-6.9,6.1-14.66,9.64-23.91,10.43-17.47,1.48-34.88,4.35-52.35,4.79-37.39.94-74.46,5.66-111.71,8.04-19.12,1.22-38.2,2.89-57.33,3.89-9.04.47-18.18-.82-27.2-.19-17.95,1.26-35.63-1.34-53.41-2.59-22.24-1.57-44.54-2.51-66.71-4.73-22.43-2.24-44.87-3.44-67.38-4.37-12.84-.54-25.62-2.53-38.43-3.82-3.55-.36-7.12-.71-10.68-.8-11.74-.29-21.16-5.43-29.28-13.54-9.14-9.12-15.63-19.85-19.85-32-.1-.28-.05-.61-.09-1.23.62.19,1.13.23,1.51.48,16.67,10.97,35.4,16.22,54.85,18.78,48.37,6.36,96.93,9.47,145.75,7.95,20.12-.63,40.27-.25,60.39-.78,7.21-.19,14.53-1.12,21.51-2.89,4.75-1.21,8.75-.92,13.47,0,9.52,1.83,19.3,3.05,28.98,3.15,37.34.41,74.7,1.07,112.02.1,31.57-.83,63.13-3.49,94.35-8.8,16.66-2.83,32.6-7.92,46.88-17.35.43-.28.95-.42,2.17-.94ZM345.69,356.27c5.8.04,10.18-4.21,10.19-9.88.02-5.95-4.94-10.74-11.08-10.72-5.44.02-9.68,4.7-9.79,10.79-.1,5.46,4.59,9.76,10.67,9.8ZM316.7,356.27c6.11-.07,10.74-4.34,10.65-9.81-.1-6.09-4.36-10.78-9.77-10.78-6.09,0-11.09,4.86-11.09,10.76,0,5.63,4.44,9.9,10.21,9.83ZM581.76,326.23c-8.05-.37-13.05,4.32-12.44,11.67.36,4.29,3.37,7.17,7.59,6.53,3.59-.55,7.19-1.56,10.56-2.93,3.68-1.49,5.39-5.17,4.75-8.7-.67-3.7-3.29-5.9-7.55-6.34-.97-.1-1.94-.16-2.91-.23ZM80.78,326.21c-.59.05-1.45.11-2.31.18-4.77.41-7.8,2.82-8.36,6.64-.6,4.05,1.94,7.77,6.46,9.26,2.35.78,4.76,1.42,7.18,1.96,5.7,1.27,9.58-2.04,9.36-7.88-.24-6.47-4.87-10.38-12.32-10.16ZM477.89,352.68c5.57,0,9.67-3.69,9.7-8.7.03-5.1-4.56-9.63-9.78-9.65-5.1-.02-9.79,5.09-9.69,10.57.08,4.51,4.19,7.78,9.77,7.78ZM184.35,352.68c5.81.04,9.93-3.31,9.87-8.05-.06-5.33-4.48-10.2-9.35-10.29-5.27-.1-9.98,4.31-10.09,9.44-.1,5.04,4,8.86,9.56,8.9ZM122.14,348.94c3.16-.14,5.72-1.34,7.12-4.28,1.44-3.03.91-5.93-1.16-8.51-3.36-4.18-10.02-5.5-14.74-2.97-4.26,2.28-5.27,7.51-1.91,10.96,2.88,2.96,6.49,4.63,10.69,4.8ZM539.91,348.93c3.99-.03,8.88-2.27,11.16-4.88,3.02-3.44,2.12-8.57-1.9-10.83-4.65-2.61-11.74-1.2-14.99,3.06-1.98,2.61-2.48,5.52-.98,8.53,1.46,2.92,4.07,4.02,6.7,4.11ZM378.25,356c1.67-.77,4.81-1.91,7.63-3.59,2.71-1.62,3.89-4.38,3.23-7.55-.7-3.39-2.92-5.48-6.27-6.27-6.05-1.43-12.28,3.12-13.08,9.5-.56,4.47,2.36,7.81,8.5,7.91ZM281.66,338.32c-4.82.04-8.51,3.49-8.51,7.96,0,4.77,6.24,9.65,12.38,9.69,4.18.03,7.15-2.76,7.16-6.72.02-5.8-5.22-10.98-11.04-10.93ZM444.48,354.29c5.7-.07,9.93-3.71,9.93-8.56,0-4.88-3.87-8.46-9.16-8.47-5.48,0-9.77,4.28-9.66,9.65.09,4.47,3.67,7.45,8.9,7.38ZM217.96,354.29c5.33.03,8.92-3.11,8.87-7.75-.06-5.22-4.33-9.33-9.66-9.29-5.25.04-9.1,3.65-9.08,8.52.02,4.95,4.12,8.48,9.87,8.52ZM411.48,355.12c4.04-.36,7.46-2.19,9.76-5.78,1.58-2.47,1.61-5.15.08-7.66-1.52-2.49-3.96-4.21-6.75-3.45-2.98.81-5.92,2.35-8.41,4.2-2.6,1.93-3.44,4.95-2.09,8.13,1.33,3.14,3.98,4.35,7.42,4.56ZM250.52,355.09c4.79-.06,8.19-3.03,8.33-6.79.17-4.74-5.41-9.99-10.85-10.2-4.31-.17-7.77,2.74-7.86,6.87-.03,1.45.27,3.11,1.01,4.32,2.22,3.66,5.69,5.49,9.37,5.79ZM516.79,341.73c0-4.3-3.51-7.69-7.96-7.69-4.47,0-8.07,3.44-8.02,7.65.04,4.32,3.55,7.72,7.97,7.72,4.4,0,8.02-3.46,8.02-7.68ZM161.54,341.63c-.02-4.28-3.55-7.6-8.05-7.58-4.4.02-7.96,3.5-7.91,7.75.05,4.21,3.73,7.68,8.08,7.61,4.45-.07,7.91-3.48,7.88-7.78Z" style="fill: #fff; stroke-width: 0px;"/>
  <path d="M415.06,226.74c-25.95-1.79-46.9-3.22-67.84-4.67-20.39-1.42-40.67.22-60.93,2.11-37.52,3.5-74.83,3.04-111.7-5.75-11.23-2.68-8.8-1.11-9.69-11.38-.52-5.99.16-11.85,2.16-17.6,2.06-5.93,3.91-11.94,5.58-17.99.83-2.99,1.89-3.47,4.73-2.07,15.95,7.87,32.7,13.34,50.46,15.06,22.65,2.19,45.3,2.93,68.08.86,27.97-2.55,55.94-.81,83.96.74,30.33,1.68,60.69.86,89.74-10.02,5.36-2.01,10.6-4.39,15.79-6.83,2.3-1.08,3.42-.99,4.2,1.68,2.17,7.49,5.29,14.78,6.64,22.4,1.21,6.81.72,13.95.6,20.94-.02.95-2.12,2.43-3.45,2.69-13.05,2.53-26.07,5.48-39.25,7.05-14.58,1.73-29.32,2.14-39.07,2.79ZM486.32,198.96c0-7.24-4.46-12.33-10.88-12.42-7.21-.1-14.18,6-14.23,12.43-.04,6.25,7,12.27,14.35,12.25,6.04-.01,10.75-5.39,10.76-12.26ZM187.13,186.56c-6.54.03-11.15,5.28-11.06,12.58.08,6.87,4.89,12.18,10.93,12.09,7.25-.12,14.14-6,14.16-12.09.03-6.53-6.76-12.61-14.03-12.58ZM227.07,215.12c5.44.03,9.68-2.78,11.04-7.32,1.35-4.48-.4-9.75-4.63-12.09-2.86-1.59-6.11-2.86-9.33-3.37-7.6-1.18-13.06,5.51-10.88,12.91,1.68,5.7,7.46,9.83,13.8,9.87ZM435.07,215.12c6.87.05,13-4.63,14.3-10.9,1.44-7.01-3.78-12.93-10.84-11.95-2.72.38-5.43,1.38-7.95,2.52-5.06,2.29-7.56,7.39-6.43,12.47,1.04,4.69,5.4,7.83,10.93,7.87ZM331.43,191.3c0,.1,0,.2,0,.29-2.04,0-4.13-.26-6.13.05-6.01.92-8.58,6.64-5.63,11.96,3.11,5.6,8.13,6.38,13.85,6.06,4.56-.26,7.32-2.9,9.36-6.5,2.75-4.84.16-10.35-5.33-11.44-1.99-.39-4.07-.3-6.11-.42ZM399.09,192.96c-5.96-.06-10.65,4.82-10.66,11.1-.01,5.62,4.91,10.4,10.69,10.39,5.49-.01,10.21-4.79,10.3-10.42.1-6.02-4.56-11-10.33-11.06ZM263.3,192.96c-5.74.07-10.42,5.12-10.28,11.1.13,5.71,4.78,10.42,10.27,10.39,5.95-.03,10.79-4.92,10.64-10.73-.16-6.18-4.76-10.83-10.63-10.76ZM374.36,202.08c-.09-4.99-4.6-8.95-10.06-8.83-5.42.12-9.75,4.35-9.57,9.36.18,5.06,4.7,9.43,9.72,9.42,5.33-.01,10-4.7,9.91-9.95ZM297.96,212.02c5.13.02,9.68-4.57,9.68-9.76,0-4.87-4.31-8.93-9.56-9.01-5.63-.09-10.07,3.99-10,9.18.06,5.12,4.66,9.58,9.89,9.6Z" style="fill: #fff; stroke-width: 0px;"/>
  <path d="M330.92,175.28c-15.18.45-30.55,1.42-45.89,1.22-14.8-.19-29.58-1.79-44.38-2.39-20.8-.84-40.16-7.2-59.23-14.81-3.6-1.44-3.61-1.77-1.58-5.14,3.99-6.61,10.06-10.22,17.48-11.06,7.62-.86,15.33-.84,23-1.31,18.29-1.13,35.71-5.26,51.53-14.98.88-.54,2.69-.28,3.74.26,8.25,4.25,16.32,8.86,24.65,12.95,8.66,4.25,17.89,4.62,27.31,3.1,2.39-.39,4.95-.38,7.34.01,9.54,1.54,18.87,1.09,27.61-3.23,8.22-4.06,16.19-8.63,24.33-12.86.99-.51,2.68-.88,3.47-.39,17.87,11.09,37.68,14.79,58.29,15.57,5.62.21,11.28.2,16.84.92,7.31.94,13.23,4.52,17.23,10.93,2.06,3.3,1.97,3.74-1.52,5.17-20.35,8.36-41.2,14.53-63.43,15.2-7.78.23-15.53,1.29-23.31,1.73-5.93.34-11.9.51-17.84.39-15.14-.31-30.28-.84-45.62-1.28ZM407.56,154.17c.03-10.75-7.02-16.42-16.7-14.24-1.05.24-2.09.53-3.13.85-5.78,1.76-9.67,5.43-10.45,11.52-.81,6.31,1.72,11.58,6.91,15.09,5.12,3.46,10.28,2.25,15.07-1.21.7-.51,1.44-.96,2.18-1.4,4.31-2.6,5.99-6.61,6.12-10.6ZM254.86,153.2c-.07,8.67,10.11,17.36,18.72,15.98,5.94-.96,10.86-6.65,11.67-13.52.69-5.89-2.69-11.72-8.29-14.07-1.68-.71-3.47-1.2-5.26-1.62-9.64-2.27-16.77,3.35-16.85,13.23ZM431.2,146.2c-5.85-.18-10.95,4.76-11.14,10.81-.17,5.16,4.17,9.22,9.96,9.33,5.52.11,10.53-4.57,10.74-10.03.22-5.58-3.9-9.94-9.56-10.11ZM232.09,166.36c5.74,0,10.22-3.98,10.24-9.09.02-5.96-5.06-11.13-10.88-11.07-5.68.05-9.9,4.27-9.83,9.85.07,5.48,4.98,10.31,10.47,10.31ZM308.04,167.19c5.44-.02,9.18-3.79,9.13-9.19-.05-5.4-3.91-9.59-8.89-9.64-5.06-.05-9.63,4.61-9.65,9.82-.01,5.17,4.01,9.03,9.4,9.01ZM354.41,167.18c5.41,0,9.33-3.79,9.32-9.04,0-5.33-4.42-9.84-9.6-9.78-5.01.05-8.93,4.49-8.85,10.02.08,5.26,3.75,8.81,9.13,8.81ZM203.54,160.74c4.04,0,7.06-2.71,7.11-6.4.06-3.84-3.75-7.14-8.14-7.05-3.65.08-6.53,3.02-6.51,6.65.02,3.85,3.29,6.79,7.54,6.79ZM458.84,160.74c4.22-.02,7.53-3.01,7.53-6.81,0-3.74-3.11-6.75-6.87-6.65-4.32.12-7.77,3.27-7.76,7.1.01,3.66,3.03,6.38,7.09,6.36Z" style="fill: #fff; stroke-width: 0px;"/>
  <path d="M381.96,119.07c-17.48,9.27-34.68,16.45-54.42,15.48-17.03-.84-31.91-7.52-47.16-15.45,2.31-2.84,4.22-5.01,5.93-7.33,3.92-5.29,7.83-10.59,11.54-16.02,1.13-1.66,1.98-3.69,2.32-5.66.52-3.03,2-4.11,5.01-4.24,6.58-.28,13.16-1.35,19.73-1.27,11.33.15,22.66.86,33.98,1.55,1,.06,2.51,1.48,2.77,2.53,1.66,6.6,5.44,11.97,9.54,17.17,3.34,4.23,6.79,8.37,10.76,13.25ZM358.53,111.16c.04-5.02-2.58-10.46-7.95-14.27-5.78-4.1-11.94-6.67-19.51-6.65-7.82.02-14.15,2.75-19.95,7.2-6.99,5.37-9.17,14.72-5.76,22.51,2.84,6.49,10.76,10.22,18.7,9.44,4.79-.47,9.71-.5,14.49.02,11.09,1.21,19.79-5.83,19.98-18.25Z" style="fill: #fff; stroke-width: 0px;"/>
  <path d="M74.91,506.46c.99,9.57,1.97,19.15,2.96,28.72.07.65.11,1.3.2,1.94.31,2.13.83,4.27,3.52,4.27,2.69,0,3.33-2.11,3.44-4.28.26-5.08.39-10.16.56-15.25.03-1.04,0-2.08.43-3.24,2.9,4.41,7.57,7,7.56,13.77-.03,22.72,1,45.44,1.69,68.16.2,6.58.29,6.59-6.95,5.95,0-1,.07-2.04-.01-3.07-.47-6.36-.94-12.72-1.5-19.07-.21-2.37-.91-4.77-3.79-4.86-3.1-.09-3.88,2.43-4.14,4.88-.7,6.66-1.17,13.35-1.89,20.01-.39,3.62-.85,7.26-1.69,10.79-1.16,4.87,2.24,8.58,7.17,7.14,3.4-.99,6.59-2.72,9.87-4.11,1.06-.45,2.12-.91,3.86-1.65.28,3.61.64,6.67.64,9.74,0,.54-1.49,1.57-2.27,1.55-6.26-.21-12.23.9-18.13,3.02-4.29,1.54-9.35-2.14-9.86-7.31-.37-3.72-.16-7.59.4-11.3,1.65-10.91,4.47-21.71,5.25-32.67,1.15-16.28.94-32.65,1.32-48.98.15-6.38.28-12.77.46-19.15.05-1.7.23-3.4.35-5.09l.55.09Z" style="fill: #fff; stroke-width: 0px;"/>
  <path d="M576.84,518.7c0,3.84-.05,7.68.02,11.51.04,2.27.24,4.54.39,6.81.15,2.2.74,4.28,3.37,4.36,2.66.07,3.35-2.01,3.58-4.19.94-9.04,1.84-18.09,2.76-27.14.13-1.33.26-2.67,1.09-3.97.08.9.23,1.79.24,2.69.27,16.78.72,33.56.71,50.34-.01,15.25,1.88,30.21,4.96,45.11,1.15,5.59,1.65,11.34,2.09,17.04.26,3.36-.99,6.37-3.96,8.43-2.1,1.46-4.2,1.65-6.74,1.11-5.56-1.18-11.2-2.11-16.85-2.79-2.18-.26-3.24-.76-2.99-3.05.27-2.55.46-5.11.76-8.46,2.7,1.25,4.78,2.28,6.91,3.18,2.39,1.01,4.75,2.24,7.25,2.79,4.62,1.02,7.71-2.65,6.67-7.2-.85-3.75-1.3-7.6-1.72-11.43-.73-6.55-1.24-13.13-1.98-19.68-.26-2.34-1.1-4.7-4.01-4.66-2.91.05-3.66,2.39-3.86,4.77-.55,6.46-.99,12.93-1.43,19.4-.11,1.58.45,3.56-2.3,3.05-2.06-.37-4.95.92-4.8-3.28.82-22.5,1.46-45.01,2.16-67.52.04-1.19.32-2.44.07-3.56-1.47-6.57,3.9-9.52,6.74-13.81.3.05.59.1.89.14Z" style="fill: #fff; stroke-width: 0px;"/>
  <path d="M74.42,498.12c-.05-11.49-.17-22.56,1.77-33.52l.99-.25c.61.9,1.31,1.75,1.81,2.71,4.24,8.15,9,16.1,12.43,24.58,1.84,4.56,1.38,10.04,1.96,15.11-.39.14-.78.27-1.17.41-.5-.55-1.02-1.08-1.48-1.66-1.74-2.19-3.26-4.58-5.21-6.56-4.63-4.73-5.39-4.73-11.11-.81Z" style="fill: #fff; stroke-width: 0px;"/>
  <path d="M586.44,464.93c1.65,10.88,1.57,21.83,1.47,33.22-5.45-3.93-6.48-3.85-10.89.51-1.3,1.29-2.57,2.62-3.69,4.06-1.03,1.33-1.84,2.83-3.16,4.17-.37-5.17-1.7-10.4.7-15.28,4-8.14,8.29-16.13,12.49-24.17.52-.99,1.22-1.88,1.84-2.82.41.1.83.21,1.24.31Z" style="fill: #fff; stroke-width: 0px;"/>
  <path d="M239.86,651.33c4.41,1.6,9,2.85,13.13,4.98,1.7.87,2.92,3.51,3.5,5.58,1.28,4.57,2.06,9.29,2.98,13.96.46,2.35,1.06,4.67,4,4.66,2.91-.01,3.64-2.33,4.02-4.67.48-2.97.84-5.97,1.34-9.61,1.31,1.02,2.34,1.67,3.19,2.51,2.6,2.6,5.18,5.23,7.68,7.93,3.11,3.36,6.97,4.8,11.16,3.13,5.88-2.34,11.59-5.16,17.2-8.11,3.04-1.6,5.64-4.01,8.59-5.81,3.96-2.43,8.35-2.83,12.99-3.27,9.75-.93,17.12,3.26,24.28,8.86,5.17,4.05,11.01,6.82,17.42,8.42,4.53,1.13,8.29.13,11.47-3.34,3.2-3.49,6.52-6.86,9.79-10.28.32.13.64.26.96.39.16,1.08.32,2.17.48,3.25.36,2.46.34,5.07,1.22,7.33.54,1.39,2.4,2.98,3.78,3.09,1.07.09,2.74-1.77,3.38-3.13.8-1.71.82-3.78,1.18-5.69.3-1.6.56-3.2.9-4.79,2.16-10.13,7.02-14.2,17.53-14.67.3-.01.6.16,1.18.32-.63,3.17-1.39,6.28-1.83,9.45-.38,2.73-1.25,6.07,2.26,7.31,3.68,1.3,4.65-2.15,6.11-4.45,1.85-2.93,3.67-5.87,5.5-8.81,1.75-2.82,4.02-3.85,7.07-2.03,2.97,1.76,5.92,3.54,8.84,5.39,2.05,1.3,2.04,2.52.56,4.69-2.34,3.43-4.07,7.31-5.79,11.11-.86,1.9-.52,3.98,1.57,5.07,2.1,1.1,3.68,0,5.07-1.61,1.83-2.12,3.67-4.26,5.68-6.21,1.58-1.53,3-1.33,4.02.87,5.24,11.3,6.47,22.9,2.04,34.67-1.14,3.03-3.46,5.67-5.52,8.27-1.68,2.12-3.62,2.26-5.02-.49-1.76-3.46-3.59-6.89-5.17-10.44-1.27-2.86-1.91-6.03-3.4-8.76-.71-1.32-2.86-2.83-4.09-2.62-1.26.21-3.17,2.47-3.1,3.72.31,5.13,1.23,10.22,2.03,15.31.19,1.22.76,2.38,1.22,3.76-9.18-1.72-15.81-10.01-15.23-18.73.24-3.67.7-7.33,1.05-10.99.21-2.19-.02-4.27-2.49-5.02-2.42-.74-4.05.69-4.94,2.68-1.7,3.83-3.47,7.69-4.59,11.71-.81,2.91-2.1,4.97-4.9,5.88-11.73,3.82-23.66,5.98-35.59,1.34-6.01-2.34-11.88-5.31-17.29-8.81-7.5-4.85-15.42-8.64-24.18-9.73-4.16-.52-8.85.76-12.89,2.29-5.31,2.01-10.56,4.59-15.24,7.78-14.94,10.19-30.87,13.62-48.45,8.67-5.11-1.44-9.05-3.43-9.84-9.58-.41-3.18-2.4-6.2-3.87-9.2-1.05-2.13-2.64-3.97-5.38-2.97-2.56.94-2.47,3.23-2.23,5.49.38,3.55.69,7.11,1.08,10.66.67,6.07-1.46,10.8-6.65,14.1-2.53,1.61-5.07,3.21-7.61,4.81-.25-.16-.5-.32-.75-.48.31-1.14.72-2.26.9-3.42.78-4.98,1.65-9.96,2.18-14.98.23-2.16-.75-4.17-3.26-4.53-2.53-.36-3.65,1.4-4.45,3.44-2.06,5.23-3.82,10.61-6.29,15.64-3.15,6.41-5.44,6.48-9.53.51-6.03-8.81-6.35-18.69-4.49-28.73.68-3.68,2.13-7.26,3.54-10.75,1.2-2.97,2.38-3.16,4.78-.91,1.73,1.62,3.21,3.5,4.71,5.35,1.39,1.71,2.95,3.13,5.24,2.06,2.5-1.17,2.51-3.53,1.59-5.6-1.61-3.62-3.24-7.32-5.51-10.54-1.6-2.27-1.61-3.53.6-4.91,2.84-1.77,5.69-3.52,8.56-5.22,2.96-1.75,5.34-1.11,7.12,1.84,2.07,3.42,4.21,6.81,6.26,10.25,1.21,2.02,2.47,4.13,5.26,3.24,2.72-.86,2.91-3.31,2.59-5.65-.51-3.72-1.25-7.41-1.88-11.11l.62-1.1Z" style="fill: #000; stroke-width: 0px;"/>
  <path d="M330.97,772.46c-.78.97-1.27,1.68-1.86,2.3-8.86,9.29-23.59,7.08-29.06-4.54-1.23-2.62-2.79-3.43-5.47-3.44-9.09-.02-18.18-.1-27.27-.35-9.79-.27-16.53-5.15-20.2-14.19-3.18-7.82-6.28-15.67-9.36-23.53-.47-1.2-.75-2.49-.94-3.77-.98-6.68,2.66-11.68,9.39-11.57,13.93.23,27.86.96,41.79,1.67,6.58.33,13.13,1.3,19.71,1.57,7.62.31,15.13.77,22.05,4.49.85.46,2.41.31,3.31-.17,5.71-3.02,11.89-3.77,18.19-4.23,8.94-.65,17.87-1.58,26.81-2.24,6.25-.46,12.52-.76,18.78-.97,5.84-.2,11.68-.2,17.53-.25,8.84-.07,13.49,5.4,10.69,13.68-3.25,9.62-7.17,19.04-11.34,28.3-3.14,6.98-9.22,10.63-16.8,11-9.4.46-18.82.53-28.23.53-3.3,0-5.15.94-6.73,4.1-5.36,10.77-19.42,12.91-28.09,4.57-.85-.82-1.65-1.67-2.91-2.96ZM331.34,751.89c2.81,0,5.68.37,8.42-.06,13.67-2.13,27.33-4.38,40.95-6.81,2.83-.5,5.53-1.83,8.22-2.96,2.82-1.18,4.71-3.2,4.24-6.51-.38-2.72-2.91-4.53-6.63-4.52-3.99.02-8.06,0-11.96.69-12.8,2.28-25.63,4.11-38.67,3.89-12.85-.22-25.7.18-38.47-2.33-7.27-1.43-14.8-1.69-22.23-2.18-2.9-.19-5.37,1.22-5.94,4.42-.56,3.12,1.12,5.22,3.86,6.39,2.68,1.15,5.38,2.48,8.2,3.02,16.54,3.19,33,7.09,50.01,6.96Z" style="fill: #000; stroke-width: 0px;"/>
  <path d="M276.74,591.35c1.95-1.44,3.12-2.34,4.33-3.2,1.99-1.43,4.43-2.27,6.29-.6,1.6,1.43,3.39,3.94,3.2,5.77-.28,2.65-1.77,5.6-3.64,7.56-6,6.28-13.53,9.78-22.17,11.23-6.23,1.04-6.11,1.31-2.69,6.73,2.76,4.36,6.47,7.42,11.19,9.51,10.05,4.45,20.69,6.31,31.51,7.15,2.42.19,5.2-.67,7.37-1.86,2.89-1.6,5.63-3.72,7.92-6.11,3.06-3.19,6.09-4.2,10.09-1.94.68.39,2.02-.02,2.9-.42,3.13-1.41,5.85-1.12,8.28,1.44,1.11,1.18,2.36,2.23,3.55,3.33,4.89,4.53,10.38,6.47,17.24,5.32,9.2-1.55,18.32-3.15,27-6.79,6.05-2.53,10.04-6.95,13.13-12.48,1.16-2.07.41-2.94-1.69-3.34-2.12-.41-4.2-1.17-6.33-1.43-7.41-.88-13-5.16-18.29-9.83-1.71-1.51-3.03-3.69-3.95-5.81-1.26-2.92-.07-6.14,2.37-7.77,2.67-1.78,5.13-1.09,7.47.72,1,.77,2.02,1.5,3.5,2.61.29-1.3.57-2.06.61-2.83.32-7.12-1.79-13.54-6.22-19.03-4.34-5.39-8.87-10.65-13.64-15.66-8.73-9.18-13.93-19.98-15.91-32.42-.61-3.85-1.31-7.68-1.9-11.54-.35-2.32-.57-4.88,2.42-5.53,2.75-.59,3.69,1.62,4.41,3.77,1.18,3.49,2.42,6.95,3.55,10.46,2.88,8.96,7.97,16.49,14.55,23.14,5.86,5.92,11.8,11.79,17.23,18.09,8.27,9.6,11.7,20.85,9.71,33.51-.41,2.58.44,3.7,2.96,3.71.11,0,.22.02.32.03,14.05,1.62,19.97,9.97,16.49,23.69-3.65,14.4-12.07,24.18-27.12,27.47-6.24,1.36-12.41,3.03-18.6,4.6-16.35,4.17-31.53-1.31-41.46-15.01-.37-.51-.84-.93-2.08-2.28-.39.89-.58,1.67-1.01,2.27-9.72,13.64-25.2,19.22-41.44,15.01-6.6-1.71-13.21-3.41-19.84-4.98-16.31-3.87-24.51-16.44-26.5-31.66-1.37-10.5,4.23-17.23,14.67-18.84,1.07-.17,2.15-.32,3.22-.37,2.09-.1,2.76-1.11,2.59-3.17-.28-3.44-.6-6.92-.42-10.36.49-9.61,4.8-17.7,10.96-24.79,4.25-4.9,8.72-9.65,13.47-14.06,9.13-8.48,15.54-18.51,18.87-30.53.69-2.5,1.39-5.07,2.62-7.32.63-1.15,2.76-2.57,3.6-2.25,1.21.46,2.73,2.48,2.61,3.68-1.74,16.44-4.81,32.39-17.02,44.93-4.75,4.88-9.21,10.06-13.55,15.31-4.54,5.5-7.12,11.85-7.03,19.11.01,1.03.14,2.07.28,4.05Z" style="fill: #000; stroke-width: 0px;"/>
  <path d="M440.14,417.05c18.2.72,31.1,8.23,43.1,17.64,9.52,7.47,18.88,15.15,28.23,22.85,2.06,1.7,3.98,3.69,5.56,5.84,1.74,2.36,1.23,5.38-1.29,6.38-3.23,1.28-6.85,2.66-10.18,2.4-9.68-.75-18.16,1.14-26.36,6.75-12.27,8.39-26.15,12.78-41.13,13.21-.87.03-1.74-.06-2.6.04-18.27,2.18-34.69-4.09-51.13-10.8-8.46-3.45-16.91-7.34-26.27-8.04-2.11-.16-4.62-.39-4.89-2.82-.24-2.16.09-4.89,1.28-6.6,1.55-2.21,4.18-3.68,6.37-5.43,7.09-5.65,14.78-10.69,21.16-17.04,12.73-12.68,28.02-19.62,45.38-22.63,4.99-.87,10.05-1.38,12.77-1.75ZM410.82,451.27c-.97.58-1.3.67-1.48.9-.26.33-.57.74-.59,1.13-.29,6.89-.61,13.77-.69,20.66,0,.71,1.43,1.89,2.36,2.09,10.55,2.34,20.85,1.34,30.86-2.7.75-.3,1.5-.91,1.96-1.57,5.5-7.99,5.77-20.74.46-28.63-.79-1.18-2.48-2.47-3.77-2.48-4.41-.04-8.83.38-13.22.82-1.23.12-2.39.94-4.18,1.69,11.24,2.87,14.31,6.58,13.04,15-1.14,7.56-7.65,13.13-15.04,12.17-2.81-.37-5.91-1.75-8.02-3.63-4.61-4.12-3.71-9.6-1.7-15.44ZM456.2,465.5c1.11-.48,2.26-1,3.42-1.49,1.29-.54,2.58-1.11,3.9-1.59,4.62-1.69,4.61-1.67,2.81-6.29-1.86-4.76-4.71-8.58-10.13-10.89v20.25ZM395.91,458.14c-4.59,3.35-8.55,6.24-13.42,9.8,5.73,1.84,10.51,3.37,15.76,5.05-.78-4.97-1.45-9.25-2.33-14.85Z" style="fill: #000; stroke-width: 0px;"/>
  <path d="M231.67,492.92c-7.81-.95-15.78-1.23-23.39-3.03-9.25-2.19-18.23-5.68-25.96-11.48-7.28-5.47-15.41-7.26-24.2-6.13-3.89.5-7.29-.49-10.67-1.96-3.16-1.37-4.13-4.46-1.95-7.19,2-2.5,4.48-4.66,6.97-6.71,8.18-6.72,16.57-13.2,24.68-20,10.1-8.46,21.12-15.12,34.01-18.25,3.22-.78,6.67-1.09,9.99-.92,22.76,1.17,43.13,7.89,59.67,24.61,6.18,6.25,13.75,11.11,20.68,16.61,2.03,1.61,4.22,3.06,6.08,4.84,2.01,1.93,2.63,4.47,1.71,7.18-.87,2.53-3.14,2.65-5.33,2.86-9.43.87-17.88,4.97-26.55,8.25-14.76,5.59-29.19,12.43-45.73,11.32ZM239.28,443.11c-5.79-2.99-11.98-3.04-18.21-2.22-.93.12-1.89,1.37-2.51,2.31-5.22,7.95-4.96,20.96.57,28.64.52.72,1.45,1.28,2.3,1.62,9.59,3.83,19.46,4.73,29.62,2.88,2.29-.42,3.58-1.42,3.5-3.78-.19-6.04-.37-12.09-.69-18.12-.05-.96-.81-1.88-1.1-2.5-.21,3.87.23,7.91-.79,11.53-1.2,4.27-5.02,6.35-9.4,6.92-7.66,1.01-14.52-4.29-15.81-12.12-1.39-8.43,2.05-12.54,12.5-15.17ZM206.09,465.31v-20.08c-6.64,3.06-9.44,8.23-11.14,14.17-.15.53.5,1.72,1.06,1.96,3.33,1.43,6.75,2.67,10.08,3.95ZM266.5,458.09c-.92,5.68-1.62,10.06-2.41,14.96,5.35-1.73,10.15-3.28,14.94-4.83-.04-.36-.08-.73-.11-1.09-3.92-2.86-7.84-5.71-12.41-9.05Z" style="fill: #000; stroke-width: 0px;"/>
  <path d="M536.19,777.87c.64,12.89.85,25.77-1.9,38.48-2.34,10.83-6.6,20.82-13.36,29.65-8.16,10.65-18.92,15.89-32.39,15.09-3.66-.22-7.3-.87-10.93-1.42-2.13-.32-3.83-1.39-3.53-3.82.29-2.44,2.25-2.94,4.36-2.9,2.38.04,4.76.2,7.14.18,10.67-.09,19.22-4.46,25.73-12.89,10.7-13.85,16.71-29.42,17.5-46.99.59-13.27-1-26.36-2.79-39.45-.13-.96-.29-1.93-.31-2.9-.05-3.15,1.71-5.37,4.31-5.51,2.59-.15,4.68,1.8,4.96,4.95.5,5.5.93,11,1.2,16.51.18,3.67.03,7.35.03,11.03Z" style="fill: #000; stroke-width: 0px;"/>
  <path d="M125.4,780.62c.63-9.83,1.23-19.66,1.89-29.49.25-3.77,2.37-6.02,5.24-5.73,2.81.29,4.45,2.88,4.03,6.68-.86,7.75-2.02,15.47-2.68,23.23-1.54,17.98-.27,35.61,8.81,51.72,3.32,5.9,7.25,11.58,11.67,16.7,6.64,7.7,15.8,9.75,25.62,9.42,1.62-.05,3.37-.52,4.83-.06,1.31.41,3.1,1.73,3.23,2.82.13,1.09-1.35,3.2-2.46,3.46-15.98,3.77-31.15,2.64-43.19-12.21-10.69-13.19-15.37-28.71-16.31-45.41-.39-7.01-.07-14.07-.07-21.1-.21,0-.41-.01-.62-.02Z" style="fill: #000; stroke-width: 0px;"/>
  <path d="M133.45,463.7c.18,3.03.38,6.05.54,9.08.13,2.39-.01,4.88-3.03,5.2-2.8.29-3.57-1.97-3.97-4.22-2.74-15.57-5.67-31.1-8.1-46.71-2.01-12.94-3.4-25.98-5.1-38.97-.52-4.01.94-6.89,3.91-7.49,2.93-.6,5.82,1.5,6.45,5.43,1.86,11.54,3.67,23.1,5.07,34.7,1.73,14.29,3.03,28.64,4.51,42.96-.1,0-.19.02-.29.03Z" style="fill: #000; stroke-width: 0px;"/>
  <path d="M527.99,464.31c3.23-25.3,6.44-50.61,9.71-75.9.22-1.69.7-3.43,1.45-4.94,1.1-2.21,3.05-3.41,5.62-2.84,2.57.57,3.89,2.44,3.88,4.94-.01,2.36-.51,4.72-.78,7.07-3.17,26.74-6.45,53.46-12.27,79.79-.57,2.58-.67,6.06-4.5,5.44-3.49-.56-2.86-3.75-2.7-6.34.15-2.37.28-4.75.42-7.12l-.82-.1Z" style="fill: #000; stroke-width: 0px;"/>
  <path d="M308.6,833.85c-1.53-.31-2.37-.47-3.22-.64-23.07-4.64-43.1-15.23-60.52-30.94-2.57-2.32-5.25-4.52-7.77-6.89-2.53-2.37-2.93-5.44-1.13-7.5,1.81-2.07,5.01-2.11,7.52.28,15.67,14.98,34.49,24.84,54.08,33.48,3.96,1.75,7.99,3.38,11.75,5.5,1.14.64,2.03,2.76,1.97,4.15-.04.97-1.89,1.87-2.67,2.56Z" style="fill: #000; stroke-width: 0px;"/>
  <path d="M353.76,833.82c-.77-.63-2.57-1.4-2.74-2.45-.21-1.25.62-3.12,1.63-4.02,1.31-1.18,3.23-1.69,4.9-2.44,14.67-6.65,29.62-12.8,42.84-22.18,6.33-4.49,12.24-9.57,18.28-14.46,2.72-2.2,5.63-2.52,7.57-.57,1.98,2,1.77,5.02-.78,7.47-19.54,18.8-41.64,33.01-68.77,38.1-.74.14-1.48.29-2.92.56Z" style="fill: #000; stroke-width: 0px;"/>
  <path d="M248.81,510.25c4.29.12,6.31,2.95,5.3,6.04-.49,1.5-1.48,2.87-2.41,4.17-18.55,25.71-41.15,47.52-65.35,67.8-1.91,1.6-3.78,3.23-5.68,4.83-1.79,1.52-3.84,3.19-5.91.9-2.08-2.31-.23-4.13,1.55-5.72,9.43-8.43,18.84-16.9,28.29-25.3,15.99-14.21,28.94-30.89,40.26-48.94,1.1-1.75,3.06-2.95,3.95-3.78Z" style="fill: #000; stroke-width: 0px;"/>
  <path d="M407.42,514.86c.95-1.39,1.55-3.24,2.74-3.79,1.34-.61,3.28-.3,4.83.11.88.23,1.68,1.36,2.21,2.26,13.2,22.19,30.09,41.2,49.69,57.9,6.43,5.48,12.65,11.19,18.94,16.82.8.71,1.84,1.49,2.06,2.41.26,1.1.14,2.69-.51,3.5-.54.67-2.1.7-3.2.66-.65-.02-1.34-.65-1.92-1.13-26.63-22.13-51.96-45.53-72.18-73.91-.98-1.37-1.64-2.97-2.65-4.84Z" style="fill: #000; stroke-width: 0px;"/>
  <path d="M213.35,523.58c-1.06,2.17-1.72,3.88-2.67,5.4-7.68,12.17-17.63,22.38-28.07,32.14-4.42,4.13-8.91,8.19-13.39,12.25-1.78,1.62-3.8,3.64-6.12,1.3-2.3-2.32-.27-4.26,1.33-6.1,10.88-12.58,21.78-25.14,32.56-37.81,2.51-2.95,4.5-6.35,6.88-9.41,1.52-1.95,3.79-2.9,6.04-1.67,1.4.76,2.26,2.51,3.45,3.91Z" style="fill: #000; stroke-width: 0px;"/>
  <path d="M449.64,524.34c-.04-4.08,3.69-6.35,7.05-4.44,1.08.61,2.03,1.64,2.75,2.68,11.2,16.28,24.2,31.05,37.78,45.34.89.94,2.06,1.87,2.38,3.01.33,1.16.21,3.03-.53,3.74-.74.71-2.48.42-3.79.45-.35,0-.74-.42-1.06-.7-13.94-12.65-28.17-25.03-39.21-40.49-1.82-2.54-3.38-5.27-4.99-7.96-.32-.53-.3-1.25-.39-1.62Z" style="fill: #000; stroke-width: 0px;"/>
  <path d="M535.15,658.9c-1.89,19.71-3.63,38.13-5.44,56.54-.21,2.1-1.24,3.87-3.67,3.76-2.41-.11-3.17-1.94-3.32-4.07-1.33-18.67-.42-37.22,3.14-55.61.6-3.07,2.9-4.88,5.44-4.47,2.89.47,3.8,2.54,3.85,3.86Z" style="fill: #000; stroke-width: 0px;"/>
  <path d="M139.66,698.76c0,5.19.05,10.39-.02,15.58-.04,2.39-.55,4.86-3.57,4.84-2.74-.02-3.42-2.27-3.62-4.57-1.25-14.23-2.45-28.47-3.75-42.7-.31-3.44-.93-6.86-1.42-10.28-.52-3.6.86-6.11,3.64-6.58,2.79-.47,5.2,1.42,5.64,4.96,1.6,12.87,3.04,25.76,4.54,38.64-.48.04-.96.07-1.44.11Z" style="fill: #000; stroke-width: 0px;"/>
  <path d="M355.75,863.54c-6.41-.05-11.21-2-15.41-5.16-1.14-.86-1.99-3.27-1.64-4.6.29-1.07,2.57-2.13,4.04-2.23,2.66-.19,5.37.41,8.07.54,5.06.24,9.62-1.13,13.5-4.49.57-.49,1.16-1,1.82-1.34,2.31-1.19,4.64-1.38,6.54.68,1.79,1.94,1.69,4.32.25,6.29-4.49,6.11-10.26,10.14-17.17,10.32Z" style="fill: #000; stroke-width: 0px;"/>
  <path d="M309.99,863.6c-10.2-.22-15.88-4.23-20.4-10.12-1.57-2.05-1.8-4.48.12-6.54,2.03-2.17,4.77-2.23,6.74-.45,6.43,5.84,13.91,6.28,21.88,5.05,2.21-.34,4.52-.34,5.48,2.21,1.01,2.71-.7,4.44-2.86,5.41-4.27,1.91-8.67,3.52-10.95,4.44Z" style="fill: #000; stroke-width: 0px;"/>
  <path d="M84.94,221.61c.02,15.5-12.07,25.62-23.54,21.96-1.32-.42-2.77-.45-4.17-.55-10.56-.76-16.81-6.69-18.11-17.21-1.93-15.65,11.51-27.18,26.52-22.49,4.16,1.3,8.3,3.26,11.88,5.74,5.21,3.6,7.39,9.13,7.43,12.56Z" style="fill: #000; stroke-width: 0px;"/>
  <path d="M623.41,223.05c.06,10.59-6.5,19.92-18.41,19.98-1.5,0-3.01.31-4.49.62-9.13,1.91-17.39-2.29-21.22-10.83-3.81-8.52-1.66-19.05,5.8-23.84,4.63-2.97,10-5.42,15.36-6.5,12.33-2.48,22.92,7.4,22.96,20.57Z" style="fill: #000; stroke-width: 0px;"/>
  <path d="M536.26,264.33c-8.13-.32-13.76-2.88-17.13-9.07-3.35-6.15-2.53-12.35,1.5-17.74,2.74-3.67,6.14-7.07,9.85-9.74,6.29-4.52,13.26-4.62,19.83-.47,6.84,4.31,9.85,10.9,9.05,18.86-.78,7.81-4.99,13.3-12.65,15.65-3.81,1.17-7.76,1.88-10.45,2.51Z" style="fill: #000; stroke-width: 0px;"/>
  <path d="M125.65,264.38c-3.21-.94-8.55-1.82-13.25-4.04-9.26-4.37-12.17-16.5-6.84-26.12,5.13-9.26,16.69-12.82,25.36-7.1,4.31,2.85,8.16,6.81,11.27,10.97,3.87,5.19,4.29,11.32,1.06,17.19-3.33,6.05-8.84,8.62-17.6,9.09Z" style="fill: #000; stroke-width: 0px;"/>
  <path d="M351.08,248.93c-.01,7.93-5.45,13.85-13.35,14.23-4.49.21-9.02.21-13.51-.02-8.11-.42-13.63-7.45-12.77-15.96.8-7.89,7.88-13.23,15.83-12.16,2.52.34,5.16.39,7.66.02,8.69-1.27,16.15,5.04,16.14,13.89Z" style="fill: #000; stroke-width: 0px;"/>
  <path d="M184.83,266.77c-5.57.83-10.34-.14-14.09-4.38-4.55-5.13-5.08-12.19-1.27-17.99,3.7-5.63,10.87-8.48,16.96-6.32,2.91,1.03,5.78,2.51,8.25,4.35,6.05,4.54,6.97,15.92,1.64,21.24-1.61,1.6-4.25,2.35-6.55,3.01-1.6.46-3.43.09-4.92.09Z" style="fill: #000; stroke-width: 0px;"/>
  <path d="M477.43,266.81c-.76,0-1.51.01-2.27,0-7.86-.13-10.35-2.43-12-10.23-1.19-5.61-.19-10.44,4.35-13.99,5.28-4.13,11.08-6.86,18.02-4.15,7.04,2.75,11.15,10.07,9.65,17.16-1.52,7.21-7.6,11.67-15.48,11.37-.75-.03-1.51,0-2.27,0v-.15Z" style="fill: #000; stroke-width: 0px;"/>
  <path d="M382.92,266.05c-7.12,0-11.61-4.42-11.66-11.47-.06-8.06,6.35-13.7,15.66-13.76,7.11-.04,12.02,4.49,12.1,11.18.09,7.65-7.24,14.05-16.1,14.05Z" style="fill: #000; stroke-width: 0px;"/>
  <path d="M278.41,266.04c-3.82-.4-8.25-1.71-11.58-5.33-3.54-3.85-4.42-8.38-2.39-13.24,1.94-4.63,5.74-6.5,10.59-6.64,8.04-.23,14.17,3.91,15.82,10.71,1.97,8.17-3.11,14.57-12.44,14.5Z" style="fill: #000; stroke-width: 0px;"/>
  <path d="M231.38,243.04c3.25.2,7.12.67,10.09,3.66,3.1,3.12,4.02,8.02,2.27,11.7-1.93,4.04-6.52,6.56-11.32,5.91-2-.27-4.01-.94-5.86-1.77-5.28-2.35-7.94-7.08-6.88-11.89,1.06-4.83,4.94-7.51,11.7-7.61Z" style="fill: #000; stroke-width: 0px;"/>
  <path d="M431.5,242.78c6.15.34,10.12,3,11.18,7.75,1.11,4.97-1.5,9.87-7.08,12.03-2.81,1.09-6.09,1.73-9.07,1.48-4.96-.4-8.46-4.42-8.8-8.95-.35-4.65,2.65-9.36,7.15-10.87,2.13-.71,4.4-.98,6.61-1.46Z" style="fill: #000; stroke-width: 0px;"/>
  <path d="M86.68,301.48c-7.74.01-14.37-5.45-15.68-12.39-1-5.28,1.64-10.24,6.43-12.09,4.57-1.76,9.33,0,12.31,4.45,1.2,1.79,2.63,3.42,3.88,5.18,2.24,3.16,2.78,6.58.99,10.08-1.76,3.44-4.88,4.69-7.93,4.77Z" style="fill: #000; stroke-width: 0px;"/>
  <path d="M575.32,301.47c-2.85-.07-5.91-1.43-7.61-4.89-1.66-3.4-1.16-6.74.98-9.8,1.54-2.21,3.16-4.36,4.81-6.5,2.55-3.32,7.1-4.72,11.04-3.47,4.15,1.32,6.98,5.28,7.06,9.86.14,7.78-7.21,14.84-16.29,14.8Z" style="fill: #000; stroke-width: 0px;"/>
  <path d="M628.36,274.14c-.22,7.51-7.7,14.76-15.16,14.71-3.86-.03-8.6-3.99-9.87-8.25-1.27-4.29.71-9.27,4.94-11.66,2.72-1.53,5.59-2.88,8.53-3.93,6.08-2.17,11.75,2.4,11.55,9.13Z" style="fill: #000; stroke-width: 0px;"/>
  <path d="M34.07,273.69c.07-7.19,6.26-11.14,12.84-8.19,2.17.97,4.37,1.89,6.48,2.98,5.17,2.67,7.44,8.7,5.15,13.43-3.03,6.26-8.46,8.38-14.47,5.64-6.48-2.96-10.06-7.92-10-13.86Z" style="fill: #000; stroke-width: 0px;"/>
  <path d="M269.66,311.56c-6.2.01-10.97-3.71-12.29-9.23-1.31-5.47,1.13-11.02,5.93-13.48,4.61-2.36,9.55-1.49,12.93,2.43,1.19,1.38,2.23,2.93,3.14,4.52,4.35,7.54,1.29,14-7.29,15.5-.95.17-1.93.22-2.42.27Z" style="fill: #000; stroke-width: 0px;"/>
  <path d="M405.36,299.38c-.11,7.08-5.43,12.29-12.43,12.17-7.17-.12-12.04-4.04-11.97-9.64.09-6.67,7.34-14.37,13.47-14.32,6.02.05,11.03,5.45,10.94,11.78Z" style="fill: #000; stroke-width: 0px;"/>
  <path d="M207.24,301.61c.02,6.84-5.13,11.7-12.35,11.67-5.98-.03-10.61-4.72-10.62-10.75,0-6.63,5.24-11.93,11.89-12.01,6.83-.08,11.05,4.14,11.07,11.09Z" style="fill: #000; stroke-width: 0px;"/>
  <path d="M455.15,301.71c-.02-6.86,4.06-11.15,10.67-11.19,6.92-.05,12.27,5.14,12.29,11.91.01,6.24-4.66,10.92-10.84,10.85-7.11-.08-12.1-4.84-12.12-11.57Z" style="fill: #000; stroke-width: 0px;"/>
  <path d="M230.84,290.72c4.68.53,8.47,2.01,11.03,5.86,4.27,6.42.11,14.85-7.58,15.23-5.61.27-10.08-2.2-13.26-6.71-2.89-4.09-1.75-9.11,2.69-11.7,2.16-1.26,4.74-1.81,7.12-2.68Z" style="fill: #000; stroke-width: 0px;"/>
  <path d="M431.76,290.79c2.28.82,4.74,1.35,6.83,2.53,4.73,2.67,5.7,8.2,2.3,12.47-2.5,3.13-5.75,5.18-9.76,5.86-5.5.93-10.32-1.75-11.89-6.59-1.48-4.56.77-9.9,5.5-12.21,2.07-1.01,4.48-1.34,7.03-2.07Z" style="fill: #000; stroke-width: 0px;"/>
  <path d="M331.07,287.78c7.35,0,11.22,3.38,11.17,9.75-.05,6.55-4.54,10.78-11.44,10.77-6.24,0-10.71-4.55-10.69-10.88.02-6.24,3.89-9.65,10.96-9.64Z" style="fill: #000; stroke-width: 0px;"/>
  <path d="M362.2,311.5c-5.99-.04-11.48-5.33-11.44-11.02.04-5.32,6.13-11.85,11.04-11.84,5.31.02,10.4,6.66,10.26,13.39-.11,5.44-4.34,9.5-9.86,9.47Z" style="fill: #000; stroke-width: 0px;"/>
  <path d="M299.99,311.5c-5.49-.03-9.63-4.17-9.68-9.65-.05-6.74,5.18-13.35,10.46-13.21,4.97.13,10.86,6.66,10.83,12.02-.03,5.66-5.61,10.88-11.62,10.84Z" style="fill: #000; stroke-width: 0px;"/>
  <path d="M540.34,307.76c-4.44-.48-8.16-2.61-9.31-5.92-1.41-4.05.25-7.15,3.33-9.72,1.33-1.11,2.61-2.28,4.01-3.29,4.8-3.47,10.65-2.29,13.7,2.7,3.06,5,1.67,11.1-3.46,13.65-2.55,1.27-5.5,1.74-8.27,2.58Z" style="fill: #000; stroke-width: 0px;"/>
  <path d="M122.01,307.64c-2.39-.61-4.88-.98-7.16-1.88-3.71-1.47-5.97-4.27-6.04-8.42-.07-4.11,1.64-7.38,5.28-9.38,3.59-1.98,7.07-1.59,10.25,1.05,1.25,1.03,2.5,2.06,3.73,3.12,3.02,2.61,4.64,5.74,3.22,9.77-1.15,3.28-4.88,5.39-9.29,5.75Z" style="fill: #000; stroke-width: 0px;"/>
  <path d="M161.32,310.78c-3.95-.31-7.87-1.69-10.89-4.96-2.21-2.4-3-5.25-1.96-8.42,1.01-3.08,3.3-4.97,6.43-5.2,3.2-.24,6.53-.28,9.64.37,5.03,1.04,7.82,5.4,7.08,10.08-.72,4.62-5.13,8.25-10.29,8.13Z" style="fill: #000; stroke-width: 0px;"/>
  <path d="M502.42,291.86c1.63,0,2.39-.04,3.14,0,4.45.29,7.53,2.42,8.48,5.82,1.01,3.61-.3,7.54-4.05,9.77-2.62,1.56-5.68,2.72-8.68,3.19-5.09.79-9.74-3.04-10.49-7.98-.75-4.87,2.1-8.93,7.34-10.24,1.66-.42,3.41-.46,4.27-.57Z" style="fill: #000; stroke-width: 0px;"/>
  <path d="M345.69,356.27c-6.09-.04-10.77-4.35-10.67-9.8.11-6.1,4.35-10.77,9.79-10.79,6.14-.02,11.1,4.77,11.08,10.72-.02,5.67-4.4,9.91-10.19,9.88Z" style="fill: #000; stroke-width: 0px;"/>
  <path d="M316.7,356.27c-5.78.07-10.21-4.21-10.21-9.83,0-5.9,5-10.75,11.09-10.76,5.42,0,9.67,4.68,9.77,10.78.09,5.47-4.54,9.74-10.65,9.81Z" style="fill: #000; stroke-width: 0px;"/>
  <path d="M581.77,326.23c.97.08,1.94.14,2.91.23,4.26.43,6.88,2.64,7.55,6.34.64,3.53-1.07,7.2-4.75,8.7-3.37,1.37-6.97,2.39-10.56,2.93-4.22.64-7.23-2.24-7.59-6.53-.61-7.35,4.38-12.03,12.44-11.67Z" style="fill: #000; stroke-width: 0px;"/>
  <path d="M80.78,326.21c7.45-.22,12.08,3.68,12.32,10.16.22,5.84-3.66,9.15-9.36,7.88-2.42-.54-4.83-1.18-7.18-1.96-4.52-1.49-7.05-5.21-6.46-9.26.56-3.82,3.59-6.23,8.36-6.64.86-.07,1.72-.14,2.31-.18Z" style="fill: #000; stroke-width: 0px;"/>
  <path d="M477.89,352.68c-5.58,0-9.7-3.27-9.77-7.78-.09-5.48,4.6-10.6,9.69-10.57,5.23.02,9.82,4.55,9.78,9.65-.03,5.01-4.14,8.69-9.7,8.7Z" style="fill: #000; stroke-width: 0px;"/>
  <path d="M184.35,352.68c-5.56-.04-9.66-3.86-9.56-8.9.1-5.14,4.82-9.55,10.09-9.44,4.87.1,9.29,4.97,9.35,10.29.05,4.74-4.06,8.09-9.87,8.05Z" style="fill: #000; stroke-width: 0px;"/>
  <path d="M122.14,348.94c-4.2-.17-7.81-1.84-10.69-4.8-3.36-3.45-2.35-8.68,1.91-10.96,4.73-2.53,11.39-1.21,14.74,2.97,2.07,2.58,2.6,5.47,1.16,8.51-1.4,2.94-3.96,4.14-7.12,4.28Z" style="fill: #000; stroke-width: 0px;"/>
  <path d="M539.91,348.93c-2.63-.09-5.24-1.19-6.7-4.11-1.51-3.01-1.01-5.92.98-8.53,3.24-4.27,10.34-5.67,14.99-3.06,4.02,2.26,4.92,7.38,1.9,10.83-2.29,2.61-7.18,4.84-11.16,4.88Z" style="fill: #000; stroke-width: 0px;"/>
  <path d="M378.25,356c-6.14-.09-9.06-3.44-8.5-7.91.81-6.38,7.03-10.93,13.08-9.5,3.35.79,5.58,2.88,6.27,6.27.65,3.18-.52,5.94-3.23,7.55-2.82,1.68-5.95,2.82-7.63,3.59Z" style="fill: #000; stroke-width: 0px;"/>
  <path d="M281.66,338.32c5.82-.05,11.05,5.14,11.04,10.93-.01,3.95-2.99,6.74-7.16,6.72-6.14-.04-12.38-4.93-12.38-9.69,0-4.46,3.69-7.91,8.51-7.96Z" style="fill: #000; stroke-width: 0px;"/>
  <path d="M444.48,354.29c-5.22.06-8.81-2.91-8.9-7.38-.11-5.37,4.18-9.65,9.66-9.65,5.29,0,9.16,3.59,9.16,8.47,0,4.84-4.23,8.49-9.93,8.56Z" style="fill: #000; stroke-width: 0px;"/>
  <path d="M217.96,354.29c-5.75-.03-9.84-3.57-9.87-8.52-.02-4.87,3.83-8.49,9.08-8.52,5.33-.04,9.6,4.07,9.66,9.29.05,4.64-3.54,7.78-8.87,7.75Z" style="fill: #000; stroke-width: 0px;"/>
  <path d="M411.48,355.12c-3.44-.2-6.09-1.42-7.42-4.56-1.35-3.18-.51-6.2,2.09-8.13,2.49-1.85,5.43-3.39,8.41-4.2,2.79-.76,5.23.96,6.75,3.45,1.53,2.51,1.5,5.19-.08,7.66-2.3,3.59-5.72,5.42-9.76,5.78Z" style="fill: #000; stroke-width: 0px;"/>
  <path d="M250.52,355.09c-3.69-.31-7.15-2.13-9.37-5.79-.73-1.21-1.04-2.88-1.01-4.32.09-4.13,3.55-7.04,7.86-6.87,5.44.21,11.02,5.46,10.85,10.2-.14,3.75-3.54,6.73-8.33,6.79Z" style="fill: #000; stroke-width: 0px;"/>
  <path d="M516.79,341.73c0,4.22-3.62,7.68-8.02,7.68-4.42,0-7.92-3.39-7.97-7.72-.04-4.21,3.55-7.64,8.02-7.65,4.45,0,7.97,3.38,7.96,7.69Z" style="fill: #000; stroke-width: 0px;"/>
  <path d="M161.54,341.63c.02,4.3-3.43,7.71-7.88,7.78-4.36.07-8.04-3.4-8.08-7.61-.05-4.25,3.51-7.74,7.91-7.75,4.5-.02,8.03,3.3,8.05,7.58Z" style="fill: #000; stroke-width: 0px;"/>
  <path d="M486.32,198.96c0,6.87-4.72,12.25-10.76,12.26-7.35.02-14.39-6-14.35-12.25.04-6.43,7.02-12.53,14.23-12.43,6.43.09,10.89,5.18,10.88,12.42Z" style="fill: #000; stroke-width: 0px;"/>
  <path d="M187.13,186.56c7.27-.03,14.05,6.05,14.03,12.58-.02,6.1-6.91,11.97-14.16,12.09-6.04.1-10.84-5.21-10.93-12.09-.09-7.3,4.53-12.55,11.06-12.58Z" style="fill: #000; stroke-width: 0px;"/>
  <path d="M227.07,215.12c-6.34-.03-12.12-4.17-13.8-9.87-2.18-7.4,3.28-14.09,10.88-12.91,3.22.5,6.46,1.78,9.33,3.37,4.23,2.35,5.98,7.61,4.63,12.09-1.36,4.53-5.61,7.34-11.04,7.32Z" style="fill: #000; stroke-width: 0px;"/>
  <path d="M435.07,215.12c-5.53-.04-9.89-3.18-10.93-7.87-1.13-5.08,1.37-10.18,6.43-12.47,2.52-1.14,5.23-2.14,7.95-2.52,7.06-.97,12.28,4.94,10.84,11.95-1.29,6.28-7.42,10.95-14.3,10.9Z" style="fill: #000; stroke-width: 0px;"/>
  <path d="M331.43,191.3c2.04.13,4.12.03,6.11.42,5.49,1.08,8.08,6.6,5.33,11.44-2.04,3.59-4.79,6.24-9.36,6.5-5.72.33-10.74-.46-13.85-6.06-2.95-5.31-.39-11.03,5.63-11.96,2-.31,4.08-.05,6.13-.05,0-.1,0-.2,0-.29Z" style="fill: #000; stroke-width: 0px;"/>
  <path d="M399.09,192.96c5.77.06,10.42,5.05,10.33,11.06-.09,5.64-4.81,10.41-10.3,10.42-5.78.01-10.7-4.77-10.69-10.39.01-6.28,4.7-11.17,10.66-11.1Z" style="fill: #000; stroke-width: 0px;"/>
  <path d="M263.3,192.96c5.86-.08,10.46,4.58,10.63,10.76.15,5.81-4.69,10.7-10.64,10.73-5.49.03-10.14-4.68-10.27-10.39-.13-5.98,4.54-11.03,10.28-11.1Z" style="fill: #000; stroke-width: 0px;"/>
  <path d="M374.36,202.08c.09,5.24-4.58,9.93-9.91,9.95-5.02.01-9.54-4.36-9.72-9.42-.18-5,4.15-9.24,9.57-9.36,5.46-.12,9.98,3.85,10.06,8.83Z" style="fill: #000; stroke-width: 0px;"/>
  <path d="M297.96,212.02c-5.23-.02-9.82-4.47-9.89-9.6-.07-5.19,4.37-9.27,10-9.18,5.25.08,9.56,4.14,9.56,9.01,0,5.2-4.55,9.78-9.68,9.76Z" style="fill: #000; stroke-width: 0px;"/>
  <path d="M407.56,154.17c-.12,4-1.8,8-6.12,10.6-.74.45-1.48.9-2.18,1.4-4.79,3.47-9.95,4.67-15.07,1.21-5.2-3.51-7.72-8.78-6.91-15.09.78-6.09,4.68-9.76,10.45-11.52,1.03-.31,2.07-.61,3.13-.85,9.68-2.18,16.73,3.49,16.7,14.24Z" style="fill: #000; stroke-width: 0px;"/>
  <path d="M254.86,153.2c.08-9.88,7.21-15.49,16.85-13.23,1.78.42,3.57.91,5.26,1.62,5.6,2.35,8.98,8.18,8.29,14.07-.81,6.87-5.73,12.57-11.67,13.52-8.61,1.38-18.79-7.31-18.72-15.98Z" style="fill: #000; stroke-width: 0px;"/>
  <path d="M431.2,146.2c5.66.18,9.78,4.53,9.56,10.11-.22,5.46-5.22,10.14-10.74,10.03-5.79-.11-10.13-4.18-9.96-9.33.2-6.05,5.29-10.99,11.14-10.81Z" style="fill: #000; stroke-width: 0px;"/>
  <path d="M232.09,166.36c-5.49,0-10.4-4.83-10.47-10.31-.07-5.57,4.14-9.8,9.83-9.85,5.82-.06,10.9,5.11,10.88,11.07-.02,5.11-4.5,9.08-10.24,9.09Z" style="fill: #000; stroke-width: 0px;"/>
  <path d="M308.04,167.19c-5.39.02-9.41-3.83-9.4-9.01.01-5.21,4.59-9.88,9.65-9.82,4.98.05,8.84,4.24,8.89,9.64.05,5.4-3.7,9.17-9.13,9.19Z" style="fill: #000; stroke-width: 0px;"/>
  <path d="M354.41,167.18c-5.38,0-9.05-3.54-9.13-8.81-.08-5.53,3.84-9.97,8.85-10.02,5.18-.05,9.6,4.45,9.6,9.78,0,5.25-3.91,9.04-9.32,9.04Z" style="fill: #000; stroke-width: 0px;"/>
  <path d="M203.54,160.74c-4.25,0-7.51-2.93-7.54-6.79-.02-3.63,2.86-6.58,6.51-6.65,4.38-.09,8.19,3.21,8.14,7.05-.05,3.68-3.07,6.39-7.11,6.4Z" style="fill: #000; stroke-width: 0px;"/>
  <path d="M458.84,160.74c-4.06.02-7.08-2.7-7.09-6.36-.01-3.83,3.43-6.98,7.76-7.1,3.75-.1,6.86,2.91,6.87,6.65,0,3.8-3.31,6.8-7.53,6.81Z" style="fill: #000; stroke-width: 0px;"/>
  <path d="M358.53,111.16c-.19,12.42-8.89,19.46-19.98,18.25-4.78-.52-9.7-.5-14.49-.02-7.94.79-15.86-2.95-18.7-9.44-3.41-7.79-1.23-17.14,5.76-22.51,5.8-4.46,12.14-7.18,19.95-7.2,7.57-.02,13.72,2.55,19.51,6.65,5.37,3.81,7.99,9.25,7.95,14.27Z" style="fill: #000; stroke-width: 0px;"/>
  <path d="M331.34,751.89c-17.01.12-33.47-3.77-50.01-6.96-2.82-.54-5.52-1.87-8.2-3.02-2.74-1.18-4.42-3.27-3.86-6.39.57-3.2,3.04-4.61,5.94-4.42,7.43.49,14.95.75,22.23,2.18,12.77,2.51,25.62,2.11,38.47,2.33,13.04.23,25.87-1.61,38.67-3.89,3.91-.7,7.97-.67,11.96-.69,3.72-.02,6.24,1.8,6.63,4.52.47,3.32-1.42,5.33-4.24,6.51-2.69,1.13-5.39,2.45-8.22,2.96-13.62,2.43-27.28,4.68-40.95,6.81-2.74.43-5.61.06-8.42.06Z" style="fill: #fff; stroke-width: 0px;"/>
  <path d="M410.82,451.27c-2.01,5.83-2.91,11.31,1.7,15.44,2.11,1.88,5.21,3.27,8.02,3.63,7.39.96,13.9-4.6,15.04-12.17,1.27-8.41-1.8-12.13-13.04-15,1.79-.75,2.95-1.57,4.18-1.69,4.39-.44,8.81-.86,13.22-.82,1.29.01,2.98,1.3,3.77,2.48,5.31,7.89,5.04,20.63-.46,28.63-.46.67-1.21,1.27-1.96,1.57-10,4.05-20.31,5.04-30.86,2.7-.93-.21-2.37-1.38-2.36-2.09.07-6.89.4-13.78.69-20.66.02-.39.33-.8.59-1.13.18-.22.51-.32,1.48-.9Z" style="fill: #fff; stroke-width: 0px;"/>
  <path d="M456.2,465.5v-20.25c5.41,2.31,8.27,6.13,10.13,10.89,1.8,4.61,1.81,4.6-2.81,6.29-1.32.48-2.61,1.04-3.9,1.59-1.16.49-2.31,1-3.42,1.49Z" style="fill: #fff; stroke-width: 0px;"/>
  <path d="M395.91,458.14c.88,5.59,1.55,9.88,2.33,14.85-5.25-1.68-10.03-3.21-15.76-5.05,4.87-3.56,8.84-6.45,13.42-9.8Z" style="fill: #fff; stroke-width: 0px;"/>
  <path d="M239.28,443.11c-10.45,2.64-13.89,6.74-12.5,15.17,1.29,7.82,8.15,13.12,15.81,12.12,4.38-.58,8.2-2.65,9.4-6.92,1.02-3.62.58-7.66.79-11.53.29.63,1.05,1.55,1.1,2.5.32,6.04.5,12.08.69,18.12.07,2.36-1.21,3.36-3.5,3.78-10.17,1.85-20.03.95-29.62-2.88-.86-.34-1.78-.9-2.3-1.62-5.54-7.68-5.8-20.69-.57-28.64.62-.94,1.58-2.19,2.51-2.31,6.23-.82,12.43-.77,18.21,2.22Z" style="fill: #fff; stroke-width: 0px;"/>
  <path d="M206.09,465.31c-3.33-1.28-6.75-2.52-10.08-3.95-.56-.24-1.21-1.43-1.06-1.96,1.7-5.94,4.5-11.11,11.14-14.17v20.08Z" style="fill: #fff; stroke-width: 0px;"/>
  <path d="M266.5,458.09c4.58,3.34,8.5,6.19,12.41,9.05.04.36.08.73.11,1.09-4.79,1.55-9.59,3.1-14.94,4.83.79-4.91,1.5-9.28,2.41-14.96Z" style="fill: #fff; stroke-width: 0px;"/>
</svg>