<?xml version="1.0" encoding="UTF-8"?>
<svg id="Layer_1" data-name="Layer 1" xmlns="http://www.w3.org/2000/svg" viewBox="0 0 559.7 900">
  <path d="M378.52,891.1c-14.67.78-28.84-2.28-42.99-5.52-3.09-.71-6.22-1.3-9.35-1.84-8.62-1.5-16.23,1.07-23.27,5.88-2.47,1.68-5.05,3.21-7.47,4.96-10.07,7.32-21.33,7.16-31.53-.03-5.02-3.54-10.33-6.8-15.86-9.46-6.26-3.01-13.02-1.74-19.55-.51-9.64,1.81-19.17,4.59-28.89,5.6-32.72,3.4-64.03-.76-92.3-19.19-15.28-9.96-27.03-23.28-36.23-38.82-6.08-10.28-8-21.96-8.9-33.65-2.19-28.53,3.21-55.69,16.08-81.25,4.86-9.64,8.28-19.7,9.53-30.36,3.42-29.21,10.77-57.49,19.45-85.49,1.91-6.16,3.6-12.39,5.59-18.53.65-2,.27-3.28-1.19-4.7-9.91-9.65-20.03-19.12-29.55-29.16-7.45-7.86-14-16.56-21.22-24.65-3.53-3.96-7.48-7.6-11.57-10.99-8.55-7.09-18.46-9.96-29.56-8.66-2.41.28-4.85.5-7.27.49-6.66-.02-11.31-3.44-12.15-10.04-.6-4.73-.35-9.75.52-14.45,3.09-16.7,8.71-32.71,14.71-48.53,9.21-24.31,18.51-48.59,28.45-72.6,11.79-28.49,24.29-56.7,36.53-85.01,1.15-2.65,2.47-5.26,3.96-7.73,1.19-1.98.98-3.51-.26-5.39-12.71-19.28-25.51-38.51-37.92-57.98-5.37-8.42-9.9-17.38-14.84-26.07-1.15-2.03-2.2-4.18-3.69-5.95-7.67-9.1-9.66-19.68-7.09-30.85,5.49-23.85,16.46-44.73,35.9-60.24,4.5-3.59,10.14-5.85,15.49-8.21,2.76-1.22,4.73-2.59,5.16-5.59,1.49-10.26,3.17-20.51,4.32-30.81.97-8.71,1.96-17.44.51-26.27-.77-4.68,2-8.43,5.87-9.29,4.33-.96,7.88,1.42,10.13,6.07,6.8,14.05,13.69,28.08,22.85,40.8,5.02,6.97,11.28,12.71,18.67,17.17,12.24,7.39,24.46,14.81,36.7,22.2,5.06,3.06,5.14,3.07,7.78-2.25,5.62-11.34,11.63-22.47,20.04-32.01,13.4-15.21,29.44-26.41,49.47-31.22,5.16-1.24,10.29-1.37,15.58-.85,5.63.55,11.49,1.38,16.97.45,14.05-2.39,26.74,1.12,38.93,7.43,21.48,11.12,36.54,28.42,47.24,49.83,1.38,2.76,2.75,5.53,4.2,8.25,1.59,2.99,2.14,3.19,4.98,1.43,5.96-3.69,11.82-7.54,17.78-11.24,4.13-2.56,8.18-5.32,12.55-7.4,15.29-7.26,26.48-18.68,34.45-33.39,5.38-9.94,10.52-20.02,15.68-30.08,2.09-4.08,5.81-6.14,9.83-5.14,3.7.91,6.31,4.66,5.81,9.14-2.04,18.19,1.51,35.95,3.97,53.79.23,1.66.52,3.42,1.29,4.85.74,1.37,1.94,3.05,3.28,3.45,11.88,3.5,21.09,10.83,28.76,20.14,11.88,14.43,20.33,30.7,24.05,49.13,2.23,11.05.25,21.16-6.81,30.44-4.03,5.3-6.42,11.82-10.02,17.49-15.28,24.07-30.7,48.05-46.19,71.99-1.62,2.51-1.72,4.29-.4,7.09,6.34,13.44,12.39,27.02,18.37,40.63,5.57,12.67,10.98,25.41,16.34,38.17,15.06,35.86,29.8,71.84,41.72,108.9,2.94,9.14,5.15,18.55,7.17,27.95.81,3.74.68,7.86.13,11.68-.92,6.41-5.38,9.99-11.85,10.11-2.61.05-5.23-.19-7.83-.49-10.99-1.26-20.94,1.43-29.26,8.63-5.77,4.99-11.46,10.31-16.13,16.29-13.3,17.04-28.81,31.91-44.49,46.62-2.95,2.77-3.46,5.06-2.32,8.95,7.15,24.2,15.29,48.15,19.84,73.06,1.81,9.93,3.13,19.95,4.7,29.93,1.63,10.33,4.98,20.04,9.58,29.48,14.53,29.83,19.98,61.11,13.99,94.05-2.03,11.16-6.6,21.06-13.3,30.25-18.1,24.84-42.33,40.08-72.17,46.25-10.29,2.13-20.94,2.46-31.43,3.61-.02-.25-.04-.49-.06-.74ZM97.25,42.97c-.41,1.92-.67,2.96-.85,4-1.19,6.72-2.17,13.47-3.59,20.14-2.01,9.49-6.53,17.11-16.54,20.12-1.93.58-2.57,2.03-2.34,3.93.38,3.15.58,6.35,1.22,9.45,3.18,15.41,9.18,29.79,16.11,43.84,3.79,7.7,7.28,15.55,10.77,23.39.82,1.84.89,3.93-.99,5.38-1.88,1.45-3.71.62-5.47-.41-5.04-2.93-9.07-6.96-12.13-11.85-11.46-18.25-18.31-38.19-21.35-59.48-.15-1.02-.4-2.02-.71-3.55-1.1.95-1.8,1.4-2.31,2.01-2.61,3.18-5.13,6.42-7.75,9.59-1.81,2.19-2.12,4.56-1.72,7.34,2.96,20.69,11.08,39.37,22.32,56.73,6.7,10.35,14.23,20.16,21.15,30.38,2.82,4.16,5.16,8.67,7.4,13.19.48.97-.03,3.24-.85,3.83-.83.59-2.69.02-3.97-.42-.79-.27-1.4-1.2-2-1.92-5.79-6.85-11.83-13.51-17.28-20.62-15.22-19.85-27.92-41.14-35.92-65-.16-.48-.53-.88-1.21-1.98-.31.73-.46,1.07-.61,1.42-2.69,6.33-4.78,12.81-4.28,19.82.27,3.74,1.74,6.97,4.17,9.89,3.16,3.8,6.27,7.67,9,11.78,15.85,23.93,31.63,47.91,47.33,71.93,4.34,6.65,8.54,13.4,12.45,20.31,1.37,2.43,2.13,5.44,2.35,8.25.42,5.4-3.63,8.09-8.68,6.01-1.61-.67-2.95-1.97-4.54-2.71-.65-.3-2.26-.09-2.38.25-1.54,4.56-4.16,9.22-4.06,13.8.3,13.72,1.59,27.43,2.68,41.13.54,6.8,1.62,13.56,2.12,20.36.1,1.31-1.03,3.28-2.18,3.99-1.78,1.09-3.51-.21-4.36-1.9-1.34-2.65-2.87-5.35-3.48-8.21-1.97-9.13-3.56-18.35-5.3-27.53-.21-1.13-.46-2.25-.69-3.37-.25-.04-.5-.08-.75-.13-.49.94-1.03,1.86-1.45,2.82-5.52,12.48-11.15,24.93-16.46,37.5-1.27,3.02-1.98,6.46-2.12,9.74-.56,13.6.38,27.1,3.4,40.42.54,2.36.82,4.79,1.12,7.2.23,1.87-.07,3.65-2.03,4.49-2.09.89-3.78-.13-4.82-1.8-1.88-2.99-3.89-6-5.11-9.28-1.6-4.27-2.48-8.8-3.69-13.22-.24-.9-.56-1.77-.97-3.07-.6.79-.9,1.04-1.03,1.36-3.75,9.38-7.52,18.75-11.16,28.17-.43,1.13-.32,2.59-.09,3.82.56,2.93,1.23,5.86,2.08,8.71,3.37,11.27,6.84,22.51,10.27,33.77.61,1.99,1.87,3.04,4.01,3.34,11.7,1.61,21.22,7.53,29.52,15.54,2.23,2.15,4.04,4.95,5.32,7.77.66,1.45.24,3.94-.63,5.39-1.18,1.97-3.67,1.9-5.59.94-2.06-1.02-4.04-2.36-5.73-3.92-7.53-6.92-16.06-11.47-26.45-12.19-5.65-.39-9.7-3.33-11.7-8.66-3.15-8.4-6.12-16.86-9.18-25.3-.26-.73-.6-1.43-1.13-2.7-.64,1.18-1.09,1.76-1.29,2.42-3.47,11.55-6.94,23.09-10.31,34.67-.6,2.05-.83,4.22-1.06,6.36-.58,5.41.29,6.52,5.62,7.09,2.69.29,5.4.46,8.11.56,11.39.44,22.09,3.4,31.38,9.99,7.44,5.28,14.36,11.33,21.31,17.27,2.04,1.74,3.68,2.5,6.44,1.92,7.9-1.65,15.81-1.33,23.56,1.08,4.06,1.26,7.59,3.44,9.4,7.42.6,1.32.7,3.58-.06,4.59-.75,1-2.86,1.04-4.41,1.32-.58.1-1.24-.39-1.88-.48-5.15-.73-10.3-1.47-15.46-2.12-.92-.12-1.9.19-2.96.32,8.28,10.79,16.3,21.25,24.44,31.85.58-.54,1.16-1.11,1.78-1.65,1.97-1.72,4.17-2.58,6.7-1.39,2.53,1.19,3.38,3.44,3.13,6.05-.17,1.75-.58,3.51-1.12,5.19-2.09,6.5-4.38,12.93-6.33,19.47-.49,1.65-.39,3.72.13,5.38,2.62,8.47,5.43,16.89,8.24,25.31,1.9,5.7,1.42,11.18-.95,16.66-3.96,9.15-6.47,18.72-7.88,28.58-.56,3.89-.98,7.81-1.86,11.63-.26,1.13-1.75,2.54-2.86,2.73-.9.15-2.16-1.26-3.09-2.15-.41-.39-.44-1.21-.62-1.84-3.57-12.99-1.82-25.63,4.09-37.36,3.75-7.44,4.6-14.25,1.09-21.74-.92-1.95-1.33-4.14-1.97-6.22-.28,0-.56.01-.84.02-.34,1-.72,1.99-1.02,3.01-5.71,19.14-9.32,38.72-12.17,58.45-2.12,14.67-4.95,29.01-11.62,42.53-10.67,21.64-15.9,44.71-15.24,68.9.93,34.37,17.67,58.94,48.48,72.98,27.51,12.54,56.93,12.93,86.47,9.14,1.81-.23,3.67-.94,5.25-1.86,12.26-7.18,22-16.65,27.21-30.23,1.27-3.31,2.69-6.59,4.38-9.69,1.87-3.44,5.09-4.81,7.6-3.71,2.55,1.12,3.54,4.29,2.52,8.09-.05.18-.1.36-.15.54-3.36,11.94-8.94,22.57-18.22,31.03-.69.63-1.23,1.44-1.84,2.16.05.29.09.58.14.87,9.14-2.03,16.68.97,23.3,7.56.81-1.64,1.27-2.63,1.78-3.59,2.35-4.46,4.64-8.95,7.09-13.35,1.03-1.85,2.52-3.47,4.97-2.68,2.45.79,2.5,2.99,2.54,5.1.13,6.82-2.31,12.78-5.92,18.41-.51.8-.48,1.95-.7,2.94,1.04.07,2.08.09,3.11.22,4.58.57,9.14.8,13.72-.01,1.09-.19,2.21-.23,3.31-.34-.28-.99-.35-2.12-.88-2.95-3.62-5.73-6.05-11.8-5.87-18.72.05-1.95.3-3.86,2.43-4.61,2.29-.81,3.85.54,4.86,2.33,2.53,4.47,4.9,9.02,7.32,13.54.55,1.03,1.07,2.08,1.55,3.02,3.89-2.26,7.28-5,11.16-6.27,3.82-1.25,8.12-1,12.72-1.45-1.05-1.13-1.8-2.04-2.66-2.83-9.19-8.47-14.38-19.21-17.69-31.02-.32-1.15-.48-2.42-.36-3.59.45-4.41,4.45-6.2,7.93-3.48,1.28,1,2.38,2.41,3.17,3.85,1.26,2.29,2.42,4.68,3.21,7.15,2.88,9.02,8.46,16.18,15.17,22.57,7.21,6.88,15.31,11.62,25.7,12.28,18,1.14,35.89.76,53.65-2.45,26.38-4.78,47.68-17.47,62.35-40.4,3.77-5.9,6.59-12.15,8.16-18.96,7.07-30.69,1.51-59.91-11.11-87.99-5.42-12.07-9.75-24.23-11.62-37.31-3.18-22.23-6.84-44.37-13.27-65.94-.33-1.1-.77-2.17-1.16-3.26-.96.85-1.33,1.67-1.59,2.51-1.22,3.93-2.63,7.82-3.51,11.82-.43,1.94-.3,4.26.36,6.13,2.03,5.72,4.8,11.19,6.62,16.96,2.97,9.38,3.12,18.95.33,28.48-.55,1.89-1.24,3.72-3.62,3.59-2.41-.13-2.88-2.03-3.1-3.99-1.64-14.37-4.68-28.37-10.19-41.83-1.23-3.01-1.66-6.97-.85-10.08,2.48-9.57,5.63-18.97,8.77-28.36.82-2.45,1.08-4.59.22-7.03-2.16-6.18-4.18-12.41-6.2-18.63-.52-1.59-.95-3.24-1.15-4.9-.34-2.73.54-5.05,3.15-6.31,2.52-1.21,4.72-.36,6.69,1.39.61.54,1.21,1.08,1.77,1.58,8.2-10.64,16.28-21.11,24.57-31.86-1.05-.11-1.85-.23-2.65-.27-5.86-.3-11.56.49-17.1,2.45-1.95.69-3.94.85-5.33-1.1-1.36-1.91-.55-3.74.52-5.48,2.36-3.82,6.03-5.82,10.18-6.93,7.52-2.02,15.17-2.33,22.77-.67,2.56.56,4.15-.05,5.95-1.79,3.89-3.77,7.92-7.41,12.08-10.88,12.62-10.51,26.9-16.74,43.59-16.72,2.42,0,4.84-.39,7.25-.71,2.63-.35,4.05-1.86,3.77-4.6-.27-2.69-.34-5.47-1.08-8.04-3.36-11.77-6.91-23.49-10.42-35.22-.2-.65-.66-1.23-1.31-2.4-.51,1.32-.8,2.06-1.07,2.8-3.02,8.35-5.97,16.72-9.08,25.04-1.94,5.17-5.73,8.38-11.31,8.77-10.91.75-19.78,5.54-27.64,12.85-1.77,1.65-4.14,3.01-6.47,3.64-3.65.99-6.37-1.99-5.24-5.59.68-2.17,1.78-4.41,3.28-6.1,8.46-9.46,18.69-16.06,31.41-18.13,2.56-.42,3.93-1.56,4.84-3.92,4.56-11.8,8.47-23.78,10.64-36.28.27-1.56.91-3.08,1.05-4.64.18-1.97.56-4.16-.08-5.91-3.21-8.68-6.72-17.25-10.15-25.85-.32-.8-.8-1.54-1.21-2.31-.91.93-1.13,1.78-1.37,2.63-1.2,4.42-2.12,8.94-3.71,13.21-1.19,3.19-3.13,6.13-4.96,9.05-1.08,1.72-2.75,3.01-4.98,2.13-2.28-.9-2.36-2.95-2.07-4.98.34-2.41.67-4.82,1.21-7.19,2.98-13.04,3.94-26.26,3.39-39.58-.15-3.56-.91-7.28-2.29-10.56-5.32-12.67-11-25.19-16.57-37.76-.38-.85-.9-1.64-1.36-2.46l-.72.18c-.25,1.63-.44,3.27-.76,4.88-1.85,9.35-3.58,18.72-5.68,28.01-.58,2.55-2.11,4.99-3.64,7.17-.61.88-2.51,1.44-3.61,1.2-.94-.21-1.88-1.68-2.25-2.78-.37-1.08-.08-2.4.03-3.61,1.61-18.62,3.06-37.26,4.98-55.85.64-6.21-1.9-11.3-3.9-16.68-.58-1.56-1.5-1.58-2.81-.62-1.5,1.09-3.07,2.2-4.78,2.84-4.96,1.84-8.9-.97-8.31-6.21.35-3.08,1.34-6.28,2.82-9,3.18-5.81,6.74-11.43,10.39-16.97,13.88-21.09,27.86-42.11,41.8-63.16,5.46-8.25,10.05-17.09,17.03-24.3,1.41-1.46,2.32-3.7,2.76-5.73,1.83-8.28-.67-15.88-4.15-23.26-.06-.12-.33-.14-.68-.27-.28.53-.68,1.04-.85,1.62-3.46,11.34-8.83,21.81-14.5,32.16-10.67,19.46-23.66,37.22-38.88,53.35-1.54,1.64-3.17,4.18-5.82,2.31-2.78-1.97-.85-4.43.28-6.47,2.28-4.08,4.56-8.18,7.2-12.02,6.31-9.16,13.09-18.01,19.2-27.3,10.3-15.66,18.51-32.37,22-50.93,2.56-13.59,3.91-9.7-5.83-22.13-1.18-1.5-2.38-2.99-3.57-4.48-.34.22-.69.44-1.03.66-.19.77-.47,1.52-.56,2.3-2.26,18.91-8.42,36.57-17.2,53.37-3.99,7.63-8.97,14.48-16.7,18.83-1.7.96-3.48,1.61-5.24.23-1.74-1.37-1.73-3.3-1-5.12,1.86-4.68,3.71-9.38,5.84-13.94,4.12-8.8,8.78-17.36,12.58-26.29,4.84-11.37,8.75-23.08,9.79-35.56.25-2.99-.58-4.76-3.54-5.68-7.43-2.32-12.02-7.61-13.83-14.96-2.01-8.15-3.37-16.46-5.02-24.69-.2-1-.49-1.98-.95-3.83-1.22,1.81-1.98,2.82-2.6,3.91-9.97,17.47-23.61,30.9-42.11,39.33-8.32,3.79-16.22,8.51-24.33,12.77-3.38,1.78-6.68,3.83-10.24,5.16-6.44,2.41-12.5.62-16.86-4.73-1.7-2.09-3.08-4.45-4.47-6.77-3.41-5.69-6.72-11.44-10.11-17.15-.49-.82-1.19-1.52-2.35-2.98-.22,1.86-.37,2.82-.44,3.79-.54,7.22-2.42,14.03-6.71,19.94-1.28,1.77-3.09,3.22-4.83,4.6-1.49,1.18-3.55,1.67-4.82.08-.87-1.1-1.04-3.03-.92-4.54.12-1.53.87-3.05,1.52-4.49,5.38-11.83,4.48-23.67-.06-35.45-.61-1.58-1.67-3.34-3.04-4.21-6.45-4.11-13.05-7.97-19.66-11.81-.94-.54-2.25-.45-3.38-.65,0,1.08-.02,2.16.01,3.23.26,7.26.86,14.53.64,21.78-.09,3.12-1.66,6.27-2.95,9.24-.91,2.09-2.62,3.85-5.31,3.16-2.59-.67-2.94-2.96-2.99-5.15-.06-2.61.09-5.23.24-7.84.51-8.91-.85-17.52-4.11-25.84-.79-2.02-1.99-2.83-4.24-2.76-5.51.17-11.03.17-16.54.01-2.34-.07-3.62.74-4.44,2.9-3.09,8.06-4.51,16.37-4.1,25,.16,3.26.35,6.57-.02,9.79-.16,1.38-1.54,3.42-2.7,3.68-1.33.29-3.7-.63-4.43-1.77-1.61-2.55-2.95-5.47-3.56-8.41-1.66-7.98-.93-16,.42-23.98.17-1.03.19-2.08.31-3.41-1.09.22-1.74.25-2.32.47-8,3.13-15.15,7.7-21.86,13-.84.66-1.53,1.71-1.9,2.72-3.77,10.37-6.13,20.84-2,31.73,1.19,3.15,2.4,6.31,3.19,9.57.29,1.21-.17,3.3-1.04,3.93-1.01.73-3.21.87-4.28.24-2.03-1.2-3.94-2.91-5.33-4.82-4.24-5.82-6.07-12.56-6.69-19.67-.09-1.04-.29-2.07-.56-3.91-1.05,1.41-1.66,2.08-2.12,2.85-4.21,7.07-8.23,14.25-12.62,21.2-5.46,8.65-13.06,10.62-22.25,6.09-1.76-.87-3.43-1.9-5.16-2.84-7.98-4.3-15.98-8.58-23.95-12.89-5.34-2.89-10.84-5.53-15.94-8.8-12.43-7.96-21.12-19.38-28.5-31.92-.58-.98-1.29-1.88-2.45-3.56Z" style="fill: #000; stroke-width: 0px;"/>
  <path d="M93.95,430.67c-.52,1.55-.85,2.57-1.2,3.6-1.78,5.22-3.45,10.47-5.38,15.63-1.19,3.18-3.33,4.48-5.64,3.98-2.4-.52-3.85-2.5-3.5-5.91.75-7.33,1.57-14.68,2.79-21.94,8.98-53.68,33.83-100.01,66.23-142.86,19.09-25.25,39.45-49.38,62.05-71.57,2.25-2.21,4.82-4.17,7.5-5.84,1.68-1.04,3.79-1.7,5.77-1.88,4.47-.39,7.5,2.55,6.97,7.01-.54,4.51-1.17,9.14-2.71,13.38-7.81,21.52-10.93,43.48-6.96,66.18,2.82,16.12,6.32,32.12,8.82,48.28,3.36,21.71,6.41,43.49,6.7,65.53.2,15.01-1.66,29.68-7.57,43.63-4.19,9.9-10.25,18.41-18.59,25.28-12.97,10.67-27.52,13.13-43.49,8.61-20.63-5.84-38.29-16.74-53.48-31.69-5.78-5.69-11.09-11.88-16.62-17.83-.37-.39-.78-.74-1.69-1.58ZM206.56,451.49c.33.08.65.16.98.23,1.4-2.37,2.94-4.67,4.17-7.13,9.42-18.88,10.37-39.08,8.3-59.47-1.29-12.72-3.85-25.32-6.09-37.93-3.49-19.7-7.45-39.32-10.71-59.06-2.46-14.93-3.09-29.96,1.32-44.77.14-.45.02-.98.02-2.13-1.21,1.07-2,1.68-2.68,2.39-5.89,6.13-11.96,12.12-17.6,18.47-7.75,8.72-15.74,17.31-22.62,26.7-16.31,22.27-30.72,45.8-44.03,70-8.8,15.99-15.62,32.73-19.11,50.71-.29,1.51-.31,3.69.55,4.7,5.08,5.98,10.44,11.72,15.74,17.52.41.45,1.01.71,1.45,1.02.34-.19.54-.25.65-.38.18-.21.33-.46.43-.72,4.05-10.74,11.87-18.21,21.27-24.23,15.41-9.87,31.78-8.38,45.32,3.99,11.12,10.16,17.84,22.9,21.87,37.22.27.96.53,1.92.79,2.87ZM170.86,457.02c-.67-6.13-1.43-12.3-6.6-16.88-3.72-3.29-5.99-3.33-8.41,1.05-2.41,4.38-4.1,9.16-6.06,13.79-.82,1.94-.01,3.17,1.84,3.98,3.93,1.72,7.78,3.63,11.76,5.24,4.55,1.85,6.44.67,7.24-4.24.15-.92.15-1.86.23-2.94Z" style="fill: #000; stroke-width: 0px;"/>
  <path d="M465.57,430.47c-1.22,1.43-1.92,2.25-2.62,3.07-16.6,19.75-35.66,36.22-60.24,45.37-9.83,3.66-19.88,6.28-30.45,4.48-14.42-2.45-25.01-10.93-33.24-22.52-9.55-13.46-13.33-28.88-14.5-45.09-1.29-17.85,1.25-35.45,3.05-53.13,2.18-21.45,7.11-42.41,10.86-63.57,2.44-13.75,4.44-27.67,2.32-41.57-1.56-10.2-4.66-20.16-7.09-30.23-1.22-5.06-2.82-10.06-3.61-15.18-.98-6.34,3.84-10.21,9.76-7.66,3.68,1.59,7.21,4.09,10.06,6.92,16.04,15.97,31.64,32.36,45.59,50.23,14.84,19.01,30.21,37.65,42.32,58.63,13.02,22.55,25.3,45.51,32.49,70.68,5.18,18.14,9.78,36.5,11.03,55.47.03.47.06.93.06,1.4.06,3.45-1.29,5.67-3.71,6.12-2.31.43-4.42-.94-5.58-4.1-1.89-5.18-3.56-10.43-5.32-15.66-.32-.95-.62-1.91-1.19-3.68ZM443.09,432.99c.75-.55,1.42-.89,1.89-1.4,5.21-5.75,10.45-11.46,15.51-17.34.76-.88,1.08-2.72.75-3.87-2.87-10.05-5.37-20.26-9.06-30.02-6.13-16.24-15.4-30.93-24.16-45.84-19.5-33.2-41.85-64.18-70.06-90.64-.77-.73-1.61-1.39-2.41-2.08-.21.12-.41.24-.62.37.17.85.36,1.7.52,2.55.74,3.85,1.73,7.67,2.18,11.56,1.59,13.9-.22,27.62-2.66,41.27-4.04,22.64-8.21,45.25-12.27,67.89-2.58,14.36-4.92,28.69-3.66,43.45,1.2,14.16,3.78,27.78,11.29,40.08.58.95,1.36,1.79,2.29,2.98.43-1.04.66-1.53.84-2.04,1.91-5.26,3.48-10.67,5.78-15.77,4.76-10.57,11.54-19.68,21.1-26.43,9.44-6.66,19.9-8.99,30.85-4.94,14.03,5.18,24.88,14.25,30.83,28.42.24.57.62,1.07,1.07,1.82ZM388.64,457.95c.17.9.27,2.42.75,3.81,1.23,3.54,2.45,4.17,5.86,2.79,4.32-1.75,8.59-3.65,12.78-5.69.87-.43,2-1.9,1.84-2.64-1.34-6.16-3.48-12.05-7.68-16.9-1.94-2.24-3.43-2.05-5.81-.19-5.96,4.66-7.22,11.26-7.75,18.82Z" style="fill: #000; stroke-width: 0px;"/>
  <path d="M178.6,591.57c.07-10.82,3.5-20.14,10.98-27.86,1.91-1.97,1.14-3.21-.28-4.97-7.21-8.95-14.39-17.92-21.34-27.07-1.45-1.91-2.43-4.5-2.75-6.89-.62-4.63,3.14-7.78,7.62-6.5,1.97.56,3.96,1.77,5.45,3.2,9.24,8.86,18.5,17.71,27.42,26.89,3.34,3.43,6.31,7.45,8.52,11.69,3.15,6.06.76,9.19-5.02,12.64-4.43,2.65-8.22,7.1-10.95,11.57-1.42,2.32-.3,6.48.34,9.68.5,2.5,1.73,4.99,3.18,7.11,1.33,1.93,3.16,3.79,5.2,4.91,4.74,2.61,5.97,1.83,6.87-3.37,1.23-7.12,4.22-13.36,9.69-18.21,10.55-9.35,23.39-9.63,36.06-.87,6.19,4.28,10.92,9.9,14.77,16.3,2.79,4.65,8.08,4.66,10.9.03,4.39-7.19,9.84-13.38,17.14-17.81,21.43-12.99,39.77,2.32,42.94,18.64.27,1.37.5,2.77.59,4.16.14,2.14,1.26,2.69,3.21,2.35,3.28-.58,6.06-2.03,7.92-4.82,1.19-1.78,2.19-3.7,3.1-5.64,3.25-6.98,2.97-13.29-3.27-18.73-2.79-2.44-5.01-5.39-8.9-6.5-2.93-.83-4.57-3.76-3.88-6.98.65-3.03,1.74-6.19,3.47-8.72,2.4-3.52,5.42-6.66,8.45-9.69,8.07-8.05,16.25-16,24.49-23.87,1.64-1.57,3.61-3.1,5.72-3.83,4.85-1.68,9.07,1.97,8.11,7.01-.44,2.3-1.5,4.7-2.93,6.56-6.86,8.98-13.9,17.83-20.97,26.65-2.22,2.78-2.36,2.98.05,5.57,6.37,6.86,10.19,14.95,9.86,24.33-.24,6.85-1.18,13.78-2.74,20.46-1.67,7.16-6.58,12.27-13.12,15.64-9.58,4.95-19.46,8.14-30.49,5.69-2.77-.62-5.87.22-8.63-.43-6.98-1.65-13.29-4.87-18.9-9.43-.8-.65-2.33-1.4-3.01-1.07-5.95,2.9-11.5,1.47-16.96-1.22-2.63-1.3-5.22-2.78-8.24-2.03-1.96.48-3.85,1.38-5.69,2.25-3.88,1.83-8.15,3.75-12.12,2.21-4.66-1.81-7.38-.11-11.02,2.34-6.75,4.55-14.02,8.41-22.74,7.23-.45-.06-.94.01-1.39.12-10.78,2.54-20.51-.65-29.96-5.46-7.24-3.68-12.16-9.37-14.05-17.27-1.25-5.25-1.86-10.65-2.76-15.98Z" style="fill: #000; stroke-width: 0px;"/>
  <path d="M216.49,732.08c1.21-3.31-1.02-6.13-3.25-9.33-6.22-8.92-11.86-18.24-13.83-29.16-1.85-10.23.37-19.63,7.26-27.49,7.78-8.88,18.37-10.04,27.85-2.98,3.69,2.74,6.62,6.52,9.79,9.92,1.33,1.43,2.48,3.06,3.53,4.71,5.64,8.83,14.65,8.53,23.44,8.64,4.64.06,9.41-1.06,13.91-.35,5.46.86,10.59-.11,15.84-.72,3.21-.37,5.89-1.83,7.95-4.3,2.15-2.58,4.04-5.4,6.3-7.87,3.26-3.56,6.34-7.5,10.23-10.24,10.5-7.42,22.35-5.02,29.52,5.71,6.86,10.27,7.52,21.37,3.08,32.69-3.36,8.54-7.76,16.57-13.46,23.85-.99,1.26-1.67,3.26-1.53,4.83,1.15,12.45-3.44,22.43-12.44,30.75-5.19,4.8-11.31,7.17-18.27,7.5-9.65.45-18.23-2.29-25.64-8.64-6.74-5.78-7.16-5.78-13.84-.06-6.12,5.24-13.17,7.83-21.13,8.75-19.49,2.23-36.73-17.3-35.29-36.2ZM315.35,741.04c.07-.25.14-.5.21-.75.65,0,1.31.03,1.96,0,8.35-.51,11.54-4.63,9.88-12.82-.35-1.74-.88-3.44-1.24-5.18-.28-1.37-.59-2.76-.6-4.15-.04-5.01,3.98-7.77,8.56-5.72,2.07.93,3.2.53,3.88-1.46,1.87-5.48,4.06-10.88,5.44-16.48,1.17-4.74.04-9.32-3.76-12.84-2.5-2.32-4.38-2.34-6.85-.05-1.3,1.21-2.58,2.47-3.66,3.86-5.48,7.02-12.66,11.83-20.44,15.87-6.18,3.21-12.59,4.4-19.53,2.67-6.24-1.55-12.61-1.54-18.86,0-6.1,1.51-11.93.93-17.49-1.75-7.88-3.79-15.29-8.28-20.97-15.16-1.66-2.01-3.46-3.94-5.37-5.72-2.16-2.02-3.96-2-6.22-.07-4.21,3.61-5.35,8.43-4.09,13.5,1.35,5.42,3.47,10.65,5.29,15.95.71,2.06,1.81,2.59,4.05,1.63,4.73-2.02,8.79.98,8.51,6.12-.1,1.75-.65,3.48-.98,5.22-.45,2.38-1.12,4.75-1.26,7.16-.28,4.87,1.99,7.74,6.76,8.86,4.77,1.13,9.49.71,14.1-.81,2.84-.94,5.59-2.12,8.41-3.12,5.7-2.02,11.38-2.88,17.17-.09.98.47,2.49,0,3.72-.22,2.46-.43,4.97-1.65,7.31-1.36,4.21.51,8.33,1.82,12.45,2.93,4.56,1.24,9.08,2.64,13.62,3.97Z" style="fill: #000; stroke-width: 0px;"/>
  <path d="M98.18,763.78c.96-7.03,1.73-14.09,2.96-21.07.82-4.65,2.86-8.93,6.24-12.35,1.21-1.23,2.72-2.37,4.32-2.98,3.77-1.45,7.58,1.47,7.32,5.5-.08,1.27-.49,2.59-1.05,3.74-6.27,13-6.39,26.61-3.57,40.32,1.95,9.48,7.96,16.8,14.52,23.58,12.93,13.36,29.09,20.15,47.24,22.26,10.85,1.26,21.8,1.63,32.71,2.42,1.02.07,2.21-.05,3.02.44,1.17.7,2.62,1.74,2.89,2.89.23.99-.9,2.42-1.68,3.46-.46.61-1.43.84-2.18,1.22-11.48,5.87-23.65,6.45-36.11,4.61-27.63-4.1-49.4-17.95-66.07-40.06-7.86-10.42-10.72-20.71-10.56-33.96Z" style="fill: #000; stroke-width: 0px;"/>
  <path d="M461.21,765.27c.54,12.36-3.34,23.29-10.74,32.97-17.54,22.96-40.45,36.76-69.37,40.03-11.07,1.25-21.85.2-32-4.82-.75-.37-1.74-.58-2.2-1.18-.94-1.22-2.3-2.74-2.16-3.99.11-1.04,2.02-2.51,3.28-2.7,4.43-.64,8.93-.75,13.4-1.16,9.67-.88,19.43-1.26,28.98-2.87,15.2-2.56,28.37-9.47,39.57-20.26,12.64-12.17,18.27-26.75,16.76-44.23-.61-7.06-1.83-13.88-5.1-20.25-.5-.98-.87-2.09-1.03-3.18-.33-2.27.22-4.33,2.23-5.67,1.96-1.32,4.25-1.5,6.07-.12,2.12,1.6,4.15,3.51,5.68,5.66,3.15,4.45,4.36,9.7,5.01,15.02.67,5.56,1.09,11.16,1.61,16.74Z" style="fill: #000; stroke-width: 0px;"/>
  <path d="M301.37,349.45c-.6,15.4.96,33.34,3.38,51.26,3.92,28.98,4.42,58.13,3.89,87.32-.1,5.23.33,10.49-.03,15.69-.26,3.66-1.02,7.42-2.33,10.83-1.44,3.74-5.44,4.36-7.78,1.14-1.95-2.68-3.51-6.02-4.03-9.27-.59-3.7-.11-7.64.36-11.43,3.05-24.74,2.52-49.49-.37-74.14-3.65-31.22-3.63-62.48-2.47-93.8.15-3.92.7-7.82,1.14-11.72.35-3.12,2.11-4.93,4.47-4.76,2.37.17,3.78,2.2,3.77,5.34-.01,10.28,0,20.56,0,33.53Z" style="fill: #000; stroke-width: 0px;"/>
  <path d="M422.04,698.93c-.32,12.44-2.93,26.93-9.17,40.54-7.03,15.33-18.52,25.39-35.6,28.05-6.89,1.07-13.66.08-19.94-2.99-1.38-.67-2.79-2.33-3.15-3.78-.52-2.08,1.3-3.33,3.13-4.06,5.29-2.11,10.55-4.34,15.92-6.23,13.45-4.71,21.91-14.16,27.33-27.12,7.91-18.92,7.75-37.82,1.13-56.93-.83-2.38-1.68-4.77-2.32-7.2-.93-3.55.1-6.29,2.73-7.84,2.36-1.39,6.11-1.05,8.22,1.46,2.06,2.46,3.82,5.32,5.09,8.27,4.09,9.56,6.59,23.71,6.62,37.84Z" style="fill: #000; stroke-width: 0px;"/>
  <path d="M250.93,464.6c-.28-25.85,2.17-51.51,5.36-77.14,1.2-9.62,1.6-19.38,1.79-29.08.27-14.2.03-28.41,0-42.61,0-2.86,1.44-4.95,3.68-5.17,2.34-.24,4.32,1.58,4.56,4.64.66,8.29,1.65,16.59,1.64,24.88-.02,19.99-.16,40-.97,59.98-.53,13.15-2.6,26.23-3.48,39.37-1.34,20-.93,39.96,1.62,59.9.51,4.01-.33,8.37-1.39,12.34-.81,3-2.88,6.04-6.69,5.81-3.92-.24-4.51-3.79-5.28-6.72-.57-2.14-.8-4.43-.81-6.65-.07-13.18-.04-26.36-.04-39.54Z" style="fill: #000; stroke-width: 0px;"/>
  <path d="M137.58,699.1c.07-14.48,2.02-25.87,6.13-36.82,1.16-3.1,2.84-6.12,4.84-8.75,2.36-3.1,6.27-3.71,9.03-2.09,2.74,1.61,3.45,4.69,2.42,8.7-2.36,9.21-5.55,18.35-6.63,27.72-2.06,17.75,3.05,34.06,13.23,48.68,4.47,6.41,10.94,10.34,18.11,13.18,5.56,2.21,11.13,4.37,16.68,6.59,2.04.82,4.07,1.78,4,4.45-.07,2.49-1.98,3.42-3.94,4.2-14.98,5.9-28.45,2.65-40.68-7.01-10.13-8-15.27-19.13-18.65-31.23-2.78-9.94-4.59-20.03-4.52-27.62Z" style="fill: #000; stroke-width: 0px;"/>
  <path d="M260.89,192.24c-.89,9.58-1.77,19.15-2.68,28.73-.19,2-.86,3.83-3.28,3.76-2.43-.08-2.93-2.02-3.07-3.97-1.02-14.26-1.98-28.52-3.02-42.78-.42-5.78-.86-11.56-1.55-17.31-.65-5.38-2.79-7.49-8.09-8.58-4.87-1.01-9.49-.03-13.92,1.97-11.22,5.06-19.54,13.56-25.84,23.77-5.03,8.15-8.81,17.07-13.13,25.66-.8,1.58-1.42,3.28-2.38,4.76-1.21,1.88-3.04,2.82-5.31,2.2-2.28-.62-3.32-2.37-3.38-4.62-.04-1.48.05-3.02.44-4.44,6.24-22.88,18.34-41.79,38.1-55.3,6.52-4.46,13.88-6.87,21.92-6.69,12.79.28,20.6,6.95,22.12,19.59,1.33,11.03,2.06,22.13,3.06,33.28Z" style="fill: #000; stroke-width: 0px;"/>
  <path d="M298.66,192.08c1-11.09,1.76-22.28,3.07-33.41,1.43-12.12,9.22-18.87,21.55-19.28,10.88-.36,20.12,3.97,28.21,10.69,15.36,12.76,25.7,28.97,31.59,48.02.68,2.21,1.04,4.57,1.24,6.88.22,2.55-.79,4.71-3.43,5.44-2.63.73-4.6-.56-5.73-2.9-1.95-4.04-3.81-8.12-5.59-12.24-5.51-12.76-12.67-24.37-23.32-33.54-4.65-4-9.68-7.45-15.68-8.97-2.93-.74-6.12-1.09-9.11-.79-6.32.63-8.73,3.16-9.34,9.51-.88,9.21-1.52,18.44-2.21,27.67-.77,10.25-1.49,20.5-2.23,30.76-.05.65.07,1.47-.27,1.91-.84,1.08-1.77,2.55-2.91,2.83-1.83.45-2.76-1.13-3.14-2.83-.08-.36-.13-.74-.16-1.11-.84-9.49-1.67-18.98-2.52-28.62Z" style="fill: #000; stroke-width: 0px;"/>
  <path d="M443.9,107.5c-1.81,1.29-2.85,2.04-3.9,2.78-8.34,5.85-16.56,11.88-25.08,17.46-2.89,1.89-6.44,2.9-9.83,3.81-1.67.45-3.75.06-5.48-.48-3.29-1.03-4.85-4.25-3-7.13,1.81-2.82,4.24-5.52,7-7.39,4.39-2.97,9.19-5.39,13.97-7.72,10.15-4.96,19.68-10.76,27.7-18.83.98-.99,2.1-1.89,3.29-2.6,4.11-2.44,8.69-.57,9.98,4.02.2.71.37,1.47.36,2.21-.17,9.27-.66,18.5-3.14,27.51-.17.63-.38,1.25-.61,1.87-1.24,3.35-3.4,4.97-6.17,4.64-2.64-.31-4.53-2.31-4.82-5.71-.29-3.43-.21-6.9-.27-10.35-.02-1.07,0-2.14,0-4.08Z" style="fill: #000; stroke-width: 0px;"/>
  <path d="M115.79,107.72c0,3.38.08,5.98-.03,8.57-.1,2.33-.24,4.68-.67,6.96-.46,2.4-2,4.05-4.52,4.36-2.66.33-4.65-.98-5.59-3.33-1.03-2.59-1.98-5.31-2.31-8.06-.86-7.14-1.44-14.31-1.98-21.49-.24-3.26.65-6.22,3.88-7.76,3.25-1.55,6.15-.42,8.43,1.94,10.35,10.73,23.48,17.11,36.45,23.81,3.86,2,7.36,4.73,10.88,7.31,1.07.78,1.86,2.12,2.46,3.35,1.82,3.68.31,7.33-3.71,7.91-2.84.41-6.05.17-8.73-.79-3.47-1.24-6.74-3.25-9.8-5.35-7.4-5.07-14.64-10.39-21.95-15.6-.72-.52-1.49-.98-2.8-1.83Z" style="fill: #000; stroke-width: 0px;"/>
  <path d="M279.92,728.35c-1.63-.3-3.1-.56-4.56-.85-6.75-1.35-13.52-2.65-20.24-4.12-2.51-.55-5.13-1.18-7.35-2.39-2.69-1.46-3.35-4.29-2.17-6.48,1.08-1.99,3.14-2.22,6.18-1.64,6.78,1.29,13.64,2.14,20.43,3.37,4.93.89,9.78,1,14.73.05,7.32-1.4,14.7-2.5,22.06-3.76,2.04-.35,3.78.06,4.83,1.93,1.09,1.95.91,4.23-.82,5.34-2.42,1.57-5.22,2.81-8.03,3.44-4.63,1.04-9.42,1.39-14.1,2.21-2,.35-3.91,1.21-5.89,1.74-1.7.46-3.44.78-5.07,1.14Z" style="fill: #000; stroke-width: 0px;"/>
</svg>