<?xml version="1.0" encoding="UTF-8"?>
<svg id="Layer_1" data-name="Layer 1" xmlns="http://www.w3.org/2000/svg" viewBox="0 0 654.25 900">
  <path d="M653.85,224.95c.82,14.57.64,29.16-3.22,43.31-1.93,7.08-2.46,13.76-1.22,21.11,1.91,11.31-.88,22.58-2.49,33.8-3.92,27.28-16.58,50.2-34.23,70.96-10.3,12.12-22.04,22.47-34.76,31.77-3.55,2.6-5.98,5.35-7.83,9.39-2.75,6.02-6.45,11.61-9.95,17.27-1.2,1.95-1.57,3.47-.47,5.65,4.38,8.67,5.59,18.1,5.52,27.62-.13,17.06-3.27,33.55-10.72,49.05-5.33,11.1-13.06,20.09-23.68,26.43-2.12,1.26-3.11,2.89-3.61,5.31-1.02,4.95-2.36,9.85-3.69,14.73-.66,2.44.16,3.97,1.74,5.96,3.49,4.42,7.59,6.32,13.17,6.06,2.65-.12,5.37.74,8.02,1.37,12.84,3.04,21.74,12.23,23.4,25.37.82,6.48,2.4,11.32,8.18,15.53,8.5,6.21,12.22,15.54,11.07,26.27-.9,8.43-.55,16.38,2.3,24.71,3.63,10.6,3.76,22.03,1.91,33.15-.89,5.37-2.85,10.71-5.16,15.67-4.5,9.64-10.31,18.49-17.83,26.15-1.3,1.32-2.3,3.27-2.69,5.08-4.02,18.89-13.48,34.44-29.38,45.37-9.62,6.61-19.83,12.65-30.43,17.5-12.78,5.85-26.67,7.27-40.71,5.93-1.92-.18-2.86.26-3.73,1.97-7.79,15.32-27.76,27.26-44.89,26.83-2.27-.06-3.79.61-5.3,2.37-5.77,6.77-13.48,10.4-21.95,12.29-5,1.12-10.2,1.34-15.29,2.14-1.35.21-3.16.72-3.8,1.71-4.64,7.1-11.65,10.33-19.38,12.53-3.6,1.02-7.2,2.07-10.8,3.09-1.17.33-2.34.84-3.54.9-9.6.53-19.26,1.93-28.6-1.86-1.81-.73-3.76-1.16-5.68-1.58-8.84-1.96-16.76-5.32-22.03-13.3-.66-1-2.73-1.42-4.19-1.5-9.86-.54-19.46-2.15-27.99-7.39-3.38-2.07-6.14-5.13-9.31-7.59-1.08-.84-2.53-1.72-3.81-1.73-18.98-.09-36.72-10.61-46.11-27.33-.47-.84-2.06-1.56-3.08-1.49-16.48,1.11-32.35-.79-47.11-8.84-10.21-5.57-20.69-10.78-29.49-18.5-12.57-11.01-20.73-24.75-24.22-41.21-.42-1.99-1.47-4.14-2.87-5.58-8.3-8.53-14.32-18.52-19.27-29.21-4.61-9.96-4.84-20.53-4.07-31.18.57-7.88,1.63-15.66,5.21-22.9.61-1.24.55-2.93.47-4.39-.25-4.3-.72-8.6-1-12.9-.79-12.38,4.97-21.48,14.77-28.23,2.48-1.71,3.45-3.44,3.62-6.34.44-7.49,2.06-14.65,6.97-20.71,4.15-5.13,9.22-8.93,15.68-10.3,5.1-1.09,10.33-1.63,15.53-2.14,3.32-.32,9.82-7.94,9.08-11.17-1.31-5.66-2.64-11.32-4.15-16.93-.31-1.13-1.3-2.35-2.31-2.96-17.92-10.83-27.06-27.45-31.6-47.24-2.78-12.13-4.68-24.3-3.33-36.8.77-7.15,2.24-14.05,5.38-20.58.5-1.03.44-2.87-.17-3.81-4.7-7.24-9.51-14.4-12.37-22.66-.34-.97-1.28-1.88-2.18-2.48-16.61-11.06-30.51-24.89-43.3-40.19-21.8-26.07-30.43-56.63-32.21-89.68-.31-5.71,1.09-11.51,1.63-17.27.14-1.46.35-3.08-.11-4.41-3.37-9.65-5.16-19.65-5.68-29.76-.94-18.28-.73-36.59,1.61-54.78,1.99-15.51,8.07-29.62,15.83-43.03,2.66-4.6,5.98-8.83,8.82-13.33.97-1.54,1.68-3.37,2.06-5.16,2.22-10.61,5.66-20.84,10.21-30.63,7.63-16.45,19.74-28.77,35.6-37.51,11.79-6.5,23.81-12.35,37.38-14.18.89-.12,1.97-.83,2.48-1.59,8.91-13.26,21.94-20.98,36.2-27.05,20.73-8.82,42.07-9.6,63.69-4.31,4.56,1.11,8.84,3.55,13.08,5.72,2.19,1.12,3.65.96,5.54-.52,13.26-10.35,28.41-15.57,45.18-15.37,5.43.07,10.9,1.54,16.25,2.78,2.29.53,4.03.69,5.97-.86,5.43-4.35,11.81-6.47,18.63-7.26,1.91-.22,3.89.21,5.84.35,1.2.09,2.47.49,3.6.24,9.24-2.06,17.23,1.1,24.6,6.12,2.62,1.79,4.67,2.2,7.7,1.13,12.28-4.32,24.6-2.94,36.79.55,8.84,2.53,16.86,6.76,24.07,12.49,1.43,1.13,2.67,1.73,4.55.72,20.91-11.22,42.89-11.72,65.27-5.83,15.92,4.19,30.33,11.43,42.1,23.27,1.45,1.46,3.01,2.94,4,4.7,1.96,3.5,4.89,4.58,8.69,5.56,27.22,7.02,50.99,19.47,65.86,44.69,6.19,10.49,10.01,22.01,12.71,33.85.93,4.09,2.79,7.48,5,11.06,5.47,8.81,10.44,17.99,14.95,27.34,6.64,13.76,8.57,28.66,9.05,43.77.16,4.96.02,9.93.02,14.9ZM284.43,61.36c1.1.93,1.63,1.44,2.22,1.88,9.98,7.38,17.22,16.94,22.03,28.29,5.14,12.13,7.01,24.92,6.06,38-1.57,21.76-6.67,42.47-20.12,60.24-3.01,3.97-6.98,7.25-10.72,10.63-2.1,1.9-2.22,2.04.14,3.84,18.05,13.72,27.7,31.63,27.08,54.62-.1,3.84-.29,7.68-.44,11.53-.63,16.54-6.21,31.53-14.53,45.61-1.07,1.81-.79,2.79.7,4.01,2.24,1.84,4.55,3.66,6.45,5.83,14.44,16.45,16.93,36.03,14.37,56.75-1.09,8.82-5.6,16.45-9.71,24.14-1.17,2.2-.97,3.86.36,5.94,2.52,3.94,5.12,7.92,6.88,12.22,8.15,19.85,8.95,40.24,3.7,60.95-.78,3.09-1.55,6.19-2.15,9.32-1.86,9.79-5.66,18.83-10.48,27.48-1.6,2.87-3.1,5.79-4.77,8.61-1.1,1.86-.71,3.03,1.06,4.18,6.81,4.44,11.4,10.71,14.86,17.97,6.1,12.79,7.13,26.37,5.9,40.14-.37,4.12-1.96,8.64-4.39,11.94-4.13,5.62-9.4,10.39-14.13,15.58-.65.71-1.48,1.88-1.3,2.61.36,1.46,1.02,2.84,3.2,2.85,4.94.02,7.67,2.05,9.09,6.79.91,3.03,1.16,6.26,2,9.33.31,1.14,1.24,2.52,2.26,3,4.34,2.04,8.83,2.08,13.4.46,2-.71,3.09-1.67,3.23-3.95.14-2.32.65-4.64,1.22-6.91,1.58-6.32,3.68-7.95,10.19-8.87,1.03-.15,2.05-1.61,2.7-2.69.28-.47-.21-1.72-.73-2.27-4.06-4.28-8.23-8.45-12.31-12.71-3.97-4.15-6.32-9.17-6.74-14.84-.95-12.82-.33-25.49,4.71-37.6,3.38-8.12,8.06-15.23,15.35-20.39,3.18-2.25,3.02-2.2,1.37-5.6-4.21-8.67-8.73-17.23-12.26-26.18-2.32-5.87-3.21-12.32-4.65-18.53-6.05-26.09-4.4-51.01,11.05-73.91.64-.95.61-2.7.26-3.89-.52-1.77-1.52-3.42-2.48-5.03-7.29-12.34-9.45-25.65-8.2-39.81,1.53-17.31,7.56-32.2,21.59-43.17,1.52-1.19,1.54-2.31.52-3.84-1.14-1.71-2.14-3.53-3.12-5.34-10.1-18.58-12.57-38.68-11.7-59.42.11-2.7.45-5.44,1.11-8.06,4.02-16.03,12.33-29.27,25.93-38.92,1.91-1.36,2.19-2.32.1-3.72-1.7-1.15-3.31-2.46-4.82-3.86-7.39-6.82-12.42-15.43-16.25-24.44-7.76-18.27-11.47-37.47-9.51-57.41,2.1-21.37,10.97-39.17,28.56-52.12.4-.29.65-.79,1.06-1.29-.49-.33-.76-.64-1.09-.71-10.72-2.32-21.36-3.91-32.06.43-5.97,2.43-12.22,2.03-18.38.19-3.22-.96-6.48-2.6-9.71-2.57-7.08.06-14.16.98-21.23,1.61-.76.07-1.48.55-2.77,1.06ZM140.08,154.66c2.2-2.37,3.93-4.46,5.9-6.31,3.3-3.1,7.11-5.26,11.82-5.08,2.62.1,4.83,1.12,5.5,3.93.66,2.78-.69,4.77-3.06,6.02-7.79,4.1-12.19,10.92-15.1,18.86-2.02,5.51-2.37,11.26-.71,16.89,4.29,14.54,13.06,25.51,27.1,31.56,13.53,5.83,27.56,1.76,34.63-9.86,5.71-9.38,8.2-19.81,7.1-30.74-1.05-10.35-6.8-17.48-16.79-20.83-3.55-1.19-7.26-1.91-10.83-3.03-4.07-1.28-4.83-4.82-1.7-7.74,4.12-3.84,9.14-4.98,14.6-4.4,4.87.52,9.27,2.36,13.14,5.32,1.88,1.44,3.08,1.19,4.3-.76,1.8-2.85,3.82-5.57,5.62-8.42,4.68-7.4,6.07-15.44,4.56-24.02-2.82-16-11.42-28.56-23.54-38.89-8.4-7.15-18.17-8.97-28.78-6.39-13.91,3.38-25.24,10.97-34.18,21.97-15.36,18.91-17.21,39.23-1.73,59.41.61.79,1.3,1.52,2.14,2.51ZM514.44,154.93c2.14-3.06,4.07-5.57,5.72-8.26,5.55-8.99,8.28-18.64,6.42-29.26-4.08-23.28-27.88-45.26-51.44-47.55-7.79-.76-14.91,1.05-21.24,5.68-8.81,6.43-15.47,14.72-20.34,24.41-8.01,15.94-8.65,31.47,3.15,46.1.59.73,1.13,1.5,1.6,2.31,1.16,2.04,2.32,2.32,4.48.92,2.88-1.86,6.02-3.56,9.28-4.54,6.42-1.93,12.67-1.39,17.99,3.25,3.6,3.14,2.82,6.79-1.74,8.21-3.31,1.03-6.72,1.72-10.02,2.78-10.14,3.26-16.62,11.33-17.25,21.99-.62,10.45,1.71,20.35,7,29.41,4.78,8.19,12.16,12.23,21.6,12.55,5.34.18,10.47-.85,15.26-3.23,10.42-5.17,17.68-13.44,22.65-23.78,7.41-15.4,1.63-29.76-8.06-38.99-1.73-1.65-4.01-2.73-6.01-4.11-1.92-1.33-3.04-3.12-2.49-5.52.55-2.39,2.28-3.72,4.61-3.88,1.83-.12,3.99-.24,5.49.58,3.31,1.82,6.38,4.12,9.39,6.44,1.36,1.05,2.34,2.61,3.96,4.48ZM200.94,232.66c.16.34.21.65.4.83.46.46.96.89,1.48,1.29,8.02,6.22,13.52,14.24,16.78,23.8,5.23,15.28,5.4,30.75,1.22,46.26-.74,2.75-.34,4.53,1.79,6.39,1.81,1.58,3.45,3.52,4.68,5.58,4.28,7.14,8.45,14.35,12.45,21.65,1.02,1.86,1.8,2.46,3.57,1.14.83-.62,1.73-1.12,2.57-1.72,10.88-7.81,20.25-17.25,29.27-27.08,4.66-5.08,8.67-10.51,11.27-17,5.14-12.82,6.74-26.02,5.32-39.73-1.6-15.48-7.49-28.53-20.16-38.08-2.39-1.8-4.5-4.01-6.99-5.65-1.24-.82-3.14-1.33-4.58-1.06-12.19,2.24-24.35,4.53-36.85,2.87-.82-.11-2.2.44-2.57,1.1-4.56,8.18-10.8,14.58-19.23,18.76-.14.07-.2.3-.43.66ZM454.11,233.4c-.25-.33-.5-.65-.76-.98-.11-.15-.19-.36-.34-.43-8.31-4.16-14.56-10.41-19.05-18.53-.41-.74-1.87-1.43-2.72-1.31-10.76,1.52-21.39.17-31.83-2.09-5.43-1.17-9.57-.93-13.5,3.45-3.67,4.08-8.46,7.16-12.05,11.29-8.54,9.83-11.1,21.92-11.56,34.51-.7,19.18,3.4,36.84,16.88,51.43,9.5,10.27,19.26,20.23,30.86,28.18,3.28,2.25,3.38,2.16,4.95-1.37,4.34-9.73,9.72-18.84,17.08-26.6,1.8-1.9,2.24-3.48,1.55-5.96-3.22-11.45-3.84-23.07-1.83-34.81,2.46-14.36,8.43-26.75,20.28-35.79.59-.45,1.35-.68,2.03-1.01ZM225.88,200.45c1.11-.14,1.83-.17,2.52-.33,5.93-1.41,11.83-2.94,17.78-4.25,12.8-2.81,23.59-9.09,33.27-17.88,10.16-9.23,15.89-20.35,16.28-33.99.28-9.92.2-19.87-.24-29.79-.36-8.09-2.13-15.99-5.55-23.41-3.33-7.24-8.17-13.24-14.99-17.46-8.03-4.97-17.93-3.18-23.89,4.1-6.16,7.53-9.32,16.45-11.73,25.63-.88,3.34-1.13,7.05-.73,10.48,2.03,17.36-2.12,32.37-15.88,43.94-1.31,1.1-1.25,2.04-.47,3.38,5.06,8.69,6.36,18.13,5.33,27.98-.39,3.71-1.07,7.38-1.7,11.6ZM428.6,200.17c-.34-1.92-.65-3.63-.94-5.35-1.82-10.64-1.76-21.11,3.04-31.1,2.27-4.72,2.2-4.6-1.51-8.28-11.26-11.16-15.21-24.8-13.51-40.34.28-2.5.98-5.16.46-7.52-2.27-10.29-5.71-20.09-11.72-28.99-3.83-5.67-9.33-7.11-15.24-7.98-4.19-.62-7.87,1.35-11.22,3.72-10.63,7.54-15.64,18.41-17.82,30.8-2.54,14.41-2.49,28.94-1,43.44.67,6.57,2.47,13,6.4,18.42,7.83,10.81,17.45,19.92,30.03,24.6,10.22,3.81,21.07,5.93,31.65,8.78.24.07.54-.07,1.39-.2ZM453.79,456.16c-.06.95-.2,1.51-.12,2.03,2.59,15.57-14.36,45.41-26.44,52.75-.88.53-1.71,1.15-2.6,1.67-12.57,7.37-25.15,8.63-37.9.35-18.42-11.96-30.85-40.56-26.9-62.18,4.13-22.55,24.84-39.06,47.55-37.82,1.93.11,2.25-.63,2.05-2.28-.6-4.84-1.14-9.69-1.66-14.53-.2-1.88-.97-2.64-2.97-2.2-3.75.83-7.54,1.52-11.32,2.21-4.81.88-9.13,2.82-12.84,6.01-15.94,13.68-26.6,30.33-29.22,51.6-2.78,22.65,2.37,43.22,15.98,61.54,4.96,6.67,11.22,11.89,19.42,14.19,4.69,1.31,9.43,2.49,14.22,3.36,8.83,1.6,17.63,1.65,25.83-2.64,14.29-7.47,25.05-18.53,32.51-32.8,2.08-3.99,3.7-8.23,5.96-12.1,3.53-6.04,5.61-12.41,6.11-19.39.48-6.7.58-6.61-6.06-7.58-3.78-.55-7.51-1.39-11.61-2.17ZM200.38,456.33c-.35-.02-.72-.12-1.07-.06-4.89.82-9.77,1.72-14.67,2.48-1.8.28-1.95,1.41-1.92,2.83.19,8.08,1.51,15.84,5.93,22.85,1.49,2.37,2.91,4.87,3.87,7.49,4.65,12.69,13.51,22.14,23.42,30.78,7.33,6.39,15.71,10.71,25.6,10.99,10.34.29,20.4-1.68,29.9-5.73,3.63-1.55,7.08-3.94,10.02-6.6,6.69-6.06,11.19-13.67,15.01-21.86,11.74-25.21,11.37-63.79-15.52-90.79-7.3-7.33-15.14-12.75-25.66-13.64-1.86-.16-3.7-.62-5.51-1.1-2.08-.55-2.95.22-3.15,2.28-.37,3.92-.84,7.83-1.3,11.74-.57,4.89-.59,4.89,4.13,4.68.37-.02.75-.02,1.12-.03,20.97-.27,41.76,18.24,44.24,40.26,2.35,20.82-5.18,38.67-19.36,53.5-14.97,15.66-33.81,16.31-50.74,2.75-5.82-4.66-10.02-10.62-13.71-16.97-6.28-10.82-11.54-21.97-10.3-35.01.02-.24-.19-.51-.32-.86ZM211.87,280.82c-.69-16.49-6.81-30.67-22.42-40.03-5.17-3.1-10.09-5.84-16.14-7-7.81-1.51-15.06-.68-21.01,4.28-13.65,11.39-20.31,26.27-16.77,43.9,2.94,14.61,11.17,26.71,23.36,35.66,5.83,4.28,12.52,6.72,19.7,7.72,11.42,1.6,20.25-3.04,25.65-13.09,5.11-9.51,7.12-19.86,7.63-31.45ZM442.52,280.83c.63,12.15,2.65,23.26,8.72,33.22,4.75,7.79,11.73,11.89,21.06,11.56,6.2-.22,12.01-1.91,17.54-4.63,11.78-5.8,19.12-15.72,24.81-27.07,9.08-18.13,5.17-39.73-9.69-53.6-6.2-5.78-13.52-8.31-21.97-6.84-6.25,1.08-12.56,2.15-17.29,7.03-.19.2-.47.31-.71.45-15.73,8.95-21.73,23.27-22.47,39.88ZM561.52,296c26.44-21.78,41.2-48.03,36.39-82.8-2.74-19.78-8.53-38.17-23.96-53.08-.44,1.84-.68,2.82-.9,3.8-3.17,13.91-8.15,27.15-15.89,39.15-2.48,3.85-6.02,7.11-9.48,10.18-1.55,1.38-1.99,2.3-1.44,4.18,3.3,11.31,3.5,22.53-1.14,33.61-.36.86-.07,2.52.56,3.18,9.1,9.37,13.38,20.84,14.97,33.54.32,2.57.56,5.16.89,8.25ZM80.51,160.97c-.39-.19-.77-.38-1.16-.56-1.24,1.51-2.66,2.92-3.7,4.56-3.94,6.24-8.61,12.2-11.44,18.93-7.46,17.74-11,36.41-7.52,55.56,3.75,20.62,14.16,37.73,30.29,51.26,1.83,1.53,3.51,3.22,5.75,5.29.21-1.7.38-2.76.47-3.83,1.18-14.29,5.21-27.4,15.48-38.02.65-.68.78-2.45.41-3.44-2.63-7.05-4.17-14.25-3.15-21.77.55-4.08,1.59-8.08,2.24-12.15.14-.91-.13-2.46-.74-2.83-5.63-3.37-9.14-8.55-12.25-14.04-6.42-11.33-11.07-23.37-13.92-36.09-.22-.96-.51-1.91-.77-2.87ZM233.62,381.9c-.18-.01-.37-.03-.55-.04,0-3.66-.01-7.32,0-10.97.08-18.2-8-33.45-17.48-48.18-.33-.51-1.26-1.06-1.75-.94-2,.49-3.37,4.65-2.22,6.5,3.29,5.27,5.48,11.01,5.73,17.17.27,6.63-.16,13.29-.39,19.93-.21,5.96-2.16,11.39-5.47,16.33-13.52,20.2-41.23,24.59-61.3,9.74-2.99-2.21-4.21-2.14-5.96,1.15-3.32,6.23-6.07,12.71-6.62,19.88-.87,11.33,6.95,23.06,17.72,26.52,3.03.97,6.19,1.56,9.21,2.55,2.02.66,3.89,1.77,5.86,2.59,1.65.69,3.35,1.76,5.04,1.79,16.49.24,30.93-6.02,44.35-14.86,7.01-4.62,10.9-11.5,11.57-20,.77-9.71,1.51-19.43,2.26-29.14ZM440.02,321.27c-.76.96-1.51,1.67-1.98,2.53-3.5,6.41-7.3,12.68-10.32,19.32-3.13,6.9-5.95,14.05-6.15,21.8-.37,14.81-.33,29.6,1.14,44.39,1.08,10.95,6.13,19.14,15.57,24.2,7.23,3.88,14.98,6.82,22.63,9.87,6.1,2.43,12.59,2.85,19.1,2.54,1.05-.05,2.11-.57,3.1-1.03,2.43-1.13,4.73-2.57,7.24-3.47,3.61-1.28,7.59-1.72,10.98-3.39,3.26-1.6,6.63-3.79,8.83-6.61,9.03-11.6,8.56-28.13-.57-39.73-1.51-1.92-2.82-2.26-4.91-.68-11.16,8.45-23.73,10.66-37.28,7.98-14.35-2.84-30.16-17.61-30.12-35.52,0-3.18-.38-6.36-.56-9.54-.47-8.51.93-16.63,5.14-24.15,2.42-4.32,2.38-4.55-1.83-8.52ZM230.28,91.52c.54-1.51.91-2.43,1.2-3.37,2.61-8.48,6.77-16.09,13.06-22.37,2.97-2.97,6.27-5.64,9.54-8.29,1.69-1.37,1.68-2.1-.23-3.22-3.71-2.18-7.37-4.48-10.93-6.91-13.78-9.4-28.68-16.72-45.44-17.32-26.04-.93-49.61,6.83-69.13,24.67-8.63,7.89-14.06,17.95-16.82,29.37-.23.96-.35,1.94-.62,3.5,1.75-.71,2.89-1.37,4.12-1.65,4.34-.99,8.69-2.13,13.1-2.62,1.91-.21,3.26-.43,4.55-1.95,7.47-8.77,16.39-15.64,27.07-20.1,20.21-8.43,37.65-5.22,53.1,10.24,5.48,5.48,10.26,11.67,15.36,17.54.58.66,1.13,1.35,2.07,2.47ZM424.78,90.77c.35-.43.89-1.15,1.47-1.82,5.03-5.81,9.81-11.85,15.14-17.36,15.21-15.74,33.15-18.5,53.09-10.39,10.82,4.4,19.73,11.41,27.37,20.17.77.89,2.16,1.95,3.13,1.84,5.57-.64,10.55,1.15,15.52,3.19.82.34,1.66.64,2.91,1.12-.19-1.31-.25-2.13-.43-2.91-2.8-12.04-8.82-22.25-17.74-30.73-10.16-9.65-22.51-15.12-35.7-19.48-21.22-7.01-41.83-6.38-61.7,3.73-9.9,5.03-19.11,11.42-28.62,17.21-.12.07-.12.34-.06.16,5.2,5.32,10.95,10.01,15.16,15.82,4.25,5.87,6.99,12.83,10.46,19.46ZM32.87,150.43c-.95,1.3-1.4,1.78-1.7,2.34-7.2,13.69-13.53,27.87-14.69,43.4-1.11,14.82-.75,29.77-.65,44.66.03,4.24.96,8.61,2.22,12.69,2.8,9.03,6.03,17.93,9.17,26.85,5.3,15.01,14.37,27.49,25.94,38.26.44.41,1,.69,1.5,1.02.24-.3.44-.44.44-.59.05-.84.08-1.68.06-2.52-.22-12.3.33-24.57,2.53-36.69.5-2.74.23-5.04-1.03-7.53-7.69-15.18-12.71-31.1-11.79-48.34.37-6.9,1.67-13.75,2.45-20.63.12-1.08.11-2.75-.53-3.25-5.17-4-7.56-9.65-8.73-15.65-1.94-10.01-3.22-20.14-4.77-30.23-.15-.99-.22-1.98-.42-3.79ZM599.19,319.51c.33.15.67.3,1,.45,4.15-4.55,8.44-8.98,12.43-13.67,8.73-10.27,13.55-22.63,18.09-35.07,3.99-10.93,7.9-21.93,8.15-33.76.18-8.72-.03-17.45.16-26.17.45-20.78-5.91-39.7-15.38-57.82-.48-.92-1.15-1.74-1.72-2.61-.64,1.15-.74,2.06-.81,2.98-.83,11.34-2.21,22.59-5.57,33.51-1.36,4.43-3.15,8.75-6.91,11.69-1.82,1.43-1.97,2.77-1.54,4.81,2.09,9.86,3.01,19.83,2.27,29.92-1.02,13.81-5.67,26.51-11.65,38.83-.81,1.68-1.51,3.82-1.21,5.57,2.24,12.81,2.91,25.7,2.71,38.67-.01.89,0,1.78,0,2.67ZM221.39,492.97c4.49-13.11,11.87-23.51,24.23-28.74,12.52-5.29,24.88-2.92,36.67,4.26.17-.88.4-1.75.49-2.63.72-6.67-.24-13.09-2.96-19.22-6.54-14.76-18.21-22.33-33.96-24.14-1.52-.17-2.93-.22-3.64,1.7-4.47,12.11-13.5,20.02-24.88,25-5.61,2.46-7.36,6.08-7.25,11.44.06,2.8.21,5.64.75,8.37,1.56,7.8,4.75,14.98,8.87,21.75.38.62.87,1.16,1.68,2.21ZM432.8,492.4c.28.06.57.13.85.19,1.74-3.27,3.65-6.47,5.19-9.83,3.34-7.29,5.84-14.8,5.42-23.02-.25-4.87-1.82-8.11-6.82-10.31-10.99-4.84-20-12.26-24.63-23.8-1.12-2.78-2.57-3.35-5.27-3.09-17.26,1.64-31.83,14.53-35.35,31.47-1,4.79-1.17,9.59-.15,14.5,11.76-7.18,24.14-9.56,36.66-4.3,12.38,5.2,19.75,15.61,24.09,28.19ZM603.66,190.08c.58-1.29.94-2.02,1.24-2.77,5.2-12.96,7.38-26.49,7.71-40.38.33-14.18-3.12-27.35-10.86-39.22-7.46-11.44-16.46-21.61-26.99-30.35-7.2-5.97-15.33-10.42-23.96-13.94-1.36-.56-2.86-.78-4.3-1.16.11,1.48.65,2.24.97,3.08,2.24,5.73,4.67,11.41,6.52,17.27.72,2.27.44,5.04-.05,7.44-.34,1.7-.26,2.56,1.25,3.39,5.08,2.78,8.71,7.02,11.65,11.92,6.61,11.03,9.19,23.13,8.79,35.82-.15,4.76.06,8.87,4.61,11.53.31.18.54.52.77.81,8.45,10.46,16.14,21.39,21.31,33.92.3.73.7,1.42,1.32,2.64ZM50.75,189.81c.45-.75.79-1.17.98-1.65,4.82-12.17,12.22-22.76,20.22-32.96,1.43-1.83,3.11-3.53,4.93-4.97,1.52-1.2,1.85-2.49,1.89-4.33.12-6.08-.09-12.25.91-18.21,2.35-14.01,7.11-26.87,20.17-34.82.49-.3.72-1.38.72-2.09-.02-2.76-.9-5.74-.15-8.24,1.81-5.96,4.37-11.7,6.65-17.52.31-.79.75-1.53,1.13-2.3-.18-.22-.36-.44-.54-.66-2.42.87-4.92,1.57-7.26,2.64-9.6,4.4-18.73,9.68-26.06,17.37-6.71,7.04-13.27,14.3-19.19,22.01-7.31,9.53-11.82,20.54-12.94,32.54-1.65,17.64.92,34.78,7.46,51.29.22.56.59,1.06,1.07,1.89ZM484.79,466.1c.09,17.81-4.36,33.95-12.99,48.26-4.88,8.1-10.95,15.19-18,21.46-.87.77-2.1,1.32-1.04,2.94,1.38,2.11,2.65,4.31,3.76,6.58,2.83,5.8,7.59,8.22,13.84,8.37,12.29.3,21.39-5.23,28.01-15.26,4.89-7.42,8.35-15.52,10.7-24.06,5.49-19.94-.04-37.94-9.97-55.11-1.5-2.59-3.59-3.58-6.63-2.6-2.04.66-4.27.7-6.31,1.35-.75.24-1.65,1.42-1.68,2.2-.09,2.33.22,4.67.3,5.88ZM169.54,466.58c.13-1.82.08-3.72.43-5.55.43-2.26-.46-3.04-2.56-3.27-1.95-.22-3.91-.58-5.78-1.15-2.66-.81-4.75-.11-5.97,2.26-2.7,5.23-5.57,10.41-7.73,15.87-9.47,23.93-4.29,45.87,9.96,66.19,6.78,9.67,16.58,13.67,28.39,12.59,4.85-.44,8.51-2.7,10.87-6.97,1.18-2.13,2-4.54,3.51-6.39,1.91-2.34,1-3.48-.85-5.17-20.14-18.31-29.97-41.21-30.25-68.4ZM112.65,204.32c.44-.57.72-.83.88-1.15,3.76-7.46,9.08-13.46,16.19-17.93.89-.56,1.4-2.08,1.64-3.24,1.06-5.11,1.8-10.29,2.98-15.38.43-1.84.25-2.93-1.22-4.1-4.92-3.94-8.62-8.87-11.19-14.6-8.1-18.05-7.33-35.85,1.72-53.36.53-1.03,1.06-2.05,1.8-3.48-1.34.06-2.12-.07-2.77.16-5.3,1.82-10.65,3.53-15.84,5.63-6.6,2.67-10.88,7.75-13.74,14.17-3.34,7.48-4.82,15.36-5.19,23.48-1.16,25.97,7.93,48.47,23.51,68.73.27.35.67.6,1.22,1.08ZM528.91,90.75c.77,1.61,1.19,2.43,1.55,3.26,1.59,3.7,3.63,7.28,4.67,11.12,5.94,21.94,3.12,41.79-14.43,57.97-.66.61-.84,2.17-.67,3.18.88,5.24,1.85,10.46,3,15.65.29,1.3,1.02,2.89,2.06,3.57,6.5,4.27,11.6,9.75,15.21,16.63.37.71.86,1.36,1.84,2.88.54-1.02.77-1.66,1.17-2.17,12.6-16.31,20.85-34.46,22.84-55.12,1.21-12.55.33-24.94-4.92-36.67-2.3-5.14-5.35-9.85-10.53-12.43-5.01-2.49-10.27-4.52-15.49-6.58-1.69-.66-3.6-.77-6.28-1.3ZM560.5,409.63c-.04-.94-.07-1.87-.13-2.81-1.33-21.32-11.84-37.7-27.63-51.19-1.67-1.43-3.81-2.36-5.81-3.36-2.18-1.08-3.36-.51-3.75,2.15-1.14,7.74-3.24,15.22-6.96,22.16-.96,1.8-.6,2.84,1.09,3.9,5.2,3.27,8.76,7.98,10.58,13.77,1.68,5.35,3.11,10.82,4.11,16.33,1.89,10.39-.87,19.57-8.51,26.98-4.1,3.97-8.49,7.64-12.87,11.31-1.4,1.17-1.74,1.98-.83,3.73,1.99,3.81,3.83,7.72,5.41,11.71,2.21,5.55,2.08,5.59,7.36,3.13.51-.24,1.02-.47,1.54-.69,11.16-4.63,19.03-12.76,24.56-23.29,2.7-5.14,5.15-10.42,7.74-15.62,2.86-5.74,4.18-11.81,4.08-18.21ZM93.84,413.92c.55,11.42,8.97,24,16.48,36.91,1.07,1.83,2.69,3.36,4.12,4.97,5.37,6.06,12.43,9.5,19.62,12.81,2.4,1.1,3.27.93,4.23-1.64,1.75-4.73,3.75-9.4,6.08-13.87,1.15-2.21.72-3.12-1.03-4.59-4.66-3.9-9.31-7.87-13.57-12.2-5.89-5.99-8.9-13.49-7.72-21.8,1.07-7.55,3.09-15.02,5.35-22.32,1.52-4.9,5.03-8.78,9.48-11.52,1.93-1.19,2.02-2.23,1.23-4.33-2.36-6.29-4.66-12.65-6.37-19.14-1.66-6.31-2.43-7.15-7.73-3.1-5.01,3.83-9.64,8.34-13.77,13.12-10.45,12.12-16.16,26.24-16.39,46.7ZM232,658.73c15.43-.79,27.93-7.58,36.75-20.89,2.69-4.06,4.07-8.62,4.51-13.47.15-1.66-.35-2.7-1.89-3.64-5.04-3.06-10.05-6.18-14.83-9.61-2.15-1.54-3.51-1.89-5.81-.15-9.48,7.14-20.1,8.71-31.12,4.61-5.18-1.93-9.89-5.19-14.64-8.13-1.67-1.03-2.54-1.23-4.36-.09-3.68,2.31-7.59,4.42-11.68,5.85-2.74.96-3.26,1.97-2.6,4.59,1.77,7.08,4.56,13.69,8.58,19.76,8.69,13.12,20.61,20.69,37.11,21.17ZM424.88,658.86c2.92-.68,8.07-1.2,12.67-3.06,17.77-7.2,26.52-21.7,30.81-39.55.42-1.75-.61-2.19-2-2.72-3.49-1.32-7.09-2.5-10.29-4.35-4.76-2.76-4.62-2.98-8.96.19-12.24,8.91-29.62,12.75-44.51.84-1.55-1.24-2.62-.55-3.97.36-5.2,3.5-10.42,6.96-15.75,10.25-1.58.98-1.91,2.1-1.74,3.72.51,4.84,1.89,9.39,4.6,13.44,8.81,13.16,21.25,19.91,39.14,20.89ZM102.61,770.34c.41,1.43.47,2.21.83,2.81,3.3,5.53,5.96,11.63,10.09,16.45,18.7,21.82,42.84,29.82,71.06,26.79,8.46-.91,16-3.76,22.34-9.57,6.98-6.4,12.75-13.74,16.97-22.22,1.12-2.24,1.73-4.74,2.52-7.14.79-2.38.16-3.55-2.62-3.84-3.81-.4-7.64-1.06-11.31-2.12-2.81-.81-4.39-.38-5.4,2.43-.43,1.2-1.3,2.29-2.16,3.26-11.43,12.82-26.14,17.25-42.65,15.34-13.86-1.6-25.25-8.99-35.67-17.92-1.06-.91-2.69-2.01-3.84-1.8-5.78,1.07-11.17-.58-16.65-1.78-.96-.21-1.93-.38-3.52-.68ZM552.05,770.33c-1.77.32-2.66.46-3.53.65-5.57,1.21-11.06,2.92-16.92,1.8-1.03-.2-2.43.74-3.44,1.46-5.04,3.55-9.79,7.58-15.06,10.75-17.03,10.25-34.52,10.83-52.2,1.57-6.11-3.2-11.07-7.62-14.35-13.84-.44-.82-2.06-1.61-3-1.47-4.63.68-9.2,1.72-13.81,2.52-1.66.29-2.39,1.07-1.95,2.66.68,2.43,1.22,4.94,2.28,7.21,3.75,8.08,9.12,15.03,15.4,21.31,6.4,6.4,13.97,10.49,23.02,11.19,6.52.51,13.16,1.09,19.63.48,27.88-2.65,48.87-16,61.87-41.17.71-1.37,1.17-2.88,2.06-5.13ZM302.99,374.96c-.5-12.85-2.7-22.3-6.54-31.36-2.75-6.5-6.92-12-12.25-16.6-2.89-2.49-4.53-2.4-7.31.17-3.58,3.3-7.09,6.7-10.76,9.9-6.07,5.28-11.96,10.89-20.09,13.02-1.77.46-1.23,1.66-1.05,2.91.95,6.66,1.98,13.31,2.61,20,.25,2.63.8,3.67,3.7,3.9,11.05.88,21.39,4,29.99,11.36,3.48,2.98,6.64,6.34,9.92,9.54.99.97,2.04,2.1,3.1.24,4.63-8.09,9.15-16.24,8.68-23.07ZM351.54,371.59c-.69,9.89,3.89,18.02,8.44,26.16.9,1.62,1.91,1.49,3.09.24,1.93-2.05,3.9-4.05,5.88-6.05,9.67-9.74,21.61-14.24,35.08-15.09,1.96-.12,2.75-.85,2.74-2.66,0-7.34.57-14.61,2.67-21.7.19-.64-.69-2.2-1.34-2.38-5.49-1.52-10.03-4.66-14.24-8.28-5.54-4.77-10.91-9.74-16.32-14.65-2.8-2.54-4.41-2.63-7.33-.22-.65.54-1.26,1.12-1.86,1.71-12.09,11.79-15.49,26.96-16.81,42.92ZM363.11,746.04c-.77,2.27-1.46,4.28-2.14,6.28-5.51,16.23-1.83,30.47,10.77,41.61,16.72,14.79,36.75,18.37,58.37,14.64.49-.08.93-.45,1.67-.82-1.86-2.39-3.61-4.54-5.26-6.78-5.59-7.55-10.15-15.51-10.62-25.26-.04-.9-1.6-2.19-2.68-2.48-5.06-1.35-9.72-3.34-13.66-6.88-4.01-3.6-6.67-8.06-8.43-13.08-.57-1.61-1.3-2.24-3.11-1.64-7.38,2.44-14.22.78-20.71-3.04-1.28-.75-2.53-1.54-4.18-2.55ZM222.41,808.08c1.67.39,2.64.67,3.63.84,15.87,2.61,30.94.26,45.33-6.97,20.55-10.33,29.36-31.32,21.8-50.34-.7-1.76-1.25-3.59-1.92-5.55-.93.52-1.35.71-1.73.97-7.24,4.88-14.9,7.39-23.66,4.55-.6-.19-2.11.74-2.36,1.44-3.92,10.97-11.37,17.83-22.83,20.32-.89.19-2.15,1.5-2.18,2.33-.41,9.98-5.18,18.06-10.94,25.73-1.55,2.07-3.15,4.11-5.13,6.68ZM207.11,352.29c.19-5.13-1.64-10.83-4.87-16.19-1.12-1.85-2.14-2.44-4.29-1.52-5.65,2.41-11.6,2.92-17.66,2.16-11.26-1.4-21.33-5.68-30.21-12.71-1.86-1.48-2.82-1.48-4.07.66-4.37,7.48-6.26,15.4-4.88,24.03,1.6,9.99,5.14,19.27,11.26,27.29,2.36,3.09,5.66,5.95,9.16,7.59,20.91,9.85,46.29-7.07,45.56-31.31ZM209.8,543.25c-.25.76-.43,1.1-.46,1.45-.77,9.09-4.95,15.98-13.16,20.18-1.71.87-1.95,2.1-1.57,3.71,3.71,15.71,12.5,27.51,27.22,34.39,6.65,3.11,13.4,2.32,19.58-1.68,9.19-5.95,14.47-14.5,15.98-25.3.79-5.63-.33-10.99-3.07-16.02-1-1.83-2.29-2.78-4.43-2.81-11.21-.19-21.58-3.45-31.33-8.82-2.85-1.57-5.62-3.27-8.76-5.1ZM447.28,352.49c-.84,21.95,19.98,38.01,41.01,32.82,5.49-1.36,10.31-4.01,13.33-8.75,3.25-5.11,6.3-10.47,8.5-16.09,4.72-12.02,5.43-24.09-1.68-35.71-1.23-2-2.01-2.16-4.08-.86-5.37,3.37-10.76,6.93-16.59,9.32-10.4,4.27-21.2,5.67-32.02,1.06-1.77-.75-2.54.16-3.36,1.48-3.42,5.46-5.4,11.33-5.11,16.73ZM444.24,543.41c-.92.56-1.95,1.16-2.95,1.79-10.28,6.53-21.32,10.94-33.57,11.86-6.9.52-7.51.58-9.39,7.23-1.07,3.78-1.6,7.99-1.17,11.87,1.15,10.3,6.32,18.5,14.81,24.47,6.67,4.7,13.98,5.66,21.29,2.06,14.25-7,22.87-18.62,26.51-34.01.45-1.92-.06-3.16-1.96-4.04-4.79-2.23-8.22-5.94-10.27-10.73-1.37-3.21-2.13-6.68-3.31-10.51ZM632.14,292.4c-.87,1.16-1.21,1.56-1.49,2-3.61,5.81-6.94,11.81-10.88,17.38-5.74,8.13-11.98,15.87-20.67,21.2-.82.5-1.48,1.73-1.67,2.73-3.15,16.79-11.13,31.57-19.34,46.22-1.63,2.91-3.6,5.91-6.14,7.97-3.93,3.19-4.87,6.53-3.71,11.38,1.29,5.39,1.45,5.86,6.16,2.63,4.08-2.8,7.77-6.18,11.77-9.12,7.67-5.64,14.36-12.24,20.67-19.37,19.03-21.52,28.11-46.39,26.19-75.15-.16-2.36-.52-4.71-.88-7.88ZM22.79,292.93c-.48.78-.68.99-.75,1.24-.15.54-.27,1.1-.32,1.65-1.63,18.51-.12,36.69,8.32,53.48,8.99,17.88,21.45,33.13,37.65,45.15,3.23,2.4,6.26,5.08,9.49,7.47,1.87,1.38,3.92,2.53,5.96,3.64,1.23.67,2.16.3,2.4-1.25.42-2.78,1.02-5.54,1.23-8.33.07-.91-.65-2.05-1.31-2.82-2.31-2.7-5.23-4.98-7.07-7.96-9.42-15.29-17.7-31.11-21.39-48.93-.28-1.37-1.42-2.74-2.51-3.72-2.71-2.43-5.84-4.42-8.41-6.98-8.76-8.73-15.7-18.83-21.62-29.66-.48-.88-.98-1.74-1.69-2.99ZM68.17,289.09c-.49.32-.99.63-1.48.95-2.63,16.62-2.62,33.24,1.46,49.68,4.12,16.59,11.15,31.95,20.85,46.85.65-1.6,1-2.35,1.27-3.13,2.81-8.35,7.17-15.85,12.56-22.78,1.2-1.55,3.26-3.04,3.38-4.67.12-1.65-1.66-3.44-2.62-5.17-5.29-9.63-9.03-19.76-9.94-30.79-.32-3.83-.54-7.66-.77-11.49-.08-1.3-.12-2.47-1.95-2.33-3.49.26-6.49-1.17-9.02-3.3-4.29-3.61-8.4-7.44-12.5-11.28-.64-.6-.83-1.68-1.23-2.54ZM586.55,288.93c-.64,1.16-.92,2.15-1.56,2.74-4.04,3.76-7.93,7.76-12.36,11.02-2.49,1.84-5.85,2.71-8.96,3.42-1.72.4-2.08.96-2.17,2.48-.28,4.58-.56,9.17-1.06,13.74-1.19,10.92-4.98,21-10.86,30.17-1.67,2.6-1.69,3.86.2,6.09,6.44,7.56,11.41,16.01,14.54,25.49.2.59.53,1.14.82,1.75,16.29-13.66,31.03-78.08,21.42-96.89ZM477.74,737.52c1.7-.08,2.64-.09,3.57-.17.84-.08,1.68-.19,2.5-.38,13.44-3.19,22.52-11.78,28.85-23.61,3.25-6.07,4.8-12.56,3.88-19.54-.31-2.35-1.27-3.56-3.71-4.16-2.78-.68-5.53-1.81-8.02-3.23-1.93-1.1-2.86-.83-4.14.85-5.67,7.47-13.27,11.91-22.56,12.81-5.46.53-11.02.11-16.53,0-1.5-.03-2.72-.11-3.48,1.54-2.45,5.28-6.08,9.63-10.49,13.4-.6.51-1.11,2.03-.8,2.57,2.07,3.52,3.77,7.58,6.72,10.19,7,6.2,15.66,8.98,24.2,9.73ZM175.54,737.95c5.84-.52,12.81-2.61,19.42-5.97,5.89-2.99,9.94-7.49,12.39-13.59.69-1.7.27-2.6-.96-3.86-2.91-3.01-6.24-5.94-8.12-9.56-2.18-4.22-4.59-5.11-9.16-4.64-14.15,1.46-26.89-1.5-36.04-13.68-.43-.57-2.11-.66-3-.36-3.08,1.04-6.01,2.53-9.11,3.51-1.78.56-2.9,1.41-2.92,3.22-.05,3.44-.54,7.04.24,10.31,3.58,15.13,12.73,25.86,26.99,32.01,3.2,1.38,6.83,1.76,10.26,2.61ZM113.98,348.03c1.75-1.31,2.77-2.33,4-2.93,2.92-1.42,5.83-3.1,8.94-3.8,2.47-.56,3.18-1.43,3.27-3.8.31-7.75,2.39-15.04,6.98-21.34,1.72-2.36,1.58-3.85-.06-6.09-12.07-16.56-15.91-34.49-8.54-54.15.25-.66.29-1.39.61-2.95-3.12,1.35-5.76,2.21-8.13,3.55-10.14,5.74-15.36,15.06-17.34,26.05-3.31,18.46-1.06,36.61,4.91,54.28,1.27,3.75,3.42,7.2,5.35,11.18ZM525.65,253.38c-.19.6-.33.8-.29.94.29,1.08.6,2.17.94,3.24,4.21,13.11,4.94,26.17-1.29,38.87-2.47,5.03-5.62,9.72-8.32,14.64-.53.97-.94,2.73-.44,3.41,5.31,7.21,7.61,15.36,8.14,24.16.05.81,1.09,2.15,1.78,2.23,4.69.52,8.56,2.67,12.06,5.6,1.44,1.2,2.43,1.28,3.17-.59,2.42-6.07,5.44-11.98,7.11-18.25,2.83-10.62,3.75-21.59,3.57-32.6-.16-9.61-2-18.82-7.09-27.14-4.5-7.34-10.86-12.2-19.35-14.51ZM550.88,494.67c-.63-3.32-1.72-9.96-3.23-16.5-.55-2.39-2.03-4.6-3.23-6.81-1.15-2.13-2.4-2.23-4.71-.89-5.22,3.05-10.69,5.74-16.27,8.09-3.36,1.42-3.58,1.01-2.8,4.73,2.55,12.11,2.15,24.12-2,35.77-2.57,7.21-5.88,14.17-9.02,21.17-1.42,3.15-1.54,3.63,1.97,4.23,2.79.47,5.76.31,8.6,0,2.9-.32,6.04-.61,8.56-1.91,6.93-3.56,12.27-8.99,15.4-16.19,3.91-9,6.5-18.37,6.72-31.69ZM309.2,580.28c-.62-3.7-1.21-8.36-2.2-12.92-1.79-8.22-6.28-15-12.13-20.87-3.3-3.32-5.66-3.08-9.45-.75-4.92,3.02-10.06,5.76-15.31,8.16-2.41,1.1-3.19,1.88-2.04,4.48,3.47,7.84,4.13,16.12,1.49,24.18-1.93,5.89-5.04,11.43-7.96,16.94-1.07,2.02-1,2.92,1.02,3.86,3.65,1.7,7.34,3.36,10.84,5.33,7.54,4.26,15.03,1.87,21.03-2.06,8.7-5.7,13.98-14.46,14.72-26.35ZM103.45,495.44c.38,12.85,2.99,22.86,7.52,32.35,3.13,6.54,8.3,11.27,14.54,14.84,5.54,3.17,11.6,2.34,17.47,1.76,3.31-.33,3.37-1.1,1.78-4.05-9.95-18.46-15.81-37.67-10.64-58.86.37-1.52-.33-1.98-1.71-2.56-5.5-2.29-11.08-4.51-16.29-7.37-4.71-2.59-4.93-2.92-7.4,1.92-1.15,2.23-2.21,4.62-2.71,7.06-1.17,5.67-1.97,11.41-2.56,14.93ZM372.61,611.36c.06-.15.11-.31.17-.46.46-.05.97,0,1.39-.17,5.11-2.05,10.29-3.95,15.28-6.24,4.9-2.25,4.8-2.41,1.95-6.98-7.92-12.71-10.93-25.99-4.58-40.32.74-1.67,0-2.39-1.51-2.87-6.32-2-12.06-5.09-17.22-9.25-2.24-1.8-4.62-1.51-6.76.01-1.58,1.12-2.93,2.61-4.24,4.06-7.25,8.08-10.37,17.78-11.44,28.41-1.26,12.59,4.81,21.77,13.98,28.97,3.46,2.72,8.61,3.29,12.99,4.84ZM553.44,633.58c-.55-3.7-.83-7.46-1.69-11.08-1.93-8.1-8.89-13.94-17.17-14.76-3.85-.38-4.14-.04-3.22,3.61,2.73,10.76,1.21,20.83-5.09,30.05-4.02,5.88-9.7,9.52-16.36,11.78-1.29.44-2.95.66-2.45,2.71,1.34,5.49,1.02,10.95.11,16.47-.13.77.63,2.19,1.34,2.52,10.07,4.62,21.51,2.6,29.19-5.59,9.35-9.97,14.88-21.72,15.34-35.71ZM135.87,677.44c2.07-.52,5.5-1.42,8.94-2.24,1.99-.47,2.17-1.6,2.07-3.52-.25-5.01-.26-10.05.01-15.06.1-1.87-.25-2.66-1.95-3.33-2.87-1.13-5.78-2.28-8.38-3.89-12.01-7.46-17.48-23.13-13.51-38.13.94-3.54.67-3.85-3.02-3.54-9.45.82-16.49,7.68-18.07,17.87-2.69,17.36,3.18,31.93,15.02,44.33,4.64,4.86,10.69,7.12,18.9,7.51ZM476.41,750.92c-3.71-1.8-5.77.87-8.18,3.88-2.55,3.18-5.75,5.88-8.91,8.5-3.25,2.7-3.37,2.58.1,5.27,16.46,12.75,40.49,12.03,57.32-1.74,9.28-7.59,15.2-17.19,17.13-29.11.53-3.27.31-3.21-2.9-3.34-3.71-.16-7.61-.13-11.04-1.31-2.99-1.03-4.45-.39-6.44,1.66-9.94,10.3-22,15.98-37.09,16.2ZM168.42,777.64c8.97-.61,18.91-2.81,27.29-9.64,2.61-2.13,2.41-2.09-.01-4.27-3.87-3.49-7.61-7.16-11.12-11.01-1.43-1.57-2.72-2.03-4.78-2.1-4.74-.14-9.6-.22-14.18-1.29-10.21-2.38-18.67-7.99-25.86-15.59-.74-.78-2.45-1.59-3.2-1.25-4.45,2.01-9.06,2.25-13.77,1.89-2.07-.16-2.86.71-2.37,2.62.95,3.71,1.65,7.53,3.1,11.05,7.2,17.5,25.79,30.08,44.9,29.59ZM178.59,603.04c3.93-.11,9.06-.85,13.77-3.56,2.3-1.32,2.65-2.53,1.05-4.83-5.08-7.34-8.51-15.42-9.6-24.33-.32-2.57-1.42-3.4-3.86-3.71-8.68-1.1-16.65-4.28-22.82-10.49-3.66-3.67-6.62-5.29-11.6-2.58-3.25,1.77-4.48,2.22-4.15,5.95.46,5.31.94,10.66,2,15.87,3.52,17.36,16.31,27.69,35.23,27.67ZM478.19,603.09c11.53-.45,22.03-4.66,28.5-16.22,4.92-8.79,5.9-18.48,6.38-28.27.12-2.37-1.02-4.09-3.53-4.74-1.62-.42-3.28-.94-4.73-1.75-1.76-.98-2.86-.53-4.12.85-7.26,7.93-16.31,12.47-26.95,13.79-1.89.23-2.81.94-3.04,2.9-1.09,9.23-4.55,17.58-9.8,25.17-1.57,2.27-1,3.41,1.11,4.63,4.7,2.73,9.83,3.51,16.19,3.64ZM564.26,647.5c-.72.59-1.03.72-1.12.94-.32.78-.56,1.59-.85,2.38-6.15,16.64-15.13,30.8-32.62,37.64-.72.28-1.59,1.77-1.42,2.46,2.41,9.84.01,18.95-3.88,27.89-.31.71-.47,1.48-.88,2.83,3.25-.42,5.9-.84,8.56-1.08,11.4-1.06,20.22-6.54,26.62-15.87,10.57-15.41,14.89-32.02,8.86-50.36-.76-2.31-2.11-4.43-3.27-6.82ZM90.91,648.1c-.27-.12-.54-.25-.82-.37-1.06,2.11-2.35,4.13-3.14,6.33-4.86,13.55-3.23,26.77,2.48,39.65,7.14,16.11,18.48,26.66,37.05,27.35,1.33.05,2.66.2,4.51.35-.61-1.58-.98-2.6-1.41-3.6-3.07-7.25-5.05-14.72-4.2-22.68.62-5.83.71-5.85-4.52-8.34-11.76-5.61-19.21-15.29-24.86-26.57-1.96-3.91-3.42-8.07-5.11-12.11ZM205.12,697.3c.48.79.65,1.25.96,1.56,11.31,11.5,24.82,16.24,40.68,12.48,8.89-2.11,15.71-10.82,16.3-19.45.13-1.84-.42-2.91-2.04-3.83-6.69-3.79-12.31-8.79-16.84-15.06-.69-.96-2.44-1.62-3.7-1.62-4.11,0-8.21.51-12.32.54-1.96.02-2.77.59-3.22,2.54-2.23,9.73-8,16.76-16.83,21.32-.89.46-1.8.91-3,1.51ZM449.28,697.58c-.64-.5-.89-.79-1.21-.93-10.07-4.56-16.44-12.12-18.93-22.96-.17-.72-1.5-1.58-2.35-1.66-4.38-.38-8.77-.64-13.16-.69-1.1-.01-2.66.58-3.25,1.42-4.57,6.5-10.34,11.6-17.23,15.45-1.55.86-2.01,1.92-1.87,3.64.81,9.92,8.98,18.66,19.32,20.21,14.36,2.15,26.64-2.24,36.94-12.36.58-.57,1.05-1.26,1.75-2.11ZM425.25,759.98c11.6-.02,22.25-2.88,31.24-10.62,2.74-2.36,2.74-2.48-.42-4.09-9.45-4.79-17.3-10.95-19.38-22.21-.09-.51-1.61-1.27-2.24-1.09-9.01,2.54-18.07,3.04-27.29,1.29-.74-.14-2.26.72-2.47,1.41-1.24,4.11-2.76,8.26-3.17,12.49-1.26,13.18,6.6,22.02,19.79,22.8,1.31.08,2.62.01,3.94.01ZM196.08,746.64c-.3.4-.6.8-.9,1.2,1.04.62,2.17,1.11,3.1,1.87,11.37,9.24,24.52,11.58,38.64,9.78,7.64-.98,12.45-5.52,14.88-12.79,2.61-7.84.65-15.19-2.31-22.41-.25-.61-1.88-1.1-2.74-.94-8.93,1.63-17.74,1.21-26.42-1.38-1.8-.54-2.56-.05-2.89,1.78-1.38,7.68-5.89,13.26-12.2,17.48-2.94,1.97-6.1,3.62-9.15,5.42ZM406.35,509.99c6.22-.31,12.3-3.25,17.86-7.46.51-.39,1-1.67.75-2.07-3.89-6.26-7.89-12.46-11.92-18.63-.84-1.29-1.91-1.13-3.1-.21-3.75,2.9-8.14,3.69-12.74,3.52-6.27-.24-10.06-3.49-11.19-9.7-.31-1.7-1.16-2.23-2.46-1.54-2.54,1.33-5.07,2.77-7.34,4.51-.75.57-1.21,2.38-.9,3.33,3.19,10.04,8.84,18.35,17.78,24.19,3.75,2.46,7.81,4.05,13.28,4.06ZM250.68,510.11c1.95-.69,5.69-1.47,8.88-3.25,10.08-5.63,16.14-14.58,19.66-25.38.24-.74.08-2.13-.43-2.51-2.45-1.82-5.02-3.52-7.69-5-1.52-.84-2.46-.27-2.76,1.74-.73,4.97-3.81,8.19-8.68,9.09-5.26.98-10.35.27-14.75-2.92-1.86-1.34-3.03-1.16-4.14.57-3.79,5.89-7.56,11.79-11.21,17.77-.3.49.09,1.9.61,2.29,5.53,4.24,11.64,7.14,20.53,7.58ZM165.08,646.72c4.53-1.25,8.98-2.55,13.46-3.7,2.56-.66,3.04-1.71,1.73-4.15-3.65-6.83-6.06-14.1-6.57-21.89-.11-1.73-.85-2.46-2.53-2.71-9.66-1.44-18.34-5.06-25.83-11.47-.67-.57-2.66-.58-3.32-.01-6.42,5.49-9.43,12.56-8.39,20.96,1.04,8.43,4.96,15.33,13.26,18.35,5.74,2.09,11.89,3.07,18.18,4.62ZM488.4,646.57c5.8-1.16,10.8-1.93,15.67-3.18,8.93-2.29,14.31-8.26,16.25-17.17,1.95-8.97-.7-16.62-7.26-22.99-1.52-1.48-2.77-1.75-4.54-.17-6.22,5.57-13.64,8.79-21.73,10.58-5.57,1.23-5.57,1.21-6.47,6.98-.15.92-.21,1.89-.52,2.76-1.97,5.44-3.95,10.88-6.04,16.28-.49,1.27-1.02,2.34.75,2.86,4.8,1.42,9.61,2.81,13.89,4.06ZM249.47,836.02c.53,12.49,3.38,21.68,11.8,28.26,6.98,5.46,17.19,6.17,23.69,1.82,5.24-3.51,9.02-8.42,12.39-13.63.31-.48-.13-2.05-.66-2.37-12.27-7.31-20.72-17.93-26.79-30.64-.71-1.49-1.59-1.76-3.14-1.33-3.78,1.06-7.66,1.83-11.41,2.97-1.06.32-2.4,1.38-2.68,2.37-1.4,4.82-2.5,9.74-3.19,12.54ZM405.4,838.1c-1.2-4.88-2.26-9.81-3.69-14.62-.31-1.04-1.8-2.08-2.95-2.44-3.3-1.04-6.79-1.5-10.05-2.62-2.49-.86-3.6-.31-4.74,2.04-5.94,12.21-14.19,22.47-26.08,29.43-1.32.77-1.91,1.56-.79,2.83,3.77,4.27,7.36,8.72,11.43,12.67,2.89,2.81,6.79,3.86,10.93,3.59,9.36-.6,16.35-4.93,20.86-13.17,2.99-5.46,4.37-11.34,5.08-17.71ZM469.92,689.43c.02-.08.03-.16.05-.24,1.78-.1,3.57-.11,5.33-.32,14.16-1.7,23.68-14.9,20.68-28.45-.57-2.57-1.57-3.56-4.38-3.25-8.31.9-16.06-.75-22.75-6.06-1.31-1.04-2.15-.6-3.07.48-6.64,7.8-14.77,13.5-24.37,17.08-1.72.64-2.04,1.5-1.36,3.2,3.4,8.55,9.3,14.2,18.49,15.97,3.76.72,7.59,1.08,11.39,1.6ZM184.39,689.38c3.53-.45,7.08-.76,10.57-1.36,9.01-1.57,15.33-6.57,18.88-15.06,1.38-3.31,1.43-3.39-1.86-4.68-7.88-3.1-14.76-7.69-20.68-13.75-1.3-1.33-2.45-3.51-3.94-3.77-1.38-.25-3.13,1.53-4.71,2.44-6.33,3.65-13.16,4.82-20.33,3.97-2.25-.27-3.54.47-3.66,2.66-.2,3.43-.77,6.98-.15,10.28,2.27,12.02,12.14,19.1,25.88,19.28ZM352.73,702.78c.38,3.16.58,6.92,1.3,10.58,2.22,11.27,8.44,19.86,18.16,25.88,3.95,2.45,8.25,3.47,12.91,2.28,2.18-.56,3.38-1.83,3.57-4.09.49-6.03,2.61-11.48,6.06-16.41,1.09-1.56.83-2.37-.56-3.7-3.56-3.4-7.06-6.93-10.15-10.76-2.38-2.95-3.56-6.64-3.17-10.53.24-2.43-.68-2.67-2.72-2.26-7.45,1.49-14.89,1.68-22.18-.88-1.81-.64-2.44.13-2.58,1.74-.22,2.52-.4,5.03-.64,8.14ZM301.6,702.47c-.22-2.71-.41-5.41-.67-8.12-.13-1.37-.8-2.03-2.29-1.5-7.4,2.59-14.92,2.43-22.48.89-1.96-.4-2.43.08-2.71,2.16-.46,3.36-.95,7.06-2.71,9.8-2.58,4.03-6.05,7.59-9.6,10.86-2.02,1.86-2.79,2.87-.97,5.35,3.02,4.13,4.79,8.9,5.42,14.02.57,4.66,1.71,5.77,6.38,6.04,5.5.31,10.01-2.09,14.11-5.39,10.9-8.75,15.49-20.37,15.52-34.11ZM326.98,889.14c.98-.18,1.74-.25,2.45-.47,4.2-1.32,8.45-2.53,12.56-4.08,2.06-.78,4.04-2.01,5.75-3.41,2.68-2.19,5.04-4.76,7.65-7.04,1.97-1.72,1.84-2.89.19-5.04-3.04-3.97-5.65-8.31-7.99-12.75-.94-1.79-1.7-2.1-3.55-2.06-4.46.08-8.93-.23-13.4-.39-1.77-.07-3.6-.52-5.29-.2-5.3.99-10.55,1.54-15.93.63-.68-.11-2.02.69-2.23,1.33-1.78,5.49-4.89,10.11-8.91,14.15-1.25,1.26-1.32,2.22-.05,3.54,5.82,6.09,11.79,11.86,20.64,13.25,1.64.26,3.18,1.12,4.78,1.64,1.15.37,2.33.64,3.31.91ZM293.64,649.53c-.97.89-1.66,1.5-2.32,2.13-1.69,1.61-3.72,2.6-5.84,1.38-1.09-.63-2.06-2.23-2.23-3.5-.31-2.32,1.34-3.75,3.35-4.67.6-.27,1.31-.4,1.77-.82.41-.36.9-1.18.75-1.53-1.32-3.04-2.78-6.03-4.2-9.03l-.83-.16c-1.87,7.6-5.42,14.32-10.98,19.58-5.44,5.15-11.5,9.65-17.41,14.55.16.2.48.78.95,1.19,8.18,7.25,17.58,11.73,28.63,12.29,10.65.54,18.05-4.58,23.06-13.59.45-.81.6-2.54.11-2.99-2.32-2.1-4.91-3.89-7.63-5.98-.28,1.19-.48,1.99-.66,2.8-1.48,6.71-5.93,10.9-12.76,10.89-4.22,0-8.52-.97-12.63-2.08-3.32-.89-4.66-3.65-3.85-6.19.79-2.48,3.37-3.44,6.84-2.65,2.74.63,5.48,1.54,8.24,1.61,1.86.05,4.1-.69,5.57-1.85,2.2-1.73,3.88-4.13,5.97-6.46-1.1-1.39-2.36-2.98-3.9-4.94ZM356.96,654.63c1.78,1.99,3.35,3.56,4.7,5.3,1.85,2.4,4.22,3.42,7.14,2.91,2.76-.48,5.48-1.19,8.23-1.79,3.29-.71,5.7.37,6.47,2.88.71,2.34-.58,4.71-3.47,5.96-4.65,2.02-9.53,2.82-14.56,2.13-5.86-.81-9.84-4.56-11.21-10.35-.23-.95-.46-1.91-.76-3.15-2.72,2.04-5.19,3.71-7.4,5.69-.53.47-.53,2.18-.1,2.95,4.64,8.5,11.46,13.81,21.53,13.76,11.81-.06,21.82-4.7,30.46-12.55.44-.4.69-1.01,1.17-1.74-13.72-7.63-24.49-17.68-29.29-33.15-1.37,2.25-2.31,4.35-3.32,6.42-1.64,3.35-1.66,3.34,1.71,5.2,2.73,1.5,3.75,4.38,2.35,6.57-1.4,2.2-4.45,2.43-6.94.53q-3.11-2.37-5.54.75c-.45.58-.84,1.2-1.16,1.65ZM310.1,39.81c-.23,3.7-.21,3.59,3.44,4.05,3.98.5,7.92,1.28,11.89,1.86,1.09.16,2.23.19,3.32.03,4.06-.59,8.09-1.47,12.17-1.87,2.67-.26,4.25-.69,3.43-3.95-.37-1.46-.21-3.28.33-4.7,1.37-3.66,2.97-7.24,4.71-10.74.78-1.58.91-2.5-.85-3.33-3.39-1.59-6.66-3.44-10.1-4.91-7.52-3.21-15.12-3.19-22.64.06-2.92,1.26-5.72,2.79-8.56,4.21-3.51,1.75-3.49,1.75-1.52,5.02,2.64,4.39,4.71,8.96,4.38,14.26ZM241.63,31.4c1.57.87,2.36,1.32,3.16,1.76,4.28,2.32,8.59,4.61,12.84,6.97,3.33,1.85,6.22,4.2,7.86,7.77.75,1.62,1.82,1.94,3.39,1.12,8.7-4.53,18.12-5.81,27.75-6.16.87-.03,1.73-.25,3.5-.53-2.53-4.85-4.37-9.41-7.16-13.28-1.61-2.24-4.56-4.19-7.25-4.85-13-3.21-25.84-2.7-38.07,3.39-1.89.94-3.59,2.25-6.02,3.81ZM412.53,31.56c-1.61-1.2-2.69-2.19-3.93-2.9-12.98-7.32-26.75-7.92-40.81-4.24-5.96,1.56-12.23,11.31-12.38,18.11.6.11,1.22.3,1.85.32,9.91.31,19.61,1.6,28.55,6.3,1.6.84,2.21-.12,3.15-1.21,2.16-2.52,4.26-5.25,6.93-7.12,3.73-2.62,7.95-4.55,11.97-6.76,1.36-.75,2.74-1.46,4.67-2.49ZM579.14,697.14c-.28-.02-.56-.04-.84-.06-.39.83-.77,1.66-1.16,2.49-6.47,13.62-14.9,25.38-29.46,31.48-.88.37-1.81,1.99-1.77,2.99.24,6.82-1.46,13.19-3.92,19.44-.39.99-.7,2.01-1.13,3.25.89.11,1.34.27,1.77.2,6.06-.88,11.6-2.9,16.24-7.1,14.24-12.89,21.74-28.66,20.72-48.11-.08-1.53-.3-3.06-.45-4.59ZM113.45,757.07c-.26-1.17-.3-1.72-.5-2.21-2.78-6.83-4.82-13.78-4.43-21.3.05-.89-1.24-2.13-2.21-2.73-3.01-1.88-6.39-3.22-9.22-5.32-9.13-6.75-15.25-15.88-19.87-26.11-.39-.86-.81-1.72-1.52-3.25-.38,1.41-.64,2.01-.69,2.62-1.81,21.93,6.24,39.59,23.33,53.19,4.21,3.35,9.33,4.45,15.12,5.11ZM133.61,195.9c-12.96,7.43-22.62,38.66-16.1,51.24,3.92-1.21,7.77-2.8,11.77-3.51,3.5-.61,5.57-2.2,7.25-5.25,3.22-5.82,7.6-10.72,13.61-13.83,2.5-1.3,1.84-2.1.38-3.85-4.35-5.24-8.58-10.6-12.53-16.15-1.82-2.55-2.89-5.63-4.39-8.65ZM536.97,247c6.15-13.27-3.43-44.09-16.03-50.95-.19.18-.49.32-.58.55-3.96,9.59-9.75,17.9-17.3,25-1.19,1.12-.77,1.89.53,2.56,7.05,3.6,11.67,9.5,15.55,16.18.63,1.09,1.86,2.18,3.04,2.55,4.8,1.5,9.69,2.72,14.8,4.12ZM241.75,849.98c-.18-1.14-.33-2.14-.5-3.12-1.28-7.27-1.63-14.55.12-21.77.55-2.26.04-3-2.29-3.11-7.84-.38-15.41-1.94-22.5-5.51-.77-.39-2.23-.15-2.99.36-2.49,1.66-4.92,3.45-7.13,5.45-.75.68-1.35,2.31-1.06,3.21.93,2.93,2.1,5.83,3.53,8.56,7.01,13.44,17.36,18.51,32.84,15.93ZM412.63,850.1c2.24.21,4.28.27,6.28.63,4.55.82,8.68-.17,12.71-2.32,9.5-5.08,14.47-13.54,17.57-23.37.23-.74-.46-2.14-1.15-2.73-2.26-1.95-4.65-3.78-7.15-5.41-.83-.54-2.39-.78-3.22-.37-7.1,3.54-14.65,5.09-22.49,5.44-2.14.1-2.48.75-2.27,2.92.55,5.65.79,11.34.84,17.02.02,2.66-.69,5.32-1.11,8.19Z" style="fill: #000; stroke-width: 0px;"/>
  <path d="M335.65,126.63c-2.21,13.77,1.34,27.91,2.36,42.16.64,9.03,5.36,16.6,11.28,23.12,5.84,6.44,6.72,13,2.81,20.58-3.18,6.16-6.13,12.44-9.2,18.65-.91,1.85-2.08,3.64-4.51,2.71-2.24-.86-2.16-2.95-1.6-4.81,1.84-6.08,3.79-12.12,5.79-18.15.59-1.77,1.5-3.43,2.25-5.15.94-2.13.57-4-1.13-5.62-10.87-10.38-14.28-23.48-14.33-38.03-.03-9.07-.95-18.13-1.25-27.21-.11-3.34.21-6.72.67-10.04.3-2.13,1.76-3.64,4.16-3.19,2.29.43,2.74,2.27,2.7,4.97Z" style="fill: #000; stroke-width: 0px;"/>
  <path d="M325.31,157.13c-.54,6.33-.75,12.71-1.7,18.98-1.31,8.65-5.33,16.1-11.44,22.43-3.98,4.12-4.07,4.58-1.52,9.83,3.21,6.62,5.73,13.43,6.93,20.72.32,1.96.54,3.96-1.68,4.79-2.41.9-3.59-.9-4.49-2.75-3.22-6.56-6.4-13.14-9.6-19.71-3.31-6.8-2.6-12.88,2.61-18.63,8.16-8.99,12.73-19.51,12.71-31.87,0-3.44.89-6.88,1.03-10.34.31-7.93.48-15.88.55-23.82.02-2.3-.03-4.44,2.7-5.12,2.1-.52,4.13,1.04,4.31,4.07.3,5.11.14,10.26-.07,15.38-.22,5.33-.72,10.65-1.1,15.97.26.02.51.04.77.06Z" style="fill: #000; stroke-width: 0px;"/>
  <path d="M326.28,278.01c-.24,10.55-1.62,20.89-4.28,31.14-.94,3.63-.1,7.79.23,11.68.74,8.67,1.68,17.32,2.51,25.98.06.65.2,1.49-.13,1.93-.8,1.1-1.72,2.61-2.83,2.84-.81.16-2.3-1.28-2.89-2.33-.65-1.17-.64-2.71-.9-4.09-1.52-8.02-3.03-16.03-4.56-24.05-1.18-6.2-1.14-12.39,1.18-18.3,5.61-14.3,4.73-28.86,2.09-43.52-.38-2.12-.84-4.24-1.1-6.37-.34-2.78,1.08-4.98,3.32-5.44,2.1-.43,4.45.88,5.04,3.49,1.01,4.46,1.85,9,2.23,13.55.37,4.47.08,8.99.08,13.49Z" style="fill: #000; stroke-width: 0px;"/>
  <path d="M328.98,342.86c1.11-7.69,2.12-15.4,3.36-23.07.78-4.81.56-9.43-.67-14.18-4.11-15.89-4.41-32.06-2.8-48.3.21-2.13.78-4.25,1.42-6.3.81-2.57,2.95-3.94,5.05-3.54,2.24.43,3.75,2.6,3.37,5.4-.67,4.92-1.63,9.8-2.31,14.72-1.58,11.38-1.45,22.64,2.86,33.53,3.37,8.51,2.43,17.11.64,25.76-1.44,6.98-2.72,13.99-4.08,20.98-.39,2.02-.99,4.11-3.59,3.82-2.39-.26-2.67-2.3-2.7-4.27-.02-1.5,0-3,0-4.5-.18-.02-.37-.05-.55-.07Z" style="fill: #000; stroke-width: 0px;"/>
  <path d="M326.91,550.83c-3.01,2.02-3.82,1.66-6.29-1.04-6.82-7.45-7.85-14.94-1.81-23.55,1.89-2.7,2.34-6.67,2.67-10.14.52-5.49.41-11.03.53-16.56.08-3.42,1.88-5.34,5.12-5.37,3.22-.03,5.12,1.92,5.19,5.3.12,5.24.29,10.48.36,15.72.06,4.8,1.35,9.17,3.87,13.3,5.11,8.36,3.5,16.9-4.4,22.78-1.1.82-3.24.26-4.9.33-.11-.26-.23-.51-.34-.77ZM327.14,548.62c1.76-2.94,3.46-5.52,4.87-8.25.54-1.06.91-2.67.5-3.68-1.58-3.94-3.51-7.74-5.37-11.72-1.87,4.07-3.77,7.99-5.45,12-.34.8-.1,2.1.34,2.92,1.53,2.87,3.27,5.63,5.11,8.73Z" style="fill: #000; stroke-width: 0px;"/>
  <path d="M310.79,70.6c2.75.02,5.39,1.3,6.94,3.94,1.49,2.54,2.82,5.33,3.5,8.18,1.4,5.91,2.34,11.92,3.41,17.9.34,1.9.45,4.01-1.9,4.66-2.5.69-3.43-1.22-4.14-3.18-2.29-6.33-4.51-12.69-6.98-18.95-.51-1.29-1.83-2.59-3.1-3.17-2.98-1.36-4.32-2.89-3.84-5.34.46-2.36,2.76-3.98,6.11-4.03Z" style="fill: #000; stroke-width: 0px;"/>
  <path d="M328.98,102.08c1.81-8.04,3.29-15.56,5.27-22.95.62-2.3,2.3-4.49,3.97-6.29,2.29-2.46,6.33-3.1,8.76-1.39,1.26.89,2.56,2.79,2.51,4.18-.05,1.37-1.55,3.44-2.84,3.85-2.66.83-3.68,2.56-4.5,4.85-2.01,5.64-4.08,11.25-6.12,16.87-.22.61-.29,1.44-.72,1.79-1.12.9-2.5,2.3-3.62,2.17-1.02-.12-1.83-2-2.7-3.07Z" style="fill: #000; stroke-width: 0px;"/>
  <path d="M319,622.34c.82-2.06,1.69-5.36,3.35-8.19,2.3-3.92,7.33-3.89,9.71-.02,3.56,5.79,4.54,11.29.33,16.71-.92,1.18-1.59,2.55-2.51,3.72-1.28,1.62-3.27,2.3-4.62.73-2.89-3.37-5.81-6.88-6.27-12.94Z" style="fill: #000; stroke-width: 0px;"/>
  <path d="M313.56,413.88c1.7-5.27,3.12-10.2,4.9-14.99.74-1.99,2.68-2.96,4.87-2.31,2.33.69,3.35,2.64,2.87,4.83-.66,2.99-2.02,5.82-2.74,8.81-.55,2.27-.91,4.7-.76,7.01.17,2.59,1.04,5.13,1.53,7.7.32,1.68.13,3.3-1.76,3.94-1.83.62-3.17-.32-3.83-1.95-1.76-4.29-3.38-8.63-5.09-13.03Z" style="fill: #000; stroke-width: 0px;"/>
  <path d="M340.14,412.18c-.37,6.53-2.44,11.04-4.95,15.32-.5.85-2.62,1.53-3.49,1.15-.89-.39-1.73-2.24-1.61-3.35.33-3.05,1.34-6.03,1.73-9.09.21-1.67-.07-3.5-.55-5.14-.84-2.86-2.19-5.58-2.96-8.46-.81-3,.39-5.35,2.61-6.05,2.22-.7,4.54.55,5.56,3.51,1.51,4.4,2.71,8.91,3.67,12.1Z" style="fill: #000; stroke-width: 0px;"/>
  <path d="M327.04,199.12c4.77-.04,6.1,1.87,5.31,6.48-.79,4.59-1.09,9.28-1.49,13.93-.27,3.07-1.43,4.77-3.6,4.86-2.24.09-3.52-1.67-3.84-4.91-.49-5.02-1.05-10.03-1.72-15.03-.47-3.48,1.27-5.31,5.33-5.34Z" style="fill: #000; stroke-width: 0px;"/>
  <path d="M327.23,381.56c-5.62,0-6.7-1.27-5.97-6.92.33-2.59.62-5.19.97-7.78.27-2.03,1.06-3.56,3.47-3.6,4.92-.08,5.84.36,6.34,3.49.42,2.67.71,5.36,1.04,8.05.67,5.54-.39,6.76-5.84,6.75Z" style="fill: #000; stroke-width: 0px;"/>
  <path d="M204.56,188.8c-.05,11.81-8.38,23.31-18.13,26.47-6.04,1.96-11.88,1.37-17.32-1.95-11.99-7.31-19.91-26.93-16.13-40.41.89-3.19,2.56-6.22,4.25-9.1.85-1.45,2.39-2.65,3.88-3.54,2.32-1.39,4.84-1.55,7.08.33,2.26,1.89,2.38,4.38,1.47,6.93-.5,1.4-1.26,2.72-2.02,4-5.84,9.86-4.12,22.97,4.09,30.98,2.59,2.53,5.68,3.47,9.25,3.15,6.94-.62,15.46-10.52,11.41-19-1.56-3.26-3.76-6.24-5.79-9.25-1.14-1.69-2.37-3.28-1.22-5.38,1.19-2.16,3.35-2.24,5.44-2.08,3.6.28,6.31,2.26,8.46,5,3.54,4.51,5.22,9.69,5.28,13.85Z" style="fill: #000; stroke-width: 0px;"/>
  <path d="M150.91,127.3c0,1.87.04,3.75,0,5.62-.09,3.47-1.8,5.7-4.43,5.86-2.64.16-4.63-1.87-5.05-5.31-2.96-23.72,7.51-39.05,32.56-45.3,6.58-1.64,13.36-1.87,20.07-.26,7.61,1.83,13.4,6.17,17.27,12.92,4.44,7.73,6.5,16.14,6.31,25.04-.11,4.9-1.39,9.45-5.07,13.02-1.36,1.31-2.88,2.35-4.73,1.13-1.87-1.23-1.55-3.06-.78-4.78,5.01-11.05,1.27-20.67-5-29.76-2.46-3.56-6.13-5.73-10.26-7.04-12.79-4.05-29.06,1.07-37.25,11.69-3.96,5.14-3.97,11.14-3.63,17.18Z" style="fill: #000; stroke-width: 0px;"/>
  <path d="M179.39,108.47c11.77.13,20.87,9.02,20.43,20.09-.07,1.83-.41,3.83-1.27,5.39-.71,1.28-2.39,2.78-3.63,2.78-1.22,0-2.83-1.55-3.58-2.82-1.17-1.99-1.58-4.42-2.67-6.47-.99-1.87-2.19-3.79-3.76-5.14-4.13-3.55-9.37-2.66-12.25,1.95-1.23,1.97-2.11,4.17-3.16,6.26-1.42,2.86-3.59,4.23-5.91,3.76-2.48-.5-4.01-2.68-4.19-5.94-.57-10.56,8.91-19.98,19.99-19.86Z" style="fill: #000; stroke-width: 0px;"/>
  <path d="M502.63,182.19c-.99,11.07-5.76,21.66-15.3,29.59-6.84,5.69-14.76,6.15-22.67,2.05-13.27-6.88-18.54-22.86-11.69-35.51,1.22-2.25,2.93-4.5,4.98-5.95,1.93-1.37,4.57-2.08,6.97-2.29,1.31-.12,3.35,1.09,3.98,2.28.55,1.04-.06,3.07-.76,4.32-1.31,2.36-3.21,4.39-4.6,6.71-4.42,7.39-2.91,14.69,3.96,19.83,5.35,4,12.39,3.4,16.23-2.03,7.56-10.67,9.65-20.79,2.44-30.65-.33-.45-.57-.97-.82-1.47-1.82-3.75-1.45-6.76,1.05-8.66,2.5-1.9,6.5-1.43,9.17,1.43,5,5.34,6.8,11.94,7.05,20.36Z" style="fill: #000; stroke-width: 0px;"/>
  <path d="M503.73,127.29c1.48-11.52-3.7-19.47-13.26-25.21-8.42-5.05-17.42-6.07-26.82-3.92-5.23,1.19-9.5,4.13-12.36,8.68-5.6,8.92-8.84,18.26-3.91,28.68.79,1.67.81,3.38-.9,4.51-1.72,1.13-3.21.31-4.53-.94-3.15-2.99-4.72-6.74-5.06-10.98-.81-10.23,1.51-19.77,6.92-28.46,4.43-7.12,11.04-11.23,19.29-12.22,15.12-1.81,28.59,2.08,40.03,12.39,5.22,4.71,8.57,10.51,9.37,17.45.6,5.18.41,10.45.51,15.68.02.82-.22,1.68-.5,2.47-.78,2.14-2.29,3.48-4.65,3.35-2.24-.12-3.81-1.52-4.06-3.64-.31-2.57-.07-5.22-.07-7.83Z" style="fill: #000; stroke-width: 0px;"/>
  <path d="M473.87,108.45c11.26.11,19.44,7.05,20.95,16.57.15.92.23,1.87.2,2.8-.1,3.63-1.66,5.94-4.29,6.45-2.46.48-4.6-1.06-6.1-4.33-.78-1.7-1.5-3.45-2.44-5.06-3.48-5.93-10.41-6.35-14.52-.78-1.31,1.78-2.13,3.94-3.08,5.97-.6,1.27-.76,2.82-1.59,3.88-.94,1.21-2.41,2.79-3.63,2.78-1.24,0-3.01-1.51-3.63-2.79-3.13-6.56-.33-15.88,6.03-20.89,3.97-3.14,8.54-4.58,12.1-4.59Z" style="fill: #000; stroke-width: 0px;"/>
  <path d="M245.16,222.97c4.8.7,9.67,1.13,14.4,2.18,8.18,1.81,13.18,7.01,15.1,15.23,4.06,17.39,1.89,33.68-8.32,48.62-5.34,7.81-10.52,15.72-15.93,23.48-2.08,2.98-4.54,5.72-6.92,8.48-1.33,1.55-3.01,2.83-5.15,1.67-2.32-1.26-2.07-3.53-1.28-5.47,1.69-4.14,3.27-8.43,5.64-12.17,2.84-4.48,6.3-8.62,9.78-12.65,11.7-13.54,16.88-28.93,13.88-46.83-1.44-8.59-4.08-11.27-12.76-12.14-9.39-.94-18.34.15-26.27,5.87-1.36.98-2.85,1.82-4.38,2.52-2.34,1.08-4.68.96-6.39-1.14-1.68-2.08-1.5-4.52.11-6.49,1.46-1.78,3.24-3.4,5.15-4.7,6.62-4.52,13.25-6.15,23.32-6.47Z" style="fill: #000; stroke-width: 0px;"/>
  <path d="M247.57,255.02c-3.28.41-5.75.66-8.2,1.05-1.88.3-3.69.37-4.65-1.57-1.03-2.1.26-3.57,1.79-4.82,3.66-3,7.76-4.53,12.53-3.5,4.96,1.07,7.86,5.06,7.36,10.09-.13,1.3-.34,2.63-.77,3.85-4.18,11.87-8.81,23.54-16.44,33.72-.61.82-1.28,1.96-2.11,2.16-1.59.38-3.78.83-4.87.05-1.09-.78-1.45-3-1.53-4.61-.05-1.05,1.01-2.15,1.55-3.24,4.46-8.97,8.95-17.93,13.34-26.94.8-1.64,1.14-3.51,2.01-6.24Z" style="fill: #000; stroke-width: 0px;"/>
  <path d="M409.52,223.02c8.04-.02,15.56,1.62,22.32,5.97,2.1,1.35,4.04,3.06,5.7,4.92,1.9,2.14,1.82,4.85.31,6.72-1.49,1.84-4.13,2.34-6.67,1.04-2.08-1.06-4.09-2.29-6.05-3.57-8.59-5.61-18.02-5.72-27.66-4.2-5.13.81-7.96,3.93-9.03,9.06-3.81,18.4.89,34.43,12.78,48.74,4.65,5.6,8.92,11.54,12.96,17.61,1.66,2.5,2.35,5.68,3.27,8.62.55,1.77.45,3.65-1.46,4.69-1.88,1.02-3.56.22-4.74-1.27-3.44-4.31-6.88-8.63-10.09-13.12-3.98-5.56-7.56-11.41-11.59-16.93-11.17-15.29-14.17-32.09-10.03-50.42,2-8.85,7.32-14.2,16.09-15.97,4.57-.92,9.26-1.28,13.89-1.89Z" style="fill: #000; stroke-width: 0px;"/>
  <path d="M407.01,255.93c.87,2.53,1.49,5.19,2.66,7.58,4.07,8.32,8.32,16.55,12.51,24.81.3.58.7,1.11,1,1.69,1.29,2.58.87,5.03-1.05,6.28-1.92,1.26-4.55.84-6.17-1.49-2.83-4.06-5.76-8.13-7.94-12.55-3.19-6.45-5.77-13.2-8.58-19.83-.36-.86-.59-1.78-.84-2.68-1.69-6.3-.07-10.77,4.67-12.91,5.06-2.28,13.16-.16,15.9,4.37.56.93.68,2.83.1,3.55-.71.88-2.39,1.38-3.62,1.34-2.66-.09-5.3-.63-7.95-.99-.23.27-.46.55-.68.82Z" style="fill: #000; stroke-width: 0px;"/>
  <path d="M284.58,114.74c-.2,20.26-5.51,36.25-16.94,49.97-3.63,4.36-7.68,8.47-12.03,12.12-4.46,3.74-9.96,5.5-15.85,5.84-2.1.12-4.38-.14-4.89-2.3-.36-1.53.19-3.92,1.26-5,2.82-2.82,5.86-5.63,9.31-7.57,21.9-12.3,30.86-31.23,29.15-55.77-.24-3.45-.61-6.93-1.4-10.29-1.43-6.12-6.57-7.91-11.41-3.79-2.58,2.2-4.41,5.28-6.53,8-.8,1.03-1.21,2.61-2.23,3.17-1.58.88-3.82,1.9-5.23,1.38-1.41-.52-3.1-2.93-3-4.41.52-7.77,4.89-13.49,11.24-17.52,5.91-3.75,12.31-3.75,18.47-.39,4.69,2.56,7.07,7.01,8.04,12.02,1.08,5.59,1.6,11.29,2.04,14.54Z" style="fill: #000; stroke-width: 0px;"/>
  <path d="M266.28,123.78c-.01,9.02-3.76,16.5-9.81,22.92-2.63,2.79-5.48,5.39-8.31,7.98-2.28,2.09-4.84,2.26-6.55.6-1.79-1.74-1.69-4.5.62-6.72,5.12-4.93,8.37-10.97,11.05-17.44,1.65-3.98,3.55-7.85,5.43-11.73.93-1.92,2.22-3.72,4.73-3.09,2.48.63,2.74,2.81,2.83,4.94.04.84,0,1.69,0,2.53Z" style="fill: #000; stroke-width: 0px;"/>
  <path d="M379.09,116.95c.3,22.35,9.59,39.18,29.07,50.35,3.52,2.02,6.61,4.86,9.72,7.52,1.69,1.45,2.81,3.45,1.58,5.76-1.23,2.29-3.47,2.2-5.69,2.01-7.11-.61-13.27-3.53-18.35-8.36-21.02-20-29.48-44.28-23.89-72.95,2.43-12.46,12.42-18.4,23.51-14.3,7.9,2.92,12.37,9.17,14.47,17.11.83,3.12-.55,5.78-2.84,6.61-2.44.88-4.66-.21-6.52-3.06-1.69-2.59-3.27-5.28-5.29-7.59-1.36-1.56-3.24-2.93-5.17-3.66-4.2-1.58-7.19-.17-8.15,4.2-1.19,5.36-1.65,10.89-2.43,16.34Z" style="fill: #000; stroke-width: 0px;"/>
  <path d="M387.96,123.04c.04-.81-.22-2.09.24-3.02.67-1.38,1.64-3.18,2.87-3.57,1.02-.32,3.06.83,3.83,1.91,1.61,2.27,2.78,4.87,3.96,7.42,1.58,3.4,2.67,7.06,4.55,10.27,2.45,4.17,5.46,8,8.25,11.97.48.69,1.48,1.27,1.52,1.95.11,1.73.36,3.81-.43,5.16-1.06,1.81-3.48,1.84-5.03.59-10.4-8.42-19.6-17.66-19.75-32.68Z" style="fill: #000; stroke-width: 0px;"/>
  <path d="M144.19,277.01c-.02-7.84.9-15.56,4.19-22.76,3.36-7.38,8.54-12.78,17-13.97,1.72-.24,3.57-.08,5.29.25,3.44.66,5.35,2.82,5.51,5.83.15,2.75-1.6,5.24-4.61,6.37-1.49.56-3.03,1.01-4.57,1.39-4.59,1.14-7.6,4.01-8.94,8.48-2.5,8.31-3.15,16.81-1.37,25.3,1.72,8.22,6.94,13.82,14.62,16.97,8.54,3.51,16.23-.62,18.12-9.63,1.95-9.25,1.1-18.28-2.58-27.01-.4-.95-1.07-1.91-1.08-2.87-.02-1.29.07-3.15.87-3.75.94-.71,3.11-.94,4.02-.31,2.34,1.61,4.72,3.51,6.31,5.83,6.88,10.05,6.27,28.91-.98,38.72-5.81,7.86-16.16,11.24-25.87,8.45-14.59-4.2-24.71-16.53-25.9-31.66-.15-1.86-.02-3.74-.02-5.62Z" style="fill: #000; stroke-width: 0px;"/>
  <path d="M175.28,295.45c-2.98,0-5.15-1.24-6.57-3.5-4.38-6.98-5.17-14.53-3.01-22.39.36-1.29,1.24-2.54,2.15-3.56,1.85-2.05,4.65-2.43,6.62-1.13,1.99,1.32,2.61,3.94,1.45,6.54-.61,1.36-1.79,2.6-1.98,3.99-.36,2.63-.61,5.4-.16,7.98.69,3.94.94,3.77,4.9,3.32,1.1-.12,2.79.43,3.32,1.25.54.84.43,2.66-.15,3.57-1.51,2.39-3.86,3.75-6.57,3.92Z" style="fill: #000; stroke-width: 0px;"/>
  <path d="M498.79,276.88c-.52-3.51-.99-7.99-1.89-12.38-1.15-5.62-4.47-9.37-10.28-10.63-1.46-.31-2.91-.78-4.28-1.36-2.66-1.13-4.25-3.17-4.12-6.11.13-2.96,1.92-4.82,4.68-5.67,4.59-1.42,8.91-.49,12.99,1.78,5.25,2.92,8.63,7.51,10.65,13,4.11,11.16,5.5,22.71,2.33,34.25-3.87,14.09-13.91,22.25-27.88,25.16-11.15,2.32-22.1-4.54-26-15.44-3.02-8.46-3.18-17.09-.73-25.72,1.31-4.62,3.67-8.6,7.63-11.5,1.72-1.26,3.55-2.48,5.62-.95,2.13,1.57,1.38,3.67.52,5.61-3.85,8.74-4.97,17.81-3.33,27.22,1.8,10.34,10.17,14.76,19.63,10.18,8.1-3.93,12.84-10.43,13.93-19.43.28-2.32.32-4.67.53-7.99Z" style="fill: #000; stroke-width: 0px;"/>
  <path d="M490.28,277.12c-.56,5.12-1.52,9.85-4.18,14.12-3.25,5.21-9.26,5.71-13.11.93-.81-1-1.17-3.11-.65-4.2.39-.83,2.73-1.49,3.79-1.09,2.69,1.01,3.52-.18,4.22-2.38,1.33-4.16,1.15-8.06-1.22-11.87-2.07-3.32-1.59-6.44.97-7.91,2.59-1.48,6.25-.33,7.69,3.04,1.25,2.94,1.7,6.23,2.5,9.36Z" style="fill: #000; stroke-width: 0px;"/>
  <path d="M586.09,225.52c.07,12.12-2.17,23.76-8.15,34.37-1.98,3.51-5.04,6.44-7.79,9.47-1.19,1.31-2.98,1.79-4.56.44-1.55-1.33-1.25-3-.41-4.62,1.95-3.74,3.99-7.44,5.84-11.23,6.82-13.9,7.85-28.39,4.21-43.32-1.13-4.65-2.3-9.28-3.41-13.94-.26-1.09-.76-2.38-.41-3.29.59-1.52,1.48-3.28,2.77-4.07,1.72-1.04,3.75-.26,4.93,1.47.88,1.29,1.52,2.8,2.02,4.3,3.28,9.87,4.81,20.04,4.97,30.42Z" style="fill: #000; stroke-width: 0px;"/>
  <path d="M568.67,222.77c-.38,8.53-2.15,16.59-6.08,24.15-.91,1.75-1.94,3.49-4.22,2.84-2.5-.7-2.19-2.84-2.04-4.88.69-9.33,1.31-18.67,1.95-28,.05-.75-.01-1.51.09-2.24.34-2.38,1.6-4.09,4.05-4.39,2.49-.3,4.29,1.14,4.85,3.4.74,2.97.96,6.07,1.41,9.12Z" style="fill: #000; stroke-width: 0px;"/>
  <path d="M68.25,225.54c.15-10.29,1.68-20.36,4.88-30.14.52-1.59,1-3.49,2.16-4.48,1.23-1.06,3.44-1.94,4.85-1.55,1.23.34,2.51,2.47,2.73,3.97.27,1.84-.47,3.86-.9,5.77-1.36,6.13-3.03,12.2-4.11,18.38-2.37,13.51.2,26.3,6.41,38.42,1.54,3,3.14,5.97,4.71,8.96.88,1.67,1.44,3.43-.24,4.87-1.81,1.55-3.49.58-5.05-.66-3.98-3.18-6.69-7.31-8.79-11.87-4.65-10.04-6.79-20.61-6.64-31.66Z" style="fill: #000; stroke-width: 0px;"/>
  <path d="M95.73,224.15c.68,6.52,1.36,13.03,2.05,19.55.1.93.52,1.97.24,2.77-.42,1.2-1.12,2.87-2.06,3.16-.95.29-2.82-.55-3.44-1.46-1.34-1.99-2.28-4.3-3.15-6.56-3.08-8.03-3.91-16.37-3.02-24.88.45-4.3,2.43-6.63,5.24-6.52,3.02.12,4.55,2.57,4.52,7.17-.02,2.25,0,4.5,0,6.75-.12.01-.25.03-.37.04Z" style="fill: #000; stroke-width: 0px;"/>
  <path d="M180.42,438.61c-11.76-.18-21.89-4.26-31.09-10.49-5.96-4.04-8.33-10.33-7.33-17.48.3-2.17,1.44-4.58,2.98-6.1,1.13-1.12,3.78-1.7,5.28-1.18,1.48.52,2.9,2.57,3.39,4.24.53,1.77.08,3.9-.18,5.84-.41,3.07.64,5.47,3.29,6.88,9.11,4.86,18.55,7.97,29.13,5.6,20.6-4.63,28.69-13,32.22-33.78.39-2.31.72-4.63,1.03-6.95.26-1.97.75-3.85,3.08-4.1,2.32-.25,3.22,1.46,3.92,3.32,4.83,12.97-.09,31.67-11.12,41.51-9.94,8.87-22.03,11.99-34.6,12.69Z" style="fill: #000; stroke-width: 0px;"/>
  <path d="M175.24,420.19c-2.4-.66-6.24-1.44-9.87-2.79-2.92-1.09-4.12-3.72-3.63-6.27.48-2.5,2.65-4.16,5.79-4.42.28-.02.57-.06.84-.03,10.89,1.53,20.68-2.11,30.37-6.34,2.29-1,4.87-2.39,6.9.27,1.91,2.5.06,4.67-1.35,6.59-6.82,9.28-16.73,11.99-29.06,12.99Z" style="fill: #000; stroke-width: 0px;"/>
  <path d="M473.93,438.63c-14.7-.97-28.7-4.8-38.73-17.19-8.42-10.4-9.99-22.53-7.54-35.38.05-.27.15-.54.24-.81.69-2.07,1.29-4.41,4.12-4.15,2.68.24,2.78,2.54,3.22,4.6,1.36,6.31,2.45,12.72,4.36,18.86,2.57,8.25,8.38,13.86,16.31,17.19,8.1,3.4,16.43,6.41,25.35,4.46,5.17-1.13,10.21-3.09,15.09-5.2,4.22-1.82,4.99-4.04,4.41-8.63-.2-1.57-.63-3.35-.1-4.71.65-1.67,1.9-3.46,3.4-4.36,1.88-1.14,4.3-.54,5.53,1.34,1.34,2.04,2.67,4.43,2.91,6.78.7,6.82-1.72,12.82-7.4,16.67-9.2,6.24-19.33,10.29-31.17,10.55Z" style="fill: #000; stroke-width: 0px;"/>
  <path d="M479.48,420.14c-11.46-.72-20.15-3.2-27.02-10.08-1.56-1.56-2.95-3.46-3.87-5.45-.52-1.13-.42-3.19.31-4.07.73-.88,2.67-1.27,3.96-1.07,1.9.29,3.72,1.23,5.52,2.01,8.7,3.77,17.58,6.45,27.25,5.24,2.43-.31,4.71.37,6.22,2.49,1.82,2.55.96,6.48-2.26,7.84-3.8,1.61-7.93,2.46-10.1,3.1Z" style="fill: #000; stroke-width: 0px;"/>
  <path d="M188.58,39.18c13.37.21,27.62,4.05,41.49,9.44,2.51.98,4.85,2.88,6.75,4.86,2.54,2.65,2.44,6.37.36,8.4-2.14,2.09-4.97,1.94-8.15-.37-1.21-.88-2.4-1.87-3.75-2.45-27.96-11.95-55.84-13.91-83.3,1.33-4.68,2.6-8.7,6.42-12.98,9.74-.96.74-1.59,2.03-2.63,2.48-1.21.53-3.15,1-3.94.4-.8-.62-1.24-2.95-.71-3.85,1.8-3.04,3.76-6.12,6.27-8.55,6.95-6.74,15.26-11.52,24.3-14.85,11.15-4.11,22.71-6.37,36.3-6.58Z" style="fill: #000; stroke-width: 0px;"/>
  <path d="M218.38,63.92c3.95,0,8.51,4.18,8.75,7.12.17,2.13-1.49,4.05-3.62,3.55-2.39-.56-4.79-1.55-6.86-2.86-1.79-1.13-2.32-3.38-1.23-5.24.74-1.28,2.34-2.05,2.97-2.57Z" style="fill: #000; stroke-width: 0px;"/>
  <path d="M468.21,39.15c18.37.88,36.29,5.11,52.06,16.36,4.94,3.53,9.3,7.58,12.16,13.04.83,1.59,1.28,3.29-.38,4.58-1.66,1.3-3.18.51-4.49-.79-22.26-22.08-49.09-26.35-78.54-19.95-5.38,1.17-10.64,3.04-15.81,4.98-2.94,1.1-5.65,2.88-8.33,4.55-3.01,1.87-5.7,1.92-7.69-.14-1.95-2.02-2.28-5.21-.03-7.67,2.03-2.22,4.52-4.45,7.25-5.52,13.86-5.4,28.13-9.24,43.79-9.45Z" style="fill: #000; stroke-width: 0px;"/>
  <path d="M439.45,69.13c-.53.72-1.25,2.39-2.52,3.23-1.67,1.1-3.72,1.83-5.7,2.22-2.95.58-5.18-2.22-3.6-4.72,1.38-2.19,3.44-4.27,5.68-5.51,2.87-1.59,6.17.79,6.13,4.79Z" style="fill: #000; stroke-width: 0px;"/>
  <path d="M19.15,218.7c.06-9.31.69-18.56,3.22-27.58,1.16-4.13,3.27-6.08,5.9-5.52,2.84.6,3.83,3.16,3.08,7.65-5.48,32.84-.74,63.69,17.82,91.87.62.94,1.49,1.91,1.58,2.93.1,1.13-.22,2.73-.99,3.38-.63.53-2.27.2-3.3-.18-.79-.3-1.35-1.25-1.96-1.96-17.55-20.23-25.37-42-25.36-70.58Z" style="fill: #000; stroke-width: 0px;"/>
  <path d="M40.98,214.54c-.29,2.99-.56,5.98-.89,8.96-.2,1.84-1.06,3.62-3.03,3.3-1.21-.2-2.95-1.72-3.13-2.85-.76-4.88-1.05-9.84-1.45-14.78-.05-.63.15-1.31.37-1.92.77-2.16,2.21-3.56,4.63-3.25,2.27.29,3.43,1.92,3.6,4.08.17,2.14.04,4.31.04,6.46-.05,0-.1,0-.15,0Z" style="fill: #000; stroke-width: 0px;"/>
  <path d="M635.78,218.87c-.31,26.71-8.2,50.41-26.07,70.5-.31.35-.59.73-.92,1.06-1.26,1.31-2.71,2.26-4.43,1.01-1.72-1.26-1.3-2.94-.38-4.52,2.33-3.95,4.83-7.81,7.02-11.84,13.99-25.7,16.68-53.08,12.05-81.55-.18-1.11-.42-2.22-.42-3.34,0-2.18.96-3.88,3.13-4.48,2.32-.64,4.2.44,5.08,2.5,1.01,2.4,1.85,4.95,2.21,7.52,1.06,7.69,1.84,15.41,2.72,23.12Z" style="fill: #000; stroke-width: 0px;"/>
  <path d="M613.14,214.07c0-1.78-.06-3.56.01-5.34.11-2.65,1.72-4.58,3.89-4.77,2.21-.2,4.6,1.43,4.54,4.02-.13,5.58-.71,11.16-1.45,16.7-.12.87-2.18,2.26-3.03,2.07-1.12-.26-2.52-1.73-2.75-2.89-.64-3.2-.72-6.51-1.03-9.78h-.18Z" style="fill: #000; stroke-width: 0px;"/>
  <path d="M602.75,138.53c-.8,4.79-1.53,9.59-2.43,14.35-.38,2.03-1.35,3.95-3.88,3.55-2.36-.38-2.55-2.4-2.57-4.37-.26-20.89-7.66-39.33-19.51-56.18-2.03-2.88-4.64-5.38-7.08-7.95-2.16-2.27-2.69-4.65-1.2-6.49,1.51-1.86,4.11-2.19,6.58-.38,3.16,2.32,6.5,4.59,9.04,7.52,10.48,12.04,17.43,25.88,20.01,41.74.43,2.67.48,5.4.7,8.11.11.03.23.06.34.09Z" style="fill: #000; stroke-width: 0px;"/>
  <path d="M588.56,137.52c0,1.3.32,2.72-.09,3.87-.38,1.05-1.48,2.42-2.41,2.54-.93.12-2.61-.91-2.95-1.82-1.08-2.86-1.87-5.86-2.41-8.87-.38-2.14.71-3.93,2.95-4.42,2.28-.5,3.87.79,4.42,2.89.49,1.86.47,3.86.68,5.79-.06,0-.13.01-.19.02Z" style="fill: #000; stroke-width: 0px;"/>
  <path d="M52.14,138.54c-.04-15.93,6.32-29.69,14.73-42.71,3.65-5.66,8.24-10.44,13.88-14.17.47-.31.92-.65,1.41-.92,2.37-1.3,4.8-1,6.13.72,1.32,1.71.99,4.17-.86,6.11-1.81,1.9-3.84,3.62-5.42,5.7-12.78,16.86-20.57,35.63-21.53,56.98-.05,1.03.22,2.21-.2,3.06-.6,1.2-1.61,2.89-2.61,3.01-1.02.12-2.95-1.23-3.22-2.27-1.04-4.06-1.62-8.25-2.3-12.41-.16-1-.02-2.06-.02-3.09Z" style="fill: #000; stroke-width: 0px;"/>
  <path d="M65.58,137.15c.18-1.76.19-3.56.59-5.27.54-2.31,2.59-3.61,4.59-3.08,2.28.61,3.24,2.39,2.85,4.49-.55,3.01-1.39,6-2.45,8.87-.32.86-1.9,1.91-2.72,1.77-1-.17-2.25-1.35-2.58-2.35-.44-1.34-.11-2.94-.11-4.43-.06,0-.12,0-.17-.01Z" style="fill: #000; stroke-width: 0px;"/>
  <path d="M492.49,486.04c-.31-4.22-.59-7.78-.84-11.33-.24-3.39,1.14-5.74,3.58-6.14,2.45-.41,4.64,1.28,5.39,4.64,2.48,11.17,1.35,22.19-1.78,33.07-3.61,12.55-11.4,22.5-20.34,31.6-1.93,1.97-4.85,3.15-7.53,4.09-1.1.39-3.4-.44-3.98-1.42-.58-.98-.02-2.98.62-4.25.59-1.18,1.87-2.07,2.97-2.94,15.5-12.26,22.27-28.47,21.91-47.32Z" style="fill: #000; stroke-width: 0px;"/>
  <path d="M162.02,483.73c-1.23,15.65,3.36,29.47,13.21,41.55,2.11,2.59,4.77,4.74,7.21,7.05,1.16,1.09,2.46,2.03,3.6,3.13,1.48,1.43,2.71,3.12,1.4,5.2-1.38,2.2-3.58,1.94-5.51,1-2.17-1.05-4.47-2.15-6.16-3.8-16.45-16.05-25.01-35.3-23.08-58.6.2-2.41.72-4.83,1.39-7.16.74-2.57,2.95-4.01,5.05-3.5,2.59.62,3.67,2.53,3.58,5.03-.12,3.37-.44,6.73-.68,10.1Z" style="fill: #000; stroke-width: 0px;"/>
  <path d="M96.86,138.17c-.18-8.69.61-16.29,4.32-23.31.48-.9.91-2.04,1.7-2.52.91-.55,2.35-.93,3.26-.58.74.29,1.11,1.72,1.49,2.7.14.37-.09.92-.22,1.36-5.93,19.66-2.35,38.16,6.86,55.95,1.38,2.66,2.9,5.26,4.22,7.95.65,1.33,1.19,2.78,1.47,4.23.41,2.21-.26,4.15-2.38,5.23-2.08,1.06-4.2.67-5.67-1-1.59-1.8-2.98-3.87-4.1-6-7.36-14.06-10.89-29.08-10.95-44.01Z" style="fill: #000; stroke-width: 0px;"/>
  <path d="M115.95,161.54c.94-1.27,1.62-3.1,2.73-3.42,1.14-.33,3.23.44,3.97,1.43,1.83,2.43,3.31,5.18,4.59,7.96,1.27,2.74.24,5.51-1.99,6.48-2.3,1-4.98.04-6.2-2.78-1.28-2.96-2.01-6.15-3.11-9.66Z" style="fill: #000; stroke-width: 0px;"/>
  <path d="M557.48,138.18c-.19,15.15-3.58,29.52-10.4,43.05-1.09,2.16-2.4,4.25-3.85,6.19-1.69,2.26-4.4,2.89-6.47,1.83-2.15-1.11-3.17-3.84-2.04-6.61,1.23-3.02,2.66-6,4.33-8.81,7.31-12.34,10.4-25.77,10.72-39.98.14-5.96-.58-11.77-2.66-17.38-.69-1.86-1.12-3.87,1.13-4.85,2.2-.97,3.42.61,4.41,2.37,4.25,7.55,5.02,15.78,4.83,24.2Z" style="fill: #000; stroke-width: 0px;"/>
  <path d="M538.4,161.58c-1.15,3.57-1.93,6.84-3.26,9.87-1.15,2.62-3.9,3.51-6.05,2.5-2.27-1.06-3.27-3.78-2.01-6.48,1.25-2.69,2.81-5.25,4.35-7.8.94-1.55,2.52-2.66,4.22-1.65,1.16.68,1.79,2.27,2.74,3.56Z" style="fill: #000; stroke-width: 0px;"/>
  <path d="M554.61,409.69c.03,6.72-1.46,13.07-4.15,19.15-4.99,11.32-12.76,20.45-22.35,28.1-1.81,1.44-4.11,3.2-6.2.81-2.11-2.4.07-4.32,1.63-6.04,2.78-3.05,5.67-6,8.44-9.05,6.33-6.97,10.32-15.19,12.36-24.31,2.02-9.03.94-17.77-3.78-25.83-3.22-5.5-6.75-10.81-10.15-16.2-.45-.71-1.01-1.36-1.42-2.09-1.14-2.08-1.3-4.2.51-5.94,1.81-1.75,4.01-1.6,5.95-.29,1.62,1.09,3.24,2.34,4.42,3.87,8.59,11.17,14.19,23.53,14.74,37.82Z" style="fill: #000; stroke-width: 0px;"/>
  <path d="M99.61,409.51c.8-14.39,6.44-26.81,15.18-38,.91-1.16,2.13-2.12,3.32-3.02,2.4-1.82,4.95-1.86,6.68-.26,1.74,1.62,1.82,4.08.17,6.67-3.71,5.85-7.59,11.61-11.12,17.57-4.76,8.03-5.85,16.77-3.85,25.8,2.13,9.61,6.46,18.16,13.24,25.38,2.44,2.6,4.9,5.18,7.32,7.79.7.75,1.65,1.49,1.89,2.4.33,1.22.58,3.01-.06,3.77-.65.78-2.58,1.07-3.69.73-1.55-.47-3-1.56-4.24-2.68-9.06-8.17-17.03-17.19-21.36-28.86-1.04-2.8-1.9-5.7-2.49-8.63-.57-2.83-.68-5.76-.99-8.68Z" style="fill: #000; stroke-width: 0px;"/>
  <path d="M231.65,651.67c-2.36-.37-4.31-.37-6.03-1-13.28-4.86-24.2-12.55-30.41-25.78-.2-.42-.41-.85-.53-1.3-.6-2.11-.37-4.06,1.9-4.93,2.11-.8,3.75.3,4.55,2.22,3.38,8.14,9.64,13.63,16.51,18.69,5.53,4.06,11.29,4.96,17.75,2.66,8.94-3.18,17.13-7.52,23.94-14.25.87-.86,1.75-1.69,2.66-2.5,1.36-1.22,3.17-2.11,4.46-.63.87,1,.95,2.99.81,4.49-.12,1.21-.91,2.49-1.72,3.48-8.88,10.93-20.59,16.7-33.88,18.86Z" style="fill: #000; stroke-width: 0px;"/>
  <path d="M231.24,636.24c-5.57-.23-10.88-2.02-15.25-6.13-2.45-2.3-2.95-4.98-1.48-7,1.4-1.92,4.06-2.42,6.85-.78,7.3,4.31,14.65,4.67,22.22.88.58-.29,1.25-.72,1.83-.65,1.38.17,3.45.19,3.9,1.01.58,1.06.38,3.28-.41,4.22-4.48,5.32-10.17,8.45-17.66,8.45Z" style="fill: #000; stroke-width: 0px;"/>
  <path d="M423.23,651.54c-1.58-.19-3.19-.22-4.73-.6-10.71-2.61-20.12-7.63-27.73-15.66-1.69-1.78-2.99-4.11-3.85-6.43-.42-1.13.18-3.3,1.1-4.06.72-.6,2.85-.13,3.97.53,1.58.93,2.8,2.46,4.17,3.73,7.14,6.66,15.58,10.95,24.85,13.76,4.98,1.51,9.61.76,13.94-2.13,7.65-5.12,14.52-10.92,18.21-19.71.85-2.03,2.54-3.18,4.77-2.24,2.26.96,2.63,3.2,1.59,5-2.57,4.42-5.06,9.02-8.43,12.79-4.95,5.55-11.23,9.65-18.08,12.62-3.04,1.32-6.4,1.89-9.61,2.8-.05-.13-.11-.27-.16-.4Z" style="fill: #000; stroke-width: 0px;"/>
  <path d="M423.13,636.24c-7.74-.1-13.33-3.26-17.75-8.48-.78-.93-.95-3.17-.36-4.21.46-.82,2.59-1.09,3.89-.93,1.63.2,3.2,1.02,4.75,1.69,5.85,2.51,11.51,2.01,17.06-.91,1.08-.57,2.16-1.14,3.29-1.58,2.21-.85,4.35-.68,5.82,1.35,1.47,2.03.99,4.16-.54,5.95-3.25,3.79-7.59,5.71-12.38,6.69-1.46.3-2.97.35-3.78.44Z" style="fill: #000; stroke-width: 0px;"/>
  <path d="M174.44,811.59c-20.05.74-36.16-8.55-51.44-19.9-1.48-1.1-2.75-2.57-3.83-4.08-1.26-1.76-1.27-3.77.29-5.42,1.49-1.58,3.39-1.59,5.16-.55,1.61.94,3.01,2.22,4.58,3.25,6.42,4.21,12.65,8.77,19.36,12.46,8.67,4.76,18.28,6.65,28.12,6.97,6.22.2,11.95-1.71,16.54-5.95,4.32-3.99,8.25-8.4,12.32-12.65,1.81-1.89,3.35-4.11,5.42-5.63,1.1-.81,3.48-1.11,4.52-.44,1.04.67,1.88,3.05,1.5,4.27-.89,2.89-2.09,5.91-3.99,8.2-6.24,7.55-13.89,13.53-23.04,17.05-4.88,1.88-10.28,2.4-15.45,3.54-.02-.37-.04-.74-.06-1.12Z" style="fill: #000; stroke-width: 0px;"/>
  <path d="M483.5,811.63c-10.88.67-17.76-1.08-24.19-4.79-6.63-3.83-12.79-8.31-17.55-14.31-2.08-2.62-3.35-5.98-4.5-9.18-.36-1,.57-3.12,1.54-3.74.97-.63,3.15-.57,4.07.13,2.2,1.68,3.98,3.9,5.91,5.92,3.67,3.87,7.18,7.9,11,11.6,6.31,6.1,14.06,7.74,22.61,6.86,15.36-1.59,28.42-8.38,40.49-17.51,1.94-1.47,3.84-3.01,5.83-4.41,2.47-1.74,4.88-1.68,6.32.16,1.66,2.14,1.21,4.35-.51,6.11-2.01,2.07-4.1,4.19-6.52,5.72-6.58,4.14-13.17,8.31-20.08,11.86-8.68,4.45-18.35,5.02-24.42,5.58Z" style="fill: #000; stroke-width: 0px;"/>
  <path d="M290.11,371.4c-.17,1.67-.35,4-.65,6.31-.26,1.97-.95,3.8-3.32,3.83-2.19.03-2.97-1.64-3.39-3.49-1.16-5.11-2.25-10.24-3.47-15.34-.52-2.17-1.23-4.31-2-6.41-.66-1.8-1.73-1.93-3.17-.61-2.07,1.89-4.23,3.69-6.41,5.46-.94.76-1.96,1.46-3.03,2.02-3.29,1.71-6.41,1.23-8.1-1.16-1.6-2.27-1.08-5.24,1.64-7.74,3.3-3.04,6.54-6.2,10.18-8.79,5.99-4.26,10.77-3.19,15.23,2.66,5.11,6.71,5.93,14.59,6.48,23.26Z" style="fill: #000; stroke-width: 0px;"/>
  <path d="M270.73,376c-2.75-.05-4.63-1.94-4.55-4.57.08-2.59,2.54-4.76,5.29-4.67,2.49.08,4.77,2.24,4.81,4.56.04,2.64-2.44,4.72-5.54,4.67Z" style="fill: #000; stroke-width: 0px;"/>
  <path d="M364.19,372.05c.55-8.93,1.32-17.01,6.52-23.91,4.36-5.79,9.12-6.97,14.99-2.81,4.1,2.9,7.77,6.45,11.38,9.97,1.88,1.82,2.28,4.39.7,6.71-1.59,2.34-4.23,2.99-6.47,1.71-3.54-2.02-6.79-4.57-9.99-7.12-3.17-2.52-3.84-2.56-4.96,1.47-1.65,5.95-2.89,12.01-4.32,18.03-.24,1-.26,2.22-.85,2.93-.86,1.04-2.14,2.33-3.28,2.36-.93.03-2.44-1.48-2.75-2.57-.67-2.4-.74-4.97-.97-6.77Z" style="fill: #000; stroke-width: 0px;"/>
  <path d="M383.3,375.99c-3.05-.1-5.33-2.16-5.23-4.72.1-2.46,2.57-4.62,5.18-4.52,2.69.1,5.12,2.54,5.03,5.05-.09,2.49-2.23,4.29-4.98,4.2Z" style="fill: #000; stroke-width: 0px;"/>
  <path d="M409.95,800.11c-19.58-2.26-35.19-13.43-41.86-32.6-.65-1.88-.12-4.39.52-6.39.28-.86,2.35-1.76,3.43-1.58,1.05.18,2.44,1.58,2.71,2.68,3.59,14.88,13,23.76,27.69,27.34,3,.73,6.03,1.37,9.01,2.17,2.65.71,4.13,2.7,3.8,4.82-.36,2.26-2.51,3.71-5.29,3.57Z" style="fill: #000; stroke-width: 0px;"/>
  <path d="M400.26,784.59c-6.74-.03-17.01-9.06-17.8-15.89-.14-1.25.54-3.1,1.49-3.81.82-.61,2.58-.14,3.87.12.66.13,1.2.86,1.81,1.29,4.2,2.95,8.51,5.76,12.54,8.92,1.47,1.15,2.88,3.02,3.25,4.79.53,2.54-2.15,4.59-5.17,4.58Z" style="fill: #000; stroke-width: 0px;"/>
  <path d="M244.29,800.1c-2.75.12-4.74-1.21-5.1-3.39-.39-2.36,1.03-4.31,3.85-5.05,4.08-1.07,8.19-2.02,12.28-3.06,10.78-2.74,17.24-10.49,22.33-19.65,1.05-1.9.99-4.38,1.84-6.43.51-1.22,1.68-2.77,2.77-2.96,1.11-.2,3.29.83,3.58,1.77.63,2,.94,4.48.32,6.42-2.54,7.93-7.11,14.74-13.33,20.19-8.12,7.11-17.77,11.04-28.54,12.14Z" style="fill: #000; stroke-width: 0px;"/>
  <path d="M253.63,785.25c-1.49-1.19-3.44-2.1-4.35-3.63-1.24-2.07-.25-4.26,1.67-5.65,5.13-3.72,10.26-7.44,15.56-10.91,1-.65,3.06-.63,4.06-.01.87.53,1.41,2.42,1.28,3.62-.75,6.85-10.86,15.82-18.22,16.58Z" style="fill: #000; stroke-width: 0px;"/>
  <path d="M200.35,352.82c-.56,12.74-12.71,24.75-25.29,24.63-4.17-.04-8-1.25-11.25-3.81-9.88-7.74-15.52-17.83-16.34-30.45-.08-1.19.04-2.46.35-3.61.57-2.09,1.97-3.41,4.22-3.48,2.27-.07,3.71,1.22,4.42,3.24.37,1.04.51,2.2.54,3.3.25,9.33,5.02,16.1,12.25,21.35,4.45,3.23,8.25,3.05,12.61-.39,5.16-4.07,8.02-9.54,9.25-15.92.14-.73-.02-1.64.36-2.19.73-1.08,1.63-2.59,2.66-2.76,1.04-.18,2.92.77,3.37,1.72,1.25,2.65,1.94,5.57,2.86,8.38Z" style="fill: #000; stroke-width: 0px;"/>
  <path d="M176.44,359.71c-5.92,0-12.79-6.61-12.6-12.55.05-1.5,1.19-3.63,2.43-4.24,1.23-.6,3.25.25,4.85.71.61.18,1.04,1.03,1.51,1.61,3.07,3.82,4.49,3.94,8.27.68,1.68-1.45,3.31-3.61,5.81-2.02,2.68,1.7,1.56,4.33.83,6.63-1.84,5.78-6,9.17-11.09,9.17Z" style="fill: #000; stroke-width: 0px;"/>
  <path d="M228.5,593.82c-3.03-.89-6.18-1.49-9.06-2.72-6.05-2.58-10.99-6.75-15.1-11.87-.99-1.23-1.85-2.61-2.54-4.03-1.48-3.03-.92-5.86,1.3-7.3,2.29-1.49,5.12-.67,7.33,2.06,2.3,2.83,4.33,5.99,7.07,8.31,2.79,2.37,6.14,4.26,9.54,5.66,3.24,1.34,5.78.04,7.6-3.02,2.26-3.8,2.84-7.88,1.76-12.19-.5-1.99-.86-4.05,1.41-5.15,2.18-1.06,3.85.23,5.06,1.89,1.09,1.49,2.18,3.11,2.73,4.84,3.24,10.16-6.29,23.01-17.1,23.5Z" style="fill: #000; stroke-width: 0px;"/>
  <path d="M222.1,570.67c-2.18-.73-4.48-1.24-6.52-2.25-2.06-1.02-2.8-3.01-2.04-5.24.71-2.07,2.48-2.65,4.5-2.58.74.03,1.49.17,2.2.38,2.23.67,4.06.21,6.01-1.19,1.03-.73,3.31-1.01,4.14-.36.86.68,1.18,2.87.82,4.14-1.21,4.23-4.74,6.67-9.1,7.09Z" style="fill: #000; stroke-width: 0px;"/>
  <path d="M479.52,377.45c-13.36.09-26.03-13.05-24.88-25.94.19-2.11.88-4.2,1.6-6.21.63-1.78,2.07-3.41,4-2.6,1.23.52,2.49,2.3,2.71,3.68.82,5.15,2.79,9.71,6.04,13.72,1.05,1.3,2.27,2.51,3.59,3.54,4.36,3.39,8.16,3.58,12.61.32,7.12-5.22,11.82-11.9,12.14-21.12.16-4.58,2.02-6.92,5.05-6.76,3.01.16,4.83,2.83,4.54,7.19-.82,12.28-6.29,22.2-15.72,29.94-3.34,2.74-7.28,4.2-11.67,4.25Z" style="fill: #000; stroke-width: 0px;"/>
  <path d="M477.99,359.7c-6.28.04-12.57-6.88-11.98-13.16.25-2.61,2.56-3.93,4.87-2.64,1.04.58,1.89,1.51,2.82,2.28,3.52,2.92,5.08,2.78,7.9-.73.52-.65.98-1.63,1.66-1.84,1.59-.49,3.62-1.28,4.85-.68,1.24.61,2.41,2.73,2.44,4.21.13,6.01-6.61,12.53-12.56,12.56Z" style="fill: #000; stroke-width: 0px;"/>
  <path d="M426.12,593.35c-11.06.02-20.65-12.94-17.35-23.06.64-1.98,1.86-3.97,3.35-5.4.99-.95,3.08-1.5,4.42-1.17,1.92.48,1.7,2.49,1.61,4.28-.15,3.14-.61,6.44.12,9.4,1.71,6.9,5.93,8.55,12.33,5.42,4.49-2.2,7.94-5.59,10.93-9.51,1.08-1.41,2.01-2.96,3.21-4.27,1.74-1.91,3.9-2.6,6.33-1.27,2.04,1.12,2.86,3.62,2.03,6.15-.29.88-.67,1.77-1.18,2.54-5.33,8.01-12.45,13.66-21.78,16.32-.72.2-1.47.31-2.21.4-.74.1-1.49.13-1.81.15Z" style="fill: #000; stroke-width: 0px;"/>
  <path d="M432.2,570.68c-4.43-.45-8.19-3.16-9.21-7.41-.29-1.21.12-3.25.98-3.89.83-.62,3.02-.43,3.94.28,2.09,1.62,4.12,1.99,6.53,1.23.7-.22,1.47-.31,2.21-.3,2.07,0,3.69.86,4.3,2.92.62,2.05-.18,3.88-1.99,4.78-2.13,1.06-4.5,1.62-6.77,2.39Z" style="fill: #000; stroke-width: 0px;"/>
  <path d="M626,328.07c-.42,5.4-2.77,10.92-5.32,16.36-5.94,12.7-14.17,23.57-25.71,31.74-.69.49-1.37,1.26-2.11,1.33-1.27.12-3.06.24-3.75-.48-.69-.73-.49-2.51-.33-3.78.09-.75.85-1.42,1.33-2.11,3.79-5.47,7.58-10.93,11.37-16.4,5.31-7.67,9.53-15.9,12.73-24.66.64-1.76,1.35-3.5,2.16-5.19,1.4-2.89,3.52-4.05,6.02-3.46,2.35.55,3.66,2.72,3.6,6.65Z" style="fill: #000; stroke-width: 0px;"/>
  <path d="M34.06,321.28c.71.55,2.31,1.38,3.32,2.67,1.06,1.37,1.7,3.12,2.28,4.79,3.88,11.26,9.8,21.42,16.68,31.07,2.93,4.12,5.75,8.32,8.63,12.47,1.09,1.57,1.82,3.22.3,4.83-1.55,1.64-3.25.96-4.81-.14-16.11-11.39-26.22-26.94-31.55-45.75-.5-1.76-.59-3.72-.45-5.55.21-2.71,2.16-4.38,5.6-4.39Z" style="fill: #000; stroke-width: 0px;"/>
  <path d="M69.84,318.87c-.19-4.32,1.02-6.63,3.69-6.88,2.54-.24,3.94,1.6,4.94,5.71,2.66,10.92,5.19,21.88,8.32,32.66,1.58,5.44,4.33,10.55,6.62,15.77.89,2.03,2.71,4.27,0,5.9-2.7,1.62-4-.98-5.27-2.76-10.77-15.11-16.07-32.2-18.29-50.4Z" style="fill: #000; stroke-width: 0px;"/>
  <path d="M87.64,342.61c.5-.56,1.33-2.27,2.53-2.59,1.22-.33,3.63.3,4.08,1.22,1.34,2.69,2.29,5.69,2.76,8.66.33,2.11-1.97,3.32-3.9,2.45-1.82-.82-5.54-6.77-5.47-9.75Z" style="fill: #000; stroke-width: 0px;"/>
  <path d="M584.4,319.17c-2.16,18.15-7.55,35.12-18.26,50.15-.22.31-.44.61-.67.91-1.19,1.57-2.57,3.11-4.66,1.81-2.07-1.29-1.23-3.14-.47-4.98,3.08-7.43,6.59-14.73,8.95-22.39,2.75-8.93,4.47-18.19,6.64-27.3.11-.46.15-.93.26-1.38.7-2.73,2.48-4.24,4.66-3.99,2.17.25,3.62,2.18,3.66,4.93.01.75-.07,1.5-.11,2.25Z" style="fill: #000; stroke-width: 0px;"/>
  <path d="M567.04,343.1c-1.15,4.01-2.97,6.94-5.71,9.1-1.71,1.36-4.4-.17-4.06-2.37.44-2.89,1.32-5.84,2.66-8.42.51-.99,2.96-1.63,4.28-1.34,1.16.26,1.98,2.05,2.82,3.03Z" style="fill: #000; stroke-width: 0px;"/>
  <path d="M472,718.94c7.79,1.09,14.96-.82,21.48-5.31,4.44-3.06,7.75-7.02,9.64-12.12.2-.53.39-1.06.64-1.56,1.22-2.39,3.38-3.55,5.47-2.82,2.51.88,3.54,2.92,3.06,5.34-.45,2.25-1.22,4.56-2.39,6.53-6.03,10.24-14.87,16.73-26.82,17.65-6.26.48-12.65-.55-18.96-1.12-2.02-.18-3.93-1.3-3.55-3.85.35-2.35,2.32-2.7,4.29-2.73,2.34-.04,4.68,0,7.13,0Z" style="fill: #000; stroke-width: 0px;"/>
  <path d="M474.65,714.66c-4.45-.75-8.27-1.2-11.97-2.14-1.12-.28-2.77-2.09-2.61-2.89.23-1.18,1.72-2.68,2.94-2.97,2.51-.62,5.2-.43,7.79-.75,3.41-.43,6.83-.87,10.19-1.61,3.11-.68,5.36-.08,6.23,2.14.91,2.33-.31,4.77-3.38,5.82-3.15,1.08-6.45,1.72-9.18,2.42Z" style="fill: #000; stroke-width: 0px;"/>
  <path d="M177.48,727.49c-13.54-.13-24.3-5.29-31.85-16.55-1.53-2.29-2.66-4.96-3.45-7.61-.89-3,.49-5.47,2.85-6.2,2.37-.74,4.75.54,5.84,3.54,3.36,9.23,10.2,14.67,19.27,17.33,3.5,1.03,7.38.86,11.09,1.04,2.99.14,5.99-.11,8.98-.03,1.83.05,3.66.89,3.43,2.88-.14,1.24-1.52,3.06-2.65,3.32-4.44,1.04-8.99,1.57-13.51,2.28Z" style="fill: #000; stroke-width: 0px;"/>
  <path d="M179.34,714.7c-2.91-.84-6.45-1.64-9.81-2.93-2.2-.84-3.31-2.86-2.42-5.28.85-2.32,2.85-2.73,5.08-2.44,5.34.69,10.68,1.37,16.02,2.06,1.11.14,2.4.01,3.28.54,1.14.68,2.69,1.89,2.72,2.9.03,1-1.46,2.69-2.56,2.96-3.79.95-7.69,1.41-12.32,2.19Z" style="fill: #000; stroke-width: 0px;"/>
  <path d="M106.23,292.46c.49-3.3,1.18-8.87,2.19-14.38.34-1.87,1.24-3.76,2.3-5.36,1.29-1.95,3.37-2.75,5.68-1.91,2.31.83,3.34,2.71,3.15,5.09-.12,1.47-.56,2.93-.95,4.37-3.57,13.26-4.41,26.58-.86,39.98.67,2.52,1.6,4.99,2.58,7.41.76,1.87,1.93,3.91-.44,5.16-2.53,1.34-3.8-.8-4.69-2.68-5.32-11.19-8.93-22.83-8.96-37.69Z" style="fill: #000; stroke-width: 0px;"/>
  <path d="M127.72,312.03c-.08.72.07,2.24-.46,3.47-.49,1.14-1.57,2.48-2.65,2.76-.93.24-2.69-.58-3.24-1.47-1.27-2.03-2.29-4.3-2.91-6.61-.84-3.14,1.05-6.05,3.77-6.48,2.65-.42,5.17,1.91,5.49,5.13.08.83.01,1.68.01,3.2Z" style="fill: #000; stroke-width: 0px;"/>
  <path d="M548.8,294.41c-.66,12.71-4.36,24.33-9.59,35.56-.31.67-.65,1.57-1.22,1.84-1.14.54-2.46.73-3.7,1.06-.33-1.25-1.3-2.77-.89-3.69,7.4-16.85,6.67-33.91,1.71-51.15-1.01-3.51.21-6.35,2.92-7.28,2.66-.91,5.78.45,6.71,3.97,1.72,6.47,2.76,13.13,4.08,19.71Z" style="fill: #000; stroke-width: 0px;"/>
  <path d="M536.05,310.51c-.77,1.53-1.83,4.37-3.51,6.76-1.57,2.23-4.9,1.44-5.38-1.26-.48-2.72-.56-5.6-.23-8.34.32-2.68,2.99-4.35,5.29-3.93,2.39.43,4.03,2.71,3.83,6.78Z" style="fill: #000; stroke-width: 0px;"/>
  <path d="M544,501.96c.26,9.26-2.24,17.65-7.23,25.37-1.98,3.07-4.42,5.72-7.97,6.77-1.24.37-3.3-.04-4.12-.92-.6-.63-.24-2.97.49-3.93,8.85-11.62,10.54-24.5,7.08-38.36-.38-1.54-.82-3.09-.94-4.66-.18-2.4.96-4.22,3.24-5.05,2.34-.85,4.43.05,5.63,2.02,1.14,1.88,2.04,4.06,2.41,6.22.71,4.14.97,8.36,1.41,12.55Z" style="fill: #000; stroke-width: 0px;"/>
  <path d="M303.39,575.56c-.12,6.38-1.29,12.5-4.87,17.93-5.37,8.13-15.66,10.77-24.32,6.3-2.96-1.53-4.23-3.91-3.36-6.3.84-2.3,3.15-3.3,6.35-2.76,1.11.19,2.21.42,3.32.58,6.71.97,10.32-1.24,12.23-7.79,2.36-8.09,1.23-15.96-1.88-23.64-.32-.78-1-1.57-.95-2.31.09-1.36.21-3.16,1.07-3.9.71-.61,3.02-.48,3.72.23,2.15,2.15,4.54,4.47,5.6,7.21,1.77,4.55,2.59,9.48,3.8,14.25-.24.07-.48.13-.72.2Z" style="fill: #000; stroke-width: 0px;"/>
  <path d="M288.84,569.5c-.75,2.88-1.36,5.81-2.33,8.61-.43,1.26-1.43,2.43-2.44,3.36-1.52,1.39-3.39,1.67-5.17.45-1.81-1.24-2.17-3.1-1.27-4.99,2.24-4.75,1.52-9.51.25-14.27-.55-2.05-1.32-4.17.99-5.52,2.2-1.29,3.93.09,5.48,1.55,3.09,2.9,4.14,6.59,4.49,10.82Z" style="fill: #000; stroke-width: 0px;"/>
  <path d="M110.14,501.74c.75-4.99,1.2-10.04,2.33-14.94,1.07-4.65,4.07-6.66,7.24-5.68,3.06.94,4.11,3.98,2.75,8.54-3.52,11.79-2.52,23.18,3.02,34.13.96,1.9,2.64,3.44,3.56,5.35.61,1.25,1.1,3.36.46,4.19-.64.84-3.17,1.28-4.09.69-2.7-1.72-5.53-3.67-7.37-6.21-5.58-7.69-7.94-16.48-7.89-26.07Z" style="fill: #000; stroke-width: 0px;"/>
  <path d="M350.36,575.13c1.05-4.44,1.69-9.03,3.3-13.25,1.09-2.85,3.35-5.37,5.51-7.62.8-.83,3.25-1.13,4.15-.51.87.6.99,2.7.92,4.12-.05,1.14-.91,2.23-1.33,3.37-2.55,7.03-3.47,14.2-1.55,21.53,1.91,7.29,5.62,9.65,13.05,8.47,1.11-.18,2.21-.44,3.32-.6,2.77-.38,4.99.76,5.77,2.91.8,2.22-.33,4.6-2.87,6.03-8.18,4.6-18.58,2.37-24.18-5.17-3.52-4.74-5.55-11.82-6.1-19.27Z" style="fill: #000; stroke-width: 0px;"/>
  <path d="M373.16,556.68c2.98.02,4.2,1.97,3.68,4.62-.57,2.93-1.29,5.87-1.41,8.83-.09,2.06.52,4.22,1.15,6.24.67,2.15.96,4.15-1.11,5.54-2.11,1.42-4.13.75-5.84-.93-5.25-5.19-4.86-17.83.74-22.62.96-.82,2.18-1.32,2.79-1.68Z" style="fill: #000; stroke-width: 0px;"/>
  <path d="M548.49,630.52c-.12,17.15-9.79,28.16-23.44,36.51-.98.6-3.33.32-4.16-.48-1.48-1.43-.4-3.08.99-4.3,2.12-1.84,4.28-3.64,6.35-5.54,9.32-8.56,12.76-19.32,11.68-31.71-.28-3.25.83-5.33,3.17-5.68,2.32-.34,4.22,1.37,4.72,4.5.36,2.21.47,4.46.68,6.69Z" style="fill: #000; stroke-width: 0px;"/>
  <path d="M114.5,624.36c0,2.88-.17,6.07.03,9.23.61,9.6,5.17,17.25,12.09,23.65,1.99,1.84,4.29,3.4,6.06,5.42.78.89.61,2.61.87,3.95-1.35.23-3.09,1.13-3.98.6-16.56-9.92-25.56-23.06-23.17-42.76.07-.56.16-1.12.31-1.65.74-2.51,2.61-3.86,4.72-3.43,2.03.41,3.16,2.13,3.06,5Z" style="fill: #000; stroke-width: 0px;"/>
  <path d="M478.47,771.86c-2.47-.71-6.83-1.71-10.97-3.29-1.3-.5-2.68-2.48-2.82-3.9-.22-2.19,1.87-3.13,3.83-3.29,2.31-.19,4.7-.31,6.98.03,15.51,2.35,28.2-2.53,38.13-14.63,1.01-1.23,1.96-2.51,2.97-3.74,2.22-2.72,4.79-3.42,7.08-1.96,2.31,1.47,2.78,4.43.96,7.51-3.49,5.92-8.32,10.59-14.03,14.32-9.13,5.96-19.43,8.06-32.13,8.96Z" style="fill: #000; stroke-width: 0px;"/>
  <path d="M175.75,771.85c-17.6-1.23-31.55-5.5-41.97-17.71-1.63-1.91-3.12-4-4.36-6.19-1.52-2.68-.93-5.3,1.15-6.8,2.04-1.46,4.65-.99,6.74,1.36,2.43,2.73,4.6,5.7,7.17,8.28,9.02,9.09,20.07,12.24,32.64,10.87,2.87-.31,5.78-.41,8.66-.28,1.95.09,4.05,1.08,3.82,3.29-.15,1.43-1.51,3.44-2.8,3.92-4.24,1.59-8.69,2.6-11.05,3.26Z" style="fill: #000; stroke-width: 0px;"/>
  <path d="M177.41,594.67c-2.9-.96-5.98-1.58-8.67-2.96-8.55-4.36-15.2-10.81-19.72-19.33-.78-1.46-1.33-3.11-1.64-4.75-.53-2.82.96-5.29,3.37-6.05,2.35-.74,4.85.6,6.02,3.35.87,2.06,1.36,4.31,2.42,6.27,4.14,7.64,10.58,12.71,18.51,16,.35.14.7.26,1.06.38,1.98.63,3.79,1.45,3.47,4-.23,1.8-1.89,2.66-4.81,3.09Z" style="fill: #000; stroke-width: 0px;"/>
  <path d="M178.61,577.64c-.58.45-1.83,2.13-2.65,1.94-2.6-.61-5.22-1.63-7.42-3.11-.77-.52-.92-3.16-.3-4.23.62-1.07,2.53-1.89,3.89-1.93,2.77-.08,6.56,3.93,6.48,7.32Z" style="fill: #000; stroke-width: 0px;"/>
  <path d="M476.9,594.17c-.47,0-1.06.19-1.38-.03-1.21-.82-3.1-1.66-3.26-2.72-.16-1.04,1.23-2.77,2.38-3.46,3.43-2.06,7.31-3.41,10.58-5.66,5.76-3.96,10.01-9.21,11.95-16.14,1.04-3.73,3.74-5.46,6.55-4.53,2.78.92,4.14,3.98,2.92,7.49-.82,2.36-1.98,4.67-3.36,6.75-4.8,7.26-11.09,12.92-19.07,16.49-2.27,1.02-4.8,1.45-7.2,2.15-.03-.12-.07-.23-.1-.35Z" style="fill: #000; stroke-width: 0px;"/>
  <path d="M487.28,574.62c-1.21,1.27-2.22,2.88-3.67,3.72-1.96,1.13-4.27,2.36-6.55.8-.75-.52-1.33-1.86-1.31-2.82.05-2.9,4.79-6.53,7.65-6.08,1.95.31,3.35,1.94,3.88,4.38Z" style="fill: #000; stroke-width: 0px;"/>
  <path d="M567.46,674.4c-1.04,9.67-5.89,18.89-13.35,26.61-3.66,3.78-8.26,6.68-12.56,9.81-1.6,1.17-3.63,1.48-4.99-.5-1.28-1.85-.18-3.39,1.18-4.69,3.18-3.06,6.42-6.04,9.55-9.14,6.62-6.54,10.83-14.31,11.73-23.7.02-.19.03-.37.06-.56.51-3.11,2.23-4.87,4.61-4.69,2.49.18,3.9,2.27,3.75,6.86Z" style="fill: #000; stroke-width: 0px;"/>
  <path d="M545.46,692.23c.1,3.1-5.86,7.12-8.76,5.91-1.74-.72-2.42-2.79-1.16-4.45,1.17-1.54,2.56-3.03,4.14-4.12,2.55-1.76,5.7-.2,5.79,2.66Z" style="fill: #000; stroke-width: 0px;"/>
  <path d="M86.83,673.03c-.07-3.1,1.35-5.23,3.67-5.47,2.4-.26,4.39,1.43,4.67,4.56.98,11.02,6.41,19.58,14.34,26.86,2.55,2.34,5.2,4.62,7.44,7.24.8.94,1.17,3.31.56,4.12-.65.85-2.96,1.22-4.14.76-12.64-4.9-26.24-24.58-26.54-38.07Z" style="fill: #000; stroke-width: 0px;"/>
  <path d="M116.02,698.98c-2.22-1.56-4.66-2.9-6.55-4.79-.66-.66-.46-3.2.28-3.95.87-.88,3.2-1.48,4.13-.92,2,1.2,3.8,3.01,5.12,4.96,1.24,1.83-.34,4.01-2.99,4.7Z" style="fill: #000; stroke-width: 0px;"/>
  <path d="M236.68,706.57c-5.04-1.32-10.1-2.55-15.1-4.01-1.18-.34-2.38-1.22-3.18-2.18-2.08-2.49-.79-5.93,2.42-6.4,1.33-.2,2.79.11,4.14.41,8.32,1.85,16.61,2.82,25.02.36,1.21-.35,3.7.31,4.03,1.14.48,1.19.03,3.42-.89,4.4-4.36,4.69-10.2,5.52-16.24,5.55-.07.24-.13.49-.2.73Z" style="fill: #000; stroke-width: 0px;"/>
  <path d="M237.43,679.32c1.08.06,1.99-.15,2.53.2,1.01.66,2.37,1.56,2.51,2.52.14.98-.74,2.69-1.64,3.13-2.4,1.18-5.01,2.07-7.62,2.67-2.42.55-4.61-1-4.87-3.1-.3-2.48,1.17-3.92,3.32-4.51,1.97-.54,4.04-.66,5.76-.91Z" style="fill: #000; stroke-width: 0px;"/>
  <path d="M417.87,706.51c-4.27-.94-7.88-1.47-11.3-2.59-1.96-.64-3.89-2-5.28-3.53-.93-1.02-1.51-3.1-1.14-4.39.54-1.92,2.6-1.86,4.3-1.3,6.7,2.18,13.47,1.74,20.26.65,2.49-.4,4.92-1.16,7.42-1.46,2.13-.26,3.94.59,4.57,2.85.6,2.16-.32,3.84-2.15,5.02-.55.35-1.14.69-1.76.86-5.1,1.36-10.22,2.69-14.91,3.91Z" style="fill: #000; stroke-width: 0px;"/>
  <path d="M416.75,679.3c1.94.29,3.92.43,5.82.89,2.48.61,3.85,2.68,3.4,4.74-.45,2.07-2.55,3.4-5.05,2.91-1.92-.38-3.78-1.06-5.63-1.73-1.99-.72-4.13-1.64-3.56-4.27.57-2.63,2.88-2.53,5.02-2.54Z" style="fill: #000; stroke-width: 0px;"/>
  <path d="M430.19,754.74c-9.26-1.18-16.53-5.28-21.14-13.52-.62-1.12-1.17-2.49-1.11-3.71.06-1.13.74-2.74,1.61-3.16.86-.42,2.38.23,3.48.71.59.26.9,1.15,1.36,1.74,5.05,6.47,11.3,9.89,19.78,8.07,4.29-.92,6.61.12,7.16,2.78.56,2.7-1.13,4.74-5.13,5.88-1.96.56-4.01.82-6.03,1.21Z" style="fill: #000; stroke-width: 0px;"/>
  <path d="M428.55,741.86c-4.67-.16-10.36-5.89-10.53-9.62-.12-2.55,2.26-4.31,4.57-3.05,2.85,1.57,5.68,3.34,8.04,5.54.99.92,1.37,3.35.91,4.73-.41,1.22-2.35,1.93-2.99,2.4Z" style="fill: #000; stroke-width: 0px;"/>
  <path d="M224.08,754.86c-2.53-.62-5.12-1.06-7.56-1.91-2.91-1.02-4.17-3.29-3.5-5.57.64-2.17,2.72-3.32,5.73-2.74,4.59.88,9.23,1.57,13.31-1.22,2.95-2.02,5.59-4.56,8.11-7.13,1.37-1.4,2.48-3.08,4.62-2.04,2.12,1.03,1.84,2.99,1.28,4.9-2.33,7.92-13.03,15.44-21.99,15.72Z" style="fill: #000; stroke-width: 0px;"/>
  <path d="M225.78,741.85c-.6-.42-2.43-1.03-2.89-2.19-.51-1.31-.37-3.76.52-4.56,2.6-2.34,5.58-4.34,8.67-6.01,2.04-1.11,4.18.63,4.22,2.95.06,3.71-5.79,9.7-10.51,9.82Z" style="fill: #000; stroke-width: 0px;"/>
  <path d="M140.12,619.02c0-.37-.02-.75,0-1.12.23-3.64,2.05-5.94,4.72-5.97,2.7-.03,4.4,2.14,4.41,6.03.02,6.32,3.06,10.48,8.87,12.62,3.16,1.16,6.43,2.03,9.65,3.02,1.8.55,3.53,1.34,3.24,3.58-.31,2.41-2.26,2.69-4.27,2.63-6.74-.18-13.27-1.08-18.89-5.3-5.16-3.88-7.64-9.09-7.74-15.48Z" style="fill: #000; stroke-width: 0px;"/>
  <path d="M164.96,626.96c-2.15-.63-3.74-.91-5.16-1.55-2.35-1.07-3.26-3.55-2.29-5.57.92-1.9,3.34-2.84,5.53-1.84,1.5.68,3.08,1.58,4.07,2.83.78.99,1.29,2.87.87,3.94-.41,1.06-2.14,1.6-3.02,2.19Z" style="fill: #000; stroke-width: 0px;"/>
  <path d="M489.43,639.79c-2.64-.09-5.6.72-6.11-2.5-.51-3.21,2.52-3.39,4.68-4.11,3.19-1.06,6.48-1.9,9.56-3.22,4.84-2.06,7.34-5.89,7.47-11.21.02-.93-.01-1.89.17-2.8.44-2.22,1.67-3.85,4.07-3.99,2.37-.13,3.88,1.26,4.51,3.46,1.1,3.86.5,7.65-1.09,11.23-3.41,7.69-9.91,11.13-17.78,12.51-1.93.34-3.9.44-5.48.61Z" style="fill: #000; stroke-width: 0px;"/>
  <path d="M497.13,622.36c-.42.56-.99,2.1-2.05,2.6-1.88.89-4.05,1.53-6.11,1.58-2.74.06-4.25-2.98-2.41-4.94,1.57-1.68,3.76-3.08,5.94-3.83,2.44-.84,4.67,1.3,4.63,4.6Z" style="fill: #000; stroke-width: 0px;"/>
  <path d="M254.17,834.04c.63-2.52,1.01-5.13,1.96-7.52.91-2.28,2.96-3.41,5.49-2.91,2.57.51,3.7,2.43,3.92,4.86.1,1.1-.12,2.24-.26,3.35-.68,5.02-.31,9.92,1.84,14.58,2.29,4.98,5.81,8.68,11.11,10.5,1.33.46,2.64.97,3.95,1.48,1.71.66,3.03,1.69,2.71,3.73-.32,2.05-1.92,2.62-3.73,2.72-5.78.33-10.91-1.25-15.27-5.17-6.79-6.1-11.28-16.19-11.72-25.61Z" style="fill: #000; stroke-width: 0px;"/>
  <path d="M281.09,850.85c-3.89-.09-10.05-4.37-11.16-7.34-.71-1.91-.57-3.76,1.16-5.06,1.77-1.34,3.64-.92,5.11.48,2.3,2.18,4.53,4.45,6.53,6.89.63.77.87,2.38.51,3.3-.35.9-1.7,1.4-2.15,1.74Z" style="fill: #000; stroke-width: 0px;"/>
  <path d="M399.91,833.06c-.55,10.89-3.97,19.29-10.94,26.11-4.34,4.25-9.66,6.1-15.65,5.55-1.37-.13-3.27-1.33-3.77-2.52-.83-1.97.87-3.19,2.69-3.88.7-.26,1.4-.53,2.11-.79,10.56-3.9,15.88-12.27,14.96-23.57-.14-1.77-.48-3.55-.45-5.32.04-2.48,1.23-4.42,3.74-4.99,2.61-.59,4.79.54,5.73,2.97.93,2.4,1.25,5.03,1.58,6.44Z" style="fill: #000; stroke-width: 0px;"/>
  <path d="M372.98,850.82c-.38-.3-1.58-.81-1.93-1.66-.35-.87-.24-2.41.33-3.09,2.24-2.62,4.56-5.25,7.24-7.38.99-.79,3.61-.87,4.48-.11,1.04.9,1.62,3.17,1.32,4.62-.67,3.22-7.47,7.75-11.44,7.63Z" style="fill: #000; stroke-width: 0px;"/>
  <path d="M463.86,685c-3.79-1.15-9.34-2.71-14.79-4.59-.89-.31-1.99-2.19-1.75-2.98.3-1.01,1.82-2.29,2.87-2.33,2.59-.11,5.21.36,7.8.71,10.3,1.41,18.9-1.3,25.07-10.11.32-.46.69-.9,1.09-1.28,1.73-1.62,3.74-2.31,5.87-.99,2.26,1.41,2.84,3.87,1.55,5.89-2.09,3.26-4.45,6.51-7.3,9.1-5.14,4.68-11.7,6-20.41,6.58Z" style="fill: #000; stroke-width: 0px;"/>
  <path d="M461.51,672.26c-1.35-1.01-3.36-1.76-3.91-3.1-.93-2.28,1.11-3.46,3.02-4.22,1.99-.8,3.99-1.61,6.03-2.24,3.01-.93,5.34.07,5.99,2.4.62,2.21-.73,4.25-3.52,5.19-1.23.41-2.51.71-3.79.96-1.09.21-2.22.28-3.33.41-.17.2-.33.4-.5.6Z" style="fill: #000; stroke-width: 0px;"/>
  <path d="M190.65,684.89c-12.15-.5-20.44-4.11-26.24-12.49-.74-1.07-1.47-2.22-1.86-3.44-.68-2.12-.33-4.15,1.68-5.48,2.02-1.34,3.96-.79,5.67.68.7.6,1.28,1.37,1.83,2.12,5.69,7.81,13.51,10.62,22.88,9.7,2.8-.27,5.58-.68,8.37-.98,1.8-.19,3.55.07,4.05,2.13.54,2.22-1,3.25-2.85,3.8-5.17,1.54-10.36,3.04-13.53,3.97Z" style="fill: #000; stroke-width: 0px;"/>
  <path d="M192.03,671.9c-2.52-.62-5.1-1.06-7.55-1.9-2.41-.83-3.54-3.12-2.77-5.07.91-2.3,2.85-2.97,5.04-2.41,2.33.6,4.59,1.54,6.84,2.41,1.91.74,3.77,1.76,3.21,4.21-.55,2.43-2.66,2.54-4.77,2.77Z" style="fill: #000; stroke-width: 0px;"/>
  <path d="M379.19,733.75c-7.89-1.38-14.56-4.53-18.75-11.68-3.16-5.39-4.76-11.19-4.48-17.46.09-2,.67-4.16,2.89-4.13,1.41.02,3.28,1.3,4.1,2.56,1.41,2.16,2.37,4.69,3.17,7.17,2.39,7.43,6.89,12.76,14.39,15.42,2.21.78,3.74,2.36,3.23,4.92-.49,2.42-2.33,3.22-4.55,3.19Z" style="fill: #000; stroke-width: 0px;"/>
  <path d="M382.13,715.15c-.61.67-1.35,2.21-2.39,2.46-1.22.29-3.46-.13-3.94-.98-1.66-2.97-2.87-6.22-3.97-9.46-.21-.63.64-2.05,1.36-2.44.71-.39,2.35-.31,2.76.21,2.11,2.7,3.97,5.59,5.87,8.44.19.28.14.72.31,1.77Z" style="fill: #000; stroke-width: 0px;"/>
  <path d="M298.36,706.68c-.12,13.78-8.29,23.83-21.74,26.8-2.98.66-5.38-.37-6.02-2.6-.62-2.15.59-4.29,3.43-5.33,7.11-2.6,11.6-7.57,13.95-14.69.85-2.57,1.98-5.05,3.1-7.51.85-1.87,2.09-3.52,4.48-2.98,2.38.54,2.73,2.55,2.79,4.62.02.56,0,1.12,0,1.68Z" style="fill: #000; stroke-width: 0px;"/>
  <path d="M276.44,717.97c-3.5.01-5.04-3.07-3.43-5.79,1.38-2.32,2.87-4.6,4.64-6.61.66-.75,2.42-1.18,3.36-.84.75.27,1.62,2.08,1.38,2.9-.86,2.93-2,5.82-3.39,8.54-.5.97-2.01,1.43-2.57,1.8Z" style="fill: #000; stroke-width: 0px;"/>
  <path d="M333,881.45c-4.08,0-7.53.03-10.98,0-4.9-.05-9.13-1.86-12.72-5.13-1.91-1.74-2.78-3.92-1.35-6.29,1.46-2.4,3.84-2.58,6.2-1.55,8.73,3.82,17.39,3.85,26.12-.02,2.31-1.02,4.74-.88,6.2,1.56,1.43,2.38.52,4.55-1.38,6.29-3.59,3.29-7.84,5.03-12.09,5.15Z" style="fill: #000; stroke-width: 0px;"/>
  <path d="M328.84,866.84c-1.39.08-2.79.27-4.18.22-1.66-.06-3.41-.05-4.94-.59-2.14-.76-3.21-2.58-2.84-4.91.37-2.32,1.91-3.6,4.2-3.83,1-.1,2.14-.08,3.02.32,2.12.97,4.07.81,6.2,0,1.07-.41,2.41-.39,3.57-.2,2.18.36,3.46,1.84,3.67,4.03.21,2.21-.89,3.95-2.93,4.6-1.81.58-3.81.58-5.73.83-.02-.16-.04-.31-.05-.47Z" style="fill: #000; stroke-width: 0px;"/>
  <path d="M337.49,37.17c-2.48-.78-4.36-1.12-6-1.94-2.89-1.46-5.57-1.72-8.48-.04-1.26.73-2.8,1.09-4.26,1.36-2.63.49-4.86-.28-6.21-2.74-1.19-2.18-.5-4.92,1.68-6.82,2.89-2.53,6.31-2.98,10.01-2.57,1.99.22,4.05.2,6.04-.01,4.03-.43,7.68.19,10.56,3.28,1.62,1.74,2.22,4.02.96,5.95-1,1.53-2.94,2.46-4.31,3.53Z" style="fill: #000; stroke-width: 0px;"/>
  <path d="M266.35,27.52c7.58.66,13.74,2.16,19.33,5.39.99.57,1.96,2.61,1.66,3.56-.31.98-2.15,1.96-3.39,2.06-1.6.13-3.32-.48-4.91-1-4.95-1.64-9.93-1.6-14.97-.55-.73.15-1.47.34-2.21.35-2.05.04-3.74-.68-4.37-2.78-.61-2.05.12-3.95,1.96-4.78,2.51-1.13,5.25-1.73,6.89-2.25Z" style="fill: #000; stroke-width: 0px;"/>
  <path d="M392.2,37.37c-.64-.12-1.29-.24-1.93-.38-5.04-1.05-10.02-1.11-14.98.52-1.76.58-3.66,1.08-5.48,1.02-1.04-.03-2.6-1.08-2.91-2-.3-.91.37-2.87,1.18-3.3,7.3-3.87,14.9-6.64,23.39-4.93,1.08.22,2.17.66,3.12,1.21,2.01,1.17,3.14,3.12,2.05,5.19-.73,1.39-2.59,2.19-3.95,3.26-.17-.2-.33-.4-.5-.6Z" style="fill: #000; stroke-width: 0px;"/>
  <path d="M569.48,731.04c-.79,1.71-1.14,3.03-1.89,4.03-2.53,3.37-5.18,6.66-7.85,9.92-1.21,1.48-2.74,2.53-4.6,1.14-1.7-1.27-1.29-2.99-.39-4.55,2.3-3.98,4.47-8.05,7.12-11.79.81-1.14,3.03-1.9,4.51-1.76,1.11.1,2.06,1.92,3.11,3Z" style="fill: #000; stroke-width: 0px;"/>
  <path d="M100.37,744.24c-.39.56-.8,1.75-1.56,2.05-.89.35-2.58.32-3.06-.26-3.51-4.23-6.98-8.53-10.09-13.06-1.12-1.64-.33-3.75,1.6-4.8,1.78-.97,3.73-.63,4.78,1.02,2.81,4.41,5.37,8.99,8,13.52.18.31.16.72.33,1.54Z" style="fill: #000; stroke-width: 0px;"/>
  <path d="M120.08,229.75c.08-5.33.7-9.99,3.54-13.74,1.78-2.35,4.43-4.16,6.99-5.71.88-.53,3.08.05,3.93.88.72.71.91,2.83.38,3.79-3.21,5.83-4.03,12.22-4.85,18.64-.46,3.57-2.25,5.59-4.83,5.56-2.57-.03-4.32-2.02-4.83-5.6-.21-1.48-.26-2.98-.32-3.81Z" style="fill: #000; stroke-width: 0px;"/>
  <path d="M140.98,216.53c2.06.19,3.35,1.91,3.14,4.19-.28,3.05-2.69,5.38-5.29,4.98-2.31-.36-3.36-1.91-3.3-4.15.06-2.58,3.04-5.25,5.45-5.03Z" style="fill: #000; stroke-width: 0px;"/>
  <path d="M534.45,229.41c-.32,2.12-.45,4.3-1.01,6.36-.6,2.19-2.21,3.5-4.59,3.37-2.25-.12-3.66-1.52-4.14-3.61-.52-2.28-.51-4.68-1.11-6.93-1.16-4.31-2.48-8.59-3.95-12.81-.62-1.78-1.45-3.7.3-4.83,1.17-.76,3.24-.86,4.63-.39,3.44,1.15,5.96,3.76,7.18,7.1,1.37,3.73,2.12,7.68,3.14,11.54-.15.07-.3.13-.44.2Z" style="fill: #000; stroke-width: 0px;"/>
  <path d="M513.56,216.56c2.5-.08,5.25,2.65,5.27,5.21.01,2.18-1.7,3.95-3.84,3.97-2.5.02-4.65-2.31-4.82-5.24-.13-2.24,1.28-3.88,3.4-3.94Z" style="fill: #000; stroke-width: 0px;"/>
  <path d="M230.76,845.11c-6.83-1-12.09-3.41-15.54-9-.72-1.18-1.3-2.52-1.61-3.86-.58-2.53.13-4.73,2.61-5.9,2.44-1.15,4.63-.18,5.88,1.86,2.69,4.37,6.35,7.51,10.71,10.11,1.04.62,2.08,2.91,1.69,3.83-.55,1.29-2.43,2-3.74,2.96Z" style="fill: #000; stroke-width: 0px;"/>
  <path d="M235.75,830.38c-.17,1.86-1.34,2.95-3.45,2.98-2.59.04-4.98-2.05-4.93-4.36.04-2.28,1.34-3.4,3.55-3.46,2.35-.06,4.81,2.32,4.83,4.84Z" style="fill: #000; stroke-width: 0px;"/>
  <path d="M423.59,845.11c-1.35-1.02-3.26-1.77-3.93-3.13-.92-1.88.74-3.24,2.4-4.14,4.02-2.18,7.35-5.03,9.73-9.04,1.62-2.73,4.14-3.51,6.42-2.46,2.33,1.08,3.25,3.72,2.36,6.76-1.85,6.36-8.75,11.1-16.98,12Z" style="fill: #000; stroke-width: 0px;"/>
  <path d="M421.65,833.36c-1.75-.16-3.07-1.14-3.08-3.32,0-2.27,2.58-4.62,4.92-4.5,2.19.12,3.52,1.27,3.53,3.54.01,2.29-2.48,4.34-5.37,4.28Z" style="fill: #000; stroke-width: 0px;"/>
</svg>