<?xml version="1.0" encoding="UTF-8"?>
<svg id="Layer_1" data-name="Layer 1" xmlns="http://www.w3.org/2000/svg" viewBox="0 0 578.87 900">
  <path d="M289.31,893.3c-9.62,7.26-20.29,8.63-30.92,4.04-5.46-2.36-10.08-.57-15-.25-7.31.47-14.43-.04-21.49-1.85-.79-.2-1.71-.64-2.17-1.27-2.36-3.21-5.7-2.95-9.14-3.13-22.23-1.17-44.58-1.01-66.62-4.55-10.82-1.74-21.42-4.92-31.06-10.39-11.09-6.3-19.23-15.68-26.33-26.1-7.46-10.95-13.71-22.59-18.42-34.91-3.29-8.6-5.95-17.55-7.77-26.57-2.31-11.44-4.08-23.06-4.96-34.68-.77-10.17-.04-20.47.17-30.7.11-5.32.34-10.66.82-15.96.89-9.85,2.12-19.67,2.96-29.52.27-3.13.41-6.12-.77-9.5-2.06-5.9-2.41-12.38-3.62-18.59-.99-5.09-2.43-10.11-3.26-15.22-1.05-6.47-1.9-12.98-2.46-19.51-1-11.85-1.75-23.72-2.54-35.59-.33-4.99-.61-9.98-.68-14.98-.27-19.31-.29-38.62-.73-57.92-.28-12.11-1.27-24.2-1.73-36.3-.26-6.88.02-13.79-.16-20.67-.27-10.5-2.7-20.56-6.41-30.38-3.79-10.04-7.22-20.23-10.76-30.36-2.84-8.11-5.75-16.21-8.4-24.38-4.93-15.2-8.16-30.81-10.83-46.55-1.32-7.76-2.99-15.47-4-23.26-1.1-8.54-1.85-17.15-2.33-25.75-.49-8.72-.88-17.49-.59-26.22.5-14.91,1.2-29.83,2.47-44.69,1.53-17.85,6.73-34.85,13.81-51.26,1.59-3.69,4.03-7,5.94-10.56,4.62-8.59,8.97-17.33,13.79-25.81,3.78-6.66,8.57-12.6,14.24-17.86,4.2-3.9,7.72-8.53,11.92-12.44,4.27-3.97,8.92-7.55,13.56-11.11,1.93-1.48,3.29-2.91,3.82-5.49,1.46-7.18,4.68-13.63,9.16-19.43,3.88-5.03,7.14-10.77,11.8-14.92,6.45-5.74,13.8-10.56,21.08-15.27,9.67-6.26,20.89-8.31,32.01-9.77,9.46-1.24,19.1-1.29,28.66-1.39,4.45-.05,8.9,1.03,13.36,1.59.3.04.63-.05.92-.14C213.18-1.56,230.24.31,247.11.38c9.39.04,18.35,3.31,27.05,6.77,6.34,2.53,12.95,3.85,19.56,3.07,5.17-.61,10.15-2.9,15.17-4.6,9.61-3.26,19.3-5.81,29.6-5.45,7.25.25,14.55-.36,21.78.17,6.95.51,13.81,2.14,20.74,2.96,2.79.33,5.7-.08,8.53-.38,19.49-2.09,38.69-.4,57.23,5.8,7.14,2.39,13.77,6.63,20.24,10.66,14.3,8.92,23.45,22.24,30.35,37.27.88,1.91,1.59,3.99,1.86,6.06.38,2.96,2.02,4.69,4.4,6.16,6.94,4.31,12.65,9.99,17.97,16.16,3.47,4.02,7.41,7.62,11.15,11.4,6.22,6.29,10.51,13.86,14.56,21.63,3.82,7.33,8.23,14.38,11.75,21.85,3.85,8.16,7.42,16.5,10.34,25.03,7.31,21.34,8.41,43.59,8.89,65.9.18,8.32.67,16.64.58,24.95-.17,17.08-1.86,34.04-5.04,50.84-2.13,11.29-3.86,22.66-6.32,33.87-1.96,8.91-4.51,17.71-7.24,26.41-2.61,8.31-5.84,16.42-8.72,24.64-4.39,12.53-9.05,24.99-12.93,37.68-1.81,5.91-2.56,12.28-2.88,18.48-.61,12.02-.55,24.07-.83,36.11-.4,17.47-.82,34.94-1.27,52.41-.13,4.9-.37,9.79-.6,14.68-.72,15.42-1.45,30.83-2.18,46.25-.32,6.81-.24,13.67-1.11,20.4-1.12,8.7-3.07,17.3-4.56,25.95-.9,5.21-1.36,10.51-2.46,15.68-.81,3.77-2.67,7.31-3.44,11.08-.49,2.4.08,5.05.32,7.57.97,9.86,2.37,19.7,2.93,29.58.76,13.41,1.29,26.86,1.14,40.29-.1,8.91-1.04,17.91-2.59,26.69-1.98,11.28-4.35,22.57-7.66,33.52-2.41,7.99-6.42,15.53-10.06,23.11-5.57,11.58-12.67,22.25-21.2,31.83-10.42,11.71-24.04,17.91-39.05,21.59-11.98,2.93-24.13,4-36.4,4.5-14.27.57-28.53,1.28-42.8,1.99-.75.04-1.65.45-2.18.98-3.62,3.72-8.28,4.18-13.1,4.9-7.96,1.18-15.69-.23-23.5-1.07-.59-.06-1.3-.13-1.78.13-11.89,6.45-23.11,4.67-34.05-2.6ZM40.48,400.75c1.93-.66,3.64-1.73,5.32-1.68,1.52.05,3.63.97,4.28,2.17.48.88-.63,3.17-1.67,4.18-1.3,1.26-3.25,1.84-4.98,2.75.37,1.32.64,2.57,1.06,3.76,3.75,10.63,7.34,21.31,11.33,31.85,6.75,17.81,10.94,36.28,13.93,54.99,1.86,11.65,2.79,23.47,3.73,35.25,1.23,15.4,2.39,30.81,2.96,46.24.39,10.75.09,21.57-.57,32.31-.79,12.75-2.17,25.47-3.54,38.18-1.2,11.12-2.77,22.2-4.1,33.3-.11.92.04,2.2.6,2.83,3.35,3.75,2.97,5.65-1.73,7.2-.28,3.11-.56,6.27-.84,9.41,2.22.62,4.15,1.15,6.07,1.7,2.09.6,3.74,2.02,2.94,4.11-.49,1.27-2.45,2.4-3.94,2.73-1.63.36-3.48-.28-5.44-.51-.22,3.97-.25,7.69-.7,11.36-.27,2.22.53,2.98,2.51,3.46,3.49.84,7.04,1.65,10.33,3.04,1.33.56,2.75,2.56,2.84,3.99.14,2.14-1.7,3.39-3.96,3.12-2.2-.27-4.38-.75-6.54-1.25-1.68-.39-3.31-.96-5.44-1.59,0,4.03.06,7.43-.03,10.82-.05,1.9.53,2.69,2.57,3.17,6.18,1.45,12.31,3.18,18.36,5.1,1.05.33,2.31,2.12,2.27,3.21-.03,1.03-1.5,2.68-2.56,2.88-2.11.39-4.43.28-6.55-.17-4.49-.96-8.9-2.27-13.65-3.52.38,4.52.63,8.66,1.15,12.76.09.72,1.18,1.67,1.97,1.88,2.66.71,5.41,1.08,8.1,1.69,7.74,1.77,15.45,3.73,23.23,5.31,1.99.4,3.7.62,3.85,2.88.15,2.35-1.45,3.67-3.59,3.6-4.51-.13-9.06-.34-13.52-.99-6.04-.88-12.02-2.21-18.65-3.46,1.65,6.6,3.11,12.67,4.75,18.69.17.64,1.29,1.3,2.07,1.47,11.7,2.55,23.42,5.01,35.13,7.51,2.79.59,5.67.97,8.33,1.92,2.82,1.01,3.22,4.6.72,6.03-1.28.73-3.09,1.02-4.57.82-7.66-1.06-15.31-2.24-22.92-3.6-5.07-.91-10.08-2.18-15.17-3.31,1.64,7.23,2.93,8.78,9.3,11.07,2.79,1,5.55,2.18,8.43,2.85,10.32,2.42,20.66,4.75,31.04,6.91,3.94.82,8.03.91,11.96,1.75,1.05.22,2.44,1.97,2.45,3.03.02,1.06-1.33,2.84-2.37,3.08-3.18.75-6.56,1.54-9.74,1.17-6.93-.8-13.84-2.06-20.66-3.58-6.99-1.56-13.85-3.67-21.33-5.68,1.61,2.84,2.82,5.3,4.33,7.57,2.52,3.79,4.23,7.82,9.71,9.33,9.86,2.73,19.14,7.42,29.6,8.14,9.41.64,18.78,1.78,28.19,2.35,4.22.26,8.5-.51,12.74-.4,1.25.03,3.2,1.29,3.49,2.35.3,1.1-.66,3.29-1.7,3.86-1.96,1.08-4.39,1.89-6.6,1.84-9.98-.22-19.96-.71-29.94-1.24-4.44-.24-8.93-.47-13.28-1.29-5.58-1.05-11.04-2.69-16.56-4.08-.16.23-.33.47-.49.7,5.27,3.53,10.21,7.73,15.87,10.45,12.44,5.99,25.9,8.23,39.62,8.93,13.85.7,27.69,1.57,41.55,2.02,11.38.36,22.99,1.54,33.93-2.62,8.18-3.11,16.37-2.22,24.59-1.51,19.4,1.68,38.75,1.64,58.17.07,7.11-.57,14.32-2.25,21.51.54,7.73,3,15.86,4.06,24.19,3.69,10.12-.45,20.26-.6,30.38-1.07,17.23-.8,34.55-.69,51.38-5.37,9.48-2.64,17.94-7.13,25.41-13.5.56-.48.94-1.16,1.72-2.13-1.01.08-1.45.03-1.82.16-7.85,2.87-15.87,4.68-24.3,4.49-3.06-.07-6.13.46-9.2.62-8.37.44-16.75.91-25.13,1.16-1.61.05-3.54-.47-4.79-1.43-1.22-.94-2.45-2.78-2.45-4.22,0-2.17,2.1-2.66,4.07-2.53,2.76.18,5.52.66,8.26.56,7.96-.3,15.92-.7,23.86-1.3,4.95-.38,9.97-.79,14.77-1.94,6.47-1.55,12.84-3.63,19.12-5.86,4.7-1.67,9.91-2.7,12.3-8.19,1.48-3.4,3.64-6.5,5.42-9.62-11.71,2.72-23.13,5.54-34.62,7.97-5.29,1.11-10.79,1.44-16.07-.19-1.32-.41-2.25-2.11-3.36-3.21,1.1-1.09,2.01-2.72,3.33-3.16,2.06-.69,4.38-.57,6.59-.82,15.17-1.73,29.74-5.87,44.27-10.42,6.15-1.92,7.76-6.3,9.35-10.82-10.83,1.85-21.67,3.73-32.51,5.55-2.61.44-5.29,1.08-7.86.82-1.39-.14-3.21-1.72-3.77-3.09-.8-1.96.78-3.36,2.71-3.97,1.31-.41,2.66-.73,4.01-1.01,13.06-2.74,26.13-5.46,39.19-8.22.63-.13,1.58-.54,1.7-1,1.63-6.21,3.13-12.45,4.7-18.78-9.83,1.57-19.13,3.05-28.44,4.53-3.43.55-6.91-.83-7.18-3.12-.44-3.7,2.42-3.27,4.83-3.78,10.05-2.15,20.06-4.51,30.06-6.9.85-.2,2.1-1.1,2.19-1.79.53-4.19.78-8.42,1.15-12.95-3.54.98-6.56,2-9.66,2.62-3.28.65-6.63,1.23-9.95,1.2-1.14-.01-2.91-1.81-3.17-3.05-.18-.86,1.52-2.78,2.72-3.16,6.06-1.92,12.23-3.46,18.34-5.22.78-.23,2.01-.93,2.04-1.45.17-3.98.09-7.98.09-12.37-1.77.52-2.97.91-4.18,1.23-2.15.57-4.29,1.28-6.48,1.6-2.34.34-4.76.02-5.23-2.87-.48-2.95,1.6-4.03,4.1-4.71,3.95-1.07,7.86-2.29,11.26-3.3v-14.14c-2.14.28-3.78.56-5.44.68-2.24.16-4.24-.55-4.57-3-.3-2.23,1.27-3.43,3.34-3.99,1.92-.51,3.82-1.09,5.92-1.69-.29-3.17-.58-6.32-.87-9.44-3.91-1.23-5.36-3.8-3.01-5.74,2.68-2.22,1.95-4.59,1.58-7.18-.76-5.37-1.57-10.74-2.2-16.13-.85-7.29-1.6-14.6-2.28-21.91-1.2-12.93-2.91-25.84-3.35-38.8-.73-21.64.41-43.26,2.37-64.83.97-10.71,1.13-21.54,2.87-32.11,2.6-15.73,5.59-31.47,9.71-46.85,3.65-13.63,9.07-26.78,13.73-40.14,1.42-4.06,2.91-8.1,4.38-12.18-1.91-.96-3.34-1.65-4.74-2.4-1.92-1.03-2.92-2.64-2.15-4.77.82-2.26,2.85-2.42,4.83-1.97,1.62.37,3.15,1.1,4.9,1.73,1.8-5.36,3.54-10.54,5.26-15.64-2.13-1.15-4.26-1.84-5.7-3.25-.87-.85-1.2-3.01-.74-4.18.31-.81,2.39-1.33,3.66-1.29,1.85.05,3.68.72,5.84,1.19,1.22-3.48,2.43-6.94,3.67-10.47-2.65-1.64-5.4-2.95-7.59-4.88-.93-.82-1.32-3.19-.83-4.4.34-.84,2.69-1.45,3.97-1.22,2.22.42,4.31,1.56,6.59,2.46,1.12-4.15,2.11-8.15,3.3-12.1.49-1.63-.09-2.19-1.46-2.9-3.3-1.7-6.66-3.4-9.61-5.61-1.07-.8-1.74-3.23-1.38-4.59.57-2.15,2.64-2,4.54-1.25,3.43,1.36,6.89,2.64,10.58,4.05,1.12-6.02,2.23-11.92,3.35-17.92-3.49-1.64-6.77-3.12-9.99-4.7-2.27-1.12-4.7-2.11-6.63-3.68-.95-.77-1.6-3.01-1.15-4.07.4-.96,2.54-1.79,3.8-1.65,2.6.28,5.17,1.09,7.66,1.96,2.64.92,5.17,2.16,7.9,3.33,1.09-6.02,2.1-11.63,3.03-16.75-5.66-2.83-10.85-5.47-16.08-8.02-3.05-1.49-6.27-2.67-9.23-4.31-2.22-1.24-4.02-3.21-2.81-6.04,1.12-2.63,3.73-2.1,5.61-1.42,5.28,1.9,10.47,4.06,15.58,6.37,2.66,1.21,5.08,2.96,8.11,4.76.28-6.15.58-11.75.73-17.36.02-.66-.62-1.67-1.23-1.96-7.65-3.62-15.37-7.09-23.02-10.71-3.13-1.48-6.29-3-9.1-4.99-.87-.62-1.18-3.07-.69-4.24.37-.9,2.56-1.77,3.67-1.5,4.62,1.11,9.29,2.3,13.66,4.14,5.81,2.45,11.36,5.52,17.37,8.5,0-3.27-.28-6.36.07-9.38.5-4.33-.7-7.07-5.28-8.03-1.48-.31-2.72-1.61-4.14-2.33-7.25-3.68-14.43-7.55-21.83-10.89-6.27-2.83-12.85-4.96-19.22-7.56-2.49-1.01-5.24-2.48-4.29-5.79.95-3.33,4.2-2.95,6.5-2.17,8.21,2.77,16.44,5.55,24.36,9.03,7.81,3.43,15.25,7.72,23.19,11.8,0-4.67-.08-9.22.04-13.77.04-1.76-.62-2.71-2.16-3.44-3.36-1.58-6.84-3.01-9.94-5.01-10.17-6.59-21.72-9.82-32.86-14.11-7.2-2.77-14.25-6.01-21.19-9.4-1.36-.66-2.7-2.99-2.62-4.47.06-1.26,2-2.97,3.45-3.46,1.25-.43,3.07.37,4.49.98,3.22,1.37,6.26,3.19,9.53,4.42,7.83,2.96,15.83,5.49,23.61,8.58,5,1.99,9.78,4.57,14.56,7.08,4.06,2.13,7.98,4.54,12.42,7.08-.7-5.67-1.25-10.74-2.01-15.78-.11-.73-1.03-1.55-1.78-1.95-10.68-5.8-21.2-11.94-32.16-17.17-9.44-4.51-19.41-7.92-29.1-11.93-6.56-2.71-13.11-5.48-19.52-8.52-2.35-1.11-4.61-2.81-6.28-4.78-.9-1.06-1.14-3.68-.43-4.8.68-1.05,2.97-1.23,4.6-1.45.85-.11,1.83.47,2.71.82,4.23,1.68,8.46,3.35,12.65,5.11,8.4,3.52,16.87,6.88,25.14,10.7,10.46,4.83,20.77,9.98,31.08,15.12,3.29,1.64,6.39,3.69,9.57,5.55-.38-3.44-1.24-6.27-2.15-9.08-1.17-3.61-1.72-7.75-6.87-7.99-.47-.02-.91-.52-1.37-.79-6.71-3.86-13.29-7.96-20.15-11.53-12.99-6.74-26.08-13.29-39.23-19.68-9.93-4.82-20-9.34-30.06-13.87-4.35-1.96-8.83-3.64-13.27-5.38-2.33-.91-3.92-2.32-3.54-4.99.4-2.81,2.62-3.48,4.98-3.52,1.34-.02,2.78.31,4.03.81,7.95,3.22,15.83,6.63,23.8,9.81,17.37,6.95,34.4,14.6,50.62,23.95,4.13,2.38,8.03,5.14,12.12,7.6,3.37,2.02,6.85,3.86,10.27,5.78-1.01-2.74-2.75-4.77-4-7.06-4.14-7.56-10.25-13.52-16.92-18.47-10.5-7.79-21.61-14.79-32.76-21.63-16.28-9.99-33.72-17.73-51.33-25-13.85-5.71-28.11-10.45-41.98-16.14-14.12-5.79-28.75-8.3-43.89-8.59-11.97-.23-23.89.32-35.65,2.61-8.66,1.69-17.38,3.21-25.02,8.2-3.07,2.01-6.16,5-10.47,2.69-.2-.11-.61.24-.9.2-2.09-.28-4.36-.18-6.24-.98-5.17-2.19-9.96-5.45-15.28-7.05-12.59-3.8-25.62-5.51-38.78-5.61-7.14-.05-14.32-.02-21.4.73-6.83.73-13.72,1.89-20.31,3.83-9.06,2.66-17.87,6.18-26.76,9.43-4.69,1.71-9.33,3.55-13.96,5.44-10.82,4.42-21.94,8.28-32.36,13.51-15.77,7.92-31.12,16.69-46.52,25.33-11.32,6.35-21.54,14.23-30,24.12-3.86,4.5-7.01,9.61-10.47,14.45,4.46-1.85,8.32-4.07,12.13-6.36,6.81-4.09,13.42-8.54,20.43-12.27,7.2-3.82,14.71-7.07,22.18-10.36,12.8-5.63,25.66-11.15,38.54-16.6,2.53-1.07,5.23-1.9,7.93-2.31,2.39-.36,4.8.26,5.59,3.12.67,2.42-.76,4.33-3.77,5.44-2.98,1.09-6,2.12-8.88,3.42-10.34,4.66-20.65,9.38-30.94,14.16-9.32,4.33-18.76,8.45-27.83,13.24-10.59,5.59-20.8,11.89-31.25,17.74-2.92,1.64-6.1,2.8-9.68,4.42-1.5,4.55-3.21,9.75-5.2,15.82,2.04-1.16,3.27-1.89,4.53-2.56,9.63-5.12,19.11-10.55,28.93-15.26,9.53-4.57,19.38-8.47,29.16-12.52,6.35-2.63,12.82-4.98,19.22-7.5,2.06-.81,4.23-.65,4.95,1.36.54,1.51.17,3.92-.77,5.22-1.24,1.72-3.26,3.15-5.25,4.03-9.39,4.17-18.86,8.19-28.35,12.11-8.4,3.47-17.13,6.26-25.27,10.25-9.59,4.71-18.7,10.38-27.99,15.69-.75.43-1.65,1.25-1.77,2-.77,5-1.35,10.03-2.09,15.76,1.77-1.02,2.83-1.67,3.93-2.25,6.07-3.22,11.97-6.83,18.26-9.55,8.34-3.6,17.02-6.4,25.48-9.75,4.92-1.95,9.66-4.37,14.53-6.47,2.39-1.03,4.55-.38,5.71,1.95,1.26,2.55.22,4.64-2.21,5.86-4.93,2.46-9.81,5.08-14.92,7.1-6.97,2.76-14.34,4.58-21.18,7.61-9.57,4.25-18.81,9.22-28.16,13.95-.75.38-1.74,1.26-1.76,1.94-.15,5.01-.08,10.03-.08,15.62,2.55-1.71,4.36-3.28,6.44-4.25,11.53-5.36,23.07-10.7,34.74-15.73,2.75-1.19,6.01-1.46,9.05-1.58,1.23-.05,3.09,1.2,3.61,2.34.43.95-.32,3-1.23,3.83-1.43,1.32-3.36,2.22-5.21,2.96-4.02,1.62-8.26,2.74-12.17,4.59-11.48,5.44-22.85,11.11-34.23,16.77-.78.39-1.68,1.47-1.71,2.25-.16,4.45-.08,8.92-.08,13.71,4.29-2.22,8.09-4.54,12.15-6.2,5.96-2.45,12.09-4.51,18.21-6.55,1.89-.63,4.35-.44,4.66,1.93.2,1.56-.74,3.91-1.97,4.89-2.12,1.66-4.85,2.56-7.36,3.71-7.98,3.66-15.97,7.26-23.94,10.95-.57.26-1.3,1.05-1.28,1.57.24,5.76.62,11.52.98,17.7,2.17-1.3,3.73-2.19,5.26-3.14,6.17-3.83,12.54-7.25,19.86-8.15,1.32-.16,3.79.65,3.99,1.44.36,1.46-.39,3.31-1.04,4.85-.32.77-1.36,1.37-2.2,1.77-8.12,3.86-16.26,7.67-24.77,11.67,1,5.51,2.03,11.18,2.99,16.47,5.35-1.68,10.45-3.45,15.65-4.78,1.14-.29,3.42.64,3.82,1.58.45,1.07-.28,3.04-1.12,4.15-.84,1.1-2.4,1.71-3.73,2.35-3.72,1.8-7.51,3.43-11.19,5.31-.72.37-1.6,1.6-1.48,2.28.91,5.44,2.04,10.84,3.12,16.35,3.56-1.37,6.92-2.61,10.24-3.96,1.98-.8,3.9-1.08,4.99,1.1,1.09,2.19-.02,3.94-1.96,5.08-3,1.78-6.12,3.38-9.07,5.24-.79.5-1.76,1.82-1.6,2.53.96,4.18,2.23,8.28,3.39,12.4,2.2-.9,4.15-1.7,6.11-2.48,1.89-.76,3.63-.68,4.7,1.28,1.08,1.97.15,3.56-1.46,4.7-1.82,1.28-3.81,2.32-5.64,3.58-.6.42-1.47,1.36-1.33,1.79,1.04,3.29,2.29,6.5,3.43,9.6,2.03-.46,3.59-.75,5.11-1.18,2.04-.58,4.02-.65,4.71,1.73.74,2.57-.79,4.23-3.06,5.24-1.24.55-2.52,1.01-3.88,1.55,1.84,5.41,3.61,10.61,5.38,15.81ZM487.75,58.53c.18-.2.36-.4.54-.6-6.12-9.27-11.63-18.93-20.62-26.04-9.11-7.2-18.86-12.99-30.14-16.03-9-2.42-18.14-4.14-27.47-4.19-7.02-.04-14.1-.03-21.04.86-6.16.79-12.09,3.25-18.24,4.22-11.01,1.74-21.75,4.24-32.16,8.3-8.75,3.41-13.55,10-16.29,18.67,7.09-.85,14.02-2.2,20.98-2.38,10.73-.29,21.48.31,32.22.36,7.53.04,14.6,3.53,22.71.6,6.24-2.26,13.67-1.51,20.57-1.55,7.45-.05,14.9.71,22.35.79,10.12.11,19.51,2.74,28.41,7.37,6.08,3.16,12.12,6.43,18.17,9.65ZM90.66,57.86c.21.21.43.42.64.63,6.53-3.49,12.94-7.25,19.63-10.4,7.3-3.43,14.85-6.25,23.17-6.28,5.86-.02,11.73-.29,17.57-.66,11.58-.73,23.14-1.61,34.3,2.8.63.25,1.43.19,2.13.09,4.95-.72,9.87-1.56,14.83-2.23,13.17-1.77,26.36-1.55,39.53-.05,4.71.54,9.38,1.44,14.16,2.18-2.86-9.82-8.58-16.55-18.24-19.58-3.82-1.2-7.55-2.75-11.43-3.67-8.83-2.1-17.81-3.62-26.59-5.94-7.34-1.94-14.68-3.33-22.28-3.11-6.23.17-12.5.13-18.69.77-10.89,1.12-21.63,3.29-31.31,8.65-6.08,3.36-11.85,7.36-17.45,11.49-8.96,6.6-13.98,16.35-19.98,25.3ZM356.73,9.18c-4.38,0-8.53.11-12.67-.03-6.41-.21-12.71.21-18.96,1.78-9.76,2.45-19.54,4.82-29.34,7.07-5.28,1.21-10.38.41-15.67-1-10.33-2.75-20.8-5.23-31.36-6.78-8.65-1.26-17.52-1.01-26.29-1.42,5.58,2.3,11.2,3.8,16.74,5.56,11.88,3.77,21.49,10.2,25.82,22.64.34.99.96,1.89,1.51,2.8,3.58,5.91,4.39,6.3,10.33,9.88,4.51,2.72,8.6,6.12,13.17,9.43,4.96-5.43,10.96-10.08,18.68-12.02.45-.11.97-.55,1.16-.97,1.67-3.65,3.4-7.29,4.87-11.03,3.73-9.5,10.97-15.33,20.13-18.82,7.09-2.7,14.45-4.71,21.88-7.09ZM527.31,463.55c-.34-.01-.69-.02-1.03-.04-13.51,60.21-17.46,120.95-9.83,182.36,3.05-14.03,6.25-27.92,6-42.46-.21-12.61,1.26-25.23,1.61-37.86.44-15.76.44-31.54.71-47.31.15-9.05.32-18.1.75-27.13.43-9.2,1.18-18.38,1.8-27.56ZM52.76,464.12l-1.47.12c.53,5.58,1.22,11.16,1.56,16.76.6,9.76,1.09,19.54,1.43,29.32.34,10.12.39,20.24.66,30.36.38,14.15.93,28.3,1.25,42.45.18,8.19.05,16.38.07,24.58,0,1.06.07,2.13.2,3.18.77,6.2,1.42,12.42,2.39,18.59.89,5.62,2.14,11.19,3.23,16.78.33-.04.66-.08,1-.11,6.96-61.26,3.22-121.91-10.31-182.01ZM49.16,107.71c12.73-7.35,25.14-15.03,38.02-21.79,12.89-6.77,26.12-12.96,39.47-18.79,13.2-5.76,26.73-10.74,39.27-15.73-8.99,0-18.79.23-28.58-.07-7.69-.24-14.95,1.66-21.47,5.07-11.83,6.18-23.32,13.08-34.68,20.11-6.3,3.9-12.41,8.19-17.06,14.23-2.59,3.36-5.58,6.41-8.4,9.6-2.21,2.49-4.43,4.98-6.57,7.38ZM412.64,51.41c40.42,15.26,80.68,31.93,117.05,56.74-.5-1.07-1.13-1.91-1.84-2.68-2.81-3.04-5.82-5.92-8.44-9.12-5.26-6.46-10.61-12.87-17.71-17.35-10.86-6.86-21.78-13.65-32.97-19.93-9.46-5.31-19.63-8.35-30.79-7.75-8.59.46-17.22.09-25.3.09ZM263.79,890.76c6.68,1.44,13.01,1.05,19.02-2.41-1.1-.45-2.21-.64-3.32-.65-3.51-.04-7.03.2-10.52-.08-2.63-.21-4.14.77-5.18,3.14ZM296.3,887.64c-.04.39-.09.79-.13,1.18,6.08,2.84,12.36,3.57,19.45,1.75-1.33-1.2-2.27-2.77-3.28-2.82-5.34-.25-10.69-.12-16.04-.12ZM326,886.91c2.92.48,5.64.99,8.36,1.37,2.63.37,5.29.62,7.93.92-5.21-1.81-10.14-5.71-16.29-2.29ZM253.11,886.99c-6.25-3.45-11.2.22-16.47,1.52l.12.85c5.34-.77,10.67-1.55,16.35-2.37Z" style="fill: #000; stroke-width: 0px;"/>
  <path d="M120.63,722.4c.34-21.2.41-42.41,1.18-63.6.28-7.68,2.1-15.32,3.47-22.93,1.24-6.88,3.06-13.65,4.18-20.55.63-3.85.42-7.84.49-11.77.04-2.14.03-4.25,2.84-4.49,2.77-.24,3.71,1.73,4.14,3.95,1.49,7.71,2.86,15.44,4.36,23.15,1.58,8.08,3.08,16.19,4.98,24.2,1,4.21,3.14,8.15,4.1,12.36,1.2,5.25,1.65,10.67,2.56,16,.18,1.05.94,1.99,1.4,3,.43.94,1.11,1.89,1.18,2.87.67,9.22,4.47,17.47,9.49,24.77,3.28,4.78,8.33,8.53,15.37,8.15,7.1-.38,14.26.26,21.39.5,2.31.08,3.64-.42,4.06-3.19,1.52-10.05,5.82-18.68,13.14-25.97,9.5-9.45,20.66-10.42,32.77-7.33,2.08.53,4.17,1.78,5.8,3.22,4.8,4.26,9.12,9.01,11.18,15.26.61,1.86,1.52,2.4,3.23,2.1,3.96-.7,7.91-2.02,11.87-2.01,5.57,0,11.33-1.27,16.75,1.19.39.18.78.4,1.19.43,2.01.18,4.03.37,6.05.42,3.06.07,2.35-2.84,3.26-4.4,4.32-7.35,9.06-14.28,17.81-16.84,12.97-3.8,26.62,1.28,35.15,12.3,5.2,6.72,7.77,14.33,9.3,22.43.34,1.8,1.1,2.39,2.68,2.36,9.05-.2,18.26.46,27.1-1.01,4.2-.7,8.68-4.81,11.34-8.58,4.89-6.93,7.9-14.96,9.12-23.55.3-2.14,2.08-4.06,2.48-6.21,1.07-5.82,1.65-11.73,2.67-17.56.29-1.68,1.4-3.22,2.17-4.81.5-1.03,1.3-1.98,1.53-3.06,1.71-7.85,3.44-15.7,4.9-23.59,1.35-7.3,2.31-14.66,3.55-21.98.35-2.08.76-4.29,1.8-6.07.69-1.19,2.67-2.48,3.83-2.28,1.04.18,2.53,2.36,2.47,3.59-.43,8.72,1.64,17.02,3.2,25.49,2.45,13.32,5.79,26.57,5.29,40.31-.18,5.01-.12,10.04.01,15.06.37,14.68,1.13,29.36,1.14,44.04,0,7.28-1.21,14.57-2.03,21.84-.9,8-1.93,15.98-2.98,23.96-1.01,7.64-3,15.04-7.21,21.54-1.5,2.32-3.94,4.37-6.41,5.66-8.45,4.39-14.91,11.2-22.03,17.23-7.44,6.3-15.87,10.47-25.76,11.49-7.81.8-15.59,1.95-23.39,2.94-.63.08-1.27.2-1.9.21-16.52.2-33.04.56-49.56.51-6.86-.02-12.67-3.42-17.92-7.62-6.9-5.52-13.15-5.45-20.09.17-6.31,5.11-13.47,7.88-21.83,7.62-9.71-.3-19.45.34-29.15-.15-9.72-.49-19.49-.57-29.13-2.61-5.58-1.18-11.5-.74-17.09-1.88-8-1.63-15.07-5.46-21.33-10.85-6.11-5.25-11.47-11.52-18.81-15.17-9.27-4.61-13.52-12.61-15.09-22.22-1.8-11.07-3.17-22.21-4.57-33.34-1.03-8.2-1.83-16.42-2.73-24.64.36-.03.71-.06,1.07-.09ZM263.43,822.33c-1.26-4.46-2.97-8.07-3.2-11.76-.6-9.88-.63-19.8-.76-29.71-.04-3.59,2-5.69,5.55-6.32,2.3-.41,4.58-.96,6.89-1.23,2.84-.33,5.79-.96,8.54-.51,5.58.9,11.04,1.25,16.65.33,2.76-.46,5.68-.22,8.5.04,2.84.26,5.66.9,8.47,1.43,3.18.6,5.5,2.73,5.43,5.81-.3,13.83,2.15,27.93-4.35,41.54,1.8.2,3.14.49,4.48.47,2.67-.04,5.33-.4,7.99-.33,2.26.06,2.97-.82,2.96-2.99-.05-7.69-.41-15.41.19-23.05.44-5.53,2.01-11.02,3.54-16.39.44-1.53,2.39-3.5,3.87-3.7,6.08-.83,12.24-1.26,18.38-1.45,4.34-.13,8.7.47,13.06.54,7.31.12,9.78,2.31,9.55,9.56-.38,11.5-1.05,23-1.6,34.47,3.78-.25,8.08-.54,12.18-.82,1.07-5.11,2.44-9.72,2.92-14.43.76-7.45.84-14.97,1.39-22.44.11-1.47.62-3.61,1.65-4.2,3.64-2.07,7.44-4.17,11.45-5.16,3.89-.96,8.12-.56,11.9-.75v-52.49c-2.34,1.76-4.92,3.47-7.19,5.52-.95.86-1.77,2.41-1.8,3.66-.18,6.83-.05,13.67-.11,20.5-.03,3.71-1.96,6.64-5.22,7.09-6.21.87-12.46.77-18.62-.66-3.18-.74-6.33-1.86-9.55-2.14-3.24-.28-6.55.39-9.83.44-2.7.04-4.13-1.51-4.14-4.21-.03-5.83-.09-11.67.05-17.49.05-2.21.24-4.55,1.02-6.58,3.02-7.87-.9-14.47-3.28-21.39-.79,3.73-1.39,7.41-1.56,11.1-.29,6.11-.37,12.23-.41,18.35-.04,5.84-.4,10.51-8.74,10.05-3.5-.19-7.03-.01-10.54.23-7.56.53-14.9,1.16-21.29-4.66-4.08-3.72-6.55-7.67-6.47-13.2.07-4.78.01-9.56.01-14.55-1.54.09-2.65.15-3.96.22,0,2.17.09,4.08-.02,5.98-.12,2.01-.44,4-.64,6-.48,4.85-6.71,9.41-11.52,8.92-3.87-.39-7.84-.36-11.72,0-4.74.44-10.86-4.03-11.28-8.76-.36-4-.66-8-.99-12.17h-4.04c0,5.24.15,10.33-.07,15.4-.1,2.26-.42,4.8-1.55,6.67-4.03,6.69-9.94,10.63-18.03,10.48-6.49-.12-12.97-.47-19.46-.61-5.28-.12-7.74-2.54-7.75-7.9-.01-5.5.14-11.01-.08-16.51-.2-5.01-.81-10-1.24-15-.81.03-.99.3-1.08.6-2.18,6.97-4.77,13.45-2.79,21.46,1.9,7.68,1.07,16.08.99,24.16-.01,1.15-2.35,2.73-3.91,3.28-1.61.57-3.59.16-5.4.15-2.72-.01-5.61-.67-8.11.05-7.21,2.08-14.41,3.21-21.92,2.57-5.6-.48-7.74-2.54-7.79-8.25-.07-6.83-.15-13.65-.32-20.48-.02-.83-.45-1.92-1.06-2.41-2.54-2.04-5.23-3.9-8.17-6.05v53.14c.57-.03,1.2,0,1.81-.1,7.85-1.46,15.04.16,21.37,4.98,1.18.9,2.16,2.78,2.26,4.28.45,6.68.53,13.38.79,20.08.05,1.26.25,2.52.51,3.75.93,4.33,1.93,8.65,3.02,13.52,4.02.24,8.41.51,12.63.77-.3-3.95-.66-7.83-.86-11.71-.44-8.49-.93-16.98-1.1-25.47-.07-3.22,1.51-6,5.14-6.26,7.3-.51,14.63-.89,21.94-.96,4-.04,8.01.85,12.02.97,2.72.09,4.73,1.16,5.49,3.56,1.39,4.33,3.03,8.75,3.33,13.22.55,8.07.26,16.2.21,24.3-.03,4.74.4,5.29,5.02,5.36,1.49.02,2.98.23,4.47.27,1.93.05,3.87.01,5.87.01ZM430.63,794.86c9.32-4.81,13.83-11.62,14.75-21.18.83-8.64,2.35-17.21,3.48-25.82.8-6.09,2.05-12.19,2.06-18.29.03-10.84-.8-21.67-1.12-32.52-.48-15.97-.58-31.96-1.35-47.91-.31-6.39-1.97-12.71-3.01-19.05-1.11,1.49-1.75,2.94-2.07,4.46-.85,4.03-1.53,8.1-2.31,12.14-1.59,8.27-3.27,16.52-4.78,24.8-1.59,8.73-2.94,17.51-4.57,26.24-.54,2.91-2.19,5.68-2.36,8.57-.67,11.68-1.19,23.39-1.3,35.08-.06,6.88.75,13.77,1.18,20.66.39,6.16.88,12.32,1.17,18.49.21,4.59.16,9.18.24,14.32ZM148.58,794.88c0-5.34,0-10.2,0-15.06,0-2.45-.07-4.91.06-7.36.79-14.11,1.75-28.21,2.41-42.33.2-4.22-.51-8.48-.54-12.72-.04-6.09-.9-11.97-2.59-17.86-1.71-5.96-2.64-12.14-3.86-18.24-1.07-5.38-2.1-10.77-3.08-16.17-.3-1.66-.41-3.36-.63-5.04-.43-3.28-.8-6.57-1.35-9.83-.6-3.5-1.29-7-2.12-10.45-.75-3.15-1.73-6.24-2.61-9.36-.45,0-.9.02-1.35.03-1.22,9.6-3.18,19.18-3.52,28.82-.85,24.58-.97,49.19-1.37,73.79-.02,1.17.06,2.34.22,3.5,1.62,11.74,3.2,23.49,4.95,35.21.56,3.75.9,7.75,2.52,11.06,2.48,5.06,6.38,9.21,12.86,12.04ZM350.43,735.31c.24-4.63.38-8.95.69-13.25.58-8.14,1.21-16.28,1.92-24.42.19-2.16-.27-3.7-2.05-5.21-5.47-4.63-11.77-3.47-17.96-2.9-5.2.48-7.88,4.66-10.81,8.26-2.49,3.05-4.94,6.12-3.38,10.62.52,1.52.12,3.38.06,5.09-.14,3.72-.52,7.44-.45,11.16.11,5.4,5.13,10.43,10.58,10.63,4.85.17,9.71.02,14.57.02,2.44,0,4.87,0,6.83,0ZM228.63,735.32c6.75,0,14.14.1,21.53-.04,5.12-.1,9.95-5.2,9.98-10.32.03-5.54-.67-11.19.17-16.59.61-3.89-.68-6.64-2.49-9.41-1.49-2.28-3.41-4.37-5.45-6.2-5.62-5.06-12.47-4.1-19.01-3-2.6.44-4.9,2.74-7.27,4.31-.38.25-.56,1.11-.5,1.66.32,3.06.88,6.1,1.1,9.17.7,10.03,1.29,20.08,1.94,30.43ZM271.57,817.68c11.88-9.51,24.15-9.2,35.82-.12,4.53-11.19,3.15-22.61,3.3-34.27-14.18-2.95-28.15-2.86-42.31-.04.16,11.71-1.24,23.14,3.19,34.44ZM338.88,822.23c9.04-.35,18.18-.71,27.32-1.08,1.9-.08,2.67-.95,2.79-3.01.26-4.33,1.03-8.62,1.36-12.95.51-6.66.88-13.33,1.16-20,.03-.8-.79-2.32-1.29-2.35-5.29-.33-10.6-.66-15.89-.49-3.78.12-7.54.94-11.28,1.6-.76.13-1.89.86-2.01,1.47-.85,4.36-1.89,8.74-2.08,13.14-.33,7.64-.09,15.31-.09,23.66ZM206.93,783.04c.77,10.27,1.48,20.41,2.33,30.54.19,2.3.12,5.4,1.5,6.62,1.54,1.36,4.59,1.29,7,1.33,7.52.15,15.05.05,22.56.05-2.3-12.43,1.74-25.27-3.09-37.27-9.65-1.59-19.42-2.3-30.3-1.28ZM180.18,816.55c-.29-6.35-.56-12.93-.89-19.51-.08-1.57-.3-3.14-.54-4.7-.41-2.59-.75-5.21-1.41-7.74-.3-1.15-1.05-2.52-2.01-3.12-4.03-2.48-8.43-2.87-13.11-2.07-2.69.46-4,1.63-4.05,4.3-.06,3.2.05,6.41-.23,9.59-.5,5.62,1.65,9.59,6.11,13.11,5.26,4.15,10.27,8.48,16.13,10.14ZM398.78,816.44c6.9-1.7,12.15-6.92,17.8-11.59,2.94-2.44,4.52-5.25,4.38-9.05-.15-3.82-.42-7.64-.37-11.45.05-3.29-1.18-4.99-4.59-4.9-2.71.07-5.54-.37-8.11.25-2.2.53-5.38,1.85-5.92,3.53-1.39,4.34-1.78,9.05-2.16,13.65-.54,6.52-.71,13.06-1.04,19.56ZM402.33,748.34c0-6.64.06-12.8-.09-18.97-.01-.61-1.16-1.49-1.94-1.73-.97-.3-2.11-.06-3.18-.05-8.67,0-17.35,0-26.45,0v17.92c.5,0,1.04.09,1.55-.01,4.76-.94,9.35-.7,14.14.54,5.06,1.31,10.4,1.55,15.97,2.3ZM208.27,745.73v-17.83h-31.32v20.22c4.66-.46,9.27-.3,13.48-1.49,5.77-1.63,11.39-2.33,17.84-.9ZM300.03,710.77c-6.46-2.83-12.47-3.75-18.76-1.09-1.72.73-2.14,1.63-2.02,3.28.24,3.46-.66,7.12,2.02,10.08.11.12.41.1.62.11,4.64.07,9.28.13,13.91.18,2.46.03,3.54-1.02,3.5-3.67-.04-2.93.46-5.87.73-8.9Z" style="fill: #000; stroke-width: 0px;"/>
  <path d="M198.64,380.96c-8.26-1.12-16.89-1.09-24.68-3.63-11.71-3.82-23.25-9.02-30.39-19.96-3.58-5.48-6.05-11.69-9.03-17.56-1.24-2.45-2.6-4.85-3.75-7.34-6.67-14.52-9.04-29.81-7.81-45.68,1.5-19.42,7.64-37.54,15.96-54.95,5.1-10.67,11.61-20.39,20.58-28.42,4.72-4.23,8.65-9.33,12.85-14.12,1.84-2.1,3.69-2.32,6.23-1.25,2.41,1.02,5.15,1.24,7.62,2.16,9.54,3.59,17.49,9.62,24.83,16.55,3.4,3.21,6.63,6.64,10.24,9.6,9.04,7.39,15.31,16.7,20.21,27.18,4.71,10.09,9.79,20.02,14.89,29.93,2.38,4.64,3.99,9.29,3.72,14.64-.38,7.53.45,15.2-.68,22.59-1.93,12.58-7.38,24.01-13.13,35.37-3.92,7.75-8.51,14.73-14.72,20.64-8.82,8.4-21,13.82-32.82,13.46-.03.26-.07.51-.1.77ZM175.67,197.78c-7.34,9.54-17.33,17.83-24.33,29.59,4.63.83,8.63,1.75,12.69,2.22,3.14.36,6.34.22,9.51.16,1.97-.04,4.02-.29,4.92,1.94.93,2.32-.41,3.88-2.25,5.05-.79.5-1.7,1.13-2.57,1.15-5.06.07-10.13.1-15.19-.13-2.57-.12-5.11-.81-7.68-1.25.34,3.69.55,7.08,1.02,10.43.16,1.12.75,2.73,1.59,3.09,3.99,1.72,7.99,4.35,12.58,1.47.61-.38,1.47-.76,2.1-.62,1.43.31,3.43.58,4,1.57.58,1,.24,3.26-.58,4.22-1.93,2.27-4.38,4.07-7.73,3.74-3.74-.37-7.48-.66-11.09-.97v19.48c3.45,0,6.63-.18,9.78.09,1.14.1,2.74,1.07,3.11,2.03.38,1-.09,2.86-.89,3.64-1.04,1.02-2.72,1.75-4.2,1.9-2.79.29-5.63.08-8.61.08-.33,2.62-.63,4.99-.98,7.73,3.69,0,6.97.05,10.26-.02,2.63-.05,4.77.61,5.14,3.57.28,2.24-2.04,4.05-5.09,4.09-3.79.05-7.58.01-11.58.01-.42,2.63-.86,5.02-1.14,7.44-.05.47.4,1.14.81,1.5,3.59,3.21,6.46,7.38,11.76,8.25,2.42.39,3.73,2.38,2.58,4.45-.7,1.26-2.97,2.24-4.56,2.29-4.51.12-8.31-2.01-11.62-5.22-.35.79-.75,1.27-.75,1.75-.03,4.8-.29,9.63.1,14.4.4,4.92,5.11,8.61,10.16,8.77,3.97.12,7.16-1.71,10.2-3.87,1.78-1.26,3.55-2.33,5.4-.52,1.98,1.93.69,3.8-.74,5.31-3.67,3.86-7.78,6.96-13.52,6.75-1.44-.05-2.88,0-5.06,0,8.23,7.69,17.53,11.64,27.26,14.73,6.98,2.22,14.19,1.54,21.25.6,8.92-1.18,16.41-5.51,22.47-12.19,1.36-1.5,2.54-3.16,4-5-7.99-.42-13.9-4.09-19.33-8.69-1.67-1.41-2.43-3.36-1.02-5.41,1.4-2.04,3.51-2,5.45-1.09,2.4,1.13,4.58,2.72,6.96,3.9,1.68.84,3.56,1.87,5.31,1.79,1.3-.06,3.68-1.85,3.61-2.72-.43-5.47-1.37-10.91-2.25-16.34-.09-.59-.8-1.45-1.32-1.53-2.78-.42-5.64-.42-8.38-.98-3.77-.77-7.68-1.44-11.13-3.03-3.09-1.42-3.7-4.32-2.18-6.33,1.95-2.6,4.09-1.23,6.54-.52,4.57,1.31,9.34,1.94,14.66,2.97-.96-5.72-1.74-10.37-2.56-15.27-2.66,0-5.32-.16-7.95.04-3.47.25-6.19-1.19-8.7-3.3-1.8-1.51-3.48-3.12-1.77-5.66,1.75-2.6,4.11-2.09,6.14-.61,3.97,2.9,8.27,1.56,12.54,1.84v-18.05c-3.76,1.15-7.06,2.37-10.47,3.1-1.66.36-4.25.46-5.09-.49-.91-1.03-.69-3.56-.17-5.19.38-1.21,1.87-2.51,3.13-2.92,4.27-1.38,8.66-2.37,13.34-3.61.41-2.86.91-6.37,1.42-10.01-6.48-.14-10.2-3.86-13.28-8.39-.51-.75-.51-2.48.03-3.17.64-.83,2.12-1.42,3.2-1.37,1.17.05,2.28,1.01,3.44,1.51,2.67,1.14,5.36,2.24,7.87,3.29,2.2-2.76.22-4.18-.79-5.81-4.18-6.78-9.89-10.01-18.01-7.95-1.21.31-2.7.44-3.79-.01-1.29-.53-2.9-1.63-3.19-2.78-.22-.87,1.14-2.65,2.23-3.26,2.09-1.18,4.49-1.83,7.21-2.87-2.62-2.17-5.04-4.21-7.51-6.2-4.55-3.67-8.98-7.51-13.74-10.88-3.85-2.72-8.11-4.84-12.96-7.67ZM238.56,333.91c1.79-4.12,3.78-8.09,5.25-12.25,1.27-3.58,2.46-7.32,2.81-11.08.75-8.03,1-16.11,1.31-24.17.06-1.54-.26-3.22-.88-4.63-2.58-5.91-5.2-11.82-8.1-17.59-1.47-2.93-3.56-5.56-5.76-8.93-3.26,26.97-1.76,52.83,5.36,78.63ZM143.63,245.06c-.5.4-.8.54-.93.77-.41.73-.85,1.47-1.13,2.26-4.5,12.49-7.92,25.15-9.32,38.48-1.28,12.28.54,23.82,4.46,35.26.3.89.81,1.7,1.55,3.22,2-27.1,9.07-53.04,5.37-80Z" style="fill: #000; stroke-width: 0px;"/>
  <path d="M318.56,293.29c-2.07-10,3.41-19.03,8.26-28.32,4.87-9.32,9.42-18.81,14.08-28.25,3.45-6.99,8.33-12.84,14.08-18.04,6.08-5.5,11.76-11.48,18.19-16.51,5.48-4.29,11.63-7.82,17.79-11.12,3.39-1.82,7.35-2.69,11.15-3.52,1.24-.27,3.17.58,4.16,1.56,3.78,3.73,7.33,7.68,10.92,11.6,3.86,4.21,8.1,8.16,11.37,12.79,4.45,6.29,8.69,12.86,12.05,19.77,5.87,12.05,10.61,24.63,13.17,37.84,2.45,12.67,4,25.61,1.49,38.35-1.89,9.61-4.44,19.22-9.72,27.86-2.74,4.49-4.52,9.57-6.74,14.39-3.55,7.72-9.33,13.43-16.54,17.65-4.3,2.52-8.85,4.67-13.42,6.67-6.59,2.88-13.43,4.55-20.77,3.71-2.49-.28-5.08.42-7.62.45-10.95.13-20.55-3.45-29.16-10.22-7.95-6.25-14.17-13.69-18.15-23.05-2.03-4.78-4.54-9.36-6.76-14.07-5.73-12.14-8.66-24.87-7.81-39.54ZM356.23,272.63v17.78c5.03.21,9.55.66,13.63-2.33,1.74-1.28,4.12-.81,4.88,1.24.5,1.34.06,3.7-.89,4.77-2.37,2.65-5.4,4.42-9.28,4.15-2.73-.19-5.49-.04-8.13-.04-.82,5.04-1.59,9.69-2.54,15.55,5.75-1.35,10.65-2.34,15.43-3.71,2.1-.6,4.01-1.18,5.53.71,1.64,2.04.98,4.17-.78,5.68-1.41,1.21-3.15,2.43-4.91,2.77-4.71.91-9.49,1.53-14.27,1.92-2.18.18-2.96,1.01-3.24,3.01-.77,5.35-1.67,10.68-2.49,15.88,3.15,3.2,6.25,2.15,9.34.39,1.66-.95,3.23-2.05,4.9-2.98,4.13-2.31,6.46-2.21,7.88.25,1.29,2.24-.11,4.88-3.64,7.2-5.04,3.33-10.18,6.38-16.8,6.64,5.73,8.77,13.45,14.26,23.05,16.51,13.09,3.06,25.83,1.44,37.7-5.15,4.74-2.63,9.26-5.66,13.87-8.5-.15-.35-.3-.7-.45-1.05-1.45,0-2.91-.04-4.36,0-5.87.21-10.01-2.99-13.72-6.97-1.39-1.49-2.28-3.33-.49-5.07,1.86-1.8,3.55-.77,5.36.52,3.11,2.22,6.41,4.09,10.51,3.87,4.53-.24,9.21-3.67,9.62-8.09.43-4.61.03-9.3-.04-13.96-.01-.89-.17-1.78-.19-1.91-3.43,1.37-6.74,2.86-10.17,4.01-2.69.9-5.43.92-6.5-2.5-.67-2.15,1.26-4.21,5.11-4.96,4.8-.93,6.72-5.3,10.13-7.88.19-.14.26-.6.21-.89-.39-2.47-.81-4.93-1.24-7.46-4.07,0-7.76.04-11.45-.01-3.17-.04-5.21-1.66-5.05-4.08.21-3.15,2.49-3.59,5.04-3.57,3.37.02,6.73,0,10.37,0-.42-2.88-.76-5.25-1.13-7.81-1.26.16-2.33.51-3.34.4-2.81-.32-5.75-.44-8.32-1.45-1.14-.45-2.14-2.92-2-4.35.08-.86,2.44-1.95,3.87-2.12,2.81-.33,5.7-.1,8.9-.1,0-3.54-.09-6.83.02-10.1.12-3.35.43-6.69.68-10.38-1.59.58-2.68,1.31-3.76,1.31-4.15-.02-8.54.5-12.39-.66-4-1.2-5.42-4.72-3.93-6.77,2.24-3.1,4.9-1.41,7.41-.25,2.77,1.27,11-.64,12.71-2.99.18-.25.36-.56.38-.85.29-3.84.55-7.68.8-11.2-6.67.53-12.89,1.3-19.12,1.38-2.33.03-4.87-1.22-6.95-2.49-.99-.61-1.81-2.88-1.43-3.94.39-1.07,2.3-2.1,3.64-2.23,6.51-.64,13.05-.91,19.57-1.45,1.14-.1,2.23-.88,4.29-1.75-8.74-10.18-17.07-19.87-24.74-28.8-13.04,6.99-24.26,15.1-33.94,24.82,2.78,1.13,5.4,1.96,7.74,3.28.83.46,1.51,2.22,1.3,3.19-.2.95-1.49,2.05-2.52,2.35-1.38.4-3.04.4-4.44.04-9.01-2.31-14.69,2.12-18.93,9.3-.65,1.1-.45,2.69-.64,4.06.37.21.74.42,1.11.63,3.12-1.53,6.15-3.29,9.39-4.49,1.31-.49,3.08.25,4.63.43-.18,1.53.1,3.31-.61,4.53-2.78,4.79-7.19,7.29-12.75,7.65.62,3.75,1.19,7.18,1.78,10.76,1.15,0,2.11-.07,3.05.01,4.25.37,8.51.76,11.96,3.72,2.23,1.91,3.1,4.96,1.72,6.8-1.84,2.46-3.96,1.36-6.28.5-3.1-1.16-6.39-1.8-9.69-2.69ZM345.73,256.46c-.34-.13-.69-.27-1.03-.4-3.17,5.84-6.41,11.65-9.49,17.54-3.5,6.71-5.76,13.73-4.61,21.45,1.24,8.29,2.12,16.66,3.97,24.82,1.12,4.93,3.79,9.51,5.72,14.14,7.4-25.59,8.68-51.43,5.44-77.55ZM440.81,324.89c-.15.17.13,0,.21-.26,1.87-5.94,3.78-11.87,5.52-17.85.49-1.7.59-3.55.64-5.34.5-15.74-2.01-31.03-7.11-45.9-1.19-3.48-2.67-6.85-4.02-10.28l-1.12.26c0,2.08.02,4.17,0,6.25-.1,8.5-.97,17.07-.17,25.48,1.53,16,4,31.92,6.05,47.63Z" style="fill: #000; stroke-width: 0px;"/>
  <path d="M289.97,584.47c-2.46.58-4.32,1.19-6.23,1.45-7.14.95-14.2,1.69-19.88,7.12-4.74,4.53-10.61,5.51-16.83,3.09-3.85-1.5-5.44-4.27-5.09-8.4.04-.49-.06-1.04-.24-1.5-6.31-15.59-6.23-31.95-5.98-48.35.1-6.9-.26-13.83.11-20.71.56-10.29,1.3-20.58,2.49-30.81,1.69-14.57,5.78-28.62,10.57-42.43,3.57-10.3,7.79-20.38,11.12-30.75,4.4-13.69,10.69-26.77,13.18-41.07.54-3.12,2.83-4.6,5.19-3.89,2.2.67,2.83,2.88,2.12,5.81-1.48,6.05-2.33,12.29-4.19,18.21-2.95,9.38-6.69,18.51-9.79,27.85-5.06,15.25-10.1,30.52-14.73,45.9-4.88,16.22-5.22,33.09-6.11,49.83-.61,11.49-.83,23-.99,34.51-.17,12.03,1.11,23.9,4.21,35.59.79,2.99,2.44,3.94,4.76,2.68,3.87-2.11,7.44-4.78,10.21-6.61-.71-4.97-1.64-8.86-1.76-12.78-.26-8.32-.43-16.68-.01-24.99.53-10.69,1.67-21.32,5.13-31.6,1.2-3.56,3.81-5,6.84-5.94,2.46-.76,3.83,1.05,4.33,3.18,1.87,7.85,3.76,15.68,3.5,23.88-.23,7.15-.15,14.31-.02,21.47.13,7.16-1.6,13.88-4.41,20.38-.32.75-.54,1.54-.95,2.72,1.93,0,3.52-.17,5.06.04,2.67.37,5.3,1.37,7.95,1.37,2.66,0,5.31-.99,7.99-1.37,1.46-.21,2.97-.04,4.71-.04-1.15-3.64-2.41-7.07-3.29-10.6-.79-3.16-1.55-6.42-1.62-9.65-.21-9.61-.51-19.25.07-28.83.41-6.72,2.07-13.37,3.43-20,.52-2.54,2.93-3.16,5.35-2.16,2.93,1.2,4.64,3.05,5.67,6.19,2.7,8.25,4.3,16.65,4.57,25.29.31,10.12.58,20.24.51,30.36-.03,3.94.16,8.15-2.92,12.02,3.24,2.39,6.32,5.02,9.74,7.09,3.66,2.21,5.33,1.18,6.46-2.94,3.92-14.3,4.53-28.91,4.19-43.6-.24-10.21-.51-20.44-1.3-30.61-.95-12.15-1.49-24.46-3.95-36.34-4.1-19.8-10.63-38.95-17.96-57.86-4.62-11.91-9.6-23.83-11.62-36.62-.38-2.41-1.33-4.78-1.33-7.17,0-1.51.9-3.6,2.09-4.4,1.81-1.22,3.9-.27,4.68,1.82.96,2.57,1.34,5.34,2.19,7.95,2.55,7.86,5.13,15.71,7.85,23.51,5.54,15.87,11.32,31.67,16.72,47.59,2.48,7.32,4.99,14.74,6.3,22.32,2.07,11.91,3.34,23.97,4.53,36,.55,5.59.06,11.28.16,16.92.14,7.99.45,15.97.59,23.95.22,12.84-1.36,25.41-6.07,37.47-.19.48-.29,1.03-.27,1.55.21,5.58-2.84,8.33-8.26,9.44-6.57,1.35-10.96-1.77-15.5-5.47-1.59-1.3-3.51-2.51-5.47-2.99-4.59-1.12-9.31-1.7-13.95-2.64-1.5-.3-2.91-1.06-3.84-1.42ZM273,522.42c-4.49,16.75-2.94,33.92-3.35,50.96,7.37-16.55,3.96-33.84,3.35-50.96ZM309.04,572.45c.23-16.63,1.28-33.34-2.99-49.71-.64,16.66-3.71,33.45,2.99,49.71Z" style="fill: #000; stroke-width: 0px;"/>
  <path d="M110.3,318.08c.56.51,2.02,1.25,2.55,2.41,5.27,11.61,10.4,23.29,15.55,34.95.13.29.15.62.27.91.9,2.14.68,4.07-1.5,5.19-2.36,1.21-4.21-.05-5.4-1.97-1.45-2.33-2.73-4.8-3.79-7.33-3.96-9.45-7.83-18.93-11.66-28.43-1.28-3.17.22-5.77,3.97-5.72Z" style="fill: #000; stroke-width: 0px;"/>
  <path d="M449.53,358.5c1.14-3.28,1.91-6.16,3.11-8.84,4.39-9.82,8.9-19.59,13.44-29.35.94-2.02,2.75-2.8,4.8-1.95,2.01.83,2.83,2.5,1.95,4.7-1.64,4.11-3.21,8.24-4.95,12.31-3.18,7.47-6.42,14.91-9.75,22.32-.58,1.3-1.49,2.7-2.64,3.42-.98.61-2.74.77-3.77.29-1.02-.47-1.56-1.99-2.2-2.89Z" style="fill: #000; stroke-width: 0px;"/>
  <path d="M293.38,455.89c.71-9.83,1.43-19.66,2.12-29.5.07-1.03-.04-2.08-.1-3.12-.13-2.04,0-4.03,2.57-4.36,2.61-.33,4.24,1.15,4.29,3.61.15,6.79.16,13.59-.05,20.37-.16,5.08-.74,10.15-1.16,15.22-.17,2.01-.12,4.11-.77,5.97-.39,1.12-1.87,2.51-2.93,2.56-1.05.05-2.88-1.23-3.14-2.24-.71-2.74-.78-5.64-1.1-8.48.09-.01.18-.02.27-.03Z" style="fill: #000; stroke-width: 0px;"/>
  <path d="M276.05,431.48c.16-2.15.35-5.44.69-8.72.29-2.8,2.12-4.35,4.41-3.84,2.67.6,2.37,2.56,2.42,4.74.16,6.34.8,12.67,1.04,19.02.27,6.97.34,13.96.41,20.94.02,1.99-1.17,3.51-3.15,3.1-1.22-.25-2.25-1.7-3.23-2.74-.39-.42-.51-1.18-.55-1.8-.68-9.84-1.32-19.69-2.05-30.68Z" style="fill: #000; stroke-width: 0px;"/>
  <path d="M106.02,301.12c.99-8.51,1.92-17.03,3.04-25.53.18-1.4,1.04-2.79,1.84-4.02,1.07-1.65,2.89-2.3,4.36-.96.96.87,1.6,2.69,1.5,4.01-.31,4.09-1.1,8.13-1.61,12.21-.67,5.36-1.22,10.73-1.9,16.08-.12.92-.36,2.07-.98,2.62-.86.77-2.22,1.61-3.21,1.45-.98-.15-2.08-1.36-2.56-2.38-.46-.98-.21-2.3-.27-3.47-.07-.01-.14-.02-.21-.03Z" style="fill: #000; stroke-width: 0px;"/>
  <path d="M472.75,300.77c-.15.68-.2.79-.19.89.18,2.39.46,5.09-2.79,5.41-3.58.36-3.98-2.87-4.37-5.21-.77-4.58-1-9.26-1.52-13.89-.48-4.31-.91-8.64-1.65-12.91-.37-2.14-.42-3.89,1.83-4.77,2.22-.87,3.98.21,4.59,2.22,1.05,3.42,1.91,6.94,2.37,10.49.79,6.09,1.21,12.22,1.73,17.77Z" style="fill: #000; stroke-width: 0px;"/>
  <path d="M426,198.65c.92-1.17,1.67-3.04,2.71-3.21,1.65-.28,3.9.05,5.16,1.05,2.45,1.96,4.57,4.43,6.51,6.94,2.65,3.43,5.02,7.08,7.46,10.67.46.68,1.05,1.63.91,2.31-.29,1.41-.69,3.37-1.69,3.92-.99.54-3.33.13-4.13-.73-3.96-4.27-7.6-8.83-11.38-13.27-1.16-1.36-2.5-2.58-3.58-3.99-.75-.98-1.19-2.2-1.96-3.68Z" style="fill: #000; stroke-width: 0px;"/>
  <path d="M152.86,198.75c-.87,1.65-1.35,3.1-2.26,4.18-4.73,5.6-9.47,11.21-14.47,16.57-.85.91-3.62,1.37-4.35.73-1.03-.91-1.83-3.49-1.25-4.56,2.2-4.08,4.82-7.97,7.61-11.68,2.1-2.79,4.51-5.44,7.17-7.68,1.14-.96,3.37-1.24,4.91-.91,1.02.22,1.7,2.08,2.63,3.35Z" style="fill: #000; stroke-width: 0px;"/>
  <path d="M113.71,256.07c1.31-4.29,2.42-8.24,3.74-12.13,1.33-3.9,2.85-7.73,4.33-11.57.3-.78.78-1.52,1.27-2.21,1.35-1.92,3.16-3.19,5.42-1.83,2.25,1.35,1.81,3.31.9,5.58-2.6,6.48-4.85,13.1-7.33,19.63-.63,1.65-1.38,3.39-2.55,4.64-.66.71-2.45.98-3.44.62-.97-.35-1.55-1.75-2.34-2.72Z" style="fill: #000; stroke-width: 0px;"/>
  <path d="M453.33,227.86c.72.75,2.56,1.82,3.13,3.37,2.89,7.83,5.54,15.75,7.99,23.73.32,1.05-.83,3.57-1.63,3.73-1.29.26-3.33-.49-4.2-1.53-1.14-1.37-1.46-3.44-2.14-5.2-2.39-6.21-4.73-12.43-7.19-18.62-1.19-3,.05-5.46,4.03-5.48Z" style="fill: #000; stroke-width: 0px;"/>
  <path d="M303.81,492.53c.1.83.17,1.66.31,2.48.34,2.03-.2,4.04-2.3,4.14-1.42.07-3.71-1.1-4.22-2.3-1.04-2.46-1.3-5.29-1.57-8-.24-2.42-.14-4.89-.03-7.33.1-2.18,1.26-3.6,3.54-3.74,2.33-.15,3.71,1.25,3.92,3.34.38,3.78.4,7.59.58,11.39-.07,0-.15.02-.22.02Z" style="fill: #000; stroke-width: 0px;"/>
  <path d="M127.06,195.7c.5-2.7,1.69-4.43,4.61-4.53.68-.02,1.45-.75,1.98-1.34,1.46-1.64,3.26-2.4,5.05-1.06,1,.75,2.16,2.74,1.8,3.54-.6,1.36-2.29,2.28-3.61,3.27-.54.41-1.39.39-1.96.77-1.61,1.1-3.14,2.31-4.91,3.21-1.35,3.75-2.68,4.58-6.92,3.95-2.5-.37-3.05-2.19-3-4.19.06-2.64,1.85-3.54,6.95-3.63Z" style="fill: #000; stroke-width: 0px;"/>
  <path d="M448.64,199.73c-1.46-.99-2.88-2.05-4.39-2.96-.84-.51-1.94-.63-2.71-1.21-1.19-.89-2.87-1.91-3.08-3.1-.2-1.14.92-3.16,2-3.68,1.1-.53,2.92.09,4.31.56,1.4.47,2.78,1.19,3.93,2.11,1.4,1.11,2.55,2.54,4.33,4.36,1.88-.04,5.22-.8,5.67,3.42.24,2.19-.37,4.02-3.08,4.32-4.22.46-5.36-.27-6.3-4.25-.23.15-.46.29-.69.44Z" style="fill: #000; stroke-width: 0px;"/>
  <path d="M283.34,485.45c-.54,3.67-.78,7.43-1.79,10.97-.36,1.26-2.49,2.61-3.96,2.8-1.92.25-2.86-1.45-2.77-3.47.23-4.78.38-9.56.67-14.34.13-2.19,1.36-3.58,3.66-3.65,2.35-.07,3.51,1.39,3.83,3.49.2,1.36.04,2.77.04,4.15.1.01.21.02.31.03Z" style="fill: #000; stroke-width: 0px;"/>
  <path d="M102.95,255.75c-3.76.04-6.12-1.82-6.19-4.88-.07-2.96,1.84-5.32,4.29-5.31,2.18.01,6.2,4.07,6.3,6.34.09,2.38-1.55,3.81-4.39,3.84Z" style="fill: #000; stroke-width: 0px;"/>
  <path d="M476.21,255.74c-2.6.08-4.42-.83-4.5-3.73-.07-2.3,3.97-6.47,6.17-6.46,2.41.01,4.25,2.15,4.33,5.03.08,3.14-2.25,5.15-5.99,5.16Z" style="fill: #000; stroke-width: 0px;"/>
  <path d="M202.26,687.29c2.06.22,3.51,1.61,3.61,4.07.13,3.54-2,6.11-4.75,6.02-2.4-.08-4.47-2.4-4.42-4.97.05-2.72,2.47-5.13,5.57-5.12Z" style="fill: #000; stroke-width: 0px;"/>
  <path d="M377.59,697.38c-2.62-.07-4.72-2.94-4.56-6.24.11-2.14,2.13-3.96,4.28-3.84,2.7.15,4.96,2.62,4.91,5.34-.06,2.62-2.19,4.8-4.63,4.74Z" style="fill: #000; stroke-width: 0px;"/>
  <path d="M299.17,688.88c.03-3.25,1.53-4.84,4.53-4.78,2.6.05,4.36,1.84,4.33,4.41-.03,2.72-2.47,5.47-4.79,5.4-2.46-.07-4.1-2.09-4.07-5.02Z" style="fill: #000; stroke-width: 0px;"/>
  <path d="M279.89,688.92c0,2.77-1.85,4.97-4.21,4.99-2.49.02-4.71-2.57-4.67-5.43.04-2.78,1.59-4.36,4.29-4.38,2.89-.02,4.58,1.75,4.59,4.82Z" style="fill: #000; stroke-width: 0px;"/>
  <path d="M433.4,820.6c-.11,2.58-2.88,4.71-5.89,4.51-2.5-.17-3.91-1.5-3.94-4.03-.04-2.61,2.83-5.18,5.49-5.05,2.49.13,4.44,2.18,4.34,4.57Z" style="fill: #000; stroke-width: 0px;"/>
  <path d="M150.74,825.1c-3.07-.13-5.32-2.32-5.12-4.97.19-2.45,2.34-4.28,4.83-4.09,2.56.19,5.12,2.95,4.98,5.37-.13,2.28-2.07,3.81-4.69,3.7Z" style="fill: #000; stroke-width: 0px;"/>
  <path d="M477.26,340.86c-2.29-.06-4.4-2.34-4.26-4.62.16-2.47,2.75-5.05,4.97-4.93,2.33.13,4.22,2.47,4.14,5.16-.07,2.54-2.18,4.45-4.85,4.38Z" style="fill: #000; stroke-width: 0px;"/>
  <path d="M101.61,340.87c-2.66.06-4.7-1.84-4.79-4.45-.09-2.6,1.93-5.07,4.16-5.1,2.32-.03,4.81,2.5,4.9,4.98.09,2.44-1.85,4.53-4.28,4.58Z" style="fill: #000; stroke-width: 0px;"/>
  <path d="M111.34,230.94c-.02,2.62-1.63,4.46-3.94,4.5-2.56.04-4.86-2.34-4.79-4.97.06-2.22,2.13-4.31,4.31-4.36,2.48-.05,4.44,2.09,4.42,4.83Z" style="fill: #000; stroke-width: 0px;"/>
  <path d="M417.12,831.87c-.06,2.43-2.35,4.52-4.9,4.46-2.48-.05-4.72-2.36-4.61-4.74.1-2.28,2.47-4.23,5.14-4.23,2.45,0,4.43,2.04,4.37,4.51Z" style="fill: #000; stroke-width: 0px;"/>
  <path d="M166.07,827.37c2.8-.02,5.34,2.07,5.36,4.39.02,2.2-2.53,4.58-4.88,4.56-2.53-.02-4.65-2.15-4.64-4.66.01-2.41,1.83-4.28,4.16-4.3Z" style="fill: #000; stroke-width: 0px;"/>
  <path d="M312.58,599.83c-.86.61-2.16,2.24-3.65,2.44-2.96.4-5.95-2.48-5.81-5.09.13-2.37,1.6-3.68,3.91-3.84,2.3-.16,5.43,2.98,5.54,6.49Z" style="fill: #000; stroke-width: 0px;"/>
  <path d="M471.84,226.11c2.3-.07,4.55,2.15,4.54,4.48-.01,2.35-2.36,4.79-4.66,4.85-2.39.06-4.04-1.67-4.12-4.31-.09-2.86,1.67-4.94,4.24-5.02Z" style="fill: #000; stroke-width: 0px;"/>
  <path d="M271.75,593.33c2.35.01,4.09,1.74,4.04,4-.06,2.6-3.16,5.52-5.93,4.92-1.32-.29-2.91-2.06-3.26-3.45-.57-2.22,2.85-5.47,5.15-5.46Z" style="fill: #000; stroke-width: 0px;"/>
  <path d="M102.35,268.41c-.09,3.88-2.86,7.41-5.05,7.13-2.04-.26-3.19-1.53-3.16-3.72.04-3.47,2.14-6.42,4.68-6.2,2.13.19,3.52,1.41,3.52,2.79Z" style="fill: #000; stroke-width: 0px;"/>
  <path d="M230.72,514.13c-.02,2.43-2.04,4.48-4.41,4.48-2.56,0-4.52-1.96-4.4-4.4.11-2.29,2.36-4.43,4.64-4.41,2.33.02,4.2,1.96,4.18,4.33Z" style="fill: #000; stroke-width: 0px;"/>
  <path d="M484.87,273.18c-.75.53-1.96,1.93-3.41,2.28-2.06.49-4.96-3.49-4.81-6.23.13-2.27,1.46-3.56,3.68-3.6,2.42-.04,4.68,3.25,4.55,7.55Z" style="fill: #000; stroke-width: 0px;"/>
  <path d="M352.54,518.62c-2.37-.07-4.39-2.19-4.36-4.57.03-2.31,2.01-4.26,4.3-4.24,2.38.02,4.75,2.5,4.59,4.81-.15,2.27-2.18,4.07-4.53,4Z" style="fill: #000; stroke-width: 0px;"/>
  <path d="M217.11,678.48c.05,2.21-1.69,4.14-4.22,4.1-2.59-.04-3.9-1.48-3.99-4-.08-2.33,2.19-4.75,4.44-4.51,2.22.23,3.77,1.42,3.77,4.41Z" style="fill: #000; stroke-width: 0px;"/>
  <path d="M350.36,467.03c-.32,1.93-1.22,3.71-3.95,3.68-2.25-.02-4.21-2.26-4.22-4.75,0-2.26,1.85-4.15,4.02-4.1,2.32.05,4.22,2.24,4.15,5.17Z" style="fill: #000; stroke-width: 0px;"/>
  <path d="M236.8,465.78c0,2.61-2.09,4.95-4.3,4.93-2.69-.02-3.75-1.65-3.81-4.12-.07-2.75,1.68-4.82,4.08-4.71,2.56.11,3.71,1.76,4.02,3.9Z" style="fill: #000; stroke-width: 0px;"/>
  <path d="M370.12,678.99c-.38,2.02-1.49,3.62-4.13,3.6-2.44-.03-4.21-2.03-4.14-4.65.07-2.49,1.61-3.69,3.83-3.87,2.17-.18,4.45,2.35,4.44,4.93Z" style="fill: #000; stroke-width: 0px;"/>
  <path d="M281.13,597.36c-2.37-.31-3.54-1.7-3.52-4.09.02-2.46,1.37-3.74,3.75-3.83,2.57-.1,4.85,1.98,4.64,4.22-.27,2.92-2.6,3.27-4.88,3.7Z" style="fill: #000; stroke-width: 0px;"/>
  <path d="M466.53,218.39c2.61-.06,4.31,1.69,4.28,4.08-.04,2.57-1.41,3.93-3.95,4.02-2.23.08-4.37-1.88-4.1-3.96.3-2.32,1.66-3.87,3.78-4.14Z" style="fill: #000; stroke-width: 0px;"/>
  <path d="M297.55,589.43c2.32.03,4.05,1.81,3.88,4.12-.17,2.38-1.5,3.73-3.91,3.74-2.63.01-4.68-1.81-4.59-3.91.09-2.19,2.19-3.99,4.62-3.96Z" style="fill: #000; stroke-width: 0px;"/>
  <path d="M262.99,600.6c2.23.08,3.34,1.57,3.41,3.89.07,2.39-2.18,4.74-4.58,4.16-1.51-.37-3.23-1.99-3.82-3.47-.74-1.85,2.34-4.53,4.99-4.58Z" style="fill: #000; stroke-width: 0px;"/>
  <path d="M95.85,286.43c-2.41-.28-3.76-1.6-3.81-4.16-.05-2.58,1.33-4.01,3.77-4.28,2.23-.25,4.18,1.87,4.1,4.34-.08,2.51-1.45,3.88-4.06,4.09Z" style="fill: #000; stroke-width: 0px;"/>
  <path d="M315.93,600.61c2.6,0,4.97,2.14,5,4.32.04,2.5-1.51,3.69-3.76,3.85-2.56.18-4.49-1.78-4.55-4.28-.06-2.48,1.22-3.7,3.31-3.88Z" style="fill: #000; stroke-width: 0px;"/>
  <path d="M487.01,282.55c-.21,2-1.25,3.73-3.85,3.81-2.56.08-3.94-1.31-4.03-3.89-.09-2.57,1.63-4.54,3.9-4.51,2.16.03,3.92,1.89,3.99,4.58Z" style="fill: #000; stroke-width: 0px;"/>
  <path d="M106.57,345.07c2.16.14,3.58,1.48,3.56,4.05-.02,2.55-1.44,3.99-3.99,4-2.63.01-3.81-1.69-4.01-4.08-.19-2.28,1.66-3.99,4.44-3.97Z" style="fill: #000; stroke-width: 0px;"/>
  <path d="M478.62,239.35c-.02,2.79-2.25,5.21-4.54,4.6-1.38-.36-3.06-2.02-3.39-3.39-.59-2.45,1.95-4.68,4.5-4.6,2.44.08,3.28,1.6,3.43,3.39Z" style="fill: #000; stroke-width: 0px;"/>
  <path d="M269.61,675.89c-.05,2.66-1.99,4.6-4.27,4.63-2.24.02-4.03-1.84-3.81-4.15.23-2.38,1.39-3.98,4.04-3.99,2.59,0,3.88,1.35,4.05,3.51Z" style="fill: #000; stroke-width: 0px;"/>
  <path d="M100.42,238.91c.03-1.44.99-2.85,3.38-2.95,2.42-.1,5.11,2.32,4.5,4.63-.37,1.37-2.04,3-3.42,3.35-2.31.59-4.43-1.76-4.46-5.03Z" style="fill: #000; stroke-width: 0px;"/>
  <path d="M476.78,349.06c-.17,2.37-1.29,3.98-3.9,4.06-2.63.08-3.88-1.51-4.15-3.93-.24-2.27,1.52-4.1,3.89-4.11,2.57-.01,3.92,1.36,4.16,3.99Z" style="fill: #000; stroke-width: 0px;"/>
  <path d="M296.01,389.22c2.5-.01,4.79,2.37,4.89,4.66.09,1.96-1.86,3.91-3.92,3.73-2.64-.23-3.98-1.92-4.14-4.42-.16-2.41,1.19-3.73,3.16-3.97Z" style="fill: #000; stroke-width: 0px;"/>
  <path d="M112.26,218.39c2.3.18,3.97,2.25,3.67,4.7-.29,2.41-1.74,3.56-4.15,3.4-2.64-.17-3.67-1.99-3.82-4.28-.13-2.05,2.23-3.98,4.29-3.81Z" style="fill: #000; stroke-width: 0px;"/>
  <path d="M281.2,398.2c-1.04-1.35-2.61-2.56-2.99-4.07-.57-2.23,2.16-4.98,4.37-4.89,2.29.1,3.47,1.49,3.62,3.68.16,2.3-2.09,4.67-5,5.28Z" style="fill: #000; stroke-width: 0px;"/>
  <path d="M313.87,680.53c-2.63-.03-4.44-1.99-4.42-4.38.03-2.67,1.47-3.84,4.03-3.77,2.38.06,4.19,2,3.99,4.39-.19,2.36-1.63,3.56-3.61,3.76Z" style="fill: #000; stroke-width: 0px;"/>
  <path d="M233.75,481.9c-.17,2.11-1.29,3.71-3.88,3.8-2.43.08-3.82-1.2-3.87-3.63-.05-2.42,1.04-4.12,3.61-4.39,2.21-.23,4.04,1.56,4.14,4.23Z" style="fill: #000; stroke-width: 0px;"/>
  <path d="M252.31,670.12c.05,2.17-1.93,4.3-4.16,4.37-2.45.08-3.77-1.21-3.92-3.59-.15-2.29,1.78-4.27,4.11-4.38,2.26-.11,3.91,1.39,3.97,3.6Z" style="fill: #000; stroke-width: 0px;"/>
  <path d="M329.56,665.97c3.09.54,5.28,2.48,5.22,4.66-.07,2.32-1.19,3.82-3.71,3.87-2.45.05-4.85-2.09-4.32-4.39.35-1.51,1.83-2.77,2.81-4.14Z" style="fill: #000; stroke-width: 0px;"/>
  <path d="M349.17,485.74c-2.45-.19-3.88-1.4-3.85-4.03.03-2.47,1.65-4.21,3.9-4.04,2.6.19,3.77,1.9,3.79,4.27.02,2.36-1.33,3.72-3.85,3.8Z" style="fill: #000; stroke-width: 0px;"/>
  <path d="M254.31,605.35c-.26,2.3-1.57,3.63-3.93,3.58-2.33-.05-4.13-1.02-4.24-3.68-.09-2.15,2.15-4.14,4.47-3.94,2.35.2,3.54,1.64,3.7,4.04Z" style="fill: #000; stroke-width: 0px;"/>
  <path d="M348.77,665.02c1.99.3,3.32,1.6,3.39,3.95.07,2.11-2.07,4.18-4.11,3.95-2.29-.25-3.68-1.56-3.73-3.97-.04-2.23,1.84-4,4.45-3.94Z" style="fill: #000; stroke-width: 0px;"/>
  <path d="M99.88,301.65c-.24,3.46-1.13,5.22-3.81,5.25-2.45.03-3.68-1.37-3.72-3.74-.04-2.58,1.6-4.18,3.89-3.98,1.44.12,2.74,1.81,3.64,2.47Z" style="fill: #000; stroke-width: 0px;"/>
  <path d="M234.58,668.93c.04,2.33-1.68,4.18-3.94,3.99-2.31-.19-3.67-1.55-3.75-3.91-.09-2.45,1.34-3.74,3.63-3.98,2.28-.24,4.02,1.54,4.06,3.89Z" style="fill: #000; stroke-width: 0px;"/>
  <path d="M328.33,608.97c-1.95-.1-3.46-1.15-3.61-3.59-.14-2.25,1.7-4.25,3.88-4.05,2.28.2,4.09,1.23,4.25,3.83.13,2.14-1.76,3.8-4.52,3.82Z" style="fill: #000; stroke-width: 0px;"/>
  <path d="M483.34,306.95c-2.88-.04-4.15-1.64-4.27-3.79-.12-2.21,1.15-3.87,3.56-4.1,2.13-.2,4.01,1.74,4.02,4.02.02,2.45-1.36,3.62-3.31,3.87Z" style="fill: #000; stroke-width: 0px;"/>
  <path d="M384.22,841.67c-1.35,1.01-2.57,2.53-4.07,2.91-2.02.51-4.16-2.04-4.04-4.29.13-2.41,1.51-3.67,3.88-3.67,2.12,0,3.74,1.99,4.23,5.05Z" style="fill: #000; stroke-width: 0px;"/>
  <path d="M199.3,836.61c2.22.19,3.57,1.45,3.52,3.87-.05,2.49-1.56,3.9-3.93,4.2-1.85.23-3.85-1.99-3.76-3.9.1-2.25,1.95-4.16,4.17-4.16Z" style="fill: #000; stroke-width: 0px;"/>
  <path d="M386.25,707.22c-.71,3.03-1.75,4.74-4.16,4.83-2.31.08-3.8-1.29-4-3.68-.18-2.27,2.08-4.78,4.14-4.2,1.5.43,2.69,1.99,4.01,3.05Z" style="fill: #000; stroke-width: 0px;"/>
  <path d="M193.31,708.62c.01-2.73.96-4.35,3.44-4.56,2.04-.18,4.27,1.93,4.17,4.02-.12,2.3-1.39,3.91-3.76,3.97-2.39.05-3.61-1.5-3.84-3.42Z" style="fill: #000; stroke-width: 0px;"/>
  <path d="M297.26,411.13c-3.34-.45-5.16-1.79-4.65-4.01.32-1.41,2.18-3.02,3.68-3.49,1.79-.56,4.47,2.32,3.84,4.01-.56,1.49-2.1,2.61-2.86,3.49Z" style="fill: #000; stroke-width: 0px;"/>
  <path d="M232.03,496.15c-.44,3.39-1.81,4.65-4.15,4.62-2.3-.03-3.43-1.55-3.59-3.67-.14-2,2.33-4.41,4.17-3.77,1.51.53,2.67,2.06,3.57,2.81Z" style="fill: #000; stroke-width: 0px;"/>
  <path d="M486.85,291.44c-.27,2.07-1.14,3.62-3.57,3.65-2.2.03-4.15-1.8-3.83-3.81.33-2.08,1.6-3.6,3.85-3.56,2.22.04,3.54,1.31,3.55,3.72Z" style="fill: #000; stroke-width: 0px;"/>
  <path d="M354.6,497.08c-.21,2.29-1.36,3.75-3.8,3.7-2.22-.05-3.54-1.31-3.66-3.55-.13-2.44,1.29-3.91,3.56-3.95,2.24-.04,3.68,1.37,3.9,3.8Z" style="fill: #000; stroke-width: 0px;"/>
  <path d="M286.45,406.01c-.16,3.49-1.42,4.86-3.83,4.91-2.24.05-3.74-1.14-3.78-3.42-.04-2.39,1.66-4,3.79-3.84,1.47.1,2.84,1.72,3.81,2.36Z" style="fill: #000; stroke-width: 0px;"/>
  <path d="M287.94,381.98c-.2,1.96-1.21,3.45-3.58,3.43-2.3-.02-3.64-1.42-3.62-3.63.02-2.08,1.03-3.79,3.42-3.88,2.54-.09,3.57,1.52,3.78,4.07Z" style="fill: #000; stroke-width: 0px;"/>
  <path d="M298.2,381.99c-.24,2.01-1.29,3.48-3.65,3.42-2.29-.06-3.61-1.48-3.55-3.69.05-2.09,1.09-3.76,3.48-3.81,2.56-.05,3.52,1.61,3.71,4.09Z" style="fill: #000; stroke-width: 0px;"/>
  <path d="M96.19,295.1c-2.92-.01-3.92-1.6-4.02-3.86-.09-2.18,1.27-3.4,3.29-3.5,2.39-.13,3.72,1.29,3.84,3.66.11,2.35-1.33,3.38-3.11,3.7Z" style="fill: #000; stroke-width: 0px;"/>
  <path d="M392.23,837.66c1.32-.92,2.75-2.68,3.95-2.54,1.29.16,3.08,1.93,3.39,3.29.49,2.19-1.41,3.78-3.45,3.53-1.39-.17-2.6-1.82-3.89-2.81,0-.49,0-.98.01-1.47Z" style="fill: #000; stroke-width: 0px;"/>
  <path d="M464,359.67c1.3-.94,2.7-2.72,3.88-2.59,1.27.14,3.02,1.92,3.34,3.27.5,2.14-1.26,3.81-3.36,3.53-1.39-.19-2.59-1.79-3.88-2.76,0-.48,0-.97.01-1.45Z" style="fill: #000; stroke-width: 0px;"/>
  <path d="M178.76,837.66c1.32-.92,2.56-2.42,3.99-2.63,1.97-.28,3.38,1.21,3.44,3.34.06,2.36-1.58,3.78-3.58,3.55-1.38-.16-2.58-1.82-3.86-2.8,0-.49,0-.98.01-1.46Z" style="fill: #000; stroke-width: 0px;"/>
  <path d="M460.69,210.36c-.74.56-1.89,2.06-3.29,2.34-2.23.45-3.79-1.25-3.5-3.37.18-1.32,1.61-3.27,2.75-3.48,2.05-.37,3.91.79,4.04,4.51Z" style="fill: #000; stroke-width: 0px;"/>
  <path d="M121.05,213.37c-.89-1.29-2.28-2.47-2.56-3.88-.51-2.53,1.55-3.95,3.6-3.65,1.21.18,2.88,2.25,2.98,3.56.09,1.25-1.61,2.62-2.52,3.94-.5,0-1,.02-1.49.03Z" style="fill: #000; stroke-width: 0px;"/>
  <path d="M115,361.11c-1.28.97-2.47,2.57-3.87,2.78-2.15.32-3.85-1.41-3.39-3.51.3-1.35,2.07-3.14,3.35-3.29,1.17-.14,2.58,1.64,3.88,2.58,0,.48.02.96.03,1.45Z" style="fill: #000; stroke-width: 0px;"/>
  <path d="M97.32,330.01c-.88-1.29-2.23-2.48-2.54-3.9-.45-2.06.9-3.42,3.07-3.51,2.33-.1,3.81,1.39,3.59,3.45-.15,1.39-1.69,2.63-2.6,3.94-.51,0-1.01.01-1.52.02Z" style="fill: #000; stroke-width: 0px;"/>
  <path d="M480.02,329.95c-.85-1.34-2.27-2.61-2.42-4.02-.23-2.19,1.4-3.46,3.65-3.31,2.15.15,3.45,1.65,3,3.62-.32,1.4-1.78,2.54-2.73,3.8-.5-.03-1-.06-1.5-.09Z" style="fill: #000; stroke-width: 0px;"/>
  <path d="M185.68,285.85c0,2.88.03,5.76-.01,8.64-.03,2.08-1.01,3.62-3.2,3.61-2.19,0-3.03-1.51-3.17-3.63-.35-5.37-.95-10.72-1.22-16.09-.17-3.49,1.27-5.2,3.78-5.17,2.4.03,3.76,1.88,3.81,5.28.03,2.45,0,4.9,0,7.36Z" style="fill: #000; stroke-width: 0px;"/>
  <path d="M393.38,285.87c0-2.77-.02-5.54.01-8.31.03-2.43,1.01-4.24,3.67-4.31,2.69-.08,3.85,1.81,3.88,4.14.04,3.17-.3,6.35-.53,9.52-.18,2.42-.51,4.83-.64,7.25-.12,2.18-.85,3.93-3.23,3.94-2.39,0-3.2-1.7-3.17-3.92.04-2.77,0-5.53.01-8.3Z" style="fill: #000; stroke-width: 0px;"/>
</svg>