<?xml version="1.0" encoding="UTF-8"?>
<svg id="Layer_1" data-name="Layer 1" xmlns="http://www.w3.org/2000/svg" viewBox="0 0 700.66 900">
  <path d="M609.29,247.73c.74.86,1,1.28,1.37,1.58,9.57,7.69,13.85,17.94,14.51,29.96.47,8.58-.22,17.05-4.02,24.86-1.54,3.18-4.04,5.95-6.38,8.67-1.05,1.22-1.15,1.87-.15,3.07,10.28,12.26,10.71,26.21,6.2,40.59-3.33,10.59-14.07,16.76-26.25,16.09-3.15-.17-3.17-.12-3.03,2.98.31,6.59,2.55,12.31,7.14,17.16,8.69,9.19,11.85,20.51,12.1,32.83.09,4.54-1,8.87-3.76,12.57-3.15,4.23-7.29,6.32-12.68,5.31-.47-.09-.95-.08-1.81-.15.17,1.2.31,2.21.47,3.22.66,4.24.49,8.36-1.53,12.29-4.31,8.37-14.52,10.63-21.8,4.67-4.47-3.66-7.71-8.32-9.97-13.64-.31-.72-.62-1.43-1.2-2.75-.47,1.41-.64,2.21-.99,2.91-1.19,2.33-1.99,5.11-3.79,6.83-2.75,2.63-3.27,5.52-2.87,8.93,1.15,9.81,1.83,19.7,3.56,29.4,2.66,14.97,10.68,26.79,23.14,35.49,4.52,3.16,9.25,6.01,13.91,8.97,16.65,10.57,26.57,25.71,30.19,44.98,1.24,6.61.34,13.16-2.27,19.39-.51,1.21-1.61,2.18-2.45,3.25-.45.57-1.14,1.05-1.34,1.69-.84,2.7-2.85,3.68-5.34,3.37-4.71-.58-9.39-1.46-14.07-2.23-.62-.1-1.23-.32-2.35-.63.36,1.19.61,1.99.85,2.8.89,3,2.03,5.95,2.61,9,2.45,12.95-5.19,26.32-17.53,30.92-6.23,2.32-12.47,1.67-18.72.09-3.26-.82-3.37-.8-3.36,2.55.06,21.43,4.75,41.81,13.84,61.21,3.63,7.75,7.51,15.43,10.53,23.43,7.55,19.93,6.16,39.48-3.93,58.25-5.16,9.6-13.07,16.25-23.5,19.65-11.18,3.64-21.44.67-28.83-8.46-2.47-3.05-4.37-6.56-6.52-9.88-.47-.72-.85-1.5-1.28-2.25-.22.04-.44.08-.67.13,0,1.01-.02,2.01,0,3.02.29,13.02-4.05,24.27-13.19,33.53-2.05,2.08-4.54,3.87-7.11,5.26-7.17,3.87-14.49,2.78-19.57-3.59-3.39-4.25-5.66-9.39-8.4-14.15-.43-.75-.68-1.6-1.64-2.41-.22.89-.49,1.77-.66,2.67-3.71,19.2-9.06,37.87-19.34,54.7-3.45,5.65-7.73,10.85-12.11,15.83-2.22,2.52-5.3,4.5-8.33,6.05-8.39,4.29-16.58,2.39-22.55-4.93-5.8-7.11-8.47-15.54-10.09-24.4-.15-.84-.36-1.67-.68-3.13-1.02,1.25-1.58,2.03-2.23,2.72-2.59,2.75-4.95,5.79-7.87,8.14-5.15,4.13-11.15,3.9-16.4-.11-3.62-2.77-6.06-6.47-8.06-10.49-3.64-7.31-5.54-15.13-6.93-23.12-.3-1.7-.9-3.34-1.37-5.02-.35,0-.69,0-1.04-.01-.46,1.59-1.08,3.14-1.36,4.76-1.35,7.82-2.96,15.62-6.74,22.65-2.07,3.85-4.67,7.65-7.82,10.64-5.21,4.96-11.67,4.95-17.29.43-2.66-2.14-4.81-4.93-7.16-7.46-.76-.82-1.39-1.76-2.54-3.24-.36,1.7-.58,2.69-.76,3.68-1.48,8.11-3.97,15.84-8.91,22.56-6.99,9.49-16.78,11.19-26.64,4.69-7.27-4.79-12.31-11.59-16.75-18.88-9.82-16.12-15.44-33.8-19.27-52.14-.45-2.15-.87-4.3-1.94-6.59-.38.82-.71,1.67-1.15,2.47-2.43,4.38-4.43,9.09-7.43,13.03-5.97,7.83-14.7,9.1-22.72,3.38-12.05-8.61-17.56-20.78-18.1-35.38-.06-1.68,0-3.37,0-5.05-.21-.06-.42-.13-.63-.19-.43.72-.82,1.46-1.29,2.15-2.52,3.75-4.69,7.82-7.67,11.16-7.75,8.69-17.49,10.72-28.35,6.99-11.92-4.09-20-12.44-25.07-23.79-8.84-19.76-8.29-39.54.32-59.19,4.06-9.28,8.83-18.27,12.56-27.67,6.59-16.62,9.94-33.96,9.75-51.91-.03-3.09-.12-3.11-3.12-2.33-8.16,2.11-16.12,2.38-23.59-2.4-10.84-6.94-15.57-19.03-12.2-31.56.76-2.84,1.81-5.59,2.9-8.89-1.2.36-2,.69-2.82.83-4.69.74-9.38,1.57-14.1,2.09-2.3.26-4.18-.78-4.91-3.25-.11-.38-.27-.85-.56-1.07-5.5-4.16-5.53-10.45-5.87-16.32-.57-9.74,2.59-18.67,7.3-27.08,6.16-10.99,14.15-20.19,25.4-26.31,3.68-2,7.15-4.41,10.63-6.76,13.53-9.15,22-21.77,24.59-37.87,1.64-10.22,2.29-20.61,3.16-30.94.12-1.4-.9-3.01-1.69-4.35-2.01-3.42-4.18-6.75-6.29-10.13,0,.01-.37.48-.57,1.01-1.82,4.78-4.7,8.87-8.24,12.5-4.45,4.57-9.72,6.6-15.92,4.15-6.34-2.5-9.36-7.59-9.69-14.24-.13-2.6.35-5.23.57-8.06-.5-.03-1.04-.15-1.55-.09-6.25.77-10.87-1.6-13.9-7.14-2.74-5-3.02-10.39-2.38-15.87,1.25-10.83,4.86-20.65,12.63-28.63,4.64-4.77,6.19-10.73,6.47-17.17.07-1.73-.52-2.1-2.28-2.2-3.91-.21-7.93-.41-11.67-1.45-8.31-2.33-13.93-7.86-16.05-16.27-3.51-13.95-3.05-27.34,6.94-38.94.81-.93,1.15-1.73-.03-2.69-5.18-4.22-7.68-9.98-9.17-16.27-2.06-8.72-2.09-17.48-.2-26.23,1.79-8.27,6.08-15.05,12.48-20.53.56-.48,1.1-.99,1.63-1.5.09-.09.07-.31.14-.64-.34-.21-.7-.55-1.12-.68-3-.89-6.02-1.72-9.02-2.61-6.29-1.86-11.99-.56-16.88,3.62-3.87,3.31-7.38,7.05-11.11,10.53-2.58,2.41-5.04,5.06-7.97,6.96-6.91,4.5-14,2.54-18.01-4.66-2.92-5.23-3.91-11-4.4-16.86-1.02-12.14.31-23.9,6.58-34.65,4.87-8.36,11.64-14.47,21.26-16.91,1.53-.39,2.16-.95,1.26-2.56-5.95-10.64-3.3-19.61,4.74-27.46,1.22-1.19,2.33-2.51,3.74-4.04-.97-.51-1.89-1.15-2.9-1.51-8.8-3.13-17.69-3.63-26.68-.84-2.91.9-5.81,1.86-8.78,2.51-4.55.99-8.46-.39-11.66-3.76-10.43-10.97-12.98-31.24-5.55-44.41,3.54-6.28,8.49-10.69,16-11.42,2.02-.2,1.87-1.38,1.54-2.8-1.74-7.4-1.58-14.71,1.06-21.9,1.85-5.05,4.58-9.54,8.91-12.81,7.78-5.88,16.11-5.45,24.54-1.65,7.61,3.43,13.49,9.05,18.64,15.49.64.8,1.31,1.58,1.96,2.36.3-.04.59-.09.89-.13.25-2.21.98-4.5.63-6.61-.62-3.7-1.87-7.3-2.94-10.92-1.74-5.91-4.3-11.69-5.17-17.71-1.67-11.63,1.71-22.08,10.04-30.57,8.88-9.05,22.27-8.37,30.5,1.35.67.79,1.35,1.58,2.22,2.62.71-1.03,1.21-1.75,1.72-2.47,2.46-3.53,5.51-6.34,9.63-7.81,6.74-2.4,13.89.98,16.91,8.15,1.05,2.48,1.58,5.19,2.34,7.79.22.74.4,1.49.76,2.81.88-1.06,1.41-1.64,1.87-2.27,3.38-4.57,6.83-9.09,10.1-13.74,4.86-6.9,11.46-9.4,19.6-7.91,7.57,1.38,13.66,5.2,17.76,11.82,1.05,1.7,1.72,2.13,3.54.75,7.34-5.51,15.42-5.82,23.63-2.42,5.22,2.16,7.74,6.7,8.91,12.03,1.37,6.23.84,12.45-.17,18.67-.25,1.51-.48,3.02-.73,4.57,5.61-.27,11.92-6.12,12.82-11.9.44-2.84.45-5.74.59-8.62.55-12.13,10.27-20.24,22.38-18.63,6.44.86,10.46,4.79,13.04,10.47.37.82.72,1.66,1.1,2.48.06.13.24.21.61.52.73-.64,1.53-1.29,2.26-2,4.32-4.22,9.25-7.43,15.08-9.11,9.29-2.68,16.6,1.82,18.13,11.35.49,3.05.22,6.23.26,9.35.01.96-.08,1.92-.14,3.34,1.03-.38,1.69-.57,2.3-.87,4.46-2.16,9.15-3.21,14.1-3.13,7.36.11,13.24,2.97,17.29,9.26.7,1.09,1.27,2.29,2.66.52,7.66-9.77,17.14-12.32,28.87-7.84,1.52.58,3,1.24,4.97,2.06,0-1.31-.03-2.23,0-3.15.16-3.69-.14-7.48.62-11.04,1.69-7.95,8.23-11.91,16.17-10.22,6.57,1.4,11.98,4.91,16.72,9.56.68.67,1.41,1.29,2.4,2.2.53-1.13.92-1.91,1.25-2.71,3.49-8.34,10.1-12.23,18.58-10.91,10.21,1.58,16.2,7.45,16.93,16.67.25,3.12.19,6.27.56,9.37.79,6.53,5.97,11.82,13.02,13.21-.14-1.04-.3-1.95-.38-2.87-.43-5.24-1.32-10.5-1.14-15.72.24-7.19,2.39-13.9,9.77-16.99,7.94-3.33,15.79-2.88,23.04,2.16,2.47,1.72,2.37,1.75,4.14-.84,5.45-7.97,13.1-11.84,22.67-11.73,5.52.06,10.02,2.49,13.35,6.9,3.68,4.86,7.25,9.8,10.88,14.7.53.71,1.1,1.38,2.04,2.55.41-1.3.65-2.09.91-2.87,1.08-3.18,1.74-6.6,3.35-9.49,4.15-7.46,12.82-9.32,19.7-4.24,2.85,2.1,5.1,5.02,7.76,7.71.17-.15.63-.46.97-.88,10.15-12.35,25.4-11.93,34.7,1.06,8.01,11.18,9.13,23.4,4.88,36.24-1.45,4.38-3.28,8.62-4.87,12.95-1.42,3.87-1.94,7.83-.77,11.88.11.38.34.72.73,1.5.8-.89,1.44-1.54,2.01-2.25,5.07-6.4,10.87-11.92,18.29-15.55,14.01-6.86,27.26-1.95,33.35,12.37,3.17,7.46,3.62,15.15,1.92,23.02-.68,3.15-.66,3.12,2.37,3.59,7.99,1.22,12.83,6.38,16.01,13.29,5.76,12.49,3.76,24.57-2.38,36.32-.84,1.6-1.83,3.13-2.91,4.58-3.58,4.79-8.31,6.57-14.14,5.06-2.63-.68-5.21-1.54-7.81-2.35-8.4-2.62-16.75-2.2-25.05.41-1.45.45-2.81,1.18-4.63,1.97.89.94,1.42,1.51,1.96,2.07,1.6,1.65,3.32,3.21,4.8,4.97,6.13,7.3,6.91,15.22,2.53,23.67-1.42,2.74-1.41,2.72,1.56,3.58,10.83,3.15,17.97,10.53,22.43,20.49,6.22,13.89,6.37,28.28,2.31,42.78-.59,2.11-1.6,4.17-2.78,6.03-3.76,5.96-10.15,7.64-16.31,4.18-2.33-1.31-4.45-3.12-6.41-4.97-3.83-3.62-7.43-7.47-11.21-11.16-6.32-6.16-13.61-7.99-22.02-4.85-2.43.91-4.97,1.53-7.89,2.42ZM369.55,610.36c.22.06.43.12.65.18,1.06-2.9,2.1-5.8,3.18-8.7,2.98-8.05,5.06-16.25,3.53-24.9-.36-2.03-1.04-4.18-2.17-5.88-5.72-8.62-7.87-17.88-5.41-28.01.79-3.28,1.61-6.61,2.98-9.67,3.55-7.88,7.32-15.66,11.2-23.39,4.48-8.92,5.04-18.1,2.57-27.65-1.82-7.05-5.68-12.92-10.16-18.48-1.11-1.37-1.79-2.9-.53-4.48,1.18-1.48,2.74-1.15,4.3-.56,6.73,2.55,11.75,7,14.49,13.68,5.48,13.37,5.15,26.69-.97,39.79-1.78,3.8-3.9,7.44-5.93,11.12-5.11,9.26-8.03,19.13-8.07,29.74-.02,5.69,1.73,10.91,5.47,15.28,3.82,4.46,8.73,4.6,12.93.55.59-.57,1.19-1.15,1.68-1.81,5.64-7.44,9.5-15.59,9.98-25.09.07-1.31.1-2.65.38-3.93.56-2.59,2.66-4.25,5.09-4.2,2.4.05,4.43,1.84,4.85,4.47.18,1.12,0,2.3.05,3.45.35,6.73.23,13.54,1.27,20.17.68,4.34,2.76,8.57,4.8,12.55,1.49,2.91,3.65,3.18,6.78,2.22,4.64-1.41,6.49-5.07,7.55-9.3,1.8-7.14,1.32-14.39,1.02-21.64-.33-7.82-.91-15.65-.69-23.45.43-15.17,4.61-29.03,15.3-40.44,5.08-5.42,8.41-12.01,10.93-18.94.78-2.16,1.01-4.63.99-6.95-.12-11.19-.66-22.38-.53-33.57.06-5.57,1.33-11.11,1.9-16.68.58-5.73-1.8-9.83-7.02-12.4-3.4-1.67-6.74-3.49-9.9-5.56-.93-.61-1.83-2.45-1.56-3.4.26-.96,1.94-2.03,3.08-2.14,2.26-.22,4.61.01,6.88.38,12.62,2.06,19.82,10.22,20.22,23,.1,3.12.02,6.29-.44,9.37-1.76,11.87-2.08,23.79-1.47,35.75.41,8.09,1.33,16.11,4.48,23.68,2.49,5.98,6.4,10.75,12.17,13.81,5.07,2.69,8.25,1.89,11.34-2.93,3.98-6.2,6.31-13.05,7.03-20.38.49-4.94-.94-9.47-3.81-13.51-1-1.41-2.19-2.68-3.19-4.09-3.16-4.42-6.37-8.81-9.36-13.34-1.9-2.88-1.26-6.25,1.11-7.99,2.47-1.81,5.83-1.22,8.14,1.48.75.87,1.38,1.85,2.06,2.78,1.98,2.73,3.84,5.57,5.97,8.19,6.06,7.44,13.47,12.87,23.15,14.46,7.43,1.22,12.3-2.89,12.77-10.43.28-4.42-1.1-8.37-3.84-11.71-2.87-3.49-5.99-6.8-9.19-9.99-6.35-6.33-10.61-13.81-12.81-22.48-2.44-9.62-3.71-19.38-4.23-29.3-.44-8.37-1.24-16.75-2.56-25.03-1.56-9.8-8.21-15.29-17.63-16.46-14.18-1.75-26.11,2.87-34.65,14.82-1.75,2.45-3.81,3.41-5.79,2.52-2.03-.92-2.84-3.07-2.15-5.96,1.01-4.25,3.29-7.77,6.71-10.39,1.94-1.49,1.8-2.51.47-4.36-4.71-6.56-6.98-13.93-6.67-22.05.27-7.04,2.24-13.66,5.13-19.99,3.25-7.12,6.81-14.09,10.12-21.18,3.32-7.09,5.54-14.47,5.21-22.41-.37-8.91-5.51-15.1-14.1-17.02-5.47-1.23-10.06.2-13.23,4.87-1.98,2.91-3.77,6.03-5.11,9.28-2.66,6.47-4.93,13.11-7.39,19.66-.4,1.07-.85,2.17-1.49,3.1-1.38,2.01-3.36,2.91-5.79,2.38-2.45-.53-3.78-2.24-4.22-4.62-.19-1.04-.02-2.15-.18-3.2-.67-4.55-1.12-9.15-2.18-13.6-.81-3.41-2.91-6.27-5.92-8.28-3.79-2.53-5.89-2.02-7.84,2.09-3.79,7.99-5.44,16.44-4.55,25.23.89,8.87,3.28,17.42,6.11,25.87,5.95,17.83,2.76,34.11-8.66,48.89-.86,1.11-1.62,2.4-2.73,3.16-.87.59-2.49.97-3.27.54-.78-.43-1.28-1.99-1.28-3.06,0-1.17.64-2.36,1.07-3.52,2.12-5.71,4.34-11.39,6.39-17.14,3.2-8.99,2.96-17.88-.58-26.8-2-5.04-3.36-10.32-5.1-15.47-.38-1.14-.95-2.33-1.76-3.19-6.01-6.37-9.91-13.95-12.66-22.15-4.59-13.69-6.63-27.59-2.33-41.75,1.58-5.19,3.55-10.28,5.62-15.3,3.48-8.41,2.22-16.47-1.36-24.42-2.17-4.81-6.01-6.9-11.25-6.91-5.18-.02-8.14,2.6-10.1,7.17-1.65,3.84-3.52,7.66-5.84,11.13-1.78,2.67-3.34,5.05-3.13,8.5.18,2.84-1.79,3.93-4.68,3.22-.6-.15-1.29-.16-1.88-.02-3.18.76-5.02-.53-4.75-3.9.22-2.82-.93-4.79-2.44-6.96-2-2.89-3.58-6.09-5.26-9.2-1.01-1.88-1.66-4-2.87-5.73-.94-1.35-2.31-2.71-3.79-3.32-6.58-2.69-13.19-.01-16.04,6.46-3.4,7.72-4.62,15.62-1.2,23.73.93,2.2,1.7,4.47,2.64,6.66,5.4,12.58,6.76,25.55,3.87,38.95-2.71,12.57-7.02,24.38-16.03,33.99-.75.8-1.24,1.94-1.6,3.01-1.7,5.07-3,10.29-5.01,15.24-3.79,9.34-3.81,18.6-.39,27.98.93,2.55,1.91,5.09,2.85,7.64,1.4,3.79,2.81,7.57,4.15,11.38.52,1.5.47,3.03-1.11,3.91-1.59.89-2.86.1-3.89-1.13-5.86-6.97-10.27-14.69-12.42-23.63-2.59-10.75-.65-21.02,2.62-31.33,2.18-6.86,3.87-13.96,4.94-21.08,1.43-9.42-.35-18.56-4.58-27.14-1.72-3.48-3.68-3.99-6.99-1.97-3.07,1.88-5.45,4.58-6.24,8.01-1.16,5.01-1.87,10.16-2.38,15.29-.36,3.7-1.71,6.21-4.55,6.79-3.03.61-5.51-1.03-6.86-4.66-2.22-5.94-4.16-12-6.63-17.84-1.78-4.22-4.02-8.29-6.45-12.18-1.9-3.04-4.91-4.8-8.66-5.01-9.18-.52-17.46,6.08-18.14,15.23-.35,4.68-.06,9.67,1.25,14.14,1.84,6.28,4.84,12.22,7.43,18.26,3.11,7.26,6.81,14.31,9.36,21.76,4.17,12.2,2.72,23.91-5.13,34.47-1.01,1.36-.67,2.1.51,3.04,3.66,2.89,6.29,6.5,7.28,11.15.59,2.79-.25,4.82-2.23,5.7-1.95.86-3.99.04-5.61-2.36-7.6-11.21-18.69-15.57-31.65-15.4-11.3.15-18.85,6.57-20.94,17.61-1.29,6.85-1.65,13.88-2.33,20.84-.71,7.29-1.11,14.61-2.01,21.88-1.81,14.65-7.54,27.35-18.92,37.24-2.57,2.24-4.65,5.12-6.62,7.94-2.08,2.97-2.91,6.43-2.61,10.1.61,7.41,5.44,11.31,12.77,10.23,5.59-.82,10.47-3.33,15.03-6.57,5.84-4.14,9.77-9.95,13.83-15.67,1.09-1.54,2.21-3.11,3.59-4.37,1.97-1.8,4.9-1.82,6.87-.39,2.01,1.46,2.79,4.13,1.84,6.65-.34.91-.84,1.8-1.41,2.59-3.76,5.2-7.53,10.4-11.37,15.54-2.92,3.91-4.61,8.27-4.33,13.11.45,8.06,3.09,15.49,7.58,22.19,2.62,3.91,5.52,4.62,9.85,2.67,4.72-2.13,8.65-5.43,10.88-10.04,2.2-4.55,4.19-9.39,5.14-14.32,2.53-13.18,2.43-26.54,1.29-39.89-.53-6.23-1.5-12.46-1.51-18.7-.01-8.16,2.88-15.2,10.35-19.56,4.96-2.9,10.34-4.2,16.08-4.08,1.68.04,3.2.43,3.72,2.22.53,1.82-.59,2.98-2.04,3.8-2.79,1.59-5.51,3.35-8.44,4.64-6.71,2.94-8.92,8.09-7.96,15.01.1.73.12,1.48.25,2.21,3.01,15.71,2.3,31.49.89,47.29-.13,1.51.08,3.18.61,4.59,2.87,7.6,6.52,14.8,12.07,20.84,8.87,9.63,13.45,21.17,14.17,34.01.55,10-.23,20.07-.2,30.1.02,6.4.13,12.84.81,19.2.29,2.71,1.62,5.69,3.39,7.77,3.41,4.01,9.1,5.64,12.33-.95,1.26-2.57,2.37-5.28,3.1-8.04,2.01-7.64,2.13-15.47,1.82-23.32-.04-1.06-.1-2.16.07-3.2.42-2.55,2.28-4.26,4.63-4.41,2.3-.15,4.47,1.33,5.15,3.79.37,1.33.42,2.76.49,4.15.51,10.03,4.45,18.71,10.88,26.21,4.74,5.53,10.65,4.97,14.83-1.08,3.52-5.08,4.87-10.79,4.36-16.89-.78-9.4-3.33-18.29-7.96-26.55-1.73-3.09-3.47-6.18-5.09-9.33-6.79-13.2-7.52-26.78-2.33-40.66,2.73-7.31,7.89-12.29,15.23-14.81,1.13-.39,3.25-.02,3.85.79.61.82.18,2.73-.3,3.96-.5,1.25-1.64,2.25-2.46,3.38-10.79,14.78-12.55,30.2-3.48,46.51,4.88,8.79,9.35,17.79,12.02,27.58,3.02,11.06,1.2,21.19-5.38,30.54-.78,1.11-1.47,2.46-1.66,3.78-.92,6.41-1.04,12.82,1.03,19.08,1.6,4.85,3.27,9.68,4.94,14.5.19.54.58,1.02,1.25,2.14,0-1.57-.01-2.38,0-3.18.04-2.63-.05-5.28.18-7.89.23-2.53,1.87-3.98,3.96-3.92,2.1.06,3.47,1.62,3.64,4.2.05.74.03,1.48.02,2.22-.1,4.7-.23,9.39-.31,14.09-.05,2.88,1.23,4.63,3.25,5.02-.64-3.83-1.51-7.76-1.87-11.75-.23-2.5,1.58-4.29,3.69-4.5,2.09-.21,3.99,1.25,4.46,3.76.32,1.68.16,3.45.39,5.16.19,1.39-1.46,3.69,1.83,3.72,3.39.03,1.79-2.36,2-3.83.26-1.87.16-3.8.59-5.62.48-2.03,1.99-3.3,4.16-3.17,2.31.13,3.66,1.69,3.78,3.87.11,2.02-.17,4.11-.56,6.11-.43,2.22-1.18,4.37-1.89,6.91,2.57-1.3,3.91-2.88,3.83-5.53-.16-5.02-.25-10.05-.32-15.07-.01-.98-.13-2.19.37-2.88.79-1.09,2.06-2.52,3.14-2.53,1.23,0,2.69,1.19,3.63,2.23.61.68.61,2.02.64,3.07.08,2.94.03,5.89.03,8.84ZM365.36,712.21c-.13.37-.23.53-.21.67.02.24.12.48.19.71,6.64,22.39,8.39,44.91,2.25,67.76-2.27,8.42-4.38,16.93-5.87,25.51-3.08,17.68-.93,34.98,5.2,51.78,1.12,3.07,2.66,6.05,4.46,8.78,2.76,4.16,5.18,4.21,8.43.48,1.35-1.55,2.59-3.22,3.65-4.97,5.94-9.78,10.88-19.92,12.46-31.47.59-4.3,1.82-8.54,3.08-12.7.8-2.65,3.19-3.92,5.54-3.59,2.43.34,4.27,2.4,4.4,5.22.08,1.72-.01,3.48-.33,5.16-.79,4.21-1.64,8.41-2.68,12.56-3.31,13.19-3.2,26.32,1.08,39.22,1.24,3.73,3.48,7.27,5.87,10.44,2.25,2.99,5.36,3.36,8.66,1.54,2.28-1.25,4.47-2.83,6.33-4.65,8.31-8.14,14.08-18.03,18.67-28.59,10.51-24.16,15.15-49.47,14.8-75.81-.35-26.06.22-52.06,6.22-77.66,1.21-5.15.99-10.63,1.45-15.96.15-1.69-.59-2.29-2.22-2.87-2.18-.77-4.51-1.9-6.05-3.55-2.5-2.68-4.9-5.67-6.48-8.95-7.94-16.48-11.21-33.52-5.15-51.45,1.28-3.8,1.92-7.65,1-11.66-1.83-7.94-4.61-15.46-9.22-22.24-1.5-2.21-2.98-2.26-4.52-.06-.51.73-.83,1.61-1.1,2.47-1.58,5.03-3.08,10.08-4.67,15.11-5.36,16.98-5.79,34.14-2.2,51.52,1.98,9.6,3.96,19.21,5.43,28.9,1.7,11.23,1.13,22.38-3.33,33.04-3.34,7.98-9.13,13.38-17.42,16.01-10.56,3.35-18.9.09-23.61-9.92-2.32-4.94-3.51-10.41-5.18-15.65-.28-.89-.44-1.82-.77-3.23-5.1,5.74-9.25,12.65-18.15,8.13ZM316.87,703.99c-.37,1.82-.61,3-.85,4.18-1.23,5.92-2.89,11.69-6.08,16.89-4.56,7.46-11.28,10.39-19.82,8.53-10.46-2.28-17.33-8.7-20.94-18.68-2.74-7.55-4.04-15.43-3.14-23.34,1.16-10.21,2.98-20.36,4.85-30.47,2.25-12.1,4.49-24.16,3.24-36.55-1.3-12.97-5.26-25.29-9.4-37.56-.1-.31-.25-.61-.43-.89-1.55-2.44-3.24-2.49-4.82-.13-3.95,5.88-6.47,12.37-8.43,19.15-1.42,4.92-1.47,9.72.24,14.56,6.01,16.99,3.01,33.32-3.91,49.25-1.49,3.43-3.79,6.55-6.03,9.58-2.03,2.76-4.74,4.74-8.24,5.54-.7.16-1.59,1.39-1.62,2.16-.12,2.71-.19,5.47.23,8.14,1.43,8.94,3.29,17.82,4.61,26.78,2.87,19.55,3.08,39.26,2.79,58.95-.33,21.99,2.9,43.35,10.11,64.11,4.77,13.72,11.02,26.67,20.73,37.65,2.42,2.74,5.35,5.15,8.42,7.14,3.65,2.37,7.07,1.84,9.62-1.68,2.37-3.28,4.52-6.97,5.74-10.8,3.87-12.19,4.02-24.6,1.16-37.09-1.36-5.93-2.53-11.92-3.36-17.94-.47-3.45,1.54-5.88,4.23-6.31,2.75-.44,5.15,1.21,6.09,4.58,1.06,3.8,2.11,7.65,2.66,11.55,1.28,9.13,4.52,17.53,8.96,25.5,2.04,3.66,4.24,7.27,6.78,10.6,3.4,4.46,6.1,4.27,9.2-.46,1.48-2.26,2.74-4.72,3.69-7.24,5.77-15.18,8.51-30.93,6.26-47.06-1.57-11.22-4.3-22.31-7.06-33.32-5.39-21.5-3.6-42.66,2.06-63.75.28-1.06.63-2.1,1.09-3.59-9.37,4.69-13.43-2.21-18.64-8ZM488.28,659.54c-.38.29-.58.36-.63.49-.26.69-.51,1.39-.73,2.1-1.77,5.82-4.24,11.39-8.36,15.83-2.59,2.8-3.08,5.31-2.5,8.94,1.5,9.47-.12,18.82-1.52,28.23-3.4,22.91-6.07,45.9-3.77,69.16,1.41,14.23,4.45,28,11.29,40.68,4.12,7.63,8.31,8.14,14.49,1.98,7.64-7.62,11.14-16.98,9.98-27.63-.93-8.57-2.84-17.04-4.28-25.56-.38-2.27-.8-4.55-.94-6.84-.17-2.76.82-5.1,3.53-6.22,2.68-1.11,5.17-.31,6.96,1.75,1.87,2.15,3.71,4.49,4.9,7.05,2.63,5.67,4.64,11.63,7.27,17.3,2.28,4.9,4.57,9.93,7.73,14.26,5.28,7.23,12.36,8.72,20.63,5.2,7.7-3.27,13.24-8.83,16.78-16.35,3.92-8.33,5.79-17.14,5.93-26.33.16-10.85-2.98-20.95-7.05-30.86-3.91-9.52-8.12-18.96-11.32-28.72-5.73-17.47-9.94-35.26-6.56-53.91.12-.65-.46-1.87-1.03-2.15-7.99-3.83-13.97-10.11-20.06-16.25-.47-.48-1.04-.86-1.89-1.54-.25,1.44-.32,2.43-.6,3.35-1.68,5.49-3.04,11.12-5.23,16.41-2.26,5.47-6.06,10-11.16,13.22-6.76,4.26-14.12,3.53-19.99-1.89-.6-.55-1.2-1.1-1.87-1.7ZM173.3,629.99c-1.04.96-1.65,1.49-2.21,2.06-5.98,6.03-11.88,12.14-19.7,15.92-.64.31-1.08,1.93-.94,2.84,1.58,10.21,1.31,20.36-.72,30.48-2.27,11.33-5.3,22.45-9.56,33.21-3.61,9.11-7.67,18.06-10.98,27.27-5.39,15.01-4.96,30.11.83,44.97,4.02,10.33,10.93,17.76,21.92,20.71,5.63,1.51,10.81.23,14.72-4.05,2.69-2.94,5.09-6.32,6.84-9.88,2.68-5.46,4.54-11.31,7.03-16.87,1.88-4.19,3.93-8.36,6.38-12.22,2.45-3.86,5.85-5,8.77-3.74,2.88,1.24,4.11,4.16,3.31,8.73-.85,4.87-2.14,9.66-2.86,14.55-.96,6.5-2.08,13.05-2.2,19.59-.18,9.73,3.93,17.92,11.13,24.43,5.26,4.75,9.08,4.28,12.59-1.82,2.37-4.11,4.31-8.54,5.92-13.01,5.13-14.27,7.11-29.14,6.97-44.21-.18-19.21-1.7-38.35-5.17-57.29-1.74-9.48-2.33-18.95-.5-28.49.15-.79-.25-1.98-.82-2.58-5.13-5.37-8.41-11.75-10.6-18.76-.23-.75-.52-1.47-.9-2.54-1.08.95-1.86,1.65-2.65,2.34-4.43,3.84-9.55,5.51-15.12,3.45-3.14-1.17-6.24-3.11-8.67-5.43-6.81-6.49-9.99-14.96-11.81-24-.34-1.67-.59-3.36-.99-5.64ZM613.12,604.54c0-4.07.2-8.02-.03-11.94-1.14-19.54-9.8-34.71-26.49-45.18-3.98-2.49-7.89-5.09-11.77-7.73-12.35-8.41-21.35-19.48-26.41-33.62-4.6-12.87-6.57-26.17-6.37-39.8.03-1.96-.36-2.86-2.57-2.7-4.85.34-9.49-.75-13.99-2.5-.72-.28-1.48-.46-2.65-.81,0,1.31.03,2.19,0,3.06-.41,9.75-3.13,18.86-8.24,27.13-5.22,8.45-12.69,10.77-21.94,7.27-.74-.28-1.49-.54-2.21-.8-.28.41-.48.59-.54.81-.12.39-.21.8-.24,1.21-1.36,16.22.23,31.96,8.04,46.56,3.34,6.24,7.24,12.18,10.62,18.4,9.27,17.04,16.63,34.76,18.83,54.28.1.88.67,1.91,1.35,2.48,4.99,4.17,10.02,8.29,15.13,12.32,7.48,5.91,16.19,8.68,25.54,9.64,5.63.58,10.09-1.68,13.58-6.06,4.47-5.6,5.48-11.91,2.78-18.36-2.53-6.04-5.85-11.76-8.92-17.57-1.07-2.03-2.55-3.85-3.63-5.88-1.44-2.7-.94-5.22,1.08-6.65,1.9-1.35,4.4-1,6.51.96.97.9,1.85,1.88,2.82,2.77,8.36,7.68,17.64,13.24,29.74,12.7ZM177.47,460.24c-1.21.41-1.95.77-2.73.92-4.5.85-8.99,1.87-13.53,2.35-2.08.22-2.87.54-2.79,2.78.29,9.02-.8,17.92-2.61,26.75-4.21,20.63-14.65,37.02-32.62,48.37-4.46,2.81-8.87,5.7-13.21,8.69-8.6,5.92-14.59,13.98-18.57,23.54-3.92,9.41-4.33,19.38-4.36,29.39,0,1.56.82,1.6,2.07,1.59,8.32-.09,15.66-2.95,22.14-8,3.05-2.37,5.84-5.07,8.74-7.63,2.15-1.9,4.63-2.22,6.52-.81,1.89,1.4,2.35,3.91,1.09,6.48-.54,1.1-1.25,2.13-1.9,3.18-2.2,3.58-4.7,7.01-6.52,10.77-2.07,4.27-3.94,8.73-5.15,13.3-2.5,9.42,5.9,23.01,19.45,20.56,9.69-1.75,18.55-4.99,26.04-11.61,3.94-3.49,8.2-6.62,12.2-10.05.83-.71,1.39-1.97,1.64-3.08,1.38-6.26,2.26-12.66,4-18.82,4.86-17.19,12.91-32.95,22.42-47.98,10-15.81,12.61-33.19,11.1-51.47-.07-.84-.38-1.65-.6-2.58-.79.25-1.26.38-1.72.55-10.42,3.98-17.9,1.49-23.41-8.23-4.62-8.14-7.27-16.93-7.5-26.36-.02-.72-.09-1.43-.17-2.61ZM350.21,71.27c-.4.36-.65.76-.99.87-1.11.34-2.46,1.08-3.32.72-.88-.37-1.5-1.78-1.87-2.86-.3-.89-.24-1.99-.05-2.94,1.39-6.65-1.12-12.49-3.73-18.3-3.1-6.92-7.38-8.85-14.53-6.29-2.19.79-4.34,2.09-6.09,3.63-4.76,4.18-7.03,9.85-7.53,15.95-.53,6.46-.61,13.01-.16,19.47.81,11.6.84,23.03-3.04,34.2-3.75,10.8-8.72,20.98-14.92,30.58-1.18,1.83-2.26,3.93-2.62,6.04-1.77,10.31-3.09,20.69-4.94,30.98-2.06,11.46-1.16,22.48,3.65,33.11.56,1.23,1.33,2.57,2.38,3.33,3.2,2.34,5.42,5.41,6.58,9.06,1.67,5.24,2.88,10.63,4.28,15.96.21.79.34,1.6.58,2.76.51-.62.73-.78.8-.99,4.61-13.56,6.59-27.24,1.65-41.16-1.65-4.66-3.63-9.2-5.31-13.85-4.71-13.03-1.61-24.87,5.97-35.78,8.52-12.26,30.38-11.12,36.78,2.75,1.45,3.14,2.99,6.24,4.54,9.33.46.91,1.07,1.75,1.88,3.05.82-1.3,1.45-2.12,1.9-3.03,1.51-3.02,3.03-6.04,4.41-9.12,6.38-14.24,28.83-15.34,37.37-2.42,7.57,11.45,10.28,23.61,5.02,36.83-.73,1.84-1.37,3.72-2.22,5.5-7.2,15.2-6.61,30.64-1.53,46.24.26.8.66,1.55,1,2.32.71-.87.79-1.66.99-2.42,1.46-5.48,2.77-11.01,4.47-16.41,1.11-3.5,3.36-6.37,6.41-8.58.88-.64,1.62-1.68,2.06-2.7,4.05-9.22,6.16-18.79,4.55-28.9-1.34-8.38-3.38-16.69-4.07-25.11-.73-8.89-3.75-16.48-8.33-24.07-10.54-17.45-16.37-36.22-13.69-57.05.77-5.99.4-12.17.12-18.24-.22-4.9-1.73-9.57-4.45-13.73-3.54-5.4-8.46-8.43-15.04-8.44-3.24,0-5.84,1.28-7.31,4.2-1.55,3.08-3.11,6.21-4.14,9.49-.86,2.75-1.08,5.74-1.35,8.64-.2,2.12.16,4.29-.04,6.41-.27,2.85-2.77,3.78-5.02,2.01-.37-.29-.7-.64-1.13-1.04ZM147.73,209.69c-.18-.88-.4-1.65-.49-2.43-.31-2.69-.86-5.39-.8-8.08.25-12.99,7.67-20.91,20.49-22.23.58-.06,1.53-1.07,1.51-1.62-.34-10.71-3.08-20.45-11.22-28.11-5.42-5.1-11.77-8.7-18.39-11.88-12.47-5.99-23.09-13.99-29.29-26.81-.61-1.25-1.45-1.32-2.8-1.22-2.9.21-6.05.67-8.7-.21-11.39-3.76-21.77-9.03-29.2-19.17-5.25-7.16-12.06-12.86-20.41-16.34-7.12-2.97-11.79-1.08-15.11,5.91-4.02,8.46-2.1,20.21,4.4,26.97,1.66,1.72,3.48,3.3,4.99,5.13,2.37,2.87,2.29,6.61.01,9.03-2.22,2.36-6.01,2.55-9.03.38-.86-.62-1.56-1.48-2.42-2.1-1.87-1.33-3.69-2.8-5.74-3.79-5.51-2.66-9.64-1.28-12.67,4.08-.76,1.35-1.47,2.8-1.86,4.29-2.42,9.21.35,17.25,6.03,24.42.71.9,2.86,1.28,4.15.99,2.96-.65,5.79-1.87,8.68-2.83,14.5-4.81,27.37-1.31,39.23,7.6.91.69,2.23,1.36,3.28,1.25,5.82-.58,10.85,1.37,15.66,4.31,7.15,4.38,12.51,10.64,17.78,16.98,9.58,11.52,18.84,23.35,30.78,32.64.76.59,1.59,1.3,2.48,1.48,2.72.55,5.48.87,8.67,1.34ZM552.86,209.66c3.13-.47,5.96-.85,8.76-1.34.6-.11,1.24-.5,1.69-.94,6.62-6.41,13.4-12.66,19.74-19.33,4.76-5,8.93-10.56,13.37-15.86,5.05-6.02,10.38-11.71,17.3-15.67,4.46-2.55,9.13-4.04,14.38-3.63,1.19.09,2.63-.72,3.68-1.49,11.38-8.37,23.73-11.91,37.65-7.7,2.99.91,5.91,2.07,8.89,3.02,3.45,1.09,4.36.77,6.44-2.24,2.85-4.13,4.76-8.66,5.42-13.65.68-5.15-.11-10.04-3.01-14.44-3.02-4.59-6.81-5.87-11.68-3.41-2.96,1.49-5.55,3.75-8.23,5.77-3.22,2.41-6.99,2.41-9.42-.13-2.36-2.47-2.36-6.22.16-9.2,1.38-1.63,3-3.05,4.49-4.59,6.62-6.81,8.7-18.26,4.9-26.91-3.23-7.37-8.18-9.36-15.56-6.19-7.51,3.22-13.47,8.48-18.81,14.52-2.51,2.84-4.85,5.84-7.51,8.52-6.99,7.01-16.14,10.01-25.23,12.94-1.82.59-4.12.22-6.07-.25-1.86-.45-2.71.08-3.5,1.63-5.03,9.95-12.67,17.36-22.36,22.71-4.4,2.43-8.91,4.65-13.34,7.01-14.16,7.57-22.53,18.9-23.02,35.39-.06,2.11.36,2.98,2.68,2.82,4.61-.31,8.56,1.44,11.86,4.59,6.19,5.91,8.2,13.31,7.43,21.61-.2,2.1-.72,4.18-1.12,6.43ZM228.61,475.83c-.19.2-.48.39-.6.66-2.36,5.32-5.45,10.13-9.53,14.33-.55.56-.55,1.97-.34,2.88.69,3.05,1.92,6,2.35,9.07,2.28,16.45-.63,31.99-8.67,46.53-1.91,3.46-4.01,6.81-6.09,10.18-8.54,13.87-15.97,28.26-20.53,43.99-3.62,12.49-4.26,24.98.22,37.42,1.75,4.86,4.16,9.35,8.08,12.83,4.24,3.76,8.38,3.71,11.65-.89,2.68-3.77,4.61-8.12,6.54-12.37,1.25-2.75,1.83-5.81,2.86-8.67,1.01-2.82,3.35-4.1,5.75-3.35,2.3.71,3.45,2.93,2.86,5.81-.55,2.66-1.36,5.27-1.87,7.94-2.31,11.97.9,22.51,8.58,31.77,1.97,2.38,3.35,2.39,5.05-.28,1.93-3.03,3.74-6.26,4.88-9.65,4.63-13.8,6.29-27.74,3.17-42.31-3.33-15.55.96-29.32,12.27-40.76.45-.46.6-1.87.24-2.39-2.73-3.98-4.34-8.4-4.71-13.13-.47-5.98-.69-12-.63-18.01.1-11.37.56-22.75-1.14-34.05-1.08-7.13-2.7-14.12-7.04-20.1-4.2-5.79-8.52-11.48-12.8-17.21-.08-.11-.28-.13-.54-.25ZM472.08,475.76c-3.63,4.76-6.82,9.36-10.45,13.57-4.31,4.99-7.55,10.52-8.65,16.96-1.23,7.2-2.26,14.49-2.56,21.78-.41,9.86.08,19.76-.04,29.64-.1,7.48-1.08,14.8-5.58,21.18-.3.43.2,1.69.66,2.33,2.61,3.65,5.87,6.96,7.9,10.9,4.96,9.64,6.73,19.91,4.08,30.67-3.57,14.48-1.11,28.47,3.58,42.23.97,2.85,2.46,5.58,4.1,8.13,2.15,3.34,3.52,3.35,6.01.2,7.55-9.59,10.57-20.32,7.77-32.42-.5-2.17-1.12-4.31-1.56-6.48-.63-3.03.51-5.34,2.87-6.04,2.47-.73,4.78.66,5.82,3.64.95,2.72,1.56,5.57,2.69,8.21,1.65,3.84,3.27,7.77,5.55,11.25,4.06,6.2,9.01,6.54,13.92.93,2.45-2.8,4.51-6.13,6.01-9.53,4.07-9.2,4.89-18.93,3.39-28.82-2.18-14.37-7.78-27.55-14.59-40.22-4.36-8.12-9.47-15.83-13.88-23.93-9.73-17.88-13.06-36.6-6.73-56.46.29-.9-.25-2.31-.83-3.21-2.67-4.12-5.51-8.14-8.26-12.22-.48-.72-.8-1.54-1.2-2.31ZM199.28,311.05c-.08-1.7-.17-3.01-.2-4.33-.28-12.18-5.43-21.42-16.12-27.62-5.26-3.05-10.29-6.54-15.22-10.1-6.21-4.48-12.18-9.29-18.34-13.84-1.05-.78-2.59-1.53-3.79-1.39-4.79.59-9.35-.3-13.91-1.5-10.48-2.75-20.58-1.55-30.35,2.93-10.04,4.6-16.02,12.09-16.62,23.43-.34,6.48.24,12.84,2.11,19.06.47,1.56,1.12,3.12,1.96,4.51,2.6,4.35,6.03,5.34,10.64,3.3,4.71-2.08,9.56-3.65,14.77-3.57,3.26.05,5.57,2.03,5.98,4.85.39,2.65-1.19,5.38-4.1,6.31-4.31,1.37-8.65,2.76-13.08,3.6-8.16,1.54-15.46,7.89-17.18,15.95-1.63,7.63-.71,15.14,2.59,22.2,2.86,6.14,10.96,9.61,17.38,7.5,1.6-.52,3.23-1.78,4.22-3.15,1.77-2.45,3.15-5.21,4.53-7.91,5.32-10.42,11.75-20.03,20.4-28.01,8.72-8.04,18.75-12.51,30.83-10.86,8.09,1.1,15.84,3.23,22.02,9.05,1.73,1.63,9.97-.18,10.72-2.44.26-.77.36-1.61.43-2.43.16-1.97.25-3.94.34-5.54ZM501.22,310.41s-.09.01-.13.02c.23,2.62.35,5.26.75,7.85.12.81.86,1.94,1.56,2.17,4.18,1.4,8.59,3.95,12.04-1.34,14.04-9.86,33.52-9.31,46.83,1.39,9.88,7.94,16.97,18.07,22.82,29.17,1.69,3.2,3.3,6.47,5.35,9.44.99,1.44,2.74,2.75,4.41,3.27,6.38,2.01,14.35-1.42,17.19-7.46,3.35-7.14,4.61-14.85,2.45-22.4-2.38-8.34-7.51-14.42-16.95-15.84-4.44-.67-8.77-2.21-13.09-3.56-2.24-.7-3.78-2.33-4.06-4.82-.41-3.66,2.09-6.35,6.14-6.37,5.29-.03,10.21,1.64,14.98,3.77,3.73,1.67,6.68,1.14,9.14-2.12,1.26-1.67,2.25-3.67,2.89-5.67,2.21-6.92,2.72-14.03,1.98-21.25-.91-8.88-5.43-15.38-13.13-19.73-10.5-5.92-21.59-7.53-33.39-4.77-4.12.96-8.42,1.39-12.66,1.58-2.16.1-3.91.39-5.7,1.68-11.06,8.02-21.91,16.36-33.38,23.76-10.01,6.46-15.4,15-15.86,26.79-.06,1.48-.14,2.96-.22,4.44ZM264.2,232.53c.55-.61.83-.81.96-1.09,3.03-6.41,7.63-11.06,14.54-13.24.44-.14.99-1.54.76-1.97-4.83-9.23-5.17-19.15-4.49-29.18.64-9.45,1.76-18.87,2.22-28.33.55-11.42.94-22.87.78-34.31-.11-7.7-2.12-15.15-5.94-21.99-2.88-5.16-7.28-7.11-13.02-6.47-8.48.94-14.61,6.09-16.54,14.69-1.02,4.55-1.15,9.3-1.66,13.95-.32,2.87-1.88,4.93-4.2,5.51-2.22.55-4.57-.41-6.12-2.76-1.12-1.71-1.91-3.64-2.97-5.41-3.08-5.14-5.92-10.47-9.43-15.31-3.51-4.85-8.47-6.83-14.61-5.12-1.51.42-2.08.9-2.39,2.47-2.49,12.56-.75,24.9,1.31,37.31,2.57,15.5,8.98,28.65,20.69,39.45,5.32,4.91,9.55,11.08,13.83,16.99,2.98,4.12,5.19,8.78,5.64,14.07.06.71,1.24,1.66,2.08,1.9,4.45,1.25,8.14,3.68,10.96,7.24,2.24,2.83,4.07,5.98,6.06,9,.48.73.9,1.51,1.54,2.6ZM436.13,232.63c.85-1.4,1.49-2.39,2.07-3.42,4.07-7.16,8.73-13.64,17.41-15.73.6-.14,1.12-1.24,1.39-1.99,1.17-3.31,1.88-6.84,3.42-9.96,4.78-9.66,12.08-17.41,19.74-24.81,7.24-7,12.07-15.38,14.52-25.11,1.02-4.07,1.9-8.18,2.7-12.3,2.25-11.72,3.38-23.49.87-35.32-.17-.82-.74-1.99-1.38-2.19-5.38-1.7-10.29-.93-14.2,3.43-1.7,1.89-3.44,3.83-4.72,6-2.67,4.53-5.06,9.23-7.55,13.88-2.12,3.95-4.56,5.65-7.35,5.05-2.89-.61-4.09-2.94-4.54-7.6-.44-4.57-.76-9.25-2.01-13.62-2.41-8.45-9.97-13.4-18.77-13.06-3.79.15-7.01,1.57-8.97,4.82-1.73,2.86-3.27,5.92-4.39,9.07-2.73,7.7-3.51,15.77-3.2,23.87.44,11.76,1.22,23.51,1.89,35.27.52,9.04,1.36,18.07,1.57,27.11.17,6.88-1.11,13.63-4.5,19.78-.82,1.49-.46,2.17,1.13,2.67,5.77,1.82,10.02,5.53,12.93,10.8.54.98,1.11,1.94,1.93,3.37ZM288.59,564.71c-1.62,4.38-2.87,8.2-4.45,11.88-1.48,3.46-3.66,6.62-7.18,8.2-2.65,1.19-2.73,2.47-1.78,4.9,8.3,21.28,10.46,43.03,5.38,65.48-2.09,9.23-3.48,18.62-4.88,27.99-1.52,10.14-1.2,20.22,2.38,29.99,1.57,4.28,4,7.94,7.93,10.43,8.47,5.38,15.2,3.51,18.74-5.79,4.16-10.95,6.31-22.15,1.94-33.73-1.62-4.28-.08-7.6,3.3-8.46,3.14-.8,6.27,1.47,6.78,5.83.91,7.75,5.03,13.84,9.39,19.85,3.61,4.99,4.51,4.88,7.11-.83,3.32-7.28,4.77-15.05,5.75-22.92,1.69-13.5-.77-26.3-7.19-38.24-6.92-12.86-11.73-26.48-15.29-40.59-1.44-5.7-2.32-11.47-1.26-17.37.08-.43-.11-.9-.2-1.51-13.2,2.89-20.32-5.01-26.45-15.11ZM385.89,579.96c-.46,5.58-.34,10.9-1.41,15.98-3.14,14.98-8.22,29.32-15.54,42.82-1.1,2.02-2.13,4.1-3,6.23-7.54,18.45-5.84,36.75,1.04,54.93.52,1.37,1.37,2.62,2.14,3.88.84,1.37,1.92,1.56,2.94.24,4.89-6.31,10.05-12.47,11.26-20.8.22-1.53.64-3.08,1.25-4.5,1.07-2.49,3.71-3.72,6.07-3.08,2.46.67,4.07,2.92,3.8,5.65-.13,1.37-.64,2.71-1,4.06-.62,2.3-1.67,4.57-1.81,6.9-.58,9.43.76,18.6,4.81,27.21,3.22,6.85,8.01,8.53,15.04,5.64,6.03-2.48,9.4-7.26,11.38-13.22,2.86-8.61,3.44-17.49,2.17-26.38-1.51-10.6-3.39-21.14-5.34-31.67-2.77-14.96-4.11-29.91-.15-44.84,1.83-6.92,4.03-13.75,6.18-20.58.48-1.54.41-2.38-1.22-3.07-3.5-1.47-5.97-4.18-7.53-7.53-1.56-3.34-2.68-6.89-3.98-10.35-.29-.78-.54-1.58-1.03-3.01-6.24,10.47-13.45,18.21-26.09,15.49ZM485.23,228.41c1.64-2.54,3.46-5.06,4.98-7.75,6.86-12.14,14.83-23.47,25.54-32.46,4.65-3.9,6.45-7.87,6.35-13.99-.23-15.39,4.87-28.94,16.43-39.63,5.64-5.22,12.35-8.74,19.18-12.04,9.27-4.49,17.02-10.66,22.03-19.84,1.06-1.94,1.95-4,2.59-6.11.85-2.8,1.85-5.69,1.92-8.57.14-5.8-4.92-9.83-10.5-8.21-3.21.94-6.22,2.91-9.02,4.85-2.76,1.91-5.1,4.42-7.7,6.57-2.66,2.21-6.03,2.41-8.17.62-2.24-1.87-2.67-4.97-.87-8.11,3.79-6.61,3.16-13.17-.31-19.55-4.83-8.88-15.83-10.86-23.56-4.43-8.15,6.78-12.26,15.73-13.88,26-.91,5.8-2,11.52-5.31,16.58-.41.63-.26,1.92.09,2.7,2.56,5.77,3.6,11.8,3.38,18.07-.11,3.29-.24,6.59-.61,9.86-.63,5.56-1.31,11.13-2.24,16.65-2.4,14.26-8.57,26.54-19.3,36.43-7.26,6.7-13.39,14.31-17.75,23.25-.5,1.03-1.02,2.13-1.12,3.23-.06.69.46,1.91,1.02,2.12,6.89,2.6,12.28,6.94,15.98,13.35.07.12.28.15.84.41ZM215.45,228.75c.66-.86,1-1.21,1.23-1.62,3.32-5.73,8.19-9.66,14.32-11.93,2.38-.88,2.62-2.19,1.78-4.14-.65-1.51-1.4-2.98-2.17-4.43-4.48-8.39-10.77-15.33-17.6-21.84-8.92-8.5-14.81-18.8-17.06-30.86-1.75-9.37-2.8-18.88-3.78-28.37-.73-7.14.33-14.14,3.34-20.76.3-.66.43-1.75.09-2.28-3.64-5.57-4.52-11.94-5.64-18.27-1.68-9.54-5.76-17.82-13.24-24.21-8.23-7.03-19.9-4.56-24.5,5.29-2.88,6.15-3.24,12.33.31,18.47,1.8,3.11,1.29,6.27-.96,8.08-2.24,1.8-5.42,1.57-8.14-.7-2.4-2.01-4.56-4.33-7.11-6.11-2.87-2-5.87-4.13-9.14-5.18-5.88-1.89-11.21,2.29-10.87,8.44.17,3.18,1.39,6.36,2.44,9.43,3.46,10.1,10.56,17.1,19.59,22.32,3.35,1.94,6.86,3.58,10.3,5.35,14.2,7.3,24.34,18.14,27.92,33.95,1.49,6.59,1.3,13.55,2.03,20.33.15,1.43.59,3.27,1.58,4.1,12.62,10.55,22.61,23.19,30.54,37.55,1.34,2.43,3,4.68,4.76,7.41ZM162.47,324.38c-.06-.21-.12-.42-.17-.63-4.02,1.08-8.24,1.69-12.03,3.32-9.34,4.02-16.61,10.71-21.85,19.37-2.97,4.91-5.3,10.23-7.72,15.46-.76,1.65-1.21,3.61-1.22,5.43-.08,12.08-2.99,23.07-11.07,32.47-6.39,7.43-8.66,16.55-9.3,26.08-.14,2.11.52,4.44,1.41,6.4,1.26,2.8,3.76,3.44,6.39,1.85,1.6-.96,3.11-2.21,4.32-3.62,1.6-1.86,2.87-4.01,4.29-6.02,1.55-2.19,3.92-3,6.01-2.08,2.01.89,3.1,3.04,2.56,5.6-.35,1.68-.91,3.35-1.61,4.91-1.52,3.38-3.53,6.58-4.69,10.07-.93,2.8-1.56,6-1.19,8.88.78,5.95,5.46,7.39,9.96,3.42,3.69-3.25,6.18-7.31,7.59-11.96,1.32-4.33,2.22-8.78,3.45-13.14,2.73-9.63,7.9-17.49,16.66-22.73,1.61-.96,3.19-2.12,4.44-3.49,6.29-6.91,11.17-14.47,10.54-24.41-.11-1.72.08-3.46.22-5.18.61-7.88.95-15.79,1.98-23.62.91-6.87,2.69-13.63,7.19-19.22,1.33-1.65,1.01-2.46-.71-3.36-4.85-2.55-10.05-3.61-15.46-3.81ZM581.33,368.99c-.31-2.01-.24-4.17-.99-6-1.75-4.26-3.78-8.41-5.89-12.51-4.62-9.01-11.33-16.12-20-21.35-9.7-5.85-19.77-6.13-30.07-1.78-4.11,1.74-4.05,1.81-1.53,5.53,4.09,6.04,5.79,12.97,6.55,20.01,1.03,9.56,1.57,19.19,1.98,28.81.26,6.22,1.67,11.87,5.93,16.55,2.8,3.08,5.27,6.75,8.68,8.93,9.08,5.81,14.49,13.9,17.15,24.11,1.02,3.9,1.86,7.86,3.05,11.7,1.56,5.04,4.2,9.49,8.4,12.83,3.89,3.1,7.83,1.96,9.06-2.86.55-2.14.61-4.66.05-6.78-.8-3.07-2.37-5.94-3.61-8.89-1.18-2.8-2.54-5.54-3.49-8.42-1-3.01.11-5.53,2.42-6.48,2.34-.96,4.69.09,6.38,2.8.78,1.26,1.47,2.61,2.45,3.69,1.59,1.75,3.23,3.56,5.15,4.91,3.1,2.18,5.98,1.33,7.34-2.22.77-2.01,1.2-4.36,1.02-6.49-.83-9.42-3.19-18.38-9.59-25.71-7.61-8.72-10.28-19.11-10.44-30.38ZM492.96,318.98c-.15-5.35-.38-10.84-.44-16.34-.14-14.41,6.25-25.15,18.17-33.07,10.08-6.7,20.01-13.65,29.73-20.86,6.13-4.55,11.89-9.63,17.55-14.77,2.95-2.69,4.82-6.29,5.19-10.41.19-2.14.44-4.83-1.77-5.72-1.5-.6-3.98-.04-5.47.89-3.89,2.45-7.47,5.38-11.17,8.12-1.52,1.12-2.97,2.37-4.6,3.31-1.95,1.13-4,.96-5.77-.51-1.79-1.49-2.15-3.5-1.43-5.61.44-1.31,1.14-2.55,1.85-3.75,1.92-3.26,4.04-6.42,5.85-9.74,2.74-5.03,2.81-10.25.52-15.48-2.91-6.66-5.76-7.39-11.38-2.85-10.84,8.75-20.25,18.82-28.16,30.31-3.6,5.22-7.43,10.3-13.26,13.4-.61.32-1.08,1.62-1.01,2.4.71,7.38-.48,14.5-3.17,21.33-2.24,5.67-5.02,11.12-7.22,16.8-2.67,6.89-5.44,13.8-7.35,20.92-2.27,8.44.44,16.29,4.77,23.59.4.67,1.61,1.38,2.3,1.26,5.41-.95,10.79-2.09,16.28-3.19ZM207.16,318.96c5.44,1.05,10.55,1.89,15.58,3.07,1.92.45,2.86-.02,3.77-1.62,4.58-8.06,6.51-16.53,3.94-25.66-1.01-3.56-2.09-7.13-3.51-10.54-2.99-7.14-6.32-14.14-9.35-21.26-3.36-7.9-5.37-16.08-4.45-24.79.08-.79-.69-1.87-1.37-2.49-2.83-2.6-6.07-4.81-8.6-7.67-3.21-3.62-5.89-7.72-8.78-11.63-7.15-9.69-15.74-17.94-25.16-25.36-3.7-2.91-6.06-2.44-8.53,1.56-3.39,5.49-4.1,11.31-1.17,17.18,1.69,3.38,3.87,6.51,5.75,9.79.89,1.56,1.81,3.17,2.34,4.87.63,2.02.1,3.95-1.65,5.32-1.65,1.29-3.51,1.38-5.36.52-.96-.45-1.85-1.07-2.69-1.73-2.79-2.18-5.47-4.51-8.33-6.59-2.12-1.54-4.34-3.03-6.71-4.12-3.31-1.52-5.19-.26-5.55,3.41-.34,3.43.48,6.73,2.64,9.29,3.11,3.7,6.36,7.39,10.08,10.43,6.96,5.67,14.21,10.97,21.5,16.21,6.75,4.85,13.75,9.37,20.57,14.13,9.99,6.97,15.36,16.56,15.7,28.79.14,5.01-.09,10.04-.22,15.06-.03,1.29-.29,2.58-.45,3.83ZM233.48,106.89c.6-1.37.85-2.03,1.17-2.65,1.45-2.85,2.61-5.91,4.43-8.5,10.17-14.5,35.99-20.12,46.91,4.19,3.53,7.86,5.02,16.16,5.69,24.66.06.77.18,1.54.33,2.84.64-.81,1.02-1.12,1.18-1.52,4.29-10.83,7.12-21.83,5.95-33.71-.76-7.76-.96-15.62-.73-23.42.25-8.7,2.05-17.16,6.58-24.83.43-.72.64-1.73.56-2.57-.43-4.92-.88-9.84-1.52-14.73-.84-6.41-2.93-7.57-8.76-4.63-7.71,3.88-12.48,10.27-14.9,18.47-.51,1.74-.82,3.54-1.44,5.23-1.02,2.74-3.38,4.09-6.01,3.66-2.42-.4-4.2-2.49-4.36-5.28-.07-1.31.14-2.63.1-3.95-.17-6.06.04-12.18-.7-18.18-.54-4.4-3.24-6.02-7.02-5.62-5.16.54-8.06,3.11-8.31,7.45-.18,3.12-.15,6.26-.46,9.37-.67,6.78-3.49,12.47-8.97,16.7-4.28,3.29-9.15,5.17-14.45,5.98-1.51.23-2.5.71-2.98,2.38-3.64,12.76-3.5,25.19,2.74,37.24,1.07,2.08,1.46,4.5,2.35,6.68.59,1.45,1.51,2.76,2.62,4.73ZM466.71,106.23c.26.04.51.08.77.12.74-1.57,1.57-3.11,2.2-4.72.59-1.51.74-3.23,1.5-4.63,6.36-11.86,7.47-24.2,3.96-37.14-.7-2.59-1.69-3.76-4.43-4.23-14.32-2.48-22.22-11.73-22.7-26.21-.07-2.14-.03-4.29-.26-6.42-.4-3.79-3.46-6.17-8.29-6.65-3.54-.35-5.89,1.09-6.79,5.01-.78,3.41-1.07,6.99-1.15,10.51-.09,3.86.39,7.73.46,11.6.06,3.2-1.83,5.54-4.51,5.92-2.77.4-5.14-1.18-6.12-4.24-.6-1.88-.91-3.86-1.54-5.72-2.62-7.73-7.27-13.84-14.7-17.48-5.74-2.81-7.81-1.66-8.62,4.61-.63,4.82-1.14,9.65-1.54,14.49-.09,1.06.39,2.21.78,3.26,1.59,4.31,3.7,8.48,4.78,12.91,2.55,10.44,2.62,21.12,1.21,31.7-1.71,12.84.66,24.92,5.48,36.7.21.52.6.98.9,1.47.66-1.18.76-2.21.84-3.24.72-9.19,2.44-18.13,6.84-26.36,6.35-11.88,17.69-16.81,30.11-12.88,9.27,2.93,15.74,9.02,19.39,18.06.48,1.18.95,2.36,1.43,3.55ZM568.69,237.48c1.54-.1,2.49-.12,3.43-.22,6.98-.77,13.83-.1,20.47,2.16,2.12.72,3.93.56,5.93-.35,5.47-2.49,10.93-5.01,16.52-7.21,10.87-4.29,20.67-2.46,29.17,5.68,1.07,1.02,2.15,2.06,3.09,3.2,4.03,4.89,7.9,9.92,12.06,14.69,2.75,3.15,4.43,2.8,5.58-1.22,3.75-13.05,3.56-25.96-2.88-38.17-6.05-11.46-16.43-15.2-28.64-10.84-2.09.75-4.1,1.73-6.18,2.51-1.07.4-2.2.75-3.32.82-2.14.14-3.9-.74-4.88-2.7-1.02-2.04-.73-4.06.73-5.76.73-.85,1.71-1.55,2.69-2.12,2.56-1.48,5.22-2.8,7.79-4.29,4.26-2.47,7.44-5.92,9.37-10.49,1.32-3.14,1.13-6.17-1.01-8.85-1.58-1.99-3.29-3.91-5.15-5.64-5.57-5.18-8.67-5.44-15.25-1.71-5.99,3.39-10.38,8.5-15,13.44-10.28,10.98-19.72,22.82-32.04,31.76-.49.36-.86,1.65-.6,2.18,3.36,7,2.25,13.77-.79,20.5-.29.65-.54,1.33-1.08,2.63ZM131.33,237.42c.06-.54.17-.81.09-1.01-.26-.69-.6-1.35-.9-2.03-2.85-6.51-3.9-13.1-.62-19.79.61-1.24.3-1.9-.75-2.66-2.2-1.59-4.52-3.1-6.39-5.03-9.5-9.82-18.93-19.69-28.25-29.68-4.48-4.81-9.27-9.1-15.32-11.83-3.32-1.49-6.51-1.35-9.26,1.02-2.73,2.35-5.33,4.89-7.72,7.58-2.55,2.87-2.68,6.26-1.08,9.71,2.01,4.31,5.09,7.66,9.21,10.01,2.79,1.59,5.68,3.01,8.42,4.67,3,1.81,4.04,4.75,2.81,7.31-1.29,2.68-4.28,3.59-7.69,2.28-2.15-.83-4.24-1.82-6.4-2.62-12.33-4.59-22.52-.89-28.98,10.55-.81,1.43-1.56,2.92-2.12,4.46-3.86,10.71-4.14,21.6-1.23,32.55.43,1.63,1.72,3.04,2.61,4.55,1.44-.98,3.17-1.72,4.27-2.99,3.22-3.74,6.12-7.75,9.28-11.55,11.74-14.15,22.63-16.59,39.28-8.94,4.04,1.86,8.08,3.73,12.2,5.37,1.27.5,2.97.69,4.23.28,7.17-2.34,14.45-3.14,21.94-2.3.77.09,1.55.08,2.36.11ZM620.43,38.37c-.37-7.02-3.1-14.23-7.55-18.83-4.41-4.56-10.17-4.97-14.62-.43-2.16,2.2-3.69,5.21-4.9,8.11-1.09,2.62-1.32,5.59-1.97,8.39-.63,2.72-2.36,4.32-4.64,4.38-2.41.07-4.3-1.48-4.93-4.33-.68-3.05-1.04-6.18-1.78-9.22-.58-2.38-1.27-4.81-2.4-6.96-1.25-2.38-3.28-4.41-6.3-3.89-2.75.47-3.09,3.13-3.7,5.32-.31,1.11-.56,2.25-.63,3.4-.31,4.76-.63,9.53-.8,14.29-.33,9.33.76,18.83-4.34,27.47-.69,1.18.2,3.29.36,4.97,1.2-.35,2.4-.65,3.58-1.05,1.25-.42,2.44-1.01,3.7-1.38,10.67-3.15,21.54,2.17,25.35,12.41,1.47,3.95,1.66,8.03,1.09,12.18-.39,2.86.37,3.45,3.11,2.46,3.33-1.2,6.67-2.38,9.96-3.69,1.67-.67,3.25-1.58,4.85-2.42,1.71-.91,1.9-2.09,1.02-3.87-3.73-7.59-4.29-15.49-1.66-23.53,1.38-4.22,3.14-8.33,4.44-12.58,1.13-3.67,1.85-7.47,2.75-11.22ZM134.7,40.89c-.07,0-.13,0-.2,0-.25-4.93-.35-9.87-.81-14.78-.25-2.67-.88-5.38-1.78-7.91-1.04-2.9-3.52-3.74-5.9-1.82-1.83,1.47-3.42,3.58-4.34,5.74-1.1,2.61-1.4,5.56-2.01,8.38-.44,2.01-.67,4.08-1.27,6.03-.66,2.15-2.21,3.47-4.58,3.46-2.38-.02-3.81-1.44-4.5-3.57-.43-1.32-.39-2.8-.86-4.1-1.34-3.77-2.23-7.87-4.37-11.14-4.47-6.84-12.29-6.92-17.38-.58-5.81,7.23-7.49,15.49-5.24,24.41,1.04,4.13,2.55,8.17,4.14,12.14,3.92,9.78,4.63,19.46-.16,29.19-.34.68.15,2.37.8,2.82,1.8,1.25,3.83,2.23,5.87,3.08,2.66,1.1,5.44,1.91,8.12,2.95,4.28,1.67,4.62,1.44,4.2-3.11-.77-8.38,1.48-15.59,8.58-20.59,6.99-4.92,14.47-4.81,22.04-1.32,3.32,1.53,4.11,1.05,3.93-2.65-.04-.87-.35-1.8-.8-2.55-2.25-3.69-3.24-7.76-3.45-11.99-.19-4.02-.04-8.06-.04-12.09ZM554.14,52.27c1.96-5.08.94-11.02-2.2-14.47-1-1.09-1.97-2.22-2.83-3.43-4.54-6.37-9.06-12.76-13.56-19.16-2.87-4.09-5.1-4.95-9.93-3.72-5.86,1.49-9.74,4.99-11.11,10.99-.64,2.81-1.13,5.65-1.77,8.46-.8,3.54-2.93,5.52-5.73,5.47-2.8-.05-4.82-2.13-5.53-5.68-1.67-8.37-6.94-11.97-15.42-10.62-2.4.38-4.1,1.62-4.44,3.98-.43,2.99-.93,6.09-.59,9.05,1.01,8.75,2.25,17.48,3.72,26.17,1.83,10.75,1.1,21.16-3.15,31.27-.17.4-.16.88-.31,1.76,6.44-2.64,12.33-1.82,18.28,1.94.55-4.38,1.07-8.11,1.49-11.85,1.41-12.41,6.84-22.76,15.98-31.18,10.28-9.47,24.29-9.7,35.02-.68.61.52,1.24,1.01,2.06,1.69ZM219.28,92.35c-.26-1.04-.32-1.44-.47-1.81-4.19-10.03-4.96-20.36-3.11-31.02,1.45-8.36,2.72-16.75,3.68-25.17.38-3.37-.01-6.9-.59-10.27-.23-1.33-1.73-3.18-2.97-3.48-7.57-1.83-14.53.11-16.58,8.97-.19.8-.28,1.63-.51,2.42-.8,2.74-2.81,4.42-5.27,4.45-2.36.03-4.44-1.48-5.29-4.08-.51-1.56-.68-3.22-1.1-4.81-.77-2.94-1.24-6.03-2.5-8.74-2.38-5.13-7.05-7.1-12.4-7.72-4.63-.54-6.32,3.02-8.47,6.02-4.94,6.89-9.73,13.91-15.09,20.47-2.27,2.78-3.58,5.32-3.12,8.84.25,1.87.28,3.77.45,6.33,1.22-1.04,1.83-1.54,2.43-2.06,9.78-8.54,23.88-8.92,33.53-.74,9.75,8.27,15.69,18.72,17.36,31.48.43,3.27.79,6.54,1.22,9.81.11.86.35,1.7.63,3.03,5.76-3.79,11.6-4.42,18.17-1.88ZM349.84,776.49c2.11-2.48,3.99-4.92,6.12-7.1,1.19-1.21,2.81-1.99,4.23-2.98,1.78-1.24,1.74-2.14-.11-3.25-.77-.47-1.58-.9-2.26-1.49-2.89-2.48-5.45-5.25-4.67-9.47.74-4,4.08-5.26,7.37-6.54.68-.26,1.22-.89,1.83-1.35-.65-.5-1.22-1.25-1.95-1.47-3.51-1.06-6.94-2.12-8.95-5.61-.84-1.48-1.56-.88-2.62.14-1.78,1.71-3.87,3.13-5.92,4.53-.71.49-1.75.47-2.56.86-.81.39-1.51.99-2.25,1.5.67.49,1.29,1.08,2.01,1.46,1.16.61,2.46.98,3.58,1.64,3.86,2.29,5.08,6.15,2.68,9.9-1.37,2.14-3.4,4.01-5.47,5.53-2.41,1.77-2.62,2.34-.13,3.91,3.95,2.48,7.62,5.22,9.07,9.76ZM348.72,658.86c.04.75.02,1.16.08,1.56,1.6,10.63.3,21.01-2.62,31.26-1.18,4.13-1.74,3.12,2.36,5.91,2.62,1.79,3.85-.74,5.62-1.52,1.64-.73.83-2.07.49-3.21-3.18-10.62-4.58-21.39-2.97-32.45.07-.46,0-.94,0-1.56h-2.98ZM341.5,720.12c-2.04,4.09-1.72,4.51,1.86,6.42,2.08,1.11,3.86,2.93,5.5,4.69,1,1.07,1.71,1.77,2.55.21,1.6-2.98,4.21-4.48,7.21-5.63.65-.25,1.46-1.21,1.45-1.82-.03-1.32-.55-2.63-.85-3.84-6.14,1.35-11.86,1.46-17.72-.02ZM350.27,779.71c-1.73,2.04-3.75,4.32-5.62,6.72-.43.55-.52,1.51-.45,2.26.1,1.05.62,2.06.73,3.11.24,2.38,1.53,3.16,3.81,3.1,7.25-.16,5.76.67,7.58-6.43.17-.64-.19-1.61-.63-2.18-1.83-2.35-3.78-4.61-5.42-6.58ZM349.82,821.93c.57-.21.84-.26.84-.32.34-3.42.71-6.83.9-10.26.03-.45-.85-.95-1.32-1.43-.48.55-1.36,1.1-1.36,1.64.02,2.29.28,4.59.49,6.88.1,1.14.28,2.28.44,3.5Z" style="fill: #000; stroke-width: 0px;"/>
  <path d="M350.01,366.29c7.52-9.28,17.72-12.33,27.99-15.18,4.36-1.21,8.92-1.8,13.19-3.23,5.44-1.82,10.7-4.17,16.01-6.37,2.35-.97,4.56-2.36,6.97-3.14,2.08-.67,4.36-1.06,6.54-1,4.49.13,8.29,1.9,9.96,6.39,1.66,4.46.42,8.51-2.84,11.81-8.18,8.29-18.08,12.3-29.81,11.93-3.92-.12-7.9.13-11.78.71-7.88,1.17-14.62,4.82-20.53,10.14-5.38,4.84-9.74,4.5-14.63-.9-.21-.23-.49-.4-.67-.55-1.69,1.28-3.18,2.71-4.92,3.67-3.59,1.98-6.93,1.45-9.92-1.47-6.27-6.1-13.76-9.89-22.42-11.13-3.32-.48-6.73-.66-10.07-.51-11.9.55-22-3.39-30.34-11.82-3.32-3.36-4.66-7.46-2.87-12.01,1.75-4.45,5.58-6.5,10.03-6.18,3.67.26,7.68,1.06,10.8,2.88,9.15,5.33,19.09,8.06,29.28,10.17,6.99,1.45,13.6,3.9,19.97,7.08,4.02,2.01,7.64,4.49,10.08,8.71Z" style="fill: #000; stroke-width: 0px;"/>
  <path d="M389.15,436.21c-3.92-1.08-8.69-1.87-13.02-3.7-12.26-5.19-17.46-17.57-13.67-31.79.57-2.13.75-3.47-1.68-4.69-2.61-1.31-2.31-4.86.36-6.14,1.29-.62,2.83-.86,4.28-.96,6.02-.42,11.06-2.55,14.98-7.4,4.98-6.16,14.91-8.36,22.11-5.1,3.11,1.4,5.75.79,8.21-1.32,1.5-1.28,2.88-2.73,4.5-3.83,2.78-1.88,5.86-2.26,8.9-.69,3.09,1.59,4.4,4.4,4.38,7.75-.02,4.78-1.13,9.11-5.35,12.15-.68.49-1.17,2.05-.93,2.88,3.04,10.64.87,20.39-4.93,29.5-3.68,5.79-8.82,9.77-15.62,11.22-3.85.82-7.77,1.33-12.53,2.13ZM373.87,415.49c.25-.05.51-.1.76-.15.08-.93.16-1.86.25-2.79.54-5.45,2.53-10.05,7.66-12.72,8.95-4.66,22.94.38,26.86,9.64.34.8.67,1.61,1.05,2.51.43-.3.7-.39.8-.58,2.88-5.26,2.39-10.62.37-15.98-.17-.47-1.13-.89-1.73-.9-7.72-.19-10.13-1.98-12.01-9.27-.4-1.55-1.42-2.28-2.67-1.73-3.12,1.39-6.57,2.57-9.03,4.78-4.37,3.91-8.84,7.32-14.57,8.93-.65.18-1.54,1.36-1.47,1.97.49,4,1.12,7.98,1.92,11.93.31,1.52,1.18,2.91,1.8,4.37ZM395.29,414.31c-.32-.35-1.35-2.05-1.87-1.91-1.66.45-3.36,1.34-4.62,2.52-1.62,1.5-1.07,3.59.88,4.68,2.89,1.63,5.37-.29,5.62-5.29Z" style="fill: #000; stroke-width: 0px;"/>
  <path d="M276.65,403.36c.54-3.24.99-6.49,1.67-9.7.31-1.46.25-2.45-1.07-3.4-4.81-3.44-5.8-8.47-5.02-13.85.83-5.75,6.92-8.5,12.16-5.6,1.84,1.02,3.42,2.55,4.99,3.98,2.73,2.47,5.65,3.24,9.03,1.41,4.14-2.25,8.16-2.09,12.54-.23,4.33,1.84,8.03,4.06,11.17,7.72,2.95,3.45,7.38,4.77,11.95,5.18,1.55.14,3.25.1,4.56.77,1.15.59,2.46,2,2.56,3.15.1,1.14-.93,2.92-1.98,3.51-1.78,1-1.79,1.93-1.45,3.73.7,3.69,1.43,7.49,1.3,11.21-.3,8.98-4.48,15.92-12.45,20.24-10.87,5.9-22.05,5.33-33.13.75-9.68-4-17.25-19.73-16.85-28.87ZM325.88,415.3c.26.06.52.11.78.17.61-1.44,1.47-2.83,1.78-4.34.75-3.7,1.19-7.47,1.88-11.18.32-1.72-.29-2.31-1.87-3.02-3.72-1.66-7.62-3.28-10.74-5.79-3.34-2.69-6.48-5.39-10.58-6.95-3.3-1.25-4-1.15-4.73,2.24-1.02,4.71-4.38,7.72-9.03,8.09-4.73.38-4.81.37-5.67,5.13-.35,1.92-.54,3.96-.28,5.87.31,2.18,1.21,4.27,2.02,6.94.67-.89.93-1.11,1.02-1.39,2.83-8.65,9.5-11.9,17.87-12.75,9.89-1,16.33,4.3,17.3,14.2.09.93.18,1.85.27,2.78ZM308.9,420.16c1.95-.04,3.74-1.6,3.71-3.25-.03-1.96-3.41-4.94-5.68-4.58-.7.11-1.6,1.71-1.65,2.66-.19,3.2,1.38,5.21,3.62,5.16Z" style="fill: #000; stroke-width: 0px;"/>
</svg>