<?xml version="1.0" encoding="UTF-8"?>
<svg id="Layer_1" data-name="Layer 1" xmlns="http://www.w3.org/2000/svg" viewBox="0 0 548.52 900">
  <path d="M36.26,734.03c.31-14.86,4.05-27.22,11.09-38.55,3.82-6.15,8.94-10.96,15.52-14.24,1.22-.61,2.53-2.53,2.53-3.84-.03-12.64,4.38-23.99,10.01-34.95,1.3-2.53,3.34-4.76,5.36-6.82,1.56-1.58,2.27-3.03,1.69-5.25-4.95-19.02-3.14-37.69,3.2-56.05.92-2.67.55-4.5-1.16-6.67-11.08-14.05-18.55-29.86-22.24-47.35-.74-3.49-2.1-4.76-5.6-5.15-27.41-3.1-46.87-20.18-53.69-46.88-2.56-10.03-3.73-20.31-2.42-30.52,1.63-12.68,3.91-25.31,6.62-37.81,3.53-16.27,7.72-32.39,11.73-48.55.61-2.47,1.39-5.04,2.73-7.16,3.15-4.96,2.45-9.79,1.48-15.3-2.63-15.01-5.38-30.14-6.08-45.31-.56-12.21,1.85-24.55,2.8-36.85.14-1.83-.22-3.84-.88-5.57-.86-2.27-2.17-4.38-3.43-6.48-8.9-14.92-11.3-30.94-7.87-47.84,6.04-29.71,15.25-58.2,33.44-83,9.84-13.41,21.34-25.28,34.55-35.44,11.27-8.67,23.96-14.35,37.87-17.23,2.62-.54,4.15-1.89,5.67-4.05,3.94-5.58,7.87-11.3,12.62-16.17,5.27-5.39,11.24-10.17,17.26-14.74C168.09,1.84,189.31-3.11,212.73,2.18c6.59,1.49,13.16,3.13,19.79,4.43,1.95.38,4.23.29,6.1-.36,23.78-8.23,47.5-8.16,71.29-.02,1.96.67,4.37.69,6.43.28,7.66-1.51,15.22-3.48,22.88-4.99,19.21-3.79,37.43-.52,53.52,10.33,10.45,7.04,19.71,15.93,29.07,24.46,3.26,2.97,5.08,7.47,7.82,11.09,1.1,1.46,2.74,3.12,4.38,3.46,21.09,4.29,38.21,15.31,53.41,30.15,22.84,22.28,38.42,48.69,46.81,79.43,3.25,11.91,6.89,23.69,7.86,36.14.88,11.25-1.06,21.82-5.98,31.87-2.2,4.5-4.78,8.81-6.97,13.32-.65,1.34-.99,3.14-.7,4.58,5.88,29.06,3.28,57.74-3.84,86.2-.75,3.01-.41,5.49.72,8.38,3.12,8.02,6.44,16.07,8.4,24.41,4.82,20.52,9.32,41.14,13.18,61.86,2.58,13.85,2.05,27.86-1.52,41.63-6.72,25.96-26.03,43.02-52.71,46.22-3.97.48-5.61,1.74-6.52,5.86-3.76,16.94-10.92,32.44-21.72,46.09-2.18,2.75-2.42,5-1.32,8.23,6.18,18.04,7.73,36.4,2.93,55.04-.57,2.2-.08,3.68,1.65,5.21,1.72,1.52,3.36,3.33,4.46,5.32,6.21,11.23,10.66,23.02,10.95,36.1.03,1.43.97,3.61,2.09,4.14,9.89,4.65,15.84,12.76,20.22,22.31,16.68,36.3.27,68.06-24.02,85.5-1.93,1.39-3.75,4.08-4.07,6.39-2.16,15.34-9.23,27.58-22.28,35.96-7.42,4.76-15.11,9.24-23.06,13.02-7.96,3.78-16.53,4.97-25.17,1.89-4.74-1.69-8.38-.7-12.3,2.73-10.07,8.84-21.38,15.99-34.51,19.21-5.65,1.39-9.47,3.84-13.2,8.3-11.69,14.01-27.58,20.8-45.24,23.32-9.37,1.34-18.08-1.27-25.01-8.23-1.72-1.73-3.05-1.57-4.7.1-6.93,7-15.68,9.53-25.03,8.09-19.5-3.01-36.53-10.89-48.59-27.39-.89-1.21-2.4-2.5-3.78-2.73-13.92-2.24-25.47-9.33-36.57-17.41-1.79-1.3-3.69-2.55-5.15-4.17-2.73-3.04-5.92-3.47-9.48-2.17-10.92,3.99-21.13,1.37-31.1-3.3-9.45-4.43-18.13-10.08-25.92-17.03-8.28-7.4-12.68-16.92-14.3-27.7-.69-4.61-2.78-7.56-6.51-10.43-17.88-13.78-28.72-31.52-29.18-53.23ZM453.6,555.6c.75-.62,1.19-.85,1.42-1.21,7.14-11.37,10.99-23.84,12.43-37.13.26-2.36-1.35-2.47-2.99-2.96-10.94-3.21-21.86-6.48-32.75-9.82-2.22-.68-4.4-1.6-6.43-2.71-2.93-1.59-2.99-4.34-.48-6.48,3.7-3.16,8-5.02,12.77-4.85,4.61.17,9.3.74,13.78,1.86,14.57,3.67,29.25,4.53,44.04,2.13,4.04-.65,8.36-1.91,11.68-4.17,9.76-6.65,16.44-15.72,18.82-27.57,2.06-10.23,2.9-20.54,1.7-30.94-1.41-12.27-2.63-24.57-4.44-36.79-1.05-7.11-2.61-14.23-4.77-21.08-5.63-17.86-14.21-34.44-22.96-50.92-2.73-5.15-5.68-10.18-8.3-15.38-1.95-3.86-1.25-7.3,1.42-9.16,2.68-1.87,6.09-1.34,8.92,2.08,3.33,4.02,6.2,8.42,9.27,12.66,1.05,1.46,2.1,2.92,3.28,4.55,3.6-6.49,3.58-39.84.09-48.99-.89.63-1.78,1.11-2.51,1.78-8.74,8.05-18.7,14.25-29.4,19.31-1.46.69-3.03,1.23-4.61,1.52-2.31.44-4.91.83-5.97-2.05-.97-2.63,1.02-4.01,2.88-5.34,5.77-4.14,11.67-8.14,17.26-12.52,26.3-20.61,37.73-47.7,33.77-80.8-1.21-10.1-4.2-20.04-6.98-29.88-10.1-35.69-32.15-62.37-63.03-82.11-7.33-4.69-14.92-9.26-24.31-8.39-1.2.11-2.47-.6-3.72-.84-2.27-.45-4.54-1.07-6.83-1.22-7.45-.48-10.04-4.2-8.16-11.43.48-1.85.58-4.43-.35-5.93-7.75-12.54-17.87-22.63-31.32-29.09-17.31-8.31-34.6-6.75-51.85.16-5.73,2.3-11.29,5.02-17.09,7.14-1.69.62-4.59.58-5.76-.47-6.42-5.79-14.18-8.55-22.34-9.94-11.92-2.03-22.61,1.99-32.11,8.86-2.62,1.9-4.63,2.8-7.5,1.58-5.46-2.33-10.87-4.8-16.39-7.01-12.08-4.83-24.49-7.64-37.56-5.03-19.04,3.81-32.98,14.95-43.83,30.59-2.33,3.35-3.69,6.36-2.11,10.61,1.63,4.4-.49,8.25-4.8,9.32-4.82,1.2-9.8,2.7-14.68,2.58-7.33-.19-13.49,2.53-19.41,5.96-17.32,10.04-32.3,22.89-44.52,38.81-16.98,22.13-25.64,47.7-29.83,74.87-2.83,18.32.06,36.04,8.66,52.61,7.44,14.33,18.89,25,31.79,34.3,3.78,2.72,7.78,5.17,11.36,8.13,1.14.94,1.97,3.32,1.6,4.68-.28,1-2.72,1.93-4.21,1.95-1.89.03-3.91-.63-5.67-1.45-10.74-4.98-20.69-11.2-29.47-19.2-.76-.7-1.75-1.15-3.1-2.02-1.6,16.66-3.99,32.57.39,48.54,1.96-2.1,3.32-4.39,4.87-6.53,2.66-3.67,5.26-7.41,8.23-10.82,2.5-2.87,5.64-3.27,8.15-1.7,2.62,1.64,3.45,4.76,2.01,8.4-.77,1.94-1.89,3.74-2.85,5.6-6.53,12.75-13.38,25.36-19.51,38.31-6.64,14.03-12.21,28.5-14.03,44.12-1.35,11.58-2.76,23.14-4.16,34.71-1.45,11.93-1.18,23.87,2.13,35.39,4.11,14.27,12.2,25.88,27.61,29.09,8.77,1.83,18.09,1.81,27.11,1.36,7.72-.39,15.37-2.51,23.03-3.98,7.63-1.46,15.11-2.01,21.57,3.44,1.2,1.01,2.76,2.88,2.52,4.01-.3,1.45-2.03,3.07-3.53,3.71-12.03,5.12-24.26,9.7-37.23,11.8-2.71.44-3.49,1.64-3.15,4.24,1.56,12.04,4.98,23.46,11.07,34.02.61,1.06,1.41,2.01,2.39,3.39,1.14-1.32,2-2.23,2.77-3.2,7.1-9.04,16.47-13.89,27.84-14.87,2.27-.2,4.7.02,6.88.65,3.15.91,5.21,3.2,5.26,6.64.05,3.44-1.96,5.62-5.05,6.82-1.08.42-2.32.46-3.35.95-3.85,1.81-7.92,3.33-11.41,5.69-7.17,4.84-9.92,12.88-14.05,20.05-11.25,19.54-4.72,57.3,7.59,71.48,2.82,3.24,5.33,6.8,7.56,10.47.86,1.41.53,3.55.74,5.35-1.82.2-3.96,1.13-5.41.49-7.51-3.33-14.37-7.72-19.83-14-.75-.86-1.09-2.08-1.62-3.13-2.09,1.85-3.06,2.77-3.46,3.89-2.15,6-4.6,11.95-6.09,18.12-1.82,7.53-1.45,7.62,5.35,10.73.32.15.64.29.94.46,4.31,2.42,6.44,6.68,5.39,10.73-1.08,4.14-4.84,6.72-9.97,6.5-3.13-.13-6.24-.89-9.37-1.01-2.39-.09-5.01-.17-7.16.68-8.34,3.27-14.05,12.24-13.79,21.25.29,10.19,3.03,19.71,7.75,28.77,5.2,9.98,12.97,17.53,21.75,24.25,6.09,4.65,10.22,10.14,9.79,18.54-.17,3.33,1.53,7,3.14,10.14,3.79,7.39,9.45,13.3,16.27,17.96,5.78,3.96,12.43,5.94,19.18,7.71.15-.67.31-.95.23-1.1-1.27-2.22-2.61-4.39-3.84-6.64-7.75-14.14-11.57-29.01-7.57-45.08,3.13-12.59,11.1-20.85,23.59-24.33,3-.84,6.48-.72,9.61-.21,4.18.68,6.51,3.57,6.7,7,.2,3.56-1.72,5.86-5.95,7.64-2.11.89-4.65,1.71-5.96,3.37-6.91,8.73-11.21,18.25-7.74,29.8,2.81,9.34,6.67,18.18,12.44,26.06,2.24,3.06,4.8,6.28,7.96,8.22,11.59,7.12,22.89,14.88,36.08,18.97,5.6,1.74,10.8,4.52,14.2,9.14,8.15,11.06,19.76,14.81,32.45,16.09,5.2.52,10.62-.26,15.85-1.07,4.57-.71,8.76-4.2,13.75-1.71.25.13.68-.13,1.02-.12,2.81.1,5.67-.1,8.41.4,3.3.61,6.43,2.26,9.74,2.67,10.32,1.3,20.33-.67,29.57-5.1,4.46-2.14,8.43-5.73,11.93-9.33,3.87-3.98,7.65-8.14,12.98-9.71,10.67-3.13,19.77-9.3,29.55-14.17,19.14-9.54,27.18-26.5,30.88-46.04,2.14-11.29-5.34-23.4-15.68-27.94-3.06-1.34-5.01-3.46-4.93-6.91.08-3.43,2.11-5.58,5.17-6.8,3.95-1.57,7.97-1.5,11.98-.17,14.24,4.75,21.84,14.96,23.81,29.5,2.16,15.89-2.56,30.18-10.8,43.54-.72,1.16-1.24,2.44-2.07,4.1,16.6-3.48,28.72-11.88,36.57-26.16,2.12-3.86,3.13-7.86,3.02-12.36-.06-2.62.74-5.64,2.17-7.81,2-3.05,4.63-5.89,7.54-8.09,11.12-8.4,19.99-18.49,25.03-31.65,2.82-7.37,4.46-15,4.23-22.89-.38-12.92-10.93-21.78-23.5-20.1-3.1.41-6.28.72-9.37.45-3.47-.3-6.15-2.31-7.18-5.8-1.09-3.69-.12-7.07,2.9-9.43,1.88-1.47,4.18-2.55,6.45-3.32,2.33-.79,3.16-2.11,2.92-4.41-.86-8.31-2.8-16.31-7-23.62-.6-1.04-1.43-1.95-2.74-3.73-1.12,1.54-1.78,2.64-2.63,3.58-5.46,6.11-12.24,10.42-19.65,13.68-1.44.63-4.04.23-5.23-.76-.74-.62-.37-3.56.44-4.86,2.33-3.75,5.11-7.22,7.77-10.76,4.75-6.31,8.29-13.19,10.3-20.87,5.36-20.43,4.63-40.12-6.62-58.72-5.39-8.92-12.05-15.96-22.82-17.95-1.02-.19-2.05-.53-2.95-1.03-2.64-1.45-4.27-3.6-4.04-6.78.21-3,1.87-5.17,4.61-5.99,2.39-.71,5.05-1.12,7.52-.9,11.06.99,20.35,5.56,27.37,14.36.86,1.08,1.79,2.11,2.9,3.42Z" style="fill: #000; stroke-width: 0px;"/>
  <path d="M239.66,520.69c-1.92,6.11-1.3,11.93,1.82,17.18.73,1.23,3.31,1.93,5.02,1.91,4.53-.07,9.05-1.03,13.57-.94,3.26.07,6.49,1.37,9.76,1.9,2.45.4,5.49,1.46,7.33.47,6.83-3.67,13.86-2.57,20.87-1.83,8.6.91,9.86.3,11.39-8.25.62-3.46.47-7.06.67-10.6-.4-.1-.8-.2-1.2-.3-.51,1.18-.74,2.66-1.61,3.48-1.22,1.15-3.09,2.69-4.35,2.43-1.24-.25-2.95-2.54-2.95-3.93.14-50.4,44.29-78.85,82.85-64.29,4.2,1.59,8.14,4.01,11.98,6.4,2.24,1.39,4.12,1.94,6.4.44,5.44-3.59,11.13-6.86,16.32-10.78,8.03-6.06,11.89-14.73,12.46-24.49.53-9.03.47-18.19-.39-27.19-.5-5.17-2.48-10.47-4.89-15.14-3.89-7.53-8.64-14.62-13.12-21.84-1.74-2.8-2.52-5.6-.51-8.47,2.03-2.9,5-3.22,8.14-2.21,10.1,3.25,18.16,9.25,22.73,18.92,10.48,22.16,14.06,45.33,8.22,69.4-3.59,14.78-12.37,25.93-25.76,33.28-13.62,7.47-27.88,12.97-43.62,13.77-11.91.6-23.12,3.68-33.9,8.85-5.52,2.65-8.52,6.87-10.69,12.24-2.83,7-5.43,14.17-9.09,20.72-3.08,5.51-7.02,10.78-11.52,15.21-5.76,5.68-13.33,7.22-21.4,6.45-3.2-.31-6.47,0-9.7,0-6.86,0-13.71.01-20.57-.01-3-.01-6.05-.42-9.01-.08-10.43,1.2-19.1-1.96-25.85-10.01-6.73-8.03-11.72-17.05-15.03-27-.92-2.76-1.91-5.51-3.03-8.19-1.84-4.39-5.18-7.12-9.42-9.34-12.08-6.33-25.12-8.23-38.42-9.39-16.2-1.41-30.74-7.67-44.1-16.44-14.71-9.65-21.21-24.41-22.9-41.39-1.87-18.79,1.2-36.96,8.54-54.35,4.26-10.1,11.31-17.56,21.68-21.6.87-.34,1.73-.71,2.61-.99,3.13-1,6.12-.82,8.23,1.97,2.22,2.92,1.36,5.85-.43,8.76-4.32,7.04-8.56,14.14-12.76,21.26-3.37,5.72-5.39,11.94-5.53,18.58-.18,8.26-.54,16.56.13,24.77.93,11.41,6.28,20.59,16.21,26.79,4.25,2.65,8.36,5.55,12.78,7.89,1.41.74,4.13.76,5.34-.14,28.2-20.86,74.91-11.08,90.58,31,2.88,7.72,3.44,16.32,4.92,24.54.47,2.62.31,5.46-2.95,6.21-3.1.71-4.23-1.71-5.12-4.13-.19-.52-.48-1.01-.72-1.51Z" style="fill: #000; stroke-width: 0px;"/>
  <path d="M358.86,86.75c18.74-.1,37.2,1.86,55.01,8.14,18.96,6.69,31.39,20.4,40.4,37.65,15.13,28.96,19,59.82,15.12,91.96-1.62,13.47-5.63,25.92-14.53,36.45-2.75,3.25-5.22,3.84-8.16,1.97-3.14-1.99-4.28-5.05-2.44-8.46,10.73-19.88,7.02-38.74-3.18-57.56-19.62-36.2-54.02-41.59-80.88-35.06-7.44,1.81-14.58,4.87-21.95,7.02-6.69,1.96-13.44,3.87-20.3,5.07-9.47,1.65-17-2.02-22.82-9.68-18.25-24.02-10.17-57.2,17.2-70.1,10.85-5.11,22.5-6.66,34.3-7.37,4.06-.24,8.15-.04,12.22-.04Z" style="fill: #000; stroke-width: 0px;"/>
  <path d="M189.96,86.44c12.04.01,24,.8,35.7,3.87,22.58,5.93,38.34,25.23,37.93,46.93-.24,12.8-5.9,23.35-15.06,32.02-4.81,4.55-11.02,6.03-17.27,4.72-9.08-1.91-18.16-4.22-26.91-7.28-13.91-4.87-27.87-8.38-42.76-6.78-24.43,2.63-42.1,15.17-53.72,36.52-2.44,4.49-4.52,9.2-6.44,13.95-5.85,14.5-4.65,28.68,2.03,42.67.97,2.02,1.48,4.89.83,6.93-1.46,4.63-7.11,5.25-10.39,1.4-5.83-6.85-10.22-14.62-12.15-23.38-8.58-38.95-4.36-76.19,15.74-111.12,10.84-18.84,27.01-30.39,48.11-35.38,14.6-3.45,29.39-4.99,44.36-5.07Z" style="fill: #000; stroke-width: 0px;"/>
  <path d="M138.36,661.58c-.76-14.56,5.48-25.96,16.32-35.04,1.76-1.48,4.73-2.48,6.99-2.25,14.45,1.47,28-1.96,41.32-6.91,12.01-4.46,23.93-9.16,36-13.46,10.27-3.66,20.71-3.84,31.29-.87,2.54.71,5.63.65,8.19-.06,9.85-2.73,19.67-2.9,29.27.39,12.55,4.31,24.92,9.14,37.35,13.8,13.43,5.03,27.06,8.54,41.63,7.11,2.28-.22,5.22.74,7.02,2.19,12.74,10.21,17.97,23.69,16.3,39.85-2.57,24.86-14.84,44.58-33.05,60.89-8.67,7.76-17.87,14.95-26.99,22.19-13.49,10.69-35.58,16.19-54.95-.23-.53-.45-1.19-.79-1.63-1.32-5.95-7.11-14.07-5.94-22.06-6.37-7.24-.39-12.25,2.75-17.29,7.16-18.91,16.54-41.18,12.35-56.28.15-12.49-10.09-25.79-19.3-36.34-31.6-13.07-15.23-21.78-32.44-23.1-52.84-.06-.93,0-1.86,0-2.8ZM391.16,660.4c-1.27-4.99-2.29-10.47-4.12-15.66-1.3-3.67-3.72-4.55-6.93-3.19-10.13,4.3-20.38,3.88-30.37.21-8.5-3.12-16.81-6.88-24.89-10.97-10.62-5.37-21.68-8.4-33.56-8.44-9.86-.04-19.72.11-29.57-.1-14.68-.32-28.36,2.93-41.18,10.21-9.55,5.43-19.63,9.69-30.59,11.53-6.82,1.14-13.45.57-19.94-1.86-5.22-1.95-7.84-1.2-9.26,4.26-1.53,5.87-2.58,12.14-2.28,18.16.65,13.31,6.98,24.82,13.86,35.79,5.82,9.28,12.63,17.98,22.46,23.55,6.69,3.79,13.4,7.58,20.34,10.87,8.88,4.21,17.81,4.48,26.84-.36,6.59-3.53,12.41-7.75,16.97-13.7.91-1.19,1.93-2.39,3.13-3.26,2.43-1.74,5.24-.64,6.05,2.19.89,3.11,3.91,5.2,7.04,4.5,2.47-.55,5.08-.78,5.36-4.63.24-3.25,4.16-3.91,6.75-1.3,2.29,2.31,4.13,5.11,6.55,7.26,14.34,12.73,27.4,16.79,44.06,7.16,4.74-2.74,9.78-4.97,14.39-7.9,4.1-2.6,8.19-5.44,11.61-8.86,10.98-10.97,18.59-24.17,23.61-38.77,1.76-5.11,2.39-10.61,3.69-16.67Z" style="fill: #000; stroke-width: 0px;"/>
  <path d="M364.45,336.14c2.94,1.97,5.09,3.15,6.93,4.71,2.83,2.39,5.73,4.79,8.06,7.62,2.48,3.01,2.1,6.72-.19,8.89-2.27,2.16-5.84,2.05-8.93-.41-2.46-1.96-4.81-4.05-7.22-6.08-3.56-2.99-7.62-4.6-12.25-5.48-5.11-.98-10.14-2.62-15.02-4.46-7.91-2.98-12.8-8.9-14.35-17.16-1.09-5.82-1.59-11.76-2.16-17.66-2.73-28.02,3.51-54.71,12.63-80.85,4.83-13.84,15.22-20.38,29.9-19.91,10.73.35,20.39,3.71,28.26,11.24,12.84,12.28,23.88,25.92,29.71,42.99,1.86,5.46,3.21,11.27,3.61,17.01,1.16,16.41-5.69,29.5-19.17,38.4-9.87,6.51-20.7,11.55-31.15,17.17-2.52,1.35-5.2,2.39-8.67,3.97ZM402.31,295.91c.89-.48,1.35-.62,1.66-.91.68-.63,1.34-1.3,1.93-2.02,7.29-8.79,7.33-18.59,3.64-28.69-5.84-15.97-16.36-28.42-30.24-37.9-4.13-2.82-9.19-4.66-14.08-5.9-11.74-2.98-19.92,1.82-23.19,13.42-2.5,8.85-4.5,17.85-6.63,26.81-4.48,18.81-3.28,37.73-.93,56.65.57,4.62,2.4,8.22,7.09,10.36,3.64,1.66,4.53-1.03,6.09-2.73,1.87-2.04-.65-2.66-1.51-3.79-1.41-1.84-3.12-3.53-4.2-5.54-4.63-8.64-7.35-17.85-7.63-27.71-.44-15.92,7.37-26.83,21.05-33.82,11.96-6.11,25.67-3.15,34.05,7.34,7.34,9.2,12.18,19.56,12.47,31.62.02.77.23,1.54.43,2.81ZM382.5,307.16c.47.11.95.21,1.42.32.41-1.11,1.08-2.19,1.18-3.32.36-4.05.67-8.12.74-12.19.07-3.83.16-7.71-.39-11.48-1.17-7.97-5.93-12.73-13.91-13.14-4.77-.24-9.68.72-14.4,1.72-3.81.81-6.06,3.74-6.93,7.57-1.42,6.18-.62,12.25.9,18.29.06.24.51.39.88.65,2.47-2.16,4.87-4.34,7.35-6.43,5.84-4.92,11.78-4.49,16.82,1.19,4.22,4.76,6.96,10.11,6.35,16.81Z" style="fill: #000; stroke-width: 0px;"/>
  <path d="M183.84,336.24c-2.12-1.07-3.45-1.73-4.78-2.4-8.64-4.32-17.38-8.46-25.88-13.05-4.38-2.36-8.6-5.2-12.42-8.39-13.02-10.84-17.95-24.82-15.24-41.5,1.48-9.08,4.9-17.48,9.49-25.4,6.47-11.19,14.62-21.06,24.23-29.66,9.6-8.58,21.13-11.67,33.75-10.13,10.96,1.34,18.93,7.29,22.8,17.7,11.47,30.92,16.93,62.64,12.22,95.69-1.69,11.84-7.49,19.82-19.04,23.35-3.34,1.02-6.67,2.4-10.09,2.73-6.41.62-11.44,3.64-16.08,7.7-1.58,1.38-3.11,2.82-4.76,4.12-3.04,2.39-6.65,2.47-8.94.29-2.19-2.08-2.63-5.66-.24-8.6,2.46-3.02,5.56-5.55,8.54-8.11,1.73-1.48,3.78-2.6,6.42-4.37ZM146.26,296.37c.23-1.68.43-2.45.43-3.22.12-11.97,4.91-22.23,12.1-31.39,8.62-10.98,22.96-13.89,35.22-7.21,13.39,7.29,21.05,18.32,20.08,34.03-.78,12.51-3.51,24.46-12.97,33.75-.51.5-.73,2.17-.35,2.52,1.39,1.3,3.33,3.43,4.6,3.15,3.97-.88,7.26-3.19,8.03-7.73.47-2.75.99-5.5,1.39-8.27,3.87-27.28-.77-53.64-8.81-79.59-2.96-9.55-9.92-14.21-19.77-12.34-5.93,1.13-12.15,3.16-17.13,6.48-14.09,9.38-24.74,22.01-30.2,38.25-1.66,4.93-2.11,10.53-1.86,15.76.3,6.2,3.69,11.3,9.24,15.8ZM197.31,296.23c.56-3.48,1.18-6.27,1.44-9.1,1.34-14.61-3.5-19.91-18.25-20.09-11.21-.14-17.38,5.23-17.82,16.42-.28,7.18.41,14.39.8,21.58.05.85.96,1.66,1.83,3.07.47-1.27.78-1.68.75-2.07-.62-6.77,2.81-11.84,7.03-16.48,4.29-4.73,10.43-5.09,15.25-1.08,2.82,2.35,5.56,4.79,8.98,7.74Z" style="fill: #000; stroke-width: 0px;"/>
  <path d="M222.1,577.87c1.39,0,2.79.03,4.18,0,2.54-.06,5.27-.06,5.76,3.11.5,3.22-2.11,3.99-4.6,4.57-1.92.45-3.85.9-5.78,1.34-15.76,3.6-29.98,10.59-43.29,19.61-1.25.84-2.51,1.75-3.91,2.26-2.38.87-5.06.66-6.08-1.76-.73-1.72-.29-4.13.2-6.1.26-1.05,1.67-1.86,2.63-2.68,14.66-12.5,31.44-19.68,50.87-20.33Z" style="fill: #000; stroke-width: 0px;"/>
  <path d="M326.17,577.87c19.57.65,36.47,7.86,51.22,20.49.88.75,1.81,1.51,2.48,2.43,1.49,2.07,2.05,4.68.07,6.35-1.43,1.2-3.91,1.5-5.93,1.54-1.19.02-2.47-1.17-3.61-1.96-14.84-10.24-30.96-17.52-48.71-21.01-.8-.16-1.83-.14-2.32-.64-1.19-1.21-3.05-2.79-2.89-3.99.17-1.22,2.28-2.65,3.8-3.1,1.82-.54,3.92-.13,5.89-.13Z" style="fill: #000; stroke-width: 0px;"/>
  <path d="M56.71,408.16c-.33,1.43-.68,3.38-1.25,5.26-4.46,14.65-5.09,29.32-.24,44.02.75,2.27.94,4.61-1.69,5.66-2.74,1.09-4.07-.91-4.95-3.1-6.17-15.52-8.37-31.47-5.02-47.97.53-2.59,1.31-5.24,2.54-7.56,1.29-2.44,3.72-3.57,6.55-2.75,2.87.83,3.88,3.11,4.05,6.44Z" style="fill: #000; stroke-width: 0px;"/>
  <path d="M506.59,427.53c-.05,11.28-2.77,21.96-6.78,32.37-.86,2.22-2.18,4.2-4.89,3.26-2.72-.94-2.56-3.33-1.81-5.59,5.01-15.06,4.25-30.06-.37-45.04-.44-1.44-.83-2.94-.93-4.43-.21-3.13,1.12-5.59,4.22-6.43,2.97-.8,5.51.59,6.6,3.3,1.29,3.2,2.17,6.64,2.73,10.06.68,4.12.84,8.33,1.22,12.51Z" style="fill: #000; stroke-width: 0px;"/>
  <path d="M393.08,788.41c-.63,7.85-2.6,15.26-7.03,21.52-4.14,5.85-9.26,11.01-14.09,16.34-1.44,1.59-3.5,2.12-5.3.44-1.8-1.67-1.24-3.61.02-5.36,2.64-3.69,5.6-7.19,7.96-11.05,5.04-8.24,7.53-16.95,4.27-26.66-1.38-4.1.38-7.65,3.6-8.7,3.5-1.14,7.03.58,8.55,4.69,1.03,2.79,1.37,5.84,2.02,8.78Z" style="fill: #000; stroke-width: 0px;"/>
  <path d="M170,781.44c-.13.7-.21,1.77-.55,2.75-2.8,8.05-1.37,15.74,2.58,22.9,2.62,4.76,6.17,9.01,9.09,13.62.86,1.35,1.57,3.24,1.35,4.73-.36,2.36-3.49,3.05-5.67,1.18-11.2-9.59-19.85-20.84-20.76-36.2-.24-4.1.97-8.48,2.38-12.43,1.07-2.98,4.25-3.94,7.39-3.07,3,.83,4.02,3.27,4.19,6.52Z" style="fill: #000; stroke-width: 0px;"/>
  <path d="M370.03,435.23c-.1,3.42-2.31,5.37-6.15,5.93-4.71.69-9.61.84-14.09,2.25-8.28,2.62-16.34,5.96-24.47,9.06-1.73.66-3.3,1.97-5.07,2.25-1.36.21-3.69-.32-4.16-1.25-.61-1.18.21-3.1.45-4.7.03-.18.3-.34.48-.48,12.96-10.49,27.22-17.81,44.31-18.27,1.5-.04,3.06-.02,4.49.36,2.61.69,4.17,2.43,4.21,4.85Z" style="fill: #000; stroke-width: 0px;"/>
  <path d="M187.93,430.11c16.71.62,30.73,7.78,43.26,18.25,1.1.92.9,3.41,1.3,5.17-1.78.32-3.79,1.32-5.29.81-3.4-1.13-6.52-3.06-9.8-4.58-9.92-4.59-20.31-7.49-31.21-8.45-.93-.08-1.87-.13-2.77-.33-3.18-.7-5.31-3.09-5.04-5.78.33-3.17,2.47-4.63,5.37-5.06,1.37-.2,2.79-.03,4.18-.03Z" style="fill: #000; stroke-width: 0px;"/>
  <path d="M112.77,596.68c.44-8.58,1.79-16.9,6.49-24.09,2.27-3.48,5.56-6.53,8.99-8.94,3.18-2.23,6.98-1.1,8.71,1.49,1.8,2.69,1.28,6.13-1.91,8.64-10.66,8.37-13.77,19.69-13.19,32.56.06,1.39.57,2.93.14,4.15-.54,1.55-1.53,3.59-2.84,4.09-2.2.85-3.79-.95-4.17-3.08-.88-4.91-1.5-9.87-2.22-14.81Z" style="fill: #000; stroke-width: 0px;"/>
  <path d="M426.59,605.14c.19-12.92-3.16-23.59-13.3-31.44-3.04-2.35-3.58-5.73-1.94-8.35,1.7-2.71,5.42-3.96,8.61-1.78,3.45,2.35,6.96,5.3,9.07,8.81,7.36,12.28,7.49,25.66,4.19,39.18-.32,1.31-2.47,2.94-3.86,3.04-2.35.16-3.15-2-3.08-4.19.06-1.98.24-3.95.32-5.26Z" style="fill: #000; stroke-width: 0px;"/>
  <path d="M384.33,60.04c.02,5.12-2.04,8.17-5.36,8.73-2.94.49-6.08-1.42-6.93-5.11-2.7-11.73-10.49-19.12-20.33-24.97-2.37-1.41-5.59-2.83-3.74-6.31,1.81-3.39,4.97-1.78,7.4-.57,6.23,3.09,12.68,5.93,18.39,9.83,6.5,4.44,10.2,11.06,10.56,18.4Z" style="fill: #000; stroke-width: 0px;"/>
  <path d="M164.18,59.65c.37-6.65,3.94-12.58,9.54-17.4,6.38-5.49,14.04-8.59,21.82-11.41,2.06-.75,4.44-.46,4.9,1.79.3,1.45-.78,3.79-2.01,4.83-3,2.54-6.54,4.42-9.68,6.81-5.73,4.36-9.62,10.04-11.53,17.02-.12.45-.26.89-.4,1.34-1.38,4.38-4.06,6.66-7.26,6.17-3.46-.53-5.47-3.59-5.38-9.12Z" style="fill: #000; stroke-width: 0px;"/>
  <path d="M484.64,726.06c-.76,7.02-3.22,13.03-7.97,17.8-3.33,3.35-7.28,6.09-11.08,8.94-1.92,1.44-4.22,1.85-5.88-.4-1.56-2.13-.34-3.91,1.26-5.51,2.14-2.13,4.58-4.07,6.26-6.53,1.93-2.82,3.8-5.99,4.47-9.26.46-2.23-1.06-4.93-1.91-7.34-.33-.93-1.36-1.57-1.93-2.45-1.73-2.67-2.15-5.49-.05-8.1,2.14-2.66,5.18-3.46,8.14-1.91,2.15,1.13,4.43,2.88,5.53,4.96,1.58,2.98,2.15,6.5,3.15,9.8Z" style="fill: #000; stroke-width: 0px;"/>
  <path d="M74.86,710.62c4.71,0,7.79,3.56,6.93,7.65-.28,1.32-.91,2.66-1.7,3.76-4.79,6.64-4.92,10.44.11,17.1,2.08,2.76,4.67,5.16,7.11,7.64,1.69,1.72,2.97,3.57,1.22,5.78-1.59,2.01-3.69,1.54-5.65.34-6-3.69-11.5-7.94-14.99-14.25-3.74-6.75-4.82-13.81-1.72-21.1,1.7-4.01,4.66-6.6,8.71-6.93Z" style="fill: #000; stroke-width: 0px;"/>
  <path d="M151.17,386.76c4-.07,6.36,3.65,4.99,7.98-1.02,3.21-2.29,6.35-3.21,9.58-2.69,9.39-2.14,18.4,3.44,26.76,1.39,2.08,2.23,4.43-.37,6.11-2.38,1.53-4.14-.09-5.63-1.9-10.93-13.27-11.47-27.92-5.6-43.33,1.33-3.49,3.75-5.16,6.38-5.2Z" style="fill: #000; stroke-width: 0px;"/>
  <path d="M408.04,409.89c-.65,9.95-4.04,18.39-10.35,25.74-1.48,1.72-3.26,2.98-5.44,1.5-2.18-1.48-1.85-3.67-.54-5.56,7.77-11.28,5.9-22.94,1.43-34.7-1.93-5.09-1.41-8.25,1.84-9.7,3.4-1.52,7.32.49,8.94,5.52,1.8,5.59,2.78,11.45,4.12,17.19Z" style="fill: #000; stroke-width: 0px;"/>
  <path d="M42.85,191.65c.95,7.94,1.9,15.88,2.85,23.83.21,1.72.61,3.46.55,5.17-.09,2.54-1.35,4.49-3.99,5.05-2.59.54-4.59-.6-5.84-2.82-.67-1.19-1.07-2.57-1.42-3.91-3.42-13.11-2.27-26.04,1.71-38.82.67-2.16,1.89-3.94,4.46-3.48,2.6.46,3.04,2.55,2.9,4.82-.2,3.36-.42,6.72-.64,10.09-.19.03-.38.05-.58.08Z" style="fill: #000; stroke-width: 0px;"/>
  <path d="M504.99,191.36c-.23-3.25-.48-6.51-.69-9.76-.15-2.26.24-4.39,2.82-4.92,2.57-.53,3.83,1.24,4.52,3.4,3.99,12.58,5.18,25.31,1.97,38.26-.33,1.35-.71,2.72-1.3,3.98-1.22,2.59-3.31,4.02-6.21,3.35-2.94-.69-4.21-3.02-3.95-5.82.35-3.82,1.3-7.58,1.71-11.4.61-5.67.97-11.36,1.44-17.05l-.3-.04Z" style="fill: #000; stroke-width: 0px;"/>
  <path d="M500.9,152.06c-.1,3.29-1.09,5.6-3.98,6.39-2.89.79-5.04-.63-6.36-3.11-5.29-9.97-10.6-19.93-15.61-30.03-.69-1.39-.34-4.02.6-5.23.6-.77,3.83-.67,4.8.22,8.45,7.75,16.37,15.97,19.59,27.47.44,1.56.71,3.17.95,4.3Z" style="fill: #000; stroke-width: 0px;"/>
  <path d="M47.53,152.39c.76-5.99,2.91-11.69,6.62-16.53,4.01-5.24,8.59-10.06,13.02-14.98,1.49-1.65,3.46-2.68,5.57-1.14,2.25,1.64,1.72,3.82.62,5.94-5.1,9.8-10.18,19.6-15.33,29.37-1.36,2.58-3.48,4.21-6.55,3.38-2.89-.78-3.88-3.08-3.95-6.04Z" style="fill: #000; stroke-width: 0px;"/>
  <path d="M77.66,272.38c-1.1,1.35-2.02,3.58-3.35,3.85-2.02.42-4.99.23-6.37-1.02-4.72-4.27-9.26-8.84-13.19-13.84-2.76-3.51-4.47-7.86-6.5-11.91-1.02-2.04-1.09-4.53,1.22-5.44,1.47-.58,4.24-.25,5.26.8,7.1,7.35,13.95,14.96,20.74,22.61,1.01,1.13,1.3,2.89,2.18,4.96Z" style="fill: #000; stroke-width: 0px;"/>
  <path d="M500.98,246.77c-.57,1.69-.92,2.92-1.4,4.09-4.02,9.84-10.65,17.68-18.8,24.33-2.74,2.24-5.98,2.41-7.92.39-2.32-2.41-2.23-5.34-.24-7.62,6.95-7.97,14.07-15.78,21.36-23.44.89-.93,3.26-1,4.74-.64.98.24,1.59,1.97,2.27,2.9Z" style="fill: #000; stroke-width: 0px;"/>
  <path d="M421.52,699.36c-.49,1.42-.9,2.87-1.48,4.25-4.55,10.78-12.36,18.74-21.9,25.18-1.78,1.2-3.74,1.73-5.36-.11-1.77-2.01-.92-3.98.8-5.52,7.88-7.03,13.67-15.46,17.46-25.33,1.09-2.83,3.43-4.9,6.55-3.72,1.8.68,3.01,2.92,4.49,4.46-.18.26-.37.52-.55.79Z" style="fill: #000; stroke-width: 0px;"/>
  <path d="M126.7,698.38c1.09-1.25,2.19-3.56,3.85-4.08,1.54-.49,3.84.66,5.51,1.6.94.53,1.44,2.06,1.89,3.23,3.49,8.93,8.75,16.62,15.85,23.06.43.39,1.09.75,1.2,1.23.38,1.65,1.26,3.67.65,4.94-1.03,2.15-3.45,1.95-5.12.58-4.74-3.9-9.79-7.58-13.79-12.16-3.53-4.04-5.87-9.13-8.62-13.82-.62-1.06-.77-2.4-1.43-4.58Z" style="fill: #000; stroke-width: 0px;"/>
  <path d="M298.45,324.47c-1.22,1.4-2.21,3.59-3.7,4.01-2.71.77-3.83-1.59-4.2-3.93-1.68-10.44-3.34-20.88-4.88-31.35-.51-3.48,1.46-6.18,4.32-6.49,2.89-.32,5.31,1.92,5.53,5.44.67,10.55,1.23,21.1,1.84,31.66.36.22.73.44,1.09.66Z" style="fill: #000; stroke-width: 0px;"/>
  <path d="M250.99,323.98c.61-10.55,1.17-21.11,1.86-31.66.23-3.62,2.5-5.83,5.39-5.65,2.94.18,5,3.02,4.45,6.7-1.55,10.46-3.24,20.9-4.93,31.34-.36,2.23-1.51,4.44-4,3.79-1.52-.4-2.6-2.49-3.88-3.83.37-.23.74-.46,1.11-.69Z" style="fill: #000; stroke-width: 0px;"/>
  <path d="M120.87,204.16c4.2.69,7.27,3.09,7.98,7.26.81,4.74,1.91,9.24,4.63,13.35.69,1.04.48,3.32-.24,4.44-.61.96-2.61,1.61-3.89,1.47-6.82-.75-14.75-9.03-15.13-15.88-.12-2.1.22-4.6,1.32-6.29,1.19-1.83,3.5-2.93,5.33-4.34Z" style="fill: #000; stroke-width: 0px;"/>
  <path d="M434.37,213.57c.01,7.38-8.04,16.44-15.47,17.11-1.28.12-3.26-.61-3.84-1.59-.68-1.14-.79-3.38-.09-4.45,2.56-3.9,3.87-8.08,4.55-12.66.69-4.67,4.12-7.44,8.03-7.12,3.97.33,6.81,3.95,6.82,8.7Z" style="fill: #000; stroke-width: 0px;"/>
  <path d="M408.78,190.1c-2.07,3.77-3.34,7.4-5.71,10.03-2.66,2.96-6.11,5.38-9.59,7.36-3.27,1.86-6.85-.67-6.12-4.28,1.3-6.42,3.54-12.58,8.28-17.4,2.28-2.32,5.31-3.57,8.22-1.69,1.91,1.23,3.06,3.63,4.92,5.97Z" style="fill: #000; stroke-width: 0px;"/>
  <path d="M149.11,183.41c1.18.92,4.14,2.2,5.43,4.44,2.64,4.58,4.7,9.57,6.39,14.6,1.2,3.58-2.01,6.78-5.25,5.36-7.17-3.16-12.91-7.98-14.68-16.09-1-4.57,2.21-8.43,8.11-8.3Z" style="fill: #000; stroke-width: 0px;"/>
  <path d="M236.87,852.97c.12,2.94-2.04,4.72-4.61,3.97-1.08-.31-2.06-1.04-3.03-1.67-5.84-3.8-11.64-7.66-17.49-11.44-2.84-1.83-4.01-4.52-2.89-7.07,1.1-2.51,4-3.76,7.14-2.69,9.01,3.06,15.56,9.11,20.34,17.21.34.58.44,1.31.56,1.68Z" style="fill: #000; stroke-width: 0px;"/>
  <path d="M339.93,839.94c-.7.83-1.73,2.72-3.3,3.81-5.82,4.05-11.79,7.88-17.76,11.69-1.22.78-2.71,1.54-4.1,1.59-2.66.08-4.28-2.79-2.84-5.36,4.78-8.54,11.64-14.83,21.14-17.72,3.67-1.12,6.94,1.44,6.87,6Z" style="fill: #000; stroke-width: 0px;"/>
  <path d="M196.59,540.24c0,.93.32,2.04-.07,2.76-.77,1.39-1.8,3.39-2.98,3.59-1.21.21-3.35-1.12-3.99-2.34-1.45-2.75-2.22-5.86-3.28-8.82-1.01-2.83-2.49-5.12-5.54-6.32-2.79-1.09-4.21-3.43-3.46-6.46.77-3.1,3.1-4.57,6.22-4.64,4.8-.12,8.25,2.47,9.77,6.62,1.82,4.97,2.67,10.29,3.94,15.46l-.6.17Z" style="fill: #000; stroke-width: 0px;"/>
  <path d="M351.22,539.61c1.29-5.02,2.16-10.2,3.98-15.03,1.78-4.73,6.19-7.03,10.45-6.55,2.82.32,4.83,1.75,5.52,4.54.7,2.86-.44,5.31-3.07,6.31-3.6,1.36-5.12,4.13-6.29,7.36-.83,2.29-1.64,4.59-2.43,6.9-.78,2.27-1.99,4.15-4.72,3.59-2.54-.52-3-2.61-2.9-4.87.03-.7.07-1.39.11-2.09-.22-.06-.43-.11-.65-.17Z" style="fill: #000; stroke-width: 0px;"/>
  <path d="M281.01,497.31c1.35-8.49,3.02-15.72,7.77-21.82,2.71-3.49,6.02-4.46,8.69-2.6,2.54,1.78,2.69,5.05.57,8.76-3.17,5.56-6.09,11.27-9.5,16.68-.82,1.3-3.26,2.39-4.77,2.18-1.21-.16-2.14-2.43-2.76-3.21Z" style="fill: #000; stroke-width: 0px;"/>
  <path d="M267.15,497.78c-.45.53-1.36,2.58-2.55,2.76-1.45.22-3.86-.7-4.59-1.9-3.71-6.03-7.11-12.27-10.41-18.54-1.36-2.58-1.15-5.26,1.39-7.21,2.23-1.7,5.39-1.02,7.8,1.51,4.11,4.34,8.45,15.84,8.36,23.37Z" style="fill: #000; stroke-width: 0px;"/>
  <path d="M92.68,770.08c.94-1.21,1.79-3.34,3.29-3.99,1.52-.65,3.83-.23,5.5.45,1.22.5,2.34,2.03,2.85,3.35,2.25,5.85,4.45,11.75,6.21,17.76.38,1.31-.69,3.98-1.83,4.54-1.11.55-3.92-.27-4.67-1.38-3.65-5.39-6.9-11.06-10.19-16.68-.56-.96-.65-2.2-1.16-4.06Z" style="fill: #000; stroke-width: 0px;"/>
  <path d="M455.86,770.47c-.73,1.99-1.03,3.39-1.72,4.56-3.02,5.12-6.12,10.18-9.25,15.23-1.2,1.94-3.11,3.53-5.15,2.05-1.22-.88-2.23-3.52-1.82-4.93,1.72-5.9,3.93-11.67,6.14-17.42.47-1.24,1.44-2.73,2.56-3.17,1.79-.71,4.19-1.37,5.77-.71,1.56.65,2.42,2.96,3.48,4.4Z" style="fill: #000; stroke-width: 0px;"/>
  <path d="M67.64,346.28c4.38.04,6.57,2.93,5.61,6.4-.58,2.09-1.64,4.13-2.86,5.94-2.79,4.15-5.61,8.32-8.86,12.11-.99,1.15-3.85,1.96-5.03,1.34-1.14-.6-2.13-3.62-1.59-4.9,2.58-6.07,5.54-12.01,8.75-17.78.89-1.6,3.1-2.46,3.97-3.12Z" style="fill: #000; stroke-width: 0px;"/>
  <path d="M474.5,350.78c.97-1.2,1.89-3.44,3.34-3.87,1.67-.5,4.34,0,5.62,1.15,2.11,1.87,3.76,4.46,5.05,7.02,1.93,3.83,3.67,7.81,4.9,11.91.45,1.5-.25,4.12-1.39,5.13-1.82,1.59-4.06.47-5.38-1.43-3.65-5.24-7.22-10.54-10.73-15.88-.61-.93-.78-2.16-1.41-4.02Z" style="fill: #000; stroke-width: 0px;"/>
  <path d="M222.91,778.72c-.1,3.1-3.01,5.01-5.79,3.41-5.04-2.9-9.93-6.09-14.62-9.52-2.32-1.7-3.03-4.46-1.51-7.22,1.5-2.71,3.99-3.43,6.89-2.81,5.28,1.13,13.97,10.02,14.93,15.22.06.34.08.69.1.91Z" style="fill: #000; stroke-width: 0px;"/>
  <path d="M348.14,769.28c-.71.93-1.75,3.1-3.46,4.36-3.91,2.89-8.02,5.58-12.32,7.84-1.51.79-4.19.77-5.64-.08-2.1-1.23-1.48-3.66-.33-5.6,3.24-5.45,6.89-10.56,13.15-12.89,4.45-1.66,8.62.87,8.6,6.36Z" style="fill: #000; stroke-width: 0px;"/>
  <path d="M462.34,481.61c-2.09-.17-4.32.05-6.22-.65-1.49-.54-3.28-2.07-3.58-3.45-.24-1.12,1.27-3.48,2.48-3.9,5.71-1.97,11.54-3.66,17.43-5.03,3.36-.78,6.2,1.16,6.9,3.9.7,2.72-.79,5.88-4.02,6.88-4.18,1.28-8.56,1.89-12.85,2.79-.05-.18-.09-.36-.14-.54Z" style="fill: #000; stroke-width: 0px;"/>
  <path d="M85.53,482.1c-4.06-.84-8.21-1.4-12.16-2.61-3.45-1.06-4.94-4.13-4.18-7.06.75-2.86,3.65-4.65,7.25-3.79,5.64,1.35,11.24,2.95,16.69,4.9,1.31.47,2.88,2.81,2.72,4.09-.16,1.29-2.15,2.85-3.65,3.36-2.03.68-4.35.47-6.55.65-.04.16-.09.31-.13.47Z" style="fill: #000; stroke-width: 0px;"/>
  <path d="M217.77,76.2c-2.79,0-5.58.07-8.36-.02-3.76-.12-6.23-2.13-6.42-5.08-.18-2.93,2.14-5.43,5.77-5.81,7.18-.75,13.83,1.36,20.11,4.53,1.09.55,2.23,2.87,1.9,3.92-.4,1.27-2.24,2.74-3.62,2.93-3.07.44-6.24.14-9.38.14,0-.2,0-.41,0-.61Z" style="fill: #000; stroke-width: 0px;"/>
  <path d="M330.48,76.42c-2.9.14-5.84.61-8.69.28-1.52-.18-3.76-1.52-4.07-2.75-.31-1.23.98-3.73,2.23-4.35,5.87-2.92,12.13-5.02,18.78-4.27,2.14.24,4.73,1.64,5.99,3.34,2.25,3.03-.53,7.04-4.84,7.47-1.61.16-3.25.07-4.88.08-1.51,0-3.02,0-4.53,0,0,.07,0,.14,0,.21Z" style="fill: #000; stroke-width: 0px;"/>
  <path d="M123.73,76.62c.75.64,2.32,1.35,2.55,2.37.28,1.23-.18,3.11-1.05,4-1.5,1.55-3.56,2.56-5.39,3.79-3.85,2.59-7.73,5.15-11.56,7.76-3.2,2.18-6.32,2.03-8.03-.45-1.67-2.43-.83-5.88,2.46-7.65,6.02-3.25,12.23-6.14,18.38-9.15.61-.3,1.34-.35,2.63-.66Z" style="fill: #000; stroke-width: 0px;"/>
  <path d="M448.89,90.48c.07,4.51-3.65,6.99-6.91,5.03-6.47-3.88-12.71-8.16-18.84-12.55-.92-.66-1.5-3.37-.92-4.18.77-1.07,3.23-2.08,4.3-1.6,6.78,3.03,13.43,6.36,19.96,9.89,1.31.71,1.93,2.68,2.42,3.41Z" style="fill: #000; stroke-width: 0px;"/>
  <path d="M302.03,58.4c-.65-.58-2.19-1.31-2.3-2.22-.18-1.41.14-3.43,1.08-4.33,2.33-2.23,5.09-4.02,7.75-5.9,2.66-1.88,5.31-3.78,8.12-5.41,2.73-1.58,5.81-.94,7.14,1.31,1.53,2.59,1.12,5.42-1.29,6.81-6.03,3.45-12.35,6.39-18.57,9.5-.39.19-.91.12-1.92.24Z" style="fill: #000; stroke-width: 0px;"/>
  <path d="M228.52,39.45c1.44.5,2.67.67,3.58,1.3,4.99,3.39,9.94,6.85,14.82,10.39,1.81,1.32,2.95,3.17,1.61,5.42-1.34,2.24-3.46,2.14-5.51,1.13-5.31-2.6-10.68-5.12-15.84-8-3.7-2.06-4.55-6.04-2.08-8.39.94-.89,2.35-1.28,3.43-1.84Z" style="fill: #000; stroke-width: 0px;"/>
  <path d="M431.99,632.8c-1.37,7.25-4.53,12.2-8.88,16.34-.82.78-3.06.93-4.1.36-1.04-.57-2.18-2.59-1.92-3.63,1.31-5.15,2.82-10.29,4.78-15.23.97-2.44,3.74-3.69,6.15-2.35,1.83,1.02,2.97,3.3,3.97,4.5Z" style="fill: #000; stroke-width: 0px;"/>
  <path d="M123.52,627.95c.86.92,3.01,2.33,3.84,4.29,1.67,3.93,2.89,8.1,3.71,12.29.3,1.55-.59,4.27-1.78,4.92-1.16.63-4.21-.12-5.01-1.26-2.77-3.94-5.39-8.12-7.15-12.57-1.6-4.06,1.23-7.77,6.38-7.67Z" style="fill: #000; stroke-width: 0px;"/>
  <path d="M262.15,592.01c-3.64-.72-7.35-1.17-10.89-2.22-3.86-1.14-5.58-4.43-4.43-7.45,1.11-2.91,4.21-4.12,7.97-2.8,3.62,1.26,7.15,2.8,10.72,4.22,2.31.91,4.39,2.17,3.71,5.07-.68,2.92-3.17,3-5.6,2.9-.47-.02-.93-.05-1.39-.08-.02.12-.05.25-.07.37Z" style="fill: #000; stroke-width: 0px;"/>
  <path d="M286.36,591.99c-2.88-.37-6.41.65-7.22-3.32-.76-3.69,2.58-4.42,5.13-5.45,3.11-1.27,6.21-2.59,9.39-3.68,3.69-1.27,6.85-.06,7.95,2.81,1.15,3-.56,6.31-4.39,7.44-3.53,1.04-7.23,1.5-10.85,2.21Z" style="fill: #000; stroke-width: 0px;"/>
  <path d="M339.44,194.04c1.12-3.57,1.74-6.68,3.06-9.46,1.44-3.04,4.65-4.01,7.34-2.84,2.7,1.18,4.2,4.23,2.77,7.3-1.44,3.09-3.51,5.97-5.76,8.56-.79.9-3.33,1.36-4.31.76-1.41-.86-2.13-2.87-3.1-4.33Z" style="fill: #000; stroke-width: 0px;"/>
  <path d="M208.89,194.38c-1.01,1.35-1.83,3.52-3.26,4.05-1.28.48-3.72-.37-4.78-1.47-1.97-2.05-3.58-4.57-4.84-7.14-1.62-3.32-.39-6.64,2.51-8.03,2.77-1.34,6.27-.07,7.73,3.31,1.17,2.72,1.67,5.73,2.65,9.29Z" style="fill: #000; stroke-width: 0px;"/>
  <path d="M300.99,854.48c.11,4.03-3.11,6.93-6.14,5.43-4.04-2-7.56-5.13-11.04-8.08-.63-.53-.49-2.86.14-3.77.63-.91,2.57-1.78,3.52-1.46,3.93,1.35,7.79,3,11.49,4.91,1.12.58,1.63,2.35,2.03,2.96Z" style="fill: #000; stroke-width: 0px;"/>
  <path d="M251.42,860.22c-.75-.62-3.14-1.65-3.48-3.14-.39-1.73.45-4.79,1.79-5.64,3.37-2.14,7.23-3.65,11.07-4.84,2.92-.91,5.15,2.12,4.02,4.97-1.17,2.96-9.05,8.56-13.41,8.65Z" style="fill: #000; stroke-width: 0px;"/>
  <path d="M260.99,51.7c-2-1.87-4.37-3.06-4.68-4.66-.33-1.67.83-4.72,2.22-5.42,3.12-1.57,6.75-2.27,10.25-2.88,1-.17,2.76.93,3.29,1.92.52.98.41,3.19-.3,3.75-3.2,2.5-6.71,4.61-10.77,7.29Z" style="fill: #000; stroke-width: 0px;"/>
  <path d="M292.45,44.75c.04,4.19-2.99,6.72-6.31,5.48-3.31-1.24-6.38-3.3-9.23-5.43-.83-.62-1.09-2.89-.65-4.04.37-.98,2.24-2.18,3.23-2.01,3.53.59,7.07,1.47,10.38,2.79,1.32.53,2.06,2.52,2.58,3.21Z" style="fill: #000; stroke-width: 0px;"/>
  <path d="M304.86,773.17c-.12,4.27-4.22,6.54-7.4,4.21-2.85-2.09-5.22-4.93-7.45-7.73-.63-.79-.44-2.81.14-3.83.49-.85,2.48-1.76,3.16-1.41,3.66,1.91,7.17,4.12,10.59,6.43.7.47.78,1.85.96,2.32Z" style="fill: #000; stroke-width: 0px;"/>
  <path d="M254.79,763.47c3.31.79,5.33,3.6,3.7,5.85-2.21,3.06-4.9,5.92-7.91,8.15-1.12.83-4.27.25-5.52-.82-1.05-.9-1.57-4.38-.8-5.11,3.2-3.02,6.97-5.44,10.53-8.08Z" style="fill: #000; stroke-width: 0px;"/>
  <path d="M497.44,291.42c.15-1.74-.08-3.63.56-5.16.66-1.59,2.16-2.84,3.29-4.24,1.36,1.2,3.05,2.2,3.98,3.67.88,1.41,1.01,3.3,1.39,5,.57,2.53.48,5.11-1.91,6.54-1.18.7-3.6,1.01-4.41.3-1.63-1.43-2.53-3.68-3.74-5.6.28-.17.55-.34.83-.51Z" style="fill: #000; stroke-width: 0px;"/>
  <path d="M50.98,291.71c.1,4-1.99,6.61-4.98,6.47-2.97-.14-5.01-3.08-4.39-6.65.39-2.28.76-4.68,1.79-6.69.65-1.26,2.53-2.59,3.85-2.58,1.04,0,2.59,1.84,3,3.14.65,2.06.54,4.35.72,6.31Z" style="fill: #000; stroke-width: 0px;"/>
  <path d="M456.21,524.78c-2.32,3.5-3.84,6.67-6.16,9.05-2.12,2.17-5.68.3-5.53-2.84.13-2.73.5-5.69,1.76-8.02.81-1.49,3.55-2.92,5.18-2.69,1.58.22,2.86,2.6,4.74,4.5Z" style="fill: #000; stroke-width: 0px;"/>
  <path d="M104.17,531.17c-.63.86-1.26,2.56-2.38,2.99-1.13.44-3.36.1-4.02-.74-1.76-2.25-3.33-4.82-4.21-7.51-.84-2.55.39-4.93,3.18-5.77,2.87-.86,4.84.71,5.74,3.25.81,2.28,1.06,4.76,1.69,7.78Z" style="fill: #000; stroke-width: 0px;"/>
  <path d="M264.6,103.08c-.83.58-2.16,2.18-3.71,2.45-2.78.47-6.98-4.45-6.93-7.57.04-2.69,2.09-4.63,4.71-4.45,3.09.21,6.09,4.41,5.93,9.58Z" style="fill: #000; stroke-width: 0px;"/>
  <path d="M294.41,97.66c-.06,3.61-4.21,8.12-7.06,7.97-2.4-.12-3.51-1.61-3.57-3.89-.1-4.26,3.12-8.43,6.39-8.24,2.79.16,4.08,1.87,4.23,4.15Z" style="fill: #000; stroke-width: 0px;"/>
  <path d="M449.22,679.58c-2.57-.08-4.39-2.37-4.25-5.35.14-3.17,2.36-5.6,5.09-5.57,2.64.03,4.6,2.26,4.52,5.14-.09,3.13-2.63,5.87-5.36,5.78Z" style="fill: #000; stroke-width: 0px;"/>
  <path d="M103.41,674.52c-.04,3.01-1.96,5.16-4.54,5.07-2.71-.09-5.23-3.02-5.04-6.07.17-2.75,1.55-4.64,4.47-4.82,2.87-.18,5.16,2.52,5.11,5.82Z" style="fill: #000; stroke-width: 0px;"/>
  <path d="M206.26,656.57c3.53.79,6.86-.8,9.36-4.38,1.07-1.53,1.81-3.39,3.16-4.58,1.23-1.08,3.36-2.29,4.59-1.89,1.15.38,1.72,2.76,2.37,4.33.23.56-.06,1.33-.19,3,5.67-2.91,11.67-3.84,15.06-9.33,1.16-1.88,2.13-3.88,3.17-5.83,1.09-2.05,2.42-3.96,5.09-3.34,2.72.63,3.05,2.86,2.86,5.25-.04.54.08,1.1.13,1.66,2.73,0,5.33-.39,7.77.09,4.07.8,8.02,2.16,12.03,3.25,1.18.32,2.71,1.1,3.53.65,6.59-3.6,13.56-4.74,21.42-3.55,0-1.33-.3-2.45.07-3.26.66-1.46,1.51-3.53,2.69-3.86,1.22-.34,3.35.72,4.33,1.83,1.51,1.71,2.46,3.94,3.49,6.03,3.13,6.39,9.66,7.23,15.1,10.12.3-.8.47-1.02.44-1.22-.25-2.34-.79-4.95,2.1-5.97,3.22-1.13,4.5,1.47,5.89,3.65,2.84,4.44,5.86,8.59,12.15,7.18.12-.24.35-.46.31-.63-.52-2.17-1.31-4.45,1.08-5.99,2.46-1.59,4.52-.14,6.32,1.37,5.02,4.23,10.44,6.56,17.29,5.71,4.69-.58,8.68,4.33,8.85,10.17.2,6.91-3.12,12.37-7.94,16.86-2.38,2.21-3.1,4.08-2.55,7.46.61,3.76-.23,7.81-.77,11.69-.31,2.21-1.85,4.31-4.24,3.57-1.47-.45-2.85-2.45-3.5-4.06-.9-2.22-.98-4.77-1.6-7.12-.57-2.15-1.91-3.11-4.2-2.13-1.28.55-2.63.94-3.94,1.43-6.27,2.35-5.87,2.39-6.45,8.81-.32,3.54-1.9,7.13-3.65,10.29-.74,1.33-3.58,2.41-5.14,2.07-1.13-.24-2.07-2.93-2.43-4.67-.42-2.01.16-4.22-.26-6.23-.19-.91-1.73-2.13-2.7-2.17-5.33-.19-5.11.21-7.34,5.05-1.55,3.38-4.1,6.43-6.7,9.15-.94.98-3.78,1.3-4.95.59-1.17-.7-1.84-3.07-1.82-4.7.04-2.88.82-5.74,1.18-8.63.35-2.75-.63-4.67-3.42-5.7-2.15-.79-4.17-1.97-6.58-3.14-1.43,2.86-2.74,5.54-4.1,8.19-1.07,2.09-2.5,3.92-5.16,3.07-2.66-.85-2.8-3.16-2.41-5.48.62-3.65,1.3-7.29,1.96-10.92h-27.54c.61,3.46,1.26,7.07,1.9,10.69.43,2.47.36,4.87-2.5,5.73-2.67.81-4.06-1.09-5.11-3.18-1.3-2.58-2.55-5.18-3.97-8.08-2.92,1.4-5.73,2.5-8.24,4.08-.94.59-1.69,2.32-1.65,3.5.09,3.12.95,6.23.92,9.34-.02,1.84-.68,4.59-1.94,5.25-1.3.68-4.44-.03-5.42-1.24-2.58-3.16-5.1-6.69-6.39-10.49-1.52-4.51-4.92-2.67-7.5-3.12-2.56-.45-2.26,2.13-2.42,3.74-.16,1.61.39,3.35-.03,4.86-.48,1.71-1.38,4.16-2.66,4.56-1.32.43-3.82-.76-4.9-2.01-3.1-3.58-4.39-8.01-3.5-12.72.52-2.76-.39-4.16-2.86-5.03-2.41-.85-4.82-1.75-7.16-2.79-2.76-1.21-4.24-.08-4.9,2.52-.54,2.14-.97,4.32-1.32,6.5-.37,2.27-1.23,4.17-3.77,4.32-2.56.15-3.94-1.7-4.13-3.91-.39-4.35-.26-8.74-.57-13.1-.11-1.53-.55-3.21-1.37-4.48-2.62-4.06-6.2-7.67-8.03-12.03-1.25-2.99-.97-7.17,0-10.41,1.52-5.1,4.29-6.38,9.64-5.96,4.34.35,8.34-.31,11.77-3.27,1.05-.91,2.27-1.64,3.41-2.44,1.92-1.36,4.19-3.25,6.23-1.3,1.34,1.28,1.42,3.9,2.31,6.72ZM218.65,678.55c-.02.26-.05.52-.07.78.82.3,1.61.7,2.46.89,7.39,1.61,14.36.49,20.91-3.26,8.73-5,18.06-6.58,27.99-5.18,2.51.35,5.17.49,7.66.11,10.68-1.65,20.6.18,29.97,5.57,6,3.45,12.52,4.22,19.29,2.88,1.13-.22,2.22-.67,3.33-1.01-.03-.3-.07-.6-.1-.9-1.44-.34-2.89-.66-4.32-1.01-9.47-2.35-18.69-5.23-25.39-12.99-4.35-5.05-9.75-6.59-16.06-4.74-6.65,1.95-13.23,2.19-19.91.07-6.58-2.08-12.12-.27-16.66,4.94-4.57,5.26-10.47,8.46-17.07,10.44-3.99,1.2-8.02,2.28-12.03,3.42Z" style="fill: #000; stroke-width: 0px;"/>
</svg>