<?xml version="1.0" encoding="UTF-8"?>
<svg id="Layer_1" data-name="Layer 1" xmlns="http://www.w3.org/2000/svg" viewBox="0 0 695.96 900">
  <path d="M526.95,536.85c-.58,1.72-.94,2.65-1.2,3.61-10.41,38.76-23.83,76.49-38.66,113.75-.83,2.1-1.58,4.28-2.77,6.17-2.25,3.54-1.55,6.55.35,10.07,10.39,19.28,20.88,38.59,27.06,59.73,6.17,21.08,7.74,42.59.45,63.68-12.77,36.92-35.57,66.76-68.13,88.11-17.99,11.8-38.5,17.7-60.69,13.43-3.86-.74-7.84-.92-11.78-1.14-4.63-.26-8.95.88-12.89,3.4-2.95,1.89-6.2,1.91-9.61,2.27-6.1.64-10.75-2.13-16-4.08-3.95-1.47-8.6-1.16-12.96-1.42-1.77-.11-3.6.31-5.37.62-29.85,5.27-55.15-4.76-77.51-23.65-14.74-12.45-27.35-27.07-37.49-43.41-8.86-14.28-16.4-29.56-19.12-46.37-3.76-23.3-.57-45.98,9.26-67.47,6.95-15.18,14.55-30.06,21.95-45.03,1.12-2.26,1.63-4.24.65-6.73-6.05-15.32-12.08-30.65-17.93-46.05-9.51-25.03-17.58-50.53-24.54-76.37-.24-.9-.72-1.74-2.18-3.15-.35.7-.61,1.47-1.07,2.09-5.27,7.19-10.45,14.45-15.88,21.52-7.47,9.75-16.15,18.31-26.73,24.64-10.97,6.56-21.89,6.33-33.4.28-12.76-6.7-20.66-17.8-29.28-28.53-17.86-22.23-31.04-47.32-44.85-72.05-3.74-6.7-7.99-13.11-11.7-19.82-3.44-6.21-5.78-12.95-4.66-20.11.55-3.5,1.79-7.79,4.27-9.92,8.97-7.7,14.99-17.7,22.4-26.61,15.65-18.83,30.96-37.96,47.26-56.22,13.66-15.31,28.69-29.39,42.79-44.32,10.3-10.91,20.06-22.32,30.1-33.47,2.64-2.93,5.44-5.72,8.16-8.59,1.93-2.04,1.4-3.41-1.22-4.04-13-3.14-23.26-10.65-32.21-20.23-5.47-5.85-11.01-11.63-16.27-17.66-1.97-2.26-3.69-4.95-4.8-7.74-10.89-27.43-13.78-54.78,2.57-81.24,5.98-9.67,12.87-18.8,19.71-27.91,16.44-21.87,37.34-39.12,58.73-55.79,13.44-10.47,27.12-20.64,40.71-30.92,6.9-5.23,13.84-10.42,20.77-15.61,1.26-.95,2.51-1.94,3.88-2.71,6.39-3.59,12.31-1.72,16.13,4.55,10.35,16.97,20.15,34.22,28.37,52.34,2.5,5.5,2.75,5.42,7.56,1.88,4.63-3.41,9.44-6.64,13.76-10.42,3.62-3.17,6.76-6.92,9.89-10.59,5.27-6.17,10.21-12.62,15.59-18.68,5-5.64,13.89-5.63,18.95-.02,5.05,5.6,10.03,11.31,14.53,17.36,4.44,5.95,9.4,11.23,15.43,15.53,3.86,2.75,7.72,5.51,11.47,8.4,1.97,1.51,3.15,1.16,4.17-.99,1.8-3.77,3.57-7.56,5.57-11.22,6.8-12.48,13.68-24.91,20.54-37.35,1.25-2.27,2.52-4.53,3.87-6.75,3.56-5.87,9.38-7.47,15.43-4.22,1.28.69,2.57,1.48,3.63,2.47,12.65,11.86,27.74,20.46,41.4,30.98,21.29,16.4,42.86,32.45,61.84,51.54,15.65,15.75,29.1,33.35,39.97,52.74,8.43,15.04,10.31,31.35,7.62,48.26-1.74,10.94-3.32,21.97-9.42,31.56-2.47,3.88-5.24,7.68-8.45,10.95-7.26,7.4-14.69,14.66-22.42,21.56-5.46,4.86-12.25,7.57-19.27,9.55-4.63,1.31-4.9,2.11-1.54,5.67,4.88,5.17,9.97,10.14,14.77,15.39,16.3,17.81,31.63,36.61,48.96,53.36,28.39,27.45,52.28,58.53,76.46,89.47,1.86,2.38,3.91,4.74,6.3,6.54,6.63,5.01,8.82,11.73,7.27,19.46-1.03,5.13-2.66,10.37-5.18,14.92-11.47,20.61-22.64,41.44-35.31,61.3-10.04,15.74-21.93,30.32-33.31,45.18-5.47,7.15-13.28,11.58-21.4,15.06-11.31,4.84-21.91,2.34-31.69-4.46-8.68-6.03-16.23-13.33-22.73-21.63-5.71-7.28-11.09-14.81-16.64-22.22-.5-.67-1.14-1.25-2.25-2.45ZM480.39,602c-2.23.57-3.37.93-4.53,1.14-7.31,1.37-14.6,2.87-21.96,3.89-1.39.19-3.77-1.2-4.44-2.51-1.1-2.15.63-3.75,2.68-4.66,1.03-.46,2.09-.87,3.12-1.32,8.98-3.97,17.99-7.87,26.9-11.99,1.48-.69,3.13-2.14,3.65-3.61,4.71-13.17,8.82-26.57,13.86-39.6,3.73-9.64,8.3-19.01,13.08-28.19,2.35-4.51,3.47-8.54,2.63-13.75-1.23-7.64-1.85-15.5-1.54-23.22.49-12.15,3.98-23.56,11.59-33.39,1.41-1.83,3.12-3.19,5.49-2.09,2.46,1.14,2.22,3.32,1.71,5.56-.44,1.96-1.14,4.02-.91,5.94,1.3,10.86,2.99,21.68,4.28,32.55,1.75,14.76,5.53,28.72,13.8,41.35,8.01,12.23,17.19,23.49,26.98,34.27,2.4,2.64,5.24,5,8.22,6.96,1.12.74,3.74.66,4.76-.18,4.63-3.76,9.72-7.34,13.2-12.05,10.37-14.06,20.8-28.17,29.82-43.1,11.04-18.27,21.74-36.69,35.06-53.45,6.48-8.16,6.33-8.28.13-16.37-2.32-3.03-2.7-2.97-5.2.05-12.52,15.13-24.83,30.43-37.68,45.27-10.35,11.94-21.29,23.39-34.62,32.18-2.4,1.58-5.08,3.98-7.87,1.25-2.84-2.8-.45-5.51,1.29-7.79,12.35-16.12,24.46-32.44,37.3-48.17,10.2-12.49,21.27-24.27,32.06-36.26,1.87-2.08,2.12-3.63.23-5.8-3.27-3.74-6.37-7.62-9.44-11.52-1.81-2.3-3.08-1.96-4.61.34-2.56,3.85-5.25,7.62-8.02,11.33-12.21,16.34-25.54,31.61-42.38,43.44-2.11,1.48-4.33,2.99-6.72.93-2.57-2.22-1.31-4.75.15-7,4.55-7,8.67-14.35,13.87-20.84,10.51-13.12,21.57-25.78,32.48-38.57,3.05-3.58,3.18-3.64.04-7.25-3.48-4-6.96-8.01-10.48-11.97-3.26-3.67-3.26-3.49-6.36.5-12.65,16.31-25.22,32.69-38.23,48.71-5.98,7.36-13.18,13.63-21.63,18.24-2.08,1.14-4.24,1.99-6.23.05-1.96-1.9-1.41-4.17-.23-6.24,2.74-4.8,5.34-9.7,8.42-14.28,14.25-21.2,29.89-41.33,47.26-60.08,2.02-2.18,1.93-3.72-.16-5.66-2.73-2.53-5.28-5.25-7.92-7.89-2.85-2.84-3.23-2.75-5.73.32-5.77,7.09-11.42,14.29-17.49,21.11-7.91,8.88-16.64,16.89-27.29,22.5-2.12,1.12-4.34,1.68-6.21-.34-1.74-1.88-1.23-3.98-.04-5.94,2.23-3.66,4.38-7.38,6.79-10.92,9.64-14.12,20.59-27.16,32.68-39.22,2.23-2.23,2.59-3.97.25-6.22-1.95-1.88-3.81-3.86-5.56-5.93-1.98-2.36-3.41-2.11-5.32.26-8.56,10.64-19.06,19.19-29.97,27.27-1.88,1.39-4.27,2.22-5.71.14-.88-1.27-.42-3.66-.15-5.49.15-1.01,1.16-1.9,1.79-2.83,7.28-10.79,15.33-20.95,24.96-29.77,1.72-1.57,2.12-2.89.36-4.8-3.21-3.49-6.32-7.08-9.23-10.81-1.91-2.45-3.34-2.16-5.48-.26-7.09,6.29-14.32,12.42-21.53,18.58-1.9,1.63-4.09,2.92-6.28.7-2.05-2.08-.87-4.24.68-6.04,6.33-7.35,12.59-14.76,19.16-21.89,2.07-2.25,2.27-3.46.15-5.79-6.61-7.24-13.12-14.6-19.29-22.22-2-2.48-3.86-3.75-7.01-3.56-11.09.66-20.73-4.8-30.97-7.7-1.21-.34-2.75-2.53-2.64-3.73.13-1.41,1.63-3.25,3-3.87,1.98-.89,4.38-1.14,6.6-1.17,19.38-.25,37.67-5.57,55.57-12.32,4.02-1.52,7.83-4.09,11.17-6.85,8.55-7.07,15.9-15.38,22.04-24.61,12.77-19.2,14.53-39.55,2.51-59.36-8.03-13.23-17.43-25.97-28.03-37.21-11.78-12.5-25.56-23.15-38.59-34.46-19.42-16.86-38.75-33.84-60.4-47.91-2.73-1.78-4.05-1.37-5.55,1.3-6.95,12.4-13.92,24.8-21.06,37.09-9.3,15.99-18.59,32-28.29,47.75-2.97,4.82-7.01,9.08-11.07,13.09-2.73,2.7-6.5,3.07-10.04.89-2.91-1.78-4.3-5.46-3.01-9.63,1.19-3.85,2.71-7.71,4.8-11.13,4.94-8.08,10.29-15.92,15.5-23.84,2.25-3.43,2.2-3.73-1.28-5.62-9.12-4.93-17.26-11.15-24-19.04-4.47-5.23-8.62-10.73-12.98-16.06-2.94-3.6-3.48-3.61-6.36-.11-3.29,4.02-6.49,8.11-9.69,12.2-7.48,9.56-16.62,17.15-27.24,22.98-3.58,1.96-3.63,2.22-1.43,5.6,5.26,8.02,10.67,15.95,15.66,24.14,2.08,3.42,3.54,7.31,4.73,11.16,1.11,3.59.13,6.99-3.09,9.32-2.7,1.95-6.69,1.9-9.78-.65-2.84-2.34-5.69-4.95-7.69-7.99-7.44-11.31-14.85-22.67-21.67-34.36-9.67-16.56-18.82-33.43-28.2-50.17-1.27-2.26-2.59-4.5-3.9-6.74-.9-1.55-2.05-1.95-3.63-.87-5.59,3.81-11.53,7.19-16.74,11.46-17.2,14.08-34.2,28.4-51.15,42.77-10.32,8.75-20.85,17.33-30.5,26.79-11.71,11.49-21.3,24.87-29.72,38.93-9.5,15.86-10.3,32.73-3.17,49.75,4.06,9.69,10.84,17.65,17.99,25.17,5.58,5.86,11,12.25,18.75,15.32,18.12,7.17,36.68,12.69,56.4,13.18,2.24.06,4.5.38,6.7.8,2.25.43,4.48,1.69,4.02,4.15-.3,1.62-2,3.46-3.56,4.23-2.38,1.18-5.35,1.12-7.75,2.27-7.6,3.65-15.58,5.16-23.95,5.18-1.2,0-2.77.61-3.54,1.48-7.3,8.29-14.41,16.74-21.7,25.03-1.66,1.89-.99,2.96.42,4.52,6.39,7.14,12.66,14.39,18.94,21.62.66.76,1.56,1.63,1.64,2.51.12,1.44.15,3.44-.7,4.24-.84.79-2.88.72-4.26.42-1.1-.24-2.04-1.35-2.98-2.16-6.75-5.82-13.55-11.59-20.19-17.54-2.16-1.94-3.64-2.08-5.51.3-2.78,3.55-5.68,7.03-8.76,10.32-2.03,2.17-1.73,3.59.27,5.62,4.9,4.98,9.8,10.01,14.22,15.41,4.28,5.23,8,10.92,11.91,16.44,1.33,1.88,1.94,4.04.09,5.87-2.02,1.99-4.14,1.06-6.09-.4-.27-.2-.54-.41-.81-.61-10.57-7.97-20.72-16.4-29.05-26.78-1.82-2.27-3.21-1.91-4.88,0-1.55,1.79-3.19,3.51-4.8,5.24-3.57,3.85-3.52,3.8.11,7.57,14.45,14.99,27.91,30.76,38.3,48.93,1.23,2.15,2.23,4.41.23,6.54-2.15,2.29-4.67,1.45-6.77-.03-5.62-3.95-11.77-7.43-16.49-12.29-9.57-9.85-18.38-20.44-27.41-30.82-2.72-3.13-3-3.3-6-.31-2.64,2.63-5.2,5.33-7.89,7.91-1.96,1.87-1.88,3.4-.07,5.46,7.08,8.05,14.22,16.05,20.92,24.41,12.21,15.24,24.23,30.64,33.58,47.9.75,1.38,1.52,2.81,1.9,4.32.83,3.32-1.88,5.86-5.16,4.87-1.28-.38-2.48-1.09-3.63-1.78-9.05-5.39-16.53-12.67-23.04-20.75-12.03-14.93-23.6-30.23-35.28-45.44-2.97-3.88-3.05-3.99-6.34-.21-3.63,4.17-7.2,8.4-10.96,12.45-2.02,2.17-2.08,3.84.01,6.05,4.8,5.08,9.47,10.31,14.07,15.58,11.95,13.72,23.4,27.82,32.4,43.72,1.39,2.45,3.33,5.11.48,7.61-2.68,2.35-5.12.39-7.23-1.31-5.18-4.17-10.5-8.22-15.35-12.76-13.16-12.33-24.13-26.53-34.28-41.38-1.62-2.36-2.87-2.89-4.82-.37-3.03,3.93-6.17,7.78-9.4,11.55-1.77,2.06-1.51,3.59.27,5.54,9.04,9.93,18.39,19.62,26.82,30.05,14.53,17.98,28.49,36.43,42.62,54.73,1.71,2.22,3.76,4.9,1.03,7.52-2.68,2.58-5.34.5-7.57-1.17-4.78-3.58-9.7-7.05-14.06-11.11-21.07-19.59-39.02-41.96-56.79-64.47-4.21-5.33-4.12-5.4-8.04-.13-4.43,5.96-4.5,6.08-.1,12.29,6.2,8.75,12.72,17.26,18.72,26.14,12.18,18.04,21.38,37.96,34.76,55.28,6.75,8.74,12.39,18.34,21.14,25.42,8.12,6.57,9.12,6.89,16.16-.99,8.4-9.41,16.34-19.27,24.08-29.24,11.08-14.3,16.93-30.68,18.49-48.7.77-8.88,1.88-17.74,3.16-26.56.6-4.14,1.41-8.08.06-12.3-.42-1.3.71-3.89,1.91-4.65.92-.58,3.65.3,4.56,1.38,2.31,2.73,4.37,5.78,5.96,8.99,6.79,13.73,8.38,28.36,5.77,43.25-1.41,8.04-2,15.36,4.03,21.77.15.16.22.39.31.6,8.97,20.35,17.72,40.79,23.74,62.25.85,3.01,2.38,4.87,5.22,6.08,9.44,4.05,18.81,8.25,28.21,12.38,2.19.96,4.29,2.14,3.63,4.92-.66,2.81-3.11,3.08-5.46,2.66-7.1-1.26-14.17-2.65-21.26-4-1.13-.21-2.26-.45-4.12-.82,2.94,8.75,5.61,16.75,8.36,24.73.23.67.94,1.34,1.6,1.67,7.89,3.86,15.63,8.22,24.58,9.21,6.16.68,12.38.96,18.51,1.85,1.48.21,3.68,2.01,3.8,3.26.12,1.24-1.71,3.58-3.08,3.93-11.9,3.07-23.9,4.98-36.01.87-.68-.23-1.45-.21-2.95-.4,1.09,2.57,2.06,4.55,2.77,6.63,1.08,3.16,2.76,6.36,2.81,9.57.1,6.58-2.37,12.67-6.29,17.92-6.48,8.66-11.66,18-15.21,28.17-3.01,8.63-5.71,17.37-8.27,26.15-5.65,19.38-5.98,38.47,3.2,57.09,1.57,3.19,3.62,5.19,6.97,6.31,11.99,3.99,24.31,5.93,36.91,6.36,2.41.08,4.71.63,4.99,3.49.28,2.86-1.88,3.82-4.21,4.41-9.03,2.28-18.15,3.58-27.5,2.47-.94-.11-1.9-.02-3.27-.02.41.9.52,1.48.87,1.84,7.85,8.09,15.67,16.21,23.66,24.16.87.86,2.68,1.07,4.06,1.07,3.49,0,7.05-.83,10.44-.33,9.87,1.46,19.07-.35,27.95-4.58,4.48-2.14,8.9-4.45,13.53-6.2,1.38-.52,3.87.12,4.9,1.16.64.64.06,3.77-.95,4.57-11.46,9.21-23.48,17.35-38.95,17.88-.6.02-1.2.27-2.11.49.48.61.67,1.09,1.01,1.24,9.71,4.46,19.37,9.03,29.22,13.18,1.78.75,4.56.25,6.47-.59,13.46-5.96,26.49-12.66,37.1-23.21,1.77-1.76,3.76-2.28,6.14-.9.67.39,1.97.28,2.71-.11,2.28-1.22,4.18-.71,5.86.94,10.31,10.16,22.93,16.66,35.82,22.78,3.3,1.56,6.52,2.21,9.76.76,9.24-4.16,18.38-8.55,27.54-12.88.41-.19.65-.74.91-1.05-4.94-.94-9.77-1.46-14.37-2.8-9.69-2.83-17.83-8.6-25.76-14.64-1.99-1.52-3.83-3.33-2.09-5.94,1.6-2.41,3.9-1.52,6.06-.53,5.64,2.58,11.3,5.13,16.97,7.64,5.89,2.61,12.03,3.6,18.49,3.2,4.36-.27,8.79-.36,13.13.02,3.85.34,6.71-.8,9.31-3.54,6.45-6.79,13.03-13.44,19.52-20.19.8-.83,1.37-1.89,2.04-2.83-.54-.4-.71-.64-.88-.64-1.24.03-2.47.06-3.7.18-9.12.88-18.01-.48-26.8-2.77-2.12-.55-3.89-1.67-3.69-4.15.21-2.67,2.25-3.41,4.58-3.56,2.14-.14,4.28-.26,6.42-.38,10.78-.61,21.29-2.64,31.43-6.29,2.17-.78,4.69-2.35,5.7-4.27,7.05-13.34,9.74-27.56,7.61-42.6-2.33-16.45-7.69-32.08-13.82-47.35-3.32-8.26-8.76-15.67-13.35-23.4-5.46-9.21-9.29-18.47-2.59-28.79.89-1.38,1.15-3.16,1.85-5.17-1.27.14-1.73.11-2.13.25-12.18,4.25-24.29,2.39-36.38-.46-2.16-.51-3.88-1.58-3.72-4.08.16-2.55,2.09-3.3,4.27-3.48,2.47-.21,4.96-.26,7.44-.43,10.44-.72,20.38-2.96,29.98-7.55,5.83-2.78,8.7-6.6,10.14-12.57,1.32-5.44,3.46-10.68,5.59-17.05ZM347.82,849.46c-3.91,10.05-9.88,17.16-17.78,22.69.57.66.74.99,1,1.13,5.15,2.71,10.27,5.47,15.5,8,.83.4,2.31.08,3.23-.4,3.78-1.96,7.43-4.17,11.19-6.17,1.42-.76,3-1.22,5.39-2.17-8.61-5.91-14.55-13.05-18.53-23.08Z" style="fill: #000; stroke-width: 0px;"/>
  <path d="M503.75,212.19c-1.3-.97-2.15-1.64-3.03-2.26-18.79-13.35-36.75-27.71-53.22-43.89-8.78-8.63-16.3-18.11-20.95-29.64-.4-1-1.05-1.89-1.8-3.21-1.23,1.1-2.13,1.9-3.02,2.71-5.32,4.89-10.61,9.8-15.96,14.64-1.16,1.05-2.46,2.02-3.85,2.74-2.41,1.25-4.88,1.3-6.76-.97-1.94-2.34-1.27-4.82.58-6.75,11.24-11.71,22.41-23.5,33.95-34.91,6.35-6.27,12.97-12.18,17.87-19.78,3.08-4.79,8.12-5.44,12.54-1.82,2.43,1.99,4.63,4.3,6.79,6.6,6.21,6.57,13.42,11.61,21.72,15.27,9.51,4.19,18.78,8.91,26.79,15.69,12.81,10.85,19.79,24.33,20.17,41.5.36,16.4-2.3,32.01-11.75,45.38-4.24,6-11,10.63-17.4,14.61-11.01,6.86-23.48,6.32-35.85,4.81-2.57-.31-5.13-.84-7.65-1.41-3.78-.86-5.65-2.89-5.53-5.79.12-2.95,2.1-4.96,5.94-5.31,6.18-.55,12.38-.79,18.58-1.17,6.24-.38,12.38-1.18,17.93-4.33,1.23-.7,2.33-1.61,3.92-2.73Z" style="fill: #000; stroke-width: 0px;"/>
  <path d="M192.11,212.28c4.32,3.48,8.75,5.38,13.6,6,5.36.68,10.78.91,16.18,1.33,3.71.29,7.44.44,11.13.89,2.95.36,5.19,1.95,5.36,5.15.16,3.03-1.8,4.93-4.54,5.55-20.48,4.65-39.84,4.28-56.31-11.51-10.09-9.67-14.51-21.8-16.43-35.02-.97-6.65-.9-13.52-.61-20.27.77-17.74,9.89-30.95,23.94-40.8,6.79-4.76,14.26-8.73,21.82-12.19,9.42-4.32,17.52-10.15,24.51-17.7,1.75-1.9,3.62-3.76,5.71-5.26,3.84-2.76,8.5-2.27,11.04,1.68,6.65,10.34,16.06,17.92,24.86,26.17,5.34,5.01,10.13,10.59,15.15,15.93,3.86,4.11,7.66,8.27,11.56,12.34,2.67,2.8,3.23,5.61,1.37,7.8-1.85,2.18-5.06,2.56-7.92.15-6.2-5.23-12.13-10.8-18.16-16.24-.98-.89-1.92-1.83-3.06-2.93-.62.71-1.21,1.11-1.42,1.66-6.33,16.46-18.09,28.84-31.14,39.91-14.35,12.18-29.4,23.54-44.14,35.26-.69.54-1.35,1.12-2.5,2.08Z" style="fill: #000; stroke-width: 0px;"/>
  <path d="M376.63,813.59c-3.01-.94-7.84-2.31-12.56-3.99-1.98-.71-3.88-1.9-5.56-3.2-7.02-5.46-13.78-5.41-21.03-.12-13.05,9.52-26.76,8.53-40.63,1.75-4.89-2.39-8.7-6.02-11.76-10.45-2.05-2.97-3.94-6.05-5.84-9.12-3.1-5.03-7.18-8.96-12.65-11.35-.31-.14-.6-.32-.9-.47-3.74-1.89-6.58-4.51-6.62-9.03-.04-4.63,2.93-7.45,6.52-9.59,2.41-1.44,5.05-2.51,7.66-3.57,4.8-1.95,8.84-4.86,12.28-8.75,4.98-5.63,10.8-10.21,17.54-13.61,8.26-4.17,16.76-4.97,25.6-2.13,5.9,1.9,11.81,3.77,17.75,5.53.98.29,2.21.15,3.22-.15,6.7-1.99,13.31-4.28,20.05-6.1,8.49-2.29,16.77-1.03,24.11,3.59,5.58,3.51,10.87,7.69,15.61,12.26,4.22,4.07,8.58,7.51,13.98,9.84,3.47,1.5,7.05,3.23,9.86,5.69,5.23,4.57,4.57,11.98-1.63,14.93-8.64,4.11-14.29,10.7-18.77,18.78-7.43,13.42-19.93,17.79-36.26,19.26ZM299.78,762.22c1.02.17,1.84.42,2.65.42,6.76-.02,13.55-.42,20.28-.04,8.29.47,16.72.82,23.97,5.87.57.4,1.82.11,2.63-.19,3.45-1.27,6.77-2.98,10.29-3.96,10.85-3.03,21.99-1.09,32.99-1.68,1.11-.06,2.21-.24,3.32-.36-3.01-2.97-6.23-4.99-9.26-7.28-8.18-6.19-16.92-7.62-26.37-3.35-8.44,3.81-16.67,3.26-25.22-.06-12.29-4.78-26.51-.34-35.29,10.63ZM298.43,777.15c3.74,4.34,6.69,7.87,9.77,11.29,2.24,2.48,5.29,3.24,8.38,2.53,4.67-1.09,9.19-2.82,13.85-3.94,4.76-1.15,9.6-1.98,14.44-2.75,1.86-.3,3.83.12,5.73-.05,5.69-.51,10.77,1.2,16.02,3.28,4.81,1.91,10.14,2.6,15.3,3.51,1.25.22,3.12-.42,4.03-1.33,3.76-3.78,7.26-7.81,11.56-12.52h-99.07Z" style="fill: #000; stroke-width: 0px;"/>
  <path d="M375.09,433.07c2.27,1.56,4.39,2.83,6.28,4.39,2.64,2.17,2.93,5.43.88,7.39-2,1.9-5.44,1.49-7.31-1.34-1.67-2.51-2.79-5.4-4.15-8.12.24-.13.48-.26.72-.39-.32-.1-.62-.27-.95-.3-8.54-.88-11.56-5.62-7.45-13.1,2.89-5.26,6.99-9.91,10.82-14.61,21.19-25.95,42.87-51.51,63.56-77.85,11.84-15.07,22.1-31.37,28.84-49.56,1-2.69,2.96-4.38,5.64-3.85,4.47.89,9.23,1.67,13.1,3.86,6.24,3.52,10.33,9.29,12.5,16.24,1.03,3.31.12,5.89-2.64,8.03-10.09,7.83-18.17,17.52-25.38,27.95-.95,1.38-1.26,4-.63,5.54,6.79,16.64,10.17,33.93,10.14,51.84-.02,13.53-.16,27.07-.82,40.58-.55,11.17-5.43,20.53-13.62,28.26-7.3,6.9-15.67,9.78-25.67,8.5-16.66-2.12-29.82-10.58-40.88-22.59-4.49-4.87-8.31-10.39-12.06-15.87-1.83-2.67-3.02-2.74-5.07-.49-1.74,1.9-3.76,3.54-5.85,5.47ZM456.23,351.04c-1.41,1.28-1.95,1.67-2.36,2.17-9.94,12.22-21.46,22.81-33.55,32.82-9.67,8.01-18.58,16.75-26.24,26.74-1.14,1.49-1.69,2.65-.45,4.48,10.08,14.75,23.42,25.44,39.87,32.33,7.38,3.09,11.23,2.27,16.32-4,5.75-7.09,9.44-15.3,10.25-24.31,1.67-18.56,1.66-37.17-.6-55.7-.56-4.63-2.01-9.15-3.24-14.52Z" style="fill: #000; stroke-width: 0px;"/>
  <path d="M324.8,435.39c-1.34,2.72-2.42,5.62-4.08,8.13-1.87,2.83-5.26,3.22-7.34,1.33-2.06-1.88-1.75-5.2.9-7.38,1.89-1.55,4.01-2.84,6.25-4.4-2.34-2.2-4.67-4.42-7.03-6.61-1.78-1.66-2.43-.07-3.33,1.13-4.04,5.42-7.77,11.14-12.29,16.14-9.97,11.03-21.85,19.28-36.78,22.07-19.27,3.6-36.18-6.81-41.48-25.82-1.68-6.03-2.52-12.42-2.77-18.69-.76-18.72-1.36-37.54,2.15-56.04,1.77-9.36,5.08-18.45,7.97-27.58.73-2.31.72-4.07-.68-5.98-7.5-10.22-15.41-20.05-25.56-27.83-2.23-1.71-3.54-3.78-2.89-6.7,2.21-10.03,12.55-21.63,25.55-21.52,2.6.02,4.74.83,5.66,3.42,5.59,15.83,14.58,29.85,24.3,43.26,11.44,15.79,23.77,30.96,36.1,46.09,12.55,15.39,25.64,30.33,38.32,45.61,2.33,2.81,4.3,6.14,5.62,9.54,2.49,6.42-.47,10.57-7.34,11.1-.66.05-1.31.13-1.96.19.24.18.47.36.71.54ZM239.94,351.58c-.47,1.06-.83,1.64-.99,2.27-.8,3.17-1.83,6.31-2.28,9.53-2.71,19.41-2.72,38.93-.83,58.37.95,9.79,5.02,18.7,12.06,25.92,3.47,3.56,7.57,4.84,12.31,2.7,13.12-5.92,25.87-12.36,34.78-24.33,2.08-2.8,4.25-5.56,6.59-8.15,1.71-1.9,1.73-3.46.01-5.26-6.97-7.35-13.46-15.23-20.97-21.97-13.5-12.13-27.62-23.57-39.07-37.81-.32-.4-.83-.66-1.61-1.26Z" style="fill: #000; stroke-width: 0px;"/>
  <path d="M347.9,664.03c-3.38,3.27-6.72,6.6-10.16,9.81-9.15,8.56-26.12,6.12-32.48-4.69-3.92-6.67-5.67-14.1-6.09-21.66-.51-8.98-.47-18.04-.03-27.03.48-9.85,4.05-18.85,8.76-27.51,1.51-2.77,2.02-6.42,1.96-9.65-.28-16.47-.89-32.93-1.39-49.4-.4-13.18-.87-26.37-1.15-39.55-.04-2.08.56-4.25,1.26-6.24,1.04-2.94,3.34-4.58,6.48-4.53,3.01.05,5.12,1.73,6.14,4.52.61,1.67,1.04,3.47,1.2,5.25,1.5,16.28,3.32,32.55,4.25,48.87.88,15.3.78,30.66,1.14,46,.05,2.25.08,4.52.36,6.75.69,5.5-1.1,9.72-5.31,13.48-2.37,2.11-4.57,5.3-5.17,8.34-2.58,12.99-2.37,26.04,1.37,38.85.53,1.81,1.87,3.59,3.29,4.89,1.34,1.22,2.8,1.16,3.21-1.37.98-6.05,3.06-8.33,9.13-8.98,3.71-.4,7.54.29,11.32.47,1.21.06,2.54.35,3.61-.04,4.46-1.63,8.9-1.2,13.34-.12,4.16,1,6.65,3.58,7.19,7.95.12.93.68,2.59.94,2.57,1.15-.08,2.5-.39,3.33-1.12.96-.84,1.72-2.14,2.1-3.38,4.1-13.59,4.29-27.37,1.2-41.13-.57-2.51-2.56-5.1-4.61-6.8-4.56-3.78-5.99-8.24-5.58-14.04.58-8.2.22-16.47.63-24.69.69-13.73,1.62-27.45,2.56-41.17.79-11.48,1.71-22.95,2.64-34.41.16-2,.45-4.06,1.11-5.94,1.01-2.89,3.18-4.7,6.35-4.75,3.2-.05,5.37,1.78,6.42,4.63.72,1.97,1.23,4.17,1.21,6.25-.14,11.38-.45,22.76-.76,34.14-.41,15.23-.37,30.49-1.47,45.67-.7,9.66.57,18.19,5.33,26.83,3.04,5.53,4.14,12.4,4.97,18.81,1.64,12.58,1.47,25.23-1.57,37.68-.35,1.42-.73,2.84-1.17,4.24-4.47,14.03-14.61,19.72-28.85,15.93-2.39-.64-4.75-2.11-6.65-3.75-3.65-3.13-6.95-6.66-10.36-9.99Z" style="fill: #000; stroke-width: 0px;"/>
  <path d="M463.69,780.37c.5-4.48,1.12-8.95,1.49-13.44,1.25-15.21-3.17-28.75-12.33-40.82-4.02-5.3-8.38-10.36-12.17-15.81-5.19-7.46-8.36-15.78-8.09-25.01.08-2.97.65-6.18,1.98-8.78,1.13-2.22,3.39-4.37,5.67-5.33,1.59-.67,4.66.1,5.94,1.37,1.13,1.11,1.63,4.38.81,5.71-4.02,6.48-2.39,12.79.41,18.74,2.32,4.94,5.57,9.53,8.88,13.91,8.21,10.85,15.7,22.07,19.85,35.18,2.3,7.28,3.45,14.71,2.27,22.36-.9,5.87-3.26,11.08-7.66,15.08-1.1,1-3.45,1.59-4.79,1.12-1.29-.45-2.03-2.5-3.02-3.85.25-.14.5-.29.75-.43Z" style="fill: #000; stroke-width: 0px;"/>
  <path d="M216.91,762.02c.14-9.21,2.3-18.05,6.76-25.97,5.13-9.11,11.02-17.82,16.96-26.43,4.25-6.16,8.71-12.1,9.97-19.74.62-3.74.77-7.31-1.56-10.72-1.59-2.33-1.6-5.03.66-7.1,2.2-2.01,4.81-1.85,7.23-.41,4.17,2.49,5.68,6.59,6.1,11.14.9,9.89-2.23,18.74-7.55,26.86-2.59,3.95-5.49,7.75-8.62,11.29-14.38,16.3-19.23,35.1-15.2,56.34.52,2.74,1.49,5.95-1.9,7.47-3.53,1.58-5.36-1.39-7.13-3.66-4.35-5.59-5.86-12.1-5.73-19.07Z" style="fill: #000; stroke-width: 0px;"/>
  <path d="M286.66,292.33c-13.55-.08-23.28-6.95-31.97-15.73-1.91-1.93-2.18-4.54-.14-6.73,2.03-2.19,4.44-1.87,6.78-.47.76.46,1.4,1.13,2.08,1.73,8.15,7.24,17.66,10.43,28.45,8.77,5.77-.89,11.4-2.66,17.11-3.98,1.3-.3,2.74-.71,3.94-.41,1.01.26,2.46,1.47,2.48,2.3.04,1.37-.5,3.33-1.51,4.07-8.23,6.04-17.14,10.45-27.21,10.46Z" style="fill: #000; stroke-width: 0px;"/>
  <path d="M408.14,292.31c-9.31-.11-18.14-4.42-26.25-10.39-1.09-.8-1.98-3.69-1.4-4.49.85-1.18,3.24-2.1,4.73-1.82,4.74.88,9.34,2.54,14.06,3.59,12.73,2.83,24.11.27,33.81-8.8,2.71-2.53,5.82-2.74,7.9-.82,1.87,1.73,2.13,4.85-.01,7.01-8.76,8.86-18.55,15.8-32.83,15.71Z" style="fill: #000; stroke-width: 0px;"/>
  <path d="M385.49,240.84c-8.88-.33-15.91-5.78-22.01-12.69-.8-.9-.79-3.53-.05-4.51.76-.98,3.05-1.51,4.4-1.17,3.03.77,5.86,2.31,8.84,3.32,5.27,1.8,10.55,3.08,16.15.97,2.59-.97,5.25-.33,6.75,2.34,1.55,2.76.71,5.31-1.43,7.35-3.26,3.11-7.29,4.34-12.65,4.38Z" style="fill: #000; stroke-width: 0px;"/>
  <path d="M310.02,240.84c-5.35-.11-9.48-1.38-12.75-4.7-1.92-1.95-2.47-4.34-1.21-6.83,1.31-2.59,3.84-3.56,6.31-2.64,7.24,2.7,13.74.23,20.31-2.24,1.79-.67,3.51-1.82,5.34-2.01,1.43-.15,3.5.44,4.32,1.47.69.87.58,3.37-.19,4.25-6.07,6.96-13.1,12.41-22.14,12.7Z" style="fill: #000; stroke-width: 0px;"/>
  <path d="M292.99,523.04c0,5.53.03,11.05-.01,16.58-.02,2.3-.6,4.49-3.37,4.62-2.79.14-3.59-2.05-3.78-4.3-.91-10.9-1.81-21.81-2.54-32.72-.27-4.08,1.94-6.79,4.96-6.78,3.03,0,5.13,2.66,5.17,6.69.05,5.3.01,10.61.01,15.91-.15,0-.3,0-.45,0Z" style="fill: #000; stroke-width: 0px;"/>
  <path d="M402.21,523.13c0-4.85,0-9.7,0-14.55,0-.79-.04-1.58.03-2.37.32-3.46,2.37-5.76,5.08-5.74,2.93.02,5.13,2.41,5.1,6-.04,4.06-.3,8.12-.63,12.16-.56,6.86-1.25,13.71-1.91,20.56-.24,2.45-.65,5.09-3.8,5.03-3.23-.05-3.43-2.72-3.45-5.19-.03-5.3-.01-10.6-.01-15.91h-.42Z" style="fill: #000; stroke-width: 0px;"/>
  <path d="M290.08,469.96c-1.64-1.32-3.74-2.36-4.8-4.04-1.41-2.23-.55-4.89,1.53-6.33,6.1-4.22,12.33-8.25,18.68-12.08,1.02-.61,3.24-.25,4.28.51.88.65,1.4,2.62,1.16,3.83-1.29,6.62-12.22,16.46-18.94,17.31-.45.06-.9.08-1.34.12-.19.22-.38.45-.56.67Z" style="fill: #000; stroke-width: 0px;"/>
  <path d="M404.16,469.9c-2.97-1.52-6.43-2.51-8.78-4.69-3.75-3.48-6.96-7.62-9.94-11.8-.82-1.16-.7-4.09.21-5.07.91-.97,3.8-1.29,5.04-.56,6.12,3.57,12.06,7.47,17.9,11.48,2.21,1.52,2.94,4.02,1.91,6.65-1.05,2.7-3.38,3.41-6.34,4Z" style="fill: #000; stroke-width: 0px;"/>
  <path d="M293.63,266.36c-.55-.04-1.47,0-2.34-.18-2.79-.59-4.85-2.08-4.93-5.15-.07-2.88,1.71-4.66,4.36-5.27,2.84-.65,5.8-.81,8.66-1.37,3.53-.69,7.03-1.59,10.54-2.39,2.12-.48,4.17-.4,5.26,1.82,1.1,2.25-.09,3.92-1.9,5.17-5.83,4.01-12.02,7.11-19.65,7.37Z" style="fill: #000; stroke-width: 0px;"/>
  <path d="M400.68,266.32c-6.4-.26-12.88-3.35-18.71-7.76-1.08-.82-1.87-3.44-1.35-4.57.52-1.14,2.94-2.21,4.34-2.01,6.57.96,13.08,2.31,19.59,3.65,3.32.69,5.16,3.18,4.77,5.96-.43,3.05-3.19,4.78-8.63,4.72Z" style="fill: #000; stroke-width: 0px;"/>
  <path d="M302.6,314.22c-4.24.05-7-1.91-7.33-4.99-.31-2.92,1.76-5.22,5.53-6.18,5.25-1.33,10.5-2.65,15.74-4.03,2.42-.63,4.9-1.05,6.18,1.7,1.28,2.75-.71,4.41-2.69,5.86-5.33,3.91-10.9,7.29-17.43,7.64Z" style="fill: #000; stroke-width: 0px;"/>
  <path d="M392.27,314.15c-6.67-.53-12.86-4.31-18.41-9.21-.89-.79-1.38-3.21-.83-4.16.67-1.14,2.82-2.31,4.04-2.06,6.59,1.37,13.14,3.02,19.6,4.92,2.7.79,4.15,3.08,3.63,6.09-.49,2.87-3.16,4.49-8.03,4.41Z" style="fill: #000; stroke-width: 0px;"/>
  <path d="M298.22,571.64c-.3,3.46-.2,6.24-.91,8.81-.39,1.43-2.04,3.35-3.28,3.49-1.24.13-3.57-1.46-3.91-2.7-1.47-5.42-2.66-10.95-3.41-16.51-.5-3.73,1.76-6.36,4.76-6.68,2.92-.32,5.47,1.88,6.06,5.59.45,2.88.51,5.83.69,8.01Z" style="fill: #000; stroke-width: 0px;"/>
  <path d="M397.49,571.68c.19-2.32.25-5.38.74-8.38.57-3.48,3.17-5.57,5.99-5.27,2.85.3,5.28,2.93,4.8,6.33-.82,5.78-2.09,11.52-3.6,17.16-.31,1.15-2.57,2.56-3.79,2.45-1.22-.12-2.91-1.85-3.24-3.17-.69-2.69-.61-5.58-.9-9.13Z" style="fill: #000; stroke-width: 0px;"/>
  <path d="M372.73,320.76c1.57,0,3.18-.18,4.72.04,3.01.43,4.94,2.68,4.58,5.28-.4,2.94-2.54,4.6-5.16,4.31-3.52-.38-7.05-1.42-10.37-2.69-1.04-.4-2.14-2.6-1.94-3.74.21-1.16,1.86-2.45,3.15-2.92,1.52-.55,3.33-.28,5.02-.37v.09Z" style="fill: #000; stroke-width: 0px;"/>
  <path d="M323.73,320.69c1,.06,2.82-.19,4.31.39,1.26.49,2.85,1.85,3.01,3.01.17,1.16-.96,3.26-2.03,3.69-3.09,1.25-6.38,2.19-9.68,2.66-3.06.43-5.53-1.83-5.73-4.47-.2-2.66,1.89-4.91,5.05-5.25,1.44-.16,2.92-.03,5.06-.03Z" style="fill: #000; stroke-width: 0px;"/>
  <path d="M454.47,412.85c-.34,8.01-3.7,15.55-10.53,21.35-6.58,5.59-14.84,5.78-21.85.76-13.08-9.38-12.29-28.61,1.67-37.48,2.53-1.61,5.42-2.93,8.32-3.6,13.39-3.08,22.38,4.27,22.4,18.97Z" style="fill: #000; stroke-width: 0px;"/>
  <path d="M241.35,413.69c.03-15.36,8.78-22.68,21.89-19.93,10.47,2.2,16.67,9.19,19.25,19.21,2.27,8.84-1.38,15.96-8.19,21.47-7.22,5.84-16.28,5.48-23.15-.8-6.39-5.85-9.68-13.18-9.8-19.95Z" style="fill: #000; stroke-width: 0px;"/>
</svg>