<?xml version="1.0" encoding="UTF-8"?>
<svg id="Layer_1" data-name="Layer 1" xmlns="http://www.w3.org/2000/svg" viewBox="0 0 632.34 900">
  <path d="M143.85,758.87c-2.61.26-4.49.46-6.38.64-10.73,1.03-21.46,1.3-31.44-3.48-4.42-2.12-8.24-5.45-12.46-8.04-1.53-.94-3.43-1.85-5.13-1.8-4.99.14-9.95.94-14.93,1.18-14.57.71-27.43-3.77-38-13.79-19.01-18.02-32.4-39.2-34.94-65.94-1.49-15.72.02-31.32,3.08-46.78,3.7-18.72,9.48-36.71,18.84-53.45,4.75-8.5,10.37-16.28,17.6-22.84,1.56-1.42,2.62-2.75.85-4.87-9.91-11.9-14.79-26.05-17.15-41.01-3.26-20.65-2.16-41.24,2.98-61.52,1.02-4.04,3.14-7.78,4.42-11.77.44-1.38.46-3.62-.36-4.56-23.44-26.93-26.73-58.19-19.85-91.63,3.26-15.83,7.78-31.31,14.01-46.25,1.06-2.54.89-4.33-1.05-6.39-12.61-13.38-17.98-29.54-18.7-47.72-1.66-41.8,14.11-76.44,42.06-106.64,18.69-20.2,40.71-34.62,66.99-42.68,9.12-2.8,17.97-7.08,27.27-8.49,8.86-1.34,14.69-5.26,20.53-11.67,14.28-15.67,32.3-26.23,51.32-35.31C239.69,11.49,267,2.66,296.14.38c5.76-.45,11.66.94,17.49,1.44,1.44.12,3.02.47,4.32.05,6.54-2.1,13.15-2.17,19.89-1.48,38.99,4.01,74.48,17.88,107.48,38.49,11.9,7.44,22.36,16.69,31.28,27.65,1.19,1.46,3.5,2.21,5.44,2.78,2.15.64,4.56.42,6.71,1.05,21.05,6.16,42.56,11.63,61.24,23.41,35.53,22.39,60.95,53.21,72.56,94.13,5.01,17.67,5.39,35.94,2.66,54.09-1.98,13.13-7.82,24.63-17.02,34.27-2.02,2.11-2.31,3.92-1.24,6.65,9.18,23.37,16.37,47.25,17.23,72.59.81,23.91-6.17,45.28-21.78,63.58-2.14,2.51-2.64,4.48-1.07,7.55,5.32,10.41,6.93,21.79,7.9,33.27,1.63,19.28,1.33,38.36-5.49,56.85-3.01,8.16-6.64,15.95-12.36,22.58-1.43,1.66-1.79,3.06-.08,4.69,22.26,21.16,31.36,48.71,37.25,77.66,3.71,18.24,5.51,36.77,1.61,55.18-5.3,24.98-18.93,45.07-38.74,60.83-10.21,8.12-22.43,10.62-35.36,9.56-4.19-.35-8.36-.96-12.55-1.11-1.54-.06-3.59.38-4.6,1.4-8.79,8.93-19.78,12.16-31.84,12.4-6.09.12-12.19-.49-18.78-.79.37,1.24.64,2.39,1.04,3.48,5.89,15.95,10.39,32.21,11.37,49.3,1.1,19.08-2.31,36.92-14.42,52.33-10.09,12.84-23.6,20.74-38.67,26.28-16.15,5.93-32.96,9.02-50.05,9.35-20.42.39-40.86-.35-61.28-.91-5.29-.15-10.54-1.61-15.84-2.22-2.79-.32-5.66-.32-8.45-.07-10.39.94-20.75,2.71-31.14,2.95-17.92.42-35.9.66-53.78-.36-21.85-1.25-42.96-6.29-61.92-17.93-20.84-12.81-32.21-31.53-33.87-55.96-1.28-18.9,2.52-37.07,8.6-54.85,1.27-3.7,2.52-7.41,3.97-11.67ZM479.04,517.34c.13.47.13.72.25.89.27.36.58.7.91,1,7.66,6.74,12.38,15.3,15.29,24.95,2.67,8.86,3.15,17.86,1.59,26.98-.38,2.19-1.32,3.99-3.83,4.06-2.51.07-3.53-1.69-4.07-3.84-.28-1.1-.5-2.22-.77-3.32-2.47-10.17-6.32-19.79-13.03-27.86-3.5-4.2-8.09-7.51-12.27-11.13-1.68-1.45-3.3-.99-4.75.65-1.58,1.79-3.18,3.57-4.94,5.17-1.93,1.74-4.27,2.22-6.61.86-2.3-1.34-2.59-3.57-2.12-5.97.23-1.22.73-2.44.72-3.66-.03-8.69,4.07-15.31,11.31-19.3,5.98-3.3,12.74-5.22,19.21-7.61,16.39-6.05,32.63-4.41,48.69,1.31,15.76,5.62,29.92,14.18,43.41,23.95,1.05.76,2.15,1.47,3.43,2.35,1.1-2.38,3.75-4.29,0-6.13-6.78-3.33-11.9-8.64-16.92-14.09-1.64-1.78-2.82-3.8-1.11-6.08,1.59-2.13,3.78-1.7,5.87-.74,5.37,2.46,10.72,4.96,16.08,7.43,1.08.5,2.19.93,3.62,1.54.63-2.15,1.09-3.88,1.64-5.58.69-2.14-.17-3.19-2.25-3.65-8.49-1.9-15.3-6.72-21.56-12.49-1.83-1.69-3.53-3.54-2.23-6.19,1.41-2.86,3.99-2.46,6.54-1.81,5.94,1.53,11.88,3.05,17.84,4.52,3.62.89,4.28.48,4.41-3.31.17-4.76.09-9.54.04-14.31-.01-1.04-.36-2.08-.59-3.38-1.2.44-1.95.65-2.65.97-8.26,3.75-16.78,3.79-25.31,1.36-1.58-.45-3.64-2.56-3.72-3.99-.08-1.41,1.9-3.18,3.34-4.34,1.08-.86,2.74-1,4.15-1.43,6.41-1.95,12.82-3.92,19.24-5.83,2.48-.73,3.35-2.11,2.28-4.57-.36-.83-.61-1.71-.86-2.59-.63-2.26-1.76-2.82-4.02-1.74-22.89,10.97-46.79,12.29-71.21,6.85-40.5-9.03-65.37-35.27-71.89-75.88-4.28-26.64-1.86-52.78,7.02-78.29,1.75-5.04,1.79-5-3.15-6.42-26.32-7.55-48.74-21.39-67.08-41.74-26.9-29.84-30.59-64.84-8.97-98.66,23.22-36.32,56.57-58.62,98.92-67.23,1.18-.24,2.35-.49,3.52-.74.12-.36.24-.72.36-1.07-10-6.32-20-12.65-30-18.97-.31.28-.62.56-.92.84,0,1.33.04,2.67,0,4-.22,6.74-2.99,12.37-8.02,16.7-1.25,1.08-3.97,1.62-5.37.98-1.11-.5-2.05-3.39-1.67-4.86,3.31-12.84-2.78-22.25-10.94-30.89-2.41-2.55-5.73-3.63-9.09-4.43-.25.83-.4,1.06-.36,1.25.23,1.11.49,2.22.76,3.32,2.57,10.63,1.85,20.98-2.73,30.97-1.2,2.61-2.1,6.1-6.02,5.27-3.77-.8-3.14-4.24-3.21-7-.3-11.42-2.57-22.3-8.22-32.37-1.71-3.04-3.09-6.27-4.71-9.36-.4-.76-1.06-1.7-1.78-1.91-6.86-1.92-13.76-3.71-20.66-5.51-.12-.03-.32.28-.71.64.41,1.05.84,2.19,1.31,3.31,5.1,12.1,6.19,24.57,3.44,37.4-.53,2.47-1.33,4.78-4.35,4.82-2.82.04-3.73-2.12-4.41-4.42-1.33-4.46-2.35-9.06-4.15-13.33-3.83-9.08-7.98-18.04-12.21-26.94-1.78-3.73-4.75-5.88-9.3-5.31-2.57.32-5.25.31-7.82.02-3.73-.43-6.19,1.27-7.78,4.27-3.35,6.31-6.92,12.55-9.63,19.13-3.02,7.34-5.17,15.03-7.71,22.56-1.22,3.61-3.97,5.23-6.24,3.38-1.18-.97-2.03-2.74-2.36-4.29-2.82-12.95-1.43-25.52,3.72-37.71.45-1.07.85-2.16,1.67-4.28-5.7,1.5-10.39,2.65-15.03,3.97-4.5,1.28-9.73,1.77-10.08,8.2-.01.21-.18.41-.31.6-7.99,11.65-11.17,24.71-11.35,38.66-.03,2.49-.38,4.97-3.4,5.52-2.79.51-4.01-1.53-5.06-3.67-5.18-10.55-6.08-21.52-3.29-32.86.31-1.27.62-2.55.93-3.83-.23-.28-.47-.55-.7-.83-2.67,1.27-5.89,1.96-7.91,3.9-8.81,8.5-15.36,18.09-12.09,31.35.56,2.28.5,4.79-1.93,5.47-1.58.44-4.11-.27-5.39-1.4-4.96-4.41-7.59-10.1-7.74-16.84-.03-1.29-.12-2.58-.24-4.99-10.75,6.83-20.67,13.12-31.01,19.68,1.17.73,1.44.99,1.74,1.06,1.44.32,2.9.57,4.34.88,42.6,9.25,75.78,32.21,98.63,69.28,18.36,29.78,16.42,61.39-4.8,89.17-18.85,24.68-43.81,40.53-73.55,49.02-4.12,1.18-4.16,1.18-2.79,5.01,9.25,25.89,11.73,52.46,7.42,79.58-4.58,28.8-18.14,51.98-44.65,65.56-31.99,16.38-64.92,18.34-98.26,3.56-.93-.41-2.9-.66-3.03-.37-1.01,2.23-2.02,4.59-2.27,6.98-.07.69,2.21,1.96,3.6,2.41,7.24,2.34,14.55,4.48,21.82,6.72,2.2.68,4.05,1.85,3.99,4.45-.05,2.79-2.11,3.79-4.47,4.37-8.39,2.05-16.65,2.04-24.68-1.59-.77-.35-1.65-.47-3.13-.87,0,5.97-.07,11.48.02,16.99.08,4.42.63,4.79,4.86,3.73,6.17-1.55,12.29-3.32,18.52-4.56,1.52-.3,4.13.63,4.85,1.83.7,1.16.21,3.97-.81,5.06-5.67,6.03-12.28,10.79-20.34,13.21-5.21,1.57-5.14,1.56-3.79,6.79.66,2.56,1.59,3.03,4.02,1.81,5.58-2.8,11.28-5.36,16.96-7.95,2.03-.93,4.41-1.11,5.37,1.09.62,1.41.41,4.18-.58,5.14-5.22,4.99-10.62,9.85-16.34,14.25-3.32,2.55-3.75,2.9-.53,6.61,1.14-.82,2.32-1.66,3.48-2.52,12.04-8.84,24.93-16.17,38.65-22.13,23.08-10.02,45.66-7.52,68.05,2.17,1.86.81,3.64,1.9,5.29,3.08,5.2,3.7,8.7,8.62,9.95,14.94.48,2.43.48,4.95.92,7.38.47,2.59.17,4.85-2.28,6.2-2.36,1.29-4.69.77-6.6-1.01-1.66-1.54-3.19-3.24-4.67-4.95-1.53-1.77-3.24-2.22-5.01-.63-4.36,3.92-9.17,7.51-12.8,12.04-7.02,8.73-10.76,19.14-13.19,30.01-.52,2.3-1.63,4.15-4.31,3.94-2.48-.19-3.35-2.07-3.64-4.26-2.6-19.66,2.15-36.95,16.48-51.15.7-.69,1.35-1.44,2.05-2.19-4.91-3.35-12.17-2.87-16.23.99-5.12,4.85-8.89,10.72-11.28,17.27-2.64,7.24-4.67,14.7-6.9,22.08-.68,2.26-1.85,4.47-4.32,3.78-1.51-.42-3.32-2.54-3.6-4.14-2.21-12.45-1.42-24.67,3.83-36.38.42-.95.68-1.97,1.29-3.78-3.45.9-6.02,1.73-8.64,2.22-5.96,1.11-9.08,4.82-10.75,10.48-3.36,11.35-3.55,22.84-2.16,34.44.3,2.5.47,5.01-2.27,6.13-2.95,1.21-4.6-.86-6.04-3.06-5.54-8.46-7.81-17.8-7.59-27.84.03-1.24-.22-2.49-.41-4.5-3.51,2.53-6.27,4.69-9.2,6.58-4.59,2.96-6.72,7.25-6.11,12.46.92,7.86,2.32,15.66,3.67,23.47.41,2.36.91,4.67-1.63,5.98-2.54,1.31-4.53-.16-5.77-2.18-3.02-4.9-5.81-9.94-8.65-14.96-.51-.9-.8-1.93-1.2-2.9-.42-.07-.84-.14-1.26-.21-2.22,4.65-4.35,9.34-6.68,13.93-3.58,7.03-2.4,13.65,1.55,20.04,1.55,2.51,3.65,4.72,4.88,7.36.67,1.42.05,3.45,0,5.21-1.67-.07-3.67.41-4.94-.33-2.1-1.24-3.83-3.18-5.54-4.99-1.11-1.17-1.91-2.64-2.85-3.97-.41.3-.82.59-1.23.89-3.41,10.69-6.23,21.54-7.13,32.78-.13,1.6,1.14,3.73,2.41,4.93,2.45,2.33,5.32,4.24,8.09,6.21,1.94,1.38,3.87,2.82,2.89,5.5-1.04,2.85-3.56,2.8-6.03,2.36-1.79-.32-3.6-.62-5.31-1.19-2.48-.83-3.78-.25-3.57,2.52.5,6.55,1.05,13.09,1.56,19.64.21,2.75,1.84,4.32,4.3,5.12,3.35,1.08,6.72,2.1,10.1,3.09,2.32.68,4.5,1.66,4.3,4.47-.2,2.79-2.47,3.52-4.88,3.84-2.4.32-4.8.68-8.32,1.18,3.02,4.6,5.55,8.43,8.05,12.27,1.57,2.41,3.52,2.83,6.41,2.22,5.43-1.14,10.98-1.72,16.49-2.4,2.45-.31,4.65.38,5.4,3.05.71,2.53-.94,4.05-2.86,5.24-1.73,1.08-3.54,2.04-5.28,3.11-.59.37-1.07.93-2,1.76,7.96,3.3,15.68,4.93,23.63,5.33.2-.8.32-1.03.29-1.23-.1-.79-.24-1.57-.39-2.35-4.37-22.35-2.94-44.34,4.51-65.85,3.23-9.34,7.93-18.01,15.43-24.58,9.82-8.59,20.01-16.85,34.59-13.86.76.16,1.59,0,2.38.01,23.08.63,43.88,7.91,62.45,21.55,5.74,4.21,10.49,9.39,13.63,15.89,5.23,10.83,3.01,24.9-5.42,32.87-10.17,9.62-20.99,18.42-33.14,25.51-6.18,3.6-12.4,7.18-18.27,11.24-6.65,4.6-13.78,7.8-21.57,9.82-4.71,1.22-9.31,2.91-13.92,4.5-1.02.35-1.89,1.15-3.58,2.22,2.21.71,3.45,1.4,4.74,1.49,10.63.74,21.27,1.65,31.54-2.43,3.27-1.3,6.55-2.65,9.94-3.5,4.74-1.19,9.06.41,11.18,3.8,2.48,3.98,1.74,7.89-.78,11.5-1.55,2.22-3.64,4.07-5.23,6.26-2.52,3.47-5.8,6.79-7.02,10.72-2.9,9.29-4.77,18.89-7.04,28.37-.03.12.22.31.59.79.98-1.65,1.85-3.19,2.78-4.69,7.01-11.22,15.72-20.56,28.33-25.57,2.51-.99,5.14-1.93,7.12.74,1.84,2.49.45,4.75-1.15,6.8-3.56,4.57-6.96,9.28-10.79,13.62-11.86,13.41-17.86,28.52-16.22,46.81,1.15,12.87.43,12.95,12.09,18.98,2.76,1.43,5.61,2.7,9.29,4.46-.34-2.29-.54-3.55-.72-4.81-.92-6.38-2.62-12.77-2.58-19.14.07-13.81,6.82-23.71,19.64-29.2,2.64-1.13,5.66-3.09,8.05.05,2.31,3.03-.3,5.31-2.11,7.41-7.2,8.34-9.53,17.88-7.22,28.6,1.51,7,2.89,14.03,4.72,20.94.39,1.46,2.28,3.1,3.81,3.58,7.69,2.41,15.49,4.46,23.25,6.62,1.02.28,2.07.44,4.02.84-.95-2.12-1.43-3.44-2.11-4.66-4.41-7.93-7.53-16.27-8.34-25.38-1.28-14.33,5.55-25.74,18.36-30.52,2.3-.86,4.71-1.59,6.58.69,1.88,2.29.75,4.52-.68,6.55-5.45,7.72-6.6,16.26-3.7,25.02,3.32,10.01,7.34,19.79,11.22,29.61.41,1.04,1.89,2.26,2.96,2.34,6.56.48,13.14.92,19.71.84,5.21-.07,5.38-.77,2.92-5.37-9.3-17.33-9.59-34.48,1.1-51.4,1.34-2.11,2.81-4.16,5.68-3.09,2.68,1,2.39,3.41,2.32,5.77-.17,5.88-.8,11.86-.02,17.63,1.54,11.35,7.72,21.02,12.77,31.04.45.89,2.23,1.47,3.43,1.54,3.39.2,6.82.26,10.19-.03,1.34-.12,3.19-.98,3.77-2.07,8.28-15.29,16.26-30.71,12.2-49.08-.02-.11-.06-.25-.02-.34.78-1.5,1.32-3.97,2.41-4.24,1.41-.35,3.98.56,4.81,1.78,6.81,9.97,10.86,20.97,8.52,33.11-1.31,6.81-4.13,13.38-6.73,19.87-1.65,4.12-1.74,4.82,2.83,4.85,6.69.05,13.38-.31,20.05-.79,1.12-.08,2.64-1.47,3.12-2.61,3.52-8.37,7.07-16.75,10.14-25.3,3.62-10.09,3.88-20.05-2.9-29.22-1.41-1.91-2.4-4.07-.73-6.26,1.79-2.35,4.19-1.71,6.53-.87,11.5,4.11,18.3,13.47,18.74,25.86.39,11.05-3.24,20.98-8.55,30.44-.65,1.16-1.07,2.44-1.98,4.57,2.26-.58,3.43-.86,4.59-1.18,7.43-2.09,14.83-4.31,22.31-6.21,2.72-.69,4.02-2.04,4.53-4.72.83-4.35,1.74-8.7,2.95-12.96,3.95-13.89,3.22-26.72-7.42-37.79-1.01-1.05-1.41-4.17-.63-5.08.99-1.16,3.69-1.8,5.27-1.34,12.99,3.75,21.42,14.31,22.57,27.8.64,7.47-.5,14.72-2.61,21.87-.33,1.11-.43,2.3-.77,4.12,1.6-.49,2.6-.62,3.43-1.07,4.81-2.56,9.57-5.21,14.36-7.8,2.48-1.34,3.39-3.42,3.39-6.18,0-5.34.13-10.68.27-16.02.26-9.59-1.87-18.57-7.36-26.48-4.33-6.24-9.12-12.17-13.72-18.23-2.4-3.17-5.07-6.16-7.13-9.54-.76-1.25-.78-3.83.04-4.93.82-1.1,3.08-1.26,4.76-1.51.8-.12,1.72.5,2.56.83,11.9,4.74,20.35,13.4,27.17,23.91,1.27,1.95,2.43,3.97,3.64,5.95.5-1.1.56-2,.37-2.84-1.39-6.32-2.81-12.64-4.26-18.95-1.67-7.27-5.12-13.52-10.4-18.83-2.06-2.07-4-4.43-5.33-7.01-3.61-7,.86-14.1,8.71-13.73,3.09.14,6.38.95,9.13,2.35,10.46,5.32,21.65,4.21,32.72,4.19,2.09,0,4.17-1.02,6.25-1.57.01-.36.02-.72.03-1.09-.93-.5-1.81-1.14-2.8-1.48-4.18-1.46-8.31-3.14-12.6-4.16-8.63-2.07-16.59-5.43-23.73-10.75-1.91-1.42-3.99-2.61-6.07-3.78-15.51-8.69-30.11-18.64-43.07-30.92-10.95-10.38-12.88-25.94-4.5-38.46,4.51-6.73,10.62-11.77,17.39-16.08,20.83-13.28,43.85-18.18,68.24-17.58,2.31.06,4.77.72,6.86,1.73,16.62,8.07,28.3,20.59,34.09,38.35,6.87,21.08,8.23,42.48,4.05,64.25-.21,1.08-.34,2.17-.5,3.23,5.51,1.26,20.56-2.27,23.47-5.48-2.35-1.4-4.68-2.78-6.99-4.18-1.99-1.22-3.39-2.85-2.64-5.33.76-2.52,2.89-3.12,5.18-2.86,5.3.61,10.67.96,15.82,2.23,3.72.91,6.09.21,8.05-2.89,1.52-2.4,3.24-4.66,4.71-7.09.77-1.28,1.2-2.76,1.94-4.53-3.15-.41-5.84-.39-8.24-1.2-1.67-.57-3.75-2.04-4.22-3.55-.76-2.45,1.39-3.74,3.67-4.4,3.59-1.06,7.27-1.95,10.71-3.38,1.59-.66,3.69-2.29,3.89-3.71,1.01-7.16,1.51-14.39,2.1-21.61.16-1.98-.93-2.58-2.83-2.09-2.31.6-4.63,1.14-6.97,1.55-2.27.39-4.48.11-5.41-2.37-.94-2.51.68-3.99,2.56-5.32,2.78-1.96,5.52-3.99,8.22-6.06,2.59-1.98,3.55-4.6,2.82-7.83-2.11-9.3-4.17-18.61-6.29-27.9-.22-.95-.72-1.83-1.08-2.74l-1.22-.86c-.54,1-.9,2.16-1.64,2.97-1.92,2.08-3.96,4.07-6.06,5.96-1.72,1.55-3.8,2.49-5.75.53-1.79-1.79-.98-3.76.35-5.53.75-1,1.53-1.98,2.26-2.99,8.78-12.3,7.58-26.51-3.14-37.44-.11-.11-.42-.01.17-.01-3.58,5.97-6.84,11.63-10.34,17.15-1.36,2.14-3.34,4.13-6.23,2.69-2.94-1.47-1.98-4.06-1.45-6.58,1.32-6.32,2.6-12.66,3.55-19.04,1.16-7.81-1.27-14.1-8.53-18.06-1.38-.76-2.56-1.89-3.89-2.75-.86-.56-1.83-.95-3.25-1.67,0,1.72.1,2.72-.02,3.7-.6,5.28-.63,10.74-2.08,15.79-1.38,4.82-4.04,9.34-6.63,13.69-.72,1.21-3.53,2.22-4.8,1.75-1.26-.46-2.27-2.84-2.51-4.51-.29-2.07.38-4.27.55-6.42.83-10.39.46-20.68-3.03-30.64-2.4-6.86-10.81-11.69-18.61-10.62.28.87.48,1.72.83,2.51,5.21,11.58,6.08,23.65,4.07,36.04-.4,2.48-1.05,4.92-4.13,4.95-2.84.03-3.6-2.25-4.19-4.57-1.24-4.84-2.36-9.72-3.91-14.47-2.83-8.71-6.68-16.92-13.26-23.54-4.49-4.51-10.75-5.24-16.64-1.95ZM413.36,259.27c1.58,1.11,2.3,1.83,3.18,2.21,9.04,3.92,18.11,7.8,27.17,11.67,2.78,1.19,4.52.32,6.09-2.36,7.28-12.36,16.29-23.35,28.2-31.47,4.69-3.19,10.12-5.88,15.59-7.21,11.14-2.7,20.49,5.27,20.47,16.71,0,2.68-.43,5.47-1.22,8.03-3.41,11.01-10.45,19.25-20.12,25.31-8.19,5.13-17.26,7.34-26.81,8.1-1.56.12-3.77,1.01-4.42,2.23-2.99,5.6-6.27,11.21-8.13,17.22-9.04,29.22-7.54,57.64,7.99,84.57,5.63,9.76,12.41,19.03,23.1,23.35,13.92,5.62,28.42,9.61,43.81,8.07,7.35-.74,14.76-.98,22.04-2.08,5.2-.79,10.51-2.03,15.3-4.15,5.36-2.37,10.35-5.71,15.17-9.1,2.92-2.05,5.59-4.7,7.72-7.57,7.07-9.52,10.73-20.51,12.33-32.13,5.59-40.76-4.99-77.43-28.59-110.66-7.92-11.15-17.02-21.26-27.26-30.36-4.25-3.78-5.02-8.17-2.74-11.85,2.15-3.47,6.57-4.99,11.52-2.96,4.67,1.91,9.39,4.22,13.34,7.31,9.33,7.31,15.68,17.26,22.26,26.94.7,1.02,1.55,1.94,2.34,2.91.41-.12.82-.23,1.23-.35.66-19.36,4.28-38.72-.64-58.07-4.49-17.68-11.11-34.41-22.39-49.15-.46.5-.74.66-.74.82,0,1.13,0,2.26.09,3.38.94,11.69-.21,22.94-6.89,33.04-1.28,1.94-2.86,3.48-5.34,2.46-2.28-.93-2.56-2.98-2.08-5.18,4.01-18.52,1.08-36.39-5.32-53.86-3.65-9.96-12.88-14.07-21.04-19.23-.05-.03-.19.09-.29.14-.09.2-.31.44-.26.59.48,1.27.96,2.53,1.51,3.77,5.14,11.52,7.7,23.5,6.43,36.15-.81,8.09-3.64,15.44-8.27,22.1-1.27,1.82-2.91,3.01-5.21,2.13-2.34-.9-2.6-2.95-2.32-5.11.21-1.58.54-3.14.77-4.71,2.69-18.14.38-35.22-9.75-51.01-6.57-10.24-14.95-16.25-27.6-14.64-.78.1-1.59-.03-2.38.04-1.4.13-2.8.32-4.89.57,1.07,1.57,1.72,2.57,2.42,3.54,7.55,10.4,11.99,21.89,11.93,34.85-.03,6.64-1.85,12.88-6.04,18.09-1.03,1.28-3.78,2.44-5.04,1.92-1.28-.52-1.75-3.15-2.45-4.9-.18-.46.15-1.11.19-1.67.99-16.66-5.09-30.85-15.25-43.63-3.7-4.66-8.05-6.2-13.65-3.4-1.91.96-4.1,1.34-6.09,2.16-1.2.5-2.24,1.35-3.36,2.04.83.99,1.56,2.1,2.52,2.94,9.97,8.69,16.2,19.22,16.19,32.81,0,5.47-1.48,10.63-4.59,15.1-.92,1.32-3.26,2.62-4.67,2.37-1.4-.25-2.78-2.31-3.55-3.87-.72-1.46-.59-3.33-.89-5-2.58-14.29-9.95-25.14-22.87-32.09-2.59-1.39-4.83-1.58-7.24.26-4.06,3.1-8.29,5.98-12.3,9.14-5.15,4.07-5.08,4.15.91,6.57,13.49,5.45,20.93,18.6,17.64,31.2-.62,2.38-1.32,4.77-4.25,5.09-3,.32-4.12-1.89-5-4.21-3.22-8.43-9.45-13.37-18.03-15.63-2.63-.69-5.31-1.33-7.78-2.41-2.18-.96-3.79-.68-5.03,1.17-3.23,4.8-6.49,9.59-9.48,14.54-1.8,2.99-1.36,3.52,2.22,3.92,8.21.9,15.27,4.22,21.06,10.12,3.69,3.76,6.17,8.25,6.43,13.55.08,1.61-.93,3.95-2.2,4.76-1.07.68-3.74.18-4.85-.78-7.46-6.48-16.33-9.09-25.86-10.34-3.02-.39-4.13.51-4.28,3.48-.47,9.3,1.51,18.05,5.41,26.44.96,2.06,1.98,2.77,4.15,1.28,5.29-3.62,11.31-4.61,17.58-4.06,6.11.54,11.45,2.76,15.41,7.68,1.49,1.86,2.89,4.16,1.14,6.13-1.2,1.35-3.58,2.01-5.53,2.24-5.5.66-11.05.86-16.57,1.4-1.72.17-3.39.81-5.7,1.4,1.26,1.64,1.94,2.82,2.88,3.72,5.42,5.17,10.91,10.26,16.35,15.41,2.07,1.96,3.52,1.95,5.46-.54,8.8-11.3,27.46-9.12,36.17,1.68.8,1,1.08,3.32.46,4.33-.72,1.17-2.64,2-4.14,2.18-1.86.22-3.81-.46-5.73-.62-5.61-.46-11.03.19-17.07,3.05ZM39.25,251.73c.42.09.84.18,1.25.26.7-.94,1.4-1.88,2.1-2.82,5.25-6.98,10.33-14.11,15.82-20.9,4.86-6.01,11.06-10.42,18.39-13.08,6.05-2.19,10.65-1.14,13.07,2.89,2.22,3.68.83,7.77-3.57,12.32-7.25,7.5-14.8,14.8-21.33,22.9-22.11,27.46-34.59,58.68-35.16,94.26-.22,13.6.82,27.06,5.65,39.92,3.18,8.46,7.03,16.73,14.62,22.16,11.27,8.06,23.16,13.87,37.68,14.95,18.22,1.36,35.98,1.7,53.48-4.41,6.02-2.1,11.47-4.83,16.08-9.24,13.75-13.13,21.82-29.5,24.85-47.89,3.83-23.2,2.21-45.96-9.82-67.13-2.2-3.88-4.23-5.75-8.88-6.1-15.7-1.2-28.87-7.68-38.27-20.69-4.25-5.88-7.25-12.35-7.29-19.83-.05-11.92,9.08-19.89,20.66-17.16,5.27,1.24,10.49,3.83,15,6.88,11.95,8.08,21.01,19.01,28.32,31.36,1.79,3.03,3.74,3.96,6.91,2.59,8.84-3.83,17.7-7.61,26.52-11.48.92-.4,1.65-1.25,3.27-2.53-3.19-.96-5.4-2.1-7.65-2.22-4.84-.24-9.71.22-14.56.01-1.7-.07-3.99-.82-4.82-2.06-.69-1.03-.21-3.75.75-4.83,10.18-11.47,28.72-11.67,36.45-.59,1.14,1.64,2.34,2.15,3.89.69,6.27-5.91,12.53-11.83,18.75-17.79.44-.42.58-1.15,1.04-2.12-1.25-.4-2.26-.93-3.31-1.03-6.3-.61-12.63-1.01-18.92-1.76-1.84-.22-4.52-.96-5.09-2.23-.68-1.53.1-4.07.96-5.82.75-1.53,2.36-2.74,3.81-3.79,7.94-5.73,20.26-5.94,29.01-.41,2.08,1.31,3.34,1.55,4.49-.95,3.94-8.5,5.95-17.36,5.42-26.78-.15-2.59-1.12-3.62-3.84-3.28-9.64,1.2-18.65,3.76-26.26,10.25-1.19,1.02-3.91,1.53-5.14.85-1.24-.68-2.4-3.38-2.02-4.76,1.08-3.86,2.33-7.96,4.66-11.12,5.68-7.72,13.82-11.58,23.31-12.48,2.78-.26,3.53-1.26,2.03-3.64-2.71-4.33-5.33-8.72-8.24-12.91-2.94-4.25-3.07-4.14-8-2.34-1.06.39-2.16.71-3.27.93-10.31,2.04-17.89,7.34-21.79,17.49-.54,1.39-2.89,3.01-4.26,2.9-1.41-.12-3.28-2.01-3.84-3.53-1.95-5.29-1.69-10.73.41-15.99,3.53-8.82,10.23-14.23,18.99-17.36,3.19-1.14,3.47-2,.95-3.98-5-3.92-10.05-7.81-15.32-11.34-1.29-.86-3.83-.91-5.3-.24-6.06,2.78-11.17,6.88-15.29,12.21-5.51,7.14-8.23,15.34-9.42,24.16-.34,2.51-1.09,4.82-4,5.21-2.68.36-4.08-1.49-5.22-3.6-5.05-9.38-4.86-18.96-1-28.62,3.02-7.55,7.88-13.75,14.22-18.82,2.58-2.06,2.48-2.98-.55-4.06-3.95-1.42-7.94-2.78-12-3.82-1.34-.34-3.34-.1-4.37.71-2.47,1.96-4.94,4.14-6.71,6.72-8.72,12.74-14.65,26.41-12.92,42.37.25,2.28,0,4.47-2.52,5.35-2.5.88-4.09-.66-5.38-2.54-3.5-5.1-5.34-10.77-5.48-16.95-.3-13.25,4.22-24.93,11.82-35.57.73-1.03,1.39-2.11,2.45-3.73-1.97-.22-3.17-.48-4.36-.46-4.2.08-8.4.28-12.59.4-3.72.11-6.74,1.66-9.38,4.24-7.12,6.95-12.35,15.07-15.6,24.48-4.58,13.27-4.53,26.76-2.08,40.38.43,2.37.51,4.73-2.1,5.84-2.81,1.19-4.43-.69-5.81-2.81-3.71-5.69-6.29-11.82-7.3-18.57-2.09-13.95.68-27.11,6.46-39.78.51-1.12.86-2.3,1.48-3.98-1.19.32-1.69.33-2.02.57-5.44,4.08-10.94,8.1-16.24,12.37-1.33,1.07-2.28,2.87-2.91,4.53-6.85,17.92-10.26,36.25-6.34,55.42.14.66.46,1.48.21,2-.64,1.34-1.28,3.09-2.42,3.64-.96.46-2.77-.29-3.92-.98-.89-.52-1.4-1.75-1.98-2.71-5.91-9.78-6.93-20.5-6.03-31.59.1-1.28.01-2.57.01-3.85-12.9,15.89-20.25,34.23-23.94,53.85-3.31,17.59-.55,35.31.54,52.94ZM98.95,714.28c.57,7.09,1.89,8.43,8.38,7,16.66-3.66,33.16-8,47.97-16.87,12.17-7.28,24.51-14.36,36.07-22.53,13.16-9.3,12.78-20.9.01-30.6-.45-.34-.91-.67-1.38-1-3.41-2.34-5.82-1.78-7.76,1.86-2.1,3.94-1.27,7.68.81,11.34,1.19,2.08,1.97,4.24.02,6.26-1.95,2.01-4.16,1.2-6.31.26-9.37-4.11-13.32-14.25-9.39-23.94.88-2.17,2.82-5.23,2.04-6.43-1.12-1.73-4.29-2.14-6.58-3.1-.31-.13-.66-.19-.97-.33-2.45-1.11-4.03-.26-5.3,2.01-3.78,6.77-3.72,13.64-.84,20.66.88,2.15,1.14,4.31-1.01,5.83-2.14,1.52-4.1.51-5.88-.93-5.71-4.64-8.87-10.67-8.99-17.98-.06-3.81.65-7.66,1.33-11.43.37-2.04.04-3-2.11-3.22-3.97-.41-7.4.43-10.1,3.62-5.62,6.61-7.33,14.16-4.47,22.26,1.52,4.31,4.26,8.21,6.6,12.21,1.16,1.98,2.2,3.91.4,5.89-1.8,1.98-3.89,1.25-5.9.13-9.1-5.05-14.72-12.6-16.61-22.88-.21-1.16-.47-2.31-.71-3.46l-.97-.27c-1.52,2.44-3.02,4.89-4.58,7.31-3.16,4.89-2.84,9.79-.41,14.89,3.3,6.9,8.93,10.97,15.83,13.66,2.04.79,3.68,2.12,3.26,4.57-.45,2.65-2.54,3.21-4.87,3.26-6.16.14-11.95-1.12-17.2-4.51-.79-.51-1.68-.87-3.3-1.68,0,2.77.21,4.8-.04,6.77-.54,4.15,1.33,6.39,5.18,7.44,3.83,1.04,7.62,2.23,11.44,3.31,2.21.63,4.16,1.56,4.22,4.2.06,2.62-1.81,3.73-4,4.42-1.08.34-2.17.74-3.28.88-3.46.43-6.93.75-10.61,1.13ZM523.71,648.67c-.29,1.35-.56,2.5-.78,3.66-1.9,10.28-7.51,17.85-16.64,22.86-2,1.1-4.11,1.88-5.93-.05-1.98-2.1-.78-4.12.53-6.14,1.97-3.04,4.15-6.03,5.58-9.32,3.81-8.74,2.9-17.05-3.18-24.61-2.59-3.22-5.95-4.3-9.97-4-2.35.18-3.33.95-2.51,3.45.6,1.82,1.02,3.74,1.21,5.65.99,9.7-1.58,18.08-9.75,23.98-1.24.9-4.04,1.12-5.13.32-1.07-.79-1.1-3.28-1.18-5.04-.04-1.05.73-2.12,1.09-3.19,1.76-5.28,1.65-10.5-.51-15.65-2.22-5.29-3.01-5.62-8.46-3.66-1.39.5-2.75,1.09-4.14,1.58-2.32.81-2.55,1.98-1.27,4.11,1.27,2.11,2.32,4.47,2.87,6.86,2.06,8.98-2.37,17.23-10.87,20.71-2.1.86-4.21,1.41-6-.48-1.8-1.9-1.13-3.94-.06-5.97.73-1.4,1.86-2.91,1.81-4.34-.11-2.83-.44-5.83-1.56-8.37-1.11-2.51-3.83-3.09-6.05-1.23-3.37,2.82-6.74,5.76-9.54,9.12-2.98,3.59-3.52,8.19-1.1,12.17,2.55,4.18,5.38,8.72,9.25,11.45,9.91,6.98,20.45,13.08,30.78,19.47,16.47,10.19,34.71,15.6,53.47,19.52,5.27,1.1,7.74-1.66,7-7.01-4.42-.68-8.77-1.23-13.08-2.06-2.44-.47-4.69-1.61-4.64-4.6.06-3.04,2.51-3.65,4.88-4.34,4.35-1.28,8.7-2.59,12.95-4.14,1.13-.41,2.66-1.64,2.76-2.63.35-3.29.13-6.64.13-10.62-1.57.85-2.45,1.27-3.27,1.79-4.65,2.91-9.73,4.34-15.19,4.4-2.7.03-5.92.55-6.76-3-.86-3.64,2.31-4.47,4.8-5.5,6.92-2.86,12.17-7.4,14.94-14.53,2.58-6.66-.14-15.74-6.52-20.58ZM137.43,252.3c.08,7.19,3.03,11.94,7.3,15.95,5.08,4.77,11.26,6.88,18.27,6.94-6.37-9.76-14.12-17.7-25.57-22.89ZM468.24,275.11c6.41,1.2,16.15-3.1,20.99-8.93,3.09-3.72,5.41-7.81,5.27-13.87-11.48,5.33-19.25,13.26-26.26,22.8Z" style="fill: #000; stroke-width: 0px;"/>
  <path d="M249.12,456.29c.45-1.1.91-2.19,1.34-3.3,5.14-13.4,12.37-25.53,22.05-36.16,3.47-3.81,6.54-4.64,9.06-2.5,2.53,2.15,1.96,5.27-1.17,9.24-10.48,13.31-17.43,28.44-22.3,44.53-3.73,12.31-6.31,24.85-6.45,37.83-.07,6-.87,12-1.41,18-.62,7,5.62,17.12,12.19,19.08-.19-.99-.34-1.79-.48-2.59-1.17-6.34-3.11-12.66-3.36-19.04-.85-21.4,4.45-41.42,15.18-59.97,1.19-2.05,2.56-4.05,4.12-5.83,1.94-2.21,4.52-2.76,7.05-1.11,2.46,1.61,2.6,4.1,1.65,6.68-.31.85-.8,1.63-1.19,2.45-9.75,20.49-15.9,41.82-14.79,64.77.17,3.5.82,6.99,1.31,10.47.12.88.46,1.73.89,3.3,2.09-1.13,3.99-1.99,5.71-3.12,2.94-1.94,5.62-4.3,8.7-5.96,1.27-.68,3.91-.62,4.79.25.87.87.96,3.54.26,4.78-1.64,2.9-3.96,5.41-6.47,8.69,5.97,1.77,11.41,3.38,17.73,5.25-.84-1.74-1.21-2.63-1.68-3.46-6.11-10.83-7.57-22.47-6.09-34.63.1-.79.26-1.57.48-2.34.79-2.79,2.42-4.8,5.54-4.48,3.09.32,4.46,2.58,4.57,5.47.16,4.2-.31,8.46.25,12.6,1.1,8.07,2.64,16.09,4.25,24.09.2.98,1.8,2,2.95,2.38,1.23.41,2.7.04,4.06.1,2.07.09,2.83-.92,3.45-2.88,3.42-10.87,4.49-21.99,4.21-33.32-.14-5.62,1.4-8.24,4.7-8.5,3.38-.26,5.43,2.37,6.07,7.98,1.38,12.08-.4,23.56-6.64,34.16-.37.63-.57,1.35-1.17,2.8,6.15-1.82,11.61-3.43,17.69-5.23-1.95-2.46-3.55-4.45-5.11-6.47-1.67-2.16-3.94-4.51-1.29-7.15,2.48-2.47,4.73-.31,6.91,1.18,3.88,2.66,7.82,5.21,12.59,8.37.73-4.42,1.47-7.7,1.78-11.02,1.93-20.78-2.83-40.4-10.61-59.46-1.29-3.15-2.79-6.22-4.29-9.28-2.01-4.11-1.67-7.12,1.13-8.73,2.68-1.54,5.76-.42,8.3,3.22,6.92,9.91,11.36,20.95,14.31,32.59,3.72,14.7,5.29,29.52,1.78,44.52-.64,2.72-1.53,5.38-2.39,8.36.73-.03,1.19.06,1.53-.09,5.78-2.56,11.4-12.51,10.84-18.76-1.03-11.53-1.39-23.15-2.99-34.59-2.95-21.09-10.43-40.65-21.85-58.65-1.76-2.77-3.82-5.36-5.88-7.92-2.66-3.3-3.01-6.4-.75-8.49,2.26-2.08,5.52-1.55,8.38,1.51,10.06,10.76,17.56,23.12,22.84,36.85.52,1.36,1.08,2.71,2.43,3.96-.27-1.43-.4-2.9-.85-4.27-4.65-14.24-9.34-28.47-14.04-42.69-.78-2.37-1.8-4.68-2.39-7.1-.71-2.96-.23-5.81,2.7-7.4,2.99-1.62,6.13-1.03,7.94,1.66,3.66,5.43,7.31,10.98,10.06,16.89,5.04,10.82,6.58,22.63,8.53,34.29,2.9,17.37,5.88,34.73,5.52,52.46-.27,13.45-2.23,26.56-8.85,38.47-2.34,4.21-5.34,8.23-8.77,11.6-5.78,5.69-13.02,7.67-21.06,5.84-2.39-.55-4.3-.21-6.34,1.28-5.17,3.76-11.11,5.65-17.44,6.27-6.3.61-12.62,1.33-18.94,1.49-4.72.11-9.45-.62-14.18-.94-2.15-.15-4.3-.37-6.44-.32-8.89.2-17.08-1.82-24.47-6.98-1.21-.84-3.27-1.14-4.74-.82-10.99,2.38-19.43-1.71-26-10.19-7.75-10-11.16-21.74-12.62-34.1-1.86-15.71-.55-31.33,2-46.84,2.71-16.46,4.17-33.22,10.29-48.92,2.21-5.67,5.52-10.91,8.42-16.29.64-1.18,1.58-2.23,2.52-3.2,2.39-2.48,5.59-3.15,8.02-1.63,2.79,1.73,3.52,4.42,2.72,7.42-.77,2.84-1.89,5.59-2.84,8.39-4.31,12.8-8.65,25.6-12.89,38.42-.69,2.1-.95,4.35-1.4,6.53.28.08.57.17.85.25Z" style="fill: #000; stroke-width: 0px;"/>
  <path d="M254.92,669.86c1.2-3.45-.85-5.59-3.31-8.15-5.99-6.24-11.22-13.09-13.74-21.64-2.2-7.48-1.03-14.29,4.18-20.03,5.1-5.62,11.94-6.18,18.6-4.07,10.04,3.19,19.9,7.02,29.7,10.91,7.19,2.85,14.34,4.89,22.19,3.41,2.39-.45,5.01-.34,7.43.09,7.26,1.32,13.94-.51,20.58-3.08,9.63-3.72,19.2-7.64,28.98-10.92,7.19-2.41,14.59-2.49,20.25,3.66,5.67,6.16,6.48,13.46,3.73,21.3-3,8.58-8.45,15.46-14.66,21.87-1,1.03-2.17,2.63-2.07,3.87.65,7.46-1.1,14.47-3.61,21.33-1.48,4.04-3.26,7.99-5.12,11.88-5.62,11.75-15.4,18.13-27.72,21.11-6.83,1.65-13.34.18-19.63-2.36-3.27-1.32-6.31-1.44-9.52.04-18.67,8.59-40.27-3.4-47.26-18.47-4.52-9.74-8.68-19.51-9.01-30.75ZM378.03,625.94c.3,3.99.89,7.69.69,11.35-.07,1.33-1.82,3.26-3.15,3.6-1,.26-2.96-1.29-3.75-2.51-1.15-1.76-1.52-4.02-2.45-5.95-.69-1.43-1.23-3.48-3.66-2.43-2.1.91-4.19,1.57-3.43,4.82,1.06,4.54-.21,8.88-2.74,12.63-.8,1.18-3.06,2.17-4.41,1.92-1.01-.19-1.85-2.42-2.36-3.89-.35-1,.4-2.42-.03-3.34-.77-1.68-1.86-4.21-3.15-4.43-2.28-.4-4.62.88-5.19,3.79-.28,1.44-.63,2.89-1.08,4.29-.69,2.15-1.74,4.14-4.38,4.06-2.68-.08-3.63-2.04-3.86-4.38-.18-1.91-1.08-2.46-2.94-2.26-2.32.25-4.05.62-4.44,3.56-.15,1.18-1.85,2.81-3.05,3.01-1.21.2-2.87-.89-3.98-1.83-.89-.75-1.18-2.17-1.85-3.21-1.61-2.51-4.06-2.57-5.74-.12-.57.84-.77,2.04-1.5,2.64-1.3,1.08-2.97,2.65-4.3,2.49-1.28-.16-3.1-2.13-3.31-3.51-.51-3.27-2.88-2.72-4.84-3.05-2.5-.42-1.9,1.83-2.63,3.06-.83,1.4-2.23,3.31-3.49,3.4-1.31.09-3.17-1.46-4.01-2.79-.98-1.56-1.19-3.63-1.6-5.51-.61-2.72-2.8-3.96-4.97-3.66-1.29.18-2.53,2.4-3.29,3.95-.49,1,.26,2.55-.12,3.66-.53,1.55-1.36,3.79-2.52,4.12-1.18.34-3.49-.89-4.32-2.1-2.48-3.67-3.63-7.95-2.6-12.34.8-3.41-1.29-4.2-3.56-5.03-2.63-.97-2.95,1.46-3.75,2.89-.77,1.37-1.24,2.92-1.74,4.43-.73,2.19-1.76,4.2-4.45,3.78-2.9-.45-3.27-2.86-3.12-5.25.21-3.23.62-6.44.94-9.69-5.57,1.04-10.07,12.2-6.23,16.82,3.78,4.55,8.21,9.51,13.44,11.69,9.02,3.77,18.75,6.27,28.41,7.98,17.66,3.13,35.56,3.01,53.23.02,14.29-2.42,28.66-5.06,39.21-16.76,4.62-5.12,4.05-15.46-1.75-19.25-.59-.38-1.39-.44-2.18-.67ZM365.28,671.22c-33.39,8-65.46,7.92-98.04.19,1.65,6.83,4.07,12.69,7.32,18.98,1.28-1.76,1.91-2.68,2.59-3.56,2.74-3.61,6.46-5.75,10.82-6.52,1.29-.23,3.52.49,4.04,1.46.63,1.17.53,3.76-.33,4.54-4.71,4.25-4.69,9.44-3.96,15.06.67,5.13,3.14,7.07,8.78,6.02-.22-1.08-.47-2.15-.64-3.24-.98-6.2.71-11.46,5.59-15.55,1.83-1.53,4.19-2.89,6.1-1.08,1.28,1.21,1.73,3.69,1.85,5.64.18,3.14-.29,6.32-.36,9.48-.04,1.75.64,2.57,2.75,2.32,2.76-.33,5.61-.34,8.37,0,2.11.26,2.79-.53,2.74-2.3-.1-3.27-.59-6.56-.45-9.81.08-1.84.6-4.45,1.85-5.22,1.26-.78,4.08-.34,5.49.63,5.47,3.78,7.3,9.3,6.34,15.81-.17,1.16-.34,2.32-.61,4.11,3.47-.85,7.49-.13,8.2-3.8,1.17-6.13,2.62-12.63-3.29-17.77-.96-.84-1.23-3.55-.6-4.78.51-1,2.95-1.73,4.32-1.47,4.45.87,8.26,3.09,10.95,6.91.61.86,1.27,1.67,2.6,3.4,2.67-6.82,4.98-12.72,7.61-19.45Z" style="fill: #000; stroke-width: 0px;"/>
  <path d="M315.76,104.96c-7.03.09-10.85-2.8-11.81-9.79-.53-3.88-.5-7.95.05-11.83.69-4.94,4.46-6.86,9.32-5.73,1.67.39,3.58.41,5.25.02,4.73-1.09,8.73.67,9.2,5.37.5,4.98.3,10.2-.69,15.1-1,4.95-4.87,6.79-11.32,6.87Z" style="fill: #000; stroke-width: 0px;"/>
  <path d="M367.75,84.36c6.08.13,10.95,5,10.85,10.83-.1,5.49-6.22,11.62-11.49,11.51-5.3-.11-10.46-6.19-10.25-12.05.22-5.97,4.93-10.41,10.89-10.28Z" style="fill: #000; stroke-width: 0px;"/>
  <path d="M275.02,94.71c.08,6-4.99,11.9-10.32,12-5.25.1-11.37-6.11-11.42-11.58-.05-5.8,4.94-10.69,10.96-10.76,6.09-.07,10.7,4.35,10.78,10.34Z" style="fill: #000; stroke-width: 0px;"/>
  <path d="M203.28,563.98c-5.39-.08-10.01-4.82-9.85-10.11.15-5.08,4.14-8.91,9.27-8.91,5.37,0,9.99,4.48,9.9,9.61-.09,5.07-4.45,9.48-9.31,9.41Z" style="fill: #000; stroke-width: 0px;"/>
  <path d="M438.49,554.15c-.02,5.21-4.54,9.74-9.79,9.81-5.09.07-9.37-4.39-9.3-9.69.07-5,4.57-9.28,9.8-9.32,5.3-.03,9.31,3.94,9.29,9.19Z" style="fill: #000; stroke-width: 0px;"/>
  <path d="M367.71,768.21c5.23-.02,9.43,4.24,9.42,9.57,0,5.13-3.91,9.33-8.77,9.42-4.96.09-9.61-4.66-9.69-9.9-.07-4.99,3.99-9.07,9.04-9.09Z" style="fill: #000; stroke-width: 0px;"/>
  <path d="M273.27,777.05c.1,5.06-4.63,10.12-9.49,10.15-4.86.03-8.86-4.05-9.02-9.19-.16-5.25,4.05-9.73,9.2-9.81,5.07-.08,9.2,3.85,9.31,8.85Z" style="fill: #000; stroke-width: 0px;"/>
  <path d="M270.1,283.56c-.01-4.71,2.61-8.61,6.59-9.59,3.28-.81,6.08.11,8.1,2.85,2.46,3.33,2.35,10.39-.22,13.87-2.04,2.77-4.86,3.58-8.13,2.71-3.76-1.01-6.34-5.09-6.35-9.83Z" style="fill: #000; stroke-width: 0px;"/>
  <path d="M345.33,283.44c0-5.31,2.92-9.12,6.83-9.65,4.31-.58,8.73,2.4,9.3,7.08.34,2.76-.25,5.88-1.28,8.5-1.27,3.21-4.26,4.71-7.79,4.26-3.58-.45-5.61-2.75-6.36-6.2-.33-1.55-.55-3.13-.7-3.99Z" style="fill: #000; stroke-width: 0px;"/>
  <path d="M234.06,678.02c-.07-4.86,3.47-8.75,8.04-8.83,4.4-.08,8.05,3.47,8.14,7.9.1,4.81-4.31,9.61-8.79,9.59-4.06-.02-7.32-3.84-7.4-8.66Z" style="fill: #000; stroke-width: 0px;"/>
  <path d="M397.84,678.32c-.24,4.82-3.64,8.5-7.71,8.35-4.51-.17-8.69-5.09-8.4-9.91.27-4.51,3.97-7.83,8.4-7.58,4.56.26,7.94,4.27,7.7,9.13Z" style="fill: #000; stroke-width: 0px;"/>
  <path d="M402.92,693.68c-.06-4.03,3.02-7.31,6.86-7.28,3.71.03,6.79,3.18,6.83,7,.05,3.98-3.03,7.2-6.93,7.24-3.78.04-6.7-2.96-6.76-6.96Z" style="fill: #000; stroke-width: 0px;"/>
  <path d="M229.04,693.33c.04,4.04-2.78,7.19-6.54,7.31-3.92.12-7.13-3.03-7.19-7.07-.06-3.8,3.06-7.1,6.77-7.17,3.72-.07,6.93,3.13,6.97,6.93Z" style="fill: #000; stroke-width: 0px;"/>
  <path d="M315.89,58.15c4.75-.02,7.18,1.72,7.26,5.2.08,3.73-3.65,7.52-7.35,7.44-3.54-.07-7.14-3.79-7.11-7.36.03-3.49,2.44-5.26,7.2-5.28Z" style="fill: #000; stroke-width: 0px;"/>
  <path d="M430.06,581.9c-3.55-.03-6.29-2.77-6.26-6.23.04-3.95,4.03-6.99,9.01-6.86,3.12.08,5.18,2.14,5.12,5.12-.07,3.86-4.17,8.01-7.87,7.97Z" style="fill: #000; stroke-width: 0px;"/>
  <path d="M208.1,575.92c-.09,3.38-3.02,6.05-6.54,5.98-3.58-.07-7.73-4.54-7.64-8.23.07-2.85,2.35-4.9,5.43-4.86,5.1.06,8.86,3.12,8.76,7.11Z" style="fill: #000; stroke-width: 0px;"/>
  <path d="M334.24,781.39c-.07,3.45-2.99,6.26-6.38,6.13-3.5-.13-6.39-3.22-6.28-6.73.11-3.48,2.91-6.13,6.43-6.09,3.53.05,6.31,3.02,6.23,6.68Z" style="fill: #000; stroke-width: 0px;"/>
  <path d="M303.87,787.52c-3.41.04-6.25-2.81-6.25-6.27,0-3.64,2.85-6.55,6.39-6.55,3.47,0,6.24,2.76,6.29,6.25.05,3.49-2.92,6.53-6.43,6.57Z" style="fill: #000; stroke-width: 0px;"/>
  <path d="M285.53,251.25c3.41.02,5.91,2.62,5.9,6.13-.02,3.47-2.63,6.17-5.93,6.14-3.28-.03-5.88-2.76-5.91-6.2-.03-3.49,2.51-6.08,5.94-6.06Z" style="fill: #000; stroke-width: 0px;"/>
  <path d="M352.38,257.3c0,3.35-2.7,6.16-5.96,6.22-3.38.05-6.11-2.87-6.02-6.45.08-3.2,2.72-5.78,5.93-5.8,3.37-.02,6.05,2.65,6.04,6.04Z" style="fill: #000; stroke-width: 0px;"/>
  <path d="M250.87,706.24c-.17,3.17-2.68,5.5-5.8,5.39-3.41-.12-6.17-3.31-6-6.93.15-3.17,2.7-5.55,5.79-5.39,3.44.18,6.21,3.36,6.01,6.93Z" style="fill: #000; stroke-width: 0px;"/>
  <path d="M387.46,699.29c3.1.07,5.34,2.53,5.31,5.84-.03,3.66-2.98,6.66-6.39,6.51-3.11-.13-5.41-2.64-5.36-5.84.06-3.63,2.98-6.59,6.44-6.51Z" style="fill: #000; stroke-width: 0px;"/>
  <path d="M361.88,310.7c0,3.26-2.55,5.84-5.82,5.86-3.31.02-6.09-2.75-6.08-6.06.01-3.26,2.58-5.65,6.01-5.58,3.4.06,5.88,2.5,5.89,5.78Z" style="fill: #000; stroke-width: 0px;"/>
  <path d="M275.87,316.57c-3.28.02-5.82-2.52-5.81-5.81,0-3.29,2.46-5.76,5.8-5.84,3.45-.08,5.99,2.26,6.02,5.53.03,3.33-2.7,6.1-6,6.12Z" style="fill: #000; stroke-width: 0px;"/>
  <path d="M236.08,719.45c-.08,3.07-2.71,5.56-5.76,5.43-3.01-.13-5.24-2.55-5.16-5.6.08-3.02,2.78-5.59,5.76-5.48,2.88.11,5.22,2.68,5.15,5.65Z" style="fill: #000; stroke-width: 0px;"/>
  <path d="M401.36,724.88c-3.06.02-5.62-2.53-5.61-5.59,0-2.98,2.43-5.46,5.33-5.47,3.09,0,5.56,2.48,5.58,5.62.02,3.03-2.31,5.42-5.3,5.44Z" style="fill: #000; stroke-width: 0px;"/>
  <path d="M229.49,662.28c-2.93.07-5.31-2.09-5.45-4.93-.15-2.99,2.48-5.78,5.45-5.79,2.79-.01,5.14,2.32,5.24,5.2.1,3-2.23,5.46-5.24,5.53Z" style="fill: #000; stroke-width: 0px;"/>
  <path d="M407.81,657.13c.03,2.8-2.32,5.11-5.24,5.16-3.03.05-5.41-2.26-5.48-5.32-.06-2.81,2.25-5.32,5.02-5.43,2.94-.12,5.67,2.55,5.69,5.59Z" style="fill: #000; stroke-width: 0px;"/>
  <path d="M581.03,679.5c.09,3-2.25,5.42-5.26,5.44-2.91.02-5.19-2.12-5.34-5.01-.15-2.97,2.15-5.53,5.09-5.66,2.94-.12,5.43,2.24,5.52,5.23Z" style="fill: #000; stroke-width: 0px;"/>
  <path d="M56.27,674.29c2.94.08,5.26,2.59,5.17,5.58-.1,3-2.57,5.23-5.61,5.06-2.87-.16-5.07-2.5-5.02-5.34.05-2.96,2.55-5.38,5.46-5.3Z" style="fill: #000; stroke-width: 0px;"/>
  <path d="M253.22,763.06c0,2.88-2.22,5.06-5.19,5.08-3.07.02-5.51-2.31-5.47-5.23.04-2.8,2.36-5.07,5.24-5.11,3-.05,5.42,2.3,5.42,5.27Z" style="fill: #000; stroke-width: 0px;"/>
  <path d="M389.29,762.98c0,2.9-2.47,5.19-5.55,5.14-2.96-.05-5.16-2.25-5.13-5.13.03-2.93,2.53-5.28,5.51-5.2,2.86.08,5.17,2.4,5.16,5.19Z" style="fill: #000; stroke-width: 0px;"/>
  <path d="M343.95,88.59c-.09,2.83-2.52,5.12-5.3,5.01-2.81-.11-5.1-2.52-5.05-5.31.06-3,2.55-5.35,5.49-5.18,2.76.16,4.94,2.62,4.85,5.48Z" style="fill: #000; stroke-width: 0px;"/>
  <path d="M292.95,83.09c2.82-.06,5.19,2.25,5.27,5.14.08,2.86-2.19,5.26-5.05,5.35-2.83.08-5.23-2.25-5.26-5.12-.03-2.89,2.24-5.31,5.04-5.38Z" style="fill: #000; stroke-width: 0px;"/>
  <path d="M341.12,784.98c-.07-2.96,2.04-5.3,4.9-5.43,2.87-.13,5.22,2.12,5.25,5.03.03,2.87-2.46,5.63-5.18,5.74-2.72.11-4.9-2.22-4.97-5.33Z" style="fill: #000; stroke-width: 0px;"/>
  <path d="M285.68,779.55c2.84.05,5.05,2.37,5.06,5.31,0,3.07-2.14,5.47-4.87,5.45-2.74-.02-5.3-2.7-5.33-5.59-.03-2.9,2.27-5.22,5.14-5.17Z" style="fill: #000; stroke-width: 0px;"/>
  <path d="M223.03,564.77c2.93-.06,5.22,2.15,5.25,5.06.03,2.82-2.29,5.26-5.09,5.36-2.85.1-5.19-2.2-5.21-5.12-.02-2.94,2.17-5.24,5.05-5.3Z" style="fill: #000; stroke-width: 0px;"/>
  <path d="M225.88,633.77c-.05,2.87-2.44,5.17-5.28,5.08-2.86-.09-5.05-2.5-4.92-5.41.12-2.75,2.36-4.9,5.09-4.9,2.87,0,5.17,2.36,5.12,5.23Z" style="fill: #000; stroke-width: 0px;"/>
  <path d="M413.85,570.11c-.07,2.96-2.35,5.19-5.21,5.08-2.82-.11-5-2.49-4.96-5.39.05-3.05,2.17-5.11,5.18-5.02,2.84.09,5.05,2.45,4.99,5.33Z" style="fill: #000; stroke-width: 0px;"/>
  <path d="M416.19,633.62c.03,2.9-2.25,5.22-5.13,5.22s-5.16-2.43-5.12-5.26c.05-2.68,2.3-4.95,4.99-5.04,2.86-.09,5.22,2.19,5.25,5.08Z" style="fill: #000; stroke-width: 0px;"/>
  <path d="M185.73,560.12c0,2.7-2.22,4.87-4.99,4.87-2.85,0-5.22-2.38-5.13-5.15.08-2.68,2.09-4.61,4.8-4.64,3-.03,5.32,2.12,5.32,4.92Z" style="fill: #000; stroke-width: 0px;"/>
  <path d="M446.11,560.14c-.02-2.79,2.29-4.94,5.3-4.95,2.72,0,4.72,1.91,4.79,4.6.08,2.83-2.22,5.17-5.07,5.18-2.77.01-5.01-2.15-5.02-4.83Z" style="fill: #000; stroke-width: 0px;"/>
  <path d="M569.57,664.47c-.08,2.71-2.16,4.64-4.9,4.57-2.82-.07-4.94-2.3-4.83-5.08.1-2.6,2.32-4.69,4.93-4.63,2.73.06,4.89,2.37,4.81,5.14Z" style="fill: #000; stroke-width: 0px;"/>
  <path d="M67.18,659.32c2.58,0,4.73,2.12,4.79,4.76.06,2.83-2.06,5-4.88,4.99-2.63-.01-4.79-2.12-4.84-4.72-.05-2.7,2.22-5.02,4.93-5.03Z" style="fill: #000; stroke-width: 0px;"/>
  <path d="M345.77,766.59c-.04,2.84-2.17,5.03-4.9,5.04-2.77.02-4.91-2.22-4.82-5.04.09-2.72,2.35-4.85,5.13-4.84,2.67,0,4.63,2.07,4.58,4.84Z" style="fill: #000; stroke-width: 0px;"/>
  <path d="M290.71,761.76c2.75-.01,5.04,2.17,5.1,4.87.07,2.78-2.13,5.04-4.87,5.02-2.67-.02-4.85-2.3-4.88-5.09-.03-2.72,1.97-4.79,4.64-4.8Z" style="fill: #000; stroke-width: 0px;"/>
  <path d="M321.6,133.09c-2.63-.03-4.87-2.45-4.77-5.14.1-2.6,2.29-4.71,4.83-4.68,2.69.04,4.9,2.4,4.78,5.1-.12,2.57-2.35,4.75-4.84,4.72Z" style="fill: #000; stroke-width: 0px;"/>
  <path d="M310.19,123.26c2.57-.02,4.7,2.07,4.79,4.7.1,2.73-2.09,5.1-4.75,5.13-2.52.03-4.69-2.1-4.79-4.72-.1-2.75,2.07-5.09,4.74-5.1Z" style="fill: #000; stroke-width: 0px;"/>
  <path d="M336.93,117.11c-2.6.02-4.6-1.82-4.71-4.31-.11-2.63,2.15-4.92,4.91-4.99,2.63-.06,4.74,2.06,4.68,4.71-.06,2.59-2.16,4.57-4.88,4.59Z" style="fill: #000; stroke-width: 0px;"/>
  <path d="M299.63,112.6c0,2.61-2.16,4.59-4.88,4.51-2.67-.08-4.76-2.14-4.77-4.72-.01-2.52,1.91-4.43,4.52-4.49,2.83-.06,5.14,2.06,5.13,4.7Z" style="fill: #000; stroke-width: 0px;"/>
  <path d="M333.73,285.58c-2.79.04-4.85-1.81-4.96-4.45-.1-2.71,1.85-4.73,4.59-4.75,2.85-.02,5.05,2.1,4.99,4.82-.06,2.54-1.95,4.34-4.62,4.38Z" style="fill: #000; stroke-width: 0px;"/>
  <path d="M303.02,281.06c-.05,2.65-2.06,4.52-4.85,4.52-2.77,0-4.8-2-4.71-4.63.09-2.64,2.47-4.7,5.26-4.56,2.57.13,4.35,2.07,4.3,4.67Z" style="fill: #000; stroke-width: 0px;"/>
  <path d="M213.39,528.31c2.59.04,4.65,2.01,4.65,4.44,0,2.45-2.08,4.51-4.57,4.54-2.5.03-4.59-1.99-4.61-4.46-.02-2.51,2.04-4.56,4.53-4.52Z" style="fill: #000; stroke-width: 0px;"/>
  <path d="M418.43,537.29c-2.43,0-4.53-2.11-4.54-4.54-.01-2.49,1.97-4.43,4.56-4.46,2.57-.03,4.52,1.92,4.49,4.47-.03,2.56-1.99,4.53-4.51,4.52Z" style="fill: #000; stroke-width: 0px;"/>
  <path d="M265.97,727.21c-.29,2.27-1.71,3.8-4.38,3.87-2.54.07-4.53-2.04-4.36-4.58.18-2.66,1.68-4.14,4.36-4.21,2.52-.07,4.47,2.03,4.38,4.92Z" style="fill: #000; stroke-width: 0px;"/>
  <path d="M374.58,727.22c-.2,2.27-1.68,3.71-4.3,3.86-2.36.13-4.47-2.12-4.44-4.55.04-2.46,2.18-4.38,4.71-4.22,2.39.15,4.1,2.06,4.03,4.92Z" style="fill: #000; stroke-width: 0px;"/>
  <path d="M353.3,335.6c-2.51-.33-4.02-1.68-3.96-4.22.06-2.48,1.48-4,4.01-4.14,2.4-.14,4.28,1.88,4.1,4.34-.18,2.56-1.73,3.77-4.16,4.02Z" style="fill: #000; stroke-width: 0px;"/>
  <path d="M322.59,148.3c2.58.35,4.16,1.79,4.2,4.43.04,2.53-1.39,4.13-3.97,4.07-2.65-.06-4.19-1.7-4.23-4.34-.04-2.54,1.42-3.93,4-4.16Z" style="fill: #000; stroke-width: 0px;"/>
  <path d="M313.31,152.44c-.31,2.6-1.59,4.32-4.3,4.36-2.62.04-4-1.59-3.97-4.07.03-2.62,1.59-4.27,4.24-4.35,2.63-.08,3.78,1.63,4.04,4.06Z" style="fill: #000; stroke-width: 0px;"/>
  <path d="M282.52,331.68c-.18,2.19-1.44,3.72-3.99,3.87-2.37.14-4.35-1.89-4.2-4.29.15-2.55,1.63-3.9,4.14-3.99,2.23-.07,4.02,1.84,4.04,4.41Z" style="fill: #000; stroke-width: 0px;"/>
  <path d="M297.97,138.05c-.27,2.16-1.6,3.69-4.15,3.55-2.56-.13-3.83-1.86-3.79-4.3.03-2.33,1.32-3.81,3.75-3.94,2.3-.12,4.24,1.96,4.2,4.68Z" style="fill: #000; stroke-width: 0px;"/>
  <path d="M341.86,137.45c-.27,2.45-1.48,4.13-4.02,4.16-2.54.04-4.04-1.5-3.97-4.04.07-2.42,1.44-4.1,3.98-4.17,2.62-.08,3.77,1.6,4.01,4.05Z" style="fill: #000; stroke-width: 0px;"/>
  <path d="M340.65,306.89c-1.44.89-2.83,2.38-4.34,2.52-2.14.2-3.8-1.57-3.2-3.71.37-1.32,2.24-3.08,3.44-3.08,1.38,0,2.77,1.71,4.15,2.68-.02.53-.04,1.06-.05,1.59Z" style="fill: #000; stroke-width: 0px;"/>
  <path d="M296.16,301.84c.89,1.32,2.3,2.54,2.55,3.97.4,2.25-1.3,3.94-3.41,3.57-1.32-.23-3.2-2.07-3.29-3.3-.1-1.34,1.58-2.81,2.49-4.23.55,0,1.11,0,1.66,0Z" style="fill: #000; stroke-width: 0px;"/>
  <path d="M262.12,296.66c-1.31.9-2.71,2.63-3.89,2.48-1.27-.16-2.33-2.06-3.48-3.21,1.14-1.15,2.18-3.04,3.46-3.22,1.17-.16,2.6,1.53,3.91,2.41v1.54Z" style="fill: #000; stroke-width: 0px;"/>
  <path d="M240.54,784.28c-.85-1.33-2.51-2.77-2.34-3.96.18-1.27,2.08-2.29,3.23-3.41,1.12,1.16,3.01,2.23,3.15,3.49.13,1.19-1.57,2.59-2.46,3.9l-1.58-.02Z" style="fill: #000; stroke-width: 0px;"/>
  <path d="M394.44,781.25c-1.36.83-2.85,2.45-4.06,2.26-1.28-.2-2.29-2.12-3.41-3.29,1.2-1.1,2.33-2.96,3.62-3.07,1.22-.1,2.59,1.63,3.9,2.55-.02.52-.03,1.03-.05,1.55Z" style="fill: #000; stroke-width: 0px;"/>
  <path d="M373.11,299.83c-.91-1.2-2.65-2.49-2.53-3.57.15-1.36,1.83-2.54,2.85-3.8,1.19,1.08,3.17,2.04,3.36,3.27.19,1.21-1.44,2.71-2.27,4.08l-1.42.02Z" style="fill: #000; stroke-width: 0px;"/>
  <path d="M578.71,657.7c.87,1.32,2.46,2.68,2.39,3.94-.07,1.15-2.06,3.18-2.98,3.07-1.3-.16-3.16-1.83-3.36-3.07-.18-1.16,1.51-2.61,2.38-3.94.52,0,1.05,0,1.57,0Z" style="fill: #000; stroke-width: 0px;"/>
  <path d="M57.79,662.22c-1.22.9-2.35,2.32-3.7,2.58-2.08.39-3.73-1.13-3.34-3.19.24-1.27,1.88-3.08,3.01-3.17,1.28-.1,2.69,1.45,4.05,2.29,0,.5-.01.99-.02,1.49Z" style="fill: #000; stroke-width: 0px;"/>
  <path d="M238.82,90.25c1.09,1.67,2.23,2.65,2.13,3.47-.11.9-1.38,1.65-2.15,2.46-.76-.82-2.02-1.58-2.13-2.48-.1-.82,1.05-1.79,2.15-3.45Z" style="fill: #000; stroke-width: 0px;"/>
  <path d="M396.28,93.96c-1.5.97-2.43,2.04-3.32,2.01-.71-.03-2.04-1.59-1.89-2.14.25-.91,1.38-1.97,2.32-2.17.6-.13,1.51,1.15,2.89,2.31Z" style="fill: #000; stroke-width: 0px;"/>
  <path d="M579.83,367.89c0,9.06-1.47,16.76-6.76,23.27-3.74,4.6-8.61,7.28-14.43,8.31-15.63,2.76-32.78-8.47-36.14-23.68-3.65-16.55,6.34-33.25,22.43-37.62,2.39-.65,4.7-1.66,6.98-2.66,9.19-4,17.88-1.07,22.41,7.89,4.02,7.96,5.16,16.62,5.5,24.49ZM565.85,366.58c-1.16-4.55-2.36-9.71-3.83-14.79-.64-2.22-2.39-2.98-4.57-1.79-2.98,1.62-6.16,3.01-8.85,5.04-5.51,4.16-9.42,9.56-10.35,16.62-.9,6.73,3.38,12.31,10.58,14.12,6.89,1.73,12.19-.92,14.53-7.74,1.16-3.39,1.56-7.04,2.49-11.45Z" style="fill: #000; stroke-width: 0px;"/>
  <path d="M522.04,383.35c-.47,12.4-8.33,22.79-19.95,25.81-11.79,3.07-25.82-2.44-31.45-12.33-4.98-8.75-2.54-19.31,6.46-26.24,4.39-3.38,9.07-6.46,13.91-9.15,10.11-5.62,23.5-.19,28.31,11.45,1.36,3.29,1.84,6.96,2.72,10.45ZM493.42,394.23c1.46-.37,3.08-.54,4.48-1.18,4.07-1.88,5.52-7.1,3.33-11.4-2.02-3.95-4.99-4.73-9.52-2.53-.81.39-1.69.62-2.54.93-2.7.98-5.18,4.69-5.08,7.76.1,3.15,2.41,4.43,4.92,5.37,1.36.51,2.84.69,4.41,1.06Z" style="fill: #000; stroke-width: 0px;"/>
  <path d="M506.99,352.29c-5.52-.31-11.26-2.61-15.09-8.38-3.99-6.01-2.32-13.32,3.76-17.21,2.85-1.82,5.7-3.65,8.53-5.5,4.21-2.75,10.44-2.15,14.94,1.46,5.67,4.55,7.84,11.96,5.48,18.67-2.35,6.69-8.86,11.02-17.62,10.94ZM503.21,334.99c1.29,3.46,3.48,3.86,5.89,3.47.64-.1,1.13-1.11,1.69-1.7-.56-.47-1.07-1.26-1.7-1.36-1.73-.28-3.51-.27-5.89-.41Z" style="fill: #000; stroke-width: 0px;"/>
  <path d="M472.31,177.16c.07,4.77-3.52,8.84-7.91,8.97-4.18.12-7.86-3.44-7.89-7.66-.04-4.48,3.94-8.53,8.37-8.53,4.14,0,7.37,3.15,7.42,7.22Z" style="fill: #000; stroke-width: 0px;"/>
  <path d="M493.35,190.41c-.04,2.92-2.52,5.36-5.45,5.34-2.92-.02-5.41-2.51-5.39-5.41.02-3.09,2.62-5.63,5.65-5.53,2.9.1,5.23,2.61,5.2,5.6Z" style="fill: #000; stroke-width: 0px;"/>
  <path d="M458.22,202.11c-1.38-2.15-2.97-3.56-2.78-4.64.21-1.17,2.09-2.04,3.25-3.04.96,1.17,2.54,2.27,2.69,3.54.12.97-1.57,2.16-3.16,4.14Z" style="fill: #000; stroke-width: 0px;"/>
  <path d="M110.1,369.15c.14,23.44-25.05,34.55-40.25,29.5-8.06-2.68-13.3-8.3-15.69-16.23-4.13-13.69-2.27-27.08,3.9-39.7,4.13-8.45,12.74-10.97,21.48-7.4,3.04,1.24,6.12,2.39,9.26,3.35,12.62,3.88,21.33,16.28,21.31,30.49ZM93.81,372.48c-.1-.59-.17-2.08-.6-3.47-3.01-9.96-10.2-15.71-19.53-19.3-2.2-.84-3.19.58-3.87,2.23-3.6,8.69-4.38,17.57-1.1,26.5,2.29,6.23,7.15,8.78,13.44,7.56,6.97-1.35,11.59-6.36,11.65-13.51Z" style="fill: #000; stroke-width: 0px;"/>
  <path d="M110.54,383.37c.02-12.63,8.17-22.56,19.7-23.94,4.57-.55,8.77.48,12.6,3.07,2.91,1.97,5.83,3.92,8.78,5.81,7.62,4.9,12.97,11.3,12.03,20.9-.93,9.52-7.2,15.09-15.55,18.53-18.69,7.7-37.59-4.61-37.56-24.37ZM139.14,394.06c.85-.19,2.67-.14,3.87-.97,1.83-1.26,4.51-3.15,4.51-4.76,0-2.5-1.62-5.27-3.23-7.41-.94-1.25-3.25-1.39-4.85-2.21-3.25-1.67-5.82-1.19-7.91,1.82-2.04,2.93-2.41,6.11-.77,9.34,1.57,3.09,4.4,4.07,8.39,4.19Z" style="fill: #000; stroke-width: 0px;"/>
  <path d="M125,352.29c-10.09,0-17.09-5.65-18.37-13.71-1.28-8.03,3.25-15.8,10.78-18.34,4.27-1.44,8.2-.85,11.8,2.1,1.73,1.42,3.73,2.53,5.71,3.61,8.36,4.59,9.7,14.05,2.86,20.73-3.93,3.83-8.73,5.55-12.77,5.63ZM128.35,334.93c-2,.16-3.86.22-5.69.5-.53.08-1.25.73-1.36,1.24-.1.46.39,1.26.84,1.57,2.07,1.38,5.37-.21,6.2-3.31Z" style="fill: #000; stroke-width: 0px;"/>
  <path d="M166.96,169.95c4.28-.03,8.29,3.85,8.41,8.14.12,4.26-3.31,7.93-7.5,8.06-4.37.13-8.22-3.87-8.26-8.59-.04-4.39,3.05-7.58,7.36-7.6Z" style="fill: #000; stroke-width: 0px;"/>
  <path d="M143.96,184.8c3.02.05,5.48,2.71,5.36,5.79-.12,2.91-2.7,5.28-5.6,5.16-2.96-.12-5.21-2.57-5.15-5.6.06-3.01,2.48-5.41,5.39-5.35Z" style="fill: #000; stroke-width: 0px;"/>
  <path d="M172.62,201.27c-.81-1.26-2.4-2.66-2.22-3.75.2-1.18,1.98-2.72,3.22-2.88.85-.11,2.72,1.85,2.76,2.94.05,1.2-1.47,2.47-2.3,3.71-.49,0-.98-.02-1.47-.02Z" style="fill: #000; stroke-width: 0px;"/>
</svg>