<?xml version="1.0" encoding="UTF-8"?>
<svg id="Layer_1" data-name="Layer 1" xmlns="http://www.w3.org/2000/svg" viewBox="0 0 676.53 900">
  <path d="M598.54,811.44c-.06,17.68-8.59,32.3-24.13,43.07-15.73,10.91-33.56,16.69-52.05,20.55-29.16,6.1-58.57,10.67-88.23,13.72-15.53,1.6-31.2,2.3-46.42,6.25-4.99,1.29-9.97,2.59-14.95,3.92-3.44.92-6.86,1.39-10.27-.03-3.91-1.63-5.22-4.87-3.45-8.74,1.73-3.77,4.93-5.91,8.73-6.98,9.24-2.6,18.47-5.31,27.83-7.41,26.37-5.9,53.25-8.58,79.99-12.19,18.86-2.55,37.68-5.45,56.4-8.84,11.89-2.15,23.28-6.25,33.62-12.76,11.88-7.48,17.98-18.12,17.87-32.29-.06-8.38-1.52-16.49-4.04-24.45-5.03-15.91-13.29-30.07-22.64-43.8-14.61-21.45-31.62-40.88-49.31-59.73-13.14-14-26.93-27.4-40.32-41.18-11.8-12.15-23.36-24.54-35.16-36.69-12.47-12.84-25.09-25.53-37.67-38.26-2.27-2.3-4.73-4.4-7-6.69-.84-.85-1.85-1.94-1.95-3-.14-1.4.12-3.29,1-4.19.79-.8,2.66-.65,4.06-.7.5-.02,1.1.51,1.53.93,23.13,22.46,48.21,42.73,72.14,64.29,23.96,21.59,47.29,43.8,68.72,67.91,20.43,22.98,38.68,47.55,52.3,75.29,7.81,15.92,13.05,32.56,13.41,52.01Z" style="fill: #000; stroke-width: 0px;"/>
  <path d="M309.03,900c-1.79-.36-3.62-.58-5.37-1.09-16.74-4.91-33.84-7.57-51.22-9.15-35.33-3.2-70.42-8.28-105.02-16.27-14.43-3.33-28.24-8.37-41.03-16.12-21.32-12.92-30.95-31.45-27.96-56.35,1.87-15.54,6.97-30.03,14.02-43.94,14.58-28.75,33.98-54.04,55.55-77.79,25.53-28.1,53.41-53.73,82.04-78.62,17.06-14.83,33.83-30.01,50.71-45.06,1.23-1.1,2.25-2.45,3.46-3.57,1.82-1.7,4.11-1.87,5.7-.55,1.7,1.4,1.9,3.76.3,5.88-1.1,1.46-2.4,2.77-3.69,4.07-12.01,12.06-24.15,23.99-36.04,36.16-26.31,26.91-52.79,53.67-78.61,81.04-14.24,15.1-27.88,30.86-40.73,47.15-11.76,14.91-22.93,30.42-30.07,48.33-4.66,11.68-8.29,23.55-8.15,36.3.14,13.27,5.77,23.54,16.76,30.82,10.5,6.96,22.23,11.14,34.46,13.43,16.47,3.09,33.06,5.55,49.65,7.92,20.74,2.97,41.6,5.18,62.29,8.46,17.41,2.76,34.76,6.1,51.54,11.76,2.28.77,4.55,1.87,6.48,3.29,3.43,2.52,4.72,6.18,3.69,9.09-1.01,2.86-4.33,4.61-8.73,4.78Z" style="fill: #000; stroke-width: 0px;"/>
  <path d="M663.3,258.32c1.04-28.38-1.54-55.53-6.35-82.53-4.71-26.48-8.78-53.08-16.39-78.95-1.33-4.52-2.92-8.96-4.53-13.39-1.1-3.02-.7-5.36,1.41-6.43,2.21-1.12,4.88-.2,6.1,2.86,2.82,7.13,5.9,14.25,7.73,21.66,9.72,39.36,18.29,78.99,22.57,119.34,5.49,51.79,2.53,103.24-8.06,154.26-4.56,21.97-10.67,43.37-20.72,63.56-9.49,19.06-21.64,36.08-39,48.55-20.28,14.56-42.7,23.65-68.19,24.7-28.76,1.18-56.44-3.28-83.01-14.08-7.19-2.92-13.9-7.31-20.31-11.76-5.46-3.79-9.18-9.33-10.66-16.02-1.57-7.11.73-12.08,7.1-15.53,10.33-5.6,20.89-4.51,31.46-.91.9.31,2.13,2.38,1.86,2.86-.61,1.06-2,2.13-3.21,2.3-6.37.9-12.81,1.38-19.18,2.31-1.98.29-4.01,1.25-5.7,2.39-2.23,1.51-2.47,3.36-.34,4.96,3.88,2.91,7.85,6.01,12.28,7.83,24.05,9.91,49.04,16.29,75.04,18.13,11.78.84,23.53.1,35.22-1.99,22.96-4.11,41.31-15.81,56.34-33.26,9.7-11.27,16.3-24.31,21.93-37.93,9.46-22.85,14.24-46.91,18.42-71.11,5.31-30.68,8.77-61.55,8.19-91.82Z" style="fill: #000; stroke-width: 0px;"/>
  <path d="M.1,267.08c-.34-36,4.84-71.4,11.94-106.55,3.72-18.4,7.69-36.75,11.97-55.03,1.76-7.54,4.58-14.83,7.02-22.2.51-1.56,1.36-3.04,2.25-4.42,1.41-2.19,3.78-2.92,5.63-1.78,2.14,1.31,2.35,3.27,1.65,5.5-2.37,7.48-4.93,14.92-7.04,22.48-6.52,23.35-9.96,47.32-14.22,71.13-3.28,18.34-5.68,36.78-6.26,55.4-1.81,57.83,4.2,114.8,19.9,170.56,5.25,18.64,12.89,36.46,24.73,52.03,12.88,16.94,28.95,29.78,49.79,35.7,19.56,5.56,39.44,6.07,59.47,3.16,20.39-2.96,40.24-8.08,59.31-15.9,4.48-1.84,8.73-4.41,12.72-7.18,4.22-2.93,3.59-5.98-1.23-7.97-.88-.36-1.81-.71-2.75-.82-6.57-.8-13.15-1.45-19.7-2.37-1.23-.17-2.32-1.36-3.47-2.08.69-1.08,1.15-2.82,2.09-3.13,9.74-3.25,19.54-4.5,29.36-.09,8.89,3.99,11.78,10.44,8.33,19.61-2.48,6.59-7.15,11.44-12.84,15.48-10.64,7.55-22.61,12.02-35,15.61-24.88,7.2-50.18,9.55-75.97,6.8-15.6-1.67-29.69-7.58-43.34-14.84-23.98-12.74-40.39-32.51-52.51-56.37-10.38-20.44-16.66-42.15-21.25-64.48-5.86-28.47-9.33-57.22-10.53-86.24-.3-7.32-.05-14.67-.05-22Z" style="fill: #000; stroke-width: 0px;"/>
  <path d="M434.88,231.57c-.19-10.84.58-20.99,2.68-31.05,4.57-21.81,14.81-40.08,32.62-53.94,6.67-5.19,12.78-11.1,19.15-16.67,1.25-1.09,2.51-2.18,3.83-3.17,2.65-1.99,5.3-1.95,6.75.03,1.4,1.9.77,4.33-1.66,6.37-3.54,2.96-7.39,5.61-10.56,8.92-6.15,6.43-12.38,12.88-17.75,19.94-9.49,12.46-14.83,26.93-17.3,42.27-3.33,20.6-3.88,41.29,2.22,61.54,10.19,33.81,28.15,62.64,56.2,84.58,12.19,9.53,25.84,15.41,41.75,15.24,7.4-.08,14.19-1.93,20.58-5.29,15.36-8.08,26.9-19.49,31.67-36.78,4.98-18.06-3.14-36.13-15.4-45.98-15.31-12.3-32.99-18.38-52.11-20.77-10.21-1.27-20.5-1.91-30.77-2.56-8.62-.54-17.26-.65-25.89-1.04-1.63-.07-3.32-.39-4.85-.95-3.09-1.13-3.69-4.12-1.37-6.45,2.47-2.48,5.67-3.28,9.03-3.7,18.4-2.3,36.6-.55,54.75,2.53,14.74,2.5,28.97,6.69,42.02,14.08,10.64,6.03,20.13,13.52,27.25,23.71,16.54,23.64,11.04,56.42-7.66,74.53-8.08,7.83-16.79,14.79-27.49,18.78-17.45,6.51-34.55,4.72-51.21-2.69-16.58-7.37-30.07-18.95-42.07-32.32-18.47-20.58-32.07-43.98-39.71-70.65-3.65-12.75-5.44-25.8-4.7-38.52Z" style="fill: #000; stroke-width: 0px;"/>
  <path d="M241.62,227.08c1.06,41.49-13.65,74.54-36.82,104.53-11.21,14.51-24.4,26.9-40.08,36.47-13.86,8.46-28.9,12.64-45.24,11.35-11.56-.91-21.78-5.39-31.06-12.17-11.25-8.22-20.82-17.84-25.71-31.3-9.4-25.83-1.77-51.33,20.15-68.52,13.79-10.81,29.48-17.22,46.34-21.09,16.33-3.75,32.93-5.31,49.65-5.3,5.22,0,10.48.56,15.62,1.45,2.52.43,5.1,1.84,7.14,3.45,2.44,1.92,1.72,5.2-1.23,6.22-2.02.7-4.25.99-6.4,1.08-11.51.48-23.03.66-34.53,1.3-15.56.86-30.89,3.16-45.8,8-11.7,3.81-22.23,9.91-30.71,18.5-13.95,14.11-17.5,32.2-8.26,51.41,8.22,17.08,22.29,27.7,40.45,32.19,10.43,2.58,21.02.86,31.07-3.2,13.39-5.41,24.44-14.19,34.29-24.48,19.67-20.57,33.43-44.63,41.35-71.98,4.79-16.55,4.73-33.44,3.38-50.42-1.19-14.94-5.29-29.06-12.31-42.21-3.05-5.71-7.27-10.83-11.28-15.97-2.89-3.71-6.17-7.14-9.49-10.48-3.68-3.69-7.59-7.14-11.44-10.67-.9-.82-1.95-1.48-2.88-2.27-2.3-1.96-2.85-4.35-1.48-6.18,1.46-1.95,4.1-2.19,6.51-.22,3.24,2.65,6.22,5.6,9.4,8.33,6.28,5.41,12.6,10.79,18.94,16.14,14.11,11.91,22.09,27.47,26.62,45.01,2.85,11.05,3.99,22.33,3.8,31.02Z" style="fill: #000; stroke-width: 0px;"/>
  <path d="M472.29.38c23.7-.01,45.74,6.97,67.22,16.22,10.42,4.48,20.01,10.26,28.68,17.62,8.21,6.97,13.72,15.55,16.17,26.01,1.61,6.85,3.8,13.42,7.39,19.51,1.53,2.61,2.47,5.43,1.32,8.51-.75,1.99-1.97,3.55-4.21,3.86-2.31.32-3.66-1.09-4.91-2.82-5.38-7.46-9.13-15.65-11.29-24.59-2.28-9.44-8.46-16.03-15.92-21.73-14.06-10.76-29.91-17.88-46.63-23.31-13.55-4.4-27.35-7.05-41.69-6.68-8.48.22-16.7,1.49-24.54,4.73-8.32,3.44-16.57,7.06-23.49,13.03-12,10.34-18.79,23.44-19.37,39.24-.38,10.44.06,20.94.73,31.38,1.47,23.05,2.55,46.13-.97,69.02-2.29,14.9-5.55,29.72-9.63,44.23-2.84,10.1-7.67,19.65-11.9,29.32-1.05,2.4-3.02,4.5-4.9,6.4-.78.78-2.76,1.28-3.61.83-.87-.46-1.53-2.33-1.38-3.46.33-2.49,1.05-4.96,1.93-7.33,5.91-15.92,9.02-32.49,10.46-49.3,1.96-22.87,3.59-45.77,4.69-68.69.62-12.89-.27-25.84-.16-38.76.12-14.58,2.66-28.67,9.72-41.67,4.39-8.07,9.96-15.18,17.15-20.93,13.7-10.98,28.98-18.49,46.59-20.55,4.13-.48,8.37-.07,12.55-.07Z" style="fill: #000; stroke-width: 0px;"/>
  <path d="M289.72,106.66c-.69,19.36,1.46,38.53,3.37,57.74,1.02,10.32.74,20.79,1.99,31.08,1.74,14.37,4.05,28.7,9.05,42.42,1.13,3.11,2.09,6.32,2.7,9.56.22,1.17-.47,3.22-1.36,3.68-.88.46-3.05-.15-3.77-1.02-2.2-2.67-4.36-5.5-5.84-8.6-14.73-30.76-21.33-63.5-22.15-97.33-.42-17.24,1.28-34.52,1.68-51.79.21-9.14.38-18.38-.68-27.43-2.14-18.3-12.27-31.62-28.1-40.58-10.48-5.93-21.51-10.52-33.77-11.21-11.58-.65-23.05.11-34.31,3.01-21.23,5.46-41.3,13.48-58.96,26.83-8.14,6.15-14.21,13.59-16.5,23.76-1.91,8.49-6.02,15.96-11.02,22.98-2.44,3.42-6.5,3.18-8.4-.58-1.33-2.62-1.25-5.41.18-7.82,4.57-7.7,6.81-16.18,9.2-24.69,2.31-8.24,7.06-15.1,13.42-20.89,9.88-9,21.28-15.49,33.55-20.57C161.52,6.3,183.62.06,207.23,0c14.87-.04,28.51,3.9,41.25,11.04,9.78,5.48,18.76,12.09,25.64,21.24,9.72,12.92,14.72,27.53,15.5,43.5.5,10.27.09,20.59.09,30.88Z" style="fill: #000; stroke-width: 0px;"/>
  <path d="M316.96,633.32c3.73.04,5.96,2.31,5.23,5.21-.59,2.34-1.7,4.99-3.44,6.52-4.36,3.84-9.12,7.27-13.89,10.62-20.78,14.59-41.96,28.65-62.37,43.76-23.44,17.35-43.23,38.51-60.89,61.68-7.3,9.58-14.85,18.97-22.29,28.44-.11.14-.21.28-.32.41-1.38,1.72-2.97,3.3-5.31,2-2.16-1.2-2.07-3.42-1.23-5.34,2.01-4.62,3.83-9.4,6.45-13.67,3.92-6.39,8.29-12.52,12.75-18.55,15.32-20.69,32.32-39.84,51.99-56.56,24.92-21.19,51.08-40.66,79.14-57.51,3.14-1.89,6.28-3.79,9.54-5.46,1.67-.86,3.6-1.22,4.65-1.55Z" style="fill: #000; stroke-width: 0px;"/>
  <path d="M359.05,632.8c3.22,1.48,6.6,2.69,9.63,4.5,26.66,15.91,51.93,33.78,75.79,53.66,14.92,12.43,29.3,25.4,41.79,40.3,11.22,13.37,22.21,26.97,31.33,41.91,2.56,4.2,4.32,8.91,6.23,13.48.84,2.01.9,4.34-1.51,5.45-2.25,1.04-3.75-.49-5.06-2.16-11.85-15-23.48-30.18-35.63-44.93-16.17-19.64-34.82-36.77-55.55-51.49-20.63-14.66-41.67-28.74-62.46-43.17-2.55-1.77-4.92-3.94-6.95-6.3-1.3-1.5-2.2-3.6-2.61-5.57-.62-3.02,1.69-5.27,4.99-5.68Z" style="fill: #000; stroke-width: 0px;"/>
  <path d="M546.91,310.09c1.98,1.01,4.02,1.92,5.94,3.05,3.53,2.07,7.07,4.15,10.42,6.49,1.21.84,2.12,2.33,2.76,3.71.94,2.03.71,4.13-.92,5.84-1.65,1.73-3.68,1.85-5.81,1.07-9.45-3.43-18.98-3.05-28.56-.64-1.44.36-2.86.84-4.32,1-2.19.24-4.07-.45-4.68-2.81-.58-2.25.62-3.82,2.58-4.57,3.74-1.43,7.58-2.62,11.38-3.89.87-.29,1.77-.46,3.37-.86-1.41-.73-2.12-1.21-2.9-1.5-6.45-2.39-12.89-4.8-19.37-7.09-2.62-.93-4.24-2.9-4.06-5.4.18-2.48,2.05-4.44,4.83-4.69,2.16-.2,4.36-.1,6.54-.03,13.61.44,27.21.91,40.82,1.37.67.02,1.34,0,2.21-.49-.96-.45-1.89-1.01-2.89-1.34-14.81-4.98-29.65-9.87-44.43-14.92-7.27-2.48-14.44-5.24-21.63-7.94-2.41-.9-3.5-3.1-2.81-5.2.73-2.19,2.93-3.04,5.94-2.21,7.4,2.05,14.82,4.06,22.19,6.23,16,4.71,32.03,9.32,47.93,14.36,5.53,1.76,10.8,4.47,15.98,7.14,3.67,1.89,6.02,5.06,5.86,9.5-.13,3.78-2.3,6.36-6.05,6.67-2.75.22-5.57-.02-8.34-.31-9.72-1.01-19.42-2.15-29.14-3.21-.89-.1-1.79-.01-2.69-.01-.05.23-.1.46-.14.69Z" style="fill: #000; stroke-width: 0px;"/>
  <path d="M129.19,309.41c-.89,0-1.8-.08-2.68.01-9.62,1.05-19.24,2.15-28.87,3.17-2.59.28-5.23.59-7.82.44-4.96-.27-7.61-3.98-6.63-8.89.73-3.63,3.05-6.14,6.19-7.7,4.84-2.4,9.67-5.02,14.8-6.58,21.72-6.6,43.54-12.84,65.32-19.22,1.68-.49,3.34-1.01,5.02-1.5,3.29-.97,5.62-.19,6.43,2.15.8,2.31-.63,4.4-3.87,5.49-17.36,5.87-34.74,11.67-52.08,17.6-5.35,1.83-10.58,3.96-15.87,5.95.04.26.08.51.12.77.78,0,1.55.02,2.33,0,13.43-.46,26.86-.92,40.29-1.37,1.92-.06,3.84-.12,5.76-.07,3.41.09,5.68,1.96,5.92,4.75.25,2.93-1.79,5.02-5.28,5.71-7.24,1.44-13.58,5.14-20.21,8.4,3.06.91,6.13,1.76,9.16,2.77,1.82.6,3.61,1.33,5.3,2.22,1.7.9,2.54,2.45,1.97,4.4-.56,1.93-2.08,2.81-4.01,2.68-1.46-.1-2.95-.39-4.34-.84-8.39-2.71-16.9-2.17-25.42-.95-1.17.17-2.27.86-3.4,1.3-2.29.88-4.51.93-6.25-1.06-1.67-1.92-1.93-4.33-.52-6.32,1.42-2.01,3.25-3.93,5.31-5.27,3.58-2.32,7.47-4.16,11.22-6.2.74-.4,1.47-.81,2.2-1.22-.04-.22-.07-.44-.11-.65Z" style="fill: #000; stroke-width: 0px;"/>
  <path d="M213.47,824.46c-7.09-.85-14.21-1.52-21.25-2.64-2.59-.41-5.14-1.67-7.48-2.97-2.41-1.34-3.23-3.92-2.5-6.04.76-2.18,2.95-3.56,5.74-3.08,17.84,3.1,35.5.77,53.16-1.63,16.86-2.29,33.75-4.42,50.61-6.78,6.65-.93,13.22-2.37,19.86-3.37,1.85-.28,3.84-.04,5.7.33,2.39.48,4.09,2,4.55,4.51.47,2.59-.44,4.97-2.74,6.01-3.54,1.62-7.25,3.21-11.04,3.84-13.77,2.28-27.58,4.32-41.42,6.15-14.02,1.84-28.07,3.41-42.13,4.9-3.62.39-7.32.06-10.99.06-.02.23-.04.47-.06.7Z" style="fill: #000; stroke-width: 0px;"/>
  <path d="M463.71,824.01c-14.7.12-28.11-1.76-41.51-3.53-15.31-2.03-30.64-3.95-45.92-6.18-4.99-.73-9.88-2.15-14.76-3.47-1.72-.47-3.47-1.32-4.87-2.42-3.72-2.93-2.88-8.3,1.6-9.79,2.08-.69,4.52-.95,6.67-.63,9.49,1.44,18.89,3.47,28.39,4.71,22.49,2.94,44.99,5.96,67.57,8.09,8.84.84,17.9-.54,26.86-1.06,3.17-.18,5.47.71,6.29,3.02.82,2.3-.08,5.25-2.83,6.32-4.43,1.72-9.05,3.17-13.72,3.96-4.88.82-9.91.73-13.75.97Z" style="fill: #000; stroke-width: 0px;"/>
  <path d="M275.82,409.94c-.6-16.04,3.79-30.61,13.02-43.65,7.11-10.04,14.52-19.86,21.9-29.71,1.18-1.58,2.73-2.97,4.34-4.12,2.49-1.78,5.41-1.53,7.21.3,1.9,1.93,2.04,4.9.01,7.4-3.19,3.93-6.66,7.63-9.84,11.56-7.54,9.33-13.97,19.41-19.58,30-3.4,6.42-5.26,13.41-5.41,20.62-.16,7.83.23,15.68.84,23.49.35,4.48,1.65,4.94,5.64,2.88,9.09-4.68,16.73-11.35,24.41-17.95,1.72-1.47,3.5-2.89,5.36-4.18,1.51-1.04,3.25-1.59,4.8-.11,1.56,1.5.96,3.23.06,4.81-.68,1.21-1.44,2.41-2.35,3.45-7.78,8.87-16.8,16.26-26.97,22.21-1.64.96-3.45,1.75-5.28,2.22-7.39,1.91-13.07-1.05-15.46-8.3-1.11-3.37-1.72-6.95-2.17-10.48-.44-3.45-.38-6.97-.54-10.45Z" style="fill: #000; stroke-width: 0px;"/>
  <path d="M400.69,409.99c-.43,4.95-.74,9.91-1.33,14.84-.25,2.14-.89,4.28-1.64,6.32-2.51,6.9-8.02,9.85-15.18,8.08-1.84-.45-3.66-1.22-5.3-2.18-10.28-5.96-19.37-13.4-27.19-22.35-1.18-1.36-2.24-2.97-2.82-4.65-.36-1.02-.09-2.81.62-3.49.72-.69,2.58-.93,3.51-.48,2.01.96,3.8,2.43,5.59,3.81,6.97,5.39,13.84,10.89,20.87,16.2,1.86,1.4,4.09,2.33,6.2,3.36,1.89.92,3.25.36,3.65-1.81.41-2.23.88-4.46,1.06-6.72.95-11.91,1.27-23.87-3.56-35.08-2.78-6.45-6.26-12.73-10.28-18.49-6.13-8.78-13-17.05-19.55-25.54-.74-.96-1.59-1.89-2.11-2.97-1.04-2.15-.88-4.28.85-6.05,1.65-1.69,3.79-2.05,5.78-1,1.74.91,3.5,2.13,4.7,3.65,9.86,12.45,19.93,24.78,27.71,38.72,6.21,11.13,8.51,23.18,8.42,35.86Z" style="fill: #000; stroke-width: 0px;"/>
  <path d="M319.92,740.51c1.47-17.26-1-34.3-2.87-51.38-.18-1.65-.33-3.3-.34-4.96,0-2.19.84-4.01,3.13-4.56,2.33-.56,4.03.7,4.82,2.69,1.85,4.69,3.79,9.39,5.07,14.25,3.57,13.48,5.11,27.25,5.09,41.18-.01,8.97-.25,17.94-.57,26.91-.08,2.14-.54,4.4-1.41,6.35-.81,1.82-2.17,3.57-3.71,4.85-1.94,1.61-4.59,1.28-6.05-.77-1.26-1.78-2.38-3.95-2.66-6.08-.52-3.87-.45-7.82-.49-11.74-.07-5.58-.02-11.16-.02-16.74Z" style="fill: #000; stroke-width: 0px;"/>
  <path d="M341.25,740.01c.13-15.98,1.99-31.72,6.29-47.12.98-3.51,2.46-6.89,3.9-10.25,1.09-2.54,3.11-3.59,5.17-2.94,2.4.77,3.16,2.71,2.95,4.96-.65,7.12-1.31,14.25-2.18,21.35-2.12,17.23-1.48,34.5-.95,51.78.12,3.91-.09,7.86-.52,11.75-.44,4.08-3.02,6.98-5.82,7.16-2.9.19-6.1-2.44-6.83-6.49-.98-5.47-1.57-11.04-1.95-16.59-.31-4.52-.06-9.07-.06-13.61Z" style="fill: #000; stroke-width: 0px;"/>
  <path d="M379,748.84c.5-13.8,1.52-27.53,5.31-40.9,1.02-3.61,2.1-7.2,3.36-10.73.48-1.34,1.35-2.69,2.39-3.67,2.92-2.76,7.26-1.47,8.17,2.43.33,1.39.33,2.98.03,4.38-3.67,17.3-5.3,34.79-5.45,52.48-.05,5.76-1.6,11.54-2.76,17.25-.36,1.79-1.46,3.58-2.63,5.04-2.28,2.85-5.73,2.31-6.96-1.11-.79-2.19-1.32-4.57-1.39-6.88-.19-6.09-.06-12.19-.06-18.29Z" style="fill: #000; stroke-width: 0px;"/>
  <path d="M297.9,759.38c-.42,3.91-.79,8.33-1.42,12.72-.32,2.21-1.23,4.38-3.83,4.73-2.73.37-4.17-1.6-5.13-3.7-2.94-6.38-3.55-13.27-4.01-20.15-.73-10.78-1-21.6-2-32.36-.61-6.58-2.22-13.06-3.32-19.6-.24-1.45-.69-3.13-.19-4.36.65-1.62,1.89-3.65,3.33-4.12,1.45-.48,3.79.3,5.12,1.32,1.32,1.02,2.13,2.95,2.72,4.63,3.9,11.26,6.41,22.84,7.27,34.73.62,8.52.96,17.06,1.46,26.14Z" style="fill: #000; stroke-width: 0px;"/>
  <path d="M415.97,775.4c1.76-10.83,3.41-21.69,5.34-32.49.72-4.02,2.08-7.92,3.22-11.86.34-1.16.83-2.31,1.42-3.37,1.08-1.96,2.78-2.91,5.03-2.38,2.2.51,3.15,2.22,3.19,4.27.04,1.99-.21,4.01-.52,5.98-1.47,9.3-2.83,18.63-4.6,27.88-.98,5.12-2.63,10.11-4.08,15.13-.31,1.07-.79,2.27-1.59,2.96-1.01.88-2.51,1.88-3.65,1.73-.97-.13-2.07-1.69-2.51-2.85-.56-1.51-.53-3.25-.75-4.89-.17-.04-.34-.08-.51-.12Z" style="fill: #000; stroke-width: 0px;"/>
  <path d="M259.81,775.33c-.19,1.5-.07,3.1-.63,4.41-.58,1.38-1.56,3.05-2.8,3.58-1.91.81-3.23-.85-3.99-2.51-.93-2.06-2-4.14-2.45-6.32-1.82-8.88-3.44-17.79-5.1-26.7-.74-3.94-1.46-7.89-2.09-11.85-.33-2.06-.57-4.16-.59-6.24-.02-2.2,1.01-3.95,3.29-4.45,2.26-.5,4.01.56,4.93,2.56,1.05,2.29,1.9,4.69,2.64,7.1,3.51,11.49,5.14,23.32,6.27,35.24.17,1.74.35,3.47.52,5.19Z" style="fill: #000; stroke-width: 0px;"/>
  <path d="M311.75,384.74c-1.63,8.98-3.23,17.97-4.93,26.94-.38,2-1.53,3.62-3.85,3.63-2.27.01-3.57-1.57-4.01-3.51-.59-2.61-1.21-5.36-.98-7.98.59-6.76,1.52-13.51,2.57-20.22.36-2.28,1.3-4.52,2.31-6.62.93-1.94,2.66-3.05,4.96-2.47,2.19.56,2.99,2.28,3.09,4.35.09,1.91.02,3.83.02,5.75.27.04.55.09.82.13Z" style="fill: #000; stroke-width: 0px;"/>
  <path d="M365.36,384.4c0-1.74-.01-3.49,0-5.23.02-2.2.83-4.01,3.07-4.64,2.4-.67,4.2.58,5.1,2.64,1.07,2.45,2.07,5.03,2.49,7.66.98,6.19,1.8,12.42,2.28,18.67.21,2.71-.36,5.55-.97,8.24-.46,2.02-1.81,3.69-4.23,3.57-2.3-.12-3.33-1.83-3.7-3.82-1.66-8.98-3.22-17.97-4.81-26.96.26-.04.52-.09.77-.13Z" style="fill: #000; stroke-width: 0px;"/>
  <path d="M209.81,756.84c-.07-4.06,1.29-6.06,3.55-6.29,2.19-.23,3.29,1.31,4.47,4.23,3.9,9.62,5.41,19.84,7.75,29.84.32,1.35.52,2.75.59,4.14.1,1.98-.52,3.72-2.64,4.29-2.14.58-3.5-.68-4.44-2.4-.54-.99-.97-2.06-1.28-3.14-2.4-8.48-4.8-16.96-7.1-25.47-.54-2.01-.72-4.12-.9-5.19Z" style="fill: #000; stroke-width: 0px;"/>
  <path d="M466.78,756.63c-1.07,4.31-2.06,8.64-3.22,12.92-1.65,6.06-3.37,12.11-5.17,18.13-.42,1.39-.99,2.93-1.97,3.91-.85.85-2.6,1.65-3.57,1.33-1.11-.37-2.08-1.88-2.6-3.12-.4-.94-.15-2.26.08-3.35,1.51-7.08,2.97-14.18,4.72-21.2,1.01-4.05,2.34-8.05,3.95-11.89.51-1.23,2.25-2.44,3.62-2.72,1.93-.38,3.17,1.18,3.65,3.04.23.91.18,1.9.26,2.85.08.03.17.06.25.09Z" style="fill: #000; stroke-width: 0px;"/>
  <path d="M348.13,377.3c.27-5.31.48-9.93.76-14.54.14-2.23,1.18-3.91,3.56-4.16,2.39-.25,3.87,1.18,4.32,3.35.63,3.07,1.14,6.19,1.32,9.31.37,6.35.49,12.72.69,19.09.02.61-.01,1.22-.09,1.83-.39,3.03-2.07,4.93-4.41,5.04-2.49.12-4.74-1.64-5.07-4.68-.58-5.28-.77-10.61-1.08-15.23Z" style="fill: #000; stroke-width: 0px;"/>
  <path d="M317.58,380.56c.43-5.29.81-10.33,1.26-15.37.1-1.12.34-2.25.67-3.33.67-2.13,2.08-3.52,4.43-3.27,2.42.26,3.43,2.05,3.45,4.24.08,9.15.06,18.3.06,27.45,0,.52-.06,1.05-.15,1.56-.56,3.47-2.65,5.54-5.36,5.35-2.62-.18-4.26-2.29-4.35-5.89-.09-3.66-.02-7.33-.02-10.76Z" style="fill: #000; stroke-width: 0px;"/>
</svg>