<?xml version="1.0" encoding="UTF-8"?>
<svg id="Layer_1" data-name="Layer 1" xmlns="http://www.w3.org/2000/svg" viewBox="0 0 719 900">
  <path d="M239.29,672.35c.71-15.34,1.09-30.66-.63-45.97-1.93-17.22-8.41-32.43-19.17-45.92-5.53-6.92-11-13.89-16.43-20.89-1.22-1.58-2.11-1.81-3.74-.39-2.53,2.2-5.26,4.19-8.05,6.05-9.13,6.09-15.09,14.91-20.87,23.92-7.13,11.11-14.2,22.27-21.6,33.2-2.41,3.55-5.53,6.74-8.78,9.56-5.43,4.72-11.96,6.42-18.86,4.1-17.1-5.73-34.32-11.31-49.81-20.86-13.13-8.09-24.26-18.33-29.29-33.35-6.37-19.01-5.06-37.73,4.74-55.45,8.12-14.68,20.8-22.13,37.55-21.65,11.29.32,22.65.98,33.8,2.67,11.06,1.68,20.71-.27,29.87-6.51,5.55-3.78,11.5-6.97,17.34-10.31,1.77-1.01,2.14-2.1,1.55-4.01-5.3-16.94-9.33-34.19-12.19-51.7-.35-2.17-1.31-3.21-3.5-3.23-4.4-.05-8.75-.51-12.97,1.69-2.22,1.15-5.21.8-7.46,1.92-4.02,1.99-7.89,4.38-11.57,6.95-9.11,6.38-18.75,11.78-28.94,16.2-5.55,2.41-11.42,3.34-17.45,3.83-7.56.61-14.78-1.2-22.03-2.6-7.17-1.38-12.56-5.72-15.88-12.16-2.16-4.2-3.96-8.67-5.27-13.21-5.31-18.34-8.1-37-6.42-56.16,1.71-19.48,9.96-35.68,24.53-48.61,6.41-5.68,13.95-7.02,22.1-4.46,13.56,4.25,25.16,11.84,35.68,21.22,2.69,2.4,5.45,4.74,8.07,7.21,7.24,6.82,15.78,11.51,25.1,14.66,3.41,1.15,7.21,1.23,10.86,1.55.62.05,1.86-1.1,1.96-1.82,1.41-10.54,3.78-20.82,7.72-30.72.55-1.39,0-2.21-1.34-2.6-7.78-2.27-12.38-7.83-15.64-14.91-1.78-3.87-3.94-7.56-5.87-11.37-5.34-10.57-13.74-18.41-22.6-25.93-9.14-7.76-19.4-12.97-31.22-15.32-10.37-2.06-20.53-5.17-31.2-5.58-1.22-.05-2.49-.21-3.63-.61-12.65-4.43-25.02-9.8-33.74-20.27C1.4,225.37-2.63,207.48,1.64,188.3c4.71-21.15,15.16-39.59,30.4-54.85,17.51-17.54,37.41-32.19,59.08-44.29,8.72-4.87,18.1-8.15,28.14-9.13,15.97-1.55,29.92,2.9,41.21,14.49,13.29,13.65,23.04,29.36,27.3,48.19,1.93,8.55.28,16.08-5.47,22.72-3.49,4.03-6.91,8.12-10.35,12.19-.95,1.13-1.88,2.28-2.75,3.47-6.52,8.89-7.28,18.2-2.01,27.94,5.46,10.08,12.35,19.19,19.69,27.91,7.23,8.59,14.95,16.76,22.41,25.16,2.12,2.38,4.19,4.83,6.04,7.42,1.63,2.29,1.74,2.34,4.26.98,10.45-5.66,20.75-11.64,31.48-16.71,7.15-3.37,14.92-5.43,22.46-7.97,1.58-.53,2.47-.99,1.83-2.89-5.86-17.41-6.43-35.41-5.76-53.53.45-12.29,1.14-24.58,1.25-36.87.06-7.19-1.96-14.1-5.1-20.63-2.69-5.6-6.72-9.95-12.37-12.53-6.26-2.86-12.71-5.32-18.99-8.15-18.56-8.36-30.88-22.37-37.15-41.68-5.85-18.02-.74-33.14,12.78-45.71C228.06,7.04,249.31-1.79,274.13.35c21.98,1.89,43.94,2.23,65.86.53,13.23-1.03,26.28-.87,39.5.02,19.54,1.32,39.14,1.98,58.74-.19,16.4-1.82,32.45-.4,47.52,7.16,11.42,5.73,21.68,12.9,29.65,23.07,9.59,12.23,10.72,25.6,5.86,39.97-7.61,22.52-23.66,36.22-45.47,44.05-2.93,1.05-5.78,2.33-8.63,3.59-7.47,3.29-12.33,8.96-15.3,16.49-4.16,10.52-4.21,21.44-3.71,32.49.61,13.43,1.22,26.88,1.31,40.32.08,11.88-1.91,23.53-5.73,34.83-.56,1.65-.39,2.57,1.5,3.05,19.2,4.93,36.62,13.8,53.35,24.19,3.48,2.16,3.19,1.98,5.66-1.11,3.41-4.28,7.19-8.29,10.95-12.28,12.34-13.11,23.67-27.02,33.52-42.1,1.43-2.19,2.66-4.53,3.83-6.87,4.48-9.03,3.55-17.71-2.28-25.76-3.07-4.24-6.68-8.09-10.04-12.12-1.21-1.45-2.36-2.94-3.6-4.37-5.93-6.8-7.35-14.57-5.26-23.23,4.96-20.55,15.64-37.73,31.51-51.4,13.28-11.44,29.1-13.09,45.71-9.1,8.69,2.08,16.83,5.65,24.39,10.33,19.78,12.26,38.78,25.65,54.94,42.49,15.11,15.74,25.54,34.38,29.9,55.92,3.25,16.08-.38,31.16-8.8,45.08-4.68,7.73-11.63,13.04-19.56,17.14-2.04,1.06-4.12,2.05-6.08,3.24-6.39,3.9-13.34,5.52-20.76,6.18-12.88,1.14-25.35,4.49-37.64,8.32-9.7,3.02-17.17,9.78-24.7,16.27-8.43,7.26-15.19,15.77-19.91,25.92-2.06,4.44-4.56,8.69-7.04,12.91-2.65,4.5-6.66,7.42-11.64,8.92-1.94.59-2.42,1.55-1.66,3.47,3.71,9.36,6.03,19.08,7.22,29.06.27,2.29,1.15,2.98,3.44,2.93,10.78-.25,19.77-5.22,28.14-11.17,6.26-4.44,11.76-9.95,17.63-14.95,8.88-7.57,18.73-13.51,29.64-17.7,10.32-3.96,19.49-2.41,27.41,5.42,13.3,13.14,21.02,28.9,22.37,47.68,1.48,20.61-1.8,40.57-8.09,60.11-.95,2.94-2.31,5.8-3.82,8.51-3.69,6.58-9.3,10.75-16.73,12.23-3.7.73-7.47,1.05-11.18,1.73-11.98,2.18-23.15-.48-33.59-6.15-8.27-4.49-16.19-9.64-24.28-14.46-3.59-2.14-7.16-4.32-10.87-6.22-1.45-.74-3.28-.75-4.94-1.08-.56-.11-1.23-.02-1.67-.3-3.96-2.53-8.36-1.81-12.67-1.82-2.43,0-3.32,1.17-3.82,3.5-2.89,13.64-5.91,27.25-9,40.84-.84,3.67-2.02,7.27-3.17,10.87-.54,1.71-.12,2.76,1.42,3.66,7.37,4.29,14.74,8.6,22.03,13.02,6.59,3.99,13.54,5.34,21.22,4.28,9.17-1.27,18.41-2.2,27.65-2.87,5.29-.38,10.66-.22,15.97.16,11.93.85,21.31,6.41,28.4,16.01,14.26,19.27,16.15,49.38,3.95,69.92-7.05,11.86-17.38,20.43-29.53,26.77-10.77,5.62-21.68,10.93-33.51,14.07-3.23.86-6.3,2.34-9.44,3.53-8.89,3.35-16.76,1.4-23.24-5.22-3.93-4.02-7.5-8.51-10.62-13.19-7.73-11.6-15.06-23.47-22.64-35.18-4.74-7.33-10.82-13.34-18.19-18.07-2.19-1.41-4.17-3.16-6.19-4.84-.98-.81-1.88-1.12-2.72.01-8.79,11.84-19.04,22.61-26.37,35.54-6.36,11.22-9.06,23.49-10.28,36.18-1.76,18.36-.53,36.73-.29,55.1.12,9.02.05,18.04,0,27.07-.01,2.91-.99,4.48-3.93,4.74-3.86.33-7.88.37-11.67-.31-10.25-1.84-20.41-4.16-30.62-6.23-4.27-.86-4.23-.78-4.98,3.42-4.55,25.46-1.32,49.81,10.2,73.04,2.62,5.29,5.07,10.68,7.18,16.19,7.22,18.89,10.09,38.35,6.84,58.47-2.34,14.52-9.06,26.06-22.85,32.64-7.15,3.41-14.67,5.55-22.57,5.16-9.73-.48-19.43-1.71-29.15-2.41-7.26-.53-14.57-1.35-21.8-.96-12.67.67-25.28,2.25-37.94,3.29-6.98.57-13.93.17-20.73-1.8-18.04-5.23-28.31-17.25-31.3-35.67-3.16-19.52-.6-38.45,6.17-56.86,2.43-6.61,5.41-13.03,8.44-19.4,10-21.04,13.74-43,10.23-66.11-.34-2.27-.71-4.54-.91-6.83-.2-2.24-1.13-2.94-3.39-2.45-8.98,1.94-17.98,3.76-26.98,5.6-2.81.57-5.63,1.15-8.47,1.55-1.86.26-3.77.36-5.64.23-5.37-.37-6.58-1.95-6.55-7.29.08-12.8.03-25.59.03-38.39ZM293.84,242.45l.28.62c2.97.5,5.98.82,8.89,1.54,7.03,1.75,12.91,5.21,16.36,11.92,1.05,2.05,1.31,4.15-.43,5.93-1.78,1.81-3.84,1.38-5.91.4-2.29-1.09-4.56-2.29-6.96-3.09-10.11-3.36-20.29-2.35-30.35.1-22.76,5.54-42.97,16.38-61.64,30.28-14.42,10.74-26.73,23.46-35.68,39.2-10.49,18.45-14.96,38.49-14.84,59.5.26,45.08,11.6,87.6,30.67,128.21,8.42,17.94,20.16,33.76,32.26,49.32,6.71,8.62,12.98,17.54,17.71,27.44,7.47,15.61,10.54,32.23,10.85,49.37.15,8.35-.42,16.72-.69,25.07-.05,1.44-.29,2.69,1.96,2.16,6.78-1.6,13.56-3.19,20.39-4.57,18.18-3.68,36.45-6.77,55.04-7.46,8.89-.33,17.71-.03,26.29,2.73.94.3,2.16.24,3.12-.06,8.02-2.58,16.3-3.32,24.57-2.65,13.31,1.09,26.63,2.38,39.82,4.41,12.14,1.86,24.13,4.74,36.16,7.3,3,.64,3.08.72,2.97-2.31-.3-8.19-.89-16.39-.71-24.58.32-15.28,2.8-30.2,8.66-44.44,5.11-12.42,12.79-23.25,20.95-33.77,8.8-11.35,17.43-22.81,24.56-35.32,12.93-22.69,21.75-47.01,28.15-72.24,6.03-23.79,9.92-47.87,9.14-72.53-.84-26.55-8.56-50.64-25.64-71.36-11.35-13.77-25.11-24.7-40.27-33.92-14.01-8.52-28.75-15.45-44.73-19.46-7.92-1.99-15.94-3.07-24.13-2.15-5.29.59-10.21,2.3-14.87,4.86-2.03,1.11-4.17,1.28-5.89-.54-1.63-1.72-1.44-3.8-.32-5.71.99-1.68,2.07-3.38,3.39-4.8,4.97-5.33,11.46-7.4,18.46-8.26,1.18-.15,2.36-.3,3.53-.44.08-.21.16-.43.24-.64-1.51-1.18-2.95-2.46-4.53-3.53-12.24-8.28-25.81-13.55-39.92-17.56-3.44-.98-7.05-1.68-10.62-1.86-5.48-.27-10.98,0-16.48.09-3.02.05-6.14-.29-9.05.34-16.81,3.66-32.64,9.81-47,19.45-1.32.89-2.5,1.99-3.75,2.99ZM317.1,32.5c-22.13.07-44.02,3-65.68,8.01-15.91,3.68-30.03,10.28-41.1,22.63-1.14,1.28-1.51,2.31-.91,3.92,2.53,6.78,6.25,12.8,11.04,18.19,1.29,1.45,1.99,1.37,3.13-.25,2.02-2.87,4.13-5.74,6.58-8.23,7.3-7.41,16.33-12.06,26.09-15.28,29.06-9.58,58.89-11.87,89.18-8.67,4.38.46,8.59,2.42,12.91,3.6.77.21,1.72.12,2.49-.13,2.64-.85,5.17-2.36,7.85-2.66,8.63-.94,17.29-1.87,25.95-2.04,23.21-.47,46.02,2.43,68.08,9.92,13.39,4.54,25.3,11.35,32.97,23.88.74,1.2,1.49,1.41,2.49.3,5.11-5.67,9.17-11.98,11.55-19.27.25-.75-.04-2.06-.58-2.63-8.73-9.11-18.43-16.6-30.87-20.25-20.02-5.87-40.41-9.41-61.2-10.53-18.52-1-37.06-1.61-55.36,2.65-1.54.36-3.31.29-4.87-.06-13.07-2.95-26.3-3.57-39.74-3.11ZM488.96,93.45c-.51-.69-.8-1.17-1.18-1.58-8.33-9.03-18.2-15.73-29.82-19.82-13.08-4.6-26.63-7.04-40.36-8.52-16.61-1.79-33.23-2.18-49.79.62-5.51.93-10.99.85-16.52.04-29.89-4.37-59.23-1.59-88.04,7.13-12.36,3.74-22.82,10.66-31.64,20.08-1.81,1.94-1.87,2.33.5,3.59,3.04,1.61,6.13,3.14,9.3,4.46,6.51,2.7,13.06,5.3,19.66,7.77.76.28,2.25-.2,2.85-.84,11.15-12.03,24.92-19.44,40.84-22.67,15.13-3.07,30.47-2.7,45.47.51,6.51,1.4,12.26,1.38,18.7-.08,12.54-2.84,25.42-3.01,38.19-1.55,18.85,2.15,34.99,9.98,48.04,23.95.57.61,2.09.93,2.89.64,4.76-1.76,9.47-3.68,14.14-5.67,4.97-2.12,9.9-4.34,14.82-6.58.69-.31,1.24-.93,1.94-1.48ZM437.65,136.93c.36-.97.61-1.81.96-2.59,2.38-5.29,4.45-10.76,7.27-15.81,2.89-5.16,3.23-4.99-1.72-8.43-10.73-7.47-22.04-13.74-35.21-15.63-14.72-2.11-29.41-1.85-44.07.93-3.08.58-6.46.84-9.5.24-8.5-1.68-17.05-2.19-25.67-2.55-21.82-.92-40.96,6-58.06,19.22-1.2.93-1.91,1.74-.69,3.18,4.68,5.58,7.35,12.17,9.5,19.02.25.8.66,1.55,1.09,2.54,2.42-1.91,4.42-3.74,6.66-5.21,20.45-13.44,42.95-17.73,66.97-14.37,3.06.43,5.81.47,8.84-.09,10.36-1.89,20.77-1.47,31.08.45,15.11,2.82,29.34,7.75,41.03,18.31.33.3.82.43,1.51.78ZM575.65,96.26c.03.26.06.52.09.79.42.18.82.46,1.26.54,9.23,1.67,17.37,5.88,25.1,10.94,31.87,20.86,55.94,48.55,72.18,83,7.12,15.11,11.59,30.84,10.67,47.76-.02.37.16.74.29,1.28.6-.18,1.07-.26,1.48-.46,5.2-2.54,9.62-6.04,12.47-11.15,6-10.73,8.72-22.2,6-34.37-5.04-22.56-16.88-41.27-33.47-57.08-12.12-11.55-26.01-20.74-40.22-29.45-8.48-5.2-17.22-9.9-26.83-12.71-7.67-2.24-15.46-3-23.32-1.07-1.94.48-3.8,1.3-5.69,1.97ZM33.78,240.72c.13-.86.26-1.26.23-1.64-.81-13.28,1.81-26.03,6.75-38.22,15.64-38.63,41.19-69.22,75.9-92.17,7.76-5.13,15.99-9.4,25.3-11.09.49-.09.95-.38,1.42-.58.04-.27.08-.54.12-.8-2.6-.79-5.16-1.84-7.82-2.33-9.77-1.78-19.09.18-28.13,3.86-11.46,4.66-21.86,11.23-32.12,18.05-13.83,9.2-27.14,19.06-37.82,31.97-11.49,13.91-20.22,29.32-23.85,47.17-2.66,13.1.27,25.28,7.63,36.34,2.92,4.39,7.18,7.26,12.38,9.46ZM385.29,742.74c5.32.7,10.38-.21,14.76-3.33,9.79-6.99,17.64-15.41,19.94-27.85.37-2,.12-2.84-1.99-3.14-15.33-2.19-30.56-5.28-46.16-5.17-2.4.02-4.79-.97-7.22-1.24-2.97-.33-6.23-1.21-8.9-.36-4.51,1.43-8.98,1.72-13.57,1.78-14.1.18-27.84,3.18-41.72,5.14-1.23.17-2.08.69-1.64,2.11,1.11,3.5,1.97,7.12,3.46,10.45,2.98,6.68,8.19,11.6,13.71,16.2,5.38,4.49,11.54,6.3,18.52,5.71,4.32-.37,8.67-.54,13.01-.56,6.46-.02,12.91.21,19.37.26,6.14.05,12.27.01,18.41.01ZM297.21,777.01c-.44.59-.76.87-.88,1.22-1.42,4.11-2.86,8.21-4.18,12.35-.26.81-.21,1.8-.05,2.65.43,2.25,1.07,4.46,1.5,6.71,2.27,11.95,9.3,19.54,20.83,23.22,7.37,2.35,14.9,3.08,22.58,2.9,5.49-.13,10.99-.22,16.48-.21,11.48.02,22.96.25,34.43.14,8.13-.08,15.95-1.85,23.22-5.65,4.08-2.13,7.79-4.84,9.85-8.99,4.46-8.95,8.29-18.09,3.33-28.22-.64-1.31-.91-2.8-1.41-4.19-.2-.57-.55-1.08-1.04-2.01-1.2,1.71-2.17,3.09-3.14,4.46-8,11.19-18.66,16.97-32.61,15.99-2.69-.19-5.36-.67-8.05-.98-2.76-.32-5.54-.57-8.3-.89-3.23-.38-6.46-.83-9.69-1.21-.54-.06-1.11.07-1.66.16-1.85.31-3.68.74-5.54.95-4.96.55-9.96.79-14.89,1.53-16.76,2.52-29.76-3.17-38.98-17.44-.51-.79-1.1-1.54-1.79-2.49ZM511.15,51.94c.21-.09.42-.19.63-.28-.56-2.07-.92-4.21-1.71-6.19-3.15-7.85-8.59-13.91-15.32-18.85-15.3-11.23-32.4-15.7-51.28-13.76-17.12,1.76-34.24,1.3-51.34-.37-8.73-.85-17.53-1.16-26.19-2.47-4.44-.67-8.5-.84-12.94.01-6.09,1.17-12.38,1.22-18.58,1.86-21.35,2.23-42.7,2.56-64.12.78-17.97-1.49-33.78,4.48-47.84,15.35-6.73,5.21-11.95,11.7-14.42,20.06-.35,1.19-.45,2.45-.66,3.68.2.1.39.19.59.29.64-.56,1.32-1.09,1.92-1.69,6.04-6.08,13.02-10.8,21.08-13.72,5.85-2.12,11.79-4.09,17.81-5.65,27.42-7.07,55.31-9.11,83.49-7.11,8.65.61,17.26,1.88,25.89,2.81.89.1,1.8.09,2.69,0,8.55-.93,17.07-2.19,25.65-2.8,28.94-2.06,57.53.2,85.66,7.55,14.14,3.7,27.53,8.79,37.83,19.81.3.32.77.46,1.17.68ZM564.41,111.62c.06.35.12.69.17,1.04,2.13.79,4.31,1.47,6.37,2.4,8.79,3.99,15.56,10.56,21.99,17.51,15.76,17.04,28.1,36.5,39.46,56.6,10.6,18.75,14.85,39.12,14.41,60.55-.04,1.79.41,2.32,2.25,1.99,5.08-.9,10.2-1.64,15.3-2.44,8.48-1.33,10.29-1.04,11.65-12.32,1.03-8.58-.86-16.88-4.05-24.79-12.03-29.78-29.64-55.64-54.25-76.53-10.29-8.73-20.98-16.86-33.36-22.47-4.37-1.98-8.92-3.48-13.79-3.06-2.08.18-4.11.99-6.16,1.52ZM154.83,112.26c-1.05-.6-1.81-1.37-2.64-1.45-2.9-.27-5.89-.74-8.73-.35-6.18.86-11.72,3.68-16.98,6.91-27.17,16.72-49.23,38.5-65.29,66.2-6.18,10.66-12.11,21.43-15.8,33.26-2.52,8.08-3.62,16.3-1.75,24.74.93,4.18,3.2,6.58,7.55,7.19,6.41.89,12.8,1.97,19.18,3.02,1.54.25,1.8-.41,1.77-1.77-.5-22.38,4.3-43.47,15.55-62.94,2.95-5.11,6.03-10.15,9.16-15.15,9.72-15.53,20.16-30.52,33.21-43.51,6.8-6.77,14.06-12.85,23.63-15.37.28-.07.51-.34,1.13-.78ZM434.12,175.37c.21-.99.42-1.58.45-2.18.3-7.46.65-14.91.76-22.37.02-1.08-.85-2.47-1.72-3.24-12.3-10.77-26.66-17.26-42.73-19.78-18.24-2.87-36.64-2.27-54.93-.98-18.88,1.33-35.89,8.02-50.41,20.51-1.36,1.17-2.06,2.32-1.96,4.19.38,6.96.6,13.93.9,20.89.04.83.19,1.66.34,2.83.87-.58,1.34-.86,1.79-1.19,5.28-3.88,10.38-8.04,15.87-11.58,11.59-7.47,23.86-13.52,37.73-15.4,6.15-.84,12.37-1.83,18.41.87.63.28,1.58-.07,2.36-.21,2.56-.46,5.1-1.34,7.66-1.39,8.7-.16,17.16,1.47,25.26,4.61,14.04,5.44,26.77,13.11,38.22,22.89.53.45,1.11.85,1.99,1.52ZM417.48,739.19c-.28-.08-.56-.16-.83-.24-.71.61-1.45,1.2-2.12,1.85-8.41,8.15-18.44,12.79-30.14,13.33-7.5.35-15.05,1.39-22.54-.35-1.17-.27-2.49-.32-3.67-.09-6.18,1.18-12.38.73-18.61.71-13.7-.05-25.6-4.2-35.42-13.9-.58-.57-1.29-1.01-2.26-1.75-.37,5.78-.73,11-1.02,16.22-.03.62.23,1.29.48,1.88,1.09,2.55,2.25,5.07,3.35,7.62,4.7,10.98,12.47,18.19,24.66,19.68,4.38.54,8.82.68,13.24.72,5.68.05,11.13.66,15.92,4.1.43.31,1.47.31,1.91,0,4.88-3.45,10.41-4.05,16.17-4.1,4.66-.04,9.35-.25,13.96-.87,11.16-1.52,18.5-8.17,23.12-18.11,3.01-6.47,5.56-13.02,3.88-20.45-.45-1.99-.07-4.16-.07-6.25ZM82.35,245.47c-.12,2.05-.16,4.1-.39,6.14-.2,1.73.44,2.42,2.13,2.89,6.22,1.76,12.39,3.67,18.54,5.66,1.52.49,2,.26,2.23-1.35,1.33-9,2.62-18.01,4.17-26.97,3.79-21.96,10.9-42.72,22.59-61.8,4.96-8.1,10.58-15.64,18.31-21.34,6.81-5.01,14.21-8.2,22.95-6.59,1.31.24,1.97-.25,1.62-1.58-.71-2.7-1.43-5.39-2.33-8.03-.18-.53-1.25-1.23-1.75-1.12-2.96.67-4.63-.73-5.97-3.13-1.87-3.36-4.27-4.71-7.96-3.75-3.04.79-6.34,1.83-8.69,3.77-5.79,4.78-11.51,9.78-16.54,15.34-11.65,12.88-20.67,27.71-30.26,42.12-12.07,18.12-18.45,37.95-18.65,59.74ZM636.56,244.37c-.45-19.79-5.44-38.28-16.35-54.92-7.95-12.13-15.85-24.34-24.49-35.97-5.59-7.52-12.22-14.34-18.93-20.92-3.24-3.18-7.53-5.55-11.73-7.41-5.14-2.28-7.93-.95-10.92,3.77-1.19,1.89-2.76,3.08-5.11,2.48-1.34-.34-2.01.12-2.36,1.38-.67,2.45-1.39,4.89-2.06,7.34-.47,1.73.25,2.23,1.94,1.91,5.1-.98,9.95,0,14.63,2.02,7.09,3.06,12.81,7.96,17.6,13.88,11.71,14.48,19.79,30.95,25.12,48.66,5.11,16.97,8.51,34.37,10.28,52.05.14,1.4.34,2.11,2.07,1.55,6.23-2.01,12.48-3.92,18.77-5.73,1.58-.45,2.17-1.14,2.02-2.75-.23-2.45-.31-4.91-.46-7.36ZM284.98,813.65c-.39.43-.72.63-.78.89-1.38,6.4-2.78,12.81-4,19.24-.14.72.59,1.8,1.2,2.43,1.85,1.93,4.13,3.5,5.74,5.6,5.57,7.3,12.7,11.99,21.71,13.8,12.1,2.43,24.32,3.54,36.66,3.37,7.52-.11,15.06-.42,22.57-.11,10.53.42,20.96-.37,31.42-1.39,13.88-1.35,26.1-5.63,34.2-17.96.78-1.18,2.03-2.19,3.29-2.87,1.66-.9,2.22-2.04,1.85-3.8-1.24-5.85-2.46-11.71-3.72-17.55-.11-.51-.47-.96-.75-1.49-.37.2-.65.25-.76.42-.31.48-.58.99-.81,1.51-3.5,7.97-9.23,13.82-16.86,17.93-9.62,5.19-19.95,6.5-30.72,6.14-12.27-.41-24.55-.56-36.83-.62-6.06-.03-12.12.47-18.19.64-7.55.22-14.88-.94-21.91-3.75-10.07-4.04-17.89-10.51-22.24-20.71-.24-.55-.64-1.04-1.07-1.71ZM431.86,238.84c.11-.9.2-1.35.22-1.81.19-5.98.3-11.97.6-17.95.11-2.22-.69-3.67-2.42-4.98-7.8-5.91-16-11.13-24.77-15.49-17.35-8.62-35.65-12.74-54.95-10.87-23.57,2.29-43.9,12.61-62.39,26.9-.88.68-1.59,2.19-1.59,3.31.02,6.39.27,12.79.46,19.18,0,.28.16.56.33,1.16.42-.54.72-.81.86-1.14,3.36-7.62,9.46-12.44,16.64-16.06,10.91-5.51,22.51-8.96,34.44-11.43,6.37-1.32,12.69-.75,19.08-.4,4.96.27,10.03-.89,14.94-.36,15.06,1.62,29.35,6.12,42.74,13.21,6.51,3.44,11.85,8.21,14.76,15.24.17.41.52.75,1.06,1.49ZM286.17,204.89c1.03-.95,1.51-1.42,2.03-1.87,3.64-3.16,7.01-6.72,10.98-9.39,10-6.74,21.01-11.44,32.63-14.64,8.61-2.37,17.33-3.63,26.26-1.78,1.24.26,2.6-.08,3.9-.16,3.35-.2,6.71-.73,10.03-.57,13.64.65,26.06,5.51,38.11,11.49,7.98,3.96,15.46,8.65,21.21,15.67.31.38.86.56,1.67,1.06.19-3.07.37-5.74.51-8.41.48-9.44,1.54-6.95-5.48-12.68-10.52-8.6-21.9-15.8-34.25-21.57-11.07-5.17-22.91-4.93-34.62-5.92-.32-.03-.65.09-.97.13-1.86.19-3.73.6-5.58.52-8.76-.38-17.15,1.25-25.24,4.5-13.07,5.24-24.42,13.25-35.69,21.54-5.09,3.74-7.54,7.68-6.13,13.95.54,2.41.41,4.96.64,8.14ZM108.35,515.18c-3.48-.52-6.2-1.01-8.93-1.26-.6-.05-1.32.71-1.91,1.18-1.31,1.04-2.41,2.49-3.87,3.14-8.13,3.62-12.99,9.9-14.88,18.39-2.41,10.82-.47,21.1,5.18,30.54,12.34,20.63,29.69,35.61,51.76,45.13,1.24.53,2.15.51,2.96-.68,1.75-2.58,3.53-5.14,5.34-7.67.9-1.26.49-1.87-.74-2.7-4.61-3.1-9.35-6.07-13.6-9.63-9.36-7.84-17.76-16.52-22.75-27.99-4.28-9.82-7.37-19.83-6.3-30.72.54-5.48,1.98-10.63,5.49-15.03.55-.68,1.12-1.35,2.26-2.71ZM610.93,515.09c.73,1.13,1.11,1.63,1.4,2.18,1.71,3.32,3.9,6.49,4.97,10.01,2.01,6.62,1.63,13.45.22,20.21-4.87,23.43-19.78,39.41-38.89,52.19-4.5,3.01-4.66,2.76-1.55,7.25,4.29,6.19,4.31,6.23,11.12,2.99,20.13-9.57,35.76-24.1,47.1-43.23,4.65-7.84,6.54-16.42,5.65-25.51-.98-9.94-5.26-17.84-14.58-22.37-2.07-1.01-4.27-1.74-5.22-4.16-.14-.35-.8-.76-1.18-.72-2.87.3-5.73.71-9.05,1.15ZM439.7,854.46c-.31-.13-.61-.27-.92-.4-1.6,1.69-3.12,3.48-4.81,5.07-7.26,6.8-16.17,10.23-25.73,12.03-8.05,1.52-16.18,2.65-24.29,3.86-6.99,1.05-13.93.71-20.66-1.56-2.55-.86-4.84-.6-7.42-.11-5.27,1.02-10.75,2.42-15.98,1.94-10.75-.99-21.48-2.72-32.07-4.87-10.5-2.13-19.81-6.87-26.67-15.54-.25-.31-.75-.42-1.51-.81,0,1.08-.12,1.81.02,2.49.89,4.41,1.53,8.9,2.83,13.19,2.05,6.78,6.74,11.27,13.32,13.88,7.64,3.03,15.61,4.04,23.68,3.13,8.05-.91,16.05-2.36,24.03-3.82,4.68-.85,9.23-1.1,13.87.23,1.41.4,3.13.32,4.57-.06,4.31-1.14,8.56-1.23,12.9-.28,4.08.9,8.17,1.8,12.3,2.49,9.91,1.66,19.81,2.55,29.81.33,11.83-2.63,19.18-9.49,21.31-21.58.56-3.19.97-6.41,1.45-9.61ZM124.83,274.76c.23-1.47.36-2.25.46-3.04,2.23-17.79,8.91-34.04,17.39-49.63,1.85-3.41,4.27-6.53,7.9-8.22,2.23-1.04,2.43-2.24,1.81-4.44-4.17-14.82-1.52-28.28,8.57-40.04,3.09-3.6,6.6-6.84,9.82-10.34.7-.76,1.6-2.27,1.29-2.83-.64-1.16-1.89-2.29-3.13-2.71-1.21-.41-2.86-.25-4.08.25-2.71,1.1-5.71,2.08-7.8,3.99-4.02,3.68-8.06,7.58-11.08,12.07-11.13,16.52-19.46,34.46-24.15,53.84-3.27,13.53-5.48,27.32-8.1,41.01-.12.63.06,1.66.5,2,3.31,2.63,6.71,5.15,10.6,8.09ZM594.27,274.69c3.84-2.89,7.2-5.33,10.43-7.95.49-.4.55-1.64.43-2.44-.5-3.32-1.26-6.6-1.73-9.93-3.1-22.05-8.4-43.46-18.38-63.51-4.97-10-10.03-19.94-17.63-28.29-3.4-3.74-7.22-6.98-12.15-8.49-1.68-.51-3.6-.8-5.29-.51-1.14.2-2.41,1.42-2.96,2.52-.31.61.5,2.1,1.18,2.84,2.38,2.59,4.99,4.98,7.4,7.55,5.18,5.5,9.34,11.63,11.4,19,2.29,8.21,2.06,16.37-.45,24.49-.41,1.34-.74,2.58.91,3.33,4.15,1.9,6.97,5.22,9.05,9.09,8.37,15.54,15.05,31.69,17.22,49.4.1.78.3,1.54.57,2.9ZM638.55,514.5c-.07.16-.15.32-.22.48.52.58,1.02,1.18,1.55,1.75,5.62,5.97,9.15,12.96,10.19,21.13,1.3,10.26.14,20.29-4.66,29.45-12.58,23.99-31.35,41.3-56.74,51.2-.51.2-.99.48-1.5.73,1.79,2.75,3.76,3.37,6.76,2.02,4.04-1.81,7.96-3.89,12.03-5.59,9.76-4.08,19.63-7.87,29.36-12.01,27.92-11.87,38.27-38.76,28.69-66.41-3.83-11.04-10.97-19.36-22.97-22.32-.82-.2-1.66-.28-2.5-.42ZM131.92,619.24c-2.99-1.19-5.87-2.12-8.56-3.45-18.53-9.11-33.4-22.42-44.87-39.54-5.37-8.02-8.94-16.77-9.81-26.49-1.15-12.89,1.72-24.44,11.18-33.83.3-.3.46-.74.92-1.52-1.22.2-2.01.29-2.78.47-7.94,1.82-13.88,6.48-18.34,13.12-17.29,25.73-6.38,62.5,22.24,74.88,6.47,2.8,13.11,5.21,19.59,7.97,7.77,3.31,15.45,6.8,23.17,10.21,3.34,1.47,5.07,1.08,7.25-1.83ZM129.04,519.87c-2.43.35-4.44.83-6.47.9-2.52.09-4.58,1-6.44,2.62-3.26,2.85-4.83,6.54-5.44,10.72-.93,6.44.62,12.52,2.7,18.54,6.25,18.06,19.73,30.18,34.08,41.6,1.26,1,2.11.73,2.95-.64,2.75-4.46,5.49-8.94,8.46-13.26,1.34-1.95.94-2.84-.89-4.05-7.52-4.97-13.94-11.15-19.3-18.39-6.12-8.25-9.96-17.33-9.48-27.81.12-2.69.63-5.36,1.09-8.02.26-1.48-.11-2.23-1.27-2.21ZM608.58,538.81c-.09-5.26-.8-9.52-3.6-13.12-1.89-2.43-4.11-4.47-7.4-4.84-1.87-.21-3.73-.43-5.58-.74-3.28-.55-3.7-.16-3.05,3.02,1.89,9.17.78,17.96-3.45,26.3-5.67,11.16-14.2,19.78-24.43,26.77-1.99,1.36-2.14,2.32-.8,4.26,2.79,4.04,5.33,8.26,7.94,12.43,1.56,2.48,1.69,2.57,4.08.72,2.46-1.9,4.92-3.83,7.21-5.94,7.59-7,15.36-13.88,20.48-23.06,4.62-8.3,8.32-16.92,8.61-25.81ZM634.52,450.36c4.42,2.2,9.49,3.11,14.8,2.38.71-.1,1.61-1.18,1.85-1.98,2.11-6.89,4.48-13.74,6.02-20.76,3.36-15.32,2.62-30.85,1.18-46.3-.67-7.14-2.01-14.28-3.8-21.22-1.36-5.3-4.66-9.77-9.33-12.91-5.04-3.39-12.23-3.25-16.02.11-1.16,1.03-1.26,1.73.15,2.62,11.04,6.93,16.56,17.35,17.89,29.93.74,6.98.59,14.08.33,21.12-.38,10.33-1.01,20.74-4.81,30.48-2.18,5.59-5.35,10.79-8.26,16.54ZM84.98,450.09c-.37-.65-.55-1.11-.84-1.47-5.83-7.3-9.46-15.68-10.54-24.83-1.31-11.13-2.28-22.35-2.39-33.54-.15-15.6,4.61-29.24,18.64-38.16.4-.25.61-1.71.37-1.89-1.48-1.12-3.03-2.68-4.71-2.88-5.17-.61-10.1.17-14.1,4.09-4.94,4.84-7.72,10.8-8.92,17.46-2.78,15.48-3.42,31.11-2.64,46.79.59,11.98,3.54,23.48,7.76,34.65.36.96,1.25,2.29,2.04,2.41,5.29.78,10.35-.18,15.33-2.63ZM662.53,449.62c.55,0,.95.08,1.31-.01,4.75-1.16,8.76-3.45,10.96-7.99,1.46-3.01,2.79-6.14,3.68-9.36,4.98-17.95,5.81-36.32,3.94-54.69-1.57-15.39-10.47-27.32-21.14-37.9-1.29-1.28-3.65-1.64-5.59-2.06-.99-.22-2.16.38-3.53.66,2.26,2.35,4.2,4.12,5.86,6.12,5.76,6.99,8.53,15.26,9.9,24.06,1.96,12.61,2.33,25.33,1.86,38.05-.52,14.14-2.09,28.15-7.05,41.56-.16.42-.12.92-.19,1.55ZM66.7,338.32c-3.15-1.25-5.85-1.07-8.22.74-1.81,1.38-3.49,3-4.99,4.71-5.38,6.15-9.9,12.94-13.12,20.42-1.92,4.45-3.43,9.32-3.86,14.12-1.23,13.59-1.13,27.25,1.22,40.72,1.2,6.91,3.19,13.72,5.38,20.39,1.78,5.41,5.98,8.7,11.56,10.05.57.14,1.17.1,1.98.16-1.11-3.62-2.31-6.85-3.1-10.17-5.71-24.21-5.81-48.63-2.05-73.08,1.61-10.44,5.82-19.81,14.3-26.74.29-.24.44-.64.9-1.32ZM106.01,364.26c-.74-.41-1.25-.84-1.83-.99-4.23-1.1-8.13-.57-11.49,2.45-3.34,3-5.69,6.74-6.56,11.04-1.21,6-2.28,12.1-2.57,18.2-.78,16.73.16,33.3,6.5,49.12.36.89.73,1.77,1.32,3.2,5.08-3.1,9.89-6,14.66-8.99,1.33-.83.49-1.68-.12-2.65-1.85-2.98-4.07-5.86-5.23-9.11-4.57-12.83-6.39-26.09-4.94-39.69.75-7.04,2.86-13.63,7.38-19.26.86-1.07,1.8-2.08,2.88-3.32ZM627.75,447.37c1.6-4.79,3.19-8.9,4.35-13.14,3.9-14.27,3.94-28.86,3.19-43.49-.3-5.92-1.13-11.77-3.53-17.27-1.6-3.67-3.78-6.92-7.24-9.1-3.55-2.23-8.69-2.21-11.32.03.16.26.28.58.5.8,5.25,5.05,8.23,11.41,8.98,18.45.74,6.96,1.1,14.11.4,21.06-1.12,11.16-2.69,22.4-10.42,31.51-.31.36-.12,1.76.26,2,4.74,3.02,9.55,5.91,14.83,9.14ZM142.66,294.47c.31-.35.57-.51.61-.71.22-1.21.41-2.42.59-3.64,1.79-12.71,6.06-24.49,13.27-35.14,3.44-5.09,7.56-9.52,13.46-11.85,2.03-.8,1.28-1.82.39-2.98-3.72-4.89-7.43-9.79-11.11-14.72-1.88-2.52-4.12-2.88-6.12-.49-1.72,2.05-3.29,4.35-4.4,6.77-7.43,16.22-12.96,32.97-13.64,51-.03.88-.11,1.97.33,2.63,2.09,3.08,4.36,6.03,6.63,9.11ZM575.83,294.35c.46-.1.69-.08.76-.18,1.71-2.3,3.57-4.51,5.04-6.95.87-1.45,1.63-3.28,1.58-4.91-.59-17.62-6.06-33.99-13.22-49.87-1.2-2.66-2.87-5.18-4.71-7.45-1.98-2.44-4.19-2.1-6.1.44-3.73,4.99-7.46,9.98-11.27,14.9-1.1,1.42-1.08,2.23.68,2.9,4.35,1.66,7.73,4.62,10.57,8.2,9.3,11.7,14.14,25.21,16.14,39.88.14,1.01.35,2.01.54,3.03ZM567.36,311.06c-1.74-9.92-3.15-19.91-5.32-29.73-1.53-6.89-4.65-13.34-8.8-19.11-1.98-2.75-4.39-5.32-7.03-7.44-2.85-2.29-5.48-1.53-7.4,1.61-1.1,1.8-2.52,2.79-4.61,3.3-1.29.31-2.46,1.43-3.48,2.41-1.38,1.32-1.05,2.19.65,3.36,3.33,2.3,6.68,4.76,9.4,7.73,4.41,4.81,7.33,10.68,9.49,16.82,3.3,9.35,6.44,18.76,7.7,28.68.07.57,1.07,1.53,1.5,1.46,2.67-.43,7.58-6.43,7.88-9.08ZM151.96,312.16c0,1.54,4.87,7.53,7.54,7.94.43.07,1.35-.87,1.51-1.48,2.08-8,3.69-16.14,6.18-24.01,1.74-5.5,4.34-10.79,7.09-15.89,2.9-5.38,6.82-10.15,12.48-12.88,3.5-1.69,2.9-2.35.79-4.71-.69-.77-1.98-.99-2.92-1.57-1.46-.91-3.25-1.64-4.21-2.95-2.5-3.38-5.05-4.23-8.21-1.49-2.68,2.33-5.11,5.11-7.11,8.05-9.83,14.43-11.04,31.29-13.14,48.98ZM150.73,515.12c-.68.29-.98.4-1.28.54-4.64,2.2-7.71,5.63-8.78,10.8-1.52,7.3,0,14.02,3.62,20.35,5.06,8.83,11.82,16.3,18.9,23.52,1.16,1.19,1.92,1.04,2.94-.23,2.29-2.89,4.66-5.72,7.13-8.46,2.21-2.45,2.17-2.28-.07-4.84-10.25-11.7-20.59-23.38-21.55-40.1-.03-.55-.6-1.06-.91-1.58ZM578.94,532.13c-.15-6.95-2.02-12.92-8.9-16.24-2.14-1.03-2.68-.96-2.75,1.34-.22,7.18-2.43,13.83-6.42,19.63-4.87,7.07-10.32,13.73-15.64,20.47-1.1,1.39-1.52,2.21-.13,3.68,2.74,2.92,5.31,6.02,7.85,9.12.97,1.19,1.73,1.27,2.79.2,7.1-7.2,13.85-14.68,18.94-23.49,2.63-4.55,4.2-9.42,4.27-14.73ZM171.67,501.33c-1.38,1.58-2.22,2.95-3.42,3.85-5.08,3.81-5.52,9.09-4.53,14.62.53,2.93,1.5,5.99,3.06,8.5,4.89,7.84,10.16,15.45,15.29,23.15.9,1.35,1.9,1.46,3.32.58,2.01-1.25,4.11-2.39,6.28-3.34,2.59-1.13,2.76-1.27,1.25-3.66-8.18-12.94-14.7-26.69-20.06-41.01-.28-.74-.64-1.46-1.18-2.69ZM547.25,501.72c-.46,1.03-.82,1.82-1.17,2.62-3.45,7.88-6.68,15.88-10.42,23.62-2.85,5.89-6.33,11.48-9.62,17.15-1,1.72-1.07,2.67,1.06,3.5,2.27.88,4.41,2.14,6.52,3.39,1.27.75,2.22.85,3.17-.41,6.27-8.32,12.71-16.55,16.85-26.22,4.16-9.72,2.29-16.68-6.39-23.65ZM150.57,397.43c0-6.37,0-10.79,0-15.21,0-1.25-.05-2.4-1.83-2.06-9.22,1.74-14.1,4.39-16.62,13.33-.84,3-1.22,6.39-.74,9.44.77,4.9,2.43,9.65,3.73,14.47.43,1.6,1.48,1.8,3.03,1.6,3.64-.48,7.31-.84,10.98-1.04,2.92-.16,3.08-.23,2.84-3.1-.54-6.45-1.04-12.9-1.4-17.41ZM108.04,395.95c.71,6.57.97,12.18,2.02,17.64.95,4.95,2.72,9.75,4.2,14.6.55,1.8,1.56,2.01,3.1.78,1.92-1.53,3.89-3.08,6.05-4.2,2.3-1.2,2.5-2.33,1.32-4.61-7.5-14.56-8.77-28.93,1.95-42.7.82-1.05.58-1.8-.59-2.32-2.18-.96-4.34-1.94-6.55-2.83-2.07-.84-4.09-.44-5.26,1.41-1.73,2.74-3.72,5.56-4.46,8.62-1.14,4.73-1.32,9.7-1.79,13.62ZM610.67,395.32c-.09-2.12-.1-4.92-.37-7.68-.48-4.88-1.79-9.51-5.01-13.38-2.12-2.55-3.68-2.9-6.7-1.63-1.66.7-3.26,1.55-4.95,2.16-2.13.77-2.1,1.69-.8,3.38,6.74,8.81,8.94,18.72,6.13,29.45-1.19,4.55-3.24,8.9-5.11,13.25-.69,1.61-.65,2.52.94,3.38,1.51.82,2.94,1.79,4.34,2.79,4.89,3.49,4.96,3.54,7.07-2.27,3.38-9.29,4.04-19.02,4.47-29.45ZM587.91,400.7c-.5-13.44-6.45-18.56-17.09-20.47-1.54-.28-2.27.06-2.34,1.79-.45,11.21-.96,22.41-1.5,33.62-.07,1.54.42,2.2,2.04,2.3,4.08.26,8.14.78,12.22.99.81.04,2.17-.62,2.43-1.28,2.2-5.57,4.08-11.25,4.24-16.95ZM175.18,308.14c.26.19.53.37.79.56.39-.61.68-1.31,1.17-1.82,4.88-5.18,9.67-10.46,14.75-15.44,3.2-3.14,6.85-5.84,10.31-8.72,2.36-1.95,2.26-2.58-.39-3.86-1.45-.7-2.87-1.59-4.06-2.67-1.87-1.68-3.91-2.04-5.8-.59-2.18,1.67-4.31,3.56-5.96,5.74-5.81,7.67-8.44,16.75-10.87,25.88-.08.29.04.62.06.94ZM543.31,308.44c.33-.47.47-.58.5-.72.04-.24.05-.5,0-.73-2.38-9.06-5.05-18.04-10.78-25.65-1.64-2.18-3.78-4.07-5.96-5.74-1.88-1.44-3.94-1.13-5.8.56-1.13,1.03-2.44,1.94-3.82,2.61-3,1.46-2.98,1.8-.45,4.11,7.25,6.61,14.43,13.31,21.55,20.06,1.7,1.61,3.09,3.56,4.76,5.51Z" style="fill: #000; stroke-width: 0px;"/>
  <path d="M498.46,369.28c-.08,34.41-12.18,58.83-34.77,78.02-11.09,9.43-19.38,20.55-24.89,33.94-2.21,5.37-4.59,10.72-9.14,14.71-.69.6-1.07,1.64-1.39,2.55-1.11,3.15-2.67,4.31-6.03,4.26-3.99-.07-7.68-1.16-10.62-3.89-5.1-4.73-10.01-9.68-15.11-14.42-6.11-5.7-12.14-11.5-18.55-16.84-4.09-3.41-5.71-7.18-4.38-12.29,2.02-7.75,4.03-15.51,5.99-23.28,1.52-6.05,4.08-11.61,7.84-16.57,7.81-10.31,13.79-21.48,17.04-34.09,3.42-13.26,2.77-25.98-4.16-38.09-2.79-4.87-5.4-9.85-8.04-14.81-1.19-2.24-2.35-4.51-3.32-6.86-2.33-5.65-2.11-11.27.94-16.58,2.2-3.84,4.72-7.49,7.09-11.22.09-.14.18-.28.3-.39,7.26-6.09,14.33-12.55,24.15-14.28,6.69-1.18,13.13-.03,19.13,2.98,3.64,1.83,7.3,3.88,10.38,6.51,13,11.14,24.81,23.43,33.98,38,9.04,14.36,13.84,30.01,13.58,42.65ZM411.54,384.07l-.43-.04c-.2.83-.41,1.66-.59,2.49-.93,4.16-1.76,8.35-2.81,12.48-2.27,8.87-2.32,8.86,4.5,15.12.6.55,1.21,1.11,1.85,1.62,10.68,8.62,22.4,15.13,35.99,17.91,2.01.41,4.03.8,5.97,1.45,1.63.54,2.82.21,3.98-.97,22.52-22.67,31.61-49.46,24.81-81.09-.8-3.73-1.42-7.7-5.68-9.42-.35-.14-.6-.55-.88-.84-5.18-5.29-11.3-9.05-18.53-10.62-6.32-1.38-12.7-2.62-19.12-3.3-11.52-1.24-21.95,2.76-32.14,7.55-1.88.88-2.17,1.99-1.28,3.91,3.32,7.14,5.44,14.59,5.47,22.54,0,.47.22.94.38,1.56.32-.33.48-.42.54-.56.25-.61.46-1.23.71-1.84,3.6-8.96,8.87-16.63,17.16-21.89,3.92-2.49,8.25-3.95,12.88-2.91,4.78,1.08,9.51,2.49,14.15,4.09,4.24,1.47,7.8,4.13,10.81,7.5,11.45,12.84,13.33,35.7,4.13,50.22-7.87,12.43-20.92,18.51-33.89,15.79-16.26-3.41-25.02-12.52-27.53-28.64-.11-.71-.29-1.4-.44-2.1ZM469.15,376.11c-.66-13.88-7.03-26.13-23.18-28.56-.97-.15-1.9-.6-2.87-.66-1.34-.08-2.8-.21-4.02.22-4.12,1.46-7.34,4.25-10.16,7.54-9.06,10.58-9.68,22.92-7.11,35.76.47,2.34,2.09,4.68,3.75,6.49,5.56,6.05,17.98,8.61,25.63,5.58,10.25-4.06,17.93-15.34,17.94-26.36ZM471.75,325.55c-.35-.83-.48-1.36-.78-1.79-5.88-8.41-12.2-16.45-19.83-23.38-10.23-9.29-21.76-11.81-35.32-8.53-7.54,1.82-12.4,5.99-16.69,11.75-5.11,6.86-5.96,13.85-.86,21.11.52.74.99,1.51,1.4,2.31.82,1.64,1.63,1.63,3.24.68,9.88-5.86,20.43-9.8,32.1-9.35,12,.46,23.81,2.24,35.05,6.81.42.17.89.21,1.69.4ZM448.06,444.55c-.88-.35-1.23-.56-1.61-.63-16.4-2.76-29.16-12.21-41.27-22.71-4.21-3.65-4.14-3.92-7.02.95-2.75,4.65-5.27,9.42-7.84,14.17-1,1.85-.36,3.02,1.44,4.21,5.66,3.76,11.31,7.58,16.67,11.74,6.48,5.03,12.65,10.44,18.97,15.66,2.41,1.99,2.73,1.91,4.14-.78,3.61-6.85,7.84-13.28,13.17-18.93,1.05-1.11,2.06-2.26,3.36-3.69Z" style="fill: #000; stroke-width: 0px;"/>
  <path d="M220.45,368.82c-.28-9.71,3.41-24.44,11.24-38.05,10.03-17.44,23.5-31.94,39.25-44.27,7.36-5.76,15.96-8.72,25.55-7.51,5.58.7,10.61,2.74,14.86,6.52.61.54,1.23,1.14,1.96,1.47,9.06,4.09,12.74,12.65,16.9,20.68,2.08,4.01,1.79,8.49.2,12.71-1.04,2.75-2.35,5.41-3.72,8.02-2.61,4.98-5.24,9.94-8.03,14.82-7.07,12.36-7.72,25.33-4,38.79,2.91,10.55,7.27,20.41,13.95,29.11,5.69,7.4,9.83,15.44,11.87,24.6,1.46,6.54,3.24,13,4.94,19.49,1.36,5.2-.22,9.01-4.44,12.48-6.33,5.18-12.22,10.9-18.2,16.49-5.03,4.7-9.87,9.6-14.87,14.32-3.06,2.88-6.82,4.15-11,4.24-3.53.08-5.07-1.03-6.22-4.32-.32-.91-.69-1.96-1.37-2.56-4.51-3.91-6.7-9.25-9.05-14.48-3.5-7.8-7.02-15.64-12.8-22.04-4.17-4.61-8.79-8.82-13.42-12.98-21.3-19.11-33.09-42.64-33.59-77.54ZM307.82,384.04c-.16.01-.32.02-.48.04-.28,1.66-.59,3.31-.83,4.98-3.36,23.03-32.89,32.53-48.35,22.27-6.24-4.15-11.36-9.18-14.57-15.95-6.67-14.08-4.63-27.79,2.33-41.1,3.85-7.37,10.11-11.92,18.03-14.22,1.97-.57,4.09-.71,5.95-1.5,7.73-3.29,14.45-1.23,20.64,3.67,6.53,5.16,10.98,11.87,14.04,19.56.33.82.7,1.62,1.05,2.42.22-.05.43-.1.65-.15-.21-8.42,1.98-16.27,5.49-23.78.9-1.93.6-3.02-1.28-3.9-10.26-4.82-20.77-8.79-32.38-7.52-6.01.66-12,1.77-17.92,3.03-7.66,1.62-14.19,5.43-19.66,11.05-.51.53-1.03,1.15-1.68,1.42-2.21.94-3.05,2.76-3.67,4.9-5.63,19.31-4.1,38.11,3.96,56.45,4.71,10.71,10.95,20.36,19.73,28.2.86.77,2.38,1.51,3.39,1.29,5.04-1.09,10.12-2.19,14.99-3.85,13.41-4.6,25.2-11.76,34.54-22.65,1.26-1.47,1.41-2.87.9-4.74-1.57-5.86-2.91-11.78-4.34-17.67-.18-.75-.36-1.49-.54-2.24ZM298.48,379.38c.25-11.04-3.29-20.51-11.61-27.93-3.87-3.45-7.86-5.38-13.74-4.12-12.98,2.77-20.79,9.83-22.98,24.93-1.61,11.08,3.07,19.84,11.53,26.69,7.78,6.3,16.34,5.88,25.08,2.38,6.78-2.72,10.59-7.78,11.3-15.07.22-2.28.28-4.58.41-6.87ZM247.16,325.52c.7-.11,1.11-.09,1.44-.24,8.07-3.48,16.67-4.75,25.25-6.2,13.76-2.33,26.57.45,38.88,6.5,1.84.9,4.21,2.98,5.39,2.44,1.68-.77,2.55-3.42,3.65-5.32,2.18-3.76,3.51-7.87,1.64-11.99-3.84-8.49-8.39-16.44-18.82-18.23-3.87-.66-7.7-1.83-11.59-2.08-10.16-.64-18.44,3.81-25.7,10.45-7.42,6.79-13.58,14.68-19.3,22.92-.3.43-.47.96-.84,1.75ZM318.31,417.1c-14.06,12.83-28.19,24.1-47.63,27.19,1.89,2.05,3.44,3.4,4.58,5.04,4.25,6.1,8.43,12.26,12.5,18.49,1.03,1.58,1.82,1.9,3.24.67,1.55-1.34,3.14-2.63,4.74-3.91,10.51-8.35,20.23-17.73,32.04-24.37,1.7-.95,1.72-2.31.95-3.76-3.37-6.34-6.81-12.65-10.42-19.34Z" style="fill: #000; stroke-width: 0px;"/>
  <path d="M276.69,527.68c9.98-.03,17.85,5.21,24.39,13.06,2.98,3.58,5.84,7.31,9.15,10.57,1.36,1.34,3.71,1.74,5.68,2.35,1.23.38,2.79,0,3.84.61,5.1,2.92,10.77,1.68,16.14,2.22,3.31.33,6.99-.44,8.9-4.35,1.3-2.65,3.91-3.49,6.86-3.44,5.24.08,10.48.07,15.72,0,2.94-.04,5.46.84,6.88,3.45,2.34,4.32,6.3,4.4,10.36,4.34,1.39-.02,2.78-.45,4.15-.37,3.41.22,6.66-.05,9.8-1.64,1.12-.57,2.56-.76,3.83-.71,3.05.14,5.44-1.05,7.39-3.22,2.08-2.31,4.01-4.77,6.12-7.05,3.04-3.29,6-6.71,9.34-9.67,5.88-5.2,13.1-6.59,20.69-6.07,5.75.4,8.86,4,8.92,9.77,0,.9-.01,1.81-.1,2.7-1.92,18.19-4.03,36.38-10.61,53.61-2.21,5.78-5.44,11.18-8.25,16.72-1.19,2.34-2.75,4.51-3.73,6.92-3,7.41-8.45,12.33-15.38,15.92-2.62,1.36-5.11,2.97-7.74,4.29-8.2,4.14-16.45,4.9-24.6-.07-5.67-3.45-11.2-7.13-16.91-10.52-1.23-.73-2.92-.83-4.41-.92-2.35-.14-4.73-.18-7.08.03-1.71.15-3.61.39-5.04,1.23-6.01,3.52-11.79,7.42-17.81,10.92-6.89,4.01-14.19,3.37-21.09.33-5.3-2.33-10.2-5.58-15.16-8.62-3.94-2.41-6.69-5.93-8.81-10.04-2.89-5.61-6.17-11.02-8.98-16.68-2.03-4.09-3.96-8.31-5.22-12.68-2.66-9.21-5.25-18.47-7.12-27.86-1.45-7.28-1.77-14.79-2.57-22.19-.98-9,2.77-13.11,12.46-12.96ZM359.88,563.09c-.8.61-1.03.73-1.18.91-8.49,11.02-20.17,16.76-33.35,19.83-12.3,2.87-23.27.61-32.2-8.94-7.15-7.64-12.57-16.36-16.55-26-.32-.77-.66-1.53-.99-2.3-.48.63-.58,1.11-.52,1.58.18,1.46.27,2.96.66,4.37,4.89,17.75,10.48,35.25,20.08,51.12,2.91,4.8,6.5,9.25,10.18,13.51,4.6,5.32,10.54,6.7,17.19,4.32,7.82-2.8,15.29-6.32,22.02-11.28,2.23-1.65,4.6-3.15,7.05-4.45,4.75-2.53,9.65-2.57,14.37.02,2.93,1.61,5.65,3.61,8.45,5.46,7.02,4.62,14.44,8.44,22.54,10.76,5.23,1.5,10.02.37,13.87-3.45,2.9-2.87,5.75-5.9,8.04-9.25,12.19-17.81,18.65-38.02,24-58.65.16-.63.25-1.29.29-1.95.03-.58-.07-1.17-.11-1.76-.77.76-1.15,1.55-1.48,2.37-3.6,8.71-8.5,16.63-14.65,23.78-6.8,7.9-15.2,12.69-25.83,11.8-16.32-1.36-30.45-7.49-41.12-20.41-.31-.38-.49-.86-.77-1.37Z" style="fill: #000; stroke-width: 0px;"/>
  <path d="M520.5,439.22c-3.37,4.51-6.35,9.39-10.2,13.46-7.09,7.49-14.51,14.69-22.11,21.66-10.21,9.36-20.74,18.38-31.12,27.55-.55.49-1.01,1.23-1.64,1.45-1.15.39-2.81,1.03-3.51.53-.86-.61-1.61-2.54-1.27-3.48,1.51-4.05,3.07-8.16,5.28-11.84,4.28-7.15,10.63-12.39,17.26-17.31,6.72-4.98,13.6-9.78,19.95-15.19,26.87-22.89,36.24-52.32,31.53-86.72-1.46-10.66-3.8-21.16-8.83-30.81-4.37-8.37-10.3-15.55-17.06-22.12-4.76-4.63-9.29-9.49-13.89-14.28-.96-1-1.86-2.09-2.65-3.23-1.17-1.68-1.52-3.52-.19-5.26,1.39-1.8,3.38-2.19,5.3-1.19,2.96,1.56,5.94,3.19,8.61,5.19,23.04,17.28,35.32,40.93,40.05,68.83,4.53,26.76,1.54,53-6.6,78.71-2.77,8.74-5.73,17.5-9.53,25.83-8.05,17.67-14.31,35.95-19.91,54.5-1.16,3.84-2.57,7.61-3.89,11.41-.59,1.7-1.39,3.41-3.59,2.92-2.2-.49-2.14-2.38-1.99-4.17,1.54-18.09,6.78-35.15,13.75-51.86,5.77-13.84,10.69-28.02,15.97-42.06.3-.81.44-1.68.65-2.52-.12,0-.24,0-.36,0Z" style="fill: #000; stroke-width: 0px;"/>
  <path d="M198.02,439.22c.87,2.87,1.55,5.82,2.63,8.61,5.2,13.46,10.33,26.95,15.82,40.29,6.04,14.67,10.24,29.76,11.74,45.57.12,1.22.43,2.53.14,3.66-.25.95-1.13,2.2-1.95,2.39-.82.19-2.1-.57-2.82-1.28-.64-.63-.84-1.75-1.15-2.68-4.16-12.79-7.96-25.71-12.57-38.34-4.13-11.31-9.35-22.22-13.76-33.43-9.07-23.07-15.12-46.82-15.17-71.8-.05-22.17,4.03-43.41,14.68-63.08,7.27-13.44,17.42-24.36,29.8-33.24,1.85-1.33,3.92-2.39,5.98-3.38,2.05-.98,4.07-.77,5.52,1.16,1.38,1.84,1.03,3.83-.35,5.44-3.15,3.67-6.38,7.27-9.71,10.78-2.99,3.15-6.15,6.14-9.24,9.2-6.97,6.88-12.7,14.71-16.51,23.68-4.12,9.7-6.03,20.05-7.37,30.5-2.83,22.11,2.01,42.6,13.22,61.62,6.95,11.8,17.37,20.42,28.06,28.65,6.04,4.65,12.4,8.9,18.27,13.75,6.75,5.57,11.81,12.5,14.51,20.96.3.93.8,1.94.68,2.84-.14,1.02-.66,2.32-1.44,2.84-.67.44-1.97.02-2.97-.14-.35-.06-.66-.47-.96-.74-12.18-10.73-24.4-21.4-36.53-32.2-10.38-9.24-20.15-19.04-27.33-31.11-.16-.27-.41-.47-.62-.71l-.58.19Z" style="fill: #000; stroke-width: 0px;"/>
  <path d="M384.2,511.82c-.05,1.08-.09,2.72-.23,4.36-.46,5.56-3.2,9.2-8.65,10.99-3.33,1.09-6.38,3-9.66,4.26-4.09,1.57-8.33,1.59-12.43-.01-3.88-1.52-7.65-3.35-11.49-4.98-4.66-1.98-6.49-5.81-6.82-10.52-.63-8.98.82-17.66,4.04-26.04.76-1.98,1.67-3.93,2.72-5.77,1.26-2.23,3.25-3,5.12-2.27,1.86.72,2.87,2.7,2.32,5.12-.69,3.03-1.73,5.99-2.41,9.02-1.28,5.75-2.64,11.5-3.51,17.32-.64,4.29.16,4.94,4.22,6.44,2.61.97,5.15,2.13,7.67,3.32,2.95,1.39,5.81,1.34,8.77,0,3.06-1.39,6.16-2.69,9.3-3.87,1.93-.73,2.76-2.09,2.6-3.97-.3-3.42-.53-6.88-1.27-10.22-1.14-5.12-2.71-10.13-4.03-15.21-.37-1.42-.95-2.98-.67-4.31.28-1.33,1.3-3.07,2.41-3.49,1.12-.42,3.09.2,4.11,1.06,1.18.98,1.86,2.66,2.54,4.14,3.49,7.64,5.07,15.73,5.34,24.65Z" style="fill: #000; stroke-width: 0px;"/>
  <path d="M384.49,354.78c-.5,17.29-4.1,33.65-14.4,48.01-.29.4-.55.82-.86,1.2-.96,1.19-2.34,2.12-3.54,1-.78-.72-1.23-2.57-.88-3.58,1.42-4.1,3.29-8.04,4.84-12.1,4.85-12.66,6.04-25.78,4.72-39.2-.7-7.18-3.4-13.63-7.14-19.72-1.33-2.17-2.73-4.3-3.91-6.54-1.48-2.82-.96-5.61,1.11-7.11,1.92-1.39,4.88-1.17,6.95.95,1.87,1.92,3.61,4.06,4.99,6.35,5.67,9.44,8.43,19.69,8.12,30.74Z" style="fill: #000; stroke-width: 0px;"/>
  <path d="M334.47,355.46c-.36-11.03,2.18-21.34,7.8-30.81,1.49-2.51,3.36-4.85,5.37-6.98,2.04-2.16,4.97-2.33,6.93-.86,2.01,1.5,2.5,4.13,1.18,6.89-.56,1.18-1.2,2.35-1.96,3.4-8.46,11.64-10.47,24.79-9.55,38.78.76,11.57,4.18,22.34,8.81,32.83.5,1.12,1.21,2.26,1.28,3.43.06.97-.42,2.46-1.14,2.85-.72.4-2.08-.13-3.05-.53-.52-.21-.83-.98-1.21-1.51-10.21-14.19-13.85-30.38-14.45-47.49Z" style="fill: #000; stroke-width: 0px;"/>
  <path d="M462.28,587.58c-.39,13.48-3.37,26.29-9.4,38.41-3.45,6.93-4.64,14.49-5.21,22.14-.04.57-.02,1.15-.12,1.72-.32,1.86-1.21,3.29-3.25,3.47-1.98.17-3.49-.89-3.91-2.7-.72-3.1-1.33-6.27-1.48-9.44-.3-6.09,1.06-11.98,3.86-17.36,6.68-12.83,11.38-26.32,14.32-40.46.37-1.78,1.07-3.52,3.34-3.1,2.07.38,2.21,2.15,2.1,3.88-.07,1.15-.16,2.29-.24,3.44Z" style="fill: #000; stroke-width: 0px;"/>
  <path d="M256.57,586.9c-.07-.98-.15-1.96-.19-2.95-.07-1.75.15-3.46,2.28-3.73,1.97-.25,2.68,1.23,3.09,2.85.6,2.39,1.16,4.78,1.74,7.17,2.55,10.66,6.26,20.87,11.37,30.59,3.45,6.55,5.63,13.49,5.19,21-.16,2.76-.67,5.53-1.29,8.24-.48,2.12-1.93,3.5-4.29,3.17-2.26-.32-3.07-2.03-3.15-4.08-.38-9.48-2.67-18.45-6.88-26.96-5.49-11.11-7.27-23.07-7.86-35.29Z" style="fill: #000; stroke-width: 0px;"/>
  <path d="M359.73,293.14c1.47-4.31,2.73-8.71,4.49-12.9,1.45-3.46,3.46-6.69,5.27-10.01,2.85-5.25,4.08-10.82,3.84-16.8-.13-3.25.05-6.56.48-9.79.43-3.2,2.27-5.76,4.76-7.81,1.25-1.02,2.86-1.66,3.89-.19.6.86.6,2.8.01,3.68-2.27,3.38-2.7,6.97-2.02,10.82.31,1.78.64,3.55,1.06,5.3,1.64,6.77.73,13.19-2.59,19.28-2.59,4.75-5.24,9.47-7.79,14.24-1.04,1.95-1.98,3.96-2.84,5.99-1.11,2.61-2.69,3.86-4.68,3.5-2.12-.39-3.3-2.26-3.21-5.1-.22-.08-.45-.15-.67-.23Z" style="fill: #000; stroke-width: 0px;"/>
  <path d="M345.81,252.15c-.98,7.79,1.49,14.38,5.04,20.73,1.92,3.43,3.98,6.86,5.29,10.53,1.25,3.49,1.83,7.28,2.31,10.98.26,2.01-.96,3.68-3.16,4.05-2.08.35-3.38-.84-4.29-2.59-3.43-6.62-6.74-13.3-10.33-19.82-3.83-6.94-5.05-14.12-2.98-21.82.4-1.5.61-3.05.86-4.59.57-3.61.18-7.02-2.09-10.06-.95-1.28-1.41-2.75-.08-3.99,1.45-1.36,2.88-.62,4.16.46,2.83,2.38,4.47,5.45,4.88,9.09.28,2.44.28,4.9.39,7.02Z" style="fill: #000; stroke-width: 0px;"/>
  <path d="M359.45,345.32c.42-.33.74-.55,1.04-.82,2.72-2.48,5.72-2.03,6.98,1.42,1.03,2.8,1.75,5.84,1.92,8.81.4,6.99-1.7,13.43-5.45,19.31-1.7,2.66-7.1,2.96-8.74.37-5.28-8.33-7.37-17.28-4.41-26.96,1.56-5.09,4.48-5.82,8.65-2.13ZM359.48,367.53c1.51-6.29,1.7-12.6-.03-18.9-1.59,6.28-1.54,12.57.03,18.9Z" style="fill: #000; stroke-width: 0px;"/>
  <path d="M307.61,516.57c4.1.42,7.32,2.09,9.45,5.4,1.32,2.05,2.38,4.31,3.21,6.61,1.45,4.03,4,6.9,7.91,8.61.68.3,1.34.62,2,.94,1.44.69,2.61,1.66,2.07,3.42-.59,1.93-2.23,1.92-3.86,1.63-7.19-1.28-12.65-4.79-15.32-11.92-.43-1.15-.97-2.26-1.58-3.33-1.48-2.62-2.96-3.26-5.92-2.67-.56.11-1.12.28-1.69.32-1.99.15-3.64-.48-4.28-2.51-.64-2.01.25-3.69,2.01-4.53,1.88-.9,3.98-1.33,5.99-1.97Z" style="fill: #000; stroke-width: 0px;"/>
  <path d="M411.31,516.59c1.93.59,3.95.99,5.78,1.81,1.89.85,2.86,2.55,2.22,4.65-.65,2.14-2.41,2.73-4.49,2.51-5.96-.62-6.42-.55-8.7,5.22-2.8,7.09-7.94,10.98-15.26,12.32-1.67.31-3.45.58-4.17-1.44-.73-2.03.73-3.05,2.35-3.66,5.27-1.99,8.64-5.64,10.29-11.06.56-1.84,1.58-3.61,2.69-5.2,2.19-3.16,5.32-4.75,9.3-5.16Z" style="fill: #000; stroke-width: 0px;"/>
  <path d="M442.88,375.99c-6.32-.16-11.3-5.84-11.1-12.65.18-6.06,5.77-11.17,12.01-10.94,5.48.2,10.25,6.23,10.13,12.82-.12,6.26-4.91,10.93-11.03,10.77ZM445.37,364.66c-.22-1.43-.5-2.99-2.46-2.92-2.02.07-3.06,1.45-3.24,3.33-.16,1.66.85,2.63,2.48,2.63,1.87,0,3.01-1.01,3.22-3.03Z" style="fill: #000; stroke-width: 0px;"/>
  <path d="M265.01,364.88c.05-6.6,4.99-12.49,10.48-12.49,6.31,0,11.64,5.17,11.65,11.28.01,6.84-5.08,12.33-11.44,12.32-6.07,0-10.75-4.87-10.7-11.11ZM279.23,366.22c.16-2.57-1.28-4.37-2.94-4.5-1.98-.15-2.55,1.21-2.69,2.8-.15,1.73,1.32,3.36,3.02,3.12,1.06-.15,2.01-1.07,2.61-1.41Z" style="fill: #000; stroke-width: 0px;"/>
  <path d="M400.15,607.78c-1.22-.46-3.67-1.33-6.08-2.3-7.19-2.92-14.37-5.87-21.53-8.85-1.88-.78-3.78-1.56-5.52-2.6-1.19-.71-1.83-.88-2.83.35-2.47,3.05-6.99,2.97-9.56-.13-.83-1-1.35-.92-2.44-.4-2.56,1.22-5.26,2.15-7.88,3.24-6.12,2.55-12.23,5.12-18.33,7.72-.9.38-1.69,1.02-2.57,1.44-6.28,2.98-16.59-.81-19.54-7.17-.83-1.8-.76-3.56.71-5,1.55-1.52,3.46-1.5,5.25-.57,1.44.75,2.72,1.82,4.06,2.76,2.53,1.78,5.03,2.26,8.03.78,5.51-2.7,11.18-5.07,16.79-7.57.67-.3,1.36-.68,2.07-.76,5.23-.62,8.85-4.06,12.58-7.23,3.42-2.9,8.87-2.83,12.35.12,3.67,3.11,7.24,6.45,12.38,7.12,1.17.15,2.27.9,3.39,1.4,5.77,2.54,11.46,5.29,17.36,7.5,1.52.57,3.79-.28,5.5-.99,1.7-.71,3.07-2.18,4.71-3.09,1.78-.99,3.66-.99,5.25.49,1.44,1.34,1.53,3.03.89,4.77-1.36,3.69-9.69,9.15-15.04,8.97Z" style="fill: #000; stroke-width: 0px;"/>
</svg>