<?xml version="1.0" encoding="UTF-8"?>
<svg id="Layer_1" data-name="Layer 1" xmlns="http://www.w3.org/2000/svg" viewBox="0 0 575.24 900">
  <path d="M60.06,516.28c-.28.87-.59,1.74-.85,2.61-.79,2.69-1.44,5.43-2.36,8.07-2.56,7.31-9.89,9.43-16.1,4.75-3.5-2.64-4.74-6.47-6.1-10.44-8.79-25.52-12.24-52.35-19.51-78.22-9.8-34.88-12.6-70.58-14.46-106.54-1.24-24.04-.5-48,.2-71.99.23-7.72,1.11-15.43,4.25-22.61,1.14-2.61,2.61-5.23,4.48-7.35,5.36-6.09,13.72-4.66,17.12,2.72,3.5,7.6,9.07,12.77,17.38,14.71,1.92.45,3.03.14,3.02-2.17-.06-17.32,3.47-34.15,7.3-50.89,5.91-25.83,13.84-51.08,22.66-76.05,4.25-12.03,9.83-23.47,17.43-33.76,2.28-3.09,5.61-5.4,8.49-8.04.83-.76,1.98-1.27,2.6-2.16,3.98-5.72,9.65-9.39,15.54-12.71,14.96-8.42,30.68-15.05,47.25-19.55,3.1-.84,6.36-1.15,9.57-1.51,1.8-.2,2.36-.69,2.53-2.71.18-2.18,1.12-4.6,2.48-6.33,5.29-6.71,12.6-10.8,20.16-14.37,13.21-6.24,27.23-10.19,41.25-14.1,7.34-2.05,14.7-4.15,22.17-5.59,5.89-1.13,11.96-1.42,17.97-1.85,20.47-1.47,39.35,5.73,58.54,11.05,11.33,3.14,22.44,6.97,32.86,12.51,5.97,3.17,11.67,6.78,16.05,12.12,1.73,2.11,2.99,4.24,2.69,7.14-.06.6,1.02,1.84,1.7,1.94,22.93,3.24,43.37,12.88,62.87,24.73,3.72,2.26,6.57,5.93,9.85,8.93.96.88,2.04,1.63,2.99,2.52,2.87,2.65,6.19,4.98,8.47,8.06,8.73,11.81,14.71,25.09,19.33,38.94,8.79,26.36,17.33,52.81,22.8,80.11,2.74,13.65,5.53,27.34,5.23,41.39-.05,2.39,1.02,2.84,3.11,2.34,8.2-1.97,13.72-7.06,17.21-14.56,3.64-7.84,12.32-8.95,17.81-2.23.99,1.21,1.83,2.57,2.59,3.95,2.96,5.41,4.38,11.33,4.75,17.38.71,11.45.8,22.94,1.5,34.39.88,14.3-.09,28.54-.45,42.82-.67,26.25-3.03,52.33-7.42,78.19-1.98,11.63-5.44,23-8.07,34.52-4.02,17.6-7.89,35.23-11.87,52.83-.54,2.39-1.28,4.73-2,7.07-1.65,5.35-3.47,10.64-4.99,16.02-1.41,4.98-3.8,9.07-8.87,10.98-5.65,2.13-10.63-.05-12.78-5.69-1.09-2.86-1.78-5.86-2.65-8.8-.24-.81-.5-1.62-.93-3.03-.66,1.04-1.06,1.54-1.32,2.1-1.16,2.55-1.92,5.37-3.47,7.65-5.16,7.61-5.13,16.12-4.06,24.55.95,7.44,3.08,14.72,4.66,22.08,3.61,16.87,8.23,33.61,10.54,50.65,2.65,19.57,1.59,39.36-1.52,58.95-2.31,14.56-5.11,29.05-10.07,42.95-6.18,17.35-13.33,34.31-23.52,49.79-1.87,2.84-4.13,5.43-6.29,8.08-.97,1.19-1.52,2.23-.49,3.73.56.83.82,1.95.94,2.97.49,4.26.93,8.54,1.29,12.81,1.49,17.88-2.35,34.7-10.54,50.51-4.98,9.61-12.68,16.62-22.31,21.61-3.41,1.77-6.64,3.91-9.81,6.08-21.26,14.52-44.9,20.59-70.42,19.31-4.29-.21-8.74-1.97-12.65-3.94-6.73-3.4-13.82-5.41-21.04-7.3-10.08-2.63-20.23-5.13-30.07-8.48-11.71-3.99-22.94-3.84-34.68.1-11.6,3.9-23.64,6.47-35.41,9.9-4.84,1.41-9.63,3.24-14.16,5.46-6.12,2.99-12.35,4.65-19.2,4.62-20.88-.09-40.45-5.1-58.56-15.43-8.05-4.6-15.9-9.59-23.53-14.85-11.18-7.71-17.36-18.98-21.28-31.68-4.41-14.28-6.09-28.77-3.55-43.61.53-3.07,1.27-6.1,1.78-9.18.11-.66-.16-1.6-.6-2.1-11.16-12.45-17.25-27.73-24-42.65-8.16-18.05-12.71-37.1-15.74-56.56-4.52-29.01-4.82-57.92,2.58-86.62,3.37-13.07,6.3-26.24,9.52-39.35,1.89-7.7,1.45-15.49,1.24-23.28-.02-.59-.21-1.22-.47-1.77-2.48-5.32-4.98-10.63-7.48-15.94-.15-.32-.28-.65-.41-.97-.23.09-.45.17-.68.26ZM547.55,438.43c-.24-.05-.49-.09-.73-.14-.1-.39-.34-.79-.29-1.16.39-2.77.71-5.56,1.31-8.29.48-2.17.46-4.08-.8-6.02-.68-1.05-1.23-2.41-1.24-3.64-.03-3.05.29-6.11.46-9.17.69-11.8,1.42-23.59,2.04-35.39.53-10.14,1-20.29,1.35-30.45.13-3.84-.1-7.69-.28-11.53-.03-.68-.65-1.88-1.01-1.88-.73,0-1.52.56-2.2,1.03-.41.28-.68.79-.95,1.24-1.53,2.56-2.94,5.19-4.57,7.68-1.62,2.48-3.29,4.96-5.26,7.17-.78.87-2.41.98-3.65,1.44-.11-1.4-.44-2.83-.26-4.19.17-1.28.88-2.49,1.35-3.73-1.63.24-2.76.85-3.89,1.46-4.3,2.33-8.81,3.44-13.68,2.18-7.17-1.86-13.71-5.01-18.87-10.41-10.02-10.49-13.05-23.26-11.66-37.37.19-1.91.38-3.86.22-5.76-.08-1-.66-2.39-1.44-2.82-3.57-1.97-7.29-3.67-11.36-5.66-.18,1.32-.46,2.48-.47,3.64-.12,11.48-.25,22.96-.25,34.44,0,8.98-4.6,15.66-13.22,18.81-7.14,2.61-13.55.41-19.39-6.65-.28-.34-.61-.65-.81-1.03-3.6-6.83-9.33-10.41-16.92-11.28-1.76-.2-3.62-1.05-3.26-3.01.24-1.33,1.63-2.94,2.9-3.49,5.33-2.28,10.76-2.13,16.04.39,5.54,2.64,9.51,7.01,13.14,11.83,2.73,3.63,5.5,3.49,8.1-.31.88-1.29,1.4-3.08,1.42-4.64.16-10.07-.26-20.17.26-30.22.65-12.49,1.86-24.97,3.18-37.42.65-6.16,2.44-12.2,3.04-18.36.5-5.1.27-10.32-.15-15.44-.29-3.56.02-5.81,2.29-7.24,2.93-1.84,6.11-1.71,8.79.53,1.81,1.51,3.39,3.31,5.23,4.79,9.84,7.93,19.21,16.34,27.29,26.11.78.95,1.8,1.7,2.71,2.55.24-.1.47-.21.71-.31,0-2.93.39-5.93-.07-8.78-1.85-11.59-3.43-23.25-6.08-34.67-4.16-17.92-8.82-35.74-13.81-53.45-3.32-11.79-7.18-23.46-11.51-34.91-3.81-10.05-9.33-19.24-17.68-26.39-.52-.44-.8-1.14-1.25-1.67-1.49-1.75-2.78-3.78-4.56-5.15-2.41-1.86-5.13-3.35-7.85-4.76-13.09-6.8-26.72-12.23-40.78-16.78-7.91-2.56-14.97-2.24-22.11,2.05-8.14,4.89-17.02,7.74-26.53,8.63-1.58.15-3.13,1.06-4.6,1.79-1.96.98-3.72,2.42-5.75,3.15-7.23,2.62-11.95,8.42-16.38,13.98-4.3,5.4-7.11,12.01-10.34,18.22-2.38,4.57-4.08,9.52-6.67,13.96-1.63,2.79-4.11,5.23-6.65,7.29-2.38,1.93-5.29.73-5.76-2.31-.44-2.88-.71-6.05.01-8.81,1.98-7.53,3.86-15.2,6.99-22.27,4.79-10.82,10.45-21.29,20.53-28.42,1.47-1.04,1.64-2.13.56-3.76-3.09-4.67-1.98-8.1,3.29-10.06,1.93-.72,4.12-1.37,6.1-1.16,4.76.51,9.69.93,14.16,2.5,11.5,4.04,21.09-.12,30.47-6.01,1.45-.91,1.45-1.6-.1-2.64-10.66-7.23-22.53-11.86-34.74-15.34-20.3-5.78-40.8-10.89-61.24-16.16-1.87-.48-4.05-.43-5.94,0-9.4,2.14-18.76,4.45-28.11,6.77-17.87,4.44-35.65,9.24-52.59,16.59-5.79,2.51-11.24,5.81-16.84,8.74.02.32.04.64.07.96,1.2.79,2.36,1.66,3.61,2.36,1.91,1.06,3.97,1.88,5.83,3.03,4.86,3.01,10.11,4,15.65,2.98,4.9-.9,9.72-2.26,14.61-3.26,4.24-.87,8.49-1.14,12.67.6,4.8,2,6.12,5.51,3.29,9.8-1.39,2.1-.68,3.12.98,4.55,3.03,2.62,6.22,5.24,8.6,8.41,6.8,9.1,12.4,18.94,15.3,30.04,1.46,5.57,2.63,11.23,3.48,16.92.36,2.4.07,5.41-2.83,6.49-2.89,1.07-5.04-.96-6.42-3.02-2.96-4.41-5.69-9-8.15-13.71-2.18-4.18-3.83-8.63-5.79-12.93-3.47-7.64-8.75-14.14-15.11-19.27-5.15-4.15-11.62-6.67-17.5-9.91-.22-.12-.51-.14-.77-.16-9.62-.74-18.53-3.79-26.77-8.67-6.87-4.07-13.7-4.56-21.37-2.1-14.4,4.61-28.38,10.14-41.74,17.17-4.97,2.62-10.42,4.83-12.7,10.73-.17.45-.7.77-1.08,1.13-4.92,4.56-9.02,9.75-12.23,15.67-7.54,13.9-12.24,28.83-16.2,44.06-6.6,25.44-14.07,50.67-18.28,76.67-.99,6.12-1.31,12.34-1.89,18.53-.08.89.15,1.81.3,3.41,1.3-1.16,2.19-1.81,2.9-2.61,2.19-2.5,4.08-5.32,6.51-7.56,8.55-7.91,17.25-15.65,25.95-23.39.89-.79,2.06-1.39,3.2-1.73,4.91-1.44,9.13,2.4,8.23,7.37-1.49,8.23-1.02,16.51.67,24.54,1.88,8.94,3.49,17.83,4.21,26.96,1.31,16.53,1.5,33.07,1.35,49.63-.01,1.3.05,2.66.4,3.9.74,2.58,2.72,4.38,5.17,4.67,1.27.15,2.85-1.51,4.12-2.56.86-.71,1.44-1.75,2.12-2.67,2.92-3.97,6.64-7,11.05-9.11,5.36-2.56,10.89-2.64,16.26-.13,1.16.54,2.39,2.28,2.4,3.48,0,.91-1.73,2.16-2.94,2.68-1.83.78-3.87,1.12-5.84,1.52-3.35.69-5.94,2.44-7.91,5.22-1.52,2.15-2.97,4.36-4.7,6.32-3.7,4.21-8.06,7.37-14.03,7.1-9.79-.45-18.07-9.34-18.07-19.12,0-11.92-.13-23.83-.24-35.75,0-.96-.31-1.92-.5-3-3.65,1.79-6.89,3.5-10.25,4.95-1.92.83-2.69,2.08-2.54,4.07.22,3.06.52,6.11.61,9.17.51,18.17-7.29,35.86-27.35,42.8-6.43,2.23-12.37,1.77-18.12-1.81-.99-.62-2.04-1.14-3.43-1.91.82,2.22,1.64,3.87,2,5.63.19.95-.41,2.06-.65,3.1-1.04-.3-2.43-.28-3.06-.96-1.83-1.97-3.49-4.13-4.98-6.37-2.04-3.06-3.8-6.3-5.83-9.36-.52-.78-1.61-1.19-2.44-1.77-.43.98-1.22,1.95-1.23,2.93-.06,7.18-.18,14.38.14,21.55.67,15.04,1.57,30.08,2.44,45.11.38,6.55.93,13.08,1.37,19.62.05.77.08,1.68-.27,2.3-2.44,4.32-1.66,8.8-.9,13.32.17,1.03.03,2.11.03,3.16-.26.04-.52.08-.78.11-2.9-4.19-2.82-9.34-3.87-14.15-.38.31-.53.55-.5.77.84,6.16,1.25,12.42,2.62,18.46,5.21,22.89,10.58,45.74,16.27,68.51.99,3.97,3.75,7.51,5.7,11.24.32-.1.64-.2.96-.3.24-1.17.67-2.33.67-3.5.02-5.78-.07-11.55-.13-17.33-.16-15.33-.36-30.67-.46-46-.02-2.79.23-5.61.61-8.38.34-2.46,1.46-4.55,4.23-5.08,2.53-.49,5.16.85,6.44,3.52.82,1.72,1.49,3.6,1.77,5.47,1.22,8.14,2.31,16.28,1.87,24.59-.15,2.84.94,5.77,1.54,8.63.25,1.19.73,2.33,1.1,3.5,2.79,8.76,5.55,17.52,8.38,26.26.39,1.2,1.16,2.28,1.76,3.42-.19-3.31-.93-6.36-1.59-9.43-2.07-9.67-4.13-19.34-6.09-29.04-.17-.86.44-1.88.69-2.83.72.74,1.81,1.36,2.09,2.24.79,2.49,1.22,5.1,1.85,7.65.93,3.73,1.78,7.5,2.93,11.17,1.96,6.25,4.24,12.4,6.14,18.67.84,2.76.58,5.56-1.75,7.8-.42.4-.79,1.31-.62,1.78,1.32,3.68,3.49,6.75,7.07,9.41.41-1.52.9-2.64.99-3.78,1.12-15.01,4.92-29.76,4.33-44.93-.04-1.05.11-2.1.19-3.15.18-2.48,1.15-4.51,3.71-5.16,2.48-.64,4.69.36,5.91,2.47,2.98,5.13,5.33,10.61,4.4,16.7-1.07,7-2.6,13.93-3.96,20.88-.39,2.01-.89,4.01-1.42,6.39,8.04-1,15.53-1.94,23.28-2.91-2.34-5.24-6.24-9.16-8.15-14.2.93.14,1.59.48,1.9,1.02,1.85,3.21,4.9,4.89,8,6.56,1.76.95,3.6,1.87,5.1,3.17,1.53,1.32,2.74,2.42,4.69.78.37-.31,1.25-.3,1.76-.1,2.92,1.15,5.63,1.4,8.46-.53.61-.41,2.31.77,3.5,1.21-.62.89-1.06,2.01-1.88,2.63-1.48,1.11-3.18,1.93-5.03,3.01.73.59,1.03.92,1.39,1.12,10.88,5.89,20.53,13.37,29.01,22.38,6.76,7.19,10.16,15.85,10.88,25.57.1,1.34-.93,3.52-2.01,3.99-1.1.48-3.38-.22-4.32-1.2-2.84-2.96-5.46-6.16-7.83-9.51-7.11-10.09-14.86-19.44-25.69-25.88-7.4-4.4-15.29-7.02-23.83-7.06-5.57-.02-11.14,1.06-16.72,1.28-3.65.14-5.84,1.45-7.47,4.87-2.72,5.71-6.78,7.38-12.23,5.65-1.65-.52-3.17-1.45-4.77-2.18-.51-.23-1.05-.39-1.58-.58-.55,5.35-.79,10.52-1.65,15.59-2.82,16.58-5.86,33.13-8.82,49.69-3.6,20.08-4.09,40.34-1.96,60.51,2.6,24.74,7.98,48.93,18.49,71.73,3.89,8.43,7.28,17.08,10.94,25.62.42.98,1.12,1.83,1.74,2.84,4.08-4.62,8.42-8.14,13.9-10.23,3.43-1.31,6.67-3.09,10.03-4.6,1.43-.64,2.9-1.27,4.42-1.63,2.01-.47,3.85.05,5.18,1.75,1.36,1.73,1.39,3.77.26,5.42-1.08,1.59-2.59,3.08-4.25,4.06-3.31,1.96-6.94,3.37-10.26,5.31-4.69,2.75-9.66,4.02-15.06,3.68-.66-.04-1.33,0-2.53,0,1.14,1.9,2.08,3.44,2.98,4.99.79,1.36,1.84,2.65,2.24,4.12,1.29,4.81,2.18,9.65,1.95,14.73-.23,5.23.2,10.51.53,15.75.14,2.18.76,4.34,1.27,7.12,3.58-4.37,6.69-8.13,9.75-11.94,1.63-2.03,2.45-4.05-.42-5.86-.62-.39-1.16-1.17-1.38-1.88-1.72-5.74-3.44-11.49-4.95-17.28-.38-1.47-.16-3.15.01-4.71.2-1.82,1.54-2.51,2.94-1.55,3.31,2.27,6.01,4.95,6.97,9.14.83,3.62,2.13,7.14,3.2,10.63.42-.04.55-.01.58-.06,1.21-1.6,2.39-3.23,3.63-4.81,1.84-2.36,4.15-3.11,6.15-2.06,1.92,1.01,2.8,3.25,1.63,5.98-1.77,4.15-3.77,8.25-6.09,12.11-1.3,2.16-1.32,3.49.23,5.5,3.56,4.63,6.1,9.79,6.53,15.78.27,3.66.67,7.3.9,10.96.06.9-.32,1.83-.5,2.74-.88-.43-2.08-.62-2.6-1.32-2.32-3.15-4.46-6.44-6.62-9.7-3.12-4.71-4.12-10.12-4.99-15.77-4.41,3.1-7.74,7.69-13.95,7.93,1.14,3.38,2.13,6.44,3.19,9.47,3.53,10.04,9.82,18.01,18.72,23.69,8.56,5.46,17.3,10.65,26.16,15.61,14.56,8.15,30.53,11.07,46.99,11.63,2.53.09,5.14-.81,7.64-1.54,9.4-2.74,18.71-5.78,28.15-8.37,9.54-2.62,19.15-4.96,28.8-7.16,3.52-.8,7.21-1.09,10.84-1.19,5.05-.14,10.13.47,15.15.08,5.07-.39,9.82-.07,14.74,1.43,8.12,2.48,16.37,4.63,24.68,6.3,10.77,2.17,21.3,4.94,31.46,9.15,2.05.85,4.43,1.38,6.63,1.28,5.41-.24,10.83-.71,16.19-1.49,12.79-1.86,24.89-5.85,35.99-12.59,5.91-3.59,11.67-7.45,17.71-10.81,13.82-7.69,21.38-19.79,25.18-34.68.08-.3-.07-.65-.12-1.05-6.11.24-9.17-4.88-13.69-7.63.02.38.04.55.04.72-.17,10.16-6.9,17.27-11.77,25.23-.29.48-1.47.83-2.01.63-.43-.16-.77-1.26-.73-1.91.13-2,.77-4.01.67-5.99-.4-7.78,1.77-14.82,6.39-20.92,2.14-2.82,1.29-4.58-.22-7.14-2.24-3.81-4-7.92-5.68-12.02-.79-1.94-.1-3.92,1.88-4.95,1.92-1,3.82-.54,5.27,1.03,1.06,1.15,1.9,2.51,2.85,3.76.54.71,1.13,1.37,2.16,2.62,1.02-3.36,1.94-5.98,2.59-8.67,1.13-4.7,3.47-8.55,7.37-11.45,1.94-1.45,3.38-.96,3.55,1.49.13,1.99.07,4.06-.34,6-1.47,6.87-1.97,14.15-7.6,19.45-.44.42-.43,1.98-.01,2.54,3.31,4.47,6.77,8.82,10.56,13.71.41-1.57.8-2.47.86-3.38.42-6.81,1.04-13.62,1.07-20.44.03-7.15.85-13.93,5.3-19.84.68-.91,1.07-2.05,1.8-3.49-6.58.89-12.16-.22-17.42-3.35-3.38-2.01-7.04-3.53-10.51-5.4-1.2-.65-2.39-1.52-3.26-2.56-1.81-2.16-1.99-5.02-.61-6.82,1.71-2.22,4.01-2.25,6.43-1.51.92.28,1.81.67,2.68,1.07,3.5,1.61,6.91,3.46,10.5,4.84,5.55,2.13,9.99,5.62,13.96,10.46.65-1.11,1.29-2.01,1.73-3.01,1.88-4.25,3.64-8.54,5.54-12.78,9.71-21.65,17.58-43.8,21.59-67.38,3.5-20.59,4.55-41.23,2.36-61.79-2.08-19.57-6.33-38.9-9.47-58.36-1.11-6.9-1.78-13.88-2.65-20.82-.08-.66-.2-1.32-.32-2.11-.55.19-.89.26-1.18.42-9.71,5.24-13.13,4.22-18.71-5.27-.67-1.15-2.3-2.09-3.65-2.41-3.15-.73-6.39-1.07-9.61-1.46-10.69-1.3-21,.12-30.58,5.13-11.95,6.26-20.57,16.09-28.2,26.96-2.6,3.71-5.59,7.18-8.68,10.5-.79.85-2.92,1.3-3.96.84-1.01-.44-2.06-2.31-1.99-3.49.54-9.37,3.63-17.93,9.93-24.9,7.78-8.62,16.64-16.05,26.89-21.69,1.51-.83,2.94-1.83,4.82-3.02-2.19-1.15-4.06-2.18-5.97-3.11-1.69-.83-2.01-2.55-.37-3.41.92-.48,2.66-.61,3.36-.06,2.14,1.68,4.27,1.07,6.49.65.85-.16,2.04-.75,2.49-.39,2.94,2.3,4.56.47,6.26-1.66.41-.52,1.11-.85,1.73-1.16,4.22-2.09,8.74-3.77,10.93-8.49.14-.31.65-.45.98-.67l.81.53c-2.51,4.83-6.27,9.01-8.62,14.24,7.75.96,15.25,1.89,23.23,2.89-.44-2.09-.83-3.76-1.15-5.45-1.41-7.39-3.01-14.75-4.14-22.19-.88-5.79,1.41-11.05,4.09-16.03,1.21-2.25,3.37-3.37,6-2.8,2.49.54,3.49,2.46,3.78,4.81.14,1.13.25,2.27.24,3.41-.02,7.1.23,14.13,1.47,21.19,1.39,7.93,1.93,16,2.9,24,.14,1.12.6,2.2.92,3.3.34.1.69.2,1.03.31,1.87-2.67,3.76-5.32,5.59-8.02.84-1.24.77-2.41-.41-3.51-2.01-1.88-2.24-4.29-1.73-6.81.34-1.63.81-3.23,1.33-4.81,1.79-5.4,3.79-10.73,5.39-16.19,1.58-5.37,2.74-10.87,4.18-16.28.36-1.36,1.12-2.61,1.7-3.92.43.14.86.28,1.29.41-.52,14.08-5.39,27.42-8.14,41.48.71-.33.94-.35,1-.47.37-.69.81-1.37,1.05-2.11,2.92-8.99,5.25-18.22,8.87-26.91,2.92-7.02,2.05-14.05,2.51-21.15.38-5.84,1.27-11.67,2.25-17.44.32-1.88,1.34-3.88,2.62-5.31,2.93-3.29,7.6-2.16,8.92,2.02.49,1.57.79,3.27.79,4.91-.04,16.56-.15,33.11-.27,49.67-.04,6.13-.18,12.25-.18,18.38,0,1.21.46,2.42.71,3.63,3.94-4.54,6.71-9.31,7.75-14.95.48-2.58.91-5.18,1.56-7.73,5.92-23.16,12.72-46.13,15.51-69.99.22-1.9.42-3.8.62-5.7-1.89,4.4-1.41,9.47-4.18,13.48ZM100.17,226.3c-.87.44-1.31.56-1.6.83-4.93,4.46-10.05,8.73-14.71,13.46-4.48,4.55-8.29,9.76-12.74,14.34-6.76,6.96-14.25,12.4-24.85,8.91-.33-.11-.69-.13-1.04-.16-7.26-.66-13.74-3.36-19.67-7.5-.74-.52-1.55-.93-2.28-1.36-.35.42-.52.54-.55.69-1.52,6.36-3.08,12.72-4.48,19.11-.14.63.48,1.9,1.05,2.14,4.99,2.09,9.88,4.38,15.6,4.01,5.94-.39,11.92-.43,17.87-.25,7.12.22,13.96-.98,20.68-3.14,9.25-2.97,18.5-5.92,27.7-9.01.64-.22,1.34-1.54,1.3-2.31-.57-11.63-1.26-23.26-1.93-34.89-.08-1.47-.21-2.93-.35-4.85ZM475.64,226.18c-.3.19-.59.38-.89.57-.08.93-.18,1.86-.23,2.79-.68,12.15-1.32,24.3-2.05,36.45-.1,1.71.59,2.21,2.1,2.65,6.2,1.83,12.41,3.65,18.51,5.79,8.61,3.02,17.17,6.11,26.48,6.09,6.66-.02,13.33-.18,19.96.23,5.79.36,10.81-1.72,15.93-3.76,1.21-.48,1.68-1.16,1.25-2.64-1.2-4.11-2.22-8.28-3.22-12.44-.56-2.33-.94-4.7-1.42-7.16-.51.2-.88.26-1.14.46-8.08,6.48-17.78,8.41-27.67,9.57-2.25.26-4.88,0-6.89-.95-4.98-2.36-9.64-5.26-13.28-9.64-4.52-5.46-9.13-10.88-14.08-15.95-4.18-4.29-8.89-8.05-13.37-12.05ZM508.88,318.86c-.35,0-.71-.06-1.05.01-.8.16-1.6.38-2.39.57.36.75.53,1.7,1.1,2.21,2.51,2.28,4.92,4.8,7.77,6.57,5.85,3.62,10.37,2.65,14.77-2.68.94-1.14,1.86-2.4,2.37-3.76,2.37-6.3,4.86-12.57,6.79-19.01,2.17-7.25,1.93-7.32-5.68-7.28-3.89.02-3.62.06-4.24,3.87-2.1,12.91-8.13,19.2-19.44,19.5ZM40.81,295.49v.03c-1.05,0-2.1.03-3.15,0-1.87-.06-2.55.76-2.11,2.6,2,8.35,3.95,16.76,8.4,24.22,1.43,2.4,3.56,4.5,5.71,6.34,2.53,2.17,5.56,2.25,8.65.89,4.17-1.84,7.68-4.53,10.47-8.12.42-.55.5-1.36.74-2.06-.64-.17-1.28-.51-1.91-.5-13.13.25-18.82-7.11-20.92-19.63-.62-3.7-.36-3.74-4.04-3.76-.61,0-1.23,0-1.84,0ZM10.81,287.94c.49,16.72.76,33.28,1.51,49.82.62,13.58,4.12,45.84,5.89,49.6-.2-2.51-.46-4.59-.51-6.68-.41-19.71-.68-39.42-1.25-59.13-.13-4.42-.69-8.99-2.04-13.17-1.6-4.93-1.46-9.33.69-13.96,1.57-3.38.3-5.31-4.29-6.48ZM563.81,287.85c-4.59,1.8-5.42,3-3.79,6.78,2.12,4.89,2.1,9.54.27,14.5-.95,2.58-1.3,5.46-1.49,8.23-.35,5.24-.38,10.49-.55,15.74-.32,10.06-.72,20.11-.92,30.17-.15,7.57-.03,15.15-.03,23.37,5.45-33.05,6.84-65.72,6.51-98.79ZM504.08,295.01c-.22.25-.45.49-.67.74,1.95,2.66,3.72,5.48,5.94,7.9,1.18,1.28,2.95.61,3.66-.99.85-1.9,2.28-3.86.75-6.09-.08-.12-.31-.17-.47-.19-3.06-.46-6.13-.91-9.19-1.37ZM71.44,294.97c-3.65.55-6.71.93-9.73,1.54-.44.09-1.06,1.27-.95,1.83.31,1.6.67,3.35,1.59,4.61.52.72,2.65,1.21,3.26.75,2.71-2.04,4.3-5,5.84-8.72Z" style="fill: #000; stroke-width: 0px;"/>
  <path d="M165.56,225.48c6.71,4.75,6.86,11.08,4.44,17.9-1.14,3.2-2.22,6.55-4.09,9.33-3.97,5.92-9.75,8.52-16.98,7.8-7.49-.74-13.02-4.48-15.81-11.32-1.62-3.96-2.41-8.44-2.65-12.74-.56-9.81,1.4-19.29,4.41-28.66,3.11-9.67,6.31-19.41,8.1-29.36,1.88-10.48,1.37-21.11-3.57-31.09-2.51-5.08-4.53-10.4-6.83-15.58-.38-.85-1.09-1.55-1.68-2.3-3.22-4.03-6.58-7.95-9.65-12.09-2.82-3.81-2.63-8.07-.86-12.25,1.72-4.05,5.62-5.3,9.28-2.56,2.68,2.01,4.8,4.79,7.09,7.31,4.58,5.04,8.62,10.7,13.75,15.1,9.59,8.24,21.04,12.66,33.68,14.07,9.93,1.11,19.83,2.47,29.7,4.02,10.08,1.58,19.73,4.67,29.04,8.94,9.52,4.36,18.71,9.2,26.91,15.77.26.21.62.28.93.42.27-.21.62-.35.64-.53.76-6.71,6.85-8.59,11.15-11.88,3.88-2.96,8.21-1.71,11.98.96,2.41,1.7,4.86,3.44,6.87,5.56,1.42,1.5,2.14,3.65,3.32,5.77,2-1.42,3.87-2.84,5.82-4.14,16.4-10.91,34.08-18.61,53.75-21.32,11.11-1.53,22.26-2.85,33.3-4.82,16.12-2.89,28.63-11.74,38.42-24.67,1.9-2.51,3.73-5.1,5.79-7.47,1.18-1.36,2.65-2.59,4.21-3.5,3.84-2.23,7.53-.68,8.92,3.55,1.58,4.81,1.29,9.33-2.09,13.36-3.09,3.69-6.19,7.36-9.26,11.05-.44.53-.88,1.1-1.15,1.72-2.23,5.12-4.2,10.37-6.66,15.38-5.16,10.49-5.63,21.59-3.37,32.61,2.1,10.27,5.56,20.26,8.57,30.33,3.23,10.8,4.9,21.74,3,32.95-1.86,11.01-9.49,17.5-20.02,17.52-7.47.02-12.78-3.65-16-10.03-1.87-3.7-3-7.85-3.98-11.91-1.08-4.49.27-8.5,3.8-11.64.52-.46,1.04-.93,1.55-1.41.05-.05.04-.17.12-.56-.62-.12-1.25-.41-1.85-.34-2.44.27-4.89.51-7.28,1-9.6,1.98-19.18,4.09-28.79,6.05-2.39.49-4.86.8-7.29.77-5.34-.05-10.68-.49-16.02-.56-11.14-.14-17.93-6.39-21.8-16.05-2.4-5.98-3.79-12.37-5.64-18.58-.85-2.85-1.52-5.78-2.63-8.53-.8-1.99-1.96-3.97-3.41-5.53-.81-.87-3.13-1.59-3.75-1.1-1.29,1.02-2.73,2.96-2.64,4.42.44,6.7,1.43,13.37,2.15,20.06,1.37,12.7,2.45,25.44,4.1,38.11,1.21,9.27,3.05,18.46,4.77,27.65.56,3.03.45,5.86-.59,8.75-.32.88-.32,2.07,0,2.96,5.44,15.58,16.41,27.07,28.26,37.87,3.03,2.76,6.57,3.91,10.7,2.74,1.93-.55,3.71-.11,4.9,1.62,1.26,1.84.79,3.65-.34,5.4-3.03,4.68-10.65,6.91-16.8,3.86-5.67-2.81-11.08-6.4-16.03-10.36-8.62-6.9-14.75-15.79-19.27-25.91-2.56-5.74-5.72-11.24-8.94-16.65-2.84-4.76-7.69-6.99-12.73-8.71-.69-.23-1.62-.18-2.3.08-6.01,2.31-10.85,5.6-14.15,11.69-5.54,10.21-9.65,21.28-17.21,30.32-6.12,7.32-13.32,13.42-21.69,18.07-5.28,2.93-10.78,3.91-16.32,1.07-1.82-.93-3.46-2.71-4.51-4.5-.63-1.08-.49-3.28.25-4.32.73-1.03,2.84-1.98,3.98-1.67,5.6,1.52,9.8-.75,13.55-4.38,8.43-8.18,16.59-16.6,22.24-27.06.91-1.69,1.45-3.58,2.35-5.28,1.61-3.04,2.34-5.94,1.06-9.48-.71-1.95-.1-4.49.25-6.71,1.65-10.17,3.79-20.28,5.05-30.49,1.91-15.46,3.23-30.99,4.83-46.48.23-2.26.38-4.57,1.02-6.73.79-2.67-.79-4.19-2.27-5.73-1.3-1.36-2.97-.81-3.92.42-1.53,1.98-3.08,4.1-3.96,6.41-1.3,3.42-1.88,7.11-3.02,10.6-2.17,6.64-3.88,13.53-6.94,19.75-3.93,8-10.78,12.42-20.11,12.41-5.25,0-10.51.65-15.76.5-3.72-.1-7.44-.94-11.12-1.65-9.97-1.93-19.91-3.99-29.88-5.92-1.3-.25-2.68-.03-4.03-.03-.11.2-.21.39-.32.59ZM421.45,146.61c-.41-.17-.59-.31-.73-.28-.42.09-.85.2-1.25.38-11.15,5.08-23.14,6.78-35.08,8.64-17.05,2.65-34.15,5.13-50.45,11.15-3.93,1.45-7.7,3.35-11.53,5.07-1.45.65-1.45,1.4-.61,2.85,2.62,4.52,5.4,9.02,7.29,13.85,3.16,8.06,5.84,16.32,8.4,24.59,1.74,5.63,5.44,7.51,11,7.71,14.95.54,29.5-2.01,43.9-5.46,6.71-1.61,13.34-2.71,20.26-2,5.7.58,10.27,3.03,13.34,7.78,1.1,1.71,2.2,4.42,1.59,6.03-1.34,3.57-2.82,7.36-6.53,9.5-3.09,1.79-3.29,3.44-1,6.27.66.82,1.39,1.58,2.13,2.32,2.69,2.73,5.29,2.65,6.94-.77,1.3-2.69,2.04-5.78,2.39-8.76,1.02-8.69-1.52-16.81-4.46-24.84-2.13-5.84-4.23-11.69-6.05-17.63-4.52-14.74-4.22-29.52.02-44.29.2-.71.29-1.45.42-2.13ZM153.33,146.12c.37,1.39.61,2.29.86,3.18,3.34,12.19,4.58,24.57,1.47,36.9-2.27,8.98-5.48,17.72-8.43,26.51-2.75,8.21-5.08,16.48-3.39,25.23.5,2.58,1.68,5.11,2.94,7.45.76,1.41,2.66,2.4,4.05,1.14,2.08-1.89,3.8-4.2,5.44-6.51.34-.48-.07-2.22-.58-2.48-3.49-1.77-5.29-4.83-7.26-8-1.7-2.74-1.67-5.09-.18-7.59,3.02-5.03,7.43-8.03,13.35-8.71,5.98-.68,11.83-.16,17.75,1.01,11.32,2.25,22.69,4.33,34.12,5.95,5.06.72,10.31.25,15.48.13,3.89-.09,6.6-2,7.88-5.81,2.29-6.8,4.67-13.58,6.96-20.38,2.3-6.81,4.34-13.77,9.11-19.37,1.56-1.84,1.03-2.69-.79-3.49-3.52-1.56-6.98-3.29-10.59-4.64-15.62-5.86-32.01-8.36-48.37-10.93-12.9-2.02-25.88-3.66-37.94-9.15-.38-.17-.82-.2-1.88-.44ZM274.29,253.47c.14.03.28.07.42.1.17,2.09.49,4.18.48,6.27,0,2.38.93,2.74,3.22,2.66,6.35-.21,12.72-.14,19.07.19,2.18.11,2.48-.55,2.58-2.37.5-9.08-.49-17.98-2.61-26.81-1.03-4.28-1.18-8.66.65-12.88,1.25-2.9,1.81-5.74-.1-8.72-.76-1.18-.78-2.84-1.11-4.28-.91-4.08-1.75-8.18-2.72-12.26-.63-2.68-1.6-5.29-2.1-8-.45-2.44-2.15-4.5-4.31-4.57-2.22-.07-4.3,2.06-4.62,4.5-.26,1.98-.65,3.96-1.15,5.89-.7,2.69-1.61,5.33-2.34,8.01-1.17,4.29-2.39,8.58-3.32,12.92-.34,1.61-.41,3.62.26,5.03,2.46,5.19,2.24,10.32.99,15.76-1.41,6.11-2.22,12.36-3.29,18.55Z" style="fill: #000; stroke-width: 0px;"/>
  <path d="M372.07,641.27c-.82-.86-1.65-1.71-2.46-2.59-3.95-4.29-7.09-8.91-6.59-15.17.18-2.26-.07-4.56.04-6.83.33-7.03,3.78-12.43,9.05-16.83.4-.33.84-.66,1.32-.86,2.35-.97,4.74-2.2,7.22-.45,2.56,1.82,2.03,4.43,1.51,6.95-.23,1.11-.56,2.22-1.05,3.24-2.39,4.94-2.45,10.15-1.9,15.44.29,2.85,1.5,5.12,3.82,6.9,2.64,2.02,5.08,4.3,7.74,6.29.89.66,2.18.95,3.32,1.06,1.99.2,4.06-.15,6,.24,8.59,1.7,16.41-.58,23.7-4.74,8.92-5.09,16.59-11.59,22.03-20.58,2.1-3.47,5-6.52,7.82-9.48,2.17-2.28,4.51-2.54,6.07-1.16,2.03,1.8,1.31,3.82.51,6-5.3,14.52-15.67,25.22-26.93,35.05-8.6,7.5-14.12,16.76-15.82,27.68-1.21,7.76-.14,15.88-.01,23.84.12,8.02,3.33,15.17,6.52,22.29,10,22.32,11.86,45.86,9.45,69.75-1.2,11.84-4.88,23.32-10.2,34.08-3.05,6.17-8.24,10.02-15.02,11.26-9.07,1.65-18.05,1.84-25.96-4.03-6.02-4.46-9.51-10.87-11.78-17.7-5.13-15.43-15.4-26.66-28.24-35.85-6.33-4.53-13.15-8.38-19.56-12.81-8.4-5.8-16.07-12.33-21.32-21.4-3.72-6.43-8.28-12.37-10.12-19.78-1.1-4.41,1.01-7.05,5.57-6.55,8.78.97,17.6,1.69,26.32,3.02,4.35.66,8.78,1.93,12.73,3.83,8.83,4.25,17.33,9.11,25.22,15.07,3.76,2.84,8.33,4.74,12.73,6.57,4.67,1.94,9.31,1.02,13.58-1.62,1.64-1.01,3.18-2.17,4.76-3.28,3.1-2.2,4.01-5.16,4.35-8.98.7-7.81-1.72-14.33-5.2-21.2-6.35-12.51-9.95-25.98-10.01-40.19,0-.88-.04-1.75-.05-2.63-.03-2.31-.77-3.21-3.48-3.16-2.65.05-5.42-1.05-7.98-2.04-3.41-1.31-3.98-1.16-4.24,2.44-.35,4.89-.54,9.8-.92,14.69-.15,1.9-.43,3.85-1.03,5.65-.86,2.6-3.4,4.29-5.81,4.12-2.83-.2-4.38-2.05-5.2-4.52-.38-1.13-.43-2.41-.43-3.63.01-9.81.1-19.63.12-29.44.02-7.56,5.23-11.29,12.49-8.96,2.28.73,4.62,1.28,6.94,1.92.14-.31.28-.62.42-.92ZM412.31,718.36c0,1.73-.01,2.63,0,3.54.07,5.32-.12,10.69-3.61,15.01-4.91,6.07-10.38,11.71-17.08,15.82-3.06,1.88-6.62,3.56-10.11,4-9.47,1.19-18.21-1.41-26.06-6.84-2.45-1.69-4.81-3.51-7.18-5.31-10.39-7.92-21.18-14.99-34.66-16.35-1.29-.13-2.59-.22-3.88-.33-.09.28-.19.56-.28.84,5.79,7.09,11.8,13.99,19.66,18.97,8.36,5.29,16.94,10.24,25.18,15.71,9.02,5.98,16.23,13.87,21.92,23.05,3.69,5.95,6.98,12.15,10.55,18.18,3.48,5.87,7.9,10.23,15.49,9.77,2.99-.18,5.37-1.09,6.7-3.77,2.62-5.24,5.43-10.42,7.53-15.87,4.88-12.64,5.16-26.02,5.64-39.35.44-12.36-4.36-23.46-8.27-34.78-.2-.59-.71-1.08-1.54-2.29ZM407.79,707.75c.3-.12.6-.24.9-.36-.14-.88-.26-1.77-.44-2.64-2.25-11.35-2.16-22.79-1.16-34.23.45-5.17,1.94-10.13,4.71-14.63.47-.77.74-1.67,1.11-2.53-.5-.27-.71-.48-.94-.49-5.04-.39-10.09-.72-15.13-1.16-1.56-.14-2.02.48-2.02,1.92,0,1.75-.14,3.49-.2,5.24-.43,11.86-.61,23.69,5.26,34.58,2.59,4.79,5.26,9.54,7.9,14.31Z" style="fill: #000; stroke-width: 0px;"/>
  <path d="M203.29,641.99c.72-.09,1.47-.1,2.17-.28,1.86-.5,3.7-1.09,5.55-1.63,6.82-1.99,11.76,1.67,11.79,8.76.04,8.85.06,17.7.1,26.55,0,1.58.16,3.16.06,4.73-.23,3.71-2.55,6.47-5.52,6.69-3.03.23-6.12-2.3-6.52-6-.64-5.83-.89-11.7-1.28-17.56-.32-4.78-.63-4.79-5.15-2.91-2.49,1.03-5.35,1.43-8.07,1.6-1.59.1-2.26.5-2.45,1.93-.1.78-.2,1.57-.2,2.35,0,16.77-4.48,32.34-12.66,46.89-2.1,3.74-2.99,7.63-2.5,11.86.12,1.04.32,2.13.15,3.14-.82,4.88,1.39,8.12,5.2,10.87,8.3,6,13.66,7.09,25.55.6,4.35-2.38,8.03-5.97,12.3-8.51,6.62-3.93,13.39-7.64,20.29-11.03,2.84-1.4,6.16-2.08,9.34-2.5,9.02-1.19,18.07-2.1,27.11-3.08,4-.44,6.51,2.36,5.25,6.22-1.27,3.89-2.59,7.89-4.69,11.36-5.06,8.36-9.51,17.29-17.74,23.23-6.95,5.02-13.77,10.28-21.09,14.69-12.89,7.76-23.3,17.89-31.31,30.52-1.47,2.32-2.11,5.16-3.31,7.67-2.5,5.19-4.68,10.6-7.81,15.4-3.75,5.76-9.58,9.07-16.49,9.58-4.59.34-9.3.25-13.85-.4-7.33-1.05-12.97-5.18-15.93-11.96-6.02-13.79-10.82-28.05-10.78-43.3.03-10.67.28-21.46,1.88-31.97,1.32-8.64,4.78-16.96,7.32-25.42.3-1,.7-1.99,1.2-2.92,7.5-14,7.85-29.23,6.57-44.37-.88-10.4-6.1-19.44-13.66-26.87-5.12-5.03-10.27-10.03-15.4-15.05-6.65-6.52-10.77-14.62-14.35-23.05-.78-1.85-.84-3.65.82-5.03,1.68-1.4,3.68-1.18,5.04.23,3.14,3.26,6.55,6.45,8.89,10.26,5.25,8.56,12.47,14.88,20.89,19.94,7.68,4.62,15.92,7.27,25.08,5.4,1.28-.26,2.69-.56,3.91-.28,3.06.72,5.12-.49,7.18-2.59,1.76-1.8,4.12-3.01,5.87-4.82,1.46-1.51,3.13-3.38,3.48-5.31.96-5.26,1.16-10.6-1.1-15.75-.9-2.06-1.54-4.3-1.89-6.52-.63-3.96,2.2-6.4,6.1-5.4,6.13,1.58,9.6,6.27,11.68,11.61,3.4,8.75,3.56,22.43-5.77,30.04-.59.48-1.04,1.13-1.55,1.69.1.24.19.47.29.71ZM162.79,718.33c-.84,1.09-1.32,1.48-1.49,1.98-3.26,9.51-7.67,18.77-8.07,28.98-.3,7.59.1,15.23.58,22.82.88,13.8,5.12,26.62,12.32,38.4.96,1.56,2.85,3.24,4.54,3.53,5.28.93,10.38.28,13.96-4.46,1.58-2.09,3.14-4.2,4.49-6.44,5.36-8.92,10.04-18.22,16.84-26.27,8.25-9.77,18.58-16.87,29.49-22.97,11.1-6.21,21.05-13.48,28.85-23.55.48-.62.87-1.31,1.3-1.97-.16-.24-.32-.48-.48-.72-7.16,1.59-14.73,1.61-21.19,5.84-7.53,4.94-15.16,9.76-22.39,15.12-6.12,4.53-12.86,7-20.22,8.22-6.94,1.15-13.23-.48-18.85-4.63-2.46-1.82-5.06-3.56-7.17-5.74-4.33-4.48-9.78-8.25-11.36-14.75-.8-3.27-.82-6.74-1.15-10.12-.08-.81-.01-1.64-.01-3.25ZM161.89,652.89c9.75,18.06,6.82,36.55,4.73,55.08,1.97-2.78,3.89-5.57,5.5-8.53,3.5-6.48,7.18-13.06,7.7-20.51.59-8.53.29-17.12.36-25.69.01-1.74-1.15-1.64-2.37-1.47-2.86.39-5.72.86-8.59,1.08-2.23.18-4.48.03-7.32.03Z" style="fill: #000; stroke-width: 0px;"/>
  <path d="M255.15,553.62c4.79,3.22,5.74,7.98,6.44,12.63,1.33,8.82,2.3,17.7,3.29,26.57.18,1.61-.07,3.35-.5,4.93-1.2,4.45-3.91,6.56-8.49,6.9-8.53.63-15.88,4.15-22.33,9.53-5.3,4.42-10.17,3.53-13.04-2.71-.62-1.35-1.18-2.76-2.01-3.99-4.8-7.11-7.83-15.01-10.89-22.97-2.05-5.35-5.16-10.32-8.06-15.3-2.31-3.97-2.58-6.99-.2-9.05,2.32-2.02,5.81-1.7,9.05,1.1,4.21,3.63,6.96,8.29,8.83,13.49,1.8,5.03,3.44,10.13,5.46,15.07,1.35,3.31,3.25,6.4,4.85,9.6.87,1.73,1.87,2.04,3.5.83,4.85-3.61,10.21-6.13,16.18-7.21,1.71-.31,2.4-1.29,2.26-2.94-.71-8.55-1.21-17.13-2.23-25.64-.62-5.18-.85-5.94,1.95-10.51-1.3-.38-2.49-.84-3.72-1.08-6.04-1.18-10.61-4.31-13.6-9.77-1.26-2.3-2.55-4.68-4.28-6.6-5.06-5.61-6.92-12.45-8.19-19.6-.41-2.31-.43-4.52,2-5.68,2.4-1.14,4.24.14,5.72,1.95,2.76,3.37,5.46,6.81,8.2,10.2,1.45,1.79,3.1,1.87,5.11.79,4.99-2.68,9.4-5.81,12.7-10.68,4.52-6.66,10.71-11.3,18.96-12.55,1.89-.29,2.83-1.35,3.32-3.2,1.65-6.33,4.22-7.83,10.72-6.63,1.08.2,2.28.09,3.36-.17,4.92-1.17,8.71.78,9.77,5.65.66,3,2.15,4.19,5.03,4.69,7.85,1.36,13.52,6.22,17.79,12.53,3.25,4.81,7.68,7.78,12.57,10.43,1.91,1.04,3.5.93,4.9-.75,1.74-2.07,3.46-4.15,5.17-6.23,1.44-1.75,2.63-3.83,4.38-5.17,1.08-.82,3.29-1.11,4.49-.56,1.06.49,2.16,2.59,1.99,3.8-.97,6.57-1.99,13.16-6.36,18.66-2.28,2.87-4.32,5.97-6.14,9.15-3.08,5.39-7.56,8.6-13.61,9.77-1.25.24-2.45.7-4.16,1.19,3.57,3.2,2.9,6.72,2.45,10.51-1,8.51-1.48,17.09-2.17,25.64-.14,1.71.7,2.57,2.35,2.87,5.89,1.06,11.17,3.58,15.95,7.1,1.81,1.34,2.85.87,3.65-.95,2.78-6.32,5.76-12.57,8.25-19,2.25-5.81,3.96-11.85,8.36-16.52,1.43-1.51,3.03-2.95,4.79-4.02,2.37-1.43,5.14-.99,6.82.66,1.74,1.7,2.12,4.24.77,6.8-1.06,2.01-2.56,3.8-3.52,5.84-2.72,5.77-5.24,11.64-7.91,17.43-2.05,4.45-4.16,8.87-6.35,13.24-1.41,2.81-3.09,5.49-4.51,8.3-2.81,5.56-7.7,6.49-12.46,2.49-6.58-5.53-14.01-9.21-22.74-9.83-5.33-.38-8.76-3.75-8.89-9.55-.26-12.09,1.76-23.92,5.04-35.52.47-1.67,1.75-3.24,2.99-4.52,1.22-1.25,1.23-2-.2-2.82-4.26-2.44-8.4-5.12-12.84-7.17-2.71-1.25-5.86-1.96-8.85-2.13-5.85-.33-11.74-.2-17.61-.08-4.09.09-7.91,1.3-11.43,3.48-3.21,1.97-6.54,3.74-9.8,5.63-.66.38-1.25.87-2.36,1.66ZM238.74,536.41c.24.67.34,1.18.59,1.58,2.93,4.67,8.88,5.84,14.13,2.84,9.39-5.38,18.89-10.25,30.14-10.55,10.24-.27,20.09.77,29.21,5.85,3.29,1.83,6.6,3.64,9.97,5.32,5.41,2.69,12.2.09,13.22-5.05-1.79-.33-3.62-.5-5.35-1.01-6.69-1.95-11.99-6.01-16.53-11.16-2.02-2.3-3.98-4.67-6.13-6.84-2.22-2.25-4.72-3.52-8.22-3.12-2.05.24-4.5-.63-6.37-1.69-3.99-2.28-7.77-2.53-11.58.06-2.31,1.56-4.73,1.9-7.48,1.77-1.69-.08-3.83.32-5.06,1.35-2.86,2.39-5.39,5.21-7.89,8.01-4.88,5.45-10.37,9.94-17.62,11.79-1.58.4-3.21.56-5.02.87Z" style="fill: #000; stroke-width: 0px;"/>
  <path d="M349.34,695.91c0,5.17.13,10.34-.07,15.51-.07,1.86-.63,3.83-1.46,5.51-1.25,2.52-3.48,3.85-6.44,3.72-2.97-.14-5.3-1.67-5.96-4.36-1.07-4.39-1.8-8.92-2.06-13.43-.71-12.33-1.12-24.68-1.59-37.02-.06-1.64-.63-2.55-2.22-3.08-6.47-2.18-12.92-4.46-19.37-6.7-3.28-1.14-3.61-.82-3.51,2.61.15,5.43.41,10.87.08,16.28-.15,2.38-1.13,5.09-2.63,6.91-3.6,4.37-10.08,3.07-12.08-2.23-.6-1.59-.69-3.41-.79-5.14-.46-7.69-.54-15.4-1.32-23.06-.79-7.86,2.46-12.68,10.22-14.05,4.35-.77,8.72-.52,12.67,1.22,8.33,3.66,16.74,7.29,24.57,11.87,5.68,3.33,9.93,8.26,10.2,15.82.35,9.88,1.46,19.74,2.25,29.6-.16,0-.32.02-.48.03Z" style="fill: #000; stroke-width: 0px;"/>
  <path d="M225.36,694.24c.76-9.34,1.84-18.67,2.19-28.03.29-7.76,4.73-12.61,10.65-16.09,6.85-4.03,14.14-7.35,21.41-10.61,5.27-2.36,10.89-3.28,16.69-1.89,6.29,1.51,9.47,5.8,8.97,12.26-.12,1.57-.51,3.12-.59,4.69-.32,6.73-.55,13.47-.86,20.2-.07,1.47-.17,3-.59,4.4-.91,3.03-3.44,5.01-6.27,5.18-3.22.19-6.3-1.38-7.39-4.39-.88-2.43-1.43-5.09-1.49-7.67-.11-4.81.2-9.63.42-14.44.1-2.12-.76-2.74-2.69-2.07-6.96,2.39-13.94,4.72-20.84,7.27-.8.3-1.54,1.86-1.6,2.87-.83,15.04-1.5,30.09-2.33,45.13-.1,1.87-.67,3.83-1.47,5.53-1.24,2.63-3.39,4.2-6.49,4.04-3.03-.16-5.13-1.71-6.24-4.46-.52-1.28-.95-2.69-.97-4.05-.1-5.95-.04-11.91-.04-17.87-.16,0-.31-.01-.47-.02Z" style="fill: #000; stroke-width: 0px;"/>
  <path d="M223.94,398.24c-3.76.84-6.72-1.13-9.95-2.53-8.08-3.51-14.4-9.12-20.28-15.5-4.54-4.92-6.04-11.08-7.4-17.17-1.92-8.52-3.06-17.22-4.46-25.86-.18-1.09-.27-2.54.29-3.31.85-1.15,2.35-2.57,3.51-2.52,1.3.06,3.08,1.38,3.68,2.62,1.36,2.81,2.19,5.9,3.14,8.9,1.51,4.76,2.98,9.53,4.39,14.32,2.4,8.14,7.25,14.74,13.15,20.59,1.63,1.61,3.78,3.02,5.95,3.7,8.56,2.66,17.07,3.2,24.9-2.35,5.7-4.04,11.33-8.18,17.04-12.21,1.99-1.41,3.99-2.91,6.2-3.87,3.6-1.56,6.7.51,7.16,4.4.37,3.18-.63,5.98-2.75,8.22-10.67,11.31-23.33,19.21-38.8,22.11-1.88.35-3.84.31-5.76.45Z" style="fill: #000; stroke-width: 0px;"/>
  <path d="M350.43,398.14c-6.06.23-12.17-1.56-18.05-4.21-9.01-4.07-17.26-9.31-24.21-16.42-2.44-2.49-4.42-5.24-4.47-8.93-.06-4.89,3.55-7.47,7.87-5.22,3.06,1.59,5.66,4.07,8.55,6.02,6.08,4.1,11.98,8.57,18.4,12.07,8.53,4.64,21.85,1.44,28.56-5.55,7.77-8.11,11.29-18.17,14.31-28.58,1.22-4.2,2.55-8.37,3.87-12.54.69-2.19,1.93-3.81,4.51-3.53,2.27.25,3.85,2.27,3.41,5.09-1.55,9.76-3.08,19.53-5.08,29.2-2.92,14.15-12.68,22.74-24.88,29.02-7.63,3.93-7.69,3.81-12.77,3.6Z" style="fill: #000; stroke-width: 0px;"/>
  <path d="M498.07,609.14c1.82,3.38,3.38,6.96,3.24,10.85-.23,6.81-.68,13.64-1.41,20.41-1.13,10.44-2.37,20.88-3.94,31.26-1.43,9.52-3.36,18.96-5.07,28.43-.08.43-.1.91-.31,1.27-1.25,2.11-1.54,3.96.3,6.09.67.78.4,2.72.02,3.96-.43,1.37-1.24,2.81-2.29,3.77-3.06,2.81-3.79,6.49-4.67,10.28-1.86,8.02-4.02,15.96-6.06,23.94-.13.51-.23,1.16-.58,1.44-1.01.8-2.23,2.12-3.22,1.99-1.84-.23-1.01-1.97-.9-3.23.38-4.26.49-8.56,1.08-12.79.56-3.98,1.62-7.88,2.43-11.82.68-3.29.42-3.54-2.87-3.12-7.03.89-14.05,1.87-21.1,2.6-2.76.28-5.62.22-8.36-.18-1.33-.19-2.95-1.23-3.64-2.37-1.01-1.67.11-3.23,1.37-4.65,6.63-7.5,15.39-9.76,24.88-10.8,5.62-.62,11.17-2.05,16.71-3.28.65-.14,1.38-1.28,1.53-2.06,1.29-6.7,2.76-13.38,3.6-20.14,2.08-16.76,3.9-33.56,5.71-50.35.6-5.56.74-11.17,1.25-16.75.15-1.64.84-3.23,1.29-4.85.34.03.69.07,1.03.1Z" style="fill: #000; stroke-width: 0px;"/>
  <path d="M97.71,721.48c.52,2.83.98,4.95,1.28,7.09.79,5.78,1.5,11.57,2.25,17.36.21,1.65.51,3.29.63,4.94.04.61-.15,1.63-.52,1.78-.6.25-1.73.21-2.1-.2-.85-.92-1.68-2.06-2-3.25-2.24-8.46-4.45-16.93-6.44-25.44-.7-2.98-1.62-5.65-3.81-7.89-1.14-1.17-2.02-2.65-2.82-4.09-1.07-1.94-.89-3.83.59-5.61.43-.52.81-1.41.67-2.01-1.49-6.82-3.48-13.56-4.57-20.44-2.18-13.74-4.09-27.53-5.72-41.34-.86-7.28-1.08-14.66-1.18-22-.04-2.99.91-6.01,1.62-8.97.18-.75,1.19-1.3,1.81-1.94.51.74,1.37,1.45,1.47,2.24.52,4.25.85,8.53,1.25,12.79,1.09,11.49,2.02,23,3.32,34.47,1.32,11.65,2.96,23.27,4.56,34.88.36,2.59,1.03,5.15,1.78,7.66.22.73,1.15,1.62,1.88,1.76,6.95,1.35,13.98,2.3,20.86,3.9,4.81,1.11,9.61,2.65,14.05,4.78,2.72,1.3,4.89,3.92,6.98,6.25.76.84,1.15,2.89.64,3.78-.64,1.14-2.33,2.25-3.64,2.35-8.6.63-17.13-.1-25.59-1.79-2.2-.44-4.44-.65-7.28-1.05Z" style="fill: #000; stroke-width: 0px;"/>
  <path d="M397.78,278.6c-2.07-2.45-4.05-4.97-6.22-7.33-7.17-7.79-14.43-15.5-21.59-23.3-.85-.93-1.6-2.23-1.74-3.43-.16-1.32.05-3.58.79-3.92,1.13-.52,3.12-.15,4.26.59,1.64,1.07,2.97,2.71,4.21,4.27,6.05,7.6,12.04,15.25,18.01,22.9,1.94,2.48,4,4.92,5.6,7.61,1.33,2.24,3.09,2.96,5.5,3.31,4.66.69,9.31,1.6,13.91,2.63,3.35.75,5.66,3.07,7.42,5.91,1.19,1.92,1.61,4.01-.07,5.83-1.71,1.85-3.84,1.53-5.79.42-1.58-.9-2.91-2.27-4.51-3.14-1.39-.76-2.96-1.35-4.51-1.6-2.45-.39-4.95-.56-7.43-.61-5.66-.11-11.33-.13-17-.08-1.77.02-2.46.91-1.71,2.8,2.12,5.37,4.32,10.73,6.1,16.22,1.23,3.79,1.7,7.82,2.69,11.69.5,1.93,1.46,3.73,2.11,5.63.34,1.02.45,2.12.67,3.18-.27.1-.55.19-.82.29-1.85-4.37-3.71-8.74-5.56-13.11-3.23-7.66-6.47-15.32-9.68-22.99-.71-1.7-1.95-1.3-3.29-1.01-4.26.92-8.51,1.96-12.82,2.57-5.88.84-10.14-2.23-13.4-6.67-1.85-2.52-3.13-5.46-4.56-8.27-.75-1.47-.72-3.25,1.02-3.73.97-.27,2.67.53,3.43,1.39,1.89,2.14,3.12,4.93,5.19,6.84,5.18,4.78,14.39,4.55,19.49-.31.54-.52.21-1.96.26-2.98.04-.83.05-1.66.08-2.49.94.22,2.55.22,2.7.69,1.52,4.61,4.87,3.12,7.95,2.59,3-.52,5.99-1.05,8.99-1.58.12-.28.23-.56.35-.84Z" style="fill: #000; stroke-width: 0px;"/>
  <path d="M177.09,279.03c.93.33,1.62.69,2.35.82,3.54.63,7.09,1.15,10.63,1.8,1.56.28,2.7.11,3.36-1.59.29-.75,1-1.5,1.72-1.86.59-.3,1.54-.17,2.18.11.22.09.24,1.34-.05,1.83-1.12,1.93-.4,2.94,1.37,3.95,9.61,5.48,17.33,3.4,22.76-6.24.3-.53.49-1.29.95-1.54.98-.53,2.54-1.42,3.07-1.04.81.57,1.63,2.45,1.26,3.15-2.01,3.86-3.99,7.84-6.72,11.17-2.81,3.43-6.89,5.17-11.54,4.39-4.04-.68-8.08-1.45-12.05-2.47-2.05-.53-3.22-.39-4.1,1.76-3.27,8.01-6.69,15.97-10.04,23.94-1.53,3.63-3.02,7.26-4.6,10.87-.32.73-.91,1.34-1.38,2.01-.2-.11-.4-.22-.6-.34,1.29-3.58,2.63-7.14,3.86-10.75.47-1.39.6-2.89,1.01-4.3,1.72-5.86,3.45-11.71,5.26-17.54.52-1.67,1.31-3.25,1.96-4.87,1.19-2.97.99-3.41-2.13-3.72-5.76-.56-11.56-1.13-17.24.42-2.05.56-3.98.45-6.02.47-1.74.01-3.57.93-5.2,1.76-1.62.83-2.95,2.22-4.56,3.06-1.89.98-3.95,1.15-5.56-.62-1.52-1.67-1.24-3.59-.21-5.38,1.72-2.97,4-5.46,7.45-6.25,4.77-1.09,9.59-2,14.42-2.76,2.25-.35,3.69-1.28,5.09-3.12,6.43-8.42,13.08-16.67,19.62-25,1.89-2.41,3.62-4.95,5.55-7.33.87-1.07,1.91-2.21,3.13-2.73,1.3-.55,2.89-.41,4.36-.57.14,1.47.65,3.03.31,4.37-.34,1.35-1.39,2.62-2.37,3.7-8.69,9.61-17.43,19.17-26.15,28.75-.39.43-.65.97-1.14,1.7Z" style="fill: #000; stroke-width: 0px;"/>
  <path d="M316.38,325.16c-.64,4.62-.79,8.53-1.81,12.2-.75,2.67-2.22,5.42-4.11,7.44-4.38,4.68-10.86,4.06-14.38-1.28-3.33-5.06-6.26-10.43-6.61-16.67-.24-4.26-.27-8.57.09-12.82.33-3.88,2.55-6.8,6.04-8.7,1.61-.88,3.14-1.89,4.7-2.86,2.56-1.59,6.4-1.27,8.58,1.5,2.12,2.7,3.97,5.83,5.03,9.08,1.35,4.11,1.78,8.51,2.48,12.11ZM301.31,312.87c-1.9,2.95-.67,19.94,1.65,22.98,3.79-3.68,2.74-18.28-1.65-22.98Z" style="fill: #000; stroke-width: 0px;"/>
  <path d="M285.94,320.91c.49,8.14-2.35,15.32-6.58,22.03-3.87,6.14-10.96,6.67-15.61,1.09-1.37-1.64-2.61-3.66-3.11-5.7-2.6-10.58-2.64-21.06,2.89-30.85,1.18-2.08,3.21-3.89,5.24-5.23,1.99-1.31,4.38-.93,6.41.57.63.46,1.28.95,1.99,1.26,6.22,2.71,8.88,7.59,8.76,14.2-.02.88,0,1.75,0,2.63ZM273.73,312.89c-4.37,4.61-5.47,19.2-1.73,22.93,2.38-2.94,3.64-19.74,1.73-22.93Z" style="fill: #000; stroke-width: 0px;"/>
  <path d="M275.08,572.3c0,3.68,0,7.35,0,11.03,0,3.33,2.38,5.28,5.73,5.14,4.42-.19,8.86-.2,13.29,0,3.37.15,5.85-1.77,5.79-5.1-.11-6.57-.39-13.14-.42-19.71-.01-2.87.28-5.77.66-8.62.39-2.9,2.05-4.4,4.15-4.14,2,.25,3.25,1.97,3.16,4.73-.12,4.11-.52,8.22-.54,12.33-.03,5.25.32,10.51.27,15.76-.07,7.42-4.37,12.45-11.69,13.02-5.64.44-11.38.36-17.01-.17-6.09-.57-10.23-5.37-10.62-11.51-.19-3.05.06-6.13.02-9.19-.08-6.13-.23-12.25-.34-18.38-.02-1.05-.11-2.12.03-3.15.26-1.93,1.29-3.31,3.35-3.45,1.95-.13,3.25,1.08,3.61,2.83.55,2.65.91,5.36,1.04,8.06.17,3.5.04,7.01.04,10.51-.17,0-.34,0-.52,0Z" style="fill: #000; stroke-width: 0px;"/>
  <path d="M142.12,665.9c-2.7-.59-4.66-.79-6.45-1.44-14.49-5.26-28.02-12.14-38.22-24.13-2.34-2.75-3.92-6.16-5.69-9.35-.53-.95-.68-2.18-.75-3.3-.15-2.31.33-4.48,2.81-5.38,2.36-.85,4.26.3,5.37,2.23,6.73,11.76,18.24,17.53,29.41,23.79,5.32,2.98,10.53,6.18,15.67,9.49,1.74,1.12,2.51,3.28,1.41,5.11-.82,1.37-2.56,2.18-3.56,2.98Z" style="fill: #000; stroke-width: 0px;"/>
  <path d="M483.99,628.17c-.61,4.27-2.98,8.39-6.2,12.08-10.5,12.07-24.16,19.11-38.93,24.35-1.39.49-2.9.67-4.37.89-2.27.34-4.29-.18-5.27-2.44-.92-2.12-.19-4.11,1.6-5.35,3.65-2.53,7.39-4.95,11.21-7.21,6.92-4.09,14.03-7.88,20.86-12.1,4.8-2.97,8.67-7.05,11.59-11.96.4-.68.82-1.35,1.31-1.96,1.39-1.73,3-3.02,5.41-2.17,1.86.66,2.83,2.54,2.77,5.86Z" style="fill: #000; stroke-width: 0px;"/>
  <path d="M285.68,833.17c-.46.65-1.08,2.45-2.12,2.74-1.2.34-3.34-.19-4.1-1.13-3.61-4.49-7.28-9.02-10.22-13.95-5.72-9.61-12.94-17.81-21.65-24.75-1.09-.87-2.35-1.5-3.52-2.27-1.68-1.1-2.92-2.77-2.12-4.62.65-1.49,2.14-3.06,3.63-3.62,3-1.13,5.79.3,8.38,1.93,11.12,7.01,19.57,16.61,26.41,27.67,3.23,5.22,4.61,11.12,5.3,18Z" style="fill: #000; stroke-width: 0px;"/>
  <path d="M289.28,832.95c.86-7.18,2.4-13.19,5.82-18.52,6.29-9.79,13.66-18.62,23.41-25.21,1.73-1.17,3.47-2.53,5.42-3.14,1.9-.59,4.19-.79,6.06-.27,1.27.35,2.76,2.15,2.96,3.48.2,1.31-.68,3.46-1.79,4.2-11.02,7.33-19.25,17.1-25.99,28.38-2.72,4.55-6.26,8.63-9.5,12.86-1.09,1.42-2.79,2.31-4.37,1.22-1.11-.76-1.63-2.37-2.03-3Z" style="fill: #000; stroke-width: 0px;"/>
  <path d="M139.66,574.08c.08-.73-.08-2.34.47-3.65.51-1.21,1.7-2.81,2.73-2.92,1.05-.11,2.7,1.15,3.31,2.24.96,1.71,1.44,3.75,1.81,5.71,1.95,10.33,6.11,19.63,12.51,27.99,4.93,6.45,9.65,13.07,14.43,19.63.51.7.93,1.5,1.2,2.32.59,1.8.45,3.55-1.22,4.72-1.74,1.21-3.68.99-5.05-.48-8.32-8.93-17.6-16.98-23.45-28.09-4.47-8.48-6.23-17.38-6.74-27.48Z" style="fill: #000; stroke-width: 0px;"/>
  <path d="M435.38,575.04c-.12,15.61-6.21,28.77-16.42,40.2-4.31,4.82-8.91,9.39-13.4,14.05-1.57,1.63-3.48,2.19-5.44.86-2.01-1.37-2.14-3.5-.97-5.37,2.73-4.36,5.41-8.82,8.64-12.81,6.52-8.06,13.08-16.04,16.33-26.1,1.05-3.23,1.82-6.55,2.74-9.83.61-2.18,1.02-4.48,2-6.48.5-1.02,2.23-2.24,3.14-2.06,1.11.23,2.32,1.68,2.81,2.88.57,1.4.41,3.09.57,4.65Z" style="fill: #000; stroke-width: 0px;"/>
  <path d="M201.7,548.74c-.14,2.92-1.21,4.72-3.64,5.36-2.34.61-3.77-.7-4.89-2.61-.83-1.43-1.78-2.8-2.79-4.11-6.77-8.78-13.57-17.54-20.38-26.29-1.4-1.79-3.12-3.37-4.32-5.28-1.55-2.48-2.98-5.12-3.93-7.87-.42-1.2.03-3.55.91-4.14,1.06-.71,3.14-.48,4.52.04,1.67.63,3.28,1.77,4.53,3.07,6.29,6.58,12.98,12.87,18.48,20.07,4.36,5.7,7.25,12.54,10.72,18.92.52.97.62,2.17.79,2.83Z" style="fill: #000; stroke-width: 0px;"/>
  <path d="M373.33,548.3c.18-.6.33-1.77.85-2.75,4.46-8.41,8.32-17.2,15.06-24.2,4.43-4.6,8.77-9.29,13.34-13.76,1.72-1.68,3.83-3.09,5.99-4.17,2.96-1.48,5.62.45,4.8,3.65-.76,2.96-2.08,5.96-3.85,8.43-5.74,8.02-11.76,15.84-17.75,23.68-1.53,2.01-3.4,3.76-5,5.72-1.71,2.09-3.42,4.2-4.91,6.45-1.26,1.9-2.58,3.37-5.08,2.73-2.2-.56-3.61-2.74-3.45-5.78Z" style="fill: #000; stroke-width: 0px;"/>
  <path d="M271.25,425.32c.43-3.97,1.19-11.19,2.04-18.4.14-1.19.43-2.54,1.13-3.44.65-.84,2.02-1.71,2.93-1.58.91.13,1.64,1.49,2.44,2.31.05.05.04.17.04.26-.23,14.04,2.8,28.19-1.1,42.09-1.7,6.04-3.97,11.93-6.26,17.78-.74,1.88-2.17,3.64-3.66,5.05-3.53,3.34-9.33,2.81-12.13-.92-1.38-1.83-1.9-3.87-.27-5.78,1.7-1.97,3.75-1.69,5.6-.19,1.33,1.08,2.22.77,2.93-.57.61-1.15,1.31-2.31,1.64-3.56,2.61-9.75,4.88-19.56,4.68-33.04Z" style="fill: #000; stroke-width: 0px;"/>
  <path d="M293.91,428.25c.41-4.44.92-8.87,1.18-13.32.17-2.88-.02-5.77-.07-8.66-.03-2.02.08-4.14,2.58-4.47,2.47-.33,3.43,1.68,3.7,3.63.9,6.59,2.19,13.2,2.22,19.81.06,11.07,1.85,21.79,4.65,32.41.27,1.01.63,2.01,1.08,2.95,1.35,2.78,1.72,2.88,4.37,1.4,1.72-.96,3.41-.97,4.81.5,1.45,1.53,1.37,3.35.43,5.12-2.31,4.38-8.87,5.38-12.71,1.75-1.55-1.47-2.81-3.37-3.81-5.28-5.88-11.2-7.82-23.32-8.42-35.83Z" style="fill: #000; stroke-width: 0px;"/>
  <path d="M195.27,500.11c.9-2.04,1.23-4.66,2.65-5.59,2.48-1.63,3.85,1.3,5.55,2.66,3.62,2.91,4.93,7.07,6.41,11.22,3.06,8.57,6.65,16.95,9.4,25.61,1.47,4.61,1.67,9.63,2.38,14.47.12.85.21,1.96-.22,2.57-.9,1.25-1.98,2.73-3.31,3.2-1.78.63-3.16-.8-3.79-2.48-1.93-5.16-3.69-10.4-5.67-15.54-3.24-8.41-6.66-16.75-9.87-25.17-1.32-3.46-2.3-7.06-3.54-10.95Z" style="fill: #000; stroke-width: 0px;"/>
  <path d="M379.56,500.91c-1.07,3.27-2,6.6-3.24,9.81-3.23,8.41-6.65,16.74-9.9,25.15-2.02,5.23-3.82,10.53-5.78,15.78-.67,1.79-1.96,3.01-4.01,2.69-2.28-.35-3.43-2.12-3.26-4.15.41-4.87.64-9.85,1.95-14.52,1.88-6.71,4.63-13.17,7.02-19.74,1.52-4.2,2.61-8.63,4.7-12.52,1.73-3.22,4.43-6.01,7.07-8.63,1.73-1.71,4.31-.5,4.69,1.96.2,1.28.04,2.62.04,3.93.24.08.48.15.73.23Z" style="fill: #000; stroke-width: 0px;"/>
  <path d="M468.71,410.18c-7.35-.64-14.06-4.15-18.67-10.85-2.5-3.63-4.18-7.86-5.9-11.96-.46-1.09-.12-3.06.64-3.98,1.19-1.45,2.89-.67,4.21.37,4.54,3.57,9.21,6.99,13.55,10.79,4.79,4.21,9.93,5.58,16.01,3.42,2.8-.99,5.69-1.72,8.56-2.52,2.01-.56,3.98-.48,4.9,1.75.94,2.27-.49,3.55-2.31,4.62-1.57.92-3.12,1.92-4.55,3.05-4.59,3.63-9.88,5.11-16.45,5.3Z" style="fill: #000; stroke-width: 0px;"/>
  <path d="M105.16,410.71c-6.11-.84-11.51-2.49-16.1-6.48-1.17-1.02-2.62-1.72-3.98-2.49-1.78-1.01-2.97-2.38-2.15-4.48.82-2.1,2.67-2.39,4.62-1.87,3.13.84,6.25,1.69,9.32,2.72,5.79,1.93,10.75.66,15.33-3.29,4.37-3.77,8.99-7.25,13.49-10.86,1.38-1.11,3.1-2.1,4.41-.58.8.93,1.05,2.97.64,4.21-2.88,8.59-7.02,16.35-15.91,20.14-3.08,1.32-6.44,2-9.67,2.98Z" style="fill: #000; stroke-width: 0px;"/>
  <path d="M278.78,603.95c2.46.51,4.92,1.06,7.4,1.52.82.15,1.75.27,2.52.04,7.89-2.32,15.2-1.65,21.76,3.78,1.47,1.22,3.18,2.16,4.75,3.28,1.57,1.12,2.48,2.63,1.54,4.52-.93,1.87-2.81,2.42-4.49,1.49-5.25-2.92-11.29-1.93-16.76-3.69-2.22-.72-4.61-.93-6.93-1.34-.51-.09-1.06-.21-1.55-.12-4.03.76-8.05,1.62-12.09,2.36-2.06.37-4.17.46-6.22.86-1.59.31-3.21.75-4.68,1.43-2.65,1.24-4.79,1.02-5.78-.87-.94-1.8-.09-3.65,2.31-5.16,1.33-.84,2.74-1.62,3.89-2.67,4.07-3.7,8.91-5.06,14.34-5.42Z" style="fill: #000; stroke-width: 0px;"/>
  <path d="M430.4,690.65c-.79,0-1.75.29-2.33-.06-1.4-.84-3.12-1.73-3.81-3.07-.92-1.78.11-3.67,1.81-4.72,2.22-1.38,4.52-2.68,6.91-3.74,4.08-1.81,8.38-3.16,12.35-5.17,6.78-3.42,13.39-7.18,20.03-10.87,1.54-.85,3.02-1.68,4.56-.31,1.53,1.36,1.07,2.99.26,4.56-1.95,3.79-4.51,7-8.02,9.55-6.83,4.96-13.83,9.6-22.01,12.03-3.17.94-6.45,1.51-9.67,2.24-.03-.15-.06-.3-.09-.45Z" style="fill: #000; stroke-width: 0px;"/>
  <path d="M142.94,690.72c-7.96-.8-16.41-4.45-24.17-9.79-4.96-3.41-10.32-6.44-13.19-12.14-.96-1.91-2.76-3.9-.68-5.94,2.16-2.11,4.01-.16,5.8,1.02,8.24,5.41,17.05,9.65,26.26,13.13,3.51,1.33,6.91,2.98,10.22,4.76,3.35,1.8,4.33,3.71,3.63,5.91-.69,2.17-2.59,3.09-7.88,3.06Z" style="fill: #000; stroke-width: 0px;"/>
  <path d="M208.82,425.79c-1,4.64-1.66,8.72-2.76,12.67-3.41,12.29-8.02,24.1-14.96,34.88-.84,1.31-1.81,2.62-2.99,3.62-2.3,1.94-5.62,1.63-7.33-.47-1.58-1.95-1.12-4.17,1.08-6.52,1.18-1.25,2.36-2.64,3.04-4.19,5.33-12.1,10.54-24.25,15.8-36.38.66-1.53,1.32-3.05,2.07-4.54.76-1.52,2.01-2.85,3.71-2.03,1.09.52,1.68,2.07,2.34,2.96Z" style="fill: #000; stroke-width: 0px;"/>
  <path d="M365.96,425.74c.81-1,1.53-2.71,2.44-2.81,1.13-.13,2.94.74,3.54,1.74,1.43,2.38,2.32,5.08,3.44,7.65,4.8,11,9.57,22.01,14.47,32.96.8,1.78,2.11,3.4,3.43,4.87,2.06,2.3,2.45,4.67.79,6.56-1.6,1.82-4.84,2.13-6.96.45-1.08-.85-2.02-1.97-2.76-3.13-9.08-14.23-14.76-29.76-17.77-46.32-.09-.52-.1-1.05-.15-1.57-.16-.13-.31-.26-.47-.39Z" style="fill: #000; stroke-width: 0px;"/>
  <path d="M306.54,852.61c.91-3.32,1.31-6.37,2.56-9.02,2.53-5.35,5.2-10.7,8.43-15.65,3.1-4.75,6.86-9.09,10.55-13.42,2.2-2.58,4.76-4.88,7.34-7.11,1.08-.93,2.55-1.58,3.95-1.95,2.34-.63,4.52.54,5.2,2.47.69,1.97-.39,3.74-2.67,5.06-1.55.9-3.1,1.98-4.26,3.33-5.14,5.97-10.51,11.8-15.06,18.2-3.67,5.17-6.29,11.08-9.36,16.67-.46.84-.64,1.99-1.33,2.53-.92.72-2.28,1.46-3.3,1.29-.83-.14-1.43-1.62-2.05-2.4Z" style="fill: #000; stroke-width: 0px;"/>
  <path d="M235.24,805.29c.75.32,2.19.75,3.42,1.51,1.41.87,2.82,1.86,3.89,3.1,7.91,9.12,16.39,17.86,21.45,29.04,1.72,3.8,2.67,7.95,3.87,11.97.5,1.69.48,3.51-1.53,4.21-2.15.75-3.12-.85-3.99-2.48-3.17-5.94-5.82-12.24-9.69-17.69-5.06-7.12-11.05-13.58-16.74-20.23-.8-.93-2.18-1.39-3.33-2-1.85-.98-2.81-2.44-2.25-4.51.55-2.06,2.13-2.88,4.9-2.92Z" style="fill: #000; stroke-width: 0px;"/>
  <path d="M431.72,421.2c0-1.57-.09-3.16.02-4.72.11-1.6.83-3.22,2.6-2.96,1.07.16,2.5,1.4,2.81,2.44.88,2.91,1.4,5.96,1.81,8.99,1.36,9.94,4.68,19.16,9.86,27.75.87,1.45,1.78,2.2,3.57,1.87,2.18-.4,4.26.3,5.01,2.4.46,1.26.23,3.2-.47,4.36-1.2,1.98-3.7,2.8-5.53,1.56-3.64-2.44-7.52-5-10.09-8.42-2.77-3.67-4.55-8.26-6.07-12.68-2.28-6.62-3.67-13.5-3.52-20.59Z" style="fill: #000; stroke-width: 0px;"/>
  <path d="M143.19,421.21c-.24,10.26-2.49,20.06-6.86,29.38-2.33,4.96-6.56,8.08-10.58,11.41-.93.77-2.41,1.09-3.67,1.18-2.81.22-5.11-1.93-5.08-4.49.03-2.48,2.22-4.56,5.01-4.15,2.42.36,3.47-.71,4.53-2.53,4.98-8.49,8.16-17.57,9.47-27.33.38-2.86.82-5.74,1.68-8.48.35-1.13,1.79-2.52,2.88-2.68,1.93-.27,2.51,1.51,2.59,3.21.07,1.48.01,2.97.01,4.46Z" style="fill: #000; stroke-width: 0px;"/>
  <path d="M385.4,106.94c3.66.8,7.35,1.45,10.95,2.45,2.86.79,4.18,3.34,3.33,5.64-.85,2.29-3.49,3.22-6.22,1.99-5.28-2.38-10.53-2.16-15.8-.1-7.04,2.75-13.82,5.98-19.7,10.85-1.23,1.02-2.65,1.62-4.01.31-1.34-1.3-.95-2.8.19-3.98,7.23-7.49,15.43-13.49,25.68-16.15,1.76-.46,3.64-.46,5.46-.67.04-.11.08-.22.12-.33Z" style="fill: #000; stroke-width: 0px;"/>
  <path d="M189.67,106.95c5.1.17,9.57,1.98,13.91,4.11,6.34,3.13,11.83,7.46,16.75,12.51,1.26,1.29,2.16,2.8.72,4.37-1.47,1.59-3.01.7-4.4-.42-6.48-5.26-13.87-8.84-21.74-11.39-4.33-1.4-8.78-1.25-13.05.72-3.01,1.39-5.77.54-6.64-1.96-.81-2.33.72-4.87,3.72-5.65,3.53-.91,7.14-1.55,10.71-2.3Z" style="fill: #000; stroke-width: 0px;"/>
  <path d="M186.25,859.41c-.04,6.04-2.07,11.31-6.16,15.76-1.43,1.56-3.12,2.7-5.33,1.63-2.1-1.02-2.33-2.98-2-4.97.47-2.84,1.35-5.63,1.66-8.49.34-3.08.52-6.24.26-9.32-.27-3.12.29-5.41,2.38-6.36,2.35-1.07,5.16-.3,6.65,2.56,1.45,2.79,2.16,5.96,3.19,8.96l-.66.22Z" style="fill: #000; stroke-width: 0px;"/>
  <path d="M388.09,859.23c1.07-3.08,1.83-6.31,3.3-9.18,1.37-2.7,4.2-3.43,6.48-2.41,2.1.94,2.68,3.03,2.52,6.04-.19,3.34.01,6.73.34,10.08.25,2.51,1.03,4.96,1.45,7.46.38,2.25.36,4.54-2.14,5.62-2.47,1.07-4.17-.47-5.64-2.2-3.7-4.37-5.61-9.42-5.6-15.17-.24-.08-.47-.16-.71-.24Z" style="fill: #000; stroke-width: 0px;"/>
  <path d="M233.28,837.45c-.05.64.13,1.5-.21,2-.83,1.21-1.77,2.94-2.91,3.16-1.14.22-3.17-.8-3.79-1.87-1.56-2.7-2.49-5.75-3.78-8.62-.93-2.07-1.88-4.16-3.12-6.04-.88-1.32-2.14-2.49-3.46-3.39-2.31-1.57-3.28-3.48-2.38-5.43.94-2.02,3.34-2.9,5.86-1.88,1.43.58,2.81,1.44,3.99,2.44,6.06,5.1,9.36,11.62,9.79,19.62Z" style="fill: #000; stroke-width: 0px;"/>
  <path d="M341.69,836.83c.57-8.04,4.27-15.12,11.41-20.22,1.33-.95,3.26-1.56,4.86-1.47,1.18.07,2.84,1.32,3.25,2.43.4,1.09-.06,3.42-.89,3.91-6.22,3.64-7.54,10.23-10.14,16.05-.25.56-.42,1.15-.68,1.71-.95,2.07-2.09,4.12-4.82,3.49-2.67-.62-2.97-2.9-2.98-5.91Z" style="fill: #000; stroke-width: 0px;"/>
  <path d="M484.09,451.36c.28-2.08.41-4.19.87-6.22,1.38-6.14,2.86-12.25,4.37-18.36.77-3.14,1.55-6.3,2.59-9.36.49-1.43,1.52-2.72,2.51-3.91.48-.58,1.78-1.25,2.1-1.03.75.54,1.56,1.58,1.58,2.43.03,1.9-.19,3.86-.69,5.7-1.61,6-3.09,12.06-5.21,17.88-1.57,4.31-4.05,8.28-6.16,12.38-.17.33-.64.51-.97.76-.33-.09-.66-.18-1-.27Z" style="fill: #000; stroke-width: 0px;"/>
  <path d="M90,451.79c-.84-.99-1.83-1.89-2.49-2.99-4.15-6.99-6.52-14.66-8.34-22.51-.81-3.47-1.56-6.97-2.06-10.49-.14-.98.76-2.1,1.18-3.15,1.05.6,2.33,1,3.08,1.86.95,1.08,1.79,2.47,2.13,3.86,2.45,9.92,4.77,19.88,7.1,29.83.23.98.22,2.02.32,3.03l-.93.56Z" style="fill: #000; stroke-width: 0px;"/>
  <path d="M287.58,34.15c-1.85-.39-3.81-.52-5.52-1.24-1.99-.83-2.33-2.5-1.52-4.61.48-1.24.16-2.77.42-4.13.21-1.1.46-2.44,1.2-3.14,2.83-2.7,8.55-2.48,11.32.32.54.54.85,1.48.93,2.27.17,1.76-.05,3.57.2,5.31.35,2.42-.85,4.4-3.3,4.76-1.21.18-2.45.13-3.67.18-.02.09-.04.18-.07.28Z" style="fill: #000; stroke-width: 0px;"/>
  <path d="M430.1,843.79c.34,2.5.59,5.01,1.06,7.49.35,1.83.18,3.37-1.61,4.23-1.73.83-3.08-.07-4.07-1.43-3.5-4.78-4.42-10.18-3.46-15.92.35-2.08,1.74-3.46,3.98-3.51,2.41-.05,3.72,1.5,4.14,3.63.35,1.78.23,3.64.32,5.47-.12.01-.24.03-.35.04Z" style="fill: #000; stroke-width: 0px;"/>
  <path d="M153.27,841.99c.09,4.24-1.03,8.12-3.46,11.6-1.12,1.61-2.51,2.87-4.61,1.82-1.97-.99-1.59-2.75-1.37-4.58.38-3.1.61-6.23.67-9.35.08-4.36,1.58-6.86,4.4-6.84,2.87.01,4.36,2.34,4.36,6.83,0,.17,0,.35,0,.52Z" style="fill: #000; stroke-width: 0px;"/>
  <path d="M230.75,417.35c-.67-.35-1.51-.52-1.62-.91-.17-.55.04-1.36.38-1.88.41-.64,1.06-1.18,1.71-1.59,7.13-4.57,14.27-9.13,21.44-13.64,1.84-1.16,3.71-2.36,5.72-3.11.88-.33,2.16.41,3.25.66-.36.88-.46,2.1-1.11,2.58-1.96,1.43-4.16,2.54-6.22,3.84-6.66,4.16-13.28,8.38-19.96,12.51-1.08.67-2.36,1.03-3.58,1.55Z" style="fill: #000; stroke-width: 0px;"/>
  <path d="M344.24,417.42c-1.15-.53-2.23-.9-3.17-1.49-6.38-3.98-12.7-8.05-19.09-12.01-2-1.24-4.27-2.09-6.17-3.46-1.04-.75-1.56-2.2-2.32-3.34,1.35-.19,2.7-.49,4.06-.51.64-.01,1.34.41,1.92.77,7.83,4.95,15.65,9.92,23.45,14.93.94.61,1.79,1.41,2.53,2.26.35.39.64,1.23.45,1.62-.25.51-1,.78-1.65,1.23Z" style="fill: #000; stroke-width: 0px;"/>
  <path d="M208.83,675.53c-.04.38,0,.75-.11,1.07-1.26,3.91-4.19,6.63-7.16,9.08-1.84,1.52-5.12.05-6.25-2.1-1.2-2.27-.31-4.54,2.13-6.19.78-.53,1.61-1.66,1.63-2.53.09-3.95.82-5.42,3.32-5.72,2.85-.34,5.66,1.96,6.28,5.13.08.43.12.86.17,1.26Z" style="fill: #000; stroke-width: 0px;"/>
  <path d="M365.75,675.77c.46-3.14,2.2-5.61,4.81-6.43,3.18-1,5.99,1.26,5.41,4.52-.31,1.77-.25,2.98,1.7,3.74,1.92.74,2.8,2.42,2.51,4.45-.32,2.23-1.8,3.54-3.99,3.98-2.1.42-3.75-.31-5.05-2-1.04-1.35-2.29-2.54-3.22-3.95-.88-1.33-1.46-2.85-2.17-4.29Z" style="fill: #000; stroke-width: 0px;"/>
  <path d="M313.9,31.18c9.72,1.07,18.93,1.98,27.04,7.23,1.24.8,3.2.51,4.83.66,1.96.18,4.02.3,4.71,2.56.3.96.28,2.87-.14,3.04-1.05.44-2.65.56-3.58.02-1.47-.84-2.52-2.39-3.86-3.52-.77-.65-1.74-1.47-2.64-1.49-8.86-.25-17.09-3.43-25.58-5.41-.85-.2-1.51-1.16-2.26-1.76.57-.51,1.15-1.02,1.48-1.32Z" style="fill: #000; stroke-width: 0px;"/>
  <path d="M260.51,31.11c.51.31,1.4.86,2.28,1.4-.81.6-1.54,1.5-2.45,1.74-6.41,1.66-12.86,3.17-19.3,4.73-.25.06-.5.21-.75.21-4.62,0-8.62,1.19-11.58,5.15-.92,1.23-2.78,1.73-4.08.04-.98-1.27-.24-3.74,1.48-4.44,1.41-.57,3.06-.51,4.56-.9,1.72-.44,3.57-.77,5.05-1.67,5.07-3.08,10.78-3.92,16.4-5.05,2.56-.52,5.18-.76,8.38-1.22Z" style="fill: #000; stroke-width: 0px;"/>
  <path d="M302.54,762.02c1.26.93,3.11,1.61,3.6,2.84.54,1.37.46,3.94-.44,4.74-2.77,2.45-5.94,4.57-9.22,6.3-2.09,1.1-4.3-.67-4.42-2.98-.2-3.72,6.31-10.42,10.48-10.91Z" style="fill: #000; stroke-width: 0px;"/>
  <path d="M272.34,762.17c1.64.5,2.84.51,3.41,1.11,2.37,2.5,4.75,5.05,6.68,7.89.57.84.15,3.15-.65,3.93-.8.78-2.95,1.1-3.97.57-2.85-1.47-5.53-3.33-8.04-5.33-1.58-1.26-2.32-3.41-1.15-5.2.88-1.35,2.62-2.13,3.72-2.97Z" style="fill: #000; stroke-width: 0px;"/>
  <path d="M311.67,671.13c1.32-1.78,2.04-3.66,3.36-4.27,1.44-.67,3.69-.72,5.13-.04,2.95,1.38,4.24,4.4,4.81,7.44.2,1.05-.7,2.91-1.64,3.43-2.08,1.17-4.76,2.55-6.83.54-1.91-1.85-3.08-4.46-4.82-7.1Z" style="fill: #000; stroke-width: 0px;"/>
  <path d="M262.48,670.91c.04,5.86-5.44,9.68-10.38,7.02-1.09-.59-2.27-2.53-2.1-3.65.47-3.03,1.93-5.82,4.71-7.51,3.45-2.11,7.75.23,7.77,4.14Z" style="fill: #000; stroke-width: 0px;"/>
  <path d="M435.74,76.19c-.06-2.92.95-3.86,2.95-3.19,1.8.61,3.9,1.24,5.09,2.56,2.96,3.28,5.55,6.91,8.11,10.53.41.59-.13,1.85-.24,2.8-.91-.22-2.02-.19-2.68-.71-3.82-3.03-7.58-6.14-11.25-9.34-.98-.86-1.6-2.13-1.98-2.65Z" style="fill: #000; stroke-width: 0px;"/>
  <path d="M345.17,585.38c-.05,2.84-1.98,4.61-4.96,4.55-4.54-.09-7.1-2.26-7.02-5.97.07-3.1,2.55-5.46,5.62-5.33,3.5.15,6.42,3.25,6.35,6.75Z" style="fill: #000; stroke-width: 0px;"/>
  <path d="M234.51,589.92c-2.96-.04-4.81-1.91-4.73-4.77.1-3.49,3.16-6.51,6.63-6.52,3.1-.01,5.4,2.38,5.35,5.56-.06,3.69-2.71,5.79-7.25,5.73Z" style="fill: #000; stroke-width: 0px;"/>
  <path d="M122.67,87.05c.29-.87.34-1.68.76-2.15,3.18-3.54,6.42-7.02,9.69-10.48.46-.49,1.16-.8,1.8-1.04,1.48-.56,3.38-1.35,4.11.53.43,1.12-.13,3.18-1,4.1-1.58,1.67-3.82,2.7-5.62,4.19-2.27,1.9-4.34,4.04-6.57,5.97-.52.45-1.5.84-2.04.64-.54-.21-.79-1.18-1.14-1.77Z" style="fill: #000; stroke-width: 0px;"/>
  <path d="M288.2,571.15c1.6.87,3.74,1.55,5.15,2.97.83.83,1.1,3.13.53,4.2-.57,1.08-2.41,1.74-3.82,2.06-1.39.32-2.95-.2-4.4-.03-2.25.27-4.11-.12-4.93-2.41-.8-2.24.26-4.06,2.13-5.13,1.38-.79,3.09-1,5.33-1.67Z" style="fill: #000; stroke-width: 0px;"/>
  <path d="M404.09,345.82c.27-.37.86-1.17,1.45-1.97.89,1.25,2.1,2.4,2.54,3.8.19.6-1.22,2.43-1.89,2.43-2.21-.02-1.93-1.99-2.1-4.25Z" style="fill: #000; stroke-width: 0px;"/>
  <path d="M171.73,346.29c-1.1,1.46-2.01,2.67-2.92,3.87-.61-.83-1.9-1.91-1.71-2.45.5-1.38,1.66-2.53,2.56-3.77.56.64,1.13,1.29,2.06,2.35Z" style="fill: #000; stroke-width: 0px;"/>
  <path d="M94.97,459.42c1.22,1.5,2.49,2.97,3.6,4.54.24.34.06,1.44-.22,1.58-.52.25-1.52.3-1.85-.04-1.52-1.54-2.42-3.41-2.46-5.56.31-.18.62-.35.93-.53Z" style="fill: #000; stroke-width: 0px;"/>
  <path d="M481.69,459.77c-1.14,1.92-2.26,3.85-3.47,5.73-.1.16-1,.09-1.13-.12-.29-.47-.64-1.3-.43-1.61,1.17-1.68,2.51-3.25,3.79-4.85.41.28.82.57,1.23.85Z" style="fill: #000; stroke-width: 0px;"/>
</svg>