<?xml version="1.0" encoding="UTF-8"?>
<svg id="Layer_1" data-name="Layer 1" xmlns="http://www.w3.org/2000/svg" viewBox="0 0 618.16 900">
  <path d="M255.45,53.23c0-6.33-.37-12.7.09-19,.67-9.27,3.97-17.79,9.15-25.49,1.57-2.34,3.58-4.5,5.74-6.32,4.86-4.08,10.92-2.89,13.99,2.66,1.01,1.83,1.57,3.93,2.2,5.94,1.86,5.95,8.48,9.7,14.71,9.07,5.12-.51,10.37-.5,15.49.02,6.21.63,12.91-3.1,14.76-9.02.47-1.52.84-3.08,1.45-4.54,2.92-6.98,9.78-8.63,15.46-3.62,6.8,5.99,10.16,14,12.61,22.44,2.44,8.38,2.33,16.98,1.72,25.59-.06.81,0,1.62.72,3.07,1.74-1.66,3.84-3.07,5.14-5.03,4.8-7.21,5.61-15.16,3.59-23.48-.32-1.33-.84-2.66-.94-4.01-.35-5.12,3.83-8.78,8.82-7.58,1.8.43,3.4,1.65,5.13,2.42,7.42,3.32,14.8,6.77,22.34,9.81,2.48,1,5.4,1.15,8.13,1.29,11.21.58,17.07-4.18,19-15.23.25-1.46.39-2.95.67-4.4,1.52-7.71,7.94-10.07,13.88-4.94,3.6,3.11,7.31,6.25,10.27,9.94,5.83,7.26,11.48,14.72,16.66,22.45,8.15,12.16,11.39,25.66,9.64,40.3-.49,4.05.24,4.53,4.12,3.2,5.09-1.75,8.67-5.26,9.87-10.4,1.03-4.38,1.1-8.99,1.48-13.51.37-4.43,1.93-8.14,6.31-9.85,4.37-1.7,8.09-.14,11.29,2.98.38.37.74.76,1.11,1.14,7.08,7.42,15.69,12.19,25.53,14.82,1.02.27,2.07.47,3.12.64,10.05,1.56,16.44-1.79,20.27-11.19,1.71-4.19,2.55-8.74,3.9-13.09.62-2,1.17-4.16,2.33-5.84,2.89-4.2,8.11-3.91,10.72.49,6.11,10.3,12.3,20.57,18.16,31.01,5.73,10.21,10.5,20.85,12.84,32.43,5.02,24.88-5.27,45.19-28.55,55.5-7.34,3.25-15.14,5.48-22.74,8.14-3.2,1.12-6.45,2.13-9.65,3.25-7.54,2.65-11.37,8.05-11.05,15.98.27,6.77.78,13.55,1.7,20.26,2.62,19.23,6.08,38.37,8.12,57.66,2.62,24.8.93,49.41-6.9,73.31-10.63,32.46-31.26,56.9-60.12,74.74-16.35,10.1-34.18,16.93-51.98,23.85-5.92,2.3-11.82,4.79-17.4,7.79-8.94,4.8-11.87,10.45-9.29,20.28,2.49,9.49,5.97,18.79,9.81,27.84,8.15,19.24,17.29,38.06,25.14,57.42,8.85,21.81,13.82,44.54,12.75,68.32-.86,19.36-5.97,37.7-13.52,55.36-6.54,15.31-13.62,30.4-20.69,45.48-12.56,26.77-22.3,54.58-31.23,82.71-5.65,17.8-11.66,35.47-20.46,52.06-9.55,17.99-22.9,32.25-40.68,42.29-3.88,2.19-7.7,4.48-11.6,6.64-5.54,3.07-11.42,3.82-17.09.88-12.44-6.46-24.57-13.43-34.69-23.39-12.9-12.7-21.53-28.15-27.78-44.85-7.02-18.77-13.29-37.83-19.56-56.87-9.15-27.78-21.34-54.26-33.52-80.79-6.72-14.63-12.99-29.56-18.05-44.82-9.63-29.07-7.97-58.31.98-87.36,6.52-21.17,16.07-41.07,25.22-61.15,4.66-10.22,8.94-20.63,13.02-31.1,1.48-3.8,2.13-7.99,2.71-12.06.97-6.8-1.62-12.38-7.66-15.49-7.99-4.11-16.22-7.84-24.59-11.11-16.92-6.62-33.71-13.43-49.08-23.28-37.8-24.2-59.02-58.79-64.5-103.19-2.82-22.84-1.07-45.54,2.32-68.18,2.28-15.21,4.73-30.4,6.82-45.63.51-3.73.18-7.63-.18-11.41-.49-5.02-3.23-8.8-7.85-10.8-4.17-1.81-8.53-3.18-12.82-4.71-7.39-2.63-15.03-4.7-22.13-7.95C5.11,142.6-4.84,120.99,2.21,94.32c3.68-13.9,10.45-26.39,17.7-38.65,4.04-6.85,8.13-13.66,12.19-20.5,2.82-4.75,8.43-4.9,11.31-.16.97,1.59,1.41,3.52,1.96,5.33,1.24,4.16,2.08,8.47,3.65,12.5,3.83,9.84,10.46,13.55,20.86,11.67,10.74-1.94,20.02-6.94,27.66-14.71,3.8-3.87,7.71-7.04,13.36-4.64,5.5,2.33,5.76,7.34,6.12,12.55.32,4.67,1.27,9.43,2.84,13.83,1.55,4.33,5.55,6.51,9.96,7.68,1.9.51,3.02-.1,2.7-2.16-3.36-21.54,5.76-38.98,18.51-54.99,5.39-6.77,11.45-13.08,17.77-19.01,5.98-5.61,12.61-2.9,14.08,5.21.49,2.71.87,5.46,1.62,8.1,1.8,6.4,6.13,10.32,12.73,10.71,4.69.27,9.74.26,14.1-1.21,7.38-2.48,14.34-6.21,21.46-9.42.48-.22.88-.59,1.33-.86,3.82-2.37,7.48-2.53,10.1-.45,2.7,2.14,3.21,5.41,1.89,9.9-2.39,8.15-1.44,16.01,2.95,23.27,1.33,2.19,3.55,3.85,5.36,5.75.35-.28.69-.56,1.04-.83ZM420.14,546.19c.23-.11.47-.23.7-.34-.35-1.04-.63-2.1-1.06-3.1-6.28-14.85-12.58-29.69-18.86-44.54-4.91-11.63-9.82-23.27-12.03-35.81-2.12-12.06-.43-23.17,7.67-32.94,1.77-2.13,2.98-5.13,3.41-7.9,1.74-11,3.03-22.07,4.6-33.09.36-2.5.93-5.04,1.85-7.39,1.91-4.9,7.44-5.8,10.62-1.6,1.4,1.85,2.26,4.35,2.66,6.67,1.38,8.11.11,16.05-2.18,23.88-.42,1.44-.68,2.92-1.07,4.57,6.68-.85,9.77-3.38,10.78-9.02,2.31-12.84,4.35-25.73,6.69-38.56.62-3.4,1.37-6.98,3.03-9.93,2.89-5.15,9.56-4.71,11.76.75,1.28,3.15,1.77,6.78,1.87,10.21.3,9.92-1.2,19.67-3.68,29.27-.32,1.24-.37,2.54-.7,4.91,5.18-2.46,9.39-4.61,13.71-6.47,2.9-1.25,4.1-3.3,4.47-6.33,1.87-15.52,2.65-31.07,1.75-46.69-.2-3.49-.66-6.97-.96-10.46-.32-3.81,1.12-6.4,3.9-7.12,2.83-.73,5.54.64,7.08,4.03,1.13,2.49,2.06,5.14,2.64,7.81,3.09,14.28,3.27,28.62.52,42.98-.23,1.22-.19,2.5-.27,3.75l.98.5c4.9-4,9.96-7.83,14.63-12.08,1.47-1.34,2.64-3.79,2.7-5.77.46-17.23-.3-34.37-5.21-51.08-.56-1.91-.93-3.93-1.04-5.92-.16-2.9,1.16-5.16,3.86-6.38,2.62-1.19,5.21-.62,7.04,1.35,1.76,1.89,3.31,4.18,4.3,6.56,4.48,10.82,5.96,22.28,6.87,33.85.1,1.25.45,2.48.69,3.72.29.04.59.09.88.13.76-1.09,1.66-2.1,2.25-3.27,3.02-6.08,6.22-12.08,8.79-18.34,1.11-2.7,1.48-6.05,1.09-8.96-1.58-11.8-4.23-23.38-8.66-34.49-.9-2.27-1.82-4.54-2.54-6.86-1.23-3.98-.28-7.09,2.48-8.73,2.8-1.67,6.56-1.1,9.13,2.03,2.12,2.59,3.62,5.68,5.37,8.57.56.93,1.04,1.92,1.88,3.49.47-1.3.8-1.84.85-2.4,1.85-18.58-.15-36.24-12.26-51.51-1.58-1.99-2.98-4.12-4.42-6.23-.59-.87-1.17-1.78-1.56-2.76-1-2.51-.64-4.83,1.44-6.67,1.98-1.76,4.32-1.81,6.54-.67,1.48.76,2.71,2.01,4.06,3.01.6.45,1.24.84,2.5,1.68-.52-4.9-1.11-8.97-1.33-13.07-.22-4.08-1.64-7.56-3.92-10.89-2.87-4.2-5.57-8.53-8.14-12.92-1.6-2.74-.98-5.66,1.1-7.18,2.18-1.59,5.13-1.04,7.38,1.39.82.89,1.59,1.81,2.38,2.71l1.04-.11c.93-5.25,2.47-10.48,2.62-15.75.18-6-.87-12.04-1.42-18.05-.33-3.59,1.17-6.37,3.93-7.15,2.88-.81,5.9.49,7.11,3.86,1.17,3.24,1.55,6.76,2.24,10.17.23,1.17.32,2.37.52,3.94,2.42-1.06,4.29-2.06,6.28-2.69,2.55-.82,3.8-2.44,4.15-5.03.55-4.09,1.51-8.15,1.79-12.26.32-4.64.06-9.32.1-13.98.03-3.46,1.85-5.95,4.59-6.41,2.89-.49,5.5,1.02,6.68,4.19.66,1.76,1.08,3.68,1.25,5.56.6,6.57-.73,12.87-3.03,19.01-.37.99-.62,2.03-.93,3.05.24.23.47.46.71.69,5.13-2.22,10.37-4.21,15.32-6.77,1.58-.82,3.13-3.03,3.4-4.8.65-4.27,1.06-8.71.6-12.98-.79-7.35-2.2-14.64-3.6-21.91-.73-3.81-.04-6.62,2.67-8.04,2.71-1.43,6.21-.47,8.33,2.6,1.12,1.63,2.18,3.51,2.54,5.42,1.2,6.34,2.08,12.74,3.07,19.12.17,1.08.22,2.18.33,3.27.28.05.56.1.84.15.55-1.29,1.21-2.54,1.63-3.87,2.66-8.52,1.71-17.01-.5-25.43-3.18-12.1-8.7-23.21-14.51-34.2-.33-.63-.6-1.29-.9-1.94l-1.03.6c-.36,1.07-.71,2.14-1.08,3.21-5.5,16.03-17.52,24.01-34.4,22.65-9.73-.78-18.48-4.49-26.79-9.39-3.34-1.97-3.57-1.87-4.91,1.74-4.87,13.12-14.26,20.73-28.04,22.94-6.82,1.09-13.62.59-20.14-1.49-5.43-1.73-10.67-4.09-15.87-6.43-2.38-1.07-3.36-.72-3.42,1.9-.01.63-.11,1.27-.19,1.9-2.46,19.81-16.33,33.79-35.35,35.48-8.43.75-16.44-1.21-24.21-4.34-4.25-1.71-4-1.67-4.54,2.99-.48,4.17-1.03,8.53-2.65,12.34-5.41,12.68-15.94,18.38-29.14,19.22-15.58.99-29.73-3.67-42.63-12.29-1.47-.98-2.54-1.85-4.44-.45-9.7,7.16-20.76,11.15-32.64,12.4-5.51.58-11.32.44-16.74-.63-15.66-3.1-25.16-15.02-25.69-31.2-.13-4.03-.14-3.91-4.01-2.6-4.41,1.5-8.84,3.17-13.4,3.92-15.84,2.62-29.21-1.78-38.98-15.03-4.64-6.3-6.87-13.58-7.77-21.29-.41-3.53-.68-3.65-3.9-1.94-7.66,4.07-15.72,6.92-24.4,7.78-18.22,1.8-33.65-6.72-39.29-23.83-.86-2.59-2.08-2.73-4.23-1.42-7.4,4.5-15.26,7.87-23.86,9.33-18.15,3.1-32.08-5.18-37.98-22.58-.35-1.03-.78-2.05-1.27-3.35-.69.6-1.11.8-1.28,1.13-7.38,13.78-14.39,27.71-16.58,43.47-.83,5.96-.56,11.86,1.46,17.6.36,1.02.89,1.97,1.34,2.96.28-.05.55-.11.83-.16.21-2.58.15-5.21.68-7.72,1.33-6.29,2.48-12.68,4.56-18.73,1.36-3.96,5.55-5.31,8.58-3.99,3.06,1.34,4.13,4.5,2.86,8.74-2.71,9.03-3.39,18.27-3.61,27.66-.18,7.49,2.36,12.34,9.84,14.37,3.39.92,6.61,2.45,10.79,4.04-.73-2.14-1.23-3.18-1.43-4.28-1.05-5.7-2.29-11.39-2.9-17.14-.25-2.4.61-5.05,1.47-7.39,1.1-2.99,3.89-4.41,6.59-3.74,3,.74,4.26,2.96,4.41,5.88.07,1.37-.18,2.76-.08,4.13.5,6.97.82,13.96,1.69,20.88.67,5.3,5.1,8.57,11.08,8.75.08-1.44-.04-2.94.27-4.35.76-3.38,1.41-6.85,2.71-10.03,1.05-2.57,3.59-3.59,6.4-2.91,2.92.71,4,2.92,4.11,5.72.03.84-.11,1.69-.18,2.53-.48,6.02-1.5,12.07-1.27,18.06.19,4.91,1.86,9.77,3.03,15.38,1.22-1.3,1.73-1.8,2.19-2.35,2.68-3.28,5.71-4.16,8.18-2.34,2.39,1.75,2.63,4.77.49,8.29-2.26,3.72-4.39,7.55-7.02,10.99-5.49,7.16-4.39,15.63-5.2,23.73,0,.09.32.22.66.45.58-.5,1.23-1.01,1.83-1.57,3.81-3.53,7.5-4.22,10.17-1.89,2.65,2.31,2.19,5.75-.7,10.3-4.53,7.15-8.99,14.38-12.97,21.84-1.69,3.18-2.73,7.01-2.94,10.61-.45,7.5-.18,15.05-.16,22.58,0,1.06.3,2.12.46,3.17.29.04.58.08.88.12.65-1.26,1.18-2.6,1.96-3.77,1.92-2.89,3.66-5.97,6.01-8.47,2.12-2.25,5.2-2.52,7.94-.85,2.79,1.7,3.44,4.47,2.7,7.52-.42,1.74-1,3.47-1.69,5.13-4.81,11.53-7.79,23.57-9.64,35.87-.43,2.85-.57,6.18.49,8.73,3.06,7.32,6.78,14.36,10.3,21.48.33.66,1.01,1.15,2.11,2.36.34-2.33.51-3.85.78-5.35,1.77-9.79,3.37-19.61,5.45-29.33.65-3.01,2.33-5.94,4.08-8.54,2.17-3.23,5.45-4.13,8.3-2.98,2.94,1.19,4.39,3.93,4.05,7.86-.1,1.16-.3,2.32-.64,3.43-5.08,16.77-5.91,34.01-5.62,51.36.03,1.73.3,4.09,1.41,5.05,5.19,4.47,10.71,8.56,16.12,12.76.08.06.37-.14.9-.36-.15-1.22-.24-2.56-.47-3.87-2.6-14.6-2.45-29.15,1.03-43.59.68-2.84,1.92-5.62,3.38-8.16,1.27-2.2,3.63-2.9,6.14-2.12,2.41.75,3.58,2.64,3.66,5.06.07,1.79-.18,3.6-.35,5.39-1.77,18.15-.88,36.24,1.26,54.3.3,2.56,1.46,4.27,3.85,5.35,3.58,1.61,7.04,3.47,10.61,5.11.98.45,2.16.47,3.24.69-.02-1.1.19-2.27-.08-3.3-2.6-10.02-4.1-20.17-3.81-30.53.07-2.32.29-4.67.77-6.94.9-4.2,3.33-6.55,6.59-6.75,3.4-.21,6.22,1.9,7.64,6.01.69,1.99,1.11,4.09,1.48,6.18,2.3,13.27,4.49,26.57,6.84,39.83.98,5.52,4.28,8.18,10.7,8.84-.24-1.2-.35-2.3-.67-3.33-2.39-7.68-3.64-15.53-2.7-23.54.31-2.66,1.09-5.52,2.5-7.74,2.89-4.54,8.71-3.87,10.88,1.07.8,1.82,1.32,3.83,1.6,5.81,1.65,11.66,3.11,23.34,4.84,34.98.34,2.31,1.01,5.02,2.51,6.63,8.33,8.97,11.1,19.66,8.96,31.25-1.7,9.22-4.3,18.41-7.69,27.15-6.13,15.82-13.16,31.28-19.77,46.92-1.59,3.76-2.99,7.59-4.48,11.39l.8.43c1.01-1.54,2.06-3.06,3.03-4.62,8.3-13.46,16.79-26.8,27.27-38.71,1.67-1.9,3.54-3.68,5.51-5.27,3.42-2.77,6.75-2.8,9.15-.33,2.29,2.35,2.15,5.58-.45,8.92-1.04,1.34-2.22,2.57-3.29,3.89-14.85,18.35-28.97,37.23-37.88,59.32-4.56,11.3-7.42,23.32-12.43,34.39-4.6,10.17-3.94,19.86-1.26,29.97.81,3.08,1.61,6.16,2.48,9.22.2.7.69,1.32,1.05,1.97.98-1.65,1.17-3.18,1.47-4.68,1.82-9.03,3.5-18.09,5.62-27.04.64-2.68,2.31-5.24,3.97-7.51,1.6-2.19,4.14-2.95,6.86-2.15,2.77.82,4.12,2.96,4.43,5.66.21,1.77.23,3.64-.12,5.38-4.75,23.32-5.28,46.98-5.8,70.64-.03,1.53.26,3.18.84,4.59,4.97,12.06,10.05,24.08,15.1,36.11.31.74.74,1.43,1.12,2.14.77-1.48.94-2.89,1-4.3.28-7.41.4-14.84.86-22.24.24-3.86,2.38-6.03,5.23-6.19,2.93-.17,5.37,2.01,5.91,5.92.5,3.66.72,7.4.67,11.1-.35,23.98,2.45,47.62,6.86,71.15,3.67,19.6,9.94,38.14,20.11,55.32.6,1.01,1.28,1.98,1.92,2.97.24-.12.49-.24.73-.36-.23-1.11-.47-2.21-.7-3.32-2.46-12.16-5.41-24.25-7.23-36.5-1.57-10.56-2.06-21.31-2.63-31.99-.25-4.83,2.09-7.52,5.39-7.71,3.36-.19,5.5,2.06,6.52,6.88.15.73.28,1.46.42,2.19,1.22,6.79,2.26,13.61,3.67,20.36,5.76,27.48,9.58,55.44,20.41,81.69,1.63,3.96,4.16,6.52,7.31,9.19,5.3,4.5,9.83,4.71,14.96-.06,2.3-2.14,5.25-3.48,6.39-6.8,1.63-4.71,3.95-9.22,5.19-14.02,4.23-16.42,8.43-32.87,12.05-49.43,3.2-14.61,5.56-29.39,8.4-44.08.79-4.11,3.13-6.12,6.29-5.92,3.11.2,5.2,2.6,5.39,6.75.17,3.59.1,7.22-.13,10.81-1.29,19.75-4.61,39.18-9.6,58.33-.3,1.14-.51,2.31-.76,3.47.36.22.71.44,1.07.66.2-.49.38-.99.62-1.46,4.35-8.84,9.56-17.37,12.89-26.58,8.59-23.7,12.02-48.55,14.05-73.55.92-11.3.66-22.69,1.09-34.03.1-2.61.33-5.45,1.47-7.7.77-1.52,3.26-3.09,4.9-3.01,1.63.09,3.69,1.91,4.59,3.52.97,1.73,1.04,4.09,1.12,6.19.26,6.46.31,12.94.49,19.4.03,1.15.26,2.29.51,4.32.81-1.31,1.15-1.72,1.34-2.18,5.22-12.42,10.44-24.84,15.61-37.28.43-1.04.66-2.26.63-3.39-.66-23.86-.87-47.75-5.76-71.28-.42-2.03-.49-4.28-.08-6.29,1.12-5.43,6.77-7.2,10.67-3.28,1.73,1.74,3.04,4.1,3.96,6.41,3.83,9.66,5.28,19.85,6.35,30.11.12,1.19.41,2.36.76,4.33.79-1.24,1.28-1.69,1.4-2.23,1.87-8.81,3.73-17.62,5.49-26.45.19-.97-.07-2.12-.41-3.09-2.23-6.29-4.7-12.51-6.8-18.84-4.98-15.01-9.84-30.06-17.91-43.8-9.43-16.05-20.25-31.1-32.37-45.23-2.93-3.42-3.07-7.08-.65-9.45,2.36-2.31,5.87-2.26,9.18.64,3.01,2.65,6.1,5.4,8.39,8.65,8.56,12.12,16.8,24.47,25.16,36.73.87,1.27,1.73,2.54,2.59,3.82ZM231.19,34.82c-1.52.65-2.48,1.02-3.4,1.47-7.17,3.59-14.63,6.24-22.65,7.08-13.24,1.39-28.18-3.38-33.83-18.98-.23-.65-.75-1.2-1.34-2.11-.86.81-1.64,1.34-2.15,2.07-4.24,5.96-8.57,11.86-12.6,17.95-6.64,10.02-7.93,21.31-7.22,32.98.05.76.74,2.15.88,2.12,2.24-.5,4.54-.97,6.58-1.97.66-.33.8-2.17.79-3.31-.03-3.17-.88-6.47-.27-9.48.95-4.7,2.42-9.41,4.48-13.73,1.52-3.19,5.29-3.91,7.98-2.6,2.65,1.29,3.93,4.12,3.07,7.6-.79,3.19-1.98,6.27-2.84,9.44-.48,1.76-.63,3.62-.99,5.84,1.81-.24,2.93-.41,4.06-.53,5.19-.54,9.23,2.14,10.46,7.2.49,2.04.43,4.2.71,6.3.57,4.3,1.14,8.6,1.84,12.88.16,1,.83,1.91,1.26,2.87.26-.08.53-.15.79-.23.07-1.13.02-2.28.22-3.38,1.28-7.07,2.23-14.22,4.05-21.15,1.21-4.62,5.27-6.58,9.04-5.55,3.59.98,5.55,4.43,5.05,9.15-.24,2.21-.88,4.38-1.08,6.59-.75,8.43-1.41,16.87-2.06,25.31-.26,3.31,1.52,4.8,4.64,4.38,4.91-.66,9.79-1.55,14.68-2.41,2.58-.46,2.92-1.77,2.23-4.34-.77-2.86-1.02-6.05-.64-8.99.36-2.82,2.59-4.54,5.66-4.65,3.06-.11,5.09,1.46,6.06,4.21.56,1.57.78,3.3.84,4.98.08,2.12.92,2.92,3.08,3.07,5.91.42,9.2,3.9,9.44,9.89.12,2.96-.45,6-.02,8.89.56,3.71,1.51,7.44,2.9,10.91.73,1.81,2.76,3.1,4.21,4.63.33-.22.65-.43.98-.65-.23-1.08-.55-2.15-.66-3.25-.37-3.89-1.1-7.8-.88-11.66.3-5.22,4.24-9.12,8.21-9.01,4.2.12,6.91,3.47,7.34,9.22.24,3.17.21,6.37.6,9.52,1.12,9.07,1.7,9.35,10.53,7.26,2.84-.67,3.17-1.83,2.38-4.48-.86-2.9-1.25-6.02-1.3-9.06-.06-3.67,2.44-6.44,5.47-6.81,3.08-.38,5.77,1.66,6.96,5.33.29.91.49,1.85.71,2.77q1.71,7.03,8.73,7.65c1.05.1,2.06.5,3.11.61,1.13.12,2.28.17,3.41.08,2.2-.18,4.41-.75,6.59-.64,2.5.13,3.73-.81,4.3-3.15.71-2.88,1.39-5.79,2.42-8.56,1.01-2.71,3.15-4.32,6.17-4.09,3.17.25,5.1,2.32,5.51,5.29.34,2.47.22,5.1-.22,7.56-1.27,7.07-1.37,7.05,5.98,8.33.42.07.84.13,1.25.22,2.05.42,3.36-.4,3.66-2.46.62-4.29,1.11-8.6,1.7-12.9.33-2.4.36-4.94,1.19-7.16,1.92-5.1,8.14-6.24,11.55-2,1.56,1.94,2.76,4.68,2.92,7.14.24,3.75-.55,7.56-.95,11.34-.1.98-.39,1.95-.6,2.92,1.55-.19,2.54-.72,3.3-1.48,3.46-3.41,4.69-7.75,4.81-12.44.09-3.39-.21-6.79-.06-10.18.23-5.03,3.1-9.08,7.51-9.29,4.37-.21,5.41-2.19,5.15-5.89-.01-.21.05-.42.09-.63.75-3.97,3.14-6.17,6.59-6.06,3.32.11,6.03,2.6,6.18,6.47.09,2.57-.52,5.24-1.25,7.75-.57,1.99-.25,3.16,1.75,3.54,4.97.95,9.94,2.14,14.96,2.59,4.21.38,4.7-.43,5-4.62.7-10.06-1.03-19.87-2.85-29.69-1.15-6.18.69-10.13,5-11.15,4.08-.97,8.11,1.64,9.51,7.35,1.59,6.44,2.29,13.11,3.34,19.69.17,1.07.17,2.17.25,3.26.28.05.56.1.85.14.42-1,1.08-1.96,1.23-2.99.71-5.02,1.47-10.05,1.88-15.11.7-8.6,4.21-11.76,12.72-10.89,1.78.18,2.49-.41,2.13-2.05-.59-2.69-1.36-5.34-2.05-8-.58-2.25-1.39-4.47-1.69-6.76-.33-2.51.84-4.57,3.12-5.79,2.33-1.24,4.73-.86,6.51.85,1.56,1.49,2.91,3.41,3.76,5.39,2.73,6.31,3.07,12.92,2.01,19.68-.16,1.03.29,2.86,1,3.2,2.03.97,4.33,1.4,6.55,1.93.13.03.73-1.02.74-1.57.17-8.6.49-17.2-3.05-25.37-4.31-9.94-10.55-18.61-17.41-26.89-.37-.44-.98-.68-1.62-1.1-.44.67-.89,1.13-1.1,1.69-6.19,17.01-22.26,20.64-34.63,19.13-7.68-.93-14.84-3.5-21.74-6.88-1.07-.53-2.22-.9-3.76-1.51-.14,1.79-.26,3.03-.33,4.27-.87,15.46-10.35,26.93-24.8,29.95-5.64,1.18-5.56,1.19-6.46,6.97-1.57,10.04-5.77,18.34-16.13,21.7-5.73,1.86-11.64,3.38-17.59,4.26-4.75.7-9.68.31-14.53.19-4.72-.12-9.47-.28-14.15-.88-3.34-.43-6.54-1.77-9.87-2.42-9.29-1.81-15.5-7.13-18.4-16.08-1.04-3.2-1.55-6.6-2.01-9.95-.27-1.99-.95-2.95-3.03-3.31-17.49-3.02-26.86-13.58-28.02-31.4-.06-.92-.2-1.83-.38-3.4ZM278.89,76.75c.43-.04.86-.08,1.29-.12-.09-1-.27-2-.25-3,.13-5.92.01-11.86.58-17.74.37-3.79,3.53-6.03,6.8-5.84,3.28.19,5.68,2.75,6.03,6.67.15,1.68-.15,3.39-.04,5.08.43,6.64.85,13.28,1.51,19.89.14,1.41,1.3,2.73,2,4.08.34-.14.68-.27,1.01-.41-.08-1.01-.23-2.01-.23-3.02-.01-2.01-.19-4.05.13-6.01.37-2.26,1.81-3.85,4.27-4.04,2.45-.19,4.13,1.11,4.89,3.28.66,1.88.86,3.92,1.3,5.88.18.82.42,1.63.64,2.44,1.12-2.46,1.47-4.86,2.04-7.2.63-2.59,2.11-4.5,5.04-4.38,3.12.12,4.38,2.29,4.74,5.05.19,1.45.04,2.96-.02,4.44-.05,1.19-.2,2.37-.3,3.55l1.12.38c.71-1.5,1.9-2.96,2.05-4.51.64-6.62.98-13.27,1.4-19.91.13-2-.13-4.07.26-6.01.59-2.94,2.38-4.97,5.59-5.22,3.16-.25,5.27,1.37,6.46,4.15.49,1.15.86,2.45.88,3.68.1,5.6.05,11.2.05,16.81,0,.73,0,1.45,0,2.18.4.02.8.04,1.2.07.32-3.18.83-6.36.92-9.55.15-5.29,1.51-9.6,7.18-11.43.79-.26,1.84-1.76,1.72-2.51-1.37-8.12-2.8-16.24-4.53-24.3-.63-2.94-1.51-2.93-3.83-.86-8.32,7.44-17.93,10.01-28.89,7.81-1.81-.36-3.82-.36-5.63,0-10.97,2.21-20.57-.45-28.9-7.83-2.35-2.08-3.11-2.1-3.77.93-1.74,8.05-3.19,16.17-4.59,24.29-.12.72.78,2.16,1.48,2.38,6.33,1.96,7.45,6.79,7.45,12.52,0,2.78.61,5.56.95,8.35Z" style="fill: #000; stroke-width: 0px;"/>
  <path d="M277.73,571.84c9.81-.74,19.6-1.78,29.42-2.12,5.78-.2,11.59.86,17.4,1.11,8.15.34,16.31.59,24.47.64,12.04.08,22.74,3.8,31.92,11.54,2.72,2.29,5.21,5.02,7.22,7.95,3.05,4.44,3.54,9.36,1.57,14.57-.67,1.77-.97,4.05-.47,5.83,3.9,13.9,2.88,27.35-2.1,40.87-6.34,17.21-12.14,34.62-20.23,51.14-5.87,11.98-12.79,23.21-22.34,32.65-5.11,5.05-11.25,8.24-18.27,9.75-5.07,1.09-9.82.44-14.51-1.91-1.44-.72-3.85-.8-5.23-.08-5.21,2.74-10.49,3.01-16.05,1.65-7.69-1.88-13.94-6.05-19.22-11.81-9.33-10.2-16.63-21.78-21.82-34.53-6.76-16.58-12.95-33.4-19.34-50.13-4.38-11.47-4.88-23.17-1.65-34.99.93-3.39.85-6.51-.37-9.91-2.08-5.83-.26-11.18,3.65-15.66,8.85-10.13,20.05-15.82,33.51-16.72,4.12-.27,8.27-.04,12.4-.04.01.06.02.12.04.18ZM361.65,625.13c-.98-3.62-1.98-7.18-2.89-10.77-1.63-6.4-6.29-10.34-12.86-10.77-2.54-.17-5.09-.23-7.62-.46-10.28-.95-19.8-3.77-27.23-11.45-1.67-1.73-2.82-1.02-4.22.36-5.53,5.46-12.22,8.79-19.84,10.01-4.91.78-9.88,1.23-14.85,1.5-3.75.21-6.59,1.67-9.2,4.31-3.16,3.19-3.16,7.52-4.77,11.25-2.21,5.13-1.24,9.71,1.27,14.27,1.18,2.14,2.29,4.32,3.6,6.36,6.14,9.58,10.09,20.03,12.72,31.04,1.46,6.08,3.01,12.14,4.7,18.16,2.01,7.14,6.24,12.89,11.55,17.97,5.05,4.83,11.8,4.01,17.82,5.61.44.12,1.01-.26,1.53-.37,1.96-.41,4.02-.57,5.88-1.27,3.1-1.18,6.52-2.15,8.99-4.19,5.73-4.75,9.68-10.93,11.71-18.18,1.25-4.49,2.48-9,3.51-13.54,2.92-13.03,7.31-25.45,14.62-36.74,1.71-2.65,2.98-5.61,4.28-8.51.64-1.43.88-3.03,1.31-4.6Z" style="fill: #000; stroke-width: 0px;"/>
  <path d="M288.06,498.99c.6-.37.9-.45.93-.59,2.14-9.9,7.22-19.08,7.11-29.55-.04-4.09,2.54-6.54,5.96-6.39,3.34.14,5.62,2.83,5.4,6.93-.54,9.85-1.27,19.69-1.91,29.53-.07,1.16-.45,2.58.06,3.44.81,1.38,2.21,3.27,3.41,3.3,1.18.03,2.89-1.79,3.46-3.17.6-1.44.19-3.34.07-5.03-.58-8.68-1.2-17.35-1.8-26.03-.07-.95-.11-1.91-.07-2.86.17-3.52,2.25-5.91,5.27-6.11,3.16-.21,5.64,2.04,6.1,5.65.49,3.78.48,7.68,1.43,11.33,1.69,6.52,3.93,12.89,6.57,19.47.28-1.01.64-2,.83-3.03.99-5.3,2.85-10.1,6.61-14.21,1.46-1.59,2.58-4.15,2.6-6.28.07-6.85,0-13.76-.86-20.54-.84-6.58-1.44-13.05-.25-19.61,1.06-5.82,3.53-10.86,7.95-14.87.39-.36.73-.78,1.16-1.09,8.57-6.02,10.04-14.41,7.25-23.7-2.03-6.76-4.36-13.59-7.68-19.78-6.37-11.89-14.1-22.93-23.62-32.61-.37-.38-.73-.77-1.04-1.2-2.59-3.47-2.8-7.98-.52-10.62,2.29-2.66,6.83-3.28,10.53-.86,2.43,1.59,4.67,3.72,6.46,6.02,5.49,7.01,10.81,14.17,16.05,21.37,9.12,12.53,14.7,26.44,16.18,41.95,1.15,12.08-2.09,22.31-12.41,29.47-3.73,2.59-4.41,5.59-3.75,10.07,1.42,9.73,2.42,19.57,2.69,29.39.13,4.72-1.56,9.55-2.86,14.21-.54,1.94-1.83,4.12-3.44,5.22-4.44,3.04-5.15,7.28-5.41,12.13-.57,10.63-3.37,20.71-8.63,30.02-1.51,2.67-3.23,5.25-5.13,7.65-2.43,3.07-5.74,4.39-9.63,3.35-3.67-.99-5.7-3.74-6.21-7.34-.69-4.82-1.07-9.69-1.44-14.55-.31-4.15-3.08-6.45-7.26-5.8-5.01.78-5.26,1.12-5.62,6.22-.31,4.34-.66,8.67-1.18,12.99-.5,4.05-2.26,7.4-6.54,8.5-4.5,1.16-7.83-.93-10.42-4.42-5.97-8.08-9.79-17.12-11.56-26.97-.85-4.68-.97-9.5-1.74-14.2-.29-1.74-1.06-3.86-2.34-4.9-5.51-4.48-7.84-10.43-8.65-17.16-1.22-10.11-.13-20.11,1.51-30.09,1.93-11.73,3.27-9.09-5.88-16.77-6.65-5.59-9.54-13.12-9.46-21.74.15-16.78,5.57-31.88,15.14-45.49,5.79-8.24,11.99-16.19,18.11-24.19,2.28-2.98,4.98-5.52,8.95-6.18,2.81-.47,5.32-.04,7.22,2.23,1.98,2.36,2.19,5.13.86,7.76-.98,1.94-2.39,3.73-3.86,5.36-11.06,12.31-20.76,25.57-26.82,41.05-2.28,5.82-3.11,12.27-4.13,18.51-.73,4.46,1.24,8.29,4.41,11.46.45.45.86.95,1.37,1.33,12.13,9.24,13.61,21.86,11.73,35.77-.93,6.89-1.22,13.89-1.49,20.85-.15,3.72,1.84,6.68,3.96,9.77,2.39,3.48,3.66,7.74,5.31,11.7.49,1.19.62,2.53.95,3.95Z" style="fill: #000; stroke-width: 0px;"/>
  <path d="M384.52,318.6c-5.37-.46-10.78-.7-16.11-1.46-5.32-.75-8.94-3.79-9.86-9.34-2.52-15.27-7.82-29.7-13.41-44.04-.85-2.17-1.68-4.36-2.33-6.59-1.63-5.61.58-10,6.18-11.66,3.33-.99,6.83-1.52,10.29-1.98,21-2.79,41.04-8.58,59.81-18.57,11.25-5.99,21.13-13.72,29.88-22.94,1.53-1.61,3.05-3.27,4.78-4.66,4.63-3.74,10.16-2.11,11.23,3.67,2.65,14.31,9.5,26.65,17.24,38.63,3.09,4.78,5.41,9.82,6.11,15.54,1.81,14.92-3.51,26.29-16.57,34-15.24,8.99-31.41,15.86-48.2,21.26-8.76,2.82-17.68,5.23-26.66,7.2-3.93.86-8.21.14-12.33.14-.01.27-.02.53-.04.8ZM456.22,218.39c-.79.33-1.16.38-1.35.58-7.93,8.22-16.98,15-26.84,20.7-1.64.95-1.77,2.11-.98,3.72,6.55,13.35,10.74,27.39,12.42,42.17.21,1.82,1.02,2.59,2.73,1.73,8.31-4.18,16.73-8.18,24.83-12.74,4.71-2.65,6.72-7.38,7.15-12.8.5-6.33-1.63-11.83-4.65-17.2-3.83-6.83-7.47-13.77-11.11-20.7-.87-1.65-1.41-3.48-2.19-5.46ZM379.2,304.68c1.8,0,3.6.01,5.4,0,1.94-.02,2.57-.74,2-2.8-3.74-13.45-7.39-26.92-10.99-40.41-.51-1.91-1.4-2.65-3.35-2.4-3.04.39-6.1.69-9.16.92-4.11.3-4.28.49-2.66,4.28,4.44,10.37,7.48,21.13,9.29,32.27,1.4,8.65-.59,7.84,9.48,8.14ZM426.38,287c-5.14,1.76-9.84,3.53-14.64,4.95-2.92.86-6.02,1.13-9.02,1.77-3.98.85-1.8,3.9-1.83,5.95-.04,2.42,1.9,1.72,3.28,1.28,6.54-2.11,13.08-4.22,19.58-6.47,4.95-1.71,4.97-1.92,3.06-6.74-.15-.38-.41-.72-.42-.73ZM416.77,254.99c-.56-2.24-1.02-3.97-1.41-5.71-.42-1.84-1.3-2.39-3.2-1.67-6.42,2.42-12.9,4.67-19.31,7.1-.82.31-1.97,1.37-1.92,2.01.09,1.29.74,2.65,1.53,3.7.21.28,1.9-.26,2.7-.76,6.01-3.79,12.35-5.93,19.55-4.44.54.11,1.14-.12,2.06-.23ZM412.72,266.46c.42,3.5.8,6.92,1.29,10.33.07.47.67,1.08,1.14,1.22,1.77.53,6.81-2.06,6.67-3.88-.22-2.79-1.54-5.5-2.44-8.22-.05-.15-.58-.22-.88-.19-1.96.23-3.92.49-5.79.74ZM401.18,268.74c-5.52.69-5.87,1.19-4.51,6.33.48,1.83.94,3.67,1.37,5.51.41,1.78,1.5,2.36,2.97,1.38,1.29-.86,4.34-.18,3.25-3.42-1.06-3.16-2-6.36-3.07-9.8Z" style="fill: #000; stroke-width: 0px;"/>
  <path d="M233.17,318.56c-10.38.21-20.17-2.65-29.91-5.45-19.65-5.64-38.58-13.11-56.17-23.62-18.64-11.13-22.89-30.69-11.54-49.33,5.11-8.39,9.55-17.23,13.85-26.08,1.73-3.55,2.4-7.65,3.34-11.55.7-2.89,1.49-5.69,4.58-6.76,3.16-1.09,5.84.25,8.09,2.42,3.13,3.02,6.1,6.2,9.27,9.17,19.95,18.67,44.27,28.32,70.53,33.81,5.91,1.24,11.93,1.97,17.89,2.95,1.57.26,3.15.51,4.69.89,6.94,1.73,9.56,6.39,7.27,13.18-1.53,4.52-3.55,8.88-4.93,13.44-3.54,11.65-7.16,23.3-10.14,35.1-1.53,6.05-4.6,9.74-10.69,10.51-5.35.68-10.75.9-16.13,1.32ZM162.38,218.16c-.53.85-.84,1.27-1.07,1.72-3.81,7.55-7.6,15.1-11.41,22.65-1.52,3.02-3.34,5.93-4.52,9.08-3.32,8.85-1.48,18.37,5.48,22.58,8.46,5.12,17.64,9.04,26.52,13.46.14.07.39-.1.76-.21.16-.49.44-1.06.51-1.66,1.79-14.86,5.94-29.02,12.54-42.45,1.03-2.1.12-2.96-1.49-4.06-6.03-4.1-12.08-8.2-17.9-12.59-3.26-2.45-6.08-5.48-9.42-8.54ZM239.07,304.81c1.8-.09,3.59-.24,5.39-.27,2.05-.03,3.03-1,3.29-3.04,1.72-13.3,5.09-26.16,10.53-38.45.91-2.05.28-2.91-1.92-3.04-3.27-.2-6.56-.4-9.79-.9-2.58-.4-3.46.52-4.07,2.99-2.92,11.69-5.88,23.38-9.22,34.96-2.28,7.93-2.57,7.85,5.79,7.75ZM192.21,286.14c-.52,1.07-.85,1.6-1.06,2.17-1.58,4.29-1.55,4.48,2.66,5.92,6.71,2.3,13.45,4.51,20.19,6.71,1.37.45,3.36,1.14,3.28-1.27-.06-2.01,2.33-5.14-1.76-5.94-7.97-1.54-16.17-2.27-23.32-7.59ZM202.04,255.44c7.62-1.82,14.48.06,20.87,4.19.82.53,2.57,1.16,2.7.97.78-1.2,1.56-2.6,1.63-3.97.03-.66-1.36-1.71-2.3-2.06-4.95-1.86-10.01-3.45-14.95-5.34-7.07-2.7-7.57-2.43-8.28,5.41,0,.09.07.19.33.8ZM205.62,265.86c-2.72,1.49-5.89-1.83-7.66,1.29-1.19,2.1-2.04,5.31-1.28,7.37.92,2.51,3.85,3.99,7.06,3.36.6-3.82,1.17-7.51,1.88-12.03ZM216.91,268.48c-1.19,4.15-2.26,7.87-3.41,11.91.95.43,2.01.84,3.01,1.38,2.34,1.28,3.47.52,3.94-2.01.4-2.18.95-4.36,1.66-6.47.77-2.27-.05-3.41-2.21-3.95-1.01-.25-1.99-.58-2.97-.86Z" style="fill: #000; stroke-width: 0px;"/>
  <path d="M323.37,653.6c-.55,10.9-1.09,21.8-1.68,32.7-.09,1.68-.26,3.42-.79,5-1.41,4.21-5.27,5.79-9.45,4.35-1.35-.47-3.12-.6-4.43-.14-5.08,1.78-9.3-.32-10.07-5.76-.68-4.81-.81-9.71-1.07-14.57-.92-17.57-1.8-35.14-2.69-52.71-.15-2.98-.71-6.81,2.57-7.82,3.41-1.04,7.41-.77,11.02-.21,1.68.26,2.91.29,4.59,0,3.52-.58,7.34-.78,10.76.02,2.91.68,3.05,3.98,2.89,6.74-.62,10.79-1.25,21.58-1.87,32.37.08,0,.15,0,.23.01Z" style="fill: #000; stroke-width: 0px;"/>
</svg>