<?xml version="1.0" encoding="UTF-8"?>
<svg id="Layer_1" data-name="Layer 1" xmlns="http://www.w3.org/2000/svg" viewBox="0 0 611.21 900">
  <path d="M473.15,740.31c-2.44,4.83-4.85,9.31-7.01,13.91-5.31,11.27-10.54,22.57-15.74,33.9-5.23,11.4-10.05,23.01-12.89,35.23-2.46,10.57-4.31,21.29-5.95,32.02-1.08,7.07-2.73,13.93-4.89,20.73-1.82,5.73-3.08,11.63-5.03,17.31-.75,2.18-2.57,4.07-4.17,5.85-1.29,1.43-3.13.65-4.23-1.1-2.89-4.54-2.59-9.48-2.27-14.51.3-4.66.26-9.34.49-14.01.11-2.26.73-4.51.72-6.77,0-3.76-.32-7.52-.51-11.28-.12-2.43-.42-4.86-.36-7.28.28-12.76-5.76-22.53-14.9-30.56-3.46-3.04-7.83-5.05-11.78-7.54-1.72-1.08-3.42-2.17-5.12-3.28-.65-.43-1.22-1.04-1.92-1.34-7.63-3.33-13.84-8.79-20.36-13.75-6.72-5.12-13.48-10.26-19.69-15.96-5.1-4.68-9.65-10.03-14.02-15.42-3.4-4.2-6.05-9-9.24-13.38-2.24-3.08-4.84-5.9-7.26-8.86-.48-.59-.85-1.26-1.29-1.91-3.14,3.92-6.39,7.69-9.3,11.69-2.33,3.2-4.13,6.77-6.39,10.03-1.5,2.16-3.4,4.04-5.09,6.08-7.98,9.66-17.37,17.82-27.23,25.45-5.44,4.21-11.11,8.13-16.71,12.13-1.27.9-2.73,1.53-4.07,2.33-2,1.2-3.94,2.49-5.96,3.65-2.78,1.59-5.58,3.15-8.42,4.64-10.86,5.68-17.53,14.83-21.47,26.15-.73,2.09-.88,4.41-1.04,6.64-.39,5.48-.7,10.96-.9,16.45-.09,2.5.14,5.01.27,7.51.17,3.18.46,6.36.58,9.54.21,5.41.21,10.83.54,16.23.2,3.28-1.95,5.53-3.16,8.16-.71,1.54-2.68,1.13-4.18-.27-3.19-2.97-4.66-6.88-5.82-10.85-2.13-7.28-4.2-14.58-5.82-21.98-1.27-5.79-1.77-11.76-2.74-17.62-1.03-6.18-1.89-12.42-3.4-18.48-2.72-10.92-5.76-21.76-10.4-32.08-3.89-8.65-7.34-17.49-11.37-26.07-4.89-10.42-10.16-20.66-15.41-31.25-1.5.91-2.77,1.51-3.84,2.36-10.86,8.49-21.72,17-32.53,25.55-6.2,4.91-12.43,9.78-18.46,14.9-6.38,5.42-12.61,11.02-18.76,16.71-5.29,4.89-10.59,9.8-15.46,15.1-4.17,4.53-7.73,9.63-11.57,14.47-1.07,1.35-2.15,2.7-3.34,3.95-2.23,2.34-6.25,2.62-6.48-1.6-.2-3.73-.42-7.46-.5-11.19-.06-2.96.03-5.94.16-8.9.33-7.74.62-15.48,1.13-23.21.4-6.09,1.1-12.16,1.65-18.24.08-.94.08-1.88.08-2.83,0-8.17-.22-16.35.04-24.51.17-5.29,1.01-10.57,1.56-15.85.55-5.28,1.17-10.55,1.66-15.84.67-7.22,1.25-14.45,1.85-21.68.5-6.08.91-12.16,1.48-18.23.86-9.24,1.83-18.48,2.74-27.72.36-3.72.65-7.45,1.03-11.17.36-3.44.82-6.87,1.19-10.31.04-.34-.15-.75-.34-1.07-4.95-8.54-8.41-17.69-11.31-27.08-.99-3.19-2.32-6.3-3.09-9.54-2.05-8.64-4.04-17.31-5.75-26.02-1.37-6.98-2.36-14.04-3.41-21.08-.98-6.59-1.81-13.19-2.71-19.79-.89-6.59-1.84-13.18-2.65-19.79-.78-6.28-1.49-12.58-2.09-18.88-.85-8.95-1.58-17.9-2.31-26.86-.25-3.04-.36-6.09-.54-9.14-.61-10.64-1.22-21.27-1.85-31.91-.63-10.7-1.25-21.4-1.94-32.1-.99-15.25-2.02-30.51-3.09-45.75-.9-12.78-1.01-25.57-.49-38.35.35-8.74,1.13-17.49,2.22-26.17,1.32-10.56.46-21.13,1-31.68.3-5.87,1.57-11.69,2.49-17.51.28-1.77.88-3.48,1.24-5.24.4-1.97.99-3.17,3.46-3.64,5.79-1.09,11.46-2.81,17.18-4.27.45-.12.91-.32,1.37-.32,4.99.08,8.53-2.53,12.24-5.61,9.86-8.18,20.17-15.78,31.62-21.72,3.23-1.68,6.03-4.17,9.11-6.16,4.72-3.05,9.5-6.02,14.29-8.96,4.13-2.54,8.43-4.82,12.39-7.58,1.46-1.02,2.18-3.1,3.23-4.71,4.35-6.62,10.07-11.97,15.87-17.26,2.24-2.04,4.12-4.48,6.21-6.69,3.14-3.32,6.28-6.65,9.51-9.89,2.37-2.38,4.94-4.56,7.3-6.95,4.45-4.5,8.82-9.08,13.21-13.64,2.82-2.93,5.48-6.04,8.47-8.79,5.19-4.76,10.38-9.57,15.95-13.87,9.48-7.33,19.37-14.13,28.84-21.45,5.45-4.21,10.43-9.02,15.62-13.57,8.73-7.66,17.74-14.94,27.46-21.35,3.91-2.58,7.37-5.86,11.07-8.77,3.2-2.52,6.41-5.02,9.68-7.44,1.76-1.31,3.89-2.32,5.84-.77,1.95,1.55,2,4.05,1.4,6.28-1.43,5.27-3.07,10.48-4.64,15.71-3.7,12.34-8.05,24.46-10.49,37.2-1.67,8.72-4.83,17.16-7.33,25.72-.19.67-.37,1.34-.56,2.01.19.17.38.33.57.5,2.05-2.23,4.07-4.5,6.16-6.69,5.14-5.39,10.3-10.77,15.49-16.11.81-.84,1.78-1.57,2.78-2.16,3.76-2.24,8.2-.27,8.77,4.04,1.11,8.45,1.86,16.95,3.1,25.38.52,3.55,1.9,6.98,2.89,10.47.26.03.52.05.78.08.95-3.92,2.14-7.8,2.8-11.76,1.02-6.1,1.7-12.25,2.49-18.38.22-1.7.26-3.43.46-5.14.6-5.1,5.53-7.46,9.48-4.21,3.79,3.13,7.12,6.84,10.58,10.37,4.34,4.41,8.6,8.89,12.91,13.34.21.22.48.37,1.04.79-.96-3.25-1.67-6.21-2.69-9.06-3.56-9.99-5.58-20.35-7.85-30.67-1.39-6.31-3.78-12.4-5.69-18.6-2.32-7.53-4.7-15.05-6.81-22.64-.44-1.6-.09-3.57.37-5.24.55-1.98,3.08-2.53,5.4-1.28,1.37.74,2.63,1.71,3.86,2.67,6.61,5.16,12.96,10.7,19.86,15.45,11.67,8.03,22.33,17.21,32.88,26.61,6.94,6.19,14.7,11.46,22.09,17.14,7.33,5.63,14.83,11.04,21.93,16.93,5.48,4.55,10.6,9.55,15.62,14.6,6.55,6.59,12.78,13.51,19.29,20.15,3.05,3.11,6.55,5.76,9.61,8.85,2.29,2.32,4.04,5.17,6.31,7.53,3.14,3.27,6.59,6.23,9.81,9.43,4.5,4.48,8.46,9.37,11.62,14.95.87,1.53,2.97,2.42,4.61,3.44,8.65,5.33,17.34,10.59,26.01,15.9,5.65,3.46,11.35,6.84,16.88,10.48,4.37,2.88,8.59,6,12.72,9.21,4.37,3.4,8.46,7.16,12.89,10.46,1.24.92,3.27.75,4.92,1.13,6.67,1.52,13.34,3.05,20.01,4.58.6.14,1.3.17,1.77.5.85.61,2.06,1.29,2.26,2.14,1.43,5.96,2.66,11.98,3.92,17.98.21.98.39,2,.39,2.99.03,8.25-.22,16.51.08,24.75.25,6.69,1.16,13.35,1.76,20.03.11,1.25.14,2.5.23,3.76.41,6.09,1.05,12.17,1.18,18.27.26,11.3.1,22.59-.84,33.87-.96,11.47-1.63,22.97-2.38,34.45-.24,3.67-.29,7.36-.51,11.04-.71,11.56-1.46,23.12-2.18,34.68-.38,6.18-.69,12.36-1.11,18.54-.58,8.66-1.23,17.31-1.83,25.96-.35,4.99-.54,10-1.01,14.98-.63,6.69-1.43,13.36-2.21,20.03-.62,5.28-1.28,10.57-1.98,15.84-1.33,10.02-2.55,20.05-4.1,30.03-1.42,9.17-3.05,18.32-4.88,27.42-1.46,7.25-3.13,14.48-5.14,21.59-1.47,5.23-3.45,10.34-5.55,15.36-2.37,5.66-5.13,11.15-7.71,16.72-.13.28-.32.59-.3.87.4,3.74.83,7.47,1.25,11.21.47,4.09.8,8.2,1.44,12.27,1.58,10.07,2.09,20.2,2.43,30.37.22,6.37,1.46,12.7,2.19,19.06.25,2.17.39,4.35.52,6.53.34,5.61.48,11.24,1.01,16.84.47,5.05,1.38,10.06,2.04,15.1.31,2.32.68,4.65.7,6.99.08,7.7-.2,15.41.07,23.1.28,7.9,1.04,15.78,1.58,23.67.26,3.74.58,7.49.72,11.24.23,6.27.38,12.54.48,18.81.07,4.22.03,8.43,0,12.65,0,.61-.14,1.23-.27,1.83-.32,1.46-.6,3.33-2.43,3.22-1.48-.09-3.36-.76-4.28-1.84-4.66-5.48-8.84-11.39-13.63-16.75-4.79-5.36-9.99-10.38-15.22-15.33-4.95-4.68-10.15-9.11-15.3-13.57-4.31-3.73-8.69-7.38-13.1-11-5.2-4.28-10.46-8.5-15.69-12.74-4.01-3.26-7.97-6.58-12.05-9.76-4.39-3.42-8.87-6.72-13.35-10.03-1.62-1.2-3.34-2.26-5.33-3.6ZM133.97,731.7c-4.55-8.99-9.14-18.08-13.75-27.16-1.31-2.58-2.8-5.08-4.02-7.71-3.85-8.31-7.69-16.62-11.37-25-2.78-6.33-5.66-12.67-4.3-19.96.77-4.12,1.22-8.31,1.8-12.47.52-3.7,1.11-7.39,1.51-11.1.9-8.49,1.71-16.99,2.55-25.48.58-5.81,1.19-11.62,1.71-17.44.4-4.51.7-9.04,1.02-13.55.46-6.46.93-12.93,1.33-19.39.43-7.03.68-14.07,1.18-21.1.51-7.19,1.52-14.35,1.78-21.55.37-10.11.34-20.23.33-30.35,0-11.13-.4-22.26-.2-33.38.16-8.79.18-17.52-.5-26.32-.73-9.36-3.05-18.11-6.65-26.69-1.47-3.5-2.56-7.24-2.08-11.2.19-1.55.32-3.16,2.14-3.49,1.78-.32,3.16.53,3.98,2.21,1.2,2.45,2.55,4.84,3.63,7.34,3.23,7.53,7.14,14.82,7.97,23.19.64,6.48,1.93,12.94,1.96,19.41.05,9.08-.88,18.16-1.25,27.24-.41,10.03-.69,20.06-.97,30.1-.25,9.02-.32,18.06-.68,27.07-.24,6.1-.84,12.19-1.28,18.29-.39,5.38-.74,10.77-1.17,16.15-.65,8.09-1.4,16.16-2.05,24.25-.38,4.75-.5,9.53-1.01,14.26-1.03,9.63-2.21,19.25-3.4,28.86-.82,6.66-1.74,13.31-2.67,19.95-.73,5.16-1.57,10.3-2.3,15.46-.09.65.01,1.45.32,2.02,4,7.53,8.14,14.98,12.08,22.54,3.77,7.21,7.37,14.51,11.01,21.79,3.36,6.72,6.69,13.47,10.01,20.21,4.85,9.83,9.71,19.67,14.52,29.52,5.02,10.28,10.24,20.47,14.93,30.9,3.97,8.84,7.52,17.89,10.87,26.98,1.89,5.12,3.05,10.52,4.42,15.82,1.28,4.94,2.42,9.93,3.59,14.78.39-7.66.66-15.4,1.23-23.11.53-7.19,1.07-14.4,2.17-21.52,1.42-9.2,3.19-18.35,5.2-27.44,2.16-9.78,4.66-19.48,7.2-29.17,1.17-4.46,2.75-8.82,4.22-13.21,1.54-4.6,3.02-9.23,4.82-13.74,3.02-7.57,6.24-15.06,9.45-22.55,1.79-4.18,3.54-8.39,5.68-12.39,3.55-6.63,7.3-13.15,11.17-19.6,4.03-6.71,8.13-13.39,12.53-19.86,1.91-2.82,4.61-5.1,7.01-7.57.53-.54,1.28-.91,1.99-1.22,2.16-.96,4.29-.51,5.51,1.17,1.35,1.87.94,3.63-.32,5.42-2.71,3.82-5.47,7.62-7.95,11.59-1.65,2.64-2.84,5.58-4.27,8.36-3.71,7.25-7.47,14.48-11.13,21.75-1.05,2.09-1.82,4.33-2.69,6.41,9.68-2.41,16.44-8.62,22.62-15.96,5.28-6.28,10.96-12.29,16.98-17.87,4.8-4.46,10.14-8.44,15.67-11.98,6.14-3.93,13.07-4.07,19.12-.03,6.95,4.65,13.74,9.73,19.78,15.49,6.8,6.46,12.74,13.84,18.95,20.9,4.49,5.11,10.59,7.23,16.8,9.74-1.05-2.5-1.84-4.73-2.9-6.82-3.77-7.48-7.74-14.87-11.44-22.39-3.32-6.76-6.53-13.55-11.77-19.13-.32-.34-.75-.78-.75-1.17,0-1.41-.3-3.16.41-4.15.71-1,2.48-1.68,3.78-1.68,1.26,0,2.75.8,3.76,1.68,5.54,4.85,9.9,10.71,13.65,17,4.01,6.73,7.89,13.54,11.73,20.37,2.23,3.96,4.47,7.93,6.35,12.05,2.86,6.27,5.47,12.65,8.1,19.02,3.39,8.18,7.03,16.27,9.97,24.62,4.21,11.96,7.94,24.08,10.29,36.59,2.24,11.92,5,23.74,6.97,35.69,2.1,12.76,3.24,25.66,3.18,38.62-.01,2.89,0,5.78,0,7.78,1.26-5.33,2.5-11.61,4.26-17.75,2.43-8.49,4.74-17.07,8-25.25,4.41-11.05,9.55-21.82,14.63-32.58,5.08-10.77,10.48-21.38,15.73-32.07,3.14-6.4,6.2-12.84,9.41-19.2,3.11-6.15,6.49-12.16,9.56-18.33,3.34-6.72,6.3-13.64,9.73-20.32,3.22-6.26,6.85-12.32,10.27-18.48.29-.52.56-1.18.5-1.73-.34-3.09-.74-6.18-1.19-9.26-.92-6.31-1.99-12.61-2.81-18.93-1.12-8.62-2.11-17.25-3.09-25.89-.66-5.81-1.29-11.63-1.79-17.46-.44-5.14-.61-10.3-1.01-15.44-.51-6.53-1.17-13.05-1.72-19.59-.4-4.83-.74-9.67-1.09-14.51-.57-8.05-1.27-16.09-1.65-24.15-.39-8.3-.4-16.62-.7-24.93-.52-14.26-.98-28.53-1.79-42.78-.51-9.02.65-17.87,1.67-26.75.39-3.39,1.04-6.83,2.18-10.03,1.93-5.45,4.3-10.75,6.58-16.07.95-2.22,1.92-4.5,3.32-6.42.79-1.08,2.46-2,3.78-2.06,1.62-.08,2.19,1.6,2.13,3.12-.09,2.17.03,4.44-.57,6.49-1.32,4.57-2.89,9.08-4.62,13.52-3.47,8.87-3.7,18.25-4.1,27.5-.41,9.53.27,19.1.35,28.65.08,9.95.03,19.91,0,29.86-.02,7.78-.45,15.58-.04,23.33.67,12.82,1.91,25.61,2.83,38.43.56,7.79.96,15.6,1.45,23.4.31,4.84.54,9.68,1.02,14.5.96,9.64,2.09,19.25,3.09,28.88.6,5.82.94,11.67,1.66,17.47.74,5.94,1.8,11.84,2.71,17.75.25,1.61.93,3.32.61,4.82-.83,3.96-1.78,7.94-3.25,11.69-2.26,5.75-4.93,11.34-7.57,16.93-3.37,7.14-6.85,14.24-10.34,21.33-4.25,8.62-8.58,17.2-12.79,25.63,2.69,1.73,5.22,3.15,7.53,4.87,3.64,2.73,7.15,5.63,10.66,8.52,9.2,7.56,18.46,15.06,27.53,22.78,5.65,4.81,11,9.98,16.49,14.98,7.07,6.43,14.25,12.75,21.19,19.32,3.33,3.15,6.29,6.71,9.25,10.23,2.59,3.09,4.95,6.38,7.69,9.95-.66-6.8-1.28-13.14-1.89-19.47-.56-5.84-1.15-11.68-1.66-17.53-.57-6.55-1.32-13.1-1.55-19.66-.27-8.08-.08-16.19-.1-24.28,0-.78-.02-1.57-.09-2.35-.52-5.29-1.16-10.57-1.57-15.86-.36-4.6-.39-9.23-.74-13.83-.52-6.76-1.39-13.5-1.76-20.27-.39-7.1-.37-14.22-.54-21.34-.01-.47-.03-.94-.07-1.41-.42-5.13-.86-10.27-1.26-15.4-.39-5.05-.71-10.11-1.08-15.16-.32-4.38-1.64-8.78.25-13.13.12-.27-.16-.69-.19-1.05-.08-1.13-.44-2.34-.15-3.37.97-3.43,2.2-6.79,3.28-10.2,3.26-10.3,6.66-20.56,8.49-31.27,1.04-6.08,2.45-12.1,3.4-18.19,1.13-7.27,1.94-14.58,2.91-21.87,1.1-8.23,2.31-16.44,3.31-24.68.78-6.38,1.29-12.79,1.96-19.18.73-7,1.57-13.98,2.23-20.98.46-4.83.68-9.67,1.02-14.51.6-8.5,1.19-17,1.82-25.5.4-5.38.78-10.77,1.3-16.15.76-7.78,1.8-15.54,2.41-23.33.68-8.58.98-17.19,1.5-25.78.5-8.22.9-16.44,1.62-24.64,1.38-15.72,2.37-31.46,2.24-47.25-.04-4.7.39-9.41.29-14.11-.15-6.79-.71-13.56-.86-20.35-.16-7.07.33-14.17-.13-21.21-.52-7.89-1.8-15.73-2.72-23.34-4.05-.76-7.39-1.45-10.75-2.01-5.39-.9-10.77-1.81-16.18-2.52-4.02-.52-8.08-.78-12.12-1.06-4.51-.32-9.02-.66-13.54-.77-2.81-.07-5.63.29-8.45.39-2.43.08-4.87.12-7.3.09-5.54-.07-11.09.04-16.6-.37-5.19-.39-10.32-1.47-15.51-2.03-5.83-.62-11.7-.98-17.54-1.49-2.24-.19-4.55-.19-6.7-.74-7.11-1.83-14.34-2.48-21.62-2.51-17.36-.07-34.72-.02-52.08-.01-.94,0-1.88.07-2.82.09-8.23.12-16.46.32-24.7.29-1.65,0-3.51-.56-4.87-1.47-1.05-.7-2.03-2.37-2-3.58.03-1.06,1.32-2.41,2.4-3.02,1.31-.75,2.97-1.15,4.5-1.19,9.33-.26,18.66-.59,27.99-.5,17.89.17,35.78.53,53.66.96,4.44.11,8.89.63,13.3,1.24,3.86.53,7.64,1.68,11.51,2.15,8.54,1.05,17.14,1.62,25.65,2.81,8.73,1.22,17.34,2.47,26.28,1.96,9.43-.53,18.94.43,28.42.77.97.03,1.93.27,2.89.42-1.43-1.54-2.95-2.62-4.49-3.66-5.63-3.79-11.16-7.75-16.94-11.31-5.57-3.42-11.43-6.39-17.12-9.61-6.52-3.7-13.01-7.47-19.51-11.2-5.69-3.27-11.41-6.51-17.08-9.8-8.86-5.15-17.64-10.44-26.57-15.48-6.39-3.61-12.92-7.01-19.46-10.34-6.89-3.5-13.84-6.9-20.83-10.19-7.63-3.59-15.35-6.98-23.01-10.51-3.44-1.59-6.81-3.31-10.53-5.12,1.58,4.15,2.83,7.98,4.47,11.65,4.4,9.85,9.16,19.54,13.4,29.45,3.62,8.48,6.89,17.13,9.96,25.83,1.04,2.95,1.21,6.27,1.39,9.44.12,2.03-1.28,3.54-3.23,4.21-1.98.67-3.82.1-5.11-1.48-.98-1.19-1.84-2.57-2.37-4.01-3.86-10.51-7.73-21.01-11.35-31.6-.79-2.32-2.11-2.67-4.1-2.85-2.87-.26-5.74-.69-8.59-1.15-5.1-.83-10.16-1.94-15.28-2.56-11.36-1.37-22.75-2.49-34.12-3.75-1.61-.18-3.19-.53-5.01-.84.87,2.44,1.88,4.57,2.38,6.8,1.03,4.58,1.6,9.27,2.72,13.83,1.43,5.79,2.9,11.53,2.56,17.58-.1,1.77-.24,3.48-2.26,3.86-1.86.35-2.65-1.14-3.46-2.57-6.51-11.44-8.2-24.23-10.41-36.87-.39-2.26-.41-4.69-1.32-6.72-1-2.22-1.73-4.21-.6-6.47,1.13-2.24,3.05-3.43,5.53-3.33,4.07.17,8.19.18,12.17.89,6.86,1.21,13.66,2.85,20.45,4.41,7.24,1.66,14.49,3.3,21.67,5.21,4.62,1.23,9.1,2.96,13.8,4.51-1.59-5.25-3.14-10.24-4.61-15.26-1.59-5.38-3.11-10.78-4.65-16.18-.83-2.89-1.73-5.77-2.43-8.7-.68-2.85,1.31-4.6,4.07-3.68,1.33.44,2.65.92,3.92,1.5,9.73,4.44,19.37,9.06,29.18,13.33,15.04,6.55,30.06,13.14,44.47,21.01,8.31,4.54,16.59,9.11,24.89,13.65.48.26,1,.43,1.89.8-.39-.61-.47-.84-.64-1-3.49-3.35-7.06-6.62-10.45-10.07-2.51-2.56-4.66-5.49-7.19-8.04-4.52-4.54-9.2-8.91-13.81-13.35-7.1-6.83-14.31-13.56-21.28-20.52-9.32-9.32-20.12-16.64-31.13-23.73-5.79-3.73-11.53-7.59-17.03-11.72-6.33-4.75-12.27-10.02-18.59-14.78-6.88-5.18-14.06-9.97-21.01-15.06-4.11-3.01-8.02-6.27-12.5-9.8,1.07,1.93,2.04,3.28,2.63,4.78,4.03,10.34,8.47,20.48,10.74,31.48,1.96,9.54,5.17,18.82,7.41,28.32,1.14,4.84,1.51,9.89,1.94,14.87.17,1.96-.25,4.04-.76,5.98-.7,2.64-5.22,3.1-7.83.7-6.05-5.58-11.96-11.3-17.98-16.92-3.24-3.02-6.59-5.94-10.08-9.08-1.99,5.58-2.51,11.31-6.38,15.66-.13.15-.06.46-.11.69-1.42,5.83-2.91,11.63-4.22,17.49-.48,2.17-.47,4.44-.78,6.65-.14,1-.26,2.63-.8,2.82-1.3.45-2.92.52-4.23.14-.59-.17-.95-1.77-1.08-2.77-.28-2.12-.13-4.32-.55-6.41-1.03-5.11-2.22-10.2-3.48-15.26-.41-1.63-1.17-3.18-1.88-4.72-.88-1.9-2.05-3.68-2.77-5.64-1.02-2.72-1.74-5.56-2.74-8.83-8.67,8.09-16.94,15.87-25.31,23.56-1.69,1.55-3.6,2.97-5.65,3.99-1.76.88-4.53-.45-4.89-2.07-.43-1.96-1.04-4.05-.78-5.98,1.05-7.65,2.1-15.33,3.75-22.87,1.48-6.78,4.22-13.3,5.57-20.11,1.85-9.3,5.38-17.96,8.77-26.7,1.25-3.22,2.8-6.32,4.09-9.23-4.6,3.52-9.28,7.21-14.08,10.74-7.38,5.44-14.92,10.65-22.23,16.18-6.13,4.63-11.83,9.84-18.07,14.29-9.49,6.77-19.26,13.16-28.97,19.62-8.01,5.33-14.75,12.15-21.82,18.55-4.63,4.19-8.85,8.83-13.26,13.25-1.98,1.99-4.01,3.93-6.01,5.91-3.89,3.84-7.81,7.65-11.64,11.55-3.39,3.45-6.72,6.97-9.99,10.54-2.11,2.31-4.07,4.76-5.23,6.12,2.94-1.68,7.07-4.2,11.34-6.45,9.13-4.81,18.26-9.6,27.51-14.17,7.98-3.94,16.11-7.58,24.19-11.3,6.8-3.13,13.63-6.23,20.47-9.28,6.27-2.8,12.55-5.58,18.87-8.24,2.57-1.08,4.62.36,4.36,2.91-.16,1.61-.42,3.25-.9,4.79-.84,2.67-2.03,5.23-2.82,7.92-1.68,5.68-3.17,11.41-4.78,17.1-1.03,3.64-2.15,7.26-3.26,10.98,6.67-2.19,13.03-4.71,19.6-6.35,10.26-2.55,20.67-4.44,31-6.73,5.92-1.31,11.84-2.47,17.95-1.93,4.24.38,6.96,4.36,5.16,8.11-1.04,2.19-1.35,4.31-1.77,6.61-1.63,8.92-3.33,17.85-5.62,26.62-1.19,4.55-3.58,8.81-5.67,13.09-.39.8-1.98,1.59-2.84,1.43-.85-.16-2.07-1.52-2.08-2.37-.05-3.58,0-7.22.56-10.75.71-4.55,2.02-9,2.91-13.53.95-4.83,1.19-9.84,3.82-14.22.14-.23.06-.58.09-1.03-.72.1-1.32.19-1.92.27-8.47,1.11-16.93,2.3-25.41,3.31-4.59.55-9.24.62-13.82,1.24-7.59,1.03-15.14,2.34-22.71,3.48-1.52.23-2.38.79-2.94,2.4-3.75,10.71-7.6,21.39-11.54,32.04-.58,1.57-1.54,3.16-2.74,4.3-2.88,2.75-7.26,1.27-7.91-2.65-.28-1.65-.23-3.5.21-5.11,1.38-5.05,2.67-10.17,4.63-15,3.71-9.13,7.88-18.08,11.84-27.11,4.25-9.68,8.47-19.36,12.96-29.63-2.79,1.23-4.86,2.09-6.89,3.04-8.13,3.81-16.27,7.6-24.37,11.48-11.69,5.61-23.43,11.12-34.97,17.03-6.88,3.52-13.42,7.72-20.12,11.6-10.96,6.36-21.94,12.69-32.88,19.07-8.3,4.84-16.52,9.79-24.84,14.59-6.76,3.91-13.71,7.5-20.36,11.57-4.14,2.53-7.89,5.7-12.29,8.92,5.87-.37,11.07-.86,16.28-.98,6.18-.14,12.37.23,18.55,0,6.23-.22,12.46-.76,18.67-1.39,7.21-.73,14.41-1.62,21.6-2.61,6.04-.84,12.01-2.27,18.07-2.84,10.66-1.01,21.36-1.87,32.06-2.24,13.73-.47,27.49-.46,41.23-.52,6.43-.03,12.87.17,19.3.49,2.95.14,5.9.69,8.79,1.3,1.7.36,3.27,1.61,2.83,3.47-.33,1.4-1.64,2.62-2.69,3.76-.41.45-1.29.57-1.98.65-2.8.3-5.61.78-8.41.74-10.75-.15-21.5-.57-32.26-.69-11.47-.13-22.95.29-34.4-.12-11.67-.42-23.02,1.78-34.47,3.22-4.81.6-9.64,1.06-14.47,1.59-6.42.71-12.83,1.57-19.27,2.1-5.14.42-10.32.66-15.47.6-6.49-.07-12.98-.7-19.47-.75-4.04-.03-8.08.52-12.12.88-5.6.5-11.22.86-16.78,1.65-6,.85-11.93,2.27-17.92,3.17-2.24.34-3.45,1.02-3.22,3.4.02.21-.17.44-.21.67-.85,5.06-2.24,10.1-2.44,15.19-.6,15.55-.78,31.12-1.01,46.68-.07,4.78.22,9.57.36,14.35.27,9.09.46,18.19.86,27.27.28,6.38.83,12.76,1.27,19.14.87,12.51,1.72,25.02,2.65,37.52.78,10.52,1.64,21.03,2.46,31.54.61,7.81,1.25,15.61,1.8,23.42.66,9.28,1.25,18.57,1.88,27.85.18,2.57.34,5.15.61,7.72.54,5.13,1.2,10.24,1.72,15.37.71,7.01,1.2,14.04,2.04,21.03,1.26,10.5,2.69,20.98,4.16,31.45,1.32,9.36,2.85,18.69,4.22,28.05,1.64,11.2,4.15,22.19,7.52,32.98,1.67,5.34,3.41,10.67,5.2,15.97.89,2.63,2.08,5.2.68,8,1.95,3.82.76,7.87.6,11.77-.33,7.7-1.17,15.38-1.78,23.07-.21,2.65-.43,5.3-.57,7.95-.29,5.3-.55,10.61-.76,15.91-.12,2.97.05,5.95-.16,8.91-.52,7.63-1.21,15.24-1.78,22.86-.34,4.52-.57,9.04-.86,13.56-.5,7.57-1.14,15.13-1.48,22.71-.46,10.1-.36,20.24-1.11,30.31-.85,11.36-2.43,22.67-3.56,34.02-.27,2.69-.04,5.44-.04,8.09.08-.11.28-.34.45-.58,4.66-6.67,9.62-13.12,15.56-18.7,9.01-8.47,18.08-16.87,27.31-25.09,8.71-7.77,17.52-15.44,26.55-22.83,9.68-7.92,18.99-16.35,30-22.92ZM207.23,776.65c3.98-3.15,7.43-6.01,11.02-8.69,4.11-3.06,8.36-5.92,12.5-8.94,3.31-2.41,7.14-4.11,9.76-7.53.88-1.15,2.75-1.53,4.17-2.26.81-.41,1.73-.68,2.44-1.22,3.72-2.83,7.27-5.89,11.08-8.57,7.34-5.15,14.21-10.82,19.91-17.75,2.62-3.19,4.71-6.81,7.1-10.2,3.29-4.66,6.56-9.34,10.01-13.9,1.3-1.72,2.9-3.33,4.65-4.59,1.77-1.27,3.9-2.4,5.67.13,2.33-1.85,4.55-1.83,6.93.64,2.31,2.39,4.19,5.22,6.21,7.88,2.6,3.43,5.17,6.89,7.75,10.33,3.32,4.43,6.38,9.1,10.03,13.24,7.49,8.5,17.1,14.55,25.96,21.45,1.21.95,2.5,2.29,3.87,2.44,2.56.29,4.1,1.73,5.62,3.44.62.7,1.13,1.57,1.88,2.08,4.78,3.2,9.69,6.19,14.4,9.49,3.55,2.49,6.86,5.31,10.25,8.02,1.73,1.38,3.38,2.86,5.07,4.29-.23-2.92-.77-5.59-1.49-8.22-1.73-6.35-3.74-12.62-5.24-19.02-1.03-4.42-2.36-8.64-5.18-12.2-3.31-4.18-6.87-8.06-12.13-10-6.07-2.23-12.03-4.73-18.05-7.1-.94-.37-1.93-.6-2.86-.97-3.96-1.58-8.08-2.86-11.82-4.86-7.14-3.81-12.83-9.53-18.26-15.42-4.03-4.37-7.73-8.97-10.44-14.41-1.9-3.81-4.64-7.28-7.41-10.57-2.65-3.15-7.07-3.01-9.98-.11-.83.83-1.61,1.74-2.24,2.72-2.63,4.17-4.88,8.63-7.86,12.53-4.03,5.27-8.45,10.28-13.01,15.12-4.7,4.98-10.18,9.1-16.44,11.95-3.3,1.5-6.9,2.33-10.3,3.62-5.6,2.14-11.16,4.41-16.73,6.63-1.88.75-3.98,1.21-5.58,2.36-6.39,4.56-11.39,10.22-13.43,18.08-1.67,6.44-3.51,12.84-5.22,19.27-.91,3.43-1.68,6.9-2.63,10.78ZM235.55,792.2c4.04-3.28,7.94-6.41,11.78-9.62.41-.35.59-1.19.58-1.79-.12-5.43-.59-10.87-.38-16.29.14-3.54,1.24-7.04,1.93-10.69-15.2,5.98-17.95,28.2-13.9,38.39ZM375.76,792.31c4.52-12.79-.37-34.13-14.18-38.32,2.65,7.82,3.38,15.85,2.29,23.7-.59,4.26,1.11,5.88,3.8,7.9,2.74,2.06,5.29,4.37,8.1,6.72ZM380.62,764.86c2.46,10.28,4.01,20.07.24,30.45,3.5,2.45,7.36,5.14,11.5,8.04.44-1.17.84-1.86.95-2.59.3-1.99.47-4.01.72-6.01.64-5.18.28-10.32-1.62-15.17-1.06-2.72-3.25-5.02-4.22-7.76-1.33-3.73-4.81-4.5-7.57-6.96ZM218.85,803.47c4.36-3.1,8.19-5.83,11.53-8.2-3.65-10.49-2.2-20.21.31-30.44-2.47,1.79-4.94,3.02-6.61,4.94-1.79,2.06-2.97,4.71-4.18,7.22-3.53,7.26-3.3,14.93-2.15,22.66.16,1.1.62,2.16,1.11,3.83ZM366.32,684.92c-.18.14-.36.28-.53.43,4.81,15.11,9.1,30.52,23.54,40.9-1.4-3.88-2.52-7.29-3.85-10.61-3.32-8.29-6.74-16.54-10.13-24.8-.29-.71-.57-1.66-1.14-1.98-2.57-1.42-5.24-2.64-7.87-3.94ZM221.97,726.19c8.4-5.77,13.43-13.57,17.1-22.25,2.56-6.06,4.41-12.42,6.58-18.65l-.75-.4c-2.06,1.06-4.03,2.34-6.19,3.11-1.94.69-2.48,2.15-3.13,3.75-3.18,7.84-6.45,15.64-9.6,23.5-1.39,3.46-2.57,7-4.01,10.94ZM374.63,719.34c-.35-.73-.57-1.27-.85-1.78-1.97-3.6-4.36-7.05-5.85-10.84-2.55-6.49-4.9-13.1-6.63-19.84-.98-3.86-2.83-5.99-7.03-7.18.15,2.2.16,4.1.42,5.96,1.1,7.97,2.15,15.87,6.29,23.14,3.15,5.51,7.47,8.82,13.65,10.53ZM256.98,679.38c-2.21,1.17-3.73,1.94-5.2,2.79-.35.21-.68.66-.79,1.06-.99,3.58-1.71,7.25-2.93,10.74-2.38,6.8-4.36,13.79-8.3,19.96-1.08,1.69-2.04,3.47-3.27,5.57.91-.3,1.29-.38,1.63-.55,2.65-1.29,6.13-1.95,7.75-4.04,3.18-4.13,5.84-8.85,7.73-13.71,1.69-4.33,2.18-9.16,2.95-13.82.41-2.44.29-4.97.43-8ZM399.07,780.05c.28,4.36,1.04,8.8.72,13.16-.32,4.35-1.72,8.61-2.58,12.58,4.38,4.86,8.8,9.76,13.09,14.52,0-.33.06-.96,0-1.57-.76-6.91-1.59-13.82-2.31-20.74-.75-7.2-3.66-13.26-8.9-17.95ZM212.51,779.95c-4.68,4.32-8.05,9.3-8.77,15.76-.59,5.29-1.23,10.57-1.85,15.85-.35,3.03-.68,6.07-1.02,9.1,3.8-5.1,7.65-9.85,12.6-13.65.51-.39.87-1.68.63-2.28-3.21-8.1-3.57-16.33-1.59-24.79ZM266.16,741.69c-3.55,3.28-7.96,4.83-9.23,9.58-.9,3.35-2.11,6.61-2.97,9.96-1.38,5.39-1.31,10.88-.96,17.05,4.34-4.07,8.26-7.74,12.14-11.39-3.32-8.38-1.3-16.41,1.02-25.2ZM345.66,742.46c.64,3.9,1.24,7.95,1.97,11.98.78,4.28.07,8.37-1.52,12.44,3.98,3.71,7.89,7.36,12.15,11.34.57-7.3-.2-13.79-1.59-20.3-1.48-6.94-4.75-12.35-11.01-15.46ZM304.95,699.7c-3.23,9.47-7.2,18.62-4.57,29.2,3.51-3.79,7.11-3.47,10.57-.07,2.51-10.56-1.35-19.73-4.63-29.13h-1.37ZM356.65,711.82c-1.2-2.68-2.61-5.06-3.32-7.63-1.2-4.31-2.01-8.74-2.88-13.14-.71-3.62-1.88-7.29-1.76-10.9.18-5.41-2.68-8.4-6.8-11.16.31,2.61.54,5.01.91,7.4,1.26,8.11,2.21,16.3,4,24.3,1.13,5.06,3.63,9.75,9.86,11.13ZM254.76,711.64c.13.16.27.33.4.49,1.92-1.24,4.42-2.08,5.64-3.82,2.36-3.33,4.02-7.13,4.62-11.33,1.32-9.26,2.8-18.5,4.21-27.74-.19-.09-.37-.18-.56-.26-1.55,1.4-3.12,2.77-4.63,4.21-.49.46-1.09,1.04-1.19,1.64-.71,4.18-1.24,8.39-1.96,12.56-.92,5.34-1.75,10.71-3.05,15.96-.71,2.88-2.3,5.54-3.5,8.3ZM281.15,659.03c-2.38,1.86-5.12,2.83-5.56,6.01-.2,1.46-.49,2.91-.7,4.36-1.04,6.99-2.05,13.99-3.11,20.98-.47,3.14-1.01,6.27-1.52,9.41.23.11.46.22.69.34,2.04-3.16,4.93-6.07,5.94-9.53,1.98-6.79,3.11-13.86,4.18-20.87.51-3.38.09-6.9.09-10.7ZM329.8,659.28c.11,2.11.1,4.02.34,5.9.92,7.13,1.95,14.24,2.89,21.36.74,5.58,4.32,9.44,8.18,13.99-.44-2.15-.81-3.58-1.02-5.03-1.32-9.04-2.67-18.07-3.88-27.12-.53-4.01-1.71-7.43-6.52-9.11ZM341.12,761.37c1.81-9.02-2.59-26.72-9.71-30.01-.26,3.02.12,6.33-.92,9.13-1.84,4.99-.2,8.59,3.1,12,.16.17.25.4.4.58,2.31,2.7,4.63,5.4,7.13,8.3ZM279.42,730.86c-1.28,1.46-2.92,2.81-3.89,4.53-4.33,7.61-6.28,15.83-5.75,24.6.02.34.16.68.41,1.66,4.05-5.05,7.79-9.66,11.44-14.32.29-.36.16-1.13.07-1.69-.71-4.73-1.45-9.46-2.28-14.77ZM293.73,714.72c-5.46,4.97-10.01,20.76-6.7,26.09,2.65-2.96,5.29-5.92,7.5-8.39-.28-6.25-.55-12.16-.8-17.7ZM317.15,714.32c-.06.13-.18.27-.16.38.87,5.52.65,11-.57,16.45-.09.39-.15.99.06,1.23,2.57,2.81,5.2,5.57,7.81,8.33,3.15-5.03-1-20.61-7.14-26.39ZM290.28,653.48c-.53.34-1.01.78-1.58.99-1.97.73-2.4,2.06-1.99,4.02.31,1.51.49,3.1.38,4.64-.27,3.86-.74,7.71-1.13,11.65,7.47-7.59,7.99-12.86,4.32-21.3ZM325.48,674.96c-.3-1.87-.63-3.32-.74-4.78-.25-3.26-.8-6.57-.46-9.78.49-4.61.78-4.58-3.34-6.85-3.5,8.35-3.21,13.43,4.54,21.41ZM313.49,648.26c-2.75,4.01-3.83,8.07-2.7,12.68.46,1.88,1.07,3.11,2.76,2.95.88-4.71,1.72-9.23,2.6-14-.67-.41-1.66-1.02-2.66-1.63ZM295.15,649.89c.91,4.97,1.73,9.44,2.55,13.93,4.24-.54,4.51-9.25.05-15.53-.98.61-1.97,1.22-2.6,1.61ZM302.57,645.41c1.2,2.66,2.06,4.56,3.03,6.72,1.01-2.18,1.93-4.15,3.12-6.72h-6.15Z" style="fill: #000; stroke-width: 0px;"/>
  <path d="M562.35,834.47c-.21.98-.17,1.6-.45,2.02-3.71,5.51-4.35,12.17-6.78,18.16-3.19,7.86-5.26,16.19-9.9,23.43-.45.71-.95,1.46-1.6,1.96-.47.36-1.23.34-1.87.5-.02-.65-.23-1.37-.02-1.93,2.37-6.28,5-12.47,7.18-18.81,2.34-6.79,4.18-13.76,6.47-20.57.75-2.23,2.17-4.25,3.47-6.25.29-.45,1.59-.78,2-.51.72.47,1.11,1.44,1.49,2Z" style="fill: #000; stroke-width: 0px;"/>
  <path d="M48.82,834.56c.5-.69.93-1.88,1.63-2.07.67-.18,1.79.5,2.41,1.1,2.09,2.04,2.67,4.74,3.48,7.48,2.41,8.14,5.15,16.19,7.95,24.21,1.58,4.51,3.55,8.89,5.28,13.35.21.54-.04,1.27-.07,1.91-.63-.17-1.59-.13-1.84-.53-2-3.28-4.25-6.49-5.69-10.03-2.79-6.86-5.12-13.91-7.61-20.89-.83-2.34-1.51-4.73-2.39-7.04-.68-1.78-1.6-3.46-2.38-5.21-.28-.62-.45-1.3-.78-2.29Z" style="fill: #000; stroke-width: 0px;"/>
  <path d="M526.91,865.24c-.23-1.22-.66-2.06-.45-2.66.58-1.65,1.64-3.14,2.16-4.8,2.45-7.95,4.7-15.97,7.19-23.91,1.83-5.84,3.89-11.6,5.94-17.37.55-1.54,1.78-2.24,3.36-1.36,1.46.81,1.87,2.08.96,3.57-3.3,5.41-4.75,11.52-6.64,17.46-.93,2.95-1.85,5.91-2.94,8.81-1.9,5.05-3.88,10.07-5.9,15.07-.54,1.34-1.32,2.58-2.06,3.83-.21.36-.66.58-1.62,1.37Z" style="fill: #000; stroke-width: 0px;"/>
  <path d="M85.26,863.22c-.37.54-.62,1.26-.93,1.28-.51.04-1.37-.24-1.54-.62-2.31-5.27-4.57-10.57-6.75-15.9-1.05-2.57-1.92-5.22-2.84-7.84-2.22-6.35-4.4-12.71-6.63-19.04-.28-.79-.82-1.49-1.26-2.22-.95-1.56-.71-2.91.9-3.77,1.76-.94,2.92.02,3.45,1.61,2.18,6.59,4.28,13.21,6.37,19.83,2.39,7.58,4.7,15.19,7.14,22.75.43,1.35,1.34,2.54,2.09,3.92Z" style="fill: #000; stroke-width: 0px;"/>
  <path d="M514.94,834.16c.11-.82.1-1.68.35-2.45,3.15-9.5,6.32-19.01,9.6-28.47.25-.73,1.43-1.64,2.09-1.58.64.07,1.66,1.32,1.62,2-.11,1.66-.65,3.31-1.18,4.91-1.43,4.31-2.78,8.66-4.46,12.88-1.6,4-3.54,7.87-5.44,11.74-.32.66-1.2,1.05-1.83,1.56-.25-.2-.49-.39-.74-.59Z" style="fill: #000; stroke-width: 0px;"/>
  <path d="M95.59,834.75c-.66-.58-1.52-1.03-1.95-1.74-3.52-5.78-5.67-12.14-7.7-18.55-.88-2.79-1.93-5.52-2.85-8.3-.28-.87-.65-1.87-.45-2.69.18-.73,1.01-1.73,1.66-1.81.63-.08,1.82.71,2.03,1.36,2.65,8.13,5.15,16.31,7.75,24.45.37,1.17,1.14,2.21,1.56,3.37.38,1.05.54,2.18.79,3.28l-.85.64Z" style="fill: #000; stroke-width: 0px;"/>
  <path d="M395.7,830.33c.03,7.87-1.91,15.29-5.39,22.29-.38.76-1.68,1.06-2.55,1.57-.03-.82-.3-1.73-.04-2.45,2.89-8.02,4.18-16.28,4.29-24.79.01-.85,1.03-2.27,1.76-2.4,1.58-.27,1.99,1.07,1.94,2.49-.04,1.09,0,2.19,0,3.29Z" style="fill: #000; stroke-width: 0px;"/>
  <path d="M217.98,824.17c.46.77,1.34,1.56,1.31,2.31-.28,6.89,1.3,13.55,2.49,20.25.3,1.72,1.29,3.3,1.79,4.99.22.75,0,1.64-.03,2.46-.87-.51-2.13-.82-2.54-1.58-1.17-2.15-2.15-4.44-2.91-6.77-2.03-6.18-2.79-12.56-2.43-19.04.05-.91.86-1.79,1.31-2.68.34.02.68.04,1.02.06Z" style="fill: #000; stroke-width: 0px;"/>
  <path d="M108.48,810.15c-.57-.41-1.39-.69-1.68-1.25-2.62-5.03-4.74-10.26-5.82-15.87-.17-.9-.53-1.8-.95-2.62-.63-1.23-.7-2.35.64-3,1.37-.66,2.62-.04,3.05,1.29.68,2.13.97,4.37,1.56,6.53,1.06,3.88,2.23,7.73,3.31,11.6.26.92.36,1.89.54,2.84-.22.16-.43.32-.65.47Z" style="fill: #000; stroke-width: 0px;"/>
  <path d="M501.97,808.64c.58-1.5,1.22-2.76,1.56-4.08,1.2-4.72,2.27-9.47,3.47-14.19.24-.94.67-1.99,1.36-2.61.49-.44,1.74-.58,2.31-.25.55.31,1.08,1.55.88,2.12-2.24,6.42-4.6,12.79-7.01,19.15-.19.5-.94.93-1.51,1.07-.23.06-.68-.76-1.05-1.21Z" style="fill: #000; stroke-width: 0px;"/>
  <path d="M488.02,786.21c.23-1.49.36-2.86.66-4.18.72-3.15,1.47-6.29,2.31-9.41.39-1.44.98-3.12,2.94-2.6,1.72.45,1.49,1.97,1.06,3.31-1.18,3.65-2.35,7.31-3.61,10.94-.45,1.29-1.24,2.34-3.37,1.95Z" style="fill: #000; stroke-width: 0px;"/>
  <path d="M122.5,786.66c-.8-.58-2.06-1.01-2.34-1.78-1.49-4.11-2.82-8.29-3.99-12.5-.18-.65.58-1.95,1.25-2.31.44-.24,1.85.46,2.2,1.09.58,1.03.64,2.35.94,3.55.78,3.06,1.59,6.11,2.34,9.17.18.72.19,1.49.29,2.23l-.69.56Z" style="fill: #000; stroke-width: 0px;"/>
  <path d="M239.64,817.08c.84,2.95,1.68,5.9,2.54,8.84.15.52.59,1.01.58,1.5-.01.76-.3,1.51-.47,2.27-.58-.48-1.45-.84-1.69-1.45-1.5-3.95-2.85-7.96-4.27-11.94-.15-.42-.61-.8-.6-1.2.01-.91.22-1.82.35-2.73.98.14,2.43-.06,2.85.5.81,1.09,1.05,2.61,1.53,3.95-.27.09-.54.18-.82.26Z" style="fill: #000; stroke-width: 0px;"/>
  <path d="M368.28,828.48c.74-2.48,1.47-4.6,1.98-6.77.44-1.85.52-3.8.97-5.64.32-1.28.85-2.59,1.62-3.64.28-.38,1.67-.33,2.27.02.47.28.86,1.41.69,1.98-1.15,3.82-2.43,7.6-3.75,11.36-.38,1.08-.99,2.1-1.64,3.06-.28.41-1.01.88-1.38.78-.4-.11-.6-.87-.76-1.14Z" style="fill: #000; stroke-width: 0px;"/>
  <path d="M476.27,768.92c1.02-3.42,1.95-6.87,3.14-10.24.18-.51,1.51-.61,2.31-.9.31.86,1.07,1.87.84,2.56-.88,2.7-2,5.33-3.21,7.89-.31.65-1.29.97-1.97,1.44-.37-.25-.73-.5-1.1-.76Z" style="fill: #000; stroke-width: 0px;"/>
  <path d="M133.91,769.68c-.72-.58-1.75-1.02-2.11-1.77-1.13-2.35-2.14-4.78-2.91-7.27-.25-.8.37-1.87.59-2.82.81.25,2.15.28,2.35.78,1.37,3.39,2.74,6.83,2.69,10.56-.2.17-.4.34-.61.51Z" style="fill: #000; stroke-width: 0px;"/>
  <path d="M263.03,804.64c-.84-.58-2.06-.98-2.46-1.78-1.03-2.06-1.9-4.26-2.41-6.5-.18-.8.67-2.42,1.43-2.72,1.4-.56,1.94.74,2.21,2.01.58,2.77,1.22,5.52,1.84,8.29l-.6.71Z" style="fill: #000; stroke-width: 0px;"/>
  <path d="M347.75,804.57c-.07-.93-.22-1.41-.12-1.83.61-2.55,1.18-5.12,2-7.6.23-.69,1.26-1.11,1.93-1.65.56.75,1.73,1.66,1.58,2.21-.72,2.67-1.7,5.29-2.83,7.81-.25.55-1.51.65-2.57,1.06Z" style="fill: #000; stroke-width: 0px;"/>
  <path d="M326.12,779.09c.71-2.08,1.33-4.06,2.15-5.95.08-.18,1.91-.06,2.16.37,1.25,2.1-1.29,5.73-4.31,5.59Z" style="fill: #000; stroke-width: 0px;"/>
  <path d="M285.16,779.09c-3.01.15-5.55-3.46-4.31-5.58.25-.43,2.08-.56,2.16-.38.82,1.89,1.44,3.88,2.15,5.96Z" style="fill: #000; stroke-width: 0px;"/>
  <path d="M315.19,754.25c-1.06,1.44-1.85,2.61-2.76,3.67-.17.2-1.07.11-1.24-.12-.28-.38-.39-1.03-.3-1.51.21-1.1.49-2.2.92-3.22.2-.46,1.13-1.09,1.24-1.01.7.54,1.27,1.26,2.13,2.19Z" style="fill: #000; stroke-width: 0px;"/>
  <path d="M298.12,751.98c.31.04.58.02.6.08.52,1.89,1.03,3.78,1.49,5.68.01.04-.68.39-.77.3-.92-.85-2.11-1.63-2.57-2.71-.33-.77.31-1.98.6-2.96.06-.21.49-.3.65-.39Z" style="fill: #000; stroke-width: 0px;"/>
  <path d="M444.84,573.17c-1.01,1.4-1.62,3.06-2.73,3.53-.96.41-2.74-.21-3.71-.96-1.04-.8-1.72-2.21-2.28-3.48-2.45-5.49-5.04-10.92-7.12-16.55-2.68-7.27-4.88-14.7-7.34-22.05-3.59-10.71-6.73-21.51-8.63-32.69-1.52-8.94-4.02-17.71-5.64-26.64-1.95-10.77-3.65-21.6-5.05-32.46-1.25-9.77-2.05-19.6-2.86-29.43-.77-9.36-1.22-18.75-1.94-28.11-.37-4.82-1.04-9.61-1.52-14.42-.33-3.34-.54-6.7-.81-10.04-.46-5.67-1.18-11.33-1.31-17.01-.22-9.23-.1-18.46-.03-27.69.01-1.62.95-2.95,2.75-2.95,1.8,0,2.56,1.32,2.78,2.95.09.7.02,1.41.05,2.12.32,8.13.51,16.27.99,24.39.46,7.7,1.12,15.39,1.9,23.06.34,3.33,1.28,6.59,1.75,9.91.7,4.94,1.22,9.91,1.83,14.87.92,7.44,1.84,14.88,2.77,22.32.84,6.75,1.63,13.5,2.58,20.23.68,4.8,1.67,9.55,2.36,14.35,1.47,10.32,3.69,20.47,6.57,30.48,2.02,6.99,4.11,13.97,5.99,21,2.34,8.77,4.45,17.61,6.75,26.4,2.1,8.02,4.49,15.98,6.45,24.03,1.99,8.18,3.62,16.45,5.44,24.86Z" style="fill: #000; stroke-width: 0px;"/>
  <path d="M217.47,320.57c0,6.64.24,13.29-.06,19.91-.33,7.39-1.16,14.76-1.77,22.13-.34,4.21-.66,8.42-1,12.63-.36,4.59-.75,9.18-1.09,13.77-.58,7.73-1.11,15.45-1.72,23.18-.6,7.56-1.14,15.14-1.94,22.68-.86,8.01-1.72,16.04-3.09,23.98-1.6,9.24-3.79,18.38-5.66,27.57-1.85,9.13-3.34,18.35-5.53,27.39-1.75,7.22-4.3,14.25-6.56,21.34-2.16,6.78-4.16,13.63-6.69,20.28-2.44,6.41-5.37,12.64-8.26,18.87-.84,1.81-2.4,3.23-4.73,2.64-1.75-.45-2.3-2.57-2.13-5.15.69-10.64,4.16-20.67,6.65-30.9,2.28-9.35,5.16-18.56,7.6-27.88,2.38-9.09,4.48-18.25,6.84-27.35,1.42-5.45,3.4-10.77,4.61-16.26,1.96-8.85,3.58-17.77,5.18-26.7,1.19-6.62,2.23-13.27,3.16-19.93,1.1-7.89,2.01-15.8,2.99-23.7.75-6.04,1.5-12.09,2.26-18.13.81-6.5,1.85-12.98,2.39-19.5.96-11.59,1.64-23.21,2.4-34.82.23-3.51.35-7.02.49-10.53.1-2.47,1.11-3.93,2.81-3.94,1.7,0,2.77,1.46,2.82,3.92.03,1.49,0,2.98,0,4.48,0,0,0,0,.01,0Z" style="fill: #000; stroke-width: 0px;"/>
  <path d="M273.35,332.18c-.24,11.59-.53,23.19-.69,34.78-.11,7.9.17,15.8-.1,23.69-.43,12.18.11,24.41-2.19,36.5-1.33,6.98-2.31,14.04-3.38,21.07-1.28,8.42-2.26,16.9-3.8,25.27-2.31,12.6-4.73,25.2-7.61,37.67-2.05,8.87-4.88,17.55-7.5,26.28-.43,1.44-1.39,2.83-2.42,3.96-1.71,1.89-3.98,1.28-4.59-1.19-.33-1.33-.54-2.83-.28-4.14,1.16-5.8,2.72-11.53,3.76-17.35,2.25-12.54,4.31-25.11,6.36-37.68,1.34-8.25,2.42-16.55,3.81-24.79,1.58-9.4,3.55-18.74,5.03-28.15,1.52-9.65,2.62-19.37,3.98-29.05.65-4.63,1.46-9.23,2.19-13.85.06-.38.11-.78.12-1.16.32-10.73.71-21.46.92-32.2.15-7.58.13-15.17.07-22.76-.03-3.64-.32-7.27-.5-10.91-.01-.31-.01-.63-.02-.94-.04-2.73,1.01-4.6,2.74-4.47,2.41.19,2.78,2,2.96,4.05.46,5.12,1.08,10.23,1.64,15.34-.16,0-.33.02-.49.03Z" style="fill: #000; stroke-width: 0px;"/>
  <path d="M344.77,317.5c-.23,1.77-.63,3.99-.78,6.23-.1,1.54.23,3.11.2,4.66-.07,3.68-.37,7.36-.34,11.04.09,10.43-.07,20.87.56,31.27.56,9.25,1.97,18.44,3.12,27.65,1.21,9.7,2.4,19.41,3.9,29.07.96,6.17,2.61,12.23,3.66,18.38,1.42,8.32,2.55,16.69,3.84,25.04,1.34,8.65,2.69,17.3,4.11,25.94,1.4,8.47,2.81,16.94,4.39,25.38.88,4.74,2.13,9.41,3.16,14.12.56,2.56-.44,5.39-2.03,5.99-1.69.63-3.79-.7-4.91-3.76-2.02-5.48-4-11.01-5.52-16.64-1.88-7-3.42-14.11-4.84-21.22-2.05-10.27-3.94-20.57-5.73-30.89-1.88-10.86-3.75-21.73-5.25-32.64-1.45-10.54-2.49-21.13-3.54-31.72-.26-2.62.34-5.32.27-7.97-.2-7.11-.7-14.22-.79-21.33-.08-6.27.43-12.55.35-18.83-.11-8.22-.8-16.43-.76-24.65.02-5.68.8-11.36,1.33-17.02.15-1.62,1.13-2.82,2.9-2.86,1.69-.03,2.72,1.7,2.71,4.75Z" style="fill: #000; stroke-width: 0px;"/>
  <path d="M423.12,604.63c-1.62-.54-3.38-.83-4.84-1.66-5.92-3.37-11.72-6.96-17.61-10.38-4.34-2.52-8.8-4.82-13.11-7.36-8.77-5.17-17.46-10.48-26.22-15.67-13.67-8.1-25.21-18.85-36.78-29.55-3.09-2.86-5.95-5.99-8.65-9.22-1.15-1.38-1.8-3.28-2.36-5.05-.74-2.37.86-4.05,3.31-3.47,1.15.27,2.32.94,3.23,1.72,6.48,5.56,12.81,11.28,19.34,16.78,5.4,4.54,10.83,9.06,16.56,13.16,4.43,3.18,9.18,6.03,14.06,8.47,11.91,5.95,24.23,11.17,35.36,18.52,7.1,4.69,13.61,10.27,20.35,15.51.64.5,1.1,1.34,1.44,2.11,1.5,3.44-.24,5.93-4.09,6.09Z" style="fill: #000; stroke-width: 0px;"/>
  <path d="M187.38,604.9c-1.16-.85-2.69-1.48-3.42-2.62-1.22-1.91-.22-3.9,1.13-5.36,1.74-1.89,3.7-3.63,5.73-5.21,7.73-6.04,15.77-11.64,24.41-16.3,4.82-2.6,9.7-5.12,14.69-7.4,12.74-5.81,24.82-12.66,35.55-21.76,7.71-6.54,15.51-12.99,23.23-19.53,1.25-1.05,2.21-2.43,3.46-3.5,1.4-1.2,3.09-1.65,4.76-.54,1.71,1.14,1.26,2.93.52,4.24-1.57,2.77-3.08,5.75-5.31,7.95-10.76,10.66-21.99,20.85-34.36,29.59-7.66,5.41-15.88,10.05-23.95,14.86-8.14,4.85-16.42,9.47-24.62,14.23-5.28,3.06-10.49,6.27-15.82,9.24-1.66.93-3.64,1.3-5.99,2.1Z" style="fill: #000; stroke-width: 0px;"/>
  <path d="M363.59,588.74c-3.08-1.19-5.77-2.2-8.44-3.25-9.45-3.75-19.1-6.69-29.3-7.55-9.99-.84-19.98-1.54-30.01-.6-7.23.67-14.51,1.05-21.65,2.26-4.71.8-9.23,2.76-13.79,4.33-3.75,1.29-7.43,2.78-11.15,4.14-1.7.62-3.13.17-3.98-1.47-.97-1.88.24-3.16,1.68-3.8,5.62-2.48,11.25-4.99,17.02-7.08,7.09-2.57,14.31-4.78,21.5-7.05,4.92-1.55,9.83-3.28,14.87-4.28,5.58-1.11,11.1-.19,16.56,1.7,7.36,2.54,14.99,4.32,22.36,6.84,7.87,2.7,15.57,5.87,23.33,8.88.86.33,1.82.79,2.35,1.49.63.83,1.34,2.13,1.1,2.95-.29.97-1.56,1.65-2.45,2.5Z" style="fill: #000; stroke-width: 0px;"/>
  <path d="M490.61,294.51c-8.44.35-16.89.67-25.33,1.07-4.83.23-9.67.44-14.46.98-3.29.37-6.53,1.25-9.78,1.96-1.82.4-3.1-.23-3.84-1.86-.78-1.72-.01-3.09,1.31-4.12,3.01-2.36,6.68-2.6,10.26-2.77,7.81-.38,15.63-.51,23.44-.79,8.05-.29,16.11-.89,24.16-.89,7.96,0,15.85.95,23.77,2.07,11.22,1.6,21.87,5.08,32.34,9,6.59,2.46,12.65,6.35,18.91,9.68.69.37,1.43,1.2,1.55,1.91.15.88-.04,2.15-.61,2.72-.57.56-1.96.84-2.71.55-4.5-1.74-8.85-3.86-13.37-5.52-7-2.57-14.12-4.8-21.15-7.29-9.47-3.35-19.34-4.81-29.22-6-5.01-.61-10.16-.11-15.24-.11,0-.2,0-.4,0-.6Z" style="fill: #000; stroke-width: 0px;"/>
  <path d="M115.3,287.81c12.94.49,22.09.78,31.24,1.19,6.32.28,12.64.56,18.94,1.13,2.27.2,4.57,1.02,6.65,1.98,1.68.78,2.84,2.37,1.98,4.46-.78,1.91-2.27,2.32-4.24,1.88-3.62-.81-7.28-1.47-10.93-2.17-.68-.13-1.38-.22-2.08-.25-8.75-.34-17.51-.69-26.26-.98-5.63-.19-11.3-.69-16.9-.34-7.06.44-14.11,1.43-21.11,2.48-10.05,1.51-19.65,4.73-29.11,8.34-7.18,2.74-14.32,5.59-21.46,8.45-1.48.59-2.69.38-3.49-.93-.92-1.51-.5-3,.93-3.89,3.12-1.94,6.31-3.75,9.53-5.52,8.04-4.41,16.69-7.26,25.52-9.55,5.94-1.54,11.9-3.21,17.95-4.06,8.8-1.22,17.7-1.75,22.83-2.23Z" style="fill: #000; stroke-width: 0px;"/>
  <path d="M493.46,348.24c-5.89-.93-13.5-2.08-21.09-3.35-4.81-.8-9.69-1.41-14.34-2.78-5.26-1.54-10.31-3.79-15.41-5.84-1.38-.56-2.43-1.73-1.62-3.37.85-1.73,2.19-1.31,3.78-.8,6.04,1.92,12.07,4,18.26,5.29,6.77,1.41,13.73,1.84,20.55,3.02,7.25,1.26,14.55,1.34,21.7.28,9.39-1.39,17.55-5.53,23.8-13.09,2.42-2.92,4.89-5.65,5.61-9.51.33-1.76.55-3.55,1.06-5.26.5-1.69,1.57-3.12,3.62-2.33,1.79.69,2.22,2.15,1.68,4.06-.82,2.92-.99,6.1-2.22,8.81-3.01,6.61-8.09,11.65-13.86,15.89-5.45,4.01-11.56,6.8-18.29,7.85-3.76.59-7.61.67-13.24,1.13Z" style="fill: #000; stroke-width: 0px;"/>
  <path d="M115.89,348.17c-7.41-.23-14.68-.96-21.43-4.19-6.47-3.1-11.87-7.47-16.84-12.78-4.74-5.05-6.23-10.99-7.57-17.23-.35-1.63.34-3.24,2.01-3.44.98-.12,2.7.77,3.07,1.64.9,2.11,1.04,4.54,1.82,6.72.77,2.16,1.68,4.38,3.03,6.2,4.87,6.56,11.24,11.26,18.98,13.87,2.9.98,6.03,1.35,9.08,1.83,1.99.32,4.06.63,6.05.45,8.14-.71,16.31-1.32,24.38-2.53,7.65-1.15,15.21-2.93,22.78-4.6,2.01-.44,3.91-1.44,5.83-2.26,1.38-.58,2.71-.38,3.11.98.25.86-.21,2.48-.9,2.96-1.76,1.23-3.78,2.16-5.8,2.96-7.6,3.01-15.51,4.76-23.59,5.89-4.54.63-9.02,1.68-13.55,2.36-3.46.52-6.96.78-10.45,1.15Z" style="fill: #000; stroke-width: 0px;"/>
  <path d="M373.6,124.03c-3.07-.06-6.27-3.46-6.64-6.48-.67-5.56-1.47-11.12-2.52-16.62-1.37-7.17-3.03-14.29-4.57-21.42-1.92-8.85-4.77-17.37-8.75-25.52-.91-1.86-1.61-3.86-2.08-5.88-.18-.77.33-2.27.92-2.51.78-.32,1.99.11,2.9.5.47.2.78.96,1.01,1.53,3.06,7.38,6.66,14.59,9,22.19,2.72,8.87,4.28,18.09,6.48,27.13.51,2.08,1.47,4.07,2.36,6.04,1.51,3.31,3.18,6.55,4.67,9.87.85,1.9,1.81,3.85,2.11,5.86.44,3.02-1.95,5.37-4.89,5.31Z" style="fill: #000; stroke-width: 0px;"/>
  <path d="M237.51,124.03c-3.15-.03-5.7-2.95-4.63-6.18,1.53-4.62,3.32-9.29,5.85-13.42,2.05-3.34,3.01-6.76,3.74-10.44,1-5.03,1.88-10.1,3.22-15.04,1.51-5.55,3.36-11.02,5.32-16.44,1.11-3.06,2.75-5.93,4.1-8.9.67-1.48,1.19-3.02,1.8-4.53.32-.79.66-1.58,1.04-2.34.7-1.41,2.01-2.15,3.24-1.25.72.53,1.18,2.28.88,3.18-1.17,3.43-2.65,6.76-4.1,10.1-3.84,8.83-6.12,18.09-7.93,27.52-1.27,6.64-3.06,13.18-4.35,19.81-.74,3.82-1.08,7.72-1.39,11.61-.23,2.98-3.66,6.36-6.78,6.32Z" style="fill: #000; stroke-width: 0px;"/>
  <path d="M174.31,175.43c.38-1.18.61-2.43,1.15-3.53,3.78-7.72,7.57-15.43,11.48-23.08,1.53-2.98,3.45-5.76,5.08-8.7,2.15-3.89,4.16-7.86,6.3-11.77.83-1.52,2.08-2.65,3.97-2.31,2.04.36,3.18,2.64,2.18,4.85-2.3,5.12-4.58,10.26-7.27,15.18-5.07,9.27-9.87,18.61-11.93,29.11-.29,1.46-1.2,2.92-2.17,4.11-1.42,1.75-3.44,2.19-5.54,1.3-2.2-.93-3.12-2.75-3.26-5.17Z" style="fill: #000; stroke-width: 0px;"/>
  <path d="M436.71,174.97c-.03,3.37-1.29,5.2-3.57,5.84-2.24.63-4.49-.26-5.75-2.57-.77-1.42-1.16-3.04-1.71-4.57-2.11-5.86-3.85-11.88-6.41-17.54-3.73-8.23-8.04-16.2-12.1-24.28-.24-.48-.48-1-.58-1.52-.32-1.68,0-3.15,1.66-4,1.72-.89,3.13-.13,4.11,1.19,1.16,1.56,2.12,3.28,3.06,4.99,4.53,8.2,9.14,16.36,13.48,24.66,2.68,5.12,4.96,10.46,7.35,15.72.38.83.4,1.81.46,2.08Z" style="fill: #000; stroke-width: 0px;"/>
  <path d="M157.42,181.29c-3.17.01-5.58-3.49-4.09-6.33,3.47-6.56,7.15-13.02,10.78-19.5.95-1.7,1.93-3.39,3.04-4.99,3.18-4.6,6.43-9.15,9.67-13.7.41-.57.84-1.35,1.41-1.52,1.01-.29,2.32-.57,3.16-.15,1.29.64,1.27,2.02.55,3.27-1.36,2.36-2.81,4.66-4.04,7.08-.69,1.35-.99,2.9-1.49,4.35-.45,1.32-.75,2.74-1.43,3.94-3.87,6.87-7.85,13.68-11.75,20.53-.45.79-.71,1.72-.93,2.62-.61,2.48-2.69,4.37-4.9,4.38Z" style="fill: #000; stroke-width: 0px;"/>
  <path d="M458.39,176.29c-.04,2.66-1.63,4.52-3.81,4.9-2.2.38-4.38-1.32-5.48-3.57-2.91-5.93-6.1-11.73-9.05-17.64-1.89-3.79-5.26-6.89-5.31-11.57,0-.92-.73-1.87-1.22-2.75-1.32-2.38-2.66-4.74-4.05-7.08-.79-1.32-.88-2.54.38-3.55,1.28-1.02,2.65-.67,3.53.48,1.8,2.36,3.37,4.88,5.1,7.29.81,1.13,1.81,2.13,2.63,3.25,1.41,1.94,2.89,3.86,4.08,5.93,4.23,7.39,8.36,14.84,12.49,22.29.41.73.57,1.6.71,1.99Z" style="fill: #000; stroke-width: 0px;"/>
  <path d="M229.44,63.1c-.2,1.23-.23,1.79-.39,2.3-1.95,6.37-3.81,12.78-5.91,19.1-1.23,3.69-2.72,7.31-4.36,10.84-.7,1.5-1.84,3.02-3.19,3.93-1.02.69-3.07,1-3.98.42-1.04-.67-2.01-2.63-1.81-3.82.48-2.8,1.56-5.53,2.6-8.21,2.26-5.8,4.49-11.63,7.04-17.3,1.33-2.95,3.21-5.69,5.11-8.34.56-.78,2.19-1.41,3.06-1.16.87.25,1.4,1.68,1.82,2.24Z" style="fill: #000; stroke-width: 0px;"/>
  <path d="M381.56,63.5c.74-.95,1.33-2.4,2.27-2.69.82-.25,2.5.52,3.01,1.33,2.31,3.68,4.65,7.4,6.4,11.36,2.68,6.04,4.92,12.29,7.29,18.47.5,1.3,1.13,2.72,1.01,4.03-.12,1.31-.8,3.08-1.8,3.67-.98.57-2.96.33-4.01-.33-2.94-1.84-4.08-5.12-5.09-8.21-1.98-6.05-3.6-12.22-5.44-18.32-.42-1.4-1.13-2.71-1.67-4.08-.62-1.58-1.2-3.18-1.97-5.23Z" style="fill: #000; stroke-width: 0px;"/>
  <path d="M384.83,84.22c-.36,1.42-.39,2.73-1.01,3.65-.63.92-1.75,1.76-2.82,2.05-1.67.46-3.18-.36-3.87-1.97-1.71-4-3.24-8.08-4.92-12.1-2.93-7.03-5.92-14.03-8.88-21.05-.21-.5-.66-1.09-.54-1.52.29-1.12.55-2.57,1.36-3.14.56-.4,2.47.09,2.96.77,2.79,3.83,5.7,7.65,7.86,11.83,2.38,4.6,3.95,9.62,5.99,14.4.65,1.53,1.7,2.88,2.52,4.34.52.94.96,1.92,1.35,2.73Z" style="fill: #000; stroke-width: 0px;"/>
  <path d="M230.43,90.63c-1.16-1.02-2.46-1.65-2.94-2.68-.95-2.05-1.47-4.19.15-6.41,1.28-1.76,2.31-3.79,3.03-5.85,3.06-8.81,6.83-17.21,12.97-24.37,1.06-1.23,2.24-2.23,3.81-1.15,1.69,1.15,1.29,2.85.59,4.44-2.62,5.96-5.38,11.87-7.85,17.89-1.38,3.37-2.19,6.98-3.47,10.4-.73,1.95-1.75,3.85-2.95,5.54-.63.89-1.94,1.3-3.34,2.18Z" style="fill: #000; stroke-width: 0px;"/>
  <path d="M99.79,315.85c.28-1.53.21-3.24.91-4.55,1.23-2.28,1.33-4.61,1.26-7.04-.03-.94-.05-1.89.01-2.82.11-1.82,1.01-3.01,2.93-2.95,1.8.06,2.61,1.24,2.7,2.94.15,2.8-.1,5.69.47,8.4,1.34,6.32,3.08,12.55,4.64,18.82.3,1.21.91,2.51.71,3.64-.26,1.49-.88,3.19-1.92,4.19-1.35,1.3-3.38,1.06-4.76-.18-1.24-1.11-2.53-2.53-3-4.06-1.66-5.34-2.98-10.79-4.44-16.2.16-.07.31-.14.47-.21Z" style="fill: #000; stroke-width: 0px;"/>
  <path d="M511.98,316.24c-1.54,5.54-3.03,11.1-4.67,16.61-.3,1-1.04,1.95-1.79,2.72-1.55,1.58-3.47,2.27-5.55,1.14-2.06-1.11-2.66-3.02-2.09-5.23,1.63-6.35,3.49-12.65,4.9-19.05.7-3.16.71-6.49.86-9.75.14-2.97.9-4.24,2.91-4.2,1.91.04,2.77,1.29,2.77,4.08,0,3.19-.19,6.36,1.45,9.36.63,1.15.48,2.73.68,4.12.18.07.35.14.53.2Z" style="fill: #000; stroke-width: 0px;"/>
  <path d="M121.41,313.77c.65-2.26,1.53-5.05,2.23-7.89.27-1.08.3-2.29.12-3.39-.39-2.37.4-4.17,2.21-4.49,1.86-.33,3.42,1.25,3.84,3.58.28,1.56,1,3.04,1.3,4.6.36,1.88.41,3.82.73,5.71.57,3.39,1.31,6.74,1.82,10.14.19,1.28.13,2.66-.13,3.93-.52,2.56-2.51,4.13-4.96,4.21-2.58.08-4.8-1.42-5.31-4.06-.74-3.83-1.17-7.73-1.84-12.33Z" style="fill: #000; stroke-width: 0px;"/>
  <path d="M482.81,330.17c-3.43-.06-5.87-3.2-5.39-7.14.61-4.95,1.33-9.88,2.06-14.82.12-.83.61-1.6.87-2.41.41-1.3.77-2.62,1.15-3.93.19-.67.3-1.38.59-2,.66-1.43,1.8-2.24,3.4-1.82,1.58.42,2.48,1.69,2.07,3.2-.68,2.56.12,4.63,1.11,6.92.74,1.72.87,3.84.75,5.75-.26,4.05-.71,8.09-1.38,12.09-.45,2.68-2.67,4.19-5.24,4.15Z" style="fill: #000; stroke-width: 0px;"/>
  <path d="M195.91,106.5c-.49-.36-1.96-.91-2.39-1.91-.53-1.21-.61-2.96-.15-4.19,1.17-3.09,2.67-6.06,4.19-9,1.82-3.52,3.71-7.01,5.72-10.42,1.42-2.4,3.07-4.66,4.66-6.95.84-1.2,1.66-2.72,3.49-2.13,1.43.47,2.18,1.63,1.57,3.16-1.28,3.16-2.5,6.36-4.03,9.4-2.77,5.5-5.42,11.01-6.9,17.03-.67,2.72-3.2,4.91-6.16,5Z" style="fill: #000; stroke-width: 0px;"/>
  <path d="M418.95,102.7c-.89,1.16-1.52,2.7-2.64,3.23-1.05.5-3,.4-3.86-.29-1.44-1.16-2.65-2.86-3.39-4.58-2.08-4.83-3.82-9.81-5.81-14.68-1.5-3.66-3.16-7.25-4.8-10.85-.66-1.46-.44-2.88.99-3.33.88-.28,2.62.21,3.12.94,5,7.38,10.85,14.31,13.02,23.29.26,1.07,1.12,2,1.67,3.01.51.93.97,1.87,1.69,3.27Z" style="fill: #000; stroke-width: 0px;"/>
  <path d="M135.29,184.27c-3.86-.46-5.92-3.94-4.29-7.37,3.69-7.73,8.69-14.61,14.06-21.24.98-1.21,2.32-1.73,3.75-.83,1.37.86,1.32,2.2.72,3.53-2.64,5.81-5.29,11.61-7.95,17.4-.93,2.04-1.7,4.2-2.93,6.04-.73,1.08-2.22,1.66-3.36,2.46Z" style="fill: #000; stroke-width: 0px;"/>
  <path d="M476.33,183.81c-2.91.17-3.98-1.75-5.45-4.75-2.36-4.81-4.43-9.76-6.58-14.67-.91-2.06-1.92-4.1-2.51-6.26-.27-.98.11-2.92.7-3.16.97-.39,2.64-.11,3.49.57,1.3,1.04,2.25,2.58,3.19,4.01,3.74,5.74,7.58,11.43,11.06,17.34,1.91,3.24-.35,6.89-3.89,6.92Z" style="fill: #000; stroke-width: 0px;"/>
  <path d="M141.48,311.94c.17-.92.2-1.9.53-2.75.98-2.48,1.64-4.97,1.59-7.7-.03-1.56.92-2.94,2.77-2.89,1.72.04,2.55,1.36,2.61,2.84.26,5.92,2.7,11.32,3.84,17.03.17.84.42,1.69.46,2.54.09,2.26-1.37,4.33-3.35,4.88-2.16.6-4.54-.25-5.31-2.39-1.35-3.73-2.34-7.59-3.48-11.39l.33-.15Z" style="fill: #000; stroke-width: 0px;"/>
  <path d="M469.87,313.06c-.88,2.9-1.87,6.76-3.23,10.48-.78,2.13-3.21,2.95-5.34,2.32-2.03-.6-3.74-2.9-3.24-5.15,1.07-4.79,2.49-9.5,3.72-14.25.23-.89.3-1.82.42-2.74.14-1.08-.01-2.3.46-3.2.44-.83,1.52-1.81,2.33-1.82.81,0,2.16.97,2.35,1.75.95,3.82,1.59,7.71,2.53,12.61Z" style="fill: #000; stroke-width: 0px;"/>
  <path d="M436.02,113.16c-.87,1.13-1.41,2.5-2.35,2.88-.96.38-2.46.06-3.45-.46-.89-.46-1.58-1.54-2.06-2.49-2.71-5.34-5.32-10.72-7.97-16.09-.59-1.19-1.21-2.36-1.74-3.58-.7-1.59-1.11-3.23.74-4.34,1.78-1.08,3.07.09,4,1.34,1.72,2.3,3.21,4.77,4.82,7.16,1.87,2.78,3.99,5.42,5.57,8.36,1.15,2.13,1.6,4.64,2.45,7.22Z" style="fill: #000; stroke-width: 0px;"/>
  <path d="M175.87,112.18c-.14-4.46,2.53-7.44,4.74-10.65,2.25-3.27,4.41-6.6,6.61-9.91,1.75-2.64,3.27-3.47,4.81-2.61,1.75.98,1.72,2.49.21,5.57-1.91,3.9-3.58,7.93-5.5,11.82-1.31,2.65-2.84,5.2-4.34,7.76-1,1.7-2.53,2.77-4.51,2.08-1.93-.66-2.33-2.37-2.01-4.07Z" style="fill: #000; stroke-width: 0px;"/>
  <path d="M492.95,181.77c-1.27-2.26-2.5-4.54-3.83-6.77-1-1.68-2.13-3.27-3.15-4.94-.81-1.32-1.04-2.73.36-3.78,1.25-.94,2.33-.36,3.58.47,4.34,2.87,6.82,7.23,9.59,11.37.35.52.6,1.17,1.08,1.5,2.34,1.61,2.39,3.91,1.35,6.03-.53,1.09-2.17,2.16-3.39,2.27-2.35.2-4.45-.89-5.55-3.18-.39-.82-.49-1.78-.72-2.67.22-.1.45-.21.67-.31Z" style="fill: #000; stroke-width: 0px;"/>
  <path d="M111.91,188.05c-.5-.41-1.85-1.05-2.46-2.12-.94-1.65-1.14-3.57.16-5.31,1.96-2.61,3.77-5.36,5.9-7.83,2.01-2.34,4.26-4.51,6.61-6.5.56-.48,2.2-.31,2.93.17,1.33.87,1.04,2.32.28,3.56-1.79,2.93-3.7,5.8-5.39,8.79-.61,1.07-.98,2.4-1.04,3.64-.17,3.07-2.82,5.61-7,5.6Z" style="fill: #000; stroke-width: 0px;"/>
  <path d="M456.83,120.5c-1.35,1.38-2.22,2.66-3.42,3.4-1.66,1.04-3.46.48-4.68-.91-2.04-2.34-3.91-4.85-5.79-7.33-1.4-1.86-2.72-3.78-4.06-5.68-.94-1.34-1.79-2.79-.17-4.14,1.58-1.31,2.93-.37,4.07.84,1.71,1.82,3.24,3.83,5.08,5.51,1.9,1.75,4.14,3.12,6.11,4.81.98.84,1.67,2.01,2.86,3.49Z" style="fill: #000; stroke-width: 0px;"/>
  <path d="M160.15,124.38c-2.71-.06-4.66-1.65-4.89-3.53-.25-2.08.97-3.06,2.64-4.19,2.59-1.74,4.82-4.03,7.12-6.19,1.42-1.33,2.61-2.9,4-4.26,1.03-1.01,2.31-1.43,3.57-.36,1.26,1.07,1.06,2.38.19,3.56-3.27,4.45-6.52,8.92-9.94,13.25-.74.95-2.14,1.38-2.7,1.72Z" style="fill: #000; stroke-width: 0px;"/>
  <path d="M525.37,186.76c-.23,2.67-1.4,3.9-3.32,4.44-2,.56-4.08-.42-5.13-1.93-2.18-3.12-4.44-6.19-6.86-9.12-1.12-1.35-1.89-2.63-.89-4.19,1.08-1.68,2.91-1.8,4.37-.84,1.65,1.09,2.96,2.68,4.41,4.07,1.79,1.72,3.58,3.44,5.33,5.2.84.84,1.58,1.78,2.1,2.37Z" style="fill: #000; stroke-width: 0px;"/>
  <path d="M91.1,191.42c-2.8-.21-4.41-1.09-4.97-3.17-.51-1.88.74-2.88,2.07-4.06,2.32-2.05,4.22-4.55,6.48-6.68,1.21-1.14,2.69-2.2,4.24-2.67.89-.27,2.73.42,3.12,1.19.46.91.19,2.64-.44,3.56-2.36,3.46-4.9,6.81-7.58,10.04-.81.97-2.27,1.4-2.92,1.78Z" style="fill: #000; stroke-width: 0px;"/>
  <path d="M167.94,312.17c-.03,3.71-2.16,6.17-4.99,6.3-2.7.12-5.19-2.05-5.25-5.21-.05-2.98.33-6.02.92-8.96.48-2.4,3.58-3.07,4.89-1.12,1.54,2.28,2.75,4.78,4.01,7.24.34.66.35,1.5.41,1.76Z" style="fill: #000; stroke-width: 0px;"/>
  <path d="M453.95,310.74c-.18,1.43-.22,2.55-.49,3.6-.65,2.6-2.96,4.32-5.32,4.1-2.45-.23-4.69-2.22-4.65-4.82.03-2.04.65-4.15,1.4-6.07.6-1.54,1.66-2.97,2.78-4.22.59-.65,1.82-1.22,2.61-1.06.9.18,2.08,1.07,2.34,1.9.69,2.22.96,4.58,1.33,6.57Z" style="fill: #000; stroke-width: 0px;"/>
</svg>