<?xml version="1.0" encoding="UTF-8"?>
<svg id="Layer_1" data-name="Layer 1" xmlns="http://www.w3.org/2000/svg" viewBox="0 0 563.91 900">
  <path d="M257.49,0c6.99.64,15.35,1.44,23.73,2.12,1.27.1,2.58-.47,3.88-.58,22.65-1.98,45.22-2.17,67.34,4.17,13.96,4,26.43,10.82,37.48,20.3,1.87,1.61,4.21,2.76,6.48,3.79,14.77,6.73,29.93,12.7,44.31,20.17,38.41,19.93,65.46,50.36,81.24,90.71,2.89,7.39,5.92,14.76,8.23,22.34,1.15,3.78.68,8.03,1.27,12.01.17,1.18,1.22,2.58,2.27,3.21,6.17,3.67,13.02,6.43,18.59,10.83,11.2,8.85,14.5,24.1,8.97,36.91-3.03,7-8.03,11.76-15.84,12.61-3.16.35-3.08,1.71-2.93,4.25,1.11,18.36,2.39,36.71,2.76,55.09.13,6.08-2.35,12.18-3.4,18.32-.28,1.67.02,3.57.53,5.21,8.19,26.54,13.75,53.59,16.02,81.31,2.1,25.67,1.48,51.28-2.83,76.64-2.53,14.9-6.62,29.53-9.8,44.32-.49,2.26.11,4.78.34,7.17.11,1.18.67,2.32.77,3.5,1.78,20.79,2.03,41.6-.02,62.36-1.63,16.53-8.55,31.24-17.35,45.09-3.61,5.69-7.62,11.12-11.25,16.79-.98,1.53-1.99,3.6-1.76,5.26,2.74,19.66-1.17,38.47-7.86,56.68-5.84,15.9-12.1,31.74-19.61,46.89-9.16,18.48-23.89,32.36-40.84,43.97-19.25,13.19-40.17,23.23-61.29,32.9-3.21,1.47-4.73,3.35-5.35,6.83-2.25,12.48-8.57,22.69-19.57,29-10.6,6.07-21.53,11.88-32.93,16.19-16,6.04-31.7,4.91-45.57-6.59-.68-.56-2.64-.54-3.33.03-14.27,11.8-30.28,12.51-46.6,6.19-10.92-4.23-21.42-9.81-31.6-15.66-11.12-6.4-17.56-16.63-19.78-29.26-.62-3.55-2.35-5.29-5.49-6.73-21.32-9.81-42.46-19.95-61.86-33.36-16.7-11.54-30.83-25.48-40.32-43.53-4.8-9.13-8.48-18.86-12.58-28.36-6.17-14.29-10.9-29.04-13.86-44.34-1.84-9.53-2.19-19.13-.92-28.75.41-3.1-.47-5.48-2.11-8.07-6.68-10.56-13.57-21.03-19.5-32.01-6.07-11.24-9.21-23.64-9.37-36.42-.22-18.03.3-36.07.53-54.11.01-.96-.08-2.12.4-2.83,3-4.36.96-8.53-.28-12.74-8.16-27.65-12.03-55.92-12.56-84.7-.71-38.63,5.49-76.23,16.88-113.04.84-2.73.55-5.11,0-7.95-1.57-7.98-3.23-16.16-3.04-24.22.37-15.85,1.96-31.68,3.07-47.51.12-1.68.78-3.47-1.93-3.65-12.36-.82-18.14-12.32-19.05-21.23-1.27-12.4,2.85-22.68,12.96-29.94,5.12-3.68,11.03-6.3,16.72-9.11,2.07-1.02,2.51-1.87,2.43-4.27-.13-4,.29-8.2,1.44-12.02,16.88-55.76,50.75-96.8,104.77-120.22,9.6-4.16,19.29-8.12,28.91-12.24,1.97-.85,4.07-1.72,5.65-3.11,17.88-15.72,39.01-23.39,62.42-25.4,6.83-.59,13.69-.78,21.97-1.24ZM502.54,672.51c-1.18.34-2.28.78-3.42.98-7.22,1.24-14.43,2.51-21.67,3.57-2.31.34-4.81-.6-4.72-3.19.05-1.52,1.96-3.09,3.28-4.39.6-.6,1.81-.56,2.71-.88,6.12-2.15,12.23-4.37,18.37-6.47,3.47-1.19,4.94-3.2,4.21-7.06-.69-3.62-.66-7.44,3.31-9.46,3.8-1.94,6.29.64,9.01,3.69,2.08-3.98,3.95-7.58,6.1-11.7-2.04-.2-3.2-.33-4.37-.43-9.3-.79-17.78-4.19-25.9-8.47-1.3-.68-2.6-3.25-2.29-4.57.3-1.28,2.62-2.17,4.17-3.02.54-.3,1.41,0,2.13.07,9.7.95,19.4,1.95,29.1,2.81,1.29.12,3.36-.02,3.84-.79,1.39-2.28,2.16-4.94,3.19-7.49-.86-.32-1.18-.55-1.52-.55-1.08-.03-2.16.01-3.24.05-17.49.66-33.95-2.99-49.2-11.74-1.04-.6-2.38-1.08-2.94-2-.72-1.2-1.44-3.07-.98-4.13.46-1.06,2.32-1.81,3.69-2.09,1.05-.21,2.32.45,3.44.88,15.86,6.08,32.36,8.17,49.24,7.88,5.42-.09,7.19-2.65,5.64-8.06-15.4,1.44-20.34-.03-33.15-9.33-6.72-4.88-13.89-9.16-20.35-14.35-6.06-4.86-11.54-10.47-17.08-15.94-2.01-1.98-4.39-4.65-1.67-7.51,2.79-2.93,5.27-.35,7.51,1.41,4.26,3.35,8.45,6.78,12.69,10.14.66.52,1.45.89,1.99,1.21-12.31-70.94-22.71-141.87-20.69-214.09-.44.13-.73.13-.87.28-.57.61-1.11,1.26-1.64,1.91-14.73,17.67-32.34,32.22-50.61,45.96-6.65,5-14.27,8.51-22.67,9.82-14.66,2.3-28.31-11.92-24.5-26.32,1.61-6.08,4.85-12.07,8.62-17.16,5.86-7.9,12.92-14.9,19.25-22.47,11.66-13.94,20.12-29.59,24.82-47.24,3.37-12.68,3.81-25.68,4.53-38.65.92-16.82,4.25-32.94,13.66-47.3,4.42-6.75,9.62-12.78,17.12-16.11,6.92-3.08,14-5.83,21.17-8.28,14.98-5.13,30.19-9.2,46.3-7.58.65.07,1.35-.26,2.56-.52-.9-2.94-1.66-5.68-2.57-8.37-2.35-6.95-2.38-7.36-9.52-7.21-10.44.22-20.96.38-31.26,1.88-20.92,3.05-40.87,9.98-60.81,16.78-2.6.89-5.45,1.8-6.82-1.52-1.27-3.07,1.11-4.61,3.5-5.75,9.99-4.76,19.81-9.94,30.05-14.1,20.72-8.43,42.09-13.76,64.77-11,.52.06,1.08-.22,2.07-.45-1.02-2.58-1.91-4.91-2.87-7.2-.89-2.1-1.36-4.85-2.96-6.04-1.37-1.02-4.08-.14-6.19-.26-13.71-.76-27.13,1.43-40.49,4.01-17.49,3.38-34.93,6.98-52.4,10.45-2.6.52-5.35.66-6.25-2.55-.82-2.93,1.32-4.37,3.68-5.36,6.65-2.8,13.22-5.83,20-8.3,23.99-8.74,48.51-14.11,74.27-10.94.17.02.37-.24.8-.53-.42-.9-.75-1.92-1.33-2.77-3.97-5.88-8.03-11.7-11.97-17.59-2.01-3-4.22-4.71-8.06-2.97-1.31.59-3.08.11-4.64.2-11.87.69-23.89.49-35.59,2.33-15.66,2.47-31.07,6.52-46.58,9.9-2.38.52-4.76.63-5.88-2-1.12-2.62.47-4.34,2.63-5.59,22.97-13.34,47.32-21.97,74.26-21.77.88,0,1.76-.19,2.64-.28.17-.38.33-.75.5-1.13-6.61-4.49-13.2-9.02-19.88-13.41-.52-.34-2,.04-2.51.58-2.4,2.55-5.46,2.61-8.62,2.91-8.01.75-16.19.98-23.97,2.81-15.21,3.59-30.19,8.13-45.26,12.31-2.41.67-4.73.79-5.85-1.86-1.12-2.66.55-4.32,2.74-5.5,19.59-10.56,39.61-19.88,62.31-21.38.46-.03.91-.41,2.04-.94-6.36-3.06-12.22-5.55-17.77-8.61-10.05-5.53-21.11-6.26-31.84-5.07-11.87,1.31-23.54,4.73-35.21,7.6-6.53,1.61-12.83,4.15-19.34,5.83-1.51.39-4.25-.55-5.09-1.78-1.47-2.15.19-4.08,2.33-5.17,3-1.53,6.03-3.01,9.09-4.42,11.83-5.49,23.91-10.23,37.03-11.62,1.97-.21,3.95-.37,5.93-.55.12-.38.25-.75.37-1.13-4.64-2.31-9.3-4.6-13.93-6.93-2.87-1.44-5.56-2.14-8.13.75-.71.79-2.14,1.04-3.29,1.33-12.11,3.04-24.24,6.01-36.35,9.07-2.41.61-4.72.89-5.94-1.7-1.22-2.6.37-4.44,2.53-5.61,6.13-3.31,12.33-6.5,18.5-9.74.78-.41,1.55-.83,2.32-1.25-29.35-4.38-58.52-4.46-87.76-.33.96,1.02,2.03,1.46,3.04,2,5.84,3.1,11.7,6.17,17.48,9.36,2.16,1.19,3.71,3.04,2.42,5.63-1.28,2.56-3.62,2.39-5.97,1.58-.57-.2-1.13-.42-1.71-.56-11.31-2.79-22.63-5.54-33.92-8.39-1.59-.4-3.38-.9-4.53-1.95-1.8-1.66-3.51-1.92-5.56-.93-4.65,2.25-9.3,4.5-13.92,6.82-.62.31-1.02,1.03-1.62,1.66.59.26.8.43,1.02.44,18.29.83,34.48,8.23,50.51,16.14,2.22,1.09,4.05,2.62,3.05,5.34-1.02,2.78-3.45,2.71-5.78,1.93-16.79-5.63-33.77-10.39-51.29-13.29-9.77-1.62-19.09.84-28.58,1.96-.46.05-.88.37-1.32.58-6.48,3.18-12.97,6.35-19.43,9.55-.88.44-1.68,1.05-3.35,2.12,2.8.26,4.55.4,6.3.59,21.38,2.4,40.42,11.25,58.98,21.42.31.17.75.37.84.65.5,1.49,1.61,3.31,1.14,4.43-.48,1.14-2.51,1.95-3.98,2.22-1.17.22-2.54-.55-3.8-.94-22.9-7.02-45.68-14.56-70.03-14.75-1.64-.01-3.6-.91-4.82-2.04-1.78-1.64-3.19-1.74-5.05-.41-5.47,3.93-10.99,7.79-16.45,11.73-.58.42-.93,1.17-1.64,2.09,1.07.13,1.64.26,2.21.25,26.95-.41,51.35,8.02,74.35,21.35,2.29,1.33,4.58,2.85,3.31,5.91-1.26,3.03-3.95,2.56-6.53,1.91-4.9-1.23-9.81-2.45-14.72-3.64-22.64-5.49-45.44-9.68-68.91-8.41-1.4.08-2.86-.68-4.25-.55-1.59.15-3.72.37-4.57,1.42-3.78,4.67-7.26,9.59-10.69,14.52-1.68,2.42-3.04,5.06-4.88,8.17,1.54,0,2.21.02,2.89,0,6.72-.21,13.47-.91,20.16-.55,25.88,1.39,50.01,9.38,73.31,20.25.43.2,1.03.4,1.19.76.64,1.44,1.85,3.17,1.48,4.35-.37,1.17-2.3,2.21-3.73,2.59-1.28.34-2.83-.25-4.24-.53-20.67-4.03-41.27-8.45-62.03-11.95-10.96-1.85-22.18-2.1-33.29-3.01-.59-.05-1.59.37-1.8.84-2.01,4.43-3.9,8.91-6.05,13.92,1.67,0,2.47-.02,3.28,0,9.47.27,19.06-.32,28.38.99,23.95,3.35,45.54,13.53,66.63,24.82.32.17.78.32.88.59.57,1.46,1.87,3.38,1.37,4.34-.63,1.21-2.69,2.05-4.24,2.29-1.28.2-2.75-.67-4.11-1.13-30.72-10.44-61.53-20.43-94.67-18.29-.97.06-2.52.37-2.75.97-1.87,4.85-3.49,9.79-5.39,15.31,2.01,0,2.96.08,3.88-.01,9.71-1,19.33-.09,28.58,2.73,11.6,3.54,22.96,7.87,34.46,11.76,7.24,2.44,12.77,7.1,17.36,13,5.61,7.2,9.56,15.27,12.3,23.96,3.7,11.73,4.7,23.86,4.95,36.02.67,31.59,12,58.75,32.64,82.47,7.49,8.62,15.93,16.42,21.15,27.11,4.15,8.5,4.82,16.39-1.1,25.42-4.79,7.31-12.15,10.24-21.36,8.48-7.95-1.52-15.21-4.89-21.61-9.62-8-5.92-15.47-12.56-23.16-18.89-10.33-8.51-20.33-17.34-28.42-28.11-.32-.43-.83-.71-1.62-1.37,2.1,72.61-8.24,143.51-20.83,214.54.94-.67,1.89-1.29,2.77-2,4.33-3.45,8.64-6.93,12.96-10.39,1.99-1.59,4.18-2.93,6.42-.75,2.23,2.16,1.18,4.56-.57,6.41-4.7,4.96-9.1,10.37-14.46,14.52-9.7,7.5-19.91,14.35-30.1,21.19-7.8,5.24-16.42,7.34-25.79,5.11-.43-.1-.91-.01-1.35-.01-.87,6.56.31,8.04,6.42,8.12,16.63.23,32.89-1.87,48.52-7.87,1.01-.39,2.15-1.05,3.08-.86,1.49.31,3.57.92,4.06,2,.49,1.1-.42,3.06-1.16,4.39-.46.83-1.73,1.23-2.67,1.76-15.24,8.77-31.7,12.41-49.19,11.77-1.4-.05-2.81,0-4.72,0,.48,1.53.76,2.66,1.18,3.74,2.6,6.56,1.85,5.47,7.91,4.82,9.21-.99,18.44-1.79,27.67-2.65,2.54-.24,5.04-.02,5.79,2.97.68,2.74-1.16,4.2-3.37,5.26-8.52,4.05-17.19,7.57-26.8,7.96-.64.03-1.27.4-2.36.76,2.03,3.82,3.91,7.36,6.37,11.98.76-1.38.97-2.37,1.5-2.58,2.09-.85,4.38-2.22,6.41-1.96,2.9.37,4.1,3.11,4.24,5.97.08,1.55.03,3.16-.27,4.67-.55,2.71.36,4.44,2.93,5.35,7.13,2.54,14.25,5.1,21.4,7.59,2.39.83,4.82,1.76,4.3,4.84-.52,3.06-3.1,3.52-5.62,3.11-7.23-1.17-14.41-2.55-21.63-3.75-.97-.16-2.04.24-3.07.39.63,1.02,1.04,2.36,1.95,2.99,1.24.87,2.84,1.27,4.32,1.77,9,3.05,18.02,6.07,27.02,9.11,2.34.79,4.61,2.26,3.67,4.84-.57,1.56-2.94,3.33-4.64,3.49-10,.93-19.97.78-29.54-2.94-.63-.24-1.34-.27-2.01-.4-1.55,6.31.15,9.83,5.72,11.44,15.05,4.36,30.22,8.16,46.06,8.06,2.33-.01,4.42.63,5,3.21.57,2.57-.95,4.36-3.15,5-4.47,1.32-9.01,2.8-13.61,3.18-10.56.88-20.84-1.2-30.92-4.32-1.3-.4-2.62-.76-4.08-1.18.33,8.49,2.15,10.84,9.42,12.67,1.17.29,2.34.57,3.51.83,12.69,2.78,25.39,5.55,38.08,8.34,2.55.56,5.29,1.36,4.94,4.65-.35,3.26-3.09,3.72-5.76,3.47-12.8-1.19-25.59-2.48-38.39-3.72-.97-.09-1.94-.18-3.58-.33,1.59,3.66,3.07,6.55,4.11,9.59,1.72,5.03,5.12,7.49,10.33,8.14,11.22,1.41,22.41,3.07,33.62,4.6,2.53.35,5.06.93,5.06,4.03,0,3.38-2.71,3.94-5.38,3.96-9.37.08-18.75.05-28.13.08-.86,0-1.73.09-3.73.2,5.37,4.92,7.26,12.94,16.22,10.5.22-.06.48.03.72.06,11.13,1.05,22.27,1.98,33.38,3.27,1.6.19,3.84,1.87,4.29,3.33.78,2.5-1.35,3.92-3.73,4.25-6.55.93-13.11,1.74-19.67,2.59-1.13.14-2.26.2-3.39.3-.11.29-.22.58-.33.87,3.22,2.18,6.6,4.15,9.62,6.58,6.1,4.91,12.51,6.63,20.38,4.62,5.88-1.51,12.15-1.53,18.26-2.13,2.36-.23,4.47.44,5.05,3.02.58,2.61-1.16,3.97-3.32,4.87-1.33.55-2.69,1.04-4.05,1.54-3.11,1.13-6.23,2.24-10.43,3.75,9.25,5.33,17.57,10.12,26.55,15.29.14-2.24.17-3.64.32-5.02.44-3.94.65-7.93,1.49-11.78.79-3.6,3.75-5.69,6.75-5.35,3.49.4,5.47,2.72,5.79,5.97.3,3.09,1.86,4.85,4.43,5.99,5.71,2.53,11.32,5.38,17.21,7.39,6.7,2.29,13.66,3.82,20.53,5.63,2.41.64,4.54,1.7,4.14,4.54-.4,2.84-2.78,3.31-5.25,3.2-12.9-.56-25.72-1.62-37.9-6.42-.61-.24-1.32-.23-2.15-.36-.66,3.23-.16,5.78,2.85,7.15,2.94,1.34,5.9,2.79,9.01,3.54,5.6,1.36,11.38,2.01,16.96,3.43,1.6.41,3.58,2.22,3.98,3.75.65,2.52-1.52,3.91-3.88,4.17-5.73.64-11.48,1.09-17.22,1.6-1,.09-2,.13-3.99.25,3.7,3.71,6.32,7.75,10.8,8.08,6.91.5,13.9.11,20.84-.21,4.32-.2,8.6-1.25,12.91-1.3,1.64-.02,4.26,1.37,4.67,2.67.4,1.25-1.28,3.39-2.44,4.81-.68.83-2.1,1.09-3.23,1.5-3.56,1.28-7.15,2.52-10.91,3.84,9.64,5.74,30.5,3.4,37.54-3.29.25-3.09-.34-5.88.78-7.37,1.97-2.62,4.43-.67,6.65.68.62.37,1.87-.37,2.84-.5,1.87-.24,4.17-1.17,5.54-.43,2.26,1.23,1.62,3.68.47,5.75-.21.38-.21.89-.29,1.26,9.84,7.59,29.04,9.6,38.58,3.78-1.44-.44-2.55-.72-3.61-1.11-3.61-1.33-7.37-2.38-10.73-4.19-1.38-.74-2.67-3.26-2.47-4.77.14-1.09,2.81-2.69,4.32-2.65,10.67.27,21.33.86,31.99,1.46,4.37.25,10.13-3.43,11.98-8.23-1.29,0-2.46.09-3.61-.01-5.5-.49-11.01-.96-16.5-1.58-2.34-.27-4.21-1.45-4.17-4.13.04-2.7,2.04-3.61,4.33-3.99,2.61-.44,5.3-.57,7.83-1.29,6.09-1.72,12.19-3.51,18.13-5.67,3.04-1.1,3.56-3.85,2.63-7.01-.73.12-1.35.12-1.87.33-11.25,4.46-23.08,5.74-35.01,6.29-3.11.14-7.63,1.72-8.24-3.16-.58-4.58,3.99-4.31,6.96-5.04,12.06-2.96,24-6.21,34.93-12.38,2.46-1.39,4.12-2.96,4.39-6.04.29-3.33,2.34-5.65,5.8-5.89,3.46-.24,5.91,1.84,6.63,5.02.92,4.08,1.14,8.31,1.64,12.48.15,1.23.22,2.48.39,4.5,8.97-5.17,17.27-9.96,26.35-15.19-5.44-1.98-9.82-3.55-14.2-5.17-2.33-.86-4.21-2.25-3.56-5.05.66-2.81,2.99-3.16,5.44-2.92,4.55.44,9.3.24,13.61,1.52,11.12,3.31,20.42.42,28.89-6.84,1.65-1.42,3.56-2.53,5.35-3.78-1.55-.97-2.7-1.02-3.84-1.16-6.56-.84-13.15-1.5-19.64-2.73-1.5-.28-3.44-2.38-3.73-3.92-.44-2.37,1.77-3.46,4.02-3.61,13.03-.9,26.06-1.76,39.09-2.64.47-.03,1.09-.03,1.37-.32,3.26-3.34,6.46-6.74,10.2-10.65-9.47,0-17.63.05-25.78-.03-2.76-.03-5.62-.03-8.23-.77-1.33-.38-2.93-2.29-3.07-3.64-.11-1.08,1.57-2.83,2.86-3.47,1.54-.76,3.51-.66,5.3-.92,10.48-1.48,20.98-2.85,31.44-4.49,2.16-.34,5.09-1.06,6.09-2.61,2.85-4.44,4.88-9.4,7.59-14.87-2.02.2-2.82.27-3.62.35-12.79,1.26-25.59,2.53-38.39,3.76-1.06.1-2.4.24-3.17-.28-1.17-.79-2.52-2.05-2.74-3.29-.18-1.05.94-2.59,1.9-3.46.81-.73,2.19-.91,3.35-1.17,13.74-3.05,27.51-5.99,41.24-9.12,7.16-1.63,9.19-4.48,9.32-12.64-1.21.36-2.29.76-3.41,1-6.81,1.47-13.58,3.29-20.46,4.26-8.29,1.16-16.6.78-24.45-2.72-2.23-.99-4.06-2.44-3.44-5.21.57-2.56,2.67-3.22,5.01-3.21,15.72.1,30.77-3.63,45.72-7.94,6-1.73,7.65-4.93,6.11-11.69-1.25.39-2.48.75-3.7,1.16-9.33,3.17-18.94,3.2-28.57,2.25-1.47-.15-3.82-2.11-3.87-3.32-.06-1.52,1.56-3.41,2.93-4.6,1.09-.94,2.9-1.05,4.38-1.56,8.88-3.04,17.76-6.07,26.63-9.15,2-.69,3.9-1.57,2.48-4.67ZM68.16,248.5c-1.1.89-1.71,1.27-2.18,1.78-9.14,9.79-16.02,21.06-21.16,33.35-16.6,39.67-25.39,81.16-28.52,123.94-.07.96.14,1.93.23,2.99.75-.2,1.02-.2,1.21-.33,19.38-13.33,40.8-21.41,64.04-24.76,2.29-.33,3.11-1.53,3.01-3.63-.35-7.31-.71-14.62-1.08-21.94-.46-9.23-.97-18.45-1.37-27.68-.44-10.18,2.53-20.13,1.5-30.43-1.51-15.16-3.2-30.18-9.98-44.07-1.55-3.17-3.71-6.05-5.69-9.23ZM547.43,410.84c0-1.83.07-2.89,0-3.95-2.87-39.76-11.1-78.35-25.33-115.61-4.65-12.18-10.45-23.81-18.56-34.13-2.28-2.9-4.77-5.62-7.51-8.83-1.5,2.02-2.95,3.39-3.69,5.07-2.76,6.25-6.1,12.4-7.74,18.96-3.81,15.27-6.19,30.74-3.95,46.67,1.97,14.01.49,28.08-.73,42.11-.55,6.34-.62,12.72-1.02,19.08-.24,3.74,1.33,5.1,5.07,5.66,21.86,3.27,42.08,10.93,60.45,23.31.76.51,1.6.88,3.02,1.66ZM21.42,492.99c5.69,31.85,16.15,61.52,30.7,90.33,8.85-5.58,18.82-9.42,18-22.19-.05-.83.2-1.67.25-2.51,1.87-28.42,3.74-56.85,5.59-85.27.05-.76-.19-1.54-.41-3.17-16,12.99-33.28,21.6-54.13,22.8ZM542.3,493c-20.78-1.19-38.05-9.84-54.34-22.89,0,2.08-.05,3.1,0,4.11.62,11.17,1.14,22.34,1.93,33.5,1.42,20.03,2.99,40.05,4.55,60.07.1,1.28.27,2.92,1.08,3.71,4.71,4.61,9.77,8.79,16.15,11.64,14.45-28.72,24.97-58.32,30.63-90.15ZM61.1,468.45c.9-.21,1.39-.23,1.79-.43,3.44-1.72,6.7-4.08,10.34-5.03,3.19-.84,3.81-2.37,4.08-5.14,1.61-16.51,3.35-33.01,5.03-49.52.48-4.74.89-9.49,1.34-14.31-6.48.52-32.76,11.15-36.5,14.62,13.61,17.68,13.88,38.51,13.92,59.81ZM502.61,468.58c.06-21.41.37-42.35,14.67-60.92-12.26-4.87-24.21-9.62-36.73-14.59,0,2.6-.13,4.13.02,5.63,1.89,18.66,3.87,37.31,5.7,55.98.41,4.24.28,8.28,6.08,9.13,2.47.36,4.69,2.34,7.05,3.53.92.46,1.92.75,3.2,1.24ZM26.96,303.93c.27-.5.6-.97.79-1.49,7.84-21.15,17.08-41.57,31-59.56,1.31-1.69.76-2.7-.69-3.87-5.47-4.39-11.89-5.36-18.41-4.23-4.55.79-8.19,3.2-8.81,8.91-.9,8.35-2.82,16.58-3.89,24.92-1.5,11.69-2.05,23.43,0,35.31ZM537.03,304.93c.36-1.56.52-2.01.56-2.48,1.85-21.07-1.36-41.7-5.67-62.2-.25-1.18-1.47-2.47-2.58-3.12-7.95-4.66-15.59-3.19-23.04,1.41-2.4,1.48-2.53,2.87-.77,5.16,10.33,13.42,18.08,28.31,24.55,43.9,2.24,5.4,4.35,10.86,6.94,17.33ZM535.99,553.36c-.24-.03-.48-.07-.71-.1-5.23,10.62-10.46,21.24-15.94,32.37,2.32.12,4.09.36,5.83.27,2.5-.13,5.04-.95,7.46-.65,2.72.34,3.49-.62,3.52-2.99.09-6.59.25-13.19.26-19.78,0-3.04-.27-6.08-.42-9.12ZM28.26,552.9c-.35.79-.6,1.09-.6,1.39-.03,9.38-.05,18.76-.04,28.14,0,2.21.83,3.26,3.36,2.79,1.58-.29,3.31.31,4.98.36,2.66.07,5.32.02,8.4.02-5.49-11.16-10.67-21.68-16.09-32.7Z" style="fill: #000; stroke-width: 0px;"/>
  <path d="M377.55,739.89c-12.69.89-25.45,1.22-38.05,2.81-20.87,2.64-39.07-2.72-54.93-16.32-2.13-1.83-3.48-1.54-5.51.17-14.85,12.53-31.85,19.01-51.37,16.29-17.39-2.42-34.76-2.4-52.2-1.67-3.6.15-7.22,0-10.82.05-3.56.05-6.86-.34-9.74-2.9-1.15-1.03-3.05-1.36-4.67-1.69-9.34-1.94-13.86-9.81-10.18-18.81,1.84-4.52,4.43-8.83,7.24-12.84,10.12-14.42,23.37-25.79,36.64-37.15,19.1-16.36,40.35-28.68,64.91-34.83,3.73-.93,7.48-1.85,11.28-2.36,7.2-.98,13.58,1.29,19.07,5.91,1.9,1.6,3.22,1.78,5.23.08,6.8-5.78,14.66-7.32,23.33-5.4,23.63,5.25,45.13,14.97,64.06,30.19,16.24,13.06,32.27,26.34,44.62,43.38,2.66,3.68,4.87,7.74,6.83,11.84.99,2.07,1.41,4.65,1.31,6.97-.39,8.97-2.5,11.24-11.25,13.06-1.4.29-3.09.49-4.04,1.37-3.55,3.33-7.85,3.21-12.19,3.21-6.49,0-12.99,0-19.48,0-.02-.45-.05-.89-.07-1.34ZM186.31,719.48c.08.28.15.56.23.85,1.46-.44,2.97-.73,4.36-1.33,6.84-2.95,13.7-5.89,20.47-9,16.15-7.42,32.55-13.84,50.75-13.7,7.43.06,14.87-.05,22.3-.23,14.69-.35,29.42-.49,43.5,4.39,9.63,3.34,18.96,7.58,28.39,11.48,5.78,2.39,11.49,4.92,17.27,7.32,1.06.44,2.25.55,3.38.81-3.64-3.22-7.46-5.68-11.36-8-16.96-10.05-33.49-20.94-51.04-29.83-21.36-10.82-43.75-10.47-65.38-.1-11.36,5.44-22.15,12.1-33,18.56-10.1,6.02-19.92,12.5-29.87,18.78Z" style="fill: #000; stroke-width: 0px;"/>
  <path d="M247.66,567.44c.95-1.15,1.41-1.66,1.82-2.22,5.49-7.47,14.79-8.74,21.66-2.59,2.06,1.85,3.11,1.28,4.78-.09,5.84-4.78,6-4.83,11.83,0,1.98,1.64,3.09,1.52,5.08-.17,6.9-5.85,16.08-4.52,21.42,2.8.4.55.87,1.06,1.84,2.25.52-2.16,1.07-3.68,1.23-5.24.25-2.51.13-5.05.36-7.57.29-3.19,1.85-5.62,5.19-6.02,3.32-.39,5.4,1.59,6.57,4.55,2.06,5.2,2.15,5.26,7.61,4.39,4.17-.67,5.45-2.03,5.41-7.03-.12-12.85-2.66-25.27-6.44-37.55-3.21-10.43-5.74-21.09-8.13-31.75-.68-3.04-.49-6.62.44-9.59.83-2.66,2.81-5.42,5.08-7,1.52-1.06,4.88-.87,6.58.15,1.53.92,3.07,4.07,2.62,5.67-4.2,14.73.6,28.65,3.78,42.58,2.43,10.63,4.41,21.18,4.04,32.1-.08,2.4-.14,4.82-.49,7.2-1.34,9.26-6.12,13.63-15.53,13.63-3.39,0-5.04,1.02-6.43,4.14-2.6,5.82-7.58,8.8-13.84,9.72-10.6,1.57-20.36-.84-29.28-6.52-2.32-1.48-3.85-1.31-6.09.09-8.85,5.54-18.48,7.96-28.96,6.47-6.85-.97-11.93-4.42-14.6-10.86-.94-2.26-2.14-2.98-4.56-2.99-11.42-.05-16.33-4.52-17.14-15.9-.76-10.73,0-21.34,2.55-31.88,2.42-10.04,4.27-20.23,6.14-30.39.96-5.22,1.22-10.45-.78-15.65-1.17-3.05-.46-6.1,2.63-7.84,3.01-1.7,5.87-.83,8.25,1.44,3.31,3.15,4.63,7.36,3.84,11.57-1.96,10.48-3.86,21.06-7.01,31.22-3.73,12.02-6.85,24.05-7.77,36.61-.08,1.08-.17,2.16-.19,3.24-.15,7.77,1.75,9.72,9.48,9.33,1.03-.05,2.1-1.31,2.94-2.21.44-.46.38-1.37.61-2.05,1.11-3.15,3.15-5.14,6.69-4.9,2.93.2,5.01,2.72,5.26,6.34.17,2.4.05,4.82.28,7.21.15,1.58.7,3.12,1.22,5.3Z" style="fill: #000; stroke-width: 0px;"/>
  <path d="M296.99,239.7c-9.86-3.99-20.31-1.81-30.85-.8-4.23.4-8.74-1.09-12.99-2.23-1.97-.52-3.81-2.04-5.35-3.49-2.17-2.05-2.91-4.78-1.61-7.59,1.3-2.8,3.79-3.92,6.81-3.76,1.19.06,2.39.28,3.55.56,17.03,3.99,34.04,3.92,51.05-.07,1.05-.25,2.13-.44,3.2-.49,3-.12,5.55.85,6.76,3.77,1.22,2.94.66,5.83-1.83,7.85-1.92,1.56-4.13,3.05-6.45,3.76-3.75,1.14-7.71,1.6-12.29,2.48Z" style="fill: #000; stroke-width: 0px;"/>
  <path d="M293.08,385.4c-3.24-.56-6.65-1.17-10.06-1.74-.69-.11-1.45-.28-2.09-.09-9.99,2.84-19.77,1.56-29.42-1.51-2.27-.72-4.47-1.81-6.49-3.08-3.06-1.92-4.12-5.22-2.97-8.1,1.16-2.9,4.13-4.5,7.74-3.8,2.1.41,4.11,1.31,6.16,1.99,8.31,2.78,16.62,5.58,24.94,8.32.62.2,1.44.15,2.07-.06,8.77-2.91,17.53-5.87,26.29-8.82,1.03-.35,2.03-.76,3.07-1.06,4.27-1.26,7.83-.01,9.29,3.23,1.49,3.31-.03,7.18-4.22,9.12-3.68,1.71-7.59,3.08-11.54,3.97-4.07.93-8.32,1.1-12.76,1.64Z" style="fill: #000; stroke-width: 0px;"/>
  <path d="M263.87,310.29c-11.41-.24-20.12-1.9-28.27-5.8-2.35-1.12-4.63-2.63-6.5-4.43-2.06-1.97-2.5-4.68-1.02-7.31,1.5-2.64,3.97-3.38,6.82-2.84,1.16.22,2.3.7,3.37,1.23,11.62,5.66,23.82,9.02,36.8,9.25.48,0,1.09-.13,1.42.11,1.44,1.03,2.81,2.17,4.2,3.27-1.17,1.46-2.11,3.86-3.55,4.22-5.1,1.27-10.38,1.84-13.27,2.3Z" style="fill: #000; stroke-width: 0px;"/>
  <path d="M300.7,310.39c-3.46-.53-8.56-1.26-13.63-2.12-2.32-.4-4.17-1.62-3.98-4.28.2-2.71,2.26-3.51,4.61-3.54,13.7-.17,26.53-3.73,38.78-9.74,3.9-1.91,7.44-.95,9.2,2.06,1.72,2.95.76,6.58-2.83,9-9.19,6.19-19.66,7.97-32.15,8.63Z" style="fill: #000; stroke-width: 0px;"/>
  <path d="M266.46,350.09c-8.08-1.68-16.22-3.16-24.22-5.16-2.69-.67-5.22-2.46-7.49-4.18-2.8-2.12-3.41-5.57-1.93-8.03,1.51-2.51,4.65-3.39,8-2.05,2.57,1.03,4.97,2.54,7.59,3.33,8.27,2.48,16.62,4.73,24.94,7.04,1.04.29,2.39.09,3.12.69,1.25,1.03,3.02,2.59,2.92,3.8-.09,1.23-2.05,3.07-3.42,3.29-3.04.5-6.22.16-9.35.16-.06.37-.13.75-.19,1.12Z" style="fill: #000; stroke-width: 0px;"/>
  <path d="M296.82,349.12c-2.4,0-4.8.05-7.2-.01-2.63-.07-5.41-.37-5.54-3.75-.12-3.14,2.56-3.5,4.95-4.16,9.57-2.64,19.13-5.37,28.65-8.18,1.82-.54,3.47-1.65,5.26-2.35,3.45-1.34,6.44-.53,7.96,2.05,1.49,2.52,1.03,6.11-1.9,7.99-3.58,2.3-7.49,4.52-11.57,5.54-6.71,1.68-13.67,2.38-20.52,3.49-.03-.21-.06-.42-.09-.62Z" style="fill: #000; stroke-width: 0px;"/>
  <path d="M301.7,259.42c5.81-.71,11.63-1.36,17.43-2.14,3.44-.47,6.24.81,7.09,3.47.86,2.69-.51,5.79-3.71,6.91-2.9,1.02-6.13,2.05-9.09,1.75-7.6-.77-15.15-2.2-22.68-3.55-2.3-.41-4.38-2.08-3.4-4.52.56-1.41,2.92-2.76,4.59-2.92,3.19-.32,6.46.23,9.7.42.03.19.05.39.08.58Z" style="fill: #000; stroke-width: 0px;"/>
  <path d="M252.79,270.22c-4.22-.88-7.92-1.35-11.4-2.49-3.18-1.03-4.67-4.19-3.93-6.82.78-2.75,3.59-4.5,6.93-3.6,8.3,2.25,16.67,1.44,25.04,1.1.84-.03,1.85-.43,2.48-.09,1.63.87,3.09,2.05,4.62,3.11-1.13,1.47-2.02,3.87-3.44,4.26-6.8,1.83-13.74,3.12-20.29,4.53Z" style="fill: #000; stroke-width: 0px;"/>
  <path d="M372.49,498.09c4.65,1.02,9.39,1.74,13.92,3.14,3.81,1.17,5.5,4.57,4.48,7.48-1.04,2.99-4.15,4.28-8.1,3.42-6.44-1.41-12.89-2.78-19.34-4.18-2.47-.53-4.88-1.36-4.77-4.42.11-3.05,2.57-3.78,5.06-4.09,2.85-.35,5.72-.56,8.59-.83.05-.17.1-.35.16-.52Z" style="fill: #000; stroke-width: 0px;"/>
  <path d="M191.67,498.55c3.22.38,6.53.41,9.61,1.28,1.48.42,3.45,2.37,3.5,3.69.05,1.33-1.8,3.58-3.2,3.95-7.32,1.91-14.73,3.48-22.16,4.9-2.99.57-5.58-.65-6.49-3.82-.89-3.1.45-5.83,3.31-6.78,4.95-1.64,10.13-2.59,15.22-3.83.07.21.15.41.22.62Z" style="fill: #000; stroke-width: 0px;"/>
  <path d="M394.47,563.58c-7.28-2.31-14.63-4.45-21.79-7.08-1.23-.45-2.63-3.22-2.28-4.43.36-1.21,2.86-2.62,4.34-2.53,7.29.45,14.56,1.34,21.83,2.14,3.55.39,5.87,2.85,5.65,5.81-.24,3.23-3.17,5.25-7.45,5.13-.1.32-.2.63-.3.95Z" style="fill: #000; stroke-width: 0px;"/>
  <path d="M170.25,562.59c-5.7.17-8.69-1.98-8.73-5.38-.04-3.25,2.68-5.28,7.01-5.64,6.32-.53,12.62-1.23,18.92-1.96,2.5-.29,5.07-.62,6,2.35.94,3-1.27,4.4-3.65,5.25-4.17,1.49-8.37,2.93-12.63,4.13-2.64.74-5.41.98-6.93,1.24Z" style="fill: #000; stroke-width: 0px;"/>
  <path d="M390.68,538.76c-7.46-.35-13.27-3.14-18.23-7.52-1.1-.97-1.7-3.61-1.18-4.98.41-1.09,2.93-2.1,4.4-1.96,6.07.6,12.1,1.62,18.13,2.55,3.02.47,5.25,2.06,5.48,5.29.23,3.22-1.73,5.15-4.66,6.02-1.47.44-3.07.48-3.95.6Z" style="fill: #000; stroke-width: 0px;"/>
  <path d="M172.93,538.73c-.56-.05-1.41-.06-2.23-.19-3.92-.61-6.37-3.04-6.28-6.2.09-3.2,2.69-5.18,6.73-5.63,5.1-.57,10.18-1.37,15.24-2.22,2.48-.42,4.96-.9,6.25,1.88,1.27,2.75-.52,4.5-2.56,6-5.03,3.69-10.48,6.28-17.15,6.37Z" style="fill: #000; stroke-width: 0px;"/>
  <path d="M195.04,469.94c2.54.21,4.7,0,6.56.66,1.49.53,3.37,1.96,3.65,3.29.28,1.32-.84,3.86-2.02,4.39-4.11,1.87-8.41,3.53-12.82,4.44-3.89.81-6.99-1.77-7.48-5.09-.49-3.34,1.75-6.17,5.79-6.98,2.22-.45,4.52-.53,6.31-.72Z" style="fill: #000; stroke-width: 0px;"/>
  <path d="M368.89,469.88c2.1.3,4.77.43,7.29,1.11,3.32.89,5.12,3.76,4.54,6.82-.63,3.32-3.13,5.47-6.13,4.89-4.98-.96-9.82-2.8-14.56-4.69-.97-.39-1.91-2.76-1.63-3.92.33-1.34,1.83-2.9,3.17-3.35,2.1-.71,4.49-.58,7.32-.86Z" style="fill: #000; stroke-width: 0px;"/>
</svg>