<?xml version="1.0" encoding="UTF-8"?>
<svg id="Layer_1" data-name="Layer 1" xmlns="http://www.w3.org/2000/svg" viewBox="0 0 652.92 900">
  <path d="M35.31,254.72c-2.17,0-3.85.16-5.49-.03-5.66-.66-11.48-.79-16.92-2.3-9.85-2.75-13.96-9.76-12.68-19.96,1.17-9.29,5.07-17.39,10.81-24.71,11.79-15.03,25.23-28.54,38.69-42.04,23.39-23.46,46.92-46.8,70.24-70.33,7.82-7.89,16.9-13.82,27.06-17.89,13.84-5.54,27.9-10.53,41.95-15.52,2.68-.95,3.43-2.03,3.18-4.81-.5-5.6-.67-11.24-.73-16.87-.07-6.47,2.9-11.31,8.52-14.53,8.87-5.07,18.55-8.06,28.19-11.22,9.97-3.27,19.78-7.05,29.66-10.62,2.82-1.02,5.58-2.28,8.47-3.04,10.5-2.74,18.05,1.01,22.14,11.1,1.88,4.66,1.76,4.15,6.29,3.28,9.77-1.89,19.57-3.37,29.63-2.6,8.39.65,16.84.58,25.24,1.14,3.63.24,7.22,1.16,10.79,1.95,1.83.4,2.89-.06,3.41-1.86.26-.9.63-1.77,1.02-2.62,4.19-9.32,11.33-12.94,21.24-10.52,2.99.73,5.86,1.97,8.77,3.01,10.68,3.82,21.4,7.54,32.03,11.5,8.34,3.1,16.68,6.26,24.82,9.84,6.98,3.07,10.21,8.82,9.84,16.52-.26,5.34-.31,10.7-.76,16.03-.21,2.47.52,3.51,2.88,4.18,17.65,5.03,34.88,11.22,51,20.05,5.94,3.25,11.74,7.27,16.53,12.01,31.27,30.99,62.36,62.15,93.21,93.55,7.4,7.54,13.88,16.03,20.39,24.38,4.64,5.95,6.92,13.07,7.95,20.54,1.4,10.15-2.92,17.49-12.86,20.1-5.81,1.53-12.02,1.58-18.05,2.24-1.27.14-2.56.02-4.06.02.12.82.06,1.33.26,1.67,7.62,12.95,11.43,27.21,13.25,41.89,3.9,31.48,7.87,62.98,10.55,94.58,1.2,14.11-.36,28.49-1.15,42.72-1.09,19.49-2.43,38.98-4.08,58.43-.79,9.34-2.44,18.61-3.89,27.87-1.18,7.57-5.28,13.11-12.26,16.45-5.08,2.43-10.17,4.84-15.17,7.41-1.15.59-2.38,1.65-2.88,2.79-3.16,7.31-5.78,14.87-9.2,22.05-12.1,25.37-19.61,52.12-24.72,79.65-1.22,6.55-2.73,13.05-4.44,19.49-.93,3.51-2.17,7.05-3.94,10.21-2.11,3.78-2.72,7.48-1.67,11.61,1.97,7.73,3.54,15.62,7.75,22.54,1.21,1.99,2.96,4.03,4.97,5.1,10.75,5.7,15.53,14.68,14.93,26.55-.64,12.82-4.61,24.88-9.6,36.57-2.69,6.29-8.03,10.23-14.4,12.25-5.15,1.63-10.54,2.56-15.89,3.44-2.45.4-4.04,1.25-5.39,3.38-4.32,6.81-8.83,13.49-13.35,20.18-3.75,5.56-9.04,8.33-15.73,9.17-25.93,3.27-51.88,5.72-78.05,3.79-2.99-.22-5.99-.43-8.98-.78-6.1-.71-4.91-.35-7.31,4.19-1.66,3.14-3.49,6.23-5.63,9.06-5.37,7.09-12.62,10.74-21.53,11.02-6.47.2-12.95.48-19.42.53-2.69.02-3.86.86-3.94,3.71-.1,3.55-.61,7.11-1.13,10.63-.68,4.57-2.89,8.3-6.74,10.95-5.33,3.67-10.59,7.44-16.03,10.94-10.99,7.08-22.1,6.97-33.05-.1-5.35-3.46-10.53-7.2-15.8-10.79-3.97-2.71-6.16-6.53-6.86-11.19-.54-3.62-.96-7.26-1.17-10.91-.13-2.26-.99-3.17-3.24-3.19-5.54-.07-11.08-.53-16.61-.39-14.42.38-23.92-6.75-30.15-19.15q-2.88-5.73-9.38-5.14c-24.32,2.2-48.56,1.53-72.75-1.78-4.74-.65-9.5-1.15-14.26-1.68-5.56-.62-10.02-3.19-13.18-7.74-4.82-6.93-9.54-13.92-14.09-21.03-1.46-2.28-3.02-3.51-5.79-3.65-6.91-.37-13.54-2-19.72-5.22-5.1-2.66-9.01-6.58-11.1-11.91-4.05-10.33-7.47-20.88-8.71-31.97-1.04-9.24.55-17.87,7.66-24.58,2.02-1.9,4.68-3.11,6.83-4.89,1.97-1.64,4.11-3.36,5.36-5.51,4.45-7.64,6.49-16.18,8-24.79.38-2.16.11-4.88-.92-6.77-3.9-7.12-5.82-14.84-7.48-22.65-3.96-18.64-6.85-37.57-13.41-55.52-5.31-14.53-11.74-28.64-17.62-42.95-1.64-3.99-2.95-8.11-4.7-12.05-.62-1.39-1.88-2.8-3.22-3.51-5.05-2.68-10.26-5.07-15.4-7.58-6.56-3.2-10.6-8.46-11.65-15.6-1.81-12.34-3.65-24.7-4.75-37.12-1.72-19.44-2.66-38.96-4.25-58.41-1.62-19.75-.72-39.39,1.67-59.01,2.87-23.57,5.52-47.18,8.68-70.71,1.89-14.11,5.58-27.8,12.75-40.31.26-.46.35-1.01.75-2.21ZM394.48,429.48c2.57-.91,3.84-2.54,4.14-4.87.58-4.46,1.08-8.94,1.6-13.41.21-1.84-.93-2.48-2.48-2.76-7.66-1.38-15.27-3.28-22.99-4.01-8.17-.77-15.14-3.62-21.66-8.44-5.55-4.1-9.37-8.99-9.26-16.09.12-7.76.75-15.51.89-23.27.22-12.11,3.83-23.34,9.21-33.95,4.79-9.45,10.41-18.46,15.56-27.73,2.88-5.17,2.6-5.62-2.8-7.96-1.77-.76-2.92-.6-4.01,1.11-1.32,2.04-2.7,4.13-4.42,5.82-5.97,5.88-10.72,12.33-12.75,20.75-1.17,4.86-5.18,7.53-10.23,7.96-3.92.33-7.88.55-11.8.37-12.6-.58-14.35-2.21-18.24-14.2-1-3.09-2.99-5.98-4.99-8.61-3.05-4.03-6.56-7.71-9.73-11.65-2.17-2.7-2.5-2.7-7.39-.11-2.68,1.42-1.46,3.15-.58,4.68,3.86,6.76,7.98,13.38,11.75,20.19,7.43,13.39,13.49,27.25,13.86,42.95.05,2.15.45,4.29.71,6.43.93,7.87,1.22,15.73-.87,23.49-.31,1.16-.6,2.52-1.36,3.34-6.36,6.82-13.45,12.55-23.02,14.16-9.34,1.57-18.68,3.11-28.03,4.65-1.85.31-3.21.9-2.9,3.24.47,3.53.62,7.11,1.2,10.62.33,1.97.95,4.04,1.98,5.72,1.02,1.66,2.42,2.04,3.75-.28,5.41-9.42,15.86-12.86,27.48-9.26,1.13.35,2.36,1.4,2.91,2.46,1.7,3.22,3.79,6.47,4.46,9.95,2.15,11.13,4.51,22.31,5.33,33.57,1.16,15.89,1.26,31.88,1.25,47.83,0,4.53-1.63,9.2-3.25,13.52-.85,2.26-3.05,4.24-5.07,5.79-5.19,3.98-10.76,2.88-16.29.56-1.17-.49-2.36-.92-3.89-1.51-.75,3.84-1.49,7.3-2.09,10.78-.31,1.75.7,2.73,2.38,2.74,3.09.03,6.22.17,9.27-.22,5.64-.72,10.93.03,16.19,2.23,7.03,2.95,11.93,7.39,12.38,15.47.09,1.71.95,2.3,2.5,2.3,2.15,0,4.3.04,6.45.04,6.7,0,13.39-.04,20.09-.04,1.83,0,2.16-1.04,2.49-2.66.51-2.52,1.05-5.25,2.42-7.34,4.79-7.32,12.4-9.66,20.56-10.21,4.74-.32,9.55.36,14.33.48,1.45.04,3.15-.35,2.89-2.25-.51-3.75-1.35-7.45-2.09-11.36-2.92,1.08-5.32,2.16-7.82,2.86-7.33,2.06-14.32-.62-17.33-7.29-1.81-4.02-3.12-8.55-3.38-12.93-.41-6.81.2-13.68.49-20.52.72-16.67-.03-33.45,3.39-49.91,1.25-6.03,3-11.98,4.84-17.86,1.35-4.33,4.32-6.73,9.13-7.53,9.51-1.58,18.38,1.98,23.5,10.2.39.62.83,1.22,1.34,1.97ZM301.41,264.19c.15,3.07.69,6.03.32,8.87-.46,3.53.8,5.87,3.32,8.07,7.19,6.26,12.11,13.98,14.64,23.22.72,2.65,3.31,4.09,6.69,4.09,3.49,0,5.91-1.55,6.91-4.25,1.1-2.98,2.23-5.97,3.51-8.88,2.75-6.25,7.49-10.92,12.29-15.59,1.12-1.09,1.97-3.03,2-4.6.24-13.89.27-27.8,3.81-41.37,1.33-5.11,1.68-10.9,6.06-14.56,3.28-2.74,3.77-5.66,2.14-9.11-.83-1.75-2.14-3.43-3.63-4.65-1.87-1.53-4.24-2.41-6.23-3.8-17.73-12.41-26.92-28.77-23.95-51,.98-7.33,1.15-14.77,1.67-22.16.24-3.37-1.28-4.85-4.75-4.69-3.5.16-4.54,1.32-4.26,4.92.66,8.6,1.25,17.21,2.05,25.81,1.24,13.33-2.62,25.04-11.03,35.31-5.37,6.55-11.97,11.6-19.43,15.56-4.86,2.58-5.74,9.09-2.23,13.17,2.02,2.35,3.79,5.19,4.76,8.11,4.04,12.22,5.47,24.87,5.38,37.54ZM327.06,766.36c.99-.58,2.48-1.99,4.21-2.4,6.72-1.57,13.47-3.45,20.31-4.06,14.1-1.26,28.26-1.79,42.39-2.58,1.87-.11,2.61-1.01,2.75-2.82.19-2.43.44-4.87.91-7.25.5-2.51-.22-4.38-2.17-5.95-2.99-2.41-6.06-4.76-8.85-7.39-2.08-1.97-4.3-2.82-7.1-2.63-9.68.69-18.97-.71-28.12-4.2-5.78-2.21-11.73-4.53-18.28-3.6-1.55.22-3.24-.78-4.9-1.03-1.15-.18-2.35-.16-3.51-.03-2.67.3-5.32.76-8,1.06-1.57.17-3.24-.15-4.73.26-4.34,1.2-8.69,2.41-12.88,4.05-6.84,2.68-13.85,4.22-21.17,3.47-5.81-.59-10.69.74-14.63,5.21-.98,1.11-2.26,1.99-3.5,2.82-3.82,2.57-5.67,5.78-4.1,10.5.49,1.48.46,3.15.53,4.74.08,1.83.89,2.69,2.75,2.81,5.99.39,11.97.93,17.96,1.31,12.9.82,25.92.41,38.61,3.4,3.74.88,7.27,2.7,11.5,4.32ZM581.27,238.64c.13-.18.26-.36.39-.55,1.56-.28,3.23-.32,4.68-.9,4.78-1.93,9.5-4.02,14.22-6.1,3.43-1.51,6.71-3.47,10.26-4.56,5.14-1.57,6.37-3.21,5.03-8.57-1.84-7.39-6.1-13.44-10.7-19.3-11.97-15.27-25.66-28.95-39.9-42.03-11.25-10.33-23.01-20.18-35.13-29.46-10.76-8.24-24-11.83-36.44-16.79-1.02-.41-3.51.37-3.74,1.1-.37,1.16.13,3.31,1.06,4.05,3.44,2.73,7.11,5.21,10.86,7.51,7.6,4.66,15.49,8.86,22.93,13.75,23.62,15.51,43.62,34.91,60.63,57.41,5.6,7.41,11.03,14.94,16.54,22.42,1.1,1.49,1.15,2.58-.85,3.46-4.89,2.16-9.76,4.38-14.54,6.79-2.69,1.35-4.19.95-5.9-1.71-5.65-8.79-11.85-17.22-20.27-23.59-10.18-7.69-20.58-15.1-30.89-22.62-.45-.33-1.01-.75-1.49-.72-.96.05-2.21.1-2.76.69-.55.59-.69,1.92-.48,2.79.2.81,1.06,1.49,1.68,2.18,8.93,9.87,18.17,19.48,26.7,29.69,6.36,7.6,13.06,14.76,20.65,21.07,2.13,1.77,4.96,2.69,7.47,4ZM71.56,238.54c2.37-1.21,5.43-2.05,7.48-3.96,6.43-6,12.95-12.02,18.58-18.76,9.2-11.03,18.11-22.29,28.74-32.01,1.46-1.34,2.84-2.9,1.26-4.81-1.59-1.93-3.36-.81-4.96.35-5.15,3.76-10.16,7.75-15.5,11.23-14.43,9.41-26.76,20.88-35.79,35.66-1.08,1.77-2.31,1.85-4,1.05-4.92-2.33-9.87-4.58-14.81-6.88-3.13-1.46-3.22-1.56-1.25-4.46,11.23-16.59,23.64-32.26,37.5-46.71,17.09-17.81,36.83-32.2,58.38-44.18,4.98-2.77,9.65-6.12,14.4-9.3,1.5-1.01,2.46-2.51,1.4-4.35-1.06-1.83-2.79-1.63-4.48-.97-2.71,1.05-5.41,2.14-8.11,3.21-12.22,4.87-24.22,10-34.67,18.38-18.93,15.19-36.58,31.74-53.13,49.45-7.03,7.52-13.57,15.57-19.6,23.92-2.99,4.13-4.65,9.35-6.28,14.29-1.15,3.48.74,5.69,4.27,6.58,1.62.41,3.21,1.01,4.73,1.71,5.72,2.61,11.36,5.4,17.13,7.89,2.55,1.1,5.33,1.65,8.73,2.67ZM38.56,427.53c.83,10.6,1.73,24.64,3.11,38.64,1.03,10.54,2.23,21.11,4.17,31.51,2.11,11.29,6.68,15.36,18.08,16.17,9.32.67,18.73.27,28.1.23,2.05,0,4.12-.36,6.13-.79,5.17-1.11,7.8-4.42,7.41-9.68-.22-2.97-.8-5.96-1.62-8.84-3.92-13.85-6.52-27.94-8.07-42.25-1.03-9.51-2.47-18.98-4.03-28.42-.84-5.08-2.27-10.06-3.51-15.07-.47-1.9-1.35-3.78-3.73-3.43-2.38.34-2.64,2.34-2.56,4.34.01.38.02.75.05,1.12.64,6.82.94,13.69,1.99,20.44,3.56,22.8,7.36,45.56,11.17,68.32.42,2.49.06,3.72-2.75,3.7-7.97-.04-15.96.37-23.91.03-11-.47-12.83-1.77-14.22-12.56-2.55-19.72-4.71-39.5-6.38-59.31-.79-9.41-.02-18.94-.08-28.42-.01-2.23-.29-4.52-.85-6.67-.54-2.08-2.16-3.31-4.44-3.13-2.17.17-3.34,1.6-3.81,3.58-.23.99-.23,2.05-.24,3.08-.02,7.98,0,15.95,0,27.4ZM614.17,424.7c0-3.94,0-7.88,0-11.82,0-4.97.11-9.95-.05-14.92-.09-2.72-1.88-4.49-4.14-4.51-2.57-.02-3.9,1.57-4.5,3.87-.23.9-.36,1.85-.39,2.78-.13,3.75-.42,7.51-.26,11.25.74,16.84-.21,33.58-2.47,50.26-1.47,10.87-2.7,21.79-4.6,32.59-1.28,7.31-2.88,8.62-10.35,9.06-8.41.49-16.87.4-25.31.31-5.18-.06-5.05-.25-4.22-5.31,3.84-23.42,7.7-46.84,11.31-70.29.95-6.19,1.18-12.52,1.4-18.79.04-1.17-1.53-2.4-2.35-3.61-1.18.86-2.43,1.63-3.49,2.61-.42.38-.46,1.21-.59,1.85-1.53,7.34-3.43,14.63-4.51,22.04-3.26,22.46-5.11,45.15-11.82,67-.11.36-.15.74-.22,1.1-1.56,8.62,1.33,12.93,10.05,13.52,9.15.62,18.36.55,27.54.6,2.6.01,5.22-.53,7.81-1,6.6-1.2,11.06-4.96,12.89-11.48,1.01-3.61,2.01-7.26,2.47-10.97,2.74-21.98,5.47-43.96,5.81-66.16ZM247.06,632.89c-.05,0-.1,0-.15,0,0,1.5.09,3.01-.02,4.5-.15,2.06.47,2.88,2.73,2.59,2.68-.35,5.47-.64,8.13-.31,12.08,1.5,24.13,3.29,36.21,4.84,2.07.26,4.71.62,6.24-.37,5.33-3.43,11.35-6.71,9.89-14.85-.22-1.24.26-2.6.31-3.91.1-2.42.08-4.85.21-7.27.16-3.19-1.23-4.47-4.46-5.01-11.76-1.96-19.31-9.99-20.48-21.69-.05-.47-.12-.93-.22-1.39-.44-2.06-1.97-2.75-3.67-1.53-.73.53-1.2,1.41-1.83,2.1-9.02,9.92-17.68,20.2-27.24,29.56-3.7,3.62-5.95,6.87-5.62,11.89.02.28-.02.56-.03.84ZM398.47,638.85c.04.22.07.44.11.66,1.77.16,3.55.44,5.32.44.65,0,1.89-.68,1.87-1-.2-4.76-.55-9.51-.92-14.27-.02-.31-.39-.64-.65-.9-3.92-3.88-7.97-7.63-11.73-11.65-6.71-7.18-13.21-14.57-19.9-21.77-.97-1.05-2.5-1.57-3.78-2.34-.54,1.18-1.4,2.31-1.58,3.54-1.59,10.89-7.09,18.32-18.12,21.02-1.27.31-2.54.68-3.84.86-1.86.26-2.83,1.08-2.8,3.1.08,5.88.01,11.76.1,17.64,0,.66.51,1.41.98,1.95,1.41,1.63,2.88,3.21,4.39,4.76,3.32,3.39,7.03,4.47,11.96,3.62,12.81-2.22,25.73-3.81,38.6-5.66ZM326.43,671.58c-.45.38-.89.61-1.11.97-2.43,3.9-6.17,5.57-10.49,6.36-2.12.39-4.28.75-6.28,1.5-5.47,2.06-11.08,2.48-16.87,2.32-9.75-.27-19.51-.2-29.27-.21-2.71,0-4.08,1.56-3.03,3.58,2.35,4.51,5.22,8.35,11.05,8.79,13.84,1.03,27.68,2.14,41.49,3.55,3.92.4,7.8,1.7,11.56,3.01,2.1.73,3.78.76,5.89,0,3.66-1.31,7.45-2.61,11.28-2.99,12.97-1.31,25.97-2.32,38.97-3.23,5.85-.41,10.66-2.15,13.07-7.95.46-1.11.97-2.6.57-3.55-.3-.71-2-1.17-3.08-1.17-10.23,0-20.45.25-30.68.12-4.08-.05-8.19-.66-12.23-1.37-3.4-.6-6.69-1.79-10.07-2.56-3.89-.89-7.25-2.51-9.51-5.97-.28-.43-.77-.74-1.26-1.2ZM350.69,95.32c-4.15.16-8.11.79-11.45,3.41-3.07,2.4-2.74,6.18.86,7.59,2.29.9,4.9,1.19,7.39,1.35,3.74.23,7.57-.36,11.23.2,14.72,2.28,29.76,2.4,44.18,6.68,4.43,1.31,7.73-.11,10.07-4.1,1.65-2.82,3.1-5.82,4.15-8.9,4.28-12.52,8.46-25.07,12.47-37.68,1.07-3.37,1.64-6.95,2-10.47.62-6.05-1.77-10.83-6.97-14.06-7.34-4.55-14.56-9.31-22.14-13.4-4.99-2.7-10.47-4.55-15.85-6.47-2.15-.77-4.6-.95-6.92-.96-2.43-.02-4.33,1.27-5.05,3.74-.74,2.52.37,4.46,2.41,5.79,1.56,1.02,3.29,1.79,5,2.56,11.46,5.16,22.97,10.22,34.39,15.48,4.87,2.24,5.29,3.36,4.39,8.65-.37,2.22-.85,4.43-1.44,6.6-2.65,9.68-5.25,19.38-8.12,29-1.25,4.21-3.11,8.23-4.7,12.34-.66,1.7-1.67,2.04-3.53,1.55-4.44-1.16-8.94-2.13-13.46-2.89-9.99-1.68-20-3.2-30.01-4.76-2.96-.46-5.94-.83-8.91-1.24ZM300.99,107.08c.04.34.08.68.13,1.02,3.69-.48,7.45-.67,11.02-1.58,1.36-.35,3.04-2.29,3.2-3.66.16-1.39-1.03-3.42-2.26-4.36-1.64-1.26-3.84-2.31-5.86-2.43-4.26-.25-8.62-.2-12.85.38-9.85,1.34-19.66,2.99-29.45,4.67-5.17.88-10.3,1.99-15.4,3.18-1.58.37-2.53.16-3.15-1.33-1.3-3.12-2.88-6.15-3.83-9.36-3.07-10.34-5.95-20.74-8.8-31.15-.82-2.98-1.33-6.04-1.96-9.07-.64-3.06.32-5.31,3.27-6.65,2.56-1.16,5.04-2.5,7.61-3.65,10.52-4.73,21.09-9.38,31.59-14.16,3.34-1.52,4.65-4.01,3.95-6.63-.74-2.76-3.25-4.41-6.96-3.76-3.95.69-7.9,1.69-11.64,3.12-11.83,4.54-22.23,11.68-32.68,18.66-4.02,2.68-5.97,6.8-5.7,11.61.19,3.44.6,6.97,1.61,10.24,3.79,12.28,7.75,24.51,11.89,36.68,1.38,4.06,3.19,8.04,5.29,11.78,2.18,3.89,5.51,4.83,9.89,4.02,8.47-1.57,16.94-3.14,25.45-4.39,8.52-1.26,17.11-2.13,25.66-3.17ZM458.93,598.17c4.18-1.51,7.74-2.97,11.42-4.05,2.18-.64,3.03-1.57,2.82-3.93-.56-6.33.61-12.15,5.64-16.65.69-.61,1.16-1.47,1.73-2.22,5.29-7.04,10.54-14.11,15.88-21.11,1.05-1.38,1.05-2.46-.11-3.69-3.34-3.55-6.52-7.27-10.04-10.63-1.05-1-3.13-1.69-4.53-1.44-11.71,2.12-23.39,4.42-35.03,6.88-1.11.23-2.41,1.72-2.78,2.89-1.39,4.33.3,8.22,2.09,12.13,2.61,5.69,5.31,11.39,7.26,17.32,1.72,5.23,2.45,10.78,3.66,16.17.61,2.71,1.3,5.4,2,8.33ZM193.78,598.08c.35-1.23.73-2.27.95-3.35,2.88-14.26,5.71-28.5,13.21-41.33,1.29-2.21,1.03-5.41,1.16-8.17.11-2.47-1.26-3.8-3.85-4.28-11.24-2.1-22.43-4.45-33.69-6.47-1.5-.27-3.7.37-4.8,1.41-3.54,3.33-6.71,7.07-10.05,10.62-1.35,1.44-1.23,2.65.06,4.14,2.52,2.9,4.95,5.89,7.24,8.97,3.87,5.18,7.45,10.58,11.47,15.64,2.32,2.92,3.87,5.95,4.04,9.65.1,2.15-.02,4.32.13,6.46.05.71.46,1.81.98,2.01,4.26,1.63,8.59,3.09,13.15,4.69ZM505.91,641.22c.26-.1.51-.2.77-.3.13-.8.33-1.61.38-2.41.43-6.65.81-13.3,1.24-19.95.98-15.27,2.04-30.52,5.05-45.58.37-1.86-.37-4.32-1.41-6.01-2.09-3.43-4.82-6.46-7.12-9.77-1.46-2.11-2.64-2.24-4.28-.22-5.04,6.18-9.82,12.62-15.35,18.33-4.21,4.35-5.32,9.1-5.11,14.78.4,10.5.57,21.01.62,31.52.01,2.67.79,3.47,3.38,3.24,5.44-.5,9.96,1.48,13.44,5.67,2.27,2.74,4.39,5.61,6.59,8.41.6.77,1.21,1.52,1.82,2.28ZM146.41,641.67c1.13-1.27,1.75-1.89,2.27-2.58,1.47-1.94,2.89-3.93,4.36-5.87,4.2-5.52,9.31-9.25,16.73-8.4,1.73.2,2.23-.66,2.26-2.33.16-11.26.32-22.52.65-33.77.14-4.91-.59-9.31-4.61-12.67-1.13-.94-1.91-2.3-2.87-3.46-4.38-5.27-8.77-10.52-13.13-15.8-1.35-1.63-2.41-1.69-3.71.17-2.25,3.23-4.67,6.35-7.08,9.47-1.66,2.15-2.16,4.42-1.63,7.12.94,4.78,1.99,9.58,2.41,14.43,1.44,16.63,2.62,33.29,3.9,49.94.08.97.23,1.94.45,3.74ZM490.63,508.22h-.03c0,1.22.12,2.45-.03,3.66-.28,2.36.57,3.73,2.75,4.89,2.36,1.26,4.52,3.04,6.47,4.9,7.33,7.01,14.3,14.35,19.97,22.84,1.6,2.4,2.53,2.24,4.03-.25,2.17-3.62,4.35-7.23,6.67-10.75,1.05-1.59,1.21-2.86-.27-4.19-3.29-2.96-5.22-6.79-5.68-11.04-.74-6.77-1.41-13.62-1.19-20.41.22-6.72,1.55-13.4,2.45-20.1.89-6.64.93-6.73-5.88-7.5-1.38-.16-3.35.25-4.25,1.17-6.48,6.64-12.46,13.78-19.18,20.15-4.68,4.44-7.67,8.9-5.83,15.52.1.35.01.75.01,1.12ZM162.14,506.55c.11-1.5.05-3.03.37-4.48.59-2.68-.39-4.42-2.3-6.37-7.68-7.83-15.05-15.97-22.67-23.86-.94-.98-2.67-1.46-4.1-1.64-1.34-.16-2.76.4-4.15.61-1.89.28-2.87,1.22-2.56,3.25.38,2.5.85,5.01,1.04,7.53.73,9.52,1.88,19.05,1.84,28.58-.03,7.11-1.56,14.21-7.2,19.6-.57.55-.43,2.49.08,3.4,2.02,3.59,4.38,6.99,6.5,10.53,1.92,3.2,2.54,3.29,4.6.27,6.32-9.3,13.7-17.81,22.53-24.61,4.72-3.63,7.5-6.86,6.02-12.8ZM440.4,338.46c.13.26.25.53.38.79.75-.8,1.76-1.47,2.2-2.42.92-1.94,1.57-4.02,2.28-6.05,2.69-7.7,2.84-6.43-3.86-9.26-.17-.07-.34-.16-.51-.23-17.27-7.79-34.54-15.57-51.79-23.4-1.7-.77-2.74-1.07-3.66,1.16-2.66,6.5-5.46,12.95-8.46,19.29-1.08,2.29-.77,3.28,1.58,4.17,6.32,2.39,12.69,4.68,18.8,7.54,7.85,3.67,15.92,5.93,24.61,6.37,6.16.32,12.29,1.33,18.43,2.04ZM211.96,338.98c1.04-.2,1.5-.32,1.96-.38,5.57-.75,11.11-1.73,16.7-2.18,6.77-.55,13.39-1.41,19.71-4.11,8.02-3.41,16.09-6.69,24.19-9.9,2.24-.89,2.47-1.89,1.48-4.02-3.01-6.44-5.83-12.97-8.61-19.51-.67-1.57-1.4-1.99-2.98-1.28-18.88,8.5-37.77,16.97-56.66,25.44-1.53.69-2.13,1.7-1.52,3.36,1.29,3.52,2.45,7.09,3.85,10.57.35.88,1.37,1.49,1.87,2.01ZM515.84,733.71c-.29-.07-.58-.14-.87-.21,0-1.22.33-2.57-.09-3.62-.47-1.16-1.51-2.67-2.52-2.85-1.02-.18-2.41.94-3.41,1.75-.59.48-.82,1.46-1.09,2.25-2.56,7.35-5.28,14.66-7.59,22.09-3.45,11.05-.04,16.22,11.49,17.46,5.98.64,11.5,2.36,16.88,5.01,4.7,2.32,9.55,4.42,14.52,6.06,5.25,1.73,8.62-.04,11.03-4.99.53-1.09,1.03-2.22,1.38-3.38,3.24-10.58,6.51-21.16,9.63-31.78,1.28-4.35.54-8.44-2.8-11.71-5.91-5.79-10.35-12.6-14.08-19.9-1.28-2.5-2.33-5.12-3.57-7.65-1.19-2.43-3.42-3.55-5.5-2.75-2.38.92-3.2,2.9-2.76,5.24.36,1.92.99,3.82,1.77,5.61,3.95,9.13,9.4,17.3,16.13,24.6,1.45,1.58,2.33,3.11,1.69,5.28-2.99,10.17-6,20.34-8.93,30.53-.65,2.27-1.8,2.51-3.72,1.48-3.97-2.13-8.04-4.07-11.96-6.28-4.98-2.8-10.24-4.57-15.93-5.2-7.06-.79-6.93-.83-4.94-7.57,1.9-6.45,3.51-12.98,5.25-19.48ZM153.87,760.08c0-.28.07-.59-.01-.84-3.36-10.23-6.67-20.47-10.23-30.63-.3-.86-2.42-1.77-3.41-1.52-1,.25-2.23,1.85-2.35,2.96-.27,2.49-.28,5.13.26,7.56,1.25,5.57,2.8,11.08,4.4,16.57,1.65,5.7,1.75,5.81-4.05,6.41-6.56.68-12.61,2.65-18.29,6.02-3.38,2.01-7.03,3.57-10.47,5.49-2.33,1.3-3.51.81-4.24-1.78-2.85-10.02-5.8-20.01-8.73-30-.6-2.03.12-3.51,1.4-5.12,3.85-4.84,7.91-9.59,11.1-14.85,2.89-4.76,4.93-10.07,6.97-15.29.88-2.25-.06-4.52-2.58-5.53-2.17-.87-4.43.34-5.67,2.89-.29.59-.48,1.22-.75,1.82-3.86,8.61-8.25,17-15.05,23.62-5.1,4.97-5.99,10.11-3.76,16.56,2.39,6.91,4.27,13.99,6.44,20.98,1.17,3.76,2.25,7.57,3.8,11.18,2.19,5.09,5.67,6.76,10.94,5.1,4.37-1.37,8.67-3.11,12.75-5.18,6.27-3.18,12.68-5.58,19.76-6.06,2.02-.14,4.1-.7,5.96-1.51,3.77-1.64,5.75-4.67,5.8-8.85ZM223.63,542.61c-1.13,0-2.26.09-3.38-.02-2.54-.26-3.58.53-3.19,3.32.76,5.38-.5,10.54-3.07,15.22-6.48,11.8-9,24.8-12,37.67-.52,2.22.26,3.06,2.26,3.93,4.69,2.05,9.4,4.17,13.74,6.85,2.29,1.41,2.93,1.07,4.23-.94,5.12-7.96,10.24-15.93,15.74-23.62,3.37-4.71,3.6-4.44.79-9.5-4.46-8.02-6.33-16.81-7.36-25.82-.91-7.99.16-6.68-7.77-7.09ZM429.22,542.68c-8.32.35-6.74-.9-7.83,7.28-.05.37-.06.75-.12,1.12-1.32,9.45-3.22,18.73-8.76,26.76-1.27,1.84-1.09,2.91.24,4.62,4.21,5.39,8.29,10.89,12.19,16.5,2.3,3.31,4.16,6.91,6.2,10.39.63,1.08,1.39,1.99,2.63.87,4.44-4.03,9.88-6.04,15.46-7.79,1.58-.5,2.02-1.42,1.66-2.97-2.92-12.7-5.43-25.48-11.48-37.28-2.08-4.06-3.23-8.83-3.73-13.39-.69-6.2-.25-6.25-6.47-6.1ZM465.27,730.36c1.45-.36,2.94-.47,4.15-1.11,1.56-.81,2.99-1.95,4.33-3.11,6.25-5.39,12.56-10.72,18.6-16.34,1.76-1.64,3.19-4,3.92-6.3,1.78-5.63,3.25-11.37,4.52-17.14,2.73-12.44,2.84-9.88-3.72-19.7-3.35-5.01-3.32-4.91-8.15-1.11-3.31,2.61-6.82,4.97-10.23,7.46-1.97,1.44-3.85,3-5.88,4.34-3.53,2.32-4.52,5.66-4.58,9.67-.13,7.97-.28,15.95-.79,23.91-.4,6.24-1.36,12.45-2.16,19.44ZM187.71,730.66c-.77-5.7-1.71-10.39-1.99-15.13-.6-9.92-.89-19.86-1.22-29.79-.11-3.2-1.09-5.77-3.75-7.75-6.69-4.97-13.3-10.06-19.92-15.13-1.38-1.05-2.17-.41-2.95.76-1.75,2.66-3.48,5.35-5.34,7.93-1.76,2.43-2.47,5-1.77,7.95,1.53,6.48,3.24,12.93,4.51,19.46,1.19,6.16,4.1,10.92,9.44,14.3,1.8,1.14,3.28,2.78,4.91,4.2,4.39,3.8,8.71,7.69,13.22,11.34,1.16.94,2.93,1.15,4.87,1.86ZM545.72,326.66c.26-3.94-.24-4.58-3.09-4.11-6.37,1.04-12.75,2.11-19.05,3.52-8.28,1.86-15.4-.13-21.63-5.72-2.37-2.13-4.66-4.35-7-6.52-5.39-4.98-4.75-4.5-6.82,1.81-.68,2.09-.34,3.38,1.25,4.92,1.72,1.67,3.16,3.72,4.37,5.81,4.88,8.42,8.48,17.36,9.92,27.05.36,2.41,1.45,3.55,3.77,4.13,2.35.59,4.69,1.43,6.82,2.57,1.86,1,2.62.55,3.38-1.18,2.12-4.82,5.98-7.71,10.97-8.86,3.9-.9,7.92-1.4,11.91-1.83,1.93-.2,2.87-.86,3.08-2.83.7-6.62,1.49-13.23,2.12-18.77ZM107.09,325.65c.76,6.52,1.58,13.03,2.24,19.57.23,2.26,1.34,2.82,3.46,3.08,4.35.53,8.72,1.2,12.95,2.32,4.03,1.07,7.3,3.62,8.94,7.57,1.15,2.76,2.48,3.08,4.79,1.46.82-.58,1.87-1,2.86-1.13,4.91-.66,6.56-3.49,7.54-8.29,2.33-11.37,6.36-22.16,14.61-30.86.51-.54.67-1.73.52-2.53-.31-1.65-.95-3.23-1.45-4.84-.5-1.6-1.34-1.95-2.64-.75-2.47,2.3-5.06,4.48-7.41,6.9-7.82,8.06-16.89,10.4-27.74,7.14-4.98-1.5-10.3-1.89-15.47-2.78-2.52-.43-3.54.64-3.21,3.16ZM315.68,814.38c-.41-6.65-.64-12.28-1.17-17.88-.21-2.3-.94-4.58-1.64-6.8-.58-1.81-1.92-3.49-3.89-2.81-1.28.44-2.56,2.09-3,3.46-.68,2.1-.8,4.43-.88,6.67-.33,8.72-.55,17.45-.82,26.17-.07,2.16-.19,4.31-.26,6.47-.05,1.57-.76,2.35-2.41,2.45-10.96.68-21.9,1.5-32.86,2.08-4.8.25-6.39-1.01-7.56-5.75-.76-3.08-1.06-6.28-1.48-9.44-.44-3.34-1.52-6.47-4.88-7.67-7.16-2.55-14.44-1.74-21.57.31-1.93.55-3.2,2.53-2.49,4.47.53,1.44,2.02,2.87,3.44,3.54,1.32.62,3.12.32,4.71.28,3.09-.09,6.19-.26,9.28-.45,1.82-.11,2.6.62,2.96,2.5.68,3.58,1.55,7.15,2.66,10.63,2.23,7.01,7.28,10.7,14.51,10.77,11.6.11,23.21,1.34,34.81-.98,7.84-1.57,10.89-3.92,11.7-11.89.58-5.68.62-11.42.85-16.13ZM337.12,815.37c.31,4.46.47,11.04,1.33,17.52.73,5.58,3.69,7.94,8.91,9.11,12.64,2.82,25.41,1.72,38.14,1.29,6.53-.22,11.12-3.8,13.23-10.06,1.2-3.54,2.17-7.19,2.83-10.86.41-2.26,1.33-3.03,3.5-2.9,3.93.24,7.87.47,11.81.49,3.14.01,5.06-1.59,5.27-3.98.22-2.49-1.28-4.62-4.34-4.94-5.2-.54-10.47-1.05-15.67-.77-5.92.32-8.4,3.28-9.1,9.16-.31,2.61-.52,5.24-1.09,7.79-1.38,6.11-2.88,7.29-9.18,6.95-9.74-.53-19.47-1.21-29.2-1.92-4.73-.35-4.72-.45-4.89-5.32-.35-10.41-.67-20.82-1.06-31.23-.07-1.87-.14-3.85-.83-5.53-.55-1.35-1.98-3.15-3.13-3.23-1.18-.08-3.02,1.41-3.63,2.68-.99,2.06-1.51,4.46-1.71,6.76-.51,5.6-.73,11.23-1.19,18.97ZM177.42,496.54c.05-.28.1-.55.15-.83,7.51,1.56,15.03,3.07,22.52,4.71,1.6.35,2.53.49,3.11-1.48,2.05-7.02,4.25-14,6.49-20.97.69-2.13.15-2.94-2.11-2.87-8.14.26-15.01-2.9-20.93-8.25-2.18-1.97-4.56-2.88-7.43-2.55-9.04,1.04-18.08,2.09-27.11,3.18-.87.11-1.7.57-2.55.87.41.88.67,1.89,1.27,2.62,6.86,8.28,13.75,16.52,20.71,24.72.45.53,1.46.72,2.24.81,1.21.13,2.44.03,3.65.03ZM503.78,468.15c-1.03-.29-1.64-.54-2.27-.62-8.75-1.06-17.52-2.03-26.26-3.17-3.82-.49-6.86.58-9.76,3.14-5.67,5.02-12.31,7.77-20.03,7.63-2.89-.05-3.12.34-2.26,3.12,2.09,6.72,4.31,13.4,6.23,20.16.63,2.22,1.45,2.39,3.55,1.95,7.05-1.47,14.13-2.98,21.28-3.76,3.74-.41,7.1,0,9.45-3.98,1.47-2.48,4.41-4.04,6.3-6.33,4.37-5.27,8.5-10.73,12.71-16.14.38-.48.58-1.1,1.04-2.01ZM387.11,211.1c.42-.67,1.2-1.56,1.59-2.58,2.66-7.09,5.01-14.3,7.92-21.28,2.16-5.19,2.95-4.15-2.41-6.72-7.2-3.44-8.51-6.46-5.74-13.87.59-1.58.37-2.58-.93-3.65-4.49-3.69-8.93-7.44-13.33-11.24-1.37-1.19-2.13-1.1-3.36.37-5.19,6.15-10.48,12.22-15.9,18.17-1.38,1.51-1.59,2.59-.72,4.41,2.95,6.13,7.95,10.09,13.67,13.33,7.81,4.42,12.75,10.65,12.71,20.03,0,1.63.76,2.36,2.39,2.43,1.12.05,2.22.32,4.12.6ZM265.59,211.01c5.42.12,6.33-.67,6.8-5.5.58-5.93,3.12-10.78,7.94-14.3,2.8-2.04,5.74-3.89,8.66-5.76,4.06-2.59,7.05-6.09,9.35-10.29,1.1-2.02.97-3.29-.72-5.1-5.36-5.75-10.47-11.74-15.53-17.76-1.25-1.49-2.01-1.84-3.55-.49-3.95,3.46-7.92,6.91-12.07,10.12-2.3,1.77-2.78,3.35-1.64,6.14,2.2,5.4.64,8.92-4.52,11.62-1.25.65-2.49,1.34-3.81,1.81-2.13.77-2.28,1.82-1.33,3.83,2.43,5.16,4.69,10.41,6.78,15.72,1.03,2.6,1.47,5.43,2.32,8.11.26.81,1.02,1.47,1.31,1.86ZM366.67,258.72c.09,1.5.17,2.99.29,4.49.05.65.17,1.31.33,1.94.75,2.92,2.64,4.59,5.06,4.33,2.81-.3,3.94-2.23,4.29-4.79.12-.83.12-1.69.23-2.52.77-5.66,1.56-11.32,2.32-16.98.26-1.96,1.16-2.58,3.08-1.76,2.41,1.02,4.96,1.76,7.34,2.85,13.96,6.43,27.86,12.99,41.85,19.37,2.61,1.19,5.45,2.16,8.27,2.49,1.52.18,3.7-.78,4.74-1.97,1.42-1.61.36-3.64-1.09-4.99-2.53-2.36-5.03-4.82-7.87-6.78-12.55-8.67-25.94-15.85-40.25-21.08-4.85-1.77-10.19-2.4-15.37-3.04-3.49-.43-6.76,1.09-7.87,4.65-2.42,7.76-5.38,15.45-5.34,23.79ZM286.24,259.19c-.21-2.29-.18-4.3-.62-6.2-1.19-5.11-2.59-10.16-3.88-15.25-1.45-5.73-4.23-8.1-10.06-7.43-4.81.56-9.84,1.22-14.2,3.12-10.38,4.52-20.65,9.42-30.53,14.94-6.16,3.44-11.58,8.21-17.22,12.53-1.6,1.23-2.6,3.09-1.56,5.24,1.1,2.27,3.28,2.59,5.32,2.05,3.24-.86,6.46-1.93,9.52-3.29,15.58-6.95,31.08-14.06,46.65-21.03,3.32-1.48,3.61-1.32,4.15,2.28.91,6.11,1.57,12.27,2.35,18.4.39,3.06,2.02,4.85,4.44,4.96,2.38.11,4.36-1.57,4.95-4.49.4-2.01.51-4.08.71-5.82ZM194.1,692.34c.44-.05.83,0,1.14-.13,9.19-3.74,18.4-7.45,27.53-11.33.81-.34,1.68-1.86,1.58-2.72-.14-1.15-.95-2.7-1.92-3.17-2.08-1.01-4.43-1.46-6.69-2.1-5.17-1.49-8.35-4.85-9.47-10.1-.91-4.31-1.78-8.63-2.53-12.96-.29-1.67-.78-2.68-2.71-2.91-8.37-1.01-16.73-2.17-25.09-3.27-7.21-.95-6.26-1.08-9.44,5.29-.08.17-.15.35-.24.51-.87,1.5-.41,2.58.88,3.63,6.69,5.44,13.21,11.11,20.05,16.34,5.19,3.97,7.49,8.88,6.93,15.33-.21,2.48-.04,4.99-.04,7.61ZM458.69,692.58c0-3.58.03-6.9,0-10.23-.06-4.6,1.54-8.41,5.12-11.36,6.43-5.31,12.75-10.77,19.28-15.94,5.38-4.26,4.66-3.11,2.01-8.94-1.12-2.46-2.68-3.19-5.34-2.81-9.27,1.32-18.57,2.48-27.87,3.6-1.83.22-2.55,1.04-2.84,2.8-.73,4.34-1.58,8.66-2.48,12.97-1.09,5.23-4.21,8.67-9.38,10.18-2.07.61-4.09,1.41-6.19,1.83-2.19.44-2.47,1.92-2.64,3.7-.19,1.88,1.05,2.3,2.44,2.86,8.76,3.54,17.5,7.15,26.25,10.73.49.2.99.37,1.65.61ZM390.28,368.76c-.02-.22-.04-.45-.07-.67-8.89,1.29-17.78,2.56-26.66,3.91-.62.09-1.42.69-1.66,1.26-1.64,3.89,1.43,10.36,5.52,11.44,2.71.71,5.52,1.06,8.29,1.54,7.11,1.21,14.31,2.04,21.32,3.7,7.12,1.68,14.26,2.21,21.49,1.93,1.22-.05,2.45-.7,3.61-1.22,4.19-1.88,5.55-5.91,7-9.74.26-.69-.53-2.42-1.24-2.73-12-5.21-24.12-10.07-37.61-9.41ZM262.19,368.17c-11.19.55-18.04,2-32.2,7.86-7.72,3.2-8.32,1.28-3.54,10.46,1.83,3.5,4.91,5.45,9.1,5.48,7.07.05,13.98-.66,20.93-2.19,8.69-1.91,17.58-2.87,26.35-4.45,6.48-1.16,7.78-2.79,8.37-9.31.32-3.55.05-3.81-3.41-4.25-2.98-.38-5.92-.99-8.89-1.4-5.56-.77-11.13-1.48-16.7-2.21ZM122.65,223.8c-.61.8-.97,1.12-1.13,1.52-4.31,11-8.61,22.01-12.89,33.02-.24.61-.32,1.27-.52,1.9-.61,1.97.02,2.93,2.16,3.22,4.65.63,9.27,1.45,13.9,2.2,8.14,1.32,10.45,3.77,10.69,12.04.08,2.65,1.63,2.7,3.45,2.96,2.26.32,2.09-1.3,2.27-2.66,1.43-10.44,3.54-20.72,7.52-30.52.71-1.75.51-2.81-1.46-3.38-5.79-1.67-10.27-5.26-14.19-9.71-3.09-3.5-6.34-6.86-9.79-10.58ZM530.65,223.86c-1.25,1.16-2.02,1.81-2.71,2.54-2.57,2.74-5.14,5.47-7.65,8.26-3.97,4.4-8.44,8.01-14.3,9.55-1.93.51-1.9,1.58-1.34,3.18,1.45,4.16,3.05,8.3,4.06,12.57,1.42,6.02,2.32,12.15,3.56,18.22.19.9.89,2.25,1.57,2.41,2.73.61,3.95-.54,4.04-3.33.24-7.32,2.86-10.32,10.1-11.49,4.91-.8,9.81-1.62,14.73-2.32,1.98-.28,2.6-1.25,2.06-3.08-.48-1.62-.9-3.26-1.51-4.83-3.1-7.95-6.25-15.89-9.4-23.82-.96-2.42-1.97-4.82-3.21-7.84ZM539.95,680.83c.83.98,1.68,2.85,2.69,2.94,1.13.1,3.01-1.17,3.48-2.3,1.32-3.18,2.33-6.55,3.03-9.93,3.35-16.16,6.35-32.4,9.88-48.53,1.98-9.05,4.13-18.15,7.25-26.85,4.94-13.78,9.86-27.53,13.23-41.8.67-2.84-.17-5.16-2.4-5.8-2.13-.61-4.13.7-5.06,3.34-.68,1.95-1.28,3.92-2.01,5.85-6,15.79-12.08,31.56-15.65,48.12-2.83,13.11-5.19,26.31-7.71,39.48-2.23,11.6-4.41,23.21-6.73,35.47ZM112.57,681.29c-.85-5.36-1.45-10.02-2.34-14.63-2.99-15.48-6.62-30.86-9.01-46.43-3.68-23.99-12.57-46.31-20.73-68.89-.78-2.15-2.48-3.47-4.87-2.71-2.35.75-3.11,2.77-2.49,4.99,2.55,9.12,4.78,18.36,7.98,27.26,4.96,13.79,9.98,27.51,12.73,41.98,3.03,15.95,6.3,31.86,9.61,47.76.8,3.84,1.99,7.63,3.41,11.29.38.97,2.33,1.93,3.46,1.83.91-.08,1.68-1.77,2.26-2.45ZM168.82,327.07c-5.69,8.54-8.01,17.55-10.35,27.22,2.93-.51,5.2-.93,7.48-1.29,4.47-.71,6.9.42,9.11,4.32.92,1.63,1.75,3.32,2.51,5.03,3.29,7.36,6.64,14.7,9.77,22.12.99,2.35,2.18,2.74,4.24,1.53,2.83-1.65,5.7-3.25,8.54-4.87,1.61-.92,1.68-2.17,1.1-3.84-4.89-13.87-9.74-27.76-14.51-41.68-.6-1.74-1.39-2.42-3.26-2.11-5.94.99-11.57,1-14.63-6.44ZM483.98,327.13c-3.1,7.4-8.72,7.33-14.66,6.4-1.56-.25-2.39.29-2.92,1.83-4.86,14.08-9.84,28.13-14.61,42.24-.32.95.32,2.86,1.15,3.45,2.57,1.85,5.47,3.25,8.2,4.88,2.22,1.33,3.38.71,4.4-1.66,3.59-8.35,7.27-16.67,11.13-24.9,3.01-6.41,5.11-7.32,12.04-6.04,1.69.31,3.39.57,5.64.94-2.39-9.72-4.67-18.69-10.37-27.14ZM40.48,348.16c0,6.56-.04,13.13.02,19.69.03,3.44,1.53,5.4,3.97,5.5,2.55.11,4.22-1.86,4.55-5.37.05-.56.09-1.12.11-1.68.26-9.19.67-18.37.72-27.56.1-15.28,1.75-30.34,5.89-45.06,3-10.65,6.34-21.2,9.53-31.79.43-1.44,1.22-2.89,1.16-4.31-.05-1.27-.72-3.04-1.69-3.6-.75-.43-2.74.31-3.54,1.15-1.26,1.32-2.21,3.06-2.87,4.79-3.82,9.97-8.01,19.84-11.15,30.03-5.84,18.92-6.18,38.61-6.69,58.2ZM612.29,347.58c-.24-26.49-2.62-52.67-13.39-77.35-2.17-4.98-4.46-9.91-7.04-14.68-.54-1-2.72-1.86-3.91-1.62-1.99.4-2.12,2.39-1.61,4.16.67,2.34,1.37,4.69,2.19,6.98,10.04,27.9,15.72,56.51,14.59,86.31-.22,5.7.36,11.43.75,17.14.22,3.16,2.03,4.91,4.44,4.81,2.4-.1,3.93-2,3.96-5.21.06-6.85.02-13.69.02-20.54ZM469,192.1c-.43-.49-.73-.97-1.15-1.3-1.26-.97-2.65-1.79-3.85-2.82-2.06-1.76-3.17-1.24-4.39,1.09-7.73,14.85-13.73,30.38-18.71,46.34-.52,1.66.1,2.41,1.43,3.1,3.56,1.88,7.14,3.74,10.62,5.77,1.94,1.13,3.13.83,4.41-1.04,4.3-6.29,9.58-11.53,16.81-14.43,1.68-.68,1.99-1.68,1.21-3.31-2.89-5.99-5.45-12.16-8.63-17.99-2.69-4.92-2.54-9.22.98-13.5.47-.57.82-1.22,1.28-1.91ZM472.03,426.69c9.07.73,17.72,1.46,26.38,2.06.7.05,1.6-.68,2.19-1.27,2.16-2.16,3.98-4.76,6.4-6.55,4.14-3.05,8.62-5.63,12.99-8.37,1.39-.87,2.48-1.74.56-3.08-4.9-3.44-9.79-6.89-14.78-10.2-3.06-2.03-6.24-1.71-9.66-.47-7.56,2.72-15.23,5.16-22.9,7.57-1.64.52-2.03,1.31-1.87,2.83.29,2.7.58,5.41.68,8.12.12,3.25.03,6.51.03,9.36ZM191.4,186.31c-2.02,1.36-3.74,2.63-5.57,3.73-1.97,1.19-2.22,2.32-.64,4.18,3.42,4.02,3.6,8.24,1.02,13-3.17,5.85-5.77,12-8.64,18.01-.68,1.43-.98,2.67.89,3.42,7.51,3.03,12.99,8.43,17.44,15.01.99,1.46,2.08,1.67,3.58.84,3.69-2.05,7.39-4.09,11.13-6.04,1.46-.76,1.69-1.68,1.22-3.2-4.9-15.81-10.78-31.21-18.54-45.86-.51-.96-1.14-1.87-1.89-3.08ZM171.26,426.89c.01.19.03.38.04.56,2.44,0,4.88-.08,7.31.03,1.68.08,2.32-.46,2.34-2.21.09-5.43.42-10.85.44-16.28,0-.86-.96-2.21-1.77-2.5-7.59-2.66-15.3-5-22.87-7.73-3.44-1.24-6.62-1.44-9.66.58-4.83,3.21-9.56,6.59-14.36,9.85-1.92,1.31-1.79,2.23.17,3.43,4.48,2.74,8.99,5.45,13.23,8.53,2.22,1.61,4.11,3.8,5.77,6.01,1.01,1.35,1.82,1.75,3.44,1.53,5.29-.71,10.6-1.22,15.9-1.81ZM486.12,741.69l-.77-.48c-.73.5-1.49.96-2.19,1.51-5.37,4.17-11.04,7.5-18.23,6.83-1.83-.17-2.11,1.06-2.29,2.49-.41,3.15-.5,6.43-1.47,9.41-.88,2.71-.64,4.67,1.38,6.54.48.44.85,1,1.22,1.54,4.85,6.9,10.07,13.61,11.11,22.43.06.54,1.08,1.37,1.67,1.39,6.09.16,12.29.57,18.06-1.82,3.02-1.25,5.72-3.26,8.57-4.92-.07-.34-.13-.69-.2-1.03-2.21-1.15-4.41-2.29-6.62-3.44-8.89-4.61-13.38-11.9-12.77-21.92.3-4.94,1.32-9.84,2.01-14.76.18-1.25.34-2.51.51-3.76ZM166.91,740.71c.12,1.88.12,2.93.26,3.96.7,5.1,1.73,10.17,2.12,15.3.81,10.73-4.37,18.04-13.73,22.73-1.88.94-3.74,1.92-6.07,3.12,1.2,1.08,1.9,1.78,2.68,2.39,7.23,5.63,15.73,5.4,24.2,5.09.59-.02,1.35-1.24,1.64-2.05,1.15-3.14,1.68-6.61,3.3-9.46,2.91-5.11,6.49-9.83,9.66-14.8.68-1.06,1.19-2.55,1.05-3.75-.44-3.7-1.36-7.34-1.82-11.04-.26-2.03-1.05-2.81-3.06-2.64-4.8.4-9.04-1.25-12.98-3.79-2.19-1.41-4.28-2.97-7.23-5.04ZM349,161.97c.59.29,1.17.57,1.76.86.38-.88.62-1.87,1.18-2.61,4.29-5.68,8.81-11.19,12.92-17,3.67-5.21,7.5-5.82,12.44-1.73,4.62,3.83,9.44,7.4,14.2,11.06.48.37,1.1.55,2.07,1.01,1.83-5.55,3.54-10.88,5.37-16.17.68-1.98.14-2.87-1.88-3.42-16.17-4.42-32.57-7.38-49.37-7.78-.8-.02-1.61.08-2.25.11.61,4.6,1.37,8.91,1.69,13.26.26,3.45-.29,6.96,0,10.4.35,4.03,1.22,8.01,1.87,12.02ZM307.99,126.66c-.81-.3-1.07-.49-1.33-.49-17.57.23-34.71,3.27-51.58,8.03-1.83.52-1.68,1.67-1.22,3.07,1.58,4.72,3.12,9.44,4.71,14.16.23.67.64,1.28,1.04,2.06.68-.35,1.21-.54,1.63-.87,4.75-3.67,9.58-7.24,14.19-11.08,5.03-4.19,8.83-3.56,12.61,1.82,4.09,5.82,8.61,11.34,12.98,16.96.53.68,1.27,1.18,1.92,1.77.32-.06.65-.11.97-.17.62-4.12,1.62-8.22,1.78-12.35.29-7.65-.87-15.39,2.3-22.91ZM457.59,824.72c0,.23.01.46.02.7,9.44-.66,18.89-1.26,28.32-1.99,4.57-.36,9.26-.45,13.65-1.62,4.53-1.21,9.83-2.52,12.88-5.65,5.61-5.77,9.94-12.82,14.55-19.52,1.47-2.14.45-4.91-1.53-6.21-2.03-1.33-4.61-1.06-6.37.93-.97,1.1-1.68,2.47-2.36,3.79-1.76,3.41-3.36,6.91-5.19,10.29-1.7,3.13-4.39,5.22-7.93,5.74-5.08.75-10.2,1.37-15.32,1.73-6.45.45-12.91.61-19.37.86-4.96.19-9.92.23-14.87.54-3.44.21-6.89.59-10.27,1.23-2.25.43-4.45,1.53-4.29,4.39.15,2.79,2.42,3.6,4.64,4.16,1.53.38,3.15.56,4.73.61,2.9.09,5.81.03,8.71.03ZM194.8,825.54c0-.12.02-.24.03-.36,1.22-.08,2.44-.12,3.65-.23,3.63-.33,7.29-.5,10.88-1.1,2.1-.35,3.9-1.61,3.9-4.13,0-2.39-1.69-3.62-3.7-3.99-3.56-.67-7.18-1.15-10.8-1.4-4.95-.33-9.91-.35-14.87-.54-6.27-.25-12.54-.44-18.8-.85-4.94-.32-9.88-.82-14.8-1.44-4.64-.59-7.86-3.3-9.94-7.42-.89-1.75-1.74-3.53-2.62-5.29-1.13-2.26-2.05-4.66-3.46-6.74-1.8-2.67-4.85-3.14-7.13-1.5-2.14,1.54-2.58,4.42-.92,7.05,2.3,3.65,4.82,7.15,7.06,10.83,5.06,8.3,12.56,12.89,22.02,13.86,13.14,1.35,26.33,2.19,39.49,3.25ZM485.07,223.4c4.51-.46,8.14-.96,11.78-1.18,7.69-.48,13.77-3.79,18.5-9.87,1.41-1.81,1.48-2.94-.3-4.43-8.21-6.85-16.38-13.75-24.52-20.69-1.28-1.09-2.13-1.14-3.23.24-3.67,4.58-6.74,9.69-11.58,13.28-.61.45-.96,2.09-.63,2.82,2.72,6.07,5.59,12.08,8.5,18.06.42.86,1.27,1.51,1.49,1.77ZM167.62,223.58c.43-.55,1.27-1.32,1.73-2.26,2.82-5.82,5.48-11.71,8.36-17.49.79-1.59.14-2.38-.8-3.4-2.79-2.98-5.63-5.93-8.27-9.05-4.62-5.46-4.56-5.51-10.01-.91-6.88,5.8-13.76,11.61-20.65,17.41-1.12.95-2.35,1.98-1.09,3.5,3.62,4.34,7.32,8.76,13.29,9.8,5.53.97,11.13,1.56,17.44,2.42ZM194.93,726.16c1.5-.58,2.11-.79,2.69-1.04,8.77-3.78,17.51-7.61,26.3-11.34,4.66-1.98,9.39-3.78,14.09-5.66,3.09-1.24,1.87-3.97,1.85-6.11,0-.66-1.6-1.9-2.4-1.86-5.32.31-8.31-2.39-9.69-7.16-.77-2.68-2.06-2.72-4.34-1.76-9.4,3.98-18.88,7.78-28.29,11.74-.78.33-1.84,1.41-1.8,2.08.4,6.87,1,13.73,1.59,21.11ZM457.88,725.97c.58-7.26,1.18-14.04,1.58-20.84.04-.7-.93-1.82-1.69-2.14-9.5-4-19.07-7.82-28.55-11.84-2.31-.98-3.36-.56-4.09,1.82-1.44,4.73-4.41,7.5-9.72,7.14-.76-.05-1.96.47-2.31,1.1-1.43,2.56.11,6.17,2.82,7.31,13.29,5.59,26.57,11.22,39.86,16.83.41.17.86.26,2.1.63ZM430.44,524.42c3.62-.48,7.28-.75,10.85-1.47,13.05-2.64,26.06-5.46,39.11-8.13,1.72-.35,2.48-1.09,2.29-2.82-.1-.93-.24-1.87-.24-2.8,0-2.11-.92-3.08-3.11-2.88-4.38.42-8.83.45-13.14,1.21-4.69.83-9.27,2.34-13.9,3.5-5.32,1.34-8.93-.7-10.32-5.86-.56-2.08-1-4.2-1.35-6.33-.31-1.86-1.2-2.51-2.89-1.63-5.38,2.79-10.75,5.63-16.11,8.47-1.42.75-1.45,1.78-.93,3.29,1,2.91,1.94,5.9,2.37,8.93.91,6.34.77,6.36,7.35,6.52ZM222.31,524.51c.02-.13.04-.27.06-.4,1.22,0,2.44-.07,3.66.01,2.5.18,3.23-.87,3.5-3.4.43-3.96,1.46-7.89,2.55-11.74.43-1.51.41-2.34-.88-3.32-4.97-3.82-10.43-6.63-16.37-8.58-1.51-.5-2.27-.19-2.57,1.43-.45,2.4-.92,4.8-1.59,7.14-1.26,4.4-4.5,6.37-9.03,5.58-1.38-.24-2.7-.82-4.08-1.07-7.36-1.31-14.71-2.82-22.12-3.73-4.9-.61-4.84-.2-5.32,4.68-.25,2.52.61,3.36,3.07,3.85,12.24,2.4,24.42,5.09,36.65,7.56,4.12.83,8.31,1.34,12.47,1.99ZM378.23,461.53c.6-10.32,1.09-17.34,1.4-24.37.15-3.43-1.6-5.58-4.17-5.61-2.45-.04-4.03,1.98-4.23,5.31-.18,3-.45,5.99-.62,8.98-1.06,17.88-2.11,35.77-3.15,53.65-.3,5.14,1.89,9.18,6.46,11.23,4.74,2.13,9.78,3.75,14.84,4.96,4.08.98,6.46-.29,7.23-2.6.8-2.4-.53-4.77-4.48-6.55-3.66-1.64-7.57-2.73-11.39-3.99-4.87-1.61-5.16-1.93-4.74-6.99,1.03-12.44,2.09-24.87,2.85-34.02ZM285.32,492.65c-1.27-19.09-2.5-37.9-3.82-56.7-.16-2.32-1.29-4.17-3.97-4.32-2.32-.14-4.02,1.52-4.32,4.25-.12,1.11-.08,2.25-.01,3.37.36,5.81.69,11.61,1.13,17.41,1.01,13.28,2.1,26.56,3.1,39.84.3,3.96-.04,4.42-3.82,5.7-2.57.87-5.27,1.41-7.79,2.41-2.5,1-5.07,2.11-7.16,3.75-1.14.9-1.93,3.04-1.82,4.55.15,2.13,2.21,2.8,4.21,2.96.47.04.94.07,1.4.03,6.38-.53,12.33-2.38,17.7-5.89,3.47-2.27,5.19-5.57,5.16-9.75-.02-2.63,0-5.25,0-7.61ZM427.81,171.77c-.18-.16-.35-.32-.53-.48-.4-1.83-.68-3.69-1.23-5.47-1.8-5.82-4.15-11.51-5.43-17.44-1.25-5.82-4.41-8.84-9.96-10.29-2.38-.62-3.2-.43-3.9,2.05-2.75,9.64-5.66,19.23-8.73,28.76-.71,2.2.02,2.54,1.82,3.27,5.26,2.14,10.57,4.29,15.52,7.04,4.82,2.68,4.72,3.09,8.26-1.12,1.62-1.92,2.8-4.21,4.18-6.33ZM225.51,171.61c.51,1.26.88,2.84,1.74,4.1,1.2,1.77,2.83,3.25,4.14,4.96,1.13,1.46,2.09,1.41,3.5.32,5.47-4.24,11.51-7.4,18.31-8.92,2-.45,2.22-1.23,1.58-3.14-2.72-8.18-5.39-16.39-7.77-24.67-2.1-7.3-1.97-7.45-9.12-4.33-1.55.68-3.31,2.13-3.86,3.63-2.48,6.87-4.61,13.88-6.78,20.87-.69,2.23-1.11,4.54-1.75,7.19ZM463.96,425.2c-6.61,1.61-12.78,3.11-18.94,4.62-.36.09-.82.1-1.07.32-.94.86-2.2,1.63-2.65,2.72-1.81,4.42-3.39,8.93-4.98,13.44-.19.55-.15,1.35.11,1.87,2.79,5.71,11.63,7.51,16.3,3.32,4.05-3.63,8.5-6.38,14.01-7.26,3.12-.5,6.16-1.54,9.27-2.12,3.66-.69,7.34-1.49,11.04-1.6,3.24-.1,6.5.76,9.76,1.03.73.06,1.51-.53,2.26-.82-.54-.74-.96-1.96-1.64-2.13-4.81-1.21-9.64-2.49-14.54-3.17-3.48-.48-7.09-.09-10.65-.04-5.19.08-7.66-2.11-8.08-7.22-.08-.92-.14-1.83-.22-2.97ZM188.86,425.18c-.1,1.25-.17,2.25-.27,3.26-.47,4.72-2.88,7.38-7.52,6.84-8.65-1-16.79,1.05-24.97,3.16-.92.24-1.61,1.38-2.41,2.11.99.31,2.06,1.05,2.96.88,8.1-1.54,16.05-1.54,23.77,1.8.85.37,1.8.66,2.72.69,7.28.25,13.09,3.59,18.18,8.5,1.85,1.79,4.22,2.51,6.48,1.43,2.83-1.35,5.44-3.18,8-5,.55-.39.87-1.77.63-2.47-1.56-4.62-3.21-9.22-5.04-13.74-.41-1.01-1.52-2.15-2.52-2.42-6.5-1.77-13.06-3.31-20.02-5.04ZM326.39,886.02c5.37.49,9.92-1.96,14.52-4.01,9.98-4.45,13.48-10.54,12.54-21.42-.25-2.88-1.99-4.93-4.33-5.08-2.4-.15-4.35,1.52-4.89,4.5-.36,2.02-.46,4.1-.58,6.15-.16,2.71-1.38,4.54-3.98,5.54-3.93,1.53-7.78,3.27-11.73,4.75-.95.35-2.26.32-3.21-.04-3.86-1.45-7.62-3.16-11.46-4.64-2.68-1.04-3.98-2.84-4.13-5.72-.12-2.42-.37-4.87-.94-7.22-.5-2.06-2.06-3.39-4.34-3.32-2.25.07-3.96,1.42-4.21,3.5-.81,6.76-.78,13.7,4.94,18.45,6.21,5.16,13.57,8.18,21.79,8.56ZM394.57,543.68c.05,0,.1.01.15.02-.33,4.39-.67,8.77-1,13.16-.24,3.22-1.99,4.83-5.17,5.2-5.58.65-11.18,1.25-16.71,2.22-2.91.51-5.83,1.45-8.45,2.78-1.18.6-2.43,2.8-2.19,4,.27,1.37,1.94,3.02,3.36,3.49,1.85.62,4.07.41,6.08.18,4.93-.56,9.84-1.27,14.74-2.07,2.76-.45,5.53-1.04,8.2-1.85,4.34-1.31,7.21-4.29,8.57-8.6,3.02-9.56,3.43-19.34,2.05-29.2-.43-3.07-2.54-4.89-4.97-4.84-2.53.06-4.46,2.13-4.63,5.41-.17,3.36-.04,6.74-.04,10.12ZM258.1,544.15c0-3.92.19-7.77-.07-11.6-.17-2.46-1.78-4.2-4.4-4.34-2.64-.14-4.11,1.52-4.84,3.9-.22.71-.34,1.47-.42,2.21-.88,8.47-.49,16.86,1.4,25.18,1.54,6.78,5.62,10.85,12.41,12.23,1.65.34,3.31.66,4.98.9,5.01.74,10.02,1.5,15.04,2.11,1.84.22,3.89.52,5.55-.06,1.54-.54,3.24-1.97,3.87-3.43.84-1.94-.62-3.72-2.48-4.46-2.68-1.06-5.45-2.06-8.28-2.54-5.64-.96-11.34-1.56-17.02-2.27-2.82-.35-4.44-1.86-4.68-4.71-.38-4.39-.72-8.78-1.07-13.12ZM271.2,781.27c.01.11.03.23.04.34,4.13,0,8.26.11,12.38-.05,2.04-.08,4.08-.57,6.08-1.03,1.87-.44,3.65-1.62,3.21-3.6-.32-1.44-1.76-3.13-3.12-3.71-2.09-.89-4.55-1.27-6.85-1.25-8.25.06-16.53.07-24.75.71-5.19.41-10.37,1.63-15.42,3-4.79,1.3-8.56,4.38-9.28,9.55-.54,3.84-.24,7.83.07,11.72.19,2.35,1.83,3.91,4.4,3.9,2.58,0,4-1.59,4.42-3.93.41-2.3.54-4.65.67-6.99.23-4.14.6-4.75,4.51-6.07,1.51-.51,3.05-1.07,4.62-1.21,6.33-.55,12.68-.94,19.02-1.39ZM381.94,771.91c-4.11,0-7.78-.15-11.42.05-2.59.15-5.19.64-7.72,1.24-1.84.44-3.5,1.81-2.97,3.79.36,1.35,1.8,2.83,3.13,3.39,1.93.82,4.18,1.13,6.3,1.18,6.74.14,13.51-.24,20.23.14,5.29.3,10.6,1.11,15.77,2.27,4.03.9,4.31,1.86,4.52,5.97.12,2.34.24,4.69.64,6.99.41,2.35,1.86,3.92,4.41,3.93,2.55,0,3.87-1.6,4.5-3.89,3.22-11.75-1.28-19.56-13-22.46-2.09-.52-4.21-1.05-6.34-1.24-6.15-.56-12.32-.94-18.04-1.36ZM474.4,601.72c-1.35.29-1.82.32-2.24.49-8.61,3.43-17.29,6.7-25.78,10.4-2.75,1.2-5.12,3.4-7.44,5.41-.61.53-.88,2.31-.46,3.02,1.48,2.48,3.18,4.87,5.1,7.03.72.81,2.33,1.37,3.44,1.24,8.62-1.04,17.23-2.25,25.82-3.52.68-.1,1.78-1.02,1.78-1.56.02-7.36-.11-14.72-.22-22.5ZM209.77,174.31c-3.4,2.3-6.17,4.27-9.04,6.08-1.51.95-1.46,1.78-.53,3.16,9.78,14.34,15.32,30.38,18.89,47.22.16.77.46,1.5.79,2.55,3.97-2.16,7.64-4.02,11.13-6.18.62-.38.95-2.11.66-2.95-1.54-4.32-3.26-8.59-5.05-12.82-2.19-5.18-4.25-10.43-6.85-15.41-3.57-6.84-9.09-12.7-10.01-21.65ZM178.89,601.74c-.16,1.15-.34,1.96-.37,2.78-.2,6.09-.3,12.19-.58,18.28-.11,2.36.87,2.97,3.09,3.15,6.06.51,12.16.98,18.14,2.08,9.79,1.79,9.75,1.99,15.01-6.39.05-.08.1-.16.15-.23,1.1-1.38.91-2.6-.53-3.58-3.01-2.04-5.83-4.52-9.1-5.98-7.45-3.32-15.12-6.14-22.71-9.14-.93-.37-1.91-.59-3.11-.96ZM443.94,174.86c-1.83,4.29-2.8,8.39-5.07,11.57-8.3,11.64-12.34,25.2-17.87,38.09-.28.65-.05,2.1.42,2.39,3.67,2.2,7.45,4.2,11.55,6.45,4.14-18.64,9.9-36.13,20.81-51.72-3.5-2.41-6.69-4.61-9.84-6.77ZM149.4,281.74c3.4.36,6.47.56,9.49,1.04,1.99.31,2.65-.46,3.42-2.24,2.05-4.69,3.95-9.59,6.93-13.67,2.81-3.86,6.82-6.89,10.48-10.07,1.59-1.38,1.96-2.24.62-4.1-4.07-5.65-9.15-8.74-16.34-7.42-1,.18-2.06.21-3.08.15-2.19-.13-3.15.86-3.57,3-.87,4.41-1.97,8.77-3.03,13.14-1.58,6.54-3.19,13.07-4.93,20.16ZM503.33,281.75c-2.81-11.84-5.46-23.13-8.22-34.39-.17-.71-1.15-1.61-1.86-1.72-8.06-1.3-15.53-.91-20.6,6.96-1.26,1.96-1.2,2.98.67,4.32,8.46,6.08,14.73,13.78,17.49,24.05.2.75,1.32,1.81,1.97,1.78,3.43-.16,6.85-.62,10.56-1ZM326.17,599.36c1.49.85,2.68,1.87,4.05,2.25,5.75,1.6,13.63-1.77,15.91-7.29,1.59-3.84,2.47-8.05,3.12-12.19.54-3.41-1.45-5.9-4.19-6.35-2.88-.48-5.38,1.38-6.11,4.91-.49,2.37-.69,4.83-.78,7.26-.1,2.5-1.09,3.8-3.59,4.58-2.94.92-5.67,2.51-8.13,3.64-2.8-1.25-5.66-2.73-8.67-3.79-1.97-.69-2.94-1.66-3.06-3.76-.16-2.71-.35-5.45-.91-8.1-.72-3.38-3.21-5.2-5.94-4.78-2.76.43-4.86,2.93-4.32,6.27.7,4.31,1.76,8.64,3.27,12.73,2.1,5.65,14.34,10.53,19.35,4.62ZM408.48,442.12c-.95.56-1.59.93-2.23,1.31-2.09,1.25-4.04,2.9-6.3,3.67-3.39,1.16-4.35,3.58-4.4,6.65-.01.73.74,1.93,1.39,2.16,14.69,5.04,24.81,15.05,31.55,28.76,2.61,5.31,1.4,4.28,6.75,2.88,1.95-.51,2.33-1.41,1.67-3.23-1.34-3.7-2.43-7.5-3.85-11.16-.63-1.62-1.69-3.12-2.78-4.49-2.27-2.86-4.78-5.53-7.03-8.4-4.17-5.3-8.22-10.71-12.37-16.03-.64-.82-1.59-1.41-2.41-2.12ZM258.45,455.21c-.4-.35-.8-.71-1.21-1.06-.09-3.2-.75-5.92-4.33-7.05-1.74-.55-3.29-1.77-4.87-2.77-4.12-2.62-4.09-2.59-7.12,1.23-6.39,8.07-12.87,16.08-19.28,24.14-.69.87-1.33,1.85-1.71,2.88-1.46,4.05-2.85,8.14-4.17,12.24-.2.61-.11,1.86.2,1.99,1.8.76,3.68,1.59,5.57,1.71.69.04,1.7-1.71,2.22-2.81,6.81-14.24,17.02-24.76,32.31-29.79.79-.26,1.59-.47,2.38-.71ZM212.47,78.36c.1-3.16-1.8-4.62-4.23-3.84-2.93.95-6.05,1.79-8.57,3.46-9.37,6.22-18.59,12.69-27.73,19.24-2.8,2-3.39,4.9-2.16,7.16,1.25,2.27,3.89,3.1,7.2,1.71,4.05-1.7,8-3.69,11.9-5.73,8.03-4.19,14.54-10.25,20.36-17.08,1.43-1.67,2.44-3.7,3.24-4.92ZM478.92,107.1c1.14-.72,3.19-1.3,3.81-2.59.69-1.42.57-3.69-.09-5.2-.65-1.5-2.29-2.68-3.71-3.7-7.31-5.24-14.55-10.57-22.09-15.46-3.56-2.31-7.67-3.86-11.68-5.36-1.18-.44-3.48-.04-4.14.83-.67.9-.29,2.96.22,4.28.55,1.43,1.7,2.67,2.72,3.88,8.26,9.8,18.56,16.78,30.29,21.74,1.28.54,2.65.9,4.65,1.57ZM422.67,623.19c-1.89,1.25-3.44,2.45-5.14,3.36-1.48.79-1.93,1.77-1.76,3.4.43,4.1.62,8.23,1.09,12.33.13,1.12.58,2.56,1.4,3.19,6,4.61,9.28,10.68,10.31,18.09.08.61.63,1.49,1.14,1.64,1.92.57,7.27-2.52,7.74-4.5,1.04-4.38,2.05-8.77,2.78-13.21.17-1-.63-2.41-1.39-3.28-3.07-3.49-6.54-6.65-9.4-10.3-2.52-3.22-4.42-6.94-6.77-10.72ZM230.15,623.32c-1.14,1.84-2.21,3.57-3.28,5.31-3.68,6-7.21,12.1-13.39,16.05-.71.45-1.02,2.16-.87,3.2.46,3.15,1.52,6.23,1.81,9.38.42,4.57,2.94,6.71,7.14,7.73,2.02.49,2.68.02,2.94-1.96.91-6.89,3.97-12.59,9.44-17.03,1.08-.88,1.86-2.59,2.05-4.01.55-4.08.78-8.21,1.01-12.33.05-.82-.2-2.02-.77-2.45-1.83-1.4-3.87-2.52-6.07-3.89ZM200.46,760.67c2.58,5.95-.47,10.39-3.69,14.79-1.61,2.19-3.28,4.35-4.75,6.63-1.77,2.75-3.57,5.51-4.98,8.45-1.3,2.69-.79,3.18,2.22,3.31,6.82.3,13.14-1.86,19.42-4.04,1.18-.41,2.33-1.93,2.79-3.2,1.58-4.4,2.94-8.9,4.17-13.41.23-.83-.33-2.13-.93-2.89-1.96-2.5-4.25-4.76-6.14-7.31-2.8-3.78-2.78-3.88-8.1-2.32ZM452.6,760.19c-2.79.29-5-1.75-7.02.73-2.59,3.19-5.24,6.34-7.74,9.61-.53.69-.88,1.93-.65,2.73,1.21,4.33,2.5,8.65,4.04,12.87.5,1.37,1.55,3.12,2.77,3.57,6.33,2.33,12.77,4.43,19.68,4.14,2.83-.12,3.21-.53,2.17-3.17-.69-1.73-1.56-3.42-2.59-4.97-2.18-3.28-4.51-6.45-6.79-9.66-3.27-4.62-7.02-9.09-3.86-15.84ZM509.64,434.59c.33,2.51.7,5.01.97,7.52.21,1.95,1.27,2.87,3.1,3.48,4.44,1.48,8.85,3.06,13.18,4.83,2.22.91,3.21.64,3.59-1.89,1.28-8.52,2.68-17.03,4.08-25.53.39-2.36-.44-4.1-2.54-5.08-.66-.31-2.05-.24-2.43.22-4.41,5.32-10.53,8.01-16.49,10.95-2.36,1.16-3.8,2.71-3.46,5.51ZM143.09,434.33c.45-2.08-.58-3.87-3.04-5.09-6.04-2.99-12.26-5.7-16.79-11.04-.39-.46-1.76-.48-2.46-.18-1.98.82-2.68,2.52-2.35,4.6,1.36,8.7,2.76,17.4,4.1,26.11.34,2.19,1.35,2.57,3.31,1.69,2.65-1.19,5.35-2.27,8.09-3.23,8.68-3.03,8.69-3,9.14-12.88ZM538.01,393.93c1.27-11.6,2.48-22.4,3.53-33.22.05-.54-1.36-1.72-2.12-1.75-2.8-.12-5.62.08-8.43.23-2.94.16-4.76,1.69-5.81,4.49-2.05,5.44-4.24,10.83-6.5,16.2-.71,1.68-.32,2.35,1.27,3.24,5.14,2.87,10.13,5.99,15.18,9.02.76.45,1.5.93,2.88,1.79ZM115.13,393.55c.94-.46,1.6-.73,2.2-1.09,5.29-3.16,10.52-6.42,15.87-9.46,1.45-.82,1.55-1.54.99-2.88-1.55-3.72-3.03-7.47-4.52-11.21q-4.07-10.23-15.16-10.05c-3.16.05-3.41.34-3.07,3.45,1.05,9.5,2.08,19.01,3.14,28.51.09.8.31,1.58.54,2.73ZM258.87,463.01c-6.45,1.32-11.5,4.38-15.26,9.04-4.04,5.01-7.55,10.45-11.08,15.85-3.06,4.68-2.93,4.76,1.3,8.16.58.47,1.23.89,1.71,1.45,1.7,1.96,2.88,1.49,4.38-.44,3.81-4.92,7.94-10,13.88-11.94,5.62-1.83,6.43-4.9,5.7-9.9-.57-3.94-.44-7.98-.64-12.22ZM393.98,462.32c-.29,7-.6,12.96-.69,18.92-.01.69,1.07,1.79,1.85,2.04,5.93,1.89,10.5,5.68,14.65,10.12,1.76,1.89,3.5,5.11,5.38,5.21,1.99.1,4.07-2.89,6.23-4.35,1.5-1.02,1.68-1.94.7-3.46-2.38-3.71-4.31-7.76-7.01-11.2-3.39-4.32-7.07-8.5-11.19-12.11-2.54-2.22-6.12-3.26-9.92-5.18ZM473.95,386.63c1.36-.28,2.27-.36,3.1-.65,3.28-1.13,6.59-2.18,9.78-3.51,6.62-2.77,13.34-4.42,20.53-2.62,1.54.39,2.48-.18,2.97-1.73.61-1.97,1.24-3.95,2.07-5.82.95-2.12.61-3.07-1.84-3.69-7.71-1.97-15.38-4.13-23.01-6.4-2.01-.6-2.83-.03-3.62,1.74-3.01,6.76-6.15,13.47-9.22,20.2-.29.63-.41,1.32-.76,2.48ZM178.64,386.84c-.12-1.12-.06-1.52-.21-1.84-3.3-7.26-6.65-14.5-9.92-21.77-.76-1.7-1.84-1.39-3.22-1-6.76,1.94-13.54,3.83-20.33,5.68-5.54,1.51-5.55,1.47-3.6,7.02.31.89.7,1.75.91,2.66.48,2.08,1.68,2.37,3.72,2.26,4.26-.22,8.62-.45,12.79.26,3.82.65,7.42,2.57,11.13,3.87,2.71.95,5.46,1.79,8.72,2.86ZM220.46,764.78c3.43-4.38,7.65-6.36,12.51-7.18,6.52-1.09,6.79-1.18,5.8-7.71-1.31-8.64,1.3-15.67,7.46-21.65.77-.75,1.59-2.44,1.25-3.14-.81-1.68-2.5-1.96-4.35-1.16-4.9,2.14-9.82,4.22-14.77,6.23-1.68.69-2.18,1.74-2,3.5.41,4.11.71,8.22.97,12.34.37,5.82-1.59,8.51-7.18,10.04-1.39.38-2.77.82-4.54,1.34,1.65,2.51,3.02,4.6,4.85,7.38ZM547.03,288.64c-.07,0-.14,0-.21,0,0-3.84-.05-7.68.02-11.52.04-2.33-.75-3.17-3.2-2.72-4.05.75-8.14,1.33-12.24,1.72-2.49.24-3.21,1.33-2.85,3.66,1.13,7.5,2.21,15.02,3.26,22.53.25,1.78,1.17,2.38,2.89,2.18,3.07-.36,6.14-.72,9.23-.93,2.22-.15,3.17-1.2,3.14-3.4-.06-3.84-.02-7.68-.02-11.52ZM437.17,757.36c-1.8-.52-3.11-.92-4.44-1.27-5.58-1.5-7.59-4.21-7.25-9.97.24-4.02.49-8.05.96-12.04.25-2.12-.35-3.33-2.35-4.13-4.69-1.88-9.35-3.86-13.98-5.89-1.87-.82-3.55-.86-4.75.88-1.29,1.87.69,2.68,1.63,3.61,5.59,5.56,8.45,12.04,7.25,20.04-.22,1.48-.06,3.01-.3,4.48-.49,2.91.69,4.04,3.57,4.26,5.37.41,10.27,2.07,13.99,6.28.21.24.63.31,1.21.57,1.44-2.2,2.84-4.34,4.46-6.82ZM106.08,288.6s-.09,0-.13,0c0,3.94.03,7.88-.01,11.82-.02,1.94.82,2.96,2.78,3.13,3.18.27,6.35.57,9.51.94,1.61.18,2.52-.38,2.75-2.01,1.1-7.7,2.18-15.41,3.31-23.11.32-2.2-.64-2.99-2.74-3.23-4.19-.46-8.38-1.04-12.53-1.75-2.11-.36-2.99.26-2.96,2.39.05,3.94.01,7.88.01,11.81ZM367.25,708.25c-2.17.17-3.58.21-4.97.4-2,.28-4.06.72-4.41,3.17-.38,2.64,1.57,3.79,3.62,4.25,7.84,1.76,15.67,3.9,23.62,4.81,9.41,1.09,13.48-4.74,15.45-14.27.41-1.98-.58-4.03-2.61-4.43-1.51-.29-3.55.18-4.81,1.08-1.26.89-2.16,2.63-2.69,4.18-1.02,3-2.86,3.72-5.83,3.24-6.01-.97-12.06-1.7-17.36-2.43ZM267.88,721.07c7.62-.68,16.22-2.06,24.32-5.45,1.21-.51,2.53-2.45,2.51-3.71-.02-1.03-1.86-2.73-3.07-2.9-3.2-.45-6.53-.51-9.76-.23-4.94.44-9.85,1.25-14.75,1.99-2.2.33-3.48-.44-4.36-2.51-.76-1.78-1.64-3.76-3.06-4.94-1.15-.96-3.54-1.62-4.72-1.05-1.32.64-2.68,2.8-2.69,4.31-.05,8.12,6.52,14.49,15.58,14.5ZM224.39,439.26c4.19-5.25,8.05-10.02,11.82-14.87.46-.59.56-1.6.55-2.4-.05-3.28-.25-6.55-.32-9.82-.04-1.84-.93-2.74-2.7-2.92-.84-.09-1.76-.07-2.48-.43-6.01-3.01-9.59-.33-12.5,4.87-1.52,2.72-3.72,5.05-5.18,6.98,2.52,3.04,5.05,5.41,6.72,8.29,1.74,3,2.63,6.49,4.1,10.3ZM439.83,421.66c-.77-1.15-1.29-2-1.89-2.8-2.3-3.08-4.77-6.04-6.9-9.23-1.46-2.17-2.97-2.68-5.42-1.77-2,.74-4.18,1.07-6.31,1.34-2.1.28-2.64,1.39-2.91,3.37-1.04,7.66.3,14.39,6.46,19.7,1.53,1.32,2.57,3.21,3.88,4.81.44.54,1.01.98,1.82,1.74,2.93-6.46,3.55-14.06,11.28-17.16ZM441.79,153.25c.2,3.43.27,6.39.6,9.32.07.66.94,1.35,1.59,1.82,8.52,6.13,17.08,12.22,25.61,18.33,5.69,4.07,3.92,4.62,9.09-.97,2.32-2.51,2.29-2.7-.31-4.81-10.58-8.61-22.03-15.92-33.9-22.59-.69-.39-1.47-.61-2.7-1.1ZM211.01,153.19c-1.19.53-1.98.77-2.65,1.21-10.5,6.87-21.15,13.53-31.43,20.73-6.13,4.3-5.65,3.29-.72,8.98,1.57,1.81,2.7,1.85,4.65.42,9.29-6.82,18.71-13.46,28.06-20.2.65-.47,1.49-1.17,1.56-1.83.31-2.94.36-5.9.53-9.3ZM413.82,670.44c-.16-2.54-.2-5.17-.52-7.77-.56-4.52-2.61-6.76-7.1-7.47-4.72-.75-9.47-1.47-14.23-1.68-3.62-.16-7.3.28-10.89.84-2.74.43-3.8,3.06-2.08,4.68.79.75,2.13,1.11,3.27,1.26,6.6.89,13.2,1.75,19.82,2.44,2.4.25,3.26,1.3,3.12,3.6-.23,3.74-.4,7.49-.52,11.23-.09,2.96,1.34,4.92,3.65,5.19,2.39.29,4.46-1.44,4.88-4.39.36-2.59.41-5.23.61-7.94ZM238.89,670.36c.28,2.92.36,5.94.92,8.86.44,2.33,2.1,3.83,4.67,3.52,2.46-.29,3.4-2.11,3.6-4.35.08-.83-.06-1.68-.1-2.52-.13-3.18-.21-6.36-.4-9.54-.14-2.29.73-3.35,3.13-3.6,5.31-.55,10.59-1.39,15.88-2.07,1.76-.23,3.65-.02,5.27-.6,1.08-.39,2.33-1.75,2.46-2.81.11-.84-1.25-2.03-2.19-2.77-.59-.47-1.6-.43-2.43-.56-8.2-1.27-16.26,0-24.27,1.54-3.27.63-5.27,2.85-5.75,6.15-.41,2.87-.54,5.77-.8,8.76ZM380.69,588.61c1.12,1.27,1.72,2.08,2.45,2.75,8.51,7.91,17.06,15.79,25.57,23.69,3.49,3.24,4.39,3.34,8.91.72-.3-.54-.55-1.14-.92-1.63-6.57-8.66-13.14-17.32-19.79-25.93-.48-.62-1.59-1.15-2.35-1.09-4.37.36-8.73.91-13.87,1.48ZM272.27,588.63c-5.41-.6-9.85-1.16-14.29-1.54-.67-.06-1.63.51-2.07,1.08-6.62,8.61-13.18,17.26-19.73,25.92-.41.54-.65,1.22-1.16,2.19,2.73.25,4.88,2.65,7.41.36,7.43-6.72,14.89-13.41,22.25-20.2,2.45-2.26,4.67-4.78,7.6-7.81ZM244.47,220.3c4.37-2.04,8.21-3.75,11.95-5.66.54-.27,1.04-1.65.81-2.23-3.17-7.99-6.44-15.95-9.78-23.87-.21-.5-1.49-1.08-1.88-.87-2.16,1.11-4.26,2.37-6.22,3.79-.46.33-.57,1.53-.43,2.25,1.06,5.61,2.19,11.21,3.35,16.8.64,3.09,1.39,6.16,2.22,9.78ZM408.2,220.19c.38-1.41.7-2.37.9-3.34,1.29-6.23,2.6-12.47,3.82-18.71,1.33-6.81,1.28-6.79-4.84-10.15-1.31-.72-2.24-.87-2.89.71-3.23,7.87-6.5,15.72-9.62,23.63-.24.6.39,2.08,1,2.39,3.65,1.87,7.41,3.53,11.63,5.48ZM274.27,352.14c-.26.08-.51.16-.77.24-.09,1.12-.14,2.24-.27,3.36-.17,1.44.45,2.03,1.86,2.13,4.01.3,8.01.66,12.02,1.02,1.64.15,2.67-.32,2.18-2.17-2.06-7.67-4.16-15.33-6.28-22.98-.47-1.71-1.52-2.17-3.2-1.28-2.64,1.4-5.32,2.76-8.05,3.97-1.67.74-1.79,1.53-1.18,3.25,1.44,4.08,2.49,8.3,3.7,12.46ZM364.7,358.83c4.69-.36,8.51-.78,12.34-.9,2.11-.07,2.73-.75,2.5-2.87-.59-5.5.05-10.81,2.76-15.79.31-.56-.23-2.18-.83-2.53-2.75-1.58-5.68-2.86-8.51-4.31-1.56-.8-2.54-.35-2.98,1.25-2.11,7.66-4.24,15.31-6.21,23.01-.18.71.72,1.7.92,2.14ZM189.5,411c-.27.11-.54.22-.82.33.73,1.14,1.22,2.9,2.24,3.3,3.74,1.45,7.64,2.51,11.53,3.53.7.18,1.99-.25,2.38-.83,3.1-4.54,6.07-9.18,9.04-13.82.53-.83,1.44-2.18,1.14-2.63-1.24-1.94-2.61-4.01-4.46-5.23-.74-.49-2.94.9-4.3,1.73-4.3,2.62-8.3,5.86-12.84,7.91-2.87,1.3-4.39,2.5-3.91,5.71ZM463.33,411.31c.24-.09.48-.18.72-.27-.9-1.65-1.45-4.31-2.77-4.78-5.26-1.87-9.59-5.03-13.91-8.37-4.5-3.48-4.42-3.32-8.13.89-1.78,2.02-1.46,3.29.03,5.29,3,4.05,5.83,8.26,8.29,12.65,1.02,1.82,1.74,1.93,3.43,1.33,3.17-1.13,6.38-2.27,9.66-2.99,2.26-.5,3.51-1.2,2.7-3.75ZM298.88,37.74c6.83-.63,14.4-3.34,21.6-7.07.99-.51,2.02-2.34,1.85-3.35-.2-1.17-1.63-2.23-2.71-3.12-.51-.42-1.47-.56-2.16-.45-7.46,1.21-14.97,2.2-22.32,3.91-3.41.79-4.81,3.89-4.15,6.43.65,2.49,2.9,3.76,7.88,3.65ZM337.55,23.17c-.03.14-.06.27-.09.41-.75.05-1.5.07-2.24.17-2.19.3-4.46.69-4.91,3.35-.43,2.57,1.5,3.7,3.48,4.43,5.17,1.9,10.34,3.84,15.62,5.41,2.37.71,4.99.77,7.5.76,2.3-.01,4.19-1.14,4.85-3.54.67-2.4-.45-4.23-2.32-5.57-1.05-.75-2.26-1.47-3.49-1.73-6.12-1.31-12.27-2.47-18.4-3.68ZM159.29,291.53c-1.06-.23-2.17-.59-3.3-.7-6.34-.65-12.69-1.14-19.01-1.91-2.31-.28-2.91.57-3.21,2.62-.64,4.35-1.5,8.67-2.32,13-.52,2.72.21,3.72,2.98,3.57,1.18-.07,2.53-.28,3.47-.93,7.17-4.93,14.25-9.97,21.35-14.99.05-.03.02-.18.05-.66ZM492.93,291.42c6.88,5,13.07,9.5,19.27,13.99.91.66,1.82,1.39,2.84,1.81,1.19.48,2.5.87,3.77.89,2.18.03,3.19-.95,2.65-3.41-.97-4.49-1.77-9.02-2.44-13.56-.29-1.96-1.07-2.45-2.98-2.23-5.12.6-10.27.96-15.4,1.48-2.39.24-4.76.63-7.71,1.03ZM351.89,668.08c4.97.16,7.34-1.29,7.54-4.15.2-2.82-2.08-4.72-6.19-5.09-1.4-.13-2.81-.13-4.21-.21q-4.66-.27-6.07-4.62c-.74-2.32-1.22-4.77-2.27-6.94-.49-1.02-2.05-2.07-3.14-2.08-.87,0-2.46,1.5-2.51,2.41-.73,12.07,1.78,19.99,14.19,20.5,1.12.05,2.25.16,2.65.19ZM300.51,668.36c3.03-.54,6.18-.74,9.07-1.73,1.99-.68,4.18-2.08,5.3-3.79,2.96-4.55,3.59-9.83,2.88-15.14-.14-1.06-1.59-2.6-2.57-2.71-.99-.11-2.53,1.05-3.15,2.06-.85,1.39-1.02,3.19-1.54,4.79-2.37,7.23-1.13,6.42-8.69,6.84-.65.04-1.31.06-1.96.12-4.23.36-6.65,2.28-6.48,5.14.17,2.9,2.62,4.33,7.15,4.42ZM244.47,360.08c-.17-5.81,1.4-8.77,4.96-9.01,1.21-.08,3.03.17,3.61.97,1.37,1.9,2.18,4.22,3.38,6.74,1.22-.11,3.11-.13,4.92-.53.68-.15,1.73-1.34,1.63-1.85-.79-3.84-1.75-7.66-2.84-11.42-.65-2.26-2.15-2.6-4.39-1.75-4.46,1.69-8.98,3.27-13.58,4.55-5.19,1.45-5.81,2.26-4.14,7.54.36,1.15.95,2.24,1.56,3.29,1.09,1.88,2.64,2.58,4.89,1.48ZM408.33,360.04c1.95,1.11,3.8.76,4.68-1.23,1.1-2.51,1.83-5.23,2.33-7.93.13-.69-1.09-2.11-1.96-2.41-5.56-1.92-11.23-3.55-16.8-5.44-1.8-.61-2.98-.25-3.6,1.44-.83,2.28-1.72,4.57-2.17,6.94-1.4,7.39-3.3,6.77,5.94,7.3.15,0,.32-.17.47-.26.43-5.35,2.29-7.69,5.91-7.44,3.73.25,5.43,3.15,5.21,9.03ZM421.82,363.22c3.07,1.38,6.37,2.89,9.69,4.37,1.52.68,2.24-.05,2.62-1.49,1.09-4.07,2.2-8.13,3.35-12.19.46-1.61-.09-2.61-1.7-2.86-2.87-.43-5.75-.85-8.64-1.03-.63-.04-1.7.78-1.91,1.42-1.21,3.78-2.23,7.62-3.42,11.78ZM230.99,363.27c-1.17-4.16-2.21-8.09-3.42-11.96-.18-.58-1.18-1.34-1.75-1.3-2.89.2-5.8.49-8.62,1.11-.72.16-1.75,1.81-1.59,2.55.93,4.2,2.09,8.36,3.38,12.47.2.65,1.66,1.56,2.16,1.37,3.47-1.33,6.83-2.91,9.83-4.24ZM217.19,735.74c-.27-.23-.54-.47-.81-.7-5.54,3.37-11.13,6.65-16.53,10.21-.66.44-.48,2.4-.33,3.62.03.23,1.79.47,2.69.32,4.44-.71,8.86-1.5,13.26-2.38.77-.16,2.04-.89,2.04-1.37.05-3.23-.19-6.46-.33-9.69ZM435.66,734.88c-.19,4.05-.42,7.2-.42,10.34,0,.52.95,1.38,1.57,1.5,4.85.97,9.74,1.76,14.6,2.68,1.67.32,2.5-.48,2.21-1.89-.24-1.22-.92-2.65-1.87-3.37-2.31-1.72-4.86-3.14-7.37-4.57-2.64-1.51-5.35-2.89-8.72-4.7ZM328.08,624.17s-.07,0-.11,0c0-2.52.14-5.05-.08-7.56-.07-.85-1.02-1.62-1.57-2.43-.45.8-1.23,1.57-1.3,2.41-.39,4.93-.57,9.88-.92,14.82-.12,1.78.47,2.61,2.32,2.61,1.83,0,2.53-.76,2.31-2.59-.29-2.41-.45-4.84-.66-7.25Z" style="fill: #000; stroke-width: 0px;"/>
</svg>