<?xml version="1.0" encoding="UTF-8"?>
<svg id="Layer_1" data-name="Layer 1" xmlns="http://www.w3.org/2000/svg" viewBox="0 0 764.52 900">
  <path d="M21.56,585.7c-.5-14.33.12-26.94,4.23-39.13.93-2.77,2.07-5.56,3.68-7.97,1.68-2.52,1.49-4.51.15-7.04C7.74,489.94-1.91,445.52.31,398.66c1.97-41.55,15.84-79.21,39.21-113.46,1.63-2.39,2.11-4.38,1.36-7.39-1.09-4.41-1.41-9.11-1.41-13.68.07-40.01,9.68-77.46,32.84-110.38,26.04-37.03,61.51-60.05,106.62-67.31,1.51-.24,3.06-.68,4.56-.59,8.29.52,14.76-3.02,21.2-7.94,15.94-12.16,34.51-16.8,54.28-17.15,2.7-.05,4.38-.99,6.21-2.9,9.38-9.76,18.67-19.64,28.54-28.88,11.75-11,26.04-17.52,41.68-20.95,12.11-2.65,24.26-5.15,36.48-7.19,14.98-2.51,29.5,1.15,44,4.25,4.75,1.01,9.47,2.15,14.22,3.18,22.32,4.84,39.61,17.83,54.93,33.96,5.02,5.28,9.74,10.84,14.81,16.08,1.18,1.22,3.18,2.28,4.82,2.3,22.34.32,42.6,6.61,60.06,20.84,3.37,2.75,6.94,3.66,11.2,4.02,32.18,2.7,60.67,14.63,85.59,35.09,31.64,25.99,50.21,59.74,58.81,99.38,3.87,17.84,6.64,35.89,3.68,54.03-1.13,6.93,1.2,11.33,4.56,16.57,30.36,47.38,41.22,99.04,33.63,154.76-4.14,30.35-12.98,59.14-27.35,86.2-1.44,2.71-1.26,4.64.3,7.34,5.86,10.13,7.23,21.45,7.8,32.89,2.43,48.42-12.55,90.86-43.79,127.77-23.83,28.15-51.83,50.5-87.2,62.29-9.38,3.12-19.42,4.22-29.09,6.49-2.19.51-4.56,1.6-6.14,3.16-12.38,12.19-24.24,24.93-36.99,36.71-6.41,5.92-14.36,10.16-21.57,15.23-2.07,1.46-4.3,2.91-5.87,4.83-25.88,31.65-59.6,52.11-97.29,65.9-25.03,9.16-50.67,7.38-75.22-3.48-33.54-14.84-64.45-33.46-87.81-62.65-1.18-1.47-2.67-2.85-4.3-3.76-18.34-10.21-33.54-24.17-47.59-39.54-4.23-4.62-8.43-9.27-12.81-13.75-1.17-1.19-2.89-2.45-4.45-2.56-25.49-1.88-48.27-11.63-69.12-25.45-37.74-25.02-65.78-58.41-82.4-100.85-7.29-18.61-9.26-38.18-9.75-56.36ZM135.45,436.16c.36.02.73.04,1.09.05-.39,45.62,6.41,90,23.12,132.6,9.36,23.87,19.97,47.18,35.93,67.5,22.31,28.4,48.74,52.35,79.43,71.49,17.43,10.87,35.39,20.8,55.75,24.89,11.99,2.4,24.23,3.6,36.4,5.05,6.57.78,13.24,1.5,19.82,1.25,8.41-.32,16.77-1.85,25.18-2.48,13-.98,25.68-3.69,37.65-8.55,49.97-20.32,90.51-53.21,122.32-96.29,22.98-31.12,36.33-67.08,45.77-104.44,8.88-35.15,10.32-70.96,10.13-107.01-.23-42.54-10.1-82.5-29.84-120.13-9.88-18.83-20.08-37.39-34.69-53.14-19.66-21.21-42.67-38.14-67.44-52.76-18.54-10.94-37.7-20.56-58.99-25.24-17.1-3.76-34.1-8.03-51.19-11.84-2.63-.59-5.61-.3-8.29.24-7.14,1.44-14.23,3.15-21.29,4.93-15.98,4.02-32.35,6.99-47.82,12.48-28.05,9.96-52.9,26.02-76.48,44.04-23.87,18.25-43.29,40.14-58.03,66.55-16.69,29.91-29.33,61.21-34.4,95.04-2.76,18.38-2.83,37.17-4.12,55.77ZM130.49,631.11c.83-2.64,1.23-3.83,1.58-5.04,2.66-9.21,5.21-18.46,8.01-27.63.99-3.26.77-6.11-.61-9.24-3.66-8.3-7.6-16.54-10.36-25.16-8.73-27.28-13.96-55.37-15.93-83.86-.83-11.98-3.89-21.06-13.55-28.76-8.74-6.96-15.92-15.78-26.04-21.22-7.21-3.88-7.33-11.42-.48-16,13.49-9.03,27.18-17.76,40.66-26.78,1.63-1.09,3.23-3.09,3.67-4.95,2.32-9.7,4.48-19.44,6.31-29.25,4.29-22.98,9.6-45.6,22.02-65.83,2.05-3.34,2.12-6.47,1.4-10.2-2.92-14.93-5.63-29.89-8.13-44.9-.6-3.6-2.01-4.38-5.07-3.08-7.87,3.35-16.08,6.09-23.51,10.23-31.89,17.77-55.07,44.01-72.37,75.81-1.48,2.72-2.28,4.77.63,7.3,1.7,1.48,2.46,4.12,3.43,6.33,6.46,14.69,8.09,30.34,8.58,46.11.89,28.81-.68,57.54-4.25,86.14-1.63,13.04-4.71,25.73-12.82,36.51-1.88,2.5-1.99,4.55-.85,7.35,7.16,17.46,16.29,33.83,26.42,49.73,8.95,14.05,17.71,28.14,29.89,39.74,6.11,5.82,11.81,12.09,18.13,17.67,7.24,6.39,14.96,12.23,23.28,18.96ZM634.04,630.79c7.28-5.7,14.27-10.64,20.64-16.27,21.72-19.17,40.22-40.95,54.74-66.22,8.17-14.23,16.13-28.48,22.25-43.7.63-1.56.98-4.15.14-5.26-8.44-11.1-11.93-23.97-13.68-37.42-3.59-27.57-5.09-55.27-4.51-83.07.36-17.07,1.78-34.01,8.68-49.96,1.01-2.33,1.9-5,3.66-6.64,2.51-2.34,1.93-4.14.63-6.64-9.17-17.62-20.92-33.38-34.85-47.45-17.32-17.5-37.16-31.24-60.85-38.82-4.44-1.42-4.54-1.15-5.35,3.4-2.68,15.1-5.4,30.2-8.34,45.25-.63,3.22-.46,5.9,1.23,8.75,9.2,15.56,15.35,32.28,18.95,49.99,3.09,15.16,6.29,30.3,9.7,45.4.45,1.98,2.04,4.18,3.75,5.33,13.36,8.98,26.95,17.64,40.33,26.6,7.09,4.75,6.91,12.03-.42,16.23-7.96,4.57-14.93,10.21-21.24,16.85-4.3,4.54-9.23,8.48-13.53,13.02-1.61,1.7-2.9,4.24-3.18,6.54-1.49,12.18-2.1,24.48-3.96,36.6-4.59,30.01-10.15,59.8-24.12,87.28-1.02,2-.87,5.04-.27,7.34,2.48,9.52,5.33,18.95,8.07,28.41.34,1.17.8,2.31,1.55,4.43ZM166.88,180.46c.19,3.45.48,6.89.53,10.34.04,3.32,1.48,5.37,4.48,6.87,10.06,5.03,20.04,10.24,30,15.45,2.27,1.19,4,.83,5.9-.8,7.27-6.24,14.68-12.33,21.97-18.56,17.03-14.54,36.34-25.57,55.96-36.08,3.36-1.8,6.99-3.28,10.66-4.27,11.97-3.2,24.06-5.97,36.01-9.22,2.49-.68,5.39-2.18,6.78-4.2,5.13-7.47,9.65-15.36,14.52-23.01,1.2-1.89,1.15-3.13-.7-4.5-17.92-13.27-36.9-24.34-59.12-28.83-2.69-.54-4.53-.14-6.41,1.99-1.48,1.68-3.61,2.79-5.5,4.08-5.04,3.42-10.22,6.63-15.13,10.22-4.12,3.01-7.88,6.52-11.9,9.68-16.16,12.73-33.93,22.34-53.96,27.41-7.53,1.91-15.17,2.51-22.64-.4-2.07-.8-3.02-.28-3.66,1.77-4.26,13.71-8.15,27.48-7.81,42.06ZM597.4,181.8c.53-15.71-3.33-29.62-7.79-43.4-.28-.88-2.15-2.11-2.79-1.87-10.53,3.86-20.69,1.67-30.8-1.58-21.69-6.99-40.28-19.22-57.25-34.1-5.11-4.48-10.17-8.9-16.66-11.39-1.84-.7-3.72-2.01-4.91-3.55-2.1-2.73-4.41-2.71-7.43-2.08-21.9,4.62-40.64,15.57-58.35,28.69-1.9,1.41-1.83,2.67-.6,4.49,3.29,4.87,7.22,9.51,9.47,14.84,3.88,9.21,10.58,12.82,20.04,14.44,16.14,2.77,31.83,7.24,46.4,15.29,25.22,13.92,48.09,31,69.44,50.21,2.34,2.11,4.3,2.54,7.15,1,6.97-3.77,14.2-7.06,21.14-10.87,14.81-8.12,11.87-3.23,12.94-20.12ZM307.07,825.32c11.03-.57,21.89-1.04,32.72-1.75,2.89-.19,5.8-.93,8.59-1.79,4.33-1.34,4.05-1.46,2.13-5.56-8.89-18.98-17.88-37.92-26.17-57.16-1.91-4.44-4.05-6.7-8.55-7.19-1.39-.15-2.74-.63-4.13-.83-21.4-3.12-40.44-12-57.54-24.8-22.12-16.56-43.47-34.09-61.29-55.44-2.24-2.69-4.32-3.46-7.89-2.59-7.31,1.77-14.76,3-22.22,4.06-3.25.46-4.36,1.54-4.04,4.87,1.13,11.7,4.41,22.82,8.74,33.67.42,1.04,1.51,2.06,2.54,2.58,5.13,2.56,10.55,4.59,15.49,7.45,42.46,24.6,77.75,57.1,105.67,97.42,4.29,6.2,8.89,8.99,15.94,7.08ZM457.46,825.33c0,.12,0,.25-.01.37,1.28,0,2.55,0,3.83,0,3.54-.03,6.56-.01,9.18-3.74,9.46-13.46,18.17-27.56,30.75-38.57,3.84-3.36,7.39-7.08,10.88-10.81,16.62-17.77,35.58-32.67,56.28-45.31,8.46-5.16,17.56-9.26,26.32-13.93.93-.49,1.89-1.43,2.26-2.38,4.36-11.1,7.87-22.42,8.83-34.41.22-2.8-.69-3.77-3.43-4.2-8.06-1.29-16.05-3.04-24.12-4.26-1.66-.25-4.24.4-5.23,1.6-12.31,14.84-26.76,27.42-41.38,39.83-12,10.19-24.34,19.84-38.13,27.6-14.39,8.1-29.95,12.33-46.04,15.04-3.64.61-6.09,2.05-6.83,6.04-.41,2.21-1.61,4.29-2.58,6.38-8.25,17.72-16.51,35.43-24.82,53.11-.85,1.81-.62,3.01,1.3,3.54,3.19.88,6.39,2.06,9.64,2.29,11.08.8,22.19,1.23,33.29,1.81ZM487.09,63.57c-4.86-5.12-8.94-10.05-13.68-14.25-8.29-7.36-16.95-14.3-25.52-21.34-1.66-1.36-3.43-1.89-5.46-.06-9.1,8.19-20.12,12.66-32.05,13.16-18.47.78-37,.71-55.48.12-11.14-.36-21.51-4.36-30.52-11.23-5.06-3.86-5.02-3.91-10.42-.48-.32.21-.65.4-.97.62-13.17,9.07-23.82,20.84-34.56,32.5-.2.21-.1.7-.22,1.8,8.2,1.82,16.46,3.38,24.56,5.53,8,2.12,16.29,3.91,23.65,7.48,12.28,5.95,23.99,13.07,35.77,20,2.92,1.72,4.5,1.67,6.04-1.32,1.58-3.06,3.35-6.03,5-9.06,1.95-3.58,4.59-6.2,8.95-6.2,4.33,0,7.05,2.52,9.02,6.12,1.78,3.25,3.67,6.44,5.43,9.7,1.38,2.55,2.84,2.42,5.24,1.02,11.81-6.87,23.56-13.91,35.74-20.08,6.3-3.19,13.37-5.03,20.25-6.88,8.14-2.19,16.45-3.72,24.67-5.58,1.31-.3,2.56-.86,4.55-1.55ZM172.91,752.33c-1.06-1.98-1.71-3.18-2.36-4.38-10.77-20.13-19.79-40.95-24.97-63.29-.6-2.58-.32-6.64-1.81-7.43-1.91-1.01-5.21.6-7.91,1.08-.25.04-.5.1-.75.14-9.12,1.62-13.94-2.96-12.33-12.03,1.18-6.66,2.72-13.27,4.28-19.86.55-2.31.02-3.25-2.27-4.25-3.82-1.66-7.88-3.43-10.88-6.19-8.91-8.22-17.48-16.83-25.95-25.52-17.11-17.56-30.82-37.82-45.2-57.53-.78-1.06-1.64-2.06-2.6-3.25-.57.74-.94,1.01-.99,1.33-1.35,9.86-2.74,19.71-3.89,29.59-.13,1.12.84,2.61,1.7,3.56,2.73,3.01,6.14,5.51,8.43,8.81,7.12,10.29,14.29,20.59,20.63,31.37,14.34,24.38,27.63,49.32,35.66,76.64,1.61,5.48,2.78,11.21,3.12,16.88.19,3.25,1.07,5.08,3.58,6.86,18.38,13.04,38.42,22.28,60.51,26.96.97.21,1.97.26,3.99.51ZM591.7,751.93c1.04.17,1.42.34,1.76.27,23.75-4.66,45.18-14.52,64.53-28.97.79-.59,1.58-1.9,1.52-2.81-.58-8.01,1.8-15.47,4.3-22.84,12.63-37.25,31.62-71.2,54.23-103.2,2.61-3.7,6.37-6.58,9.33-10.06,1.03-1.21,1.9-3.17,1.75-4.67-.86-8.64-2.01-17.25-3.14-25.86-.16-1.18-.73-2.31-1.43-4.44-1.11,1.41-1.73,2.16-2.3,2.95-4.32,5.87-8.8,11.64-12.9,17.65-14.64,21.43-31.99,40.53-50.31,58.78-5.87,5.84-11.89,11.67-20.26,14.12-.73.21-1.44,2.46-1.23,3.58,1.19,6.41,2.79,12.74,4.02,19.14,1.9,9.94-3.03,14.73-12.93,12.75-2.7-.54-6.34-2.31-7.85-1.2-1.67,1.22-1.31,5.12-1.96,7.83-5.32,22.3-14.29,43.16-25.11,63.28-.59,1.09-1.19,2.18-2.01,3.69ZM709.59,267.54c.55-.42,1.11-.84,1.66-1.25,0-1.13.06-2.26,0-3.38-1.11-18.05-4.16-35.77-8.7-53.27-1.07-4.14-3.11-6.23-7.23-7.2-17.09-4-30.77-13.38-41.61-27.05-3.89-4.9-7.91-9.74-11.42-14.9-8.55-12.57-16.85-25.3-25.23-37.98-3.35-5.08-6.64-10.19-10.01-15.26-.4-.61-1.04-1.31-1.68-1.46-5.9-1.38-11.83-2.64-18.54-4.1,16.16,27.26,24.04,55.69,23.15,86.83,2.32-1.1,4.24-2.05,6.19-2.92,7.22-3.24,13.05.02,13.4,7.93.21,4.81-.45,9.67-.96,14.48-.27,2.52.27,3.86,2.83,4.95,28.6,12.15,55.09,27.51,76.09,51,.91,1.01,1.4,2.4,2.09,3.61ZM154.45,188.42c-.84-31.23,7.05-59.55,23.07-86.6-4.76.93-8.7,1.84-12.69,2.45-4.24.65-8.01,1.6-8.89,6.71-.16.92-1.08,1.7-1.66,2.54-6.99,10.07-13.97,20.13-20.98,30.19-6.49,9.33-12.82,18.78-19.56,27.93-11.6,15.75-26.49,26.86-45.9,31.19-3.1.69-4.69,2.4-5.54,5.51-4.98,18.32-8.07,36.94-9.18,55.89-.05.79.23,1.61.44,2.95,1.14-1.07,1.91-1.69,2.56-2.41,21.17-23.9,47.91-39.54,76.89-51.82,2.49-1.06,3.18-2.34,2.91-4.92-.53-5.06-1.19-10.19-.91-15.24.39-7.09,6-10.22,12.54-7.54,2.21.91,4.36,1.99,6.9,3.17ZM274.83,835.72c1.51,1.6,2.34,2.53,3.22,3.4,11.33,11.04,23.95,20.34,37.71,28.14,3.26,1.85,6.19,3.47,9.69.52.87-.73,2.41-.85,3.67-.93,13.78-.84,27.57-2.31,41.35-2.24,20.94.11,41.88,1.27,62.82,2.1,2.24.09,4.84.39,6.58,1.59,2.65,1.83,4.61,1.2,7.01-.12,14.78-8.11,28.23-17.98,40.24-29.82.68-.68,1.25-1.47,1.88-2.21-1.5-.42-2.65-.09-3.82.12-7.04,1.24-14.07,3.39-21.13,3.47-14.94.17-29.9-.46-44.82-1.41-3.97-.25-7.94-2.53-11.61-4.45-2.12-1.11-3.51-1.7-4.48.81-3.5,9.02-11.42,14.61-16.96,22.03-2.31,3.09-5.73,2.98-8.08-.12-5.6-7.39-13.27-13.19-16.83-22.14-.79-1.98-2.09-2.33-3.87-.84-4.54,3.79-9.99,4.97-15.73,5.18-6.26.23-12.53.26-18.78.7-15.4,1.1-30.68,1-45.58-3.77-.44-.14-.97-.02-2.46-.02Z" style="fill: #000; stroke-width: 0px;"/>
  <path d="M570.55,436.27c2.81,36.32-2.53,71.55-16.06,105.26-10.53,26.22-26.81,49.02-45.21,70.35-21.54,24.97-46.48,45.63-75.91,60.72-10.76,5.51-21.82,10.57-33.99,11.32-11.08.68-22.3.5-33.35,0-16.59-.76-31.06-8.81-45.17-17-37.37-21.7-66.1-52.07-90.34-87.56-24.84-36.36-35.91-76.74-37.27-119.92-.99-31.44.28-63.03,6.79-93.96,8.71-41.36,28.39-77.03,58.82-106.52,15.21-14.74,31.51-28.11,50.95-37.05,13.46-6.19,27.41-10.46,42.41-10.92,5.07-.15,10.14-2.17,15.16-1.97,13.75.53,27.55-1.46,41.27,1.57,7.94,1.76,16.29,1.69,24.18,3.57,23.62,5.61,43.11,18.79,61.34,34.29,34.09,28.99,56.81,65.23,68.31,108.27,5.73,21.43,7.29,43.6,8.04,65.76.16,4.6.02,9.2.02,13.8ZM464.83,283.47c-.76.38-1.14.48-1.42.72-7.06,6.05-14.17,12.05-21.12,18.24-1.45,1.29-2.89,3.12-3.31,4.93-4.71,20.68-9.26,41.39-13.66,62.14-.26,1.24.82,3.49,1.95,4.2,19.19,12.1,35.62,27.39,50.92,43.97,1.98,2.15,3.59,2.6,6.26,1.88,9.38-2.51,18.83-4.75,28.22-7.21,1.07-.28,2.45-1.12,2.81-2.04,1.77-4.57.17-9.48-3.66-12.45-18.43-14.3-38.43-26.17-58.65-37.7-2.64-1.51-5.28-3.24-7.41-5.38-4.23-4.24-3.17-9.38,2.02-12.36,3.2-1.83,6.41-3.75,9.3-6.03,9.54-7.51,18.89-15.25,28.41-22.78,2.01-1.59,1.58-2.82.28-4.44-4.54-5.69-9-11.46-13.58-17.13-2.38-2.95-4.94-5.75-7.38-8.57ZM299.38,283.94c.24-.1-.07-.07-.21.1-7.02,8.61-14.02,17.24-21.03,25.87-1.58,1.94-.18,2.86,1.21,3.97,7.29,5.82,14.46,11.79,21.81,17.53,4.72,3.69,9.45,7.46,14.58,10.5,6.59,3.9,7.51,9.45,1.47,14.26-2.98,2.37-6.36,4.28-9.69,6.16-19.26,10.9-38.11,22.43-55.62,36.04-3.16,2.46-4.71,8.86-2.88,12.39.35.67,1.26,1.26,2.02,1.45,10.02,2.58,20.05,5.15,30.12,7.51,1.22.29,3.13-.19,4.02-1.04,4.22-4.09,8.07-8.55,12.27-12.65,12.27-11.98,25.05-23.38,39.84-32.23,2.18-1.31,2.22-2.86,1.79-4.82-4.47-20.34-8.91-40.69-13.49-61.01-.4-1.77-1.34-3.77-2.68-4.9-7.59-6.39-15.38-12.55-23.53-19.14ZM446.88,586.7c3.69-5.34,7.06-9.8,9.91-14.58,1.03-1.73,1.52-4.35,1.08-6.3-5.02-21.66-10.28-43.26-15.43-64.89-.79-3.3-.01-6.23,3.09-7.93,2.97-1.62,5.62-.56,8.04,1.59,2.28,2.03,4.57,4.1,7.09,5.8,11.54,7.8,23.2,15.43,34.73,23.24,2.2,1.49,3.52,1.19,4.37-1.16,2.64-7.31,5.3-14.62,7.68-22.01.37-1.16-.3-3.1-1.15-4.14-9.78-11.81-19.73-23.47-29.51-35.27-1.81-2.18-3.33-2.31-5.89-1.28-10.12,4.1-19.84,8.89-28.26,15.92-1.59,1.33-3.19,3.51-3.41,5.45-1.21,10.4-2.34,20.83-2.84,31.28-.88,18.36-1.29,36.75-1.87,55.13-.03.87-.09,1.97.36,2.6,3.8,5.36,7.72,10.64,12.03,16.53ZM317.55,586.67c4.15-5.56,7.9-10.36,11.34-15.37.83-1.2.91-3.12.86-4.7-.52-14.68-1.01-29.37-1.78-44.05-.73-13.9-1.66-27.79-2.81-41.65-.15-1.81-1.77-3.88-3.28-5.12-8.36-6.88-17.89-11.74-27.9-15.83-3.08-1.25-4.73-.89-6.78,1.61-9.58,11.65-19.38,23.12-28.96,34.76-.91,1.1-1.56,3.2-1.16,4.47,2.26,7.18,4.84,14.25,7.37,21.33,1.1,3.09,2.74,2.8,5.2,1.09,9.04-6.25,18.3-12.19,27.37-18.41,4.83-3.31,9.48-6.89,14.11-10.49,2.44-1.89,4.93-2.81,7.77-1.29,2.83,1.52,3.73,4.16,3.19,7.18-.43,2.38-1.27,4.69-1.83,7.05-4.71,19.77-9.42,39.55-14.06,59.34-.27,1.16-.35,2.76.24,3.67,3.37,5.25,6.97,10.35,11.12,16.4ZM424,555.27c.44-.1.89-.21,1.33-.31.58-6.59.96-13.21,1.82-19.77.65-4.98.28-9.07-5.11-11.22-1.25-.5-2.23-1.68-3.3-2.59-11.17-9.54-22.38-19.04-33.45-28.69-2.29-1.99-3.84-2.03-6.15-.01-11.36,9.9-22.33,20.4-34.53,29.16-6.91,4.96-8.47,10.02-7.14,17.51.92,5.18,1.15,10.48,1.68,15.72.4.09.79.18,1.19.27,1.91-3.53,3.93-7,5.71-10.59,2.23-4.5,4.99-6.52,8.74-6.08,3.78.44,6.43,3.47,7.15,8.35.33,2.27.41,4.58.64,6.87.11,1.17.29,2.33.55,4.33,4.41-3.63,8.26-6.56,11.82-9.79,4.77-4.32,9.64-4.33,14.52.01,3.66,3.26,7.56,6.24,12.06,9.91.21-2.64.34-4.25.48-5.86.15-1.78.21-3.58.49-5.34.79-5.04,3.26-7.95,7.03-8.47,3.85-.53,6.67,1.55,8.97,6.28,1.7,3.51,3.67,6.88,5.52,10.32ZM410.61,305.43c-1.26,1.12-2.18,1.95-3.11,2.76-5.86,5.13-11.51,10.53-17.65,15.3-6.04,4.7-9.41,4.68-15.51-.09-6.12-4.79-11.76-10.21-17.61-15.35-.89-.78-1.81-1.52-3.33-2.8-1.33,8.45-3.37,15.52-14.01,13.73.91,6.7,1.73,12.99,2.67,19.26.09.62.82,1.22,1.39,1.67,3.34,2.67,6.99,5.03,10.04,8,9.05,8.8,17.9,17.83,26.78,26.81,1.34,1.35,2.3,1.62,3.78.13,8.79-8.89,17.64-17.72,26.5-26.55,2.44-2.43,4.57-5.73,7.53-6.93,4.09-1.66,4.77-4.32,4.97-7.92.12-2.16.51-4.31.82-6.46.37-2.56.78-5.12,1.19-7.79-9.34.19-9.72-.18-14.45-13.76ZM381.67,317.1c9.07-8.02,17.73-15.56,26.19-23.31.97-.89,1.23-3.01,1.13-4.52-.46-7.27-1.26-14.51-1.7-21.78-.17-2.84-1.18-3.49-4.02-3.45-14.04.19-28.09.16-42.13.01-2.54-.03-3.71.35-3.89,3.15-.48,7.52-1.37,15.02-1.76,22.54-.08,1.61.84,3.74,2.03,4.87,3.7,3.51,7.89,6.51,11.62,9.98,4.37,4.07,8.48,8.43,12.54,12.51ZM401.3,587.73c0-3.92.14-7.63-.07-11.32-.08-1.39-.58-3.24-1.56-4.01-4.89-3.87-9.92-7.59-15.13-11.02-1.14-.75-3.62-.72-4.76.04-5.1,3.36-9.99,7.05-14.83,10.78-.88.68-1.75,2.12-1.7,3.16.48,10.69,1.06,21.39,1.93,32.06.09,1.15,2.08,2.67,3.46,3.08,3.77,1.11,7.68,1.8,11.56,2.47,1.45.25,3.03.15,4.49-.11,3.51-.62,6.95-1.72,10.48-2.08,3.06-.31,4.24-1.77,4.48-4.57.53-6.23,1.11-12.45,1.66-18.47ZM515.66,384.35c-.11-1.92-.15-3.3-.28-4.67-1.82-19.24-9.1-36.6-18.36-53.28-1.31-2.35-2.47-2.32-4.46-.82-9.59,7.24-19.26,14.38-28.88,21.58-.46.34-.72.94-.97,1.27,17.58,11.92,34.96,23.71,52.95,35.92ZM248.69,384.4c18.22-12.36,35.68-24.2,53.57-36.33-10.53-7.78-20.81-15.33-31.03-22.96-2.09-1.56-2.89-.32-3.79,1.27-8.63,15.37-15.45,31.41-17.91,49.03-.4,2.84-.54,5.71-.84,8.98ZM295.32,435.69c-15.32-2.61-29.96-5.11-45.04-7.68,1.01,17.2,2,33.97,2.99,50.75.59.21,1.18.43,1.78.64,13.35-14.49,26.71-28.99,40.27-43.7ZM468.89,435.71c14.44,14.03,26.06,30.28,41.09,43.29.41-.12.81-.24,1.22-.37.97-16.8,1.94-33.61,2.92-50.63-15.29,2.6-29.94,5.1-45.22,7.7ZM465.33,558.61c8.02-7.61,15.99-15.17,24.33-23.09-10.51-7.49-20.84-14.86-31.17-22.22,1.87,15.76,2,31.28,6.85,45.31ZM298.56,560.02c5.25-15.66,5.57-31.11,7.68-46.35-10.3,6.72-20.04,13.65-29.8,20.55-1.9,1.34-1.11,2.49.1,3.71,7.1,7.11,14.19,14.23,22.01,22.09ZM337.78,297.88c.43-.69.76-.99.8-1.32,1.19-10.41,2.36-20.83,3.51-31.25.25-2.31-1.24-2.37-2.95-2.27-8.85.51-17.04,3.21-24.74,7.46-1.61.89-3.06,2.09-5.21,3.59,9.77,8.13,19.04,15.84,28.6,23.79ZM426.01,298.43c10.21-8.5,19.51-16.26,28.87-24.06-5.86-5.91-23.76-12.41-30.51-11.22-.78.14-1.86,1.91-1.8,2.86.36,5.72.97,11.43,1.59,17.13.51,4.77,1.15,9.52,1.86,15.28ZM411.6,609.45c9.37-1.88,17.14-4.71,24.05-9.81,2.46-1.81,2.33-3.24.58-5.61-6.04-8.2-11.82-16.58-17.71-24.89-.63-.89-1.32-1.73-1.99-2.6-.38.05-.77.09-1.15.14-1.24,13.94-2.47,27.87-3.79,42.76ZM349.02,566.28c-1.09.47-1.41.5-1.53.67-6.74,9.44-13.5,18.86-20.08,28.41-.49.71-.06,2.86.67,3.47,6.91,5.79,15.07,8.77,24.69,10.49-1.27-14.61-2.5-28.68-3.75-43.04Z" style="fill: #000; stroke-width: 0px;"/>
</svg>