<?xml version="1.0" encoding="UTF-8"?>
<svg id="Layer_1" data-name="Layer 1" xmlns="http://www.w3.org/2000/svg" viewBox="0 0 419.5 900">
  <path d="M157.9,871.69c-.67.98-1.18,2.11-2.03,2.9-3.4,3.18-6.64,6.62-10.42,9.28-12.33,8.68-25.14,8.94-38.05,1.2-8.47-5.08-14.95-12.25-20.57-20.25-9.23-13.17-15.48-27.75-20.18-43.04-8.53-27.78-11.06-56.29-10.47-85.19.45-22.06,2.46-44,5.03-65.88,2.65-22.54,7.76-44.54,15.09-66.03.42-1.23.66-2.51,1.05-4.03-.89-.11-1.57-.33-2.2-.24-7.45,1.09-13.94-1.22-19.86-5.55-7.28-5.32-12.6-12.37-17.26-19.96-7.38-11.99-12.68-24.94-17.16-38.23-7.41-21.96-12.31-44.52-15.64-67.42-5.53-38.07-6.64-76.3-3.54-114.66,1.74-21.51,4.62-42.85,8.64-64.04,2.72-14.34,5.71-28.64,8.61-42.95.6-2.99.66-5.93-.15-8.89-4.2-15.28-6.89-30.82-8.39-46.59-1.97-20.65-2.98-41.33-2.46-62.07.4-15.85,2.18-31.55,7.04-46.73,9.23-28.82,26.02-52,51.63-68.46,5.37-3.45,11.16-5.99,17.44-7.31,10.98-2.31,20.11.75,27.22,9.46,4.93,6.05,7.7,13.19,9.84,20.6,2.99,10.39,4.63,21.03,5.85,31.75.28,2.43.31,4.92,1.08,7.25.29.04.58.07.87.11.33-1.04.72-2.07.99-3.14,3.87-15.69,9.77-30.52,18.67-44.08,6.5-9.9,14.07-18.82,24.53-24.74,3.08-1.75,6.48-3.17,9.92-4.02,10.46-2.57,19.28,1.64,24.27,11.21.65,1.25,1.26,2.53,2.21,4.45.91-1.32,1.61-2.06,2-2.93,5.36-12.05,16.87-16.66,29.91-11.25,7.45,3.09,13.57,8.02,19.01,13.82,10.31,10.99,17.57,23.88,22.91,37.86,2.39,6.25,4.08,12.76,6.08,19.15.42,1.33.8,2.66,1.2,3.99.3,0,.6-.02.9-.03.2-1.32.46-2.63.59-3.95,1.17-11.45,2.81-22.81,5.83-33.94,1.63-6.03,3.73-11.86,6.91-17.28,8.01-13.64,20.66-18.22,35.62-12.92,11.05,3.91,20.35,10.57,28.8,18.46,21.27,19.88,34.2,44.3,39.32,72.94,2.18,12.19,2.95,24.48,2.97,36.83.04,24.34-.93,48.63-4.77,72.7-1.56,9.79-4.02,19.45-6.22,29.13-.6,2.64-.7,5.15-.19,7.8,4.01,20.68,8.42,41.31,11.85,62.09,6.18,37.44,8.57,75.16,6.58,113.12-1.51,28.9-5.24,57.47-11.96,85.62-4.99,20.89-11.4,41.32-21.49,60.41-4.26,8.07-9.1,15.8-15.78,22.12-2.84,2.69-6.05,5.08-9.38,7.15-4.71,2.92-9.98,3.92-15.53,3.15-.59-.08-1.19-.07-1.78-.08-.1,0-.21.1-.74.37.22.96.38,2.09.72,3.15,4.54,13.89,8.83,27.86,11.34,42.28,1.95,11.2,3.7,22.45,4.99,33.74,2.15,18.8,3.64,37.67,4.07,56.6.55,24.04-1.17,47.88-6.69,71.34-4.24,18.05-10.4,35.37-20.17,51.24-5.62,9.14-12.22,17.45-21.02,23.79-5.73,4.13-11.98,7-19.11,7.59-7.84.65-15.04-1.45-21.35-5.96-4.06-2.9-7.61-6.52-11.35-9.85-.88-.78-1.63-1.7-2.78-2.91-.73,1.25-1.31,2.22-1.88,3.2-2.12,3.61-3.98,7.4-6.41,10.78-4.5,6.25-10.54,9.93-18.54,9.94-1.29,0-2.82.66-3.83,1.5-3.21,2.67-6.55,3.5-10.66,2.31-6.42-1.86-13.01-1.85-19.43-.04-4.1,1.15-7.45.5-10.71-2.15-1.11-.9-2.75-1.6-4.15-1.62-7.7-.08-13.63-3.52-18.01-9.54-2.66-3.65-4.69-7.76-6.99-11.67-.42-.71-.79-1.43-1.19-2.15-.38-.2-.75-.4-1.13-.61ZM24.83,215.45c.28.02.57.03.85.05.28-1.26.55-2.52.85-3.77.85-3.49,1.62-7,2.64-10.43.39-1.32,1.21-2.62,2.14-3.65,1.56-1.73,3.61-2.33,5.88-1.5,2.29.84,3.41,2.64,3.42,4.98.01,1.9-.15,3.84-.54,5.7-1.38,6.56-2.78,13.12-4.38,19.63-6.27,25.46-12.53,50.91-16.97,76.78-4.44,25.89-7.21,51.95-7.89,78.21-.9,34.95,1.64,69.65,8.1,104.03,3.99,21.23,9.38,42.06,17.52,62.11,4.11,10.12,8.88,19.89,15.45,28.69,3.24,4.34,6.79,8.37,11.49,11.21,6.28,3.79,11.47,3.48,17.26-1.04,3.63-2.83,6.44-6.39,8.98-10.19,4.74-7.1,8.36-14.78,11.6-22.64,8.54-20.76,14.52-42.32,19.76-64.09,6.61-27.49,11.78-55.27,15.76-83.25,3.25-22.87,5.88-45.83,8.79-68.75.11-.83,0-1.82.42-2.44.54-.8,1.53-1.79,2.32-1.79.77,0,1.78,1.03,2.23,1.85.41.77.29,1.86.27,2.81-.47,22.15-1.11,44.3-3.14,66.38-1.96,21.24-4.69,42.38-9.06,63.27-3.78,18.05-7.74,36.05-8.41,54.57-.14,3.71-.59,7.4-.89,11.1-1.89,23.42-2.92,46.85-1.77,70.35,1.3,26.67,4.98,52.92,13.7,78.28,4.06,11.8,8.84,23.29,15.83,33.7,1.98,2.95,4.32,5.76,6.91,8.19,3.32,3.12,6.31,3.11,9.49-.09,2.67-2.69,4.81-5.91,7.17-8.91.9-1.14.55-2.14-.21-3.25-1.21-1.78-2.34-3.61-3.37-5.5-4.92-9.07-8.7-18.64-12.05-28.37-4.93-14.33-8.38-28.98-8.74-44.21-.25-10.96.79-21.78,5.16-32.01.88-2.06,2.02-4.1,3.41-5.85,3.49-4.38,8.22-4.53,11.95-.31,1.72,1.95,2.95,4.34,4.39,6.53.42.65.82,1.31,1.23,1.96,1.13-4.46,1.5-8.83,2.09-13.16.88-6.39,1.6-12.84,2.99-19.12,1.32-5.99,4.71-10.93,9.71-14.66,8.16-6.1,17-6.09,25.17.04,6.31,4.73,9.6,11.31,10.71,18.87,1.27,8.64,2.01,17.36,3,26.04.08.73.33,1.45.64,2.77.97-1.72,1.57-2.87,2.24-3.97.87-1.42,1.7-2.89,2.73-4.2,4.5-5.73,9.99-5.52,13.95.65,1.4,2.19,2.54,4.62,3.4,7.08,3.74,10.67,4.68,21.72,4.01,32.93-.72,12.14-3.2,23.96-6.94,35.51-4.36,13.45-9.11,26.75-16.88,38.71-.9,1.39-1.12,2.61-.11,3.94,1.96,2.56,3.75,5.28,5.96,7.61,4.04,4.25,7.38,4.43,11.33.18,3.22-3.48,6.16-7.35,8.56-11.43,10.84-18.48,17.15-38.66,21.36-59.53,4.23-20.96,5.78-42.19,6.11-63.55.47-30.13-2.78-60.03-5.1-89.99-.15-1.9-.58-3.79-.97-5.66-2.5-12.19-5.42-24.31-7.45-36.58-2.57-15.46-4.79-31-6.51-46.58-2.59-23.46-3.32-47.06-3.69-70.65-.02-1.08-.07-2.16.05-3.23.15-1.42.77-2.62,2.41-2.6,1.39.02,2.11,1,2.34,2.31.29,1.65.55,3.31.76,4.97,2.24,17.94,4.26,35.91,6.73,53.82,3.32,24.08,7.37,48.05,12.37,71.85,5.37,25.56,11.56,50.9,20.34,75.54,3.9,10.95,8.3,21.69,14.32,31.68,2.73,4.53,5.79,8.81,9.82,12.29,6.5,5.6,12.72,6.08,19.54.9,3.48-2.64,6.63-5.88,9.39-9.29,6.22-7.67,10.62-16.47,14.51-25.5,10.86-25.24,17.1-51.76,21.47-78.77,2.32-14.31,3.83-28.71,4.83-43.18,1.95-28.03,1.54-56.01-1.1-83.97-1.69-17.89-4.03-35.7-7.75-53.29-3.96-18.73-8.25-37.39-12.48-56.07-1.93-8.52-4.11-16.98-6.06-25.5-.66-2.91-1.1-5.89-1.38-8.87-.28-2.97,1.19-5.18,3.55-6,2.52-.87,5.24.05,6.79,2.64.91,1.51,1.53,3.25,1.99,4.97.83,3.12,1.41,6.31,2.17,9.45.18.73.64,1.39.96,2.09.85-1.19,1.16-2.31,1.31-3.46,1.13-8.79,2.32-17.57,3.32-26.37,2.37-20.74,3.32-41.55,2.39-62.4-.78-17.47-3.93-34.48-11.32-50.49-9.02-19.54-22.08-35.73-40.02-47.81-4.99-3.36-10.34-6.01-16.31-7.21-7.24-1.44-12.95.83-17.09,6.98-2.7,4.02-4.44,8.47-5.79,13.09-3.98,13.63-5.57,27.68-7.19,41.72-1.71,14.75-3.16,29.53-4.91,44.27-2.09,17.6-4.39,35.17-6.6,52.75-.1.83-.09,1.81-.55,2.41-.59.76-1.62,1.69-2.41,1.64-.8-.05-1.88-1.06-2.2-1.9-.41-1.05-.25-2.35-.2-3.54.55-14.96,1.13-29.92,1.67-44.88.05-1.43.04-2.89-.22-4.29-.92-4.82-2.02-9.6-2.96-14.41-2.89-14.8-5.67-29.63-10.18-44.05-4.14-13.23-9.93-25.66-18.56-36.62-4.47-5.68-9.5-10.81-15.96-14.23-2.19-1.16-4.61-2.04-7.03-2.57-3.39-.75-6.18.59-7.85,3.67-1.02,1.88-2.08,3.87-2.46,5.93-1.16,6.22-2.46,12.48-2.86,18.78-.75,11.95-1.15,23.93-1.27,35.9-.33,32.71-2.27,65.34-4.76,97.95-.08,1.07-.09,2.22-.5,3.17-.34.79-1.1,1.67-1.87,1.94-3.9,1.38-6.28-.14-6.63-4.26-.68-7.99-1.48-15.99-1.81-24-1.11-26.32-2.02-52.65-3.03-78.97-.47-12.32-.88-24.65-1.57-36.96-.33-5.98-1.34-11.92-3.83-17.45-2.55-5.65-6.08-7.08-11.93-5-5.06,1.8-9.27,4.94-13.14,8.57-7.24,6.81-12.64,14.97-17.17,23.74-7.21,13.97-11.11,29.02-14.38,44.27-2.03,9.48-3.76,19.03-5.93,28.48-1.03,4.49-1.53,8.92-1.34,13.51.56,14,1,28.01,1.47,42.01.04,1.19.15,2.47-.23,3.55-.25.74-1.25,1.61-1.99,1.69-.72.08-1.85-.59-2.25-1.26-.58-.98-.81-2.24-.95-3.41-1.64-13.07-3.32-26.13-4.83-39.21-2.34-20.34-4.51-40.7-6.85-61.04-1.34-11.66-2.87-23.3-5.84-34.68-1.45-5.56-3.22-11.04-6.47-15.88-4.52-6.75-9.99-8.95-17.93-7.26-6.45,1.38-12.11,4.46-17.43,8.19-15.39,10.8-27.14,24.8-35.8,41.42-8.62,16.53-12.57,34.33-13.66,52.81-1.83,31.12,1.09,61.97,5.72,92.7.14.9.48,1.77.73,2.66ZM116.61,550.62c-.28-.1-.56-.2-.85-.3-.52,1.03-1.08,2.04-1.56,3.09-1.94,4.25-3.74,8.56-5.8,12.74-5.09,10.37-10.92,20.22-19.78,27.94-.91.79-1.49,2.16-1.82,3.37-1.36,4.96-2.4,10.01-3.87,14.93-6.47,21.61-11.55,43.48-13.86,65.97-2.61,25.54-4.06,51.1-2.6,76.76,1.34,23.55,5.23,46.63,13.05,68.95,4.81,13.74,10.96,26.81,20.09,38.3,4.12,5.19,8.78,9.79,14.54,13.17,7.94,4.66,15.88,4.65,23.81-.06,4.57-2.72,8.45-6.24,12.01-10.15,5.74-6.31,10.66-13.23,14.99-20.55,6.75-11.41,13.84-22.65,18.21-35.29.12-.33.28-.67.51-.94,3.76-4.47,5.56-9.99,8.12-15.11,1.12-2.24,2.12-4.55,3.3-6.76,1.08-2.01,2.39-2.6,3.67-1.91,1.31.7,1.59,2.02.88,4.13-.12.34-.29.66-.42.99-2.4,6-4.91,11.95-7.15,18.01-.77,2.08-1.45,4.46-1.23,6.6,1.09,10.47,2.3,20.94,3.91,31.34.65,4.21,2.32,8.27,3.68,12.35.38,1.13,1.3,2.08,2.28,3.56,3.17-4.72,6.08-8.67,4.35-14.3-.83-2.72-.99-5.65-1.37-8.5-.19-1.39.13-2.72,1.66-3.2,1.53-.48,2.49.41,3.15,1.69.35.67.68,1.35,1.17,2.31.65-1.21.93-2.22,1.59-2.8.71-.63,1.91-1.34,2.66-1.13.77.21,1.51,1.41,1.77,2.32.25.85-.1,1.88-.25,2.83-.48,2.95-1.15,5.89-1.46,8.86-.49,4.6,1.85,8.06,5,11.92,1.11-2,2.14-3.34,2.63-4.86,1.18-3.64,2.42-7.3,3.05-11.05,1.31-7.78,2.04-15.66,3.38-23.44,1.21-6.98.4-13.44-2.8-19.81-2.24-4.47-3.79-9.29-5.59-13.98-.75-1.95-.27-3.45,1.16-3.93,1.76-.58,2.65.63,3.41,1.9.43.71.72,1.51,1.11,2.25,3.47,6.66,5.75,13.94,10.5,19.94.49.62.57,1.56.87,2.34.77,2,1.37,4.11,2.38,5.98,4.77,8.84,9.47,17.73,14.56,26.39,5.22,8.88,11.12,17.32,18.49,24.62,3.59,3.56,7.49,6.71,12.13,8.81,4.97,2.25,10.03,2.88,15.36,1.15,4.3-1.4,8.02-3.7,11.44-6.55,6.42-5.35,11.39-11.93,15.69-19.02,10.88-17.94,17.11-37.62,21.25-58.02,4.45-21.92,6-44.12,5.52-66.46-.38-17.85-1.59-35.64-3.64-53.38-2.12-18.37-5.98-36.35-11.08-54.1-2.25-7.81-4.18-15.72-6.39-23.54-.36-1.28-1.26-2.57-2.26-3.48-4.1-3.73-7.61-7.95-10.69-12.53-5.83-8.68-10.24-18.1-14.29-27.71-.43-1.03-.98-2.02-1.56-3.2-.44.56-.69.73-.69.91-.02,1.19.02,2.39.03,3.59.2,15.32.81,30.66.49,45.97-.53,25.36-4.06,50.35-11.48,74.69-4.52,14.82-10.29,29.11-18.43,42.36-3.2,5.22-6.71,10.22-11.53,14.11-7.8,6.3-16.14,6.02-23.16-1.09-2.66-2.69-4.99-5.82-7-9.05-6.35-10.23-10.38-21.51-14.4-32.79-1.31-3.68-2.59-7.37-3.88-11.02h-7.73c-.46,1.14-.86,2.01-1.17,2.91-2.03,5.76-3.92,11.56-6.07,17.27-3.43,9.08-6.99,18.13-12.63,26.11-2.25,3.19-4.91,6.24-7.93,8.68-5.64,4.56-12.34,4.66-18.33.55-2.53-1.73-4.85-3.91-6.9-6.2-5.38-6.02-9.29-13.04-12.86-20.23-13.54-27.31-20.1-56.49-22.82-86.64-2-22.11-2.01-44.25-.53-66.4.07-1.04,0-2.09,0-3.14ZM183.43,830.49c-.28-.05-.56-.09-.85-.14-.52.98-1.03,1.97-1.55,2.95-4.85,9.06-9.59,18.19-14.63,27.14-1.38,2.45-2.05,4.29-.18,6.74,1.06,1.38,1.42,3.29,2.26,4.86,1.75,3.26,3.45,6.56,5.48,9.65,2.88,4.38,7.07,6.71,12.38,6.72,2.88,0,5.31.96,7.68,2.55,1.09.73,2.67,1.23,3.95,1.08,3.72-.42,7.38-.62,11.03.4.53.15,1.19.03,1.75-.11,3.31-.81,6.63-.92,9.97-.3,1.86.35,3.52.08,5.02-1.2,1.99-1.7,4.36-2.43,6.97-2.4,5.77.06,10.05-2.65,13.2-7.29,1.2-1.78,2.31-3.64,3.27-5.55,1.62-3.2,2.94-6.55,4.69-9.67.91-1.61.87-2.71-.1-4.22-6.2-9.54-11.34-19.66-16.13-29.97-.27-.57-.73-1.06-1.45-2.09-.33,1.75-.55,2.89-.77,4.04-1.25,6.58-2.34,13.19-3.82,19.72-1.03,4.55-2.69,8.96-5.61,12.71-4.18,5.36-9.84,5.44-14.26.27-.66-.77-1.37-1.48-2.2-2.36-.61.78-.96,1.24-1.33,1.7-5.03,6.23-11.1,6.05-15.49-.7-1.67-2.57-2.92-5.49-3.93-8.4-2.48-7.15-3.77-14.57-4.64-22.08-.16-1.36-.48-2.7-.73-4.05ZM230.95,620.15c1.57-2.81,2.26-5.21-.01-7.97-1.33-1.6-2.11-3.76-2.76-5.79-.37-1.13-.4-2.77.17-3.73,1.13-1.89.88-3.64.39-5.51-.42-1.62-.83-3.24-1.29-4.85-1.82-6.31-3.48-12.67-5.55-18.89-1.35-4.07-4.17-7.19-7.87-9.46-2.82-1.74-5.56-1.82-8.43-.09-2.94,1.78-5.34,4.09-6.87,7.14-1.18,2.34-2.25,4.77-2.98,7.28-1.92,6.66-3.7,13.36-5.36,20.09-.28,1.13-.01,2.61.51,3.69.87,1.79.85,3.46.09,5.17-.78,1.74-1.4,3.67-2.6,5.09-2.21,2.63-1.59,4.97.01,7.68.68-.45,1.28-.8,1.83-1.22,4.39-3.32,8.6-2.72,11.63,1.87,1.1,1.67,1.96,3.57,2.59,5.48,2.55,7.77,3.63,15.83,4.38,23.94.12,1.24.26,2.47.39,3.71.25,0,.51-.01.76-.02.15-1.12.31-2.23.45-3.35,1-7.83,1.74-15.71,4.22-23.25.84-2.57,1.98-5.18,3.56-7.35,2.75-3.79,6.95-4.1,10.69-1.24.64.49,1.28.99,2.05,1.59ZM200.59,674.53c-3.09-1.61-4.94-3.91-5.97-6.78-1.1-3.03-2.13-6.09-2.96-9.21-.93-3.45-1.42-7.03-2.41-10.46-2.05-7.12-4.27-14.18-6.46-21.26-2.27-7.3-4.49-14.62-6.95-21.85-.79-2.33-2.12-4.54-3.52-6.59-1.08-1.57-2.3-1.54-3.55-.06-1.13,1.36-2.16,2.89-2.85,4.52-2.91,6.8-3.9,14.01-4.28,21.33-.02.32.24.65.47,1.22,1.3.23,2.73.34,4.08.74,2.39.71,4.76,1.53,7.08,2.45,1.22.49,1.95,1.68,1.45,2.91-.35.86-1.3,1.78-2.17,2.05-1.45.45-3.06.49-4.6.55-1.86.08-3.74.02-5.92.02.31,6.75,1.26,12.9,3.15,18.47,5.8.76,11.1,1.45,16.41,2.15,1.3.17,2.31.84,2.52,2.17.23,1.4-.67,2.23-1.88,2.7-.66.25-1.38.44-2.09.48-3.33.22-6.67.37-10.01.56-.78.04-1.55.1-2.94.19,2.52,6.46,4.89,12.53,7.35,18.82,1.81-.32,3.18-.61,4.57-.79,3.55-.45,7.1-.9,10.67-1.23,1.34-.13,2.69.16,3.24,1.67.51,1.42-.03,2.56-1.13,3.5-.27.23-.53.5-.83.67-2.8,1.57-5.61,3.13-8.44,4.66-.91.49-1.89.87-2.78,1.28,1.05,4.02,5.29,12.05,7.35,13.75,4.83-9.36,9.27-18.81,13.42-28.63ZM232.32,703.21c.32-.01.64-.02.96-.04,2.21-4.44,4.42-8.88,6.78-13.63-1.49-.63-2.6-1-3.61-1.55-2.82-1.54-5.66-3.08-8.39-4.77-1.35-.84-2.44-2.09-1.75-3.9.63-1.65,2.15-1.83,3.61-1.69,3.45.33,6.88.76,10.32,1.2,1.39.18,2.76.5,4.31.79,3.04-6.2,5.51-12.3,7.36-18.94-1.38,0-2.32.05-3.26,0-3.34-.21-6.68-.4-10.01-.7-1.62-.15-3.11-.75-3.32-2.68-.16-1.46,1.05-2.33,3.55-2.72.35-.06.71-.09,1.07-.14,4.71-.59,9.42-1.17,14.42-1.8,1.53-5.86,2.87-11.95,3.01-18.52-1.56,0-2.73.06-3.89-.01-2.26-.14-4.55-.18-6.76-.62-.81-.17-1.86-1.3-1.99-2.12-.12-.82.6-1.96,1.28-2.64.63-.63,1.66-.92,2.56-1.18,2.94-.87,5.91-1.65,8.81-2.45.51-4.09-.18-11.05-1.81-16.06-.95-2.94-2-5.9-3.46-8.61-2.27-4.22-4.25-4.23-6.4-.06-1.58,3.06-2.9,6.31-3.93,9.6-3.01,9.58-5.82,19.23-8.71,28.85-1.3,4.35-2.67,8.68-3.86,13.06-1.03,3.8-1.75,7.69-2.81,11.48-1.27,4.52-2.88,8.89-7.64,11.28,4.4,9.78,8.63,19.35,13.58,28.57Z" style="fill: #000; stroke-width: 0px;"/>
  <path d="M95.42,146.56c-.88-.18-1.24-.32-1.58-.3-11.85.7-23.63,1.74-34.86,6.04-3.44,1.32-3.45,1.26-3.17,4.89.2,2.62.44,5.25.57,7.88.05.94-.01,1.95-.32,2.82-.51,1.42-1.58,2.66-3.17,2.42-1.16-.17-2.49-.89-3.23-1.79-.79-.95-1.12-2.37-1.38-3.65-4.29-20.9-5.91-41.98-2.91-63.17,2.3-16.28,7.63-31.59,17.03-45.26,3-4.36,6.54-8.24,11.03-11.16,7.73-5.04,15.06-3.43,19.9,4.46,3.37,5.5,4.92,11.66,6.15,17.9,1.86,9.41,2.61,18.95,2.99,28.53.73,18.3,1.57,36.59,2.34,54.88.12,2.87.15,5.74.19,8.61.01.84.16,1.79-.18,2.48-.48.98-1.19,2.17-2.1,2.54-1.4.57-2.58-.4-3.02-1.8-1.01-3.18-1.96-6.39-2.82-9.62-.58-2.18-.96-4.41-1.44-6.7Z" style="fill: #000; stroke-width: 0px;"/>
  <path d="M324.26,146.13c-1.25,4.98-2.31,9.38-3.48,13.76-.33,1.26-.75,2.6-1.52,3.6-.54.7-1.79,1.24-2.66,1.17-.68-.06-1.57-1.08-1.83-1.85-.37-1.09-.36-2.36-.31-3.55.32-8.01.7-16.03,1.04-24.04.41-9.57.93-19.13,1.17-28.71.31-12.22.79-24.42,2.9-36.48,1.12-6.38,2.47-12.73,5.62-18.46,1.3-2.36,3.03-4.64,5.02-6.43,3.52-3.17,7.78-3.43,12.12-1.79,4.01,1.52,7.15,4.29,10.04,7.36,6.42,6.82,10.68,14.97,14.2,23.53,5.52,13.43,8.34,27.44,8.77,41.95.48,16.35-.6,32.55-4.24,48.53-.26,1.16-.55,2.34-1.05,3.41-.71,1.51-1.95,2.43-3.73,2.24-1.8-.19-2.75-1.45-3.17-3.02-.27-1.01-.24-2.13-.16-3.19.2-2.63.42-5.26.79-7.86.29-2.03-.5-2.96-2.4-3.69-9.38-3.58-19.14-5.2-29.09-5.89-2.6-.18-5.21-.38-8.03-.58Z" style="fill: #000; stroke-width: 0px;"/>
  <path d="M363.85,424.71c-10.04,6.46-20.59,9.17-31.98,10.06.06,1.38.03,2.43.16,3.44,1.83,13.77,3.71,27.53,5.52,41.3.78,5.93,1.48,11.88,2.19,17.82.34,2.83-.24,4.11-1.84,4.41-1.57.29-2.62-.61-3.35-3.44-1.71-6.6-3.33-13.23-4.89-19.86-2.71-11.53-5.36-23.08-8.02-34.62-.57-2.45-1.16-4.89-1.65-7.36-.36-1.79-1.4-2.59-3.16-2.87-2.6-.41-5.17-1-7.74-1.52-.58-.12-1.34-.12-1.69-.49-.77-.81-1.87-1.85-1.82-2.73.05-.87,1.21-2.09,2.14-2.42,2.01-.71,4.19-.93,6.3-1.37.91-.19,1.82-.41,3.1-.71-.2-1.67-.3-3.19-.58-4.67-1.6-8.71-3.29-17.41-4.86-26.12-.85-4.71-1.66-9.44-2.25-14.18-.29-2.34-1.32-3.72-3.5-4.42-1.13-.36-2.38-.71-3.25-1.44-.7-.6-1.4-1.88-1.22-2.65.18-.77,1.36-1.56,2.26-1.86,1.07-.35,2.32-.19,3.91-.27-.14-1.6-.23-2.98-.4-4.36-1.91-15.7-3.71-31.41-3.4-47.25.12-6.09.64-12.19,1.43-18.23.41-3.15,1.46-6.32,2.78-9.22,3.06-6.73,8.72-8.65,15.44-5.48,3.97,1.87,7.12,4.81,9.97,8.08,6.11,7.01,10.6,15.05,14.65,23.34,16.85,34.54,25.37,71.11,26.45,109.46.65,23.05-.8,45.96-4.91,68.68-.34,1.87-.83,3.75-1.51,5.53-.76,1.97-2.46,2.93-4.21,2.66-1.89-.29-3.07-1.5-3.33-3.3-.28-1.88-.37-3.82-.23-5.71.84-11.22,1.96-22.43,2.63-33.66.62-10.27.8-20.58,1.14-30.87.03-.93-.13-1.87-.28-3.69ZM315.05,309.93l-.51.05c1.31,12.13,2.56,24.28,3.96,36.4.74,6.42,1.72,12.81,2.67,19.21.45,3.04.95,3.44,3.66,2.95,10.03-1.81,19.22-5.65,27.66-11.37,1.78-1.21,2.33-2.59,1.56-4.56-.22-.55-.27-1.17-.48-1.73-2.76-7.52-5.3-15.13-8.37-22.52-4.14-9.95-8.91-19.63-15.59-28.16-2.33-2.97-5.16-5.65-8.14-7.99-3.05-2.4-4.67-1.68-5.58,1.99-.46,1.85-.74,3.77-.81,5.67-.13,3.35-.04,6.7-.04,10.05ZM323.21,378.77c.67,4.51,1.23,8.4,1.81,12.28,1.42,9.47,2.83,18.94,4.28,28.4.4,2.59.74,2.86,3.28,2.49,2.36-.34,4.71-.83,7.05-1.33,7.02-1.49,13.98-3.14,20.47-6.41,2.84-1.43,3.89-3.3,3.61-6.55-.97-11.09-2.11-22.16-4.22-33.1-.46-2.41-1.14-4.77-1.82-7.55-10.67,6.73-21.55,11.41-34.48,11.77Z" style="fill: #000; stroke-width: 0px;"/>
  <path d="M112.16,368.76c1.52.08,2.68-.1,3.62.27.88.34,1.89,1.15,2.16,1.98.21.62-.46,1.84-1.09,2.36-.89.73-2.08,1.16-3.21,1.51-2.22.69-3.16,2.12-3.53,4.4-1.51,9.45-3.14,18.89-4.81,28.32-.79,4.48-1.77,8.92-2.61,13.39-.19,1.03-.2,2.09-.32,3.4,1.26.27,2.27.5,3.29.71,1.87.39,3.75.75,5.62,1.15,1.41.3,2.47,1.05,2.58,2.58.12,1.74-1.04,2.63-2.52,3.02-2.2.57-4.43,1.01-6.65,1.48-.58.12-1.18.2-1.78.25-2.07.17-3.1,1.22-3.56,3.32-2.27,10.28-4.63,20.54-7.06,30.79-2.42,10.24-4.95,20.46-7.45,30.69-.17.69-.31,1.55-.79,1.96-.74.64-1.75,1.32-2.66,1.33-1.14.01-1.92-1.01-1.88-2.23.07-2.03.2-4.06.46-6.07,1.8-13.64,3.64-27.28,5.48-40.92.61-4.51,1.28-9,1.91-13.51.16-1.16.27-2.33.42-3.67-5.71-1.15-11.28-1.86-16.59-3.47-5.21-1.59-10.14-4.1-15.44-6.3-1,.76-.54,2.19-.51,3.4.15,7.18.19,14.37.65,21.53.86,13.26,2,26.49,2.99,39.74.18,2.38.33,4.79.22,7.17-.13,2.69-1.66,4.41-3.7,4.63-2.02.22-3.93-1.16-4.54-3.77-1.01-4.31-1.98-8.64-2.59-13.02-2.77-19.96-3.88-40.01-3.37-60.16.58-23.22,3.98-46.01,10.49-68.28,5.45-18.64,12.55-36.64,22.57-53.37,3.14-5.25,6.69-10.2,11.18-14.4,2.55-2.39,5.36-4.39,8.69-5.58,4.54-1.62,8.87-.38,11.85,3.43,2.2,2.8,3.4,6.08,4.03,9.5.75,4.11,1.38,8.28,1.62,12.44.91,15.35-.27,30.62-1.9,45.87-.39,3.69-.89,7.37-1.3,11.06-.1.91-.01,1.84-.01,3.09ZM104.7,310.23c-.23-4.65-.28-9.32-.77-13.95-.18-1.77-.87-4.12-2.16-4.99-1.89-1.28-3.78.67-5.35,1.88-4.03,3.1-7.06,7.12-9.78,11.35-9.56,14.91-16.08,31.18-21.28,48.02-.78,2.53-.67,3.18,1.56,4.51,4.2,2.49,8.39,5.12,12.88,6.96,4.72,1.94,9.74,3.17,14.7,4.45,2.84.73,3.36.17,3.79-2.65.24-1.54.45-3.07.67-4.61,2.34-16.93,4.86-33.85,5.72-50.98ZM61.66,367.51c-.31,1.03-.69,1.91-.84,2.83-1.38,8.62-2.84,17.23-4.04,25.87-.59,4.26-.67,8.58-1.02,12.88-.17,2.02.58,3.5,2.4,4.39,2.04.99,4.04,2.08,6.15,2.89,7.29,2.81,14.96,4.13,22.59,5.57.78.15,1.61.02,2.32.02,1.57-3.88,6.89-40.14,6.29-43.2-5.88-.33-11.82-1.11-17.34-3.5-5.45-2.35-10.76-5.03-16.52-7.75Z" style="fill: #000; stroke-width: 0px;"/>
  <path d="M166.74,412.75c.74,25.24-1.82,50.22-6.58,74.97-3.79,19.69-5.86,39.53-5.88,59.59-.01,14.29,1.2,28.45,3.61,42.52.22,1.29.51,2.65.31,3.9-.12.74-1.05,1.75-1.77,1.89-.68.13-1.76-.53-2.29-1.16-.58-.69-.85-1.71-1.06-2.63-2.27-9.79-4.41-19.61-5.19-29.67-1.25-16.03-1.38-32.07.29-48.06,1.39-13.32,3.4-26.58,5.14-39.87,2.78-21.25,5.35-42.51,5.34-64.01,0-8.85.37-17.71.63-26.56.03-1.18.28-2.39.64-3.51.47-1.48,1.55-2.44,3.18-2.45,1.81,0,2.85,1.13,3.33,2.75.23.79.28,1.65.28,2.48.02,9.94.01,19.87.01,29.81Z" style="fill: #000; stroke-width: 0px;"/>
  <path d="M252.72,415.24c0-10.77-.01-21.55,0-32.32,0-3.21,1.17-5.03,3.24-5.22,2.05-.19,3.68,1.51,4.03,4.59.32,2.85.45,5.73.5,8.6.19,9.93.22,19.87.5,29.8.48,17.14,2.6,34.13,4.77,51.11,1.87,14.6,4.33,29.15,5.58,43.8,1.61,18.74,1.75,37.57-1.03,56.26-1.05,7.09-2.87,14.06-4.34,21.08-.02.12-.07.23-.11.34-.53,1.4-1.17,2.73-3.02,2.44-1.32-.21-2.03-1.57-1.78-3.44.38-2.85.97-5.67,1.26-8.52.92-9.28,2.14-18.55,2.52-27.86.58-14.12.17-28.26-1.51-42.31-.84-7-1.94-13.99-3.24-20.92-4.83-25.58-8-51.32-7.36-77.41Z" style="fill: #000; stroke-width: 0px;"/>
  <path d="M337.65,204.32c-.46,10.37-2.02,20.51-6.86,29.84-1.47,2.84-3.29,5.6-5.41,7.97-5.18,5.78-11.5,7-18.54,3.82-2.28-1.03-4.41-2.4-6.62-3.59-1.47-.79-2.96-1.57-4.46-2.29-2.27-1.08-4.54-.91-6.39.72-2.05,1.8-4.25,3.65-5.64,5.93-4.54,7.44-9.05,14.93-13.01,22.69-4.73,9.26-8.88,18.82-13.28,28.24-.46.98-.87,1.99-1.45,2.88-.71,1.09-1.9,1.81-3.04,1.02-.72-.5-1.42-1.79-1.29-2.61.34-2.23,1.07-4.4,1.72-6.58,4.01-13.43,8.65-26.63,15.86-38.73,2.74-4.6,5.98-8.93,9.17-13.25,1.26-1.71,2.93-3.16,4.57-4.54,5.27-4.46,11.1-5.28,17.36-2.31,2.05.97,4.02,2.1,6.04,3.13,1.17.6,2.33,1.22,3.54,1.72,4.33,1.82,6.77,1.33,9.97-2.09,3.25-3.47,5.24-7.67,6.8-12.1,2.12-6.05,2.99-12.3,3.08-18.69.03-2.14.2-4.32.63-6.41.5-2.46,2.34-3.86,4.18-3.61,1.94.26,3.24,1.99,3.26,4.51.02,1.43-.12,2.87-.19,4.3Z" style="fill: #000; stroke-width: 0px;"/>
  <path d="M81.9,206.32c-.09-1.91-.2-3.82-.25-5.74-.02-.71.02-1.44.18-2.13.36-1.52,1.29-2.59,2.88-2.84,1.75-.27,3.2.5,3.76,2.09.59,1.65.92,3.47.98,5.22.2,6.84.77,13.62,2.91,20.18,1.49,4.57,3.43,8.93,6.64,12.6,3.59,4.1,6.15,4.73,11.07,2.47,3.04-1.39,5.91-3.12,8.93-4.56,6.54-3.14,12.67-2.27,17.88,2.7,3.17,3.03,6.09,6.42,8.65,9.98,7.75,10.78,12.86,22.9,17.11,35.4,1.73,5.09,3.18,10.28,4.76,15.42.14.46.32.91.4,1.38.25,1.43,0,2.72-1.53,3.21-1.5.48-2.54-.37-3.2-1.64-.61-1.16-1.09-2.39-1.63-3.59-6.28-13.95-12.5-27.93-20.18-41.19-2.15-3.71-4.63-7.25-7.2-10.69-1.19-1.59-2.85-2.86-4.45-4.09-1.75-1.34-3.78-1.42-5.78-.49-1.73.81-3.41,1.72-5.09,2.62-2,1.07-3.93,2.3-5.99,3.24-7.15,3.27-13.51,1.97-18.87-3.84-4.14-4.49-6.61-9.92-8.47-15.64-2.13-6.52-3.21-13.24-3.49-20.09Z" style="fill: #000; stroke-width: 0px;"/>
  <path d="M348.04,210.43c0-1.79,0-3.59,0-5.38,0-.6-.03-1.2-.03-1.79.02-1.55.33-3,2.2-3.1,1.65-.1,2.23,1.14,2.45,2.55.28,1.77.53,3.55.78,5.33,1.39,9.71,2.61,19.44,4.21,29.12,1.9,11.49,5.48,22.55,9.64,33.38,5.06,13.16,10.56,26.15,15.86,39.22.4.99.83,2.01.98,3.05.28,1.98-.67,3.54-2.29,3.95-1.77.45-3.02-.4-3.91-1.83-.37-.6-.68-1.27-.86-1.95-3.01-11.24-7.84-21.8-12.31-32.49-5.41-12.92-10.32-26.01-13.17-39.76-2.07-9.98-2.93-20.12-3.56-30.29Z" style="fill: #000; stroke-width: 0px;"/>
  <path d="M70.98,211.88c-.15,23.15-6.45,44.86-15.25,66.02-3.95,9.49-7.67,19.07-11.43,28.63-.83,2.11-1.38,4.33-2.08,6.49-.22.68-.42,1.39-.81,1.97-.93,1.39-2.17,2.26-3.95,1.72-1.61-.49-2.64-2.11-2.25-4,.31-1.5.96-2.95,1.58-4.36,7.07-16.09,13.71-32.35,19.22-49.05,3.8-11.5,6.41-23.28,7.89-35.31.85-6.89,1.77-13.77,2.66-20.65.08-.59.04-1.35.38-1.72.61-.64,1.5-1.44,2.23-1.4.71.04,1.63.93,1.98,1.67.37.8.27,1.87.23,2.82-.09,2.39-.26,4.78-.4,7.17Z" style="fill: #000; stroke-width: 0px;"/>
  <path d="M196.58,350.57c.08,11.17-2.33,19.52-5.62,27.67-.26.65-.58,1.46-1.12,1.79-.74.45-1.77.8-2.56.63-.61-.13-1.31-1.06-1.47-1.75-.23-1.01-.1-2.14.01-3.2.67-6.3,1.42-12.6,2.08-18.9.6-5.72.87-11.43-.28-17.15-.62-3.12-1.73-5.94-3.56-8.51-.55-.77-1.1-1.58-1.44-2.45-.59-1.47-.27-2.85.96-3.89,1.1-.93,3.09-.89,4.31.22.87.79,1.59,1.79,2.21,2.79,4.72,7.67,6.29,16.18,6.47,22.76Z" style="fill: #000; stroke-width: 0px;"/>
  <path d="M233.93,324.19c2.09.05,3.56,1.84,3,3.93-.3,1.11-1.01,2.15-1.69,3.11-1.97,2.79-3.13,5.87-3.65,9.24-1.16,7.67-.2,15.29.53,22.91.42,4.41,1.04,8.79,1.55,13.19.08.71.27,1.53,0,2.12-.36.8-1.02,1.9-1.69,2-.87.13-2.02-.41-2.77-1-.59-.46-.81-1.44-1.12-2.21-4.25-10.37-6.26-21.09-4.74-32.28.89-6.57,2.8-12.84,6.58-18.4.98-1.44,2.07-2.65,4-2.61Z" style="fill: #000; stroke-width: 0px;"/>
  <path d="M342.91,706.88c-.06,14.74-1.16,29.43-3.08,44.03-1.15,8.77-2.87,17.46-4.37,26.18-.14.81-.28,1.8-.8,2.32-.59.59-1.65,1.05-2.44.96-.59-.06-1.25-.99-1.56-1.68-.27-.6-.18-1.41-.11-2.12.74-7.74,1.26-15.52,2.3-23.22,3.19-23.6,3.75-47.25,1.26-70.92-1.26-12.01-3.04-23.97-4.66-35.95-.27-2-.97-3.95-1.35-5.94-.2-1.04-.47-2.26-.1-3.15.39-.98,1.37-2.14,2.29-2.37.93-.22,2.33.37,3.12,1.06.72.63,1.08,1.84,1.32,2.86,5.31,22.33,8.17,44.96,8.18,67.94Z" style="fill: #000; stroke-width: 0px;"/>
  <path d="M76.52,706.76c-.09-17.54,1.73-34.91,4.78-52.16.92-5.18,2.21-10.29,3.35-15.43.18-.81.38-1.65.75-2.39.79-1.57,2.37-2.3,3.87-1.86,1.6.47,2.26,1.71,2.38,3.24.05.7-.13,1.42-.27,2.12-6.51,32.69-9.63,65.6-6.35,98.91,1.11,11.32,2.37,22.62,3.54,33.93.16,1.55.33,3.1.36,4.65.03,1.29-.51,2.44-1.89,2.7-1.56.29-2.53-.72-2.91-2.08-.61-2.19-1.1-4.42-1.5-6.65-3.86-21.49-5.87-43.16-6.11-64.99Z" style="fill: #000; stroke-width: 0px;"/>
  <path d="M120.28,808.9c.62-2.21,1.35-5.08,2.27-7.88.32-.98,1.01-1.94,1.77-2.66,4.89-4.63,11.01-5.96,17.28-4.89,6.11,1.05,9.36,5.83,10.99,11.59,1.1,3.89.87,7.84-.28,11.69-2.01,6.7-8.92,11.54-16.11,11.4-6.92-.13-12.98-5.18-14.8-12.47-.49-1.96-.67-4-1.12-6.8Z" style="fill: #000; stroke-width: 0px;"/>
  <path d="M266.24,810.92c0-8.28,3.99-14.73,10.1-17.07,5.15-1.97,15.06.27,18.69,4.4,1.16,1.32,2.13,2.92,2.75,4.56,1.94,5.17,1.56,10.38-.57,15.41-2.88,6.81-9.21,10.81-15.9,9.8-7.73-1.17-13.42-5.39-14.77-13.88-.21-1.3-.24-2.62-.3-3.23Z" style="fill: #000; stroke-width: 0px;"/>
  <path d="M313.54,816.87c.18-2.27,1.2-4.81,3.05-6.9,2.85-3.21,7.92-2.35,9.83,1.56,2.09,4.29-.3,10.56-4.72,12.42-4.07,1.71-8.25-1.63-8.16-7.08Z" style="fill: #000; stroke-width: 0px;"/>
  <path d="M92.3,814.62c-.03-1.41.47-3.31,2.02-4.83,2.06-2.01,5.19-2.34,7.54-.76,2.95,1.99,4.81,7.86,3.55,11.23-1.56,4.15-5.73,5.42-9.22,2.74-2.5-1.92-3.83-4.49-3.88-8.37Z" style="fill: #000; stroke-width: 0px;"/>
  <path d="M315.77,841.63c-.33.78-.72,2.46-1.65,3.75-.94,1.31-2.35,2.32-3.68,3.3-1.91,1.41-3.83,2.25-6.13.42-2.69-2.14-3.96-4.56-3.14-7.37,1.04-3.58,3.42-5.98,7.07-6.88,3.96-.98,7.46,1.86,7.52,6.78Z" style="fill: #000; stroke-width: 0px;"/>
  <path d="M118.36,843.18c.02,2.93-2.08,5.95-4.85,6.8-.64.2-1.5.29-2.08.03-2.96-1.33-5.68-3.04-7.09-6.16-1.18-2.62-.58-5.85,1.29-7.61,1.9-1.79,4.51-2.08,7.3-.8,3.21,1.46,5.4,4.58,5.42,7.74Z" style="fill: #000; stroke-width: 0px;"/>
  <path d="M290.06,848.58c-.5,1.36-.91,3.55-2.02,5.29-1.85,2.89-5.52,3.14-8.15.94-4.44-3.72-4.56-9.37-.27-12.66,4.06-3.11,8.77-1.45,9.96,3.54.17.69.24,1.41.48,2.9Z" style="fill: #000; stroke-width: 0px;"/>
  <path d="M129.18,848.13c.44-4.52,2.98-7.61,6.55-7.57,3.83.04,7.36,3.94,7.12,7.96-.18,3.12-1.88,5.4-4.4,7.01-2.28,1.45-5.5.84-6.99-1.53-1.1-1.74-1.55-3.89-2.29-5.86Z" style="fill: #000; stroke-width: 0px;"/>
  <path d="M357.41,395.76c-.29,6.27-2.76,11.2-8.01,14.53-7.63,4.85-15.82,1.68-18.32-7.03-2.2-7.65.52-14.02,5.91-19.11,5.92-5.58,16.06-2.9,18.86,4.67.81,2.2,1.05,4.62,1.55,6.93Z" style="fill: #000; stroke-width: 0px;"/>
  <path d="M62.33,395.33c-.04-3.12.74-6.33,2.57-9.24,1.93-3.08,4.66-4.42,8.35-4.59,7.5-.34,11.66,3.69,14.39,10.07,2.66,6.2,1.87,11.95-2.21,17.16-3.12,3.99-8.31,4.88-13.33,2.66-6.15-2.72-9.84-8.67-9.76-16.06Z" style="fill: #000; stroke-width: 0px;"/>
</svg>