<?xml version="1.0" encoding="UTF-8"?>
<svg id="Layer_1" data-name="Layer 1" xmlns="http://www.w3.org/2000/svg" viewBox="0 0 644.64 900">
  <path d="M592.61,180.62c-1.69,13.15,1.3,25.97,2.88,38.89.1.8.42,1.59.71,2.36,6.09,16.21,7.1,32.69,2.53,49.44-1.78,6.5-3.73,12.96-5.48,19.47-.42,1.56-.6,3.25-.49,4.86.34,5.08.87,10.15,1.32,15.23.72,8.16,3.28,15.84,6.36,23.34,4.52,11.01,6.36,22.39,5.95,34.27-.3,8.76.05,17.53-.08,26.29-.04,2.65-.81,5.29-1.11,7.95-.11.99-.05,2.13.35,3.01,4.43,9.69,7.31,19.78,8.47,30.4.2,1.86,1.43,3.76,2.58,5.35,7.81,10.76,14.83,22.03,20.12,34.23,2.54,5.86,4.35,12.13,5.72,18.38,2.12,9.68-.3,19.07-3.29,28.25-.74,2.29-.63,4.25.23,6.48,6.17,16.07,7.2,32.35,1.55,48.82-1.53,4.46-3.04,8.94-4.48,13.43-2.68,8.36-3.78,16.93-3.56,25.71.1,3.89-.09,7.78-.13,11.67,0,.74-.02,1.53.21,2.22,2.66,7.79,2.68,15.75,1.51,23.78-1.44,9.86-2.76,19.74-4.42,29.56-1.45,8.57-4.91,16.31-10.57,23.02-.75.89-1.34,2.33-1.24,3.44,2.22,25.14-8.34,45.94-22.27,65.54-7.47,10.51-17.04,18.61-28.81,24.09-5.49,2.56-10.69,5.75-16.16,8.36-3.41,1.62-7.1,2.65-10.62,4.06-.69.27-1.33.93-1.74,1.57-14.74,23.42-36.55,35.36-63.42,38.95-5.18.69-10.46.61-15.68,1.1-5.07.48-9.85,2.08-13.96,5.16-6.38,4.78-11.95,10.33-16.77,16.76-10.17,13.57-23.63,21.9-40.67,23.75-7.99.87-15.56-1.58-23.18-3.57-1.82-.48-3.85-.6-5.72-.37-9.43,1.15-18.8,2.96-28.26,3.6-11.95.8-23.92.44-35.71-2.33-3.84-.9-7.84-1.15-11.79-1.54-1.15-.11-2.38.21-3.51.53-7.66,2.12-15.32,4.52-23.38,3.69-14.99-1.53-27.31-8.38-37.31-19.52-4.59-5.11-8.94-10.45-13.62-15.48-7.13-7.66-16.08-11.23-26.52-11.19-13.97.06-27.16-3.38-39.7-9.31-13.98-6.61-24.88-16.76-33.13-29.79-.81-1.28-1.66-1.9-3.26-2.25-2.6-.56-5.14-1.64-7.52-2.85-7.94-4.04-15.81-8.23-23.7-12.37-9.44-4.96-16.57-12.47-22.98-20.78-8.98-11.65-15.26-24.68-19.81-38.6-2.72-8.32-3.32-16.88-2.57-25.55.2-2.32-.34-4.14-1.87-5.95-5.44-6.46-8.68-14.04-10.01-22.3-1.85-11.54-3.43-23.12-4.9-34.71-.76-5.93-.05-11.82,1.74-17.55.26-.85.47-1.75.47-2.63,0-5.54-.1-11.08-.12-16.62-.04-9.51-2.59-18.48-5.47-27.43-2.15-6.69-4.47-13.43-5.57-20.32-1.96-12.38-.03-24.5,4.69-36.12.82-2.01.9-3.79.19-5.84-4.23-12.17-6-24.58-1.44-36.99,2.76-7.49,6.03-14.87,9.88-21.85,4.36-7.92,9.7-15.29,14.45-23,1.14-1.84,2.08-4.03,2.35-6.15,1.22-9.76,3.87-19.08,7.95-28,.79-1.73,1.11-3.3.28-5.15-.48-1.05-.6-2.34-.6-3.52-.02-13.56-.18-27.12.1-40.67.16-7.94,2.43-15.57,5.63-22.8,5.77-13.04,6.9-26.9,7.79-40.83.07-1.08-.36-2.2-.64-3.28-2.41-9.2-5.33-18.3-7.15-27.61-2.66-13.69-.78-27.15,3.97-40.23.56-1.53.94-3.15,1.2-4.77.68-4.29,1.18-8.61,1.87-12.9,1.23-7.59,1.64-15.23.86-22.86-1.99-19.36,2.9-37.1,11.95-54.02,3.74-6.99,6.92-14.29,10.26-21.49.68-1.47,1.09-3.11,1.36-4.72,2.66-16.22,9.65-30.1,22.65-40.39,4.72-3.74,10.23-6.47,15.4-9.63,3.51-2.15,7.07-4.22,10.58-6.37,4.2-2.58,7.57-5.99,10.56-9.93,7.08-9.33,15.88-16.28,27.62-18.79,4.9-1.05,9.82-.95,14.69.34.65.17,1.31.37,1.97.42,8.35.67,16.72,1.2,25.05,2.01,5.92.58,11.4-.5,16.78-2.99,9.05-4.18,18.36-7.74,28.14-9.88,2.34-.51,4.71-.86,7.09-1.17,8.47-1.09,15.91,1.28,22.1,7.12,1.96,1.85,3.78,2.22,6.03,1.03,3.43-1.82,6.88-3.63,10.25-5.57,18.23-10.55,36.5-10.62,54.86-.37,3.85,2.15,7.75,4.21,11.66,6.24,1.71.88,3.19.55,4.66-.86,7.07-6.78,15.48-8.89,25.07-7.31,10.59,1.74,20.67,5.16,30.28,9.72,7.62,3.61,15.23,4.83,23.53,3.7,6.66-.91,13.41-1.1,20.12-1.61.6-.05,1.21-.06,1.78-.22,11.95-3.28,22.58-.17,32.1,7.09,3.77,2.88,7.44,6.21,10.22,10.01,4.33,5.92,9.76,10.28,15.96,13.89,4.01,2.34,8.08,4.58,12.14,6.84,18.09,10.04,28.14,25.66,31.88,45.74.51,2.76,1.39,5.52,2.57,8.07,3.8,8.15,7.83,16.18,11.74,24.27,7.25,15,11.22,30.65,9.41,47.45ZM322.34,876.33c1.17-2.92,3.05-3.1,5.23-2.56,1.6.39,3.24.63,4.83,1.05,8.78,2.33,16.23.29,23.37-5.53,11.49-9.36,23.34-18.32,35.41-26.91,15.62-11.12,28.87-24.46,40.01-40,16.41-22.88,26.91-48.13,30.84-76.1,2.3-16.36,4.71-32.77,2.61-49.24-1.59-12.52-4.64-24.87-7.2-37.26-1.16-5.61-2.01-11.19-1.45-16.94,1.2-12.25,6.81-22.43,14.97-31.27,6.04-6.54,12.27-12.95,18.82-18.98,6.19-5.7,10.65-12.32,13.09-20.32,2.34-7.67,4.66-15.34,6.82-23.06,5.73-20.49,11.72-40.93,14.63-62.09,1.74-12.64,3.33-25.27,1.06-38.03-1.77-9.94-4.84-19.49-8.71-28.77-4.82-11.54-9.88-22.99-14.69-34.54-3.98-9.56-6.72-19.46-5.87-29.95.7-8.66,1.49-17.33,2.72-25.92,1.83-12.79,6.04-24.7,14.45-34.81.33-.4.61-.85.93-1.27,7.33-9.79,12.28-20.67,15.35-32.51,3.13-12.07,4.11-23.99-.1-36.06-3.76-10.8-10.74-19.17-19.27-26.33-12.55-10.55-18.93-23.91-19.08-40.24-.07-7.42.17-14.83.19-22.25.02-8.56-1.89-16.64-6.25-24.08-4.52-7.72-11.04-12.91-19.6-15.51-5.61-1.7-10.53-.6-14.54,3.79-2.12,2.32-4.14,4.74-6.2,7.11-5.5,6.32-10.78,12.82-18.01,17.4-3.29,2.08-6.52,3.9-10.51,4.08-8.49.38-14.65-3.39-19.05-10.45-.47-.75-.91-1.62-1.59-2.13-4.25-3.21-11.07-2.18-14.04,2.23-1.15,1.71-2.13,3.69-2.6,5.68-1.4,5.97-3,11.96-3.64,18.03-2.29,21.68-4.15,43.4-6.29,65.1-.74,7.45-1.73,14.88-2.75,22.3-.5,3.68-1.72,7.16-4.31,9.96-3.55,3.85-8.57,3.89-11.94-.09-1.42-1.68-2.57-3.71-3.38-5.77-3.34-8.46-5.81-17.21-6.94-26.23-3.07-24.5-4.64-49.07-3.65-73.78.23-5.68.2-11.39-.06-17.06-.22-4.75-2.57-8.52-6.53-11.26-1.91-1.32-3.66-2.88-5.64-4.08-.69-.42-2.06-.48-2.71-.07-2.27,1.44-4.36,3.16-6.53,4.76-3.05,2.24-5.03,5.24-5.48,8.96-.45,3.78-.75,7.63-.57,11.42,1.1,23.18.19,46.29-2,69.37-1.18,12.38-3.36,24.5-7.68,36.17-.93,2.5-2.12,5.01-3.71,7.13-3.43,4.57-9.13,4.63-12.62.1-1.55-2.02-2.65-4.53-3.4-6.99-.82-2.7-1.17-5.57-1.45-8.4-2.39-23.78-4.59-47.58-7.12-71.34-.92-8.62-2.43-17.19-4.01-25.72-.52-2.8-1.73-5.64-3.27-8.05-3.69-5.77-12.4-5.52-15.94.24-5.42,8.81-16.5,12.84-24.89,8.42-6.21-3.27-11.9-7.46-16.46-13.01-3.8-4.63-7.8-9.09-11.74-13.6-4.37-5-9.74-6.02-15.89-3.94-10.07,3.41-16.77,10.32-21.04,19.91-3.94,8.85-4.08,18.16-3.79,27.58.16,5.02.25,10.04.11,15.06-.42,15.25-6.15,28.05-17.81,38.1-2.95,2.54-5.77,5.24-8.45,8.06-10.56,11.09-15.83,24.36-14.83,39.65.84,12.91,4.33,25.31,10.67,36.63,3.87,6.9,8.72,13.25,13.07,19.89,1.23,1.87,2.48,3.77,3.36,5.81,4.92,11.5,6.56,23.71,8.19,36.01,2.17,16.32.07,31.77-6.82,46.68-3.74,8.09-7.18,16.32-10.7,24.51-4.23,9.86-7.87,19.92-10.23,30.42-3.05,13.59-1.73,27.13.23,40.67,4.27,29.49,13.15,57.82,21.62,86.26,2.39,8.02,6.8,14.74,13.17,20.26,3.67,3.18,7.11,6.66,10.47,10.18,3.98,4.17,7.98,8.35,11.59,12.83,11,13.64,14.34,28.93,9.74,46.01-3.33,12.38-6.32,24.9-7.03,37.73-1.45,26.08,1.71,51.81,9.89,76.51,10.72,32.37,29.59,59.53,56.47,80.82,4.52,3.58,9.33,6.78,13.92,10.27,10.73,8.16,21.43,16.36,32.1,24.6,4.53,3.49,9.56,4.87,15.18,3.98,3.18-.5,6.34-1.11,9.49-1.8,2.25-.49,4.21-.49,5.49,2.53ZM557.63,482.7c-.13,1.32-.18,2.11-.28,2.9-.74,5.71-1.09,11.51-2.32,17.12-3.42,15.62-9.38,30.3-17.1,44.3-1.16,2.11-1.81,4.82-1.79,7.24.24,21.03,4.81,40.99,15.14,59.49,7.34,13.15,14.56,26.36,21.85,39.53.2.36.56.63.92,1.02.47-.43.91-.73,1.22-1.13,7.51-9.9,15.56-19.45,22.4-29.79,12.67-19.16,16.33-39.82,8.84-62.15-5.68-16.93-14.58-31.96-25.09-46.2-7.65-10.36-15.13-20.84-22.69-31.26-.16-.23-.4-.39-1.11-1.07ZM87.04,483.23c-.19-.05-.38-.1-.58-.15-.7,1.12-1.32,2.29-2.1,3.35-7.08,9.66-14.15,19.33-21.29,28.94-11.33,15.25-20.71,31.45-26.07,49.88-5.4,18.56-2.39,35.96,6.58,52.49,7.06,13.02,16.52,24.4,26.05,35.68.27.32.67.53,1.1.86.36-.43.69-.72.89-1.09,6.76-12.18,13.37-24.44,20.28-36.52,11.08-19.37,16.41-40.22,16.73-62.46.04-2.7-.59-5.1-1.84-7.51-3-5.78-6.06-11.55-8.57-17.55-5.98-14.3-10.49-29.02-10.92-44.71-.01-.41-.17-.82-.27-1.23ZM544.97,801.38c.96-.47,1.35-.64,1.73-.85,4.13-2.26,8.1-4.91,12.42-6.73,13.98-5.89,24.53-15.65,32.52-28.29,11.45-18.09,19.42-37.15,16.03-59.34-1.47-9.65-1.45-19.63-7.11-28.22-.48-.73-.63-1.68-.98-2.5-.18-.43-.48-.8-.64-1.06-3.16,4.31-5.95,8.78-9.41,12.66-5.89,6.6-10.26,13.98-12.96,22.36-4.49,13.96-10.15,27.36-18.38,39.6-1.41,2.1-2.29,4.7-2.85,7.2-2.96,13.21-5.73,26.47-8.62,39.71-.36,1.65-1.04,3.24-1.77,5.47ZM99.62,801.18c-.75-2.31-1.54-4.18-1.96-6.12-2.84-13.1-5.54-26.22-8.44-39.31-.52-2.36-1.52-4.68-2.68-6.8-2.26-4.14-4.86-8.09-7.21-12.18-5.36-9.36-8.33-19.71-12.04-29.75-2.49-6.74-6.03-12.8-10.7-18.32-3.56-4.21-6.54-8.91-9.79-13.39-.28-.38-.62-.73-.93-1.1-2.02,4.2-4,8.22-5.87,12.29-.49,1.07-.73,2.29-.88,3.47-.73,5.57-1.46,11.14-2.07,16.73-1.17,10.59-1.09,21.08,2.62,31.29,3.13,8.62,6.77,16.99,11.64,24.77,5.92,9.46,12.55,18.47,22.22,24.36,8.28,5.05,17.08,9.24,26.1,14.06ZM549.08,174.66c0,1.38,0,2.15,0,2.92.05,9.66,2.7,18.78,5.59,27.87,1.24,3.92,3.26,7.07,6.69,9.51,6.61,4.7,10.94,11.08,12.36,19.15,2.36,13.36-.15,25.76-8.62,36.46-3.79,4.79-6.24,9.96-7.92,15.69-3.71,12.71-4,25.73-3.29,38.78.17,3.2,1.26,6.41,2.33,9.48,1.06,3.03,2.86,5.79,3.95,8.81,2.74,7.55,7.83,13.39,13.3,18.99.26.26.69.36,1.06.54.12-.31.23-.45.21-.58-.07-.59-.15-1.19-.27-1.77-4.04-19.36-3.37-38.35,3.75-57.05,4.11-10.77,8-21.68,11.13-32.76,6.93-24.52,3.44-46.92-14.46-66.26-8.43-9.11-16.19-18.85-24.26-28.3-.31-.36-.7-.66-1.57-1.47ZM69.87,362.77c.23.1.46.2.7.3,3.94-4.35,8.35-8.36,11.03-13.71,2.85-5.68,5.44-11.51,8.02-17.33.62-1.41.99-3.03,1.07-4.57.65-12.37.85-24.73-2.1-36.88-1.67-6.91-3.44-13.79-8.48-19.31-3.52-3.85-5.81-8.51-7.46-13.47-6.08-18.3-2-32.47,12.77-44.59,1.28-1.05,2.51-2.5,3.11-4.02,4-10.23,6.96-20.73,7.16-31.83.01-.74-.09-1.49-.17-2.68-.69.62-.99.82-1.22,1.09-8.9,10.41-17.76,20.85-26.72,31.21-5.14,5.95-9.47,12.36-11.89,19.92-4.9,15.33-4.96,30.65.2,45.92,3.5,10.36,7.14,20.67,10.64,31.03,2.67,7.88,5.13,15.83,5.93,24.17,1.05,10.92-.32,21.68-2.22,32.4-.14.78-.24,1.56-.37,2.34ZM88.58,354.3c-.17-.05-.35-.11-.52-.16-.28.41-.63.79-.83,1.23-3.59,7.96-9,14.63-14.74,21.09-7.22,8.12-14.06,16.55-19.74,25.86-6.57,10.77-11.25,22.18-11.64,34.99-.16,5.39-.09,10.79-.04,16.18.09,10.35,0,20.68-1.69,30.93-.08.46.03.95.08,2.02.91-.98,1.49-1.51,1.96-2.12,3.04-3.99,5.91-8.12,9.13-11.96,3.94-4.7,7.84-9.5,12.36-13.6,3.62-3.28,6.61-6.87,9.12-10.97.86-1.41,1.8-2.77,2.61-4.2,4.17-7.35,8.86-14.48,11.03-22.77,1.07-4.1,2.57-8.39,2.28-12.48-1.18-16.41-1.33-32.77.21-49.15.15-1.62.27-3.25.4-4.87ZM556.6,354.14c-.15.05-.31.11-.46.16.05.81.07,1.62.16,2.42,1.49,14.41,1.85,28.85.9,43.3-.37,5.68-.96,11.29.92,16.84,1.34,3.96,2.04,8.22,3.94,11.88,4.06,7.83,8.65,15.39,13.18,22.97,1.13,1.9,2.62,3.74,4.33,5.12,6.18,4.98,11.2,10.99,15.95,17.27,2.75,3.64,5.53,7.27,8.33,10.88.35.45.84.79,1.6,1.49-.52-5.26-1.27-9.93-1.4-14.61-.28-10.33-.31-20.66-.3-31,.01-10.54-2.43-20.46-7.04-29.91-5.87-12.03-13.97-22.49-22.72-32.48-6.32-7.22-12.68-14.4-16.64-23.3-.17-.38-.49-.69-.74-1.03ZM162.67,752.47c.19-.02.38-.03.57-.05.2-1.8.66-3.62.54-5.4-.7-10.55-1.59-21.09-5.78-30.99-3.1-7.31-6.31-14.57-9.41-21.88-1.52-3.58-3.01-7.19-4.3-10.86-4.01-11.46-3.41-22.68,2.09-33.56,2.2-4.36,4.18-8.75,4.84-13.69,2.32-17.54-1.47-33.95-8.98-49.69-.37-.78-1-1.51-1.68-2.05-3.23-2.54-6.51-5.01-9.78-7.49-.5-.38-1.03-.7-2.03-1.38.18,1.37.28,2.15.37,2.93.84,6.84,1.84,13.66,2.49,20.51,1.25,13.23-.65,26.32-2,39.43-1.24,12-2.43,24.05-1.27,36.1,1.74,18.08,8.33,34.54,17.63,50.01,5.36,8.91,10.55,17.93,15.82,26.9.24.41.57.77.86,1.15ZM481.17,752.38c.32.02.64.05.96.07.28-.42.57-.83.82-1.27,4.72-8.07,9.26-16.27,14.21-24.2,7.92-12.7,13.86-26.16,17.34-40.75,3.2-13.43,2.37-26.94,1.27-40.47-.64-7.84-1.57-15.65-2.36-23.48-1.46-14.42-.42-28.73,1.99-42.97.18-1.09.24-2.2.4-3.7-4.45,3.32-8.41,6.24-12.31,9.24-.55.42-.88,1.2-1.2,1.87-3.99,8.28-6.99,16.93-8.34,26.02-1.94,13.08-1.79,25.83,4.8,38.04,5.53,10.26,5.67,21.31,1.78,32.27-1.95,5.5-4.08,10.96-6.57,16.24-6.63,14.04-12.36,28.3-12.87,44.1-.1,3,.04,6,.07,9ZM561.91,176.5c.2-.62.31-.77.29-.89-.18-.8-.37-1.6-.6-2.4-2.97-10.23-4.37-20.67-3.99-31.31.31-8.68,1.13-17.36,1.15-26.04.02-5.95-.34-12.03-1.57-17.83-2.78-13.06-8.97-24.17-20.88-31.17-5.29-3.11-10.86-5.72-16.3-8.57-1.51-.79-1.67.09-1.92,1.33-1.03,5.12-2.03,10.25-3.36,15.29-.51,1.92-.43,3.18,1.01,4.59,3.95,3.87,6.93,8.45,9.03,13.57,3.47,8.42,5.62,17.21,7.24,26.16.73,4.05,1.57,8.1,2.72,12.04.59,2.02,1.73,4.01,3.06,5.65,4.37,5.37,7.57,11.27,9.51,17.93.64,2.19,1.64,4.38,2.93,6.25,3.15,4.55,6.56,8.93,9.89,13.36.48.63,1.05,1.19,1.79,2.02ZM82.45,175.71c.32.32.64.63.96.95.37-.71.66-1.48,1.14-2.12,2.99-4.03,6.2-7.9,8.96-12.08,1.78-2.7,3.21-5.74,4.26-8.81,1.93-5.68,4.48-10.99,8.33-15.55,2.35-2.78,3.91-5.81,4.67-9.31.62-2.85,1.14-5.73,1.8-8.57,1.54-6.63,2.95-13.3,4.76-19.86,2.24-8.13,6.04-15.48,12.18-21.42,1.16-1.13,1.12-2.3.61-3.68-1.88-5.08-3.39-10.24-3.43-15.72-.01-1.69-.78-1.85-2.16-1.14-3.19,1.66-6.36,3.35-9.63,4.83-15.69,7.08-24.24,19.6-27.76,36.07-1.99,9.3-1.23,18.63-.55,27.97,1.08,14.93,1.24,29.8-3.01,44.36-.4,1.35-.74,2.72-1.11,4.09ZM195.14,847.33c.13-.18.26-.36.39-.54-.42-.58-.82-1.18-1.25-1.75-8.88-11.79-20.18-20.81-32.67-28.42-7.29-4.43-14.86-8.4-22.1-12.9-15.7-9.77-28.42-22.82-39.98-37.09-.52-.64-1.07-1.25-1.95-2.26,0,1.16-.09,1.69.01,2.17,1.44,6.73,2.75,13.5,4.41,20.18,2.76,11.11,7.51,21.22,15.08,30.01,14.62,16.97,33.94,24.18,55.32,27.18,7.59,1.07,15.44.25,22.74,3.42ZM547.2,765.25c-.19-.09-.39-.18-.58-.27-.46.55-.93,1.09-1.38,1.64-10.65,13.15-22.2,25.42-36.44,34.73-8.39,5.48-17.29,10.17-25.84,15.4-12.42,7.59-23.68,16.55-32.52,28.29-.42.56-.8,1.14-1.51,2.14.99-.17,1.41-.24,1.82-.31,4.55-.79,9.09-2.08,13.67-2.28,10.82-.48,21.23-2.69,31.35-6.37,23.37-8.5,39.11-24.39,46.01-48.49,2-6.97,3.29-14.14,4.89-21.23.24-1.07.36-2.17.54-3.25ZM96.96,286.58c.17,1.5.21,2.29.35,3.06,2.14,11.55,2.42,23.26,2.32,34.92-.08,9.34-.88,18.72-1.99,28-2.18,18.24-2.23,36.46-.47,54.72.12,1.28.34,2.56.51,3.84.22.02.45.03.67.05.3-.79.61-1.58.9-2.38,4.05-10.8,8.04-21.63,14.83-31.14.57-.81.83-1.92.99-2.93.94-5.75,1.78-11.52,2.71-17.28,1.29-7.99,3.03-15.99,1.72-24.1-1.02-6.35-2.36-12.68-4.13-18.85-2.06-7.21-4.86-14.18-9.55-20.19-2.31-2.96-5.23-5.19-8.87-7.71ZM546.32,411.01c.24,0,.48-.01.72-.02.16-1.15.35-2.3.47-3.45,1.91-19.01,1.42-37.96-.58-56.97-1.23-11.73-2.63-23.54-1.69-35.41.71-8.95,1.59-17.88,2.38-26.83.03-.38-.13-.78-.27-1.48-4.2,3.04-8.08,6-10.46,10.37-10.5,19.27-14.83,39.54-9.71,61.32.91,3.86,1.88,7.78,2.08,11.71.21,4.14,1.5,7.49,3.74,10.96,5.48,8.46,8.99,17.91,12.44,27.35.3.82.59,1.64.89,2.45ZM47.41,492.46c-.68.37-.97.46-1.17.64-5.75,5.22-11.49,10.46-17.25,15.69-13.27,12.04-19.97,27-19.98,44.93,0,8.52,2.3,16.57,5.14,24.5,3.65,10.17,6.9,20.44,7.32,31.37.01.31.22.61.33.92,1.77-4.13,4.43-7.76,3.29-12.69-1.92-8.26-1.83-16.64-.18-24.98,3.32-16.85,9.49-32.6,18.34-47.29,1.29-2.14,1.61-4.19,1.21-6.62-1.29-7.87-1.36-15.66,2.04-23.14.41-.9.53-1.94.9-3.32ZM597.84,492.79c-.14.07-.28.15-.41.22.21.82.3,1.7.65,2.45,3.51,7.62,3.46,15.56,2.12,23.59-.4,2.37,0,4.34,1.23,6.39,5.72,9.62,10.5,19.68,13.95,30.37,4.66,14.44,7.55,28.97,4,44.19-.89,3.82,1.95,6.96,3.37,10.37.46-.76.52-1.45.62-2.15.75-4.8,1.12-9.71,2.35-14.39,1.77-6.73,4.11-13.31,6.32-19.91,3.34-9.98,4.7-20.14,2.88-30.57-2.58-14.76-9.75-26.84-21.3-36.44-5.06-4.2-9.76-8.83-14.63-13.26-.35-.32-.76-.59-1.14-.88ZM356.94,22.78c-.43-.36-.8-.8-1.27-1.06-4.63-2.6-9.25-5.22-13.93-7.73-12.94-6.93-25.91-6.92-38.84.03-4.68,2.51-9.28,5.17-13.95,7.7-1.03.56-1.26,1.13-.61,2.12,3.69,5.64,6.12,11.78,7.57,18.38.73,3.33,1.77,3.5,4.25,1.21,5.71-5.25,12.2-8,20.11-6.58,1.44.26,3.01.21,4.47-.04,7.38-1.26,13.55,1.17,19.02,5.95,3.57,3.12,4.36,2.96,5.34-1.68,1.27-6.03,3.71-11.52,6.95-16.71.27-.44.51-.9.89-1.58ZM365.23,30.49c.26.2.37.35.49.36.44.05.89.07,1.34.06,7.48-.23,13.79,2.52,18.91,7.82,2.64,2.73,4.75,5.96,7.28,8.8.85.95,2.21,1.85,3.43,2,13.52,1.76,26.58.54,38.62-6.55.13-.08.27-.14.41-.18,3.86-.9,6.37-3.2,7.8-6.94.6-1.56,1.89-2.86,2.83-4.29.26-.4.43-.85.84-1.7-1.18.1-1.96.14-2.73.24-2.08.26-4.15.58-6.23.81-7.58.85-14.43-1.52-21.19-4.63-9.32-4.28-18.76-8.3-29.09-9.56-8.65-1.06-19.46,5.47-22.72,13.76ZM279.56,30.72c-.19-.61-.23-.98-.4-1.28-6-10.32-15.13-14.4-26.76-12.01-8.8,1.81-17.09,5.12-25.08,9.06-8.71,4.29-17.61,5.57-27.05,3.62-.74-.15-1.52-.08-2.64-.13.44.86.64,1.32.89,1.74,1.46,2.44,2.84,4.92,4.43,7.27.67.99,1.67,1.94,2.74,2.45,3.58,1.71,7.19,3.38,10.9,4.76,3.63,1.35,7.35,3.06,11.12,3.33,7.06.49,14.18.11,21.28-.08.83-.02,1.81-.97,2.43-1.72,1.66-2.02,3.08-4.24,4.75-6.25,5.72-6.86,12.8-10.95,22.02-10.56.36.02.72-.1,1.38-.19ZM205.37,837.91c-.14.12-.29.24-.43.36.28.72.51,1.46.85,2.15,1.56,3.16,3.02,6.37,4.75,9.43,4.4,7.73,8.17,15.99,13.58,22.96,10.76,13.88,25.46,18.68,42.72,15.59.59-.11,1.14-.42,2.03-.76-.85-.8-1.37-1.32-1.91-1.81-4.55-4.11-8.33-8.83-11.02-14.35-1.47-3.01-3.6-5.29-6.51-6.9-4.19-2.33-8.44-4.55-12.52-7.05-9.95-6.11-19.81-12.37-29.71-18.56-.6-.37-1.23-.7-1.84-1.05ZM375.65,886.91c.23.35.46.69.69,1.04,4.85,1.4,9.83,1.93,14.82,1.21,13.82-1.97,25.26-8.09,32.44-20.44,5.57-9.57,10.54-19.49,15.75-29.26.21-.39.18-.9.31-1.61-.56.23-.85.31-1.09.46-14.65,8.89-29.29,17.79-43.95,26.67-2.51,1.52-4.41,3.54-5.7,6.18-2.8,5.73-6.68,10.64-11.44,14.86-.49.43-1.21.6-1.83.9ZM615.73,693.76c.69-.56.93-.66,1.02-.83.44-.87,1.01-1.71,1.24-2.63,1.79-7.25,3.88-14.45,5.16-21.8,1.72-9.89,2.58-19.9,1.22-29.96-1.11-8.17-5.36-14.91-10.04-21.66-1.11,2.97-2,5.94-2.65,8.96-2.4,11.12-2.3,22.46-2.78,33.75-.29,6.88.38,13.58,2.56,20.14,1.5,4.52,2.78,9.11,4.27,14.03ZM30.52,616.92c-.22.01-.43.03-.65.04-1.34,2.24-2.69,4.47-4.02,6.71-4.16,6.99-6.48,14.57-6.01,22.69.54,9.17,1.29,18.36,2.63,27.45.86,5.8,2.92,11.42,4.52,17.1.24.87.87,1.62,1.58,2.91.51-1.18.86-1.82,1.06-2.49,1.49-4.87,3.23-9.68,4.32-14.63,1-4.56,1.57-9.27,1.82-13.94.24-4.47-.15-8.98-.31-13.46-.35-9.74-1.08-19.44-3.76-28.88-.34-1.18-.79-2.33-1.19-3.49ZM48.53,388.44c.55-.32.86-.4,1.02-.61,2.55-3.33,5.11-6.65,7.58-10.04.4-.55.48-1.39.55-2.11.17-1.98.07-4,.42-5.94.88-4.86,1.99-9.68,2.93-14.54,2.61-13.53,2.63-26.96-1.84-40.17-.2-.58-.46-1.14-.91-2.25-.29,1.03-.42,1.44-.52,1.86-1.69,7.13-3.1,14.34-5.13,21.37-2.96,10.22-4.98,20.5-4.56,31.2.25,6.28.18,12.58.27,18.87,0,.71.12,1.41.2,2.36ZM595.35,388.73c.3-.19.59-.38.89-.57.05-.78.13-1.55.14-2.33.05-5.01-.16-10.04.17-15.04.84-12.76-1.37-25-5.19-37.12-1.93-6.11-2.95-12.5-4.39-18.76-.12-.5-.29-.99-.56-1.92-.35.73-.51.98-.6,1.25-3.08,9.65-4.94,19.52-3.55,29.64,1.26,9.11,3.12,18.13,4.67,27.2.21,1.23.09,2.52.28,3.76.2,1.25.3,2.67.97,3.66,2.01,2.97,4.29,5.76,6.43,8.64.34.46.5,1.06.74,1.59ZM74.54,129.97c-.54.64-.9.98-1.18,1.39-9.65,14.31-13.86,29.95-12.24,47.28.65,6.96.11,14.04.11,21.06,0,.41.06.82.1,1.23.16.1.33.19.49.29,2.08-2.48,4.17-4.95,6.21-7.47.25-.31.22-.85.28-1.29.25-1.98.3-4.01.76-5.95.79-3.35,1.89-6.62,2.75-9.96,3.77-14.77,3.64-29.82,3.19-44.89-.01-.46-.25-.91-.47-1.69ZM582.91,201.21l.57-.3c0-.36,0-.72,0-1.08.02-7.4-.47-14.85.16-22.2,1.46-16.96-2.9-32.2-12.25-46.2-.25-.38-.68-.65-1.51-1.42-.11,2.32-.21,4.07-.26,5.82-.51,16.64.38,33.11,5.54,49.12.78,2.44.82,5.12,1.22,7.68.08.51.14,1.11.45,1.48,1.99,2.39,4.05,4.74,6.08,7.09ZM12.77,513.44c2.91-3.29,5.22-6.49,8.11-9.02,3.3-2.89,4.97-6.36,5.91-10.49,2.85-12.5,3.39-25.19,3.36-37.93,0-.4-.17-.81-.39-1.76-.73,1.02-1.26,1.61-1.63,2.28-3.77,6.89-7.61,13.75-11.23,20.72-3.81,7.33-6.04,15.13-6.29,23.44-.13,4.3.7,8.42,2.16,12.76ZM631.88,513.43c.32-.92.56-1.52.75-2.14,2.73-9.09,1.9-18.18-1.79-26.6-4.37-9.98-9.86-19.47-14.9-29.15-.16-.31-.61-.48-1.08-.83-.11.61-.24.96-.24,1.32-.08,12.38.47,24.69,3.05,36.86.99,4.66,2.68,8.69,6.49,11.91,2.81,2.37,4.97,5.51,7.72,8.64ZM322.16,61.03c3.07-.61,5.92-1.25,8.79-1.72,3.56-.58,6.69-2.05,9.64-4.07,1.23-.84,1.47-1.63.33-2.66-1.78-1.6-3.53-3.24-5.39-4.73-.56-.45-1.71-.85-2.2-.57-2.62,1.48-5.22.63-7.89.36-2.11-.22-4.26-.05-6.39,0-2.08.06-4.41.84-6.16.14-2.32-.93-3.67-.2-5.16,1.13-1.34,1.2-2.63,2.45-3.94,3.68-1.13,1.05-.81,1.75.35,2.67,5.37,4.25,12.08,4.07,18.03,5.78ZM134.16,88.26c-.28-.04-.56-.07-.84-.11-8.61,11.9-11.08,25.85-12.93,40.18,1.88-.69,3.7-1.4,5.13-2.59,1.97-1.63,4.58-3.33,5.27-5.51,3.04-9.68,4.73-19.64,3.8-29.87-.06-.71-.28-1.4-.43-2.1ZM511.39,88.18c-.29.04-.57.07-.86.11-.17,1.13-.43,2.26-.5,3.4-.53,8.61.92,16.98,2.78,25.35.85,3.8,2.68,6.58,5.97,8.49,1.75,1.02,3.52,2.01,5.28,3.01.17-.18.35-.37.52-.55-2.17-14.02-4.59-27.96-13.19-39.81ZM242.46,60.7c-12.37,2.15-23.46-1.41-34.33-7.02.69,2.27,1.28,4.6,2.74,6.06,4.39,4.38,9.12,8.47,15.13,10.53,6.49,2.23,14.4-2.25,16.46-9.58ZM436.75,53.81c-5.83,2.16-11.26,4.39-16.83,6.18-5.65,1.82-11.55,1.64-17.69,1.18,1.79,2.77,3.71,5.18,5.9,7.31,2.48,2.41,5.63,3.17,8.94,2.22,2.27-.65,4.58-1.52,6.55-2.79,3.19-2.06,6.18-4.46,9.12-6.87,2.27-1.85,3.25-4.49,4.01-7.24Z" style="fill: #000; stroke-width: 0px;"/>
  <path d="M501.68,466.65c.32,17.22-3.24,33.81-8.01,50.2-.57,1.94-1.11,3.89-1.75,5.81-.84,2.49-2.51,3.7-4.4,3.28-1.98-.44-2.94-2.32-2.49-5.06,1.71-10.42,3.6-20.82,5.14-31.27,3.82-25.91,1.56-51.44-5.54-76.55-6.32-22.38-19.78-39.92-37.73-54.26-8.29-6.62-17.14-12.39-27.01-16.35-4.14-1.66-8.5-2.98-12.89-3.75-7.3-1.29-11.63,1.14-13.96,8.14-1.76,5.29-2.61,10.89-3.71,16.39-.16.8.25,2.08.85,2.59,2.15,1.84,4.4,3.62,6.8,5.1,12.64,7.8,24.85,16.23,35.71,26.37,9.16,8.55,15.07,19.14,16.88,31.74.88,6.16.38,12.31-1.25,18.28-5.76,21.12-14.66,40.7-28.96,57.53-4.39,5.17-9.4,9.69-15.17,13.26-6.94,4.29-13.93,8.51-21,12.58-4,2.31-8.24,4-13.06,2.72-2.89-.76-4.02-1.85-3.93-4.85.11-3.88.44-7.77.88-11.63,1.58-14.15,3.21-28.29,4.89-42.42,3.12-26.25,3.55-52.61,3.41-79-.04-7.59-1.88-14.87-4.26-21.98-3.37-10.08-6.99-20.08-10.68-30.05-6.91-18.67-12.06-37.81-15.63-57.39-.59-3.24-1.24-6.47-1.94-9.69-.92-4.24-1.17-8.47.05-12.68,1.86-6.43,8.04-8.31,13.18-3.98,3.94,3.32,6.47,7.68,8.29,12.4,2.89,7.47,5.23,15.16,8.34,22.53,2.49,5.91,5.56,11.61,8.76,17.18,5.15,8.96,12.52,14.69,23.33,15.28,11.54.62,21.73,5.37,31.47,11.14,17.57,10.4,32.61,23.58,43.83,40.83,6.73,10.34,11.21,21.67,14.27,33.57,4.54,17.71,7.03,35.71,7.28,54ZM406.76,446.95c-.32-5.43-1.12-12.16-5.88-17.68-1.39-1.61-2.97-2.84-5.24-2.25-2.19.57-3.07,2.31-3.33,4.35-.68,5.27-1.31,10.54-1.91,15.82-1.07,9.52-2.12,19.05-3.16,28.57-.23,2.12.45,3.88,2.42,4.9,2.04,1.05,4.01.68,5.54-.94,1.11-1.18,2.14-2.55,2.84-4,2.11-4.38,4.12-8.81,6.01-13.29,1.88-4.46,2.77-9.16,2.71-15.47Z" style="fill: #000; stroke-width: 0px;"/>
  <path d="M152.61,464.85c-.06,12.28,1.65,24.36,3.77,36.41,1.16,6.57,2.19,13.15,3.27,19.74.42,2.58-.49,4.43-2.39,4.92-1.91.49-3.67-.64-4.47-3.13-7.3-22.83-11.53-46.04-9.2-70.15,1.27-13.08,3.28-26,6.36-38.78,6.67-27.72,22.05-49.53,44.73-66.43,10.69-7.96,21.95-14.93,34.93-18.51,4.3-1.19,8.8-1.85,13.25-2.28,7.33-.7,12.77-4.37,17.08-10.03,7.32-9.6,12.07-20.45,15.67-31.91,1.63-5.2,3.63-10.33,5.99-15.24,1.57-3.25,3.87-6.22,6.24-8.98,2.21-2.59,5.29-3.72,8.74-2.69,3.34,1,4.98,3.68,5.36,6.87.39,3.31.76,6.81.11,10.02-2.79,13.8-5.71,27.58-9.06,41.24-2.79,11.35-6.79,22.32-11.01,33.24-4.44,11.5-7.89,23.41-11.24,35.3-1.26,4.46-1.32,9.34-1.39,14.04-.51,34.46,1.76,68.74,6.7,102.85.96,6.66,1.23,13.42,1.8,20.14.22,2.6.52,5.2.54,7.81.01,2.34-1.38,3.93-3.7,4.05-2.63.14-5.35.13-7.91-.4-2.07-.42-4.05-1.55-5.92-2.64-6.22-3.61-12.39-7.3-18.53-11.04-10.24-6.23-18.24-14.76-24.83-24.66-9.12-13.71-15.72-28.59-20.39-44.35-5.85-19.76-.62-36.86,13.36-51.21,6.17-6.33,13.57-11.5,20.7-16.81,5.87-4.37,12.18-8.14,18.25-12.25,1.79-1.21,3.51-2.58,5.07-4.08.6-.58,1.07-1.8.91-2.58-1.23-5.84-2.19-11.8-4.11-17.42-2.01-5.89-5.91-8.12-12.11-7.32-4.4.57-8.94,1.56-12.97,3.35-29.04,12.92-51.26,32.94-63.31,62.94-6.06,15.09-8.37,31.06-9.63,47.18-.33,4.25-.43,8.53-.64,12.79ZM237.81,448.8c.48,10.87,5.08,20.64,10.81,29.96,1.51,2.45,3.88,2.99,6.04,2.1,2.16-.88,3.04-2.87,2.7-5.8-.74-6.47-1.41-12.95-2.14-19.42-.91-8.03-1.81-16.06-2.8-24.08-.26-2.09-1.08-3.97-3.41-4.54-2.27-.56-3.85.65-5.24,2.27-4.74,5.53-5.49,12.28-5.97,19.5Z" style="fill: #000; stroke-width: 0px;"/>
  <path d="M183.76,279.78c-6.9.32-13.11-1.69-18.95-5.3-13.89-8.59-24.16-20.2-30.09-35.51-4.33-11.17-4.25-22.4-.27-33.63,2.4-6.77,6.59-12.22,12.51-16.31,2.22-1.53,4.48-3,6.8-4.38,9.12-5.41,14.48-13.47,16.62-23.74,2.39-11.49,2.62-23.04.78-34.63-.09-.59-.19-1.19-.19-1.78-.02-2.64,1.43-4.66,3.73-5.26,2.15-.56,4.4.44,5.66,2.68,7.51,13.29,15,26.58,22.48,39.88,4.19,7.44,8.37,14.88,12.53,22.34,2.01,3.6,4.63,6.61,8.13,8.83,3.19,2.02,5.79,4.94,9.77,5.75.99.2,2.16,1.6,2.46,2.67.88,3.22,1.75,6.52,1.94,9.83.38,6.5-.89,12.88-2.93,19-2.53,7.59-5.14,15.2-8.34,22.52-7.32,16.74-20.49,25.42-38.59,26.81-1.34.1-2.69.14-4.04.21Z" style="fill: #000; stroke-width: 0px;"/>
  <path d="M460.99,279.73c-13.78-.14-25.74-4.28-35.05-14.71-4.56-5.11-7.46-11.2-9.95-17.48-4.27-10.74-8.41-21.56-8.87-33.27-.15-3.89.65-7.86,1.35-11.74.44-2.43,2.08-4.1,4.76-4.42.58-.07,1.23-.25,1.68-.59,5.09-3.85,10.93-6.83,14.17-12.81,5.92-10.93,11.91-21.82,18.04-32.64,3.76-6.64,7.86-13.1,11.72-19.69,1.74-2.96,3.39-5.99,4.85-9.1,1.47-3.11,3.76-4.7,6.4-4.01,2.71.71,4.08,3.34,3.5,6.87-1.75,10.68-1.51,21.34.23,31.99,1.92,11.73,7.43,21.1,18.02,27.04,9.37,5.26,16.47,12.36,19.41,23.05,3.23,11.74,2.34,23.07-2.67,34.19-6.28,13.94-16.22,24.47-29.14,32.38-5.72,3.5-11.86,5.31-18.44,4.95Z" style="fill: #000; stroke-width: 0px;"/>
  <path d="M322.49,836.07c-3.2-.28-6.49-.21-9.58-.94-2.45-.58-4.88-1.85-6.95-3.33-2.85-2.04-5.38-4.53-7.99-6.89-5.82-5.27-12.8-8.41-19.94-11.45-14.31-6.11-27.78-13.77-39.64-23.94-9.41-8.07-15.73-18.49-20.38-29.78-4.78-11.62-8.82-23.55-13.19-35.34-.39-1.05-.84-2.09-1.17-3.16-.9-2.94.53-5.4,3.55-5.78,4.69-.58,6.33.21,8.86,4.08,5.27,8.07,11.31,15.64,17.1,23.36,6.39,8.51,14.26,15.33,23.7,20.28,6.63,3.47,13.23,7,19.95,10.29,5.38,2.63,11.11,3.32,17.08,2.33,3.24-.54,6.54-.84,9.82-.94,4.86-.14,9.1,1.54,12.57,5.02.32.32.64.63.97.94,3.96,3.67,6.45,3.89,10.21,0,5.01-5.18,10.96-6.67,17.82-5.73,1.04.14,2.1.16,3.12.38,8.04,1.76,15.59.33,22.85-3.35,10.08-5.12,20.52-9.81,29.03-17.35,5.61-4.97,10.45-10.91,15.11-16.83,5.16-6.57,9.73-13.62,14.54-20.47,1.88-2.67,8.34-3.21,10.24-.59.8,1.1,1.25,3.12.81,4.34-5.18,14.2-10.15,28.5-16.01,42.43-7.18,17.06-19.94,29.2-35.88,38.33-9.11,5.22-18.3,10.21-28.12,13.97-6.64,2.54-11.91,7.12-17.2,11.65-.06.05-.11.1-.16.15-5.61,6.39-12.67,9.06-21.11,8.34Z" style="fill: #000; stroke-width: 0px;"/>
  <path d="M296.47,709.08c.57-8.41.32-14.49-1.85-20.41-.96-2.62-2.26-4.86-4.5-6.55-2.2-1.65-3.8-3.5-3.18-6.63.18-.9-.57-2.14-1.18-3.01-3.87-5.49-6.76-11.46-9.13-17.73-3.74-9.89-2.95-19.52,1.27-29.06,3.21-7.26,6.91-14.38,9.34-21.9,4.04-12.53,7.29-25.32,10.75-38.03.48-1.77.5-3.72.41-5.58-.45-9.52,2.02-18.36,5.79-26.99,3.48-7.96,6.64-16.05,10.02-24.05,1.31-3.1,2.7-6.18,4.27-9.16,1.73-3.29,6.05-3.34,7.7,0,2.38,4.83,4.46,9.81,6.58,14.76,2.54,5.92,4.86,11.93,7.5,17.79,3.93,8.72,6.47,17.68,6.12,27.37-.27,7.3,2.14,14.17,3.98,21.11,3.73,14.08,8.31,27.88,14.99,40.85,7.98,15.51,5.94,30.23-2.58,44.67-.99,1.68-1.96,3.38-3.12,4.93-1.3,1.74-2.12,3.46-1.91,5.77.09,1.07-.62,2.65-1.49,3.3-6.78,5.05-7.87,12.42-8.23,20.01-.24,5.08.05,10.18-.1,15.27-.15,4.98-1.62,9.56-4.8,13.53-2.32,2.89-5.09,5.07-8.77,5.89-2.73.61-4.64,2.24-6.12,4.56-4.28,6.72-7.52,6.68-11.85-.14-1.34-2.11-3.05-3.68-5.52-4.3-7.36-1.87-11.43-7.09-13.06-14.02-1.1-4.68-1.06-9.63-1.31-12.27ZM322.28,517.9c-.34.7-.59,1.12-.77,1.58-1.87,4.81-3.51,9.72-5.64,14.42-2.85,6.29-4.56,12.8-5.36,19.64-.49,4.23-1.28,8.44-2.19,12.6-2.57,11.81-6.4,23.41-5,35.8.62,5.5.42,11.11,1.29,16.57,1.62,10.2,3.74,20.33,5.64,30.49.32,1.69.77,3.41.71,5.1-.04,1-.77,2.5-1.56,2.8-.8.3-2.09-.51-3.09-1-.41-.2-.62-.82-.92-1.25-6.11-8.92-9.81-18.82-12.01-29.34-.18-.88-.52-1.72-.78-2.59-.24-.03-.48-.05-.72-.08-1.22,2.76-2.29,5.6-3.69,8.27-3.85,7.35-3.48,14.63.43,21.72,5.16,9.37,10.55,18.62,15.89,27.89.55.96,1.35,1.81,2.17,2.56,6.64,6.04,9.2,13.82,9.65,22.51.08,1.52-.16,2.94-1.89,3.38-1.58.41-2.5-.59-3.23-1.85-.55-.96-1.15-1.89-1.73-2.84-.19.08-.38.16-.57.24-.05,5.19-.74,10.42.84,15.53.9,2.91,2.52,5.18,5.68,6.15,3,.92,4.83,3.16,5.81,6.11.29.87.61,1.73,1.06,3.03.36-.78.53-1.03.6-1.3,1-4.19,3.39-7.01,7.58-8.43,1.22-.41,2.44-1.56,3.13-2.7,3.61-5.9,1.97-12.37,1.97-18.71-.69.45-1.06.97-1.39,1.52-.35.58-.51,1.39-1.01,1.72-.96.64-2.2,1.53-3.14,1.35-.73-.14-1.72-1.77-1.68-2.69.35-8.48,2.62-16.22,8.98-22.34,1.44-1.38,2.7-3.01,3.77-4.7,2.19-3.48,4.3-7.02,6.27-10.64,3.51-6.43,7.1-12.84,10.25-19.44,2.35-4.93,2.31-10.16.04-15.26-1.37-3.08-2.63-6.21-3.98-9.29-.27-.62-.72-1.16-1.16-1.85-.39.43-.6.57-.66.76-.2.64-.36,1.3-.5,1.95-2.27,10.82-6.13,20.98-12.57,30.05-.93,1.31-2.03,2.36-3.74,1.63-1.61-.69-1.62-2.19-1.38-3.67.3-1.85.55-3.71.98-5.53,4.14-17.32,6.89-34.82,7.22-52.66.03-1.56-.04-3.15-.3-4.69-.56-3.25-1.32-6.46-1.92-9.7-2.01-10.89-5.24-21.53-6.3-32.62-.32-3.37-1.56-6.71-2.75-9.93-2.41-6.53-5.07-12.96-7.64-19.42-.08-.19-.27-.34-.68-.83Z" style="fill: #000; stroke-width: 0px;"/>
</svg>