<?xml version="1.0" encoding="UTF-8"?>
<svg id="Layer_1" data-name="Layer 1" xmlns="http://www.w3.org/2000/svg" viewBox="0 0 580.34 900">
  <path d="M498.7,413.03c4.35,6.97,8.25,13.3,12.25,19.58,10.09,15.86,15.33,33.28,17.19,51.9,2.6,26,.51,51.23-9.13,75.87-8.62,22.01-23.15,39-41.54,53.08-7.14,5.46-14.74,10.34-22.18,15.4-1.86,1.27-3.27,2.38-2.05,4.96,8.46,17.89,12.32,37.09,15.35,56.42,3.8,24.19,6.13,48.53,3.69,73.06-1.19,11.98-4.34,23.51-8.66,34.74-6.23,16.21-12.48,32.42-18.66,48.65-10.03,26.34-30.83,41.14-55.7,51.11-5.22,2.1-11.78,2.7-17.34,1.76-18.06-3.05-33.89-10.43-44-26.88-1.68-2.73-3.7-5.26-5.7-7.78-4.55-5.71-10.02-9.81-17.58-10.85-4.56-.63-9.03-1.85-12.36-5.69-.64-.74-3.62-.7-4.3.07-3.06,3.46-7.06,4.92-11.25,5.41-9.27,1.09-15.38,6.57-20.57,13.62-.99,1.35-2.01,2.68-2.88,4.11-7.96,13.06-19.65,20.79-34.04,25.63-13.42,4.51-25.75,3.5-37.8-3.6-4.1-2.42-8.19-4.87-12.36-7.16-12.84-7.04-22.55-17.24-28.81-30.3-12.25-25.56-22.27-52.05-29.71-79.4-4.33-15.92-3.73-32.37-2.75-48.75,1.63-27.22,5.65-54,13.83-80.06,1.38-4.41,2.99-8.8,5.06-12.91,1.61-3.2.88-4.74-1.98-6.49-13.11-8-25.19-17.3-36.4-27.85-14.57-13.73-23.99-30.48-29.84-49.31-10.83-34.86-10.26-69.65,3.3-103.58,4.39-10.97,11.77-20.75,17.81-31.06.62-1.06,1.42-2.02,2.49-3.53-1.88-.54-3.18-.93-4.49-1.3-5.31-1.52-10.69-2.86-15.93-4.6-13.22-4.39-24.23-12.07-32.14-23.55-7.43-10.78-14.92-21.63-21.1-33.13-11.08-20.62-10.75-42.27-1.68-63.4,10.11-23.56,23.99-44.54,45.13-60.08,7.64-5.62,14.36-12.48,21.72-18.52,3.44-2.83,7.23-5.34,11.15-7.45,2.64-1.42,2.8-2.79,1.76-5.21-3.77-8.74-7.43-17.53-11.14-26.3-9.88-23.36-13.66-47.59-10.73-72.86,1.52-13.11,6.41-24.87,13.62-35.72,15.97-24.02,36.67-41.87,65.04-49.78,6.93-1.93,13.65-4.6,20.46-6.96C175.13.4,186.85-.43,198.78.37c13.84.93,23.31,8.84,31.84,18.9,8.73,10.29,14.85,21.57,16.29,35.13.37,3.48,2.07,3.57,4.76,2.17,7.64-3.96,15.81-6.95,24.36-6.58,9.44.41,18.78.56,28.24.02,8.51-.48,16.71,2.53,24.37,6.49,3.78,1.95,4.46,1.69,4.92-2.49,2.1-19.07,13.22-32.85,26.64-45.15,5.88-5.39,13.35-7.7,21.19-8.4,10.71-.96,21.43-.59,31.71,2.8,13.56,4.47,27.48,8.29,40.34,14.32,29.48,13.81,50.05,36.67,59.77,67.72,6.81,21.73,4.85,44.28-1.84,65.89-4.63,14.94-11.13,29.32-17.09,43.82-1.48,3.58-1.11,5.12,2.58,6.64,3.14,1.29,6,3.49,8.65,5.69,10.27,8.57,20.57,17.11,30.55,26.01,20.7,18.44,35.01,41.03,42.07,67.86,4.43,16.81,2.04,33.18-5.54,48.83-7.12,14.7-16.28,28.04-27.05,40.24-11.01,12.47-25.92,17.66-41.51,21.39-1.7.41-3.38.87-5.32,1.38ZM504.24,501.07h-.26c0-6.3.29-12.62-.05-18.91-1.05-18.96-7.77-36.14-17.41-52.21-5.16-8.61-12.05-10.57-21.44-6.93-3.84,1.49-7.69,2.99-11.35,4.84-2.13,1.07-4.38,2.5-5.74,4.38-4.22,5.82-8.17,11.86-11.95,17.98-1.3,2.1-2.5,4.65-5.05,3.34-1.54-.79-2.85-3.59-2.87-5.5-.09-8.38,2.8-15.85,7.98-22.47,7.32-9.35,16.74-16.04,27.45-20.74,12.36-5.42,25.05-10.07,37.49-15.32,23.35-9.86,39.83-26.92,50.8-49.51,2.78-5.73,4.62-11.83,3.34-18.3-.97-4.91-2.12-9.83-3.68-14.59-8.72-26.72-24.57-48.77-44.92-67.78-6.71-6.27-14.1-11.54-22.82-14.86-3.74-1.42-6.27-1.3-8,2.79-1.07,2.55-3.3,4.55-6.15,3.04-5.15-2.74-8.26-5.94-6.15-11.97,1.61-4.62,3.28-9.21,5.01-13.79,7.75-20.45,15.96-40.73,23.15-61.38,5.17-14.85,8.28-30.26,7.22-46.25-.69-10.38-4.3-19.26-10.94-27.4-16.27-19.94-37.79-30.82-61.94-37.69-12.39-3.53-24.83-5.35-37.73-3.9-7.36.82-13.72,3.42-18.73,8.87-7.74,8.43-12.22,18.32-12.95,29.83-.45,7.06-.78,14.14-1.62,21.16-.41,3.38-1.52,6.8-2.96,9.89-1.57,3.36-4.63,5.16-8.5,4.88-3.74-.27-6.15-2.47-7.46-5.84-.69-1.79-.76-3.84-1.58-5.54-1.24-2.58-2.42-5.47-4.43-7.35-5.68-5.3-12.69-8.2-20.28-9.72-13.15-2.63-26.34-2.75-39.42.22-4.58,1.04-9.1,2.83-13.31,4.94-6.15,3.07-11.36,7.22-11.71,15-.03.74-.37,1.5-.68,2.2-1.51,3.36-3.74,5.91-7.71,6.12-3.89.21-6.95-1.67-8.42-5.04-1.52-3.48-2.6-7.28-3.08-11.05-.81-6.37-1.19-12.81-1.4-19.24-.34-10.47-4.33-19.54-10.5-27.7-5.39-7.13-12.65-10.88-21.71-11.7-11.71-1.07-23.03.17-34.36,3.2-26.65,7.11-50.24,18.91-67.3,41.55-4.3,5.71-6.99,11.91-8.02,18.95-2.48,16.88.61,33.23,5.96,49,6.81,20.09,14.79,39.78,22.23,59.65,2.39,6.38,4.8,12.77,6.9,19.25,1.65,5.08-1.11,7.81-6.11,10.63-3.93,2.22-5.82-1.18-7.3-4.1-1.24-2.44-2.94-3.23-5.31-2-5.79,3-12.2,5.3-17.17,9.34-26.95,21.91-46.37,48.9-54.9,83.16-2.09,8.39-1.37,16.04,2.24,23.6,6.99,14.63,16.77,27.06,29.55,37.1,11.1,8.72,24.15,13.52,37.04,18.75,10.58,4.29,21.12,8.82,31.21,14.15,8.97,4.73,16.16,11.83,21.3,20.77,3.3,5.74,4.73,11.99,4.44,18.51-.07,1.51-1.65,3.62-3.05,4.18-.98.4-3.37-.99-4.2-2.2-4.07-5.92-7.72-12.13-11.77-18.07-1.26-1.85-3.06-3.67-5.04-4.61-5.68-2.71-11.54-5.03-17.41-7.32-1.22-.48-2.82-.39-4.16-.12-5.8,1.21-10.36,4.16-13.31,9.53-7.36,13.39-13.88,27.21-15.55,42.51-1.29,11.85-1.08,23.87-1.43,35.82-.84,28.49,10.48,52.8,28.53,73.47,16.78,19.21,36.78,35.2,59.88,46.77,4.93,2.47,9.65,5.97,14.88,7.16,16.18,3.66,25.58,15.06,33.8,27.95,3.55,5.57,4.31,11.93,1.81,18.16-.79,1.96-2.85,4.08-4.79,4.73-2.69.9-4.13-1.66-5.45-3.86-4.31-7.15-8.55-14.37-13.25-21.27-4.14-6.08-9.72-10.11-17.58-10.31-6.6-.17-12.54-2.53-17.89-6.44-1.86-1.36-3.98-2.36-5.94-3.6-2.45-1.54-3.82-.99-4.9,1.79-13.78,35.49-18.33,71.84-10.95,109.49,5.47,27.89,15.79,54.11,27.86,79.58,8.26,17.42,22.79,28.91,40.88,35.67,7.48,2.79,14.7,2.01,20.62-3.37,6.72-6.12,13.38-12.45,19.17-19.43,11.36-13.7,27.17-18.36,43.91-12.33,2.07.74,4.77.54,6.97-.04,17.44-4.57,32.73-2.31,42.85,11.35,4.93,6.66,11.14,12.42,17.09,18.26,8.44,8.27,18.06,8.7,28.44,3.71,18-8.64,31.51-21.64,39.27-40.18,4.62-11.04,8.97-22.19,13.21-33.38,8.55-22.54,13.61-45.81,14.76-69.95,1.25-26.2-4.26-51.14-13.01-75.57-2.84-7.93-2.87-8.13-10.02-3.39-6.09,4.04-12.28,7.68-19.81,7.81-8.32.13-14.08,4.47-18.39,11-4.53,6.86-8.58,14.04-13.15,20.88-1.12,1.67-3.55,3.61-5.2,3.47-1.69-.15-3.86-2.45-4.59-4.29-2.52-6.36-1.9-12.93,1.87-18.5,4.15-6.13,9-11.85,13.99-17.35,4.67-5.15,10.7-8.3,17.57-9.88,2.73-.62,5.45-1.62,7.93-2.91,18.41-9.59,36.15-20.16,51.44-34.47,8.64-8.08,18.06-15.42,24.57-25.48,13.42-20.76,23.47-42.65,21.6-68.29-.12-1.66-.02-3.34-.02-5.01Z" style="fill: #000; stroke-width: 0px;"/>
  <path d="M186.63,566.66c-.06-11.38,2.79-24.42,9.15-36.69,5.46-10.55,8.89-21.63,8.17-33.72-.62-10.37-4.12-19.55-10.86-27.49-3.94-4.64-4.51-8.83-1.65-11.66,3.13-3.1,7.95-2.58,12.26,1.9,10.24,10.65,14.43,23.82,15.06,38.26.61,13.89-3.47,26.66-9.86,38.82-7.29,13.88-9.65,28.69-7.8,44.16,1.24,10.37,4.93,19.96,10.63,28.71,1.39,2.14,3.11,4.11,4.94,5.9,3.78,3.71,3.92,3.62,7.54-.03,6.18-6.23,13.47-8.89,22.12-6.4,1.9.55,3.96,1.58,5.22,3.03,2.01,2.3,3.38,1.64,5.02-.12,2.2-2.35,4.18-4.99,6.71-6.89,1.46-1.1,4.44-1.92,5.62-1.15,1.21.79,1.87,3.94,1.32,5.57-1.11,3.37-3.06,6.49-4.91,9.57-1.22,2.02-1,3.56,1.09,4.36,6.71,2.56,13.12,6.53,20.88,4.71,1.71-.4,3.7-.48,5.37-.02,7.5,2.07,13.69-1.96,20.26-4.1,3.24-1.06,3.49-3.07,1.48-5.91-1.77-2.49-3.02-5.37-4.35-8.15-1.07-2.25-1.29-4.66,1.07-6.22,2.35-1.55,4.39-.41,6.14,1.43,2.39,2.52,4.7,5.13,7.3,7.42.68.6,2.73.66,3.42.09,7.38-6.11,17.65-6.09,25.46.27.99.81,1.91,1.72,2.82,2.64,3.46,3.51,3.78,3.71,7.26.05,10.93-11.46,15.5-25.62,16.23-41.07.65-13.62-2.22-26.57-8.68-38.7-8.04-15.09-11.56-31.05-8.33-48.1,1.8-9.49,5.41-18.26,11.71-25.71,1.64-1.93,3.61-3.72,5.74-5.07,3-1.89,6.2-1.78,8.81.93,2.53,2.63,2.14,5.6.53,8.55-.37.67-.84,1.3-1.34,1.88-13.13,15.17-14.55,32.39-8.51,50.69,1.89,5.71,4.95,11.02,7.19,16.63,11.01,27.59,9.36,54.4-5.86,79.99-2.89,4.86-6.99,9.37-11.46,12.85-11.48,8.95-24.34,10.45-37.79,4.65-2.63-1.14-4.26-.96-6.41,1.1-6.43,6.16-14.23,10.69-23.16,9.71-8.07-.89-15.72-1.08-23.83-.03-9.02,1.17-16.94-3.52-23.47-9.82-1.83-1.76-3.29-2.26-5.74-1.22-17.17,7.31-34.29,2.92-46-11.62-10.53-13.08-16.76-32.5-16.53-53.95Z" style="fill: #000; stroke-width: 0px;"/>
  <path d="M250.94,367.45c1.1-23.91-9.42-43.39-23.71-61.22-7.07-8.83-16.73-14.17-27.95-15.8-13.1-1.91-26.29-3.13-39.44-4.67-6.51-.77-13.07-1.23-19.49-2.49-8.7-1.71-15.91-6.41-22.02-12.79-1.65-1.72-2.54-3.7-.93-5.87,1.61-2.17,3.86-2.08,5.85-.74,17.2,11.58,36.97,12.42,56.64,13.7,4.75.31,9.51.39,14.26.62,9.74.46,18.86,3.16,26.8,8.77,20.56,14.53,36.59,33.21,42.7,57.76,6.62,26.57,1.67,52.38-12.47,76.09-1.49,2.5-3.58,4.74-5.74,6.71-7.87,7.15-18.08,7.31-26.34.59-5.25-4.27-8.44-9.97-10.99-16.08-3.36-8.07-6.64-16.18-9.98-24.26-3.34-8.07-8.97-14.08-15.81-19.51-7.29-5.79-14.16-12.3-20.33-19.27-5.87-6.63-6.22-14.44-2.09-22.63,10.41-20.64,37.55-25.97,54.7-10.47,19.06,17.23,25.13,48.13,12.74,69.95-2.72,4.8-5.84,9.37-8.67,14.11-.61,1.02-1.34,2.56-.99,3.47,1.85,4.76,3.38,9.84,6.22,13.98,4.8,6.99,11.61,6.41,15.36-1.26,5.33-10.88,9.47-22.27,10.78-34.44.51-4.72.59-9.49.87-14.24ZM212.09,383.76c1.04-1.59,1.85-2.58,2.39-3.7,10.35-21.66,6.11-40.56-12.5-54.73-4.94-3.76-10.83-4.35-16.08-1.61-5.24,2.73-9.78,6.83-14.53,10.47-2.4,1.84-2.48,4-.12,6.1.86.77,1.62,1.65,2.41,2.5,1.34,1.44,2.37,1.27,3.83-.12,6.87-6.56,15.62-6.66,22.75-.12,6.85,6.3,11.28,14.1,12.11,23.45.28,3.14-.47,6.69-1.81,9.57-1.48,3.17-.75,5.27,1.55,8.19Z" style="fill: #000; stroke-width: 0px;"/>
  <path d="M314.14,363.94c-1.07-12.28,3.11-25.99,10.59-38.87,7.64-13.15,17.21-24.66,29.06-34.22,9.93-8.01,21.26-12.2,34.06-12.84,12.2-.61,24.39-1.47,36.54-2.68,11.27-1.12,21.89-4.51,31.45-10.82,2.24-1.48,4.8-2.66,6.9-.02,2.08,2.62.39,4.78-1.53,6.72-6.14,6.18-13.31,10.78-21.92,12.18-8.86,1.44-17.88,1.92-26.81,2.95-9.84,1.13-19.68,2.25-29.48,3.66-14.55,2.1-26.19,9.37-34.18,21.59-5.32,8.14-10.29,16.7-14.04,25.66-7.76,18.54-6.51,37.78-1.97,56.86,1.48,6.22,4,12.22,6.35,18.2,1.02,2.58,2.53,5.09,4.32,7.22,2.71,3.22,6.29,3.56,9.65,1.08,6-4.42,8.01-11.13,9.6-17.95.19-.8-.54-1.92-1.06-2.76-2.69-4.38-5.56-8.64-8.16-13.07-12.98-22.13-7.04-52.47,11.13-69.92,19.16-18.4,50.48-10.23,58.02,15.26,1.58,5.34.41,10.87-3.04,14.98-5.42,6.46-10.91,13.29-17.73,18.03-11.47,7.97-18.8,18.34-23.48,31.13-2.34,6.4-4.71,12.84-7.83,18.88-2.32,4.49-5.33,8.91-8.98,12.36-8.09,7.64-18.94,7.25-27.14-.31-6.85-6.31-10.23-14.71-13.54-23.1-4.74-12.01-6.28-24.63-6.8-40.21ZM368.09,384.4c2.39-3.65,3.45-5.87,1.55-9.12-1.28-2.18-1.87-5.15-1.73-7.71.58-10.58,5.38-19.27,13.45-25.94,6.97-5.76,15.04-5.21,21.49,1.03,1.47,1.43,2.49,1.55,3.82.11,1.04-1.14,2.43-2.11,3.05-3.43.53-1.12.78-3.12.14-3.93-4.28-5.41-9.33-9.96-16.08-12.12-5.9-1.89-11.36-1.18-16.39,2.7-15.09,11.66-20.54,28.47-14.74,46.68,1.2,3.78,3.34,7.27,5.45,11.72Z" style="fill: #000; stroke-width: 0px;"/>
  <path d="M314.21,758.4c-6.21-.96-12.39-2.1-18.63-2.81-3.51-.4-7.25-.76-10.63,0-15.09,3.42-29.8,3.11-44.31-2.69-5-2-10.25-3.37-15.34-5.16-4.87-1.72-6.52-4.16-6.51-9.24.04-13.04,4.32-23.71,16.85-29.62,6.74-3.18,13.97-3.56,20.66-.84,8.99,3.66,17.84,3.65,27.18,2.31,5.48-.78,11.28-.42,16.79.38,7.57,1.1,14.62.61,21.89-2.09,11.66-4.33,22.55-2.68,31.56,6.63,7.02,7.25,8.21,16.4,7.62,25.8-.13,2.04-2.46,5.04-4.42,5.7-13.93,4.69-27.36,11.53-42.72,11.63ZM289.81,738.43c6.06.69,12.18,1.24,18.25,2.1,7.3,1.03,14.12.03,20.2-4.31,2.75-1.97,4.09-4.71,2.71-8.07-1.4-3.41-4.31-4.11-7.65-3.7-.63.08-1.28.21-1.87.43-6.71,2.49-13.6,2.01-20.56,1.64-6.78-.37-13.62-.5-20.39-.1-7.48.45-14.82.84-22.1-1.61-4.14-1.39-7.56.08-8.94,3.13-1.45,3.19.02,6.73,3.77,9.06,6.09,3.79,12.68,4.51,19.66,3.44,5.56-.85,11.17-1.34,16.93-2.01Z" style="fill: #000; stroke-width: 0px;"/>
  <path d="M540.18,312.64c.2,8.84-1.8,14.4-5.1,19.37-.88,1.33-3.46,2.44-5.03,2.19-2.54-.42-3.08-2.97-2.34-5.26,4.12-12.61.02-23.42-7.12-33.63-3.53-5.05-3.45-9.22.03-11.53,3.47-2.31,7.82-.93,10.94,4,5.31,8.39,8.15,17.65,8.61,24.87Z" style="fill: #000; stroke-width: 0px;"/>
  <path d="M39.72,317.9c.93-12.46,3.73-21.82,9.19-30.32.82-1.27,1.9-2.48,3.1-3.37,2.48-1.84,5.26-2.16,7.86-.29,2.5,1.79,3.05,4.43,2.06,7.22-.59,1.66-1.57,3.22-2.58,4.69-6.91,10.04-10.83,20.65-6.85,32.96.73,2.27.33,4.91-2.19,5.33-1.63.27-4.58-.96-5.22-2.32-2.42-5.13-4.14-10.58-5.38-13.9Z" style="fill: #000; stroke-width: 0px;"/>
  <path d="M369.82,184.68c-.75,3.27-1.42,7.49-2.7,11.52-3.43,10.78-7.11,21.48-10.74,32.2-.88,2.59-2.3,4.98-5.52,4.12-3.28-.88-3.18-3.7-2.59-6.34,3.17-14.32,6.35-28.64,9.65-42.93.96-4.18,3.76-6.42,6.91-5.88,3.53.61,4.79,3.1,4.99,7.31Z" style="fill: #000; stroke-width: 0px;"/>
  <path d="M232.46,229.05c-.71.88-1.62,3.03-2.84,3.23-1.48.24-3.27-1.09-4.83-1.92-.46-.24-.65-1.09-.84-1.69-4.3-13.73-8.74-27.42-12.79-41.23-1.62-5.53.04-9.03,3.65-9.97,3.76-.98,6.69,1.65,7.99,7.38,2.95,13.05,5.84,26.11,8.74,39.17.31,1.38.52,2.78.93,5.04Z" style="fill: #000; stroke-width: 0px;"/>
  <path d="M181.53,156.05c3.38.19,5.21,2.75,6.15,6.02,2.63,9.14,5.16,18.32,7.65,27.5.98,3.6,1.81,7.24,2.59,10.88.52,2.45.25,5.19-2.58,5.5-1.63.18-4.51-1.31-5.08-2.74-5.11-12.76-10-25.61-14.57-38.58-1.66-4.72,1.2-8.65,5.84-8.59Z" style="fill: #000; stroke-width: 0px;"/>
  <path d="M405.06,162.75c-.18.88-.25,1.8-.56,2.63-4.71,12.5-9.42,25.01-14.21,37.48-.9,2.36-2.62,4.08-5.34,3.27-2.99-.89-3.25-3.44-2.57-6.01,3.31-12.56,6.7-25.09,10.1-37.63.3-1.1.78-2.2,1.38-3.17,1.65-2.73,4.33-4.31,7.14-2.87,2.04,1.04,3.28,3.64,4.88,5.55-.27.25-.54.49-.82.74Z" style="fill: #000; stroke-width: 0px;"/>
  <path d="M309.45,320.19c.25-1.34.29-1.99.5-2.59,1.98-5.84,3.34-12.01,6.17-17.4,2.55-4.86,6.32-9.29,10.33-13.1,3.29-3.12,8.06-2.21,10.29.8,2.16,2.91,1.64,7.17-1.9,9.93-7.19,5.59-12.43,12.54-16.03,20.84-.6,1.38-1.48,2.89-2.67,3.69-1.11.74-3,1.16-4.18.73-1.16-.43-1.87-2.1-2.51-2.89Z" style="fill: #000; stroke-width: 0px;"/>
  <path d="M271.1,319.6c-.97,1.24-1.72,3.1-2.95,3.5-1.25.41-3.48-.13-4.39-1.09-1.62-1.73-2.8-3.99-3.77-6.2-2.96-6.75-7.44-12.24-13.16-16.8-.9-.72-1.82-1.47-2.53-2.36-2.09-2.63-2.91-5.52-.8-8.48,2.18-3.06,5.3-3.63,8.54-2.11,2.04.96,3.95,2.41,5.58,3.98,8.22,7.97,9.24,19.19,13.47,29.56Z" style="fill: #000; stroke-width: 0px;"/>
  <path d="M155.45,55.52c-5.75,1.18-11.52,2.26-17.24,3.58-2.51.58-4.95,1.21-6.49-1.45-1.52-2.64.04-4.63,1.98-6.34,6.42-5.68,13.56-9.83,22.45-9.49,2.61.1,5.35.8,7.74,1.86,2.91,1.3,4.44,3.91,3.8,7.26-.66,3.4-3.17,4.86-6.34,5.21-1.9.21-3.84.04-5.77.04l-.14-.67Z" style="fill: #000; stroke-width: 0px;"/>
  <path d="M425.11,41.3c9.13.74,16.37,4.91,22.45,11.18,1.03,1.06,1.47,3.91.77,5.1-.7,1.18-3.48,2.2-4.83,1.76-7.83-2.58-15.81-3.29-23.97-3.17-3.57.05-6.29-1.81-6.96-5.47-.65-3.53,1.36-6.05,4.43-7.31,2.56-1.05,5.4-1.42,8.12-2.09Z" style="fill: #000; stroke-width: 0px;"/>
  <path d="M494.43,476.54c0,2.05.46,4.26-.14,6.12-.54,1.67-2.02,3.83-3.5,4.23-2.53.69-3.82-1.57-4.23-3.91-.78-4.42-.96-9.02-2.28-13.26-1.5-4.83-3.79-9.44-6.09-13.97-1.66-3.27-1.7-6.44.63-8.43,2.43-2.08,6.19-1.81,8.64.96,1.33,1.5,2.6,3.35,3.08,5.25,1.88,7.55,3.44,15.19,5.12,22.79-.41.08-.82.15-1.24.23Z" style="fill: #000; stroke-width: 0px;"/>
  <path d="M84.58,476.01c1.73-7.59,3.27-15.24,5.31-22.75.59-2.18,2.36-4.29,4.09-5.86,2.19-2,4.98-2.08,7.4-.09,2.45,2.02,2.91,4.96,1.19,7.29-6.18,8.35-7.57,18.09-8.84,27.93-.32,2.48-1.31,4.7-4.25,4.49-2.89-.2-3.64-2.5-3.72-5-.07-1.92-.01-3.85-.01-5.78-.39-.08-.77-.16-1.16-.23Z" style="fill: #000; stroke-width: 0px;"/>
  <path d="M283.58,375.07c0,2.7.09,5.4-.03,8.09-.11,2.35-.95,4.46-3.68,4.61-2.77.15-3.63-1.88-4.05-4.23-1.72-9.85-3.48-19.7-5.23-29.55-.13-.76-.35-1.51-.41-2.27-.3-3.58,1.43-6.27,4.3-6.77,2.8-.49,5.73,1.45,6.33,4.91,1.15,6.57,1.95,13.2,2.78,19.83.22,1.77.03,3.59.03,5.39-.02,0-.03,0-.05,0Z" style="fill: #000; stroke-width: 0px;"/>
  <path d="M295.86,375.26c1.14-8.25,2.16-16.52,3.46-24.75.63-3.97,3.51-6.13,6.59-5.52,3.04.6,4.72,3.63,4.04,7.64-.82,4.81-1.83,9.58-2.69,14.38-.98,5.42-1.92,10.84-2.82,16.28-.38,2.32-1.06,4.44-3.82,4.49-2.76.05-3.75-2-3.9-4.36-.17-2.68-.04-5.39-.04-8.08-.27-.03-.54-.06-.82-.09Z" style="fill: #000; stroke-width: 0px;"/>
  <path d="M391.72,837.17c.54-1.36.81-2.36,1.3-3.24,3.27-5.95,6.56-11.9,9.91-17.8.69-1.21,1.44-2.85,2.54-3.26,2.23-.83,5.2-1.95,6.99-1.1,1.77.84,3.25,3.9,3.41,6.09.16,2.18-.94,4.96-2.42,6.67-4.59,5.3-9.5,10.34-14.58,15.18-.97.93-3.37.93-4.89.53-.98-.26-1.56-2.04-2.26-3.06Z" style="fill: #000; stroke-width: 0px;"/>
  <path d="M188.15,836.49c.14,3.64-3.29,5.82-6.12,3.69-7.01-5.28-13.6-11.08-17.13-19.44-1.56-3.69-.53-7.22,2.26-8.92,2.79-1.71,6.85-1.03,8.82,2.23,4.18,6.92,7.94,14.1,11.85,21.19.24.43.26.99.32,1.25Z" style="fill: #000; stroke-width: 0px;"/>
  <path d="M365.91,856.48c-1.92,0-3.99.45-5.72-.12-1.81-.59-3.29-2.16-4.92-3.31,1.2-1.6,2.09-3.74,3.69-4.67,2.15-1.26,4.83-1.6,7.29-2.3,4.67-1.34,9.34-2.66,14.01-3.98,3.12-.88,5.92-.61,7.63,2.56,1.41,2.62.17,5.84-3.03,7.79-5.83,3.56-12.39,3.81-18.95,4.03Z" style="fill: #000; stroke-width: 0px;"/>
  <path d="M214.18,857.24c-5.59-1.25-11.19-2.44-16.74-3.81-1.19-.29-2.33-1.13-3.27-1.96-2.11-1.88-2.96-4.29-1.67-6.94,1.33-2.73,3.89-3.36,6.58-2.63,7.3,1.97,14.56,4.12,21.83,6.24,2.4.7,4.41,2.05,4.02,4.85-.43,3.08-2.92,3.54-5.55,3.52-1.67-.02-3.34,0-5.01,0-.06.25-.12.5-.19.74Z" style="fill: #000; stroke-width: 0px;"/>
  <path d="M344.71,769.31c-2.54-.34-5.24-.26-7.56-1.17-1.61-.63-3.5-2.49-3.76-4.05-.22-1.31,1.39-3.85,2.75-4.36,5.86-2.22,11.86-4.15,17.94-5.67,3.82-.96,7.06,1.17,8.02,4.31.94,3.06-.67,6.7-4.31,8.02-4.16,1.51-8.57,2.33-12.87,3.45-.07-.18-.14-.35-.21-.53Z" style="fill: #000; stroke-width: 0px;"/>
  <path d="M233.96,769.51c-3.08-.81-7.36-1.6-11.38-3.11-3.71-1.39-5.19-4.78-4.32-8.02.84-3.11,4.1-5.29,7.95-4.34,6.07,1.51,12.05,3.45,17.9,5.67,1.37.52,3.02,3.03,2.81,4.34-.26,1.57-2.13,3.47-3.74,4.08-2.44.92-5.26.85-9.22,1.38Z" style="fill: #000; stroke-width: 0px;"/>
  <path d="M95.36,90.33c1.05-8.71,3.72-15.26,9.41-20.29,3.67-3.24,7.94-3.5,10.35-.8,2.39,2.68,1.5,6.18-1.72,9.89-3.44,3.96-6.22,8.48-9.66,12.44-1.22,1.4-3.72,2.8-5.28,2.48-1.46-.3-2.45-2.88-3.1-3.72Z" style="fill: #000; stroke-width: 0px;"/>
  <path d="M484.91,90.61c-.68.83-1.68,3.17-3.12,3.48-1.51.32-3.95-.87-5.08-2.18-3.91-4.55-7.41-9.46-11.11-14.2-2.27-2.9-2.53-6.25-.38-8.42,2.59-2.61,5.64-2.52,8.44-.59,7.22,4.96,10.14,12.33,11.24,21.91Z" style="fill: #000; stroke-width: 0px;"/>
  <path d="M357.39,695.81c.11,5.99-4.08,9.07-8.58,7.38-5.65-2.12-11.19-4.58-16.58-7.27-1.29-.64-2.71-2.93-2.5-4.2.25-1.49,2.02-3.54,3.47-3.88,7.13-1.67,14.16-1.03,20.33,3.25,1.92,1.33,3.1,3.75,3.87,4.72Z" style="fill: #000; stroke-width: 0px;"/>
  <path d="M241.69,686.97c1.3.18,3.62.1,5.55.92,1.42.6,3.09,2.3,3.25,3.67.16,1.36-1.08,3.65-2.33,4.28-5.37,2.72-10.9,5.14-16.51,7.33-2.97,1.16-6,.54-7.81-2.39-1.88-3.03-1.18-6.02,1.32-8.38,4.37-4.14,9.89-5.16,16.54-5.43Z" style="fill: #000; stroke-width: 0px;"/>
  <path d="M523.68,355.83c-1.36,2.14-2.2,4.23-3.69,5.64-5.75,5.47-13.04,8.11-20.53,10.03-1.35.35-4.05-.92-4.6-2.13-.55-1.22.26-3.97,1.4-4.9,5.58-4.51,11.35-8.84,17.36-12.77,1.62-1.06,4.5-1.07,6.44-.45,1.42.46,2.26,2.74,3.62,4.58Z" style="fill: #000; stroke-width: 0px;"/>
  <path d="M63.99,350.39c.74.37,2.34.9,3.65,1.84,5.09,3.66,10.07,7.48,15.13,11.18,2.08,1.52,4.06,3.18,2.81,5.99-1.36,3.05-4.19,2.85-6.61,1.72-6.11-2.85-12.22-5.76-18.03-9.17-1.68-.98-2.91-3.6-3.32-5.68-.66-3.29,2.17-5.97,6.37-5.88Z" style="fill: #000; stroke-width: 0px;"/>
  <path d="M263.1,231.17c-.9,1.06-1.89,3.3-3.51,3.91-2.64,1.01-4.27-1.1-4.99-3.52-2.01-6.77-4.06-13.55-5.82-20.39-1.09-4.25.82-7.65,4.15-8.26,3.16-.58,6.17,1.72,6.86,5.8,1.21,7.09,2.12,14.23,3.31,22.45Z" style="fill: #000; stroke-width: 0px;"/>
  <path d="M332.29,209.45c-2.42,7.85-4.69,15.75-7.4,23.5-.4,1.13-3.03,2.38-4.27,2.08-1.27-.31-3.1-2.55-2.97-3.76.87-8.16,1.97-16.32,3.48-24.38.53-2.82,3.1-4.54,6.23-3.9,3.28.67,4.47,3.15,4.93,6.46Z" style="fill: #000; stroke-width: 0px;"/>
  <path d="M235.12,520.45c-.7,1.73-1.18,2.91-1.66,4.08-2.45,5.91-4.98,11.79-7.31,17.74-1.31,3.34-3.77,5.17-6.64,4.5-2.8-.65-4.68-3.57-4-6.96,1.72-8.6,6.3-15.69,12.47-21.72.94-.92,3.18-1.19,4.52-.78,1.12.34,1.82,2.1,2.63,3.14Z" style="fill: #000; stroke-width: 0px;"/>
  <path d="M364.92,540.19c-.15,3.48-1.17,5.93-4.33,6.57-3.17.65-5.07-1.21-6.23-3.95-2.74-6.48-5.63-12.91-8.07-19.5-.59-1.59-.2-4.1.75-5.5.53-.78,3.79-.87,4.71-.04,6.84,6.17,11.39,13.79,13.15,22.43Z" style="fill: #000; stroke-width: 0px;"/>
  <path d="M435.17,677.72c-.23,2.1-.02,3.95-.71,5.34-.64,1.28-2.23,2.8-3.47,2.86-1.24.06-2.7-1.41-3.81-2.48-.56-.54-.66-1.66-.76-2.54-.4-3.37-1.58-5.32-5.63-4.82-2.73.33-4.97-1.37-5.47-4.36-.48-2.9.93-4.95,3.44-6.27,5.87-3.07,13.38-.08,15.38,6.25.65,2.05.75,4.26,1.04,6.01Z" style="fill: #000; stroke-width: 0px;"/>
  <path d="M145.24,679.07c-.05-10.18,5.02-15.65,12.85-14.64,4.43.57,7.18,3.28,6.93,6.8-.23,3.28-2.57,4.7-7.36,5.04-1.13.08-2.48,1.28-3.15,2.33-.72,1.13-.39,2.97-1.18,3.99-1.12,1.44-2.8,3.23-4.33,3.31-1.1.06-2.6-2.26-3.44-3.79-.56-1.02-.28-2.51-.31-3.05Z" style="fill: #000; stroke-width: 0px;"/>
  <path d="M353.41,489.4c.14,2.57.48,5.15.35,7.7-.16,3.1-1.64,5.44-5.02,5.88-3.01.39-6.24-1.69-6.1-5.05.27-6.47,1.35-12.94,2.56-19.31.2-1.07,2.86-2.52,4.15-2.32,1.31.21,3.04,2.09,3.34,3.51.67,3.11.55,6.38.75,9.59,0,0-.02,0-.02,0Z" style="fill: #000; stroke-width: 0px;"/>
  <path d="M226.85,488.99c.17-2.95-.07-6.01.68-8.81.43-1.6,2.3-3.6,3.8-3.88,1.18-.22,3.76,1.71,4.06,3.06,1.23,5.61,2.2,11.34,2.56,17.07.25,4.03-2.72,6.72-6.01,6.6-3.37-.12-5.48-2.82-5.41-7.11.04-2.31.28-4.62.43-6.93-.03,0-.06,0-.09,0Z" style="fill: #000; stroke-width: 0px;"/>
  <path d="M266.24,405.66c3.27.03,5.68,2.6,5.35,6-.21,2.12-.92,4.29-1.87,6.2-2.28,4.6-4.8,9.08-7.3,13.56-1.16,2.09-2.95,3.53-5.38,2.37-2.67-1.28-2.23-3.58-1.43-5.99,1.88-5.69,3.62-11.42,5.33-17.17.85-2.86,2.41-4.78,5.31-4.98Z" style="fill: #000; stroke-width: 0px;"/>
  <path d="M314.13,405.67c3.01.31,4.48,2.41,5.32,5.41,1.55,5.51,3.24,10.99,5.04,16.42.83,2.49,1.56,4.96-1.35,6.3-2.63,1.21-4.38-.53-5.53-2.76-2.88-5.57-6.02-11.04-8.44-16.81-1.85-4.41.77-8.57,4.96-8.57Z" style="fill: #000; stroke-width: 0px;"/>
  <path d="M428.16,711.03c-.06-1.15-.27-3.46-.28-5.77-.02-3.73,2.16-6.47,5.12-6.63,3.07-.16,5.99,2.67,5.63,6.47-.52,5.46-1.48,10.92-2.91,16.21-.4,1.5-3.07,2.39-4.7,3.55-1.11-1.66-2.84-3.2-3.18-5-.47-2.45.12-5.1.32-8.83Z" style="fill: #000; stroke-width: 0px;"/>
  <path d="M414.55,163.14c1.31-6.28,2.21-11.62,3.57-16.83.99-3.81,4.21-5.57,7.26-4.56,2.87.96,4.36,4.05,3.14,7.69-1.68,4.99-3.53,9.96-5.83,14.68-.69,1.41-3.25,2.84-4.73,2.64-1.38-.19-2.47-2.54-3.4-3.62Z" style="fill: #000; stroke-width: 0px;"/>
  <path d="M165.75,163.29c-.97,1.08-1.99,3.23-3.35,3.47-1.42.25-4.03-.92-4.62-2.18-2.39-5.11-4.4-10.42-6.16-15.79-1.07-3.27.75-6.33,3.58-7.12,2.8-.79,5.92.82,6.81,4.19,1.44,5.46,2.4,11.04,3.74,17.43Z" style="fill: #000; stroke-width: 0px;"/>
  <path d="M152.52,712.76c0,2.44.39,4.96-.13,7.28-.39,1.73-1.72,4.19-3.05,4.49-1.34.3-4.31-1.39-4.62-2.68-1.39-5.81-2.42-11.76-2.9-17.72-.24-3,1.83-5.37,5.28-5.45,2.93-.07,5.13,2.5,5.26,6,.05,1.41-.14,2.82-.18,4.23-.03,1.28,0,2.57,0,3.85h.34Z" style="fill: #000; stroke-width: 0px;"/>
  <path d="M200.52,55.25c.09,4.82-3.68,8.8-8.33,8.81-4.4.01-8-3.85-8.06-8.65-.06-4.79,3.43-8.49,8.06-8.54,4.52-.05,8.24,3.7,8.32,8.37Z" style="fill: #000; stroke-width: 0px;"/>
  <path d="M388.12,64.06c-4.45,0-8.19-3.81-8.3-8.46-.11-4.73,3.79-8.79,8.4-8.74,4.36.05,7.99,3.75,8.06,8.22.08,4.9-3.62,8.97-8.16,8.98Z" style="fill: #000; stroke-width: 0px;"/>
  <path d="M94.87,513.58c-.1,2.31.24,4.77-.46,6.89-.54,1.63-2.2,3.65-3.69,3.97-1.17.25-3.75-1.58-4.12-2.93-1.26-4.55-2.16-9.26-2.52-13.97-.3-3.92,2.38-6.47,5.65-6.41,3.12.06,5.27,2.46,5.47,6.28.11,2.05.02,4.11.02,6.16-.12,0-.23,0-.35,0Z" style="fill: #000; stroke-width: 0px;"/>
  <path d="M485.16,513.29c0-2.18-.18-4.38.04-6.54.36-3.61,2.61-5.75,5.67-5.6,3.46.17,5.49,2.46,5.24,5.51-.41,5.2-1.44,10.39-2.74,15.45-.29,1.13-2.86,2.52-4.16,2.33-1.3-.19-2.97-2.05-3.34-3.48-.63-2.43-.38-5.1-.5-7.67-.07,0-.15,0-.22,0Z" style="fill: #000; stroke-width: 0px;"/>
  <path d="M496.82,268.33c.17-4.52,3.86-7.95,8.34-7.75,4.63.21,8.25,4.1,8.02,8.6-.23,4.44-4.01,7.97-8.38,7.82-4.51-.16-8.14-4.11-7.97-8.67Z" style="fill: #000; stroke-width: 0px;"/>
  <path d="M75.24,276.99c-4.37-.02-8.09-3.77-8.07-8.15.01-4.56,3.81-8.3,8.39-8.27,4.47.03,8.11,3.68,8.07,8.09-.04,4.52-3.89,8.35-8.38,8.32Z" style="fill: #000; stroke-width: 0px;"/>
  <path d="M97.68,112.99c3.12.31,4.64,2.5,5.14,5.54.64,3.9,1.48,7.82,1.54,11.75.03,1.76-1.22,4.29-2.65,5.06-.98.53-4.14-.94-4.81-2.28-2.04-4.07-3.74-8.41-4.82-12.83-.98-4.01,1.85-7.32,5.59-7.24Z" style="fill: #000; stroke-width: 0px;"/>
  <path d="M392.88,90.13c-.08,4.54-3.65,8.11-8.05,8.05-4.5-.06-8.14-3.76-7.97-8.11.17-4.52,4.04-8.38,8.4-8.39,4.22,0,7.7,3.86,7.62,8.45Z" style="fill: #000; stroke-width: 0px;"/>
  <path d="M489.05,120.07c-1.97,4.54-3.71,9.2-6.07,13.52-.64,1.17-3.51,2.15-4.76,1.67-1.25-.48-2.5-2.94-2.43-4.47.2-4.19,1.03-8.35,1.75-12.5.6-3.49,3.08-5.57,5.98-5.27,3.02.31,5.01,3.1,5.52,7.06Z" style="fill: #000; stroke-width: 0px;"/>
  <path d="M203.47,90.28c-.03,4.45-3.7,7.98-8.17,7.87-4.42-.11-7.87-3.75-7.83-8.27.04-4.4,3.45-8.13,7.5-8.2,4.52-.08,8.54,3.98,8.51,8.6Z" style="fill: #000; stroke-width: 0px;"/>
  <path d="M277.02,697.8c-.06,4.43-3.74,7.96-8.27,7.93-4.47-.03-8.06-3.42-8.09-7.64-.03-4.49,3.87-8.21,8.52-8.13,4.46.08,7.89,3.52,7.83,7.85Z" style="fill: #000; stroke-width: 0px;"/>
  <path d="M438.96,240.42c4.49.09,8.35,3.97,8.32,8.37-.03,4.28-3.59,7.64-8,7.57-4.51-.08-8.15-3.96-8.02-8.55.12-4.26,3.46-7.47,7.7-7.39Z" style="fill: #000; stroke-width: 0px;"/>
  <path d="M311.43,705.73c-4.55-.08-8.17-3.7-8.11-8.1.06-4.32,3.57-7.69,8.01-7.69,4.65,0,8.42,3.78,8.29,8.31-.13,4.29-3.7,7.55-8.19,7.47Z" style="fill: #000; stroke-width: 0px;"/>
  <path d="M149.18,247.93c.07,4.43-3.83,8.43-8.22,8.44-4.29,0-7.68-3.17-7.82-7.32-.15-4.62,3.8-8.69,8.4-8.66,4.16.03,7.58,3.4,7.64,7.53Z" style="fill: #000; stroke-width: 0px;"/>
  <path d="M200.19,726.55c.32-1.49.45-3.19,1.06-4.7,1.33-3.26,4.62-4.99,7.8-4.16,3.47.91,5.09,3.51,5.02,6.89-.09,4.38-2.39,7.86-5.77,10.42-2.62,1.98-5.98.69-7.09-2.59-.6-1.79-.67-3.77-1.02-5.86Z" style="fill: #000; stroke-width: 0px;"/>
  <path d="M97.08,256.6c-4.28-.09-7.48-3.39-7.44-7.67.04-4.39,3.78-8.16,8.08-8.16,4.33,0,7.74,3.54,7.65,7.95-.09,4.41-3.83,7.96-8.28,7.87Z" style="fill: #000; stroke-width: 0px;"/>
  <path d="M379.11,254.02c4.57.09,8.16,3.66,8.06,8.03-.09,4.22-3.77,7.64-8.1,7.53-4.41-.11-7.99-3.92-7.8-8.3.19-4.27,3.49-7.34,7.83-7.25Z" style="fill: #000; stroke-width: 0px;"/>
  <path d="M483.03,256.61c-4.51-.03-7.95-3.56-7.94-8.12.01-4.41,3.1-7.58,7.43-7.63,4.57-.05,8.34,3.77,8.21,8.33-.12,4.26-3.43,7.45-7.7,7.42Z" style="fill: #000; stroke-width: 0px;"/>
  <path d="M201.68,253.92c4.16.06,7.43,3.5,7.38,7.75-.05,4.42-3.79,8.03-8.19,7.91-4.32-.12-7.83-3.75-7.71-7.96.13-4.2,4.07-7.77,8.52-7.7Z" style="fill: #000; stroke-width: 0px;"/>
  <path d="M380.03,725.6c-.14,6.64-1.62,9.57-4.65,10.14-2.89.54-5.84-1.8-7.99-6.63-.61-1.37-.98-2.94-1.04-4.43-.14-3.67,2.03-6.44,5.23-7.06,3.18-.61,6.35,1.15,7.64,4.46.55,1.4.69,2.96.81,3.52Z" style="fill: #000; stroke-width: 0px;"/>
  <path d="M235.44,273.38c-.04,4.37-3.25,7.4-7.69,7.26-4.42-.14-7.77-3.59-7.71-7.94.05-4.16,3.5-7.6,7.63-7.6,4.45,0,7.82,3.59,7.77,8.28Z" style="fill: #000; stroke-width: 0px;"/>
  <path d="M360.31,272.99c-.1,4.35-3.58,7.67-8.01,7.66-4.39-.02-7.59-3.26-7.47-7.55.14-4.64,3.73-8.16,8.13-7.98,4.17.17,7.44,3.67,7.34,7.87Z" style="fill: #000; stroke-width: 0px;"/>
  <path d="M171.54,246.93c4.41-.04,8.12,3.61,8.18,8.05.05,4.21-2.99,7.31-7.23,7.38-4.59.08-8.17-3.38-8.18-7.91,0-4.08,3.27-7.48,7.23-7.52Z" style="fill: #000; stroke-width: 0px;"/>
  <path d="M408.61,246.94c4.2-.03,7.47,3.38,7.4,7.71-.07,4.35-3.53,7.7-7.96,7.71-4.19,0-7.41-3.1-7.46-7.19-.06-4.32,3.73-8.19,8.03-8.22Z" style="fill: #000; stroke-width: 0px;"/>
  <path d="M307.62,779.76c-4.08.11-7.69-3.28-7.89-7.4-.21-4.21,3-7.71,7.24-7.91,4.33-.2,7.98,3.19,8.11,7.53.12,4.09-3.3,7.67-7.46,7.78Z" style="fill: #000; stroke-width: 0px;"/>
  <path d="M280.65,771.99c0,4.24-3.72,7.88-7.94,7.77-4.18-.11-7.47-3.58-7.4-7.8.08-4.19,3.46-7.49,7.69-7.5,4.21,0,7.64,3.37,7.64,7.53Z" style="fill: #000; stroke-width: 0px;"/>
  <path d="M355.95,584.19c3.55.05,6.44,3.14,6.4,6.84-.04,4.31-3.39,7.88-7.37,7.85-3.64-.03-6.35-2.94-6.36-6.8,0-4.27,3.41-7.94,7.33-7.89Z" style="fill: #000; stroke-width: 0px;"/>
  <path d="M225.29,598.88c-3.98.04-7.28-3.54-7.28-7.88,0-3.8,2.79-6.73,6.42-6.77,3.9-.05,7.35,3.68,7.32,7.9-.03,3.76-2.86,6.72-6.46,6.76Z" style="fill: #000; stroke-width: 0px;"/>
  <path d="M190.82,688.16c3.86-.1,7.16,3.06,7.23,6.91.07,3.66-2.8,6.75-6.34,6.83-3.59.08-7.14-3.35-7.29-7.04-.15-3.63,2.71-6.62,6.39-6.71Z" style="fill: #000; stroke-width: 0px;"/>
  <path d="M137.89,472.2c.08,3.79-2.86,6.86-6.67,6.95-3.78.09-6.92-2.89-7-6.63-.08-3.81,2.87-6.85,6.69-6.91,3.89-.07,6.9,2.78,6.98,6.6Z" style="fill: #000; stroke-width: 0px;"/>
  <path d="M395.85,694.7c-.09,3.79-3.43,7.19-7.08,7.21-3.72.02-6.67-3.2-6.48-7.05.19-3.71,3.34-6.72,7.04-6.71,3.73,0,6.61,2.9,6.52,6.55Z" style="fill: #000; stroke-width: 0px;"/>
  <path d="M449.12,465.6c3.9-.08,6.93,2.86,6.95,6.72.02,3.83-3.02,6.87-6.86,6.85-3.65-.02-6.62-2.9-6.78-6.56-.16-3.79,2.84-6.93,6.68-7.01Z" style="fill: #000; stroke-width: 0px;"/>
  <path d="M469.67,452.61c.05,3.55-2.96,6.68-6.54,6.8-3.83.14-6.97-2.86-6.98-6.67-.01-3.69,2.84-6.7,6.47-6.81,3.79-.12,7,2.92,7.05,6.67Z" style="fill: #000; stroke-width: 0px;"/>
  <path d="M217.1,573.95c-3.62-.03-6.34-2.78-6.31-6.34.04-3.8,3.33-7.02,7.2-7.06,3.71-.03,6.58,2.89,6.49,6.6-.09,3.82-3.37,6.83-7.39,6.8Z" style="fill: #000; stroke-width: 0px;"/>
  <path d="M362.21,560.55c3.83-.05,7.24,3.19,7.32,6.94.07,3.57-2.6,6.35-6.2,6.46-3.98.12-7.37-2.88-7.52-6.67-.15-3.67,2.72-6.68,6.4-6.73Z" style="fill: #000; stroke-width: 0px;"/>
  <path d="M124.18,452.7c.02,3.63-2.91,6.64-6.53,6.73-3.81.09-6.9-2.95-6.88-6.76.02-3.89,3.02-6.82,6.89-6.73,3.6.08,6.5,3.1,6.52,6.76Z" style="fill: #000; stroke-width: 0px;"/>
  <path d="M350.02,827.76c3.7-.08,6.9,3.07,6.9,6.79,0,3.63-2.99,6.61-6.61,6.59-3.57-.02-6.58-2.98-6.69-6.59-.12-3.64,2.78-6.7,6.4-6.78Z" style="fill: #000; stroke-width: 0px;"/>
  <path d="M236.65,834.53c-.09,3.77-3.28,6.77-7.02,6.59-3.5-.17-6.16-2.99-6.17-6.55-.01-3.79,3.06-6.85,6.83-6.79,3.65.06,6.45,3.03,6.37,6.75Z" style="fill: #000; stroke-width: 0px;"/>
  <path d="M175.76,681.97c-3.61.1-6.56-2.86-6.57-6.6-.01-3.49,2.48-6.21,5.88-6.4,3.62-.21,6.7,2.68,6.79,6.37.08,3.61-2.6,6.52-6.1,6.63Z" style="fill: #000; stroke-width: 0px;"/>
  <path d="M404.77,681.98c-3.47,0-6.33-2.9-6.33-6.42,0-3.7,2.96-6.66,6.59-6.6,3.51.06,6.19,2.95,6.1,6.58-.09,3.56-2.94,6.44-6.36,6.44Z" style="fill: #000; stroke-width: 0px;"/>
  <path d="M249.28,826.29c-3.61.02-6.39-2.71-6.39-6.3,0-3.66,2.7-6.4,6.3-6.38,3.39.02,6.12,2.69,6.22,6.1.11,3.61-2.64,6.56-6.12,6.58Z" style="fill: #000; stroke-width: 0px;"/>
  <path d="M331.25,826.29c-3.47,0-6.31-2.82-6.35-6.31-.04-3.42,2.89-6.39,6.29-6.38,3.5,0,6.36,2.85,6.36,6.31,0,3.46-2.88,6.37-6.3,6.38Z" style="fill: #000; stroke-width: 0px;"/>
</svg>