<?xml version="1.0" encoding="UTF-8"?>
<svg id="Layer_1" data-name="Layer 1" xmlns="http://www.w3.org/2000/svg" viewBox="0 0 573.37 900">
  <path d="M204.82,333.44c-5.17,3.11-10.44,6.07-15.49,9.35-5.33,3.46-10.54,7.12-15.63,10.92-1.99,1.48-3.45,3.66-5.3,5.35-.72.66-1.87.84-2.83,1.24-.31-.93-.62-1.86-1-2.97-.1,0-.49.11-.83.03-.56-.13-1.47-.28-1.55-.6-.15-.55.02-1.45.42-1.83,1.5-1.46,3.06-2.86,4.73-4.11,12.12-9.07,24.91-17.11,38.19-24.37.67-.36,1.29-.79,1.94-1.19-.06-.21-.12-.43-.18-.64-1.14.33-2.38.47-3.4,1.02-16.73,8.9-32.71,18.96-47.61,30.71-.42.33-.94.62-1.22,1.06-2.9,4.44-7.37,7.22-11.16,10.74-8.81,8.18-17.14,16.84-21.75,28.31-1.47,3.67-3.06,7.29-4.57,10.94-1.06,2.57-.18,5.44,2.53,7.58.34-1.3.79-2.43.91-3.59.89-8.25,3.6-15.81,8.2-22.74,2.05-3.09,3.54-6.55,5.62-9.61,2.62-3.85,6.22-6.68,10.62-8.35,1.48-.56,3.04-1.06,4.82.41-.78.53-1.38.93-1.96,1.34-1.13.81-2.31,1.55-3.34,2.47-.35.32-.28,1.1-.4,1.66.49.1.98.23,1.47.28.3.03.65-.18.91-.09.95.34,1.88.77,2.81,1.16-.71.66-1.33,1.46-2.14,1.96-1.24.77-2.63,1.29-3.9,2.02-1.15.67-2.39,1.47-1.58,3.11.72,1.46,1.5,3.03,3.66,2.29.15-.05.32-.12.45-.08.68.2,1.34.44,2.01.66-.43.47-.76,1.12-1.29,1.39-2.75,1.38-4.31,3.6-5.03,6.9,1.7-.3,3.23-.7,4.79-.81,2.35-.17,3.02.87,2.27,2.72.75.76,1.82,1.36,1.92,2.09.09.6-.83,1.6-1.54,2.02-3.72,2.23-5.66,5.64-6.61,9.71-.16.69.21,1.5.34,2.26.62-.48,1.29-.89,1.84-1.44,1.79-1.79,3.48-3.68,5.33-5.39.57-.53,1.54-.78,2.35-.87,1.67-.2,2.48.46,2.07,2.32-.18.81.04,1.72.15,2.57.28,2.29,1.26,3.48,3.9,3.36,1.47-.06,1.91,1.59,1.72,3.05-.13.97-.32,1.93-.49,2.88,3.35.75,3.99.3,5.28-2.37,2.09-4.32,4.38-8.53,6.58-12.79.18-.34.62-.83.53-.98-1.37-2.18.43-3.86,1.18-6.02-1.15.6-1.91,1-3.36,1.77.43-1.33.52-2.05.87-2.62.89-1.45,1.87-2.85,2.87-4.23.7-.98,1.47-1.87.19-3-.26-.23-.37-.91-.24-1.27,1.32-3.71,2.72-7.39,5.76-10.14,1.05-.95,2.01-1.86,1.14-3.57-.3-.58.22-1.58-.03-2.65-1.35,1.64-2.7,3.27-4.04,4.91-.21-.13-.42-.27-.63-.4.93-4.26,4.52-7.33,5.41-11.78-1.23,1.08-2.47,2.15-3.86,3.37-1.01-2.15.05-3.4,1.05-4.32,4.64-4.31,9.36-8.54,14.15-12.7,1.75-1.52,3.76-2.74,5.61-4.15.73-.56,1.65-1.13,1.98-1.91,1.17-2.75,3.71-3.64,6.09-4.7.67-.3,1.67.17,2.52.29-.26.87-.27,1.96-.82,2.55-1.15,1.24-2.6,2.19-3.9,3.29-1.85,1.58-1.76,3.17.23,4.48,2.32,1.54,2.3,2.19.16,4.13-2.18,1.98-4.26,4.07-6.37,6.12-.27.26-.46.6-.68.89q2.8,2.58-.27,7.11c.84.18,1.69.36,2.54.54-.38.87-.62,1.84-1.17,2.6-1.04,1.44-2.22,2.79-3.4,4.12-1.11,1.25-2.01,2.44-1.56,4.34.17.7-.4,1.85-.99,2.41-5.46,5.14-11.02,10.19-16.52,15.29-.58.54-1.04,1.2-1.55,1.8.17.18.34.35.51.53,1.83-1.46,3.76-2.79,5.45-4.4,2.47-2.35,4.74-4.9,7.11-7.35.54-.56,1.05-1.19,1.7-1.56.47-.27,1.3-.4,1.68-.15.34.22.51,1.12.36,1.6-.76,2.38-1.65,4.72-2.49,7.06.09-.04.6-.37,1.15-.51.54-.14,1.12-.08,1.68-.11-.08.55.03,1.39-.29,1.61-2.48,1.75-1.49,3.06,0,5.04,2.02,2.7,3.38,5.88,5,8.88.51.94.93,1.93,1.45,3.03.5-.24.84-.37,1.14-.55,1.89-1.13,3.1-.45,3.68,1.68.67,2.43,1.6,4.79,2.56,7.12.25.61,1.04.99,1.58,1.47.42-.52,1-.97,1.23-1.56,2.46-6.36,4.87-12.73,7.29-19.1.47-1.23.91-2.47,1.42-3.69.5-1.19.87-2.15-.46-3.26-.56-.47-.56-2.1-.25-3.02,1.53-4.54,2.96-9.15,4.96-13.49,2.34-5.05,5.28-9.83,7.84-14.78.43-.84.23-1.99.4-2.98.35-1.92.34-4.05,1.21-5.71,2.87-5.49,5.98-10.86,9.18-16.16,1.96-3.25,4.25-6.29,6.37-9.44.33-.49.58-1.04.87-1.57l-.36-.53c-.71.37-1.6.58-2.09,1.14-3.76,4.36-7.18,8.94-9,14.52-.19.59-.95.99-1.44,1.49-.21-.68-.75-1.47-.57-2.03,1.01-3.08,1.74-6.37,3.38-9.09,6.01-9.95,12.19-19.81,20.99-27.68,2.09-1.87,4.47-2.41,7.06-2.38,2.15.03,3.8,1.57,3.88,3.86.06,1.73-.13,3.63-.8,5.2-8.02,18.96-14,38.6-19.78,58.32-4.97,16.95-9.77,33.96-14.95,50.84-2.75,8.98-6.42,17.63-11.6,25.54-.51.78-1.06,1.53-1.66,2.24-5.45,6.39-13.37,6.73-19.39.88-3.04-2.94-5.03-6.5-6.13-10.53-1.59-5.83-2.83-11.77-4.56-17.55-1.28-4.29-2.95-8.49-4.75-12.59-1.24-2.84-2.72-2.98-4.15-.23-2.66,5.14-5.26,10.38-7.15,15.83-1.84,5.32-2.75,10.97-4.1,16.46-.5,2.03.15,3.27,2,4.35,10.57,6.18,21.11,12.36,30.65,20.16,8.8,7.2,15.71,15.74,21.03,25.73,6.18,11.61,10.76,23.7,12.13,36.87.17,1.61.62,2.86,2.6,2.89,6.16.09,11.8,2.19,16.84,5.42,4.87,3.12,9.28,6.95,13.88,10.48.65.5,1.26,1.05,1.89,1.58l.71-.27c-.14-.87-.11-1.82-.45-2.59-1.39-3.11-2.91-6.17-4.37-9.25-.33-.7-.68-1.39-.97-2.11-.97-2.46-.59-4.3,1.04-5.15,1.63-.85,3.42-.18,4.85,1.96,1.29,1.93,2.45,3.95,3.72,5.89.32.48.94,1.23,1.24,1.16.57-.14,1.06-.76,1.48-1.26.23-.27.23-.73.38-1.09.61-1.48,1.83-2.45,3.26-1.81.98.43,2.01,1.77,2.14,2.82.16,1.26-.49,2.68-.98,3.96-1.26,3.24.97,6.78,4.17,6.5,2.7-.23,4.32-3.59,3.21-6.49-.46-1.21-.88-2.49-.98-3.77-.13-1.64.72-2.89,2.46-3.12,1.64-.22,2.61.72,3.08,2.23.09.3.08.67.26.88.38.45.82,1.09,1.29,1.15.41.05,1.05-.49,1.35-.94,1.37-2.07,2.63-4.2,3.96-6.29,1.22-1.93,3.08-2.65,4.69-1.77,2.01,1.1,1.95,2.97,1.23,4.67-1.58,3.71-3.42,7.3-5.08,10.97-.48,1.05-.7,2.23-1.03,3.34.23.16.47.31.7.47.79-.63,1.64-1.2,2.37-1.89,6.8-6.52,14.31-11.9,23.49-14.54,2.28-.66,4.7-.91,7.08-1.09,1.62-.12,2.48-.75,2.63-2.31,1.59-16.53,8.09-31.24,16.7-45.18,4.55-7.37,10.69-13.18,17.3-18.66,9.07-7.52,19.21-13.35,29.33-19.23,2.15-1.25,2.96-2.58,2.38-5.05-1.98-8.45-3.63-17-7.34-24.94-1.14-2.45-2.45-4.85-3.94-7.1-1.66-2.5-2.9-2.47-4.06.25-1.85,4.34-3.57,8.76-4.93,13.26-1.53,5.04-2.55,10.23-3.87,15.33-1.14,4.41-3.01,8.45-6.23,11.79-5.93,6.16-14.26,6.39-19.41-.38-3.75-4.93-6.64-10.65-9.16-16.34-4.84-10.93-8.01-22.45-11.08-34.01-3.28-12.35-7.43-24.47-10.89-36.78-4.8-17.12-10.73-33.83-17.48-50.26-.03-.07-.06-.14-.08-.22-1.27-3.54-.8-6.53,1.24-7.89,1.96-1.32,6.39-.59,8.68,1.42,6.35,5.57,11.49,12.16,15.88,19.33,2.62,4.28,5.2,8.6,7.56,13.03.85,1.59,1.1,3.54,1.42,5.36.08.47-.58,1.07-.9,1.6-.39-.4-1.01-.73-1.13-1.2-1.37-5.35-4.73-9.54-7.93-13.82-.82-1.09-1.71-2.42-3.79-2.07,2.5,3.76,4.97,7.21,7.17,10.82,2.98,4.89,5.86,9.85,8.6,14.89,1.41,2.59,3.2,5.21,1.75,8.52-.21.49.46,1.4.79,2.08,3.85,7.85,7.77,15.67,11.54,23.56.75,1.57,1.07,3.42,1.26,5.17.1.94-.5,1.95-.74,2.95-.15.63-.47,1.37-.28,1.9,2.88,7.77,5.82,15.52,8.8,23.25.28.72.99,1.27,1.5,1.89.56-.59,1.35-1.09,1.64-1.8.9-2.19,1.78-4.41,2.35-6.71.63-2.55,2.02-2.98,4.75-.96.5-.97.94-1.92,1.46-2.83,2.04-3.54,4.03-7.11,6.21-10.56.7-1.11.89-1.8-.05-2.82-.64-.7-.97-1.68-1.44-2.53.88.21,1.76.44,2.65.63.2.04.43-.04.86-.1-.25-.48-.35-1-.65-1.19-2.43-1.54-1.99-4.24-2.55-6.47-.33-1.33.94-1.52,1.85-.98.91.54,1.62,1.42,2.41,2.16,3.6,3.4,7.19,6.8,10.8,10.19.37.34.87.55,1.7.46-.49-.59-.92-1.25-1.48-1.77-5.5-5.1-11.05-10.15-16.52-15.28-.54-.51-1.05-1.57-.9-2.22.47-1.99-.52-3.23-1.68-4.54-1.28-1.45-2.54-2.93-3.66-4.5-.44-.6-.49-1.48-.73-2.23.77-.11,1.54-.22,2.53-.35-.81-1.13-2.16-2.25-2.4-3.57-.2-1.11.89-2.46,1.39-3.66-1.92-2.09-4.12-4.67-6.52-7.06-1.92-1.91-1.98-2.57.24-4.01,2.02-1.31,2.15-2.91.34-4.48-1.41-1.22-2.93-2.31-4.23-3.63-.47-.48-.41-1.46-.6-2.22.76-.18,1.7-.73,2.26-.47,2.41,1.13,5.11,1.89,6.34,4.74.36.84,1.38,1.41,2.16,2.04,5.76,4.69,11.59,9.31,17.28,14.09,1.39,1.17,2.42,2.81,3.43,4.36.34.52.12,1.41.16,2.13-.64-.27-1.46-.38-1.88-.85-.66-.72-1.05-1.69-1.55-2.55l-1.2.97c2.1,3.74,4.2,7.48,6.3,11.22-.32.2-.63.41-.95.61-1.28-1.6-2.57-3.2-3.98-4.96-.79,3.31.34,5.44,2.26,7.77,1.99,2.42,3.06,5.61,4.52,8.47.1.19.2.55.11.66-2.31,2.65.5,4.05,1.44,5.88.67,1.3,1.43,2.55,2.15,3.82l-.55.46c-.67-.25-1.34-.49-2.53-.92.49,1.1,1.16,1.88,1.12,2.63-.3,5.43,4.34,8.72,5.69,13.42.32,1.11.91,2.14,1.35,3.21,1.12,2.74,1.71,3.07,5.08,2.57-.14-.95-.31-1.89-.4-2.85-.17-1.75.31-3.09,2.31-3.36,2.7-.36,4.31-2.68,3.65-5.27-.63-2.44.29-3.36,2.72-2.64,3.19.94,5.06,3.39,6.82,6.01.44.65,1.29,1.01,1.95,1.51.09-.78.39-1.61.23-2.35-.88-4.22-3.06-7.54-6.86-9.75-1.81-1.05-1.79-1.95-.19-3.31.25-.21.63-.55.59-.78-.52-3.06,1.62-2.64,3.37-2.51,1.26.1,2.5.49,3.99.8-.68-3.31-2.17-5.53-4.94-6.9-.59-.29-.98-.99-1.46-1.49.76-.19,1.51-.39,2.27-.59,1.03-.27,2.4-.22,3.04-.87,1.98-2.01,1.78-3.02-.71-4.48-1.52-.9-3.22-1.5-4.78-2.34-.54-.29-.92-.9-1.37-1.37.55-.46,1.03-1.1,1.66-1.34.61-.23,1.37,0,2.06-.07.55-.06,1.09-.27,1.63-.41-.2-.62-.22-1.45-.64-1.83-.91-.82-2.02-1.41-3.06-2.08-.62-.4-1.26-.76-2.1-1.27,1.74-1.74,3.38-1.04,4.89-.51,4.46,1.58,8.21,4.43,10.63,8.32,6.3,10.1,13.03,20.11,13.84,32.58.07,1.12.52,2.21.82,3.39,2.49-1.49,3.81-4.73,2.79-7.05-2.83-6.45-5.56-12.97-8.78-19.23-1.68-3.25-4.26-6.05-6.57-8.94-1.78-2.23-3.65-4.43-5.71-6.41-3-2.89-6.2-5.58-9.31-8.36-1.49-1.34-3.2-2.52-4.42-4.08-4.88-6.23-11.45-10.48-17.87-14.68-11.14-7.29-22.72-13.92-34.14-20.76-.91-.55-2.09-.64-3.15-.94-.1.24-.19.48-.29.73,3.13,1.75,6.38,3.33,9.38,5.29,10.77,7.02,21.47,14.15,32.18,21.27.96.64,1.86,1.42,2.61,2.3.6.7.92,1.65,1.37,2.48-.84.35-1.67.71-2.81,1.19,0,.06.06.55.05,1.04-.05,1.56-1,1.99-2.16,1.26-1.35-.86-2.55-1.99-3.71-3.11-1.2-1.16-2.08-2.74-3.43-3.65-9.58-6.44-19.25-12.75-28.9-19.08-.57-.37-1.26-.55-1.9-.82l.07.07c-1.7-1.02-3.35-2.14-5.12-3.02-2.03-1.01-4.14-1.7-4.33-4.56-.05-.78-1.05-1.67-1.82-2.19-1.93-1.29-3.97-2.42-6-3.55-1.25-.7-2.36-1.54-1.65-3.09.7-1.54,2.08-1.31,3.41-.81.42.16.86.23,1.34.35-.26-3.23.44-3.77,3.26-2.2,9.04,5.04,18.01,10.22,27.02,15.33.9.51,1.86.93,3.05.91-.51-.41-.99-.86-1.52-1.23-9.78-6.9-20.14-12.79-31.02-17.79-6.19-2.84-12.25-5.99-18.31-9.12-.74-.38-1.1-1.52-1.64-2.31.97-.09,2.04-.48,2.9-.21,13.33,4.07,25.41,10.93,37.73,17.21,13.37,6.82,26.57,14,39.83,21.03,1.48.79,2.9,1.69,4.35,2.54.2-.23.39-.47.59-.7-2.04-1.71-3.93-3.65-6.14-5.09-3.75-2.44-7.71-4.57-11.58-6.84-4.62-2.7-9.11-5.65-13.88-8.03-10.59-5.28-21.25-10.42-32.01-15.33-4.97-2.27-10.25-3.87-15.39-5.78-.51-.19-1.1-.28-1.49-.61-.43-.35-.67-.93-.99-1.41.44-.26.86-.58,1.33-.75.35-.13.77-.04,1.15-.1,2.01-.29,2.38-.96,1.57-2.79-2.88-6.51.8-12.69,7.97-13.4,3.62-.36,6.99.55,10.07,2.25,18.78,10.4,37.88,20.3,55.24,33.03,12.95,9.5,25.47,19.6,36.01,31.79,8.69,10.06,16.27,20.93,20.81,33.63,2.02,5.64,2.81,11.45,2.25,17.39-.23,2.43-.68,5.01-1.74,7.17-6.15,12.61-13.09,24.8-24.44,33.53-7.23,5.56-15.08,10.32-22.68,15.39-1.74,1.16-3.55,2.24-5.42,3.16-2.02,1-2.66,2.48-2.61,4.68.44,20.02-2.03,39.77-6.23,59.29-3.79,17.66-11.93,33.51-21.3,48.78-1.95,3.17-3.88,6.34-5.82,9.52-6.74,11.09-18.24,12.69-27.2,3.28-9.4-9.86-15.9-21.52-19.19-34.85-.84-3.42-.98-3.42-4.13-1.83-6.7,3.39-13.57,6.47-20.12,10.14-3.33,1.86-6.38,4.44-9.04,7.19-2.18,2.25-4.6,3.54-7.48,4.33-4.62,1.26-6.63,3.66-6.14,8.47.41,4.04,1.64,7.99,2.5,11.99.21.98.77,2.05.55,2.91-.3,1.14-1.04,2.75-1.91,2.99-1.05.28-2.5-.54-3.64-1.14-.51-.27-.66-1.19-1.04-1.77-.88-1.37-2.5-1.42-3.42-.09-.44.63-.62,1.64-1.2,1.94-1.14.6-2.63,1.35-3.66,1.03-.87-.27-1.84-2-1.78-3.04.09-1.88,1-3.71,1.4-5.59.65-3.01,1.48-6.04,1.61-9.08.09-2.07-.81-4.2-1.44-6.26-.17-.55-.89-1.06-1.48-1.33-.98-.45-2.04-.75-3.09-1-3.02-.72-5.47-2.14-7.63-4.5-5.89-6.44-13.68-10.04-21.43-13.63-2.81-1.3-5.63-2.59-8.39-4-1.75-.9-2.58-.38-2.97,1.43-2.71,12.41-8.95,23.04-16.71,32.88-3.72,4.72-8.26,8.21-14.5,8.74-6,.51-10.73-2.11-13.89-6.91-14.05-21.36-26.58-43.49-30.56-69.23-2.6-16.84-5.22-33.73-4.41-50.88.09-2-.63-3.29-2.38-4.36-7.46-4.58-14.97-9.11-22.24-13.98-11.59-7.75-20.31-18.12-26.52-30.57-2.06-4.13-4.43-8.31-5.41-12.74-1.61-7.27-.17-14.53,2.69-21.38,6.7-16.09,17.05-29.59,29.58-41.54,19.97-19.05,42.9-33.85,67.07-46.89,4.71-2.54,9.34-5.22,14.06-7.73,3.91-2.07,7.99-3.41,12.51-2.24,6.08,1.58,8.76,7.05,6.27,12.84-.91,2.11-.61,2.55,1.79,3.03.67.13,1.28.61,1.92.93-.56.56-1.04,1.28-1.71,1.64-.8.44-1.76.58-2.65.84-14.28,4.28-27.05,11.85-40.24,18.5-4.13,2.08-8.46,3.79-12.47,6.06-5.12,2.9-10.04,6.16-15,9.34-2.65,1.7-5.21,3.53-7.77,5.37-.52.37-.85,1-.99,1.87,2.58-1.47,5.15-2.98,7.75-4.41,10.25-5.64,20.39-11.49,30.81-16.82,11.38-5.81,22.97-11.2,34.55-16.6,3.05-1.42,6.38-2.26,9.62-3.23.57-.17,1.34.36,2.02.56-.41.72-.63,1.79-1.25,2.12-5.56,2.91-11.1,5.89-16.83,8.45-12.15,5.44-23.64,11.97-34.46,19.71-.43.31-.85.63-1.06,1.33,1.27-.64,2.55-1.25,3.81-1.92,7.17-3.85,14.36-7.67,21.48-11.6,2.07-1.15,3.9-2.73,5.95-3.92.78-.45,1.87-.37,2.81-.54.13.89.25,1.78.39,2.79.25-.07.76-.17,1.24-.35,1.42-.55,2.89-.79,3.6.86.68,1.57-.6,2.33-1.8,3.02-2.08,1.19-4.18,2.37-6.18,3.7-.71.47-1.57,1.33-1.63,2.07-.2,2.84-2.31,3.55-4.36,4.54-1.78.86-3.44,1.99-5.15,3.01l.07-.07ZM444.51,424.31c1.96-.53,3.72-1.68,3.42-3.77-.53-3.64-1.58-7.21-2.52-10.78-.16-.62-.81-1.1-1.59-2.12.27,6.03.51,11.37.74,16.7-1.03-.57-2.06-1.15-3.03-1.7-.61,1.42-1.3,3.04-1.99,4.66-1.8,0-1.23-1.14-1.24-2.24-.06-4.85,0-9.72-.52-14.53-.23-2.1-1.58-4.18-2.79-6.02-.71-1.09-2.15-1.7-3.19-2.47,1.25,4.32,2.8,8.22,3.44,12.26.69,4.32.49,8.78.76,13.18.05.75.49,1.47.75,2.2.7-.4,1.46-.73,2.09-1.21.33-.26.46-.78.68-1.18,2.71.77,3.47-1.76,5.01-2.97ZM404.83,467.81c-1,.52-1.72.7-2.14,1.16-1.91,2.11-4.33,4.03-5.47,6.52-2.92,6.39-5.41,12.99-7.78,19.62-1.3,3.64-2.69,6.94-5.89,9.47-1.93,1.53-3.16,3.95-5.77,4.7-.13.04-.26.2-.31.33-1,2.96-2.4,5.87-2.87,8.91-.74,4.69-1.03,9.41-4.17,13.32-.31.39-.45.98-.53,1.49-.63,3.96-1.23,7.91-1.81,11.88-.07.45.03.92.05,1.39.37,6.26,2.49,12.11,4.25,18.04.24.83.93,1.52,1.41,2.28.74-.59,1.76-1.04,2.19-1.81,3.33-5.95,6.72-11.88,9.78-17.97,8.62-17.16,12.73-35.72,16.24-54.41,1.36-7.23,2.04-14.58,2.98-21.88.11-.85-.08-1.74-.15-3.05ZM168.72,467.72c-.08,1.4-.26,2.36-.16,3.29,2.14,20.57,6.03,40.78,12.76,60.37,4.07,11.85,9.69,22.99,16.22,33.66.45.73,1.3,1.22,1.96,1.82.51-.7,1.23-1.34,1.49-2.12,1.17-3.53,2.42-7.05,3.22-10.67.66-3,1.06-6.13.97-9.19-.09-3.2-.88-6.39-1.39-9.57-.18-1.13-.13-2.52-.77-3.33-2.8-3.54-3.78-7.66-3.84-11.96-.06-3.83-2.55-6.75-3.23-10.3-.05-.25-.37-.58-.62-.64-2.46-.6-3.45-2.96-5.22-4.27-3.75-2.78-4.94-6.69-6.41-10.72-2.42-6.6-5.11-13.12-7.97-19.54-1.29-2.89-3.68-5.03-7.01-6.84ZM141.99,402.21c-.28.06-.57.07-.83.17-2.75,1.02-4.05,3.4-4.83,5.89-.77,2.47-1.14,5.12-1.31,7.71-.26,3.95-.28,7.93-.21,11.89,0,.59,1,1.16,1.53,1.73.36-.48.85-.91,1.05-1.45.17-.47.02-1.07.02-1.61-.02-8.23.14-16.43,4.67-23.77.06-.09-.04-.28-.09-.56ZM411.21,425.36c.2.85.24,1.79.64,2.54.98,1.83,2.12,3.58,3.21,5.35,1.02,1.65,2.85,3.21.43,5.16-.19.15-.22.87-.05,1.02.29.25.82.41,1.21.35,1.8-.26,3.3-2.19,2.92-4.12-.92-4.7-3.3-8.41-8.35-10.3ZM162.68,425.48c-.33-.17-.65-.35-.98-.52-4.29,2.31-7,5.87-7.83,10.72-.34,2.01.84,3.4,2.8,3.94.43.12.95-.13,1.43-.22-.14-.46-.14-1.15-.44-1.34-1.52-.96-1.02-2.11-.36-3.2.68-1.12,1.61-2.09,2.24-3.23,1.12-2.01,2.1-4.1,3.13-6.15ZM415.85,418.64c-.85,1.76-1.28,3.24.52,4.59,3.36,2.52,5.31,5.95,6.28,10,.17.73.54,1.41.95,2.43,2.23-4.64-2.62-14.97-7.75-17.02ZM157.53,418.8c-5.09,1.57-10.51,13.31-7.62,16.29.12-.09.29-.16.34-.29.16-.35.31-.71.4-1.08,1.05-4.34,3.06-8.07,6.7-10.83,1.59-1.21.9-2.68.18-4.09ZM127.45,423.94c.29-.16.57-.32.86-.49.51-5.03,1.03-10.06,1.54-15.09-.23-.06-.46-.12-.69-.18-.36.46-.92.86-1.06,1.37-.95,3.65-2,7.3-2.57,11.02-.15,1,1.24,2.24,1.92,3.37ZM158.67,349.22c5.8-2.47,9.02-5.49,11.01-10.61-3.41,2.3-6.35,4.46-9.46,6.33-1.77,1.06-2.45,2.21-1.55,4.28ZM414.54,349.38c1.13-2.34.35-3.54-1.45-4.45-1.16-.58-2.21-1.38-3.29-2.1-1.95-1.32-3.88-2.66-6.16-4.23,1.6,6.26,6.72,7.86,10.89,10.79ZM222.01,397.7c4.29-4.36,9.3-16.11,8.24-18.78-3.13,6.26-6.34,12.24-8.24,18.78ZM343.32,380.14c-.49,2.87,5.19,15.41,7.79,17.19-.01-2.53-5.62-14.9-7.79-17.19ZM204.28,499.21l-.81.42c0,2.9-.04,5.81.04,8.71.01.4.52,1.03.89,1.1.31.07,1.07-.48,1.1-.81.23-2.44.47-4.89.39-7.32-.02-.72-1.05-1.4-1.61-2.1ZM369.88,499.55c-.94.45-1.35.53-1.6.78-1.23,1.24-1.29,7.67-.01,8.79.22.19,1.53-.29,1.54-.49.1-2.87.07-5.75.07-9.07ZM362.74,433.01c1.58-2.87-.97-10.25-4.17-12.52,1.32,3.97,2.64,7.93,4.17,12.52ZM214.67,420.85l-.74-.19c-3.78,5.71-4.96,9.54-3.2,12.09,1.4-4.21,2.67-8.05,3.95-11.9ZM132.48,427.46c.2-.15.41-.31.61-.46-.36-1.55-.73-3.11-1.09-4.66-.2-.04-.4-.07-.6-.11-.41,1.05-1.25,2.17-1.1,3.14.12.79,1.41,1.41,2.19,2.1ZM191.23,488.17c.25-.06.5-.12.76-.18.96-1.97.54-3.21-2.06-4.64.52,1.92.91,3.37,1.31,4.82ZM381.24,488.13c1.81-1.12,2.22-2.55,1.25-4.31-1.2,1.24-2.27,2.41-1.25,4.31ZM378.54,354.88c.23.89.21,1.34.42,1.54.81.75,1.69,1.43,2.58,2.08.05.04.42-.34.64-.52-.72-.82-1.41-1.65-2.16-2.43-.23-.24-.64-.3-1.48-.67ZM190.95,357.82c.33.35.65.7.98,1.04,1.03-1.04,2.05-2.07,3.08-3.11-.26-.27-.51-.53-.77-.8-1.09.95-2.19,1.91-3.28,2.86Z" style="fill: #000; stroke-width: 0px;"/>
  <path d="M212.91,612.42c3.27-2.18,6.65-4.22,9.8-6.57,5.88-4.39,11.65-8.95,17.42-13.48.84-.66,1.53-1.55,2.15-2.43.3-.43.28-1.1.4-1.65-.64.01-1.38-.18-1.9.08-.95.49-1.87,1.14-2.63,1.89-2.04,2.01-3.99,4.11-5.98,6.17-.49.51-.98,1.04-1.47,1.56-.2-.11-.41-.23-.61-.34.15-.49.15-1.11.46-1.45,2.73-2.95,5.4-5.97,8.32-8.72,1.99-1.87,4.39-2.54,6.99-.74.42.29,1.57.13,1.98-.26,1.3-1.22,2.49-2.37,2.96-4.45.37-1.63,2.5-2.92,4-4.2.23-.19,1.32.39,1.82.83.4.36.51,1.05.99,2.16,1.39-1.5,2.5-2.7,3.62-3.9.48-.51.91-1.09,1.47-1.48.44-.29,1.05-.32,1.58-.47,0,.57.2,1.26-.04,1.69-.91,1.61-2.06,3.1-2.95,4.72-.41.75-.78,1.79-.58,2.55.2.75,1.02,1.56,1.76,1.87.42.17,1.48-.45,1.83-.98,1.45-2.25,2.67-4.64,4.14-6.88.46-.71,1.42-1.09,2.15-1.62.42.87,1.1,1.72,1.17,2.61.06.75-.48,1.63-.95,2.32-1.07,1.57-1.51,3.05-.68,4.98.32.74-.26,2.07-.78,2.92-.63,1.05-.78,1.89.24,2.61,1.44,1.02.94,2.11.23,3.21-1.29,1.98-2.63,3.94-4.17,6.25.95.16,1.44.36,1.9.3,2.14-.27,2.67.22,2.22,2.31-.19.9-.53,1.79-.94,2.62-1.14,2.31-1.43,4.51-1.22,7.23.25,3.3-.59,6.67.16,10.14.35,1.61-.73,3.53-.65,5.59.58-.74,1.2-1.45,1.73-2.23.93-1.38,1.91-1.83,3.09-.31.99,1.28,2.21,1.42,3.73,1.07,3.18-.72,6.27-.34,9.34.87.98.39,2.37.41,3.33.02,3.21-1.3,6.43-1.46,9.81-.93.91.14,2.13-.23,2.87-.81,2.06-1.61,2.18-1.67,3.7.54.42.61.89,1.19,1.34,1.78.18-.07.37-.13.55-.2-.26-1.21-.57-2.41-.75-3.63-.17-1.13-.62-2.45-.23-3.38.95-2.24.92-4.29.03-6.49-.27-.67-.39-1.66-.08-2.25,1.27-2.42.27-4.45-.83-6.52-.29-.55-.54-1.12-.77-1.69-1.2-3.12-.82-3.71,2.44-3.85.21,0,.42-.16,1.13-.45-.95-1.39-1.86-2.64-2.68-3.95-1.16-1.85-3.44-3.61-.54-5.91.23-.18-.19-1.22-.37-1.84-.28-.93-1.15-2.1-.84-2.72,1.08-2.18.31-3.85-.79-5.63-.44-.71-.87-1.61-.8-2.38.07-.76.76-1.48,1.18-2.21.71.45,1.68.74,2.1,1.39,1.44,2.25,2.64,4.66,4.04,6.94.62,1.01,1.53,2.01,2.83,1,1.21-.94,1.69-2.23.78-3.68-.99-1.57-2.11-3.07-3.01-4.69-.36-.65-.31-1.52-.45-2.3.7.3,1.55.45,2.08.94,1.51,1.41,2.88,2.96,4.23,4.38.39-.14.57-.16.67-.25.81-.78,1.6-1.57,2.4-2.36,1.46,1.51,3.03,2.93,4.35,4.55,1.12,1.37,1.88,3.04,2.99,4.42.26.32,1.49.24,1.99-.09,1.96-1.27,4.07-1.29,5.63.14,3.36,3.06,6.43,6.45,9.58,9.73.24.25.17.79-.2,1.51-.55-.53-1.11-1.06-1.65-1.6-2.35-2.35-4.69-4.72-7.07-7.03-.49-.48-1.12-.87-1.76-1.11-.44-.17-1-.02-1.51-.01.08.55-.03,1.29.28,1.61,2.61,2.64,5.05,5.53,8.01,7.73,6.59,4.89,13.43,9.44,20.21,14.09.48.33,1.22.28,1.85.4-.1-.71-.1-1.45-.33-2.11-.45-1.28-1.1-2.5-1.49-3.8-.1-.34.36-1.09.75-1.27.35-.16,1.04.08,1.4.37,2.15,1.72,4.17,3.61,6.38,5.25,1.86,1.38,3.93,2.47,5.91,3.7,1.35.84,2.45,1.07,2.9-.94.33-1.48,1.08-1.6,2.36-.79,4.24,2.7,8.54,5.31,12.83,7.92.44.27,1.1.58,1.5.43,2.54-.93,4.53.41,6.58,1.46,3.85,1.96,7.65,3.99,11.79,6.16.67-3.59,2.75-2.74,4.83-1.89,1.51.61,3.04,1.16,4.5,1.87,5.19,2.51,10.57,4.48,15.95,6.52,10.08,3.82,18.59,10.41,25.8,18.53,1.1,1.24,1.61,2.41.23,3.85-.35.36-.38,1.15-.35,1.73.16,3.82-1.53,6.41-5.19,7.47-1.47.42-3.07.7-4.58.59-4.63-.36-9.33-.54-13.84-1.52-18.33-3.97-36.63-8.19-54.36-14.4-13.26-4.64-26.15-10.16-38.28-17.34-4.55-2.69-4.49-2.64-5.31,2.47-1.82,11.21-7.66,19.6-18.17,24.13-7.96,3.43-16.29,3.16-24.66,1.19-2.18-.51-4.53-.38-6.81-.41-2.99-.05-5.99,0-8.98.07-2.44.07-4.95-.07-7.31.44-8.7,1.86-17.29,2.14-25.46-1.87-9.69-4.76-15.06-12.81-16.9-23.34-.12-.69-.17-1.38-.28-2.07-.38-2.44-1.25-2.84-3.45-1.64-4.7,2.55-9.32,5.26-14.11,7.61-16.28,7.99-33.31,13.96-50.94,18.14-12.21,2.89-24.47,5.56-36.76,8.1-2.91.6-6.04.53-9.03.29-4.94-.4-7.33-3.29-7.22-8.1,0-.45.03-1.09-.23-1.31-2.13-1.79-.87-3.18.38-4.69,4.73-5.7,10.85-9.69,16.96-13.64,3.03-1.96,6.27-4.22,9.69-4.84,6.96-1.27,12.46-5.65,18.95-7.78,2.19-.72,4.26-1.83,5.02,1.83,3.93-2.05,7.54-3.97,11.18-5.82,2.24-1.14,4.36-2.83,7.18-1.74.34.13.91-.14,1.29-.37,4.35-2.66,8.71-5.32,13.02-8.06,1.25-.79,2.04-.76,2.34.78.39,2.01,1.48,1.91,2.85,1.03,3.32-2.14,6.66-4.25,9.94-6.46.81-.54,1.37-1.44,2.13-2.07.47-.39,1.09-.61,1.64-.9.28.59.88,1.25.77,1.75-.24,1.1-.88,2.1-1.29,3.17-.29.75-.47,1.55-.7,2.33.28.13.55.27.83.4ZM187.3,627.58c.11.24.23.48.34.71.79-.14,1.63-.15,2.37-.43,6.28-2.32,11.22-6.71,16.4-10.72.39-.3.35-1.15.52-1.74-.62.11-1.34.05-1.83.36-5.35,3.38-10.68,6.8-15.99,10.24-.66.43-1.21,1.04-1.81,1.57ZM385.35,628.27c.24-.42.48-.84.72-1.26-.53-.31-1.07-.6-1.58-.93-5.33-3.41-10.63-6.86-15.99-10.22-.51-.32-1.32-.15-1.99-.21.29.65.4,1.54.9,1.9,4.06,2.94,8.12,5.9,12.34,8.59,1.65,1.05,3.73,1.44,5.61,2.13ZM431.73,639.09c-.18.24-.37.48-.55.72.47,2.71,8.04,7.72,11.53,7.05-3.92-2.78-7.45-5.27-10.97-7.77ZM142.23,638.8c-4.09,2.85-7.66,5.34-11.64,8.11,3.63.73,11.29-4.48,11.64-8.11ZM176.14,629.94c-2.06-.34-8.56,3.6-9.63,5.68,2.1.62,7.57-2.53,9.63-5.68ZM397.57,629.15c.89,3.51,7.3,7.22,9.56,5.71-3.22-1.75-5.83-4.13-9.56-5.71ZM121.27,648.44c-1.26,1.1-2.16,1.9-3.28,2.88,3.03.58,3.41.26,3.28-2.88ZM452.4,648.7c-.25.17-.49.35-.74.52.38.72.62,1.61,1.19,2.11.36.32,1.23.06,1.87.06.05-.21.1-.41.15-.62-.83-.69-1.65-1.38-2.48-2.07Z" style="fill: #000; stroke-width: 0px;"/>
  <path d="M322.34,694.75c-.99-.81-2.04-1.57-2.96-2.45-.82-.78-1.51-1.7-2.26-2.56.18-.25.37-.49.55-.74.77.31,1.58.55,2.3.95.95.52,1.79,1.23,2.73,1.76,1.74.96,3.07.87,3.69-1.4.21-.77.91-1.4,1.35-2.12.26-.43.72-1.17.59-1.32-.36-.4-.97-.71-1.51-.77-1.46-.16-2.97,0-4.4-.28-1.23-.25-2.38-.94-3.56-1.44.07-.28.14-.57.2-.85.62-.04,1.25-.08,1.87-.12,2.54-.19,5.09-.34,7.62-.61.41-.04.77-.6,1.16-.92-.36-.33-.67-.79-1.1-.98-.99-.43-2.12-.59-3.04-1.14-.62-.37-.97-1.2-1.45-1.83.72-.28,1.48-.86,2.16-.78,2.3.29,4.57.83,6.86,1.25,3.51.65,6.66-.42,9.74-1.84.04-.23.08-.46.12-.68-1.02-.33-2.01-.86-3.05-.94-3.32-.27-6.65-.34-9.97-.57-.96-.07-1.9-.42-2.85-.65v-1.03c1.13-.22,2.25-.54,3.39-.65,2.08-.2,4.15-.12,5.46-2.34.34-.57,1.64-.79,2.51-.8,3.8-.07,7.59,0,11.39.02,1.03,0,2.07,0,3.1,0,.04-.32.08-.64.11-.96-2.12-.44-4.26-.79-6.34-1.35-.82-.22-1.52-.91-2.28-1.38.8-.46,1.66-1.4,2.41-1.31,5.45.6,10.9,1.33,16.32,2.19,1.61.25,2.57.29,3.11-1.6.58-2.04,2.39-1.3,3.74-1,5.56,1.24,10.66,3.64,15.59,6.42,2.23,1.26,4.41,2.59,6.63,3.87.7.4,1.45.71,2.18,1.06l.45-.45c-.26-.44-.44-.99-.8-1.31-.81-.72-1.77-1.27-2.55-2.01-.38-.37-.49-1.02-.73-1.54.55-.22,1.15-.7,1.63-.6,1.42.3,2.96.56,4.16,1.31,5.25,3.29,10.33,6.85,15.6,10.1,3.15,1.94,6.48,3.6,9.83,5.17,1.85.87,3.29,1.89,4.1,3.83.47,1.12,1.33,2.07,2.01,3.1,1.73,2.66,1.14,5.44-1.7,6.84-1.35.67-2.93.99-4.44,1.18-1.45.18-2.97.16-4.41-.08-9.15-1.49-18.32-1.73-27.56-.88-6.78.63-13.58.92-20.38,1.36-4.1.27-8.19.7-12.29.77-5.02.09-8.57,2.3-11.93,6.05-6.15,6.85-12.68,13.38-19.46,19.62-4.93,4.54-10.98,7.25-17.84,7.65-7.04.41-13.06-1.96-18.31-6.59-2.76-2.43-3.17-2.47-5.86-.06-10.12,9.09-23.52,8.91-33.89.68-7.6-6.03-14.51-13.07-20.97-20.34-4.11-4.62-8.41-7.06-14.54-7.15-5.33-.08-10.64-.95-15.97-1.38-3.7-.3-7.42-.48-11.13-.63-6.11-.24-12.24-.68-18.34-.52-5.33.14-10.63,1.14-15.96,1.46-1.94.12-4.05-.3-5.86-1.03-3.23-1.3-3.87-4.41-1.86-7.25.8-1.13,1.35-2.44,2.22-3.51.85-1.05,1.81-2.36,2.98-2.74,6.42-2.08,11.51-6.33,16.99-9.95,2.84-1.88,5.69-3.75,8.62-5.49,1.18-.7,2.54-1.16,3.88-1.46.71-.16,1.55.29,2.34.46-.39.67-.68,1.45-1.2,1.99-.91.93-1.98,1.72-2.98,2.56.15.25.31.49.46.74.77-.31,1.57-.56,2.3-.95,4.5-2.42,8.9-5.05,13.51-7.25,2.9-1.39,6.06-2.26,9.16-3.16,1.47-.43,3.14-.67,3.61,1.63.3,1.47,1.41,1.29,2.58,1.07,4.19-.77,8.39-1.52,12.6-2.15,1.44-.22,2.95-.22,4.4-.04.69.09,1.3.83,1.94,1.28-.6.47-1.13,1.16-1.8,1.35-1.48.43-3.04.58-4.56.9-.77.16-1.5.46-2.26.7l.08.72c1.34,0,2.67,0,4.01,0,3.56,0,7.13-.05,10.69.02.8.02,2.04.2,2.32.71,1.29,2.39,3.5,2.2,5.63,2.43,1.13.12,2.23.47,3.32,1.18-5.03,2.25-10.72.16-16.19,2.86,3.48,1.97,6.61,2.86,10.07,2.32,2.29-.36,4.56-.93,6.86-1.22.69-.09,1.46.44,2.2.69-.51.66-.89,1.58-1.56,1.94-1.31.7-2.79,1.1-4.84,1.86,3.97,2.33,7.79,1.51,11.38,1.83.08.27.15.55.23.82-1.14.51-2.24,1.22-3.44,1.47-1.42.3-2.93.15-4.4.29-1.44.14-2.08.69-.89,2.07.55.63,1.03,1.36,1.39,2.11,1.04,2.18,1.79,2.46,3.93,1.23,1.5-.86,2.94-1.8,4.41-2.71.21.18.41.37.62.55-.31.66-.5,1.43-.96,1.95-.67.74-1.59,1.24-2.3,1.94-.56.55-.96,1.27-1.43,1.91.92.13,1.96.59,2.74.32,3.34-1.16,6.47-2.69,7.81-6.37.13-.36.33-.7.51-1.04,2.17-4.08,3.57-4.48,7.4-2.16,1.83-1.6,1.9-2.98.21-4.34-1.06-.86-.93-2.58.49-2.86,2.75-.54,4.02-1.68,4.39-4.63.14-1.12,2.63-2.03,4.14-2.88,2.08-1.17,4.27-1.45,6.71-1.1,2.68.39,5.55-.87,8.11.95,2.04,1.45,5.21,1.71,5.09,5.37-.02.58,1.5,1.23,2.34,1.81.84.58,1.82,1.01,2.47,1.75.16.18-1,1.26-1.12,2-.18,1.11.03,2.28.07,3.43.66-.09,1.41,0,1.95-.31,1.99-1.11,3.5-.93,4.86.91.77,1.05,1.46,2.21,1.97,3.41,1.52,3.58,4.66,5.03,8.01,6.17.77.26,1.7.04,2.55.04.08-.28.16-.56.24-.84ZM353.42,673.13c-1.82-1.82-8.54-2.48-10.56-1.14,3.07,2.4,7.38,2.92,10.56,1.14ZM230.47,671.91c-2.46-1.3-8.93-.52-10.1,1.23,2.73,1.73,7.52,1.15,10.1-1.23ZM262.69,698.23c.08.25.16.5.24.74.85-.1,2.14.12,2.48-.35,1.09-1.49,1.82-3.23,2.69-4.88-.28-.16-.56-.32-.83-.48-1.53,1.65-3.05,3.31-4.58,4.96ZM310.91,698.39c-1.64-1.72-3.08-3.22-4.51-4.72.05,4.69,1.38,6.07,4.51,4.72Z" style="fill: #000; stroke-width: 0px;"/>
  <path d="M573.27,371.99c1.14,33.29-7.02,59.84-22.55,84.14-3.97,6.22-9.14,11.73-14.16,17.2-7.4,8.03-15.16,15.73-22.77,23.57-6.95,7.16-12.41,15.42-17.82,23.77-6.93,10.71-10.91,22.55-14.23,34.7-.86,3.14-1.66,6.31-2.77,9.35-.34.93-1.6,2.05-2.52,2.13-1.62.13-2.09-1.35-1.95-2.8.1-1.12-.21-1.67-1.23-2.37-.85-.59-1.52-2.19-1.43-3.28.45-5.63.84-11.3,1.88-16.84,1.45-7.76,3.41-15.43,5.24-23.11.28-1.17.87-2.37,1.62-3.3.48-.6,1.66-1.22,2.29-1.03,1.9.56,2.51-.36,3.02-1.87,1.57-4.68,2.92-9.47,4.87-13.99,1.83-4.25,4.27-8.25,6.53-12.31.42-.76,1.23-1.76,1.94-1.82,2.3-.21,2.91-1.8,3.78-3.51,1.26-2.48,2.62-4.97,4.34-7.14,6.67-8.45,13.19-17.05,20.36-25.05,7.12-7.95,14.98-15.25,22.47-22.88.61-.63.97-1.56,1.3-2.4,2.7-6.8,4.32-14.12,3.7-21.15-.82-9.41,1.93-18.34,1.79-27.57-.12-7.64-2.3-14.93-3.17-22.43-.37-3.22-1.18-6.4-1.92-9.57-1.43-6.13-3.13-12.21-4.39-18.37-2.39-11.64-8.36-21.62-14.27-31.63-2.55-4.33-5.43-8.48-8.34-12.58-.93-1.32-2.49-2.17-3.67-3.34-.81-.81-1.48-1.77-2.16-2.7-2.78-3.82-5.16-8.01-8.38-11.41-4.73-4.98-10-9.45-15.15-14.01-4.35-3.85-9.45-7.04-13.09-11.44-2.66-3.22-5.86-5.31-8.95-7.78-2.08-1.66-3.07-3.89-2.13-6.62.84-2.43,3.06-4.09,5.94-4,1.9.06,4.01.22,5.63,1.07,4.71,2.48,9.56,4.9,13.74,8.14,8.33,6.44,16.47,13.17,24.29,20.22,6.72,6.06,13.16,12.49,19.22,19.2,8.43,9.34,13.22,20.9,18.34,32.2,4.85,10.7,6.54,22.28,9.32,33.55,3.5,14.21,5.45,28.62,5.43,39.07ZM510.68,478.9c.99-.15,1.26-.11,1.41-.23.56-.41,1.09-.86,1.61-1.32,7.2-6.37,12.48-14.34,18.2-21.95.28-.37.61-.77.68-1.2.11-.62,0-1.27-.01-1.91-.59.19-1.24.28-1.74.61-.43.28-.7.81-1.03,1.24-3.97,5.15-7.93,10.31-11.9,15.46-2.26,2.93-4.53,5.84-7.21,9.3ZM563.1,385.71c-.24-.04-.48-.08-.72-.12-.72,4.77-1.44,9.55-2.16,14.32.22.03.44.07.66.1.74-4.77,1.48-9.53,2.23-14.3Z" style="fill: #000; stroke-width: 0px;"/>
  <path d="M101.59,555.46c-.07,3.13.75,5.76-2.41,6.9-.24.09-.28.98-.25,1.49.08,1.56-.3,3.12-2.02,2.98-.93-.07-2.24-1.36-2.56-2.36-1.8-5.52-3.59-11.07-4.93-16.71-2.96-12.55-9.46-23.33-16.3-33.99-6.59-10.27-15.32-18.6-23.74-27.3-9.2-9.5-18.62-19.07-26.09-29.89C8.89,435.7,1.13,412.08.15,386.62c-.69-17.95.91-35.79,5.39-53.28,2.52-9.83,4.37-19.9,7.79-29.4,4.67-12.98,10.63-25.48,19.52-36.28,8.47-10.29,18.35-19.09,28.88-27.21,4.23-3.26,8.28-6.76,12.26-10.33,4.9-4.39,10.23-8.09,16.38-10.43,2.04-.78,4.37-1.09,6.56-1.09,2.51,0,4.41,1.52,5.24,3.94.8,2.33.14,4.44-1.63,6.16-.61.59-1.27,1.15-1.99,1.59-2.7,1.65-5.05,3.47-7.03,6.17-2.14,2.92-5.54,4.91-8.29,7.4-5.62,5.09-10.91,10.6-16.84,15.29-5.52,4.37-8.79,10.3-12.86,15.72-1.16,1.55-3.23,2.44-4.28,4.04-4.49,6.77-8.67,13.75-13.11,20.55-6.78,10.41-9.92,22.16-12.47,34.08-2.13,9.94-3.38,20.08-5.85,29.92-2.61,10.39-.39,20.43.7,30.6.21,1.97.98,3.95-.47,5.81-.24.3-.19.91-.12,1.35,1,6.25,2.1,12.49,3.03,18.76.56,3.79,2.95,6.3,5.49,8.85,5.35,5.38,10.32,11.17,15.93,16.26,7.41,6.73,13.34,14.67,19.33,22.55,3.5,4.6,6.32,9.71,9.49,14.56.39.59,1,1.36,1.59,1.44,1.85.24,2.9,1.31,3.68,2.84,2.75,5.38,5.68,10.67,8.17,16.16,1.36,3,1.96,6.34,2.9,9.53.44,1.49,1.04,2.46,2.98,1.93.67-.19,1.91.55,2.43,1.22.78,1.01,1.33,2.29,1.69,3.54,3.6,12.23,5.88,24.71,6.93,36.6ZM61.17,478.6c.19-.16.38-.31.56-.46-.09-.27-.11-.6-.28-.81-6.23-8.1-12.45-16.2-18.74-24.25-.35-.44-1.29-.42-1.95-.61.06.62-.1,1.39.21,1.83,3.73,5.13,7.37,10.34,11.38,15.25,2.65,3.25,5.86,6.05,8.82,9.06ZM11.11,385.65c-.2.03-.39.06-.59.09.63,4.31,1.26,8.63,1.89,12.94.21-.03.41-.06.62-.09-.64-4.31-1.28-8.63-1.91-12.94Z" style="fill: #000; stroke-width: 0px;"/>
  <path d="M527.04,174.52c-.26,2.99-.48,5.98-.81,8.96-.18,1.69-.42,3.39-.87,5.02-.15.56-1.03.92-1.57,1.37-.23-.6-.65-1.2-.65-1.79,0-2.63.27-5.27.1-7.89-.07-1.13-1.04-2.19-1.51-3.32-.47-1.13-.9-2.29-1.23-3.47-.2-.74-.11-1.55-.28-2.3-.09-.4-.44-.75-.67-1.12-.41.27-.86.49-1.22.82-.21.19-.2.63-.41.82-.53.47-1.14.86-1.71,1.28-.29-.66-.66-1.3-.86-1.98-.13-.46-.03-1-.03-1.64-2.56,1.7-2.48,1.67-3.61-.97-.25-.59-1.32-1.24-1.95-1.18-2.22.21-2.87-.36-2.69-2.63.09-1.06.2-2.26-.19-3.2-2.61-6.42-5.8-12.51-10.95-17.33-.21-.19-.51-.29-1.17-.18.35.69.69,1.38,1.06,2.06,2.19,4.1,4.43,8.17,6.54,12.3.42.81.36,1.87.52,2.81-.26.1-.51.2-.77.29-1.37-1.28-2.94-2.41-4.08-3.87-5.39-6.9-10.59-13.94-16.03-20.8-1.48-1.86-3.56-3.25-5.74-4.56,2.51,4.1,5.47,7.89,5.33,13.41-.74-.37-1.3-.51-1.68-.86-3.81-3.52-7.61-7.05-11.34-10.65-.9-.87-1.57-1.44-2.99-1.01-.85.26-2.09-.11-2.93-.59-1.54-.87-2.91-2.04-4.36-3.08-.91-.66-1.77-.81-2.13.51-.54,2-1.38,1.29-2.43.41-3.62-3.02-7.16-6.18-10.99-8.92-2.05-1.47-4.63-2.19-6.98-3.25-.15.27-.3.54-.45.81.48.39.95.79,1.44,1.16,2.54,1.9,5.12,3.74,7.59,5.73.47.38.47,1.33.69,2.01-.66-.14-1.41-.14-1.98-.45-1.35-.75-2.61-1.66-3.92-2.49-1.31-.83-2.56-1.68-3.56.51-.12.26-1.83.15-2.51-.27-4.6-2.87-8.99-6.1-13.72-8.72-2.86-1.58-6.2-2.34-9.37-3.3-.85-.26-1.89.08-2.95.7,1.36.82,2.78,1.54,4.06,2.47,3.05,2.24,6.09,4.51,9,6.92.6.5.64,1.69.94,2.56-.82-.18-1.72-.21-2.45-.57-2.08-1.04-4.1-2.2-6.11-3.36-1.45-.84-2.29-.68-2.49,1.17-.19,1.77-1.22,1.91-2.38.89-5.72-4.99-12.59-7.85-19.52-10.57-3.01-1.18-6.14-2.07-9.24-3-.67-.2-1.46-.03-2.34.5,1.61.83,3.33,1.49,4.8,2.52,2.4,1.66,4.67,3.5,6.9,5.38.38.32.28,1.21.41,1.84-.6-.13-1.27-.14-1.79-.42-2.87-1.52-5.68-3.15-8.57-4.62-.67-.34-1.57-.25-2.36-.35-.06.2-.12.4-.19.6.8,1.11,1.6,2.23,2.53,3.52-.69.22-1,.44-1.25.39-4.8-.95-9.59-1.94-14.38-2.91-.45-.09-1.03-.42-1.34-.26-2.53,1.37-4.39-.47-6.49-1.22-8.16-2.94-16.35-5.81-24.5-8.8-2.61-.96-5.22-2.03-7.65-3.37-2.74-1.52-4.96-3.66-6.15-6.73-.35-.89-1.09-1.66-1.77-2.37-3.36-3.53-6.8-6.99-10.13-10.55-1.1-1.17-1.91-2.66-.55-4.14,1.26-1.37,2.65-.6,4.03.05,13.37,6.35,27.59,10.05,41.93,13.39,13,3.03,26.32,3.19,39.52,3.94,24.17,1.38,47.35,6.75,69.84,15.5,11.41,4.44,23.19,7.95,33.98,13.88,8.36,4.59,16.83,9.07,23.76,15.76,3.22,3.11,6.04,6.63,8.97,10.02,4.36,5.03,8.62,10.15,13,15.16,4.43,5.07,7.34,10.8,8.66,17.47,2.67,13.48,3.99,26.98,2.08,40.67-.27,1.92-.68,3.81-1.03,5.72-.94,5.09-1.93,10.17-2.79,15.27-.42,2.53-1.94,4.2-3.98,3.99-1.95-.21-3.29-2.03-3.2-4.43.04-1.08.2-2.16.28-3.24q.2-2.62-2.15-3.86c.3-.65.59-1.33.91-2,.51-1.04.64-1.93-.76-2.37-2.04-.64-1.63-1.83-.77-3.23.73-1.19,1.3-2.48,2.27-4.37-1.45.2-2.08.33-2.71.37-.63.04-1.27-.02-1.91-.04.05-.65-.04-1.36.17-1.95.95-2.67,1.98-5.3,2.95-7.85-.51-.33-.63-.49-.76-.49-.93.02-1.86.06-2.79.1.21-.95.36-1.91.63-2.84.47-1.64,1.04-3.25,1.51-4.89.17-.58.43-1.4.17-1.79-1.07-1.62-2.22-3.14-1.04-5.19-.53-.23-1.09-.7-1.56-.62-.41.06-.65.89-1.09,1.12-.62.31-1.36.37-2.05.54-.1-.63-.36-1.28-.26-1.88.42-2.59.99-5.16,1.43-7.75.25-1.51.1-2.76-1.96-2.93-.41-.03-1.05-1.32-1.02-2,.14-3.4.59-6.79.68-10.18.03-1.26-.62-2.55-.96-3.82l-1,.11ZM513.83,162.8c.35-.11.69-.22,1.04-.33.28-2.01-.21-3.71-2.52-4.7.49,1.68.99,3.35,1.48,5.03Z" style="fill: #000; stroke-width: 0px;"/>
  <path d="M195.38,118.99c.75-1.13,1.51-2.25,2.63-3.93-1.26.13-2.1,0-2.72.31-2.9,1.45-5.73,3.05-8.62,4.53-.59.3-1.32.34-1.98.51.19-.69.17-1.65.62-2.03,2.25-1.86,4.56-3.66,6.97-5.31,1.39-.94,3-1.55,4.51-2.31-.05-.26-.1-.53-.15-.79-2.02.33-4.17.32-6.02,1.05-7.56,2.99-15.23,5.78-22.01,10.42-.89.61-1.71,1.34-2.54,2.02-1.67,1.37-2.21,1.2-2.79-.85-.14-.5-.39-.96-.74-1.79-2.77,1.53-5.37,3.02-8.03,4.39-.65.33-1.49.28-2.24.41.21-.76.18-1.82.68-2.22,3.64-2.86,7.39-5.59,11.12-8.33.67-.49,1.43-.86,2.15-1.28-.02-.26-.05-.52-.07-.79-1.05,0-2.19-.27-3.13.05-3.43,1.16-6.98,2.17-10.13,3.9-4.4,2.41-8.48,5.41-12.69,8.17-1.04.68-1.94,1.26-2.88-.3-.28-.46-1.65-.76-2.21-.48-1.73.85-3.28,2.05-4.95,3.02-.51.29-1.2.27-1.81.39.14-.62.06-1.51.45-1.83,2.2-1.83,4.5-3.53,6.78-5.25.72-.55,1.49-1.03,2.12-1.85-2.34-.19-4.49.58-6.29,1.87-3.64,2.62-7.19,5.39-10.62,8.28-2.58,2.18-2.47,2.31-4.63-.46-1.79,1.27-3.55,2.63-5.44,3.79-.78.48-1.96.91-2.72.65-1.52-.52-2.28.19-3.22,1.08-3.77,3.56-7.6,7.06-11.42,10.57-.32.29-.75.45-1.51.89-.33-5.51,2.65-9.23,5.22-13.42-.66.35-1.47.55-1.96,1.06-2.92,3.08-5.95,6.09-8.6,9.39-3.87,4.83-7.4,9.94-11.21,14.83-1.14,1.46-2.73,2.57-4.12,3.84l-.77-.35c.25-1.07.29-2.25.78-3.2,2.06-3.99,4.25-7.91,6.38-11.86.27-.5.47-1.04.71-1.57-.19-.16-.39-.32-.58-.48-1.37,1.46-2.97,2.76-4.05,4.42-2.23,3.44-4.38,6.96-6.16,10.65-.86,1.77-.96,3.98-1.1,6.01-.1,1.48-.61,2.82-2.02,2.38-2.31-.73-2.7.42-3.05,2.13-.1.49-.43.93-.77,1.64-.87-.63-1.58-1.13-2.37-1.7-.09.32-.14.52-.2.73-.25.98-.5,1.97-.75,2.95-.71-.7-1.41-1.42-2.15-2.09-.37-.33-.81-.57-1.22-.85-.26.44-.66.85-.74,1.31-.16.91.04,1.91-.24,2.77-.35,1.06-1.06,2-1.56,3.02-.42.86-1.02,1.74-1.06,2.63-.13,2.71.02,5.42-.05,8.13-.02.67-.47,1.32-.73,1.98-.55-.54-1.51-1.03-1.6-1.64-.53-3.67-.87-7.38-1.25-11.07-.09-.84-.11-1.68-.16-2.52l-.76-.28c-.47,1.23-1.32,2.46-1.32,3.68,0,3.24.29,6.49.65,9.72.18,1.58.34,2.72-1.78,2.93-.47.05-1.23,1.36-1.16,2.02.26,2.61.85,5.19,1.21,7.8.11.81-.12,1.68-.19,2.52-.83-.39-1.68-.74-2.47-1.19-.37-.21-.61-.64-.96-1.04-.34.23-.79.39-.79.56-.1,4.12-2.45,8.29.24,12.35.17.25.29.56.33.86.11.72.17,1.46.25,2.19-.72-.06-1.44-.11-2.16-.17-.23-.02-.45-.03-.99-.07.07.64.03,1.23.21,1.73.81,2.26,1.71,4.49,2.5,6.75.19.53.28,1.32.01,1.72-.21.31-1.04.24-1.61.28-.64.05-1.29.03-1.93.04.03.67-.09,1.39.13,1.98.3.77.89,1.43,1.32,2.16.67,1.15.85,2.31-.67,2.84-1.79.62-1.55,1.6-.81,2.86.53.91,1.03,1.78-.55,2.36-.47.17-.88,1.17-.89,1.8-.03,1.54.24,3.09.29,4.64.09,2.41-1.3,4.18-3.29,4.33-1.93.15-3.44-1.51-3.84-3.88-.88-5.18-1.78-10.36-2.84-15.5-2.27-10.98-2.35-22.01-.98-33.08.52-4.23,1.4-8.41,2.04-12.62,1.09-7.14,4.45-13.11,9.13-18.5,4.92-5.67,9.73-11.44,14.47-17.25,5.66-6.94,12.49-12.43,20.1-17.07,9.9-6.03,20.18-11.21,31.14-15.02,11.71-4.07,23.31-8.46,35.12-12.25,17.32-5.55,35.25-7.58,53.35-8.57,15.17-.83,30.36-1.76,45.06-6.08,8.25-2.42,16.48-4.94,24.65-7.6,2.25-.73,4.3-2.11,6.42-3.24,1.41-.75,2.89-1.63,4.22-.15,1.43,1.59.42,3.12-.71,4.33-3.27,3.51-6.64,6.92-9.95,10.4-.68.72-1.41,1.48-1.8,2.36-1.32,3.06-3.41,5.43-6.39,6.79-3.8,1.73-7.71,3.23-11.61,4.72-7.74,2.95-15.52,5.82-23.28,8.72-.43.16-.99.55-1.29.41-2.89-1.36-5.39.65-8.09.86-2.14.17-4.29.31-6.41.64-1.36.21-2.67.75-4.01,1.15-.15-.19-.3-.39-.45-.58ZM60.92,158.05c-.23-.06-.47-.12-.7-.19-1.23,1.17-2.01,2.44-1.17,4.08l.82.2c.35-1.37.71-2.73,1.06-4.1Z" style="fill: #000; stroke-width: 0px;"/>
  <path d="M239.9,236.42c-.44-1.47-1.45-1.44-2.84-.18-.56-.83-1.15-1.46-1.46-2.21-.5-1.16-1.09-1.86-2.51-2.01-.64-.07-1.32-1.08-1.69-1.82-.33-.65-.14-1.56-.4-2.26-.18-.47-.76-.8-1.15-1.19-.33.45-.9.87-.95,1.34-.12,1.23.11,2.49-.02,3.71-.07.66-.6,1.28-.93,1.92-.61-.37-1.3-.67-1.82-1.14-.55-.49-.94-1.15-1.71-2.12-.47,1.16-.64,1.99-1.1,2.62-.6.84-1.32,1.66-2.16,2.23-1.1.74-2.37,1.22-4.17,2.11-.64-1.39-1.46-3.17-2.51-5.44-.63,1.54-1.05,2.72-1.61,3.84-.24.5-.73,1.19-1.13,1.21-.44.01-.95-.6-1.35-1.02-.78-.82-1.51-1.68-2.7-3.03-.28,1.4-.24,2.08-.55,2.51-.34.47-1.19,1.1-1.5.96-1.87-.84-3.91-1.59-5.37-2.94-1.34-1.23-2.36-1.5-4.06-.63.28.98.55,1.97.91,3.24-4.92.5-5.88-4.02-8.25-6.4-.73,1.13-1.26,1.95-1.79,2.77-.77-.79-1.44-1.74-2.35-2.33-1.32-.87-2.75-1.85-4.25-2.12-2.18-.4-3.09-1.61-3.35-3.54-.63-4.81,1-8.83,4.44-12.17.27-.27.76-.41.88-.71.17-.44.08-.97.11-1.46-.46.1-1.13.05-1.35.33-2.06,2.66-4.02,5.4-6.07,8.07-.55.72-1.28,1.3-1.92,1.95-.58-.86-1.68-1.75-1.64-2.58.13-2.44.68-4.86,1.13-7.28.12-.65.45-1.25.68-1.88-.21-.15-.43-.3-.64-.45-.99,1.33-1.97,2.65-3.23,4.35-.32-.93-.57-1.38-.61-1.85-.11-1.25-.58-1.61-1.83-1.17-.7.25-1.54.07-2.32.09.24-.91.19-2.09.77-2.67,2.29-2.3,4.78-4.41,7.19-6.6,3.11-2.83,6.22-5.66,9.25-8.42-1.71-1.1-2.37-.82-9.21,4.55.19-1.42,0-2.54.48-3.08,1.24-1.42,2.65-2.78,4.23-3.8,1.81-1.17,3.82-2.05,5.82-2.88,4.54-1.89,8.17-5.16,12.24-7.72,4.59-2.88,9.97-4.49,15.17-6.72-.86-2.2.85-2.77,2.55-3.19,2.7-.67,5.43-1.25,8.17-1.79,9.79-1.94,19.58-3.85,29.37-5.78,2.27-.45,4.54-.86,6.79-1.36,2.38-.53,4.86.27,6,2.05,1.09,1.71,1.01,4.2-.93,5.96-2.73,2.48-5.63,4.95-8.86,6.68-16.39,8.79-32.92,17.31-49.37,25.98-2.39,1.26-4.66,2.76-6.93,4.24-.69.45-1.3,1.12-1.77,1.81-1.76,2.55-1.4,3.38,1.69,4,17,3.44,34.24,4.62,51.52,5.37,5.69.25,7.54-1.48,8.26-7.09.35-2.77.58-5.55.95-8.31.17-1.3.43-2.61.87-3.84.99-2.77,3.19-4.28,5.78-4.19,2.73.1,5.25,2.03,5.93,4.76.33,1.34.45,2.76.44,4.14-.06,13.48-.16,26.97-.28,40.45-.02,1.86-.15,3.72-.35,5.56-.73,6.9-4.27,10.78-11.06,12.24-.75.16-1.56.29-2.22.66-4.01,2.25-7.94,1.57-12.1.23-6.18-1.98-12.51-3.53-18.79-5.18-2.31-.61-5.12-3.12-5.42-5.21-.39-2.8,1.28-4.53,3.39-5.86,1.16-.74,2.58-1.07,3.78-1.76,2.03-1.18,3.93-2.6,5.98-3.75,1.83-1.03,3.8-1.82,5.87-2.8ZM248.99,234.13c-.6-2.19-1.2-4.59-1.97-6.93-.13-.39-1.01-.82-1.46-.75-.46.07-1.05.69-1.18,1.17-.29,1.11-.25,2.31-.54,3.42-.13.49-.74.85-1.14,1.27-.42-.4-1.04-.72-1.22-1.2-.38-1-.47-2.11-.8-3.14-.11-.36-.56-.8-.9-.83-.26-.03-.88.61-.83.8.82,2.79,1.57,5.62,2.73,8.26.33.74,1.93,1,2.99,1.34,3.3,1.04,4.38.21,4.3-3.41ZM186.09,216.9c-.05-.08-.3-.88-.84-1.19-.27-.16-1.27.43-1.56.9-.76,1.24-1.54,2.55-1.87,3.94-.35,1.44-.33,3.02-.17,4.51.05.46,1.08.88,1.73,1.16.16.07.79-.47.87-.81.61-2.62,1.15-5.25,1.84-8.51ZM202.37,187.24c-4.34.52-8.73.96-12.57,3.39,4.88,1.59,8.6-1.38,12.57-3.39ZM201.68,222.82c-1.54,2.52-.66,7.77,1.53,9.4-.38-3.36-.27-6.49-1.53-9.4Z" style="fill: #000; stroke-width: 0px;"/>
  <path d="M362.51,172.42c5.03,2.07,9.81,3.89,14.43,6.03,1.76.81,3.15,2.41,4.73,3.62.98.74,1.93,1.56,3.02,2.1,3.74,1.88,7.56,3.59,11.27,5.51,1.28.66,2.56,1.56,3.46,2.66.75.93.95,2.31,1.39,3.49-.24.11-.49.22-.73.34-1.28-1.12-2.45-2.43-3.88-3.3-1.43-.87-3.06-1.87-4.92-.8.08.28.08.49.18.55,6.18,3.7,10.46,9.57,16.01,13.99.62.49,1.13,1.35,1.28,2.11.07.38-1.04,1.42-1.2,1.34-2.26-1.15-3.48-.6-3.25,2.71-.23-.16-.45-.32-.68-.48-.99-1.33-1.97-2.67-2.96-4l-.43.34c.55,2.21,1.25,4.4,1.6,6.64.19,1.24-.07,2.61-.39,3.85-.14.53-.95,1.2-1.46,1.21-.47,0-1.05-.72-1.43-1.24-2.1-2.83-4.14-5.69-6.24-8.53-.2-.27-.6-.39-.91-.58-.22.13-.44.25-.66.38.33.63.54,1.39,1.02,1.86,3.33,3.2,5,7.03,4.59,11.68-.19,2.18-.92,3.77-3.52,4.14-1.86.26-3.76.87-4.72,2.96-.3.65-1.23,1-1.87,1.49-.33-.69-.64-1.39-.98-2.08-.13-.26-.3-.5-.72-1.18-.55.95-.83,1.7-1.33,2.27-1.31,1.48-2.63,2.97-4.11,4.27-.46.41-1.44.24-2.18.33.02-.7.03-1.41.08-2.11.02-.3.11-.59.19-.99-1.41-.97-2.43-.94-3.84.29-1.57,1.36-3.58,2.34-5.55,3.06-.46.17-1.55-1.38-2.71-2.48-.36.33-1.11.99-1.83,1.67-.53.51-1.03,1.05-1.54,1.58-.47-.63-1.02-1.22-1.39-1.9-.48-.9-.82-1.89-1.39-3.24-1.06,2.28-1.89,4.06-2.53,5.43-1.82-.88-3.3-1.27-4.33-2.17-1.26-1.11-2.13-2.64-3.39-4.29-.46.55-.99,1.32-1.65,1.96-.41.39-1.2.93-1.49.77-.49-.26-.98-.99-1.02-1.56-.1-1.22.19-2.48.08-3.7-.05-.6-.66-1.14-1.01-1.71-.4.48-.95.9-1.16,1.45-.28.7-.17,1.56-.44,2.26-.24.6-.8,1.54-1.19,1.53-2.91-.13-2.91,2.6-4.11,4.1-.21.26.22,1.36.65,1.75,3.28,2.98,7.07,5.07,11.24,6.63,2.77,1.04,4.27,3.76,3.99,5.99-.28,2.17-3.01,4.74-5.51,5.42-6.72,1.81-13.46,3.59-20.13,5.61-3.43,1.04-6.63,1.31-9.9-.41-1.01-.53-2.19-.77-3.32-1.03-6.42-1.47-10.07-5.53-10.63-12.12-.3-3.55-.48-7.12-.51-10.68-.1-11.94-.1-23.87-.14-35.81,0-2.37.24-4.64,2.04-6.46,3.17-3.21,7.93-2.5,9.8,1.59.57,1.25.91,2.64,1.1,4.01.41,2.91.63,5.85.96,8.78.61,5.4,2.57,7.31,8.05,7.05,9.06-.43,18.13-.87,27.14-1.81,8.32-.86,16.57-2.32,24.84-3.63,2.94-.47,3.49-1.64,1.5-3.83-1.78-1.96-4.06-3.61-6.41-4.86-8.27-4.42-16.69-8.56-24.99-12.92-9.06-4.75-18.1-9.54-27.05-14.5-2.75-1.53-5.29-3.52-7.7-5.57-2.48-2.11-2.99-5.01-1.66-7.05,1.26-1.93,4.02-2.46,6.94-1.57,1.61.49,3.34.6,5,.93,5.08,1.03,10.16,2.1,15.25,3.12,7.66,1.53,15.33,2.99,22.98,4.56,1.6.33,3.35.83,2.32,3.2ZM334.76,228.57c-.4-.56-.72-1-1.03-1.45-.37.39-.9.73-1.09,1.19-.31.78-.26,1.71-.62,2.46-.29.6-.95,1.02-1.45,1.53-.38-.52-.94-.99-1.1-1.58-.27-.96-.15-2.02-.45-2.97-.17-.55-.81-1.26-1.29-1.3-.47-.05-1.3.56-1.47,1.06-.7,1.96-1.53,3.97-1.66,6-.1,1.5.85,4.38,1.27,4.37,1.98-.05,4.69-.29,5.72-1.58,1.63-2.06,2.14-5.01,3.17-7.73ZM392.43,222.9c-.77-1.88-1.52-3.96-2.49-5.93-.29-.59-1.2-.87-1.83-1.3-.24.79-.79,1.64-.67,2.37.39,2.34,1.01,4.64,1.6,6.93.12.45.48,1.14.79,1.17.53.05,1.32-.17,1.6-.57.46-.65.59-1.52,1-2.68ZM383.49,191.06c.09-.43.17-.86.26-1.29-4.18-1.02-8.36-2.03-12.55-3.05-.08.33-.16.66-.25.99,4.12,1.34,7.75,4.58,12.54,3.34ZM370.33,231.98c2.08-1.51,2.91-6.39,1.44-9.1-1.33,2.82-1.27,5.88-1.44,9.1Z" style="fill: #000; stroke-width: 0px;"/>
  <path d="M473.07,106.54c-.32-1.11-1.22-1.7-2.59-.79-1.87,1.25-3.64,1.5-5.62.24-.51-.32-1.33-.28-1.99-.23-1.48.1-2.33-.44-3.16-1.78-.69-1.13-2.39-1.62-3.17-2.72-1.15-1.62-2.28-.85-3.64-.67-1.2.16-2.5-.29-3.74-.55-.8-.17-1.57-.47-2.35-.73-.76-.25-1.51-.52-2.26-.78.55-.65,1.02-1.4,1.67-1.94,2.13-1.79,4.33-3.49,6.48-5.26.27-.22.41-.61.39-1.55-.92.21-1.89.29-2.75.66-3.98,1.71-7.91,3.54-11.89,5.24-.9.38-2,.64-2.93.48-.86-.14-2.06-.77-2.29-1.46-.21-.63.48-1.88,1.13-2.42,2.68-2.2,5.55-4.18,8.24-6.37.6-.49,1.25-2.01,1.03-2.25-1.02-1.08-2-.43-2.93.5-2.07,2.07-4.04,4.29-6.37,6.03-2.55,1.91-3.05,1.62-4.43-.63-2.73.56-5.29,1.11-7.86,1.59-.56.11-1.16-.01-1.74-.03.04-.65-.18-1.51.15-1.91,2.58-3.07,5.25-6.06,7.93-9.04.49-.55,1.15-.94,1.86-1.51-1.74-1.71-3.15-1-4.39.14-2.23,2.04-4.31,4.24-6.54,6.28-2.79,2.54-6.01,3.16-9.61,1.89-.68-.24-1.51-.05-2.26-.14-1.28-.15-2.62-.19-3.81-.61-.52-.19-1.07-1.25-1-1.85.05-.46,1-1.03,1.63-1.17,4.09-.89,6.66-3.84,9.55-6.37-.12-.25-.25-.5-.37-.75-.99.37-2.08.58-2.94,1.15-2.49,1.67-4.68,3.85-8.09,3.53-.56-.05-1.22.83-1.8,1.32-1.01.84-1.94,1.78-3.01,2.53-1.43,1.01-2.52,1.06-2.87-1.14-.33-2.03-1.64-1.32-2.74-.68-1.19.7-2.25,1.7-3.52,2.19-2.95,1.14-4.32.22-4.72-2.92-.04-.3-.14-.59-.29-1.16-.7.23-1.31.49-1.95.62-2.92.58-5.85,1.16-8.79,1.63-.49.08-1.4-.3-1.54-.67-.19-.54-.05-1.42.3-1.88.92-1.2,2.04-2.26,3.08-3.38-.13-.21-.26-.42-.39-.63-.94.56-1.9,1.07-2.8,1.68-2.41,1.65-4.7,3.53-7.24,4.94-.97.54-2.51.05-3.79.02.48-1.2.78-2.53,1.49-3.58.89-1.31,2.12-2.38,3.2-3.56-.14-.19-.28-.37-.42-.56-.7.45-1.41.89-2.09,1.37-2.4,1.7-4.73,3.52-7.21,5.08-.95.6-2.27.62-3.42.9.09-1.04.19-2.08.3-3.38,0,0-.35-.32-.63-.27-2.59.48-5.17,1.03-7.76,1.54-.45.09-.96.24-1.37.12-.61-.17-1.16-.57-1.73-.86.4-.47.71-1.06,1.2-1.38,3.83-2.54,7.69-5.04,11.7-7.64-1.5-1.43-2.49-1.21-3.81-.11-5.1,4.22-10.71,6.84-17.52,4.56-1.56-.52-3.15-1.23-2.05-3.47,4.99,1.36,8.74-1.55,12.89-3.02-.01-.33-.03-.66-.04-.99-.84-.05-1.74-.34-2.5-.12-3.33.94-6.57,2.26-9.94,2.98-4.16.9-7.47-1.37-10.63-3.69-.33-.24-.58-1.07-.42-1.4.88-1.81-.13-2.36-1.6-2.7-.3-.07-.66-.11-.87-.3-.74-.67-1.43-1.39-2.14-2.09.9-.2,1.81-.58,2.71-.56,3.2.06,6.4.26,9.87.41-.52-2.31-2.07-2.34-3.33-2.47-1.53-.16-3.1.04-4.64.03-2.55-.02-4.91-.62-6.81-2.47-1.18-1.15-2.27-2.28.18-3.43-2.11-1.68-4.03-3.11-5.8-4.7-.6-.54-.84-1.49-1.24-2.25.82.07,1.76-.08,2.45.26,2.12,1.03,4.16,2.25,6.58,3.59-.57-2.63-2.2-3.76-4.05-4.49-2.57-1.02-4.31-2.65-5.74-5.08-1.26-2.15-3.83-3.52-5.09-5.66-3.12-5.3-7.26-10.18-7.86-16.69-.06-.67-.42-1.31-.62-1.97-1.14-3.76-2.42-7.49-3.31-11.31-.24-1.02.38-2.97,1.14-3.31.96-.43,2.76-.04,3.68.66,7.26,5.58,12.72,12.85,18.45,19.89,6.6,8.11,13.4,16.05,20.16,24.04,5.83,6.89,13.23,10.98,22.23,11.74,8.49.72,17,1.26,25.51,1.56,19.35.67,38.63,2.33,57.33,7.29,19,5.05,35.94,14.05,47.55,30.84,2.57,3.71,5.02,7.56,5.26,12.23.09,1.79-.35,3.68-.93,5.39-.57,1.7-2.12,2.46-3.92,2.28-1.59-.16-3.18-.4-4.71-.82-.46-.13-.97-.97-1.02-1.52-.17-1.78-1.05-1.75-2.41-1.29-1.05.35-2.76,1.01-3.17.58-1.18-1.22-2.04-2.87-2.57-4.5-.15-.45,1.31-1.42,2.26-2.38ZM389.75,76.43c-1.89,1.33-3.43,2.41-4.96,3.5,0,.25,0,.5-.01.75.81.22,2,.88,2.36.58,1.3-1.12,3.54-1.87,2.62-4.82ZM456.49,98.02c2.29,2.02,3.53,1.03,4.5-.35.33-.46.12-1.3.16-1.97-.61.09-1.32.01-1.82.3-1.01.57-1.9,1.34-2.84,2.03Z" style="fill: #000; stroke-width: 0px;"/>
  <path d="M259.41,48.59c1.94-1.09,3.85-2.24,5.84-3.25.6-.3,1.41-.2,2.12-.29-.25.72-.3,1.66-.79,2.12-1.81,1.68-3.77,3.2-5.68,4.78,1.31,2.01,1.47,2.5-.57,3.8-1.8,1.15-4.03,1.78-6.15,2.24-1.55.33-3.25-.1-4.86.04-1.3.11-2.79.24-3.38,2.46,3.32-.16,6.36-.37,9.4-.41,1.03-.01,2.06.43,3.1.66-.87.75-1.69,1.6-2.64,2.22-.68.45-1.55.6-2.54.96,1.52,2.51-.03,3.57-1.77,4.69-3.45,2.21-7.08,3.09-11.06,1.81-2.56-.83-5.08-1.8-7.65-2.58-.64-.2-1.43.09-2.18.52,3.45,2.21,6.83,4.31,11.09,3.9.58-.06,1.18.18,1.78.28-.31.78-.46,2.1-.96,2.26-2.26.7-4.67,1.65-6.93,1.45-4.52-.41-8.68-2.16-12.02-5.42-1.18-1.16-2.24-1.08-3.72.13.77.54,1.35.97,1.96,1.36,3.46,2.18,6.93,4.34,10.37,6.56.32.2.64.77.58,1.09-.07.35-.55.79-.92.86-.66.14-1.4.14-2.07.01-2.58-.5-5.15-1.09-7.73-1.6-.31-.06-.68.15-.98.23-.04.3-.11.46-.08.59.24.91.5,1.81.75,2.71-1.07-.17-2.32-.05-3.16-.57-2.56-1.59-4.96-3.43-7.43-5.18-.68-.48-1.36-.94-2.05-1.42-.18.17-.36.34-.54.51.95,1.08,1.9,2.16,2.84,3.24.99,1.14,2.76,2.31,1.5,3.85-.52.64-2.82.47-3.9-.11-2.36-1.27-4.45-3.04-6.66-4.58-.88-.62-1.79-1.19-2.69-1.78l-.46.6c.84.93,1.78,1.79,2.48,2.82.47.69.58,1.62.86,2.44-.86.18-1.75.62-2.57.5-3.3-.48-6.57-1.13-10.06-1.76.04-.08-.16.18-.2.45-.45,3.61-2.25,4.58-5.52,2.92-.61-.31-1.17-.75-1.73-1.17-2.4-1.82-2.48-1.74-3.94.75-.29.49-1.95.87-2.17.61-2.9-3.38-7.19-4.03-10.9-5.81-1.03-.49-1.83-1.45-2.83-2.02-.8-.46-1.75-.66-2.79-.66,2.52,3.01,5.27,5.58,9.08,6.78.74.24,1.34.91,2.01,1.38-.62.71-1.12,1.65-1.9,2.08-.67.37-1.66.14-2.5.24-1.26.15-2.5.41-3.76.55-3.07.36-6.02.13-8.41-2.15-2.19-2.09-4.35-4.2-6.53-6.29-1.63-1.55-2.53-1.65-4.41-.34.7.64,1.4,1.18,2,1.82,2.47,2.66,4.95,5.31,7.31,8.07.47.55.42,1.55.61,2.35-.77.04-1.56.21-2.3.09-2.42-.4-4.83-.9-7.53-1.42-1.54,2.36-1.91,2.53-4.86.33-1.84-1.38-3.38-3.16-5.04-4.78-.44-.43-.72-1.2-1.22-1.36-.78-.24-1.68-.1-2.53-.11.23.7.25,1.66.73,2.06,2.69,2.2,5.56,4.19,8.22,6.42.75.63,1.02,1.82,1.51,2.76-.98.45-2.14,1.49-2.91,1.26-3.61-1.08-7.14-2.46-10.66-3.85-1.43-.57-2.71-1.51-4.14-2.11-.64-.27-1.45-.12-2.19-.15l-.33.81c2.18,1.79,4.36,3.59,6.55,5.35.48.38,1.13.57,1.56,1,.34.33.72.97.61,1.31-.12.37-.77.64-1.24.8-1.34.46-2.67,1.02-4.06,1.22-1.25.18-2.57-.18-3.84-.1-.86.05-1.94.19-2.49.73-1.42,1.4-3.86,1.75-4.32,4.13-.01.06-.12.14-.18.14-3.18-.39-6.15,2.75-9.45.57-1.24-.82-2.29-.72-2.89.85,2.96,1.48,2.59,1.32,1.29,4.34-1.24,2.89-2.63,2.9-4.95,1.6-1.11-.62-2-.14-2.11,1.2-.12,1.39-.78,1.86-2.15,1.75-.73-.06-1.51.22-2.24.44-2.85.88-4.88-.1-5.79-2.99-1.31-4.16-.04-7.99,1.9-11.61,4.02-7.47,9.33-13.95,16.12-19.02,13.5-10.09,28.54-16.65,45.29-19.32,18.63-2.98,37.34-4.76,56.21-5.15,6.71-.14,13.41-1.15,20.08-2.05,5.88-.79,10.96-3.58,14.91-7.95,7.17-7.92,14.28-15.92,21.05-24.17,6.39-7.79,12.23-16.03,20.09-22.48,1.19-.98,2.35-1.95,3.94-1.11,1.7.9,1.69,2.5,1.24,4.07-1.07,3.7-2.26,7.36-3.33,11.06-.4,1.39-.39,2.93-.95,4.25-1.13,2.7-2.7,5.22-3.76,7.94-1.74,4.45-5.39,7.37-8.12,11.02-2.23,2.98-4.61,5.22-7.86,6.83-.96.48-1.57,1.68-2.34,2.55.2.18.4.37.6.55ZM188.68,80.67l-.09-.73c-1.22-.91-2.39-1.89-3.69-2.66-.32-.19-1.06.32-1.6.51,1.03,1.17,1.95,2.48,3.14,3.44.36.29,1.47-.35,2.24-.57ZM116.69,98.78c-1.02-1.08-1.9-2.11-2.9-3-.28-.25-1.03-.22-1.42-.03-.27.14-.46.81-.38,1.18.35,1.59,2.65,2.58,4.7,1.84Z" style="fill: #000; stroke-width: 0px;"/>
  <path d="M441.6,610.95c1.65,5.28,3.8,10.48,3.39,16.11-.24.1-.48.21-.72.31-.51-.68-1.2-1.29-1.49-2.05-2.52-6.74-4.93-13.53-7.48-20.26-.39-1.02-1.17-2.15-2.09-2.66-2.62-1.46-2.69-3.9-2.59-6.26.15-3.32.74-6.62,1-9.94.15-1.82-.03-3.66.03-5.49.07-1.85.06-3.73.43-5.52,1.97-9.64,4.07-19.26,6.03-28.91.22-1.09-.24-2.31-.32-3.48-.06-.74-.2-1.56.02-2.23,1.29-3.98,2.45-8.01,4.07-11.86,3.78-9,7.74-17.93,11.75-26.83,1.62-3.6,3.56-7.05,5.39-10.55.27-.52.73-1.2,1.22-1.31,2.35-.54,3.31-2.41,4.35-4.23,2.5-4.37,5.13-8.68,7.42-13.16,4.8-9.43,11.82-17.21,18.4-25.35,7.48-9.25,14.56-18.81,18.47-30.19,1.41-4.12,2.03-8.55,2.67-12.89.82-5.51,1.2-11.08,1.95-16.59.47-3.44,3.29-4.36,5.92-2.07,3.02,2.62,5,5.91,5.87,9.81,1.18,5.29,1.46,10.69.04,15.91-3.52,12.99-7.79,25.7-16.22,36.51-6.15,7.88-12.46,15.64-18.56,23.56-2.26,2.94-4.3,6.08-6.12,9.31-6.82,12.07-14.11,23.91-18.92,37.01-.99,2.69-1.98,5.39-2.8,8.13-2.32,7.72-4.29,15.55-6.88,23.18-5.04,14.88-6.5,30.04-4.91,45.64.67,6.59,1.85,13.01,3.8,19.34,1.53,4.96,2.74,10.01,4.06,15.03.24.9.44,1.82.49,2.74.1,1.74-.37,3.31-2.18,3.96-1.89.68-3.32-.15-4.37-1.73-3.59-5.39-6.48-11.09-8.12-17.4-.52-2-1.44-3.9-2.18-5.85-.28.09-.55.18-.83.27ZM438.95,574.45c-.38.36-.53.44-.58.56-2.54,6.68-1.91,13.5-.69,20.29.21,1.19,1.53,2.19,2.34,3.27.24-.14.47-.27.71-.41-.59-7.82-1.18-15.65-1.78-23.71ZM448.75,524.48c-3,5.46-4.94,11.19-4.65,17.51,2.69-5.54,4.26-11.37,4.65-17.51Z" style="fill: #000; stroke-width: 0px;"/>
  <path d="M131.26,610.13c-.75,1.96-1.73,3.87-2.22,5.89-1.58,6.5-4.58,12.32-8.27,17.82-1.1,1.64-2.58,2.61-4.54,1.74-2.03-.9-2.45-2.78-1.96-4.72,1.41-5.63,2.86-11.26,4.46-16.85,6-20.95,6.25-41.84-.32-62.74-2.72-8.65-4.98-17.44-7.74-26.07-3.7-11.55-8.68-22.55-14.93-32.97-2.03-3.39-4.02-6.81-5.82-10.33-4.07-7.96-9.98-14.55-15.59-21.36-8.76-10.62-17.14-21.49-21.55-34.77-2.52-7.61-6.05-15.08-5.26-23.41.35-3.66,1-7.38,2.2-10.83.77-2.22,2.62-4.18,4.34-5.9.82-.82,2.62-1.32,3.69-1.01.94.28,1.97,1.83,2.13,2.94.84,5.89,1.28,11.84,2.15,17.73.59,3.96,1.32,7.97,2.62,11.73,3.75,10.85,10.45,19.99,17.42,28.94,5.47,7.03,11.25,13.84,16.26,21.19,4.18,6.12,7.36,12.91,11.14,19.32.77,1.31,2.24,2.21,3.35,3.33.64.64,1.39,1.26,1.77,2.04,2.94,6.06,5.91,12.11,8.65,18.26,3.66,8.21,7.15,16.48,10.63,24.77.77,1.85,1.2,3.84,1.74,5.78.14.51.37,1.22.15,1.57-1.39,2.2-.44,4.37,0,6.52,1.85,8.88,3.83,17.73,5.59,26.62.41,2.07.07,4.29.2,6.43.14,2.39.48,4.76.61,7.14.18,3.31.5,6.65.25,9.94-.09,1.24-1.61,2.38-2.48,3.57-.59.8-1.4,1.5-1.74,2.39-2.6,6.87-5.09,13.79-7.7,20.66-.25.66-1.11,1.1-1.69,1.64-.16-.75-.58-1.56-.43-2.25.77-3.7,1.67-7.38,2.56-11.06.28-1.16.7-2.29,1.05-3.44-.25-.09-.49-.17-.74-.26ZM135.04,574.45c-.16-.02-.31-.04-.47-.05-.6,7.85-1.2,15.7-1.8,23.55.23.11.46.21.7.32.74-.79,2-1.5,2.14-2.38.64-4.1,1.34-8.26,1.3-12.38-.04-3.03-1.2-6.04-1.87-9.06ZM129.2,541.14c.29-5.72-1.49-10.9-4.21-15.82.29,5.56,1.69,10.82,4.21,15.82Z" style="fill: #000; stroke-width: 0px;"/>
  <path d="M297.44,366.05c.32-1.48.35-2.63.83-3.53.38-.69,1.34-1.49,2.03-1.48.67.02,1.63.87,1.93,1.59,2.81,6.75,5.36,13.62,8.28,20.32,3.13,7.18,6.89,14.08,9.8,21.34,3.08,7.68,6.11,15.45,6.96,23.8.1.96-.34,1.97-.53,2.95-.6-.79-1.4-1.5-1.76-2.39-1.21-3.02-2.4-6.06-3.34-9.17-1.34-4.4-3.91-7.79-8.42-10.81.57,2.91.58,5.47,1.57,7.56,3.84,8.13,8.15,16.03,11.99,24.16,5.26,11.13,10.93,22.11,13.96,34.15.2.78.31,1.57.46,2.36-.27.15-.53.29-.8.44-.74-1.01-1.65-1.94-2.18-3.05-2.39-4.96-4.53-10.04-7.07-14.91-.87-1.67-2.68-2.84-4.03-4.27-1.66-1.76-3.84-3.3-4.83-5.39-4.64-9.79-8.97-19.73-13.34-29.65-.92-2.09-1.7-4.28-2.24-6.5-.73-2.99-.14-3.88,2.74-5.03,2.55-1.03,2.99-2.32,1.88-4.86-3.62-8.31-7.18-16.64-10.76-24.97-.21-.48-.46-.94-1.23-1.39-.1,1.63-.4,3.27-.25,4.87.26,2.69.77,5.37,1.26,8.04,2.78,14.89,3.56,29.96,3.99,45.06.04,1.26-.16,2.52-.25,3.78-.27.04-.54.08-.81.12-.25-.68-.63-1.34-.73-2.04-1.12-7.67-1.67-15.46-3.39-22.98-3.32-14.49-7.28-28.83-11.04-43.22-.16-.6-.93-1.04-1.41-1.55-.49.61-1.25,1.15-1.44,1.84-2.82,10.55-5.55,21.13-8.34,31.69-2.97,11.26-5.01,22.68-6.1,34.28-.06.61-.34,1.2-.52,1.79-.26,0-.52,0-.79,0-.16-.89-.5-1.79-.45-2.66.47-8.12,1.3-16.22,1.43-24.34.17-9.92,2.33-19.51,3.85-29.21.28-1.82-.2-3.76-.35-6.13-3.82,8.79-7.42,17.07-11.02,25.35-.25.57-.48,1.14-.75,1.7-1.23,2.63-.67,4.09,2.24,4.92,1.73.49,2.63,1.48,2.47,3.12-.21,2.06-.42,4.23-1.22,6.09-3.72,8.59-7.65,17.1-11.5,25.63-1.05,2.33-1.99,4.72-3.19,6.97-.68,1.27-1.56,2.82-2.75,3.37-6.75,3.1-7.79,10.04-10.85,15.61-.89,1.62-1.45,3.43-2.31,5.07-.53,1.01-1.33,1.88-2.01,2.81-.23-.11-.46-.21-.69-.32,0-.55-.15-1.16.02-1.65,2.09-5.91,3.81-11.99,6.42-17.66,6.22-13.51,12.87-26.82,19.34-40.22,1.22-2.53,1.96-5.15.73-8.41-1.86,2.27-4.2,4.31-5.46,6.88-2.11,4.29-3.5,8.94-5.28,13.4-.27.67-1,1.16-1.52,1.74-.21-.74-.68-1.51-.6-2.22,1.11-10.07,4.79-19.38,8.83-28.53,3.88-8.79,8.2-17.39,12.12-26.16,1.62-3.63,2.62-7.53,4.1-11.23.33-.83,1.4-1.75,2.22-1.85.59-.08,1.56,1.03,1.96,1.81.43.82.39,1.89.57,2.97.53-.13.87-.12,1.08-.29,2.32-1.83,2.55-8.04.27-9.88-2.13-1.71-2.03-3.92-1.57-6.15.69-3.34,1.53-6.65,2.43-9.94,1.76-6.47,2.89-13,2.62-19.74-.14-3.7.52-7.25,2.99-10.26,1.89-2.31,4.11-2.39,6.02-.09,1.95,2.35,3.11,5.1,2.99,8.13-.41,10.08,2,19.69,4.6,29.28.4,1.49.9,3.08.74,4.55-.15,1.41-1.09,2.73-1.69,4.09-.59,1.34-1.71,2.7-1.66,4.01.09,2.21-.15,4.84,2.76,6.49Z" style="fill: #000; stroke-width: 0px;"/>
  <path d="M431.02,156.69c0,.72.06,1.45-.02,2.16-.1.92-.31,1.82-.48,2.73-.92-.28-1.91-.42-2.74-.85-3.21-1.67-6.37-3.45-9.55-5.17-.34-.18-.74-.38-1.09-.34-.56.06-1.33.15-1.58.52-.22.33.03,1.13.3,1.58.63,1.05,1.51,1.96,2.05,3.05.24.5.13,1.5-.23,1.86-.29.28-1.27.09-1.82-.17-.9-.42-1.72-1.05-2.54-1.63-1.78-1.27-3.41-1.71-5.04.34-.35.44-1.64.72-2.07.43-4.24-2.83-9.22-1.34-13.74-2.49-1.94-.49-3.97-.63-5.96-.93-1.73-.27-3.4-.79-4.95.8-.48.49-1.78.41-2.65.27-1.91-.32-3.8-.79-5.66-1.31-1.95-.55-3.76-.66-5.58.51-.58.37-1.53.52-2.2.35-10.86-2.87-21.55-6.25-31.54-11.47-1.8-.94-3.42-2.45-4.71-4.04-.66-.82-.89-2.61-.43-3.52.38-.76,2.01-1.05,3.14-1.23.79-.13,1.68.22,2.5.45,13.43,3.73,27.24,4.23,41.02,4.53,17.9.39,35.8.18,53.7.54,11.54.23,23.14.72,34.4,3.52,13.46,3.35,26.1,8.56,36.07,18.68,6.6,6.7,11.3,14.5,13.02,23.94.59,3.27,1.75,6.43,2.56,9.66,1.05,4.2,1.47,8.42-.34,12.54-2.18,4.97-6.76,5.54-9.86,1.1-1.34-1.93-2.2-3.08-4.54-1.12-.67.56-2.55-.32-3.87-.54-.04-.27-.07-.54-.11-.81,1.2-.9,2.39-1.8,3.37-2.54-3.09-1.16-6.08-2.22-9-3.42-1.65-.68-.82-1.38.13-2.1,3.04-2.28,4.44-6.19,3.5-9.63-.07-.27-.26-.5-.58-1.12-.71,1.73-1.21,3.17-1.9,4.51-.27.51-.99.79-1.51,1.17-.24-.58-.7-1.17-.69-1.74.06-1.78.26-3.55.47-5.32.34-2.83-.27-3.54-3.09-3.87-.42-.05-.89-.99-1.05-1.6-.89-3.42-1.66-6.86-2.57-10.28-.13-.5-.75-.88-1.14-1.32-.37.51-.74,1.01-1.11,1.52-.59.82-1.09,2.2-1.8,2.33-.73.13-1.95-.79-2.46-1.58-1.31-1.99-2.29-4.19-3.5-6.26-.58-1-1.35-1.88-2.25-3.11-.51.89-.67,1.32-.95,1.64-.43.48-.94,1.23-1.42,1.23-.45,0-1.09-.74-1.31-1.29-.69-1.69-1.2-3.31-3.56-1.74-.41.28-1.6-.29-2.24-.74-1.39-.97-2.64-2.15-3.99-3.19-1.52-1.18-2.35-.82-2.57,1.05-.26,2.19-.71,2.37-2.56,1.22-2.3-1.43-4.68-2.73-6.99-4.13-1.53-.93-2.54-.61-2.83,1.18-.38,2.33-1.37,1.65-2.65.72-2.84-2.06-5.74-4.02-8.61-6.02-.22.17-.44.33-.66.5Z" style="fill: #000; stroke-width: 0px;"/>
  <path d="M141.73,156.18c-2.91,1.99-5.71,3.77-8.35,5.75-2.1,1.57-2.21,1.66-3-.72-.45-1.36-1.23-1.68-2.46-.98-2.42,1.38-4.88,2.69-7.23,4.17-2.03,1.28-2.41,1.17-2.67-1.16-.19-1.78-.96-2.17-2.41-1.15-1.07.76-2.15,1.53-3.1,2.44-1.54,1.47-3.07,2.42-5.27.49-.59,1.13-1.03,2.09-1.58,2.97-.3.48-.78,1.12-1.23,1.16-.44.04-1.16-.48-1.38-.94-1.07-2.3-1.94-1.12-2.68.14-1.45,2.46-2.72,5.03-4.25,7.44-.46.73-1.62,1.54-2.32,1.43-.65-.1-1.12-1.38-1.66-2.14-.36-.51-.72-1.03-1.08-1.55-.47.45-1.22.83-1.36,1.36-.88,3.41-1.58,6.87-2.46,10.29-.14.54-.82,1.32-1.28,1.34-2.2.08-3.18.97-2.99,3.13.16,1.85.48,3.69.56,5.54.03.74-.41,1.5-.63,2.24-.63-.56-1.46-1.01-1.85-1.71-.62-1.12-.94-2.4-1.44-3.75-2.01,2.85-.76,7.87,2.38,10.32,1.86,1.45,1.83,1.64-.28,2.58-1.8.81-3.53,1.79-5.37,2.49-.79.3-1.78.05-3.4.05,1.5,1.24,2.65,2.19,3.95,3.27-1.84,1.45-3.4,2.46-5.39.56-.28-.27-1.5.04-1.97.45-.86.75-1.38,1.88-2.2,2.67-2.75,2.64-6.62,2.22-8.08-1.28-1.12-2.69-2.18-6-1.63-8.71,2.19-10.96,3.67-22.23,10.5-31.7,4.84-6.7,10.74-12.16,17.95-16.24,13.95-7.88,29.04-11.65,44.91-12.1,21.22-.61,42.46-.63,63.68-1.25,11.3-.33,22.59-1.26,33.85-2.2,3.51-.29,6.95-1.54,10.42-2.33.98-.22,1.97-.48,2.97-.53,2.65-.14,4.17,2.17,2.61,4.31-1.24,1.71-2.91,3.28-4.72,4.35-2.78,1.65-5.8,2.93-8.8,4.16-3.87,1.58-7.77,3.1-11.75,4.39-3.74,1.22-7.58,2.16-11.4,3.12-.68.17-1.65.06-2.2-.33-1.79-1.25-3.57-1.14-5.53-.53-1.77.55-3.6,1.09-5.43,1.23-1.26.1-2.57-.52-3.86-.79-.78-.16-1.61-.46-2.37-.37-3.92.51-7.8,1.28-11.73,1.66-3.28.31-6.6.03-9.61,1.9-.47.29-1.8-.23-2.34-.77-1.18-1.17-2.22-1.53-3.66-.51-1.13.8-2.33,1.53-3.57,2.15-.55.28-1.27.22-1.91.32-.06-.72-.37-1.55-.11-2.12.43-.96,1.31-1.7,1.85-2.63.31-.53.33-1.24.49-1.86-.69-.14-1.53-.6-2.04-.36-3.33,1.6-6.59,3.34-9.87,5.06-.55.29-1.01.74-1.57.99-1.55.68-2.37.05-2.23-1.65.06-.84.14-1.68.17-2.53,0-.19-.21-.38-.61-1.09Z" style="fill: #000; stroke-width: 0px;"/>
  <path d="M369.92,755.36c2.54-.35,4.74-.92,6.93-.88,1.8.03,3.75.48,5.32,1.32,1.03.54,2.11,2.13,2.07,3.22-.04,1.2-1.04,2.99-2.1,3.46-11.95,5.28-19.79,14.6-26.48,25.44-8.05,13.04-13.1,27.12-16.76,41.89-4.12,16.65-9.19,33.04-16.96,48.39-3.45,6.81-7.88,13.13-11.93,19.63-.93,1.49-2.25,2.86-4.21,1.82-1.95-1.03-1.55-2.85-.87-4.5,1.17-2.87,2.44-5.69,3.64-8.55.35-.84.6-1.73.4-2.87-2.28,4-4.57,7.99-6.85,11.99l-.9-.35c.09-.82.04-1.69.29-2.46,3.63-11.18,6.87-22.47,11.13-33.47,3.16-8.16,4.41-17.07,6.48-25.65.54-2.26.98-4.54,1.46-6.82.42-2,.83-3.82.08-6.05-.58-1.74.18-4.16.91-6.06,2.73-7.16,5.51-14.32,8.62-21.31,3.36-7.55,6.95-15.01,10.75-22.35,4.26-8.24,10.16-15.04,18.89-18.81,2.61-1.13,5.39-1.94,8.17-2.51,1.06-.22,2.35.67,3.53,1.06-.38,1.16-.76,2.31-1.16,3.46-.09.27-.25.52-.46.97ZM367.25,754.87c-.13-.2-.26-.39-.4-.59-.5.08-1.08.03-1.5.27-3.71,2.03-7.49,3.96-11.03,6.25-1.22.79-1.81,2.53-2.7,3.84,4.75-2.34,9.08-4.79,13.34-7.37.91-.55,1.53-1.58,2.28-2.39Z" style="fill: #000; stroke-width: 0px;"/>
  <path d="M271.19,895.58c-2.3-4.06-4.6-8.11-6.89-12.17l-.54.25c1.18,2.91,2.37,5.81,3.54,8.72.55,1.36,1.37,2.71,1.5,4.11.09,1.02-.5,2.65-1.27,3.04-.78.4-2.23-.26-3.27-.71-.56-.25-.89-1.04-1.31-1.6-8.88-11.94-15.26-25.2-19.78-39.29-4.09-12.76-7.66-25.69-11.27-38.6-4.11-14.68-11.17-27.87-19.85-40.26-4.2-5.99-10.14-10.2-15.91-14.5-1.08-.8-2.53-1.12-3.84-1.59-1.81-.65-3.2-1.67-3.26-3.76-.06-2.22,1.35-3.65,3.28-3.93,2.85-.41,5.78-.32,8.67-.34.7,0,1.4.37,2.59.71-.45-.83-.67-1.13-.77-1.47-.35-1.09-1.23-2.56-.82-3.2.49-.77,2.13-1.26,3.19-1.15,5.45.57,10.25,2.95,14.63,6.1,6.06,4.35,10.27,10.27,13.57,16.86,6.7,13.35,13.31,26.75,18.13,40.93.97,2.86,2.4,5.78.65,8.94-.28.5,0,1.37.16,2.03,2.43,10.57,4.58,21.22,7.43,31.68,1.76,6.47,4.75,12.61,6.89,18.99,2.02,6.01,3.67,12.14,5.44,18.23.15.51.02,1.09.02,1.64-.31.11-.61.23-.92.34ZM206.02,754.87c.95.9,1.78,1.98,2.87,2.67,3.44,2.2,6.98,4.25,10.48,6.36.54.33,1.07.67,1.77,1.11-.27-4.09-8.74-10.07-15.11-10.14Z" style="fill: #000; stroke-width: 0px;"/>
  <path d="M366.88,717.65c1.66-.17,3.32-.47,4.98-.47,4.23.01,8.54-.33,12.67.38,4.81.82,8.06,5.05,8.5,9.91.08.84-.44,2.18-1.1,2.53-.76.41-2.38.41-2.92-.12-4.31-4.29-9.29-3.47-14.36-2.14-6.96,1.82-14.01,3.19-20.53,6.58-6.97,3.62-12.13,8.72-16.3,15.39-8.13,13.02-14.74,26.67-20.04,41.07-3.3,8.94-9.26,16.44-15.43,23.64-2.66,3.1-5.37,3.82-7.75,2.68-2.33-1.11-3.74-4.6-3.56-8.06.12-2.27-.26-4.56-.22-6.84.03-1.53.11-3.16.66-4.55,4.41-11.25,8.94-22.46,13.44-33.67.17-.42.38-.95.74-1.16,3.33-1.99,4.34-5.74,6.58-8.54,5.8-7.25,11.74-14.38,17.5-21.67,4.33-5.47,9.64-9.83,15.18-13.94,2.16-1.6,4.39-3.46,7.22-.93.35.31,1.45-.07,2.13-.32,4.14-1.54,8.16-3.47,12.4-4.6,2.99-.8,6.26-.66,9.4-.68.83,0,1.66.99,2.48,1.52-.83.39-1.63.97-2.5,1.14-3.13.61-6.29,1.08-9.43,1.61.09.41.17.83.26,1.24ZM312.56,768.35c-.26-.11-.52-.22-.77-.33-3.05,3.21-7.1,12.28-6.4,15.79,2.39-5.15,4.78-10.31,7.17-15.46Z" style="fill: #000; stroke-width: 0px;"/>
  <path d="M206.74,716.75c-1.45-.44-2.87-.99-4.35-1.28-1.74-.34-3.55-.35-5.29-.69-.8-.15-1.51-.74-2.27-1.13.67-.51,1.31-1.37,2.03-1.45,2.06-.25,4.29-.67,6.21-.14,5.27,1.47,10.44,3.32,15.6,5.18,1.41.51,2.41.72,3.84-.14.88-.52,2.69-.43,3.56.16,3.52,2.38,7.18,4.71,10.14,7.7,5.48,5.54,10.73,11.35,15.65,17.4,4.62,5.69,8.24,12.23,13.11,17.66,7.27,8.1,9.29,18.49,13.47,27.93,1.25,2.83,2.22,5.79,3.22,8.72.83,2.42,1.44,4.85.54,7.48-.37,1.08.14,2.44.06,3.66-.15,2.13-.06,4.39-.77,6.34-1.29,3.54-5.09,4.65-7.94,2.21-2.62-2.24-4.84-4.98-7.01-7.68-7.25-8.99-11.8-19.4-15.63-30.18-4.21-11.87-11.34-22.18-17.85-32.8-4.27-6.96-11.17-10.75-18.47-13.44-6.29-2.32-12.89-3.88-19.46-5.3-3.64-.79-7.39-.47-10.36,2.63-.62.65-2.52.86-3.25.38-.72-.47-1.18-2.18-.95-3.16,1.46-6.25,4.83-9.3,11.27-9.9,3.2-.3,6.48.09,9.71.24,1.66.08,3.32.31,4.97.48.07-.3.14-.6.21-.89ZM267.52,782.51c.33-.16.65-.33.98-.49-1.42-4.88-3.17-9.6-6.49-13.57-.25.12-.51.24-.76.36l6.28,13.7Z" style="fill: #000; stroke-width: 0px;"/>
  <path d="M380.66,272.87c-.77.04-1.61.29-2.31.08-1.1-.33-2.71-.76-3-1.55-.35-.96.1-2.62.81-3.48,1.61-1.96,3.68-3.55,5.37-5.46.59-.66.61-1.82.95-2.73.33-.88.55-1.93,1.17-2.54,4.6-4.58,9.25-9.1,13.96-13.56,2.07-1.96,3.5-4.57,6.82-5.25,1.35-.28,2.3-2.54,3.43-3.91,2.45-2.99,4.84-6.04,7.4-8.93.54-.61,1.89-1.12,2.55-.87,1.72.66,2.58-.18,3.61-1.23,3.18-3.21,6.42-6.37,9.65-9.52.32-.32.73-.66,1.15-.74,5.4-1.13,6.5-5.85,8.33-9.94.37-.84.38-1.85.78-2.67.73-1.49,1.86-1.99,3.41-.98,3.48,2.27,3.99,3.51,2.95,7.57-.31,1.2-.76,2.36-1.1,3.55-.58,2.04-.06,2.46,2,2.09,1.73-.31,3.59-.67,5.25-.33,4.13.83,6.59,5.39,4.95,9.96-1.21,3.35-3.1,6.65-5.4,9.38-8.09,9.6-17.69,17.54-28.21,24.38-.78.5-1.61.94-2.46,1.32-9.72,4.26-19.37,8.69-29.21,12.66-4.03,1.63-8.46,2.25-12.7,3.34-.05-.21-.11-.42-.16-.63Z" style="fill: #000; stroke-width: 0px;"/>
  <path d="M191.97,272.84c-5.16.23-10.29-1.75-15.36-3.97-8.16-3.57-16.32-7.14-24.44-10.79-7.53-3.39-13.61-8.84-19.8-14.13-5.84-5-11.6-10.12-15.47-16.88-1.19-2.08-2.16-4.55-2.33-6.9-.4-5.72,3.69-8.93,9.3-7.71,3.35.72,3.55.49,2.55-2.85-.31-1.04-.6-2.09-.83-3.15-.8-3.65.08-5.57,3.5-7.08.64-.28,1.69.16,2.48.47.33.13.65.75.67,1.16.16,4.07,3.07,6.79,4.89,10.03.38.68,1.15,1.54,1.8,1.6,3.1.26,4.57,2.61,6.46,4.52,2.47,2.5,5,4.94,7.61,7.29.44.4,1.41.19,2.12.34,1.1.23,2.6.17,3.2.86,3.13,3.63,5.97,7.51,9.04,11.19.77.93,2.04,1.45,3.1,2.12.7.44,1.57.69,2.15,1.24,4.73,4.56,9.42,9.16,14.1,13.77,1.21,1.19,2.39,2.43,3.51,3.71.39.44.95,1.2.81,1.56-.91,2.19.74,3.04,1.94,4.2,1.45,1.39,3.02,2.73,4.17,4.35.71.99,1.28,2.66.9,3.65-.31.81-2.06,1.18-3.24,1.51-.71.2-1.54-.04-2.82-.11Z" style="fill: #000; stroke-width: 0px;"/>
  <path d="M48.13,343.51c-.1-13.86,4.39-26.36,11.24-38.15,2.65-4.55,4.99-9.43,8.39-13.37,5.18-6.02,10.89-11.65,16.85-16.92,5.15-4.55,10.97-8.33,16.43-12.54,3.12-2.41,6.01-5.13,9.19-7.46,2.71-1.98,5.7-3.6,8.57-5.37.85-.52,1.75-.97,2.57-1.53,1.82-1.24,3.86-1.08,4.98.42,1.15,1.55.62,3.34-1,4.9-15.12,14.54-33.05,25.96-47,41.75-12.91,14.6-21.58,31.22-20.95,51.45.23,7.56,2.98,13.97,8.73,19.09,4.36,3.88,8.69,7.72,14.22,9.91,1.51.6,2.87,1.6,2.28,3.5-.59,1.92-2.26,1.89-3.86,1.57-8.37-1.63-16.06-4.74-22.28-10.77-6.55-6.35-7.99-14.62-8.34-23.23-.04-1.08,0-2.17,0-3.25Z" style="fill: #000; stroke-width: 0px;"/>
  <path d="M525.6,344.54c-.35,3.38-.58,6.78-1.08,10.14-1.52,10.19-7.25,17.33-16.49,21.53-4.13,1.87-8.58,3.06-12.91,4.46-.84.27-1.94.36-2.72.04-.72-.3-1.77-1.47-1.62-1.89.39-1.11,1.13-2.52,2.11-2.94,5.45-2.33,9.88-6.01,14.26-9.87,5.97-5.27,8.73-11.85,8.96-19.68.44-15.1-4.8-28.34-12.96-40.73-8.4-12.76-20.17-22.18-31.44-32.08-5.58-4.9-11.68-9.2-17.42-13.94-2.48-2.05-4.67-4.47-6.91-6.8-1.23-1.28-1.27-2.83-.17-4.23,1.12-1.41,2.62-1.56,4.19-.8,2,.97,4.01,1.94,5.95,3.02,1.48.82,3.12,1.59,4.26,2.78,5.89,6.19,13.44,10.22,19.93,15.58,7.34,6.05,15.3,11.79,21.12,19.15,12.93,16.36,23,34.31,22.93,56.27Z" style="fill: #000; stroke-width: 0px;"/>
  <path d="M113.5,310.39c-.93,3.55-1.57,7.48-2.98,11.1-3.21,8.29-8.25,15.44-15.13,21.12-6.32,5.22-12.15,4.97-18.43-.22-2.38-1.97-4.99-3.66-7.53-5.44-3.45-2.42-4.04-4.5-3.02-8.59.78-3.14,1.05-6.41,1.65-9.6.46-2.43.85-4.91,1.66-7.23,2.2-6.33,7.28-9.61,13.95-9.34,2.85.12,5.71.2,8.56.22,5.09.04,8.08,3.99,6.35,8.8-1.14,3.2-2.69,6.26-4.16,9.33-.39.81-1.06,1.55-1.77,2.11-1.68,1.33-3.77.77-4.58-1.21-.34-.84-.41-1.8-.57-2.71-.21-1.18-.02-3.08-.67-3.41-1.5-.79-3.38-1.02-5.13-1.09-.66-.02-1.82.93-1.96,1.6-.97,4.6-1.73,9.24-2.52,13.88-.05.32.19.76.42,1.03,1.7,2.02,6.05,2.98,8.32,1.55,7.34-4.61,13.08-10.68,16.12-18.92,1.47-3.98,1.18-8.08-.31-12.07-.95-2.54-2.03-5.03-2.9-7.6-1-2.99-.18-5.38,2-6.45,2.19-1.07,4.81-.38,6.44,2.16,1.36,2.13,2.6,4.47,3.25,6.89,1.19,4.47,1.91,9.06,2.92,14.08Z" style="fill: #000; stroke-width: 0px;"/>
  <path d="M459.95,309.39c1.22-5.1,2.26-10.25,3.75-15.27.61-2.07,2-4.02,3.38-5.74,1.39-1.72,3.45-2.04,5.51-1.09,1.9.88,2.87,3.01,2.27,5.34-.52,2.02-1.21,4.02-2.1,5.9-3.64,7.69-2.7,14.83,2.13,21.71,3.12,4.44,6.92,8.15,11.31,11.26,3.24,2.29,6.42,2.05,9.36-.53.4-.35.76-1.08.7-1.58-.56-4.06-1-8.16-1.92-12.14-.73-3.18-5.45-4.27-7.81-2.01-.37.36-.43,1.11-.51,1.7-.14,1.07.09,2.28-.33,3.2-.52,1.16-1.44,2.79-2.38,2.94-1.12.17-2.79-.73-3.61-1.69-1.13-1.31-1.74-3.08-2.47-4.7-.86-1.9-1.8-3.8-2.39-5.79-1.4-4.67,1.49-8.43,6.35-8.49,2.86-.03,5.72-.08,8.57-.22,6.7-.31,11.86,2.89,14,9.25,1.08,3.21,1.49,6.64,2.16,9.98.56,2.8,1.01,5.63,1.57,8.43.55,2.75-.4,4.88-2.57,6.51-3.47,2.6-6.94,5.2-10.47,7.73-4.23,3.03-8.69,2.92-13.17.61-10.15-5.23-21.03-23.79-20.67-35.16-.2-.05-.41-.1-.61-.15Z" style="fill: #000; stroke-width: 0px;"/>
  <path d="M286.67,429.5c.76-1.16,1.1-2.16,1.8-2.62.87-.57,2.24-1.21,2.99-.88.78.33,1.53,1.82,1.47,2.75-.1,1.58-.75,3.15-1.33,4.66-1.24,3.23-1.35,6.41-.47,9.78,4.46,17.08,8.96,34.14,13.11,51.3,1.91,7.9,3.06,15.98,4.49,23.99.26,1.44.48,2.97.25,4.38-.14.84-1.14,2.07-1.86,2.15-.71.08-1.96-.93-2.25-1.72-.63-1.73-.85-3.61-1.15-5.44-2.55-15.62-8.12-30.37-12.93-45.34-.88-2.73-1.82-5.44-2.82-8.13-.21-.56-.85-.95-1.29-1.43-.44.48-1.09.88-1.28,1.44-6.32,18.8-13.3,37.41-16.48,57.12-.27,1.66-.34,3.86-2.71,3.57-2.51-.31-2.13-2.61-1.82-4.29,1.92-10.59,3.56-21.26,6.06-31.72,3.19-13.33,7.15-26.48,10.67-39.73.81-3.06,1.34-6.21,1.7-9.35.18-1.56-.14-3.23-.51-4.79-.47-1.95-1.26-3.83-1.83-5.76-.44-1.49-.13-2.89,1.37-3.55,1.55-.68,2.67.23,3.51,1.48.38.55.7,1.15,1.29,2.14Z" style="fill: #000; stroke-width: 0px;"/>
  <path d="M299.68,517.68c-.34.86-.66,1.99-1.21,2.98-.84,1.51-1.91,1.48-3.2.34-2-1.77-3.98-3.63-6.24-5-1.09-.65-3.1-.81-4.18-.22-2.32,1.26-4.45,2.99-6.38,4.82-1.75,1.66-2.94,1.77-3.76-.53-.5-1.41-.63-3.15-.33-4.63,1.02-5.07,2.51-10.04,3.42-15.12.96-5.4,2.5-10.55,5.43-15.18,2.25-3.57,4.99-3.73,6.85,0,2.21,4.45,3.86,9.23,5.25,14.02,1.62,5.55,2.69,11.25,4,16.88.1.45.19.9.35,1.64ZM286.58,509.3c3.79,0,4.17-.05,3.81-3.72-.28-2.9-1.46-5.77-2.62-8.5-.54-1.28-1.86-.95-2.43.37-.85,1.99-1.77,3.98-2.32,6.06-1.15,4.32-.15,5.8,3.56,5.79Z" style="fill: #000; stroke-width: 0px;"/>
  <path d="M236.51,501.01c.29-1.03.46-2.11.9-3.08,7.08-15.58,14.2-31.15,21.31-46.73.61-1.34,1.02-2.8,1.82-4,.52-.79,1.58-1.22,2.4-1.81.49.79,1.39,1.58,1.39,2.37,0,2.52.12,5.2-.66,7.54-2.54,7.7-5.37,15.32-8.27,22.9-1.2,3.13-3.33,5.54-6.81,6.49-.7.19-1.37.98-1.78,1.66-2.57,4.24-5.04,8.54-7.59,12.79-.5.84-1.23,1.54-1.86,2.31-.28-.15-.57-.3-.85-.44Z" style="fill: #000; stroke-width: 0px;"/>
  <path d="M335.93,501.42c-.62-.81-1.32-1.56-1.84-2.42-2.51-4.18-4.93-8.42-7.46-12.58-.44-.73-1.18-1.55-1.94-1.77-2.85-.81-4.69-2.7-5.94-5.19-4.3-8.54-7.39-17.53-9.6-26.82-.38-1.61-.25-3.4-.07-5.07.08-.76.92-2.08,1.33-2.04.83.07,1.89.7,2.33,1.42.97,1.56,1.62,3.33,2.39,5.01,7.04,15.51,14.08,31.01,21.08,46.53.35.77.4,1.68.58,2.53-.28.14-.56.27-.85.41Z" style="fill: #000; stroke-width: 0px;"/>
  <path d="M250.84,515.67c-.16-7.41.45-14.68,3.76-21.52.96-1.98,1.15-4.32,2.05-6.34.36-.82,1.66-1.65,2.54-1.66.57,0,1.58,1.44,1.64,2.29.12,1.75-.13,3.55-.46,5.29-1.73,9.07-2.46,18.23-2.29,27.46.03,1.43-.36,2.66-2.06,2.85-1.7.19-1.92,1.37-1.78,2.69.24,2.23.66,4.44.85,6.68.06.71-.35,1.46-.54,2.19-.51-.6-1.34-1.14-1.47-1.81-.83-4.4-1.57-8.81-2.19-13.25-.22-1.59-.04-3.25-.04-4.87Z" style="fill: #000; stroke-width: 0px;"/>
  <path d="M318.25,535.52c0-.71-.07-1.42.01-2.12.25-2,.61-3.98.83-5.98.19-1.68.27-3.25-2.16-3.56-.58-.07-1.41-1.47-1.42-2.26-.04-10.08-.78-20.09-2.73-29.99-.24-1.2-.3-2.51-.06-3.69.15-.75.93-1.78,1.58-1.9.67-.12,1.72.54,2.22,1.16.65.82.96,1.93,1.34,2.93,4.57,11.94,6,24.23,4.08,36.88-.34,2.21-.9,4.4-1.52,6.55-.24.82-.91,1.51-1.39,2.26l-.78-.29Z" style="fill: #000; stroke-width: 0px;"/>
  <path d="M368.47,333.43c.98,1.14,1.79,2.49,2.96,3.38,9.9,7.54,19.88,14.98,29.8,22.5,1.02.78,1.85,1.87,2.59,2.93.27.39.29,1.42,0,1.65-.43.35-1.41.57-1.82.31-3.59-2.28-8.27-3.92-10.37-7.2-3.29-5.13-8.37-7.49-12.72-10.94-4.41-3.5-9.3-6.39-13.96-9.57-1.25-.85-3.6-1.32-2.51-3.42.99-1.9,2.87-.64,4.37-.19.59.18,1.16.41,1.74.62,0,0-.07-.07-.07-.07Z" style="fill: #000; stroke-width: 0px;"/>
  <path d="M204.75,333.51c1.17-.41,2.31-1.04,3.51-1.15.91-.08,1.88.51,2.83.8-.45.87-.69,2.05-1.4,2.55-6.4,4.48-12.89,8.83-19.33,13.25-1.91,1.31-3.82,2.65-5.58,4.16-.86.74-1.37,1.88-2.06,2.83-.44.61-.82,1.33-1.41,1.74-2.99,2.08-5.99,4.14-9.09,6.04-.69.42-1.79.19-2.7.25.21-.89.12-2.13.69-2.62,4.01-3.5,8.05-7.01,12.29-10.22,6.66-5.04,13.53-9.81,20.24-14.79.91-.68,1.41-1.93,2.09-2.91,0,0-.07.07-.07.07Z" style="fill: #000; stroke-width: 0px;"/>
</svg>