<?xml version="1.0" encoding="UTF-8"?>
<svg id="Layer_1" data-name="Layer 1" xmlns="http://www.w3.org/2000/svg" viewBox="0 0 721.67 900">
  <path d="M149.84,691.3c-.95,1.33-2,2.6-2.83,4-3.81,6.41-8.93,8.47-15.73,5.47-10.14-4.47-18.8-10.97-23.59-21.29-4.27-9.21-8.4-18.63-9.34-28.86-.77-8.34-.83-16.76-.87-25.14-.04-9.3-1.32-18.42-3.57-27.38-2.77-11.06-5.52-22.16-9.14-32.96-2.22-6.61-5.98-12.72-9.17-18.99-4.45-8.74-7.53-17.75-6.33-27.79.83-6.94,3.94-12.36,9.93-16.1,5.04-3.14,10.14-2.62,14.02,1.86,2.52,2.91,4.68,6.12,7.02,9.19.58.76,1.24,1.46,1.93,2.28.3-.37.5-.49.5-.62.13-6.28.39-12.57.27-18.84-.04-1.92-.97-3.89-1.81-5.69-.26-.55-1.71-.99-2.42-.79-2.25.63-4.4,1.65-6.62,2.4-5.48,1.86-8.97-.12-10.27-5.76-1.08-4.69-1.05-4.58-5.6-3.11-3.34,1.08-6.75,2.08-10.2,2.67-4.93.84-8.95-1-11.69-5.21-6.09-9.35-12.54-18.51-17.98-28.22-4.19-7.49-7.24-15.65-10.41-23.67-.82-2.08-.13-4.73-.29-7.11-.05-.73-.42-1.8-.97-2.09-5.69-2.94-9.77-7.52-11.43-13.49-5.29-18.98-11.36-37.9-11.74-57.82-.2-10.7.82-21.45,1.74-32.14.54-6.22,2.95-11.89,7.94-16.09,1.04-.87.87-1.62-.01-2.51-.77-.77-1.45-1.63-2.08-2.52-7.86-11.11-7.56-21.04.98-32.95q2.79-3.9-.57-7.21c-11.38-11.22-12.79-28.67-2.77-41.2,4.05-5.06,9.18-9.28,13.96-13.72,1.44-1.34,1.96-2.36,1.19-4.29-2.49-6.23-2.53-12.63-.68-19.02,1.95-6.75,4.94-13.02,9.02-18.75,3.28-4.6,7.57-8.03,12.61-10.57,2.92-1.47,5.76-3.1,8.66-4.62,1.4-.74,1.85-1.67,1.29-3.28-5.87-16.82,1.84-36.92,18.1-45.06,7.2-3.61,14.34-7.36,21.54-10.96,1.77-.88,2.42-1.69,1.77-3.87-2.1-7-.21-13.52,4.23-18.88,3.43-4.14,7.56-7.94,12.03-10.91,14.41-9.55,30.46-15.52,47.01-20.19,13.2-3.72,26.6-6.42,40.37-6.75,3-.07,6.02.28,9.03.31.82,0,1.97-.22,2.4-.78,2.67-3.46,6.3-5.53,10.18-7.18,19.21-8.16,39.1-13.31,60.12-12.77,14.79.38,29.46-.28,44.2-1.83,10.27-1.08,20.77-.02,31.17.17,1.22.02,2.41.73,3.65.88,1.46.18,2.97.23,4.43.08,2.73-.28,5.44-1.02,8.16-1.09,8.8-.23,17.61-.38,26.42-.26,3.84.05,7.66,1.01,11.5,1.26,6.69.44,13.42,1.21,20.08.85,24.46-1.34,48.06,2.04,70.68,11.6,4.73,2,9.42,4.04,12.71,8.3.41.53,1.48.94,2.16.84,8-1.17,15.95-.3,23.81.89,25.38,3.83,49.52,11.43,71.63,24.76,6.39,3.85,12.09,8.52,15.58,15.35,2.62,5.13,3.63,10.46,1.72,16.06-.57,1.66.3,2.28,1.52,2.9,6.15,3.09,12.23,6.33,18.44,9.29,9.54,4.54,16.88,11.12,20.86,21.14,3.32,8.37,3.72,16.83.93,25.36-.67,2.06-.23,3.13,1.56,4.04,2.69,1.37,5.3,2.91,8.01,4.24,6.36,3.13,11.5,7.63,14.87,13.85,2.43,4.48,4.65,9.13,6.42,13.91,2.59,7,2.59,14.16-.25,21.17-.62,1.52-.26,2.44.92,3.48,3.84,3.38,7.78,6.67,11.34,10.33,7.96,8.19,11.11,17.94,8.91,29.33-1.32,6.82-4.78,12.34-9.97,16.76-2,1.7-1.94,2.88-.35,4.69,1.27,1.44,2.3,3.1,3.3,4.74,6.72,10.95,5.79,21.93-2.82,31.51-1.43,1.59-1.36,2.42.19,3.81,4.56,4.08,6.52,9.55,7.27,15.39,2.47,19.09,3.15,38.14-1.58,57.05-2.16,8.63-4.04,17.33-6.26,25.95-.89,3.47-2.09,6.92-3.61,10.16-2.08,4.42-5.31,7.96-9.82,10.09-1.35.64-1.57,1.29-1.2,2.72.38,1.49.5,3.2.18,4.69-.6,2.77-1.32,5.59-2.49,8.16-4.31,9.45-8.36,19.03-14.61,27.5-3.73,5.05-6.93,10.5-10.22,15.86-4.42,7.19-8.42,9.01-16.66,6.96-3.17-.79-6.25-1.94-9.33-3.04-1.44-.51-2.22-.32-2.47,1.31-.19,1.24-.48,2.47-.8,3.69-1.22,4.53-4.44,6.43-9,5.13-2.25-.64-4.45-1.53-6.6-2.45-2.02-.87-3.5-.66-3.94,1.71-.5,2.67-1.03,5.37-1.13,8.08-.16,4.27.03,8.55.07,12.83,0,.88,0,1.76.6,2.9.67-.76,1.39-1.49,2.01-2.3,2.3-2.99,4.4-6.15,6.87-8.98,3.96-4.54,9.15-4.99,14.24-1.73,6.41,4.11,9.27,10.12,9.87,17.49.73,8.94-1.36,17.39-5.86,24.89-13.37,22.28-18.51,47.01-22.05,72.2-1.07,7.59-.78,15.41-.68,23.12.11,8.26-1.06,16.27-3.88,23.97-3.02,8.25-5.68,16.66-11.47,23.65-5.1,6.15-11.66,10.14-18.72,13.23-6.55,2.86-11.67.59-15.25-5.62-.82-1.42-1.86-2.71-2.8-4.06-.23.06-.45.12-.68.18-.04.75-.15,1.5-.11,2.25.8,15.09,1.79,30.16,2.38,45.26.66,16.67-2.68,32.73-8.27,48.35-7.3,20.42-19.51,37.6-34.16,53.49-17.17,18.61-37.43,32.81-60.24,43-15.53,6.94-31.5,13.51-48.83,15.25-14.72,1.48-29.07.84-43.06-4.91-4.18-1.72-9.17-1.57-13.82-1.94-3.67-.29-7.4-.31-11.07,0-3.9.33-8.03.51-11.57,1.95-18.93,7.74-38.19,7.15-57.35,2.03-25.33-6.78-48.85-17.73-70.07-33.31-12.33-9.05-22.71-20.13-32.69-31.62-19.44-22.4-30.64-48.54-33.31-77.88-1.26-13.87.09-27.98.43-41.98.14-5.87.71-11.73,1.08-17.59.04-.71,0-1.43,0-2.15-.28-.11-.57-.22-.85-.33ZM206.63,220.4c-8.24.45-17.71.88-27.16,1.54-3,.21-5.99.85-8.92,1.53-25.65,5.96-47.31,19.16-66.17,37.13-8,7.62-16.17,15.26-20.69,25.73-3.81,8.85-8.62,17.45-11.01,26.67-2.97,11.48-4.44,23.49-3.75,35.45,1.07,18.37,3.41,36.63,7.85,54.51,4.33,17.43,11.44,33.65,22.69,47.88,4.97,6.29,9.06,13.14,11.51,20.84,4.09,12.89,5.91,26.17,6.54,39.64.05,1.05-.29,2.12-.48,3.18-.31,1.75-1.16,3.58-.86,5.21.58,3.18,1.34,6.47,2.82,9.31,3.11,5.94,6.56,11.72,10.16,17.37,7.36,11.57,13.99,23.54,19.29,36.18,9.61,22.91,14.2,47,16.35,71.64,1.14,13.12,2.34,26.24,3.69,39.34,1.06,10.35,2.43,20.66,3.6,30.99,1.3,11.5,2.16,23.06,3.9,34.49,2.33,15.33,5.97,30.45,14.32,43.76,6.59,10.5,13.83,20.63,21.27,30.55,7.87,10.48,17.47,19.17,28.93,25.8,8.78,5.08,17.21,10.76,25.85,16.1,1.76,1.09,3.67,2.14,5.65,2.65,10.32,2.66,20.59,5.64,31.06,7.55,12.97,2.36,25.92,2.32,37.92-4.54.65-.37,1.39-.76,2.11-.8,6.99-.42,13.98-.84,20.97-1.09,2.57-.09,5.17.53,7.73.4,3.99-.2,7.63.57,11.12,2.52,2.03,1.13,4.19,2.28,6.43,2.78,7.15,1.58,14.39,2.51,21.74,1.81,13.2-1.26,25.76-5.39,38.53-8.58,2.45-.61,4.73-2.09,6.95-3.41,3.24-1.94,6.31-4.15,9.51-6.15,8.32-5.21,16.96-9.96,24.94-15.63,10.64-7.57,18.68-17.78,26.29-28.28,7.4-10.2,14.91-20.35,19.75-32.09,7.28-17.65,10.54-36.27,12.01-55.14,1.22-15.74,2.27-31.46,4.84-47.06,1.05-6.36,1.51-12.84,1.91-19.28,1.28-20.64,3.47-41.11,8.54-61.25,5.66-22.51,15.68-42.97,27.9-62.5,3.38-5.4,6.6-10.91,9.86-16.39,2.27-3.82,3.55-7.97,3.75-12.41.05-1.02-.39-2.06-.64-3.08-.33-1.34-1.06-2.7-.97-4,.35-5.27.85-10.54,1.46-15.79,1.99-17.13,6.75-33.18,18.09-46.74,6.81-8.14,11.27-17.66,15.34-27.36,5.73-13.66,8.47-28.07,10.59-42.65,2.59-17.82,4.92-35.62,1.66-53.61-.81-4.45-.94-9.13-2.43-13.33-2.64-7.49-5.8-14.83-9.28-21.98-2.62-5.4-5.48-10.88-9.26-15.48-11.25-13.73-24.62-25.18-39.75-34.51-15.86-9.77-32.87-16.58-51.54-18.14-10.35-.86-20.79-.62-31.19-.84-6.21-.13-12.44.11-18.62-.37-15.72-1.22-30.92-5.2-46.09-9.28-10.36-2.79-20.67-5.82-31.12-8.23-9.24-2.12-18.64-3.94-28.19-2.95-7.91.82-15.75,2.51-23.76,1.28-.65-.1-1.34.14-2,.12-4.5-.16-9.01-.3-13.51-.54-4.85-.26-9.72-1.17-14.52-.84-13.94.97-27.6,3.7-40.95,7.86-26.49,8.25-53.19,15.05-82.57,12.52ZM360.96,183.72c0-.17,0-.34,0-.51,12.33,0,24.66-.12,36.99.03,15.01.18,30.03.56,45.04.89,3.81.08,3.91.15,3.64-3.75-.41-6.03-1.34-12.04-1.37-18.06-.03-5.27-2.1-9.52-4.79-13.72-1.79-2.79-4.15-4.89-7.27-5.93-2.78-.92-5.62-1.88-8.5-2.21-15.33-1.77-30.65-3.79-46.14-3.5-4.66.09-9.09-.44-13.26-3.07-2.68-1.7-6.16-1.67-8.89.04-3.6,2.26-7.42,2.85-11.49,3.07-12.81.7-25.63,1.31-38.41,2.37-5.73.47-11.48,1.54-17.04,3.03-7.09,1.91-10.75,8.05-12.15,14.3-1.81,8.11-1.58,16.67-2.3,25.03-.18,2.12.74,2.61,2.64,2.47,3.35-.24,6.7-.45,10.06-.46,24.41-.04,48.82-.02,73.23-.02ZM424.19,129.02c.53-3.14,1.1-5.85,1.38-8.59.09-.87-.38-1.95-.91-2.71-3.72-5.37-9.43-7.72-15.33-9.48-11.63-3.47-23.6-4.99-35.71-5.63-3.83-.2-7.64-.75-11.47-1.11-.82-.08-1.67-.09-2.49,0-3.82.36-7.64.92-11.47,1.12-12.02.63-23.94,2.06-35.45,5.62-4.33,1.34-8.46,3.63-12.34,6.05-3.25,2.03-5.34,5.1-3.71,9.38.29.77.42,1.66.38,2.48-.12,2.67,1.08,2.89,3.42,2.44,15.34-2.92,30.71-5.75,46.46-3.8,1.12.14,2.3-.41,3.46-.44,6.57-.18,13.14-.3,19.71-.43.16,0,.32.12.48.14,1.98.22,3.95.59,5.93.61,2.26.02,4.52-.31,6.78-.42,10.9-.52,21.56,1.43,32.24,3.24,2.79.47,5.58,1,8.62,1.54ZM142.88,103.81c.57,1.51.87,2.37,1.21,3.21.82,2.02,1.88,3.97,2.41,6.05.51,2.01,1.18,2.43,3.1,1.57,9.17-4.14,18.34-8.3,27.61-12.21,5.32-2.24,10.78-4.18,16.26-5.97,3.01-.99,6.18-.74,9.05.81,1.46.79,2.23.45,2.98-.96,2.45-4.61,6.34-7.62,11.24-9.12,3.51-1.07,7.16-1.79,10.8-2.29,7.31-1.02,14.65-1.8,21.98-2.65,1.62-.19,2.33-.67,1.87-2.58-1.14-4.8-2.08-9.65-2.99-14.51-.27-1.45-.96-2.05-2.37-1.95-.75.05-1.5.11-2.26.17-30.39,2.37-58.67,12.22-86.1,24.79-3.78,1.73-7.26,4.57-10.18,7.57-2.17,2.22-3.22,5.54-4.6,8.07ZM476.77,63.35c-.15-.22-.29-.45-.44-.67-.95.74-2.53,1.32-2.76,2.25-1.25,4.95-2.1,10-3.24,14.97-.38,1.64.21,2.12,1.64,2.3,1.83.23,3.65.58,5.48.81,7.66.96,15.35,1.66,22.96,2.92,6.87,1.13,12.69,4.25,16.21,10.73.28.52,1.67,1.03,2.15.78,4.25-2.2,8.55-1.68,12.72-.16,5.51,2.01,10.92,4.3,16.32,6.61,8.33,3.58,16.61,7.26,24.88,10.95,1.44.64,2.05.38,2.49-1.19.59-2.08,1.32-4.18,2.34-6.08,1.04-1.95,1.35-3.85.35-5.75-1.28-2.42-2.36-5.23-4.33-6.96-3.3-2.88-7.03-5.45-10.96-7.4-5.62-2.79-11.59-4.88-17.4-7.31-21.93-9.18-44.7-14.91-68.42-16.79ZM38.16,331.1c.4,6.36.58,12.74,1.25,19.07.67,6.38,2.97,8.03,9.32,7.83,2.15-.07,2.99-.79,2.78-3.04-1.21-12.9-.95-25.8.1-38.7,1.1-13.53,5.08-26,13.94-36.55,8.94-10.65,18.05-21.17,27.04-31.77.73-.86,1.64-1.94,1.67-2.93.11-4.81-1.83-8.84-5.54-11.85-.7-.57-2.21-.55-3.2-.26-1.07.31-1.99,1.2-2.92,1.91-15.68,11.83-27.07,27.24-35.75,44.56-8.13,16.21-9.93,33.79-8.68,51.73ZM683.46,333.69c1.6-18.44-.02-34.82-6.68-50.16-8.16-18.8-20.17-34.98-36.4-47.79-5.8-4.58-6.23-5.33-11.3,2.23-2.6,3.88-1.85,7.57,1.2,11.07,3.02,3.48,5.82,7.15,8.74,10.73.95,1.17,1.91,2.33,2.92,3.46,3.76,4.18,7.58,8.3,11.3,12.52,8.98,10.2,15.06,21.78,16.56,35.47.48,4.42,1.1,8.86,1.12,13.29.04,10.15-.23,20.3-.4,30.45-.02,1.41-.15,2.66,1.77,2.99,5.81,1,9.03-1.17,10.08-6.94.21-1.15.38-2.32.45-3.49.28-5.2.51-10.39.68-13.81ZM346.92,72.3c-4.47,0-7.5-.16-10.5.04-5.16.35-10.13,1.54-14.61,4.24-4.58,2.76-5.94,5.74-5.06,10.98.33,1.98.84,3.94,1.16,5.93.23,1.39.89,1.77,2.26,1.56,12.12-1.82,24.28-2.83,36.58-2.61,13.41.25,26.83-.24,40.16,1.88,6.66,1.06,6.68.9,7.98-5.8,1.25-6.41-.36-9.72-6.21-12.7-5.2-2.65-10.81-3.49-16.57-3.72-6.86-.27-13.72-.6-20.58-.89-.67-.03-1.34.02-2.01.07-4.67.37-9.34.76-12.59,1.02ZM531.38,148.15c1.01.74,1.75,1.47,2.63,1.89,7.02,3.36,14.14,6.52,21.08,10.03,3.31,1.67,6.02,4.24,7.79,7.66.33.63,1.23,1.31,1.9,1.35,6.55.42,12.34,3.14,18.04,5.98,11.31,5.64,21.57,12.93,31.4,20.82.61.49,1.42.72,2.14,1.07.3-.73.64-1.46.9-2.2,1-2.81,1.83-5.71,3.04-8.43.65-1.46.59-2.23-.76-3.1-2.26-1.45-4.5-2.95-6.62-4.59-20.73-16.07-43.2-29.22-67.05-40.05-2.52-1.15-4.98-2.43-7.55-3.46-.58-.23-1.99.13-2.17.58-1.64,3.93-3.09,7.95-4.79,12.45ZM190.4,148.44c-1.52-4.21-2.92-7.88-4.16-11.61-.72-2.17-1.77-2.39-3.73-1.4-10.35,5.19-20.8,10.16-31.11,15.42-17.64,9-33.21,21.18-49.32,32.51-1.28.9-1.07,1.68-.53,2.95,1.14,2.67,1.97,5.46,2.95,8.2.29.83.63,1.64.94,2.46.78-.4,1.67-.66,2.34-1.2,9.15-7.41,18.75-14.17,29.17-19.65,6.3-3.31,12.72-6.5,20.04-7.02.64-.04,1.52-.56,1.79-1.11,2.19-4.36,5.92-7.12,10.05-9.2,6.2-3.12,12.62-5.81,18.93-8.72.85-.39,1.61-.99,2.65-1.64ZM100.7,240.09c.8-.7,1.49-1.28,2.15-1.88,5.01-4.59,9.93-9.27,15.03-13.74,7-6.14,13.9-12.56,22.53-16.3,6.97-3.02,14.32-5.17,21.47-7.77.92-.33,2.43-1.17,2.39-1.66-.27-3.22-.01-7-1.63-9.48-2.17-3.31-3.84-6.57-4.74-10.36-.12-.5-1.32-1.13-1.91-1.04-1.12.17-2.25.69-3.25,1.29-7.19,4.29-14.53,8.35-21.46,13.03-10.36,6.99-20.32,14.52-29.04,23.58-3.52,3.66-4.64,7.78-3.73,12.67.65,3.5,1.1,7.04,1.66,10.56.05.3.27.57.53,1.11ZM620.97,239.92c.7-3.56,1.16-6.74,1.97-9.83,1.51-5.77.64-10.79-3.95-14.9-.87-.78-1.67-1.65-2.5-2.48-8.93-8.84-19.13-16.08-29.51-23.03-6.38-4.27-13.32-7.72-20.03-11.49-1.92-1.08-2.92-.61-3.42,1.74-.49,2.34-1.06,5.09-2.59,6.69-2.6,2.71-3.11,5.8-3.44,9.15-.39,3.91-.4,3.99,3.41,4.9,14.9,3.56,28.12,10.28,39.44,20.69,6.11,5.62,12.32,11.12,18.49,16.67.67.6,1.34,1.19,2.13,1.89ZM531.41,128.76c2.96-3.73,7.12-2.67,11.27-1.05,22.21,8.65,43.35,19.3,62.55,33.56,3.55,2.64,3.25,2.39,4.97-.98.53-1.04,1.22-2.01,1.82-3.01,3.45-5.77,3.17-8.04-2.62-11.55-5.5-3.34-11.33-6.16-17.12-8.99-20.49-10.01-41.82-18.25-61.74-29.45-.87-.49-1.8-.9-2.75-1.24-2.91-1.04-4.18-.58-5.38,2.29-1.42,3.4-2.66,6.88-3.86,10.37-.17.51.15,1.55.58,1.85,3.95,2.73,7.98,5.36,12.28,8.21ZM190.35,128.76c4.38-2.89,8.34-5.45,12.22-8.14.47-.33.83-1.44.65-2-1.01-3.11-2.15-6.18-3.34-9.22-1.63-4.16-2.98-4.67-7.11-2.84-.69.31-1.36.65-2.03,1-4.74,2.52-9.37,5.28-14.22,7.55-17.03,7.94-34.19,15.61-51.19,23.61-5.21,2.45-10.19,5.46-15.02,8.6-3.13,2.03-3.41,4.27-1.72,7.66.93,1.87,2.24,3.56,3.12,5.45,1.68,3.62,1.83,3.11,4.58,1.07,19.4-14.44,40.75-25.23,63.23-33.92,4.02-1.56,8.02-2.37,10.85,1.19ZM625.34,559.23c-.25-.11-.51-.22-.76-.33-.47.57-.9,1.17-1.4,1.71-6.65,7.25-10.79,16.05-15.28,24.65-5.68,10.88-8.77,22.25-7.49,34.66.45,4.33.6,8.75.23,13.08-.64,7.5-1.54,15.01-2.88,22.42-.51,2.82-2.03,5.8-3.94,7.95-3.86,4.35-9.96,3.17-12.36-2.13-1-2.2-1.63-4.58-2.19-6.94-.51-2.16-1.75-3.39-3.82-3.84-1.31-.29-2.65-.4-3.97-.64-1.64-.3-2.33.37-2.32,2.01,0,4.19-.14,8.39,0,12.58.03.83.92,1.8,1.66,2.41,2.06,1.69,4.63,2.91,6.3,4.89,2.96,3.5,5.48,7.38,8.04,11.2,2.4,3.59,4.25,4.25,7.54,1.46,2.57-2.18,5.09-4.79,6.67-7.72,8.3-15.47,12.47-31.7,9.15-49.48-1.03-5.5-.91-11.39-.33-17,1.27-12.11,4.98-23.59,10.19-34.62,2.53-5.35,4.65-10.88,6.95-16.34ZM97.33,558.84c-.19.1-.38.2-.58.3.24.7.45,1.41.73,2.08,2.99,7.12,6.17,14.15,8.94,21.35,6.07,15.77,9.61,31.74,6.5,48.95-3.09,17.07,2.34,32.71,10.92,47.3,1.39,2.36,3.71,4.32,5.96,6.01,2.83,2.12,4.55,1.59,6.47-1.34.69-1.05,1.27-2.17,1.92-3.25,3.38-5.59,7.23-10.7,13.3-13.71.67-.33,1.23-1.58,1.26-2.42.12-3.69.08-7.38-.01-11.07-.09-3.5-.15-3.49-3.65-3.12-4.8.51-5.73,1.33-6.96,6.05-.32,1.22-.64,2.44-1.06,3.62-1.17,3.38-3.1,6.08-7.01,6.29-3.88.21-6.63-1.91-8.15-5.26-1.2-2.65-1.99-5.52-2.63-8.36-2.53-11.33-2.49-22.82-1.8-34.33.46-7.71-.06-15.32-3.17-22.48-3.24-7.44-6.4-14.95-10.35-22.02-2.92-5.22-7.04-9.76-10.63-14.6ZM467.51,39.47c-7.55-.12-11.01,2.17-12.96,8.37-.42,1.35-.25,2.07,1.14,2.77,4.04,2.01,7.96,4.25,11.97,6.31.63.32,1.54.32,2.26.16,2.75-.58,5.46-1.73,8.23-1.86,13.08-.61,26.09.54,38.61,4.33,9.44,2.86,18.54,6.86,27.75,10.46,3.13,1.23,3.03,1.37,4.43-1.55.83-1.74,1.69-3.49,2.76-5.08,1.15-1.71.89-3.06-.75-4.03-2.8-1.66-5.54-3.66-8.59-4.65-9.32-3.03-18.69-5.96-28.19-8.37-15.33-3.91-31.03-5.62-46.65-6.86ZM267.52,49.46c.12-3.06-2.81-7.87-5.55-8.56-3.2-.81-6.61-1.48-9.86-1.22-14.39,1.14-28.7,2.96-42.8,6.18-10.23,2.34-20.47,4.63-30.12,8.9-2.82,1.25-5.48,2.88-8.14,4.46-1.71,1.02-2.08,2.38-.88,4.22,1.19,1.82,2.22,3.77,3.03,5.78.74,1.83,1.68,1.98,3.27,1.15,1.86-.97,3.81-1.76,5.71-2.65,18.39-8.58,37.74-12.83,58.03-12.67,4.09.03,8.26-.18,11.97,2.18.41.26,1.3.06,1.82-.21,4.07-2.13,8.11-4.31,12.14-6.52.59-.32,1.08-.83,1.38-1.06ZM38.99,378.42c.42,6.16,2.98,12.55,5.32,19.02,7.41,20.48,18.29,39.37,26.92,59.3.23.54.55,1.03.85,1.54,1.52,2.66,3.87,3.91,6.87,3.85,1.03-.02,2.05-.46,3.07-.71-.32-.97-.45-2.06-.98-2.9-7.51-12.05-13.32-24.85-16.66-38.66-3.72-15.4-7.08-30.89-10.52-46.36-.51-2.29-1.31-4.34-3.69-4.9-6.51-1.53-11.28,2.4-11.18,9.83ZM682.71,379.54c.13-7.53-1.68-9.66-7.33-10.57-.41-.07-.82-.16-1.24-.24-3.49-.6-5.13.57-5.89,4.07-2.19,10.17-4.43,20.32-6.59,30.5-4.21,19.81-10.07,38.99-21.35,56.11-1.17,1.78-.74,2.48,1.42,2.73,3.98.46,6.78-1.07,8.8-5.26,3.67-7.63,6.97-15.45,10.81-22.99,7.43-14.61,13.78-29.66,19.12-45.14,1.22-3.54,1.8-7.3,2.26-9.2ZM108.41,558.96c-.13.17-.25.33-.38.5.45.84.88,1.7,1.37,2.52,3.87,6.46,8.15,12.71,11.53,19.41,7.19,14.27,11.12,29.43,11.19,45.54.03,7.04.58,14.08.99,21.11.1,1.78.59,3.54.92,5.39.54-.21.71-.25.83-.34.13-.1.25-.24.31-.38,2.69-6.95,7.62-10.6,15.22-10.51.44,0,1.34-1.24,1.28-1.82-.89-8-1.41-16.07-4.3-23.7-.2-.53-.51-1.01-.48-.96,0,4.62.03,9.64,0,14.65-.03,4.35-1.72,6.33-5.9,7.12-1.94.37-3.8.37-4.77-1.69-.98-2.07-.12-3.86,1.57-5.07,1.41-1.01,1.54-2.08,1.28-3.66-1.13-6.87-2.14-13.76-3.17-20.64-.26-1.74-.24-3.51,1.78-4.21,1.98-.69,3.12.64,4.08,2.12.46.7.87,1.43,1.32,2.14.4.62.81,1.23,1.41,2.13-3.57-17.58-13.26-31.65-22.76-45.8-.36-.54-1.23-1.09-1.83-1.06-4.08.21-8-.24-11.48-2.8ZM587.05,653.48l.67-.07c.29-1.35.74-2.68.83-4.04.42-6.53.89-13.06,1.07-19.6.27-9.59.81-19.13,3.54-28.4,2.95-10,6.69-19.69,12.23-28.58,2.39-3.84,4.89-7.62,7.32-11.44.37-.59.61-1.26.92-1.9-3.73,2.02-7.55,2.43-11.55,2.33-.82-.02-1.93.94-2.47,1.74-3.16,4.75-6.08,9.66-9.28,14.38-5.52,8.16-9.18,17.13-11.98,26.5-.21.7-.32,1.44-.47,2.16,1.04-.61,1.55-1.35,2.04-2.11,1.01-1.55,2.17-3,4.26-2.22,1.98.75,1.91,2.55,1.67,4.28-.9,6.31-1.72,12.64-2.8,18.92-.4,2.34-.8,4.23,1.53,5.97.89.67,1.17,2.71,1.01,4.04-.1.81-1.48,1.88-2.45,2.1-4.2.96-8.17-2.23-8.19-6.59-.02-4.11.24-8.21.39-12.32.03-.87.09-1.75.13-2.62-.21-.05-.43-.1-.64-.16-.5,1.45-1.21,2.87-1.47,4.37-1.12,6.44-2.06,12.91-3.16,19.35-.37,2.15.38,2.75,2.5,2.76,6.14.04,10.47,3.05,13.1,8.57.41.86.85,1.71,1.28,2.56ZM93.54,553.11c.31-.06.61-.13.92-.19-.08-.81-.15-1.61-.23-2.42-.52-5.15,2.57-7.73,7.18-5.55,3.43,1.62,6.49,4,9.7,6.07.95.61,1.84,1.3,3.23,2.3-2.41-4.62-4.59-8.48-6.48-12.48-1.86-3.94-4.39-7.2-7.64-10.13-2.76-2.49-5.02-5.55-7.43-8.41-1.72-2.05-3.26-4.24-5.01-6.26-.66-.76-1.69-1.21-2.93-2.07-1.75,6.37-2.36,12.45-.33,18.2,2.53,7.15,5.97,13.98,9.01,20.95ZM637,514.38c-.36-.16-.73-.31-1.09-.47-2.12,2.52-4.54,4.84-6.28,7.6-2.41,3.81-5.25,7.08-8.68,9.99-2.06,1.75-3.89,3.96-5.27,6.29-2.77,4.67-5.16,9.57-7.69,14.38-.04.08.11.27.31.72,1.21-1,2.27-2.07,3.52-2.84,3.03-1.89,6.02-3.93,9.26-5.36,3.69-1.62,6.49.52,6.53,4.57.01,1.29-.18,2.58-.28,3.87.79-.46,1.21-1.05,1.51-1.68,2.11-4.38,4.13-8.8,6.3-13.15,3.2-6.4,3.79-13.13,2.76-20.09-.19-1.29-.59-2.55-.89-3.82Z" style="fill: #000; stroke-width: 0px;"/>
  <path d="M389.81,371.51c1.08-7.79,1.74-15.66,3.35-23.34,2.48-11.82,10.06-20.04,20.26-26.02,2.49-1.46,5.14-1.58,7.75-.43,5.77,2.56,10.99,6.03,14.46,11.34,1.57,2.4,2.35,5.57,2.66,8.48.76,7.02-.97,13.64-4.2,19.91-1.88,3.65-3.93,7.28-5.27,11.14-3.78,10.9-2.66,21.06,5.76,29.61,5.49,5.58,12.27,6.02,18.7,1.52,11.2-7.84,15.82-22.76,12.04-37.37-3.44-13.27-1.76-26.13,4.61-38.27,2.71-5.16,6.96-9.04,11.79-12.18,1.31-.85,3.17-1.2,4.77-1.2,13.3.05,25.38,4.21,36.61,11.13,3.88,2.39,6.46,5.78,7.9,10.09,2.2,6.55,3.5,13.05.81,19.88-1.25,3.17-1.83,6.63-2.42,10.01-1.09,6.28.51,12,4.2,17.13,4.05,5.64,10.85,6.86,17.53,3.19,5.7-3.12,7.82-9.28,5.31-15.57-.46-1.16-.99-2.35-1.74-3.34-2.35-3.07-3.05-6.53-2.42-10.23,1.15-6.77,2.14-13.6,3.78-20.26,1.82-7.36,6.9-12.79,12.4-17.65,3.25-2.87,11.14-2.2,14.56,1.18,9.24,9.12,13.87,19.93,10.71,33.06-1.14,4.72-2.72,9.35-4.34,13.93-2.47,6.98-1.51,13.59,1.9,19.92,3.72,6.9,11.57,8.21,17.44,2.95,4.49-4.02,6.98-9.18,6.65-15.18-.29-5.33-.78-10.8-2.27-15.88-4.13-14.04.4-26.46,6.29-38.73.4-.83,1.57-1.5,2.53-1.83,2.99-1.06,5.9-.52,8.82.63,11.83,4.66,17.46,13.86,19.03,25.97,1.2,9.31-.01,18.48-2.67,27.38-6.44,21.54-14.81,42.3-26.52,61.55-2.17,3.57-5.48,6.46-8.27,9.66-1.49,1.71-2.99,3.4-4.48,5.1-1.16,1.33-2.22,2.75-3.47,3.98-4.02,3.96-8.78,4.58-13.14,1.03-3.61-2.94-6.99-6.34-9.8-10.04-3.84-5.06-7.17-10.53-10.5-15.96-4.94-8.07-10.79-15.4-17.55-21.98-8.34-8.13-18.5-12.62-29.98-14.13-7.48-.98-13.94,1.08-19.08,6.81-5.27,5.87-10.45,11.9-17.42,15.87-17.48,9.94-36.2,15.83-56.37,16.91-15.33.82-25.51-6.46-31.84-19.97-4.91-10.48-7.94-25.14-8.12-39.68-.25-.03-.49-.07-.74-.1Z" style="fill: #000; stroke-width: 0px;"/>
  <path d="M331.32,367.93c-.24,13.65-1.45,24.49-4.95,34.92-1.46,4.35-3.31,8.64-5.56,12.64-5.71,10.16-14.39,16-26.25,15.63-7.5-.23-15.17-.77-22.41-2.58-9.64-2.41-19.07-5.87-28.35-9.49-8.87-3.46-16.32-9.23-22.57-16.48-.71-.83-1.51-1.58-2.19-2.43-6.39-8.02-14.69-10-24.37-7.89-10.51,2.29-19.78,6.86-27.34,14.62-7.17,7.37-13.46,15.41-18.49,24.42-3.98,7.14-8.71,13.75-14.57,19.5-1.31,1.28-2.73,2.51-4.27,3.5-4.26,2.73-8.48,2.27-12.21-1.16-.56-.51-1.07-1.07-1.59-1.61-3.23-3.38-6.71-6.56-9.62-10.2-3.13-3.92-6.11-8.05-8.48-12.46-9.76-18.16-17.86-37.04-23.51-56.9-2.69-9.44-3.85-19.09-2.25-28.9,1.31-8,4.71-14.96,11.35-19.8,2.93-2.13,6.4-3.72,9.85-4.87,4.93-1.64,8.05.05,10.32,4.69,3.6,7.32,5.76,15.11,6.43,23.16.32,3.82-.9,7.76-1.45,11.65-.82,5.8-1.99,11.57-2.38,17.4-.37,5.53,2.02,10.33,5.93,14.23,6.09,6.08,14.48,4.8,18.4-2.87,3.14-6.14,4.01-12.55,1.67-19.25-1.49-4.28-2.94-8.58-4.11-12.95-3.6-13.36.76-24.49,10.16-33.92,4.5-4.52,12.37-3.93,17.05.44,8.86,8.26,11.91,18.98,13.4,30.43.28,2.16.41,4.34.64,6.51.35,3.3-.26,6.34-2.32,9.03-.56.73-.97,1.57-1.36,2.41-3.2,6.66-1.43,13.23,4.47,16.64,6.87,3.98,13.91,2.6,18.23-3.57,3.77-5.39,4.94-11.35,3.66-17.74-.75-3.78-1.67-7.55-2.85-11.22-1.31-4.08-.94-7.98-.19-12.12,1.63-8.99,6.71-14.8,14.81-18.66,9.6-4.58,19.47-7.71,30.17-8.03,2.93-.09,5.36.67,7.7,2.42,10.03,7.53,14.59,17.89,15.72,30.04.25,2.67.52,5.37.38,8.04-.17,3.4-.33,6.89-1.23,10.14-3.44,12.45-1.8,23.78,6.7,33.79,9.57,11.27,21.72,9.93,28.5-3.24,4.53-8.8,3.72-17.7-.26-26.47-1.56-3.44-3.38-6.75-5.02-10.16-2.96-6.15-3.81-12.64-3.11-19.39.34-3.28,1.41-6.4,3.88-8.53,3.72-3.21,7.63-6.26,11.76-8.92,3.36-2.17,6.92-1.66,10.42.51,11.69,7.24,18.42,17.64,20.25,31.19.74,5.48,1.1,11.01,1.37,13.86Z" style="fill: #000; stroke-width: 0px;"/>
  <path d="M525.88,551.09c-4.5-1.23-9.19-2.01-13.45-3.79-8.17-3.42-16.33-3.77-24.88-1.92-3.21.7-6.79.98-9.97.32-13.75-2.84-24.06-10-28.94-23.88-2.57-7.29-6.83-13.23-14.43-16.53-4.14-1.8-7.79-4.84-11.48-7.55-1.37-1-2.7-2.52-3.25-4.08-1.46-4.1-4.69-5.91-8.32-7.44-1.62-.68-3.3-1.32-4.77-2.26-1.89-1.2-3.87-2.44-5.36-4.08-3.75-4.13-2.71-9.23,2.32-11.63,1.09-.52,2.87-.73,3.85-.2,7.61,4.18,14,.4,19.06-4.14,6.72-6.03,14.03-7.32,22.35-6.39,1.67.19,3.33.42,4.99.65,7.87,1.12,16.72-3.57,20.28-10.78.7-1.43,1.36-2.89,1.9-4.39,2.14-5.87,6.61-8.97,12.52-9.45,6.04-.48,11.94-1.25,17.77-2.99,2.77-.83,5.8-.89,8.72-1.04,6.28-.34,12.57-.53,18.86-.76,7.53-.27,14.66,1.42,21.46,4.57,6.68,3.09,11.59,7.95,14.49,14.73,4.47,10.42,8.61,20.97,10.82,32.15,1.59,8.01,5.07,15.24,8.91,22.36,1.53,2.84,2.48,5.99,3.72,8.99.38.93.82,1.83,1.23,2.74,1.76,3.89,3.67,7.73,5.24,11.69,1.12,2.82.46,5.46-2.03,7.45-2.21,1.76-4.6,1.93-7.47.13-2.62-1.64-5.09-3.55-7.58-5.39-7.31-5.37-15.61-7.04-24.35-5.69-6.63,1.03-11.21,5.42-14.32,11.23-1.46,2.73-2.5,5.69-3.87,8.46-2.82,5.69-7.49,8.4-13.84,8.23-.06.22-.11.44-.17.67ZM530.45,496.24c-.22-17.66-4.72-31.4-14.25-45.05-.48-.68-1.02-1.4-1.23-2.18-.64-2.29-2.23-2.62-4.1-1.95-3.54,1.27-7.33,2.21-10.47,4.17-10.24,6.39-20.25,13.15-30.29,19.85-.91.6-1.66,1.72-2.06,2.76-4.87,12.67-6.07,25.53-1.94,38.68.75,2.38.83,4.96,1.49,7.37.34,1.25.98,2.83,1.98,3.43,10.36,6.19,21.34,9.38,33.41,5.94,4.27-1.22,8.42-2.85,12.68-4.1,4.97-1.45,8.12-4.23,10.13-9.32,2.72-6.9,4.86-13.73,4.64-19.6ZM575.37,509.62c.09-.19.19-.38.28-.56-.29-.48-.57-.97-.88-1.44-3.2-5.01-6.72-9.85-9.54-15.07-6.25-11.55-13.52-22.4-21.85-32.52-2.54-3.08-5.64-5.71-8.55-8.47-.56-.53-1.45-.73-2.75-1.35,8.2,20.15,14.44,39.82,7.07,61.68,12.13-5.73,24.05-6.34,36.21-2.26ZM428.9,482.77c3.23,2.66,6.49,5.03,9.37,7.79,4.65,4.48,9,9.27,13.59,13.81.91.9,2.35,1.27,3.55,1.88.01-1.35.33-2.78,0-4.03-1.92-7.07-2.56-14.19-1.24-21.43.12-.68.08-1.39.1-1.91-8.53,1.31-16.76,2.57-25.35,3.88Z" style="fill: #000; stroke-width: 0px;"/>
  <path d="M196.19,429.02c5.28.3,10.55.58,15.82.91,1,.06,2.03.14,2.98.43,6.19,1.91,12.52,2.74,18.99,3.28,5.69.47,10.18,3.58,11.97,9.36,2.18,7.05,7.19,11.45,13.42,14.55,1.94.96,4.53.94,6.8.85,4.77-.19,9.51-.93,14.28-1.06,5.06-.14,9.24,1.96,13.28,5.12,3.69,2.89,8.06,5.07,12.42,6.88,1.78.74,4.45.04,6.47-.68,4.56-1.62,6-1.31,9.34,3.06,1.74,2.28,1.57,5.13-1.01,7.98-1.54,1.7-3.57,3.01-5.52,4.28-1.39.91-3,1.49-4.54,2.15-3.68,1.57-6.73,3.49-8.61,7.49-2.19,4.66-6.59,7.5-11.03,9.99-1.17.66-2.34,1.34-3.59,1.81-7.88,2.92-12.43,9.16-14.43,16.68-3.3,12.42-20.85,24.82-33.49,24-1.84-.12-3.7-.23-5.48-.65-8.5-2.05-16.76-1.72-24.83,1.93-4.55,2.06-9.36,3.16-14.41,3.08-5.71-.08-10.02-2.53-12.71-7.58-1.3-2.44-2.41-4.98-3.5-7.52-3.77-8.8-11.02-13.49-20.55-13.24-7.52.2-14.34,2.33-20.28,7.12-2.02,1.63-4.19,3.08-6.38,4.47-2.41,1.52-4.88,1.66-7.25-.21-2.42-1.91-3.13-4.48-2.09-7.21,1.52-3.98,3.43-7.82,5.17-11.72.51-1.14.99-2.29,1.45-3.46.91-2.33,1.49-4.84,2.73-6.96,4.95-8.48,8.19-17.5,10.69-27.02,2.65-10.1,6.54-19.9,10.34-29.65,2.86-7.33,8.72-11.92,15.89-14.95,7.92-3.35,16.15-4.32,24.65-3.52,1,.09,2.01.12,3.01.18,0-.05,0-.1,0-.14ZM191.38,495.36c.12,1.76.24,4.1.43,6.44.51,6.43,3.5,12.04,6.03,17.78.58,1.31,1.83,2.72,3.11,3.26,4.94,2.07,9.99,3.9,15.06,5.65,12.67,4.37,24.45,1.74,35.73-4.71,1.59-.91,2.4-2.05,2.54-3.97.18-2.32.6-4.68,1.29-6.9,4.13-13.21,3.24-26.16-1.76-38.92-.44-1.11-1.21-2.32-2.17-2.97-9.15-6.22-18.24-12.56-27.65-18.37-4-2.47-8.68-3.87-13.14-5.55-.9-.34-2.71-.12-3.16.51-2.66,3.74-5.33,7.52-7.47,11.57-5.85,11.11-8.44,23.09-8.86,36.18ZM146.29,509.66c12.27-4.11,24.24-3.52,36.41,2.22-7.37-22.07-1.03-41.8,6.63-61.63-2.49,1.56-5.08,3.06-6.8,5.25-6.61,8.43-13.26,16.87-19.28,25.72-6.02,8.86-11.3,18.21-16.89,27.36-.11.18-.04.46-.08,1.07ZM292.95,482.75c-8.56-1.29-16.85-2.54-25.13-3.8-.07.15-.2.3-.2.45-.01.42-.02.84.05,1.25,1.35,7.51.72,14.88-1.47,22.15-.19.64-.32,1.32-.33,1.98-.01,1.72.77,2.18,2.18,1.13,1-.75,1.99-1.55,2.85-2.45,6.71-7.05,13.17-14.36,21.3-19.89.26-.18.44-.47.76-.81Z" style="fill: #000; stroke-width: 0px;"/>
  <path d="M295.66,722.69c5.14.75,10.33,1.24,15.41,2.32,10.61,2.25,20.84,1.39,30.84-2.79,3.41-1.42,6.82-2.91,10.37-3.86,2.58-.69,5.43-.32,8.09-.83,7.52-1.43,13.7,2.5,20.17,4.98,9.87,3.78,19.82,4.72,30.15,2.48,7.66-1.66,15.4-2.72,23.24-1.35,8.86,1.55,16.45,5.48,22.76,11.99,5,5.16,6.06,10.82,2.67,17.14-1.25,2.34-2.58,4.89-4.55,6.55-11.4,9.59-20.93,20.74-29.44,32.93-2.6,3.72-6.08,6.99-9.64,9.86-12.77,10.29-29.04,10.09-42,.06-3.41-2.64-7.27-4.73-11.05-6.85-.92-.51-2.57-.52-3.5-.03-3.39,1.79-7.01,3.44-9.83,5.95-13.55,12.08-33.23,10.8-45.31-.92-4.43-4.29-8.43-9.13-12.02-14.15-5.99-8.39-12.56-16.19-20.62-22.63-5.51-4.41-9.51-9.71-10.85-16.7-.31-1.6-.07-3.56.6-5.04,3.02-6.65,8.47-10.92,14.79-14.19,6.16-3.19,12.75-4.63,19.73-4.91ZM361.35,723.5c-4.78,2.97-9.14,5.75-13.57,8.42-11.28,6.79-23.42,8.26-36.17,5.65-4.36-.89-8.67-2-13.06-2.74-10.31-1.73-19.21,1.52-27.05,8.12-.46.39-.77.95-1.25,1.57,3.37.53,6.43.94,9.47,1.5,6.11,1.12,12.2,2.34,18.3,3.49,12.26,2.3,24.33,1.59,35.87-3.21,9.02-3.75,17.94-6.08,27.99-5.69,7.8.3,15.06,1.03,22.19,4.21,12.68,5.64,25.91,7.38,39.62,4.72,6.51-1.26,13.02-2.53,19.54-3.73,2.67-.49,5.37-.82,8.43-1.28-.68-.77-1.04-1.32-1.52-1.72-7.73-6.45-16.48-9.63-26.6-8-4.05.65-8.06,1.63-12.07,2.52-11.05,2.46-21.93,2.13-32.26-2.77-6.48-3.07-12.98-6.29-17.86-11.06ZM285.07,757.88c-.14.32-.28.64-.42.96.6.54,1.19,1.11,1.82,1.62,6.44,5.32,12.13,11.32,16.9,18.2,2.34,3.38,4.77,6.7,7.25,9.97,4.89,6.45,11.61,8.88,19.34,7.54,4.12-.71,8.12-2.55,11.95-4.36,12.55-5.94,25.04-5.96,37.61-.19,2.89,1.33,5.69,3.02,8.72,3.85,8.99,2.46,16.99.84,23.04-6.85,1.97-2.5,3.89-5.06,5.66-7.71,5.22-7.8,11.44-14.68,18.69-20.63.57-.47,1.05-1.06,1.82-1.86-3.15-.13-4.02.33-5.58,2-1.01,1.08-2.16,2.2-3.48,2.77-3.14,1.37-6.43,2.39-9.64,3.62-7.27,2.78-14.77,5.12-21.73,8.55-6.06,2.99-12.09,5.32-18.83,5.76-2.43.16-4.87.27-7.26.68-2.45.42-4.82,1.28-7.27,1.76-1.51.3-3.38.84-4.6.25-4.41-2.13-9.11-2.08-13.77-2.52-6.13-.57-12.06-1.56-17.66-4.49-5.41-2.83-11.06-5.23-16.74-7.48-4.36-1.72-8.96-2.81-13.4-4.36-3.08-1.07-6.03-2.3-8.17-5.12-.83-1.1-2.79-1.34-4.23-1.98ZM325.23,761.34c2.58,1.51,4.76,2.57,6.7,3.97,6.02,4.36,12.93,6.23,20.07,7.57,5.38,1.01,10.67,2.19,16.2.3,4.26-1.46,8.98-1.68,13.1-3.4,5.17-2.15,9.94-5.27,14.89-7.97l-.15-.79c-.89-.32-1.78-.65-2.68-.97-5.29-1.89-10.56-3.82-15.87-5.64-4.91-1.68-9.84-3.28-14.79-4.83-.92-.29-2.04-.39-2.96-.15-4.04,1.1-8.08,2.21-12.04,3.58-6.81,2.35-13.55,4.89-20.32,7.36-.53.19-1.03.46-2.15.97Z" style="fill: #000; stroke-width: 0px;"/>
  <path d="M422.23,635.71c-.45-4.68-.85-9.53-1.39-14.36-.83-7.52-2.93-14.66-7.01-21.08-9.23-14.53-12.56-30.78-13.93-47.57-.3-3.63.2-7.37.7-11.01.47-3.4,2.55-5.16,5.01-4.87,2.41.28,3.7,2.26,3.92,5.61.34,5.19.67,10.38,1.27,15.54.91,7.85,3.54,15.16,7.46,22.02,1.58,2.77,3.02,5.62,4.71,8.32,8.37,13.32,11.41,28.14,12.71,43.53.39,4.57,1.23,9.14,2.2,13.63,1.6,7.35,1.11,14.33-2.7,20.94-3.83,6.65-9.63,8.92-17.08,7.08-3.62-.9-7.38-1.2-11.08-1.79-2.56-.41-5.16-.66-7.65-1.33-2.8-.76-5.1-2.15-6.31-5.2-.74-1.86-2.68-3.22-3.72-5.01-.62-1.07-1.08-2.78-.64-3.78.72-1.65,2.47-1.37,3.96-.68,6.26,2.92,12.73,4.48,19.74,3.98,3.7-.27,6.01-1.86,7.19-5.2,2.12-6.01,2.76-12.24,2.63-18.75Z" style="fill: #000; stroke-width: 0px;"/>
  <path d="M322.3,549.6c-1.61,18.02-4.43,35.05-14.03,50.22-4.06,6.42-6.36,13.5-7.16,21.02-1,9.33-2.55,18.66-.4,28.04.21.9.36,1.81.6,2.7,1.71,6.51,3.49,7.74,10.13,8.11,5.63.31,10.78-1.16,15.87-3.21.7-.28,1.38-.87,2.07-.86,1.22,0,2.96-.04,3.52.68.56.71.31,2.57-.25,3.54-1.5,2.59-3.29,5.02-5.1,7.41-.63.83-1.56,1.51-2.49,2.02-3.71,2.03-7.79,2.33-11.94,2.54-2.72.14-5.51.52-8.11,1.32-8.51,2.61-14.81.09-18.91-7.78-2.82-5.42-3.52-11.14-2.65-17.11,1.26-8.62,2.59-17.22,3.79-25.85,1.66-11.93,4.96-23.28,11.38-33.59.71-1.14,1.27-2.37,2-3.49,8.45-12.86,11.54-27.19,11.67-42.33,0-.67.02-1.35.12-2.01.37-2.42,1.96-4.11,4.02-4.15,2.35-.05,3.92,1.28,4.39,3.42.72,3.26,1.06,6.6,1.47,9.38Z" style="fill: #000; stroke-width: 0px;"/>
  <path d="M468.75,853.41c-6.09-.04-9.82-1.57-12.99-4.18-7.58-6.27-13.79-13.71-18.28-22.51-.79-1.56-1.54-3.26-1.73-4.96-.13-1.22.35-2.97,1.22-3.69.74-.61,2.69-.52,3.64.04,2.21,1.32,4.28,2.97,6.16,4.74,2.76,2.58,5.27,5.4,7.95,8.07,2.44,2.42,4.91,4.82,7.44,7.14,2.57,2.34,5.33,2.41,8.31.62,6.49-3.91,11.79-9.15,16.75-14.76,5.28-5.97,10.34-12.14,15.59-18.13,1.7-1.94,1.82-3.73.65-5.94-5.11-9.73-10.25-19.45-15.15-29.29-1.63-3.28-2.79-6.84-3.7-10.4-.44-1.74-.23-3.92.42-5.62,1.4-3.66,5.77-4.31,8.4-1.4.94,1.04,1.7,2.31,2.29,3.58,6.29,13.46,12.53,26.94,18.76,40.42,2.24,4.85,2.42,9.82-.95,14.08-7.99,10.14-16.04,20.25-24.57,29.94-3.25,3.7-7.64,6.55-11.91,9.14-2.99,1.81-6.64,2.52-8.34,3.12Z" style="fill: #000; stroke-width: 0px;"/>
  <path d="M255.07,853.38c-4.99-.04-9.28-2.1-13.31-4.77-6.79-4.5-12.33-10.35-17.42-16.61-5.02-6.19-9.8-12.57-14.77-18.8-4.26-5.36-4.79-10.93-1.83-17.14,5.91-12.42,11.59-24.96,17.4-37.43.74-1.59,1.56-3.17,2.5-4.65,1.21-1.91,2.98-2.97,5.33-2.56,2.44.43,4.15,2.06,4.21,4.38.07,2.86-.04,6-1.13,8.57-2.97,7.02-6.42,13.84-9.82,20.66-2.47,4.95-5.11,9.82-7.78,14.67-1.26,2.29-1.11,4.15.67,6.15,6.74,7.58,13.16,15.47,20.14,22.82,3.6,3.79,8.03,6.81,12.24,9.97,2.78,2.09,5.74,1.75,8.24-.65,3.81-3.66,7.44-7.5,11.25-11.15,2.96-2.83,6.05-5.54,9.17-8.21,1.4-1.19,3.1-1.89,4.82-.58,1.61,1.22,1.46,2.94.86,4.59-.78,2.12-1.53,4.29-2.63,6.25-4.19,7.46-9.63,13.93-16.07,19.53-3.9,3.4-8.06,4.96-12.09,4.96Z" style="fill: #000; stroke-width: 0px;"/>
  <path d="M360.89,850.98c2.44-3.47,3.47-3.46,7.16-1.54,6.79,3.54,13.94,6.22,21.54,7.44,4.35.7,7.86-1.06,10.14-4.65,1.82-2.87,3.34-6.02,4.5-9.22,1.66-4.57,2.89-9.28,4.25-13.96.97-3.33,2.66-4.97,4.99-4.65,2.46.34,4.01,2.5,3.67,5.98-1.18,11.97-5.43,22.63-14.19,31.14-3.51,3.42-7.92,5-12.8,5.1-7.62.15-14.81-1.59-21.52-5.2-3.41-1.84-6.06-4.46-7.38-8.15-.34.07-.6.06-.63.14-2.28,5.36-6.74,8.17-11.9,10.12-5.71,2.15-11.59,3.4-17.72,3.05-5.07-.29-9.47-2.2-13-5.85-8.07-8.38-12-18.63-13.36-30.01-.08-.66-.06-1.35.03-2.01.29-2.17,1.24-3.86,3.58-4.29,2-.37,3.94.97,4.69,3.35,1.56,4.96,2.82,10.02,4.56,14.91,1.17,3.29,2.7,6.52,4.55,9.48,2.44,3.91,6.24,5.52,10.85,4.63,7.54-1.46,14.73-3.96,21.44-7.72,2.91-1.63,4.21-1.38,6.57,1.9Z" style="fill: #000; stroke-width: 0px;"/>
  <path d="M347.91,658.09c2.35-.82,4.41-1.26,6.2-2.22,4.52-2.41,8.89-2.48,13.43-.06,1.8.96,3.87,1.41,6.22,2.23.14-1.57.28-2.68.32-3.8.35-8.56,5.58-13.17,14.15-12.48,4.43.36,8.35,1.81,11.32,5.28,1.91,2.23,2.23,4.76.9,6.69-1.33,1.92-3.79,2.39-6.59,1.23-2.09-.86-4.14-1.84-6.26-2.61-2.12-.77-3.61,0-4.22,2.23-.38,1.38-.69,2.77-1.07,4.14-1.53,5.57-5,7.8-10.73,6.89-.58-.09-1.26-.09-1.7-.4-3.79-2.71-8.23-1.33-12.34-2.01-.79-.13-1.7.51-2.57.78-1.91.59-3.78,1.46-5.74,1.7-5.05.63-8.16-1.55-9.6-6.43-.33-1.12-.55-2.28-.85-3.42-1-3.89-2.13-4.48-5.97-3.01-1.49.57-2.91,1.3-4.37,1.94-3.15,1.36-5.65,1.02-7.1-.95-1.48-2.02-.96-4.83,1.35-7.26,4.26-4.49,12.52-6.2,18.21-3.73,4.53,1.96,6.38,5.7,6.73,10.38.11,1.47.16,2.94.26,4.91Z" style="fill: #000; stroke-width: 0px;"/>
  <path d="M216.7,618.34c-1.5,0-3.04.19-4.5-.05-1.81-.29-3.05-1.49-3.16-3.41-.11-2.04,1.13-3.23,2.95-3.9.23-.09.49-.14.74-.16,11.42-1.19,22.83-2.45,34.26-3.52,2.48-.23,5.06-.06,7.5.41,1.11.21,2.58,1.48,2.83,2.52.41,1.74-1.12,2.62-2.77,2.87-12.59,1.92-25.19,3.82-37.78,5.73-.02-.16-.04-.32-.07-.48Z" style="fill: #000; stroke-width: 0px;"/>
  <path d="M474.78,606.87c7.74.91,15.48,1.82,23.23,2.72,3.33.39,6.67.73,10,1.11,3.05.35,4.88,1.96,4.76,4.17-.12,2.29-2.29,3.97-5.42,3.6-10.57-1.25-21.12-2.68-31.68-4.07-2.66-.35-5.3-.83-7.96-1.22-1.79-.26-3.47-.82-3.39-2.96.08-2.15,1.87-2.57,3.62-2.7,2.26-.17,4.52-.24,6.78-.35.02-.1.03-.2.05-.3Z" style="fill: #000; stroke-width: 0px;"/>
  <path d="M478.91,634.21c-10.88-1.25-20.47-3.29-29.3-7.89-.98-.51-2.02-2.37-1.8-3.31.22-.93,2.06-2.16,3.11-2.09,8.28.53,16.56,1.19,24.8,2.18,2,.24,4.06,1.57,5.68,2.89,1.68,1.37,2.08,3.71.89,5.51-.89,1.36-2.66,2.15-3.39,2.7Z" style="fill: #000; stroke-width: 0px;"/>
  <path d="M242.93,634.29c-.86-.65-2.52-1.42-3.42-2.72-1.2-1.72-.83-3.96.68-5.32,1.48-1.35,3.42-2.78,5.31-3.01,8.47-1.04,16.99-1.74,25.51-2.31,1-.07,2.97,1.45,2.95,2.2-.03,1.18-1.1,2.83-2.19,3.39-6.93,3.52-14.32,5.65-22.01,6.75-1.99.29-3.97.6-6.81,1.02Z" style="fill: #000; stroke-width: 0px;"/>
  <path d="M475.56,645.75c7.46,1.02,14.92,2.01,22.37,3.1,1.21.18,2.65.47,3.46,1.25.91.88,1.78,2.45,1.63,3.59-.15,1.14-1.39,2.5-2.5,3.04-1.27.61-2.93.57-4.42.55-8.49-.16-16.54-2.34-24.35-5.55-1.66-.68-3.1-1.63-2.57-3.7.49-1.93,2.13-2.13,3.82-2.06.84.04,1.67.08,2.51.13.02-.11.03-.23.05-.34Z" style="fill: #000; stroke-width: 0px;"/>
  <path d="M226.37,657.37c-1.34-.07-2.69-.03-4.01-.24-2-.31-3.46-1.39-3.67-3.54-.21-2.27,1.12-3.58,3.12-4.3.55-.2,1.13-.32,1.71-.39,8.23-.98,16.47-1.95,24.71-2.9.66-.08,1.49-.23,1.97.07.92.57,2.08,1.32,2.32,2.22.2.76-.53,2.11-1.26,2.68-1.01.81-2.38,1.19-3.63,1.67-6.85,2.65-13.91,4.38-21.29,4.71Z" style="fill: #000; stroke-width: 0px;"/>
  <path d="M507.9,632.89c2.68,0,5.37-.04,8.05.01,2.87.06,4.69,1.65,4.59,3.9-.09,2.14-1.9,3.76-4.63,3.56-5.76-.42-11.51-1.05-17.26-1.68-1.62-.18-2.97-1.02-2.81-2.92.16-1.89,1.64-2.42,3.26-2.45,2.93-.06,5.87-.02,8.8-.02,0-.13,0-.27,0-.4Z" style="fill: #000; stroke-width: 0px;"/>
  <path d="M213.91,633.29c2.93,0,5.86-.05,8.79.02,1.62.04,3.09.6,3.2,2.5.11,1.89-1.25,2.7-2.86,2.88-5.65.63-11.31,1.25-16.98,1.68-2.87.21-4.77-1.41-4.83-3.62-.06-2.23,1.78-3.79,4.65-3.84,2.68-.05,5.36-.01,8.04-.01,0,.13,0,.27,0,.4Z" style="fill: #000; stroke-width: 0px;"/>
  <path d="M123.41,570.58c.65.48,2.07,1.03,2.64,2.05,2.88,5.16,5.65,10.4,8.17,15.75.43.9-.55,2.47-.88,3.72-1.17-.35-2.84-.32-3.41-1.1-3.34-4.59-6.46-9.34-9.53-14.13-.59-.91-.86-2.21-.8-3.31.1-1.83,1.34-2.77,3.81-2.98Z" style="fill: #000; stroke-width: 0px;"/>
  <path d="M586.9,590.09c.35-1.15.47-1.92.81-2.58,2.5-4.82,4.94-9.67,7.63-14.38,1.42-2.49,3.68-3.09,5.46-1.95,1.77,1.13,2.11,3.36.54,5.79-3.09,4.78-6.26,9.51-9.57,14.13-.52.73-2.06,1.2-2.99,1.03-.77-.14-1.33-1.4-1.87-2.04Z" style="fill: #000; stroke-width: 0px;"/>
  <path d="M512.16,492.6c-.47,7.67-4.14,14.83-11.53,19.8-6.12,4.12-14.04,3.37-20.65-1.62-6.4-4.83-8.8-11.7-6.47-19.11,1.88-5.98,5.11-10.92,11.22-13.42,1.08-.44,2.11-1.03,3.15-1.57,12.15-6.34,24.25,1.01,24.28,15.92Z" style="fill: #000; stroke-width: 0px;"/>
  <path d="M229.67,515.69c-2.98-1.18-6.33-1.84-8.88-3.64-7.65-5.38-11.57-12.94-11.01-22.41.73-12.34,12.42-18.88,23.5-13.31,1.42.72,2.83,1.46,4.27,2.14,7.54,3.58,10.96,9.98,11.5,17.88.66,9.67-8.76,18.63-19.11,18.66-.09.22-.18.45-.27.67Z" style="fill: #000; stroke-width: 0px;"/>
</svg>