<?xml version="1.0" encoding="UTF-8"?>
<svg id="Layer_1" data-name="Layer 1" xmlns="http://www.w3.org/2000/svg" viewBox="0 0 687.21 900">
  <path d="M245.18,32.41c.64-1.98,1.19-3.75,1.78-5.49,1.41-4.17,3.66-7.75,8.47-8,2.35-.13,4.81.91,7.15,1.63,2.15.67,4.16,1.86,6.33,2.41,6.54,1.64,12.67,4.05,17.85,9.22.44-1.14.83-1.87,1-2.64,1.67-7.89,6.78-10.94,14.54-8.62,1.94.58,3.89,1.14,5.79,1.85,1.43.53,2.16.12,2.7-1.25,1.56-3.93,3.21-7.82,4.83-11.73C318.33,3.26,323.34.09,330.29,0c3.04-.04,6.09.39,9.14.47,2.89.08,5.79.03,8.68-.05,3.05-.09,6.1-.47,9.15-.42,6.47.11,11.26,3.13,14.06,8.97,1.93,4.01,3.66,8.14,5.27,12.29.62,1.61,1.26,2.06,2.92,1.48,2.5-.88,5.04-1.67,7.62-2.24,6.14-1.37,10.86,1.67,12.32,7.75.27,1.1.59,2.19.94,3.46.58-.32.96-.44,1.23-.68,4.28-3.76,9.29-5.99,14.75-7.48,3.07-.84,6.1-1.98,8.98-3.35,6.54-3.11,11.93-1.19,14.66,5.51.81,1.99,1.42,4.06,2.24,6.46.85-.54,1.48-.91,2.07-1.34,6.94-5.09,13.79-10.33,20.87-15.21,2.25-1.55,5.07-2.64,7.77-3.08,6.09-.99,10.01,1.46,13.09,6.9,2.35,4.14,5.07,8.08,7.69,12.06,1.05,1.6,2.61,1.59,4.17.86,5.47-2.55,10.94-5.08,16.37-7.71,7.65-3.71,15.78-4.58,24.08-3.92,5.25.42,8.91,3.54,11.29,8.19,5.03,9.84,9.72,19.86,15.19,29.45,5.58,9.8,11.92,19.17,17.91,28.73,2.27,3.63,5.27,4.82,9.59,3.79,7.17-1.72,12.57.94,14.71,7.51,4.23,13.03,10.5,25.13,16.2,37.5,2.07,4.48,3.99,9.03,5.87,13.59.7,1.7,1.46,2.27,3.35,1.5,3.48-1.42,6.51-.64,9.54,1.8,5.19,4.18,7.94,9.52,9.91,15.78,4.01,12.77,8.88,25.26,12.9,38.03,2.67,8.46,4.47,17.19,6.67,25.79.19.76.4,1.52.62,2.27.43,1.44,1.38,1.96,2.86,1.72,1.23-.2,2.47-.37,3.72-.39,4.65-.06,8.05,2.91,8.22,7.54.22,6.02.54,12.08.07,18.06-.48,6.19-1.72,12.33-2.86,18.44-2.1,11.22-4.93,22.34-6.41,33.64-1.34,10.2-1.29,20.59-1.83,30.89-.26,5-.61,10-.66,15-.04,4.69.18,9.38.42,14.06.27,5.34-.82,10.37-3.74,14.79-5.79,8.75-11.59,17.51-19.79,24.34-4.88,4.06-9.69,8.22-14.31,12.56-7.54,7.08-14.91,14.36-22.36,21.54-5.65,5.45-7.03,12.14-5.84,19.62.91,5.71,1.83,11.43,2.7,17.15,1.28,8.39-2.14,15.25-7.53,21.18-3.09,3.39-6.82,6.21-10.31,9.22-.99.86-1.71,1.49-1.36,3.1,2.21,10.23,4.36,20.48,6.36,30.75,2.24,11.49,4.5,22.98,6.36,34.54,1.21,7.53,1.64,15.18,2.57,22.75.72,5.81.52,11.53-.8,17.22-1.08,4.64-3.43,8.45-7.59,10.85-2.92,1.69-4.2,4.12-4.79,7.33-2.78,14.95-2.81,30.03-2.89,45.16-.06,11.88-.52,23.78-3.01,35.5-1.49,7.03-4.96,12.51-10.91,16.62-4.28,2.96-8.41,5.94-13.84,6.44-2.88.27-4.19,2.62-4.99,5.07-2.44,7.5-4.91,15-7.1,22.58-3.7,12.84-7.05,25.77-10.84,38.58-1.46,4.93-3.61,9.68-5.66,14.42-3.77,8.7-9.82,15.69-17.46,21.1-2.62,1.85-6.11,2.86-9.35,3.36-7.5,1.15-15.09,1.77-22.64,2.56-1.69.18-2.42,1.05-2.75,2.66-1.59,7.77-2.39,15.84-5.12,23.2-2.94,7.91-8.94,13.81-17.89,15.28-3.37.55-6.87.54-10.3.39-17.04-.76-33.73,2.25-50.54,4.27-10.95,1.31-22.02,1.68-33.05,2.18-5,.23-9.76-1.39-14.27-3.52-5.9-2.79-11.77-2.98-17.67-.09-7.75,3.8-15.98,3.8-24.38,3.6-13.23-.31-26.19-2.67-39.24-4.35-12.38-1.6-24.77-2.76-37.29-1.93-7.02.47-13.49-1.25-18.65-6.18-3.44-3.28-6.27-7.04-7.22-12.02-1.36-7.13-3.05-14.21-4.77-21.26-.21-.86-1.41-1.98-2.27-2.09-7.38-.95-14.77-1.87-22.18-2.45-5.92-.46-10.45-3.26-14.69-7.11-8.69-7.9-13.96-17.89-17.38-28.87-3.79-12.18-7.03-24.54-10.64-36.78-2.67-9.09-5.54-18.12-8.32-27.17-1.07-3.49-3.26-5.28-7.03-5.92-2.89-.49-5.67-2.06-8.31-3.49-2.12-1.14-3.95-2.82-5.92-4.23-4.52-3.23-6.96-7.79-8.18-13.06-2.26-9.75-2.99-19.65-3.17-29.64-.31-16.97.31-33.99-2.78-50.83-.77-4.18-1.95-7.54-6-9.93-5.65-3.33-7.34-9.28-7.51-15.42-.17-6.32-.4-12.76.61-18.96,4.01-24.8,8.48-49.53,12.83-74.27.36-2.08.87-4.16,1.6-6.14.67-1.82.21-2.84-1.34-3.92-5.79-4.01-10.74-8.85-14.46-14.92-3-4.9-4.04-10.14-3.21-15.79.96-6.59,1.87-13.18,2.92-19.75,1.07-6.69-1.47-12.08-6.11-16.5-11.06-10.55-21.98-21.28-33.52-31.28-9.27-8.04-16.61-17.45-23.08-27.68-2.7-4.26-3.46-8.94-3.29-14.12.26-7.94,1.01-15.91-.18-23.91-.72-4.85-.52-9.86-.51-14.8.02-11.86-1.29-23.57-3.74-35.15-1.71-8.08-3.83-16.08-5.36-24.19-1.06-5.6-1.7-11.32-2.03-17.02-.28-4.84.03-9.72.33-14.57.38-6.31,4.28-9.08,11.1-8.13,3.11.43,3.3.32,4.12-2.79,2.48-9.46,4.57-19.04,7.5-28.35,4.37-13.94,9.35-27.69,14.02-41.54,1.84-5.45,6.06-8.86,10.37-12.1,2.26-1.7,5.1-1.37,7.65-.25,1.39.61,2.18.38,2.79-.99,6.78-15.34,13.6-30.67,20.35-46.02,1.01-2.29,1.58-4.76,2.53-7.08,1.83-4.45,5.42-6.33,10.05-6.35,1.71,0,3.43.19,5.11.5,3.44.64,6.15-.24,8.07-3.29,3.1-4.9,6.15-9.84,9.41-14.64,9.33-13.74,16.41-28.71,23.75-43.53,3-6.05,7.59-9.18,14.33-9.18,8.58,0,16.8,1.39,24.46,5.64,4.3,2.39,8.95,4.13,13.42,6.22,1.89.88,3.26.48,4.39-1.28,2.69-4.22,5.54-8.34,8.16-12.6,3.11-5.06,7.83-7.29,13.61-5.76,2.46.65,4.97,1.66,7.03,3.12,7.26,5.18,14.33,10.62,21.47,15.96.18.14.4.23,1.06.62ZM175.23,343.48c-.26,0-.53,0-.79.01-.3,3.82-2.23,6.64-4.87,9.14-.55.52-.59,1.89-.44,2.81.42,2.67,1.29,5.29,1.57,7.97.64,6.23,2.48,12.12,4.3,18.08,2.15,7.06,3.37,14.39,5.24,21.54,1.75,6.7.59,12.84-2.73,18.76-.83,1.49-1.53,3.12-1.91,4.77-.24,1.02-.13,2.46.45,3.26,7.49,10.38,11.91,22.07,15.09,34.34,2.23,8.58,4.41,17.17,6.97,25.65,1.5,4.95.55,9.09-2.56,12.95-2.19,2.72-2.18,2.66.22,5.13,6.56,6.75,11.54,14.54,15.38,23.12,2.26,5.06,4.38,10.24,7.2,14.97,5.31,8.89,3.05,17.34-6.32,21.8q-3.21,1.53-1.9,4.77c.14.35.16.75.19,1.14.78,7.6,1.85,15.19,2.24,22.81.34,6.61-1.42,11.23-9.25,12.67-2,.37-4.06.53-6.01,1.08-5.09,1.41-8.56,4.6-9.5,9.93-.56,3.15-.67,6.38-.9,9.58-.11,1.57.72,2.3,2.32,2.66,1.95.43,4.01.99,5.67,2.04,4.1,2.61,6.37,6.66,7.49,11.28,1.52,6.27,2.77,12.61,4.24,18.9,1.01,4.3,1.87,8.68,3.37,12.82,3.78,10.43,7.97,20.71,11.81,31.11.84,2.28.91,4.85,1.38,7.28.41,2.13.47,4.48,1.44,6.32,2.08,3.91,4.7,7.53,7.01,11.32,3.9,6.39,9.27,11.54,14.06,17.19,7.42,8.75,14.44,17.85,21.63,26.8,4.69,5.84,5.75,12.42,3.72,19.5-.55,1.92.07,2.99,1.33,4.3,1.77,1.84,3.6,3.79,4.71,6.04,1.87,3.79,3.2,7.84,4.78,11.87,6.75-3.11,14-3.54,21.31-3.13,10.32.58,20.63,1.36,30.94,2.15,12.33.95,24.59-.13,36.84-1.21,11.75-1.03,23.52-2.5,34.91,2.17.15-.28.29-.47.36-.69.12-.37.19-.75.3-1.12,1.77-5.94,3.41-11.97,8.49-16.13,1.51-1.24,1.72-2.42,1.2-4.28-1.99-7.09-.96-13.65,3.88-19.44,9.07-10.84,18.04-21.78,27.22-32.53,5.21-6.11,9.33-12.91,13.6-19.66,2.44-3.86,3.65-7.63,3.36-12.08-.06-.97.29-2.01.62-2.96,1.1-3.19,2.24-6.36,3.41-9.52,3.66-9.88,7.6-19.67,10.93-29.67,2.66-8,4.67-16.21,5.7-24.63.73-6.02,6.13-13.84,13.63-14.27.68-.04,1.57-1.48,1.84-2.43.28-.99-.13-2.17-.14-3.26-.06-11.09-4.33-15.96-15.51-17.26-7.26-.85-9.87-4.03-9.61-11.38.21-5.77.97-11.52,1.59-17.27.36-3.32,1-6.61,1.33-9.93.06-.65-.6-1.53-1.17-2.05-.55-.5-1.41-.65-2.11-1-8.99-4.37-11.12-12.61-5.88-21.11,2.82-4.58,5.24-9.46,7.31-14.43,3.81-9.14,8.7-17.52,15.75-24.51,1.64-1.63,1.78-2.73.13-4.45-3.33-3.46-4.42-7.43-2.96-12.29,3.15-10.54,6.06-21.15,8.87-31.79,2.56-9.7,6.08-18.99,12.08-27.05,2.42-3.25,2.27-5.93.38-8.95-4.15-6.62-5.23-13.46-2.92-21.11,2.2-7.31,3.05-15.06,5.55-22.25,2.74-7.9,3.62-16.08,5.24-24.15.22-1.08-.77-2.49-1.39-3.64-1.2-2.23-2.56-4.38-3.79-6.6-.31-.56-.37-1.26-.68-2.4-.9,1.4-1.52,2.35-2.13,3.32-2.18,3.44-4.32,6.91-6.55,10.32-4.17,6.39-10.09,8.31-17.36,6.64-8.12-1.87-15.55-5.31-22.46-9.92-2.8-1.87-5.59-3.76-8.38-5.66-1.4-.95-2.28-1.01-2.34,1.07-.23,8.62-2.54,16.78-5.44,24.83-1.26,3.49-3.27,5.9-7,6.87-3.55.93-7.08,2.02-10.52,3.31-10.57,3.97-21.43,4.8-32.59,3.59-6.46-.7-12.12-3.13-17.11-7.1-2.5-1.98-4.87-4.27-5.5-7.66-.56-3.01-.63-3.02-3.79-2.92-7.2.24-14.4.52-21.6.55-9.56.04-19.11-.13-28.67-.24-2.11-.03-4.23-.34-6.34-.27-.74.02-2.03.74-2.08,1.24-.61,5.92-4.88,8.86-9.27,11.68-8.98,5.75-19.09,5.58-29.12,5.01-9.96-.57-19.1-4.71-28.52-7.55-3.06-.92-4.85-3.11-5.83-5.98-2.71-7.92-5.52-15.81-5.79-24.33-.1-3.28-.42-3.32-3.21-1.6-5.93,3.66-11.67,7.7-17.9,10.75-4.64,2.27-9.85,3.63-14.95,4.67-5.53,1.13-10.23-1.07-13.51-5.7-2.49-3.51-4.72-7.21-7.06-10.82-.74-1.15-1.48-2.31-2.21-3.46ZM210.42,220.23c-.71,5.46-1.36,10.47-2,15.49-.24,1.88.21,3.51,1.56,4.95,1.81,1.94,3.35,4.14,5.24,6.01,7.17,7.11,14.37,14.2,21.68,21.17,10.32,9.84,20.67,19.65,31.16,29.3,3.79,3.48,7.97,6.54,12.99,8.2,7.1,2.34,14.35,1.76,21.59,1.23,8.87-.65,17.71-1.7,26.59-2.12,4.89-.23,9.83.67,14.75.71,7.09.06,14.21-.53,21.29-.24,8.57.35,17.11,1.44,25.67,2,8.43.55,16.66-.23,23.51-5.89,5.3-4.38,10.45-8.95,15.5-13.62,6.5-6.01,12.7-12.36,19.29-18.27,9.93-8.91,19.56-18.08,28.18-28.28,1.34-1.58,1.97-3.28,1.62-5.41-.5-3.08-.82-6.2-1.22-9.3-.24-1.85-.52-3.7-.81-5.79-1.04.5-1.61.74-2.15,1.03-6.2,3.35-12.39,6.73-18.6,10.06-6.42,3.44-12.93,6.73-19.27,10.29-10.91,6.14-21.61,12.68-32.64,18.58-5.89,3.15-12.44,5.05-18.46,7.99-12.28,6-25.03,8.67-38.68,6.95-2.77-.35-5.63.09-8.45.06-6.17-.08-12.67.94-18.45-.62-10.44-2.81-20.78-6.51-30.57-11.09-11.11-5.2-21.53-11.85-32.31-17.76-12.92-7.08-25.9-14.02-38.85-21.05-2.6-1.41-5.16-2.92-8.14-4.61ZM436.15,220.51c.8-.23,1.26-.29,1.66-.48,4.42-2.21,8.87-4.35,13.21-6.71,1.33-.72,2.76-1.8,3.42-3.08,2.31-4.43,4.51-8.95,6.38-13.58,3.9-9.68,6.02-19.83,7.24-30.16.43-3.62.41-7.29.53-10.95.06-1.84-.99-2.45-2.72-2.31-2.96.24-5.94.63-8.9.55-14.96-.38-29.93-.62-44.87-1.43-11.57-.62-23.11-1.88-34.63-3.09-7.54-.79-15.05-1.97-22.56-3.07-3.53-.52-7.03-1.27-10.55-1.86-.57-.1-1.19.02-1.77.13-2.9.55-5.78,1.31-8.7,1.67-4.27.52-8.6.55-12.86,1.16-6.98.99-13.87,2.69-20.87,3.36-10.99,1.04-22.05,1.46-33.07,2.14-15.1.93-30.2,1.85-45.32.45-2.16-.2-3.13.69-2.98,2.76.26,3.64.58,7.28.91,10.91.98,10.9,3.68,21.39,7.59,31.58,1.26,3.28,2.69,6.51,4.27,9.64,1.32,2.62,3.32,4.63,6.11,5.92,4.38,2.02,8.65,4.27,13.47,6.68-.15-1.31-.15-2.13-.35-2.9-2.28-8.8-4.63-17.57-6.88-26.38-1.24-4.85-2.53-9.7-3.44-14.61-1.12-6.07,2.47-10.54,8.61-10.93,2.72-.17,5.51-.19,8.2.17,8.79,1.17,17.49.6,26.17-.94,9.55-1.69,19.11-3.33,28.67-4.99,9.55-1.66,19.1-3.36,28.66-4.95,1.66-.28,3.45-.34,5.1-.06,4.7.8,9.33,1.96,14.03,2.74,12.42,2.07,24.88,3.91,37.29,6.06,9.88,1.71,19.73,3.57,29.84,2.47,2.72-.3,5.46-.53,8.19-.7,6.13-.39,10.78,2.17,11.55,6.9.41,2.53.06,5.33-.57,7.85-3.09,12.48-6.39,24.92-9.6,37.37-.2.78-.26,1.6-.43,2.69ZM92.14,354.69c.23-.57.59-1.41.93-2.26,3.97-9.97,7.88-19.97,11.95-29.9.84-2.05.82-3.59-.5-5.41-3.81-5.26-5.6-11.23-3.97-17.56,2.04-7.94,2.91-16.41,8.61-23.01.25-.29.58-.67.57-1-.03-.66-.04-1.57-.45-1.93-5.45-4.82-10.95-9.59-16.49-14.31-.92-.79-2.04-1.45-3.19-1.86-5.07-1.8-10.29-3.22-15.25-5.28-5.7-2.38-11.15-5.37-16.77-7.95-2.51-1.15-2.92-.8-3.41,1.86-.71,3.84-1.42,7.68-2.15,11.52-2.14,11.2-4.99,22.31-5.14,33.79-.07,5.22.14,10.49.79,15.67.63,5.07,3.75,9.1,7.24,12.63,7.47,7.56,15.05,15.03,22.77,22.35,4.58,4.34,9.49,8.33,14.46,12.66ZM595,354.13c2.09-1.7,4.37-3.6,6.69-5.42,11.48-9.02,22.16-18.87,31.67-29.98,3.49-4.07,6.54-8.42,6.69-13.91.2-7.26.61-14.64-.36-21.79-1.71-12.64-4.42-25.14-6.67-37.7-.35-1.98-1.44-1.99-2.87-1.31-5.02,2.38-9.96,4.97-15.07,7.14-5.32,2.25-10.81,4.08-16.21,6.14-1.49.57-3.13,1.05-4.32,2.04-5.59,4.66-11.02,9.51-16.55,14.24-1.41,1.21-.3,2.04.23,3.01,1.65,3.06,3.46,6.06,4.89,9.22.98,2.17,1.36,4.61,2.12,6.88,3.04,9.05,2.87,17.65-3.06,25.67-.57.77-.43,2.44-.05,3.47,1.61,4.32,3.47,8.55,5.18,12.84,2.71,6.8,5.37,13.62,7.67,19.47ZM532.11,357.51c-.59,3.05-.96,5.6-1.59,8.09-3.21,12.74-6.58,25.44-9.65,38.22-.49,2.06-.44,4.8.56,6.55,2.15,3.77,4.97,7.19,7.76,10.55.73.89,2.33,1.31,3.58,1.46,1.77.2,3.63.15,5.39-.15,8.55-1.47,17.12-2.88,25.61-4.65,9.7-2.03,18.63-5.84,26.11-12.59,2.11-1.9,3.35-4.21,3.04-7.06-.76-7-1.26-14.06-2.57-20.96-3.01-15.88-10.19-30.22-17.18-44.61-.2-.42-.38-.84-.67-1.48-1.03,1.23-1.62,1.85-2.11,2.54-6.07,8.53-12.21,17.02-18.17,25.63-4.57,6.6-11,5.64-15.67,2.07-1.41-1.08-2.76-2.24-4.42-3.6ZM115.03,331.23c-.47.64-.81.97-1,1.37-3.76,8.26-7.78,16.42-11.18,24.84-5.08,12.56-7.91,25.68-8.46,39.26-.13,3.15.59,6.01,2.94,8.1,4.65,4.12,9.77,7.66,15.75,9.5,6.25,1.92,12.59,3.69,19,4.95,7.12,1.4,14.34,2.33,21.56,3.07,1.66.17,3.9-.84,5.13-2.06,2.37-2.35,4.26-5.2,6.28-7.9,1.63-2.17,2.22-4.65,1.7-7.34-.33-1.69-.66-3.38-1.08-5.06-3.37-13.61-6.75-27.22-10.14-40.82-.09-.36-.28-.69-.54-1.29-.68.49-1.23.88-1.77,1.28-1.51,1.1-2.94,2.37-4.56,3.28-4.67,2.61-8.93,1.88-12.41-2.12-1.38-1.59-2.55-3.37-3.77-5.09-5.04-7.08-10.05-14.17-15.1-21.24-.65-.91-1.47-1.71-2.36-2.72ZM113.19,267.27c.63-1.44.86-1.94,1.07-2.44,3.21-7.4,6.42-14.8,11.74-21.05.61-.72.49-2.16.51-3.27.07-2.56-.44-5.23.13-7.65.84-3.55,2.13-7.07,3.72-10.36,5.21-10.79,10.62-21.48,16.01-32.18.74-1.47,1.2-2.55-.91-3.17-7.41-2.16-13.94-5.94-19.86-10.86-1.87-1.56-3.85-2.94-6.55-2.69-.77.07-1.86-.27-2.37-.82-2.48-2.64-5.84-2.71-9.02-3.46-2.69-.64-4.26.28-5.5,2.64-7.32,14.02-13.66,28.38-14.47,44.47-.31,6.3-.24,12.71.5,18.96.69,5.83,4.42,10.45,8.37,14.64,5.35,5.69,10.83,11.24,16.63,17.23ZM574.21,266.68c5.77-5.76,11.56-11.38,17.17-17.17,6.45-6.68,9.22-14.77,8.65-24.03-.28-4.54-.37-9.09-.86-13.61-1.62-14.87-7.73-28.16-14.83-41.06-.46-.84-1.95-1.78-2.8-1.64-3.57.55-7.42.34-10.34,3.19-.68.66-1.83,1.3-2.71,1.22-3.36-.28-5.62,1.7-7.92,3.55-5.25,4.22-11.01,7.46-17.42,9.57-3.49,1.15-3.36,1.15-1.73,4.44,5.64,11.36,11.31,22.71,16.76,34.16,2.4,5.05,4.07,10.34,2.6,16.13-.2.79.4,1.93.92,2.73,1.56,2.44,3.49,4.66,4.85,7.19,2.66,4.94,5.04,10.04,7.65,15.32ZM517.04,276.84c.52-.62.94-1.08,1.31-1.58,5.12-6.92,10.3-13.79,15.31-20.77,4.43-6.17,8.71-12.44,12.96-18.74.59-.87,1-2.27.74-3.23-.82-3.16-1.65-6.4-3.08-9.3-8.29-16.79-16.77-33.5-25.17-50.24-.78-1.55-1.92-1.86-3.5-1.41-3.39.96-6.8,1.88-10.21,2.76-2.11.55-2.97,1.9-3.26,4.03-.78,5.72-1.52,11.46-2.73,17.09-1.4,6.54-3.26,12.99-5,19.46-.45,1.66-.12,2.61,1.67,2.79,6.72.66,10.46,4.91,12.6,10.8,2.37,6.52,1.62,13.32,1.14,20.01-.35,4.89-.4,9.6,1.64,14.22,1.97,4.48,3.62,9.11,5.58,14.1ZM528.81,332.41c-.24.03-.48.07-.72.1,0,1.25.11,2.52-.03,3.76-.24,2.14.73,3.43,2.58,4.23,4.37,1.88,8.78,3.67,13.1,5.64,1.79.81,3.01.38,4.01-1.11,2.09-3.12,4.19-6.22,6.2-9.39,4.47-7.06,8.56-14.38,13.41-21.17,4.36-6.11,7.54-12.23,5.86-19.98-1.04-4.8-1.35-9.88-3.18-14.36-3.51-8.61-9.4-15.87-15.03-23.22-.97-1.26-1.65-1.21-2.71.06-9.66,11.52-19.41,22.96-29.04,34.5-.72.87-1.14,2.42-.96,3.54.6,3.84,1.65,7.62,2.3,11.46,1.47,8.63,2.81,17.29,4.2,25.94ZM170.58,276.79c.82-2.23,1.44-4.17,2.23-6.03,3.2-7.51,6.45-14.99,4.65-23.49-.13-.61-.14-1.25-.16-1.87-.24-6.12-.69-12.33,1.75-18.11,2.17-5.13,5.68-9.04,11.75-9.53,2.12-.17,2.68-1.14,2.14-3.14-1.74-6.41-3.64-12.8-5.04-19.29-1.24-5.73-1.91-11.58-2.82-17.38-.28-1.78-1.06-3.05-2.94-3.52-3.27-.83-6.51-1.76-9.76-2.63-2.97-.8-3.36-.52-4.71,2.23-3.04,6.19-6.19,12.31-9.26,18.49-5.78,11.65-11.6,23.28-17.26,34.98-1.29,2.66-2.06,5.72-.22,8.48,3.65,5.46,7.69,10.67,11.21,16.21,5.45,8.58,11.48,16.7,18.44,24.6ZM165.58,293.81c-.32-.53-.67-1.31-1.2-1.93-1.02-1.19-2.21-2.23-3.21-3.43-8.7-10.39-17.41-20.77-26.04-31.23-1.26-1.53-2-1.65-3.14,0-1.42,2.07-3,4.01-4.5,6.02-6.89,9.25-12.68,18.91-13.41,30.91-.32,5.17-.54,10.12,2.41,14.69,2.19,3.39,4.25,6.87,6.42,10.28,3.32,5.2,6.68,10.37,10.02,15.56,2.15,3.35,4.28,6.72,6.42,10.07,1.07,1.67,2.42,2.26,4.36,1.39,4.55-2.05,9.18-3.94,13.69-6.09.83-.4,1.76-1.75,1.73-2.62-.49-11.17,1.59-22.01,4-32.81.78-3.5,1.59-7,2.46-10.82ZM373.42,258.36c5.91-3.13,11.21-5.8,16.34-8.76,1.06-.61,1.8-2.17,2.21-3.44,2.88-9.02,5.69-18.07,8.41-27.14,1.68-5.58,3.17-11.21,4.79-16.95-.92-.2-1.36-.39-1.8-.38-14.66.07-28.9-3.65-43.43-4.72-6.82-.51-13.49-2.54-20.48-1.54-10.23,1.45-20.51,2.58-30.79,3.74-8.24.93-16.5,1.7-24.75,2.55-.37.04-.73.19-1.14.31,0,.61-.12,1.18.02,1.68,1.62,5.85,3.23,11.7,4.95,17.52,2.42,8.16,4.96,16.29,7.42,24.44.66,2.2,1.82,3.86,3.97,4.94,4.2,2.1,8.3,4.4,12.45,6.61.56.3,1.16.51,2.23.97-.38-1.46-.62-2.35-.85-3.23-2.85-10.84-5.79-21.65-8.53-32.51-1.85-7.35,1.24-11.68,8.75-12.65,1.01-.13,2.04-.16,3.05-.1,4.37.29,8.74.78,13.12.92,5.78.18,11.57.19,17.36.11,5.23-.07,10.46-.4,15.69-.51,4.6-.1,9.27-.51,13.8.05,5.27.65,8.18,5.12,6.93,10.32-2.73,11.32-5.77,22.57-8.69,33.85-.29,1.1-.58,2.2-1.04,3.94ZM558.71,161.65c-.4-1.13-.69-2.02-1.04-2.89-6-14.91-12.05-29.79-17.95-44.74-.88-2.24-1.89-2.93-4.19-2.14-6,2.06-12.04,4.01-18.08,5.95-4,1.28-8.02,1.48-11.94-.33-1.44-.67-2.49-.37-3.53.79-2.35,2.63-4.74,5.22-7.18,7.77-1.57,1.63-1.47,3.02.08,4.65,3.24,3.42,5.51,7.48,6.57,12.04.86,3.72,1.26,7.55,1.74,11.35.37,2.94.72,3.11,3.53,2.39,3.33-.85,6.71-1.7,10.11-2.03,7.77-.75,12.49,2.77,14.5,10.32.99,3.7,2.11,7.37,3.15,11.05.36,1.29.95,1.67,2.19.86,6.9-4.47,13.84-8.88,20.73-13.37.58-.38.9-1.15,1.3-1.68ZM152.01,177.75c.55-1.32.95-2.06,1.17-2.86.98-3.47,1.93-6.94,2.86-10.42,1.9-7.13,6.42-10.6,13.78-10.03,3.48.27,6.95,1.1,10.36,1.96,3.35.85,3.6.82,3.83-2.67.59-8.89,2.72-17.16,9.03-23.92.5-.54.39-2.29-.11-3-1.4-1.97-3.27-3.59-4.74-5.52-2.41-3.16-4.74-4.93-9.2-3.05-4.38,1.85-8.9-.2-13.23-1.7-4.88-1.69-9.83-3.2-14.74-4.8-1.52-.5-2.5-.13-3.14,1.46-5.81,14.53-11.69,29.04-17.5,43.58-2.13,5.33-2.09,5.42,2.73,8.64,6.11,4.08,12.29,8.04,18.88,12.34ZM344.35,319.63c-9.07.52-17.51.98-25.95,1.49-2.66.16-5.31.44-7.96.68-1.51.14-2.22.88-2.03,2.5,1.08,9.63,2.13,19.27,3.18,28.91.26,2.39.71,2.73,2.97,2,.97-.31,1.91-.71,2.85-1.1,5.18-2.2,10.56-3.3,16.19-3.27,6.66.04,13.32.06,19.98,0,6.04-.07,11.78,1.16,17.29,3.59,4.46,1.97,4.61,1.84,5.11-3.1.88-8.73,1.73-17.46,2.71-26.17.31-2.76.23-3.22-2.6-3.42-10.78-.77-21.57-1.44-31.73-2.1ZM142.42,724.79c4.9-1.44,9.57-2.19,13.68-4.14,15.1-7.15,30.58-13.55,44.91-22.26,3.01-1.83,3.09-1.76,1.68-5.06-3.94-9.22-7.81-18.46-9.97-28.33-1-4.58-2.49-9.06-3.89-13.54-.23-.72-1.13-1.23-1.72-1.84-.4.76-1.11,1.51-1.16,2.29-.17,2.81-.11,5.64-.16,8.46-.06,3.87,0,7.98-2.73,10.94-4.82,5.23-9.74,10.46-15.2,14.99-9.2,7.65-18.84,14.76-28.31,22.08-1.8,1.39-2.2,3.07-1.53,5.18.99,3.13,1.86,6.29,2.9,9.4.24.72,1.01,1.26,1.49,1.82ZM550,711.16c-.69-.86-1.35-2.03-2.32-2.82-6.61-5.39-13.3-10.7-19.95-16.05-4.44-3.57-8.9-7.13-13.26-10.8-2.34-1.96-4.4-4.25-6.75-6.18-4.31-3.54-6.34-7.99-6.19-13.56.09-3.36.01-6.74-.15-10.1-.03-.73-.75-1.42-1.15-2.13-.57.54-1.41.98-1.67,1.64-.8,2.03-1.45,4.14-2.04,6.24-2.07,7.29-3.87,14.67-6.21,21.88-1.66,5.12-4.03,10.01-6.09,15-.55,1.33-.84,2.5.79,3.38,4.89,2.64,9.65,5.52,14.63,7.98,8.61,4.24,17.25,8.43,26.04,12.26,5.69,2.47,11.67,4.27,17.53,6.36,1.83.65,2.88.2,3.37-1.88.65-2.74,1.65-5.39,2.5-8.08.28-.89.53-1.79.93-3.13ZM440.08,799.4c1.36-.72,2.43-1.07,3.22-1.75,7.95-6.79,16.35-13.04,23.25-21.03,4.34-5.02,9.24-9.54,13.73-14.44,2.31-2.53,4.28-5.38,6.39-8.09.84-1.08.95-2-.32-2.98-1.14-.88-2.17-1.96-3.07-3.1-2.71-3.44-5.34-6.94-8-10.43-1.04-1.36-1.91-1.29-2.93.12-2.01,2.8-4.08,5.56-6.23,8.25-8.11,10.16-16.24,20.31-24.42,30.42-2.66,3.29-5.46,6.46-8.24,9.65-1.69,1.95-1.78,3.83-.15,5.89,1.11,1.4,1.92,3.06,3.1,4.4,1.03,1.16,2.38,2.03,3.65,3.08ZM255.6,788.88c-.89-1.3-1.74-2.89-2.92-4.18-13.55-14.94-25.65-31.05-37.86-47.06-1.24-1.62-2.05-.94-2.9.17-2.66,3.47-5.27,7-7.93,10.47-.71.92-1.4,2.13-2.37,2.5-2.32.9-1.63,2.34-.71,3.47,4.95,6.04,9.82,12.16,15.11,17.9,4.38,4.74,9.21,9.09,14.01,13.42,4.7,4.24,9.56,8.32,14.47,12.32,2.23,1.82,3.85,1.59,5.69-.61,1.7-2.04,3.16-4.27,4.69-6.46.3-.43.39-1.01.72-1.94ZM165.95,440.84c-.32,0-.63,0-.95,0-.51.55-1.04,1.08-1.51,1.66-2.23,2.72-4.41,5.48-6.69,8.16-3.43,4.04-6.94,8.01-10.37,12.04-1.31,1.53-.95,3.17.34,4.41,3.5,3.37,5.98,7.42,8.05,11.75,1.03,2.16,2.63,2.65,4.83,2.08,5.82-1.51,11.65-3.02,17.5-4.41,1.53-.36,1.97-1.05,1.52-2.47-.55-1.71-.99-3.47-1.65-5.14-3.66-9.36-7.38-18.71-11.07-28.06ZM522.16,440.41c-1.62,3.59-3.11,6.6-4.34,9.71-3.11,7.85-6.11,15.75-9.14,23.64-.55,1.42-.34,2.33,1.4,2.74,5.79,1.36,11.55,2.83,17.31,4.28,3.22.81,3.74.38,5.44-2.42,2.22-3.66,4.61-7.25,7.25-10.62,2.07-2.64,2.33-2.88.41-5.63-.67-.96-1.4-1.89-2.16-2.78-3.96-4.64-7.94-9.26-11.91-13.89-1.31-1.53-2.6-3.07-4.25-5.02ZM499.29,556.55c.75-.8,2.04-1.65,2.58-2.83,5.34-11.66,10.57-23.37,15.8-35.08.89-1.99.17-2.8-2.1-2.88-1.28-.05-2.6-.31-3.81-.73-1.92-.66-3.82-1.44-5.65-2.32-1.48-.71-2.21-.28-2.97,1.08-6.73,12.21-13.52,24.38-20.3,36.56-1.02,1.84-.76,2.33,1.37,2.79,3.44.75,6.86,1.57,10.29,2.36,1.37.31,2.75.6,4.78,1.04ZM173.32,515.95c-4-.2-4.53.61-3.35,3.31,3.58,8.14,7.09,16.32,10.72,24.43,1.53,3.41,3.29,6.72,4.97,10.07,1.03,2.06,2.51,2.99,4.95,2.32,3.84-1.05,7.74-1.94,11.64-2.76,3.31-.69,3.35-.82,1.63-3.86-6.15-10.91-12.36-21.78-18.28-32.82-2.9-5.41-1.94-4.84-7.36-2.7-1.94.77-3.86,1.56-4.94,2ZM334.08,18.24c0-.14,0-.29-.01-.43-.71,0-1.42.09-2.11-.02-2.72-.41-4.47.7-5.55,3.21-.83,1.94-1.87,3.79-2.82,5.68-1.34,2.69-1.21,3.05,1.43,4.59,5.75,3.34,11.48,6.72,17.26,10,.69.39,1.93.56,2.56.21,6.26-3.54,12.44-7.25,18.68-10.84,1.39-.8,1.38-1.7.75-2.91-1.23-2.37-2.49-4.72-3.62-7.13-.98-2.09-2.4-2.95-4.81-2.85-7.25.29-14.51.35-21.76.49Z" style="fill: #000; stroke-width: 0px;"/>
  <path d="M380.05,780.8c-.39.47-.53.58-.58.71-2.48,6.88-4.36,8.16-11.78,8.02-11.2-.22-22.4-.52-33.59-.63-4.3-.04-8.6.39-12.91.54-1.95.07-3.93.09-5.87-.11-3.84-.4-6.32-2.5-7.28-6.3-.18-.73-.45-1.43-.71-2.26-1.28.41-2.28.87-3.34,1.05-3.79.65-6.32-1.37-8.2-4.3-2.63-4.08-5.04-8.31-7.61-12.43-2.49-3.99-4.95-8.01-7.63-11.86-2.45-3.52-2.93-7.05-.76-10.77,1.03-1.77.66-2.94-.6-4.54-3.23-4.09-5.43-8.63-5.82-14.07-.46-6.39-1.49-12.75-2.38-19.11-.42-3.01-1.05-5.99-1.66-8.96-.61-2.99-.12-5.78,2.18-7.77,2.29-1.98,4.78-3.87,7.47-5.21,4.13-2.05,8.49-3.64,12.78-5.35,2.81-1.12,5.53-.8,8.27,1.21.44-1.2.85-2.09,1.1-3.03.73-2.7,2.15-4.89,4.63-6.25,8.24-4.52,16.49-9.04,24.79-13.46,2.5-1.33,4.92-.67,6.88,1.76,1.02,1.26,1.98,1.65,3.61,1.32,1.57-.32,3.3-.31,4.88,0,1.59.3,2.59.04,3.64-1.25,2.23-2.73,4.67-3.1,7.71-1.46,6.97,3.76,13.89,7.59,20.92,11.23,4.09,2.12,7.38,4.75,8.14,9.62.05.29.25.57.41.83.08.12.25.17.71.47,3.59-3.02,7.41-1.43,11.07.26,5.17,2.39,10.43,4.71,15.23,7.73,4.33,2.72,4.84,6.15,3.47,11.11-.78,2.84-.95,5.85-1.34,8.79-.72,5.43-1.57,10.85-2.05,16.31-.31,3.57-.88,7-2.69,10.11-1.18,2.02-2.63,3.88-3.75,5.93-.45.81-.81,2.17-.43,2.84,2.56,4.53,1.82,8.48-1.02,12.7-4.8,7.15-9.12,14.62-13.74,21.89-1.03,1.63-2.32,3.19-3.79,4.42-2.59,2.17-5.54,1.64-8.35.27ZM402.58,710.52c0-.78.26-2.04-.07-3.11-.32-1.04-1.09-2.5-1.95-2.73-10.67-2.95-20.28-8.34-30.25-12.9-6.41-2.93-12.27-6.59-16.9-12.06-.66-.78-2.24-1.3-3.29-1.16-4.38.58-8.71.62-13.1.02-1.09-.15-2.72.49-3.44,1.34-3.87,4.48-8.49,7.91-13.81,10.38-10.86,5.05-21.29,11.11-32.99,14.21-1.63.43-2.29,1.52-2.2,3.14.15,2.66.36,5.32.41,7.98.05,2.26,1.07,2.71,3.17,2.37,5.96-.96,11.92-2.16,17.92-2.49,7.87-.44,13.5-3.92,17.5-10.52,3.27-5.39,8.33-8.2,14.36-9.27,2.44-.43,5-.37,7.5-.31,7.62.17,13.8,3.12,18.1,9.61.91,1.37,1.89,2.7,2.94,3.96,2.38,2.84,5.29,5.06,8.98,5.64,8.13,1.28,16.3,2.3,24.44,3.46,1.44.2,2.02-.47,2.13-1.79.15-1.8.33-3.59.54-5.78ZM358.6,761.53s0,.09,0,.13c3.13,0,6.28.17,9.39-.09,1.08-.09,2.53-.99,3.02-1.93,1.34-2.55,2.23-5.34,3.35-8.01.78-1.86.21-2.42-1.78-2.55-3.8-.24-7.61-.66-11.37-1.25-5.78-.91-11.52-2.06-17.3-3.05-.74-.13-1.54.18-2.32.23-9.27.7-18.08,4.49-27.51,4.13-1.53-.06-1.98.69-1.42,2.08,1.1,2.76,2.23,5.51,3.3,8.28.63,1.63,1.77,2.27,3.47,2.16.93-.06,1.88-.02,2.82,0,6.65.2,13.29.57,19.94.56,5.47,0,10.94-.46,16.4-.72Z" style="fill: #000; stroke-width: 0px;"/>
  <path d="M358.14,419.39c.39-6.18,2.89-10.99,8.82-13.76,3.54-1.66,6.95-3.56,9.42-6.82,2.19-2.91,5.56-3.58,8.92-4.18,2-.35,3.95-.95,5.94-1.36.91-.19,1.85-.33,2.77-.29,7.82.35,15.63.76,23.45,1.12,5.22.24,10.52-.34,15.57,1.71.43.18,1.66-.63,1.96-1.25,3.03-6.31,4.72-7.13,11.55-5.29,1.89.51,3.76,1.1,5.65,1.6,3.61.94,5.11,3.51,4.1,7.12-.21.75-.48,1.5-.82,2.2-.57,1.18-.37,1.95,1,2.24.08.02.15.04.23.07q5.79,1.91,7.73-3.85c2.21-6.58,5.41-8.18,12.04-6.18,3.15.95,6.35,1.74,9.54,2.53,5.06,1.26,6.99,4.59,5.2,9.54-1.28,3.53-2.79,6.99-4.37,10.4-.63,1.37-.49,2.19.59,3.25,4.23,4.16,4.76,7.73,1.87,12.87-2.22,3.96-3.32,8.21-4.27,12.62-1.13,5.27-2.58,10.51-4.41,15.58-2.79,7.72-4.82,15.67-5.13,23.77-.21,5.57-1.15,10.86-2.4,16.17-.5,2.13-1.21,4.22-2,6.27-1.76,4.59-4.68,6.57-9.61,6.22-2.71-.2-5.47-.67-8.06-1.46-4.08-1.25-5.83-4.37-5.17-8.56.36-2.24.79-4.48,1.25-6.7.29-1.38.23-2.39-1.41-2.92-1.69-.55-2.04.53-2.54,1.63-.98,2.14-1.86,4.33-2.99,6.38-1.52,2.73-6.31,4.53-8.99,3.58-2.67-.95-4.85-5.1-4.36-8.38.14-.93.37-1.84.6-2.76,2.18-8.63,4.73-17.19,6.42-25.92,1.23-6.34,1.33-12.89,1.88-19.35.2-2.42-1-3.8-3.27-4.79-5.53-2.39-11.01-4.94-16.4-7.65-4.05-2.04-7.8-2.65-11.56.54-.94.79-2.17,1.24-3.28,1.82-4.42,2.32-8.88,4.58-13.26,6.98-1.59.87-3.12,1.7-4.83.67-5.42-3.28-10.95-6.41-16.13-10.05-3.1-2.18-5.66-5.17-8.38-7.87-2.02-2.01-3.33-4.38-2.87-7.45Z" style="fill: #000; stroke-width: 0px;"/>
  <path d="M249.06,451.87c-.08,7.61,1.47,14.95,3.76,22.16.19.6.43,1.2.49,1.81.67,6.02,2.07,11.85,4.12,17.55.83,2.31.97,4.79-.6,7-3.4,4.79-9.73,4.44-12.6-.76-1.09-1.98-1.79-4.19-2.89-6.17-.37-.67-1.43-1.36-2.16-1.34-1.35.02-2.01.97-1.7,2.45.47,2.22.88,4.46,1.26,6.7.8,4.69-1.04,7.88-5.64,9.11-2.78.74-5.69,1.11-8.57,1.29-3.76.23-6.66-1.59-8-5.04-2.79-7.17-4.66-14.5-4.95-22.34-.22-5.95-1.51-11.94-2.92-17.76-2.02-8.36-4.51-16.62-6.97-24.87-1.07-3.58-2.26-7.17-3.92-10.5-2.65-5.31-2.42-8.79,1.8-12.92,1.16-1.14,1.29-2,.61-3.45-1.53-3.26-2.96-6.59-4.19-9.97-1.96-5.39-.08-8.62,5.45-9.94,3.28-.78,6.53-1.67,9.77-2.62,5.87-1.71,9.17-.09,11.21,5.6.08.22.15.45.23.67,2.48,7.35.95,5.6,7.89,3.92,1.27-.31,1.69-.92,1.11-2.2-.45-.99-.84-2.04-1.05-3.11-.53-2.72.61-5.11,3.11-5.87,3.51-1.07,7.08-2.05,10.7-2.64,3.76-.62,5.7.79,7.04,4.34,1.26,3.33,1.22,3.2,4.56,2.27,2.02-.56,4.15-.89,6.25-.95,6.27-.17,12.54-.15,18.82-.22,1.8-.02,3.7.21,5.39-.25,6.45-1.77,12.57.18,18.68,1.59,2.07.48,4.25,1.89,5.65,3.51,2.78,3.2,6.19,5.32,9.92,6.94,8.49,3.69,10.98,15.46,4.52,22-5.15,5.2-10.56,10.03-17.34,13.1-1.77.8-3.31,2.08-4.98,3.11-1.52.94-3.1,1.59-4.87.65-6.08-3.21-12.34-6.14-18.17-9.75-3.69-2.29-6.87-2.32-10.56-.52-5.92,2.88-11.96,5.51-17.85,8.45-1.05.53-2.06,1.95-2.3,3.12-.38,1.88-.1,3.9-.1,5.85Z" style="fill: #000; stroke-width: 0px;"/>
  <path d="M257.83,677.49c-5.36.16-8.07-1.62-9.1-6.82-2.54-12.9-7.66-24.83-13.23-36.61-.13-.28-.22-.62-.43-.83-3.67-3.7-3.16-8.03-2.01-12.53,2.43-9.45,5.77-18.55,10.21-27.24,4.81-9.42,9.56-18.88,14.33-28.32.42-.84.81-1.7,1.3-2.5,2.58-4.2,7.07-5.59,11.1-2.77,5.78,4.04,12.23,6.27,18.82,8.35,1.26.4,2.53.88,3.68,1.52,3.17,1.76,4.11,4.53,3.07,7.98-3.43,11.41-9.04,21.67-16.23,31.1-1.48,1.94-1.85,3.76-1.11,6.1,2.1,6.65,5.73,12.5,9.22,18.46,3.64,6.21,6.98,12.59,10.19,19.03,1.02,2.05,1.44,4.49,1.74,6.8.64,4.84-1.59,7.88-6.25,9.37-3.64,1.17-7.29,2.4-10.79,3.94-7.52,3.32-15.15,4-24.54,4.97Z" style="fill: #000; stroke-width: 0px;"/>
  <path d="M428.89,677.48c-9.09-.89-18.5-1.85-27.16-6.33-2.26-1.17-4.86-1.73-7.34-2.45-5.23-1.51-7.65-4.61-6.55-9.95.89-4.32,2.43-8.61,4.36-12.58,2.43-4.99,5.49-9.67,8.4-14.41,3.37-5.5,6.47-11.1,8.35-17.31.6-2,.29-3.6-.96-5.25-7.22-9.49-12.95-19.77-16.43-31.25-1.15-3.81-.09-6.81,3.65-8.52,2.27-1.04,4.69-1.75,7.08-2.51,4.87-1.55,9.52-3.5,13.78-6.45,5.3-3.66,10.02-2.23,12.93,3.57,5.21,10.36,10.52,20.67,15.64,31.08,4.48,9.1,7.96,18.57,9.97,28.55.64,3.19-.29,5.74-1.79,8.63-3.6,6.94-6.82,14.11-9.6,21.41-2.06,5.39-3.26,11.12-4.73,16.72-1.39,5.3-3.8,7.22-9.57,7.05Z" style="fill: #000; stroke-width: 0px;"/>
  <path d="M398.34,481.05c.27-1.63.56-3.21.78-4.79.97-6.74,4.92-8.92,10.96-5.85,3.35,1.7,6.62,3.58,9.76,5.64,4.77,3.15,5.79,6.61,3.8,11.94-1.36,3.66-2.83,7.29-4.15,10.97-.27.76-.2,1.7-.11,2.54.94,8.51.26,16.85-2.3,25.06-1.45,4.63-2.48,9.39-3.79,14.07-1.81,6.41-5.94,9.75-12.75,10.13-9.31.51-18.56,1.16-27.69-1.64-4.85-1.49-9.02-3.92-12.58-7.44-.59-.58-1.1-1.37-1.35-2.16-1.74-5.52-3.65-11.01-4.96-16.64-.62-2.65-.17-5.59.08-8.37.12-1.38-.1-2.25-1.31-2.9-1.24-.66-2.48-1.34-3.67-2.11-2.58-1.67-3.75-4.19-2.52-6.61,1.87-3.67,1.9-7.55,2.09-11.45.26-5.54,3.08-7.8,8.53-6.43,2.26.57,4.45,1.49,6.57,2.47,1.34.62,2.11.41,2.98-.72,2.65-3.45,2.69-3.42-.41-6.45-1.18-1.15-2.42-2.24-3.54-3.43-2.44-2.6-2.66-5.36-.72-8.34,1.49-2.3,3-4.59,4.52-6.86,1.53-2.28,3.6-3.54,6.44-3.72,7.2-.46,13.76,1.89,20.24,4.5,2.83,1.14,3.94,3.61,3.41,6.78-.37,2.23-.98,4.44-1.59,6.62-.97,3.41-.75,3.86,3.29,5.2ZM407.03,524.22c.23-.53.47-.85.51-1.19.69-5.82,1.45-11.63,1.92-17.47.08-.95-.97-2.21-1.81-2.98-6.69-6.1-14.28-10.91-22.02-15.54-4.52-2.7-4.46-2.9-7.2,1.64-4.01,6.62-8.32,13.01-11.94,19.91-4.99,9.48-2.42,17.85,1.51,26.44.35.77,1.51,1.16,2.3,1.73.44-.67,1.06-1.28,1.3-2.02,1.73-5.35,4.31-10.25,7.74-14.69,3.12-4.04,7.19-6.06,12.33-5.11,5.76,1.07,10.97,3.25,14.41,8.39.2.29.52.49.96.9Z" style="fill: #000; stroke-width: 0px;"/>
  <path d="M288.74,481.14c4.12-1.51,4.25-1.81,3.26-5.34-.61-2.19-1.22-4.39-1.59-6.63-.52-3.14.63-5.63,3.47-6.75,6.2-2.44,12.44-4.73,19.32-4.52,3.6.11,6.08,1.6,7.87,4.63,1.19,2.02,2.58,3.92,3.88,5.88,2.05,3.1,1.87,5.83-.7,8.53-1.56,1.65-3.22,3.21-4.89,4.75-1.11,1.03-1.34,2.03-.27,3.23.52.58.97,1.23,1.39,1.9.72,1.15,1.52,1.23,2.77.69,2.36-1.02,4.77-2.07,7.26-2.63,4.9-1.11,7.64,1.19,7.91,6.23.22,4.05.19,8.11,2.13,11.92,1.17,2.31.17,5.16-2.53,6.32-4.19,1.79-5.03,4.26-4.73,8.79.3,4.51-1.48,9.18-2.45,13.76-.31,1.45-1.01,2.81-1.39,4.24-1.52,5.75-5.64,9.11-10.77,11.26-6.41,2.69-13.08,4.27-20.15,3.74-4.6-.34-9.22-.33-13.81-.66-4.74-.34-8.02-2.87-9.89-7.22-.5-1.15-.99-2.32-1.29-3.53-1.91-7.75-4.12-15.46-5.5-23.31-.81-4.63-.21-9.51-.39-14.27-.06-1.58-.4-3.2-.89-4.71-1.25-3.88-2.78-7.67-3.96-11.56-.98-3.21-.2-6.37,2.55-8.23,4.45-3.01,9.09-5.85,13.95-8.14,3.71-1.75,7.27.49,8.23,4.53.54,2.26.8,4.58,1.22,7.1ZM279.97,524.21c.49-.39.79-.53.94-.77,2.88-4.55,7.37-6.67,12.29-8.05,6.18-1.73,10.86-.15,14.73,4.94,3.4,4.46,5.99,9.36,7.62,14.75.18.61.7,1.54,1.09,1.56.67.02,1.45-.45,2-.92.44-.38.68-1.04.9-1.62,1.15-3.08,2.55-6.11,3.32-9.29.59-2.44.93-5.18.43-7.59-1.48-7.13-4.79-13.54-8.77-19.61-2.53-3.86-5.04-7.75-7.44-11.7-.83-1.36-1.44-1.74-2.9-.76-8.35,5.66-17.38,10.37-24.7,17.45-.95.92-1.94,2.47-1.86,3.65.36,5.3,1.08,10.58,1.71,15.86.08.64.38,1.26.65,2.09Z" style="fill: #000; stroke-width: 0px;"/>
  <path d="M365.94,560.58c-.19,1.79-.2,3.63-.61,5.36-1.86,7.9,1.17,14.59,5.08,21.05,2.03,3.35,4.31,6.54,6.29,9.91.59.99.85,2.39.73,3.55-.4,3.66-.85,7.33-1.65,10.91-1.16,5.17-2.3,10.39-4.08,15.37-1.78,5-3.23,5.42-8.48,4.53-3.16-.54-6.38-.8-9.53-1.42-1.29-.25-2.72-.84-3.65-1.73-4.1-3.92-8.88-3.94-12.9,0-.83.81-2.04,1.49-3.17,1.7-3.85.71-7.77,1.05-11.61,1.79-2.72.52-4.85-.21-5.82-2.67-1.82-4.64-3.62-9.34-4.79-14.17-1.13-4.7-1.53-9.58-2.09-14.4-.12-1.08.17-2.39.73-3.33,2.04-3.43,4.37-6.68,6.42-10.1,3.84-6.41,6.79-13.03,5.03-20.85-.51-2.27-.73-4.68-.64-7,.11-2.62,1.62-4.65,3.7-6.27,3.2-2.5,6.35-5.07,9.52-7.61.06-.05.12-.1.18-.15,3.66-3.03,15.12-2.49,18.64.69,2.6,2.35,5.4,4.52,8.23,6.59,2.85,2.09,4.61,4.63,4.47,8.29ZM329.45,604.62c9.43-6.85,18.72-6.88,28.16.03.89-2.46,1.84-4.93,2.64-7.44.15-.46-.21-1.18-.52-1.67-1.54-2.45-3.27-4.79-4.7-7.3-4.26-7.45-6.24-15.51-6.01-24.09.09-3.32-1.35-5.32-4.64-6.16-2.62-.67-6.46,2.52-6.37,5.19.08,2.11.11,4.23-.06,6.33-.79,9.76-4.78,18.23-10.56,25.99-.42.56-.58,1.62-.38,2.3.67,2.24,1.56,4.42,2.44,6.83ZM343.58,612.22c1.26.09,2.43.29,3.59.2.85-.07,2.42-.62,2.4-.78-.16-1.21-.29-2.94-1.09-3.45-3.2-2.01-6.73-2.02-9.93.01-.8.5-.89,2.26-1.05,3.47-.02.18,1.42.73,2.2.77,1.31.07,2.64-.14,3.87-.23Z" style="fill: #000; stroke-width: 0px;"/>
</svg>