<?xml version="1.0" encoding="UTF-8"?>
<svg id="Layer_1" data-name="Layer 1" xmlns="http://www.w3.org/2000/svg" viewBox="0 0 555.13 900">
  <path d="M415,831.47c-4.11-.48-8.2-1.18-12.32-1.38-6.85-.33-13.75-.81-20.58-.36-10.08.66-15.09,8.04-18.53,16.32-4.54,10.95-8.23,22.23-14.27,32.54-5.79,9.89-13.84,16.81-24.79,20.32-6.22,1.99-12.24,1.21-17.8-1.91-8.6-4.84-18.28-6.37-27.47-9.41-.97-.32-2.22-.34-3.19-.04-7.82,2.44-15.63,4.94-23.4,7.54-1.87.63-3.6,1.69-5.4,2.55-6.11,2.9-12.24,2.89-18.58.55-10.49-3.87-17.87-11.02-23.31-20.62-5.27-9.29-9.19-19.13-12.72-29.14-1.69-4.8-4.44-8.91-7.57-12.77-3.66-4.51-8.86-6.13-14.41-6.13-7.43-.01-14.83.05-22.3,1.08-12.96,1.8-25.47-.79-37.72-5.57-12.82-5.01-21.26-14.17-27.02-26.12-3.6-7.48-8.31-14.13-13.64-20.39-5.18-6.09-8.01-13.07-8.78-21-.46-4.71.07-9.19,1.63-13.69,1.29-3.73,2.38-7.65,2.71-11.57,1.15-13.44.46-26.64-2.97-39.94-4.31-16.7-10.83-32.57-16.27-48.83-3.61-10.79-6.8-21.67-8.84-32.89-1.97-10.84-4.33-21.62-6.43-32.44-.44-2.27-.48-4.62-.73-6.93-1.61-14.89,1.44-28.69,9.54-41.36,2.3-3.6,1.91-4.53-1.97-6.36-1.42-.67-2.93-1.17-4.44-1.6-7.73-2.2-13.63-6.78-17.57-13.73-5.5-9.73-10.07-19.79-10.9-31.21-.88-12.07-2.09-24.12-3.01-36.19-.78-10.08,1.12-19.77,5.89-28.64,3.64-6.78,3.88-14.08,4.93-21.37,2.77-19.31-.63-37.99-6.3-56.18-5.79-18.57-7.47-37.32-5.96-56.53.3-3.8.71-7.6,1.13-11.39.9-8.16,3.81-15.53,8.42-22.35,8.54-12.65,13.83-26.55,15.72-41.76.72-5.75,1.97-11.44,2.98-17.15.06-.33.09-.68.25-.96,3.16-5.47,2.63-11.32,1.76-17.2-.14-.98-.31-2-.22-2.97.95-10.27-.6-20.56-.13-30.78.92-20.05,9.35-37.19,22.79-51.75,15.3-16.56,30.97-32.78,46.58-49.05,11.53-12.01,25.19-20.7,41.12-25.72,8.45-2.66,16.81-3.2,24.83,1.3,2.15,1.2,4.07,2.83,5.99,4.4,1.08.88,1.98,2.01,2.9,3.07,3.64,4.21,7.02,8.91,13.02,9.78,7.74,1.13,15.34.84,22.52-3.01,8.34-4.46,16.91-8.47,25.21-12.99C251.24.91,268.2-.61,285.82.19c12.53.57,23.91,4.22,34.87,9.85,7.82,4.02,15.75,7.83,23.44,12.08,7.38,4.08,15.19,4.77,23.16,3.34,2.97-.54,5.85-2.6,8.35-4.51,2.2-1.68,3.82-4.12,5.7-6.22,7.4-8.24,16.6-11.3,27.4-9.1,9.11,1.85,17.55,5.53,25.49,10.31,8.28,4.99,15.76,10.98,22.38,18.08,8.88,9.52,17.87,18.94,26.84,28.38,6.05,6.37,12.35,12.5,18.19,19.06,16.6,18.67,25.84,39.98,22.57,65.54-.11.82-.31,1.66-.23,2.47.82,8.95.54,17.88-.3,26.81-.1,1.03.14,2.19.55,3.16,3.47,8.22,4.3,17,5.52,25.7,1.84,13.12,6.18,25.44,13.57,36.3,6.79,9.98,10.14,20.65,11.04,32.51,1.36,17.89,1.35,35.62-3.43,53.11-2.75,10.07-5.15,20.24-7.65,30.38-2.65,10.74-1.75,21.6-.88,32.44.26,3.22.32,6.49.91,9.66.58,3.14,1.25,6.42,2.68,9.22,5.62,11,8.34,22.53,7.13,34.86-1.39,14.1-2.43,28.27-4.52,42.27-1.39,9.34-6.18,17.67-11.46,25.46-3.54,5.22-8.71,8.52-14.79,10.41-2.35.73-4.64,1.74-6.85,2.85-1.66.83-2.17,2.23-.96,3.91.05.07.08.15.13.21,10.39,15.43,12.34,32.5,9.32,50.35-1.8,10.62-4.45,21.09-6.33,31.7-3.36,18.91-9.96,36.81-16.8,54.62-4.67,12.14-8.16,24.65-10.48,37.32-2.6,14.15-2.47,28.47,2.28,42.51,3.48,10.29,1.74,20.57-4.65,29.12-7.47,9.99-14.29,20.28-20.28,31.21-4.87,8.9-12.41,14.9-21.78,18.82-9.92,4.15-20.08,6.85-30.94,7.09ZM396.53,818.44c18.19.85,31.2-1.36,45.49-7.64,5.51-2.42,10.72-5.43,13.7-11.02,2.57-4.83,5.07-9.71,7.41-14.65,1.26-2.65,2.95-4.74,5.53-6.17,3.22-1.77,5.58-4.36,7.08-7.76,1.64-3.72,3.28-7.44,5.11-11.07,2.61-5.15,2.12-10.05-1.29-14.5-3.5-4.57-4.61-9.69-4.24-15.22,1-14.94,2.87-29.74,7.71-43.99,4-11.78,8.29-23.46,12.25-35.25,4.27-12.68,7.96-25.56,9.16-38.92,1.63-18.16,2.64-36.37,4.16-54.54.62-7.36-1.12-13.65-5.88-19.37-7.08-8.5-4.91-17.99,4.86-23.15,5.5-2.9,10.9-5.98,16.31-9.04.99-.56,1.95-1.31,2.7-2.17,4.51-5.18,8.44-10.87,10.2-17.5,4.32-16.25,7.12-32.74,5.68-49.7-.66-7.81-2.8-14.69-9.35-19.78-4.63-3.6-6.91-8.76-6.76-14.63.18-7.36-.02-14.87,1.33-22.05,3.24-17.19,6.69-34.39,11.18-51.28,4.53-17.01,4.48-34.17,3.64-51.39-.55-11.27-5.93-21.08-11.51-30.7-2.6-4.48-4.73-9.32-6.42-14.22-2.87-8.3-5.22-16.78-7.82-25.18-1.63-5.29-4.77-9.12-10.15-11.11-6.04-2.24-8.13-6.24-7.26-12.69.7-5.18,2.81-9.71,6.1-13.68,2.03-2.45,3.09-5.16,3.56-8.3.8-5.32,2.03-10.58,2.92-15.9.92-5.47,2.39-10.99,2.31-16.46-.23-16.31-6.67-30.31-17.79-42.05-14.2-14.98-29.05-29.37-42.87-44.7-11.95-13.26-26.39-21.6-43.34-26.33-10.86-3.03-20.12-1.58-27.41,7.77-2.88,3.7-6.54,6.68-11.04,8.25-10.41,3.62-20.87,4.69-31.24-.21-8.47-4-16.96-7.99-25.38-12.1-23.26-11.38-46.83-12.55-70.65-2.02-9.1,4.02-17.96,8.59-26.97,12.8-5.35,2.51-10.85,4.69-16.9,4.6-11.93-.17-22.53-3.22-30.29-13.24-4.85-6.27-11.82-8.59-19.36-7.05-14.93,3.04-29.18,8.02-40.55,18.79-6.26,5.93-12.21,12.18-18.21,18.38-11.64,12.04-23.37,24-34.74,36.3-3.61,3.9-6.59,8.53-9.18,13.2-7.43,13.39-9.56,27.54-5.54,42.55,1.54,5.75,2.49,11.68,3.39,17.58.49,3.16,1.57,5.85,3.59,8.29,3.12,3.78,5.13,8.09,5.92,12.97,1.13,6.99-.99,10.96-7.58,13.39-3.1,1.15-5.67,2.96-7.21,5.79-1.41,2.58-2.44,5.41-3.35,8.22-4.59,14.17-8.1,28.66-16.27,41.53-6.6,10.4-9.71,22.1-9.16,34.62.23,5.3-.06,10.63.28,15.92.39,5.94.74,11.96,1.96,17.76,3.68,17.53,7.74,34.98,11.74,52.44,1.99,8.7,2.82,17.48,2.9,26.4.07,7.93-2.45,14.45-8.74,19.4-3.41,2.68-5.44,6.24-6.29,10.44-.58,2.84-1.07,5.71-1.32,8.59-1.44,16.44,1.45,32.43,5.53,48.22,1.77,6.83,5.76,12.65,10.33,17.99.79.92,1.84,1.7,2.9,2.31,5.26,2.98,10.52,5.99,15.88,8.79,10.09,5.27,12.29,14.73,5.04,23.44-4.84,5.81-6.6,12.25-5.75,19.66.47,4.11.49,8.28.82,12.41,1.24,15.53,2.03,31.11,3.93,46.56,2.22,18.04,8.2,35.24,14.69,52.1,7.21,18.75,12.19,37.85,13.58,57.9.48,6.87.08,13.31-4.43,19.1-3.2,4.11-3.38,8.85-1.03,13.63,1.72,3.5,3.36,7.04,4.89,10.62,1.63,3.82,4.3,6.53,7.75,8.8,1.91,1.26,3.64,3.16,4.78,5.16,2.71,4.75,5.01,9.73,7.5,14.6,1.74,3.4,4.17,6.19,7.47,8.15,14.08,8.39,29.48,12,45.69,11.47,10.63-.35,21,.03,31.21,3.31,4.48,1.44,8.11,3.68,10.61,7.67,3.96,6.33,7.82,12.72,11.9,18.96,2.35,3.59,4.74,7.26,7.69,10.34,5.43,5.69,11.53,10.75,16.91,16.48,5.01,5.34,10.26,6.11,16.98,3.59,8.26-3.1,17.05-3.16,25.8-2.58,2.31.15,4.66.37,6.95.15,10.29-.99,20.4-.28,30.18,3.18,4.64,1.64,8.45.98,11.99-2.57,4.91-4.93,9.98-9.71,15.16-14.36,4.81-4.31,8.73-9.24,12.01-14.8,3.83-6.5,7.96-12.82,12.02-19.18,1.94-3.04,4.67-5.13,8.13-6.23,9.31-2.98,18.75-5.05,26.75-4.19Z" style="fill: #000; stroke-width: 0px;"/>
  <path d="M75.46,200.16c-.04-.86.14-1.88-.17-2.73-1.39-3.89-2.68-7.84-4.45-11.56-3.28-6.88-7.41-13.4-10.21-20.45-6.26-15.79-5.41-31.5,1.36-47.16,5.52-12.78,12.72-24.32,21.76-34.88,6.11-7.13,13.17-12.74,21.61-16.81,6.49-3.13,11.84-7.52,16.22-13.5,10.92-14.89,26.69-18.52,45.02-10.61,4.98,2.15,9.61,5.22,14.14,8.25,4.04,2.71,8.24,3.86,13.09,3.77,17.39-.34,33.77-4.86,49.5-11.9,6.31-2.83,11.94-6.75,15.76-12.87,2.11-3.38,5.35-5.69,9.37-5.89,6.01-.31,12.05-.31,18.06-.02,4.11.2,7.41,2.51,9.58,5.99,3.67,5.89,9.08,9.73,15.13,12.49,16.07,7.33,32.86,11.92,50.68,12.21,4.51.07,8.38-1.14,12.18-3.52,5.32-3.34,10.82-6.41,16.4-9.27,2.31-1.18,5.03-1.67,7.62-2.22,14.32-3.02,26.3,1.06,34.88,12.91,4.71,6.51,10.51,11.31,17.59,14.54,10.16,4.63,17.47,12.34,24.44,20.69,8.73,10.46,15.09,22.27,19.87,34.87,6.41,16.88,4.95,33.57-3.14,49.65-2.94,5.85-6.31,11.49-9.2,17.36-1.3,2.64-1.92,5.62-2.75,8.48-.21.72-.03,1.54-.03,2.34.53.05.8.15,1.01.08,7-2.4,12.6.16,17.68,4.87,4.24,3.94,7.89,8.29,10.22,13.64,5.73,13.15,12.14,26.03,15.98,39.93,5.37,19.43,5.79,39.16,4.76,59.22-.82,15.94-4.43,30.94-9.73,45.77-2.01,5.62-3.87,11.3-5.74,16.97-4.57,13.9-6.56,28.24-7.19,42.81-.17,3.86.66,7.39,2.75,10.65.76,1.19,1.5,1.66,3.04,1.23,8.1-2.24,12.32-.55,15.88,7.11,1.93,4.15,3.47,8.71,4.03,13.22,1.58,12.67-1.75,24.36-8.64,35.02-4.66,7.21-11.43,11.09-19.96,12.02-7.34.81-14.65,1.81-21.99,2.58-2.99.31-5.32,1.47-6.53,4.22-1.66,3.76-3.61,7.51-4.49,11.47-.59,2.64.22,5.71.9,8.46.27,1.09,1.74,2.08,2.88,2.73,3.15,1.8,6.51,3.25,9.62,5.12,3.41,2.04,5.44,5.24,6.65,9.01.84,2.6,1.82,5.16,2.82,7.7,6.16,15.55,7.46,31.51,4.06,47.87-2.41,11.61-4.27,23.4-9.35,34.25-3.83,8.18-8.03,16.2-12.22,24.2-8.64,16.5-15.24,33.69-17.85,52.25-1.6,11.41-3.28,22.82-4.81,34.24-.15,1.1.22,2.52.85,3.45,6.05,8.79,6.12,17.89,1.21,27.03-2.62,4.88-5.84,9.45-8.97,14.03-2.65,3.87-6.62,6.1-11.07,7.12-11.07,2.55-22.26,3.32-33.58,1.67-7.21-1.05-14.45-2.19-21.72-2.55-10.31-.51-18.29,4.1-24.39,12.4-5.19,7.06-8.21,15.13-11.46,23.11-1.74,4.29-3.27,8.67-4.66,13.08-1.67,5.31-4.19,10.11-7.94,14.22-6.87,7.53-15.77,8.98-25.3,8.1-7.6-.7-14.68-2.9-21.3-6.98-4.97-3.07-10.63-2.96-15.61.21-6.8,4.33-14.25,6.26-22.1,6.88-16.54,1.31-27.87-7.28-32.47-23.5-3.49-12.29-8.29-24.14-15.53-34.81-5.97-8.8-14.34-13.37-24.93-12.7-8.59.54-17.1,2.11-25.67,3.04-9.23,1-18.4.07-27.47-1.67-6.67-1.28-11.84-4.89-15.25-10.96-1.86-3.32-4.26-6.35-6.12-9.67-5.3-9.47-5.68-18.87.72-28.12.63-.92.97-2.35.81-3.46-1.85-13.47-3.47-26.99-5.86-40.37-2.89-16.21-8.97-31.38-16.71-45.88-2.5-4.68-4.91-9.42-7.44-14.08-6.15-11.34-10.11-23.42-12.45-36.07-1.58-8.55-3.95-16.95-3.58-25.8.49-11.63,2.08-22.96,7.18-33.58.29-.6.58-1.22.7-1.86,1.79-9.23,8.55-13.61,16.5-16.65,1.98-.76,3.42-1.73,3.89-3.74.44-1.83,1.03-3.79.79-5.59-.4-3-1.2-6-2.22-8.86-2.05-5.74-5.56-9.34-12.38-9.45-6.27-.1-12.51-1.43-18.78-2.11-8.64-.94-15.48-4.92-20.06-12.28-7.76-12.46-11.17-25.89-7.36-40.42,1.01-3.85,2.92-7.6,5.09-10.96,3.07-4.73,6.66-5.69,12.1-4.21,3.84,1.04,3.8,1.02,5.66-2.51,1.82-3.46,1.85-7.15,1.68-10.92-.76-17.48-4.47-34.32-10.35-50.77-3.21-8.98-6.2-18.05-8.85-27.21-1.37-4.74-2.18-9.74-2.52-14.67-.77-11.08-1.58-22.2-1.49-33.29.18-20.76,4.98-40.59,13.69-59.46,2.4-5.2,4.65-10.46,6.92-15.71,2.79-6.44,6.93-11.83,12.29-16.36,4.7-3.96,9.82-5.77,15.89-3.8.23.08.49.11.73.12.15,0,.31-.09.77-.25ZM161.45,102.67c-8.41-1.77-17.93,2.41-27.44,6.38-11.03,4.61-20.34,11.68-27.2,21.44-6.74,9.59-8.75,20.13-3.89,31.33,1.65,3.8,3.26,7.63,5.04,11.37,3.91,8.25,6.47,16.86,7.28,25.98.6,6.72-.79,13.03-4.85,18.36-6.07,7.97-12.57,15.61-18.88,23.4-1.46,1.8-3.24,3.45-4.23,5.48-3.65,7.45-7.19,15.02-8.48,23.3-2.84,18.27-6.1,36.51-7.96,54.89-1.22,12.06-.93,24.38-.19,36.51.79,13.12,4.94,25.55,11.37,37.08,6.45,11.57,10.18,23.94,11.21,37.11.65,8.35,1.01,16.72,1.68,25.07.17,2.19.46,4.69,1.63,6.41,4.58,6.8,6.84,14.25,8.7,22.21,2.23,9.53,4.46,19.02,6.26,28.65,1.82,9.75-.15,18.45-5.9,26.37-2.93,4.03-4.84,8.47-6.14,13.24-1.07,3.92-2.26,7.81-3.3,11.74-1.05,3.94-2.81,7.5-5.72,10.33-4.95,4.81-6.15,11.2-5.99,17.37.18,7.23,1.95,14.43,3.25,21.6.84,4.64,2.19,9.19,3.11,13.82,2.7,13.62,6.98,26.48,15.05,38.1,6.36,9.17,12.24,18.81,15.81,29.53,3.62,10.85,7.47,21.66,10.33,32.72,2.87,11.1,9.34,18.21,19.99,21.84.47.16.94.34,1.39.54,4.3,1.93,8.6,3.89,12.91,5.81.75.33,1.55.67,2.35.74,6.36.56,12.74.85,19.07,1.64,3.39.43,7.18.92,9.93,2.7,8.88,5.78,17.67,11.77,24.33,20.31,2.12,2.72,4.86,4.95,7.28,7.44,3,3.08,6.29,5.95,8.85,9.36,3.22,4.29,7.44,7.02,12.04,9.36,2.81,1.43,5.61,1.25,8.22-.64,4.75-3.45,9.66-3.45,14.33-.12,3.45,2.46,6.37,2.61,9.87.07,4.73-3.43,9.72-3.42,14.54.13,2.36,1.74,4.96,2,7.53.77,4.66-2.22,8.92-4.9,12.22-9.12,2.78-3.57,6.16-6.67,9.34-9.92,1.5-1.54,3.44-2.72,4.69-4.43,6.17-8.45,14.39-14.6,22.67-20.73,4.65-3.45,9.66-5.17,15.44-5.38,5.96-.22,11.89-.92,17.83-1.46.72-.07,1.43-.4,2.1-.7,4.31-1.93,8.61-3.85,12.89-5.84,3.45-1.61,6.92-3.2,10.27-5,3.53-1.9,6.24-4.8,7.72-8.51,1.72-4.3,3.31-8.69,4.46-13.17,5.64-22.06,14.21-42.77,27.25-61.55,3.79-5.46,6.87-11.31,8.67-17.81,4.61-16.64,8.19-33.5,10.54-50.59.8-5.81-.41-11.95-4.15-16.47-4.2-5.09-7.13-10.44-8.67-16.79-2.01-8.32-4.67-16.34-9.81-23.48-4.46-6.2-6.13-13.42-4.67-21.07,1.72-9.03,3.57-18.05,5.44-27.05.56-2.67,1.72-5.24,2.03-7.93.64-5.6,2.72-10.47,5.8-15.16,1.68-2.55,2.97-5.64,3.43-8.64.81-5.31,1.05-10.73,1.19-16.12.45-17.63,4.44-34.18,13.02-49.8,7.55-13.73,11-28.74,10.7-44.52-.06-3.4.32-6.82.1-10.2-.65-10.08-1.21-20.17-2.34-30.2-1.06-9.39-3.09-18.67-4.19-28.05-1.41-11.98-4.2-23.51-9.62-34.32-.96-1.91-2.04-3.82-3.39-5.47-6.39-7.82-12.95-15.51-19.34-23.33-5.07-6.21-7.13-13.39-6.24-21.38.78-7.05,2.4-13.9,5.21-20.43,2.33-5.41,4.83-10.74,7.13-16.16,4.85-11.42,2.59-22.03-4.35-31.73-6.04-8.43-14.04-14.88-23.39-19.27-10.28-4.83-20.74-9.36-32.68-7.8-7.84,1.03-15.5-.38-23.09-2.51-19.24-5.39-38.65-7.37-58.43-2.73-6.35,1.49-12.94,1.95-19.42,2.83-4.03.55-7.91-.07-11.7-1.57-.96-.38-2.21-.19-3.3-.03-3.49.52-7.02,1.84-10.44,1.59-7.17-.53-14.3-1.8-21.42-2.91-2.94-.46-5.79-1.73-8.72-1.92-16.39-1.06-32.67-.41-48.5,4.56-7.53,2.36-15.18,3.49-25.42,2.52ZM466.8,652.45c.13.05.26.1.38.16.27-.37.61-.71.81-1.12,6.79-13.79,13.28-27.74,15.78-43.06,2.12-13,1.7-26.13.66-39.22-.14-1.72-.66-3.41-1.02-5.12-.27-1.33-.88-2.03-2.43-1.68-4.36.99-7.55-.91-9.51-4.62-3.78-7.16-7.35-14.44-10.93-21.71-.73-1.48-1.16-3.11-1.63-4.7-6.03-20.24,8.35-41.74,28.8-42.49,4.3-.16,8.58-.82,12.88-1.25,3.71-.38,6.69-2.02,9.31-4.72,5.53-5.73,7.33-12.82,8.01-20.41.17-1.87-.72-2.39-2.44-2.58-10.83-1.24-17.37-7.48-20.33-17.74-1.87-6.48-1.8-13.11-1.35-19.76,1.89-27.82,8.9-54.44,18.9-80.36,1.43-3.7,2.87-7.5,3.47-11.39,3.02-19.31,2.77-38.67-2.38-57.53-4.1-15.02-9.57-29.67-14.59-44.43-.92-2.71-2.41-5.29-3.96-7.72-2.53-3.96-2.86-3.92-6.42-1.02-8.73,7.08-19.77,3.98-22.73-6.5-.59-2.1-.85-4.48-.55-6.63,1.57-11.05,3.93-21.84,9.77-31.63,2.88-4.83,5.39-9.92,7.65-15.07,4.45-10.16,5.05-20.82,1.19-31.1-8.23-21.89-20.65-40.46-42.28-51.71-9.47-4.93-19.14-9.96-25.8-18.99-1.3-1.77-3.57-2.99-5.62-4.01-1.56-.77-3.52-1.29-5.22-1.11-8.04.85-15.61,3.09-21.93,8.48-5.01,4.28-10.75,7.11-17.12,8.77-10.84,2.83-21.56,1.83-31.78-2.11-18.71-7.2-37.34-14.68-54.66-24.95-1.55-.92-2.77-1.03-4.31-.01-2.76,1.82-5.53,3.73-8.51,5.11-9.7,4.5-19.51,8.78-29.27,13.14-9.48,4.23-18.97,8.43-29.4,9.8-12.8,1.67-24.72-.52-34.93-8.78-5.45-4.41-11.54-6.94-18.18-8.8-6.68-1.87-11.87.19-16.44,4.82-1.22,1.24-2.22,2.69-3.42,3.95-1.37,1.43-2.67,3.05-4.32,4.07-8.1,5.02-16.36,9.79-24.45,14.83-3.22,2.01-6.31,4.29-9.15,6.81-10.76,9.54-17.97,21.54-23.89,34.51-6.06,13.29-6.4,26.46-.2,39.66,2.85,6.07,6.29,11.87,9.31,17.87,4.43,8.81,6.31,18.36,7.08,28.06.51,6.4-2.5,11.5-8.42,14.31-5.77,2.74-10.81.71-15.35-3.14-.25-.21-.53-.42-.73-.67-1.4-1.72-2.78-1.4-3.76.28-2.05,3.49-4.22,6.94-5.8,10.64-2.15,5.03-3.83,10.26-5.65,15.42-6.78,19.23-12.63,38.63-12.67,59.33-.03,14.19,1.16,27.97,6.51,41.46,7,17.66,12.5,35.87,15.09,54.82,1.54,11.27,3.39,22.51,2.49,33.93-1.08,13.73-8.44,24.22-22.36,25.21-1.6.11-1.98,1.16-1.69,2.43,1.1,4.74,1.67,9.73,3.6,14.12,3.01,6.83,8.28,11.22,16.34,11.46,4.38.13,8.77.68,13.12,1.29,12.42,1.74,23.01,11.37,26.12,23.55,2.98,11.68-.22,22.13-6.31,32.02-.65,1.05-1.23,2.16-1.77,3.27-1.6,3.26-3,6.63-4.79,9.78-2.01,3.55-5.09,5.43-9.34,4.51-1.47-.32-2.22.17-2.48,1.59-.38,2.04-.99,4.05-1.14,6.11-.91,12.43-1.3,24.9.6,37.25,2.41,15.69,8.97,29.96,15.94,44.04.15.31.46.54,1.02,1.18-.09-.82-.1-1.14-.16-1.44-3.33-16.84-6.65-33.68-10.01-50.51-1.43-7.15-.15-13.79,4.2-19.58,3.23-4.32,5-8.95,5.87-14.27,1.47-8.99,3.08-18.03,8.34-25.85,1.52-2.27,2.74-4.74,4.22-7.04,2.38-3.7,3-7.67,2.14-11.92-.38-1.87-.49-3.86-1.24-5.57-3.97-9.11-8-18.19-12.21-27.19-2.14-4.57-5.68-7.11-11.06-7.57-6.06-.52-11.57-2.66-15.3-8.1-2.92-4.26-3.4-8.97-.41-13.19,1.4-1.98,3.25-3.89,5.31-5.1,4.55-2.67,7.16-6.57,8.44-11.5.93-3.61,1.91-7.24,2.46-10.92,1.75-11.69.17-22.76-5.38-33.46-3.88-7.47-6.83-15.47-9.73-23.4-3.85-10.54-5.81-21.41-4.67-32.74.36-3.61.31-7.34-.16-10.93-1.37-10.29.06-20.32,2.08-30.37,1.61-8.05,3.07-16.14,4.22-24.26,1.65-11.73,3.76-23.24,9.93-33.65,2.19-3.7,4.82-6.85,7.99-9.74,3.91-3.55,7.56-7.41,11.15-11.29,2.53-2.73,4.69-5.81,7.17-8.59,3.61-4.05,5.31-8.74,5.21-14.11-.14-7.84-1.8-15.29-5.64-22.2-1.97-3.55-4-7.09-5.71-10.76-7.58-16.22-5.54-31.46,5.76-45.1,4.45-5.37,9.94-10.01,15.44-14.37,14.31-11.34,29.84-19.78,48.93-19.13,6.4.22,12.41-1.56,18.33-4,4.72-1.95,9.66-3.67,14.66-4.61,14.82-2.79,29.77-3.83,44.81-1.9,5.27.68,9.53-.86,13.19-4.78,2.01-2.14,4.42-4.08,6.99-5.48,4.28-2.34,8.76-3.02,13.1.29.52.39,1.93.17,2.58-.28,3.07-2.1,6.26-2.33,9.73-1.31,4.14,1.22,7.37,3.74,10.18,6.86,3.43,3.82,7.62,5.35,12.72,4.72,14.36-1.76,28.66-1.18,42.85,1.47,4.62.86,9.4,1.74,13.64,3.66,8.75,3.96,17.75,5.7,27.28,5.62,5.58-.05,11.07.86,16.3,3.01,15.51,6.36,28.96,15.76,40.49,27.85,12.62,13.23,15.42,30.61,7.78,47.2-1.84,3.98-4.07,7.79-6.17,11.65-3.77,6.95-5.32,14.43-5.31,22.28,0,4.82,1.54,9.1,4.7,12.8,2.43,2.84,4.65,5.85,7.18,8.59,3.76,4.06,7.74,7.92,11.56,11.92,2.39,2.51,5.12,4.85,6.87,7.77,4.76,7.93,8.24,16.37,9.66,25.68,2,13.11,4.55,26.14,6.75,39.23,1.28,7.61,2.13,15.22,1.28,23.02-.58,5.33-.09,10.76-.3,16.14-.22,5.53-.15,11.17-1.2,16.56-2.49,12.68-7.09,24.7-12.94,36.22-2.63,5.18-4.62,10.39-5.67,16.27-1.91,10.73,0,20.78,3.15,30.83,1.15,3.67,3.41,6.53,6.78,8.6,1.95,1.2,3.8,2.73,5.29,4.45,3.91,4.53,3.77,10,.29,14.82-3.79,5.25-9.25,7.27-15.21,7.83-4.91.47-8.24,2.63-10.48,6.81-1.13,2.12-2.23,4.25-3.28,6.41-1.88,3.88-3.87,7.72-5.53,11.69-1.71,4.12-3.26,8.32-4.54,12.59-1.71,5.68-1.17,11.15,2.41,16.12,6.76,9.38,10.27,20.03,11.74,31.36.7,5.45,2.58,10.14,5.91,14.51,4.11,5.4,5.55,11.7,4.28,18.37-2.99,15.8-6.16,31.58-9.27,47.36-.36,1.85-.77,3.69-1.16,5.53ZM98.1,671.58c-.21.1-.42.2-.63.31.14.45.26.91.43,1.34,11.71,29.29,17.99,59.8,20.42,91.17.59,7.64,5.56,13.83,12.79,16.47,6.38,2.32,12.82,2.25,19.39,1.71,8.34-.69,16.68-1.37,25.03-1.85,2.96-.17,6.04-.18,8.91.45,12.87,2.85,22.17,10.58,28.24,22.07,4.18,7.92,9.39,15.06,15.25,21.72,3.97,4.51,7.04,9.39,8.87,15.1.81,2.52,1.44,5.18,2.73,7.45.95,1.67,2.62,3.25,4.35,4.1,5.33,2.62,10.86,1.16,15.09-1.9,6.31-4.57,12.67-6.8,20.52-6.37,5.04.28,9.54,1.04,13.37,4.29,3.36,2.85,7.3,4.17,11.51,4.94,5.64,1.03,9.99-1.34,12.07-6.67.75-1.93,1.09-4.04,2-5.88,2.16-4.35,3.94-9.1,6.98-12.77,6.94-8.4,12.99-17.3,18.73-26.57,7.72-12.47,18.78-20.56,34.37-20,7.2.26,14.38.89,21.56,1.47,8.01.64,15.95,1.68,23.86-1.22,7.09-2.6,12.05-8.34,12.84-15.89.52-5.03,1.24-10.03,1.66-15.07,2.2-26.01,9.16-50.87,18.2-75.22.42-1.12.86-2.24,1.29-3.36-1.35,1.02-2.29,2.25-3.09,3.57-8.02,13.3-13.84,27.53-18.14,42.43-2.25,7.81-4.4,15.65-6.98,23.35-2.79,8.3-8.41,13.92-16.67,17.32-8.11,3.34-15.84,7.6-23.83,11.26-2.81,1.28-5.84,2.45-8.86,2.79-4.17.47-8.45,0-12.67.15-2.04.07-4.3.15-6.04,1.05-6.58,3.39-12.85,7.32-17.69,13.07-4.2,4.99-8.25,10.12-12.37,15.19-.16.19-.27.42-.42.62-2.33,2.99-4.41,6.21-7.05,8.9-4.6,4.68-8.95,9.44-12.47,15.09-6.36,10.21-23.12,12.36-32.27,4.5-1.21-1.04-2.44-1.22-3.5-.02-2.49,2.82-5.83,3.8-9.32,4.19-9.18,1.01-17.87.07-23.17-8.76-3.34-5.57-7.76-10.05-12.1-14.75-5.37-5.8-10.84-11.67-15.17-18.24-5.3-8.04-12.14-14-20.34-18.56-2.36-1.31-5.27-1.97-7.99-2.2-3.95-.34-7.97.2-11.93-.08-2.76-.19-5.68-.67-8.16-1.82-8.28-3.81-16.17-8.55-24.62-11.87-9.94-3.9-15.79-10.87-18.79-20.71-1.43-4.68-2.77-9.39-4.06-14.11-4.33-15.9-9.86-31.33-18.14-45.66-1.27-2.2-2.68-4.33-4.02-6.49Z" style="fill: #000; stroke-width: 0px;"/>
  <path d="M285.05,791.7c-2.05,3.53-2.14,3.53-6.37,2.22-.72-.22-1.65-.18-2.37.06-3.88,1.27-4.28,1.16-6.33-2.4-.21.02-.48-.01-.68.09-14.21,6.86-27.33,3.99-39.39-4.99-6.16-4.59-9.18-11.24-9.05-19.08.06-3.48.96-6.71,3.23-9.48,2-2.44.41-6.78-2.8-7.39-1.78-.34-3.64-.25-5.45-.45-7.16-.79-14.37-1.32-21.47-2.49-14.68-2.42-34.85-20.35-39.73-36.95-2.92-9.94-8.67-18.91-17.6-25.27-14.73-10.49-26.45-23.83-36-39.11-5.67-9.07-8.37-19.09-8.84-29.73-.89-20.05,2.24-39.36,10.81-57.63,2.73-5.83,6.5-10.97,10.88-15.68,1.75-1.88,3.25-3.97,4.97-5.88,6.65-7.38,7.08-15.98,4.79-25-1.08-4.25-2.66-8.38-4.01-12.56-2.79-8.61-4.41-17.44-3.62-26.47,1.28-14.6,2.62-29.21,4.56-43.74,2.14-16.03-2.71-30.2-10.59-43.58-1.85-3.14-5.17-5.55-8.17-7.83-3.42-2.6-7.35-4.52-10.87-7-7.31-5.13-11.68-12.15-12.54-21.11-.5-5.22,1.15-9.64,5.65-12.76.54-.37,1.07-1.16,1.11-1.78.78-11.7,6.52-21.27,13.11-30.44,3.41-4.74,5.11-10.01,5.5-15.75.19-2.73.18-5.47.34-8.2.55-9.35,1.03-18.71,1.75-28.06.42-5.47,2.29-10.67,5.32-15.13,3.66-5.4,8.55-9.67,15.69-9.39,2.2.09,4.54.99,6.46,2.12,1.77,1.03,2.53.82,3.53-.79,5.27-8.51,7.33-17.77,6.08-27.64-.6-4.75-1.94-9.41-2.92-14.11-.35-1.65-1.33-2.51-2.98-2.92-1.84-.46-3.64-1.14-5.41-1.84-10.81-4.28-15.5-13.12-12.93-24.53,2.72-12.05,9.84-21.18,19.21-28.83,9.84-8.04,21.36-11.01,33.76-11.48,15.3-.58,30.24,1.69,45.09,5.16,10.48,2.44,21.1,4.31,31.67,6.41.89.18,1.82.1,2.73.23,2.46.35,3.71-.13,4.28-3.11,1.45-7.64,10.04-12.73,18.29-11.13,2.58.5,4.95.57,7.55.04,9.09-1.86,16.76,3.4,18.73,12.66.35,1.65,1.37,1.72,2.55,1.58,5.92-.74,11.89-1.21,17.73-2.38,11.95-2.39,23.76-5.52,35.74-7.7,12.37-2.25,24.94-2.91,37.4-.7,20.43,3.62,34.02,15.79,41.74,34.78.95,2.35,1.43,4.95,1.74,7.49,1.17,9.34-3.02,16.83-11.59,20.74-2.4,1.1-5.02,1.72-7.45,2.77-.96.41-2.15,1.25-2.42,2.14-2.58,8.29-4.34,16.71-3.19,25.47.8,6.1,2.87,11.73,6.11,16.96.93,1.5,1.7,1.88,3.32.76,4.63-3.19,9.87-2.87,14.69.05,9.25,5.59,12.15,14.6,13.12,24.42.91,9.15,1.37,18.37,1.48,27.57.11,9.41,2.13,17.89,7.98,25.58,5.99,7.87,10.2,16.7,10.95,26.84.06.78.64,1.75,1.28,2.21,4.51,3.26,6.15,7.76,5.54,13.06-1.03,8.91-5.44,15.91-12.82,20.96-3.42,2.34-6.99,4.46-10.51,6.65-5.32,3.31-9.18,7.91-11.55,13.65-2.12,5.13-4.06,10.34-5.78,15.62-2.21,6.81-2.62,13.83-1.57,20.92,1.81,12.23,3.48,24.47,3.46,36.88,0,3.03,1.06,6.05,1.22,9.09.49,9.49-1.35,18.62-4.29,27.62-1.8,5.49-3.37,11.11-4.35,16.79-1.09,6.28.37,12.21,4.63,17.23,2.09,2.46,3.96,5.12,6.18,7.46,7.29,7.69,12.08,16.78,15.38,26.74,4.66,14.08,6.62,28.54,6.44,43.36-.18,15.16-5.05,28.59-14.11,40.65-9.48,12.61-20.22,23.84-33.13,33.1-3.95,2.83-6.85,7.39-9.57,11.59-3.18,4.91-5.69,10.2-7.56,15.87-3.26,9.89-10.58,16.83-18.38,23.33-9.29,7.74-20.22,10.74-31.96,11.59-4.3.31-8.61.46-12.91.77-3.07.22-5.12,2-5.71,4.9-.11.55.12,1.34.48,1.78,6.02,7.42,4.97,15.21.63,22.72-1.85,3.2-4.67,6.12-7.67,8.31-8.51,6.21-18.32,7.98-28.6,6.62-3.27-.43-6.39-2.05-9.61-3.13ZM175.41,130.85c-2.98,0-5.98-.15-8.95.03-11.64.68-19.86,6.48-25.2,16.78-4.01,7.74-3.34,15.05,1.63,22.01,4.55,6.37,7.73,13.35,9.65,20.89,5.2,20.49,1.22,38.68-14.11,53.76-5.45,5.36-11.69,9.61-19.53,10.71-4.83.68-4.88.58-5.68,5.58-.33,2.04-.56,4.12-.63,6.18-.18,5.39-.3,10.78-.34,16.17-.08,10.43-2.69,19.87-9.35,28.23-4.21,5.29-7.28,11.25-9.05,18.06-2.08,8-2.43,15.88-1.36,23.9.28,2.07,1.44,4.24,2.75,5.93,4.33,5.61,9.78,10.07,15.3,14.47,2.75,2.19,5.47,4.78,7.23,7.76,6.69,11.32,11.64,23.45,12.29,36.69.36,7.3-.82,14.71-1.73,22.02-1.74,13.96-2.34,27.93-1.62,41.97.07,1.29-.12,2.64,1.69,3.15,6.79,1.9,10.81,6.85,13.59,12.94,4.55,9.94,2.62,19.54-1.64,29.07-3.24,7.25-8.93,12.25-14.77,17.2-7.03,5.95-12.38,13.13-15.66,21.79-5.42,14.36-8.04,29.23-7.94,44.58.06,10.31,2.16,20.1,7.46,29.06,8.1,13.72,17.92,26.1,29.08,37.44.95.96,1.64,1.26,2.94.37,3.86-2.64,7.81-2.31,11.41.73,2.72,2.29,4.26,5.3,5,8.69,1.32,5.99,2.57,12,3.69,18.04,1.47,7.95,5.49,14.27,11.59,19.47,9.96,8.51,21.31,13.2,34.51,13.41,4.46.07,8.95.5,13.37,1.15,6.23.92,10.31,4.56,12.21,10.64.71,2.29,1.78,4.47,2.42,6.77,1.12,4.03,1.94,8.15,3.06,12.19.83,2.99,1.7,6.01,2.98,8.81.8,1.75,2.61,3.02,3.6,4.72,1.14,1.93,2.74,2.42,4.76,2.52,5,.25,9.74-.5,14.14-3.06,3.96-2.31,8.02-3.05,12.28-.64.55.31,1.57.36,2.1.05,4.55-2.64,8.76-1.51,12.95.89,4.58,2.62,9.57,3.19,14.69,2.58,1.08-.13,2.26-.93,3.05-1.75,4.56-4.75,7.8-10.1,7.25-17.06-.04-.48.13-.99.29-1.46,1.68-4.84,3.47-9.65,5.05-14.52,2-6.14,6.09-9.83,12.45-10.71,4.51-.62,9.07-.93,13.62-1.16,8.83-.44,17.2-2.23,24.92-6.83,11.98-7.13,20.35-16.54,21.64-31.14.38-4.26,1.66-8.46,2.66-12.65.84-3.53,2.35-6.74,5.26-9.09,3.44-2.77,7.5-3.24,10.79-.85,1.65,1.2,2.48.79,3.71-.45,9.84-9.94,18.39-20.9,26.11-32.56,7.11-10.73,10.59-22.49,10.08-35.3-.28-7.11-.91-14.25-2-21.28-2.98-19.24-10.53-35.91-26.71-48.05-8.34-6.26-12.13-15.63-13.62-25.79-1.2-8.21,1.07-15.62,6.2-22.13,2.3-2.92,5.1-5.33,8.74-6.3,2.14-.57,2.61-1.72,2.72-3.7.86-15.55.02-31.02-2.33-46.4-1.5-9.76-2.25-19.51.85-29.08,2.04-6.3,4.35-12.54,6.87-18.67,2.67-6.5,7.23-11.46,12.81-15.84,5.17-4.06,9.59-9.09,14.18-13.85.96-.99,1.52-2.62,1.72-4.03,1.9-13.36.32-26.11-6.95-37.79-1.53-2.46-3.13-4.91-4.91-7.19-4.55-5.82-6.94-12.45-7.36-19.75-.38-6.54-.32-13.1-.7-19.64-.24-4.12-.83-8.24-1.51-12.32-.13-.81-1.43-2.03-2.17-2.02-4.67.08-8.89-1.35-12.72-3.75-18.44-11.52-27-28.27-25.49-49.91.82-11.63,4.79-22.31,11.54-31.91,3.65-5.18,5.37-10.87,3.5-17.16-3.72-12.46-13.75-20.58-26.67-21.56-12.76-.97-25.36.42-37.81,3.12-9.64,2.09-19.22,4.52-28.87,6.59-9.44,2.02-18.77,1.56-27.95-1.72-5.07-1.82-10.24-3.36-15.4-4.94-.89-.27-2-.31-2.88-.04-5.24,1.59-10.47,3.2-15.64,4.98-6.6,2.27-13.36,3.65-20.29,2.67-7.05-1-14.08-2.28-21-3.94-14.45-3.49-28.89-6.93-43.88-6.76Z" style="fill: #000; stroke-width: 0px;"/>
  <path d="M405.89,604.98c-.48,4.2-.71,8.44-1.48,12.59-1.72,9.35-6.09,17.29-13.38,23.52-2.25,1.92-2.25,2.19-.1,4.15,2.78,2.54,4.54,5.71,5.42,9.33,2.84,11.64.32,22.3-7.37,31.22-10.94,12.7-24,22.44-41.13,25.21-4.25.69-8.56,1.17-12.85,1.28-4.98.14-8.68,2.04-11.5,6.17-3.9,5.71-8.24,11.1-14.39,14.56-2.72,1.53-5.65,2.85-8.65,3.67-7.44,2.03-14.34.77-20.16-4.56-1.87-1.71-3.21-1.91-5.24-.06-7.13,6.48-15.33,6.79-23.93,3.48-7.29-2.81-13.06-7.75-17.17-14.22-4.04-6.37-9.15-9.31-16.79-9.28-9.11.04-17.99-2.19-26.16-6.31-10.11-5.11-18.79-12.26-25.74-21.17-6.95-8.92-9.23-19.15-6.34-30.29.96-3.7,2.76-6.96,5.78-9.37,1.41-1.12,1.51-2.06.16-3.17-14-11.58-16.4-27.37-14.99-44,.5-5.92,3.42-11.72,5.73-17.37,2.28-5.6,5.06-11,7.83-16.38,6.06-11.76,14.72-21.23,25.94-28.23,6.14-3.83,10.4-9.1,13.6-15.46,3.23-6.44,6.19-13.08,10.1-19.09,5.43-8.34,13.08-14.47,22.07-18.84,9.69-4.7,19.39-4.7,28.94.26,3.74,1.94,7.3,4.26,10.85,6.55,1.93,1.25,3.58,1.22,5.5,0,3.63-2.32,7.25-4.68,11.07-6.65,10.54-5.46,20.96-4.56,31.15,1.1,12.52,6.96,21.25,17.24,26.78,30.38,1.22,2.9,2.7,5.69,4.13,8.5,2.87,5.6,7.06,9.91,12.41,13.26,10.09,6.31,18.44,14.54,24.04,25.03,4.95,9.27,9.06,19,13.36,28.6,2.21,4.92,2.95,10.18,2.53,15.6ZM163.65,605.62c.94,4.44,1.84,8.89,2.86,13.31.42,1.8,1.64,2.6,3.56,2.13,2.54-.63,4.71.31,6.79,1.66,4.38,2.85,8.66,5.87,13.19,8.45,3.43,1.95,7.07,3.68,10.81,4.87,4.12,1.3,8.17.25,11.31-2.77,1.43-1.38,1.97-3.62,3.28-5.18,2.53-3.02,2.38-5.88,1.23-9.6-2.5-8.07-6.32-15.3-11.55-21.84-2.45-3.05-3.71-6.51-3.62-10.35.34-14.37,4.27-27.65,15.02-37.56,16.61-15.32,36.37-23.31,59.28-22.59,1.41.04,2.82-.05,4.23-.04,3.64.05,7.33-.26,10.9.25,14.26,2.04,27.39,7.2,39.33,15.24,15.09,10.16,22.28,24.75,23.43,42.61.3,4.71-.83,8.95-3.83,12.78-4.5,5.77-8.26,11.93-10.54,19.03-1.5,4.68-3.1,8.93.98,13,.11.11.14.3.21.45,2.44,5.19,6.98,7.86,12.69,6.77,3.11-.59,6.25-1.79,9.01-3.35,5.33-3.02,10.44-6.45,15.57-9.81,2.37-1.56,4.74-2.69,7.67-1.98,1.65.4,2.7-.38,3.23-1.95,2.45-7.3,3.77-14.88,1.32-22.25-6.67-20.01-16.55-37.84-35.64-48.91-7.42-4.3-12.57-10.67-16.13-18.42-1.73-3.77-3.47-7.54-5.44-11.19-4.16-7.74-10.23-13.66-18-17.7-10.2-5.31-17.42-3.51-24.67,5.4-3.77,4.64-8.97,7.08-14.96,5.92-4.5-.87-8.35-3.2-11.22-7.22-4.71-6.59-11.48-8.63-19.13-5.87-3.23,1.16-6.35,2.88-9.21,4.81-7.89,5.33-13.03,12.91-16.52,21.63-4.32,10.8-11.27,19.14-21.49,24.9-3.49,1.97-6.62,4.72-9.56,7.49-9.75,9.2-15.69,20.85-20.72,33.05-1.95,4.72-3.39,9.54-3.66,14.83ZM328.62,593.21c.36-1.28.61-2.2.88-3.11,1.93-6.5,4.59-12.46,11.08-15.82.56-.29.99-1.77.77-2.45-1.02-3.05-2.07-6.15-3.55-9-5.34-10.28-14.5-15.86-24.95-19.71-13.02-4.8-26.49-6.51-40.33-5.92-13.87.59-27.1,3.63-39.41,10.1-9.83,5.17-16.15,13.3-19.15,23.97-.25.89,0,2.64.58,2.94,6.62,3.5,9.34,9.59,11.22,16.3.23.81.52,1.61.85,2.62,13.44-16.34,29.04-27.34,50.93-27.37,21.96-.02,37.61,11.06,51.09,27.44ZM294.73,719.98c.08-.18.16-.37.23-.55.91-.07,1.82-.17,2.73-.22,4.51-.24,7.56-2.05,9.52-6.56,1.71-3.94,4.34-7.68,7.28-10.84,5.82-6.25,13.71-7.86,21.89-8.71,10.6-1.1,20.31-5.26,29.96-9.49,1.27-.56,2.63-1.3,3.5-2.33,1.51-1.8,2.77-3.83,3.95-5.88.63-1.09.23-2.24-1.18-2.42-3.58-.45-7.18-1.05-10.78-1.09-5.29-.06-10.59.47-15.88.43-2.18-.02-4.58-.43-6.49-1.42-6.27-3.26-7.2-2.06-11.88,2.77-.57.59-1.1,1.25-1.52,1.96-5.57,9.34-14.46,13.85-24.43,16.69-7.78,2.22-15.25,1.24-22.39-2.61-.87-.47-2.3-.34-3.33-.03-3.71,1.12-7.32,3.35-11.03,3.5-13.99.56-25.76-4.38-34.49-15.71-1.66-2.16-3.38-4.3-5.29-6.24-2.6-2.65-3.94-2.6-7.36-1.27-2.74,1.07-5.65,2.19-8.53,2.32-5.19.24-10.42-.33-15.63-.38-2.87-.03-5.8.01-8.6.55-4.41.85-4.81,2.07-2.24,5.91.81,1.21,1.88,2.38,3.08,3.18,2.2,1.47,4.45,3.01,6.91,3.88,9.89,3.53,19.62,7.54,30.35,8.27,8.48.58,15.63,4.42,20.71,11.38,2.13,2.92,3.51,6.37,5.39,9.49.74,1.23,1.67,2.78,2.87,3.22,5.17,1.9,10.51,2.94,15.45-.58,6.8-4.85,13.41-4.78,20.27-.04,2.01,1.39,4.63,1.9,6.97,2.81ZM285.14,619.97c0-6.14-.19-12.28.05-18.41.31-7.99-2.29-15.37-4.49-22.82-.23-.78-1.78-1.44-2.83-1.64-1.33-.26-2.97-.36-3.48,1.5-1.95,7.18-4.64,14.21-4.5,21.84.19,9.62.44,19.24.43,28.86-.03,17.11,3.55,33.79,5.9,50.61.08.58.9,1.05,1.38,1.58.45-.56,1.13-1.06,1.3-1.69.32-1.19.3-2.47.51-3.69,3.2-18.57,5.96-37.19,5.73-56.12Z" style="fill: #000; stroke-width: 0px;"/>
  <path d="M245.77,229.05c-.12,5.71-1.57,10.63-5.25,14.72-2.07,2.3-4.62,3.85-7.73,4.1-1.75.14-2.2.89-2.23,2.51-.19,10.89,1.87,21.22,6.94,30.98,4.01,7.72,7.97,15.51,11.23,23.56,3.84,9.49,3.48,19.05-2.33,27.86-1.48,2.24-3.38,4.37-5.53,5.97-6.25,4.65-13.79,2.77-17.5-4.09-1.61-2.97-2.03-3.21-4.7-1.09-2.72,2.15-5.2,4.63-7.7,7.04-5.06,4.89-9.78,10.18-15.17,14.68-7,5.83-15.27,8.96-24.53,8.91-11.78-.06-20.76-5.54-27.8-14.59-1.14-1.47-2.17-2.07-4.15-1.74-6.59,1.08-11.64-1.88-15.58-6.85-4.67-5.9-6.01-12.67-4.24-19.96.62-2.56,1.39-5.21,2.74-7.44,8.11-13.43,17.54-25.6,32.32-32.4,8.06-3.71,16.13-7.4,24.14-11.23,5.23-2.5,10.52-4.95,15.48-7.93,6.82-4.11,7.8-7.22,5.39-14.79-1.94-6.12-3.3-12.3-.68-18.48,3.96-9.35,10.83-16.07,20.05-20.12,8.39-3.69,24.15,1.65,26.49,17,.19,1.23.24,2.47.33,3.41ZM140.75,317.12c.22,8.27,4.05,15.29,8.05,22.18,2.47,4.26,5.81,7.93,10.07,10.51,9.56,5.78,18.99,4.25,27.54-1.82,5-3.54,9.3-8.22,13.38-12.86,6.88-7.82,14.4-14.64,24.06-18.88,5.02-2.2,6.49-4.44,5.82-9.92-.58-4.76-1.35-9.59-2.89-14.1-2.5-7.29-4.22-14.66-4.68-22.32-.77-12.9-.78-25.73,4.28-37.98.19-.46.31-.95.41-1.43.55-2.64-.57-4.75-2.37-6.46-1.77-1.68-4.05-1.75-6.02-.56-2.67,1.62-5.16,3.55-7.64,5.45-3.43,2.64-4.18,6.23-3.27,10.26.75,3.32,1.76,6.58,2.4,9.91,1.25,6.49-.42,12.23-5.23,16.81-2.08,1.98-4.38,3.94-6.92,5.21-12.91,6.44-25.93,12.65-38.9,18.96-1.1.54-2.38,1.01-3.15,1.89-3.83,4.35-7.58,8.78-11.25,13.27-2.8,3.43-3.81,7.49-3.68,11.89Z" style="fill: #000; stroke-width: 0px;"/>
  <path d="M303.97,318.3c.1-8.11,2.31-14.44,5.26-20.52,3.08-6.34,6.42-12.55,9.57-18.86,4.52-9.05,5.94-18.74,5.76-28.75-.02-1.37-.37-2.14-1.92-2.26-3.5-.27-6.34-1.98-8.45-4.7-5.55-7.16-6.23-15.07-2.75-23.23,3.36-7.86,9.91-11.53,18.16-12.35,3.85-.38,7.39.85,10.61,2.91,5.16,3.3,9.54,7.44,13.07,12.45,4.16,5.9,5.37,12.4,3.64,19.41-.58,2.33-1.26,4.64-1.98,6.94-1.42,4.52-.32,8.32,3.58,10.93,3.7,2.48,7.56,4.82,11.57,6.76,8.28,4.02,16.6,8,25.1,11.5,12.24,5.05,22.22,12.84,29.87,23.54,3.36,4.69,6.79,9.49,9.11,14.72,3.86,8.67,2.93,17.26-3.27,24.76-4.05,4.9-9.24,7.39-15.85,6.3-.91-.15-2.34.64-2.99,1.44-4.35,5.38-9.31,9.95-15.83,12.5-10.98,4.28-21.49,2.73-31.57-2.9-6.31-3.52-11.35-8.57-16.26-13.78-3.24-3.44-6.61-6.75-9.95-10.09-.58-.58-1.24-1.11-1.93-1.56-2.83-1.88-3.18-1.79-4.76,1.17-3.65,6.84-11.27,8.8-17.51,4.13-7.16-5.36-9.87-13.04-10.28-20.48ZM414.58,317.18c0-4.6-1.16-8.71-4.01-12.19-3.62-4.42-7.36-8.75-11.11-13.06-.57-.66-1.43-1.13-2.24-1.5-6.62-3.07-13.34-5.94-19.87-9.17-7.65-3.79-15.41-7.45-22.64-11.95-8.99-5.6-11.42-13.17-8.76-23.41.73-2.8,1.66-5.62,1.86-8.48.14-2.01-.19-4.61-1.39-6.03-2.37-2.79-5.36-5.14-8.37-7.3-2.14-1.54-4.75-2.1-7.18-.21-2.23,1.74-3.27,4.87-2.15,7.83,3.66,9.62,4.91,19.53,4.65,29.78-.26,10.26-1.33,20.28-4.77,30.08-1.68,4.8-2.49,9.98-3.11,15.06-.65,5.34.87,7.42,5.85,9.65,7.99,3.59,14.93,8.57,20.7,15.18,2.56,2.94,5.11,5.89,7.72,8.78,4.15,4.61,8.79,8.59,14.63,10.92,7.51,3,15.06,3.33,21.89-1.43,11.29-7.86,16.01-19.59,18.28-32.56Z" style="fill: #000; stroke-width: 0px;"/>
  <path d="M234.55,415.86c1.86,0,3.42.11,4.97-.02,8.8-.72,14.9,7.51,11.5,15.67-1.34,3.23.49,5.4,2.2,7.63,1.54,2.01,3.57,1.41,5.45.68,4.1-1.59,8.25-3.08,12.19-5,4.54-2.21,8.78-2.25,13.34-.05,4.09,1.98,8.42,3.49,12.66,5.15,1.86.73,3.78,1.05,5.2-.85,1.63-2.19,3.46-4.33,2.19-7.43-1.84-4.49-.62-10.13,2.89-13.39,2.43-2.26,5.41-2.67,8.59-2.41,1.53.12,3.08.02,4.97.02-.34-1.1-.55-1.95-.86-2.77-6.48-17.17-5.02-34.18,1.14-51.05.6-1.65,1.73-3.23,2.96-4.5,1.42-1.47,3.36-1.78,5.29-.83,1.84.91,2.61,2.55,2.52,4.5-.06,1.31-.33,2.64-.69,3.9-2.88,10.06-3.67,20.4-3.75,30.78-.05,6.22,2.87,11.52,6.43,16.4,2.44,3.35,3.75,6.98,3.79,11.09.09,10.26-6.09,16.8-16.33,16.41-4-.15-5.72.75-7.32,4.57-3.54,8.46-12.75,11.93-21.7,8.84-2.26-.78-4.41-1.9-6.55-3-5.43-2.8-10.78-2.78-16.2.06-2.12,1.12-4.29,2.22-6.55,2.98-9.78,3.3-19.27-1.29-22.59-11.01-.75-2.19-1.76-2.55-3.93-2.51-3.09.06-6.31-.25-9.28-1.09-4.45-1.26-7.3-4.52-8.56-8.96-1.76-6.24-1.09-12.07,2.91-17.46,4.53-6.09,7.03-12.82,6.44-20.64-.7-9.28-1.33-18.53-4.03-27.51-.24-.79-.41-1.62-.46-2.44-.14-2.16.56-3.96,2.61-4.94,2.04-.98,3.97-.46,5.48,1.05.97.97,1.9,2.18,2.33,3.46,1.54,4.54,3.39,9.07,4.16,13.77,2.17,13.23,2.65,26.44-3,39.12-.19.43-.23.94-.42,1.76Z" style="fill: #000; stroke-width: 0px;"/>
  <path d="M183.31,301.02c.71-.88,1.31-1.77,2.06-2.5,4.14-4.07,8.88-6.72,14.93-5.67,8.78,1.53,12.46,9.5,7.68,17-1.41,2.22-3.81,3.79-5.69,5.72-.98,1-2.2,2-2.66,3.24-3.72,9.99-14.66,14.92-24.37,10.83-3.87-1.63-6.57-4.33-7.87-8.42-.3-.94-.95-2-1.76-2.5-6.48-4.05-7.48-13.1-1.94-18.37,4.91-4.68,12.45-5.01,17.72-.79.51.41,1.02.79,1.9,1.47ZM182.95,313.89c-2.41-.03-3.57.88-3.54,2.79.04,1.97,1.98,4.37,3.63,3.98,1.86-.44,3.99-1.18,5.17-2.51.82-.93-3.19-4.22-5.27-4.25Z" style="fill: #000; stroke-width: 0px;"/>
  <path d="M372.09,300.96c4.52-4.41,9.51-5.49,15.08-3.31,7.42,2.9,10.08,11.13,5.85,17.89-.17.28-.33.64-.59.79-3.5,1.96-4.66,5.64-6.71,8.74-4.26,6.42-14.77,7.93-21.99,3.56-3.89-2.35-6.59-5.68-8.25-9.94-.46-1.17-1.48-2.36-2.56-3-3.78-2.23-6.26-5.4-7.45-9.55-1.63-5.69,1.48-10.98,7.57-12.85,6.34-1.95,11.51.46,16.12,4.62.97.87,1.82,1.89,2.93,3.06ZM375.75,316.2c-.1-.23-.25-1.24-.63-1.34-1.52-.38-3.41-1.11-4.6-.53-1.53.74-2.52,2.61-3.74,3.99,1.14.66,2.28,1.33,3.43,1.99.14.08.32.1.48.14,2.61.68,5.06-1.17,5.07-4.25Z" style="fill: #000; stroke-width: 0px;"/>
</svg>