<?xml version="1.0" encoding="UTF-8"?>
<svg id="Layer_1" data-name="Layer 1" xmlns="http://www.w3.org/2000/svg" viewBox="0 0 677.46 900">
  <path d="M90.47,740.25c0-13.8-.24-27.61.11-41.4.15-5.84,2.03-11.64,2.24-17.49.38-10.43.09-20.89.06-31.34,0-.61-.21-1.23-.16-1.84,1.37-18.03-2.82-35.16-8.78-51.92-3.91-10.98-8.55-21.71-12.57-32.65-2.68-7.3-7.69-13.93-6.83-22.33.05-.45-.09-1.01-.33-1.39-10.04-15.82-16.18-33.26-20.63-51.29-3.02-12.25-5.22-24.7-7.76-37.07-.15-.72-.08-1.48-.1-2.22-.53-16.5-1.16-33-1.55-49.51-.33-14.24-2.6-28.22-5.13-42.18-2.09-11.54-3.6-23.19-6.08-34.64-2.25-10.37-5.16-20.63-8.38-30.75-1.85-5.82-5.36-11.1-7.29-16.9-4.13-12.42-6.38-25.23-6.53-38.38-.05-4.3-.54-8.59-.69-12.89-.52-14.99,2.14-29.63,4.82-44.29,2.9-15.83,5.6-31.69,8.47-47.52,2.18-12.06,4.09-24.2,6.89-36.12,1.33-5.69,4.73-10.82,11.43-11.76,2.63-.37,5.5-.27,8.06.4,6.73,1.77,13.16-.29,19.73-.84,6.98-.58,14.02-.37,21.03-.68,1.33-.06,3.19-.6,3.84-1.56,4.48-6.61,9.12-13.16,12.92-20.16,6.73-12.38,12.85-25.09,19.33-37.62,1.52-2.95,3.25-5.82,5.17-8.52,2.65-3.74,6.27-3.5,9.16.01,9.61,11.67,15.97,25.3,23.52,38.23,3.31,5.66,8.07,10.52,12.51,15.44,3.03,3.34,6.53,6.3,10.08,9.1,1.18.93,3.21,1.29,4.78,1.15,5.63-.51,11.25-1.25,16.83-2.16,1.09-.18,2.41-1.29,2.91-2.32,6.33-12.88,12.45-25.87,18.8-38.75,5.53-11.22,11.28-22.34,16.97-33.48,1.17-2.3,3.13-2.59,5.62-2.43,6.06.37,8.83,4.94,11.78,9,7.22,9.96,14.14,20.13,21.14,30.25,5.57,8.04,12.34,14.95,19.87,21.14,1.81,1.49,3.65,1.71,6.11,1.32,12.61-2,25.23-4.43,37.94-5.12,8.08-.44,16.32,1.79,24.46,3,4.25.63,8.41,2.01,12.66,2.32,1.86.13,4.13-1.25,5.75-2.53,10.29-8.07,17.8-18.48,24.99-29.27,6.27-9.4,13.23-18.35,20.12-27.31,3.53-4.6,10.28-3.59,13.13,1.28,8.41,14.35,14.71,29.68,21.42,44.83,3.98,8.97,8.95,17.5,13.63,26.14.52.96,1.97,1.8,3.1,1.98,5.34.86,10.74,1.37,16.08,2.21,3.46.54,6.17-.96,8.26-3.19,5.88-6.26,11.71-12.61,17.11-19.28,2.97-3.67,5.02-8.09,7.55-12.14,6.05-9.67,12.02-19.39,18.25-28.94,2.99-4.58,7.59-4.2,10.08.67,6.29,12.32,12.14,24.88,18.78,37,5.17,9.44,11.26,18.38,17,27.5,1.24,1.98,2.81,2.51,5.48,2.39,9.08-.39,18.12-.56,27.2,1.57,4.83,1.13,10.24-.08,15.38-.41,9.26-.6,14.29,2.48,16.99,11.62,1.98,6.69,3.37,13.6,4.55,20.49,2.41,14.16,4.38,28.4,6.76,42.57,2.14,12.74,4.71,25.42,6.85,38.16,2.03,12.06,2.76,24.2,1.35,36.43-.71,6.11-.92,12.27-1.56,18.38-1.39,13.11-5.41,25.44-11.11,37.29-1.2,2.49-1.68,5.34-2.41,8.04-3.49,12.87-7.35,25.66-10.29,38.66-2.09,9.27-2.96,18.82-4.32,28.26-1.21,8.35-2.46,16.7-3.47,25.07-.56,4.62-.78,9.3-.94,13.95-.56,16.24-.89,32.49-1.6,48.73-.21,4.86-1.18,9.72-2.18,14.5-1.65,7.92-3.08,15.94-5.55,23.62-3.98,12.36-8.54,24.54-13.24,36.65-1.75,4.51-4.61,8.58-6.87,12.9-.43.82-.39,1.88-.6,2.81-.89,3.92-1.07,8.2-2.8,11.7-10.63,21.48-17.76,44.17-23.79,67.24-1.1,4.22-1.14,8.77-1.28,13.17-.36,11.95-.86,23.91-.61,35.86.18,8.44,1.53,16.86,2.31,25.3.25,2.69.48,5.38.55,8.07.29,12.2,1.02,24.42.62,36.6-.35,10.76-1.77,21.5-3.14,32.19-1.01,7.89-2.52,15.73-4.16,23.52-2.58,12.32-4.75,24.8-8.38,36.82-4.84,16.03-12.03,31.15-22.35,44.51-3.07,3.97-6.82,7.45-10.53,10.86-1.35,1.23-3.46,1.71-5.3,2.32-4.59,1.53-9.19,3.07-13.85,4.36-5.19,1.44-10.42,2.79-15.69,3.85-12.86,2.57-25.09-.76-37.34-4.11-6.72-1.84-13.59-3.18-20.4-4.69-2.98-.66-5.99-1.27-9.01-1.71-3.6-.53-7.22-1.1-10.85-1.23-17.61-.6-35.12-2.32-52.14-6.92-6.18-1.67-11.84-5.31-17.67-8.17-2.41-1.18-5.02-2.31-6.91-4.13-3.64-3.5-8.01-3.1-12.39-3.33-4.49-.24-7.71,2.15-11.4,4.26-11.71,6.71-23.51,13.21-37.46,14.61-14.91,1.49-29.7,4.27-44.79,3.76-2.6-.09-5.26.91-7.87,1.54-10.59,2.55-21.12,5.36-31.76,7.66-6.81,1.47-13.76,2.87-20.68,3.13-10.12.38-19.94-1.69-29.27-6.01-3.25-1.5-7.04-1.81-10.52-2.89-2.05-.64-4.32-1.32-5.88-2.68-10.27-8.97-17.99-20.08-23.55-32.29-6.52-14.32-12.01-29.14-13.6-45.11-.51-5.16-2.73-10.13-3.73-15.27-1.84-9.47-3.57-18.97-4.93-28.52-1.26-8.85-1.99-17.77-2.95-26.66l1.38-.08ZM158.25,814.75c4.49-2.08,8.61-4.17,12.89-5.91,2.13-.86,4.3-.3,5.16,2.17.81,2.35-.3,3.92-2.47,5.06-3.53,1.84-6.95,3.88-10.53,5.9,2.36,2.33,4.88,4.68,7.23,7.17,2.04,2.16,4.24,2.85,6.88,1.3,3.58-2.11,7.36-3.98,10.62-6.51,2.15-1.67,3.96-3.36,6.35-1.21,2.37,2.13,1.37,4.77-.5,6.53-3.84,3.62-8.01,6.9-12.24,10.47,2.58,2.55,5.87,5.8,9.65,9.54,7.22-4.12,14.32-8.18,21.43-12.23.32-.18.7-.53.98-.47,1.57.31,3.75.25,4.51,1.24.74.96.65,3.63-.18,4.53-3.9,4.22-7.69,8.69-13.65,10.3-2.05.55-3.97,1.6-6.27,2.55,2.88,3.23,6.02,6.79,9.5,5.53,9.28-3.36,18.9-6.29,26.83-12.61,2.08-1.66,4.41-2.89,6.51-.44,1.96,2.29,1.03,4.95-1.03,6.55-3.37,2.61-7.02,4.91-10.74,7-3.02,1.7-6.32,2.9-9.61,4.37.48.59.59.82.77.95,6.07,4.12,12.46.86,18.53.25,4.07-.41,7.93-3.4,11.75-5.47,2.25-1.22,4.09-3.3,6.42-4.23,1.49-.59,4.29-.42,5.12.57.84.99.12,3.46-.24,5.21-.14.71-1.07,1.33-1.75,1.85-4.24,3.21-8.51,6.39-13.22,9.91,7.19,1.16,13.92,2.55,19.75-2.89,2.06-1.93,3.89-4.16,6.16-5.77,1.3-.92,3.71-1.64,4.84-1.03,1.07.59,1.39,3.01,1.53,4.67.09,1.05-.76,2.18-1.29,3.55,1.78-.22,3.22-.51,4.66-.55,13.64-.3,25.64-6.19,36.95-12.61,6.66-3.79,12.83-5.67,20.13-5.22,1.85.11,3.76-.26,5.54.09,2.73.53,5.55,1.15,8.02,2.36,7.03,3.43,13.62,7.97,20.92,10.6,7.99,2.87,16.58,4.09,25.43,6.15-.91-3.7-3.87-6.92-.1-9.1,3.67-2.11,5.4,1.49,7.39,3.73,6.07,6.84,15.73,9.14,23.41,5.35-.95-.54-1.82-.92-2.54-1.48-4.23-3.31-8.56-6.53-12.52-10.14-.83-.76-.92-3.53-.19-4.49.78-1.02,2.95-1.35,4.49-1.28,1.02.04,2,1.29,3,2,4.97,3.54,9.54,7.82,16.01,8.53,2.93.32,6.02.07,8.77.92,3.95,1.23,7.04.06,10.85-2.29-3.71-1.64-7.03-2.82-10.05-4.53-3.72-2.09-7.36-4.4-10.7-7.04-2.02-1.6-2.97-4.28-.91-6.54,2.16-2.38,4.45-1.12,6.51.58,1.13.93,2.22,2.02,3.52,2.62,6.78,3.11,13.56,6.26,20.48,9.06,4.71,1.91,8.72.07,11.82-4.83-1.02-.46-1.98-1.08-3.03-1.35-6.49-1.62-11.38-5.65-15.85-10.35-1.61-1.7-2.44-3.58-.92-5.61,1.52-2.03,3.61-1.93,5.6-.65,2.17,1.4,4.12,3.2,6.41,4.36,4.46,2.27,8.9,5.01,13.69,6.12,6.1,1.41,7.2-5.76,11.21-8.21.15-.09.14-.42.2-.65-5.22-2.33-10.24-4.91-13.25-10.11-1.18-2.03-1.95-4.25.24-6.01,2.16-1.74,3.91-.44,5.89.98,3.77,2.69,7.78,5.06,11.86,7.24,1.04.56,3.16.45,4.04-.26,3.3-2.69,6.28-5.75,9.21-8.51-3.74-2.09-7.41-3.83-10.68-6.14-1.3-.92-2.52-3.2-2.34-4.7.29-2.48,2.62-2.98,4.94-2.39,1.18.3,2.41.57,3.48,1.12,3.13,1.59,6.19,3.31,9.48,5.08,1.46-2.41,2.76-4.56,4.17-6.89-1.95-1.13-3.99-1.78-5.18-3.17-.99-1.15-1.77-3.56-1.2-4.69.56-1.12,3-1.95,4.48-1.77,2.1.25,4.07,1.55,6.33,2.49.57-1.09,1.19-2.14,1.68-3.24,7.48-16.71,10.95-34.61,15.42-52.2.96-3.77.77-7.81,1.48-11.66,1.66-9.05,3.49-18.08,5.35-27.09,2.3-11.16,4.5-22.35,7.14-33.43,1.9-8,4.44-15.84,6.69-23.75,4.82-16.9,9.03-34,14.63-50.64,5.39-16.04,11.78-31.79,18.59-47.3,3.41-7.77,3.52-15.5,1.9-23.08-2.43-11.37-5.99-22.52-9.51-33.62-3.91-12.33-3.86-24.81-1.91-37.31,2.53-16.18,6.61-31.89,13.47-46.97,7.02-15.43,12.9-31.38,19.1-47.17,4.44-11.32,8.48-22.78,12.85-34.13,3.58-9.28,7.18-18.57,11.15-27.68,3.68-8.45,8.36-16.48,11.66-25.06,2.76-7.18,4.68-14.79,6-22.39,1.24-7.11.86-14.49,1.8-21.67,1.43-11.01.48-21.9-1.27-32.71-2.03-12.61-4.86-25.09-6.98-37.68-2.45-14.53-4.37-29.15-6.79-43.69-1.02-6.15-2.38-12.29-4.2-18.25-1.43-4.66-3.84-5.39-8.59-4.35-3.1.68-6.32,1.41-9.44,1.24-5.62-.3-11.21-1.84-16.8-1.83-12.18.04-24.36,1.2-36.52,1.03-13.27-.19-26.52-1.38-39.77-2.12-13.26-.74-26.52-1.46-39.78-2.21-4.55-.26-9.11-.44-13.63-.92-12.58-1.33-25.14-2.76-37.71-4.21-11.35-1.31-22.79-2.16-34.03-4.15-15.97-2.83-31.75-6.72-47.69-9.75-7.95-1.51-16.11-3.11-24.12-2.86-9.51.3-19.12,1.87-28.39,4.1-22.17,5.31-44.52,9.42-67.17,11.91-7.93.87-15.87,1.68-23.8,2.51-8.68.9-17.34,1.94-26.04,2.63-8.7.69-17.43.9-26.14,1.53-15.69,1.15-31.36,2.94-47.07,3.54-12.79.49-25.63-.36-38.45-.62-.25,0-.49-.07-.74-.06-7.83.3-15.65.67-23.48.9-4.64.14-9.43.79-13.9-.09-9.32-1.85-9.28-.96-12.63,7.6-.22.56-.24,1.2-.34,1.81-1.5,9.46-2.92,18.93-4.53,28.37-2.75,16.11-5.5,32.22-8.46,48.29-2.7,14.66-5.57,29.3-4.78,44.31.44,8.35,1.33,16.67,2.13,24.99,1.2,12.37,4.98,23.89,10.55,35.03,5.6,11.2,10.52,22.75,15.23,34.36,2.95,7.26,4.55,15.06,7.5,22.33,10.02,24.71,20.38,49.28,30.58,73.91,5.45,13.16,8.59,26.98,10.39,41.02,1.65,12.88,1.53,25.8-2.39,38.44-3.2,10.31-6.7,20.58-8.95,31.11-1.68,7.86-2.28,16.06,2.05,23.77,2.75,4.9,5.18,10.08,7,15.4,6.62,19.29,13.12,38.62,19.27,58.07,3.48,11.01,6.31,22.24,9.25,33.42,3.47,13.18,7.24,26.31,9.98,39.64,3.32,16.13,5.32,32.53,8.63,48.66,2.49,12.14,5.93,24.1,9.4,36.01,1.8,6.19,4.57,12.09,6.95,18.26,2.49-1.13,4.34-2.06,6.26-2.81,2.28-.89,4.59-.36,5.08,2.03.31,1.49-.73,3.66-1.84,4.94-1.12,1.29-3.08,1.86-4.72,2.77,1.15,1.94,2.14,3.63,3.15,5.31.25.41.56.79.94,1.33Z" style="fill: #000; stroke-width: 0px;"/>
  <path d="M454.15,439.33c.54-5.18,1.03-10.17,1.62-15.15.14-1.2.3-2.83,1.09-3.43,1.48-1.13,3.45-2.24,5.16-2.16.84.04,2.41,2.85,2.22,4.21-1.4,9.68-3.2,19.31-4.77,28.97-.28,1.74-.39,3.65.02,5.33,3.66,14.94,7.11,29.9,7.41,45.39,0,.35.19.69.52,1.83.65-6.6,1.08-12.44,1.81-18.23,1.63-13.03,3.44-26.03,5.11-39.06,1.55-12.16,2.94-24.34,4.6-36.49.23-1.66,1.26-3.59,2.54-4.66,2.52-2.12,6-.45,6.08,2.87.07,2.68-.39,5.38-.74,8.06-1.29,9.74-2.62,19.47-3.98,29.2-2.03,14.55-4.18,29.08-6.09,43.65-.59,4.47-.39,9.04-.89,13.53-.64,5.72-1.61,11.41-2.5,17.1-.13.83-.38,1.94-.97,2.35-3.6,2.5-2.01,5.7-1.65,8.94.44,4.02.56,8.12.31,12.16-.37,6.11-2.24,12.32-1.5,18.24.85,6.73-3.72,8.21-7.52,10.63-7.96,5.06-16.6,8.18-26.21,7.08-4.5-.51-8.92-1.65-13.39-2.44-.88-.15-2.25-.35-2.68.12-3.99,4.4-9.75,4.45-14.82,5.87-7.27,2.04-14.78,3.27-22.21,4.74-4.08.81-8.22,1.29-12.3,2.13-12.33,2.55-24.81,2.29-37.28,2.23-6.59-.04-13.26.19-19.74-.77-10-1.49-19.87-3.84-29.77-5.96-6.32-1.35-12.64-2.78-18.86-4.49-2.39-.66-4.49-2.29-6.79-3.34-.88-.4-1.97-.71-2.9-.57-5.46.77-10.87,2.12-16.34,2.46-11.33.69-20.65-4.51-29.3-11.15-.81-.62-1.7-1.75-1.75-2.68-.69-12.67-3.36-25.33-.39-38.05.21-.88.23-2.3-.29-2.77-4.99-4.47-4.19-10.92-5.11-16.44-2.35-14.15-3.73-28.46-5.3-42.74-1.19-10.85-1.91-21.76-3.17-32.61-.73-6.33-2.13-12.57-3.17-18.87-.28-1.69-.72-3.49-.39-5.09.3-1.45,1.5-3.74,2.43-3.81,1.64-.12,4.15.72,4.91,1.99,1.27,2.11,1.73,4.84,2.04,7.37,1.37,11.22,2.47,22.46,3.84,33.68,1.56,12.77,3.38,25.5,4.95,38.27.58,4.74.76,9.53,1.16,14.29.09,1.01.35,2,.47,2.7,1.27-8.9,2.34-17.98,3.91-26.98,1.24-7.11,3.35-14.08,4.56-21.2.44-2.61-.53-5.49-1.01-8.21-1.36-7.69-2.85-15.36-4.18-23.06-.44-2.52-.5-5.24,2.73-5.96,3.17-.71,4.82,1.06,5.27,4.15.8,5.45,1.63,10.9,2.56,17.06,1.28-3.59,2.24-6.75,3.53-9.76,1.75-4.06,3.4-8.23,5.72-11.96,7.04-11.32,10.44-24.09,14.82-36.44,3.15-8.9,5.87-17.99,8.14-27.15,1.77-7.13,1.29-14.35-1.62-21.33-2.39-5.75-4.55-11.61-6.49-17.53-1.08-3.3-3.27-3.59-6.02-3.14-19.49,3.21-39.03,6.13-58.43,9.78-13.03,2.45-25.78,6.35-38.8,8.86-15.72,3.03-29.98,10.17-45.05,15.03-7.72,2.49-15.29,5.45-23.04,7.84-1.66.51-4.25,0-5.6-1.08-1.04-.83-1.54-3.51-1.03-4.93,3.27-9.21,6.11-18.7,10.58-27.33,4.78-9.23,11.11-17.66,16.93-26.34,3.42-5.1,7.04-10.08,10.79-14.94,6.61-8.58,13.04-17.34,20.2-25.45,7.66-8.69,15.83-16.96,24.2-24.98,9.7-9.29,19.66-18.35,29.86-27.08,9.72-8.31,19.73-16.32,29.98-23.97,4.68-3.5,10.35-5.63,15.37-8.72,9.68-5.97,20.74-7.82,31.42-10.72,3.26-.89,6.83-.8,10.26-.88,4.51-.1,5.96,2.29,4.15,6.4-3.55,8.06-7.07,16.14-10.59,24.21-.22.51-.33,1.07-.75,2.44,1.84-.82,3.02-1.3,4.17-1.86,2.94-1.44,5.71-.87,6.72,1.41.94,2.11-.52,5.27-3.2,6.28-1.69.64-3.56.9-5.38,1.07-3.05.3-5.43,1.08-5.56,4.8-.06,1.68-.56,3.34-.86,4.95,3.49-.55,6.78-1.15,10.1-1.57,2.7-.35,4.39,1,4.44,3.69.05,2.69-1.65,3.51-4.28,3.98-3.79.68-7.45,2.14-11.1,3.44-.58.21-1.05,1.31-1.19,2.07-.62,3.37-1.1,6.76-1.67,10.35,3.92-1.68,7.69-3.24,11.42-4.9,2.29-1.02,4.54-1.21,5.81,1.2,1.13,2.14.75,4.72-1.6,5.78-5.39,2.43-10.97,4.45-16.99,6.83-.27,2.69-.63,6.19-1.02,10,4.41-1.63,8.46-3.17,12.54-4.63,1.02-.37,2.32-.93,3.17-.6,1.52.59,3.68,1.61,3.94,2.81.28,1.26-.99,3.63-2.23,4.29-3.42,1.83-7.22,2.91-10.79,4.5-2.76,1.23-5.4,2.73-8.03,4.21-.42.24-.7.98-.78,1.53-.38,2.77-.66,5.55-1.05,8.93,5.03-1.87,9.39-3.74,13.91-5.08,2.88-.85,6.02-1.32,8.98-1.11,1.38.1,3.44,2.05,3.72,3.46.47,2.33-1.42,3.19-3.83,3.84-6.34,1.71-12.59,3.84-18.72,6.2-3.41,1.31-4.63,4.14-3.22,7.8.34.9.38,1.91.6,3.13,3.68-1.26,7.2-2.46,10.73-3.67,2.2-.76,4.36-1.67,6.6-2.27,2.25-.61,4.32-.17,4.97,2.45.66,2.66-.36,4.52-3.07,5.44-4.94,1.68-9.87,3.37-14.73,5.27-.82.32-1.88,1.84-1.71,2.55.77,3.21,1.93,6.33,3.01,9.65,4.02-1.87,7.55-3.58,11.14-5.15,2.59-1.13,5.52-2.07,6.95,1.38,1.31,3.16-.69,5.04-3.54,6.22-4.18,1.74-8.31,3.58-12.53,5.41,1.36,4.33,2.61,8.29,3.98,12.65,2.34-1.13,4.44-2.29,6.66-3.19,2.54-1.03,5.32-1.52,6.61,1.68,1.28,3.16-.77,4.65-3.54,5.7-2.13.81-4.1,2.08-6.09,3.11.49,3.09.95,5.96,1.43,8.98,2.49-.71,4.97-1.17,6.05,1.75,1.08,2.9-.79,5-3.02,6.03-2.77,1.28-3.3,3.45-4.1,5.94-5.02,15.66-9.75,31.44-15.5,46.83-3.8,10.17-9.49,19.61-13.74,29.63-6.99,16.46-11.25,33.75-14.19,51.37-.14.87,0,2.06.51,2.72,3.54,4.55,3.28,5.77-2,8.13v3.82c.87-.23,1.63-.69,2.19-.52,1.7.53,3.33,1.31,4.99,2-.73,1.65-1.24,3.46-2.28,4.89-.65.89-2.03,1.47-3.18,1.74-2.81.66-3.01,2.36-2.41,4.37,3.48-1.01,6.87-1.9,10.21-2.98,2.48-.8,4.29-.03,5.02,2.29.81,2.59-.84,4.05-3.07,5.15-4.05,2-8.04,4.13-12.03,6.27-2.18,1.17-3.15,2.94-2.32,5.36,4.63-2.3,9.12-4.88,13.89-6.74,2.49-.97,5.55-1.15,8.21-.74,1.35.21,3.18,2.48,3.29,3.92.09,1.19-1.99,3.59-3.2,3.65-5.87.31-10.29,3.75-15.13,6.27-2.59,1.35-5.03,3.04-7.41,4.75-.76.55-1.13,1.66-1.79,2.71,6.64-2.43,12.63-4.81,18.76-6.78,2.87-.92,6.01-1.47,9.01-1.38,1.48.05,2.9,1.93,4.34,2.99-1.25,1.43-2.38,3.96-3.77,4.12-9.44,1.1-17.3,5.83-25.39,10.14-2.79,1.49-3.86,3.56-3.16,6.23,41.65-15.59,82.65-15,122.89,4.41,40.29-19.35,81.2-20.01,122.82-4.44.7-3.6.82-3.82-2.68-5.87-8.02-4.71-16.07-9.39-25.64-10.32-2.35-.23-3.95-1.68-3.73-4.2.21-2.36,1.89-3.3,4.17-3.23,8.92.26,16.84,3.82,24.72,7.49.77.36,1.49.83,2.26,1.27.37-2.28-.18-3.35-2.86-4.82-4.72-2.6-9.46-5.18-14.3-7.55-1.7-.83-3.68-1.14-5.58-1.5-2.29-.44-4.04-1.39-4.08-3.95-.04-2.44,1.26-4.17,3.77-4.07,2.87.11,5.92.21,8.53,1.23,4.55,1.77,8.82,4.25,14.01,6.07-.95-1.57-1.53-3.71-2.92-4.61-3.88-2.51-8.07-4.56-12.2-6.67-2.18-1.12-3.88-2.52-3.08-5.15.73-2.38,2.56-3.1,5-2.31,3.34,1.08,6.71,2.04,10.26,3.12.72-2.01.47-3.78-2.4-4.44-.59-.13-1.14-.45-1.67-.76-2.24-1.29-5.08-2.5-3.91-5.76,1.29-3.6,4.27-2.42,7.29-1.48.07-1.44.14-2.71.2-3.93-5.58-2.28-5.91-3.79-2.18-8.23.49-.59.51-1.8.38-2.66-2.94-19.04-8.16-37.44-15.68-55.17-1.24-2.93-2.59-5.86-4.29-8.53-7.73-12.21-11.52-26.01-15.97-39.53-2.96-8.98-5.4-18.14-8.17-27.19-.28-.9-1.15-1.67-1.87-2.37-.51-.5-1.31-.71-1.86-1.19-1.77-1.56-4.12-3.35-2.51-5.82.98-1.49,3.49-1.99,6.05-3.31.25-1.54.7-4.39,1.22-7.6-2.2-1.08-4.54-2.34-6.98-3.39-2.23-.97-3.49-2.44-2.76-4.88.72-2.43,2.7-3.32,4.97-2.6,2.75.87,5.35,2.18,8.31,3.43,1.41-4.17,2.73-8.09,4.18-12.35-4.33-1.91-8.71-3.81-13.07-5.75-2.44-1.09-4.39-2.66-3.22-5.64,1.27-3.22,3.95-3,6.54-1.9,3.72,1.58,7.34,3.37,11.72,5.41,1.09-3.58,2.72-6.96,2.85-10.41.05-1.23-3.35-3.01-5.46-3.82-3.62-1.4-7.5-2.11-11.18-3.36-2.44-.83-3.42-2.85-2.72-5.34.72-2.55,2.81-3.13,5.02-2.42,5.57,1.79,11.06,3.8,16.62,5.74,3.25-6.21,2.08-9.71-4.69-12.05-5.63-1.94-11.49-3.24-17.12-5.19-1.22-.42-2.68-2.46-2.61-3.67.08-1.21,1.99-3.35,2.99-3.29,4.09.25,8.21.91,12.18,1.96,3.65.96,7.11,2.62,11.06,4.12-.27-2.96-.42-5.63-.82-8.25-.13-.84-.75-1.96-1.46-2.3-5.56-2.7-11.16-5.3-16.81-7.8-2.46-1.09-4.64-2.38-3.57-5.45,1.16-3.32,4.03-2.87,6.53-2.03,4.38,1.45,8.66,3.2,13.28,4.94-.38-3.71-.73-7.21-1.02-10.08-5.83-2.3-11.27-4.3-16.59-6.59-2.5-1.08-3.42-3.4-2.15-5.85,1.35-2.61,3.63-2.36,6.06-1.24,3.65,1.68,7.4,3.16,11.24,4.78-.44-2.98-.87-5.97-1.33-8.95-.33-2.14-.97-3.8-3.59-4.29-3.54-.67-7.1-1.56-10.42-2.93-1.32-.55-2.88-2.72-2.74-3.97.14-1.27,2.25-3.27,3.5-3.27,3.58,0,7.16.84,10.85,1.37-.01-.14-.06-.61-.1-1.07-.45-5.37-2.07-9.41-8.73-8.9-1.47.11-3.22-1.06-4.56-2.03-1.87-1.35-2.96-3.64-1.14-5.37,1.22-1.16,3.65-1.45,5.51-1.39,1.41.04,2.78,1.26,4.87,1.37-1.01-2.23-2.05-4.44-3.02-6.68-2.97-6.84-6.04-13.65-8.8-20.58-1.11-2.78.8-5.01,4.02-4.97,8.9.12,17.49,2.16,25.89,4.83,16.92,5.4,32.11,14.13,45.62,25.55,14.58,12.33,29.37,24.53,42.84,38.03,12.59,12.62,26.15,24.43,36.58,39.15,11.87,16.76,24.33,33.1,35.86,50.08,3.9,5.75,5.78,12.9,8.48,19.45,1.68,4.08,3.42,8.16,4.61,12.39.52,1.85.43,4.78-.7,5.92-1.15,1.16-4.17,1.5-5.93.89-17.65-6.09-35.03-13.05-52.85-18.55-14.63-4.52-29.73-7.6-44.7-10.96-11.74-2.64-23.55-4.96-35.4-7.03-10.86-1.9-21.82-3.26-32.73-4.87-2.47-.36-4.12.25-5.05,2.92-2.82,8.09-6.32,15.98-8.64,24.21-1.13,4-.8,8.67-.11,12.87,1.03,6.28,2.58,12.55,4.61,18.59,3.99,11.88,8.28,23.66,12.81,35.35,1.76,4.55,4.68,8.63,6.76,13.07,3.06,6.53,5.83,13.19,8.88,20.16ZM462.14,269.71h10.51c.24-1.83,0-3.69.77-4.9.71-1.11,2.7-2.28,3.81-2.02,1.51.34,2.89,1.86,4,3.15,1.19,1.39,1.72,4.11,3.04,4.48,4.08,1.14,8.39,1.43,12.6,2.06-.17-.46-.34-.93-.51-1.39,1.91-1.29,4.21-3.95,5.64-3.55,2.11.6,3.6,3.38,6.2,6.13,3.92,1.07,9.31,2.55,13.5,3.7,2.24-1.93,3.67-3.99,5.49-4.44,1.09-.27,2.94,1.87,4.16,3.19.57.62.35,1.91.71,2.81.28.71.78,1.65,1.4,1.86,2.85.98,5.78,1.75,8.75,2.61,1.03-2.8,1.94-5.71,5.49-5.08,3.51.62,3.45,3.65,3.63,6.39.05.7.15,1.81.57,2,5.33,2.42,10.72,4.7,16.1,7.02.19-.28.37-.57.56-.85-7.97-10.47-15.94-20.95-23.93-31.41-1.18-1.55-2.14-3.03-4.78-1.87-2.38,1.05-4.33-1.11-4.27-3.93.03-1.28.21-2.94-.47-3.78-2.61-3.24-5.55-6.21-8.36-9.28-.1.48-.21.96-.31,1.43-1.86.94-3.79,2.76-5.56,2.62-3.01-.23-2.78-3.18-2.76-5.57.03-3.76-5.21-8.22-10.24-8.65-.06,1.1.23,2.41-.27,3.26-.82,1.42-1.95,3.24-3.31,3.65-2.14.63-3.67-.82-3.96-3.24-.16-1.34-.45-2.66-.72-3.98-1.24-6.23-2.44-7.42-8.99-8.74,0,2.26.1,4.48-.03,6.68-.13,2.34-1.61,3.96-3.83,3.39-1.36-.36-2.92-2.05-3.36-3.46-.93-3.01-1.12-6.25-1.79-9.35-.17-.76-.93-1.72-1.63-1.97-3.06-1.08-6.19-1.92-9.36-2.87,0,3.26.43,6.17-.17,8.85-.32,1.43-2.3,3.13-3.78,3.42-.87.17-2.74-1.99-3.29-3.43-1.21-3.18-1.8-6.6-2.8-9.87-.2-.65-1.06-1.41-1.72-1.55-2.72-.54-5.49-.86-8.07-1.24.77,3.81,1.84,7.25,1.97,10.73.05,1.35-1.81,3.49-3.23,3.94-.97.31-3.14-1.38-3.93-2.69-1.17-1.95-1.53-4.37-2.36-6.54-2.37-6.16-3.92-7.03-9.62-5.53,1.7,9.91,3.4,19.83,5.1,29.75,1.72,10.02,3.46,20.03,5.29,30.62,2.52-.44,5.45-.95,8.35-1.46.01-3.87-1.53-8.51,3.27-9.38,6.22-1.12,4.58,5.31,6.52,8.26ZM134.59,258.88c-8.56,11.28-17.22,22.7-25.89,34.13.21.27.42.53.63.8,4.56-2.02,9.06-4.17,13.7-5.99,2.24-.88,3.41-1.88,3.11-4.49-.28-2.42.78-4.48,3.37-4.99,2.63-.51,4.17.92,4.79,3.46.13.54.55,1.02.95,1.71,1.65-.58,3.09-1.31,4.61-1.58,3.5-.62,5.98-1.85,6.22-6.06.06-1.12,2.15-2.54,3.58-3.03.9-.31,2.56.62,3.41,1.46.78.77.93,2.18,1.38,3.36,5.65-1.53,11.16-3.03,16.75-4.55-.05-2.76.62-5.8,3.79-5.63,2.11.11,4.11,2.36,6.16,3.65l-.47,1.35c3.61-.56,7.2-1.36,10.82-1.6,2.65-.18,3.7-1.51,4.17-3.75.6-2.87,2.05-4.93,5.25-4.48,3.31.47,3.76,3.07,3.63,5.87-.02.35.09.7.17,1.24h10.61c2.02-7.53,3.09-9,6.18-8.51,2.98.47,4,3.08,3.56,9.63,2.9.48,5.83.97,8.26,1.38,3.54-20.6,6.97-40.6,10.41-60.62-6.23-.74-6.31-.78-8.92,4.49-1.02,2.07-1.59,4.36-2.34,6.56-.89,2.61-2.06,5.15-5.4,4.03-2.99-1-3.29-3.73-2.66-6.42.62-2.68,1.52-5.3,2.42-8.38-3.07.47-5.85.81-8.58,1.39-.65.14-1.47.95-1.66,1.6-.91,3.16-1.37,6.48-2.53,9.53-.59,1.53-2.17,3.39-3.62,3.71-2.15.49-3.6-1.22-3.62-3.61-.03-2.85,0-5.71,0-8.78-3.03.89-5.6,1.68-8.2,2.39-1.72.47-3.12.96-3.26,3.22-.17,2.63-.93,5.23-1.13,7.86-.19,2.57-1.01,4.39-3.86,4.36-2.66-.03-3.5-1.73-3.61-4.17-.09-2.01-.5-4-.85-6.56-2.55,1.47-5.46,2.19-6.48,3.98-1.49,2.61-1.36,6.1-2.43,9.03-.53,1.44-2.15,3.31-3.4,3.4-1.19.09-2.81-1.68-3.72-3-.75-1.09-.73-2.72-1.16-4.54-4.19,3.55-11.33,3.9-9.6,11.88.18.85-1.7,2.75-2.93,3.11-1.01.29-2.56-.86-3.7-1.61-.59-.39-.82-1.32-1.57-2.62-3.02,3.21-5.79,6.01-8.37,8.98-.63.73-.92,1.97-.94,2.99-.09,5.26-1.36,6.2-7.03,4.43ZM412.26,572.52c-1.74-1.08-3.11-1.87-4.42-2.75-4.38-2.95-9.34-5.35-12.92-9.07-3.2-3.33-5.77-3.31-9.54-1.99-5.79,2.03-11.72,3.68-17.62,5.39-4.8,1.4-9.84,2.18-14.42,4.08-7.6,3.15-15.39,3.63-23.14,2-7.49-1.58-14.75-4.28-22.11-6.49-6.34-1.9-12.72-3.7-19.02-5.74-2.16-.7-3.44-.49-5.06,1.33-1.93,2.15-4.49,3.77-6.91,5.44-3.87,2.67-7.83,5.2-11.84,7.84,49.11,16.02,97.86,15.95,147-.03Z" style="fill: #000; stroke-width: 0px;"/>
  <path d="M338.77,672.6c11.14-9.97,24.15-13.76,38.58-13.53,6.55.11,13.1.24,19.64-.06,5.87-.28,11.93-.38,17.52-1.94,6.76-1.89,13.55-4.51,19.57-8.09,16.47-9.78,32.27-20.67,48.85-30.24,11.32-6.53,22.76-13.41,35.75-16.2,9.82-2.11,19.72-4.2,29.95-3.53,3.31.22,6.69-.82,10.01-.7,2.63.1,5.44.66,7.79,1.8,3.13,1.51,2.56,5.53-.82,7.3-2.81,1.47-5.79,2.67-8.44,4.38-10.62,6.82-18.98,15.58-23.13,27.81-1.06,3.12-2.58,6.14-3.2,9.34-.73,3.81-.63,7.76-1.03,11.64-1.11,10.98-1.89,22.01-3.54,32.91-2.4,15.84-10.01,29.02-21.48,40.28-9.87,9.69-20.01,18.99-30.84,27.62-11.94,9.5-21.43,21.27-30.16,33.8-9.55,13.72-19.16,27.5-29.96,40.21-8.83,10.38-21.6,14.06-35.03,13.2-4.92-.31-9.75-3.11-14.49-5.11-7.79-3.29-15.87-5.5-24.28-5.72-9.06-.23-17.78,1.89-26.18,5.36-4.98,2.06-9.97,4.44-15.19,5.52-5.98,1.23-11.83-.86-17.7-2.5-14.8-4.13-22.68-15.8-31.02-27.12-12.4-16.81-22.42-35.47-37.95-49.83-8.22-7.6-17.6-13.98-25.53-21.85-11.64-11.53-25.01-21.92-30.96-38.02-3.44-9.31-6.07-18.81-5.98-29.07.07-8.15-2.28-16.32-2.34-24.49-.05-7.05-2.89-13.14-5.18-19.26-3.98-10.66-12.02-18.42-21.57-24.48-2.67-1.69-5.76-2.73-8.35-4.53-1.43-1-3.13-3.03-2.99-4.43.14-1.41,2.26-3.44,3.78-3.72,2.99-.54,6.16-.07,9.25.02.84.02,1.69.36,2.51.27,8.38-.93,16.59,0,24.95,1.05,16.11,2.03,29.65,10.06,43.54,17.24,7.6,3.92,14.46,9.25,21.75,13.78,9.68,6.02,19.21,12.37,29.29,17.64,6.4,3.35,12.63,7.82,20.27,8.2,12.28.62,24.57,1.35,36.86,1.46,10.6.1,20.42,2.63,29.58,7.73,2.76,1.54,5.13,3.77,7.91,5.87ZM528.19,613.44c-.2-.35-.39-.69-.59-1.04-5.2,2.6-10.45,5.11-15.58,7.85-2.48,1.33-4.76,3.04-7.04,4.71-4.55,3.32-9.32,6.42-13.49,10.17-9.75,8.75-13.84,20.65-17.11,32.84-3.02,11.25-5.85,22.52-11.14,33.04-4.7,9.35-10.64,17.41-20.92,20.71-5.64,1.81-11.7,2.59-17.64,3.19-10.63,1.07-21.46.78-31.92,2.68-9.53,1.73-18.95,2.52-28.56,2.67-6.5.11-11.99-2.17-17.3-5.51-9.68-6.1-6.61-6-16.53-.15-4.15,2.45-8.91,5.05-13.51,5.29-9.39.5-18.99,1.4-28.25-1.81-1.71-.59-3.61-.69-5.44-.84-12.72-1.04-25.45-2-38.18-3.04-8.53-.7-16.19-3.88-22.04-10-6.7-7.01-10.95-15.72-13.83-24.97-2.7-8.66-4.94-17.45-7.54-26.14-3.8-12.71-9.55-24.23-20.76-32.15-6.3-4.46-12.53-9.08-19.14-13.04-3.89-2.33-8.45-3.54-10.69-4.44,3.15,3.75,7.45,8.76,11.63,13.87,2.17,2.66,4.5,5.28,6.14,8.26,9.96,18.1,16.71,37.56,24.06,56.77,1.9,4.97,4.61,9.77,7.7,14.12,5.05,7.11,10.78,13.74,16.11,20.65,3.51,4.56,6.84,9.27,10.24,13.91,8.53,11.67,19.49,20.22,32.57,26.42,6.94,3.29,13.29,7.8,19.93,11.73.6.36,1.35.49,2.05.67,4.01,1.04,8.37,1.39,11.96,3.23,5.57,2.86,11.02,3.02,16.72,1.4,3.87-1.1,7.55-3.24,11.46-3.73,7.9-.98,15.93-1.8,23.85-1.44,5.86.27,11.69,2.31,17.42,3.96,5.45,1.57,10.86,3.29,16.52,1.67,4.22-1.21,8.28-2.95,12.44-4.38,2.26-.77,4.8-.99,6.85-2.12,5.48-3,10.72-6.43,16.13-9.56,6.6-3.81,13.98-6.64,19.73-11.44,7.3-6.1,13.69-13.42,19.74-20.82,6.69-8.17,12.63-16.96,18.74-25.58,3.68-5.19,7.48-10.36,10.48-15.94,2.71-5.05,5.09-10.48,6.38-16.03,2.44-10.55,8.03-19.72,11.82-29.66,3.92-10.3,9.36-19.72,17.93-27.07,3.12-2.68,5.74-5.93,8.59-8.93Z" style="fill: #000; stroke-width: 0px;"/>
  <path d="M68.9,116.94c7.26.9,15.66,1.96,24.06,2.97,15.38,1.85,30.64,3.07,46.14-.07,15.13-3.06,30.56-4.69,45.84-7.07,6.77-1.06,13.5-2.4,20.24-3.65,9.16-1.7,18.52-2.76,27.43-5.33,12.09-3.49,24.3-4.79,36.75-5.07,5.78-.13,11.55-.62,17.33-.68,5.35-.06,6.69,2.59,5.19,7.62-2.25,7.54-8.42,12.38-12.19,18.85-2.74,4.7-5.56,9.88-11.2,11.85-4.6,1.6-9.44,2.49-14.12,3.86-4.66,1.37-9.4,2.64-13.87,4.51-13.34,5.58-26.71,11.11-39.77,17.3-6.6,3.13-12.45,7.81-18.82,11.48-4.22,2.43-9.08,3.84-13.06,6.57-7.69,5.29-15.19,10.9-22.33,16.9-10.42,8.76-19.97,18.62-30.78,26.85-12.89,9.8-26.57,18.49-41.54,25.13-11.65,5.16-22.79,11.49-34.04,17.5-6.7,3.58-9.7,1.52-10.46-6.11-1.48-14.68,2.38-28.19,7.58-41.55,4.37-11.23,7.97-22.69,9.94-34.6.36-2.17.23-4.43.19-6.64-.2-11.14-.47-22.28-.64-33.43-.02-1.07.48-2.14.65-3.23.78-4.94,1.83-9.86,2.22-14.83.42-5.47,1.97-7.55,7.37-8.1,3.55-.36,7.1-.63,11.89-1.05Z" style="fill: #000; stroke-width: 0px;"/>
  <path d="M396.39,97.01c14.35,1.8,28.75,3.27,43.04,5.5,10.87,1.7,21.54,4.63,32.39,6.52,11.94,2.07,24.01,3.46,35.98,5.37,8.71,1.39,17.34,3.29,26.05,4.68,8.12,1.3,16.27,2.75,24.46,3.15,5.94.29,11.95-1.23,17.95-1.57,13.12-.74,26-4.33,39.26-3.32,2.33.18,4.92-.07,6.9.9,1.99.97,4.79,3.24,4.76,4.89-.27,12.27,5.81,23.71,4.33,36.09-.75,6.33-1.38,12.72-1.43,19.08-.08,10.16,2.44,19.85,5.83,29.42,3.92,11.08,8.18,22.16,10.69,33.59,1.61,7.37.49,15.37.28,23.09-.08,2.94-2.75,4.59-5.62,3.66-2.54-.83-4.92-2.19-7.33-3.4-12.26-6.17-24.61-12.17-36.72-18.63-8.21-4.38-16.41-8.95-24.01-14.29-10.03-7.05-19.62-14.76-29.12-22.53-5.61-4.59-10.44-10.12-16.04-14.72-8.23-6.77-16.49-13.49-26.33-18.07-6.62-3.08-12.56-7.6-19.07-10.96-8.27-4.28-16.7-8.27-25.24-11.98-10.21-4.45-20.52-8.71-30.97-12.56-4.41-1.63-9.36-1.75-13.94-3.01-4.6-1.26-8.45-3.81-11.14-8-2.91-4.55-6.06-8.94-9.13-13.39-.76-1.1-1.39-2.54-2.46-3.14-4.08-2.3-3.83-6.67-5-10.24-.86-2.64,1.33-4.82,4.48-5.04,2.33-.17,4.69-.03,7.04-.03.04-.34.08-.68.12-1.03Z" style="fill: #000; stroke-width: 0px;"/>
  <path d="M162.14,479.9c.99,10,1.8,20.02,3,29.99,1.34,11.17,2.72,22.35,4.66,33.42,2.36,13.46,5.39,26.8,7.91,40.23.28,1.46-.42,4.09-1.43,4.56-1.17.55-4.12-.19-4.64-1.22-1.75-3.44-3.21-7.17-3.96-10.95-2.02-10.18-3.69-20.44-5.35-30.69-2.24-13.91-4.54-27.82-6.42-41.79-.98-7.29-.99-14.7-1.65-22.04-.64-7.08-1.59-14.14-2.36-21.21-.72-6.7-1.33-13.42-2.08-20.12-1.08-9.63-2.31-19.25-3.32-28.88-.39-3.73-.22-7.51-.51-11.25-.26-3.4-.83-6.78-1.21-10.18-.15-1.34-.57-2.87-.11-4.01.56-1.37,1.93-3.37,2.94-3.37,1.4,0,3.58,1.34,4.04,2.61,1.03,2.83,1.41,5.95,1.67,8.98.64,7.45.92,14.93,1.63,22.37.63,6.57,1.66,13.11,2.47,19.66,1.11,8.99,2.22,17.98,3.27,26.98.65,5.61,1.19,11.24,1.78,16.85l-.35.03Z" style="fill: #000; stroke-width: 0px;"/>
  <path d="M532.71,387.03c-.9,8.87-1.83,17.73-2.7,26.6-.55,5.62-1,11.24-1.52,16.86-.76,8.14-1.41,16.3-2.35,24.42-.86,7.43-2.12,14.81-3.05,22.23-.55,4.37-.71,8.78-1.2,13.16-1.71,15.2-3.16,30.44-5.34,45.57-2.06,14.27-4.83,28.44-7.47,42.62-.51,2.73-1.65,5.4-2.84,7.94-1.03,2.18-3.12,2.97-5.3,1.82-2.07-1.09-1.84-2.95-1.32-5.12,2.11-8.78,4.36-17.56,5.81-26.46,2.35-14.51,4.29-29.09,6.07-43.68,1.9-15.58,3.46-31.2,5.07-46.81,1.13-10.98,1.98-22,3.19-32.97.91-8.28,2.3-16.5,3.29-24.77.74-6.19,1.16-12.42,1.76-18.62.12-1.21.53-2.4.62-3.61.19-2.63,1.37-4.29,4.16-4.02,2.88.28,3.4,2.42,3.14,4.83Z" style="fill: #000; stroke-width: 0px;"/>
  <path d="M170.45,395.19c2.5.01,4.25,2.26,4.37,5,.24,5.58.53,11.16,1.11,16.71,1.02,9.72,2.35,19.41,3.42,29.13,1.05,9.49,1.97,18.99,2.88,28.49.59,6.1.93,12.22,1.61,18.31,1.18,10.58,2.41,21.16,3.84,31.7,1.25,9.21,2.95,18.36,4.07,27.59.17,1.4-1.39,3.83-2.74,4.42-2.24.97-3.98-.55-4.4-3.08-1.26-7.72-2.56-15.43-3.71-23.16-1.54-10.39-3.12-20.79-4.37-31.22-.82-6.81-1-13.69-1.61-20.53-.87-9.76-1.91-19.5-2.82-29.25-.57-6.1-.89-12.24-1.64-18.32-.92-7.52-2.19-14.99-3.28-22.48-.4-2.79-.83-5.58-1.04-8.39-.22-2.89,1.69-4.93,4.31-4.92Z" style="fill: #000; stroke-width: 0px;"/>
  <path d="M485.43,553.72c.95-6.75,1.7-12.2,2.49-17.65,1.41-9.8,3.04-19.58,4.2-29.4,1.66-14.09,3.09-28.21,4.42-42.33.73-7.81.82-15.68,1.62-23.47.83-8.02,2.31-15.97,3.25-23.98.64-5.41.7-10.89,1.31-16.31.19-1.66.94-3.68,2.14-4.68.87-.73,3.45-.64,4.3.14,1.16,1.07,2.12,3.23,1.92,4.77-1.69,13.34-3.86,26.63-5.48,39.98-.93,7.66-.98,15.42-1.63,23.12-.83,9.75-1.82,19.5-2.84,29.23-.95,9.01-1.88,18.02-3.08,26.99-1.19,8.85-2.7,17.67-4.08,26.5-.36,2.3-.7,4.6-1.17,6.88-.46,2.22-1.91,3.85-4.14,3.11-1.49-.5-2.56-2.27-3.21-2.89Z" style="fill: #000; stroke-width: 0px;"/>
  <path d="M473.43,241.54c8.59.89,17.08,1.67,25.53,2.74,1.72.22,3.68,1.19,4.82,2.46.96,1.07,1.57,3.32,1.09,4.57-.48,1.24-2.63,2.8-3.85,2.64-9.2-1.16-18.37-2.6-27.52-4.18-3.21-.55-4.75-3.86-3.08-6.12.66-.89,1.89-1.36,3-2.12Z" style="fill: #000; stroke-width: 0px;"/>
  <path d="M196.56,241.95c3.08,0,5.35-.39,7.39.14,1.35.35,3.5,2.3,3.32,3.01-.45,1.73-1.76,3.96-3.27,4.52-2.8,1.03-6,.97-9.02,1.45-6.16.97-12.28,2.18-18.47,2.83-1.33.14-3.64-1.46-4.08-2.74-.45-1.29.41-4.06,1.51-4.64,2.61-1.39,5.66-2.14,8.61-2.66,4.94-.87,9.94-1.36,14.01-1.89Z" style="fill: #000; stroke-width: 0px;"/>
</svg>