<?xml version="1.0" encoding="UTF-8"?>
<svg id="Layer_1" data-name="Layer 1" xmlns="http://www.w3.org/2000/svg" viewBox="0 0 816.17 900">
  <path d="M816.02,167.7c-.14,8.48-2.56,16.52-4.91,24.58-.63,2.18-1.2,4.4-2.08,6.48-1.1,2.59-.7,4.2,1.43,6.39,2.12,2.18,3.93,5.5,4.22,8.48,1.66,17.29,2.65,34.64-1.05,51.83-1.42,6.6-4.39,12.47-9.41,17.11-1.46,1.35-1.77,2.66-.93,4.44.41.87.67,1.89.73,2.85,1.09,16.84.2,33.37-8.04,48.65-3.19,5.91-7.67,10.53-14.15,12.8-1.79.63-1.84,1.85-2.15,3.38-1.92,9.55-3.59,19.18-6.11,28.58-2.82,10.53-11,17.04-19.37,23.13-6.63,4.83-13.92,8.24-22.11,9.41-2.04.29-2.8,1.14-2.9,3.22-.56,11.67-5.31,21.26-14.45,28.65-6.9,5.58-13.46,11.62-22.34,14.12-.83.23-1.5,1.85-1.82,2.94-2.03,6.89-3.6,13.93-5.96,20.7-3.72,10.64-11.83,18.01-20.04,25.17-1.56,1.36-2.02,2.73-2.22,4.77-1.02,10.3-2.37,20.57-3.56,30.85-1.07,9.28-3.44,18.19-7.16,26.77-3.58,8.24-8.22,15.73-14.74,21.96-1.41,1.35-2.02,2.64-1.49,4.68,3.44,13.35,4.33,27.04,5.19,40.73.78,12.38-3.43,23.06-11.46,32.32-1.45,1.68-1.96,3.27-1.81,5.58.24,3.81,0,7.7-.48,11.49-1.85,14.47-4.69,28.7-12.94,41.12-2.69,4.05-6.23,7.53-9.31,11.33-.56.69-.96,1.64-1.07,2.52-.29,2.53.04,5.2-.64,7.61-3.27,11.67-6.42,23.4-10.33,34.87-3.47,10.19-9.9,18.56-18.47,25.2-4.83,3.74-9.62,7.55-14.46,11.28-1.17.9-2.35,2.02-3.71,2.4-10.69,3.06-15.79,12.4-22.23,20.05-4.6,5.47-8.32,11.74-12.1,17.85-4,6.47-8.74,12.1-15.12,16.37-10.45,6.98-21.39,8-32.45,2.1-4.34-2.32-6.91-1.66-10.52,1.33-5.44,4.51-11.48,8.33-17.49,12.08-4.6,2.87-9.86,3.96-15.31,3.79-7.29-.23-13.14-3.14-17.11-9.43-.58-.92-1.12-1.88-1.85-2.67-2.06-2.27-5.18-2.29-7.33-.12-.34.35-.62.77-.9,1.17-7.72,11.22-19.06,14.62-31.41,8.13-7.87-4.14-14.92-9.87-22.22-15.05-1.63-1.16-2.79-1.65-4.74-.66-18.79,9.52-36.05,4.87-47.98-12.94-2.96-4.42-5.4-9.21-8.55-13.49-4.5-6.1-9.44-11.87-14.17-17.79-1.35-1.69-2.54-3.51-3.98-5.1-.87-.96-2.01-1.76-3.17-2.37-3.13-1.64-6.63-2.72-9.44-4.78-6.84-5-13.58-10.18-19.96-15.74-7.52-6.56-12.49-15.02-15.53-24.46-3.2-9.95-6.02-20.02-8.74-30.11-.81-2.99-.66-6.24-1.07-9.35-.12-.89-.37-2.06-.99-2.55-7.96-6.35-12.25-15.15-15.82-24.25-4.64-11.85-6.95-24.33-7.03-37.02-.03-4.49-1.13-7.67-3.85-11.05-6.66-8.28-9.95-17.89-9.39-28.59.72-13.99,1.81-27.95,5.03-41.65.3-1.28-.07-3.32-.94-4.19-13.5-13.57-19.77-30.38-22.26-48.91-1.24-9.19-2.82-18.37-3.28-27.61-.26-5.18-2.18-8.43-5.98-11.52-13.61-11.07-19.98-26.03-22.56-42.97-.17-1.13-1.43-2.62-2.52-3.01-11.8-4.26-20.93-12.17-28.84-21.48-4.93-5.79-6.76-13.09-7.19-20.63-.13-2.25-.77-3.27-3.13-3.67-15.06-2.58-26.54-11.16-36.12-22.49-2.23-2.64-4.07-6.01-4.91-9.34-2.46-9.72-4.29-19.6-6.49-29.4-.26-1.14-1.05-2.69-1.99-3.06-6.59-2.61-11.16-7.3-14.41-13.41-1.06-2-2.09-4.04-2.89-6.15-5.06-13.38-6.39-27.33-4.73-41.35.57-4.8-.05-7.74-3.17-11.31-2.75-3.15-4.52-7.4-5.87-11.44-1.38-4.17-2.32-8.66-2.42-13.04-.27-12.8-.19-25.62.1-38.42.11-4.92,1.82-9.43,6.02-12.7.69-.54.75-2.49.46-3.62-2.14-8.4-4.83-16.68-6.59-25.16-2.52-12.2.93-22.73,10.01-31.49,5.74-5.54,11.05-11.54,16.6-17.28,4.56-4.71,9.35-9.59,15.92-10.79,4.92-.89,6.86-3.39,8.79-7.52,5.88-12.61,15.22-22.46,26.28-30.71,6.72-5.02,13.44-10.04,20.44-14.65,2.76-1.82,6.33-2.38,9.43-3.74,1.45-.63,2.93-1.56,3.94-2.74,7.69-9,16.93-15.98,27.61-20.93,6.78-3.15,13.82-4.62,21.12-1.02.86.42,2.7-.54,3.79-1.3,5.81-4.05,11.3-8.61,17.33-12.29,9.78-5.96,20.55-7.03,31.72-5.02,5.74,1.03,10.24,4.06,13.64,8.66,1.64,2.21,2.88,2.47,5.19.69,10.33-7.96,22.19-10.44,34.66-7.41,4.96,1.21,7.94.58,11.9-2.46,7.75-5.93,17.01-7.74,26.64-6.2,3.11.5,6.17,2,8.96,3.57,1.83,1.03,2.78.98,3.83-.69.42-.66.95-1.26,1.46-1.86,7.62-8.9,17.1-11.65,28.23-8.23,11.62,3.56,20.63,10.53,26.5,21.3.84,1.54,1.37,2.56,3.52,1.41,9.02-4.81,18.14-3.38,27.03.37,2.02.85,3.26.93,5.33.04,8.88-3.82,17.99-5.19,27.03-.45,2.02,1.06,2.68.43,3.58-1.25,5.58-10.42,14.22-17.31,25.3-21.04,12.53-4.21,22.33-1.2,30.45,9.2,1.64,2.1,2.66,2.26,4.96.82,2.52-1.58,5.53-2.83,8.46-3.22,11.31-1.49,21.49,1.21,30.16,8.97.84.75,2.55,1.31,3.53.98,14.04-4.72,27.01-2.62,39.04,5.84,3.2,2.25,3.25,2.37,5.74-.74,4.18-5.22,9.59-7.92,16.18-8.77,12.22-1.58,23.35,1.18,33.43,8.09,4.46,3.06,8.7,6.46,12.9,9.88,1.66,1.35,2.97,1.8,5,.71,4.03-2.17,8.53-2.22,12.69-.89,4.93,1.58,9.86,3.55,14.31,6.16,8.01,4.71,15.28,10.47,21.1,17.88.8,1.02,2.4,1.49,3.71,1.99,2.46.93,5.36,1.15,7.4,2.62,10.24,7.37,20.56,14.67,30.26,22.72,8.89,7.38,15.42,16.82,20.02,27.53.49,1.14,1.87,2.51,2.99,2.65,5.1.66,9.38,2.94,13.33,6,1.79,1.38,3.51,2.89,5.08,4.52,6.86,7.09,13.71,14.18,20.44,21.39,5.64,6.03,8.45,13.23,8.24,21.55ZM184.95,405.71c-2.13,6.47-2.8,12.66-3.16,18.97-.28,4.98,1.46,8.95,5.06,12.05,2.74,2.36,5.62,4.96,8.9,6.18,5.76,2.15,11.83,3.68,17.89,4.81,4.62.86,9.43.64,14.15.99,1.83.14,3.57,1.09,3.24,3.05-.2,1.22-1.61,2.96-2.76,3.21-10.17,2.22-20.42,3.52-30.77,1.02-1.4-.34-2.79-.72-4.18-1.09-.36.42-.71.84-1.07,1.26.97.48,2.17.74,2.86,1.47,6.54,6.96,13.53,13.58,19.28,21.15,3.83,5.04,8.18,7.94,14.09,9.27,9.54,2.14,18.82.95,27.99-1.92,2.05-.64,4.27-1.21,5.48,1.18,1.3,2.57-.67,3.96-2.49,5.26-8.68,6.23-18.34,8.94-28.99,8.19-1.01-.07-2.03,0-3.22,0,.09.87.08,1.26.17,1.62,1.81,7.36,3.52,14.75,5.53,22.05.38,1.39,1.76,2.86,3.07,3.58,9.01,4.94,18.35,6.39,28.11,2.08,1.93-.85,4.03-1.11,5.12,1.2.99,2.1-.4,3.49-2.05,4.65-9.03,6.34-18.78,9.04-29.65,5.74-2.47-.75-3.19.1-3.12,2.51.25,8.58.43,17.16.56,25.74.03,2.23.85,3.92,2.94,4.65,4.72,1.64,9.43,3.42,14.29,4.57,3.21.76,6.68.36,10,.8,1.19.16,2.62,1.03,3.26,2.02.45.69.03,2.32-.54,3.17-.53.8-1.71,1.28-2.7,1.65-7.87,2.93-15.89,3.84-24.07,1.42-2.15-.64-3.11-.08-3.25,2.24-.48,7.77-.59,15.61-1.73,23.3-1.45,9.69,3.31,14.9,11.53,17.84,5.35,1.91,10.95,3.16,16.46,4.63,1.92.51,3.75,1.13,3.72,3.49-.03,2.32-1.79,3.1-3.77,3.45-8.21,1.47-16.29,1.41-24.14-1.86-.69-.29-1.44-.41-2.58-.71,0,1.37-.13,2.41.02,3.41.94,6.24,2.12,12.45,2.86,18.71.5,4.17,2.69,6.42,6.42,7.96,6.84,2.83,13.91,3.48,21.18,3.1,2.08-.11,4.16.09,4.65,2.59.48,2.45-1.32,3.46-3.23,4.29-6.65,2.86-13.5,4.35-20.77,3.09-.73-.13-1.49-.02-2.59-.02.27,1.11.38,1.97.68,2.75,2.89,7.66,5.91,15.27,8.67,22.97,1.18,3.29,3.19,5.16,6.65,5.28,8.45.28,16.91.51,25.37.69,1.98.04,3.86.17,4.61,2.34.75,2.18-.59,3.52-2.21,4.67-5.56,3.92-11.8,5.83-18.54,6.26-1.02.07-2.04.24-3.76.45,1.4,1.72,2.31,2.94,3.32,4.07,4.54,5.07,9.15,10.08,13.64,15.18,2.85,3.24,6.31,5.26,10.62,4.8,7.04-.76,14.04-1.87,21.05-2.92,2.06-.31,4.13-.6,5.08,1.71.96,2.3-.61,3.68-2.4,4.77-6.03,3.7-12.4,6.49-19.52,7.29-.82.09-1.63.37-2.33.53-.05.54-.14.77-.07.92,3.95,8.26,7.84,16.55,11.97,24.73.54,1.07,2.19,1.94,3.47,2.18,1.69.32,3.62.26,5.28-.22,7.08-2.05,14.11-4.27,21.13-6.53,1.88-.6,3.75-1.25,5.05.72,1.4,2.12.11,3.71-1.49,5.09-6.28,5.41-13.2,9.66-21.35,11.66-.71.18-1.38.52-2.47.94,2.77,3.18,4.96,6.28,9.13,7.09,2.51.49,4.99,1.21,7.42,2,2.47.8,4.62.49,6.66-1.12,5.97-4.69,11.97-9.33,17.94-14.01,1.48-1.16,3.03-2.14,4.79-.76,1.84,1.44,1.41,3.26.43,5.06-.62,1.13-1.19,2.29-2.15,4.14,1.77-.57,2.69-.83,3.59-1.15,14.29-5.13,26.04-1.94,35.82,9.7,1.39,1.65,2.66,3.37,1.41,5.58-1.26,2.23-3.5,2.11-5.53,1.58-3.04-.81-5.98-1.95-8.98-2.92-1.14-.37-2.31-.65-4.36-1.22.98,1.84,1.27,3.1,2.07,3.78,4.84,4.14,9.69,8.06,16.91,5.65,5.47-1.83,7.06-.25,5.97,5.28h3.06c-1.11-5.33.61-7.17,5.51-5.38,7.01,2.56,11.98-.97,16.88-4.89,1.05-.84,1.52-2.4,2.26-3.63-.24-.22-.49-.44-.73-.66-1.26.43-2.52.88-3.79,1.28-3,.95-5.97,1.99-9.02,2.77-1.98.5-4.41.44-5.01-1.83-.39-1.48.22-3.75,1.22-5,9.53-11.9,21.51-15.2,35.92-10.18.95.33,1.93.58,3.62,1.08-.78-1.5-1.15-2.28-1.57-3.01-1.1-1.91-2.48-3.99-.31-5.85,2.36-2.02,4.11-.03,5.89,1.41,4.29,3.47,8.76,6.73,12.91,10.36,4.57,4,9.36,5.49,15.11,2.77,1.31-.62,2.87-.71,4.28-1.15,3.57-1.11,5.59-3.91,8.08-6.79-1.14-.44-1.65-.72-2.2-.85-7.75-1.84-14.47-5.66-20.52-10.73-1.85-1.55-4.58-3.06-2.79-5.96,1.79-2.91,4.38-1.09,6.59-.17,7.49,3.13,15.09,5.78,23.31,6.23,3.07.17,4.85-.94,6.15-3.84,3.31-7.37,6.96-14.58,10.46-21.86.32-.66.54-1.37.93-2.37-1.4-.22-2.44-.42-3.49-.55-7.11-.88-13.44-3.78-19.42-7.53-1.61-1.01-2.77-2.42-1.9-4.44.86-1.99,2.63-2.16,4.52-1.78.87.17,1.72.45,2.6.57,6.34.85,12.67,1.83,19.03,2.44,4.42.42,7.96-1.6,10.87-4.94,3.62-4.17,7.39-8.21,11.07-12.32,1.81-2.02,3.59-4.06,5.9-6.68-1.83-.27-2.83-.49-3.84-.55-6-.39-11.69-1.87-16.82-5.08-2.1-1.31-5.07-2.41-4.13-5.68.97-3.39,4.03-2.4,6.51-2.39.49,0,.99.11,1.48.09,7.57-.32,15.14-.61,22.7-1.01,2.93-.16,4.82-1.68,5.87-4.57,2.87-7.88,5.94-15.68,8.9-23.52.3-.79.39-1.65.65-2.82-1.1,0-1.87-.11-2.59.02-6.84,1.22-13.35,0-19.67-2.59-2.23-.92-5.2-1.58-4.39-4.91.76-3.12,3.61-2.47,5.93-2.37,7.6.31,14.95-.63,21.86-4.09,2.38-1.19,3.87-2.84,4.27-5.57.99-6.73,2.16-13.44,3.2-20.16.16-1,.02-2.05.02-3.57-1.49.5-2.49.79-3.45,1.17-7.81,3.02-15.81,2.99-23.89,1.46-1.91-.36-3.71-1.38-3.23-3.44.3-1.27,1.95-2.34,3.19-3.23.65-.47,1.71-.36,2.58-.51,8.17-1.39,15.85-3.99,22.54-9.1,2.31-1.76,3.54-3.85,3.37-6.79-.57-9.94-1.11-19.88-1.61-29.83-.12-2.29-1.29-2.56-3.17-2-7.86,2.33-15.61,1.67-23.26-.98-2.22-.77-5.03-1.31-4.63-4.43.41-3.2,3.23-2.91,5.6-2.92,7.81-.04,15.28-1.47,22.26-5.14,2.03-1.06,3.12-2.49,3.15-4.87.12-8.58.31-17.16.56-25.74.07-2.48-.78-3.15-3.18-2.42-10.97,3.34-20.82.62-29.94-5.78-1.64-1.15-3.01-2.56-1.94-4.67,1.07-2.11,3.03-2,4.89-1.18,9.71,4.3,19.02,2.97,28.18-1.77,2-1.04,3.11-2.29,3.62-4.59,1.53-6.92,3.38-13.77,5.08-20.65.16-.63.19-1.29.31-2.2-3.26,0-6.29.11-9.31-.02-8.96-.4-16.95-3.56-23.97-9.03-1.05-.82-1.85-2.95-1.58-4.22.44-2.06,2.52-2.19,4.4-1.72,1.81.46,3.6,1.05,5.41,1.52,9.78,2.53,19.56,2.79,29.07-.98,2.44-.97,5.07-2.65,6.5-4.76,6.11-8.97,13.53-16.68,21.52-23.92.78-.71,1.9-1.04,2.86-1.54-.32-.37-.64-.73-.96-1.1-.36.02-.75-.03-1.08.08-8.77,2.81-17.69,2.6-26.65,1.26-2.14-.32-4.28-.73-6.41-1.1-2.1-.36-4.01-1.15-3.8-3.67.21-2.54,2.31-2.89,4.39-2.98,2.86-.13,5.76.02,8.56-.43,6.3-1.02,12.69-1.89,18.8-3.65,6.68-1.92,12.22-5.98,15.95-12.03.84-1.36,1.6-3.14,1.49-4.65-.52-6.66-1.35-13.29-2.13-19.93-.08-.67-.59-1.29-.9-1.93.29.44.58.89.86,1.33-3.81,3.1-7.53,6.33-11.46,9.29-12.37,9.31-26.79,11.42-41.72,11.57-.29,0-.68.04-.86-.13-.88-.81-2.27-1.61-2.4-2.55-.13-.95.77-2.46,1.66-3.04,1.18-.76,2.78-.9,4.22-1.22,8.69-1.92,17.21-4.3,25.14-8.51,9.89-5.25,15.88-13.35,18-24.28.21-1.08-.35-2.53-1.04-3.45-.3-.39-1.95-.08-2.8.32-7.29,3.5-14.49,7.17-21.8,10.62-5.84,2.76-12.07,3.6-18.48,2.86-8.96-1.04-17.7-2.93-25.96-6.71-1.57-.72-3.24-1.23-4.83-1.83-.37.57-.64.8-.67,1.05-1.06,8.26-5.63,14.88-10.27,21.37-4.63,6.48-11.13,10.15-19.05,11.32-23.95,3.53-49.78-9.93-62.34-32.39-8.01-14.32-11.28-29.54-9.44-45.87,1.74-15.44,4.98-30.39,14.09-43.42,1.23-1.77.23-2.91-.7-4.21-4.37-6.13-7.98-12.52-9.17-20.18-1.17-7.51-1.71-14.84.67-22.22,6.68-20.77,27.98-31.63,48.07-30.49,6.95.4,13.76.58,20.58-.93,1.92-.43,3.9-.63,5.86-.79,13.61-1.1,26.45,1.77,38.8,7.41,1.49.68,4.06,1.11,5.08.32,5.5-4.3,11.76-5.51,18.2-4.19,18.72,3.84,35.34,11.25,45.34,28.92,1.77,3.13,2.3,3.08,4.53.33,4.53-5.59,9.13-11.12,13.69-16.68.42-.51.74-1.08,1.41-2.06-1.39-.23-2.4-.41-3.41-.55-4.1-.58-8.24-.96-12.26-1.86-1.16-.26-2.87-2.19-2.72-3.1.2-1.23,1.79-2.45,3.07-3.21.93-.55,2.31-.31,3.48-.5,6.9-1.12,13.85-2.03,20.67-3.52,2.21-.48,4.63-2.07,6.02-3.87,6.96-9.06,10.41-19.38,9.92-30.89-.02-.53-.22-1.05-.48-2.23-1.02,1.28-1.71,2.05-2.31,2.89-4.26,6.05-10.03,10.26-16.54,13.55-1.82.92-3.74,1.22-4.94-.84-1.12-1.93.12-3.35,1.59-4.54.15-.12.31-.25.47-.36,10.18-7.21,14.39-17.49,15.79-29.53,1.23-10.61-2.99-18.14-11.57-23.75-1.42-.93-2.94-1.73-4.82-2.82-.07,1.27-.25,1.87-.11,2.38,2.49,8.8,1.62,17.6.08,26.4-.41,2.35-.34,5.48-3.75,5.44-3.67-.05-3.26-3.3-3.56-5.76-.95-7.95-1.9-15.89-5.86-23.07-1.97-3.57-4.65-6.47-8.52-7.85-3.87-1.38-7.86-2.41-11.83-3.48-.81-.22-1.76-.02-2.63.12-7.49,1.22-14.98,2.47-22.47,3.74-.73.12-1.42.44-2.44.76.82,1.15,1.45,2.01,2.05,2.87,6.13,8.78,5.31,18.82-.21,27.5-.61.96-2.62,1.81-3.65,1.52-1.02-.29-1.72-2.02-2.34-3.24-.27-.53,0-1.35.05-2.04.89-13.18-7.25-22.64-20.39-23.66-5.5-.43-11.02-.65-16.52-1.18-2.6-.25-3.35.54-2.93,3.1.89,5.43-.68,10.34-3.58,14.9-1.06,1.66-2.32,3.13-4.54,2.43-2.2-.69-2.49-2.55-2.35-4.56.1-1.38.25-2.76.17-4.13-.41-6.75-2.62-12.69-8.9-16.04-6.59-3.51-13.42-6.58-20.16-9.83-.13-.06-.36.09-.7.18-.06.4-.17.86-.2,1.32-.41,5.49-.74,10.99-1.23,16.47-.19,2.08-1.08,4.06-3.52,4.04-2.64-.02-3.25-2.14-3.48-4.34-.06-.59-.14-1.18-.23-1.76-1.75-11.2-4.21-22.12-12.01-30.98-.5-.57-.8-1.36-1.03-2.1-2.03-6.46-7.95-11-14.93-11.41-3.11-.18-3.17.21-2.88,3.32.59,6.45.94,12.93,1.15,19.4.07,2.03-.33,4.18-1.05,6.08-.4,1.04-1.99,2.39-2.89,2.29-1.13-.13-2.27-1.48-3.08-2.55-.46-.61-.3-1.71-.4-2.59-.79-7.51-2.25-14.87-6.14-21.45-.87-1.48-2.77-2.81-4.46-3.26-5.8-1.54-11.7-2.66-17.57-3.94-.71-.15-1.43-.26-2.63-.48.5,1.48.93,2.45,1.17,3.47,1.36,5.64,2.74,11.28,3.98,16.95.41,1.86-.09,3.68-2.2,4.28-2.11.6-3.33-.72-4.12-2.49-1.21-2.7-2.2-5.51-3.6-8.11-2.56-4.77-5.1-9.58-8.11-14.05-2.73-4.05-5.6-4.49-10.3-3.49-2.3.49-4.93.41-7.2-.2-3.62-.97-6.46-.12-8.82,2.49-1.51,1.67-2.97,3.49-3.99,5.48-2.98,5.78-5.75,11.66-8.57,17.52-.87,1.81-1.97,3.44-4.22,2.88-2.45-.61-2.74-2.74-2.26-4.77,1.34-5.75,2.86-11.45,4.3-17.17.2-.8.4-1.6.7-2.8-1.23.28-1.97.45-2.7.61-5.77,1.25-11.58,2.35-17.29,3.83-1.62.42-3.68,1.63-4.28,3.02-2.12,4.95-3.87,10.09-5.39,15.26-.82,2.81-.63,5.91-1.42,8.73-.33,1.19-1.92,2.64-3.09,2.8-.9.12-2.2-1.48-3.03-2.54-.48-.62-.4-1.7-.53-2.57-1.15-7.59-.93-15.14.79-22.64.69-3.03.26-3.49-2.84-3.3-6.91.42-12.86,5.04-14.93,11.45-.35,1.09-1.1,2.06-1.75,3.04-1.3,1.96-2.84,3.79-3.97,5.84-4.49,8.17-6.48,17.1-7.65,26.26-.27,2.12-1.03,4.02-3.5,4.01-2.3,0-3.19-1.83-3.39-3.81-.51-4.99-.88-9.99-1.28-14.99-.08-1.02-.01-2.05-.01-3.42-.91.31-1.37.41-1.78.61-6.02,2.93-12.14,5.66-18,8.9-2.57,1.42-4.99,3.55-6.76,5.9-3.23,4.28-3.74,9.44-3.28,14.69.17,1.99-.05,3.92-2.22,4.65-2.34.79-3.64-.82-4.74-2.58-2.79-4.51-4.27-9.37-3.39-14.66.47-2.83-.46-3.41-3.1-3.15-5.39.53-10.81.76-16.22,1.14-12.95.91-21.39,10.44-20.64,23.27.04.69.33,1.49.08,2.05-.6,1.32-1.22,3.26-2.26,3.59-1.04.33-3.12-.63-3.86-1.66-5.8-8.04-5.62-19.41.19-27.52.59-.82,1.13-1.68,1.95-2.92-1.51-.31-2.44-.52-3.39-.68-6.03-1.01-12.09-1.85-18.09-3.03-7.5-1.48-14.03,1.53-20.55,4.3-1.85.79-3.52,2.67-4.58,4.47-1.79,3.03-3.54,6.25-4.37,9.62-1.42,5.72-2.14,11.62-3.12,17.44-.34,2.01-1.03,3.74-3.4,3.74-2.17,0-3.04-1.58-3.38-3.48-1.66-9.27-2.8-18.55-.32-27.87.18-.68.02-1.44.02-3.11-2.99,2.04-5.53,3.48-7.74,5.33-4.9,4.1-8.72,8.95-8.74,15.76-.04,14.22,3.83,26.7,16.04,35.39,1.61,1.14,3.03,2.61,1.79,4.7-1.31,2.22-3.31,1.69-5.2.71-6.39-3.31-12.04-7.51-16.24-13.46-.53-.75-1.21-1.4-2.21-2.52-.21,1.18-.37,1.72-.38,2.26-.14,9.92,2.3,19.03,7.69,27.49,2.76,4.33,6.09,7.11,11.13,7.84,6.83.98,13.66,1.97,20.49,2.92,2.02.28,3.82.95,3.89,3.27.07,2.32-1.69,3.2-3.68,3.51-3.6.56-7.22,1.01-10.84,1.52-1.2.17-2.4.37-3.88.6.4.73.54,1.1.77,1.39,4.88,5.94,9.76,11.87,14.65,17.81,1.73,2.1,2.53,2.12,3.88-.34,9.61-17.52,25.94-24.96,44.22-29.18,6.26-1.45,12.73-1.02,18.11,3.13,2.49,1.92,4.41,1.67,6.97.48,15-6.97,30.58-9.25,47.01-6.17,5.24.98,10.79.86,16.15.54,5.79-.35,11.41-.21,16.94,1.63,6.83,2.27,13.78,4.22,19.34,9.21,13.09,11.73,17.94,26.01,13.64,43.22-.6,2.38-.67,5-1.76,7.12-2.15,4.19-4.77,8.16-7.34,12.12-.97,1.5-1.16,2.57-.12,4.23,2.34,3.75,4.64,7.58,6.39,11.63,5.06,11.73,7.38,24.14,7.83,36.85.83,23.14-6.97,42.81-24.64,58.05-13.55,11.7-29.18,17.41-47.3,14.76-5.49-.8-10.6-2.66-14.64-6.53-7.26-6.96-12.41-15.24-14.71-25.14-.14-.62-.42-1.22-.71-2.04-1.22.41-2.27.65-3.23,1.09-8.51,3.88-17.44,6.18-26.72,7.31-6.62.81-13.04.22-19.1-2.59-7.33-3.41-14.53-7.1-21.82-10.59-.95-.45-2.77-.93-3.05-.55-.74.98-1.34,2.53-1.12,3.69,2.41,12.58,9.99,21.16,21.63,25.78,7.66,3.03,15.76,4.95,23.69,7.28,2.04.6,4.01,1.27,3.7,3.77-.31,2.51-2.44,2.84-4.54,2.7-4.62-.31-9.28-.44-13.85-1.11-14.58-2.12-27.26-7.76-36.04-20.27-.21-.3-.57-.49-1.32-1.11ZM601.03,350.17c.75-1.21,1.33-2.07,1.83-2.97,7.53-13.5,14.2-27.32,15.7-43.04.19-1.99.97-3.83,3.37-3.74,2.38.09,2.9,1.97,3.13,3.96,1.27,11,.23,21.76-4.5,31.83-3.47,7.39-7.44,14.56-11.63,21.57-1.6,2.68-2,4.74-.21,7.23.46.64.85,1.34,1.14,2.07.89,2.2,2.25,2.33,3.84.83,5.23-4.92,10.69-9.63,15.54-14.9,4.23-4.59,6.75-10.43,6.76-16.69.02-7.75-.48-15.54-1.42-23.24-2.49-20.26-10.44-38.33-22.94-54.39-5.8-7.45-13.39-12.14-22.85-13.47-2.38-.34-4.98-.65-4.72,3.17.03.44-.22,1.05-.56,1.33-1.88,1.6-2.08,3.45-1.58,5.81.22,1.02-.66,2.87-1.57,3.37-.91.5-2.64.07-3.73-.49-1.08-.55-1.91-1.69-2.7-2.69-7.63-9.59-17.82-14.82-29.73-15.85-18.73-1.61-37.4-.75-55.78,3.81-8.59,2.13-15.36,6.92-21.23,13.28-2.52,2.73-3.79,5.91-3.92,9.63-.07,2.1.31,3.08,2.8,2.67,11.82-1.95,23.58-1.63,35.21,1.42,2.01.53,2.72-.06,2.61-2.11-.19-3.45-.5-6.92-.24-10.34.1-1.36,1.39-3.38,2.52-3.68,1.1-.3,3.29.86,3.96,2,2.94,4.97,4.95,10.34,4.74,16.25-.07,2,.7,3.04,2.45,3.86,3.57,1.68,7.1,3.45,10.54,5.37,2.07,1.15,2.91.81,3.38-1.54,1.24-6.19,2.67-12.34,3.99-18.51.47-2.17,1.28-4.16,3.83-4.15,2.56,0,3.3,2.08,3.84,4.19,2.17,8.54,2.07,17.01-.96,25.33-.74,2.02-.39,3.26,1.38,4.5,3.23,2.26,6.3,4.74,9.46,7.1.74.55,1.56,1,2.71,1.72.71-2.18,1.27-3.94,1.87-5.68,2.44-7.08,4.85-14.17,7.35-21.22.67-1.88,1.94-3.32,4.18-3.05,2.43.29,3.21,2.16,3.36,4.23.19,2.74.39,5.53.12,8.26-.78,7.87-4.41,14.68-8.56,21.2-1.17,1.84-.94,2.81.57,4.21,5.2,4.83,10.27,9.8,15.4,14.71.68.65,1.41,1.24,2.53,2.22,1.03-2.06,2.14-3.62,2.61-5.35,2.78-10.16,5.41-20.36,8.08-30.55.59-2.24.57-5.26,3.8-5.07,3.43.19,3.08,3.28,3.28,5.68,1.2,14.55-1.93,28.02-9.97,40.3-.59.9-.98,2.68-.5,3.4,3.54,5.32,7.33,10.47,11.43,16.22ZM233.74,325.35c.83-.45,1.13-.54,1.33-.74,5.77-5.52,11.52-11.07,17.32-16.55,1.23-1.17.8-1.99.16-3.31-2.8-5.73-5.97-11.39-7.85-17.44-1.26-4.07-.87-8.75-.67-13.14.12-2.81,2.68-4.35,4.74-3.21,1.18.65,2.3,1.97,2.76,3.24,2.71,7.5,5.22,15.08,7.81,22.63.4,1.18.88,2.34,1.48,3.93,3.93-2.92,7.46-5.73,11.19-8.24,2.44-1.64,2.97-3.23,1.94-6.12-2.88-8.12-2.77-16.46-.66-24.78.51-2.03,1.39-3.84,3.84-3.79,2.28.04,3.15,1.72,3.62,3.68.16.67.32,1.34.47,2.02,1.26,5.68,2.55,11.36,3.74,17.05.43,2.08,1.22,2.65,3.22,1.55,3.36-1.86,6.77-3.67,10.27-5.24,2.1-.94,2.95-2.17,2.86-4.51-.21-5.8,1.89-11.06,4.69-15.97.61-1.07,2.79-2.21,3.75-1.88,1.19.41,2.33,2.21,2.66,3.61.44,1.87.07,3.92.06,5.89,0,2.23,0,4.46,0,6.79.58.04.99.18,1.33.09,12.21-3.18,24.53-3.66,36.96-1.55,1.67.28,2.08-.56,2.11-1.98.09-4.04-1.25-7.49-3.98-10.5-6.49-7.18-14.37-11.72-23.84-13.94-15.23-3.57-30.72-3.82-46.17-3.69-14.69.12-27.67,5-37.18,16.98-.61.77-1.25,1.72-2.09,2.05-1.25.5-3.03,1.13-3.97.6-.93-.53-1.64-2.47-1.49-3.68.24-1.96.57-3.58-1.24-5.02-.6-.47-.99-1.58-.98-2.38.04-2.34-1.19-2.89-3.18-2.66-1.17.13-2.37.16-3.52.42-9.16,2.07-16.27,7.15-21.89,14.61-15.68,20.76-22.43,44.52-23.63,70.11-.41,8.63,1.77,16.76,7.62,23.35,3.91,4.41,8.25,8.48,12.67,12.39,4.67,4.12,4.73,3.91,7.82-1.58,1.22-2.17,1.29-3.89-.26-5.93-1.73-2.27-3.2-4.74-4.64-7.21-8.34-14.33-14.14-29.33-12-46.39.27-2.15.54-4.39,3.3-4.43,2.56-.03,3.15,2.1,3.35,4.13,1.58,16.14,8.75,30.17,16.47,44.01.26.47.75.83,1.37,1.5.73-1.06,1.33-1.92,1.93-2.79,2.76-3.97,5.39-8.03,8.32-11.86,1.44-1.88,1.54-3.29.24-5.26-4.69-7.07-8.2-14.74-9.14-23.2-.7-6.33-.55-12.77-.44-19.16.02-1.13,1.81-3.19,2.66-3.13,1.25.09,2.59,1.55,3.51,2.72.6.77.47,2.08.75,3.13,2.51,9.62,4.97,19.26,7.63,28.85.56,2.01,1.83,3.83,2.87,5.94ZM252.82,340.11c-1.24,1.36-2.27,2.39-3.2,3.51-8.33,9.98-15.04,20.96-20.49,32.74-1.62,3.5-1.41,3.97,2.53,4.26,8.87.66,17.48-.89,25.96-3.36,6.15-1.79,12.29-3.61,18.42-5.46,2.23-.67,4.2-.56,5.25,1.81,1.83,4.13,3.53,8.32,5.29,12.49,1.73,4.08,3.35,8.2,5.23,12.21,2,4.25,5.47,6.2,10.21,6.19,26.18-.06,48.25-17.2,50.72-45.98,1.39-16.18-3.93-31.12-10.34-45.66-.32-.73-1.64-1.55-2.39-1.45-2.57.33-4.83.14-6.05-2.43-1.22-2.56.26-4.41,1.82-6.35,2.99-3.72,5.77-7.61,9.16-12.13-14.46,1.23-26.5,6.78-39.32,11.84,4.83,4.93,6.65,10.25,6.77,16.15.13,6.32-1.19,12.34-4.13,17.97-2.73,5.23-6.79,9.15-12.51,10.57-7.44,1.85-14.98,3.52-22.57,4.48-8.34,1.05-15.09-2.07-19.17-9.85-.22-.42-.57-.76-1.17-1.54ZM472.27,290.58c-.17.26-.33.53-.5.79,3.05,3.98,6.06,7.98,9.16,11.91,1.47,1.85,2.28,3.76,1.06,5.97-1.15,2.09-3.13,2.71-5.33,2.14-1.77-.46-2.55.34-3.15,1.77-5.82,13.8-10.92,27.86-10.11,43.12,1.45,27.37,19.14,44.93,45.68,48.03,10.69,1.25,13.44-.77,17.66-10.7,2.66-6.25,5.03-12.61,7.58-18.91,1.27-3.15,2.59-3.79,5.72-2.88,6.25,1.82,12.48,3.7,18.73,5.49,8.58,2.46,17.29,4.05,26.27,3.24,3.24-.29,3.48-.8,2.17-3.69-5.65-12.36-12.67-23.85-21.47-34.23-.74-.87-1.11-2.05-1.75-3.29-1.25,1.47-1.56,1.73-1.73,2.06-4.41,8.59-11.78,11.23-20.8,10-5.85-.8-11.71-1.81-17.43-3.26-18.69-4.74-26.76-28.79-14.96-44.2.33-.43.49-.98.92-1.86-12.43-4.84-24.37-10.42-37.7-11.51ZM672.05,86.93c.24-.3.47-.59.71-.89-4.54-8.72-8.89-17.54-13.66-26.13-6.9-12.42-17.15-21.48-29.52-28.26-7.98-4.38-16.41-5.18-25.25-3.63-4.28.75-6.55,3.79-8.57,7.1-.37.61-.14,2,.34,2.66,5.84,8.18,11.14,16.85,17.83,24.28,8.63,9.58,18.98,17.19,31.92,20.42,2.96.74,6.18,1.24,8.7,2.79,5.76,3.55,11.71.85,17.51,1.66ZM143.56,86.69c4.52.23,8.62.45,12.72.61.56.02,1.14-.27,1.7-.46,4.83-1.66,9.68-3.28,14.49-5.01,3.23-1.16,6.66-2.06,9.57-3.81,11.33-6.82,21.41-15.08,28.73-26.33,3.01-4.62,6.2-9.13,9.18-13.78.49-.77.81-2.24.41-2.9-2.2-3.59-4.85-6.49-9.5-7.2-9.57-1.46-18.27.37-26.71,5.1-21.32,11.93-31.09,32.41-40.58,53.78ZM290.35,82.86c.16.32.31.63.47.95,6.21-2.33,12.53-2.44,18.94-1.63.47.06,1.44-.79,1.53-1.32.76-4.85,3.78-8.44,6.79-11.92,8.37-9.67,18.31-17.25,31.57-17.64,6.57-.19,10.54-2.66,13.59-7.89.99-1.7,2.35-3.2,3.19-4.97.49-1.03.71-2.55.33-3.58-3.77-10.05-10.83-17.07-20.63-21.21-8.75-3.7-16.1-1.49-20.8,6.75-5.9,10.35-11.54,20.88-16.59,31.66-4.32,9.24-9,18.18-15.13,26.34-1.1,1.47-2.18,2.96-3.27,4.45ZM526.07,83.38c-.98-1.42-1.54-2.32-2.18-3.15-6.71-8.71-11.94-18.23-16.56-28.23-4.95-10.72-10.62-21.13-16.42-31.42-4.69-8.32-12.24-10.64-20.99-6.9-9.78,4.19-16.81,11.23-20.58,21.26-.38,1.01-.18,2.62.39,3.55,1.9,3.1,4.04,6.06,6.19,9.01,1.8,2.47,4.2,3.67,7.38,3.51,2.24-.11,4.56.06,6.76.49,13.45,2.63,23.32,10.59,31.05,21.46,1.66,2.33,2.37,5.32,3.74,7.89.36.67,1.62,1.32,2.37,1.23,5.76-.68,11.41-.48,16.97,1.27.34.11.74.01,1.87.01ZM724.03,217.04c.2-.31.51-.6.58-.94,1.35-6.25,4.83-11.4,8.52-16.42,5.49-7.46,11.14-14.81,16.58-22.31,3.57-4.91,5.41-10.4,5.21-16.61-.65-20.7-19.83-40.77-40.48-42.18-.82-.06-1.66.07-2.27.1.71,6.19,1.8,12.02,1.96,17.88.23,8,2.33,15.24,6.17,22.25,3.39,6.18,6.87,12.39,7.77,19.67,1.39,11.25-1.34,21.5-6.71,31.26-2.36,4.29-2.16,4.7,2.66,7.3ZM91.99,217.23c4.99-3.18,4.97-3.17,2.67-7.64-1.17-2.28-2.35-4.57-3.31-6.94-4.92-12.2-5.29-24.36.57-36.39,1.81-3.72,3.69-7.41,5.65-11.05,2.56-4.78,3.77-9.86,4.2-15.27.51-6.47,1.52-12.89,2.3-19.34.07-.56.08-1.12.13-1.92-1.31,0-2.47-.09-3.61.01-10.05.93-17.56,6.91-25.37,12.5-12.24,8.77-20.51,32.89-7.27,48.55.63.75,1.17,1.59,1.73,2.4,7.92,11.3,18.45,20.92,22.31,35.09ZM234.71,92.1c2.64,1.77,4.79,3.91,7.36,4.71,2.2.68,5.27.56,7.27-.5,5.38-2.84,10.34-6.47,15.57-9.62,13.16-7.94,23.08-19.02,30.92-32.02,4.47-7.42,8.41-15.17,12.64-22.74,2.57-4.6,1.42-8.16-3.7-9.55-8.62-2.35-16.77-1.4-23.24,5.37-2.97,3.11-5.63,6.64-7.83,10.34-5.02,8.48-9.61,17.22-14.48,25.79-4.94,8.7-10.52,16.94-18.21,23.5-1.84,1.57-3.88,2.92-6.29,4.73ZM580.58,92.58c-5.17-5.31-10.86-9.81-14.8-15.52-6.59-9.53-11.96-19.89-18.06-29.78-4.02-6.52-7.92-13.22-12.78-19.09-6.05-7.3-14.53-8.17-23.28-5.93-5.37,1.38-6.62,5.08-3.89,9.9,3.6,6.33,7.22,12.65,10.69,19.06,8.15,15.05,19.16,27.35,33.98,36.12,4.49,2.66,9.04,5.26,13.21,8.36,3.07,2.28,6.1,2.26,9.13.91,2.27-1.01,4.16-2.86,5.8-4.03ZM671.79,320.89c1.02-1.28,1.6-2.14,2.3-2.88,4.56-4.74,8.63-10.14,13.82-14.05,10.64-8,18.19-18.15,23.81-30,5.78-12.19,8.73-24.91,6.98-38.42-.42-3.27-1.4-6.55-2.65-9.61-1.07-2.62-2.27-2.49-3.91-.26-6.36,8.64-12.94,17.13-19.08,25.93-3.47,4.97-6.78,10.18-9.19,15.71-3.43,7.87-3.13,16.8-6.98,24.8-2.4,5-3.72,10.52-7.35,14.96-.58.71-1.28,1.84-1.1,2.56.9,3.58,2.07,7.08,3.34,11.24ZM143.56,320.81c.31-.19.63-.38.94-.57,1.07-3.53,2.21-7.05,3.16-10.61.16-.6-.3-1.55-.75-2.12-6.47-8.34-9.65-18.18-11.6-28.22-2.2-11.36-6.56-21.26-14.03-30.14-6.14-7.3-11.44-15.31-17.05-23.05-1.98-2.73-3.38-2.81-4.51.48-1.26,3.69-2.37,7.61-2.51,11.47-.94,25.49,8.63,46.55,27.84,63.1,6.45,5.56,12.95,10.94,17.81,18.01.33.48.47,1.1.69,1.65ZM64.32,299.49c-.25.11-.49.23-.74.34.82,6.02,1.93,12.02,2.4,18.07.85,11.07,1.59,22.16,1.86,33.26.15,6.28,2.05,11.32,7,15.19,4.81,3.76,10.26,6.18,16.08,7.9,7.95,2.35,15.77,5.05,22.62,9.94.35.25.86.28,1.26.39.66-2.52,1.04-4.98,1.97-7.21.77-1.84.38-2.62-1.29-3.41-6.2-2.94-10.83-7.65-13.69-13.79-2.4-5.15-4.86-10.48-5.9-15.99-1.31-6.9-2.48-13.6-6.99-19.27-2.79-3.51-5.08-7.48-8.19-10.67-4.74-4.86-9.99-9.21-15.03-13.77-.41-.37-.9-.65-1.35-.98ZM752.53,299.61c-.85.14-1.1.1-1.22.21-9.12,8.85-20.51,15.63-25.72,28.08-.23.54-.54,1.09-.95,1.49-2.42,2.37-2.78,5.36-3.28,8.56-2.33,14.91-6.68,28.75-21.41,36.44-.53.28-1.14,1.28-1.01,1.77.71,2.81,1.62,5.57,2.49,8.41.23-.04.57,0,.78-.16,7.5-5.41,16.26-7.85,24.81-10.88,4.86-1.72,9.54-4.24,13.89-7.03,5.38-3.45,7.62-8.81,7.31-15.25-.57-11.85.56-23.61,2.18-35.33.74-5.34,1.39-10.7,2.12-16.3ZM110.15,302.74c-.35.4-.66.66-.84.99-.34.6-.68,1.22-.88,1.87-4.51,14.72-6.07,29.39-.72,44.39,3.9,10.95,11.12,17.11,22.6,18.41,6.68.76,12.79,3.15,18.53,6.59.68.41,1.43.69,2.15,1.04-.1-1.41-.6-2.34-1.08-3.28-4.13-8.05-7.5-16.36-7.53-25.58-.02-4.99-1.43-9.51-3.7-13.85-6.67-12.71-16.95-22.07-28.53-30.58ZM664.72,375.81c.77-.06,1.11.01,1.31-.12,7.01-4.56,14.83-6.62,23.01-7.95,8.74-1.42,14.59-6.55,18.14-14.79,6.8-15.8,5.4-31.56.48-47.4-.32-1.04-1.09-1.93-1.74-3.06-2.95,2.48-5.47,4.84-8.23,6.87-8.19,6.02-14.43,13.76-19.27,22.53-2.19,3.95-4.14,8.57-4.35,12.97-.49,10.03-3.3,19.17-7.87,27.93-.47.9-.89,1.83-1.47,3.02ZM187.27,90.41c.25.34.5.67.75,1.01,1.01-.26,2.02-.53,3.03-.78,3.64-.88,7.25-2.27,10.92-2.5,6.98-.43,13.36-2.65,19.96-4.68,10.9-3.34,19.23-9.64,25.04-19.09,6.65-10.82,12.67-22.03,19-33.05.92-1.61.5-2.66-1.17-3.17-1.31-.4-2.67-.73-4.03-.85-9.96-.92-18.71,1.92-25.27,9.54-5.26,6.1-10.19,12.56-14.61,19.3-8.7,13.27-18.95,24.94-32.19,33.83-.4.27-.95.3-1.43.45ZM628.82,91.64c-.5-.84-.55-1.07-.69-1.16-14.59-9.65-25.48-22.68-34.85-37.27-3.97-6.18-8.65-12.01-13.66-17.38-7.03-7.54-16.18-9.78-26.24-8.26-3.96.6-4.41,1.6-2.55,4.99,4.87,8.89,10.04,17.64,14.68,26.65,8.17,15.87,22.48,23.02,38.51,27.91.83.25,1.76.16,2.63.31,6.19,1.07,12.37,2.16,18.55,3.27,1.03.19,2.03.53,3.61.95ZM50.83,295c0-4.97.63-9.67-3.76-13.37-4.33-3.64-7.97-8.23-8.35-14.19-.63-9.75.67-19.32,4.93-28.22,1.14-2.39,1.27-4.09-.36-6.16-1.51-1.91-2.34-5.08-4.2-5.8-1.85-.71-4.6.97-6.97,1.54-6.96,1.65-11.58-.3-15.21-6.47-1.2-2.04-2.18-4.2-3.29-6.28-.38-.72-.87-1.37-1.45-2.28-2.51,2.36-2.44,5.09-2.46,7.68-.03,7.29-.31,14.62.26,21.87.63,7.92,1.59,15.88,3.35,23.61,1.65,7.24,6.57,12.62,13.86,14.51,9.17,2.37,17.83,5.18,23.66,13.58ZM804.78,213.96c-.38.04-.76.08-1.15.12-1.61,3.01-3.08,6.11-4.88,9-3.32,5.34-7.74,7.17-13.89,5.89-2.12-.44-4.14-1.3-6.26-1.74-.77-.16-2.05.1-2.45.64-1.61,2.23-3.07,4.59-4.37,7.02-.39.73-.42,2.05,0,2.75,4.22,7.13,4.79,15.16,5.8,23.07.9,7.08-1.08,13.27-6.07,18.44-1.1,1.14-2.03,2.47-3.25,3.43-4.18,3.28-2.79,7.86-3.05,12.19,1.4-.92,2.46-2.04,3.47-3.19,3.97-4.53,8.82-7.5,14.81-8.56,1.74-.31,3.45-.84,5.13-1.39,6.36-2.1,10.95-6.22,13.4-12.47,1.11-2.83,1.96-5.8,2.56-8.78,2.74-13.67,1.28-27.53,1.64-41.31.04-1.69-.94-3.41-1.45-5.11ZM129.29,146.17c-.94,0-1.23-.05-1.5.01-.38.09-.76.23-1.11.41-10.29,5.13-18.93,12.24-24.68,22.25-6.13,10.67-5.37,21.82-.4,32.68,2.44,5.33,6.17,10.08,8.53,15.45,3.86,8.79,9.51,16.31,15.42,23.7,5.62,7.03,11.06,14.14,13.79,22.9.11.34.41.61.69,1.01.3-.33.55-.5.64-.73,1.69-4.51,3.48-8.98,4.96-13.56.31-.95-.21-2.52-.89-3.36-2.23-2.75-4.75-5.27-7.08-7.94-22.39-25.63-24.95-54.19-12.41-84.92,1.06-2.6,2.56-5.03,4.04-7.9ZM675.92,264.82c.46-.79.77-1.14.91-1.55,2.47-7.53,6.91-13.87,11.68-20.08,4.97-6.48,9.7-13.16,14.33-19.9,1.59-2.32,2.51-5.1,3.81-7.64,3.29-6.46,7.43-12.63,9.76-19.41,3.95-11.5,2.23-22.56-5.56-32.33-5.61-7.04-12.35-12.7-20.38-16.79-.88-.45-1.88-.67-3.34-1.17.36,1.08.43,1.58.67,1.97,9,14.43,10.81,30.43,10.29,46.94-.22,6.98-1.64,13.67-4.36,20.11-4.6,10.85-11.16,20.42-19.45,28.71-3.39,3.4-4.88,6.25-1.95,10.84,1.82,2.86,2.34,6.55,3.6,10.31ZM184.67,115.9c-1.21-1.35-1.81-2.21-2.58-2.86-2.57-2.15-5.15-4.29-7.82-6.31-15.02-11.4-31.17-11.89-46.77-1.46-.41.27-.81.57-1.22.83-12.24,7.74-14.99,21.45-13.15,36.71,1.11-.66,2.08-1.25,3.05-1.83,7.49-4.43,15.02-8.71,24.11-8.85,1.08-.02,2.28-.65,3.2-1.31,10.94-7.92,23.16-12.52,36.5-14.28,1.25-.17,2.51-.33,4.69-.63ZM703.38,142.76c0-4.4.11-8.5-.02-12.6-.6-18.72-17.92-29.52-31.05-32.23-.38-.08-.79-.1-1.18-.1-10.63.18-20.86,1.68-29.37,8.9-2.56,2.17-5.22,4.21-7.78,6.37-.77.64-1.36,1.49-2.03,2.25.45.41.57.62.73.65.67.14,1.35.26,2.03.34,13.9,1.58,26.63,6.18,38.01,14.43,1.05.76,2.49,1.07,3.79,1.42,4.53,1.21,9.25,1.93,13.59,3.63,4.45,1.74,8.54,4.41,13.27,6.93ZM121.82,409.05c-.76-1.14-1.07-1.71-1.48-2.2-3.07-3.6-6.29-7.07-9.2-10.78-4.28-5.45-9.65-9.26-16.18-11.44-3.08-1.03-6.35-1.53-9.36-2.73-5.92-2.36-11.96-4.62-17.51-7.71-6.55-3.65-10.1-9.79-11.31-17.21-.82-5.04-1.14-5.33-6.36-5.37-.89,0-1.77.1-2.66.11-1.89.03-2.64.85-2.3,2.8.86,5.05,1.38,10.17,2.45,15.18,4.81,22.66,21.71,36.68,44.85,37.57,7.38.28,14.76.9,22.13,1.37,2.11.13,4.22.25,6.93.41ZM694.67,408.79c.71.08,1.19.21,1.65.19,11.12-.69,22.36-.57,33.32-2.29,17.1-2.68,29.94-12.03,36.17-28.61,2.36-6.29,3.15-13.21,4.29-19.9,1.14-6.68.47-7.13-6.36-6.5-2.78.25-4.09,1.26-4.36,4.3-.72,7.96-4.53,14.44-11.49,18.31-5.64,3.13-11.64,6.54-17.84,7.54-16.74,2.7-25.85,14.67-35.37,26.97ZM611.01,610.87c.34.1.68.21,1.02.31,3.03-8.08,8.87-14.06,15.13-19.4,13.19-11.26,19.77-25.87,22.37-42.48,1.51-9.63,2.07-19.4,3.04-29.11.08-.84.01-1.69.01-2.57-.62-.03-.92-.12-1.18-.04-.66.19-1.31.44-1.94.7-6.14,2.54-10.33,7.11-13.2,12.96-5.73,11.66-10.99,23.57-18.02,34.55-.78,1.22-1.43,2.65-1.71,4.07-1.54,7.7-3.23,15.38-4.31,23.14-.82,5.9-.83,11.91-1.2,17.86ZM204.45,610.92c.17-.22.34-.34.38-.51.07-.28.1-.59.08-.88-.72-9.78.01-19.73-3.26-29.24-.57-1.67-1.02-3.43-1.16-5.18-.39-4.75-2.34-8.85-4.6-12.96-4.11-7.5-7.73-15.27-11.87-22.75-3.08-5.57-6.4-11.05-10.11-16.21-2.32-3.21-6.11-4.72-10.23-5.92-.08,1.22-.23,1.99-.16,2.74,1.03,10.2,1.61,20.47,3.27,30.57,2.67,16.18,9.37,30.33,22.23,41.27,6.05,5.15,11.67,10.96,14.81,18.58.09.21.41.32.63.48ZM720.37,314.74c7.85-11.87,18.73-19.62,28.09-28.87,4.7-4.64,9.49-9.21,13.84-14.17,1.69-1.92,3.3-4.88,3.16-7.26-.32-5.36-1.7-10.66-2.76-15.97-.39-1.99-1.44-2.15-3.21-1.08-3.71,2.23-7.73,3.97-11.34,6.35-4.74,3.12-9.54,6.29-13.73,10.09-8.71,7.9-14.92,17.78-20.54,28.01-.45.83-.37,2.23,0,3.17,1.47,3.83,3.29,7.54,4.67,11.4.84,2.37,1.11,4.95,1.83,8.33ZM95.82,313.85c.23-.85.45-1.48.59-2.14,1.22-5.99,2.24-12.03,6.13-17.1.43-.56.07-2.07-.37-2.9-1.19-2.26-2.65-4.38-3.96-6.59-8.64-14.61-19.24-27.17-35.37-34.03-2.25-.96-4.32-2.38-6.34-3.77-1.64-1.14-2.57-.73-3.01,1.02-.81,3.25-1.4,6.56-2.3,9.78-1.81,6.46-.15,11.62,4.83,16.21,9.51,8.74,18.81,17.7,28.04,26.74,4.05,3.96,7.69,8.34,11.76,12.79ZM531.87,816.85c10.79,4.83,13.43,4.64,22.13-1.35,3.41-2.35,6.67-4.93,10.1-7.23,10.94-7.34,18.38-17.44,21.95-29.93,2.86-10.01,4.4-20.39,6.49-30.61.12-.6-.11-1.28-.2-2.15-1.67.21-3.13.59-4.57.53-3.04-.12-4.78,1.44-6.37,3.82-1.64,2.44-3.8,4.53-5.65,6.83-4.29,5.33-8.64,10.62-12.73,16.1-1.39,1.85-2.32,4.14-3.07,6.36-1.88,5.61-3.61,11.27-5.24,16.96-1.26,4.39-3.67,7.81-7.59,10.15-3.3,1.97-6.66,3.85-9.86,5.97-1.81,1.2-3.35,2.81-5.4,4.57ZM283.96,816.58c-1.8-1.53-3.31-3.07-5.07-4.23-3.21-2.11-6.56-4-9.87-5.96-4.13-2.45-6.56-6.06-7.83-10.67-1.44-5.23-2.95-10.45-4.77-15.55-1.08-3.02-2.45-6.1-4.37-8.64-4.59-6.09-9.59-11.87-14.41-17.78-1.12-1.37-2.26-2.74-3.32-4.16-2.27-3.07-6.81-4.55-10.95-3.37,1.75,14.79,3.99,29.48,11.21,42.87,3.4,6.3,7.75,11.92,13.51,16.26,5.04,3.79,10.26,7.35,15.34,11.09,6.53,4.81,13.14,5.16,20.52.13ZM363.43,858.88c-4.09-8.19-8.05-9.77-16.01-6.94-1.93.69-3.96,1.23-5.99,1.53-9.84,1.46-18.38-1.72-25.68-8.06-5.57-4.84-10.56-10.34-16-15.33-2.59-2.37-5.63-4.27-8.52-6.31-.41-.29-1.28-.46-1.63-.22-2.49,1.65-4.89,3.43-7.12,5.01,4.44,5.44,8.87,10.23,12.54,15.55,3.67,5.34,6.67,11.15,9.79,16.85,8.32,15.18,20.68,18.71,35.64,10.08.43-.25.85-.49,1.27-.76,6.83-4.41,13.07-9.93,21.71-11.41ZM452.79,858.71c1.98.63,3.91.92,5.48,1.82,5.2,2.97,10.45,5.92,15.38,9.31,14.78,10.17,28.82,7.02,37.48-8.64,1-1.81,1.94-3.65,2.89-5.49,4.76-9.28,10.75-17.65,18.22-24.96.53-.52.95-1.17,1.64-2.04-2.5-1.77-4.77-3.46-7.13-5-.44-.29-1.43-.23-1.88.08-2.89,2.03-5.9,3.95-8.5,6.31-5.97,5.43-11.38,11.53-17.66,16.55-9.15,7.31-19.55,9.22-30.86,5.07-7.3-2.68-11.29-.76-15.05,6.99ZM407.15,855.1l.77-1.06c-.49.58-.92,1.22-1.47,1.73-3.97,3.65-7.75,7.55-12.02,10.81-3.95,3.01-8.85,4.37-13.73,3-5.71-1.6-11.14-.24-16.63.56-2.18.32-4.21,1.61-6.42,2.5.47.89.54,1.24.75,1.38,5.92,4.07,11.59,8.57,17.84,12.04,7.18,3.98,14.04,2.4,18.35-3.74,3.48-4.95,6.93-7.97,13.91-7.6,5.46.29,9.01,1.59,11.72,5.95,5.6,9.02,13.63,8.89,20.71,4.9,5.8-3.27,11.07-7.5,16.55-11.34.34-.24.48-.77.87-1.43-6.12-3.85-13.06-4.9-19.41-3.68-8.29,1.59-14.94-.09-21.17-5.17-3.57-2.91-7.09-5.89-10.63-8.84ZM729.53,251.84c6.46-3.89,11.88-7.21,17.35-10.45,12.39-7.34,20.04-18.12,23.07-32.12,2.07-9.59-.23-18.17-6.73-25.56-.8-.91-1.79-1.65-2.84-2.62-.56.81-.9,1.27-1.2,1.75-3.69,5.93-6.8,12.34-11.2,17.68-7.93,9.63-13.94,19.99-15.9,32.41-.95,6.06-1.65,12.16-2.55,18.9ZM367.13,53.32c1.16.26,1.88.47,2.62.59,3.09.48,6.22.75,9.25,1.44,5.83,1.32,11.39,1.1,17.09-1.07,7.99-3.05,16.23-2.87,24.26.08,4.26,1.56,8.5,2.41,13.02,1.65,4.64-.78,9.29-1.45,13.93-2.2.45-.07.86-.36,1.3-.56-.06-.42,0-.79-.16-.98-4.98-6.09-9.85-12.28-15.09-18.14-1.28-1.42-3.91-2.56-5.76-2.36-4.33.49-8.56,1.87-12.83,2.89-2.45.59-4.9,1.62-7.35,1.62-2.13,0-4.43-.85-6.37-1.87-9.12-4.81-15.89-3.8-22.57,3.92-3.48,4.02-6.63,8.32-9.89,12.51-.51.65-.85,1.43-1.45,2.47ZM86.14,251.83c-.41-5.66-.44-10.84-1.25-15.9-.7-4.35-2.4-8.53-3.44-12.84-1.26-5.17-3.73-9.61-6.81-13.95-6.2-8.74-11.96-17.79-17.92-26.71-.26-.38-.63-.69-.9-.97-.36.09-.58.09-.73.2-.4.28-.81.57-1.14.93-5,5.37-8.46,11.53-8.33,19.03.29,17.44,8.74,30.25,23.14,39.49,5.13,3.29,10.3,6.53,15.46,9.78.39.24.82.41,1.92.94ZM781.13,216.81c.55.31.72.48.89.48,1.77.09,3.58.4,5.3.13,1.16-.18,2.74-.92,3.21-1.86,6.55-13.08,12.12-26.57,14.91-41,1.88-9.72-.35-18.33-7.9-25.31-4.56-4.21-8.67-8.9-13.17-13.17-2.77-2.63-5.87-4.94-8.89-7.3-.76-.59-1.78-.85-3.14-1.48.3,1.24.4,1.8.56,2.34,3.64,11.76,7.35,23.51,10.91,35.29,2.02,6.7,2.79,13.59.96,20.43-1.14,4.26-1.51,8.37-1.14,12.79.33,3.96-.39,8.04-.88,12.03-.27,2.21-1.04,4.36-1.6,6.62ZM35,217.22c-.15-.98-.17-1.56-.34-2.1-2.1-6.98-3-14.03-1.79-21.31.24-1.48-.12-3.16-.59-4.63-2.27-7.05-2.67-14.21-.65-21.28,3.59-12.59,7.56-25.07,11.37-37.6.26-.84.49-1.68.73-2.53-.27-.2-.54-.41-.81-.61-2.74,2.02-5.7,3.79-8.16,6.1-5.31,4.99-10.18,10.45-15.57,15.34-8.12,7.37-10.57,16.39-8.38,26.8,2.96,14.07,8.34,27.29,14.76,40.1.44.88,1.67,1.82,2.61,1.91,2.11.21,4.27-.1,6.82-.21ZM124.05,386.38c.5,2.25.89,5.21,1.83,7.98,3.33,9.83,8.69,18.5,15.54,26.26,5.68,6.43,12.95,9.76,21.3,11.09,2.29.37,2.64-.58,2.65-2.57,0-3.74-.16-7.55.53-11.19.94-4.99-.35-9.48-2.34-13.73-6.54-14.03-17.84-22.18-32.78-25.52-3.2-.72-5.26.55-6.18,3.76-.29,1.03-.31,2.13-.55,3.91ZM651.15,425.85h-.22c0,1.09.13,2.2-.03,3.26-.36,2.36.54,2.94,2.8,2.56,7.17-1.21,13.74-3.75,18.91-8.96,8.16-8.23,14.26-17.84,17.73-28.93,1.03-3.3,1.38-6.97,1.23-10.44-.17-3.84-2.84-5.45-6.54-4.57-13.45,3.2-24.26,10.06-30.99,22.55-2.85,5.3-4.91,10.68-3.63,16.9.51,2.49.5,5.09.72,7.63ZM55.73,331.61s.09-.01.14-.02c-.52-5.88-1-11.77-1.58-17.65-.09-.9-.51-2.4-1.04-2.53-4.52-1.11-6.6-4.9-8.96-8.16-4.39-6.08-9.76-10.32-17.28-11.87-2.44-.5-3.25,0-3.52,2.24-1.68,14.48-.37,28.54,6.19,41.76,2.75,5.54,7.21,7.68,13.35,7.09,3.52-.33,7.05-.57,10.58-.6,1.8-.01,2.19-.72,2.14-2.29-.07-2.66-.02-5.32-.02-7.98ZM760.6,341.48c4.04.29,7.86.44,11.64.88,7.13.83,11.49-1.3,14.6-7.83,6.21-13.03,7.43-26.82,5.8-40.98-.04-.39-.04-.96-.28-1.12-.74-.5-1.68-1.32-2.38-1.18-6.97,1.41-12.99,4.4-17.02,10.62-1.23,1.89-2.66,3.71-4.28,5.26-1.58,1.52-3.6,2.58-5.27,4.01-.72.62-1.42,1.63-1.52,2.53-.54,4.6-1.04,9.21-1.24,13.83-.21,4.68-.05,9.38-.05,13.97ZM669.63,453.43c2.55-.29,5.25-.8,7.96-.87,11.79-.32,21.52-5.16,30.45-12.63,6.51-5.45,9.27-12.22,9.9-20.3.15-1.91-.64-2.45-2.38-2.32-2.55.19-5.11.31-7.67.4-5.6.19-11.2.53-16.79.41-2.01-.04-3.16.45-4.52,1.86-4.5,4.65-8.98,9.37-13.96,13.46-2.27,1.86-3.05,3.05-2.68,6.09.54,4.4-.13,8.95-.3,13.91ZM146.82,452.99c.03-.24.15-.54.09-.8-1.15-5.04-1.83-10.06-.39-15.19.16-.57-.46-1.75-1.04-2.08-6.76-3.83-11.63-9.62-16.54-15.42-.68-.8-2.1-1.29-3.2-1.34-3.52-.15-7.06.1-10.59-.03-4.82-.17-9.63-.54-14.44-.82-1.35-.08-2.68-.12-2.5,1.87.59,6.46,1.77,12.62,6.54,17.6,11.43,11.93,25.61,16.69,42.07,16.21ZM775.12,175.84c-1.16-4.89-1.96-9.12-3.16-13.23-4.65-15.93-10.32-31.49-17.4-46.5-2.17-4.61-4.74-9.15-7.84-13.17-8.82-11.47-20.54-19.78-32.01-28.31-.18-.13-.53-.02-.87-.02-.05.32-.19.62-.12.87,2.04,7.52,3.9,15.09,6.21,22.53,1.8,5.81,5.68,9.9,11.38,12.48,11.87,5.38,20.69,13.95,25.74,26.11,3.93,9.46,6.23,19.3,6.46,29.6.02.96.39,2.31,1.08,2.8,3.09,2.21,6.35,4.17,10.53,6.85ZM41.45,175.51c3.87-2.44,7.06-4.34,10.1-6.45.63-.44,1.01-1.67,1.02-2.53.06-8.98,2.02-17.6,4.92-26.03,4.71-13.66,13.65-23.67,26.72-29.69,6.62-3.05,10.71-7.83,12.62-14.67,1.86-6.64,3.62-13.31,5.4-19.98.13-.49.02-1.05.02-2.02-1.16.75-2.02,1.19-2.76,1.78-5.7,4.54-11.39,9.11-17.07,13.68-10.28,8.27-18.04,18.38-22.75,30.78-1.08,2.85-2.57,5.56-3.57,8.44-4.62,13.4-9.17,26.83-13.64,40.29-.62,1.87-.64,3.95-1.02,6.41ZM181.59,518.25c.61-7.48-.64-14.21-5.21-20.19-2.58-3.38-6.19-6.14-7.06-10.71-.12-.66-1-1.16-1.52-1.75-3.72-4.16-7.78-8.08-11.08-12.56-3.39-4.6-7.69-7.27-13.12-8.2-6.89-1.18-6.67-1.09-6.14,5.93,1.14,15.14,9.25,26.01,20.77,34.88,1.22.94,2.69,1.77,4.17,2.14,7.27,1.8,14.16,4.23,19.18,10.46ZM634.03,518.5c.76-.47,1.13-.59,1.35-.85,4.23-5.08,9.85-7.54,16.09-9.29,3.11-.87,6.17-2.63,8.7-4.68,3.42-2.78,6.46-6.07,9.38-9.39,7.03-7.99,8.65-17.9,9.38-28.04.04-.6-1.03-1.85-1.55-1.84-7.06.21-13.21,2.2-17.74,8.24-3.4,4.53-7.46,8.57-11.21,12.84-.7.8-1.41,1.61-1.96,2.52-1.11,1.81-2,3.76-3.18,5.52-1.97,2.94-4.28,5.66-6.14,8.67-3.01,4.88-2.94,10.39-3.11,16.31ZM712.18,107.77c-2.55-8.42-4.93-16.52-7.46-24.56-1-3.19-2.17-6.35-3.53-9.4-5.94-13.31-16.62-21.47-29.71-26.85-2.29-.94-4.93-1.04-7.98-1.65.44,1.34.5,1.73.67,2.05,5.98,10.77,12.03,21.49,17.93,32.3,2.63,4.82,5.99,8.91,10,12.68,4.58,4.31,8.77,9.05,12.86,13.84,3.1,3.62,3.14,3.83,7.21,1.58ZM152.63,45.21c-3.14.67-5.72.83-7.98,1.76-13.4,5.5-24.3,13.9-30.05,27.66-2.12,5.07-3.39,10.48-5.19,15.69-1.86,5.38-3.89,10.71-5.83,16.06-.13.35-.15.73-.21,1.06,4.61,2.57,4.66,2.35,7.76-1.24,4.24-4.92,8.9-9.46,13.21-14.32,3.11-3.51,6.45-6.96,8.81-10.96,6.51-11.03,12.55-22.32,18.77-33.52.18-.32.24-.71.72-2.19ZM560.42,123c1.81.1,2.86.31,3.88.2,8.51-.95,17.05-1.73,25.51-3,8.56-1.28,17.05-3.03,25.56-4.61.85-.16,1.93-.32,2.44-.89,3.33-3.72,6.54-7.56,9.78-11.36.64.53.37.19.04.11-7.03-1.88-13.99-4.27-21.14-5.46-11.04-1.83-20.67.88-28.51,9.75-4.44,5.03-10.23,8.87-15.41,13.25-.55.46-1.05.97-2.16,2ZM255.27,123.05c-.45-.82-.53-1.13-.73-1.31-6.97-6.06-13.99-12.06-20.93-18.16-3.67-3.23-7.85-5.32-12.71-5.73-3.13-.26-6.31-.25-9.45-.06-8.34.52-16.09,3.36-24.48,6.17,4.18,3.94,7.9,7.54,11.74,10.98.64.57,1.84.56,2.8.7,4.86.74,9.74,1.38,14.6,2.18,10.39,1.7,20.75,3.56,31.15,5.17,2.46.38,5.03.06,8.01.06ZM627.56,606.12c-.33-.08-.65-.15-.98-.23-2.96,3.4-4.92,7.32-6.45,11.63-1.43,4.03-3.49,7.84-5.26,11.76-.32.7-.83,1.46-.77,2.15.83,9.04-3.28,17.31-4.06,26.1-.54,6.07-1.51,12.1-2.23,18.16-.12.98.11,2,.23,3.89,4.2-3.8,7.96-6.81,11.26-10.26,7.67-8.03,11.94-17.48,11.18-28.85-.31-4.52-.39-9.05-.79-13.56-.61-6.93-1.41-13.85-2.13-20.78ZM207.87,679c.16-.77.43-1.34.36-1.86-1.24-9.63-2.49-19.27-3.82-28.89-.73-5.24-1.62-10.45-2.45-15.67-.17-1.04-.23-2.14-.64-3.09-1.78-4.12-3.93-8.11-5.45-12.32-1.53-4.21-3.5-8.02-6.83-11.8-.33,1.32-.61,2.03-.68,2.76-.91,10.1-1.75,20.21-2.67,30.32-1.67,18.38,8.37,30.33,22.19,40.56ZM156.11,316.99c-.33.1-.66.19-.98.29-2.92,11.81-3.43,23.78-1.47,35.83,2.2,13.54,11.41,22.97,19.8,33.25,2.08-3.53,3.93-6.86,5.97-10.06,1.18-1.85,1.19-3.33-.26-5.05-9.19-10.89-14.47-23.42-15.22-37.71-.19-3.68-1.14-6.89-3.35-9.82-1.62-2.15-3.01-4.47-4.5-6.72ZM660.9,317c-3.31,2.39-8.1,10.55-8.41,13.88-.95,10.26-2.28,20.44-7.95,29.41-2.37,3.74-5.03,7.3-7.46,11.01-.6.92-1.43,2.43-1.08,3.13,2.01,3.98,4.34,7.79,6.69,11.87,8.53-10.35,17.66-19.86,19.82-33.42,1.91-11.98,1.35-23.87-1.61-35.87ZM496.59,84.17c-.54-.77-.82-1.43-1.31-1.84-5.27-4.42-10.38-9.07-15.92-13.15-9.79-7.2-20.22-6.6-30.72-1.55-4.55,2.19-7.26,6.29-10.84,9.86,7.2,4.32,14.28,5.53,21.67,4.22,8.99-1.59,17.56.03,25.7,3.46,4.28,1.8,7.54.44,11.41-1.02ZM253.03,107.94c1.39,1.12,2.12,1.91,3.03,2.4,4.49,2.45,9.03,4.81,13.54,7.23,5.08,2.73,9.89,2,14.91-.53,10.82-5.45,20.77-12.09,29.81-20.13.46-.41.73-1.02,1.33-1.89-7.43-2.03-14.47-2.89-21.47-.04-5.48,2.23-10.87,4.66-16.28,7.06-6.92,3.07-14.09,5.05-21.68,5.43-.82.04-1.64.23-3.19.46ZM319.56,84.21c3.84,1.34,7.06,2.85,11.36,1.02,8.14-3.46,16.7-5.07,25.7-3.51,5.15.89,10.37.77,15.44-1.18,6.69-2.57,6.73-2.48,1.87-7.71-8.51-9.18-23.2-12.06-33.79-5.54-7.06,4.35-13.17,10.23-19.69,15.45-.35.28-.5.8-.9,1.47ZM500.67,95.01c.26.74.27.98.39,1.09,10.5,9.55,22.08,17.45,35.31,22.72,1.83.73,4.48.81,6.25.03,6.1-2.67,11.99-5.83,17.93-8.86.72-.37,1.27-1.09,2.18-1.89-.89-.28-1.33-.53-1.78-.54-10.39-.28-19.77-3.99-29.02-8.31-4.35-2.04-8.86-3.85-13.45-5.26-5.92-1.81-11.81-.62-17.81,1.02ZM192.4,492.4c-.18-2.12-.52-3.98-.45-5.82.16-4.04-1.39-7.06-4.32-9.86-8.36-7.99-14.35-17.6-17.61-28.68-1.4-4.77-4.11-7.12-8.78-7.74-.58-.08-1.18-.19-1.73-.4-2.73-1.04-3.9.31-4.17,2.79-.68,6.41.54,12.32,4.51,17.57,1.35,1.79,3.06,3.67,3.46,5.74,1.13,5.7,4.78,9.56,9,12.75,6.33,4.78,13.11,8.96,20.08,13.65ZM623.69,492.32c6.43-4.26,12.74-8.07,18.61-12.47,3.25-2.43,5.83-5.79,8.56-8.86.73-.82.89-2.14,1.38-3.19,1.08-2.28,1.82-4.86,3.4-6.74,4.06-4.84,5.38-10.45,5.3-16.48-.06-4.89-.99-5.46-5.66-4.37-1.24.29-2.47.67-3.71.98-2.31.57-3.69,1.97-4.38,4.29-3.89,12.91-10.72,24.02-20.43,33.38-1.01.97-1.95,2.38-2.18,3.71-.53,3.18-.62,6.43-.89,9.75ZM163.17,308.21c.29-.7.53-1.11.64-1.56,2.13-8.59,4.35-17.16,6.27-25.8.33-1.49-.18-3.59-1.08-4.86-3.64-5.14-7.59-10.07-11.42-15.08-2.24-2.93-2.88-2.86-4.47.59-3.32,7.16-3.74,14.79-3.98,22.53-.33,10.89,5.42,18.09,14.04,24.17ZM653.04,308.42c5.13-4.67,10.94-8.31,12.57-15.17,2.63-11.05,1.75-21.93-2.93-32.36-1.22-2.73-1.9-2.68-3.79-.2-3.71,4.85-7.34,9.77-11.19,14.51-1.82,2.24-2.05,4.29-1.28,7.07,2.17,7.87,3.95,15.84,5.9,23.77.15.63.37,1.25.72,2.4ZM616.88,684.25c-3.51,3.08-6.97,5.87-8.4,10.7-1.12,3.77-3.38,7.26-5.42,10.7-3.59,6.06-7.67,11.84-11.02,18.02-2.04,3.76-3.12,8.06-4.57,12.13-.24.66-.16,1.44-.24,2.33,2.95-.52,5.7-.61,8.12-1.55,2.45-.95,5.23-2.24,6.74-4.24,5.9-7.83,10.49-16.43,12.84-26.06,1.75-7.18,2.51-14.47,1.96-22.04ZM229.05,738.23c-1.98-11.54-7.92-20.67-13.82-29.66-3.2-4.87-6.75-9.34-8.26-15.16-1.07-4.12-4.5-6.61-7.81-9.63-.21,1.01-.35,1.38-.36,1.76-.32,17.49,4.89,33.21,15.36,47.16,1.12,1.49,2.9,2.83,4.65,3.4,3.14,1.02,6.48,1.39,10.23,2.13ZM235.11,721.26c-.22.23-.45.46-.67.68.77,4.53,1.62,9.06,2.29,13.61,1.79,12.24,9.55,19.66,20.04,24.79,2.05,1,4.45,1.26,7.06,1.97-.68-5.23-1.98-9.54-5.16-13.36-6.18-7.42-12.03-15.11-18.15-22.58-1.56-1.9-3.6-3.42-5.41-5.11ZM552.31,761.94c10.48-.83,23.7-11.5,26.13-21.49,1.48-6.07,2.16-12.34,3.19-18.53-.17-.21-.34-.43-.5-.64-1.8,1.63-3.84,3.07-5.36,4.93-5.87,7.17-11.46,14.55-17.37,21.69-3.37,4.08-5.64,8.49-6.08,14.03ZM385.9,68.41c2.47,3.86,4.78,6.32,9.23,6.35,3.28.02,6.53,1.27,9.83,1.76,1.89.28,3.88.4,5.76.14,3.98-.54,7.9-1.49,11.88-2.03,3.21-.44,6.15-2.83,7.04-6.45-6.19.09-11.58-2.18-16.47-5.69-3.51-2.53-6.67-2.11-10.38-.01-4.04,2.28-8.56,3.76-12.92,5.45-1.03.4-2.26.3-3.97.49ZM188.26,501.32c.78,6.9,2.21,14.26,2.32,21.64.17,11.63,4.2,21.92,9.23,32.03.14.29.52.46,1.04.9,3.62-20.5,1.59-39.28-12.59-54.57ZM615.61,556.19c4.61-8.9,8.62-17.42,9.42-26.88.82-9.58.21-19.3,4.05-28.92-12.22,9.04-19.19,37.96-13.47,55.8ZM313.65,830.27c2.68,2.52,5.24,5.06,7.94,7.44,3.71,3.28,8.1,5.23,12.99,5.95,6.84,1.01,15.84-5.82,16.72-12.97-8.53,1.67-16.82.58-24.69-2.59-4.73-1.91-8.7-1.66-12.98,2.17ZM464.63,830.64c-.2.38-.41.76-.61,1.14,2.84,3.31,5.51,6.79,8.6,9.85,1.21,1.2,3.3,1.81,5.08,2.06,7.88,1.11,20.99-6.5,24.55-14.45-2.66-.87-5.65-3.01-7.84-2.38-9.75,2.84-19.33,6.08-29.78,3.78ZM396.98,851.15c-10.18-3.35-20.61-5.26-31.26-6.54,2.23,3.52,4.49,6.73,7.12,9.6,7.38,8.04,18.38,6.63,24.14-3.06ZM418.35,851.38c2.73,2.15,4.96,4.02,7.3,5.74,4.65,3.41,9.73,3.41,13.98-.04,4.17-3.38,7.52-7.78,11.23-11.74-.25-.39-.49-.78-.74-1.17-10.43,1.73-20.81,3.68-31.78,7.2ZM209.63,542.04c-3.59,18.84-3.86,37.31,6.55,54.33.74-5.93-4.6-50.34-6.55-54.33ZM605.95,542.02c-1.64,18.09-6.33,35.8-6.11,54.3,10.59-17.28,10.06-35.62,6.11-54.3ZM216.52,671.79c-.54,5.63-1.21,11.07-1.5,16.54-.11,1.98.32,4.19,1.16,5.99,2.81,6.03,7.96,9.81,13.5,13.1.08.05.31-.17.51-.29-4.55-11.76-9.1-23.52-13.67-35.34ZM599.55,672.05c-4.53,11.72-9.06,23.46-13.6,35.21,5.54-3.07,10.78-6.41,13.58-12.19,1.03-2.12,1.55-4.74,1.46-7.1-.2-5.28-.92-10.54-1.44-15.92ZM283.62,789c-.29.2-.58.39-.88.59-2.96,13.8,14.44,32.57,25.57,31.75-.65-.58-1.14-.98-1.59-1.42-3.35-3.28-7.13-6.24-9.92-9.94-3.23-4.29-5.53-9.27-8.34-13.89-1.49-2.44-3.21-4.73-4.83-7.09ZM532.72,789.23c-8.27,10.72-12.1,24.82-24.88,32,12.32.39,28.67-19.07,24.88-32ZM274.8,801.54c-.24-3.49-.78-6.71-.59-9.89.22-3.64-.6-6.78-2.61-9.74-.76-1.12-1.25-2.43-1.88-3.65-1.96-3.82-4.62-6.88-8.85-8.48-.11.5-.25.74-.18.86,4.39,8.02,6.94,16.68,8.89,25.55.61,2.75,2.58,4.26,5.22,5.35ZM213.96,652.03c-.48-12.61,2.47-25.4-2.02-38.61-2.58,13.58-7.06,26.42,2.02,38.61ZM555.44,770.15c-.15-.19-.29-.39-.44-.58-1.53,1.07-3.23,1.97-4.55,3.25-8.08,7.88-9.14,18.06-9,28.62,2.81-1.06,4.51-3.02,5.3-6.06,1.36-5.24,2.81-10.46,4.53-15.59,1.11-3.31,2.76-6.44,4.16-9.64ZM602.51,651.18c8.44-12.02,4.09-24.49,1.54-36.89-4.2,12.14-1.57,24.57-1.54,36.89ZM212.03,520.55c-.62-9.4-4.86-17.29-10.11-24.77,1.2,9.13,4.87,17.27,10.11,24.77ZM614.57,495.84c-5.04,4.4-11.31,20.16-9.99,24.74,4.71-7.65,8.24-15.48,9.99-24.74Z" style="fill: #000; stroke-width: 0px;"/>
  <path d="M342.75,632.26c2.6.52,5.39.6,7.77,1.63,10.66,4.61,20.07,1.02,29.25-4.13,3.18-1.78,6.11-3.99,9.21-5.91,5.11-3.16,10.57-4.71,16.66-3.6,1.62.29,3.38.26,5-.02,6.07-1.02,11.46.58,16.67,3.61,6.11,3.55,12.28,7.05,18.62,10.17,5.76,2.83,11.77,2.67,17.82.41,5.17-1.94,10.5-2.57,15.96-1.02,7.24,2.06,12.4,6.38,14.86,13.57,1.57,4.57,2.76,9.26,4.34,13.83,1.31,3.79,2.82,7.52,4.49,11.16,1.18,2.59,1.59,4.94.19,7.61-.65,1.23-.76,2.82-.83,4.26-.21,4.33-2.82,6.93-7.16,6.88-.88-.01-1.79-.08-2.63-.32-7.95-2.3-13.31,1.59-17.7,7.51-1.81,2.45-3.22,5.19-4.83,7.79-4.76,7.65-11.62,11.8-20.62,12.58-10.44.9-20.77.62-30.55-3.54-7.5-3.2-14.69-3.25-22.22-.04-9.17,3.92-18.89,4.28-28.77,3.76-10.9-.58-18.43-5.76-23.89-14.95-2.28-3.83-5.25-7.34-8.34-10.59-2.8-2.94-6.58-3.82-10.66-2.86-1.24.29-2.52.46-3.8.6-5.05.53-8.04-2.17-8.22-7.26-.05-1.34-.23-2.82-.86-3.96-1.42-2.56-.94-4.83.16-7.32,1.74-3.93,3.36-7.93,4.78-11.99,1.47-4.18,2.51-8.52,3.98-12.7,3.28-9.34,11.34-14.91,21.33-15.15ZM330.89,667.27c1.22,0,1.8.08,2.35-.01,6.7-1.14,13.34-.79,20,.51,2.1.41,4.35.57,6.46.28,8.96-1.24,17.96-2.37,26.82-4.17,8.99-1.83,18-2.35,27.07-1.82,6.77.4,13.51,1.41,20.24,2.3,6.05.8,12.13,1.51,18.08,2.81,4.34.94,8.49.92,12.87.46,5.64-.59,11.36-.38,17.05-.5,1-.02,2.01,0,3.61,0-1.31-3.24-2.31-5.99-3.52-8.65-4.21-9.28-7.14-10.43-16.3-5.83-10.25,5.15-20.68,5.46-30.76.44-5.91-2.94-11.14-7.34-16.47-11.35-2.95-2.22-5.67-4.27-9.63-2.87-.68.24-1.6.09-2.33-.13-2.65-.81-4.8.06-6.83,1.72-3.59,2.93-7.06,6.05-10.88,8.64-12.07,8.16-24.78,10.26-38.27,3.46-1.83-.93-3.79-1.7-5.78-2.2-2.39-.6-4.85-.37-6.53,1.69-3.54,4.34-5.32,9.54-7.24,15.25ZM358.05,688.12c.97,4.8,5.79,9.1,10.57,9.5,7.11.6,14.17.39,21.13-1.43,5.47-1.43,10.98-2.28,16.66-1.36,1.25.2,2.56-.06,3.83.03,5.27.37,10.53.78,15.79,1.21,6.65.54,13.28,1.18,19.93,1.66,5.74.41,9-3.25,11.75-7.56.97-1.52.64-2.52-1.35-2.31-8.83.93-16.9-1.75-24.98-4.82-15.45-5.87-31.03-5.9-46.49-.02-8.36,3.18-16.73,5.92-25.86,4.76-.25-.03-.54.18-.99.34Z" style="fill: #000; stroke-width: 0px;"/>
  <path d="M461.15,556.67c3.13,2.65,4.99,2.86,8.02,1.12,8.2-4.7,12.66-18.73,8.52-27.21-.49-1.01-1.73-1.94-2.82-2.33-5.94-2.09-8.8-6.41-9.32-12.45-.99-11.5-.18-22.92,2.97-34.01,1.53-5.39.9-10.03-1.93-14.67-3.91-6.39-7.82-12.79-11.51-19.31-2.13-3.77-3.95-7.73-5.62-11.72-.82-1.96-1.28-4.17-1.4-6.29-.19-3.17,1.59-5.5,4.18-6,2.97-.57,4.91.94,6.22,3.42,1.79,3.4,3.28,6.99,5.35,10.2,5.72,8.86,11.51,17.68,17.61,26.28,4.18,5.9,5.26,12.08,3.9,19.05-1.46,7.44-2.53,14.96-3.75,22.45-.64,3.97.37,6.53,4.45,8.69,8.34,4.42,13.43,11.46,13.16,21.45-.07,2.66-.08,5.33-.38,7.97-1.93,16.88-11.45,27.74-27.92,31.97-6.18,1.58-12.15,1.17-17.69-2.22-1.68-1.03-3.05-.94-4.6.22-7.45,5.61-15.61,6.42-24.41,3.78-3.08-.93-6.55-.68-9.54-1.78-4.54-1.67-8.68-1.53-13.23,0-3.97,1.34-8.28,1.62-12.4,2.54-7.68,1.73-14.72.35-21.04-4.27-1.87-1.37-3.36-1.48-5.35-.29-5.58,3.33-11.58,3.64-17.72,1.9-6.35-1.8-12.01-4.97-17.06-9.19-4.28-3.58-7.55-8.05-8.57-13.5-1.19-6.35-2.15-12.86-2.09-19.3.08-9.58,6.07-15.77,14.09-19.95,2.66-1.39,3.77-3.04,3.39-5.78-1.03-7.31-2.16-14.61-3.25-21.92-.39-2.63-.89-5.25-1.12-7.9-.38-4.38.8-8.37,3.26-12.03,6.22-9.24,12.46-18.47,18.51-27.81,2.03-3.13,3.55-6.59,5.22-9.94,1.63-3.27,3.99-4.74,6.72-4.02,2.78.73,4.64,3.58,4.05,7.01-.45,2.59-1.15,5.27-2.37,7.58-4.23,8.01-8.73,15.89-13.16,23.8-.91,1.63-1.93,3.21-2.92,4.8-2.86,4.58-3.65,9.24-2.07,14.65,2.95,10.1,3.72,20.53,3.31,31.05-.29,7.37-2.43,13.37-10.28,15.84-.88.28-1.77,1.32-2.18,2.23-3.85,8.54.35,21.97,8.31,26.84,3.16,1.93,5.14,1.75,8.21-.93-.6-.5-1.13-1.02-1.73-1.44-4.97-3.4-4.85-10.01.72-12.27,3.8-1.54,8.22-1.96,12.38-2.04,3.16-.06,5.15,2.65,6.48,5.43,2.87,6.03,7.8,9.82,13.71,12.41,1.31.58,3.01.32,4.53.38.87.03,1.83-.31,2.6-.05,3.88,1.32,7.76,2.65,11.52,4.26,2.09.89,3.85.87,5.92,0,3.77-1.59,7.65-2.93,11.5-4.31.52-.19,1.25-.24,1.74-.03,3.05,1.39,5.65,0,8.08-1.46,4.52-2.71,8.48-5.97,10.91-10.91,2.64-5.37,5.4-6.54,11.29-5.59,1.65.27,3.32.49,4.96.82,3.61.73,6.29,3.26,6.86,6.49.6,3.45-1.18,5.61-3.97,7.21-.4.23-.72.61-1.26,1.08Z" style="fill: #000; stroke-width: 0px;"/>
  <path d="M552.23,203.84c1.26-5.22,2.31-10.51,3.88-15.65.88-2.88,2.82-5.31,6.38-5.2,2.81.09,5.43,2.64,5.98,6.4.38,2.56.49,5.42-.26,7.84-1.32,4.3-3.28,8.41-5.15,12.52-1.16,2.56-3.25,4.11-6.18,3.39-2.93-.72-3.86-3.1-3.94-5.88-.03-1.08,0-2.17,0-3.25-.24-.06-.48-.11-.72-.17Z" style="fill: #000; stroke-width: 0px;"/>
  <path d="M263.32,203.45c-.13,2.14.19,4-.46,5.42-.73,1.63-2.07,3.38-3.61,4.16-2.01,1.02-4.23-.03-5.37-1.94-3.29-5.52-6.31-11.26-6.54-17.82-.09-2.5.71-5.33,1.96-7.52,2.15-3.74,6.66-3.95,8.99-.34,1.86,2.89,2.99,6.37,3.92,9.73.78,2.81.8,5.83,1.1,8.31Z" style="fill: #000; stroke-width: 0px;"/>
  <path d="M517.78,200.67c.54-3.16,1.04-6.96,1.87-10.69.49-2.18,1.84-4.45,4.28-4.22,1.9.18,4.43,1.29,5.34,2.8,1.57,2.59,2.58,5.75,2.94,8.78.6,5-.75,9.8-3.24,14.2-1.17,2.08-3.06,3.09-5.45,2.79-2.43-.3-3.97-1.87-4.42-4.18-.58-2.89-.83-5.84-1.32-9.49Z" style="fill: #000; stroke-width: 0px;"/>
  <path d="M298.45,200.2c-.57,4.03-.61,7.28-1.62,10.19-.56,1.62-2.64,3.51-4.25,3.74-1.63.22-4.35-.99-5.15-2.4-3.8-6.69-5.1-13.84-1.9-21.24.46-1.06,1.16-2.08,1.95-2.94,2.9-3.17,7.09-2.66,8.49,1.38,1.33,3.85,1.79,8,2.48,11.26Z" style="fill: #000; stroke-width: 0px;"/>
  <path d="M470.2,590.37c-1.38,0-2.87.33-4.1-.1-1.13-.4-2.57-1.5-2.76-2.5-.19-1.01.75-2.53,1.63-3.38.87-.83,2.3-1.04,3.45-1.61,6.23-3.13,12.47-6.24,18.65-9.44,2.36-1.22,4.62-1.9,6.78.2,2.12,2.07,2.09,4.65.39,6.69-1.9,2.3-4.17,4.5-6.7,6.04-5.26,3.2-11.27,3.96-17.34,4.09Z" style="fill: #000; stroke-width: 0px;"/>
  <path d="M345.68,590.48c-6.36-.3-12.61-1.17-18.05-4.72-2.24-1.46-4.23-3.51-5.87-5.65-1.56-2.03-1.48-4.56.42-6.5,2.04-2.09,4.35-1.57,6.76-.33,6.62,3.41,13.28,6.73,19.97,10.01,2.06,1.01,4.57,1.71,3.87,4.68-.65,2.73-3.13,2.54-5.32,2.51-.59,0-1.18,0-1.77,0Z" style="fill: #000; stroke-width: 0px;"/>
  <path d="M369.8,395.2c.36-1.41.54-2.27.8-3.12,3.14-10.43,5.18-21.04,5.47-31.96.03-1.06.22-2.18.63-3.15.81-1.91,2.48-3.26,4.43-2.48,1.4.56,2.44,2.23,3.39,3.58.36.51.1,1.54-.05,2.3-1.63,8.41-3.14,16.86-5.03,25.21-.82,3.61-2.28,7.12-3.87,10.48-.44.92-2.43,1.59-3.63,1.49-.82-.06-1.53-1.65-2.12-2.36Z" style="fill: #000; stroke-width: 0px;"/>
  <path d="M617.64,194.62c-1.75,5.66-3.05,11-5.08,16.05-1.5,3.74-4.62,5.04-7.52,4.2-2.83-.82-4.76-3.67-4.57-7.48.32-6.58,2.98-12.16,7.86-16.61,1.67-1.52,3.83-2.85,5.83-1.41,1.51,1.09,2.23,3.27,3.48,5.24Z" style="fill: #000; stroke-width: 0px;"/>
  <path d="M431.49,359.35c-.02-2.83,1.53-4.82,3.77-5.01,2.53-.21,4.4,1.74,4.74,4.95.69,6.45,1.19,12.94,2.18,19.34.67,4.36,2.05,8.61,3.12,12.91.21.86.8,1.81.6,2.55-.35,1.28-.94,3.13-1.87,3.45-.95.33-3.11-.56-3.57-1.49-1.55-3.16-2.96-6.49-3.73-9.91-1.91-8.55-3.44-17.18-5.12-25.78-.08-.39-.09-.78-.12-1.01Z" style="fill: #000; stroke-width: 0px;"/>
  <path d="M198.5,194.59c1.2-1.98,1.87-4.06,3.3-5.17,1.85-1.43,3.99-.35,5.63,1.08,5.24,4.57,8.11,10.33,8.23,17.31.06,3.61-1.92,6.37-4.7,7.08-2.88.74-5.89-.53-7.29-4.1-2.03-5.17-3.41-10.59-5.16-16.21Z" style="fill: #000; stroke-width: 0px;"/>
  <path d="M502.25,485.77c-.98,3.79-1.76,7.65-3.01,11.35-1.07,3.14-1.29,6.08,0,9.17.92,2.21,1.35,4.56-1.2,5.97-2.41,1.33-4.79.16-5.9-1.81-1.33-2.36-2.61-5.31-2.39-7.87.57-6.63,1.9-13.2,3.11-19.76.43-2.36,2.1-3.84,4.63-3.71,2.38.12,3.66,1.72,4.18,3.92.2.85.16,1.75.23,2.63.12.04.24.08.35.12Z" style="fill: #000; stroke-width: 0px;"/>
  <path d="M326.56,503.48c-.15,3.7-1.16,6.82-4.39,8.4-1.27.62-3.44.66-4.54-.06-.92-.6-1.6-3-1.14-4.05,2-4.56.98-8.7-.44-13.14-1.11-3.49-1.46-7.3-1.63-11-.11-2.46,1.5-4.3,4.18-4.5,2.39-.18,4.12,1.21,4.53,3.42,1.29,7.04,2.33,14.12,3.43,20.93Z" style="fill: #000; stroke-width: 0px;"/>
  <path d="M389.34,600.53c-.8-3.07-1.46-6.18-2.45-9.19-.87-2.63-.72-4.86,1.52-6.64,1.95-1.55,5.35-1.61,6.98.54,1.63,2.16,3.44,5.02,3.32,7.49-.24,4.81-1.63,9.59-2.83,14.32-.49,1.92-2.22,3.52-4.23,2.6-1.29-.59-2.31-2.45-2.77-3.95-.47-1.53-.1-3.31-.1-4.98.19-.06.38-.12.57-.19Z" style="fill: #000; stroke-width: 0px;"/>
  <path d="M424.52,583.72c3.76-.02,6.63,3.48,4.84,6.83-2.33,4.34-1.78,8.76-1.98,13.23-.11,2.43.21,5.37-3.01,5.97-3.4.64-4.2-2.3-5.07-4.68-1.7-4.67-2.8-9.47-1.79-14.47.83-4.15,3.67-6.86,7-6.88Z" style="fill: #000; stroke-width: 0px;"/>
  <path d="M492.55,209.93c-.09.88-.12,1.77-.27,2.64-.6,3.53-2.43,5.62-5.18,5.98-2.79.37-5.1-1.03-6.39-4.54-1.25-3.38-2.45-6.88-2.9-10.43-.62-4.87,3.2-7.29,7.64-5.08,4.66,2.31,6.74,6.36,7.11,11.42Z" style="fill: #000; stroke-width: 0px;"/>
  <path d="M323.7,210.37c.11-5.29,2.19-9.35,6.79-11.8,4.47-2.39,8.55.17,7.85,5.15-.51,3.65-1.83,7.23-3.09,10.73-.98,2.71-3.04,4.38-6.15,4.11-2.72-.24-4.57-2.35-5.14-5.68-.15-.87-.18-1.76-.26-2.5Z" style="fill: #000; stroke-width: 0px;"/>
  <path d="M446.63,215.81c5.36-.07,12.67,5.05,13.92,10.3.41,1.72-.23,4.12-1.26,5.62-1.33,1.95-3.83,2.09-5.92.98-4.85-2.57-8.46-6.49-10.8-11.4-1.37-2.87.74-5.47,4.06-5.51Z" style="fill: #000; stroke-width: 0px;"/>
  <path d="M369.68,215.81c3.25.14,5.15,2.79,3.74,5.72-2.31,4.81-5.89,8.59-10.58,11.17-2.06,1.14-4.56,1.02-5.91-.91-1.04-1.5-1.73-3.87-1.37-5.6,1.1-5.23,8.79-10.6,14.11-10.38Z" style="fill: #000; stroke-width: 0px;"/>
  <path d="M440.11,256.87c-2.5-1.27-5.21-2.25-7.46-3.87-2.54-1.84-1.81-5.44,1.29-6.11,2.61-.56,5.48-.57,8.12-.15,2.89.47,4.33,3.1,3.82,5.72-.47,2.4-2.75,4-5.77,4.41Z" style="fill: #000; stroke-width: 0px;"/>
  <path d="M376.54,256.49c-3.85-.33-5.81-1.47-6.34-4.16-.51-2.6.81-4.83,3.14-5.27,2.97-.57,6.23-.6,9.18.02,2.75.58,3.33,4.12,1,5.79-2.39,1.72-5.27,2.76-6.98,3.62Z" style="fill: #000; stroke-width: 0px;"/>
</svg>