<?xml version="1.0" encoding="UTF-8"?>
<svg id="Layer_1" data-name="Layer 1" xmlns="http://www.w3.org/2000/svg" viewBox="0 0 605.92 900">
  <path d="M68.55,671.07c-10.91-2.61-20.34-8.45-27.7-17.66-5.14-6.44-8.8-13.71-10.78-21.54-3.13-12.39-6.45-24.89-7.72-37.55-1.4-13.95-.9-28.13-.61-42.2.15-7.61,2.06-15.19,2.21-22.81.07-3.3-2.24-6.67-3.55-9.98-5.01-12.68-10.65-25.15-14.91-38.08-4.49-13.62-6.13-27.73-4.92-42.26.85-10.2,3.31-19.85,6.63-29.36,1.19-3.42,3.54-6.41,5.07-9.73.62-1.35,1.12-3.33.59-4.56-2.88-6.74-6.02-13.38-9.21-19.99-4.23-8.79-4.76-17.93-1.76-27.01,2.19-6.64,6.79-11.11,14.87-10.87.14-1.86.52-3.72.37-5.53-.51-6.19,1.89-11.35,5.65-15.91,3.89-4.73,9.11-3.98,14.29-2.8,1,.23,1.97.56,2.81.8,2.91-4.52,2.76-9.16,2.24-14.08-.57-5.41-.11-10.92-.39-16.38-.61-12.05-.64-24.19-2.3-36.1-2.32-16.69-5.97-33.2-8.92-49.81-.86-4.83-1.14-9.76-1.93-14.61-.45-2.75-1.21-5.48-2.17-8.1-1.33-3.64-3.3-7.07-4.39-10.77-.78-2.65-2.45-3.59-4.67-4.44-3.2-1.24-5.7-3.19-5.93-7.01-.3-4.77,2.68-8.05,7.73-8.51,1.78-.16,3.54-.47,5.32-.57,1.76-.1,3.54-.02,5.43-.02,0-4.85-2.73-8.3-4.66-12.08-.98-1.93-2.05-4.01-2.25-6.1-.63-6.55,5.39-10.59,11.35-7.8,1.41.66,2.76,1.46,4.32,2.31,1.15-2.4.34-4.22-.66-6.27-1.3-2.67-2.78-5.54-2.95-8.4-.3-5.24,4.92-9.02,10.11-7.98,2.15.43,4.31.76,7.29,1.27-.43-2.81-.57-5.17-1.18-7.39-.67-2.41-2.04-4.64-2.66-7.06-.93-3.67-.45-7.18,2.75-9.73,3.24-2.58,6.84-2.24,10.43-.9,1.25.47,2.4,1.23,3.83,1.98,4.22-8.32,12.22-5.79,19-6.65,1.85-11.45,7.48-14.76,18.81-10.39,3.85-6.37,8.05-12.74,11.62-19.45,1.99-3.74,3.04-8.01,4.31-12.11,2.31-7.44,10.81-10.29,16.23-4.65,5.62,5.84,11.98,7.36,19.62,7.09,6.45-.22,12.94.51,19.79.83,0-2.46-.1-5.59.02-8.7.22-5.87,4.55-10.14,10.43-10.58,3.65-.28,7.3-1.08,10.94-1.01,5.47.1,10.15,2.42,13.89,6.93,1.39-5.21,4.09-8.2,9.3-8.54,1.51-.1,3.03-.87,4.43-1.55,2.7-1.31,5.33-1,7.92.14,4.21,1.85,12.84,9.95,15.11,14.25.32-1.45.95-2.69.76-3.79-.76-4.41,1.39-7.98,3.11-11.66,1.78-3.82,5.28-6.05,8.37-5.56,3.38.53,5.48,3.15,6.24,7.68.14.81.44,1.59.85,3.01,3.73-1.93,7.31-3.59,10.71-5.57,5.5-3.21,11.1-4.34,17.51-3,5.56,1.16,11.41,1.09,17-.06,6.04-1.25,11.42-.22,16.66,2.75,3.6,2.04,7.32,3.88,11.51,6.08.19-1.85.27-2.86.4-3.86.43-3.23,2.85-6.21,5.73-6.88,3.3-.76,6.05.66,7.62,3.28,2.44,4.07,5.36,8.12,4.41,13.44-.19,1.09.48,2.34.88,4.06,3.3-6.84,9.23-9.98,14.49-13.77,2.59-1.86,5.67-1.93,8.71-.44,1.49.73,3.13,1.25,4.77,1.54,5.2.93,7.38,2.92,8.41,8.19.82-.56,1.66-.97,2.27-1.59,4.92-4.96,10.94-5.77,17.48-4.78,1.97.3,3.95.56,5.94.75,5.37.51,9.8,5.02,10.02,10.43.13,3.13.02,6.28.02,8.67,8.26-.27,16.3-.72,24.35-.72,5.32,0,9.63-1.75,13.21-5.56,3.07-3.27,6.64-5.24,11.25-3.89,4.79,1.4,5.92,5.51,7.55,9.66,2.7,6.89,6.1,13.53,9.51,20.12,1.58,3.04,3.9,5.69,5.87,8.49,12.46-3.27,17.75-.25,18.54,10.72,6.78.81,14.72-1.5,18.94,6.46,2.25-.93,4.19-2.19,6.28-2.52,8.24-1.3,13.03,4.55,10.48,12.65-.56,1.8-1.58,3.45-2.11,5.25-.69,2.35-1.1,4.77-1.77,7.78,2.6-.33,4.48-.34,6.23-.84,3.98-1.14,7.34-.32,9.92,2.88,2.84,3.52,2.24,7.31.19,10.92-1.48,2.61-3.63,4.95-2.12,8.53,1.21-.67,2.37-1.34,3.55-1.97,3.53-1.89,6.77-1.67,9.4.63,2.7,2.37,3.69,5.96,2.21,9.46-1.06,2.5-2.58,4.81-3.86,7.21-.59,1.11-1.24,2.21-1.65,3.39-.51,1.47-.81,3.01-1.25,4.7,3.57.29,6.97.6,10.37.83,4.59.31,7.59,2.58,8.28,6.36.73,4-.87,7.46-5.3,8.83-4.89,1.51-5.29,5.75-6.98,9.28-1.13,2.36-2.37,4.73-3.05,7.23-.92,3.4-1.39,6.93-1.98,10.42-1.18,6.91-2.18,13.85-3.49,20.73-2.3,12.03-5.17,23.97-7.06,36.07-1.34,8.57-1.62,17.31-2.06,26-.58,11.51-1.03,23.03-1.17,34.55-.04,3.43,1.17,6.88,1.82,10.43,3.14-.61,5.57-1.14,8.02-1.56,4.09-.7,7.52.62,10.14,3.77,3.59,4.33,5.69,9.29,5.73,15,.01,1.98,0,3.95,0,5.88,11.2,1.87,15.71,8.08,16.65,19.46.9,10.97-3.78,19.78-8.52,28.81-.63,1.21-1.34,2.38-1.93,3.62-2.37,4.97-3.26,9.3.52,14.7,5.33,7.61,6.75,17.07,8.67,26.1,2.06,9.66,1.88,19.57.77,29.18-1.1,9.51-3.55,19.02-6.66,28.1-4.17,12.17-9.08,24.16-14.62,35.77-2.61,5.46-1.18,10.39-.92,15.55.29,5.75,1.53,11.47,1.58,17.2.1,11.67.12,23.37-.65,35.01-.79,11.93-2.52,23.81-6.28,35.24-2.06,6.26-4.41,12.44-6.96,18.52-3.71,8.84-10.39,15.36-18.2,20.43-4.67,3.03-10.27,4.62-15.21,6.75-1.28,8.48-2.2,17.25-4.02,25.84-1.49,7.05-4.01,13.89-6.16,20.79-1.99,6.41-5.13,12.67-5.84,19.2-.55,5.13-1.8,10.58.28,16.06,1.45,3.8,1.4,8.22,1.79,12.38.51,5.43,1.02,10.87,1.11,16.32.06,3.21-.36,6.51-1.13,9.63-1.51,6.1-3.36,12.12-5.19,18.14-2.26,7.42-7.56,12.74-12.77,18.09-.95.98-2.09,1.79-2.96,2.83-8.72,10.4-20.59,15.62-32.89,20.16-.85.31-1.87.64-2.38,1.3-8.53,10.94-19.85,17.56-32.97,21.45-10.95,3.25-21.75,7.11-33.24,8.17-2.82.26-5.7.91-8.47.61-4.36-.47-7.64,1.4-10.97,3.65-6.58,4.43-13.64,8.03-21.49,9.31-15.32,2.5-30.72,5.78-46.29,3.93-7.26-.86-14.11-.88-21.37-.03-9.44,1.11-19.09.67-28.58-1.29-5.83-1.21-11.85-1.5-17.7-2.6-9.23-1.74-17.28-6.21-24.97-11.42-1.06-.72-2.43-1.3-3.68-1.35-12.01-.48-23.83-1.84-35.23-5.96-7.67-2.78-15.64-4.84-23.1-8.11-7.76-3.4-14.2-8.89-19.6-15.53-.79-.97-2.05-1.7-3.24-2.16-11.49-4.47-22.82-9.16-31.28-18.71-2.02-2.28-4.29-4.33-6.53-6.41-8.01-7.42-11.46-17.15-14.01-27.36-.58-2.34-1.17-4.68-1.98-6.95-2.04-5.74.11-11.46-.03-17.18-.21-8.35.97-16.47,2.65-24.67.96-4.7.21-10.11-1.06-14.84-3.28-12.14-7.75-23.96-10.83-36.15-2.23-8.81-2.99-18-4.5-27.63ZM258.76,622.14c.42.05.84.11,1.26.16,1.19-2.69,2.81-5.28,3.5-8.09,4.52-18.31,2.69-36.78,1.13-55.23-.66-7.85-1.62-15.69-2.15-23.55-.66-9.75-1.07-19.52-1.5-29.28-.6-13.44-1.09-26.88-1.68-40.32-.34-7.64-.71-15.27-1.2-22.9-.24-3.68,2.08-7.46,5.27-6.73,4.35,1,8.81,2.81,12.35,5.45,1.62,1.21,1.46,5.21,1.57,7.96.42,10.37-.06,20.83,1.07,31.12,1.86,16.96,2.78,33.93,3.02,50.97.1,7.01,1,14.03,1.77,21.02.9,8.25,2.38,16.45,3,24.72.87,11.75-1.43,23.27-3.95,34.67-2.67,12.11-5.56,24.18-13.71,34.19-1.08,1.33-1.32,4.09-.8,5.86,2.42,8.25,5.05,16.45,8.05,24.5.73,1.97,1.36,4.99,4.8,4.95,14.08-.17,28.16-.35,42.24-.32,4.08,0,6.14-.93,7.52-4.96,2.65-7.74,5.11-15.54,7.81-23.25,1.1-3.14.4-5.62-1.57-8.16-3.97-5.1-7.1-10.7-8.56-17.06-2.45-10.63-5.23-21.22-7.03-31.96-1.13-6.77-1.27-13.82-.89-20.69.45-8.06,2.3-16.03,2.9-24.09.95-12.89,1.3-25.82,2.05-38.72.55-9.44.93-18.92,2.12-28.29,1.57-12.35,2.44-24.67,1.32-37.09-.27-2.99.56-5.77,3.45-7.24,2.6-1.33,5.32-2.49,8.08-3.45,3.97-1.38,8.13,1.97,7.88,6.03-.56,9.21-1.07,18.43-1.47,27.65-.51,11.66-.79,23.33-1.37,34.99-.43,8.5-1.19,16.99-1.8,25.48-.93,12.99-2.02,25.97-2.74,38.98-.84,15.33-1.69,30.71,2.11,45.82.64,2.54,2.37,4.82,3.59,7.21.32-.11.64-.21.95-.32,1.68-6.6,3.68-13.13,4.96-19.8,2.01-10.52,1.64-21.14.28-31.74-.47-3.62-1.05-7.34-.69-10.92.18-1.73,2.15-4.06,3.81-4.63,1.69-.58,4.66.02,5.93,1.27,6.07,5.96,12.07,12.05,15.61,20.05,2.25,5.09,4.8,10.06,7.13,15.12,1.73,3.76,3.32,7.57,4.97,11.36,1.87-3.89,3.13-7.85,4.05-11.88.71-3.15.67-6.49,1.52-9.59,2.63-9.57,4.91-19.22,4.26-29.2-.59-9.1-1.78-18.16-2.69-27.24-.48-4.8-.76-9.62-1.42-14.39-1.77-12.82-8.08-23.71-14.83-34.41-2.35-3.72-5.02-7.3-6.86-11.27-1.82-3.92,1.23-7.83,5.64-8,3.26-.12,5.54,1.51,7.52,3.9,7.01,8.47,12.72,17.78,17.43,27.68,2.66,5.58,5.21,11.31,6.93,17.22,3.82,13.12,5.64,26.54,3.84,40.23-1.34,10.19-2.53,20.41-4.27,30.53-.78,4.53-2.28,8.75,2.4,12.06.63.45,1.08,1.34,1.32,2.12,2.1,6.8,5.14,13.49,5.99,20.45,1.92,15.7,1,31.47-1.45,47.14-.66,4.22-.69,8.54-1.02,12.81.4.11.8.21,1.2.32,2.78-4.06,6.09-7.86,8.26-12.23,7.55-15.19,11.65-31.27,11.29-48.36-.11-5.05.06-10.11.07-15.16,0-8.39.12-16.78-.1-25.17-.11-4.08-.7-8.18-1.39-12.21-1.72-10.03-3.17-20.15-5.57-30.02-3.38-13.87-7.38-27.58-11.37-41.29-4.69-16.14-10.41-31.91-18.11-46.91-1.23-2.41-2.23-5.02-2.8-7.65-.3-1.4.12-3.4.98-4.54,3.3-4.35,7.02-8.38,10.4-12.67,8.09-10.28,14.58-21.55,20.13-33.36,6.38-13.57,12.59-27.22,18.91-40.82,1.59-3.43,3.3-6.82,5.28-10.91-3.35,3-6.09,5.44-8.82,7.9-5.46,4.93-10.95,9.83-16.35,14.84-7.4,6.86-14.66,13.86-22.08,20.7-6.33,5.83-12.98,11.33-19.17,17.3-4.76,4.6-8.96,9.77-13.52,14.57-1.95,2.05-3.99,4.11-6.32,5.67-5.6,3.73-13.43.08-13.61-6.59-.25-9.24-2.18-18.11-4.62-26.93-4.57-16.57-9.16-33.14-13.91-49.66-2.14-7.44-4.66-14.77-6.99-22.15-1.39-4.4-3.12-8.74-4.02-13.24-1.17-5.88,3.85-10.73,9.65-9.61,3.28.64,6.44,1.81,9.7,2.56,1.58.36,3.28.51,4.9.36,10.55-.99,21.09-2.17,31.65-3.12,11.43-1.02,22.42,1.87,33.28,4.66,7.57,1.94,14.73,1.31,22.02-.61,6.33-1.67,12.66-2.87,19.31-1.82,3.26.52,6.66.25,9.99.15,5.43-.17,10.85-.54,16.27-.73,3.14-.11,6.29.12,9.41-.11,3.4-.24,5.9.82,7.08,3.46,1.26,2.81.54,5.59-2.23,7.83-9.45,7.67-18.97,15.24-28.38,22.96-3.48,2.86-6.71,6.02-10.45,9.4,6.67.27,9.17,3.07,7.51,8.08-2.24,6.76-4.55,13.52-7.33,20.06-3.31,7.81-7.33,15.33-10.71,23.11-5.66,13.06-10.64,26.46-19.12,38.09-4.18,5.74-8.36,11.51-13.02,16.85-3.18,3.64-3.55,3.31-.56,7.34.5.68.99,1.37,1.39,2.1,4.19,7.75,8.34,15.52,12.56,23.25.4.74,1.18,1.81,1.78,1.81,4.55,0,7.35,3.01,10.07,5.87,3.76,3.95,7.26,8.15,10.76,12.34,3.22,3.86,6.81,7.54,9.34,11.82,4.57,7.76,8.45,15.93,12.69,23.9.67,1.25,1.66,2.34,2.54,3.48,1.31,1.69,3.37,3.18,3.86,5.07,2.89,11.25,5.45,22.58,8.04,33.9.77,3.37.59,7.13,2.06,10.12,3.4,6.95,7.4,13.63,11.41,20.27,4.97,8.23,9.28,16.79,11.82,26.02,2,7.27,2.95,14.82,4.39,22.24.56,2.88,1.19,5.74,1.79,8.61.36-.02.73-.04,1.09-.06,1.18-8.18,2.39-16.36,3.5-24.55.25-1.83.64-3.89.07-5.54-3.16-9.2-6.84-18.23-9.88-27.47-3.46-10.55-6.38-21.24-7.4-32.4-.79-8.63-1.65-17.32-3.46-25.78-4.18-19.58-11.29-38.24-19.39-56.49-2.48-5.58-5.47-11.39-9.7-15.62-4.88-4.88-11.34-8.22-17.26-12-.83-.53-3.18-.18-3.7.56-3.92,5.49-9.21,9.43-14.65,13.12-1.26.86-4.1.76-5.32-.12-.96-.7-1.12-3.52-.56-4.98.68-1.74,2.55-2.99,3.83-4.51,3.97-4.71,8.17-9.25,11.79-14.22,3.64-4.99,6.94-10.26,9.94-15.65,5.15-9.24,9.94-18.68,14.91-28.03,4.28-8.06,8.98-15.93,12.81-24.2,6-12.93,11.57-26.06,17.05-39.21,3.58-8.6,6.79-17.38,5.22-27.03-.15-.92-.1-1.9.02-2.84.9-7.33-.77-13.85-5.63-19.58-10.55-12.44-15.9-26.98-17.32-43.13-.1-1.12-1.34-2.29-2.31-3.13-.84-.72-2.2-.82-3.09-1.51-1.71-1.31-3.04-1.02-4.71.19-9.91,7.19-21.34,10.76-33.07,13.4-12.24,2.76-24.75,3.3-37.25,3.84-4.59.2-9.42.15-13.69,1.58-5.6,1.87-10.82,4.97-16.08,7.77-4.71,2.51-9.12,5.65-13.95,7.86-1.84.84-4.86.53-6.71-.45-2.31-1.22-4.36-3.43-5.79-5.67-1.74-2.75-3.58-3.74-6.89-3.42-5.02.49-7.63-2.96-6.36-7.86.46-1.75,1.29-3.41,2.15-5.63-.95.8-1.42,1.21-1.91,1.61-5.2,4.25-8.88,4.35-13.48-.42-3.4-3.53-6.18-7.64-9.24-11.49-3.63-4.56-5.05-10.03-6.82-15.45-1.65-5.05-1.35-7.04,3.27-9.49.74-.39,1.39-.98,2.15-1.32,9.53-4.38,18.75-9.74,28.68-12.84,12.56-3.92,25.18-7.49,36.92-13.53,1.39-.72,2.92-2.32,3.25-3.77,1.34-5.92,3.18-11.94,3.11-17.91-.17-14.42,4.02-28.01,6.45-41.95,2.53-14.55,8.84-27.19,17.12-39.14,1.27-1.84,1.18-4.62,1.48-5.89-3.16-1.96-5.71-3.02-7.52-4.82-1.8-1.78-2.87-4.31-4.69-7.18-2.74,9.52-5.49,18.11-7.64,26.84-1.98,8.04-3.32,16.24-4.93,24.37-1.48,7.5-2.8,15.03-4.46,22.49-1.14,5.11-2.48,10.21-4.21,15.14-1.97,5.61-4.14,11.21-6.86,16.48-1.71,3.32-5.66,4.15-8.86,2.93-2.95-1.12-4.97-4.33-4.44-7.95,1.13-7.78,2.81-15.5,3.71-23.31.84-7.29.98-14.66,1.45-22.42-3.97,4.08-5.98,8.71-6.78,13.85-1.08,6.94-1.24,14.11-3.1,20.82-2.34,8.41-4.87,17.09-12.72,22.59-2.48,1.74-3.65,4.12-3.3,7.3.16,1.52-.15,3.17-.63,4.65-.96,2.99-2.88,5.17-6.18,5.6-3.18.41-5.46-1.07-7.12-3.7-.5-.79-.88-1.78-1.59-2.29-5.46-3.87-5.93-5.27-4.81-11.7.65-3.7,1.29-7.56.92-11.24-.78-7.82-1.73-15.69-3.52-23.32-1.63-6.95-4.46-13.62-6.75-20.41-.35.07-.7.14-1.04.21-.38.6-.86,1.16-1.13,1.8-7.56,17.83-12.67,36.03-8.64,55.67.74,3.62-.83,6.69-3.65,8.38-1.25.75-2.45,1.83-3.26,3.04-3.35,5-9.77,4.91-12.54-.42-.83-1.61-1.43-3.7-1.18-5.43.64-4.36-1.76-6.8-4.65-9.28-1.81-1.55-3.79-3.24-4.83-5.3-2.54-5.05-4.95-10.24-6.69-15.6-1.38-4.25-1.75-8.84-2.44-13.3-.64-4.11-.6-8.41-1.79-12.34-1.06-3.51-3.4-6.64-5.17-9.94-.18,7.04.07,13.61.34,20.19.02.42.09.84.16,1.25,1.37,7.63,2.97,15.24,3.99,22.92.32,2.39-.25,5.4-1.53,7.41-2.65,4.15-9.24,3.74-11.87-1.01-2.71-4.9-4.47-10.36-6.33-15.68-1.38-3.95-2.23-8.08-3.37-12.11-1-3.54-2.36-7-3.04-10.59-2.07-10.93-3.51-21.99-5.9-32.84-2.45-11.13-5.73-22.08-8.81-33.72-4.17,4.27-4.99,11.44-12.32,10.51-.7,3.32.02,5.85,1.72,8.54,4.3,6.82,9,13.58,11.99,20.99,2.99,7.41,4.32,15.53,5.98,23.42,1.95,9.25,4.2,18.53,4.94,27.9.6,7.5.35,15.06,2.28,22.41.64,2.46.6,5.42,3.53,6.63,8.25,3.4,16.3,7.59,24.85,9.89,15.76,4.23,30.77,9.89,44.65,18.49,2.56,1.58,3.71,4.02,2.91,6.98-.33,1.21-.99,2.34-1.26,3.56-2.48,10.93-9.58,18.95-16.88,26.83-2.18,2.35-4.95,2.74-7.82,1.47-1.92-.85-3.71-2.01-5.85-3.19.26.68.38,1.06.54,1.43,3.45,7.93,1.24,11.22-7.29,11.23-1.18,0-2.59.92-3.5,1.81-2.38,2.34-4.42,5.04-6.84,7.34-1.91,1.82-5.37,1.62-7.63,0-1.19-.85-2.36-1.74-3.62-2.48-4.43-2.61-8.78-5.37-13.37-7.66-4.4-2.2-8.91-4.85-13.63-5.6-7.95-1.26-16.15-.82-24.18-1.74-10.3-1.19-20.62-2.58-30.77-4.69-10.87-2.27-21.01-6.7-29.96-13.36-1.27.63-2.34,1.36-3.52,1.69-3.42.95-4.54,3.08-4.83,6.61-1.23,15.42-7.1,29.02-16.97,40.91-3.38,4.07-5.69,8.56-5.65,13.99.02,3,.48,6.07.05,9-1.03,7.09.6,13.72,3.1,20.16,3.6,9.29,7.43,18.5,11.39,27.64,3.33,7.69,6.7,15.38,10.56,22.81,4.64,8.93,10.19,17.4,14.67,26.41,6.36,12.77,12.36,25.72,20.83,37.29,2.22,3.03,4.46,6.08,6.92,8.91,2.48,2.85,5.36,5.36,7.86,8.2,1.55,1.76,1.73,3.9-.09,5.68-1.66,1.62-3.66,1.57-5.46.24-5.3-3.91-10.83-7.61-14.56-13.24-1.08-1.63-2.35-1.49-3.76-.74-10.83,5.77-20.66,12.56-25.54,24.55-3.24,7.96-6.64,15.85-9.84,23.83-5.29,13.18-8.68,26.92-11.99,40.7-2.83,11.77-2.16,23.9-4.99,35.76-3.43,14.35-8.65,28.01-13.44,41.84-1.16,3.34-1.59,6.45-1.33,9.78.23,2.92.67,5.82,1.15,8.71.85,5.03,1.8,10.04,2.71,15.06.27,0,.54,0,.81,0,.54-2.54,1.08-5.08,1.61-7.62,1.82-8.73,2.87-17.72,5.63-26.15,4.99-15.24,13.47-28.86,21.74-42.52.58-.95.85-2.13,1.09-3.24,2.54-12.1,4.89-24.25,7.65-36.3.77-3.37,2.52-6.59,4.25-9.64,1.29-2.27,3.46-4.02,4.88-6.23,1.4-2.2,2.2-4.77,3.53-7.03,4.56-7.77,9.08-15.57,13.95-23.14,1.85-2.87,4.61-5.15,6.93-7.71,3.03-3.34,5.92-6.83,9.13-9.99,2.22-2.19,4.68-4.23,8.21-4.25.7,0,1.59-1.16,2.05-1.97,5.13-9.02,10.22-18.07,15.22-27.16.45-.81.64-2.36.17-2.97-3.16-4.13-6.75-7.94-9.77-12.17-4.55-6.37-9.39-12.65-12.94-19.58-6.27-12.26-11.91-24.87-17.34-37.54-4.42-10.3-8.29-20.84-12.14-31.37-1.66-4.52.83-7.7,5.54-7.83.44-.01.87-.1,2.21-.27-7.99-6.79-15.27-13.12-22.71-19.26-5.57-4.6-11.41-8.89-17.01-13.47-2.37-1.94-2.85-4.7-1.57-7.46,1.25-2.71,3.69-3.53,6.55-3.4,2.71.12,5.45.45,8.13.15,6.77-.74,13.42-.34,20.04,1.15,1.09.24,2.31.17,3.43-.02,8.33-1.4,16.45-.87,24.61,1.49,6.88,1.99,13.84,2.35,21.1.49,10.87-2.79,21.84-5.62,33.29-4.74,5.77.44,11.54.74,17.31,1.19,3.03.24,6.04.69,9.06,1.02,3.09.34,6.24,1.13,9.27.82,3.39-.35,6.66-1.74,10-2.62,5.64-1.49,10.9,2.59,10.48,8.36-.19,2.69-.94,5.38-1.77,7.97-2.23,6.98-4.64,13.9-6.98,20.84-1.88,5.56-4.04,11.05-5.59,16.7-3.52,12.85-6.98,25.72-10.01,38.69-2.14,9.16-3.78,18.46-5.16,27.77-.5,3.38-1.21,6.19-4.27,7.87-3.32,1.83-6.69,1.72-9.84-.47-1.37-.96-2.65-2.09-3.83-3.27-7.36-7.33-14.59-14.79-22.05-22.02-8.98-8.71-18.07-17.31-27.23-25.82-10.17-9.44-20.48-18.74-30.74-28.08-.47-.43-1.08-.71-1.4-.92,2.97,6.85,5.74,13.84,8.98,20.6,5.88,12.31,12.32,24.35,17.99,36.75,5.93,12.95,14.1,24.28,23.45,34.87.97,1.1,1.68,2.45,2.72,3.47,3.05,2.96,2.37,6.21.91,9.53-2.86,6.53-5.72,13.05-8.65,19.54-5.76,12.78-10.29,25.95-12.9,39.75-.47,2.47-1.16,4.91-1.89,7.32-2.82,9.35-6.13,18.58-8.43,28.05-2.12,8.76-3.51,17.73-4.61,26.68-1.2,9.79-1.95,19.65-2.41,29.5-.28,5.97.34,11.97.55,17.96.21,5.89.17,11.79.65,17.65,1.12,13.7,5.46,26.53,11.7,38.67,1.87,3.63,4.84,6.7,7.31,10.03.28-.1.55-.2.83-.29,0-1.32.11-2.64-.02-3.95-.74-7.94-1.57-15.88-2.31-23.82-1.06-11.35-1.31-22.72.49-33.99,1.16-7.26,2.67-14.83,7.31-20.56,3.14-3.88,3.52-7.13,2.23-11.32-.28-.9-.42-1.85-.62-2.77-3.29-15.39-5.2-30.91-4-46.67,1.97-25.85,13.27-47.7,29.16-67.54,2.92-3.64,7.37-4.25,10.64-1.8,2.95,2.22,3.08,5.54.43,9.88-4.59,7.52-9.16,15.06-13.74,22.59-4.07,6.69-5.9,14.07-6.63,21.78-.83,8.79-1.22,17.66-2.67,26.35-1.83,10.94-2.02,21.68.53,32.5,1.3,5.48,2.04,11.09,3.26,16.6,1.13,5.09,2.55,10.11,4.05,15.94,3.31-7.3,6.24-13.47,8.94-19.74,4.41-10.28,10.32-19.48,18.5-27.19,2.19-2.06,4.41-3.23,7.36-2,2.97,1.24,3.75,3.81,3.7,6.7-.03,1.89-.26,3.79-.6,5.64-2.02,11.16-2.02,22.41-.37,33.54,1.06,7.18,3.38,14.18,5.14,21.26ZM504.7,475.65c1.44-6.53,2.29-12.73,4.18-18.59,7.64-23.65,15.35-47.28,23.54-70.74,5.52-15.79,10.35-31.76,13.71-48.1,1.5-7.33.98-15.06,1.58-22.59.9-11.41.27-22.66-2.87-33.7-.21-.72-.66-1.76-1.21-1.93-2.86-.84-5.78-1.44-9.07-2.22,1.88,9.07.52,17.63-1.66,25.69-3.42,12.61-7.93,24.98-12.76,37.14-2.85,7.17-7.26,13.71-10.88,20.57-5.53,10.49-10.62,21.22-16.55,31.47-7.15,12.33-14.93,24.29-22.56,36.34-2.11,3.33-4.63,6.4-7.19,9.9,20.35,5.12,30.69,21.11,41.75,36.77ZM71.23,277.74c-3.31.8-6.05,1.41-8.74,2.18-.54.16-1.2.89-1.31,1.46-1.13,5.65-2.77,11.29-3.07,16.99-.45,8.57-.1,17.2.22,25.8.19,5.13.47,10.35,1.57,15.34,2.05,9.32,4.45,18.59,7.23,27.71,3.43,11.24,7.4,22.31,11.12,33.46,4.85,14.52,9.76,29.01,14.5,43.56,2.17,6.67,4.06,13.44,5.92,20.21.97,3.5,1.61,7.09,2.52,11.19,11.1-15.67,21.41-31.54,41.64-36.77-1.74-2.35-3.37-4.37-4.79-6.52-6.65-10.07-13.51-20.01-19.77-30.32-5.16-8.51-9.94-17.3-14.22-26.28-7.28-15.25-16.74-29.38-22.6-45.37-4.49-12.26-8.89-24.49-10.15-37.55-.47-4.85-.08-9.78-.08-15.09ZM223.69,740.14c.19,2.35.77,5.49.61,8.59-.17,3.3,1.57,4.28,4.23,4.53,1.66.16,3.39.24,5.03-.02,9.9-1.58,19.82-3.02,29.86-3.12,4.89-.05,9.84.88,14.68.45,5.95-.53,11.53.51,17.07,2.19,5.19,1.58,10.28,1.61,15.46.03,5.65-1.72,11.36-3.1,17.37-2.12,1.53.25,3.14.05,4.72,0,6.34-.18,12.71-.87,19.01-.44,6.87.47,13.65,2.1,20.5,2.95,2.33.29,4.78-.15,7.13-.53.7-.11,1.71-1.11,1.79-1.8.46-3.93.68-7.89.91-10.91-2.36-1.06-4.53-1.54-5.88-2.85-.7-.68-.5-3.53.3-4.2,1.35-1.15,3.51-1.35,5.32-1.94.37.21.73.42,1.1.63-.46-6.22-.88-12.44-1.45-18.66-.06-.67-1.01-1.26-1.71-2.08-1.8,4.98-4.19,6.85-7.32,5.47-5.24-2.31-.29-5.35-.1-8.23-1.07-.3-2.01-.57-2.95-.84.17.28.35.55.52.83-1.42,1.45-2.66,3.19-4.34,4.21-.64.39-3.17-.72-3.3-1.43-.38-1.99.05-4.13.18-6.66-.89-.24-2.53-.69-4.31-1.18.17,4.09-1.02,5.96-3.46,5.92-2.79-.05-3.96-2.44-3.41-7.26h-4.27c.17.21.35.41.52.62-1.48,1.36-2.75,3.43-4.48,3.92-2.45.7-3.53-1.51-4.19-3.71-.14-.46-1.2-1.02-1.7-.91-1.38.3-2.76.82-4.02,1.47-2.59,1.33-5.49,1.18-6.44-.96-1.23-2.76-3.39-3.05-6-3.36-.63,2.71-1.39,5.46-4.9,5.01-3.52-.45-3.42-3.35-3.41-6.06-.91-.08-1.62-.14-2.31-.19-1.03,4.97-1.49,5.27-6.79,4.56-.3-.04-.61-.03-.91.02-5.07.76-5.4.55-6.81-4.47-2.26-.49-1.94,1.04-2.41,2.51-.45,1.41-1.93,3.3-3.15,3.45-1.29.16-2.9-1.37-4.15-2.41-.5-.41-.43-1.51-.76-2.86-1.9.84-4.05,1.15-5.12,2.39-3.37,3.88-3.73,4.07-8.51,1.57-2.07-1.08-4.04-1.72-5.12,1.59-.37,1.12-2.33,2.43-3.5,2.37-1.18-.06-2.37-1.64-3.38-2.71-.43-.45-.42-1.31-.64-2.09-1.58.09-2.98.16-4.42.24.71,4.48-.34,7.02-2.87,7.2-.86.06-2.22-.21-2.56-.78-.82-1.41-1.18-3.09-1.82-4.97-1.44.46-3.06.98-3.84,1.23.21,2.48.73,4.48.36,6.31-.16.8-2.64,2.03-3.18,1.69-1.8-1.15-3.21-2.93-5.1-4.8-.17.07-1.1.46-2,.84.73,2.73,4.63,5.16.51,7.76-2.71,1.71-5.49-.09-7.85-4.73-2.68,1.61-4.06,15.16-2.4,19.26,2.32.85,4.4,1.08,5.6,2.24.81.78,1.02,3.47.32,4.22-1.23,1.32-3.36,1.82-5.85,3.02ZM74.84,578.6c3.83-9.16,5.33-18.23,6.35-27.46,1.74-15.65,2.58-31.45,7.2-46.67.55-1.82.56-3.91.35-5.82-.5-4.57-1.01-9.18-2.01-13.66-2.1-9.4-3.97-18.91-6.96-28.04-3.06-9.35-7.83-18.14-11.02-27.46-6.93-20.22-13.37-40.61-19.9-60.97-1.38-4.29-2.29-8.74-3.42-13.11-.7,2.85-1,5.65-1.27,8.46-.8,8.23-1.72,16.45-2.32,24.69-.32,4.39-.18,8.82-.09,13.22.1,4.68.31,9.37.65,14.04.21,2.89.79,5.75,1.11,8.64.15,1.31-.08,2.66.12,3.96.84,5.37,1.76,10.72,2.7,16.07.38,2.16.64,4.39,1.41,6.41,3.46,9.01,7.64,17.82,6.8,27.88-.02.29.14.61.23.91.97,3.4,2.07,6.77,2.88,10.21,2.44,10.44,4.49,20.98,7.21,31.34,3.34,12.76,5.29,25.71,6.78,38.78.69,6.1,2.07,12.12,3.21,18.58ZM531.23,577.54c1.15-6.79,2.41-13.57,3.44-20.38,1.11-7.33,1.67-14.76,3.1-22.02,1.74-8.78,4.17-17.43,6.26-26.14,1.99-8.3,4.11-16.58,5.82-24.95.82-4.02.39-8.31,1.32-12.29,1.41-5.99,3.55-11.81,5.33-17.71,1.04-3.47,2.54-6.93,2.85-10.48.63-7.36,3.92-14.32,2.84-21.96-.33-2.32,1.41-4.85,1.52-7.32.39-9.07.79-18.17.59-27.24-.14-6.59-1.14-13.17-1.91-19.74-.43-3.68-1.18-7.33-1.73-10.72-2.54,8.23-5,16.56-7.67,24.82-6.35,19.63-11.86,39.55-20.12,58.54-3.46,7.95-6.55,16.13-9.01,24.44-2.25,7.61-3.16,15.61-5.13,23.32-1.98,7.73-1.43,15.08.11,22.92,2.85,14.5,4.43,29.26,6.27,43.95.99,7.93,2.69,15.62,6.13,22.94ZM492.33,631.07c-.23,1.01-.45,2.03-.71,3.04-1.65,6.61-2.97,13.34-5.04,19.82-4.85,15.19-9.98,30.29-15.19,45.36-1.57,4.54-3.31,9.14-5.78,13.21-3.09,5.09-3.41,10.48-3.27,16.03.26,10.4.95,20.81-2.43,30.92-1.73,5.18-3.07,10.51-5.23,15.5-1.4,3.24-.97,6.06-.12,9.09.69,2.46,6.44,5.04,8.56,3.58,4.05-2.78,8.37-5.41,11.69-8.93,4.45-4.72,7.93-10.33,12.07-15.36,3.46-4.21,5.34-9.01,6.17-14.27,2.14-13.67,4.08-27.38,6.28-41.04,2.24-13.94.63-27.91.55-41.87-.01-1.95-.79-3.9-1.19-5.85-.41-2.03-1.22-4.09-1.09-6.09.55-8.21-2.29-15.64-5.25-23.14ZM113.62,631.29c-.32-.02-.64-.03-.96-.05-1.08,4.12-2.08,8.27-3.27,12.37-1.94,6.65-.45,13.69-2.86,20.4-1.25,3.47.08,7.78-.53,11.59-1.65,10.32-.89,20.56.42,30.78,1.5,11.76,3.15,23.5,4.99,35.21,1.05,6.71,1.79,13.59,5.92,19.38,3.06,4.28,6.15,8.54,9.3,12.75,3.88,5.19,8.44,9.63,14.15,12.83,2.99,1.68,7.02,1.5,9.53-.66,1.34-1.16,2.33-6.58,1.63-8.64-2.16-6.37-4.4-12.71-6.4-19.13-2.69-8.67-2.61-17.56-2.14-26.54.34-6.55.33-13.04-3.24-19.2-2.75-4.76-4.4-10.18-6.36-15.37-1.26-3.33-2.16-6.79-3.26-10.18-4.98-15.38-10.03-30.74-14.92-46.15-.97-3.04-1.35-6.26-2.01-9.4ZM236.52,595.22c-.26.54-.5,1.1-.79,1.63-4.09,7.57-7.89,15.32-12.36,22.65-3.95,6.48-12.33,5.76-15.76-1.03-1.55-3.07-2.86-6.27-4.28-9.41-.66,2.83-.67,5.64-.66,8.45.06,12,.29,24,.16,36-.17,15.53.64,30.89,6.29,45.6.42,1.09.91,2.16,1.22,2.9,15.25-7.77,29.95-15.65,47.06-17.41-.11-1.01-.11-1.53-.22-2.02-2.03-9.44-3.95-18.91-6.15-28.32-1.62-6.94-3.54-13.8-5.41-20.68-3.44-12.64-7.7-25.09-9.13-38.36ZM395.4,701.96c3.42-6.02,7.19-21.81,7.37-32.5.32-18.83.44-37.67.63-56.51.01-1.17-.19-2.35-.29-3.52-2.17,3.14-3.49,6.42-5.14,9.52-3.27,6.15-11.55,6.69-15.36.93-2.6-3.93-4.88-8.09-7.12-12.24-2.11-3.91-3.98-7.94-5.99-11.99-5.66,30-16.25,58.57-21.1,88.97,17.22,1.64,31.85,9.73,47,17.33ZM447.46,514.13c-.11.09-.22.17-.33.26,1.05,7.57,2.13,15.13,3.13,22.7,1.05,7.9,2.73,15.8,2.9,23.73.38,17.75-.03,35.52-.08,53.29,0,2.41.62,4.9.19,7.21-1.66,8.97-3.89,17.84-5.35,26.84-.6,3.69-.9,8.12.57,11.34,4.77,10.43,7.08,20.96,5.44,32.42-.62,4.31-.1,8.78-.1,13.37.55-1.11,1.2-2.08,1.53-3.15,2.67-8.73,5.83-17.36,7.79-26.25,2.98-13.53,5.58-27.19,7.48-40.91,1.58-11.43,2.03-23.02,2.67-34.56.14-2.61-.72-5.41-1.67-7.91-2.46-6.46-5.45-12.73-7.76-19.25-.8-2.25-1.09-5.45-.05-7.37,1.34-2.47,1.53-4.6,1.2-7.14-1.18-8.79-4.84-16.7-8.47-24.64-3.04-6.66-6.06-13.33-9.1-20ZM158.61,514.83c-.12-.07-.23-.15-.35-.22-1.49,3.21-3.08,6.37-4.46,9.63-4.65,10.99-10.99,21.36-12.59,33.49-.29,2.23-.98,5.15.07,6.66,2.25,3.2,1.91,6.06.67,9.17-2.42,6.04-5.1,11.99-7.33,18.09-1.06,2.89-1.8,6.05-1.9,9.11-.65,20.22,2.72,40.03,6.75,59.72,2.36,11.51,5.44,22.88,8.41,34.26.94,3.61,2.56,7.04,3.87,10.55.46-4.86.64-9.52-.02-14.06-1.51-10.37.3-20.14,4.69-29.46,2.47-5.24,2.85-10.36,1.1-15.82-3.49-10.9-5.15-22.07-4.91-33.54.12-5.79.06-11.58-.11-17.37-.49-16.29-.48-32.57,1.65-48.77,1.38-10.5,2.96-20.97,4.45-31.45ZM167.33,670.35c-.41,1.43-.95,2.5-.97,3.57-.12,7.22-.42,14.46-.12,21.67.57,13.7,3.33,27.05,7.01,40.24,2.6,9.3,7.3,17.08,15.1,23.05,2.78-10.42,5.55-20.76,8.29-31.12,1.21-4.58,2.34-9.19,3.6-14.16-.57-1.04-1.9-2.73-2.45-4.65-1.26-4.38-3.5-7.99-6.72-11.2-3.86-3.86-7.55-7.9-11.12-12.04-4.22-4.9-8.23-9.99-12.63-15.36ZM438.69,670.06c-.87.93-1.15,1.22-1.42,1.52-7.81,9.06-15.72,18.04-23.38,27.23-2.24,2.69-3.83,5.94-5.54,9.02-1.18,2.13-2.06,4.43-3.29,7.11,2.67,3.37,3.23,8.11,4.19,12.87,1.5,7.49,3.86,14.82,5.85,22.21.79,2.96,1.55,5.93,2.39,9.13,6.08-5.76,11.26-11.42,13.77-19.3,6.53-20.53,9.5-41.49,8.67-62.99-.08-2.05-.73-4.09-1.24-6.82ZM115.01,98.18c-.31.03-.62.05-.92.08,0,2.66-.18,5.34.03,7.99.66,8.47,1.66,16.92,2.18,25.4.81,13.33,4.54,25.71,11.21,37.25,2.26,3.9,4.58,7.78,6.63,11.8,1.59,3.13,8.65,6.29,11.78,4.57,5.02-2.76,9.81-5.95,14.97-9.12-15.41-26.18-30.65-52.07-45.88-77.95ZM491.62,98.3c-.28,0-.57,0-.85,0-15.22,25.87-30.44,51.74-45.78,77.8,3.58,2.27,7.02,3.96,9.86,6.36,4.37,3.7,8.85,3.83,13.66,1.49,1.1-.54,2.16-1.54,2.8-2.59,1.89-3.14,3.32-6.57,5.35-9.61,6.86-10.24,10.65-21.69,12.4-33.68,1.5-10.26,1.8-20.71,2.52-31.08.2-2.88.03-5.79.03-8.69ZM197.12,111.73c.39,3.42.6,6.88,1.21,10.26,1.23,6.71,2.72,13.37,4.02,20.07.84,4.34-.48,9.06-2.99,9.9-5.18,1.73-10.7,1.57-13.48-5.35-2.96-7.37-5.85-14.79-9.23-21.97-4.83-10.25-10-20.34-15.21-30.39-1.3-2.51-3.34-4.64-5.03-6.94-.35.16-.7.33-1.06.49,1.37,9.81,2.31,19.71,4.24,29.41,1.52,7.64,3.61,15.32,6.62,22.48,3.37,8.01,7.76,15.61,9.27,24.3.53,3.04.61,6.16.88,9.04,6.41-.51,12.51-2,18.27-1.18,5.65.81,10.97,3.96,16.01,5.92-1.24-22.57-7.54-44.31-13.52-66.06ZM408.94,112.55c-.3,0-.6,0-.9,0-3.05,12.07-6.43,24.07-9.04,36.23-1.88,8.78-2.74,17.77-4.05,26.67-.13.9-.27,1.8-.38,2.5,5.72-2.15,11.23-5.31,17.06-6.11,5.81-.8,11.94.76,18.16,1.31-.63-12.52,4.69-23.03,10.08-33.53,1.04-2.03,1.94-4.17,2.64-6.34,3.65-11.23,5.27-22.87,6.79-34.52.46-3.55.48-7.15.7-10.73-.33-.14-.67-.28-1-.42-1.78,2.64-3.84,5.13-5.29,7.94-4.93,9.5-9.72,19.08-14.44,28.69-2.54,5.17-4.94,10.42-7.21,15.71-1.11,2.59-1.57,5.46-2.7,8.03-1.85,4.2-5.81,5.64-11.26,4.46-3.38-.73-5.01-2.9-4.69-7.75.27-4.05,1.4-8.04,2.1-12.06,1.16-6.69,2.28-13.39,3.42-20.08ZM214.47,842.88c5.79,1.47,11.23,2.99,16.75,4.19,2.12.46,4.46.58,6.59.23,6.18-1,12.39-2.02,18.45-3.55,18.21-4.57,36.51-7.25,55.41-6,12.75.84,25.22,2.73,37.56,5.9,5.36,1.38,10.78,2.61,16.24,3.44,8.95,1.35,17.23-1.36,25.23-4.5-4.21-2-8.29-3.97-12.41-5.87-.52-.24-1.23-.14-1.85-.11-7.55.36-15.1.97-22.65.98-3.27,0-6.71-.8-9.77-2.01-10.18-4.04-20.5-7.34-31.24-9.74-6.88-1.53-13.02-1.43-19.86.05-10.55,2.29-20.63,5.67-30.68,9.46-3.55,1.34-7.51,2.19-11.29,2.22-7.23.07-14.47-.61-21.71-.98-.52-.03-1.12-.17-1.55.02-4.21,1.94-8.39,3.94-13.24,6.24ZM539.81,187.35c.01-.19.03-.38.04-.58-10.22-.57-20.43-1.31-30.65-1.6-3.4-.1-6.96.53-10.22,1.57-10.92,3.47-21.77,7.16-32.57,11.01-3.85,1.37-7.46,3.43-11.17,5.17.11.33.21.67.32,1,.99.09,1.97.21,2.97.27,9.3.55,18.5-.21,27.61-2.1,3.03-.63,6.04-.47,8.29,1.74,1.13,1.11,2.17,3.16,1.95,4.59-.22,1.39-1.86,3.02-3.28,3.67-2.36,1.07-5.05,1.39-7.58,2.1-2.83.79-5.63,1.67-8.73,2.59,8.35,5.63,15.64,4.67,22.55-1.62,2.8-2.54,5.82-4.84,8.82-7.15,6.32-4.87,12.51-9.94,19.11-14.41,3.83-2.6,8.34-4.2,12.55-6.25ZM65.96,186.91c-.01.24-.03.48-.04.73.86.32,1.73.62,2.59.96,8.36,3.35,15.89,8.05,22.77,13.88,6.17,5.23,12.37,10.43,18.82,15.3,5.64,4.27,12.63,3.71,18.54-.96-.42-.19-.77-.42-1.16-.53-4.85-1.35-9.77-2.51-14.53-4.14-1.43-.49-3.28-2.21-3.38-3.48-.13-1.66.91-3.83,2.15-5.07,2.15-2.14,5.15-2.09,8.03-1.5,9.21,1.91,18.5,2.61,27.89,2.06.85-.05,1.7-.2,2.55-.3.07-.31.14-.62.22-.92-2.57-1.31-5.04-2.91-7.73-3.88-10.96-3.93-22.03-7.59-32.99-11.52-5.75-2.06-11.62-2.85-17.66-2.46-8.69.56-17.37,1.2-26.05,1.81ZM201.08,240.83c.11-1.8.12-3.26.29-4.71.71-5.95-2.42-11.39-7.95-13.88-1.71-.77-3.53-1.53-4.94-2.72-5.06-4.25-10.73-4.63-17.12-4.23-12.7.8-22.4,7.99-33.38,13.97,20.34,9.24,41.54,10.57,63.09,11.57ZM404.58,240.64c17.42,1.49,56.24-5.82,62.65-11.8-3.14-1.72-6.47-3.13-9.33-5.19-7.89-5.7-16.89-7.74-26.3-8.58-4.85-.44-9.38.46-13.27,3.7-1.2,1-2.5,2.1-3.94,2.55-5.43,1.69-8.89,5.15-9.74,10.75-.43,2.81-.07,5.73-.07,8.57ZM567.46,564.06c-1.45,5.09-3.28,10.11-4.26,15.3-1.24,6.57-1.33,13.37-2.73,19.89-2.63,12.27-7.18,23.53-19.27,29.82-.44.23-.84.94-.89,1.46-.57,6.79-1.11,13.59-1.51,20.4-.03.57,1.11,1.78,1.52,1.7,1.8-.33,3.85-.61,5.23-1.67,7.02-5.34,11.13-12.83,13.88-20.95,2.11-6.23,3.59-12.7,4.98-19.14,1.34-6.25,2.2-12.6,3.28-18.91,1.57-9.24,1.55-18.49-.24-27.9ZM450.88,836.69c5.74-1.57,11.81-2.41,17.14-4.88,7-3.24,13.61-7.46,19.99-11.84,3.3-2.26,6.24-5.44,8.46-8.79,5.8-8.75,7.26-19.06,9.87-29.58-.92.84-1.39,1.24-1.82,1.67-5.96,6.07-11.8,12.26-17.92,18.17-3.69,3.56-7.81,6.68-11.74,10-3.76,3.18-8.32,5.79-11.1,9.68-3.93,5.47-7.6,10.99-12.88,15.58ZM38.17,564.54c-.35,1.33-.71,2.03-.7,2.71.23,8.39-.19,16.88.97,25.15,1.53,10.87,4.2,21.59,6.61,32.33,2.3,10.27,6.75,19.45,15.21,26.11,1.52,1.2,4,1.17,6.04,1.71.26-1.59.79-3.19.72-4.76-.25-5.45-.64-10.89-1.18-16.32-.1-.97-1.01-2.01-1.81-2.72-3.2-2.82-7.13-5.04-9.64-8.34-6.86-9.02-9.7-19.65-10.53-30.84-.62-8.41-2.14-16.6-5.69-25.04ZM99.57,782.98c2.23,7.58,4.17,15.31,6.84,22.77,1.2,3.35,3.51,6.49,5.91,9.19,6.18,6.95,14.4,11.12,22.51,15.28,3.58,1.83,7.62,2.79,11.49,4.03,2.83.91,5.72,1.64,8.58,2.45-5.4-4.46-9.44-9.75-12.73-15.69-.38-.69-1.2-1.13-1.83-1.67-7.79-6.71-15.66-13.32-23.34-20.15-5.87-5.21-11.5-10.7-17.43-16.23ZM159.5,192.23c4.81,6.03,9.46,8.37,16.61,8.3,5.62-.06,10.81,1.1,15.46,4.48,5.54,4.02,11.21,7.87,16.95,11.88,5.03-7.53,2.8-16.46,2.34-25.99-17.11-1.14-34.22-4.27-51.36,1.34ZM397.3,216.91c4.75-3.29,9.54-6.23,13.89-9.72,6.04-4.85,12.7-6.94,20.42-6.75,6.24.16,10.84-3.35,14.97-8.39-5.21-1.11-9.98-2.77-14.8-2.99-7.85-.36-15.75.06-23.61.48-4.52.24-9,1.13-13.28,1.7-.11,9.39-2.68,18.24,2.42,25.68ZM381.91,216.88c-.13.16-.53.6-.88,1.07-5.2,6.89-10.91,13.13-17.95,18.38-4.39,3.28-7.36,8.5-10.8,12.98-.52.68-.61,2.46-.11,3,1.89,2.04,4.11,3.78,6.51,5.89,9.35-9.41,20.3-16.22,33.04-19.71-3.44-7.58-6.61-14.58-9.79-21.61ZM214.01,238.65c13.19,3.25,23.87,10.48,33.49,19.71,1.78-1.86,3.01-3.72,4.74-4.8,2.51-1.56,2.22-3.19.92-5.16-3.54-5.36-7.35-10.45-12.92-14-2-1.28-3.79-3-5.41-4.77-3.91-4.26-7.67-8.67-11.06-12.52-3.09,6.82-6.26,13.83-9.76,21.55ZM501.31,172.64c3.87,0,7.73.05,11.59-.01,3.21-.05,5.52-1.58,6.91-4.5,1.09-2.27,2.38-4.46,3.33-6.78,1.62-3.96,3.76-7.88,4.4-12.02,1.29-8.31-.52-16.53-2.16-25.14-.66,1.08-1.11,1.76-1.51,2.48-3.45,6.12-6.35,12.65-10.49,18.26-3.73,5.07-6.88,10.1-7.82,16.35-.02.1-.06.2-.1.3-1.42,3.78-2.84,7.56-4.15,11.07ZM81,124.76c-.29.04-.57.09-.86.13-.76,6.82-1.79,13.63-2.17,20.48-.16,2.92.62,6.07,1.7,8.83,1.94,4.97,4.17,9.87,6.81,14.5,1,1.74,3.37,3.49,5.31,3.75,4.29.56,8.7.17,12.35.17-1.83-6.16-3.76-12.77-5.77-19.36-.26-.86-.82-1.66-1.35-2.41-2.56-3.69-5.35-7.24-7.68-11.07-2.97-4.89-5.58-10-8.35-15.02ZM302.26,54.06c.61-.05,1.22-.09,1.84-.14.43-6.14.9-12.27,1.26-18.42.29-4.92,4.33-9.06,9.12-9.2,5.05-.15,9.47,4.02,9.8,9.14.15,2.35.5,4.68.76,7.02.29.03.57.06.86.09,1.66-6.04,3.31-12.08,5.04-18.38-6.21-1.27-11.33-5.12-17.86-3.99-2.76.48-5.75-.32-8.64-.53-.91-.06-1.96-.37-2.72-.04-3.6,1.51-7.2,1.11-10.85.39-.7-.14-1.5-.29-2.15-.1-4.59,1.38-9.14,2.85-13.74,4.31,1.77,6.38,3.44,12.4,5.12,18.42.86-2.36,1.09-4.63,1.32-6.91.48-4.93,3.99-8.68,8.76-9.39,4.07-.6,8.65,2.37,9.99,7,.68,2.35.46,4.96.7,7.45.44,4.43.92,8.85,1.38,13.27ZM499.32,232.54c2.08,2.62,4.77,5.24,6.53,8.37,5.44,9.65,13.98,16.06,22.62,22.36,2.21,1.61,5.1,2.3,7.68,3.41l.91-1.11c-9.04-13.87-20.96-26.39-20.86-44.72-6.05,4.19-11.51,7.97-16.89,11.69ZM68.38,266.16c4.76-.04,7.63-2.04,10.66-3.96,11.9-7.57,19.5-19.07,27.32-29.76-5.26-3.64-10.74-7.44-16.37-11.34-.09.56-.2,1.05-.25,1.54-1.07,11.75-5.7,22-12.91,31.25-2.88,3.69-5.34,7.72-8.46,12.27ZM317.09,109.72c.34-.45.53-.6.58-.78,3.44-12.01,2.62-24.36,2.85-36.61.02-.95-1.05-1.93-2.07-3.65-1.03,3.49-1.93,5.94-2.47,8.48-.54,2.56-.63,5.22-1.06,7.81-.7,4.24-2.74,7.7-7.05,8.85-7.83,2.08-16.61.19-17.06-11.2-.18-4.55-.99-9.03-4.17-13.87-.69,2.13-1.53,3.5-1.51,4.86.07,6.51.16,13.04.65,19.52.42,5.57,1.4,11.1,2.13,16.64,2.84-3.03,4.65-6.22,6.85-9.1,5.07-6.66,11.31-6.64,16.33.02,2.13,2.83,3.92,5.92,5.98,9.06ZM236.98,872.26c.26.14.52.3.8.42,9.53,4.13,19.72,5.69,29.83,7.46,2.52.44,5.28.69,7.41-1.55,2.6-2.74,5.45-5.28,7.83-8.2,1.8-2.22,3.03-4.91,4.82-7.91-1.68,0-2.61-.11-3.5.02-6.32.9-12.63,1.84-18.94,2.8-2.07.32-4.11.85-6.19,1.08-5.08.56-10.17,1.37-15.26,1.4-4.81.02-4.85-.33-6.8,4.48ZM369.23,873.1q-2.46-5.72-7.31-5.25c-1.04.1-2.12.28-3.14.14-5.37-.75-10.72-1.62-16.08-2.41-6.41-.94-12.83-1.83-19.24-2.73-1.52-.21-3.05-.39-4.74-.6.13.65.16.96.25,1.24,2.34,6.78,8.2,10.73,12.81,15.66.67.72,2.11,1.11,3.14,1.03,3.12-.24,6.25-.59,9.3-1.26,8.25-1.81,16.45-3.82,25.02-5.82ZM207.85,828.19c-3.23-2.94-7.09-5.75-10-9.33-2.23-2.75-3.97-5.02-7.95-4.75-1.88.13-3.86-.86-5.77-1.44-5.25-1.59-9.72-4.36-12.96-9.4-4.14,6.43-9.8,9.14-17.74,8.47,17.58,10.53,35.87,15.1,54.41,16.44ZM397.27,828c13.63.9,48.19-9.54,54.33-16.29-7.44.83-12.8-2.38-16.89-8.33-5.56,7.77-13.33,10.33-22,11.09-.74.07-1.77.39-2.11.94-3.34,5.34-7.47,9.81-13.34,12.59ZM535.41,205.2c-.2.47-.41.93-.61,1.4,7.51,6.7,15.02,13.39,22.07,19.67,1.55-11.21,3.25-23.49,4.95-35.77-.31-.11-.61-.21-.92-.32-8.49,5-16.99,10.01-25.48,15.01ZM49.35,227.55c7.33-7.42,14.29-14.47,21.71-21.99-9.22-5.41-17.72-10.4-27.12-15.92,1.88,13.17,3.62,25.36,5.41,37.91ZM372.19,204.99c-16.87,6.51-33.79,13.04-50.51,19.5,2.28,4.7,4.26,8.77,6.26,12.89,2.99-2.12,5.33-4.41,8.14-5.62,5.67-2.44,10.67-5.72,15.32-9.72,2.78-2.39,5.98-4.28,8.8-6.62,4.18-3.46,8.2-7.12,11.99-10.44ZM284.14,224.46c-16.95-6.54-33.8-13.04-51.57-19.89,7.71,6.15,14.61,12.08,21.96,17.4,7.41,5.36,15.27,10.1,23.41,15.43,2.02-4.22,3.98-8.3,6.21-12.94ZM345.52,304.03q.9,4.98,5.5,5.01c4.68.03,9.36.22,14.03.06,10.04-.35,20.08-.82,30.12-1.36,2.77-.15,5.51-.74,8.27-1.12-.04-.32-.07-.64-.11-.96-19.09-6.29-38.32-7.57-57.82-1.63ZM260.38,304.36c-16.05-7.04-47.93-4.04-58.6,2.39,7.49.81,14.39,1.97,21.32,2.21,10.55.36,21.13.1,31.69.08,4.55,0,4.55-.03,5.58-4.68ZM63.05,602.4c.28-.07.57-.13.85-.2.19-16.48-11.9-66.4-18.62-84.29-.3,4.86-.64,9.98-.92,15.1-.04.81.06,1.68.31,2.46,2.69,8.24,5.73,16.38,8.07,24.72,3.08,10.99,5.64,22.12,8.37,33.2.74,2.98,1.29,6.01,1.93,9.01ZM560.24,518.83c-8.95,27.33-15.38,54.87-18.18,83.24.83-.99,1.4-2.09,1.62-3.25.91-4.73,1.48-9.54,2.62-14.2,1.89-7.73,4.06-15.39,6.25-23.04,2.53-8.85,4.11-18.02,8.68-26.2.24-.43.39-1.01.35-1.5-.41-4.89-.87-9.77-1.35-15.05ZM442.89,751.73c-.37-.19-.74-.38-1.11-.58-1.64,2.29-3.48,4.46-4.89,6.88-4.58,7.86-9.91,15.1-16.58,21.33-.57.53-1.24,1.35-1.25,2.04-.11,5.06-.06,10.12-.06,15.18.31.1.63.21.94.31,10.99-13.35,15.5-30,22.95-45.16ZM186.21,797.06c.17-.2.34-.41.52-.61,0-4.5.13-9-.08-13.49-.07-1.39-.83-2.93-1.7-4.07-4.88-6.41-9.93-12.68-14.82-19.08-2.2-2.89-4.15-5.97-6.22-8.96-.24.13-.48.25-.72.38.38,1.15.67,2.35,1.16,3.45,4.93,11,9.71,22.08,14.95,32.93,1.67,3.45,4.57,6.31,6.91,9.44ZM133.56,44.59c-2.89,9.37-9.49,16.17-16.21,23.02,3.77,4.28,7.29,8.28,11.26,12.8-.2-2.09-.29-3.44-.47-4.79-.28-2.06-1.35-4.32-.81-6.12,2.03-6.68,4.7-13.06,11.44-16.66,2.02-1.08,3.66-2.85,5.92-4.65-4.14-1.34-7.48-2.42-11.15-3.61ZM461.39,48.16c1.71,1.57,2.81,3.2,4.35,3.91,6.36,2.91,9.67,8.29,11.8,14.46.83,2.41.61,5.25.54,7.88-.05,1.86-.65,3.71-1.01,5.56l.54.11c3.59-4.15,7.18-8.29,10.97-12.66-7.19-6.78-13.23-13.94-16.39-22.79-3.75,1.23-7.01,2.3-10.79,3.53ZM370.62,823.16c-.76-10.24-1.51-20.29-2.27-30.51-2.8.58-5.41,1.12-8.36,1.72.8,8.03,1.39,15.72,2.39,23.37.78,6.01,1.01,5.98,8.24,5.41ZM72.76,222.53c-5.91,6.73-11.5,12.69-16.58,19.06-2.15,2.69-3.96,6.1-4.59,9.44-.56,3.02.7,6.39,1.15,9.54,3.54-5.47,6.65-11.09,10.56-16.09,4.9-6.28,8.35-13.01,9.46-21.95ZM552.98,259.84c.12-.53.5-1.52.55-2.52.13-2.88,1.03-6.13.03-8.58-4.19-10.17-12.5-17.23-20.24-25.43,1.01,7.25,3.37,13.26,7.36,18.73,4.25,5.83,8.22,11.87,12.31,17.8ZM234.92,823.29c2.42,0,4.21.15,5.94-.07.71-.09,1.81-.94,1.89-1.55.85-6.92,1.54-13.86,2.3-20.96-2.44-.43-5.07-.9-8-1.42-.71,8.01-1.4,15.79-2.12,24ZM229.23,37.44c-2.72,3.42-4.27,6.68-1.71,10.82,1.24,2.01,1.71,4.48,2.57,6.73,2.19,5.72,4.41,11.43,6.67,17.3,1.11-4.93,2.23-9.68,3.17-14.46.12-.63-.61-1.48-1.07-2.15-1.61-2.35-3.57-4.51-4.85-7.02-1.83-3.58-3.18-7.4-4.78-11.21ZM376.73,37.15c-1.67,4.08-3,7.81-4.72,11.36-1.16,2.38-2.56,4.82-4.45,6.62-1.44,1.38-1.94,2.34-1.34,4.19.68,2.09,1.11,4.27,1.55,6.43.42,2.1.71,4.22,1.21,7.19,3.19-8.51,5.79-16.13,8.93-23.52,1.72-4.05,2.32-7.64-.48-11.3-.13-.16-.24-.33-.71-.96ZM86.75,286.71c6.41-9.99,14.79-18.2,18.59-28.62-6.72,5.09-13.73,10.4-20.71,15.69.68,4.18,1.4,8.55,2.11,12.93ZM390.22,813.23c5.22-1.93,7.25-4.88,6.82-8.89-.5-4.68-.74-9.4-1.09-14.1-.15-2.03-.31-4.07-.46-6.15-4.4.96-4.42.96-5.12,5.15-1.32,7.9-1.8,15.81-.15,23.99ZM519.03,286.4c.71-4.31,1.41-8.62,2.08-12.69-6.83-5.16-13.68-10.33-20.64-15.58,4.16,10.67,12.18,18.77,18.55,28.28ZM270.09,128.28c.34-.08.68-.16,1.02-.24-1.72-12.98-3.44-25.95-5.05-38.09-1.87,5.36-4.07,11.5-6.09,17.69-.27.83,0,2.2.56,2.89,4.25,5.34,7.83,11.02,9.57,17.75ZM382.75,817.84v-29.34c-6.31,1.45-7,1.98-6.7,8.12.38,7.73,1.22,15.44,1.91,23.62,2.12-1.06,3.86-1.93,4.79-2.39ZM340.11,90.1c-1.78,12.35-3.71,25.74-5.72,39.68,3.07-5.76,5.3-11.1,8.55-15.7,2.55-3.6,3.48-6.39,1.48-10.64-2.15-4.55-3.16-9.63-4.31-13.34ZM215.59,813.13c.35-2.33.91-4.39.91-6.46,0-4.18-.07-8.4-.56-12.55-.55-4.67-1.19-5.05-5.81-5.63-.35,4.79-.51,9.6-1.1,14.36-.66,5.35,1.02,8.38,6.56,10.27ZM311.22,880.48c-2.65-5.75-5.39-11.72-8.25-17.92-2.94,6.25-5.81,12.36-8.42,17.92h16.67ZM550.16,157.46c-.25-.18-.5-.36-.75-.54-3.91,5.96-7.83,11.92-12.25,18.66h14.41c-.47-6.06-.95-12.09-1.42-18.12ZM56.76,157.39c-.23.18-.46.37-.69.55-.61,5.92-1.22,11.84-1.87,18.16,4.62-.2,9.18-.4,14.5-.64-4.36-6.61-8.15-12.34-11.93-18.07ZM252.75,71.66c3.63-2.69,7.35-5.41,11-8.21.6-.46,1.4-1.37,1.29-1.91-1.11-5.55-2.39-11.07-3.78-17.28-3.04,9.79-5.8,18.65-8.52,27.4ZM344.61,44.17c-1.34,6.02-2.58,11.32-3.65,16.65-.15.72.26,1.92.83,2.36,3.73,2.91,7.58,5.67,11.32,8.42-2.73-8.81-5.48-17.69-8.5-27.44ZM207.43,330.05c-.26,3.61-.39,7.16-.79,10.68-.48,4.16,1.97,6.27,5.05,8.17,1.5-6.05,2.96-11.94,4.49-18.1-2.89-.25-5.58-.48-8.74-.75ZM389.62,330.77c1.61,6.32,3.11,12.21,4.76,18.67,1.68-1.94,4.22-3.52,4.42-5.35.49-4.66-.06-9.42-.2-14.04-3.42.27-6.01.48-8.98.72ZM427.23,854.63c-2.81-.55-5.74-1.8-8.48-1.48-2.86.33-5.54,2.18-8.31,3.36-.19.08-.39.14-.59.22-4.23,1.63-8.46,3.26-12.72,4.9,10.97,1.53,21.17-.07,30.1-7ZM256.68,789.4c-1.45-6.75-2.88-13.42-4.28-19.96h-7.3c2.09,5.93,4.31,11.67,6.11,17.53.79,2.6,2,3.43,5.47,2.42ZM224.34,795.74c-.7,7.02-1.39,13.77-2.02,20.53-.04.49.3,1.25.7,1.49,1.38.82,2.86,1.46,4.46,2.24.75-6.35,1.42-12.26,2.16-18.17.27-2.16.1-3.91-2.46-4.6-1.06-.28-1.99-1.04-2.84-1.5ZM178.51,854.61c8.96,6.63,18.97,8.72,29.32,7.06-5.7-2.53-11.78-5.28-17.9-7.9-1.09-.47-2.42-.7-3.59-.57-2.59.3-5.14.91-7.83,1.41ZM243.98,789.34c-.07-.74-.03-1.08-.14-1.36-2.19-5.64-4.53-11.22-6.53-16.93-.74-2.12-1.75-2.83-4.5-2.37,1.26,6.63,2.5,13.13,3.75,19.71,2.4.3,4.74.6,7.42.94ZM349.52,794.96c0,7.66-.13,15,.05,22.34.1,4.11.84,4.56,5.83,4.97-.98-9.16-1.95-18.26-2.92-27.44-.9.04-1.72.08-2.96.13ZM250.15,822.76c2.58-.92,5.66-.25,5.74-3.6.15-6.54.04-13.09.04-19.89-1.23.37-2.17.66-3.18.97-.86,7.45-1.7,14.69-2.61,22.52ZM349.94,784.72c2.42-.62,4.68-.56,5.1-1.42,2.22-4.45,3.97-9.13,5.92-13.83h-7.6c-1.09,4.85-2.14,9.52-3.42,15.25ZM338.33,794.98c-.19,1.9-.5,3.45-.49,5.01.04,4.47.06,8.95.39,13.4.14,1.9,1.22,3.5,3.61,3.25v-21.66h-3.52ZM95.34,107.54c-1.16-5.34-2.29-9.86-3.08-14.44-.66-3.81-3.13-5.37-6.21-6.14-1.17,8.35,3.3,14.3,9.29,20.58ZM284.87,787.03c2.97.9,2.8-.8,2.62-2.44-.58-5.4-1.15-10.8-1.8-16.19-.07-.58-.61-1.46-1.09-1.59-2.02-.54-4.11-.84-7.12-1.41,3.32,7.64,7.93,13.73,7.39,21.62ZM520.04,86.55c-1.85,1.13-4.62,1.83-5.1,3.28-1.74,5.33-2.72,10.9-3.99,16.39.27.08.54.15.81.23,2.38-3.02,4.78-6.02,7.12-9.06.36-.46.6-1.11.64-1.7.21-2.89.34-5.79.52-9.13ZM247.77,333.35c-6.21-.39-11.81-.74-17.33-1.08-.44,3.91,1.53,4.98,4.51,5.26,2.26.22,4.62.4,6.7,1.2,2.55.98,3.93.56,4.64-2.09.24-.88.74-1.69,1.47-3.3ZM375.44,332.21c-5.83.41-11.4.79-17.33,1.21.92,2.04,1.34,3.5,2.18,4.66.45.63,1.64,1.09,2.45,1.02,1.95-.15,3.85-.72,5.79-1.01,6.01-.91,6.38-1.17,6.91-5.87ZM318.36,784.41c.28.23.56.46.84.68.66-.65,1.61-1.18,1.93-1.96,1.69-4.15,3.21-8.36,4.82-12.54.55-1.42,1.17-2.82,1.79-4.29-5.37-1.24-7.23.08-7.43,4.8-.04.83-.23,1.66-.35,2.49-.53,3.61-1.07,7.21-1.6,10.82ZM263.72,816.75c4.07-.86,5.72-7.79,4.01-16.7h-4.01v16.7ZM223.32,765.48c-.28.17-.57.33-.85.5,0,3.65,0,7.3,0,10.94,0,4.78,1.23,6.4,6.15,8.05-.61-2.8-1.32-5.53-1.77-8.29-.45-2.78-.43-5.65-1.04-8.38-.24-1.07-1.63-1.89-2.49-2.82ZM587.81,351.22c-1.05,7.06-2.08,13.96-3.19,21.41,6.85-8.19,8.37-18.19,3.19-21.41ZM211.61,759.52c-.15,1.22-.41,2.42-.44,3.62-.08,3.24.36,6.57-.21,9.72-.65,3.55,1.6,4.12,4.24,5.57,0-4.15-.41-7.85.12-11.4.5-3.36.3-5.9-3.71-7.51ZM438.35,73.11c-.61-.79-1.41-1.83-1.82-2.36-9.15,2.04-8.2,8.93-8.37,15.17,3.28-4.12,6.58-8.28,10.18-12.81ZM372.79,768.82c-.36-.25-.71-.5-1.07-.74-.97.59-2.43.96-2.82,1.82-1.91,4.13-3.53,8.39-5.44,13.05,1.69-.44,3-.66,4.22-1.13,1.11-.43,2.83-.95,3.04-1.75.93-3.69,1.42-7.49,2.08-11.25ZM169.57,70.3c-.69,1-1.43,2.1-1.96,2.86,3.48,4.37,6.73,8.44,9.99,12.52-.16-3.24-.26-6.47-.53-9.68-.06-.66-.65-1.46-1.23-1.85-1.98-1.33-4.07-2.52-6.26-3.85ZM21.25,372.45c-1.18-7.56-2.23-14.3-3.29-21.14-4.97,2.82-3.47,13.31,3.29,21.14ZM590.01,442.75c-4.69,3.96-7.7,10.63-6.99,15.09,6.3-3.03,7.41-5.37,6.99-15.09ZM16.34,442.87c-1.51,8.35.49,12.72,6.68,14.89.04-5.96-2.63-10.56-6.68-14.89ZM269.97,767.1c-.1-.02-.2-.03-.3-.05.13.96.19,1.93.4,2.87,1.11,5.1,2.18,10.21,3.46,15.26.27,1.05,1.38,1.88,2.1,2.81.38-1.22,1.15-2.46,1.06-3.64-.14-1.73-.77-3.47-1.44-5.1-1.68-4.08-3.51-8.11-5.28-12.16ZM390.86,773.94c1.35-.77,3.33-1.33,3.38-2.03.3-4.07.15-8.18.15-12.27-.3-.06-.6-.13-.9-.19-1.17,1.22-3.25,2.38-3.34,3.67-.24,3.37.39,6.81.72,10.82ZM319.66,794.51c-.25.22-.5.44-.74.66,0,4.57-.1,9.14.09,13.7.04.82,1.29,1.59,1.98,2.38.35-.2.71-.39,1.06-.59-.26-4.56-.45-9.13-.85-13.68-.08-.86-1.01-1.65-1.55-2.47ZM238.95,355.84c-1.91-.54-3.89-1.11-6.74-1.92,1.62,5.17,2.94,9.38,4.26,13.59.16-.06.31-.12.47-.18.63-3.59,1.26-7.18,2.01-11.49ZM369.01,366.24c.27.04.55.09.82.13,1.14-3.85,2.29-7.7,3.43-11.55l-.75-.69c-1.9.59-3.81,1.18-5.67,1.75.77,3.69,1.47,7.02,2.16,10.35ZM332.25,784.65c.88-3.24,1.78-6.14,2.43-9.11.61-2.78.95-5.62,1.41-8.44-.18-.01-.36-.03-.54-.04-2.25,5.73-4.5,11.46-6.91,17.59h3.6ZM266.55,789.73c-1.48-6.84-2.86-13.37-4.35-19.88-.17-.73-.95-1.31-1.45-1.97-.15.77-.52,1.58-.4,2.3,1.05,6.36,2.19,12.7,3.32,19.05.03.18.22.33.34.5h2.54ZM383.21,766.08c-.3-.18-.59-.35-.89-.53-.83.78-2.26,1.46-2.4,2.35-.51,3.23-.6,6.53-.84,9.81l.74.62c1.13-1.07,3.03-2.02,3.23-3.25.48-2.93.15-5.99.15-9ZM284.27,811.04c2.93-1.15,3.7-5.94,2.5-13.98-1.04,1.01-2.36,1.69-2.4,2.43-.22,3.72-.1,7.45-.1,11.55ZM293.81,769.86c.8,5.96,1.53,11.37,2.38,17.66,1.98-5.24.57-16.01-2.38-17.66ZM30.31,330.02c.32,3.36.62,6.59.92,9.81.29.03.58.06.87.09.55-2.16,1.01-4.34,1.66-6.46.87-2.85-.53-3.52-3.45-3.44ZM344.57,767c-1.55,6.49-2.87,12.04-4.24,17.78.54-.07,1.4-.02,1.45-.2,1.31-4.94,2.58-9.89,3.73-14.87.14-.61-.46-1.38-.94-2.71ZM311.83,770.33c-3.32,3.45-4.06,12.09-1.91,15.04.65-5.14,1.28-10.09,1.91-15.04ZM573.72,339.95c.27-.06.53-.13.8-.19.32-3.22.63-6.45.97-9.96-2.31.32-4.02.42-3.56,2.72.49,2.5,1.19,4.96,1.79,7.43ZM20.96,419c-3.56,6.05,2.86,6.88,4.58,10.03-1.48-3.24-2.96-6.48-4.58-10.03ZM374.36,345.65c-.15-.3-.3-.6-.45-.9-3.36.52-6.72,1.04-10.37,1.6.49,1.01.83,1.72,1.41,2.91,2.38-3.35,6.99-.82,9.41-3.61ZM231.87,344.78l-.57.77c.79.47,1.52,1.12,2.37,1.36,1.87.54,3.9.63,5.69,1.36,2.05.84,2.63.19,2.66-1.97-3.4-.51-6.77-1.02-10.14-1.53ZM584.83,419.19c-1.61,3.51-3.1,6.77-4.6,10.04,1.55-1.13,2.59-2.7,4.01-3.77,2.34-1.77,2.4-3.62.59-6.26ZM27.24,490.51c1.13,2.9,2.26,5.8,3.51,9,1.57-4.28,1.08-5.72-3.51-9ZM400.89,770.86c2.08-3.21,1.83-7.92,0-10.34v10.34ZM578.45,490.72c-4.95,3.74-5.2,4.44-3.19,8.18,1.12-2.88,2.15-5.53,3.19-8.18ZM204.68,760.47c-1.69,3.72-1.42,7.49-.8,11.27.27,0,.53.01.8.02v-11.29Z" style="fill: #000; stroke-width: 0px;"/>
  <path d="M302.73,730.42c4.56.07,6.34,1.36,6.25,4.53-.1,3.57-2.19,5.24-6.43,5.13-3.85-.09-5.9-2.03-5.83-5.49.05-2.87,2.02-4.23,6.02-4.17Z" style="fill: #000; stroke-width: 0px;"/>
  <path d="M239.26,734.84c-2.6.85-5.06,1.27-6.19-1.81-.77-2.12.28-3.72,2.3-4.5,2.59-1,4.21.17,5.07,2.61,4.23-.75,7.34.33,7.74,3.11.19,1.32-.6,3.4-1.65,4.16-2.01,1.45-5.11-.24-7.28-3.57Z" style="fill: #000; stroke-width: 0px;"/>
  <path d="M364.57,731.12c1.42-1.16,2.38-2.59,3.45-2.67,1.35-.1,3.13.56,4.06,1.53.68.71.81,2.82.24,3.63-.69.98-2.47,1.85-3.63,1.69-1.73-.24-2.55.09-3.59,1.45-.74.97-2.25,1.76-3.46,1.84-1.27.08-3.27-.43-3.73-1.32-.57-1.1-.35-3.14.35-4.26,1.52-2.42,3.98-2.9,6.31-1.89Z" style="fill: #000; stroke-width: 0px;"/>
  <path d="M303.04,707.48c2.68-.74,4.66.15,5.59,2.94.95,2.88-.98,5.04-3.98,4.61-1.09-.16-2.24-.25-3.31-.07-2.37.39-3.99-.28-4.36-2.79-.36-2.43,1.5-4.82,3.76-4.93.72-.03,1.46.14,2.3.24Z" style="fill: #000; stroke-width: 0px;"/>
  <path d="M347.99,730.67c.19-.83.14-1.72.51-1.98,1.34-.94,2.87-2.35,4.24-2.25,1.08.08,2.9,2.19,2.8,3.24-.13,1.37-1.72,2.73-2.92,3.82-.89.81-2.16,1.21-3.29,1.75-1.28.61-2.64,1.67-3.86,1.55-.78-.08-2.13-2.18-1.89-2.97.37-1.21,1.85-2.1,2.94-3.04.25-.22.8-.08,1.47-.12Z" style="fill: #000; stroke-width: 0px;"/>
  <path d="M253.01,725.64c1.5.68,2.99.98,3.04,1.45.45,3.85,5.85,3.05,6.17,6.67.08.97-.8,2.5-1.67,2.93-.86.43-2.9.21-3.29-.42-1.23-1.97-3.07-2.37-4.94-3.2-1.14-.51-2.26-2.63-2.15-3.92.1-1.23,1.82-2.33,2.84-3.5Z" style="fill: #000; stroke-width: 0px;"/>
  <path d="M302.65,751.27c-3.88.05-5.4-.97-5.34-3.58.07-2.77,2.09-4.5,5.32-4.55,3.55-.05,5.89,1.81,5.85,4.69-.03,2.48-1.58,3.39-5.83,3.44Z" style="fill: #000; stroke-width: 0px;"/>
  <path d="M303.14,719.81c.63,0,1.4-.24,1.85.04,1.3.82,3.25,1.7,3.48,2.85.23,1.17-1.04,3.61-2.06,3.87-2.27.59-4.91.56-7.18-.05-.95-.26-1.96-2.71-1.77-4,.15-1.03,1.98-1.96,3.22-2.64.64-.35,1.63-.06,2.47-.06Z" style="fill: #000; stroke-width: 0px;"/>
  <path d="M283.2,710.32c-.26,2.14-1.09,3.99-3.74,4.1-2.76.11-5.35-2.69-5.22-5.59.11-2.55,1.69-3.79,4.06-3.93,2.26-.14,4.93,2.85,4.9,5.42Z" style="fill: #000; stroke-width: 0px;"/>
  <path d="M326.12,714.43c-2.25-.16-3.37-1.73-3.49-4.11-.14-2.57,2.3-5.33,4.7-5.46,2.19-.12,4.25,1.88,4.25,4.14,0,2.68-2.55,5.37-5.46,5.42Z" style="fill: #000; stroke-width: 0px;"/>
  <path d="M262.36,743.04c-.04-3.2,3.04-6.85,5.51-6.87,2.03-.02,3.17,1.04,3.17,3.09,0,3.06-2.78,6.83-5.04,6.83-2.23,0-3.49-1.21-3.63-3.04Z" style="fill: #000; stroke-width: 0px;"/>
  <path d="M337.23,736.13c3.37.06,6.98,4.63,5.96,7.19-.45,1.13-1.9,2.58-2.92,2.6-1.28.02-3.19-.99-3.72-2.09-.92-1.9-1.15-4.2-1.29-6.36-.03-.48,1.54-1.06,1.96-1.33Z" style="fill: #000; stroke-width: 0px;"/>
  <path d="M234.02,746.33c-.26,2.07-1.27,3.74-3.85,3.81-2.36.06-4.08-1.9-4.13-4.57-.05-2.71,1.42-4.46,3.72-4.43,2.29.03,4.25,2.31,4.25,5.18Z" style="fill: #000; stroke-width: 0px;"/>
  <path d="M375.24,750.16c-2.18-.24-3.38-1.77-3.47-4.14-.11-2.68,1.88-4.92,4.24-4.86,2.61.07,3.67,1.7,3.72,4.09.05,2.84-1.77,4.92-4.49,4.9Z" style="fill: #000; stroke-width: 0px;"/>
  <path d="M356.38,742.75c-.1,3.23-1.72,5.17-3.96,5.16-2.18,0-3.84-1.83-3.75-4.1.12-2.93,1.94-5.27,4.08-4.98,2.43.33,3.49,2,3.63,3.93Z" style="fill: #000; stroke-width: 0px;"/>
  <path d="M317.58,735.97c-2.27-.08-4.09-2.32-3.83-4.87.22-2.17,1.47-3.47,3.69-3.55,2.17-.08,4.41,2.37,4.35,4.59-.05,2.11-2.03,3.91-4.21,3.83Z" style="fill: #000; stroke-width: 0px;"/>
  <path d="M291.94,731.52c-.02,2.57-1.65,4.5-3.88,4.44-2.49-.06-3.91-1.4-3.99-3.92-.08-2.35,2.07-4.5,4.36-4.51,2.07-.01,3.52,1.64,3.51,3.99Z" style="fill: #000; stroke-width: 0px;"/>
  <path d="M257.04,744.27c-.14,1.95-1.17,3.45-3.59,3.63-2.25.16-3.8-1.61-3.9-4.35-.1-2.71,1.32-4.67,3.46-4.75,2.17-.08,3.96,2.21,4.02,5.47Z" style="fill: #000; stroke-width: 0px;"/>
  <path d="M290.31,713.98c-2.26,0-4.46-2.01-4.31-4.12.17-2.37,1.74-3.69,3.95-3.69,2.29,0,4.07,1.22,4.29,3.74.19,2.14-1.78,4.06-3.93,4.06Z" style="fill: #000; stroke-width: 0px;"/>
  <path d="M369.5,720.54c.05,3.43-1.76,5.52-3.98,5.5-2.28-.01-3.79-1.08-3.9-3.54-.11-2.35,2.03-4.8,4.27-4.32,1.51.32,2.77,1.78,3.61,2.35Z" style="fill: #000; stroke-width: 0px;"/>
  <path d="M244.08,722.91c-.18,1.96-1.5,3.18-3.86,3.15-2.21-.03-4.23-2.15-4.04-4.35.2-2.29,1.56-3.61,3.92-3.6,2.19.01,4.05,2.14,3.98,4.8Z" style="fill: #000; stroke-width: 0px;"/>
  <path d="M319.71,709.95c0,2.14-2.07,4.13-4.34,4.01-2.33-.13-3.6-1.38-3.65-3.79-.06-2.65,1.57-3.76,3.87-4,2.18-.23,4.12,1.67,4.13,3.78Z" style="fill: #000; stroke-width: 0px;"/>
  <path d="M340.68,718.17c-2.16-.16-3.54-1.3-3.63-3.71-.08-2.36,1.63-4.21,3.79-4.07,2.39.16,3.51,1.64,3.57,3.94.07,2.41-1.18,3.67-3.74,3.83Z" style="fill: #000; stroke-width: 0px;"/>
  <path d="M265.01,710.35c2.4.25,3.57,1.6,3.64,3.93.07,2.41-1.13,3.8-3.53,3.86-2.34.05-3.83-1.21-3.83-3.59,0-2.37,1.22-3.93,3.73-4.19Z" style="fill: #000; stroke-width: 0px;"/>
  <path d="M320.95,740.73c-.09-2.78,1.81-5.13,3.97-4.59,1.38.34,3.02,1.86,3.47,3.21.68,2.03-1.67,4.51-3.79,4.49-2.22-.02-3.51-1.19-3.64-3.11Z" style="fill: #000; stroke-width: 0px;"/>
  <path d="M290.23,743.87c-1.91-.15-3.27-1.23-3.35-3.52-.07-2.1,2.29-4.45,4.42-3.85,1.4.39,3.01,1.94,3.47,3.31.63,1.9-1.93,4.03-4.54,4.06Z" style="fill: #000; stroke-width: 0px;"/>
  <path d="M318.82,740.8c-.25,1.91-1.49,3.08-3.72,3.05-2.51-.04-4.1-1.78-3.99-4.21.1-2.22,1.44-3.19,3.44-3.23,2.37-.05,4.37,1.96,4.27,4.4Z" style="fill: #000; stroke-width: 0px;"/>
  <path d="M284.75,739.75c-.06,2.66-1.12,4.01-3.42,4.1-2.25.08-4.14-1.98-3.97-4.34.16-2.16,1.23-3.64,3.58-3.46,2.44.19,3.74,1.65,3.81,3.71Z" style="fill: #000; stroke-width: 0px;"/>
  <path d="M336.31,721.72c3.39.28,5.06,1.32,5.18,3.85.1,2.11-1.08,3.4-3.22,3.38-2.39-.03-4.22-1.38-4.16-3.73.03-1.32,1.59-2.59,2.2-3.5Z" style="fill: #000; stroke-width: 0px;"/>
  <path d="M266.71,729.22c-.69-.96-2.03-2.11-2.39-3.51-.51-1.99,1.62-3.83,3.89-3.86,2.15-.03,3.45,1.07,3.46,3.16.02,2.52-1.75,3.57-4.96,4.22Z" style="fill: #000; stroke-width: 0px;"/>
  <path d="M251.47,721.95c-.97-1.34-2.5-2.57-2.78-4.05-.38-2.05,1.05-3.58,3.29-3.66,2.37-.08,4.01,1.35,3.71,3.58-.2,1.46-1.79,2.74-2.75,4.1-.49,0-.98.01-1.47.02Z" style="fill: #000; stroke-width: 0px;"/>
  <path d="M377.46,720.07c2.45-.02,4.18,1.11,4.15,3.61-.03,2.25-1.81,3.19-3.91,3.12-2.22-.07-3.84-1.12-3.93-3.55-.09-2.47,1.55-3.17,3.69-3.19Z" style="fill: #000; stroke-width: 0px;"/>
  <path d="M243.49,744.73c-1.23.8-2.36,2.05-3.7,2.31-1.94.38-4.55-2.32-3.95-4.22.42-1.35,1.97-2.91,3.31-3.29,1.78-.49,3.92,2.36,4.34,5.2Z" style="fill: #000; stroke-width: 0px;"/>
  <path d="M370.51,742.2c-.55,2.79-2.86,5.38-4.71,4.81-1.25-.39-2.68-1.9-3-3.17-.48-1.94,2.18-4.82,3.9-4.35,1.41.38,2.54,1.77,3.8,2.71Z" style="fill: #000; stroke-width: 0px;"/>
  <path d="M317.4,725.27c-3.41-.24-4.76-1.5-4.84-3.84-.07-2.11,1.11-3.47,3.22-3.46,2.32.02,3.94,1.54,3.77,3.75-.1,1.37-1.56,2.65-2.14,3.56Z" style="fill: #000; stroke-width: 0px;"/>
  <path d="M324.72,719.04c2.37-.03,3.8,1.02,3.82,3.32.02,2.26-1.35,3.5-3.59,3.53-2.23.02-3.64-1.15-3.69-3.42-.05-2.29,1.23-3.47,3.46-3.43Z" style="fill: #000; stroke-width: 0px;"/>
  <path d="M281.02,719.04c2.02-.12,3.42.97,3.47,3.22.06,2.38-1.38,3.66-3.74,3.64-2.19-.02-3.63-1.23-3.61-3.45.02-2.18,1.32-3.42,3.88-3.4Z" style="fill: #000; stroke-width: 0px;"/>
  <path d="M231.93,723.7c-.2,2.12-1.81,3.06-4.02,3.1-2.18.04-3.79-1.05-3.72-3.33.08-2.37,1.72-3.41,4.07-3.39,2.19.02,3.68.77,3.67,3.62Z" style="fill: #000; stroke-width: 0px;"/>
  <path d="M328.76,735.01c-.65-.96-2.17-2.25-2.37-3.73-.28-2.03,1.19-3.49,3.45-3.57,2.26-.08,3.65,1.15,3.63,3.35-.01,2.22-1.27,3.68-4.71,3.95Z" style="fill: #000; stroke-width: 0px;"/>
  <path d="M357.3,716.84c-.33,3.3-1.53,4.61-3.79,4.53-2.22-.08-3.59-1.37-3.5-3.63.09-2.19,1.45-3.82,3.63-3.39,1.49.3,2.74,1.82,3.66,2.49Z" style="fill: #000; stroke-width: 0px;"/>
  <path d="M289.94,725.17c-2.52.01-3.74-1.15-3.74-3.25,0-2.27,1.22-3.85,3.6-3.96,2.13-.1,3.44,1.29,3.44,3.29,0,2.2-1.23,3.72-3.3,3.91Z" style="fill: #000; stroke-width: 0px;"/>
  <path d="M272.27,731.28c.17-2.3,1.26-3.62,3.55-3.56,2.2.05,3.56,1.29,3.61,3.47.05,2.13-1.12,3.62-3.36,3.69-2.4.08-3.49-1.47-3.8-3.6Z" style="fill: #000; stroke-width: 0px;"/>
</svg>