<?xml version="1.0" encoding="UTF-8"?>
<svg id="Layer_1" data-name="Layer 1" xmlns="http://www.w3.org/2000/svg" viewBox="0 0 416.09 900">
  <path d="M364.56,391.27c-1.35,2.03-2.94,3.94-4.02,6.11-4.07,8.21-7.96,16.51-11.95,24.76-1.01,2.08-2.07,4.14-3.23,6.14-.88,1.52-2.1,2.77-4.09,2.06-1.85-.66-2.06-2.3-1.9-3.97,1.24-12.9,4.37-25.2,12.23-35.79,2.59-3.49,5.76-6.57,8.81-9.7.91-.93,2.24-1.61,3.51-1.97,1.83-.51,2.49-1.49,2.25-3.29-1.08-7.91-2.13-15.81-3.22-23.72-.03-.19-.28-.34-.64-.75-.82,1.18-1.63,2.23-2.32,3.34-6.91,11.12-12.2,22.95-15.74,35.57-2.11,7.54-4.86,14.85-8.37,21.86-.39.78-.77,1.74-1.44,2.16-.93.57-2.28,1.18-3.17.9-.89-.28-1.79-1.56-2.03-2.55-.28-1.17.1-2.51.27-3.77,1.92-14.09,7.59-26.99,12.81-40.02,3.09-7.72,6.41-15.36,11.58-21.96,1.62-2.08,4-3.55,5.85-5.47.62-.64,1.09-1.95.9-2.77-2.72-11.46-3.2-23.12-2.5-34.76,1.24-20.58,5.06-40.55,15.95-58.55,6.92-11.44,15.17-21.91,23.84-32.02,3.69-4.3,6-8.77,5.16-14.55-.77-5.26-1.44-10.52-2.15-15.79-.3-.05-.6-.1-.9-.15-.56.6-1.27,1.11-1.65,1.8-1.87,3.33-3.78,6.65-5.46,10.08-4.92,10.03-9.73,20.11-14.62,30.15-1.43,2.94-3,3.93-4.84,3.31-1.88-.63-2.42-2.46-1.64-5.81,2.55-10.96,6.75-21.3,12.12-31.15,2.06-3.77,4.34-7.47,6.95-10.87,1.6-2.08,4.05-3.49,6.03-5.3.6-.55,1.36-1.51,1.25-2.15-1.5-8.73-3.14-17.44-4.77-26.15-.08-.42-.39-.8-.84-1.69-2.13,3.13-4.13,5.89-5.93,8.77-10.82,17.29-17.81,36.18-23.21,55.73-1.66,6-3.32,12.02-5.46,17.86-1.52,4.16-3.82,8.03-5.84,12-.39.76-.95,1.66-1.67,1.98-1.21.54-2.88,1.25-3.84.8-.97-.46-1.89-2.27-1.83-3.44.16-3.17.48-6.43,1.39-9.45,6.23-20.7,11.57-41.73,21.02-61.32,5.86-12.14,13.42-23.18,22.15-33.45.65-.76.82-2.45.48-3.46-2.98-8.92-6.02-17.83-9.26-26.65-2.71-7.37-6.43-14.19-10.95-20.67-5.55-7.95-12.85-13.98-20.42-19.69-6.29-4.74-13-8.92-19.58-13.27-1.16-.77-2.58-1.14-4.04-1.76-.2.63-.42.98-.41,1.33.06,7.96-3.67,11.68-12.14,14.4-.83.27-1.74.27-2.58.51-3.73,1.08-7.06,1.21-10.05-2.09-3.79-4.18-6.41-8.66-5.2-14.46.98-4.69,4.56-7.17,8.68-8.87,2.25-.93,4.66-1.47,7.83-2.45-3.15-3.05-5.57-6.28-8.76-8.28-6.19-3.89-12.54-7.81-19.33-10.38-8.77-3.31-17.94-5.77-27.12-7.7-6.02-1.26-12.36-1.14-18.57-1.27-6.97-.14-12.92,3.11-18.85,6.32-1.38.75-2.93,1.58-4.41,1.59-1.17,0-2.86-.92-3.38-1.92-.45-.87-.02-2.87.75-3.6,6.98-6.68,14.89-11.26,24.94-11.78,19.47-1,37.92,3.61,55.93,10.15,12.03,4.37,21.24,12.52,27.23,24,1.06,2.03,2.4,2.98,4.68,3.45,7.49,1.55,13.98,5.41,20.13,9.74,13.39,9.42,25.63,20.12,35.05,33.66,6.95,9.98,11.41,21.23,15.6,32.53,6.61,17.78,11.35,36.05,14.02,54.88.9,6.37,2.97,12.57,4.45,18.86.64,2.72,1.21,5.46,1.64,8.21,1.65,10.69-1.87,19.47-9.44,27.09-10.58,10.65-19.47,22.68-26.1,36.14-4.98,10.11-7.99,20.82-9.15,32.27-1.05,10.37-.62,20.72-1.4,31.06-.12,1.65.09,3.35.34,5,1.98,12.93,4.17,25.83,5.97,38.79,1.55,11.14,1,22.19-1.25,33.31-2.31,11.43-5.46,22.47-10.57,32.93-.87,1.79-1.82,3.57-2.96,5.19-5.99,8.59-10.12,18.11-13.62,27.89-1.3,3.63-2.24,7.65-2.12,11.46.39,12.12-1.08,24.06-2.53,36.03-.67,5.57-.71,11.06,1.3,16.53.95,2.59.8,5.66.83,8.51.24,25.67,2.51,51.18,6.57,76.51,1.65,10.27,7.26,18.41,14.6,25.76,8.34,8.34,16.25,17.21,20.62,28.51,1.87,4.84,2.65,9.84,2.36,15.03-.22,4-1.9,7.41-4.3,10.47-4.79,6.1-10.42,11.22-17.52,14.56-5.56,2.61-11.12,5.24-16.68,7.86-2.5,1.18-2.91,2.38-1.55,4.7,9.47,16.18,9.24,32.2-1.81,47.37-11.42,15.66-24.63,29.56-42.59,38.04-3.54,1.67-3.54,1.81-1.95,5.35,2.95,6.56,2.88,13.51,2.76,20.47-.06,3.51-.21,7.02-.34,10.53-.33,9.31-4.88,16.43-11.97,21.97-5.4,4.23-10.85,8.28-15.53,13.41-2.37,2.6-6.05,3.99-9.16,5.92-2.08,1.29-4.41,2.29-6.24,3.87-13.32,11.48-28.47,14.25-45.22,9.86-1.54-.4-3.13-.65-4.65-1.11-1.49-.45-2.92-1.08-4.38-1.64-5.99,2.18-12.22,4.32-18.87,4.63-13.65.65-25.91-2.82-36.09-12.41-1.3-1.22-3-2.15-4.67-2.81-5.09-2.01-9.3-5.09-12.95-9.18-2.31-2.59-5.16-4.7-7.83-6.97-2.79-2.37-5.79-4.52-8.43-7.05-5.31-5.09-8.05-11.44-8.24-18.81-.16-6.22-.52-12.47-.11-18.67.27-4.15,1.49-8.29,2.72-12.29,1.04-3.38,1.37-3.39-1.78-4.88-18.34-8.64-31.75-22.85-43.42-38.86-8.97-12.31-10.25-25.85-4.83-40.02.85-2.22,2.06-4.31,3.27-6.37,1.52-2.6,1.22-3.83-1.45-5.09-5.99-2.83-12.03-5.56-17.95-8.53-6.84-3.43-12.22-8.62-16.8-14.68-3.91-5.17-4.32-11.03-3.32-17.12,1.41-8.59,5.43-16.02,10.86-22.63,4.4-5.34,9.28-10.29,13.94-15.42,5.94-6.55,10.88-13.8,12.22-22.66,1.95-12.85,3.7-25.77,4.74-38.72,1.14-14.07,1.34-28.21,2.06-42.31.12-2.28.86-4.52,1.23-6.8.48-2.97,1.27-5.95,1.2-8.92-.1-4.69-.89-9.37-1.22-14.06-.56-7.87-1.21-15.74-1.38-23.63-.13-6.05-.64-11.97-2.94-17.6-3.62-8.87-7.51-17.57-12.73-25.7-6.04-9.4-9.94-19.8-12.15-30.78-1.91-9.46-4.63-18.85-3.73-28.62,1.03-11.19,2.27-22.37,3.69-33.52.75-5.93,2.06-11.78,3.12-17.67.08-.47.2-.95.19-1.42-.23-9.56-.42-19.12-.74-28.68-.08-2.38-.71-4.74-.87-7.13-1.06-15.56-6.91-29.33-15.29-42.28-5.13-7.94-10.87-15.37-17.12-22.42-.85-.95-1.76-1.85-2.68-2.73-7.64-7.32-10.84-16.22-9.24-26.68.65-4.25,1.92-8.4,2.77-12.62,1.77-8.75,3.4-17.53,5.18-26.28,4.81-23.74,11.87-46.72,23.16-68.26,6.88-13.13,17.27-23.25,28.43-32.66,7.22-6.09,14.81-11.68,23.49-15.53,2.89-1.28,6.07-1.92,9.05-3.03,1.02-.38,2.23-1.09,2.7-1.99,7.85-15.24,20.71-24.02,36.89-28.18,10.42-2.68,20.95-5.12,31.58-6.7,6.38-.95,13.09-.47,19.57.14,8.31.78,14.83,5.59,20.68,11.18.8.77,1.19,2.85.72,3.81-.47.97-2.21,1.65-3.48,1.8-1.05.13-2.37-.46-3.32-1.1-10.27-6.97-21.71-8.2-33.54-6.4-17.34,2.63-33.98,7.47-48.88,17.15-4.11,2.67-7.6,5.97-10.58,10.24.86.27,1.44.44,2.01.64,2.48.86,5.1,1.45,7.4,2.66,6.84,3.58,8.94,10.22,5.23,17.01-1.38,2.53-3.48,4.77-5.63,6.74-1.02.94-3.04,1.56-4.38,1.27-4.09-.9-8.19-2-12.04-3.62-4.38-1.84-6.27-5.69-6.51-10.36-.04-.85-.11-1.69-.19-2.94-1.55.63-2.89.95-3.97,1.65-6.28,4.08-12.6,8.11-18.7,12.44-3.9,2.76-7.55,5.9-11.14,9.07-8.58,7.58-14.85,16.83-19.38,27.31-4.22,9.75-8.32,19.53-10.97,29.86-.72,2.8-.44,4.61,1.53,6.99,8.69,10.47,16.21,21.73,21.95,34.15,6.49,14.05,10.93,28.8,15.28,43.58,2.18,7.41,3.84,14.96,5.73,22.45.02.08.04.16.05.23.3,2.16.73,4.42-1.75,5.67-1.75.88-3.63-.24-5.44-2.83-3.48-4.98-5.48-10.61-7.28-16.33-4.14-13.17-8.02-26.43-12.54-39.47-4.52-13.03-11-25.14-19.03-36.39-.45-.63-.96-1.21-1.8-2.26-.38,1.26-.69,2.03-.84,2.82-1.51,8.16-2.98,16.33-4.5,24.49-.23,1.24.06,1.91,1.16,2.74,2.44,1.85,5.08,3.73,6.82,6.17,8.84,12.44,14.71,26.28,18.29,41.09.81,3.34.19,5.18-1.71,5.78-1.87.59-3.42-.5-4.92-3.59-5.27-10.93-10.49-21.88-15.8-32.78-1.22-2.5-2.72-4.87-4.15-7.25-.38-.63-1-1.11-1.81-1.99-.37,1.2-.7,1.92-.81,2.67-.7,4.65-1.35,9.31-2.01,13.97-.78,5.52,1.53,9.79,5.02,13.89,8.95,10.51,17.77,21.2,24.53,33.29,7.25,12.98,11.92,26.8,13.77,41.77,1.74,14.05,2.33,27.97.73,41.99-.33,2.92-1.18,5.79-1.61,8.7-.12.79.15,2.18.67,2.44,5.01,2.46,7.77,7.01,9.98,11.62,4.78,9.99,9.06,20.23,13.35,30.45,3.56,8.49,6.06,17.31,7.3,26.46.02.16.06.31.08.47.21,2.04.43,4.13-2.02,5.04-1.72.64-3.33-.48-4.55-2.97-3.72-7.62-6.53-15.58-8.88-23.72-3.62-12.5-9.05-24.21-16.04-35.18-.34-.54-.73-1.05-1.12-1.55-.09-.12-.26-.16-.53-.32-.17.21-.47.42-.5.66-1.09,7.66-2.13,15.33-3.23,23-.31,2.15.54,3.02,2.52,4.07,2.96,1.58,5.78,3.75,8.02,6.25,7.13,7.92,11.85,17.19,13.94,27.68.87,4.37,1.55,8.78,2.2,13.19.25,1.72.02,3.51-1.97,4.15-1.99.65-3.23-.65-4.03-2.19-1.41-2.68-2.59-5.47-3.95-8.18-4.28-8.55-8.57-17.1-12.92-25.61-.6-1.17-1.61-2.13-3.01-3.01.04.71.04,1.43.13,2.13,1.89,15.13,7.49,28.81,14.89,42.12,6.25,11.23,12.16,22.85,14.89,35.68.13.62,1.21,1.06,1.86,1.56.88.68,2.32,1.21,2.51,2.03.19.86-.74,2.04-1.34,2.98-.27.42-1.22.47-1.36.87-.38,1.05-.66,2.22-.59,3.31.02.33,1.3.71,2.04.83.85.13,1.75-.04,2.63-.02,1.8.03,3.45.45,3.79,2.52.33,2.01-.98,3.09-2.67,3.74-1.26.49-2.54,1-3.85,1.28-2.4.5-1.44,2.25-1.47,3.62-.03,1.63,1.02,1.76,2.28,1.54.08-.01.16-.02.24-.02,3.59-.22,5.23.39,5.6,2.32.55,2.89-1.82,3.71-3.64,4.97-1.11.76-3.45.47-2.82,2.7.08.3,2.47-.06,3.79-.08,2.45-.03,4.94-.25,7.34.08.99.14,2.34,1.38,2.57,2.34.23.97-.42,2.83-1.23,3.25-2.85,1.49-5.92,2.58-8.94,3.74-1.2.46-2.75.17-2.76,2.25,0,1.95.69,2.83,2.64,3.22,2.07.41,4.58.87,4.52,3.73-.06,2.78-2.59,3.1-4.6,3.78-1.62.55-3.89.16-3.93,3.2.83.08,1.66.13,2.48.23,1.66.21,3.43.14,4.92.76,1.05.44,2.3,1.79,2.37,2.8.06,1.01-1.01,2.66-1.99,3.06-2.17.9-4.56,1.36-6.91,1.69-1.38.19-2.26.3-2.22,1.99.04,1.86,1.23,1.66,2.46,1.72,2.79.14,5.58.26,8.34.62,1.98.26,3.87,1.08,3.85,3.51-.02,2.28-1.8,3.13-3.7,3.39-2.92.39-5.87.64-8.81.74-1.76.06-2.54.58-2.66,2.46-.32,5.39-.39,5.35,4.92,5.75,1.95.15,4.2.01,4.78,2.63.4,1.83-1.32,3.92-3.94,4.77-1.28.42-2.63.78-3.96.87-2.2.14-2.86,1.16-3.06,3.32-1.19,12.71-2.38,25.43-3.95,38.1-.64,5.19-2.27,10.26-3.33,15.41-.18.9-.02,2.09.45,2.87,5.49,9.17,9.27,18.89,9.91,29.69.19,3.22-.43,4.96-2.28,5.42-1.93.49-3.71-.84-4.67-3.87-1.64-5.17-3.04-10.42-4.7-15.59-.89-2.77-2.1-5.43-3.37-8.64-1.82,2.31-3.3,4.05-4.59,5.92-.24.35.09,1.37.47,1.82,8.99,10.77,11.76,23.48,11.64,37.09-.02,2.07-.26,4.14-.41,6.21-.13,1.78-.61,3.45-2.64,3.76-2.19.34-3.2-1.22-3.71-3-1.45-5.06-2.59-10.21-4.22-15.21-1.99-6.13-4.14-12.23-6.63-18.18-1.54-3.69-3.34-3.97-6.16-1.13-7.01,7.07-12.47,15.13-14.8,25.02-1.21,5.15-.08,9.55,3.64,13.42,4.07,4.23,8.38,8.13,13.71,10.68,6.25,2.99,12.57,5.83,18.87,8.72,4.4,2.02,5.37,6.04,5.35,10.17-.01,2.7,1.01,3.79,2.99,5.42,3.65,2.98,7.06,6.5,9.76,10.36,3.84,5.47,6.95,11.46,10.37,17.23.39.66.8,1.32,1.6,1.88,0-.65.04-1.3,0-1.95-.76-10.05-.34-20.04,3.13-29.55,1.84-5.04,4.66-9.76,7.43-14.39,1.63-2.72,4.23-4.59,7.77-4.31,4.12.33,5.95,3.82,3.45,7.11-9.47,12.5-13.66,26.76-14.06,42.22-.09,3.61.74,7.26,1.27,10.87.24,1.63,1.26,3.37-.65,4.53-1.97,1.21-3.01-.54-4.15-1.67-3.46,1.52-4.44,1.27-6.57-1.87-3-4.43-5.73-9.05-8.94-13.31-4.27-5.65-8.9-11.04-13.38-16.52-.3-.36-.7-.65-1.08-.94-2.29-1.77-3.16-1.54-3.66,1.23-.46,2.58-.73,5.22-.84,7.84-.03.72.67,1.94,1.3,2.15,8.21,2.75,14.12,8.3,18.59,15.43,2.09,3.34,3.59,7.08,5.2,10.7.64,1.44.69,3.09-1,3.99-1.68.89-2.85-.16-3.93-1.34-4.13-4.54-8.27-9.08-12.44-13.58-.72-.77-1.61-1.39-2.42-2.07-.18.16-.36.31-.54.47,1.61,2.52,3.09,5.13,4.84,7.55,9.12,12.61,20.46,22.73,34.04,30.36,7.81,4.39,9.1,8.06,8.06,16.96-1.04,8.86-1.52,17.82-1.66,26.74-.1,6.86,3.84,12.19,8.92,16.28,8.08,6.49,16.53,12.5,24.81,18.73,1.91,1.44,3.82,2.89,5.67,4.4,8.98,7.32,19.36,9.67,30.71,8.97,3.23-.2,6.53.1,9.75.54,1.72.23,3.33,1.23,5.28,2,3.83-2.98,8.79-2.88,13.72-2.63,6.99.36,13.91.22,20.49-2.55,2.27-.96,4.61-1.91,6.61-3.31,7.83-5.5,15.57-11.13,23.26-16.81,3.66-2.7,7.17-5.6,10.69-8.47,6.98-5.69,10.94-12.73,9.99-22.08-.82-8.09-1.27-16.22-2.08-24.32-.6-5.94,1.44-10.19,6.55-13.51,7.48-4.85,15.05-9.72,21.79-15.5,7.07-6.07,13.07-13.34,17.79-21.5.37-.64.67-1.32,1-1.98-.22-.17-.43-.34-.65-.51-2.99,3.03-6.04,6-8.95,9.1-2.07,2.21-3.83,4.73-6,6.83-.85.82-2.61,1.44-3.68,1.15-1.62-.45-1.6-2.25-1.1-3.69,4.22-12.05,11.38-21.46,23.67-26.28.7-.27,1.61-1.29,1.58-1.91-.18-3.01-.6-6.01-1.03-9.01-.25-1.76-1.39-1.79-2.6-.98-.92.61-1.78,1.36-2.55,2.16-5.81,6.07-11.11,12.52-15.42,19.78-2.03,3.43-4.42,6.64-6.71,9.91-1.88,2.67-3.09,2.91-6.04,1.41-.15.05-.35.06-.43.17-1,1.2-2.05,2.51-3.8,1.6-1.85-.96-1.35-2.64-.9-4.22,2.97-10.47,1.18-20.72-1.47-30.92-2.12-8.14-5.75-15.54-10.92-22.19-1.19-1.53-1.92-3.21-.9-5.09,1.09-2.01,3.03-2.5,5.12-2.4,3.36.17,5.51,2.33,7.31,4.86,4.77,6.67,7.72,14.09,9.12,22.17,1.33,7.68,1.42,15.38,1.16,23.33.4-.6.83-1.18,1.19-1.79,3.43-5.76,6.77-11.58,10.29-17.28,2.97-4.8,6.61-8.97,11.7-11.73.67-.36,1.06-1.58,1.22-2.46.37-2.1.31-4.29.81-6.36.79-3.29,3.09-4.96,6.28-6.22,11.22-4.45,22.18-9.37,30.67-18.5,3.94-4.24,5.1-8.79,3.76-14.28-1.76-7.23-5.52-13.39-9.98-19.18-1.45-1.89-3.04-3.72-4.8-5.33-2.85-2.61-4.61-2.42-6.01,1.15-2.69,6.81-4.99,13.77-7.28,20.73-1.32,4.01-2.32,8.13-3.48,12.19-.13.46-.22,1.05-.55,1.31-1.04.83-2.14,2.08-3.3,2.17-1.74.14-2.61-1.48-2.64-3.11-.11-5.18-.48-10.39-.03-15.52.82-9.27,3.67-17.96,9.08-25.68.94-1.35,2.71-2.67,2.69-3.98-.02-1.36-1.75-2.69-2.73-4.03-.46-.62-.94-1.24-1.67-2.21-.6,1.08-1.17,1.82-1.45,2.66-2.16,6.59-4.24,13.21-6.39,19.81-.42,1.28-.79,2.74-1.67,3.65-.87.9-2.38,1.71-3.57,1.65-1.76-.09-2.45-1.82-2.23-3.42.7-5.04.99-10.26,2.55-15.04,1.88-5.71,4.94-11.03,7.42-16.55.36-.81.74-1.9.49-2.66-3.42-10.42-4.21-21.27-5.37-32.06-.79-7.38-1.42-14.78-2-22.17-.14-1.8-.91-2.38-2.58-2.75-2.29-.51-4.65-1.16-6.66-2.3-.95-.54-1.8-2.52-1.54-3.55.25-.97,1.93-1.82,3.15-2.23,1.24-.42,2.7-.4,4.03-.27,2.24.22,2.7-.75,2.57-2.79-.32-5.17-.25-5.13-5.41-5.46-2.3-.15-4.61-.39-6.88-.82-1.75-.33-3.18-1.32-3.14-3.36.04-2.04,1.55-3.02,3.28-3.25,3.07-.41,6.18-.58,9.29-.74,1.24-.06,2.19-.11,2.18-1.75,0-1.47-.66-1.81-2.02-1.99-2.35-.31-4.76-.69-6.94-1.56-1.06-.43-2.38-2.16-2.24-3.11.16-1.13,1.59-2.59,2.77-2.96,2.21-.69,4.64-.7,7.1-1.01-.07-1.61-.72-2.45-2.22-2.73-1.25-.23-2.65-.37-3.65-1.05-1.13-.77-2.38-1.96-2.69-3.19-.42-1.71,1.14-2.62,2.66-3.14.68-.23,1.37-.55,2.07-.59,2.03-.14,2.38-1.38,2.42-3.11.05-1.9-1.33-1.82-2.52-2.2-2.66-.83-5.37-1.57-7.9-2.69-1.66-.74-3.2-2.1-2.75-4.3.46-2.23,2.42-2.77,4.26-2.75,2.6.03,5.2.53,7.81.74.67.05,1.37-.24,2.06-.38-.44-.65-.75-1.48-1.35-1.9-1.17-.82-2.54-1.33-3.74-2.11-1.38-.9-2.35-2.38-1.48-3.85.61-1.03,2.13-1.57,3.32-2.17.44-.22,1.1.03,1.66,0,1.21-.05,2.83.9,3.08-1.41.22-1.98.28-3.61-2.38-3.95-1.38-.18-2.9-.7-3.96-1.56-.9-.74-1.83-2.31-1.63-3.28.2-.95,1.69-1.91,2.81-2.33,1.05-.39,2.37.02,3.55-.08.7-.06,1.94-.36,1.96-.63.08-1.11-.15-2.27-.4-3.38-.06-.27-.76-.34-.96-.63-.76-1.1-1.93-2.25-1.94-3.39,0-.66,1.92-1.31,2.93-2.03.56-.4,1.34-.86,1.48-1.43,3.28-13.99,9.71-26.68,16.7-39.03,7.01-12.36,11.31-25.47,13.17-39.47.06-.44,0-.89,0-1.33-.25-.11-.5-.22-.75-.33ZM98.75,51.87c.12.31.25,1.5.91,2.09,2.21,1.93,5.04,2.75,7.75,1.91,1.31-.41,2.48-2.35,2.96-3.85.19-.61-1.45-2.22-2.55-2.73-1.62-.75-3.49-1.03-5.28-1.3-3.44-.51-3.73-.21-3.78,3.89ZM317.23,51.33c-.04-3.51-.35-3.84-3.58-3.36-1.88.28-3.76.71-5.56,1.31-1.32.44-2.82.99-2.57,2.92.25,1.95,2.12,4.02,3.92,3.89,1.87-.14,3.77-.58,5.55-1.19,1.65-.56,2.55-1.88,2.24-3.57Z" style="fill: #000; stroke-width: 0px;"/>
  <path d="M287.99,646.19c-.16,15.05-3.68,29.35-8.44,43.4-1.01,2.98-.98,5.69.03,8.61,1.64,4.75,3.11,9.55,4.57,14.36,6.45,21.24,3.11,41.58-5.28,61.63-6.98,16.68-17.13,31.32-28.03,45.52-6.33,8.24-14.52,14.53-22.55,20.99-1.41,1.13-2.58,2.77-3.35,4.42-1.65,3.53-4.23,5.52-7.49,5.23-3.13-.28-5.28-2.6-5.88-6.55-.32-2.14-1.06-3.68-3.53-3.67-2.48,0-3.2,1.56-3.51,3.69-.55,3.77-2.72,6.17-5.67,6.51-3.38.39-6.12-1.59-7.67-5.25-.57-1.34-1.36-2.83-2.49-3.63-14.92-10.65-26.38-24.35-36.43-39.56-6.83-10.34-12.43-21.19-17.01-32.61-8.7-21.68-9.06-43.61-.76-65.44,2.51-6.6,2.98-12.47.53-19.31-4.94-13.76-6.95-28.14-6.49-42.84.61-19.51,9.28-34.86,24.1-46.96,3.93-3.21,8.39-5.82,12.76-8.45,3.79-2.28,7.9-3.26,12.41-2.16,1.03.25,2.59-.2,3.43-.9,3.47-2.89,7.06-3.41,11.1-1.4,2.07,1.03,4.23,1.87,6.32,2.86,3.22,1.53,6.09,3.51,8.01,6.62.81,1.31,1.62,1.81,2.65.23,4.1-6.32,10.98-8.21,17.4-10.68,2.69-1.03,5.44.03,7.53,2,1.54,1.45,3.07,1.66,5.02,1.15,3.23-.85,6.42-.23,9.31,1.23,18.8,9.46,32.33,23.51,37.48,44.39,1.32,5.36,1.33,11.04,1.94,16.58ZM273.35,708.12c-.31,0-.61,0-.92-.01-.38.67-.78,1.32-1.13,2-4.07,7.98-8.53,15.74-14.35,22.58-2.99,3.52-6.36,6.72-9.64,9.98-1.1,1.1-2.78,1.59-3.81.26-.65-.84-.75-2.54-.4-3.63.51-1.55,1.64-2.9,2.54-4.31,7.59-11.92,12.89-24.89,17.94-38.03,4.69-12.2,8.61-24.55,10.35-37.52,1.12-8.34,1.88-16.75-.44-24.97-4.27-15.13-13.86-26.54-26.04-36.01-3.04-2.36-6.29-2.97-10.12-2.01-3.11.78-6.43,1.19-9.62,1.03-2.87-.15-5.21.43-7.26,2.27-1.12,1.01-2.05,2.23-3.09,3.33-3.35,3.58-5.86,3.57-9.12.01-.08-.09-.3-.05-.45-.07-3.14,3.71-6.02,3.69-9.25-.07-.78-.91-1.51-1.86-2.36-2.7-2.22-2.18-4.74-3.24-8.02-2.71-1.97.32-4.21.21-6.09-.42-6.4-2.16-11.8-.85-16.75,3.63-6.86,6.21-12.79,13.18-17.53,21.1-4.52,7.55-7.06,15.78-6.5,24.65.44,6.91.74,13.94,2.25,20.65,5.5,24.53,14.53,47.73,27.71,69.23.5.82,1.03,1.61,1.49,2.46.76,1.42,1.21,2.93-.23,4.14-1.43,1.21-2.84.57-4.1-.47-.61-.51-1.18-1.08-1.76-1.62-9.35-8.84-16.22-19.45-21.92-30.88-.37-.73-.8-1.43-1.22-2.17-.4.28-.59.34-.65.46-.17.36-.32.73-.43,1.11-3.15,11.59-3.89,23.44-1.37,35.1,4.21,19.44,13.49,36.98,22.55,54.46,6.39,12.32,15.85,22.55,24.85,33.03.44.51,1.02.9,1.56,1.37,3.44-5.82,3.93-6.21,7.19-7.4,7.36-2.68,14.67-2.51,22,.08,2.63.93,4.56,2.55,5.69,5.12.28.63.6,1.25,1.06,2.2.82-.78,1.48-1.31,2.02-1.94,2.5-2.9,5-5.81,7.45-8.75,9.51-11.37,18.09-23.29,23.65-37.21,3.79-9.47,8.12-18.72,12.15-28.1,5.28-12.26,5.7-25.11,4.35-38.11-.39-3.75-1.49-7.43-2.26-11.15Z" style="fill: #000; stroke-width: 0px;"/>
  <path d="M230.57,454.31c.42-14.14-2.37-27.99-4.01-41.92-1.42-12.02-1.26-23.88,1.78-35.65.74-2.86,1.04-5.83,1.83-8.67.55-1.96,1.31-3.99,2.46-5.64,1.97-2.81,5.33-2.46,6.6.7.81,2.01,1.3,4.35,1.16,6.49-.35,5.48-1.2,10.94-1.73,16.41-.34,3.49-.49,6.99-.69,10.49-.1,1.64.52,2.15,2.31,1.94,5.69-.67,11.41-1.36,17.13-1.56,7.13-.25,13.92-1.57,20.45-4.42,1.52-.66,1.51-1.59,1.24-2.87-1.26-6.02-2.56-12.02-3.73-18.06-2.78-14.34-.48-28.27,3.45-42.06.13-.46.33-.9.51-1.34,1.17-2.92,2.87-4.15,4.86-3.5,1.92.63,2.26,2.21,1.94,5.48-1.43,14.4-2.51,28.68,1.92,42.95,5.03,16.23,9.09,32.76,13.76,49.1,1.71,5.98,3.92,11.82,6.04,17.67,5.92,16.42,1.99,30.82-8.05,44.54-8.29,11.32-18.92,15.6-32.47,13.53-7.57-1.16-15.14-2.32-22.68-3.64-3.8-.67-5.05-2.35-5.4-6.12-.05-.56-.57-1.37-1.06-1.55-2.96-1.08-4.55-3.44-5.11-6.22-1.07-5.38-1.87-10.82-2.46-16.28-.35-3.24-.06-6.54-.06-9.81ZM281.01,402.5c-2.42,1.41-4.72,2.64-6.87,4.1-.44.3-.57,1.6-.34,2.26,5.24,15.35,3.6,30.37-2.08,45.19-.65,1.7-1.52,3.37-2.56,4.85-3.86,5.49-10.56,5.68-14.79.47-.95-1.17-1.84-2.43-2.56-3.75-2.53-4.71-4.97-9.47-7.45-14.21-.34-.65-.7-1.28-1.05-1.92-.53.58-.62,1.02-.63,1.46-.27,10.45-.47,20.9-.81,31.35-.12,3.61-.32,7.19,1.17,10.58.28.63,1.02,1.4,1.64,1.49,2.99.44,6.01.8,9.02.95,2.85.14,5.73.18,8.58-.06,4.45-.38,8.86-1.12,13.31-1.55,3.16-.31,5.9-1.39,8.1-3.67,1.49-1.55,3.07-3.07,4.29-4.82,4.96-7.12,9.28-14.57,7.48-23.73-.89-4.51-2.35-8.94-3.91-13.29-3.98-11.13-8.2-22.17-9.91-33.96-.08-.52-.35-1-.63-1.76ZM261.47,453.24c.57-1.16.96-1.83,1.24-2.53,3.82-9.45,5.81-19.25,5.07-29.46-.25-3.39-1.19-6.74-1.91-10.09-.11-.5-.75-.88-1.14-1.32-.36.52-.91,1-1.05,1.58-.21.92-.07,1.92-.22,2.86-.4,2.43-.66,4.93-1.43,7.25-.31.95-1.74,2.01-2.75,2.1-.87.08-2.1-.96-2.74-1.82-.62-.84-.82-2.06-1-3.15-.33-2.04-.61-4.11-.72-6.17-.1-1.88-1.19-1.92-2.61-1.81-1.58.13-1.75,1.03-1.56,2.32.36,2.53.79,5.05.96,7.6.71,10.78,4.53,20.67,8.57,30.5.23.57.63,1.08,1.27,2.16ZM240.14,418.18c.28.03.57.06.85.09.29-1.99.67-3.98.82-5.98.03-.43-.78-.93-1.2-1.39-.39.48-1.14.97-1.12,1.42.1,1.96.42,3.91.65,5.87Z" style="fill: #000; stroke-width: 0px;"/>
  <path d="M190.73,399.99c-1.02,9.04-1.75,18.12-3.12,27.11-1.59,10.38-1.8,20.81-2.12,31.26-.18,5.89-.53,11.81-1.38,17.62-.64,4.37-1.67,8.94-6.71,10.81-.35.13-.59.89-.64,1.39-.39,3.86-1.68,5.37-5.65,6.18-3.75.77-7.5,1.6-11.29,2.06-6.01.74-12.05,1.29-18.09,1.74-8.58.65-15.49-2.62-21.21-8.98-5.57-6.19-10.04-13.01-12.98-20.79-3.79-10.05-2.48-20.1,1.19-29.75,8.9-23.43,14.03-47.93,20.87-71.94,2.58-9.05,1.8-18.37,1.11-27.61-.26-3.5-.75-6.98-1.1-10.47-.18-1.84.31-3.42,2.26-3.98,2.04-.59,3.6.5,4.2,2.28,1.4,4.23,2.72,8.5,3.7,12.84,3.18,14.14,2.59,28.21-1.11,42.19-.69,2.62-1.12,5.31-1.71,7.96-.31,1.41.16,2.06,1.55,2.69,7.37,3.32,15.11,4.25,23.11,4.33,4.6.05,9.22.72,13.78,1.45,2.27.36,2.98-.3,2.78-2.38-.47-4.84-.97-9.67-1.45-14.5-.4-4.05-.97-8.09-1.09-12.15-.06-2.09.37-4.33,1.15-6.27,1.22-3.03,4.41-3.38,6.5-.83.89,1.09,1.75,2.41,2.03,3.75,2.2,10.44,5.32,20.74,5.24,31.56,0,.8,0,1.6,0,2.39.07.01.13.02.2.03ZM173.14,439.23c-.58.79-.95,1.18-1.18,1.63-1.3,2.56-2.47,5.2-3.88,7.69-2.12,3.74-4.09,7.63-6.69,11.03-3.8,4.98-10.24,4.75-14.15-.17-.84-1.05-1.58-2.23-2.11-3.47-5.84-13.83-7.96-28.03-4.21-42.81.51-1.99,1.94-4.32,1.34-5.87-.6-1.55-3.2-2.33-4.93-3.44-2.34-1.5-2.41-1.36-3.09,1.45-1.52,6.35-2.95,12.75-4.88,18.99-2.11,6.86-4.82,13.53-7.11,20.34-1.8,5.35-2.99,10.91-1.31,16.46,2.28,7.52,6.03,14.32,12.13,19.44,1.84,1.54,4.44,2.49,6.84,2.99,3.65.77,7.47.72,11.15,1.39,4.7.86,9.34.94,14.04.09,1.95-.35,3.97-.32,5.94-.61.65-.1,1.69-.55,1.78-1.01.59-2.86,1.37-5.76,1.35-8.64-.1-11.17-.47-22.34-.76-33.51-.01-.51-.14-1.02-.28-1.99ZM154.15,452.7c.27.04.53.08.8.11.72-1.56,1.46-3.1,2.15-4.67,4.86-11.09,7.31-22.75,8.2-34.78.1-1.35.37-2.52-1.6-2.73-1.98-.21-2.4.68-2.59,2.42-.29,2.76-.66,5.57-1.5,8.19-.33,1.05-2.02,2.36-3.04,2.31-1.01-.04-2.52-1.49-2.81-2.58-.75-2.83-.9-5.81-1.39-8.71-.14-.84-.63-1.62-.96-2.42-.51.69-1.25,1.31-1.5,2.09-2.38,7.4-2.07,15.01-1.18,22.54.75,6.34,3.07,12.32,5.42,18.23ZM175.01,418.57c.27,0,.54,0,.81.01.28-2.09.64-4.17.79-6.27.03-.46-.68-.97-1.06-1.45-.46.5-1.35,1.02-1.32,1.48.12,2.08.5,4.15.78,6.22Z" style="fill: #000; stroke-width: 0px;"/>
  <path d="M170.87,80.63c4.82.48,9.23-.35,13.29-2.24,5.27-2.46,10.31-5.4,15.46-8.11,1.39-.73,1.15-1.7.83-3.01-.81-3.4-1.54-6.83-1.92-10.3-.32-3,1.08-4.9,3.29-5.38,2.2-.48,4.05.81,5.18,3.6.23.57.5,1.13,1,2.27.52-1.2.84-1.93,1.16-2.67,1.04-2.44,2.91-3.65,4.96-3.21,2.11.45,3.61,2.23,3.33,4.86-.39,3.7-1.3,7.34-1.84,11.02-.12.84.07,2.26.61,2.57,6.55,3.79,12.85,8.17,20.38,9.86,2.74.61,5.59.73,8.64,1.11-.17-2.12-.38-3.61-.39-5.11-.06-5.12,2.96-8.57,7.91-9.13,5.12-.58,10.44,2.7,11.26,7.23.25,1.37-.15,3.02-.7,4.35-.79,1.9-2.12,3.57-2.97,5.45-.33.73-.36,2.11.11,2.63,12.07,13.56,27.35,20.29,45.37,20.9,3.86.13,7.66-.61,10.85-3.09,2.35-1.82,2.4-2.56.65-4.94-1.14-1.55-.84-3.02.57-4.24,2.27-1.96,5.82-.94,7.1,2,1.81,4.14.52,9.26-3.42,12.79-4.55,4.07-10.11,5.78-16.07,5.91-21.2.45-38.97-7.04-52.79-23.31-1.44-1.69-2.83-2.42-5.12-2.09-12.94,1.87-23.91-3.33-34.4-9.96-5.26-3.32-5.1-3.22-10.35-.05-4.36,2.64-8.92,4.97-13.54,7.12-6.85,3.19-14.14,3.79-21.56,2.82-1.72-.22-2.89.25-3.93,1.58-11.07,14.16-26.22,21-43.47,23.71-6.81,1.07-13.72.64-20.24-2.13-3.85-1.64-7.05-4.03-8.9-7.94-1.26-2.67-1.31-5.42-.37-8.16,1.02-2.98,4.24-4.18,6.78-2.63,2.09,1.27,2.44,3.29.61,4.92-1.43,1.27-1.1,2.32-.09,3.46,2.06,2.34,4.81,3.38,7.78,3.85,6.1.95,12.07.25,18-1.39,12.03-3.32,22.71-8.82,31.09-18.34,1.3-1.47,1.64-2.46.39-4.05-.93-1.18-1.53-2.61-2.28-3.92-2.05-3.56-1.63-6.68,1.36-9.49,2.82-2.65,6.16-3.62,9.94-2.77,4.08.91,6.51,3.75,6.71,7.93.09,1.81-.15,3.64-.25,5.71Z" style="fill: #000; stroke-width: 0px;"/>
  <path d="M208,143.05c-3.49,4.61-6.84,9.68-10.87,14.15-2.99,3.32-6.6,6.29-10.43,8.58-2.33,1.39-5.65,1.65-8.48,1.51-2.15-.1-3.1.4-4.13,2.11-7.17,11.89-17.47,20.03-30.56,24.46-7.39,2.5-14.51,1.66-20.75-3.47-3.07-2.53-4.94-5.82-5.8-9.68-.57-2.55.37-4.51,2.33-5.11,1.98-.61,4.06.46,4.69,2.98,2.07,8.19,10.64,9.52,16.15,7.57,13.27-4.7,22.76-13.55,28.09-26.66.61-1.51.56-3.27.89-4.9.33-1.62.49-3.35,1.17-4.82,1.12-2.44,3.75-3.55,6.18-3.01,2.47.56,4.2,2.63,4.14,5.45-.04,1.96-.54,3.91-.89,6.24.9-.13,1.78-.05,2.46-.39,1.42-.71,2.91-1.44,4.04-2.51,6.28-5.92,11.68-12.5,14.11-20.99,1.18-4.12,2.1-8.31,2.96-12.51.59-2.9,2.34-4.8,4.81-4.74,2.37.07,4.24,1.9,4.54,4.73,1.21,11.31,5.53,21.25,13.23,29.62,2.03,2.2,4.47,4.05,6.86,5.88.86.66,2.13.76,3.78,1.31-.3-1.36-.5-2.09-.61-2.83-.21-1.49-.58-3-.49-4.48.14-2.4,1.88-4.31,4.07-4.76,2.43-.5,4.58.24,5.81,2.35.85,1.46,1.11,3.27,1.56,4.94.75,2.74,1.05,5.66,2.22,8.2,5.29,11.56,14.26,19.32,26.1,23.55,2.83,1.01,6.33.9,9.36.39,3.79-.63,6.13-3.43,7.27-7.19.86-2.84,2.74-4.08,4.86-3.45,2.08.61,2.94,2.76,2.24,5.57-2.68,10.63-14.08,16.63-25.51,13.01-13.43-4.26-23.97-12.48-31.34-24.55-1.13-1.85-2.09-2.74-4.5-2.2-3.77.85-7.37-.45-10.38-2.66-2.87-2.11-5.7-4.44-7.99-7.14-4-4.72-7.58-9.81-11.19-14.55Z" style="fill: #000; stroke-width: 0px;"/>
  <path d="M189.36,546.82c-2.41-4.24-1.13-7.7.16-11.17.47-1.27.82-2.58,1.25-3.87.56-1.7,1.63-2.81,3.54-2.48,1.78.3,2.62,1.63,2.5,3.3-.19,2.6-.64,5.18-1.01,8.04,6.37-.77,9.11,3.84,12.21,8.2,3.02-4.26,5.75-8.91,12.32-8.18-.24-1.32-.48-2.37-.61-3.44-.22-1.73-.71-3.54-.41-5.19.19-1.04,1.53-2.46,2.5-2.59.97-.13,2.69.89,3.11,1.84,1.22,2.75,2.2,5.67,2.81,8.61.42,2,.08,4.17.08,6.87,1.81-.14,4.2-.2,6.54-.58.48-.08,1.1-1.32,1.1-2.03,0-3.45-.64-6.7-2.39-9.85-2.67-4.8-4.85-9.88-7.27-14.83-2.17-4.44-4.53-8.8-6.54-13.31-.91-2.06-1.64-4.42-1.58-6.62.05-1.7,1.13-3.69,2.35-4.96,2.29-2.39,5.48-1.11,6.37,2.1.6,2.18,1.6,4.26,2.48,6.36,2.71,6.47,5.44,12.93,8.18,19.39,1.46,3.45,2.76,6.98,4.45,10.32,2.04,4.04,2.9,8.26,2.76,12.72-.16,5.06-3.74,9.42-8.78,10.23-5.58.89-11.16.4-16.58-1.18-1.45-.42-2.7-1.51-4.36-2.48-.17,3.07-.1,6.01-.56,8.88-.48,2.96-1.39,5.85-2.28,8.72-.58,1.88-2.26,1.96-3.94,1.97-1.67,0-2.85-.51-3.64-2.12-2.07-4.22-2.35-8.73-2.43-13.3-.02-1.33-.15-2.65-.25-4.25-6.22,4.78-13.16,4.32-19.93,3.89-5.86-.37-9.98-5.16-9.71-11.02.16-3.37.68-6.88,1.87-10.02,3.1-8.2,6.61-16.25,10.05-24.32,1.22-2.86,2.76-5.57,4.03-8.4.74-1.64,1.1-3.47,1.91-5.07.63-1.25,1.5-2.9,2.62-3.26,1.14-.36,3,.29,4.03,1.13,2.53,2.06,2.97,5.93,1.21,9.74-1.97,4.27-4.19,8.43-6.27,12.65-3.07,6.22-6.32,12.37-9.06,18.73-1.13,2.62-1.26,5.7-1.58,8.59-.06.55,1.03,1.68,1.72,1.79,2.09.34,4.23.31,7.03.47Z" style="fill: #000; stroke-width: 0px;"/>
  <path d="M201.49,266.73c0-2.77-.08-5.53.03-8.28.07-1.74.15-3.55.7-5.18.43-1.29,1.36-2.87,2.47-3.31.78-.31,2.24,1.05,3.68,1.81-.14.2,0-.15.26-.33.85-.59,1.81-1.64,2.6-1.54.83.11,2.07,1.27,2.18,2.1.52,4.09.72,8.21,1.02,12.32.05.75,0,1.51,0,2.32,5.4-1.56,6.68-.61,8.69,4.48,1.68,4.27,3.87,8.39,6.23,12.34,2.05,3.44,5.64,4.15,10.22,2.63.76-.25,1.51-.8,2.24-.75.95.06,2.24.32,2.71.97.54.75.69,2.18.36,3.05-.39,1.03-1.38,1.95-2.32,2.63-5.5,3.98-14.04,3.49-18.69-1.43-2.55-2.69-4.55-5.93-6.56-9.07-.9-1.41-1.94-1.81-3.45-2.37-4.14-1.52-8.07-1.23-12.04.18-1.01.36-2.11.97-2.74,1.79-2.26,2.97-4.06,6.34-6.54,9.09-4.76,5.27-13.5,5.92-19.24,1.74-.76-.55-1.68-1.24-1.92-2.05-.33-1.09-.54-2.71.04-3.46.57-.74,2.2-1,3.32-.91,1.95.16,3.86.88,5.81,1.13,2.63.34,4.81-.78,6.06-3.04,2.27-4.1,4.61-8.21,6.32-12.56,1.97-5.01,3.53-6.08,8.59-4.32Z" style="fill: #000; stroke-width: 0px;"/>
  <path d="M208.17,878.48c5.44-5.5,10.38-11.2,14.07-17.89,1.73-3.14,3.22-6.42,5.15-9.43.75-1.16,2.31-2.23,3.66-2.48,1.8-.33,3.41,1.09,3.59,2.83.25,2.37.48,5.1-.43,7.17-4.56,10.38-11.34,19.16-20.17,26.33-.92.74-1.77,1.58-2.58,2.44-1.5,1.58-4.79,2.02-6.33.56-4.11-3.87-8.53-7.51-12.05-11.87-4.03-4.99-7.42-10.54-10.66-16.09-1.16-1.99-1.39-4.7-1.44-7.09-.04-2.17,1.23-4.03,3.68-4.35,2.42-.32,3.47,1.37,4.41,3.28,4.73,9.65,10.53,18.57,18.27,26.13.16.16.4.23.84.47Z" style="fill: #000; stroke-width: 0px;"/>
  <path d="M226.88,204.07c0,.56.09,1.13-.01,1.67-1.67,8.85,3.36,14.87,8.91,20.5,3.09,3.14,6.6,3.3,10.57,1.25,1.48-.77,2.87-1.72,4.35-2.51,1.69-.9,3.42-1.09,4.76.57,1.33,1.65.89,3.43-.36,4.82-5.6,6.24-15.43,8.77-22.53,4.01-7.46-5-11.58-12.31-14.47-20.54-.56-1.61-1.47-3.15-2.48-4.53-7.69-10.56-9.45-21.9-4.65-34.15.63-1.6,1.67-2.81,3.59-2.52,1.97.3,2.79,1.76,2.93,3.57.08,1.1-.06,2.24-.27,3.32-1.05,5.25-.2,10.31,1.36,15.32.44,1.41.97,2.31,2.88,1.9,2.55-.54,4.52.96,5.12,3.53.29,1.23.29,2.52.42,3.79-.04,0-.08,0-.12,0Z" style="fill: #000; stroke-width: 0px;"/>
  <path d="M207.6,188c.23,8.29-2.72,15.43-7.72,21.89-.85,1.1-1.49,2.44-1.94,3.77-2.48,7.4-6.19,13.94-12.23,19.09-7.89,6.72-17.9,4.49-24.42-1.87-1.76-1.71-2.02-4.01-.76-5.39,1.62-1.76,3.43-1.27,5.23-.26.42.23.82.49,1.23.74,7.03,4.32,11.03,3.87,16.08-2.67,2.54-3.29,4.27-7.25,6.1-11.04.57-1.18.3-2.79.29-4.2-.02-2.3-.36-4.62-.17-6.91.26-3.24,2.4-4.89,5.56-4.37,1.49.24,2.05-.33,2.45-1.53,1.63-4.91,2.48-9.89,1.6-15.07-.24-1.41-.49-2.86-.39-4.26.13-1.71,1.12-3.35,2.92-3.19,1.23.11,3.04,1.21,3.39,2.27,1.41,4.19,2.34,8.53,3.45,12.82-.23.06-.45.12-.68.18Z" style="fill: #000; stroke-width: 0px;"/>
  <path d="M122.25,550.9c1.1.17,2.87.29,4.56.73,11.08,2.89,21.46,7.25,30.15,14.96,3.17,2.81,5.87,5.92,5.57,10.59-.18,2.89-1.67,5.14-4.07,5.92-2.63.86-4.73-.21-6.39-2.13-1.19-1.38-2.07-3.02-3.19-4.47-6.7-8.6-15.9-13.33-25.95-16.72-2.04-.69-4.1-1.42-6.21-1.73-1.44-.21-3.05.06-4.45.51-1.33.43-2.73.88-3.32-.52-.38-.89-.06-2.61.61-3.32,2.72-2.83,6.58-2.94,10.15-3.67.62-.13,1.27-.08,2.56-.15Z" style="fill: #000; stroke-width: 0px;"/>
  <path d="M294.59,550.61c2.94.69,5.91,1.26,8.79,2.15,1.23.38,2.53,1.24,3.28,2.26.55.75.67,2.33.23,3.14-.29.53-2.27.85-2.85.41-1.93-1.47-3.71-.85-5.67-.33-8.55,2.28-16.81,5.3-23.68,11.02-3.32,2.77-6.04,6.27-9.01,9.47-.86.93-1.52,2.06-2.44,2.93-1.6,1.53-3.54,2.22-5.72,1.43-2.21-.79-3.48-2.47-3.9-4.76-.71-3.9.73-7.22,3.49-9.71,3.36-3.03,6.88-6,10.72-8.37,7.11-4.38,14.91-7.23,23.09-8.96,1.16-.25,2.37-.28,3.56-.41.03-.09.06-.17.09-.26Z" style="fill: #000; stroke-width: 0px;"/>
  <path d="M326.98,698.36c-.88,3.77-1.66,7.57-2.68,11.3-.43,1.59-1.47,3.07-3.48,2.43-1.86-.59-1.49-2.19-1.5-3.78-.02-3.01-.42-6.01-.71-9.02-.65-6.73-1.77-13.42-5.6-19.11-2.32-3.45-5.37-6.44-8.33-9.41-1.9-1.91-4.31-3.3-6.33-5.1-1.1-.98-2.11-2.22-2.76-3.54-1.37-2.8.18-6.04,3.25-6.36,1.93-.2,4.17.22,5.93,1.06,8.92,4.28,14.44,11.65,17.7,20.75,2.38,6.64,3.6,13.56,3.91,20.63l.59.15Z" style="fill: #000; stroke-width: 0px;"/>
  <path d="M89.74,698.22c.63-9.52,2.08-18.87,6.9-27.34,3.52-6.19,8.36-11.03,14.78-14.21,3.64-1.8,7.1-1.44,8.69.92,1.64,2.43.69,5.5-2.59,8.29-1.15.98-2.25,2.06-3.52,2.87-10.48,6.68-15.13,16.7-16.38,28.63-.43,4.1-.51,8.23-.94,12.33-.09.85-.96,2.24-1.55,2.28-.97.06-2.6-.53-2.89-1.27-1.07-2.72-1.81-5.58-2.45-8.44-.29-1.29-.05-2.7-.05-4.05Z" style="fill: #000; stroke-width: 0px;"/>
  <path d="M280.3,802.36c-1.28,4.99-2.01,10.21-3.96,14.93-3.06,7.43-6.78,14.59-10.53,21.71-1.27,2.41-3.29,4.5-5.28,6.41-.77.74-2.57,1.06-3.59.71-1.57-.54-1.62-2.2-1.07-3.69,2.32-6.28,4.86-12.48,6.94-18.83,2.15-6.58,3.87-13.3,5.78-19.96.48-1.68.82-3.42,1.48-5.04,1.06-2.62,3.12-3.93,5.3-3.64,2.26.3,3.93,2.27,4.26,5.1.08.71.01,1.43.01,2.15.22.05.44.1.67.15Z" style="fill: #000; stroke-width: 0px;"/>
  <path d="M142.21,794.94c.66.52,2.31,1.28,3.06,2.57,1.07,1.81,1.71,3.95,2.13,6.04,2.25,11.08,6.1,21.63,10.31,32.08.92,2.29,1.87,4.61,2.37,7.01.22,1.08-.31,2.95-1.12,3.42-.81.48-2.79.08-3.53-.66-2.06-2.07-4.16-4.29-5.5-6.85-3.64-6.91-7.08-13.94-10.23-21.09-2.36-5.36-3.53-11.11-3.27-17.03.14-3.33,2.24-5.57,5.78-5.48Z" style="fill: #000; stroke-width: 0px;"/>
  <path d="M303.2,579.75c4.42-.38,9.04.63,12.95,3.78,1.45,1.17,2.74,2.69,3.66,4.31.47.82.37,2.61-.22,3.23-.7.73-2.25.96-3.38.85-1.12-.11-2.23-.83-3.26-1.42-3.64-2.06-7.51-2.28-11.33-.94-6.24,2.18-12.4,4.57-18.54,7.01-3.37,1.34-6.35-.44-6.05-4.08.13-1.56.89-3.26,1.87-4.49,1.11-1.39,2.64-2.62,4.25-3.4,6.15-2.96,12.51-5.24,20.05-4.85Z" style="fill: #000; stroke-width: 0px;"/>
  <path d="M113.47,579.64c6.92-.25,13.27,1.87,19.27,4.94,2.1,1.07,3.94,2.97,5.4,4.87,1.57,2.06,1.2,4.9-.29,6.44-1.89,1.93-3.77,1.04-5.9.19-6.14-2.44-12.33-4.82-18.63-6.82-3.39-1.08-6.96-.71-10.19,1.18-.82.48-1.7.88-2.58,1.25-1.47.63-2.99.92-4.18-.47-1.27-1.48-.72-3.02.24-4.4,2.77-3.94,6.71-6.05,11.37-6.83,1.8-.3,3.66-.25,5.49-.36Z" style="fill: #000; stroke-width: 0px;"/>
  <path d="M306.27,615.7c7.52-.54,13.75,2.23,18.93,7.48,1.08,1.09,1.87,2.57,2.49,4,.73,1.69.68,3.5-.85,4.84-1.53,1.34-3.31,1.08-4.92.22-1.32-.7-2.6-1.58-3.67-2.61-2.5-2.43-5.33-3.47-8.87-3.22-4.12.3-8.27.24-12.41.23-2.19,0-4.19-.65-4.92-3.01-.75-2.46.6-4.27,2.49-5.44,1.51-.93,3.32-1.53,5.08-1.87,2.17-.42,4.43-.42,6.65-.61Z" style="fill: #000; stroke-width: 0px;"/>
  <path d="M111.23,626.49c-1.04,0-2.09.13-3.1-.02-4.55-.69-8.22.76-11.42,4.04-1.05,1.07-2.66,1.81-4.14,2.21-2.9.78-5.16-1.35-4.54-4.3.33-1.57,1.04-3.27,2.09-4.45,4.05-4.53,9.01-7.71,15.24-8.02,3.87-.2,7.82,0,11.66.53,1.91.26,3.8,1.47,5.45,2.61,1.53,1.06,2.09,2.84,1.43,4.7-.66,1.85-2.17,2.74-4.07,2.79-2.86.08-5.73.02-8.59.02,0-.03,0-.07,0-.1Z" style="fill: #000; stroke-width: 0px;"/>
</svg>