<?xml version="1.0" encoding="UTF-8"?>
<svg id="Layer_1" data-name="Layer 1" xmlns="http://www.w3.org/2000/svg" viewBox="0 0 756.71 900">
  <path d="M.03,361.53c-.12-19.41,4.59-42.79,9.07-66.29,2.21-11.57,4.77-22.91,8.95-33.81,11.82-30.79,27.63-59.22,50.67-83.23,6.85-7.13,13.45-14.5,20.38-21.56,1.81-1.85,4.47-2.85,6.67-4.34,1.76-1.19,3.63-2.31,5.08-3.82,9.99-10.39,19.52-21.23,29.87-31.24,21.03-20.34,44.39-37.55,69.47-52.77,28.57-17.35,57.72-33.4,88.51-46.38C313.99,7.44,340.29,1.53,367.88.24c40.91-1.91,79.05,7.51,115.8,24.74,35.07,16.44,68.53,35.66,100.37,57.58,21.83,15.03,41.54,32.76,59.18,52.66,4.28,4.83,8.76,9.48,13.21,14.16.87.92,1.9,1.92,3.04,2.31,4.9,1.66,8.49,5.1,11.81,8.73,9.8,10.71,20.05,21.08,28.96,32.5,21.49,27.54,37.64,58.15,45.19,92.33,7.57,34.3,13.85,69.01,10.19,104.53-2.63,25.54-8.83,50.11-22.57,72.03-8.81,14.05-19.9,26.47-32.06,37.82-2.19,2.05-4.72,3.73-7.07,5.61-7.38,5.89-14.72,11.83-22.15,17.66-2.69,2.12-5.45,4.21-8.41,5.91-2.03,1.17-3.16,2.54-3.83,4.79-5.75,19.5-7.9,39.61-10.53,59.67-4.83,36.93-13.56,72.86-32.05,105.59-9.51,16.83-18.45,34.47-32.02,48.3-18.16,18.5-31.79,40.08-45.69,61.51-11.99,18.49-27.74,32.66-45.78,44.77-12.33,8.28-25.04,15.64-39.92,18.16-7.73,1.31-15.52,2.54-23.33,3.11-8.68.63-15.69,3.78-21.17,10.64-6.55,8.2-15.33,12.66-25.62,14.22-10.92,1.65-20.67-1.4-29.39-7.83-2.91-2.15-5.49-4.86-7.84-7.64-4.81-5.68-10.78-8.62-18.18-9.13-5.36-.37-10.69-1.19-16.03-1.79-15.7-1.76-30.07-7.18-43.2-15.9-17.99-11.93-35.49-24.39-47.59-42.89-6.71-10.26-13.86-20.24-20.39-30.62-6.85-10.89-14.45-21.08-23.7-30.07-10.59-10.31-17.74-23.16-25.84-35.34-17.93-26.94-29.93-56.24-37.04-87.78-4.2-18.63-6.5-37.49-9.24-56.33-2.03-13.91-5.44-27.62-8.39-41.38-.27-1.25-1.51-2.49-2.6-3.34-3.79-2.97-7.79-5.67-11.57-8.66-4.88-3.86-9.3-8.41-14.49-11.76-10.46-6.74-19.25-15.23-27.15-24.62-10.24-12.16-20.52-24.33-26.39-39.52C3.6,417.02-.37,396.17.03,361.53ZM587.86,434.2c-.27,1.21-.23,2.19-.68,2.78-.9,1.16-2.07,2.9-3.13,2.91-1.1,0-2.67-1.55-3.22-2.79-.66-1.49-.35-3.39-.68-5.07-.21-1.1-.48-2.54-1.26-3.11-5.7-4.17-11.53-8.16-17.96-12.65-.68,2.48-1.26,4.68-1.89,6.87-.56,1.93-1.75,3.71-3.81,2.94-1.2-.45-2.56-2.46-2.56-3.76.02-2.85.48-5.84,1.47-8.51.95-2.57.34-4.07-1.4-5.96-3.71-4.03-7.12-8.33-10.64-12.53-.66-.79-1.28-1.62-2.32-2.94-1.12,2.03-1.7,3.85-2.91,5.04-1.13,1.12-3.22,2.45-4.34,2.07-1.16-.39-2.51-2.86-2.3-4.19.51-3.23,1.9-6.33,2.88-9.49.37-1.2,1.17-2.65.8-3.62-2.15-5.59-4.6-11.06-7.15-17.05-1,1.34-1.61,2.68-2.65,3.42-1.26.9-2.99,1.95-4.34,1.75-2.13-.31-2.61-2.44-2.13-4.37.63-2.49.91-5.47,2.47-7.24,4.39-4.98,4.02-10.49,3.1-16.3-.23-1.48-.26-3-.29-4.51-.05-2.41-.01-4.83-.01-8.03-1.67.98-2.5,1.77-3.44,1.94-1.55.29-3.86.84-4.61.07-.97-.99-1.41-3.47-.85-4.77.98-2.29,2.48-5.09,4.52-6.04,5.58-2.61,6.6-7.37,7.42-12.52.22-1.38.62-2.73.99-4.08,1.68-6.24,1.67-6.1-4.78-7.11-1.4-.22-3.38-1.62-3.65-2.8-.27-1.2.91-3.58,2.05-4.08,2.68-1.18,5.7-2.05,8.6-2.08,2.49-.03,3.67-.71,4.68-2.85,1.89-3.98,4.01-7.85,6.11-11.73,1.87-3.43,1.87-3.82-2.11-4.64-5.04-1.04-10.2-1.52-15.23-2.61-1.55-.33-3.81-1.67-4.01-2.84-.24-1.44.98-3.59,2.23-4.69,1.36-1.2,3.42-1.77,5.28-2.21,6.79-1.61,13.26-.06,19.51,2.52,2.29.95,3.63.5,5.23-1.38,4.87-5.74,9.87-11.36,15.01-16.86,4.02-4.3,4.36-4.63-1-7.33-10.74-5.41-21.71-10.36-32.65-15.36-4.01-1.83-8.28-3.08-12.23-5.01-1.21-.59-2.68-2.91-2.35-3.86.44-1.29,2.47-2.07,3.89-2.94.38-.23,1.05,0,1.59.04,19.65,1.68,37.28,8.28,52.14,21.52,1.7,1.52,2.91,1.54,4.71.14,5.52-4.29,11.11-8.48,16.82-12.52,2.14-1.51,2-2.74.4-4.36-8.06-8.19-15.7-16.85-24.26-24.48-12.51-11.16-27.33-19.01-41.9-27.14-4.5-2.51-8.81-5.36-13.09-8.23-1.97-1.32-3.22-3.28-2.35-5.84.85-2.51,3.01-3.46,5.36-3.35,3.19.14,6.61.15,9.48,1.32,7.15,2.92,14.32,5.98,20.98,9.83,22.66,13.11,41.88,30.08,56.34,52.11,1.22,1.87,2.39,2,4.27,1.03,3.44-1.77,6.98-3.35,10.52-4.93,2.31-1.03,4.69-1.93,7.2-2.95-.39-.92-.54-1.55-.89-2.05-6.86-9.76-13.11-20.04-20.75-29.15-19.64-23.4-43.68-41.74-69.94-57.05-14.57-8.49-29.87-15.74-44.85-23.54-2.19-1.14-4.44-2.44-3.49-5.35.97-2.96,3.64-2.66,6-2.16,6.94,1.48,13.98,2.65,20.74,4.73,24.01,7.37,45.04,20.23,64.4,35.98,24.84,20.2,45.72,43.64,59.15,73.08.76,1.68,1.66,1.86,3.29,1.2,2.98-1.21,6.01-2.44,9.13-3.15,2.74-.63,3.52-1.86,2.33-4.26-2.95-5.96-5.51-12.17-9.08-17.74-13.25-20.71-31.15-37.2-49.45-53.28-14.73-12.95-29.85-25.43-47.42-34.4-13.7-6.99-27.51-13.82-41.56-20.05-29.68-13.17-60.52-23.02-92.09-30.47-24.67-5.82-49.55-5.92-74.19.05-36.03,8.74-71.3,19.85-104.62,36.42-13,6.46-26.15,12.68-38.76,19.84-14.93,8.48-27.73,19.97-40.53,31.32-17.17,15.23-33.88,30.96-46.33,50.48-3.67,5.75-6.31,12.17-9.33,18.33-.72,1.48-.71,2.83,1.43,3.46,3.5,1.03,6.89,2.46,10.4,3.43.82.23,2.45-.44,2.88-1.17,1.52-2.58,2.59-5.43,4.01-8.09,11.43-21.41,26.67-39.79,44.72-55.92,20.55-18.37,42.92-33.92,69.14-43.03,8.99-3.12,18.51-4.72,27.81-6.9,2.02-.47,4,.09,4.73,2.34.72,2.24-.6,3.69-2.43,4.7-1.79.99-3.59,1.95-5.43,2.86-23.36,11.52-46.45,23.45-67.48,39.07-25.14,18.68-47.08,40.21-63.04,67.41-.52.89-.98,1.81-1.51,2.81,6.06,2.76,11.87,5.25,17.53,8.06,2.28,1.13,3.44.63,4.73-1.34,12.81-19.47,29.43-35.1,49.1-47.35,8.45-5.26,17.51-9.62,26.6-13.72,3.44-1.55,7.74-1.62,11.64-1.58,1.54.01,3.81,1.89,4.36,3.42.48,1.34-.58,3.74-1.69,5.02-1.51,1.74-3.63,3.02-5.66,4.21-6.78,3.96-13.61,7.84-20.46,11.67-20.5,11.46-38.55,25.85-53.38,44.17-1.84,2.27-1.63,3.38.74,5.03,5.48,3.8,10.81,7.81,16.03,11.95,2.03,1.61,3.21,1.27,5.24-.14,6.59-4.59,13.16-9.34,20.25-13.06,9.91-5.2,20.81-7.45,31.97-8.28,2.27-.17,4.54.03,5.19,2.67.65,2.68-1.36,3.8-3.44,4.69-.59.25-1.19.49-1.79.73-5.41,2.11-10.97,3.92-16.21,6.38-9.33,4.38-18.53,9.04-27.66,13.82-3.3,1.73-3.08,2.16-.43,4.93,4.53,4.75,9.07,9.49,13.4,14.41,5.09,5.77,4.98,5.81,12.22,3.6,6.54-1.99,13.09-2.66,19.51.45,2.11,1.02,4.05,2.42,3.53,5.15-.53,2.79-2.87,2.98-5.22,3.32-5.1.74-10.16,1.69-15.23,2.63-2.28.42-2.69,1.52-1.45,3.65,2.37,4.09,4.56,8.29,6.64,12.54.97,1.98,2.09,2.72,4.44,2.77,2.81.07,5.76.78,8.32,1.95,1.24.56,2.44,2.89,2.28,4.27-.12,1.09-2.25,2.11-3.66,2.83-.78.4-1.9.16-2.87.12-2.59-.12-3.45.81-2.69,3.49,1.23,4.34,1.96,8.83,3.29,13.14.54,1.75,1.99,3.29,3.23,4.74,2.34,2.72,5.12,5.12,7.13,8.05.73,1.06.36,3.92-.58,4.78-.9.83-3.22.27-4.88.04-.91-.13-1.73-.86-2.78-1.42-.47,6.73-1.05,12.93-1.26,19.14-.06,1.86.76,3.81,1.44,5.62,1.43,3.78,3.27,7.42,4.43,11.27.32,1.06-.93,3.51-1.9,3.79-1.24.36-3.09-.59-4.36-1.44-1.04-.7-1.63-2.08-2.67-3.49-2.27,5.45-4.22,10.41-6.43,15.26-.95,2.08-.75,3.75.13,5.79,1.22,2.83,2.09,5.85,2.78,8.86.46,2.02-.19,4.31-2.5,4.46-1.41.09-3.18-1.22-4.33-2.36-1.13-1.12-1.68-2.82-2.54-4.37-4.76,5.5-9.1,10.67-13.63,15.66-1.42,1.57-1.67,2.85-1.09,4.88.86,3.07,1.44,6.3,1.52,9.48.03,1.1-1.6,2.86-2.78,3.17-.86.22-2.49-1.24-3.26-2.32-.69-.98-.57-2.48-.98-3.7-.37-1.13-.96-2.19-1.5-3.37-6.13,4.25-11.9,8.16-17.55,12.26-.79.57-1.13,1.99-1.35,3.08-.33,1.68,0,3.58-.67,5.07-.55,1.24-2.12,2.79-3.25,2.79-1.06,0-2.24-1.74-3.15-2.89-.45-.57-.41-1.54-.66-2.66-1.27.57-2.23.99-3.17,1.43-5.65,2.63-11.37,5.14-16.92,7.99-1.63.84-3.14,2.42-4.07,4.02-1.6,2.75-3.15,3.26-6,1.77-1.13-.59-2.85-.69-4.08-.31-5.56,1.68-11.01,3.71-16.56,5.41-2.35.72-3.96,1.79-4.72,4.27-.63,2.06-1.74,4.54-4.28,3.98-1.41-.31-2.4-2.5-3.59-3.83-.13-.15-.34-.24-.93-.62-6.51,2.08-13.31,4.26-20.32,6.5.49,1.04.59,1.48.85,1.77,7.3,8.17,14.65,16.3,21.91,24.51,1.31,1.48,2.31.99,3.6.16,11.21-7.25,23.46-12.23,36.17-16.04,20.26-6.07,40.81-10.67,62.13-10.46,2.9.03,5.85.12,8.66.74,1.25.28,2.67,1.8,3.07,3.07.25.78-1.09,2.37-2.07,3.13-.74.58-2.04.5-3.11.59-15.6,1.28-30.89,4.27-46.02,8.14-18.07,4.63-35.76,10.32-52.24,19.29-2.14,1.16-2.69,2.1-1.36,4.46,3.59,6.36,6.91,12.88,10.18,19.42.98,1.95,1.88,2.22,3.71,1.12,4.15-2.49,8.35-4.91,12.61-7.2,14.97-8.05,30.71-13.47,47.9-13.89,2.29-.06,4.55.23,4.9,3.02.31,2.53-1.6,3.52-3.7,4.13-.72.21-1.44.44-2.17.64-17.92,4.94-35.08,11.69-51.24,20.96-7.17,4.11-7.25,4.02-6.28,12.18.31,2.58.79,5.14,1.31,8.39,1.78-1.28,2.84-1.95,3.81-2.75,13.29-11.04,27.92-19.5,44.42-25.01,25.06-8.37,50.23-15.42,77.06-12.65,2.14.22,2.64-.74,2.41-2.64-.31-2.55-1.43-5.47-.59-7.59,2.86-7.26,5.93-14.51,12.6-19.45,1.66-1.23,3.08-3.24,3.81-5.2,1.68-4.52,4.37-7.68,8.45-10.49,6.14-4.22,12.87-8.25,15.04-16.4,1.43-5.36,5.47-8.49,10.61-9.89,3.02-.82,4.77-2.42,5.25-5.32,1.19-7.11,5.8-10.92,12.17-13.26,1.01-.37,1.91-1.38,2.57-2.3,1.63-2.27,3.21-4.59,4.58-7.01,1.58-2.81,3.93-3.97,6.98-3.53,3.19.45,5.35-.63,7.52-3.07,5.79-6.53,13.91-7.43,21.24-2.72,1.81,1.16,3.6,2.4,5.17,3.85,1.72,1.58,3.06,1.9,4.9.11,1.52-1.49,3.37-2.68,5.17-3.85,7.56-4.91,15.83-3.9,21.73,2.92,1.91,2.2,3.82,3.18,6.67,2.77,3.13-.45,5.67.49,7.36,3.43,1.39,2.42,2.99,4.72,4.62,6.99.66.92,1.52,2.01,2.51,2.35,6.76,2.32,11.13,6.66,12.44,13.84.5,2.78,2.32,3.99,4.99,4.75,4.99,1.42,9.14,4.33,10.52,9.55,2.19,8.28,8.9,12.46,15.12,16.74,4.2,2.88,7.05,6.08,8.49,10.82.39,1.29.9,2.99,1.89,3.59,5.23,3.13,8.22,7.9,11.1,13.07,2.62,4.69,4.73,9.09,2.96,14.59-.87,2.72.5,3.42,3.23,3.36,8.49-.16,17-.32,25.48.11,14.55.74,28.15,5.83,42.01,9.74,20.2,5.69,38.46,14.89,54.35,28.67.59.51,1.38.81,2.74,1.58.6-4.33.9-8.16,1.71-11.87.7-3.19-.39-4.79-3.14-6.39-17.88-10.4-36.84-18.13-56.79-23.49-2.31-.62-4.61-1.52-4.07-4.43.53-2.87,3.05-3.13,5.38-2.77,8.06,1.24,16.25,2.04,24.1,4.09,12.68,3.32,24.12,9.68,35.23,16.53,2.72,1.68,3.69,1.1,4.93-1.62,2.44-5.38,5.21-10.62,8.05-15.8,3.19-5.81,4.6-5.02-2.37-8.49-29.06-14.49-60.11-21.9-92.14-25.75-2.03-.24-4.17-.11-6.05-.77-1.16-.4-2.64-1.93-2.68-3-.04-1.08,1.37-2.41,2.44-3.26.65-.52,1.85-.37,2.81-.46,14.75-1.43,29.21.68,43.57,3.67,21.69,4.52,42.82,10.64,61.72,22.74,1.81,1.16,2.59.18,3.69-1.07,6.83-7.73,13.74-15.38,20.62-23.07.52-.59.95-1.26,1.92-2.59-7.49-2.36-14.38-4.54-21.47-6.78-.29.98-.29,1.6-.6,1.94-.94,1.03-1.89,2.54-3.03,2.75-.99.18-2.46-.96-3.35-1.88-.77-.8-.86-2.22-1.55-3.15-.78-1.05-1.74-2.28-2.88-2.7-6.17-2.22-12.41-4.27-18.67-6.22-.94-.29-2.31-.03-3.19.48-3.1,1.79-4.61,1.21-6.27-2.11-.69-1.38-2.03-2.72-3.4-3.42-4.4-2.25-8.97-4.17-13.46-6.25-2.3-1.07-4.57-2.19-7.15-3.43ZM484.61,829.93c-1.91,0-3.08,0-4.24,0-5.7-.02-11.42.28-17.09-.11-15.81-1.09-29.53-7.2-41.16-17.98-1.6-1.49-2.86-3.29-1.25-5.34,1.6-2.04,3.6-1.24,5.49-.11,7.38,4.42,15.41,7.14,23.78,8.86,14.84,3.04,29.76,1.98,44.69.74,4.27-.35,7.63-1.98,10.25-5.28,6.01-7.59,12.01-15.18,17.99-22.79.42-.53.61-1.25,1.1-2.32-1.53-.11-2.67-.23-3.8-.27-22.29-.83-41.31-9.29-57.4-24.58-1.56-1.48-2.96-3.18-1.46-5.32,1.61-2.29,3.72-1.5,5.73-.37,3.75,2.11,7.48,4.26,11.27,6.28,14.37,7.63,29.53,12.2,45.95,12.49,6.09.11,10.49-1.36,13.14-7.35,1.12-2.54,1.06-3.61-1.24-5.11-23.36-15.24-42.64-34.69-58.77-57.37-.53-.75-1.17-1.42-2.14-2.6-.78,1.57-1.46,2.62-1.85,3.77-.97,2.85-1.67,5.8-2.73,8.61-2.05,5.42-5.2,10.13-10.99,11.92-9.58,2.95-16.65,8.88-22.58,16.78-4.84,6.44-11.37,10.24-19.81,10.53-3.35.11-6.76,1.12-9.94,2.26-3.42,1.23-6.62,3.09-9.89,4.71-5.88,2.91-11.75,3.02-17.7.13-.85-.42-2.22-.71-2.95-.31-7.48,4.01-14.35,2.38-21.48-1.34-4.69-2.44-9.92-4.97-15.03-5.26-10.18-.58-17.45-4.94-23.23-12.97-4.62-6.43-10.74-11.33-18.34-13.61-6.85-2.06-11.03-6.4-13.46-12.77-1.03-2.71-1.67-5.56-2.6-8.31-.42-1.25-1.12-2.4-1.96-4.15-1.18,1.51-1.99,2.47-2.71,3.48-10.45,14.57-22.16,28.04-35.9,39.58-7.23,6.08-14.98,11.55-22.61,17.13-1.98,1.45-2.05,2.41-1.06,4.68,2.69,6.22,7.3,8.23,13.64,7.5,1.38-.16,2.79-.1,4.19-.16,17.57-.83,33.24-7.38,48.23-15.99,1.96-1.12,3.84-2.52,5.94-3.2,1.14-.37,3.24.11,3.9.97.66.86.2,2.71-.07,4.06-.12.62-.95,1.12-1.49,1.64-16.15,15.26-35.23,23.57-57.52,24.27-1,.03-2,.2-3.1.31.16.73.14,1.1.31,1.32,6.84,8.57,13.53,17.26,20.67,25.58,1.54,1.79,4.62,2.95,7.09,3.13,10.18.73,20.4,1.34,30.6,1.31,12.09-.04,23.64-3.03,34.58-8.23,1.94-.92,3.67-2.37,5.68-3,1.18-.37,3.26-.07,3.94.76.68.82.38,2.75-.01,4.04-.27.91-1.36,1.62-2.16,2.33-8.18,7.28-17.53,12.39-28.17,15.09-9.61,2.44-19.38,2.45-29.19,1.96-1.16-.06-2.32.09-3.49.14.44,1.33,1.05,1.93,1.74,2.41,6.73,4.63,13.38,9.36,20.22,13.82,8.88,5.8,18.83,7.04,29.11,5.94,12.89-1.37,25.13-4.8,35.94-12.33,1.87-1.3,4.02-2.34,5.65.05,1.64,2.39-.13,4.07-2.02,5.29-5.78,3.71-11.62,7.33-17.43,10.99-.52.33-.99.72-1.64,1.2,3.68,1.98,7.08,4,10.65,5.64,1.94.9,4.15,1.44,6.29,1.63,1.77.16,3.62-.4,5.42-.7,2.29-.38,4.77-.21,5.5,2.12.56,1.8.14,4.19-.59,6.01-.53,1.31-2.2,2.3-3.55,3.1-3.54,2.09-3.81,3.63-.58,6.32,1.11.92,2.63,1.81,4,1.88,4.8.24,9.66.52,14.4-.07,2.11-.26,4.15-2.34,5.87-3.96,1.34-1.26.89-2.58-.91-3.55-1.77-.94-3.92-1.96-4.81-3.55-.97-1.73-1.32-4.35-.76-6.23.69-2.32,3.25-2.57,5.51-2.04,5.34,1.27,10.32,1.22,14.82-2.68,1.48-1.28,3.66-1.75,5.51-2.62.7-.33,1.37-.75,1.84-1.01-6.42-4.22-12.69-8.32-18.94-12.46-1.91-1.27-3.6-2.97-2.04-5.32,1.6-2.42,3.8-1.34,5.65-.04,9.95,6.97,21.21,10.41,33.07,11.96,8,1.05,16.09,1.43,23.85-1.65,10.83-4.3,20.17-10.99,29.12-18.3.45-.37.73-.94,1.53-2.01ZM680.71,483.02c.31.28.62.57.93.85,8.52-3.22,16.2-7.37,20.75-16.04,15.45-29.42,28.36-59.51,30.66-93.37,1.55-22.92,2.92-45.91.06-68.63-5.56-44.21-25.89-81.55-56.76-113.34-.59-.6-1.37-1.02-2.65-1.94,0,2.42.1,4.03-.02,5.62-.31,4.37-1.59,8.7-5.57,10.72-4.02,2.04-5.12,4.95-5.29,8.92-.07,1.71-.5,3.4-.85,5.09-1.5,7.11-3.29,14.36-8.43,19.61-3.63,3.71-3.12,6.79-1.22,10.54.73,1.43,1.64,2.77,2.47,4.15,1.62,2.7,2.2,5.67.24,8.21-4.47,5.77-8.84,11.72-14.03,16.81-5.76,5.64-11.7,3.6-14.19-4.08-.8-2.47-1.82-4.88-2.54-6.81-9.42,4.87-18.29,9.46-26.71,13.81,2.84,5.12,5.82,10.47,9.14,16.44,1.41-.95,3.45-2.04,5.15-3.52,1.94-1.68,3.76-3.38,6.54-2.38,2.69.96,3.4,3.29,3.85,5.86,1.58,9.04,5.33,16.99,12.11,23.34,1.88,1.76,3.83,3.46,5.68,5.26,2.04,1.98,3.41,4.34,2.26,7.23-1.18,2.98-3.63,4.58-6.84,4.47-5.24-.17-10.47-.57-15.7-.87-2.06-.12-4.13-.23-6.67-.38,3.24,13.01,4.59,25.47,1.39,38.41,11.82-2.78,22.72-1.19,34.24,2.97.8-5.28,1.57-10.11,2.24-14.96.38-2.76.37-5.59.95-8.3.69-3.23,2.89-4.63,6.15-4.48,3.72.18,5.29,1.71,6.33,5.65,1.88,7.14,4.98,13.72,12.78,15.67,6.78,1.69,13.82,2.38,20.78,3.25,2.92.36,5.29,1.18,6.37,4.05,1.06,2.82.3,5.45-1.97,7.29-1.89,1.54-4.23,2.52-6.26,3.91-3.44,2.34-6.85,4.73-10.16,7.25-2.33,1.78-2.44,3.51-.5,6.19,10.67,14.74,14.6,30.5,6.31,47.85-.37.76.17,2.45.86,3.15,4.14,4.16,4.28,9.18.13,13.35-1.67,1.68-3.54,3.16-5.11,4.92-2.39,2.67-4.59,5.5-6.87,8.27ZM142,377.01c-3.05-11.4-2.24-22.06-.02-32.68,1.32-6.32,1.43-6.11-4.97-5.47-5.64.56-11.32.76-16.98.86-2.84.05-4.84-1.69-5.92-4.28-1.1-2.63-.09-4.85,1.72-6.76,1.26-1.32,2.59-2.59,3.99-3.75,5.78-4.8,9.87-10.77,12.28-17.85.9-2.63,1.13-5.5,2.16-8.07.78-1.94,2-4.1,3.66-5.2,2.12-1.39,4.29.05,5.99,1.76.76.76,1.48,1.63,2.4,2.14,1.39.77,2.93,1.27,4.41,1.89-.18-.36-.36-.73-.54-1.09,3.01-5.3,6.03-10.6,8.73-15.36-8.72-4.51-17.61-9.1-26.64-13.77,0,0-.35.29-.49.66-.9,2.41-1.78,4.84-2.63,7.28-1.94,5.59-6.34,7.42-11.45,4.54-1.74-.98-3.37-2.36-4.68-3.87-3.66-4.23-7.16-8.59-10.65-12.96-2.83-3.53-2.82-6.49-.52-10.4,1.41-2.39,2.71-4.91,3.53-7.54.38-1.22-.17-3.02-.86-4.24-2.34-4.19-5.66-7.99-7.24-12.42-2.11-5.92-2.88-12.31-4.38-18.46-.29-1.19-1.01-2.76-1.99-3.24-5.99-2.92-8.19-7.9-8.32-14.17-.02-1.1,0-2.19,0-3.29-.3-.11-.6-.21-.89-.32-1.04.99-2.08,2-3.13,2.98-15.9,14.86-26.68,33.36-36.8,52.27-10.31,19.28-17.04,39.9-18.81,61.64-1.72,21.1-1.87,42.34.26,63.5,1.21,12.09,1.89,24.22,5.51,35.97,4.98,16.18,10.65,32.07,18.46,47.11,3.41,6.57,6.94,13.13,11.08,19.25,3.88,5.74,10.59,7.45,16.74,9.92-.11-1.22-.44-2.12-1.04-2.77-3.26-3.56-6.5-7.15-9.91-10.57-4.49-4.51-4.55-9.49-.24-13.83.71-.71.95-2.44.65-3.48-.87-3.09-2.49-5.99-3.16-9.11-3.12-14.5,1.26-27.21,9.92-38.7,1.56-2.07,1.81-3.65-.16-5.2-3.34-2.65-6.77-5.2-10.25-7.65-2.35-1.66-5.22-2.73-7.23-4.71-3.73-3.66-1.93-9.65,3.05-10.54,5.53-.98,11.1-2,16.7-2.33,8.68-.5,14.23-4.84,17.37-12.66.68-1.68,1.1-3.48,1.54-5.25.8-3.29,3.15-4.46,6.21-4.57,3.05-.11,5.33,1.24,5.97,4.3.57,2.71.62,5.53,1.02,8.29.63,4.24,1.32,8.47,2.07,12.68.33,1.87,1.23,2.39,3.21,1.54,2.35-1,4.89-1.65,7.4-2.17,7.74-1.63,15.51-1.98,23.9.13ZM309.13,543.53c.39.83.93,1.96,1.45,3.11,10.58,23.46,15.03,47.52,6.83,72.73-3.39,10.43-7,20.79-10.49,31.19-.35,1.06-.62,2.14-1.13,3.88,10.22-1.24,19.2.38,27.09,7.5.83-5.24,1.19-9.55-.62-13.79-1.07-2.51-1.58-5.1.83-7.1,2.43-2.02,4.81-.94,7.08.6,2.5,1.68,4.88,3.67,7.6,4.85,4.69,2.03,9.49,4.11,14.45,5.13,6.64,1.37,9.14,4.81,7.03,11.37-1.05,3.28-2.1,6.56-2.99,9.88-1.55,5.81-1.36,5.66,3.15,9.46,2.59,2.19,4.66,5,6.92,7.57.61.69,1.07,1.51,1.29,1.83,3.89-3.74,7.48-7.51,11.43-10.85,1.65-1.39,2.42-2.52,1.81-4.57-1.4-4.74-2.76-9.49-4.11-14.25-1.46-5.18.86-9.69,5.42-10.07,6.96-.57,13.12-3.11,18.84-6.97,2.23-1.5,4.37-3.26,6.81-4.27,1.46-.61,3.95-.65,5.02.23,1.2.98,1.53,3.25,1.81,5.03.15.93-.65,2-.99,3.02-1.36,4.05-1.04,8.08-.31,13.06,8.13-7.38,17.14-8.85,27.11-7.69-.36-1.51-.49-2.33-.74-3.11-3.57-10.71-7.57-21.31-10.6-32.17-2.09-7.5-3.6-15.33-4.06-23.09-1.02-17.33,3.59-33.65,10.74-49.32.52-1.14,1.06-2.27,1.78-3.79-1.33-.28-2.25-.4-3.12-.66-3.27-1-6.64-1.78-9.74-3.16-2.07-.92-3.2-.71-4.09,1.24-1.34,2.93-2.75,5.83-3.97,8.81-1.15,2.8-3.08,4.71-6.09,4.28-3.98-.56-7.95-1.52-11.8-2.71-4.19-1.29-8.18-3.2-12.35-4.53-6.31-2.01-8.48-6.44-5.61-12.48,1.47-3.1,3.22-6.09,5.08-8.98,1.4-2.18.82-2.95-1.41-3.95-3.61-1.62-7.03-3.68-10.43-5.73-2.01-1.21-3.83-3.89-5.7-3.85-2.03.04-3.94,2.57-6.03,3.82-4.2,2.51-8.49,4.9-13.01,7.48,1.95,3.51,4.12,7.07,5.96,10.8,3.19,6.45.91,11.12-5.94,13.04-3.39.95-6.61,2.47-9.97,3.56-4.05,1.32-8.1,2.98-12.27,3.51-4.72.6-6.14-.92-7.92-5.36-1.11-2.79-2.42-5.51-3.87-8.13-.39-.7-1.8-1.49-2.44-1.29-4.54,1.46-8.99,3.16-13.77,4.89ZM217.67,581.79c5.04-1.88,9.33-3.52,13.65-5.08,3.96-1.43,6.82,0,8.02,3.95,1.85,6.08,6.09,9.04,12.63,9.2,2.73.07,4.01-.7,3.84-3.58-.11-1.92.02-3.87.19-5.8.25-2.87,1.61-4.92,4.67-5.3,2.65-.33,5.01,1.53,5.79,4.56.29,1.13.39,2.34.4,3.51.15,12.41-3.92,23.01-13.62,31.07-1.52,1.26-1.43,2.17-.65,3.77,1.35,2.79,2.59,5.69,3.42,8.67.65,2.34,1.34,3.1,3.96,2.42,6.97-1.8,13.7-.39,19.99,2.82,1.25.64,2.48,2.61,2.5,3.98.01,1.15-1.54,2.8-2.79,3.38-2.9,1.33-5.99,2.4-9.1,3.07-2.45.53-3.27,1.62-2.9,3.95,1.09,6.78,2.08,13.59,3.32,20.34.23,1.25,1.48,2.31,2.26,3.46.92-.94,2.22-1.71,2.71-2.84,6.93-15.98,14.06-31.88,20.43-48.08,2.45-6.22,3.49-13.07,4.51-19.74,2.17-14.29.24-28.16-6.01-41.21-1.86-3.89-4.32-7.89-7.54-10.65-8.72-7.48-18.85-12.67-30.44-13.66-9.19-.78-18.48-.87-27.7-.53-11.31.42-21.8,4.64-32.37,8.34-16.74,5.86-32.65,13.3-47.08,23.73-2.2,1.59-2.77,3.15-1.95,5.71,2.68,8.39,7.44,15.54,13.4,21.81,5.55,5.84,13.59,6.9,21.12,3.01-3.68-4.6-7.09-9.24-10.91-13.52-2.54-2.84-3.54-5.06-2.13-7.33,1.47-2.38,4.15-2.76,7.78-1.31,5.55,2.23,10.38,5.64,13.44,10.67,4.39,7.23,8.3,14.78,11.99,22.39,2.26,4.65,3.55,5.29,8.05,2.09-1.04-3.11-2.22-6.22-3.11-9.41-2.57-9.24-2.51-18.34,2.37-26.89,1.46-2.55,2.75-6.58,6.67-5.19,3.97,1.41,2,5.28,1.84,8.22-.1,1.76-.38,3.5-.66,5.97ZM573.85,596.5c7.89,2.56,14.73,2.98,20.4-2.64,6.64-6.59,11.75-14.24,14.49-23.33.63-2.07.13-3.49-1.68-4.66-31.01-20.1-63.55-35.29-101.91-32.45-8.41.62-16.42,2.3-23.84,6.22-6.86,3.61-13.88,7.31-17.71,14.51-4.52,8.51-7.88,17.57-8.5,27.23-.84,12.97.22,25.9,5,38.13,5.25,13.42,11.01,26.63,16.62,39.91,1.3,3.07,2.8,6.05,4.36,9,.39.73,1.55,1.76,2.01,1.6.83-.27,1.86-1.25,2-2.08,1.27-7.4,2.37-14.84,3.52-22.27.29-1.84-.54-2.65-2.35-3.11-3-.76-6.04-1.59-8.82-2.9-1.53-.72-3.66-2.54-3.57-3.72.11-1.56,1.83-3.61,3.38-4.36,6.26-2.99,12.89-4.14,19.76-2.28,1.72.47,2.46.08,3.03-1.68,1.1-3.36,2.62-6.58,3.72-9.94.29-.9,0-2.39-.62-3.12-1.91-2.31-4.28-4.25-6.13-6.6-6.17-7.85-7.99-17.02-7.39-26.74.24-3.89,2.78-6.25,5.81-6.08,2.99.16,4.77,2.46,4.97,6.42.1,2.04.08,4.1.32,6.12.08.71.63,1.73,1.23,1.97,4.77,1.96,13.28-2.48,14.7-7.57,1.65-5.92,3.93-7.05,9.69-4.87,3.87,1.47,7.77,2.87,12.34,4.56-.45-3.79-1.09-6.84-1.07-9.89,0-1.46.99-3.89,1.97-4.14,1.34-.34,3.86.54,4.53,1.68,2.21,3.75,4.41,7.7,5.52,11.86,2.25,8.43.29,16.63-2.76,24.6-1.53,3.98-1.38,4.03,2.79,5.01,2.38.56,2.97-.72,3.64-2.49,3.79-10.01,8.04-19.87,15.8-27.47,3.21-3.14,7.51-5.25,11.52-7.45,2.23-1.22,4.74-.72,6.29,1.6,1.54,2.32.88,4.52-.95,6.43-.59.62-1.38,1.07-1.9,1.74-3.33,4.27-6.61,8.58-10.19,13.25ZM205.65,750.84c2.69-2.54,4.64-4.52,6.74-6.32,1.86-1.6,2.07-2.96.71-5.21-5.83-9.65-5.65-19.86-1.85-30.1,1.7-4.57,1.91-5.11-1.83-8.41-1.69-1.48-3.62-2.68-5.4-4.06-1.69-1.31-3.54-2.51-4.95-4.09-2.45-2.75-2.1-6.64.75-8.49,2.69-1.75,5.45-3.57,8.44-4.65,9.09-3.28,17.53-7.54,24.84-13.99,3.2-2.83,6.98-1.51,8.37,2.57.23.69.43,1.39.6,1.92,5.62-1.05,11.05-2.06,16.5-3.08-.75-6.03-1.47-12.2-2.33-18.36-.09-.65-.97-1.71-1.46-1.69-5.13.16-6.8-3.5-8.17-7.35-2.17-6.07-3.97-12.28-6.28-18.3-2.78-7.24-2.12-9.73,4.28-14.05,2.41-1.63,4.63-3.55,6.51-5-4.55-1.91-9.02-3.34-13-5.62-2.66-1.52-4.36-5.61-6.95-6.09-2.69-.5-5.86,2.21-8.95,3.04-2.37.63-2.96,1.63-2.27,3.86,1.27,4.11,2.53,8.23,3.61,12.39,1.03,3.95-.19,6.07-3.87,7.7-1.14.51-2.36,1.18-3.13,2.11-2.96,3.57-6.69,5.49-11.22,6.41-6.28,1.27-9.04-.18-11.27-6.19-1.23-3.31-2.91-6.45-4.26-9.72-1.01-2.46-2.35-2.59-4.75-1.65-9.67,3.8-19.25,3.35-27.48-3.22-8.66-6.91-15.6-15.41-19.47-26.05-.34-.93-.79-1.81-1.19-2.71-.39-.02-.79-.05-1.18-.07-.71,2.01-2.09,4.05-2.01,6.03.3,7.07,0,14.44,1.9,21.13,6.18,21.71,11.76,43.78,20.32,64.57,11.94,28.98,27.99,55.95,48.19,80.2.55.66.89,1.48,1.53,2.55ZM505.2,601.02c-.15.31-.31.62-.46.93,2.89,2.12,5.75,4.26,8.67,6.34,4.14,2.95,5.17,6.14,3.42,10.92-1.15,3.13-2.34,6.24-3.46,9.38-1.58,4.45-3.03,8.96-4.7,13.38-1.11,2.92-3.13,4.78-6.53,4.9-.71.03-1.9,1.09-2,1.81-.9,6.13-1.6,12.3-2.34,18.26,5.53,1.02,10.95,2.01,16.47,3.03.07-.13.26-.4.35-.69,1.77-5.89,5.35-6.77,9.94-2.71,2.39,2.12,5.06,4.06,7.88,5.54,7.4,3.88,14.97,7.44,22.45,11.17,4.64,2.31,5.34,6.93,1.51,10.41-1.58,1.44-3.54,2.44-5.2,3.81-2.31,1.9-4.69,3.79-6.64,6.03-.7.81-.75,2.86-.25,3.94,4.47,9.54,4.35,19.13.72,28.82-.8,2.14-2.83,4.42-2.44,6.23.43,1.95,3.04,3.42,4.71,5.09.38.38.84.69,1.19,1.09,1.38,1.57,2.48,1.21,3.61-.34,2.34-3.22,4.64-6.48,7.17-9.55,17.55-21.3,30.3-45.56,41.09-70.62,7.67-17.79,12.29-36.9,18.2-55.45,3.1-9.72,4.31-19.73,4.21-29.92-.03-2.7-.58-5.02-3.61-6.46-2.81,9.4-8.31,16.83-14.78,23.74-9.77,10.42-20.51,13.14-33.86,8.02-1.79-.68-2.81-.51-3.58,1.24-1.56,3.53-3.3,6.99-4.73,10.57-1.66,4.19-4.4,7.21-7.29,6.78-5.31-.8-10.64-1.79-14.4-6.35-.92-1.12-2.15-2.16-3.45-2.76-4.41-2.03-5.42-3.92-4.1-8.65,1.13-4.04,2.31-8.07,3.51-12.08.55-1.83,0-2.71-1.9-3.25-2.78-.79-5.52-1.78-8.14-2.99-1.47-.67-2.27-.61-3.2.72-4.34,6.25-10.31,9.58-18.04,9.64ZM660.05,382.29c-.48.94-.9,1.56-1.13,2.24-3.02,9.15-8.99,16.33-15.45,23.17-1.3,1.37-2.97,2.64-4.72,3.26-1.28.46-3.45.29-4.34-.54-.9-.83-1.32-3.05-.88-4.28.85-2.38,2.39-4.53,3.74-6.72,1.45-2.34,3-4.61,4.61-7.07-.94-.58-1.44-.97-1.99-1.22-12.45-5.6-24.28-3.17-36.05,2.42-3.28,1.56-7.1,2.1-10.74,2.69-1.03.16-2.8-.92-3.32-1.91-.52-.99-.27-2.77.3-3.86,1.62-3.11,3.58-6.06,5.41-9.06,5.23-8.58,7.27-18.08,8-27.95.1-1.37.15-2.93-.39-4.13-1.05-2.32-2.18-4.85-4.02-6.44-.77-.66-3.46.81-5.23,1.42-4.07,1.42-6.94.75-9.25-2.24-2.02-2.62-1.91-6.48.43-9.61,3.01-4.03,7.08-6.83,11.92-7.79,5.34-1.06,10.85-1.28,16.28-1.84,1.09-.11,2.19-.12,3.54-.19-1.87-4.39-3.52-8.27-5.22-12.27-1.26.47-2.26.85-3.26,1.2-7.36,2.57-14.85,4.44-22.74,3.9-3.28-.22-6.62-3.94-6.65-7.19-.02-2.66,1.81-4.03,5.96-4.55,2.62-.33,5.24-.74,8.27-1.18-1.71-5.08-3.55-9.58-7.88-12.01-5.76-3.23-11.87-5.85-18.16-8.88-.78,1.57-1.71,3.24-2.47,4.99-13.48,31.19-13.12,62.45-.6,93.83,3.15,7.9,7.98,14.25,15.44,18.4,23.37,12.99,45.09,28.96,70.34,38.58,8.64,3.29,17,7.28,25.5,10.93,1.3.56,2.82,1.28,3.39-.82,1.3-4.77,2.91-9.51,3.59-14.37.8-5.71-1.42-10.61-5.87-14.68-.62.7-1.05,1.04-1.29,1.48-1.54,2.77-3.62,4.69-7.02,3.85-3.35-.83-4.2-3.61-4.7-6.63-1.15-6.94,1.01-12.96,4.93-18.51,1.47-2.08,3.01-4.1,4.56-6.19-4.33-3.45-8.41-6.7-12.84-10.23ZM79.92,418.28c-4.59,4.92-6.88,10.04-5.72,16.21.75,4,2.2,7.87,3.08,11.85.59,2.64,1.76,3.04,4.1,2.01,7.28-3.21,14.7-6.12,21.91-9.48,11.39-5.29,22.79-10.59,33.93-16.39,7.71-4.01,14.99-8.86,22.46-13.34,6.54-3.93,13.12-7.81,19.61-11.83,5.16-3.2,8.98-7.66,11.43-13.24,14.63-33.34,15.13-66.66-.13-99.96-.43-.94-1.04-1.8-1.4-2.42-6,2.87-11.78,5.42-17.35,8.36-4.76,2.52-6.82,7.14-8.63,12.51,3.62.51,6.79.87,9.93,1.41,3.22.55,4.75,2.65,4.1,5.37-.91,3.82-3.63,6.08-7.57,6.2-7.66.25-14.92-1.61-22.06-4.13-.96-.34-1.93-.65-2.94-.98-1.73,4.24-3.32,8.11-5.06,12.38,1.66,0,2.72-.09,3.76.02,5.43.57,10.95.78,16.27,1.9,5.29,1.12,9.64,4.23,12.52,8.98,1.73,2.85,1.61,5.77-.5,8.42-2.08,2.62-4.77,3.61-8.03,2.5-1.42-.48-2.84-1.02-4.18-1.69-1.53-.76-2.43-.44-3.49.97-2.82,3.78-3.61,7.9-3.02,12.49,1.58,12.38,5.74,23.72,13.17,33.82,1.91,2.6.66,6.06-2.41,5.97-3.36-.1-6.8-.79-10.03-1.79-6.33-1.95-12.4-4.86-18.82-6.34-7.05-1.62-13.57,1.53-20.58,3.78,1.25,2.08,2.12,3.54,3.01,4.98,1.75,2.83,3.85,5.5,5.14,8.52.61,1.43.32,4.23-.69,5.08-1.03.88-3.58.56-5.2.01-1.53-.52-2.89-1.87-4.04-3.11-6.31-6.82-12.2-13.93-15.15-22.98-.21-.65-.7-1.22-1.09-1.86-4.1,3.12-8.05,6.04-11.85,9.15-.38.31-.14,1.91.3,2.62,1.91,3.1,4.19,5.99,5.99,9.15,2.8,4.9,3.11,10.22,1.86,15.65-.57,2.47-1.96,4.35-4.6,4.85-2.62.5-4.59-.66-6.05-2.8-.53-.78-1.08-1.55-2-2.87ZM329.33,671.9c-.79-.86-.96-1.15-1.22-1.31-7.88-4.9-16.57-5.65-25.51-4.81-.91.09-2.04.85-2.54,1.63-2.44,3.89-4.01,7.9-.63,12.16.72.91,1.11,2.08,1.69,3.12,9.75,17.42,22.64,31.45,42.18,37.84,7.55,2.47,15.34,4.2,23.05,6.18,7.64,1.97,15.32,2.07,22.99.15,6.57-1.64,13.18-3.15,19.7-4.98,24.29-6.81,39.07-24,49.51-45.78,1.96-4.09-2.17-10.34-6.64-10.44-3.01-.07-6.03-.11-9.03.03-5.72.27-10.67,2.71-15.7,5.56.69,1.14,1.08,2.04,1.69,2.75,2.11,2.43,4.27,4.82,6.47,7.17,1.8,1.92,2.73,4.04,1.05,6.36-1.68,2.31-4.1,2.2-6.37.95-1.49-.82-2.89-1.9-4.09-3.1-7.13-7.08-10.11-16.06-11.56-25.72-.17-1.11-.35-2.22-.52-3.33-5.28,2.16-10.18,4.16-15.27,6.24.4,1.18.93,2.27,1.13,3.41,1.02,6.12,2.48,12.23,2.78,18.4.28,5.97-1.34,11.85-5.63,16.37-1.06,1.12-3.59,1.84-4.96,1.36-1.01-.35-1.57-2.92-1.73-4.56-.14-1.54.51-3.16.91-5.27-4.93,2.68-6.96,8.19-13.02,8.16-6.01-.03-7.95-5.68-12.93-8.12.43,2.06.76,3.58,1.06,5.11.4,2.05.25,4.38-1.94,4.83-1.51.31-4.2-.51-4.89-1.69-2.09-3.55-4.07-7.38-4.98-11.35-1.91-8.32,0-16.44,2.58-24.41.29-.89.14-2.75-.32-2.94-4.61-1.92-9.32-3.59-14.25-5.42-.16,1.08-.34,2.21-.49,3.35-.91,6.91-2.8,13.56-6.68,19.36-2.17,3.24-5.03,6.14-8.01,8.69-2.61,2.24-5.63,1.83-7.21-.2-1.59-2.05-.94-4.47,1.57-7.09,2.65-2.76,5.11-5.71,7.76-8.69ZM442.23,527.66c.09.42.18.83.27,1.25,2.61,0,5.26.25,7.83-.07,2.65-.32,5.21-1.32,7.84-1.81,7.25-1.35,8.01-2.56,4.51-9.04-8.52-15.73-21.96-25.94-38.06-32.82-5.38-2.3-11.3-3.25-17.02-.94-10.31,4.16-18.98.66-26.96-5.6-2.11-1.65-3.04-1.43-5.02.08-7.13,5.44-14.95,9.62-24.17,6.25-8.24-3.02-15.88-1.74-23.46,1.59-8.9,3.9-16.05,10.36-23.29,16.61-5.46,4.72-9.29,10.7-12.21,17.25-1.53,3.43-.91,5.08,2.64,6.03,4.04,1.08,8.15,1.95,12.29,2.54,2.11.3,4.33-.21,7.45-.41-1.49-1.8-2.31-2.73-3.07-3.7-1.33-1.68-2.83-3.27-3.9-5.11-1.55-2.69-.98-5.74,1.09-7.33,2.46-1.88,5.02-1.49,7.05.47,4.69,4.52,9.56,8.95,13.6,14.02,2.82,3.54,4.31,8.12,6.58,12.12.48.84,2.02,1.92,2.66,1.7,4.74-1.64,9.38-3.58,14.4-5.56-.74-1.52-1.45-2.92-2.1-4.34-2.9-6.34-6.17-12.55-8.49-19.1-1.12-3.15-.76-6.99-.35-10.43.15-1.28,2.3-3.19,3.59-3.24,1.25-.05,3.04,1.7,3.75,3.08,1.06,2.06,1.39,4.5,1.99,6.79.46,1.76,1.39,2.59,3.28,1.98,7.01-2.24,13.71-5.08,19.37-9.91,2.76-2.35,4.63-1.86,7.73-.05,6.25,3.66,12.86,6.71,19.38,9.91,1.55.76,2.68.01,3.13-1.69.54-2.08,1.11-4.16,1.68-6.23.6-2.18,1.46-4.25,4.19-4.1,2.65.15,3.89,2.25,3.85,4.43-.08,4.03-.02,8.31-1.36,12-2.24,6.12-5.54,11.86-8.38,17.76-.49,1.02-.95,2.05-1.45,3.14,4.97,1.97,9.55,3.75,14.12,5.6,1.91.77,2.35-.49,3.04-1.81,2.38-4.56,4.44-9.37,7.45-13.48,2.88-3.91,6.77-7.08,10.28-10.51,1.14-1.12,2.36-2.26,3.75-3,3.6-1.91,7.61.45,7.38,4.52-.11,1.89-1.13,3.87-2.19,5.52-1.31,2.04-3.1,3.76-4.69,5.62ZM109.87,230.71c5.86-3.25,9.04-2.62,11.07,2.13.42.98.79,2.03.92,3.08.98,8.05-.09,15.65-5.07,22.36-2.53,3.41-2.51,3.52,1.13,6.07.19-.09.43-.14.55-.28.27-.33.51-.7.69-1.08,3.7-7.9,10.68-12.13,18-15.91,2.25-1.16,4.72-1.85,6.67.74,1.91,2.54,1.66,5.8-.58,8.19-1,1.07-1.99,2.15-2.96,3.2,8.26,9.24,32.56,14.39,40.37,8.51-1.12-1.42-2.08-2.99-3.37-4.22-8.97-8.63-17.64-17.63-27.13-25.66-10.89-9.21-21.76-18.6-34.64-25.1-2.38-1.2-4.89-2.2-7.42-3.02-2.41-.78-3.85.05-3.2,2.86,1.29,5.54,2.63,11.07,4.01,16.58.14.57.64,1.04.96,1.55ZM638.3,264.5c3.74-2.73,3.75-2.86,1.23-6.22-5.17-6.91-6.3-14.77-4.89-22.99,1.13-6.63,5.67-8.39,11.09-4.76.16.11.41.08,1.16.21,2.25-6.27,4.09-12.7,4.56-19.46.04-.5-1.89-1.8-2.55-1.59-3.04.96-6.06,2.14-8.91,3.58-11.9,6.02-21.71,15-32.11,23.13-10.94,8.56-21.15,17.92-30.06,28.63-.77.93-1.37,2.01-2.52,3.73,3.98.59,7.22,1.43,10.47,1.48,9.97.16,18.98-3.13,27.35-8.38,3.59-2.25,3.59-2.29.59-5.25-2.89-2.86-3.34-5.66-1.36-8.58,1.59-2.35,3.84-2.64,7.76-.53,7.06,3.81,13.76,8.07,17.26,15.81.2.45.63.8.95,1.19ZM219.96,723.76c-.42.17-.84.33-1.26.5.78,3.6,1.57,7.2,2.51,11.52,1.7-1.32,2.62-2.01,3.5-2.72,13.59-10.98,24.61-24.3,34.71-38.44,2.75-3.85,5.22-7.89,7.82-11.85.85-1.3,1.49-2.89-.76-3.09-6.49-.6-13.01-.67-18.46,3.73-5.58,4.5-5.67,5.69-1.71,11.63.48.72.98,1.42,1.39,2.17,1.21,2.2,2.62,4.52.44,6.8-2.32,2.41-4.77.92-7.07-.27-.66-.34-1.26-.84-1.79-1.36-4.57-4.44-7.92-9.61-9.38-15.89-.24-1-.55-1.99-.87-3.15-4.99,2.41-9.64,4.65-14.6,7.04,1.64,1.89,3.05,3.49,4.43,5.1,6.37,7.4,9.63,15.97,9.49,25.74-.06,4.28-2.82,5.69-6.49,3.52-.61-.36-1.26-.66-1.9-.99ZM527.29,683.32c-.58,2.11-.98,3.88-1.56,5.58-2.16,6.25-5.58,11.63-11.29,15.21-1.94,1.22-4.23,1.99-6.23-.02-2-2.01-1.12-4.19.04-6.21,1.23-2.14,2.6-4.2,3.95-6.27,1.01-1.54.79-2.7-.3-4.31-4.98-7.43-12.47-8.07-20.3-7.86-3.5.09-3.86.86-2.02,3.84,9.77,15.79,21.12,30.34,34.56,43.18,3.23,3.09,6.77,5.86,10.68,9.21,1.34-4.33,3.02-7.83,2.13-12-.83.18-1.19.17-1.44.33-1.8,1.17-3.9,3.02-5.73,1.1-1.26-1.31-1.82-3.81-1.77-5.75.25-10.02,4.31-18.5,11.09-25.76.92-.99,1.75-2.05,2.77-3.24-4.99-2.4-9.59-4.61-14.58-7.02Z" style="fill: #000; stroke-width: 0px;"/>
  <path d="M434.87,191.57c-2.88-.88-4.86-1.38-6.77-2.1-5.64-2.12-11.26-4.27-16.85-6.5-13.06-5.2-26.75-4.45-40.41-4.55-11.34-.09-21.87,2.88-32.22,7.01-3.89,1.55-7.81,3.05-11.74,4.52-1.2.45-2.46.83-3.73,1.01-2.77.38-5.28-.23-6.41-3.08-1.14-2.85.13-5.27,2.56-6.6,5.37-2.93,10.77-5.9,16.42-8.18,12.39-4.99,25.37-6.34,38.65-5.18,2.45.21,4.95.24,7.4.01,19.4-1.77,37.39,2.43,54.04,12.49.73.44,1.47.91,2.1,1.49,1.84,1.67,2.88,3.93,1.5,6.03-1.09,1.65-3.21,2.62-4.54,3.64Z" style="fill: #000; stroke-width: 0px;"/>
  <path d="M378.8,305.68c15.02,1.32,30.15,4.22,44.28,11.09,2.27,1.1,4.47,2.66,6.21,4.48,2.07,2.16,2.64,5.06.88,7.73-1.78,2.7-4.57,3.08-7.47,2.11-1.61-.54-3.07-1.52-4.61-2.26-7.25-3.5-14.35-7.35-21.79-10.39-12.06-4.93-24.42-4.93-36.46.07-7.52,3.12-14.68,7.09-22.05,10.58-2.1.99-4.32,2.13-6.57,2.33-4.39.38-7.29-3.82-5.48-7.83.8-1.77,2.25-3.45,3.82-4.6,2.14-1.57,4.59-2.82,7.06-3.84,13.33-5.51,27.24-8.51,42.17-9.47Z" style="fill: #000; stroke-width: 0px;"/>
  <path d="M378.4,197.99c8.91-1.14,17.7.13,26.34,2.64,2.15.62,4.31,1.47,6.19,2.65,2.48,1.55,3.67,3.99,2.62,6.94-1.06,2.97-3.49,4.02-6.43,3.69-1.8-.2-3.55-.84-5.3-1.32-.93-.26-1.86-.55-2.75-.93-13.99-6.04-27.96-5.93-41.95.04-2.06.88-4.27,1.49-6.46,2-3.76.87-6.81-.51-7.82-3.33-1.08-3,.35-6.34,3.88-7.87,8.82-3.83,18.13-5.21,27.71-4.82,1.29.05,2.57.19,3.97.3Z" style="fill: #000; stroke-width: 0px;"/>
  <path d="M365.73,132.5c15.38,1.22,28.2-1.22,40.52,3.09,2.53.88,5.15,1.62,7.51,2.84,3.16,1.63,4.32,4.94,3.08,7.56-1.26,2.65-4.41,3.7-7.83,2.4-2.1-.8-4.11-1.86-6.13-2.87-5.88-2.95-12.14-4.3-18.67-4.44-3.98-.08-7.96-.06-11.93,0-6.88.11-13.41,1.63-19.56,4.79-2.19,1.12-4.45,2.23-6.81,2.86-2.57.68-5.06-.01-6.25-2.69-1.12-2.52-.56-4.98,1.67-6.66,1.51-1.14,3.27-2.22,5.09-2.65,7.28-1.75,14.63-3.23,19.32-4.25Z" style="fill: #000; stroke-width: 0px;"/>
  <path d="M378.27,267.49c6.29,1.66,12.65,3.1,18.84,5.06,3.7,1.17,5.22,4.38,4.23,7.23-1.02,2.94-3.89,4.19-7.76,3.25-2.19-.53-4.35-1.18-6.51-1.83-6.84-2.04-13.58-1.43-20.29.66-1.74.54-3.49,1.12-5.28,1.39-3.13.49-5.69-1-6.48-3.51-.8-2.53.24-5.66,3.12-6.65,5.45-1.87,11.1-3.14,16.69-4.57,1.02-.26,2.14-.14,3.21-.19.08-.28.15-.57.23-.85Z" style="fill: #000; stroke-width: 0px;"/>
  <path d="M395.19,355.55c-2.39-.86-3.99-1.21-5.37-1.97-7.71-4.19-15.37-4.3-23.08-.06-.84.46-1.75.85-2.67,1.12-3.41,1.01-6.53-.24-7.65-2.98-1.13-2.79.09-6,3.1-7.64,1.3-.71,2.75-1.26,4.2-1.6,9.69-2.23,19.41-2.23,29.08.06,1.83.43,3.72,1.25,5.21,2.39,2.08,1.59,3.39,4.09,1.93,6.52-1.08,1.78-3.24,2.89-4.74,4.15Z" style="fill: #000; stroke-width: 0px;"/>
  <path d="M369.82,100.88c5.47,2.68,11.31,1.04,17.18.56,2.38-.2,4.94.39,7.25,1.15,2.83.93,4.31,3.93,3.53,6.43-.91,2.94-3.39,4.53-5.99,3.62-9.17-3.22-18.11-3.25-27.28,0-2.65.94-5.39-1.22-5.95-3.71-.66-2.97.68-5.21,3.33-6.24,2.36-.92,4.97-1.17,7.93-1.81Z" style="fill: #000; stroke-width: 0px;"/>
  <path d="M394.79,236.77c-.04,3.79-2.19,5.93-5.13,5.78-1.77-.09-3.55-.72-5.24-1.34-4.21-1.54-8.36-1.6-12.55.05-1.19.47-2.41.95-3.66,1.2-3.05.61-5.79-.84-6.5-3.33-.74-2.58.98-5.44,4.07-6.34,1.62-.47,3.37-.66,5.07-.69,4.91-.09,9.82-.13,14.73.02,2,.06,4.21.24,5.91,1.15,1.58.84,2.61,2.73,3.3,3.51Z" style="fill: #000; stroke-width: 0px;"/>
  <path d="M378.15,76.3c-.96,0-1.93.08-2.89-.02-2.64-.27-4.43-1.62-4.75-4.37-.29-2.46,1.67-4.67,4.44-4.95,1.91-.2,3.85-.15,5.77-.05,3.07.16,5.1,2.11,5.08,4.7-.03,2.77-2.18,4.63-5.41,4.66-.75,0-1.5-.06-2.24-.1,0,.04,0,.08,0,.11Z" style="fill: #000; stroke-width: 0px;"/>
  <path d="M378.12,377.44c-4.84.02-7.12-1.41-7.15-4.49-.03-3.26,2.37-4.85,7.28-4.82.43,0,.86.01,1.28.04,3.81.23,6.04,2.09,5.92,4.93-.12,2.73-2.2,4.22-6.04,4.34-.43.01-.86,0-1.28,0Z" style="fill: #000; stroke-width: 0px;"/>
  <path d="M708.04,339.05c-.91,3.96-1.43,8.05-2.81,11.84-2.94,8.05-9.22,12-17.76,11.62-6.46-.29-12.16-2.66-16.94-7.01-8.5-7.73-8.3-19.49.69-27.03,3.59-3,7.63-5.65,11.84-7.69,10.86-5.27,22.13.81,24.07,12.7.29,1.8.35,3.63.52,5.45l.39.13Z" style="fill: #000; stroke-width: 0px;"/>
  <path d="M685.35,279.56c-.35,6.23-2.49,11.66-7.98,15.27-5.2,3.42-11.61,2.71-15.86-1.83-4.79-5.13-6.19-11.2-3.95-17.89,2.24-6.69,7.45-10.18,14.01-11.37,2.12-.39,4.9.7,6.85,1.94,4.91,3.14,6.73,8.12,6.94,13.89Z" style="fill: #000; stroke-width: 0px;"/>
  <path d="M661.83,308.27c-.42,2.22-.63,4.37-1.25,6.4-2.36,7.65-8.99,11.09-15.71,8.28-7.57-3.16-11.36-11.87-7.8-18.5,1.3-2.41,3.12-4.65,5.08-6.58,6.31-6.2,15.28-4.13,18.32,4.19.72,1.98.93,4.15,1.37,6.22Z" style="fill: #000; stroke-width: 0px;"/>
  <path d="M68.47,363.28c-8.17-.62-14.15-4.46-17.16-11.79-2.6-6.33-3.32-12.93-1.72-19.6,2.95-12.28,16.69-16.93,26.69-9.19,1.35,1.04,2.92,1.8,4.41,2.65,6.59,3.73,11.11,8.97,11.24,16.85.13,7.98-4.46,13.37-11.13,16.8-3.83,1.97-8.2,2.89-12.33,4.29Z" style="fill: #000; stroke-width: 0px;"/>
  <path d="M100.08,280.86c-.57,2.27-.88,4.65-1.77,6.79-2.16,5.19-5.8,8.84-11.72,9.2-5.88.35-9.99-2.74-12.88-7.57-4.68-7.85-3.2-17.76,3.39-23.11,3.25-2.64,6.73-3.4,10.79-1.71,7.66,3.18,11.89,8.84,12.2,16.41Z" style="fill: #000; stroke-width: 0px;"/>
  <path d="M94.24,309.14c.77-3.08,1.07-5.71,2.08-8.02,3.26-7.46,11.57-9.11,17.53-3.61,1.34,1.23,2.53,2.65,3.65,4.08,6.39,8.16,1.8,20.14-8.43,22.09-4.65.89-9.27-.95-11.51-5.25-1.55-2.98-2.3-6.37-3.32-9.29Z" style="fill: #000; stroke-width: 0px;"/>
  <path d="M344.89,604.53c.1-9.47.26-18.94,3.31-28.07,2.66-7.95,7.05-14.63,13.75-19.84,3.83-2.98,7.98-3.93,12.68-3.55,2.33.19,4.7.24,7.03.03,4.82-.44,9.04.55,12.95,3.64,6.37,5.05,11.01,11.34,13.24,19.04,4.79,16.5,5.02,33.29,1.76,50.09-1.58,8.14-6.73,14.4-12.43,19.99-4.64,4.55-10.46,4.9-16.55,2.78-1.45-.5-3.39-.57-4.8-.03-6.77,2.59-13.57.87-18.46-4.45-8.66-9.42-13.01-20.35-12.48-33.18.09-2.15.01-4.3.01-6.45ZM377.02,632.21c.45-.06.91-.12,1.36-.19,3.14-3.42,4.01-7.69,4.01-12.13,0-10.1-.05-20.21-.34-30.3-.13-4.56-1.79-8.8-3.91-12.87-2.56,5.45-4.27,10.89-4.01,16.86.21,4.82,0,9.66-.03,14.5-.02,4.62-.41,9.28.07,13.85.37,3.49,1.86,6.86,2.85,10.29Z" style="fill: #000; stroke-width: 0px;"/>
  <path d="M199.95,648.71c.7-8.13,4.36-16.3,12.74-21.79,4.9-3.21,10.07-3.4,15.21-.37,2.4,1.42,4.94,2.67,7.12,4.38,7.16,5.61,8.97,14.66,4.37,22.5-4.55,7.76-11.42,12.54-20.35,13.77-11.01,1.53-19.11-5.81-19.09-18.5Z" style="fill: #000; stroke-width: 0px;"/>
  <path d="M556.41,649.28c-.07,11.96-7.71,19.22-18.33,17.99-10.22-1.18-17.75-6.65-22.15-16.06-1.85-3.96-2.03-8.16-.43-12.24,3.27-8.32,10.3-12.4,18.31-14.18,7.39-1.64,12.6,3.06,16.76,8.64,3.75,5.04,5.79,10.74,5.84,15.84Z" style="fill: #000; stroke-width: 0px;"/>
  <path d="M336.14,688.9c3.65.08,6.2,3.41,4.57,6.38-1.84,3.36-4.5,6.45-7.37,9.03-2.07,1.86-5.1.11-5.46-2.62-.41-3.11,3.5-10.76,6.26-12.13.75-.37,1.6-.53,1.99-.65Z" style="fill: #000; stroke-width: 0px;"/>
  <path d="M428.4,701c.01,3.16-3.17,5.33-5.47,3.3-2.9-2.56-5.32-5.8-7.38-9.11-1.21-1.96-.24-4.63,1.96-5.44,1.61-.59,4.64-.5,5.48.54,2.48,3.09,4.19,6.8,6.2,10.27-.26.15-.52.29-.79.44Z" style="fill: #000; stroke-width: 0px;"/>
  <path d="M408.28,708.24c.1-1.17.13-2.35.3-3.51.47-3.07,2.63-4.93,5.15-4.52,2.63.43,4.09,3.11,3.25,6.26-.47,1.75-1.16,3.44-1.88,5.11-.84,1.93-2.42,3.55-4.45,2.5-1.24-.65-1.77-2.75-2.5-4.26-.2-.41.06-1.05.11-1.58Z" style="fill: #000; stroke-width: 0px;"/>
  <path d="M348.81,710.14c-1.07,1.37-1.88,3.36-3.28,3.97-2.29.99-3.71-.89-4.54-2.9-.65-1.57-1.29-3.18-1.71-4.82-.79-3.09.75-5.78,3.38-6.18,2.49-.38,4.61,1.51,5.06,4.62.23,1.58.29,3.19.43,4.78.22.18.44.35.66.53Z" style="fill: #000; stroke-width: 0px;"/>
  <path d="M386.38,718.13c-2.64-.04-5.72-2.86-5.62-5.29.1-2.55,1.7-3.56,4.1-3.5,3.21.09,5.89,2.35,5.84,4.89-.04,2.18-2,3.94-4.31,3.9Z" style="fill: #000; stroke-width: 0px;"/>
  <path d="M375.52,712.87c-.05,2.48-3,5.31-5.63,5.25-2.48-.06-4.09-1.29-4.19-3.91-.1-2.72,2.77-4.97,6.09-4.89,2.27.06,3.77,1.48,3.73,3.55Z" style="fill: #000; stroke-width: 0px;"/>
  <path d="M334.46,500.68c-.67,4.36-7.69,9.21-11.32,7.76-1.28-.51-2.52-1.21-3.62-2.04-1.97-1.5-2.82-3.54-1.92-5.95.83-2.23,2.68-2.78,4.92-2.81,1.2-.02,2.37-.61,3.58-.84,1.66-.32,3.73-1.27,4.91-.63,1.52.82,2.34,2.95,3.46,4.52Z" style="fill: #000; stroke-width: 0px;"/>
  <path d="M431.86,508.99c-3.12-.03-9.42-5.11-9.21-7.13.2-1.95,1-4.2,2.31-5.57,1.59-1.65,3.67-.85,5.48.6.78.63,2.13.75,3.22.75,2.36,0,4.73.54,5,2.99.2,1.82-.6,4.25-1.84,5.6-1.41,1.53-3.8,2.16-4.97,2.76Z" style="fill: #000; stroke-width: 0px;"/>
  <path d="M360.76,492.56c.45-2.12,1.94-3.22,4.32-3.05,2.8.2,5.43,2.94,4.98,5.27-.47,2.47-2.26,3.22-4.54,3.03-2.97-.25-5.05-2.47-4.75-5.25Z" style="fill: #000; stroke-width: 0px;"/>
  <path d="M395.56,493.26c-.22,2.88-2.95,4.9-5.85,4.56-2.21-.26-3.57-1.46-3.51-3.78.06-2.43,3.04-4.7,5.75-4.48,2.44.19,3.59,1.6,3.61,3.7Z" style="fill: #000; stroke-width: 0px;"/>
</svg>