<?xml version="1.0" encoding="UTF-8" standalone="no"?>
<!DOCTYPE svg PUBLIC "-//W3C//DTD SVG 1.1//EN" "http://www.w3.org/Graphics/SVG/1.1/DTD/svg11.dtd">
<svg width="100%" height="100%" viewBox="0 0 1280 800" version="1.1" xmlns="http://www.w3.org/2000/svg" xmlns:xlink="http://www.w3.org/1999/xlink" xml:space="preserve" xmlns:serif="http://www.serif.com/" style="fill-rule:evenodd;clip-rule:evenodd;stroke-linejoin:round;stroke-miterlimit:2;">
    <clipPath id="_clip1">
        <rect x="0" y="0" width="1280" height="800"/>
    </clipPath>
    <g clip-path="url(#_clip1)">
        <g id="Layer-1" serif:id="Layer 1">
        </g>
    </g>
    <g id="Layer-11" serif:id="Layer 1">
        <g transform="matrix(1,0,0,1,640,400)">
            <rect x="-640" y="-400" width="1280" height="800" style="fill:rgb(255,255,240);fill-opacity:0.5;"/>
        </g>
        <g transform="matrix(1,0,0,1,601.875,708.333)">
            <g transform="matrix(64,0,0,64,-213.939,-6.38667)">
                <path d="M0.038,-0.244L0.172,-0.244C0.176,-0.214 0.189,-0.188 0.21,-0.165C0.231,-0.142 0.258,-0.125 0.293,-0.113C0.328,-0.1 0.368,-0.094 0.413,-0.094C0.48,-0.094 0.534,-0.105 0.573,-0.126C0.612,-0.147 0.632,-0.175 0.632,-0.211C0.632,-0.24 0.621,-0.262 0.598,-0.277C0.575,-0.292 0.534,-0.303 0.475,-0.31L0.313,-0.331C0.222,-0.343 0.157,-0.366 0.116,-0.399C0.075,-0.432 0.054,-0.478 0.054,-0.539C0.054,-0.585 0.068,-0.625 0.096,-0.659C0.123,-0.692 0.162,-0.718 0.213,-0.737C0.264,-0.755 0.323,-0.764 0.391,-0.764C0.458,-0.764 0.518,-0.754 0.57,-0.734C0.622,-0.714 0.664,-0.686 0.695,-0.651C0.725,-0.615 0.742,-0.573 0.745,-0.525L0.611,-0.525C0.608,-0.552 0.596,-0.575 0.578,-0.594C0.559,-0.613 0.533,-0.628 0.501,-0.64C0.469,-0.651 0.431,-0.656 0.388,-0.656C0.327,-0.656 0.278,-0.646 0.241,-0.626C0.204,-0.606 0.186,-0.579 0.186,-0.544C0.186,-0.517 0.197,-0.497 0.219,-0.483C0.24,-0.468 0.278,-0.457 0.332,-0.45L0.496,-0.427C0.563,-0.418 0.616,-0.405 0.656,-0.39C0.695,-0.374 0.722,-0.353 0.739,-0.327C0.756,-0.3 0.764,-0.266 0.764,-0.225C0.764,-0.177 0.749,-0.135 0.72,-0.099C0.691,-0.063 0.65,-0.035 0.597,-0.016C0.544,0.004 0.482,0.014 0.411,0.014C0.339,0.014 0.276,0.003 0.221,-0.019C0.166,-0.04 0.122,-0.07 0.09,-0.109C0.058,-0.148 0.041,-0.193 0.038,-0.244Z" style="fill-rule:nonzero;"/>
            </g>
            <g transform="matrix(64,0,0,64,-162.547,-6.38667)">
                <path d="M0.005,-0.466L0.005,-0.525L0.126,-0.556L0.18,-0.714L0.256,-0.714L0.256,-0.566L0.519,-0.566L0.519,-0.466L0.256,-0.466L0.256,-0.221C0.256,-0.174 0.266,-0.14 0.287,-0.122C0.307,-0.102 0.34,-0.093 0.386,-0.093C0.415,-0.093 0.441,-0.096 0.464,-0.103C0.487,-0.109 0.508,-0.118 0.529,-0.13L0.529,-0.023C0.512,-0.014 0.487,-0.006 0.456,0.002C0.424,0.01 0.391,0.014 0.358,0.014C0.303,0.014 0.258,0.005 0.224,-0.014C0.19,-0.032 0.165,-0.057 0.15,-0.09C0.134,-0.122 0.126,-0.159 0.126,-0.201L0.126,-0.466L0.005,-0.466Z" style="fill-rule:nonzero;"/>
            </g>
            <g transform="matrix(64,0,0,64,-128.307,-6.38667)">
                <path d="M0.378,0.014C0.312,0.014 0.253,0.002 0.202,-0.024C0.151,-0.048 0.11,-0.083 0.081,-0.128C0.052,-0.173 0.037,-0.225 0.037,-0.284C0.037,-0.343 0.051,-0.394 0.079,-0.439C0.106,-0.483 0.145,-0.518 0.194,-0.543C0.243,-0.568 0.299,-0.58 0.362,-0.58C0.425,-0.58 0.48,-0.566 0.527,-0.538C0.573,-0.509 0.609,-0.469 0.634,-0.418C0.659,-0.367 0.672,-0.306 0.672,-0.237L0.139,-0.237L0.139,-0.336L0.607,-0.336L0.542,-0.299C0.54,-0.336 0.531,-0.368 0.516,-0.395C0.5,-0.422 0.479,-0.442 0.453,-0.457C0.426,-0.471 0.395,-0.478 0.359,-0.478C0.321,-0.478 0.288,-0.47 0.26,-0.455C0.231,-0.44 0.209,-0.418 0.193,-0.391C0.177,-0.363 0.169,-0.33 0.169,-0.292C0.169,-0.25 0.179,-0.214 0.198,-0.183C0.217,-0.152 0.244,-0.129 0.279,-0.113C0.314,-0.096 0.355,-0.088 0.403,-0.088C0.446,-0.088 0.491,-0.095 0.536,-0.109C0.581,-0.122 0.621,-0.141 0.656,-0.166L0.656,-0.072C0.621,-0.045 0.579,-0.024 0.53,-0.009C0.48,0.006 0.429,0.014 0.378,0.014Z" style="fill-rule:nonzero;"/>
            </g>
            <g transform="matrix(64,0,0,64,-83.379,-6.38667)">
                <path d="M0.412,-0.683C0.363,-0.683 0.327,-0.673 0.304,-0.652C0.28,-0.631 0.268,-0.598 0.268,-0.551L0.268,-0L0.138,-0L0.138,-0.539C0.138,-0.588 0.147,-0.63 0.166,-0.667C0.184,-0.704 0.212,-0.732 0.251,-0.753C0.289,-0.774 0.338,-0.784 0.397,-0.784C0.426,-0.784 0.451,-0.782 0.473,-0.777C0.495,-0.772 0.517,-0.766 0.538,-0.759L0.538,-0.657C0.519,-0.666 0.499,-0.673 0.478,-0.677C0.457,-0.681 0.435,-0.683 0.412,-0.683ZM0.017,-0.427L0.017,-0.527L0.527,-0.527L0.527,-0.427L0.017,-0.427Z" style="fill-rule:nonzero;"/>
            </g>
            <g transform="matrix(64,0,0,64,-50.547,-6.38667)">
                <path d="M0.597,-0L0.575,-0.21L0.601,-0.283L0.575,-0.355L0.597,-0.566L0.731,-0.566L0.701,-0.283L0.731,-0L0.597,-0ZM0.637,-0.283C0.624,-0.224 0.603,-0.172 0.574,-0.127C0.545,-0.082 0.509,-0.048 0.466,-0.023C0.423,0.002 0.375,0.014 0.322,0.014C0.267,0.014 0.218,0.002 0.175,-0.024C0.132,-0.048 0.099,-0.083 0.075,-0.128C0.051,-0.173 0.039,-0.224 0.039,-0.283C0.039,-0.342 0.051,-0.394 0.075,-0.439C0.099,-0.483 0.132,-0.518 0.175,-0.543C0.218,-0.568 0.267,-0.58 0.322,-0.58C0.375,-0.58 0.423,-0.568 0.466,-0.543C0.509,-0.518 0.545,-0.484 0.575,-0.44C0.604,-0.395 0.625,-0.343 0.637,-0.283ZM0.171,-0.283C0.171,-0.245 0.179,-0.212 0.195,-0.183C0.21,-0.154 0.232,-0.131 0.259,-0.115C0.286,-0.098 0.318,-0.09 0.353,-0.09C0.389,-0.09 0.422,-0.098 0.453,-0.115C0.484,-0.131 0.511,-0.154 0.535,-0.183C0.558,-0.212 0.577,-0.245 0.591,-0.283C0.577,-0.321 0.558,-0.355 0.535,-0.384C0.511,-0.413 0.484,-0.435 0.453,-0.452C0.422,-0.468 0.389,-0.476 0.353,-0.476C0.318,-0.476 0.286,-0.468 0.259,-0.452C0.232,-0.435 0.21,-0.413 0.195,-0.384C0.179,-0.355 0.171,-0.321 0.171,-0.283Z" style="fill-rule:nonzero;"/>
            </g>
            <g transform="matrix(64,0,0,64,-0.179,-6.38667)">
                <path d="M0.042,-0.566L0.172,-0.566L0.206,-0.362L0.206,-0L0.076,-0L0.076,-0.381L0.042,-0.566ZM0.431,-0.58C0.484,-0.58 0.53,-0.569 0.567,-0.548C0.604,-0.527 0.633,-0.496 0.653,-0.457C0.672,-0.417 0.682,-0.369 0.682,-0.313L0.682,-0L0.552,-0L0.552,-0.292C0.552,-0.351 0.538,-0.396 0.511,-0.427C0.483,-0.457 0.442,-0.472 0.389,-0.472C0.352,-0.472 0.32,-0.464 0.293,-0.448C0.265,-0.431 0.244,-0.408 0.229,-0.379C0.214,-0.35 0.206,-0.315 0.206,-0.276L0.16,-0.301C0.166,-0.36 0.181,-0.41 0.206,-0.451C0.231,-0.492 0.262,-0.524 0.301,-0.547C0.34,-0.569 0.383,-0.58 0.431,-0.58Z" style="fill-rule:nonzero;"/>
            </g>
            <g transform="matrix(64,0,0,64,61.837,-6.38667)">
                <path d="M0.476,-0.056L0.414,-0.056L0.737,-0.75L0.878,-0.75L0.516,-0L0.369,-0L0.007,-0.75L0.149,-0.75L0.476,-0.056Z" style="fill-rule:nonzero;"/>
            </g>
            <g transform="matrix(64,0,0,64,111.693,-6.38667)">
                <path d="M0.382,0.014C0.313,0.014 0.253,0.002 0.202,-0.024C0.15,-0.048 0.11,-0.083 0.081,-0.128C0.051,-0.173 0.037,-0.224 0.037,-0.283C0.037,-0.342 0.051,-0.394 0.081,-0.439C0.11,-0.483 0.15,-0.518 0.202,-0.543C0.253,-0.568 0.313,-0.58 0.382,-0.58C0.451,-0.58 0.511,-0.568 0.563,-0.543C0.614,-0.518 0.655,-0.483 0.684,-0.439C0.713,-0.394 0.727,-0.342 0.727,-0.283C0.727,-0.224 0.713,-0.173 0.684,-0.128C0.655,-0.083 0.614,-0.048 0.563,-0.024C0.511,0.002 0.451,0.014 0.382,0.014ZM0.382,-0.088C0.426,-0.088 0.464,-0.096 0.496,-0.112C0.527,-0.128 0.552,-0.151 0.569,-0.18C0.586,-0.209 0.595,-0.243 0.595,-0.283C0.595,-0.323 0.586,-0.358 0.569,-0.387C0.552,-0.416 0.527,-0.438 0.496,-0.454C0.464,-0.47 0.426,-0.478 0.382,-0.478C0.339,-0.478 0.301,-0.47 0.269,-0.454C0.237,-0.438 0.212,-0.416 0.195,-0.387C0.178,-0.358 0.169,-0.323 0.169,-0.283C0.169,-0.243 0.178,-0.209 0.195,-0.18C0.212,-0.151 0.237,-0.128 0.269,-0.112C0.301,-0.096 0.339,-0.088 0.382,-0.088ZM0.236,-0.641C0.212,-0.641 0.193,-0.648 0.178,-0.661C0.163,-0.674 0.155,-0.691 0.155,-0.713C0.155,-0.734 0.163,-0.752 0.178,-0.765C0.193,-0.778 0.212,-0.784 0.236,-0.784C0.26,-0.784 0.28,-0.778 0.295,-0.765C0.31,-0.752 0.317,-0.734 0.317,-0.713C0.317,-0.691 0.31,-0.674 0.295,-0.661C0.28,-0.648 0.26,-0.641 0.236,-0.641ZM0.529,-0.641C0.505,-0.641 0.486,-0.648 0.471,-0.661C0.456,-0.674 0.448,-0.691 0.448,-0.713C0.448,-0.734 0.456,-0.752 0.471,-0.765C0.486,-0.778 0.505,-0.784 0.529,-0.784C0.552,-0.784 0.572,-0.778 0.587,-0.765C0.602,-0.752 0.609,-0.734 0.609,-0.713C0.609,-0.691 0.602,-0.674 0.587,-0.661C0.572,-0.648 0.552,-0.641 0.529,-0.641Z" style="fill-rule:nonzero;"/>
            </g>
            <g transform="matrix(64,0,0,64,160.589,-6.38667)">
                <path d="M0.583,-0.139L0.583,-0.239L0.588,-0.257L0.588,-0.366L0.583,-0.386L0.583,-0.566L0.713,-0.566L0.713,-0.151C0.713,-0.078 0.698,-0.018 0.667,0.032C0.636,0.081 0.594,0.117 0.541,0.142C0.488,0.167 0.426,0.179 0.357,0.179C0.306,0.179 0.26,0.172 0.217,0.159C0.174,0.146 0.133,0.125 0.093,0.098L0.093,-0.01C0.134,0.022 0.176,0.045 0.219,0.058C0.262,0.07 0.306,0.077 0.349,0.077C0.425,0.077 0.483,0.058 0.523,0.021C0.563,-0.016 0.583,-0.07 0.583,-0.139ZM0.311,-0.044C0.259,-0.044 0.212,-0.055 0.171,-0.078C0.13,-0.1 0.097,-0.131 0.073,-0.171C0.049,-0.211 0.037,-0.258 0.037,-0.312C0.037,-0.366 0.049,-0.413 0.073,-0.453C0.097,-0.493 0.13,-0.524 0.171,-0.547C0.212,-0.569 0.259,-0.58 0.311,-0.58C0.35,-0.58 0.385,-0.574 0.419,-0.562C0.452,-0.55 0.481,-0.534 0.508,-0.515C0.534,-0.495 0.556,-0.473 0.575,-0.45C0.593,-0.426 0.607,-0.402 0.617,-0.378C0.627,-0.353 0.632,-0.331 0.632,-0.311C0.632,-0.285 0.624,-0.257 0.609,-0.226C0.594,-0.195 0.572,-0.165 0.544,-0.138C0.515,-0.111 0.481,-0.088 0.442,-0.071C0.403,-0.053 0.359,-0.044 0.311,-0.044ZM0.351,-0.14C0.398,-0.14 0.442,-0.154 0.482,-0.181C0.521,-0.208 0.557,-0.252 0.588,-0.312C0.557,-0.373 0.521,-0.418 0.482,-0.445C0.442,-0.471 0.398,-0.485 0.351,-0.485C0.312,-0.485 0.279,-0.478 0.252,-0.463C0.225,-0.448 0.204,-0.428 0.19,-0.402C0.175,-0.376 0.168,-0.346 0.168,-0.312C0.168,-0.279 0.175,-0.249 0.19,-0.223C0.204,-0.197 0.225,-0.177 0.252,-0.162C0.279,-0.147 0.312,-0.14 0.351,-0.14Z" style="fill-rule:nonzero;"/>
            </g>
            <g transform="matrix(64,0,0,64,210.445,-6.38667)">
                <path d="M0.378,0.014C0.312,0.014 0.253,0.002 0.202,-0.024C0.151,-0.048 0.11,-0.083 0.081,-0.128C0.052,-0.173 0.037,-0.225 0.037,-0.284C0.037,-0.343 0.051,-0.394 0.079,-0.439C0.106,-0.483 0.145,-0.518 0.194,-0.543C0.243,-0.568 0.299,-0.58 0.362,-0.58C0.425,-0.58 0.48,-0.566 0.527,-0.538C0.573,-0.509 0.609,-0.469 0.634,-0.418C0.659,-0.367 0.672,-0.306 0.672,-0.237L0.139,-0.237L0.139,-0.336L0.607,-0.336L0.542,-0.299C0.54,-0.336 0.531,-0.368 0.516,-0.395C0.5,-0.422 0.479,-0.442 0.453,-0.457C0.426,-0.471 0.395,-0.478 0.359,-0.478C0.321,-0.478 0.288,-0.47 0.26,-0.455C0.231,-0.44 0.209,-0.418 0.193,-0.391C0.177,-0.363 0.169,-0.33 0.169,-0.292C0.169,-0.25 0.179,-0.214 0.198,-0.183C0.217,-0.152 0.244,-0.129 0.279,-0.113C0.314,-0.096 0.355,-0.088 0.403,-0.088C0.446,-0.088 0.491,-0.095 0.536,-0.109C0.581,-0.122 0.621,-0.141 0.656,-0.166L0.656,-0.072C0.621,-0.045 0.579,-0.024 0.53,-0.009C0.48,0.006 0.429,0.014 0.378,0.014Z" style="fill-rule:nonzero;"/>
            </g>
            <g transform="matrix(64,0,0,64,255.885,-6.38667)">
                <rect x="0.069" y="-0.77" width="0.13" height="0.77" style="fill-rule:nonzero;"/>
            </g>
            <g transform="matrix(64,0,0,64,273.037,-6.38667)">
                <path d="M0.069,-0.57L0.134,-0.558L0.199,-0.57L0.199,-0L0.069,-0L0.069,-0.57ZM0.134,-0.641C0.109,-0.641 0.089,-0.648 0.073,-0.662C0.057,-0.675 0.049,-0.693 0.049,-0.715C0.049,-0.737 0.057,-0.755 0.073,-0.769C0.089,-0.782 0.109,-0.789 0.134,-0.789C0.159,-0.789 0.18,-0.782 0.196,-0.769C0.211,-0.755 0.219,-0.737 0.219,-0.715C0.219,-0.693 0.211,-0.675 0.196,-0.662C0.18,-0.648 0.159,-0.641 0.134,-0.641Z" style="fill-rule:nonzero;"/>
            </g>
        </g>
        <g id="logo_original.svg" transform="matrix(1,0,0,1,640,352.491)">
            <rect x="-375.25" y="-226.509" width="750.5" height="453.018" style="fill:none;"/>
            <g id="logo_original.svg1" serif:id="logo_original.svg" transform="matrix(0.946466,0,0,0.947221,0,2.84217e-14)">
                <g transform="matrix(1,0,0,1,-396.475,-239.13)">
                    <clipPath id="_clip2">
                        <rect x="0" y="0" width="792.95" height="478.26"/>
                    </clipPath>
                    <g clip-path="url(#_clip2)">
                        <g id="f">
                            <path d="M659.01,267.6C656.85,247.79 679.52,245.54 681.69,257.98C683.47,268.14 681.25,286.46 703.21,338.52C711.56,358.3 738.67,400.17 738.67,421.76C738.67,494.51 643,502.99 650.75,411.76C659.21,312.14 662.99,304.14 659.01,267.59L659.01,267.6Z" style="fill-rule:nonzero;"/>
                            <path d="M622.07,158.11C608.44,117.16 616.48,58.27 643.67,30.88C707.64,-33.55 718.85,21.06 715.06,32.3C708.39,52.08 689.19,67.41 679.78,75.88C656.36,96.95 650.52,131.26 660.43,163.03C666.74,183.25 676.44,216.21 657,234.81C624.24,266.14 591.77,230.33 621.96,194.1C627.76,187.14 624.71,166.07 622.07,158.12L622.07,158.11Z" style="fill-rule:nonzero;"/>
                            <path d="M788.66,113.77C782.54,141.9 753.21,157.59 743.13,122.23C737.31,101.81 743.04,85.75 744.04,78.78C745.78,66.64 742.4,56.87 733.21,47.77C725.34,39.98 723.54,-11.58 760.51,3.02C772.02,7.56 779.33,16.66 784.57,27.61C792.27,43.71 796.76,76.52 788.67,113.76L788.66,113.77Z" style="fill-rule:nonzero;"/>
                            <path d="M692.13,122.56C701.96,111.47 708.09,117.67 710.02,133.61C712.26,152.02 721.08,157.97 726.85,174.49C732.69,191.17 737.47,204.86 733.81,222.2C729.48,242.71 706.42,245.43 697.18,235.39C685.58,222.79 683.6,206.89 682.11,190.88C681.61,185.51 679.56,136.74 692.13,122.56Z" style="fill-rule:nonzero;"/>
                        </g>
                        <g id="e">
                            <path d="M474.39,339.89C496.27,352.22 527.03,352.03 530.99,318.25C534.09,291.81 581.79,274.41 576.4,340.4C573.05,371.08 554.9,389.32 541.29,393.14C525.11,397.69 487.19,401.78 462.39,385C414.39,352.54 429.16,314.41 474.39,339.89Z" style="fill-rule:nonzero;"/>
                            <path d="M404.94,264.42C404.94,228.36 414.11,167.06 434.96,142.34C473.26,96.93 531.16,136.81 487.14,178.71C461.16,203.43 447.91,231.62 445.66,269.01C444.95,280.83 445.03,292.72 444.03,304.52C441.92,329.51 404.94,329.19 404.94,264.42Z" style="fill-rule:nonzero;"/>
                            <path d="M489.83,238.75C490.75,226.8 510.25,208.51 520.28,203.16C538.83,193.26 558.51,174.82 537.76,162.6C494.16,136.92 515.15,99.98 564.26,133.39C590.75,151.41 587.01,190.64 577.3,222.86C561.11,276.61 487.23,272.58 489.83,238.76L489.83,238.75Z" style="fill-rule:nonzero;"/>
                        </g>
                        <g id="t">
                            <path d="M309.23,130.78C310.21,97.64 289.09,77.67 312.68,48.65C327.77,30.09 350.8,37.75 358.74,55.32C366.68,72.89 366.47,89.37 358.69,105.65C337.27,150.48 342.37,180.93 328.16,227.21C322.14,246.81 310.05,260.22 289.68,265.5C242.79,277.63 232.88,230.54 262.94,214.38C292.11,198.7 307.9,175.71 309.24,130.78L309.23,130.78Z" style="fill-rule:nonzero;"/>
                            <path d="M350.08,205.37C364.87,173.21 382.91,196.72 374.23,206.68C351.82,232.41 356.81,265.47 363.37,286.3C371.44,311.91 383.86,318.99 391,352.72C401.4,401.85 338.59,425.15 326.45,344.29C319.15,295.69 332.18,244.3 350.08,205.37Z" style="fill-rule:nonzero;"/>
                        </g>
                        <g id="s">
                            <path d="M36.36,387.52C-23.91,376.01 -5.99,299.94 65.97,308.25C105.82,312.85 129.81,340.51 167.26,313.7C198.14,291.59 155.46,259.88 136.18,248.86C123.85,241.81 130.54,227.3 146.61,230.94C171.55,238.22 200.49,253.52 219.49,269.98C269.87,313.62 209.69,420.63 36.36,387.53L36.36,387.52Z" style="fill-rule:nonzero;"/>
                            <path d="M183.86,124.88C228.52,136.15 226.22,204.59 170.11,189.86C120.25,176.77 72.67,183.5 71.19,216.87C70.69,228.48 86.32,242.84 123.53,256.02C139.84,261.8 133.26,276.69 114.91,274.16C27.78,262.15 15.65,229.89 13.77,197.41C8.05,98.63 158.92,118.58 183.86,124.87L183.86,124.88Z" style="fill-rule:nonzero;"/>
                        </g>
                    </g>
                </g>
            </g>
        </g>
    </g>
</svg>
