<?xml version="1.0" encoding="UTF-8"?>
<svg id="Layer_1" data-name="Layer 1" xmlns="http://www.w3.org/2000/svg" viewBox="0 0 540.52 900">
  <path d="M367.99,826.4c-7.28,0-14.56-.11-21.83.08-1.69.05-3.73.75-4.95,1.86-1.82,1.67-3.23,3.88-4.5,6.04-2.21,3.79-3.74,8.06-6.34,11.55-9.25,12.42-21.63,20.34-36.81,23.42-9.34,1.9-18.7,4.19-28.4,3.17-17.34-1.82-33.87-5.73-47.48-17.65-5.53-4.85-9.37-10.8-12.61-17.31-1.6-3.21-3.68-6.21-5.77-9.15-1.18-1.66-3.05-2.08-5.19-2.01-18.03.56-36.07,1.03-54-1.43-14.14-1.93-28.13-4.67-40.61-12.11-22.05-13.13-33.64-32.44-33.96-58.28-.17-13.41,2.94-26.36,5.43-39.41,6.74-35.42,14.07-70.73,18.72-106.52.53-4.08,1.74-8.09,2.87-12.07.74-2.6,2.53-3.73,4.4-3.29,1.9.45,2.65,2.23,2.43,4.93-.96,11.64-1.86,23.28-2.73,34.92-.07.97.12,2.07.54,2.95,4.58,9.55,6.16,19.81,7.32,30.2.66,5.88,1.42,11.76,2.38,17.6,1.54,9.37,7.14,16.13,14.66,21.39,10.62,7.44,22.29,11.13,35.46,11.18,12.35.05,24.52-.5,36.52-3.47,1.4-.35,2.94-1.06,3.89-2.09,6.34-6.86,13.65-12.37,22.1-16.32,2.44-1.14,4.97-2.22,7.57-2.85,11.35-2.71,22.13-6.86,32.42-12.33,7.13-3.79,14.25-3.68,21.37.1,9.91,5.27,20.32,9.18,31.21,11.96,9.07,2.31,17.05,6.87,24.05,13.07,2.41,2.13,4.61,4.49,6.98,6.65.79.72,1.76,1.41,2.76,1.67,16.29,4.23,32.93,5.04,49.38,2.44,14.36-2.27,26.62-9.35,34.74-22.07,3.67-5.75,4-12.5,4.97-19.01,1.16-7.78,1.85-15.64,3.35-23.34.94-4.85,3.05-9.46,4.54-14.21.42-1.34.8-2.8.71-4.17-.81-11.56-1.72-23.12-2.64-34.67-.16-2.05.19-3.87,2.4-4.44,2.35-.61,3.77.84,4.33,2.9,1.11,4.07,2.23,8.16,2.94,12.31,3.99,23.36,7.7,46.76,11.8,70.09,3.53,20.09,7.68,40.07,11.1,60.17,2.69,15.76,1.64,31.25-5.74,45.83-8.48,16.72-22.05,27.67-39.46,33.87-14.95,5.32-30.56,7.41-46.37,7.98-4.65.17-9.31.03-13.96.03,0-.05,0-.1,0-.15ZM93.37,662.02c-.32-.01-.64-.02-.96-.04-1.2,6.55-2.63,13.08-3.57,19.67-1.77,12.4-3.36,24.82-4.83,37.26-1.41,11.92-3.5,23.87-3.65,35.82-.25,19.89,9.43,34.73,26.5,44.61,11.57,6.7,24.54,8.69,37.59,9.61,20.15,1.43,40.22.3,60.29-2.2,13.07-1.63,26.3-2.11,39.48-2.66,3.3-.14,6.87.94,9.96,2.29,3.65,1.59,5.24,5.78,4.46,9.39-.8,3.69-3.28,5.83-7.51,6.45-1.34.2-2.68.4-4.03.49-9.63.62-19.26,1.21-28.88,1.83-.87.06-1.74.29-2.88.49.45.77.62,1.24.94,1.58,3.56,3.73,7.12,7.46,10.72,11.16,5.82,5.97,12.32,10.78,20.7,12.66,11.87,2.67,23.8,2.84,35.85,1.66,13.27-1.29,24.02-7.01,32.45-17.32,2.19-2.67,4.81-4.99,7.21-7.49.54-.56,1.01-1.18,1.78-2.1-1.13-.28-1.74-.52-2.38-.58-4.47-.39-8.94-.78-13.41-1.08-6.5-.44-13.02-.68-19.5-1.26-4.77-.43-7.48-2.85-8.16-6.65-.72-4.03,1.27-8.19,5.48-9.85,2.83-1.12,6.08-1.8,9.11-1.71,10.48.3,21.03.43,31.41,1.73,19.02,2.37,38.02,4.26,57.2,3.77,13.93-.35,27.74-1.64,40.91-6.63,21.78-8.26,35.16-27.77,34.38-50.1-.18-5.07-.46-10.16-1.14-15.19-1.69-12.67-3.64-25.3-5.48-37.95-1.72-11.8-3.45-23.6-5.18-35.39-.11-.77-.35-1.52-.52-2.29-.21,0-.42.01-.64.02-.18,1.2-.45,2.4-.54,3.6-.3,4.05-.23,8.16-.85,12.15-1.02,6.49-1.32,13.45-3.98,19.27-7.73,16.88-20.69,28.74-38.74,33.75-13.44,3.73-27.48,4.53-41.33,3.44-11.86-.93-23.61-3.41-35.37-5.41-9.31-1.59-18.68-2.57-28.06-1.49-8.67,1-17.25,2.14-26.03,1.52-7.23-.51-14.62.43-21.76-.55-12.14-1.68-24.1-1.64-36.13.49-9.67,1.71-19.38,3.19-29.06,4.86-11.26,1.95-22.45.26-33.68-.35-17.66-.95-31.98-8.46-43.63-21.51-7.44-8.34-12.08-17.92-12.94-29.17-.38-4.98-.68-9.97-1.05-14.95-.14-1.89-.37-3.78-.56-5.67ZM307.88,707.54c.03-.21.06-.41.09-.62-.48-.29-.93-.68-1.46-.85-10.03-3.33-20.04-6.69-30.1-9.91-3.94-1.26-8.03-1.4-12.01-.12-10.3,3.31-20.56,6.72-30.83,10.12-.53.18-.96.66-1.9,1.35,1.15.13,1.63.22,2.12.23,11.66.08,23.04,2.01,34.25,5.13,1.31.36,2.9.32,4.21-.04,10.97-3.04,22.09-4.96,33.49-5.09.71,0,1.43-.13,2.14-.2Z" style="fill: #000; stroke-width: 0px;"/>
  <path d="M506.02,356.27c-.34,6.15-.18,12.89-1.18,19.46-2.15,14.14-10.1,24.07-23.31,29.75-9.29,3.99-19.16,5.6-29.03,7.08-15.98,2.4-32.07,4.15-48.01,6.77-11.67,1.92-23.18,4.86-34.78,7.24-4,.82-8.04,1.18-12.01-.4-5.13-2.04-6.56-6.76-3.37-11.3,2.45-3.49,6.03-5.37,9.86-6.84,12.26-4.73,25.1-7.04,38.06-8.52,17.24-1.97,34.59-3.13,51.52-7.14,6.32-1.5,12.57-3.4,18.72-5.53,7.74-2.67,11.77-8.57,11.96-16.58.2-8.45.28-16.98-.68-25.35-2.11-18.32-5.05-36.55-7.39-54.85-3.96-30.89-7.83-61.8-11.53-92.72-2.31-19.24-4.65-38.49-6.27-57.8-2.56-30.53-4.62-61.1-6.68-91.66-.36-5.27-.02-10.66.61-15.92.68-5.7,5.37-8.78,10.28-7.37,2.62.75,4.42,2.54,5.45,4.96.79,1.85,1.36,3.83,1.75,5.81,5.89,30.29,8.72,60.97,11.64,91.64,3.13,32.85,6.18,65.72,9.85,98.52,3.27,29.27,7.55,58.42,10.97,87.68,1.65,14.11,2.37,28.33,3.55,43.07Z" style="fill: #000; stroke-width: 0px;"/>
  <path d="M34.55,353.61c.83-20.83,3.12-43.81,6.22-66.72,5.92-43.7,11.62-87.42,15.52-131.36,1.62-18.21,2.93-36.44,4.72-54.63,2.16-21.99,4.7-43.93,9.19-65.6.46-2.21,1.13-4.46,2.15-6.47,1.57-3.1,4.28-4.84,7.85-4.56,3.46.27,5.86,2.35,6.9,5.55.8,2.46,1.51,5.15,1.36,7.69-1.37,23.48-2.84,46.96-4.46,70.42-1.06,15.28-2.1,30.57-3.73,45.8-2.55,23.9-5.39,47.77-8.47,71.61-4.56,35.34-9.64,70.61-14.06,105.96-1.47,11.73-1.65,23.62-2.32,35.44-.11,2.01.17,4.06.49,6.06,1.09,6.88,4.95,11.86,11.5,13.93,8.85,2.79,17.81,5.6,26.94,7.13,14.59,2.44,29.37,3.74,44.05,5.67,12.6,1.66,25.13,3.76,37.08,8.32,3.82,1.46,7.49,3.18,10.06,6.58,3.83,5.06,2.23,10.55-3.96,11.89-3.61.78-7.68.96-11.24.13-14.43-3.38-28.85-6.67-43.58-8.51-11.09-1.38-22.19-2.69-33.22-4.4-8.69-1.35-17.34-3.05-25.91-5-6.98-1.59-13.51-4.49-19.13-9.05-9.23-7.49-13.18-17.59-13.91-29.11-.3-4.81-.05-9.65-.05-16.75Z" style="fill: #000; stroke-width: 0px;"/>
  <path d="M101.82,554.35c-2.12,0-4.23-.03-6.35,0-22.18.39-44.35.66-66.38-2.66-3.35-.5-3.9-.05-4.17,3.38-.93,11.89-1.81,23.79-2.61,35.7-1.55,23.05-3.01,46.1-4.57,69.15-.25,3.69-.42,7.45-2.87,10.61-2.91,3.76-6.85,4.02-10.2.62-2.85-2.9-3.99-6.66-4.12-10.42-.36-10.22-.94-20.5-.18-30.66,2.16-28.94,4.9-57.84,7.5-86.74.84-9.35,6.69-13.48,15.94-11.91,13.94,2.37,27.96,4.01,42.15,3.89,23.87-.2,47.74-.16,71.6-.27,5.5-.02,11-.31,16.5-.31,2.39,0,2.94-1.01,3.01-3.23.55-17.42.73-34.87,2.06-52.24.72-9.46,3.18-18.83,5.42-28.1.75-3.11,2.82-6.2,5.04-8.58,4.25-4.54,11.53-3.25,13.85,2.5,1.28,3.16,1.94,6.97,1.55,10.33-1.22,10.5-3.28,20.89-4.63,31.38-1.74,13.59-3.08,27.24-4.66,40.85-.31,2.68-1.05,5.31-1.41,7.99-.28,2.07-.57,4.21-.33,6.25.45,3.66-.73,6.6-3.93,8.06-3.1,1.41-6.53,2.55-9.89,2.81-9.69.75-19.42,1.18-29.14,1.41-9.73.22-19.47.05-29.2.05,0,.04,0,.09,0,.13Z" style="fill: #000; stroke-width: 0px;"/>
  <path d="M437.12,535.25c11.09,0,22.18-.2,33.27.05,15.65.35,31.1-1.35,46.48-3.94,8.73-1.47,14.54,2.81,15.38,11.47,2.17,22.33,4.55,44.63,6.37,66.99,1.3,15.93,2.67,31.91,1.38,47.93-.24,3.01-1.12,5.97-1.71,8.95-.03.16-.1.32-.16.48-1.44,3.86-4.72,6.56-7.74,6.36-3.13-.2-6.49-3.37-7.05-7.39-.74-5.27-1.09-10.6-1.46-15.91-1.84-26.26-3.63-52.52-5.45-78.78-.39-5.66-.84-11.31-1.22-16.97-.15-2.2-1.14-3.27-3.43-2.91-29.05,4.44-58.29,2.65-87.47,2.63-14.72-.01-29.48.7-44.13-1.39-3.3-.47-6.65-1.33-9.69-2.67-3.3-1.46-4.6-4.41-4.24-8.18.21-2.21-.19-4.51-.46-6.75-1.05-8.82-2.02-17.65-3.25-26.44-1.98-14.16-4.2-28.29-6.19-42.45-.66-4.68-1.13-9.41-1.31-14.13-.08-2.12.43-4.41,1.23-6.4,2.62-6.46,10.26-7.99,14.85-2.75,2.15,2.45,3.78,5.67,4.72,8.82,3.84,12.97,5.68,26.27,6.01,39.8.32,13.45.87,26.9,1.22,40.35.06,2.21,1.09,2.69,3.02,2.69,17.01-.03,34.03-.02,51.04-.02,0,.19,0,.37,0,.56Z" style="fill: #000; stroke-width: 0px;"/>
  <path d="M103.91,846.49c11.93,0,23.87-.28,35.79.1,7.5.24,15.03,1.15,22.44,2.38,3.08.51,5.91,2.6,8.82,4.04,2.72,1.35,5.35,2.9,8.11,4.18,12.63,5.86,23.01,14.15,29.46,26.81,1.81,3.56,2.16,7.28,1.67,11.12-.46,3.57-2.89,5.29-6.46,4.77-4.77-.69-8.09-3.53-10.92-7.21-4.84-6.28-10.6-11.47-17.25-15.93-8.97-6.01-19.08-7.44-29.28-7.86-16.4-.68-32.83-.47-49.25-.72-11.08-.17-22.22.07-33.23-.94-9.4-.86-18.76-2.82-27.95-5.05-10.49-2.54-17.23-9.49-19.76-20.07-2.48-10.38-2.51-20.96-2.15-31.57.31-9.13.24-18.28.55-27.41.19-5.66.63-11.32,1.21-16.95.39-3.78,2.46-5.89,5.35-6.14,3.16-.27,5.93,1.57,6.61,5.4,1.08,6.07,1.93,12.22,2.23,18.37.56,11.24.48,22.5,1,33.74.27,5.81.98,11.64,1.97,17.38,1.27,7.32,4.25,9.25,11.55,10.6,19.78,3.67,39.63,2.53,59.5,1.6,0-.22,0-.44,0-.66Z" style="fill: #000; stroke-width: 0px;"/>
  <path d="M436.34,847.34c11.25.27,22.52,1.05,33.75.67,9.69-.33,19.34-1.85,28.98-3.12,4.46-.59,7.07-3.84,7.77-8.04,1.14-6.83,2.14-13.72,2.54-20.62.82-14.1,1.19-28.22,1.81-42.33.1-2.19.5-4.37.87-6.54.18-1.07.51-2.15.94-3.15,1.23-2.93,3.53-4.41,6.29-4.17,2.6.23,4.75,2.28,5.19,5.45.56,4.02,1.06,8.07,1.16,12.12.35,13.87.74,27.75.67,41.63-.04,6.83-.6,13.72-1.73,20.45-2.14,12.7-9.9,20.4-22.51,23.13-16.92,3.67-33.96,5.85-51.36,5.48-16.83-.35-33.69-.18-50.53.21-7.33.17-14.77.8-21.92,2.37-9.53,2.09-17.48,7.56-24.4,14.38-2.7,2.66-5.05,5.7-7.48,8.63-2.63,3.18-5.77,5.44-9.95,6.04-3.19.45-5.52-1.03-6.23-4.18-.96-4.29-.35-8.37,1.71-12.29,6.5-12.41,16.82-20.49,29.26-26.32,3.26-1.53,6.15-3.85,9.41-5.37,2.94-1.37,6.09-2.54,9.27-3.13,16.61-3.05,33.38-2.32,50.13-1.66,2.11.08,4.23.01,6.34.01,0,.12,0,.24,0,.36Z" style="fill: #000; stroke-width: 0px;"/>
  <path d="M412.21,58.64c.72-6.46,1.41-13.36,2.28-20.23.27-2.1-.24-3.18-2.43-3.52-20.32-3.13-40.58-6.75-60.98-9.31-14.25-1.79-28.67-2.2-43.02-3.14-3.67-.24-4.26.32-3.33,3.87,3.33,12.69,3.46,25.81,5.36,38.68,1.01,6.84.57,13.68-1.29,20.39-.69,2.49-1.72,4.69-4.53,5.24-2.86.56-4.89-.94-6.49-3.09-3.86-5.14-5.27-11.16-5.72-17.38-.85-11.82-1.92-23.59-4.61-35.18-1.36-5.84-2.32-11.81-2.9-17.78-.86-8.87,3.7-14.55,12.44-16.26.75-.15,1.5-.24,2.26-.31,11.36-1,22.62.15,33.94,1.05,19.96,1.59,39.56,5.38,59.23,8.74,8.67,1.48,17.25,3.48,25.86,5.29,1.73.37,3.47.83,5.12,1.47,7.61,2.94,11.25,9.46,10.15,17.55-1.43,10.47-2.57,20.99-4.07,31.45-.49,3.39-1.45,6.78-2.66,9.99-1.27,3.37-4.18,5.03-7.08,4.75-2.86-.28-5.31-2.49-5.86-6.16-.78-5.17-1.11-10.41-1.68-16.13Z" style="fill: #000; stroke-width: 0px;"/>
  <path d="M229.77,0c4.13.26,8.3.27,12.4.83,9.72,1.34,14.64,7.68,13.35,17.41-.98,7.37-2.08,14.78-3.82,22-2.2,9.13-2.55,18.41-3.36,27.68-.51,5.83-1.22,11.64-4.17,16.87-.66,1.18-1.36,2.35-2.22,3.39-1.54,1.87-3.5,3-6.02,2.41-2.4-.56-3.63-2.33-4.3-4.57-1.84-6.16-2.75-12.48-1.8-18.82,2.02-13.46,2.03-27.18,5.52-40.45,1.06-4.04.52-4.57-3.59-4.3-10.72.69-21.42,1.62-32.14,2.3-24.05,1.52-47.51,7.09-71.34,10.11-2.49.32-2.98,1.54-2.54,3.85,1.96,10.29,2.13,20.69,1.4,31.1-.12,1.76-.4,3.54-.83,5.26-.75,2.97-2.3,5.32-5.61,5.82-2.82.42-5.74-1.11-7.05-4.32-1.3-3.17-2.36-6.54-2.85-9.92-1.53-10.46-2.64-20.98-4.09-31.45-1.33-9.63,2.9-16.64,12.49-18.72,14.96-3.24,30.07-5.78,45.06-8.86,18.28-3.76,36.82-5.35,55.35-7.04,3.35-.31,6.76-.04,10.14-.04,0-.17,0-.34.01-.51Z" style="fill: #000; stroke-width: 0px;"/>
  <path d="M331.43,583.44c.6-1.56,1.02-2.43,1.27-3.34,2.73-9.82,1.98-19.72-.23-29.43-2.23-9.81-4.81-19.59-8.04-29.1-8.78-25.8-10.79-52.22-8.72-79.19,1-13.08,1.41-26.2,2.23-39.29.37-5.99.9-11.99,1.74-17.93.33-2.33,1.27-4.84,2.69-6.69,2.87-3.73,7.64-2.92,9.14,1.51.76,2.24,1.1,4.92.66,7.21-1.77,9.18-.91,18.39-1.01,27.6-.13,12.6-1.02,25.19-1.14,37.79-.1,10.74-.16,21.54.86,32.21.68,7.16,3.2,14.16,5.03,21.2,3.85,14.82,8.17,29.54,11.53,44.47,1.5,6.67,1.89,13.82,1.43,20.66-.61,9.13-4.57,17.47-9.09,25.35-3.05,5.33-8.07,8.49-14.04,9.65-6.06,1.17-12.21,1.83-18.33,2.63-3.01.4-6.05.9-9.08.89-6.25-.02-9.26-3.41-9.42-9.63-.17-6.8.05-13.53,1.75-20.17,1.89-7.37,5.51-13.41,13.6-14.69,8.67-1.37,16.35.9,21.63,8.52,1.49,2.14,2.57,4.56,3.85,6.85.43.77.88,1.54,1.67,2.93ZM319.64,591.99c-2.86-3.81-5.24-7.1-7.77-10.28-.46-.58-1.46-.82-2.26-1.04-1.81-.5-3.13-.06-3.63,1.99-.65,2.62-1.38,5.23-2.13,7.82-.54,1.88-.01,2.68,2.05,2.53,3.28-.23,6.58-.26,9.87-.44.96-.05,1.92-.29,3.87-.6Z" style="fill: #000; stroke-width: 0px;"/>
  <path d="M208.82,583.41c.79-1.39,1.23-2.15,1.66-2.92,1.37-2.43,2.56-4.99,4.13-7.27,4.97-7.2,16.13-10.53,24.29-7.32,4.91,1.93,8.19,5.67,9.51,10.58,1.42,5.27,2.14,10.75,2.9,16.18.34,2.4-.04,4.9,0,7.35.09,5.98-2.86,9.22-8.88,9.64-.84.06-1.7.12-2.54.01-8.14-1.05-16.31-1.94-24.4-3.29-6.25-1.04-11.71-4.08-14.87-9.7-6.41-11.41-11.45-23.38-9.31-36.92,1.3-8.26,2.87-16.51,4.93-24.61,3.38-13.29,7.04-26.51,10.99-39.64,2.61-8.68,2.86-17.54,2.95-26.4.09-9.64-.56-19.28-.72-28.92-.18-10.91-.05-21.82-.27-32.73-.13-6.32-.79-12.64-1.01-18.96-.1-2.83-.23-5.83.59-8.47,1.39-4.5,6.23-5.33,9.09-1.56,1.5,1.98,2.48,4.68,2.8,7.17.86,6.71,1.42,13.46,1.78,20.22.97,18.17,1.66,36.36,2.66,54.52,1.15,20.8-3.05,40.73-9.14,60.42-3.8,12.28-8,24.48-9.48,37.35-.85,7.36-1.03,14.7,1.07,21.92.27.91.67,1.79,1.26,3.33ZM221.08,591.57c.83.48,1.1.77,1.39.79,4.3.25,8.59.52,12.89.6.37,0,1.19-1.32,1.08-1.89-.43-2.32-1.14-4.58-1.74-6.87-1.09-4.14-3.86-5.17-6.83-2.04-2.61,2.75-4.51,6.18-6.8,9.4Z" style="fill: #000; stroke-width: 0px;"/>
  <path d="M341.84,138.04c-1.23-2.73-2.34-5.36-3.6-7.93-3.03-6.21-5.21-12.7-6.09-19.55-.31-2.45-.01-5.05.46-7.5.41-2.14,2.06-3.48,4.33-3.69,2.26-.21,3.9.88,5.04,2.76.31.5.58,1.04.8,1.59,4.61,11.46,9.43,22.84,13.74,34.41,5.5,14.76,7.42,30.38,10.1,45.8,2.87,16.49,3.61,33.15,3.11,49.84-.4,13.2-6.26,23.14-19,28.3-10.53,4.27-21.44,6.09-32.77,5.24-1.82-.14-3.64-.74-5.39-1.34-1.88-.65-3.51-2.04-3.16-4.08.26-1.55,1.28-3.51,2.56-4.23,3.22-1.8,6.68-3.36,10.23-4.37,6.82-1.94,13.79-3.39,20.66-5.15,2.78-.71,5.68-1.31,8.17-2.63,1.96-1.05,3.72-2.91,4.91-4.82,1.57-2.5,1.07-4.7-.96-7.46-3.82-5.21-8.83-8.24-14.46-10.69-12.77-5.57-20.2-15.79-24.56-28.55-2.61-7.65-4.08-15.53-4.16-23.66-.06-5.6.91-11.05,3.34-16.01,1.45-2.95,3.67-5.69,6.09-7.95,4.73-4.41,10.21-7.51,17.02-7.32.83.02,1.67-.22,2.5-.38.23-.04.43-.24,1.07-.61ZM355.72,211.7c.3-.22.61-.44.91-.65-.06-1.15,0-2.32-.2-3.45-2.51-14.68-5.03-29.36-7.59-44.03-.51-2.92-1.03-5.84-1.8-8.7-.21-.78-1.41-1.95-2.01-1.87-3.07.4-6.11,1.11-9.14,1.79-2.54.57-5.26,1.42-5.85,4.23-.79,3.75-1.86,7.83-1.15,11.44,1.52,7.69,4.04,15.18,6.3,22.7.47,1.57,1.32,3.32,2.54,4.33,5.89,4.86,11.97,9.5,17.98,14.22Z" style="fill: #000; stroke-width: 0px;"/>
  <path d="M198.24,138.51c2.5.34,4.33.58,6.15.83,10.59,1.48,17.72,7.44,21.64,17.2,2.51,6.25,2.84,12.85,2.09,19.51-1.3,11.59-4.26,22.59-11.08,32.3-3.67,5.23-8.18,9.46-13.89,12.36-2.79,1.42-5.58,2.85-8.41,4.18-3.29,1.55-6.11,3.61-8.01,6.79-.3.51-.68.98-1.07,1.42-1.13,1.29-2.89,2.19-2.41,4.41.58,2.72,1.35,5.54,3.94,6.8,3.3,1.61,6.84,2.82,10.39,3.83,8.37,2.38,16.82,4.48,25.19,6.85,2.01.57,4.08,1.43,5.68,2.72,1.22.98,2.48,2.89,2.37,4.28-.12,1.39-1.69,3.41-3.02,3.81-3.44,1.02-7.11,1.85-10.66,1.76-9.77-.25-19.32-1.83-28.42-5.8-11.16-4.87-17.25-13.58-17.9-25.33-.61-11.03-.19-22.18.64-33.21,1.6-21.31,5.03-42.4,11.56-62.78,3.32-10.37,7.97-20.31,12.02-30.44.97-2.43,1.83-4.92,2.96-7.28,1.25-2.59,3.38-3.75,5.7-3.33,2.6.48,4.03,2.3,4.3,4.72.28,2.49.55,5.19-.11,7.54-1.8,6.41-4.03,12.7-6.23,18.99-.88,2.52-2.13,4.91-3.44,7.88ZM183.56,211.47c.88-.37,1.28-.47,1.6-.68,4.04-2.78,8.07-5.58,12.1-8.38,4.39-3.05,7.45-7.05,8.9-12.26.89-3.18,2.18-6.24,2.98-9.44,1.51-6.04,3.6-12,2.05-18.45-1.27-5.28-2.88-6.98-8.25-7.72-2.09-.29-4.23-.44-6.22-1.05-2.86-.87-3.14-.92-3.71,1.99-1.03,5.23-1.95,10.48-2.87,15.73-2.07,11.75-4.13,23.5-6.14,35.25-.26,1.52-.27,3.08-.43,5Z" style="fill: #000; stroke-width: 0px;"/>
  <path d="M168.55,328.6c7.36.85,14.78,1.41,22.07,2.71,2.61.47,5.29,2.32,7.25,4.24,3.87,3.79,2.32,9.63-2.83,11.39-1.79.61-3.87.94-5.72.68-9.37-1.36-18.75-.88-28.14-.52-3.89.15-7.79.18-11.68.02-15.41-.61-25.74-8.57-32.04-22.32-2.45-5.35-3.5-10.92-3.25-16.78,1.09-25.08,4.29-49.92,9.08-74.53,5.51-28.33,11.38-56.59,17.17-84.86,1.29-6.3,2.88-12.53,4.39-18.79.79-3.28,3.13-5.2,5.84-4.94,2.88.28,4.85,2.65,4.65,6.2-.12,2.22-.86,4.41-1.32,6.61-1.24,5.87-2.86,11.69-3.64,17.62-3.59,27.13-8.88,53.93-14.72,80.65-4.83,22.12-7.51,44.56-7.76,67.24-.16,14.28,8.23,23.64,22.56,25.1,5.97.61,11.99.8,17.98,1.18.03-.3.06-.61.09-.91Z" style="fill: #000; stroke-width: 0px;"/>
  <path d="M376.1,346.4c-8.35.42-16.69.91-25.04,1.22-1.99.07-4.11-.09-5.97-.74-5-1.74-6.52-7.41-2.89-11.28,1.66-1.77,3.99-3.45,6.28-3.96,5.16-1.16,10.46-1.86,15.75-2.22,8.18-.55,16.4-.58,24.59-.99,6.02-.3,11.32-2.56,15.99-6.39,4.94-4.05,7.85-9.06,7.54-15.6-.48-10.14-.73-20.3-1.61-30.41-1.55-17.56-4.82-34.85-8.73-52.04-5.24-23.04-9.05-46.33-12.3-69.74-.88-6.32-2.98-12.46-4.3-18.73-.44-2.1-.48-4.38-.23-6.52.25-2.19,1.83-3.6,4.04-4.02,2.25-.43,4,.54,5.2,2.39.54.83.9,1.84,1.1,2.81,3.35,16.15,6.63,32.32,9.98,48.47,4.23,20.38,8.92,40.68,12.64,61.16,4.16,22.9,7.46,45.98,7.83,69.3.22,13.92-6.06,24.92-17.56,32.8-5.02,3.44-10.79,4.88-16.79,5.12-5.15.21-10.32.04-15.48.04-.01-.23-.02-.46-.03-.69Z" style="fill: #000; stroke-width: 0px;"/>
</svg>