<?xml version="1.0" encoding="UTF-8"?>
<svg id="Layer_1" data-name="Layer 1" xmlns="http://www.w3.org/2000/svg" viewBox="0 0 436.94 900">
  <path d="M135.91,746.77c0-12.46-.06-24.92.05-37.38.02-2.68-.53-4.89-2.27-6.98-2.25-2.68-4.13-5.67-6.36-8.36-1.9-2.29-3.81-4.73-6.18-6.46-8.4-6.08-14.73-14.1-21.18-22.01-3.75-4.6-7.11-9.51-10.74-14.21-7.12-9.2-8.46-20.29-9.05-31.17-.95-17.39-.74-34.84-.87-52.26-.03-3.71-.6-7.14-2.59-10.3-3.51-5.59-7.01-11.18-10.51-16.77-.31-.49-.65-.97-.92-1.49-10.01-19.57-20.03-39.13-29.99-58.72-1.32-2.6-2.34-5.35-3.53-8.02-1.73-3.86-1.69-7.74-1.18-11.96.77-6.45,1.01-13.03.71-19.52-1.48-31.58-.21-63.07,2.33-94.54,1.1-13.58,2.67-27.12,4.18-40.66.28-2.52-.26-4.23-2.31-5.77-3.19-2.39-6.09-5.17-9.28-7.56-4.89-3.67-9.7-7.52-14.95-10.6-5.41-3.18-8.54-7.39-9.31-13.57-3.82-30.66-2.39-61.05,7.72-90.32,11.28-32.64,29.32-61.37,56.13-83.61,10.5-8.71,22.6-15.52,34.11-22.97,12.41-8.03,25.48-15.15,37.36-23.89,10.53-7.75,20.26-16.74,29.48-26.05,4.67-4.71,7.65-11.19,10.97-17.1,2.91-5.18,6.17-6.08,10.23-1.68,6.39,6.93,12.41,14.2,18.77,21.16,3.06,3.35,6.52,6.34,9.8,9.5,1.38,1.33,2.72,1.25,4.09-.03,2.97-2.78,6.12-5.39,8.9-8.35,4.53-4.82,8.82-9.85,13.2-14.81,2.51-2.84,4.8-5.9,7.54-8.49,3.09-2.92,6.73-2.32,8.36,1.5,6.43,15.03,18.07,25.63,30.12,35.89,11.83,10.07,25.05,18.1,38.26,26.19,14.6,8.94,29.48,17.64,43,28.06,18.71,14.42,32.36,33.39,43.92,54,20.68,36.87,25.9,76.43,21.68,117.8-.17,1.64-.46,3.28-.76,4.91-.86,4.64-2.99,8.48-7.33,10.66-10.06,5.06-17.69,13.31-26.54,19.96-2.03,1.53-1.9,3.4-1.59,5.48,4.21,27.38,5.24,55.04,6.71,82.64.74,13.88,0,27.84.14,41.75.11,11.36.58,22.72.77,34.08.03,1.81-.12,3.81-.87,5.41-6.95,14.78-14.02,29.51-21.15,44.21-1.27,2.62-3.26,4.9-4.41,7.55-5.55,12.82-14.31,23.82-20.39,36.31-1.31,2.69-2.12,5.89-2.19,8.88-.35,15.47.03,30.98-.69,46.43-.43,9.17-2.11,18.33-3.87,27.37-.64,3.28-2.7,6.53-4.82,9.23-8.17,10.39-16.56,20.62-25.04,30.77-1.9,2.27-4.33,4.23-6.82,5.86-4.05,2.67-6.15,6.96-9.32,10.31-5.24,5.52-6.35,11.71-6.16,19.11.66,25.9-.14,51.79-2.29,77.62-.23,2.81-.68,5.6-1.1,8.39-.87,5.85-3.4,10.84-7.38,15.26-7.09,7.88-14.14,15.83-20.86,24.02-3.38,4.12-5.92,8.91-9.04,13.26-2.37,3.31-4.76,6.71-7.7,9.48-1.65,1.55-4.46,1.85-6.72,2.79-1.15.47-2.67.8-3.28,1.7-5.24,7.72-10.25,15.61-15.48,23.34-1.57,2.32-3.5,4.43-5.5,6.41-2.11,2.1-4.98,2.05-7-.2-2.26-2.52-4.35-5.22-6.26-8.01-4.93-7.24-9.67-14.6-14.61-21.82-.53-.78-1.92-1.46-2.85-1.38-3.01.24-5.43-.84-7.31-2.95-2.51-2.83-5.1-5.68-7.06-8.89-6.28-10.27-13.57-19.69-21.95-28.33-3.45-3.56-6.53-7.47-9.76-11.24-3.76-4.38-5.63-9.64-6.04-15.24-1.17-15.72-2.06-31.46-3.02-47.2-.13-2.13-.02-4.28-.02-6.42-.04,0-.08,0-.13,0ZM232.69,495.55c-2.5-.78-4.42-1.35-6.32-1.99-1.79-.6-3.25-1.63-2.97-3.76.28-2.12,1.91-2.84,3.82-2.85,3.21-.02,6.43.27,9.62.06,1.61-.11,3.56-.6,4.7-1.64,5.95-5.46,11.7-11.15,17.49-16.77.72-.7,1.33-1.53,2.38-2.73-1.84-.32-3.06-.54-4.28-.73-1.86-.3-3.52-.99-3.63-3.13-.12-2.35,1.63-3.18,3.58-3.46,3.47-.5,6.97-.79,10.42-1.34,1.17-.19,2.54-.64,3.33-1.45,6.66-6.77,10.98-15.05,14.81-23.61.08-.18-.13-.5-.26-.95-4.33,1.7-8.57,3.36-12.82,5.02-1.91.74-3.98,1.25-5.15-.96-1.25-2.37.34-3.95,2.27-4.93,6.31-3.21,12.7-6.27,19.04-9.43,1.09-.55,2.63-1.06,3.04-1.99,3.49-7.95,9.75-13.78,15.14-20.27.81-.98,1.47-2.09,2.19-3.15-1.41-.11-2.39.24-3.36.6-4.92,1.86-9.82,3.75-14.75,5.57-1.82.67-3.88.55-4.34-1.51-.27-1.2.93-2.81,1.67-4.12.29-.52,1.1-.78,1.7-1.08,8.5-4.31,17.03-8.56,25.49-12.95,1.58-.82,3.26-1.89,4.27-3.3,2.66-3.72,4.98-7.67,7.4-11.56.41-.66.65-1.43,1.31-2.89-1.68.57-2.56.88-3.45,1.18-6.81,2.33-13.63,4.67-20.45,6.99-.82.28-1.78.76-2.52.56-1.2-.31-2.84-.86-3.24-1.77-.41-.92.31-2.48.84-3.61.28-.61,1.19-.95,1.85-1.37,11.37-7.2,23.1-13.7,35.56-18.86,1.61-.67,3.22-1.92,4.24-3.32,9.05-12.43,17.78-25.1,26.98-37.42,9.52-12.75,20.33-24.31,33.72-33.15,2.73-1.8,5.72-3.36,8.79-4.49,3.52-1.29,4.22-2.07,3.35-6.26-1.02.25-2.02.58-3.04.74-4.6.74-9.2,1.62-13.83,2.02-1.13.1-3.13-1.24-3.41-2.27-.27-1.02,1.01-2.58,1.85-3.72.4-.54,1.37-.68,2.08-.99,5.18-2.24,10.35-4.52,15.56-6.68,2.64-1.1,3.09-2.84,2.25-5.05-5.2.7-10.18,1.42-15.17,2-2.05.24-4.04-.19-4.68-2.52-.6-2.17.78-3.51,2.52-4.42,4.66-2.42,9.31-4.88,14.06-7.1,1.79-.84,2.68-1.73,2.23-3.74-.24-1.04-.32-2.12-.41-3.18-.15-1.81-.96-2.19-2.74-1.79-3.41.76-6.87,1.31-10.33,1.8-2.03.29-4.04-.06-4.82-2.31-.78-2.25.63-3.7,2.34-4.83,3.73-2.47,7.53-4.85,11.21-7.39.87-.6,2.03-1.68,2.01-2.52-.04-2.65-.56-5.3-.94-8.29-2.79,1.05-5.03,1.91-7.29,2.73-1.83.66-3.87.58-4.45-1.37-.36-1.22.32-3.3,1.28-4.26,2.1-2.13,4.7-3.76,7.04-5.67.72-.59,1.84-1.44,1.8-2.1-.24-3.51-.79-7-1.26-10.72-3.23,1.41-5.79,2.57-8.39,3.65-1.9.79-3.89,1.16-5.21-.92-1.23-1.94-.16-3.51,1.24-4.91,2.41-2.41,4.96-4.7,7.14-7.31.82-.98,1.28-2.86.95-4.07-.71-2.6-2.05-5.04-3.1-7.55-.7-1.66-1.56-1.94-3.1-.79-1.87,1.38-3.9,2.56-5.93,3.7-1.72.96-3.9,1.43-4.92-.51-.64-1.22-.16-3.24.31-4.75.39-1.23,1.75-2.13,2.28-3.35,1.17-2.66,5.58-3.75,4.35-7.24-.96-2.74-3.3-5-5.02-7.47-.06-.08-.13-.15-.19-.22-.89-1.21-1.78-1.23-2.9-.2-1.35,1.25-2.78,2.43-4.28,3.51-1.66,1.2-3.54,1.98-5.29.26-1.62-1.6-.99-3.4.03-5.08.96-1.58,1.9-3.18,3-4.66,1.34-1.8,1.28-3.23-.43-4.81-2.43-2.24-4.77-4.6-6.99-7.05-1.52-1.67-2.65-2.03-4.55-.31-.9.82-3.15,1.18-4.13.61-.98-.57-1.24-2.52-1.6-3.93-.15-.58.19-1.35.49-1.95.96-1.94.3-3.31-1.3-4.53-3.09-2.37-6.04-4.93-9.23-7.15-1.03-.72-2.65-1.02-3.93-.88-2.34.26-4.11-.43-4.34-2.72-.24-2.51-1.68-3.75-3.51-4.98-9.28-6.25-18.57-12.5-27.78-18.86-1.69-1.17-2.44-.2-3.74.58-1.23.74-2.93.7-4.42,1-.29-1.49-1.22-3.23-.75-4.41,1.02-2.53.45-4.04-1.7-5.37-.9-.56-1.71-1.29-2.49-2.02-1.45-1.35-2.28-.84-3.51.55-3.14,3.56-6.49,6.93-9.88,10.26-1.45,1.43-3.33,2.3-5.25.8-1.92-1.51-1.4-3.5-.51-5.32,2.19-4.45,4.53-8.82,6.7-13.27.41-.83.82-2.39.43-2.76-3.15-2.98-6.49-5.76-10.09-8.87-1.47,3.03-2.66,5.67-4.01,8.21-4.83,9.07-11.33,16.51-20.78,21.02-1.71.81-3.44,1.1-4.8-.51-1.37-1.62-.76-3.28.35-4.81.4-.55.83-1.08,1.25-1.62,6.83-8.68,12.88-17.84,17.2-28.05.42-.98.86-2.64.38-3.19-1.73-1.99-3.85-3.63-6.17-5.72-.92,2.1-1.56,3.61-2.23,5.09-4.66,10.37-10.8,19.6-20.29,26.24-1.69,1.18-3.51,2.14-5.23.32-1.59-1.68-.79-3.47.45-5,8.5-10.43,13.8-22.53,18.23-35.07.42-1.19.23-2.6.32-3.91-.52-.31-1.04-.62-1.56-.92-.51.94-.86,2.02-1.55,2.81-4.05,4.6-7.97,9.34-12.32,13.66-10.97,10.88-23.16,10.93-34.2.1-4.44-4.35-8.42-9.18-12.52-13.87-.68-.78-.9-1.97-1.33-2.96l-1.65,1.16c0,1.16-.32,2.43.05,3.46,4.5,12.39,9.49,24.53,17.89,34.92.49.6,1.18,1.27,1.23,1.94.08,1.25.19,2.96-.52,3.67-.71.71-2.43.62-3.67.49-.77-.08-1.48-.88-2.18-1.39-9.51-6.96-15.48-16.54-20.06-27.15-.45-1.03-.94-2.04-1.6-3.46-1.73,1.48-3.02,2.78-4.5,3.8-2.21,1.52-2.21,3.11-1.14,5.46,4.25,9.25,9.53,17.85,15.76,25.89,1.07,1.38,2.35,2.71,3,4.28.44,1.07.41,2.89-.24,3.7-.65.8-2.34.96-3.58,1.01-.78.03-1.6-.62-2.38-1.03-10.55-5.51-17-14.57-21.75-25.11-.46-1.02-.94-2.04-1.6-3.45-3.22,2.74-6.02,5.25-8.97,7.59-1.68,1.34-1.87,2.36-.73,4.36,2.51,4.38,4.75,8.93,6.69,13.59.53,1.27.11,3.84-.83,4.56-.93.71-3.5.41-4.6-.44-2.99-2.3-5.8-4.92-8.27-7.77-3.99-4.6-3.81-4.66-8.56-.79-1.57,1.28-2.3,2.47-1.29,4.46.9,1.77,1.14,3.7-.82,4.93-1.83,1.14-3.37.13-4.62-1.26-1.01-1.13-1.92-1.32-3.26-.4-9.55,6.55-19.18,12.99-28.67,19.62-1.18.83-1.98,2.48-2.49,3.92-.67,1.86-1.71,3.56-3.63,3.03-2.99-.82-4.8.71-6.77,2.29-1.97,1.59-3.86,3.29-5.94,4.73-2.52,1.74-3.73,3.55-2.48,6.82.48,1.24-.22,3.8-1.25,4.5-.94.65-3.29.02-4.56-.78-1.43-.9-2.33-1.11-3.51.09-2.65,2.71-5.32,5.42-8.01,8.09-1.26,1.25-1.28,2.47-.32,3.9,1.24,1.86,2.71,3.67,3.46,5.73.47,1.3.32,3.45-.49,4.39-.65.75-2.96.71-4.14.17-1.8-.83-3.35-2.3-4.84-3.69-1.33-1.25-2.28-1.2-3.31.27-1.45,2.07-2.93,4.13-4.43,6.16-1.24,1.67-1.14,2.94.39,4.57,2.19,2.33,4.19,4.91,5.8,7.66.66,1.13.63,3.39-.1,4.39-.59.82-2.9,1.06-4.1.62-2.15-.78-4.22-2.05-6.02-3.5-2.04-1.65-3-1.05-3.84,1.05-.9,2.26-1.83,4.51-2.84,6.72-.81,1.77-.43,3.12.95,4.43,2.32,2.22,4.54,4.54,6.79,6.84,1.49,1.52,2.89,3.19,1.36,5.36-1.41,1.99-3.41,1.46-5.29.67-2.56-1.08-5.1-2.22-8.07-3.52-.47,3.31-1.06,6.27-1.21,9.25-.06,1.1.67,2.56,1.51,3.33,2.22,2.03,4.73,3.74,7.08,5.63,1.46,1.18,2.49,2.66,1.45,4.56-1.12,2.03-2.96,1.91-4.85,1.2-2.14-.8-4.28-1.62-6.77-2.56-.31,1.91-.43,3.45-.84,4.91-.89,3.22.08,5.2,3.16,6.78,3.36,1.72,6.39,4.08,9.52,6.22,1.73,1.18,3.43,2.58,2.59,5-.89,2.6-3.2,2.57-5.38,2.33-2.61-.29-5.23-.62-7.77-1.23-4.17-1-4.15-2.04-5.04,3.59-.44,2.77.47,3.86,2.98,4.94,4.63,2,9.12,4.41,13.43,7.02,1.18.71,2.39,3,2.07,4.13-.32,1.14-2.59,2.5-3.92,2.43-4.35-.24-8.66-1.09-12.98-1.73-.89-.13-1.77-.35-2.66-.53-.91,3.03.11,4.58,2.6,5.6,5.4,2.22,10.74,4.6,16.1,6.91,1.87.8,3.75,1.79,3.18,4.21-.6,2.58-2.82,2.71-4.94,2.39-4.32-.65-8.63-1.44-12.94-2.17-.9-.15-1.8-.31-2.72-.47-.39,4.79-.21,4.99,3.59,6.07,1.48.42,2.99.98,4.29,1.79,7.49,4.7,14.69,9.72,20.92,16.13,16.72,17.2,30.34,36.75,43.79,56.46,1.18,1.73,3.07,3.34,4.99,4.15,12.44,5.21,24.15,11.74,35.5,18.97.57.36,1.38.7,1.58,1.24.44,1.18,1.05,2.66.66,3.66-.32.84-1.91,1.41-3.04,1.64-.86.17-1.89-.31-2.81-.63-6.73-2.29-13.44-4.6-20.17-6.9-.95-.32-1.91-.59-3.74-1.15.97,1.72,1.43,2.63,1.98,3.5,2.07,3.3,3.97,6.73,6.32,9.81,1.4,1.83,3.34,3.47,5.38,4.56,8.66,4.63,17.46,9,26.17,13.52,1.87.97,3.28,2.49,2.13,4.72-1.07,2.07-3.02,1.77-4.87,1.06-4.82-1.84-9.64-3.68-14.46-5.51-.91-.35-1.84-.64-2.77-.96-.13.21-.27.42-.4.63,1.38,1.73,2.69,3.53,4.15,5.19,4.89,5.54,9.99,10.9,13.14,17.77.5,1.09,2.18,1.73,3.43,2.36,6.4,3.26,12.86,6.39,19.23,9.68,1.79.92,2.89,2.55,1.79,4.6-1.03,1.9-2.86,1.8-4.63,1.13-3.64-1.39-7.24-2.86-10.87-4.27-.81-.31-1.66-.52-2.77-.87,2.08,6.99,10.13,20.16,15.09,24.67.79.72,2.02,1.12,3.11,1.29,3.65.57,7.38.76,10.97,1.56,1.18.26,2.95,2.05,2.83,2.93-.16,1.22-1.66,2.55-2.92,3.26-1.16.66-2.75.57-4.67.9.89,1.08,1.37,1.78,1.96,2.35,6.01,5.83,11.97,11.72,18.12,17.39,1.06.97,2.95,1.35,4.48,1.44,3.1.17,6.22-.08,9.33-.09,1.9,0,3.59.63,3.95,2.72.39,2.27-1.17,3.34-3.07,3.96-1.81.6-3.64,1.14-6.37,1.98,4.88,4.75,9.21,9.01,13.62,13.17.3.28,1.44.17,1.79-.17,4.29-4.17,8.5-8.42,13.13-13.05ZM195.06,719.62c-.26.08-.51.15-.77.23-.06,1.03-.14,2.06-.16,3.1-.19,8.17-.43,16.34-.55,24.52-.3,20.33-.67,40.66-.77,60.99-.05,9.14.56,18.28.68,27.42.04,3.28-.22,6.44,3.41,8.17.63.3.99,1.17,1.44,1.8,6,8.39,11.98,16.78,17.99,25.16.64.89,1.4,1.7,2.29,2.77,1.21-1.61,2.17-2.83,3.07-4.08,5.72-7.99,11.41-16,17.14-23.98.62-.86,1.24-1.95,2.12-2.35,2.44-1.1,2.6-3.02,2.65-5.29.19-9.92.57-19.84.72-29.76.16-10.7.35-21.41.15-32.1-.34-17.9-.97-35.8-1.49-53.69-.03-.92-.14-1.83-.22-2.76-.52.05-.77,0-.87.1-.74.77-1.49,1.53-2.16,2.36-4.9,6.07-10.63,11.06-17.87,14.21-2.32,1.01-4.41,1.02-6.72-.01-6.63-2.96-12.1-7.36-16.72-12.9-1.1-1.32-2.25-2.61-3.38-3.91ZM332.97,532.7c.33.05.67.09,1,.14.5-.91,1.02-1.81,1.5-2.73,7.15-13.72,14.28-27.45,21.48-41.14.89-1.7,1.98-3.44,3.41-4.67,1.68-1.45,2.14-3.03,2.19-5.09,1.1-41.89-.85-83.66-5.15-125.33-.1-.97-.39-1.92-.78-3.72-1.5,2.31-2.54,3.8-3.47,5.35-8.63,14.33-17.19,28.7-25.93,42.97-1.7,2.77-2.05,5.47-1.78,8.6,1.98,22.68,4.22,45.34,5.63,68.06.89,14.26.39,28.59.7,42.89.11,4.9.78,9.79,1.19,14.69ZM103.1,532.87c.37-.07.75-.14,1.12-.21.37-5.41.95-10.82,1.07-16.24.37-15.37-.01-30.78.94-46.12,1.32-21.27,3.63-42.47,5.36-63.71.19-2.29-.04-5.05-1.16-6.95-9-15.37-18.25-30.58-27.44-45.83-.63-1.04-1.37-2.01-2.57-3.77-.34,1.77-.58,2.65-.66,3.55-.6,6.3-1.17,12.6-1.75,18.9-3.27,35.62-4.26,71.31-3.37,107.06.03,1.34.6,2.81,1.34,3.95,1.4,2.18,3.41,4.01,4.62,6.28,6.85,12.89,13.54,25.87,20.28,38.82.74,1.42,1.48,2.84,2.21,4.27ZM283.08,691.51c.22.02.45.05.67.07.61-.98,1.19-1.97,1.82-2.93,7.1-10.81,14.05-21.73,21.42-32.36,1.9-2.74,3.08-5.27,2.88-8.51-.58-9.52-.64-19.1-1.82-28.55-2.68-21.54-5.91-43-8.94-64.5-.09-.62-.39-1.21-.75-2.28-1.04,1.17-1.79,2.01-2.54,2.86-3.62,4.07-7.13,8.25-10.93,12.15-.97,1-3,1.75-4.26,1.44-.92-.22-1.72-2.3-1.95-3.66-.41-2.37-.24-4.84-.5-7.25-.46-4.18-1.06-8.35-1.6-12.52-3.14,3.65-5.68,7.51-8.1,11.43-.3.48-.11,1.33,0,1.99,1.11,6.82,2.28,13.63,3.38,20.45,5.8,35.93,12.26,71.8,11.05,108.45-.04,1.23.1,2.47.16,3.7ZM153.31,691.61c.29-.08.59-.16.88-.24,0-1.42-.04-2.84,0-4.26.39-13.32-.23-26.77,1.4-39.93,3.6-28.96,8.31-57.78,12.72-86.63.39-2.53.14-4.47-1.35-6.5-2.13-2.9-4.03-5.96-6.03-8.95-1.3,6.91-1.83,13.55-2.6,20.17-.16,1.35-1.04,3.44-1.96,3.67-1.26.31-3.29-.44-4.26-1.44-3.85-3.98-7.41-8.24-11.08-12.4-.68-.77-1.37-1.51-2.46-2.7-.33,1.42-.59,2.22-.71,3.03-2.33,15.79-5.04,31.53-6.84,47.38-1.76,15.55-2.62,31.19-3.73,46.81-.11,1.51.43,3.33,1.27,4.61,7.27,11.04,14.69,21.98,22.05,32.96.96,1.43,1.79,2.95,2.68,4.43ZM187.17,560.88l.67-.21c-.35-5.4-.35-10.84-1.14-16.18-1.79-12.15-.73-24.25-.07-36.37.06-1.15.36-2.31.74-3.4.8-2.28.22-3.98-1.37-5.82-5.27-6.1-10.35-12.36-15.47-18.57-2.66-3.23-5.25-6.51-7.9-9.74-.44-.54-1.06-.93-1.75-1.52-.15.64-.27.91-.27,1.19.08,18.76.13,37.52.32,56.29.01,1.39.72,3.04,1.64,4.12,5.89,6.98,12.02,13.76,17.88,20.77,2.48,2.96,4.51,6.29,6.74,9.46ZM276.24,468.56c-1.93,2.23-3.37,3.79-4.7,5.44-5.78,7.2-11.31,14.61-17.38,21.55-3.14,3.59-6.33,6.65-3.79,11.83.08.16.03.38.05.58.9,12.81,1.65,25.6-.19,38.41-.68,4.74-.67,9.58-1,14.75.66-.42.97-.51,1.09-.71,6.44-10.66,15.1-19.51,23.41-28.63,1.95-2.14,2.57-4.27,2.56-7.05-.02-17.89.11-35.78.18-53.67,0-.55-.1-1.1-.23-2.5Z" style="fill: #000; stroke-width: 0px;"/>
  <path d="M289.08,161.59c0-1.75-.35-3.14.09-4.2.59-1.41,1.56-3.21,2.79-3.65,1.18-.42,2.92.63,4.38,1.12.99.34,1.92.84,2.87,1.26.07-1.03.37-2.11.16-3.09-.62-2.91.18-5.38,2.41-6.21,2.64-.99,4.45.15,5.85,2.43.37.6,1.35.83,2.06,1.23,0-.77.13-1.57-.04-2.29-.15-.64-.67-1.18-.96-1.79-1.32-2.82-.65-5.49,1.62-6.59,2.23-1.08,4.85.12,6.16,2.85.33.69.61,1.41.96,2.22,2.33-.68,2.87-1.81,1.5-3.81-.82-1.2-1.59-2.46-2.2-3.78-1.22-2.64-.43-5.26,1.77-6.29,2.08-.98,4.52-.01,5.88,2.38.47.82.84,1.69,1.25,2.54.32-.04.64-.07.96-.11-.15-.99,0-2.16-.49-2.92-1.15-1.79-2.66-3.35-3.92-5.08-2.32-3.17-2.19-6.67.23-8.33,2.5-1.72,5.68-.61,7.84,2.71.4.62.84,1.22,1.26,1.82.34-.04.68-.09,1.02-.13-.09-1.24.16-2.65-.36-3.66-.68-1.34-1.98-2.37-3-3.55-1.02-1.17-2.15-2.27-3.03-3.54-1.75-2.52-1.54-5.2.37-6.87,1.84-1.61,4.86-1.61,6.89.51,2.34,2.45,4.7,5.04,6.34,7.97,9.62,17.24,19.47,34.38,28.4,51.98,9.58,18.87,13.4,39.32,14.01,60.41.21,7.2.75,14.39.81,21.58.03,3.26-.47,6.59-1.26,9.77-1.23,4.98-4.44,6.96-9.6,6.26-2.7-.36-5.39-.89-8.02-1.57-6.59-1.71-13.22-3.34-19.71-5.37-25.24-7.92-51.01-11.85-77.44-9.97-9.96.71-19.81,2.89-29.75,4.14-3.51.44-7.17.54-10.65.02-3.48-.52-5.36-3.01-5.09-6.47,1.33-17.48,2.4-35.06,12.16-50.54.57-.91.69-2.19.76-3.31.15-2.49,1.15-4.05,3.82-4.24,2.26-.16,3.42-1.28,3.6-3.71.23-3.05,1.75-4.26,4.62-3.8,1.66.27,2.2-.25,2.67-1.74,1.01-3.23,2.52-3.92,5.73-2.71,1.99.75,2.92.29,3.05-1.9.14-2.26.91-4.27,3.32-5.01,2.29-.69,3.83.45,5.21,2.24,1.12,1.45,2.7.92,3.13-.91.18-.75-.07-1.7.3-2.29.93-1.48,1.87-3.45,3.27-3.98,1.14-.43,2.97.94,4.48,1.54.65.26,1.27.59,1.91.88.19-.61.31-1.24.57-1.81.71-1.59,1.09-3.6,2.3-4.61,1.64-1.37,3.45-.24,4.86,1.21.34.35.99.41,1.91.77ZM341.39,131.12c-.48.33-.7.4-.78.54-5.35,10.52-12.48,19.48-22.67,25.74-1.38.85-.91,1.7-.33,2.91,2.5,5.25,5.48,10.4,7.08,15.93,5.46,18.85,7.15,38.02,3.03,57.43-.33,1.54-.22,2.57,1.58,3.1,12.68,3.77,25.34,7.59,37.99,11.47,1.91.59,2.45-.07,2.55-1.84.26-4.76.62-9.52.91-14.28.92-14.86.16-29.59-3.91-44-5.62-19.92-15.1-38.14-24.86-56.22-.14-.25-.35-.46-.6-.78ZM287.67,231.24l.07-.91c8.78,1.03,17.56,1.98,26.32,3.11,3.88.5,3.92.61,4.48-3.16,2.32-15.71.76-31.05-4.64-45.97-2.08-5.76-4.58-11.37-6.58-17.16-.87-2.51-1.8-2.63-3.94-1.48-6.68,3.59-13.38,7.14-20.23,10.4-2.91,1.38-5.05,3.17-6.25,6.12-.66,1.62-1.4,3.21-2.03,4.84-5.33,13.77-4.71,27.82-1.95,41.97.36,1.83,1.37,2.3,3.09,2.26,3.89-.09,7.78-.03,11.66-.03ZM264.66,183.04c-1.27.36-2.27.59-3.23.92-12.56,4.35-20.46,13.4-24.24,25.72-2.67,8.69-3.99,17.79-5.9,26.71-.05.22.2.5.4.93.85-.26,1.65-.56,2.48-.76,4.03-.95,8.03-2.1,12.1-2.75,4.78-.75,9.63-1.09,14.46-1.54,1.98-.18,2.33-1.23,2.09-2.98-.36-2.6-.53-5.22-.79-7.83-1.23-12.36-1.61-24.65,2.5-36.65.14-.41.07-.9.12-1.78Z" style="fill: #000; stroke-width: 0px;"/>
  <path d="M105.5,124.38c.91-1.38,1.54-2.58,2.4-3.61,1.83-2.18,4.77-2.65,6.81-1.22,1.98,1.38,2.69,4.12,1.26,6.53-1.33,2.24-3.22,4.14-4.67,6.32-.6.9-.68,2.14-.99,3.23.34.1.68.21,1.01.31.53-.97,1-1.98,1.6-2.91,1.43-2.21,3.81-2.98,5.78-1.96,1.99,1.03,2.82,3.42,1.8,5.83-.64,1.51-1.52,2.94-2.45,4.3-1.32,1.96-.62,2.97,1.53,3.69.54-1.11.94-2.2,1.56-3.15,1.33-1.99,3.19-2.98,5.51-1.92,2.31,1.06,2.81,3.13,2.14,5.42-.32,1.1-1.16,2.04-1.49,3.14-.2.65.13,1.45.22,2.19.59-.3,1.22-.55,1.74-.93.28-.21.35-.69.58-.99,1.27-1.69,2.9-2.72,5.04-2.01,2.24.74,3.1,2.57,2.98,4.82-.05.95-.54,1.88-.61,2.83-.04.58.17,1.54.54,1.7.58.25,1.74.24,2.04-.14,1.51-1.94,3.22-3.35,5.71-2.11,2.78,1.39,2.72,3.98,2.29,6.61-.04.25.16.53.4,1.26.8-.45,1.43-.95,2.14-1.17,1.39-.43,3.18-1.36,4.16-.86,1.19.61,1.8,2.46,2.5,3.86.39.78.46,1.73.67,2.61.76-.48,1.61-.84,2.25-1.45,2.38-2.24,5.59-1.68,6.87,1.41.47,1.13.36,2.49.72,3.69.2.65.75,1.46,1.33,1.65.52.17,1.55-.2,1.9-.68,1.37-1.82,3.25-3.17,5.2-1.97,1.48.92,2.65,2.98,3.12,4.75.57,2.15,1.18,2.83,3.35,1.98,3.04-1.2,4.61-.47,5.51,2.62.48,1.63,1.06,2.15,2.86,1.82,2.65-.49,4.27.83,4.47,3.68.18,2.55,1.38,3.68,3.76,3.92,2.63.27,3.62,1.87,3.66,4.39.02,1.02.19,2.2.73,3.02,5.19,7.78,7.92,16.49,9.38,25.59,1.23,7.68,2.05,15.43,2.81,23.18.55,5.62-1.87,8.47-7.49,8.92-2.58.21-5.29.04-7.81-.52-27.2-6.02-54.46-6.4-81.71-.64-10.08,2.13-19.96,5.17-29.95,7.71-7.35,1.87-14.71,3.75-22.13,5.35-6.45,1.39-9.63-.52-11.32-6.79-.77-2.87-1.16-5.95-1.09-8.91.21-9.34.62-18.67,1.14-28,1.27-22.84,7.63-44.25,18.58-64.27,5.7-10.42,11.71-20.66,17.62-30.95,2.85-4.97,5.75-9.91,8.73-14.8.8-1.31,1.91-2.47,3.01-3.56,2.35-2.33,5.32-2.65,7.34-.91,2.04,1.75,2.18,4.73.11,7.35-1.63,2.05-3.54,3.88-5.27,5.86-1.27,1.45-1.77,3,.11,4.9ZM95.86,130.56c-.85,1.43-1.4,2.23-1.82,3.08-4.78,9.58-9.74,19.07-14.27,28.77-6.74,14.46-12.24,29.45-13.02,45.51-.6,12.41.2,24.88.46,37.33.07,3.55.37,3.66,3.83,2.61,12.2-3.69,24.39-7.39,36.61-11.01,1.72-.51,2.11-1.34,1.74-2.98-3.86-17.19-2.47-34.27,1.24-51.26,1.67-7.64,4.04-15.09,8.45-21.64,1.45-2.15.95-3.09-.99-4.31-8.68-5.49-15.13-13.05-19.98-22.04-.63-1.17-1.3-2.33-2.26-4.06ZM149.38,230.31c.02.3.05.6.07.9,3.79,0,7.59-.12,11.37.05,2.22.1,3.19-.7,3.45-2.87.46-3.86,1.18-7.69,1.63-11.55,1.42-12.3-.68-24.04-6.05-35.17-.81-1.67-2.09-3.5-3.65-4.35-7.68-4.18-15.54-8.03-23.31-12.05-1.49-.77-2.22-.46-2.81,1.14-1.82,4.92-3.75,9.81-5.68,14.69-6.27,15.91-8.35,32.31-5.86,49.25.54,3.66.67,3.61,4.24,3.15,8.86-1.14,17.73-2.14,26.6-3.19ZM205.23,237.74c.22-.26.43-.51.65-.77-.58-3.31-.95-6.68-1.77-9.93-1.85-7.33-3.31-14.83-6.03-21.84-4.07-10.47-11.85-17.62-22.6-21.31-.94-.32-1.92-.5-3.15-.81,1.01,4.55,2.11,8.58,2.78,12.67,1.83,11.17.18,22.3-.82,33.42-.17,1.94.2,2.93,2.26,3.13,2.03.19,4.03.66,6.05.9,7.65.92,15.63-.14,22.63,4.52Z" style="fill: #000; stroke-width: 0px;"/>
  <path d="M156.29,344.23c1.03.15,2.68.32,4.3.65,9.48,1.93,17.87-.59,25.67-5.98,3.66-2.53,7.43-5.01,11.43-6.95,5.15-2.51,8.36-1.46,12,3.06,1.28,1.59,2.44,3.29,3.84,4.77,3.28,3.46,6.79,3.46,10.06-.04,1.66-1.77,3.01-3.82,4.59-5.66,2.92-3.39,6.08-4.36,10.18-2.54,3.53,1.57,7.05,3.39,10.1,5.72,9.02,6.89,18.81,10,30.09,7.28.84-.2,1.73-.26,2.61-.3,5.77-.23,9.12,4.36,6.84,9.71-1.01,2.39-2.45,4.69-4.11,6.69-5.22,6.29-10.73,12.33-15.92,18.64-2.83,3.44-5.42,7.12-7.75,10.92-3.64,5.93-7.07,7.08-13.33,3.92-3.65-1.84-7.26-3.76-10.91-5.6-3.5-1.76-7.13-2.05-11.06-1.64-4.22.44-8.56.43-12.78,0-3.81-.38-7.37-.18-10.79,1.53-4.09,2.05-8.12,4.21-12.23,6.22-4.98,2.43-8.48,1.76-11.21-3.03-4.93-8.66-11.83-15.65-18.26-23.06-2.87-3.3-5.53-6.78-8.16-10.28-1.04-1.38-1.9-2.97-2.52-4.59-1.95-5.14,1.22-9.54,7.31-9.43ZM267.04,362.27c-.12-.25-.24-.5-.37-.75-2.01.49-4.01,1.04-6.04,1.47-9.81,2.05-19.65,3.22-29.32-.44-3.89-1.47-7.58-2.94-11.82-1.64-.95.29-2.16.09-3.17-.18-2.99-.79-5.65.01-8.5.96-4.02,1.33-8.2,2.6-12.38,2.93-7.09.56-14.19-.05-21.08-2.15-1.23-.37-2.53-.49-3.8-.72,1.04,2.21,2.32,3.88,3.83,5.32.51.49,1.59.56,2.39.52,7.65-.36,15.3-.79,22.94-1.2,1.74-.09,3.59.13,5.19-.41,9.08-3.07,18.09-3.11,27.17-.01,1.42.49,3.06.38,4.61.46,7.94.43,15.87.84,23.81,1.21.72.03,1.69-.03,2.14-.47,1.57-1.53,2.95-3.25,4.41-4.9Z" style="fill: #000; stroke-width: 0px;"/>
  <path d="M213.07,166.37c.04.88.11,1.75.12,2.63.03,2.3-.56,4.34-2.94,5.19-2.27.81-3.94-.41-5.31-2.1-2.21-2.72-4.51-5.38-6.55-8.22-2.68-3.73-6.06-5.79-10.75-6.02-6.05-.29-11.58-2.48-16.77-5.52-12.92-7.57-24.71-16.59-35.03-27.49-6.58-6.96-10.69-15.5-15.13-23.8-.63-1.18-.51-3.6.3-4.51.93-1.03,3.22-1.72,4.58-1.34,6.36,1.74,12.71,3.62,18.88,5.95,13.5,5.11,27.19,9.47,41.26,12.74,4.62,1.07,9.13,2.75,13.56,4.48,4.13,1.61,6.23,4.88,6.99,9.32,1.42,8.33,3.16,16.6,4.77,24.9.89,4.55,1.79,9.1,2.68,13.66-.22.04-.45.08-.67.13Z" style="fill: #000; stroke-width: 0px;"/>
  <path d="M223.51,166.36c.53-3.34.96-6.69,1.61-10.01,1.91-9.82,3.92-19.62,5.85-29.43.8-4.04,3.04-7,6.81-8.51,3.97-1.59,7.99-3.19,12.14-4.12,16.59-3.69,32.56-9.23,48.4-15.27,4.07-1.55,8.35-2.53,12.53-3.78,2-.6,4.23-.79,5.2,1.21.68,1.41.75,3.73.05,5.11-5.39,10.6-11.31,20.81-20.37,28.91-8.96,8.01-18.41,15.29-28.74,21.43-5.59,3.33-11.55,5.69-18.11,6.03-4.24.22-7.34,2.11-9.81,5.45-2.08,2.81-4.38,5.47-6.55,8.22-1.53,1.94-3.28,3.56-5.94,2.51-2.49-.98-2.78-3.28-2.7-5.63.02-.68.1-1.36.16-2.04-.18-.03-.35-.06-.53-.08Z" style="fill: #000; stroke-width: 0px;"/>
  <path d="M219.28,315.19c2.21-3.06,6.4-4.05,10.45-5.45,2.32-.8,4.65-2.09,6.48-3.71,4.58-4.05,9.92-6.46,15.69-8.08,5.81-1.63,11.44-.92,16.7,1.92,7.69,4.15,12.27,1.92,12.98-8.2.34-4.88-1.04-9.49-3.56-13.66-2.06-3.41-4.41-6.64-6.59-9.98-.79-1.22-1.64-2.45-2.14-3.79-.9-2.41-.47-4.72,1.71-6.26,2.22-1.57,4.59-1.11,6.4.69,2.06,2.05,4.2,4.19,5.6,6.69,3.37,6,6.87,12.03,9.34,18.43,4.31,11.14.61,21.01-7.03,29.28-5.45,5.89-12.71,6.32-20.03,3.72-2.58-.92-4.77-.93-7.27.12-4.7,1.98-9.51,2.07-14.59,1.09-2.62-.5-5.59.66-8.36,1.28-1.1.25-2.06,1.07-3.1,1.61-4.65,2.44-9.19,3.24-13.45-1.07-4.34,4.47-8.94,3.36-13.69.95-2.24-1.14-4.57-2.15-6.96-2.91-1.21-.39-2.74-.44-3.95-.07-5.31,1.61-10.33.77-15.45-.94-1.85-.62-4.25-.72-6.07-.09-10.35,3.56-19.07.35-24.73-9.04-5.28-8.77-6.02-17.68-1.93-27.06,3.17-7.26,6.84-14.21,12.09-20.22,2.93-3.35,5.92-4.25,8.3-2.49,2.58,1.9,2.63,5.54.18,9.18-2.6,3.87-5.37,7.66-7.67,11.71-2.87,5.05-4.02,10.56-2.67,16.34,1.51,6.44,5.15,8.39,10.96,5.34,12.56-6.59,23.24-2.51,33.57,5.12,2.52,1.86,5.47,3.16,8.29,4.58,3.23,1.63,6.54,3.11,10.47,4.96Z" style="fill: #000; stroke-width: 0px;"/>
  <path d="M121.9,261.72c3.04.26,5.1.28,7.1.64,4.15.75,6.4,3.51,6.55,7.72.2,5.52-1.58,10.52-5.05,14.59-7.5,8.78-9.27,19.13-9.68,30.17-.17,4.48-1.25,9.04-2.61,13.34-1.2,3.79-3.76,4.59-7.44,3.18-3.86-1.48-7.13-3.54-9.65-7.13-3.4-4.84-7.59-9.11-11.25-13.78-5.39-6.87-10.63-13.86-15.9-20.83-6.18-8.17-3.4-16.13,6.55-18.63,11.22-2.82,22.45-5.59,33.71-8.25,2.81-.66,5.76-.78,7.68-1.03Z" style="fill: #000; stroke-width: 0px;"/>
  <path d="M301.52,270.96c-.07-5.24,2.51-8.28,7.69-8.8,5.55-.55,11.01-.27,16.48,1.19,9.76,2.61,19.6,4.95,29.44,7.27,12,2.83,14.68,11.52,6.5,20.82-3.19,3.63-5.89,7.69-8.88,11.5-6.36,8.1-12.52,16.39-19.32,24.12-2.12,2.41-5.92,3.56-9.15,4.73-2.44.88-4.59-.73-5.23-3.06-1.23-4.46-2.18-9.02-2.89-13.6-.73-4.69-.81-9.48-1.59-14.16-.94-5.54-3.3-10.49-6.94-14.9-4.36-5.27-6.04-9.95-6.12-15.12Z" style="fill: #000; stroke-width: 0px;"/>
  <path d="M201.73,402.48c1.92.31,3.85.54,5.75.93,7.43,1.55,14.84,1.59,22.26-.03,1.23-.27,2.48-.5,3.74-.64,6.17-.69,12.84,2.98,15.05,8.79.61,1.62.32,4.3-.68,5.68-4.99,6.88-7.35,14.98-10.98,22.47-5.13,10.59-10.32,21.15-15.65,31.64-1.73,3.4-3.37,3.29-5.37-.08-.99-1.67-1.83-3.44-2.66-5.2-6.58-13.99-13.1-28-19.73-41.96-.99-2.08-2.38-3.99-3.71-5.9-2.47-3.55-2.37-5.95.53-9.14,3.1-3.4,6.03-7.12,11.46-6.58Z" style="fill: #000; stroke-width: 0px;"/>
  <path d="M358.14,227.82c-.08,3.25-2.45,5.32-4.89,4.44-2.89-1.04-5.6-2.67-8.18-4.35-.69-.45-1.09-2.2-.8-3.07.29-.87,1.72-2.05,2.48-1.94,3.14.45,6.3,1.12,9.28,2.19,1.08.39,1.68,2.13,2.11,2.73Z" style="fill: #000; stroke-width: 0px;"/>
  <path d="M340.88,173.02c-.92-.05-1.84.16-2.44-.18-1.25-.72-3.15-1.64-3.27-2.64-.14-1.22,1.03-2.93,2.12-3.86,1.11-.95,2.77-1.35,4.26-1.72,2.76-.68,5.23.73,5.73,3.06.52,2.46-1.32,4.75-4.24,5.21-.76.12-1.54.1-2.17.14Z" style="fill: #000; stroke-width: 0px;"/>
  <path d="M350.37,199.18c-1.79-.23-4.97.28-5.3-3.19-.31-3.27,2.75-3.49,5.02-4.22,2.31-.74,4.77-1.25,6.4.99.71.97.97,2.88.51,3.99-1.05,2.55-3.55,2.67-6.63,2.43Z" style="fill: #000; stroke-width: 0px;"/>
  <path d="M303.75,200.9c-.58,5.78-2.5,10.9-4.87,15.81-1.86,3.85-4.69,4.28-8.11,1.65-1.07-.82-2.12-1.75-2.95-2.8-6.02-7.69-4.59-23.99,2.63-30.56,3.81-3.47,7.98-2.65,9.6,2.2,1.5,4.48,2.48,9.14,3.69,13.71Z" style="fill: #000; stroke-width: 0px;"/>
  <path d="M82.93,233.31c-1.55-1.5-3.4-2.48-3.66-3.78-.27-1.34.65-3.89,1.71-4.32,2.98-1.23,6.27-2,9.49-2.26,2.27-.18,3.62,3.02,1.89,4.45-2.7,2.22-5.94,3.79-9.43,5.92Z" style="fill: #000; stroke-width: 0px;"/>
  <path d="M96.26,172.96c-2.63.08-5.26-.22-6.2-3.09-.37-1.14-.03-3.02.74-3.93,1.93-2.3,4.5-1.62,6.92-.62.45.18.9.36,1.33.57,1.74.81,3.35,1.85,2.99,4.08-.38,2.37-2.28,2.88-4.34,2.99-.48.03-.96,0-1.45,0Z" style="fill: #000; stroke-width: 0px;"/>
  <path d="M85.54,199.31c-.67-.04-1.46.01-2.21-.15-2.35-.51-3.87-1.85-3.74-4.42.1-2.08,2.15-3.74,4.58-3.49,1.81.19,3.74.54,5.29,1.41,1.14.64,2.48,2.32,2.36,3.38-.12,1.08-1.8,2.19-3.03,2.88-.85.48-2.08.27-3.26.39Z" style="fill: #000; stroke-width: 0px;"/>
  <path d="M152.95,203.1c-.32,5.18-1.06,11.13-6.55,15.18-3.69,2.72-6.44,2.19-8.5-1.95-4.94-9.93-5.17-20.02-.53-30.12,1.69-3.69,5.46-4.35,8.72-1.68,4.48,3.66,6.92,9.93,6.86,18.58Z" style="fill: #000; stroke-width: 0px;"/>
</svg>