<?xml version="1.0" encoding="UTF-8"?>
<svg id="Layer_1" data-name="Layer 1" xmlns="http://www.w3.org/2000/svg" viewBox="0 0 584.39 900">
  <path d="M467.71,656.52c-3.17,7.53-6.72,14.95-9.41,22.67-2.28,6.55-4.04,13.37-5.21,20.21-3.49,20.37-6.15,40.88-9.92,61.19-5.96,32.14-21.2,59.8-42.88,83.96-9.47,10.56-20.83,18.88-33.58,25.19-2.25,1.11-3.5,2.36-3.7,5.08-1.11,14.92-10.71,24.29-25.89,25.12-4.13.23-8.35-.32-12.47-.9-9.54-1.34-19.01-3.82-28.57-4.13-9.14-.3-18.37,1.45-27.53,2.52-4.27.5-8.48,2.11-12.72,2.14-5.87.04-12.02,0-17.56-1.67-10.52-3.16-16.11-11.09-16.89-22.02-.24-3.39-1.54-5.04-4.5-6.56-19.28-9.85-34.09-24.58-46.69-42.08-18.89-26.24-28.58-55.68-32.69-87.39-1.89-14.58-4.38-29.09-6.67-43.61-2.22-14.08-8.75-26.6-14.15-39.54-7.71,3-12.57,13.33-10.11,21.15.49,1.56,1.16,3.09,1.91,4.55,5.39,10.48,3.35,20.07-4.08,28.51-7.62,8.65-17.43,12.69-28.99,10.58-6.58-1.2-13.11-3-19.46-5.12-18.75-6.28-29.37-23.26-27.42-43.04,1.06-10.75,4.93-20.37,12.53-27.92,8.61-8.55,17.97-16.34,27-24.45,7.82-7.02,15.7-13.98,23.41-21.13.74-.68,1.05-2.99.49-3.73-13.66-18.11-21.74-39.2-31.7-59.27-6.35-12.81-13.19-25.54-17.91-38.97-11.26-32.1-14.01-65.54-13.15-99.38.62-24.28,4-48.22,7.62-72.19,2.59-17.15,4.05-34.48,6.03-51.73.34-2.97-.56-4.73-3.82-5.33C15.32,264.85-1.39,241,.09,218.03c.78-12.07,2.91-23.91,7.53-35.18,2.99-7.3,7.62-13.35,13.69-18.43,18.16-15.18,39.35-24.34,61.74-31.02,3.71-1.11,5.17-2.47,4.78-6.49-1.29-13.59.19-27.1,1.98-40.57,2.4-18.12,15.24-32.9,33.16-37.24,6.35-1.54,13.03-1.8,19.58-2.38,9.22-.82,18.45-1.42,27.68-2.05,2.61-.18,3.72-.93,3.36-3.98-2.4-20.23,9.93-36.12,30.18-38.02,13.61-1.28,27.34-1.36,41.01-1.87C254.92.42,265.06.05,275.19,0c4.77-.02,9.54.73,14.32,1.07,1.76.12,3.53.17,5.29.06,5.41-.32,10.82-1.13,16.21-1.03,19.77.37,39.54.96,59.3,1.64,4.93.17,9.85.81,14.74,1.54,10.99,1.64,18.43,7.88,22.66,18.06,2.61,6.29,4.38,12.75,3.14,19.63-.53,2.93.99,3.53,3.33,3.7,11.76.81,23.51,1.78,35.28,2.43,13.55.74,24.93,5.83,34.44,15.6,5.53,5.68,9.04,12.07,10.18,19.91,2.12,14.59,3.81,29.2,2.48,43.95-.36,4.03.88,5.66,4.87,6.85,22.15,6.58,43.07,15.7,61.15,30.54,7.37,6.06,12.62,13.46,15.66,22.45,3.84,11.37,6.22,23.01,6.15,35.06-.12,22.68-16.38,42.86-38.55,47.66-3.51.76-4.77,2.36-4.36,5.7,2.49,20.25,4.32,40.61,7.61,60.73,5.88,35.99,8.27,72.12,4.59,108.38-2.97,29.29-9.81,57.66-24.58,83.72-6.93,12.22-12.25,25.34-18.84,37.77-5.39,10.16-11.51,19.95-17.51,29.77-1.28,2.1-1.64,3.35.39,5.09,9.52,8.16,19.11,16.24,28.36,24.69,8.4,7.67,17.15,15.16,24.42,23.84,12.7,15.17,13.32,36.13,2.9,52.95-3.02,4.87-6.8,9.17-12.18,11.06-9.53,3.35-19.13,6.87-29.01,8.73-11.65,2.2-21.47-2.79-28.77-11.91-6.56-8.19-8.04-17.32-3.07-27.02,5.41-10.57,3.05-16.87-6.55-25.65-.25-.23-.7-.22-1.51-.46ZM107.32,585.99c1.03-.65,1.81-1.03,2.46-1.57,6.22-5.21,12.67-10.18,18.57-15.73,8.1-7.62,17.45-12.72,28.28-14.75,27.15-5.11,54.35-9.93,81.53-14.88.8-.15,1.59-.38,3.35-.8-3.37-1.94-6.01-3.29-8.48-4.91-7.12-4.65-8.95-11.01-5.48-18.77.67-1.5,1.49-2.94,2.3-4.38,5.97-10.65,11-21.41,10.75-34.21-.17-8.95,2.56-17.63,7.98-24.99,4.07-5.52,6.73-11.54,8.65-18.05,1.4-4.73,3.21-9.34,5-13.94.89-2.28,2.55-3.98,5.28-3.28,2.73.71,3.26,2.98,3,5.43-1.32,12.71-3.64,25.12-11.02,35.99-4.26,6.28-6.85,13.34-5.9,20.83,1.35,10.6-4.49,19.5-5.79,29.42-.15,1.14-1.16,2.23-1.94,3.22-1.34,1.69-2.82,3.26-4.22,4.9-5.17,6.08-4.93,6.61,2.34,9.94,3.09,1.42,4.79.96,6.37-2.01,2.78-5.24,7.2-8.8,12.62-11.07,6.93-2.9,12.41-1.39,17.3,4.35.7.82,2.24,1.28,3.41,1.31,5.65.13,11.3.13,16.95,0,1.17-.03,2.72-.48,3.42-1.3,4.98-5.84,10.63-7.3,17.64-4.2,5.5,2.43,9.86,6.21,12.7,11.56,1.27,2.39,2.81,2.98,5.21,1.63,1.43-.8,3.01-1.33,4.52-2,2.29-1.02,2.65-2.64,1.2-4.56-1.91-2.52-4.29-4.75-5.87-7.45-1.53-2.6-2.34-5.63-3.38-8.51-.3-.82-.06-1.9-.51-2.57-4.95-7.44-4.74-15.84-4.72-24.24.02-6.51-1.62-12.61-5.31-17.98-7.65-11.15-10.47-23.82-11.66-36.94-.16-1.81,1.14-4.67,2.63-5.51,2.54-1.42,4.57.7,5.54,3.1,1.75,4.35,3.46,8.73,4.8,13.2,2.03,6.73,4.52,13.12,8.88,18.78,2.04,2.66,3.9,5.85,4.61,9.07,1.7,7.75,2.65,15.66,3.93,23.51.46,2.86.47,5.93,1.58,8.52,2.73,6.37,5.73,12.65,9.08,18.71,6.26,11.32,4.24,18.58-7.29,24.63-.79.41-1.63.73-2.36,1.22-.62.41-1.12,1.01-1.99,1.81,1.05.25,1.53.39,2.02.48,27.43,4.95,54.89,9.78,82.29,14.91,10.95,2.05,20.43,7.17,28.6,14.92,5.69,5.4,12.01,10.14,17.94,15.3,2.01,1.75,3.29,1.95,4.61-.67,5.25-10.4,11.5-20.41,15.7-31.21,7.76-19.96,13.99-40.5,21.47-60.58,13.38-35.91,17.65-73.16,16.01-111.08-1.43-32.8-4.28-65.53-6.47-98.3-.56-8.4-.52-8.4-9.06-7.76-.25.02-.51.04-.76.05-6.5.42-6.68.43-6.53,7.14.73,34.1,1.38,68.2,2.41,102.3.78,25.69-1.98,50.92-9.01,75.61-6.73,23.62-17.1,45.82-27.34,68.06-.21.46-.39,1.12-.76,1.28-1.5.64-3.39,1.91-4.53,1.45-1.13-.46-2.02-2.68-2.12-4.19-.1-1.52.82-3.15,1.43-4.67,10.32-25.55,18.16-51.92,26.06-78.29,5-16.7,3.87-33.61,2.78-50.59-1.62-25.04-4.28-50.03-3.33-75.21.49-13.04-.04-26.12-.12-39.18-.01-2.08-.04-4.09-2.71-4.75-6.03-1.49-12.04-3.05-18.04-4.64-1.95-.52-2.96.16-3.12,2.1-.72,9.08-1.43,18.16-2.11,27.24-.06.75.15,1.52.15,2.27.02,2.36-.61,4.46-3.33,4.7-2.68.23-3.75-1.66-4.21-3.99-.12-.62-.22-1.25-.26-1.88-.6-9.99-1.35-19.97-1.68-29.96-.11-3.27-1.06-4.86-4.33-5.41-5.12-.86-10.21-1.94-15.26-3.14-3.16-.76-4.54-.08-4.9,3.44-.5,4.9-1.64,9.74-2.59,14.6-.49,2.53-1.54,4.86-4.63,4.47-3-.37-3.63-2.81-3.62-5.4.02-5.45-.03-10.91.19-16.36.09-2.29-.73-3.1-2.89-3.47-7.74-1.35-15.47-2.8-23.17-4.37-2.18-.44-3.3.02-3.92,2.22-.65,2.31-1.28,4.77-2.6,6.69-.9,1.32-3.11,2.69-4.48,2.47-1.38-.22-3.05-2.2-3.51-3.74-.7-2.37-.63-5.02-.6-7.54.02-2.27-.73-3.49-3.07-3.94-7.96-1.55-15.91-3.19-23.84-4.92-2.27-.49-3.59.02-4.38,2.29-.87,2.5-2.24,4.83-5.43,4.19-2.92-.59-3.56-3.09-3.48-5.61.09-2.79-1.27-3.66-3.79-4.09-17.23-2.91-34.43-5.26-52.05-4.67-14.15.47-28,2.44-41.88,4.74-2.39.4-3.59,1.36-3.54,3.94.05,2.68-.64,5.28-3.8,5.73-2.94.41-4.31-1.73-5.1-4.16-.81-2.52-2.37-2.78-4.73-2.26-7.67,1.7-15.37,3.29-23.1,4.75-2.65.5-3.62,1.79-3.5,4.4.09,2.01.25,4.21-.42,6.03-.71,1.89-2.06,4.3-3.72,4.92-2.71,1.02-4.28-1.4-5.19-3.8-.68-1.78-1.37-3.56-1.82-5.4-.56-2.25-1.76-2.64-3.92-2.2-7.7,1.57-15.43,3-23.16,4.37-2.13.38-2.98,1.24-2.9,3.51.19,5.45.12,10.9.12,16.36,0,2.59-.58,5.04-3.64,5.34-3.05.3-4.12-1.95-4.59-4.53-.95-5.24-1.96-10.47-2.76-15.73-.32-2.14-1.16-2.86-3.26-2.42-5.46,1.15-10.9,2.37-16.4,3.27-3.67.6-4.44,2.54-4.57,6.02-.37,10.12-1.17,20.23-1.92,30.33-.2,2.67-1.12,5.33-4.51,4.89-3.15-.41-2.99-3.07-3.13-5.6-.49-9.34-1.2-18.68-1.8-28.02-.17-2.57-1.38-3.18-3.81-2.48-4.99,1.45-9.98,3.02-15.07,3.94-3.7.67-5.16,2.15-5.13,5.97.13,16.36.15,32.72-.03,49.07-.13,11.15-.43,22.31-1.05,33.44-.88,15.82-2.17,31.63-3.2,47.44-.74,11.35.28,22.55,3.48,33.51,7.79,26.66,15.77,53.25,26.16,79.05.66,1.64,1.58,3.37,1.54,5.04-.03,1.38-1,3.41-2.11,3.89-1.09.47-3.07-.34-4.28-1.15-.93-.62-1.35-2.09-1.86-3.24-4.4-9.84-8.78-19.68-13.16-29.53-17.16-38.61-24.33-78.88-22.08-121.18,1.64-30.88,1.57-61.85,2.16-92.79.14-7.4-.04-7.4-7.18-8.05-1.01-.09-2.01-.23-3.02-.35-5.73-.64-5.63-.63-6,5.03-1.93,29.48-3.62,58.98-5.96,88.42-2.75,34.59-.54,68.83,8.42,102.26,5.66,21.14,13.85,41.6,20.78,62.41,5.83,17.51,13.05,34.37,22.72,50.12.71,1.16,1.47,2.28,2.33,3.6ZM173.61,798.79c.56-.22,1.13-.44,1.69-.66-.2-3.49-.53-6.98-.59-10.47-.37-22.82-.58-45.64-1.05-68.46-.29-13.81-.99-27.62-1.4-41.43-.08-2.67.64-5.35,3.94-5.51,3.04-.15,4.04,2.29,4.42,4.79,1.39,9.14,3.22,18.27,3.88,27.47,1.33,18.58,1.83,37.22,3.01,55.82,1.17,18.46,2.72,36.9,4.2,55.35.12,1.44.57,3.16,1.5,4.17,4.01,4.39,8.2,8.62,12.45,12.78.96.94,2.42,1.38,4.11,2.3.13-1.87.19-2.99.28-4.1.8-9.85,1.56-19.7,2.44-29.55.18-2,.36-4.19,1.29-5.88.72-1.31,2.56-2.66,3.97-2.74,1.21-.07,2.81,1.42,3.7,2.62.77,1.03.85,2.62,1.13,3.98,2.7,13.26,3.82,26.58,1.94,40.08-.17,1.2.56,3.29,1.48,3.74,5.93,2.91,11.95,5.33,18.95,4.21,3.81-.61,4.86-2.1,5.13-5.82.58-8.18,1.72-16.33,2.85-24.46.38-2.73,1.62-5.37,5.06-5.06,3.2.28,4.04,2.89,4.09,5.54.15,8.21.12,16.42.16,24.64,0,.95,0,1.89,0,3.76,6.23-1.26,11.91-2.33,17.54-3.63.67-.16,1.7-1.98,1.47-2.37-2.94-4.88-1.2-9.63.28-14.33.92-2.91,1.33-7.12,5.41-6.65,2.12.25,3.93,3.22,5.73,4.83.04-.15.05-1.39.64-2.19.85-1.13,2.09-2.61,3.26-2.7,1.36-.11,3.62.77,4.1,1.84,2.63,5.84,5.7,11.72,2.8,18.48-.32.74.03,2.56.49,2.73,5.8,2.19,11.79,3.37,18.43,3.13-.21-1.75-.5-2.98-.49-4.21.09-8.09.03-16.19.47-24.26.22-3.95,3.6-5.96,6.2-4.06,1.29.94,2.44,2.77,2.66,4.33,1.22,8.49,2.31,17.02,3.07,25.57.26,2.95,1.22,4.09,4.12,4.69,6.77,1.4,12.74-.7,18.76-3.28,2.45-1.05,3.08-2.46,2.71-5-2.02-13.73-.7-27.31,2.04-40.82.56-2.73,1.33-5.48,4.73-5.47,3.43.01,4.31,2.75,4.58,5.53,1.07,10.71,2.03,21.44,3.03,32.16.13,1.43.26,2.86.46,5.05,2.12-1.43,3.71-2.23,4.94-3.4,3.21-3.06,6.19-6.34,9.39-9.42,2.75-2.65,3.85-5.67,3.62-9.54-.22-3.77.17-7.6.44-11.39,1.88-26.8,3.65-53.62,5.78-80.41,1.14-14.26,2.92-28.47,4.46-42.69.13-1.24.27-2.73,1-3.61.95-1.14,2.55-2.5,3.78-2.42,1.23.09,2.91,1.63,3.37,2.91.66,1.82.55,3.99.51,6-.54,25.98-1.09,51.96-1.73,77.94-.3,12.29-.81,24.58-1.2,36.87-.02.67.21,1.35.32,2.03.42.17.84.34,1.27.51,2.63-4.78,5.74-9.37,7.79-14.39,5.56-13.56,8.6-27.81,10.79-42.28,2.56-16.91,5.05-33.83,8.1-50.65,2.85-15.7,5.59-31.5,13.11-45.92.35-.67-.51-2.61-1.33-3.16-4.13-2.71-8.59-4.93-12.65-7.74-14.81-10.22-32.09-8.86-48.7-10.7-.09,0-.2.14-.7.53.35,1.71.71,3.67,1.16,5.61,2.1,9.07,2.06,18.1-.32,27.11-1.16,4.41-1.87,9-3.52,13.22-2.93,7.53-5.97,15.08-9.85,22.14-1.9,3.45-5.34,6.78-8.89,8.45-16.91,7.97-34.39,8.69-52.13,2.56-3.44-1.19-7.1-1.74-10.59-2.78-3.81-1.13-7.55-3.51-11.3-3.48-3.91.04-7.77,2.39-11.7,3.6-2.41.74-5.01.96-7.33,1.88-17.27,6.86-34.51,6.28-51.49-.61-3.9-1.59-8.18-4.46-10.27-7.95-12.17-20.37-19.54-42-14.4-66.23.27-1.29.4-2.6.66-4.28-8.61.81-16.74,1.09-24.67,2.48-6.52,1.14-13.08,3-19.14,5.64-6.23,2.71-11.85,6.82-17.8,10.21-2.05,1.17-2.43,2.25-1.38,4.54,2.31,5.06,4.76,10.17,6.12,15.53,5.91,23.35,11.68,46.74,13.88,70.83,1.57,17.25,4.98,34.15,11.34,50.3,2.14,5.44,5.41,10.43,8.16,15.62ZM31.4,190.48c2.41.34,4.12.69,5.85.82,19.03,1.38,38.01.53,56.97-1.22,37.46-3.46,74.15-11.34,110.89-19,23.83-4.97,47.72-9.59,71.59-14.37,2.67-.54,5.41-.6,6.34,2.48,1.02,3.4-1.68,4.62-4.29,5.6-.83.31-1.66.63-2.51.88-16.05,4.71-31.98,9.89-48.18,14.02-44.01,11.21-88.31,21.13-133.65,25.26-21.22,1.93-42.51,3.35-63.58-1.72-2.01-.48-2.8.26-3.08,2.14-.56,3.76-1.03,7.55-1.84,11.26-.72,3.31-.25,5.37,3.65,5.77,3.26.33,6.46,1.37,9.72,1.61,19.55,1.43,39.1.61,58.43-2.21,31.23-4.56,62.32-10.03,93.49-14.99,13.27-2.11,26.59-3.91,39.89-5.8,2.58-.37,5.06.07,5.53,3.18.43,2.82-1.61,4.05-3.97,4.73-2.44.7-4.9,1.32-7.35,1.94-43.77,11.11-87.66,21.66-132.75,25.92-20.86,1.97-41.77,2.7-62.44-2.23-.4-.1-.89.18-1.7.36,3.41,6.61,8.8,9.85,15.51,11.4,17.13,3.96,34.42,4.8,51.75,2.01,12.63-2.03,25.07-5.3,37.73-7.04,30.77-4.23,61.63-7.83,91.72-15.95,4.5-1.21,9.26-1.43,13.89-2.2,6.5-1.07,13.08-1.82,19.45-3.42,22.36-5.59,44.62-5.71,66.99-.09,5.88,1.48,11.94,2.26,17.93,3.33,8.85,1.59,17.73,3.04,26.55,4.74,13.93,2.68,27.76,6.03,41.77,8.17,22.29,3.41,44.74,5.71,66.78,10.86,13.1,3.06,26.62,4,40.08,2.82,7.8-.69,15.57-2.08,23.27-3.62,6.34-1.27,11.13-4.96,14.18-10.85-.61-.33-.85-.57-1.04-.54-3.36.62-6.69,1.42-10.06,1.9-20.24,2.87-40.5,1.98-60.69-.37-44.82-5.22-88.59-15.65-132.16-27.02-.73-.19-1.73-.29-2.09-.79-.94-1.33-2.42-3.04-2.15-4.26.27-1.23,2.26-2.54,3.72-2.92,1.62-.41,3.51.11,5.26.39,29.78,4.82,59.58,9.55,89.33,14.53,30.3,5.08,60.66,9.4,91.49,8.39,6.28-.21,12.52-1.6,18.78-2.41,2.07-.27,2.83-1.32,2.48-3.38-.77-4.5-1.35-9.04-2.31-13.49-.17-.8-1.99-2-2.75-1.81-18.15,4.42-36.53,3.6-54.89,2.4-35.02-2.29-69.37-8.98-103.54-16.61-30.32-6.76-60.53-13.97-89.9-24.28-2.69-.94-5.23-2.26-4.24-5.63.93-3.15,3.69-2.95,6.33-2.44,14.44,2.79,28.88,5.55,43.32,8.34,37.83,7.32,75.56,15.22,113.52,21.8,27.39,4.75,55.15,6.36,83,4.4,1.78-.13,3.54-.58,5.74-.95-2.41-6.19-6.04-10.54-10.86-13.74-12.32-8.19-25.55-14.4-39.8-18.61-23.58-6.97-47.77-10.36-72.07-13.44-15.58-1.98-31.02-5.15-46.63-6.89-27.58-3.07-55.27-5.13-82.45-11.33-5.74-1.31-12.11-.83-18.05-.08-7.9,1-15.61,3.42-23.49,4.63-33.19,5.09-66.85,6.5-99.91,12.88-20.39,3.94-41.1,6.19-61.49,10.12-19.79,3.81-38.59,10.68-55.43,22.17-5.13,3.5-9.23,7.79-11.57,14.47ZM128.86,591.53c.21-.41.43-.82.64-1.23-1.57,1.21-3.17,2.38-4.72,3.62-4.81,3.88-9.25,8.37-14.49,11.54-7.55,4.57-8.69,11.05-2.37,16.99,1.21,1.14,2.31,4.07,1.69,5.08-.85,1.37-3.5,2.48-5.21,2.28-4.55-.53-8.36-2.94-11.05-6.72-1.37-1.92-2.39-2.03-4.22-.49-5.52,4.66-11.24,9.07-16.77,13.71-1.06.89-2.24,2.39-2.28,3.64-.21,6.52.5,12.66,7.34,16.26,1.46.77,2.87,3.45,2.69,5.08-.3,2.68-2.97,3.11-5.42,2.75-7.12-1.07-12.48-4.68-15.84-11.12-.74-1.42-1.46-2.86-2.65-5.21-3.4,3.85-6.4,7.18-9.32,10.58-2.07,2.42-2.53,5.27-1.48,8.21,3.01,8.43,7.55,15.27,17.51,16.27,2.46.25,4.63,1.16,4.69,4.01.06,3.09-2.28,3.94-4.83,4.32-5.75.86-11.1-.21-15.97-3.45-.99-.66-1.95-1.35-2.93-2.02-.25.23-.5.47-.76.7,2.13,5.62,4.55,11.52,9.75,14.73,10.16,6.29,21.52,8.83,33.5,7.01,7.57-1.15,15-11.84,9.08-20.44-3.23-4.68-4.67-10.13-4.28-15.89.78-11.67,6.58-20.76,15.49-27.71,20.43-15.93,43.27-26.69,69.06-30.72,5.38-.84,10.77-1.74,16.06-3.01,21.42-5.16,42.77-10.63,64.22-15.67,8.33-1.96,15.75-5.52,22.6-10.45,11.81-8.51,15.1-8.55,27.07-.04.21.15.41.3.62.44,6.83,4.74,14.11,8.31,22.35,10.12,12.61,2.76,25.11,5.98,37.67,8.99,12.57,3.01,25.01,6.93,37.75,8.77,20.85,3.01,40.06,10.04,57.93,20.77,7.23,4.34,14.23,9.41,20.3,15.23,12.08,11.59,13.91,25.65,6.09,40.15-2.3,4.27-2.12,8.18.13,12.26,2.85,5.16,7.43,7.63,13.09,7.8,9.66.3,18.99-1.74,27.57-6.08,6.67-3.37,9.44-9.95,11.73-16.69-1.4.36-2.42,1.06-3.44,1.74-5,3.3-10.46,4.37-16.34,3.41-2.44-.4-4.56-1.38-4.53-4.21.03-2.85,2.17-3.86,4.64-4.05,7.35-.56,11.99-4.83,15.38-10.94,4.76-8.59.55-19.46-9.12-23.05-.59,1.22-1.16,2.48-1.79,3.7-3.45,6.71-8.93,10.7-16.41,11.4-1.69.16-3.56-1.58-5.34-2.45.88-1.77,1.31-4.42,2.73-5.15,6.13-3.18,7.76-8.5,7.55-14.61-.07-1.95-1.29-4.35-2.76-5.66-5.2-4.63-10.73-8.88-16.15-13.26-.75-.61-1.58-1.12-1.45-1.03-4.61,2.89-8.48,5.6-12.62,7.78-2.29,1.2-5.17,1.3-6.68-1.54-1.54-2.9.42-4.75,2.6-6.31,2.7-1.93,4.05-4.24,3.33-7.79-.8-3.96-2.81-6.65-6.46-8.3-1.24-.56-2.4-1.4-3.45-2.28-4.66-3.89-9.28-7.82-13.88-11.78-1.74-1.5-2.65-.81-3.95.76-2,2.41-4.18,4.85-6.78,6.51-1.42.91-4.6,1-5.63.03-1.03-.97-1.11-4.12-.32-5.65,5.23-10.05,3.64-16.43-6.9-20.57-9.16-3.59-18.85-5.8-28.32-8.6-1.99-.59-2.54.39-2.89,2.29-.62,3.33-1.26,6.77-2.73,9.76-.72,1.47-3.39,2.89-5.02,2.72-1.26-.13-2.44-2.66-3.31-4.3-.49-.93-.14-2.26-.39-3.37-1.09-4.84-2.84-10-7.82-11.37-8-2.21-16.35-3.14-24.56-4.58-.14-.02-.35.33-.74.72.15,1.04.56,2.3.44,3.51-.38,3.87-.55,7.83-1.65,11.51-.44,1.48-3.09,3.17-4.71,3.15-1.24-.02-2.68-2.45-3.58-4.06-.64-1.14-.44-2.73-.79-4.07-2.04-8.01-8.39-12.86-16.43-12.12-7.82.71-15.6,1.85-23.4,2.79-4.74.57-9.55,1.9-13.97-1.32-.49-.35-1.65-.39-2.13-.05-4.68,3.38-9.72,1.82-14.71,1.25-8.68-1-17.36-2.17-26.07-2.78-2.17-.15-4.83,1.12-6.63,2.54-4.33,3.42-6.62,8.09-7.43,13.68-.24,1.64-2.37,4.08-3.78,4.18-1.49.11-4.16-1.89-4.53-3.4-.97-3.97-1.01-8.18-1.33-12.3-.08-1.04.15-2.11.3-3.84-7.58,1.39-14.51,2.77-21.49,3.9-4.39.71-7.66,2.9-9.38,6.86-1.23,2.84-1.48,6.09-2.63,8.98-.71,1.79-2.1,4.25-3.55,4.53-1.47.28-4.18-1.36-4.92-2.87-1.41-2.87-1.93-6.22-2.55-9.42-.32-1.67-.46-3.22-2.66-2.54-10.38,3.21-21.02,5.85-31.03,9.97-8.14,3.35-9.56,10.73-4.93,18.33,1.41,2.32,2.52,4.71.12,6.85-2.42,2.15-4.77.65-6.84-.94-2.79-2.16-5.5-4.42-8.24-6.64ZM462.46,78.45c.08-.43.17-.86.25-1.29-1.16-.64-2.24-1.6-3.48-1.87-6.4-1.41-12.79-3.36-19.27-3.79-13.65-.89-27.41-.35-41.02-1.52-12.21-1.06-24.25-3.98-36.44-5.45-21.97-2.65-43.67-6.41-64.35-14.54-4.05-1.59-7.18-1.92-11.56-.23-17.18,6.63-34.96,11.09-53.36,13.23-16.35,1.9-32.52,5.45-48.88,7.1-13.21,1.33-26.61.54-39.88,1.43-6.6.44-13.1,2.48-19.61,3.96-1.12.26-2.05,1.35-3.07,2.05,2.56,1.19,4.78,1.6,7.02,1.68,7.85.27,15.72.73,23.56.56,20.15-.42,40.3-1.06,60.45-1.76,12.41-.43,24.82-.95,37.21-1.77,5.8-.38,11.53-1.82,17.33-2.24,1.67-.12,4.35,1.23,5.04,2.65,1.2,2.49-.9,4.13-3.24,5.04-.35.14-.71.27-1.08.36-9.22,2.28-18.32,5.5-27.68,6.66-33.62,4.16-67.42,5.99-101.29,6.01-6.92,0-13.87-1.24-20.73-2.37-6.03-.99-6.02-1.26-6.94,4.79-.1.63-.16,1.26-.27,1.88-.54,3.04.63,4.13,3.74,3.83,7.7-.75,15.41-1.31,23.12-1.89,20.23-1.51,40.45-3.29,60.77-1.71,2.27.18,4.68.11,6.74.9,1.36.52,3.02,2.35,3.06,3.64.04,1.29-1.59,2.85-2.83,3.89-.77.64-2.16.59-3.29.75-28.98,4.24-57.91,8.99-87.36,7.99-2.52-.09-3.86.82-3.71,3.49.06,1.14.01,2.29-.08,3.42-.26,3.16,1.26,3.98,4.18,3.56,24.46-3.54,48.92-7.06,73.39-10.5,11.54-1.62,23.07-3.57,34.68-4.47,20.9-1.61,41.54-4.44,61.96-9.3,4.94-1.18,10.57-.32,15.73.52,11.63,1.87,23.09,4.85,34.75,6.4,16.95,2.24,34.08,3.21,51.03,5.46,27.26,3.61,54.45,7.79,81.65,11.84,3.48.52,4.76-.64,4.5-3.98-.07-.88-.07-1.78-.02-2.66.17-2.73-.99-3.68-3.8-3.83-17.96-.94-35.94-1.72-53.84-3.29-11.98-1.05-23.85-3.28-35.77-5.02-2.48-.36-4.82-1.68-4.15-4.34.4-1.57,2.59-3.13,4.32-3.81,1.92-.76,4.24-.59,6.38-.73,26.69-1.79,53.18,1.4,79.72,3.34,7.95.58,8.35.29,6.66-7.55-.03-.12-.06-.25-.07-.37-.29-2.54-1.47-3.5-4.13-2.8-11.9,3.11-24.08,3.57-36.26,3.03-20.52-.9-41.03-1.92-61.52-3.38-11.61-.83-23.21-2.26-34.7-4.15-7.09-1.16-13.97-3.62-20.9-5.64-2.37-.69-4.48-2.48-3.26-5,.69-1.42,3.22-2.12,5.06-2.73.96-.32,2.22.3,3.35.43,8.05.94,16.09,2.38,24.17,2.71,24.7,1.01,49.41,1.74,74.13,2.29,12.28.28,24.58-.02,36.87-.15,2.35-.03,4.69-.5,7.04-.77ZM292.25,622.24c10.03.34,19.85,1.76,29.48,4.87,8.81,2.85,13.78,8.7,14.04,17.75.24,8.31-.51,16.65-1.01,24.97-.11,1.91-.67,3.47,2.04,3.84,10.79,1.47,21.18-3.64,24.46-14.55,3.6-11.96,3.83-23.97,1.76-36.11-.21-1.23-1.44-2.96-2.53-3.27-8.25-2.38-16.47-5.23-24.91-6.48-15-2.23-28.23-7.97-39.92-17.39-2.75-2.21-4.43-2.09-7.1.07-10.42,8.41-22.02,14.69-35.45,16.38-9.9,1.24-19.39,3.75-28.64,7.27-1.41.54-3,2.43-3.25,3.91-1.92,11.24-1.84,22.44,1.34,33.52,3.49,12.15,10.93,17.43,23.58,16.78,3.31-.17,4.03-1.23,3.36-4.46-1.85-9-2.29-18.09-.64-27.21,1.26-6.95,5.04-11.64,11.72-14.21,10.21-3.93,20.81-5.31,31.67-5.67ZM387.13,29.02c.21-.55.43-1.1.64-1.64-2.33-1.22-4.55-3.02-7.03-3.52-4.07-.82-8.3-1.06-12.47-1.07-13.06-.04-26.13.55-39.17.1-11.61-.4-23.18-1.86-34.77-2.81-1.5-.12-3.04-.11-4.54.04-8.42.86-16.83,2.36-25.26,2.57-16.85.4-33.72.04-50.58.14-3.65.02-7.34.47-10.94,1.12-2.58.46-4.99,1.63-5.96,5.02,1.71,0,3.06.1,4.38-.02,9.85-.87,19.69-1.78,29.54-2.68,2.63-.24,5.06.21,5.62,3.19.52,2.76-1.4,4.11-3.82,4.82-.73.21-1.44.51-2.19.63-10.23,1.64-20.47,3.26-30.7,4.89-2.32.37-4.63.78-6.94,1.16.06.46.12.93.19,1.39,1.43,0,2.88.11,4.3-.02,7.7-.71,15.41-1.4,23.09-2.25,25.94-2.87,51.78-6.93,78.03-5.62,8.73.43,17.5.3,26.19,1.14,20.57,2,41.09,4.45,61.63,6.67,1.64.18,3.32.02,4.98.02.04-.51.07-1.01.11-1.52-2.74-.35-5.49-.61-8.2-1.06-10.47-1.74-20.94-3.48-31.39-5.34-2.55-.45-4.76-1.89-4.23-4.88.57-3.22,3.21-3.44,5.95-3.18,9.97.93,19.95,1.82,29.92,2.7,1.2.11,2.42.01,3.63.01ZM312.28,541.86c.17-.41.33-.83.5-1.24-.59-.26-1.21-.45-1.76-.78-5.11-3.04-10.03-6.45-15.38-8.99-2.05-.97-5.36-.68-7.52.3-4.34,1.97-8.3,4.81-12.39,7.31-1.32.81-2.59,1.71-4.12,2.73.81.55,1.09.84,1.42.95,6.08,2.02,12.16,4.05,18.26,5.99.63.2,1.48-.03,2.15-.27,3.67-1.29,7.28-2.74,10.98-3.95,2.56-.84,5.23-1.37,7.85-2.04ZM298.44,652.72c-.15,0-.29,0-.44,0,0-3.41-.04-6.81.01-10.22.06-4.01-2.33-4.69-5.7-4.68-3.38.01-6.14.34-6.07,4.69.13,7.44.03,14.89.33,22.32.33,8.38-.92,7.3,8.22,7.16.9-.01,2.45-1.64,2.55-2.64.56-5.52.77-11.08,1.09-16.63Z" style="fill: #000; stroke-width: 0px;"/>
  <path d="M436.45,392.5c-.65,1.86-1.08,3.28-1.64,4.66-4.02,9.99-7.92,20.03-12.14,29.93-3.66,8.6-10.34,13.37-19.61,15.01-11.07,1.96-22.11,2.71-33.3,1.36-14.77-1.78-27.15-12.4-30.27-26.98-1.26-5.88-1.3-12.06-1.59-18.11-.3-6.33-.31-12.67-.27-19.01.02-2.69-1.05-3.52-3.63-3.44-4.85.15-9.23-1.48-11.92-5.54-6.8-10.25-12.18-21.07-11.62-33.93.34-7.91,3.46-12.12,11.11-14.31,10.1-2.89,20.18-5.86,30.3-8.67,3.04-.84,6.18-1.43,9.31-1.84,8.16-1.06,16.36-1.85,24.52-2.96,7.15-.97,13.87.19,20.31,3.35,16.88,8.27,33.14,17.65,48.39,28.62,12.63,9.09,20.35,21.34,21.85,37.14.87,9.18-2.94,16.34-9.79,21.94-5.22,4.27-11.14,3.83-16.8.83-4.34-2.31-8.42-5.1-13.23-8.05ZM378.54,431.91c.03.22.06.43.09.65,7.77-.96,15.52-2.07,23.31-2.83,6.17-.6,10.08-3.82,13.04-9.08,5.79-10.29,9.15-21.39,11.63-32.8.26-1.21-.63-3.26-1.66-4.06-5.87-4.62-11.96-8.95-17.93-13.43-10.26-7.71-21.77-9.48-33.87-6.26-7.42,1.97-14.5,5.2-21.8,7.67-2.67.91-3.34,2.28-3.05,5.07.82,7.92,1.12,15.9,1.91,23.83.54,5.4,1.16,10.85,2.45,16.1,2.16,8.77,8.63,13.89,17.53,14.6,2.78.22,5.56.37,8.34.56ZM402.41,327.79c-.48,2.6-.72,4.08-1.02,5.55-.49,2.4-1.62,4.84-4.28,4.38-1.68-.29-3.47-2.16-4.46-3.78-1.3-2.12-1.92-4.67-2.72-7.07-.87-2.62-2.65-3.5-5.28-3.18-3.52.43-7.04.96-10.58,1.11-3.15.13-4.77,1.04-3.95,4.55.31,1.31.41,2.96-.12,4.12-.77,1.7-1.95,3.97-3.41,4.39-1.43.41-3.8-.82-5.09-2.03-1.61-1.51-2.82-3.63-3.7-5.7-1.28-3.01-3.15-3.11-5.78-2.07-3.41,1.36-6.85,2.7-10.36,3.76-2.53.76-2.96,2.02-2.42,4.5.71,3.27,1.9,7.2-2.27,9.01-3.87,1.68-5.4-1.94-7.54-4.2-1.72-1.82-3.88-3.22-5.85-4.81-.52,2.72-2.03,5.73-1.35,8.11,1.41,4.91,3.82,9.57,6.12,14.18,2.74,5.48,4.2,6.08,9.87,3.56,6.13-2.72,12.15-5.72,18.01-8.97,9.15-5.07,18.73-7.21,29.22-6.38,15.77,1.25,28.61,8.53,40.65,18.1,9.02,7.17,18.48,13.78,27.71,20.69,2.6,1.94,4.47,1.53,6.26-1.18,3.55-5.35,1.46-13.54-4.92-18.27-1.16.9-2.23,2.24-3.58,2.63-1.89.55-4.58,1.19-5.82.28-1.13-.83-1.41-3.82-.97-5.6,1.1-4.47.42-7.89-3.15-10.88-1.84-1.54-4-2.74-5.73-4.39-2.73-2.59-4.5-2.63-6.71.83-.95,1.49-3.77,2.66-5.61,2.51-2.66-.22-3.12-2.88-2.99-5.35.06-1.14.3-2.38-.06-3.39-.87-2.44-1.4-5.7-3.23-6.97-4.39-3.06-9.45-5.17-14.9-8.01Z" style="fill: #000; stroke-width: 0px;"/>
  <path d="M147.76,392.45c-3.18,2.07-5.89,3.85-8.62,5.6-6.09,3.89-12.59,7.07-19.5,2.77-7.68-4.78-12.09-12.06-11.64-21.31.83-17.07,9.11-30.37,23.07-39.53,14.49-9.51,29.73-17.87,44.7-26.65,8.1-4.76,16.82-6.13,26.04-4.19.5.1,1,.24,1.5.25,20.03.48,38.62,7.69,57.76,12.31,9.6,2.32,12.65,6.56,12.76,16.44.13,12.03-5.13,22.07-11.25,31.77-2.59,4.1-6.83,6.16-11.7,5.96-3.48-.15-4.32,1.22-4.26,4.4.12,6.46.12,12.93-.21,19.38-.3,5.92-.45,11.98-1.82,17.69-3.45,14.35-15.91,24.56-30.55,26.17-10.81,1.19-21.47.48-32.17-1.29-9.88-1.64-16.83-6.72-20.64-15.91-4.12-9.94-8.03-19.97-12.01-29.97-.45-1.13-.84-2.28-1.43-3.91ZM205.23,432.68c.04-.25.07-.51.11-.76,2.78-.18,5.57-.58,8.34-.49,6.83.24,11.6-3.07,15.05-8.54,1.39-2.21,2.9-4.7,3.19-7.2,1.59-13.56,2.85-27.16,4.08-40.75.07-.81-.89-2.23-1.67-2.51-8.92-3.16-17.74-6.84-26.91-9.01-9.07-2.15-18.27-.89-26.26,4.54-7.53,5.13-14.83,10.59-22.12,16.06-.89.67-1.72,2.42-1.5,3.44,2.65,12.3,6.05,24.42,13.08,35.02,1.81,2.73,5,5.6,8.03,6.26,8.73,1.9,17.71,2.71,26.59,3.95ZM128.2,365.54c-2.07,4.16-4.88,7.9-5.62,12.01-.48,2.63,1.49,6.36,3.47,8.61,2.09,2.37,4.28-.67,6.2-1.81,2.06-1.22,3.92-2.79,5.85-4.23,10.16-7.56,19.93-15.75,30.57-22.57,20.01-12.82,40.89-15.73,62.28-2.75,3.13,1.9,6.46,3.51,9.78,5.08,2.51,1.19,5.12,2.19,7.75,3.11,3.07,1.07,5.33.22,6.79-2.92,1.39-2.98,3.67-5.62,4.63-8.7,1.25-4.01,1.68-8.3,2.24-12.49.1-.76-.76-2.27-1.36-2.37-.89-.15-2.21.39-2.87,1.08-1.92,2.01-3.38,4.51-5.48,6.28-1.25,1.05-3.63,1.88-4.98,1.38-1.34-.5-2.49-2.67-2.87-4.31-.38-1.62.11-3.53.56-5.23.53-2.02-.02-3.05-2-3.71-3.85-1.28-7.65-2.7-11.44-4.14-2.23-.85-3.74-.62-4.92,1.8-1.15,2.37-2.59,4.73-4.39,6.62-1.04,1.09-3.23,1.97-4.58,1.64-1.36-.33-2.89-2.11-3.32-3.56-.58-1.98.03-4.28-.3-6.37-.16-1.05-1.16-2.68-1.98-2.81-4.5-.71-9.05-1.27-13.59-1.35-1.33-.02-3.22,1.4-3.93,2.67-1.41,2.51-1.9,5.54-3.32,8.05-.81,1.43-2.81,3.25-4.06,3.1-1.54-.19-3.25-2.01-4.16-3.55-.88-1.51-.85-3.57-1.36-6.08-4.07,1.98-7.6,3.9-11.28,5.43-5.24,2.18-6.94,6.29-6.9,11.53,0,.89.34,1.93-.02,2.62-.77,1.47-1.63,3.35-2.95,3.93-1.14.5-3.1-.32-4.43-1.06-1.02-.56-1.74-1.82-2.36-2.91-1.01-1.75-2.06-1.94-3.64-.68-2.27,1.82-4.68,3.48-6.97,5.27-4.13,3.23-4.94,6.58-3.6,11.71.41,1.56.11,4.28-.91,4.99-1.3.91-3.76.74-5.5.25-1.58-.45-2.85-1.95-5.04-3.58Z" style="fill: #000; stroke-width: 0px;"/>
  <path d="M407.11,462.78c4.43,0,8.87-.16,13.3.05,3.43.16,5.03-1.1,5.53-4.58.81-5.64,1.58-11.36,3.23-16.78,1.75-5.77,4.24-11.36,6.93-16.78,1.95-3.93,5.82-5.06,8.9-3.44,2.93,1.53,4.07,4.98,2.18,9-4.75,10.11-7.07,20.79-8.71,31.76-1.32,8.84-5.63,12.45-14.53,13.22-10.91.94-21.49-.43-31.65-4.67-2.49-1.04-4.79-2.36-4.12-5.49.68-3.19,3.39-3.33,6.05-3.19,4.3.22,8.6.44,12.91.66,0,.08,0,.16,0,.24Z" style="fill: #000; stroke-width: 0px;"/>
  <path d="M167.54,475.47c-16.71-.02-19.86-3.11-22.75-18.79-1.52-8.27-4.29-16.35-6.99-24.34-2.04-6.02-1.79-9.63,1.91-11.33,3.46-1.58,6.7.31,9.77,5.6,5.15,8.85,6.82,18.72,8.45,28.61,1.25,7.59,1.25,7.7,8.99,7.53,7.85-.17,15.69-.76,23.53-.78,1.82,0,4.48,1.09,5.27,2.51,1.55,2.78-.55,4.68-3.14,5.78-8.26,3.52-16.86,5.39-25.04,5.19Z" style="fill: #000; stroke-width: 0px;"/>
  <path d="M330.49,757.54c.39-6.44.4-6.53-6.18-7.31-8.96-1.07-17.79-2.55-25.83-6.98-1.11-.61-2.53-1.06-3.16-2.01-.89-1.35-1.91-3.32-1.53-4.63.37-1.29,2.36-2.2,3.78-3.06.56-.34,1.5-.17,2.24-.07,10.65,1.41,21.4,2.34,31.92,4.4,12.64,2.47,18.86,17,12.38,28.23-1.06,1.83-4,3.72-5.94,3.59-2.14-.14-4.83-2.16-5.99-4.12-1.31-2.24-1.19-5.32-1.68-8.03Z" style="fill: #000; stroke-width: 0px;"/>
  <path d="M237.91,756.47c.36-11.14,4.48-16.8,15.26-18.77,10.33-1.88,20.81-2.91,31.24-4.23,2.64-.33,5.29-.01,6.21,3.04.92,3.05-1.14,4.62-3.47,5.98-7.84,4.57-16.44,6.44-25.32,7.5-8.2.97-8.13,1.05-8.41,9.07-.07,2.13-.34,4.32-1,6.33-.96,2.91-3.35,5.02-6.3,4.4-2.27-.48-4.99-2.23-6.06-4.2-1.44-2.65-1.49-6.05-2.14-9.13Z" style="fill: #000; stroke-width: 0px;"/>
  <path d="M277.28,794.03c-3.64-.66-7.2-.97-10.55-2-6.18-1.9-9.37-6.64-10.48-12.77-.54-3,.47-5.68,3.68-6.61,3.25-.94,5.8.81,6.48,3.73,1.13,4.81,4.13,5.2,8.19,5.05,3.61-.13,7.41-.01,10.82,1.01,1.78.53,3.88,3.18,4.02,5.01.12,1.55-2.05,4-3.78,4.81-2.53,1.18-5.59,1.24-8.39,1.78Z" style="fill: #000; stroke-width: 0px;"/>
  <path d="M308.18,781.41c1.26,0,2.53-.06,3.79.01,2.76.16,4.43-.88,5.35-3.67,1.49-4.53,4.26-6.22,7.42-5.01,3.07,1.18,4.13,4.52,2.78,8.74-1.93,6.04-5.87,10.32-12.19,11.11-5.29.66-10.76.35-16.1-.07-2.6-.2-4.7-2.12-4.68-5.13.02-3.18,2.2-4.78,4.99-5.35,2.82-.58,5.73-.75,8.6-1.1.01.16.03.32.04.48Z" style="fill: #000; stroke-width: 0px;"/>
  <path d="M373.41,383.55c5.67.88,14.6,1.93,23.37,3.74,6.3,1.3,7.93,4.29,6.68,10.58-.97,4.85-.75,10.22-5.62,13.6-2.77,1.92-5.56,3.01-8.89,2.19-8.11-2-16.25-3.92-24.31-6.13-4.2-1.15-6.25-4.1-6.35-8.45-.05-2.14.15-4.32.51-6.43,1.12-6.5,4.77-9.39,14.61-9.11Z" style="fill: #000; stroke-width: 0px;"/>
  <path d="M214.26,382.97c6.37.31,10.06,3.23,11.2,9.46.36,1.98.58,4.02.59,6.03.03,4.9-2.14,7.96-6.83,9.23-7.55,2.05-15.13,4.04-22.77,5.74-7.59,1.68-13.15-2.25-14.58-9.89-.4-2.11-.87-4.21-1.19-6.34-.83-5.43.67-8.52,6.03-9.64,9.11-1.91,18.36-3.1,27.56-4.6Z" style="fill: #000; stroke-width: 0px;"/>
</svg>