<?xml version="1.0" encoding="UTF-8"?>
<svg id="Layer_1" data-name="Layer 1" xmlns="http://www.w3.org/2000/svg" viewBox="0 0 574.03 900">
  <path d="M47.29,310.63c-1.32,2.27-2.45,4.24-3.6,6.19-.42.7-.85,1.41-1.35,2.05-1.04,1.33-2.5,2.34-4.04,1.54-1.15-.6-2.45-2.02-2.59-3.21-.4-3.44-.43-6.95-.28-10.42.19-4.22.62-8.44,1.12-12.65.54-4.49,1.05-9,1.99-13.41,1.84-8.58,4.1-17.07,5.94-25.66,2.36-11.05,6.51-21.48,10.48-32,2.39-6.31,4.19-12.87,5.78-19.44,1.79-7.42,4.26-14.54,7.29-21.53,3.61-8.32,6.86-16.8,10.27-25.21.95-2.34,1.82-4.73,2.88-7.02,2.98-6.43,10.17-7.73,15.34-2.85,3.79,3.58,5.63,8.1,6.64,13.12,2.54,12.73.67,24.95-3.56,37.09-3.86,11.07-8.96,21.55-13.97,32.11-5.4,11.35-10.41,22.89-15.58,34.35-1.22,2.71-2.39,5.45-3.57,8.19-.25.59-.41,1.21-.21,2.24.67-.41,1.44-.73,2.01-1.26,25.17-23.32,54.39-39.29,87.46-48.35,14.83-4.06,29.78-4.75,44.9-2.07,2.51.44,2.98-.08,2.14-2.62-3.56-10.68-6.38-21.54-8.25-32.66-3.46-20.62-3.22-41.2.24-61.79.68-4.06.39-4.54-3.42-3.28-5.63,1.86-11.29,3.77-16.63,6.31-11.94,5.68-24.05,8.63-37.14,4.49-8.9-2.82-19.39-11.11-20.32-24.04-.98-13.64,3.03-25.41,11.1-36.02,5.09-6.69,10.17-13.43,15.78-19.68,10.67-11.87,23.25-21.19,38.87-25.51,11.94-3.31,23.86-1.87,34.85,3.39,8.21,3.92,13.21,10.7,12.78,20.71-.59,13.69-.8,27.38-3.93,40.82-.49,2.09.16,2.77,2.53,2.75,7.91-.07,15.77.12,23.48,2.25,12.73,3.52,23.91,9.46,32.14,20.13,1.52,1.97,2.61,1.98,4.1.11,12.12-15.18,28.55-21.26,47.3-22.4,2.82-.17,5.66-.04,8.49-.09,2.31-.04,2.92-.68,2.41-2.83-3.25-13.8-3.59-27.87-3.96-41.94-.26-9.64,5.26-16.21,13.3-19.71,14.18-6.18,28.79-6.8,43.28-.05,14.15,6.59,25.72,16.24,35.18,28.55,3.72,4.84,7.61,9.55,11.25,14.44,8.33,11.18,11.94,23.61,9.97,37.59-1.06,7.51-5.1,12.92-11.08,17.05-9.09,6.27-19.19,7.68-29.87,5.59-6.03-1.18-11.59-3.63-17.17-6.19-5.18-2.37-10.67-4.08-16.1-5.86-2.95-.96-3.53-.29-2.98,2.73,1.99,10.79,2.87,21.69,2.87,32.66.02,20.97-3.71,41.31-10.32,61.17-1.45,4.35-1.29,4.4,3.26,3.65,14-2.29,27.87-1.67,41.63,1.9,31.78,8.26,59.89,23.42,84.77,44.73,1.64,1.4,3.13,2.98,4.73,4.42.55.49,1.23.83,1.86,1.23.16-.13.32-.26.47-.38-.25-.73-.44-1.48-.74-2.19-7.09-16.39-13.85-32.92-22.11-48.8-6.02-11.56-10.8-23.7-14.04-36.39-2.51-9.83-2.05-19.64.09-29.42.86-3.93,2.88-7.32,5.8-10.14,5.25-5.07,12.39-3.84,15.43,2.81,1.82,3.99,3.26,8.15,4.96,12.19,3.77,8.99,7.75,17.89,11.33,26.95,1.71,4.33,2.99,8.89,4,13.45,2.22,10,5.73,19.52,9.35,29.07,2.95,7.76,5.09,15.86,7.21,23.9,2.31,8.78,4.3,17.64,6.17,26.52.87,4.12,1.21,8.36,1.66,12.56.42,3.98.8,7.98.95,11.98.13,3.47,0,6.96-.22,10.43-.11,1.72-1.02,3.15-2.91,3.53-1.86.37-3.19-.59-4.13-2.05-1.16-1.82-2.17-3.73-3.26-5.59-.35-.6-.76-1.17-1.3-2-.38.63-.65.91-.71,1.23-1.15,6.44-5.17,10.79-10.49,14.04-7.67,4.69-16.28,6.93-24.9,8.94-14.68,3.42-29.65,4.89-44.64,6.23-11.86,1.06-23.68,2.48-35.5,3.93-10.64,1.31-21.24,2.86-31.85,4.33-2.3.32-2.51.83-1.16,2.89,6.81,10.44,12.94,21.22,17.11,33.03,2.55,7.25,4.96,14.53,5.63,22.24.73,8.42-1.02,16.03-7.7,21.84-4.89,4.25-10.77,5.96-17.11,6.12-5.65.14-11.31-.04-16.97-.02-3.29,0-3.39.36-2.75,3.51,1.73,8.45,3.31,16.93,4.95,25.4.12.63.22,1.27.34,1.91.24.17.48.35.72.52.19-.46.34-.94.58-1.38,1.69-3.06,3.5-6.06,5.06-9.19,2.13-4.28,5.31-7.53,9.26-10.06,7.57-4.86,15.21-9.61,22.78-14.46,3.75-2.4,7.22-5.34,11.18-7.29,5.04-2.49,10.36-4.52,15.72-6.22,6.8-2.16,13.7-4.1,20.67-5.56,8.13-1.7,16.37-2.97,24.61-4.07,7-.93,14.07-1.32,21.11-2.01,1.55-.15,3.08-.51,4.62-.81,5.63-1.07,11.22-2.37,16.88-3.17,8.1-1.15,14.8-4.73,20.38-10.6,4.01-4.22,4.52-9.26,3.69-14.76-.7-4.69-1.08-9.45-1.39-14.19-.11-1.59.19-3.3.69-4.83,1.34-4.14,3.85-7.24,8.36-8.12,4.55-.89,8.56.66,11.07,4.27,7.11,10.21,11.65,21.4,9.73,34.14-1.98,13.12-9.72,22.21-21.45,27.81-11.07,5.28-23.05,7.46-35.14,8.81-13.08,1.46-26.19,2.67-39.3,3.87-4.66.43-9.4.2-14.03.84-7.28.99-14.58,2.09-21.7,3.82-8.81,2.14-17.45,4.96-26.16,7.5-.78.23-1.57.51-2.28.89-4.98,2.66-9.91,5.41-14.93,8-1.56.81-3.33,1.21-5.01,1.78-.49.17-1.07.16-1.49.43-7.04,4.55-12.88,10.1-15.15,18.54-.89,3.32-.04,6.48.93,9.64,3.55,11.64,9.37,22.13,15.96,32.29,6.28,9.67,12.09,19.65,18.39,29.31,5.16,7.91,10.43,15.78,16.22,23.22,3.72,4.78,8.81,8.47,12.72,13.13,10.05,11.96,19.79,24.18,29.63,36.31.88,1.09,1.57,2.35,2.31,3.56,6.78,11.02,13.66,21.99,20.31,33.09,4.96,8.29,10.1,16.54,13.08,25.84,1.79,5.58,2.74,11.31,1.71,17.16-1.79,10.2-10.3,17.64-20.96,18.53-13.89,1.16-25.06-3.94-33.61-14.78-4.52-5.73-9.27-11.16-14.64-16.17-5.46-5.1-10.1-11.1-15.05-16.73-3.34-3.8-6.91-7.44-9.82-11.54-2.86-4.02-5.76-7.87-9.51-11.13-5-4.33-7.79-10.26-10.83-15.98-.7-1.31-1.63-2.5-2.46-3.74-.27.16-.53.33-.8.49,1.08,2.04,2.26,4.04,3.23,6.13,3.78,8.24,7.86,16.36,11.15,24.79,5.26,13.52,7.93,27.73,10.13,42.03.35,2.28.71,4.56,1.16,6.82,2.62,13.08,2.04,26.05-1.37,38.91-.59,2.22-1.26,4.47-2.28,6.51-3.43,6.84-5.64,14.07-7.44,21.47-2.66,10.95-6.9,21.12-13.71,30.29-4.28,5.77-7.65,12.23-11.37,18.41-.93,1.54-.32,2.87.75,4.26,5.03,6.52,9.25,13.53,11.75,21.41,1.6,5.03,1.06,10.04-1.76,14.62-3.2,5.19-9.4,6.16-13.36,1.55-4.05-4.71-7.27-10.12-10.95-15.15-4.04-5.51-7.84-11.26-12.41-16.3-4.57-5.04-10.64-8.25-16.84-11.13-9.65-4.48-19.15-9.27-28.72-13.92-.59-.29-1.2-.54-2.02-.92-.17.73-.35,1.26-.42,1.81-2.1,16.98-4.07,33.98-6.37,50.94-.45,3.32-2.05,6.5-3.35,9.66-.32.76-1.55,1.59-2.36,1.59-.81,0-2.09-.83-2.35-1.58-1.41-4.13-3.08-8.28-3.73-12.56-2.03-13.47-3.66-26.99-5.4-40.5-.28-2.21-.35-4.45-.53-6.67-.06-.78-.16-1.55-.27-2.58-.84.32-1.39.47-1.89.72-9.83,4.79-19.55,9.82-29.52,14.32-10.77,4.85-18.98,12.36-25.28,22.2-3.33,5.2-6.68,10.4-10.18,15.48-1.34,1.94-2.96,3.76-4.74,5.3-4.13,3.59-9.84,2.6-12.65-2.11-3.19-5.37-3.42-11.06-1.12-16.75,2.82-7,6.47-13.58,11.21-19.48,1.35-1.67,1.41-3.1.31-4.84-5.43-8.54-10.87-17.06-16.2-25.66-3.92-6.33-6.19-13.38-8-20.53-2.13-8.4-5.12-16.43-8.32-24.47-2.44-6.13-3.78-12.88-4.52-19.47-1.02-9.1-.25-18.21,1.43-27.31,2.67-14.42,4.9-28.93,9.78-42.83,1.92-5.47,4.44-10.72,6.63-16.09,1.23-3.01,2.33-6.06,3.49-9.09-.17-.1-.34-.19-.51-.29-.8,1.16-1.53,2.38-2.42,3.47-2.16,2.64-4.39,5.21-6.59,7.81-2.52,2.99-5.03,6-7.55,8.99-3.35,3.98-6.65,8.01-10.08,11.91-5.4,6.14-10.84,12.25-16.35,18.28-3.6,3.94-7.41,7.69-11.06,11.59-3.29,3.52-6.11,7.58-9.79,10.61-9.78,8.06-21.07,10.07-33.17,6.49-9.08-2.69-15.36-12.89-14.93-22.36.49-10.67,4.72-19.92,10.01-28.79,6.75-11.31,14.33-22.15,20.58-33.72,7.2-13.33,16.98-24.55,26.52-36.05,6.75-8.14,13.59-16.13,21.22-23.51,4.11-3.98,7.22-9.06,10.42-13.88,5.76-8.68,11.23-17.54,16.85-26.31,4.21-6.58,8.82-12.94,12.6-19.76,4.06-7.33,7.39-15.06,10.97-22.65.66-1.4.93-2.98,1.45-4.46,2.14-6.15.81-11.66-2.85-16.86-2.56-3.64-5.48-6.89-9.29-9.2-1.54-.93-3.3-1.51-4.98-2.21-.82-.34-1.72-.52-2.51-.92-3.67-1.81-7.53-3.34-10.91-5.6-5.76-3.86-12.23-5.87-18.71-7.68-9.44-2.65-19.01-4.94-28.65-6.74-5.66-1.06-11.57-.7-17.33-1.28-11.92-1.2-23.79-3.11-35.73-3.77-10.8-.59-21.27-2.45-31.67-5.08-10.06-2.54-19.02-7.01-25.58-15.31-7.09-8.95-9.26-19.15-6.91-30.29,1.43-6.77,4.24-13.01,7.8-18.9,1.7-2.82,4.12-4.93,7.37-5.79,6.65-1.76,12.65,2.44,13.86,9.67.89,5.3.13,10.53-.68,15.77-.31,1.98-.48,3.98-.67,5.98-.4,4.19,1.48,7.55,4.19,10.44,5.65,6.03,12.58,9.48,20.86,10.55,5.82.75,11.51,2.45,17.32,3.28,7.21,1.03,14.5,1.51,21.74,2.4,4.27.53,8.48,1.46,12.73,2.12,4.03.63,8.14.89,12.12,1.74,14.49,3.09,28.92,6.39,42.01,13.79.19.11.4.2.59.32,5.87,3.91,11.73,7.85,17.6,11.75,3.47,2.3,6.92,4.65,10.48,6.8,5.1,3.07,9.24,6.93,11.8,12.42,1.35,2.89,3.06,5.61,4.64,8.4.2.35.56.62,1.17,1.28.24-1.14.42-1.89.56-2.64,1.67-8.54,3.3-17.09,5.03-25.61.55-2.7.28-3.26-2.47-3.26-5.73-.02-11.47.15-17.2.02-6.33-.14-12.23-1.79-17.15-6.01-7.02-6.02-8.68-13.95-7.74-22.67,1.29-12.02,5.66-23.14,10.82-33.88,3.34-6.95,7.61-13.46,11.53-20.13,1.64-2.78,1.55-3.13-1.71-3.54-17.87-2.25-35.73-4.55-53.61-6.67-11.38-1.35-22.81-2.27-34.19-3.64-14.74-1.79-29.31-4.49-43.11-10.21-5.51-2.29-10.45-5.52-13.48-10.89-1.22-2.16-1.89-4.63-3-7.45ZM219.02,725.14c-.77-.81-1.59-1.57-2.3-2.43q-3.65-4.4-8.77-1.93c-.8.39-1.58.84-2.37,1.25-7.57,3.94-11.16,10.21-10.86,18.71.13,3.79.21,7.59.47,11.37.24,3.43,4.92,7.04,8.57,6.77-.96-1.74-2.23-3.38-2.81-5.23-2.33-7.45-1.94-14.9,1.22-22.01,2.54-5.7,8.44-8.27,14.49-6.88.79.18,1.6.22,2.41.32.57.56,1.17,1.09,1.71,1.67,1.26,1.34,2.96,2.5,3.67,4.1,2.97,6.63,4.51,13.57,2.69,20.83-1.63,6.5-6.39,10.45-12.97,11.06-.33.03-.64.16-.96.24-.06.26-.12.52-.19.78,2.94,1.1,5.81,2.46,8.83,3.26,9.64,2.54,19.35,4.79,29,7.29,8.06,2.09,16.08,4.38,24.11,6.59.99.27,2.09.57,2.23-.87.23-2.43.39-4.89.29-7.33-.03-.68-.98-1.68-1.7-1.91-4.72-1.45-7.57-4.63-8.72-9.31-1.86-7.55-1.48-15.12,1.02-22.42.79-2.31,2.67-4.47,4.55-6.13,2.8-2.47,3.21-2.86,2.31-6.57-.3-1.23-.45-2.56-1.06-3.62-.4-.71-1.56-1.57-2.24-1.47-7.57,1.19-15.2,2.15-22.62,3.99-6,1.49-12,2.44-18.08,2.21-4-.15-7.96-1.52-11.94-2.34ZM200.38,335.56c0,.11-.01.23-.02.34.52.05,1.05.04,1.55.15,3.06.69,4.87-.55,6.48-3.25,7.09-11.89,14.41-23.64,21.65-35.43,4.47-7.28,3.85-5.8.55-12.6-6.28-12.92-12.3-25.97-18.36-38.99-1.04-2.23-2.49-3.95-4.87-4.56-4.32-1.1-8.63-2.41-13.03-2.93-12.6-1.5-24.97.23-37.1,3.69-18.57,5.3-36.07,13.08-52.67,22.95-10.79,6.41-21.14,13.37-29.93,22.43-4.05,4.17-7.92,8.51-10.19,14-2.71,6.57-1.62,11.17,4.52,14.68,5.59,3.19,11.47,6.1,17.56,8.11,16.51,5.44,33.68,7.6,50.95,8.58,20.95,1.18,41.93,1.92,62.89,2.84ZM388.61,237.59c-3.85.32-7.73.45-11.54,1.02-3.3.5-6.53,1.45-9.76,2.3-2.86.75-4.59,2.65-5.84,5.35-6.24,13.42-12.47,26.86-19.06,40.11-1.72,3.46-1.73,5.98.3,9.21,7.85,12.46,15.52,25.03,23.12,37.65,1.39,2.32,2.95,3.06,5.6,2.91,20.5-1.16,41-2.2,61.51-3.25,18.41-.94,36.61-3.25,54.31-8.64,6.72-2.05,13.14-4.82,18.88-8.96,4.35-3.14,5.85-6.91,3.89-11.88-1.47-3.75-3.51-7.43-5.99-10.59-6.2-7.89-13.85-14.32-22.16-19.92-15.79-10.65-32.49-19.55-50.42-26.11-13.85-5.06-27.91-8.95-42.83-9.21ZM219.5,183.54c-.19,0-.38.02-.57.02,0,4.31-.38,8.66.07,12.92,1.25,11.65,3.67,23.08,7.71,34.11.76,2.07,2.15,4.19,3.84,5.58,7.14,5.88,12.98,12.88,18.31,20.35,1.84,2.57,2.38,2.59,3.89-.27,9.08-17.15,16.32-35.07,22.19-53.55,1.75-5.51,1.96-11.03,1.05-16.74-1.86-11.72-2.49-23.51-1.02-35.36.26-2.09.2-4.45-.51-6.39-4.04-11.03-10.48-19.94-22.01-24.31-9.35-3.54-19.03-3.9-28.82-3.48-1.96.08-2.63,1.45-2.85,3.14-.84,6.42-1.67,12.83-2.5,19.25-1.21,9.28-1.05,18.54-.06,27.84.6,5.61.87,11.26,1.29,16.9ZM356.98,150.89c-1.12-9.27-2.47-20.27-3.78-31.27-.28-2.37-1.58-3.36-3.91-3.28-5.13.19-10.3-.02-15.38.56-12.04,1.37-22.4,5.99-29.17,16.69-3.24,5.12-6.51,10.35-5.74,16.76,1.5,12.39.72,24.66-1.22,36.92-.7,4.46-.67,8.89.65,13.26,5.86,19.52,13.53,38.3,23.12,56.3,1.07,2.01,1.86,2.02,3.18.14,5.5-7.83,11.62-15.07,19.06-21.17,1.52-1.25,2.73-3.21,3.41-5.09,1.48-4.05,2.67-8.21,3.71-12.4,2.8-11.3,5.04-22.66,3.91-34.44-.29-3.01-.03-6.1.19-9.14.53-7.34,1.2-14.68,1.96-23.84ZM391.94,727.21c.35-1.03.68-1.57.69-2.11.13-7.2.82-14.45.17-21.59-.8-8.78-3.94-17.1-7.69-25.07-5.6-11.92-11.05-23.88-15.79-36.19-4.3-11.16-9.46-21.98-14.31-32.92-2.56-5.77-5.27-11.48-7.96-17.19-.37-.79-1.02-1.46-1.54-2.18-.49.68-1.18,1.3-1.45,2.07-4.38,12.18-8.57,24.43-13.13,36.54-1.52,4.04-.95,7.3,1,10.98,7.01,13.2,14.07,26.4,20.48,39.9,3.68,7.75,6.09,16.11,9.22,24.13.39,1.01,1.52,1.98,2.55,2.45,2.22,1.02,4.65,1.59,6.89,2.57,8.32,3.63,15.41,8.69,19.59,17.09.21.43.62.75,1.28,1.53ZM181.43,726.61c.27.04.53.08.8.12.33-.36.77-.66.98-1.08,4.68-9.32,12.67-14.82,22.15-17.93,4.91-1.61,6.87-4.21,8.53-8.98,3.58-10.3,7.97-20.37,12.7-30.22,5.12-10.66,11.08-20.9,16.48-31.43.83-1.62,1.26-4.05.7-5.7-4.49-13.25-9.25-26.4-13.97-39.57-.25-.69-.92-1.22-1.4-1.82-.46.6-1.06,1.15-1.36,1.82-2.04,4.54-3.95,9.14-6.04,13.66-4.44,9.58-9.49,18.92-13.34,28.73-5.65,14.41-11.21,28.82-18.08,42.73-6.2,12.54-10.07,25.79-9.02,40.04.24,3.22.59,6.43.89,9.65ZM262.12,282.86c.24,1.06.43,2.08.71,3.07,2.18,7.66,4.31,15.33,6.63,22.94.68,2.25,1.58,4.57,2.95,6.45,3.95,5.4,8.15,10.63,12.34,15.85,1.93,2.4,2.57,2.39,4.47.01,3.86-4.82,7.79-9.6,11.34-14.65,1.76-2.5,3.11-5.42,4.04-8.34,2.35-7.37,4.29-14.87,6.53-22.28.7-2.3.69-4.35-.55-6.41-9.16-15.27-15.53-31.8-21.9-48.35-.38-.99-1.06-1.86-1.6-2.78-.63.93-1.46,1.78-1.85,2.8-6.42,16.76-12.87,33.49-22.2,48.93-.48.8-.61,1.8-.92,2.74ZM213.56,417.77c.01-.19.03-.39.04-.58,3.2,0,6.39-.02,9.59,0,2.34.02,3.81-1.04,4.88-3.16,6.74-13.3,14.44-26.02,23.79-37.65,2.89-3.59,4.03-7.49,3.79-12-.09-1.73-.7-2.87-2.39-3.27-10.86-2.52-21.72-5.04-32.59-7.53-1.73-.4-2.91.29-3.87,1.85-7.36,11.87-13.3,24.41-18.21,37.46-2.29,6.08-4.46,12.17-3.81,18.84.28,2.94,1.02,4.11,3.96,4.51,4.92.67,9.89,1.03,14.83,1.51ZM360.44,417.18l.04.6c4.94-.5,9.91-.88,14.83-1.55,2.86-.39,3.96-1.66,3.85-4.56-.14-3.69-.14-7.54-1.23-11-5.01-16.04-12.05-31.2-21.02-45.42-.57-.9-2.3-1.82-3.25-1.62-11.11,2.4-22.19,4.98-33.24,7.65-.82.2-1.89,1.45-1.96,2.29-.38,4.13,0,8.09,2.8,11.58,9.75,12.17,17.9,25.38,24.93,39.29.97,1.91,2.41,2.73,4.44,2.74,3.27.02,6.54,0,9.81,0ZM307.66,634.7c-.38-.95-.72-2.17-1.31-3.24-3.87-6.96-7.82-13.87-11.69-20.83-2.13-3.84-4.13-7.75-6.24-11.6-.99-1.81-1.77-1.81-2.82-.11-.43.7-.8,1.43-1.2,2.14-5.54,10.03-11.03,20.09-16.66,30.07-1.28,2.28-1.43,4.33-.64,6.78,3.1,9.63,6.33,19.23,8.96,28.99,3.39,12.57,6.23,25.29,9.38,37.93.2.79,1.02,1.43,1.55,2.13.49-.67,1.21-1.27,1.42-2.02,1.47-5.38,2.91-10.78,4.22-16.21,4.19-17.36,7.92-34.85,14.41-51.57.26-.68.36-1.43.62-2.47ZM370.05,759.04c6.18-1.55,9.01-3.95,8.85-8.75-.09-2.82.13-5.65.29-8.47.57-10.1-4.13-16.88-13.13-20.97-.88-.4-1.8-.71-2.67-1.14-2.05-1.01-3.66-.75-4.92,1.35-1.96,3.25-4.94,4.95-8.65,5.7-7.68,1.57-15.21.62-22.77-.9-8.23-1.65-16.5-3.15-24.77-4.57-.69-.12-2.02.7-2.27,1.38-.72,1.93-1.1,4.01-1.48,6.05-.27,1.44.26,2.52,1.65,3.3,3.36,1.89,5.29,4.9,6.31,8.57,1.6,5.75,1.89,11.64,1.17,17.49-.75,6.09-3.26,11.15-9.98,12.84-.61.15-1.34,1.24-1.39,1.93-.13,1.84.02,3.71.16,5.56.24,3.07.3,3.01,3.2,2.25,11.01-2.88,22.04-5.66,33.05-8.54,7.7-2.02,15.38-4.09,23.04-6.27,1.7-.48,3.24-1.52,5.43-2.58-1.01-.34-1.26-.5-1.52-.51-6.79-.28-11.93-5.81-13.1-12.58-1.09-6.31.11-12.37,2.45-18.11.94-2.3,3.05-4.53,5.21-5.83,7.26-4.38,15.97-.87,18.52,7.55,2.58,8.54,3.25,17.12-2.69,25.26ZM287.14,426.46c.96-.27,2.03-.52,3.08-.88,3.45-1.17,6.87-2.43,10.33-3.54,3.18-1.02,3.43-1.45,2.99-4.78-1.13-8.69-2.1-17.41-3.33-26.09-.28-1.99-.87-4.29-2.14-5.71-2.89-3.24-6.22-6.12-9.55-8.93-.64-.54-2.51-.53-3.16.01-3.24,2.69-6.41,5.5-9.29,8.57-1.18,1.27-1.97,3.24-2.22,5-1.33,9.42-2.42,18.87-3.62,28.3-.22,1.72.33,2.76,2.12,3.32,4.11,1.3,8.15,2.8,12.23,4.19.76.26,1.58.34,2.56.53ZM258.58,537.59c-.69.81-1.33,1.4-1.78,2.1-4.45,6.96-8.81,13.98-13.32,20.91-1.34,2.06-1.61,3.99-.8,6.31,3.01,8.57,5.93,17.17,8.84,25.77,1.62,4.79,3.14,9.62,4.78,14.41.24.69.86,1.25,1.31,1.87.54-.55,1.13-1.07,1.61-1.67.32-.4.51-.9.75-1.37,4.65-9,9.23-18.02,13.97-26.97,1.35-2.55,1.33-4.81.15-7.41-4.95-10.83-9.77-21.72-14.64-32.59-.17-.38-.45-.71-.87-1.36ZM315.37,537.85c-.47.56-.66.71-.74.9-5.09,11.33-10.24,22.62-15.16,34.02-.62,1.43-.54,3.67.15,5.07,4.91,9.93,10.06,19.74,15.18,29.57.33.64,1.08,1.06,1.63,1.58.4-.58.95-1.12,1.17-1.76,4.61-13.59,9.16-27.2,13.79-40.79.64-1.87.42-3.45-.61-5.07-4.55-7.15-9.07-14.33-13.63-21.47-.45-.7-1.09-1.28-1.77-2.05ZM149.96,616.25l.63.41c1.21-1.44,2.5-2.82,3.63-4.32,9.91-13.17,18.03-27.66,29.75-39.51,5.89-5.96,11.08-12.62,16.56-18.99,4.16-4.84,8.3-9.7,12.39-14.6,1.57-1.88,1.78-4.13,1.54-6.53-.82-8.06-1.54-16.13-2.31-24.19-.07-.74-.22-1.47-.34-2.2-.22-.02-.43-.05-.65-.07-.3.69-.67,1.36-.9,2.08-6.54,19.78-15.55,38.1-30.47,53.09-8.09,8.12-14.68,17.41-19.28,27.93-3.72,8.51-6.96,17.23-10.4,25.87-.13.32-.1.69-.14,1.04ZM423.36,616.58c.17-.11.33-.23.5-.34-.06-.48-.03-1-.21-1.44-3.49-8.7-6.65-17.56-10.63-26.03-3.59-7.64-7.59-15.14-13.64-21.34-4.72-4.84-9.27-9.9-13.4-15.25-10.08-13.03-16.99-27.74-22.18-43.31-.3-.9-.73-1.76-1.1-2.64-.2.05-.39.1-.59.14-.1.63-.23,1.25-.29,1.88-.8,8.29-1.72,16.57-2.28,24.88-.13,1.99.45,4.39,1.56,6.02,2.41,3.55,5.3,6.79,8.13,10.02,3.24,3.69,6.7,7.18,9.94,10.87,4.91,5.59,9.81,11.2,14.54,16.93,4.26,5.15,8.45,10.38,12.39,15.77,5.13,7.03,9.96,14.28,14.96,21.4.63.9,1.51,1.62,2.28,2.43ZM266.48,704.07c1.86.74,1.98-.22,1.49-1.66-4.7-13.94-9.39-27.89-14.12-41.82-.17-.49-.66-1.16-1.05-1.2-.41-.04-1.03.5-1.3.94-1.21,1.96-2.32,3.98-3.47,5.98-6.17,10.74-10.73,22.2-15.02,33.78-.8,2.17-.46,2.63,1.62,2.71,10.61.43,21.22.85,31.84,1.28ZM327.87,702.8c4.07,0,7.56.02,11.06,0,2.43-.02,2.81-.49,1.94-2.82-1.59-4.25-3.09-8.55-5.03-12.64-4.24-8.92-8.73-17.73-13.17-26.56-.29-.59-1-.96-1.52-1.44-.41.56-.99,1.07-1.2,1.7-4.61,13.52-9.19,27.04-13.74,40.58-.98,2.92-.77,3.08,2.21,2.81,6.67-.59,13.34-1.12,19.46-1.63ZM286.69,492.07c-.42.85-.56,1.21-.76,1.53-3.66,6.04-7.39,12.05-10.94,18.16-.61,1.06-.82,2.63-.59,3.85,2.17,11.49,6.5,22.25,11.39,32.79.21.46.84,1.03,1.24,1.01.42-.02.98-.62,1.2-1.09,4.83-10.41,9.15-21.02,11.23-32.38.28-1.52-.2-3.45-.98-4.83-3.11-5.5-6.48-10.86-9.77-16.26-.45-.74-1.01-1.41-2.01-2.79ZM312.51,792.05c.63.41.96.72,1.34.87,3.4,1.32,6.78,2.68,10.21,3.91,8.82,3.18,17.67,6.25,26.47,9.47,2.62.96,3.38,1.03,4.8-1.42,5.35-9.28,10.59-18.62,15.84-27.96.38-.67.56-1.45.85-2.22-.48-.17-.73-.36-.87-.29-18.37,8.52-37.82,13.34-57.65,16.9-.25.04-.45.33-.99.73ZM202.12,774.68c.14.58.15,1.12.38,1.53,5.45,9.73,10.91,19.46,16.39,29.17,1,1.76,2.44,1.83,4.21,1.07,3.21-1.38,6.46-2.69,9.74-3.87,8.75-3.15,17.53-6.21,26.29-9.33.72-.26,1.4-.65,2.09-.98.02-.3.04-.6.06-.91-19.59-3.45-38.92-7.75-56.92-16.46-.4-.19-.83-.34-1.26-.41-.26-.04-.55.1-.98.19ZM255.22,341.79c-.16-1.55-.32-3.11-.5-4.66-.28-2.51-.76-5.02-.83-7.54-.2-6.49-3.57-11.53-7.14-16.53-1.39-1.94-2.09-1.94-3.39.09-4.98,7.77-9.95,15.54-14.93,23.31-1.5,2.34-1.31,2.77,1.4,3.33,7.43,1.53,14.87,3.05,22.3,4.61,3.01.63,3.3.41,3.09-2.61ZM318.55,342.63c-.08,2.01.98,2.25,2.61,1.91,7.72-1.62,15.44-3.2,23.16-4.8,2.42-.5,2.66-1.01,1.32-3.1-4.53-7.08-9.1-14.14-13.64-21.2-.64-1-1.13-2.15-1.96-2.96-.43-.42-1.93-.58-2.12-.29-2.83,4.16-6.4,8-7.22,13.19-.9,5.73-1.45,11.51-2.15,17.27ZM336.38,549.54c.93-3.79,1.96-6.9,2.37-10.09.27-2.12.11-4.53-.65-6.51-3.96-10.35-8.17-20.61-12.32-30.89-.28-.68-.76-1.28-1.5-2.51-.39,1.27-.64,1.85-.75,2.46-1.11,5.92-2.12,11.86-3.33,17.76-.44,2.12-.17,3.94.94,5.75,4.41,7.16,8.78,14.34,13.19,21.5.44.71,1.06,1.32,2.05,2.54ZM237.36,548.52c.25.06.49.12.74.18.45-.55.97-1.07,1.34-1.67,4.49-7.28,9.05-14.52,13.35-21.92.85-1.45,1.13-3.57.88-5.27-.92-6.1-2.19-12.15-3.33-18.21-.1-.55-.3-1.08-.45-1.61-.2-.06-.39-.11-.59-.17-.47.92-1.02,1.81-1.4,2.76-3.81,9.45-7.26,19.07-11.49,28.33-2.9,6.36-.39,11.81.95,17.58ZM340.08,490.95c.21-.04.42-.08.62-.13.05-.75.2-1.52.14-2.26-1.24-15.64-3.89-31.01-8.67-45.98-.45-1.41-.86-2.93-1.71-4.09-.52-.71-1.84-.84-2.79-1.23-.27.84-.89,1.75-.74,2.5,3.32,16.5,6.67,32.99,12.04,48.98.26.77.73,1.48,1.11,2.21ZM233.05,490.54l.87.2c.32-.63.73-1.23.96-1.89,5.45-16.03,8.78-32.58,12.11-49.13.15-.74-.52-1.65-.81-2.48-.89.39-2.09.55-2.6,1.23-.78,1.03-1.15,2.4-1.58,3.66-4.46,13.33-6.83,27.09-8.39,41-.28,2.46-.38,4.94-.57,7.41ZM300.9,468.68c-.28-.16-.56-.32-.85-.48-.24.46-.47.91-.71,1.37-1.45,2.76-3.05,5.47-4.27,8.33-.42.98-.25,2.54.25,3.52,1.8,3.5,3.84,6.88,5.84,10.27.36.61.97,1.07,1.88,2.04,1.08-8.98,1.13-17.16-2.14-25.04ZM274.04,468.64c-.34.06-.68.12-1.02.18-3.21,7.8-3.2,15.9-2.12,24.56.72-.59,1.22-.81,1.44-1.2,2.21-3.78,4.39-7.57,6.51-11.4.3-.54.53-1.42.29-1.91-1.63-3.45-3.39-6.83-5.11-10.24ZM286.44,464.9c.3.02.59.04.89.06,1.06-2.09,2.12-4.17,3.17-6.26,1.85-3.7,1.72-4.14-1.55-6.65-1.22-.93-2.48-1.18-3.64-.16-1.37,1.21-3.84,2.04-2.96,4.43,1.09,2.96,2.7,5.72,4.09,8.57ZM190.28,623.8c-.31-.19-.62-.39-.93-.58-1.13,2.18-2.27,4.37-3.4,6.55.31.17.62.33.93.5,1.13-2.15,2.26-4.31,3.39-6.46Z" style="fill: #000; stroke-width: 0px;"/>
  <path d="M62.42,437.45c4.4.38,9.39.09,13.96,1.35,15.62,4.31,26.96,13.72,30.93,29.93,2.9,11.83,4.57,23.96,7.01,35.91,1.8,8.81,2.27,17.64,2.04,26.63-.15,5.84.77,11.72,1.38,17.56,1.7,16.23.51,32.16-5.38,47.47-4.53,11.79-12.46,20.96-23.62,26.97-10.99,5.93-28.51,4.57-37.89-6.11-.63-.72-1.42-1.31-2.22-1.85-14.14-9.73-25.29-22.08-32.78-37.58-1.26-2.6-2.45-5.3-3.2-8.08-1.63-6.08-4.33-11.7-6.89-17.4-3.68-8.19-5.3-16.92-5.67-25.81-.63-14.86,1.85-29.37,5.81-43.64,2.45-8.82,4.85-17.66,9.17-25.83,2.79-5.26,6.07-10.15,11.25-13.29,2.37-1.44,5.07-2.64,7.77-3.16,5.76-1.12,11.6-1.83,17.43-2.49,3.46-.39,6.96-.38,10.9-.56Z" style="fill: #000; stroke-width: 0px;"/>
  <path d="M511.93,437.85c5.64-.65,10.78-.05,15.92,1.02,3.05.64,6.17,1.08,9.28,1.23,5.67.28,10.31,2.63,14.34,6.43,4.99,4.72,8.1,10.67,10.48,16.96,7.09,18.78,11.76,38.11,12.08,58.29.2,12.96-2.78,25.22-8.6,36.82-1.39,2.76-2.27,5.8-3.18,8.78-4.97,16.23-14.68,29.28-27.18,40.42-3.1,2.76-6.58,5.09-9.86,7.66-.99.78-1.95,1.61-2.83,2.51-5.13,5.26-11.51,7.77-18.69,8.55-11.09,1.2-20.17-2.93-28.16-10.31-9.77-9.01-14.85-20.36-17.58-33.13-2.7-12.63-2.47-25.24-1.12-37.97.67-6.27.63-12.62,1.03-18.93.39-6.15.49-12.36,1.49-18.42,2.08-12.62,4.69-25.16,7.05-37.73,3.53-18.85,23.98-34.17,43.05-32.2.96.1,1.93.01,2.5.01Z" style="fill: #000; stroke-width: 0px;"/>
  <path d="M240.45,55.68c.64-5.16,1.37-10.32,1.88-15.5.31-3.24.58-6.53.33-9.76-.49-6.46.44-12.47,5.37-17.02,2.01-1.86,4.8-2.87,7.22-4.28,1.26-.74,2.64-1.36,3.72-2.31,6.72-5.89,14.27-8.04,23.16-6.12,3.24.7,6.87.58,10.14-.08,8.27-1.67,15.43.17,21.95,5.34,1.77,1.4,3.72,2.7,5.78,3.58,7.42,3.18,11.56,9.02,11.14,16.73-.47,8.46,1.14,16.59,1.86,24.86.5,5.82.57,11.67-1.49,17.22-2.7,7.29-7.71,12.82-14.65,16.15-5.26,2.53-10.89,4.36-16.49,6.07-3.22.99-6.55.19-9.86-.78-2.21-.65-4.95-.67-7.13.03-4.4,1.43-8.63,1.47-12.91.07-3.11-1.02-6.16-2.2-9.21-3.39-11.22-4.37-21.36-14.23-20.82-30.83Z" style="fill: #000; stroke-width: 0px;"/>
  <path d="M156.67,735.79c-2.06,14.44,1.63,27.38,5.45,40.22,1.51,5.08,4.25,9.79,6.44,14.67,2.92,6.51,6,12.95,8.73,19.54,2.94,7.07,1.36,13.42-3.89,18.89-1.34,1.39-2.7,2.78-4.18,4.02-6.9,5.78-16.58,5.3-23.62-1.02-3.28-2.94-5.66-6.51-7.52-10.43-3.85-8.14-7.89-16.2-11.35-24.5-4.35-10.46-7.39-21.36-9.55-32.5-1.6-8.25-3.18-16.51-5.15-24.67-1.26-5.22-.44-9.55,2.98-13.72,3.63-4.41,6.86-9.15,10.26-13.75,4.35-5.9,10.41-8.06,17.31-6.69,7.05,1.4,11.22,6.36,12.35,13.39.92,5.71,1.23,11.51,1.75,16.57Z" style="fill: #000; stroke-width: 0px;"/>
  <path d="M417.38,738.09c.48-5.57.85-11.88,1.62-18.14.88-7.24,5.72-12.69,12.11-14.2,6.56-1.55,13.82,1.5,17.93,7.32,3.21,4.55,6.47,9.08,9.97,13.4,3.22,3.97,4.03,8.1,2.9,13.1-2.42,10.73-4.14,21.63-6.71,32.32-2.95,12.23-6.62,24.24-12.62,35.44-3.22,6.02-5.68,12.46-8.99,18.43-2.91,5.25-7.21,9.37-13.29,10.87-8.22,2.02-14.39-1.65-19.77-7.45-5.5-5.94-6.73-12.6-3.6-19.99,2.47-5.82,4.7-11.8,7.83-17.25,5.62-9.78,8.75-20.29,11.02-31.2,1.51-7.24,2.98-14.44,1.59-22.65Z" style="fill: #000; stroke-width: 0px;"/>
  <path d="M140.74,442.13c11.65.67,24.85,3.03,35.78,11.73,10.46,8.33,15.14,19.58,13.14,32.95-.6,4-2.5,7.96-4.46,11.58-3.88,7.18-7.91,14.33-12.44,21.11-4.32,6.47-10.65,10.76-17.96,13.4-9.58,3.46-18.24-.11-22.84-9.23-3.92-7.76-6.55-15.86-7.6-24.58-.73-6.1-2.67-12.04-3.86-18.09-1.07-5.39-2.16-10.81-2.7-16.26-.76-7.73,2.47-14.11,8.15-19.15,3.61-3.2,8.25-3.49,14.79-3.46Z" style="fill: #000; stroke-width: 0px;"/>
  <path d="M435.42,442.11c14.3-1.07,21.16,11.89,20.73,21.58-.19,4.28-.93,8.57-1.73,12.79-2,10.51-3.83,21.07-6.42,31.44-1.44,5.78-3.85,11.43-6.55,16.77-4.27,8.47-13.46,11.54-22.51,8.13-8.59-3.24-15.34-8.85-20.08-16.63-4.13-6.79-7.9-13.81-11.6-20.85-8.61-16.36.46-36.81,14.97-44.76,9.11-4.99,22.13-8.53,33.18-8.47Z" style="fill: #000; stroke-width: 0px;"/>
  <path d="M181.52,187.15c.06,13.16-6.18,21.11-19.52,24.59-10.22,2.67-20.46,5.3-30.75,7.7-5.83,1.35-11.63,1.39-16.21-3.46-3.56-3.77-4.14-8.45-3.66-13.34.19-1.92.55-3.85,1.11-5.69,2.88-9.47,5.7-18.96,8.82-28.35,3.57-10.77,10.92-17.42,22.21-19.71,2.95-.6,5.72-2.08,8.59-3.12,1.61-.58,3.22-1.2,4.88-1.59,9.05-2.09,15.9,1.71,18.97,10.44,1.78,5.08,5.55,27.05,5.57,32.51Z" style="fill: #000; stroke-width: 0px;"/>
  <path d="M445.66,220.05c-3.06-.77-8.3-2.11-13.55-3.41-5.85-1.45-11.7-2.88-17.56-4.29-5.09-1.23-10-2.8-14.15-6.25-6.58-5.47-8.87-12.76-7.86-20.8,1.26-9.95,3.08-19.85,5.28-29.64,2.09-9.28,9.69-13.58,19.01-11.5,1.38.31,2.72.78,4.06,1.23,4.44,1.48,8.85,3.04,13.31,4.46,8.87,2.82,14.96,8.69,17.9,17.36,3.66,10.77,6.78,21.72,10,32.64.56,1.89.64,3.98.61,5.97-.14,8.93-5.86,14.42-17.06,14.24Z" style="fill: #000; stroke-width: 0px;"/>
  <path d="M280.91,871.75c-1.32,6.47-2.1,13.11-4.09,19.36-2.99,9.39-14.48,11.78-22.13,5.03-.78-.69-1.53-1.42-2.22-2.2-1.62-1.83-3.49-2.24-5.82-1.51-6.92,2.16-13.69,1.53-20.21-1.54-7.9-3.71-12.27-11.52-10.71-20.14.77-4.25,2.13-8.58,4.14-12.39,3.61-6.83,7.91-13.25,13.59-18.69,2.59-2.48,4.46-5.71,6.69-8.58,1.18-1.52,2.3-3.13,3.67-4.48,7.5-7.39,17.71-6.1,22.52,3.27,5.98,11.65,11.49,23.55,13.57,36.68.27,1.69.47,3.38.7,5.07.1.03.19.07.29.1Z" style="fill: #000; stroke-width: 0px;"/>
  <path d="M335.02,893.96c-2.55-.48-5.02-.71-7.34-1.44-2.63-.83-4.59-.25-6.4,1.72-3.13,3.41-6.84,5.62-11.67,5.68-5.63.06-10.05-2.47-11.82-7.52-2.99-8.53-5.45-17.37-3.55-26.6,1.86-9.06,4.43-17.9,8.82-26.12,1.54-2.88,2.67-5.97,4.09-8.92,3.47-7.2,9.98-10.48,16.77-8.02,2.55.93,5.2,2.59,6.92,4.66,6.72,8.1,13.2,16.41,19.54,24.81,3.32,4.4,5.82,9.28,7.26,14.71,3.23,12.11-2.29,22.22-14.36,25.59-2.7.75-5.54.99-8.26,1.45Z" style="fill: #000; stroke-width: 0px;"/>
  <path d="M407.11,348.37c3.92.25,7.89.22,11.75.81,4.59.7,9.88,4.91,10.61,10.86.97,7.82,2.77,15.53,2.5,23.49-.2,5.8-.24,11.6-.49,17.4-.23,5.19-3.59,8.93-8.78,10.21-2.01.5-4.02,1.09-5.94,1.86-6.31,2.52-12.22-.5-13.69-7.15-.45-2.03-.54-4.13-.94-6.17-1.53-7.65-2.59-15.44-4.86-22.87-1.53-4.99-3.81-9.94-7.78-13.88-3.13-3.11-2.37-8.6,1.58-11.11,2.47-1.57,5.53-2.45,8.44-3.04,2.43-.49,5.04-.1,7.57-.1,0-.1.01-.21.02-.31Z" style="fill: #000; stroke-width: 0px;"/>
  <path d="M142.32,388.93c-1.15-11.63.65-21.61,2.7-31.52.95-4.56,4.9-6.55,8.88-8,1.71-.62,3.65-.83,5.49-.85,5.06-.06,10.12-.01,15.18.17,3.61.13,6.88,1.35,9.38,4.07,2.91,3.16,2.88,7.41.13,10.52-4.79,5.42-7.65,11.88-9.12,18.84-1.56,7.34-2.6,14.79-3.83,22.2-1.35,8.14-6.96,11.33-14.63,8.35-1.66-.64-3.39-1.12-5.12-1.53-5.91-1.4-9.25-5.78-9.08-11.82.11-3.94.02-7.88.02-10.42Z" style="fill: #000; stroke-width: 0px;"/>
  <path d="M480.96,376.68c.11,4.75.41,9.52-1.47,14.08-2.53,6.15-6.89,10.06-13.64,10.61-3.3.27-6.71.25-9.98-.25-8.84-1.35-14.3-7.88-14.41-16.87-.02-1.85.21-3.71.42-5.56.74-6.42,1.56-12.83,2.28-19.25.59-5.22,2.59-9.64,7.16-12.5,6.53-4.09,17.18-1.84,22.35,4.16,4.74,5.51,6.41,11.95,6.93,18.9.17,2.22.23,4.46.34,6.68Z" style="fill: #000; stroke-width: 0px;"/>
  <path d="M92.59,376.55c.97-5.76,1.38-11.69,3.04-17.24,2.52-8.42,8.56-13.35,17.43-14.49,8.01-1.03,15.36,4.68,16.46,12.89,1,7.43,1.92,14.88,2.76,22.33,1.53,13.47-5.84,21.65-19.43,21.71-5.78.03-11.1-1.09-15.14-5.67-3.39-3.84-4.43-8.5-4.68-13.41-.1-2-.02-4.01-.02-6.01-.14-.04-.29-.07-.43-.11Z" style="fill: #000; stroke-width: 0px;"/>
  <path d="M490.65,359.77c.24-3.03.2-6.11.78-9.07,1.6-8.16,9.63-12.47,17.61-10.03,4.7,1.44,9.27,3.04,11.44,7.7,1.6,3.45,2.47,7.29,3.26,11.05.87,4.14,1.47,8.35,1.83,12.57.25,2.93.26,5.98-.25,8.87-1.44,8.15-7.71,13.16-15.97,13.44-7.18.25-13.23-1.8-17.29-8.04-2.62-4.02-2.71-8.55-2.21-13.14.49-4.42.95-8.85,1.43-13.27-.21-.02-.42-.04-.63-.06Z" style="fill: #000; stroke-width: 0px;"/>
  <path d="M82.69,359.73c.48,4.28.96,8.55,1.45,12.83.62,5.45.39,10.71-3.22,15.28-4.5,5.7-13.78,8.14-21.41,5.59-6.85-2.29-11.17-8.27-11.22-16.07-.06-8.99,1.52-17.81,4.09-26.37,1.48-4.92,5.04-8.35,10.31-9.56.87-.2,1.69-.56,2.55-.81,7.94-2.37,15.47,1.87,17.24,9.97.64,2.95.6,6.04.87,9.07-.22.02-.45.05-.67.07Z" style="fill: #000; stroke-width: 0px;"/>
  <path d="M201.76,258.71c-.65,3.84-.93,7.14-1.79,10.27-3.77,13.69-7.62,27.37-11.63,40.99-1.69,5.73-4.11,11.2-8.43,15.55-3.23,3.24-7.11,4.68-11.6,3.27-5.5-1.73-7.91-7.63-6.03-13.97,1.54-5.2,2.98-10.44,4.37-15.68,1-3.79.48-4.52-3.14-6.07-2.79-1.2-5.59-2.47-8.18-4.04-4.12-2.49-5.91-6.69-4.89-10.59,1.05-4.03,4.45-6.52,9.39-6.89,4.08-.31,8.16-.56,12.23-.94,2.56-.24,4.31-1.69,5.57-3.95,2.64-4.74,5.31-9.47,8.15-14.09.87-1.41,2.17-2.69,3.55-3.64,3.7-2.57,8.27-1.59,10.27,2.43,1.19,2.39,1.56,5.18,2.17,7.35Z" style="fill: #000; stroke-width: 0px;"/>
  <path d="M106.6,313.19c-.45-9.34,2.97-17.49,7.53-25.33,7.55-12.98,16.8-24.53,28.62-33.89,1.22-.96,2.51-1.91,3.91-2.53,2.53-1.13,5.11-1.08,7.33.82,2.36,2.02,3.01,4.7,1.93,7.48-.88,2.25-2.07,4.52-3.64,6.34-6.93,8.06-12.13,17.28-17.69,26.24-2.22,3.58-3.67,7.62-5.54,11.41-2.99,6.06-5.97,12.12-9.12,18.1-1.5,2.85-3.97,4.46-7.37,3.82-3.41-.64-4.99-3.06-5.48-6.25-.32-2.05-.32-4.14-.47-6.21Z" style="fill: #000; stroke-width: 0px;"/>
  <path d="M380.51,247.1c1.72.9,3.85,1.42,5.08,2.77,2.38,2.61,4.39,5.6,6.3,8.58,1.6,2.5,2.92,5.19,4.26,7.84,1.28,2.53,3.21,4.07,6.04,4.35,3.25.32,6.52.55,9.78.82,1.33.11,2.69.11,4,.35,3.57.65,6.15,2.64,7.32,6.12,1.16,3.44.42,6.82-2.3,8.97-3.1,2.44-6.7,4.33-10.28,6.06-3.85,1.85-4.35,2.43-3.22,6.65,1.41,5.24,2.87,10.47,4.33,15.7,1.79,6.41-1.21,12.36-7.11,13.74-3.94.93-7.34-.48-10.26-3.09-3.37-3.01-5.38-6.97-6.9-11.08-1.86-5.01-3.35-10.16-4.86-15.3-2.39-8.13-4.63-16.31-7-24.45-1.69-5.8-3.54-11.6-3.02-17.71.2-2.36,1.08-4.76,2.13-6.91,1.01-2.05,3.12-2.88,5.71-3.41Z" style="fill: #000; stroke-width: 0px;"/>
  <path d="M467.42,313.47c-.29,2.35-.39,4.75-.92,7.04-.65,2.83-2.51,4.76-5.48,5.2-2.95.44-5.34-.81-6.78-3.35-2.67-4.72-5.74-9.34-7.57-14.4-3.48-9.64-8.64-18.28-14.26-26.71-3.34-5-7.02-9.78-10.5-14.69-1.28-1.82-2.59-3.66-3.56-5.64-1.57-3.21-.91-6.66,1.34-8.63,2.23-1.96,5.85-2.24,8.73-.2,3.21,2.27,6.33,4.73,9.17,7.44,10.99,10.47,19.87,22.5,26.3,36.3,2.61,5.6,3.41,11.51,3.51,17.64Z" style="fill: #000; stroke-width: 0px;"/>
  <path d="M265.06,175.66c-.33,2.11-.57,5.18-1.33,8.1-1.79,6.83-3.73,13.63-5.83,20.37-1.31,4.2-3.17,8.17-6.48,11.3-6.2,5.88-14.95,4.66-19.37-2.7-3.23-5.38-4.06-11.38-4.07-17.4-.02-13.22.4-26.45.63-39.67.05-2.68,0-5.35.06-8.03.12-5.21,3.07-7.89,8.11-8.98,10.29-2.22,16.64,3.26,21.21,11.38,4.26,7.58,6.56,15.91,7.06,25.63Z" style="fill: #000; stroke-width: 0px;"/>
  <path d="M345.06,151.78c.14,2.08.34,4.15.41,6.23.18,5.72.33,11.44.44,17.16.07,3.64-.04,7.29.08,10.94.26,7.99.42,15.97-2.55,23.58-2.59,6.63-7.59,10.09-13.6,9.37-5.3-.64-8.65-4.16-11.02-8.55-1.51-2.79-2.61-5.85-3.58-8.88-1.6-5.03-2.83-10.18-4.42-15.22-2.88-9.14-2.01-18.09,1.07-26.96,1.74-5,3.63-9.89,7.11-14.06,5.21-6.24,11.55-8.54,19.48-6.42,3.96,1.06,6.43,3.78,6.68,7.89.1,1.63.02,3.27.02,4.91-.04,0-.08,0-.13,0Z" style="fill: #000; stroke-width: 0px;"/>
  <path d="M343.17,749.93c.02,5.09-1.22,9.73-4.98,13.4-6.52,6.34-17.04,4.82-21.21-3.26-3.09-5.98-4.54-12.46-3.75-19.22,1.1-9.36,8.38-14.53,18.01-13.13,4.72.68,7.67,4.08,9.13,8.31,1.53,4.45,2.31,9.16,3.41,13.76-.21.05-.41.1-.62.15Z" style="fill: #000; stroke-width: 0px;"/>
  <path d="M230.29,749.89c1.08-4.69,1.79-9.35,3.26-13.75,2.02-6.02,6.68-8.92,12.62-8.63,7.21.35,12.53,4.09,14.09,10.55,2.01,8.36.43,16.46-4.19,23.53-5.58,8.53-18.62,7.23-22.95-2.06-1.38-2.96-1.88-6.33-2.82-9.65Z" style="fill: #000; stroke-width: 0px;"/>
</svg>