<?xml version="1.0" encoding="UTF-8"?>
<svg id="Layer_1" data-name="Layer 1" xmlns="http://www.w3.org/2000/svg" viewBox="0 0 900 899.26">
  <path d="M900,249.88c-1.25,17.5-2.79,36.36-3.91,55.25-1.65,27.84-2.89,55.7-4.53,83.54-2.13,36.27-4.62,72.51-6.65,108.79-.72,12.82-2.06,25.47-4.99,37.98-2.88,12.27-8.03,23.16-17.75,31.55-1.25,1.08-2.37,2.34-3.43,3.61-5.44,6.47-12.27,10.64-20.36,13.05-11.54,3.44-16.04,16.22-9.23,26.34,2.77,4.12,6.18,7.82,9.36,11.66,3.75,4.53,8.02,8.69,11.24,13.56,6.16,9.32,7.93,19.9,6.69,30.89-1.96,17.54-4.3,35.04-6.14,52.59-.51,4.9.03,9.93.33,14.88.64,10.45,1.93,20.88,2.05,31.33.14,11.74-4.42,22.51-8.93,33.13-9.44,22.21-22.88,41.84-40.86,57.82-7.7,6.85-17.05,12.4-26.51,16.61-18.2,8.11-36.96,14.98-55.59,22.11-13.35,5.11-27.15,5.13-41.24,3.56-17.14-1.92-34.38-2.93-51.58-4.31-17.21-1.38-34.4-2.95-51.63-4.03-27.11-1.7-54.22-.88-81.29,1-3.14.22-6.17,1.7-9.31,2.15-7.93,1.13-15.89,2.6-23.86,2.74-4.06.07-8.17-3.46-12.26-3.46-4.08,0-8.16,3.44-12.25,3.47-7.34.06-14.71-1.12-22.03-2.12-6.3-.87-12.49-2.9-18.8-3.24-31.44-1.7-62.86-2.43-94.26,1.44-12.41,1.53-25.03,1.17-37.52,2.15-17.33,1.36-34.64,3.13-51.94,4.84-8.88.88-17.7.74-26.26-1.79-26.19-7.74-51.54-17.67-75.71-30.41-10.17-5.36-18.67-12.93-26.03-21.8-12.98-15.64-23.95-32.4-31.74-51.35-7.33-17.83-8.48-36.01-5.45-54.6,1.54-9.49,1.45-18.7.08-28.19-2.2-15.31-3.77-30.72-5.17-46.14-1.35-14.83,3.26-27.66,13.89-38.37,4.49-4.53,8.44-9.6,12.45-14.57,5.65-6.98,4.99-14.57,1.09-21.93-1.12-2.12-3.73-4.03-6.07-4.86-26.02-9.23-40.66-27.87-46.02-54.54-4.13-20.55-4.44-41.45-5.82-62.22-2.35-35.23-3.91-70.51-6-105.76-1.97-33.33-5.02-66.62-5.97-99.97-.56-19.73,1.67-39.57,3.3-59.31,1.99-24.11,5.53-47.99,11.16-71.6,5.82-24.39,19.42-42.9,38.39-58.9,22.96-19.35,50.62-25.5,78.58-31.24,23.89-4.91,47.89-3.67,71.57,1.9,9.47,2.23,18.65,5.49,25.97,12.54.87.84,3.43.78,4.74.16,37.77-17.93,77.28-31.31,117-43.9C374.25,4.48,398.66.97,423.34.13c7.72-.26,15.29.36,22.58,3.42,1.94.81,4.77.9,6.7.12,10.97-4.47,22.33-3.99,33.7-3,34,2.96,66.83,10.82,98.6,23.37,15.82,6.25,32.02,11.53,47.86,17.72,10.7,4.18,21.05,9.26,31.65,13.73,1.59.67,4.41,1,5.39.1,7.24-6.67,16.06-10.12,25.29-12.3,25.61-6.04,51.41-6.92,77.22-1.16,10.61,2.37,21.1,5.27,31.66,7.84,16.34,3.98,29.72,13.29,42.75,23.38,19.33,14.98,31.9,34.05,37.69,57.98,5.86,24.22,9.08,48.78,11.5,73.49,1.42,14.51,2.63,29.04,4.07,45.04ZM207.97,71.7c-7.55-3.62-14.69-5.29-22.07-6.32-16.48-2.3-33-1.62-49.4.12-26.64,2.83-51.95,9.06-72.95,27.74-12.75,11.34-21.82,24.04-25.21,40.89-3.94,19.63-5.88,39.43-7.07,59.39-2.66,44.4-2.66,88.74,1.7,133.04,2.87,29.15,6.28,58.29,7.99,87.51,1.37,23.47.54,47.07.68,70.61.09,15.13.69,30.24,4.53,44.95,1.47,5.63,3.78,11.13,6.45,16.3,1.13,2.19,3.97,4,6.43,4.9,5.26,1.94,10.73,3.39,16.21,4.67,7.56,1.76,13.82,5.53,18.39,11.69,3.57,4.81,6.88,9.88,9.73,15.14,3.57,6.61,4.56,13.91,3.02,21.26-1.13,5.36-2.84,10.62-4.69,15.79-3.98,11.11-12.06,18.89-21.66,25.14-9.55,6.22-13.9,14.03-11.5,25.89,2.65,13.14,3.87,26.56,5.84,39.84,1.59,10.72-.12,21.15-2.28,31.59-1.93,9.31-3.56,18.83-.61,28.11,7.63,24.01,20.75,44.64,41.07,59.73,21.25,15.78,45.31,26.09,71.42,30.46,44.06,7.38,88.4,7.12,132.74,2.59,23.25-2.38,46.48-2.86,69.71-.36,19.41,2.09,38.46,7.24,58.25,6.2,14.91-.78,29.89.58,44.71-2.62,28.15-6.07,56.76-7.03,85.18-3.87,34.62,3.86,69.18,4.05,103.84,2.43,18.31-.86,36.5-3.01,54.08-8.52,36.24-11.34,67.54-29.27,85.99-64.49,6.58-12.55,12.04-25.22,9.99-39.83-.62-4.43-1.29-8.87-2.31-13.22-2.89-12.31-2.48-24.49-.18-36.91,2.31-12.43,3.47-25.07,5-37.64.51-4.17,0-8.31-3.12-11.47-2.69-2.72-5.44-5.49-8.59-7.6-11.66-7.81-19.52-18.03-24.45-31.44-7.65-20.84,1.46-38.23,16.67-52.24,2.6-2.4,6.39-3.74,9.86-4.9,5.93-2,12.16-3.15,18.01-5.32,2.77-1.03,5.66-3.12,7.29-5.55,5.11-7.6,7.19-16.53,7.92-25.42,1.35-16.42,2.44-32.92,2.41-49.38-.07-34.32.18-68.59,4.41-102.7,6.54-52.66,10.16-105.44,7.13-158.54-1.42-24.79-2.55-49.55-7.59-73.99-3.49-16.9-11.36-30.71-24.96-41.43-12.02-9.47-24.21-18.23-39.46-22.17-22.12-5.71-44.56-8.3-67.27-7.53-10.26.35-20.46,2.74-30.64,4.44-2.48.42-4.81,1.78-7.43,2.79.68,1.19.83,1.75,1.19,2.03,7.55,5.81,12.7,13.57,17.72,21.48,2.91,4.58,3.31,8.41.59,11.2-2.61,2.68-6.25,2.72-10.87-.24-4.95-3.18-9.71-6.65-14.62-9.89-28.3-18.65-57.62-34.98-90.67-44.17-31.3-8.71-62.85-15.33-95.31-17.4-14.3-.91-28.59-1.91-42.88-2.88-3.05-.21-6.12-.84-9.13-.63-8.67.58-17.32,1.46-25.98,2.28-20.49,1.95-41.1,3.03-61.42,6.09-51.24,7.7-99.28,24.31-142.24,54.07-6.62,4.59-13.32,9.07-20.11,13.41-3.02,1.93-6.37,2.19-9.19-.55-2.67-2.6-2.73-5.9-.91-8.83,4.99-8.01,9.57-16.39,17.31-22.3,1.07-.81,1.89-1.94,3.32-3.44Z" style="fill: #000; stroke-width: 0px;"/>
  <path d="M139.14,269.63c1.13-2.18,1.73-3.37,2.37-4.55,5.25-9.66,10.04-19.6,15.87-28.89,5.95-9.47,14.25-16.41,25.85-18.24,7.58-1.2,14.77.3,21.68,3.39,2.03.91,3.55,1.03,4.79-1.24,9.57-17.54,25.52-24.24,44.35-25.78,7.5-.61,14.81.13,21.4,4.46.69.46,3.02-.21,3.51-1.01,5.46-8.96,13.72-13.7,23.69-15.42,6.27-1.08,12.7-1.64,19.06-1.7,10.5-.09,19.78,3.54,27.59,10.7.81.74,1.73,1.37,3.34,2.63.14-1.96.3-3.1.3-4.25-.01-4.85-.52-9.75-.04-14.55,1.61-15.84,9.64-27.48,24.4-33.58,15.26-6.31,29.87-3.51,42.72,6.28,13.64,10.38,19.55,25.35,21.42,41.87.65,5.73.45,11.88-.9,17.46-3.89,16.11-25.58,24.6-39.71,15.92-4.84-2.97-7.7-7.45-8.37-13.13-.65-5.55,2.43-8.46,7.98-7.88,3.93.42,7.86.88,11.8,1.05,3.5.15,5.06-1.75,4.91-5.28-.45-10.6-3.34-20.47-9.29-29.25-5.72-8.45-18.27-9.83-25.18-2.83-1.34,1.36-2.25,3.79-2.25,5.73-.02,8.68.67,17.37.55,26.05-.33,22.21-1.33,44.42-1.34,66.63,0,18.02,1.2,36.03,1.59,54.05.62,28.4-4.8,55.51-18.47,80.63-22.21,40.83-68.76,61.03-113.63,49.04-23.18-6.2-44.63-16.38-63.99-30.7-20.28-15-32.87-35.4-41.17-58.82-11.94-33.66-19.74-68.3-24.5-103.63-2.56-19-4.57-38.07-6.57-57.14-.98-9.35,1.39-18.39,4.42-27.07,2.94-8.43,16.9-15.24,27.39-14.01,2.51.29,5.07.89,7.4,1.87,10.87,4.55,21.69,23.25,20.42,35-.92,8.54-6.61,15.12-14.53,16.81-8.3,1.78-16.21-3.19-18.14-11.4-1.25-5.3,1.19-8.84,6.53-9.48,1.14-.14,2.53.1,3.36-.48.9-.62,2.04-2.28,1.77-2.97-1.3-3.31-2.69-6.69-4.72-9.58-2.8-3.97-8.58-3.64-10.84.72-1.6,3.08-2.66,6.71-2.96,10.17-2.29,26.59.68,52.88,4.99,79.07.12.72.47,1.4,1.14,3.34ZM356.48,290.55c-.22,0-.45,0-.67,0,0-4.09-.03-8.19,0-12.28.05-5.41-.07-5.45-5.32-4.82-24.2,2.89-46.99,10.71-68.5,21.6-38.3,19.39-72.32,44.84-102.08,75.88-2.05,2.14-2.24,3.88-.43,6.32,11.48,15.54,26.16,27.23,43.04,36.35,2.96,1.6,3.47.21,3.58-2.46.22-5.1.58-10.2,1.05-15.29.46-4.97-.83-9.11-5.02-12.1-1.98-1.41-4.06-2.69-5.95-4.21-4.28-3.44-3.88-8.25.92-10.89,4.53-2.49,9.37-2.76,14.08-.79,3.29,1.37,4.31.15,4.97-2.83,1.52-6.81-.34-11.81-6.2-15.9-4.41-3.08-4.67-7.59-.22-10.66,2.11-1.46,4.82-2.47,7.37-2.8,5.67-.73,10.04,2.03,13.84,6.06.94,1,3,2.07,4.01,1.68,6.18-2.37,9.35-8.66,8.1-15.25-.24-1.26-.58-2.5-.77-3.76-.84-5.49,2.11-8.9,7.7-8.94,7.23-.06,14.52,5.27,15.04,13.21.48,7.31,4.35,8.51,9.92,9,.51.04,1.01.19,1.51.26,4.6.58,6.13-.58,6.29-5.31.12-3.83-.19-7.67-.28-11.5-.16-6.5,3.8-9.17,9.73-6.52,1.39.62,2.72,1.44,3.93,2.37,9.77,7.55,10.96,22.6,2.7,33.48-3.28,4.33-3.17,5.05.62,8.96,2.19,2.26,3.78,1.7,5.06-.77,1.41-2.72,2.63-5.55,4.03-8.28,1.39-2.73,3.27-5.05,6.65-5.06,3.53-.01,5.48,2.43,7.01,5.21,4.36,7.89,2.9,19.28-3.32,26.21-4.36,4.86-4.41,4.89-1.38,10.82.65,1.27,1.8,2.28,2.72,3.41,1.02-1.06,2.27-1.97,3.01-3.2,9.41-15.49,13.81-32.46,13.96-50.45.13-15.59-.42-31.18-.67-46.78ZM296.21,425.05c9.65-2.84,17.13-6.83,23.84-12.19.83-.66.86-3.49.18-4.71-5.47-9.82-10.93-19.67-16.98-29.14-2.77-4.35-6.45-8.33-10.42-11.66-9.09-7.62-20.09-7.1-28.11,1.68-4.05,4.44-7.56,9.83-9.75,15.4-3.6,9.12-6.03,18.72-8.76,28.17-3.15,10.89-3.06,10.92,8.19,13.52q6.91,1.6,5.35-5.06c-2.8-11.94,4.01-25.13,14.64-28.37,7.74-2.36,14.61,1.06,16.99,8.59,2.35,7.44,7.28,14.25,4.83,23.75Z" style="fill: #000; stroke-width: 0px;"/>
  <path d="M547.08,193.33c1.66-1.34,3.31-2.71,4.99-4.03,5.22-4.12,11.07-6.95,17.65-7.96,11.59-1.79,22.99-.72,34.05,3.12,6.46,2.25,11.73,6.31,15.28,12.24,1.57,2.62,2.84,3.42,5.67,1.5,2.17-1.46,4.83-2.61,7.4-2.99,20.11-2.94,37.83,1.75,51.93,17.11,1.71,1.87,3.31,4.01,4.33,6.3,1.61,3.63,3.58,3.66,6.93,2.24,15.95-6.76,30.96-3.12,42.24,10,1.75,2.03,3.52,4.12,4.82,6.44,5.09,9.16,10,18.43,14.96,27.66.64,1.18,1.21,2.4,2.74,3.55.31-.99.73-1.97.9-2.98,3.96-24.42,6.85-48.92,5.23-73.73-.25-3.81-.7-7.66-1.6-11.36-.81-3.31-2.64-6.18-6.56-6.68-4.02-.52-6.06,2.03-7.74,5.1-.43.79-.83,1.59-1.21,2.4q-3.12,6.74,4.21,8.19c4.44.88,6.55,4.08,5.78,8.8-1.67,10.31-13.54,15.56-23.05,10.19-7.28-4.11-11.21-12.62-9.33-21.39,1.83-8.52,5.65-16.22,11.61-22.61,9.09-9.74,23.6-10.61,34.57-2.97,6.08,4.24,9.43,9.49,10.98,16.71,2.07,9.65,2.5,19.07.98,28.9-1.84,11.98-1.91,24.24-3.76,36.22-3.34,21.61-6.63,43.29-11.46,64.6-5.02,22.18-11.24,44.14-20.57,65.04-11.91,26.69-32.13,45.16-57.62,58.37-15.95,8.27-32.42,15.38-50.21,18.58-42.11,7.56-84.61-13.25-105.23-51.35-14.21-26.26-19.89-54.59-18.02-84.12,1.55-24.45,1.76-48.81.51-73.24-.42-8.17-.41-16.37-.38-24.56.06-15.03.38-30.05.32-45.08,0-2.04-1.05-4.6-2.49-6.01-6.8-6.65-18.85-5.34-24.64,2.85-6.37,9.01-9.18,19.33-9.49,30.33-.08,2.82,1.38,4.44,4.17,4.35,3.82-.12,7.65-.35,11.43-.86,6.67-.9,10.05,2.51,8.79,9.12-1.59,8.34-9.25,14.62-18.47,15.13-17.99.99-30.61-10.58-30.68-28.61-.07-16.97,4.84-32.41,16.48-45.05,12.97-14.08,32.93-18.13,49.53-10.67,15.95,7.17,24.79,23.48,23.29,42.96-.2,2.6-.3,5.2-.45,7.81.39.15.78.29,1.18.44ZM541.51,324.08c-.16,0-.32.01-.48.02.58,8.55.93,17.11,1.78,25.63,1.4,14.12,6.22,27.13,13.69,39.14.6.96,2.74,2.11,3.25,1.78,3.79-2.48,4.35-9.68,1.25-12.91-6.98-7.29-8.81-19.12-4.23-27.41,3.63-6.58,9.47-6.8,13.27-.38,1.63,2.74,2.73,5.79,4.35,8.53.61,1.04,2.08,2.31,3.07,2.25,3.63-.23,5.5-5.98,3.71-9.12-2.43-4.27-5.03-8.71-6.1-13.41-2.19-9.62,3.02-19.61,11.27-23.48,6.05-2.84,10.12-.21,10.04,6.49-.05,3.96-.35,7.94-.13,11.88.25,4.38,1.64,5.39,5.92,4.86,2.28-.28,4.52-.97,6.8-1.19,3-.29,4.06-1.79,4.25-4.75.36-5.88,2.59-11.01,7.8-14.24,3.98-2.46,8.39-3.7,12.68-1,4.22,2.65,3.13,6.88,2.24,10.78-1.28,5.57.17,9.98,4.79,13.53,4.44,3.41,4.33,3.55,8.49-.58,5.54-5.51,13.53-6.6,19.25-2.6,4.88,3.41,4.9,8.02.05,11.47-5.48,3.91-7.4,9.63-5.63,16.15.73,2.69,1.84,3.55,4.64,2.42,5.01-2.03,10.06-1.81,14.74,1.08,4.01,2.48,4.44,6.81.96,9.98-1.88,1.71-4.08,3.07-6.18,4.53-4.2,2.93-5.75,6.93-5.29,11.96.48,5.21.76,10.45,1.05,15.67.19,3.47.81,3.96,3.86,2.32,16.51-8.93,30.92-20.37,42.33-35.44,2.35-3.1,2.04-5.1-.61-7.84-14.89-15.4-30.97-29.37-48.26-42.03-25.2-18.44-51.46-34.81-81.29-44.88-13.51-4.56-27.17-8.21-41.32-9.95-2.31-.28-4.36-.65-4.46,2.81-.44,15.98-1,31.95-1.52,47.93ZM601.89,420.18c.21-8.57,4.63-15.79,7.83-23.36.68-1.6,2.98-2.77,4.78-3.59,6.54-2.98,14.97-.25,19.93,6.48,5.36,7.28,6.79,15.35,3.89,23.96-1.03,3.05-.08,3.87,2.75,3.19,3.97-.97,7.98-1.86,11.81-3.24,1.02-.37,2.31-2.59,2.04-3.56-2.96-10.84-5.96-21.69-9.46-32.37-2.52-7.7-6.36-14.8-12.7-20.22-7.97-6.82-17.72-7.21-25.94-.69-2.97,2.36-6.04,4.99-8.04,8.14-7.04,11.1-13.63,22.47-20.39,33.75-1.34,2.23-.59,4,1.49,5.16,5.79,3.23,11.54,6.57,17.5,9.44,4.34,2.09,4.68,1.66,4.5-3.09Z" style="fill: #000; stroke-width: 0px;"/>
  <path d="M98.49,736.64c.6-15.4-2.33-31.32-6.35-47.14-1.73-6.8-3.34-13.7-4.18-20.65-1.56-12.98,3.73-22.89,14.82-29.74,1.31-.81,2.66-1.54,3.96-2.35,9.18-5.72,15.2-13.56,16.47-24.58,2.04-17.74.06-34.7-9.41-50.32-4.55-7.5-10.58-12.84-19.04-15.76-26.21-9.05-34.33-37.85-16.86-59.29,6.25-7.67,14.63-10.88,24.26-11.21,1.62-.06,3.33.31,4.88.83,3.33,1.12,5.97,3.06,6.18,6.98.2,3.8-2.12,5.9-5.3,7.16-2.84,1.13-5.72,2.27-8.69,2.95-4.99,1.14-6.34,2.37-7.11,7.51-1.7,11.39,3.93,22.99,13.7,29.25,5.99,3.84,12.76,7.3,17.21,12.6,20.98,24.96,28.72,53.34,18.36,85.09-2.04,6.26-5.94,12.32-10.28,17.34-8.98,10.37-12.25,21.95-10.06,35.22,1.75,10.6,4.14,21.1,5.62,31.73,2.09,15.07,3.41,30.24,5.41,45.33,2.03,15.29,9.03,27.82,21.77,36.91,5.1,3.64,10,7.56,15.11,11.18,18.78,13.33,40.13,16.08,62.24,14,6.07-.57,12.23-3.65,17.67-6.77,6.49-3.73,9.48-10.23,9.52-17.8.04-7.34-4.3-11.83-11.56-11.05-4.17.44-8.26,2.34-12.19,4.03-2.54,1.1-4.7,3.08-7.1,4.54-4.06,2.48-7.06,1.99-10.17-1.51-.34-.38-.58-.96-1-1.15-6.86-3.08-5.19-8.6-3.75-13.79,1.99-7.22,6.63-12.61,13.59-15.18,16.04-5.92,31.6-3.65,45.11,6.29,12.02,8.85,15.03,27.53,8.63,43.73-7.21,18.26-21.77,28.07-40.08,31.64-28.84,5.62-56.52,2.08-81.69-14.42-3.74-2.45-7.44-4.99-11.31-7.24-20.11-11.73-33.69-29.11-43.31-49.91-4.41-9.53-5.3-15.95-5.06-34.43Z" style="fill: #000; stroke-width: 0px;"/>
  <path d="M680.63,845.21c-17.12-.25-33.28-3.57-47.18-14.43-15.68-12.25-21.84-34.43-14.31-52.12,3.02-7.1,7.76-12.76,15.02-15.66,10.22-4.07,20.79-6.44,31.88-4.24,12.64,2.51,20.82,11.78,21.21,23.77.09,2.81-.58,5.04-3.28,6.35-.57.27-1.1.67-1.57,1.09-6,5.47-6.88,5.53-13.72.89-5.1-3.45-10.16-6.97-16.71-7-6.63-.04-10.42,2.98-11.23,9.56-.86,6.97,1.6,12.9,6.76,17.55,6.53,5.89,14.47,8.78,23.1,9.22,23.95,1.23,46.39-3.14,65.54-18.82,2.47-2.02,5-4,7.64-5.8,14.05-9.56,21.41-23.09,23.46-39.67,1.7-13.84,2.83-27.75,4.74-41.55,1.68-12.15,4.23-24.18,6.15-36.3,1.87-11.83-1.49-22.12-9.3-31.28-16.74-19.67-19.09-42.5-12.82-66.48,2.3-8.8,6.58-17.18,10.71-25.37,5.34-10.59,13.97-18.18,24.47-23.6,6.43-3.32,10.76-8.51,13.6-15.07,2.31-5.34,2.79-10.87,1.67-16.54-.68-3.45-2.45-5.48-6.29-6.16-3.71-.66-7.41-2.04-10.78-3.78-5.14-2.65-5.53-8.9-.48-11.67,3.13-1.72,7.33-2.52,10.92-2.22,12.07,1.04,20.54,7.72,26.07,18.35,9.9,19.02,1.64,43.55-18.5,50.4-16.15,5.49-24.05,17.05-28.91,31.76-3.95,11.94-4.48,24.35-2.63,36.82,1.54,10.36,7.04,18.24,15.95,23.22,18.14,10.13,21.94,22.34,17.62,42.29-2.84,13.12-5.83,26.21-8.14,39.43-1.07,6.12-1.25,12.53-.89,18.74,1.96,33.28-14.3,57.48-38.71,77.31-8.4,6.82-17.89,12.36-27.21,17.94-13.96,8.37-33.93,12.95-53.86,13.07Z" style="fill: #000; stroke-width: 0px;"/>
  <path d="M337.45,555.55c-.32-7.97,3.58-15.85,7.79-23.7,6.48-12.08,13.41-23.73,22.96-33.83,7.32-7.74,9.4-17.63,7.98-28.24-.7-5.28-.92-10.61-1.55-15.9-.17-1.47-.96-2.89-1.6-4.26-6.79-14.41-.35-33.47,13.85-40.59,6.83-3.42,13.92-4.04,20.44.38,2.57,1.74,4.86,4.68,6.01,7.58,2.48,6.26-2.15,11.97-8.89,11.61-1.26-.07-2.53-.37-3.76-.7-9.28-2.43-16.47,4.72-14.16,14.19.48,1.97,1.39,3.84,2.16,5.74,8.89,21.89,7.52,43-4.96,63.17-6.53,10.55-13.39,20.89-20,31.4-3.84,6.1-4.98,12.82-3.76,19.91,1.62,9.39,8.13,11.44,16.27,9.65,1.62-.36,3.73-2.85,3.89-4.51.28-3.02-.52-6.21-1.32-9.22-.44-1.66-1.89-3.02-2.7-4.61-2.52-4.91-1.66-9.87,2.13-12.85,3.61-2.84,9.88-2.62,13.27,1.37,2.99,3.53,5.32,7.77,7.26,12,1.39,3.04,2.49,4.15,5.95,2.85,9.96-3.76,18.87-1.69,26.41,5.82,2.53,2.52,4.67,5.44,7.17,7.99,7.53,7.65,15.47,7.5,22.72-.36,1.82-1.97,3.54-4.04,5.3-6.07,7.61-8.73,17.53-11.35,28.41-7.21,2.94,1.12,3.98.2,5.15-2.43,1.75-3.93,3.66-7.93,6.28-11.29,3.8-4.86,10.29-5.85,14.35-2.93,4.35,3.13,4.95,8.68,1.54,14.48-.65,1.1-1.41,2.14-2.04,3.25-2.9,5.11-2.1,11.52,1.64,13.47,5.28,2.75,13.73.19,15.86-5.17,3.42-8.58,2.15-16.92-2.6-24.62-6.24-10.12-12.86-20.02-19.22-30.08-12.99-20.55-14.77-42.1-5.28-64.46,2.15-5.08,3.32-9.93.4-15.04-2.52-4.42-5.92-5.94-10.94-4.85-1.99.43-4,1.08-6.01,1.12-6.54.15-10.68-5.68-8.35-11.8,2.57-6.76,7.94-9.79,14.85-10.29,5.72-.41,10.88,1.4,15.43,4.8,12.04,8.98,16.03,25.7,9.58,39.23-.77,1.62-.78,3.63-1.03,5.47-.42,3.15-.53,6.37-1.17,9.47-2.92,14.16.7,26.33,10.79,36.62,11.62,11.84,18.69,26.58,25.02,41.48,4.91,11.55,3.28,23.84-2.13,35.04-6.86,14.19-28.03,22.54-42.86,17.59-5.11-1.7-9.31-4.66-12.58-9.02-1.2-1.59-2.78-3.02-4.44-4.13-3.64-2.42-5.53-2.26-8.24,1.23-5.75,7.4-12.99,11.19-22.5,10.93-3.24-.09-6.64,1.8-9.76,1.35-4.71-.68-9.38.28-13.81-.12-11.94-1.07-25-.31-32.9-12.54-1.88-2.91-4.65-2.96-7.37-1.15-1.58,1.05-3.22,2.22-4.33,3.71-7.35,9.91-17.31,12.71-28.89,10.49-21.05-4.04-31.65-17.6-31.74-41.41Z" style="fill: #000; stroke-width: 0px;"/>
  <path d="M504.99,731.14c-.77,1.79-1.45,3.53-2.26,5.22-1.71,3.56-3.07,7.39-5.33,10.56-4.89,6.88-11.82,9.58-20.16,7.97-8.77-1.69-17.49-3.61-26.24-5.4-.86-.18-1.81-.26-2.66-.09-7.75,1.55-15.54,2.96-23.23,4.79-13.11,3.11-22.48-1.56-27.61-14.14-1.2-2.93-2.3-5.89-3.65-9.34-1.49.88-2.51,1.54-3.59,2.1-4.63,2.44-9.1,5.29-13.94,7.18-8.73,3.41-17.03.81-22.31-6.91-7.27-10.63-10.32-22.09-4.4-34.38,6.27-13.01,16.91-20.26,31.18-21.9,8.99-1.03,17.96-.32,26.46,2.97,9.93,3.83,19.73,4.45,29.96,1.01,8.2-2.76,16.75-2.58,24.94.14,9.71,3.22,19.04,2.78,28.48-.87,8.49-3.28,17.41-4.26,26.43-3.33,15.86,1.65,27.35,9.64,33.18,24.67,4.74,12.2,1.06,23.25-6.53,33.04-5.52,7.11-13.49,8.84-22.13,5.22-5.5-2.31-10.67-5.43-16.62-8.52ZM522.31,718.97c4.24,1.19,8.57,0,10.11-2.6,1.88-3.19.52-6.03-1.55-8.42-1.83-2.1-3.89-4.15-6.24-5.61-10.44-6.51-21.6-9.18-34.05-7.12-9.91,1.64-20.04,2.92-30.04,2.71-7.48-.16-14.88-.1-22.35.01-10,.15-20.12-1.11-30.04-2.73-12.89-2.1-24.35.8-34.96,7.88-2.19,1.46-4.1,3.5-5.71,5.6-1.83,2.39-3.14,5.34-.71,8.05,2.43,2.7,5.65,3.42,9.64,2.59-.56-1.13-.76-1.89-1.23-2.41-2.57-2.9-4.01-6.09-1.94-9.77,2.15-3.81,5.91-4.23,9.74-3.74,8.09,1.04,15.16,4.31,21.09,10.02,5.61,5.4,8.17,12.27,9.69,19.63.59,2.87,1.84,3.63,4.82,3.01,20.62-4.24,41.28-4.25,61.89.05,2.83.59,3.92-.24,4.62-2.85,1.02-3.82,1.89-7.79,3.65-11.27,6.01-11.87,16.16-17.71,29.21-18.67,3.4-.25,6.33,1.06,7.89,4.36,1.5,3.17.49,5.96-1.59,8.52-.62.77-1.15,1.6-1.96,2.75Z" style="fill: #000; stroke-width: 0px;"/>
  <path d="M66.12,360.35c1.22-14.34-1.97-28.25-3.92-42.3-6.93-49.95-7.36-99.98-.26-149.93,2.84-19.99,9.19-38.93,22.41-54.73,10.82-12.92,24.23-22.45,40.58-27.05,5.17-1.45,10.93-1.86,16.29-1.38,19.47,1.73,32.36,24.26,24.01,41.34-4.45,9.12-13.89,12.94-23.18,9.4-4.02-1.53-6.1-4.52-5.19-7.81,1.08-3.9,4.19-4.36,7.61-4.2,4.4.21,6.34-1.12,6.66-5.44.79-10.7-3.04-15.16-12.83-14.68-28.62,1.42-46.81,16.72-54.42,46.37-4.7,18.32-5.77,37.11-7.14,55.87-2.49,34.15,1.76,67.95,4.95,101.82,2.11,22.41,3.94,44.84,5.96,67.26,1.28,14.25,4.5,28.03,10.34,41.12,1.29,2.89,2.97,5.65,4.78,8.27,1.88,2.73,4.53,3.1,7.42,1.46,1.67-.95,3.26-2.06,4.99-2.85,4.04-1.85,7.9.3,7.86,4.67-.07,7.77-2.35,14.71-9.41,19.04-6.99,4.29-14.01,3.33-20.68-.75-8.29-5.07-13.08-13.04-15.84-21.96-6.4-20.68-12.22-41.53-10.99-63.56Z" style="fill: #000; stroke-width: 0px;"/>
  <path d="M841.3,240.76c1.1,32.74-2.05,65.15-7.67,97.38-.98,5.62-1.18,11.5-.83,17.21,1.5,24.24-4,47.31-11.5,70-2.72,8.25-7.43,15.48-15,20.32-6.63,4.24-13.63,5.23-20.66,1.12-7.26-4.24-9.75-11.27-9.93-19.19-.1-4.22,3.54-6.41,7.48-4.85,1.41.56,2.67,1.49,4.01,2.24,5.03,2.84,7.86,2.54,10.36-2.71,3.67-7.7,7.37-15.6,9.33-23.83,2.65-11.14,4.16-22.63,5.3-34.06,3.05-30.55,5.44-61.16,8.46-91.71,3.74-37.78,2.95-75.43-3.63-112.8-1.71-9.69-5.01-19.4-9.28-28.28-10.66-22.16-32.95-28.23-51.23-27.91-3.81.07-6.62,1.95-7.81,5.7-1.37,4.35-2.36,8.87.69,12.82.84,1.08,3.16,1.38,4.81,1.4,4.56.04,7.2,1.4,7.88,4.52.67,3.13-1.55,6.18-5.58,7.64-8.49,3.08-16.79.24-21.71-7.44-9.84-15.34.75-38.87,19.39-42.9,10.17-2.2,19.85-.21,29.1,4.16,25.97,12.25,41.91,32.76,49.61,60.14,5.88,20.87,7.5,42.28,8.34,63.78.35,9.07.06,18.16.06,27.25Z" style="fill: #000; stroke-width: 0px;"/>
  <path d="M478.88,70.65c-.73.43-.92.47-.94.56-2.64,9.87-3.65,19.8-.35,29.71.95,2.85,3.38,4.04,6.39,3.94.51-.02,1.02-.04,1.53-.08,3.29-.27,6.91-1.24,8.9,2.51,1.98,3.72-.03,7.04-1.96,10.02-5.6,8.67-17.38,9.87-24.45,2.22-2.51-2.71-4.66-6.33-5.52-9.88-3.42-14.22-3.96-28.68-.6-42.96,2.69-11.41,12.1-16.34,23.28-12.76,2.89.92,5.64,2.4,8.29,3.92,2.55,1.45,5.02,3.11,7.28,4.98,8.15,6.76,17.39,9.34,27.88,8.12,21.22-2.46,42.14.31,62.94,4.17,5.89,1.1,11.88,2.31,17.45,4.47,26.83,10.38,53.92,20.24,79.1,34.36,6.62,3.71,12.93,8.35,18.46,13.54,8.84,8.28,9.75,20.36,3.08,30.47-4.47,6.78-11.06,9.4-18.96,7.97-7.88-1.42-13.57-5.84-15.98-13.73-.98-3.19-.33-6.22,2.6-8.18,2.78-1.86,5.6-1.2,8.25.57,1.37.91,2.79,2.45,4.19,2.45,1.9,0,4.47-.7,5.48-2.05.85-1.14.51-4.07-.43-5.43-1.4-2.02-3.61-3.65-5.79-4.91-7.18-4.16-14.26-8.66-21.83-11.98-17.33-7.61-34.89-14.69-52.41-21.84-19.39-7.92-39.85-10.05-60.52-10.63-9.45-.27-18.94-.32-28.38.22-16.14.92-29.99-3.69-41.46-15.25-1.73-1.74-3.82-3.12-5.53-4.5Z" style="fill: #000; stroke-width: 0px;"/>
  <path d="M421.01,69.79c-2.52,2.03-4.32,3.2-5.79,4.7-11.97,12.29-26.52,16.77-43.51,15.87-24.84-1.31-49.83-1.16-73.84,6.11-16.22,4.91-31.94,11.66-47.57,18.32-13.02,5.56-25.63,12.1-38.32,18.42-2.7,1.34-5.03,3.5-7.34,5.5-2.21,1.91-2.78,4.4-.86,6.82,2.03,2.56,4.63,2.35,7.21.77,1.09-.66,1.99-1.98,3.11-2.15,2.38-.38,5.39-1.09,7.11-.01,1.72,1.08,2.72,4.11,3,6.4.22,1.82-.8,4.02-1.83,5.71-4.13,6.81-10.42,10.08-18.29,9.93-7.64-.14-12.98-4.14-16.33-10.87-4.82-9.67-3.57-20.09,4.19-27.59,4.83-4.66,10.28-8.95,16.12-12.23,10.24-5.75,20.76-11.13,31.58-15.68,18.38-7.73,36.7-15.93,55.73-21.65,23.34-7.01,47.63-9.85,72.11-7.37,12.11,1.23,22.67-1.12,32.22-8.96,4.07-3.34,8.98-6.04,13.95-7.81,11.05-3.93,20.59,1.21,23.28,12.59,3.44,14.55,2.84,29.25-.73,43.7-.81,3.3-3.01,6.52-5.3,9.14-4.01,4.59-9.46,6.15-15.36,4.53-6.33-1.74-10.13-6.25-11.73-12.54-.98-3.87,1.42-6.82,5.45-6.97.51-.02,1.02.04,1.53.08,8.98.57,11.46-1.39,12.16-10.41.6-7.76.11-15.49-1.96-24.36Z" style="fill: #000; stroke-width: 0px;"/>
  <path d="M330.95,491.91c-1.24.52-2.48,1.06-3.74,1.56-8.73,3.53-16.43,1.31-21.93-6.32-.3-.41-.51-.95-.91-1.23-1.73-1.24-3.51-2.41-5.28-3.6-1.19,2.08-2.98,4.03-3.44,6.26-.63,3.08-.1,6.37-.36,9.55-.42,5.06-2.93,8.16-6.68,8.66-3.89.52-7.13-1.64-8.94-6.29-2.75-7.06-4.14-14.31-1.37-21.69,3-8,8.88-12.83,17.35-13.8,8.41-.97,14.87,2.71,19.42,9.77.55.86,1.09,1.74,1.53,2.66,1.19,2.5,3.01,2.82,4.87,1.03,2.75-2.65,5.19-5.62,7.87-8.34,3.66-3.71,6.99-7.95,11.24-10.83,9.78-6.62,20.96-2,23.98,9.43,2.13,8.06.56,15.78-4.07,22.34-6.47,9.16-13.74,17.76-20.76,26.52-1.91,2.39-4.17,4.5-6.28,6.73-13.23,13.94-16.56,30.97-15.28,49.37.42,5.99,3.7,10.71,7.48,15.22,3.76,4.49,7.19,9.27,10.58,14.05,1.55,2.19,2.26,4.8.01,7.01-2.25,2.22-4.75,1.35-7.02-.12-3.65-2.35-7.37-4.63-10.82-7.25-10.95-8.33-16.82-19.42-17.11-33.23-.45-20.87,2.88-40.84,15.44-58.23,4.26-5.89,9.24-11.26,13.87-16.89.38-.46.6-1.06.9-1.59-.18-.26-.37-.52-.55-.78Z" style="fill: #000; stroke-width: 0px;"/>
  <path d="M567.59,493.39c2.11,2.51,4.07,5.15,6.35,7.5,17.55,18.14,23.47,40.45,23.78,64.93.21,17.21-6.89,30.33-21.19,39.68-2.67,1.75-5.31,3.68-8.23,4.87-1.6.65-4.56.62-5.47-.39-1.11-1.23-1.58-4.31-.79-5.74,2.39-4.33,4.97-8.83,8.48-12.21,9.15-8.81,11.48-19.3,10.28-31.49-1.45-14.69-6.81-27.16-16.89-38.12-9.05-9.85-17.28-20.49-25.36-31.17-4.09-5.4-5.63-12.04-4.84-18.93.73-6.46,3.37-11.86,9.58-14.7,6.16-2.81,11.92-1.19,16.83,2.85,3.52,2.9,6.42,6.54,9.57,9.88,2.54,2.68,4.95,5.51,7.62,8.06,1.82,1.74,3.68,1.61,4.91-.92.33-.69.73-1.35,1.13-2.01,5.12-8.43,13.66-12.25,22.46-10.05,9.11,2.28,15.95,10.11,16,19.65.02,5.12-1.21,10.37-2.62,15.35-1.33,4.68-5.04,6.88-8.85,6.39-3.73-.48-6.36-3.74-6.73-8.62-.21-2.8.02-5.63-.18-8.43-.13-1.75-.38-3.62-1.11-5.18-1.34-2.87-4.01-3.19-6.18-.9-.96,1.01-1.7,2.23-2.52,3.37-5.56,7.71-13.12,9.93-21.89,6.45-1.12-.44-2.27-.8-3.41-1.19-.24.36-.47.72-.71,1.08Z" style="fill: #000; stroke-width: 0px;"/>
  <path d="M173.08,450.32c9.45-.23,17.86,3.01,25.5,8.24,6.75,4.62,13.03,9.97,19.94,14.31,4.46,2.8,9.52,5.03,14.62,6.31,7.25,1.82,12.92,5.45,17.08,11.47,7.74,11.19,12.4,23.12,7.1,36.77-3.87,9.97-10.59,17.26-21.42,19.59-12.19,2.63-23.64-5.9-25.03-18.29-.56-4.96,2.7-7.88,7.53-6.67,1.98.5,3.89,1.28,5.87,1.79,8.16,2.1,15.18-3.37,15.3-11.86.12-8.76-4.41-14.39-12.94-16.07-9.35-1.84-16.89-7.06-24.12-12.87-5.78-4.65-11.44-9.45-17.4-13.85-4.4-3.25-9.42-5.22-15.11-4.33-4.42.69-5.14,1.86-4.07,6.24,1.17,4.84,2.74,9.64,3.36,14.56,1.62,12.97-3.36,23.06-14.48,29.88-9.86,6.04-19.71,5.2-29.33-.8-.86-.54-1.71-1.15-2.42-1.87-2.17-2.18-3.1-4.79-1.7-7.68,1.41-2.93,4.1-3.79,7.11-3.28,2.64.45,5.19,1.37,7.82,1.9,9,1.81,15.75-3.96,15.34-13.16-.1-2.29-.57-4.56-.97-6.83-.36-2.01-.88-4-1.3-6-3.52-16.93,3.76-26.43,21.04-27.47.89-.05,1.79,0,2.69,0Z" style="fill: #000; stroke-width: 0px;"/>
  <path d="M725.86,450.26c19.56.11,27.43,9.95,23.34,29.13-.75,3.5-1.62,7-1.94,10.55-.88,9.68,6.3,15.86,15.75,13.73,2.24-.5,4.44-1.25,6.69-1.7,3.3-.66,6.27.02,7.76,3.33,1.46,3.25.26,6.11-2.42,8.15-5.68,4.33-12.11,6.64-19.33,6.02-13.69-1.17-25.96-13.43-26.13-27.17-.08-6.52,1.56-13.13,3-19.57,1.44-6.47.39-8.66-6.24-7.9-4.39.5-9.08,2.11-12.72,4.57-7.17,4.87-13.66,10.73-20.49,16.1-7.04,5.53-14.73,9.55-23.76,10.95-6.57,1.02-11.5,10.79-9.67,18.39,1.79,7.44,7.95,10.94,15.52,8.79,1.6-.45,3.15-1.06,4.75-1.5,5.05-1.4,8.34,1.38,7.88,6.61-1.03,11.64-11.86,20.21-23.43,18.54-12.72-1.84-23.95-14.48-24.85-28.53-.89-13.88,4.99-25.14,14.93-34.28,2.5-2.3,6.14-3.97,9.51-4.6,7.96-1.48,14.53-5.35,20.87-10.02,6.48-4.77,12.96-9.58,19.76-13.87,6.38-4.03,13.59-5.84,21.2-5.71Z" style="fill: #000; stroke-width: 0px;"/>
  <path d="M341.66,816.15c5.37,4.37,11.19,6.63,17.69,7.11,7.2.53,13.96-1.34,20.57-3.88,8.42-3.24,16.97-5.59,26.13-5.31,18.95.58,37.08,16.32,40.27,35.09.34,2.01,1.37,3.95,1.41,5.94.04,2.01-.12,4.82-1.36,5.83-1.43,1.15-4.42,1.45-6.25.78-2.66-.97-5.17-2.83-7.23-4.84-3.3-3.19-6.21-6.79-9.23-10.27-4.43-5.1-9.93-7.65-16.7-6.65-10.12,1.5-20.2,3.25-30.31,4.8-13.49,2.07-26.63.81-38.9-5.4-9.78-4.96-16.78-12.33-16.57-24.21.24-13.27,13.86-24.81,27.02-23.14,7.57.96,10.59,7.52,6.56,14.07-3.05,4.94-6.86,8.82-13.11,10.07Z" style="fill: #000; stroke-width: 0px;"/>
  <path d="M557.45,815.53c-6.48-.47-10.19-4.53-13.28-9.39-4.22-6.64-.98-13.37,6.82-14.15,8.8-.88,19.98,5.36,24.21,13.5,4.41,8.48,3.07,18.49-3.71,26.01-8.32,9.23-19.42,12.67-31.23,13.6-6.8.54-13.77-.1-20.59-.89-8.62-1.01-17.17-2.7-25.75-4.13-8.23-1.37-14.75,1.37-19.94,7.86-2.71,3.38-5.6,6.69-8.79,9.61-2.11,1.93-4.75,3.55-7.44,4.53-4.35,1.59-7.76-1.52-7.04-6.04,2.12-13.41,8.37-24.64,18.52-33.53,9.72-8.51,21.54-9.75,33.63-7.67,6.87,1.18,13.51,3.79,20.17,6,10.56,3.51,20.84,3.58,30.82-1.88,1.19-.65,2.3-1.44,3.44-2.17.05-.42.11-.84.16-1.26Z" style="fill: #000; stroke-width: 0px;"/>
  <path d="M311.52,711.3c1.33-8.31,2.22-16.73,4.08-24.92,2.89-12.71,10.16-22.41,21.64-28.91,2.86-1.62,5.61-3.64,7.88-5.99,1.14-1.18,1.08-3.52,1.56-5.34-1.75.39-3.74.38-5.19,1.26-1.81,1.09-3.25,2.85-4.74,4.42-2.35,2.48-5.12,3.53-8.3,2.08-3.09-1.4-3.97-4.26-3.64-7.4.69-6.54,4.99-10.18,10.7-12.3,6.17-2.3,12.14-1.95,17.15,2.84,4.47,4.28,4.47,9.52,2.52,14.93-1.89,5.25-5.43,9.39-10.06,12.26-13.32,8.27-18.24,20.84-18.8,35.7-.23,6-.36,12.04.06,18.02,1.59,23.09,20.96,42.56,44.07,44.18,4.11.29,8.33-.78,12.49-1.31,3.28-.42,6.55-1.42,9.81-1.36,4.66.09,7,3.92,5.54,8.36-1.45,4.43-4.79,7.19-8.76,9.21-10.05,5.1-20.43,5.18-30.92,1.61-28.26-9.64-46.93-36.74-47.08-67.33Z" style="fill: #000; stroke-width: 0px;"/>
  <path d="M573.11,705.82c-.64-4.88-1.14-11.66-2.49-18.27-1.8-8.85-6.6-15.91-14.1-21.19-3.32-2.34-6.56-4.99-9.2-8.04-6.66-7.7-6.6-17.17-.27-22.24,6.68-5.35,18.54-3.76,24.09,3.59,1.59,2.11,2.82,5.15,2.71,7.69-.1,2.25-1.82,5.07-3.69,6.44-2.46,1.8-5.36.6-7.63-1.52-2.14-1.99-4.21-4.1-6.58-5.78-.92-.65-2.57-.26-3.88-.34.12,1.29-.25,3.02.44,3.8,2,2.26,4.13,4.72,6.73,6.08,16.28,8.5,23.83,22.53,25.98,40.07.68,5.58,1.27,11.2,1.32,16.81.29,29.3-17.95,55.47-45.56,65.45-11.23,4.06-22.43,4.03-32.9-2.24-2.81-1.68-5.37-4.44-7-7.3-2.81-4.93,0-9.4,5.67-9.46,2.64-.03,5.38.42,7.91,1.19,29.76,9.06,55.9-18.61,57.54-39.84.34-4.33.53-8.67.91-14.91Z" style="fill: #000; stroke-width: 0px;"/>
  <path d="M517.83,643.59c-1.56-.92-2.42-1.38-3.24-1.91-2.58-1.66-4.23-3.93-3.36-7.06.94-3.41,3.64-4.92,7.03-4.73,5.16.29,9.52,2.29,11.7,7.29,2.43,5.56,1.51,10.95-2.49,15.35-1.97,2.18-4.77,4-7.54,4.99-9.27,3.31-18.59,3.63-28.15.34-5.72-1.97-11.81-3.3-17.83-3.78-3.86-.31-7.95,1.26-11.82,2.38-2.47.72-4.8,1.57-6.59-.86-1.74-2.36-.65-4.56.94-6.62,3.34-4.32,7.64-7.15,12.97-8.27,9.01-1.91,17.8-1.33,26.2,2.7,5.74,2.76,11.66,3.72,17.87,1.98,1.26-.35,2.44-1.01,4.3-1.79Z" style="fill: #000; stroke-width: 0px;"/>
  <path d="M381.09,643.62c5.83,2.96,11.24,3.29,16.78,1.74,2.57-.72,5.02-1.89,7.5-2.91,7.72-3.17,15.66-3.46,23.73-1.8,5.63,1.16,10.35,4,13.36,8.87.99,1.6,1.23,4.62.35,6.12-.63,1.07-4.1,1.53-5.65.83-9.2-4.18-18.32-3.28-27.21.27-10.09,4.04-20.11,4.47-30.35,1.14-7.75-2.52-12.13-8.25-11.94-15.48.18-7.31,5.89-12.75,13.22-12.56,3.29.08,5.74,1.58,6.64,4.78.9,3.16-.74,5.4-3.36,7.03-.82.51-1.62,1.04-3.06,1.96Z" style="fill: #000; stroke-width: 0px;"/>
  <path d="M475.19,765.21c3.02.5,6.39.66,9.52,1.64,8.98,2.79,13.88,13.82,10.2,22.48-1.4,3.3-3.7,5.65-7.55,5.43-3.92-.22-6.48-2.9-6.45-6.42.06-7.8-4.23-10.37-11.02-11.1-2.1-.22-4.33-1.02-6.06-2.2-1.27-.87-2.67-2.92-2.48-4.22.22-1.52,1.87-3.58,3.31-4.01,3.26-.97,6.77-1.09,10.52-1.6Z" style="fill: #000; stroke-width: 0px;"/>
  <path d="M402.34,782.92c.75-9.3,6.48-16.01,15.61-16.93,4.89-.49,9.95-.17,14.83.52,1.76.25,4.32,2.54,4.48,4.11.16,1.57-1.85,4.15-3.55,4.96-3.17,1.52-6.76,2.23-10.24,2.99-3.07.67-4.63,2.28-4.83,5.45-.12,1.89-.46,3.81-1.02,5.62-.9,2.91-2.9,4.83-6.03,5.12-3.32.31-5.79-1.35-7.07-4.22-1.07-2.39-1.48-5.07-2.18-7.62Z" style="fill: #000; stroke-width: 0px;"/>
  <path d="M449.53,705.07c7.91-.56,15.61.21,22.78,3.82,1.54.78,3.41,1.88,4,3.3.75,1.78,1.17,4.67.22,5.96-1.22,1.64-4.28,3.4-5.97,2.94-8.02-2.14-16.09-1.63-24.21-1.94-4.83-.18-9.33.12-13.92,1.34-6.04,1.61-9.56.5-10.84-3.19-1.31-3.76.93-7.51,6.94-9.23,6.78-1.94,13.86-2.84,20.8-4.19.07.4.14.79.2,1.19Z" style="fill: #000; stroke-width: 0px;"/>
</svg>