<?xml version="1.0" encoding="UTF-8"?>
<svg id="Layer_1" data-name="Layer 1" xmlns="http://www.w3.org/2000/svg" viewBox="0 0 361.58 900">
  <path d="M55.47,443.11c-1.28-.52-2.35-.91-3.37-1.38-6.49-2.97-13.13-5.65-19.4-9.03-4.5-2.42-7.83-6.26-10.34-10.95-2.81-5.24-6.78-9.87-9.52-15.14C2.74,387.26-.78,366.44.14,344.82c1.09-25.59,6.83-49.83,21.54-71.37,9.29-13.61,21.93-23.02,36.64-29.96,5.05-2.38,10.02-4.94,15.06-7.36,1.83-.88,2.12-1.83,1.04-3.66-15.52-26.35-12.31-61.1,8.12-83.86,5.73-6.38,12.39-11.94,18.84-17.63,1.69-1.49,2.02-2.6,1.47-4.7-4.67-17.92-5.32-36.05-1.78-54.2,2.51-12.87,8.85-24.08,17.01-34.17,12.92-15.96,29.36-27.26,48.3-34.96,9.3-3.78,18.79-4.02,28.08-.19,26.3,10.84,47.56,27.42,60.44,53.5,5.01,10.15,7.08,20.94,7.43,32.11.4,13.08-.19,26.08-4.03,38.72-.61,2.02.48,2.81,1.79,3.79,10.3,7.68,19.72,16.39,26.17,27.53,9.7,16.78,12.7,35.05,9.47,54.21-1.17,6.96-4.4,13.16-8.15,19.08-1.91,3.02-1.9,3.2,1.3,4.81,6.92,3.47,13.91,6.8,20.8,10.34,20.89,10.74,34.23,28.18,42.25,49.67,9.47,25.37,12.1,51.67,7.34,78.42-2.94,16.5-9.79,31.28-19.07,45.43-6.93,10.56-16.4,15.79-27.26,20.02-2.24.87-4.49,1.71-6.9,2.63.4.69.53,1.06.78,1.33,14.23,15.62,21.2,34.34,23.44,55.04,2.69,25,2,49.8-5.83,73.91-8.05,24.83-21.29,46.42-41.59,63.25-1.99,1.65-1.09,2.54.06,3.98,13.74,17.28,25.11,36.13,30.32,57.58,10.26,42.21,6.4,82.74-18.28,119.88-7.4,11.14-16.71,20.11-28.4,26.73-11.37,6.44-22.82,12.73-35.6,15.82-6.15,1.49-12.55,2-18.86,2.75-1.98.24-2.85,1.03-3.47,2.87-3.55,10.55-9.65,19.71-16.42,28.34-5.61,7.16-16.63,7.37-22.47.37-6.97-8.36-12.8-17.58-16.51-27.93-.82-2.28-1.68-3.57-4.39-3.71-24.99-1.26-46.16-12.26-65.7-26.74-11.58-8.59-18.68-20.95-25.23-33.57-12.99-25.01-16.33-51.64-13.98-79.39,1.66-19.65,6.7-38.09,16.69-55.23,5.72-9.83,10.76-20.05,18.61-28.46,1.19-1.27.87-2.07-.34-3.11-32.72-28.32-47.55-64.82-48.86-107.43-.48-15.63.4-31.17,4.17-46.42,3.53-14.26,10.16-26.89,19.91-37.88.44-.49.79-1.05,1.43-1.91ZM115.21,122.23c2.4-1.13,4.17-2.23,6.1-2.83,4.46-1.38,8.93-3.01,13.52-3.61,4.44-.58,8.24,2.78,8.8,6.57.62,4.21-1.34,6.71-6.57,8.15-7.55,2.08-14.37,5.67-20.98,9.76-2.03,1.25-2.16,2.45-1.14,4.56,5.45,11.27,9.17,23.14,11.39,35.45,3.43,19.01,1.22,37.69-3.57,56.19-.86,3.3-.79,3.6,2.67,3.53,7.34-.15,14.73-.04,22-.91,7.06-.85,13.96-1.53,21.02-.11,4.25.85,7.59,2.73,8.03,5.38.46,2.75-1.78,5.76-5.74,7.74-.18.09-.35.17-.53.25-9.42,4.48-19.53,5.43-29.61,4.51-13.64-1.24-27.22-3.3-40.76-5.45-4.07-.64-8.03-2.48-11.8-4.29-2.16-1.03-3.74-1.1-5.68.15-4.78,3.07-9.71,5.91-14.44,9.06-7.56,5.05-15,10.28-22.5,15.43-2.34,1.61-2.83,3.4-1.08,5.91,1.34,1.91,2.29,4.11,3.27,6.24,9.31,20.26,14.75,41.56,16.35,63.75,1.9,26.42.26,52.5-8.82,77.73-.24.68.49,2.31,1.17,2.61,2.68,1.19,5.52,1.98,8.28,3,5.23,1.92,10.53,3.68,15.63,5.91,3.5,1.53,4.92,4.62,4.13,7.28-.97,3.29-3.44,4.73-7.66,4.16-2.36-.32-4.24.16-5.77,2.01-4.42,5.36-8.85,10.72-13.29,16.06-1.37,1.65-1.28,3.23-.31,5.13,3.13,6.1,6.37,12.17,9.08,18.46,12.31,28.61,19.9,58.61,25.77,89.09,2.83,14.69,4.15,29.51,2.27,44.46-.53,4.22-.29,5.05,3.49,7.07,3.97,2.13,8.01,4.14,12.12,5.98,3.51,1.57,5.54,4.3,6.7,7.75,1.16,3.44-.57,6.19-4.17,6.49-1.59.13-3.31-.25-4.86-.74-4.48-1.42-8.87-3.11-13.36-4.45-.96-.29-2.64.09-3.28.8-2.97,3.25-5.68,6.74-8.5,10.13-.91,1.09-.83,1.83.24,2.96,2.13,2.27,4.43,4.58,5.81,7.31,3.71,7.33,7.89,14.61,10.23,22.4,6.15,20.44,12.07,41,16.91,61.79,6.56,28.18,10.55,56.69,5.25,85.7-.13.7.97,2.26,1.68,2.39,8.27,1.52,16.52,3.38,24.87,4.07,7.05.58,13.84,1.16,19.84,5.31,2.73,1.89,3.21,3.66,2.31,6.81-.42,1.48-.66,3.42-.04,4.7,2.4,5.03,4.99,10,7.87,14.77,2.26,3.73,4.19,3.68,6.47-.12,2.82-4.7,5.4-9.56,7.73-14.52.64-1.35.34-3.41-.13-4.96-.83-2.74-.39-4.84,2-6.4,4.76-3.11,9.89-4.77,15.65-5.35,9.61-.97,19.16-2.64,28.72-4.04,1.71-.25,2.9-.86,2.44-3.1-3.58-17.62-2.63-35.32-.54-53,2.91-24.71,8.93-48.79,15.87-72.6,3.64-12.48,8.22-24.73,13.22-36.73,2.23-5.37,6.56-9.85,9.81-14.82.41-.62.34-2.06-.11-2.66-2.56-3.35-5.34-6.52-7.96-9.82-1.18-1.49-2.42-1.6-4.12-.98-4.41,1.62-8.85,3.14-13.32,4.59-1.28.42-2.69.71-4.02.64-4.01-.2-5.93-3.2-4.49-6.95,1.31-3.4,3.46-5.98,6.97-7.52,4.3-1.89,8.44-4.14,12.62-6.27,2.38-1.21,3.03-3.07,2.82-5.82-.53-6.73-1.02-13.5-.82-20.24.49-16.65,4.09-32.85,7.98-48.96,7-29.03,15.3-57.62,29.9-83.95.99-1.79.85-3.37-.4-4.88-4.22-5.15-8.49-10.26-12.69-15.42-1.86-2.28-4.07-3.16-7-2.49-2.24.52-4.28,0-5.81-1.9-2.43-3.01-1.85-6.69,1.92-8.99,2.9-1.77,6.12-3.08,9.32-4.25,4.97-1.81,10.04-3.31,15.07-4.95,1.83-.59,2.32-1.48,1.58-3.52-1.62-4.4-3.13-8.89-4.19-13.45-5.2-22.45-6.54-45.19-4.15-68.08,2.39-22.81,8.19-44.7,18.88-65.14,2.05-3.92,2.11-3.86-1.12-6.8-11.28-10.28-25.38-16.25-37.86-24.69-.83-.56-2.58-.12-3.75.28-4.05,1.4-7.92,3.63-12.07,4.38-11.47,2.08-23.01,3.83-34.58,5.21-10.07,1.2-20.23,1.06-30.03-1.94-3.74-1.14-7.51-3.03-10.5-5.5-3.45-2.84-2.7-6.6,1.38-8.4,6.2-2.75,12.79-3.07,19.54-2.49,9.35.81,18.73,1.35,28.11,1.8,3.56.17,3.69-.21,2.72-3.71-8.6-31.01-6.27-61.13,7.29-90.34,1.94-4.17,2-4.16-1.89-6.54-6.55-4.02-13.39-7.35-20.88-9.27-2.74-.7-4.78-2.27-5.29-5.27-.52-3.13.69-5.57,3.15-7.43,2.53-1.93,5.53-2.32,8.41-1.51,4.5,1.28,8.86,3.03,13.27,4.62,1.07.39,2.07.94,3.02,1.38.36-.38.58-.5.61-.66.4-2.21.64-4.47,1.19-6.64.59-2.35-.08-3.78-2.19-5.07-16.64-10.15-27.7-24.88-34.67-42.86-5.33-13.76-8.12-27.85-4.88-42.6.43-1.95-.58-2.69-2.07-3.26-7.05-2.68-14.08-5.41-21.16-7.99-1.03-.38-2.42-.41-3.44-.04-7.18,2.62-14.29,5.4-21.44,8.09-1.79.67-2.28,1.74-1.87,3.64,2.22,10.18,1.53,20.3-1.12,30.28-6.15,23.12-18.03,42.22-38.81,55.07-.92.57-2,1.92-1.95,2.84.16,2.99.81,5.96,1.35,9.5ZM285.7,666.46c-.34-.05-.69-.1-1.03-.14-2.59,5.56-5.45,11.01-7.72,16.69-10.64,26.59-16.95,54.39-22.42,82.39-4.18,21.35-5.8,42.89-3.34,64.61.16,1.4.45,2.78.79,4.82,2.96-1.89,5.44-3.39,7.83-5.02,11.24-7.72,21.48-16.4,28.19-28.6,1.12-2.03,1.53-3.85.73-6.1-.92-2.58-1.62-5.25-2.17-7.93-2.88-13.87-2.48-27.89-1.24-41.86,1.63-18.35,3.73-36.66,9.89-54.2.31-.89.56-2.01.32-2.87-2.19-7.75-5.26-15.12-9.83-21.78ZM109.47,834.85c.32-1.7.52-2.53.62-3.37,1.72-14.07,1.66-28.16.25-42.25-2.6-25.95-8.89-51.14-15.74-76.21-4.06-14.87-9-29.43-16.18-43.13-.64-1.23-1.48-2.35-2.66-4.2-2.3,4.52-4.26,8.33-6.19,12.15-3.2,6.33-3.73,12.35-1.51,19.61,6.01,19.67,8.04,40.12,8.78,60.64.46,12.78-.16,25.47-4.28,37.78-.45,1.34-.01,3.31.68,4.65,6.09,11.84,15.8,20.32,26.42,27.89,3,2.14,6.17,4.05,9.84,6.44ZM44.12,421.71c6.58-28.46,9.96-56.98,5.91-86.03-2.53-18.14-9.13-35.05-15.24-52.5-.83.68-1.26.93-1.55,1.28-5.01,6.12-9.02,12.83-11.41,20.39-.44,1.4-.39,3.16,0,4.6,2.94,11.08,3.75,22.39,3.86,33.78.15,15.15-1.76,30.09-4.34,44.98-.43,2.48-.2,5.3.52,7.72,3.4,11.36,12.26,18.34,20.97,25.4.27.22.71.21,1.3.38ZM317.5,422.37c3.36-2.89,6.14-5.34,8.98-7.71,5.99-5.01,10.62-11.02,13.03-18.49.69-2.15.95-4.62.69-6.85-1.16-9.82-3.01-19.58-3.8-29.43-1.37-17.05-1.1-34.08,3.28-50.81.42-1.59.33-3.66-.36-5.12-2.56-5.38-5.39-10.63-8.28-15.84-.96-1.73-2.41-3.2-3.68-4.86-3.36,3.93-14.34,40.56-16.07,53.56-3.8,28.65-.49,56.8,6.21,85.54ZM276.89,617.19c.83-.48,1.31-.62,1.61-.95,7.72-8.6,15.94-16.87,20.94-27.48,1.33-2.81,2.11-6.12,2.19-9.23.65-23.9,4.63-47.14,13.06-69.58.67-1.79,1.33-3.87,1.07-5.69-1-7.06-2.35-14.08-3.65-21.1-.18-.95-.76-1.83-1.47-3.43-.87,1.8-1.36,2.83-1.86,3.86-12.31,25.82-20.35,53.01-25.94,80.99-3.23,16.16-6.49,32.3-6.26,48.9.02,1.12.18,2.24.3,3.71ZM50.53,480.54c-.26.44-.63.81-.7,1.23-1.44,7.88-2.92,15.75-4.18,23.66-.21,1.34.43,2.89.94,4.25,8.59,22.8,12.67,46.42,13.12,70.73.04,2.27.56,4.71,1.51,6.77,5.19,11.33,13.75,20.17,21.99,29.23.21.24.64.28.98.42,5.76-17.17-20.19-122.29-33.64-136.29ZM103.76,149.52c-5.36,4.62-10.03,9.45-13.75,15.13-.44.68-.15,2.06.18,2.98.94,2.57,2.34,4.99,3.08,7.6,3.2,11.35,5.1,22.94,5.71,34.73.35,6.63-.35,13.14-3.61,19.1-.93,1.7-.17,2.57,1.3,3.17,3.89,1.6,7.82,3.12,11.68,4.77,2.4,1.02,3.48.12,3.79-2.25,1.48-11.05,3.51-22.06,4.33-33.17,1.33-18.02-5.24-34.46-11.67-50.82-.13-.33-.48-.58-1.04-1.24ZM257.65,149.47c-.58.72-.92.98-1.04,1.32-1.8,4.76-3.48,9.57-5.36,14.3-9.29,23.29-7.11,46.84-1.79,70.49.39,1.71,1.24,2.34,2.94,1.65,4.08-1.65,8.16-3.29,12.25-4.92,1.89-.75,1.88-1.78,1.25-3.67-1.41-4.23-3.03-8.59-3.25-12.97-.3-6.11.2-12.34,1.07-18.41,1.47-10.24,2.69-20.61,7.69-29.99.39-.72.42-2.08,0-2.72-3.75-5.64-8.38-10.48-13.76-15.07ZM147.63,27.09c-.41-.17-.81-.34-1.22-.51-3.43,2.39-6.89,4.73-10.24,7.22-.59.44-1,1.5-1,2.28-.02,9.19-3.09,17.35-8.71,24.43-3.88,4.89-8.48,9.21-12.56,13.95-1.26,1.46-2.57,3.47-2.62,5.26-.2,6.34.12,12.7.3,19.04.02.7.4,1.39.77,2.6,3.62-3.41,7.01-6.35,10.11-9.57,14.53-15.14,22.89-33.26,25.48-54.02.44-3.5-.17-7.12-.3-10.69ZM249.26,101.01c.25-.87.57-1.51.59-2.15.21-5.95.37-11.9.52-17.86.08-3.05-1.31-5.24-3.54-7.34-3.62-3.41-7.04-7.08-10.22-10.92-6.41-7.74-10.45-16.47-10.35-26.78,0-.55-.13-1.34-.5-1.61-3.61-2.69-7.29-5.29-11.1-8.03-6.76,18.14,13.46,61.25,34.59,74.69Z" style="fill: #000; stroke-width: 0px;"/>
  <path d="M196.21,383.08c-3.62-.31-7.81-.72-12-1.01-2.14-.15-4.3-.15-6.45-.09-6.84.18-13.84,1.44-20.49.42-10.89-1.68-21.86-3.93-32.22-7.59-11.54-4.07-17.24-13.63-18.41-25.79-.69-7.13.38-14.03,2.24-20.92.95-3.52,1.09-7.27,1.46-10.93,1.35-13.13,4.63-25.37,16.21-33.44,5.92-4.13,12.92-5.59,19.9-5.07,8.56.64,17.09,2.15,25.52,3.81,5.79,1.14,11.36,1.36,17.14.04,6.49-1.49,13.07-2.62,19.65-3.62,6.59-1,13.1-.26,19.47,1.7,6.46,1.98,11.67,5.81,15,11.61,4.93,8.59,8.32,17.68,7.7,27.93-.17,2.73.8,5.59,1.6,8.3,2.42,8.23,3.26,16.52,1.54,24.98-2.22,10.92-8.67,18.7-19.06,22.05-12.36,3.98-25.06,7.04-38.79,7.64ZM222.85,321.86l.06-.76c-1.77-1.19-3.44-2.58-5.33-3.5-.99-.48-2.46-.41-3.58-.12-3.56.93-6.72,2.57-8.66,5.94-.22.38-.77.73-1.21.78-5.01.6-10.04,1.67-15.04,1.53-4.05-.11-5.23-2.27-5.32-6.34-.06-2.74-.26-5.48-.31-8.22-.03-1.93-1.19-2.62-2.83-2.6-1.67.02-2.7.81-2.72,2.71-.04,2.84-.27,5.67-.36,8.51-.11,3.52-1.2,5.09-4.53,5.91-5.46,1.35-10.64-.59-15.88-1.59-.82-.16-1.8-1.06-2.16-1.87-1.74-3.96-6.15-3.47-8.98-5.57-.22-.16-.81-.04-1.11.15-2.18,1.4-4.32,2.86-7.14,4.73,6.82,1.47,12.36,3.96,17.04,8.18.36.32,1.5.17,2.03-.16,6.87-4.28,17.29-3.95,24.21.94,1.88-3.22,5.05-3.88,8.38-3.71,5.27.26,10.87-.91,15.47,3.02.34.29,1.43.21,1.8-.12,4.64-4.12,10.01-6.75,16.18-7.86ZM170.8,318.02c-.15-2.5-.32-5.15-.5-8.17-4.6.55-8.83,1.05-13.22,1.57,1.43,2.27,2.47,4,3.61,5.66.29.42.88.88,1.34.89,2.79.08,5.58.04,8.78.04ZM204.28,311.38c-4.57-.51-8.77-.98-13.19-1.48-.19,3.14-.34,5.71-.49,8.13,3.19,0,6,.03,8.8-.03.41,0,.95-.35,1.18-.7,1.16-1.76,2.24-3.57,3.69-5.92ZM197.13,337.51c-.04-.31-.07-.63-.11-.94-5.68-1.66-9.04-1.13-9.19,1.94,3.15-.34,6.23-.67,9.3-1ZM164.45,336.28c-.04.41-.08.82-.12,1.23,3.05.33,6.09.67,9.14,1,.19-.36.38-.72.57-1.08-.69-.58-1.38-1.64-2.07-1.64-2.5-.03-5.01.3-7.52.5Z" style="fill: #000; stroke-width: 0px;"/>
  <path d="M139.55,473.72c0-6.27.38-12.58-.12-18.81-.39-4.81-1.52-9.64-2.99-14.25-1.14-3.59-4.13-5.45-8.16-5.61-4.53-.19-7.32-2.5-7.71-5.83-.44-3.84,1.96-7.13,6.32-8.35,6.14-1.73,11.66-.28,16.47,3.78,6.83,5.77,9.87,13.49,9.87,22.12,0,8.01-1.15,16-1.59,24.02-.41,7.53-.52,15.07-.85,22.6-.21,4.73,1.79,8.45,5.86,10.39,10.35,4.94,12.96,13.62,12.58,24.05-.12,3.23-.09,6.48.25,9.69.11,1.01,1.28,2.17,2.26,2.76,2.25,1.35,4.63,2.54,7.07,3.5,1.07.42,2.57.46,3.63.05,2.72-1.04,5.38-2.3,7.91-3.74.81-.46,1.56-1.75,1.61-2.71.26-4.5.39-9.01.36-13.51-.07-8.74,3.37-15.26,11.36-19.31,4.75-2.41,7.3-6.32,6.93-11.91-.72-10.84-1.2-21.7-2.01-32.54-.57-7.66-1.21-15.3,1.21-22.74,2.37-7.3,6.65-13.08,14.01-16.06,3.89-1.58,7.87-1.52,11.79-.1,3.59,1.3,5.77,4.67,5.34,7.92-.43,3.2-3.14,5.8-7.08,5.87-5.58.1-8.67,3.25-9.86,8.03-1.21,4.89-1.95,10.01-2.07,15.05-.26,11.46.19,22.93-.04,34.39-.21,10.3-4.54,18.41-13.71,23.78-1.54.9-2.86,3.03-3.25,4.83-.84,3.8-.86,7.78-1.49,11.65-.66,4.04-1.42,8.09-2.56,12.02-1,3.43-3.53,5.53-7.17,6.21-1.33.25-2.72.61-3.88,1.28-6.1,3.51-12.13,3.55-18.23.02-1.08-.62-2.36-1.01-3.59-1.22-4.14-.69-6.83-3.13-7.81-7.05-1.07-4.25-1.67-8.62-2.39-12.96-.3-1.83-.45-3.7-.52-5.56-.18-4.94-2.08-8.32-6.64-11.08-7.13-4.32-10.49-11.58-11.01-19.77-.44-6.93-.09-13.91-.09-20.86Z" style="fill: #000; stroke-width: 0px;"/>
  <path d="M212.44,596.71c-1.28-10.04-.52-19.99,1.65-29.81,2.05-9.31,10.93-13.32,19.28-8.81,2.95,1.59,4.5,4.37,4.03,7.19-.51,3.04-2.84,5.44-6.39,5.43-3.71,0-4.97,1.83-6.03,4.97-3.2,9.5-2.8,19.33-3.02,29.1-.07,3.33.27,6.66.3,9.99.07,7.86-3.54,13.13-10.9,16.06-.91.36-1.85.65-2.79.92-5.75,1.61-5.62,1.62-6.17,7.72-1.13,12.48-2.44,24.95-3.64,37.43-.78,8.09-5.4,13.02-12.85,15.49-7.22,2.39-13.32-.17-18.67-4.88-3.1-2.73-4.19-6.6-4.59-10.56-1.32-13.15-2.62-26.31-3.69-39.49-.25-3.08-.92-5.01-4.33-5.32-1.53-.14-3.05-.74-4.5-1.31-7.5-2.9-11.06-8.23-11.04-16.26.02-7.93.37-15.89-.17-23.79-.38-5.6-1.94-11.13-3.05-16.68-.44-2.19-1.78-3.19-4.17-3.26-4.39-.13-7.09-2.26-7.57-5.55-.51-3.45,1.6-6.45,5.58-7.95,8.35-3.16,15.89,1.05,17.78,9.82,2.59,12.02,2.35,24.12,1.61,36.29-.26,4.36.19,8.78.43,13.16.15,2.58,1.56,3.86,4.27,3.59,1.16-.12,2.35-.03,3.53-.01,8.79.08,13.02,4.37,13.31,13.23.23,6.85.39,13.72,1.08,20.53.66,6.52,1.66,13.04,3.1,19.43.58,2.59,2.59,4.92,4.15,7.22.95,1.4,2.53,1.4,3.45,0,1.63-2.48,3.73-5,4.31-7.78,2.67-12.77,4.24-25.7,4.09-38.8-.11-9.52,4.39-13.86,13.84-13.85,7.01,0,7.24.03,7.72-7.05.37-5.45.07-10.95.07-16.43Z" style="fill: #000; stroke-width: 0px;"/>
  <path d="M180.69,782.3c3.69-4.37,8.26-5.08,13.09-5.26,4.02-.15,4.73-.89,4.96-5.27.46-8.81.77-17.63,1.22-26.44.15-3.03.27-6.1.88-9.05,2.05-10.01,13.18-14.95,22.1-9.92,2.22,1.25,3.59,3.16,3.3,5.77-.31,2.76-2.15,4.41-4.77,4.91-1.7.33-3.51.28-5.26.14-2.46-.2-3.74.85-3.95,3.23-.62,6.93-1.27,13.85-1.76,20.79-.33,4.59-.09,9.23-.65,13.79-1.13,9.18-6.2,13.74-15.42,14.12-2.23.09-3.12.92-3.41,3.05-.48,3.59-.9,7.23-1.84,10.71-1.62,5.94-3.52,11.8-5.56,17.6-.35.99-2.19,2.3-3,2.1-1.24-.31-2.64-1.61-3.19-2.84-3.74-8.39-5.79-17.26-6.8-26.36-.34-3.05-1.4-4.29-4.72-4.37-7.42-.17-12.6-4.65-13.92-11.96-.74-4.12-.67-8.38-.98-12.58-.56-7.81-1.13-15.63-1.7-23.44-.21-2.88-1.58-4.21-4.61-3.84-1.63.2-3.36.16-4.96-.19-2.35-.53-4.03-2.03-4.43-4.55-.39-2.5.66-4.38,2.7-5.77,7.48-5.08,19.3-1.3,21.89,7.34,1.13,3.78,1.35,7.9,1.6,11.88.53,8.61.77,17.23,1.2,25.85.22,4.4.93,5.15,5.24,5.3,4.74.17,9.17.99,12.75,5.25Z" style="fill: #000; stroke-width: 0px;"/>
  <path d="M169.78,95.44c.51,1.36.89,2.62,1.43,3.81,6.82,14.74,6.67,29.77,1.85,44.98-.29.92-.78,1.81-1.34,2.6-1.29,1.85-3.07,2.75-5.34,2.18-2.3-.58-3.58-2.31-3.53-4.51.07-3.41.58-6.82.93-10.22.31-3.02.78-6.03.99-9.05.3-4.46-.65-8.64-2.23-12.88-2.05-5.48-3.5-11.22-4.71-16.96-1.18-5.61.88-9,5.88-11.86.97-.56,1.93-1.91,2.09-3.01.97-6.99,4.67-9.56,11.65-8.23,2.24.43,4.7.34,6.94-.09,6.35-1.24,10.48,1.49,11.05,7.88.17,1.92.87,2.93,2.58,3.77,4.57,2.26,6.6,5.79,5.65,10.82-1.06,5.57-2.1,11.29-4.31,16.45-2.98,6.95-3.07,13.84-2.04,21.01.49,3.39.98,6.79,1.32,10.21.37,3.69-1.08,6.15-3.77,6.74-2.6.57-5.06-.83-6.22-4.18-5.12-14.82-5.16-29.58.91-44.19.7-1.69,1.46-3.35,2.31-5.28-.78-.11-1.14-.25-1.47-.2-3.63.6-5.54-.96-5.79-4.62-.12-1.74-.53-3.46-.66-5.2-.16-2.18-1.45-2.73-3.37-2.73-1.89,0-2.91.75-3.1,2.7-.12,1.26-.65,2.48-.7,3.73-.24,5.48-1.14,6.4-6.97,6.34Z" style="fill: #000; stroke-width: 0px;"/>
  <path d="M83.63,317.14c.87-7.18,1.58-14.39,2.65-21.54.9-6.05,3.88-10.66,9.7-13.45,2.83-1.36,5.43-3.53,7.63-5.82,5.05-5.25,10.93-8.15,18.24-9.03,7.28-.88,14.42-2.82,21.85-1.96,1.46.17,3.06,0,4.33.59,1.18.54,2.76,1.86,2.77,2.85.01,1.19-1.18,2.92-2.32,3.49-2.15,1.09-4.6,1.7-6.98,2.19-7.08,1.46-14.17,2.94-21.31,4.06-2.65.42-4.57,1.19-5.84,3.65-2.56,4.98-5.98,9.13-11.22,11.62-1.01.48-1.92,2.07-2.08,3.25-.43,3.09-.5,6.23-.55,9.36-.11,6.95-.07,13.91-.22,20.86-.04,1.74-.4,3.52-.93,5.18-1.14,3.62-3.52,5.47-6.75,5.54-3.11.07-5.8-1.82-6.87-5.37-.75-2.51-1.11-5.16-1.34-7.78-.22-2.53-.05-5.09-.05-7.64-.23-.02-.47-.04-.7-.07Z" style="fill: #000; stroke-width: 0px;"/>
  <path d="M181.1,205.13c.26-1.06.58-2.11.76-3.18,1.95-11.49,3.88-22.98,5.84-34.47.16-.96.37-1.94.75-2.82.86-1.99,2.56-3.5,4.58-2.76,1.56.57,2.71,2.4,3.88,3.81.36.43.24,1.33.19,2.01-1.21,15.02-2.32,30.06-3.76,45.06-.26,2.7-1.49,5.51-2.94,7.86-2.14,3.46-4.82,3.87-8.58,2.29-.67-.28-1.69-.19-2.37.11-3.18,1.42-5.75,1.21-7.77-1.67-1.58-2.25-3.06-5.01-3.33-7.67-1.56-15.48-2.8-30.99-4.01-46.51-.24-3.12,1.71-5.28,4.18-5.47,2.43-.18,4.44,1.59,5,4.79,2.04,11.57,3.98,23.16,5.97,34.74.22,1.29.5,2.57.75,3.85l.87.02Z" style="fill: #000; stroke-width: 0px;"/>
  <path d="M260.85,313.69c0-4.89.05-9.79-.02-14.68-.04-2.85-1.2-4.9-4.04-6.18-4.39-1.97-7.15-5.75-9.26-9.91-1.5-2.95-3.68-3.9-6.89-4.48-9.13-1.63-18.18-3.74-27.19-5.97-1.26-.31-3-2.47-2.88-3.6.12-1.16,2.16-2.88,3.51-3.02,4.45-.48,9-.75,13.45-.36,5.64.5,11.21,1.74,16.81,2.66,4.54.75,8.22,3.12,11.36,6.32,3.59,3.67,7.49,6.81,12.11,9.15,4.58,2.32,6.35,6.76,7.3,11.5,2.07,10.33,2.9,20.76,1.86,31.27-.25,2.5-.82,5.04-1.71,7.38-1.01,2.65-3.16,4.17-6.14,4.22-3.12.05-5.36-1.52-6.42-4.26-.87-2.24-1.37-4.72-1.5-7.12-.23-4.3-.07-8.61-.07-12.92h-.27Z" style="fill: #000; stroke-width: 0px;"/>
  <path d="M117.61,384.29c.25.02.78-.05,1.22.11,10.44,3.7,21.57,2.14,32.21,4.27,3.24.65,6.55,1.35,9.55,2.67,3.75,1.65,6.55,4.54,8,8.57,2.81,7.81,5.8,15.55,8.43,23.42.46,1.38.06,3.81-.91,4.7-.99.91-3.52,1.17-4.76.54-2.26-1.16-4.71-2.83-5.94-4.95-2.43-4.19-4.11-8.82-6.03-13.29-.54-1.25-.82-2.61-1.22-3.92-.87-2.84-2.61-4.29-5.76-4.42-6.64-.28-13.27-.91-19.91-1.3-6.48-.38-12.51-2.26-18.17-5.33-3.05-1.66-4.22-4.11-3.53-6.71.72-2.7,3.17-4.32,6.82-4.33Z" style="fill: #000; stroke-width: 0px;"/>
  <path d="M243.19,384.3c4.16-.03,6.64,1.53,7.39,4.2.77,2.73-.41,5.2-3.63,6.92-6.04,3.24-12.46,5.04-19.37,5.31-6.55.25-13.08.92-19.62,1.37-2.11.14-3.49,1.18-4.17,3.13-.74,2.12-1.25,4.34-2.13,6.4-1.72,4.03-3.18,8.3-5.62,11.87-1.63,2.39-4.55,4.29-7.3,5.41-2.98,1.22-5.34-1.42-4.76-4.63.07-.38.18-.77.31-1.13,2.7-7.43,5.45-14.85,8.1-22.29,2.3-6.44,7.07-10.12,13.49-11.36,5.94-1.15,12.03-1.55,18.05-2.34,5.41-.71,10.8-1.49,16.2-2.27,1.25-.18,2.49-.48,3.05-.59Z" style="fill: #000; stroke-width: 0px;"/>
  <path d="M188.71,462.23c.72,8.28,1.59,16.55,2.08,24.85.2,3.38-.03,6.88-.74,10.19-1.03,4.77-3.74,6-8.42,4.59-.66-.2-1.52-.08-2.2.16-3.6,1.27-5.95.54-7.35-2.97-.89-2.22-1.42-4.73-1.42-7.11,0-5.18.49-10.35.73-15.53.32-6.93.64-13.86.87-20.79.07-2.24.12-5.1,2.45-5.42,3.88-.52,7.91-.12,11.85-.02.9.02,2.17,2.97,2.49,4.71.43,2.37.11,4.87.11,7.32-.15,0-.3.01-.44.02Z" style="fill: #000; stroke-width: 0px;"/>
  <path d="M180.67,721.52c.38-.32.72-.52.94-.8,1.46-1.93,3.23-3.29,5.77-2.46,2.72.89,3.65,3.18,3.69,5.78.12,7.54.16,15.08.13,22.62,0,2.05-.25,4.11-.56,6.14-.18,1.14-.43,2.51-1.18,3.25-1.08,1.08-2.69,2.37-3.98,2.28-1.28-.09-2.59-1.65-3.61-2.81-.58-.66-.61-1.81-1.1-3.43-.58,1.63-.71,2.87-1.37,3.65-.94,1.11-2.23,2.51-3.47,2.61-1.24.1-3.09-.92-3.78-2.02-.99-1.57-1.6-3.65-1.64-5.53-.2-9-.2-18.01-.16-27.02.01-2.51,1.14-4.63,3.68-5.5,2.53-.86,4.33.37,5.74,2.41.2.3.54.5.9.82Z" style="fill: #000; stroke-width: 0px;"/>
  <path d="M191.27,42.05c-.23,2.74-.3,6.48-.91,10.13-.8,4.76-4.2,6.08-8.41,3.75-.69-.38-2.03-.23-2.77.2-3.57,2.05-6.95.89-7.92-3.18-.63-2.64-.93-5.44-.87-8.15.11-4.99.14-10.05,1.07-14.92.62-3.21,2.31-6.46,4.33-9.08,2.6-3.38,6.68-3.15,9.79-.19,2.99,2.86,4.29,6.53,4.78,10.49.41,3.3.57,6.64.92,10.95Z" style="fill: #000; stroke-width: 0px;"/>
  <path d="M171.77,586.42c.24-3.32.39-6.65.75-9.96.47-4.28,2.64-5.76,6.78-4.97,1.01.19,2.13.09,3.16-.11,3.34-.66,5.77.64,6.22,4.01,1.45,10.67,1.4,21.31-1.63,31.76-.8,2.75-2.47,3.39-5.2,2.47-.66-.22-1.5-.3-2.14-.1-3.24,1.03-4.92.38-5.53-3.01-1.18-6.63-2-13.32-2.97-19.98.19-.04.38-.07.56-.11Z" style="fill: #000; stroke-width: 0px;"/>
  <path d="M185.99,842.17c-.54,4.6-1.02,9.07-1.61,13.53-.29,2.17-1.49,3.72-3.84,3.65-2.18-.07-3.31-1.55-3.56-3.62-.55-4.56-1.04-9.13-1.49-13.7-.09-.96-.01-1.97.18-2.91.55-2.71,2.62-4.53,5.01-4.54,2.41,0,4.45,1.79,5.02,4.52.22,1.04.21,2.13.3,3.08Z" style="fill: #000; stroke-width: 0px;"/>
  <path d="M170.8,318.02c-3.2,0-5.99.04-8.78-.04-.46-.01-1.05-.47-1.34-.89-1.14-1.66-2.17-3.39-3.61-5.66,4.39-.52,8.62-1.02,13.22-1.57.19,3.02.35,5.67.5,8.17Z" style="fill: #fff; stroke-width: 0px;"/>
  <path d="M204.28,311.38c-1.45,2.35-2.53,4.16-3.69,5.92-.23.35-.78.69-1.18.7-2.81.06-5.61.03-8.8.03.14-2.41.3-4.99.49-8.13,4.42.5,8.62.97,13.19,1.48Z" style="fill: #fff; stroke-width: 0px;"/>
  <path d="M197.13,337.51c-3.07.33-6.15.66-9.3,1,.15-3.06,3.51-3.6,9.19-1.94.04.31.07.63.11.94Z" style="fill: #fff; stroke-width: 0px;"/>
</svg>