<?xml version="1.0" encoding="utf-8"?><!-- Uploaded to: SVG Repo, www.svgrepo.com, Generator: SVG Repo Mixer Tools -->
<svg width="800px" height="800px" viewBox="0 0 64 64" xmlns="http://www.w3.org/2000/svg" xmlns:xlink="http://www.w3.org/1999/xlink" aria-hidden="true" role="img" class="iconify iconify--emojione-monotone" preserveAspectRatio="xMidYMid meet"><path d="M32 2C15.43 2 2 15.43 2 32s13.43 30 30 30s30-13.43 30-30S48.57 2 32 2zm0 57.5C16.836 59.5 4.5 47.164 4.5 32S16.836 4.5 32 4.5S59.5 16.836 59.5 32S47.164 59.5 32 59.5z" fill="#000000"></path><path d="M51.5 23.527c.703-.135.193-2.27-.385-2.156c-4.17.748-8.457-.4-11.693-3.133c-.443-.387-1.955 1.205-1.414 1.674A16.417 16.417 0 0 0 51.5 23.527" fill="#000000"></path><path d="M12.498 23.377a16.42 16.42 0 0 0 13.492-3.615c.543-.469-.969-2.063-1.412-1.674a14.23 14.23 0 0 1-11.691 3.133c-.58-.114-1.092 2.021-.389 2.156" fill="#000000"></path><path d="M51.467 27.904c-4.941 2.114-11.463.049-14.385-3.852c-.764.264-1.34.296-1.242.736c2.01 8.772 10.205 10.966 16.334 4.377c.305-.332-.178-.647-.707-1.261" fill="#000000"></path><path d="M28.162 24.789c.096-.44-.479-.473-1.244-.738c-3.221 4.3-9.902 5.772-14.383 3.855c-.529.611-1.014.927-.709 1.26c6.129 6.592 14.322 4.395 16.336-4.377" fill="#000000"></path><path d="M32 38c-9.793 0-13.959 2.407-15.674 6c-.918 1.92.393 5 .393 5c1.637 3.883 1.408 5 15.283 5c13.857 0 13.643-1.117 15.279-5c0 0 1.309-3.08.395-5c-1.715-3.593-5.881-6-15.676-6m11.363 4.965l-.195.563a.755.755 0 0 1-.664.472H21.496a.754.754 0 0 1-.664-.473l-.195-.563a.792.792 0 0 1 .217-.797S23.399 39.999 32 39.999s11.146 2.168 11.146 2.168c.209.18.307.538.217.798" fill="#000000"></path></svg>